{
    "header": {
      "keySignatures": [
        {
          "key": "Bb",
          "scale": "minor",
          "ticks": 0
        }
      ],
      "meta": [
        {
          "text": "Manhattan Joke '92",
          "ticks": 0,
          "type": "text"
        }
      ],
      "name": "",
      "ppq": 480,
      "tempos": [
        {
          "bpm": 111.000111000111,
          "ticks": 0
        }
      ],
      "timeSignatures": [
        {
          "ticks": 0,
          "timeSignature": [
            4,
            4
          ],
          "measures": 0
        }
      ]
    },
    "tracks": [
      {
        "channel": 0,
        "controlChanges": {
          "0": [
            {
              "number": 0,
              "ticks": 480,
              "time": 0.54054,
              "value": 0
            }
          ],
          "6": [
            {
              "number": 6,
              "ticks": 550,
              "time": 0.61936875,
              "value": 0.015748031496062992
            }
          ],
          "7": [
            {
              "number": 7,
              "ticks": 510,
              "time": 0.57432375,
              "value": 0.6692913385826772
            },
            {
              "number": 7,
              "ticks": 26880,
              "time": 30.27024,
              "value": 0.6692913385826772
            },
            {
              "number": 7,
              "ticks": 69104,
              "time": 77.819742,
              "value": 0.5905511811023622
            },
            {
              "number": 7,
              "ticks": 94063,
              "time": 105.92669587500001,
              "value": 0.6692913385826772
            },
            {
              "number": 7,
              "ticks": 109440,
              "time": 123.24312,
              "value": 0.5905511811023622
            },
            {
              "number": 7,
              "ticks": 117120,
              "time": 131.89176,
              "value": 0.6692913385826772
            },
            {
              "number": 7,
              "ticks": 159344,
              "time": 179.441262,
              "value": 0.5905511811023622
            },
            {
              "number": 7,
              "ticks": 207343,
              "time": 233.494135875,
              "value": 0.6692913385826772
            },
            {
              "number": 7,
              "ticks": 207360,
              "time": 233.51328,
              "value": 0.5905511811023622
            }
          ],
          "10": [
            {
              "number": 10,
              "ticks": 510,
              "time": 0.57432375,
              "value": 0.44881889763779526
            }
          ],
          "32": [
            {
              "number": 32,
              "ticks": 490,
              "time": 0.55180125,
              "value": 0
            }
          ],
          "38": [
            {
              "number": 38,
              "ticks": 540,
              "time": 0.6081075,
              "value": 0.015748031496062992
            }
          ],
          "91": [
            {
              "number": 91,
              "ticks": 510,
              "time": 0.57432375,
              "value": 0.3937007874015748
            }
          ],
          "93": [
            {
              "number": 93,
              "ticks": 510,
              "time": 0.57432375,
              "value": 0
            }
          ],
          "100": [
            {
              "number": 100,
              "ticks": 530,
              "time": 0.59684625,
              "value": 0
            }
          ],
          "101": [
            {
              "number": 101,
              "ticks": 520,
              "time": 0.585585,
              "value": 0
            }
          ]
        },
        "pitchBends": [],
        "instrument": {
          "family": "piano",
          "number": 0,
          "name": "acoustic grand piano"
        },
        "name": "",
        "notes": [
          {
            "duration": 0.05968462499999916,
            "durationTicks": 53,
            "midi": 84,
            "name": "C6",
            "ticks": 4808,
            "time": 5.414409000000001,
            "velocity": 0.7401574803149606
          },
          {
            "duration": 0.04279274999999938,
            "durationTicks": 38,
            "midi": 81,
            "name": "A5",
            "ticks": 5054,
            "time": 5.69143575,
            "velocity": 0.7716535433070866
          },
          {
            "duration": 0.14414399999999983,
            "durationTicks": 128,
            "midi": 81,
            "name": "A5",
            "ticks": 5299,
            "time": 5.967336375,
            "velocity": 0.7401574803149606
          },
          {
            "duration": 0.07995487500000031,
            "durationTicks": 71,
            "midi": 79,
            "name": "G5",
            "ticks": 5405,
            "time": 6.086705625,
            "velocity": 0.7480314960629921
          },
          {
            "duration": 0.44256712500000095,
            "durationTicks": 393,
            "midi": 81,
            "name": "A5",
            "ticks": 5676,
            "time": 6.3918855,
            "velocity": 0.8188976377952756
          },
          {
            "duration": 0.04279274999999938,
            "durationTicks": 38,
            "midi": 74,
            "name": "D5",
            "ticks": 6039,
            "time": 6.800668875,
            "velocity": 0.6377952755905512
          },
          {
            "duration": 0.11261249999999912,
            "durationTicks": 100,
            "midi": 74,
            "name": "D5",
            "ticks": 7361,
            "time": 8.289406125000001,
            "velocity": 0.7480314960629921
          },
          {
            "duration": 0.03941437499999978,
            "durationTicks": 35,
            "midi": 81,
            "name": "A5",
            "ticks": 7479,
            "time": 8.422288875000001,
            "velocity": 0.7007874015748031
          },
          {
            "duration": 0.08558549999999876,
            "durationTicks": 76,
            "midi": 79,
            "name": "G5",
            "ticks": 7698,
            "time": 8.668910250000001,
            "velocity": 0.8346456692913385
          },
          {
            "duration": 0.11936924999999832,
            "durationTicks": 106,
            "midi": 84,
            "name": "C6",
            "ticks": 9841,
            "time": 11.082196125000001,
            "velocity": 0.7637795275590551
          },
          {
            "duration": 0.07207199999999858,
            "durationTicks": 64,
            "midi": 81,
            "name": "A5",
            "ticks": 9950,
            "time": 11.204943750000002,
            "velocity": 0.7086614173228346
          },
          {
            "duration": 0.06756750000000089,
            "durationTicks": 60,
            "midi": 77,
            "name": "F5",
            "ticks": 10225,
            "time": 11.514628125,
            "velocity": 0.6299212598425197
          },
          {
            "duration": 0.05518012499999969,
            "durationTicks": 49,
            "midi": 74,
            "name": "D5",
            "ticks": 10338,
            "time": 11.641880250000002,
            "velocity": 0.5590551181102362
          },
          {
            "duration": 0.43243200000000037,
            "durationTicks": 384,
            "midi": 79,
            "name": "G5",
            "ticks": 10598,
            "time": 11.93467275,
            "velocity": 0.8503937007874016
          },
          {
            "duration": 0.05968462499999916,
            "durationTicks": 53,
            "midi": 81,
            "name": "A5",
            "ticks": 10982,
            "time": 12.367104750000001,
            "velocity": 0.6377952755905512
          },
          {
            "duration": 0.09572062499999845,
            "durationTicks": 85,
            "midi": 84,
            "name": "C6",
            "ticks": 12549,
            "time": 14.131742625000001,
            "velocity": 0.7716535433070866
          },
          {
            "duration": 0.07207200000000036,
            "durationTicks": 64,
            "midi": 81,
            "name": "A5",
            "ticks": 12776,
            "time": 14.387373,
            "velocity": 0.8031496062992126
          },
          {
            "duration": 0.1216215000000016,
            "durationTicks": 108,
            "midi": 79,
            "name": "G5",
            "ticks": 13009,
            "time": 14.649760125,
            "velocity": 0.7165354330708661
          },
          {
            "duration": 0.05405400000000071,
            "durationTicks": 48,
            "midi": 84,
            "name": "C6",
            "ticks": 13129,
            "time": 14.784895125,
            "velocity": 0.6377952755905512
          },
          {
            "duration": 0.1148647500000024,
            "durationTicks": 102,
            "midi": 74,
            "name": "D5",
            "ticks": 14811,
            "time": 16.679037375,
            "velocity": 0.5984251968503937
          },
          {
            "duration": 0.07770262500000058,
            "durationTicks": 69,
            "midi": 81,
            "name": "A5",
            "ticks": 14889,
            "time": 16.766875125000002,
            "velocity": 0.6377952755905512
          },
          {
            "duration": 0.06756749999999911,
            "durationTicks": 60,
            "midi": 79,
            "name": "G5",
            "ticks": 15127,
            "time": 17.034892875,
            "velocity": 0.7952755905511811
          },
          {
            "duration": 0.38738700000000037,
            "durationTicks": 344,
            "midi": 77,
            "name": "F5",
            "ticks": 15371,
            "time": 17.309667375,
            "velocity": 0.8110236220472441
          },
          {
            "duration": 0.03716212500000182,
            "durationTicks": 33,
            "midi": 74,
            "name": "D5",
            "ticks": 15717,
            "time": 17.699306625,
            "velocity": 0.6377952755905512
          },
          {
            "duration": 0.17680162499999952,
            "durationTicks": 157,
            "midi": 79,
            "name": "G5",
            "ticks": 17227,
            "time": 19.399755375,
            "velocity": 0.8503937007874016
          },
          {
            "duration": 0.11486474999999885,
            "durationTicks": 102,
            "midi": 84,
            "name": "C6",
            "ticks": 17455,
            "time": 19.656511875000003,
            "velocity": 0.7401574803149606
          },
          {
            "duration": 0.11486474999999885,
            "durationTicks": 102,
            "midi": 77,
            "name": "F5",
            "ticks": 17702,
            "time": 19.934664750000003,
            "velocity": 0.8031496062992126
          },
          {
            "duration": 0.09684675000000098,
            "durationTicks": 86,
            "midi": 74,
            "name": "D5",
            "ticks": 17813,
            "time": 20.059664625,
            "velocity": 0.7007874015748031
          },
          {
            "duration": 0.12725212500000183,
            "durationTicks": 113,
            "midi": 79,
            "name": "G5",
            "ticks": 17924,
            "time": 20.1846645,
            "velocity": 0.7559055118110236
          },
          {
            "duration": 0.11036024999999938,
            "durationTicks": 98,
            "midi": 76,
            "name": "E5",
            "ticks": 18061,
            "time": 20.338943625,
            "velocity": 0.6220472440944882
          },
          {
            "duration": 0.06644137500000014,
            "durationTicks": 59,
            "midi": 72,
            "name": "C5",
            "ticks": 18184,
            "time": 20.477457,
            "velocity": 0.3464566929133858
          },
          {
            "duration": 0.10810800000000143,
            "durationTicks": 96,
            "midi": 74,
            "name": "D5",
            "ticks": 18270,
            "time": 20.574303750000002,
            "velocity": 0.6850393700787402
          },
          {
            "duration": 0.1700448750000021,
            "durationTicks": 151,
            "midi": 67,
            "name": "G4",
            "ticks": 18410,
            "time": 20.73196125,
            "velocity": 0.6141732283464567
          },
          {
            "duration": 0.0574323750000012,
            "durationTicks": 51,
            "midi": 72,
            "name": "C5",
            "ticks": 18530,
            "time": 20.86709625,
            "velocity": 0.5984251968503937
          },
          {
            "duration": 0.31756724999999975,
            "durationTicks": 282,
            "midi": 58,
            "name": "A#3",
            "ticks": 19358,
            "time": 21.79952775,
            "velocity": 0.7401574803149606
          },
          {
            "duration": 0.3029276249999988,
            "durationTicks": 269,
            "midi": 63,
            "name": "D#4",
            "ticks": 19368,
            "time": 21.810789000000003,
            "velocity": 0.6456692913385826
          },
          {
            "duration": 0.24999975000000063,
            "durationTicks": 222,
            "midi": 63,
            "name": "D#4",
            "ticks": 19680,
            "time": 22.16214,
            "velocity": 0.6141732283464567
          },
          {
            "duration": 0.23986462500000272,
            "durationTicks": 213,
            "midi": 58,
            "name": "A#3",
            "ticks": 19683,
            "time": 22.165518375,
            "velocity": 0.7480314960629921
          },
          {
            "duration": 0.20608087500000138,
            "durationTicks": 183,
            "midi": 58,
            "name": "A#3",
            "ticks": 20167,
            "time": 22.710562875,
            "velocity": 0.7480314960629921
          },
          {
            "duration": 0.18918899999999894,
            "durationTicks": 168,
            "midi": 63,
            "name": "D#4",
            "ticks": 20177,
            "time": 22.721824125,
            "velocity": 0.6535433070866141
          },
          {
            "duration": 0.08896387499999747,
            "durationTicks": 79,
            "midi": 58,
            "name": "A#3",
            "ticks": 20393,
            "time": 22.965067125,
            "velocity": 0.7244094488188977
          },
          {
            "duration": 0.05855850000000018,
            "durationTicks": 52,
            "midi": 63,
            "name": "D#4",
            "ticks": 20403,
            "time": 22.976328375,
            "velocity": 0.31496062992125984
          },
          {
            "duration": 0.6644137499999978,
            "durationTicks": 590,
            "midi": 63,
            "name": "D#4",
            "ticks": 20541,
            "time": 23.131733625000003,
            "velocity": 0.7716535433070866
          },
          {
            "duration": 0.6891885000000038,
            "durationTicks": 612,
            "midi": 57,
            "name": "A3",
            "ticks": 20544,
            "time": 23.135112,
            "velocity": 0.6614173228346457
          },
          {
            "duration": 0.2522519999999986,
            "durationTicks": 224,
            "midi": 65,
            "name": "F4",
            "ticks": 21298,
            "time": 23.98421025,
            "velocity": 0.7480314960629921
          },
          {
            "duration": 0.2522519999999986,
            "durationTicks": 224,
            "midi": 62,
            "name": "D4",
            "ticks": 21298,
            "time": 23.98421025,
            "velocity": 0.7086614173228346
          },
          {
            "duration": 0.4673418749999989,
            "durationTicks": 415,
            "midi": 65,
            "name": "F4",
            "ticks": 21617,
            "time": 24.343444125,
            "velocity": 0.7480314960629921
          },
          {
            "duration": 0.44369324999999904,
            "durationTicks": 394,
            "midi": 61,
            "name": "C#4",
            "ticks": 21627,
            "time": 24.354705375,
            "velocity": 0.7480314960629921
          },
          {
            "duration": 0.3254501249999997,
            "durationTicks": 289,
            "midi": 65,
            "name": "F4",
            "ticks": 22101,
            "time": 24.888488625,
            "velocity": 0.7480314960629921
          },
          {
            "duration": 0.32770237499999766,
            "durationTicks": 291,
            "midi": 60,
            "name": "C4",
            "ticks": 22101,
            "time": 24.888488625,
            "velocity": 0.7637795275590551
          },
          {
            "duration": 0.6700443749999963,
            "durationTicks": 595,
            "midi": 53,
            "name": "F3",
            "ticks": 22488,
            "time": 25.324299000000003,
            "velocity": 0.7086614173228346
          },
          {
            "duration": 0.6565308750000014,
            "durationTicks": 583,
            "midi": 59,
            "name": "B3",
            "ticks": 22498,
            "time": 25.33556025,
            "velocity": 0.7244094488188977
          },
          {
            "duration": 0.12499987500000032,
            "durationTicks": 111,
            "midi": 70,
            "name": "A#4",
            "ticks": 23040,
            "time": 25.94592,
            "velocity": 0.8346456692913385
          },
          {
            "duration": 0.13175662499999774,
            "durationTicks": 117,
            "midi": 67,
            "name": "G4",
            "ticks": 23040,
            "time": 25.94592,
            "velocity": 0.7244094488188977
          },
          {
            "duration": 0.15653137500000014,
            "durationTicks": 139,
            "midi": 63,
            "name": "D#4",
            "ticks": 23040,
            "time": 25.94592,
            "velocity": 0.6850393700787402
          },
          {
            "duration": 0.0653152499999976,
            "durationTicks": 58,
            "midi": 60,
            "name": "C4",
            "ticks": 23040,
            "time": 25.94592,
            "velocity": 0.4251968503937008
          },
          {
            "duration": 0.1452701249999997,
            "durationTicks": 129,
            "midi": 70,
            "name": "A#4",
            "ticks": 23520,
            "time": 26.48646,
            "velocity": 0.8267716535433071
          },
          {
            "duration": 0.13288274999999672,
            "durationTicks": 118,
            "midi": 67,
            "name": "G4",
            "ticks": 23520,
            "time": 26.48646,
            "velocity": 0.6614173228346457
          },
          {
            "duration": 0.1644142500000001,
            "durationTicks": 146,
            "midi": 63,
            "name": "D#4",
            "ticks": 23520,
            "time": 26.48646,
            "velocity": 0.6614173228346457
          },
          {
            "duration": 0.0653152499999976,
            "durationTicks": 58,
            "midi": 60,
            "name": "C4",
            "ticks": 23520,
            "time": 26.48646,
            "velocity": 0.36220472440944884
          },
          {
            "duration": 0.08896387500000102,
            "durationTicks": 79,
            "midi": 70,
            "name": "A#4",
            "ticks": 24000,
            "time": 27.027,
            "velocity": 0.84251968503937
          },
          {
            "duration": 0.11599087499999783,
            "durationTicks": 103,
            "midi": 67,
            "name": "G4",
            "ticks": 24000,
            "time": 27.027,
            "velocity": 0.7244094488188977
          },
          {
            "duration": 0.11373862499999987,
            "durationTicks": 101,
            "midi": 63,
            "name": "D#4",
            "ticks": 24000,
            "time": 27.027,
            "velocity": 0.6850393700787402
          },
          {
            "duration": 0.11373862499999987,
            "durationTicks": 101,
            "midi": 60,
            "name": "C4",
            "ticks": 24000,
            "time": 27.027,
            "velocity": 0.6850393700787402
          },
          {
            "duration": 0.3536032500000026,
            "durationTicks": 314,
            "midi": 60,
            "name": "C4",
            "ticks": 24480,
            "time": 27.56754,
            "velocity": 0.7007874015748031
          },
          {
            "duration": 0.3828825000000009,
            "durationTicks": 340,
            "midi": 66,
            "name": "F#4",
            "ticks": 24480,
            "time": 27.56754,
            "velocity": 0.7637795275590551
          },
          {
            "duration": 0.33333299999999966,
            "durationTicks": 296,
            "midi": 62,
            "name": "D4",
            "ticks": 24480,
            "time": 27.56754,
            "velocity": 0.6535433070866141
          },
          {
            "duration": 0.3536032500000026,
            "durationTicks": 314,
            "midi": 57,
            "name": "A3",
            "ticks": 24480,
            "time": 27.56754,
            "velocity": 0.7007874015748031
          },
          {
            "duration": 0.6047291250000022,
            "durationTicks": 537,
            "midi": 65,
            "name": "F4",
            "ticks": 24864,
            "time": 27.999972,
            "velocity": 0.7874015748031497
          },
          {
            "duration": 0.637386750000001,
            "durationTicks": 566,
            "midi": 62,
            "name": "D4",
            "ticks": 24874,
            "time": 28.01123325,
            "velocity": 0.7086614173228346
          },
          {
            "duration": 0.5889633749999987,
            "durationTicks": 523,
            "midi": 58,
            "name": "A#3",
            "ticks": 24877,
            "time": 28.014611625,
            "velocity": 0.7480314960629921
          },
          {
            "duration": 0.13288274999999672,
            "durationTicks": 118,
            "midi": 66,
            "name": "F#4",
            "ticks": 25608,
            "time": 28.837809000000004,
            "velocity": 0.7874015748031497
          },
          {
            "duration": 0.11261249999999734,
            "durationTicks": 100,
            "midi": 63,
            "name": "D#4",
            "ticks": 25608,
            "time": 28.837809000000004,
            "velocity": 0.7007874015748031
          },
          {
            "duration": 0.11148637499999836,
            "durationTicks": 99,
            "midi": 59,
            "name": "B3",
            "ticks": 25611,
            "time": 28.841187375000004,
            "velocity": 0.6929133858267716
          },
          {
            "duration": 0.11936924999999832,
            "durationTicks": 106,
            "midi": 65,
            "name": "F4",
            "ticks": 25838,
            "time": 29.09681775,
            "velocity": 0.8346456692913385
          },
          {
            "duration": 0.14076562500000023,
            "durationTicks": 125,
            "midi": 62,
            "name": "D4",
            "ticks": 25844,
            "time": 29.1035745,
            "velocity": 0.7637795275590551
          },
          {
            "duration": 0.08558550000000054,
            "durationTicks": 76,
            "midi": 58,
            "name": "A#3",
            "ticks": 25844,
            "time": 29.1035745,
            "velocity": 0.7401574803149606
          },
          {
            "duration": 0.050675625000000224,
            "durationTicks": 45,
            "midi": 58,
            "name": "A#3",
            "ticks": 27110,
            "time": 30.52924875,
            "velocity": 0.48031496062992124
          },
          {
            "duration": 0.050675625000000224,
            "durationTicks": 45,
            "midi": 63,
            "name": "D#4",
            "ticks": 27110,
            "time": 30.52924875,
            "velocity": 0.5590551181102362
          },
          {
            "duration": 0.049549500000001245,
            "durationTicks": 44,
            "midi": 74,
            "name": "D5",
            "ticks": 27117,
            "time": 30.537131625,
            "velocity": 0.49606299212598426
          },
          {
            "duration": 0.05968462499999916,
            "durationTicks": 53,
            "midi": 67,
            "name": "G4",
            "ticks": 27126,
            "time": 30.547266750000002,
            "velocity": 0.3779527559055118
          },
          {
            "duration": 0.049549500000001245,
            "durationTicks": 44,
            "midi": 58,
            "name": "A#3",
            "ticks": 27508,
            "time": 30.9774465,
            "velocity": 0.4881889763779528
          },
          {
            "duration": 0.049549500000001245,
            "durationTicks": 44,
            "midi": 63,
            "name": "D#4",
            "ticks": 27508,
            "time": 30.9774465,
            "velocity": 0.5669291338582677
          },
          {
            "duration": 0.05968462499999916,
            "durationTicks": 53,
            "midi": 67,
            "name": "G4",
            "ticks": 27514,
            "time": 30.98420325,
            "velocity": 0.4251968503937008
          },
          {
            "duration": 0.0574323750000012,
            "durationTicks": 51,
            "midi": 74,
            "name": "D5",
            "ticks": 27519,
            "time": 30.989833875,
            "velocity": 0.3779527559055118
          },
          {
            "duration": 0.31981949999999415,
            "durationTicks": 284,
            "midi": 67,
            "name": "G4",
            "ticks": 27865,
            "time": 31.379473125000004,
            "velocity": 0.5275590551181102
          },
          {
            "duration": 0.2905402499999994,
            "durationTicks": 258,
            "midi": 58,
            "name": "A#3",
            "ticks": 27868,
            "time": 31.3828515,
            "velocity": 0.47244094488188976
          },
          {
            "duration": 0.2905402499999994,
            "durationTicks": 258,
            "midi": 63,
            "name": "D#4",
            "ticks": 27868,
            "time": 31.3828515,
            "velocity": 0.5511811023622047
          },
          {
            "duration": 0.2725222500000015,
            "durationTicks": 242,
            "midi": 74,
            "name": "D5",
            "ticks": 27875,
            "time": 31.390734375,
            "velocity": 0.5118110236220472
          },
          {
            "duration": 0.04279275000000027,
            "durationTicks": 38,
            "midi": 58,
            "name": "A#3",
            "ticks": 28233,
            "time": 31.793887125,
            "velocity": 0.5039370078740157
          },
          {
            "duration": 0.04279275000000027,
            "durationTicks": 38,
            "midi": 63,
            "name": "D#4",
            "ticks": 28233,
            "time": 31.793887125,
            "velocity": 0.5826771653543307
          },
          {
            "duration": 0.049549500000001245,
            "durationTicks": 44,
            "midi": 67,
            "name": "G4",
            "ticks": 28235,
            "time": 31.796139375,
            "velocity": 0.4881889763779528
          },
          {
            "duration": 0.05743237499999765,
            "durationTicks": 51,
            "midi": 74,
            "name": "D5",
            "ticks": 28251,
            "time": 31.814157375000004,
            "velocity": 0.3858267716535433
          },
          {
            "duration": 0.0495495000000048,
            "durationTicks": 44,
            "midi": 58,
            "name": "A#3",
            "ticks": 29002,
            "time": 32.65987725,
            "velocity": 0.5275590551181102
          },
          {
            "duration": 0.0495495000000048,
            "durationTicks": 44,
            "midi": 63,
            "name": "D#4",
            "ticks": 29002,
            "time": 32.65987725,
            "velocity": 0.6062992125984252
          },
          {
            "duration": 0.05743237499999765,
            "durationTicks": 51,
            "midi": 74,
            "name": "D5",
            "ticks": 29013,
            "time": 32.672264625000004,
            "velocity": 0.3858267716535433
          },
          {
            "duration": 0.04954949999999769,
            "durationTicks": 44,
            "midi": 67,
            "name": "G4",
            "ticks": 29013,
            "time": 32.672264625000004,
            "velocity": 0.48031496062992124
          },
          {
            "duration": 0.07770262499999347,
            "durationTicks": 69,
            "midi": 67,
            "name": "G4",
            "ticks": 29387,
            "time": 33.093435375000006,
            "velocity": 0.6062992125984252
          },
          {
            "duration": 0.047297249999999735,
            "durationTicks": 42,
            "midi": 58,
            "name": "A#3",
            "ticks": 29399,
            "time": 33.106948875,
            "velocity": 0.4409448818897638
          },
          {
            "duration": 0.047297249999999735,
            "durationTicks": 42,
            "midi": 63,
            "name": "D#4",
            "ticks": 29399,
            "time": 33.106948875,
            "velocity": 0.5196850393700787
          },
          {
            "duration": 0.06981975000000062,
            "durationTicks": 62,
            "midi": 74,
            "name": "D5",
            "ticks": 29421,
            "time": 33.131723625,
            "velocity": 0.2047244094488189
          },
          {
            "duration": 0.4144140000000007,
            "durationTicks": 368,
            "midi": 60,
            "name": "C4",
            "ticks": 29747,
            "time": 33.498840375,
            "velocity": 0.5354330708661418
          },
          {
            "duration": 0.4144140000000007,
            "durationTicks": 368,
            "midi": 66,
            "name": "F#4",
            "ticks": 29747,
            "time": 33.498840375,
            "velocity": 0.5354330708661418
          },
          {
            "duration": 0.39752212500000184,
            "durationTicks": 353,
            "midi": 68,
            "name": "G#4",
            "ticks": 29756,
            "time": 33.5089755,
            "velocity": 0.5984251968503937
          },
          {
            "duration": 0.3828825000000009,
            "durationTicks": 340,
            "midi": 74,
            "name": "D5",
            "ticks": 29764,
            "time": 33.517984500000004,
            "velocity": 0.6062992125984252
          },
          {
            "duration": 0.36373837499999695,
            "durationTicks": 323,
            "midi": 60,
            "name": "C4",
            "ticks": 30240,
            "time": 34.05402,
            "velocity": 0.5511811023622047
          },
          {
            "duration": 0.36373837499999695,
            "durationTicks": 323,
            "midi": 66,
            "name": "F#4",
            "ticks": 30240,
            "time": 34.05402,
            "velocity": 0.5511811023622047
          },
          {
            "duration": 0.355855499999997,
            "durationTicks": 316,
            "midi": 75,
            "name": "D#5",
            "ticks": 30244,
            "time": 34.058524500000004,
            "velocity": 0.5354330708661418
          },
          {
            "duration": 0.3457203749999991,
            "durationTicks": 307,
            "midi": 69,
            "name": "A4",
            "ticks": 30263,
            "time": 34.079920875,
            "velocity": 0.5511811023622047
          },
          {
            "duration": 0.04054049999999876,
            "durationTicks": 36,
            "midi": 62,
            "name": "D4",
            "ticks": 30966,
            "time": 34.871586750000006,
            "velocity": 0.6141732283464567
          },
          {
            "duration": 0.03941437499999978,
            "durationTicks": 35,
            "midi": 53,
            "name": "F3",
            "ticks": 30971,
            "time": 34.877217375,
            "velocity": 0.5433070866141733
          },
          {
            "duration": 0.03941437499999978,
            "durationTicks": 35,
            "midi": 58,
            "name": "A#3",
            "ticks": 30971,
            "time": 34.877217375,
            "velocity": 0.6220472440944882
          },
          {
            "duration": 0.04504499999999467,
            "durationTicks": 40,
            "midi": 69,
            "name": "A4",
            "ticks": 30975,
            "time": 34.881721875000004,
            "velocity": 0.5196850393700787
          },
          {
            "duration": 0.0495495000000048,
            "durationTicks": 44,
            "midi": 53,
            "name": "F3",
            "ticks": 31344,
            "time": 35.297261999999996,
            "velocity": 0.5433070866141733
          },
          {
            "duration": 0.0495495000000048,
            "durationTicks": 44,
            "midi": 58,
            "name": "A#3",
            "ticks": 31344,
            "time": 35.297261999999996,
            "velocity": 0.6220472440944882
          },
          {
            "duration": 0.0495495000000048,
            "durationTicks": 44,
            "midi": 62,
            "name": "D4",
            "ticks": 31346,
            "time": 35.299514249999994,
            "velocity": 0.5039370078740157
          },
          {
            "duration": 0.051801750000002755,
            "durationTicks": 46,
            "midi": 69,
            "name": "A4",
            "ticks": 31353,
            "time": 35.307397125,
            "velocity": 0.4566929133858268
          },
          {
            "duration": 0.35810775000000206,
            "durationTicks": 318,
            "midi": 53,
            "name": "F3",
            "ticks": 31660,
            "time": 35.6531175,
            "velocity": 0.47244094488188976
          },
          {
            "duration": 0.35810775000000206,
            "durationTicks": 318,
            "midi": 58,
            "name": "A#3",
            "ticks": 31660,
            "time": 35.6531175,
            "velocity": 0.5511811023622047
          },
          {
            "duration": 0.3727473749999959,
            "durationTicks": 331,
            "midi": 62,
            "name": "D4",
            "ticks": 31660,
            "time": 35.6531175,
            "velocity": 0.5905511811023622
          },
          {
            "duration": 0.32545012499999615,
            "durationTicks": 289,
            "midi": 69,
            "name": "A4",
            "ticks": 31670,
            "time": 35.664378750000004,
            "velocity": 0.5039370078740157
          },
          {
            "duration": 0.04504499999999467,
            "durationTicks": 40,
            "midi": 53,
            "name": "F3",
            "ticks": 32054,
            "time": 36.09681075,
            "velocity": 0.5590551181102362
          },
          {
            "duration": 0.04504499999999467,
            "durationTicks": 40,
            "midi": 58,
            "name": "A#3",
            "ticks": 32054,
            "time": 36.09681075,
            "velocity": 0.6377952755905512
          },
          {
            "duration": 0.042792749999996715,
            "durationTicks": 38,
            "midi": 62,
            "name": "D4",
            "ticks": 32056,
            "time": 36.099063,
            "velocity": 0.6614173228346457
          },
          {
            "duration": 0.04729725000000684,
            "durationTicks": 42,
            "midi": 69,
            "name": "A4",
            "ticks": 32072,
            "time": 36.117081,
            "velocity": 0.5039370078740157
          },
          {
            "duration": 0.0551801250000068,
            "durationTicks": 49,
            "midi": 53,
            "name": "F3",
            "ticks": 32880,
            "time": 37.02699,
            "velocity": 0.3464566929133858
          },
          {
            "duration": 0.0551801250000068,
            "durationTicks": 49,
            "midi": 58,
            "name": "A#3",
            "ticks": 32880,
            "time": 37.02699,
            "velocity": 0.4251968503937008
          },
          {
            "duration": 0.059684624999995606,
            "durationTicks": 53,
            "midi": 69,
            "name": "A4",
            "ticks": 32887,
            "time": 37.034872875000005,
            "velocity": 0.36220472440944884
          },
          {
            "duration": 0.05743237499999765,
            "durationTicks": 51,
            "midi": 62,
            "name": "D4",
            "ticks": 32887,
            "time": 37.034872875000005,
            "velocity": 0.4015748031496063
          },
          {
            "duration": 0.05743237499999054,
            "durationTicks": 51,
            "midi": 62,
            "name": "D4",
            "ticks": 33275,
            "time": 37.47180937500001,
            "velocity": 0.3937007874015748
          },
          {
            "duration": 0.06306299999999254,
            "durationTicks": 56,
            "midi": 53,
            "name": "F3",
            "ticks": 33277,
            "time": 37.474061625000004,
            "velocity": 0.29133858267716534
          },
          {
            "duration": 0.06306299999999254,
            "durationTicks": 56,
            "midi": 58,
            "name": "A#3",
            "ticks": 33277,
            "time": 37.474061625000004,
            "velocity": 0.3700787401574803
          },
          {
            "duration": 0.3006753750000044,
            "durationTicks": 267,
            "midi": 53,
            "name": "F3",
            "ticks": 33587,
            "time": 37.823160375,
            "velocity": 0.3779527559055118
          },
          {
            "duration": 0.3006753750000044,
            "durationTicks": 267,
            "midi": 58,
            "name": "A#3",
            "ticks": 33587,
            "time": 37.823160375,
            "velocity": 0.4566929133858268
          },
          {
            "duration": 0.29729700000000037,
            "durationTicks": 264,
            "midi": 62,
            "name": "D4",
            "ticks": 33597,
            "time": 37.834421625000004,
            "velocity": 0.4566929133858268
          },
          {
            "duration": 0.24324299999999965,
            "durationTicks": 216,
            "midi": 69,
            "name": "A4",
            "ticks": 33610,
            "time": 37.84906125,
            "velocity": 0.25984251968503935
          },
          {
            "duration": 0.04954949999999059,
            "durationTicks": 44,
            "midi": 62,
            "name": "D4",
            "ticks": 33957,
            "time": 38.239826625000006,
            "velocity": 0.41732283464566927
          },
          {
            "duration": 0.05067562499999667,
            "durationTicks": 45,
            "midi": 69,
            "name": "A4",
            "ticks": 33985,
            "time": 38.271358125,
            "velocity": 0.15748031496062992
          },
          {
            "duration": 0.04954949999999769,
            "durationTicks": 44,
            "midi": 58,
            "name": "A#3",
            "ticks": 34818,
            "time": 39.20942025,
            "velocity": 0.4251968503937008
          },
          {
            "duration": 0.04954949999999769,
            "durationTicks": 44,
            "midi": 63,
            "name": "D#4",
            "ticks": 34818,
            "time": 39.20942025,
            "velocity": 0.5039370078740157
          },
          {
            "duration": 0.055180124999992586,
            "durationTicks": 49,
            "midi": 74,
            "name": "D5",
            "ticks": 34820,
            "time": 39.211672500000006,
            "velocity": 0.4251968503937008
          },
          {
            "duration": 0.06981974999999352,
            "durationTicks": 62,
            "midi": 67,
            "name": "G4",
            "ticks": 34828,
            "time": 39.220681500000005,
            "velocity": 0.33070866141732286
          },
          {
            "duration": 0.06644137500000369,
            "durationTicks": 59,
            "midi": 67,
            "name": "G4",
            "ticks": 35258,
            "time": 39.70491525,
            "velocity": 0.5039370078740157
          },
          {
            "duration": 0.06981975000000062,
            "durationTicks": 62,
            "midi": 74,
            "name": "D5",
            "ticks": 35269,
            "time": 39.717302625,
            "velocity": 0.29133858267716534
          },
          {
            "duration": 0.06981975000000062,
            "durationTicks": 62,
            "midi": 58,
            "name": "A#3",
            "ticks": 35273,
            "time": 39.721807125,
            "velocity": 0.2204724409448819
          },
          {
            "duration": 0.06981975000000062,
            "durationTicks": 62,
            "midi": 63,
            "name": "D#4",
            "ticks": 35273,
            "time": 39.721807125,
            "velocity": 0.2992125984251969
          },
          {
            "duration": 0.055180124999992586,
            "durationTicks": 49,
            "midi": 74,
            "name": "D5",
            "ticks": 35759,
            "time": 40.269103875000006,
            "velocity": 0.4409448818897638
          },
          {
            "duration": 0.06306300000000675,
            "durationTicks": 56,
            "midi": 67,
            "name": "G4",
            "ticks": 35761,
            "time": 40.271356125,
            "velocity": 0.5826771653543307
          },
          {
            "duration": 0.05180174999999565,
            "durationTicks": 46,
            "midi": 58,
            "name": "A#3",
            "ticks": 35773,
            "time": 40.284869625000006,
            "velocity": 0.3543307086614173
          },
          {
            "duration": 0.05180174999999565,
            "durationTicks": 46,
            "midi": 63,
            "name": "D#4",
            "ticks": 35773,
            "time": 40.284869625000006,
            "velocity": 0.4330708661417323
          },
          {
            "duration": 0.344594249999993,
            "durationTicks": 306,
            "midi": 59,
            "name": "B3",
            "ticks": 36117,
            "time": 40.672256625,
            "velocity": 0.6062992125984252
          },
          {
            "duration": 0.344594249999993,
            "durationTicks": 306,
            "midi": 65,
            "name": "F4",
            "ticks": 36117,
            "time": 40.672256625,
            "velocity": 0.6062992125984252
          },
          {
            "duration": 0.3175672500000033,
            "durationTicks": 282,
            "midi": 75,
            "name": "D#5",
            "ticks": 36121,
            "time": 40.676761125,
            "velocity": 0.6850393700787402
          },
          {
            "duration": 0.31981950000000126,
            "durationTicks": 284,
            "midi": 68,
            "name": "G#4",
            "ticks": 36128,
            "time": 40.684644,
            "velocity": 0.6771653543307087
          },
          {
            "duration": 0.04279275000000382,
            "durationTicks": 38,
            "midi": 58,
            "name": "A#3",
            "ticks": 36707,
            "time": 41.336670375,
            "velocity": 0.5669291338582677
          },
          {
            "duration": 0.04279275000000382,
            "durationTicks": 38,
            "midi": 63,
            "name": "D#4",
            "ticks": 36707,
            "time": 41.336670375,
            "velocity": 0.6456692913385826
          },
          {
            "duration": 0.051801750000002755,
            "durationTicks": 46,
            "midi": 67,
            "name": "G4",
            "ticks": 36721,
            "time": 41.352436125,
            "velocity": 0.4645669291338583
          },
          {
            "duration": 0.061936875000007774,
            "durationTicks": 55,
            "midi": 74,
            "name": "D5",
            "ticks": 36723,
            "time": 41.354688374999995,
            "velocity": 0.4094488188976378
          },
          {
            "duration": 0.05518012499999969,
            "durationTicks": 49,
            "midi": 67,
            "name": "G4",
            "ticks": 37102,
            "time": 41.78148975,
            "velocity": 0.5118110236220472
          },
          {
            "duration": 0.052927875000001734,
            "durationTicks": 47,
            "midi": 74,
            "name": "D5",
            "ticks": 37102,
            "time": 41.78148975,
            "velocity": 0.47244094488188976
          },
          {
            "duration": 0.051801750000002755,
            "durationTicks": 46,
            "midi": 58,
            "name": "A#3",
            "ticks": 37105,
            "time": 41.784868124999996,
            "velocity": 0.47244094488188976
          },
          {
            "duration": 0.051801750000002755,
            "durationTicks": 46,
            "midi": 63,
            "name": "D#4",
            "ticks": 37105,
            "time": 41.784868124999996,
            "velocity": 0.5511811023622047
          },
          {
            "duration": 0.34797262499999704,
            "durationTicks": 309,
            "midi": 66,
            "name": "F#4",
            "ticks": 37449,
            "time": 42.172255125,
            "velocity": 0.5511811023622047
          },
          {
            "duration": 0.3231978749999982,
            "durationTicks": 287,
            "midi": 72,
            "name": "C5",
            "ticks": 37453,
            "time": 42.176759625,
            "velocity": 0.48031496062992124
          },
          {
            "duration": 0.31869337499999517,
            "durationTicks": 283,
            "midi": 63,
            "name": "D#4",
            "ticks": 37453,
            "time": 42.176759625,
            "velocity": 0.44881889763779526
          },
          {
            "duration": 0.31869337499999517,
            "durationTicks": 283,
            "midi": 58,
            "name": "A#3",
            "ticks": 37453,
            "time": 42.176759625,
            "velocity": 0.44881889763779526
          },
          {
            "duration": 0.0653152499999905,
            "durationTicks": 58,
            "midi": 58,
            "name": "A#3",
            "ticks": 37813,
            "time": 42.582164625000004,
            "velocity": 0.5354330708661418
          },
          {
            "duration": 0.0653152499999905,
            "durationTicks": 58,
            "midi": 63,
            "name": "D#4",
            "ticks": 37813,
            "time": 42.582164625000004,
            "velocity": 0.5354330708661418
          },
          {
            "duration": 0.07770262500000769,
            "durationTicks": 69,
            "midi": 72,
            "name": "C5",
            "ticks": 37818,
            "time": 42.58779525,
            "velocity": 0.6062992125984252
          },
          {
            "duration": 0.07770262500000058,
            "durationTicks": 69,
            "midi": 66,
            "name": "F#4",
            "ticks": 37838,
            "time": 42.61031775,
            "velocity": 0.5354330708661418
          },
          {
            "duration": 0.04504499999999467,
            "durationTicks": 40,
            "midi": 53,
            "name": "F3",
            "ticks": 38603,
            "time": 43.471803375,
            "velocity": 0.5275590551181102
          },
          {
            "duration": 0.04504499999999467,
            "durationTicks": 40,
            "midi": 58,
            "name": "A#3",
            "ticks": 38603,
            "time": 43.471803375,
            "velocity": 0.6062992125984252
          },
          {
            "duration": 0.04504500000000178,
            "durationTicks": 40,
            "midi": 62,
            "name": "D4",
            "ticks": 38616,
            "time": 43.486443,
            "velocity": 0.49606299212598426
          },
          {
            "duration": 0.06981975000000773,
            "durationTicks": 62,
            "midi": 69,
            "name": "A4",
            "ticks": 38620,
            "time": 43.4909475,
            "velocity": 0.33070866141732286
          },
          {
            "duration": 0.04729725000000684,
            "durationTicks": 42,
            "midi": 53,
            "name": "F3",
            "ticks": 39023,
            "time": 43.944775875,
            "velocity": 0.5669291338582677
          },
          {
            "duration": 0.04729725000000684,
            "durationTicks": 42,
            "midi": 58,
            "name": "A#3",
            "ticks": 39023,
            "time": 43.944775875,
            "velocity": 0.6456692913385826
          },
          {
            "duration": 0.051801750000002755,
            "durationTicks": 46,
            "midi": 62,
            "name": "D4",
            "ticks": 39023,
            "time": 43.944775875,
            "velocity": 0.6141732283464567
          },
          {
            "duration": 0.06756749999999556,
            "durationTicks": 60,
            "midi": 69,
            "name": "A4",
            "ticks": 39038,
            "time": 43.961667750000004,
            "velocity": 0.33858267716535434
          },
          {
            "duration": 0.3378374999999991,
            "durationTicks": 300,
            "midi": 62,
            "name": "D4",
            "ticks": 39382,
            "time": 44.34905475,
            "velocity": 0.5118110236220472
          },
          {
            "duration": 0.28265737499999943,
            "durationTicks": 251,
            "midi": 69,
            "name": "A4",
            "ticks": 39388,
            "time": 44.3558115,
            "velocity": 0.49606299212598426
          },
          {
            "duration": 0.2894141250000004,
            "durationTicks": 257,
            "midi": 53,
            "name": "F3",
            "ticks": 39398,
            "time": 44.36707275,
            "velocity": 0.33858267716535434
          },
          {
            "duration": 0.2894141250000004,
            "durationTicks": 257,
            "midi": 58,
            "name": "A#3",
            "ticks": 39398,
            "time": 44.36707275,
            "velocity": 0.41732283464566927
          },
          {
            "duration": 0.040540500000005864,
            "durationTicks": 36,
            "midi": 53,
            "name": "F3",
            "ticks": 39764,
            "time": 44.7792345,
            "velocity": 0.6456692913385826
          },
          {
            "duration": 0.040540500000005864,
            "durationTicks": 36,
            "midi": 58,
            "name": "A#3",
            "ticks": 39764,
            "time": 44.7792345,
            "velocity": 0.7244094488188977
          },
          {
            "duration": 0.040540500000005864,
            "durationTicks": 36,
            "midi": 62,
            "name": "D4",
            "ticks": 39764,
            "time": 44.7792345,
            "velocity": 0.5669291338582677
          },
          {
            "duration": 0.040540500000005864,
            "durationTicks": 36,
            "midi": 69,
            "name": "A4",
            "ticks": 39772,
            "time": 44.7882435,
            "velocity": 0.6141732283464567
          },
          {
            "duration": 0.04504500000000178,
            "durationTicks": 40,
            "midi": 53,
            "name": "F3",
            "ticks": 40546,
            "time": 45.65986425,
            "velocity": 0.4881889763779528
          },
          {
            "duration": 0.04504500000000178,
            "durationTicks": 40,
            "midi": 58,
            "name": "A#3",
            "ticks": 40546,
            "time": 45.65986425,
            "velocity": 0.5669291338582677
          },
          {
            "duration": 0.047297249999999735,
            "durationTicks": 42,
            "midi": 62,
            "name": "D4",
            "ticks": 40550,
            "time": 45.66436875,
            "velocity": 0.5118110236220472
          },
          {
            "duration": 0.042792749999996715,
            "durationTicks": 38,
            "midi": 53,
            "name": "F3",
            "ticks": 40962,
            "time": 46.12833225000001,
            "velocity": 0.5984251968503937
          },
          {
            "duration": 0.042792749999996715,
            "durationTicks": 38,
            "midi": 58,
            "name": "A#3",
            "ticks": 40962,
            "time": 46.12833225000001,
            "velocity": 0.6771653543307087
          },
          {
            "duration": 0.04054049999999876,
            "durationTicks": 36,
            "midi": 62,
            "name": "D4",
            "ticks": 40967,
            "time": 46.133962875,
            "velocity": 0.5984251968503937
          },
          {
            "duration": 0.19256737500000298,
            "durationTicks": 171,
            "midi": 82,
            "name": "A#5",
            "ticks": 43225,
            "time": 48.676753125,
            "velocity": 0.8976377952755905
          },
          {
            "duration": 0.14977462499999916,
            "durationTicks": 133,
            "midi": 79,
            "name": "G5",
            "ticks": 43456,
            "time": 48.936888,
            "velocity": 0.5669291338582677
          },
          {
            "duration": 0.1475223749999941,
            "durationTicks": 131,
            "midi": 77,
            "name": "F5",
            "ticks": 43678,
            "time": 49.186887750000004,
            "velocity": 0.6614173228346457
          },
          {
            "duration": 0.07319812500000467,
            "durationTicks": 65,
            "midi": 79,
            "name": "G5",
            "ticks": 43862,
            "time": 49.39409475,
            "velocity": 0.36220472440944884
          },
          {
            "duration": 0.07545037500000262,
            "durationTicks": 67,
            "midi": 77,
            "name": "F5",
            "ticks": 44091,
            "time": 49.651977375,
            "velocity": 0.4015748031496063
          },
          {
            "duration": 0.2128376249999988,
            "durationTicks": 189,
            "midi": 82,
            "name": "A#5",
            "ticks": 45121,
            "time": 50.811886125,
            "velocity": 0.8976377952755905
          },
          {
            "duration": 0.19594574999999992,
            "durationTicks": 174,
            "midi": 80,
            "name": "G#5",
            "ticks": 45336,
            "time": 51.054003,
            "velocity": 0.6141732283464567
          },
          {
            "duration": 0.1700448750000021,
            "durationTicks": 151,
            "midi": 82,
            "name": "A#5",
            "ticks": 45549,
            "time": 51.293867625,
            "velocity": 0.5354330708661418
          },
          {
            "duration": 0.24999975000000063,
            "durationTicks": 222,
            "midi": 86,
            "name": "D6",
            "ticks": 46311,
            "time": 52.151974875,
            "velocity": 0.9606299212598425
          },
          {
            "duration": 0.15202687499999712,
            "durationTicks": 135,
            "midi": 83,
            "name": "B5",
            "ticks": 46522,
            "time": 52.389587250000005,
            "velocity": 0.6929133858267716
          },
          {
            "duration": 0.10022512499999436,
            "durationTicks": 89,
            "midi": 79,
            "name": "G5",
            "ticks": 46713,
            "time": 52.604677125,
            "velocity": 0.4645669291338583
          },
          {
            "duration": 0.16103587500000316,
            "durationTicks": 143,
            "midi": 83,
            "name": "B5",
            "ticks": 46861,
            "time": 52.771343625,
            "velocity": 0.5039370078740157
          },
          {
            "duration": 0.12499987499999321,
            "durationTicks": 111,
            "midi": 79,
            "name": "G5",
            "ticks": 46992,
            "time": 52.91886600000001,
            "velocity": 0.4330708661417323
          },
          {
            "duration": 0.07207199999999148,
            "durationTicks": 64,
            "midi": 74,
            "name": "D5",
            "ticks": 47197,
            "time": 53.149721625000005,
            "velocity": 0.31496062992125984
          },
          {
            "duration": 0.15090074999999104,
            "durationTicks": 134,
            "midi": 74,
            "name": "D5",
            "ticks": 49827,
            "time": 56.111430375000005,
            "velocity": 0.5433070866141733
          },
          {
            "duration": 0.18468450000000303,
            "durationTicks": 164,
            "midi": 82,
            "name": "A#5",
            "ticks": 49905,
            "time": 56.199268125,
            "velocity": 0.8346456692913385
          },
          {
            "duration": 0.157657499999992,
            "durationTicks": 140,
            "midi": 74,
            "name": "D5",
            "ticks": 50098,
            "time": 56.416610250000005,
            "velocity": 0.6062992125984252
          },
          {
            "duration": 0.20045025000000294,
            "durationTicks": 178,
            "midi": 81,
            "name": "A5",
            "ticks": 50189,
            "time": 56.519087625000004,
            "velocity": 0.8031496062992126
          },
          {
            "duration": 0.2027025000000009,
            "durationTicks": 180,
            "midi": 79,
            "name": "G5",
            "ticks": 50422,
            "time": 56.78147475,
            "velocity": 0.8740157480314961
          },
          {
            "duration": 0.19932412499999685,
            "durationTicks": 177,
            "midi": 74,
            "name": "D5",
            "ticks": 50647,
            "time": 57.034852875000006,
            "velocity": 0.8110236220472441
          },
          {
            "duration": 0.10472962499999738,
            "durationTicks": 93,
            "midi": 86,
            "name": "D6",
            "ticks": 50871,
            "time": 57.287104875000004,
            "velocity": 0.9291338582677166
          },
          {
            "duration": 0.17229712500000716,
            "durationTicks": 153,
            "midi": 74,
            "name": "D5",
            "ticks": 51752,
            "time": 58.279221,
            "velocity": 0.6062992125984252
          },
          {
            "duration": 0.16216200000000214,
            "durationTicks": 144,
            "midi": 74,
            "name": "D5",
            "ticks": 52676,
            "time": 59.3197605,
            "velocity": 0.6850393700787402
          },
          {
            "duration": 0.1970718749999989,
            "durationTicks": 175,
            "midi": 86,
            "name": "D6",
            "ticks": 52778,
            "time": 59.43462525,
            "velocity": 0.9212598425196851
          },
          {
            "duration": 0.16328812500000822,
            "durationTicks": 145,
            "midi": 82,
            "name": "A#5",
            "ticks": 53004,
            "time": 59.6891295,
            "velocity": 0.5354330708661418
          },
          {
            "duration": 0.06981974999999352,
            "durationTicks": 62,
            "midi": 79,
            "name": "G5",
            "ticks": 53153,
            "time": 59.856922125000004,
            "velocity": 0.3779527559055118
          },
          {
            "duration": 0.12499987500000032,
            "durationTicks": 111,
            "midi": 74,
            "name": "D5",
            "ticks": 53233,
            "time": 59.94701212500001,
            "velocity": 0.5196850393700787
          },
          {
            "duration": 0.19256737499999588,
            "durationTicks": 171,
            "midi": 62,
            "name": "D4",
            "ticks": 57500,
            "time": 64.7521875,
            "velocity": 0.8267716535433071
          },
          {
            "duration": 0.13963949999998704,
            "durationTicks": 124,
            "midi": 58,
            "name": "A#3",
            "ticks": 57508,
            "time": 64.76119650000001,
            "velocity": 0.6929133858267716
          },
          {
            "duration": 0.10810800000000143,
            "durationTicks": 96,
            "midi": 57,
            "name": "A3",
            "ticks": 57511,
            "time": 64.76457487500001,
            "velocity": 0.6062992125984252
          },
          {
            "duration": 0.1745493749999838,
            "durationTicks": 155,
            "midi": 60,
            "name": "C4",
            "ticks": 59427,
            "time": 66.92223037500001,
            "velocity": 0.6377952755905512
          },
          {
            "duration": 0.1903151249999837,
            "durationTicks": 169,
            "midi": 63,
            "name": "D#4",
            "ticks": 59429,
            "time": 66.92448262500001,
            "velocity": 0.8031496062992126
          },
          {
            "duration": 0.8423414999999892,
            "durationTicks": 748,
            "midi": 65,
            "name": "F4",
            "ticks": 60487,
            "time": 68.11592287500001,
            "velocity": 0.7401574803149606
          },
          {
            "duration": 0.9346837499999907,
            "durationTicks": 830,
            "midi": 54,
            "name": "F#3",
            "ticks": 60490,
            "time": 68.11930125,
            "velocity": 0.6456692913385826
          },
          {
            "duration": 0.8299541250000004,
            "durationTicks": 737,
            "midi": 60,
            "name": "C4",
            "ticks": 60495,
            "time": 68.124931875,
            "velocity": 0.6299212598425197
          },
          {
            "duration": 0.1148647499999953,
            "durationTicks": 102,
            "midi": 62,
            "name": "D4",
            "ticks": 61351,
            "time": 69.08889487500001,
            "velocity": 0.7086614173228346
          },
          {
            "duration": 0.12725212499999827,
            "durationTicks": 113,
            "midi": 58,
            "name": "A#3",
            "ticks": 61351,
            "time": 69.08889487500001,
            "velocity": 0.6929133858267716
          },
          {
            "duration": 0.05405399999999361,
            "durationTicks": 48,
            "midi": 57,
            "name": "A3",
            "ticks": 61358,
            "time": 69.09677775,
            "velocity": 0.3543307086614173
          },
          {
            "duration": 0.04054049999999165,
            "durationTicks": 36,
            "midi": 62,
            "name": "D4",
            "ticks": 62639,
            "time": 70.539343875,
            "velocity": 0.6299212598425197
          },
          {
            "duration": 0.04054049999999165,
            "durationTicks": 36,
            "midi": 58,
            "name": "A#3",
            "ticks": 62639,
            "time": 70.539343875,
            "velocity": 0.5905511811023622
          },
          {
            "duration": 0.4054050000000018,
            "durationTicks": 360,
            "midi": 63,
            "name": "D#4",
            "ticks": 63349,
            "time": 71.338892625,
            "velocity": 0.7559055118110236
          },
          {
            "duration": 0.8231973749999923,
            "durationTicks": 731,
            "midi": 58,
            "name": "A#3",
            "ticks": 63353,
            "time": 71.34339712500001,
            "velocity": 0.6220472440944882
          },
          {
            "duration": 0.34797262499999704,
            "durationTicks": 309,
            "midi": 55,
            "name": "G3",
            "ticks": 63356,
            "time": 71.3467755,
            "velocity": 0.6535433070866141
          },
          {
            "duration": 0.35247712500000716,
            "durationTicks": 313,
            "midi": 63,
            "name": "D#4",
            "ticks": 63722,
            "time": 71.75893725,
            "velocity": 0.7086614173228346
          },
          {
            "duration": 0.28716187499999535,
            "durationTicks": 255,
            "midi": 55,
            "name": "G3",
            "ticks": 63723,
            "time": 71.760063375,
            "velocity": 0.5669291338582677
          },
          {
            "duration": 0.350224874999995,
            "durationTicks": 311,
            "midi": 63,
            "name": "D#4",
            "ticks": 64087,
            "time": 72.169972875,
            "velocity": 0.7165354330708661
          },
          {
            "duration": 0.3074321249999912,
            "durationTicks": 273,
            "midi": 55,
            "name": "G3",
            "ticks": 64092,
            "time": 72.17560350000001,
            "velocity": 0.7480314960629921
          },
          {
            "duration": 0.350224874999995,
            "durationTicks": 311,
            "midi": 58,
            "name": "A#3",
            "ticks": 64095,
            "time": 72.178981875,
            "velocity": 0.7480314960629921
          },
          {
            "duration": 0.2939186249999892,
            "durationTicks": 261,
            "midi": 63,
            "name": "D#4",
            "ticks": 64451,
            "time": 72.57988237500001,
            "velocity": 0.7322834645669292
          },
          {
            "duration": 0.24999975000000063,
            "durationTicks": 222,
            "midi": 55,
            "name": "G3",
            "ticks": 64454,
            "time": 72.58326075000001,
            "velocity": 0.5984251968503937
          },
          {
            "duration": 0.29729700000000037,
            "durationTicks": 264,
            "midi": 58,
            "name": "A#3",
            "ticks": 64460,
            "time": 72.5900175,
            "velocity": 0.7637795275590551
          },
          {
            "duration": 0.10810799999998721,
            "durationTicks": 96,
            "midi": 63,
            "name": "D#4",
            "ticks": 64800,
            "time": 72.97290000000001,
            "velocity": 0.6692913385826772
          },
          {
            "duration": 0.07319812500001888,
            "durationTicks": 65,
            "midi": 58,
            "name": "A#3",
            "ticks": 64807,
            "time": 72.98078287499999,
            "velocity": 0.7165354330708661
          },
          {
            "duration": 0.04504499999998757,
            "durationTicks": 40,
            "midi": 55,
            "name": "G3",
            "ticks": 64812,
            "time": 72.98641350000001,
            "velocity": 0.5196850393700787
          },
          {
            "duration": 0.17792774999999494,
            "durationTicks": 158,
            "midi": 58,
            "name": "A#3",
            "ticks": 65050,
            "time": 73.25443125000001,
            "velocity": 0.7716535433070866
          },
          {
            "duration": 0.10472962499999028,
            "durationTicks": 93,
            "midi": 63,
            "name": "D#4",
            "ticks": 65054,
            "time": 73.25893575,
            "velocity": 0.7322834645669292
          },
          {
            "duration": 0.9403143749999998,
            "durationTicks": 835,
            "midi": 54,
            "name": "F#3",
            "ticks": 65299,
            "time": 73.534836375,
            "velocity": 0.8031496062992126
          },
          {
            "duration": 1.0101341250000075,
            "durationTicks": 897,
            "midi": 60,
            "name": "C4",
            "ticks": 65299,
            "time": 73.534836375,
            "velocity": 0.6929133858267716
          },
          {
            "duration": 0.8727468750000043,
            "durationTicks": 775,
            "midi": 62,
            "name": "D4",
            "ticks": 65299,
            "time": 73.534836375,
            "velocity": 0.7637795275590551
          },
          {
            "duration": 1.100224125000011,
            "durationTicks": 977,
            "midi": 58,
            "name": "A#3",
            "ticks": 66247,
            "time": 74.602402875,
            "velocity": 0.7874015748031497
          },
          {
            "duration": 1.0168908750000014,
            "durationTicks": 903,
            "midi": 63,
            "name": "D#4",
            "ticks": 66249,
            "time": 74.60465512500001,
            "velocity": 0.8818897637795275
          },
          {
            "duration": 0.8423415000000034,
            "durationTicks": 748,
            "midi": 55,
            "name": "G3",
            "ticks": 66254,
            "time": 74.61028575,
            "velocity": 0.7401574803149606
          },
          {
            "duration": 0.047297249999999735,
            "durationTicks": 42,
            "midi": 62,
            "name": "D4",
            "ticks": 67213,
            "time": 75.690239625,
            "velocity": 0.8188976377952756
          },
          {
            "duration": 0.12274762500000236,
            "durationTicks": 109,
            "midi": 60,
            "name": "C4",
            "ticks": 67214,
            "time": 75.69136575,
            "velocity": 0.7637795275590551
          },
          {
            "duration": 0.038288249999993695,
            "durationTicks": 34,
            "midi": 54,
            "name": "F#3",
            "ticks": 67215,
            "time": 75.692491875,
            "velocity": 0.7244094488188977
          },
          {
            "duration": 1.605854249999993,
            "durationTicks": 1426,
            "midi": 65,
            "name": "F4",
            "ticks": 67693,
            "time": 76.23077962500001,
            "velocity": 0.8503937007874016
          },
          {
            "duration": 1.5979713750000002,
            "durationTicks": 1419,
            "midi": 60,
            "name": "C4",
            "ticks": 67695,
            "time": 76.23303187500001,
            "velocity": 0.7637795275590551
          },
          {
            "duration": 1.5900884999999931,
            "durationTicks": 1412,
            "midi": 54,
            "name": "F#3",
            "ticks": 67696,
            "time": 76.23415800000001,
            "velocity": 0.8031496062992126
          },
          {
            "duration": 0.07545037500000262,
            "durationTicks": 67,
            "midi": 60,
            "name": "C4",
            "ticks": 75113,
            "time": 84.586627125,
            "velocity": 0.6929133858267716
          },
          {
            "duration": 0.0765765000000016,
            "durationTicks": 68,
            "midi": 62,
            "name": "D4",
            "ticks": 75113,
            "time": 84.586627125,
            "velocity": 0.6929133858267716
          },
          {
            "duration": 0.05743237499999054,
            "durationTicks": 51,
            "midi": 57,
            "name": "A3",
            "ticks": 75114,
            "time": 84.58775325,
            "velocity": 0.6929133858267716
          },
          {
            "duration": 0.09009000000000356,
            "durationTicks": 80,
            "midi": 60,
            "name": "C4",
            "ticks": 75479,
            "time": 84.998788875,
            "velocity": 0.7874015748031497
          },
          {
            "duration": 0.06418912499999863,
            "durationTicks": 57,
            "midi": 62,
            "name": "D4",
            "ticks": 75479,
            "time": 84.998788875,
            "velocity": 0.7874015748031497
          },
          {
            "duration": 0.06981974999999352,
            "durationTicks": 62,
            "midi": 55,
            "name": "G3",
            "ticks": 75481,
            "time": 85.001041125,
            "velocity": 0.6929133858267716
          },
          {
            "duration": 0.06418912499998441,
            "durationTicks": 57,
            "midi": 63,
            "name": "D#4",
            "ticks": 76073,
            "time": 85.667707125,
            "velocity": 0.6929133858267716
          },
          {
            "duration": 0.04279274999998961,
            "durationTicks": 38,
            "midi": 60,
            "name": "C4",
            "ticks": 76074,
            "time": 85.66883325,
            "velocity": 0.6929133858267716
          },
          {
            "duration": 0.03490987499999676,
            "durationTicks": 31,
            "midi": 54,
            "name": "F#3",
            "ticks": 76075,
            "time": 85.669959375,
            "velocity": 0.4566929133858268
          },
          {
            "duration": 0.2939186249999892,
            "durationTicks": 261,
            "midi": 54,
            "name": "F#3",
            "ticks": 76437,
            "time": 86.077616625,
            "velocity": 0.6929133858267716
          },
          {
            "duration": 0.2961708749999872,
            "durationTicks": 263,
            "midi": 60,
            "name": "C4",
            "ticks": 76438,
            "time": 86.07874275,
            "velocity": 0.7874015748031497
          },
          {
            "duration": 0.30292762500000947,
            "durationTicks": 269,
            "midi": 62,
            "name": "D4",
            "ticks": 76438,
            "time": 86.07874275,
            "velocity": 0.7874015748031497
          },
          {
            "duration": 0.15202687500000422,
            "durationTicks": 135,
            "midi": 60,
            "name": "C4",
            "ticks": 82792,
            "time": 93.234141,
            "velocity": 0.7559055118110236
          },
          {
            "duration": 0.12274762500000236,
            "durationTicks": 109,
            "midi": 62,
            "name": "D4",
            "ticks": 82794,
            "time": 93.23639325,
            "velocity": 0.7322834645669292
          },
          {
            "duration": 0.11486475000000951,
            "durationTicks": 102,
            "midi": 60,
            "name": "C4",
            "ticks": 83195,
            "time": 93.687969375,
            "velocity": 0.7716535433070866
          },
          {
            "duration": 0.05968462500001692,
            "durationTicks": 53,
            "midi": 62,
            "name": "D4",
            "ticks": 83196,
            "time": 93.6890955,
            "velocity": 0.7480314960629921
          },
          {
            "duration": 0.9695936249999875,
            "durationTicks": 861,
            "midi": 65,
            "name": "F4",
            "ticks": 83519,
            "time": 94.052833875,
            "velocity": 0.7165354330708661
          },
          {
            "duration": 0.9448188749999957,
            "durationTicks": 839,
            "midi": 60,
            "name": "C4",
            "ticks": 83520,
            "time": 94.05396,
            "velocity": 0.6850393700787402
          },
          {
            "duration": 0.9358098750000039,
            "durationTicks": 831,
            "midi": 54,
            "name": "F#3",
            "ticks": 83522,
            "time": 94.05621225,
            "velocity": 0.7322834645669292
          },
          {
            "duration": 0.13851337500000227,
            "durationTicks": 123,
            "midi": 60,
            "name": "C4",
            "ticks": 88337,
            "time": 99.478504125,
            "velocity": 0.8031496062992126
          },
          {
            "duration": 0.12499987500001453,
            "durationTicks": 111,
            "midi": 62,
            "name": "D4",
            "ticks": 88339,
            "time": 99.480756375,
            "velocity": 0.8031496062992126
          },
          {
            "duration": 0.18243225000000507,
            "durationTicks": 162,
            "midi": 60,
            "name": "C4",
            "ticks": 88588,
            "time": 99.7611615,
            "velocity": 0.7401574803149606
          },
          {
            "duration": 0.13513500000000533,
            "durationTicks": 120,
            "midi": 62,
            "name": "D4",
            "ticks": 88591,
            "time": 99.764539875,
            "velocity": 0.7322834645669292
          },
          {
            "duration": 0.3074321249999912,
            "durationTicks": 273,
            "midi": 62,
            "name": "D4",
            "ticks": 89293,
            "time": 100.555079625,
            "velocity": 0.7716535433070866
          },
          {
            "duration": 0.3108104999999881,
            "durationTicks": 276,
            "midi": 60,
            "name": "C4",
            "ticks": 89295,
            "time": 100.557331875,
            "velocity": 0.7322834645669292
          },
          {
            "duration": 0.30855824999999015,
            "durationTicks": 274,
            "midi": 54,
            "name": "F#3",
            "ticks": 89296,
            "time": 100.558458,
            "velocity": 0.7795275590551181
          },
          {
            "duration": 1.085584499999996,
            "durationTicks": 964,
            "midi": 62,
            "name": "D4",
            "ticks": 90147,
            "time": 101.51679037500001,
            "velocity": 0.8740157480314961
          },
          {
            "duration": 1.085584499999996,
            "durationTicks": 964,
            "midi": 58,
            "name": "A#3",
            "ticks": 90149,
            "time": 101.51904262500001,
            "velocity": 0.7874015748031497
          },
          {
            "duration": 1.0078818749999812,
            "durationTicks": 895,
            "midi": 53,
            "name": "F3",
            "ticks": 90161,
            "time": 101.53255612500001,
            "velocity": 0.6377952755905512
          },
          {
            "duration": 1.066440374999999,
            "durationTicks": 947,
            "midi": 55,
            "name": "G3",
            "ticks": 91229,
            "time": 102.735257625,
            "velocity": 0.5511811023622047
          },
          {
            "duration": 1.0720710000000082,
            "durationTicks": 952,
            "midi": 60,
            "name": "C4",
            "ticks": 91231,
            "time": 102.737509875,
            "velocity": 0.7401574803149606
          },
          {
            "duration": 1.0619358750000032,
            "durationTicks": 943,
            "midi": 64,
            "name": "E4",
            "ticks": 91232,
            "time": 102.738636,
            "velocity": 0.8031496062992126
          },
          {
            "duration": 0.03716212499999472,
            "durationTicks": 33,
            "midi": 62,
            "name": "D4",
            "ticks": 92307,
            "time": 103.94922037500001,
            "velocity": 0.7480314960629921
          },
          {
            "duration": 0.04054049999999165,
            "durationTicks": 36,
            "midi": 58,
            "name": "A#3",
            "ticks": 92308,
            "time": 103.95034650000001,
            "velocity": 0.6929133858267716
          },
          {
            "duration": 0.040540500000005864,
            "durationTicks": 36,
            "midi": 53,
            "name": "F3",
            "ticks": 92314,
            "time": 103.95710325,
            "velocity": 0.6614173228346457
          },
          {
            "duration": 0.327702374999987,
            "durationTicks": 291,
            "midi": 60,
            "name": "C4",
            "ticks": 92669,
            "time": 104.35687762500001,
            "velocity": 0.7086614173228346
          },
          {
            "duration": 0.327702374999987,
            "durationTicks": 291,
            "midi": 64,
            "name": "E4",
            "ticks": 92671,
            "time": 104.35912987500001,
            "velocity": 0.7716535433070866
          },
          {
            "duration": 0.34797262499999704,
            "durationTicks": 309,
            "midi": 55,
            "name": "G3",
            "ticks": 92677,
            "time": 104.365886625,
            "velocity": 0.7007874015748031
          },
          {
            "duration": 0.17680162500001018,
            "durationTicks": 157,
            "midi": 58,
            "name": "A#3",
            "ticks": 93022,
            "time": 104.75439974999999,
            "velocity": 0.6850393700787402
          },
          {
            "duration": 0.1632881249999798,
            "durationTicks": 145,
            "midi": 62,
            "name": "D4",
            "ticks": 93025,
            "time": 104.75777812500002,
            "velocity": 0.8188976377952756
          },
          {
            "duration": 0.13963949999998704,
            "durationTicks": 124,
            "midi": 53,
            "name": "F3",
            "ticks": 93030,
            "time": 104.76340875000001,
            "velocity": 0.7007874015748031
          },
          {
            "duration": 1.5202687499999996,
            "durationTicks": 1350,
            "midi": 63,
            "name": "D#4",
            "ticks": 94083,
            "time": 105.949218375,
            "velocity": 0.7637795275590551
          },
          {
            "duration": 1.440313875000001,
            "durationTicks": 1279,
            "midi": 55,
            "name": "G3",
            "ticks": 94088,
            "time": 105.95484900000001,
            "velocity": 0.6535433070866141
          },
          {
            "duration": 1.5304038749999904,
            "durationTicks": 1359,
            "midi": 58,
            "name": "A#3",
            "ticks": 94088,
            "time": 105.95484900000001,
            "velocity": 0.6692913385826772
          },
          {
            "duration": 1.5022507500000017,
            "durationTicks": 1334,
            "midi": 60,
            "name": "C4",
            "ticks": 94090,
            "time": 105.95710125000001,
            "velocity": 0.6535433070866141
          },
          {
            "duration": 0.4876121249999983,
            "durationTicks": 433,
            "midi": 64,
            "name": "E4",
            "ticks": 95533,
            "time": 107.58209962500001,
            "velocity": 0.7716535433070866
          },
          {
            "duration": 0.4695941250000004,
            "durationTicks": 417,
            "midi": 61,
            "name": "C#4",
            "ticks": 95535,
            "time": 107.58435187500001,
            "velocity": 0.7401574803149606
          },
          {
            "duration": 0.4549544999999995,
            "durationTicks": 404,
            "midi": 56,
            "name": "G#3",
            "ticks": 95537,
            "time": 107.58660412500001,
            "velocity": 0.7874015748031497
          },
          {
            "duration": 0.9177918749999918,
            "durationTicks": 815,
            "midi": 62,
            "name": "D4",
            "ticks": 96029,
            "time": 108.140657625,
            "velocity": 0.5748031496062992
          },
          {
            "duration": 0.9977467500000046,
            "durationTicks": 886,
            "midi": 65,
            "name": "F4",
            "ticks": 96030,
            "time": 108.14178375,
            "velocity": 0.8188976377952756
          },
          {
            "duration": 0.9301792499999948,
            "durationTicks": 826,
            "midi": 60,
            "name": "C4",
            "ticks": 96035,
            "time": 108.147414375,
            "velocity": 0.5748031496062992
          },
          {
            "duration": 0.9594584999999967,
            "durationTicks": 852,
            "midi": 57,
            "name": "A3",
            "ticks": 96040,
            "time": 108.153045,
            "velocity": 0.5748031496062992
          },
          {
            "duration": 0.09008999999998935,
            "durationTicks": 80,
            "midi": 68,
            "name": "G#4",
            "ticks": 97088,
            "time": 109.33322400000002,
            "velocity": 0.7874015748031497
          },
          {
            "duration": 0.06756749999999556,
            "durationTicks": 60,
            "midi": 65,
            "name": "F4",
            "ticks": 97093,
            "time": 109.33885462500001,
            "velocity": 0.44881889763779526
          },
          {
            "duration": 0.05743237499999054,
            "durationTicks": 51,
            "midi": 59,
            "name": "B3",
            "ticks": 97094,
            "time": 109.33998075000001,
            "velocity": 0.5669291338582677
          },
          {
            "duration": 0.05405399999999361,
            "durationTicks": 48,
            "midi": 62,
            "name": "D4",
            "ticks": 97119,
            "time": 109.36813387500001,
            "velocity": 0.4251968503937008
          },
          {
            "duration": 0.04279274999998961,
            "durationTicks": 38,
            "midi": 68,
            "name": "G#4",
            "ticks": 97344,
            "time": 109.62151200000001,
            "velocity": 0.7716535433070866
          },
          {
            "duration": 0.06756749999999556,
            "durationTicks": 60,
            "midi": 59,
            "name": "B3",
            "ticks": 97361,
            "time": 109.640656125,
            "velocity": 0.28346456692913385
          },
          {
            "duration": 0.05743237499999054,
            "durationTicks": 51,
            "midi": 65,
            "name": "F4",
            "ticks": 97361,
            "time": 109.640656125,
            "velocity": 0.4330708661417323
          },
          {
            "duration": 0.29391862500000343,
            "durationTicks": 261,
            "midi": 59,
            "name": "B3",
            "ticks": 97571,
            "time": 109.877142375,
            "velocity": 0.49606299212598426
          },
          {
            "duration": 0.3400897500000042,
            "durationTicks": 302,
            "midi": 68,
            "name": "G#4",
            "ticks": 97573,
            "time": 109.879394625,
            "velocity": 0.6299212598425197
          },
          {
            "duration": 0.3220717500000063,
            "durationTicks": 286,
            "midi": 65,
            "name": "F4",
            "ticks": 97577,
            "time": 109.883899125,
            "velocity": 0.4645669291338583
          },
          {
            "duration": 0.28716187500000956,
            "durationTicks": 255,
            "midi": 62,
            "name": "D4",
            "ticks": 97591,
            "time": 109.899664875,
            "velocity": 0.3858267716535433
          },
          {
            "duration": 0.4042788750000028,
            "durationTicks": 359,
            "midi": 74,
            "name": "D5",
            "ticks": 97930,
            "time": 110.28142125000001,
            "velocity": 0.7480314960629921
          },
          {
            "duration": 0.3896392500000019,
            "durationTicks": 346,
            "midi": 63,
            "name": "D#4",
            "ticks": 97933,
            "time": 110.284799625,
            "velocity": 0.6299212598425197
          },
          {
            "duration": 0.4391887499999996,
            "durationTicks": 390,
            "midi": 70,
            "name": "A#4",
            "ticks": 97937,
            "time": 110.289304125,
            "velocity": 0.6614173228346457
          },
          {
            "duration": 0.4042788750000028,
            "durationTicks": 359,
            "midi": 67,
            "name": "G4",
            "ticks": 97944,
            "time": 110.29718700000001,
            "velocity": 0.5669291338582677
          },
          {
            "duration": 0.32432399999999006,
            "durationTicks": 288,
            "midi": 74,
            "name": "D5",
            "ticks": 98413,
            "time": 110.82533962500001,
            "velocity": 0.7480314960629921
          },
          {
            "duration": 0.2668916249999995,
            "durationTicks": 237,
            "midi": 63,
            "name": "D#4",
            "ticks": 98413,
            "time": 110.82533962500001,
            "velocity": 0.5984251968503937
          },
          {
            "duration": 0.2725222499999944,
            "durationTicks": 242,
            "midi": 67,
            "name": "G4",
            "ticks": 98417,
            "time": 110.82984412500001,
            "velocity": 0.5433070866141733
          },
          {
            "duration": 0.3130627500000003,
            "durationTicks": 278,
            "midi": 70,
            "name": "A#4",
            "ticks": 98417,
            "time": 110.82984412500001,
            "velocity": 0.7952755905511811
          },
          {
            "duration": 0.44144099999999753,
            "durationTicks": 392,
            "midi": 66,
            "name": "F#4",
            "ticks": 98908,
            "time": 111.3827715,
            "velocity": 0.7086614173228346
          },
          {
            "duration": 0.4583328749999964,
            "durationTicks": 407,
            "midi": 69,
            "name": "A4",
            "ticks": 98911,
            "time": 111.386149875,
            "velocity": 0.5275590551181102
          },
          {
            "duration": 0.43581037500000264,
            "durationTicks": 387,
            "midi": 75,
            "name": "D#5",
            "ticks": 98913,
            "time": 111.388402125,
            "velocity": 0.84251968503937
          },
          {
            "duration": 0.4538283750000005,
            "durationTicks": 403,
            "midi": 72,
            "name": "C5",
            "ticks": 98914,
            "time": 111.38952825,
            "velocity": 0.6614173228346457
          },
          {
            "duration": 0.315314999999984,
            "durationTicks": 280,
            "midi": 75,
            "name": "D#5",
            "ticks": 99370,
            "time": 111.90304125000002,
            "velocity": 0.5905511811023622
          },
          {
            "duration": 0.29279249999999024,
            "durationTicks": 260,
            "midi": 72,
            "name": "C5",
            "ticks": 99375,
            "time": 111.90867187500001,
            "velocity": 0.4330708661417323
          },
          {
            "duration": 0.28265737499999943,
            "durationTicks": 251,
            "midi": 66,
            "name": "F#4",
            "ticks": 99376,
            "time": 111.90979800000001,
            "velocity": 0.5511811023622047
          },
          {
            "duration": 0.2792790000000025,
            "durationTicks": 248,
            "midi": 69,
            "name": "A4",
            "ticks": 99381,
            "time": 111.915428625,
            "velocity": 0.4094488188976378
          },
          {
            "duration": 0.04279275000000382,
            "durationTicks": 38,
            "midi": 65,
            "name": "F4",
            "ticks": 99975,
            "time": 112.58434687500001,
            "velocity": 0.7874015748031497
          },
          {
            "duration": 0.05067562499999667,
            "durationTicks": 45,
            "midi": 57,
            "name": "A3",
            "ticks": 99979,
            "time": 112.588851375,
            "velocity": 0.6377952755905512
          },
          {
            "duration": 0.04504500000000178,
            "durationTicks": 40,
            "midi": 62,
            "name": "D4",
            "ticks": 99981,
            "time": 112.591103625,
            "velocity": 0.6850393700787402
          },
          {
            "duration": 0.04504499999998757,
            "durationTicks": 40,
            "midi": 60,
            "name": "C4",
            "ticks": 99983,
            "time": 112.59335587500001,
            "velocity": 0.6377952755905512
          },
          {
            "duration": 0.2398646249999956,
            "durationTicks": 213,
            "midi": 57,
            "name": "A3",
            "ticks": 100332,
            "time": 112.98637350000001,
            "velocity": 0.7716535433070866
          },
          {
            "duration": 0.22072049999999876,
            "durationTicks": 196,
            "midi": 65,
            "name": "F4",
            "ticks": 100335,
            "time": 112.98975187500001,
            "velocity": 0.8031496062992126
          },
          {
            "duration": 0.24999975000000063,
            "durationTicks": 222,
            "midi": 60,
            "name": "C4",
            "ticks": 100338,
            "time": 112.99313025000001,
            "velocity": 0.7244094488188977
          },
          {
            "duration": 0.23761237499999766,
            "durationTicks": 211,
            "midi": 62,
            "name": "D4",
            "ticks": 100341,
            "time": 112.996508625,
            "velocity": 0.7007874015748031
          },
          {
            "duration": 0.39076537500000086,
            "durationTicks": 347,
            "midi": 67,
            "name": "G4",
            "ticks": 100819,
            "time": 113.534796375,
            "velocity": 0.8188976377952756
          },
          {
            "duration": 0.4121617500000099,
            "durationTicks": 366,
            "midi": 62,
            "name": "D4",
            "ticks": 100821,
            "time": 113.537048625,
            "velocity": 0.7165354330708661
          },
          {
            "duration": 0.4380626250000006,
            "durationTicks": 389,
            "midi": 60,
            "name": "C4",
            "ticks": 100824,
            "time": 113.54042700000001,
            "velocity": 0.8031496062992126
          },
          {
            "duration": 0.4819814999999892,
            "durationTicks": 428,
            "midi": 65,
            "name": "F4",
            "ticks": 101303,
            "time": 114.07984087500002,
            "velocity": 0.8346456692913385
          },
          {
            "duration": 0.4707202499999994,
            "durationTicks": 418,
            "midi": 54,
            "name": "F#3",
            "ticks": 101308,
            "time": 114.08547150000001,
            "velocity": 0.8188976377952756
          },
          {
            "duration": 0.4425671249999965,
            "durationTicks": 393,
            "midi": 60,
            "name": "C4",
            "ticks": 101319,
            "time": 114.09785887500001,
            "velocity": 0.5433070866141733
          },
          {
            "duration": 0.0439188750000028,
            "durationTicks": 39,
            "midi": 74,
            "name": "D5",
            "ticks": 102691,
            "time": 115.642902375,
            "velocity": 0.5590551181102362
          },
          {
            "duration": 0.11261249999999734,
            "durationTicks": 100,
            "midi": 82,
            "name": "A#5",
            "ticks": 102729,
            "time": 115.68569512500001,
            "velocity": 0.8031496062992126
          },
          {
            "duration": 0.1362611250000043,
            "durationTicks": 121,
            "midi": 84,
            "name": "C6",
            "ticks": 102973,
            "time": 115.960469625,
            "velocity": 0.7795275590551181
          },
          {
            "duration": 0.04279274999998961,
            "durationTicks": 38,
            "midi": 74,
            "name": "D5",
            "ticks": 103152,
            "time": 116.162046,
            "velocity": 0.25984251968503935
          },
          {
            "duration": 0.1249998749999861,
            "durationTicks": 111,
            "midi": 86,
            "name": "D6",
            "ticks": 103231,
            "time": 116.25100987500001,
            "velocity": 0.8267716535433071
          },
          {
            "duration": 0.03603599999999574,
            "durationTicks": 32,
            "midi": 74,
            "name": "D5",
            "ticks": 103408,
            "time": 116.45033400000001,
            "velocity": 0.3543307086614173
          },
          {
            "duration": 0.15427912500000218,
            "durationTicks": 137,
            "midi": 82,
            "name": "A#5",
            "ticks": 103473,
            "time": 116.523532125,
            "velocity": 0.7795275590551181
          },
          {
            "duration": 0.0439188750000028,
            "durationTicks": 39,
            "midi": 74,
            "name": "D5",
            "ticks": 103651,
            "time": 116.723982375,
            "velocity": 0.5590551181102362
          },
          {
            "duration": 0.10585575000000347,
            "durationTicks": 94,
            "midi": 84,
            "name": "C6",
            "ticks": 103694,
            "time": 116.77240575,
            "velocity": 0.8188976377952756
          },
          {
            "duration": 0.13400887500000636,
            "durationTicks": 119,
            "midi": 84,
            "name": "C6",
            "ticks": 103922,
            "time": 117.02916225,
            "velocity": 0.7007874015748031
          },
          {
            "duration": 0.1249998749999861,
            "durationTicks": 111,
            "midi": 82,
            "name": "A#5",
            "ticks": 104159,
            "time": 117.29605387500001,
            "velocity": 0.8031496062992126
          },
          {
            "duration": 0.14414400000001137,
            "durationTicks": 128,
            "midi": 86,
            "name": "D6",
            "ticks": 105844,
            "time": 119.1935745,
            "velocity": 0.8740157480314961
          },
          {
            "duration": 0.20833312499998158,
            "durationTicks": 185,
            "midi": 84,
            "name": "C6",
            "ticks": 106075,
            "time": 119.45370937500002,
            "velocity": 0.8346456692913385
          },
          {
            "duration": 0.18243225000000507,
            "durationTicks": 162,
            "midi": 86,
            "name": "D6",
            "ticks": 106337,
            "time": 119.748754125,
            "velocity": 0.8582677165354331
          },
          {
            "duration": 0.1914412499999969,
            "durationTicks": 170,
            "midi": 82,
            "name": "A#5",
            "ticks": 106602,
            "time": 120.04717725,
            "velocity": 0.7952755905511811
          },
          {
            "duration": 0.047297249999999735,
            "durationTicks": 42,
            "midi": 79,
            "name": "G5",
            "ticks": 106782,
            "time": 120.24987975,
            "velocity": 0.7086614173228346
          },
          {
            "duration": 0.21621600000000285,
            "durationTicks": 192,
            "midi": 81,
            "name": "A5",
            "ticks": 107520,
            "time": 121.08096,
            "velocity": 0.8740157480314961
          },
          {
            "duration": 0.19481962500000805,
            "durationTicks": 173,
            "midi": 86,
            "name": "D6",
            "ticks": 107767,
            "time": 121.359112875,
            "velocity": 0.8031496062992126
          },
          {
            "duration": 0.16554037499999197,
            "durationTicks": 147,
            "midi": 79,
            "name": "G5",
            "ticks": 108020,
            "time": 121.6440225,
            "velocity": 0.8031496062992126
          },
          {
            "duration": 0.1801799999999929,
            "durationTicks": 160,
            "midi": 84,
            "name": "C6",
            "ticks": 108251,
            "time": 121.90415737500001,
            "velocity": 0.7874015748031497
          },
          {
            "duration": 0.2027025000000009,
            "durationTicks": 180,
            "midi": 79,
            "name": "G5",
            "ticks": 108497,
            "time": 122.181184125,
            "velocity": 0.7637795275590551
          },
          {
            "duration": 0.19031512499999792,
            "durationTicks": 169,
            "midi": 81,
            "name": "A5",
            "ticks": 108748,
            "time": 122.4638415,
            "velocity": 0.8031496062992126
          },
          {
            "duration": 0.12387375000000134,
            "durationTicks": 110,
            "midi": 77,
            "name": "F5",
            "ticks": 108915,
            "time": 122.651904375,
            "velocity": 0.6771653543307087
          },
          {
            "duration": 0.317567249999982,
            "durationTicks": 282,
            "midi": 60,
            "name": "C4",
            "ticks": 109598,
            "time": 123.42104775000001,
            "velocity": 0.7401574803149606
          },
          {
            "duration": 0.30292762499999526,
            "durationTicks": 269,
            "midi": 63,
            "name": "D#4",
            "ticks": 109608,
            "time": 123.432309,
            "velocity": 0.6456692913385826
          },
          {
            "duration": 0.24999975000001484,
            "durationTicks": 222,
            "midi": 63,
            "name": "D#4",
            "ticks": 109920,
            "time": 123.78366,
            "velocity": 0.6141732283464567
          },
          {
            "duration": 0.23986462500000982,
            "durationTicks": 213,
            "midi": 60,
            "name": "C4",
            "ticks": 109923,
            "time": 123.787038375,
            "velocity": 0.7480314960629921
          },
          {
            "duration": 0.20608087500001204,
            "durationTicks": 183,
            "midi": 60,
            "name": "C4",
            "ticks": 110407,
            "time": 124.332082875,
            "velocity": 0.7480314960629921
          },
          {
            "duration": 0.18918899999999894,
            "durationTicks": 168,
            "midi": 63,
            "name": "D#4",
            "ticks": 110417,
            "time": 124.343344125,
            "velocity": 0.6535433070866141
          },
          {
            "duration": 0.08896387500000458,
            "durationTicks": 79,
            "midi": 60,
            "name": "C4",
            "ticks": 110633,
            "time": 124.58658712500001,
            "velocity": 0.7244094488188977
          },
          {
            "duration": 0.05855850000001794,
            "durationTicks": 52,
            "midi": 63,
            "name": "D#4",
            "ticks": 110643,
            "time": 124.597848375,
            "velocity": 0.31496062992125984
          },
          {
            "duration": 0.6644137500000085,
            "durationTicks": 590,
            "midi": 63,
            "name": "D#4",
            "ticks": 110781,
            "time": 124.753253625,
            "velocity": 0.7716535433070866
          },
          {
            "duration": 0.689188499999986,
            "durationTicks": 612,
            "midi": 57,
            "name": "A3",
            "ticks": 110784,
            "time": 124.75663200000001,
            "velocity": 0.6614173228346457
          },
          {
            "duration": 0.31869337499999517,
            "durationTicks": 283,
            "midi": 53,
            "name": "F3",
            "ticks": 111511,
            "time": 125.575324875,
            "velocity": 0.6929133858267716
          },
          {
            "duration": 0.2522519999999986,
            "durationTicks": 224,
            "midi": 57,
            "name": "A3",
            "ticks": 111538,
            "time": 125.60573025000001,
            "velocity": 0.7480314960629921
          },
          {
            "duration": 0.2522519999999986,
            "durationTicks": 224,
            "midi": 62,
            "name": "D4",
            "ticks": 111538,
            "time": 125.60573025000001,
            "velocity": 0.7086614173228346
          },
          {
            "duration": 0.46734187500000246,
            "durationTicks": 415,
            "midi": 58,
            "name": "A#3",
            "ticks": 111857,
            "time": 125.96496412500001,
            "velocity": 0.7480314960629921
          },
          {
            "duration": 0.37387350000000197,
            "durationTicks": 332,
            "midi": 55,
            "name": "G3",
            "ticks": 111861,
            "time": 125.969468625,
            "velocity": 0.7244094488188977
          },
          {
            "duration": 0.4436932499999955,
            "durationTicks": 394,
            "midi": 61,
            "name": "C#4",
            "ticks": 111867,
            "time": 125.97622537500001,
            "velocity": 0.7480314960629921
          },
          {
            "duration": 0.32545012500001747,
            "durationTicks": 289,
            "midi": 57,
            "name": "A3",
            "ticks": 112341,
            "time": 126.510008625,
            "velocity": 0.7480314960629921
          },
          {
            "duration": 0.3277023750000154,
            "durationTicks": 291,
            "midi": 60,
            "name": "C4",
            "ticks": 112341,
            "time": 126.510008625,
            "velocity": 0.7637795275590551
          },
          {
            "duration": 0.384008625000007,
            "durationTicks": 341,
            "midi": 53,
            "name": "F3",
            "ticks": 112347,
            "time": 126.516765375,
            "velocity": 0.6929133858267716
          },
          {
            "duration": 0.6700443750000034,
            "durationTicks": 595,
            "midi": 53,
            "name": "F3",
            "ticks": 112728,
            "time": 126.945819,
            "velocity": 0.7086614173228346
          },
          {
            "duration": 0.6700443750000034,
            "durationTicks": 595,
            "midi": 56,
            "name": "G#3",
            "ticks": 112728,
            "time": 126.945819,
            "velocity": 0.7480314960629921
          },
          {
            "duration": 0.6565308750000014,
            "durationTicks": 583,
            "midi": 59,
            "name": "B3",
            "ticks": 112738,
            "time": 126.95708025,
            "velocity": 0.7244094488188977
          },
          {
            "duration": 0.12499987500000032,
            "durationTicks": 111,
            "midi": 70,
            "name": "A#4",
            "ticks": 113280,
            "time": 127.56744,
            "velocity": 0.8346456692913385
          },
          {
            "duration": 0.1317566250000084,
            "durationTicks": 117,
            "midi": 67,
            "name": "G4",
            "ticks": 113280,
            "time": 127.56744,
            "velocity": 0.7244094488188977
          },
          {
            "duration": 0.15653137500000014,
            "durationTicks": 139,
            "midi": 63,
            "name": "D#4",
            "ticks": 113280,
            "time": 127.56744,
            "velocity": 0.6850393700787402
          },
          {
            "duration": 0.0653152499999976,
            "durationTicks": 58,
            "midi": 60,
            "name": "C4",
            "ticks": 113280,
            "time": 127.56744,
            "velocity": 0.4251968503937008
          },
          {
            "duration": 0.14527012500002456,
            "durationTicks": 129,
            "midi": 70,
            "name": "A#4",
            "ticks": 113760,
            "time": 128.10798,
            "velocity": 0.8267716535433071
          },
          {
            "duration": 0.1328827500000216,
            "durationTicks": 118,
            "midi": 67,
            "name": "G4",
            "ticks": 113760,
            "time": 128.10798,
            "velocity": 0.6614173228346457
          },
          {
            "duration": 0.1644142500000214,
            "durationTicks": 146,
            "midi": 63,
            "name": "D#4",
            "ticks": 113760,
            "time": 128.10798,
            "velocity": 0.6614173228346457
          },
          {
            "duration": 0.0653152499999976,
            "durationTicks": 58,
            "midi": 60,
            "name": "C4",
            "ticks": 113760,
            "time": 128.10798,
            "velocity": 0.36220472440944884
          },
          {
            "duration": 0.08896387499999037,
            "durationTicks": 79,
            "midi": 70,
            "name": "A#4",
            "ticks": 114240,
            "time": 128.64852000000002,
            "velocity": 0.84251968503937
          },
          {
            "duration": 0.11599087499999428,
            "durationTicks": 103,
            "midi": 67,
            "name": "G4",
            "ticks": 114240,
            "time": 128.64852000000002,
            "velocity": 0.7244094488188977
          },
          {
            "duration": 0.11373862499999632,
            "durationTicks": 101,
            "midi": 63,
            "name": "D#4",
            "ticks": 114240,
            "time": 128.64852000000002,
            "velocity": 0.6850393700787402
          },
          {
            "duration": 0.11373862499999632,
            "durationTicks": 101,
            "midi": 60,
            "name": "C4",
            "ticks": 114240,
            "time": 128.64852000000002,
            "velocity": 0.6850393700787402
          },
          {
            "duration": 0.35360324999999193,
            "durationTicks": 314,
            "midi": 60,
            "name": "C4",
            "ticks": 114720,
            "time": 129.18906,
            "velocity": 0.7007874015748031
          },
          {
            "duration": 0.3828824999999938,
            "durationTicks": 340,
            "midi": 66,
            "name": "F#4",
            "ticks": 114720,
            "time": 129.18906,
            "velocity": 0.7637795275590551
          },
          {
            "duration": 0.3333330000000103,
            "durationTicks": 296,
            "midi": 62,
            "name": "D4",
            "ticks": 114720,
            "time": 129.18906,
            "velocity": 0.6535433070866141
          },
          {
            "duration": 0.35360324999999193,
            "durationTicks": 314,
            "midi": 57,
            "name": "A3",
            "ticks": 114720,
            "time": 129.18906,
            "velocity": 0.7007874015748031
          },
          {
            "duration": 0.6047291250000058,
            "durationTicks": 537,
            "midi": 65,
            "name": "F4",
            "ticks": 115094,
            "time": 129.61023075,
            "velocity": 0.7874015748031497
          },
          {
            "duration": 0.6373867499999903,
            "durationTicks": 566,
            "midi": 62,
            "name": "D4",
            "ticks": 115104,
            "time": 129.62149200000002,
            "velocity": 0.7086614173228346
          },
          {
            "duration": 0.58896337500002,
            "durationTicks": 523,
            "midi": 58,
            "name": "A#3",
            "ticks": 115107,
            "time": 129.624870375,
            "velocity": 0.7480314960629921
          },
          {
            "duration": 0.13288274999999317,
            "durationTicks": 118,
            "midi": 66,
            "name": "F#4",
            "ticks": 115838,
            "time": 130.44806775,
            "velocity": 0.7874015748031497
          },
          {
            "duration": 0.11261249999998313,
            "durationTicks": 100,
            "midi": 63,
            "name": "D#4",
            "ticks": 115838,
            "time": 130.44806775,
            "velocity": 0.7007874015748031
          },
          {
            "duration": 0.11148637499996994,
            "durationTicks": 99,
            "midi": 59,
            "name": "B3",
            "ticks": 115841,
            "time": 130.45144612500002,
            "velocity": 0.6929133858267716
          },
          {
            "duration": 0.11936925000000542,
            "durationTicks": 106,
            "midi": 65,
            "name": "F4",
            "ticks": 116068,
            "time": 130.7070765,
            "velocity": 0.8346456692913385
          },
          {
            "duration": 0.14076562500002865,
            "durationTicks": 125,
            "midi": 62,
            "name": "D4",
            "ticks": 116074,
            "time": 130.71383325,
            "velocity": 0.7637795275590551
          },
          {
            "duration": 0.08558550000000764,
            "durationTicks": 76,
            "midi": 58,
            "name": "A#3",
            "ticks": 116074,
            "time": 130.71383325,
            "velocity": 0.7401574803149606
          },
          {
            "duration": 0.05067562499999667,
            "durationTicks": 45,
            "midi": 58,
            "name": "A#3",
            "ticks": 117350,
            "time": 132.15076875,
            "velocity": 0.48031496062992124
          },
          {
            "duration": 0.05067562499999667,
            "durationTicks": 45,
            "midi": 63,
            "name": "D#4",
            "ticks": 117350,
            "time": 132.15076875,
            "velocity": 0.5590551181102362
          },
          {
            "duration": 0.0495495000000119,
            "durationTicks": 44,
            "midi": 74,
            "name": "D5",
            "ticks": 117357,
            "time": 132.158651625,
            "velocity": 0.49606299212598426
          },
          {
            "duration": 0.0596846249999885,
            "durationTicks": 53,
            "midi": 67,
            "name": "G4",
            "ticks": 117366,
            "time": 132.16878675,
            "velocity": 0.3779527559055118
          },
          {
            "duration": 0.04954949999998348,
            "durationTicks": 44,
            "midi": 58,
            "name": "A#3",
            "ticks": 117748,
            "time": 132.59896650000002,
            "velocity": 0.4881889763779528
          },
          {
            "duration": 0.04954949999998348,
            "durationTicks": 44,
            "midi": 63,
            "name": "D#4",
            "ticks": 117748,
            "time": 132.59896650000002,
            "velocity": 0.5669291338582677
          },
          {
            "duration": 0.0596846249999885,
            "durationTicks": 53,
            "midi": 67,
            "name": "G4",
            "ticks": 117754,
            "time": 132.60572325,
            "velocity": 0.4251968503937008
          },
          {
            "duration": 0.05743237499999054,
            "durationTicks": 51,
            "midi": 74,
            "name": "D5",
            "ticks": 117759,
            "time": 132.61135387500002,
            "velocity": 0.3779527559055118
          },
          {
            "duration": 0.31981949999999415,
            "durationTicks": 284,
            "midi": 67,
            "name": "G4",
            "ticks": 118105,
            "time": 133.000993125,
            "velocity": 0.5275590551181102
          },
          {
            "duration": 0.2905402499999923,
            "durationTicks": 258,
            "midi": 58,
            "name": "A#3",
            "ticks": 118108,
            "time": 133.00437150000002,
            "velocity": 0.47244094488188976
          },
          {
            "duration": 0.2905402499999923,
            "durationTicks": 258,
            "midi": 63,
            "name": "D#4",
            "ticks": 118108,
            "time": 133.00437150000002,
            "velocity": 0.5511811023622047
          },
          {
            "duration": 0.2725222500000086,
            "durationTicks": 242,
            "midi": 74,
            "name": "D5",
            "ticks": 118115,
            "time": 133.012254375,
            "velocity": 0.5118110236220472
          },
          {
            "duration": 0.04279275000001803,
            "durationTicks": 38,
            "midi": 58,
            "name": "A#3",
            "ticks": 118473,
            "time": 133.415407125,
            "velocity": 0.5039370078740157
          },
          {
            "duration": 0.04279275000001803,
            "durationTicks": 38,
            "midi": 63,
            "name": "D#4",
            "ticks": 118473,
            "time": 133.415407125,
            "velocity": 0.5826771653543307
          },
          {
            "duration": 0.0495495000000119,
            "durationTicks": 44,
            "midi": 67,
            "name": "G4",
            "ticks": 118475,
            "time": 133.417659375,
            "velocity": 0.4881889763779528
          },
          {
            "duration": 0.05743237499999054,
            "durationTicks": 51,
            "midi": 74,
            "name": "D5",
            "ticks": 118491,
            "time": 133.435677375,
            "velocity": 0.3858267716535433
          },
          {
            "duration": 0.0495495000000119,
            "durationTicks": 44,
            "midi": 58,
            "name": "A#3",
            "ticks": 119242,
            "time": 134.28139725,
            "velocity": 0.5275590551181102
          },
          {
            "duration": 0.0495495000000119,
            "durationTicks": 44,
            "midi": 63,
            "name": "D#4",
            "ticks": 119242,
            "time": 134.28139725,
            "velocity": 0.6062992125984252
          },
          {
            "duration": 0.057432375000018965,
            "durationTicks": 51,
            "midi": 74,
            "name": "D5",
            "ticks": 119253,
            "time": 134.293784625,
            "velocity": 0.3858267716535433
          },
          {
            "duration": 0.0495495000000119,
            "durationTicks": 44,
            "midi": 67,
            "name": "G4",
            "ticks": 119253,
            "time": 134.293784625,
            "velocity": 0.48031496062992124
          },
          {
            "duration": 0.07770262500000058,
            "durationTicks": 69,
            "midi": 67,
            "name": "G4",
            "ticks": 119627,
            "time": 134.71495537500002,
            "velocity": 0.6062992125984252
          },
          {
            "duration": 0.047297250000013946,
            "durationTicks": 42,
            "midi": 58,
            "name": "A#3",
            "ticks": 119639,
            "time": 134.728468875,
            "velocity": 0.4409448818897638
          },
          {
            "duration": 0.047297250000013946,
            "durationTicks": 42,
            "midi": 63,
            "name": "D#4",
            "ticks": 119639,
            "time": 134.728468875,
            "velocity": 0.5196850393700787
          },
          {
            "duration": 0.06981974999999352,
            "durationTicks": 62,
            "midi": 74,
            "name": "D5",
            "ticks": 119661,
            "time": 134.753243625,
            "velocity": 0.2047244094488189
          },
          {
            "duration": 0.41441400000002204,
            "durationTicks": 368,
            "midi": 60,
            "name": "C4",
            "ticks": 119987,
            "time": 135.120360375,
            "velocity": 0.5354330708661418
          },
          {
            "duration": 0.41441400000002204,
            "durationTicks": 368,
            "midi": 66,
            "name": "F#4",
            "ticks": 119987,
            "time": 135.120360375,
            "velocity": 0.5354330708661418
          },
          {
            "duration": 0.3975221249999663,
            "durationTicks": 353,
            "midi": 68,
            "name": "G#4",
            "ticks": 119996,
            "time": 135.13049550000002,
            "velocity": 0.5984251968503937
          },
          {
            "duration": 0.3828825000000222,
            "durationTicks": 340,
            "midi": 74,
            "name": "D5",
            "ticks": 120004,
            "time": 135.1395045,
            "velocity": 0.6062992125984252
          },
          {
            "duration": 0.36373837499999695,
            "durationTicks": 323,
            "midi": 60,
            "name": "C4",
            "ticks": 120480,
            "time": 135.67554,
            "velocity": 0.5511811023622047
          },
          {
            "duration": 0.36373837499999695,
            "durationTicks": 323,
            "midi": 66,
            "name": "F#4",
            "ticks": 120480,
            "time": 135.67554,
            "velocity": 0.5511811023622047
          },
          {
            "duration": 0.3558554999999899,
            "durationTicks": 316,
            "midi": 75,
            "name": "D#5",
            "ticks": 120484,
            "time": 135.6800445,
            "velocity": 0.5354330708661418
          },
          {
            "duration": 0.3457203750000133,
            "durationTicks": 307,
            "midi": 69,
            "name": "A4",
            "ticks": 120503,
            "time": 135.701440875,
            "velocity": 0.5511811023622047
          },
          {
            "duration": 0.04054049999999165,
            "durationTicks": 36,
            "midi": 62,
            "name": "D4",
            "ticks": 121206,
            "time": 136.49310675,
            "velocity": 0.6141732283464567
          },
          {
            "duration": 0.03941437499997846,
            "durationTicks": 35,
            "midi": 53,
            "name": "F3",
            "ticks": 121211,
            "time": 136.49873737500002,
            "velocity": 0.5433070866141733
          },
          {
            "duration": 0.03941437499997846,
            "durationTicks": 35,
            "midi": 58,
            "name": "A#3",
            "ticks": 121211,
            "time": 136.49873737500002,
            "velocity": 0.6220472440944882
          },
          {
            "duration": 0.04504499999998757,
            "durationTicks": 40,
            "midi": 69,
            "name": "A4",
            "ticks": 121215,
            "time": 136.50324187500001,
            "velocity": 0.5196850393700787
          },
          {
            "duration": 0.04954949999998348,
            "durationTicks": 44,
            "midi": 53,
            "name": "F3",
            "ticks": 121584,
            "time": 136.91878200000002,
            "velocity": 0.5433070866141733
          },
          {
            "duration": 0.04954949999998348,
            "durationTicks": 44,
            "midi": 58,
            "name": "A#3",
            "ticks": 121584,
            "time": 136.91878200000002,
            "velocity": 0.6220472440944882
          },
          {
            "duration": 0.04954949999998348,
            "durationTicks": 44,
            "midi": 62,
            "name": "D4",
            "ticks": 121586,
            "time": 136.92103425000002,
            "velocity": 0.5039370078740157
          },
          {
            "duration": 0.05180175000000986,
            "durationTicks": 46,
            "midi": 69,
            "name": "A4",
            "ticks": 121593,
            "time": 136.928917125,
            "velocity": 0.4566929133858268
          },
          {
            "duration": 0.35810774999998785,
            "durationTicks": 318,
            "midi": 53,
            "name": "F3",
            "ticks": 121900,
            "time": 137.2746375,
            "velocity": 0.47244094488188976
          },
          {
            "duration": 0.35810774999998785,
            "durationTicks": 318,
            "midi": 58,
            "name": "A#3",
            "ticks": 121900,
            "time": 137.2746375,
            "velocity": 0.5511811023622047
          },
          {
            "duration": 0.3727473749999888,
            "durationTicks": 331,
            "midi": 62,
            "name": "D4",
            "ticks": 121900,
            "time": 137.2746375,
            "velocity": 0.5905511811023622
          },
          {
            "duration": 0.32545012500000325,
            "durationTicks": 289,
            "midi": 69,
            "name": "A4",
            "ticks": 121910,
            "time": 137.28589875,
            "velocity": 0.5039370078740157
          },
          {
            "duration": 0.04504500000001599,
            "durationTicks": 40,
            "midi": 53,
            "name": "F3",
            "ticks": 122294,
            "time": 137.71833075,
            "velocity": 0.5590551181102362
          },
          {
            "duration": 0.04504500000001599,
            "durationTicks": 40,
            "midi": 58,
            "name": "A#3",
            "ticks": 122294,
            "time": 137.71833075,
            "velocity": 0.6377952755905512
          },
          {
            "duration": 0.04279275000001803,
            "durationTicks": 38,
            "midi": 62,
            "name": "D4",
            "ticks": 122296,
            "time": 137.720583,
            "velocity": 0.6614173228346457
          },
          {
            "duration": 0.047297249999985524,
            "durationTicks": 42,
            "midi": 69,
            "name": "A4",
            "ticks": 122312,
            "time": 137.73860100000002,
            "velocity": 0.5039370078740157
          },
          {
            "duration": 0.055180124999992586,
            "durationTicks": 49,
            "midi": 53,
            "name": "F3",
            "ticks": 123120,
            "time": 138.64851000000002,
            "velocity": 0.3464566929133858
          },
          {
            "duration": 0.055180124999992586,
            "durationTicks": 49,
            "midi": 58,
            "name": "A#3",
            "ticks": 123120,
            "time": 138.64851000000002,
            "velocity": 0.4251968503937008
          },
          {
            "duration": 0.0596846249999885,
            "durationTicks": 53,
            "midi": 69,
            "name": "A4",
            "ticks": 123127,
            "time": 138.65639287500002,
            "velocity": 0.36220472440944884
          },
          {
            "duration": 0.05743237499999054,
            "durationTicks": 51,
            "midi": 62,
            "name": "D4",
            "ticks": 123127,
            "time": 138.65639287500002,
            "velocity": 0.4015748031496063
          },
          {
            "duration": 0.05743237499999054,
            "durationTicks": 51,
            "midi": 62,
            "name": "D4",
            "ticks": 123515,
            "time": 139.09332937500002,
            "velocity": 0.3937007874015748
          },
          {
            "duration": 0.06306299999999965,
            "durationTicks": 56,
            "midi": 53,
            "name": "F3",
            "ticks": 123517,
            "time": 139.09558162500002,
            "velocity": 0.29133858267716534
          },
          {
            "duration": 0.06306299999999965,
            "durationTicks": 56,
            "midi": 58,
            "name": "A#3",
            "ticks": 123517,
            "time": 139.09558162500002,
            "velocity": 0.3700787401574803
          },
          {
            "duration": 0.3006753749999973,
            "durationTicks": 267,
            "midi": 53,
            "name": "F3",
            "ticks": 123827,
            "time": 139.444680375,
            "velocity": 0.3779527559055118
          },
          {
            "duration": 0.3006753749999973,
            "durationTicks": 267,
            "midi": 58,
            "name": "A#3",
            "ticks": 123827,
            "time": 139.444680375,
            "velocity": 0.4566929133858268
          },
          {
            "duration": 0.2972970000000146,
            "durationTicks": 264,
            "midi": 62,
            "name": "D4",
            "ticks": 123837,
            "time": 139.45594162499998,
            "velocity": 0.4566929133858268
          },
          {
            "duration": 0.24324300000003518,
            "durationTicks": 216,
            "midi": 69,
            "name": "A4",
            "ticks": 123850,
            "time": 139.47058124999998,
            "velocity": 0.25984251968503935
          },
          {
            "duration": 0.049549500000040325,
            "durationTicks": 44,
            "midi": 62,
            "name": "D4",
            "ticks": 124197,
            "time": 139.86134662499998,
            "velocity": 0.41732283464566927
          },
          {
            "duration": 0.05067562500002509,
            "durationTicks": 45,
            "midi": 69,
            "name": "A4",
            "ticks": 124225,
            "time": 139.89287812499998,
            "velocity": 0.15748031496062992
          },
          {
            "duration": 0.04954949999998348,
            "durationTicks": 44,
            "midi": 58,
            "name": "A#3",
            "ticks": 125058,
            "time": 140.83094025000003,
            "velocity": 0.4251968503937008
          },
          {
            "duration": 0.04954949999998348,
            "durationTicks": 44,
            "midi": 63,
            "name": "D#4",
            "ticks": 125058,
            "time": 140.83094025000003,
            "velocity": 0.5039370078740157
          },
          {
            "duration": 0.055180124999992586,
            "durationTicks": 49,
            "midi": 74,
            "name": "D5",
            "ticks": 125060,
            "time": 140.83319250000002,
            "velocity": 0.4251968503937008
          },
          {
            "duration": 0.06981974999999352,
            "durationTicks": 62,
            "midi": 67,
            "name": "G4",
            "ticks": 125068,
            "time": 140.84220150000002,
            "velocity": 0.33070866141732286
          },
          {
            "duration": 0.0664413750000108,
            "durationTicks": 59,
            "midi": 67,
            "name": "G4",
            "ticks": 125498,
            "time": 141.32643525,
            "velocity": 0.5039370078740157
          },
          {
            "duration": 0.06981974999999352,
            "durationTicks": 62,
            "midi": 74,
            "name": "D5",
            "ticks": 125509,
            "time": 141.338822625,
            "velocity": 0.29133858267716534
          },
          {
            "duration": 0.06981974999999352,
            "durationTicks": 62,
            "midi": 58,
            "name": "A#3",
            "ticks": 125513,
            "time": 141.343327125,
            "velocity": 0.2204724409448819
          },
          {
            "duration": 0.06981974999999352,
            "durationTicks": 62,
            "midi": 63,
            "name": "D#4",
            "ticks": 125513,
            "time": 141.343327125,
            "velocity": 0.2992125984251969
          },
          {
            "duration": 0.05518012500002101,
            "durationTicks": 49,
            "midi": 74,
            "name": "D5",
            "ticks": 125999,
            "time": 141.890623875,
            "velocity": 0.4409448818897638
          },
          {
            "duration": 0.06306299999997123,
            "durationTicks": 56,
            "midi": 67,
            "name": "G4",
            "ticks": 126001,
            "time": 141.89287612500002,
            "velocity": 0.5826771653543307
          },
          {
            "duration": 0.05180174999998144,
            "durationTicks": 46,
            "midi": 58,
            "name": "A#3",
            "ticks": 126013,
            "time": 141.906389625,
            "velocity": 0.3543307086614173
          },
          {
            "duration": 0.05180174999998144,
            "durationTicks": 46,
            "midi": 63,
            "name": "D#4",
            "ticks": 126013,
            "time": 141.906389625,
            "velocity": 0.4330708661417323
          },
          {
            "duration": 0.3445942500000285,
            "durationTicks": 306,
            "midi": 59,
            "name": "B3",
            "ticks": 126357,
            "time": 142.293776625,
            "velocity": 0.6062992125984252
          },
          {
            "duration": 0.3445942500000285,
            "durationTicks": 306,
            "midi": 65,
            "name": "F4",
            "ticks": 126357,
            "time": 142.293776625,
            "velocity": 0.6062992125984252
          },
          {
            "duration": 0.3175672499999962,
            "durationTicks": 282,
            "midi": 75,
            "name": "D#5",
            "ticks": 126361,
            "time": 142.29828112500002,
            "velocity": 0.6850393700787402
          },
          {
            "duration": 0.31981950000002257,
            "durationTicks": 284,
            "midi": 68,
            "name": "G#4",
            "ticks": 126368,
            "time": 142.306164,
            "velocity": 0.6771653543307087
          },
          {
            "duration": 0.04279274999998961,
            "durationTicks": 38,
            "midi": 58,
            "name": "A#3",
            "ticks": 126947,
            "time": 142.95819037500002,
            "velocity": 0.5669291338582677
          },
          {
            "duration": 0.04279274999998961,
            "durationTicks": 38,
            "midi": 63,
            "name": "D#4",
            "ticks": 126947,
            "time": 142.95819037500002,
            "velocity": 0.6456692913385826
          },
          {
            "duration": 0.05180174999998144,
            "durationTicks": 46,
            "midi": 67,
            "name": "G4",
            "ticks": 126961,
            "time": 142.97395612500003,
            "velocity": 0.4645669291338583
          },
          {
            "duration": 0.06193687499998646,
            "durationTicks": 55,
            "midi": 74,
            "name": "D5",
            "ticks": 126963,
            "time": 142.97620837500003,
            "velocity": 0.4094488188976378
          },
          {
            "duration": 0.055180124999992586,
            "durationTicks": 49,
            "midi": 67,
            "name": "G4",
            "ticks": 127342,
            "time": 143.40300975000002,
            "velocity": 0.5118110236220472
          },
          {
            "duration": 0.05292787499999463,
            "durationTicks": 47,
            "midi": 74,
            "name": "D5",
            "ticks": 127342,
            "time": 143.40300975000002,
            "velocity": 0.47244094488188976
          },
          {
            "duration": 0.05180175000000986,
            "durationTicks": 46,
            "midi": 58,
            "name": "A#3",
            "ticks": 127345,
            "time": 143.406388125,
            "velocity": 0.47244094488188976
          },
          {
            "duration": 0.05180175000000986,
            "durationTicks": 46,
            "midi": 63,
            "name": "D#4",
            "ticks": 127345,
            "time": 143.406388125,
            "velocity": 0.5511811023622047
          },
          {
            "duration": 0.3479726249999828,
            "durationTicks": 309,
            "midi": 66,
            "name": "F#4",
            "ticks": 127689,
            "time": 143.79377512500002,
            "velocity": 0.5511811023622047
          },
          {
            "duration": 0.3231978749999769,
            "durationTicks": 287,
            "midi": 72,
            "name": "C5",
            "ticks": 127693,
            "time": 143.79827962500002,
            "velocity": 0.48031496062992124
          },
          {
            "duration": 0.31869337499998096,
            "durationTicks": 283,
            "midi": 63,
            "name": "D#4",
            "ticks": 127693,
            "time": 143.79827962500002,
            "velocity": 0.44881889763779526
          },
          {
            "duration": 0.31869337499998096,
            "durationTicks": 283,
            "midi": 58,
            "name": "A#3",
            "ticks": 127693,
            "time": 143.79827962500002,
            "velocity": 0.44881889763779526
          },
          {
            "duration": 0.06531525000002603,
            "durationTicks": 58,
            "midi": 58,
            "name": "A#3",
            "ticks": 128053,
            "time": 144.203684625,
            "velocity": 0.5354330708661418
          },
          {
            "duration": 0.06531525000002603,
            "durationTicks": 58,
            "midi": 63,
            "name": "D#4",
            "ticks": 128053,
            "time": 144.203684625,
            "velocity": 0.5354330708661418
          },
          {
            "duration": 0.07770262499997216,
            "durationTicks": 69,
            "midi": 72,
            "name": "C5",
            "ticks": 128058,
            "time": 144.20931525000003,
            "velocity": 0.6062992125984252
          },
          {
            "duration": 0.07770262500000058,
            "durationTicks": 69,
            "midi": 66,
            "name": "F#4",
            "ticks": 128078,
            "time": 144.23183775,
            "velocity": 0.5354330708661418
          },
          {
            "duration": 0.04504500000001599,
            "durationTicks": 40,
            "midi": 53,
            "name": "F3",
            "ticks": 128843,
            "time": 145.093323375,
            "velocity": 0.5275590551181102
          },
          {
            "duration": 0.04504500000001599,
            "durationTicks": 40,
            "midi": 58,
            "name": "A#3",
            "ticks": 128843,
            "time": 145.093323375,
            "velocity": 0.6062992125984252
          },
          {
            "duration": 0.04504500000001599,
            "durationTicks": 40,
            "midi": 62,
            "name": "D4",
            "ticks": 128856,
            "time": 145.107963,
            "velocity": 0.49606299212598426
          },
          {
            "duration": 0.06981974999999352,
            "durationTicks": 62,
            "midi": 69,
            "name": "A4",
            "ticks": 128860,
            "time": 145.1124675,
            "velocity": 0.33070866141732286
          },
          {
            "duration": 0.047297250000013946,
            "durationTicks": 42,
            "midi": 53,
            "name": "F3",
            "ticks": 129263,
            "time": 145.566295875,
            "velocity": 0.5669291338582677
          },
          {
            "duration": 0.047297250000013946,
            "durationTicks": 42,
            "midi": 58,
            "name": "A#3",
            "ticks": 129263,
            "time": 145.566295875,
            "velocity": 0.6456692913385826
          },
          {
            "duration": 0.05180175000000986,
            "durationTicks": 46,
            "midi": 62,
            "name": "D4",
            "ticks": 129263,
            "time": 145.566295875,
            "velocity": 0.6141732283464567
          },
          {
            "duration": 0.06756749999999556,
            "durationTicks": 60,
            "midi": 69,
            "name": "A4",
            "ticks": 129278,
            "time": 145.58318775,
            "velocity": 0.33858267716535434
          },
          {
            "duration": 0.3378374999999778,
            "durationTicks": 300,
            "midi": 62,
            "name": "D4",
            "ticks": 129622,
            "time": 145.97057475000003,
            "velocity": 0.5118110236220472
          },
          {
            "duration": 0.2826573749999852,
            "durationTicks": 251,
            "midi": 69,
            "name": "A4",
            "ticks": 129628,
            "time": 145.97733150000002,
            "velocity": 0.49606299212598426
          },
          {
            "duration": 0.2894141249999791,
            "durationTicks": 257,
            "midi": 53,
            "name": "F3",
            "ticks": 129638,
            "time": 145.98859275,
            "velocity": 0.33858267716535434
          },
          {
            "duration": 0.2894141249999791,
            "durationTicks": 257,
            "midi": 58,
            "name": "A#3",
            "ticks": 129638,
            "time": 145.98859275,
            "velocity": 0.41732283464566927
          },
          {
            "duration": 0.040540500000020074,
            "durationTicks": 36,
            "midi": 53,
            "name": "F3",
            "ticks": 130004,
            "time": 146.4007545,
            "velocity": 0.6456692913385826
          },
          {
            "duration": 0.040540500000020074,
            "durationTicks": 36,
            "midi": 58,
            "name": "A#3",
            "ticks": 130004,
            "time": 146.4007545,
            "velocity": 0.7244094488188977
          },
          {
            "duration": 0.040540500000020074,
            "durationTicks": 36,
            "midi": 62,
            "name": "D4",
            "ticks": 130004,
            "time": 146.4007545,
            "velocity": 0.5669291338582677
          },
          {
            "duration": 0.04054049999999165,
            "durationTicks": 36,
            "midi": 69,
            "name": "A4",
            "ticks": 130012,
            "time": 146.40976350000003,
            "velocity": 0.6141732283464567
          },
          {
            "duration": 0.04504499999998757,
            "durationTicks": 40,
            "midi": 53,
            "name": "F3",
            "ticks": 130786,
            "time": 147.28138425000003,
            "velocity": 0.4881889763779528
          },
          {
            "duration": 0.04504499999998757,
            "durationTicks": 40,
            "midi": 58,
            "name": "A#3",
            "ticks": 130786,
            "time": 147.28138425000003,
            "velocity": 0.5669291338582677
          },
          {
            "duration": 0.047297249999985524,
            "durationTicks": 42,
            "midi": 62,
            "name": "D4",
            "ticks": 130790,
            "time": 147.28588875000003,
            "velocity": 0.5118110236220472
          },
          {
            "duration": 0.04279275000001803,
            "durationTicks": 38,
            "midi": 53,
            "name": "F3",
            "ticks": 131202,
            "time": 147.74985225,
            "velocity": 0.5984251968503937
          },
          {
            "duration": 0.04279275000001803,
            "durationTicks": 38,
            "midi": 58,
            "name": "A#3",
            "ticks": 131202,
            "time": 147.74985225,
            "velocity": 0.6771653543307087
          },
          {
            "duration": 0.04054049999999165,
            "durationTicks": 36,
            "midi": 62,
            "name": "D4",
            "ticks": 131207,
            "time": 147.755482875,
            "velocity": 0.5984251968503937
          },
          {
            "duration": 0.14414400000001137,
            "durationTicks": 128,
            "midi": 74,
            "name": "D5",
            "ticks": 133357,
            "time": 150.176651625,
            "velocity": 0.4251968503937008
          },
          {
            "duration": 0.21058537499996532,
            "durationTicks": 187,
            "midi": 82,
            "name": "A#5",
            "ticks": 133445,
            "time": 150.27575062500003,
            "velocity": 0.7244094488188977
          },
          {
            "duration": 0.16554037500000618,
            "durationTicks": 147,
            "midi": 80,
            "name": "G#5",
            "ticks": 133687,
            "time": 150.548272875,
            "velocity": 0.6850393700787402
          },
          {
            "duration": 0.1632881249999798,
            "durationTicks": 145,
            "midi": 79,
            "name": "G5",
            "ticks": 133909,
            "time": 150.798272625,
            "velocity": 0.6614173228346457
          },
          {
            "duration": 0.22522499999999468,
            "durationTicks": 200,
            "midi": 82,
            "name": "A#5",
            "ticks": 134182,
            "time": 151.10570475,
            "velocity": 0.4094488188976378
          },
          {
            "duration": 0.11599087499999428,
            "durationTicks": 103,
            "midi": 79,
            "name": "G5",
            "ticks": 134422,
            "time": 151.37597475,
            "velocity": 0.7401574803149606
          },
          {
            "duration": 0.2083331249999958,
            "durationTicks": 185,
            "midi": 86,
            "name": "D6",
            "ticks": 136538,
            "time": 153.75885525,
            "velocity": 0.8818897637795275
          },
          {
            "duration": 0.14076562500000023,
            "durationTicks": 125,
            "midi": 91,
            "name": "G6",
            "ticks": 136712,
            "time": 153.954801,
            "velocity": 0.7874015748031497
          },
          {
            "duration": 0.1756755000000112,
            "durationTicks": 156,
            "midi": 83,
            "name": "B5",
            "ticks": 136875,
            "time": 154.138359375,
            "velocity": 0.6614173228346457
          },
          {
            "duration": 0.12162150000000338,
            "durationTicks": 108,
            "midi": 86,
            "name": "D6",
            "ticks": 137029,
            "time": 154.311782625,
            "velocity": 0.7401574803149606
          },
          {
            "duration": 0.1981980000000192,
            "durationTicks": 176,
            "midi": 79,
            "name": "G5",
            "ticks": 137185,
            "time": 154.487458125,
            "velocity": 0.5826771653543307
          },
          {
            "duration": 0.14639625000000933,
            "durationTicks": 130,
            "midi": 83,
            "name": "B5",
            "ticks": 137363,
            "time": 154.687908375,
            "velocity": 0.6535433070866141
          },
          {
            "duration": 0.17117099999998686,
            "durationTicks": 152,
            "midi": 74,
            "name": "D5",
            "ticks": 140071,
            "time": 157.73745487500003,
            "velocity": 0.5196850393700787
          },
          {
            "duration": 0.21283762500002013,
            "durationTicks": 189,
            "midi": 82,
            "name": "A#5",
            "ticks": 140164,
            "time": 157.8421845,
            "velocity": 0.84251968503937
          },
          {
            "duration": 0.22072049999999876,
            "durationTicks": 196,
            "midi": 81,
            "name": "A5",
            "ticks": 140412,
            "time": 158.1214635,
            "velocity": 0.6692913385826772
          },
          {
            "duration": 0.1655403750000346,
            "durationTicks": 147,
            "midi": 79,
            "name": "G5",
            "ticks": 140646,
            "time": 158.38497675,
            "velocity": 0.8503937007874016
          },
          {
            "duration": 0.18130612499996346,
            "durationTicks": 161,
            "midi": 81,
            "name": "A5",
            "ticks": 140793,
            "time": 158.55051712500003,
            "velocity": 0.6220472440944882
          },
          {
            "duration": 0.09459449999997105,
            "durationTicks": 84,
            "midi": 82,
            "name": "A#5",
            "ticks": 141035,
            "time": 158.823039375,
            "velocity": 0.5511811023622047
          },
          {
            "duration": 0.12612599999997087,
            "durationTicks": 112,
            "midi": 85,
            "name": "C#6",
            "ticks": 141121,
            "time": 158.91988612500003,
            "velocity": 0.8503937007874016
          },
          {
            "duration": 0.15202687499999,
            "durationTicks": 135,
            "midi": 85,
            "name": "C#6",
            "ticks": 141255,
            "time": 159.070786875,
            "velocity": 0.9133858267716536
          },
          {
            "duration": 0.13851337499997385,
            "durationTicks": 123,
            "midi": 84,
            "name": "C6",
            "ticks": 141378,
            "time": 159.20930025,
            "velocity": 0.8188976377952756
          },
          {
            "duration": 0.18355837500001826,
            "durationTicks": 163,
            "midi": 86,
            "name": "D6",
            "ticks": 142588,
            "time": 160.5719115,
            "velocity": 0.8503937007874016
          },
          {
            "duration": 0.2286033749999774,
            "durationTicks": 203,
            "midi": 79,
            "name": "G5",
            "ticks": 142819,
            "time": 160.832046375,
            "velocity": 0.5984251968503937
          },
          {
            "duration": 0.17342324999998482,
            "durationTicks": 154,
            "midi": 74,
            "name": "D5",
            "ticks": 143101,
            "time": 161.14961362500003,
            "velocity": 0.6220472440944882
          },
          {
            "duration": 0.19256737499998167,
            "durationTicks": 171,
            "midi": 62,
            "name": "D4",
            "ticks": 147740,
            "time": 166.37370750000002,
            "velocity": 0.8267716535433071
          },
          {
            "duration": 0.13963949999998704,
            "durationTicks": 124,
            "midi": 58,
            "name": "A#3",
            "ticks": 147748,
            "time": 166.38271650000002,
            "velocity": 0.6929133858267716
          },
          {
            "duration": 0.10810799999998721,
            "durationTicks": 96,
            "midi": 57,
            "name": "A3",
            "ticks": 147751,
            "time": 166.38609487500003,
            "velocity": 0.6062992125984252
          },
          {
            "duration": 0.174549374999998,
            "durationTicks": 155,
            "midi": 60,
            "name": "C4",
            "ticks": 149667,
            "time": 168.543750375,
            "velocity": 0.6377952755905512
          },
          {
            "duration": 0.19031512500001213,
            "durationTicks": 169,
            "midi": 63,
            "name": "D#4",
            "ticks": 149669,
            "time": 168.546002625,
            "velocity": 0.8031496062992126
          },
          {
            "duration": 0.842341499999975,
            "durationTicks": 748,
            "midi": 65,
            "name": "F4",
            "ticks": 150727,
            "time": 169.73744287500003,
            "velocity": 0.7401574803149606
          },
          {
            "duration": 0.9346837500000333,
            "durationTicks": 830,
            "midi": 54,
            "name": "F#3",
            "ticks": 150730,
            "time": 169.74082124999998,
            "velocity": 0.6456692913385826
          },
          {
            "duration": 0.829954124999972,
            "durationTicks": 737,
            "midi": 60,
            "name": "C4",
            "ticks": 150735,
            "time": 169.74645187500002,
            "velocity": 0.6299212598425197
          },
          {
            "duration": 0.11486474999998109,
            "durationTicks": 102,
            "midi": 62,
            "name": "D4",
            "ticks": 151591,
            "time": 170.71041487500003,
            "velocity": 0.7086614173228346
          },
          {
            "duration": 0.12725212499998406,
            "durationTicks": 113,
            "midi": 58,
            "name": "A#3",
            "ticks": 151591,
            "time": 170.71041487500003,
            "velocity": 0.6929133858267716
          },
          {
            "duration": 0.05405400000000782,
            "durationTicks": 48,
            "midi": 57,
            "name": "A3",
            "ticks": 151598,
            "time": 170.71829775,
            "velocity": 0.3543307086614173
          },
          {
            "duration": 0.040540500000020074,
            "durationTicks": 36,
            "midi": 62,
            "name": "D4",
            "ticks": 152879,
            "time": 172.160863875,
            "velocity": 0.6299212598425197
          },
          {
            "duration": 0.040540500000020074,
            "durationTicks": 36,
            "midi": 58,
            "name": "A#3",
            "ticks": 152879,
            "time": 172.160863875,
            "velocity": 0.5905511811023622
          },
          {
            "duration": 0.4054050000000018,
            "durationTicks": 360,
            "midi": 63,
            "name": "D#4",
            "ticks": 153589,
            "time": 172.960412625,
            "velocity": 0.7559055118110236
          },
          {
            "duration": 0.8231973750000066,
            "durationTicks": 731,
            "midi": 58,
            "name": "A#3",
            "ticks": 153593,
            "time": 172.964917125,
            "velocity": 0.6220472440944882
          },
          {
            "duration": 0.34797262500001125,
            "durationTicks": 309,
            "midi": 55,
            "name": "G3",
            "ticks": 153596,
            "time": 172.9682955,
            "velocity": 0.6535433070866141
          },
          {
            "duration": 0.35247712500000716,
            "durationTicks": 313,
            "midi": 63,
            "name": "D#4",
            "ticks": 153962,
            "time": 173.38045725,
            "velocity": 0.7086614173228346
          },
          {
            "duration": 0.28716187500000956,
            "durationTicks": 255,
            "midi": 55,
            "name": "G3",
            "ticks": 153963,
            "time": 173.38158337500002,
            "velocity": 0.5669291338582677
          },
          {
            "duration": 0.3502248750000092,
            "durationTicks": 311,
            "midi": 63,
            "name": "D#4",
            "ticks": 154327,
            "time": 173.79149287500002,
            "velocity": 0.7165354330708661
          },
          {
            "duration": 0.3074321250000196,
            "durationTicks": 273,
            "midi": 55,
            "name": "G3",
            "ticks": 154332,
            "time": 173.7971235,
            "velocity": 0.7480314960629921
          },
          {
            "duration": 0.3502248750000092,
            "durationTicks": 311,
            "midi": 58,
            "name": "A#3",
            "ticks": 154335,
            "time": 173.800501875,
            "velocity": 0.7480314960629921
          },
          {
            "duration": 0.29391862500000343,
            "durationTicks": 261,
            "midi": 63,
            "name": "D#4",
            "ticks": 154691,
            "time": 174.20140237500001,
            "velocity": 0.7322834645669292
          },
          {
            "duration": 0.24999975000000063,
            "durationTicks": 222,
            "midi": 55,
            "name": "G3",
            "ticks": 154694,
            "time": 174.20478075,
            "velocity": 0.5984251968503937
          },
          {
            "duration": 0.29729699999998616,
            "durationTicks": 264,
            "midi": 58,
            "name": "A#3",
            "ticks": 154700,
            "time": 174.21153750000002,
            "velocity": 0.7637795275590551
          },
          {
            "duration": 0.10810799999998721,
            "durationTicks": 96,
            "midi": 63,
            "name": "D#4",
            "ticks": 155040,
            "time": 174.59442,
            "velocity": 0.6692913385826772
          },
          {
            "duration": 0.07319812499997624,
            "durationTicks": 65,
            "midi": 58,
            "name": "A#3",
            "ticks": 155047,
            "time": 174.60230287500002,
            "velocity": 0.7165354330708661
          },
          {
            "duration": 0.04504500000001599,
            "durationTicks": 40,
            "midi": 55,
            "name": "G3",
            "ticks": 155052,
            "time": 174.6079335,
            "velocity": 0.5196850393700787
          },
          {
            "duration": 0.17792775000003758,
            "durationTicks": 158,
            "midi": 58,
            "name": "A#3",
            "ticks": 155290,
            "time": 174.87595124999999,
            "velocity": 0.7716535433070866
          },
          {
            "duration": 0.10472962500003291,
            "durationTicks": 93,
            "midi": 63,
            "name": "D#4",
            "ticks": 155294,
            "time": 174.88045574999998,
            "velocity": 0.7322834645669292
          },
          {
            "duration": 0.9403143749999856,
            "durationTicks": 835,
            "midi": 54,
            "name": "F#3",
            "ticks": 155539,
            "time": 175.156356375,
            "velocity": 0.8031496062992126
          },
          {
            "duration": 1.0101341250000075,
            "durationTicks": 897,
            "midi": 60,
            "name": "C4",
            "ticks": 155539,
            "time": 175.156356375,
            "velocity": 0.6929133858267716
          },
          {
            "duration": 0.87274687499999,
            "durationTicks": 775,
            "midi": 62,
            "name": "D4",
            "ticks": 155539,
            "time": 175.156356375,
            "velocity": 0.7637795275590551
          },
          {
            "duration": 1.1002241249999827,
            "durationTicks": 977,
            "midi": 58,
            "name": "A#3",
            "ticks": 156487,
            "time": 176.22392287500003,
            "velocity": 0.7874015748031497
          },
          {
            "duration": 1.016890874999973,
            "durationTicks": 903,
            "midi": 63,
            "name": "D#4",
            "ticks": 156489,
            "time": 176.22617512500003,
            "velocity": 0.8818897637795275
          },
          {
            "duration": 0.8423415000000034,
            "durationTicks": 748,
            "midi": 55,
            "name": "G3",
            "ticks": 156494,
            "time": 176.23180574999998,
            "velocity": 0.7401574803149606
          },
          {
            "duration": 0.047297249999985524,
            "durationTicks": 42,
            "midi": 62,
            "name": "D4",
            "ticks": 157453,
            "time": 177.311759625,
            "velocity": 0.8188976377952756
          },
          {
            "duration": 0.12274762500001657,
            "durationTicks": 109,
            "midi": 60,
            "name": "C4",
            "ticks": 157454,
            "time": 177.31288575,
            "velocity": 0.7637795275590551
          },
          {
            "duration": 0.038288249999993695,
            "durationTicks": 34,
            "midi": 54,
            "name": "F#3",
            "ticks": 157455,
            "time": 177.314011875,
            "velocity": 0.7244094488188977
          },
          {
            "duration": 1.605854249999993,
            "durationTicks": 1426,
            "midi": 65,
            "name": "F4",
            "ticks": 157933,
            "time": 177.852299625,
            "velocity": 0.8503937007874016
          },
          {
            "duration": 1.5979713750000144,
            "durationTicks": 1419,
            "midi": 60,
            "name": "C4",
            "ticks": 157935,
            "time": 177.854551875,
            "velocity": 0.7637795275590551
          },
          {
            "duration": 1.5900885000000073,
            "durationTicks": 1412,
            "midi": 54,
            "name": "F#3",
            "ticks": 157936,
            "time": 177.855678,
            "velocity": 0.8031496062992126
          },
          {
            "duration": 0.07545037500000262,
            "durationTicks": 67,
            "midi": 60,
            "name": "C4",
            "ticks": 165353,
            "time": 186.208147125,
            "velocity": 0.6929133858267716
          },
          {
            "duration": 0.07657650000001581,
            "durationTicks": 68,
            "midi": 62,
            "name": "D4",
            "ticks": 165353,
            "time": 186.208147125,
            "velocity": 0.6929133858267716
          },
          {
            "duration": 0.05743237499999054,
            "durationTicks": 51,
            "midi": 57,
            "name": "A3",
            "ticks": 165354,
            "time": 186.20927325000002,
            "velocity": 0.6929133858267716
          },
          {
            "duration": 0.09009000000000356,
            "durationTicks": 80,
            "midi": 60,
            "name": "C4",
            "ticks": 165719,
            "time": 186.620308875,
            "velocity": 0.7874015748031497
          },
          {
            "duration": 0.06418912500001284,
            "durationTicks": 57,
            "midi": 62,
            "name": "D4",
            "ticks": 165719,
            "time": 186.620308875,
            "velocity": 0.7874015748031497
          },
          {
            "duration": 0.06981974999999352,
            "durationTicks": 62,
            "midi": 55,
            "name": "G3",
            "ticks": 165721,
            "time": 186.62256112500003,
            "velocity": 0.6929133858267716
          },
          {
            "duration": 0.06418912500001284,
            "durationTicks": 57,
            "midi": 63,
            "name": "D#4",
            "ticks": 166313,
            "time": 187.289227125,
            "velocity": 0.6929133858267716
          },
          {
            "duration": 0.04279274999998961,
            "durationTicks": 38,
            "midi": 60,
            "name": "C4",
            "ticks": 166314,
            "time": 187.29035325,
            "velocity": 0.6929133858267716
          },
          {
            "duration": 0.03490987500001097,
            "durationTicks": 31,
            "midi": 54,
            "name": "F#3",
            "ticks": 166315,
            "time": 187.291479375,
            "velocity": 0.4566929133858268
          },
          {
            "duration": 0.29391862500003185,
            "durationTicks": 261,
            "midi": 54,
            "name": "F#3",
            "ticks": 166677,
            "time": 187.699136625,
            "velocity": 0.6929133858267716
          },
          {
            "duration": 0.2961708750000014,
            "durationTicks": 263,
            "midi": 60,
            "name": "C4",
            "ticks": 166678,
            "time": 187.70026275,
            "velocity": 0.7874015748031497
          },
          {
            "duration": 0.30292762499999526,
            "durationTicks": 269,
            "midi": 62,
            "name": "D4",
            "ticks": 166678,
            "time": 187.70026275,
            "velocity": 0.7874015748031497
          },
          {
            "duration": 0.15202687499999,
            "durationTicks": 135,
            "midi": 60,
            "name": "C4",
            "ticks": 173032,
            "time": 194.85566100000003,
            "velocity": 0.7559055118110236
          },
          {
            "duration": 0.12274762499998815,
            "durationTicks": 109,
            "midi": 62,
            "name": "D4",
            "ticks": 173034,
            "time": 194.85791325000002,
            "velocity": 0.7322834645669292
          },
          {
            "duration": 0.11486474999998109,
            "durationTicks": 102,
            "midi": 60,
            "name": "C4",
            "ticks": 173435,
            "time": 195.30948937500003,
            "velocity": 0.7716535433070866
          },
          {
            "duration": 0.0596846249999885,
            "durationTicks": 53,
            "midi": 62,
            "name": "D4",
            "ticks": 173436,
            "time": 195.3106155,
            "velocity": 0.7480314960629921
          },
          {
            "duration": 0.9695936250000443,
            "durationTicks": 861,
            "midi": 65,
            "name": "F4",
            "ticks": 173759,
            "time": 195.67435387499998,
            "velocity": 0.7165354330708661
          },
          {
            "duration": 0.9448188750000099,
            "durationTicks": 839,
            "midi": 60,
            "name": "C4",
            "ticks": 173760,
            "time": 195.67548,
            "velocity": 0.6850393700787402
          },
          {
            "duration": 0.9358098750000181,
            "durationTicks": 831,
            "midi": 54,
            "name": "F#3",
            "ticks": 173762,
            "time": 195.67773225,
            "velocity": 0.7322834645669292
          },
          {
            "duration": 0.13851337500000227,
            "durationTicks": 123,
            "midi": 60,
            "name": "C4",
            "ticks": 178577,
            "time": 201.100024125,
            "velocity": 0.8031496062992126
          },
          {
            "duration": 0.1249998749999861,
            "durationTicks": 111,
            "midi": 62,
            "name": "D4",
            "ticks": 178579,
            "time": 201.102276375,
            "velocity": 0.8031496062992126
          },
          {
            "duration": 0.18243224999997665,
            "durationTicks": 162,
            "midi": 60,
            "name": "C4",
            "ticks": 178828,
            "time": 201.38268150000002,
            "velocity": 0.7401574803149606
          },
          {
            "duration": 0.13513499999999112,
            "durationTicks": 120,
            "midi": 62,
            "name": "D4",
            "ticks": 178831,
            "time": 201.38605987500003,
            "velocity": 0.7322834645669292
          },
          {
            "duration": 0.3074321249999912,
            "durationTicks": 273,
            "midi": 62,
            "name": "D4",
            "ticks": 179533,
            "time": 202.17659962500002,
            "velocity": 0.7716535433070866
          },
          {
            "duration": 0.3108104999999739,
            "durationTicks": 276,
            "midi": 60,
            "name": "C4",
            "ticks": 179535,
            "time": 202.17885187500002,
            "velocity": 0.7322834645669292
          },
          {
            "duration": 0.30855824999997594,
            "durationTicks": 274,
            "midi": 54,
            "name": "F#3",
            "ticks": 179536,
            "time": 202.17997800000003,
            "velocity": 0.7795275590551181
          },
          {
            "duration": 0.9774764999999945,
            "durationTicks": 868,
            "midi": 58,
            "name": "A#3",
            "ticks": 180360,
            "time": 203.10790500000002,
            "velocity": 0.6062992125984252
          },
          {
            "duration": 0.9684675000000027,
            "durationTicks": 860,
            "midi": 62,
            "name": "D4",
            "ticks": 180360,
            "time": 203.10790500000002,
            "velocity": 0.7874015748031497
          },
          {
            "duration": 0.9470711250000079,
            "durationTicks": 841,
            "midi": 57,
            "name": "A3",
            "ticks": 180360,
            "time": 203.10790500000002,
            "velocity": 0.7874015748031497
          },
          {
            "duration": 0.9470711250000079,
            "durationTicks": 841,
            "midi": 53,
            "name": "F3",
            "ticks": 180360,
            "time": 203.10790500000002,
            "velocity": 0.6062992125984252
          },
          {
            "duration": 0.06418912500001284,
            "durationTicks": 57,
            "midi": 60,
            "name": "C4",
            "ticks": 181440,
            "time": 204.32412,
            "velocity": 0.6929133858267716
          },
          {
            "duration": 0.05968462500001692,
            "durationTicks": 53,
            "midi": 54,
            "name": "F#3",
            "ticks": 181440,
            "time": 204.32412,
            "velocity": 0.5039370078740157
          },
          {
            "duration": 0.42342300000001387,
            "durationTicks": 376,
            "midi": 65,
            "name": "F4",
            "ticks": 181680,
            "time": 204.59439,
            "velocity": 0.8818897637795275
          },
          {
            "duration": 0.4200446250000027,
            "durationTicks": 373,
            "midi": 60,
            "name": "C4",
            "ticks": 181680,
            "time": 204.59439,
            "velocity": 0.8818897637795275
          },
          {
            "duration": 0.4155401250000068,
            "durationTicks": 369,
            "midi": 54,
            "name": "F#3",
            "ticks": 181680,
            "time": 204.59439,
            "velocity": 0.6929133858267716
          },
          {
            "duration": 0.07545037500000262,
            "durationTicks": 67,
            "midi": 60,
            "name": "C4",
            "ticks": 188393,
            "time": 212.154067125,
            "velocity": 0.6929133858267716
          },
          {
            "duration": 0.07657650000001581,
            "durationTicks": 68,
            "midi": 62,
            "name": "D4",
            "ticks": 188393,
            "time": 212.154067125,
            "velocity": 0.6929133858267716
          },
          {
            "duration": 0.05743237499999054,
            "durationTicks": 51,
            "midi": 57,
            "name": "A3",
            "ticks": 188394,
            "time": 212.15519325000002,
            "velocity": 0.6929133858267716
          },
          {
            "duration": 0.09009000000000356,
            "durationTicks": 80,
            "midi": 60,
            "name": "C4",
            "ticks": 188759,
            "time": 212.566228875,
            "velocity": 0.7874015748031497
          },
          {
            "duration": 0.06418912500001284,
            "durationTicks": 57,
            "midi": 62,
            "name": "D4",
            "ticks": 188759,
            "time": 212.566228875,
            "velocity": 0.7874015748031497
          },
          {
            "duration": 0.06981974999999352,
            "durationTicks": 62,
            "midi": 55,
            "name": "G3",
            "ticks": 188761,
            "time": 212.56848112500003,
            "velocity": 0.6929133858267716
          },
          {
            "duration": 0.06418912500001284,
            "durationTicks": 57,
            "midi": 63,
            "name": "D#4",
            "ticks": 189353,
            "time": 213.235147125,
            "velocity": 0.6929133858267716
          },
          {
            "duration": 0.04279274999998961,
            "durationTicks": 38,
            "midi": 60,
            "name": "C4",
            "ticks": 189354,
            "time": 213.23627325,
            "velocity": 0.6929133858267716
          },
          {
            "duration": 0.03490987500001097,
            "durationTicks": 31,
            "midi": 54,
            "name": "F#3",
            "ticks": 189355,
            "time": 213.237399375,
            "velocity": 0.4566929133858268
          },
          {
            "duration": 0.29391862500003185,
            "durationTicks": 261,
            "midi": 54,
            "name": "F#3",
            "ticks": 189717,
            "time": 213.645056625,
            "velocity": 0.6929133858267716
          },
          {
            "duration": 0.2961708750000014,
            "durationTicks": 263,
            "midi": 60,
            "name": "C4",
            "ticks": 189718,
            "time": 213.64618275,
            "velocity": 0.7874015748031497
          },
          {
            "duration": 0.30292762499999526,
            "durationTicks": 269,
            "midi": 62,
            "name": "D4",
            "ticks": 189718,
            "time": 213.64618275,
            "velocity": 0.7874015748031497
          },
          {
            "duration": 0.15202687499999,
            "durationTicks": 135,
            "midi": 60,
            "name": "C4",
            "ticks": 196072,
            "time": 220.80158100000003,
            "velocity": 0.7559055118110236
          },
          {
            "duration": 0.12274762499998815,
            "durationTicks": 109,
            "midi": 62,
            "name": "D4",
            "ticks": 196074,
            "time": 220.80383325000003,
            "velocity": 0.7322834645669292
          },
          {
            "duration": 0.11486474999998109,
            "durationTicks": 102,
            "midi": 60,
            "name": "C4",
            "ticks": 196475,
            "time": 221.25540937500003,
            "velocity": 0.7716535433070866
          },
          {
            "duration": 0.0596846249999885,
            "durationTicks": 53,
            "midi": 62,
            "name": "D4",
            "ticks": 196476,
            "time": 221.2565355,
            "velocity": 0.7480314960629921
          },
          {
            "duration": 0.9695936250000443,
            "durationTicks": 861,
            "midi": 65,
            "name": "F4",
            "ticks": 196799,
            "time": 221.62027387499998,
            "velocity": 0.7165354330708661
          },
          {
            "duration": 0.9448188750000099,
            "durationTicks": 839,
            "midi": 60,
            "name": "C4",
            "ticks": 196800,
            "time": 221.6214,
            "velocity": 0.6850393700787402
          },
          {
            "duration": 0.9358098750000181,
            "durationTicks": 831,
            "midi": 54,
            "name": "F#3",
            "ticks": 196802,
            "time": 221.62365225,
            "velocity": 0.7322834645669292
          },
          {
            "duration": 0.13851337500000227,
            "durationTicks": 123,
            "midi": 60,
            "name": "C4",
            "ticks": 201617,
            "time": 227.045944125,
            "velocity": 0.8031496062992126
          },
          {
            "duration": 0.1249998749999861,
            "durationTicks": 111,
            "midi": 62,
            "name": "D4",
            "ticks": 201619,
            "time": 227.048196375,
            "velocity": 0.8031496062992126
          },
          {
            "duration": 0.18243224999997665,
            "durationTicks": 162,
            "midi": 60,
            "name": "C4",
            "ticks": 201868,
            "time": 227.32860150000002,
            "velocity": 0.7401574803149606
          },
          {
            "duration": 0.13513499999999112,
            "durationTicks": 120,
            "midi": 62,
            "name": "D4",
            "ticks": 201871,
            "time": 227.33197987500003,
            "velocity": 0.7322834645669292
          },
          {
            "duration": 0.3074321249999912,
            "durationTicks": 273,
            "midi": 62,
            "name": "D4",
            "ticks": 202573,
            "time": 228.12251962500002,
            "velocity": 0.7716535433070866
          },
          {
            "duration": 0.3108104999999739,
            "durationTicks": 276,
            "midi": 60,
            "name": "C4",
            "ticks": 202575,
            "time": 228.12477187500002,
            "velocity": 0.7322834645669292
          },
          {
            "duration": 0.30855824999997594,
            "durationTicks": 274,
            "midi": 54,
            "name": "F#3",
            "ticks": 202576,
            "time": 228.12589800000003,
            "velocity": 0.7795275590551181
          },
          {
            "duration": 1.0855845000000102,
            "durationTicks": 964,
            "midi": 62,
            "name": "D4",
            "ticks": 203427,
            "time": 229.084230375,
            "velocity": 0.8740157480314961
          },
          {
            "duration": 1.0855845000000102,
            "durationTicks": 964,
            "midi": 58,
            "name": "A#3",
            "ticks": 203429,
            "time": 229.086482625,
            "velocity": 0.7874015748031497
          },
          {
            "duration": 1.0078818749999812,
            "durationTicks": 895,
            "midi": 53,
            "name": "F3",
            "ticks": 203441,
            "time": 229.09999612500002,
            "velocity": 0.6377952755905512
          },
          {
            "duration": 1.0664403750000133,
            "durationTicks": 947,
            "midi": 55,
            "name": "G3",
            "ticks": 204509,
            "time": 230.302697625,
            "velocity": 0.5511811023622047
          },
          {
            "duration": 1.0720709999999656,
            "durationTicks": 952,
            "midi": 60,
            "name": "C4",
            "ticks": 204511,
            "time": 230.30494987500003,
            "velocity": 0.7401574803149606
          },
          {
            "duration": 1.061935874999989,
            "durationTicks": 943,
            "midi": 64,
            "name": "E4",
            "ticks": 204512,
            "time": 230.30607600000002,
            "velocity": 0.8031496062992126
          },
          {
            "duration": 0.03716212500000893,
            "durationTicks": 33,
            "midi": 62,
            "name": "D4",
            "ticks": 205587,
            "time": 231.516660375,
            "velocity": 0.7480314960629921
          },
          {
            "duration": 0.04054049999999165,
            "durationTicks": 36,
            "midi": 58,
            "name": "A#3",
            "ticks": 205588,
            "time": 231.5177865,
            "velocity": 0.6929133858267716
          },
          {
            "duration": 0.04054049999999165,
            "durationTicks": 36,
            "midi": 53,
            "name": "F3",
            "ticks": 205594,
            "time": 231.52454325,
            "velocity": 0.6614173228346457
          },
          {
            "duration": 0.32770237500002963,
            "durationTicks": 291,
            "midi": 60,
            "name": "C4",
            "ticks": 205949,
            "time": 231.924317625,
            "velocity": 0.7086614173228346
          },
          {
            "duration": 0.3277023750000012,
            "durationTicks": 291,
            "midi": 64,
            "name": "E4",
            "ticks": 205951,
            "time": 231.926569875,
            "velocity": 0.7716535433070866
          },
          {
            "duration": 0.34797262500001125,
            "durationTicks": 309,
            "midi": 55,
            "name": "G3",
            "ticks": 205957,
            "time": 231.933326625,
            "velocity": 0.7007874015748031
          },
          {
            "duration": 0.17680162499999597,
            "durationTicks": 157,
            "midi": 58,
            "name": "A#3",
            "ticks": 206302,
            "time": 232.32183975,
            "velocity": 0.6850393700787402
          },
          {
            "duration": 0.16328812500003664,
            "durationTicks": 145,
            "midi": 62,
            "name": "D4",
            "ticks": 206305,
            "time": 232.325218125,
            "velocity": 0.8188976377952756
          },
          {
            "duration": 0.13963950000001546,
            "durationTicks": 124,
            "midi": 53,
            "name": "F3",
            "ticks": 206310,
            "time": 232.33084875,
            "velocity": 0.7007874015748031
          },
          {
            "duration": 0.3175672500000246,
            "durationTicks": 282,
            "midi": 58,
            "name": "A#3",
            "ticks": 207518,
            "time": 233.69120775,
            "velocity": 0.7401574803149606
          },
          {
            "duration": 0.30292762499999526,
            "durationTicks": 269,
            "midi": 63,
            "name": "D#4",
            "ticks": 207528,
            "time": 233.702469,
            "velocity": 0.6456692913385826
          },
          {
            "duration": 0.24999975000000063,
            "durationTicks": 222,
            "midi": 63,
            "name": "D#4",
            "ticks": 207840,
            "time": 234.05382,
            "velocity": 0.6141732283464567
          },
          {
            "duration": 0.2398646249999956,
            "durationTicks": 213,
            "midi": 58,
            "name": "A#3",
            "ticks": 207843,
            "time": 234.057198375,
            "velocity": 0.7480314960629921
          },
          {
            "duration": 0.2060808749999694,
            "durationTicks": 183,
            "midi": 58,
            "name": "A#3",
            "ticks": 208327,
            "time": 234.60224287500003,
            "velocity": 0.7480314960629921
          },
          {
            "duration": 0.18918899999999894,
            "durationTicks": 168,
            "midi": 63,
            "name": "D#4",
            "ticks": 208337,
            "time": 234.61350412500002,
            "velocity": 0.6535433070866141
          },
          {
            "duration": 0.08896387499999037,
            "durationTicks": 79,
            "midi": 58,
            "name": "A#3",
            "ticks": 208553,
            "time": 234.856747125,
            "velocity": 0.7244094488188977
          },
          {
            "duration": 0.05855849999997531,
            "durationTicks": 52,
            "midi": 63,
            "name": "D#4",
            "ticks": 208563,
            "time": 234.86800837500002,
            "velocity": 0.31496062992125984
          },
          {
            "duration": 0.6644137500000227,
            "durationTicks": 590,
            "midi": 63,
            "name": "D#4",
            "ticks": 208701,
            "time": 235.023413625,
            "velocity": 0.7716535433070866
          },
          {
            "duration": 0.6891884999999718,
            "durationTicks": 612,
            "midi": 57,
            "name": "A3",
            "ticks": 208704,
            "time": 235.02679200000003,
            "velocity": 0.6614173228346457
          },
          {
            "duration": 0.2522519999999986,
            "durationTicks": 224,
            "midi": 65,
            "name": "F4",
            "ticks": 209458,
            "time": 235.87589025,
            "velocity": 0.7480314960629921
          },
          {
            "duration": 0.2522519999999986,
            "durationTicks": 224,
            "midi": 62,
            "name": "D4",
            "ticks": 209458,
            "time": 235.87589025,
            "velocity": 0.7086614173228346
          },
          {
            "duration": 0.46734187499998825,
            "durationTicks": 415,
            "midi": 65,
            "name": "F4",
            "ticks": 209777,
            "time": 236.235124125,
            "velocity": 0.7480314960629921
          },
          {
            "duration": 0.4436932500000239,
            "durationTicks": 394,
            "midi": 61,
            "name": "C#4",
            "ticks": 209787,
            "time": 236.246385375,
            "velocity": 0.7480314960629921
          },
          {
            "duration": 0.32545012499997483,
            "durationTicks": 289,
            "midi": 65,
            "name": "F4",
            "ticks": 210261,
            "time": 236.78016862500002,
            "velocity": 0.7480314960629921
          },
          {
            "duration": 0.3277023749999728,
            "durationTicks": 291,
            "midi": 60,
            "name": "C4",
            "ticks": 210261,
            "time": 236.78016862500002,
            "velocity": 0.7637795275590551
          },
          {
            "duration": 0.6700443749999749,
            "durationTicks": 595,
            "midi": 53,
            "name": "F3",
            "ticks": 210648,
            "time": 237.21597900000003,
            "velocity": 0.7086614173228346
          },
          {
            "duration": 0.6565308749999872,
            "durationTicks": 583,
            "midi": 59,
            "name": "B3",
            "ticks": 210658,
            "time": 237.22724025000002,
            "velocity": 0.7244094488188977
          },
          {
            "duration": 0.1249998749999861,
            "durationTicks": 111,
            "midi": 70,
            "name": "A#4",
            "ticks": 211200,
            "time": 237.8376,
            "velocity": 0.8346456692913385
          },
          {
            "duration": 0.13175662499997998,
            "durationTicks": 117,
            "midi": 67,
            "name": "G4",
            "ticks": 211200,
            "time": 237.8376,
            "velocity": 0.7244094488188977
          },
          {
            "duration": 0.15653137499998593,
            "durationTicks": 139,
            "midi": 63,
            "name": "D#4",
            "ticks": 211200,
            "time": 237.8376,
            "velocity": 0.6850393700787402
          },
          {
            "duration": 0.0653152499999976,
            "durationTicks": 58,
            "midi": 60,
            "name": "C4",
            "ticks": 211200,
            "time": 237.8376,
            "velocity": 0.4251968503937008
          },
          {
            "duration": 0.14527012500002456,
            "durationTicks": 129,
            "midi": 70,
            "name": "A#4",
            "ticks": 211680,
            "time": 238.37814,
            "velocity": 0.8267716535433071
          },
          {
            "duration": 0.1328827500000216,
            "durationTicks": 118,
            "midi": 67,
            "name": "G4",
            "ticks": 211680,
            "time": 238.37814,
            "velocity": 0.6614173228346457
          },
          {
            "duration": 0.1644142500000214,
            "durationTicks": 146,
            "midi": 63,
            "name": "D#4",
            "ticks": 211680,
            "time": 238.37814,
            "velocity": 0.6614173228346457
          },
          {
            "duration": 0.0653152499999976,
            "durationTicks": 58,
            "midi": 60,
            "name": "C4",
            "ticks": 211680,
            "time": 238.37814,
            "velocity": 0.36220472440944884
          },
          {
            "duration": 0.08896387500001879,
            "durationTicks": 79,
            "midi": 70,
            "name": "A#4",
            "ticks": 212160,
            "time": 238.91868,
            "velocity": 0.84251968503937
          },
          {
            "duration": 0.1159908750000227,
            "durationTicks": 103,
            "midi": 67,
            "name": "G4",
            "ticks": 212160,
            "time": 238.91868,
            "velocity": 0.7244094488188977
          },
          {
            "duration": 0.11373862500002474,
            "durationTicks": 101,
            "midi": 63,
            "name": "D#4",
            "ticks": 212160,
            "time": 238.91868,
            "velocity": 0.6850393700787402
          },
          {
            "duration": 0.11373862500002474,
            "durationTicks": 101,
            "midi": 60,
            "name": "C4",
            "ticks": 212160,
            "time": 238.91868,
            "velocity": 0.6850393700787402
          },
          {
            "duration": 0.35360324999999193,
            "durationTicks": 314,
            "midi": 60,
            "name": "C4",
            "ticks": 212640,
            "time": 239.45922000000002,
            "velocity": 0.7007874015748031
          },
          {
            "duration": 0.3828824999999938,
            "durationTicks": 340,
            "midi": 66,
            "name": "F#4",
            "ticks": 212640,
            "time": 239.45922000000002,
            "velocity": 0.7637795275590551
          },
          {
            "duration": 0.3333330000000103,
            "durationTicks": 296,
            "midi": 62,
            "name": "D4",
            "ticks": 212640,
            "time": 239.45922000000002,
            "velocity": 0.6535433070866141
          },
          {
            "duration": 0.35360324999999193,
            "durationTicks": 314,
            "midi": 57,
            "name": "A3",
            "ticks": 212640,
            "time": 239.45922000000002,
            "velocity": 0.7007874015748031
          },
          {
            "duration": 1.279278000000005,
            "durationTicks": 1136,
            "midi": 65,
            "name": "F4",
            "ticks": 213024,
            "time": 239.89165200000002,
            "velocity": 0.7874015748031497
          },
          {
            "duration": 1.3119356249999896,
            "durationTicks": 1165,
            "midi": 62,
            "name": "D4",
            "ticks": 213034,
            "time": 239.90291325,
            "velocity": 0.7086614173228346
          },
          {
            "duration": 1.263512249999991,
            "durationTicks": 1122,
            "midi": 58,
            "name": "A#3",
            "ticks": 213037,
            "time": 239.90629162500002,
            "velocity": 0.7480314960629921
          },
          {
            "duration": 0.4718463750000126,
            "durationTicks": 419,
            "midi": 58,
            "name": "A#3",
            "ticks": 214354,
            "time": 241.38939825,
            "velocity": 0.47244094488188976
          },
          {
            "duration": 0.4921166249999942,
            "durationTicks": 437,
            "midi": 62,
            "name": "D4",
            "ticks": 214356,
            "time": 241.3916505,
            "velocity": 0.7874015748031497
          },
          {
            "duration": 0.4583328749999964,
            "durationTicks": 407,
            "midi": 65,
            "name": "F4",
            "ticks": 214360,
            "time": 241.396155,
            "velocity": 0.7874015748031497
          },
          {
            "duration": 0.5529273749999959,
            "durationTicks": 491,
            "midi": 65,
            "name": "F4",
            "ticks": 214864,
            "time": 241.96372200000002,
            "velocity": 0.8818897637795275
          },
          {
            "duration": 0.5799543749999714,
            "durationTicks": 515,
            "midi": 58,
            "name": "A#3",
            "ticks": 214867,
            "time": 241.96710037500003,
            "velocity": 0.6929133858267716
          },
          {
            "duration": 0.5822066249999978,
            "durationTicks": 517,
            "midi": 62,
            "name": "D4",
            "ticks": 214869,
            "time": 241.96935262500003,
            "velocity": 0.8818897637795275
          },
          {
            "duration": 4.903148250000044,
            "durationTicks": 4354,
            "midi": 58,
            "name": "A#3",
            "ticks": 215549,
            "time": 242.735117625,
            "velocity": 0.7874015748031497
          },
          {
            "duration": 4.907652750000011,
            "durationTicks": 4358,
            "midi": 62,
            "name": "D4",
            "ticks": 215551,
            "time": 242.737369875,
            "velocity": 0.8818897637795275
          },
          {
            "duration": 4.8997698750000325,
            "durationTicks": 4351,
            "midi": 66,
            "name": "F#4",
            "ticks": 215556,
            "time": 242.7430005,
            "velocity": 0.7874015748031497
          }
        ],
        "endOfTrackTicks": 224160
      },
      {
        "channel": 0,
        "controlChanges": {
          "0": [
            {
              "number": 0,
              "ticks": 500,
              "time": 0.5630625,
              "value": 0
            },
            {
              "number": 0,
              "ticks": 520,
              "time": 0.585585,
              "value": 0
            }
          ],
          "32": [
            {
              "number": 32,
              "ticks": 510,
              "time": 0.57432375,
              "value": 0
            },
            {
              "number": 32,
              "ticks": 520,
              "time": 0.585585,
              "value": 0
            }
          ]
        },
        "pitchBends": [],
        "instrument": {
          "family": "piano",
          "number": 0,
          "name": "acoustic grand piano"
        },
        "name": "",
        "notes": []
      },
      {
        "channel": 1,
        "controlChanges": {
          "6": [
            {
              "number": 6,
              "ticks": 570,
              "time": 0.64189125,
              "value": 0.09448818897637795
            }
          ],
          "7": [
            {
              "number": 7,
              "ticks": 530,
              "time": 0.59684625,
              "value": 0.5748031496062992
            }
          ],
          "10": [
            {
              "number": 10,
              "ticks": 530,
              "time": 0.59684625,
              "value": 0.5039370078740157
            }
          ],
          "38": [
            {
              "number": 38,
              "ticks": 560,
              "time": 0.63063,
              "value": 0.09448818897637795
            }
          ],
          "91": [
            {
              "number": 91,
              "ticks": 530,
              "time": 0.59684625,
              "value": 0.06299212598425197
            }
          ],
          "93": [
            {
              "number": 93,
              "ticks": 530,
              "time": 0.59684625,
              "value": 0
            }
          ],
          "100": [
            {
              "number": 100,
              "ticks": 550,
              "time": 0.61936875,
              "value": 0
            }
          ],
          "101": [
            {
              "number": 101,
              "ticks": 540,
              "time": 0.6081075,
              "value": 0
            }
          ],
          "126": [
            {
              "number": 126,
              "ticks": 580,
              "time": 0.6531525,
              "value": 0
            }
          ]
        },
        "pitchBends": [],
        "instrument": {
          "family": "bass",
          "number": 32,
          "name": "acoustic bass"
        },
        "name": "",
        "notes": [
          {
            "duration": 0.3063059999999993,
            "durationTicks": 272,
            "midi": 31,
            "name": "G1",
            "ticks": 3830,
            "time": 4.313058750000001,
            "velocity": 0.8267716535433071
          },
          {
            "duration": 0.2927925000000009,
            "durationTicks": 260,
            "midi": 34,
            "name": "A#1",
            "ticks": 4070,
            "time": 4.58332875,
            "velocity": 0.7322834645669292
          },
          {
            "duration": 0.28828799999999966,
            "durationTicks": 256,
            "midi": 36,
            "name": "C2",
            "ticks": 4310,
            "time": 4.85359875,
            "velocity": 0.7322834645669292
          },
          {
            "duration": 0.2713961249999999,
            "durationTicks": 241,
            "midi": 38,
            "name": "D2",
            "ticks": 4550,
            "time": 5.12386875,
            "velocity": 0.7322834645669292
          },
          {
            "duration": 0.28490962500000006,
            "durationTicks": 253,
            "midi": 41,
            "name": "F2",
            "ticks": 4790,
            "time": 5.39413875,
            "velocity": 0.7322834645669292
          },
          {
            "duration": 0.3310807500000008,
            "durationTicks": 294,
            "midi": 46,
            "name": "A#2",
            "ticks": 5030,
            "time": 5.66440875,
            "velocity": 0.7322834645669292
          },
          {
            "duration": 0.3029276250000006,
            "durationTicks": 269,
            "midi": 45,
            "name": "A2",
            "ticks": 5270,
            "time": 5.93467875,
            "velocity": 0.8267716535433071
          },
          {
            "duration": 0.2837835000000002,
            "durationTicks": 252,
            "midi": 41,
            "name": "F2",
            "ticks": 5510,
            "time": 6.20494875,
            "velocity": 0.7322834645669292
          },
          {
            "duration": 0.3378375,
            "durationTicks": 300,
            "midi": 43,
            "name": "G2",
            "ticks": 5750,
            "time": 6.47521875,
            "velocity": 0.7322834645669292
          },
          {
            "duration": 0.2894141250000004,
            "durationTicks": 257,
            "midi": 38,
            "name": "D2",
            "ticks": 5990,
            "time": 6.74548875,
            "velocity": 0.7322834645669292
          },
          {
            "duration": 0.2804051250000006,
            "durationTicks": 249,
            "midi": 34,
            "name": "A#1",
            "ticks": 6230,
            "time": 7.01575875,
            "velocity": 0.7322834645669292
          },
          {
            "duration": 0.2612610000000011,
            "durationTicks": 232,
            "midi": 38,
            "name": "D2",
            "ticks": 6470,
            "time": 7.28602875,
            "velocity": 0.7322834645669292
          },
          {
            "duration": 0.25563037499999997,
            "durationTicks": 227,
            "midi": 31,
            "name": "G1",
            "ticks": 6710,
            "time": 7.55629875,
            "velocity": 0.8267716535433071
          },
          {
            "duration": 0.3186933750000005,
            "durationTicks": 283,
            "midi": 33,
            "name": "A1",
            "ticks": 6950,
            "time": 7.82656875,
            "velocity": 0.7322834645669292
          },
          {
            "duration": 0.2860357499999999,
            "durationTicks": 254,
            "midi": 34,
            "name": "A#1",
            "ticks": 7190,
            "time": 8.09683875,
            "velocity": 0.7322834645669292
          },
          {
            "duration": 0.28828799999999966,
            "durationTicks": 256,
            "midi": 38,
            "name": "D2",
            "ticks": 7430,
            "time": 8.36710875,
            "velocity": 0.8267716535433071
          },
          {
            "duration": 0.24999975000000063,
            "durationTicks": 222,
            "midi": 43,
            "name": "G2",
            "ticks": 7670,
            "time": 8.63737875,
            "velocity": 0.8267716535433071
          },
          {
            "duration": 0.28941412499999863,
            "durationTicks": 257,
            "midi": 55,
            "name": "G3",
            "ticks": 7910,
            "time": 8.907648750000002,
            "velocity": 0.6456692913385826
          },
          {
            "duration": 0.2871618749999989,
            "durationTicks": 255,
            "midi": 53,
            "name": "F3",
            "ticks": 8150,
            "time": 9.177918750000002,
            "velocity": 0.6456692913385826
          },
          {
            "duration": 0.30517987499999855,
            "durationTicks": 271,
            "midi": 50,
            "name": "D3",
            "ticks": 8390,
            "time": 9.448188750000002,
            "velocity": 0.6456692913385826
          },
          {
            "duration": 0.2804051249999979,
            "durationTicks": 249,
            "midi": 46,
            "name": "A#2",
            "ticks": 8630,
            "time": 9.718458750000002,
            "velocity": 0.7322834645669292
          },
          {
            "duration": 0.33671137499999837,
            "durationTicks": 299,
            "midi": 43,
            "name": "G2",
            "ticks": 8870,
            "time": 9.988728750000002,
            "velocity": 0.8267716535433071
          },
          {
            "duration": 0.2612609999999975,
            "durationTicks": 232,
            "midi": 41,
            "name": "F2",
            "ticks": 9110,
            "time": 10.258998750000002,
            "velocity": 0.7322834645669292
          },
          {
            "duration": 0.2882879999999979,
            "durationTicks": 256,
            "midi": 38,
            "name": "D2",
            "ticks": 9350,
            "time": 10.529268750000002,
            "velocity": 0.8267716535433071
          },
          {
            "duration": 0.2770267499999992,
            "durationTicks": 246,
            "midi": 43,
            "name": "G2",
            "ticks": 9590,
            "time": 10.799538750000002,
            "velocity": 0.8267716535433071
          },
          {
            "duration": 0.30180149999999983,
            "durationTicks": 268,
            "midi": 46,
            "name": "A#2",
            "ticks": 9830,
            "time": 11.069808750000002,
            "velocity": 0.7322834645669292
          },
          {
            "duration": 0.2747744999999995,
            "durationTicks": 244,
            "midi": 45,
            "name": "A2",
            "ticks": 10070,
            "time": 11.340078750000002,
            "velocity": 0.8267716535433071
          },
          {
            "duration": 0.29166637499999837,
            "durationTicks": 259,
            "midi": 41,
            "name": "F2",
            "ticks": 10310,
            "time": 11.610348750000002,
            "velocity": 0.7322834645669292
          },
          {
            "duration": 0.2972969999999986,
            "durationTicks": 264,
            "midi": 43,
            "name": "G2",
            "ticks": 10550,
            "time": 11.880618750000002,
            "velocity": 0.8267716535433071
          },
          {
            "duration": 0.27590062499999846,
            "durationTicks": 245,
            "midi": 38,
            "name": "D2",
            "ticks": 10790,
            "time": 12.150888750000002,
            "velocity": 0.8267716535433071
          },
          {
            "duration": 0.26689162499999775,
            "durationTicks": 237,
            "midi": 34,
            "name": "A#1",
            "ticks": 11030,
            "time": 12.421158750000002,
            "velocity": 0.8267716535433071
          },
          {
            "duration": 0.14639624999999867,
            "durationTicks": 130,
            "midi": 38,
            "name": "D2",
            "ticks": 11270,
            "time": 12.691428750000002,
            "velocity": 0.8267716535433071
          },
          {
            "duration": 0.09009000000000178,
            "durationTicks": 80,
            "midi": 25,
            "name": "C#1",
            "ticks": 11410,
            "time": 12.84908625,
            "velocity": 0.984251968503937
          },
          {
            "duration": 0.09009000000000178,
            "durationTicks": 80,
            "midi": 25,
            "name": "C#1",
            "ticks": 11410,
            "time": 12.84908625,
            "velocity": 0.984251968503937
          },
          {
            "duration": 0.29842312499999935,
            "durationTicks": 265,
            "midi": 31,
            "name": "G1",
            "ticks": 11495,
            "time": 12.944806875000001,
            "velocity": 0.8267716535433071
          },
          {
            "duration": 0.29166637499999837,
            "durationTicks": 259,
            "midi": 33,
            "name": "A1",
            "ticks": 11750,
            "time": 13.231968750000002,
            "velocity": 0.8267716535433071
          },
          {
            "duration": 0.28941412499999863,
            "durationTicks": 257,
            "midi": 34,
            "name": "A#1",
            "ticks": 11990,
            "time": 13.502238750000002,
            "velocity": 0.7322834645669292
          },
          {
            "duration": 0.24774749999999912,
            "durationTicks": 220,
            "midi": 38,
            "name": "D2",
            "ticks": 12230,
            "time": 13.772508750000002,
            "velocity": 0.8267716535433071
          },
          {
            "duration": 0.2905402499999976,
            "durationTicks": 258,
            "midi": 41,
            "name": "F2",
            "ticks": 12470,
            "time": 14.042778750000002,
            "velocity": 0.7322834645669292
          },
          {
            "duration": 0.2972969999999986,
            "durationTicks": 264,
            "midi": 43,
            "name": "G2",
            "ticks": 12710,
            "time": 14.313048750000002,
            "velocity": 0.8267716535433071
          },
          {
            "duration": 0.2905402499999976,
            "durationTicks": 258,
            "midi": 45,
            "name": "A2",
            "ticks": 12950,
            "time": 14.583318750000002,
            "velocity": 0.8267716535433071
          },
          {
            "duration": 0.3457203749999973,
            "durationTicks": 307,
            "midi": 46,
            "name": "A#2",
            "ticks": 13190,
            "time": 14.853588750000002,
            "velocity": 0.6377952755905512
          },
          {
            "duration": 0.32995462499999917,
            "durationTicks": 293,
            "midi": 45,
            "name": "A2",
            "ticks": 13430,
            "time": 15.123858750000002,
            "velocity": 0.8267716535433071
          },
          {
            "duration": 0.2972969999999986,
            "durationTicks": 264,
            "midi": 43,
            "name": "G2",
            "ticks": 13670,
            "time": 15.394128750000002,
            "velocity": 0.8267716535433071
          },
          {
            "duration": 0.2972969999999986,
            "durationTicks": 264,
            "midi": 41,
            "name": "F2",
            "ticks": 13910,
            "time": 15.664398750000002,
            "velocity": 0.6377952755905512
          },
          {
            "duration": 0.3254501249999979,
            "durationTicks": 289,
            "midi": 43,
            "name": "G2",
            "ticks": 14150,
            "time": 15.934668750000002,
            "velocity": 0.8267716535433071
          },
          {
            "duration": 0.24774749999999912,
            "durationTicks": 220,
            "midi": 38,
            "name": "D2",
            "ticks": 14390,
            "time": 16.20493875,
            "velocity": 0.7322834645669292
          },
          {
            "duration": 0.2961708750000014,
            "durationTicks": 263,
            "midi": 34,
            "name": "A#1",
            "ticks": 14630,
            "time": 16.47520875,
            "velocity": 0.8267716535433071
          },
          {
            "duration": 0.27590062499999846,
            "durationTicks": 245,
            "midi": 33,
            "name": "A1",
            "ticks": 14870,
            "time": 16.74547875,
            "velocity": 0.7322834645669292
          },
          {
            "duration": 0.14639625000000223,
            "durationTicks": 130,
            "midi": 38,
            "name": "D2",
            "ticks": 15110,
            "time": 17.01574875,
            "velocity": 0.8267716535433071
          },
          {
            "duration": 0.09009,
            "durationTicks": 80,
            "midi": 25,
            "name": "C#1",
            "ticks": 15250,
            "time": 17.17340625,
            "velocity": 0.984251968503937
          },
          {
            "duration": 0.28490962500000094,
            "durationTicks": 253,
            "midi": 31,
            "name": "G1",
            "ticks": 15335,
            "time": 17.269126875,
            "velocity": 0.9291338582677166
          },
          {
            "duration": 0.29504474999999886,
            "durationTicks": 262,
            "midi": 33,
            "name": "A1",
            "ticks": 15590,
            "time": 17.55628875,
            "velocity": 0.8267716535433071
          },
          {
            "duration": 0.3153150000000018,
            "durationTicks": 280,
            "midi": 34,
            "name": "A#1",
            "ticks": 15830,
            "time": 17.82655875,
            "velocity": 0.7322834645669292
          },
          {
            "duration": 0.2319817499999992,
            "durationTicks": 206,
            "midi": 38,
            "name": "D2",
            "ticks": 16070,
            "time": 18.09682875,
            "velocity": 0.8267716535433071
          },
          {
            "duration": 0.3029276249999988,
            "durationTicks": 269,
            "midi": 43,
            "name": "G2",
            "ticks": 16310,
            "time": 18.36709875,
            "velocity": 0.8267716535433071
          },
          {
            "duration": 0.3277023750000012,
            "durationTicks": 291,
            "midi": 46,
            "name": "A#2",
            "ticks": 16550,
            "time": 18.63736875,
            "velocity": 0.6377952755905512
          },
          {
            "duration": 0.32319787500000174,
            "durationTicks": 287,
            "midi": 45,
            "name": "A2",
            "ticks": 16790,
            "time": 18.90763875,
            "velocity": 0.7322834645669292
          },
          {
            "duration": 0.23423400000000072,
            "durationTicks": 208,
            "midi": 41,
            "name": "F2",
            "ticks": 17030,
            "time": 19.17790875,
            "velocity": 0.7322834645669292
          },
          {
            "duration": 0.2995492499999983,
            "durationTicks": 266,
            "midi": 43,
            "name": "G2",
            "ticks": 17270,
            "time": 19.44817875,
            "velocity": 0.8267716535433071
          },
          {
            "duration": 0.2635132500000026,
            "durationTicks": 234,
            "midi": 38,
            "name": "D2",
            "ticks": 17510,
            "time": 19.71844875,
            "velocity": 0.8267716535433071
          },
          {
            "duration": 0.2995492499999983,
            "durationTicks": 266,
            "midi": 34,
            "name": "A#1",
            "ticks": 17750,
            "time": 19.98871875,
            "velocity": 0.7322834645669292
          },
          {
            "duration": 0.14639625000000223,
            "durationTicks": 130,
            "midi": 38,
            "name": "D2",
            "ticks": 17990,
            "time": 20.25898875,
            "velocity": 0.8267716535433071
          },
          {
            "duration": 0.09008999999999645,
            "durationTicks": 80,
            "midi": 25,
            "name": "C#1",
            "ticks": 18130,
            "time": 20.416646250000003,
            "velocity": 0.984251968503937
          },
          {
            "duration": 0.288288000000005,
            "durationTicks": 256,
            "midi": 31,
            "name": "G1",
            "ticks": 18215,
            "time": 20.512366874999998,
            "velocity": 0.8267716535433071
          },
          {
            "duration": 0.30067537500000086,
            "durationTicks": 267,
            "midi": 33,
            "name": "A1",
            "ticks": 18470,
            "time": 20.79952875,
            "velocity": 0.7322834645669292
          },
          {
            "duration": 0.2927925000000009,
            "durationTicks": 260,
            "midi": 34,
            "name": "A#1",
            "ticks": 18710,
            "time": 21.06979875,
            "velocity": 0.7322834645669292
          },
          {
            "duration": 0.24324299999999965,
            "durationTicks": 216,
            "midi": 38,
            "name": "D2",
            "ticks": 18950,
            "time": 21.34006875,
            "velocity": 0.8267716535433071
          },
          {
            "duration": 0.30405375000000134,
            "durationTicks": 270,
            "midi": 36,
            "name": "C2",
            "ticks": 19320,
            "time": 21.756735,
            "velocity": 0.8818897637795275
          },
          {
            "duration": 0.2871618749999989,
            "durationTicks": 255,
            "midi": 36,
            "name": "C2",
            "ticks": 19680,
            "time": 22.16214,
            "velocity": 0.8818897637795275
          },
          {
            "duration": 0.21396375000000134,
            "durationTicks": 190,
            "midi": 31,
            "name": "G1",
            "ticks": 19920,
            "time": 22.43241,
            "velocity": 0.6929133858267716
          },
          {
            "duration": 0.20720700000000036,
            "durationTicks": 184,
            "midi": 36,
            "name": "C2",
            "ticks": 20160,
            "time": 22.70268,
            "velocity": 0.8818897637795275
          },
          {
            "duration": 0.12950437499999978,
            "durationTicks": 115,
            "midi": 36,
            "name": "C2",
            "ticks": 20400,
            "time": 22.97295,
            "velocity": 0.6929133858267716
          },
          {
            "duration": 0.6846839999999972,
            "durationTicks": 608,
            "midi": 41,
            "name": "F2",
            "ticks": 20520,
            "time": 23.108085000000003,
            "velocity": 0.7874015748031497
          },
          {
            "duration": 0.3096843749999998,
            "durationTicks": 275,
            "midi": 46,
            "name": "A#2",
            "ticks": 21240,
            "time": 23.918895,
            "velocity": 0.8818897637795275
          },
          {
            "duration": 0.23648624999999868,
            "durationTicks": 210,
            "midi": 39,
            "name": "D#2",
            "ticks": 21600,
            "time": 24.3243,
            "velocity": 0.7874015748031497
          },
          {
            "duration": 0.19144125000000045,
            "durationTicks": 170,
            "midi": 39,
            "name": "D#2",
            "ticks": 21840,
            "time": 24.59457,
            "velocity": 0.6929133858267716
          },
          {
            "duration": 0.2545042500000001,
            "durationTicks": 226,
            "midi": 38,
            "name": "D2",
            "ticks": 22080,
            "time": 24.86484,
            "velocity": 0.8818897637795275
          },
          {
            "duration": 0.06981975000000062,
            "durationTicks": 62,
            "midi": 38,
            "name": "D2",
            "ticks": 22320,
            "time": 25.13511,
            "velocity": 0.6929133858267716
          },
          {
            "duration": 0.5551796249999974,
            "durationTicks": 493,
            "midi": 37,
            "name": "C#2",
            "ticks": 22440,
            "time": 25.270245000000003,
            "velocity": 0.8818897637795275
          },
          {
            "duration": 0.1069818749999989,
            "durationTicks": 95,
            "midi": 41,
            "name": "F2",
            "ticks": 23040,
            "time": 25.94592,
            "velocity": 0.6062992125984252
          },
          {
            "duration": 0.15427912500000218,
            "durationTicks": 137,
            "midi": 41,
            "name": "F2",
            "ticks": 23280,
            "time": 26.21619,
            "velocity": 0.7874015748031497
          },
          {
            "duration": 0.1779277499999985,
            "durationTicks": 158,
            "midi": 41,
            "name": "F2",
            "ticks": 23520,
            "time": 26.48646,
            "velocity": 0.6062992125984252
          },
          {
            "duration": 0.15202687500000067,
            "durationTicks": 135,
            "midi": 41,
            "name": "F2",
            "ticks": 23760,
            "time": 26.75673,
            "velocity": 0.7874015748031497
          },
          {
            "duration": 0.14189175000000276,
            "durationTicks": 126,
            "midi": 41,
            "name": "F2",
            "ticks": 24000,
            "time": 27.027,
            "velocity": 0.6929133858267716
          },
          {
            "duration": 0.18018,
            "durationTicks": 160,
            "midi": 41,
            "name": "F2",
            "ticks": 24240,
            "time": 27.29727,
            "velocity": 0.8818897637795275
          },
          {
            "duration": 0.16554037499999907,
            "durationTicks": 147,
            "midi": 38,
            "name": "D2",
            "ticks": 24480,
            "time": 27.56754,
            "velocity": 0.8818897637795275
          },
          {
            "duration": 0.09684675000000098,
            "durationTicks": 86,
            "midi": 38,
            "name": "D2",
            "ticks": 24720,
            "time": 27.83781,
            "velocity": 0.8818897637795275
          },
          {
            "duration": 0.715089374999998,
            "durationTicks": 635,
            "midi": 43,
            "name": "G2",
            "ticks": 24840,
            "time": 27.972945000000003,
            "velocity": 0.8818897637795275
          },
          {
            "duration": 0.1509007500000017,
            "durationTicks": 134,
            "midi": 44,
            "name": "G#2",
            "ticks": 25560,
            "time": 28.783755,
            "velocity": 0.8818897637795275
          },
          {
            "duration": 0.11824312499999934,
            "durationTicks": 105,
            "midi": 43,
            "name": "G2",
            "ticks": 25800,
            "time": 29.054025000000003,
            "velocity": 0.8818897637795275
          },
          {
            "duration": 0.16216199999999859,
            "durationTicks": 144,
            "midi": 43,
            "name": "G2",
            "ticks": 26040,
            "time": 29.324295,
            "velocity": 0.7874015748031497
          },
          {
            "duration": 0.08108099999999752,
            "durationTicks": 72,
            "midi": 41,
            "name": "F2",
            "ticks": 26160,
            "time": 29.45943,
            "velocity": 0.7874015748031497
          },
          {
            "duration": 0.12950437499999978,
            "durationTicks": 115,
            "midi": 39,
            "name": "D#2",
            "ticks": 26400,
            "time": 29.7297,
            "velocity": 0.7874015748031497
          },
          {
            "duration": 0.1340088750000028,
            "durationTicks": 119,
            "midi": 38,
            "name": "D2",
            "ticks": 26640,
            "time": 29.99997,
            "velocity": 0.8818897637795275
          },
          {
            "duration": 0.2894141250000004,
            "durationTicks": 257,
            "midi": 36,
            "name": "C2",
            "ticks": 26870,
            "time": 30.25897875,
            "velocity": 0.7874015748031497
          },
          {
            "duration": 0.29617087499999784,
            "durationTicks": 263,
            "midi": 38,
            "name": "D2",
            "ticks": 27110,
            "time": 30.52924875,
            "velocity": 0.8818897637795275
          },
          {
            "duration": 0.28153125000000045,
            "durationTicks": 250,
            "midi": 39,
            "name": "D#2",
            "ticks": 27350,
            "time": 30.79951875,
            "velocity": 0.6929133858267716
          },
          {
            "duration": 0.27027,
            "durationTicks": 240,
            "midi": 43,
            "name": "G2",
            "ticks": 27590,
            "time": 31.06978875,
            "velocity": 0.7874015748031497
          },
          {
            "duration": 0.32094562500000023,
            "durationTicks": 285,
            "midi": 46,
            "name": "A#2",
            "ticks": 27830,
            "time": 31.34005875,
            "velocity": 0.6929133858267716
          },
          {
            "duration": 0.30180149999999983,
            "durationTicks": 268,
            "midi": 43,
            "name": "G2",
            "ticks": 28070,
            "time": 31.61032875,
            "velocity": 0.7874015748031497
          },
          {
            "duration": 0.3051798750000039,
            "durationTicks": 271,
            "midi": 39,
            "name": "D#2",
            "ticks": 28310,
            "time": 31.88059875,
            "velocity": 0.6929133858267716
          },
          {
            "duration": 0.3175672500000033,
            "durationTicks": 282,
            "midi": 46,
            "name": "A#2",
            "ticks": 28550,
            "time": 32.15086875,
            "velocity": 0.6929133858267716
          },
          {
            "duration": 0.24774750000000267,
            "durationTicks": 220,
            "midi": 45,
            "name": "A2",
            "ticks": 28790,
            "time": 32.42113875,
            "velocity": 0.8818897637795275
          },
          {
            "duration": 0.24436912499999863,
            "durationTicks": 217,
            "midi": 45,
            "name": "A2",
            "ticks": 29030,
            "time": 32.69140875,
            "velocity": 0.6929133858267716
          },
          {
            "duration": 0.28265737499999943,
            "durationTicks": 251,
            "midi": 36,
            "name": "C2",
            "ticks": 29270,
            "time": 32.96167875,
            "velocity": 0.6929133858267716
          },
          {
            "duration": 0.2736483750000005,
            "durationTicks": 243,
            "midi": 39,
            "name": "D#2",
            "ticks": 29510,
            "time": 33.23194875,
            "velocity": 0.6929133858267716
          },
          {
            "duration": 0.28828800000000854,
            "durationTicks": 256,
            "midi": 38,
            "name": "D2",
            "ticks": 29750,
            "time": 33.50221875,
            "velocity": 0.7874015748031497
          },
          {
            "duration": 0.24324299999999965,
            "durationTicks": 216,
            "midi": 42,
            "name": "F#2",
            "ticks": 29990,
            "time": 33.77248875,
            "velocity": 0.7874015748031497
          },
          {
            "duration": 0.3074321250000054,
            "durationTicks": 273,
            "midi": 45,
            "name": "A2",
            "ticks": 30230,
            "time": 34.04275875,
            "velocity": 0.7874015748031497
          },
          {
            "duration": 0.3130627500000003,
            "durationTicks": 278,
            "midi": 38,
            "name": "D2",
            "ticks": 30470,
            "time": 34.31302875,
            "velocity": 0.7874015748031497
          },
          {
            "duration": 0.2961708750000085,
            "durationTicks": 263,
            "midi": 31,
            "name": "G1",
            "ticks": 30710,
            "time": 34.58329875,
            "velocity": 0.8818897637795275
          },
          {
            "duration": 0.3063059999999993,
            "durationTicks": 272,
            "midi": 33,
            "name": "A1",
            "ticks": 30950,
            "time": 34.85356875,
            "velocity": 0.7874015748031497
          },
          {
            "duration": 0.27026999999999646,
            "durationTicks": 240,
            "midi": 34,
            "name": "A#1",
            "ticks": 31190,
            "time": 35.123838750000004,
            "velocity": 0.6929133858267716
          },
          {
            "duration": 0.24999975000000063,
            "durationTicks": 222,
            "midi": 38,
            "name": "D2",
            "ticks": 31430,
            "time": 35.39410875,
            "velocity": 0.8818897637795275
          },
          {
            "duration": 0.2894141250000004,
            "durationTicks": 257,
            "midi": 41,
            "name": "F2",
            "ticks": 31670,
            "time": 35.664378750000004,
            "velocity": 0.7874015748031497
          },
          {
            "duration": 0.3164411249999972,
            "durationTicks": 281,
            "midi": 46,
            "name": "A#2",
            "ticks": 31910,
            "time": 35.93464875,
            "velocity": 0.7874015748031497
          },
          {
            "duration": 0.27590062499999135,
            "durationTicks": 245,
            "midi": 45,
            "name": "A2",
            "ticks": 32150,
            "time": 36.204918750000004,
            "velocity": 0.8818897637795275
          },
          {
            "duration": 0.23648625000000578,
            "durationTicks": 210,
            "midi": 41,
            "name": "F2",
            "ticks": 32390,
            "time": 36.47518875,
            "velocity": 0.8818897637795275
          },
          {
            "duration": 0.2804051250000015,
            "durationTicks": 249,
            "midi": 43,
            "name": "G2",
            "ticks": 32630,
            "time": 36.745458750000004,
            "velocity": 0.7874015748031497
          },
          {
            "duration": 0.30855824999999726,
            "durationTicks": 274,
            "midi": 38,
            "name": "D2",
            "ticks": 32870,
            "time": 37.01572875,
            "velocity": 0.8818897637795275
          },
          {
            "duration": 0.3074321249999983,
            "durationTicks": 273,
            "midi": 34,
            "name": "A#1",
            "ticks": 33110,
            "time": 37.285998750000005,
            "velocity": 0.6929133858267716
          },
          {
            "duration": 0.3074321249999983,
            "durationTicks": 273,
            "midi": 38,
            "name": "D2",
            "ticks": 33350,
            "time": 37.55626875,
            "velocity": 0.7874015748031497
          },
          {
            "duration": 0.3018014999999963,
            "durationTicks": 268,
            "midi": 31,
            "name": "G1",
            "ticks": 33590,
            "time": 37.826538750000005,
            "velocity": 0.7874015748031497
          },
          {
            "duration": 0.30405375000000134,
            "durationTicks": 270,
            "midi": 33,
            "name": "A1",
            "ticks": 33830,
            "time": 38.09680875,
            "velocity": 0.7874015748031497
          },
          {
            "duration": 0.29166637499999837,
            "durationTicks": 259,
            "midi": 34,
            "name": "A#1",
            "ticks": 34070,
            "time": 38.367078750000005,
            "velocity": 0.7874015748031497
          },
          {
            "duration": 0.2995492499999983,
            "durationTicks": 266,
            "midi": 38,
            "name": "D2",
            "ticks": 34310,
            "time": 38.63734875,
            "velocity": 0.7874015748031497
          },
          {
            "duration": 0.2781528750000035,
            "durationTicks": 247,
            "midi": 36,
            "name": "C2",
            "ticks": 34550,
            "time": 38.907618750000005,
            "velocity": 0.7874015748031497
          },
          {
            "duration": 0.3175672499999962,
            "durationTicks": 282,
            "midi": 38,
            "name": "D2",
            "ticks": 34790,
            "time": 39.17788875,
            "velocity": 0.8818897637795275
          },
          {
            "duration": 0.29166637499999837,
            "durationTicks": 259,
            "midi": 39,
            "name": "D#2",
            "ticks": 35030,
            "time": 39.448158750000005,
            "velocity": 0.6929133858267716
          },
          {
            "duration": 0.27702674999999743,
            "durationTicks": 246,
            "midi": 43,
            "name": "G2",
            "ticks": 35270,
            "time": 39.71842875,
            "velocity": 0.8818897637795275
          },
          {
            "duration": 0.3051798750000003,
            "durationTicks": 271,
            "midi": 36,
            "name": "C2",
            "ticks": 35510,
            "time": 39.988698750000005,
            "velocity": 0.7874015748031497
          },
          {
            "duration": 0.2623871250000036,
            "durationTicks": 233,
            "midi": 43,
            "name": "G2",
            "ticks": 35750,
            "time": 40.25896875,
            "velocity": 0.8818897637795275
          },
          {
            "duration": 0.12499987499999321,
            "durationTicks": 111,
            "midi": 36,
            "name": "C2",
            "ticks": 35990,
            "time": 40.529238750000005,
            "velocity": 0.8818897637795275
          },
          {
            "duration": 0.32545012499999615,
            "durationTicks": 289,
            "midi": 37,
            "name": "C#2",
            "ticks": 36110,
            "time": 40.66437375,
            "velocity": 0.8818897637795275
          },
          {
            "duration": 0.31869337499999517,
            "durationTicks": 283,
            "midi": 36,
            "name": "C2",
            "ticks": 36470,
            "time": 41.069778750000005,
            "velocity": 0.7874015748031497
          },
          {
            "duration": 0.2939186249999963,
            "durationTicks": 261,
            "midi": 38,
            "name": "D2",
            "ticks": 36710,
            "time": 41.34004875,
            "velocity": 0.7874015748031497
          },
          {
            "duration": 0.28828800000000143,
            "durationTicks": 256,
            "midi": 39,
            "name": "D#2",
            "ticks": 36950,
            "time": 41.610318750000005,
            "velocity": 0.7874015748031497
          },
          {
            "duration": 0.2680177499999985,
            "durationTicks": 238,
            "midi": 43,
            "name": "G2",
            "ticks": 37190,
            "time": 41.88058875,
            "velocity": 0.8818897637795275
          },
          {
            "duration": 0.25450424999999655,
            "durationTicks": 226,
            "midi": 44,
            "name": "G#2",
            "ticks": 37430,
            "time": 42.150858750000005,
            "velocity": 0.6929133858267716
          },
          {
            "duration": 0.3231978749999982,
            "durationTicks": 287,
            "midi": 46,
            "name": "A#2",
            "ticks": 37670,
            "time": 42.42112875,
            "velocity": 0.7874015748031497
          },
          {
            "duration": 0.2725222499999944,
            "durationTicks": 242,
            "midi": 39,
            "name": "D#2",
            "ticks": 37910,
            "time": 42.691398750000005,
            "velocity": 0.7874015748031497
          },
          {
            "duration": 0.2691438750000046,
            "durationTicks": 239,
            "midi": 44,
            "name": "G#2",
            "ticks": 38150,
            "time": 42.96166875,
            "velocity": 0.7874015748031497
          },
          {
            "duration": 0.22297274999999672,
            "durationTicks": 198,
            "midi": 43,
            "name": "G2",
            "ticks": 38390,
            "time": 43.231938750000005,
            "velocity": 0.8818897637795275
          },
          {
            "duration": 0.2939186249999963,
            "durationTicks": 261,
            "midi": 55,
            "name": "G3",
            "ticks": 38630,
            "time": 43.50220875,
            "velocity": 0.6062992125984252
          },
          {
            "duration": 0.27590062499999135,
            "durationTicks": 245,
            "midi": 53,
            "name": "F3",
            "ticks": 38870,
            "time": 43.772478750000005,
            "velocity": 0.6062992125984252
          },
          {
            "duration": 0.2961708750000014,
            "durationTicks": 263,
            "midi": 50,
            "name": "D3",
            "ticks": 39110,
            "time": 44.04274875,
            "velocity": 0.6062992125984252
          },
          {
            "duration": 0.30968437499999624,
            "durationTicks": 275,
            "midi": 46,
            "name": "A#2",
            "ticks": 39350,
            "time": 44.313018750000005,
            "velocity": 0.6929133858267716
          },
          {
            "duration": 0.2635132500000026,
            "durationTicks": 234,
            "midi": 45,
            "name": "A2",
            "ticks": 39590,
            "time": 44.58328875,
            "velocity": 0.8818897637795275
          },
          {
            "duration": 0.27477449999999237,
            "durationTicks": 244,
            "midi": 43,
            "name": "G2",
            "ticks": 39830,
            "time": 44.853558750000005,
            "velocity": 0.7874015748031497
          },
          {
            "duration": 0.2939186249999963,
            "durationTicks": 261,
            "midi": 38,
            "name": "D2",
            "ticks": 40070,
            "time": 45.12382875,
            "velocity": 0.8818897637795275
          },
          {
            "duration": 0.26013487499999144,
            "durationTicks": 231,
            "midi": 34,
            "name": "A#1",
            "ticks": 40310,
            "time": 45.394098750000005,
            "velocity": 0.7874015748031497
          },
          {
            "duration": 0.2409907500000017,
            "durationTicks": 214,
            "midi": 38,
            "name": "D2",
            "ticks": 40550,
            "time": 45.66436875,
            "velocity": 0.7874015748031497
          },
          {
            "duration": 0.2781528750000035,
            "durationTicks": 247,
            "midi": 33,
            "name": "A1",
            "ticks": 40790,
            "time": 45.934638750000005,
            "velocity": 0.8818897637795275
          },
          {
            "duration": 0.27027000000000356,
            "durationTicks": 240,
            "midi": 36,
            "name": "C2",
            "ticks": 41030,
            "time": 46.20490875,
            "velocity": 0.6929133858267716
          },
          {
            "duration": 0.2736483749999934,
            "durationTicks": 243,
            "midi": 34,
            "name": "A#1",
            "ticks": 41270,
            "time": 46.475178750000005,
            "velocity": 0.8818897637795275
          },
          {
            "duration": 0.2668916249999995,
            "durationTicks": 237,
            "midi": 31,
            "name": "G1",
            "ticks": 41510,
            "time": 46.74544875,
            "velocity": 0.7874015748031497
          },
          {
            "duration": 0.2522519999999986,
            "durationTicks": 224,
            "midi": 33,
            "name": "A1",
            "ticks": 41750,
            "time": 47.015718750000005,
            "velocity": 0.8818897637795275
          },
          {
            "duration": 0.2195943749999998,
            "durationTicks": 195,
            "midi": 30,
            "name": "F#1",
            "ticks": 41990,
            "time": 47.28598875,
            "velocity": 0.7874015748031497
          },
          {
            "duration": 0.30968437499999624,
            "durationTicks": 275,
            "midi": 29,
            "name": "F1",
            "ticks": 42230,
            "time": 47.556258750000005,
            "velocity": 0.7874015748031497
          },
          {
            "duration": 0.28153125000000045,
            "durationTicks": 250,
            "midi": 31,
            "name": "G1",
            "ticks": 42470,
            "time": 47.82652875,
            "velocity": 0.8818897637795275
          },
          {
            "duration": 0.26576549999999344,
            "durationTicks": 236,
            "midi": 32,
            "name": "G#1",
            "ticks": 42710,
            "time": 48.096798750000005,
            "velocity": 0.7874015748031497
          },
          {
            "duration": 0.2961708750000014,
            "durationTicks": 263,
            "midi": 36,
            "name": "C2",
            "ticks": 42950,
            "time": 48.36706875,
            "velocity": 0.6929133858267716
          },
          {
            "duration": 0.2781528750000035,
            "durationTicks": 247,
            "midi": 34,
            "name": "A#1",
            "ticks": 43190,
            "time": 48.637338750000005,
            "velocity": 0.7874015748031497
          },
          {
            "duration": 0.2837834999999984,
            "durationTicks": 252,
            "midi": 38,
            "name": "D2",
            "ticks": 43430,
            "time": 48.90760875,
            "velocity": 0.7874015748031497
          },
          {
            "duration": 0.2466213749999966,
            "durationTicks": 219,
            "midi": 41,
            "name": "F2",
            "ticks": 43670,
            "time": 49.177878750000005,
            "velocity": 0.7874015748031497
          },
          {
            "duration": 0.33671137500000725,
            "durationTicks": 299,
            "midi": 43,
            "name": "G2",
            "ticks": 43910,
            "time": 49.44814875,
            "velocity": 0.7874015748031497
          },
          {
            "duration": 0.2995492499999983,
            "durationTicks": 266,
            "midi": 41,
            "name": "F2",
            "ticks": 44150,
            "time": 49.718418750000005,
            "velocity": 0.7874015748031497
          },
          {
            "duration": 0.2668916249999995,
            "durationTicks": 237,
            "midi": 39,
            "name": "D#2",
            "ticks": 44390,
            "time": 49.98868875,
            "velocity": 0.6929133858267716
          },
          {
            "duration": 0.30855824999999726,
            "durationTicks": 274,
            "midi": 38,
            "name": "D2",
            "ticks": 44630,
            "time": 50.258958750000005,
            "velocity": 0.8818897637795275
          },
          {
            "duration": 0.2894141250000004,
            "durationTicks": 257,
            "midi": 36,
            "name": "C2",
            "ticks": 44870,
            "time": 50.52922875,
            "velocity": 0.7874015748031497
          },
          {
            "duration": 0.2567564999999945,
            "durationTicks": 228,
            "midi": 34,
            "name": "A#1",
            "ticks": 45110,
            "time": 50.799498750000005,
            "velocity": 0.6929133858267716
          },
          {
            "duration": 0.3074321249999983,
            "durationTicks": 273,
            "midi": 38,
            "name": "D2",
            "ticks": 45350,
            "time": 51.06976875,
            "velocity": 0.7874015748031497
          },
          {
            "duration": 0.25900874999999246,
            "durationTicks": 230,
            "midi": 41,
            "name": "F2",
            "ticks": 45590,
            "time": 51.340038750000005,
            "velocity": 0.7874015748031497
          },
          {
            "duration": 0.23873850000000374,
            "durationTicks": 212,
            "midi": 34,
            "name": "A#1",
            "ticks": 45850,
            "time": 51.63283125,
            "velocity": 0.7874015748031497
          },
          {
            "duration": 0.20157637500000192,
            "durationTicks": 179,
            "midi": 38,
            "name": "D2",
            "ticks": 46070,
            "time": 51.880578750000005,
            "velocity": 0.7874015748031497
          },
          {
            "duration": 0.22747725000000685,
            "durationTicks": 202,
            "midi": 38,
            "name": "D2",
            "ticks": 46310,
            "time": 52.15084875,
            "velocity": 0.7874015748031497
          },
          {
            "duration": 0.2027025000000009,
            "durationTicks": 180,
            "midi": 43,
            "name": "G2",
            "ticks": 46550,
            "time": 52.421118750000005,
            "velocity": 0.8818897637795275
          },
          {
            "duration": 0.2623871250000036,
            "durationTicks": 233,
            "midi": 43,
            "name": "G2",
            "ticks": 46790,
            "time": 52.69138875,
            "velocity": 0.8818897637795275
          },
          {
            "duration": 0.2792790000000025,
            "durationTicks": 248,
            "midi": 38,
            "name": "D2",
            "ticks": 47030,
            "time": 52.961658750000005,
            "velocity": 0.7874015748031497
          },
          {
            "duration": 0.2961708750000014,
            "durationTicks": 263,
            "midi": 43,
            "name": "G2",
            "ticks": 47270,
            "time": 53.23192875,
            "velocity": 0.7874015748031497
          },
          {
            "duration": 0.3108104999999952,
            "durationTicks": 276,
            "midi": 31,
            "name": "G1",
            "ticks": 47510,
            "time": 53.502198750000005,
            "velocity": 0.7874015748031497
          },
          {
            "duration": 0.2680177499999985,
            "durationTicks": 238,
            "midi": 43,
            "name": "G2",
            "ticks": 47750,
            "time": 53.77246875,
            "velocity": 0.7874015748031497
          },
          {
            "duration": 0.23761237499999766,
            "durationTicks": 211,
            "midi": 44,
            "name": "G#2",
            "ticks": 47990,
            "time": 54.042738750000005,
            "velocity": 0.8818897637795275
          },
          {
            "duration": 0.2567565000000016,
            "durationTicks": 228,
            "midi": 46,
            "name": "A#2",
            "ticks": 48230,
            "time": 54.31300875,
            "velocity": 0.6929133858267716
          },
          {
            "duration": 0.26463937499999446,
            "durationTicks": 235,
            "midi": 39,
            "name": "D#2",
            "ticks": 48470,
            "time": 54.583278750000005,
            "velocity": 0.6929133858267716
          },
          {
            "duration": 0.3018014999999963,
            "durationTicks": 268,
            "midi": 46,
            "name": "A#2",
            "ticks": 48710,
            "time": 54.85354875,
            "velocity": 0.6929133858267716
          },
          {
            "duration": 0.3006753749999973,
            "durationTicks": 267,
            "midi": 44,
            "name": "G#2",
            "ticks": 48950,
            "time": 55.123818750000005,
            "velocity": 0.7874015748031497
          },
          {
            "duration": 0.26013487499999854,
            "durationTicks": 231,
            "midi": 46,
            "name": "A#2",
            "ticks": 49190,
            "time": 55.39408875,
            "velocity": 0.6929133858267716
          },
          {
            "duration": 0.2725222499999944,
            "durationTicks": 242,
            "midi": 48,
            "name": "C3",
            "ticks": 49430,
            "time": 55.664358750000005,
            "velocity": 0.6929133858267716
          },
          {
            "duration": 0.2409907500000017,
            "durationTicks": 214,
            "midi": 39,
            "name": "D#2",
            "ticks": 49670,
            "time": 55.93462875,
            "velocity": 0.8818897637795275
          },
          {
            "duration": 0.28828800000000143,
            "durationTicks": 256,
            "midi": 43,
            "name": "G2",
            "ticks": 49910,
            "time": 56.204898750000005,
            "velocity": 0.8818897637795275
          },
          {
            "duration": 0.29166637499999837,
            "durationTicks": 259,
            "midi": 38,
            "name": "D2",
            "ticks": 50150,
            "time": 56.47516875,
            "velocity": 0.7874015748031497
          },
          {
            "duration": 0.22860337499999872,
            "durationTicks": 203,
            "midi": 34,
            "name": "A#1",
            "ticks": 50390,
            "time": 56.745438750000005,
            "velocity": 0.6929133858267716
          },
          {
            "duration": 0.24774750000000267,
            "durationTicks": 220,
            "midi": 43,
            "name": "G2",
            "ticks": 50630,
            "time": 57.01570875,
            "velocity": 0.8818897637795275
          },
          {
            "duration": 0.31869337499999517,
            "durationTicks": 283,
            "midi": 42,
            "name": "F#2",
            "ticks": 50870,
            "time": 57.285978750000005,
            "velocity": 0.7874015748031497
          },
          {
            "duration": 0.2623871250000036,
            "durationTicks": 233,
            "midi": 38,
            "name": "D2",
            "ticks": 51110,
            "time": 57.55624875,
            "velocity": 0.8818897637795275
          },
          {
            "duration": 0.24211687499999357,
            "durationTicks": 215,
            "midi": 33,
            "name": "A1",
            "ticks": 51350,
            "time": 57.826518750000005,
            "velocity": 0.7874015748031497
          },
          {
            "duration": 0.2409907500000017,
            "durationTicks": 214,
            "midi": 42,
            "name": "F#2",
            "ticks": 51590,
            "time": 58.09678875,
            "velocity": 0.8818897637795275
          },
          {
            "duration": 0.22747724999999974,
            "durationTicks": 202,
            "midi": 41,
            "name": "F2",
            "ticks": 51830,
            "time": 58.367058750000005,
            "velocity": 0.7874015748031497
          },
          {
            "duration": 0.27702674999999743,
            "durationTicks": 246,
            "midi": 34,
            "name": "A#1",
            "ticks": 52070,
            "time": 58.63732875,
            "velocity": 0.7874015748031497
          },
          {
            "duration": 0.2691438749999975,
            "durationTicks": 239,
            "midi": 36,
            "name": "C2",
            "ticks": 52310,
            "time": 58.907598750000005,
            "velocity": 0.6929133858267716
          },
          {
            "duration": 0.26576550000000054,
            "durationTicks": 236,
            "midi": 38,
            "name": "D2",
            "ticks": 52550,
            "time": 59.17786875,
            "velocity": 0.8818897637795275
          },
          {
            "duration": 0.2454952499999976,
            "durationTicks": 218,
            "midi": 40,
            "name": "E2",
            "ticks": 52790,
            "time": 59.448138750000005,
            "velocity": 0.6929133858267716
          },
          {
            "duration": 0.2680177499999985,
            "durationTicks": 238,
            "midi": 43,
            "name": "G2",
            "ticks": 53030,
            "time": 59.71840875,
            "velocity": 0.7874015748031497
          },
          {
            "duration": 0.2522519999999986,
            "durationTicks": 224,
            "midi": 46,
            "name": "A#2",
            "ticks": 53270,
            "time": 59.988678750000005,
            "velocity": 0.7874015748031497
          },
          {
            "duration": 0.22184662499999774,
            "durationTicks": 197,
            "midi": 40,
            "name": "E2",
            "ticks": 53510,
            "time": 60.25894875,
            "velocity": 0.6929133858267716
          },
          {
            "duration": 0.2725222499999944,
            "durationTicks": 242,
            "midi": 39,
            "name": "D#2",
            "ticks": 53750,
            "time": 60.529218750000005,
            "velocity": 0.7874015748031497
          },
          {
            "duration": 0.2680177499999985,
            "durationTicks": 238,
            "midi": 43,
            "name": "G2",
            "ticks": 53990,
            "time": 60.79948875,
            "velocity": 0.8818897637795275
          },
          {
            "duration": 0.23310787499999464,
            "durationTicks": 207,
            "midi": 46,
            "name": "A#2",
            "ticks": 54230,
            "time": 61.069758750000005,
            "velocity": 0.6929133858267716
          },
          {
            "duration": 0.2072069999999968,
            "durationTicks": 184,
            "midi": 39,
            "name": "D#2",
            "ticks": 54470,
            "time": 61.34002875,
            "velocity": 0.7874015748031497
          },
          {
            "duration": 0.3671167499999939,
            "durationTicks": 326,
            "midi": 39,
            "name": "D#2",
            "ticks": 54710,
            "time": 61.610298750000005,
            "velocity": 0.7874015748031497
          },
          {
            "duration": 0.32432399999999717,
            "durationTicks": 288,
            "midi": 39,
            "name": "D#2",
            "ticks": 55070,
            "time": 62.01570375000001,
            "velocity": 0.7874015748031497
          },
          {
            "duration": 0.19932412499999685,
            "durationTicks": 177,
            "midi": 39,
            "name": "D#2",
            "ticks": 55430,
            "time": 62.42110875,
            "velocity": 0.7874015748031497
          },
          {
            "duration": 0.2894141250000004,
            "durationTicks": 257,
            "midi": 45,
            "name": "A2",
            "ticks": 55670,
            "time": 62.691378750000005,
            "velocity": 0.8818897637795275
          },
          {
            "duration": 0.2184682500000008,
            "durationTicks": 194,
            "midi": 33,
            "name": "A1",
            "ticks": 55910,
            "time": 62.96164875,
            "velocity": 0.8818897637795275
          },
          {
            "duration": 0.21171149999999983,
            "durationTicks": 188,
            "midi": 36,
            "name": "C2",
            "ticks": 56150,
            "time": 63.231918750000006,
            "velocity": 0.7874015748031497
          },
          {
            "duration": 0.0979728749999964,
            "durationTicks": 87,
            "midi": 33,
            "name": "A1",
            "ticks": 56390,
            "time": 63.50218875,
            "velocity": 0.7874015748031497
          },
          {
            "duration": 0.19481962499999383,
            "durationTicks": 173,
            "midi": 38,
            "name": "D2",
            "ticks": 56510,
            "time": 63.63732375000001,
            "velocity": 0.8818897637795275
          },
          {
            "duration": 0.3603599999999858,
            "durationTicks": 320,
            "midi": 43,
            "name": "G2",
            "ticks": 57470,
            "time": 64.71840375000001,
            "velocity": 0.8818897637795275
          },
          {
            "duration": 0.29729700000000037,
            "durationTicks": 264,
            "midi": 38,
            "name": "D2",
            "ticks": 57830,
            "time": 65.12380875000001,
            "velocity": 0.7874015748031497
          },
          {
            "duration": 0.28153125000000045,
            "durationTicks": 250,
            "midi": 34,
            "name": "A#1",
            "ticks": 58070,
            "time": 65.39407875,
            "velocity": 0.6929133858267716
          },
          {
            "duration": 0.22747725000000685,
            "durationTicks": 202,
            "midi": 43,
            "name": "G2",
            "ticks": 58310,
            "time": 65.66434875,
            "velocity": 0.8818897637795275
          },
          {
            "duration": 0.25450425000001076,
            "durationTicks": 226,
            "midi": 41,
            "name": "F2",
            "ticks": 58550,
            "time": 65.93461875,
            "velocity": 0.6929133858267716
          },
          {
            "duration": 0.2635132499999884,
            "durationTicks": 234,
            "midi": 38,
            "name": "D2",
            "ticks": 58790,
            "time": 66.20488875000001,
            "velocity": 0.8818897637795275
          },
          {
            "duration": 0.28153125000000045,
            "durationTicks": 250,
            "midi": 34,
            "name": "A#1",
            "ticks": 59030,
            "time": 66.47515875,
            "velocity": 0.8818897637795275
          },
          {
            "duration": 0.15765749999999912,
            "durationTicks": 140,
            "midi": 38,
            "name": "D2",
            "ticks": 59270,
            "time": 66.74542875,
            "velocity": 0.8818897637795275
          },
          {
            "duration": 0.3603599999999858,
            "durationTicks": 320,
            "midi": 39,
            "name": "D#2",
            "ticks": 59390,
            "time": 66.88056375000001,
            "velocity": 0.7874015748031497
          },
          {
            "duration": 0.27477449999999237,
            "durationTicks": 244,
            "midi": 43,
            "name": "G2",
            "ticks": 59750,
            "time": 67.28596875000001,
            "velocity": 0.7874015748031497
          },
          {
            "duration": 0.2905402499999923,
            "durationTicks": 258,
            "midi": 46,
            "name": "A#2",
            "ticks": 59990,
            "time": 67.55623875,
            "velocity": 0.6929133858267716
          },
          {
            "duration": 0.23310787500000174,
            "durationTicks": 207,
            "midi": 39,
            "name": "D#2",
            "ticks": 60230,
            "time": 67.82650875,
            "velocity": 0.7874015748031497
          },
          {
            "duration": 0.2466213750000037,
            "durationTicks": 219,
            "midi": 38,
            "name": "D2",
            "ticks": 60470,
            "time": 68.09677875,
            "velocity": 0.7874015748031497
          },
          {
            "duration": 0.21396374999999068,
            "durationTicks": 190,
            "midi": 42,
            "name": "F#2",
            "ticks": 60710,
            "time": 68.36704875000001,
            "velocity": 0.7874015748031497
          },
          {
            "duration": 0.3006753749999973,
            "durationTicks": 267,
            "midi": 45,
            "name": "A2",
            "ticks": 60950,
            "time": 68.63731875,
            "velocity": 0.7874015748031497
          },
          {
            "duration": 0.13513500000000533,
            "durationTicks": 120,
            "midi": 38,
            "name": "D2",
            "ticks": 61190,
            "time": 68.90758875,
            "velocity": 0.8818897637795275
          },
          {
            "duration": 0.3828824999999938,
            "durationTicks": 340,
            "midi": 43,
            "name": "G2",
            "ticks": 61310,
            "time": 69.04272375000001,
            "velocity": 0.8818897637795275
          },
          {
            "duration": 0.2837834999999984,
            "durationTicks": 252,
            "midi": 38,
            "name": "D2",
            "ticks": 61670,
            "time": 69.44812875,
            "velocity": 0.7874015748031497
          },
          {
            "duration": 0.25450425000001076,
            "durationTicks": 226,
            "midi": 34,
            "name": "A#1",
            "ticks": 61910,
            "time": 69.71839874999999,
            "velocity": 0.6929133858267716
          },
          {
            "duration": 0.2409907500000088,
            "durationTicks": 214,
            "midi": 43,
            "name": "G2",
            "ticks": 62150,
            "time": 69.98866875,
            "velocity": 0.7874015748031497
          },
          {
            "duration": 0.3231978749999911,
            "durationTicks": 287,
            "midi": 38,
            "name": "D2",
            "ticks": 62390,
            "time": 70.25893875,
            "velocity": 0.7874015748031497
          },
          {
            "duration": 0.2668916249999995,
            "durationTicks": 237,
            "midi": 34,
            "name": "A#1",
            "ticks": 62630,
            "time": 70.52920875,
            "velocity": 0.6929133858267716
          },
          {
            "duration": 0.2860357500000106,
            "durationTicks": 254,
            "midi": 31,
            "name": "G1",
            "ticks": 62870,
            "time": 70.79947874999999,
            "velocity": 0.8818897637795275
          },
          {
            "duration": 0.23648624999999868,
            "durationTicks": 210,
            "midi": 38,
            "name": "D2",
            "ticks": 63110,
            "time": 71.06974875,
            "velocity": 0.8818897637795275
          },
          {
            "duration": 0.35247712500000716,
            "durationTicks": 313,
            "midi": 39,
            "name": "D#2",
            "ticks": 63350,
            "time": 71.34001875,
            "velocity": 0.7874015748031497
          },
          {
            "duration": 0.3614861250000132,
            "durationTicks": 321,
            "midi": 39,
            "name": "D#2",
            "ticks": 63710,
            "time": 71.74542375,
            "velocity": 0.8818897637795275
          },
          {
            "duration": 0.36036,
            "durationTicks": 320,
            "midi": 39,
            "name": "D#2",
            "ticks": 64070,
            "time": 72.15082875,
            "velocity": 0.8818897637795275
          },
          {
            "duration": 0.27590062500000556,
            "durationTicks": 245,
            "midi": 39,
            "name": "D#2",
            "ticks": 64430,
            "time": 72.55623375,
            "velocity": 0.8818897637795275
          },
          {
            "duration": 0.16779262500000414,
            "durationTicks": 149,
            "midi": 39,
            "name": "D#2",
            "ticks": 64790,
            "time": 72.96163874999999,
            "velocity": 0.8818897637795275
          },
          {
            "duration": 0.25900875000000667,
            "durationTicks": 230,
            "midi": 39,
            "name": "D#2",
            "ticks": 65030,
            "time": 73.23190875,
            "velocity": 0.8818897637795275
          },
          {
            "duration": 0.2567565000000087,
            "durationTicks": 228,
            "midi": 38,
            "name": "D2",
            "ticks": 65270,
            "time": 73.50217875,
            "velocity": 0.8818897637795275
          },
          {
            "duration": 0.2804051250000157,
            "durationTicks": 249,
            "midi": 45,
            "name": "A2",
            "ticks": 65510,
            "time": 73.77244875,
            "velocity": 0.8818897637795275
          },
          {
            "duration": 0.2466213750000179,
            "durationTicks": 219,
            "midi": 42,
            "name": "F#2",
            "ticks": 65750,
            "time": 74.04271874999999,
            "velocity": 0.8818897637795275
          },
          {
            "duration": 0.2995492499999983,
            "durationTicks": 266,
            "midi": 38,
            "name": "D2",
            "ticks": 65990,
            "time": 74.31298875,
            "velocity": 0.8818897637795275
          },
          {
            "duration": 0.23648624999999868,
            "durationTicks": 210,
            "midi": 39,
            "name": "D#2",
            "ticks": 66230,
            "time": 74.58325875,
            "velocity": 0.7874015748031497
          },
          {
            "duration": 0.25900875000000667,
            "durationTicks": 230,
            "midi": 43,
            "name": "G2",
            "ticks": 66470,
            "time": 74.85352875,
            "velocity": 0.8818897637795275
          },
          {
            "duration": 0.22860337500002004,
            "durationTicks": 203,
            "midi": 46,
            "name": "A#2",
            "ticks": 66710,
            "time": 75.12379874999999,
            "velocity": 0.7874015748031497
          },
          {
            "duration": 0.20720700000001102,
            "durationTicks": 184,
            "midi": 39,
            "name": "D#2",
            "ticks": 66950,
            "time": 75.39406875,
            "velocity": 0.7874015748031497
          },
          {
            "duration": 0.16328812500000822,
            "durationTicks": 145,
            "midi": 38,
            "name": "D2",
            "ticks": 67190,
            "time": 75.66433875,
            "velocity": 0.8818897637795275
          },
          {
            "duration": 1.6441425000000152,
            "durationTicks": 1460,
            "midi": 50,
            "name": "D3",
            "ticks": 67670,
            "time": 76.20487874999999,
            "velocity": 0.8818897637795275
          },
          {
            "duration": 0.3108105000000023,
            "durationTicks": 276,
            "midi": 31,
            "name": "G1",
            "ticks": 69110,
            "time": 77.82649875,
            "velocity": 0.8818897637795275
          },
          {
            "duration": 0.3119366250000155,
            "durationTicks": 277,
            "midi": 33,
            "name": "A1",
            "ticks": 69350,
            "time": 78.09676875,
            "velocity": 0.8818897637795275
          },
          {
            "duration": 0.2691438750000117,
            "durationTicks": 239,
            "midi": 34,
            "name": "A#1",
            "ticks": 69590,
            "time": 78.36703874999999,
            "velocity": 0.7874015748031497
          },
          {
            "duration": 0.2578826250000077,
            "durationTicks": 229,
            "midi": 38,
            "name": "D2",
            "ticks": 69830,
            "time": 78.63730875,
            "velocity": 0.8818897637795275
          },
          {
            "duration": 0.29391862500000343,
            "durationTicks": 261,
            "midi": 43,
            "name": "G2",
            "ticks": 70070,
            "time": 78.90757875,
            "velocity": 0.8818897637795275
          },
          {
            "duration": 0.30968437500001755,
            "durationTicks": 275,
            "midi": 46,
            "name": "A#2",
            "ticks": 70310,
            "time": 79.17784875,
            "velocity": 0.7874015748031497
          },
          {
            "duration": 0.2972970000000146,
            "durationTicks": 264,
            "midi": 45,
            "name": "A2",
            "ticks": 70550,
            "time": 79.44811874999999,
            "velocity": 0.7874015748031497
          },
          {
            "duration": 0.29842312499999935,
            "durationTicks": 265,
            "midi": 41,
            "name": "F2",
            "ticks": 70790,
            "time": 79.71838875,
            "velocity": 0.8818897637795275
          },
          {
            "duration": 0.3231978749999911,
            "durationTicks": 287,
            "midi": 46,
            "name": "A#2",
            "ticks": 71030,
            "time": 79.98865875,
            "velocity": 0.8818897637795275
          },
          {
            "duration": 0.32545012500001747,
            "durationTicks": 289,
            "midi": 44,
            "name": "G#2",
            "ticks": 71270,
            "time": 80.25892875,
            "velocity": 0.8818897637795275
          },
          {
            "duration": 0.24887362500001586,
            "durationTicks": 221,
            "midi": 43,
            "name": "G2",
            "ticks": 71510,
            "time": 80.52919874999999,
            "velocity": 0.7874015748031497
          },
          {
            "duration": 0.3175672499999962,
            "durationTicks": 282,
            "midi": 41,
            "name": "F2",
            "ticks": 71750,
            "time": 80.79946875,
            "velocity": 0.7874015748031497
          },
          {
            "duration": 0.27590062500000556,
            "durationTicks": 245,
            "midi": 34,
            "name": "A#1",
            "ticks": 71990,
            "time": 81.06973875,
            "velocity": 0.6929133858267716
          },
          {
            "duration": 0.2409907500000088,
            "durationTicks": 214,
            "midi": 36,
            "name": "C2",
            "ticks": 72230,
            "time": 81.34000875,
            "velocity": 0.7874015748031497
          },
          {
            "duration": 0.2804051250000157,
            "durationTicks": 249,
            "midi": 38,
            "name": "D2",
            "ticks": 72470,
            "time": 81.61027874999999,
            "velocity": 0.8818897637795275
          },
          {
            "duration": 0.29391862500000343,
            "durationTicks": 261,
            "midi": 41,
            "name": "F2",
            "ticks": 72710,
            "time": 81.88054875,
            "velocity": 0.7874015748031497
          },
          {
            "duration": 0.24324300000000676,
            "durationTicks": 216,
            "midi": 39,
            "name": "D#2",
            "ticks": 72950,
            "time": 82.15081875,
            "velocity": 0.8818897637795275
          },
          {
            "duration": 0.29954925000001253,
            "durationTicks": 266,
            "midi": 43,
            "name": "G2",
            "ticks": 73190,
            "time": 82.42108875,
            "velocity": 0.8818897637795275
          },
          {
            "duration": 0.240990750000023,
            "durationTicks": 214,
            "midi": 46,
            "name": "A#2",
            "ticks": 73430,
            "time": 82.69135874999999,
            "velocity": 0.8818897637795275
          },
          {
            "duration": 0.21171150000000694,
            "durationTicks": 188,
            "midi": 43,
            "name": "G2",
            "ticks": 73670,
            "time": 82.96162875,
            "velocity": 0.6929133858267716
          },
          {
            "duration": 0.24887362500000165,
            "durationTicks": 221,
            "midi": 39,
            "name": "D#2",
            "ticks": 73910,
            "time": 83.23189875,
            "velocity": 0.7874015748031497
          },
          {
            "duration": 0.23873849999999663,
            "durationTicks": 212,
            "midi": 41,
            "name": "F2",
            "ticks": 74150,
            "time": 83.50216875,
            "velocity": 0.6929133858267716
          },
          {
            "duration": 0.2972970000000146,
            "durationTicks": 264,
            "midi": 43,
            "name": "G2",
            "ticks": 74390,
            "time": 83.77243874999999,
            "velocity": 0.8818897637795275
          },
          {
            "duration": 0.3119366250000013,
            "durationTicks": 277,
            "midi": 46,
            "name": "A#2",
            "ticks": 74630,
            "time": 84.04270875,
            "velocity": 0.7874015748031497
          },
          {
            "duration": 0.2240988750000099,
            "durationTicks": 199,
            "midi": 45,
            "name": "A2",
            "ticks": 74870,
            "time": 84.31297875,
            "velocity": 0.8818897637795275
          },
          {
            "duration": 0.23873849999999663,
            "durationTicks": 212,
            "midi": 45,
            "name": "A2",
            "ticks": 75110,
            "time": 84.58324875,
            "velocity": 0.8818897637795275
          },
          {
            "duration": 0.3063060000000064,
            "durationTicks": 272,
            "midi": 36,
            "name": "C2",
            "ticks": 75350,
            "time": 84.85351874999999,
            "velocity": 0.8818897637795275
          },
          {
            "duration": 0.24774750000000267,
            "durationTicks": 220,
            "midi": 37,
            "name": "C#2",
            "ticks": 75590,
            "time": 85.12378875,
            "velocity": 0.7874015748031497
          },
          {
            "duration": 0.25337812499999757,
            "durationTicks": 225,
            "midi": 38,
            "name": "D2",
            "ticks": 75830,
            "time": 85.39405875,
            "velocity": 0.7874015748031497
          },
          {
            "duration": 0.2353601249999997,
            "durationTicks": 209,
            "midi": 42,
            "name": "F#2",
            "ticks": 76070,
            "time": 85.66432875,
            "velocity": 0.6929133858267716
          },
          {
            "duration": 0.35360325000000614,
            "durationTicks": 314,
            "midi": 45,
            "name": "A2",
            "ticks": 76310,
            "time": 85.93459874999999,
            "velocity": 0.6929133858267716
          },
          {
            "duration": 0.26126100000000463,
            "durationTicks": 232,
            "midi": 38,
            "name": "D2",
            "ticks": 76550,
            "time": 86.20486875,
            "velocity": 0.8818897637795275
          },
          {
            "duration": 0.2995492499999983,
            "durationTicks": 266,
            "midi": 31,
            "name": "G1",
            "ticks": 76790,
            "time": 86.47513875,
            "velocity": 0.8818897637795275
          },
          {
            "duration": 0.2961708750000156,
            "durationTicks": 263,
            "midi": 33,
            "name": "A1",
            "ticks": 77030,
            "time": 86.74540875,
            "velocity": 0.8818897637795275
          },
          {
            "duration": 0.27027000000001067,
            "durationTicks": 240,
            "midi": 34,
            "name": "A#1",
            "ticks": 77270,
            "time": 87.01567874999999,
            "velocity": 0.6929133858267716
          },
          {
            "duration": 0.3344591249999951,
            "durationTicks": 297,
            "midi": 38,
            "name": "D2",
            "ticks": 77510,
            "time": 87.28594875,
            "velocity": 0.8818897637795275
          },
          {
            "duration": 0.24887362500000165,
            "durationTicks": 221,
            "midi": 36,
            "name": "C2",
            "ticks": 77750,
            "time": 87.55621875,
            "velocity": 0.7874015748031497
          },
          {
            "duration": 0.3175672500000104,
            "durationTicks": 282,
            "midi": 28,
            "name": "E1",
            "ticks": 77990,
            "time": 87.82648875,
            "velocity": 0.7874015748031497
          },
          {
            "duration": 0.2837835000000126,
            "durationTicks": 252,
            "midi": 31,
            "name": "G1",
            "ticks": 78230,
            "time": 88.09675874999999,
            "velocity": 0.7874015748031497
          },
          {
            "duration": 0.13513499999999112,
            "durationTicks": 120,
            "midi": 36,
            "name": "C2",
            "ticks": 78470,
            "time": 88.36702875,
            "velocity": 0.7874015748031497
          },
          {
            "duration": 0.4054050000000018,
            "durationTicks": 360,
            "midi": 29,
            "name": "F1",
            "ticks": 78590,
            "time": 88.50216375,
            "velocity": 0.8818897637795275
          },
          {
            "duration": 0.2961708750000156,
            "durationTicks": 263,
            "midi": 31,
            "name": "G1",
            "ticks": 78950,
            "time": 88.90756875,
            "velocity": 0.8818897637795275
          },
          {
            "duration": 0.2590087500000209,
            "durationTicks": 230,
            "midi": 33,
            "name": "A1",
            "ticks": 79190,
            "time": 89.17783874999999,
            "velocity": 0.8818897637795275
          },
          {
            "duration": 0.28153125000000045,
            "durationTicks": 250,
            "midi": 36,
            "name": "C2",
            "ticks": 79430,
            "time": 89.44810875,
            "velocity": 0.6929133858267716
          },
          {
            "duration": 0.2578826250000077,
            "durationTicks": 229,
            "midi": 34,
            "name": "A#1",
            "ticks": 79670,
            "time": 89.71837875,
            "velocity": 0.7874015748031497
          },
          {
            "duration": 0.2894141249999933,
            "durationTicks": 257,
            "midi": 38,
            "name": "D2",
            "ticks": 79910,
            "time": 89.98864875,
            "velocity": 0.8818897637795275
          },
          {
            "duration": 0.27139612500000965,
            "durationTicks": 241,
            "midi": 41,
            "name": "F2",
            "ticks": 80150,
            "time": 90.25891874999999,
            "velocity": 0.7874015748031497
          },
          {
            "duration": 0.17454937500001222,
            "durationTicks": 155,
            "midi": 38,
            "name": "D2",
            "ticks": 80390,
            "time": 90.52918875,
            "velocity": 0.7874015748031497
          },
          {
            "duration": 0.36373837500001116,
            "durationTicks": 323,
            "midi": 39,
            "name": "D#2",
            "ticks": 80510,
            "time": 90.66432375,
            "velocity": 0.7874015748031497
          },
          {
            "duration": 0.3006753750000115,
            "durationTicks": 267,
            "midi": 43,
            "name": "G2",
            "ticks": 80870,
            "time": 91.06972875,
            "velocity": 0.8818897637795275
          },
          {
            "duration": 0.3074321250000196,
            "durationTicks": 273,
            "midi": 46,
            "name": "A#2",
            "ticks": 81110,
            "time": 91.33999874999999,
            "velocity": 0.7874015748031497
          },
          {
            "duration": 0.27026999999999646,
            "durationTicks": 240,
            "midi": 43,
            "name": "G2",
            "ticks": 81350,
            "time": 91.61026875,
            "velocity": 0.8818897637795275
          },
          {
            "duration": 0.28265737499999943,
            "durationTicks": 251,
            "midi": 39,
            "name": "D#2",
            "ticks": 81590,
            "time": 91.88053875,
            "velocity": 0.7874015748031497
          },
          {
            "duration": 0.27702675000001875,
            "durationTicks": 246,
            "midi": 43,
            "name": "G2",
            "ticks": 81830,
            "time": 92.15080875,
            "velocity": 0.8818897637795275
          },
          {
            "duration": 0.3186933750000094,
            "durationTicks": 283,
            "midi": 46,
            "name": "A#2",
            "ticks": 82070,
            "time": 92.42107874999999,
            "velocity": 0.7874015748031497
          },
          {
            "duration": 0.2297295000000048,
            "durationTicks": 204,
            "midi": 39,
            "name": "D#2",
            "ticks": 82310,
            "time": 92.69134875,
            "velocity": 0.6929133858267716
          },
          {
            "duration": 0.10247737499999232,
            "durationTicks": 91,
            "midi": 38,
            "name": "D2",
            "ticks": 82550,
            "time": 92.96161875,
            "velocity": 0.7874015748031497
          },
          {
            "duration": 0.09572062500001266,
            "durationTicks": 85,
            "midi": 38,
            "name": "D2",
            "ticks": 82790,
            "time": 93.23188875,
            "velocity": 0.8818897637795275
          },
          {
            "duration": 0.25337812499999757,
            "durationTicks": 225,
            "midi": 38,
            "name": "D2",
            "ticks": 83150,
            "time": 93.63729375,
            "velocity": 0.8818897637795275
          },
          {
            "duration": 0.2725222499999944,
            "durationTicks": 242,
            "midi": 38,
            "name": "D2",
            "ticks": 83510,
            "time": 94.04269875,
            "velocity": 0.8818897637795275
          },
          {
            "duration": 0.0979728749999964,
            "durationTicks": 87,
            "midi": 38,
            "name": "D2",
            "ticks": 83870,
            "time": 94.44810375,
            "velocity": 0.8818897637795275
          },
          {
            "duration": 0.17680162500001018,
            "durationTicks": 157,
            "midi": 41,
            "name": "F2",
            "ticks": 83990,
            "time": 94.58323874999999,
            "velocity": 0.8818897637795275
          },
          {
            "duration": 0.17905387500000813,
            "durationTicks": 159,
            "midi": 42,
            "name": "F#2",
            "ticks": 84230,
            "time": 94.85350875,
            "velocity": 0.8818897637795275
          },
          {
            "duration": 0.3063059999999922,
            "durationTicks": 272,
            "midi": 43,
            "name": "G2",
            "ticks": 84470,
            "time": 95.12377875,
            "velocity": 0.8818897637795275
          },
          {
            "duration": 0.28153125000000045,
            "durationTicks": 250,
            "midi": 38,
            "name": "D2",
            "ticks": 84710,
            "time": 95.39404875,
            "velocity": 0.7874015748031497
          },
          {
            "duration": 0.26013487500001986,
            "durationTicks": 231,
            "midi": 34,
            "name": "A#1",
            "ticks": 84950,
            "time": 95.66431874999999,
            "velocity": 0.6929133858267716
          },
          {
            "duration": 0.2668916249999995,
            "durationTicks": 237,
            "midi": 43,
            "name": "G2",
            "ticks": 85190,
            "time": 95.93458875,
            "velocity": 0.8818897637795275
          },
          {
            "duration": 0.3074321250000054,
            "durationTicks": 273,
            "midi": 46,
            "name": "A#2",
            "ticks": 85430,
            "time": 96.20485875,
            "velocity": 0.7874015748031497
          },
          {
            "duration": 0.3389636250000052,
            "durationTicks": 301,
            "midi": 44,
            "name": "G#2",
            "ticks": 85670,
            "time": 96.47512875,
            "velocity": 0.7874015748031497
          },
          {
            "duration": 0.26126100000001884,
            "durationTicks": 232,
            "midi": 43,
            "name": "G2",
            "ticks": 85910,
            "time": 96.74539874999999,
            "velocity": 0.8818897637795275
          },
          {
            "duration": 0.30292762499999526,
            "durationTicks": 269,
            "midi": 41,
            "name": "F2",
            "ticks": 86150,
            "time": 97.01566875,
            "velocity": 0.7874015748031497
          },
          {
            "duration": 0.24887362500000165,
            "durationTicks": 221,
            "midi": 39,
            "name": "D#2",
            "ticks": 86390,
            "time": 97.28593875,
            "velocity": 0.7874015748031497
          },
          {
            "duration": 0.3018015000000105,
            "durationTicks": 268,
            "midi": 43,
            "name": "G2",
            "ticks": 86630,
            "time": 97.55620875,
            "velocity": 0.8818897637795275
          },
          {
            "duration": 0.2759006250000198,
            "durationTicks": 245,
            "midi": 46,
            "name": "A#2",
            "ticks": 86870,
            "time": 97.82647874999999,
            "velocity": 0.7874015748031497
          },
          {
            "duration": 0.23085562500000378,
            "durationTicks": 205,
            "midi": 43,
            "name": "G2",
            "ticks": 87110,
            "time": 98.09674875,
            "velocity": 0.7874015748031497
          },
          {
            "duration": 0.2353601249999997,
            "durationTicks": 209,
            "midi": 44,
            "name": "G#2",
            "ticks": 87350,
            "time": 98.36701875,
            "velocity": 0.7874015748031497
          },
          {
            "duration": 0.31081050000001653,
            "durationTicks": 276,
            "midi": 46,
            "name": "A#2",
            "ticks": 87590,
            "time": 98.63728875,
            "velocity": 0.7874015748031497
          },
          {
            "duration": 0.2252250000000231,
            "durationTicks": 200,
            "midi": 39,
            "name": "D#2",
            "ticks": 87830,
            "time": 98.90755874999999,
            "velocity": 0.8818897637795275
          },
          {
            "duration": 0.1925673750000101,
            "durationTicks": 171,
            "midi": 44,
            "name": "G#2",
            "ticks": 88070,
            "time": 99.17782875,
            "velocity": 0.7874015748031497
          },
          {
            "duration": 0.12499987500001453,
            "durationTicks": 111,
            "midi": 45,
            "name": "A2",
            "ticks": 88310,
            "time": 99.44809875,
            "velocity": 0.8818897637795275
          },
          {
            "duration": 0.1531530000000032,
            "durationTicks": 136,
            "midi": 45,
            "name": "A2",
            "ticks": 88550,
            "time": 99.71836875,
            "velocity": 0.8818897637795275
          },
          {
            "duration": 0.2612609999999904,
            "durationTicks": 232,
            "midi": 38,
            "name": "D2",
            "ticks": 89280,
            "time": 100.54044,
            "velocity": 0.7874015748031497
          },
          {
            "duration": 0.22747724999999264,
            "durationTicks": 202,
            "midi": 39,
            "name": "D#2",
            "ticks": 89760,
            "time": 101.08098000000001,
            "velocity": 0.8818897637795275
          },
          {
            "duration": 0.14527012499999614,
            "durationTicks": 129,
            "midi": 41,
            "name": "F2",
            "ticks": 90000,
            "time": 101.35125000000001,
            "velocity": 0.8818897637795275
          },
          {
            "duration": 0.39752212500000894,
            "durationTicks": 353,
            "midi": 43,
            "name": "G2",
            "ticks": 90120,
            "time": 101.486385,
            "velocity": 0.7874015748031497
          },
          {
            "duration": 0.30968437500000334,
            "durationTicks": 275,
            "midi": 38,
            "name": "D2",
            "ticks": 90480,
            "time": 101.89179,
            "velocity": 0.8818897637795275
          },
          {
            "duration": 0.27027000000001067,
            "durationTicks": 240,
            "midi": 34,
            "name": "A#1",
            "ticks": 90720,
            "time": 102.16206,
            "velocity": 0.6929133858267716
          },
          {
            "duration": 0.26013487499999144,
            "durationTicks": 231,
            "midi": 38,
            "name": "D2",
            "ticks": 90960,
            "time": 102.43233000000001,
            "velocity": 0.8818897637795275
          },
          {
            "duration": 0.3063059999999922,
            "durationTicks": 272,
            "midi": 31,
            "name": "G1",
            "ticks": 91200,
            "time": 102.7026,
            "velocity": 0.8818897637795275
          },
          {
            "duration": 0.3018015000000105,
            "durationTicks": 268,
            "midi": 33,
            "name": "A1",
            "ticks": 91440,
            "time": 102.97287,
            "velocity": 0.8818897637795275
          },
          {
            "duration": 0.23761237499999766,
            "durationTicks": 211,
            "midi": 34,
            "name": "A#1",
            "ticks": 91680,
            "time": 103.24314000000001,
            "velocity": 0.7874015748031497
          },
          {
            "duration": 0.27590062499999135,
            "durationTicks": 245,
            "midi": 38,
            "name": "D2",
            "ticks": 91920,
            "time": 103.51341000000001,
            "velocity": 0.8818897637795275
          },
          {
            "duration": 0.23648624999999868,
            "durationTicks": 210,
            "midi": 43,
            "name": "G2",
            "ticks": 92160,
            "time": 103.78368,
            "velocity": 0.7874015748031497
          },
          {
            "duration": 0.1914412499999969,
            "durationTicks": 170,
            "midi": 38,
            "name": "D2",
            "ticks": 92400,
            "time": 104.05395,
            "velocity": 0.8818897637795275
          },
          {
            "duration": 0.371621250000004,
            "durationTicks": 330,
            "midi": 34,
            "name": "A#1",
            "ticks": 92640,
            "time": 104.32422,
            "velocity": 0.8818897637795275
          },
          {
            "duration": 0.371621250000004,
            "durationTicks": 330,
            "midi": 31,
            "name": "G1",
            "ticks": 92970,
            "time": 104.69584125,
            "velocity": 0.8818897637795275
          },
          {
            "duration": 0.30968437499998913,
            "durationTicks": 275,
            "midi": 36,
            "name": "C2",
            "ticks": 94090,
            "time": 105.95710125000001,
            "velocity": 0.7874015748031497
          },
          {
            "duration": 0.29729700000000037,
            "durationTicks": 264,
            "midi": 38,
            "name": "D2",
            "ticks": 94330,
            "time": 106.22737125,
            "velocity": 0.8818897637795275
          },
          {
            "duration": 0.28153124999998624,
            "durationTicks": 250,
            "midi": 39,
            "name": "D#2",
            "ticks": 94570,
            "time": 106.49764125000002,
            "velocity": 0.8818897637795275
          },
          {
            "duration": 0.24999974999998642,
            "durationTicks": 222,
            "midi": 43,
            "name": "G2",
            "ticks": 94810,
            "time": 106.76791125000001,
            "velocity": 0.7874015748031497
          },
          {
            "duration": 0.20382862499999987,
            "durationTicks": 181,
            "midi": 36,
            "name": "C2",
            "ticks": 95050,
            "time": 107.03818125000001,
            "velocity": 0.7874015748031497
          },
          {
            "duration": 0.20045025000000294,
            "durationTicks": 178,
            "midi": 36,
            "name": "C2",
            "ticks": 95290,
            "time": 107.30845125,
            "velocity": 0.8818897637795275
          },
          {
            "duration": 0.18468449999998882,
            "durationTicks": 164,
            "midi": 37,
            "name": "C#2",
            "ticks": 95530,
            "time": 107.57872125000002,
            "velocity": 0.7874015748031497
          },
          {
            "duration": 0.22072049999999876,
            "durationTicks": 196,
            "midi": 37,
            "name": "C#2",
            "ticks": 95770,
            "time": 107.84899125000001,
            "velocity": 0.7874015748031497
          },
          {
            "duration": 0.28603574999999637,
            "durationTicks": 254,
            "midi": 38,
            "name": "D2",
            "ticks": 96010,
            "time": 108.11926125000001,
            "velocity": 0.7874015748031497
          },
          {
            "duration": 0.24999974999998642,
            "durationTicks": 222,
            "midi": 41,
            "name": "F2",
            "ticks": 96250,
            "time": 108.38953125,
            "velocity": 0.7874015748031497
          },
          {
            "duration": 0.29166637499999126,
            "durationTicks": 259,
            "midi": 45,
            "name": "A2",
            "ticks": 96490,
            "time": 108.65980125000002,
            "velocity": 0.8818897637795275
          },
          {
            "duration": 0.27026999999999646,
            "durationTicks": 240,
            "midi": 41,
            "name": "F2",
            "ticks": 96730,
            "time": 108.93007125000001,
            "velocity": 0.7874015748031497
          },
          {
            "duration": 0.3074321249999912,
            "durationTicks": 273,
            "midi": 43,
            "name": "G2",
            "ticks": 96970,
            "time": 109.20034125000001,
            "velocity": 0.7874015748031497
          },
          {
            "duration": 0.2950447500000024,
            "durationTicks": 262,
            "midi": 38,
            "name": "D2",
            "ticks": 97210,
            "time": 109.47061125,
            "velocity": 0.6929133858267716
          },
          {
            "duration": 0.23085562499998957,
            "durationTicks": 205,
            "midi": 35,
            "name": "B1",
            "ticks": 97450,
            "time": 109.74088125000002,
            "velocity": 0.6062992125984252
          },
          {
            "duration": 0.2578826249999935,
            "durationTicks": 229,
            "midi": 38,
            "name": "D2",
            "ticks": 97690,
            "time": 110.01115125000001,
            "velocity": 0.7874015748031497
          },
          {
            "duration": 0.3333329999999961,
            "durationTicks": 296,
            "midi": 36,
            "name": "C2",
            "ticks": 97930,
            "time": 110.28142125000001,
            "velocity": 0.6929133858267716
          },
          {
            "duration": 0.2691438750000117,
            "durationTicks": 239,
            "midi": 34,
            "name": "A#1",
            "ticks": 98170,
            "time": 110.55169125,
            "velocity": 0.6929133858267716
          },
          {
            "duration": 0.2849096249999974,
            "durationTicks": 253,
            "midi": 33,
            "name": "A1",
            "ticks": 98410,
            "time": 110.82196125000002,
            "velocity": 0.8818897637795275
          },
          {
            "duration": 0.2939186249999892,
            "durationTicks": 261,
            "midi": 31,
            "name": "G1",
            "ticks": 98650,
            "time": 111.09223125000001,
            "velocity": 0.7874015748031497
          },
          {
            "duration": 0.2882879999999943,
            "durationTicks": 256,
            "midi": 29,
            "name": "F1",
            "ticks": 98890,
            "time": 111.36250125000001,
            "velocity": 0.8818897637795275
          },
          {
            "duration": 0.3130627500000003,
            "durationTicks": 278,
            "midi": 31,
            "name": "G1",
            "ticks": 99130,
            "time": 111.63277125,
            "velocity": 0.7874015748031497
          },
          {
            "duration": 0.25450424999999655,
            "durationTicks": 226,
            "midi": 32,
            "name": "G#1",
            "ticks": 99370,
            "time": 111.90304125000002,
            "velocity": 0.6929133858267716
          },
          {
            "duration": 0.2680177499999985,
            "durationTicks": 238,
            "midi": 33,
            "name": "A1",
            "ticks": 99610,
            "time": 112.17331125000001,
            "velocity": 0.7874015748031497
          },
          {
            "duration": 0.2736483749999934,
            "durationTicks": 243,
            "midi": 34,
            "name": "A#1",
            "ticks": 99850,
            "time": 112.44358125000001,
            "velocity": 0.6929133858267716
          },
          {
            "duration": 0.2409907499999946,
            "durationTicks": 214,
            "midi": 38,
            "name": "D2",
            "ticks": 100090,
            "time": 112.71385125,
            "velocity": 0.8818897637795275
          },
          {
            "duration": 0.29166637499999126,
            "durationTicks": 259,
            "midi": 41,
            "name": "F2",
            "ticks": 100330,
            "time": 112.98412125000002,
            "velocity": 0.8818897637795275
          },
          {
            "duration": 0.23310787499998753,
            "durationTicks": 207,
            "midi": 46,
            "name": "A#2",
            "ticks": 100570,
            "time": 113.25439125000001,
            "velocity": 0.8818897637795275
          },
          {
            "duration": 0.20608087499999783,
            "durationTicks": 183,
            "midi": 45,
            "name": "A2",
            "ticks": 100810,
            "time": 113.52466125000001,
            "velocity": 0.7874015748031497
          },
          {
            "duration": 0.22747724999999264,
            "durationTicks": 202,
            "midi": 45,
            "name": "A2",
            "ticks": 101050,
            "time": 113.79493125,
            "velocity": 0.8818897637795275
          },
          {
            "duration": 0.2297294999999906,
            "durationTicks": 204,
            "midi": 38,
            "name": "D2",
            "ticks": 101290,
            "time": 114.06520125000002,
            "velocity": 0.8818897637795275
          },
          {
            "duration": 0.25900874999999246,
            "durationTicks": 230,
            "midi": 38,
            "name": "D2",
            "ticks": 101530,
            "time": 114.33547125000001,
            "velocity": 0.7874015748031497
          },
          {
            "duration": 0.25337812499999757,
            "durationTicks": 225,
            "midi": 31,
            "name": "G1",
            "ticks": 101760,
            "time": 114.59448,
            "velocity": 0.8267716535433071
          },
          {
            "duration": 0.2916663750000055,
            "durationTicks": 259,
            "midi": 33,
            "name": "A1",
            "ticks": 102000,
            "time": 114.86475,
            "velocity": 0.8267716535433071
          },
          {
            "duration": 0.2894141250000075,
            "durationTicks": 257,
            "midi": 34,
            "name": "A#1",
            "ticks": 102240,
            "time": 115.13502,
            "velocity": 0.7322834645669292
          },
          {
            "duration": 0.24774750000000267,
            "durationTicks": 220,
            "midi": 38,
            "name": "D2",
            "ticks": 102480,
            "time": 115.40529000000001,
            "velocity": 0.8267716535433071
          },
          {
            "duration": 0.2905402499999923,
            "durationTicks": 258,
            "midi": 43,
            "name": "G2",
            "ticks": 102720,
            "time": 115.67556,
            "velocity": 0.7322834645669292
          },
          {
            "duration": 0.2972970000000146,
            "durationTicks": 264,
            "midi": 46,
            "name": "A#2",
            "ticks": 102960,
            "time": 115.94583,
            "velocity": 0.8267716535433071
          },
          {
            "duration": 0.2905402499999923,
            "durationTicks": 258,
            "midi": 45,
            "name": "A2",
            "ticks": 103200,
            "time": 116.21610000000001,
            "velocity": 0.8267716535433071
          },
          {
            "duration": 0.34572037499998487,
            "durationTicks": 307,
            "midi": 41,
            "name": "F2",
            "ticks": 103440,
            "time": 116.48637000000001,
            "velocity": 0.6377952755905512
          },
          {
            "duration": 0.32995462499999917,
            "durationTicks": 293,
            "midi": 43,
            "name": "G2",
            "ticks": 103670,
            "time": 116.74537875,
            "velocity": 0.8267716535433071
          },
          {
            "duration": 0.2972970000000146,
            "durationTicks": 264,
            "midi": 55,
            "name": "G3",
            "ticks": 103910,
            "time": 117.01564875,
            "velocity": 0.6929133858267716
          },
          {
            "duration": 0.2972970000000146,
            "durationTicks": 264,
            "midi": 53,
            "name": "F3",
            "ticks": 104150,
            "time": 117.28591875,
            "velocity": 0.6377952755905512
          },
          {
            "duration": 0.32545012500000325,
            "durationTicks": 289,
            "midi": 50,
            "name": "D3",
            "ticks": 104390,
            "time": 117.55618875,
            "velocity": 0.6929133858267716
          },
          {
            "duration": 0.24774750000000267,
            "durationTicks": 220,
            "midi": 46,
            "name": "A#2",
            "ticks": 104630,
            "time": 117.82645875,
            "velocity": 0.7322834645669292
          },
          {
            "duration": 0.2961708750000156,
            "durationTicks": 263,
            "midi": 45,
            "name": "A2",
            "ticks": 104870,
            "time": 118.09672875,
            "velocity": 0.8267716535433071
          },
          {
            "duration": 0.2759006250000198,
            "durationTicks": 245,
            "midi": 43,
            "name": "G2",
            "ticks": 105110,
            "time": 118.36699875,
            "velocity": 0.7322834645669292
          },
          {
            "duration": 0.14639624999999512,
            "durationTicks": 130,
            "midi": 38,
            "name": "D2",
            "ticks": 105350,
            "time": 118.63726875,
            "velocity": 0.8267716535433071
          },
          {
            "duration": 0.09009000000000356,
            "durationTicks": 80,
            "midi": 25,
            "name": "C#1",
            "ticks": 105490,
            "time": 118.79492625,
            "velocity": 0.984251968503937
          },
          {
            "duration": 0.2849096249999974,
            "durationTicks": 253,
            "midi": 31,
            "name": "G1",
            "ticks": 105575,
            "time": 118.890646875,
            "velocity": 0.9291338582677166
          },
          {
            "duration": 0.2950447500000166,
            "durationTicks": 262,
            "midi": 34,
            "name": "A#1",
            "ticks": 105830,
            "time": 119.17780875,
            "velocity": 0.8267716535433071
          },
          {
            "duration": 0.31531500000001245,
            "durationTicks": 280,
            "midi": 38,
            "name": "D2",
            "ticks": 106070,
            "time": 119.44807875,
            "velocity": 0.7322834645669292
          },
          {
            "duration": 0.23198175000000276,
            "durationTicks": 206,
            "midi": 41,
            "name": "F2",
            "ticks": 106310,
            "time": 119.71834875,
            "velocity": 0.8267716535433071
          },
          {
            "duration": 0.30292762499999526,
            "durationTicks": 269,
            "midi": 43,
            "name": "G2",
            "ticks": 106550,
            "time": 119.98861875,
            "velocity": 0.8267716535433071
          },
          {
            "duration": 0.3277023750000154,
            "durationTicks": 291,
            "midi": 46,
            "name": "A#2",
            "ticks": 106790,
            "time": 120.25888875,
            "velocity": 0.6377952755905512
          },
          {
            "duration": 0.3231978750000053,
            "durationTicks": 287,
            "midi": 45,
            "name": "A2",
            "ticks": 107030,
            "time": 120.52915875,
            "velocity": 0.7322834645669292
          },
          {
            "duration": 0.23423400000000072,
            "durationTicks": 208,
            "midi": 41,
            "name": "F2",
            "ticks": 107270,
            "time": 120.79942875,
            "velocity": 0.7322834645669292
          },
          {
            "duration": 0.2995492499999983,
            "durationTicks": 266,
            "midi": 43,
            "name": "G2",
            "ticks": 107510,
            "time": 121.06969875,
            "velocity": 0.8267716535433071
          },
          {
            "duration": 0.2635132500000026,
            "durationTicks": 234,
            "midi": 38,
            "name": "D2",
            "ticks": 107750,
            "time": 121.33996875,
            "velocity": 0.8267716535433071
          },
          {
            "duration": 0.29954925000001253,
            "durationTicks": 266,
            "midi": 34,
            "name": "A#1",
            "ticks": 107990,
            "time": 121.61023875,
            "velocity": 0.7322834645669292
          },
          {
            "duration": 0.14639624999999512,
            "durationTicks": 130,
            "midi": 33,
            "name": "A1",
            "ticks": 108230,
            "time": 121.88050875,
            "velocity": 0.8267716535433071
          },
          {
            "duration": 0.09009000000000356,
            "durationTicks": 80,
            "midi": 25,
            "name": "C#1",
            "ticks": 108370,
            "time": 122.03816625,
            "velocity": 0.984251968503937
          },
          {
            "duration": 0.2882879999999943,
            "durationTicks": 256,
            "midi": 31,
            "name": "G1",
            "ticks": 108455,
            "time": 122.133886875,
            "velocity": 0.8267716535433071
          },
          {
            "duration": 0.3006753750000115,
            "durationTicks": 267,
            "midi": 33,
            "name": "A1",
            "ticks": 108710,
            "time": 122.42104875,
            "velocity": 0.7322834645669292
          },
          {
            "duration": 0.29279250000001866,
            "durationTicks": 260,
            "midi": 34,
            "name": "A#1",
            "ticks": 108950,
            "time": 122.69131875,
            "velocity": 0.7322834645669292
          },
          {
            "duration": 0.24324300000000676,
            "durationTicks": 216,
            "midi": 38,
            "name": "D2",
            "ticks": 109190,
            "time": 122.96158875,
            "velocity": 0.8267716535433071
          },
          {
            "duration": 0.30405374999999424,
            "durationTicks": 270,
            "midi": 36,
            "name": "C2",
            "ticks": 109560,
            "time": 123.37825500000001,
            "velocity": 0.8818897637795275
          },
          {
            "duration": 0.28716187500000956,
            "durationTicks": 255,
            "midi": 36,
            "name": "C2",
            "ticks": 109920,
            "time": 123.78366,
            "velocity": 0.8818897637795275
          },
          {
            "duration": 0.2139637500000049,
            "durationTicks": 190,
            "midi": 31,
            "name": "G1",
            "ticks": 110160,
            "time": 124.05393000000001,
            "velocity": 0.6929133858267716
          },
          {
            "duration": 0.2072069999999968,
            "durationTicks": 184,
            "midi": 36,
            "name": "C2",
            "ticks": 110400,
            "time": 124.3242,
            "velocity": 0.8818897637795275
          },
          {
            "duration": 0.12950437500001044,
            "durationTicks": 115,
            "midi": 36,
            "name": "C2",
            "ticks": 110640,
            "time": 124.59447,
            "velocity": 0.6929133858267716
          },
          {
            "duration": 0.6846840000000043,
            "durationTicks": 608,
            "midi": 41,
            "name": "F2",
            "ticks": 110760,
            "time": 124.729605,
            "velocity": 0.7874015748031497
          },
          {
            "duration": 0.30968437499998913,
            "durationTicks": 275,
            "midi": 46,
            "name": "A#2",
            "ticks": 111480,
            "time": 125.54041500000001,
            "velocity": 0.8818897637795275
          },
          {
            "duration": 0.2364862500000129,
            "durationTicks": 210,
            "midi": 39,
            "name": "D#2",
            "ticks": 111840,
            "time": 125.94582,
            "velocity": 0.7874015748031497
          },
          {
            "duration": 0.1914412499999969,
            "durationTicks": 170,
            "midi": 39,
            "name": "D#2",
            "ticks": 112080,
            "time": 126.21609000000001,
            "velocity": 0.6929133858267716
          },
          {
            "duration": 0.25450424999999655,
            "durationTicks": 226,
            "midi": 38,
            "name": "D2",
            "ticks": 112320,
            "time": 126.48636,
            "velocity": 0.8818897637795275
          },
          {
            "duration": 0.06981975000000773,
            "durationTicks": 62,
            "midi": 38,
            "name": "D2",
            "ticks": 112560,
            "time": 126.75663,
            "velocity": 0.6929133858267716
          },
          {
            "duration": 0.5551796249999938,
            "durationTicks": 493,
            "midi": 37,
            "name": "C#2",
            "ticks": 112680,
            "time": 126.891765,
            "velocity": 0.8818897637795275
          },
          {
            "duration": 0.10698187499998824,
            "durationTicks": 95,
            "midi": 41,
            "name": "F2",
            "ticks": 113280,
            "time": 127.56744,
            "velocity": 0.6062992125984252
          },
          {
            "duration": 0.15427912500000218,
            "durationTicks": 137,
            "midi": 41,
            "name": "F2",
            "ticks": 113520,
            "time": 127.83771,
            "velocity": 0.7874015748031497
          },
          {
            "duration": 0.17792775000000915,
            "durationTicks": 158,
            "midi": 41,
            "name": "F2",
            "ticks": 113760,
            "time": 128.10798,
            "velocity": 0.6062992125984252
          },
          {
            "duration": 0.15202687499999,
            "durationTicks": 135,
            "midi": 41,
            "name": "F2",
            "ticks": 114000,
            "time": 128.37825,
            "velocity": 0.7874015748031497
          },
          {
            "duration": 0.141891749999985,
            "durationTicks": 126,
            "midi": 41,
            "name": "F2",
            "ticks": 114240,
            "time": 128.64852000000002,
            "velocity": 0.6929133858267716
          },
          {
            "duration": 0.1801800000000071,
            "durationTicks": 160,
            "midi": 41,
            "name": "F2",
            "ticks": 114480,
            "time": 128.91879,
            "velocity": 0.8818897637795275
          },
          {
            "duration": 0.16554037500000618,
            "durationTicks": 147,
            "midi": 38,
            "name": "D2",
            "ticks": 114720,
            "time": 129.18906,
            "velocity": 0.8818897637795275
          },
          {
            "duration": 0.09684675000002585,
            "durationTicks": 86,
            "midi": 38,
            "name": "D2",
            "ticks": 114960,
            "time": 129.45933,
            "velocity": 0.8818897637795275
          },
          {
            "duration": 0.7150893749999909,
            "durationTicks": 635,
            "midi": 43,
            "name": "G2",
            "ticks": 115080,
            "time": 129.594465,
            "velocity": 0.8818897637795275
          },
          {
            "duration": 0.15090074999997682,
            "durationTicks": 134,
            "midi": 44,
            "name": "G#2",
            "ticks": 115800,
            "time": 130.40527500000002,
            "velocity": 0.8818897637795275
          },
          {
            "duration": 0.11824312499999223,
            "durationTicks": 105,
            "midi": 43,
            "name": "G2",
            "ticks": 116040,
            "time": 130.675545,
            "velocity": 0.8818897637795275
          },
          {
            "duration": 0.16216199999999503,
            "durationTicks": 144,
            "midi": 43,
            "name": "G2",
            "ticks": 116280,
            "time": 130.945815,
            "velocity": 0.7874015748031497
          },
          {
            "duration": 0.08108100000001173,
            "durationTicks": 72,
            "midi": 41,
            "name": "F2",
            "ticks": 116400,
            "time": 131.08095,
            "velocity": 0.7874015748031497
          },
          {
            "duration": 0.12950437500001044,
            "durationTicks": 115,
            "midi": 39,
            "name": "D#2",
            "ticks": 116640,
            "time": 131.35122,
            "velocity": 0.7874015748031497
          },
          {
            "duration": 0.13400887500000636,
            "durationTicks": 119,
            "midi": 38,
            "name": "D2",
            "ticks": 116880,
            "time": 131.62149,
            "velocity": 0.8818897637795275
          },
          {
            "duration": 0.2894141250000075,
            "durationTicks": 257,
            "midi": 36,
            "name": "C2",
            "ticks": 117110,
            "time": 131.88049875,
            "velocity": 0.7874015748031497
          },
          {
            "duration": 0.2961708750000014,
            "durationTicks": 263,
            "midi": 38,
            "name": "D2",
            "ticks": 117350,
            "time": 132.15076875,
            "velocity": 0.8818897637795275
          },
          {
            "duration": 0.28153125000000045,
            "durationTicks": 250,
            "midi": 39,
            "name": "D#2",
            "ticks": 117590,
            "time": 132.42103875,
            "velocity": 0.6929133858267716
          },
          {
            "duration": 0.27027000000001067,
            "durationTicks": 240,
            "midi": 43,
            "name": "G2",
            "ticks": 117830,
            "time": 132.69130875,
            "velocity": 0.7874015748031497
          },
          {
            "duration": 0.32094562500000734,
            "durationTicks": 285,
            "midi": 46,
            "name": "A#2",
            "ticks": 118070,
            "time": 132.96157875,
            "velocity": 0.6929133858267716
          },
          {
            "duration": 0.30180149999998207,
            "durationTicks": 268,
            "midi": 43,
            "name": "G2",
            "ticks": 118310,
            "time": 133.23184875,
            "velocity": 0.7874015748031497
          },
          {
            "duration": 0.3051798749999932,
            "durationTicks": 271,
            "midi": 39,
            "name": "D#2",
            "ticks": 118550,
            "time": 133.50211875,
            "velocity": 0.6929133858267716
          },
          {
            "duration": 0.3175672499999962,
            "durationTicks": 282,
            "midi": 46,
            "name": "A#2",
            "ticks": 118790,
            "time": 133.77238875,
            "velocity": 0.6929133858267716
          },
          {
            "duration": 0.2477475000000311,
            "durationTicks": 220,
            "midi": 45,
            "name": "A2",
            "ticks": 119030,
            "time": 134.04265875,
            "velocity": 0.8818897637795275
          },
          {
            "duration": 0.24436912500001995,
            "durationTicks": 217,
            "midi": 45,
            "name": "A2",
            "ticks": 119270,
            "time": 134.31292875,
            "velocity": 0.6929133858267716
          },
          {
            "duration": 0.2826573749999852,
            "durationTicks": 251,
            "midi": 36,
            "name": "C2",
            "ticks": 119510,
            "time": 134.58319875,
            "velocity": 0.6929133858267716
          },
          {
            "duration": 0.2736483750000218,
            "durationTicks": 243,
            "midi": 39,
            "name": "D#2",
            "ticks": 119750,
            "time": 134.85346875,
            "velocity": 0.6929133858267716
          },
          {
            "duration": 0.2882879999999943,
            "durationTicks": 256,
            "midi": 38,
            "name": "D2",
            "ticks": 119990,
            "time": 135.12373875,
            "velocity": 0.7874015748031497
          },
          {
            "duration": 0.24324300000000676,
            "durationTicks": 216,
            "midi": 42,
            "name": "F#2",
            "ticks": 120230,
            "time": 135.39400875,
            "velocity": 0.7874015748031497
          },
          {
            "duration": 0.3074321250000196,
            "durationTicks": 273,
            "midi": 45,
            "name": "A2",
            "ticks": 120470,
            "time": 135.66427875,
            "velocity": 0.7874015748031497
          },
          {
            "duration": 0.3130627500000003,
            "durationTicks": 278,
            "midi": 38,
            "name": "D2",
            "ticks": 120710,
            "time": 135.93454875,
            "velocity": 0.7874015748031497
          },
          {
            "duration": 0.2961708750000298,
            "durationTicks": 263,
            "midi": 31,
            "name": "G1",
            "ticks": 120950,
            "time": 136.20481875,
            "velocity": 0.8818897637795275
          },
          {
            "duration": 0.3063060000000064,
            "durationTicks": 272,
            "midi": 33,
            "name": "A1",
            "ticks": 121190,
            "time": 136.47508875,
            "velocity": 0.7874015748031497
          },
          {
            "duration": 0.27026999999998225,
            "durationTicks": 240,
            "midi": 34,
            "name": "A#1",
            "ticks": 121430,
            "time": 136.74535875,
            "velocity": 0.6929133858267716
          },
          {
            "duration": 0.24999975000000063,
            "durationTicks": 222,
            "midi": 38,
            "name": "D2",
            "ticks": 121670,
            "time": 137.01562875,
            "velocity": 0.8818897637795275
          },
          {
            "duration": 0.2894141250000075,
            "durationTicks": 257,
            "midi": 41,
            "name": "F2",
            "ticks": 121910,
            "time": 137.28589875,
            "velocity": 0.7874015748031497
          },
          {
            "duration": 0.316441124999983,
            "durationTicks": 281,
            "midi": 46,
            "name": "A#2",
            "ticks": 122150,
            "time": 137.55616875,
            "velocity": 0.7874015748031497
          },
          {
            "duration": 0.2759006250000198,
            "durationTicks": 245,
            "midi": 45,
            "name": "A2",
            "ticks": 122390,
            "time": 137.82643875,
            "velocity": 0.8818897637795275
          },
          {
            "duration": 0.23648624999998447,
            "durationTicks": 210,
            "midi": 41,
            "name": "F2",
            "ticks": 122630,
            "time": 138.09670875,
            "velocity": 0.8818897637795275
          },
          {
            "duration": 0.2804051250000157,
            "durationTicks": 249,
            "midi": 43,
            "name": "G2",
            "ticks": 122870,
            "time": 138.36697875,
            "velocity": 0.7874015748031497
          },
          {
            "duration": 0.30855824999997594,
            "durationTicks": 274,
            "midi": 55,
            "name": "G3",
            "ticks": 123110,
            "time": 138.63724875000003,
            "velocity": 0.6929133858267716
          },
          {
            "duration": 0.3074321249999912,
            "durationTicks": 273,
            "midi": 53,
            "name": "F3",
            "ticks": 123350,
            "time": 138.90751875,
            "velocity": 0.6929133858267716
          },
          {
            "duration": 0.3074321249999912,
            "durationTicks": 273,
            "midi": 50,
            "name": "D3",
            "ticks": 123590,
            "time": 139.17778875000002,
            "velocity": 0.6929133858267716
          },
          {
            "duration": 0.30180149999998207,
            "durationTicks": 268,
            "midi": 46,
            "name": "A#2",
            "ticks": 123830,
            "time": 139.44805875000003,
            "velocity": 0.7874015748031497
          },
          {
            "duration": 0.30405375000000845,
            "durationTicks": 270,
            "midi": 45,
            "name": "A2",
            "ticks": 124070,
            "time": 139.71832875,
            "velocity": 0.7874015748031497
          },
          {
            "duration": 0.29166637499997705,
            "durationTicks": 259,
            "midi": 43,
            "name": "G2",
            "ticks": 124310,
            "time": 139.98859875000002,
            "velocity": 0.7874015748031497
          },
          {
            "duration": 0.29954925000001253,
            "durationTicks": 266,
            "midi": 38,
            "name": "D2",
            "ticks": 124550,
            "time": 140.25886875,
            "velocity": 0.7874015748031497
          },
          {
            "duration": 0.2781528749999893,
            "durationTicks": 247,
            "midi": 36,
            "name": "C2",
            "ticks": 124790,
            "time": 140.52913875000002,
            "velocity": 0.7874015748031497
          },
          {
            "duration": 0.31756724999996777,
            "durationTicks": 282,
            "midi": 38,
            "name": "D2",
            "ticks": 125030,
            "time": 140.79940875000003,
            "velocity": 0.8818897637795275
          },
          {
            "duration": 0.2916663750000055,
            "durationTicks": 259,
            "midi": 39,
            "name": "D#2",
            "ticks": 125270,
            "time": 141.06967875,
            "velocity": 0.6929133858267716
          },
          {
            "duration": 0.27702675000000454,
            "durationTicks": 246,
            "midi": 43,
            "name": "G2",
            "ticks": 125510,
            "time": 141.33994875000002,
            "velocity": 0.8818897637795275
          },
          {
            "duration": 0.3051798749999648,
            "durationTicks": 271,
            "midi": 36,
            "name": "C2",
            "ticks": 125750,
            "time": 141.61021875000003,
            "velocity": 0.7874015748031497
          },
          {
            "duration": 0.2623871250000036,
            "durationTicks": 233,
            "midi": 43,
            "name": "G2",
            "ticks": 125990,
            "time": 141.88048875,
            "velocity": 0.8818897637795275
          },
          {
            "duration": 0.1249998749999861,
            "durationTicks": 111,
            "midi": 36,
            "name": "C2",
            "ticks": 126230,
            "time": 142.15075875000002,
            "velocity": 0.8818897637795275
          },
          {
            "duration": 0.32545012500000325,
            "durationTicks": 289,
            "midi": 37,
            "name": "C#2",
            "ticks": 126350,
            "time": 142.28589375,
            "velocity": 0.8818897637795275
          },
          {
            "duration": 0.3186933750000094,
            "durationTicks": 283,
            "midi": 36,
            "name": "C2",
            "ticks": 126710,
            "time": 142.69129875000002,
            "velocity": 0.7874015748031497
          },
          {
            "duration": 0.293918624999975,
            "durationTicks": 261,
            "midi": 38,
            "name": "D2",
            "ticks": 126950,
            "time": 142.96156875000003,
            "velocity": 0.7874015748031497
          },
          {
            "duration": 0.2882879999999943,
            "durationTicks": 256,
            "midi": 39,
            "name": "D#2",
            "ticks": 127190,
            "time": 143.23183875,
            "velocity": 0.7874015748031497
          },
          {
            "duration": 0.2680177500000127,
            "durationTicks": 238,
            "midi": 43,
            "name": "G2",
            "ticks": 127430,
            "time": 143.50210875000002,
            "velocity": 0.8818897637795275
          },
          {
            "duration": 0.2545042499999681,
            "durationTicks": 226,
            "midi": 44,
            "name": "G#2",
            "ticks": 127670,
            "time": 143.77237875000003,
            "velocity": 0.6929133858267716
          },
          {
            "duration": 0.3231978750000053,
            "durationTicks": 287,
            "midi": 46,
            "name": "A#2",
            "ticks": 127910,
            "time": 144.04264875,
            "velocity": 0.7874015748031497
          },
          {
            "duration": 0.2725222499999802,
            "durationTicks": 242,
            "midi": 39,
            "name": "D#2",
            "ticks": 128150,
            "time": 144.31291875000002,
            "velocity": 0.7874015748031497
          },
          {
            "duration": 0.2691438749999975,
            "durationTicks": 239,
            "midi": 44,
            "name": "G#2",
            "ticks": 128390,
            "time": 144.58318875,
            "velocity": 0.7874015748031497
          },
          {
            "duration": 0.2229727499999683,
            "durationTicks": 198,
            "midi": 43,
            "name": "G2",
            "ticks": 128630,
            "time": 144.85345875000002,
            "velocity": 0.8818897637795275
          },
          {
            "duration": 0.293918624999975,
            "durationTicks": 261,
            "midi": 38,
            "name": "D2",
            "ticks": 128870,
            "time": 145.12372875000003,
            "velocity": 0.7874015748031497
          },
          {
            "duration": 0.27590062499999135,
            "durationTicks": 245,
            "midi": 34,
            "name": "A#1",
            "ticks": 129110,
            "time": 145.39399875,
            "velocity": 0.7874015748031497
          },
          {
            "duration": 0.1463962499999809,
            "durationTicks": 130,
            "midi": 38,
            "name": "D2",
            "ticks": 129350,
            "time": 145.66426875000002,
            "velocity": 0.7874015748031497
          },
          {
            "duration": 0.09008999999997513,
            "durationTicks": 80,
            "midi": 25,
            "name": "C#1",
            "ticks": 129470,
            "time": 145.79940375,
            "velocity": 0.984251968503937
          },
          {
            "duration": 0.30968437499998913,
            "durationTicks": 275,
            "midi": 31,
            "name": "G1",
            "ticks": 129575,
            "time": 145.917646875,
            "velocity": 0.7874015748031497
          },
          {
            "duration": 0.2635132499999884,
            "durationTicks": 234,
            "midi": 33,
            "name": "A1",
            "ticks": 129830,
            "time": 146.20480875,
            "velocity": 0.8818897637795275
          },
          {
            "duration": 0.27477449999997816,
            "durationTicks": 244,
            "midi": 34,
            "name": "A#1",
            "ticks": 130070,
            "time": 146.47507875000002,
            "velocity": 0.7874015748031497
          },
          {
            "duration": 0.29391862500000343,
            "durationTicks": 261,
            "midi": 38,
            "name": "D2",
            "ticks": 130310,
            "time": 146.74534875,
            "velocity": 0.8818897637795275
          },
          {
            "duration": 0.26013487500000565,
            "durationTicks": 231,
            "midi": 31,
            "name": "G1",
            "ticks": 130550,
            "time": 147.01561875000002,
            "velocity": 0.7874015748031497
          },
          {
            "duration": 0.24099074999998038,
            "durationTicks": 214,
            "midi": 33,
            "name": "A1",
            "ticks": 130790,
            "time": 147.28588875000003,
            "velocity": 0.7874015748031497
          },
          {
            "duration": 0.2781528749999893,
            "durationTicks": 247,
            "midi": 34,
            "name": "A#1",
            "ticks": 131030,
            "time": 147.55615875,
            "velocity": 0.8818897637795275
          },
          {
            "duration": 0.27027000000001067,
            "durationTicks": 240,
            "midi": 38,
            "name": "D2",
            "ticks": 131270,
            "time": 147.82642875000002,
            "velocity": 0.6929133858267716
          },
          {
            "duration": 0.23536012499997128,
            "durationTicks": 209,
            "midi": 43,
            "name": "G2",
            "ticks": 131510,
            "time": 148.09669875000003,
            "velocity": 0.6929133858267716
          },
          {
            "duration": 0.22860337500000583,
            "durationTicks": 203,
            "midi": 43,
            "name": "G2",
            "ticks": 131750,
            "time": 148.36696875,
            "velocity": 0.7874015748031497
          },
          {
            "duration": 0.21396374999997647,
            "durationTicks": 190,
            "midi": 42,
            "name": "F#2",
            "ticks": 131990,
            "time": 148.63723875000002,
            "velocity": 0.6929133858267716
          },
          {
            "duration": 0.219594375000014,
            "durationTicks": 195,
            "midi": 42,
            "name": "F#2",
            "ticks": 132230,
            "time": 148.90750875,
            "velocity": 0.7874015748031497
          },
          {
            "duration": 0.2533781250000118,
            "durationTicks": 225,
            "midi": 41,
            "name": "F2",
            "ticks": 132470,
            "time": 149.17777875000002,
            "velocity": 0.7874015748031497
          },
          {
            "duration": 0.22522499999996626,
            "durationTicks": 200,
            "midi": 29,
            "name": "F1",
            "ticks": 132710,
            "time": 149.44804875000003,
            "velocity": 0.8818897637795275
          },
          {
            "duration": 0.26576550000001475,
            "durationTicks": 236,
            "midi": 32,
            "name": "G#1",
            "ticks": 132950,
            "time": 149.71831875,
            "velocity": 0.7874015748031497
          },
          {
            "duration": 0.2961708750000014,
            "durationTicks": 263,
            "midi": 36,
            "name": "C2",
            "ticks": 133190,
            "time": 149.98858875000002,
            "velocity": 0.6929133858267716
          },
          {
            "duration": 0.2781528749999609,
            "durationTicks": 247,
            "midi": 34,
            "name": "A#1",
            "ticks": 133430,
            "time": 150.25885875000003,
            "velocity": 0.7874015748031497
          },
          {
            "duration": 0.2837834999999984,
            "durationTicks": 252,
            "midi": 38,
            "name": "D2",
            "ticks": 133670,
            "time": 150.52912875,
            "velocity": 0.7874015748031497
          },
          {
            "duration": 0.24662137499996106,
            "durationTicks": 219,
            "midi": 41,
            "name": "F2",
            "ticks": 133910,
            "time": 150.79939875000002,
            "velocity": 0.7874015748031497
          },
          {
            "duration": 0.33671137499999304,
            "durationTicks": 299,
            "midi": 43,
            "name": "G2",
            "ticks": 134150,
            "time": 151.06966875,
            "velocity": 0.7874015748031497
          },
          {
            "duration": 0.29954925000001253,
            "durationTicks": 266,
            "midi": 41,
            "name": "F2",
            "ticks": 134390,
            "time": 151.33993875000002,
            "velocity": 0.7874015748031497
          },
          {
            "duration": 0.2668916249999711,
            "durationTicks": 237,
            "midi": 39,
            "name": "D#2",
            "ticks": 134630,
            "time": 151.61020875000003,
            "velocity": 0.6929133858267716
          },
          {
            "duration": 0.30855825000000436,
            "durationTicks": 274,
            "midi": 38,
            "name": "D2",
            "ticks": 134870,
            "time": 151.88047875,
            "velocity": 0.8818897637795275
          },
          {
            "duration": 0.2894141250000075,
            "durationTicks": 257,
            "midi": 36,
            "name": "C2",
            "ticks": 135110,
            "time": 152.15074875000002,
            "velocity": 0.7874015748031497
          },
          {
            "duration": 0.2567564999999661,
            "durationTicks": 228,
            "midi": 34,
            "name": "A#1",
            "ticks": 135350,
            "time": 152.42101875000003,
            "velocity": 0.6929133858267716
          },
          {
            "duration": 0.3074321249999912,
            "durationTicks": 273,
            "midi": 38,
            "name": "D2",
            "ticks": 135590,
            "time": 152.69128875,
            "velocity": 0.7874015748031497
          },
          {
            "duration": 0.25900874999996404,
            "durationTicks": 230,
            "midi": 41,
            "name": "F2",
            "ticks": 135830,
            "time": 152.96155875000002,
            "velocity": 0.7874015748031497
          },
          {
            "duration": 0.23873850000001084,
            "durationTicks": 212,
            "midi": 34,
            "name": "A#1",
            "ticks": 136090,
            "time": 153.25435124999998,
            "velocity": 0.7874015748031497
          },
          {
            "duration": 0.2015763749999735,
            "durationTicks": 179,
            "midi": 38,
            "name": "D2",
            "ticks": 136310,
            "time": 153.50209875000002,
            "velocity": 0.7874015748031497
          },
          {
            "duration": 0.22747724999996422,
            "durationTicks": 202,
            "midi": 38,
            "name": "D2",
            "ticks": 136550,
            "time": 153.77236875000003,
            "velocity": 0.7874015748031497
          },
          {
            "duration": 0.2027025000000151,
            "durationTicks": 180,
            "midi": 43,
            "name": "G2",
            "ticks": 136790,
            "time": 154.04263875,
            "velocity": 0.8818897637795275
          },
          {
            "duration": 0.2623871249999752,
            "durationTicks": 233,
            "midi": 43,
            "name": "G2",
            "ticks": 137030,
            "time": 154.31290875000002,
            "velocity": 0.8818897637795275
          },
          {
            "duration": 0.2792789999999741,
            "durationTicks": 248,
            "midi": 38,
            "name": "D2",
            "ticks": 137270,
            "time": 154.58317875000003,
            "velocity": 0.7874015748031497
          },
          {
            "duration": 0.2961708750000014,
            "durationTicks": 263,
            "midi": 43,
            "name": "G2",
            "ticks": 137510,
            "time": 154.85344875,
            "velocity": 0.7874015748031497
          },
          {
            "duration": 0.3108104999999739,
            "durationTicks": 276,
            "midi": 31,
            "name": "G1",
            "ticks": 137750,
            "time": 155.12371875000002,
            "velocity": 0.7874015748031497
          },
          {
            "duration": 0.2680177500000127,
            "durationTicks": 238,
            "midi": 43,
            "name": "G2",
            "ticks": 137990,
            "time": 155.39398875,
            "velocity": 0.7874015748031497
          },
          {
            "duration": 0.23761237499999766,
            "durationTicks": 211,
            "midi": 44,
            "name": "G#2",
            "ticks": 138230,
            "time": 155.66425875000002,
            "velocity": 0.8818897637795275
          },
          {
            "duration": 0.2567564999999661,
            "durationTicks": 228,
            "midi": 46,
            "name": "A#2",
            "ticks": 138470,
            "time": 155.93452875000003,
            "velocity": 0.6929133858267716
          },
          {
            "duration": 0.26463937500000156,
            "durationTicks": 235,
            "midi": 39,
            "name": "D#2",
            "ticks": 138710,
            "time": 156.20479875,
            "velocity": 0.6929133858267716
          },
          {
            "duration": 0.3018015000000105,
            "durationTicks": 268,
            "midi": 46,
            "name": "A#2",
            "ticks": 138950,
            "time": 156.47506875000002,
            "velocity": 0.6929133858267716
          },
          {
            "duration": 0.3006753749999689,
            "durationTicks": 267,
            "midi": 44,
            "name": "G#2",
            "ticks": 139190,
            "time": 156.74533875000003,
            "velocity": 0.7874015748031497
          },
          {
            "duration": 0.26013487500000565,
            "durationTicks": 231,
            "midi": 46,
            "name": "A#2",
            "ticks": 139430,
            "time": 157.01560875,
            "velocity": 0.6929133858267716
          },
          {
            "duration": 0.2725222499999802,
            "durationTicks": 242,
            "midi": 48,
            "name": "C3",
            "ticks": 139670,
            "time": 157.28587875000002,
            "velocity": 0.6929133858267716
          },
          {
            "duration": 0.2409907500000088,
            "durationTicks": 214,
            "midi": 39,
            "name": "D#2",
            "ticks": 139910,
            "time": 157.55614875,
            "velocity": 0.8818897637795275
          },
          {
            "duration": 0.2882879999999943,
            "durationTicks": 256,
            "midi": 43,
            "name": "G2",
            "ticks": 140150,
            "time": 157.82641875000002,
            "velocity": 0.8818897637795275
          },
          {
            "duration": 0.29166637499997705,
            "durationTicks": 259,
            "midi": 38,
            "name": "D2",
            "ticks": 140390,
            "time": 158.09668875000003,
            "velocity": 0.7874015748031497
          },
          {
            "duration": 0.22860337500000583,
            "durationTicks": 203,
            "midi": 34,
            "name": "A#1",
            "ticks": 140630,
            "time": 158.36695875,
            "velocity": 0.6929133858267716
          },
          {
            "duration": 0.24774749999997425,
            "durationTicks": 220,
            "midi": 43,
            "name": "G2",
            "ticks": 140870,
            "time": 158.63722875000002,
            "velocity": 0.8818897637795275
          },
          {
            "duration": 0.31869337499998096,
            "durationTicks": 283,
            "midi": 42,
            "name": "F#2",
            "ticks": 141110,
            "time": 158.90749875000003,
            "velocity": 0.7874015748031497
          },
          {
            "duration": 0.2623871250000036,
            "durationTicks": 233,
            "midi": 38,
            "name": "D2",
            "ticks": 141350,
            "time": 159.17776875,
            "velocity": 0.8818897637795275
          },
          {
            "duration": 0.24211687499996515,
            "durationTicks": 215,
            "midi": 33,
            "name": "A1",
            "ticks": 141590,
            "time": 159.44803875000002,
            "velocity": 0.7874015748031497
          },
          {
            "duration": 0.2409907500000088,
            "durationTicks": 214,
            "midi": 42,
            "name": "F#2",
            "ticks": 141830,
            "time": 159.71830875,
            "velocity": 0.8818897637795275
          },
          {
            "duration": 0.22747724999996422,
            "durationTicks": 202,
            "midi": 41,
            "name": "F2",
            "ticks": 142070,
            "time": 159.98857875000002,
            "velocity": 0.7874015748031497
          },
          {
            "duration": 0.2770267499999761,
            "durationTicks": 246,
            "midi": 34,
            "name": "A#1",
            "ticks": 142310,
            "time": 160.25884875000003,
            "velocity": 0.7874015748031497
          },
          {
            "duration": 0.2691438749999975,
            "durationTicks": 239,
            "midi": 36,
            "name": "C2",
            "ticks": 142550,
            "time": 160.52911875,
            "velocity": 0.6929133858267716
          },
          {
            "duration": 0.26576550000001475,
            "durationTicks": 236,
            "midi": 38,
            "name": "D2",
            "ticks": 142790,
            "time": 160.79938875000002,
            "velocity": 0.8818897637795275
          },
          {
            "duration": 0.2454952499999763,
            "durationTicks": 218,
            "midi": 40,
            "name": "E2",
            "ticks": 143030,
            "time": 161.06965875000003,
            "velocity": 0.6929133858267716
          },
          {
            "duration": 0.2680177500000127,
            "durationTicks": 238,
            "midi": 43,
            "name": "G2",
            "ticks": 143270,
            "time": 161.33992875,
            "velocity": 0.7874015748031497
          },
          {
            "duration": 0.25225199999997017,
            "durationTicks": 224,
            "midi": 46,
            "name": "A#2",
            "ticks": 143510,
            "time": 161.61019875000002,
            "velocity": 0.7874015748031497
          },
          {
            "duration": 0.22184662500001195,
            "durationTicks": 197,
            "midi": 40,
            "name": "E2",
            "ticks": 143750,
            "time": 161.88046875,
            "velocity": 0.6929133858267716
          },
          {
            "duration": 0.2725222500000086,
            "durationTicks": 242,
            "midi": 39,
            "name": "D#2",
            "ticks": 143990,
            "time": 162.15073875000002,
            "velocity": 0.7874015748031497
          },
          {
            "duration": 0.2680177499999843,
            "durationTicks": 238,
            "midi": 43,
            "name": "G2",
            "ticks": 144230,
            "time": 162.42100875000003,
            "velocity": 0.8818897637795275
          },
          {
            "duration": 0.23310787500000174,
            "durationTicks": 207,
            "midi": 46,
            "name": "A#2",
            "ticks": 144470,
            "time": 162.69127875,
            "velocity": 0.6929133858267716
          },
          {
            "duration": 0.2072069999999826,
            "durationTicks": 184,
            "midi": 39,
            "name": "D#2",
            "ticks": 144710,
            "time": 162.96154875000002,
            "velocity": 0.7874015748031497
          },
          {
            "duration": 0.3671167499999797,
            "durationTicks": 326,
            "midi": 39,
            "name": "D#2",
            "ticks": 144950,
            "time": 163.23181875000003,
            "velocity": 0.7874015748031497
          },
          {
            "duration": 0.32432399999999006,
            "durationTicks": 288,
            "midi": 39,
            "name": "D#2",
            "ticks": 145310,
            "time": 163.63722375,
            "velocity": 0.7874015748031497
          },
          {
            "duration": 0.19932412500000396,
            "durationTicks": 177,
            "midi": 39,
            "name": "D#2",
            "ticks": 145670,
            "time": 164.04262875,
            "velocity": 0.7874015748031497
          },
          {
            "duration": 0.2894141250000075,
            "durationTicks": 257,
            "midi": 45,
            "name": "A2",
            "ticks": 145910,
            "time": 164.31289875000002,
            "velocity": 0.8818897637795275
          },
          {
            "duration": 0.21846824999997239,
            "durationTicks": 194,
            "midi": 33,
            "name": "A1",
            "ticks": 146150,
            "time": 164.58316875000003,
            "velocity": 0.8818897637795275
          },
          {
            "duration": 0.21171150000000694,
            "durationTicks": 188,
            "midi": 36,
            "name": "C2",
            "ticks": 146390,
            "time": 164.85343875,
            "velocity": 0.7874015748031497
          },
          {
            "duration": 0.0979728749999822,
            "durationTicks": 87,
            "midi": 37,
            "name": "C#2",
            "ticks": 146630,
            "time": 165.12370875000002,
            "velocity": 0.7874015748031497
          },
          {
            "duration": 0.19481962500000805,
            "durationTicks": 173,
            "midi": 38,
            "name": "D2",
            "ticks": 146750,
            "time": 165.25884375,
            "velocity": 0.8818897637795275
          },
          {
            "duration": 0.3603599999999574,
            "durationTicks": 320,
            "midi": 43,
            "name": "G2",
            "ticks": 147710,
            "time": 166.33992375000003,
            "velocity": 0.8818897637795275
          },
          {
            "duration": 0.29729699999995773,
            "durationTicks": 264,
            "midi": 38,
            "name": "D2",
            "ticks": 148070,
            "time": 166.74532875000003,
            "velocity": 0.7874015748031497
          },
          {
            "duration": 0.28153125000000045,
            "durationTicks": 250,
            "midi": 34,
            "name": "A#1",
            "ticks": 148310,
            "time": 167.01559875,
            "velocity": 0.6929133858267716
          },
          {
            "duration": 0.22747724999996422,
            "durationTicks": 202,
            "midi": 43,
            "name": "G2",
            "ticks": 148550,
            "time": 167.28586875000002,
            "velocity": 0.8818897637795275
          },
          {
            "duration": 0.2545042499999681,
            "durationTicks": 226,
            "midi": 41,
            "name": "F2",
            "ticks": 148790,
            "time": 167.55613875000003,
            "velocity": 0.6929133858267716
          },
          {
            "duration": 0.2635132499999884,
            "durationTicks": 234,
            "midi": 38,
            "name": "D2",
            "ticks": 149030,
            "time": 167.82640875,
            "velocity": 0.8818897637795275
          },
          {
            "duration": 0.28153124999997203,
            "durationTicks": 250,
            "midi": 34,
            "name": "A#1",
            "ticks": 149270,
            "time": 168.09667875000002,
            "velocity": 0.8818897637795275
          },
          {
            "duration": 0.15765749999999912,
            "durationTicks": 140,
            "midi": 38,
            "name": "D2",
            "ticks": 149510,
            "time": 168.36694875,
            "velocity": 0.8818897637795275
          },
          {
            "duration": 0.3603599999999574,
            "durationTicks": 320,
            "midi": 39,
            "name": "D#2",
            "ticks": 149630,
            "time": 168.50208375000003,
            "velocity": 0.7874015748031497
          },
          {
            "duration": 0.27477449999997816,
            "durationTicks": 244,
            "midi": 43,
            "name": "G2",
            "ticks": 149990,
            "time": 168.90748875000003,
            "velocity": 0.7874015748031497
          },
          {
            "duration": 0.2905402499999923,
            "durationTicks": 258,
            "midi": 46,
            "name": "A#2",
            "ticks": 150230,
            "time": 169.17775875,
            "velocity": 0.6929133858267716
          },
          {
            "duration": 0.23310787499997332,
            "durationTicks": 207,
            "midi": 39,
            "name": "D#2",
            "ticks": 150470,
            "time": 169.44802875000002,
            "velocity": 0.7874015748031497
          },
          {
            "duration": 0.24662137499996106,
            "durationTicks": 219,
            "midi": 38,
            "name": "D2",
            "ticks": 150710,
            "time": 169.71829875000003,
            "velocity": 0.7874015748031497
          },
          {
            "duration": 0.2139637500000049,
            "durationTicks": 190,
            "midi": 42,
            "name": "F#2",
            "ticks": 150950,
            "time": 169.98856875,
            "velocity": 0.7874015748031497
          },
          {
            "duration": 0.3006753749999689,
            "durationTicks": 267,
            "midi": 45,
            "name": "A2",
            "ticks": 151190,
            "time": 170.25883875000002,
            "velocity": 0.7874015748031497
          },
          {
            "duration": 0.13513500000001955,
            "durationTicks": 120,
            "midi": 38,
            "name": "D2",
            "ticks": 151430,
            "time": 170.52910875,
            "velocity": 0.8818897637795275
          },
          {
            "duration": 0.3828824999999938,
            "durationTicks": 340,
            "midi": 43,
            "name": "G2",
            "ticks": 151550,
            "time": 170.66424375000003,
            "velocity": 0.8818897637795275
          },
          {
            "duration": 0.28378349999997,
            "durationTicks": 252,
            "midi": 38,
            "name": "D2",
            "ticks": 151910,
            "time": 171.06964875000003,
            "velocity": 0.7874015748031497
          },
          {
            "duration": 0.25450424999999655,
            "durationTicks": 226,
            "midi": 34,
            "name": "A#1",
            "ticks": 152150,
            "time": 171.33991875,
            "velocity": 0.6929133858267716
          },
          {
            "duration": 0.24099074999998038,
            "durationTicks": 214,
            "midi": 43,
            "name": "G2",
            "ticks": 152390,
            "time": 171.61018875000002,
            "velocity": 0.7874015748031497
          },
          {
            "duration": 0.3231978749999769,
            "durationTicks": 287,
            "midi": 38,
            "name": "D2",
            "ticks": 152630,
            "time": 171.88045875000003,
            "velocity": 0.7874015748031497
          },
          {
            "duration": 0.2668916249999995,
            "durationTicks": 237,
            "midi": 34,
            "name": "A#1",
            "ticks": 152870,
            "time": 172.15072875,
            "velocity": 0.6929133858267716
          },
          {
            "duration": 0.28603574999996795,
            "durationTicks": 254,
            "midi": 31,
            "name": "G1",
            "ticks": 153110,
            "time": 172.42099875000002,
            "velocity": 0.8818897637795275
          },
          {
            "duration": 0.2364862500000129,
            "durationTicks": 210,
            "midi": 38,
            "name": "D2",
            "ticks": 153350,
            "time": 172.69126875,
            "velocity": 0.8818897637795275
          },
          {
            "duration": 0.35247712500000716,
            "durationTicks": 313,
            "midi": 39,
            "name": "D#2",
            "ticks": 153590,
            "time": 172.96153875000002,
            "velocity": 0.7874015748031497
          },
          {
            "duration": 0.361486124999999,
            "durationTicks": 321,
            "midi": 39,
            "name": "D#2",
            "ticks": 153950,
            "time": 173.36694375000002,
            "velocity": 0.8818897637795275
          },
          {
            "duration": 0.3603599999999858,
            "durationTicks": 320,
            "midi": 39,
            "name": "D#2",
            "ticks": 154310,
            "time": 173.77234875000002,
            "velocity": 0.8818897637795275
          },
          {
            "duration": 0.27590062499996293,
            "durationTicks": 245,
            "midi": 39,
            "name": "D#2",
            "ticks": 154670,
            "time": 174.17775375000002,
            "velocity": 0.8818897637795275
          },
          {
            "duration": 0.16779262499997571,
            "durationTicks": 149,
            "midi": 39,
            "name": "D#2",
            "ticks": 155030,
            "time": 174.58315875000002,
            "velocity": 0.8818897637795275
          },
          {
            "duration": 0.25900874999999246,
            "durationTicks": 230,
            "midi": 39,
            "name": "D#2",
            "ticks": 155270,
            "time": 174.85342875,
            "velocity": 0.8818897637795275
          },
          {
            "duration": 0.2567564999999945,
            "durationTicks": 228,
            "midi": 38,
            "name": "D2",
            "ticks": 155510,
            "time": 175.12369875000002,
            "velocity": 0.8818897637795275
          },
          {
            "duration": 0.28040512499995884,
            "durationTicks": 249,
            "midi": 33,
            "name": "A1",
            "ticks": 155750,
            "time": 175.39396875000003,
            "velocity": 0.8818897637795275
          },
          {
            "duration": 0.24662137499998948,
            "durationTicks": 219,
            "midi": 30,
            "name": "F#1",
            "ticks": 155990,
            "time": 175.66423875,
            "velocity": 0.8818897637795275
          },
          {
            "duration": 0.29954925000001253,
            "durationTicks": 266,
            "midi": 38,
            "name": "D2",
            "ticks": 156230,
            "time": 175.93450875000002,
            "velocity": 0.8818897637795275
          },
          {
            "duration": 0.23648624999998447,
            "durationTicks": 210,
            "midi": 39,
            "name": "D#2",
            "ticks": 156470,
            "time": 176.20477875000003,
            "velocity": 0.7874015748031497
          },
          {
            "duration": 0.25900874999999246,
            "durationTicks": 230,
            "midi": 43,
            "name": "G2",
            "ticks": 156710,
            "time": 176.47504875,
            "velocity": 0.8818897637795275
          },
          {
            "duration": 0.2286033749999774,
            "durationTicks": 203,
            "midi": 46,
            "name": "A#2",
            "ticks": 156950,
            "time": 176.74531875000002,
            "velocity": 0.7874015748031497
          },
          {
            "duration": 0.20720700000001102,
            "durationTicks": 184,
            "midi": 39,
            "name": "D#2",
            "ticks": 157190,
            "time": 177.01558875,
            "velocity": 0.7874015748031497
          },
          {
            "duration": 0.1632881249999798,
            "durationTicks": 145,
            "midi": 38,
            "name": "D2",
            "ticks": 157430,
            "time": 177.28585875000002,
            "velocity": 0.8818897637795275
          },
          {
            "duration": 1.6441424999999867,
            "durationTicks": 1460,
            "midi": 50,
            "name": "D3",
            "ticks": 157910,
            "time": 177.82639875,
            "velocity": 0.8818897637795275
          },
          {
            "duration": 0.3108105000000023,
            "durationTicks": 276,
            "midi": 31,
            "name": "G1",
            "ticks": 159350,
            "time": 179.44801875000002,
            "velocity": 0.8818897637795275
          },
          {
            "duration": 0.31193662499995867,
            "durationTicks": 277,
            "midi": 33,
            "name": "A1",
            "ticks": 159590,
            "time": 179.71828875000003,
            "velocity": 0.8818897637795275
          },
          {
            "duration": 0.2691438749999975,
            "durationTicks": 239,
            "midi": 34,
            "name": "A#1",
            "ticks": 159830,
            "time": 179.98855875,
            "velocity": 0.7874015748031497
          },
          {
            "duration": 0.25788262499997927,
            "durationTicks": 229,
            "midi": 38,
            "name": "D2",
            "ticks": 160070,
            "time": 180.25882875000002,
            "velocity": 0.8818897637795275
          },
          {
            "duration": 0.293918624999975,
            "durationTicks": 261,
            "midi": 43,
            "name": "G2",
            "ticks": 160310,
            "time": 180.52909875000003,
            "velocity": 0.8818897637795275
          },
          {
            "duration": 0.30968437499998913,
            "durationTicks": 275,
            "midi": 45,
            "name": "A2",
            "ticks": 160550,
            "time": 180.79936875,
            "velocity": 0.7874015748031497
          },
          {
            "duration": 0.29729699999995773,
            "durationTicks": 264,
            "midi": 46,
            "name": "A#2",
            "ticks": 160790,
            "time": 181.06963875000002,
            "velocity": 0.7874015748031497
          },
          {
            "duration": 0.29842312499999935,
            "durationTicks": 265,
            "midi": 41,
            "name": "F2",
            "ticks": 161030,
            "time": 181.33990875,
            "velocity": 0.8818897637795275
          },
          {
            "duration": 0.3231978750000053,
            "durationTicks": 287,
            "midi": 46,
            "name": "A#2",
            "ticks": 161270,
            "time": 181.61017875000002,
            "velocity": 0.8818897637795275
          },
          {
            "duration": 0.32545012499997483,
            "durationTicks": 289,
            "midi": 44,
            "name": "G#2",
            "ticks": 161510,
            "time": 181.88044875000003,
            "velocity": 0.8818897637795275
          },
          {
            "duration": 0.24887362500001586,
            "durationTicks": 221,
            "midi": 43,
            "name": "G2",
            "ticks": 161750,
            "time": 182.15071875,
            "velocity": 0.7874015748031497
          },
          {
            "duration": 0.3175672499999962,
            "durationTicks": 282,
            "midi": 41,
            "name": "F2",
            "ticks": 161990,
            "time": 182.42098875000002,
            "velocity": 0.7874015748031497
          },
          {
            "duration": 0.27590062499996293,
            "durationTicks": 245,
            "midi": 34,
            "name": "A#1",
            "ticks": 162230,
            "time": 182.69125875000003,
            "velocity": 0.6929133858267716
          },
          {
            "duration": 0.2409907500000088,
            "durationTicks": 214,
            "midi": 36,
            "name": "C2",
            "ticks": 162470,
            "time": 182.96152875,
            "velocity": 0.7874015748031497
          },
          {
            "duration": 0.28040512499995884,
            "durationTicks": 249,
            "midi": 38,
            "name": "D2",
            "ticks": 162710,
            "time": 183.23179875000002,
            "velocity": 0.8818897637795275
          },
          {
            "duration": 0.29391862500000343,
            "durationTicks": 261,
            "midi": 41,
            "name": "F2",
            "ticks": 162950,
            "time": 183.50206875,
            "velocity": 0.7874015748031497
          },
          {
            "duration": 0.24324300000000676,
            "durationTicks": 216,
            "midi": 39,
            "name": "D#2",
            "ticks": 163190,
            "time": 183.77233875000002,
            "velocity": 0.8818897637795275
          },
          {
            "duration": 0.2995492499999841,
            "durationTicks": 266,
            "midi": 43,
            "name": "G2",
            "ticks": 163430,
            "time": 184.04260875000003,
            "velocity": 0.8818897637795275
          },
          {
            "duration": 0.2409907500000088,
            "durationTicks": 214,
            "midi": 46,
            "name": "A#2",
            "ticks": 163670,
            "time": 184.31287875,
            "velocity": 0.8818897637795275
          },
          {
            "duration": 0.21171149999997851,
            "durationTicks": 188,
            "midi": 43,
            "name": "G2",
            "ticks": 163910,
            "time": 184.58314875000002,
            "velocity": 0.6929133858267716
          },
          {
            "duration": 0.24887362499998744,
            "durationTicks": 221,
            "midi": 39,
            "name": "D#2",
            "ticks": 164150,
            "time": 184.85341875000003,
            "velocity": 0.7874015748031497
          },
          {
            "duration": 0.23873850000001084,
            "durationTicks": 212,
            "midi": 41,
            "name": "F2",
            "ticks": 164390,
            "time": 185.12368875,
            "velocity": 0.6929133858267716
          },
          {
            "duration": 0.29729699999995773,
            "durationTicks": 264,
            "midi": 43,
            "name": "G2",
            "ticks": 164630,
            "time": 185.39395875000002,
            "velocity": 0.8818897637795275
          },
          {
            "duration": 0.3119366249999871,
            "durationTicks": 277,
            "midi": 46,
            "name": "A#2",
            "ticks": 164870,
            "time": 185.66422875,
            "velocity": 0.7874015748031497
          },
          {
            "duration": 0.2240988750000099,
            "durationTicks": 199,
            "midi": 45,
            "name": "A2",
            "ticks": 165110,
            "time": 185.93449875000002,
            "velocity": 0.8818897637795275
          },
          {
            "duration": 0.23873849999998242,
            "durationTicks": 212,
            "midi": 45,
            "name": "A2",
            "ticks": 165350,
            "time": 186.20476875000003,
            "velocity": 0.8818897637795275
          },
          {
            "duration": 0.3063060000000064,
            "durationTicks": 272,
            "midi": 36,
            "name": "C2",
            "ticks": 165590,
            "time": 186.47503875,
            "velocity": 0.8818897637795275
          },
          {
            "duration": 0.24774749999997425,
            "durationTicks": 220,
            "midi": 37,
            "name": "C#2",
            "ticks": 165830,
            "time": 186.74530875000002,
            "velocity": 0.7874015748031497
          },
          {
            "duration": 0.25337812499998336,
            "durationTicks": 225,
            "midi": 38,
            "name": "D2",
            "ticks": 166070,
            "time": 187.01557875000003,
            "velocity": 0.7874015748031497
          },
          {
            "duration": 0.2353601249999997,
            "durationTicks": 209,
            "midi": 42,
            "name": "F#2",
            "ticks": 166310,
            "time": 187.28584875,
            "velocity": 0.6929133858267716
          },
          {
            "duration": 0.35360324999999193,
            "durationTicks": 314,
            "midi": 45,
            "name": "A2",
            "ticks": 166550,
            "time": 187.55611875000002,
            "velocity": 0.6929133858267716
          },
          {
            "duration": 0.2612609999999904,
            "durationTicks": 232,
            "midi": 38,
            "name": "D2",
            "ticks": 166790,
            "time": 187.82638875,
            "velocity": 0.8818897637795275
          },
          {
            "duration": 0.29954925000001253,
            "durationTicks": 266,
            "midi": 31,
            "name": "G1",
            "ticks": 167030,
            "time": 188.09665875000002,
            "velocity": 0.8818897637795275
          },
          {
            "duration": 0.29617087499997297,
            "durationTicks": 263,
            "midi": 33,
            "name": "A1",
            "ticks": 167270,
            "time": 188.36692875000003,
            "velocity": 0.8818897637795275
          },
          {
            "duration": 0.27027000000001067,
            "durationTicks": 240,
            "midi": 34,
            "name": "A#1",
            "ticks": 167510,
            "time": 188.63719875,
            "velocity": 0.6929133858267716
          },
          {
            "duration": 0.3344591249999951,
            "durationTicks": 297,
            "midi": 38,
            "name": "D2",
            "ticks": 167750,
            "time": 188.90746875000002,
            "velocity": 0.8818897637795275
          },
          {
            "duration": 0.24887362499998744,
            "durationTicks": 221,
            "midi": 36,
            "name": "C2",
            "ticks": 167990,
            "time": 189.17773875000003,
            "velocity": 0.7874015748031497
          },
          {
            "duration": 0.3175672499999962,
            "durationTicks": 282,
            "midi": 28,
            "name": "E1",
            "ticks": 168230,
            "time": 189.44800875,
            "velocity": 0.7874015748031497
          },
          {
            "duration": 0.28378349999997,
            "durationTicks": 252,
            "midi": 31,
            "name": "G1",
            "ticks": 168470,
            "time": 189.71827875000002,
            "velocity": 0.7874015748031497
          },
          {
            "duration": 0.13513500000001955,
            "durationTicks": 120,
            "midi": 36,
            "name": "C2",
            "ticks": 168710,
            "time": 189.98854875,
            "velocity": 0.7874015748031497
          },
          {
            "duration": 0.4054050000000018,
            "durationTicks": 360,
            "midi": 29,
            "name": "F1",
            "ticks": 168830,
            "time": 190.12368375000003,
            "velocity": 0.8818897637795275
          },
          {
            "duration": 0.29617087499997297,
            "durationTicks": 263,
            "midi": 31,
            "name": "G1",
            "ticks": 169190,
            "time": 190.52908875000003,
            "velocity": 0.8818897637795275
          },
          {
            "duration": 0.25900874999999246,
            "durationTicks": 230,
            "midi": 33,
            "name": "A1",
            "ticks": 169430,
            "time": 190.79935875,
            "velocity": 0.8818897637795275
          },
          {
            "duration": 0.28153124999997203,
            "durationTicks": 250,
            "midi": 36,
            "name": "C2",
            "ticks": 169670,
            "time": 191.06962875000002,
            "velocity": 0.6929133858267716
          },
          {
            "duration": 0.25788262499997927,
            "durationTicks": 229,
            "midi": 34,
            "name": "A#1",
            "ticks": 169910,
            "time": 191.33989875000003,
            "velocity": 0.7874015748031497
          },
          {
            "duration": 0.2894141250000075,
            "durationTicks": 257,
            "midi": 38,
            "name": "D2",
            "ticks": 170150,
            "time": 191.61016875,
            "velocity": 0.8818897637795275
          },
          {
            "duration": 0.271396124999967,
            "durationTicks": 241,
            "midi": 41,
            "name": "F2",
            "ticks": 170390,
            "time": 191.88043875000002,
            "velocity": 0.7874015748031497
          },
          {
            "duration": 0.174549374999998,
            "durationTicks": 155,
            "midi": 38,
            "name": "D2",
            "ticks": 170630,
            "time": 192.15070875,
            "velocity": 0.7874015748031497
          },
          {
            "duration": 0.36373837499999695,
            "durationTicks": 323,
            "midi": 39,
            "name": "D#2",
            "ticks": 170750,
            "time": 192.28584375000003,
            "velocity": 0.7874015748031497
          },
          {
            "duration": 0.3006753749999689,
            "durationTicks": 267,
            "midi": 43,
            "name": "G2",
            "ticks": 171110,
            "time": 192.69124875000003,
            "velocity": 0.8818897637795275
          },
          {
            "duration": 0.3074321249999912,
            "durationTicks": 273,
            "midi": 46,
            "name": "A#2",
            "ticks": 171350,
            "time": 192.96151875,
            "velocity": 0.7874015748031497
          },
          {
            "duration": 0.27027000000001067,
            "durationTicks": 240,
            "midi": 43,
            "name": "G2",
            "ticks": 171590,
            "time": 193.23178875000002,
            "velocity": 0.8818897637795275
          },
          {
            "duration": 0.2826573749999852,
            "durationTicks": 251,
            "midi": 39,
            "name": "D#2",
            "ticks": 171830,
            "time": 193.50205875000003,
            "velocity": 0.7874015748031497
          },
          {
            "duration": 0.27702675000000454,
            "durationTicks": 246,
            "midi": 43,
            "name": "G2",
            "ticks": 172070,
            "time": 193.77232875,
            "velocity": 0.8818897637795275
          },
          {
            "duration": 0.31869337499998096,
            "durationTicks": 283,
            "midi": 46,
            "name": "A#2",
            "ticks": 172310,
            "time": 194.04259875000002,
            "velocity": 0.7874015748031497
          },
          {
            "duration": 0.2297294999999906,
            "durationTicks": 204,
            "midi": 39,
            "name": "D#2",
            "ticks": 172550,
            "time": 194.31286875,
            "velocity": 0.6929133858267716
          },
          {
            "duration": 0.10247737499997811,
            "durationTicks": 91,
            "midi": 38,
            "name": "D2",
            "ticks": 172790,
            "time": 194.58313875000002,
            "velocity": 0.7874015748031497
          },
          {
            "duration": 0.09572062499998424,
            "durationTicks": 85,
            "midi": 38,
            "name": "D2",
            "ticks": 173030,
            "time": 194.85340875000003,
            "velocity": 0.8818897637795275
          },
          {
            "duration": 0.25337812499998336,
            "durationTicks": 225,
            "midi": 38,
            "name": "D2",
            "ticks": 173390,
            "time": 195.25881375000003,
            "velocity": 0.8818897637795275
          },
          {
            "duration": 0.2725222499999802,
            "durationTicks": 242,
            "midi": 38,
            "name": "D2",
            "ticks": 173750,
            "time": 195.66421875000003,
            "velocity": 0.8818897637795275
          },
          {
            "duration": 0.09797287500001062,
            "durationTicks": 87,
            "midi": 38,
            "name": "D2",
            "ticks": 174110,
            "time": 196.06962375,
            "velocity": 0.8818897637795275
          },
          {
            "duration": 0.17680162499996754,
            "durationTicks": 157,
            "midi": 41,
            "name": "F2",
            "ticks": 174230,
            "time": 196.20475875000002,
            "velocity": 0.8818897637795275
          },
          {
            "duration": 0.17905387499999392,
            "durationTicks": 159,
            "midi": 42,
            "name": "F#2",
            "ticks": 174470,
            "time": 196.47502875,
            "velocity": 0.8818897637795275
          },
          {
            "duration": 0.3063060000000064,
            "durationTicks": 272,
            "midi": 43,
            "name": "G2",
            "ticks": 174710,
            "time": 196.74529875000002,
            "velocity": 0.8818897637795275
          },
          {
            "duration": 0.28153124999997203,
            "durationTicks": 250,
            "midi": 38,
            "name": "D2",
            "ticks": 174950,
            "time": 197.01556875000003,
            "velocity": 0.7874015748031497
          },
          {
            "duration": 0.26013487500000565,
            "durationTicks": 231,
            "midi": 34,
            "name": "A#1",
            "ticks": 175190,
            "time": 197.28583875,
            "velocity": 0.6929133858267716
          },
          {
            "duration": 0.2668916249999711,
            "durationTicks": 237,
            "midi": 43,
            "name": "G2",
            "ticks": 175430,
            "time": 197.55610875000002,
            "velocity": 0.8818897637795275
          },
          {
            "duration": 0.30743212499996275,
            "durationTicks": 273,
            "midi": 46,
            "name": "A#2",
            "ticks": 175670,
            "time": 197.82637875000003,
            "velocity": 0.7874015748031497
          },
          {
            "duration": 0.338963624999991,
            "durationTicks": 301,
            "midi": 44,
            "name": "G#2",
            "ticks": 175910,
            "time": 198.09664875,
            "velocity": 0.7874015748031497
          },
          {
            "duration": 0.261260999999962,
            "durationTicks": 232,
            "midi": 43,
            "name": "G2",
            "ticks": 176150,
            "time": 198.36691875000002,
            "velocity": 0.8818897637795275
          },
          {
            "duration": 0.30292762499999526,
            "durationTicks": 269,
            "midi": 41,
            "name": "F2",
            "ticks": 176390,
            "time": 198.63718875,
            "velocity": 0.7874015748031497
          },
          {
            "duration": 0.24887362500001586,
            "durationTicks": 221,
            "midi": 39,
            "name": "D#2",
            "ticks": 176630,
            "time": 198.90745875000002,
            "velocity": 0.7874015748031497
          },
          {
            "duration": 0.30180149999998207,
            "durationTicks": 268,
            "midi": 43,
            "name": "G2",
            "ticks": 176870,
            "time": 199.17772875000003,
            "velocity": 0.8818897637795275
          },
          {
            "duration": 0.27590062499999135,
            "durationTicks": 245,
            "midi": 46,
            "name": "A#2",
            "ticks": 177110,
            "time": 199.44799875,
            "velocity": 0.7874015748031497
          },
          {
            "duration": 0.23085562499997536,
            "durationTicks": 205,
            "midi": 43,
            "name": "G2",
            "ticks": 177350,
            "time": 199.71826875000002,
            "velocity": 0.7874015748031497
          },
          {
            "duration": 0.23536012499997128,
            "durationTicks": 209,
            "midi": 44,
            "name": "G#2",
            "ticks": 177590,
            "time": 199.98853875000003,
            "velocity": 0.7874015748031497
          },
          {
            "duration": 0.3108105000000023,
            "durationTicks": 276,
            "midi": 46,
            "name": "A#2",
            "ticks": 177830,
            "time": 200.25880875000001,
            "velocity": 0.7874015748031497
          },
          {
            "duration": 0.22522499999996626,
            "durationTicks": 200,
            "midi": 39,
            "name": "D#2",
            "ticks": 178070,
            "time": 200.52907875000002,
            "velocity": 0.8818897637795275
          },
          {
            "duration": 0.1925673750000101,
            "durationTicks": 171,
            "midi": 44,
            "name": "G#2",
            "ticks": 178310,
            "time": 200.79934875,
            "velocity": 0.7874015748031497
          },
          {
            "duration": 0.1249998749999861,
            "durationTicks": 111,
            "midi": 45,
            "name": "A2",
            "ticks": 178550,
            "time": 201.06961875000002,
            "velocity": 0.8818897637795275
          },
          {
            "duration": 0.15315299999997478,
            "durationTicks": 136,
            "midi": 45,
            "name": "A2",
            "ticks": 178790,
            "time": 201.33988875000003,
            "velocity": 0.8818897637795275
          },
          {
            "duration": 0.261260999999962,
            "durationTicks": 232,
            "midi": 38,
            "name": "D2",
            "ticks": 179510,
            "time": 202.15069875000003,
            "velocity": 0.7874015748031497
          },
          {
            "duration": 0.22747724999996422,
            "durationTicks": 202,
            "midi": 39,
            "name": "D#2",
            "ticks": 179990,
            "time": 202.69123875000002,
            "velocity": 0.8818897637795275
          },
          {
            "duration": 0.14527012499999614,
            "durationTicks": 129,
            "midi": 41,
            "name": "F2",
            "ticks": 180230,
            "time": 202.96150875,
            "velocity": 0.8818897637795275
          },
          {
            "duration": 0.39752212499999473,
            "durationTicks": 353,
            "midi": 43,
            "name": "G2",
            "ticks": 180350,
            "time": 203.09664375000003,
            "velocity": 0.7874015748031497
          },
          {
            "duration": 0.3096843749999607,
            "durationTicks": 275,
            "midi": 38,
            "name": "D2",
            "ticks": 180710,
            "time": 203.50204875000003,
            "velocity": 0.8818897637795275
          },
          {
            "duration": 0.27027000000001067,
            "durationTicks": 240,
            "midi": 34,
            "name": "A#1",
            "ticks": 180950,
            "time": 203.77231875,
            "velocity": 0.6929133858267716
          },
          {
            "duration": 0.26013487499997723,
            "durationTicks": 231,
            "midi": 38,
            "name": "D2",
            "ticks": 181190,
            "time": 204.04258875000002,
            "velocity": 0.8818897637795275
          },
          {
            "duration": 0.1576574999999707,
            "durationTicks": 140,
            "midi": 38,
            "name": "D2",
            "ticks": 181430,
            "time": 204.31285875000003,
            "velocity": 0.8818897637795275
          },
          {
            "duration": 0.7770262500000058,
            "durationTicks": 690,
            "midi": 38,
            "name": "D2",
            "ticks": 181670,
            "time": 204.58312875000001,
            "velocity": 0.8818897637795275
          },
          {
            "duration": 0.3108105000000023,
            "durationTicks": 276,
            "midi": 31,
            "name": "G1",
            "ticks": 182390,
            "time": 205.39393875000002,
            "velocity": 0.8818897637795275
          },
          {
            "duration": 0.31193662499995867,
            "durationTicks": 277,
            "midi": 33,
            "name": "A1",
            "ticks": 182630,
            "time": 205.66420875000003,
            "velocity": 0.8818897637795275
          },
          {
            "duration": 0.2691438749999975,
            "durationTicks": 239,
            "midi": 34,
            "name": "A#1",
            "ticks": 182870,
            "time": 205.93447875,
            "velocity": 0.7874015748031497
          },
          {
            "duration": 0.25788262499997927,
            "durationTicks": 229,
            "midi": 38,
            "name": "D2",
            "ticks": 183110,
            "time": 206.20474875000002,
            "velocity": 0.8818897637795275
          },
          {
            "duration": 0.293918624999975,
            "durationTicks": 261,
            "midi": 43,
            "name": "G2",
            "ticks": 183350,
            "time": 206.47501875000003,
            "velocity": 0.8818897637795275
          },
          {
            "duration": 0.30968437499998913,
            "durationTicks": 275,
            "midi": 46,
            "name": "A#2",
            "ticks": 183590,
            "time": 206.74528875000001,
            "velocity": 0.7874015748031497
          },
          {
            "duration": 0.29729699999995773,
            "durationTicks": 264,
            "midi": 45,
            "name": "A2",
            "ticks": 183830,
            "time": 207.01555875000003,
            "velocity": 0.7874015748031497
          },
          {
            "duration": 0.29842312499999935,
            "durationTicks": 265,
            "midi": 41,
            "name": "F2",
            "ticks": 184070,
            "time": 207.28582875,
            "velocity": 0.8818897637795275
          },
          {
            "duration": 0.3231978750000053,
            "durationTicks": 287,
            "midi": 46,
            "name": "A#2",
            "ticks": 184310,
            "time": 207.55609875000002,
            "velocity": 0.8818897637795275
          },
          {
            "duration": 0.32545012499997483,
            "durationTicks": 289,
            "midi": 44,
            "name": "G#2",
            "ticks": 184550,
            "time": 207.82636875000003,
            "velocity": 0.8818897637795275
          },
          {
            "duration": 0.24887362500001586,
            "durationTicks": 221,
            "midi": 43,
            "name": "G2",
            "ticks": 184790,
            "time": 208.09663875,
            "velocity": 0.7874015748031497
          },
          {
            "duration": 0.3175672499999962,
            "durationTicks": 282,
            "midi": 41,
            "name": "F2",
            "ticks": 185030,
            "time": 208.36690875000002,
            "velocity": 0.7874015748031497
          },
          {
            "duration": 0.27590062499996293,
            "durationTicks": 245,
            "midi": 34,
            "name": "A#1",
            "ticks": 185270,
            "time": 208.63717875000003,
            "velocity": 0.6929133858267716
          },
          {
            "duration": 0.2409907500000088,
            "durationTicks": 214,
            "midi": 38,
            "name": "D2",
            "ticks": 185510,
            "time": 208.90744875000001,
            "velocity": 0.7874015748031497
          },
          {
            "duration": 0.28040512499995884,
            "durationTicks": 249,
            "midi": 41,
            "name": "F2",
            "ticks": 185750,
            "time": 209.17771875000003,
            "velocity": 0.8818897637795275
          },
          {
            "duration": 0.29391862500000343,
            "durationTicks": 261,
            "midi": 38,
            "name": "D2",
            "ticks": 185990,
            "time": 209.44798875,
            "velocity": 0.7874015748031497
          },
          {
            "duration": 0.24324300000000676,
            "durationTicks": 216,
            "midi": 39,
            "name": "D#2",
            "ticks": 186230,
            "time": 209.71825875000002,
            "velocity": 0.8818897637795275
          },
          {
            "duration": 0.2995492499999841,
            "durationTicks": 266,
            "midi": 43,
            "name": "G2",
            "ticks": 186470,
            "time": 209.98852875000003,
            "velocity": 0.8818897637795275
          },
          {
            "duration": 0.2409907500000088,
            "durationTicks": 214,
            "midi": 46,
            "name": "A#2",
            "ticks": 186710,
            "time": 210.25879875,
            "velocity": 0.8818897637795275
          },
          {
            "duration": 0.21171149999997851,
            "durationTicks": 188,
            "midi": 43,
            "name": "G2",
            "ticks": 186950,
            "time": 210.52906875000002,
            "velocity": 0.6929133858267716
          },
          {
            "duration": 0.24887362499998744,
            "durationTicks": 221,
            "midi": 39,
            "name": "D#2",
            "ticks": 187190,
            "time": 210.79933875000003,
            "velocity": 0.7874015748031497
          },
          {
            "duration": 0.23873850000001084,
            "durationTicks": 212,
            "midi": 41,
            "name": "F2",
            "ticks": 187430,
            "time": 211.06960875000001,
            "velocity": 0.6929133858267716
          },
          {
            "duration": 0.29729699999995773,
            "durationTicks": 264,
            "midi": 43,
            "name": "G2",
            "ticks": 187670,
            "time": 211.33987875000003,
            "velocity": 0.8818897637795275
          },
          {
            "duration": 0.3119366249999871,
            "durationTicks": 277,
            "midi": 46,
            "name": "A#2",
            "ticks": 187910,
            "time": 211.61014875,
            "velocity": 0.7874015748031497
          },
          {
            "duration": 0.2240988750000099,
            "durationTicks": 199,
            "midi": 45,
            "name": "A2",
            "ticks": 188150,
            "time": 211.88041875000002,
            "velocity": 0.8818897637795275
          },
          {
            "duration": 0.23873849999998242,
            "durationTicks": 212,
            "midi": 45,
            "name": "A2",
            "ticks": 188390,
            "time": 212.15068875000003,
            "velocity": 0.8818897637795275
          },
          {
            "duration": 0.3063060000000064,
            "durationTicks": 272,
            "midi": 36,
            "name": "C2",
            "ticks": 188630,
            "time": 212.42095875,
            "velocity": 0.8818897637795275
          },
          {
            "duration": 0.24774749999997425,
            "durationTicks": 220,
            "midi": 37,
            "name": "C#2",
            "ticks": 188870,
            "time": 212.69122875000002,
            "velocity": 0.7874015748031497
          },
          {
            "duration": 0.25337812499998336,
            "durationTicks": 225,
            "midi": 38,
            "name": "D2",
            "ticks": 189110,
            "time": 212.96149875000003,
            "velocity": 0.7874015748031497
          },
          {
            "duration": 0.2353601249999997,
            "durationTicks": 209,
            "midi": 42,
            "name": "F#2",
            "ticks": 189350,
            "time": 213.23176875000001,
            "velocity": 0.6929133858267716
          },
          {
            "duration": 0.35360324999999193,
            "durationTicks": 314,
            "midi": 45,
            "name": "A2",
            "ticks": 189590,
            "time": 213.50203875000003,
            "velocity": 0.6929133858267716
          },
          {
            "duration": 0.2612609999999904,
            "durationTicks": 232,
            "midi": 38,
            "name": "D2",
            "ticks": 189830,
            "time": 213.77230875,
            "velocity": 0.8818897637795275
          },
          {
            "duration": 0.29954925000001253,
            "durationTicks": 266,
            "midi": 31,
            "name": "G1",
            "ticks": 190070,
            "time": 214.04257875000002,
            "velocity": 0.8818897637795275
          },
          {
            "duration": 0.29617087499997297,
            "durationTicks": 263,
            "midi": 33,
            "name": "A1",
            "ticks": 190310,
            "time": 214.31284875000003,
            "velocity": 0.8818897637795275
          },
          {
            "duration": 0.27027000000001067,
            "durationTicks": 240,
            "midi": 34,
            "name": "A#1",
            "ticks": 190550,
            "time": 214.58311875,
            "velocity": 0.6929133858267716
          },
          {
            "duration": 0.3344591249999951,
            "durationTicks": 297,
            "midi": 38,
            "name": "D2",
            "ticks": 190790,
            "time": 214.85338875000002,
            "velocity": 0.8818897637795275
          },
          {
            "duration": 0.24887362499998744,
            "durationTicks": 221,
            "midi": 36,
            "name": "C2",
            "ticks": 191030,
            "time": 215.12365875000003,
            "velocity": 0.7874015748031497
          },
          {
            "duration": 0.3175672499999962,
            "durationTicks": 282,
            "midi": 28,
            "name": "E1",
            "ticks": 191270,
            "time": 215.39392875000001,
            "velocity": 0.7874015748031497
          },
          {
            "duration": 0.28378349999997,
            "durationTicks": 252,
            "midi": 31,
            "name": "G1",
            "ticks": 191510,
            "time": 215.66419875000003,
            "velocity": 0.7874015748031497
          },
          {
            "duration": 0.13513500000001955,
            "durationTicks": 120,
            "midi": 36,
            "name": "C2",
            "ticks": 191750,
            "time": 215.93446875,
            "velocity": 0.7874015748031497
          },
          {
            "duration": 0.4054050000000018,
            "durationTicks": 360,
            "midi": 29,
            "name": "F1",
            "ticks": 191870,
            "time": 216.06960375000003,
            "velocity": 0.8818897637795275
          },
          {
            "duration": 0.29617087499997297,
            "durationTicks": 263,
            "midi": 31,
            "name": "G1",
            "ticks": 192230,
            "time": 216.47500875000003,
            "velocity": 0.8818897637795275
          },
          {
            "duration": 0.25900874999999246,
            "durationTicks": 230,
            "midi": 33,
            "name": "A1",
            "ticks": 192470,
            "time": 216.74527875,
            "velocity": 0.8818897637795275
          },
          {
            "duration": 0.28153124999997203,
            "durationTicks": 250,
            "midi": 36,
            "name": "C2",
            "ticks": 192710,
            "time": 217.01554875000002,
            "velocity": 0.6929133858267716
          },
          {
            "duration": 0.25788262499997927,
            "durationTicks": 229,
            "midi": 34,
            "name": "A#1",
            "ticks": 192950,
            "time": 217.28581875000003,
            "velocity": 0.7874015748031497
          },
          {
            "duration": 0.2894141250000075,
            "durationTicks": 257,
            "midi": 38,
            "name": "D2",
            "ticks": 193190,
            "time": 217.55608875000001,
            "velocity": 0.8818897637795275
          },
          {
            "duration": 0.271396124999967,
            "durationTicks": 241,
            "midi": 41,
            "name": "F2",
            "ticks": 193430,
            "time": 217.82635875000003,
            "velocity": 0.7874015748031497
          },
          {
            "duration": 0.174549374999998,
            "durationTicks": 155,
            "midi": 38,
            "name": "D2",
            "ticks": 193670,
            "time": 218.09662875,
            "velocity": 0.7874015748031497
          },
          {
            "duration": 0.36373837499999695,
            "durationTicks": 323,
            "midi": 39,
            "name": "D#2",
            "ticks": 193790,
            "time": 218.23176375000003,
            "velocity": 0.7874015748031497
          },
          {
            "duration": 0.3006753749999689,
            "durationTicks": 267,
            "midi": 43,
            "name": "G2",
            "ticks": 194150,
            "time": 218.63716875000003,
            "velocity": 0.8818897637795275
          },
          {
            "duration": 0.3074321249999912,
            "durationTicks": 273,
            "midi": 46,
            "name": "A#2",
            "ticks": 194390,
            "time": 218.90743875,
            "velocity": 0.7874015748031497
          },
          {
            "duration": 0.27027000000001067,
            "durationTicks": 240,
            "midi": 43,
            "name": "G2",
            "ticks": 194630,
            "time": 219.17770875000002,
            "velocity": 0.8818897637795275
          },
          {
            "duration": 0.2826573749999852,
            "durationTicks": 251,
            "midi": 39,
            "name": "D#2",
            "ticks": 194870,
            "time": 219.44797875000003,
            "velocity": 0.7874015748031497
          },
          {
            "duration": 0.27702675000000454,
            "durationTicks": 246,
            "midi": 43,
            "name": "G2",
            "ticks": 195110,
            "time": 219.71824875000001,
            "velocity": 0.8818897637795275
          },
          {
            "duration": 0.31869337499998096,
            "durationTicks": 283,
            "midi": 46,
            "name": "A#2",
            "ticks": 195350,
            "time": 219.98851875000003,
            "velocity": 0.7874015748031497
          },
          {
            "duration": 0.2297294999999906,
            "durationTicks": 204,
            "midi": 39,
            "name": "D#2",
            "ticks": 195590,
            "time": 220.25878875,
            "velocity": 0.6929133858267716
          },
          {
            "duration": 0.10247737499997811,
            "durationTicks": 91,
            "midi": 38,
            "name": "D2",
            "ticks": 195830,
            "time": 220.52905875000002,
            "velocity": 0.7874015748031497
          },
          {
            "duration": 0.09572062499998424,
            "durationTicks": 85,
            "midi": 38,
            "name": "D2",
            "ticks": 196070,
            "time": 220.79932875000003,
            "velocity": 0.8818897637795275
          },
          {
            "duration": 0.25337812499998336,
            "durationTicks": 225,
            "midi": 38,
            "name": "D2",
            "ticks": 196430,
            "time": 221.20473375000003,
            "velocity": 0.8818897637795275
          },
          {
            "duration": 0.2725222499999802,
            "durationTicks": 242,
            "midi": 38,
            "name": "D2",
            "ticks": 196790,
            "time": 221.61013875000003,
            "velocity": 0.8818897637795275
          },
          {
            "duration": 0.09797287500001062,
            "durationTicks": 87,
            "midi": 38,
            "name": "D2",
            "ticks": 197150,
            "time": 222.01554375,
            "velocity": 0.8818897637795275
          },
          {
            "duration": 0.17680162499996754,
            "durationTicks": 157,
            "midi": 41,
            "name": "F2",
            "ticks": 197270,
            "time": 222.15067875000003,
            "velocity": 0.8818897637795275
          },
          {
            "duration": 0.17905387499999392,
            "durationTicks": 159,
            "midi": 42,
            "name": "F#2",
            "ticks": 197510,
            "time": 222.42094875,
            "velocity": 0.8818897637795275
          },
          {
            "duration": 0.3063060000000064,
            "durationTicks": 272,
            "midi": 43,
            "name": "G2",
            "ticks": 197750,
            "time": 222.69121875000002,
            "velocity": 0.8818897637795275
          },
          {
            "duration": 0.28153124999997203,
            "durationTicks": 250,
            "midi": 38,
            "name": "D2",
            "ticks": 197990,
            "time": 222.96148875000003,
            "velocity": 0.7874015748031497
          },
          {
            "duration": 0.26013487500000565,
            "durationTicks": 231,
            "midi": 34,
            "name": "A#1",
            "ticks": 198230,
            "time": 223.23175875,
            "velocity": 0.6929133858267716
          },
          {
            "duration": 0.2668916249999711,
            "durationTicks": 237,
            "midi": 43,
            "name": "G2",
            "ticks": 198470,
            "time": 223.50202875000002,
            "velocity": 0.8818897637795275
          },
          {
            "duration": 0.30743212499996275,
            "durationTicks": 273,
            "midi": 46,
            "name": "A#2",
            "ticks": 198710,
            "time": 223.77229875000003,
            "velocity": 0.7874015748031497
          },
          {
            "duration": 0.338963624999991,
            "durationTicks": 301,
            "midi": 44,
            "name": "G#2",
            "ticks": 198950,
            "time": 224.04256875000002,
            "velocity": 0.7874015748031497
          },
          {
            "duration": 0.261260999999962,
            "durationTicks": 232,
            "midi": 43,
            "name": "G2",
            "ticks": 199190,
            "time": 224.31283875000003,
            "velocity": 0.8818897637795275
          },
          {
            "duration": 0.30292762499999526,
            "durationTicks": 269,
            "midi": 41,
            "name": "F2",
            "ticks": 199430,
            "time": 224.58310875,
            "velocity": 0.7874015748031497
          },
          {
            "duration": 0.24887362500001586,
            "durationTicks": 221,
            "midi": 39,
            "name": "D#2",
            "ticks": 199670,
            "time": 224.85337875000002,
            "velocity": 0.7874015748031497
          },
          {
            "duration": 0.30180149999998207,
            "durationTicks": 268,
            "midi": 43,
            "name": "G2",
            "ticks": 199910,
            "time": 225.12364875000003,
            "velocity": 0.8818897637795275
          },
          {
            "duration": 0.27590062499999135,
            "durationTicks": 245,
            "midi": 46,
            "name": "A#2",
            "ticks": 200150,
            "time": 225.39391875,
            "velocity": 0.7874015748031497
          },
          {
            "duration": 0.23085562499997536,
            "durationTicks": 205,
            "midi": 43,
            "name": "G2",
            "ticks": 200390,
            "time": 225.66418875000002,
            "velocity": 0.7874015748031497
          },
          {
            "duration": 0.23536012499997128,
            "durationTicks": 209,
            "midi": 44,
            "name": "G#2",
            "ticks": 200630,
            "time": 225.93445875000003,
            "velocity": 0.7874015748031497
          },
          {
            "duration": 0.3108105000000023,
            "durationTicks": 276,
            "midi": 46,
            "name": "A#2",
            "ticks": 200870,
            "time": 226.20472875000002,
            "velocity": 0.7874015748031497
          },
          {
            "duration": 0.22522499999996626,
            "durationTicks": 200,
            "midi": 39,
            "name": "D#2",
            "ticks": 201110,
            "time": 226.47499875000003,
            "velocity": 0.8818897637795275
          },
          {
            "duration": 0.1925673750000101,
            "durationTicks": 171,
            "midi": 44,
            "name": "G#2",
            "ticks": 201350,
            "time": 226.74526875,
            "velocity": 0.7874015748031497
          },
          {
            "duration": 0.1249998749999861,
            "durationTicks": 111,
            "midi": 45,
            "name": "A2",
            "ticks": 201590,
            "time": 227.01553875000002,
            "velocity": 0.8818897637795275
          },
          {
            "duration": 0.15315299999997478,
            "durationTicks": 136,
            "midi": 45,
            "name": "A2",
            "ticks": 201830,
            "time": 227.28580875000003,
            "velocity": 0.8818897637795275
          },
          {
            "duration": 0.261260999999962,
            "durationTicks": 232,
            "midi": 38,
            "name": "D2",
            "ticks": 202550,
            "time": 228.09661875000003,
            "velocity": 0.7874015748031497
          },
          {
            "duration": 0.22747724999996422,
            "durationTicks": 202,
            "midi": 39,
            "name": "D#2",
            "ticks": 203030,
            "time": 228.63715875000003,
            "velocity": 0.8818897637795275
          },
          {
            "duration": 0.14527012499999614,
            "durationTicks": 129,
            "midi": 41,
            "name": "F2",
            "ticks": 203270,
            "time": 228.90742875,
            "velocity": 0.8818897637795275
          },
          {
            "duration": 0.39752212499999473,
            "durationTicks": 353,
            "midi": 43,
            "name": "G2",
            "ticks": 203390,
            "time": 229.04256375000003,
            "velocity": 0.7874015748031497
          },
          {
            "duration": 0.3096843749999607,
            "durationTicks": 275,
            "midi": 38,
            "name": "D2",
            "ticks": 203750,
            "time": 229.44796875000003,
            "velocity": 0.8818897637795275
          },
          {
            "duration": 0.27027000000001067,
            "durationTicks": 240,
            "midi": 34,
            "name": "A#1",
            "ticks": 203990,
            "time": 229.71823875,
            "velocity": 0.6929133858267716
          },
          {
            "duration": 0.26013487499997723,
            "durationTicks": 231,
            "midi": 38,
            "name": "D2",
            "ticks": 204230,
            "time": 229.98850875000002,
            "velocity": 0.8818897637795275
          },
          {
            "duration": 0.306305999999978,
            "durationTicks": 272,
            "midi": 31,
            "name": "G1",
            "ticks": 204470,
            "time": 230.25877875000003,
            "velocity": 0.8818897637795275
          },
          {
            "duration": 0.3018015000000105,
            "durationTicks": 268,
            "midi": 33,
            "name": "A1",
            "ticks": 204710,
            "time": 230.52904875000002,
            "velocity": 0.8818897637795275
          },
          {
            "duration": 0.23761237499996923,
            "durationTicks": 211,
            "midi": 34,
            "name": "A#1",
            "ticks": 204950,
            "time": 230.79931875000003,
            "velocity": 0.7874015748031497
          },
          {
            "duration": 0.27590062499999135,
            "durationTicks": 245,
            "midi": 38,
            "name": "D2",
            "ticks": 205190,
            "time": 231.06958875,
            "velocity": 0.8818897637795275
          },
          {
            "duration": 0.2364862500000129,
            "durationTicks": 210,
            "midi": 43,
            "name": "G2",
            "ticks": 205440,
            "time": 231.35112,
            "velocity": 0.7874015748031497
          },
          {
            "duration": 0.1914412499999969,
            "durationTicks": 170,
            "midi": 38,
            "name": "D2",
            "ticks": 205680,
            "time": 231.62139000000002,
            "velocity": 0.8818897637795275
          },
          {
            "duration": 0.371621250000004,
            "durationTicks": 330,
            "midi": 34,
            "name": "A#1",
            "ticks": 205920,
            "time": 231.89166,
            "velocity": 0.8818897637795275
          },
          {
            "duration": 0.371621250000004,
            "durationTicks": 330,
            "midi": 31,
            "name": "G1",
            "ticks": 206250,
            "time": 232.26328125,
            "velocity": 0.8818897637795275
          },
          {
            "duration": 0.30405375000000845,
            "durationTicks": 270,
            "midi": 36,
            "name": "C2",
            "ticks": 207480,
            "time": 233.648415,
            "velocity": 0.8818897637795275
          },
          {
            "duration": 0.28716187500000956,
            "durationTicks": 255,
            "midi": 36,
            "name": "C2",
            "ticks": 207840,
            "time": 234.05382,
            "velocity": 0.8818897637795275
          },
          {
            "duration": 0.21396374999997647,
            "durationTicks": 190,
            "midi": 31,
            "name": "G1",
            "ticks": 208080,
            "time": 234.32409,
            "velocity": 0.6929133858267716
          },
          {
            "duration": 0.20720700000001102,
            "durationTicks": 184,
            "midi": 36,
            "name": "C2",
            "ticks": 208320,
            "time": 234.59436,
            "velocity": 0.8818897637795275
          },
          {
            "duration": 0.12950437499998202,
            "durationTicks": 115,
            "midi": 36,
            "name": "C2",
            "ticks": 208560,
            "time": 234.86463,
            "velocity": 0.6929133858267716
          },
          {
            "duration": 0.6846840000000043,
            "durationTicks": 608,
            "midi": 41,
            "name": "F2",
            "ticks": 208680,
            "time": 234.999765,
            "velocity": 0.7874015748031497
          },
          {
            "duration": 0.30968437500001755,
            "durationTicks": 275,
            "midi": 46,
            "name": "A#2",
            "ticks": 209400,
            "time": 235.810575,
            "velocity": 0.8818897637795275
          },
          {
            "duration": 0.2364862500000129,
            "durationTicks": 210,
            "midi": 39,
            "name": "D#2",
            "ticks": 209760,
            "time": 236.21598,
            "velocity": 0.7874015748031497
          },
          {
            "duration": 0.1914412499999969,
            "durationTicks": 170,
            "midi": 39,
            "name": "D#2",
            "ticks": 210000,
            "time": 236.48625,
            "velocity": 0.6929133858267716
          },
          {
            "duration": 0.25450424999999655,
            "durationTicks": 226,
            "midi": 38,
            "name": "D2",
            "ticks": 210240,
            "time": 236.75652000000002,
            "velocity": 0.8818897637795275
          },
          {
            "duration": 0.06981974999999352,
            "durationTicks": 62,
            "midi": 38,
            "name": "D2",
            "ticks": 210480,
            "time": 237.02679,
            "velocity": 0.6929133858267716
          },
          {
            "duration": 0.5551796250000223,
            "durationTicks": 493,
            "midi": 37,
            "name": "C#2",
            "ticks": 210600,
            "time": 237.161925,
            "velocity": 0.8818897637795275
          },
          {
            "duration": 0.10698187500000245,
            "durationTicks": 95,
            "midi": 41,
            "name": "F2",
            "ticks": 211200,
            "time": 237.8376,
            "velocity": 0.6062992125984252
          },
          {
            "duration": 0.15427912499998797,
            "durationTicks": 137,
            "midi": 41,
            "name": "F2",
            "ticks": 211440,
            "time": 238.10787000000002,
            "velocity": 0.7874015748031497
          },
          {
            "duration": 0.17792775000000915,
            "durationTicks": 158,
            "midi": 41,
            "name": "F2",
            "ticks": 211680,
            "time": 238.37814,
            "velocity": 0.6062992125984252
          },
          {
            "duration": 0.15202687499999,
            "durationTicks": 135,
            "midi": 41,
            "name": "F2",
            "ticks": 211920,
            "time": 238.64841,
            "velocity": 0.7874015748031497
          },
          {
            "duration": 0.14189175000001342,
            "durationTicks": 126,
            "midi": 41,
            "name": "F2",
            "ticks": 212160,
            "time": 238.91868,
            "velocity": 0.6929133858267716
          },
          {
            "duration": 0.1801800000000071,
            "durationTicks": 160,
            "midi": 41,
            "name": "F2",
            "ticks": 212400,
            "time": 239.18895,
            "velocity": 0.8818897637795275
          },
          {
            "duration": 0.16554037499997776,
            "durationTicks": 147,
            "midi": 38,
            "name": "D2",
            "ticks": 212640,
            "time": 239.45922000000002,
            "velocity": 0.8818897637795275
          },
          {
            "duration": 0.09684675000002585,
            "durationTicks": 86,
            "midi": 38,
            "name": "D2",
            "ticks": 212880,
            "time": 239.72949,
            "velocity": 0.8818897637795275
          },
          {
            "duration": 1.266890625000002,
            "durationTicks": 1125,
            "midi": 43,
            "name": "G2",
            "ticks": 213062,
            "time": 239.93444475,
            "velocity": 0.8818897637795275
          },
          {
            "duration": 0.4369365000000016,
            "durationTicks": 388,
            "midi": 43,
            "name": "G2",
            "ticks": 214358,
            "time": 241.39390275,
            "velocity": 0.984251968503937
          },
          {
            "duration": 0.4774770000000217,
            "durationTicks": 424,
            "midi": 43,
            "name": "G2",
            "ticks": 214820,
            "time": 241.9141725,
            "velocity": 0.984251968503937
          },
          {
            "duration": 4.264635375000012,
            "durationTicks": 3787,
            "midi": 36,
            "name": "C2",
            "ticks": 215457,
            "time": 242.631514125,
            "velocity": 0.8818897637795275
          }
        ]
      },
      {
        "channel": 0,
        "controlChanges": {
          "0": [
            {
              "number": 0,
              "ticks": 540,
              "time": 0.6081075,
              "value": 0
            },
            {
              "number": 0,
              "ticks": 560,
              "time": 0.63063,
              "value": 0
            }
          ],
          "32": [
            {
              "number": 32,
              "ticks": 550,
              "time": 0.61936875,
              "value": 0
            },
            {
              "number": 32,
              "ticks": 560,
              "time": 0.63063,
              "value": 0
            }
          ]
        },
        "pitchBends": [],
        "instrument": {
          "family": "piano",
          "number": 0,
          "name": "acoustic grand piano"
        },
        "name": "",
        "notes": []
      },
      {
        "channel": 3,
        "controlChanges": {
          "6": [
            {
              "number": 6,
              "ticks": 610,
              "time": 0.68693625,
              "value": 0.09448818897637795
            }
          ],
          "7": [
            {
              "number": 7,
              "ticks": 570,
              "time": 0.64189125,
              "value": 0.7086614173228346
            }
          ],
          "10": [
            {
              "number": 10,
              "ticks": 570,
              "time": 0.64189125,
              "value": 0.47244094488188976
            }
          ],
          "11": [
            {
              "number": 11,
              "ticks": 4755,
              "time": 5.354724375,
              "value": 1
            },
            {
              "number": 11,
              "ticks": 4770,
              "time": 5.371616250000001,
              "value": 1
            },
            {
              "number": 11,
              "ticks": 4785,
              "time": 5.388508125,
              "value": 1
            },
            {
              "number": 11,
              "ticks": 4800,
              "time": 5.4054,
              "value": 0.984251968503937
            },
            {
              "number": 11,
              "ticks": 4815,
              "time": 5.422291875,
              "value": 0.952755905511811
            },
            {
              "number": 11,
              "ticks": 4830,
              "time": 5.43918375,
              "value": 0.937007874015748
            },
            {
              "number": 11,
              "ticks": 4845,
              "time": 5.456075625,
              "value": 0.8976377952755905
            },
            {
              "number": 11,
              "ticks": 4860,
              "time": 5.4729675,
              "value": 0.8818897637795275
            },
            {
              "number": 11,
              "ticks": 4875,
              "time": 5.489859375,
              "value": 0.8582677165354331
            },
            {
              "number": 11,
              "ticks": 4890,
              "time": 5.506751250000001,
              "value": 0.8582677165354331
            },
            {
              "number": 11,
              "ticks": 4905,
              "time": 5.523643125,
              "value": 0.8503937007874016
            },
            {
              "number": 11,
              "ticks": 4920,
              "time": 5.540535,
              "value": 0.8346456692913385
            },
            {
              "number": 11,
              "ticks": 4935,
              "time": 5.557426875,
              "value": 0.8110236220472441
            },
            {
              "number": 11,
              "ticks": 4950,
              "time": 5.57431875,
              "value": 0.8110236220472441
            },
            {
              "number": 11,
              "ticks": 4965,
              "time": 5.591210625,
              "value": 0.7952755905511811
            },
            {
              "number": 11,
              "ticks": 4980,
              "time": 5.6081025,
              "value": 0.7952755905511811
            },
            {
              "number": 11,
              "ticks": 4995,
              "time": 5.624994375,
              "value": 0.7795275590551181
            },
            {
              "number": 11,
              "ticks": 5010,
              "time": 5.641886250000001,
              "value": 0.7795275590551181
            },
            {
              "number": 11,
              "ticks": 5014,
              "time": 5.64639075,
              "value": 0.7795275590551181
            },
            {
              "number": 11,
              "ticks": 5040,
              "time": 5.67567,
              "value": 0.7559055118110236
            },
            {
              "number": 11,
              "ticks": 5055,
              "time": 5.692561875,
              "value": 0.7559055118110236
            },
            {
              "number": 11,
              "ticks": 5070,
              "time": 5.70945375,
              "value": 0.7637795275590551
            },
            {
              "number": 11,
              "ticks": 5085,
              "time": 5.726345625,
              "value": 0.7795275590551181
            },
            {
              "number": 11,
              "ticks": 5100,
              "time": 5.7432375,
              "value": 0.7874015748031497
            },
            {
              "number": 11,
              "ticks": 5115,
              "time": 5.760129375,
              "value": 0.7874015748031497
            },
            {
              "number": 11,
              "ticks": 5130,
              "time": 5.777021250000001,
              "value": 0.7952755905511811
            },
            {
              "number": 11,
              "ticks": 5145,
              "time": 5.793913125,
              "value": 0.8110236220472441
            },
            {
              "number": 11,
              "ticks": 5160,
              "time": 5.810805,
              "value": 0.8267716535433071
            },
            {
              "number": 11,
              "ticks": 5175,
              "time": 5.827696875,
              "value": 0.8346456692913385
            },
            {
              "number": 11,
              "ticks": 5190,
              "time": 5.84458875,
              "value": 0.8346456692913385
            },
            {
              "number": 11,
              "ticks": 5205,
              "time": 5.861480625,
              "value": 0.84251968503937
            },
            {
              "number": 11,
              "ticks": 5220,
              "time": 5.8783725,
              "value": 0.8503937007874016
            },
            {
              "number": 11,
              "ticks": 5235,
              "time": 5.895264375,
              "value": 0.8503937007874016
            },
            {
              "number": 11,
              "ticks": 5250,
              "time": 5.912156250000001,
              "value": 0.8661417322834646
            },
            {
              "number": 11,
              "ticks": 5265,
              "time": 5.9290481250000004,
              "value": 0.8740157480314961
            },
            {
              "number": 11,
              "ticks": 5280,
              "time": 5.94594,
              "value": 0.8818897637795275
            },
            {
              "number": 11,
              "ticks": 5295,
              "time": 5.962831875,
              "value": 0.8976377952755905
            },
            {
              "number": 11,
              "ticks": 5310,
              "time": 5.97972375,
              "value": 0.9133858267716536
            },
            {
              "number": 11,
              "ticks": 5325,
              "time": 5.9966156250000004,
              "value": 0.9212598425196851
            },
            {
              "number": 11,
              "ticks": 5340,
              "time": 6.0135075,
              "value": 0.9291338582677166
            },
            {
              "number": 11,
              "ticks": 5355,
              "time": 6.030399375,
              "value": 0.9291338582677166
            },
            {
              "number": 11,
              "ticks": 5370,
              "time": 6.047291250000001,
              "value": 0.937007874015748
            },
            {
              "number": 11,
              "ticks": 5385,
              "time": 6.0641831250000005,
              "value": 0.952755905511811
            },
            {
              "number": 11,
              "ticks": 5400,
              "time": 6.081075,
              "value": 0.9606299212598425
            },
            {
              "number": 11,
              "ticks": 5415,
              "time": 6.097966875,
              "value": 0.968503937007874
            },
            {
              "number": 11,
              "ticks": 5430,
              "time": 6.11485875,
              "value": 1
            },
            {
              "number": 11,
              "ticks": 5445,
              "time": 6.1317506250000005,
              "value": 1
            },
            {
              "number": 11,
              "ticks": 5460,
              "time": 6.1486425,
              "value": 1
            },
            {
              "number": 11,
              "ticks": 5475,
              "time": 6.165534375,
              "value": 1
            },
            {
              "number": 11,
              "ticks": 5490,
              "time": 6.182426250000001,
              "value": 1
            },
            {
              "number": 11,
              "ticks": 5505,
              "time": 6.1993181250000005,
              "value": 1
            },
            {
              "number": 11,
              "ticks": 5520,
              "time": 6.21621,
              "value": 1
            },
            {
              "number": 11,
              "ticks": 5569,
              "time": 6.271390125,
              "value": 1
            },
            {
              "number": 11,
              "ticks": 5570,
              "time": 6.27251625,
              "value": 1
            },
            {
              "number": 11,
              "ticks": 6668,
              "time": 7.509001500000001,
              "value": 1
            },
            {
              "number": 11,
              "ticks": 6683,
              "time": 7.525893375000001,
              "value": 1
            },
            {
              "number": 11,
              "ticks": 6698,
              "time": 7.5427852500000006,
              "value": 1
            },
            {
              "number": 11,
              "ticks": 6713,
              "time": 7.559677125,
              "value": 0.984251968503937
            },
            {
              "number": 11,
              "ticks": 6728,
              "time": 7.576569000000001,
              "value": 0.952755905511811
            },
            {
              "number": 11,
              "ticks": 6743,
              "time": 7.593460875000001,
              "value": 0.937007874015748
            },
            {
              "number": 11,
              "ticks": 6758,
              "time": 7.6103527500000006,
              "value": 0.8976377952755905
            },
            {
              "number": 11,
              "ticks": 6773,
              "time": 7.627244625,
              "value": 0.8818897637795275
            },
            {
              "number": 11,
              "ticks": 6788,
              "time": 7.644136500000001,
              "value": 0.8582677165354331
            },
            {
              "number": 11,
              "ticks": 6803,
              "time": 7.661028375000001,
              "value": 0.8582677165354331
            },
            {
              "number": 11,
              "ticks": 6818,
              "time": 7.677920250000001,
              "value": 0.8503937007874016
            },
            {
              "number": 11,
              "ticks": 6833,
              "time": 7.694812125,
              "value": 0.8346456692913385
            },
            {
              "number": 11,
              "ticks": 6848,
              "time": 7.711704000000001,
              "value": 0.8110236220472441
            },
            {
              "number": 11,
              "ticks": 6863,
              "time": 7.728595875000001,
              "value": 0.8110236220472441
            },
            {
              "number": 11,
              "ticks": 6878,
              "time": 7.745487750000001,
              "value": 0.7952755905511811
            },
            {
              "number": 11,
              "ticks": 6893,
              "time": 7.762379625,
              "value": 0.7952755905511811
            },
            {
              "number": 11,
              "ticks": 6908,
              "time": 7.779271500000001,
              "value": 0.7795275590551181
            },
            {
              "number": 11,
              "ticks": 6923,
              "time": 7.796163375000001,
              "value": 0.7795275590551181
            },
            {
              "number": 11,
              "ticks": 6927,
              "time": 7.800667875,
              "value": 0.7795275590551181
            },
            {
              "number": 11,
              "ticks": 6953,
              "time": 7.829947125,
              "value": 0.7559055118110236
            },
            {
              "number": 11,
              "ticks": 6968,
              "time": 7.846839000000001,
              "value": 0.7559055118110236
            },
            {
              "number": 11,
              "ticks": 6983,
              "time": 7.863730875000001,
              "value": 0.7637795275590551
            },
            {
              "number": 11,
              "ticks": 6998,
              "time": 7.880622750000001,
              "value": 0.7795275590551181
            },
            {
              "number": 11,
              "ticks": 7013,
              "time": 7.897514625,
              "value": 0.7874015748031497
            },
            {
              "number": 11,
              "ticks": 7028,
              "time": 7.914406500000001,
              "value": 0.7874015748031497
            },
            {
              "number": 11,
              "ticks": 7043,
              "time": 7.931298375000001,
              "value": 0.7952755905511811
            },
            {
              "number": 11,
              "ticks": 7058,
              "time": 7.948190250000001,
              "value": 0.8110236220472441
            },
            {
              "number": 11,
              "ticks": 7073,
              "time": 7.965082125,
              "value": 0.8267716535433071
            },
            {
              "number": 11,
              "ticks": 7088,
              "time": 7.981974000000001,
              "value": 0.8346456692913385
            },
            {
              "number": 11,
              "ticks": 7103,
              "time": 7.998865875000001,
              "value": 0.8346456692913385
            },
            {
              "number": 11,
              "ticks": 7118,
              "time": 8.01575775,
              "value": 0.84251968503937
            },
            {
              "number": 11,
              "ticks": 7133,
              "time": 8.032649625000001,
              "value": 0.8503937007874016
            },
            {
              "number": 11,
              "ticks": 7148,
              "time": 8.0495415,
              "value": 0.8503937007874016
            },
            {
              "number": 11,
              "ticks": 7163,
              "time": 8.066433375,
              "value": 0.8661417322834646
            },
            {
              "number": 11,
              "ticks": 7178,
              "time": 8.083325250000001,
              "value": 0.8740157480314961
            },
            {
              "number": 11,
              "ticks": 7193,
              "time": 8.100217125,
              "value": 0.8818897637795275
            },
            {
              "number": 11,
              "ticks": 7208,
              "time": 8.117109000000001,
              "value": 0.8976377952755905
            },
            {
              "number": 11,
              "ticks": 7223,
              "time": 8.134000875,
              "value": 0.9133858267716536
            },
            {
              "number": 11,
              "ticks": 7238,
              "time": 8.15089275,
              "value": 0.9212598425196851
            },
            {
              "number": 11,
              "ticks": 7253,
              "time": 8.167784625000001,
              "value": 0.9291338582677166
            },
            {
              "number": 11,
              "ticks": 7268,
              "time": 8.1846765,
              "value": 0.9291338582677166
            },
            {
              "number": 11,
              "ticks": 7283,
              "time": 8.201568375,
              "value": 0.937007874015748
            },
            {
              "number": 11,
              "ticks": 7298,
              "time": 8.218460250000001,
              "value": 0.952755905511811
            },
            {
              "number": 11,
              "ticks": 7313,
              "time": 8.235352125,
              "value": 0.9606299212598425
            },
            {
              "number": 11,
              "ticks": 7328,
              "time": 8.252244000000001,
              "value": 0.968503937007874
            },
            {
              "number": 11,
              "ticks": 7343,
              "time": 8.269135875,
              "value": 1
            },
            {
              "number": 11,
              "ticks": 7358,
              "time": 8.28602775,
              "value": 1
            },
            {
              "number": 11,
              "ticks": 7373,
              "time": 8.302919625000001,
              "value": 1
            },
            {
              "number": 11,
              "ticks": 7388,
              "time": 8.3198115,
              "value": 1
            },
            {
              "number": 11,
              "ticks": 7403,
              "time": 8.336703375,
              "value": 1
            },
            {
              "number": 11,
              "ticks": 7418,
              "time": 8.353595250000001,
              "value": 1
            },
            {
              "number": 11,
              "ticks": 7433,
              "time": 8.370487125,
              "value": 1
            },
            {
              "number": 11,
              "ticks": 7482,
              "time": 8.42566725,
              "value": 1
            },
            {
              "number": 11,
              "ticks": 7483,
              "time": 8.426793375,
              "value": 1
            },
            {
              "number": 11,
              "ticks": 9580,
              "time": 10.7882775,
              "value": 1
            },
            {
              "number": 11,
              "ticks": 9595,
              "time": 10.805169375,
              "value": 0.9921259842519685
            },
            {
              "number": 11,
              "ticks": 9610,
              "time": 10.822061249999999,
              "value": 0.984251968503937
            },
            {
              "number": 11,
              "ticks": 9625,
              "time": 10.838953125,
              "value": 0.968503937007874
            },
            {
              "number": 11,
              "ticks": 9640,
              "time": 10.855845,
              "value": 0.9606299212598425
            },
            {
              "number": 11,
              "ticks": 9655,
              "time": 10.872736875,
              "value": 0.952755905511811
            },
            {
              "number": 11,
              "ticks": 9670,
              "time": 10.88962875,
              "value": 0.937007874015748
            },
            {
              "number": 11,
              "ticks": 9685,
              "time": 10.906520625,
              "value": 0.9291338582677166
            },
            {
              "number": 11,
              "ticks": 9700,
              "time": 10.9234125,
              "value": 0.9133858267716536
            },
            {
              "number": 11,
              "ticks": 9715,
              "time": 10.940304375,
              "value": 0.905511811023622
            },
            {
              "number": 11,
              "ticks": 9730,
              "time": 10.957196249999999,
              "value": 0.8976377952755905
            },
            {
              "number": 11,
              "ticks": 9745,
              "time": 10.974088125,
              "value": 0.8818897637795275
            },
            {
              "number": 11,
              "ticks": 9760,
              "time": 10.99098,
              "value": 0.8740157480314961
            },
            {
              "number": 11,
              "ticks": 9775,
              "time": 11.007871875,
              "value": 0.8582677165354331
            },
            {
              "number": 11,
              "ticks": 9790,
              "time": 11.02476375,
              "value": 0.8503937007874016
            },
            {
              "number": 11,
              "ticks": 9805,
              "time": 11.041655625,
              "value": 0.84251968503937
            },
            {
              "number": 11,
              "ticks": 9820,
              "time": 11.0585475,
              "value": 0.8267716535433071
            },
            {
              "number": 11,
              "ticks": 9835,
              "time": 11.075439375,
              "value": 0.8188976377952756
            },
            {
              "number": 11,
              "ticks": 9850,
              "time": 11.092331249999999,
              "value": 0.8031496062992126
            },
            {
              "number": 11,
              "ticks": 9865,
              "time": 11.109223125,
              "value": 0.7952755905511811
            },
            {
              "number": 11,
              "ticks": 9880,
              "time": 11.126115,
              "value": 0.7874015748031497
            },
            {
              "number": 11,
              "ticks": 9895,
              "time": 11.143006875,
              "value": 0.7716535433070866
            },
            {
              "number": 11,
              "ticks": 9910,
              "time": 11.15989875,
              "value": 0.7637795275590551
            },
            {
              "number": 11,
              "ticks": 9925,
              "time": 11.176790625,
              "value": 0.7559055118110236
            },
            {
              "number": 11,
              "ticks": 9940,
              "time": 11.1936825,
              "value": 0.7401574803149606
            },
            {
              "number": 11,
              "ticks": 9955,
              "time": 11.210574375,
              "value": 0.7322834645669292
            },
            {
              "number": 11,
              "ticks": 9970,
              "time": 11.227466249999999,
              "value": 0.7165354330708661
            },
            {
              "number": 11,
              "ticks": 9979,
              "time": 11.237601375,
              "value": 0.7086614173228346
            },
            {
              "number": 11,
              "ticks": 10060,
              "time": 11.3288175,
              "value": 0.7086614173228346
            },
            {
              "number": 11,
              "ticks": 10079,
              "time": 11.350213875,
              "value": 0.7165354330708661
            },
            {
              "number": 11,
              "ticks": 10099,
              "time": 11.372736375,
              "value": 0.7244094488188977
            },
            {
              "number": 11,
              "ticks": 10119,
              "time": 11.395258875000001,
              "value": 0.7322834645669292
            },
            {
              "number": 11,
              "ticks": 10139,
              "time": 11.417781374999999,
              "value": 0.7401574803149606
            },
            {
              "number": 11,
              "ticks": 10159,
              "time": 11.440303875,
              "value": 0.7480314960629921
            },
            {
              "number": 11,
              "ticks": 10179,
              "time": 11.462826375,
              "value": 0.7559055118110236
            },
            {
              "number": 11,
              "ticks": 10199,
              "time": 11.485348875,
              "value": 0.7637795275590551
            },
            {
              "number": 11,
              "ticks": 10219,
              "time": 11.507871375,
              "value": 0.7716535433070866
            },
            {
              "number": 11,
              "ticks": 10239,
              "time": 11.530393875000001,
              "value": 0.7795275590551181
            },
            {
              "number": 11,
              "ticks": 10259,
              "time": 11.552916374999999,
              "value": 0.7874015748031497
            },
            {
              "number": 11,
              "ticks": 10279,
              "time": 11.575438875,
              "value": 0.7952755905511811
            },
            {
              "number": 11,
              "ticks": 10299,
              "time": 11.597961375,
              "value": 0.8031496062992126
            },
            {
              "number": 11,
              "ticks": 10319,
              "time": 11.620483875,
              "value": 0.8110236220472441
            },
            {
              "number": 11,
              "ticks": 10339,
              "time": 11.643006375,
              "value": 0.8188976377952756
            },
            {
              "number": 11,
              "ticks": 10359,
              "time": 11.665528875000001,
              "value": 0.8267716535433071
            },
            {
              "number": 11,
              "ticks": 10379,
              "time": 11.688051374999999,
              "value": 0.8346456692913385
            },
            {
              "number": 11,
              "ticks": 10399,
              "time": 11.710573875,
              "value": 0.84251968503937
            },
            {
              "number": 11,
              "ticks": 10419,
              "time": 11.733096375,
              "value": 0.8503937007874016
            },
            {
              "number": 11,
              "ticks": 10439,
              "time": 11.755618875,
              "value": 0.8582677165354331
            },
            {
              "number": 11,
              "ticks": 10459,
              "time": 11.778141375,
              "value": 0.8661417322834646
            },
            {
              "number": 11,
              "ticks": 10479,
              "time": 11.800663875000001,
              "value": 0.8740157480314961
            },
            {
              "number": 11,
              "ticks": 10499,
              "time": 11.823186374999999,
              "value": 0.8818897637795275
            },
            {
              "number": 11,
              "ticks": 10519,
              "time": 11.845708875,
              "value": 0.889763779527559
            },
            {
              "number": 11,
              "ticks": 10539,
              "time": 11.868231375,
              "value": 0.8976377952755905
            },
            {
              "number": 11,
              "ticks": 10559,
              "time": 11.890753875,
              "value": 0.905511811023622
            },
            {
              "number": 11,
              "ticks": 10579,
              "time": 11.913276375,
              "value": 0.9133858267716536
            },
            {
              "number": 11,
              "ticks": 10599,
              "time": 11.935798875000001,
              "value": 0.9212598425196851
            },
            {
              "number": 11,
              "ticks": 10619,
              "time": 11.958321374999999,
              "value": 0.9291338582677166
            },
            {
              "number": 11,
              "ticks": 10639,
              "time": 11.980843875,
              "value": 0.937007874015748
            },
            {
              "number": 11,
              "ticks": 10659,
              "time": 12.003366375,
              "value": 0.9448818897637795
            },
            {
              "number": 11,
              "ticks": 10679,
              "time": 12.025888875,
              "value": 0.952755905511811
            },
            {
              "number": 11,
              "ticks": 10699,
              "time": 12.048411375,
              "value": 0.9606299212598425
            },
            {
              "number": 11,
              "ticks": 10719,
              "time": 12.070933875000001,
              "value": 0.968503937007874
            },
            {
              "number": 11,
              "ticks": 10739,
              "time": 12.093456374999999,
              "value": 0.9763779527559056
            },
            {
              "number": 11,
              "ticks": 10759,
              "time": 12.115978875,
              "value": 0.984251968503937
            },
            {
              "number": 11,
              "ticks": 10779,
              "time": 12.138501375,
              "value": 0.9921259842519685
            },
            {
              "number": 11,
              "ticks": 10799,
              "time": 12.161023875,
              "value": 1
            },
            {
              "number": 11,
              "ticks": 12430,
              "time": 13.99773375,
              "value": 1
            },
            {
              "number": 11,
              "ticks": 12445,
              "time": 14.014625625,
              "value": 1
            },
            {
              "number": 11,
              "ticks": 12460,
              "time": 14.0315175,
              "value": 1
            },
            {
              "number": 11,
              "ticks": 12475,
              "time": 14.048409375,
              "value": 0.984251968503937
            },
            {
              "number": 11,
              "ticks": 12490,
              "time": 14.06530125,
              "value": 0.952755905511811
            },
            {
              "number": 11,
              "ticks": 12505,
              "time": 14.082193125,
              "value": 0.937007874015748
            },
            {
              "number": 11,
              "ticks": 12520,
              "time": 14.099085,
              "value": 0.8976377952755905
            },
            {
              "number": 11,
              "ticks": 12535,
              "time": 14.115976875,
              "value": 0.8818897637795275
            },
            {
              "number": 11,
              "ticks": 12550,
              "time": 14.13286875,
              "value": 0.8582677165354331
            },
            {
              "number": 11,
              "ticks": 12565,
              "time": 14.149760625,
              "value": 0.8582677165354331
            },
            {
              "number": 11,
              "ticks": 12580,
              "time": 14.1666525,
              "value": 0.8503937007874016
            },
            {
              "number": 11,
              "ticks": 12595,
              "time": 14.183544375,
              "value": 0.8346456692913385
            },
            {
              "number": 11,
              "ticks": 12610,
              "time": 14.20043625,
              "value": 0.8110236220472441
            },
            {
              "number": 11,
              "ticks": 12625,
              "time": 14.217328125,
              "value": 0.8110236220472441
            },
            {
              "number": 11,
              "ticks": 12640,
              "time": 14.23422,
              "value": 0.7952755905511811
            },
            {
              "number": 11,
              "ticks": 12655,
              "time": 14.251111875,
              "value": 0.7952755905511811
            },
            {
              "number": 11,
              "ticks": 12670,
              "time": 14.26800375,
              "value": 0.7795275590551181
            },
            {
              "number": 11,
              "ticks": 12685,
              "time": 14.284895625,
              "value": 0.7795275590551181
            },
            {
              "number": 11,
              "ticks": 12689,
              "time": 14.289400125,
              "value": 0.7795275590551181
            },
            {
              "number": 11,
              "ticks": 12715,
              "time": 14.318679375,
              "value": 0.7559055118110236
            },
            {
              "number": 11,
              "ticks": 12730,
              "time": 14.33557125,
              "value": 0.7559055118110236
            },
            {
              "number": 11,
              "ticks": 12745,
              "time": 14.352463125,
              "value": 0.7637795275590551
            },
            {
              "number": 11,
              "ticks": 12760,
              "time": 14.369355,
              "value": 0.7795275590551181
            },
            {
              "number": 11,
              "ticks": 12775,
              "time": 14.386246875,
              "value": 0.7874015748031497
            },
            {
              "number": 11,
              "ticks": 12790,
              "time": 14.40313875,
              "value": 0.7874015748031497
            },
            {
              "number": 11,
              "ticks": 12805,
              "time": 14.420030625,
              "value": 0.7952755905511811
            },
            {
              "number": 11,
              "ticks": 12820,
              "time": 14.4369225,
              "value": 0.8110236220472441
            },
            {
              "number": 11,
              "ticks": 12835,
              "time": 14.453814375,
              "value": 0.8267716535433071
            },
            {
              "number": 11,
              "ticks": 12850,
              "time": 14.47070625,
              "value": 0.8346456692913385
            },
            {
              "number": 11,
              "ticks": 12865,
              "time": 14.487598125,
              "value": 0.8346456692913385
            },
            {
              "number": 11,
              "ticks": 12880,
              "time": 14.50449,
              "value": 0.84251968503937
            },
            {
              "number": 11,
              "ticks": 12895,
              "time": 14.521381875,
              "value": 0.8503937007874016
            },
            {
              "number": 11,
              "ticks": 12910,
              "time": 14.53827375,
              "value": 0.8503937007874016
            },
            {
              "number": 11,
              "ticks": 12925,
              "time": 14.555165625,
              "value": 0.8661417322834646
            },
            {
              "number": 11,
              "ticks": 12940,
              "time": 14.5720575,
              "value": 0.8740157480314961
            },
            {
              "number": 11,
              "ticks": 12955,
              "time": 14.588949375,
              "value": 0.8818897637795275
            },
            {
              "number": 11,
              "ticks": 12970,
              "time": 14.60584125,
              "value": 0.8976377952755905
            },
            {
              "number": 11,
              "ticks": 12985,
              "time": 14.622733125,
              "value": 0.9133858267716536
            },
            {
              "number": 11,
              "ticks": 13000,
              "time": 14.639625,
              "value": 0.9212598425196851
            },
            {
              "number": 11,
              "ticks": 13015,
              "time": 14.656516875,
              "value": 0.9291338582677166
            },
            {
              "number": 11,
              "ticks": 13030,
              "time": 14.67340875,
              "value": 0.9291338582677166
            },
            {
              "number": 11,
              "ticks": 13045,
              "time": 14.690300625,
              "value": 0.937007874015748
            },
            {
              "number": 11,
              "ticks": 13060,
              "time": 14.7071925,
              "value": 0.952755905511811
            },
            {
              "number": 11,
              "ticks": 13075,
              "time": 14.724084375,
              "value": 0.9606299212598425
            },
            {
              "number": 11,
              "ticks": 13090,
              "time": 14.74097625,
              "value": 0.968503937007874
            },
            {
              "number": 11,
              "ticks": 13105,
              "time": 14.757868125,
              "value": 1
            },
            {
              "number": 11,
              "ticks": 13120,
              "time": 14.77476,
              "value": 1
            },
            {
              "number": 11,
              "ticks": 13135,
              "time": 14.791651875,
              "value": 1
            },
            {
              "number": 11,
              "ticks": 13150,
              "time": 14.80854375,
              "value": 1
            },
            {
              "number": 11,
              "ticks": 13165,
              "time": 14.825435625,
              "value": 1
            },
            {
              "number": 11,
              "ticks": 13180,
              "time": 14.8423275,
              "value": 1
            },
            {
              "number": 11,
              "ticks": 13195,
              "time": 14.859219375,
              "value": 1
            },
            {
              "number": 11,
              "ticks": 13244,
              "time": 14.9143995,
              "value": 1
            },
            {
              "number": 11,
              "ticks": 13245,
              "time": 14.915525625,
              "value": 1
            },
            {
              "number": 11,
              "ticks": 14363,
              "time": 16.174533375,
              "value": 1
            },
            {
              "number": 11,
              "ticks": 14378,
              "time": 16.19142525,
              "value": 1
            },
            {
              "number": 11,
              "ticks": 14393,
              "time": 16.208317125,
              "value": 1
            },
            {
              "number": 11,
              "ticks": 14408,
              "time": 16.225209,
              "value": 0.984251968503937
            },
            {
              "number": 11,
              "ticks": 14423,
              "time": 16.242100875,
              "value": 0.952755905511811
            },
            {
              "number": 11,
              "ticks": 14438,
              "time": 16.25899275,
              "value": 0.937007874015748
            },
            {
              "number": 11,
              "ticks": 14453,
              "time": 16.275884625,
              "value": 0.8976377952755905
            },
            {
              "number": 11,
              "ticks": 14468,
              "time": 16.2927765,
              "value": 0.8818897637795275
            },
            {
              "number": 11,
              "ticks": 14483,
              "time": 16.309668375,
              "value": 0.8582677165354331
            },
            {
              "number": 11,
              "ticks": 14498,
              "time": 16.32656025,
              "value": 0.8582677165354331
            },
            {
              "number": 11,
              "ticks": 14513,
              "time": 16.343452125,
              "value": 0.8503937007874016
            },
            {
              "number": 11,
              "ticks": 14528,
              "time": 16.360344,
              "value": 0.8346456692913385
            },
            {
              "number": 11,
              "ticks": 14543,
              "time": 16.377235875,
              "value": 0.8110236220472441
            },
            {
              "number": 11,
              "ticks": 14558,
              "time": 16.39412775,
              "value": 0.8110236220472441
            },
            {
              "number": 11,
              "ticks": 14573,
              "time": 16.411019625,
              "value": 0.7952755905511811
            },
            {
              "number": 11,
              "ticks": 14588,
              "time": 16.4279115,
              "value": 0.7952755905511811
            },
            {
              "number": 11,
              "ticks": 14603,
              "time": 16.444803375,
              "value": 0.7795275590551181
            },
            {
              "number": 11,
              "ticks": 14618,
              "time": 16.461695250000002,
              "value": 0.7795275590551181
            },
            {
              "number": 11,
              "ticks": 14622,
              "time": 16.46619975,
              "value": 0.7795275590551181
            },
            {
              "number": 11,
              "ticks": 14648,
              "time": 16.495479,
              "value": 0.7559055118110236
            },
            {
              "number": 11,
              "ticks": 14663,
              "time": 16.512370875,
              "value": 0.7559055118110236
            },
            {
              "number": 11,
              "ticks": 14678,
              "time": 16.52926275,
              "value": 0.7637795275590551
            },
            {
              "number": 11,
              "ticks": 14693,
              "time": 16.546154625,
              "value": 0.7795275590551181
            },
            {
              "number": 11,
              "ticks": 14708,
              "time": 16.5630465,
              "value": 0.7874015748031497
            },
            {
              "number": 11,
              "ticks": 14723,
              "time": 16.579938375,
              "value": 0.7874015748031497
            },
            {
              "number": 11,
              "ticks": 14738,
              "time": 16.59683025,
              "value": 0.7952755905511811
            },
            {
              "number": 11,
              "ticks": 14753,
              "time": 16.613722125,
              "value": 0.8110236220472441
            },
            {
              "number": 11,
              "ticks": 14768,
              "time": 16.630614,
              "value": 0.8267716535433071
            },
            {
              "number": 11,
              "ticks": 14783,
              "time": 16.647505875,
              "value": 0.8346456692913385
            },
            {
              "number": 11,
              "ticks": 14798,
              "time": 16.66439775,
              "value": 0.8346456692913385
            },
            {
              "number": 11,
              "ticks": 14813,
              "time": 16.681289625,
              "value": 0.84251968503937
            },
            {
              "number": 11,
              "ticks": 14828,
              "time": 16.6981815,
              "value": 0.8503937007874016
            },
            {
              "number": 11,
              "ticks": 14843,
              "time": 16.715073375,
              "value": 0.8503937007874016
            },
            {
              "number": 11,
              "ticks": 14858,
              "time": 16.731965250000002,
              "value": 0.8661417322834646
            },
            {
              "number": 11,
              "ticks": 14873,
              "time": 16.748857125,
              "value": 0.8740157480314961
            },
            {
              "number": 11,
              "ticks": 14888,
              "time": 16.765749,
              "value": 0.8818897637795275
            },
            {
              "number": 11,
              "ticks": 14903,
              "time": 16.782640875,
              "value": 0.8976377952755905
            },
            {
              "number": 11,
              "ticks": 14918,
              "time": 16.79953275,
              "value": 0.9133858267716536
            },
            {
              "number": 11,
              "ticks": 14933,
              "time": 16.816424625,
              "value": 0.9212598425196851
            },
            {
              "number": 11,
              "ticks": 14948,
              "time": 16.8333165,
              "value": 0.9291338582677166
            },
            {
              "number": 11,
              "ticks": 14963,
              "time": 16.850208375,
              "value": 0.9291338582677166
            },
            {
              "number": 11,
              "ticks": 14978,
              "time": 16.86710025,
              "value": 0.937007874015748
            },
            {
              "number": 11,
              "ticks": 14993,
              "time": 16.883992125,
              "value": 0.952755905511811
            },
            {
              "number": 11,
              "ticks": 15008,
              "time": 16.900884,
              "value": 0.9606299212598425
            },
            {
              "number": 11,
              "ticks": 15023,
              "time": 16.917775875,
              "value": 0.968503937007874
            },
            {
              "number": 11,
              "ticks": 15038,
              "time": 16.93466775,
              "value": 1
            },
            {
              "number": 11,
              "ticks": 15053,
              "time": 16.951559625,
              "value": 1
            },
            {
              "number": 11,
              "ticks": 15068,
              "time": 16.9684515,
              "value": 1
            },
            {
              "number": 11,
              "ticks": 15083,
              "time": 16.985343375,
              "value": 1
            },
            {
              "number": 11,
              "ticks": 15098,
              "time": 17.002235250000002,
              "value": 1
            },
            {
              "number": 11,
              "ticks": 15113,
              "time": 17.019127125,
              "value": 1
            },
            {
              "number": 11,
              "ticks": 15128,
              "time": 17.036019,
              "value": 1
            },
            {
              "number": 11,
              "ticks": 15177,
              "time": 17.091199125,
              "value": 1
            },
            {
              "number": 11,
              "ticks": 15178,
              "time": 17.092325250000002,
              "value": 1
            },
            {
              "number": 11,
              "ticks": 17160,
              "time": 19.324305000000003,
              "value": 0.6614173228346457
            },
            {
              "number": 11,
              "ticks": 17175,
              "time": 19.341196875,
              "value": 0.6299212598425197
            },
            {
              "number": 11,
              "ticks": 17190,
              "time": 19.35808875,
              "value": 0.6062992125984252
            },
            {
              "number": 11,
              "ticks": 17205,
              "time": 19.374980625,
              "value": 0.5748031496062992
            },
            {
              "number": 11,
              "ticks": 17220,
              "time": 19.3918725,
              "value": 0.5511811023622047
            },
            {
              "number": 11,
              "ticks": 17235,
              "time": 19.408764375,
              "value": 0.5275590551181102
            },
            {
              "number": 11,
              "ticks": 17250,
              "time": 19.42565625,
              "value": 0.5039370078740157
            },
            {
              "number": 11,
              "ticks": 17265,
              "time": 19.442548125000002,
              "value": 0.48031496062992124
            },
            {
              "number": 11,
              "ticks": 17280,
              "time": 19.45944,
              "value": 0.4645669291338583
            },
            {
              "number": 11,
              "ticks": 17295,
              "time": 19.476331875,
              "value": 0.4409448818897638
            },
            {
              "number": 11,
              "ticks": 17299,
              "time": 19.480836375,
              "value": 0.4330708661417323
            },
            {
              "number": 11,
              "ticks": 17455,
              "time": 19.656511875000003,
              "value": 0.4330708661417323
            },
            {
              "number": 11,
              "ticks": 17470,
              "time": 19.673403750000002,
              "value": 0.4566929133858268
            },
            {
              "number": 11,
              "ticks": 17485,
              "time": 19.690295625,
              "value": 0.48031496062992124
            },
            {
              "number": 11,
              "ticks": 17500,
              "time": 19.707187500000003,
              "value": 0.5039370078740157
            },
            {
              "number": 11,
              "ticks": 17515,
              "time": 19.724079375000002,
              "value": 0.5275590551181102
            },
            {
              "number": 11,
              "ticks": 17530,
              "time": 19.74097125,
              "value": 0.5433070866141733
            },
            {
              "number": 11,
              "ticks": 17545,
              "time": 19.757863125000004,
              "value": 0.5669291338582677
            },
            {
              "number": 11,
              "ticks": 17560,
              "time": 19.774755000000003,
              "value": 0.5905511811023622
            },
            {
              "number": 11,
              "ticks": 17575,
              "time": 19.791646875,
              "value": 0.6141732283464567
            },
            {
              "number": 11,
              "ticks": 17590,
              "time": 19.80853875,
              "value": 0.6299212598425197
            },
            {
              "number": 11,
              "ticks": 17605,
              "time": 19.825430625000003,
              "value": 0.6535433070866141
            },
            {
              "number": 11,
              "ticks": 17620,
              "time": 19.8423225,
              "value": 0.6692913385826772
            },
            {
              "number": 11,
              "ticks": 17635,
              "time": 19.859214375,
              "value": 0.6929133858267716
            },
            {
              "number": 11,
              "ticks": 17650,
              "time": 19.876106250000003,
              "value": 0.7086614173228346
            },
            {
              "number": 11,
              "ticks": 17665,
              "time": 19.892998125000002,
              "value": 0.7322834645669292
            },
            {
              "number": 11,
              "ticks": 17680,
              "time": 19.90989,
              "value": 0.7480314960629921
            },
            {
              "number": 11,
              "ticks": 17695,
              "time": 19.926781875000003,
              "value": 0.7637795275590551
            },
            {
              "number": 11,
              "ticks": 17710,
              "time": 19.943673750000002,
              "value": 0.7874015748031497
            },
            {
              "number": 11,
              "ticks": 17725,
              "time": 19.960565625,
              "value": 0.8031496062992126
            },
            {
              "number": 11,
              "ticks": 17740,
              "time": 19.977457500000003,
              "value": 0.8188976377952756
            },
            {
              "number": 11,
              "ticks": 17755,
              "time": 19.994349375000002,
              "value": 0.8346456692913385
            },
            {
              "number": 11,
              "ticks": 17770,
              "time": 20.01124125,
              "value": 0.8503937007874016
            },
            {
              "number": 11,
              "ticks": 17785,
              "time": 20.028133125000004,
              "value": 0.8661417322834646
            },
            {
              "number": 11,
              "ticks": 17800,
              "time": 20.045025000000003,
              "value": 0.8818897637795275
            },
            {
              "number": 11,
              "ticks": 17815,
              "time": 20.061916875,
              "value": 0.8976377952755905
            },
            {
              "number": 11,
              "ticks": 17830,
              "time": 20.07880875,
              "value": 0.9133858267716536
            },
            {
              "number": 11,
              "ticks": 17845,
              "time": 20.095700625000003,
              "value": 0.9291338582677166
            },
            {
              "number": 11,
              "ticks": 17860,
              "time": 20.1125925,
              "value": 0.9448818897637795
            },
            {
              "number": 11,
              "ticks": 17875,
              "time": 20.129484375,
              "value": 0.9606299212598425
            },
            {
              "number": 11,
              "ticks": 17890,
              "time": 20.146376250000003,
              "value": 0.9763779527559056
            },
            {
              "number": 11,
              "ticks": 17914,
              "time": 20.17340325,
              "value": 1
            },
            {
              "number": 11,
              "ticks": 17975,
              "time": 20.242096874999998,
              "value": 1
            },
            {
              "number": 11,
              "ticks": 94580,
              "time": 106.5089025,
              "value": 0.7874015748031497
            },
            {
              "number": 11,
              "ticks": 94595,
              "time": 106.525794375,
              "value": 0.8346456692913385
            },
            {
              "number": 11,
              "ticks": 94610,
              "time": 106.54268625,
              "value": 0.889763779527559
            },
            {
              "number": 11,
              "ticks": 94625,
              "time": 106.559578125,
              "value": 0.9448818897637795
            },
            {
              "number": 11,
              "ticks": 94639,
              "time": 106.575343875,
              "value": 1
            },
            {
              "number": 11,
              "ticks": 97355,
              "time": 109.633899375,
              "value": 0.8661417322834646
            },
            {
              "number": 11,
              "ticks": 97370,
              "time": 109.65079125,
              "value": 0.8976377952755905
            },
            {
              "number": 11,
              "ticks": 97385,
              "time": 109.667683125,
              "value": 0.937007874015748
            },
            {
              "number": 11,
              "ticks": 97400,
              "time": 109.684575,
              "value": 0.968503937007874
            },
            {
              "number": 11,
              "ticks": 97415,
              "time": 109.701466875,
              "value": 1
            },
            {
              "number": 11,
              "ticks": 97430,
              "time": 109.71835875,
              "value": 1
            },
            {
              "number": 11,
              "ticks": 97444,
              "time": 109.7341245,
              "value": 1
            },
            {
              "number": 11,
              "ticks": 100340,
              "time": 112.9953825,
              "value": 0.8267716535433071
            },
            {
              "number": 11,
              "ticks": 100355,
              "time": 113.012274375,
              "value": 0.8740157480314961
            },
            {
              "number": 11,
              "ticks": 100370,
              "time": 113.02916625,
              "value": 0.9212598425196851
            },
            {
              "number": 11,
              "ticks": 100385,
              "time": 113.046058125,
              "value": 0.968503937007874
            },
            {
              "number": 11,
              "ticks": 100400,
              "time": 113.06295,
              "value": 1
            },
            {
              "number": 11,
              "ticks": 100404,
              "time": 113.06745450000001,
              "value": 1
            },
            {
              "number": 11,
              "ticks": 100830,
              "time": 113.54718375,
              "value": 0.8267716535433071
            },
            {
              "number": 11,
              "ticks": 100845,
              "time": 113.564075625,
              "value": 0.8661417322834646
            },
            {
              "number": 11,
              "ticks": 100860,
              "time": 113.5809675,
              "value": 0.905511811023622
            },
            {
              "number": 11,
              "ticks": 100875,
              "time": 113.597859375,
              "value": 0.952755905511811
            },
            {
              "number": 11,
              "ticks": 100890,
              "time": 113.61475125,
              "value": 0.9921259842519685
            },
            {
              "number": 11,
              "ticks": 100904,
              "time": 113.63051700000001,
              "value": 1
            },
            {
              "number": 11,
              "ticks": 102670,
              "time": 115.61925375000001,
              "value": 1
            },
            {
              "number": 11,
              "ticks": 102685,
              "time": 115.63614562500001,
              "value": 1
            },
            {
              "number": 11,
              "ticks": 102700,
              "time": 115.65303750000001,
              "value": 1
            },
            {
              "number": 11,
              "ticks": 102715,
              "time": 115.66992937500001,
              "value": 0.984251968503937
            },
            {
              "number": 11,
              "ticks": 102730,
              "time": 115.68682125000001,
              "value": 0.952755905511811
            },
            {
              "number": 11,
              "ticks": 102745,
              "time": 115.70371312500001,
              "value": 0.937007874015748
            },
            {
              "number": 11,
              "ticks": 102760,
              "time": 115.720605,
              "value": 0.8976377952755905
            },
            {
              "number": 11,
              "ticks": 102775,
              "time": 115.737496875,
              "value": 0.8818897637795275
            },
            {
              "number": 11,
              "ticks": 102790,
              "time": 115.75438875,
              "value": 0.8582677165354331
            },
            {
              "number": 11,
              "ticks": 102805,
              "time": 115.771280625,
              "value": 0.8582677165354331
            },
            {
              "number": 11,
              "ticks": 102820,
              "time": 115.78817250000002,
              "value": 0.8503937007874016
            },
            {
              "number": 11,
              "ticks": 102835,
              "time": 115.80506437500001,
              "value": 0.8346456692913385
            },
            {
              "number": 11,
              "ticks": 102850,
              "time": 115.82195625000001,
              "value": 0.8110236220472441
            },
            {
              "number": 11,
              "ticks": 102865,
              "time": 115.83884812500001,
              "value": 0.8110236220472441
            },
            {
              "number": 11,
              "ticks": 102880,
              "time": 115.85574000000001,
              "value": 0.7952755905511811
            },
            {
              "number": 11,
              "ticks": 102895,
              "time": 115.87263187500001,
              "value": 0.7952755905511811
            },
            {
              "number": 11,
              "ticks": 102910,
              "time": 115.88952375000001,
              "value": 0.7795275590551181
            },
            {
              "number": 11,
              "ticks": 102925,
              "time": 115.90641562500001,
              "value": 0.7795275590551181
            },
            {
              "number": 11,
              "ticks": 102929,
              "time": 115.910920125,
              "value": 0.7795275590551181
            },
            {
              "number": 11,
              "ticks": 102955,
              "time": 115.940199375,
              "value": 0.7559055118110236
            },
            {
              "number": 11,
              "ticks": 102970,
              "time": 115.95709125,
              "value": 0.7559055118110236
            },
            {
              "number": 11,
              "ticks": 102985,
              "time": 115.973983125,
              "value": 0.7637795275590551
            },
            {
              "number": 11,
              "ticks": 103000,
              "time": 115.990875,
              "value": 0.7795275590551181
            },
            {
              "number": 11,
              "ticks": 103015,
              "time": 116.00776687500002,
              "value": 0.7874015748031497
            },
            {
              "number": 11,
              "ticks": 103030,
              "time": 116.02465875000001,
              "value": 0.7874015748031497
            },
            {
              "number": 11,
              "ticks": 103045,
              "time": 116.04155062500001,
              "value": 0.7952755905511811
            },
            {
              "number": 11,
              "ticks": 103060,
              "time": 116.05844250000001,
              "value": 0.8110236220472441
            },
            {
              "number": 11,
              "ticks": 103075,
              "time": 116.07533437500001,
              "value": 0.8267716535433071
            },
            {
              "number": 11,
              "ticks": 103090,
              "time": 116.09222625000001,
              "value": 0.8346456692913385
            },
            {
              "number": 11,
              "ticks": 103105,
              "time": 116.10911812500001,
              "value": 0.8346456692913385
            },
            {
              "number": 11,
              "ticks": 103120,
              "time": 116.12601000000001,
              "value": 0.84251968503937
            },
            {
              "number": 11,
              "ticks": 103135,
              "time": 116.142901875,
              "value": 0.8503937007874016
            },
            {
              "number": 11,
              "ticks": 103150,
              "time": 116.15979375,
              "value": 0.8503937007874016
            },
            {
              "number": 11,
              "ticks": 103165,
              "time": 116.176685625,
              "value": 0.8661417322834646
            },
            {
              "number": 11,
              "ticks": 103180,
              "time": 116.1935775,
              "value": 0.8740157480314961
            },
            {
              "number": 11,
              "ticks": 103195,
              "time": 116.21046937500002,
              "value": 0.8818897637795275
            },
            {
              "number": 11,
              "ticks": 103210,
              "time": 116.22736125000002,
              "value": 0.8976377952755905
            },
            {
              "number": 11,
              "ticks": 103225,
              "time": 116.24425312500001,
              "value": 0.9133858267716536
            },
            {
              "number": 11,
              "ticks": 103240,
              "time": 116.26114500000001,
              "value": 0.9212598425196851
            },
            {
              "number": 11,
              "ticks": 103255,
              "time": 116.27803687500001,
              "value": 0.9291338582677166
            },
            {
              "number": 11,
              "ticks": 103270,
              "time": 116.29492875000001,
              "value": 0.9291338582677166
            },
            {
              "number": 11,
              "ticks": 103285,
              "time": 116.31182062500001,
              "value": 0.937007874015748
            },
            {
              "number": 11,
              "ticks": 103300,
              "time": 116.32871250000001,
              "value": 0.952755905511811
            },
            {
              "number": 11,
              "ticks": 103315,
              "time": 116.34560437500001,
              "value": 0.9606299212598425
            },
            {
              "number": 11,
              "ticks": 103330,
              "time": 116.36249625,
              "value": 0.968503937007874
            },
            {
              "number": 11,
              "ticks": 103345,
              "time": 116.379388125,
              "value": 1
            },
            {
              "number": 11,
              "ticks": 103360,
              "time": 116.39628,
              "value": 1
            },
            {
              "number": 11,
              "ticks": 103375,
              "time": 116.413171875,
              "value": 1
            },
            {
              "number": 11,
              "ticks": 103390,
              "time": 116.43006375000002,
              "value": 1
            },
            {
              "number": 11,
              "ticks": 103405,
              "time": 116.44695562500002,
              "value": 1
            },
            {
              "number": 11,
              "ticks": 103420,
              "time": 116.46384750000001,
              "value": 1
            },
            {
              "number": 11,
              "ticks": 103435,
              "time": 116.48073937500001,
              "value": 1
            },
            {
              "number": 11,
              "ticks": 103484,
              "time": 116.5359195,
              "value": 1
            },
            {
              "number": 11,
              "ticks": 103485,
              "time": 116.537045625,
              "value": 1
            },
            {
              "number": 11,
              "ticks": 104603,
              "time": 117.79605337500001,
              "value": 1
            },
            {
              "number": 11,
              "ticks": 104618,
              "time": 117.81294525000001,
              "value": 1
            },
            {
              "number": 11,
              "ticks": 104633,
              "time": 117.82983712500001,
              "value": 1
            },
            {
              "number": 11,
              "ticks": 104648,
              "time": 117.84672900000001,
              "value": 0.984251968503937
            },
            {
              "number": 11,
              "ticks": 104663,
              "time": 117.86362087500001,
              "value": 0.952755905511811
            },
            {
              "number": 11,
              "ticks": 104678,
              "time": 117.88051275000001,
              "value": 0.937007874015748
            },
            {
              "number": 11,
              "ticks": 104693,
              "time": 117.89740462500001,
              "value": 0.8976377952755905
            },
            {
              "number": 11,
              "ticks": 104708,
              "time": 117.9142965,
              "value": 0.8818897637795275
            },
            {
              "number": 11,
              "ticks": 104723,
              "time": 117.931188375,
              "value": 0.8582677165354331
            },
            {
              "number": 11,
              "ticks": 104738,
              "time": 117.94808025000002,
              "value": 0.8582677165354331
            },
            {
              "number": 11,
              "ticks": 104753,
              "time": 117.96497212500002,
              "value": 0.8503937007874016
            },
            {
              "number": 11,
              "ticks": 104768,
              "time": 117.98186400000002,
              "value": 0.8346456692913385
            },
            {
              "number": 11,
              "ticks": 104783,
              "time": 117.99875587500001,
              "value": 0.8110236220472441
            },
            {
              "number": 11,
              "ticks": 104798,
              "time": 118.01564775000001,
              "value": 0.8110236220472441
            },
            {
              "number": 11,
              "ticks": 104813,
              "time": 118.03253962500001,
              "value": 0.7952755905511811
            },
            {
              "number": 11,
              "ticks": 104828,
              "time": 118.04943150000001,
              "value": 0.7952755905511811
            },
            {
              "number": 11,
              "ticks": 104843,
              "time": 118.06632337500001,
              "value": 0.7795275590551181
            },
            {
              "number": 11,
              "ticks": 104858,
              "time": 118.08321525000001,
              "value": 0.7795275590551181
            },
            {
              "number": 11,
              "ticks": 104862,
              "time": 118.08771975,
              "value": 0.7795275590551181
            },
            {
              "number": 11,
              "ticks": 104888,
              "time": 118.116999,
              "value": 0.7559055118110236
            },
            {
              "number": 11,
              "ticks": 104903,
              "time": 118.133890875,
              "value": 0.7559055118110236
            },
            {
              "number": 11,
              "ticks": 104918,
              "time": 118.15078275,
              "value": 0.7637795275590551
            },
            {
              "number": 11,
              "ticks": 104933,
              "time": 118.16767462500002,
              "value": 0.7795275590551181
            },
            {
              "number": 11,
              "ticks": 104948,
              "time": 118.18456650000002,
              "value": 0.7874015748031497
            },
            {
              "number": 11,
              "ticks": 104963,
              "time": 118.20145837500002,
              "value": 0.7874015748031497
            },
            {
              "number": 11,
              "ticks": 104978,
              "time": 118.21835025000001,
              "value": 0.7952755905511811
            },
            {
              "number": 11,
              "ticks": 104993,
              "time": 118.23524212500001,
              "value": 0.8110236220472441
            },
            {
              "number": 11,
              "ticks": 105008,
              "time": 118.25213400000001,
              "value": 0.8267716535433071
            },
            {
              "number": 11,
              "ticks": 105023,
              "time": 118.26902587500001,
              "value": 0.8346456692913385
            },
            {
              "number": 11,
              "ticks": 105038,
              "time": 118.28591775000001,
              "value": 0.8346456692913385
            },
            {
              "number": 11,
              "ticks": 105053,
              "time": 118.30280962500001,
              "value": 0.84251968503937
            },
            {
              "number": 11,
              "ticks": 105068,
              "time": 118.31970150000001,
              "value": 0.8503937007874016
            },
            {
              "number": 11,
              "ticks": 105083,
              "time": 118.336593375,
              "value": 0.8503937007874016
            },
            {
              "number": 11,
              "ticks": 105098,
              "time": 118.35348525,
              "value": 0.8661417322834646
            },
            {
              "number": 11,
              "ticks": 105113,
              "time": 118.37037712500002,
              "value": 0.8740157480314961
            },
            {
              "number": 11,
              "ticks": 105128,
              "time": 118.38726900000002,
              "value": 0.8818897637795275
            },
            {
              "number": 11,
              "ticks": 105143,
              "time": 118.40416087500002,
              "value": 0.8976377952755905
            },
            {
              "number": 11,
              "ticks": 105158,
              "time": 118.42105275000002,
              "value": 0.9133858267716536
            },
            {
              "number": 11,
              "ticks": 105173,
              "time": 118.43794462500001,
              "value": 0.9212598425196851
            },
            {
              "number": 11,
              "ticks": 105188,
              "time": 118.45483650000001,
              "value": 0.9291338582677166
            },
            {
              "number": 11,
              "ticks": 105203,
              "time": 118.47172837500001,
              "value": 0.9291338582677166
            },
            {
              "number": 11,
              "ticks": 105218,
              "time": 118.48862025000001,
              "value": 0.937007874015748
            },
            {
              "number": 11,
              "ticks": 105233,
              "time": 118.50551212500001,
              "value": 0.952755905511811
            },
            {
              "number": 11,
              "ticks": 105248,
              "time": 118.52240400000001,
              "value": 0.9606299212598425
            },
            {
              "number": 11,
              "ticks": 105263,
              "time": 118.53929587500001,
              "value": 0.968503937007874
            },
            {
              "number": 11,
              "ticks": 105278,
              "time": 118.55618775,
              "value": 1
            },
            {
              "number": 11,
              "ticks": 105293,
              "time": 118.573079625,
              "value": 1
            },
            {
              "number": 11,
              "ticks": 105308,
              "time": 118.58997150000002,
              "value": 1
            },
            {
              "number": 11,
              "ticks": 105323,
              "time": 118.60686337500002,
              "value": 1
            },
            {
              "number": 11,
              "ticks": 105338,
              "time": 118.62375525000002,
              "value": 1
            },
            {
              "number": 11,
              "ticks": 105353,
              "time": 118.64064712500002,
              "value": 1
            },
            {
              "number": 11,
              "ticks": 105368,
              "time": 118.65753900000001,
              "value": 1
            },
            {
              "number": 11,
              "ticks": 105417,
              "time": 118.712719125,
              "value": 1
            },
            {
              "number": 11,
              "ticks": 105418,
              "time": 118.71384525,
              "value": 1
            },
            {
              "number": 11,
              "ticks": 107400,
              "time": 120.945825,
              "value": 0.6614173228346457
            },
            {
              "number": 11,
              "ticks": 107415,
              "time": 120.962716875,
              "value": 0.6299212598425197
            },
            {
              "number": 11,
              "ticks": 107430,
              "time": 120.97960875000001,
              "value": 0.6062992125984252
            },
            {
              "number": 11,
              "ticks": 107445,
              "time": 120.99650062500001,
              "value": 0.5748031496062992
            },
            {
              "number": 11,
              "ticks": 107460,
              "time": 121.01339250000001,
              "value": 0.5511811023622047
            },
            {
              "number": 11,
              "ticks": 107475,
              "time": 121.03028437500001,
              "value": 0.5275590551181102
            },
            {
              "number": 11,
              "ticks": 107490,
              "time": 121.04717625,
              "value": 0.5039370078740157
            },
            {
              "number": 11,
              "ticks": 107505,
              "time": 121.064068125,
              "value": 0.48031496062992124
            },
            {
              "number": 11,
              "ticks": 107520,
              "time": 121.08096,
              "value": 0.4645669291338583
            },
            {
              "number": 11,
              "ticks": 107535,
              "time": 121.097851875,
              "value": 0.4409448818897638
            },
            {
              "number": 11,
              "ticks": 107539,
              "time": 121.102356375,
              "value": 0.4330708661417323
            },
            {
              "number": 11,
              "ticks": 107695,
              "time": 121.27803187500001,
              "value": 0.4330708661417323
            },
            {
              "number": 11,
              "ticks": 107710,
              "time": 121.29492375000001,
              "value": 0.4566929133858268
            },
            {
              "number": 11,
              "ticks": 107725,
              "time": 121.31181562500001,
              "value": 0.48031496062992124
            },
            {
              "number": 11,
              "ticks": 107740,
              "time": 121.32870750000001,
              "value": 0.5039370078740157
            },
            {
              "number": 11,
              "ticks": 107755,
              "time": 121.345599375,
              "value": 0.5275590551181102
            },
            {
              "number": 11,
              "ticks": 107770,
              "time": 121.36249125,
              "value": 0.5433070866141733
            },
            {
              "number": 11,
              "ticks": 107785,
              "time": 121.379383125,
              "value": 0.5669291338582677
            },
            {
              "number": 11,
              "ticks": 107800,
              "time": 121.396275,
              "value": 0.5905511811023622
            },
            {
              "number": 11,
              "ticks": 107815,
              "time": 121.41316687500002,
              "value": 0.6141732283464567
            },
            {
              "number": 11,
              "ticks": 107830,
              "time": 121.43005875000001,
              "value": 0.6299212598425197
            },
            {
              "number": 11,
              "ticks": 107845,
              "time": 121.44695062500001,
              "value": 0.6535433070866141
            },
            {
              "number": 11,
              "ticks": 107860,
              "time": 121.46384250000001,
              "value": 0.6692913385826772
            },
            {
              "number": 11,
              "ticks": 107875,
              "time": 121.48073437500001,
              "value": 0.6929133858267716
            },
            {
              "number": 11,
              "ticks": 107890,
              "time": 121.49762625000001,
              "value": 0.7086614173228346
            },
            {
              "number": 11,
              "ticks": 107905,
              "time": 121.51451812500001,
              "value": 0.7322834645669292
            },
            {
              "number": 11,
              "ticks": 107920,
              "time": 121.53141000000001,
              "value": 0.7480314960629921
            },
            {
              "number": 11,
              "ticks": 107935,
              "time": 121.548301875,
              "value": 0.7637795275590551
            },
            {
              "number": 11,
              "ticks": 107950,
              "time": 121.56519375,
              "value": 0.7874015748031497
            },
            {
              "number": 11,
              "ticks": 107965,
              "time": 121.582085625,
              "value": 0.8031496062992126
            },
            {
              "number": 11,
              "ticks": 107980,
              "time": 121.5989775,
              "value": 0.8188976377952756
            },
            {
              "number": 11,
              "ticks": 107995,
              "time": 121.61586937500002,
              "value": 0.8346456692913385
            },
            {
              "number": 11,
              "ticks": 108010,
              "time": 121.63276125000002,
              "value": 0.8503937007874016
            },
            {
              "number": 11,
              "ticks": 108025,
              "time": 121.64965312500001,
              "value": 0.8661417322834646
            },
            {
              "number": 11,
              "ticks": 108040,
              "time": 121.66654500000001,
              "value": 0.8818897637795275
            },
            {
              "number": 11,
              "ticks": 108055,
              "time": 121.68343687500001,
              "value": 0.8976377952755905
            },
            {
              "number": 11,
              "ticks": 108070,
              "time": 121.70032875000001,
              "value": 0.9133858267716536
            },
            {
              "number": 11,
              "ticks": 108085,
              "time": 121.71722062500001,
              "value": 0.9291338582677166
            },
            {
              "number": 11,
              "ticks": 108100,
              "time": 121.73411250000001,
              "value": 0.9448818897637795
            },
            {
              "number": 11,
              "ticks": 108115,
              "time": 121.75100437500001,
              "value": 0.9606299212598425
            },
            {
              "number": 11,
              "ticks": 108130,
              "time": 121.76789625,
              "value": 0.9763779527559056
            },
            {
              "number": 11,
              "ticks": 108154,
              "time": 121.79492325,
              "value": 1
            },
            {
              "number": 11,
              "ticks": 108215,
              "time": 121.863616875,
              "value": 1
            },
            {
              "number": 11,
              "ticks": 215900,
              "time": 243.1303875,
              "value": 1
            },
            {
              "number": 11,
              "ticks": 216017,
              "time": 243.26214412500002,
              "value": 0.9921259842519685
            },
            {
              "number": 11,
              "ticks": 216134,
              "time": 243.39390075,
              "value": 0.984251968503937
            },
            {
              "number": 11,
              "ticks": 216251,
              "time": 243.525657375,
              "value": 0.9763779527559056
            },
            {
              "number": 11,
              "ticks": 216368,
              "time": 243.657414,
              "value": 0.968503937007874
            },
            {
              "number": 11,
              "ticks": 216485,
              "time": 243.78917062500003,
              "value": 0.9606299212598425
            },
            {
              "number": 11,
              "ticks": 216602,
              "time": 243.92092725,
              "value": 0.952755905511811
            },
            {
              "number": 11,
              "ticks": 216719,
              "time": 244.05268387499999,
              "value": 0.9448818897637795
            },
            {
              "number": 11,
              "ticks": 216836,
              "time": 244.18444050000002,
              "value": 0.937007874015748
            },
            {
              "number": 11,
              "ticks": 216953,
              "time": 244.316197125,
              "value": 0.9291338582677166
            },
            {
              "number": 11,
              "ticks": 217070,
              "time": 244.44795375,
              "value": 0.9212598425196851
            },
            {
              "number": 11,
              "ticks": 217187,
              "time": 244.57971037500002,
              "value": 0.9133858267716536
            },
            {
              "number": 11,
              "ticks": 217304,
              "time": 244.711467,
              "value": 0.905511811023622
            },
            {
              "number": 11,
              "ticks": 217421,
              "time": 244.843223625,
              "value": 0.8976377952755905
            },
            {
              "number": 11,
              "ticks": 217538,
              "time": 244.97498025,
              "value": 0.889763779527559
            },
            {
              "number": 11,
              "ticks": 217655,
              "time": 245.10673687500002,
              "value": 0.8818897637795275
            },
            {
              "number": 11,
              "ticks": 217772,
              "time": 245.2384935,
              "value": 0.8740157480314961
            },
            {
              "number": 11,
              "ticks": 217889,
              "time": 245.37025012499998,
              "value": 0.8661417322834646
            },
            {
              "number": 11,
              "ticks": 218006,
              "time": 245.50200675000002,
              "value": 0.8582677165354331
            },
            {
              "number": 11,
              "ticks": 218123,
              "time": 245.633763375,
              "value": 0.8503937007874016
            },
            {
              "number": 11,
              "ticks": 218240,
              "time": 245.76552,
              "value": 0.84251968503937
            },
            {
              "number": 11,
              "ticks": 218357,
              "time": 245.89727662500002,
              "value": 0.8346456692913385
            },
            {
              "number": 11,
              "ticks": 218474,
              "time": 246.02903325,
              "value": 0.8267716535433071
            },
            {
              "number": 11,
              "ticks": 218591,
              "time": 246.160789875,
              "value": 0.8188976377952756
            },
            {
              "number": 11,
              "ticks": 218708,
              "time": 246.29254650000001,
              "value": 0.8110236220472441
            },
            {
              "number": 11,
              "ticks": 218825,
              "time": 246.42430312500002,
              "value": 0.8031496062992126
            },
            {
              "number": 11,
              "ticks": 218942,
              "time": 246.55605975,
              "value": 0.7952755905511811
            },
            {
              "number": 11,
              "ticks": 219059,
              "time": 246.68781637499998,
              "value": 0.7874015748031497
            },
            {
              "number": 11,
              "ticks": 221159,
              "time": 249.052678875,
              "value": 1
            }
          ],
          "38": [
            {
              "number": 38,
              "ticks": 600,
              "time": 0.675675,
              "value": 0.09448818897637795
            }
          ],
          "91": [
            {
              "number": 91,
              "ticks": 570,
              "time": 0.64189125,
              "value": 0.3937007874015748
            }
          ],
          "93": [
            {
              "number": 93,
              "ticks": 570,
              "time": 0.64189125,
              "value": 0.07874015748031496
            }
          ],
          "100": [
            {
              "number": 100,
              "ticks": 590,
              "time": 0.66441375,
              "value": 0
            }
          ],
          "101": [
            {
              "number": 101,
              "ticks": 580,
              "time": 0.6531525,
              "value": 0
            }
          ]
        },
        "pitchBends": [
          {
            "ticks": 94582,
            "time": 106.51115475,
            "value": -0.0343017578125
          },
          {
            "ticks": 94597,
            "time": 106.528046625,
            "value": -0.0238037109375
          },
          {
            "ticks": 94612,
            "time": 106.5449385,
            "value": -0.013427734375
          },
          {
            "ticks": 94627,
            "time": 106.561830375,
            "value": -0.0028076171875
          },
          {
            "ticks": 94631,
            "time": 106.56633487500001,
            "value": 0
          },
          {
            "ticks": 97370,
            "time": 109.65079125,
            "value": -0.08056640625
          },
          {
            "ticks": 97385,
            "time": 109.667683125,
            "value": -0.0653076171875
          },
          {
            "ticks": 97400,
            "time": 109.684575,
            "value": -0.050048828125
          },
          {
            "ticks": 97415,
            "time": 109.701466875,
            "value": -0.03466796875
          },
          {
            "ticks": 97430,
            "time": 109.71835875,
            "value": -0.0194091796875
          },
          {
            "ticks": 97445,
            "time": 109.73525062499999,
            "value": -0.004150390625
          },
          {
            "ticks": 97449,
            "time": 109.73975512500002,
            "value": 0
          },
          {
            "ticks": 100345,
            "time": 113.00101312500001,
            "value": -0.03662109375
          },
          {
            "ticks": 100360,
            "time": 113.01790500000001,
            "value": -0.0291748046875
          },
          {
            "ticks": 100375,
            "time": 113.03479687500001,
            "value": -0.0218505859375
          },
          {
            "ticks": 100390,
            "time": 113.05168875000001,
            "value": -0.014404296875
          },
          {
            "ticks": 100405,
            "time": 113.06858062500001,
            "value": -0.0069580078125
          },
          {
            "ticks": 100419,
            "time": 113.08434637500001,
            "value": 0
          },
          {
            "ticks": 100835,
            "time": 113.552814375,
            "value": -0.0343017578125
          },
          {
            "ticks": 100850,
            "time": 113.56970625,
            "value": -0.0294189453125
          },
          {
            "ticks": 100865,
            "time": 113.586598125,
            "value": -0.0244140625
          },
          {
            "ticks": 100880,
            "time": 113.60349,
            "value": -0.01953125
          },
          {
            "ticks": 100895,
            "time": 113.62038187499999,
            "value": -0.0145263671875
          },
          {
            "ticks": 100910,
            "time": 113.63727375,
            "value": -0.0096435546875
          },
          {
            "ticks": 100925,
            "time": 113.654165625,
            "value": -0.004638671875
          },
          {
            "ticks": 100939,
            "time": 113.669931375,
            "value": 0
          }
        ],
        "instrument": {
          "family": "reed",
          "number": 65,
          "name": "alto sax"
        },
        "name": "",
        "notes": [
          {
            "duration": 0.07207199999999947,
            "durationTicks": 64,
            "midi": 58,
            "name": "A#3",
            "ticks": 4074,
            "time": 4.587833250000001,
            "velocity": 0.5669291338582677
          },
          {
            "duration": 0.047297249999999735,
            "durationTicks": 42,
            "midi": 62,
            "name": "D4",
            "ticks": 4077,
            "time": 4.591211625000001,
            "velocity": 0.6614173228346457
          },
          {
            "duration": 0.057432374999999425,
            "durationTicks": 51,
            "midi": 60,
            "name": "C4",
            "ticks": 4439,
            "time": 4.998868875,
            "velocity": 0.5669291338582677
          },
          {
            "duration": 0.0641891250000004,
            "durationTicks": 57,
            "midi": 64,
            "name": "E4",
            "ticks": 4440,
            "time": 4.999995,
            "velocity": 0.5669291338582677
          },
          {
            "duration": 1.0450440000000008,
            "durationTicks": 928,
            "midi": 65,
            "name": "F4",
            "ticks": 4697,
            "time": 5.289409125,
            "velocity": 0.6614173228346457
          },
          {
            "duration": 1.0551791250000004,
            "durationTicks": 937,
            "midi": 62,
            "name": "D4",
            "ticks": 4701,
            "time": 5.293913625,
            "velocity": 0.5669291338582677
          },
          {
            "duration": 0.07207199999999947,
            "durationTicks": 64,
            "midi": 58,
            "name": "A#3",
            "ticks": 5987,
            "time": 6.742110375,
            "velocity": 0.5669291338582677
          },
          {
            "duration": 0.07995487500000031,
            "durationTicks": 71,
            "midi": 62,
            "name": "D4",
            "ticks": 5989,
            "time": 6.744362625,
            "velocity": 0.5669291338582677
          },
          {
            "duration": 0.07207199999999947,
            "durationTicks": 64,
            "midi": 60,
            "name": "C4",
            "ticks": 6355,
            "time": 7.156524375000001,
            "velocity": 0.5669291338582677
          },
          {
            "duration": 0.0777026249999988,
            "durationTicks": 69,
            "midi": 64,
            "name": "E4",
            "ticks": 6356,
            "time": 7.157650500000001,
            "velocity": 0.5669291338582677
          },
          {
            "duration": 1.0101341250000004,
            "durationTicks": 897,
            "midi": 65,
            "name": "F4",
            "ticks": 6614,
            "time": 7.44819075,
            "velocity": 0.5669291338582677
          },
          {
            "duration": 0.9999990000000007,
            "durationTicks": 888,
            "midi": 62,
            "name": "D4",
            "ticks": 6618,
            "time": 7.45269525,
            "velocity": 0.5669291338582677
          },
          {
            "duration": 0.11036024999999938,
            "durationTicks": 98,
            "midi": 62,
            "name": "D4",
            "ticks": 7805,
            "time": 8.789405625,
            "velocity": 0.5669291338582677
          },
          {
            "duration": 0.08445937499999978,
            "durationTicks": 75,
            "midi": 58,
            "name": "A#3",
            "ticks": 7806,
            "time": 8.79053175,
            "velocity": 0.5669291338582677
          },
          {
            "duration": 0.07432425000000009,
            "durationTicks": 66,
            "midi": 60,
            "name": "C4",
            "ticks": 8168,
            "time": 9.198189,
            "velocity": 0.5669291338582677
          },
          {
            "duration": 0.08220712500000005,
            "durationTicks": 73,
            "midi": 64,
            "name": "E4",
            "ticks": 8169,
            "time": 9.199315125,
            "velocity": 0.5669291338582677
          },
          {
            "duration": 0.08445937500000156,
            "durationTicks": 75,
            "midi": 64,
            "name": "E4",
            "ticks": 8411,
            "time": 9.471837375,
            "velocity": 0.5669291338582677
          },
          {
            "duration": 0.06756750000000089,
            "durationTicks": 60,
            "midi": 60,
            "name": "C4",
            "ticks": 8411,
            "time": 9.471837375,
            "velocity": 0.48031496062992124
          },
          {
            "duration": 0.07770262500000058,
            "durationTicks": 69,
            "midi": 65,
            "name": "F4",
            "ticks": 8647,
            "time": 9.737602875,
            "velocity": 0.6614173228346457
          },
          {
            "duration": 0.06193687500000067,
            "durationTicks": 55,
            "midi": 62,
            "name": "D4",
            "ticks": 8649,
            "time": 9.739855125,
            "velocity": 0.5669291338582677
          },
          {
            "duration": 0.07207200000000036,
            "durationTicks": 64,
            "midi": 64,
            "name": "E4",
            "ticks": 8881,
            "time": 10.001116125000001,
            "velocity": 0.48031496062992124
          },
          {
            "duration": 0.05968462499999916,
            "durationTicks": 53,
            "midi": 67,
            "name": "G4",
            "ticks": 8882,
            "time": 10.00224225,
            "velocity": 0.5669291338582677
          },
          {
            "duration": 0.0698197500000024,
            "durationTicks": 62,
            "midi": 62,
            "name": "D4",
            "ticks": 9119,
            "time": 10.269133875,
            "velocity": 0.6614173228346457
          },
          {
            "duration": 0.07545037500000085,
            "durationTicks": 67,
            "midi": 65,
            "name": "F4",
            "ticks": 9120,
            "time": 10.27026,
            "velocity": 0.6614173228346457
          },
          {
            "duration": 0.12837824999999903,
            "durationTicks": 114,
            "midi": 60,
            "name": "C4",
            "ticks": 9353,
            "time": 10.532647125,
            "velocity": 0.5669291338582677
          },
          {
            "duration": 0.10585574999999992,
            "durationTicks": 94,
            "midi": 64,
            "name": "E4",
            "ticks": 9356,
            "time": 10.536025500000001,
            "velocity": 0.6614173228346457
          },
          {
            "duration": 2.0337817499999993,
            "durationTicks": 1806,
            "midi": 62,
            "name": "D4",
            "ticks": 9484,
            "time": 10.6801695,
            "velocity": 0.6614173228346457
          },
          {
            "duration": 2.0078808750000015,
            "durationTicks": 1783,
            "midi": 58,
            "name": "A#3",
            "ticks": 9485,
            "time": 10.681295625,
            "velocity": 0.5669291338582677
          },
          {
            "duration": 0.06981974999999885,
            "durationTicks": 62,
            "midi": 58,
            "name": "A#3",
            "ticks": 11754,
            "time": 13.236473250000001,
            "velocity": 0.6141732283464567
          },
          {
            "duration": 0.04279274999999849,
            "durationTicks": 38,
            "midi": 62,
            "name": "D4",
            "ticks": 11758,
            "time": 13.24097775,
            "velocity": 0.6141732283464567
          },
          {
            "duration": 0.06193687499999889,
            "durationTicks": 55,
            "midi": 60,
            "name": "C4",
            "ticks": 12120,
            "time": 13.648635,
            "velocity": 0.5275590551181102
          },
          {
            "duration": 0.06981975000000062,
            "durationTicks": 62,
            "midi": 64,
            "name": "E4",
            "ticks": 12121,
            "time": 13.649761125000001,
            "velocity": 0.6141732283464567
          },
          {
            "duration": 1.0720709999999976,
            "durationTicks": 952,
            "midi": 62,
            "name": "D4",
            "ticks": 12380,
            "time": 13.941427500000001,
            "velocity": 0.6141732283464567
          },
          {
            "duration": 1.0720709999999976,
            "durationTicks": 952,
            "midi": 65,
            "name": "F4",
            "ticks": 12380,
            "time": 13.941427500000001,
            "velocity": 0.7086614173228346
          },
          {
            "duration": 0.0641891250000004,
            "durationTicks": 57,
            "midi": 58,
            "name": "A#3",
            "ticks": 13663,
            "time": 15.386245875,
            "velocity": 0.6141732283464567
          },
          {
            "duration": 0.06531525000000116,
            "durationTicks": 58,
            "midi": 62,
            "name": "D4",
            "ticks": 13665,
            "time": 15.388498125,
            "velocity": 0.6141732283464567
          },
          {
            "duration": 0.06981974999999885,
            "durationTicks": 62,
            "midi": 60,
            "name": "C4",
            "ticks": 14032,
            "time": 15.801786000000002,
            "velocity": 0.5275590551181102
          },
          {
            "duration": 0.08333324999999903,
            "durationTicks": 74,
            "midi": 64,
            "name": "E4",
            "ticks": 14032,
            "time": 15.801786000000002,
            "velocity": 0.6141732283464567
          },
          {
            "duration": 0.9481972499999998,
            "durationTicks": 842,
            "midi": 65,
            "name": "F4",
            "ticks": 14308,
            "time": 16.112596500000002,
            "velocity": 0.7086614173228346
          },
          {
            "duration": 0.9346837499999978,
            "durationTicks": 830,
            "midi": 62,
            "name": "D4",
            "ticks": 14313,
            "time": 16.118227125,
            "velocity": 0.6141732283464567
          },
          {
            "duration": 0.0878377499999985,
            "durationTicks": 78,
            "midi": 58,
            "name": "A#3",
            "ticks": 15485,
            "time": 17.438045625,
            "velocity": 0.6141732283464567
          },
          {
            "duration": 0.0979728749999964,
            "durationTicks": 87,
            "midi": 62,
            "name": "D4",
            "ticks": 15487,
            "time": 17.440297875000002,
            "velocity": 0.7086614173228346
          },
          {
            "duration": 0.06756749999999911,
            "durationTicks": 60,
            "midi": 60,
            "name": "C4",
            "ticks": 15847,
            "time": 17.845702875,
            "velocity": 0.6141732283464567
          },
          {
            "duration": 0.06306299999999965,
            "durationTicks": 56,
            "midi": 64,
            "name": "E4",
            "ticks": 15849,
            "time": 17.847955125,
            "velocity": 0.7086614173228346
          },
          {
            "duration": 0.07319812499999756,
            "durationTicks": 65,
            "midi": 60,
            "name": "C4",
            "ticks": 16084,
            "time": 18.1125945,
            "velocity": 0.5275590551181102
          },
          {
            "duration": 0.07432425000000009,
            "durationTicks": 66,
            "midi": 64,
            "name": "E4",
            "ticks": 16084,
            "time": 18.1125945,
            "velocity": 0.6141732283464567
          },
          {
            "duration": 0.06981974999999707,
            "durationTicks": 62,
            "midi": 62,
            "name": "D4",
            "ticks": 16323,
            "time": 18.381738375,
            "velocity": 0.6141732283464567
          },
          {
            "duration": 0.08558550000000054,
            "durationTicks": 76,
            "midi": 65,
            "name": "F4",
            "ticks": 16324,
            "time": 18.3828645,
            "velocity": 0.7086614173228346
          },
          {
            "duration": 0.07319812500000111,
            "durationTicks": 65,
            "midi": 64,
            "name": "E4",
            "ticks": 16561,
            "time": 18.649756125,
            "velocity": 0.4566929133858268
          },
          {
            "duration": 0.06756749999999911,
            "durationTicks": 60,
            "midi": 67,
            "name": "G4",
            "ticks": 16563,
            "time": 18.652008375,
            "velocity": 0.6141732283464567
          },
          {
            "duration": 0.07432425000000009,
            "durationTicks": 66,
            "midi": 62,
            "name": "D4",
            "ticks": 16798,
            "time": 18.91664775,
            "velocity": 0.6141732283464567
          },
          {
            "duration": 0.07319812499999756,
            "durationTicks": 65,
            "midi": 65,
            "name": "F4",
            "ticks": 16799,
            "time": 18.917773875,
            "velocity": 0.7086614173228346
          },
          {
            "duration": 0.14977462499999916,
            "durationTicks": 133,
            "midi": 60,
            "name": "C4",
            "ticks": 17031,
            "time": 19.179034875000003,
            "velocity": 0.6141732283464567
          },
          {
            "duration": 0.13288274999999672,
            "durationTicks": 118,
            "midi": 64,
            "name": "E4",
            "ticks": 17035,
            "time": 19.183539375000002,
            "velocity": 0.7086614173228346
          },
          {
            "duration": 1.2353591249999951,
            "durationTicks": 1097,
            "midi": 62,
            "name": "D4",
            "ticks": 17163,
            "time": 19.327683375000003,
            "velocity": 0.7874015748031497
          },
          {
            "duration": 1.2083321249999983,
            "durationTicks": 1073,
            "midi": 58,
            "name": "A#3",
            "ticks": 17164,
            "time": 19.328809500000002,
            "velocity": 0.6929133858267716
          },
          {
            "duration": 0.3220717499999992,
            "durationTicks": 286,
            "midi": 60,
            "name": "C4",
            "ticks": 19347,
            "time": 21.787140375,
            "velocity": 0.6062992125984252
          },
          {
            "duration": 0.3378374999999991,
            "durationTicks": 300,
            "midi": 63,
            "name": "D#4",
            "ticks": 19347,
            "time": 21.787140375,
            "velocity": 0.6929133858267716
          },
          {
            "duration": 0.15878362500000165,
            "durationTicks": 141,
            "midi": 60,
            "name": "C4",
            "ticks": 19685,
            "time": 22.167770625,
            "velocity": 0.7007874015748031
          },
          {
            "duration": 0.13626112500000076,
            "durationTicks": 121,
            "midi": 55,
            "name": "G3",
            "ticks": 19699,
            "time": 22.183536375,
            "velocity": 0.6062992125984252
          },
          {
            "duration": 0.08445937500000156,
            "durationTicks": 75,
            "midi": 58,
            "name": "A#3",
            "ticks": 19873,
            "time": 22.379482125,
            "velocity": 0.7007874015748031
          },
          {
            "duration": 0.07657649999999805,
            "durationTicks": 68,
            "midi": 55,
            "name": "G3",
            "ticks": 19955,
            "time": 22.471824375,
            "velocity": 0.7007874015748031
          },
          {
            "duration": 0.09121612500000253,
            "durationTicks": 81,
            "midi": 58,
            "name": "A#3",
            "ticks": 20038,
            "time": 22.565292749999998,
            "velocity": 0.6062992125984252
          },
          {
            "duration": 0.06644137499999658,
            "durationTicks": 59,
            "midi": 60,
            "name": "C4",
            "ticks": 20099,
            "time": 22.633986375000003,
            "velocity": 0.7480314960629921
          },
          {
            "duration": 0.25900874999999957,
            "durationTicks": 230,
            "midi": 63,
            "name": "D#4",
            "ticks": 20160,
            "time": 22.70268,
            "velocity": 0.6929133858267716
          },
          {
            "duration": 0.2545042500000001,
            "durationTicks": 226,
            "midi": 60,
            "name": "C4",
            "ticks": 20164,
            "time": 22.7071845,
            "velocity": 0.6062992125984252
          },
          {
            "duration": 0.10360350000000196,
            "durationTicks": 92,
            "midi": 63,
            "name": "D#4",
            "ticks": 20428,
            "time": 23.0044815,
            "velocity": 0.6062992125984252
          },
          {
            "duration": 0.10360350000000196,
            "durationTicks": 92,
            "midi": 67,
            "name": "G4",
            "ticks": 20428,
            "time": 23.0044815,
            "velocity": 0.7007874015748031
          },
          {
            "duration": 0.6768011249999972,
            "durationTicks": 601,
            "midi": 57,
            "name": "A3",
            "ticks": 20543,
            "time": 23.133985875,
            "velocity": 0.6062992125984252
          },
          {
            "duration": 0.6509002499999994,
            "durationTicks": 578,
            "midi": 60,
            "name": "C4",
            "ticks": 20550,
            "time": 23.14186875,
            "velocity": 0.7007874015748031
          },
          {
            "duration": 0.3108104999999952,
            "durationTicks": 276,
            "midi": 57,
            "name": "A3",
            "ticks": 21242,
            "time": 23.921147250000004,
            "velocity": 0.6062992125984252
          },
          {
            "duration": 0.3029276249999988,
            "durationTicks": 269,
            "midi": 62,
            "name": "D4",
            "ticks": 21247,
            "time": 23.926777875000003,
            "velocity": 0.7007874015748031
          },
          {
            "duration": 0.17342324999999903,
            "durationTicks": 154,
            "midi": 61,
            "name": "C#4",
            "ticks": 21596,
            "time": 24.3197955,
            "velocity": 0.7007874015748031
          },
          {
            "duration": 0.12387374999999778,
            "durationTicks": 110,
            "midi": 55,
            "name": "G3",
            "ticks": 21606,
            "time": 24.331056750000002,
            "velocity": 0.6141732283464567
          },
          {
            "duration": 0.084459374999998,
            "durationTicks": 75,
            "midi": 58,
            "name": "A#3",
            "ticks": 21777,
            "time": 24.523624125,
            "velocity": 0.7007874015748031
          },
          {
            "duration": 0.07657649999999805,
            "durationTicks": 68,
            "midi": 55,
            "name": "G3",
            "ticks": 21869,
            "time": 24.627227625000003,
            "velocity": 0.7007874015748031
          },
          {
            "duration": 0.09121612499999898,
            "durationTicks": 81,
            "midi": 58,
            "name": "A#3",
            "ticks": 21952,
            "time": 24.720696,
            "velocity": 0.6062992125984252
          },
          {
            "duration": 0.06644137500000014,
            "durationTicks": 59,
            "midi": 62,
            "name": "D4",
            "ticks": 22013,
            "time": 24.789389625000002,
            "velocity": 0.7480314960629921
          },
          {
            "duration": 0.3637383750000005,
            "durationTicks": 323,
            "midi": 65,
            "name": "F4",
            "ticks": 22077,
            "time": 24.861461625,
            "velocity": 0.7007874015748031
          },
          {
            "duration": 0.36599062499999846,
            "durationTicks": 325,
            "midi": 62,
            "name": "D4",
            "ticks": 22082,
            "time": 24.867092250000002,
            "velocity": 0.6141732283464567
          },
          {
            "duration": 0.6745488749999993,
            "durationTicks": 599,
            "midi": 59,
            "name": "B3",
            "ticks": 22490,
            "time": 25.32655125,
            "velocity": 0.7007874015748031
          },
          {
            "duration": 0.6745488749999993,
            "durationTicks": 599,
            "midi": 56,
            "name": "G#3",
            "ticks": 22498,
            "time": 25.33556025,
            "velocity": 0.6062992125984252
          },
          {
            "duration": 0.1317566250000013,
            "durationTicks": 117,
            "midi": 63,
            "name": "D#4",
            "ticks": 23201,
            "time": 26.127226125,
            "velocity": 0.8818897637795275
          },
          {
            "duration": 0.12387375000000134,
            "durationTicks": 110,
            "midi": 60,
            "name": "C4",
            "ticks": 23204,
            "time": 26.1306045,
            "velocity": 0.6929133858267716
          },
          {
            "duration": 0.08445937500000156,
            "durationTicks": 75,
            "midi": 60,
            "name": "C4",
            "ticks": 23422,
            "time": 26.37609975,
            "velocity": 0.7874015748031497
          },
          {
            "duration": 0.0653152499999976,
            "durationTicks": 58,
            "midi": 55,
            "name": "G3",
            "ticks": 23425,
            "time": 26.379478125000002,
            "velocity": 0.6929133858267716
          },
          {
            "duration": 0.13963950000000125,
            "durationTicks": 124,
            "midi": 60,
            "name": "C4",
            "ticks": 23542,
            "time": 26.51123475,
            "velocity": 0.6929133858267716
          },
          {
            "duration": 0.13175662499999774,
            "durationTicks": 117,
            "midi": 63,
            "name": "D#4",
            "ticks": 23549,
            "time": 26.519117625000003,
            "velocity": 0.7874015748031497
          },
          {
            "duration": 0.12950437499999978,
            "durationTicks": 115,
            "midi": 60,
            "name": "C4",
            "ticks": 23788,
            "time": 26.7882615,
            "velocity": 0.7874015748031497
          },
          {
            "duration": 0.0878377499999985,
            "durationTicks": 78,
            "midi": 55,
            "name": "G3",
            "ticks": 23789,
            "time": 26.789387625000003,
            "velocity": 0.6929133858267716
          },
          {
            "duration": 0.11936925000000187,
            "durationTicks": 106,
            "midi": 63,
            "name": "D#4",
            "ticks": 24023,
            "time": 27.052900875,
            "velocity": 0.6929133858267716
          },
          {
            "duration": 0.10585574999999992,
            "durationTicks": 94,
            "midi": 67,
            "name": "G4",
            "ticks": 24024,
            "time": 27.054026999999998,
            "velocity": 0.7874015748031497
          },
          {
            "duration": 0.10472962499999738,
            "durationTicks": 93,
            "midi": 63,
            "name": "D#4",
            "ticks": 24257,
            "time": 27.316414125,
            "velocity": 0.6929133858267716
          },
          {
            "duration": 0.12049537500000085,
            "durationTicks": 107,
            "midi": 67,
            "name": "G4",
            "ticks": 24258,
            "time": 27.31754025,
            "velocity": 0.7874015748031497
          },
          {
            "duration": 0.20495474999999885,
            "durationTicks": 182,
            "midi": 66,
            "name": "F#4",
            "ticks": 24486,
            "time": 27.574296750000002,
            "velocity": 0.6929133858267716
          },
          {
            "duration": 0.16891874999999956,
            "durationTicks": 150,
            "midi": 62,
            "name": "D4",
            "ticks": 24491,
            "time": 27.579927375,
            "velocity": 0.6929133858267716
          },
          {
            "duration": 0.0878377499999985,
            "durationTicks": 78,
            "midi": 57,
            "name": "A3",
            "ticks": 24714,
            "time": 27.83105325,
            "velocity": 0.6062992125984252
          },
          {
            "duration": 0.09121612500000253,
            "durationTicks": 81,
            "midi": 62,
            "name": "D4",
            "ticks": 24720,
            "time": 27.83781,
            "velocity": 0.6929133858267716
          },
          {
            "duration": 0.6981974999999991,
            "durationTicks": 620,
            "midi": 58,
            "name": "A#3",
            "ticks": 24855,
            "time": 27.989836875,
            "velocity": 0.6929133858267716
          },
          {
            "duration": 0.6745488749999993,
            "durationTicks": 599,
            "midi": 62,
            "name": "D4",
            "ticks": 24859,
            "time": 27.994341375,
            "velocity": 0.7874015748031497
          },
          {
            "duration": 0.11824312499999934,
            "durationTicks": 105,
            "midi": 59,
            "name": "B3",
            "ticks": 25574,
            "time": 28.799520750000003,
            "velocity": 0.6929133858267716
          },
          {
            "duration": 0.12837824999999725,
            "durationTicks": 114,
            "midi": 63,
            "name": "D#4",
            "ticks": 25577,
            "time": 28.802899125000003,
            "velocity": 0.7874015748031497
          },
          {
            "duration": 0.12950437500000334,
            "durationTicks": 115,
            "midi": 58,
            "name": "A#3",
            "ticks": 25796,
            "time": 29.0495205,
            "velocity": 0.6929133858267716
          },
          {
            "duration": 0.11711700000000036,
            "durationTicks": 104,
            "midi": 62,
            "name": "D4",
            "ticks": 25800,
            "time": 29.054025000000003,
            "velocity": 0.7874015748031497
          },
          {
            "duration": 0.5675670000000039,
            "durationTicks": 504,
            "midi": 69,
            "name": "A4",
            "ticks": 41276,
            "time": 46.4819355,
            "velocity": 0.4251968503937008
          },
          {
            "duration": 0.5743237499999978,
            "durationTicks": 510,
            "midi": 62,
            "name": "D4",
            "ticks": 41283,
            "time": 46.489818375,
            "velocity": 0.33070866141732286
          },
          {
            "duration": 0.5743237499999978,
            "durationTicks": 510,
            "midi": 65,
            "name": "F4",
            "ticks": 41283,
            "time": 46.489818375,
            "velocity": 0.3779527559055118
          },
          {
            "duration": 0.4819815000000034,
            "durationTicks": 428,
            "midi": 68,
            "name": "G#4",
            "ticks": 41792,
            "time": 47.063016,
            "velocity": 0.4251968503937008
          },
          {
            "duration": 0.5033778750000053,
            "durationTicks": 447,
            "midi": 61,
            "name": "C#4",
            "ticks": 41793,
            "time": 47.064142125,
            "velocity": 0.33070866141732286
          },
          {
            "duration": 0.5033778750000053,
            "durationTicks": 447,
            "midi": 64,
            "name": "E4",
            "ticks": 41793,
            "time": 47.064142125,
            "velocity": 0.3779527559055118
          },
          {
            "duration": 3.1993211250000044,
            "durationTicks": 2841,
            "midi": 60,
            "name": "C4",
            "ticks": 42248,
            "time": 47.576529,
            "velocity": 0.33070866141732286
          },
          {
            "duration": 3.1993211250000044,
            "durationTicks": 2841,
            "midi": 63,
            "name": "D#4",
            "ticks": 42248,
            "time": 47.576529,
            "velocity": 0.3779527559055118
          },
          {
            "duration": 3.2117085000000003,
            "durationTicks": 2852,
            "midi": 67,
            "name": "G4",
            "ticks": 42248,
            "time": 47.576529,
            "velocity": 0.4251968503937008
          },
          {
            "duration": 0.5957201249999997,
            "durationTicks": 529,
            "midi": 65,
            "name": "F4",
            "ticks": 45083,
            "time": 50.769093375000004,
            "velocity": 0.4015748031496063
          },
          {
            "duration": 0.5957201249999926,
            "durationTicks": 529,
            "midi": 62,
            "name": "D4",
            "ticks": 45103,
            "time": 50.791615875000005,
            "velocity": 0.4015748031496063
          },
          {
            "duration": 0.5630624999999938,
            "durationTicks": 500,
            "midi": 63,
            "name": "D#4",
            "ticks": 45598,
            "time": 51.349047750000004,
            "velocity": 0.4015748031496063
          },
          {
            "duration": 0.5630624999999938,
            "durationTicks": 500,
            "midi": 60,
            "name": "C4",
            "ticks": 45598,
            "time": 51.349047750000004,
            "velocity": 0.4015748031496063
          },
          {
            "duration": 1.08108,
            "durationTicks": 960,
            "midi": 59,
            "name": "B3",
            "ticks": 46100,
            "time": 51.9143625,
            "velocity": 0.5118110236220472
          },
          {
            "duration": 1.075449374999998,
            "durationTicks": 955,
            "midi": 62,
            "name": "D4",
            "ticks": 46100,
            "time": 51.9143625,
            "velocity": 0.5118110236220472
          },
          {
            "duration": 1.08108,
            "durationTicks": 960,
            "midi": 55,
            "name": "G3",
            "ticks": 47060,
            "time": 52.9954425,
            "velocity": 0.5118110236220472
          },
          {
            "duration": 1.08108,
            "durationTicks": 960,
            "midi": 59,
            "name": "B3",
            "ticks": 47060,
            "time": 52.9954425,
            "velocity": 0.5118110236220472
          },
          {
            "duration": 2.139637499999999,
            "durationTicks": 1900,
            "midi": 54,
            "name": "F#3",
            "ticks": 48020,
            "time": 54.0765225,
            "velocity": 0.5354330708661418
          },
          {
            "duration": 2.139637499999999,
            "durationTicks": 1900,
            "midi": 60,
            "name": "C4",
            "ticks": 48020,
            "time": 54.0765225,
            "velocity": 0.5354330708661418
          },
          {
            "duration": 1.0484223750000012,
            "durationTicks": 931,
            "midi": 67,
            "name": "G4",
            "ticks": 49920,
            "time": 56.21616,
            "velocity": 0.6929133858267716
          },
          {
            "duration": 1.0484223750000012,
            "durationTicks": 931,
            "midi": 62,
            "name": "D4",
            "ticks": 49920,
            "time": 56.21616,
            "velocity": 0.6062992125984252
          },
          {
            "duration": 1.090088999999999,
            "durationTicks": 968,
            "midi": 58,
            "name": "A#3",
            "ticks": 49920,
            "time": 56.21616,
            "velocity": 0.6062992125984252
          },
          {
            "duration": 1.091215124999998,
            "durationTicks": 969,
            "midi": 66,
            "name": "F#4",
            "ticks": 50880,
            "time": 57.29724,
            "velocity": 0.6929133858267716
          },
          {
            "duration": 1.0304043750000034,
            "durationTicks": 915,
            "midi": 62,
            "name": "D4",
            "ticks": 50880,
            "time": 57.29724,
            "velocity": 0.6299212598425197
          },
          {
            "duration": 1.0360350000000054,
            "durationTicks": 920,
            "midi": 58,
            "name": "A#3",
            "ticks": 50880,
            "time": 57.29724,
            "velocity": 0.6062992125984252
          },
          {
            "duration": 1.0698187500000031,
            "durationTicks": 950,
            "midi": 65,
            "name": "F4",
            "ticks": 51840,
            "time": 58.37832,
            "velocity": 0.6929133858267716
          },
          {
            "duration": 1.0360350000000054,
            "durationTicks": 920,
            "midi": 62,
            "name": "D4",
            "ticks": 51840,
            "time": 58.37832,
            "velocity": 0.6299212598425197
          },
          {
            "duration": 1.075449374999998,
            "durationTicks": 955,
            "midi": 58,
            "name": "A#3",
            "ticks": 51840,
            "time": 58.37832,
            "velocity": 0.6062992125984252
          },
          {
            "duration": 1.078827750000002,
            "durationTicks": 958,
            "midi": 64,
            "name": "E4",
            "ticks": 52800,
            "time": 59.4594,
            "velocity": 0.6062992125984252
          },
          {
            "duration": 1.0135124999999974,
            "durationTicks": 900,
            "midi": 58,
            "name": "A#3",
            "ticks": 52800,
            "time": 59.4594,
            "velocity": 0.6299212598425197
          },
          {
            "duration": 1.0506746249999992,
            "durationTicks": 933,
            "midi": 62,
            "name": "D4",
            "ticks": 52800,
            "time": 59.4594,
            "velocity": 0.6062992125984252
          },
          {
            "duration": 1.078827750000002,
            "durationTicks": 958,
            "midi": 58,
            "name": "A#3",
            "ticks": 53760,
            "time": 60.54048,
            "velocity": 0.6062992125984252
          },
          {
            "duration": 1.0585574999999992,
            "durationTicks": 940,
            "midi": 55,
            "name": "G3",
            "ticks": 53760,
            "time": 60.54048,
            "velocity": 0.6062992125984252
          },
          {
            "duration": 1.1013502499999959,
            "durationTicks": 978,
            "midi": 63,
            "name": "D#4",
            "ticks": 53760,
            "time": 60.54048,
            "velocity": 0.6062992125984252
          },
          {
            "duration": 0.354729374999998,
            "durationTicks": 315,
            "midi": 51,
            "name": "D#3",
            "ticks": 54720,
            "time": 61.62156,
            "velocity": 0.5039370078740157
          },
          {
            "duration": 0.34797262499999704,
            "durationTicks": 309,
            "midi": 55,
            "name": "G3",
            "ticks": 54720,
            "time": 61.62156,
            "velocity": 0.5984251968503937
          },
          {
            "duration": 0.3378374999999991,
            "durationTicks": 300,
            "midi": 51,
            "name": "D#3",
            "ticks": 55080,
            "time": 62.026965000000004,
            "velocity": 0.5039370078740157
          },
          {
            "duration": 0.3378374999999991,
            "durationTicks": 300,
            "midi": 55,
            "name": "G3",
            "ticks": 55080,
            "time": 62.026965000000004,
            "velocity": 0.5039370078740157
          },
          {
            "duration": 0.354729374999998,
            "durationTicks": 315,
            "midi": 58,
            "name": "A#3",
            "ticks": 55080,
            "time": 62.026965000000004,
            "velocity": 0.5984251968503937
          },
          {
            "duration": 0.21058537499999375,
            "durationTicks": 187,
            "midi": 51,
            "name": "D#3",
            "ticks": 55440,
            "time": 62.432370000000006,
            "velocity": 0.5039370078740157
          },
          {
            "duration": 0.21058537499999375,
            "durationTicks": 187,
            "midi": 55,
            "name": "G3",
            "ticks": 55440,
            "time": 62.432370000000006,
            "velocity": 0.5039370078740157
          },
          {
            "duration": 0.23198174999999566,
            "durationTicks": 206,
            "midi": 60,
            "name": "C4",
            "ticks": 55440,
            "time": 62.432370000000006,
            "velocity": 0.5984251968503937
          },
          {
            "duration": 0.8581072500000033,
            "durationTicks": 762,
            "midi": 60,
            "name": "C4",
            "ticks": 55680,
            "time": 62.70264,
            "velocity": 0.5984251968503937
          },
          {
            "duration": 0.8581072500000033,
            "durationTicks": 762,
            "midi": 55,
            "name": "G3",
            "ticks": 55680,
            "time": 62.70264,
            "velocity": 0.5984251968503937
          },
          {
            "duration": 0.8581072500000033,
            "durationTicks": 762,
            "midi": 62,
            "name": "D4",
            "ticks": 55680,
            "time": 62.70264,
            "velocity": 0.5984251968503937
          },
          {
            "duration": 0.1418917499999992,
            "durationTicks": 126,
            "midi": 62,
            "name": "D4",
            "ticks": 56512,
            "time": 63.639576000000005,
            "velocity": 0.5984251968503937
          },
          {
            "duration": 0.1418917499999992,
            "durationTicks": 126,
            "midi": 60,
            "name": "C4",
            "ticks": 56512,
            "time": 63.639576000000005,
            "velocity": 0.5984251968503937
          },
          {
            "duration": 0.1418917499999992,
            "durationTicks": 126,
            "midi": 54,
            "name": "F#3",
            "ticks": 56512,
            "time": 63.639576000000005,
            "velocity": 0.5984251968503937
          },
          {
            "duration": 0.06756749999999556,
            "durationTicks": 60,
            "midi": 62,
            "name": "D4",
            "ticks": 70427,
            "time": 79.309605375,
            "velocity": 0.8818897637795275
          },
          {
            "duration": 0.1418917499999992,
            "durationTicks": 126,
            "midi": 70,
            "name": "A#4",
            "ticks": 70434,
            "time": 79.31748825000001,
            "velocity": 0.7874015748031497
          },
          {
            "duration": 0.175675499999997,
            "durationTicks": 156,
            "midi": 67,
            "name": "G4",
            "ticks": 70438,
            "time": 79.32199275,
            "velocity": 0.8818897637795275
          },
          {
            "duration": 0.13288275000000738,
            "durationTicks": 118,
            "midi": 62,
            "name": "D4",
            "ticks": 70551,
            "time": 79.44924487499999,
            "velocity": 0.7874015748031497
          },
          {
            "duration": 0.09008999999998935,
            "durationTicks": 80,
            "midi": 69,
            "name": "A4",
            "ticks": 70554,
            "time": 79.45262325000002,
            "velocity": 0.8818897637795275
          },
          {
            "duration": 0.09234225000001572,
            "durationTicks": 82,
            "midi": 72,
            "name": "C5",
            "ticks": 70566,
            "time": 79.46613674999999,
            "velocity": 0.8818897637795275
          },
          {
            "duration": 0.1036034999999913,
            "durationTicks": 92,
            "midi": 73,
            "name": "C#5",
            "ticks": 70790,
            "time": 79.71838875,
            "velocity": 0.8818897637795275
          },
          {
            "duration": 0.06981974999999352,
            "durationTicks": 62,
            "midi": 70,
            "name": "A#4",
            "ticks": 70796,
            "time": 79.72514550000001,
            "velocity": 0.8818897637795275
          },
          {
            "duration": 0.10923412499998619,
            "durationTicks": 97,
            "midi": 62,
            "name": "D4",
            "ticks": 70800,
            "time": 79.72965,
            "velocity": 0.8818897637795275
          },
          {
            "duration": 0.13288275000000738,
            "durationTicks": 118,
            "midi": 70,
            "name": "A#4",
            "ticks": 71028,
            "time": 79.9864065,
            "velocity": 0.8818897637795275
          },
          {
            "duration": 0.1418917499999992,
            "durationTicks": 126,
            "midi": 74,
            "name": "D5",
            "ticks": 71034,
            "time": 79.99316325000001,
            "velocity": 0.8818897637795275
          },
          {
            "duration": 0.1317566250000084,
            "durationTicks": 117,
            "midi": 65,
            "name": "F4",
            "ticks": 71040,
            "time": 79.99992,
            "velocity": 0.6929133858267716
          },
          {
            "duration": 0.0822071249999965,
            "durationTicks": 73,
            "midi": 65,
            "name": "F4",
            "ticks": 72385,
            "time": 81.51455812500001,
            "velocity": 0.8818897637795275
          },
          {
            "duration": 0.21734212500000183,
            "durationTicks": 193,
            "midi": 74,
            "name": "D5",
            "ticks": 72396,
            "time": 81.5269455,
            "velocity": 0.8818897637795275
          },
          {
            "duration": 0.14527012500001035,
            "durationTicks": 129,
            "midi": 70,
            "name": "A#4",
            "ticks": 72411,
            "time": 81.543837375,
            "velocity": 0.7874015748031497
          },
          {
            "duration": 0.11036024999999938,
            "durationTicks": 98,
            "midi": 65,
            "name": "F4",
            "ticks": 72511,
            "time": 81.656449875,
            "velocity": 0.7874015748031497
          },
          {
            "duration": 0.11936924999999121,
            "durationTicks": 106,
            "midi": 69,
            "name": "A4",
            "ticks": 72514,
            "time": 81.65982825,
            "velocity": 0.7874015748031497
          },
          {
            "duration": 0.11936924999999121,
            "durationTicks": 106,
            "midi": 72,
            "name": "C5",
            "ticks": 72516,
            "time": 81.6620805,
            "velocity": 0.8818897637795275
          },
          {
            "duration": 0.13288274999997896,
            "durationTicks": 118,
            "midi": 70,
            "name": "A#4",
            "ticks": 72744,
            "time": 81.91883700000001,
            "velocity": 0.7874015748031497
          },
          {
            "duration": 0.10923412499998619,
            "durationTicks": 97,
            "midi": 74,
            "name": "D5",
            "ticks": 72747,
            "time": 81.92221537500001,
            "velocity": 0.7874015748031497
          },
          {
            "duration": 0.08783774999999139,
            "durationTicks": 78,
            "midi": 65,
            "name": "F4",
            "ticks": 72753,
            "time": 81.928972125,
            "velocity": 0.8818897637795275
          },
          {
            "duration": 2.0495474999999885,
            "durationTicks": 1820,
            "midi": 62,
            "name": "D4",
            "ticks": 72960,
            "time": 82.16208,
            "velocity": 0.6929133858267716
          },
          {
            "duration": 2.0900880000000086,
            "durationTicks": 1856,
            "midi": 70,
            "name": "A#4",
            "ticks": 72964,
            "time": 82.1665845,
            "velocity": 0.7480314960629921
          },
          {
            "duration": 2.0675655000000006,
            "durationTicks": 1836,
            "midi": 67,
            "name": "G4",
            "ticks": 72972,
            "time": 82.1755935,
            "velocity": 0.6299212598425197
          },
          {
            "duration": 0.21171150000000694,
            "durationTicks": 188,
            "midi": 74,
            "name": "D5",
            "ticks": 74872,
            "time": 84.315231,
            "velocity": 0.8818897637795275
          },
          {
            "duration": 0.2184682500000008,
            "durationTicks": 194,
            "midi": 67,
            "name": "G4",
            "ticks": 74876,
            "time": 84.31973550000001,
            "velocity": 0.5748031496062992
          },
          {
            "duration": 0.2184682500000008,
            "durationTicks": 194,
            "midi": 72,
            "name": "C5",
            "ticks": 74877,
            "time": 84.320861625,
            "velocity": 0.7559055118110236
          },
          {
            "duration": 0.13288275000000738,
            "durationTicks": 118,
            "midi": 75,
            "name": "D#5",
            "ticks": 75102,
            "time": 84.57423975,
            "velocity": 0.6929133858267716
          },
          {
            "duration": 0.07432425000000364,
            "durationTicks": 66,
            "midi": 72,
            "name": "C5",
            "ticks": 75119,
            "time": 84.593383875,
            "velocity": 0.7559055118110236
          },
          {
            "duration": 0.05968462500001692,
            "durationTicks": 53,
            "midi": 67,
            "name": "G4",
            "ticks": 75120,
            "time": 84.59451,
            "velocity": 0.5748031496062992
          },
          {
            "duration": 0.11373862499999632,
            "durationTicks": 101,
            "midi": 74,
            "name": "D5",
            "ticks": 75229,
            "time": 84.717257625,
            "velocity": 0.7874015748031497
          },
          {
            "duration": 0.07545037499998841,
            "durationTicks": 67,
            "midi": 67,
            "name": "G4",
            "ticks": 75240,
            "time": 84.729645,
            "velocity": 0.5748031496062992
          },
          {
            "duration": 0.07770262500000058,
            "durationTicks": 69,
            "midi": 72,
            "name": "C5",
            "ticks": 75240,
            "time": 84.729645,
            "velocity": 0.7559055118110236
          },
          {
            "duration": 0.08896387500000458,
            "durationTicks": 79,
            "midi": 72,
            "name": "C5",
            "ticks": 75341,
            "time": 84.843383625,
            "velocity": 0.8503937007874016
          },
          {
            "duration": 0.08558550000000764,
            "durationTicks": 76,
            "midi": 67,
            "name": "G4",
            "ticks": 75362,
            "time": 84.86703225,
            "velocity": 0.5748031496062992
          },
          {
            "duration": 0.11711700000000747,
            "durationTicks": 104,
            "midi": 67,
            "name": "G4",
            "ticks": 75482,
            "time": 85.00216725,
            "velocity": 0.5748031496062992
          },
          {
            "duration": 0.09797287500001062,
            "durationTicks": 87,
            "midi": 72,
            "name": "C5",
            "ticks": 75492,
            "time": 85.0134285,
            "velocity": 0.7559055118110236
          },
          {
            "duration": 0.16103587499999605,
            "durationTicks": 143,
            "midi": 72,
            "name": "C5",
            "ticks": 75716,
            "time": 85.2656805,
            "velocity": 0.7559055118110236
          },
          {
            "duration": 0.057432375000018965,
            "durationTicks": 51,
            "midi": 67,
            "name": "G4",
            "ticks": 75722,
            "time": 85.27243725,
            "velocity": 0.5748031496062992
          },
          {
            "duration": 0.09684674999999743,
            "durationTicks": 86,
            "midi": 70,
            "name": "A#4",
            "ticks": 75828,
            "time": 85.3918065,
            "velocity": 0.7874015748031497
          },
          {
            "duration": 0.0979728749999964,
            "durationTicks": 87,
            "midi": 66,
            "name": "F#4",
            "ticks": 75841,
            "time": 85.406446125,
            "velocity": 0.7559055118110236
          },
          {
            "duration": 0.07770262500000058,
            "durationTicks": 69,
            "midi": 62,
            "name": "D4",
            "ticks": 75845,
            "time": 85.410950625,
            "velocity": 0.5748031496062992
          },
          {
            "duration": 0.11036024999999938,
            "durationTicks": 98,
            "midi": 66,
            "name": "F#4",
            "ticks": 75965,
            "time": 85.546085625,
            "velocity": 0.7559055118110236
          },
          {
            "duration": 0.10698187500000245,
            "durationTicks": 95,
            "midi": 62,
            "name": "D4",
            "ticks": 75966,
            "time": 85.54721175,
            "velocity": 0.5748031496062992
          },
          {
            "duration": 0.11261249999998313,
            "durationTicks": 100,
            "midi": 70,
            "name": "A#4",
            "ticks": 75983,
            "time": 85.56635587500001,
            "velocity": 0.8818897637795275
          },
          {
            "duration": 0.0709458749999925,
            "durationTicks": 63,
            "midi": 66,
            "name": "F#4",
            "ticks": 76201,
            "time": 85.811851125,
            "velocity": 0.7559055118110236
          },
          {
            "duration": 0.055180124999992586,
            "durationTicks": 49,
            "midi": 62,
            "name": "D4",
            "ticks": 76202,
            "time": 85.81297725,
            "velocity": 0.5748031496062992
          },
          {
            "duration": 0.17454937500001222,
            "durationTicks": 155,
            "midi": 70,
            "name": "A#4",
            "ticks": 76206,
            "time": 85.81748175,
            "velocity": 0.7874015748031497
          },
          {
            "duration": 0.09008999999998935,
            "durationTicks": 80,
            "midi": 66,
            "name": "F#4",
            "ticks": 76320,
            "time": 85.94586000000001,
            "velocity": 0.6614173228346457
          },
          {
            "duration": 0.07882875000001377,
            "durationTicks": 70,
            "midi": 62,
            "name": "D4",
            "ticks": 76323,
            "time": 85.949238375,
            "velocity": 0.5748031496062992
          },
          {
            "duration": 0.08108099999999752,
            "durationTicks": 72,
            "midi": 69,
            "name": "A4",
            "ticks": 76332,
            "time": 85.95937350000001,
            "velocity": 0.8503937007874016
          },
          {
            "duration": 0.1587836250000123,
            "durationTicks": 141,
            "midi": 62,
            "name": "D4",
            "ticks": 76446,
            "time": 86.08775175,
            "velocity": 0.5748031496062992
          },
          {
            "duration": 0.13288275000000738,
            "durationTicks": 118,
            "midi": 66,
            "name": "F#4",
            "ticks": 76446,
            "time": 86.08775175,
            "velocity": 0.7559055118110236
          },
          {
            "duration": 0.12837824999999725,
            "durationTicks": 114,
            "midi": 69,
            "name": "A4",
            "ticks": 76465,
            "time": 86.109148125,
            "velocity": 0.8503937007874016
          },
          {
            "duration": 1.058557499999992,
            "durationTicks": 940,
            "midi": 55,
            "name": "G3",
            "ticks": 76782,
            "time": 86.46612975000001,
            "velocity": 0.7086614173228346
          },
          {
            "duration": 1.067566499999998,
            "durationTicks": 948,
            "midi": 62,
            "name": "D4",
            "ticks": 76782,
            "time": 86.46612975000001,
            "velocity": 0.6692913385826772
          },
          {
            "duration": 1.067566499999998,
            "durationTicks": 948,
            "midi": 58,
            "name": "A#3",
            "ticks": 76782,
            "time": 86.46612975000001,
            "velocity": 0.7086614173228346
          },
          {
            "duration": 0.9684674999999885,
            "durationTicks": 860,
            "midi": 60,
            "name": "C4",
            "ticks": 77740,
            "time": 87.54495750000001,
            "velocity": 0.6535433070866141
          },
          {
            "duration": 0.9639629999999926,
            "durationTicks": 856,
            "midi": 55,
            "name": "G3",
            "ticks": 77744,
            "time": 87.549462,
            "velocity": 0.6299212598425197
          },
          {
            "duration": 0.9504494999999906,
            "durationTicks": 844,
            "midi": 64,
            "name": "E4",
            "ticks": 77744,
            "time": 87.549462,
            "velocity": 0.7086614173228346
          },
          {
            "duration": 1.1824312500000076,
            "durationTicks": 1050,
            "midi": 55,
            "name": "G3",
            "ticks": 78610,
            "time": 88.52468625,
            "velocity": 0.6299212598425197
          },
          {
            "duration": 1.1824312500000076,
            "durationTicks": 1050,
            "midi": 60,
            "name": "C4",
            "ticks": 78610,
            "time": 88.52468625,
            "velocity": 0.6535433070866141
          },
          {
            "duration": 1.1644132500000097,
            "durationTicks": 1034,
            "midi": 63,
            "name": "D#4",
            "ticks": 78616,
            "time": 88.531443,
            "velocity": 0.7086614173228346
          },
          {
            "duration": 0.9358098750000039,
            "durationTicks": 831,
            "midi": 58,
            "name": "A#3",
            "ticks": 79669,
            "time": 89.717252625,
            "velocity": 0.7086614173228346
          },
          {
            "duration": 0.9358098750000039,
            "durationTicks": 831,
            "midi": 62,
            "name": "D4",
            "ticks": 79669,
            "time": 89.717252625,
            "velocity": 0.7086614173228346
          },
          {
            "duration": 0.895269374999998,
            "durationTicks": 795,
            "midi": 53,
            "name": "F3",
            "ticks": 79677,
            "time": 89.726261625,
            "velocity": 0.5826771653543307
          },
          {
            "duration": 2.210583375000013,
            "durationTicks": 1963,
            "midi": 62,
            "name": "D4",
            "ticks": 80537,
            "time": 90.694729125,
            "velocity": 0.7086614173228346
          },
          {
            "duration": 2.210583375000013,
            "durationTicks": 1963,
            "midi": 58,
            "name": "A#3",
            "ticks": 80537,
            "time": 90.694729125,
            "velocity": 0.6377952755905512
          },
          {
            "duration": 2.210583375000013,
            "durationTicks": 1963,
            "midi": 67,
            "name": "G4",
            "ticks": 80537,
            "time": 90.694729125,
            "velocity": 0.7086614173228346
          },
          {
            "duration": 0.14301787499999818,
            "durationTicks": 127,
            "midi": 55,
            "name": "G3",
            "ticks": 82797,
            "time": 93.239771625,
            "velocity": 0.6929133858267716
          },
          {
            "duration": 0.15653137500000014,
            "durationTicks": 139,
            "midi": 62,
            "name": "D4",
            "ticks": 82799,
            "time": 93.242023875,
            "velocity": 0.7874015748031497
          },
          {
            "duration": 0.15653137500000014,
            "durationTicks": 139,
            "midi": 60,
            "name": "C4",
            "ticks": 82799,
            "time": 93.242023875,
            "velocity": 0.7874015748031497
          },
          {
            "duration": 0.13851337500000227,
            "durationTicks": 123,
            "midi": 55,
            "name": "G3",
            "ticks": 83189,
            "time": 93.681212625,
            "velocity": 0.6929133858267716
          },
          {
            "duration": 0.15653137500000014,
            "durationTicks": 139,
            "midi": 62,
            "name": "D4",
            "ticks": 83193,
            "time": 93.685717125,
            "velocity": 0.7874015748031497
          },
          {
            "duration": 0.15653137500000014,
            "durationTicks": 139,
            "midi": 60,
            "name": "C4",
            "ticks": 83193,
            "time": 93.685717125,
            "velocity": 0.7874015748031497
          },
          {
            "duration": 0.22297274999999672,
            "durationTicks": 198,
            "midi": 62,
            "name": "D4",
            "ticks": 83502,
            "time": 94.03368975000001,
            "velocity": 0.7874015748031497
          },
          {
            "duration": 0.22297274999999672,
            "durationTicks": 198,
            "midi": 60,
            "name": "C4",
            "ticks": 83502,
            "time": 94.03368975000001,
            "velocity": 0.7874015748031497
          },
          {
            "duration": 0.20495474999999885,
            "durationTicks": 182,
            "midi": 54,
            "name": "F#3",
            "ticks": 83504,
            "time": 94.035942,
            "velocity": 0.6929133858267716
          },
          {
            "duration": 0.07207200000000569,
            "durationTicks": 64,
            "midi": 65,
            "name": "F4",
            "ticks": 90379,
            "time": 101.778051375,
            "velocity": 0.6062992125984252
          },
          {
            "duration": 0.07207200000000569,
            "durationTicks": 64,
            "midi": 69,
            "name": "A4",
            "ticks": 90379,
            "time": 101.778051375,
            "velocity": 0.6929133858267716
          },
          {
            "duration": 0.07207200000000569,
            "durationTicks": 64,
            "midi": 70,
            "name": "A#4",
            "ticks": 90379,
            "time": 101.778051375,
            "velocity": 0.7874015748031497
          },
          {
            "duration": 0.0878377500000056,
            "durationTicks": 78,
            "midi": 74,
            "name": "D5",
            "ticks": 90380,
            "time": 101.7791775,
            "velocity": 0.7874015748031497
          },
          {
            "duration": 0.07545037499998841,
            "durationTicks": 67,
            "midi": 65,
            "name": "F4",
            "ticks": 90719,
            "time": 102.16093387500001,
            "velocity": 0.6062992125984252
          },
          {
            "duration": 0.07545037499998841,
            "durationTicks": 67,
            "midi": 69,
            "name": "A4",
            "ticks": 90719,
            "time": 102.16093387500001,
            "velocity": 0.6929133858267716
          },
          {
            "duration": 0.07545037499998841,
            "durationTicks": 67,
            "midi": 70,
            "name": "A#4",
            "ticks": 90719,
            "time": 102.16093387500001,
            "velocity": 0.6929133858267716
          },
          {
            "duration": 0.0822071250000107,
            "durationTicks": 73,
            "midi": 74,
            "name": "D5",
            "ticks": 90722,
            "time": 102.16431225,
            "velocity": 0.8818897637795275
          },
          {
            "duration": 0.3547293750000051,
            "durationTicks": 315,
            "midi": 76,
            "name": "E5",
            "ticks": 91203,
            "time": 102.705978375,
            "velocity": 0.7874015748031497
          },
          {
            "duration": 0.3558555000000041,
            "durationTicks": 316,
            "midi": 67,
            "name": "G4",
            "ticks": 91204,
            "time": 102.7071045,
            "velocity": 0.6062992125984252
          },
          {
            "duration": 0.3558555000000041,
            "durationTicks": 316,
            "midi": 70,
            "name": "A#4",
            "ticks": 91204,
            "time": 102.7071045,
            "velocity": 0.6062992125984252
          },
          {
            "duration": 0.3558555000000041,
            "durationTicks": 316,
            "midi": 72,
            "name": "C5",
            "ticks": 91204,
            "time": 102.7071045,
            "velocity": 0.7874015748031497
          },
          {
            "duration": 0.07319812500000467,
            "durationTicks": 65,
            "midi": 67,
            "name": "G4",
            "ticks": 91567,
            "time": 103.115887875,
            "velocity": 0.6062992125984252
          },
          {
            "duration": 0.07319812500000467,
            "durationTicks": 65,
            "midi": 70,
            "name": "A#4",
            "ticks": 91567,
            "time": 103.115887875,
            "velocity": 0.6929133858267716
          },
          {
            "duration": 0.07319812500000467,
            "durationTicks": 65,
            "midi": 72,
            "name": "C5",
            "ticks": 91567,
            "time": 103.115887875,
            "velocity": 0.6929133858267716
          },
          {
            "duration": 0.07995487499999854,
            "durationTicks": 71,
            "midi": 76,
            "name": "E5",
            "ticks": 91567,
            "time": 103.115887875,
            "velocity": 0.7874015748031497
          },
          {
            "duration": 0.09009000000000356,
            "durationTicks": 80,
            "midi": 65,
            "name": "F4",
            "ticks": 92299,
            "time": 103.940211375,
            "velocity": 0.6062992125984252
          },
          {
            "duration": 0.09009000000000356,
            "durationTicks": 80,
            "midi": 69,
            "name": "A4",
            "ticks": 92299,
            "time": 103.940211375,
            "velocity": 0.6929133858267716
          },
          {
            "duration": 0.09009000000000356,
            "durationTicks": 80,
            "midi": 70,
            "name": "A#4",
            "ticks": 92299,
            "time": 103.940211375,
            "velocity": 0.6929133858267716
          },
          {
            "duration": 0.07770262500000058,
            "durationTicks": 69,
            "midi": 74,
            "name": "D5",
            "ticks": 92301,
            "time": 103.942463625,
            "velocity": 0.7874015748031497
          },
          {
            "duration": 0.3299546250000134,
            "durationTicks": 293,
            "midi": 67,
            "name": "G4",
            "ticks": 92642,
            "time": 104.32647225,
            "velocity": 0.6062992125984252
          },
          {
            "duration": 0.3299546250000134,
            "durationTicks": 293,
            "midi": 70,
            "name": "A#4",
            "ticks": 92642,
            "time": 104.32647225,
            "velocity": 0.6929133858267716
          },
          {
            "duration": 0.3299546250000134,
            "durationTicks": 293,
            "midi": 72,
            "name": "C5",
            "ticks": 92642,
            "time": 104.32647225,
            "velocity": 0.7874015748031497
          },
          {
            "duration": 0.3569816250000031,
            "durationTicks": 317,
            "midi": 76,
            "name": "E5",
            "ticks": 92643,
            "time": 104.327598375,
            "velocity": 0.7874015748031497
          },
          {
            "duration": 0.12950437499999623,
            "durationTicks": 115,
            "midi": 65,
            "name": "F4",
            "ticks": 93010,
            "time": 104.74088625,
            "velocity": 0.6062992125984252
          },
          {
            "duration": 0.12950437499999623,
            "durationTicks": 115,
            "midi": 69,
            "name": "A4",
            "ticks": 93010,
            "time": 104.74088625,
            "velocity": 0.6929133858267716
          },
          {
            "duration": 0.12950437499999623,
            "durationTicks": 115,
            "midi": 70,
            "name": "A#4",
            "ticks": 93010,
            "time": 104.74088625,
            "velocity": 0.7874015748031497
          },
          {
            "duration": 0.10585575000000347,
            "durationTicks": 94,
            "midi": 74,
            "name": "D5",
            "ticks": 93010,
            "time": 104.74088625,
            "velocity": 0.7874015748031497
          },
          {
            "duration": 0.11036024999999938,
            "durationTicks": 98,
            "midi": 60,
            "name": "C4",
            "ticks": 94232,
            "time": 106.117011,
            "velocity": 0.7874015748031497
          },
          {
            "duration": 0.1587836249999981,
            "durationTicks": 141,
            "midi": 63,
            "name": "D#4",
            "ticks": 94321,
            "time": 106.217236125,
            "velocity": 0.7874015748031497
          },
          {
            "duration": 0.11486475000000951,
            "durationTicks": 102,
            "midi": 67,
            "name": "G4",
            "ticks": 94468,
            "time": 106.3827765,
            "velocity": 0.7874015748031497
          },
          {
            "duration": 0.17342324999998482,
            "durationTicks": 154,
            "midi": 74,
            "name": "D5",
            "ticks": 94588,
            "time": 106.51791150000001,
            "velocity": 0.8818897637795275
          },
          {
            "duration": 0.10022512500000857,
            "durationTicks": 89,
            "midi": 73,
            "name": "C#5",
            "ticks": 94741,
            "time": 106.690208625,
            "velocity": 0.6929133858267716
          },
          {
            "duration": 0.174549374999998,
            "durationTicks": 155,
            "midi": 72,
            "name": "C5",
            "ticks": 94823,
            "time": 106.78255087500001,
            "velocity": 0.7874015748031497
          },
          {
            "duration": 0.11261249999999734,
            "durationTicks": 100,
            "midi": 71,
            "name": "B4",
            "ticks": 94972,
            "time": 106.9503435,
            "velocity": 0.7874015748031497
          },
          {
            "duration": 0.13400887500000636,
            "durationTicks": 119,
            "midi": 70,
            "name": "A#4",
            "ticks": 95068,
            "time": 107.0584515,
            "velocity": 0.7874015748031497
          },
          {
            "duration": 0.11261249999998313,
            "durationTicks": 100,
            "midi": 67,
            "name": "G4",
            "ticks": 95217,
            "time": 107.22624412500001,
            "velocity": 0.7874015748031497
          },
          {
            "duration": 0.12274762500000236,
            "durationTicks": 109,
            "midi": 63,
            "name": "D#4",
            "ticks": 95319,
            "time": 107.341108875,
            "velocity": 0.6062992125984252
          },
          {
            "duration": 0.11936925000000542,
            "durationTicks": 106,
            "midi": 62,
            "name": "D4",
            "ticks": 95438,
            "time": 107.47511775000001,
            "velocity": 0.8818897637795275
          },
          {
            "duration": 0.15202687499999,
            "durationTicks": 135,
            "midi": 61,
            "name": "C#4",
            "ticks": 95536,
            "time": 107.58547800000001,
            "velocity": 0.6929133858267716
          },
          {
            "duration": 0.13963950000000125,
            "durationTicks": 124,
            "midi": 69,
            "name": "A4",
            "ticks": 95681,
            "time": 107.748766125,
            "velocity": 0.8818897637795275
          },
          {
            "duration": 0.11711699999999325,
            "durationTicks": 104,
            "midi": 67,
            "name": "G4",
            "ticks": 95924,
            "time": 108.02241450000001,
            "velocity": 0.6929133858267716
          },
          {
            "duration": 0.1373872500000033,
            "durationTicks": 122,
            "midi": 65,
            "name": "F4",
            "ticks": 96018,
            "time": 108.12827025,
            "velocity": 0.8818897637795275
          },
          {
            "duration": 0.05067562499999667,
            "durationTicks": 45,
            "midi": 67,
            "name": "G4",
            "ticks": 96165,
            "time": 108.293810625,
            "velocity": 0.7874015748031497
          },
          {
            "duration": 0.0990990000000096,
            "durationTicks": 88,
            "midi": 65,
            "name": "F4",
            "ticks": 96208,
            "time": 108.342234,
            "velocity": 0.5354330708661418
          },
          {
            "duration": 0.13063050000000942,
            "durationTicks": 116,
            "midi": 64,
            "name": "E4",
            "ticks": 96288,
            "time": 108.432324,
            "velocity": 0.7874015748031497
          },
          {
            "duration": 0.13513500000000533,
            "durationTicks": 120,
            "midi": 67,
            "name": "G4",
            "ticks": 96410,
            "time": 108.56971125,
            "velocity": 0.8818897637795275
          },
          {
            "duration": 0.153152999999989,
            "durationTicks": 136,
            "midi": 65,
            "name": "F4",
            "ticks": 96522,
            "time": 108.69583725000001,
            "velocity": 0.6062992125984252
          },
          {
            "duration": 0.1700448750000021,
            "durationTicks": 151,
            "midi": 62,
            "name": "D4",
            "ticks": 96659,
            "time": 108.850116375,
            "velocity": 0.7874015748031497
          },
          {
            "duration": 0.26463937500000156,
            "durationTicks": 235,
            "midi": 68,
            "name": "G#4",
            "ticks": 97379,
            "time": 109.660926375,
            "velocity": 0.7874015748031497
          },
          {
            "duration": 0.12162150000000338,
            "durationTicks": 108,
            "midi": 67,
            "name": "G4",
            "ticks": 97604,
            "time": 109.9143045,
            "velocity": 0.6929133858267716
          },
          {
            "duration": 0.25450424999999655,
            "durationTicks": 226,
            "midi": 62,
            "name": "D4",
            "ticks": 97724,
            "time": 110.0494395,
            "velocity": 0.7874015748031497
          },
          {
            "duration": 0.18468450000000303,
            "durationTicks": 164,
            "midi": 65,
            "name": "F4",
            "ticks": 97947,
            "time": 110.300565375,
            "velocity": 0.7874015748031497
          },
          {
            "duration": 0.12387375000000134,
            "durationTicks": 110,
            "midi": 63,
            "name": "D#4",
            "ticks": 98111,
            "time": 110.48524987500001,
            "velocity": 0.6929133858267716
          },
          {
            "duration": 0.1430178750000124,
            "durationTicks": 127,
            "midi": 65,
            "name": "F4",
            "ticks": 98211,
            "time": 110.59786237499999,
            "velocity": 0.8818897637795275
          },
          {
            "duration": 0.14527012499999614,
            "durationTicks": 129,
            "midi": 63,
            "name": "D#4",
            "ticks": 98335,
            "time": 110.737501875,
            "velocity": 0.7874015748031497
          },
          {
            "duration": 0.15090074999999104,
            "durationTicks": 134,
            "midi": 62,
            "name": "D4",
            "ticks": 98446,
            "time": 110.86250175,
            "velocity": 0.8818897637795275
          },
          {
            "duration": 0.10810800000001564,
            "durationTicks": 96,
            "midi": 60,
            "name": "C4",
            "ticks": 98582,
            "time": 111.01565475,
            "velocity": 0.6929133858267716
          },
          {
            "duration": 0.17905387500000813,
            "durationTicks": 159,
            "midi": 62,
            "name": "D4",
            "ticks": 98670,
            "time": 111.11475375,
            "velocity": 0.7874015748031497
          },
          {
            "duration": 0.11036024999999938,
            "durationTicks": 98,
            "midi": 60,
            "name": "C4",
            "ticks": 98825,
            "time": 111.289303125,
            "velocity": 0.7874015748031497
          },
          {
            "duration": 0.17792775000000915,
            "durationTicks": 158,
            "midi": 68,
            "name": "G#4",
            "ticks": 98927,
            "time": 111.404167875,
            "velocity": 0.7874015748031497
          },
          {
            "duration": 0.12837825000001146,
            "durationTicks": 114,
            "midi": 66,
            "name": "F#4",
            "ticks": 99081,
            "time": 111.577591125,
            "velocity": 0.7874015748031497
          },
          {
            "duration": 0.1858106249999878,
            "durationTicks": 165,
            "midi": 68,
            "name": "G#4",
            "ticks": 99185,
            "time": 111.694708125,
            "velocity": 0.6062992125984252
          },
          {
            "duration": 0.09009000000000356,
            "durationTicks": 80,
            "midi": 66,
            "name": "F#4",
            "ticks": 99315,
            "time": 111.841104375,
            "velocity": 0.7874015748031497
          },
          {
            "duration": 0.19369349999999486,
            "durationTicks": 172,
            "midi": 65,
            "name": "F4",
            "ticks": 99399,
            "time": 111.93569887500001,
            "velocity": 0.7874015748031497
          },
          {
            "duration": 0.163288124999994,
            "durationTicks": 145,
            "midi": 63,
            "name": "D#4",
            "ticks": 99554,
            "time": 112.11024825000001,
            "velocity": 0.6929133858267716
          },
          {
            "duration": 0.12950437499999623,
            "durationTicks": 115,
            "midi": 62,
            "name": "D4",
            "ticks": 100007,
            "time": 112.620382875,
            "velocity": 0.8818897637795275
          },
          {
            "duration": 0.1801799999999929,
            "durationTicks": 160,
            "midi": 65,
            "name": "F4",
            "ticks": 100103,
            "time": 112.728490875,
            "velocity": 0.7874015748031497
          },
          {
            "duration": 0.11261249999999734,
            "durationTicks": 100,
            "midi": 69,
            "name": "A4",
            "ticks": 100240,
            "time": 112.88277000000001,
            "velocity": 0.7874015748031497
          },
          {
            "duration": 0.19031512499999792,
            "durationTicks": 169,
            "midi": 72,
            "name": "C5",
            "ticks": 100347,
            "time": 113.00326537500001,
            "velocity": 0.7874015748031497
          },
          {
            "duration": 0.12162149999998917,
            "durationTicks": 108,
            "midi": 70,
            "name": "A#4",
            "ticks": 100512,
            "time": 113.18907600000001,
            "velocity": 0.6929133858267716
          },
          {
            "duration": 0.13513500000000533,
            "durationTicks": 120,
            "midi": 65,
            "name": "F4",
            "ticks": 100590,
            "time": 113.27691375,
            "velocity": 0.7874015748031497
          },
          {
            "duration": 0.08671162499999241,
            "durationTicks": 77,
            "midi": 62,
            "name": "D4",
            "ticks": 100738,
            "time": 113.44358025000001,
            "velocity": 0.6062992125984252
          },
          {
            "duration": 0.18806287499999996,
            "durationTicks": 167,
            "midi": 74,
            "name": "D5",
            "ticks": 100853,
            "time": 113.573084625,
            "velocity": 0.7874015748031497
          },
          {
            "duration": 0.056306250000005775,
            "durationTicks": 50,
            "midi": 72,
            "name": "C5",
            "ticks": 101002,
            "time": 113.74087725,
            "velocity": 0.7874015748031497
          },
          {
            "duration": 0.09346837500000049,
            "durationTicks": 83,
            "midi": 69,
            "name": "A4",
            "ticks": 101051,
            "time": 113.796057375,
            "velocity": 0.8818897637795275
          },
          {
            "duration": 0.13738724999998908,
            "durationTicks": 122,
            "midi": 66,
            "name": "F#4",
            "ticks": 101124,
            "time": 113.87826450000001,
            "velocity": 0.6929133858267716
          },
          {
            "duration": 0.12725212500001248,
            "durationTicks": 113,
            "midi": 63,
            "name": "D#4",
            "ticks": 101237,
            "time": 114.005516625,
            "velocity": 0.6929133858267716
          },
          {
            "duration": 0.2353601249999997,
            "durationTicks": 209,
            "midi": 62,
            "name": "D4",
            "ticks": 101357,
            "time": 114.140651625,
            "velocity": 0.6929133858267716
          },
          {
            "duration": 0.22635112499999366,
            "durationTicks": 201,
            "midi": 60,
            "name": "C4",
            "ticks": 101559,
            "time": 114.36812887500001,
            "velocity": 0.6062992125984252
          },
          {
            "duration": 0.06981975000000773,
            "durationTicks": 62,
            "midi": 58,
            "name": "A#3",
            "ticks": 101994,
            "time": 114.85799325,
            "velocity": 0.6141732283464567
          },
          {
            "duration": 0.04279274999998961,
            "durationTicks": 38,
            "midi": 62,
            "name": "D4",
            "ticks": 101998,
            "time": 114.86249775,
            "velocity": 0.6141732283464567
          },
          {
            "duration": 0.06193687500000067,
            "durationTicks": 55,
            "midi": 60,
            "name": "C4",
            "ticks": 102360,
            "time": 115.270155,
            "velocity": 0.5275590551181102
          },
          {
            "duration": 0.06981974999999352,
            "durationTicks": 62,
            "midi": 64,
            "name": "E4",
            "ticks": 102361,
            "time": 115.271281125,
            "velocity": 0.6141732283464567
          },
          {
            "duration": 1.0720710000000082,
            "durationTicks": 952,
            "midi": 62,
            "name": "D4",
            "ticks": 102620,
            "time": 115.56294749999999,
            "velocity": 0.6141732283464567
          },
          {
            "duration": 1.0720710000000082,
            "durationTicks": 952,
            "midi": 65,
            "name": "F4",
            "ticks": 102620,
            "time": 115.56294749999999,
            "velocity": 0.7086614173228346
          },
          {
            "duration": 0.06418912499999863,
            "durationTicks": 57,
            "midi": 58,
            "name": "A#3",
            "ticks": 103903,
            "time": 117.007765875,
            "velocity": 0.6141732283464567
          },
          {
            "duration": 0.0653152499999976,
            "durationTicks": 58,
            "midi": 62,
            "name": "D4",
            "ticks": 103905,
            "time": 117.010018125,
            "velocity": 0.6141732283464567
          },
          {
            "duration": 0.06981975000000773,
            "durationTicks": 62,
            "midi": 60,
            "name": "C4",
            "ticks": 104272,
            "time": 117.423306,
            "velocity": 0.5275590551181102
          },
          {
            "duration": 0.08333324999999547,
            "durationTicks": 74,
            "midi": 64,
            "name": "E4",
            "ticks": 104272,
            "time": 117.423306,
            "velocity": 0.6141732283464567
          },
          {
            "duration": 0.9481972499999927,
            "durationTicks": 842,
            "midi": 65,
            "name": "F4",
            "ticks": 104548,
            "time": 117.73411650000001,
            "velocity": 0.7086614173228346
          },
          {
            "duration": 0.9346837500000049,
            "durationTicks": 830,
            "midi": 62,
            "name": "D4",
            "ticks": 104553,
            "time": 117.73974712500001,
            "velocity": 0.6141732283464567
          },
          {
            "duration": 0.0878377500000056,
            "durationTicks": 78,
            "midi": 58,
            "name": "A#3",
            "ticks": 105725,
            "time": 119.059565625,
            "velocity": 0.6141732283464567
          },
          {
            "duration": 0.0979728749999964,
            "durationTicks": 87,
            "midi": 62,
            "name": "D4",
            "ticks": 105727,
            "time": 119.061817875,
            "velocity": 0.7086614173228346
          },
          {
            "duration": 0.06756750000000977,
            "durationTicks": 60,
            "midi": 60,
            "name": "C4",
            "ticks": 106087,
            "time": 119.46722287499999,
            "velocity": 0.6141732283464567
          },
          {
            "duration": 0.06306299999998544,
            "durationTicks": 56,
            "midi": 64,
            "name": "E4",
            "ticks": 106089,
            "time": 119.46947512500002,
            "velocity": 0.7086614173228346
          },
          {
            "duration": 0.07319812500000467,
            "durationTicks": 65,
            "midi": 60,
            "name": "C4",
            "ticks": 106324,
            "time": 119.7341145,
            "velocity": 0.5275590551181102
          },
          {
            "duration": 0.07432425000000364,
            "durationTicks": 66,
            "midi": 64,
            "name": "E4",
            "ticks": 106324,
            "time": 119.7341145,
            "velocity": 0.6141732283464567
          },
          {
            "duration": 0.06981974999999352,
            "durationTicks": 62,
            "midi": 62,
            "name": "D4",
            "ticks": 106563,
            "time": 120.003258375,
            "velocity": 0.6141732283464567
          },
          {
            "duration": 0.08558549999999343,
            "durationTicks": 76,
            "midi": 65,
            "name": "F4",
            "ticks": 106564,
            "time": 120.0043845,
            "velocity": 0.7086614173228346
          },
          {
            "duration": 0.07319812500000467,
            "durationTicks": 65,
            "midi": 64,
            "name": "E4",
            "ticks": 106801,
            "time": 120.271276125,
            "velocity": 0.4566929133858268
          },
          {
            "duration": 0.06756750000000977,
            "durationTicks": 60,
            "midi": 67,
            "name": "G4",
            "ticks": 106803,
            "time": 120.273528375,
            "velocity": 0.6141732283464567
          },
          {
            "duration": 0.07432424999998943,
            "durationTicks": 66,
            "midi": 62,
            "name": "D4",
            "ticks": 107038,
            "time": 120.53816775000001,
            "velocity": 0.6141732283464567
          },
          {
            "duration": 0.07319812499999045,
            "durationTicks": 65,
            "midi": 65,
            "name": "F4",
            "ticks": 107039,
            "time": 120.53929387500001,
            "velocity": 0.7086614173228346
          },
          {
            "duration": 0.14977462499999206,
            "durationTicks": 133,
            "midi": 60,
            "name": "C4",
            "ticks": 107271,
            "time": 120.800554875,
            "velocity": 0.6141732283464567
          },
          {
            "duration": 0.13288274999999317,
            "durationTicks": 118,
            "midi": 64,
            "name": "E4",
            "ticks": 107275,
            "time": 120.80505937500001,
            "velocity": 0.7086614173228346
          },
          {
            "duration": 1.2353591250000022,
            "durationTicks": 1097,
            "midi": 62,
            "name": "D4",
            "ticks": 107403,
            "time": 120.949203375,
            "velocity": 0.7874015748031497
          },
          {
            "duration": 1.2083321250000125,
            "durationTicks": 1073,
            "midi": 58,
            "name": "A#3",
            "ticks": 107404,
            "time": 120.9503295,
            "velocity": 0.6929133858267716
          },
          {
            "duration": 0.3220717499999921,
            "durationTicks": 286,
            "midi": 60,
            "name": "C4",
            "ticks": 109587,
            "time": 123.40866037500001,
            "velocity": 0.6062992125984252
          },
          {
            "duration": 0.337837499999992,
            "durationTicks": 300,
            "midi": 63,
            "name": "D#4",
            "ticks": 109587,
            "time": 123.40866037500001,
            "velocity": 0.6929133858267716
          },
          {
            "duration": 0.1587836250000123,
            "durationTicks": 141,
            "midi": 60,
            "name": "C4",
            "ticks": 109925,
            "time": 123.78929062499999,
            "velocity": 0.7007874015748031
          },
          {
            "duration": 0.1362611249999901,
            "durationTicks": 121,
            "midi": 55,
            "name": "G3",
            "ticks": 109939,
            "time": 123.805056375,
            "velocity": 0.6062992125984252
          },
          {
            "duration": 0.08445937499999445,
            "durationTicks": 75,
            "midi": 58,
            "name": "A#3",
            "ticks": 110113,
            "time": 124.00100212500001,
            "velocity": 0.7007874015748031
          },
          {
            "duration": 0.0765765000000016,
            "durationTicks": 68,
            "midi": 55,
            "name": "G3",
            "ticks": 110195,
            "time": 124.093344375,
            "velocity": 0.7007874015748031
          },
          {
            "duration": 0.09121612500000253,
            "durationTicks": 81,
            "midi": 58,
            "name": "A#3",
            "ticks": 110278,
            "time": 124.18681275,
            "velocity": 0.6062992125984252
          },
          {
            "duration": 0.06644137499999658,
            "durationTicks": 59,
            "midi": 60,
            "name": "C4",
            "ticks": 110339,
            "time": 124.25550637500001,
            "velocity": 0.7480314960629921
          },
          {
            "duration": 0.25900874999999246,
            "durationTicks": 230,
            "midi": 63,
            "name": "D#4",
            "ticks": 110400,
            "time": 124.3242,
            "velocity": 0.6929133858267716
          },
          {
            "duration": 0.25450424999999655,
            "durationTicks": 226,
            "midi": 60,
            "name": "C4",
            "ticks": 110404,
            "time": 124.3287045,
            "velocity": 0.6062992125984252
          },
          {
            "duration": 0.10360350000000551,
            "durationTicks": 92,
            "midi": 63,
            "name": "D#4",
            "ticks": 110668,
            "time": 124.6260015,
            "velocity": 0.6062992125984252
          },
          {
            "duration": 0.10360350000000551,
            "durationTicks": 92,
            "midi": 67,
            "name": "G4",
            "ticks": 110668,
            "time": 124.6260015,
            "velocity": 0.7007874015748031
          },
          {
            "duration": 0.6768011249999972,
            "durationTicks": 601,
            "midi": 57,
            "name": "A3",
            "ticks": 110783,
            "time": 124.75550587500001,
            "velocity": 0.6062992125984252
          },
          {
            "duration": 0.6509002500000065,
            "durationTicks": 578,
            "midi": 60,
            "name": "C4",
            "ticks": 110790,
            "time": 124.76338875,
            "velocity": 0.7007874015748031
          },
          {
            "duration": 0.3108105000000023,
            "durationTicks": 276,
            "midi": 57,
            "name": "A3",
            "ticks": 111482,
            "time": 125.54266725000001,
            "velocity": 0.6062992125984252
          },
          {
            "duration": 0.30292762499999526,
            "durationTicks": 269,
            "midi": 62,
            "name": "D4",
            "ticks": 111487,
            "time": 125.548297875,
            "velocity": 0.7007874015748031
          },
          {
            "duration": 0.17342324999998482,
            "durationTicks": 154,
            "midi": 61,
            "name": "C#4",
            "ticks": 111836,
            "time": 125.94131550000002,
            "velocity": 0.7007874015748031
          },
          {
            "duration": 0.12387375000001555,
            "durationTicks": 110,
            "midi": 55,
            "name": "G3",
            "ticks": 111846,
            "time": 125.95257674999999,
            "velocity": 0.6141732283464567
          },
          {
            "duration": 0.08445937500000866,
            "durationTicks": 75,
            "midi": 58,
            "name": "A#3",
            "ticks": 112017,
            "time": 126.145144125,
            "velocity": 0.7007874015748031
          },
          {
            "duration": 0.07657649999998739,
            "durationTicks": 68,
            "midi": 55,
            "name": "G3",
            "ticks": 112109,
            "time": 126.24874762500001,
            "velocity": 0.7007874015748031
          },
          {
            "duration": 0.09121612500001675,
            "durationTicks": 81,
            "midi": 58,
            "name": "A#3",
            "ticks": 112192,
            "time": 126.342216,
            "velocity": 0.6062992125984252
          },
          {
            "duration": 0.06644137499998237,
            "durationTicks": 59,
            "midi": 62,
            "name": "D4",
            "ticks": 112253,
            "time": 126.41090962500002,
            "velocity": 0.7480314960629921
          },
          {
            "duration": 0.36373837499999695,
            "durationTicks": 323,
            "midi": 65,
            "name": "F4",
            "ticks": 112317,
            "time": 126.48298162500001,
            "velocity": 0.7007874015748031
          },
          {
            "duration": 0.3659906250000091,
            "durationTicks": 325,
            "midi": 62,
            "name": "D4",
            "ticks": 112322,
            "time": 126.48861225,
            "velocity": 0.6141732283464567
          },
          {
            "duration": 0.6745488749999993,
            "durationTicks": 599,
            "midi": 59,
            "name": "B3",
            "ticks": 112730,
            "time": 126.94807125,
            "velocity": 0.7007874015748031
          },
          {
            "duration": 0.6745488749999993,
            "durationTicks": 599,
            "midi": 56,
            "name": "G#3",
            "ticks": 112738,
            "time": 126.95708025,
            "velocity": 0.6062992125984252
          },
          {
            "duration": 0.1317566249999942,
            "durationTicks": 117,
            "midi": 63,
            "name": "D#4",
            "ticks": 113441,
            "time": 127.74874612500001,
            "velocity": 0.8818897637795275
          },
          {
            "duration": 0.12387374999998713,
            "durationTicks": 110,
            "midi": 60,
            "name": "C4",
            "ticks": 113444,
            "time": 127.75212450000001,
            "velocity": 0.6929133858267716
          },
          {
            "duration": 0.08445937500000866,
            "durationTicks": 75,
            "midi": 60,
            "name": "C4",
            "ticks": 113662,
            "time": 127.99761975,
            "velocity": 0.7874015748031497
          },
          {
            "duration": 0.0653152499999976,
            "durationTicks": 58,
            "midi": 55,
            "name": "G3",
            "ticks": 113665,
            "time": 128.00099812500002,
            "velocity": 0.6929133858267716
          },
          {
            "duration": 0.13963950000001546,
            "durationTicks": 124,
            "midi": 60,
            "name": "C4",
            "ticks": 113782,
            "time": 128.13275475,
            "velocity": 0.6929133858267716
          },
          {
            "duration": 0.1317566250000084,
            "durationTicks": 117,
            "midi": 63,
            "name": "D#4",
            "ticks": 113789,
            "time": 128.140637625,
            "velocity": 0.7874015748031497
          },
          {
            "duration": 0.12950437500001044,
            "durationTicks": 115,
            "midi": 60,
            "name": "C4",
            "ticks": 114028,
            "time": 128.4097815,
            "velocity": 0.7874015748031497
          },
          {
            "duration": 0.0878377500000056,
            "durationTicks": 78,
            "midi": 55,
            "name": "G3",
            "ticks": 114029,
            "time": 128.410907625,
            "velocity": 0.6929133858267716
          },
          {
            "duration": 0.11936925000000542,
            "durationTicks": 106,
            "midi": 63,
            "name": "D#4",
            "ticks": 114263,
            "time": 128.674420875,
            "velocity": 0.6929133858267716
          },
          {
            "duration": 0.10585574999998926,
            "durationTicks": 94,
            "midi": 67,
            "name": "G4",
            "ticks": 114264,
            "time": 128.67554700000002,
            "velocity": 0.7874015748031497
          },
          {
            "duration": 0.10472962500000449,
            "durationTicks": 93,
            "midi": 63,
            "name": "D#4",
            "ticks": 114497,
            "time": 128.937934125,
            "velocity": 0.6929133858267716
          },
          {
            "duration": 0.12049537499999019,
            "durationTicks": 107,
            "midi": 67,
            "name": "G4",
            "ticks": 114498,
            "time": 128.93906025,
            "velocity": 0.7874015748031497
          },
          {
            "duration": 0.20495475000001306,
            "durationTicks": 182,
            "midi": 66,
            "name": "F#4",
            "ticks": 114726,
            "time": 129.19581675,
            "velocity": 0.6929133858267716
          },
          {
            "duration": 0.1689187499999889,
            "durationTicks": 150,
            "midi": 62,
            "name": "D4",
            "ticks": 114731,
            "time": 129.20144737500001,
            "velocity": 0.6929133858267716
          },
          {
            "duration": 0.0878377500000056,
            "durationTicks": 78,
            "midi": 57,
            "name": "A3",
            "ticks": 114954,
            "time": 129.45257325,
            "velocity": 0.6062992125984252
          },
          {
            "duration": 0.09121612500001675,
            "durationTicks": 81,
            "midi": 62,
            "name": "D4",
            "ticks": 114960,
            "time": 129.45933,
            "velocity": 0.6929133858267716
          },
          {
            "duration": 0.698197499999992,
            "durationTicks": 620,
            "midi": 58,
            "name": "A#3",
            "ticks": 115095,
            "time": 129.611356875,
            "velocity": 0.6929133858267716
          },
          {
            "duration": 0.6745488749999993,
            "durationTicks": 599,
            "midi": 62,
            "name": "D4",
            "ticks": 115099,
            "time": 129.615861375,
            "velocity": 0.7874015748031497
          },
          {
            "duration": 0.11824312499999223,
            "durationTicks": 105,
            "midi": 59,
            "name": "B3",
            "ticks": 115814,
            "time": 130.42104075,
            "velocity": 0.6929133858267716
          },
          {
            "duration": 0.12837824999999725,
            "durationTicks": 114,
            "midi": 63,
            "name": "D#4",
            "ticks": 115817,
            "time": 130.42441912500001,
            "velocity": 0.7874015748031497
          },
          {
            "duration": 0.12950437499998202,
            "durationTicks": 115,
            "midi": 58,
            "name": "A#3",
            "ticks": 116036,
            "time": 130.6710405,
            "velocity": 0.6929133858267716
          },
          {
            "duration": 0.11711700000000747,
            "durationTicks": 104,
            "midi": 62,
            "name": "D4",
            "ticks": 116040,
            "time": 130.675545,
            "velocity": 0.7874015748031497
          },
          {
            "duration": 0.12950437500003886,
            "durationTicks": 115,
            "midi": 55,
            "name": "G3",
            "ticks": 123833,
            "time": 139.45143712499998,
            "velocity": 0.6299212598425197
          },
          {
            "duration": 0.04391887499997438,
            "durationTicks": 39,
            "midi": 55,
            "name": "G3",
            "ticks": 123991,
            "time": 139.62936487500002,
            "velocity": 0.5511811023622047
          },
          {
            "duration": 0.12162150000000338,
            "durationTicks": 108,
            "midi": 57,
            "name": "A3",
            "ticks": 124084,
            "time": 139.7340945,
            "velocity": 0.6220472440944882
          },
          {
            "duration": 0.12499987500001453,
            "durationTicks": 111,
            "midi": 58,
            "name": "A#3",
            "ticks": 124317,
            "time": 139.996481625,
            "velocity": 0.7007874015748031
          },
          {
            "duration": 0.1599097500000255,
            "durationTicks": 142,
            "midi": 60,
            "name": "C4",
            "ticks": 124547,
            "time": 140.255490375,
            "velocity": 0.5748031496062992
          },
          {
            "duration": 0.13851337500000227,
            "durationTicks": 123,
            "midi": 62,
            "name": "D4",
            "ticks": 124787,
            "time": 140.525760375,
            "velocity": 0.6614173228346457
          },
          {
            "duration": 0.5675669999999968,
            "durationTicks": 504,
            "midi": 69,
            "name": "A4",
            "ticks": 131516,
            "time": 148.10345550000002,
            "velocity": 0.4251968503937008
          },
          {
            "duration": 0.5743237499999907,
            "durationTicks": 510,
            "midi": 62,
            "name": "D4",
            "ticks": 131523,
            "time": 148.11133837500003,
            "velocity": 0.33070866141732286
          },
          {
            "duration": 0.5743237499999907,
            "durationTicks": 510,
            "midi": 65,
            "name": "F4",
            "ticks": 131523,
            "time": 148.11133837500003,
            "velocity": 0.3779527559055118
          },
          {
            "duration": 0.4819814999999892,
            "durationTicks": 428,
            "midi": 68,
            "name": "G#4",
            "ticks": 132032,
            "time": 148.684536,
            "velocity": 0.4251968503937008
          },
          {
            "duration": 0.503377874999984,
            "durationTicks": 447,
            "midi": 61,
            "name": "C#4",
            "ticks": 132033,
            "time": 148.68566212500002,
            "velocity": 0.33070866141732286
          },
          {
            "duration": 0.503377874999984,
            "durationTicks": 447,
            "midi": 64,
            "name": "E4",
            "ticks": 132033,
            "time": 148.68566212500002,
            "velocity": 0.3779527559055118
          },
          {
            "duration": 3.199321124999983,
            "durationTicks": 2841,
            "midi": 60,
            "name": "C4",
            "ticks": 132488,
            "time": 149.198049,
            "velocity": 0.33070866141732286
          },
          {
            "duration": 3.199321124999983,
            "durationTicks": 2841,
            "midi": 63,
            "name": "D#4",
            "ticks": 132488,
            "time": 149.198049,
            "velocity": 0.3779527559055118
          },
          {
            "duration": 3.211708499999986,
            "durationTicks": 2852,
            "midi": 67,
            "name": "G4",
            "ticks": 132488,
            "time": 149.198049,
            "velocity": 0.4251968503937008
          },
          {
            "duration": 0.5957201250000139,
            "durationTicks": 529,
            "midi": 65,
            "name": "F4",
            "ticks": 135323,
            "time": 152.390613375,
            "velocity": 0.4015748031496063
          },
          {
            "duration": 0.5957201250000139,
            "durationTicks": 529,
            "midi": 62,
            "name": "D4",
            "ticks": 135343,
            "time": 152.413135875,
            "velocity": 0.4015748031496063
          },
          {
            "duration": 0.5630625000000009,
            "durationTicks": 500,
            "midi": 63,
            "name": "D#4",
            "ticks": 135838,
            "time": 152.97056775000001,
            "velocity": 0.4015748031496063
          },
          {
            "duration": 0.5630625000000009,
            "durationTicks": 500,
            "midi": 60,
            "name": "C4",
            "ticks": 135838,
            "time": 152.97056775000001,
            "velocity": 0.4015748031496063
          },
          {
            "duration": 1.0810800000000143,
            "durationTicks": 960,
            "midi": 59,
            "name": "B3",
            "ticks": 136340,
            "time": 153.5358825,
            "velocity": 0.5118110236220472
          },
          {
            "duration": 1.0754493750000051,
            "durationTicks": 955,
            "midi": 62,
            "name": "D4",
            "ticks": 136340,
            "time": 153.5358825,
            "velocity": 0.5118110236220472
          },
          {
            "duration": 1.0810799999999858,
            "durationTicks": 960,
            "midi": 55,
            "name": "G3",
            "ticks": 137300,
            "time": 154.61696250000003,
            "velocity": 0.5118110236220472
          },
          {
            "duration": 1.0810799999999858,
            "durationTicks": 960,
            "midi": 59,
            "name": "B3",
            "ticks": 137300,
            "time": 154.61696250000003,
            "velocity": 0.5118110236220472
          },
          {
            "duration": 2.139637499999992,
            "durationTicks": 1900,
            "midi": 54,
            "name": "F#3",
            "ticks": 138260,
            "time": 155.6980425,
            "velocity": 0.5354330708661418
          },
          {
            "duration": 2.139637499999992,
            "durationTicks": 1900,
            "midi": 60,
            "name": "C4",
            "ticks": 138260,
            "time": 155.6980425,
            "velocity": 0.5354330708661418
          },
          {
            "duration": 1.0484223750000012,
            "durationTicks": 931,
            "midi": 67,
            "name": "G4",
            "ticks": 140160,
            "time": 157.83768,
            "velocity": 0.6929133858267716
          },
          {
            "duration": 1.0484223750000012,
            "durationTicks": 931,
            "midi": 62,
            "name": "D4",
            "ticks": 140160,
            "time": 157.83768,
            "velocity": 0.6062992125984252
          },
          {
            "duration": 1.0900889999999777,
            "durationTicks": 968,
            "midi": 58,
            "name": "A#3",
            "ticks": 140160,
            "time": 157.83768,
            "velocity": 0.6062992125984252
          },
          {
            "duration": 1.0912151249999908,
            "durationTicks": 969,
            "midi": 66,
            "name": "F#4",
            "ticks": 141120,
            "time": 158.91876000000002,
            "velocity": 0.6929133858267716
          },
          {
            "duration": 1.0304043749999892,
            "durationTicks": 915,
            "midi": 62,
            "name": "D4",
            "ticks": 141120,
            "time": 158.91876000000002,
            "velocity": 0.6299212598425197
          },
          {
            "duration": 1.0360349999999983,
            "durationTicks": 920,
            "midi": 58,
            "name": "A#3",
            "ticks": 141120,
            "time": 158.91876000000002,
            "velocity": 0.6062992125984252
          },
          {
            "duration": 1.0698187500000245,
            "durationTicks": 950,
            "midi": 65,
            "name": "F4",
            "ticks": 142080,
            "time": 159.99984,
            "velocity": 0.6929133858267716
          },
          {
            "duration": 1.0360349999999983,
            "durationTicks": 920,
            "midi": 62,
            "name": "D4",
            "ticks": 142080,
            "time": 159.99984,
            "velocity": 0.6299212598425197
          },
          {
            "duration": 1.0754493749999767,
            "durationTicks": 955,
            "midi": 58,
            "name": "A#3",
            "ticks": 142080,
            "time": 159.99984,
            "velocity": 0.6062992125984252
          },
          {
            "duration": 1.0788277500000163,
            "durationTicks": 958,
            "midi": 64,
            "name": "E4",
            "ticks": 143040,
            "time": 161.08092,
            "velocity": 0.6062992125984252
          },
          {
            "duration": 1.0135125000000187,
            "durationTicks": 900,
            "midi": 58,
            "name": "A#3",
            "ticks": 143040,
            "time": 161.08092,
            "velocity": 0.6299212598425197
          },
          {
            "duration": 1.0506746250000276,
            "durationTicks": 933,
            "midi": 62,
            "name": "D4",
            "ticks": 143040,
            "time": 161.08092,
            "velocity": 0.6062992125984252
          },
          {
            "duration": 1.0788277500000163,
            "durationTicks": 958,
            "midi": 58,
            "name": "A#3",
            "ticks": 144000,
            "time": 162.162,
            "velocity": 0.6062992125984252
          },
          {
            "duration": 1.0585574999999778,
            "durationTicks": 940,
            "midi": 55,
            "name": "G3",
            "ticks": 144000,
            "time": 162.162,
            "velocity": 0.6062992125984252
          },
          {
            "duration": 1.1013502500000243,
            "durationTicks": 978,
            "midi": 63,
            "name": "D#4",
            "ticks": 144000,
            "time": 162.162,
            "velocity": 0.6062992125984252
          },
          {
            "duration": 0.3547293749999767,
            "durationTicks": 315,
            "midi": 51,
            "name": "D#3",
            "ticks": 144960,
            "time": 163.24308000000002,
            "velocity": 0.5039370078740157
          },
          {
            "duration": 0.3479726249999828,
            "durationTicks": 309,
            "midi": 55,
            "name": "G3",
            "ticks": 144960,
            "time": 163.24308000000002,
            "velocity": 0.5984251968503937
          },
          {
            "duration": 0.33783750000000623,
            "durationTicks": 300,
            "midi": 51,
            "name": "D#3",
            "ticks": 145320,
            "time": 163.648485,
            "velocity": 0.5039370078740157
          },
          {
            "duration": 0.33783750000000623,
            "durationTicks": 300,
            "midi": 55,
            "name": "G3",
            "ticks": 145320,
            "time": 163.648485,
            "velocity": 0.5039370078740157
          },
          {
            "duration": 0.3547293750000051,
            "durationTicks": 315,
            "midi": 58,
            "name": "A#3",
            "ticks": 145320,
            "time": 163.648485,
            "velocity": 0.5984251968503937
          },
          {
            "duration": 0.21058537500002217,
            "durationTicks": 187,
            "midi": 51,
            "name": "D#3",
            "ticks": 145680,
            "time": 164.05389,
            "velocity": 0.5039370078740157
          },
          {
            "duration": 0.21058537500002217,
            "durationTicks": 187,
            "midi": 55,
            "name": "G3",
            "ticks": 145680,
            "time": 164.05389,
            "velocity": 0.5039370078740157
          },
          {
            "duration": 0.23198175000001697,
            "durationTicks": 206,
            "midi": 60,
            "name": "C4",
            "ticks": 145680,
            "time": 164.05389,
            "velocity": 0.5984251968503937
          },
          {
            "duration": 0.8581072499999891,
            "durationTicks": 762,
            "midi": 60,
            "name": "C4",
            "ticks": 145920,
            "time": 164.32416,
            "velocity": 0.5984251968503937
          },
          {
            "duration": 0.8581072499999891,
            "durationTicks": 762,
            "midi": 55,
            "name": "G3",
            "ticks": 145920,
            "time": 164.32416,
            "velocity": 0.5984251968503937
          },
          {
            "duration": 0.8581072499999891,
            "durationTicks": 762,
            "midi": 62,
            "name": "D4",
            "ticks": 145920,
            "time": 164.32416,
            "velocity": 0.5984251968503937
          },
          {
            "duration": 0.14189175000001342,
            "durationTicks": 126,
            "midi": 62,
            "name": "D4",
            "ticks": 146752,
            "time": 165.261096,
            "velocity": 0.5984251968503937
          },
          {
            "duration": 0.14189175000001342,
            "durationTicks": 126,
            "midi": 60,
            "name": "C4",
            "ticks": 146752,
            "time": 165.261096,
            "velocity": 0.5984251968503937
          },
          {
            "duration": 0.14189175000001342,
            "durationTicks": 126,
            "midi": 54,
            "name": "F#3",
            "ticks": 146752,
            "time": 165.261096,
            "velocity": 0.5984251968503937
          },
          {
            "duration": 0.06756750000002398,
            "durationTicks": 60,
            "midi": 62,
            "name": "D4",
            "ticks": 160667,
            "time": 180.931125375,
            "velocity": 0.8818897637795275
          },
          {
            "duration": 0.14189175000001342,
            "durationTicks": 126,
            "midi": 70,
            "name": "A#4",
            "ticks": 160674,
            "time": 180.93900825,
            "velocity": 0.7874015748031497
          },
          {
            "duration": 0.1756755000000112,
            "durationTicks": 156,
            "midi": 67,
            "name": "G4",
            "ticks": 160678,
            "time": 180.94351275,
            "velocity": 0.8818897637795275
          },
          {
            "duration": 0.13288274999999317,
            "durationTicks": 118,
            "midi": 62,
            "name": "D4",
            "ticks": 160791,
            "time": 181.070764875,
            "velocity": 0.7874015748031497
          },
          {
            "duration": 0.09008999999997513,
            "durationTicks": 80,
            "midi": 69,
            "name": "A4",
            "ticks": 160794,
            "time": 181.07414325000002,
            "velocity": 0.8818897637795275
          },
          {
            "duration": 0.09234225000000151,
            "durationTicks": 82,
            "midi": 72,
            "name": "C5",
            "ticks": 160806,
            "time": 181.08765675,
            "velocity": 0.8818897637795275
          },
          {
            "duration": 0.10360350000001972,
            "durationTicks": 92,
            "midi": 73,
            "name": "C#5",
            "ticks": 161030,
            "time": 181.33990875,
            "velocity": 0.8818897637795275
          },
          {
            "duration": 0.06981975000002194,
            "durationTicks": 62,
            "midi": 70,
            "name": "A#4",
            "ticks": 161036,
            "time": 181.3466655,
            "velocity": 0.8818897637795275
          },
          {
            "duration": 0.10923412500002883,
            "durationTicks": 97,
            "midi": 62,
            "name": "D4",
            "ticks": 161040,
            "time": 181.35117,
            "velocity": 0.8818897637795275
          },
          {
            "duration": 0.13288274999999317,
            "durationTicks": 118,
            "midi": 70,
            "name": "A#4",
            "ticks": 161268,
            "time": 181.60792650000002,
            "velocity": 0.8818897637795275
          },
          {
            "duration": 0.141891749999985,
            "durationTicks": 126,
            "midi": 74,
            "name": "D5",
            "ticks": 161274,
            "time": 181.61468325,
            "velocity": 0.8818897637795275
          },
          {
            "duration": 0.13175662499997998,
            "durationTicks": 117,
            "midi": 65,
            "name": "F4",
            "ticks": 161280,
            "time": 181.62144,
            "velocity": 0.6929133858267716
          },
          {
            "duration": 0.08220712500002492,
            "durationTicks": 73,
            "midi": 65,
            "name": "F4",
            "ticks": 162625,
            "time": 183.13607812499998,
            "velocity": 0.8818897637795275
          },
          {
            "duration": 0.21734212499998762,
            "durationTicks": 193,
            "midi": 74,
            "name": "D5",
            "ticks": 162636,
            "time": 183.14846550000001,
            "velocity": 0.8818897637795275
          },
          {
            "duration": 0.14527012499999614,
            "durationTicks": 129,
            "midi": 70,
            "name": "A#4",
            "ticks": 162651,
            "time": 183.165357375,
            "velocity": 0.7874015748031497
          },
          {
            "duration": 0.11036024999998517,
            "durationTicks": 98,
            "midi": 65,
            "name": "F4",
            "ticks": 162751,
            "time": 183.27796987500003,
            "velocity": 0.7874015748031497
          },
          {
            "duration": 0.11936925000000542,
            "durationTicks": 106,
            "midi": 69,
            "name": "A4",
            "ticks": 162754,
            "time": 183.28134825,
            "velocity": 0.7874015748031497
          },
          {
            "duration": 0.11936925000000542,
            "durationTicks": 106,
            "midi": 72,
            "name": "C5",
            "ticks": 162756,
            "time": 183.2836005,
            "velocity": 0.8818897637795275
          },
          {
            "duration": 0.1328827500000216,
            "durationTicks": 118,
            "midi": 70,
            "name": "A#4",
            "ticks": 162984,
            "time": 183.540357,
            "velocity": 0.7874015748031497
          },
          {
            "duration": 0.10923412500002883,
            "durationTicks": 97,
            "midi": 74,
            "name": "D5",
            "ticks": 162987,
            "time": 183.54373537499998,
            "velocity": 0.7874015748031497
          },
          {
            "duration": 0.0878377500000056,
            "durationTicks": 78,
            "midi": 65,
            "name": "F4",
            "ticks": 162993,
            "time": 183.550492125,
            "velocity": 0.8818897637795275
          },
          {
            "duration": 2.049547500000017,
            "durationTicks": 1820,
            "midi": 62,
            "name": "D4",
            "ticks": 163200,
            "time": 183.7836,
            "velocity": 0.6929133858267716
          },
          {
            "duration": 2.0900880000000086,
            "durationTicks": 1856,
            "midi": 70,
            "name": "A#4",
            "ticks": 163204,
            "time": 183.7881045,
            "velocity": 0.7480314960629921
          },
          {
            "duration": 2.067565500000029,
            "durationTicks": 1836,
            "midi": 67,
            "name": "G4",
            "ticks": 163212,
            "time": 183.7971135,
            "velocity": 0.6299212598425197
          },
          {
            "duration": 0.21171149999997851,
            "durationTicks": 188,
            "midi": 74,
            "name": "D5",
            "ticks": 165112,
            "time": 185.93675100000002,
            "velocity": 0.8818897637795275
          },
          {
            "duration": 0.21846824999997239,
            "durationTicks": 194,
            "midi": 67,
            "name": "G4",
            "ticks": 165116,
            "time": 185.9412555,
            "velocity": 0.5748031496062992
          },
          {
            "duration": 0.21846825000002923,
            "durationTicks": 194,
            "midi": 72,
            "name": "C5",
            "ticks": 165117,
            "time": 185.942381625,
            "velocity": 0.7559055118110236
          },
          {
            "duration": 0.13288274999999317,
            "durationTicks": 118,
            "midi": 75,
            "name": "D#5",
            "ticks": 165342,
            "time": 186.19575975,
            "velocity": 0.6929133858267716
          },
          {
            "duration": 0.07432425000001786,
            "durationTicks": 66,
            "midi": 72,
            "name": "C5",
            "ticks": 165359,
            "time": 186.214903875,
            "velocity": 0.7559055118110236
          },
          {
            "duration": 0.0596846249999885,
            "durationTicks": 53,
            "midi": 67,
            "name": "G4",
            "ticks": 165360,
            "time": 186.21603000000002,
            "velocity": 0.5748031496062992
          },
          {
            "duration": 0.11373862499999632,
            "durationTicks": 101,
            "midi": 74,
            "name": "D5",
            "ticks": 165469,
            "time": 186.338777625,
            "velocity": 0.7874015748031497
          },
          {
            "duration": 0.07545037500000262,
            "durationTicks": 67,
            "midi": 67,
            "name": "G4",
            "ticks": 165480,
            "time": 186.351165,
            "velocity": 0.5748031496062992
          },
          {
            "duration": 0.07770262500000058,
            "durationTicks": 69,
            "midi": 72,
            "name": "C5",
            "ticks": 165480,
            "time": 186.351165,
            "velocity": 0.7559055118110236
          },
          {
            "duration": 0.08896387499999037,
            "durationTicks": 79,
            "midi": 72,
            "name": "C5",
            "ticks": 165581,
            "time": 186.464903625,
            "velocity": 0.8503937007874016
          },
          {
            "duration": 0.08558550000000764,
            "durationTicks": 76,
            "midi": 67,
            "name": "G4",
            "ticks": 165602,
            "time": 186.48855225,
            "velocity": 0.5748031496062992
          },
          {
            "duration": 0.11711700000000747,
            "durationTicks": 104,
            "midi": 67,
            "name": "G4",
            "ticks": 165722,
            "time": 186.62368725000002,
            "velocity": 0.5748031496062992
          },
          {
            "duration": 0.09797287500001062,
            "durationTicks": 87,
            "midi": 72,
            "name": "C5",
            "ticks": 165732,
            "time": 186.6349485,
            "velocity": 0.7559055118110236
          },
          {
            "duration": 0.16103587500001026,
            "durationTicks": 143,
            "midi": 72,
            "name": "C5",
            "ticks": 165956,
            "time": 186.8872005,
            "velocity": 0.7559055118110236
          },
          {
            "duration": 0.05743237499999054,
            "durationTicks": 51,
            "midi": 67,
            "name": "G4",
            "ticks": 165962,
            "time": 186.89395725,
            "velocity": 0.5748031496062992
          },
          {
            "duration": 0.096846749999969,
            "durationTicks": 86,
            "midi": 70,
            "name": "A#4",
            "ticks": 166068,
            "time": 187.01332650000003,
            "velocity": 0.7874015748031497
          },
          {
            "duration": 0.0979728749999822,
            "durationTicks": 87,
            "midi": 66,
            "name": "F#4",
            "ticks": 166081,
            "time": 187.02796612500003,
            "velocity": 0.7559055118110236
          },
          {
            "duration": 0.07770262499997216,
            "durationTicks": 69,
            "midi": 62,
            "name": "D4",
            "ticks": 166085,
            "time": 187.03247062500003,
            "velocity": 0.5748031496062992
          },
          {
            "duration": 0.11036024999998517,
            "durationTicks": 98,
            "midi": 66,
            "name": "F#4",
            "ticks": 166205,
            "time": 187.16760562500002,
            "velocity": 0.7559055118110236
          },
          {
            "duration": 0.10698187500000245,
            "durationTicks": 95,
            "midi": 62,
            "name": "D4",
            "ticks": 166206,
            "time": 187.16873175,
            "velocity": 0.5748031496062992
          },
          {
            "duration": 0.11261250000001155,
            "durationTicks": 100,
            "midi": 70,
            "name": "A#4",
            "ticks": 166223,
            "time": 187.187875875,
            "velocity": 0.8818897637795275
          },
          {
            "duration": 0.07094587500000671,
            "durationTicks": 63,
            "midi": 66,
            "name": "F#4",
            "ticks": 166441,
            "time": 187.433371125,
            "velocity": 0.7559055118110236
          },
          {
            "duration": 0.05518012500002101,
            "durationTicks": 49,
            "midi": 62,
            "name": "D4",
            "ticks": 166442,
            "time": 187.43449725,
            "velocity": 0.5748031496062992
          },
          {
            "duration": 0.17454937500002643,
            "durationTicks": 155,
            "midi": 70,
            "name": "A#4",
            "ticks": 166446,
            "time": 187.43900175,
            "velocity": 0.7874015748031497
          },
          {
            "duration": 0.09009000000000356,
            "durationTicks": 80,
            "midi": 66,
            "name": "F#4",
            "ticks": 166560,
            "time": 187.56738,
            "velocity": 0.6614173228346457
          },
          {
            "duration": 0.07882874999998535,
            "durationTicks": 70,
            "midi": 62,
            "name": "D4",
            "ticks": 166563,
            "time": 187.57075837500003,
            "velocity": 0.5748031496062992
          },
          {
            "duration": 0.08108100000001173,
            "durationTicks": 72,
            "midi": 69,
            "name": "A4",
            "ticks": 166572,
            "time": 187.5808935,
            "velocity": 0.8503937007874016
          },
          {
            "duration": 0.15878362499998389,
            "durationTicks": 141,
            "midi": 62,
            "name": "D4",
            "ticks": 166686,
            "time": 187.70927175,
            "velocity": 0.5748031496062992
          },
          {
            "duration": 0.13288274999999317,
            "durationTicks": 118,
            "midi": 66,
            "name": "F#4",
            "ticks": 166686,
            "time": 187.70927175,
            "velocity": 0.7559055118110236
          },
          {
            "duration": 0.12837824999999725,
            "durationTicks": 114,
            "midi": 69,
            "name": "A4",
            "ticks": 166705,
            "time": 187.730668125,
            "velocity": 0.8503937007874016
          },
          {
            "duration": 1.067566499999998,
            "durationTicks": 948,
            "midi": 62,
            "name": "D4",
            "ticks": 167022,
            "time": 188.08764975,
            "velocity": 0.6692913385826772
          },
          {
            "duration": 1.067566499999998,
            "durationTicks": 948,
            "midi": 58,
            "name": "A#3",
            "ticks": 167022,
            "time": 188.08764975,
            "velocity": 0.7086614173228346
          },
          {
            "duration": 1.0585575000000063,
            "durationTicks": 940,
            "midi": 55,
            "name": "G3",
            "ticks": 167022,
            "time": 188.08764975,
            "velocity": 0.7086614173228346
          },
          {
            "duration": 0.9684675000000311,
            "durationTicks": 860,
            "midi": 60,
            "name": "C4",
            "ticks": 167980,
            "time": 189.16647749999998,
            "velocity": 0.6535433070866141
          },
          {
            "duration": 0.9639630000000352,
            "durationTicks": 856,
            "midi": 55,
            "name": "G3",
            "ticks": 167984,
            "time": 189.17098199999998,
            "velocity": 0.6299212598425197
          },
          {
            "duration": 0.9504495000000475,
            "durationTicks": 844,
            "midi": 64,
            "name": "E4",
            "ticks": 167984,
            "time": 189.17098199999998,
            "velocity": 0.7086614173228346
          },
          {
            "duration": 1.1824312499999792,
            "durationTicks": 1050,
            "midi": 55,
            "name": "G3",
            "ticks": 168850,
            "time": 190.14620625,
            "velocity": 0.6299212598425197
          },
          {
            "duration": 1.1824312499999792,
            "durationTicks": 1050,
            "midi": 60,
            "name": "C4",
            "ticks": 168850,
            "time": 190.14620625,
            "velocity": 0.6535433070866141
          },
          {
            "duration": 1.164413249999967,
            "durationTicks": 1034,
            "midi": 63,
            "name": "D#4",
            "ticks": 168856,
            "time": 190.15296300000003,
            "velocity": 0.7086614173228346
          },
          {
            "duration": 0.9358098750000181,
            "durationTicks": 831,
            "midi": 58,
            "name": "A#3",
            "ticks": 169909,
            "time": 191.338772625,
            "velocity": 0.7086614173228346
          },
          {
            "duration": 0.9358098750000181,
            "durationTicks": 831,
            "midi": 62,
            "name": "D4",
            "ticks": 169909,
            "time": 191.338772625,
            "velocity": 0.7086614173228346
          },
          {
            "duration": 0.8952693750000265,
            "durationTicks": 795,
            "midi": 53,
            "name": "F3",
            "ticks": 169917,
            "time": 191.34778162499998,
            "velocity": 0.5826771653543307
          },
          {
            "duration": 2.210583374999999,
            "durationTicks": 1963,
            "midi": 62,
            "name": "D4",
            "ticks": 170777,
            "time": 192.316249125,
            "velocity": 0.7086614173228346
          },
          {
            "duration": 2.210583374999999,
            "durationTicks": 1963,
            "midi": 58,
            "name": "A#3",
            "ticks": 170777,
            "time": 192.316249125,
            "velocity": 0.6377952755905512
          },
          {
            "duration": 2.210583374999999,
            "durationTicks": 1963,
            "midi": 67,
            "name": "G4",
            "ticks": 170777,
            "time": 192.316249125,
            "velocity": 0.7086614173228346
          },
          {
            "duration": 0.14301787499999818,
            "durationTicks": 127,
            "midi": 55,
            "name": "G3",
            "ticks": 173037,
            "time": 194.861291625,
            "velocity": 0.6929133858267716
          },
          {
            "duration": 0.15653137500001435,
            "durationTicks": 139,
            "midi": 62,
            "name": "D4",
            "ticks": 173039,
            "time": 194.863543875,
            "velocity": 0.7874015748031497
          },
          {
            "duration": 0.15653137500001435,
            "durationTicks": 139,
            "midi": 60,
            "name": "C4",
            "ticks": 173039,
            "time": 194.863543875,
            "velocity": 0.7874015748031497
          },
          {
            "duration": 0.13851337500000227,
            "durationTicks": 123,
            "midi": 55,
            "name": "G3",
            "ticks": 173429,
            "time": 195.302732625,
            "velocity": 0.6929133858267716
          },
          {
            "duration": 0.15653137499998593,
            "durationTicks": 139,
            "midi": 62,
            "name": "D4",
            "ticks": 173433,
            "time": 195.30723712500003,
            "velocity": 0.7874015748031497
          },
          {
            "duration": 0.15653137499998593,
            "durationTicks": 139,
            "midi": 60,
            "name": "C4",
            "ticks": 173433,
            "time": 195.30723712500003,
            "velocity": 0.7874015748031497
          },
          {
            "duration": 0.22297275000002514,
            "durationTicks": 198,
            "midi": 62,
            "name": "D4",
            "ticks": 173742,
            "time": 195.65520974999998,
            "velocity": 0.7874015748031497
          },
          {
            "duration": 0.22297275000002514,
            "durationTicks": 198,
            "midi": 60,
            "name": "C4",
            "ticks": 173742,
            "time": 195.65520974999998,
            "velocity": 0.7874015748031497
          },
          {
            "duration": 0.20495475000004149,
            "durationTicks": 182,
            "midi": 54,
            "name": "F#3",
            "ticks": 173744,
            "time": 195.65746199999998,
            "velocity": 0.6929133858267716
          },
          {
            "duration": 0.06756750000002398,
            "durationTicks": 60,
            "midi": 62,
            "name": "D4",
            "ticks": 183707,
            "time": 206.877045375,
            "velocity": 0.8818897637795275
          },
          {
            "duration": 0.14189175000001342,
            "durationTicks": 126,
            "midi": 70,
            "name": "A#4",
            "ticks": 183714,
            "time": 206.88492825,
            "velocity": 0.7874015748031497
          },
          {
            "duration": 0.1756755000000112,
            "durationTicks": 156,
            "midi": 67,
            "name": "G4",
            "ticks": 183718,
            "time": 206.88943275,
            "velocity": 0.8818897637795275
          },
          {
            "duration": 0.13288274999999317,
            "durationTicks": 118,
            "midi": 62,
            "name": "D4",
            "ticks": 183831,
            "time": 207.016684875,
            "velocity": 0.7874015748031497
          },
          {
            "duration": 0.09008999999997513,
            "durationTicks": 80,
            "midi": 69,
            "name": "A4",
            "ticks": 183834,
            "time": 207.02006325000002,
            "velocity": 0.8818897637795275
          },
          {
            "duration": 0.09234225000000151,
            "durationTicks": 82,
            "midi": 72,
            "name": "C5",
            "ticks": 183846,
            "time": 207.03357675,
            "velocity": 0.8818897637795275
          },
          {
            "duration": 0.10360350000001972,
            "durationTicks": 92,
            "midi": 73,
            "name": "C#5",
            "ticks": 184070,
            "time": 207.28582875,
            "velocity": 0.8818897637795275
          },
          {
            "duration": 0.06981975000002194,
            "durationTicks": 62,
            "midi": 70,
            "name": "A#4",
            "ticks": 184076,
            "time": 207.2925855,
            "velocity": 0.8818897637795275
          },
          {
            "duration": 0.10923412500002883,
            "durationTicks": 97,
            "midi": 62,
            "name": "D4",
            "ticks": 184080,
            "time": 207.29709,
            "velocity": 0.8818897637795275
          },
          {
            "duration": 1.416665249999994,
            "durationTicks": 1258,
            "midi": 70,
            "name": "A#4",
            "ticks": 184308,
            "time": 207.55384650000002,
            "velocity": 0.6929133858267716
          },
          {
            "duration": 1.425674249999986,
            "durationTicks": 1266,
            "midi": 74,
            "name": "D5",
            "ticks": 184314,
            "time": 207.56060325,
            "velocity": 0.7874015748031497
          },
          {
            "duration": 1.415539124999981,
            "durationTicks": 1257,
            "midi": 65,
            "name": "F4",
            "ticks": 184320,
            "time": 207.56736,
            "velocity": 0.6929133858267716
          },
          {
            "duration": 0.08220712500002492,
            "durationTicks": 73,
            "midi": 65,
            "name": "F4",
            "ticks": 185665,
            "time": 209.08199812499998,
            "velocity": 0.8818897637795275
          },
          {
            "duration": 0.21734212499998762,
            "durationTicks": 193,
            "midi": 74,
            "name": "D5",
            "ticks": 185676,
            "time": 209.09438550000002,
            "velocity": 0.8818897637795275
          },
          {
            "duration": 0.14527012499999614,
            "durationTicks": 129,
            "midi": 70,
            "name": "A#4",
            "ticks": 185691,
            "time": 209.11127737500001,
            "velocity": 0.7874015748031497
          },
          {
            "duration": 0.11036024999998517,
            "durationTicks": 98,
            "midi": 65,
            "name": "F4",
            "ticks": 185791,
            "time": 209.22388987500003,
            "velocity": 0.7874015748031497
          },
          {
            "duration": 0.11936925000000542,
            "durationTicks": 106,
            "midi": 69,
            "name": "A4",
            "ticks": 185794,
            "time": 209.22726825,
            "velocity": 0.7874015748031497
          },
          {
            "duration": 0.11936925000000542,
            "durationTicks": 106,
            "midi": 72,
            "name": "C5",
            "ticks": 185796,
            "time": 209.2295205,
            "velocity": 0.8818897637795275
          },
          {
            "duration": 0.1328827500000216,
            "durationTicks": 118,
            "midi": 70,
            "name": "A#4",
            "ticks": 186024,
            "time": 209.486277,
            "velocity": 0.7874015748031497
          },
          {
            "duration": 0.10923412500002883,
            "durationTicks": 97,
            "midi": 74,
            "name": "D5",
            "ticks": 186027,
            "time": 209.48965537499998,
            "velocity": 0.7874015748031497
          },
          {
            "duration": 0.0878377500000056,
            "durationTicks": 78,
            "midi": 65,
            "name": "F4",
            "ticks": 186033,
            "time": 209.496412125,
            "velocity": 0.8818897637795275
          },
          {
            "duration": 2.049547500000017,
            "durationTicks": 1820,
            "midi": 62,
            "name": "D4",
            "ticks": 186240,
            "time": 209.72952,
            "velocity": 0.6929133858267716
          },
          {
            "duration": 2.0900880000000086,
            "durationTicks": 1856,
            "midi": 70,
            "name": "A#4",
            "ticks": 186244,
            "time": 209.7340245,
            "velocity": 0.7480314960629921
          },
          {
            "duration": 2.067565500000029,
            "durationTicks": 1836,
            "midi": 67,
            "name": "G4",
            "ticks": 186252,
            "time": 209.7430335,
            "velocity": 0.6299212598425197
          },
          {
            "duration": 0.21171149999997851,
            "durationTicks": 188,
            "midi": 74,
            "name": "D5",
            "ticks": 188152,
            "time": 211.88267100000002,
            "velocity": 0.8818897637795275
          },
          {
            "duration": 0.21846824999997239,
            "durationTicks": 194,
            "midi": 67,
            "name": "G4",
            "ticks": 188156,
            "time": 211.8871755,
            "velocity": 0.5748031496062992
          },
          {
            "duration": 0.21846825000002923,
            "durationTicks": 194,
            "midi": 72,
            "name": "C5",
            "ticks": 188157,
            "time": 211.888301625,
            "velocity": 0.7559055118110236
          },
          {
            "duration": 0.13288274999999317,
            "durationTicks": 118,
            "midi": 75,
            "name": "D#5",
            "ticks": 188382,
            "time": 212.14167975,
            "velocity": 0.6929133858267716
          },
          {
            "duration": 0.07432425000001786,
            "durationTicks": 66,
            "midi": 72,
            "name": "C5",
            "ticks": 188399,
            "time": 212.160823875,
            "velocity": 0.7559055118110236
          },
          {
            "duration": 0.0596846249999885,
            "durationTicks": 53,
            "midi": 67,
            "name": "G4",
            "ticks": 188400,
            "time": 212.16195000000002,
            "velocity": 0.5748031496062992
          },
          {
            "duration": 0.11373862499999632,
            "durationTicks": 101,
            "midi": 74,
            "name": "D5",
            "ticks": 188509,
            "time": 212.284697625,
            "velocity": 0.7874015748031497
          },
          {
            "duration": 0.07545037500000262,
            "durationTicks": 67,
            "midi": 67,
            "name": "G4",
            "ticks": 188520,
            "time": 212.297085,
            "velocity": 0.5748031496062992
          },
          {
            "duration": 0.07770262500000058,
            "durationTicks": 69,
            "midi": 72,
            "name": "C5",
            "ticks": 188520,
            "time": 212.297085,
            "velocity": 0.7559055118110236
          },
          {
            "duration": 0.08896387499999037,
            "durationTicks": 79,
            "midi": 72,
            "name": "C5",
            "ticks": 188621,
            "time": 212.410823625,
            "velocity": 0.8503937007874016
          },
          {
            "duration": 0.08558550000000764,
            "durationTicks": 76,
            "midi": 67,
            "name": "G4",
            "ticks": 188642,
            "time": 212.43447225,
            "velocity": 0.5748031496062992
          },
          {
            "duration": 0.11711700000000747,
            "durationTicks": 104,
            "midi": 67,
            "name": "G4",
            "ticks": 188762,
            "time": 212.56960725000002,
            "velocity": 0.5748031496062992
          },
          {
            "duration": 0.09797287500001062,
            "durationTicks": 87,
            "midi": 72,
            "name": "C5",
            "ticks": 188772,
            "time": 212.5808685,
            "velocity": 0.7559055118110236
          },
          {
            "duration": 0.16103587500001026,
            "durationTicks": 143,
            "midi": 72,
            "name": "C5",
            "ticks": 188996,
            "time": 212.8331205,
            "velocity": 0.7559055118110236
          },
          {
            "duration": 0.05743237499999054,
            "durationTicks": 51,
            "midi": 67,
            "name": "G4",
            "ticks": 189002,
            "time": 212.83987725,
            "velocity": 0.5748031496062992
          },
          {
            "duration": 0.096846749999969,
            "durationTicks": 86,
            "midi": 70,
            "name": "A#4",
            "ticks": 189108,
            "time": 212.95924650000003,
            "velocity": 0.7874015748031497
          },
          {
            "duration": 0.0979728749999822,
            "durationTicks": 87,
            "midi": 66,
            "name": "F#4",
            "ticks": 189121,
            "time": 212.97388612500004,
            "velocity": 0.7559055118110236
          },
          {
            "duration": 0.07770262499997216,
            "durationTicks": 69,
            "midi": 62,
            "name": "D4",
            "ticks": 189125,
            "time": 212.97839062500003,
            "velocity": 0.5748031496062992
          },
          {
            "duration": 0.11036024999998517,
            "durationTicks": 98,
            "midi": 66,
            "name": "F#4",
            "ticks": 189245,
            "time": 213.11352562500002,
            "velocity": 0.7559055118110236
          },
          {
            "duration": 0.10698187500000245,
            "durationTicks": 95,
            "midi": 62,
            "name": "D4",
            "ticks": 189246,
            "time": 213.11465175,
            "velocity": 0.5748031496062992
          },
          {
            "duration": 0.11261250000001155,
            "durationTicks": 100,
            "midi": 70,
            "name": "A#4",
            "ticks": 189263,
            "time": 213.133795875,
            "velocity": 0.8818897637795275
          },
          {
            "duration": 0.07094587500000671,
            "durationTicks": 63,
            "midi": 66,
            "name": "F#4",
            "ticks": 189481,
            "time": 213.379291125,
            "velocity": 0.7559055118110236
          },
          {
            "duration": 0.05518012500002101,
            "durationTicks": 49,
            "midi": 62,
            "name": "D4",
            "ticks": 189482,
            "time": 213.38041725,
            "velocity": 0.5748031496062992
          },
          {
            "duration": 0.17454937500002643,
            "durationTicks": 155,
            "midi": 70,
            "name": "A#4",
            "ticks": 189486,
            "time": 213.38492175,
            "velocity": 0.7874015748031497
          },
          {
            "duration": 0.09009000000000356,
            "durationTicks": 80,
            "midi": 66,
            "name": "F#4",
            "ticks": 189600,
            "time": 213.51330000000002,
            "velocity": 0.6614173228346457
          },
          {
            "duration": 0.07882874999998535,
            "durationTicks": 70,
            "midi": 62,
            "name": "D4",
            "ticks": 189603,
            "time": 213.51667837500003,
            "velocity": 0.5748031496062992
          },
          {
            "duration": 0.08108100000001173,
            "durationTicks": 72,
            "midi": 69,
            "name": "A4",
            "ticks": 189612,
            "time": 213.5268135,
            "velocity": 0.8503937007874016
          },
          {
            "duration": 0.15878362499998389,
            "durationTicks": 141,
            "midi": 62,
            "name": "D4",
            "ticks": 189726,
            "time": 213.65519175,
            "velocity": 0.5748031496062992
          },
          {
            "duration": 0.13288274999999317,
            "durationTicks": 118,
            "midi": 66,
            "name": "F#4",
            "ticks": 189726,
            "time": 213.65519175,
            "velocity": 0.7559055118110236
          },
          {
            "duration": 0.12837824999999725,
            "durationTicks": 114,
            "midi": 69,
            "name": "A4",
            "ticks": 189745,
            "time": 213.676588125,
            "velocity": 0.8503937007874016
          },
          {
            "duration": 1.0743232499999635,
            "durationTicks": 954,
            "midi": 53,
            "name": "F3",
            "ticks": 190068,
            "time": 214.04032650000002,
            "velocity": 0.7086614173228346
          },
          {
            "duration": 1.0675664999999697,
            "durationTicks": 948,
            "midi": 58,
            "name": "A#3",
            "ticks": 190068,
            "time": 214.04032650000002,
            "velocity": 0.6692913385826772
          },
          {
            "duration": 1.0675664999999697,
            "durationTicks": 948,
            "midi": 62,
            "name": "D4",
            "ticks": 190068,
            "time": 214.04032650000002,
            "velocity": 0.7086614173228346
          },
          {
            "duration": 0.9684674999999743,
            "durationTicks": 860,
            "midi": 60,
            "name": "C4",
            "ticks": 191026,
            "time": 215.11915425000004,
            "velocity": 0.6535433070866141
          },
          {
            "duration": 0.9572062499999845,
            "durationTicks": 850,
            "midi": 55,
            "name": "G3",
            "ticks": 191030,
            "time": 215.12365875000003,
            "velocity": 0.7086614173228346
          },
          {
            "duration": 0.9504494999999906,
            "durationTicks": 844,
            "midi": 64,
            "name": "E4",
            "ticks": 191030,
            "time": 215.12365875000003,
            "velocity": 0.7086614173228346
          },
          {
            "duration": 1.1824312500000076,
            "durationTicks": 1050,
            "midi": 55,
            "name": "G3",
            "ticks": 191896,
            "time": 216.09888300000003,
            "velocity": 0.6535433070866141
          },
          {
            "duration": 1.1824312500000076,
            "durationTicks": 1050,
            "midi": 60,
            "name": "C4",
            "ticks": 191896,
            "time": 216.09888300000003,
            "velocity": 0.6535433070866141
          },
          {
            "duration": 1.164413249999967,
            "durationTicks": 1034,
            "midi": 63,
            "name": "D#4",
            "ticks": 191902,
            "time": 216.10563975000002,
            "velocity": 0.7086614173228346
          },
          {
            "duration": 0.9695936250000443,
            "durationTicks": 861,
            "midi": 58,
            "name": "A#3",
            "ticks": 192955,
            "time": 217.29144937499998,
            "velocity": 0.7086614173228346
          },
          {
            "duration": 0.9695936250000443,
            "durationTicks": 861,
            "midi": 62,
            "name": "D4",
            "ticks": 192955,
            "time": 217.29144937499998,
            "velocity": 0.7086614173228346
          },
          {
            "duration": 0.9290531249999958,
            "durationTicks": 825,
            "midi": 53,
            "name": "F3",
            "ticks": 192963,
            "time": 217.30045837500003,
            "velocity": 0.5826771653543307
          },
          {
            "duration": 2.210583374999999,
            "durationTicks": 1963,
            "midi": 62,
            "name": "D4",
            "ticks": 193823,
            "time": 218.268925875,
            "velocity": 0.7086614173228346
          },
          {
            "duration": 2.210583374999999,
            "durationTicks": 1963,
            "midi": 58,
            "name": "A#3",
            "ticks": 193823,
            "time": 218.268925875,
            "velocity": 0.6377952755905512
          },
          {
            "duration": 2.210583374999999,
            "durationTicks": 1963,
            "midi": 67,
            "name": "G4",
            "ticks": 193823,
            "time": 218.268925875,
            "velocity": 0.7086614173228346
          },
          {
            "duration": 0.14301787499999818,
            "durationTicks": 127,
            "midi": 55,
            "name": "G3",
            "ticks": 196077,
            "time": 220.807211625,
            "velocity": 0.8818897637795275
          },
          {
            "duration": 0.15653137500001435,
            "durationTicks": 139,
            "midi": 62,
            "name": "D4",
            "ticks": 196079,
            "time": 220.809463875,
            "velocity": 0.7874015748031497
          },
          {
            "duration": 0.15653137500001435,
            "durationTicks": 139,
            "midi": 60,
            "name": "C4",
            "ticks": 196079,
            "time": 220.809463875,
            "velocity": 0.7874015748031497
          },
          {
            "duration": 0.13851337500000227,
            "durationTicks": 123,
            "midi": 55,
            "name": "G3",
            "ticks": 196469,
            "time": 221.248652625,
            "velocity": 0.8818897637795275
          },
          {
            "duration": 0.15653137499998593,
            "durationTicks": 139,
            "midi": 62,
            "name": "D4",
            "ticks": 196473,
            "time": 221.25315712500003,
            "velocity": 0.7874015748031497
          },
          {
            "duration": 0.15653137499998593,
            "durationTicks": 139,
            "midi": 60,
            "name": "C4",
            "ticks": 196473,
            "time": 221.25315712500003,
            "velocity": 0.7874015748031497
          },
          {
            "duration": 0.22297275000002514,
            "durationTicks": 198,
            "midi": 62,
            "name": "D4",
            "ticks": 196782,
            "time": 221.60112974999998,
            "velocity": 0.7874015748031497
          },
          {
            "duration": 0.22297275000002514,
            "durationTicks": 198,
            "midi": 60,
            "name": "C4",
            "ticks": 196782,
            "time": 221.60112974999998,
            "velocity": 0.7874015748031497
          },
          {
            "duration": 0.20495475000004149,
            "durationTicks": 182,
            "midi": 54,
            "name": "F#3",
            "ticks": 196784,
            "time": 221.60338199999998,
            "velocity": 0.6929133858267716
          },
          {
            "duration": 0.0720720000000199,
            "durationTicks": 64,
            "midi": 65,
            "name": "F4",
            "ticks": 203659,
            "time": 229.345491375,
            "velocity": 0.6062992125984252
          },
          {
            "duration": 0.0720720000000199,
            "durationTicks": 64,
            "midi": 69,
            "name": "A4",
            "ticks": 203659,
            "time": 229.345491375,
            "velocity": 0.6929133858267716
          },
          {
            "duration": 0.0720720000000199,
            "durationTicks": 64,
            "midi": 70,
            "name": "A#4",
            "ticks": 203659,
            "time": 229.345491375,
            "velocity": 0.7874015748031497
          },
          {
            "duration": 0.0878377500000056,
            "durationTicks": 78,
            "midi": 74,
            "name": "D5",
            "ticks": 203660,
            "time": 229.3466175,
            "velocity": 0.7874015748031497
          },
          {
            "duration": 0.07545037500000262,
            "durationTicks": 67,
            "midi": 65,
            "name": "F4",
            "ticks": 203999,
            "time": 229.728373875,
            "velocity": 0.6062992125984252
          },
          {
            "duration": 0.07545037500000262,
            "durationTicks": 67,
            "midi": 69,
            "name": "A4",
            "ticks": 203999,
            "time": 229.728373875,
            "velocity": 0.6929133858267716
          },
          {
            "duration": 0.07545037500000262,
            "durationTicks": 67,
            "midi": 70,
            "name": "A#4",
            "ticks": 203999,
            "time": 229.728373875,
            "velocity": 0.6929133858267716
          },
          {
            "duration": 0.0822071249999965,
            "durationTicks": 73,
            "midi": 74,
            "name": "D5",
            "ticks": 204002,
            "time": 229.73175225,
            "velocity": 0.8818897637795275
          },
          {
            "duration": 0.3547293749999767,
            "durationTicks": 315,
            "midi": 76,
            "name": "E5",
            "ticks": 204483,
            "time": 230.27341837500003,
            "velocity": 0.7874015748031497
          },
          {
            "duration": 0.3558555000000183,
            "durationTicks": 316,
            "midi": 67,
            "name": "G4",
            "ticks": 204484,
            "time": 230.2745445,
            "velocity": 0.6062992125984252
          },
          {
            "duration": 0.3558555000000183,
            "durationTicks": 316,
            "midi": 70,
            "name": "A#4",
            "ticks": 204484,
            "time": 230.2745445,
            "velocity": 0.6062992125984252
          },
          {
            "duration": 0.3558555000000183,
            "durationTicks": 316,
            "midi": 72,
            "name": "C5",
            "ticks": 204484,
            "time": 230.2745445,
            "velocity": 0.7874015748031497
          },
          {
            "duration": 0.07319812500000467,
            "durationTicks": 65,
            "midi": 67,
            "name": "G4",
            "ticks": 204847,
            "time": 230.683327875,
            "velocity": 0.6062992125984252
          },
          {
            "duration": 0.07319812500000467,
            "durationTicks": 65,
            "midi": 70,
            "name": "A#4",
            "ticks": 204847,
            "time": 230.683327875,
            "velocity": 0.6929133858267716
          },
          {
            "duration": 0.07319812500000467,
            "durationTicks": 65,
            "midi": 72,
            "name": "C5",
            "ticks": 204847,
            "time": 230.683327875,
            "velocity": 0.6929133858267716
          },
          {
            "duration": 0.07995487500002696,
            "durationTicks": 71,
            "midi": 76,
            "name": "E5",
            "ticks": 204847,
            "time": 230.683327875,
            "velocity": 0.7874015748031497
          },
          {
            "duration": 0.09009000000003198,
            "durationTicks": 80,
            "midi": 65,
            "name": "F4",
            "ticks": 205579,
            "time": 231.507651375,
            "velocity": 0.6062992125984252
          },
          {
            "duration": 0.09009000000003198,
            "durationTicks": 80,
            "midi": 69,
            "name": "A4",
            "ticks": 205579,
            "time": 231.507651375,
            "velocity": 0.6929133858267716
          },
          {
            "duration": 0.09009000000003198,
            "durationTicks": 80,
            "midi": 70,
            "name": "A#4",
            "ticks": 205579,
            "time": 231.507651375,
            "velocity": 0.6929133858267716
          },
          {
            "duration": 0.077702625000029,
            "durationTicks": 69,
            "midi": 74,
            "name": "D5",
            "ticks": 205581,
            "time": 231.509903625,
            "velocity": 0.7874015748031497
          },
          {
            "duration": 0.32995462499999917,
            "durationTicks": 293,
            "midi": 67,
            "name": "G4",
            "ticks": 205922,
            "time": 231.89391225,
            "velocity": 0.6062992125984252
          },
          {
            "duration": 0.32995462499999917,
            "durationTicks": 293,
            "midi": 70,
            "name": "A#4",
            "ticks": 205922,
            "time": 231.89391225,
            "velocity": 0.6929133858267716
          },
          {
            "duration": 0.32995462499999917,
            "durationTicks": 293,
            "midi": 72,
            "name": "C5",
            "ticks": 205922,
            "time": 231.89391225,
            "velocity": 0.7874015748031497
          },
          {
            "duration": 0.3569816250000031,
            "durationTicks": 317,
            "midi": 76,
            "name": "E5",
            "ticks": 205923,
            "time": 231.895038375,
            "velocity": 0.7874015748031497
          },
          {
            "duration": 0.12950437500003886,
            "durationTicks": 115,
            "midi": 65,
            "name": "F4",
            "ticks": 206290,
            "time": 232.30832625,
            "velocity": 0.6062992125984252
          },
          {
            "duration": 0.12950437500003886,
            "durationTicks": 115,
            "midi": 69,
            "name": "A4",
            "ticks": 206290,
            "time": 232.30832625,
            "velocity": 0.6929133858267716
          },
          {
            "duration": 0.12950437500003886,
            "durationTicks": 115,
            "midi": 70,
            "name": "A#4",
            "ticks": 206290,
            "time": 232.30832625,
            "velocity": 0.7874015748031497
          },
          {
            "duration": 0.10585574999998926,
            "durationTicks": 94,
            "midi": 74,
            "name": "D5",
            "ticks": 206290,
            "time": 232.30832625,
            "velocity": 0.7874015748031497
          },
          {
            "duration": 0.32207175000002053,
            "durationTicks": 286,
            "midi": 60,
            "name": "C4",
            "ticks": 207507,
            "time": 233.678820375,
            "velocity": 0.6062992125984252
          },
          {
            "duration": 0.33783750000000623,
            "durationTicks": 300,
            "midi": 63,
            "name": "D#4",
            "ticks": 207507,
            "time": 233.678820375,
            "velocity": 0.6929133858267716
          },
          {
            "duration": 0.1587836250000123,
            "durationTicks": 141,
            "midi": 60,
            "name": "C4",
            "ticks": 207845,
            "time": 234.059450625,
            "velocity": 0.7007874015748031
          },
          {
            "duration": 0.13626112500003273,
            "durationTicks": 121,
            "midi": 55,
            "name": "G3",
            "ticks": 207859,
            "time": 234.075216375,
            "velocity": 0.6062992125984252
          },
          {
            "duration": 0.08445937499999445,
            "durationTicks": 75,
            "midi": 58,
            "name": "A#3",
            "ticks": 208033,
            "time": 234.27116212500002,
            "velocity": 0.7007874015748031
          },
          {
            "duration": 0.07657649999998739,
            "durationTicks": 68,
            "midi": 55,
            "name": "G3",
            "ticks": 208115,
            "time": 234.36350437500002,
            "velocity": 0.7007874015748031
          },
          {
            "duration": 0.09121612499998832,
            "durationTicks": 81,
            "midi": 58,
            "name": "A#3",
            "ticks": 208198,
            "time": 234.45697275,
            "velocity": 0.6062992125984252
          },
          {
            "duration": 0.06644137500003922,
            "durationTicks": 59,
            "midi": 60,
            "name": "C4",
            "ticks": 208259,
            "time": 234.525666375,
            "velocity": 0.7480314960629921
          },
          {
            "duration": 0.2590087500000209,
            "durationTicks": 230,
            "midi": 63,
            "name": "D#4",
            "ticks": 208320,
            "time": 234.59436,
            "velocity": 0.6929133858267716
          },
          {
            "duration": 0.25450425000002497,
            "durationTicks": 226,
            "midi": 60,
            "name": "C4",
            "ticks": 208324,
            "time": 234.5988645,
            "velocity": 0.6062992125984252
          },
          {
            "duration": 0.1036034999999913,
            "durationTicks": 92,
            "midi": 63,
            "name": "D#4",
            "ticks": 208588,
            "time": 234.8961615,
            "velocity": 0.6062992125984252
          },
          {
            "duration": 0.1036034999999913,
            "durationTicks": 92,
            "midi": 67,
            "name": "G4",
            "ticks": 208588,
            "time": 234.8961615,
            "velocity": 0.7007874015748031
          },
          {
            "duration": 0.6768011250000256,
            "durationTicks": 601,
            "midi": 57,
            "name": "A3",
            "ticks": 208703,
            "time": 235.025665875,
            "velocity": 0.6062992125984252
          },
          {
            "duration": 0.6509002499999781,
            "durationTicks": 578,
            "midi": 60,
            "name": "C4",
            "ticks": 208710,
            "time": 235.03354875000002,
            "velocity": 0.7007874015748031
          },
          {
            "duration": 0.3108105000000023,
            "durationTicks": 276,
            "midi": 57,
            "name": "A3",
            "ticks": 209402,
            "time": 235.81282725,
            "velocity": 0.6062992125984252
          },
          {
            "duration": 0.30292762499999526,
            "durationTicks": 269,
            "midi": 62,
            "name": "D4",
            "ticks": 209407,
            "time": 235.818457875,
            "velocity": 0.7007874015748031
          },
          {
            "duration": 0.17342325000001324,
            "durationTicks": 154,
            "midi": 61,
            "name": "C#4",
            "ticks": 209756,
            "time": 236.2114755,
            "velocity": 0.7007874015748031
          },
          {
            "duration": 0.12387375000002976,
            "durationTicks": 110,
            "midi": 55,
            "name": "G3",
            "ticks": 209766,
            "time": 236.22273675,
            "velocity": 0.6141732283464567
          },
          {
            "duration": 0.08445937499999445,
            "durationTicks": 75,
            "midi": 58,
            "name": "A#3",
            "ticks": 209937,
            "time": 236.415304125,
            "velocity": 0.7007874015748031
          },
          {
            "duration": 0.07657650000001581,
            "durationTicks": 68,
            "midi": 55,
            "name": "G3",
            "ticks": 210029,
            "time": 236.518907625,
            "velocity": 0.7007874015748031
          },
          {
            "duration": 0.09121612499998832,
            "durationTicks": 81,
            "midi": 58,
            "name": "A#3",
            "ticks": 210112,
            "time": 236.612376,
            "velocity": 0.6062992125984252
          },
          {
            "duration": 0.06644137500003922,
            "durationTicks": 59,
            "midi": 62,
            "name": "D4",
            "ticks": 210173,
            "time": 236.681069625,
            "velocity": 0.7480314960629921
          },
          {
            "duration": 0.36373837500002537,
            "durationTicks": 323,
            "midi": 65,
            "name": "F4",
            "ticks": 210237,
            "time": 236.75314162499998,
            "velocity": 0.7007874015748031
          },
          {
            "duration": 0.3659906249999949,
            "durationTicks": 325,
            "midi": 62,
            "name": "D4",
            "ticks": 210242,
            "time": 236.75877225,
            "velocity": 0.6141732283464567
          },
          {
            "duration": 0.6745488749999708,
            "durationTicks": 599,
            "midi": 59,
            "name": "B3",
            "ticks": 210650,
            "time": 237.21823125000003,
            "velocity": 0.7007874015748031
          },
          {
            "duration": 0.6745488749999708,
            "durationTicks": 599,
            "midi": 56,
            "name": "G#3",
            "ticks": 210658,
            "time": 237.22724025000002,
            "velocity": 0.6062992125984252
          },
          {
            "duration": 0.1317566250000084,
            "durationTicks": 117,
            "midi": 63,
            "name": "D#4",
            "ticks": 211361,
            "time": 238.018906125,
            "velocity": 0.8818897637795275
          },
          {
            "duration": 0.12387375000002976,
            "durationTicks": 110,
            "midi": 60,
            "name": "C4",
            "ticks": 211364,
            "time": 238.02228449999998,
            "velocity": 0.6929133858267716
          },
          {
            "duration": 0.08445937499999445,
            "durationTicks": 75,
            "midi": 60,
            "name": "C4",
            "ticks": 211582,
            "time": 238.26777975000002,
            "velocity": 0.7874015748031497
          },
          {
            "duration": 0.0653152499999976,
            "durationTicks": 58,
            "midi": 55,
            "name": "G3",
            "ticks": 211585,
            "time": 238.271158125,
            "velocity": 0.6929133858267716
          },
          {
            "duration": 0.13963950000001546,
            "durationTicks": 124,
            "midi": 60,
            "name": "C4",
            "ticks": 211702,
            "time": 238.40291475,
            "velocity": 0.6929133858267716
          },
          {
            "duration": 0.13175662500003682,
            "durationTicks": 117,
            "midi": 63,
            "name": "D#4",
            "ticks": 211709,
            "time": 238.410797625,
            "velocity": 0.7874015748031497
          },
          {
            "duration": 0.12950437499998202,
            "durationTicks": 115,
            "midi": 60,
            "name": "C4",
            "ticks": 211948,
            "time": 238.6799415,
            "velocity": 0.7874015748031497
          },
          {
            "duration": 0.0878377500000056,
            "durationTicks": 78,
            "midi": 55,
            "name": "G3",
            "ticks": 211949,
            "time": 238.681067625,
            "velocity": 0.6929133858267716
          },
          {
            "duration": 0.11936925000000542,
            "durationTicks": 106,
            "midi": 63,
            "name": "D#4",
            "ticks": 212183,
            "time": 238.944580875,
            "velocity": 0.6929133858267716
          },
          {
            "duration": 0.10585574999998926,
            "durationTicks": 94,
            "midi": 67,
            "name": "G4",
            "ticks": 212184,
            "time": 238.94570700000003,
            "velocity": 0.7874015748031497
          },
          {
            "duration": 0.10472962500000449,
            "durationTicks": 93,
            "midi": 63,
            "name": "D#4",
            "ticks": 212417,
            "time": 239.208094125,
            "velocity": 0.6929133858267716
          },
          {
            "duration": 0.12049537499999019,
            "durationTicks": 107,
            "midi": 67,
            "name": "G4",
            "ticks": 212418,
            "time": 239.20922025000002,
            "velocity": 0.7874015748031497
          },
          {
            "duration": 0.20495474999998464,
            "durationTicks": 182,
            "midi": 66,
            "name": "F#4",
            "ticks": 212646,
            "time": 239.46597675,
            "velocity": 0.6929133858267716
          },
          {
            "duration": 0.1689187499999889,
            "durationTicks": 150,
            "midi": 62,
            "name": "D4",
            "ticks": 212651,
            "time": 239.47160737500002,
            "velocity": 0.6929133858267716
          },
          {
            "duration": 0.0878377500000056,
            "durationTicks": 78,
            "midi": 57,
            "name": "A3",
            "ticks": 212874,
            "time": 239.72273325,
            "velocity": 0.6062992125984252
          },
          {
            "duration": 0.09121612500001675,
            "durationTicks": 81,
            "midi": 62,
            "name": "D4",
            "ticks": 212880,
            "time": 239.72949,
            "velocity": 0.6929133858267716
          },
          {
            "duration": 1.427926499999984,
            "durationTicks": 1268,
            "midi": 58,
            "name": "A#3",
            "ticks": 213016,
            "time": 239.88264300000003,
            "velocity": 0.6929133858267716
          },
          {
            "duration": 1.3648635000000127,
            "durationTicks": 1212,
            "midi": 62,
            "name": "D4",
            "ticks": 213021,
            "time": 239.888273625,
            "velocity": 0.6929133858267716
          },
          {
            "duration": 0.44031487499998434,
            "durationTicks": 391,
            "midi": 62,
            "name": "D4",
            "ticks": 214338,
            "time": 241.37138025000002,
            "velocity": 0.7874015748031497
          },
          {
            "duration": 0.47297249999999735,
            "durationTicks": 420,
            "midi": 55,
            "name": "G3",
            "ticks": 214340,
            "time": 241.3736325,
            "velocity": 0.6929133858267716
          },
          {
            "duration": 0.47297249999999735,
            "durationTicks": 420,
            "midi": 58,
            "name": "A#3",
            "ticks": 214340,
            "time": 241.3736325,
            "velocity": 0.6929133858267716
          },
          {
            "duration": 0.6452696249999974,
            "durationTicks": 573,
            "midi": 69,
            "name": "A4",
            "ticks": 214807,
            "time": 241.899532875,
            "velocity": 0.7874015748031497
          },
          {
            "duration": 0.634008375000036,
            "durationTicks": 563,
            "midi": 58,
            "name": "A#3",
            "ticks": 214812,
            "time": 241.9051635,
            "velocity": 0.6929133858267716
          },
          {
            "duration": 0.634008375000036,
            "durationTicks": 563,
            "midi": 62,
            "name": "D4",
            "ticks": 214812,
            "time": 241.9051635,
            "velocity": 0.6929133858267716
          },
          {
            "duration": 4.847968124999994,
            "durationTicks": 4305,
            "midi": 58,
            "name": "A#3",
            "ticks": 215528,
            "time": 242.711469,
            "velocity": 0.6929133858267716
          },
          {
            "duration": 4.847968124999994,
            "durationTicks": 4305,
            "midi": 66,
            "name": "F#4",
            "ticks": 215528,
            "time": 242.711469,
            "velocity": 0.6929133858267716
          },
          {
            "duration": 4.847968124999994,
            "durationTicks": 4305,
            "midi": 62,
            "name": "D4",
            "ticks": 215528,
            "time": 242.711469,
            "velocity": 0.6929133858267716
          }
        ]
      },
      {
        "channel": 0,
        "controlChanges": {
          "0": [
            {
              "number": 0,
              "ticks": 570,
              "time": 0.64189125,
              "value": 0
            },
            {
              "number": 0,
              "ticks": 590,
              "time": 0.66441375,
              "value": 0
            }
          ],
          "32": [
            {
              "number": 32,
              "ticks": 580,
              "time": 0.6531525,
              "value": 0
            },
            {
              "number": 32,
              "ticks": 590,
              "time": 0.66441375,
              "value": 0
            }
          ]
        },
        "pitchBends": [],
        "instrument": {
          "family": "piano",
          "number": 0,
          "name": "acoustic grand piano"
        },
        "name": "",
        "notes": []
      },
      {
        "channel": 10,
        "controlChanges": {
          "6": [
            {
              "number": 6,
              "ticks": 640,
              "time": 0.72072,
              "value": 0.09448818897637795
            }
          ],
          "7": [
            {
              "number": 7,
              "ticks": 600,
              "time": 0.675675,
              "value": 0.6692913385826772
            }
          ],
          "10": [
            {
              "number": 10,
              "ticks": 600,
              "time": 0.675675,
              "value": 0.5511811023622047
            }
          ],
          "11": [
            {
              "number": 11,
              "ticks": 4755,
              "time": 5.354724375,
              "value": 1
            },
            {
              "number": 11,
              "ticks": 4770,
              "time": 5.371616250000001,
              "value": 1
            },
            {
              "number": 11,
              "ticks": 4785,
              "time": 5.388508125,
              "value": 1
            },
            {
              "number": 11,
              "ticks": 4800,
              "time": 5.4054,
              "value": 0.984251968503937
            },
            {
              "number": 11,
              "ticks": 4815,
              "time": 5.422291875,
              "value": 0.952755905511811
            },
            {
              "number": 11,
              "ticks": 4830,
              "time": 5.43918375,
              "value": 0.937007874015748
            },
            {
              "number": 11,
              "ticks": 4845,
              "time": 5.456075625,
              "value": 0.8976377952755905
            },
            {
              "number": 11,
              "ticks": 4860,
              "time": 5.4729675,
              "value": 0.8818897637795275
            },
            {
              "number": 11,
              "ticks": 4875,
              "time": 5.489859375,
              "value": 0.8582677165354331
            },
            {
              "number": 11,
              "ticks": 4890,
              "time": 5.506751250000001,
              "value": 0.8582677165354331
            },
            {
              "number": 11,
              "ticks": 4905,
              "time": 5.523643125,
              "value": 0.8503937007874016
            },
            {
              "number": 11,
              "ticks": 4920,
              "time": 5.540535,
              "value": 0.8346456692913385
            },
            {
              "number": 11,
              "ticks": 4935,
              "time": 5.557426875,
              "value": 0.8110236220472441
            },
            {
              "number": 11,
              "ticks": 4950,
              "time": 5.57431875,
              "value": 0.8110236220472441
            },
            {
              "number": 11,
              "ticks": 4965,
              "time": 5.591210625,
              "value": 0.7952755905511811
            },
            {
              "number": 11,
              "ticks": 4980,
              "time": 5.6081025,
              "value": 0.7952755905511811
            },
            {
              "number": 11,
              "ticks": 4995,
              "time": 5.624994375,
              "value": 0.7795275590551181
            },
            {
              "number": 11,
              "ticks": 5010,
              "time": 5.641886250000001,
              "value": 0.7795275590551181
            },
            {
              "number": 11,
              "ticks": 5014,
              "time": 5.64639075,
              "value": 0.7795275590551181
            },
            {
              "number": 11,
              "ticks": 5040,
              "time": 5.67567,
              "value": 0.7559055118110236
            },
            {
              "number": 11,
              "ticks": 5055,
              "time": 5.692561875,
              "value": 0.7559055118110236
            },
            {
              "number": 11,
              "ticks": 5070,
              "time": 5.70945375,
              "value": 0.7637795275590551
            },
            {
              "number": 11,
              "ticks": 5085,
              "time": 5.726345625,
              "value": 0.7795275590551181
            },
            {
              "number": 11,
              "ticks": 5100,
              "time": 5.7432375,
              "value": 0.7874015748031497
            },
            {
              "number": 11,
              "ticks": 5115,
              "time": 5.760129375,
              "value": 0.7874015748031497
            },
            {
              "number": 11,
              "ticks": 5130,
              "time": 5.777021250000001,
              "value": 0.7952755905511811
            },
            {
              "number": 11,
              "ticks": 5145,
              "time": 5.793913125,
              "value": 0.8110236220472441
            },
            {
              "number": 11,
              "ticks": 5160,
              "time": 5.810805,
              "value": 0.8267716535433071
            },
            {
              "number": 11,
              "ticks": 5175,
              "time": 5.827696875,
              "value": 0.8346456692913385
            },
            {
              "number": 11,
              "ticks": 5190,
              "time": 5.84458875,
              "value": 0.8346456692913385
            },
            {
              "number": 11,
              "ticks": 5205,
              "time": 5.861480625,
              "value": 0.84251968503937
            },
            {
              "number": 11,
              "ticks": 5220,
              "time": 5.8783725,
              "value": 0.8503937007874016
            },
            {
              "number": 11,
              "ticks": 5235,
              "time": 5.895264375,
              "value": 0.8503937007874016
            },
            {
              "number": 11,
              "ticks": 5250,
              "time": 5.912156250000001,
              "value": 0.8661417322834646
            },
            {
              "number": 11,
              "ticks": 5265,
              "time": 5.9290481250000004,
              "value": 0.8740157480314961
            },
            {
              "number": 11,
              "ticks": 5280,
              "time": 5.94594,
              "value": 0.8818897637795275
            },
            {
              "number": 11,
              "ticks": 5295,
              "time": 5.962831875,
              "value": 0.8976377952755905
            },
            {
              "number": 11,
              "ticks": 5310,
              "time": 5.97972375,
              "value": 0.9133858267716536
            },
            {
              "number": 11,
              "ticks": 5325,
              "time": 5.9966156250000004,
              "value": 0.9212598425196851
            },
            {
              "number": 11,
              "ticks": 5340,
              "time": 6.0135075,
              "value": 0.9291338582677166
            },
            {
              "number": 11,
              "ticks": 5355,
              "time": 6.030399375,
              "value": 0.9291338582677166
            },
            {
              "number": 11,
              "ticks": 5370,
              "time": 6.047291250000001,
              "value": 0.937007874015748
            },
            {
              "number": 11,
              "ticks": 5385,
              "time": 6.0641831250000005,
              "value": 0.952755905511811
            },
            {
              "number": 11,
              "ticks": 5400,
              "time": 6.081075,
              "value": 0.9606299212598425
            },
            {
              "number": 11,
              "ticks": 5415,
              "time": 6.097966875,
              "value": 0.968503937007874
            },
            {
              "number": 11,
              "ticks": 5430,
              "time": 6.11485875,
              "value": 1
            },
            {
              "number": 11,
              "ticks": 5445,
              "time": 6.1317506250000005,
              "value": 1
            },
            {
              "number": 11,
              "ticks": 5460,
              "time": 6.1486425,
              "value": 1
            },
            {
              "number": 11,
              "ticks": 5475,
              "time": 6.165534375,
              "value": 1
            },
            {
              "number": 11,
              "ticks": 5490,
              "time": 6.182426250000001,
              "value": 1
            },
            {
              "number": 11,
              "ticks": 5505,
              "time": 6.1993181250000005,
              "value": 1
            },
            {
              "number": 11,
              "ticks": 5520,
              "time": 6.21621,
              "value": 1
            },
            {
              "number": 11,
              "ticks": 5569,
              "time": 6.271390125,
              "value": 1
            },
            {
              "number": 11,
              "ticks": 5570,
              "time": 6.27251625,
              "value": 1
            },
            {
              "number": 11,
              "ticks": 6668,
              "time": 7.509001500000001,
              "value": 1
            },
            {
              "number": 11,
              "ticks": 6683,
              "time": 7.525893375000001,
              "value": 1
            },
            {
              "number": 11,
              "ticks": 6698,
              "time": 7.5427852500000006,
              "value": 1
            },
            {
              "number": 11,
              "ticks": 6713,
              "time": 7.559677125,
              "value": 0.984251968503937
            },
            {
              "number": 11,
              "ticks": 6728,
              "time": 7.576569000000001,
              "value": 0.952755905511811
            },
            {
              "number": 11,
              "ticks": 6743,
              "time": 7.593460875000001,
              "value": 0.937007874015748
            },
            {
              "number": 11,
              "ticks": 6758,
              "time": 7.6103527500000006,
              "value": 0.8976377952755905
            },
            {
              "number": 11,
              "ticks": 6773,
              "time": 7.627244625,
              "value": 0.8818897637795275
            },
            {
              "number": 11,
              "ticks": 6788,
              "time": 7.644136500000001,
              "value": 0.8582677165354331
            },
            {
              "number": 11,
              "ticks": 6803,
              "time": 7.661028375000001,
              "value": 0.8582677165354331
            },
            {
              "number": 11,
              "ticks": 6818,
              "time": 7.677920250000001,
              "value": 0.8503937007874016
            },
            {
              "number": 11,
              "ticks": 6833,
              "time": 7.694812125,
              "value": 0.8346456692913385
            },
            {
              "number": 11,
              "ticks": 6848,
              "time": 7.711704000000001,
              "value": 0.8110236220472441
            },
            {
              "number": 11,
              "ticks": 6863,
              "time": 7.728595875000001,
              "value": 0.8110236220472441
            },
            {
              "number": 11,
              "ticks": 6878,
              "time": 7.745487750000001,
              "value": 0.7952755905511811
            },
            {
              "number": 11,
              "ticks": 6893,
              "time": 7.762379625,
              "value": 0.7952755905511811
            },
            {
              "number": 11,
              "ticks": 6908,
              "time": 7.779271500000001,
              "value": 0.7795275590551181
            },
            {
              "number": 11,
              "ticks": 6923,
              "time": 7.796163375000001,
              "value": 0.7795275590551181
            },
            {
              "number": 11,
              "ticks": 6927,
              "time": 7.800667875,
              "value": 0.7795275590551181
            },
            {
              "number": 11,
              "ticks": 6953,
              "time": 7.829947125,
              "value": 0.7559055118110236
            },
            {
              "number": 11,
              "ticks": 6968,
              "time": 7.846839000000001,
              "value": 0.7559055118110236
            },
            {
              "number": 11,
              "ticks": 6983,
              "time": 7.863730875000001,
              "value": 0.7637795275590551
            },
            {
              "number": 11,
              "ticks": 6998,
              "time": 7.880622750000001,
              "value": 0.7795275590551181
            },
            {
              "number": 11,
              "ticks": 7013,
              "time": 7.897514625,
              "value": 0.7874015748031497
            },
            {
              "number": 11,
              "ticks": 7028,
              "time": 7.914406500000001,
              "value": 0.7874015748031497
            },
            {
              "number": 11,
              "ticks": 7043,
              "time": 7.931298375000001,
              "value": 0.7952755905511811
            },
            {
              "number": 11,
              "ticks": 7058,
              "time": 7.948190250000001,
              "value": 0.8110236220472441
            },
            {
              "number": 11,
              "ticks": 7073,
              "time": 7.965082125,
              "value": 0.8267716535433071
            },
            {
              "number": 11,
              "ticks": 7088,
              "time": 7.981974000000001,
              "value": 0.8346456692913385
            },
            {
              "number": 11,
              "ticks": 7103,
              "time": 7.998865875000001,
              "value": 0.8346456692913385
            },
            {
              "number": 11,
              "ticks": 7118,
              "time": 8.01575775,
              "value": 0.84251968503937
            },
            {
              "number": 11,
              "ticks": 7133,
              "time": 8.032649625000001,
              "value": 0.8503937007874016
            },
            {
              "number": 11,
              "ticks": 7148,
              "time": 8.0495415,
              "value": 0.8503937007874016
            },
            {
              "number": 11,
              "ticks": 7163,
              "time": 8.066433375,
              "value": 0.8661417322834646
            },
            {
              "number": 11,
              "ticks": 7178,
              "time": 8.083325250000001,
              "value": 0.8740157480314961
            },
            {
              "number": 11,
              "ticks": 7193,
              "time": 8.100217125,
              "value": 0.8818897637795275
            },
            {
              "number": 11,
              "ticks": 7208,
              "time": 8.117109000000001,
              "value": 0.8976377952755905
            },
            {
              "number": 11,
              "ticks": 7223,
              "time": 8.134000875,
              "value": 0.9133858267716536
            },
            {
              "number": 11,
              "ticks": 7238,
              "time": 8.15089275,
              "value": 0.9212598425196851
            },
            {
              "number": 11,
              "ticks": 7253,
              "time": 8.167784625000001,
              "value": 0.9291338582677166
            },
            {
              "number": 11,
              "ticks": 7268,
              "time": 8.1846765,
              "value": 0.9291338582677166
            },
            {
              "number": 11,
              "ticks": 7283,
              "time": 8.201568375,
              "value": 0.937007874015748
            },
            {
              "number": 11,
              "ticks": 7298,
              "time": 8.218460250000001,
              "value": 0.952755905511811
            },
            {
              "number": 11,
              "ticks": 7313,
              "time": 8.235352125,
              "value": 0.9606299212598425
            },
            {
              "number": 11,
              "ticks": 7328,
              "time": 8.252244000000001,
              "value": 0.968503937007874
            },
            {
              "number": 11,
              "ticks": 7343,
              "time": 8.269135875,
              "value": 1
            },
            {
              "number": 11,
              "ticks": 7358,
              "time": 8.28602775,
              "value": 1
            },
            {
              "number": 11,
              "ticks": 7373,
              "time": 8.302919625000001,
              "value": 1
            },
            {
              "number": 11,
              "ticks": 7388,
              "time": 8.3198115,
              "value": 1
            },
            {
              "number": 11,
              "ticks": 7403,
              "time": 8.336703375,
              "value": 1
            },
            {
              "number": 11,
              "ticks": 7418,
              "time": 8.353595250000001,
              "value": 1
            },
            {
              "number": 11,
              "ticks": 7433,
              "time": 8.370487125,
              "value": 1
            },
            {
              "number": 11,
              "ticks": 7482,
              "time": 8.42566725,
              "value": 1
            },
            {
              "number": 11,
              "ticks": 7483,
              "time": 8.426793375,
              "value": 1
            },
            {
              "number": 11,
              "ticks": 9580,
              "time": 10.7882775,
              "value": 1
            },
            {
              "number": 11,
              "ticks": 9595,
              "time": 10.805169375,
              "value": 0.9921259842519685
            },
            {
              "number": 11,
              "ticks": 9610,
              "time": 10.822061249999999,
              "value": 0.984251968503937
            },
            {
              "number": 11,
              "ticks": 9625,
              "time": 10.838953125,
              "value": 0.968503937007874
            },
            {
              "number": 11,
              "ticks": 9640,
              "time": 10.855845,
              "value": 0.9606299212598425
            },
            {
              "number": 11,
              "ticks": 9655,
              "time": 10.872736875,
              "value": 0.952755905511811
            },
            {
              "number": 11,
              "ticks": 9670,
              "time": 10.88962875,
              "value": 0.937007874015748
            },
            {
              "number": 11,
              "ticks": 9685,
              "time": 10.906520625,
              "value": 0.9291338582677166
            },
            {
              "number": 11,
              "ticks": 9700,
              "time": 10.9234125,
              "value": 0.9133858267716536
            },
            {
              "number": 11,
              "ticks": 9715,
              "time": 10.940304375,
              "value": 0.905511811023622
            },
            {
              "number": 11,
              "ticks": 9730,
              "time": 10.957196249999999,
              "value": 0.8976377952755905
            },
            {
              "number": 11,
              "ticks": 9745,
              "time": 10.974088125,
              "value": 0.8818897637795275
            },
            {
              "number": 11,
              "ticks": 9760,
              "time": 10.99098,
              "value": 0.8740157480314961
            },
            {
              "number": 11,
              "ticks": 9775,
              "time": 11.007871875,
              "value": 0.8582677165354331
            },
            {
              "number": 11,
              "ticks": 9790,
              "time": 11.02476375,
              "value": 0.8503937007874016
            },
            {
              "number": 11,
              "ticks": 9805,
              "time": 11.041655625,
              "value": 0.84251968503937
            },
            {
              "number": 11,
              "ticks": 9820,
              "time": 11.0585475,
              "value": 0.8267716535433071
            },
            {
              "number": 11,
              "ticks": 9835,
              "time": 11.075439375,
              "value": 0.8188976377952756
            },
            {
              "number": 11,
              "ticks": 9850,
              "time": 11.092331249999999,
              "value": 0.8031496062992126
            },
            {
              "number": 11,
              "ticks": 9865,
              "time": 11.109223125,
              "value": 0.7952755905511811
            },
            {
              "number": 11,
              "ticks": 9880,
              "time": 11.126115,
              "value": 0.7874015748031497
            },
            {
              "number": 11,
              "ticks": 9895,
              "time": 11.143006875,
              "value": 0.7716535433070866
            },
            {
              "number": 11,
              "ticks": 9910,
              "time": 11.15989875,
              "value": 0.7637795275590551
            },
            {
              "number": 11,
              "ticks": 9925,
              "time": 11.176790625,
              "value": 0.7559055118110236
            },
            {
              "number": 11,
              "ticks": 9940,
              "time": 11.1936825,
              "value": 0.7401574803149606
            },
            {
              "number": 11,
              "ticks": 9955,
              "time": 11.210574375,
              "value": 0.7322834645669292
            },
            {
              "number": 11,
              "ticks": 9970,
              "time": 11.227466249999999,
              "value": 0.7165354330708661
            },
            {
              "number": 11,
              "ticks": 9979,
              "time": 11.237601375,
              "value": 0.7086614173228346
            },
            {
              "number": 11,
              "ticks": 10060,
              "time": 11.3288175,
              "value": 0.7086614173228346
            },
            {
              "number": 11,
              "ticks": 10079,
              "time": 11.350213875,
              "value": 0.7165354330708661
            },
            {
              "number": 11,
              "ticks": 10099,
              "time": 11.372736375,
              "value": 0.7244094488188977
            },
            {
              "number": 11,
              "ticks": 10119,
              "time": 11.395258875000001,
              "value": 0.7322834645669292
            },
            {
              "number": 11,
              "ticks": 10139,
              "time": 11.417781374999999,
              "value": 0.7401574803149606
            },
            {
              "number": 11,
              "ticks": 10159,
              "time": 11.440303875,
              "value": 0.7480314960629921
            },
            {
              "number": 11,
              "ticks": 10179,
              "time": 11.462826375,
              "value": 0.7559055118110236
            },
            {
              "number": 11,
              "ticks": 10199,
              "time": 11.485348875,
              "value": 0.7637795275590551
            },
            {
              "number": 11,
              "ticks": 10219,
              "time": 11.507871375,
              "value": 0.7716535433070866
            },
            {
              "number": 11,
              "ticks": 10239,
              "time": 11.530393875000001,
              "value": 0.7795275590551181
            },
            {
              "number": 11,
              "ticks": 10259,
              "time": 11.552916374999999,
              "value": 0.7874015748031497
            },
            {
              "number": 11,
              "ticks": 10279,
              "time": 11.575438875,
              "value": 0.7952755905511811
            },
            {
              "number": 11,
              "ticks": 10299,
              "time": 11.597961375,
              "value": 0.8031496062992126
            },
            {
              "number": 11,
              "ticks": 10319,
              "time": 11.620483875,
              "value": 0.8110236220472441
            },
            {
              "number": 11,
              "ticks": 10339,
              "time": 11.643006375,
              "value": 0.8188976377952756
            },
            {
              "number": 11,
              "ticks": 10359,
              "time": 11.665528875000001,
              "value": 0.8267716535433071
            },
            {
              "number": 11,
              "ticks": 10379,
              "time": 11.688051374999999,
              "value": 0.8346456692913385
            },
            {
              "number": 11,
              "ticks": 10399,
              "time": 11.710573875,
              "value": 0.84251968503937
            },
            {
              "number": 11,
              "ticks": 10419,
              "time": 11.733096375,
              "value": 0.8503937007874016
            },
            {
              "number": 11,
              "ticks": 10439,
              "time": 11.755618875,
              "value": 0.8582677165354331
            },
            {
              "number": 11,
              "ticks": 10459,
              "time": 11.778141375,
              "value": 0.8661417322834646
            },
            {
              "number": 11,
              "ticks": 10479,
              "time": 11.800663875000001,
              "value": 0.8740157480314961
            },
            {
              "number": 11,
              "ticks": 10499,
              "time": 11.823186374999999,
              "value": 0.8818897637795275
            },
            {
              "number": 11,
              "ticks": 10519,
              "time": 11.845708875,
              "value": 0.889763779527559
            },
            {
              "number": 11,
              "ticks": 10539,
              "time": 11.868231375,
              "value": 0.8976377952755905
            },
            {
              "number": 11,
              "ticks": 10559,
              "time": 11.890753875,
              "value": 0.905511811023622
            },
            {
              "number": 11,
              "ticks": 10579,
              "time": 11.913276375,
              "value": 0.9133858267716536
            },
            {
              "number": 11,
              "ticks": 10599,
              "time": 11.935798875000001,
              "value": 0.9212598425196851
            },
            {
              "number": 11,
              "ticks": 10619,
              "time": 11.958321374999999,
              "value": 0.9291338582677166
            },
            {
              "number": 11,
              "ticks": 10639,
              "time": 11.980843875,
              "value": 0.937007874015748
            },
            {
              "number": 11,
              "ticks": 10659,
              "time": 12.003366375,
              "value": 0.9448818897637795
            },
            {
              "number": 11,
              "ticks": 10679,
              "time": 12.025888875,
              "value": 0.952755905511811
            },
            {
              "number": 11,
              "ticks": 10699,
              "time": 12.048411375,
              "value": 0.9606299212598425
            },
            {
              "number": 11,
              "ticks": 10719,
              "time": 12.070933875000001,
              "value": 0.968503937007874
            },
            {
              "number": 11,
              "ticks": 10739,
              "time": 12.093456374999999,
              "value": 0.9763779527559056
            },
            {
              "number": 11,
              "ticks": 10759,
              "time": 12.115978875,
              "value": 0.984251968503937
            },
            {
              "number": 11,
              "ticks": 10779,
              "time": 12.138501375,
              "value": 0.9921259842519685
            },
            {
              "number": 11,
              "ticks": 10799,
              "time": 12.161023875,
              "value": 1
            },
            {
              "number": 11,
              "ticks": 12430,
              "time": 13.99773375,
              "value": 1
            },
            {
              "number": 11,
              "ticks": 12445,
              "time": 14.014625625,
              "value": 1
            },
            {
              "number": 11,
              "ticks": 12460,
              "time": 14.0315175,
              "value": 1
            },
            {
              "number": 11,
              "ticks": 12475,
              "time": 14.048409375,
              "value": 0.984251968503937
            },
            {
              "number": 11,
              "ticks": 12490,
              "time": 14.06530125,
              "value": 0.952755905511811
            },
            {
              "number": 11,
              "ticks": 12505,
              "time": 14.082193125,
              "value": 0.937007874015748
            },
            {
              "number": 11,
              "ticks": 12520,
              "time": 14.099085,
              "value": 0.8976377952755905
            },
            {
              "number": 11,
              "ticks": 12535,
              "time": 14.115976875,
              "value": 0.8818897637795275
            },
            {
              "number": 11,
              "ticks": 12550,
              "time": 14.13286875,
              "value": 0.8582677165354331
            },
            {
              "number": 11,
              "ticks": 12565,
              "time": 14.149760625,
              "value": 0.8582677165354331
            },
            {
              "number": 11,
              "ticks": 12580,
              "time": 14.1666525,
              "value": 0.8503937007874016
            },
            {
              "number": 11,
              "ticks": 12595,
              "time": 14.183544375,
              "value": 0.8346456692913385
            },
            {
              "number": 11,
              "ticks": 12610,
              "time": 14.20043625,
              "value": 0.8110236220472441
            },
            {
              "number": 11,
              "ticks": 12625,
              "time": 14.217328125,
              "value": 0.8110236220472441
            },
            {
              "number": 11,
              "ticks": 12640,
              "time": 14.23422,
              "value": 0.7952755905511811
            },
            {
              "number": 11,
              "ticks": 12655,
              "time": 14.251111875,
              "value": 0.7952755905511811
            },
            {
              "number": 11,
              "ticks": 12670,
              "time": 14.26800375,
              "value": 0.7795275590551181
            },
            {
              "number": 11,
              "ticks": 12685,
              "time": 14.284895625,
              "value": 0.7795275590551181
            },
            {
              "number": 11,
              "ticks": 12689,
              "time": 14.289400125,
              "value": 0.7795275590551181
            },
            {
              "number": 11,
              "ticks": 12715,
              "time": 14.318679375,
              "value": 0.7559055118110236
            },
            {
              "number": 11,
              "ticks": 12730,
              "time": 14.33557125,
              "value": 0.7559055118110236
            },
            {
              "number": 11,
              "ticks": 12745,
              "time": 14.352463125,
              "value": 0.7637795275590551
            },
            {
              "number": 11,
              "ticks": 12760,
              "time": 14.369355,
              "value": 0.7795275590551181
            },
            {
              "number": 11,
              "ticks": 12775,
              "time": 14.386246875,
              "value": 0.7874015748031497
            },
            {
              "number": 11,
              "ticks": 12790,
              "time": 14.40313875,
              "value": 0.7874015748031497
            },
            {
              "number": 11,
              "ticks": 12805,
              "time": 14.420030625,
              "value": 0.7952755905511811
            },
            {
              "number": 11,
              "ticks": 12820,
              "time": 14.4369225,
              "value": 0.8110236220472441
            },
            {
              "number": 11,
              "ticks": 12835,
              "time": 14.453814375,
              "value": 0.8267716535433071
            },
            {
              "number": 11,
              "ticks": 12850,
              "time": 14.47070625,
              "value": 0.8346456692913385
            },
            {
              "number": 11,
              "ticks": 12865,
              "time": 14.487598125,
              "value": 0.8346456692913385
            },
            {
              "number": 11,
              "ticks": 12880,
              "time": 14.50449,
              "value": 0.84251968503937
            },
            {
              "number": 11,
              "ticks": 12895,
              "time": 14.521381875,
              "value": 0.8503937007874016
            },
            {
              "number": 11,
              "ticks": 12910,
              "time": 14.53827375,
              "value": 0.8503937007874016
            },
            {
              "number": 11,
              "ticks": 12925,
              "time": 14.555165625,
              "value": 0.8661417322834646
            },
            {
              "number": 11,
              "ticks": 12940,
              "time": 14.5720575,
              "value": 0.8740157480314961
            },
            {
              "number": 11,
              "ticks": 12955,
              "time": 14.588949375,
              "value": 0.8818897637795275
            },
            {
              "number": 11,
              "ticks": 12970,
              "time": 14.60584125,
              "value": 0.8976377952755905
            },
            {
              "number": 11,
              "ticks": 12985,
              "time": 14.622733125,
              "value": 0.9133858267716536
            },
            {
              "number": 11,
              "ticks": 13000,
              "time": 14.639625,
              "value": 0.9212598425196851
            },
            {
              "number": 11,
              "ticks": 13015,
              "time": 14.656516875,
              "value": 0.9291338582677166
            },
            {
              "number": 11,
              "ticks": 13030,
              "time": 14.67340875,
              "value": 0.9291338582677166
            },
            {
              "number": 11,
              "ticks": 13045,
              "time": 14.690300625,
              "value": 0.937007874015748
            },
            {
              "number": 11,
              "ticks": 13060,
              "time": 14.7071925,
              "value": 0.952755905511811
            },
            {
              "number": 11,
              "ticks": 13075,
              "time": 14.724084375,
              "value": 0.9606299212598425
            },
            {
              "number": 11,
              "ticks": 13090,
              "time": 14.74097625,
              "value": 0.968503937007874
            },
            {
              "number": 11,
              "ticks": 13105,
              "time": 14.757868125,
              "value": 1
            },
            {
              "number": 11,
              "ticks": 13120,
              "time": 14.77476,
              "value": 1
            },
            {
              "number": 11,
              "ticks": 13135,
              "time": 14.791651875,
              "value": 1
            },
            {
              "number": 11,
              "ticks": 13150,
              "time": 14.80854375,
              "value": 1
            },
            {
              "number": 11,
              "ticks": 13165,
              "time": 14.825435625,
              "value": 1
            },
            {
              "number": 11,
              "ticks": 13180,
              "time": 14.8423275,
              "value": 1
            },
            {
              "number": 11,
              "ticks": 13195,
              "time": 14.859219375,
              "value": 1
            },
            {
              "number": 11,
              "ticks": 13244,
              "time": 14.9143995,
              "value": 1
            },
            {
              "number": 11,
              "ticks": 13245,
              "time": 14.915525625,
              "value": 1
            },
            {
              "number": 11,
              "ticks": 14363,
              "time": 16.174533375,
              "value": 1
            },
            {
              "number": 11,
              "ticks": 14378,
              "time": 16.19142525,
              "value": 1
            },
            {
              "number": 11,
              "ticks": 14393,
              "time": 16.208317125,
              "value": 1
            },
            {
              "number": 11,
              "ticks": 14408,
              "time": 16.225209,
              "value": 0.984251968503937
            },
            {
              "number": 11,
              "ticks": 14423,
              "time": 16.242100875,
              "value": 0.952755905511811
            },
            {
              "number": 11,
              "ticks": 14438,
              "time": 16.25899275,
              "value": 0.937007874015748
            },
            {
              "number": 11,
              "ticks": 14453,
              "time": 16.275884625,
              "value": 0.8976377952755905
            },
            {
              "number": 11,
              "ticks": 14468,
              "time": 16.2927765,
              "value": 0.8818897637795275
            },
            {
              "number": 11,
              "ticks": 14483,
              "time": 16.309668375,
              "value": 0.8582677165354331
            },
            {
              "number": 11,
              "ticks": 14498,
              "time": 16.32656025,
              "value": 0.8582677165354331
            },
            {
              "number": 11,
              "ticks": 14513,
              "time": 16.343452125,
              "value": 0.8503937007874016
            },
            {
              "number": 11,
              "ticks": 14528,
              "time": 16.360344,
              "value": 0.8346456692913385
            },
            {
              "number": 11,
              "ticks": 14543,
              "time": 16.377235875,
              "value": 0.8110236220472441
            },
            {
              "number": 11,
              "ticks": 14558,
              "time": 16.39412775,
              "value": 0.8110236220472441
            },
            {
              "number": 11,
              "ticks": 14573,
              "time": 16.411019625,
              "value": 0.7952755905511811
            },
            {
              "number": 11,
              "ticks": 14588,
              "time": 16.4279115,
              "value": 0.7952755905511811
            },
            {
              "number": 11,
              "ticks": 14603,
              "time": 16.444803375,
              "value": 0.7795275590551181
            },
            {
              "number": 11,
              "ticks": 14618,
              "time": 16.461695250000002,
              "value": 0.7795275590551181
            },
            {
              "number": 11,
              "ticks": 14622,
              "time": 16.46619975,
              "value": 0.7795275590551181
            },
            {
              "number": 11,
              "ticks": 14648,
              "time": 16.495479,
              "value": 0.7559055118110236
            },
            {
              "number": 11,
              "ticks": 14663,
              "time": 16.512370875,
              "value": 0.7559055118110236
            },
            {
              "number": 11,
              "ticks": 14678,
              "time": 16.52926275,
              "value": 0.7637795275590551
            },
            {
              "number": 11,
              "ticks": 14693,
              "time": 16.546154625,
              "value": 0.7795275590551181
            },
            {
              "number": 11,
              "ticks": 14708,
              "time": 16.5630465,
              "value": 0.7874015748031497
            },
            {
              "number": 11,
              "ticks": 14723,
              "time": 16.579938375,
              "value": 0.7874015748031497
            },
            {
              "number": 11,
              "ticks": 14738,
              "time": 16.59683025,
              "value": 0.7952755905511811
            },
            {
              "number": 11,
              "ticks": 14753,
              "time": 16.613722125,
              "value": 0.8110236220472441
            },
            {
              "number": 11,
              "ticks": 14768,
              "time": 16.630614,
              "value": 0.8267716535433071
            },
            {
              "number": 11,
              "ticks": 14783,
              "time": 16.647505875,
              "value": 0.8346456692913385
            },
            {
              "number": 11,
              "ticks": 14798,
              "time": 16.66439775,
              "value": 0.8346456692913385
            },
            {
              "number": 11,
              "ticks": 14813,
              "time": 16.681289625,
              "value": 0.84251968503937
            },
            {
              "number": 11,
              "ticks": 14828,
              "time": 16.6981815,
              "value": 0.8503937007874016
            },
            {
              "number": 11,
              "ticks": 14843,
              "time": 16.715073375,
              "value": 0.8503937007874016
            },
            {
              "number": 11,
              "ticks": 14858,
              "time": 16.731965250000002,
              "value": 0.8661417322834646
            },
            {
              "number": 11,
              "ticks": 14873,
              "time": 16.748857125,
              "value": 0.8740157480314961
            },
            {
              "number": 11,
              "ticks": 14888,
              "time": 16.765749,
              "value": 0.8818897637795275
            },
            {
              "number": 11,
              "ticks": 14903,
              "time": 16.782640875,
              "value": 0.8976377952755905
            },
            {
              "number": 11,
              "ticks": 14918,
              "time": 16.79953275,
              "value": 0.9133858267716536
            },
            {
              "number": 11,
              "ticks": 14933,
              "time": 16.816424625,
              "value": 0.9212598425196851
            },
            {
              "number": 11,
              "ticks": 14948,
              "time": 16.8333165,
              "value": 0.9291338582677166
            },
            {
              "number": 11,
              "ticks": 14963,
              "time": 16.850208375,
              "value": 0.9291338582677166
            },
            {
              "number": 11,
              "ticks": 14978,
              "time": 16.86710025,
              "value": 0.937007874015748
            },
            {
              "number": 11,
              "ticks": 14993,
              "time": 16.883992125,
              "value": 0.952755905511811
            },
            {
              "number": 11,
              "ticks": 15008,
              "time": 16.900884,
              "value": 0.9606299212598425
            },
            {
              "number": 11,
              "ticks": 15023,
              "time": 16.917775875,
              "value": 0.968503937007874
            },
            {
              "number": 11,
              "ticks": 15038,
              "time": 16.93466775,
              "value": 1
            },
            {
              "number": 11,
              "ticks": 15053,
              "time": 16.951559625,
              "value": 1
            },
            {
              "number": 11,
              "ticks": 15068,
              "time": 16.9684515,
              "value": 1
            },
            {
              "number": 11,
              "ticks": 15083,
              "time": 16.985343375,
              "value": 1
            },
            {
              "number": 11,
              "ticks": 15098,
              "time": 17.002235250000002,
              "value": 1
            },
            {
              "number": 11,
              "ticks": 15113,
              "time": 17.019127125,
              "value": 1
            },
            {
              "number": 11,
              "ticks": 15128,
              "time": 17.036019,
              "value": 1
            },
            {
              "number": 11,
              "ticks": 15177,
              "time": 17.091199125,
              "value": 1
            },
            {
              "number": 11,
              "ticks": 15178,
              "time": 17.092325250000002,
              "value": 1
            },
            {
              "number": 11,
              "ticks": 17146,
              "time": 19.30853925,
              "value": 0.6614173228346457
            },
            {
              "number": 11,
              "ticks": 17161,
              "time": 19.325431124999998,
              "value": 0.6299212598425197
            },
            {
              "number": 11,
              "ticks": 17176,
              "time": 19.342323,
              "value": 0.6062992125984252
            },
            {
              "number": 11,
              "ticks": 17191,
              "time": 19.359214875,
              "value": 0.5748031496062992
            },
            {
              "number": 11,
              "ticks": 17206,
              "time": 19.376106749999998,
              "value": 0.5511811023622047
            },
            {
              "number": 11,
              "ticks": 17221,
              "time": 19.392998625,
              "value": 0.5275590551181102
            },
            {
              "number": 11,
              "ticks": 17236,
              "time": 19.4098905,
              "value": 0.5039370078740157
            },
            {
              "number": 11,
              "ticks": 17251,
              "time": 19.426782375,
              "value": 0.48031496062992124
            },
            {
              "number": 11,
              "ticks": 17266,
              "time": 19.44367425,
              "value": 0.4645669291338583
            },
            {
              "number": 11,
              "ticks": 17281,
              "time": 19.460566125,
              "value": 0.4409448818897638
            },
            {
              "number": 11,
              "ticks": 17285,
              "time": 19.465070625,
              "value": 0.4330708661417323
            },
            {
              "number": 11,
              "ticks": 17441,
              "time": 19.640746125,
              "value": 0.4330708661417323
            },
            {
              "number": 11,
              "ticks": 17456,
              "time": 19.657638000000002,
              "value": 0.4566929133858268
            },
            {
              "number": 11,
              "ticks": 17471,
              "time": 19.674529875,
              "value": 0.48031496062992124
            },
            {
              "number": 11,
              "ticks": 17486,
              "time": 19.69142175,
              "value": 0.5039370078740157
            },
            {
              "number": 11,
              "ticks": 17501,
              "time": 19.708313625000002,
              "value": 0.5275590551181102
            },
            {
              "number": 11,
              "ticks": 17516,
              "time": 19.7252055,
              "value": 0.5433070866141733
            },
            {
              "number": 11,
              "ticks": 17531,
              "time": 19.742097375,
              "value": 0.5669291338582677
            },
            {
              "number": 11,
              "ticks": 17546,
              "time": 19.758989250000003,
              "value": 0.5905511811023622
            },
            {
              "number": 11,
              "ticks": 17561,
              "time": 19.775881125,
              "value": 0.6141732283464567
            },
            {
              "number": 11,
              "ticks": 17576,
              "time": 19.792773,
              "value": 0.6299212598425197
            },
            {
              "number": 11,
              "ticks": 17591,
              "time": 19.809664875,
              "value": 0.6535433070866141
            },
            {
              "number": 11,
              "ticks": 17606,
              "time": 19.82655675,
              "value": 0.6692913385826772
            },
            {
              "number": 11,
              "ticks": 17621,
              "time": 19.843448625,
              "value": 0.6929133858267716
            },
            {
              "number": 11,
              "ticks": 17636,
              "time": 19.8603405,
              "value": 0.7086614173228346
            },
            {
              "number": 11,
              "ticks": 17651,
              "time": 19.877232375000002,
              "value": 0.7322834645669292
            },
            {
              "number": 11,
              "ticks": 17666,
              "time": 19.89412425,
              "value": 0.7480314960629921
            },
            {
              "number": 11,
              "ticks": 17681,
              "time": 19.911016125,
              "value": 0.7637795275590551
            },
            {
              "number": 11,
              "ticks": 17696,
              "time": 19.927908000000002,
              "value": 0.7874015748031497
            },
            {
              "number": 11,
              "ticks": 17711,
              "time": 19.944799875,
              "value": 0.8031496062992126
            },
            {
              "number": 11,
              "ticks": 17726,
              "time": 19.96169175,
              "value": 0.8188976377952756
            },
            {
              "number": 11,
              "ticks": 17741,
              "time": 19.978583625000002,
              "value": 0.8346456692913385
            },
            {
              "number": 11,
              "ticks": 17756,
              "time": 19.9954755,
              "value": 0.8503937007874016
            },
            {
              "number": 11,
              "ticks": 17771,
              "time": 20.012367375,
              "value": 0.8661417322834646
            },
            {
              "number": 11,
              "ticks": 17786,
              "time": 20.029259250000003,
              "value": 0.8818897637795275
            },
            {
              "number": 11,
              "ticks": 17801,
              "time": 20.046151125,
              "value": 0.8976377952755905
            },
            {
              "number": 11,
              "ticks": 17816,
              "time": 20.063043,
              "value": 0.9133858267716536
            },
            {
              "number": 11,
              "ticks": 17831,
              "time": 20.079934875,
              "value": 0.9291338582677166
            },
            {
              "number": 11,
              "ticks": 17846,
              "time": 20.09682675,
              "value": 0.9448818897637795
            },
            {
              "number": 11,
              "ticks": 17861,
              "time": 20.113718625,
              "value": 0.9606299212598425
            },
            {
              "number": 11,
              "ticks": 17876,
              "time": 20.1306105,
              "value": 0.9763779527559056
            },
            {
              "number": 11,
              "ticks": 17951,
              "time": 20.215069875,
              "value": 1
            },
            {
              "number": 11,
              "ticks": 94570,
              "time": 106.49764125000002,
              "value": 0.8267716535433071
            },
            {
              "number": 11,
              "ticks": 94585,
              "time": 106.51453312500001,
              "value": 0.8740157480314961
            },
            {
              "number": 11,
              "ticks": 94600,
              "time": 106.53142500000001,
              "value": 0.9212598425196851
            },
            {
              "number": 11,
              "ticks": 94615,
              "time": 106.54831687500001,
              "value": 0.968503937007874
            },
            {
              "number": 11,
              "ticks": 94630,
              "time": 106.56520875000001,
              "value": 1
            },
            {
              "number": 11,
              "ticks": 94634,
              "time": 106.56971325,
              "value": 1
            },
            {
              "number": 11,
              "ticks": 97345,
              "time": 109.62263812500001,
              "value": 0.8267716535433071
            },
            {
              "number": 11,
              "ticks": 97360,
              "time": 109.63953000000001,
              "value": 0.8582677165354331
            },
            {
              "number": 11,
              "ticks": 97375,
              "time": 109.656421875,
              "value": 0.889763779527559
            },
            {
              "number": 11,
              "ticks": 97390,
              "time": 109.67331375,
              "value": 0.9212598425196851
            },
            {
              "number": 11,
              "ticks": 97405,
              "time": 109.690205625,
              "value": 0.9606299212598425
            },
            {
              "number": 11,
              "ticks": 97420,
              "time": 109.7070975,
              "value": 0.9921259842519685
            },
            {
              "number": 11,
              "ticks": 97435,
              "time": 109.72398937500002,
              "value": 1
            },
            {
              "number": 11,
              "ticks": 97439,
              "time": 109.72849387500001,
              "value": 1
            },
            {
              "number": 11,
              "ticks": 100850,
              "time": 113.56970625,
              "value": 0.8267716535433071
            },
            {
              "number": 11,
              "ticks": 100865,
              "time": 113.586598125,
              "value": 0.8582677165354331
            },
            {
              "number": 11,
              "ticks": 100880,
              "time": 113.60349,
              "value": 0.8976377952755905
            },
            {
              "number": 11,
              "ticks": 100895,
              "time": 113.62038187499999,
              "value": 0.9291338582677166
            },
            {
              "number": 11,
              "ticks": 100910,
              "time": 113.63727375,
              "value": 0.968503937007874
            },
            {
              "number": 11,
              "ticks": 100925,
              "time": 113.654165625,
              "value": 1
            },
            {
              "number": 11,
              "ticks": 100939,
              "time": 113.669931375,
              "value": 1
            },
            {
              "number": 11,
              "ticks": 102670,
              "time": 115.61925375000001,
              "value": 1
            },
            {
              "number": 11,
              "ticks": 102685,
              "time": 115.63614562500001,
              "value": 1
            },
            {
              "number": 11,
              "ticks": 102700,
              "time": 115.65303750000001,
              "value": 1
            },
            {
              "number": 11,
              "ticks": 102715,
              "time": 115.66992937500001,
              "value": 0.984251968503937
            },
            {
              "number": 11,
              "ticks": 102730,
              "time": 115.68682125000001,
              "value": 0.952755905511811
            },
            {
              "number": 11,
              "ticks": 102745,
              "time": 115.70371312500001,
              "value": 0.937007874015748
            },
            {
              "number": 11,
              "ticks": 102760,
              "time": 115.720605,
              "value": 0.8976377952755905
            },
            {
              "number": 11,
              "ticks": 102775,
              "time": 115.737496875,
              "value": 0.8818897637795275
            },
            {
              "number": 11,
              "ticks": 102790,
              "time": 115.75438875,
              "value": 0.8582677165354331
            },
            {
              "number": 11,
              "ticks": 102805,
              "time": 115.771280625,
              "value": 0.8582677165354331
            },
            {
              "number": 11,
              "ticks": 102820,
              "time": 115.78817250000002,
              "value": 0.8503937007874016
            },
            {
              "number": 11,
              "ticks": 102835,
              "time": 115.80506437500001,
              "value": 0.8346456692913385
            },
            {
              "number": 11,
              "ticks": 102850,
              "time": 115.82195625000001,
              "value": 0.8110236220472441
            },
            {
              "number": 11,
              "ticks": 102865,
              "time": 115.83884812500001,
              "value": 0.8110236220472441
            },
            {
              "number": 11,
              "ticks": 102880,
              "time": 115.85574000000001,
              "value": 0.7952755905511811
            },
            {
              "number": 11,
              "ticks": 102895,
              "time": 115.87263187500001,
              "value": 0.7952755905511811
            },
            {
              "number": 11,
              "ticks": 102910,
              "time": 115.88952375000001,
              "value": 0.7795275590551181
            },
            {
              "number": 11,
              "ticks": 102925,
              "time": 115.90641562500001,
              "value": 0.7795275590551181
            },
            {
              "number": 11,
              "ticks": 102929,
              "time": 115.910920125,
              "value": 0.7795275590551181
            },
            {
              "number": 11,
              "ticks": 102955,
              "time": 115.940199375,
              "value": 0.7559055118110236
            },
            {
              "number": 11,
              "ticks": 102970,
              "time": 115.95709125,
              "value": 0.7559055118110236
            },
            {
              "number": 11,
              "ticks": 102985,
              "time": 115.973983125,
              "value": 0.7637795275590551
            },
            {
              "number": 11,
              "ticks": 103000,
              "time": 115.990875,
              "value": 0.7795275590551181
            },
            {
              "number": 11,
              "ticks": 103015,
              "time": 116.00776687500002,
              "value": 0.7874015748031497
            },
            {
              "number": 11,
              "ticks": 103030,
              "time": 116.02465875000001,
              "value": 0.7874015748031497
            },
            {
              "number": 11,
              "ticks": 103045,
              "time": 116.04155062500001,
              "value": 0.7952755905511811
            },
            {
              "number": 11,
              "ticks": 103060,
              "time": 116.05844250000001,
              "value": 0.8110236220472441
            },
            {
              "number": 11,
              "ticks": 103075,
              "time": 116.07533437500001,
              "value": 0.8267716535433071
            },
            {
              "number": 11,
              "ticks": 103090,
              "time": 116.09222625000001,
              "value": 0.8346456692913385
            },
            {
              "number": 11,
              "ticks": 103105,
              "time": 116.10911812500001,
              "value": 0.8346456692913385
            },
            {
              "number": 11,
              "ticks": 103120,
              "time": 116.12601000000001,
              "value": 0.84251968503937
            },
            {
              "number": 11,
              "ticks": 103135,
              "time": 116.142901875,
              "value": 0.8503937007874016
            },
            {
              "number": 11,
              "ticks": 103150,
              "time": 116.15979375,
              "value": 0.8503937007874016
            },
            {
              "number": 11,
              "ticks": 103165,
              "time": 116.176685625,
              "value": 0.8661417322834646
            },
            {
              "number": 11,
              "ticks": 103180,
              "time": 116.1935775,
              "value": 0.8740157480314961
            },
            {
              "number": 11,
              "ticks": 103195,
              "time": 116.21046937500002,
              "value": 0.8818897637795275
            },
            {
              "number": 11,
              "ticks": 103210,
              "time": 116.22736125000002,
              "value": 0.8976377952755905
            },
            {
              "number": 11,
              "ticks": 103225,
              "time": 116.24425312500001,
              "value": 0.9133858267716536
            },
            {
              "number": 11,
              "ticks": 103240,
              "time": 116.26114500000001,
              "value": 0.9212598425196851
            },
            {
              "number": 11,
              "ticks": 103255,
              "time": 116.27803687500001,
              "value": 0.9291338582677166
            },
            {
              "number": 11,
              "ticks": 103270,
              "time": 116.29492875000001,
              "value": 0.9291338582677166
            },
            {
              "number": 11,
              "ticks": 103285,
              "time": 116.31182062500001,
              "value": 0.937007874015748
            },
            {
              "number": 11,
              "ticks": 103300,
              "time": 116.32871250000001,
              "value": 0.952755905511811
            },
            {
              "number": 11,
              "ticks": 103315,
              "time": 116.34560437500001,
              "value": 0.9606299212598425
            },
            {
              "number": 11,
              "ticks": 103330,
              "time": 116.36249625,
              "value": 0.968503937007874
            },
            {
              "number": 11,
              "ticks": 103345,
              "time": 116.379388125,
              "value": 1
            },
            {
              "number": 11,
              "ticks": 103360,
              "time": 116.39628,
              "value": 1
            },
            {
              "number": 11,
              "ticks": 103375,
              "time": 116.413171875,
              "value": 1
            },
            {
              "number": 11,
              "ticks": 103390,
              "time": 116.43006375000002,
              "value": 1
            },
            {
              "number": 11,
              "ticks": 103405,
              "time": 116.44695562500002,
              "value": 1
            },
            {
              "number": 11,
              "ticks": 103420,
              "time": 116.46384750000001,
              "value": 1
            },
            {
              "number": 11,
              "ticks": 103435,
              "time": 116.48073937500001,
              "value": 1
            },
            {
              "number": 11,
              "ticks": 103484,
              "time": 116.5359195,
              "value": 1
            },
            {
              "number": 11,
              "ticks": 103485,
              "time": 116.537045625,
              "value": 1
            },
            {
              "number": 11,
              "ticks": 104603,
              "time": 117.79605337500001,
              "value": 1
            },
            {
              "number": 11,
              "ticks": 104618,
              "time": 117.81294525000001,
              "value": 1
            },
            {
              "number": 11,
              "ticks": 104633,
              "time": 117.82983712500001,
              "value": 1
            },
            {
              "number": 11,
              "ticks": 104648,
              "time": 117.84672900000001,
              "value": 0.984251968503937
            },
            {
              "number": 11,
              "ticks": 104663,
              "time": 117.86362087500001,
              "value": 0.952755905511811
            },
            {
              "number": 11,
              "ticks": 104678,
              "time": 117.88051275000001,
              "value": 0.937007874015748
            },
            {
              "number": 11,
              "ticks": 104693,
              "time": 117.89740462500001,
              "value": 0.8976377952755905
            },
            {
              "number": 11,
              "ticks": 104708,
              "time": 117.9142965,
              "value": 0.8818897637795275
            },
            {
              "number": 11,
              "ticks": 104723,
              "time": 117.931188375,
              "value": 0.8582677165354331
            },
            {
              "number": 11,
              "ticks": 104738,
              "time": 117.94808025000002,
              "value": 0.8582677165354331
            },
            {
              "number": 11,
              "ticks": 104753,
              "time": 117.96497212500002,
              "value": 0.8503937007874016
            },
            {
              "number": 11,
              "ticks": 104768,
              "time": 117.98186400000002,
              "value": 0.8346456692913385
            },
            {
              "number": 11,
              "ticks": 104783,
              "time": 117.99875587500001,
              "value": 0.8110236220472441
            },
            {
              "number": 11,
              "ticks": 104798,
              "time": 118.01564775000001,
              "value": 0.8110236220472441
            },
            {
              "number": 11,
              "ticks": 104813,
              "time": 118.03253962500001,
              "value": 0.7952755905511811
            },
            {
              "number": 11,
              "ticks": 104828,
              "time": 118.04943150000001,
              "value": 0.7952755905511811
            },
            {
              "number": 11,
              "ticks": 104843,
              "time": 118.06632337500001,
              "value": 0.7795275590551181
            },
            {
              "number": 11,
              "ticks": 104858,
              "time": 118.08321525000001,
              "value": 0.7795275590551181
            },
            {
              "number": 11,
              "ticks": 104862,
              "time": 118.08771975,
              "value": 0.7795275590551181
            },
            {
              "number": 11,
              "ticks": 104888,
              "time": 118.116999,
              "value": 0.7559055118110236
            },
            {
              "number": 11,
              "ticks": 104903,
              "time": 118.133890875,
              "value": 0.7559055118110236
            },
            {
              "number": 11,
              "ticks": 104918,
              "time": 118.15078275,
              "value": 0.7637795275590551
            },
            {
              "number": 11,
              "ticks": 104933,
              "time": 118.16767462500002,
              "value": 0.7795275590551181
            },
            {
              "number": 11,
              "ticks": 104948,
              "time": 118.18456650000002,
              "value": 0.7874015748031497
            },
            {
              "number": 11,
              "ticks": 104963,
              "time": 118.20145837500002,
              "value": 0.7874015748031497
            },
            {
              "number": 11,
              "ticks": 104978,
              "time": 118.21835025000001,
              "value": 0.7952755905511811
            },
            {
              "number": 11,
              "ticks": 104993,
              "time": 118.23524212500001,
              "value": 0.8110236220472441
            },
            {
              "number": 11,
              "ticks": 105008,
              "time": 118.25213400000001,
              "value": 0.8267716535433071
            },
            {
              "number": 11,
              "ticks": 105023,
              "time": 118.26902587500001,
              "value": 0.8346456692913385
            },
            {
              "number": 11,
              "ticks": 105038,
              "time": 118.28591775000001,
              "value": 0.8346456692913385
            },
            {
              "number": 11,
              "ticks": 105053,
              "time": 118.30280962500001,
              "value": 0.84251968503937
            },
            {
              "number": 11,
              "ticks": 105068,
              "time": 118.31970150000001,
              "value": 0.8503937007874016
            },
            {
              "number": 11,
              "ticks": 105083,
              "time": 118.336593375,
              "value": 0.8503937007874016
            },
            {
              "number": 11,
              "ticks": 105098,
              "time": 118.35348525,
              "value": 0.8661417322834646
            },
            {
              "number": 11,
              "ticks": 105113,
              "time": 118.37037712500002,
              "value": 0.8740157480314961
            },
            {
              "number": 11,
              "ticks": 105128,
              "time": 118.38726900000002,
              "value": 0.8818897637795275
            },
            {
              "number": 11,
              "ticks": 105143,
              "time": 118.40416087500002,
              "value": 0.8976377952755905
            },
            {
              "number": 11,
              "ticks": 105158,
              "time": 118.42105275000002,
              "value": 0.9133858267716536
            },
            {
              "number": 11,
              "ticks": 105173,
              "time": 118.43794462500001,
              "value": 0.9212598425196851
            },
            {
              "number": 11,
              "ticks": 105188,
              "time": 118.45483650000001,
              "value": 0.9291338582677166
            },
            {
              "number": 11,
              "ticks": 105203,
              "time": 118.47172837500001,
              "value": 0.9291338582677166
            },
            {
              "number": 11,
              "ticks": 105218,
              "time": 118.48862025000001,
              "value": 0.937007874015748
            },
            {
              "number": 11,
              "ticks": 105233,
              "time": 118.50551212500001,
              "value": 0.952755905511811
            },
            {
              "number": 11,
              "ticks": 105248,
              "time": 118.52240400000001,
              "value": 0.9606299212598425
            },
            {
              "number": 11,
              "ticks": 105263,
              "time": 118.53929587500001,
              "value": 0.968503937007874
            },
            {
              "number": 11,
              "ticks": 105278,
              "time": 118.55618775,
              "value": 1
            },
            {
              "number": 11,
              "ticks": 105293,
              "time": 118.573079625,
              "value": 1
            },
            {
              "number": 11,
              "ticks": 105308,
              "time": 118.58997150000002,
              "value": 1
            },
            {
              "number": 11,
              "ticks": 105323,
              "time": 118.60686337500002,
              "value": 1
            },
            {
              "number": 11,
              "ticks": 105338,
              "time": 118.62375525000002,
              "value": 1
            },
            {
              "number": 11,
              "ticks": 105353,
              "time": 118.64064712500002,
              "value": 1
            },
            {
              "number": 11,
              "ticks": 105368,
              "time": 118.65753900000001,
              "value": 1
            },
            {
              "number": 11,
              "ticks": 105417,
              "time": 118.712719125,
              "value": 1
            },
            {
              "number": 11,
              "ticks": 105418,
              "time": 118.71384525,
              "value": 1
            },
            {
              "number": 11,
              "ticks": 107386,
              "time": 120.93005925,
              "value": 0.6614173228346457
            },
            {
              "number": 11,
              "ticks": 107401,
              "time": 120.946951125,
              "value": 0.6299212598425197
            },
            {
              "number": 11,
              "ticks": 107416,
              "time": 120.963843,
              "value": 0.6062992125984252
            },
            {
              "number": 11,
              "ticks": 107431,
              "time": 120.98073487500001,
              "value": 0.5748031496062992
            },
            {
              "number": 11,
              "ticks": 107446,
              "time": 120.99762675000001,
              "value": 0.5511811023622047
            },
            {
              "number": 11,
              "ticks": 107461,
              "time": 121.01451862500001,
              "value": 0.5275590551181102
            },
            {
              "number": 11,
              "ticks": 107476,
              "time": 121.0314105,
              "value": 0.5039370078740157
            },
            {
              "number": 11,
              "ticks": 107491,
              "time": 121.048302375,
              "value": 0.48031496062992124
            },
            {
              "number": 11,
              "ticks": 107506,
              "time": 121.06519425,
              "value": 0.4645669291338583
            },
            {
              "number": 11,
              "ticks": 107521,
              "time": 121.082086125,
              "value": 0.4409448818897638
            },
            {
              "number": 11,
              "ticks": 107525,
              "time": 121.086590625,
              "value": 0.4330708661417323
            },
            {
              "number": 11,
              "ticks": 107681,
              "time": 121.26226612500001,
              "value": 0.4330708661417323
            },
            {
              "number": 11,
              "ticks": 107696,
              "time": 121.27915800000001,
              "value": 0.4566929133858268
            },
            {
              "number": 11,
              "ticks": 107711,
              "time": 121.29604987500001,
              "value": 0.48031496062992124
            },
            {
              "number": 11,
              "ticks": 107726,
              "time": 121.31294175000001,
              "value": 0.5039370078740157
            },
            {
              "number": 11,
              "ticks": 107741,
              "time": 121.329833625,
              "value": 0.5275590551181102
            },
            {
              "number": 11,
              "ticks": 107756,
              "time": 121.3467255,
              "value": 0.5433070866141733
            },
            {
              "number": 11,
              "ticks": 107771,
              "time": 121.363617375,
              "value": 0.5669291338582677
            },
            {
              "number": 11,
              "ticks": 107786,
              "time": 121.38050925,
              "value": 0.5905511811023622
            },
            {
              "number": 11,
              "ticks": 107801,
              "time": 121.397401125,
              "value": 0.6141732283464567
            },
            {
              "number": 11,
              "ticks": 107816,
              "time": 121.41429300000001,
              "value": 0.6299212598425197
            },
            {
              "number": 11,
              "ticks": 107831,
              "time": 121.43118487500001,
              "value": 0.6535433070866141
            },
            {
              "number": 11,
              "ticks": 107846,
              "time": 121.44807675000001,
              "value": 0.6692913385826772
            },
            {
              "number": 11,
              "ticks": 107861,
              "time": 121.46496862500001,
              "value": 0.6929133858267716
            },
            {
              "number": 11,
              "ticks": 107876,
              "time": 121.48186050000001,
              "value": 0.7086614173228346
            },
            {
              "number": 11,
              "ticks": 107891,
              "time": 121.49875237500001,
              "value": 0.7322834645669292
            },
            {
              "number": 11,
              "ticks": 107906,
              "time": 121.51564425000001,
              "value": 0.7480314960629921
            },
            {
              "number": 11,
              "ticks": 107921,
              "time": 121.53253612500001,
              "value": 0.7637795275590551
            },
            {
              "number": 11,
              "ticks": 107936,
              "time": 121.549428,
              "value": 0.7874015748031497
            },
            {
              "number": 11,
              "ticks": 107951,
              "time": 121.566319875,
              "value": 0.8031496062992126
            },
            {
              "number": 11,
              "ticks": 107966,
              "time": 121.58321175,
              "value": 0.8188976377952756
            },
            {
              "number": 11,
              "ticks": 107981,
              "time": 121.600103625,
              "value": 0.8346456692913385
            },
            {
              "number": 11,
              "ticks": 107996,
              "time": 121.61699550000002,
              "value": 0.8503937007874016
            },
            {
              "number": 11,
              "ticks": 108011,
              "time": 121.63388737500001,
              "value": 0.8661417322834646
            },
            {
              "number": 11,
              "ticks": 108026,
              "time": 121.65077925000001,
              "value": 0.8818897637795275
            },
            {
              "number": 11,
              "ticks": 108041,
              "time": 121.66767112500001,
              "value": 0.8976377952755905
            },
            {
              "number": 11,
              "ticks": 108056,
              "time": 121.68456300000001,
              "value": 0.9133858267716536
            },
            {
              "number": 11,
              "ticks": 108071,
              "time": 121.70145487500001,
              "value": 0.9291338582677166
            },
            {
              "number": 11,
              "ticks": 108086,
              "time": 121.71834675000001,
              "value": 0.9448818897637795
            },
            {
              "number": 11,
              "ticks": 108101,
              "time": 121.73523862500001,
              "value": 0.9606299212598425
            },
            {
              "number": 11,
              "ticks": 108116,
              "time": 121.7521305,
              "value": 0.9763779527559056
            },
            {
              "number": 11,
              "ticks": 108191,
              "time": 121.83658987500002,
              "value": 1
            }
          ],
          "38": [
            {
              "number": 38,
              "ticks": 630,
              "time": 0.70945875,
              "value": 0.09448818897637795
            }
          ],
          "91": [
            {
              "number": 91,
              "ticks": 600,
              "time": 0.675675,
              "value": 0.31496062992125984
            }
          ],
          "93": [
            {
              "number": 93,
              "ticks": 600,
              "time": 0.675675,
              "value": 0.07874015748031496
            }
          ],
          "100": [
            {
              "number": 100,
              "ticks": 620,
              "time": 0.6981975,
              "value": 0
            }
          ],
          "101": [
            {
              "number": 101,
              "ticks": 610,
              "time": 0.68693625,
              "value": 0
            }
          ]
        },
        "pitchBends": [
          {
            "ticks": 94572,
            "time": 106.49989350000001,
            "value": -0.0343017578125
          },
          {
            "ticks": 94587,
            "time": 106.51678537500001,
            "value": -0.02294921875
          },
          {
            "ticks": 94602,
            "time": 106.53367725000001,
            "value": -0.011474609375
          },
          {
            "ticks": 94617,
            "time": 106.55056912500001,
            "value": 0
          },
          {
            "ticks": 95686,
            "time": 107.75439675,
            "value": -0.0343017578125
          },
          {
            "ticks": 95701,
            "time": 107.771288625,
            "value": -0.0167236328125
          },
          {
            "ticks": 95715,
            "time": 107.78705437500001,
            "value": 0
          },
          {
            "ticks": 97344,
            "time": 109.62151200000001,
            "value": -0.0732421875
          },
          {
            "ticks": 97359,
            "time": 109.63840387500001,
            "value": -0.0596923828125
          },
          {
            "ticks": 97374,
            "time": 109.65529575000001,
            "value": -0.046142578125
          },
          {
            "ticks": 97389,
            "time": 109.672187625,
            "value": -0.0325927734375
          },
          {
            "ticks": 97404,
            "time": 109.6890795,
            "value": -0.01904296875
          },
          {
            "ticks": 97419,
            "time": 109.705971375,
            "value": -0.0054931640625
          },
          {
            "ticks": 97425,
            "time": 109.712728125,
            "value": 0
          },
          {
            "ticks": 100848,
            "time": 113.567454,
            "value": -0.0343017578125
          },
          {
            "ticks": 100863,
            "time": 113.584345875,
            "value": -0.0264892578125
          },
          {
            "ticks": 100878,
            "time": 113.60123775,
            "value": -0.0185546875
          },
          {
            "ticks": 100893,
            "time": 113.618129625,
            "value": -0.0106201171875
          },
          {
            "ticks": 100908,
            "time": 113.63502150000001,
            "value": -0.002685546875
          },
          {
            "ticks": 100913,
            "time": 113.64065212500002,
            "value": 0
          }
        ],
        "instrument": {
          "family": "reed",
          "number": 66,
          "name": "tenor sax"
        },
        "name": "",
        "notes": [
          {
            "duration": 0.07657649999999983,
            "durationTicks": 68,
            "midi": 55,
            "name": "G3",
            "ticks": 4079,
            "time": 4.593463875,
            "velocity": 0.6614173228346457
          },
          {
            "duration": 0.07207199999999947,
            "durationTicks": 64,
            "midi": 53,
            "name": "F3",
            "ticks": 4082,
            "time": 4.59684225,
            "velocity": 0.4094488188976378
          },
          {
            "duration": 0.07319812500000022,
            "durationTicks": 65,
            "midi": 57,
            "name": "A3",
            "ticks": 4442,
            "time": 5.00224725,
            "velocity": 0.6614173228346457
          },
          {
            "duration": 0.06981974999999974,
            "durationTicks": 62,
            "midi": 55,
            "name": "G3",
            "ticks": 4448,
            "time": 5.009004000000001,
            "velocity": 0.5669291338582677
          },
          {
            "duration": 1.0574313749999993,
            "durationTicks": 939,
            "midi": 58,
            "name": "A#3",
            "ticks": 4690,
            "time": 5.281526250000001,
            "velocity": 0.5748031496062992
          },
          {
            "duration": 1.0326566250000004,
            "durationTicks": 917,
            "midi": 57,
            "name": "A3",
            "ticks": 4696,
            "time": 5.288283,
            "velocity": 0.5039370078740157
          },
          {
            "duration": 0.06981975000000062,
            "durationTicks": 62,
            "midi": 55,
            "name": "G3",
            "ticks": 5993,
            "time": 6.748867125,
            "velocity": 0.5669291338582677
          },
          {
            "duration": 0.07207199999999947,
            "durationTicks": 64,
            "midi": 53,
            "name": "F3",
            "ticks": 5999,
            "time": 6.755623875,
            "velocity": 0.48031496062992124
          },
          {
            "duration": 0.07207200000000036,
            "durationTicks": 64,
            "midi": 57,
            "name": "A3",
            "ticks": 6353,
            "time": 7.154272125,
            "velocity": 0.48031496062992124
          },
          {
            "duration": 0.08333324999999991,
            "durationTicks": 74,
            "midi": 55,
            "name": "G3",
            "ticks": 6362,
            "time": 7.16440725,
            "velocity": 0.4094488188976378
          },
          {
            "duration": 1.0202692499999992,
            "durationTicks": 906,
            "midi": 58,
            "name": "A#3",
            "ticks": 6613,
            "time": 7.447064625,
            "velocity": 0.5748031496062992
          },
          {
            "duration": 1.014638625,
            "durationTicks": 901,
            "midi": 57,
            "name": "A3",
            "ticks": 6619,
            "time": 7.453821375,
            "velocity": 0.5039370078740157
          },
          {
            "duration": 0.08558550000000054,
            "durationTicks": 76,
            "midi": 55,
            "name": "G3",
            "ticks": 7811,
            "time": 8.796162375,
            "velocity": 0.6614173228346457
          },
          {
            "duration": 0.07207199999999858,
            "durationTicks": 64,
            "midi": 53,
            "name": "F3",
            "ticks": 7813,
            "time": 8.798414625000001,
            "velocity": 0.48031496062992124
          },
          {
            "duration": 0.07770262500000058,
            "durationTicks": 69,
            "midi": 55,
            "name": "G3",
            "ticks": 8155,
            "time": 9.183549375,
            "velocity": 0.48031496062992124
          },
          {
            "duration": 0.07770262500000058,
            "durationTicks": 69,
            "midi": 57,
            "name": "A3",
            "ticks": 8157,
            "time": 9.185801625,
            "velocity": 0.5669291338582677
          },
          {
            "duration": 0.07995487500000031,
            "durationTicks": 71,
            "midi": 55,
            "name": "G3",
            "ticks": 8399,
            "time": 9.458323875,
            "velocity": 0.5669291338582677
          },
          {
            "duration": 0.08220712500000005,
            "durationTicks": 73,
            "midi": 57,
            "name": "A3",
            "ticks": 8406,
            "time": 9.46620675,
            "velocity": 0.6614173228346457
          },
          {
            "duration": 0.06981975000000062,
            "durationTicks": 62,
            "midi": 57,
            "name": "A3",
            "ticks": 8644,
            "time": 9.7342245,
            "velocity": 0.4094488188976378
          },
          {
            "duration": 0.06531525000000116,
            "durationTicks": 58,
            "midi": 58,
            "name": "A#3",
            "ticks": 8644,
            "time": 9.7342245,
            "velocity": 0.4094488188976378
          },
          {
            "duration": 0.095720625000002,
            "durationTicks": 85,
            "midi": 60,
            "name": "C4",
            "ticks": 8879,
            "time": 9.998863875,
            "velocity": 0.5669291338582677
          },
          {
            "duration": 0.07545037499999907,
            "durationTicks": 67,
            "midi": 57,
            "name": "A3",
            "ticks": 8887,
            "time": 10.007872875,
            "velocity": 0.48031496062992124
          },
          {
            "duration": 0.06756749999999911,
            "durationTicks": 60,
            "midi": 58,
            "name": "A#3",
            "ticks": 9120,
            "time": 10.27026,
            "velocity": 0.48031496062992124
          },
          {
            "duration": 0.07207200000000036,
            "durationTicks": 64,
            "midi": 57,
            "name": "A3",
            "ticks": 9127,
            "time": 10.278142875,
            "velocity": 0.5669291338582677
          },
          {
            "duration": 0.07770262500000058,
            "durationTicks": 69,
            "midi": 57,
            "name": "A3",
            "ticks": 9354,
            "time": 10.533773250000001,
            "velocity": 0.5669291338582677
          },
          {
            "duration": 0.04504500000000178,
            "durationTicks": 40,
            "midi": 55,
            "name": "G3",
            "ticks": 9366,
            "time": 10.54728675,
            "velocity": 0.4094488188976378
          },
          {
            "duration": 2.0472952500000012,
            "durationTicks": 1818,
            "midi": 55,
            "name": "G3",
            "ticks": 9482,
            "time": 10.67791725,
            "velocity": 0.6614173228346457
          },
          {
            "duration": 2.003376375,
            "durationTicks": 1779,
            "midi": 53,
            "name": "F3",
            "ticks": 9493,
            "time": 10.690304625000001,
            "velocity": 0.4094488188976378
          },
          {
            "duration": 0.07545037500000085,
            "durationTicks": 67,
            "midi": 53,
            "name": "F3",
            "ticks": 11755,
            "time": 13.237599375,
            "velocity": 0.6141732283464567
          },
          {
            "duration": 0.05968462499999916,
            "durationTicks": 53,
            "midi": 55,
            "name": "G3",
            "ticks": 11762,
            "time": 13.24548225,
            "velocity": 0.7086614173228346
          },
          {
            "duration": 0.06981975000000062,
            "durationTicks": 62,
            "midi": 57,
            "name": "A3",
            "ticks": 12118,
            "time": 13.64638275,
            "velocity": 0.7086614173228346
          },
          {
            "duration": 0.07545037500000085,
            "durationTicks": 67,
            "midi": 55,
            "name": "G3",
            "ticks": 12124,
            "time": 13.6531395,
            "velocity": 0.6141732283464567
          },
          {
            "duration": 1.0202692500000001,
            "durationTicks": 906,
            "midi": 57,
            "name": "A3",
            "ticks": 12365,
            "time": 13.924535625,
            "velocity": 0.5511811023622047
          },
          {
            "duration": 1.1069808749999996,
            "durationTicks": 983,
            "midi": 58,
            "name": "A#3",
            "ticks": 12366,
            "time": 13.92566175,
            "velocity": 0.6220472440944882
          },
          {
            "duration": 0.06756750000000089,
            "durationTicks": 60,
            "midi": 53,
            "name": "F3",
            "ticks": 13667,
            "time": 15.390750375,
            "velocity": 0.6141732283464567
          },
          {
            "duration": 0.07995487500000031,
            "durationTicks": 71,
            "midi": 55,
            "name": "G3",
            "ticks": 13676,
            "time": 15.400885500000001,
            "velocity": 0.7086614173228346
          },
          {
            "duration": 0.06756750000000089,
            "durationTicks": 60,
            "midi": 55,
            "name": "G3",
            "ticks": 14044,
            "time": 15.8152995,
            "velocity": 0.6141732283464567
          },
          {
            "duration": 0.08783775000000027,
            "durationTicks": 78,
            "midi": 57,
            "name": "A3",
            "ticks": 14044,
            "time": 15.8152995,
            "velocity": 0.7086614173228346
          },
          {
            "duration": 0.9414404999999988,
            "durationTicks": 836,
            "midi": 58,
            "name": "A#3",
            "ticks": 14284,
            "time": 16.085569500000002,
            "velocity": 0.6141732283464567
          },
          {
            "duration": 0.8851342500000001,
            "durationTicks": 786,
            "midi": 57,
            "name": "A3",
            "ticks": 14301,
            "time": 16.104713625,
            "velocity": 0.6141732283464567
          },
          {
            "duration": 0.09234224999999796,
            "durationTicks": 82,
            "midi": 55,
            "name": "G3",
            "ticks": 15488,
            "time": 17.441424,
            "velocity": 0.7480314960629921
          },
          {
            "duration": 0.06981975000000062,
            "durationTicks": 62,
            "midi": 53,
            "name": "F3",
            "ticks": 15496,
            "time": 17.450433,
            "velocity": 0.6062992125984252
          },
          {
            "duration": 0.07770262499999703,
            "durationTicks": 69,
            "midi": 55,
            "name": "G3",
            "ticks": 15827,
            "time": 17.823180375000003,
            "velocity": 0.7480314960629921
          },
          {
            "duration": 0.07995487499999854,
            "durationTicks": 71,
            "midi": 57,
            "name": "A3",
            "ticks": 15837,
            "time": 17.834441625,
            "velocity": 0.7480314960629921
          },
          {
            "duration": 0.0822071249999965,
            "durationTicks": 73,
            "midi": 55,
            "name": "G3",
            "ticks": 16071,
            "time": 18.097954875000003,
            "velocity": 0.6929133858267716
          },
          {
            "duration": 0.09009,
            "durationTicks": 80,
            "midi": 57,
            "name": "A3",
            "ticks": 16080,
            "time": 18.10809,
            "velocity": 0.7480314960629921
          },
          {
            "duration": 0.07545037499999907,
            "durationTicks": 67,
            "midi": 57,
            "name": "A3",
            "ticks": 16318,
            "time": 18.37610775,
            "velocity": 0.6062992125984252
          },
          {
            "duration": 0.07657649999999805,
            "durationTicks": 68,
            "midi": 58,
            "name": "A#3",
            "ticks": 16319,
            "time": 18.377233875,
            "velocity": 0.6929133858267716
          },
          {
            "duration": 0.06981974999999707,
            "durationTicks": 62,
            "midi": 57,
            "name": "A3",
            "ticks": 16566,
            "time": 18.65538675,
            "velocity": 0.6929133858267716
          },
          {
            "duration": 0.08220712500000005,
            "durationTicks": 73,
            "midi": 60,
            "name": "C4",
            "ticks": 16581,
            "time": 18.672278625,
            "velocity": 0.7480314960629921
          },
          {
            "duration": 0.0822071250000036,
            "durationTicks": 73,
            "midi": 57,
            "name": "A3",
            "ticks": 16801,
            "time": 18.920026125,
            "velocity": 0.6062992125984252
          },
          {
            "duration": 0.07995487500000209,
            "durationTicks": 71,
            "midi": 58,
            "name": "A#3",
            "ticks": 16804,
            "time": 18.9234045,
            "velocity": 0.6929133858267716
          },
          {
            "duration": 0.09009000000000356,
            "durationTicks": 80,
            "midi": 57,
            "name": "A3",
            "ticks": 17041,
            "time": 19.190296125,
            "velocity": 0.7480314960629921
          },
          {
            "duration": 0.06306299999999965,
            "durationTicks": 56,
            "midi": 55,
            "name": "G3",
            "ticks": 17043,
            "time": 19.192548375,
            "velocity": 0.6929133858267716
          },
          {
            "duration": 1.2195933749999952,
            "durationTicks": 1083,
            "midi": 55,
            "name": "G3",
            "ticks": 17166,
            "time": 19.331061750000003,
            "velocity": 0.8818897637795275
          },
          {
            "duration": 1.2150888749999993,
            "durationTicks": 1079,
            "midi": 53,
            "name": "F3",
            "ticks": 17171,
            "time": 19.336692375000002,
            "velocity": 0.8818897637795275
          },
          {
            "duration": 0.11824312499999223,
            "durationTicks": 105,
            "midi": 48,
            "name": "C3",
            "ticks": 94223,
            "time": 106.10687587500001,
            "velocity": 0.7874015748031497
          },
          {
            "duration": 0.19819800000000498,
            "durationTicks": 176,
            "midi": 51,
            "name": "D#3",
            "ticks": 94323,
            "time": 106.219488375,
            "velocity": 0.7874015748031497
          },
          {
            "duration": 0.10698187500000245,
            "durationTicks": 95,
            "midi": 55,
            "name": "G3",
            "ticks": 94480,
            "time": 106.39629000000001,
            "velocity": 0.8818897637795275
          },
          {
            "duration": 0.1689187499999889,
            "durationTicks": 150,
            "midi": 62,
            "name": "D4",
            "ticks": 94576,
            "time": 106.50439800000001,
            "velocity": 0.7874015748031497
          },
          {
            "duration": 0.11599087500000849,
            "durationTicks": 103,
            "midi": 61,
            "name": "C#4",
            "ticks": 94727,
            "time": 106.674442875,
            "velocity": 0.7874015748031497
          },
          {
            "duration": 0.14639624999999512,
            "durationTicks": 130,
            "midi": 60,
            "name": "C4",
            "ticks": 94825,
            "time": 106.78480312500001,
            "velocity": 0.7874015748031497
          },
          {
            "duration": 0.12837824999998304,
            "durationTicks": 114,
            "midi": 59,
            "name": "B3",
            "ticks": 94958,
            "time": 106.93457775000002,
            "velocity": 0.8818897637795275
          },
          {
            "duration": 0.17117100000000107,
            "durationTicks": 152,
            "midi": 58,
            "name": "A#3",
            "ticks": 95068,
            "time": 107.0584515,
            "velocity": 0.6929133858267716
          },
          {
            "duration": 0.11824312499999223,
            "durationTicks": 105,
            "midi": 55,
            "name": "G3",
            "ticks": 95209,
            "time": 107.217235125,
            "velocity": 0.8818897637795275
          },
          {
            "duration": 0.1362611250000043,
            "durationTicks": 121,
            "midi": 51,
            "name": "D#3",
            "ticks": 95319,
            "time": 107.341108875,
            "velocity": 0.6929133858267716
          },
          {
            "duration": 0.1373872500000175,
            "durationTicks": 122,
            "midi": 50,
            "name": "D3",
            "ticks": 95436,
            "time": 107.4728655,
            "velocity": 0.7874015748031497
          },
          {
            "duration": 0.15653137499998593,
            "durationTicks": 139,
            "midi": 49,
            "name": "C#3",
            "ticks": 95550,
            "time": 107.60124375000001,
            "velocity": 0.8818897637795275
          },
          {
            "duration": 0.1261260000000135,
            "durationTicks": 112,
            "midi": 57,
            "name": "A3",
            "ticks": 95691,
            "time": 107.76002737499999,
            "velocity": 0.7874015748031497
          },
          {
            "duration": 0.10923412499998619,
            "durationTicks": 97,
            "midi": 55,
            "name": "G3",
            "ticks": 95919,
            "time": 108.01678387500002,
            "velocity": 0.984251968503937
          },
          {
            "duration": 0.12725212500001248,
            "durationTicks": 113,
            "midi": 53,
            "name": "F3",
            "ticks": 96007,
            "time": 108.115882875,
            "velocity": 0.8818897637795275
          },
          {
            "duration": 0.06081075000000169,
            "durationTicks": 54,
            "midi": 55,
            "name": "G3",
            "ticks": 96138,
            "time": 108.26340525,
            "velocity": 0.7874015748031497
          },
          {
            "duration": 0.08333324999999547,
            "durationTicks": 74,
            "midi": 53,
            "name": "F3",
            "ticks": 96189,
            "time": 108.32083762500001,
            "velocity": 0.7874015748031497
          },
          {
            "duration": 0.12387375000001555,
            "durationTicks": 110,
            "midi": 52,
            "name": "E3",
            "ticks": 96261,
            "time": 108.401918625,
            "velocity": 0.7874015748031497
          },
          {
            "duration": 0.12950437500001044,
            "durationTicks": 115,
            "midi": 55,
            "name": "G3",
            "ticks": 96377,
            "time": 108.532549125,
            "velocity": 0.7874015748031497
          },
          {
            "duration": 0.18130612499999188,
            "durationTicks": 161,
            "midi": 53,
            "name": "F3",
            "ticks": 96477,
            "time": 108.64516162500001,
            "velocity": 0.7874015748031497
          },
          {
            "duration": 0.21171150000000694,
            "durationTicks": 188,
            "midi": 50,
            "name": "D3",
            "ticks": 96652,
            "time": 108.84223349999999,
            "velocity": 0.6929133858267716
          },
          {
            "duration": 0.2556303749999955,
            "durationTicks": 227,
            "midi": 56,
            "name": "G#3",
            "ticks": 97351,
            "time": 109.629394875,
            "velocity": 0.7874015748031497
          },
          {
            "duration": 0.11036024999999938,
            "durationTicks": 98,
            "midi": 55,
            "name": "G3",
            "ticks": 97571,
            "time": 109.877142375,
            "velocity": 0.7874015748031497
          },
          {
            "duration": 0.2905402499999923,
            "durationTicks": 258,
            "midi": 50,
            "name": "D3",
            "ticks": 97678,
            "time": 109.99763775000001,
            "velocity": 0.7874015748031497
          },
          {
            "duration": 0.17680162500001018,
            "durationTicks": 157,
            "midi": 53,
            "name": "F3",
            "ticks": 97937,
            "time": 110.289304125,
            "velocity": 0.8818897637795275
          },
          {
            "duration": 0.09684674999998322,
            "durationTicks": 86,
            "midi": 51,
            "name": "D#3",
            "ticks": 98094,
            "time": 110.46610575000001,
            "velocity": 0.7874015748031497
          },
          {
            "duration": 0.15540525000000116,
            "durationTicks": 138,
            "midi": 53,
            "name": "F3",
            "ticks": 98170,
            "time": 110.55169125,
            "velocity": 0.7874015748031497
          },
          {
            "duration": 0.1306304999999952,
            "durationTicks": 116,
            "midi": 51,
            "name": "D#3",
            "ticks": 98306,
            "time": 110.70484425000001,
            "velocity": 0.7874015748031497
          },
          {
            "duration": 0.16554037499999197,
            "durationTicks": 147,
            "midi": 50,
            "name": "D3",
            "ticks": 98417,
            "time": 110.82984412500001,
            "velocity": 0.8818897637795275
          },
          {
            "duration": 0.1103602500000136,
            "durationTicks": 98,
            "midi": 48,
            "name": "C3",
            "ticks": 98570,
            "time": 111.00214125,
            "velocity": 0.7874015748031497
          },
          {
            "duration": 0.15765749999999912,
            "durationTicks": 140,
            "midi": 50,
            "name": "D3",
            "ticks": 98672,
            "time": 111.117006,
            "velocity": 0.7874015748031497
          },
          {
            "duration": 0.10247737499999232,
            "durationTicks": 91,
            "midi": 48,
            "name": "C3",
            "ticks": 98809,
            "time": 111.271285125,
            "velocity": 0.7874015748031497
          },
          {
            "duration": 0.174549374999998,
            "durationTicks": 155,
            "midi": 56,
            "name": "G#3",
            "ticks": 98919,
            "time": 111.395158875,
            "velocity": 0.8818897637795275
          },
          {
            "duration": 0.08671162499999241,
            "durationTicks": 77,
            "midi": 54,
            "name": "F#3",
            "ticks": 99068,
            "time": 111.56295150000001,
            "velocity": 0.7874015748031497
          },
          {
            "duration": 0.1644142500000072,
            "durationTicks": 146,
            "midi": 56,
            "name": "G#3",
            "ticks": 99162,
            "time": 111.66880725,
            "velocity": 0.7874015748031497
          },
          {
            "duration": 0.11373862500001053,
            "durationTicks": 101,
            "midi": 54,
            "name": "F#3",
            "ticks": 99307,
            "time": 111.832095375,
            "velocity": 0.8818897637795275
          },
          {
            "duration": 0.1700448750000021,
            "durationTicks": 151,
            "midi": 53,
            "name": "F3",
            "ticks": 99407,
            "time": 111.944707875,
            "velocity": 0.8818897637795275
          },
          {
            "duration": 0.1700448750000021,
            "durationTicks": 151,
            "midi": 51,
            "name": "D#3",
            "ticks": 99546,
            "time": 112.10123924999999,
            "velocity": 0.6929133858267716
          },
          {
            "duration": 0.11711699999999325,
            "durationTicks": 104,
            "midi": 50,
            "name": "D3",
            "ticks": 100010,
            "time": 112.62376125,
            "velocity": 0.8818897637795275
          },
          {
            "duration": 0.1373872500000033,
            "durationTicks": 122,
            "midi": 53,
            "name": "F3",
            "ticks": 100108,
            "time": 112.7341215,
            "velocity": 0.8818897637795275
          },
          {
            "duration": 0.12162150000000338,
            "durationTicks": 108,
            "midi": 57,
            "name": "A3",
            "ticks": 100228,
            "time": 112.8692565,
            "velocity": 0.8818897637795275
          },
          {
            "duration": 0.18918900000001315,
            "durationTicks": 168,
            "midi": 60,
            "name": "C4",
            "ticks": 100340,
            "time": 112.9953825,
            "velocity": 0.7874015748031497
          },
          {
            "duration": 0.11711700000000747,
            "durationTicks": 104,
            "midi": 58,
            "name": "A#3",
            "ticks": 100504,
            "time": 113.180067,
            "velocity": 0.8818897637795275
          },
          {
            "duration": 0.11711699999999325,
            "durationTicks": 104,
            "midi": 53,
            "name": "F3",
            "ticks": 100580,
            "time": 113.2656525,
            "velocity": 0.6929133858267716
          },
          {
            "duration": 0.08445937499999445,
            "durationTicks": 75,
            "midi": 50,
            "name": "D3",
            "ticks": 100720,
            "time": 113.42331000000001,
            "velocity": 0.6062992125984252
          },
          {
            "duration": 0.17792774999999494,
            "durationTicks": 158,
            "midi": 62,
            "name": "D4",
            "ticks": 100838,
            "time": 113.55619275000001,
            "velocity": 0.8818897637795275
          },
          {
            "duration": 0.07770262499998637,
            "durationTicks": 69,
            "midi": 60,
            "name": "C4",
            "ticks": 101007,
            "time": 113.746507875,
            "velocity": 0.6929133858267716
          },
          {
            "duration": 0.10022512500000857,
            "durationTicks": 89,
            "midi": 57,
            "name": "A3",
            "ticks": 101079,
            "time": 113.827588875,
            "velocity": 0.7874015748031497
          },
          {
            "duration": 0.09459449999998526,
            "durationTicks": 84,
            "midi": 54,
            "name": "F#3",
            "ticks": 101170,
            "time": 113.93006625000001,
            "velocity": 0.6929133858267716
          },
          {
            "duration": 0.09009000000000356,
            "durationTicks": 80,
            "midi": 51,
            "name": "D#3",
            "ticks": 101252,
            "time": 114.0224085,
            "velocity": 0.6929133858267716
          },
          {
            "duration": 0.24324299999999255,
            "durationTicks": 216,
            "midi": 50,
            "name": "D3",
            "ticks": 101352,
            "time": 114.13502100000001,
            "velocity": 0.6929133858267716
          },
          {
            "duration": 0.23873849999999663,
            "durationTicks": 212,
            "midi": 48,
            "name": "C3",
            "ticks": 101558,
            "time": 114.36700275000001,
            "velocity": 0.6062992125984252
          },
          {
            "duration": 0.07545037500000262,
            "durationTicks": 67,
            "midi": 53,
            "name": "F3",
            "ticks": 101995,
            "time": 114.859119375,
            "velocity": 0.6141732283464567
          },
          {
            "duration": 0.05968462500001692,
            "durationTicks": 53,
            "midi": 55,
            "name": "G3",
            "ticks": 102002,
            "time": 114.86700225,
            "velocity": 0.7086614173228346
          },
          {
            "duration": 0.06981974999999352,
            "durationTicks": 62,
            "midi": 57,
            "name": "A3",
            "ticks": 102358,
            "time": 115.26790275,
            "velocity": 0.7086614173228346
          },
          {
            "duration": 0.07545037500001683,
            "durationTicks": 67,
            "midi": 55,
            "name": "G3",
            "ticks": 102364,
            "time": 115.2746595,
            "velocity": 0.6141732283464567
          },
          {
            "duration": 1.0202692500000126,
            "durationTicks": 906,
            "midi": 57,
            "name": "A3",
            "ticks": 102605,
            "time": 115.546055625,
            "velocity": 0.5511811023622047
          },
          {
            "duration": 1.1069808750000192,
            "durationTicks": 983,
            "midi": 58,
            "name": "A#3",
            "ticks": 102606,
            "time": 115.54718175,
            "velocity": 0.6220472440944882
          },
          {
            "duration": 0.06756749999999556,
            "durationTicks": 60,
            "midi": 53,
            "name": "F3",
            "ticks": 103907,
            "time": 117.012270375,
            "velocity": 0.6141732283464567
          },
          {
            "duration": 0.07995487499999854,
            "durationTicks": 71,
            "midi": 55,
            "name": "G3",
            "ticks": 103916,
            "time": 117.0224055,
            "velocity": 0.7086614173228346
          },
          {
            "duration": 0.06756749999999556,
            "durationTicks": 60,
            "midi": 55,
            "name": "G3",
            "ticks": 104284,
            "time": 117.4368195,
            "velocity": 0.6141732283464567
          },
          {
            "duration": 0.0878377500000056,
            "durationTicks": 78,
            "midi": 57,
            "name": "A3",
            "ticks": 104284,
            "time": 117.4368195,
            "velocity": 0.7086614173228346
          },
          {
            "duration": 0.941440500000013,
            "durationTicks": 836,
            "midi": 58,
            "name": "A#3",
            "ticks": 104524,
            "time": 117.7070895,
            "velocity": 0.6141732283464567
          },
          {
            "duration": 0.8851342500000214,
            "durationTicks": 786,
            "midi": 57,
            "name": "A3",
            "ticks": 104541,
            "time": 117.72623362499999,
            "velocity": 0.6141732283464567
          },
          {
            "duration": 0.0923422499999873,
            "durationTicks": 82,
            "midi": 55,
            "name": "G3",
            "ticks": 105728,
            "time": 119.06294400000002,
            "velocity": 0.7480314960629921
          },
          {
            "duration": 0.06981974999999352,
            "durationTicks": 62,
            "midi": 53,
            "name": "F3",
            "ticks": 105736,
            "time": 119.07195300000001,
            "velocity": 0.6062992125984252
          },
          {
            "duration": 0.07770262500001479,
            "durationTicks": 69,
            "midi": 55,
            "name": "G3",
            "ticks": 106067,
            "time": 119.444700375,
            "velocity": 0.7480314960629921
          },
          {
            "duration": 0.07995487499999854,
            "durationTicks": 71,
            "midi": 57,
            "name": "A3",
            "ticks": 106077,
            "time": 119.45596162500001,
            "velocity": 0.7480314960629921
          },
          {
            "duration": 0.0822071249999965,
            "durationTicks": 73,
            "midi": 55,
            "name": "G3",
            "ticks": 106311,
            "time": 119.719474875,
            "velocity": 0.6929133858267716
          },
          {
            "duration": 0.09008999999998935,
            "durationTicks": 80,
            "midi": 57,
            "name": "A3",
            "ticks": 106320,
            "time": 119.72961000000001,
            "velocity": 0.7480314960629921
          },
          {
            "duration": 0.07545037499998841,
            "durationTicks": 67,
            "midi": 57,
            "name": "A3",
            "ticks": 106558,
            "time": 119.99762775,
            "velocity": 0.6062992125984252
          },
          {
            "duration": 0.07657649999998739,
            "durationTicks": 68,
            "midi": 58,
            "name": "A#3",
            "ticks": 106559,
            "time": 119.998753875,
            "velocity": 0.6929133858267716
          },
          {
            "duration": 0.06981975000002194,
            "durationTicks": 62,
            "midi": 57,
            "name": "A3",
            "ticks": 106806,
            "time": 120.27690675,
            "velocity": 0.6929133858267716
          },
          {
            "duration": 0.0822071250000107,
            "durationTicks": 73,
            "midi": 60,
            "name": "C4",
            "ticks": 106821,
            "time": 120.293798625,
            "velocity": 0.7480314960629921
          },
          {
            "duration": 0.0822071250000107,
            "durationTicks": 73,
            "midi": 57,
            "name": "A3",
            "ticks": 107041,
            "time": 120.541546125,
            "velocity": 0.6062992125984252
          },
          {
            "duration": 0.07995487500001275,
            "durationTicks": 71,
            "midi": 58,
            "name": "A#3",
            "ticks": 107044,
            "time": 120.5449245,
            "velocity": 0.6929133858267716
          },
          {
            "duration": 0.09008999999998935,
            "durationTicks": 80,
            "midi": 57,
            "name": "A3",
            "ticks": 107281,
            "time": 120.811816125,
            "velocity": 0.7480314960629921
          },
          {
            "duration": 0.06306299999999965,
            "durationTicks": 56,
            "midi": 55,
            "name": "G3",
            "ticks": 107283,
            "time": 120.814068375,
            "velocity": 0.6929133858267716
          },
          {
            "duration": 1.2195933750000165,
            "durationTicks": 1083,
            "midi": 55,
            "name": "G3",
            "ticks": 107406,
            "time": 120.95258175,
            "velocity": 0.8818897637795275
          },
          {
            "duration": 1.2150888750000064,
            "durationTicks": 1079,
            "midi": 53,
            "name": "F3",
            "ticks": 107411,
            "time": 120.958212375,
            "velocity": 0.8818897637795275
          },
          {
            "duration": 0.11936925000003384,
            "durationTicks": 106,
            "midi": 55,
            "name": "G3",
            "ticks": 123840,
            "time": 139.45932,
            "velocity": 0.5826771653543307
          },
          {
            "duration": 0.06981974999999352,
            "durationTicks": 62,
            "midi": 55,
            "name": "G3",
            "ticks": 123998,
            "time": 139.63724775,
            "velocity": 0.5511811023622047
          },
          {
            "duration": 0.15540525000000116,
            "durationTicks": 138,
            "midi": 57,
            "name": "A3",
            "ticks": 124062,
            "time": 139.70931975,
            "velocity": 0.6220472440944882
          },
          {
            "duration": 0.14977462499999206,
            "durationTicks": 133,
            "midi": 58,
            "name": "A#3",
            "ticks": 124313,
            "time": 139.991977125,
            "velocity": 0.6220472440944882
          },
          {
            "duration": 0.12387375000000134,
            "durationTicks": 110,
            "midi": 60,
            "name": "C4",
            "ticks": 124563,
            "time": 140.273508375,
            "velocity": 0.5433070866141733
          },
          {
            "duration": 0.17229712500000005,
            "durationTicks": 153,
            "midi": 62,
            "name": "D4",
            "ticks": 124800,
            "time": 140.5404,
            "velocity": 0.6220472440944882
          }
        ]
      },
      {
        "channel": 0,
        "controlChanges": {
          "0": [
            {
              "number": 0,
              "ticks": 600,
              "time": 0.675675,
              "value": 0
            },
            {
              "number": 0,
              "ticks": 620,
              "time": 0.6981975,
              "value": 0
            }
          ],
          "32": [
            {
              "number": 32,
              "ticks": 610,
              "time": 0.68693625,
              "value": 0
            },
            {
              "number": 32,
              "ticks": 620,
              "time": 0.6981975,
              "value": 0
            }
          ]
        },
        "pitchBends": [],
        "instrument": {
          "family": "piano",
          "number": 0,
          "name": "acoustic grand piano"
        },
        "name": "",
        "notes": []
      },
      {
        "channel": 13,
        "controlChanges": {
          "6": [
            {
              "number": 6,
              "ticks": 670,
              "time": 0.75450375,
              "value": 0.09448818897637795
            }
          ],
          "7": [
            {
              "number": 7,
              "ticks": 630,
              "time": 0.70945875,
              "value": 0.5748031496062992
            }
          ],
          "10": [
            {
              "number": 10,
              "ticks": 630,
              "time": 0.70945875,
              "value": 0.5039370078740157
            }
          ],
          "11": [
            {
              "number": 11,
              "ticks": 4755,
              "time": 5.354724375,
              "value": 1
            },
            {
              "number": 11,
              "ticks": 4770,
              "time": 5.371616250000001,
              "value": 1
            },
            {
              "number": 11,
              "ticks": 4785,
              "time": 5.388508125,
              "value": 1
            },
            {
              "number": 11,
              "ticks": 4800,
              "time": 5.4054,
              "value": 0.984251968503937
            },
            {
              "number": 11,
              "ticks": 4815,
              "time": 5.422291875,
              "value": 0.952755905511811
            },
            {
              "number": 11,
              "ticks": 4830,
              "time": 5.43918375,
              "value": 0.937007874015748
            },
            {
              "number": 11,
              "ticks": 4845,
              "time": 5.456075625,
              "value": 0.8976377952755905
            },
            {
              "number": 11,
              "ticks": 4860,
              "time": 5.4729675,
              "value": 0.8818897637795275
            },
            {
              "number": 11,
              "ticks": 4875,
              "time": 5.489859375,
              "value": 0.8582677165354331
            },
            {
              "number": 11,
              "ticks": 4890,
              "time": 5.506751250000001,
              "value": 0.8582677165354331
            },
            {
              "number": 11,
              "ticks": 4905,
              "time": 5.523643125,
              "value": 0.8503937007874016
            },
            {
              "number": 11,
              "ticks": 4920,
              "time": 5.540535,
              "value": 0.8346456692913385
            },
            {
              "number": 11,
              "ticks": 4935,
              "time": 5.557426875,
              "value": 0.8110236220472441
            },
            {
              "number": 11,
              "ticks": 4950,
              "time": 5.57431875,
              "value": 0.8110236220472441
            },
            {
              "number": 11,
              "ticks": 4965,
              "time": 5.591210625,
              "value": 0.7952755905511811
            },
            {
              "number": 11,
              "ticks": 4980,
              "time": 5.6081025,
              "value": 0.7952755905511811
            },
            {
              "number": 11,
              "ticks": 4995,
              "time": 5.624994375,
              "value": 0.7795275590551181
            },
            {
              "number": 11,
              "ticks": 5010,
              "time": 5.641886250000001,
              "value": 0.7795275590551181
            },
            {
              "number": 11,
              "ticks": 5014,
              "time": 5.64639075,
              "value": 0.7795275590551181
            },
            {
              "number": 11,
              "ticks": 5040,
              "time": 5.67567,
              "value": 0.7559055118110236
            },
            {
              "number": 11,
              "ticks": 5055,
              "time": 5.692561875,
              "value": 0.7559055118110236
            },
            {
              "number": 11,
              "ticks": 5070,
              "time": 5.70945375,
              "value": 0.7637795275590551
            },
            {
              "number": 11,
              "ticks": 5085,
              "time": 5.726345625,
              "value": 0.7795275590551181
            },
            {
              "number": 11,
              "ticks": 5100,
              "time": 5.7432375,
              "value": 0.7874015748031497
            },
            {
              "number": 11,
              "ticks": 5115,
              "time": 5.760129375,
              "value": 0.7874015748031497
            },
            {
              "number": 11,
              "ticks": 5130,
              "time": 5.777021250000001,
              "value": 0.7952755905511811
            },
            {
              "number": 11,
              "ticks": 5145,
              "time": 5.793913125,
              "value": 0.8110236220472441
            },
            {
              "number": 11,
              "ticks": 5160,
              "time": 5.810805,
              "value": 0.8267716535433071
            },
            {
              "number": 11,
              "ticks": 5175,
              "time": 5.827696875,
              "value": 0.8346456692913385
            },
            {
              "number": 11,
              "ticks": 5190,
              "time": 5.84458875,
              "value": 0.8346456692913385
            },
            {
              "number": 11,
              "ticks": 5205,
              "time": 5.861480625,
              "value": 0.84251968503937
            },
            {
              "number": 11,
              "ticks": 5220,
              "time": 5.8783725,
              "value": 0.8503937007874016
            },
            {
              "number": 11,
              "ticks": 5235,
              "time": 5.895264375,
              "value": 0.8503937007874016
            },
            {
              "number": 11,
              "ticks": 5250,
              "time": 5.912156250000001,
              "value": 0.8661417322834646
            },
            {
              "number": 11,
              "ticks": 5265,
              "time": 5.9290481250000004,
              "value": 0.8740157480314961
            },
            {
              "number": 11,
              "ticks": 5280,
              "time": 5.94594,
              "value": 0.8818897637795275
            },
            {
              "number": 11,
              "ticks": 5295,
              "time": 5.962831875,
              "value": 0.8976377952755905
            },
            {
              "number": 11,
              "ticks": 5310,
              "time": 5.97972375,
              "value": 0.9133858267716536
            },
            {
              "number": 11,
              "ticks": 5325,
              "time": 5.9966156250000004,
              "value": 0.9212598425196851
            },
            {
              "number": 11,
              "ticks": 5340,
              "time": 6.0135075,
              "value": 0.9291338582677166
            },
            {
              "number": 11,
              "ticks": 5355,
              "time": 6.030399375,
              "value": 0.9291338582677166
            },
            {
              "number": 11,
              "ticks": 5370,
              "time": 6.047291250000001,
              "value": 0.937007874015748
            },
            {
              "number": 11,
              "ticks": 5385,
              "time": 6.0641831250000005,
              "value": 0.952755905511811
            },
            {
              "number": 11,
              "ticks": 5400,
              "time": 6.081075,
              "value": 0.9606299212598425
            },
            {
              "number": 11,
              "ticks": 5415,
              "time": 6.097966875,
              "value": 0.968503937007874
            },
            {
              "number": 11,
              "ticks": 5430,
              "time": 6.11485875,
              "value": 1
            },
            {
              "number": 11,
              "ticks": 5445,
              "time": 6.1317506250000005,
              "value": 1
            },
            {
              "number": 11,
              "ticks": 5460,
              "time": 6.1486425,
              "value": 1
            },
            {
              "number": 11,
              "ticks": 5475,
              "time": 6.165534375,
              "value": 1
            },
            {
              "number": 11,
              "ticks": 5490,
              "time": 6.182426250000001,
              "value": 1
            },
            {
              "number": 11,
              "ticks": 5505,
              "time": 6.1993181250000005,
              "value": 1
            },
            {
              "number": 11,
              "ticks": 5520,
              "time": 6.21621,
              "value": 1
            },
            {
              "number": 11,
              "ticks": 5569,
              "time": 6.271390125,
              "value": 1
            },
            {
              "number": 11,
              "ticks": 5570,
              "time": 6.27251625,
              "value": 1
            },
            {
              "number": 11,
              "ticks": 6668,
              "time": 7.509001500000001,
              "value": 1
            },
            {
              "number": 11,
              "ticks": 6683,
              "time": 7.525893375000001,
              "value": 1
            },
            {
              "number": 11,
              "ticks": 6698,
              "time": 7.5427852500000006,
              "value": 1
            },
            {
              "number": 11,
              "ticks": 6713,
              "time": 7.559677125,
              "value": 0.984251968503937
            },
            {
              "number": 11,
              "ticks": 6728,
              "time": 7.576569000000001,
              "value": 0.952755905511811
            },
            {
              "number": 11,
              "ticks": 6743,
              "time": 7.593460875000001,
              "value": 0.937007874015748
            },
            {
              "number": 11,
              "ticks": 6758,
              "time": 7.6103527500000006,
              "value": 0.8976377952755905
            },
            {
              "number": 11,
              "ticks": 6773,
              "time": 7.627244625,
              "value": 0.8818897637795275
            },
            {
              "number": 11,
              "ticks": 6788,
              "time": 7.644136500000001,
              "value": 0.8582677165354331
            },
            {
              "number": 11,
              "ticks": 6803,
              "time": 7.661028375000001,
              "value": 0.8582677165354331
            },
            {
              "number": 11,
              "ticks": 6818,
              "time": 7.677920250000001,
              "value": 0.8503937007874016
            },
            {
              "number": 11,
              "ticks": 6833,
              "time": 7.694812125,
              "value": 0.8346456692913385
            },
            {
              "number": 11,
              "ticks": 6848,
              "time": 7.711704000000001,
              "value": 0.8110236220472441
            },
            {
              "number": 11,
              "ticks": 6863,
              "time": 7.728595875000001,
              "value": 0.8110236220472441
            },
            {
              "number": 11,
              "ticks": 6878,
              "time": 7.745487750000001,
              "value": 0.7952755905511811
            },
            {
              "number": 11,
              "ticks": 6893,
              "time": 7.762379625,
              "value": 0.7952755905511811
            },
            {
              "number": 11,
              "ticks": 6908,
              "time": 7.779271500000001,
              "value": 0.7795275590551181
            },
            {
              "number": 11,
              "ticks": 6923,
              "time": 7.796163375000001,
              "value": 0.7795275590551181
            },
            {
              "number": 11,
              "ticks": 6927,
              "time": 7.800667875,
              "value": 0.7795275590551181
            },
            {
              "number": 11,
              "ticks": 6953,
              "time": 7.829947125,
              "value": 0.7559055118110236
            },
            {
              "number": 11,
              "ticks": 6968,
              "time": 7.846839000000001,
              "value": 0.7559055118110236
            },
            {
              "number": 11,
              "ticks": 6983,
              "time": 7.863730875000001,
              "value": 0.7637795275590551
            },
            {
              "number": 11,
              "ticks": 6998,
              "time": 7.880622750000001,
              "value": 0.7795275590551181
            },
            {
              "number": 11,
              "ticks": 7013,
              "time": 7.897514625,
              "value": 0.7874015748031497
            },
            {
              "number": 11,
              "ticks": 7028,
              "time": 7.914406500000001,
              "value": 0.7874015748031497
            },
            {
              "number": 11,
              "ticks": 7043,
              "time": 7.931298375000001,
              "value": 0.7952755905511811
            },
            {
              "number": 11,
              "ticks": 7058,
              "time": 7.948190250000001,
              "value": 0.8110236220472441
            },
            {
              "number": 11,
              "ticks": 7073,
              "time": 7.965082125,
              "value": 0.8267716535433071
            },
            {
              "number": 11,
              "ticks": 7088,
              "time": 7.981974000000001,
              "value": 0.8346456692913385
            },
            {
              "number": 11,
              "ticks": 7103,
              "time": 7.998865875000001,
              "value": 0.8346456692913385
            },
            {
              "number": 11,
              "ticks": 7118,
              "time": 8.01575775,
              "value": 0.84251968503937
            },
            {
              "number": 11,
              "ticks": 7133,
              "time": 8.032649625000001,
              "value": 0.8503937007874016
            },
            {
              "number": 11,
              "ticks": 7148,
              "time": 8.0495415,
              "value": 0.8503937007874016
            },
            {
              "number": 11,
              "ticks": 7163,
              "time": 8.066433375,
              "value": 0.8661417322834646
            },
            {
              "number": 11,
              "ticks": 7178,
              "time": 8.083325250000001,
              "value": 0.8740157480314961
            },
            {
              "number": 11,
              "ticks": 7193,
              "time": 8.100217125,
              "value": 0.8818897637795275
            },
            {
              "number": 11,
              "ticks": 7208,
              "time": 8.117109000000001,
              "value": 0.8976377952755905
            },
            {
              "number": 11,
              "ticks": 7223,
              "time": 8.134000875,
              "value": 0.9133858267716536
            },
            {
              "number": 11,
              "ticks": 7238,
              "time": 8.15089275,
              "value": 0.9212598425196851
            },
            {
              "number": 11,
              "ticks": 7253,
              "time": 8.167784625000001,
              "value": 0.9291338582677166
            },
            {
              "number": 11,
              "ticks": 7268,
              "time": 8.1846765,
              "value": 0.9291338582677166
            },
            {
              "number": 11,
              "ticks": 7283,
              "time": 8.201568375,
              "value": 0.937007874015748
            },
            {
              "number": 11,
              "ticks": 7298,
              "time": 8.218460250000001,
              "value": 0.952755905511811
            },
            {
              "number": 11,
              "ticks": 7313,
              "time": 8.235352125,
              "value": 0.9606299212598425
            },
            {
              "number": 11,
              "ticks": 7328,
              "time": 8.252244000000001,
              "value": 0.968503937007874
            },
            {
              "number": 11,
              "ticks": 7343,
              "time": 8.269135875,
              "value": 1
            },
            {
              "number": 11,
              "ticks": 7358,
              "time": 8.28602775,
              "value": 1
            },
            {
              "number": 11,
              "ticks": 7373,
              "time": 8.302919625000001,
              "value": 1
            },
            {
              "number": 11,
              "ticks": 7388,
              "time": 8.3198115,
              "value": 1
            },
            {
              "number": 11,
              "ticks": 7403,
              "time": 8.336703375,
              "value": 1
            },
            {
              "number": 11,
              "ticks": 7418,
              "time": 8.353595250000001,
              "value": 1
            },
            {
              "number": 11,
              "ticks": 7433,
              "time": 8.370487125,
              "value": 1
            },
            {
              "number": 11,
              "ticks": 7482,
              "time": 8.42566725,
              "value": 1
            },
            {
              "number": 11,
              "ticks": 7483,
              "time": 8.426793375,
              "value": 1
            },
            {
              "number": 11,
              "ticks": 9580,
              "time": 10.7882775,
              "value": 1
            },
            {
              "number": 11,
              "ticks": 9595,
              "time": 10.805169375,
              "value": 0.9921259842519685
            },
            {
              "number": 11,
              "ticks": 9610,
              "time": 10.822061249999999,
              "value": 0.984251968503937
            },
            {
              "number": 11,
              "ticks": 9625,
              "time": 10.838953125,
              "value": 0.968503937007874
            },
            {
              "number": 11,
              "ticks": 9640,
              "time": 10.855845,
              "value": 0.9606299212598425
            },
            {
              "number": 11,
              "ticks": 9655,
              "time": 10.872736875,
              "value": 0.952755905511811
            },
            {
              "number": 11,
              "ticks": 9670,
              "time": 10.88962875,
              "value": 0.937007874015748
            },
            {
              "number": 11,
              "ticks": 9685,
              "time": 10.906520625,
              "value": 0.9291338582677166
            },
            {
              "number": 11,
              "ticks": 9700,
              "time": 10.9234125,
              "value": 0.9133858267716536
            },
            {
              "number": 11,
              "ticks": 9715,
              "time": 10.940304375,
              "value": 0.905511811023622
            },
            {
              "number": 11,
              "ticks": 9730,
              "time": 10.957196249999999,
              "value": 0.8976377952755905
            },
            {
              "number": 11,
              "ticks": 9745,
              "time": 10.974088125,
              "value": 0.8818897637795275
            },
            {
              "number": 11,
              "ticks": 9760,
              "time": 10.99098,
              "value": 0.8740157480314961
            },
            {
              "number": 11,
              "ticks": 9775,
              "time": 11.007871875,
              "value": 0.8582677165354331
            },
            {
              "number": 11,
              "ticks": 9790,
              "time": 11.02476375,
              "value": 0.8503937007874016
            },
            {
              "number": 11,
              "ticks": 9805,
              "time": 11.041655625,
              "value": 0.84251968503937
            },
            {
              "number": 11,
              "ticks": 9820,
              "time": 11.0585475,
              "value": 0.8267716535433071
            },
            {
              "number": 11,
              "ticks": 9835,
              "time": 11.075439375,
              "value": 0.8188976377952756
            },
            {
              "number": 11,
              "ticks": 9850,
              "time": 11.092331249999999,
              "value": 0.8031496062992126
            },
            {
              "number": 11,
              "ticks": 9865,
              "time": 11.109223125,
              "value": 0.7952755905511811
            },
            {
              "number": 11,
              "ticks": 9880,
              "time": 11.126115,
              "value": 0.7874015748031497
            },
            {
              "number": 11,
              "ticks": 9895,
              "time": 11.143006875,
              "value": 0.7716535433070866
            },
            {
              "number": 11,
              "ticks": 9910,
              "time": 11.15989875,
              "value": 0.7637795275590551
            },
            {
              "number": 11,
              "ticks": 9925,
              "time": 11.176790625,
              "value": 0.7559055118110236
            },
            {
              "number": 11,
              "ticks": 9940,
              "time": 11.1936825,
              "value": 0.7401574803149606
            },
            {
              "number": 11,
              "ticks": 9955,
              "time": 11.210574375,
              "value": 0.7322834645669292
            },
            {
              "number": 11,
              "ticks": 9970,
              "time": 11.227466249999999,
              "value": 0.7165354330708661
            },
            {
              "number": 11,
              "ticks": 9979,
              "time": 11.237601375,
              "value": 0.7086614173228346
            },
            {
              "number": 11,
              "ticks": 10060,
              "time": 11.3288175,
              "value": 0.7086614173228346
            },
            {
              "number": 11,
              "ticks": 10079,
              "time": 11.350213875,
              "value": 0.7165354330708661
            },
            {
              "number": 11,
              "ticks": 10099,
              "time": 11.372736375,
              "value": 0.7244094488188977
            },
            {
              "number": 11,
              "ticks": 10119,
              "time": 11.395258875000001,
              "value": 0.7322834645669292
            },
            {
              "number": 11,
              "ticks": 10139,
              "time": 11.417781374999999,
              "value": 0.7401574803149606
            },
            {
              "number": 11,
              "ticks": 10159,
              "time": 11.440303875,
              "value": 0.7480314960629921
            },
            {
              "number": 11,
              "ticks": 10179,
              "time": 11.462826375,
              "value": 0.7559055118110236
            },
            {
              "number": 11,
              "ticks": 10199,
              "time": 11.485348875,
              "value": 0.7637795275590551
            },
            {
              "number": 11,
              "ticks": 10219,
              "time": 11.507871375,
              "value": 0.7716535433070866
            },
            {
              "number": 11,
              "ticks": 10239,
              "time": 11.530393875000001,
              "value": 0.7795275590551181
            },
            {
              "number": 11,
              "ticks": 10259,
              "time": 11.552916374999999,
              "value": 0.7874015748031497
            },
            {
              "number": 11,
              "ticks": 10279,
              "time": 11.575438875,
              "value": 0.7952755905511811
            },
            {
              "number": 11,
              "ticks": 10299,
              "time": 11.597961375,
              "value": 0.8031496062992126
            },
            {
              "number": 11,
              "ticks": 10319,
              "time": 11.620483875,
              "value": 0.8110236220472441
            },
            {
              "number": 11,
              "ticks": 10339,
              "time": 11.643006375,
              "value": 0.8188976377952756
            },
            {
              "number": 11,
              "ticks": 10359,
              "time": 11.665528875000001,
              "value": 0.8267716535433071
            },
            {
              "number": 11,
              "ticks": 10379,
              "time": 11.688051374999999,
              "value": 0.8346456692913385
            },
            {
              "number": 11,
              "ticks": 10399,
              "time": 11.710573875,
              "value": 0.84251968503937
            },
            {
              "number": 11,
              "ticks": 10419,
              "time": 11.733096375,
              "value": 0.8503937007874016
            },
            {
              "number": 11,
              "ticks": 10439,
              "time": 11.755618875,
              "value": 0.8582677165354331
            },
            {
              "number": 11,
              "ticks": 10459,
              "time": 11.778141375,
              "value": 0.8661417322834646
            },
            {
              "number": 11,
              "ticks": 10479,
              "time": 11.800663875000001,
              "value": 0.8740157480314961
            },
            {
              "number": 11,
              "ticks": 10499,
              "time": 11.823186374999999,
              "value": 0.8818897637795275
            },
            {
              "number": 11,
              "ticks": 10519,
              "time": 11.845708875,
              "value": 0.889763779527559
            },
            {
              "number": 11,
              "ticks": 10539,
              "time": 11.868231375,
              "value": 0.8976377952755905
            },
            {
              "number": 11,
              "ticks": 10559,
              "time": 11.890753875,
              "value": 0.905511811023622
            },
            {
              "number": 11,
              "ticks": 10579,
              "time": 11.913276375,
              "value": 0.9133858267716536
            },
            {
              "number": 11,
              "ticks": 10599,
              "time": 11.935798875000001,
              "value": 0.9212598425196851
            },
            {
              "number": 11,
              "ticks": 10619,
              "time": 11.958321374999999,
              "value": 0.9291338582677166
            },
            {
              "number": 11,
              "ticks": 10639,
              "time": 11.980843875,
              "value": 0.937007874015748
            },
            {
              "number": 11,
              "ticks": 10659,
              "time": 12.003366375,
              "value": 0.9448818897637795
            },
            {
              "number": 11,
              "ticks": 10679,
              "time": 12.025888875,
              "value": 0.952755905511811
            },
            {
              "number": 11,
              "ticks": 10699,
              "time": 12.048411375,
              "value": 0.9606299212598425
            },
            {
              "number": 11,
              "ticks": 10719,
              "time": 12.070933875000001,
              "value": 0.968503937007874
            },
            {
              "number": 11,
              "ticks": 10739,
              "time": 12.093456374999999,
              "value": 0.9763779527559056
            },
            {
              "number": 11,
              "ticks": 10759,
              "time": 12.115978875,
              "value": 0.984251968503937
            },
            {
              "number": 11,
              "ticks": 10779,
              "time": 12.138501375,
              "value": 0.9921259842519685
            },
            {
              "number": 11,
              "ticks": 10799,
              "time": 12.161023875,
              "value": 1
            },
            {
              "number": 11,
              "ticks": 12430,
              "time": 13.99773375,
              "value": 1
            },
            {
              "number": 11,
              "ticks": 12445,
              "time": 14.014625625,
              "value": 1
            },
            {
              "number": 11,
              "ticks": 12460,
              "time": 14.0315175,
              "value": 1
            },
            {
              "number": 11,
              "ticks": 12475,
              "time": 14.048409375,
              "value": 0.984251968503937
            },
            {
              "number": 11,
              "ticks": 12490,
              "time": 14.06530125,
              "value": 0.952755905511811
            },
            {
              "number": 11,
              "ticks": 12505,
              "time": 14.082193125,
              "value": 0.937007874015748
            },
            {
              "number": 11,
              "ticks": 12520,
              "time": 14.099085,
              "value": 0.8976377952755905
            },
            {
              "number": 11,
              "ticks": 12535,
              "time": 14.115976875,
              "value": 0.8818897637795275
            },
            {
              "number": 11,
              "ticks": 12550,
              "time": 14.13286875,
              "value": 0.8582677165354331
            },
            {
              "number": 11,
              "ticks": 12565,
              "time": 14.149760625,
              "value": 0.8582677165354331
            },
            {
              "number": 11,
              "ticks": 12580,
              "time": 14.1666525,
              "value": 0.8503937007874016
            },
            {
              "number": 11,
              "ticks": 12595,
              "time": 14.183544375,
              "value": 0.8346456692913385
            },
            {
              "number": 11,
              "ticks": 12610,
              "time": 14.20043625,
              "value": 0.8110236220472441
            },
            {
              "number": 11,
              "ticks": 12625,
              "time": 14.217328125,
              "value": 0.8110236220472441
            },
            {
              "number": 11,
              "ticks": 12640,
              "time": 14.23422,
              "value": 0.7952755905511811
            },
            {
              "number": 11,
              "ticks": 12655,
              "time": 14.251111875,
              "value": 0.7952755905511811
            },
            {
              "number": 11,
              "ticks": 12670,
              "time": 14.26800375,
              "value": 0.7795275590551181
            },
            {
              "number": 11,
              "ticks": 12685,
              "time": 14.284895625,
              "value": 0.7795275590551181
            },
            {
              "number": 11,
              "ticks": 12689,
              "time": 14.289400125,
              "value": 0.7795275590551181
            },
            {
              "number": 11,
              "ticks": 12715,
              "time": 14.318679375,
              "value": 0.7559055118110236
            },
            {
              "number": 11,
              "ticks": 12730,
              "time": 14.33557125,
              "value": 0.7559055118110236
            },
            {
              "number": 11,
              "ticks": 12745,
              "time": 14.352463125,
              "value": 0.7637795275590551
            },
            {
              "number": 11,
              "ticks": 12760,
              "time": 14.369355,
              "value": 0.7795275590551181
            },
            {
              "number": 11,
              "ticks": 12775,
              "time": 14.386246875,
              "value": 0.7874015748031497
            },
            {
              "number": 11,
              "ticks": 12790,
              "time": 14.40313875,
              "value": 0.7874015748031497
            },
            {
              "number": 11,
              "ticks": 12805,
              "time": 14.420030625,
              "value": 0.7952755905511811
            },
            {
              "number": 11,
              "ticks": 12820,
              "time": 14.4369225,
              "value": 0.8110236220472441
            },
            {
              "number": 11,
              "ticks": 12835,
              "time": 14.453814375,
              "value": 0.8267716535433071
            },
            {
              "number": 11,
              "ticks": 12850,
              "time": 14.47070625,
              "value": 0.8346456692913385
            },
            {
              "number": 11,
              "ticks": 12865,
              "time": 14.487598125,
              "value": 0.8346456692913385
            },
            {
              "number": 11,
              "ticks": 12880,
              "time": 14.50449,
              "value": 0.84251968503937
            },
            {
              "number": 11,
              "ticks": 12895,
              "time": 14.521381875,
              "value": 0.8503937007874016
            },
            {
              "number": 11,
              "ticks": 12910,
              "time": 14.53827375,
              "value": 0.8503937007874016
            },
            {
              "number": 11,
              "ticks": 12925,
              "time": 14.555165625,
              "value": 0.8661417322834646
            },
            {
              "number": 11,
              "ticks": 12940,
              "time": 14.5720575,
              "value": 0.8740157480314961
            },
            {
              "number": 11,
              "ticks": 12955,
              "time": 14.588949375,
              "value": 0.8818897637795275
            },
            {
              "number": 11,
              "ticks": 12970,
              "time": 14.60584125,
              "value": 0.8976377952755905
            },
            {
              "number": 11,
              "ticks": 12985,
              "time": 14.622733125,
              "value": 0.9133858267716536
            },
            {
              "number": 11,
              "ticks": 13000,
              "time": 14.639625,
              "value": 0.9212598425196851
            },
            {
              "number": 11,
              "ticks": 13015,
              "time": 14.656516875,
              "value": 0.9291338582677166
            },
            {
              "number": 11,
              "ticks": 13030,
              "time": 14.67340875,
              "value": 0.9291338582677166
            },
            {
              "number": 11,
              "ticks": 13045,
              "time": 14.690300625,
              "value": 0.937007874015748
            },
            {
              "number": 11,
              "ticks": 13060,
              "time": 14.7071925,
              "value": 0.952755905511811
            },
            {
              "number": 11,
              "ticks": 13075,
              "time": 14.724084375,
              "value": 0.9606299212598425
            },
            {
              "number": 11,
              "ticks": 13090,
              "time": 14.74097625,
              "value": 0.968503937007874
            },
            {
              "number": 11,
              "ticks": 13105,
              "time": 14.757868125,
              "value": 1
            },
            {
              "number": 11,
              "ticks": 13120,
              "time": 14.77476,
              "value": 1
            },
            {
              "number": 11,
              "ticks": 13135,
              "time": 14.791651875,
              "value": 1
            },
            {
              "number": 11,
              "ticks": 13150,
              "time": 14.80854375,
              "value": 1
            },
            {
              "number": 11,
              "ticks": 13165,
              "time": 14.825435625,
              "value": 1
            },
            {
              "number": 11,
              "ticks": 13180,
              "time": 14.8423275,
              "value": 1
            },
            {
              "number": 11,
              "ticks": 13195,
              "time": 14.859219375,
              "value": 1
            },
            {
              "number": 11,
              "ticks": 13244,
              "time": 14.9143995,
              "value": 1
            },
            {
              "number": 11,
              "ticks": 13245,
              "time": 14.915525625,
              "value": 1
            },
            {
              "number": 11,
              "ticks": 14363,
              "time": 16.174533375,
              "value": 1
            },
            {
              "number": 11,
              "ticks": 14378,
              "time": 16.19142525,
              "value": 1
            },
            {
              "number": 11,
              "ticks": 14393,
              "time": 16.208317125,
              "value": 1
            },
            {
              "number": 11,
              "ticks": 14408,
              "time": 16.225209,
              "value": 0.984251968503937
            },
            {
              "number": 11,
              "ticks": 14423,
              "time": 16.242100875,
              "value": 0.952755905511811
            },
            {
              "number": 11,
              "ticks": 14438,
              "time": 16.25899275,
              "value": 0.937007874015748
            },
            {
              "number": 11,
              "ticks": 14453,
              "time": 16.275884625,
              "value": 0.8976377952755905
            },
            {
              "number": 11,
              "ticks": 14468,
              "time": 16.2927765,
              "value": 0.8818897637795275
            },
            {
              "number": 11,
              "ticks": 14483,
              "time": 16.309668375,
              "value": 0.8582677165354331
            },
            {
              "number": 11,
              "ticks": 14498,
              "time": 16.32656025,
              "value": 0.8582677165354331
            },
            {
              "number": 11,
              "ticks": 14513,
              "time": 16.343452125,
              "value": 0.8503937007874016
            },
            {
              "number": 11,
              "ticks": 14528,
              "time": 16.360344,
              "value": 0.8346456692913385
            },
            {
              "number": 11,
              "ticks": 14543,
              "time": 16.377235875,
              "value": 0.8110236220472441
            },
            {
              "number": 11,
              "ticks": 14558,
              "time": 16.39412775,
              "value": 0.8110236220472441
            },
            {
              "number": 11,
              "ticks": 14573,
              "time": 16.411019625,
              "value": 0.7952755905511811
            },
            {
              "number": 11,
              "ticks": 14588,
              "time": 16.4279115,
              "value": 0.7952755905511811
            },
            {
              "number": 11,
              "ticks": 14603,
              "time": 16.444803375,
              "value": 0.7795275590551181
            },
            {
              "number": 11,
              "ticks": 14618,
              "time": 16.461695250000002,
              "value": 0.7795275590551181
            },
            {
              "number": 11,
              "ticks": 14622,
              "time": 16.46619975,
              "value": 0.7795275590551181
            },
            {
              "number": 11,
              "ticks": 14648,
              "time": 16.495479,
              "value": 0.7559055118110236
            },
            {
              "number": 11,
              "ticks": 14663,
              "time": 16.512370875,
              "value": 0.7559055118110236
            },
            {
              "number": 11,
              "ticks": 14678,
              "time": 16.52926275,
              "value": 0.7637795275590551
            },
            {
              "number": 11,
              "ticks": 14693,
              "time": 16.546154625,
              "value": 0.7795275590551181
            },
            {
              "number": 11,
              "ticks": 14708,
              "time": 16.5630465,
              "value": 0.7874015748031497
            },
            {
              "number": 11,
              "ticks": 14723,
              "time": 16.579938375,
              "value": 0.7874015748031497
            },
            {
              "number": 11,
              "ticks": 14738,
              "time": 16.59683025,
              "value": 0.7952755905511811
            },
            {
              "number": 11,
              "ticks": 14753,
              "time": 16.613722125,
              "value": 0.8110236220472441
            },
            {
              "number": 11,
              "ticks": 14768,
              "time": 16.630614,
              "value": 0.8267716535433071
            },
            {
              "number": 11,
              "ticks": 14783,
              "time": 16.647505875,
              "value": 0.8346456692913385
            },
            {
              "number": 11,
              "ticks": 14798,
              "time": 16.66439775,
              "value": 0.8346456692913385
            },
            {
              "number": 11,
              "ticks": 14813,
              "time": 16.681289625,
              "value": 0.84251968503937
            },
            {
              "number": 11,
              "ticks": 14828,
              "time": 16.6981815,
              "value": 0.8503937007874016
            },
            {
              "number": 11,
              "ticks": 14843,
              "time": 16.715073375,
              "value": 0.8503937007874016
            },
            {
              "number": 11,
              "ticks": 14858,
              "time": 16.731965250000002,
              "value": 0.8661417322834646
            },
            {
              "number": 11,
              "ticks": 14873,
              "time": 16.748857125,
              "value": 0.8740157480314961
            },
            {
              "number": 11,
              "ticks": 14888,
              "time": 16.765749,
              "value": 0.8818897637795275
            },
            {
              "number": 11,
              "ticks": 14903,
              "time": 16.782640875,
              "value": 0.8976377952755905
            },
            {
              "number": 11,
              "ticks": 14918,
              "time": 16.79953275,
              "value": 0.9133858267716536
            },
            {
              "number": 11,
              "ticks": 14933,
              "time": 16.816424625,
              "value": 0.9212598425196851
            },
            {
              "number": 11,
              "ticks": 14948,
              "time": 16.8333165,
              "value": 0.9291338582677166
            },
            {
              "number": 11,
              "ticks": 14963,
              "time": 16.850208375,
              "value": 0.9291338582677166
            },
            {
              "number": 11,
              "ticks": 14978,
              "time": 16.86710025,
              "value": 0.937007874015748
            },
            {
              "number": 11,
              "ticks": 14993,
              "time": 16.883992125,
              "value": 0.952755905511811
            },
            {
              "number": 11,
              "ticks": 15008,
              "time": 16.900884,
              "value": 0.9606299212598425
            },
            {
              "number": 11,
              "ticks": 15023,
              "time": 16.917775875,
              "value": 0.968503937007874
            },
            {
              "number": 11,
              "ticks": 15038,
              "time": 16.93466775,
              "value": 1
            },
            {
              "number": 11,
              "ticks": 15053,
              "time": 16.951559625,
              "value": 1
            },
            {
              "number": 11,
              "ticks": 15068,
              "time": 16.9684515,
              "value": 1
            },
            {
              "number": 11,
              "ticks": 15083,
              "time": 16.985343375,
              "value": 1
            },
            {
              "number": 11,
              "ticks": 15098,
              "time": 17.002235250000002,
              "value": 1
            },
            {
              "number": 11,
              "ticks": 15113,
              "time": 17.019127125,
              "value": 1
            },
            {
              "number": 11,
              "ticks": 15128,
              "time": 17.036019,
              "value": 1
            },
            {
              "number": 11,
              "ticks": 15177,
              "time": 17.091199125,
              "value": 1
            },
            {
              "number": 11,
              "ticks": 15178,
              "time": 17.092325250000002,
              "value": 1
            },
            {
              "number": 11,
              "ticks": 17146,
              "time": 19.30853925,
              "value": 0.6614173228346457
            },
            {
              "number": 11,
              "ticks": 17161,
              "time": 19.325431124999998,
              "value": 0.6299212598425197
            },
            {
              "number": 11,
              "ticks": 17176,
              "time": 19.342323,
              "value": 0.6062992125984252
            },
            {
              "number": 11,
              "ticks": 17191,
              "time": 19.359214875,
              "value": 0.5748031496062992
            },
            {
              "number": 11,
              "ticks": 17206,
              "time": 19.376106749999998,
              "value": 0.5511811023622047
            },
            {
              "number": 11,
              "ticks": 17221,
              "time": 19.392998625,
              "value": 0.5275590551181102
            },
            {
              "number": 11,
              "ticks": 17236,
              "time": 19.4098905,
              "value": 0.5039370078740157
            },
            {
              "number": 11,
              "ticks": 17251,
              "time": 19.426782375,
              "value": 0.48031496062992124
            },
            {
              "number": 11,
              "ticks": 17266,
              "time": 19.44367425,
              "value": 0.4645669291338583
            },
            {
              "number": 11,
              "ticks": 17281,
              "time": 19.460566125,
              "value": 0.4409448818897638
            },
            {
              "number": 11,
              "ticks": 17285,
              "time": 19.465070625,
              "value": 0.4330708661417323
            },
            {
              "number": 11,
              "ticks": 17441,
              "time": 19.640746125,
              "value": 0.4330708661417323
            },
            {
              "number": 11,
              "ticks": 17456,
              "time": 19.657638000000002,
              "value": 0.4566929133858268
            },
            {
              "number": 11,
              "ticks": 17471,
              "time": 19.674529875,
              "value": 0.48031496062992124
            },
            {
              "number": 11,
              "ticks": 17486,
              "time": 19.69142175,
              "value": 0.5039370078740157
            },
            {
              "number": 11,
              "ticks": 17501,
              "time": 19.708313625000002,
              "value": 0.5275590551181102
            },
            {
              "number": 11,
              "ticks": 17516,
              "time": 19.7252055,
              "value": 0.5433070866141733
            },
            {
              "number": 11,
              "ticks": 17531,
              "time": 19.742097375,
              "value": 0.5669291338582677
            },
            {
              "number": 11,
              "ticks": 17546,
              "time": 19.758989250000003,
              "value": 0.5905511811023622
            },
            {
              "number": 11,
              "ticks": 17561,
              "time": 19.775881125,
              "value": 0.6141732283464567
            },
            {
              "number": 11,
              "ticks": 17576,
              "time": 19.792773,
              "value": 0.6299212598425197
            },
            {
              "number": 11,
              "ticks": 17591,
              "time": 19.809664875,
              "value": 0.6535433070866141
            },
            {
              "number": 11,
              "ticks": 17606,
              "time": 19.82655675,
              "value": 0.6692913385826772
            },
            {
              "number": 11,
              "ticks": 17621,
              "time": 19.843448625,
              "value": 0.6929133858267716
            },
            {
              "number": 11,
              "ticks": 17636,
              "time": 19.8603405,
              "value": 0.7086614173228346
            },
            {
              "number": 11,
              "ticks": 17651,
              "time": 19.877232375000002,
              "value": 0.7322834645669292
            },
            {
              "number": 11,
              "ticks": 17666,
              "time": 19.89412425,
              "value": 0.7480314960629921
            },
            {
              "number": 11,
              "ticks": 17681,
              "time": 19.911016125,
              "value": 0.7637795275590551
            },
            {
              "number": 11,
              "ticks": 17696,
              "time": 19.927908000000002,
              "value": 0.7874015748031497
            },
            {
              "number": 11,
              "ticks": 17711,
              "time": 19.944799875,
              "value": 0.8031496062992126
            },
            {
              "number": 11,
              "ticks": 17726,
              "time": 19.96169175,
              "value": 0.8188976377952756
            },
            {
              "number": 11,
              "ticks": 17741,
              "time": 19.978583625000002,
              "value": 0.8346456692913385
            },
            {
              "number": 11,
              "ticks": 17756,
              "time": 19.9954755,
              "value": 0.8503937007874016
            },
            {
              "number": 11,
              "ticks": 17771,
              "time": 20.012367375,
              "value": 0.8661417322834646
            },
            {
              "number": 11,
              "ticks": 17786,
              "time": 20.029259250000003,
              "value": 0.8818897637795275
            },
            {
              "number": 11,
              "ticks": 17801,
              "time": 20.046151125,
              "value": 0.8976377952755905
            },
            {
              "number": 11,
              "ticks": 17816,
              "time": 20.063043,
              "value": 0.9133858267716536
            },
            {
              "number": 11,
              "ticks": 17831,
              "time": 20.079934875,
              "value": 0.9291338582677166
            },
            {
              "number": 11,
              "ticks": 17846,
              "time": 20.09682675,
              "value": 0.9448818897637795
            },
            {
              "number": 11,
              "ticks": 17861,
              "time": 20.113718625,
              "value": 0.9606299212598425
            },
            {
              "number": 11,
              "ticks": 17876,
              "time": 20.1306105,
              "value": 0.9763779527559056
            },
            {
              "number": 11,
              "ticks": 17951,
              "time": 20.215069875,
              "value": 1
            },
            {
              "number": 11,
              "ticks": 102670,
              "time": 115.61925375000001,
              "value": 1
            },
            {
              "number": 11,
              "ticks": 102685,
              "time": 115.63614562500001,
              "value": 1
            },
            {
              "number": 11,
              "ticks": 102700,
              "time": 115.65303750000001,
              "value": 1
            },
            {
              "number": 11,
              "ticks": 102715,
              "time": 115.66992937500001,
              "value": 0.984251968503937
            },
            {
              "number": 11,
              "ticks": 102730,
              "time": 115.68682125000001,
              "value": 0.952755905511811
            },
            {
              "number": 11,
              "ticks": 102745,
              "time": 115.70371312500001,
              "value": 0.937007874015748
            },
            {
              "number": 11,
              "ticks": 102760,
              "time": 115.720605,
              "value": 0.8976377952755905
            },
            {
              "number": 11,
              "ticks": 102775,
              "time": 115.737496875,
              "value": 0.8818897637795275
            },
            {
              "number": 11,
              "ticks": 102790,
              "time": 115.75438875,
              "value": 0.8582677165354331
            },
            {
              "number": 11,
              "ticks": 102805,
              "time": 115.771280625,
              "value": 0.8582677165354331
            },
            {
              "number": 11,
              "ticks": 102820,
              "time": 115.78817250000002,
              "value": 0.8503937007874016
            },
            {
              "number": 11,
              "ticks": 102835,
              "time": 115.80506437500001,
              "value": 0.8346456692913385
            },
            {
              "number": 11,
              "ticks": 102850,
              "time": 115.82195625000001,
              "value": 0.8110236220472441
            },
            {
              "number": 11,
              "ticks": 102865,
              "time": 115.83884812500001,
              "value": 0.8110236220472441
            },
            {
              "number": 11,
              "ticks": 102880,
              "time": 115.85574000000001,
              "value": 0.7952755905511811
            },
            {
              "number": 11,
              "ticks": 102895,
              "time": 115.87263187500001,
              "value": 0.7952755905511811
            },
            {
              "number": 11,
              "ticks": 102910,
              "time": 115.88952375000001,
              "value": 0.7795275590551181
            },
            {
              "number": 11,
              "ticks": 102925,
              "time": 115.90641562500001,
              "value": 0.7795275590551181
            },
            {
              "number": 11,
              "ticks": 102929,
              "time": 115.910920125,
              "value": 0.7795275590551181
            },
            {
              "number": 11,
              "ticks": 102955,
              "time": 115.940199375,
              "value": 0.7559055118110236
            },
            {
              "number": 11,
              "ticks": 102970,
              "time": 115.95709125,
              "value": 0.7559055118110236
            },
            {
              "number": 11,
              "ticks": 102985,
              "time": 115.973983125,
              "value": 0.7637795275590551
            },
            {
              "number": 11,
              "ticks": 103000,
              "time": 115.990875,
              "value": 0.7795275590551181
            },
            {
              "number": 11,
              "ticks": 103015,
              "time": 116.00776687500002,
              "value": 0.7874015748031497
            },
            {
              "number": 11,
              "ticks": 103030,
              "time": 116.02465875000001,
              "value": 0.7874015748031497
            },
            {
              "number": 11,
              "ticks": 103045,
              "time": 116.04155062500001,
              "value": 0.7952755905511811
            },
            {
              "number": 11,
              "ticks": 103060,
              "time": 116.05844250000001,
              "value": 0.8110236220472441
            },
            {
              "number": 11,
              "ticks": 103075,
              "time": 116.07533437500001,
              "value": 0.8267716535433071
            },
            {
              "number": 11,
              "ticks": 103090,
              "time": 116.09222625000001,
              "value": 0.8346456692913385
            },
            {
              "number": 11,
              "ticks": 103105,
              "time": 116.10911812500001,
              "value": 0.8346456692913385
            },
            {
              "number": 11,
              "ticks": 103120,
              "time": 116.12601000000001,
              "value": 0.84251968503937
            },
            {
              "number": 11,
              "ticks": 103135,
              "time": 116.142901875,
              "value": 0.8503937007874016
            },
            {
              "number": 11,
              "ticks": 103150,
              "time": 116.15979375,
              "value": 0.8503937007874016
            },
            {
              "number": 11,
              "ticks": 103165,
              "time": 116.176685625,
              "value": 0.8661417322834646
            },
            {
              "number": 11,
              "ticks": 103180,
              "time": 116.1935775,
              "value": 0.8740157480314961
            },
            {
              "number": 11,
              "ticks": 103195,
              "time": 116.21046937500002,
              "value": 0.8818897637795275
            },
            {
              "number": 11,
              "ticks": 103210,
              "time": 116.22736125000002,
              "value": 0.8976377952755905
            },
            {
              "number": 11,
              "ticks": 103225,
              "time": 116.24425312500001,
              "value": 0.9133858267716536
            },
            {
              "number": 11,
              "ticks": 103240,
              "time": 116.26114500000001,
              "value": 0.9212598425196851
            },
            {
              "number": 11,
              "ticks": 103255,
              "time": 116.27803687500001,
              "value": 0.9291338582677166
            },
            {
              "number": 11,
              "ticks": 103270,
              "time": 116.29492875000001,
              "value": 0.9291338582677166
            },
            {
              "number": 11,
              "ticks": 103285,
              "time": 116.31182062500001,
              "value": 0.937007874015748
            },
            {
              "number": 11,
              "ticks": 103300,
              "time": 116.32871250000001,
              "value": 0.952755905511811
            },
            {
              "number": 11,
              "ticks": 103315,
              "time": 116.34560437500001,
              "value": 0.9606299212598425
            },
            {
              "number": 11,
              "ticks": 103330,
              "time": 116.36249625,
              "value": 0.968503937007874
            },
            {
              "number": 11,
              "ticks": 103345,
              "time": 116.379388125,
              "value": 1
            },
            {
              "number": 11,
              "ticks": 103360,
              "time": 116.39628,
              "value": 1
            },
            {
              "number": 11,
              "ticks": 103375,
              "time": 116.413171875,
              "value": 1
            },
            {
              "number": 11,
              "ticks": 103390,
              "time": 116.43006375000002,
              "value": 1
            },
            {
              "number": 11,
              "ticks": 103405,
              "time": 116.44695562500002,
              "value": 1
            },
            {
              "number": 11,
              "ticks": 103420,
              "time": 116.46384750000001,
              "value": 1
            },
            {
              "number": 11,
              "ticks": 103435,
              "time": 116.48073937500001,
              "value": 1
            },
            {
              "number": 11,
              "ticks": 103484,
              "time": 116.5359195,
              "value": 1
            },
            {
              "number": 11,
              "ticks": 103485,
              "time": 116.537045625,
              "value": 1
            },
            {
              "number": 11,
              "ticks": 104603,
              "time": 117.79605337500001,
              "value": 1
            },
            {
              "number": 11,
              "ticks": 104618,
              "time": 117.81294525000001,
              "value": 1
            },
            {
              "number": 11,
              "ticks": 104633,
              "time": 117.82983712500001,
              "value": 1
            },
            {
              "number": 11,
              "ticks": 104648,
              "time": 117.84672900000001,
              "value": 0.984251968503937
            },
            {
              "number": 11,
              "ticks": 104663,
              "time": 117.86362087500001,
              "value": 0.952755905511811
            },
            {
              "number": 11,
              "ticks": 104678,
              "time": 117.88051275000001,
              "value": 0.937007874015748
            },
            {
              "number": 11,
              "ticks": 104693,
              "time": 117.89740462500001,
              "value": 0.8976377952755905
            },
            {
              "number": 11,
              "ticks": 104708,
              "time": 117.9142965,
              "value": 0.8818897637795275
            },
            {
              "number": 11,
              "ticks": 104723,
              "time": 117.931188375,
              "value": 0.8582677165354331
            },
            {
              "number": 11,
              "ticks": 104738,
              "time": 117.94808025000002,
              "value": 0.8582677165354331
            },
            {
              "number": 11,
              "ticks": 104753,
              "time": 117.96497212500002,
              "value": 0.8503937007874016
            },
            {
              "number": 11,
              "ticks": 104768,
              "time": 117.98186400000002,
              "value": 0.8346456692913385
            },
            {
              "number": 11,
              "ticks": 104783,
              "time": 117.99875587500001,
              "value": 0.8110236220472441
            },
            {
              "number": 11,
              "ticks": 104798,
              "time": 118.01564775000001,
              "value": 0.8110236220472441
            },
            {
              "number": 11,
              "ticks": 104813,
              "time": 118.03253962500001,
              "value": 0.7952755905511811
            },
            {
              "number": 11,
              "ticks": 104828,
              "time": 118.04943150000001,
              "value": 0.7952755905511811
            },
            {
              "number": 11,
              "ticks": 104843,
              "time": 118.06632337500001,
              "value": 0.7795275590551181
            },
            {
              "number": 11,
              "ticks": 104858,
              "time": 118.08321525000001,
              "value": 0.7795275590551181
            },
            {
              "number": 11,
              "ticks": 104862,
              "time": 118.08771975,
              "value": 0.7795275590551181
            },
            {
              "number": 11,
              "ticks": 104888,
              "time": 118.116999,
              "value": 0.7559055118110236
            },
            {
              "number": 11,
              "ticks": 104903,
              "time": 118.133890875,
              "value": 0.7559055118110236
            },
            {
              "number": 11,
              "ticks": 104918,
              "time": 118.15078275,
              "value": 0.7637795275590551
            },
            {
              "number": 11,
              "ticks": 104933,
              "time": 118.16767462500002,
              "value": 0.7795275590551181
            },
            {
              "number": 11,
              "ticks": 104948,
              "time": 118.18456650000002,
              "value": 0.7874015748031497
            },
            {
              "number": 11,
              "ticks": 104963,
              "time": 118.20145837500002,
              "value": 0.7874015748031497
            },
            {
              "number": 11,
              "ticks": 104978,
              "time": 118.21835025000001,
              "value": 0.7952755905511811
            },
            {
              "number": 11,
              "ticks": 104993,
              "time": 118.23524212500001,
              "value": 0.8110236220472441
            },
            {
              "number": 11,
              "ticks": 105008,
              "time": 118.25213400000001,
              "value": 0.8267716535433071
            },
            {
              "number": 11,
              "ticks": 105023,
              "time": 118.26902587500001,
              "value": 0.8346456692913385
            },
            {
              "number": 11,
              "ticks": 105038,
              "time": 118.28591775000001,
              "value": 0.8346456692913385
            },
            {
              "number": 11,
              "ticks": 105053,
              "time": 118.30280962500001,
              "value": 0.84251968503937
            },
            {
              "number": 11,
              "ticks": 105068,
              "time": 118.31970150000001,
              "value": 0.8503937007874016
            },
            {
              "number": 11,
              "ticks": 105083,
              "time": 118.336593375,
              "value": 0.8503937007874016
            },
            {
              "number": 11,
              "ticks": 105098,
              "time": 118.35348525,
              "value": 0.8661417322834646
            },
            {
              "number": 11,
              "ticks": 105113,
              "time": 118.37037712500002,
              "value": 0.8740157480314961
            },
            {
              "number": 11,
              "ticks": 105128,
              "time": 118.38726900000002,
              "value": 0.8818897637795275
            },
            {
              "number": 11,
              "ticks": 105143,
              "time": 118.40416087500002,
              "value": 0.8976377952755905
            },
            {
              "number": 11,
              "ticks": 105158,
              "time": 118.42105275000002,
              "value": 0.9133858267716536
            },
            {
              "number": 11,
              "ticks": 105173,
              "time": 118.43794462500001,
              "value": 0.9212598425196851
            },
            {
              "number": 11,
              "ticks": 105188,
              "time": 118.45483650000001,
              "value": 0.9291338582677166
            },
            {
              "number": 11,
              "ticks": 105203,
              "time": 118.47172837500001,
              "value": 0.9291338582677166
            },
            {
              "number": 11,
              "ticks": 105218,
              "time": 118.48862025000001,
              "value": 0.937007874015748
            },
            {
              "number": 11,
              "ticks": 105233,
              "time": 118.50551212500001,
              "value": 0.952755905511811
            },
            {
              "number": 11,
              "ticks": 105248,
              "time": 118.52240400000001,
              "value": 0.9606299212598425
            },
            {
              "number": 11,
              "ticks": 105263,
              "time": 118.53929587500001,
              "value": 0.968503937007874
            },
            {
              "number": 11,
              "ticks": 105278,
              "time": 118.55618775,
              "value": 1
            },
            {
              "number": 11,
              "ticks": 105293,
              "time": 118.573079625,
              "value": 1
            },
            {
              "number": 11,
              "ticks": 105308,
              "time": 118.58997150000002,
              "value": 1
            },
            {
              "number": 11,
              "ticks": 105323,
              "time": 118.60686337500002,
              "value": 1
            },
            {
              "number": 11,
              "ticks": 105338,
              "time": 118.62375525000002,
              "value": 1
            },
            {
              "number": 11,
              "ticks": 105353,
              "time": 118.64064712500002,
              "value": 1
            },
            {
              "number": 11,
              "ticks": 105368,
              "time": 118.65753900000001,
              "value": 1
            },
            {
              "number": 11,
              "ticks": 105417,
              "time": 118.712719125,
              "value": 1
            },
            {
              "number": 11,
              "ticks": 105418,
              "time": 118.71384525,
              "value": 1
            },
            {
              "number": 11,
              "ticks": 107386,
              "time": 120.93005925,
              "value": 0.6614173228346457
            },
            {
              "number": 11,
              "ticks": 107401,
              "time": 120.946951125,
              "value": 0.6299212598425197
            },
            {
              "number": 11,
              "ticks": 107416,
              "time": 120.963843,
              "value": 0.6062992125984252
            },
            {
              "number": 11,
              "ticks": 107431,
              "time": 120.98073487500001,
              "value": 0.5748031496062992
            },
            {
              "number": 11,
              "ticks": 107446,
              "time": 120.99762675000001,
              "value": 0.5511811023622047
            },
            {
              "number": 11,
              "ticks": 107461,
              "time": 121.01451862500001,
              "value": 0.5275590551181102
            },
            {
              "number": 11,
              "ticks": 107476,
              "time": 121.0314105,
              "value": 0.5039370078740157
            },
            {
              "number": 11,
              "ticks": 107491,
              "time": 121.048302375,
              "value": 0.48031496062992124
            },
            {
              "number": 11,
              "ticks": 107506,
              "time": 121.06519425,
              "value": 0.4645669291338583
            },
            {
              "number": 11,
              "ticks": 107521,
              "time": 121.082086125,
              "value": 0.4409448818897638
            },
            {
              "number": 11,
              "ticks": 107525,
              "time": 121.086590625,
              "value": 0.4330708661417323
            },
            {
              "number": 11,
              "ticks": 107681,
              "time": 121.26226612500001,
              "value": 0.4330708661417323
            },
            {
              "number": 11,
              "ticks": 107696,
              "time": 121.27915800000001,
              "value": 0.4566929133858268
            },
            {
              "number": 11,
              "ticks": 107711,
              "time": 121.29604987500001,
              "value": 0.48031496062992124
            },
            {
              "number": 11,
              "ticks": 107726,
              "time": 121.31294175000001,
              "value": 0.5039370078740157
            },
            {
              "number": 11,
              "ticks": 107741,
              "time": 121.329833625,
              "value": 0.5275590551181102
            },
            {
              "number": 11,
              "ticks": 107756,
              "time": 121.3467255,
              "value": 0.5433070866141733
            },
            {
              "number": 11,
              "ticks": 107771,
              "time": 121.363617375,
              "value": 0.5669291338582677
            },
            {
              "number": 11,
              "ticks": 107786,
              "time": 121.38050925,
              "value": 0.5905511811023622
            },
            {
              "number": 11,
              "ticks": 107801,
              "time": 121.397401125,
              "value": 0.6141732283464567
            },
            {
              "number": 11,
              "ticks": 107816,
              "time": 121.41429300000001,
              "value": 0.6299212598425197
            },
            {
              "number": 11,
              "ticks": 107831,
              "time": 121.43118487500001,
              "value": 0.6535433070866141
            },
            {
              "number": 11,
              "ticks": 107846,
              "time": 121.44807675000001,
              "value": 0.6692913385826772
            },
            {
              "number": 11,
              "ticks": 107861,
              "time": 121.46496862500001,
              "value": 0.6929133858267716
            },
            {
              "number": 11,
              "ticks": 107876,
              "time": 121.48186050000001,
              "value": 0.7086614173228346
            },
            {
              "number": 11,
              "ticks": 107891,
              "time": 121.49875237500001,
              "value": 0.7322834645669292
            },
            {
              "number": 11,
              "ticks": 107906,
              "time": 121.51564425000001,
              "value": 0.7480314960629921
            },
            {
              "number": 11,
              "ticks": 107921,
              "time": 121.53253612500001,
              "value": 0.7637795275590551
            },
            {
              "number": 11,
              "ticks": 107936,
              "time": 121.549428,
              "value": 0.7874015748031497
            },
            {
              "number": 11,
              "ticks": 107951,
              "time": 121.566319875,
              "value": 0.8031496062992126
            },
            {
              "number": 11,
              "ticks": 107966,
              "time": 121.58321175,
              "value": 0.8188976377952756
            },
            {
              "number": 11,
              "ticks": 107981,
              "time": 121.600103625,
              "value": 0.8346456692913385
            },
            {
              "number": 11,
              "ticks": 107996,
              "time": 121.61699550000002,
              "value": 0.8503937007874016
            },
            {
              "number": 11,
              "ticks": 108011,
              "time": 121.63388737500001,
              "value": 0.8661417322834646
            },
            {
              "number": 11,
              "ticks": 108026,
              "time": 121.65077925000001,
              "value": 0.8818897637795275
            },
            {
              "number": 11,
              "ticks": 108041,
              "time": 121.66767112500001,
              "value": 0.8976377952755905
            },
            {
              "number": 11,
              "ticks": 108056,
              "time": 121.68456300000001,
              "value": 0.9133858267716536
            },
            {
              "number": 11,
              "ticks": 108071,
              "time": 121.70145487500001,
              "value": 0.9291338582677166
            },
            {
              "number": 11,
              "ticks": 108086,
              "time": 121.71834675000001,
              "value": 0.9448818897637795
            },
            {
              "number": 11,
              "ticks": 108101,
              "time": 121.73523862500001,
              "value": 0.9606299212598425
            },
            {
              "number": 11,
              "ticks": 108116,
              "time": 121.7521305,
              "value": 0.9763779527559056
            },
            {
              "number": 11,
              "ticks": 108191,
              "time": 121.83658987500002,
              "value": 1
            }
          ],
          "38": [
            {
              "number": 38,
              "ticks": 660,
              "time": 0.7432425,
              "value": 0.09448818897637795
            }
          ],
          "91": [
            {
              "number": 91,
              "ticks": 630,
              "time": 0.70945875,
              "value": 0.15748031496062992
            }
          ],
          "93": [
            {
              "number": 93,
              "ticks": 630,
              "time": 0.70945875,
              "value": 0
            }
          ],
          "100": [
            {
              "number": 100,
              "ticks": 650,
              "time": 0.73198125,
              "value": 0
            }
          ],
          "101": [
            {
              "number": 101,
              "ticks": 640,
              "time": 0.72072,
              "value": 0
            }
          ]
        },
        "pitchBends": [
          {
            "ticks": 94575,
            "time": 106.50327187500001,
            "value": -0.048828125
          },
          {
            "ticks": 94590,
            "time": 106.52016375000001,
            "value": -0.038330078125
          },
          {
            "ticks": 94605,
            "time": 106.53705562500001,
            "value": -0.0277099609375
          },
          {
            "ticks": 94620,
            "time": 106.5539475,
            "value": -0.01708984375
          },
          {
            "ticks": 94635,
            "time": 106.570839375,
            "value": -0.0064697265625
          },
          {
            "ticks": 94644,
            "time": 106.58097450000001,
            "value": 0
          },
          {
            "ticks": 97370,
            "time": 109.65079125,
            "value": -0.0830078125
          },
          {
            "ticks": 97385,
            "time": 109.667683125,
            "value": -0.06396484375
          },
          {
            "ticks": 97400,
            "time": 109.684575,
            "value": -0.0447998046875
          },
          {
            "ticks": 97415,
            "time": 109.701466875,
            "value": -0.025634765625
          },
          {
            "ticks": 97430,
            "time": 109.71835875,
            "value": -0.0064697265625
          },
          {
            "ticks": 97435,
            "time": 109.72398937500002,
            "value": 0
          },
          {
            "ticks": 100800,
            "time": 113.5134,
            "value": -0.06103515625
          },
          {
            "ticks": 100815,
            "time": 113.530291875,
            "value": -0.0533447265625
          },
          {
            "ticks": 100830,
            "time": 113.54718375,
            "value": -0.045654296875
          },
          {
            "ticks": 100845,
            "time": 113.564075625,
            "value": -0.0379638671875
          },
          {
            "ticks": 100860,
            "time": 113.5809675,
            "value": -0.0302734375
          },
          {
            "ticks": 100875,
            "time": 113.597859375,
            "value": -0.0225830078125
          },
          {
            "ticks": 100890,
            "time": 113.61475125,
            "value": -0.014892578125
          },
          {
            "ticks": 100905,
            "time": 113.63164312500001,
            "value": -0.0072021484375
          },
          {
            "ticks": 100919,
            "time": 113.64740887500001,
            "value": 0
          }
        ],
        "instrument": {
          "family": "reed",
          "number": 67,
          "name": "baritone sax"
        },
        "name": "",
        "notes": [
          {
            "duration": 0.06531525000000027,
            "durationTicks": 58,
            "midi": 43,
            "name": "G2",
            "ticks": 4083,
            "time": 4.597968375,
            "velocity": 0.6456692913385826
          },
          {
            "duration": 0.07545037499999907,
            "durationTicks": 67,
            "midi": 45,
            "name": "A2",
            "ticks": 4451,
            "time": 5.0123823750000005,
            "velocity": 0.7401574803149606
          },
          {
            "duration": 0.9707197499999998,
            "durationTicks": 862,
            "midi": 43,
            "name": "G2",
            "ticks": 4690,
            "time": 5.281526250000001,
            "velocity": 0.6456692913385826
          },
          {
            "duration": 0.0574323750000012,
            "durationTicks": 51,
            "midi": 43,
            "name": "G2",
            "ticks": 6003,
            "time": 6.760128375,
            "velocity": 0.7401574803149606
          },
          {
            "duration": 0.07545037500000085,
            "durationTicks": 67,
            "midi": 45,
            "name": "A2",
            "ticks": 6364,
            "time": 7.1666595,
            "velocity": 0.7401574803149606
          },
          {
            "duration": 0.9177918749999989,
            "durationTicks": 815,
            "midi": 43,
            "name": "G2",
            "ticks": 6608,
            "time": 7.441434000000001,
            "velocity": 0.5590551181102362
          },
          {
            "duration": 0.06306300000000142,
            "durationTicks": 56,
            "midi": 43,
            "name": "G2",
            "ticks": 7807,
            "time": 8.791657875,
            "velocity": 0.6456692913385826
          },
          {
            "duration": 0.06418912499999863,
            "durationTicks": 57,
            "midi": 45,
            "name": "A2",
            "ticks": 8152,
            "time": 9.180171000000001,
            "velocity": 0.7401574803149606
          },
          {
            "duration": 0.07432425000000009,
            "durationTicks": 66,
            "midi": 45,
            "name": "A2",
            "ticks": 8403,
            "time": 9.462828375,
            "velocity": 0.7401574803149606
          },
          {
            "duration": 0.06531525000000116,
            "durationTicks": 58,
            "midi": 43,
            "name": "G2",
            "ticks": 8643,
            "time": 9.733098375,
            "velocity": 0.6456692913385826
          },
          {
            "duration": 0.07432425000000009,
            "durationTicks": 66,
            "midi": 45,
            "name": "A2",
            "ticks": 8887,
            "time": 10.007872875,
            "velocity": 0.5590551181102362
          },
          {
            "duration": 0.06418912500000218,
            "durationTicks": 57,
            "midi": 43,
            "name": "G2",
            "ticks": 9124,
            "time": 10.2747645,
            "velocity": 0.5590551181102362
          },
          {
            "duration": 0.09009,
            "durationTicks": 80,
            "midi": 41,
            "name": "F2",
            "ticks": 9359,
            "time": 10.539403875,
            "velocity": 0.6456692913385826
          },
          {
            "duration": 2.0923402500000012,
            "durationTicks": 1858,
            "midi": 43,
            "name": "G2",
            "ticks": 9486,
            "time": 10.68242175,
            "velocity": 0.6456692913385826
          },
          {
            "duration": 0.057432374999999425,
            "durationTicks": 51,
            "midi": 43,
            "name": "G2",
            "ticks": 11760,
            "time": 13.24323,
            "velocity": 0.7874015748031497
          },
          {
            "duration": 0.06981975000000062,
            "durationTicks": 62,
            "midi": 45,
            "name": "A2",
            "ticks": 12124,
            "time": 13.6531395,
            "velocity": 0.7874015748031497
          },
          {
            "duration": 1.0168908750000014,
            "durationTicks": 903,
            "midi": 43,
            "name": "G2",
            "ticks": 12347,
            "time": 13.904265375,
            "velocity": 0.6062992125984252
          },
          {
            "duration": 0.06306299999999965,
            "durationTicks": 56,
            "midi": 43,
            "name": "G2",
            "ticks": 13674,
            "time": 15.398633250000001,
            "velocity": 0.6929133858267716
          },
          {
            "duration": 0.07432425000000009,
            "durationTicks": 66,
            "midi": 45,
            "name": "A2",
            "ticks": 14049,
            "time": 15.820930125,
            "velocity": 0.7874015748031497
          },
          {
            "duration": 1.0123863749999984,
            "durationTicks": 899,
            "midi": 43,
            "name": "G2",
            "ticks": 14280,
            "time": 16.081065000000002,
            "velocity": 0.6062992125984252
          },
          {
            "duration": 0.06756749999999911,
            "durationTicks": 60,
            "midi": 43,
            "name": "G2",
            "ticks": 15493,
            "time": 17.447054625,
            "velocity": 0.7874015748031497
          },
          {
            "duration": 0.06981975000000062,
            "durationTicks": 62,
            "midi": 45,
            "name": "A2",
            "ticks": 15833,
            "time": 17.829937125,
            "velocity": 0.7874015748031497
          },
          {
            "duration": 0.07995487499999854,
            "durationTicks": 71,
            "midi": 45,
            "name": "A2",
            "ticks": 16080,
            "time": 18.10809,
            "velocity": 0.7874015748031497
          },
          {
            "duration": 0.07319812500000111,
            "durationTicks": 65,
            "midi": 43,
            "name": "G2",
            "ticks": 16321,
            "time": 18.379486125,
            "velocity": 0.6929133858267716
          },
          {
            "duration": 0.09234225000000151,
            "durationTicks": 82,
            "midi": 48,
            "name": "C3",
            "ticks": 16561,
            "time": 18.649756125,
            "velocity": 0.6062992125984252
          },
          {
            "duration": 0.07770262500000058,
            "durationTicks": 69,
            "midi": 43,
            "name": "G2",
            "ticks": 16801,
            "time": 18.920026125,
            "velocity": 0.5354330708661418
          },
          {
            "duration": 0.09684674999999743,
            "durationTicks": 86,
            "midi": 41,
            "name": "F2",
            "ticks": 17042,
            "time": 19.191422250000002,
            "velocity": 0.7874015748031497
          },
          {
            "duration": 1.185809625000001,
            "durationTicks": 1053,
            "midi": 43,
            "name": "G2",
            "ticks": 17167,
            "time": 19.332187875000002,
            "velocity": 0.6929133858267716
          },
          {
            "duration": 0.3400897499999971,
            "durationTicks": 302,
            "midi": 48,
            "name": "C3",
            "ticks": 19352,
            "time": 21.792771000000002,
            "velocity": 0.7874015748031497
          },
          {
            "duration": 0.38738700000000037,
            "durationTicks": 344,
            "midi": 48,
            "name": "C3",
            "ticks": 19707,
            "time": 22.192545375,
            "velocity": 0.7874015748031497
          },
          {
            "duration": 0.20608087500000138,
            "durationTicks": 183,
            "midi": 48,
            "name": "C3",
            "ticks": 20172,
            "time": 22.7161935,
            "velocity": 0.8818897637795275
          },
          {
            "duration": 0.1610358749999996,
            "durationTicks": 143,
            "midi": 48,
            "name": "C3",
            "ticks": 20391,
            "time": 22.962814875000003,
            "velocity": 0.7874015748031497
          },
          {
            "duration": 0.7128371250000001,
            "durationTicks": 633,
            "midi": 41,
            "name": "F2",
            "ticks": 20539,
            "time": 23.129481375,
            "velocity": 0.8818897637795275
          },
          {
            "duration": 0.33333299999999966,
            "durationTicks": 296,
            "midi": 46,
            "name": "A#2",
            "ticks": 21250,
            "time": 23.930156250000003,
            "velocity": 0.8818897637795275
          },
          {
            "duration": 0.48198149999999984,
            "durationTicks": 428,
            "midi": 39,
            "name": "D#2",
            "ticks": 21600,
            "time": 24.3243,
            "velocity": 0.7874015748031497
          },
          {
            "duration": 0.37499962500000095,
            "durationTicks": 333,
            "midi": 50,
            "name": "D3",
            "ticks": 22088,
            "time": 24.873849,
            "velocity": 0.8818897637795275
          },
          {
            "duration": 0.6193687500000031,
            "durationTicks": 550,
            "midi": 37,
            "name": "C#2",
            "ticks": 22470,
            "time": 25.30402875,
            "velocity": 0.7874015748031497
          },
          {
            "duration": 0.1227476249999988,
            "durationTicks": 109,
            "midi": 41,
            "name": "F2",
            "ticks": 23040,
            "time": 25.94592,
            "velocity": 0.8818897637795275
          },
          {
            "duration": 0.13513499999999823,
            "durationTicks": 120,
            "midi": 41,
            "name": "F2",
            "ticks": 23520,
            "time": 26.48646,
            "velocity": 0.8818897637795275
          },
          {
            "duration": 0.11036024999999938,
            "durationTicks": 98,
            "midi": 41,
            "name": "F2",
            "ticks": 24000,
            "time": 27.027,
            "velocity": 0.8818897637795275
          },
          {
            "duration": 0.11486474999999885,
            "durationTicks": 102,
            "midi": 41,
            "name": "F2",
            "ticks": 24240,
            "time": 27.29727,
            "velocity": 0.8818897637795275
          },
          {
            "duration": 0.13851337499999872,
            "durationTicks": 123,
            "midi": 38,
            "name": "D2",
            "ticks": 24507,
            "time": 27.597945375000002,
            "velocity": 0.8818897637795275
          },
          {
            "duration": 0.13626112500000076,
            "durationTicks": 121,
            "midi": 38,
            "name": "D2",
            "ticks": 24741,
            "time": 27.861458625,
            "velocity": 0.8818897637795275
          },
          {
            "duration": 0.6362606249999949,
            "durationTicks": 565,
            "midi": 43,
            "name": "G2",
            "ticks": 24887,
            "time": 28.025872875000005,
            "velocity": 0.8818897637795275
          },
          {
            "duration": 0.09459449999999592,
            "durationTicks": 84,
            "midi": 44,
            "name": "G#2",
            "ticks": 25563,
            "time": 28.787133375000003,
            "velocity": 0.8818897637795275
          },
          {
            "duration": 0.10923412499999685,
            "durationTicks": 97,
            "midi": 43,
            "name": "G2",
            "ticks": 25806,
            "time": 29.060781750000004,
            "velocity": 0.8818897637795275
          },
          {
            "duration": 0.11036024999999938,
            "durationTicks": 98,
            "midi": 43,
            "name": "G2",
            "ticks": 25808,
            "time": 29.063034000000002,
            "velocity": 0.984251968503937
          },
          {
            "duration": 0.15990975000000063,
            "durationTicks": 142,
            "midi": 43,
            "name": "G2",
            "ticks": 26048,
            "time": 29.333304000000002,
            "velocity": 0.8818897637795275
          },
          {
            "duration": 0.0822071250000036,
            "durationTicks": 73,
            "midi": 41,
            "name": "F2",
            "ticks": 26169,
            "time": 29.469565125,
            "velocity": 0.8818897637795275
          },
          {
            "duration": 0.11036024999999938,
            "durationTicks": 98,
            "midi": 39,
            "name": "D#2",
            "ticks": 26404,
            "time": 29.7342045,
            "velocity": 0.8818897637795275
          },
          {
            "duration": 0.11036024999999938,
            "durationTicks": 98,
            "midi": 38,
            "name": "D2",
            "ticks": 26651,
            "time": 30.012357375,
            "velocity": 0.984251968503937
          },
          {
            "duration": 0.11711699999999681,
            "durationTicks": 104,
            "midi": 36,
            "name": "C2",
            "ticks": 26890,
            "time": 30.28150125,
            "velocity": 0.8818897637795275
          },
          {
            "duration": 0.10247737499999232,
            "durationTicks": 91,
            "midi": 43,
            "name": "G2",
            "ticks": 90360,
            "time": 101.75665500000001,
            "velocity": 0.8818897637795275
          },
          {
            "duration": 0.09684675000001164,
            "durationTicks": 86,
            "midi": 43,
            "name": "G2",
            "ticks": 90720,
            "time": 102.16206,
            "velocity": 0.8818897637795275
          },
          {
            "duration": 0.3671167500000081,
            "durationTicks": 326,
            "midi": 48,
            "name": "C3",
            "ticks": 91200,
            "time": 102.7026,
            "velocity": 0.7874015748031497
          },
          {
            "duration": 0.07545037499998841,
            "durationTicks": 67,
            "midi": 48,
            "name": "C3",
            "ticks": 91560,
            "time": 103.108005,
            "velocity": 0.7874015748031497
          },
          {
            "duration": 0.06756749999999556,
            "durationTicks": 60,
            "midi": 43,
            "name": "G2",
            "ticks": 92280,
            "time": 103.91881500000001,
            "velocity": 0.8818897637795275
          },
          {
            "duration": 0.3885131250000029,
            "durationTicks": 345,
            "midi": 48,
            "name": "C3",
            "ticks": 92640,
            "time": 104.32422,
            "velocity": 0.7874015748031497
          },
          {
            "duration": 0.12950437500001044,
            "durationTicks": 115,
            "midi": 46,
            "name": "A#2",
            "ticks": 93000,
            "time": 104.729625,
            "velocity": 0.8818897637795275
          },
          {
            "duration": 0.10585574999998926,
            "durationTicks": 94,
            "midi": 36,
            "name": "C2",
            "ticks": 94244,
            "time": 106.1305245,
            "velocity": 0.7874015748031497
          },
          {
            "duration": 0.1644142500000072,
            "durationTicks": 146,
            "midi": 39,
            "name": "D#2",
            "ticks": 94340,
            "time": 106.2386325,
            "velocity": 0.7874015748031497
          },
          {
            "duration": 0.09121612500001675,
            "durationTicks": 81,
            "midi": 43,
            "name": "G2",
            "ticks": 94489,
            "time": 106.406425125,
            "velocity": 0.7874015748031497
          },
          {
            "duration": 0.153152999999989,
            "durationTicks": 136,
            "midi": 50,
            "name": "D3",
            "ticks": 94577,
            "time": 106.50552412500001,
            "velocity": 0.7874015748031497
          },
          {
            "duration": 0.13851337500000227,
            "durationTicks": 123,
            "midi": 49,
            "name": "C#3",
            "ticks": 94721,
            "time": 106.667686125,
            "velocity": 0.6929133858267716
          },
          {
            "duration": 0.16666650000000516,
            "durationTicks": 148,
            "midi": 48,
            "name": "C3",
            "ticks": 94842,
            "time": 106.80394725000001,
            "velocity": 0.7874015748031497
          },
          {
            "duration": 0.0979728749999964,
            "durationTicks": 87,
            "midi": 47,
            "name": "B2",
            "ticks": 94995,
            "time": 106.97624437500001,
            "velocity": 0.8503937007874016
          },
          {
            "duration": 0.12837824999999725,
            "durationTicks": 114,
            "midi": 46,
            "name": "A#2",
            "ticks": 95081,
            "time": 107.073091125,
            "velocity": 0.8503937007874016
          },
          {
            "duration": 0.14076562499998602,
            "durationTicks": 125,
            "midi": 43,
            "name": "G2",
            "ticks": 95201,
            "time": 107.20822612500001,
            "velocity": 0.8503937007874016
          },
          {
            "duration": 0.14527012500001035,
            "durationTicks": 129,
            "midi": 39,
            "name": "D#2",
            "ticks": 95325,
            "time": 107.347865625,
            "velocity": 0.7874015748031497
          },
          {
            "duration": 0.1261259999999993,
            "durationTicks": 112,
            "midi": 38,
            "name": "D2",
            "ticks": 95456,
            "time": 107.495388,
            "velocity": 0.6929133858267716
          },
          {
            "duration": 0.1632881249999798,
            "durationTicks": 145,
            "midi": 37,
            "name": "C#2",
            "ticks": 95562,
            "time": 107.61475725000001,
            "velocity": 0.8503937007874016
          },
          {
            "duration": 0.14977462500000627,
            "durationTicks": 133,
            "midi": 45,
            "name": "A2",
            "ticks": 95699,
            "time": 107.769036375,
            "velocity": 0.7874015748031497
          },
          {
            "duration": 0.11711699999997904,
            "durationTicks": 104,
            "midi": 43,
            "name": "G2",
            "ticks": 95963,
            "time": 108.06633337500001,
            "velocity": 0.6929133858267716
          },
          {
            "duration": 0.14639624999999512,
            "durationTicks": 130,
            "midi": 41,
            "name": "F2",
            "ticks": 96056,
            "time": 108.171063,
            "velocity": 0.8503937007874016
          },
          {
            "duration": 0.06193687500000067,
            "durationTicks": 55,
            "midi": 43,
            "name": "G2",
            "ticks": 96185,
            "time": 108.316333125,
            "velocity": 0.6929133858267716
          },
          {
            "duration": 0.09684674999999743,
            "durationTicks": 86,
            "midi": 41,
            "name": "F2",
            "ticks": 96236,
            "time": 108.3737655,
            "velocity": 0.6062992125984252
          },
          {
            "duration": 0.15765749999999912,
            "durationTicks": 140,
            "midi": 40,
            "name": "E2",
            "ticks": 96320,
            "time": 108.46836,
            "velocity": 0.7874015748031497
          },
          {
            "duration": 0.10247737500000653,
            "durationTicks": 91,
            "midi": 43,
            "name": "G2",
            "ticks": 96455,
            "time": 108.620386875,
            "velocity": 0.7874015748031497
          },
          {
            "duration": 0.22747724999999264,
            "durationTicks": 202,
            "midi": 41,
            "name": "F2",
            "ticks": 96508,
            "time": 108.68007150000001,
            "velocity": 0.8503937007874016
          },
          {
            "duration": 0.14639624999999512,
            "durationTicks": 130,
            "midi": 38,
            "name": "D2",
            "ticks": 96720,
            "time": 108.91881000000001,
            "velocity": 0.6062992125984252
          },
          {
            "duration": 0.2578826249999935,
            "durationTicks": 229,
            "midi": 44,
            "name": "G#2",
            "ticks": 97376,
            "time": 109.657548,
            "velocity": 0.7874015748031497
          },
          {
            "duration": 0.14414400000001137,
            "durationTicks": 128,
            "midi": 43,
            "name": "G2",
            "ticks": 97608,
            "time": 109.918809,
            "velocity": 0.6062992125984252
          },
          {
            "duration": 0.23761237499999766,
            "durationTicks": 211,
            "midi": 38,
            "name": "D2",
            "ticks": 97739,
            "time": 110.066331375,
            "velocity": 0.6929133858267716
          },
          {
            "duration": 0.20945924999999477,
            "durationTicks": 186,
            "midi": 41,
            "name": "F2",
            "ticks": 97945,
            "time": 110.298313125,
            "velocity": 0.8503937007874016
          },
          {
            "duration": 0.1103602500000136,
            "durationTicks": 98,
            "midi": 39,
            "name": "D#2",
            "ticks": 98118,
            "time": 110.49313275,
            "velocity": 0.7874015748031497
          },
          {
            "duration": 0.15653137499998593,
            "durationTicks": 139,
            "midi": 41,
            "name": "F2",
            "ticks": 98223,
            "time": 110.61137587500001,
            "velocity": 0.7874015748031497
          },
          {
            "duration": 0.1204953750000044,
            "durationTicks": 107,
            "midi": 39,
            "name": "D#2",
            "ticks": 98353,
            "time": 110.757772125,
            "velocity": 0.8503937007874016
          },
          {
            "duration": 0.16554037499999197,
            "durationTicks": 147,
            "midi": 38,
            "name": "D2",
            "ticks": 98453,
            "time": 110.87038462500001,
            "velocity": 0.8503937007874016
          },
          {
            "duration": 0.11373862499999632,
            "durationTicks": 101,
            "midi": 36,
            "name": "C2",
            "ticks": 98608,
            "time": 111.04493400000001,
            "velocity": 0.7874015748031497
          },
          {
            "duration": 0.1542791250000164,
            "durationTicks": 137,
            "midi": 38,
            "name": "D2",
            "ticks": 98706,
            "time": 111.15529425,
            "velocity": 0.7874015748031497
          },
          {
            "duration": 0.09909899999999539,
            "durationTicks": 88,
            "midi": 36,
            "name": "C2",
            "ticks": 98849,
            "time": 111.31633012500001,
            "velocity": 0.7874015748031497
          },
          {
            "duration": 0.16779262500000414,
            "durationTicks": 149,
            "midi": 44,
            "name": "G#2",
            "ticks": 98935,
            "time": 111.413176875,
            "velocity": 0.8503937007874016
          },
          {
            "duration": 0.13851337500001648,
            "durationTicks": 123,
            "midi": 42,
            "name": "F#2",
            "ticks": 99082,
            "time": 111.57871725,
            "velocity": 0.7874015748031497
          },
          {
            "duration": 0.15090074999999104,
            "durationTicks": 134,
            "midi": 44,
            "name": "G#2",
            "ticks": 99190,
            "time": 111.70033875000001,
            "velocity": 0.6929133858267716
          },
          {
            "duration": 0.11824312500000644,
            "durationTicks": 105,
            "midi": 42,
            "name": "F#2",
            "ticks": 99329,
            "time": 111.856870125,
            "velocity": 0.7874015748031497
          },
          {
            "duration": 0.1362611250000043,
            "durationTicks": 121,
            "midi": 41,
            "name": "F2",
            "ticks": 99431,
            "time": 111.97173487500001,
            "velocity": 0.8503937007874016
          },
          {
            "duration": 0.18243224999999086,
            "durationTicks": 162,
            "midi": 39,
            "name": "D#2",
            "ticks": 99558,
            "time": 112.11475275000001,
            "velocity": 0.6062992125984252
          },
          {
            "duration": 0.11148637499999836,
            "durationTicks": 99,
            "midi": 38,
            "name": "D2",
            "ticks": 100026,
            "time": 112.64177925,
            "velocity": 0.8503937007874016
          },
          {
            "duration": 0.1261260000000135,
            "durationTicks": 112,
            "midi": 41,
            "name": "F2",
            "ticks": 100126,
            "time": 112.75439175,
            "velocity": 0.8503937007874016
          },
          {
            "duration": 0.11261249999999734,
            "durationTicks": 100,
            "midi": 45,
            "name": "A2",
            "ticks": 100242,
            "time": 112.88502225,
            "velocity": 0.7874015748031497
          },
          {
            "duration": 0.16779262499998993,
            "durationTicks": 149,
            "midi": 48,
            "name": "C3",
            "ticks": 100346,
            "time": 113.00213925000001,
            "velocity": 0.7874015748031497
          },
          {
            "duration": 0.14076562500000023,
            "durationTicks": 125,
            "midi": 46,
            "name": "A#2",
            "ticks": 100483,
            "time": 113.156418375,
            "velocity": 0.6929133858267716
          },
          {
            "duration": 0.12950437500001044,
            "durationTicks": 115,
            "midi": 41,
            "name": "F2",
            "ticks": 100590,
            "time": 113.27691375,
            "velocity": 0.7874015748031497
          },
          {
            "duration": 0.08445937499999445,
            "durationTicks": 75,
            "midi": 38,
            "name": "D2",
            "ticks": 100710,
            "time": 113.41204875000001,
            "velocity": 0.6929133858267716
          },
          {
            "duration": 0.2128376249999917,
            "durationTicks": 189,
            "midi": 50,
            "name": "D3",
            "ticks": 100828,
            "time": 113.5449315,
            "velocity": 0.7874015748031497
          },
          {
            "duration": 0.07995487499998433,
            "durationTicks": 71,
            "midi": 48,
            "name": "C3",
            "ticks": 101020,
            "time": 113.7611475,
            "velocity": 0.6929133858267716
          },
          {
            "duration": 0.10247737500000653,
            "durationTicks": 91,
            "midi": 45,
            "name": "A2",
            "ticks": 101083,
            "time": 113.832093375,
            "velocity": 0.6929133858267716
          },
          {
            "duration": 0.11261250000001155,
            "durationTicks": 100,
            "midi": 42,
            "name": "F#2",
            "ticks": 101173,
            "time": 113.933444625,
            "velocity": 0.6929133858267716
          },
          {
            "duration": 0.07545037500001683,
            "durationTicks": 67,
            "midi": 39,
            "name": "D#2",
            "ticks": 101269,
            "time": 114.041552625,
            "velocity": 0.6929133858267716
          },
          {
            "duration": 0.27702674999999033,
            "durationTicks": 246,
            "midi": 38,
            "name": "D2",
            "ticks": 101324,
            "time": 114.10348950000001,
            "velocity": 0.6929133858267716
          },
          {
            "duration": 0.2195943749999998,
            "durationTicks": 195,
            "midi": 36,
            "name": "C2",
            "ticks": 101565,
            "time": 114.374885625,
            "velocity": 0.6062992125984252
          },
          {
            "duration": 0.05743237499999054,
            "durationTicks": 51,
            "midi": 43,
            "name": "G2",
            "ticks": 102000,
            "time": 114.86475,
            "velocity": 0.7874015748031497
          },
          {
            "duration": 0.06981974999999352,
            "durationTicks": 62,
            "midi": 45,
            "name": "A2",
            "ticks": 102364,
            "time": 115.2746595,
            "velocity": 0.7874015748031497
          },
          {
            "duration": 1.0168908750000014,
            "durationTicks": 903,
            "midi": 43,
            "name": "G2",
            "ticks": 102587,
            "time": 115.525785375,
            "velocity": 0.6062992125984252
          },
          {
            "duration": 0.06306299999998544,
            "durationTicks": 56,
            "midi": 43,
            "name": "G2",
            "ticks": 103914,
            "time": 117.02015325,
            "velocity": 0.6929133858267716
          },
          {
            "duration": 0.07432425000000364,
            "durationTicks": 66,
            "midi": 45,
            "name": "A2",
            "ticks": 104289,
            "time": 117.44245012500001,
            "velocity": 0.7874015748031497
          },
          {
            "duration": 1.0123863750000055,
            "durationTicks": 899,
            "midi": 43,
            "name": "G2",
            "ticks": 104520,
            "time": 117.702585,
            "velocity": 0.6062992125984252
          },
          {
            "duration": 0.06756749999999556,
            "durationTicks": 60,
            "midi": 43,
            "name": "G2",
            "ticks": 105733,
            "time": 119.06857462500001,
            "velocity": 0.7874015748031497
          },
          {
            "duration": 0.06981974999999352,
            "durationTicks": 62,
            "midi": 45,
            "name": "A2",
            "ticks": 106073,
            "time": 119.45145712500002,
            "velocity": 0.7874015748031497
          },
          {
            "duration": 0.07995487499999854,
            "durationTicks": 71,
            "midi": 45,
            "name": "A2",
            "ticks": 106320,
            "time": 119.72961000000001,
            "velocity": 0.7874015748031497
          },
          {
            "duration": 0.07319812499999045,
            "durationTicks": 65,
            "midi": 43,
            "name": "G2",
            "ticks": 106561,
            "time": 120.001006125,
            "velocity": 0.6929133858267716
          },
          {
            "duration": 0.09234225000001572,
            "durationTicks": 82,
            "midi": 48,
            "name": "C3",
            "ticks": 106801,
            "time": 120.271276125,
            "velocity": 0.6062992125984252
          },
          {
            "duration": 0.07770262500001479,
            "durationTicks": 69,
            "midi": 43,
            "name": "G2",
            "ticks": 107041,
            "time": 120.541546125,
            "velocity": 0.5354330708661418
          },
          {
            "duration": 0.09684674999999743,
            "durationTicks": 86,
            "midi": 41,
            "name": "F2",
            "ticks": 107282,
            "time": 120.81294225,
            "velocity": 0.7874015748031497
          },
          {
            "duration": 1.1858096250000187,
            "durationTicks": 1053,
            "midi": 43,
            "name": "G2",
            "ticks": 107407,
            "time": 120.95370787499999,
            "velocity": 0.6929133858267716
          },
          {
            "duration": 0.34008974999999,
            "durationTicks": 302,
            "midi": 48,
            "name": "C3",
            "ticks": 109592,
            "time": 123.414291,
            "velocity": 0.7874015748031497
          },
          {
            "duration": 0.3873869999999897,
            "durationTicks": 344,
            "midi": 48,
            "name": "C3",
            "ticks": 109947,
            "time": 123.81406537500001,
            "velocity": 0.7874015748031497
          },
          {
            "duration": 0.20608087499999783,
            "durationTicks": 183,
            "midi": 48,
            "name": "C3",
            "ticks": 110412,
            "time": 124.3377135,
            "velocity": 0.8818897637795275
          },
          {
            "duration": 0.16103587500001026,
            "durationTicks": 143,
            "midi": 48,
            "name": "C3",
            "ticks": 110631,
            "time": 124.584334875,
            "velocity": 0.7874015748031497
          },
          {
            "duration": 0.712837124999993,
            "durationTicks": 633,
            "midi": 41,
            "name": "F2",
            "ticks": 110779,
            "time": 124.751001375,
            "velocity": 0.8818897637795275
          },
          {
            "duration": 0.3333329999999819,
            "durationTicks": 296,
            "midi": 46,
            "name": "A#2",
            "ticks": 111490,
            "time": 125.55167625000001,
            "velocity": 0.8818897637795275
          },
          {
            "duration": 0.4819815000000176,
            "durationTicks": 428,
            "midi": 39,
            "name": "D#2",
            "ticks": 111840,
            "time": 125.94582,
            "velocity": 0.7874015748031497
          },
          {
            "duration": 0.37499962500000095,
            "durationTicks": 333,
            "midi": 50,
            "name": "D3",
            "ticks": 112328,
            "time": 126.49536900000001,
            "velocity": 0.8818897637795275
          },
          {
            "duration": 0.6193687500000067,
            "durationTicks": 550,
            "midi": 37,
            "name": "C#2",
            "ticks": 112710,
            "time": 126.92554875,
            "velocity": 0.7874015748031497
          },
          {
            "duration": 0.12274762500000236,
            "durationTicks": 109,
            "midi": 41,
            "name": "F2",
            "ticks": 113280,
            "time": 127.56744,
            "velocity": 0.8818897637795275
          },
          {
            "duration": 0.13513500000001955,
            "durationTicks": 120,
            "midi": 41,
            "name": "F2",
            "ticks": 113760,
            "time": 128.10798,
            "velocity": 0.8818897637795275
          },
          {
            "duration": 0.11036024999998517,
            "durationTicks": 98,
            "midi": 41,
            "name": "F2",
            "ticks": 114240,
            "time": 128.64852000000002,
            "velocity": 0.8818897637795275
          },
          {
            "duration": 0.11486475000000951,
            "durationTicks": 102,
            "midi": 41,
            "name": "F2",
            "ticks": 114480,
            "time": 128.91879,
            "velocity": 0.8818897637795275
          },
          {
            "duration": 0.13851337500000227,
            "durationTicks": 123,
            "midi": 38,
            "name": "D2",
            "ticks": 114747,
            "time": 129.219465375,
            "velocity": 0.8818897637795275
          },
          {
            "duration": 0.1362611250000043,
            "durationTicks": 121,
            "midi": 38,
            "name": "D2",
            "ticks": 114981,
            "time": 129.482978625,
            "velocity": 0.8818897637795275
          },
          {
            "duration": 0.6362606250000056,
            "durationTicks": 565,
            "midi": 43,
            "name": "G2",
            "ticks": 115127,
            "time": 129.647392875,
            "velocity": 0.8818897637795275
          },
          {
            "duration": 0.09459449999999947,
            "durationTicks": 84,
            "midi": 44,
            "name": "G#2",
            "ticks": 115803,
            "time": 130.408653375,
            "velocity": 0.8818897637795275
          },
          {
            "duration": 0.1092341250000004,
            "durationTicks": 97,
            "midi": 43,
            "name": "G2",
            "ticks": 116046,
            "time": 130.68230175,
            "velocity": 0.8818897637795275
          },
          {
            "duration": 0.11036024999998517,
            "durationTicks": 98,
            "midi": 43,
            "name": "G2",
            "ticks": 116048,
            "time": 130.68455400000002,
            "velocity": 0.984251968503937
          },
          {
            "duration": 0.15990974999999708,
            "durationTicks": 142,
            "midi": 43,
            "name": "G2",
            "ticks": 116288,
            "time": 130.954824,
            "velocity": 0.8818897637795275
          },
          {
            "duration": 0.0822071249999965,
            "durationTicks": 73,
            "midi": 41,
            "name": "F2",
            "ticks": 116409,
            "time": 131.091085125,
            "velocity": 0.8818897637795275
          },
          {
            "duration": 0.1103602500000136,
            "durationTicks": 98,
            "midi": 39,
            "name": "D#2",
            "ticks": 116644,
            "time": 131.3557245,
            "velocity": 0.8818897637795275
          },
          {
            "duration": 0.1103602500000136,
            "durationTicks": 98,
            "midi": 38,
            "name": "D2",
            "ticks": 116891,
            "time": 131.633877375,
            "velocity": 0.984251968503937
          },
          {
            "duration": 0.11711699999997904,
            "durationTicks": 104,
            "midi": 36,
            "name": "C2",
            "ticks": 117130,
            "time": 131.90302125000002,
            "velocity": 0.8818897637795275
          },
          {
            "duration": 0.1576574999999707,
            "durationTicks": 140,
            "midi": 43,
            "name": "G2",
            "ticks": 123830,
            "time": 139.44805875000003,
            "velocity": 0.5354330708661418
          },
          {
            "duration": 0.0653152499999976,
            "durationTicks": 58,
            "midi": 43,
            "name": "G2",
            "ticks": 123992,
            "time": 139.630491,
            "velocity": 0.6299212598425197
          },
          {
            "duration": 0.12387374999997292,
            "durationTicks": 110,
            "midi": 45,
            "name": "A2",
            "ticks": 124074,
            "time": 139.72283325,
            "velocity": 0.6299212598425197
          },
          {
            "duration": 0.1317566250000084,
            "durationTicks": 117,
            "midi": 46,
            "name": "A#2",
            "ticks": 124313,
            "time": 139.991977125,
            "velocity": 0.6299212598425197
          },
          {
            "duration": 0.15202687500001844,
            "durationTicks": 135,
            "midi": 48,
            "name": "C3",
            "ticks": 124567,
            "time": 140.278012875,
            "velocity": 0.6299212598425197
          },
          {
            "duration": 0.2072069999999826,
            "durationTicks": 184,
            "midi": 50,
            "name": "D3",
            "ticks": 124796,
            "time": 140.5358955,
            "velocity": 0.6299212598425197
          },
          {
            "duration": 0.10247737500003495,
            "durationTicks": 91,
            "midi": 43,
            "name": "G2",
            "ticks": 203640,
            "time": 229.324095,
            "velocity": 0.8818897637795275
          },
          {
            "duration": 0.09684674999999743,
            "durationTicks": 86,
            "midi": 43,
            "name": "G2",
            "ticks": 204000,
            "time": 229.7295,
            "velocity": 0.8818897637795275
          },
          {
            "duration": 0.3671167500000081,
            "durationTicks": 326,
            "midi": 48,
            "name": "C3",
            "ticks": 204480,
            "time": 230.27004,
            "velocity": 0.7874015748031497
          },
          {
            "duration": 0.07545037500003104,
            "durationTicks": 67,
            "midi": 48,
            "name": "C3",
            "ticks": 204840,
            "time": 230.675445,
            "velocity": 0.7874015748031497
          },
          {
            "duration": 0.06756749999999556,
            "durationTicks": 60,
            "midi": 43,
            "name": "G2",
            "ticks": 205560,
            "time": 231.486255,
            "velocity": 0.8818897637795275
          },
          {
            "duration": 0.3885131250000029,
            "durationTicks": 345,
            "midi": 48,
            "name": "C3",
            "ticks": 205920,
            "time": 231.89166,
            "velocity": 0.7874015748031497
          },
          {
            "duration": 0.12950437499998202,
            "durationTicks": 115,
            "midi": 46,
            "name": "A#2",
            "ticks": 206280,
            "time": 232.297065,
            "velocity": 0.8818897637795275
          },
          {
            "duration": 0.3400897500000042,
            "durationTicks": 302,
            "midi": 48,
            "name": "C3",
            "ticks": 207512,
            "time": 233.684451,
            "velocity": 0.7874015748031497
          },
          {
            "duration": 0.38738700000001813,
            "durationTicks": 344,
            "midi": 48,
            "name": "C3",
            "ticks": 207867,
            "time": 234.084225375,
            "velocity": 0.7874015748031497
          },
          {
            "duration": 0.20608087500002625,
            "durationTicks": 183,
            "midi": 48,
            "name": "C3",
            "ticks": 208332,
            "time": 234.60787349999998,
            "velocity": 0.8818897637795275
          },
          {
            "duration": 0.16103587499998184,
            "durationTicks": 143,
            "midi": 48,
            "name": "C3",
            "ticks": 208551,
            "time": 234.854494875,
            "velocity": 0.7874015748031497
          },
          {
            "duration": 0.7128371250000214,
            "durationTicks": 633,
            "midi": 41,
            "name": "F2",
            "ticks": 208699,
            "time": 235.021161375,
            "velocity": 0.8818897637795275
          },
          {
            "duration": 0.3333330000000103,
            "durationTicks": 296,
            "midi": 46,
            "name": "A#2",
            "ticks": 209410,
            "time": 235.82183625,
            "velocity": 0.8818897637795275
          },
          {
            "duration": 0.4819814999999892,
            "durationTicks": 428,
            "midi": 39,
            "name": "D#2",
            "ticks": 209760,
            "time": 236.21598,
            "velocity": 0.7874015748031497
          },
          {
            "duration": 0.37499962500001516,
            "durationTicks": 333,
            "midi": 50,
            "name": "D3",
            "ticks": 210248,
            "time": 236.765529,
            "velocity": 0.8818897637795275
          },
          {
            "duration": 0.6193687499999783,
            "durationTicks": 550,
            "midi": 37,
            "name": "C#2",
            "ticks": 210630,
            "time": 237.19570875000002,
            "velocity": 0.7874015748031497
          },
          {
            "duration": 0.12274762499998815,
            "durationTicks": 109,
            "midi": 41,
            "name": "F2",
            "ticks": 211200,
            "time": 237.8376,
            "velocity": 0.8818897637795275
          },
          {
            "duration": 0.13513500000001955,
            "durationTicks": 120,
            "midi": 41,
            "name": "F2",
            "ticks": 211680,
            "time": 238.37814,
            "velocity": 0.8818897637795275
          },
          {
            "duration": 0.1103602500000136,
            "durationTicks": 98,
            "midi": 41,
            "name": "F2",
            "ticks": 212160,
            "time": 238.91868,
            "velocity": 0.8818897637795275
          },
          {
            "duration": 0.11486474999998109,
            "durationTicks": 102,
            "midi": 41,
            "name": "F2",
            "ticks": 212400,
            "time": 239.18895,
            "velocity": 0.8818897637795275
          },
          {
            "duration": 0.13851337500000227,
            "durationTicks": 123,
            "midi": 38,
            "name": "D2",
            "ticks": 212667,
            "time": 239.489625375,
            "velocity": 0.8818897637795275
          },
          {
            "duration": 0.13626112500003273,
            "durationTicks": 121,
            "midi": 38,
            "name": "D2",
            "ticks": 212901,
            "time": 239.753138625,
            "velocity": 0.8818897637795275
          },
          {
            "duration": 1.3310797499999865,
            "durationTicks": 1182,
            "midi": 43,
            "name": "G2",
            "ticks": 213048,
            "time": 239.91867900000003,
            "velocity": 0.7874015748031497
          },
          {
            "duration": 0.43017975000000774,
            "durationTicks": 382,
            "midi": 43,
            "name": "G2",
            "ticks": 214331,
            "time": 241.363497375,
            "velocity": 0.7874015748031497
          },
          {
            "duration": 0.5743237500000191,
            "durationTicks": 510,
            "midi": 43,
            "name": "G2",
            "ticks": 214830,
            "time": 241.92543375,
            "velocity": 0.8818897637795275
          },
          {
            "duration": 4.884004125000018,
            "durationTicks": 4337,
            "midi": 36,
            "name": "C2",
            "ticks": 215533,
            "time": 242.717099625,
            "velocity": 0.8818897637795275
          }
        ]
      },
      {
        "channel": 0,
        "controlChanges": {
          "0": [
            {
              "number": 0,
              "ticks": 630,
              "time": 0.70945875,
              "value": 0
            },
            {
              "number": 0,
              "ticks": 650,
              "time": 0.73198125,
              "value": 0
            }
          ],
          "32": [
            {
              "number": 32,
              "ticks": 640,
              "time": 0.72072,
              "value": 0
            },
            {
              "number": 32,
              "ticks": 650,
              "time": 0.73198125,
              "value": 0
            }
          ]
        },
        "pitchBends": [],
        "instrument": {
          "family": "piano",
          "number": 0,
          "name": "acoustic grand piano"
        },
        "name": "",
        "notes": []
      },
      {
        "channel": 5,
        "controlChanges": {
          "6": [
            {
              "number": 6,
              "ticks": 700,
              "time": 0.7882875,
              "value": 0.015748031496062992
            },
            {
              "number": 6,
              "ticks": 30260,
              "time": 34.0765425,
              "value": 0.3464566929133858
            },
            {
              "number": 6,
              "ticks": 41260,
              "time": 46.4639175,
              "value": 0.5039370078740157
            },
            {
              "number": 6,
              "ticks": 120500,
              "time": 135.6980625,
              "value": 0.3464566929133858
            },
            {
              "number": 6,
              "ticks": 131500,
              "time": 148.08543749999998,
              "value": 0.5039370078740157
            }
          ],
          "7": [
            {
              "number": 7,
              "ticks": 660,
              "time": 0.7432425,
              "value": 0.5118110236220472
            },
            {
              "number": 7,
              "ticks": 192950,
              "time": 217.28581875000003,
              "value": 0.5118110236220472
            }
          ],
          "10": [
            {
              "number": 10,
              "ticks": 660,
              "time": 0.7432425,
              "value": 0.7007874015748031
            }
          ],
          "11": [
            {
              "number": 11,
              "ticks": 31070,
              "time": 34.988703750000006,
              "value": 0.07874015748031496
            },
            {
              "number": 11,
              "ticks": 31085,
              "time": 35.005595625000005,
              "value": 0.08661417322834646
            },
            {
              "number": 11,
              "ticks": 31100,
              "time": 35.022487500000004,
              "value": 0.09448818897637795
            },
            {
              "number": 11,
              "ticks": 31115,
              "time": 35.039379375,
              "value": 0.10236220472440945
            },
            {
              "number": 11,
              "ticks": 31130,
              "time": 35.05627125,
              "value": 0.11023622047244094
            },
            {
              "number": 11,
              "ticks": 31145,
              "time": 35.073163125,
              "value": 0.11811023622047244
            },
            {
              "number": 11,
              "ticks": 31160,
              "time": 35.09005500000001,
              "value": 0.12598425196850394
            },
            {
              "number": 11,
              "ticks": 31175,
              "time": 35.106946875000006,
              "value": 0.14173228346456693
            },
            {
              "number": 11,
              "ticks": 31190,
              "time": 35.123838750000004,
              "value": 0.14960629921259844
            },
            {
              "number": 11,
              "ticks": 31205,
              "time": 35.140730625,
              "value": 0.15748031496062992
            },
            {
              "number": 11,
              "ticks": 31220,
              "time": 35.1576225,
              "value": 0.16535433070866143
            },
            {
              "number": 11,
              "ticks": 31235,
              "time": 35.174514375,
              "value": 0.1732283464566929
            },
            {
              "number": 11,
              "ticks": 31250,
              "time": 35.19140625000001,
              "value": 0.18110236220472442
            },
            {
              "number": 11,
              "ticks": 31265,
              "time": 35.208298125000006,
              "value": 0.1968503937007874
            },
            {
              "number": 11,
              "ticks": 31280,
              "time": 35.225190000000005,
              "value": 0.2047244094488189
            },
            {
              "number": 11,
              "ticks": 31295,
              "time": 35.242081875000004,
              "value": 0.2125984251968504
            },
            {
              "number": 11,
              "ticks": 31310,
              "time": 35.25897375,
              "value": 0.2204724409448819
            },
            {
              "number": 11,
              "ticks": 31325,
              "time": 35.275865625,
              "value": 0.2283464566929134
            },
            {
              "number": 11,
              "ticks": 31340,
              "time": 35.2927575,
              "value": 0.23622047244094488
            },
            {
              "number": 11,
              "ticks": 31355,
              "time": 35.309649375000006,
              "value": 0.25196850393700787
            },
            {
              "number": 11,
              "ticks": 31370,
              "time": 35.326541250000005,
              "value": 0.25984251968503935
            },
            {
              "number": 11,
              "ticks": 31385,
              "time": 35.343433125000004,
              "value": 0.2677165354330709
            },
            {
              "number": 11,
              "ticks": 31400,
              "time": 35.360325,
              "value": 0.2755905511811024
            },
            {
              "number": 11,
              "ticks": 31415,
              "time": 35.377216875,
              "value": 0.28346456692913385
            },
            {
              "number": 11,
              "ticks": 31430,
              "time": 35.39410875,
              "value": 0.29133858267716534
            },
            {
              "number": 11,
              "ticks": 31445,
              "time": 35.41100062500001,
              "value": 0.30708661417322836
            },
            {
              "number": 11,
              "ticks": 31460,
              "time": 35.427892500000006,
              "value": 0.31496062992125984
            },
            {
              "number": 11,
              "ticks": 31475,
              "time": 35.444784375000005,
              "value": 0.3228346456692913
            },
            {
              "number": 11,
              "ticks": 31490,
              "time": 35.461676250000004,
              "value": 0.33070866141732286
            },
            {
              "number": 11,
              "ticks": 31505,
              "time": 35.478568125,
              "value": 0.33858267716535434
            },
            {
              "number": 11,
              "ticks": 31520,
              "time": 35.49546,
              "value": 0.3464566929133858
            },
            {
              "number": 11,
              "ticks": 31535,
              "time": 35.51235187500001,
              "value": 0.36220472440944884
            },
            {
              "number": 11,
              "ticks": 31550,
              "time": 35.529243750000006,
              "value": 0.3700787401574803
            },
            {
              "number": 11,
              "ticks": 31565,
              "time": 35.546135625000005,
              "value": 0.3779527559055118
            },
            {
              "number": 11,
              "ticks": 31580,
              "time": 35.563027500000004,
              "value": 0.3858267716535433
            },
            {
              "number": 11,
              "ticks": 31595,
              "time": 35.579919375,
              "value": 0.3937007874015748
            },
            {
              "number": 11,
              "ticks": 31610,
              "time": 35.59681125,
              "value": 0.4015748031496063
            },
            {
              "number": 11,
              "ticks": 31625,
              "time": 35.613703125,
              "value": 0.41732283464566927
            },
            {
              "number": 11,
              "ticks": 31640,
              "time": 35.63059500000001,
              "value": 0.4251968503937008
            },
            {
              "number": 11,
              "ticks": 31655,
              "time": 35.647486875000006,
              "value": 0.4330708661417323
            },
            {
              "number": 11,
              "ticks": 31670,
              "time": 35.664378750000004,
              "value": 0.4409448818897638
            },
            {
              "number": 11,
              "ticks": 31685,
              "time": 35.681270625,
              "value": 0.44881889763779526
            },
            {
              "number": 11,
              "ticks": 31700,
              "time": 35.6981625,
              "value": 0.4566929133858268
            },
            {
              "number": 11,
              "ticks": 31715,
              "time": 35.715054375,
              "value": 0.47244094488188976
            },
            {
              "number": 11,
              "ticks": 31730,
              "time": 35.73194625000001,
              "value": 0.48031496062992124
            },
            {
              "number": 11,
              "ticks": 31745,
              "time": 35.748838125000006,
              "value": 0.4881889763779528
            },
            {
              "number": 11,
              "ticks": 31760,
              "time": 35.765730000000005,
              "value": 0.49606299212598426
            },
            {
              "number": 11,
              "ticks": 31775,
              "time": 35.782621875000004,
              "value": 0.5039370078740157
            },
            {
              "number": 11,
              "ticks": 31790,
              "time": 35.79951375,
              "value": 0.5118110236220472
            },
            {
              "number": 11,
              "ticks": 31805,
              "time": 35.816405625,
              "value": 0.5275590551181102
            },
            {
              "number": 11,
              "ticks": 31820,
              "time": 35.8332975,
              "value": 0.5354330708661418
            },
            {
              "number": 11,
              "ticks": 31835,
              "time": 35.85018937500001,
              "value": 0.5433070866141733
            },
            {
              "number": 11,
              "ticks": 31850,
              "time": 35.867081250000005,
              "value": 0.5511811023622047
            },
            {
              "number": 11,
              "ticks": 31865,
              "time": 35.883973125000004,
              "value": 0.5590551181102362
            },
            {
              "number": 11,
              "ticks": 31880,
              "time": 35.900865,
              "value": 0.5669291338582677
            },
            {
              "number": 11,
              "ticks": 31895,
              "time": 35.917756875,
              "value": 0.5826771653543307
            },
            {
              "number": 11,
              "ticks": 31910,
              "time": 35.93464875,
              "value": 0.5905511811023622
            },
            {
              "number": 11,
              "ticks": 31925,
              "time": 35.95154062500001,
              "value": 0.5984251968503937
            },
            {
              "number": 11,
              "ticks": 31940,
              "time": 35.968432500000006,
              "value": 0.6062992125984252
            },
            {
              "number": 11,
              "ticks": 31955,
              "time": 35.985324375000005,
              "value": 0.6141732283464567
            },
            {
              "number": 11,
              "ticks": 31970,
              "time": 36.002216250000004,
              "value": 0.6220472440944882
            },
            {
              "number": 11,
              "ticks": 31985,
              "time": 36.019108125,
              "value": 0.6377952755905512
            },
            {
              "number": 11,
              "ticks": 32000,
              "time": 36.036,
              "value": 0.6456692913385826
            },
            {
              "number": 11,
              "ticks": 32015,
              "time": 36.05289187500001,
              "value": 0.6535433070866141
            },
            {
              "number": 11,
              "ticks": 32030,
              "time": 36.069783750000006,
              "value": 0.6614173228346457
            },
            {
              "number": 11,
              "ticks": 32045,
              "time": 36.086675625000005,
              "value": 0.6692913385826772
            },
            {
              "number": 11,
              "ticks": 32060,
              "time": 36.103567500000004,
              "value": 0.6771653543307087
            },
            {
              "number": 11,
              "ticks": 32075,
              "time": 36.120459375,
              "value": 0.6929133858267716
            },
            {
              "number": 11,
              "ticks": 32090,
              "time": 36.13735125,
              "value": 0.7007874015748031
            },
            {
              "number": 11,
              "ticks": 32105,
              "time": 36.154243125,
              "value": 0.7086614173228346
            },
            {
              "number": 11,
              "ticks": 32120,
              "time": 36.17113500000001,
              "value": 0.7165354330708661
            },
            {
              "number": 11,
              "ticks": 32135,
              "time": 36.188026875000006,
              "value": 0.7244094488188977
            },
            {
              "number": 11,
              "ticks": 32150,
              "time": 36.204918750000004,
              "value": 0.7322834645669292
            },
            {
              "number": 11,
              "ticks": 32165,
              "time": 36.221810625,
              "value": 0.7480314960629921
            },
            {
              "number": 11,
              "ticks": 32180,
              "time": 36.2387025,
              "value": 0.7559055118110236
            },
            {
              "number": 11,
              "ticks": 32195,
              "time": 36.255594375,
              "value": 0.7637795275590551
            },
            {
              "number": 11,
              "ticks": 32210,
              "time": 36.27248625000001,
              "value": 0.7716535433070866
            },
            {
              "number": 11,
              "ticks": 32225,
              "time": 36.289378125000006,
              "value": 0.7795275590551181
            },
            {
              "number": 11,
              "ticks": 32229,
              "time": 36.293882625,
              "value": 0.7874015748031497
            },
            {
              "number": 11,
              "ticks": 32690,
              "time": 36.81302625000001,
              "value": 0.8661417322834646
            },
            {
              "number": 11,
              "ticks": 32712,
              "time": 36.837801000000006,
              "value": 0.8582677165354331
            },
            {
              "number": 11,
              "ticks": 32735,
              "time": 36.863701875000004,
              "value": 0.8503937007874016
            },
            {
              "number": 11,
              "ticks": 32757,
              "time": 36.888476625,
              "value": 0.84251968503937
            },
            {
              "number": 11,
              "ticks": 32780,
              "time": 36.9143775,
              "value": 0.8346456692913385
            },
            {
              "number": 11,
              "ticks": 32802,
              "time": 36.93915225000001,
              "value": 0.8267716535433071
            },
            {
              "number": 11,
              "ticks": 32825,
              "time": 36.965053125000004,
              "value": 0.8188976377952756
            },
            {
              "number": 11,
              "ticks": 32848,
              "time": 36.990954,
              "value": 0.8110236220472441
            },
            {
              "number": 11,
              "ticks": 32870,
              "time": 37.01572875,
              "value": 0.8031496062992126
            },
            {
              "number": 11,
              "ticks": 32893,
              "time": 37.041629625000006,
              "value": 0.7952755905511811
            },
            {
              "number": 11,
              "ticks": 32915,
              "time": 37.066404375000005,
              "value": 0.7874015748031497
            },
            {
              "number": 11,
              "ticks": 32938,
              "time": 37.09230525,
              "value": 0.7795275590551181
            },
            {
              "number": 11,
              "ticks": 32961,
              "time": 37.118206125,
              "value": 0.7716535433070866
            },
            {
              "number": 11,
              "ticks": 32983,
              "time": 37.142980875000006,
              "value": 0.7637795275590551
            },
            {
              "number": 11,
              "ticks": 33006,
              "time": 37.168881750000004,
              "value": 0.7559055118110236
            },
            {
              "number": 11,
              "ticks": 33028,
              "time": 37.1936565,
              "value": 0.7480314960629921
            },
            {
              "number": 11,
              "ticks": 33051,
              "time": 37.219557375,
              "value": 0.7401574803149606
            },
            {
              "number": 11,
              "ticks": 33074,
              "time": 37.245458250000006,
              "value": 0.7322834645669292
            },
            {
              "number": 11,
              "ticks": 33096,
              "time": 37.270233000000005,
              "value": 0.7244094488188977
            },
            {
              "number": 11,
              "ticks": 33119,
              "time": 37.296133875,
              "value": 0.7165354330708661
            },
            {
              "number": 11,
              "ticks": 33141,
              "time": 37.320908625,
              "value": 0.7086614173228346
            },
            {
              "number": 11,
              "ticks": 33164,
              "time": 37.3468095,
              "value": 0.7007874015748031
            },
            {
              "number": 11,
              "ticks": 33186,
              "time": 37.371584250000005,
              "value": 0.6929133858267716
            },
            {
              "number": 11,
              "ticks": 33209,
              "time": 37.397485125,
              "value": 0.6850393700787402
            },
            {
              "number": 11,
              "ticks": 33232,
              "time": 37.423386,
              "value": 0.6771653543307087
            },
            {
              "number": 11,
              "ticks": 33254,
              "time": 37.44816075,
              "value": 0.6692913385826772
            },
            {
              "number": 11,
              "ticks": 33277,
              "time": 37.474061625000004,
              "value": 0.6614173228346457
            },
            {
              "number": 11,
              "ticks": 33299,
              "time": 37.498836375,
              "value": 0.6535433070866141
            },
            {
              "number": 11,
              "ticks": 33322,
              "time": 37.52473725,
              "value": 0.6456692913385826
            },
            {
              "number": 11,
              "ticks": 33345,
              "time": 37.550638125,
              "value": 0.6377952755905512
            },
            {
              "number": 11,
              "ticks": 33367,
              "time": 37.575412875000005,
              "value": 0.6299212598425197
            },
            {
              "number": 11,
              "ticks": 33390,
              "time": 37.60131375,
              "value": 0.6220472440944882
            },
            {
              "number": 11,
              "ticks": 33412,
              "time": 37.6260885,
              "value": 0.6141732283464567
            },
            {
              "number": 11,
              "ticks": 33435,
              "time": 37.651989375,
              "value": 0.6062992125984252
            },
            {
              "number": 11,
              "ticks": 33458,
              "time": 37.677890250000004,
              "value": 0.5984251968503937
            },
            {
              "number": 11,
              "ticks": 33480,
              "time": 37.702665,
              "value": 0.5905511811023622
            },
            {
              "number": 11,
              "ticks": 33503,
              "time": 37.728565875,
              "value": 0.5826771653543307
            },
            {
              "number": 11,
              "ticks": 33525,
              "time": 37.753340625,
              "value": 0.5748031496062992
            },
            {
              "number": 11,
              "ticks": 33548,
              "time": 37.7792415,
              "value": 0.5669291338582677
            },
            {
              "number": 11,
              "ticks": 33571,
              "time": 37.805142375,
              "value": 0.5590551181102362
            },
            {
              "number": 11,
              "ticks": 33593,
              "time": 37.829917125,
              "value": 0.5511811023622047
            },
            {
              "number": 11,
              "ticks": 33616,
              "time": 37.855818,
              "value": 0.5433070866141733
            },
            {
              "number": 11,
              "ticks": 33638,
              "time": 37.88059275,
              "value": 0.5354330708661418
            },
            {
              "number": 11,
              "ticks": 33661,
              "time": 37.906493625,
              "value": 0.5275590551181102
            },
            {
              "number": 11,
              "ticks": 33683,
              "time": 37.931268375,
              "value": 0.5196850393700787
            },
            {
              "number": 11,
              "ticks": 33706,
              "time": 37.95716925,
              "value": 0.5118110236220472
            },
            {
              "number": 11,
              "ticks": 33729,
              "time": 37.983070125,
              "value": 0.5039370078740157
            },
            {
              "number": 11,
              "ticks": 33751,
              "time": 38.007844875,
              "value": 0.49606299212598426
            },
            {
              "number": 11,
              "ticks": 33774,
              "time": 38.03374575,
              "value": 0.4881889763779528
            },
            {
              "number": 11,
              "ticks": 33796,
              "time": 38.0585205,
              "value": 0.48031496062992124
            },
            {
              "number": 11,
              "ticks": 33819,
              "time": 38.084421375,
              "value": 0.47244094488188976
            },
            {
              "number": 11,
              "ticks": 33842,
              "time": 38.110322249999996,
              "value": 0.4645669291338583
            },
            {
              "number": 11,
              "ticks": 33864,
              "time": 38.135097,
              "value": 0.4566929133858268
            },
            {
              "number": 11,
              "ticks": 33887,
              "time": 38.160997875,
              "value": 0.44881889763779526
            },
            {
              "number": 11,
              "ticks": 33909,
              "time": 38.185772625,
              "value": 0.4409448818897638
            },
            {
              "number": 11,
              "ticks": 33932,
              "time": 38.211673499999996,
              "value": 0.4330708661417323
            },
            {
              "number": 11,
              "ticks": 33955,
              "time": 38.237574375,
              "value": 0.4251968503937008
            },
            {
              "number": 11,
              "ticks": 33977,
              "time": 38.262349125,
              "value": 0.41732283464566927
            },
            {
              "number": 11,
              "ticks": 34000,
              "time": 38.28825,
              "value": 0.4094488188976378
            },
            {
              "number": 11,
              "ticks": 34022,
              "time": 38.31302475,
              "value": 0.4015748031496063
            },
            {
              "number": 11,
              "ticks": 34045,
              "time": 38.338925625,
              "value": 0.3937007874015748
            },
            {
              "number": 11,
              "ticks": 34067,
              "time": 38.363700375,
              "value": 0.3858267716535433
            },
            {
              "number": 11,
              "ticks": 34090,
              "time": 38.38960125,
              "value": 0.3779527559055118
            },
            {
              "number": 11,
              "ticks": 34113,
              "time": 38.415502124999996,
              "value": 0.3700787401574803
            },
            {
              "number": 11,
              "ticks": 34135,
              "time": 38.440276875,
              "value": 0.36220472440944884
            },
            {
              "number": 11,
              "ticks": 34158,
              "time": 38.46617775,
              "value": 0.3543307086614173
            },
            {
              "number": 11,
              "ticks": 34180,
              "time": 38.4909525,
              "value": 0.3464566929133858
            },
            {
              "number": 11,
              "ticks": 34203,
              "time": 38.516853375,
              "value": 0.33858267716535434
            },
            {
              "number": 11,
              "ticks": 34226,
              "time": 38.542754249999994,
              "value": 0.33070866141732286
            },
            {
              "number": 11,
              "ticks": 34248,
              "time": 38.567529,
              "value": 0.3228346456692913
            },
            {
              "number": 11,
              "ticks": 34271,
              "time": 38.593429875,
              "value": 0.31496062992125984
            },
            {
              "number": 11,
              "ticks": 34293,
              "time": 38.618204625,
              "value": 0.30708661417322836
            },
            {
              "number": 11,
              "ticks": 34316,
              "time": 38.644105499999995,
              "value": 0.2992125984251969
            },
            {
              "number": 11,
              "ticks": 34339,
              "time": 38.67000637500001,
              "value": 0.29133858267716534
            },
            {
              "number": 11,
              "ticks": 34361,
              "time": 38.694781125,
              "value": 0.28346456692913385
            },
            {
              "number": 11,
              "ticks": 34384,
              "time": 38.720682000000004,
              "value": 0.2755905511811024
            },
            {
              "number": 11,
              "ticks": 34406,
              "time": 38.745456749999995,
              "value": 0.2677165354330709
            },
            {
              "number": 11,
              "ticks": 34429,
              "time": 38.77135762500001,
              "value": 0.25984251968503935
            },
            {
              "number": 11,
              "ticks": 34452,
              "time": 38.797258500000005,
              "value": 0.25196850393700787
            },
            {
              "number": 11,
              "ticks": 34474,
              "time": 38.822033250000004,
              "value": 0.2440944881889764
            },
            {
              "number": 11,
              "ticks": 34497,
              "time": 38.847934125,
              "value": 0.23622047244094488
            },
            {
              "number": 11,
              "ticks": 34519,
              "time": 38.87270887500001,
              "value": 0.2283464566929134
            },
            {
              "number": 11,
              "ticks": 34542,
              "time": 38.898609750000006,
              "value": 0.2204724409448819
            },
            {
              "number": 11,
              "ticks": 34564,
              "time": 38.923384500000004,
              "value": 0.2125984251968504
            },
            {
              "number": 11,
              "ticks": 34587,
              "time": 38.949285375,
              "value": 0.2047244094488189
            },
            {
              "number": 11,
              "ticks": 34610,
              "time": 38.97518625000001,
              "value": 0.1968503937007874
            },
            {
              "number": 11,
              "ticks": 34632,
              "time": 38.999961000000006,
              "value": 0.1889763779527559
            },
            {
              "number": 11,
              "ticks": 34655,
              "time": 39.025861875000004,
              "value": 0.18110236220472442
            },
            {
              "number": 11,
              "ticks": 34677,
              "time": 39.050636625,
              "value": 0.1732283464566929
            },
            {
              "number": 11,
              "ticks": 34700,
              "time": 39.0765375,
              "value": 0.16535433070866143
            },
            {
              "number": 11,
              "ticks": 34723,
              "time": 39.102438375000006,
              "value": 0.15748031496062992
            },
            {
              "number": 11,
              "ticks": 34745,
              "time": 39.127213125000004,
              "value": 0.14960629921259844
            },
            {
              "number": 11,
              "ticks": 34768,
              "time": 39.153114,
              "value": 0.14173228346456693
            },
            {
              "number": 11,
              "ticks": 34790,
              "time": 39.17788875,
              "value": 0.13385826771653545
            },
            {
              "number": 11,
              "ticks": 34813,
              "time": 39.203789625000006,
              "value": 0.12598425196850394
            },
            {
              "number": 11,
              "ticks": 34836,
              "time": 39.229690500000004,
              "value": 0.11811023622047244
            },
            {
              "number": 11,
              "ticks": 34858,
              "time": 39.25446525,
              "value": 0.11023622047244094
            },
            {
              "number": 11,
              "ticks": 34881,
              "time": 39.280366125,
              "value": 0.10236220472440945
            },
            {
              "number": 11,
              "ticks": 34903,
              "time": 39.305140875000006,
              "value": 0.09448818897637795
            },
            {
              "number": 11,
              "ticks": 34926,
              "time": 39.331041750000004,
              "value": 0.08661417322834646
            },
            {
              "number": 11,
              "ticks": 34949,
              "time": 39.356942625,
              "value": 0.07874015748031496
            },
            {
              "number": 11,
              "ticks": 35859,
              "time": 40.381716375,
              "value": 1
            },
            {
              "number": 11,
              "ticks": 38300,
              "time": 43.130587500000004,
              "value": 0.3937007874015748
            },
            {
              "number": 11,
              "ticks": 38369,
              "time": 43.208290125000005,
              "value": 0.4015748031496063
            },
            {
              "number": 11,
              "ticks": 38398,
              "time": 43.240947750000004,
              "value": 0.4094488188976378
            },
            {
              "number": 11,
              "ticks": 38426,
              "time": 43.272479249999996,
              "value": 0.41732283464566927
            },
            {
              "number": 11,
              "ticks": 38454,
              "time": 43.30401075,
              "value": 0.4251968503937008
            },
            {
              "number": 11,
              "ticks": 38481,
              "time": 43.334416125000004,
              "value": 0.4330708661417323
            },
            {
              "number": 11,
              "ticks": 38508,
              "time": 43.3648215,
              "value": 0.4409448818897638
            },
            {
              "number": 11,
              "ticks": 38535,
              "time": 43.395226875,
              "value": 0.44881889763779526
            },
            {
              "number": 11,
              "ticks": 38561,
              "time": 43.424506125,
              "value": 0.4566929133858268
            },
            {
              "number": 11,
              "ticks": 38587,
              "time": 43.453785375,
              "value": 0.4645669291338583
            },
            {
              "number": 11,
              "ticks": 38613,
              "time": 43.483064625,
              "value": 0.47244094488188976
            },
            {
              "number": 11,
              "ticks": 38638,
              "time": 43.51121775000001,
              "value": 0.48031496062992124
            },
            {
              "number": 11,
              "ticks": 38663,
              "time": 43.539370875,
              "value": 0.4881889763779528
            },
            {
              "number": 11,
              "ticks": 38688,
              "time": 43.567524,
              "value": 0.49606299212598426
            },
            {
              "number": 11,
              "ticks": 38712,
              "time": 43.594551,
              "value": 0.5039370078740157
            },
            {
              "number": 11,
              "ticks": 38736,
              "time": 43.62157800000001,
              "value": 0.5118110236220472
            },
            {
              "number": 11,
              "ticks": 38760,
              "time": 43.648605,
              "value": 0.5196850393700787
            },
            {
              "number": 11,
              "ticks": 38784,
              "time": 43.675632,
              "value": 0.5275590551181102
            },
            {
              "number": 11,
              "ticks": 38807,
              "time": 43.701532875,
              "value": 0.5354330708661418
            },
            {
              "number": 11,
              "ticks": 38830,
              "time": 43.727433749999996,
              "value": 0.5433070866141733
            },
            {
              "number": 11,
              "ticks": 38853,
              "time": 43.753334625,
              "value": 0.5511811023622047
            },
            {
              "number": 11,
              "ticks": 38876,
              "time": 43.7792355,
              "value": 0.5590551181102362
            },
            {
              "number": 11,
              "ticks": 38898,
              "time": 43.80401025,
              "value": 0.5669291338582677
            },
            {
              "number": 11,
              "ticks": 38920,
              "time": 43.828784999999996,
              "value": 0.5748031496062992
            },
            {
              "number": 11,
              "ticks": 38941,
              "time": 43.852433625,
              "value": 0.5826771653543307
            },
            {
              "number": 11,
              "ticks": 38963,
              "time": 43.877208375,
              "value": 0.5905511811023622
            },
            {
              "number": 11,
              "ticks": 38984,
              "time": 43.900857,
              "value": 0.5984251968503937
            },
            {
              "number": 11,
              "ticks": 39005,
              "time": 43.924505625,
              "value": 0.6062992125984252
            },
            {
              "number": 11,
              "ticks": 39026,
              "time": 43.948154249999995,
              "value": 0.6141732283464567
            },
            {
              "number": 11,
              "ticks": 39047,
              "time": 43.971802875,
              "value": 0.6220472440944882
            },
            {
              "number": 11,
              "ticks": 39067,
              "time": 43.994325375,
              "value": 0.6299212598425197
            },
            {
              "number": 11,
              "ticks": 39087,
              "time": 44.016847875,
              "value": 0.6377952755905512
            },
            {
              "number": 11,
              "ticks": 39107,
              "time": 44.039370375,
              "value": 0.6456692913385826
            },
            {
              "number": 11,
              "ticks": 39126,
              "time": 44.060766750000006,
              "value": 0.6535433070866141
            },
            {
              "number": 11,
              "ticks": 39146,
              "time": 44.08328925,
              "value": 0.6614173228346457
            },
            {
              "number": 11,
              "ticks": 39165,
              "time": 44.104685625,
              "value": 0.6692913385826772
            },
            {
              "number": 11,
              "ticks": 39184,
              "time": 44.126082000000004,
              "value": 0.6771653543307087
            },
            {
              "number": 11,
              "ticks": 39203,
              "time": 44.147478375,
              "value": 0.6850393700787402
            },
            {
              "number": 11,
              "ticks": 39222,
              "time": 44.16887475000001,
              "value": 0.6929133858267716
            },
            {
              "number": 11,
              "ticks": 39240,
              "time": 44.189145,
              "value": 0.7007874015748031
            },
            {
              "number": 11,
              "ticks": 39258,
              "time": 44.20941525,
              "value": 0.7086614173228346
            },
            {
              "number": 11,
              "ticks": 39276,
              "time": 44.2296855,
              "value": 0.7165354330708661
            },
            {
              "number": 11,
              "ticks": 39294,
              "time": 44.24995575,
              "value": 0.7244094488188977
            },
            {
              "number": 11,
              "ticks": 39312,
              "time": 44.27022600000001,
              "value": 0.7322834645669292
            },
            {
              "number": 11,
              "ticks": 39329,
              "time": 44.289370125000005,
              "value": 0.7401574803149606
            },
            {
              "number": 11,
              "ticks": 39347,
              "time": 44.309640375,
              "value": 0.7480314960629921
            },
            {
              "number": 11,
              "ticks": 39364,
              "time": 44.328784500000005,
              "value": 0.7559055118110236
            },
            {
              "number": 11,
              "ticks": 39381,
              "time": 44.347928625,
              "value": 0.7637795275590551
            },
            {
              "number": 11,
              "ticks": 39398,
              "time": 44.36707275,
              "value": 0.7716535433070866
            },
            {
              "number": 11,
              "ticks": 39414,
              "time": 44.38509075,
              "value": 0.7795275590551181
            },
            {
              "number": 11,
              "ticks": 39431,
              "time": 44.404234875,
              "value": 0.7874015748031497
            },
            {
              "number": 11,
              "ticks": 39600,
              "time": 44.59455,
              "value": 0.7874015748031497
            },
            {
              "number": 11,
              "ticks": 39628,
              "time": 44.626081500000005,
              "value": 0.7795275590551181
            },
            {
              "number": 11,
              "ticks": 39657,
              "time": 44.658739125000004,
              "value": 0.7716535433070866
            },
            {
              "number": 11,
              "ticks": 39686,
              "time": 44.691396749999996,
              "value": 0.7637795275590551
            },
            {
              "number": 11,
              "ticks": 39715,
              "time": 44.724054375,
              "value": 0.7559055118110236
            },
            {
              "number": 11,
              "ticks": 39744,
              "time": 44.756712,
              "value": 0.7480314960629921
            },
            {
              "number": 11,
              "ticks": 39773,
              "time": 44.789369625,
              "value": 0.7401574803149606
            },
            {
              "number": 11,
              "ticks": 39802,
              "time": 44.822027250000005,
              "value": 0.7322834645669292
            },
            {
              "number": 11,
              "ticks": 39831,
              "time": 44.854684875000004,
              "value": 0.7244094488188977
            },
            {
              "number": 11,
              "ticks": 39860,
              "time": 44.8873425,
              "value": 0.7165354330708661
            },
            {
              "number": 11,
              "ticks": 39889,
              "time": 44.92000012500001,
              "value": 0.7086614173228346
            },
            {
              "number": 11,
              "ticks": 39918,
              "time": 44.95265775,
              "value": 0.7007874015748031
            },
            {
              "number": 11,
              "ticks": 39947,
              "time": 44.985315375,
              "value": 0.6929133858267716
            },
            {
              "number": 11,
              "ticks": 39976,
              "time": 45.017973,
              "value": 0.6850393700787402
            },
            {
              "number": 11,
              "ticks": 40005,
              "time": 45.050630625000004,
              "value": 0.6771653543307087
            },
            {
              "number": 11,
              "ticks": 40034,
              "time": 45.08328825,
              "value": 0.6692913385826772
            },
            {
              "number": 11,
              "ticks": 40063,
              "time": 45.115945875,
              "value": 0.6614173228346457
            },
            {
              "number": 11,
              "ticks": 40092,
              "time": 45.14860350000001,
              "value": 0.6535433070866141
            },
            {
              "number": 11,
              "ticks": 40121,
              "time": 45.181261125,
              "value": 0.6456692913385826
            },
            {
              "number": 11,
              "ticks": 40150,
              "time": 45.21391875,
              "value": 0.6377952755905512
            },
            {
              "number": 11,
              "ticks": 40179,
              "time": 45.246576375000004,
              "value": 0.6299212598425197
            },
            {
              "number": 11,
              "ticks": 40235,
              "time": 45.309639375,
              "value": 0.6377952755905512
            },
            {
              "number": 11,
              "ticks": 40250,
              "time": 45.32653125,
              "value": 0.6456692913385826
            },
            {
              "number": 11,
              "ticks": 40265,
              "time": 45.343423125,
              "value": 0.6535433070866141
            },
            {
              "number": 11,
              "ticks": 40280,
              "time": 45.36031500000001,
              "value": 0.6614173228346457
            },
            {
              "number": 11,
              "ticks": 40295,
              "time": 45.377206875000006,
              "value": 0.6692913385826772
            },
            {
              "number": 11,
              "ticks": 40310,
              "time": 45.394098750000005,
              "value": 0.6771653543307087
            },
            {
              "number": 11,
              "ticks": 40325,
              "time": 45.410990625000004,
              "value": 0.6850393700787402
            },
            {
              "number": 11,
              "ticks": 40340,
              "time": 45.4278825,
              "value": 0.6929133858267716
            },
            {
              "number": 11,
              "ticks": 40355,
              "time": 45.444774375,
              "value": 0.7007874015748031
            },
            {
              "number": 11,
              "ticks": 40370,
              "time": 45.46166625000001,
              "value": 0.7086614173228346
            },
            {
              "number": 11,
              "ticks": 40385,
              "time": 45.478558125000006,
              "value": 0.7165354330708661
            },
            {
              "number": 11,
              "ticks": 40400,
              "time": 45.495450000000005,
              "value": 0.7244094488188977
            },
            {
              "number": 11,
              "ticks": 40415,
              "time": 45.512341875000004,
              "value": 0.7322834645669292
            },
            {
              "number": 11,
              "ticks": 40430,
              "time": 45.52923375,
              "value": 0.7401574803149606
            },
            {
              "number": 11,
              "ticks": 40445,
              "time": 45.546125625,
              "value": 0.7480314960629921
            },
            {
              "number": 11,
              "ticks": 40460,
              "time": 45.5630175,
              "value": 0.7559055118110236
            },
            {
              "number": 11,
              "ticks": 40475,
              "time": 45.57990937500001,
              "value": 0.7637795275590551
            },
            {
              "number": 11,
              "ticks": 40490,
              "time": 45.596801250000006,
              "value": 0.7716535433070866
            },
            {
              "number": 11,
              "ticks": 40505,
              "time": 45.613693125000005,
              "value": 0.7795275590551181
            },
            {
              "number": 11,
              "ticks": 40520,
              "time": 45.630585,
              "value": 0.7874015748031497
            },
            {
              "number": 11,
              "ticks": 40535,
              "time": 45.647476875,
              "value": 0.7952755905511811
            },
            {
              "number": 11,
              "ticks": 40550,
              "time": 45.66436875,
              "value": 0.8031496062992126
            },
            {
              "number": 11,
              "ticks": 40565,
              "time": 45.68126062500001,
              "value": 0.8110236220472441
            },
            {
              "number": 11,
              "ticks": 40580,
              "time": 45.698152500000006,
              "value": 0.8188976377952756
            },
            {
              "number": 11,
              "ticks": 40595,
              "time": 45.715044375000005,
              "value": 0.8267716535433071
            },
            {
              "number": 11,
              "ticks": 40610,
              "time": 45.731936250000004,
              "value": 0.8346456692913385
            },
            {
              "number": 11,
              "ticks": 40625,
              "time": 45.748828125,
              "value": 0.84251968503937
            },
            {
              "number": 11,
              "ticks": 40640,
              "time": 45.76572,
              "value": 0.8503937007874016
            },
            {
              "number": 11,
              "ticks": 40655,
              "time": 45.78261187500001,
              "value": 0.8582677165354331
            },
            {
              "number": 11,
              "ticks": 40659,
              "time": 45.787116375000004,
              "value": 0.8661417322834646
            },
            {
              "number": 11,
              "ticks": 40660,
              "time": 45.7882425,
              "value": 0.8661417322834646
            },
            {
              "number": 11,
              "ticks": 40678,
              "time": 45.808512750000006,
              "value": 0.8582677165354331
            },
            {
              "number": 11,
              "ticks": 40697,
              "time": 45.829909125,
              "value": 0.8503937007874016
            },
            {
              "number": 11,
              "ticks": 40716,
              "time": 45.8513055,
              "value": 0.84251968503937
            },
            {
              "number": 11,
              "ticks": 40735,
              "time": 45.872701875,
              "value": 0.8346456692913385
            },
            {
              "number": 11,
              "ticks": 40754,
              "time": 45.894098250000006,
              "value": 0.8267716535433071
            },
            {
              "number": 11,
              "ticks": 40773,
              "time": 45.915494625,
              "value": 0.8188976377952756
            },
            {
              "number": 11,
              "ticks": 40792,
              "time": 45.936891,
              "value": 0.8110236220472441
            },
            {
              "number": 11,
              "ticks": 40811,
              "time": 45.958287375,
              "value": 0.8031496062992126
            },
            {
              "number": 11,
              "ticks": 40830,
              "time": 45.97968375,
              "value": 0.7952755905511811
            },
            {
              "number": 11,
              "ticks": 40849,
              "time": 46.00108012500001,
              "value": 0.7874015748031497
            },
            {
              "number": 11,
              "ticks": 40868,
              "time": 46.0224765,
              "value": 0.7795275590551181
            },
            {
              "number": 11,
              "ticks": 40887,
              "time": 46.043872875000005,
              "value": 0.7716535433070866
            },
            {
              "number": 11,
              "ticks": 40906,
              "time": 46.06526925,
              "value": 0.7637795275590551
            },
            {
              "number": 11,
              "ticks": 40925,
              "time": 46.086665625,
              "value": 0.7559055118110236
            },
            {
              "number": 11,
              "ticks": 40944,
              "time": 46.108062,
              "value": 0.7480314960629921
            },
            {
              "number": 11,
              "ticks": 40963,
              "time": 46.129458375000006,
              "value": 0.7401574803149606
            },
            {
              "number": 11,
              "ticks": 40982,
              "time": 46.15085475,
              "value": 0.7322834645669292
            },
            {
              "number": 11,
              "ticks": 41001,
              "time": 46.172251125,
              "value": 0.7244094488188977
            },
            {
              "number": 11,
              "ticks": 41020,
              "time": 46.1936475,
              "value": 0.7165354330708661
            },
            {
              "number": 11,
              "ticks": 41039,
              "time": 46.215043875000006,
              "value": 0.7086614173228346
            },
            {
              "number": 11,
              "ticks": 41058,
              "time": 46.23644025,
              "value": 0.7007874015748031
            },
            {
              "number": 11,
              "ticks": 41077,
              "time": 46.257836625,
              "value": 0.6929133858267716
            },
            {
              "number": 11,
              "ticks": 41096,
              "time": 46.279233,
              "value": 0.6850393700787402
            },
            {
              "number": 11,
              "ticks": 41115,
              "time": 46.300629375,
              "value": 0.6771653543307087
            },
            {
              "number": 11,
              "ticks": 41134,
              "time": 46.32202575000001,
              "value": 0.6692913385826772
            },
            {
              "number": 11,
              "ticks": 41153,
              "time": 46.343422125000004,
              "value": 0.6614173228346457
            },
            {
              "number": 11,
              "ticks": 41172,
              "time": 46.364818500000005,
              "value": 0.6535433070866141
            },
            {
              "number": 11,
              "ticks": 41191,
              "time": 46.386214875,
              "value": 0.6456692913385826
            },
            {
              "number": 11,
              "ticks": 41210,
              "time": 46.40761125,
              "value": 0.6377952755905512
            },
            {
              "number": 11,
              "ticks": 41229,
              "time": 46.429007625,
              "value": 0.6299212598425197
            },
            {
              "number": 11,
              "ticks": 41270,
              "time": 46.475178750000005,
              "value": 1
            },
            {
              "number": 11,
              "ticks": 121310,
              "time": 136.61022375,
              "value": 0.07874015748031496
            },
            {
              "number": 11,
              "ticks": 121325,
              "time": 136.627115625,
              "value": 0.08661417322834646
            },
            {
              "number": 11,
              "ticks": 121340,
              "time": 136.6440075,
              "value": 0.09448818897637795
            },
            {
              "number": 11,
              "ticks": 121355,
              "time": 136.660899375,
              "value": 0.10236220472440945
            },
            {
              "number": 11,
              "ticks": 121370,
              "time": 136.67779125,
              "value": 0.11023622047244094
            },
            {
              "number": 11,
              "ticks": 121385,
              "time": 136.694683125,
              "value": 0.11811023622047244
            },
            {
              "number": 11,
              "ticks": 121400,
              "time": 136.711575,
              "value": 0.12598425196850394
            },
            {
              "number": 11,
              "ticks": 121415,
              "time": 136.728466875,
              "value": 0.14173228346456693
            },
            {
              "number": 11,
              "ticks": 121430,
              "time": 136.74535875,
              "value": 0.14960629921259844
            },
            {
              "number": 11,
              "ticks": 121445,
              "time": 136.762250625,
              "value": 0.15748031496062992
            },
            {
              "number": 11,
              "ticks": 121460,
              "time": 136.7791425,
              "value": 0.16535433070866143
            },
            {
              "number": 11,
              "ticks": 121475,
              "time": 136.796034375,
              "value": 0.1732283464566929
            },
            {
              "number": 11,
              "ticks": 121490,
              "time": 136.81292625,
              "value": 0.18110236220472442
            },
            {
              "number": 11,
              "ticks": 121505,
              "time": 136.829818125,
              "value": 0.1968503937007874
            },
            {
              "number": 11,
              "ticks": 121520,
              "time": 136.84671,
              "value": 0.2047244094488189
            },
            {
              "number": 11,
              "ticks": 121535,
              "time": 136.863601875,
              "value": 0.2125984251968504
            },
            {
              "number": 11,
              "ticks": 121550,
              "time": 136.88049375,
              "value": 0.2204724409448819
            },
            {
              "number": 11,
              "ticks": 121565,
              "time": 136.897385625,
              "value": 0.2283464566929134
            },
            {
              "number": 11,
              "ticks": 121580,
              "time": 136.9142775,
              "value": 0.23622047244094488
            },
            {
              "number": 11,
              "ticks": 121595,
              "time": 136.931169375,
              "value": 0.25196850393700787
            },
            {
              "number": 11,
              "ticks": 121610,
              "time": 136.94806125,
              "value": 0.25984251968503935
            },
            {
              "number": 11,
              "ticks": 121625,
              "time": 136.964953125,
              "value": 0.2677165354330709
            },
            {
              "number": 11,
              "ticks": 121640,
              "time": 136.981845,
              "value": 0.2755905511811024
            },
            {
              "number": 11,
              "ticks": 121655,
              "time": 136.998736875,
              "value": 0.28346456692913385
            },
            {
              "number": 11,
              "ticks": 121670,
              "time": 137.01562875,
              "value": 0.29133858267716534
            },
            {
              "number": 11,
              "ticks": 121685,
              "time": 137.032520625,
              "value": 0.30708661417322836
            },
            {
              "number": 11,
              "ticks": 121700,
              "time": 137.0494125,
              "value": 0.31496062992125984
            },
            {
              "number": 11,
              "ticks": 121715,
              "time": 137.066304375,
              "value": 0.3228346456692913
            },
            {
              "number": 11,
              "ticks": 121730,
              "time": 137.08319625,
              "value": 0.33070866141732286
            },
            {
              "number": 11,
              "ticks": 121745,
              "time": 137.100088125,
              "value": 0.33858267716535434
            },
            {
              "number": 11,
              "ticks": 121760,
              "time": 137.11698,
              "value": 0.3464566929133858
            },
            {
              "number": 11,
              "ticks": 121775,
              "time": 137.133871875,
              "value": 0.36220472440944884
            },
            {
              "number": 11,
              "ticks": 121790,
              "time": 137.15076375,
              "value": 0.3700787401574803
            },
            {
              "number": 11,
              "ticks": 121805,
              "time": 137.167655625,
              "value": 0.3779527559055118
            },
            {
              "number": 11,
              "ticks": 121820,
              "time": 137.1845475,
              "value": 0.3858267716535433
            },
            {
              "number": 11,
              "ticks": 121835,
              "time": 137.201439375,
              "value": 0.3937007874015748
            },
            {
              "number": 11,
              "ticks": 121850,
              "time": 137.21833125,
              "value": 0.4015748031496063
            },
            {
              "number": 11,
              "ticks": 121865,
              "time": 137.235223125,
              "value": 0.41732283464566927
            },
            {
              "number": 11,
              "ticks": 121880,
              "time": 137.252115,
              "value": 0.4251968503937008
            },
            {
              "number": 11,
              "ticks": 121895,
              "time": 137.269006875,
              "value": 0.4330708661417323
            },
            {
              "number": 11,
              "ticks": 121910,
              "time": 137.28589875,
              "value": 0.4409448818897638
            },
            {
              "number": 11,
              "ticks": 121925,
              "time": 137.302790625,
              "value": 0.44881889763779526
            },
            {
              "number": 11,
              "ticks": 121940,
              "time": 137.3196825,
              "value": 0.4566929133858268
            },
            {
              "number": 11,
              "ticks": 121955,
              "time": 137.336574375,
              "value": 0.47244094488188976
            },
            {
              "number": 11,
              "ticks": 121970,
              "time": 137.35346625,
              "value": 0.48031496062992124
            },
            {
              "number": 11,
              "ticks": 121985,
              "time": 137.370358125,
              "value": 0.4881889763779528
            },
            {
              "number": 11,
              "ticks": 122000,
              "time": 137.38725,
              "value": 0.49606299212598426
            },
            {
              "number": 11,
              "ticks": 122015,
              "time": 137.404141875,
              "value": 0.5039370078740157
            },
            {
              "number": 11,
              "ticks": 122030,
              "time": 137.42103375,
              "value": 0.5118110236220472
            },
            {
              "number": 11,
              "ticks": 122045,
              "time": 137.437925625,
              "value": 0.5275590551181102
            },
            {
              "number": 11,
              "ticks": 122060,
              "time": 137.4548175,
              "value": 0.5354330708661418
            },
            {
              "number": 11,
              "ticks": 122075,
              "time": 137.471709375,
              "value": 0.5433070866141733
            },
            {
              "number": 11,
              "ticks": 122090,
              "time": 137.48860125,
              "value": 0.5511811023622047
            },
            {
              "number": 11,
              "ticks": 122105,
              "time": 137.505493125,
              "value": 0.5590551181102362
            },
            {
              "number": 11,
              "ticks": 122120,
              "time": 137.522385,
              "value": 0.5669291338582677
            },
            {
              "number": 11,
              "ticks": 122135,
              "time": 137.539276875,
              "value": 0.5826771653543307
            },
            {
              "number": 11,
              "ticks": 122150,
              "time": 137.55616875,
              "value": 0.5905511811023622
            },
            {
              "number": 11,
              "ticks": 122165,
              "time": 137.573060625,
              "value": 0.5984251968503937
            },
            {
              "number": 11,
              "ticks": 122180,
              "time": 137.5899525,
              "value": 0.6062992125984252
            },
            {
              "number": 11,
              "ticks": 122195,
              "time": 137.606844375,
              "value": 0.6141732283464567
            },
            {
              "number": 11,
              "ticks": 122210,
              "time": 137.62373625,
              "value": 0.6220472440944882
            },
            {
              "number": 11,
              "ticks": 122225,
              "time": 137.640628125,
              "value": 0.6377952755905512
            },
            {
              "number": 11,
              "ticks": 122240,
              "time": 137.65752,
              "value": 0.6456692913385826
            },
            {
              "number": 11,
              "ticks": 122255,
              "time": 137.674411875,
              "value": 0.6535433070866141
            },
            {
              "number": 11,
              "ticks": 122270,
              "time": 137.69130375,
              "value": 0.6614173228346457
            },
            {
              "number": 11,
              "ticks": 122285,
              "time": 137.708195625,
              "value": 0.6692913385826772
            },
            {
              "number": 11,
              "ticks": 122300,
              "time": 137.7250875,
              "value": 0.6771653543307087
            },
            {
              "number": 11,
              "ticks": 122315,
              "time": 137.741979375,
              "value": 0.6929133858267716
            },
            {
              "number": 11,
              "ticks": 122330,
              "time": 137.75887125,
              "value": 0.7007874015748031
            },
            {
              "number": 11,
              "ticks": 122345,
              "time": 137.775763125,
              "value": 0.7086614173228346
            },
            {
              "number": 11,
              "ticks": 122360,
              "time": 137.792655,
              "value": 0.7165354330708661
            },
            {
              "number": 11,
              "ticks": 122375,
              "time": 137.809546875,
              "value": 0.7244094488188977
            },
            {
              "number": 11,
              "ticks": 122390,
              "time": 137.82643875,
              "value": 0.7322834645669292
            },
            {
              "number": 11,
              "ticks": 122405,
              "time": 137.843330625,
              "value": 0.7480314960629921
            },
            {
              "number": 11,
              "ticks": 122420,
              "time": 137.8602225,
              "value": 0.7559055118110236
            },
            {
              "number": 11,
              "ticks": 122435,
              "time": 137.877114375,
              "value": 0.7637795275590551
            },
            {
              "number": 11,
              "ticks": 122450,
              "time": 137.89400625,
              "value": 0.7716535433070866
            },
            {
              "number": 11,
              "ticks": 122465,
              "time": 137.910898125,
              "value": 0.7795275590551181
            },
            {
              "number": 11,
              "ticks": 122469,
              "time": 137.915402625,
              "value": 0.7874015748031497
            },
            {
              "number": 11,
              "ticks": 122930,
              "time": 138.43454625,
              "value": 0.8661417322834646
            },
            {
              "number": 11,
              "ticks": 122952,
              "time": 138.459321,
              "value": 0.8582677165354331
            },
            {
              "number": 11,
              "ticks": 122975,
              "time": 138.485221875,
              "value": 0.8503937007874016
            },
            {
              "number": 11,
              "ticks": 122997,
              "time": 138.50999662499999,
              "value": 0.84251968503937
            },
            {
              "number": 11,
              "ticks": 123020,
              "time": 138.5358975,
              "value": 0.8346456692913385
            },
            {
              "number": 11,
              "ticks": 123042,
              "time": 138.56067224999998,
              "value": 0.8267716535433071
            },
            {
              "number": 11,
              "ticks": 123065,
              "time": 138.58657312500003,
              "value": 0.8188976377952756
            },
            {
              "number": 11,
              "ticks": 123088,
              "time": 138.61247400000002,
              "value": 0.8110236220472441
            },
            {
              "number": 11,
              "ticks": 123110,
              "time": 138.63724875000003,
              "value": 0.8031496062992126
            },
            {
              "number": 11,
              "ticks": 123133,
              "time": 138.66314962500002,
              "value": 0.7952755905511811
            },
            {
              "number": 11,
              "ticks": 123155,
              "time": 138.68792437500002,
              "value": 0.7874015748031497
            },
            {
              "number": 11,
              "ticks": 123178,
              "time": 138.71382525,
              "value": 0.7795275590551181
            },
            {
              "number": 11,
              "ticks": 123201,
              "time": 138.739726125,
              "value": 0.7716535433070866
            },
            {
              "number": 11,
              "ticks": 123223,
              "time": 138.764500875,
              "value": 0.7637795275590551
            },
            {
              "number": 11,
              "ticks": 123246,
              "time": 138.79040175,
              "value": 0.7559055118110236
            },
            {
              "number": 11,
              "ticks": 123268,
              "time": 138.8151765,
              "value": 0.7480314960629921
            },
            {
              "number": 11,
              "ticks": 123291,
              "time": 138.841077375,
              "value": 0.7401574803149606
            },
            {
              "number": 11,
              "ticks": 123314,
              "time": 138.86697825,
              "value": 0.7322834645669292
            },
            {
              "number": 11,
              "ticks": 123336,
              "time": 138.891753,
              "value": 0.7244094488188977
            },
            {
              "number": 11,
              "ticks": 123359,
              "time": 138.91765387499998,
              "value": 0.7165354330708661
            },
            {
              "number": 11,
              "ticks": 123381,
              "time": 138.942428625,
              "value": 0.7086614173228346
            },
            {
              "number": 11,
              "ticks": 123404,
              "time": 138.96832949999998,
              "value": 0.7007874015748031
            },
            {
              "number": 11,
              "ticks": 123426,
              "time": 138.99310425,
              "value": 0.6929133858267716
            },
            {
              "number": 11,
              "ticks": 123449,
              "time": 139.01900512499998,
              "value": 0.6850393700787402
            },
            {
              "number": 11,
              "ticks": 123472,
              "time": 139.04490600000003,
              "value": 0.6771653543307087
            },
            {
              "number": 11,
              "ticks": 123494,
              "time": 139.06968075,
              "value": 0.6692913385826772
            },
            {
              "number": 11,
              "ticks": 123517,
              "time": 139.09558162500002,
              "value": 0.6614173228346457
            },
            {
              "number": 11,
              "ticks": 123539,
              "time": 139.120356375,
              "value": 0.6535433070866141
            },
            {
              "number": 11,
              "ticks": 123562,
              "time": 139.14625725000002,
              "value": 0.6456692913385826
            },
            {
              "number": 11,
              "ticks": 123585,
              "time": 139.172158125,
              "value": 0.6377952755905512
            },
            {
              "number": 11,
              "ticks": 123607,
              "time": 139.19693287500002,
              "value": 0.6299212598425197
            },
            {
              "number": 11,
              "ticks": 123630,
              "time": 139.22283375,
              "value": 0.6220472440944882
            },
            {
              "number": 11,
              "ticks": 123652,
              "time": 139.2476085,
              "value": 0.6141732283464567
            },
            {
              "number": 11,
              "ticks": 123675,
              "time": 139.273509375,
              "value": 0.6062992125984252
            },
            {
              "number": 11,
              "ticks": 123698,
              "time": 139.29941025,
              "value": 0.5984251968503937
            },
            {
              "number": 11,
              "ticks": 123720,
              "time": 139.324185,
              "value": 0.5905511811023622
            },
            {
              "number": 11,
              "ticks": 123743,
              "time": 139.350085875,
              "value": 0.5826771653543307
            },
            {
              "number": 11,
              "ticks": 123765,
              "time": 139.374860625,
              "value": 0.5748031496062992
            },
            {
              "number": 11,
              "ticks": 123788,
              "time": 139.4007615,
              "value": 0.5669291338582677
            },
            {
              "number": 11,
              "ticks": 123811,
              "time": 139.426662375,
              "value": 0.5590551181102362
            },
            {
              "number": 11,
              "ticks": 123833,
              "time": 139.45143712499998,
              "value": 0.5511811023622047
            },
            {
              "number": 11,
              "ticks": 123856,
              "time": 139.47733800000003,
              "value": 0.5433070866141733
            },
            {
              "number": 11,
              "ticks": 123878,
              "time": 139.50211275,
              "value": 0.5354330708661418
            },
            {
              "number": 11,
              "ticks": 123901,
              "time": 139.52801362500003,
              "value": 0.5275590551181102
            },
            {
              "number": 11,
              "ticks": 123923,
              "time": 139.552788375,
              "value": 0.5196850393700787
            },
            {
              "number": 11,
              "ticks": 123946,
              "time": 139.57868925000002,
              "value": 0.5118110236220472
            },
            {
              "number": 11,
              "ticks": 123969,
              "time": 139.60459012500002,
              "value": 0.5039370078740157
            },
            {
              "number": 11,
              "ticks": 123991,
              "time": 139.62936487500002,
              "value": 0.49606299212598426
            },
            {
              "number": 11,
              "ticks": 124014,
              "time": 139.65526575,
              "value": 0.4881889763779528
            },
            {
              "number": 11,
              "ticks": 124036,
              "time": 139.68004050000002,
              "value": 0.48031496062992124
            },
            {
              "number": 11,
              "ticks": 124059,
              "time": 139.705941375,
              "value": 0.47244094488188976
            },
            {
              "number": 11,
              "ticks": 124082,
              "time": 139.73184225,
              "value": 0.4645669291338583
            },
            {
              "number": 11,
              "ticks": 124104,
              "time": 139.756617,
              "value": 0.4566929133858268
            },
            {
              "number": 11,
              "ticks": 124127,
              "time": 139.782517875,
              "value": 0.44881889763779526
            },
            {
              "number": 11,
              "ticks": 124149,
              "time": 139.807292625,
              "value": 0.4409448818897638
            },
            {
              "number": 11,
              "ticks": 124172,
              "time": 139.8331935,
              "value": 0.4330708661417323
            },
            {
              "number": 11,
              "ticks": 124195,
              "time": 139.85909437499998,
              "value": 0.4251968503937008
            },
            {
              "number": 11,
              "ticks": 124217,
              "time": 139.883869125,
              "value": 0.41732283464566927
            },
            {
              "number": 11,
              "ticks": 124240,
              "time": 139.90977,
              "value": 0.4094488188976378
            },
            {
              "number": 11,
              "ticks": 124262,
              "time": 139.93454475000001,
              "value": 0.4015748031496063
            },
            {
              "number": 11,
              "ticks": 124285,
              "time": 139.960445625,
              "value": 0.3937007874015748
            },
            {
              "number": 11,
              "ticks": 124307,
              "time": 139.985220375,
              "value": 0.3858267716535433
            },
            {
              "number": 11,
              "ticks": 124330,
              "time": 140.01112125,
              "value": 0.3779527559055118
            },
            {
              "number": 11,
              "ticks": 124353,
              "time": 140.03702212500002,
              "value": 0.3700787401574803
            },
            {
              "number": 11,
              "ticks": 124375,
              "time": 140.061796875,
              "value": 0.36220472440944884
            },
            {
              "number": 11,
              "ticks": 124398,
              "time": 140.08769775000002,
              "value": 0.3543307086614173
            },
            {
              "number": 11,
              "ticks": 124420,
              "time": 140.1124725,
              "value": 0.3464566929133858
            },
            {
              "number": 11,
              "ticks": 124443,
              "time": 140.13837337500001,
              "value": 0.33858267716535434
            },
            {
              "number": 11,
              "ticks": 124466,
              "time": 140.16427425,
              "value": 0.33070866141732286
            },
            {
              "number": 11,
              "ticks": 124488,
              "time": 140.189049,
              "value": 0.3228346456692913
            },
            {
              "number": 11,
              "ticks": 124511,
              "time": 140.214949875,
              "value": 0.31496062992125984
            },
            {
              "number": 11,
              "ticks": 124533,
              "time": 140.239724625,
              "value": 0.30708661417322836
            },
            {
              "number": 11,
              "ticks": 124556,
              "time": 140.2656255,
              "value": 0.2992125984251969
            },
            {
              "number": 11,
              "ticks": 124579,
              "time": 140.291526375,
              "value": 0.29133858267716534
            },
            {
              "number": 11,
              "ticks": 124601,
              "time": 140.316301125,
              "value": 0.28346456692913385
            },
            {
              "number": 11,
              "ticks": 124624,
              "time": 140.34220200000001,
              "value": 0.2755905511811024
            },
            {
              "number": 11,
              "ticks": 124646,
              "time": 140.36697675000002,
              "value": 0.2677165354330709
            },
            {
              "number": 11,
              "ticks": 124669,
              "time": 140.392877625,
              "value": 0.25984251968503935
            },
            {
              "number": 11,
              "ticks": 124692,
              "time": 140.4187785,
              "value": 0.25196850393700787
            },
            {
              "number": 11,
              "ticks": 124714,
              "time": 140.44355325,
              "value": 0.2440944881889764
            },
            {
              "number": 11,
              "ticks": 124737,
              "time": 140.469454125,
              "value": 0.23622047244094488
            },
            {
              "number": 11,
              "ticks": 124759,
              "time": 140.494228875,
              "value": 0.2283464566929134
            },
            {
              "number": 11,
              "ticks": 124782,
              "time": 140.52012975,
              "value": 0.2204724409448819
            },
            {
              "number": 11,
              "ticks": 124804,
              "time": 140.5449045,
              "value": 0.2125984251968504
            },
            {
              "number": 11,
              "ticks": 124827,
              "time": 140.570805375,
              "value": 0.2047244094488189
            },
            {
              "number": 11,
              "ticks": 124850,
              "time": 140.59670625,
              "value": 0.1968503937007874
            },
            {
              "number": 11,
              "ticks": 124872,
              "time": 140.621481,
              "value": 0.1889763779527559
            },
            {
              "number": 11,
              "ticks": 124895,
              "time": 140.647381875,
              "value": 0.18110236220472442
            },
            {
              "number": 11,
              "ticks": 124917,
              "time": 140.67215662499999,
              "value": 0.1732283464566929
            },
            {
              "number": 11,
              "ticks": 124940,
              "time": 140.6980575,
              "value": 0.16535433070866143
            },
            {
              "number": 11,
              "ticks": 124963,
              "time": 140.723958375,
              "value": 0.15748031496062992
            },
            {
              "number": 11,
              "ticks": 124985,
              "time": 140.74873312500003,
              "value": 0.14960629921259844
            },
            {
              "number": 11,
              "ticks": 125008,
              "time": 140.77463400000002,
              "value": 0.14173228346456693
            },
            {
              "number": 11,
              "ticks": 125030,
              "time": 140.79940875000003,
              "value": 0.13385826771653545
            },
            {
              "number": 11,
              "ticks": 125053,
              "time": 140.82530962500002,
              "value": 0.12598425196850394
            },
            {
              "number": 11,
              "ticks": 125076,
              "time": 140.8512105,
              "value": 0.11811023622047244
            },
            {
              "number": 11,
              "ticks": 125098,
              "time": 140.87598525,
              "value": 0.11023622047244094
            },
            {
              "number": 11,
              "ticks": 125121,
              "time": 140.901886125,
              "value": 0.10236220472440945
            },
            {
              "number": 11,
              "ticks": 125143,
              "time": 140.926660875,
              "value": 0.09448818897637795
            },
            {
              "number": 11,
              "ticks": 125166,
              "time": 140.95256175,
              "value": 0.08661417322834646
            },
            {
              "number": 11,
              "ticks": 125189,
              "time": 140.978462625,
              "value": 0.07874015748031496
            },
            {
              "number": 11,
              "ticks": 126099,
              "time": 142.003236375,
              "value": 1
            },
            {
              "number": 11,
              "ticks": 128540,
              "time": 144.75210750000002,
              "value": 0.3937007874015748
            },
            {
              "number": 11,
              "ticks": 128609,
              "time": 144.829810125,
              "value": 0.4015748031496063
            },
            {
              "number": 11,
              "ticks": 128638,
              "time": 144.86246775,
              "value": 0.4094488188976378
            },
            {
              "number": 11,
              "ticks": 128666,
              "time": 144.89399925,
              "value": 0.41732283464566927
            },
            {
              "number": 11,
              "ticks": 128694,
              "time": 144.92553075,
              "value": 0.4251968503937008
            },
            {
              "number": 11,
              "ticks": 128721,
              "time": 144.955936125,
              "value": 0.4330708661417323
            },
            {
              "number": 11,
              "ticks": 128748,
              "time": 144.9863415,
              "value": 0.4409448818897638
            },
            {
              "number": 11,
              "ticks": 128775,
              "time": 145.016746875,
              "value": 0.44881889763779526
            },
            {
              "number": 11,
              "ticks": 128801,
              "time": 145.046026125,
              "value": 0.4566929133858268
            },
            {
              "number": 11,
              "ticks": 128827,
              "time": 145.07530537500003,
              "value": 0.4645669291338583
            },
            {
              "number": 11,
              "ticks": 128853,
              "time": 145.10458462500003,
              "value": 0.47244094488188976
            },
            {
              "number": 11,
              "ticks": 128878,
              "time": 145.13273775000002,
              "value": 0.48031496062992124
            },
            {
              "number": 11,
              "ticks": 128903,
              "time": 145.160890875,
              "value": 0.4881889763779528
            },
            {
              "number": 11,
              "ticks": 128928,
              "time": 145.18904400000002,
              "value": 0.49606299212598426
            },
            {
              "number": 11,
              "ticks": 128952,
              "time": 145.216071,
              "value": 0.5039370078740157
            },
            {
              "number": 11,
              "ticks": 128976,
              "time": 145.243098,
              "value": 0.5118110236220472
            },
            {
              "number": 11,
              "ticks": 129000,
              "time": 145.270125,
              "value": 0.5196850393700787
            },
            {
              "number": 11,
              "ticks": 129024,
              "time": 145.297152,
              "value": 0.5275590551181102
            },
            {
              "number": 11,
              "ticks": 129047,
              "time": 145.323052875,
              "value": 0.5354330708661418
            },
            {
              "number": 11,
              "ticks": 129070,
              "time": 145.34895375,
              "value": 0.5433070866141733
            },
            {
              "number": 11,
              "ticks": 129093,
              "time": 145.374854625,
              "value": 0.5511811023622047
            },
            {
              "number": 11,
              "ticks": 129116,
              "time": 145.4007555,
              "value": 0.5590551181102362
            },
            {
              "number": 11,
              "ticks": 129138,
              "time": 145.42553025,
              "value": 0.5669291338582677
            },
            {
              "number": 11,
              "ticks": 129160,
              "time": 145.450305,
              "value": 0.5748031496062992
            },
            {
              "number": 11,
              "ticks": 129181,
              "time": 145.473953625,
              "value": 0.5826771653543307
            },
            {
              "number": 11,
              "ticks": 129203,
              "time": 145.49872837499998,
              "value": 0.5905511811023622
            },
            {
              "number": 11,
              "ticks": 129224,
              "time": 145.52237699999998,
              "value": 0.5984251968503937
            },
            {
              "number": 11,
              "ticks": 129245,
              "time": 145.54602562500003,
              "value": 0.6062992125984252
            },
            {
              "number": 11,
              "ticks": 129266,
              "time": 145.56967425000002,
              "value": 0.6141732283464567
            },
            {
              "number": 11,
              "ticks": 129287,
              "time": 145.593322875,
              "value": 0.6220472440944882
            },
            {
              "number": 11,
              "ticks": 129307,
              "time": 145.61584537500002,
              "value": 0.6299212598425197
            },
            {
              "number": 11,
              "ticks": 129327,
              "time": 145.638367875,
              "value": 0.6377952755905512
            },
            {
              "number": 11,
              "ticks": 129347,
              "time": 145.660890375,
              "value": 0.6456692913385826
            },
            {
              "number": 11,
              "ticks": 129366,
              "time": 145.68228675,
              "value": 0.6535433070866141
            },
            {
              "number": 11,
              "ticks": 129386,
              "time": 145.70480925,
              "value": 0.6614173228346457
            },
            {
              "number": 11,
              "ticks": 129405,
              "time": 145.726205625,
              "value": 0.6692913385826772
            },
            {
              "number": 11,
              "ticks": 129424,
              "time": 145.747602,
              "value": 0.6771653543307087
            },
            {
              "number": 11,
              "ticks": 129443,
              "time": 145.768998375,
              "value": 0.6850393700787402
            },
            {
              "number": 11,
              "ticks": 129462,
              "time": 145.79039475,
              "value": 0.6929133858267716
            },
            {
              "number": 11,
              "ticks": 129480,
              "time": 145.810665,
              "value": 0.7007874015748031
            },
            {
              "number": 11,
              "ticks": 129498,
              "time": 145.83093525,
              "value": 0.7086614173228346
            },
            {
              "number": 11,
              "ticks": 129516,
              "time": 145.8512055,
              "value": 0.7165354330708661
            },
            {
              "number": 11,
              "ticks": 129534,
              "time": 145.87147575,
              "value": 0.7244094488188977
            },
            {
              "number": 11,
              "ticks": 129552,
              "time": 145.89174599999998,
              "value": 0.7322834645669292
            },
            {
              "number": 11,
              "ticks": 129569,
              "time": 145.91089012499998,
              "value": 0.7401574803149606
            },
            {
              "number": 11,
              "ticks": 129587,
              "time": 145.931160375,
              "value": 0.7480314960629921
            },
            {
              "number": 11,
              "ticks": 129604,
              "time": 145.9503045,
              "value": 0.7559055118110236
            },
            {
              "number": 11,
              "ticks": 129621,
              "time": 145.969448625,
              "value": 0.7637795275590551
            },
            {
              "number": 11,
              "ticks": 129638,
              "time": 145.98859275,
              "value": 0.7716535433070866
            },
            {
              "number": 11,
              "ticks": 129654,
              "time": 146.00661075000002,
              "value": 0.7795275590551181
            },
            {
              "number": 11,
              "ticks": 129671,
              "time": 146.02575487500002,
              "value": 0.7874015748031497
            },
            {
              "number": 11,
              "ticks": 129840,
              "time": 146.21607,
              "value": 0.7874015748031497
            },
            {
              "number": 11,
              "ticks": 129868,
              "time": 146.2476015,
              "value": 0.7795275590551181
            },
            {
              "number": 11,
              "ticks": 129897,
              "time": 146.280259125,
              "value": 0.7716535433070866
            },
            {
              "number": 11,
              "ticks": 129926,
              "time": 146.31291675,
              "value": 0.7637795275590551
            },
            {
              "number": 11,
              "ticks": 129955,
              "time": 146.34557437499998,
              "value": 0.7559055118110236
            },
            {
              "number": 11,
              "ticks": 129984,
              "time": 146.37823200000003,
              "value": 0.7480314960629921
            },
            {
              "number": 11,
              "ticks": 130013,
              "time": 146.410889625,
              "value": 0.7401574803149606
            },
            {
              "number": 11,
              "ticks": 130042,
              "time": 146.44354725000002,
              "value": 0.7322834645669292
            },
            {
              "number": 11,
              "ticks": 130071,
              "time": 146.476204875,
              "value": 0.7244094488188977
            },
            {
              "number": 11,
              "ticks": 130100,
              "time": 146.50886250000002,
              "value": 0.7165354330708661
            },
            {
              "number": 11,
              "ticks": 130129,
              "time": 146.541520125,
              "value": 0.7086614173228346
            },
            {
              "number": 11,
              "ticks": 130158,
              "time": 146.57417775000002,
              "value": 0.7007874015748031
            },
            {
              "number": 11,
              "ticks": 130187,
              "time": 146.606835375,
              "value": 0.6929133858267716
            },
            {
              "number": 11,
              "ticks": 130216,
              "time": 146.63949300000002,
              "value": 0.6850393700787402
            },
            {
              "number": 11,
              "ticks": 130245,
              "time": 146.672150625,
              "value": 0.6771653543307087
            },
            {
              "number": 11,
              "ticks": 130274,
              "time": 146.70480824999999,
              "value": 0.6692913385826772
            },
            {
              "number": 11,
              "ticks": 130303,
              "time": 146.737465875,
              "value": 0.6614173228346457
            },
            {
              "number": 11,
              "ticks": 130332,
              "time": 146.77012349999998,
              "value": 0.6535433070866141
            },
            {
              "number": 11,
              "ticks": 130361,
              "time": 146.802781125,
              "value": 0.6456692913385826
            },
            {
              "number": 11,
              "ticks": 130390,
              "time": 146.83543875,
              "value": 0.6377952755905512
            },
            {
              "number": 11,
              "ticks": 130419,
              "time": 146.86809637500002,
              "value": 0.6299212598425197
            },
            {
              "number": 11,
              "ticks": 130475,
              "time": 146.93115937500002,
              "value": 0.6377952755905512
            },
            {
              "number": 11,
              "ticks": 130490,
              "time": 146.94805125000002,
              "value": 0.6456692913385826
            },
            {
              "number": 11,
              "ticks": 130505,
              "time": 146.96494312500002,
              "value": 0.6535433070866141
            },
            {
              "number": 11,
              "ticks": 130520,
              "time": 146.98183500000002,
              "value": 0.6614173228346457
            },
            {
              "number": 11,
              "ticks": 130535,
              "time": 146.99872687500002,
              "value": 0.6692913385826772
            },
            {
              "number": 11,
              "ticks": 130550,
              "time": 147.01561875000002,
              "value": 0.6771653543307087
            },
            {
              "number": 11,
              "ticks": 130565,
              "time": 147.03251062500001,
              "value": 0.6850393700787402
            },
            {
              "number": 11,
              "ticks": 130580,
              "time": 147.0494025,
              "value": 0.6929133858267716
            },
            {
              "number": 11,
              "ticks": 130595,
              "time": 147.066294375,
              "value": 0.7007874015748031
            },
            {
              "number": 11,
              "ticks": 130610,
              "time": 147.08318625,
              "value": 0.7086614173228346
            },
            {
              "number": 11,
              "ticks": 130625,
              "time": 147.100078125,
              "value": 0.7165354330708661
            },
            {
              "number": 11,
              "ticks": 130640,
              "time": 147.11697,
              "value": 0.7244094488188977
            },
            {
              "number": 11,
              "ticks": 130655,
              "time": 147.133861875,
              "value": 0.7322834645669292
            },
            {
              "number": 11,
              "ticks": 130670,
              "time": 147.15075375,
              "value": 0.7401574803149606
            },
            {
              "number": 11,
              "ticks": 130685,
              "time": 147.167645625,
              "value": 0.7480314960629921
            },
            {
              "number": 11,
              "ticks": 130700,
              "time": 147.1845375,
              "value": 0.7559055118110236
            },
            {
              "number": 11,
              "ticks": 130715,
              "time": 147.201429375,
              "value": 0.7637795275590551
            },
            {
              "number": 11,
              "ticks": 130730,
              "time": 147.21832125,
              "value": 0.7716535433070866
            },
            {
              "number": 11,
              "ticks": 130745,
              "time": 147.23521312500003,
              "value": 0.7795275590551181
            },
            {
              "number": 11,
              "ticks": 130760,
              "time": 147.25210500000003,
              "value": 0.7874015748031497
            },
            {
              "number": 11,
              "ticks": 130775,
              "time": 147.26899687500003,
              "value": 0.7952755905511811
            },
            {
              "number": 11,
              "ticks": 130790,
              "time": 147.28588875000003,
              "value": 0.8031496062992126
            },
            {
              "number": 11,
              "ticks": 130805,
              "time": 147.30278062500003,
              "value": 0.8110236220472441
            },
            {
              "number": 11,
              "ticks": 130820,
              "time": 147.31967250000002,
              "value": 0.8188976377952756
            },
            {
              "number": 11,
              "ticks": 130835,
              "time": 147.33656437500002,
              "value": 0.8267716535433071
            },
            {
              "number": 11,
              "ticks": 130850,
              "time": 147.35345625000002,
              "value": 0.8346456692913385
            },
            {
              "number": 11,
              "ticks": 130865,
              "time": 147.37034812500002,
              "value": 0.84251968503937
            },
            {
              "number": 11,
              "ticks": 130880,
              "time": 147.38724000000002,
              "value": 0.8503937007874016
            },
            {
              "number": 11,
              "ticks": 130895,
              "time": 147.40413187500002,
              "value": 0.8582677165354331
            },
            {
              "number": 11,
              "ticks": 130899,
              "time": 147.40863637500001,
              "value": 0.8661417322834646
            },
            {
              "number": 11,
              "ticks": 130900,
              "time": 147.4097625,
              "value": 0.8661417322834646
            },
            {
              "number": 11,
              "ticks": 130918,
              "time": 147.43003275,
              "value": 0.8582677165354331
            },
            {
              "number": 11,
              "ticks": 130937,
              "time": 147.451429125,
              "value": 0.8503937007874016
            },
            {
              "number": 11,
              "ticks": 130956,
              "time": 147.4728255,
              "value": 0.84251968503937
            },
            {
              "number": 11,
              "ticks": 130975,
              "time": 147.494221875,
              "value": 0.8346456692913385
            },
            {
              "number": 11,
              "ticks": 130994,
              "time": 147.51561825,
              "value": 0.8267716535433071
            },
            {
              "number": 11,
              "ticks": 131013,
              "time": 147.537014625,
              "value": 0.8188976377952756
            },
            {
              "number": 11,
              "ticks": 131032,
              "time": 147.558411,
              "value": 0.8110236220472441
            },
            {
              "number": 11,
              "ticks": 131051,
              "time": 147.579807375,
              "value": 0.8031496062992126
            },
            {
              "number": 11,
              "ticks": 131070,
              "time": 147.60120375,
              "value": 0.7952755905511811
            },
            {
              "number": 11,
              "ticks": 131089,
              "time": 147.622600125,
              "value": 0.7874015748031497
            },
            {
              "number": 11,
              "ticks": 131108,
              "time": 147.6439965,
              "value": 0.7795275590551181
            },
            {
              "number": 11,
              "ticks": 131127,
              "time": 147.66539287499998,
              "value": 0.7716535433070866
            },
            {
              "number": 11,
              "ticks": 131146,
              "time": 147.68678925000003,
              "value": 0.7637795275590551
            },
            {
              "number": 11,
              "ticks": 131165,
              "time": 147.70818562500003,
              "value": 0.7559055118110236
            },
            {
              "number": 11,
              "ticks": 131184,
              "time": 147.72958200000002,
              "value": 0.7480314960629921
            },
            {
              "number": 11,
              "ticks": 131203,
              "time": 147.75097837500002,
              "value": 0.7401574803149606
            },
            {
              "number": 11,
              "ticks": 131222,
              "time": 147.77237475,
              "value": 0.7322834645669292
            },
            {
              "number": 11,
              "ticks": 131241,
              "time": 147.793771125,
              "value": 0.7244094488188977
            },
            {
              "number": 11,
              "ticks": 131260,
              "time": 147.8151675,
              "value": 0.7165354330708661
            },
            {
              "number": 11,
              "ticks": 131279,
              "time": 147.836563875,
              "value": 0.7086614173228346
            },
            {
              "number": 11,
              "ticks": 131298,
              "time": 147.85796025000002,
              "value": 0.7007874015748031
            },
            {
              "number": 11,
              "ticks": 131317,
              "time": 147.879356625,
              "value": 0.6929133858267716
            },
            {
              "number": 11,
              "ticks": 131336,
              "time": 147.900753,
              "value": 0.6850393700787402
            },
            {
              "number": 11,
              "ticks": 131355,
              "time": 147.922149375,
              "value": 0.6771653543307087
            },
            {
              "number": 11,
              "ticks": 131374,
              "time": 147.94354575,
              "value": 0.6692913385826772
            },
            {
              "number": 11,
              "ticks": 131393,
              "time": 147.964942125,
              "value": 0.6614173228346457
            },
            {
              "number": 11,
              "ticks": 131412,
              "time": 147.9863385,
              "value": 0.6535433070866141
            },
            {
              "number": 11,
              "ticks": 131431,
              "time": 148.007734875,
              "value": 0.6456692913385826
            },
            {
              "number": 11,
              "ticks": 131450,
              "time": 148.02913125,
              "value": 0.6377952755905512
            },
            {
              "number": 11,
              "ticks": 131469,
              "time": 148.050527625,
              "value": 0.6299212598425197
            },
            {
              "number": 11,
              "ticks": 131510,
              "time": 148.09669875000003,
              "value": 1
            }
          ],
          "38": [
            {
              "number": 38,
              "ticks": 690,
              "time": 0.77702625,
              "value": 0.015748031496062992
            }
          ],
          "91": [
            {
              "number": 91,
              "ticks": 660,
              "time": 0.7432425,
              "value": 0.15748031496062992
            }
          ],
          "93": [
            {
              "number": 93,
              "ticks": 660,
              "time": 0.7432425,
              "value": 0.11811023622047244
            }
          ],
          "98": [
            {
              "number": 98,
              "ticks": 30250,
              "time": 34.065281250000005,
              "value": 0.7795275590551181
            },
            {
              "number": 98,
              "ticks": 41250,
              "time": 46.452656250000004,
              "value": 0.7795275590551181
            },
            {
              "number": 98,
              "ticks": 120490,
              "time": 135.68680125,
              "value": 0.7795275590551181
            },
            {
              "number": 98,
              "ticks": 131490,
              "time": 148.07417625,
              "value": 0.7795275590551181
            }
          ],
          "99": [
            {
              "number": 99,
              "ticks": 30240,
              "time": 34.05402,
              "value": 0.007874015748031496
            },
            {
              "number": 99,
              "ticks": 41240,
              "time": 46.44139500000001,
              "value": 0.007874015748031496
            },
            {
              "number": 99,
              "ticks": 120480,
              "time": 135.67554,
              "value": 0.007874015748031496
            },
            {
              "number": 99,
              "ticks": 131480,
              "time": 148.062915,
              "value": 0.007874015748031496
            }
          ],
          "100": [
            {
              "number": 100,
              "ticks": 680,
              "time": 0.765765,
              "value": 0
            }
          ],
          "101": [
            {
              "number": 101,
              "ticks": 670,
              "time": 0.75450375,
              "value": 0
            }
          ]
        },
        "pitchBends": [],
        "instrument": {
          "family": "ensemble",
          "number": 48,
          "name": "string ensemble 1"
        },
        "name": "",
        "notes": [
          {
            "duration": 0.1036034999999984,
            "durationTicks": 92,
            "midi": 65,
            "name": "F4",
            "ticks": 31246,
            "time": 35.18690175,
            "velocity": 0.6062992125984252
          },
          {
            "duration": 0.11036024999999938,
            "durationTicks": 98,
            "midi": 69,
            "name": "A4",
            "ticks": 31297,
            "time": 35.244334125,
            "velocity": 0.6062992125984252
          },
          {
            "duration": 0.09572062499999845,
            "durationTicks": 85,
            "midi": 65,
            "name": "F4",
            "ticks": 31371,
            "time": 35.327667375000004,
            "velocity": 0.6929133858267716
          },
          {
            "duration": 0.11261250000000445,
            "durationTicks": 100,
            "midi": 69,
            "name": "A4",
            "ticks": 31413,
            "time": 35.374964625,
            "velocity": 0.7874015748031497
          },
          {
            "duration": 0.1148647500000024,
            "durationTicks": 102,
            "midi": 65,
            "name": "F4",
            "ticks": 31487,
            "time": 35.458297875,
            "velocity": 0.7874015748031497
          },
          {
            "duration": 0.1148647499999953,
            "durationTicks": 102,
            "midi": 69,
            "name": "A4",
            "ticks": 31534,
            "time": 35.51122575000001,
            "velocity": 0.7874015748031497
          },
          {
            "duration": 0.11711700000000036,
            "durationTicks": 104,
            "midi": 65,
            "name": "F4",
            "ticks": 31611,
            "time": 35.597937375,
            "velocity": 0.7874015748031497
          },
          {
            "duration": 0.11261250000000445,
            "durationTicks": 100,
            "midi": 69,
            "name": "A4",
            "ticks": 31660,
            "time": 35.6531175,
            "velocity": 0.7874015748031497
          },
          {
            "duration": 0.10810800000000143,
            "durationTicks": 96,
            "midi": 65,
            "name": "F4",
            "ticks": 31736,
            "time": 35.738703,
            "velocity": 0.6929133858267716
          },
          {
            "duration": 0.11036024999999938,
            "durationTicks": 98,
            "midi": 69,
            "name": "A4",
            "ticks": 31777,
            "time": 35.784874125,
            "velocity": 0.6929133858267716
          },
          {
            "duration": 0.09909900000000249,
            "durationTicks": 88,
            "midi": 65,
            "name": "F4",
            "ticks": 31854,
            "time": 35.87158575,
            "velocity": 0.7874015748031497
          },
          {
            "duration": 0.1036034999999984,
            "durationTicks": 92,
            "midi": 69,
            "name": "A4",
            "ticks": 31891,
            "time": 35.913252375,
            "velocity": 0.7874015748031497
          },
          {
            "duration": 0.11261249999999734,
            "durationTicks": 100,
            "midi": 65,
            "name": "F4",
            "ticks": 31964,
            "time": 35.9954595,
            "velocity": 0.7874015748031497
          },
          {
            "duration": 0.11711700000000036,
            "durationTicks": 104,
            "midi": 69,
            "name": "A4",
            "ticks": 32003,
            "time": 36.039378375,
            "velocity": 0.7874015748031497
          },
          {
            "duration": 0.08896387500000458,
            "durationTicks": 79,
            "midi": 65,
            "name": "F4",
            "ticks": 32085,
            "time": 36.131720625,
            "velocity": 0.6929133858267716
          },
          {
            "duration": 0.10810799999999432,
            "durationTicks": 96,
            "midi": 69,
            "name": "A4",
            "ticks": 32119,
            "time": 36.17000887500001,
            "velocity": 0.7874015748031497
          },
          {
            "duration": 0.1036034999999984,
            "durationTicks": 92,
            "midi": 65,
            "name": "F4",
            "ticks": 32199,
            "time": 36.260098875,
            "velocity": 0.6929133858267716
          },
          {
            "duration": 0.11711700000000036,
            "durationTicks": 104,
            "midi": 69,
            "name": "A4",
            "ticks": 32236,
            "time": 36.3017655,
            "velocity": 0.7874015748031497
          },
          {
            "duration": 0.10810800000000143,
            "durationTicks": 96,
            "midi": 65,
            "name": "F4",
            "ticks": 32317,
            "time": 36.392981625000004,
            "velocity": 0.7874015748031497
          },
          {
            "duration": 0.11261249999999734,
            "durationTicks": 100,
            "midi": 69,
            "name": "A4",
            "ticks": 32356,
            "time": 36.4369005,
            "velocity": 0.7874015748031497
          },
          {
            "duration": 0.09572062500000555,
            "durationTicks": 85,
            "midi": 65,
            "name": "F4",
            "ticks": 32440,
            "time": 36.531495,
            "velocity": 0.6929133858267716
          },
          {
            "duration": 0.11936924999999832,
            "durationTicks": 106,
            "midi": 69,
            "name": "A4",
            "ticks": 32468,
            "time": 36.5630265,
            "velocity": 0.8818897637795275
          },
          {
            "duration": 0.11936924999999832,
            "durationTicks": 106,
            "midi": 65,
            "name": "F4",
            "ticks": 32552,
            "time": 36.657621,
            "velocity": 0.7874015748031497
          },
          {
            "duration": 0.11936924999999832,
            "durationTicks": 106,
            "midi": 69,
            "name": "A4",
            "ticks": 32599,
            "time": 36.71054887500001,
            "velocity": 0.8818897637795275
          },
          {
            "duration": 0.10360350000000551,
            "durationTicks": 92,
            "midi": 65,
            "name": "F4",
            "ticks": 32688,
            "time": 36.810773999999995,
            "velocity": 0.6929133858267716
          },
          {
            "duration": 0.11936924999999832,
            "durationTicks": 106,
            "midi": 69,
            "name": "A4",
            "ticks": 32725,
            "time": 36.852440625,
            "velocity": 0.7874015748031497
          },
          {
            "duration": 0.1036034999999984,
            "durationTicks": 92,
            "midi": 65,
            "name": "F4",
            "ticks": 32809,
            "time": 36.947035125000006,
            "velocity": 0.7874015748031497
          },
          {
            "duration": 0.11261249999999734,
            "durationTicks": 100,
            "midi": 69,
            "name": "A4",
            "ticks": 32848,
            "time": 36.990954,
            "velocity": 0.7874015748031497
          },
          {
            "duration": 0.10585575000000347,
            "durationTicks": 94,
            "midi": 65,
            "name": "F4",
            "ticks": 32925,
            "time": 37.077665625,
            "velocity": 0.7874015748031497
          },
          {
            "duration": 0.11711700000000747,
            "durationTicks": 104,
            "midi": 69,
            "name": "A4",
            "ticks": 32970,
            "time": 37.12834125,
            "velocity": 0.7874015748031497
          },
          {
            "duration": 0.10022512500000147,
            "durationTicks": 89,
            "midi": 65,
            "name": "F4",
            "ticks": 33050,
            "time": 37.21843125,
            "velocity": 0.6929133858267716
          },
          {
            "duration": 0.11824312499999934,
            "durationTicks": 105,
            "midi": 69,
            "name": "A4",
            "ticks": 33094,
            "time": 37.26798075000001,
            "velocity": 0.8818897637795275
          },
          {
            "duration": 0.10810800000000143,
            "durationTicks": 96,
            "midi": 65,
            "name": "F4",
            "ticks": 33174,
            "time": 37.35807075,
            "velocity": 0.7874015748031497
          },
          {
            "duration": 0.11261250000000445,
            "durationTicks": 100,
            "midi": 69,
            "name": "A4",
            "ticks": 33227,
            "time": 37.417755375,
            "velocity": 0.7874015748031497
          },
          {
            "duration": 0.10810800000000143,
            "durationTicks": 96,
            "midi": 65,
            "name": "F4",
            "ticks": 33307,
            "time": 37.507845375,
            "velocity": 0.6929133858267716
          },
          {
            "duration": 0.1204953750000044,
            "durationTicks": 107,
            "midi": 69,
            "name": "A4",
            "ticks": 33351,
            "time": 37.557394875,
            "velocity": 0.7874015748031497
          },
          {
            "duration": 0.10585574999999636,
            "durationTicks": 94,
            "midi": 65,
            "name": "F4",
            "ticks": 33439,
            "time": 37.656493875,
            "velocity": 0.6929133858267716
          },
          {
            "duration": 0.12387375000000134,
            "durationTicks": 110,
            "midi": 69,
            "name": "A4",
            "ticks": 33482,
            "time": 37.70491725,
            "velocity": 0.7874015748031497
          },
          {
            "duration": 0.1036034999999984,
            "durationTicks": 92,
            "midi": 65,
            "name": "F4",
            "ticks": 33574,
            "time": 37.80852075000001,
            "velocity": 0.7874015748031497
          },
          {
            "duration": 0.12387375000000134,
            "durationTicks": 110,
            "midi": 69,
            "name": "A4",
            "ticks": 33615,
            "time": 37.854691875,
            "velocity": 0.7874015748031497
          },
          {
            "duration": 0.11261250000000445,
            "durationTicks": 100,
            "midi": 65,
            "name": "F4",
            "ticks": 33700,
            "time": 37.9504125,
            "velocity": 0.7874015748031497
          },
          {
            "duration": 0.11711700000000036,
            "durationTicks": 104,
            "midi": 69,
            "name": "A4",
            "ticks": 33749,
            "time": 38.005592625000006,
            "velocity": 0.6929133858267716
          },
          {
            "duration": 0.10810800000000143,
            "durationTicks": 96,
            "midi": 65,
            "name": "F4",
            "ticks": 33831,
            "time": 38.097934875,
            "velocity": 0.6929133858267716
          },
          {
            "duration": 0.1148647500000024,
            "durationTicks": 102,
            "midi": 69,
            "name": "A4",
            "ticks": 33886,
            "time": 38.15987175,
            "velocity": 0.7874015748031497
          },
          {
            "duration": 0.11036024999999938,
            "durationTicks": 98,
            "midi": 65,
            "name": "F4",
            "ticks": 33970,
            "time": 38.25446625,
            "velocity": 0.6929133858267716
          },
          {
            "duration": 0.11711700000000036,
            "durationTicks": 104,
            "midi": 69,
            "name": "A4",
            "ticks": 34021,
            "time": 38.311898625,
            "velocity": 0.7874015748031497
          },
          {
            "duration": 0.1036034999999984,
            "durationTicks": 92,
            "midi": 65,
            "name": "F4",
            "ticks": 34104,
            "time": 38.405367,
            "velocity": 0.6929133858267716
          },
          {
            "duration": 0.11936924999999832,
            "durationTicks": 106,
            "midi": 69,
            "name": "A4",
            "ticks": 34145,
            "time": 38.451538125000006,
            "velocity": 0.7874015748031497
          },
          {
            "duration": 0.11261249999999734,
            "durationTicks": 100,
            "midi": 65,
            "name": "F4",
            "ticks": 34235,
            "time": 38.55288937500001,
            "velocity": 0.7874015748031497
          },
          {
            "duration": 0.11711700000000036,
            "durationTicks": 104,
            "midi": 69,
            "name": "A4",
            "ticks": 34284,
            "time": 38.6080695,
            "velocity": 0.7874015748031497
          },
          {
            "duration": 0.12725212499999827,
            "durationTicks": 113,
            "midi": 65,
            "name": "F4",
            "ticks": 34365,
            "time": 38.699285625,
            "velocity": 0.6929133858267716
          },
          {
            "duration": 0.12162150000000338,
            "durationTicks": 108,
            "midi": 69,
            "name": "A4",
            "ticks": 34410,
            "time": 38.74996125,
            "velocity": 0.7874015748031497
          },
          {
            "duration": 0.13513499999999823,
            "durationTicks": 120,
            "midi": 65,
            "name": "F4",
            "ticks": 34484,
            "time": 38.8332945,
            "velocity": 0.6929133858267716
          },
          {
            "duration": 0.12162149999999627,
            "durationTicks": 108,
            "midi": 69,
            "name": "A4",
            "ticks": 34537,
            "time": 38.892979125000004,
            "velocity": 0.7874015748031497
          },
          {
            "duration": 0.11711700000000036,
            "durationTicks": 104,
            "midi": 65,
            "name": "F4",
            "ticks": 34596,
            "time": 38.9594205,
            "velocity": 0.7874015748031497
          },
          {
            "duration": 0.1148647500000024,
            "durationTicks": 102,
            "midi": 74,
            "name": "D5",
            "ticks": 39167,
            "time": 44.106937875,
            "velocity": 0.7874015748031497
          },
          {
            "duration": 0.1148647499999953,
            "durationTicks": 102,
            "midi": 77,
            "name": "F5",
            "ticks": 39214,
            "time": 44.15986575000001,
            "velocity": 0.7874015748031497
          },
          {
            "duration": 0.11711700000000036,
            "durationTicks": 104,
            "midi": 74,
            "name": "D5",
            "ticks": 39291,
            "time": 44.246577375,
            "velocity": 0.7874015748031497
          },
          {
            "duration": 0.11261250000000445,
            "durationTicks": 100,
            "midi": 77,
            "name": "F5",
            "ticks": 39340,
            "time": 44.3017575,
            "velocity": 0.7874015748031497
          },
          {
            "duration": 0.10810800000000143,
            "durationTicks": 96,
            "midi": 74,
            "name": "D5",
            "ticks": 39416,
            "time": 44.387343,
            "velocity": 0.6929133858267716
          },
          {
            "duration": 0.11036024999999938,
            "durationTicks": 98,
            "midi": 77,
            "name": "F5",
            "ticks": 39457,
            "time": 44.433514125,
            "velocity": 0.6929133858267716
          },
          {
            "duration": 0.09909900000000249,
            "durationTicks": 88,
            "midi": 74,
            "name": "D5",
            "ticks": 39534,
            "time": 44.52022575,
            "velocity": 0.7874015748031497
          },
          {
            "duration": 0.1036034999999984,
            "durationTicks": 92,
            "midi": 77,
            "name": "F5",
            "ticks": 39571,
            "time": 44.561892375,
            "velocity": 0.7874015748031497
          },
          {
            "duration": 0.11261249999999734,
            "durationTicks": 100,
            "midi": 74,
            "name": "D5",
            "ticks": 39644,
            "time": 44.6440995,
            "velocity": 0.7874015748031497
          },
          {
            "duration": 0.11711700000000036,
            "durationTicks": 104,
            "midi": 77,
            "name": "F5",
            "ticks": 39683,
            "time": 44.688018375,
            "velocity": 0.7874015748031497
          },
          {
            "duration": 0.08896387500000458,
            "durationTicks": 79,
            "midi": 74,
            "name": "D5",
            "ticks": 39765,
            "time": 44.780360625,
            "velocity": 0.6929133858267716
          },
          {
            "duration": 0.10810799999999432,
            "durationTicks": 96,
            "midi": 77,
            "name": "F5",
            "ticks": 39799,
            "time": 44.81864887500001,
            "velocity": 0.7874015748031497
          },
          {
            "duration": 0.1036034999999984,
            "durationTicks": 92,
            "midi": 74,
            "name": "D5",
            "ticks": 39879,
            "time": 44.908738875,
            "velocity": 0.6929133858267716
          },
          {
            "duration": 0.11711700000000036,
            "durationTicks": 104,
            "midi": 77,
            "name": "F5",
            "ticks": 39916,
            "time": 44.9504055,
            "velocity": 0.7874015748031497
          },
          {
            "duration": 0.10810800000000143,
            "durationTicks": 96,
            "midi": 74,
            "name": "D5",
            "ticks": 39997,
            "time": 45.041621625000005,
            "velocity": 0.7874015748031497
          },
          {
            "duration": 0.1036034999999984,
            "durationTicks": 92,
            "midi": 62,
            "name": "D4",
            "ticks": 40489,
            "time": 45.59567512500001,
            "velocity": 0.7874015748031497
          },
          {
            "duration": 0.11261249999999734,
            "durationTicks": 100,
            "midi": 65,
            "name": "F4",
            "ticks": 40528,
            "time": 45.639594,
            "velocity": 0.7874015748031497
          },
          {
            "duration": 0.10585575000000347,
            "durationTicks": 94,
            "midi": 62,
            "name": "D4",
            "ticks": 40605,
            "time": 45.726305625,
            "velocity": 0.7874015748031497
          },
          {
            "duration": 0.11711700000000747,
            "durationTicks": 104,
            "midi": 65,
            "name": "F4",
            "ticks": 40650,
            "time": 45.77698125,
            "velocity": 0.7874015748031497
          },
          {
            "duration": 0.10022512500000147,
            "durationTicks": 89,
            "midi": 62,
            "name": "D4",
            "ticks": 40730,
            "time": 45.86707125,
            "velocity": 0.6929133858267716
          },
          {
            "duration": 0.11824312499999934,
            "durationTicks": 105,
            "midi": 65,
            "name": "F4",
            "ticks": 40774,
            "time": 45.91662075000001,
            "velocity": 0.8818897637795275
          },
          {
            "duration": 0.10810800000000143,
            "durationTicks": 96,
            "midi": 62,
            "name": "D4",
            "ticks": 40854,
            "time": 46.00671075,
            "velocity": 0.7874015748031497
          },
          {
            "duration": 0.11261250000000445,
            "durationTicks": 100,
            "midi": 65,
            "name": "F4",
            "ticks": 40907,
            "time": 46.066395375,
            "velocity": 0.7874015748031497
          },
          {
            "duration": 0.10810800000000143,
            "durationTicks": 96,
            "midi": 62,
            "name": "D4",
            "ticks": 40987,
            "time": 46.156485375,
            "velocity": 0.6929133858267716
          },
          {
            "duration": 0.1204953750000044,
            "durationTicks": 107,
            "midi": 65,
            "name": "F4",
            "ticks": 41031,
            "time": 46.206034875,
            "velocity": 0.7874015748031497
          },
          {
            "duration": 0.54054,
            "durationTicks": 480,
            "midi": 53,
            "name": "F3",
            "ticks": 41300,
            "time": 46.5089625,
            "velocity": 0.6062992125984252
          },
          {
            "duration": 0.54054,
            "durationTicks": 480,
            "midi": 58,
            "name": "A#3",
            "ticks": 41300,
            "time": 46.5089625,
            "velocity": 0.6062992125984252
          },
          {
            "duration": 0.54054,
            "durationTicks": 480,
            "midi": 62,
            "name": "D4",
            "ticks": 41300,
            "time": 46.5089625,
            "velocity": 0.6062992125984252
          },
          {
            "duration": 0.54054,
            "durationTicks": 480,
            "midi": 52,
            "name": "E3",
            "ticks": 41780,
            "time": 47.0495025,
            "velocity": 0.6062992125984252
          },
          {
            "duration": 0.54054,
            "durationTicks": 480,
            "midi": 57,
            "name": "A3",
            "ticks": 41780,
            "time": 47.0495025,
            "velocity": 0.6062992125984252
          },
          {
            "duration": 0.54054,
            "durationTicks": 480,
            "midi": 61,
            "name": "C#4",
            "ticks": 41780,
            "time": 47.0495025,
            "velocity": 0.6062992125984252
          },
          {
            "duration": 2.16216,
            "durationTicks": 1920,
            "midi": 51,
            "name": "D#3",
            "ticks": 42260,
            "time": 47.5900425,
            "velocity": 0.6062992125984252
          },
          {
            "duration": 2.16216,
            "durationTicks": 1920,
            "midi": 60,
            "name": "C4",
            "ticks": 42260,
            "time": 47.5900425,
            "velocity": 0.6062992125984252
          },
          {
            "duration": 2.16216,
            "durationTicks": 1920,
            "midi": 56,
            "name": "G#3",
            "ticks": 42260,
            "time": 47.5900425,
            "velocity": 0.6062992125984252
          },
          {
            "duration": 1.08108,
            "durationTicks": 960,
            "midi": 51,
            "name": "D#3",
            "ticks": 44180,
            "time": 49.7522025,
            "velocity": 0.5590551181102362
          },
          {
            "duration": 1.08108,
            "durationTicks": 960,
            "midi": 56,
            "name": "G#3",
            "ticks": 44180,
            "time": 49.7522025,
            "velocity": 0.5590551181102362
          },
          {
            "duration": 1.08108,
            "durationTicks": 960,
            "midi": 60,
            "name": "C4",
            "ticks": 44180,
            "time": 49.7522025,
            "velocity": 0.5590551181102362
          },
          {
            "duration": 0.54054,
            "durationTicks": 480,
            "midi": 53,
            "name": "F3",
            "ticks": 45140,
            "time": 50.8332825,
            "velocity": 0.6929133858267716
          },
          {
            "duration": 0.5518012499999969,
            "durationTicks": 490,
            "midi": 58,
            "name": "A#3",
            "ticks": 45140,
            "time": 50.8332825,
            "velocity": 0.6929133858267716
          },
          {
            "duration": 0.5518012499999969,
            "durationTicks": 490,
            "midi": 62,
            "name": "D4",
            "ticks": 45140,
            "time": 50.8332825,
            "velocity": 0.6929133858267716
          },
          {
            "duration": 0.54054,
            "durationTicks": 480,
            "midi": 53,
            "name": "F3",
            "ticks": 45620,
            "time": 51.3738225,
            "velocity": 0.6929133858267716
          },
          {
            "duration": 0.54054,
            "durationTicks": 480,
            "midi": 56,
            "name": "G#3",
            "ticks": 45620,
            "time": 51.3738225,
            "velocity": 0.6929133858267716
          },
          {
            "duration": 0.54054,
            "durationTicks": 480,
            "midi": 60,
            "name": "C4",
            "ticks": 45620,
            "time": 51.3738225,
            "velocity": 0.6929133858267716
          },
          {
            "duration": 1.0585574999999992,
            "durationTicks": 940,
            "midi": 65,
            "name": "F4",
            "ticks": 46100,
            "time": 51.9143625,
            "velocity": 0.6929133858267716
          },
          {
            "duration": 1.0585574999999992,
            "durationTicks": 940,
            "midi": 62,
            "name": "D4",
            "ticks": 46100,
            "time": 51.9143625,
            "velocity": 0.6929133858267716
          },
          {
            "duration": 1.0585574999999992,
            "durationTicks": 940,
            "midi": 59,
            "name": "B3",
            "ticks": 46100,
            "time": 51.9143625,
            "velocity": 0.6929133858267716
          },
          {
            "duration": 1.0585574999999992,
            "durationTicks": 940,
            "midi": 65,
            "name": "F4",
            "ticks": 47060,
            "time": 52.9954425,
            "velocity": 0.6929133858267716
          },
          {
            "duration": 1.0585574999999992,
            "durationTicks": 940,
            "midi": 62,
            "name": "D4",
            "ticks": 47060,
            "time": 52.9954425,
            "velocity": 0.6929133858267716
          },
          {
            "duration": 1.0360349999999983,
            "durationTicks": 920,
            "midi": 59,
            "name": "B3",
            "ticks": 47060,
            "time": 52.9954425,
            "velocity": 0.6929133858267716
          },
          {
            "duration": 2.148646499999998,
            "durationTicks": 1908,
            "midi": 63,
            "name": "D#4",
            "ticks": 48020,
            "time": 54.0765225,
            "velocity": 0.6929133858267716
          },
          {
            "duration": 2.148646499999998,
            "durationTicks": 1908,
            "midi": 66,
            "name": "F#4",
            "ticks": 48020,
            "time": 54.0765225,
            "velocity": 0.6929133858267716
          },
          {
            "duration": 2.148646499999998,
            "durationTicks": 1908,
            "midi": 60,
            "name": "C4",
            "ticks": 48020,
            "time": 54.0765225,
            "velocity": 0.6929133858267716
          },
          {
            "duration": 3.1756724999999975,
            "durationTicks": 2820,
            "midi": 62,
            "name": "D4",
            "ticks": 49900,
            "time": 56.1936375,
            "velocity": 0.6929133858267716
          },
          {
            "duration": 3.24324,
            "durationTicks": 2880,
            "midi": 58,
            "name": "A#3",
            "ticks": 49900,
            "time": 56.1936375,
            "velocity": 0.6929133858267716
          },
          {
            "duration": 1.0484223749999941,
            "durationTicks": 931,
            "midi": 67,
            "name": "G4",
            "ticks": 49900,
            "time": 56.1936375,
            "velocity": 0.6929133858267716
          },
          {
            "duration": 1.091215125000005,
            "durationTicks": 969,
            "midi": 66,
            "name": "F#4",
            "ticks": 50860,
            "time": 57.2747175,
            "velocity": 0.6929133858267716
          },
          {
            "duration": 1.0698187500000031,
            "durationTicks": 950,
            "midi": 65,
            "name": "F4",
            "ticks": 51820,
            "time": 58.3557975,
            "velocity": 0.6929133858267716
          },
          {
            "duration": 1.078827750000002,
            "durationTicks": 958,
            "midi": 58,
            "name": "A#3",
            "ticks": 52780,
            "time": 59.4368775,
            "velocity": 0.6929133858267716
          },
          {
            "duration": 1.078827750000002,
            "durationTicks": 958,
            "midi": 62,
            "name": "D4",
            "ticks": 52780,
            "time": 59.4368775,
            "velocity": 0.6929133858267716
          },
          {
            "duration": 1.078827750000002,
            "durationTicks": 958,
            "midi": 64,
            "name": "E4",
            "ticks": 52780,
            "time": 59.4368775,
            "velocity": 0.6929133858267716
          },
          {
            "duration": 2.16216,
            "durationTicks": 1920,
            "midi": 67,
            "name": "G4",
            "ticks": 53740,
            "time": 60.5179575,
            "velocity": 0.6929133858267716
          },
          {
            "duration": 2.16216,
            "durationTicks": 1920,
            "midi": 70,
            "name": "A#4",
            "ticks": 53740,
            "time": 60.5179575,
            "velocity": 0.6929133858267716
          },
          {
            "duration": 2.139637499999999,
            "durationTicks": 1900,
            "midi": 62,
            "name": "D4",
            "ticks": 53780,
            "time": 60.5630025,
            "velocity": 0.6929133858267716
          },
          {
            "duration": 0.8220712500000005,
            "durationTicks": 730,
            "midi": 62,
            "name": "D4",
            "ticks": 55660,
            "time": 62.6801175,
            "velocity": 0.6062992125984252
          },
          {
            "duration": 0.8220712500000005,
            "durationTicks": 730,
            "midi": 67,
            "name": "G4",
            "ticks": 55660,
            "time": 62.6801175,
            "velocity": 0.6062992125984252
          },
          {
            "duration": 0.8220712500000005,
            "durationTicks": 730,
            "midi": 69,
            "name": "A4",
            "ticks": 55660,
            "time": 62.6801175,
            "velocity": 0.6062992125984252
          },
          {
            "duration": 0.19481962500000094,
            "durationTicks": 173,
            "midi": 62,
            "name": "D4",
            "ticks": 56420,
            "time": 63.53597250000001,
            "velocity": 0.6062992125984252
          },
          {
            "duration": 0.19481962500000094,
            "durationTicks": 173,
            "midi": 66,
            "name": "F#4",
            "ticks": 56420,
            "time": 63.53597250000001,
            "velocity": 0.6062992125984252
          },
          {
            "duration": 0.19481962500000094,
            "durationTicks": 173,
            "midi": 69,
            "name": "A4",
            "ticks": 56420,
            "time": 63.53597250000001,
            "velocity": 0.6062992125984252
          },
          {
            "duration": 1.066440374999999,
            "durationTicks": 947,
            "midi": 54,
            "name": "F#3",
            "ticks": 65280,
            "time": 73.51344,
            "velocity": 0.6929133858267716
          },
          {
            "duration": 1.0461701250000033,
            "durationTicks": 929,
            "midi": 62,
            "name": "D4",
            "ticks": 65280,
            "time": 73.51344,
            "velocity": 0.6929133858267716
          },
          {
            "duration": 1.0157647500000024,
            "durationTicks": 902,
            "midi": 63,
            "name": "D#4",
            "ticks": 66240,
            "time": 74.59452,
            "velocity": 0.6929133858267716
          },
          {
            "duration": 1.0360349999999983,
            "durationTicks": 920,
            "midi": 55,
            "name": "G3",
            "ticks": 66240,
            "time": 74.59452,
            "velocity": 0.6929133858267716
          },
          {
            "duration": 0.11261250000001155,
            "durationTicks": 100,
            "midi": 54,
            "name": "F#3",
            "ticks": 67200,
            "time": 75.6756,
            "velocity": 0.6929133858267716
          },
          {
            "duration": 0.08333324999999547,
            "durationTicks": 74,
            "midi": 62,
            "name": "D4",
            "ticks": 67200,
            "time": 75.6756,
            "velocity": 0.6929133858267716
          },
          {
            "duration": 1.624998375000004,
            "durationTicks": 1443,
            "midi": 65,
            "name": "F4",
            "ticks": 67680,
            "time": 76.21614,
            "velocity": 0.6929133858267716
          },
          {
            "duration": 2.0867096249999975,
            "durationTicks": 1853,
            "midi": 67,
            "name": "G4",
            "ticks": 69115,
            "time": 77.83212937500001,
            "velocity": 0.6929133858267716
          },
          {
            "duration": 2.0867096249999975,
            "durationTicks": 1853,
            "midi": 62,
            "name": "D4",
            "ticks": 69115,
            "time": 77.83212937500001,
            "velocity": 0.6929133858267716
          },
          {
            "duration": 2.210583374999999,
            "durationTicks": 1963,
            "midi": 68,
            "name": "G#4",
            "ticks": 70995,
            "time": 79.949244375,
            "velocity": 0.6929133858267716
          },
          {
            "duration": 2.210583374999999,
            "durationTicks": 1963,
            "midi": 62,
            "name": "D4",
            "ticks": 70995,
            "time": 79.949244375,
            "velocity": 0.6929133858267716
          },
          {
            "duration": 2.134006874999997,
            "durationTicks": 1895,
            "midi": 58,
            "name": "A#3",
            "ticks": 72955,
            "time": 82.15644937500001,
            "velocity": 0.6929133858267716
          },
          {
            "duration": 2.134006874999997,
            "durationTicks": 1895,
            "midi": 67,
            "name": "G4",
            "ticks": 72955,
            "time": 82.15644937500001,
            "velocity": 0.6929133858267716
          },
          {
            "duration": 2.1430158750000032,
            "durationTicks": 1903,
            "midi": 62,
            "name": "D4",
            "ticks": 72960,
            "time": 82.16208,
            "velocity": 0.6929133858267716
          },
          {
            "duration": 1.1047286249999928,
            "durationTicks": 981,
            "midi": 62,
            "name": "D4",
            "ticks": 74851,
            "time": 84.291582375,
            "velocity": 0.6929133858267716
          },
          {
            "duration": 1.087836749999994,
            "durationTicks": 966,
            "midi": 67,
            "name": "G4",
            "ticks": 74862,
            "time": 84.30396975000001,
            "velocity": 0.6929133858267716
          },
          {
            "duration": 1.087836749999994,
            "durationTicks": 966,
            "midi": 66,
            "name": "F#4",
            "ticks": 75822,
            "time": 85.38504975000001,
            "velocity": 0.6929133858267716
          },
          {
            "duration": 0.5439183749999899,
            "durationTicks": 483,
            "midi": 63,
            "name": "D#4",
            "ticks": 75840,
            "time": 85.40532,
            "velocity": 0.6929133858267716
          },
          {
            "duration": 0.5439183749999899,
            "durationTicks": 483,
            "midi": 62,
            "name": "D4",
            "ticks": 76320,
            "time": 85.94586000000001,
            "velocity": 0.6929133858267716
          },
          {
            "duration": 3.292789499999998,
            "durationTicks": 2924,
            "midi": 70,
            "name": "A#4",
            "ticks": 76800,
            "time": 86.4864,
            "velocity": 0.6929133858267716
          },
          {
            "duration": 1.1306294999999977,
            "durationTicks": 1004,
            "midi": 62,
            "name": "D4",
            "ticks": 76800,
            "time": 86.4864,
            "velocity": 0.6929133858267716
          },
          {
            "duration": 1.1306294999999977,
            "durationTicks": 1004,
            "midi": 55,
            "name": "G3",
            "ticks": 76800,
            "time": 86.4864,
            "velocity": 0.6929133858267716
          },
          {
            "duration": 1.0394133750000094,
            "durationTicks": 923,
            "midi": 64,
            "name": "E4",
            "ticks": 77760,
            "time": 87.56748,
            "velocity": 0.6929133858267716
          },
          {
            "duration": 1.0394133750000094,
            "durationTicks": 923,
            "midi": 60,
            "name": "C4",
            "ticks": 77760,
            "time": 87.56748,
            "velocity": 0.6929133858267716
          },
          {
            "duration": 1.0304043750000034,
            "durationTicks": 915,
            "midi": 63,
            "name": "D#4",
            "ticks": 78720,
            "time": 88.64856,
            "velocity": 0.6929133858267716
          },
          {
            "duration": 1.0304043750000034,
            "durationTicks": 915,
            "midi": 60,
            "name": "C4",
            "ticks": 78720,
            "time": 88.64856,
            "velocity": 0.6929133858267716
          },
          {
            "duration": 0.513512999999989,
            "durationTicks": 456,
            "midi": 53,
            "name": "F3",
            "ticks": 79680,
            "time": 89.72964,
            "velocity": 0.6929133858267716
          },
          {
            "duration": 0.513512999999989,
            "durationTicks": 456,
            "midi": 65,
            "name": "F4",
            "ticks": 79680,
            "time": 89.72964,
            "velocity": 0.6929133858267716
          },
          {
            "duration": 0.513512999999989,
            "durationTicks": 456,
            "midi": 58,
            "name": "A#3",
            "ticks": 79680,
            "time": 89.72964,
            "velocity": 0.6929133858267716
          },
          {
            "duration": 0.5011256250000002,
            "durationTicks": 445,
            "midi": 58,
            "name": "A#3",
            "ticks": 80160,
            "time": 90.27018000000001,
            "velocity": 0.6929133858267716
          },
          {
            "duration": 0.5686931249999958,
            "durationTicks": 505,
            "midi": 70,
            "name": "A#4",
            "ticks": 80160,
            "time": 90.27018000000001,
            "velocity": 0.6929133858267716
          },
          {
            "duration": 0.5011256250000002,
            "durationTicks": 445,
            "midi": 62,
            "name": "D4",
            "ticks": 80160,
            "time": 90.27018000000001,
            "velocity": 0.6929133858267716
          },
          {
            "duration": 2.172295125000005,
            "durationTicks": 1929,
            "midi": 67,
            "name": "G4",
            "ticks": 80640,
            "time": 90.81072,
            "velocity": 0.6929133858267716
          },
          {
            "duration": 2.172295125000005,
            "durationTicks": 1929,
            "midi": 74,
            "name": "D5",
            "ticks": 80640,
            "time": 90.81072,
            "velocity": 0.6929133858267716
          },
          {
            "duration": 2.172295125000005,
            "durationTicks": 1929,
            "midi": 62,
            "name": "D4",
            "ticks": 80640,
            "time": 90.81072,
            "velocity": 0.6929133858267716
          },
          {
            "duration": 1.079953875000001,
            "durationTicks": 959,
            "midi": 55,
            "name": "G3",
            "ticks": 84480,
            "time": 95.13504,
            "velocity": 0.5039370078740157
          },
          {
            "duration": 1.079953875000001,
            "durationTicks": 959,
            "midi": 58,
            "name": "A#3",
            "ticks": 84480,
            "time": 95.13504,
            "velocity": 0.5039370078740157
          },
          {
            "duration": 1.079953875000001,
            "durationTicks": 959,
            "midi": 62,
            "name": "D4",
            "ticks": 84480,
            "time": 95.13504,
            "velocity": 0.5039370078740157
          },
          {
            "duration": 1.0518007499999982,
            "durationTicks": 934,
            "midi": 62,
            "name": "D4",
            "ticks": 85440,
            "time": 96.21612,
            "velocity": 0.5039370078740157
          },
          {
            "duration": 1.0518007499999982,
            "durationTicks": 934,
            "midi": 53,
            "name": "F3",
            "ticks": 85440,
            "time": 96.21612,
            "velocity": 0.5039370078740157
          },
          {
            "duration": 1.0518007499999982,
            "durationTicks": 934,
            "midi": 58,
            "name": "A#3",
            "ticks": 85440,
            "time": 96.21612,
            "velocity": 0.5039370078740157
          },
          {
            "duration": 1.0416656250000074,
            "durationTicks": 925,
            "midi": 62,
            "name": "D4",
            "ticks": 86400,
            "time": 97.2972,
            "velocity": 0.5039370078740157
          },
          {
            "duration": 1.0416656250000074,
            "durationTicks": 925,
            "midi": 58,
            "name": "A#3",
            "ticks": 86400,
            "time": 97.2972,
            "velocity": 0.5039370078740157
          },
          {
            "duration": 1.0416656250000074,
            "durationTicks": 925,
            "midi": 55,
            "name": "G3",
            "ticks": 86400,
            "time": 97.2972,
            "velocity": 0.5039370078740157
          },
          {
            "duration": 0.9684674999999885,
            "durationTicks": 860,
            "midi": 60,
            "name": "C4",
            "ticks": 87360,
            "time": 98.37828,
            "velocity": 0.5039370078740157
          },
          {
            "duration": 0.9684674999999885,
            "durationTicks": 860,
            "midi": 63,
            "name": "D#4",
            "ticks": 87360,
            "time": 98.37828,
            "velocity": 0.5039370078740157
          },
          {
            "duration": 0.9684674999999885,
            "durationTicks": 860,
            "midi": 54,
            "name": "F#3",
            "ticks": 87360,
            "time": 98.37828,
            "velocity": 0.5039370078740157
          },
          {
            "duration": 0.15090075000000525,
            "durationTicks": 134,
            "midi": 62,
            "name": "D4",
            "ticks": 88320,
            "time": 99.45936,
            "velocity": 0.6929133858267716
          },
          {
            "duration": 0.16216200000000924,
            "durationTicks": 144,
            "midi": 55,
            "name": "G3",
            "ticks": 88320,
            "time": 99.45936,
            "velocity": 0.6929133858267716
          },
          {
            "duration": 0.18243225000000507,
            "durationTicks": 162,
            "midi": 55,
            "name": "G3",
            "ticks": 88560,
            "time": 99.72963,
            "velocity": 0.6929133858267716
          },
          {
            "duration": 0.19031512499999792,
            "durationTicks": 169,
            "midi": 62,
            "name": "D4",
            "ticks": 88560,
            "time": 99.72963,
            "velocity": 0.6929133858267716
          },
          {
            "duration": 0.11824312499999223,
            "durationTicks": 105,
            "midi": 62,
            "name": "D4",
            "ticks": 88814,
            "time": 100.01566575000001,
            "velocity": 0.6929133858267716
          },
          {
            "duration": 0.11824312499999223,
            "durationTicks": 105,
            "midi": 63,
            "name": "D#4",
            "ticks": 88868,
            "time": 100.07647650000001,
            "velocity": 0.6929133858267716
          },
          {
            "duration": 0.11599087499999428,
            "durationTicks": 103,
            "midi": 65,
            "name": "F4",
            "ticks": 88943,
            "time": 100.160935875,
            "velocity": 0.6929133858267716
          },
          {
            "duration": 0.11711699999999325,
            "durationTicks": 104,
            "midi": 67,
            "name": "G4",
            "ticks": 89006,
            "time": 100.23188175000001,
            "velocity": 0.6929133858267716
          },
          {
            "duration": 0.11036024999999938,
            "durationTicks": 98,
            "midi": 69,
            "name": "A4",
            "ticks": 89072,
            "time": 100.306206,
            "velocity": 0.6929133858267716
          },
          {
            "duration": 0.1047296250000187,
            "durationTicks": 93,
            "midi": 70,
            "name": "A#4",
            "ticks": 89152,
            "time": 100.39629599999999,
            "velocity": 0.6929133858267716
          },
          {
            "duration": 0.11711699999999325,
            "durationTicks": 104,
            "midi": 72,
            "name": "C5",
            "ticks": 89216,
            "time": 100.46836800000001,
            "velocity": 0.6929133858267716
          },
          {
            "duration": 0.10698187500001666,
            "durationTicks": 95,
            "midi": 74,
            "name": "D5",
            "ticks": 89283,
            "time": 100.543818375,
            "velocity": 0.6929133858267716
          },
          {
            "duration": 0.2466213750000037,
            "durationTicks": 219,
            "midi": 60,
            "name": "C4",
            "ticks": 89760,
            "time": 101.08098000000001,
            "velocity": 0.6929133858267716
          },
          {
            "duration": 0.2398646249999956,
            "durationTicks": 213,
            "midi": 55,
            "name": "G3",
            "ticks": 89760,
            "time": 101.08098000000001,
            "velocity": 0.6929133858267716
          },
          {
            "duration": 0.09684674999999743,
            "durationTicks": 86,
            "midi": 54,
            "name": "F#3",
            "ticks": 90000,
            "time": 101.35125000000001,
            "velocity": 0.6929133858267716
          },
          {
            "duration": 0.11036024999999938,
            "durationTicks": 98,
            "midi": 60,
            "name": "C4",
            "ticks": 90000,
            "time": 101.35125000000001,
            "velocity": 0.6929133858267716
          },
          {
            "duration": 1.2466203750000062,
            "durationTicks": 1107,
            "midi": 55,
            "name": "G3",
            "ticks": 90120,
            "time": 101.486385,
            "velocity": 0.6929133858267716
          },
          {
            "duration": 1.2466203750000062,
            "durationTicks": 1107,
            "midi": 58,
            "name": "A#3",
            "ticks": 90120,
            "time": 101.486385,
            "velocity": 0.6929133858267716
          },
          {
            "duration": 1.2387374999999992,
            "durationTicks": 1100,
            "midi": 62,
            "name": "D4",
            "ticks": 90120,
            "time": 101.486385,
            "velocity": 0.6929133858267716
          },
          {
            "duration": 1.094593500000002,
            "durationTicks": 972,
            "midi": 55,
            "name": "G3",
            "ticks": 91200,
            "time": 102.7026,
            "velocity": 0.6929133858267716
          },
          {
            "duration": 1.094593500000002,
            "durationTicks": 972,
            "midi": 60,
            "name": "C4",
            "ticks": 91200,
            "time": 102.7026,
            "velocity": 0.6929133858267716
          },
          {
            "duration": 1.1024763749999948,
            "durationTicks": 979,
            "midi": 64,
            "name": "E4",
            "ticks": 91200,
            "time": 102.7026,
            "velocity": 0.6929133858267716
          },
          {
            "duration": 0.164414249999993,
            "durationTicks": 146,
            "midi": 65,
            "name": "F4",
            "ticks": 92270,
            "time": 103.90755375,
            "velocity": 0.6929133858267716
          },
          {
            "duration": 0.164414249999993,
            "durationTicks": 146,
            "midi": 58,
            "name": "A#3",
            "ticks": 92270,
            "time": 103.90755375,
            "velocity": 0.6929133858267716
          },
          {
            "duration": 0.17229712500000005,
            "durationTicks": 153,
            "midi": 62,
            "name": "D4",
            "ticks": 92270,
            "time": 103.90755375,
            "velocity": 0.6929133858267716
          },
          {
            "duration": 0.31531500000001245,
            "durationTicks": 280,
            "midi": 67,
            "name": "G4",
            "ticks": 92630,
            "time": 104.31295874999999,
            "velocity": 0.6929133858267716
          },
          {
            "duration": 0.31531500000001245,
            "durationTicks": 280,
            "midi": 60,
            "name": "C4",
            "ticks": 92630,
            "time": 104.31295874999999,
            "velocity": 0.6929133858267716
          },
          {
            "duration": 0.2972970000000146,
            "durationTicks": 264,
            "midi": 64,
            "name": "E4",
            "ticks": 92630,
            "time": 104.31295874999999,
            "velocity": 0.6929133858267716
          },
          {
            "duration": 0.20495474999999885,
            "durationTicks": 182,
            "midi": 65,
            "name": "F4",
            "ticks": 92990,
            "time": 104.71836375,
            "velocity": 0.6929133858267716
          },
          {
            "duration": 0.185810625000002,
            "durationTicks": 165,
            "midi": 62,
            "name": "D4",
            "ticks": 92990,
            "time": 104.71836375,
            "velocity": 0.6929133858267716
          },
          {
            "duration": 0.20495474999999885,
            "durationTicks": 182,
            "midi": 58,
            "name": "A#3",
            "ticks": 92990,
            "time": 104.71836375,
            "velocity": 0.6929133858267716
          },
          {
            "duration": 0.1036034999999913,
            "durationTicks": 92,
            "midi": 65,
            "name": "F4",
            "ticks": 121486,
            "time": 136.80842175,
            "velocity": 0.6062992125984252
          },
          {
            "duration": 0.1103602500000136,
            "durationTicks": 98,
            "midi": 69,
            "name": "A4",
            "ticks": 121537,
            "time": 136.865854125,
            "velocity": 0.6062992125984252
          },
          {
            "duration": 0.09572062499998424,
            "durationTicks": 85,
            "midi": 65,
            "name": "F4",
            "ticks": 121611,
            "time": 136.949187375,
            "velocity": 0.6929133858267716
          },
          {
            "duration": 0.11261250000001155,
            "durationTicks": 100,
            "midi": 69,
            "name": "A4",
            "ticks": 121653,
            "time": 136.996484625,
            "velocity": 0.7874015748031497
          },
          {
            "duration": 0.11486475000000951,
            "durationTicks": 102,
            "midi": 65,
            "name": "F4",
            "ticks": 121727,
            "time": 137.079817875,
            "velocity": 0.7874015748031497
          },
          {
            "duration": 0.11486475000000951,
            "durationTicks": 102,
            "midi": 69,
            "name": "A4",
            "ticks": 121774,
            "time": 137.13274575,
            "velocity": 0.7874015748031497
          },
          {
            "duration": 0.11711700000000747,
            "durationTicks": 104,
            "midi": 65,
            "name": "F4",
            "ticks": 121851,
            "time": 137.219457375,
            "velocity": 0.7874015748031497
          },
          {
            "duration": 0.11261249999998313,
            "durationTicks": 100,
            "midi": 69,
            "name": "A4",
            "ticks": 121900,
            "time": 137.2746375,
            "velocity": 0.7874015748031497
          },
          {
            "duration": 0.10810799999998721,
            "durationTicks": 96,
            "midi": 65,
            "name": "F4",
            "ticks": 121976,
            "time": 137.36022300000002,
            "velocity": 0.6929133858267716
          },
          {
            "duration": 0.1103602500000136,
            "durationTicks": 98,
            "midi": 69,
            "name": "A4",
            "ticks": 122017,
            "time": 137.406394125,
            "velocity": 0.6929133858267716
          },
          {
            "duration": 0.09909899999999539,
            "durationTicks": 88,
            "midi": 65,
            "name": "F4",
            "ticks": 122094,
            "time": 137.49310575,
            "velocity": 0.7874015748031497
          },
          {
            "duration": 0.1036034999999913,
            "durationTicks": 92,
            "midi": 69,
            "name": "A4",
            "ticks": 122131,
            "time": 137.53477237500002,
            "velocity": 0.7874015748031497
          },
          {
            "duration": 0.11261250000001155,
            "durationTicks": 100,
            "midi": 65,
            "name": "F4",
            "ticks": 122204,
            "time": 137.6169795,
            "velocity": 0.7874015748031497
          },
          {
            "duration": 0.11711699999997904,
            "durationTicks": 104,
            "midi": 69,
            "name": "A4",
            "ticks": 122243,
            "time": 137.66089837500002,
            "velocity": 0.7874015748031497
          },
          {
            "duration": 0.08896387499999037,
            "durationTicks": 79,
            "midi": 65,
            "name": "F4",
            "ticks": 122325,
            "time": 137.75324062500002,
            "velocity": 0.6929133858267716
          },
          {
            "duration": 0.10810799999998721,
            "durationTicks": 96,
            "midi": 69,
            "name": "A4",
            "ticks": 122359,
            "time": 137.791528875,
            "velocity": 0.7874015748031497
          },
          {
            "duration": 0.1036034999999913,
            "durationTicks": 92,
            "midi": 65,
            "name": "F4",
            "ticks": 122439,
            "time": 137.88161887500002,
            "velocity": 0.6929133858267716
          },
          {
            "duration": 0.11711700000000747,
            "durationTicks": 104,
            "midi": 69,
            "name": "A4",
            "ticks": 122476,
            "time": 137.9232855,
            "velocity": 0.7874015748031497
          },
          {
            "duration": 0.10810799999998721,
            "durationTicks": 96,
            "midi": 65,
            "name": "F4",
            "ticks": 122557,
            "time": 138.014501625,
            "velocity": 0.7874015748031497
          },
          {
            "duration": 0.11261250000001155,
            "durationTicks": 100,
            "midi": 69,
            "name": "A4",
            "ticks": 122596,
            "time": 138.0584205,
            "velocity": 0.7874015748031497
          },
          {
            "duration": 0.09572062499998424,
            "durationTicks": 85,
            "midi": 65,
            "name": "F4",
            "ticks": 122680,
            "time": 138.153015,
            "velocity": 0.6929133858267716
          },
          {
            "duration": 0.11936925000000542,
            "durationTicks": 106,
            "midi": 69,
            "name": "A4",
            "ticks": 122708,
            "time": 138.1845465,
            "velocity": 0.8818897637795275
          },
          {
            "duration": 0.11936925000000542,
            "durationTicks": 106,
            "midi": 65,
            "name": "F4",
            "ticks": 122792,
            "time": 138.279141,
            "velocity": 0.7874015748031497
          },
          {
            "duration": 0.11936925000000542,
            "durationTicks": 106,
            "midi": 69,
            "name": "A4",
            "ticks": 122839,
            "time": 138.332068875,
            "velocity": 0.8818897637795275
          },
          {
            "duration": 0.1036034999999913,
            "durationTicks": 92,
            "midi": 65,
            "name": "F4",
            "ticks": 122928,
            "time": 138.432294,
            "velocity": 0.6929133858267716
          },
          {
            "duration": 0.11936925000003384,
            "durationTicks": 106,
            "midi": 69,
            "name": "A4",
            "ticks": 122965,
            "time": 138.473960625,
            "velocity": 0.7874015748031497
          },
          {
            "duration": 0.10360350000001972,
            "durationTicks": 92,
            "midi": 65,
            "name": "F4",
            "ticks": 123049,
            "time": 138.568555125,
            "velocity": 0.7874015748031497
          },
          {
            "duration": 0.11261249999998313,
            "durationTicks": 100,
            "midi": 69,
            "name": "A4",
            "ticks": 123088,
            "time": 138.61247400000002,
            "velocity": 0.7874015748031497
          },
          {
            "duration": 0.10585574999998926,
            "durationTicks": 94,
            "midi": 65,
            "name": "F4",
            "ticks": 123165,
            "time": 138.699185625,
            "velocity": 0.7874015748031497
          },
          {
            "duration": 0.11711699999997904,
            "durationTicks": 104,
            "midi": 69,
            "name": "A4",
            "ticks": 123210,
            "time": 138.74986125,
            "velocity": 0.7874015748031497
          },
          {
            "duration": 0.10022512499998015,
            "durationTicks": 89,
            "midi": 65,
            "name": "F4",
            "ticks": 123290,
            "time": 138.83995125,
            "velocity": 0.6929133858267716
          },
          {
            "duration": 0.11824312499999223,
            "durationTicks": 105,
            "midi": 69,
            "name": "A4",
            "ticks": 123334,
            "time": 138.88950075,
            "velocity": 0.8818897637795275
          },
          {
            "duration": 0.10810800000001564,
            "durationTicks": 96,
            "midi": 65,
            "name": "F4",
            "ticks": 123414,
            "time": 138.97959075,
            "velocity": 0.7874015748031497
          },
          {
            "duration": 0.11261249999998313,
            "durationTicks": 100,
            "midi": 69,
            "name": "A4",
            "ticks": 123467,
            "time": 139.03927537500002,
            "velocity": 0.7874015748031497
          },
          {
            "duration": 0.10810799999998721,
            "durationTicks": 96,
            "midi": 65,
            "name": "F4",
            "ticks": 123547,
            "time": 139.12936537500002,
            "velocity": 0.6929133858267716
          },
          {
            "duration": 0.12049537499999019,
            "durationTicks": 107,
            "midi": 69,
            "name": "A4",
            "ticks": 123591,
            "time": 139.178914875,
            "velocity": 0.7874015748031497
          },
          {
            "duration": 0.10585574999998926,
            "durationTicks": 94,
            "midi": 65,
            "name": "F4",
            "ticks": 123679,
            "time": 139.278013875,
            "velocity": 0.6929133858267716
          },
          {
            "duration": 0.12387375000002976,
            "durationTicks": 110,
            "midi": 69,
            "name": "A4",
            "ticks": 123722,
            "time": 139.32643725,
            "velocity": 0.7874015748031497
          },
          {
            "duration": 0.10360350000001972,
            "durationTicks": 92,
            "midi": 65,
            "name": "F4",
            "ticks": 123814,
            "time": 139.43004075,
            "velocity": 0.7874015748031497
          },
          {
            "duration": 0.12387375000000134,
            "durationTicks": 110,
            "midi": 69,
            "name": "A4",
            "ticks": 123855,
            "time": 139.47621187500002,
            "velocity": 0.7874015748031497
          },
          {
            "duration": 0.11261250000001155,
            "durationTicks": 100,
            "midi": 65,
            "name": "F4",
            "ticks": 123940,
            "time": 139.5719325,
            "velocity": 0.7874015748031497
          },
          {
            "duration": 0.11711700000000747,
            "durationTicks": 104,
            "midi": 69,
            "name": "A4",
            "ticks": 123989,
            "time": 139.627112625,
            "velocity": 0.6929133858267716
          },
          {
            "duration": 0.10810799999998721,
            "durationTicks": 96,
            "midi": 65,
            "name": "F4",
            "ticks": 124071,
            "time": 139.719454875,
            "velocity": 0.6929133858267716
          },
          {
            "duration": 0.11486475000000951,
            "durationTicks": 102,
            "midi": 69,
            "name": "A4",
            "ticks": 124126,
            "time": 139.78139175,
            "velocity": 0.7874015748031497
          },
          {
            "duration": 0.11036025000004202,
            "durationTicks": 98,
            "midi": 65,
            "name": "F4",
            "ticks": 124210,
            "time": 139.87598624999998,
            "velocity": 0.6929133858267716
          },
          {
            "duration": 0.11711699999997904,
            "durationTicks": 104,
            "midi": 69,
            "name": "A4",
            "ticks": 124261,
            "time": 139.93341862500003,
            "velocity": 0.7874015748031497
          },
          {
            "duration": 0.1036034999999913,
            "durationTicks": 92,
            "midi": 65,
            "name": "F4",
            "ticks": 124344,
            "time": 140.02688700000002,
            "velocity": 0.6929133858267716
          },
          {
            "duration": 0.119369249999977,
            "durationTicks": 106,
            "midi": 69,
            "name": "A4",
            "ticks": 124385,
            "time": 140.07305812500002,
            "velocity": 0.7874015748031497
          },
          {
            "duration": 0.11261249999998313,
            "durationTicks": 100,
            "midi": 65,
            "name": "F4",
            "ticks": 124475,
            "time": 140.174409375,
            "velocity": 0.7874015748031497
          },
          {
            "duration": 0.11711700000000747,
            "durationTicks": 104,
            "midi": 69,
            "name": "A4",
            "ticks": 124524,
            "time": 140.2295895,
            "velocity": 0.7874015748031497
          },
          {
            "duration": 0.12725212500001248,
            "durationTicks": 113,
            "midi": 65,
            "name": "F4",
            "ticks": 124605,
            "time": 140.320805625,
            "velocity": 0.6929133858267716
          },
          {
            "duration": 0.12162150000000338,
            "durationTicks": 108,
            "midi": 69,
            "name": "A4",
            "ticks": 124650,
            "time": 140.37148125000002,
            "velocity": 0.7874015748031497
          },
          {
            "duration": 0.13513499999999112,
            "durationTicks": 120,
            "midi": 65,
            "name": "F4",
            "ticks": 124724,
            "time": 140.4548145,
            "velocity": 0.6929133858267716
          },
          {
            "duration": 0.12162149999997496,
            "durationTicks": 108,
            "midi": 69,
            "name": "A4",
            "ticks": 124777,
            "time": 140.51449912500001,
            "velocity": 0.7874015748031497
          },
          {
            "duration": 0.11711700000000747,
            "durationTicks": 104,
            "midi": 65,
            "name": "F4",
            "ticks": 124836,
            "time": 140.5809405,
            "velocity": 0.7874015748031497
          },
          {
            "duration": 0.11486474999998109,
            "durationTicks": 102,
            "midi": 74,
            "name": "D5",
            "ticks": 129407,
            "time": 145.728457875,
            "velocity": 0.7874015748031497
          },
          {
            "duration": 0.11486475000000951,
            "durationTicks": 102,
            "midi": 77,
            "name": "F5",
            "ticks": 129454,
            "time": 145.78138575,
            "velocity": 0.7874015748031497
          },
          {
            "duration": 0.11711700000003589,
            "durationTicks": 104,
            "midi": 74,
            "name": "D5",
            "ticks": 129531,
            "time": 145.868097375,
            "velocity": 0.7874015748031497
          },
          {
            "duration": 0.11261250000003997,
            "durationTicks": 100,
            "midi": 77,
            "name": "F5",
            "ticks": 129580,
            "time": 145.92327749999998,
            "velocity": 0.7874015748031497
          },
          {
            "duration": 0.10810799999998721,
            "durationTicks": 96,
            "midi": 74,
            "name": "D5",
            "ticks": 129656,
            "time": 146.00886300000002,
            "velocity": 0.6929133858267716
          },
          {
            "duration": 0.11036024999998517,
            "durationTicks": 98,
            "midi": 77,
            "name": "F5",
            "ticks": 129697,
            "time": 146.05503412500002,
            "velocity": 0.6929133858267716
          },
          {
            "duration": 0.09909899999999539,
            "durationTicks": 88,
            "midi": 74,
            "name": "D5",
            "ticks": 129774,
            "time": 146.14174575,
            "velocity": 0.7874015748031497
          },
          {
            "duration": 0.1036034999999913,
            "durationTicks": 92,
            "midi": 77,
            "name": "F5",
            "ticks": 129811,
            "time": 146.18341237500002,
            "velocity": 0.7874015748031497
          },
          {
            "duration": 0.11261250000003997,
            "durationTicks": 100,
            "midi": 74,
            "name": "D5",
            "ticks": 129884,
            "time": 146.26561949999999,
            "velocity": 0.7874015748031497
          },
          {
            "duration": 0.11711700000003589,
            "durationTicks": 104,
            "midi": 77,
            "name": "F5",
            "ticks": 129923,
            "time": 146.309538375,
            "velocity": 0.7874015748031497
          },
          {
            "duration": 0.08896387499999037,
            "durationTicks": 79,
            "midi": 74,
            "name": "D5",
            "ticks": 130005,
            "time": 146.40188062500002,
            "velocity": 0.6929133858267716
          },
          {
            "duration": 0.10810799999998721,
            "durationTicks": 96,
            "midi": 77,
            "name": "F5",
            "ticks": 130039,
            "time": 146.440168875,
            "velocity": 0.7874015748031497
          },
          {
            "duration": 0.1036034999999913,
            "durationTicks": 92,
            "midi": 74,
            "name": "D5",
            "ticks": 130119,
            "time": 146.53025887500002,
            "velocity": 0.6929133858267716
          },
          {
            "duration": 0.11711699999997904,
            "durationTicks": 104,
            "midi": 77,
            "name": "F5",
            "ticks": 130156,
            "time": 146.57192550000002,
            "velocity": 0.7874015748031497
          },
          {
            "duration": 0.10810799999998721,
            "durationTicks": 96,
            "midi": 74,
            "name": "D5",
            "ticks": 130237,
            "time": 146.663141625,
            "velocity": 0.7874015748031497
          },
          {
            "duration": 0.10360350000001972,
            "durationTicks": 92,
            "midi": 62,
            "name": "D4",
            "ticks": 130729,
            "time": 147.217195125,
            "velocity": 0.7874015748031497
          },
          {
            "duration": 0.11261249999998313,
            "durationTicks": 100,
            "midi": 65,
            "name": "F4",
            "ticks": 130768,
            "time": 147.26111400000002,
            "velocity": 0.7874015748031497
          },
          {
            "duration": 0.10585574999998926,
            "durationTicks": 94,
            "midi": 62,
            "name": "D4",
            "ticks": 130845,
            "time": 147.347825625,
            "velocity": 0.7874015748031497
          },
          {
            "duration": 0.11711699999997904,
            "durationTicks": 104,
            "midi": 65,
            "name": "F4",
            "ticks": 130890,
            "time": 147.39850125,
            "velocity": 0.7874015748031497
          },
          {
            "duration": 0.10022512499998015,
            "durationTicks": 89,
            "midi": 62,
            "name": "D4",
            "ticks": 130970,
            "time": 147.48859125,
            "velocity": 0.6929133858267716
          },
          {
            "duration": 0.11824312499999223,
            "durationTicks": 105,
            "midi": 65,
            "name": "F4",
            "ticks": 131014,
            "time": 147.53814075,
            "velocity": 0.8818897637795275
          },
          {
            "duration": 0.10810800000001564,
            "durationTicks": 96,
            "midi": 62,
            "name": "D4",
            "ticks": 131094,
            "time": 147.62823075,
            "velocity": 0.7874015748031497
          },
          {
            "duration": 0.11261249999998313,
            "durationTicks": 100,
            "midi": 65,
            "name": "F4",
            "ticks": 131147,
            "time": 147.68791537500002,
            "velocity": 0.7874015748031497
          },
          {
            "duration": 0.10810799999998721,
            "durationTicks": 96,
            "midi": 62,
            "name": "D4",
            "ticks": 131227,
            "time": 147.77800537500002,
            "velocity": 0.6929133858267716
          },
          {
            "duration": 0.12049537499999019,
            "durationTicks": 107,
            "midi": 65,
            "name": "F4",
            "ticks": 131271,
            "time": 147.827554875,
            "velocity": 0.7874015748031497
          },
          {
            "duration": 0.5405399999999929,
            "durationTicks": 480,
            "midi": 53,
            "name": "F3",
            "ticks": 131540,
            "time": 148.13048250000003,
            "velocity": 0.6062992125984252
          },
          {
            "duration": 0.5405399999999929,
            "durationTicks": 480,
            "midi": 58,
            "name": "A#3",
            "ticks": 131540,
            "time": 148.13048250000003,
            "velocity": 0.6062992125984252
          },
          {
            "duration": 0.5405399999999929,
            "durationTicks": 480,
            "midi": 62,
            "name": "D4",
            "ticks": 131540,
            "time": 148.13048250000003,
            "velocity": 0.6062992125984252
          },
          {
            "duration": 0.5405399999999929,
            "durationTicks": 480,
            "midi": 52,
            "name": "E3",
            "ticks": 132020,
            "time": 148.67102250000002,
            "velocity": 0.6062992125984252
          },
          {
            "duration": 0.5405399999999929,
            "durationTicks": 480,
            "midi": 57,
            "name": "A3",
            "ticks": 132020,
            "time": 148.67102250000002,
            "velocity": 0.6062992125984252
          },
          {
            "duration": 0.5405399999999929,
            "durationTicks": 480,
            "midi": 61,
            "name": "C#4",
            "ticks": 132020,
            "time": 148.67102250000002,
            "velocity": 0.6062992125984252
          },
          {
            "duration": 2.16216,
            "durationTicks": 1920,
            "midi": 51,
            "name": "D#3",
            "ticks": 132500,
            "time": 149.2115625,
            "velocity": 0.6062992125984252
          },
          {
            "duration": 2.16216,
            "durationTicks": 1920,
            "midi": 60,
            "name": "C4",
            "ticks": 132500,
            "time": 149.2115625,
            "velocity": 0.6062992125984252
          },
          {
            "duration": 2.16216,
            "durationTicks": 1920,
            "midi": 56,
            "name": "G#3",
            "ticks": 132500,
            "time": 149.2115625,
            "velocity": 0.6062992125984252
          },
          {
            "duration": 1.0810800000000143,
            "durationTicks": 960,
            "midi": 51,
            "name": "D#3",
            "ticks": 134420,
            "time": 151.3737225,
            "velocity": 0.5590551181102362
          },
          {
            "duration": 1.0810800000000143,
            "durationTicks": 960,
            "midi": 56,
            "name": "G#3",
            "ticks": 134420,
            "time": 151.3737225,
            "velocity": 0.5590551181102362
          },
          {
            "duration": 1.0810800000000143,
            "durationTicks": 960,
            "midi": 60,
            "name": "C4",
            "ticks": 134420,
            "time": 151.3737225,
            "velocity": 0.5590551181102362
          },
          {
            "duration": 0.5405399999999929,
            "durationTicks": 480,
            "midi": 53,
            "name": "F3",
            "ticks": 135380,
            "time": 152.45480250000003,
            "velocity": 0.6929133858267716
          },
          {
            "duration": 0.5518012499999827,
            "durationTicks": 490,
            "midi": 58,
            "name": "A#3",
            "ticks": 135380,
            "time": 152.45480250000003,
            "velocity": 0.6929133858267716
          },
          {
            "duration": 0.5518012499999827,
            "durationTicks": 490,
            "midi": 62,
            "name": "D4",
            "ticks": 135380,
            "time": 152.45480250000003,
            "velocity": 0.6929133858267716
          },
          {
            "duration": 0.5405399999999929,
            "durationTicks": 480,
            "midi": 53,
            "name": "F3",
            "ticks": 135860,
            "time": 152.99534250000002,
            "velocity": 0.6929133858267716
          },
          {
            "duration": 0.5405399999999929,
            "durationTicks": 480,
            "midi": 56,
            "name": "G#3",
            "ticks": 135860,
            "time": 152.99534250000002,
            "velocity": 0.6929133858267716
          },
          {
            "duration": 0.5405399999999929,
            "durationTicks": 480,
            "midi": 60,
            "name": "C4",
            "ticks": 135860,
            "time": 152.99534250000002,
            "velocity": 0.6929133858267716
          },
          {
            "duration": 1.0585575000000063,
            "durationTicks": 940,
            "midi": 65,
            "name": "F4",
            "ticks": 136340,
            "time": 153.5358825,
            "velocity": 0.6929133858267716
          },
          {
            "duration": 1.0585575000000063,
            "durationTicks": 940,
            "midi": 62,
            "name": "D4",
            "ticks": 136340,
            "time": 153.5358825,
            "velocity": 0.6929133858267716
          },
          {
            "duration": 1.0585575000000063,
            "durationTicks": 940,
            "midi": 59,
            "name": "B3",
            "ticks": 136340,
            "time": 153.5358825,
            "velocity": 0.6929133858267716
          },
          {
            "duration": 1.0585574999999778,
            "durationTicks": 940,
            "midi": 65,
            "name": "F4",
            "ticks": 137300,
            "time": 154.61696250000003,
            "velocity": 0.6929133858267716
          },
          {
            "duration": 1.0585574999999778,
            "durationTicks": 940,
            "midi": 62,
            "name": "D4",
            "ticks": 137300,
            "time": 154.61696250000003,
            "velocity": 0.6929133858267716
          },
          {
            "duration": 1.0360349999999698,
            "durationTicks": 920,
            "midi": 59,
            "name": "B3",
            "ticks": 137300,
            "time": 154.61696250000003,
            "velocity": 0.6929133858267716
          },
          {
            "duration": 2.148646499999984,
            "durationTicks": 1908,
            "midi": 63,
            "name": "D#4",
            "ticks": 138260,
            "time": 155.6980425,
            "velocity": 0.6929133858267716
          },
          {
            "duration": 2.148646499999984,
            "durationTicks": 1908,
            "midi": 66,
            "name": "F#4",
            "ticks": 138260,
            "time": 155.6980425,
            "velocity": 0.6929133858267716
          },
          {
            "duration": 2.148646499999984,
            "durationTicks": 1908,
            "midi": 60,
            "name": "C4",
            "ticks": 138260,
            "time": 155.6980425,
            "velocity": 0.6929133858267716
          },
          {
            "duration": 3.1756724999999904,
            "durationTicks": 2820,
            "midi": 62,
            "name": "D4",
            "ticks": 140140,
            "time": 157.8151575,
            "velocity": 0.6929133858267716
          },
          {
            "duration": 3.243239999999986,
            "durationTicks": 2880,
            "midi": 58,
            "name": "A#3",
            "ticks": 140140,
            "time": 157.8151575,
            "velocity": 0.6929133858267716
          },
          {
            "duration": 1.0484223750000012,
            "durationTicks": 931,
            "midi": 67,
            "name": "G4",
            "ticks": 140140,
            "time": 157.8151575,
            "velocity": 0.6929133858267716
          },
          {
            "duration": 1.0912151250000193,
            "durationTicks": 969,
            "midi": 66,
            "name": "F#4",
            "ticks": 141100,
            "time": 158.89623749999998,
            "velocity": 0.6929133858267716
          },
          {
            "duration": 1.069818749999996,
            "durationTicks": 950,
            "midi": 65,
            "name": "F4",
            "ticks": 142060,
            "time": 159.9773175,
            "velocity": 0.6929133858267716
          },
          {
            "duration": 1.0788277500000163,
            "durationTicks": 958,
            "midi": 58,
            "name": "A#3",
            "ticks": 143020,
            "time": 161.05839749999998,
            "velocity": 0.6929133858267716
          },
          {
            "duration": 1.0788277500000163,
            "durationTicks": 958,
            "midi": 62,
            "name": "D4",
            "ticks": 143020,
            "time": 161.05839749999998,
            "velocity": 0.6929133858267716
          },
          {
            "duration": 1.0788277500000163,
            "durationTicks": 958,
            "midi": 64,
            "name": "E4",
            "ticks": 143020,
            "time": 161.05839749999998,
            "velocity": 0.6929133858267716
          },
          {
            "duration": 2.16216,
            "durationTicks": 1920,
            "midi": 67,
            "name": "G4",
            "ticks": 143980,
            "time": 162.1394775,
            "velocity": 0.6929133858267716
          },
          {
            "duration": 2.16216,
            "durationTicks": 1920,
            "midi": 70,
            "name": "A#4",
            "ticks": 143980,
            "time": 162.1394775,
            "velocity": 0.6929133858267716
          },
          {
            "duration": 2.139637499999992,
            "durationTicks": 1900,
            "midi": 62,
            "name": "D4",
            "ticks": 144020,
            "time": 162.1845225,
            "velocity": 0.6929133858267716
          },
          {
            "duration": 0.8220712500000218,
            "durationTicks": 730,
            "midi": 67,
            "name": "G4",
            "ticks": 145900,
            "time": 164.3016375,
            "velocity": 0.6062992125984252
          },
          {
            "duration": 0.8220712500000218,
            "durationTicks": 730,
            "midi": 69,
            "name": "A4",
            "ticks": 145900,
            "time": 164.3016375,
            "velocity": 0.6062992125984252
          },
          {
            "duration": 0.19481962499997962,
            "durationTicks": 173,
            "midi": 66,
            "name": "F#4",
            "ticks": 146660,
            "time": 165.15749250000002,
            "velocity": 0.6062992125984252
          },
          {
            "duration": 0.19481962499997962,
            "durationTicks": 173,
            "midi": 69,
            "name": "A4",
            "ticks": 146660,
            "time": 165.15749250000002,
            "velocity": 0.6062992125984252
          },
          {
            "duration": 1.066440374999985,
            "durationTicks": 947,
            "midi": 54,
            "name": "F#3",
            "ticks": 155520,
            "time": 175.13496,
            "velocity": 0.6929133858267716
          },
          {
            "duration": 1.0461701249999749,
            "durationTicks": 929,
            "midi": 62,
            "name": "D4",
            "ticks": 155520,
            "time": 175.13496,
            "velocity": 0.6929133858267716
          },
          {
            "duration": 1.0157647499999882,
            "durationTicks": 902,
            "midi": 63,
            "name": "D#4",
            "ticks": 156480,
            "time": 176.21604000000002,
            "velocity": 0.6929133858267716
          },
          {
            "duration": 1.0360349999999983,
            "durationTicks": 920,
            "midi": 55,
            "name": "G3",
            "ticks": 156480,
            "time": 176.21604000000002,
            "velocity": 0.6929133858267716
          },
          {
            "duration": 0.11261249999998313,
            "durationTicks": 100,
            "midi": 54,
            "name": "F#3",
            "ticks": 157440,
            "time": 177.29712,
            "velocity": 0.6929133858267716
          },
          {
            "duration": 0.08333324999998126,
            "durationTicks": 74,
            "midi": 62,
            "name": "D4",
            "ticks": 157440,
            "time": 177.29712,
            "velocity": 0.6929133858267716
          },
          {
            "duration": 1.6249983750000183,
            "durationTicks": 1443,
            "midi": 65,
            "name": "F4",
            "ticks": 157920,
            "time": 177.83766,
            "velocity": 0.6929133858267716
          },
          {
            "duration": 2.086709625000026,
            "durationTicks": 1853,
            "midi": 67,
            "name": "G4",
            "ticks": 159355,
            "time": 179.453649375,
            "velocity": 0.6929133858267716
          },
          {
            "duration": 2.086709625000026,
            "durationTicks": 1853,
            "midi": 62,
            "name": "D4",
            "ticks": 159355,
            "time": 179.453649375,
            "velocity": 0.6929133858267716
          },
          {
            "duration": 2.210583374999999,
            "durationTicks": 1963,
            "midi": 68,
            "name": "G#4",
            "ticks": 161235,
            "time": 181.570764375,
            "velocity": 0.6929133858267716
          },
          {
            "duration": 2.210583374999999,
            "durationTicks": 1963,
            "midi": 62,
            "name": "D4",
            "ticks": 161235,
            "time": 181.570764375,
            "velocity": 0.6929133858267716
          },
          {
            "duration": 2.1340068750000114,
            "durationTicks": 1895,
            "midi": 58,
            "name": "A#3",
            "ticks": 163195,
            "time": 183.777969375,
            "velocity": 0.6929133858267716
          },
          {
            "duration": 2.1340068750000114,
            "durationTicks": 1895,
            "midi": 67,
            "name": "G4",
            "ticks": 163195,
            "time": 183.777969375,
            "velocity": 0.6929133858267716
          },
          {
            "duration": 2.1430158750000032,
            "durationTicks": 1903,
            "midi": 62,
            "name": "D4",
            "ticks": 163200,
            "time": 183.7836,
            "velocity": 0.6929133858267716
          },
          {
            "duration": 1.104728625000007,
            "durationTicks": 981,
            "midi": 62,
            "name": "D4",
            "ticks": 165091,
            "time": 185.91310237500002,
            "velocity": 0.6929133858267716
          },
          {
            "duration": 1.0878367500000365,
            "durationTicks": 966,
            "midi": 67,
            "name": "G4",
            "ticks": 165102,
            "time": 185.92548975,
            "velocity": 0.6929133858267716
          },
          {
            "duration": 1.0878367500000365,
            "durationTicks": 966,
            "midi": 66,
            "name": "F#4",
            "ticks": 166062,
            "time": 187.00656974999998,
            "velocity": 0.6929133858267716
          },
          {
            "duration": 0.5439183750000325,
            "durationTicks": 483,
            "midi": 63,
            "name": "D#4",
            "ticks": 166080,
            "time": 187.02684,
            "velocity": 0.6929133858267716
          },
          {
            "duration": 3.292789499999998,
            "durationTicks": 2924,
            "midi": 70,
            "name": "A#4",
            "ticks": 167040,
            "time": 188.10792,
            "velocity": 0.6929133858267716
          },
          {
            "duration": 1.1306294999999977,
            "durationTicks": 1004,
            "midi": 62,
            "name": "D4",
            "ticks": 167040,
            "time": 188.10792,
            "velocity": 0.6929133858267716
          },
          {
            "duration": 1.1306294999999977,
            "durationTicks": 1004,
            "midi": 55,
            "name": "G3",
            "ticks": 167040,
            "time": 188.10792,
            "velocity": 0.6929133858267716
          },
          {
            "duration": 1.039413374999981,
            "durationTicks": 923,
            "midi": 64,
            "name": "E4",
            "ticks": 168000,
            "time": 189.18900000000002,
            "velocity": 0.6929133858267716
          },
          {
            "duration": 1.039413374999981,
            "durationTicks": 923,
            "midi": 60,
            "name": "C4",
            "ticks": 168000,
            "time": 189.18900000000002,
            "velocity": 0.6929133858267716
          },
          {
            "duration": 1.0304043749999892,
            "durationTicks": 915,
            "midi": 63,
            "name": "D#4",
            "ticks": 168960,
            "time": 190.27008,
            "velocity": 0.6929133858267716
          },
          {
            "duration": 1.0304043749999892,
            "durationTicks": 915,
            "midi": 60,
            "name": "C4",
            "ticks": 168960,
            "time": 190.27008,
            "velocity": 0.6929133858267716
          },
          {
            "duration": 0.5135130000000174,
            "durationTicks": 456,
            "midi": 53,
            "name": "F3",
            "ticks": 169920,
            "time": 191.35116,
            "velocity": 0.6929133858267716
          },
          {
            "duration": 0.5135130000000174,
            "durationTicks": 456,
            "midi": 65,
            "name": "F4",
            "ticks": 169920,
            "time": 191.35116,
            "velocity": 0.6929133858267716
          },
          {
            "duration": 0.5135130000000174,
            "durationTicks": 456,
            "midi": 58,
            "name": "A#3",
            "ticks": 169920,
            "time": 191.35116,
            "velocity": 0.6929133858267716
          },
          {
            "duration": 0.501125624999986,
            "durationTicks": 445,
            "midi": 58,
            "name": "A#3",
            "ticks": 170400,
            "time": 191.89170000000001,
            "velocity": 0.6929133858267716
          },
          {
            "duration": 0.5686931249999816,
            "durationTicks": 505,
            "midi": 70,
            "name": "A#4",
            "ticks": 170400,
            "time": 191.89170000000001,
            "velocity": 0.6929133858267716
          },
          {
            "duration": 0.501125624999986,
            "durationTicks": 445,
            "midi": 62,
            "name": "D4",
            "ticks": 170400,
            "time": 191.89170000000001,
            "velocity": 0.6929133858267716
          },
          {
            "duration": 2.172295125000005,
            "durationTicks": 1929,
            "midi": 67,
            "name": "G4",
            "ticks": 170880,
            "time": 192.43224,
            "velocity": 0.6929133858267716
          },
          {
            "duration": 2.172295125000005,
            "durationTicks": 1929,
            "midi": 74,
            "name": "D5",
            "ticks": 170880,
            "time": 192.43224,
            "velocity": 0.6929133858267716
          },
          {
            "duration": 2.172295125000005,
            "durationTicks": 1929,
            "midi": 62,
            "name": "D4",
            "ticks": 170880,
            "time": 192.43224,
            "velocity": 0.6929133858267716
          },
          {
            "duration": 1.0799538749999726,
            "durationTicks": 959,
            "midi": 55,
            "name": "G3",
            "ticks": 174720,
            "time": 196.75656,
            "velocity": 0.5039370078740157
          },
          {
            "duration": 1.0799538749999726,
            "durationTicks": 959,
            "midi": 58,
            "name": "A#3",
            "ticks": 174720,
            "time": 196.75656,
            "velocity": 0.5039370078740157
          },
          {
            "duration": 1.0799538749999726,
            "durationTicks": 959,
            "midi": 62,
            "name": "D4",
            "ticks": 174720,
            "time": 196.75656,
            "velocity": 0.5039370078740157
          },
          {
            "duration": 1.051800749999984,
            "durationTicks": 934,
            "midi": 62,
            "name": "D4",
            "ticks": 175680,
            "time": 197.83764000000002,
            "velocity": 0.5039370078740157
          },
          {
            "duration": 1.051800749999984,
            "durationTicks": 934,
            "midi": 53,
            "name": "F3",
            "ticks": 175680,
            "time": 197.83764000000002,
            "velocity": 0.5039370078740157
          },
          {
            "duration": 1.051800749999984,
            "durationTicks": 934,
            "midi": 58,
            "name": "A#3",
            "ticks": 175680,
            "time": 197.83764000000002,
            "velocity": 0.5039370078740157
          },
          {
            "duration": 1.041665624999979,
            "durationTicks": 925,
            "midi": 62,
            "name": "D4",
            "ticks": 176640,
            "time": 198.91872,
            "velocity": 0.5039370078740157
          },
          {
            "duration": 1.041665624999979,
            "durationTicks": 925,
            "midi": 58,
            "name": "A#3",
            "ticks": 176640,
            "time": 198.91872,
            "velocity": 0.5039370078740157
          },
          {
            "duration": 1.041665624999979,
            "durationTicks": 925,
            "midi": 55,
            "name": "G3",
            "ticks": 176640,
            "time": 198.91872,
            "velocity": 0.5039370078740157
          },
          {
            "duration": 0.9684675000000311,
            "durationTicks": 860,
            "midi": 60,
            "name": "C4",
            "ticks": 177600,
            "time": 199.9998,
            "velocity": 0.5039370078740157
          },
          {
            "duration": 0.9684675000000311,
            "durationTicks": 860,
            "midi": 63,
            "name": "D#4",
            "ticks": 177600,
            "time": 199.9998,
            "velocity": 0.5039370078740157
          },
          {
            "duration": 0.9684675000000311,
            "durationTicks": 860,
            "midi": 54,
            "name": "F#3",
            "ticks": 177600,
            "time": 199.9998,
            "velocity": 0.5039370078740157
          },
          {
            "duration": 0.15090074999997682,
            "durationTicks": 134,
            "midi": 62,
            "name": "D4",
            "ticks": 178560,
            "time": 201.08088,
            "velocity": 0.6929133858267716
          },
          {
            "duration": 0.16216199999999503,
            "durationTicks": 144,
            "midi": 55,
            "name": "G3",
            "ticks": 178560,
            "time": 201.08088,
            "velocity": 0.6929133858267716
          },
          {
            "duration": 0.18243224999997665,
            "durationTicks": 162,
            "midi": 55,
            "name": "G3",
            "ticks": 178800,
            "time": 201.35115000000002,
            "velocity": 0.6929133858267716
          },
          {
            "duration": 0.1903151249999837,
            "durationTicks": 169,
            "midi": 62,
            "name": "D4",
            "ticks": 178800,
            "time": 201.35115000000002,
            "velocity": 0.6929133858267716
          },
          {
            "duration": 0.11824312500002065,
            "durationTicks": 105,
            "midi": 62,
            "name": "D4",
            "ticks": 179054,
            "time": 201.63718575,
            "velocity": 0.6929133858267716
          },
          {
            "duration": 0.11824312500002065,
            "durationTicks": 105,
            "midi": 63,
            "name": "D#4",
            "ticks": 179108,
            "time": 201.6979965,
            "velocity": 0.6929133858267716
          },
          {
            "duration": 0.11599087499999428,
            "durationTicks": 103,
            "midi": 65,
            "name": "F4",
            "ticks": 179183,
            "time": 201.782455875,
            "velocity": 0.6929133858267716
          },
          {
            "duration": 0.11711699999997904,
            "durationTicks": 104,
            "midi": 67,
            "name": "G4",
            "ticks": 179246,
            "time": 201.85340175000002,
            "velocity": 0.6929133858267716
          },
          {
            "duration": 0.11036024999998517,
            "durationTicks": 98,
            "midi": 69,
            "name": "A4",
            "ticks": 179312,
            "time": 201.927726,
            "velocity": 0.6929133858267716
          },
          {
            "duration": 0.10472962499997607,
            "durationTicks": 93,
            "midi": 70,
            "name": "A#4",
            "ticks": 179392,
            "time": 202.017816,
            "velocity": 0.6929133858267716
          },
          {
            "duration": 0.11711700000000747,
            "durationTicks": 104,
            "midi": 72,
            "name": "C5",
            "ticks": 179456,
            "time": 202.089888,
            "velocity": 0.6929133858267716
          },
          {
            "duration": 0.10698187499997402,
            "durationTicks": 95,
            "midi": 74,
            "name": "D5",
            "ticks": 179523,
            "time": 202.16533837500003,
            "velocity": 0.6929133858267716
          },
          {
            "duration": 0.24662137499998948,
            "durationTicks": 219,
            "midi": 60,
            "name": "C4",
            "ticks": 180000,
            "time": 202.70250000000001,
            "velocity": 0.6929133858267716
          },
          {
            "duration": 0.2398646249999956,
            "durationTicks": 213,
            "midi": 55,
            "name": "G3",
            "ticks": 180000,
            "time": 202.70250000000001,
            "velocity": 0.6929133858267716
          },
          {
            "duration": 0.09684675000002585,
            "durationTicks": 86,
            "midi": 54,
            "name": "F#3",
            "ticks": 180240,
            "time": 202.97277,
            "velocity": 0.6929133858267716
          },
          {
            "duration": 0.1103602500000136,
            "durationTicks": 98,
            "midi": 60,
            "name": "C4",
            "ticks": 180240,
            "time": 202.97277,
            "velocity": 0.6929133858267716
          },
          {
            "duration": 1.201575374999976,
            "durationTicks": 1067,
            "midi": 55,
            "name": "G3",
            "ticks": 180360,
            "time": 203.10790500000002,
            "velocity": 0.6929133858267716
          },
          {
            "duration": 1.201575374999976,
            "durationTicks": 1067,
            "midi": 58,
            "name": "A#3",
            "ticks": 180360,
            "time": 203.10790500000002,
            "velocity": 0.6929133858267716
          },
          {
            "duration": 1.193692499999969,
            "durationTicks": 1060,
            "midi": 62,
            "name": "D4",
            "ticks": 180360,
            "time": 203.10790500000002,
            "velocity": 0.6929133858267716
          },
          {
            "duration": 0.8029271249999965,
            "durationTicks": 713,
            "midi": 65,
            "name": "F4",
            "ticks": 181680,
            "time": 204.59439,
            "velocity": 0.7874015748031497
          },
          {
            "duration": 0.8029271249999965,
            "durationTicks": 713,
            "midi": 60,
            "name": "C4",
            "ticks": 181680,
            "time": 204.59439,
            "velocity": 0.7874015748031497
          },
          {
            "duration": 0.8108100000000036,
            "durationTicks": 720,
            "midi": 54,
            "name": "F#3",
            "ticks": 181680,
            "time": 204.59439,
            "velocity": 0.7874015748031497
          },
          {
            "duration": 1.6216200000000072,
            "durationTicks": 1440,
            "midi": 62,
            "name": "D4",
            "ticks": 182360,
            "time": 205.36015500000002,
            "velocity": 0.6929133858267716
          },
          {
            "duration": 1.6159893750000265,
            "durationTicks": 1435,
            "midi": 70,
            "name": "A#4",
            "ticks": 182365,
            "time": 205.365785625,
            "velocity": 0.6929133858267716
          },
          {
            "duration": 1.5934668750000185,
            "durationTicks": 1415,
            "midi": 55,
            "name": "G3",
            "ticks": 182365,
            "time": 205.365785625,
            "velocity": 0.6929133858267716
          },
          {
            "duration": 0.515765249999987,
            "durationTicks": 458,
            "midi": 74,
            "name": "D5",
            "ticks": 183806,
            "time": 206.98853175000002,
            "velocity": 0.8818897637795275
          },
          {
            "duration": 0.515765249999987,
            "durationTicks": 458,
            "midi": 55,
            "name": "G3",
            "ticks": 183806,
            "time": 206.98853175000002,
            "velocity": 0.6929133858267716
          },
          {
            "duration": 0.515765249999987,
            "durationTicks": 458,
            "midi": 62,
            "name": "D4",
            "ticks": 183806,
            "time": 206.98853175000002,
            "velocity": 0.6929133858267716
          },
          {
            "duration": 2.188060874999991,
            "durationTicks": 1943,
            "midi": 77,
            "name": "F5",
            "ticks": 184277,
            "time": 207.518936625,
            "velocity": 0.6929133858267716
          },
          {
            "duration": 2.188060874999991,
            "durationTicks": 1943,
            "midi": 62,
            "name": "D4",
            "ticks": 184277,
            "time": 207.518936625,
            "velocity": 0.6929133858267716
          },
          {
            "duration": 2.1171150000000125,
            "durationTicks": 1880,
            "midi": 58,
            "name": "A#3",
            "ticks": 184286,
            "time": 207.52907175,
            "velocity": 0.6929133858267716
          },
          {
            "duration": 2.027025000000009,
            "durationTicks": 1800,
            "midi": 55,
            "name": "G3",
            "ticks": 186206,
            "time": 209.69123175000001,
            "velocity": 0.6929133858267716
          },
          {
            "duration": 2.1340068750000114,
            "durationTicks": 1895,
            "midi": 58,
            "name": "A#3",
            "ticks": 186235,
            "time": 209.723889375,
            "velocity": 0.6929133858267716
          },
          {
            "duration": 2.1430158750000032,
            "durationTicks": 1903,
            "midi": 74,
            "name": "D5",
            "ticks": 186240,
            "time": 209.72952,
            "velocity": 0.6929133858267716
          },
          {
            "duration": 2.185808624999993,
            "durationTicks": 1941,
            "midi": 74,
            "name": "D5",
            "ticks": 188182,
            "time": 211.91645475,
            "velocity": 0.6062992125984252
          },
          {
            "duration": 1.0878367500000081,
            "durationTicks": 966,
            "midi": 55,
            "name": "G3",
            "ticks": 188193,
            "time": 211.92884212500002,
            "velocity": 0.6062992125984252
          },
          {
            "duration": 1.04504399999999,
            "durationTicks": 928,
            "midi": 54,
            "name": "F#3",
            "ticks": 189183,
            "time": 213.04370587500003,
            "velocity": 0.6062992125984252
          },
          {
            "duration": 3.292789499999998,
            "durationTicks": 2924,
            "midi": 70,
            "name": "A#4",
            "ticks": 190080,
            "time": 214.05384,
            "velocity": 0.6929133858267716
          },
          {
            "duration": 1.1306294999999977,
            "durationTicks": 1004,
            "midi": 53,
            "name": "F3",
            "ticks": 190080,
            "time": 214.05384,
            "velocity": 0.8818897637795275
          },
          {
            "duration": 1.1306294999999977,
            "durationTicks": 1004,
            "midi": 62,
            "name": "D4",
            "ticks": 190080,
            "time": 214.05384,
            "velocity": 0.8818897637795275
          },
          {
            "duration": 1.039413374999981,
            "durationTicks": 923,
            "midi": 60,
            "name": "C4",
            "ticks": 191040,
            "time": 215.13492000000002,
            "velocity": 0.6929133858267716
          },
          {
            "duration": 1.039413374999981,
            "durationTicks": 923,
            "midi": 64,
            "name": "E4",
            "ticks": 191040,
            "time": 215.13492000000002,
            "velocity": 0.6929133858267716
          },
          {
            "duration": 1.0304043749999892,
            "durationTicks": 915,
            "midi": 63,
            "name": "D#4",
            "ticks": 192000,
            "time": 216.216,
            "velocity": 0.6929133858267716
          },
          {
            "duration": 1.0304043749999892,
            "durationTicks": 915,
            "midi": 60,
            "name": "C4",
            "ticks": 192000,
            "time": 216.216,
            "velocity": 0.6929133858267716
          },
          {
            "duration": 0.5135130000000174,
            "durationTicks": 456,
            "midi": 62,
            "name": "D4",
            "ticks": 192960,
            "time": 217.29708,
            "velocity": 0.6929133858267716
          },
          {
            "duration": 0.5135130000000174,
            "durationTicks": 456,
            "midi": 53,
            "name": "F3",
            "ticks": 192960,
            "time": 217.29708,
            "velocity": 0.6929133858267716
          },
          {
            "duration": 0.5135130000000174,
            "durationTicks": 456,
            "midi": 65,
            "name": "F4",
            "ticks": 192960,
            "time": 217.29708,
            "velocity": 0.6929133858267716
          },
          {
            "duration": 0.501125624999986,
            "durationTicks": 445,
            "midi": 70,
            "name": "A#4",
            "ticks": 193440,
            "time": 217.83762000000002,
            "velocity": 0.6929133858267716
          },
          {
            "duration": 0.5686931249999816,
            "durationTicks": 505,
            "midi": 65,
            "name": "F4",
            "ticks": 193440,
            "time": 217.83762000000002,
            "velocity": 0.6929133858267716
          },
          {
            "duration": 0.501125624999986,
            "durationTicks": 445,
            "midi": 58,
            "name": "A#3",
            "ticks": 193440,
            "time": 217.83762000000002,
            "velocity": 0.6929133858267716
          },
          {
            "duration": 2.172295125000005,
            "durationTicks": 1929,
            "midi": 62,
            "name": "D4",
            "ticks": 193920,
            "time": 218.37816,
            "velocity": 0.6929133858267716
          },
          {
            "duration": 2.172295125000005,
            "durationTicks": 1929,
            "midi": 74,
            "name": "D5",
            "ticks": 193920,
            "time": 218.37816,
            "velocity": 0.6929133858267716
          },
          {
            "duration": 2.172295125000005,
            "durationTicks": 1929,
            "midi": 67,
            "name": "G4",
            "ticks": 193920,
            "time": 218.37816,
            "velocity": 0.6929133858267716
          },
          {
            "duration": 0.18918899999999894,
            "durationTicks": 168,
            "midi": 62,
            "name": "D4",
            "ticks": 196080,
            "time": 220.81059000000002,
            "velocity": 0.6929133858267716
          },
          {
            "duration": 0.16216199999999503,
            "durationTicks": 144,
            "midi": 55,
            "name": "G3",
            "ticks": 196080,
            "time": 220.81059000000002,
            "velocity": 0.6929133858267716
          },
          {
            "duration": 0.11148637499999836,
            "durationTicks": 99,
            "midi": 62,
            "name": "D4",
            "ticks": 196440,
            "time": 221.21599500000002,
            "velocity": 0.6929133858267716
          },
          {
            "duration": 0.09234225000000151,
            "durationTicks": 82,
            "midi": 55,
            "name": "G3",
            "ticks": 196440,
            "time": 221.21599500000002,
            "velocity": 0.6929133858267716
          },
          {
            "duration": 0.22635112500000787,
            "durationTicks": 201,
            "midi": 54,
            "name": "F#3",
            "ticks": 196800,
            "time": 221.6214,
            "velocity": 0.6929133858267716
          },
          {
            "duration": 0.24436912500001995,
            "durationTicks": 217,
            "midi": 62,
            "name": "D4",
            "ticks": 196800,
            "time": 221.6214,
            "velocity": 0.6929133858267716
          },
          {
            "duration": 1.0799538749999726,
            "durationTicks": 959,
            "midi": 55,
            "name": "G3",
            "ticks": 197760,
            "time": 222.70248,
            "velocity": 0.5039370078740157
          },
          {
            "duration": 1.0799538749999726,
            "durationTicks": 959,
            "midi": 58,
            "name": "A#3",
            "ticks": 197760,
            "time": 222.70248,
            "velocity": 0.5039370078740157
          },
          {
            "duration": 1.0799538749999726,
            "durationTicks": 959,
            "midi": 62,
            "name": "D4",
            "ticks": 197760,
            "time": 222.70248,
            "velocity": 0.5039370078740157
          },
          {
            "duration": 1.051800749999984,
            "durationTicks": 934,
            "midi": 62,
            "name": "D4",
            "ticks": 198720,
            "time": 223.78356000000002,
            "velocity": 0.5039370078740157
          },
          {
            "duration": 1.051800749999984,
            "durationTicks": 934,
            "midi": 53,
            "name": "F3",
            "ticks": 198720,
            "time": 223.78356000000002,
            "velocity": 0.5039370078740157
          },
          {
            "duration": 1.051800749999984,
            "durationTicks": 934,
            "midi": 58,
            "name": "A#3",
            "ticks": 198720,
            "time": 223.78356000000002,
            "velocity": 0.5039370078740157
          },
          {
            "duration": 1.041665624999979,
            "durationTicks": 925,
            "midi": 62,
            "name": "D4",
            "ticks": 199680,
            "time": 224.86464,
            "velocity": 0.5039370078740157
          },
          {
            "duration": 1.041665624999979,
            "durationTicks": 925,
            "midi": 58,
            "name": "A#3",
            "ticks": 199680,
            "time": 224.86464,
            "velocity": 0.5039370078740157
          },
          {
            "duration": 1.041665624999979,
            "durationTicks": 925,
            "midi": 55,
            "name": "G3",
            "ticks": 199680,
            "time": 224.86464,
            "velocity": 0.5039370078740157
          },
          {
            "duration": 0.9684675000000311,
            "durationTicks": 860,
            "midi": 60,
            "name": "C4",
            "ticks": 200640,
            "time": 225.94572,
            "velocity": 0.5039370078740157
          },
          {
            "duration": 0.9684675000000311,
            "durationTicks": 860,
            "midi": 63,
            "name": "D#4",
            "ticks": 200640,
            "time": 225.94572,
            "velocity": 0.5039370078740157
          },
          {
            "duration": 0.9684675000000311,
            "durationTicks": 860,
            "midi": 54,
            "name": "F#3",
            "ticks": 200640,
            "time": 225.94572,
            "velocity": 0.5039370078740157
          },
          {
            "duration": 0.15090074999997682,
            "durationTicks": 134,
            "midi": 62,
            "name": "D4",
            "ticks": 201600,
            "time": 227.0268,
            "velocity": 0.6929133858267716
          },
          {
            "duration": 0.16216199999999503,
            "durationTicks": 144,
            "midi": 60,
            "name": "C4",
            "ticks": 201600,
            "time": 227.0268,
            "velocity": 0.6929133858267716
          },
          {
            "duration": 0.18243224999997665,
            "durationTicks": 162,
            "midi": 60,
            "name": "C4",
            "ticks": 201840,
            "time": 227.29707000000002,
            "velocity": 0.6929133858267716
          },
          {
            "duration": 0.1903151249999837,
            "durationTicks": 169,
            "midi": 62,
            "name": "D4",
            "ticks": 201840,
            "time": 227.29707000000002,
            "velocity": 0.6929133858267716
          },
          {
            "duration": 0.11824312500002065,
            "durationTicks": 105,
            "midi": 62,
            "name": "D4",
            "ticks": 202094,
            "time": 227.58310575,
            "velocity": 0.6929133858267716
          },
          {
            "duration": 0.11824312500002065,
            "durationTicks": 105,
            "midi": 63,
            "name": "D#4",
            "ticks": 202148,
            "time": 227.6439165,
            "velocity": 0.6929133858267716
          },
          {
            "duration": 0.11599087499999428,
            "durationTicks": 103,
            "midi": 65,
            "name": "F4",
            "ticks": 202223,
            "time": 227.728375875,
            "velocity": 0.6929133858267716
          },
          {
            "duration": 0.11711699999997904,
            "durationTicks": 104,
            "midi": 67,
            "name": "G4",
            "ticks": 202286,
            "time": 227.79932175000002,
            "velocity": 0.6929133858267716
          },
          {
            "duration": 0.11036024999998517,
            "durationTicks": 98,
            "midi": 69,
            "name": "A4",
            "ticks": 202352,
            "time": 227.873646,
            "velocity": 0.6929133858267716
          },
          {
            "duration": 0.10472962499997607,
            "durationTicks": 93,
            "midi": 70,
            "name": "A#4",
            "ticks": 202432,
            "time": 227.963736,
            "velocity": 0.6929133858267716
          },
          {
            "duration": 0.11711700000000747,
            "durationTicks": 104,
            "midi": 72,
            "name": "C5",
            "ticks": 202496,
            "time": 228.035808,
            "velocity": 0.6929133858267716
          },
          {
            "duration": 0.10698187499997402,
            "durationTicks": 95,
            "midi": 74,
            "name": "D5",
            "ticks": 202563,
            "time": 228.11125837500003,
            "velocity": 0.6929133858267716
          },
          {
            "duration": 0.24662137499998948,
            "durationTicks": 219,
            "midi": 60,
            "name": "C4",
            "ticks": 203040,
            "time": 228.64842000000002,
            "velocity": 0.6929133858267716
          },
          {
            "duration": 0.2398646249999956,
            "durationTicks": 213,
            "midi": 55,
            "name": "G3",
            "ticks": 203040,
            "time": 228.64842000000002,
            "velocity": 0.6929133858267716
          },
          {
            "duration": 0.09684675000002585,
            "durationTicks": 86,
            "midi": 54,
            "name": "F#3",
            "ticks": 203280,
            "time": 228.91869,
            "velocity": 0.6929133858267716
          },
          {
            "duration": 0.1103602500000136,
            "durationTicks": 98,
            "midi": 60,
            "name": "C4",
            "ticks": 203280,
            "time": 228.91869,
            "velocity": 0.6929133858267716
          },
          {
            "duration": 1.246620374999992,
            "durationTicks": 1107,
            "midi": 55,
            "name": "G3",
            "ticks": 203400,
            "time": 229.05382500000002,
            "velocity": 0.6929133858267716
          },
          {
            "duration": 1.246620374999992,
            "durationTicks": 1107,
            "midi": 58,
            "name": "A#3",
            "ticks": 203400,
            "time": 229.05382500000002,
            "velocity": 0.6929133858267716
          },
          {
            "duration": 1.2387375000000134,
            "durationTicks": 1100,
            "midi": 62,
            "name": "D4",
            "ticks": 203400,
            "time": 229.05382500000002,
            "velocity": 0.6929133858267716
          },
          {
            "duration": 1.094593500000002,
            "durationTicks": 972,
            "midi": 55,
            "name": "G3",
            "ticks": 204480,
            "time": 230.27004,
            "velocity": 0.6929133858267716
          },
          {
            "duration": 1.094593500000002,
            "durationTicks": 972,
            "midi": 60,
            "name": "C4",
            "ticks": 204480,
            "time": 230.27004,
            "velocity": 0.6929133858267716
          },
          {
            "duration": 1.102476375000009,
            "durationTicks": 979,
            "midi": 64,
            "name": "E4",
            "ticks": 204480,
            "time": 230.27004,
            "velocity": 0.6929133858267716
          },
          {
            "duration": 0.1644142500000214,
            "durationTicks": 146,
            "midi": 65,
            "name": "F4",
            "ticks": 205550,
            "time": 231.47499375,
            "velocity": 0.6929133858267716
          },
          {
            "duration": 0.1644142500000214,
            "durationTicks": 146,
            "midi": 58,
            "name": "A#3",
            "ticks": 205550,
            "time": 231.47499375,
            "velocity": 0.6929133858267716
          },
          {
            "duration": 0.17229712500000005,
            "durationTicks": 153,
            "midi": 62,
            "name": "D4",
            "ticks": 205550,
            "time": 231.47499375,
            "velocity": 0.6929133858267716
          },
          {
            "duration": 0.31531499999999824,
            "durationTicks": 280,
            "midi": 67,
            "name": "G4",
            "ticks": 205910,
            "time": 231.88039875,
            "velocity": 0.6929133858267716
          },
          {
            "duration": 0.31531499999999824,
            "durationTicks": 280,
            "midi": 60,
            "name": "C4",
            "ticks": 205910,
            "time": 231.88039875,
            "velocity": 0.6929133858267716
          },
          {
            "duration": 0.29729699999998616,
            "durationTicks": 264,
            "midi": 64,
            "name": "E4",
            "ticks": 205910,
            "time": 231.88039875,
            "velocity": 0.6929133858267716
          },
          {
            "duration": 0.20495475000001306,
            "durationTicks": 182,
            "midi": 65,
            "name": "F4",
            "ticks": 206270,
            "time": 232.28580375,
            "velocity": 0.6929133858267716
          },
          {
            "duration": 0.18581062500001622,
            "durationTicks": 165,
            "midi": 62,
            "name": "D4",
            "ticks": 206270,
            "time": 232.28580375,
            "velocity": 0.6929133858267716
          },
          {
            "duration": 0.20495475000001306,
            "durationTicks": 182,
            "midi": 58,
            "name": "A#3",
            "ticks": 206270,
            "time": 232.28580375,
            "velocity": 0.6929133858267716
          }
        ]
      },
      {
        "channel": 0,
        "controlChanges": {
          "0": [
            {
              "number": 0,
              "ticks": 660,
              "time": 0.7432425,
              "value": 0
            },
            {
              "number": 0,
              "ticks": 680,
              "time": 0.765765,
              "value": 0
            }
          ],
          "32": [
            {
              "number": 32,
              "ticks": 670,
              "time": 0.75450375,
              "value": 0
            },
            {
              "number": 32,
              "ticks": 680,
              "time": 0.765765,
              "value": 0
            }
          ]
        },
        "pitchBends": [],
        "instrument": {
          "family": "piano",
          "number": 0,
          "name": "acoustic grand piano"
        },
        "name": "",
        "notes": []
      },
      {
        "channel": 2,
        "controlChanges": {
          "1": [
            {
              "number": 1,
              "ticks": 20869,
              "time": 23.501102625,
              "value": 0
            },
            {
              "number": 1,
              "ticks": 20887,
              "time": 23.521372875,
              "value": 0.10236220472440945
            },
            {
              "number": 1,
              "ticks": 20904,
              "time": 23.540516999999998,
              "value": 0.13385826771653545
            },
            {
              "number": 1,
              "ticks": 20924,
              "time": 23.563039500000002,
              "value": 0.16535433070866143
            },
            {
              "number": 1,
              "ticks": 20959,
              "time": 23.602453875000002,
              "value": 0.2047244094488189
            },
            {
              "number": 1,
              "ticks": 20993,
              "time": 23.640742125,
              "value": 0.2440944881889764
            },
            {
              "number": 1,
              "ticks": 21031,
              "time": 23.683534875,
              "value": 0.28346456692913385
            },
            {
              "number": 1,
              "ticks": 21048,
              "time": 23.702679000000003,
              "value": 0.30708661417322836
            },
            {
              "number": 1,
              "ticks": 21246,
              "time": 23.925651750000004,
              "value": 0.31496062992125984
            },
            {
              "number": 1,
              "ticks": 21264,
              "time": 23.945922,
              "value": 0.11811023622047244
            },
            {
              "number": 1,
              "ticks": 21281,
              "time": 23.965066125,
              "value": 0
            },
            {
              "number": 1,
              "ticks": 22731,
              "time": 25.597947375000004,
              "value": 0
            },
            {
              "number": 1,
              "ticks": 22749,
              "time": 25.618217625,
              "value": 0.07086614173228346
            },
            {
              "number": 1,
              "ticks": 22766,
              "time": 25.63736175,
              "value": 0.11023622047244094
            },
            {
              "number": 1,
              "ticks": 22784,
              "time": 25.657632000000003,
              "value": 0.13385826771653545
            },
            {
              "number": 1,
              "ticks": 22801,
              "time": 25.676776125,
              "value": 0.16535433070866143
            },
            {
              "number": 1,
              "ticks": 22838,
              "time": 25.71844275,
              "value": 0.2047244094488189
            },
            {
              "number": 1,
              "ticks": 22856,
              "time": 25.738713,
              "value": 0.23622047244094488
            },
            {
              "number": 1,
              "ticks": 22890,
              "time": 25.77700125,
              "value": 0.28346456692913385
            },
            {
              "number": 1,
              "ticks": 22910,
              "time": 25.79952375,
              "value": 0.30708661417322836
            },
            {
              "number": 1,
              "ticks": 23143,
              "time": 26.061910875,
              "value": 0.1889763779527559
            },
            {
              "number": 1,
              "ticks": 23160,
              "time": 26.081055,
              "value": 0
            },
            {
              "number": 1,
              "ticks": 25128,
              "time": 28.297269000000004,
              "value": 0
            },
            {
              "number": 1,
              "ticks": 25146,
              "time": 28.317539250000003,
              "value": 0.03937007874015748
            },
            {
              "number": 1,
              "ticks": 25163,
              "time": 28.336683375,
              "value": 0.07086614173228346
            },
            {
              "number": 1,
              "ticks": 25181,
              "time": 28.356953625000003,
              "value": 0.09448818897637795
            },
            {
              "number": 1,
              "ticks": 25198,
              "time": 28.37609775,
              "value": 0.12598425196850394
            },
            {
              "number": 1,
              "ticks": 25218,
              "time": 28.39862025,
              "value": 0.14173228346456693
            },
            {
              "number": 1,
              "ticks": 25235,
              "time": 28.417764375,
              "value": 0.1732283464566929
            },
            {
              "number": 1,
              "ticks": 25253,
              "time": 28.438034625,
              "value": 0.1889763779527559
            },
            {
              "number": 1,
              "ticks": 25270,
              "time": 28.45717875,
              "value": 0.2125984251968504
            },
            {
              "number": 1,
              "ticks": 25290,
              "time": 28.47970125,
              "value": 0.23622047244094488
            },
            {
              "number": 1,
              "ticks": 25307,
              "time": 28.498845375000002,
              "value": 0.2677165354330709
            },
            {
              "number": 1,
              "ticks": 25342,
              "time": 28.53825975,
              "value": 0.2992125984251969
            },
            {
              "number": 1,
              "ticks": 25610,
              "time": 28.84006125,
              "value": 0.11023622047244094
            },
            {
              "number": 1,
              "ticks": 25628,
              "time": 28.8603315,
              "value": 0
            },
            {
              "number": 1,
              "ticks": 111109,
              "time": 125.122622625,
              "value": 0
            },
            {
              "number": 1,
              "ticks": 111127,
              "time": 125.142892875,
              "value": 0.10236220472440945
            },
            {
              "number": 1,
              "ticks": 111144,
              "time": 125.16203700000001,
              "value": 0.13385826771653545
            },
            {
              "number": 1,
              "ticks": 111164,
              "time": 125.1845595,
              "value": 0.16535433070866143
            },
            {
              "number": 1,
              "ticks": 111199,
              "time": 125.223973875,
              "value": 0.2047244094488189
            },
            {
              "number": 1,
              "ticks": 111233,
              "time": 125.262262125,
              "value": 0.2440944881889764
            },
            {
              "number": 1,
              "ticks": 111271,
              "time": 125.30505487500001,
              "value": 0.28346456692913385
            },
            {
              "number": 1,
              "ticks": 111288,
              "time": 125.32419900000001,
              "value": 0.30708661417322836
            },
            {
              "number": 1,
              "ticks": 111486,
              "time": 125.54717175,
              "value": 0.31496062992125984
            },
            {
              "number": 1,
              "ticks": 111504,
              "time": 125.56744200000001,
              "value": 0.11811023622047244
            },
            {
              "number": 1,
              "ticks": 111521,
              "time": 125.58658612500001,
              "value": 0
            },
            {
              "number": 1,
              "ticks": 112971,
              "time": 127.219467375,
              "value": 0
            },
            {
              "number": 1,
              "ticks": 112989,
              "time": 127.23973762500002,
              "value": 0.07086614173228346
            },
            {
              "number": 1,
              "ticks": 113006,
              "time": 127.25888175000001,
              "value": 0.11023622047244094
            },
            {
              "number": 1,
              "ticks": 113024,
              "time": 127.27915200000001,
              "value": 0.13385826771653545
            },
            {
              "number": 1,
              "ticks": 113041,
              "time": 127.29829612500001,
              "value": 0.16535433070866143
            },
            {
              "number": 1,
              "ticks": 113078,
              "time": 127.33996275000001,
              "value": 0.2047244094488189
            },
            {
              "number": 1,
              "ticks": 113096,
              "time": 127.36023300000001,
              "value": 0.23622047244094488
            },
            {
              "number": 1,
              "ticks": 113130,
              "time": 127.39852125,
              "value": 0.28346456692913385
            },
            {
              "number": 1,
              "ticks": 113150,
              "time": 127.42104375,
              "value": 0.30708661417322836
            },
            {
              "number": 1,
              "ticks": 113383,
              "time": 127.68343087500001,
              "value": 0.1889763779527559
            },
            {
              "number": 1,
              "ticks": 113400,
              "time": 127.70257500000001,
              "value": 0
            },
            {
              "number": 1,
              "ticks": 115368,
              "time": 129.918789,
              "value": 0
            },
            {
              "number": 1,
              "ticks": 115386,
              "time": 129.93905924999999,
              "value": 0.03937007874015748
            },
            {
              "number": 1,
              "ticks": 115403,
              "time": 129.958203375,
              "value": 0.07086614173228346
            },
            {
              "number": 1,
              "ticks": 115421,
              "time": 129.97847362500002,
              "value": 0.09448818897637795
            },
            {
              "number": 1,
              "ticks": 115438,
              "time": 129.99761775000002,
              "value": 0.12598425196850394
            },
            {
              "number": 1,
              "ticks": 115458,
              "time": 130.02014025,
              "value": 0.14173228346456693
            },
            {
              "number": 1,
              "ticks": 115475,
              "time": 130.039284375,
              "value": 0.1732283464566929
            },
            {
              "number": 1,
              "ticks": 115493,
              "time": 130.059554625,
              "value": 0.1889763779527559
            },
            {
              "number": 1,
              "ticks": 115510,
              "time": 130.07869875,
              "value": 0.2125984251968504
            },
            {
              "number": 1,
              "ticks": 115530,
              "time": 130.10122125,
              "value": 0.23622047244094488
            },
            {
              "number": 1,
              "ticks": 115547,
              "time": 130.120365375,
              "value": 0.2677165354330709
            },
            {
              "number": 1,
              "ticks": 115582,
              "time": 130.15977974999998,
              "value": 0.2992125984251969
            },
            {
              "number": 1,
              "ticks": 115850,
              "time": 130.46158125,
              "value": 0.11023622047244094
            },
            {
              "number": 1,
              "ticks": 115868,
              "time": 130.4818515,
              "value": 0
            },
            {
              "number": 1,
              "ticks": 209029,
              "time": 235.392782625,
              "value": 0
            },
            {
              "number": 1,
              "ticks": 209047,
              "time": 235.413052875,
              "value": 0.10236220472440945
            },
            {
              "number": 1,
              "ticks": 209064,
              "time": 235.432197,
              "value": 0.13385826771653545
            },
            {
              "number": 1,
              "ticks": 209084,
              "time": 235.45471949999998,
              "value": 0.16535433070866143
            },
            {
              "number": 1,
              "ticks": 209119,
              "time": 235.49413387500002,
              "value": 0.2047244094488189
            },
            {
              "number": 1,
              "ticks": 209153,
              "time": 235.532422125,
              "value": 0.2440944881889764
            },
            {
              "number": 1,
              "ticks": 209191,
              "time": 235.57521487500003,
              "value": 0.28346456692913385
            },
            {
              "number": 1,
              "ticks": 209208,
              "time": 235.59435900000003,
              "value": 0.30708661417322836
            },
            {
              "number": 1,
              "ticks": 209406,
              "time": 235.81733175,
              "value": 0.31496062992125984
            },
            {
              "number": 1,
              "ticks": 209424,
              "time": 235.837602,
              "value": 0.11811023622047244
            },
            {
              "number": 1,
              "ticks": 209441,
              "time": 235.856746125,
              "value": 0
            },
            {
              "number": 1,
              "ticks": 210891,
              "time": 237.489627375,
              "value": 0
            },
            {
              "number": 1,
              "ticks": 210909,
              "time": 237.509897625,
              "value": 0.07086614173228346
            },
            {
              "number": 1,
              "ticks": 210926,
              "time": 237.52904175,
              "value": 0.11023622047244094
            },
            {
              "number": 1,
              "ticks": 210944,
              "time": 237.549312,
              "value": 0.13385826771653545
            },
            {
              "number": 1,
              "ticks": 210961,
              "time": 237.568456125,
              "value": 0.16535433070866143
            },
            {
              "number": 1,
              "ticks": 210998,
              "time": 237.61012275,
              "value": 0.2047244094488189
            },
            {
              "number": 1,
              "ticks": 211016,
              "time": 237.63039300000003,
              "value": 0.23622047244094488
            },
            {
              "number": 1,
              "ticks": 211050,
              "time": 237.66868125000002,
              "value": 0.28346456692913385
            },
            {
              "number": 1,
              "ticks": 211070,
              "time": 237.69120375000003,
              "value": 0.30708661417322836
            },
            {
              "number": 1,
              "ticks": 211303,
              "time": 237.953590875,
              "value": 0.1889763779527559
            },
            {
              "number": 1,
              "ticks": 211320,
              "time": 237.972735,
              "value": 0
            },
            {
              "number": 1,
              "ticks": 213328,
              "time": 240.23399400000002,
              "value": 0
            },
            {
              "number": 1,
              "ticks": 213346,
              "time": 240.25426425000003,
              "value": 0.03937007874015748
            },
            {
              "number": 1,
              "ticks": 213363,
              "time": 240.27340837500003,
              "value": 0.07086614173228346
            },
            {
              "number": 1,
              "ticks": 213381,
              "time": 240.293678625,
              "value": 0.09448818897637795
            },
            {
              "number": 1,
              "ticks": 213398,
              "time": 240.31282275,
              "value": 0.12598425196850394
            },
            {
              "number": 1,
              "ticks": 213418,
              "time": 240.33534525000002,
              "value": 0.14173228346456693
            },
            {
              "number": 1,
              "ticks": 213435,
              "time": 240.354489375,
              "value": 0.1732283464566929
            },
            {
              "number": 1,
              "ticks": 213453,
              "time": 240.37475962500002,
              "value": 0.1889763779527559
            },
            {
              "number": 1,
              "ticks": 213470,
              "time": 240.39390375000002,
              "value": 0.2125984251968504
            },
            {
              "number": 1,
              "ticks": 213490,
              "time": 240.41642625,
              "value": 0.23622047244094488
            },
            {
              "number": 1,
              "ticks": 213507,
              "time": 240.435570375,
              "value": 0.2677165354330709
            },
            {
              "number": 1,
              "ticks": 213542,
              "time": 240.47498475,
              "value": 0.2992125984251969
            },
            {
              "number": 1,
              "ticks": 213770,
              "time": 240.73174125000003,
              "value": 0.11023622047244094
            },
            {
              "number": 1,
              "ticks": 213788,
              "time": 240.7520115,
              "value": 0
            }
          ],
          "6": [
            {
              "number": 6,
              "ticks": 730,
              "time": 0.82207125,
              "value": 0.015748031496062992
            }
          ],
          "7": [
            {
              "number": 7,
              "ticks": 690,
              "time": 0.77702625,
              "value": 0.952755905511811
            },
            {
              "number": 7,
              "ticks": 17510,
              "time": 19.71844875,
              "value": 0.9921259842519685
            },
            {
              "number": 7,
              "ticks": 19230,
              "time": 21.655383750000002,
              "value": 0.952755905511811
            },
            {
              "number": 7,
              "ticks": 67675,
              "time": 76.21050937500002,
              "value": 0.9921259842519685
            },
            {
              "number": 7,
              "ticks": 69405,
              "time": 78.158705625,
              "value": 0.952755905511811
            },
            {
              "number": 7,
              "ticks": 107750,
              "time": 121.33996875,
              "value": 0.9921259842519685
            },
            {
              "number": 7,
              "ticks": 109470,
              "time": 123.27690375,
              "value": 0.952755905511811
            },
            {
              "number": 7,
              "ticks": 157915,
              "time": 177.832029375,
              "value": 0.9921259842519685
            },
            {
              "number": 7,
              "ticks": 159645,
              "time": 179.780225625,
              "value": 0.952755905511811
            },
            {
              "number": 7,
              "ticks": 182685,
              "time": 205.72614562500002,
              "value": 0.952755905511811
            },
            {
              "number": 7,
              "ticks": 207390,
              "time": 233.54706375,
              "value": 0.952755905511811
            }
          ],
          "10": [
            {
              "number": 10,
              "ticks": 690,
              "time": 0.77702625,
              "value": 0.4251968503937008
            }
          ],
          "11": [
            {
              "number": 11,
              "ticks": 17510,
              "time": 19.71844875,
              "value": 0.8661417322834646
            },
            {
              "number": 11,
              "ticks": 17525,
              "time": 19.735340625,
              "value": 0.8346456692913385
            },
            {
              "number": 11,
              "ticks": 17540,
              "time": 19.752232499999998,
              "value": 0.8031496062992126
            },
            {
              "number": 11,
              "ticks": 17555,
              "time": 19.769124375,
              "value": 0.7637795275590551
            },
            {
              "number": 11,
              "ticks": 17570,
              "time": 19.78601625,
              "value": 0.7322834645669292
            },
            {
              "number": 11,
              "ticks": 17585,
              "time": 19.802908125,
              "value": 0.7086614173228346
            },
            {
              "number": 11,
              "ticks": 17600,
              "time": 19.8198,
              "value": 0.6771653543307087
            },
            {
              "number": 11,
              "ticks": 17615,
              "time": 19.836691875,
              "value": 0.6456692913385826
            },
            {
              "number": 11,
              "ticks": 17630,
              "time": 19.85358375,
              "value": 0.6220472440944882
            },
            {
              "number": 11,
              "ticks": 17645,
              "time": 19.870475625,
              "value": 0.5984251968503937
            },
            {
              "number": 11,
              "ticks": 17660,
              "time": 19.8873675,
              "value": 0.5669291338582677
            },
            {
              "number": 11,
              "ticks": 17675,
              "time": 19.904259375,
              "value": 0.5433070866141733
            },
            {
              "number": 11,
              "ticks": 17690,
              "time": 19.92115125,
              "value": 0.5196850393700787
            },
            {
              "number": 11,
              "ticks": 17705,
              "time": 19.938043125,
              "value": 0.49606299212598426
            },
            {
              "number": 11,
              "ticks": 17720,
              "time": 19.954935,
              "value": 0.48031496062992124
            },
            {
              "number": 11,
              "ticks": 17735,
              "time": 19.971826874999998,
              "value": 0.4566929133858268
            },
            {
              "number": 11,
              "ticks": 17749,
              "time": 19.987592625,
              "value": 0.4330708661417323
            },
            {
              "number": 11,
              "ticks": 18130,
              "time": 20.416646250000003,
              "value": 0.4330708661417323
            },
            {
              "number": 11,
              "ticks": 18145,
              "time": 20.433538125000002,
              "value": 0.4409448818897638
            },
            {
              "number": 11,
              "ticks": 18160,
              "time": 20.45043,
              "value": 0.4566929133858268
            },
            {
              "number": 11,
              "ticks": 18175,
              "time": 20.467321875000003,
              "value": 0.47244094488188976
            },
            {
              "number": 11,
              "ticks": 18190,
              "time": 20.484213750000002,
              "value": 0.4881889763779528
            },
            {
              "number": 11,
              "ticks": 18205,
              "time": 20.501105625,
              "value": 0.5039370078740157
            },
            {
              "number": 11,
              "ticks": 18220,
              "time": 20.517997500000003,
              "value": 0.5196850393700787
            },
            {
              "number": 11,
              "ticks": 18235,
              "time": 20.534889375000002,
              "value": 0.5354330708661418
            },
            {
              "number": 11,
              "ticks": 18250,
              "time": 20.55178125,
              "value": 0.5433070866141733
            },
            {
              "number": 11,
              "ticks": 18265,
              "time": 20.568673125000004,
              "value": 0.5590551181102362
            },
            {
              "number": 11,
              "ticks": 18280,
              "time": 20.585565000000003,
              "value": 0.5748031496062992
            },
            {
              "number": 11,
              "ticks": 18295,
              "time": 20.602456875,
              "value": 0.5905511811023622
            },
            {
              "number": 11,
              "ticks": 18310,
              "time": 20.61934875,
              "value": 0.5984251968503937
            },
            {
              "number": 11,
              "ticks": 18325,
              "time": 20.636240625000003,
              "value": 0.6141732283464567
            },
            {
              "number": 11,
              "ticks": 18340,
              "time": 20.6531325,
              "value": 0.6299212598425197
            },
            {
              "number": 11,
              "ticks": 18355,
              "time": 20.670024375,
              "value": 0.6377952755905512
            },
            {
              "number": 11,
              "ticks": 18370,
              "time": 20.686916250000003,
              "value": 0.6535433070866141
            },
            {
              "number": 11,
              "ticks": 18385,
              "time": 20.703808125000002,
              "value": 0.6614173228346457
            },
            {
              "number": 11,
              "ticks": 18400,
              "time": 20.7207,
              "value": 0.6771653543307087
            },
            {
              "number": 11,
              "ticks": 18415,
              "time": 20.737591875000003,
              "value": 0.6850393700787402
            },
            {
              "number": 11,
              "ticks": 18430,
              "time": 20.754483750000002,
              "value": 0.7007874015748031
            },
            {
              "number": 11,
              "ticks": 18445,
              "time": 20.771375625,
              "value": 0.7165354330708661
            },
            {
              "number": 11,
              "ticks": 18460,
              "time": 20.788267500000003,
              "value": 0.7244094488188977
            },
            {
              "number": 11,
              "ticks": 18475,
              "time": 20.805159375000002,
              "value": 0.7322834645669292
            },
            {
              "number": 11,
              "ticks": 18490,
              "time": 20.82205125,
              "value": 0.7480314960629921
            },
            {
              "number": 11,
              "ticks": 18505,
              "time": 20.838943125000004,
              "value": 0.7559055118110236
            },
            {
              "number": 11,
              "ticks": 18520,
              "time": 20.855835000000003,
              "value": 0.7716535433070866
            },
            {
              "number": 11,
              "ticks": 18535,
              "time": 20.872726875,
              "value": 0.7795275590551181
            },
            {
              "number": 11,
              "ticks": 18550,
              "time": 20.88961875,
              "value": 0.7952755905511811
            },
            {
              "number": 11,
              "ticks": 18565,
              "time": 20.906510625000003,
              "value": 0.8031496062992126
            },
            {
              "number": 11,
              "ticks": 18580,
              "time": 20.9234025,
              "value": 0.8110236220472441
            },
            {
              "number": 11,
              "ticks": 18595,
              "time": 20.940294375,
              "value": 0.8267716535433071
            },
            {
              "number": 11,
              "ticks": 18610,
              "time": 20.957186250000003,
              "value": 0.8346456692913385
            },
            {
              "number": 11,
              "ticks": 18625,
              "time": 20.974078125000002,
              "value": 0.84251968503937
            },
            {
              "number": 11,
              "ticks": 18640,
              "time": 20.99097,
              "value": 0.8503937007874016
            },
            {
              "number": 11,
              "ticks": 18655,
              "time": 21.007861875000003,
              "value": 0.8661417322834646
            },
            {
              "number": 11,
              "ticks": 18670,
              "time": 21.024753750000002,
              "value": 0.8740157480314961
            },
            {
              "number": 11,
              "ticks": 18685,
              "time": 21.041645625,
              "value": 0.8818897637795275
            },
            {
              "number": 11,
              "ticks": 18700,
              "time": 21.058537500000003,
              "value": 0.8976377952755905
            },
            {
              "number": 11,
              "ticks": 18715,
              "time": 21.075429375000002,
              "value": 0.905511811023622
            },
            {
              "number": 11,
              "ticks": 18730,
              "time": 21.09232125,
              "value": 0.9133858267716536
            },
            {
              "number": 11,
              "ticks": 18745,
              "time": 21.109213125000004,
              "value": 0.9212598425196851
            },
            {
              "number": 11,
              "ticks": 18760,
              "time": 21.126105000000003,
              "value": 0.9291338582677166
            },
            {
              "number": 11,
              "ticks": 18775,
              "time": 21.142996875,
              "value": 0.937007874015748
            },
            {
              "number": 11,
              "ticks": 18790,
              "time": 21.15988875,
              "value": 0.952755905511811
            },
            {
              "number": 11,
              "ticks": 18805,
              "time": 21.176780625000003,
              "value": 0.9606299212598425
            },
            {
              "number": 11,
              "ticks": 18820,
              "time": 21.1936725,
              "value": 0.968503937007874
            },
            {
              "number": 11,
              "ticks": 18835,
              "time": 21.210564375,
              "value": 0.9763779527559056
            },
            {
              "number": 11,
              "ticks": 18850,
              "time": 21.227456250000003,
              "value": 0.984251968503937
            },
            {
              "number": 11,
              "ticks": 18865,
              "time": 21.244348125000002,
              "value": 0.9921259842519685
            },
            {
              "number": 11,
              "ticks": 18869,
              "time": 21.248852625,
              "value": 1
            },
            {
              "number": 11,
              "ticks": 67775,
              "time": 76.323121875,
              "value": 0.8661417322834646
            },
            {
              "number": 11,
              "ticks": 67790,
              "time": 76.34001375,
              "value": 0.8346456692913385
            },
            {
              "number": 11,
              "ticks": 67805,
              "time": 76.356905625,
              "value": 0.8031496062992126
            },
            {
              "number": 11,
              "ticks": 67820,
              "time": 76.3737975,
              "value": 0.7637795275590551
            },
            {
              "number": 11,
              "ticks": 67835,
              "time": 76.390689375,
              "value": 0.7322834645669292
            },
            {
              "number": 11,
              "ticks": 67850,
              "time": 76.40758124999999,
              "value": 0.7086614173228346
            },
            {
              "number": 11,
              "ticks": 67865,
              "time": 76.42447312499999,
              "value": 0.6771653543307087
            },
            {
              "number": 11,
              "ticks": 67880,
              "time": 76.441365,
              "value": 0.6456692913385826
            },
            {
              "number": 11,
              "ticks": 67895,
              "time": 76.458256875,
              "value": 0.6220472440944882
            },
            {
              "number": 11,
              "ticks": 67910,
              "time": 76.47514875,
              "value": 0.5984251968503937
            },
            {
              "number": 11,
              "ticks": 67925,
              "time": 76.492040625,
              "value": 0.5669291338582677
            },
            {
              "number": 11,
              "ticks": 67940,
              "time": 76.5089325,
              "value": 0.5433070866141733
            },
            {
              "number": 11,
              "ticks": 67955,
              "time": 76.525824375,
              "value": 0.5196850393700787
            },
            {
              "number": 11,
              "ticks": 67970,
              "time": 76.54271625,
              "value": 0.49606299212598426
            },
            {
              "number": 11,
              "ticks": 67985,
              "time": 76.559608125,
              "value": 0.48031496062992124
            },
            {
              "number": 11,
              "ticks": 68000,
              "time": 76.5765,
              "value": 0.4566929133858268
            },
            {
              "number": 11,
              "ticks": 68014,
              "time": 76.59226575,
              "value": 0.4330708661417323
            },
            {
              "number": 11,
              "ticks": 68295,
              "time": 76.90870687500001,
              "value": 0.4330708661417323
            },
            {
              "number": 11,
              "ticks": 68310,
              "time": 76.92559875,
              "value": 0.4409448818897638
            },
            {
              "number": 11,
              "ticks": 68325,
              "time": 76.942490625,
              "value": 0.4566929133858268
            },
            {
              "number": 11,
              "ticks": 68340,
              "time": 76.9593825,
              "value": 0.47244094488188976
            },
            {
              "number": 11,
              "ticks": 68355,
              "time": 76.976274375,
              "value": 0.4881889763779528
            },
            {
              "number": 11,
              "ticks": 68370,
              "time": 76.99316625,
              "value": 0.5039370078740157
            },
            {
              "number": 11,
              "ticks": 68385,
              "time": 77.010058125,
              "value": 0.5196850393700787
            },
            {
              "number": 11,
              "ticks": 68400,
              "time": 77.02695,
              "value": 0.5354330708661418
            },
            {
              "number": 11,
              "ticks": 68415,
              "time": 77.043841875,
              "value": 0.5433070866141733
            },
            {
              "number": 11,
              "ticks": 68430,
              "time": 77.06073375,
              "value": 0.5590551181102362
            },
            {
              "number": 11,
              "ticks": 68445,
              "time": 77.077625625,
              "value": 0.5748031496062992
            },
            {
              "number": 11,
              "ticks": 68460,
              "time": 77.09451750000001,
              "value": 0.5905511811023622
            },
            {
              "number": 11,
              "ticks": 68475,
              "time": 77.11140937500001,
              "value": 0.5984251968503937
            },
            {
              "number": 11,
              "ticks": 68490,
              "time": 77.12830125,
              "value": 0.6141732283464567
            },
            {
              "number": 11,
              "ticks": 68505,
              "time": 77.145193125,
              "value": 0.6299212598425197
            },
            {
              "number": 11,
              "ticks": 68520,
              "time": 77.162085,
              "value": 0.6377952755905512
            },
            {
              "number": 11,
              "ticks": 68535,
              "time": 77.178976875,
              "value": 0.6535433070866141
            },
            {
              "number": 11,
              "ticks": 68550,
              "time": 77.19586875,
              "value": 0.6614173228346457
            },
            {
              "number": 11,
              "ticks": 68565,
              "time": 77.212760625,
              "value": 0.6771653543307087
            },
            {
              "number": 11,
              "ticks": 68580,
              "time": 77.2296525,
              "value": 0.6850393700787402
            },
            {
              "number": 11,
              "ticks": 68595,
              "time": 77.246544375,
              "value": 0.7007874015748031
            },
            {
              "number": 11,
              "ticks": 68610,
              "time": 77.26343625,
              "value": 0.7165354330708661
            },
            {
              "number": 11,
              "ticks": 68625,
              "time": 77.280328125,
              "value": 0.7244094488188977
            },
            {
              "number": 11,
              "ticks": 68640,
              "time": 77.29722000000001,
              "value": 0.7322834645669292
            },
            {
              "number": 11,
              "ticks": 68655,
              "time": 77.31411187500001,
              "value": 0.7480314960629921
            },
            {
              "number": 11,
              "ticks": 68670,
              "time": 77.33100375000001,
              "value": 0.7559055118110236
            },
            {
              "number": 11,
              "ticks": 68685,
              "time": 77.347895625,
              "value": 0.7716535433070866
            },
            {
              "number": 11,
              "ticks": 68700,
              "time": 77.3647875,
              "value": 0.7795275590551181
            },
            {
              "number": 11,
              "ticks": 68715,
              "time": 77.381679375,
              "value": 0.7952755905511811
            },
            {
              "number": 11,
              "ticks": 68730,
              "time": 77.39857125,
              "value": 0.8031496062992126
            },
            {
              "number": 11,
              "ticks": 68745,
              "time": 77.415463125,
              "value": 0.8110236220472441
            },
            {
              "number": 11,
              "ticks": 68760,
              "time": 77.432355,
              "value": 0.8267716535433071
            },
            {
              "number": 11,
              "ticks": 68775,
              "time": 77.449246875,
              "value": 0.8346456692913385
            },
            {
              "number": 11,
              "ticks": 68790,
              "time": 77.46613875,
              "value": 0.84251968503937
            },
            {
              "number": 11,
              "ticks": 68805,
              "time": 77.483030625,
              "value": 0.8503937007874016
            },
            {
              "number": 11,
              "ticks": 68820,
              "time": 77.4999225,
              "value": 0.8661417322834646
            },
            {
              "number": 11,
              "ticks": 68835,
              "time": 77.51681437500001,
              "value": 0.8740157480314961
            },
            {
              "number": 11,
              "ticks": 68850,
              "time": 77.53370625000001,
              "value": 0.8818897637795275
            },
            {
              "number": 11,
              "ticks": 68865,
              "time": 77.55059812500001,
              "value": 0.8976377952755905
            },
            {
              "number": 11,
              "ticks": 68880,
              "time": 77.56749,
              "value": 0.905511811023622
            },
            {
              "number": 11,
              "ticks": 68895,
              "time": 77.584381875,
              "value": 0.9133858267716536
            },
            {
              "number": 11,
              "ticks": 68910,
              "time": 77.60127375,
              "value": 0.9212598425196851
            },
            {
              "number": 11,
              "ticks": 68925,
              "time": 77.618165625,
              "value": 0.9291338582677166
            },
            {
              "number": 11,
              "ticks": 68940,
              "time": 77.6350575,
              "value": 0.937007874015748
            },
            {
              "number": 11,
              "ticks": 68955,
              "time": 77.651949375,
              "value": 0.952755905511811
            },
            {
              "number": 11,
              "ticks": 68970,
              "time": 77.66884125,
              "value": 0.9606299212598425
            },
            {
              "number": 11,
              "ticks": 68985,
              "time": 77.685733125,
              "value": 0.968503937007874
            },
            {
              "number": 11,
              "ticks": 69000,
              "time": 77.702625,
              "value": 0.9763779527559056
            },
            {
              "number": 11,
              "ticks": 69015,
              "time": 77.719516875,
              "value": 0.984251968503937
            },
            {
              "number": 11,
              "ticks": 69030,
              "time": 77.73640875000001,
              "value": 0.9921259842519685
            },
            {
              "number": 11,
              "ticks": 75070,
              "time": 84.53820375000001,
              "value": 0.7874015748031497
            },
            {
              "number": 11,
              "ticks": 75085,
              "time": 84.555095625,
              "value": 0.7795275590551181
            },
            {
              "number": 11,
              "ticks": 75100,
              "time": 84.5719875,
              "value": 0.7716535433070866
            },
            {
              "number": 11,
              "ticks": 75115,
              "time": 84.588879375,
              "value": 0.7637795275590551
            },
            {
              "number": 11,
              "ticks": 75130,
              "time": 84.60577125,
              "value": 0.7559055118110236
            },
            {
              "number": 11,
              "ticks": 75145,
              "time": 84.622663125,
              "value": 0.7480314960629921
            },
            {
              "number": 11,
              "ticks": 75160,
              "time": 84.639555,
              "value": 0.7401574803149606
            },
            {
              "number": 11,
              "ticks": 75175,
              "time": 84.65644687500001,
              "value": 0.7322834645669292
            },
            {
              "number": 11,
              "ticks": 75190,
              "time": 84.67333875000001,
              "value": 0.7244094488188977
            },
            {
              "number": 11,
              "ticks": 75205,
              "time": 84.69023062500001,
              "value": 0.7165354330708661
            },
            {
              "number": 11,
              "ticks": 75220,
              "time": 84.70712250000001,
              "value": 0.7086614173228346
            },
            {
              "number": 11,
              "ticks": 75235,
              "time": 84.72401437500001,
              "value": 0.7007874015748031
            },
            {
              "number": 11,
              "ticks": 75250,
              "time": 84.74090625000001,
              "value": 0.6929133858267716
            },
            {
              "number": 11,
              "ticks": 75265,
              "time": 84.75779812500001,
              "value": 0.6850393700787402
            },
            {
              "number": 11,
              "ticks": 75280,
              "time": 84.77469,
              "value": 0.6771653543307087
            },
            {
              "number": 11,
              "ticks": 75295,
              "time": 84.791581875,
              "value": 0.6692913385826772
            },
            {
              "number": 11,
              "ticks": 75310,
              "time": 84.80847375,
              "value": 0.6614173228346457
            },
            {
              "number": 11,
              "ticks": 75325,
              "time": 84.825365625,
              "value": 0.6535433070866141
            },
            {
              "number": 11,
              "ticks": 75340,
              "time": 84.8422575,
              "value": 0.6456692913385826
            },
            {
              "number": 11,
              "ticks": 75355,
              "time": 84.85914937500002,
              "value": 0.6377952755905512
            },
            {
              "number": 11,
              "ticks": 75370,
              "time": 84.87604125000001,
              "value": 0.6299212598425197
            },
            {
              "number": 11,
              "ticks": 75385,
              "time": 84.89293312500001,
              "value": 0.6220472440944882
            },
            {
              "number": 11,
              "ticks": 75400,
              "time": 84.90982500000001,
              "value": 0.6141732283464567
            },
            {
              "number": 11,
              "ticks": 75415,
              "time": 84.92671687500001,
              "value": 0.6062992125984252
            },
            {
              "number": 11,
              "ticks": 75430,
              "time": 84.94360875000001,
              "value": 0.5984251968503937
            },
            {
              "number": 11,
              "ticks": 75445,
              "time": 84.96050062500001,
              "value": 0.5826771653543307
            },
            {
              "number": 11,
              "ticks": 75460,
              "time": 84.97739250000001,
              "value": 0.5748031496062992
            },
            {
              "number": 11,
              "ticks": 75475,
              "time": 84.994284375,
              "value": 0.5669291338582677
            },
            {
              "number": 11,
              "ticks": 75490,
              "time": 85.01117625,
              "value": 0.5590551181102362
            },
            {
              "number": 11,
              "ticks": 75505,
              "time": 85.028068125,
              "value": 0.5511811023622047
            },
            {
              "number": 11,
              "ticks": 75520,
              "time": 85.04496,
              "value": 0.5433070866141733
            },
            {
              "number": 11,
              "ticks": 75535,
              "time": 85.061851875,
              "value": 0.5354330708661418
            },
            {
              "number": 11,
              "ticks": 75550,
              "time": 85.07874375000002,
              "value": 0.5275590551181102
            },
            {
              "number": 11,
              "ticks": 75565,
              "time": 85.09563562500001,
              "value": 0.5196850393700787
            },
            {
              "number": 11,
              "ticks": 75580,
              "time": 85.11252750000001,
              "value": 0.5118110236220472
            },
            {
              "number": 11,
              "ticks": 75589,
              "time": 85.122662625,
              "value": 0.5039370078740157
            },
            {
              "number": 11,
              "ticks": 75660,
              "time": 85.2026175,
              "value": 0.5511811023622047
            },
            {
              "number": 11,
              "ticks": 75675,
              "time": 85.219509375,
              "value": 0.5669291338582677
            },
            {
              "number": 11,
              "ticks": 75690,
              "time": 85.23640125,
              "value": 0.5905511811023622
            },
            {
              "number": 11,
              "ticks": 75705,
              "time": 85.253293125,
              "value": 0.6141732283464567
            },
            {
              "number": 11,
              "ticks": 75720,
              "time": 85.270185,
              "value": 0.6377952755905512
            },
            {
              "number": 11,
              "ticks": 75735,
              "time": 85.287076875,
              "value": 0.6535433070866141
            },
            {
              "number": 11,
              "ticks": 75750,
              "time": 85.30396875000001,
              "value": 0.6771653543307087
            },
            {
              "number": 11,
              "ticks": 75765,
              "time": 85.32086062500001,
              "value": 0.7007874015748031
            },
            {
              "number": 11,
              "ticks": 75780,
              "time": 85.33775250000001,
              "value": 0.7244094488188977
            },
            {
              "number": 11,
              "ticks": 75795,
              "time": 85.354644375,
              "value": 0.7401574803149606
            },
            {
              "number": 11,
              "ticks": 75810,
              "time": 85.37153625,
              "value": 0.7637795275590551
            },
            {
              "number": 11,
              "ticks": 75825,
              "time": 85.388428125,
              "value": 0.7874015748031497
            },
            {
              "number": 11,
              "ticks": 75840,
              "time": 85.40532,
              "value": 0.8110236220472441
            },
            {
              "number": 11,
              "ticks": 75855,
              "time": 85.422211875,
              "value": 0.8267716535433071
            },
            {
              "number": 11,
              "ticks": 75870,
              "time": 85.43910375,
              "value": 0.8503937007874016
            },
            {
              "number": 11,
              "ticks": 75885,
              "time": 85.455995625,
              "value": 0.8740157480314961
            },
            {
              "number": 11,
              "ticks": 75900,
              "time": 85.4728875,
              "value": 0.8976377952755905
            },
            {
              "number": 11,
              "ticks": 75915,
              "time": 85.489779375,
              "value": 0.9212598425196851
            },
            {
              "number": 11,
              "ticks": 75930,
              "time": 85.50667125,
              "value": 0.937007874015748
            },
            {
              "number": 11,
              "ticks": 75945,
              "time": 85.52356312500001,
              "value": 0.9606299212598425
            },
            {
              "number": 11,
              "ticks": 75960,
              "time": 85.54045500000001,
              "value": 0.984251968503937
            },
            {
              "number": 11,
              "ticks": 75969,
              "time": 85.55059012500001,
              "value": 1
            },
            {
              "number": 11,
              "ticks": 107750,
              "time": 121.33996875,
              "value": 0.8661417322834646
            },
            {
              "number": 11,
              "ticks": 107765,
              "time": 121.356860625,
              "value": 0.8346456692913385
            },
            {
              "number": 11,
              "ticks": 107780,
              "time": 121.3737525,
              "value": 0.8031496062992126
            },
            {
              "number": 11,
              "ticks": 107795,
              "time": 121.390644375,
              "value": 0.7637795275590551
            },
            {
              "number": 11,
              "ticks": 107810,
              "time": 121.40753624999999,
              "value": 0.7322834645669292
            },
            {
              "number": 11,
              "ticks": 107825,
              "time": 121.424428125,
              "value": 0.7086614173228346
            },
            {
              "number": 11,
              "ticks": 107840,
              "time": 121.44132,
              "value": 0.6771653543307087
            },
            {
              "number": 11,
              "ticks": 107855,
              "time": 121.458211875,
              "value": 0.6456692913385826
            },
            {
              "number": 11,
              "ticks": 107870,
              "time": 121.47510375,
              "value": 0.6220472440944882
            },
            {
              "number": 11,
              "ticks": 107885,
              "time": 121.491995625,
              "value": 0.5984251968503937
            },
            {
              "number": 11,
              "ticks": 107900,
              "time": 121.5088875,
              "value": 0.5669291338582677
            },
            {
              "number": 11,
              "ticks": 107915,
              "time": 121.525779375,
              "value": 0.5433070866141733
            },
            {
              "number": 11,
              "ticks": 107930,
              "time": 121.54267125,
              "value": 0.5196850393700787
            },
            {
              "number": 11,
              "ticks": 107945,
              "time": 121.559563125,
              "value": 0.49606299212598426
            },
            {
              "number": 11,
              "ticks": 107960,
              "time": 121.576455,
              "value": 0.48031496062992124
            },
            {
              "number": 11,
              "ticks": 107975,
              "time": 121.593346875,
              "value": 0.4566929133858268
            },
            {
              "number": 11,
              "ticks": 107989,
              "time": 121.609112625,
              "value": 0.4330708661417323
            },
            {
              "number": 11,
              "ticks": 108370,
              "time": 122.03816625,
              "value": 0.4330708661417323
            },
            {
              "number": 11,
              "ticks": 108385,
              "time": 122.05505812500002,
              "value": 0.4409448818897638
            },
            {
              "number": 11,
              "ticks": 108400,
              "time": 122.07195000000002,
              "value": 0.4566929133858268
            },
            {
              "number": 11,
              "ticks": 108415,
              "time": 122.08884187500001,
              "value": 0.47244094488188976
            },
            {
              "number": 11,
              "ticks": 108430,
              "time": 122.10573375000001,
              "value": 0.4881889763779528
            },
            {
              "number": 11,
              "ticks": 108445,
              "time": 122.12262562500001,
              "value": 0.5039370078740157
            },
            {
              "number": 11,
              "ticks": 108460,
              "time": 122.13951750000001,
              "value": 0.5196850393700787
            },
            {
              "number": 11,
              "ticks": 108475,
              "time": 122.15640937500001,
              "value": 0.5354330708661418
            },
            {
              "number": 11,
              "ticks": 108490,
              "time": 122.17330125000001,
              "value": 0.5433070866141733
            },
            {
              "number": 11,
              "ticks": 108505,
              "time": 122.19019312500001,
              "value": 0.5590551181102362
            },
            {
              "number": 11,
              "ticks": 108520,
              "time": 122.207085,
              "value": 0.5748031496062992
            },
            {
              "number": 11,
              "ticks": 108535,
              "time": 122.223976875,
              "value": 0.5905511811023622
            },
            {
              "number": 11,
              "ticks": 108550,
              "time": 122.24086875,
              "value": 0.5984251968503937
            },
            {
              "number": 11,
              "ticks": 108565,
              "time": 122.257760625,
              "value": 0.6141732283464567
            },
            {
              "number": 11,
              "ticks": 108580,
              "time": 122.27465250000002,
              "value": 0.6299212598425197
            },
            {
              "number": 11,
              "ticks": 108595,
              "time": 122.29154437500002,
              "value": 0.6377952755905512
            },
            {
              "number": 11,
              "ticks": 108610,
              "time": 122.30843625000001,
              "value": 0.6535433070866141
            },
            {
              "number": 11,
              "ticks": 108625,
              "time": 122.32532812500001,
              "value": 0.6614173228346457
            },
            {
              "number": 11,
              "ticks": 108640,
              "time": 122.34222000000001,
              "value": 0.6771653543307087
            },
            {
              "number": 11,
              "ticks": 108655,
              "time": 122.35911187500001,
              "value": 0.6850393700787402
            },
            {
              "number": 11,
              "ticks": 108670,
              "time": 122.37600375000001,
              "value": 0.7007874015748031
            },
            {
              "number": 11,
              "ticks": 108685,
              "time": 122.39289562500001,
              "value": 0.7165354330708661
            },
            {
              "number": 11,
              "ticks": 108700,
              "time": 122.40978750000001,
              "value": 0.7244094488188977
            },
            {
              "number": 11,
              "ticks": 108715,
              "time": 122.426679375,
              "value": 0.7322834645669292
            },
            {
              "number": 11,
              "ticks": 108730,
              "time": 122.44357125,
              "value": 0.7480314960629921
            },
            {
              "number": 11,
              "ticks": 108745,
              "time": 122.460463125,
              "value": 0.7559055118110236
            },
            {
              "number": 11,
              "ticks": 108760,
              "time": 122.477355,
              "value": 0.7716535433070866
            },
            {
              "number": 11,
              "ticks": 108775,
              "time": 122.49424687500002,
              "value": 0.7795275590551181
            },
            {
              "number": 11,
              "ticks": 108790,
              "time": 122.51113875000001,
              "value": 0.7952755905511811
            },
            {
              "number": 11,
              "ticks": 108805,
              "time": 122.52803062500001,
              "value": 0.8031496062992126
            },
            {
              "number": 11,
              "ticks": 108820,
              "time": 122.54492250000001,
              "value": 0.8110236220472441
            },
            {
              "number": 11,
              "ticks": 108835,
              "time": 122.56181437500001,
              "value": 0.8267716535433071
            },
            {
              "number": 11,
              "ticks": 108850,
              "time": 122.57870625000001,
              "value": 0.8346456692913385
            },
            {
              "number": 11,
              "ticks": 108865,
              "time": 122.59559812500001,
              "value": 0.84251968503937
            },
            {
              "number": 11,
              "ticks": 108880,
              "time": 122.61249000000001,
              "value": 0.8503937007874016
            },
            {
              "number": 11,
              "ticks": 108895,
              "time": 122.629381875,
              "value": 0.8661417322834646
            },
            {
              "number": 11,
              "ticks": 108910,
              "time": 122.64627375,
              "value": 0.8740157480314961
            },
            {
              "number": 11,
              "ticks": 108925,
              "time": 122.663165625,
              "value": 0.8818897637795275
            },
            {
              "number": 11,
              "ticks": 108940,
              "time": 122.6800575,
              "value": 0.8976377952755905
            },
            {
              "number": 11,
              "ticks": 108955,
              "time": 122.69694937500002,
              "value": 0.905511811023622
            },
            {
              "number": 11,
              "ticks": 108970,
              "time": 122.71384125000002,
              "value": 0.9133858267716536
            },
            {
              "number": 11,
              "ticks": 108985,
              "time": 122.73073312500001,
              "value": 0.9212598425196851
            },
            {
              "number": 11,
              "ticks": 109000,
              "time": 122.74762500000001,
              "value": 0.9291338582677166
            },
            {
              "number": 11,
              "ticks": 109015,
              "time": 122.76451687500001,
              "value": 0.937007874015748
            },
            {
              "number": 11,
              "ticks": 109030,
              "time": 122.78140875000001,
              "value": 0.952755905511811
            },
            {
              "number": 11,
              "ticks": 109045,
              "time": 122.79830062500001,
              "value": 0.9606299212598425
            },
            {
              "number": 11,
              "ticks": 109060,
              "time": 122.81519250000001,
              "value": 0.968503937007874
            },
            {
              "number": 11,
              "ticks": 109075,
              "time": 122.83208437500001,
              "value": 0.9763779527559056
            },
            {
              "number": 11,
              "ticks": 109090,
              "time": 122.84897625,
              "value": 0.984251968503937
            },
            {
              "number": 11,
              "ticks": 109105,
              "time": 122.865868125,
              "value": 0.9921259842519685
            },
            {
              "number": 11,
              "ticks": 109109,
              "time": 122.870372625,
              "value": 1
            },
            {
              "number": 11,
              "ticks": 158015,
              "time": 177.94464187500003,
              "value": 0.8661417322834646
            },
            {
              "number": 11,
              "ticks": 158030,
              "time": 177.96153375000003,
              "value": 0.8346456692913385
            },
            {
              "number": 11,
              "ticks": 158045,
              "time": 177.97842562500003,
              "value": 0.8031496062992126
            },
            {
              "number": 11,
              "ticks": 158060,
              "time": 177.99531750000003,
              "value": 0.7637795275590551
            },
            {
              "number": 11,
              "ticks": 158075,
              "time": 178.01220937500003,
              "value": 0.7322834645669292
            },
            {
              "number": 11,
              "ticks": 158090,
              "time": 178.02910125000002,
              "value": 0.7086614173228346
            },
            {
              "number": 11,
              "ticks": 158105,
              "time": 178.04599312500002,
              "value": 0.6771653543307087
            },
            {
              "number": 11,
              "ticks": 158120,
              "time": 178.06288500000002,
              "value": 0.6456692913385826
            },
            {
              "number": 11,
              "ticks": 158135,
              "time": 178.07977687500002,
              "value": 0.6220472440944882
            },
            {
              "number": 11,
              "ticks": 158150,
              "time": 178.09666875000002,
              "value": 0.5984251968503937
            },
            {
              "number": 11,
              "ticks": 158165,
              "time": 178.11356062500002,
              "value": 0.5669291338582677
            },
            {
              "number": 11,
              "ticks": 158180,
              "time": 178.13045250000002,
              "value": 0.5433070866141733
            },
            {
              "number": 11,
              "ticks": 158195,
              "time": 178.14734437500002,
              "value": 0.5196850393700787
            },
            {
              "number": 11,
              "ticks": 158210,
              "time": 178.16423625000002,
              "value": 0.49606299212598426
            },
            {
              "number": 11,
              "ticks": 158225,
              "time": 178.18112812500001,
              "value": 0.48031496062992124
            },
            {
              "number": 11,
              "ticks": 158240,
              "time": 178.19802,
              "value": 0.4566929133858268
            },
            {
              "number": 11,
              "ticks": 158254,
              "time": 178.21378575,
              "value": 0.4330708661417323
            },
            {
              "number": 11,
              "ticks": 158535,
              "time": 178.530226875,
              "value": 0.4330708661417323
            },
            {
              "number": 11,
              "ticks": 158550,
              "time": 178.54711875,
              "value": 0.4409448818897638
            },
            {
              "number": 11,
              "ticks": 158565,
              "time": 178.564010625,
              "value": 0.4566929133858268
            },
            {
              "number": 11,
              "ticks": 158580,
              "time": 178.5809025,
              "value": 0.47244094488188976
            },
            {
              "number": 11,
              "ticks": 158595,
              "time": 178.597794375,
              "value": 0.4881889763779528
            },
            {
              "number": 11,
              "ticks": 158610,
              "time": 178.61468625,
              "value": 0.5039370078740157
            },
            {
              "number": 11,
              "ticks": 158625,
              "time": 178.631578125,
              "value": 0.5196850393700787
            },
            {
              "number": 11,
              "ticks": 158640,
              "time": 178.64847,
              "value": 0.5354330708661418
            },
            {
              "number": 11,
              "ticks": 158655,
              "time": 178.665361875,
              "value": 0.5433070866141733
            },
            {
              "number": 11,
              "ticks": 158670,
              "time": 178.68225375,
              "value": 0.5590551181102362
            },
            {
              "number": 11,
              "ticks": 158685,
              "time": 178.699145625,
              "value": 0.5748031496062992
            },
            {
              "number": 11,
              "ticks": 158700,
              "time": 178.7160375,
              "value": 0.5905511811023622
            },
            {
              "number": 11,
              "ticks": 158715,
              "time": 178.732929375,
              "value": 0.5984251968503937
            },
            {
              "number": 11,
              "ticks": 158730,
              "time": 178.74982125,
              "value": 0.6141732283464567
            },
            {
              "number": 11,
              "ticks": 158745,
              "time": 178.766713125,
              "value": 0.6299212598425197
            },
            {
              "number": 11,
              "ticks": 158760,
              "time": 178.783605,
              "value": 0.6377952755905512
            },
            {
              "number": 11,
              "ticks": 158775,
              "time": 178.800496875,
              "value": 0.6535433070866141
            },
            {
              "number": 11,
              "ticks": 158790,
              "time": 178.81738875000002,
              "value": 0.6614173228346457
            },
            {
              "number": 11,
              "ticks": 158805,
              "time": 178.83428062500002,
              "value": 0.6771653543307087
            },
            {
              "number": 11,
              "ticks": 158820,
              "time": 178.85117250000002,
              "value": 0.6850393700787402
            },
            {
              "number": 11,
              "ticks": 158835,
              "time": 178.86806437500002,
              "value": 0.7007874015748031
            },
            {
              "number": 11,
              "ticks": 158850,
              "time": 178.88495625000002,
              "value": 0.7165354330708661
            },
            {
              "number": 11,
              "ticks": 158865,
              "time": 178.90184812500001,
              "value": 0.7244094488188977
            },
            {
              "number": 11,
              "ticks": 158880,
              "time": 178.91874,
              "value": 0.7322834645669292
            },
            {
              "number": 11,
              "ticks": 158895,
              "time": 178.935631875,
              "value": 0.7480314960629921
            },
            {
              "number": 11,
              "ticks": 158910,
              "time": 178.95252375,
              "value": 0.7559055118110236
            },
            {
              "number": 11,
              "ticks": 158925,
              "time": 178.969415625,
              "value": 0.7716535433070866
            },
            {
              "number": 11,
              "ticks": 158940,
              "time": 178.9863075,
              "value": 0.7795275590551181
            },
            {
              "number": 11,
              "ticks": 158955,
              "time": 179.003199375,
              "value": 0.7952755905511811
            },
            {
              "number": 11,
              "ticks": 158970,
              "time": 179.02009125,
              "value": 0.8031496062992126
            },
            {
              "number": 11,
              "ticks": 158985,
              "time": 179.036983125,
              "value": 0.8110236220472441
            },
            {
              "number": 11,
              "ticks": 159000,
              "time": 179.053875,
              "value": 0.8267716535433071
            },
            {
              "number": 11,
              "ticks": 159015,
              "time": 179.070766875,
              "value": 0.8346456692913385
            },
            {
              "number": 11,
              "ticks": 159030,
              "time": 179.08765875,
              "value": 0.84251968503937
            },
            {
              "number": 11,
              "ticks": 159045,
              "time": 179.104550625,
              "value": 0.8503937007874016
            },
            {
              "number": 11,
              "ticks": 159060,
              "time": 179.1214425,
              "value": 0.8661417322834646
            },
            {
              "number": 11,
              "ticks": 159075,
              "time": 179.138334375,
              "value": 0.8740157480314961
            },
            {
              "number": 11,
              "ticks": 159090,
              "time": 179.15522625,
              "value": 0.8818897637795275
            },
            {
              "number": 11,
              "ticks": 159105,
              "time": 179.172118125,
              "value": 0.8976377952755905
            },
            {
              "number": 11,
              "ticks": 159120,
              "time": 179.18901,
              "value": 0.905511811023622
            },
            {
              "number": 11,
              "ticks": 159135,
              "time": 179.205901875,
              "value": 0.9133858267716536
            },
            {
              "number": 11,
              "ticks": 159150,
              "time": 179.22279375,
              "value": 0.9212598425196851
            },
            {
              "number": 11,
              "ticks": 159165,
              "time": 179.239685625,
              "value": 0.9291338582677166
            },
            {
              "number": 11,
              "ticks": 159180,
              "time": 179.25657750000002,
              "value": 0.937007874015748
            },
            {
              "number": 11,
              "ticks": 159195,
              "time": 179.27346937500002,
              "value": 0.952755905511811
            },
            {
              "number": 11,
              "ticks": 159210,
              "time": 179.29036125000002,
              "value": 0.9606299212598425
            },
            {
              "number": 11,
              "ticks": 159225,
              "time": 179.30725312500002,
              "value": 0.968503937007874
            },
            {
              "number": 11,
              "ticks": 159240,
              "time": 179.32414500000002,
              "value": 0.9763779527559056
            },
            {
              "number": 11,
              "ticks": 159255,
              "time": 179.34103687500001,
              "value": 0.984251968503937
            },
            {
              "number": 11,
              "ticks": 159270,
              "time": 179.35792875,
              "value": 0.9921259842519685
            },
            {
              "number": 11,
              "ticks": 165310,
              "time": 186.15972374999998,
              "value": 0.7874015748031497
            },
            {
              "number": 11,
              "ticks": 165325,
              "time": 186.176615625,
              "value": 0.7795275590551181
            },
            {
              "number": 11,
              "ticks": 165340,
              "time": 186.1935075,
              "value": 0.7716535433070866
            },
            {
              "number": 11,
              "ticks": 165355,
              "time": 186.210399375,
              "value": 0.7637795275590551
            },
            {
              "number": 11,
              "ticks": 165370,
              "time": 186.22729125,
              "value": 0.7559055118110236
            },
            {
              "number": 11,
              "ticks": 165385,
              "time": 186.244183125,
              "value": 0.7480314960629921
            },
            {
              "number": 11,
              "ticks": 165400,
              "time": 186.261075,
              "value": 0.7401574803149606
            },
            {
              "number": 11,
              "ticks": 165415,
              "time": 186.277966875,
              "value": 0.7322834645669292
            },
            {
              "number": 11,
              "ticks": 165430,
              "time": 186.29485875,
              "value": 0.7244094488188977
            },
            {
              "number": 11,
              "ticks": 165445,
              "time": 186.311750625,
              "value": 0.7165354330708661
            },
            {
              "number": 11,
              "ticks": 165460,
              "time": 186.3286425,
              "value": 0.7086614173228346
            },
            {
              "number": 11,
              "ticks": 165475,
              "time": 186.345534375,
              "value": 0.7007874015748031
            },
            {
              "number": 11,
              "ticks": 165490,
              "time": 186.36242625,
              "value": 0.6929133858267716
            },
            {
              "number": 11,
              "ticks": 165505,
              "time": 186.379318125,
              "value": 0.6850393700787402
            },
            {
              "number": 11,
              "ticks": 165520,
              "time": 186.39621,
              "value": 0.6771653543307087
            },
            {
              "number": 11,
              "ticks": 165535,
              "time": 186.413101875,
              "value": 0.6692913385826772
            },
            {
              "number": 11,
              "ticks": 165550,
              "time": 186.42999375,
              "value": 0.6614173228346457
            },
            {
              "number": 11,
              "ticks": 165565,
              "time": 186.446885625,
              "value": 0.6535433070866141
            },
            {
              "number": 11,
              "ticks": 165580,
              "time": 186.4637775,
              "value": 0.6456692913385826
            },
            {
              "number": 11,
              "ticks": 165595,
              "time": 186.480669375,
              "value": 0.6377952755905512
            },
            {
              "number": 11,
              "ticks": 165610,
              "time": 186.49756125,
              "value": 0.6299212598425197
            },
            {
              "number": 11,
              "ticks": 165625,
              "time": 186.514453125,
              "value": 0.6220472440944882
            },
            {
              "number": 11,
              "ticks": 165640,
              "time": 186.531345,
              "value": 0.6141732283464567
            },
            {
              "number": 11,
              "ticks": 165655,
              "time": 186.548236875,
              "value": 0.6062992125984252
            },
            {
              "number": 11,
              "ticks": 165670,
              "time": 186.56512874999999,
              "value": 0.5984251968503937
            },
            {
              "number": 11,
              "ticks": 165685,
              "time": 186.58202062499998,
              "value": 0.5826771653543307
            },
            {
              "number": 11,
              "ticks": 165700,
              "time": 186.59891249999998,
              "value": 0.5748031496062992
            },
            {
              "number": 11,
              "ticks": 165715,
              "time": 186.615804375,
              "value": 0.5669291338582677
            },
            {
              "number": 11,
              "ticks": 165730,
              "time": 186.63269625,
              "value": 0.5590551181102362
            },
            {
              "number": 11,
              "ticks": 165745,
              "time": 186.649588125,
              "value": 0.5511811023622047
            },
            {
              "number": 11,
              "ticks": 165760,
              "time": 186.66648,
              "value": 0.5433070866141733
            },
            {
              "number": 11,
              "ticks": 165775,
              "time": 186.683371875,
              "value": 0.5354330708661418
            },
            {
              "number": 11,
              "ticks": 165790,
              "time": 186.70026375,
              "value": 0.5275590551181102
            },
            {
              "number": 11,
              "ticks": 165805,
              "time": 186.717155625,
              "value": 0.5196850393700787
            },
            {
              "number": 11,
              "ticks": 165820,
              "time": 186.7340475,
              "value": 0.5118110236220472
            },
            {
              "number": 11,
              "ticks": 165829,
              "time": 186.744182625,
              "value": 0.5039370078740157
            },
            {
              "number": 11,
              "ticks": 165900,
              "time": 186.8241375,
              "value": 0.5511811023622047
            },
            {
              "number": 11,
              "ticks": 165915,
              "time": 186.841029375,
              "value": 0.5669291338582677
            },
            {
              "number": 11,
              "ticks": 165930,
              "time": 186.85792125,
              "value": 0.5905511811023622
            },
            {
              "number": 11,
              "ticks": 165945,
              "time": 186.874813125,
              "value": 0.6141732283464567
            },
            {
              "number": 11,
              "ticks": 165960,
              "time": 186.891705,
              "value": 0.6377952755905512
            },
            {
              "number": 11,
              "ticks": 165975,
              "time": 186.908596875,
              "value": 0.6535433070866141
            },
            {
              "number": 11,
              "ticks": 165990,
              "time": 186.92548875,
              "value": 0.6771653543307087
            },
            {
              "number": 11,
              "ticks": 166005,
              "time": 186.942380625,
              "value": 0.7007874015748031
            },
            {
              "number": 11,
              "ticks": 166020,
              "time": 186.9592725,
              "value": 0.7244094488188977
            },
            {
              "number": 11,
              "ticks": 166035,
              "time": 186.976164375,
              "value": 0.7401574803149606
            },
            {
              "number": 11,
              "ticks": 166050,
              "time": 186.99305625,
              "value": 0.7637795275590551
            },
            {
              "number": 11,
              "ticks": 166065,
              "time": 187.009948125,
              "value": 0.7874015748031497
            },
            {
              "number": 11,
              "ticks": 166080,
              "time": 187.02684,
              "value": 0.8110236220472441
            },
            {
              "number": 11,
              "ticks": 166095,
              "time": 187.04373187500002,
              "value": 0.8267716535433071
            },
            {
              "number": 11,
              "ticks": 166110,
              "time": 187.06062375000002,
              "value": 0.8503937007874016
            },
            {
              "number": 11,
              "ticks": 166125,
              "time": 187.07751562500002,
              "value": 0.8740157480314961
            },
            {
              "number": 11,
              "ticks": 166140,
              "time": 187.09440750000002,
              "value": 0.8976377952755905
            },
            {
              "number": 11,
              "ticks": 166155,
              "time": 187.11129937500002,
              "value": 0.9212598425196851
            },
            {
              "number": 11,
              "ticks": 166170,
              "time": 187.12819125000001,
              "value": 0.937007874015748
            },
            {
              "number": 11,
              "ticks": 166185,
              "time": 187.145083125,
              "value": 0.9606299212598425
            },
            {
              "number": 11,
              "ticks": 166200,
              "time": 187.161975,
              "value": 0.984251968503937
            },
            {
              "number": 11,
              "ticks": 166209,
              "time": 187.17211012500002,
              "value": 1
            },
            {
              "number": 11,
              "ticks": 181690,
              "time": 204.60565125,
              "value": 1
            },
            {
              "number": 11,
              "ticks": 181705,
              "time": 204.622543125,
              "value": 0.984251968503937
            },
            {
              "number": 11,
              "ticks": 181720,
              "time": 204.639435,
              "value": 0.9606299212598425
            },
            {
              "number": 11,
              "ticks": 181735,
              "time": 204.656326875,
              "value": 0.937007874015748
            },
            {
              "number": 11,
              "ticks": 181750,
              "time": 204.67321875,
              "value": 0.9133858267716536
            },
            {
              "number": 11,
              "ticks": 181765,
              "time": 204.690110625,
              "value": 0.889763779527559
            },
            {
              "number": 11,
              "ticks": 181780,
              "time": 204.7070025,
              "value": 0.8661417322834646
            },
            {
              "number": 11,
              "ticks": 181795,
              "time": 204.723894375,
              "value": 0.84251968503937
            },
            {
              "number": 11,
              "ticks": 181810,
              "time": 204.74078624999999,
              "value": 0.8267716535433071
            },
            {
              "number": 11,
              "ticks": 181825,
              "time": 204.75767812499998,
              "value": 0.8031496062992126
            },
            {
              "number": 11,
              "ticks": 181840,
              "time": 204.77457,
              "value": 0.7795275590551181
            },
            {
              "number": 11,
              "ticks": 181855,
              "time": 204.791461875,
              "value": 0.7559055118110236
            },
            {
              "number": 11,
              "ticks": 181870,
              "time": 204.80835375,
              "value": 0.7322834645669292
            },
            {
              "number": 11,
              "ticks": 181885,
              "time": 204.825245625,
              "value": 0.7086614173228346
            },
            {
              "number": 11,
              "ticks": 181894,
              "time": 204.83538075,
              "value": 0.6929133858267716
            },
            {
              "number": 11,
              "ticks": 182035,
              "time": 204.994164375,
              "value": 0.7322834645669292
            },
            {
              "number": 11,
              "ticks": 182050,
              "time": 205.01105625,
              "value": 0.7480314960629921
            },
            {
              "number": 11,
              "ticks": 182065,
              "time": 205.027948125,
              "value": 0.7716535433070866
            },
            {
              "number": 11,
              "ticks": 182080,
              "time": 205.04484,
              "value": 0.7874015748031497
            },
            {
              "number": 11,
              "ticks": 182095,
              "time": 205.061731875,
              "value": 0.8110236220472441
            },
            {
              "number": 11,
              "ticks": 182110,
              "time": 205.07862375,
              "value": 0.8267716535433071
            },
            {
              "number": 11,
              "ticks": 182125,
              "time": 205.095515625,
              "value": 0.8503937007874016
            },
            {
              "number": 11,
              "ticks": 182140,
              "time": 205.1124075,
              "value": 0.8661417322834646
            },
            {
              "number": 11,
              "ticks": 182155,
              "time": 205.129299375,
              "value": 0.889763779527559
            },
            {
              "number": 11,
              "ticks": 182170,
              "time": 205.14619125,
              "value": 0.9133858267716536
            },
            {
              "number": 11,
              "ticks": 182185,
              "time": 205.16308312499999,
              "value": 0.9291338582677166
            },
            {
              "number": 11,
              "ticks": 182200,
              "time": 205.17997499999998,
              "value": 0.952755905511811
            },
            {
              "number": 11,
              "ticks": 182215,
              "time": 205.19686687499998,
              "value": 0.968503937007874
            },
            {
              "number": 11,
              "ticks": 182230,
              "time": 205.21375875,
              "value": 0.9921259842519685
            },
            {
              "number": 11,
              "ticks": 182234,
              "time": 205.21826325,
              "value": 1
            },
            {
              "number": 11,
              "ticks": 188170,
              "time": 211.90294125,
              "value": 1
            },
            {
              "number": 11,
              "ticks": 188185,
              "time": 211.919833125,
              "value": 0.9921259842519685
            },
            {
              "number": 11,
              "ticks": 188200,
              "time": 211.936725,
              "value": 0.984251968503937
            },
            {
              "number": 11,
              "ticks": 188215,
              "time": 211.953616875,
              "value": 0.9763779527559056
            },
            {
              "number": 11,
              "ticks": 188230,
              "time": 211.97050875,
              "value": 0.968503937007874
            },
            {
              "number": 11,
              "ticks": 188245,
              "time": 211.987400625,
              "value": 0.9606299212598425
            },
            {
              "number": 11,
              "ticks": 188260,
              "time": 212.0042925,
              "value": 0.952755905511811
            },
            {
              "number": 11,
              "ticks": 188275,
              "time": 212.021184375,
              "value": 0.9448818897637795
            },
            {
              "number": 11,
              "ticks": 188290,
              "time": 212.03807625,
              "value": 0.937007874015748
            },
            {
              "number": 11,
              "ticks": 188305,
              "time": 212.054968125,
              "value": 0.9291338582677166
            },
            {
              "number": 11,
              "ticks": 188320,
              "time": 212.07186,
              "value": 0.9212598425196851
            },
            {
              "number": 11,
              "ticks": 188335,
              "time": 212.08875187499999,
              "value": 0.9133858267716536
            },
            {
              "number": 11,
              "ticks": 188350,
              "time": 212.10564374999998,
              "value": 0.905511811023622
            },
            {
              "number": 11,
              "ticks": 188365,
              "time": 212.122535625,
              "value": 0.8976377952755905
            },
            {
              "number": 11,
              "ticks": 188380,
              "time": 212.1394275,
              "value": 0.889763779527559
            },
            {
              "number": 11,
              "ticks": 188395,
              "time": 212.156319375,
              "value": 0.8818897637795275
            },
            {
              "number": 11,
              "ticks": 188410,
              "time": 212.17321125,
              "value": 0.8740157480314961
            },
            {
              "number": 11,
              "ticks": 188425,
              "time": 212.190103125,
              "value": 0.8661417322834646
            },
            {
              "number": 11,
              "ticks": 188440,
              "time": 212.206995,
              "value": 0.8582677165354331
            },
            {
              "number": 11,
              "ticks": 188455,
              "time": 212.223886875,
              "value": 0.8503937007874016
            },
            {
              "number": 11,
              "ticks": 188470,
              "time": 212.24077875,
              "value": 0.84251968503937
            },
            {
              "number": 11,
              "ticks": 188485,
              "time": 212.257670625,
              "value": 0.8346456692913385
            },
            {
              "number": 11,
              "ticks": 188500,
              "time": 212.2745625,
              "value": 0.8267716535433071
            },
            {
              "number": 11,
              "ticks": 188515,
              "time": 212.291454375,
              "value": 0.8188976377952756
            },
            {
              "number": 11,
              "ticks": 188530,
              "time": 212.30834625,
              "value": 0.8031496062992126
            },
            {
              "number": 11,
              "ticks": 188545,
              "time": 212.325238125,
              "value": 0.7952755905511811
            },
            {
              "number": 11,
              "ticks": 188560,
              "time": 212.34213,
              "value": 0.7874015748031497
            },
            {
              "number": 11,
              "ticks": 188575,
              "time": 212.359021875,
              "value": 0.7795275590551181
            },
            {
              "number": 11,
              "ticks": 188590,
              "time": 212.37591375,
              "value": 0.7716535433070866
            },
            {
              "number": 11,
              "ticks": 188605,
              "time": 212.392805625,
              "value": 0.7637795275590551
            },
            {
              "number": 11,
              "ticks": 188620,
              "time": 212.4096975,
              "value": 0.7559055118110236
            },
            {
              "number": 11,
              "ticks": 188635,
              "time": 212.426589375,
              "value": 0.7480314960629921
            },
            {
              "number": 11,
              "ticks": 188650,
              "time": 212.44348125,
              "value": 0.7401574803149606
            },
            {
              "number": 11,
              "ticks": 188665,
              "time": 212.460373125,
              "value": 0.7322834645669292
            },
            {
              "number": 11,
              "ticks": 188680,
              "time": 212.477265,
              "value": 0.7244094488188977
            },
            {
              "number": 11,
              "ticks": 188695,
              "time": 212.494156875,
              "value": 0.7165354330708661
            },
            {
              "number": 11,
              "ticks": 188710,
              "time": 212.51104875,
              "value": 0.7086614173228346
            },
            {
              "number": 11,
              "ticks": 188725,
              "time": 212.52794062499999,
              "value": 0.7007874015748031
            },
            {
              "number": 11,
              "ticks": 188740,
              "time": 212.54483249999998,
              "value": 0.6929133858267716
            },
            {
              "number": 11,
              "ticks": 188755,
              "time": 212.561724375,
              "value": 0.6850393700787402
            },
            {
              "number": 11,
              "ticks": 188770,
              "time": 212.57861625,
              "value": 0.6771653543307087
            },
            {
              "number": 11,
              "ticks": 188785,
              "time": 212.595508125,
              "value": 0.6692913385826772
            },
            {
              "number": 11,
              "ticks": 188789,
              "time": 212.600012625,
              "value": 0.6614173228346457
            },
            {
              "number": 11,
              "ticks": 189010,
              "time": 212.84888625,
              "value": 0.6614173228346457
            },
            {
              "number": 11,
              "ticks": 189025,
              "time": 212.865778125,
              "value": 0.6771653543307087
            },
            {
              "number": 11,
              "ticks": 189040,
              "time": 212.88267,
              "value": 0.6929133858267716
            },
            {
              "number": 11,
              "ticks": 189055,
              "time": 212.899561875,
              "value": 0.7086614173228346
            },
            {
              "number": 11,
              "ticks": 189070,
              "time": 212.91645375,
              "value": 0.7244094488188977
            },
            {
              "number": 11,
              "ticks": 189085,
              "time": 212.933345625,
              "value": 0.7480314960629921
            },
            {
              "number": 11,
              "ticks": 189100,
              "time": 212.9502375,
              "value": 0.7637795275590551
            },
            {
              "number": 11,
              "ticks": 189115,
              "time": 212.96712937499998,
              "value": 0.7795275590551181
            },
            {
              "number": 11,
              "ticks": 189130,
              "time": 212.98402124999998,
              "value": 0.7952755905511811
            },
            {
              "number": 11,
              "ticks": 189145,
              "time": 213.000913125,
              "value": 0.8188976377952756
            },
            {
              "number": 11,
              "ticks": 189160,
              "time": 213.017805,
              "value": 0.8346456692913385
            },
            {
              "number": 11,
              "ticks": 189175,
              "time": 213.034696875,
              "value": 0.8503937007874016
            },
            {
              "number": 11,
              "ticks": 189190,
              "time": 213.05158875,
              "value": 0.8661417322834646
            },
            {
              "number": 11,
              "ticks": 189205,
              "time": 213.068480625,
              "value": 0.889763779527559
            },
            {
              "number": 11,
              "ticks": 189220,
              "time": 213.0853725,
              "value": 0.905511811023622
            },
            {
              "number": 11,
              "ticks": 189235,
              "time": 213.102264375,
              "value": 0.9212598425196851
            },
            {
              "number": 11,
              "ticks": 189250,
              "time": 213.11915625,
              "value": 0.937007874015748
            },
            {
              "number": 11,
              "ticks": 189265,
              "time": 213.136048125,
              "value": 0.952755905511811
            },
            {
              "number": 11,
              "ticks": 189280,
              "time": 213.15294,
              "value": 0.9763779527559056
            },
            {
              "number": 11,
              "ticks": 189295,
              "time": 213.169831875,
              "value": 0.9921259842519685
            },
            {
              "number": 11,
              "ticks": 189299,
              "time": 213.174336375,
              "value": 1
            },
            {
              "number": 11,
              "ticks": 216000,
              "time": 243.243,
              "value": 0.9921259842519685
            },
            {
              "number": 11,
              "ticks": 216100,
              "time": 243.3556125,
              "value": 0.9763779527559056
            },
            {
              "number": 11,
              "ticks": 216201,
              "time": 243.469351125,
              "value": 0.9606299212598425
            },
            {
              "number": 11,
              "ticks": 216302,
              "time": 243.58308975,
              "value": 0.9448818897637795
            },
            {
              "number": 11,
              "ticks": 216402,
              "time": 243.69570225,
              "value": 0.9291338582677166
            },
            {
              "number": 11,
              "ticks": 216503,
              "time": 243.809440875,
              "value": 0.8976377952755905
            },
            {
              "number": 11,
              "ticks": 216604,
              "time": 243.9231795,
              "value": 0.8818897637795275
            },
            {
              "number": 11,
              "ticks": 216704,
              "time": 244.035792,
              "value": 0.8503937007874016
            },
            {
              "number": 11,
              "ticks": 216805,
              "time": 244.149530625,
              "value": 0.8188976377952756
            },
            {
              "number": 11,
              "ticks": 216906,
              "time": 244.26326925,
              "value": 0.8188976377952756
            },
            {
              "number": 11,
              "ticks": 217007,
              "time": 244.377007875,
              "value": 0.8031496062992126
            },
            {
              "number": 11,
              "ticks": 217107,
              "time": 244.489620375,
              "value": 0.7716535433070866
            },
            {
              "number": 11,
              "ticks": 217208,
              "time": 244.603359,
              "value": 0.7716535433070866
            },
            {
              "number": 11,
              "ticks": 217309,
              "time": 244.717097625,
              "value": 0.7716535433070866
            },
            {
              "number": 11,
              "ticks": 217409,
              "time": 244.829710125,
              "value": 0.7559055118110236
            },
            {
              "number": 11,
              "ticks": 217510,
              "time": 244.94344875,
              "value": 0.7559055118110236
            },
            {
              "number": 11,
              "ticks": 217611,
              "time": 245.057187375,
              "value": 0.7401574803149606
            },
            {
              "number": 11,
              "ticks": 217711,
              "time": 245.16979987500002,
              "value": 0.7244094488188977
            },
            {
              "number": 11,
              "ticks": 217812,
              "time": 245.2835385,
              "value": 0.7244094488188977
            },
            {
              "number": 11,
              "ticks": 217913,
              "time": 245.397277125,
              "value": 0.6929133858267716
            },
            {
              "number": 11,
              "ticks": 218014,
              "time": 245.51101575,
              "value": 0.6929133858267716
            },
            {
              "number": 11,
              "ticks": 218114,
              "time": 245.62362825,
              "value": 0.6771653543307087
            },
            {
              "number": 11,
              "ticks": 218215,
              "time": 245.737366875,
              "value": 0.6614173228346457
            },
            {
              "number": 11,
              "ticks": 218316,
              "time": 245.85110550000002,
              "value": 0.6456692913385826
            },
            {
              "number": 11,
              "ticks": 218416,
              "time": 245.96371800000003,
              "value": 0.6456692913385826
            },
            {
              "number": 11,
              "ticks": 218517,
              "time": 246.077456625,
              "value": 0.6299212598425197
            },
            {
              "number": 11,
              "ticks": 218618,
              "time": 246.19119525,
              "value": 0.6299212598425197
            },
            {
              "number": 11,
              "ticks": 218719,
              "time": 246.30493387500002,
              "value": 0.6299212598425197
            },
            {
              "number": 11,
              "ticks": 219160,
              "time": 246.801555,
              "value": 0.5669291338582677
            },
            {
              "number": 11,
              "ticks": 219197,
              "time": 246.843221625,
              "value": 0.5669291338582677
            },
            {
              "number": 11,
              "ticks": 219232,
              "time": 246.88263600000002,
              "value": 0.6141732283464567
            },
            {
              "number": 11,
              "ticks": 219264,
              "time": 246.91867200000002,
              "value": 0.6299212598425197
            },
            {
              "number": 11,
              "ticks": 219295,
              "time": 246.953581875,
              "value": 0.6299212598425197
            },
            {
              "number": 11,
              "ticks": 219324,
              "time": 246.9862395,
              "value": 0.6614173228346457
            },
            {
              "number": 11,
              "ticks": 219352,
              "time": 247.017771,
              "value": 0.6771653543307087
            },
            {
              "number": 11,
              "ticks": 219378,
              "time": 247.04705025,
              "value": 0.6771653543307087
            },
            {
              "number": 11,
              "ticks": 219403,
              "time": 247.075203375,
              "value": 0.6929133858267716
            },
            {
              "number": 11,
              "ticks": 219427,
              "time": 247.102230375,
              "value": 0.6929133858267716
            },
            {
              "number": 11,
              "ticks": 219450,
              "time": 247.12813125,
              "value": 0.7244094488188977
            },
            {
              "number": 11,
              "ticks": 219471,
              "time": 247.15177987500002,
              "value": 0.7244094488188977
            },
            {
              "number": 11,
              "ticks": 219492,
              "time": 247.1754285,
              "value": 0.7401574803149606
            },
            {
              "number": 11,
              "ticks": 219512,
              "time": 247.19795100000002,
              "value": 0.7716535433070866
            },
            {
              "number": 11,
              "ticks": 219531,
              "time": 247.219347375,
              "value": 0.8031496062992126
            },
            {
              "number": 11,
              "ticks": 219549,
              "time": 247.23961762500002,
              "value": 0.8188976377952756
            },
            {
              "number": 11,
              "ticks": 219566,
              "time": 247.25876175000002,
              "value": 0.8346456692913385
            },
            {
              "number": 11,
              "ticks": 219583,
              "time": 247.27790587500002,
              "value": 0.8503937007874016
            },
            {
              "number": 11,
              "ticks": 219599,
              "time": 247.295923875,
              "value": 0.8503937007874016
            },
            {
              "number": 11,
              "ticks": 219614,
              "time": 247.31281575,
              "value": 0.8818897637795275
            },
            {
              "number": 11,
              "ticks": 219629,
              "time": 247.329707625,
              "value": 0.8976377952755905
            },
            {
              "number": 11,
              "ticks": 219644,
              "time": 247.3465995,
              "value": 0.9133858267716536
            },
            {
              "number": 11,
              "ticks": 219659,
              "time": 247.363491375,
              "value": 0.9133858267716536
            },
            {
              "number": 11,
              "ticks": 219689,
              "time": 247.397275125,
              "value": 0.9448818897637795
            },
            {
              "number": 11,
              "ticks": 219704,
              "time": 247.414167,
              "value": 0.9606299212598425
            },
            {
              "number": 11,
              "ticks": 219714,
              "time": 247.42542825,
              "value": 0.9606299212598425
            },
            {
              "number": 11,
              "ticks": 219719,
              "time": 247.431058875,
              "value": 0.9606299212598425
            },
            {
              "number": 11,
              "ticks": 219744,
              "time": 247.459212,
              "value": 1
            }
          ],
          "38": [
            {
              "number": 38,
              "ticks": 720,
              "time": 0.81081,
              "value": 0.015748031496062992
            }
          ],
          "91": [
            {
              "number": 91,
              "ticks": 690,
              "time": 0.77702625,
              "value": 0.4330708661417323
            }
          ],
          "93": [
            {
              "number": 93,
              "ticks": 690,
              "time": 0.77702625,
              "value": 0.23622047244094488
            }
          ],
          "100": [
            {
              "number": 100,
              "ticks": 710,
              "time": 0.79954875,
              "value": 0
            }
          ],
          "101": [
            {
              "number": 101,
              "ticks": 700,
              "time": 0.7882875,
              "value": 0
            }
          ]
        },
        "pitchBends": [
          {
            "ticks": 20376,
            "time": 22.945923000000004,
            "value": -0.3125
          },
          {
            "ticks": 20391,
            "time": 22.962814875000003,
            "value": -0.1923828125
          },
          {
            "ticks": 20406,
            "time": 22.979706750000002,
            "value": -0.072021484375
          },
          {
            "ticks": 20415,
            "time": 22.989841875,
            "value": 0
          },
          {
            "ticks": 110616,
            "time": 124.567443,
            "value": -0.3125
          },
          {
            "ticks": 110631,
            "time": 124.584334875,
            "value": -0.1923828125
          },
          {
            "ticks": 110646,
            "time": 124.60122675,
            "value": -0.072021484375
          },
          {
            "ticks": 110655,
            "time": 124.611361875,
            "value": 0
          },
          {
            "ticks": 208536,
            "time": 234.837603,
            "value": -0.3125
          },
          {
            "ticks": 208551,
            "time": 234.854494875,
            "value": -0.1923828125
          },
          {
            "ticks": 208566,
            "time": 234.87138675,
            "value": -0.072021484375
          },
          {
            "ticks": 208575,
            "time": 234.881521875,
            "value": 0
          }
        ],
        "instrument": {
          "family": "brass",
          "number": 61,
          "name": "brass section"
        },
        "name": "",
        "notes": [
          {
            "duration": 0.0518017499999992,
            "durationTicks": 46,
            "midi": 70,
            "name": "A#4",
            "ticks": 11765,
            "time": 13.248860625,
            "velocity": 0.6299212598425197
          },
          {
            "duration": 0.04504500000000178,
            "durationTicks": 40,
            "midi": 67,
            "name": "G4",
            "ticks": 11766,
            "time": 13.24998675,
            "velocity": 0.7244094488188977
          },
          {
            "duration": 0.050675625000000224,
            "durationTicks": 45,
            "midi": 74,
            "name": "D5",
            "ticks": 11767,
            "time": 13.251112875,
            "velocity": 0.7244094488188977
          },
          {
            "duration": 0.054053999999998936,
            "durationTicks": 48,
            "midi": 69,
            "name": "A4",
            "ticks": 12123,
            "time": 13.652013375000001,
            "velocity": 0.6299212598425197
          },
          {
            "duration": 0.045045,
            "durationTicks": 40,
            "midi": 72,
            "name": "C5",
            "ticks": 12124,
            "time": 13.6531395,
            "velocity": 0.5354330708661418
          },
          {
            "duration": 0.057432374999999425,
            "durationTicks": 51,
            "midi": 76,
            "name": "E5",
            "ticks": 12125,
            "time": 13.654265625,
            "velocity": 0.6299212598425197
          },
          {
            "duration": 1.0855844999999995,
            "durationTicks": 964,
            "midi": 70,
            "name": "A#4",
            "ticks": 12377,
            "time": 13.938049125000001,
            "velocity": 0.3779527559055118
          },
          {
            "duration": 1.0698187499999996,
            "durationTicks": 950,
            "midi": 74,
            "name": "D5",
            "ticks": 12379,
            "time": 13.940301375,
            "velocity": 0.44881889763779526
          },
          {
            "duration": 1.0867106249999985,
            "durationTicks": 965,
            "midi": 77,
            "name": "F5",
            "ticks": 12384,
            "time": 13.945932,
            "velocity": 0.5354330708661418
          },
          {
            "duration": 0.07770262500000058,
            "durationTicks": 69,
            "midi": 70,
            "name": "A#4",
            "ticks": 13678,
            "time": 15.40313775,
            "velocity": 0.6299212598425197
          },
          {
            "duration": 0.0574323750000012,
            "durationTicks": 51,
            "midi": 67,
            "name": "G4",
            "ticks": 13679,
            "time": 15.404263875,
            "velocity": 0.7244094488188977
          },
          {
            "duration": 0.07319812500000111,
            "durationTicks": 65,
            "midi": 74,
            "name": "D5",
            "ticks": 13680,
            "time": 15.40539,
            "velocity": 0.7244094488188977
          },
          {
            "duration": 0.0653152499999976,
            "durationTicks": 58,
            "midi": 69,
            "name": "A4",
            "ticks": 14041,
            "time": 15.811921125000001,
            "velocity": 0.5354330708661418
          },
          {
            "duration": 0.049549500000001245,
            "durationTicks": 44,
            "midi": 72,
            "name": "C5",
            "ticks": 14042,
            "time": 15.81304725,
            "velocity": 0.5354330708661418
          },
          {
            "duration": 0.06531525000000116,
            "durationTicks": 58,
            "midi": 76,
            "name": "E5",
            "ticks": 14043,
            "time": 15.814173375000001,
            "velocity": 0.6299212598425197
          },
          {
            "duration": 0.9695936250000017,
            "durationTicks": 861,
            "midi": 70,
            "name": "A#4",
            "ticks": 14294,
            "time": 16.09683075,
            "velocity": 0.44881889763779526
          },
          {
            "duration": 0.9459449999999983,
            "durationTicks": 840,
            "midi": 74,
            "name": "D5",
            "ticks": 14298,
            "time": 16.10133525,
            "velocity": 0.5354330708661418
          },
          {
            "duration": 0.9549540000000007,
            "durationTicks": 848,
            "midi": 77,
            "name": "F5",
            "ticks": 14307,
            "time": 16.111470375,
            "velocity": 0.5354330708661418
          },
          {
            "duration": 0.061936874999997116,
            "durationTicks": 55,
            "midi": 70,
            "name": "A#4",
            "ticks": 15486,
            "time": 17.439171750000003,
            "velocity": 0.6299212598425197
          },
          {
            "duration": 0.05292787499999818,
            "durationTicks": 47,
            "midi": 67,
            "name": "G4",
            "ticks": 15487,
            "time": 17.440297875000002,
            "velocity": 0.7244094488188977
          },
          {
            "duration": 0.05968462499999916,
            "durationTicks": 53,
            "midi": 74,
            "name": "D5",
            "ticks": 15488,
            "time": 17.441424,
            "velocity": 0.7244094488188977
          },
          {
            "duration": 0.06756749999999911,
            "durationTicks": 60,
            "midi": 69,
            "name": "A4",
            "ticks": 15834,
            "time": 17.83106325,
            "velocity": 0.5354330708661418
          },
          {
            "duration": 0.0574323750000012,
            "durationTicks": 51,
            "midi": 72,
            "name": "C5",
            "ticks": 15836,
            "time": 17.8333155,
            "velocity": 0.6299212598425197
          },
          {
            "duration": 0.0574323750000012,
            "durationTicks": 51,
            "midi": 76,
            "name": "E5",
            "ticks": 15836,
            "time": 17.8333155,
            "velocity": 0.6299212598425197
          },
          {
            "duration": 0.0653152499999976,
            "durationTicks": 58,
            "midi": 69,
            "name": "A4",
            "ticks": 16076,
            "time": 18.1035855,
            "velocity": 0.7244094488188977
          },
          {
            "duration": 0.08333324999999903,
            "durationTicks": 74,
            "midi": 76,
            "name": "E5",
            "ticks": 16078,
            "time": 18.10583775,
            "velocity": 0.7244094488188977
          },
          {
            "duration": 0.04954949999999769,
            "durationTicks": 44,
            "midi": 72,
            "name": "C5",
            "ticks": 16079,
            "time": 18.106963875,
            "velocity": 0.5354330708661418
          },
          {
            "duration": 0.06981975000000062,
            "durationTicks": 62,
            "midi": 70,
            "name": "A#4",
            "ticks": 16318,
            "time": 18.37610775,
            "velocity": 0.5354330708661418
          },
          {
            "duration": 0.10022512500000147,
            "durationTicks": 89,
            "midi": 77,
            "name": "F5",
            "ticks": 16320,
            "time": 18.37836,
            "velocity": 0.6299212598425197
          },
          {
            "duration": 0.05968462499999916,
            "durationTicks": 53,
            "midi": 74,
            "name": "D5",
            "ticks": 16321,
            "time": 18.379486125,
            "velocity": 0.6299212598425197
          },
          {
            "duration": 0.05968462499999916,
            "durationTicks": 53,
            "midi": 79,
            "name": "G5",
            "ticks": 16561,
            "time": 18.649756125,
            "velocity": 0.7244094488188977
          },
          {
            "duration": 0.05743237499999765,
            "durationTicks": 51,
            "midi": 72,
            "name": "C5",
            "ticks": 16562,
            "time": 18.650882250000002,
            "velocity": 0.6299212598425197
          },
          {
            "duration": 0.045044999999998225,
            "durationTicks": 40,
            "midi": 76,
            "name": "E5",
            "ticks": 16563,
            "time": 18.652008375,
            "velocity": 0.6299212598425197
          },
          {
            "duration": 0.084459374999998,
            "durationTicks": 75,
            "midi": 74,
            "name": "D5",
            "ticks": 16798,
            "time": 18.91664775,
            "velocity": 0.44881889763779526
          },
          {
            "duration": 0.08445937500000156,
            "durationTicks": 75,
            "midi": 70,
            "name": "A#4",
            "ticks": 16804,
            "time": 18.9234045,
            "velocity": 0.44881889763779526
          },
          {
            "duration": 0.032657625000002355,
            "durationTicks": 29,
            "midi": 77,
            "name": "F5",
            "ticks": 16805,
            "time": 18.924530625,
            "velocity": 0.6299212598425197
          },
          {
            "duration": 0.050675625000000224,
            "durationTicks": 45,
            "midi": 76,
            "name": "E5",
            "ticks": 17037,
            "time": 19.185791625,
            "velocity": 0.6299212598425197
          },
          {
            "duration": 0.04279275000000027,
            "durationTicks": 38,
            "midi": 69,
            "name": "A4",
            "ticks": 17039,
            "time": 19.188043875,
            "velocity": 0.6299212598425197
          },
          {
            "duration": 0.030405375000000845,
            "durationTicks": 27,
            "midi": 72,
            "name": "C5",
            "ticks": 17039,
            "time": 19.188043875,
            "velocity": 0.5354330708661418
          },
          {
            "duration": 0.34234200000000214,
            "durationTicks": 304,
            "midi": 67,
            "name": "G4",
            "ticks": 17156,
            "time": 19.3198005,
            "velocity": 0.5354330708661418
          },
          {
            "duration": 0.34234200000000214,
            "durationTicks": 304,
            "midi": 70,
            "name": "A#4",
            "ticks": 17156,
            "time": 19.3198005,
            "velocity": 0.5354330708661418
          },
          {
            "duration": 0.34234200000000214,
            "durationTicks": 304,
            "midi": 74,
            "name": "D5",
            "ticks": 17156,
            "time": 19.3198005,
            "velocity": 0.5354330708661418
          },
          {
            "duration": 1.8817548750000022,
            "durationTicks": 1671,
            "midi": 86,
            "name": "D6",
            "ticks": 17520,
            "time": 19.72971,
            "velocity": 1
          },
          {
            "duration": 1.8817548750000022,
            "durationTicks": 1671,
            "midi": 74,
            "name": "D5",
            "ticks": 17540,
            "time": 19.752232499999998,
            "velocity": 0.7874015748031497
          },
          {
            "duration": 0.33445912499999864,
            "durationTicks": 297,
            "midi": 82,
            "name": "A#5",
            "ticks": 19347,
            "time": 21.787140375,
            "velocity": 0.7874015748031497
          },
          {
            "duration": 0.33445912499999864,
            "durationTicks": 297,
            "midi": 79,
            "name": "G5",
            "ticks": 19347,
            "time": 21.787140375,
            "velocity": 0.7874015748031497
          },
          {
            "duration": 0.3119366250000013,
            "durationTicks": 277,
            "midi": 75,
            "name": "D#5",
            "ticks": 19349,
            "time": 21.789392625,
            "velocity": 0.6929133858267716
          },
          {
            "duration": 0.3119366250000013,
            "durationTicks": 277,
            "midi": 86,
            "name": "D6",
            "ticks": 19349,
            "time": 21.789392625,
            "velocity": 0.984251968503937
          },
          {
            "duration": 0.13288275000000027,
            "durationTicks": 118,
            "midi": 79,
            "name": "G5",
            "ticks": 19670,
            "time": 22.15087875,
            "velocity": 0.7874015748031497
          },
          {
            "duration": 0.13288275000000027,
            "durationTicks": 118,
            "midi": 75,
            "name": "D#5",
            "ticks": 19670,
            "time": 22.15087875,
            "velocity": 0.7874015748031497
          },
          {
            "duration": 0.13288275000000027,
            "durationTicks": 118,
            "midi": 72,
            "name": "C5",
            "ticks": 19670,
            "time": 22.15087875,
            "velocity": 0.6929133858267716
          },
          {
            "duration": 0.11486474999999885,
            "durationTicks": 102,
            "midi": 82,
            "name": "A#5",
            "ticks": 19680,
            "time": 22.16214,
            "velocity": 0.984251968503937
          },
          {
            "duration": 0.07770262500000058,
            "durationTicks": 69,
            "midi": 79,
            "name": "G5",
            "ticks": 19861,
            "time": 22.365968625,
            "velocity": 0.9763779527559056
          },
          {
            "duration": 0.08108100000000107,
            "durationTicks": 72,
            "midi": 75,
            "name": "D#5",
            "ticks": 19943,
            "time": 22.458310875,
            "velocity": 0.8818897637795275
          },
          {
            "duration": 0.06644137500000369,
            "durationTicks": 59,
            "midi": 79,
            "name": "G5",
            "ticks": 20041,
            "time": 22.568671124999998,
            "velocity": 0.8818897637795275
          },
          {
            "duration": 0.05630624999999867,
            "durationTicks": 50,
            "midi": 82,
            "name": "A#5",
            "ticks": 20085,
            "time": 22.618220625,
            "velocity": 0.9763779527559056
          },
          {
            "duration": 0.25788262499999703,
            "durationTicks": 229,
            "midi": 86,
            "name": "D6",
            "ticks": 20141,
            "time": 22.681283625000003,
            "velocity": 0.8818897637795275
          },
          {
            "duration": 0.20270249999999734,
            "durationTicks": 180,
            "midi": 82,
            "name": "A#5",
            "ticks": 20141,
            "time": 22.681283625000003,
            "velocity": 0.8818897637795275
          },
          {
            "duration": 0.2522519999999986,
            "durationTicks": 224,
            "midi": 75,
            "name": "D#5",
            "ticks": 20145,
            "time": 22.685788125000002,
            "velocity": 0.6929133858267716
          },
          {
            "duration": 0.2522519999999986,
            "durationTicks": 224,
            "midi": 79,
            "name": "G5",
            "ticks": 20145,
            "time": 22.685788125000002,
            "velocity": 0.7874015748031497
          },
          {
            "duration": 0.15990975000000063,
            "durationTicks": 142,
            "midi": 89,
            "name": "F6",
            "ticks": 20383,
            "time": 22.953805875,
            "velocity": 0.8818897637795275
          },
          {
            "duration": 0.1261259999999993,
            "durationTicks": 112,
            "midi": 86,
            "name": "D6",
            "ticks": 20388,
            "time": 22.959436500000002,
            "velocity": 0.7874015748031497
          },
          {
            "duration": 0.1261259999999993,
            "durationTicks": 112,
            "midi": 82,
            "name": "A#5",
            "ticks": 20388,
            "time": 22.959436500000002,
            "velocity": 0.7874015748031497
          },
          {
            "duration": 0.1261259999999993,
            "durationTicks": 112,
            "midi": 79,
            "name": "G5",
            "ticks": 20388,
            "time": 22.959436500000002,
            "velocity": 0.7874015748031497
          },
          {
            "duration": 0.6632876249999988,
            "durationTicks": 589,
            "midi": 81,
            "name": "A5",
            "ticks": 20540,
            "time": 23.1306075,
            "velocity": 0.7874015748031497
          },
          {
            "duration": 0.6632876249999988,
            "durationTicks": 589,
            "midi": 75,
            "name": "D#5",
            "ticks": 20540,
            "time": 23.1306075,
            "velocity": 0.6929133858267716
          },
          {
            "duration": 0.6632876249999988,
            "durationTicks": 589,
            "midi": 78,
            "name": "F#5",
            "ticks": 20540,
            "time": 23.1306075,
            "velocity": 0.7874015748031497
          },
          {
            "duration": 0.6768011250000008,
            "durationTicks": 601,
            "midi": 85,
            "name": "C#6",
            "ticks": 20562,
            "time": 23.15538225,
            "velocity": 0.8818897637795275
          },
          {
            "duration": 0.29729700000000037,
            "durationTicks": 264,
            "midi": 84,
            "name": "C6",
            "ticks": 21269,
            "time": 23.951552625,
            "velocity": 0.984251968503937
          },
          {
            "duration": 0.25675649999999806,
            "durationTicks": 228,
            "midi": 77,
            "name": "F5",
            "ticks": 21292,
            "time": 23.977453500000003,
            "velocity": 0.8818897637795275
          },
          {
            "duration": 0.25675649999999806,
            "durationTicks": 228,
            "midi": 74,
            "name": "D5",
            "ticks": 21292,
            "time": 23.977453500000003,
            "velocity": 0.6929133858267716
          },
          {
            "duration": 0.25675649999999806,
            "durationTicks": 228,
            "midi": 81,
            "name": "A5",
            "ticks": 21292,
            "time": 23.977453500000003,
            "velocity": 0.8818897637795275
          },
          {
            "duration": 0.09909899999999539,
            "durationTicks": 88,
            "midi": 70,
            "name": "A#4",
            "ticks": 21585,
            "time": 24.307408125000002,
            "velocity": 0.6929133858267716
          },
          {
            "duration": 0.09909899999999539,
            "durationTicks": 88,
            "midi": 73,
            "name": "C#5",
            "ticks": 21585,
            "time": 24.307408125000002,
            "velocity": 0.7874015748031497
          },
          {
            "duration": 0.15653137500000014,
            "durationTicks": 139,
            "midi": 81,
            "name": "A5",
            "ticks": 21600,
            "time": 24.3243,
            "velocity": 0.984251968503937
          },
          {
            "duration": 0.08558550000000054,
            "durationTicks": 76,
            "midi": 77,
            "name": "F5",
            "ticks": 21602,
            "time": 24.326552250000002,
            "velocity": 0.8818897637795275
          },
          {
            "duration": 0.084459374999998,
            "durationTicks": 75,
            "midi": 77,
            "name": "F5",
            "ticks": 21787,
            "time": 24.534885375,
            "velocity": 0.8818897637795275
          },
          {
            "duration": 0.0765765000000016,
            "durationTicks": 68,
            "midi": 74,
            "name": "D5",
            "ticks": 21879,
            "time": 24.638488875,
            "velocity": 0.8818897637795275
          },
          {
            "duration": 0.0653152499999976,
            "durationTicks": 58,
            "midi": 77,
            "name": "F5",
            "ticks": 21962,
            "time": 24.731957250000004,
            "velocity": 0.8818897637795275
          },
          {
            "duration": 0.04166662500000129,
            "durationTicks": 37,
            "midi": 81,
            "name": "A5",
            "ticks": 22023,
            "time": 24.800650875000002,
            "velocity": 0.9763779527559056
          },
          {
            "duration": 0.16891874999999956,
            "durationTicks": 150,
            "midi": 81,
            "name": "A5",
            "ticks": 22074,
            "time": 24.85808325,
            "velocity": 0.8818897637795275
          },
          {
            "duration": 0.16891874999999956,
            "durationTicks": 150,
            "midi": 77,
            "name": "F5",
            "ticks": 22079,
            "time": 24.863713875000002,
            "velocity": 0.8818897637795275
          },
          {
            "duration": 0.16891874999999956,
            "durationTicks": 150,
            "midi": 74,
            "name": "D5",
            "ticks": 22079,
            "time": 24.863713875000002,
            "velocity": 0.6929133858267716
          },
          {
            "duration": 0.14639625000000223,
            "durationTicks": 130,
            "midi": 84,
            "name": "C6",
            "ticks": 22081,
            "time": 24.865966125,
            "velocity": 0.984251968503937
          },
          {
            "duration": 0.0574323750000012,
            "durationTicks": 51,
            "midi": 81,
            "name": "A5",
            "ticks": 22249,
            "time": 25.055155125000002,
            "velocity": 0.7874015748031497
          },
          {
            "duration": 0.1891890000000025,
            "durationTicks": 168,
            "midi": 74,
            "name": "D5",
            "ticks": 22289,
            "time": 25.100200125,
            "velocity": 0.7874015748031497
          },
          {
            "duration": 0.15878362500000165,
            "durationTicks": 141,
            "midi": 77,
            "name": "F5",
            "ticks": 22309,
            "time": 25.122722625,
            "velocity": 0.7874015748031497
          },
          {
            "duration": 0.18918899999999894,
            "durationTicks": 168,
            "midi": 81,
            "name": "A5",
            "ticks": 22309,
            "time": 25.122722625,
            "velocity": 0.7874015748031497
          },
          {
            "duration": 0.14639625000000223,
            "durationTicks": 130,
            "midi": 84,
            "name": "C6",
            "ticks": 22321,
            "time": 25.136236125,
            "velocity": 0.984251968503937
          },
          {
            "duration": 0.636260625000002,
            "durationTicks": 565,
            "midi": 77,
            "name": "F5",
            "ticks": 22462,
            "time": 25.29501975,
            "velocity": 0.7874015748031497
          },
          {
            "duration": 0.636260625000002,
            "durationTicks": 565,
            "midi": 71,
            "name": "B4",
            "ticks": 22462,
            "time": 25.29501975,
            "velocity": 0.6929133858267716
          },
          {
            "duration": 0.6013507500000053,
            "durationTicks": 534,
            "midi": 80,
            "name": "G#5",
            "ticks": 22486,
            "time": 25.32204675,
            "velocity": 0.8818897637795275
          },
          {
            "duration": 0.1204953750000044,
            "durationTicks": 107,
            "midi": 79,
            "name": "G5",
            "ticks": 23203,
            "time": 26.129478374999998,
            "velocity": 0.8818897637795275
          },
          {
            "duration": 0.08671162499999596,
            "durationTicks": 77,
            "midi": 82,
            "name": "A#5",
            "ticks": 23212,
            "time": 26.139613500000003,
            "velocity": 0.8818897637795275
          },
          {
            "duration": 0.07207199999999858,
            "durationTicks": 64,
            "midi": 75,
            "name": "D#5",
            "ticks": 23427,
            "time": 26.381730375,
            "velocity": 0.7874015748031497
          },
          {
            "duration": 0.09121612499999898,
            "durationTicks": 81,
            "midi": 79,
            "name": "G5",
            "ticks": 23429,
            "time": 26.383982625,
            "velocity": 0.8818897637795275
          },
          {
            "duration": 0.12162150000000338,
            "durationTicks": 108,
            "midi": 82,
            "name": "A#5",
            "ticks": 23538,
            "time": 26.50673025,
            "velocity": 0.8818897637795275
          },
          {
            "duration": 0.13513500000000178,
            "durationTicks": 120,
            "midi": 79,
            "name": "G5",
            "ticks": 23539,
            "time": 26.507856375,
            "velocity": 0.8818897637795275
          },
          {
            "duration": 0.09009,
            "durationTicks": 80,
            "midi": 75,
            "name": "D#5",
            "ticks": 23771,
            "time": 26.769117375,
            "velocity": 0.7874015748031497
          },
          {
            "duration": 0.09121612499999898,
            "durationTicks": 81,
            "midi": 79,
            "name": "G5",
            "ticks": 23790,
            "time": 26.790513750000002,
            "velocity": 0.8818897637795275
          },
          {
            "duration": 0.11711700000000036,
            "durationTicks": 104,
            "midi": 82,
            "name": "A#5",
            "ticks": 24001,
            "time": 27.028126125,
            "velocity": 0.7874015748031497
          },
          {
            "duration": 0.11148637499999836,
            "durationTicks": 99,
            "midi": 86,
            "name": "D6",
            "ticks": 24017,
            "time": 27.046144125,
            "velocity": 0.8818897637795275
          },
          {
            "duration": 0.10135125000000045,
            "durationTicks": 90,
            "midi": 79,
            "name": "G5",
            "ticks": 24244,
            "time": 27.3017745,
            "velocity": 0.8818897637795275
          },
          {
            "duration": 0.09346837499999694,
            "durationTicks": 83,
            "midi": 84,
            "name": "C6",
            "ticks": 24265,
            "time": 27.325423125000004,
            "velocity": 0.8818897637795275
          },
          {
            "duration": 0.26576550000000054,
            "durationTicks": 236,
            "midi": 78,
            "name": "F#5",
            "ticks": 24488,
            "time": 27.576549,
            "velocity": 0.7874015748031497
          },
          {
            "duration": 0.3119366250000013,
            "durationTicks": 277,
            "midi": 82,
            "name": "A#5",
            "ticks": 24494,
            "time": 27.58330575,
            "velocity": 0.8818897637795275
          },
          {
            "duration": 0.13513500000000178,
            "durationTicks": 120,
            "midi": 78,
            "name": "F#5",
            "ticks": 24731,
            "time": 27.850197375,
            "velocity": 0.7874015748031497
          },
          {
            "duration": 0.11148637500000191,
            "durationTicks": 99,
            "midi": 74,
            "name": "D5",
            "ticks": 24736,
            "time": 27.855828,
            "velocity": 0.7874015748031497
          },
          {
            "duration": 0.7229722500000015,
            "durationTicks": 642,
            "midi": 81,
            "name": "A5",
            "ticks": 24872,
            "time": 28.008981000000002,
            "velocity": 0.8818897637795275
          },
          {
            "duration": 0.6779272499999998,
            "durationTicks": 602,
            "midi": 77,
            "name": "F5",
            "ticks": 24876,
            "time": 28.0134855,
            "velocity": 0.8818897637795275
          },
          {
            "duration": 0.08671162499999951,
            "durationTicks": 77,
            "midi": 82,
            "name": "A#5",
            "ticks": 25573,
            "time": 28.798394625,
            "velocity": 0.8818897637795275
          },
          {
            "duration": 0.10585574999999992,
            "durationTicks": 94,
            "midi": 78,
            "name": "F#5",
            "ticks": 25592,
            "time": 28.819791000000002,
            "velocity": 0.8818897637795275
          },
          {
            "duration": 0.11261249999999734,
            "durationTicks": 100,
            "midi": 81,
            "name": "A5",
            "ticks": 25810,
            "time": 29.065286250000003,
            "velocity": 0.984251968503937
          },
          {
            "duration": 0.12725212499999827,
            "durationTicks": 113,
            "midi": 77,
            "name": "F5",
            "ticks": 25811,
            "time": 29.066412375000002,
            "velocity": 0.8818897637795275
          },
          {
            "duration": 0.11824312499999934,
            "durationTicks": 105,
            "midi": 74,
            "name": "D5",
            "ticks": 50997,
            "time": 57.428996625,
            "velocity": 0.984251968503937
          },
          {
            "duration": 0.11036024999999938,
            "durationTicks": 98,
            "midi": 69,
            "name": "A4",
            "ticks": 50998,
            "time": 57.43012275,
            "velocity": 0.8818897637795275
          },
          {
            "duration": 0.11036024999999938,
            "durationTicks": 98,
            "midi": 74,
            "name": "D5",
            "ticks": 52924,
            "time": 59.5990395,
            "velocity": 0.8818897637795275
          },
          {
            "duration": 0.09684674999999743,
            "durationTicks": 86,
            "midi": 70,
            "name": "A#4",
            "ticks": 52926,
            "time": 59.60129175,
            "velocity": 0.8818897637795275
          },
          {
            "duration": 0.15540524999999406,
            "durationTicks": 138,
            "midi": 69,
            "name": "A4",
            "ticks": 56070,
            "time": 63.14182875,
            "velocity": 0.7086614173228346
          },
          {
            "duration": 0.14076562499999312,
            "durationTicks": 125,
            "midi": 81,
            "name": "A5",
            "ticks": 56083,
            "time": 63.156468375,
            "velocity": 0.8818897637795275
          },
          {
            "duration": 0.1204953750000044,
            "durationTicks": 107,
            "midi": 72,
            "name": "C5",
            "ticks": 56163,
            "time": 63.246558375,
            "velocity": 0.7086614173228346
          },
          {
            "duration": 0.10247737499999943,
            "durationTicks": 91,
            "midi": 84,
            "name": "C6",
            "ticks": 56181,
            "time": 63.266828625,
            "velocity": 0.8818897637795275
          },
          {
            "duration": 0.11036024999999938,
            "durationTicks": 98,
            "midi": 73,
            "name": "C#5",
            "ticks": 56412,
            "time": 63.52696350000001,
            "velocity": 0.7086614173228346
          },
          {
            "duration": 0.07319812499999756,
            "durationTicks": 65,
            "midi": 85,
            "name": "C#6",
            "ticks": 56416,
            "time": 63.531468000000004,
            "velocity": 0.7874015748031497
          },
          {
            "duration": 0.17229712500000005,
            "durationTicks": 153,
            "midi": 86,
            "name": "D6",
            "ticks": 56507,
            "time": 63.633945375,
            "velocity": 0.984251968503937
          },
          {
            "duration": 0.17792774999999494,
            "durationTicks": 158,
            "midi": 74,
            "name": "D5",
            "ticks": 56512,
            "time": 63.639576000000005,
            "velocity": 0.8818897637795275
          },
          {
            "duration": 0.1362611250000043,
            "durationTicks": 121,
            "midi": 77,
            "name": "F5",
            "ticks": 57495,
            "time": 64.746556875,
            "velocity": 0.8818897637795275
          },
          {
            "duration": 0.14076562500000023,
            "durationTicks": 125,
            "midi": 81,
            "name": "A5",
            "ticks": 57502,
            "time": 64.75443975,
            "velocity": 0.984251968503937
          },
          {
            "duration": 0.13851337499998806,
            "durationTicks": 123,
            "midi": 74,
            "name": "D5",
            "ticks": 57509,
            "time": 64.76232262500001,
            "velocity": 0.8818897637795275
          },
          {
            "duration": 0.15427912500000218,
            "durationTicks": 137,
            "midi": 77,
            "name": "F5",
            "ticks": 59413,
            "time": 66.906464625,
            "velocity": 0.8818897637795275
          },
          {
            "duration": 0.15090075000000525,
            "durationTicks": 134,
            "midi": 72,
            "name": "C5",
            "ticks": 59416,
            "time": 66.909843,
            "velocity": 0.8818897637795275
          },
          {
            "duration": 0.13851337500000227,
            "durationTicks": 123,
            "midi": 70,
            "name": "A#4",
            "ticks": 59422,
            "time": 66.91659975,
            "velocity": 0.7874015748031497
          },
          {
            "duration": 0.14414399999999716,
            "durationTicks": 128,
            "midi": 74,
            "name": "D5",
            "ticks": 61334,
            "time": 69.06975075,
            "velocity": 0.8818897637795275
          },
          {
            "duration": 0.13400887500000636,
            "durationTicks": 119,
            "midi": 77,
            "name": "F5",
            "ticks": 61336,
            "time": 69.072003,
            "velocity": 0.8818897637795275
          },
          {
            "duration": 0.1317566250000084,
            "durationTicks": 117,
            "midi": 81,
            "name": "A5",
            "ticks": 61338,
            "time": 69.07425525,
            "velocity": 0.984251968503937
          },
          {
            "duration": 0.3344591250000093,
            "durationTicks": 297,
            "midi": 67,
            "name": "G4",
            "ticks": 63372,
            "time": 71.3647935,
            "velocity": 0.8818897637795275
          },
          {
            "duration": 0.34684649999999806,
            "durationTicks": 308,
            "midi": 70,
            "name": "A#4",
            "ticks": 63374,
            "time": 71.36704575,
            "velocity": 0.7874015748031497
          },
          {
            "duration": 0.3074321250000196,
            "durationTicks": 273,
            "midi": 77,
            "name": "F5",
            "ticks": 63381,
            "time": 71.374928625,
            "velocity": 0.984251968503937
          },
          {
            "duration": 0.36261224999999797,
            "durationTicks": 322,
            "midi": 70,
            "name": "A#4",
            "ticks": 63729,
            "time": 71.76682012500001,
            "velocity": 0.7874015748031497
          },
          {
            "duration": 0.3682428750000071,
            "durationTicks": 327,
            "midi": 67,
            "name": "G4",
            "ticks": 63731,
            "time": 71.76907237500001,
            "velocity": 0.7874015748031497
          },
          {
            "duration": 0.33671137500000725,
            "durationTicks": 299,
            "midi": 75,
            "name": "D#5",
            "ticks": 63736,
            "time": 71.774703,
            "velocity": 0.984251968503937
          },
          {
            "duration": 0.35247712500000716,
            "durationTicks": 313,
            "midi": 67,
            "name": "G4",
            "ticks": 64111,
            "time": 72.196999875,
            "velocity": 0.8818897637795275
          },
          {
            "duration": 0.34797262500001125,
            "durationTicks": 309,
            "midi": 70,
            "name": "A#4",
            "ticks": 64115,
            "time": 72.201504375,
            "velocity": 0.7874015748031497
          },
          {
            "duration": 0.33671137499997883,
            "durationTicks": 299,
            "midi": 74,
            "name": "D5",
            "ticks": 64118,
            "time": 72.20488275000001,
            "velocity": 0.984251968503937
          },
          {
            "duration": 0.2792789999999883,
            "durationTicks": 248,
            "midi": 70,
            "name": "A#4",
            "ticks": 64482,
            "time": 72.61479225000001,
            "velocity": 0.8818897637795275
          },
          {
            "duration": 0.2725222499999944,
            "durationTicks": 242,
            "midi": 67,
            "name": "G4",
            "ticks": 64486,
            "time": 72.61929675,
            "velocity": 0.8818897637795275
          },
          {
            "duration": 0.2725222499999944,
            "durationTicks": 242,
            "midi": 72,
            "name": "C5",
            "ticks": 64493,
            "time": 72.62717962500001,
            "velocity": 0.984251968503937
          },
          {
            "duration": 0.12725212499999827,
            "durationTicks": 113,
            "midi": 67,
            "name": "G4",
            "ticks": 64800,
            "time": 72.97290000000001,
            "velocity": 0.8818897637795275
          },
          {
            "duration": 0.11599087499999428,
            "durationTicks": 103,
            "midi": 70,
            "name": "A#4",
            "ticks": 64800,
            "time": 72.97290000000001,
            "velocity": 0.984251968503937
          },
          {
            "duration": 0.12725212499999827,
            "durationTicks": 113,
            "midi": 70,
            "name": "A#4",
            "ticks": 65040,
            "time": 73.24317,
            "velocity": 0.7874015748031497
          },
          {
            "duration": 0.13288274999999317,
            "durationTicks": 118,
            "midi": 67,
            "name": "G4",
            "ticks": 65040,
            "time": 73.24317,
            "velocity": 0.8818897637795275
          },
          {
            "duration": 0.12725212499999827,
            "durationTicks": 113,
            "midi": 72,
            "name": "C5",
            "ticks": 65040,
            "time": 73.24317,
            "velocity": 0.984251968503937
          },
          {
            "duration": 0.057432375000004754,
            "durationTicks": 51,
            "midi": 69,
            "name": "A4",
            "ticks": 65543,
            "time": 73.809610875,
            "velocity": 0.8818897637795275
          },
          {
            "duration": 0.06981975000000773,
            "durationTicks": 62,
            "midi": 74,
            "name": "D5",
            "ticks": 65545,
            "time": 73.811863125,
            "velocity": 0.8818897637795275
          },
          {
            "duration": 0.06306299999999965,
            "durationTicks": 56,
            "midi": 69,
            "name": "A4",
            "ticks": 65878,
            "time": 74.18686275,
            "velocity": 0.8818897637795275
          },
          {
            "duration": 0.07770262500001479,
            "durationTicks": 69,
            "midi": 74,
            "name": "D5",
            "ticks": 65880,
            "time": 74.189115,
            "velocity": 0.8818897637795275
          },
          {
            "duration": 0.06081075000000169,
            "durationTicks": 54,
            "midi": 70,
            "name": "A#4",
            "ticks": 66457,
            "time": 74.838889125,
            "velocity": 0.7874015748031497
          },
          {
            "duration": 0.07432424999998943,
            "durationTicks": 66,
            "midi": 75,
            "name": "D#5",
            "ticks": 66460,
            "time": 74.8422675,
            "velocity": 0.8818897637795275
          },
          {
            "duration": 0.05292787500000884,
            "durationTicks": 47,
            "midi": 70,
            "name": "A#4",
            "ticks": 66870,
            "time": 75.30397875,
            "velocity": 0.7874015748031497
          },
          {
            "duration": 0.05968462500001692,
            "durationTicks": 53,
            "midi": 75,
            "name": "D#5",
            "ticks": 66873,
            "time": 75.307357125,
            "velocity": 0.8818897637795275
          },
          {
            "duration": 0.09684674999999743,
            "durationTicks": 86,
            "midi": 69,
            "name": "A4",
            "ticks": 67200,
            "time": 75.6756,
            "velocity": 0.8818897637795275
          },
          {
            "duration": 0.09684674999999743,
            "durationTicks": 86,
            "midi": 74,
            "name": "D5",
            "ticks": 67200,
            "time": 75.6756,
            "velocity": 0.8818897637795275
          },
          {
            "duration": 1.6351335000000091,
            "durationTicks": 1452,
            "midi": 66,
            "name": "F#4",
            "ticks": 67685,
            "time": 76.22177062499999,
            "velocity": 0.8818897637795275
          },
          {
            "duration": 1.610358749999989,
            "durationTicks": 1430,
            "midi": 72,
            "name": "C5",
            "ticks": 67690,
            "time": 76.22740125000001,
            "velocity": 0.8818897637795275
          },
          {
            "duration": 1.602475874999996,
            "durationTicks": 1423,
            "midi": 77,
            "name": "F5",
            "ticks": 67692,
            "time": 76.22965350000001,
            "velocity": 0.984251968503937
          },
          {
            "duration": 0.13513500000000533,
            "durationTicks": 120,
            "midi": 70,
            "name": "A#4",
            "ticks": 69122,
            "time": 77.84001225,
            "velocity": 0.7874015748031497
          },
          {
            "duration": 0.15765750000001333,
            "durationTicks": 140,
            "midi": 74,
            "name": "D5",
            "ticks": 69123,
            "time": 77.841138375,
            "velocity": 0.8818897637795275
          },
          {
            "duration": 0.13288275000000738,
            "durationTicks": 118,
            "midi": 79,
            "name": "G5",
            "ticks": 69125,
            "time": 77.843390625,
            "velocity": 0.984251968503937
          },
          {
            "duration": 0.12274762500000236,
            "durationTicks": 109,
            "midi": 70,
            "name": "A#4",
            "ticks": 71036,
            "time": 79.99541550000001,
            "velocity": 0.8818897637795275
          },
          {
            "duration": 0.12274762500000236,
            "durationTicks": 109,
            "midi": 74,
            "name": "D5",
            "ticks": 71037,
            "time": 79.996541625,
            "velocity": 0.984251968503937
          },
          {
            "duration": 0.13063050000000942,
            "durationTicks": 116,
            "midi": 79,
            "name": "G5",
            "ticks": 71039,
            "time": 79.998793875,
            "velocity": 0.984251968503937
          },
          {
            "duration": 0.1925673750000101,
            "durationTicks": 171,
            "midi": 79,
            "name": "G5",
            "ticks": 72950,
            "time": 82.15081875,
            "velocity": 0.8818897637795275
          },
          {
            "duration": 0.20045025000000294,
            "durationTicks": 178,
            "midi": 74,
            "name": "D5",
            "ticks": 72950,
            "time": 82.15081875,
            "velocity": 0.8818897637795275
          },
          {
            "duration": 0.20720700000001102,
            "durationTicks": 184,
            "midi": 82,
            "name": "A#5",
            "ticks": 72951,
            "time": 82.151944875,
            "velocity": 0.984251968503937
          },
          {
            "duration": 1.835583750000012,
            "durationTicks": 1630,
            "midi": 86,
            "name": "D6",
            "ticks": 75140,
            "time": 84.6170325,
            "velocity": 0.8818897637795275
          },
          {
            "duration": 1.0619358750000032,
            "durationTicks": 943,
            "midi": 78,
            "name": "F#5",
            "ticks": 75837,
            "time": 85.401941625,
            "velocity": 0.7874015748031497
          },
          {
            "duration": 1.0596836250000052,
            "durationTicks": 941,
            "midi": 74,
            "name": "D5",
            "ticks": 75839,
            "time": 85.404193875,
            "velocity": 0.7874015748031497
          },
          {
            "duration": 0.16666650000000516,
            "durationTicks": 148,
            "midi": 79,
            "name": "G5",
            "ticks": 76802,
            "time": 86.48865225,
            "velocity": 0.984251968503937
          },
          {
            "duration": 0.1373872500000033,
            "durationTicks": 122,
            "midi": 74,
            "name": "D5",
            "ticks": 76808,
            "time": 86.49540900000001,
            "velocity": 0.8818897637795275
          },
          {
            "duration": 0.1373872500000033,
            "durationTicks": 122,
            "midi": 70,
            "name": "A#4",
            "ticks": 76813,
            "time": 86.501039625,
            "velocity": 0.8818897637795275
          },
          {
            "duration": 0.15202687500000422,
            "durationTicks": 135,
            "midi": 70,
            "name": "A#4",
            "ticks": 78604,
            "time": 88.5179295,
            "velocity": 0.8818897637795275
          },
          {
            "duration": 0.15427912500000218,
            "durationTicks": 137,
            "midi": 74,
            "name": "D5",
            "ticks": 78611,
            "time": 88.525812375,
            "velocity": 0.8818897637795275
          },
          {
            "duration": 0.15990974999999708,
            "durationTicks": 142,
            "midi": 79,
            "name": "G5",
            "ticks": 78613,
            "time": 88.528064625,
            "velocity": 0.984251968503937
          },
          {
            "duration": 0.22635112500000787,
            "durationTicks": 201,
            "midi": 74,
            "name": "D5",
            "ticks": 80522,
            "time": 90.67783725,
            "velocity": 0.8818897637795275
          },
          {
            "duration": 0.20382862499999987,
            "durationTicks": 181,
            "midi": 79,
            "name": "G5",
            "ticks": 80524,
            "time": 90.6800895,
            "velocity": 0.8818897637795275
          },
          {
            "duration": 0.20382862499999987,
            "durationTicks": 181,
            "midi": 82,
            "name": "A#5",
            "ticks": 80529,
            "time": 90.685720125,
            "velocity": 0.984251968503937
          },
          {
            "duration": 0.1644142500000072,
            "durationTicks": 146,
            "midi": 74,
            "name": "D5",
            "ticks": 83909,
            "time": 94.492022625,
            "velocity": 0.8818897637795275
          },
          {
            "duration": 0.11261249999999734,
            "durationTicks": 100,
            "midi": 77,
            "name": "F5",
            "ticks": 84020,
            "time": 94.6170225,
            "velocity": 0.8818897637795275
          },
          {
            "duration": 0.11036024999999938,
            "durationTicks": 98,
            "midi": 78,
            "name": "F#5",
            "ticks": 84262,
            "time": 94.88954475,
            "velocity": 0.8818897637795275
          },
          {
            "duration": 0.11936925000001963,
            "durationTicks": 106,
            "midi": 79,
            "name": "G5",
            "ticks": 84502,
            "time": 95.15981475,
            "velocity": 0.984251968503937
          },
          {
            "duration": 0.3772518749999847,
            "durationTicks": 335,
            "midi": 77,
            "name": "F5",
            "ticks": 87312,
            "time": 98.32422600000001,
            "velocity": 0.8818897637795275
          },
          {
            "duration": 0.29279250000000445,
            "durationTicks": 260,
            "midi": 75,
            "name": "D#5",
            "ticks": 87598,
            "time": 98.64629775,
            "velocity": 0.8818897637795275
          },
          {
            "duration": 0.2747745000000066,
            "durationTicks": 244,
            "midi": 70,
            "name": "A#4",
            "ticks": 87843,
            "time": 98.922198375,
            "velocity": 0.7874015748031497
          },
          {
            "duration": 0.29729700000000037,
            "durationTicks": 264,
            "midi": 72,
            "name": "C5",
            "ticks": 88087,
            "time": 99.196972875,
            "velocity": 0.8818897637795275
          },
          {
            "duration": 0.10698187500000245,
            "durationTicks": 95,
            "midi": 74,
            "name": "D5",
            "ticks": 88329,
            "time": 99.46949512500001,
            "velocity": 0.8818897637795275
          },
          {
            "duration": 0.12725212500001248,
            "durationTicks": 113,
            "midi": 74,
            "name": "D5",
            "ticks": 88582,
            "time": 99.75440474999999,
            "velocity": 0.8818897637795275
          },
          {
            "duration": 0.17342324999999903,
            "durationTicks": 154,
            "midi": 74,
            "name": "D5",
            "ticks": 89283,
            "time": 100.543818375,
            "velocity": 0.984251968503937
          },
          {
            "duration": 0.15540525000000116,
            "durationTicks": 138,
            "midi": 86,
            "name": "D6",
            "ticks": 89292,
            "time": 100.5539535,
            "velocity": 0.8818897637795275
          },
          {
            "duration": 0.05180174999999565,
            "durationTicks": 46,
            "midi": 70,
            "name": "A#4",
            "ticks": 102005,
            "time": 114.870380625,
            "velocity": 0.6299212598425197
          },
          {
            "duration": 0.04504500000000178,
            "durationTicks": 40,
            "midi": 67,
            "name": "G4",
            "ticks": 102006,
            "time": 114.87150675,
            "velocity": 0.7244094488188977
          },
          {
            "duration": 0.05067562499999667,
            "durationTicks": 45,
            "midi": 74,
            "name": "D5",
            "ticks": 102007,
            "time": 114.872632875,
            "velocity": 0.7244094488188977
          },
          {
            "duration": 0.05405399999999361,
            "durationTicks": 48,
            "midi": 69,
            "name": "A4",
            "ticks": 102363,
            "time": 115.273533375,
            "velocity": 0.6299212598425197
          },
          {
            "duration": 0.04504500000000178,
            "durationTicks": 40,
            "midi": 72,
            "name": "C5",
            "ticks": 102364,
            "time": 115.2746595,
            "velocity": 0.5354330708661418
          },
          {
            "duration": 0.057432375000004754,
            "durationTicks": 51,
            "midi": 76,
            "name": "E5",
            "ticks": 102365,
            "time": 115.275785625,
            "velocity": 0.6299212598425197
          },
          {
            "duration": 1.085584499999996,
            "durationTicks": 964,
            "midi": 70,
            "name": "A#4",
            "ticks": 102617,
            "time": 115.559569125,
            "velocity": 0.3779527559055118
          },
          {
            "duration": 1.0698187500000103,
            "durationTicks": 950,
            "midi": 74,
            "name": "D5",
            "ticks": 102619,
            "time": 115.561821375,
            "velocity": 0.44881889763779526
          },
          {
            "duration": 1.086710624999995,
            "durationTicks": 965,
            "midi": 77,
            "name": "F5",
            "ticks": 102624,
            "time": 115.56745200000002,
            "velocity": 0.5354330708661418
          },
          {
            "duration": 0.07770262500000058,
            "durationTicks": 69,
            "midi": 70,
            "name": "A#4",
            "ticks": 103918,
            "time": 117.02465775,
            "velocity": 0.6299212598425197
          },
          {
            "duration": 0.05743237499999054,
            "durationTicks": 51,
            "midi": 67,
            "name": "G4",
            "ticks": 103919,
            "time": 117.025783875,
            "velocity": 0.7244094488188977
          },
          {
            "duration": 0.07319812500000467,
            "durationTicks": 65,
            "midi": 74,
            "name": "D5",
            "ticks": 103920,
            "time": 117.02691,
            "velocity": 0.7244094488188977
          },
          {
            "duration": 0.0653152499999976,
            "durationTicks": 58,
            "midi": 69,
            "name": "A4",
            "ticks": 104281,
            "time": 117.433441125,
            "velocity": 0.5354330708661418
          },
          {
            "duration": 0.04954949999999769,
            "durationTicks": 44,
            "midi": 72,
            "name": "C5",
            "ticks": 104282,
            "time": 117.43456725,
            "velocity": 0.5354330708661418
          },
          {
            "duration": 0.0653152499999976,
            "durationTicks": 58,
            "midi": 76,
            "name": "E5",
            "ticks": 104283,
            "time": 117.435693375,
            "velocity": 0.6299212598425197
          },
          {
            "duration": 0.9695936250000017,
            "durationTicks": 861,
            "midi": 70,
            "name": "A#4",
            "ticks": 104534,
            "time": 117.71835075,
            "velocity": 0.44881889763779526
          },
          {
            "duration": 0.9459450000000089,
            "durationTicks": 840,
            "midi": 74,
            "name": "D5",
            "ticks": 104538,
            "time": 117.72285525,
            "velocity": 0.5354330708661418
          },
          {
            "duration": 0.9549539999999865,
            "durationTicks": 848,
            "midi": 77,
            "name": "F5",
            "ticks": 104547,
            "time": 117.73299037500001,
            "velocity": 0.5354330708661418
          },
          {
            "duration": 0.06193687500000067,
            "durationTicks": 55,
            "midi": 70,
            "name": "A#4",
            "ticks": 105726,
            "time": 119.06069175,
            "velocity": 0.6299212598425197
          },
          {
            "duration": 0.05292787500000884,
            "durationTicks": 47,
            "midi": 67,
            "name": "G4",
            "ticks": 105727,
            "time": 119.061817875,
            "velocity": 0.7244094488188977
          },
          {
            "duration": 0.0596846249999885,
            "durationTicks": 53,
            "midi": 74,
            "name": "D5",
            "ticks": 105728,
            "time": 119.06294400000002,
            "velocity": 0.7244094488188977
          },
          {
            "duration": 0.06756749999999556,
            "durationTicks": 60,
            "midi": 69,
            "name": "A4",
            "ticks": 106074,
            "time": 119.45258325000002,
            "velocity": 0.5354330708661418
          },
          {
            "duration": 0.05743237499999054,
            "durationTicks": 51,
            "midi": 72,
            "name": "C5",
            "ticks": 106076,
            "time": 119.45483550000002,
            "velocity": 0.6299212598425197
          },
          {
            "duration": 0.05743237499999054,
            "durationTicks": 51,
            "midi": 76,
            "name": "E5",
            "ticks": 106076,
            "time": 119.45483550000002,
            "velocity": 0.6299212598425197
          },
          {
            "duration": 0.0653152499999976,
            "durationTicks": 58,
            "midi": 69,
            "name": "A4",
            "ticks": 106316,
            "time": 119.72510550000001,
            "velocity": 0.7244094488188977
          },
          {
            "duration": 0.08333324999999547,
            "durationTicks": 74,
            "midi": 76,
            "name": "E5",
            "ticks": 106318,
            "time": 119.72735775000001,
            "velocity": 0.7244094488188977
          },
          {
            "duration": 0.04954949999999769,
            "durationTicks": 44,
            "midi": 72,
            "name": "C5",
            "ticks": 106319,
            "time": 119.72848387500001,
            "velocity": 0.5354330708661418
          },
          {
            "duration": 0.06981974999999352,
            "durationTicks": 62,
            "midi": 70,
            "name": "A#4",
            "ticks": 106558,
            "time": 119.99762775,
            "velocity": 0.5354330708661418
          },
          {
            "duration": 0.10022512499999436,
            "durationTicks": 89,
            "midi": 77,
            "name": "F5",
            "ticks": 106560,
            "time": 119.99988,
            "velocity": 0.6299212598425197
          },
          {
            "duration": 0.05968462500000271,
            "durationTicks": 53,
            "midi": 74,
            "name": "D5",
            "ticks": 106561,
            "time": 120.001006125,
            "velocity": 0.6299212598425197
          },
          {
            "duration": 0.05968462500001692,
            "durationTicks": 53,
            "midi": 79,
            "name": "G5",
            "ticks": 106801,
            "time": 120.271276125,
            "velocity": 0.7244094488188977
          },
          {
            "duration": 0.057432375000018965,
            "durationTicks": 51,
            "midi": 72,
            "name": "C5",
            "ticks": 106802,
            "time": 120.27240225,
            "velocity": 0.6299212598425197
          },
          {
            "duration": 0.04504500000000178,
            "durationTicks": 40,
            "midi": 76,
            "name": "E5",
            "ticks": 106803,
            "time": 120.273528375,
            "velocity": 0.6299212598425197
          },
          {
            "duration": 0.08445937499999445,
            "durationTicks": 75,
            "midi": 74,
            "name": "D5",
            "ticks": 107038,
            "time": 120.53816775000001,
            "velocity": 0.44881889763779526
          },
          {
            "duration": 0.08445937500000866,
            "durationTicks": 75,
            "midi": 70,
            "name": "A#4",
            "ticks": 107044,
            "time": 120.5449245,
            "velocity": 0.44881889763779526
          },
          {
            "duration": 0.03265762500001301,
            "durationTicks": 29,
            "midi": 77,
            "name": "F5",
            "ticks": 107045,
            "time": 120.54605062499999,
            "velocity": 0.6299212598425197
          },
          {
            "duration": 0.05067562499999667,
            "durationTicks": 45,
            "midi": 76,
            "name": "E5",
            "ticks": 107277,
            "time": 120.80731162500001,
            "velocity": 0.6299212598425197
          },
          {
            "duration": 0.04279274999998961,
            "durationTicks": 38,
            "midi": 69,
            "name": "A4",
            "ticks": 107279,
            "time": 120.80956387500001,
            "velocity": 0.6299212598425197
          },
          {
            "duration": 0.030405375000000845,
            "durationTicks": 27,
            "midi": 72,
            "name": "C5",
            "ticks": 107279,
            "time": 120.80956387500001,
            "velocity": 0.5354330708661418
          },
          {
            "duration": 0.34234200000000214,
            "durationTicks": 304,
            "midi": 67,
            "name": "G4",
            "ticks": 107396,
            "time": 120.9413205,
            "velocity": 0.5354330708661418
          },
          {
            "duration": 0.34234200000000214,
            "durationTicks": 304,
            "midi": 70,
            "name": "A#4",
            "ticks": 107396,
            "time": 120.9413205,
            "velocity": 0.5354330708661418
          },
          {
            "duration": 0.34234200000000214,
            "durationTicks": 304,
            "midi": 74,
            "name": "D5",
            "ticks": 107396,
            "time": 120.9413205,
            "velocity": 0.5354330708661418
          },
          {
            "duration": 1.8817548749999986,
            "durationTicks": 1671,
            "midi": 86,
            "name": "D6",
            "ticks": 107760,
            "time": 121.35123,
            "velocity": 1
          },
          {
            "duration": 1.8817548750000128,
            "durationTicks": 1671,
            "midi": 74,
            "name": "D5",
            "ticks": 107780,
            "time": 121.3737525,
            "velocity": 0.7874015748031497
          },
          {
            "duration": 0.3344591249999951,
            "durationTicks": 297,
            "midi": 82,
            "name": "A#5",
            "ticks": 109587,
            "time": 123.40866037500001,
            "velocity": 0.7874015748031497
          },
          {
            "duration": 0.3344591249999951,
            "durationTicks": 297,
            "midi": 79,
            "name": "G5",
            "ticks": 109587,
            "time": 123.40866037500001,
            "velocity": 0.7874015748031497
          },
          {
            "duration": 0.3119366249999871,
            "durationTicks": 277,
            "midi": 75,
            "name": "D#5",
            "ticks": 109589,
            "time": 123.41091262500001,
            "velocity": 0.6929133858267716
          },
          {
            "duration": 0.3119366249999871,
            "durationTicks": 277,
            "midi": 86,
            "name": "D6",
            "ticks": 109589,
            "time": 123.41091262500001,
            "velocity": 0.984251968503937
          },
          {
            "duration": 0.13288275000000738,
            "durationTicks": 118,
            "midi": 79,
            "name": "G5",
            "ticks": 109910,
            "time": 123.77239875,
            "velocity": 0.7874015748031497
          },
          {
            "duration": 0.13288275000000738,
            "durationTicks": 118,
            "midi": 75,
            "name": "D#5",
            "ticks": 109910,
            "time": 123.77239875,
            "velocity": 0.7874015748031497
          },
          {
            "duration": 0.13288275000000738,
            "durationTicks": 118,
            "midi": 72,
            "name": "C5",
            "ticks": 109910,
            "time": 123.77239875,
            "velocity": 0.6929133858267716
          },
          {
            "duration": 0.11486475000000951,
            "durationTicks": 102,
            "midi": 82,
            "name": "A#5",
            "ticks": 109920,
            "time": 123.78366,
            "velocity": 0.984251968503937
          },
          {
            "duration": 0.07770262500001479,
            "durationTicks": 69,
            "midi": 79,
            "name": "G5",
            "ticks": 110101,
            "time": 123.987488625,
            "velocity": 0.9763779527559056
          },
          {
            "duration": 0.0810809999999833,
            "durationTicks": 72,
            "midi": 75,
            "name": "D#5",
            "ticks": 110183,
            "time": 124.07983087500001,
            "velocity": 0.8818897637795275
          },
          {
            "duration": 0.0664413750000108,
            "durationTicks": 59,
            "midi": 79,
            "name": "G5",
            "ticks": 110281,
            "time": 124.190191125,
            "velocity": 0.8818897637795275
          },
          {
            "duration": 0.056306249999991564,
            "durationTicks": 50,
            "midi": 82,
            "name": "A#5",
            "ticks": 110325,
            "time": 124.23974062500001,
            "velocity": 0.9763779527559056
          },
          {
            "duration": 0.2578826249999935,
            "durationTicks": 229,
            "midi": 86,
            "name": "D6",
            "ticks": 110381,
            "time": 124.30280362500001,
            "velocity": 0.8818897637795275
          },
          {
            "duration": 0.2027025000000009,
            "durationTicks": 180,
            "midi": 82,
            "name": "A#5",
            "ticks": 110381,
            "time": 124.30280362500001,
            "velocity": 0.8818897637795275
          },
          {
            "duration": 0.2522519999999986,
            "durationTicks": 224,
            "midi": 75,
            "name": "D#5",
            "ticks": 110385,
            "time": 124.307308125,
            "velocity": 0.6929133858267716
          },
          {
            "duration": 0.2522519999999986,
            "durationTicks": 224,
            "midi": 79,
            "name": "G5",
            "ticks": 110385,
            "time": 124.307308125,
            "velocity": 0.7874015748031497
          },
          {
            "duration": 0.15990974999999708,
            "durationTicks": 142,
            "midi": 89,
            "name": "F6",
            "ticks": 110623,
            "time": 124.575325875,
            "velocity": 0.8818897637795275
          },
          {
            "duration": 0.1261260000000135,
            "durationTicks": 112,
            "midi": 86,
            "name": "D6",
            "ticks": 110628,
            "time": 124.5809565,
            "velocity": 0.7874015748031497
          },
          {
            "duration": 0.1261260000000135,
            "durationTicks": 112,
            "midi": 82,
            "name": "A#5",
            "ticks": 110628,
            "time": 124.5809565,
            "velocity": 0.7874015748031497
          },
          {
            "duration": 0.1261260000000135,
            "durationTicks": 112,
            "midi": 79,
            "name": "G5",
            "ticks": 110628,
            "time": 124.5809565,
            "velocity": 0.7874015748031497
          },
          {
            "duration": 0.6632876250000095,
            "durationTicks": 589,
            "midi": 81,
            "name": "A5",
            "ticks": 110780,
            "time": 124.7521275,
            "velocity": 0.7874015748031497
          },
          {
            "duration": 0.6632876250000095,
            "durationTicks": 589,
            "midi": 75,
            "name": "D#5",
            "ticks": 110780,
            "time": 124.7521275,
            "velocity": 0.6929133858267716
          },
          {
            "duration": 0.6632876250000095,
            "durationTicks": 589,
            "midi": 78,
            "name": "F#5",
            "ticks": 110780,
            "time": 124.7521275,
            "velocity": 0.7874015748031497
          },
          {
            "duration": 0.6768011249999972,
            "durationTicks": 601,
            "midi": 85,
            "name": "C#6",
            "ticks": 110802,
            "time": 124.77690225,
            "velocity": 0.8818897637795275
          },
          {
            "duration": 0.29729700000000037,
            "durationTicks": 264,
            "midi": 84,
            "name": "C6",
            "ticks": 111509,
            "time": 125.57307262500001,
            "velocity": 0.984251968503937
          },
          {
            "duration": 0.2567565000000087,
            "durationTicks": 228,
            "midi": 77,
            "name": "F5",
            "ticks": 111532,
            "time": 125.5989735,
            "velocity": 0.8818897637795275
          },
          {
            "duration": 0.2567565000000087,
            "durationTicks": 228,
            "midi": 74,
            "name": "D5",
            "ticks": 111532,
            "time": 125.5989735,
            "velocity": 0.6929133858267716
          },
          {
            "duration": 0.2567565000000087,
            "durationTicks": 228,
            "midi": 81,
            "name": "A5",
            "ticks": 111532,
            "time": 125.5989735,
            "velocity": 0.8818897637795275
          },
          {
            "duration": 0.0990990000000096,
            "durationTicks": 88,
            "midi": 70,
            "name": "A#4",
            "ticks": 111825,
            "time": 125.928928125,
            "velocity": 0.6929133858267716
          },
          {
            "duration": 0.0990990000000096,
            "durationTicks": 88,
            "midi": 73,
            "name": "C#5",
            "ticks": 111825,
            "time": 125.928928125,
            "velocity": 0.7874015748031497
          },
          {
            "duration": 0.15653137500000014,
            "durationTicks": 139,
            "midi": 81,
            "name": "A5",
            "ticks": 111840,
            "time": 125.94582,
            "velocity": 0.984251968503937
          },
          {
            "duration": 0.08558550000000764,
            "durationTicks": 76,
            "midi": 77,
            "name": "F5",
            "ticks": 111842,
            "time": 125.94807225,
            "velocity": 0.8818897637795275
          },
          {
            "duration": 0.08445937500000866,
            "durationTicks": 75,
            "midi": 77,
            "name": "F5",
            "ticks": 112027,
            "time": 126.15640537499999,
            "velocity": 0.8818897637795275
          },
          {
            "duration": 0.07657649999998739,
            "durationTicks": 68,
            "midi": 74,
            "name": "D5",
            "ticks": 112119,
            "time": 126.26000887500001,
            "velocity": 0.8818897637795275
          },
          {
            "duration": 0.06531525000001182,
            "durationTicks": 58,
            "midi": 77,
            "name": "F5",
            "ticks": 112202,
            "time": 126.35347725,
            "velocity": 0.8818897637795275
          },
          {
            "duration": 0.04166662500000484,
            "durationTicks": 37,
            "midi": 81,
            "name": "A5",
            "ticks": 112263,
            "time": 126.422170875,
            "velocity": 0.9763779527559056
          },
          {
            "duration": 0.16891875000000312,
            "durationTicks": 150,
            "midi": 81,
            "name": "A5",
            "ticks": 112314,
            "time": 126.47960325000001,
            "velocity": 0.8818897637795275
          },
          {
            "duration": 0.16891875000000312,
            "durationTicks": 150,
            "midi": 77,
            "name": "F5",
            "ticks": 112319,
            "time": 126.485233875,
            "velocity": 0.8818897637795275
          },
          {
            "duration": 0.16891875000000312,
            "durationTicks": 150,
            "midi": 74,
            "name": "D5",
            "ticks": 112319,
            "time": 126.485233875,
            "velocity": 0.6929133858267716
          },
          {
            "duration": 0.14639625000000933,
            "durationTicks": 130,
            "midi": 84,
            "name": "C6",
            "ticks": 112321,
            "time": 126.487486125,
            "velocity": 0.984251968503937
          },
          {
            "duration": 0.057432375000004754,
            "durationTicks": 51,
            "midi": 81,
            "name": "A5",
            "ticks": 112489,
            "time": 126.676675125,
            "velocity": 0.7874015748031497
          },
          {
            "duration": 0.18918899999999894,
            "durationTicks": 168,
            "midi": 74,
            "name": "D5",
            "ticks": 112529,
            "time": 126.721720125,
            "velocity": 0.7874015748031497
          },
          {
            "duration": 0.1587836250000123,
            "durationTicks": 141,
            "midi": 77,
            "name": "F5",
            "ticks": 112549,
            "time": 126.744242625,
            "velocity": 0.7874015748031497
          },
          {
            "duration": 0.18918899999999894,
            "durationTicks": 168,
            "midi": 81,
            "name": "A5",
            "ticks": 112549,
            "time": 126.744242625,
            "velocity": 0.7874015748031497
          },
          {
            "duration": 0.14639625000000933,
            "durationTicks": 130,
            "midi": 84,
            "name": "C6",
            "ticks": 112561,
            "time": 126.757756125,
            "velocity": 0.984251968503937
          },
          {
            "duration": 0.6362606250000056,
            "durationTicks": 565,
            "midi": 77,
            "name": "F5",
            "ticks": 112702,
            "time": 126.91653975,
            "velocity": 0.7874015748031497
          },
          {
            "duration": 0.6362606250000056,
            "durationTicks": 565,
            "midi": 71,
            "name": "B4",
            "ticks": 112702,
            "time": 126.91653975,
            "velocity": 0.6929133858267716
          },
          {
            "duration": 0.6013507500000088,
            "durationTicks": 534,
            "midi": 80,
            "name": "G#5",
            "ticks": 112726,
            "time": 126.94356675,
            "velocity": 0.8818897637795275
          },
          {
            "duration": 0.12049537499999019,
            "durationTicks": 107,
            "midi": 79,
            "name": "G5",
            "ticks": 113443,
            "time": 127.75099837500001,
            "velocity": 0.8818897637795275
          },
          {
            "duration": 0.08671162500000662,
            "durationTicks": 77,
            "midi": 82,
            "name": "A#5",
            "ticks": 113452,
            "time": 127.7611335,
            "velocity": 0.8818897637795275
          },
          {
            "duration": 0.07207199999999148,
            "durationTicks": 64,
            "midi": 75,
            "name": "D#5",
            "ticks": 113667,
            "time": 128.00325037500002,
            "velocity": 0.7874015748031497
          },
          {
            "duration": 0.09121612499998832,
            "durationTicks": 81,
            "midi": 79,
            "name": "G5",
            "ticks": 113669,
            "time": 128.00550262500002,
            "velocity": 0.8818897637795275
          },
          {
            "duration": 0.12162150000000338,
            "durationTicks": 108,
            "midi": 82,
            "name": "A#5",
            "ticks": 113778,
            "time": 128.12825025,
            "velocity": 0.8818897637795275
          },
          {
            "duration": 0.13513500000001955,
            "durationTicks": 120,
            "midi": 79,
            "name": "G5",
            "ticks": 113779,
            "time": 128.129376375,
            "velocity": 0.8818897637795275
          },
          {
            "duration": 0.09009000000000356,
            "durationTicks": 80,
            "midi": 75,
            "name": "D#5",
            "ticks": 114011,
            "time": 128.390637375,
            "velocity": 0.7874015748031497
          },
          {
            "duration": 0.09121612499998832,
            "durationTicks": 81,
            "midi": 79,
            "name": "G5",
            "ticks": 114030,
            "time": 128.41203375,
            "velocity": 0.8818897637795275
          },
          {
            "duration": 0.11711700000000747,
            "durationTicks": 104,
            "midi": 82,
            "name": "A#5",
            "ticks": 114241,
            "time": 128.649646125,
            "velocity": 0.7874015748031497
          },
          {
            "duration": 0.11148637499999836,
            "durationTicks": 99,
            "midi": 86,
            "name": "D6",
            "ticks": 114257,
            "time": 128.66766412500002,
            "velocity": 0.8818897637795275
          },
          {
            "duration": 0.10135124999999334,
            "durationTicks": 90,
            "midi": 79,
            "name": "G5",
            "ticks": 114484,
            "time": 128.9232945,
            "velocity": 0.8818897637795275
          },
          {
            "duration": 0.09346837499998628,
            "durationTicks": 83,
            "midi": 84,
            "name": "C6",
            "ticks": 114505,
            "time": 128.94694312500002,
            "velocity": 0.8818897637795275
          },
          {
            "duration": 0.26576549999998633,
            "durationTicks": 236,
            "midi": 78,
            "name": "F#5",
            "ticks": 114728,
            "time": 129.198069,
            "velocity": 0.7874015748031497
          },
          {
            "duration": 0.3119366249999871,
            "durationTicks": 277,
            "midi": 82,
            "name": "A#5",
            "ticks": 114734,
            "time": 129.20482575,
            "velocity": 0.8818897637795275
          },
          {
            "duration": 0.13513500000001955,
            "durationTicks": 120,
            "midi": 78,
            "name": "F#5",
            "ticks": 114971,
            "time": 129.471717375,
            "velocity": 0.7874015748031497
          },
          {
            "duration": 0.11148637499999836,
            "durationTicks": 99,
            "midi": 74,
            "name": "D5",
            "ticks": 114976,
            "time": 129.477348,
            "velocity": 0.7874015748031497
          },
          {
            "duration": 0.722972249999998,
            "durationTicks": 642,
            "midi": 81,
            "name": "A5",
            "ticks": 115112,
            "time": 129.630501,
            "velocity": 0.8818897637795275
          },
          {
            "duration": 0.6779272500000104,
            "durationTicks": 602,
            "midi": 77,
            "name": "F5",
            "ticks": 115116,
            "time": 129.6350055,
            "velocity": 0.8818897637795275
          },
          {
            "duration": 0.08671162499999241,
            "durationTicks": 77,
            "midi": 82,
            "name": "A#5",
            "ticks": 115813,
            "time": 130.41991462500002,
            "velocity": 0.8818897637795275
          },
          {
            "duration": 0.10585574999998926,
            "durationTicks": 94,
            "midi": 78,
            "name": "F#5",
            "ticks": 115832,
            "time": 130.441311,
            "velocity": 0.8818897637795275
          },
          {
            "duration": 0.11261249999998313,
            "durationTicks": 100,
            "midi": 81,
            "name": "A5",
            "ticks": 116050,
            "time": 130.68680625000002,
            "velocity": 0.984251968503937
          },
          {
            "duration": 0.12725212499998406,
            "durationTicks": 113,
            "midi": 77,
            "name": "F5",
            "ticks": 116051,
            "time": 130.687932375,
            "velocity": 0.8818897637795275
          },
          {
            "duration": 0.11824312499999223,
            "durationTicks": 105,
            "midi": 74,
            "name": "D5",
            "ticks": 141237,
            "time": 159.050516625,
            "velocity": 0.984251968503937
          },
          {
            "duration": 0.11036024999998517,
            "durationTicks": 98,
            "midi": 69,
            "name": "A4",
            "ticks": 141238,
            "time": 159.05164275,
            "velocity": 0.8818897637795275
          },
          {
            "duration": 0.11036024999998517,
            "durationTicks": 98,
            "midi": 74,
            "name": "D5",
            "ticks": 143164,
            "time": 161.2205595,
            "velocity": 0.8818897637795275
          },
          {
            "duration": 0.09684674999999743,
            "durationTicks": 86,
            "midi": 70,
            "name": "A#4",
            "ticks": 143166,
            "time": 161.22281175,
            "velocity": 0.8818897637795275
          },
          {
            "duration": 0.15540525000000116,
            "durationTicks": 138,
            "midi": 69,
            "name": "A4",
            "ticks": 146310,
            "time": 164.76334875,
            "velocity": 0.7086614173228346
          },
          {
            "duration": 0.14076562500000023,
            "durationTicks": 125,
            "midi": 81,
            "name": "A5",
            "ticks": 146323,
            "time": 164.777988375,
            "velocity": 0.8818897637795275
          },
          {
            "duration": 0.12049537500001861,
            "durationTicks": 107,
            "midi": 72,
            "name": "C5",
            "ticks": 146403,
            "time": 164.868078375,
            "velocity": 0.7086614173228346
          },
          {
            "duration": 0.10247737500003495,
            "durationTicks": 91,
            "midi": 84,
            "name": "C6",
            "ticks": 146421,
            "time": 164.888348625,
            "velocity": 0.8818897637795275
          },
          {
            "duration": 0.1103602500000136,
            "durationTicks": 98,
            "midi": 73,
            "name": "C#5",
            "ticks": 146652,
            "time": 165.1484835,
            "velocity": 0.7086614173228346
          },
          {
            "duration": 0.07319812499997624,
            "durationTicks": 65,
            "midi": 85,
            "name": "C#6",
            "ticks": 146656,
            "time": 165.15298800000002,
            "velocity": 0.7874015748031497
          },
          {
            "duration": 0.17229712500002847,
            "durationTicks": 153,
            "midi": 86,
            "name": "D6",
            "ticks": 146747,
            "time": 165.255465375,
            "velocity": 0.984251968503937
          },
          {
            "duration": 0.17792775000000915,
            "durationTicks": 158,
            "midi": 74,
            "name": "D5",
            "ticks": 146752,
            "time": 165.261096,
            "velocity": 0.8818897637795275
          },
          {
            "duration": 0.1362611250000043,
            "durationTicks": 121,
            "midi": 77,
            "name": "F5",
            "ticks": 147735,
            "time": 166.368076875,
            "velocity": 0.8818897637795275
          },
          {
            "duration": 0.1407656249999718,
            "durationTicks": 125,
            "midi": 81,
            "name": "A5",
            "ticks": 147742,
            "time": 166.37595975000002,
            "velocity": 0.984251968503937
          },
          {
            "duration": 0.13851337500000227,
            "durationTicks": 123,
            "midi": 74,
            "name": "D5",
            "ticks": 147749,
            "time": 166.383842625,
            "velocity": 0.8818897637795275
          },
          {
            "duration": 0.15427912499998797,
            "durationTicks": 137,
            "midi": 77,
            "name": "F5",
            "ticks": 149653,
            "time": 168.52798462500002,
            "velocity": 0.8818897637795275
          },
          {
            "duration": 0.15090074999997682,
            "durationTicks": 134,
            "midi": 72,
            "name": "C5",
            "ticks": 149656,
            "time": 168.53136300000003,
            "velocity": 0.8818897637795275
          },
          {
            "duration": 0.13851337499997385,
            "durationTicks": 123,
            "midi": 70,
            "name": "A#4",
            "ticks": 149662,
            "time": 168.53811975000002,
            "velocity": 0.7874015748031497
          },
          {
            "duration": 0.14414400000001137,
            "durationTicks": 128,
            "midi": 74,
            "name": "D5",
            "ticks": 151574,
            "time": 170.69127075,
            "velocity": 0.8818897637795275
          },
          {
            "duration": 0.13400887499997793,
            "durationTicks": 119,
            "midi": 77,
            "name": "F5",
            "ticks": 151576,
            "time": 170.69352300000003,
            "velocity": 0.8818897637795275
          },
          {
            "duration": 0.13175662499997998,
            "durationTicks": 117,
            "midi": 81,
            "name": "A5",
            "ticks": 151578,
            "time": 170.69577525000003,
            "velocity": 0.984251968503937
          },
          {
            "duration": 0.3344591250000235,
            "durationTicks": 297,
            "midi": 67,
            "name": "G4",
            "ticks": 153612,
            "time": 172.9863135,
            "velocity": 0.8818897637795275
          },
          {
            "duration": 0.3468465000000265,
            "durationTicks": 308,
            "midi": 70,
            "name": "A#4",
            "ticks": 153614,
            "time": 172.98856575,
            "velocity": 0.7874015748031497
          },
          {
            "duration": 0.3074321250000196,
            "durationTicks": 273,
            "midi": 77,
            "name": "F5",
            "ticks": 153621,
            "time": 172.996448625,
            "velocity": 0.984251968503937
          },
          {
            "duration": 0.3626122500000122,
            "durationTicks": 322,
            "midi": 70,
            "name": "A#4",
            "ticks": 153969,
            "time": 173.388340125,
            "velocity": 0.7874015748031497
          },
          {
            "duration": 0.36824287499999286,
            "durationTicks": 327,
            "midi": 67,
            "name": "G4",
            "ticks": 153971,
            "time": 173.390592375,
            "velocity": 0.7874015748031497
          },
          {
            "duration": 0.33671137499999304,
            "durationTicks": 299,
            "midi": 75,
            "name": "D#5",
            "ticks": 153976,
            "time": 173.39622300000002,
            "velocity": 0.984251968503937
          },
          {
            "duration": 0.35247712499997874,
            "durationTicks": 313,
            "midi": 67,
            "name": "G4",
            "ticks": 154351,
            "time": 173.81851987500002,
            "velocity": 0.8818897637795275
          },
          {
            "duration": 0.3479726249999828,
            "durationTicks": 309,
            "midi": 70,
            "name": "A#4",
            "ticks": 154355,
            "time": 173.82302437500002,
            "velocity": 0.7874015748031497
          },
          {
            "duration": 0.33671137500002146,
            "durationTicks": 299,
            "midi": 74,
            "name": "D5",
            "ticks": 154358,
            "time": 173.82640275,
            "velocity": 0.984251968503937
          },
          {
            "duration": 0.2792790000000309,
            "durationTicks": 248,
            "midi": 70,
            "name": "A#4",
            "ticks": 154722,
            "time": 174.23631225,
            "velocity": 0.8818897637795275
          },
          {
            "duration": 0.2725222500000086,
            "durationTicks": 242,
            "midi": 67,
            "name": "G4",
            "ticks": 154726,
            "time": 174.24081675000002,
            "velocity": 0.8818897637795275
          },
          {
            "duration": 0.2725222500000086,
            "durationTicks": 242,
            "midi": 72,
            "name": "C5",
            "ticks": 154733,
            "time": 174.248699625,
            "velocity": 0.984251968503937
          },
          {
            "duration": 0.12725212499998406,
            "durationTicks": 113,
            "midi": 67,
            "name": "G4",
            "ticks": 155040,
            "time": 174.59442,
            "velocity": 0.8818897637795275
          },
          {
            "duration": 0.11599087499999428,
            "durationTicks": 103,
            "midi": 70,
            "name": "A#4",
            "ticks": 155040,
            "time": 174.59442,
            "velocity": 0.984251968503937
          },
          {
            "duration": 0.12725212500001248,
            "durationTicks": 113,
            "midi": 70,
            "name": "A#4",
            "ticks": 155280,
            "time": 174.86469,
            "velocity": 0.7874015748031497
          },
          {
            "duration": 0.1328827500000216,
            "durationTicks": 118,
            "midi": 67,
            "name": "G4",
            "ticks": 155280,
            "time": 174.86469,
            "velocity": 0.8818897637795275
          },
          {
            "duration": 0.12725212500001248,
            "durationTicks": 113,
            "midi": 72,
            "name": "C5",
            "ticks": 155280,
            "time": 174.86469,
            "velocity": 0.984251968503937
          },
          {
            "duration": 0.05743237499999054,
            "durationTicks": 51,
            "midi": 69,
            "name": "A4",
            "ticks": 155783,
            "time": 175.431130875,
            "velocity": 0.8818897637795275
          },
          {
            "duration": 0.06981974999999352,
            "durationTicks": 62,
            "midi": 74,
            "name": "D5",
            "ticks": 155785,
            "time": 175.433383125,
            "velocity": 0.8818897637795275
          },
          {
            "duration": 0.06306299999999965,
            "durationTicks": 56,
            "midi": 69,
            "name": "A4",
            "ticks": 156118,
            "time": 175.80838275000002,
            "velocity": 0.8818897637795275
          },
          {
            "duration": 0.07770262500000058,
            "durationTicks": 69,
            "midi": 74,
            "name": "D5",
            "ticks": 156120,
            "time": 175.81063500000002,
            "velocity": 0.8818897637795275
          },
          {
            "duration": 0.06081075000000169,
            "durationTicks": 54,
            "midi": 70,
            "name": "A#4",
            "ticks": 156697,
            "time": 176.460409125,
            "velocity": 0.7874015748031497
          },
          {
            "duration": 0.07432425000001786,
            "durationTicks": 66,
            "midi": 75,
            "name": "D#5",
            "ticks": 156700,
            "time": 176.4637875,
            "velocity": 0.8818897637795275
          },
          {
            "duration": 0.05292787499999463,
            "durationTicks": 47,
            "midi": 70,
            "name": "A#4",
            "ticks": 157110,
            "time": 176.92549875,
            "velocity": 0.7874015748031497
          },
          {
            "duration": 0.0596846249999885,
            "durationTicks": 53,
            "midi": 75,
            "name": "D#5",
            "ticks": 157113,
            "time": 176.928877125,
            "velocity": 0.8818897637795275
          },
          {
            "duration": 0.09684674999999743,
            "durationTicks": 86,
            "midi": 69,
            "name": "A4",
            "ticks": 157440,
            "time": 177.29712,
            "velocity": 0.8818897637795275
          },
          {
            "duration": 0.09684674999999743,
            "durationTicks": 86,
            "midi": 74,
            "name": "D5",
            "ticks": 157440,
            "time": 177.29712,
            "velocity": 0.8818897637795275
          },
          {
            "duration": 1.635133499999995,
            "durationTicks": 1452,
            "midi": 66,
            "name": "F#4",
            "ticks": 157925,
            "time": 177.843290625,
            "velocity": 0.8818897637795275
          },
          {
            "duration": 1.6103587500000174,
            "durationTicks": 1430,
            "midi": 72,
            "name": "C5",
            "ticks": 157930,
            "time": 177.84892125,
            "velocity": 0.8818897637795275
          },
          {
            "duration": 1.6024758750000103,
            "durationTicks": 1423,
            "midi": 77,
            "name": "F5",
            "ticks": 157932,
            "time": 177.8511735,
            "velocity": 0.984251968503937
          },
          {
            "duration": 0.13513499999999112,
            "durationTicks": 120,
            "midi": 70,
            "name": "A#4",
            "ticks": 159362,
            "time": 179.46153225,
            "velocity": 0.7874015748031497
          },
          {
            "duration": 0.1576574999999707,
            "durationTicks": 140,
            "midi": 74,
            "name": "D5",
            "ticks": 159363,
            "time": 179.46265837500002,
            "velocity": 0.8818897637795275
          },
          {
            "duration": 0.13288274999999317,
            "durationTicks": 118,
            "midi": 79,
            "name": "G5",
            "ticks": 159365,
            "time": 179.46491062500002,
            "velocity": 0.984251968503937
          },
          {
            "duration": 0.12274762499998815,
            "durationTicks": 109,
            "midi": 70,
            "name": "A#4",
            "ticks": 161276,
            "time": 181.6169355,
            "velocity": 0.8818897637795275
          },
          {
            "duration": 0.12274762500001657,
            "durationTicks": 109,
            "midi": 74,
            "name": "D5",
            "ticks": 161277,
            "time": 181.618061625,
            "velocity": 0.984251968503937
          },
          {
            "duration": 0.1306304999999952,
            "durationTicks": 116,
            "midi": 79,
            "name": "G5",
            "ticks": 161279,
            "time": 181.620313875,
            "velocity": 0.984251968503937
          },
          {
            "duration": 0.19256737499998167,
            "durationTicks": 171,
            "midi": 79,
            "name": "G5",
            "ticks": 163190,
            "time": 183.77233875000002,
            "velocity": 0.8818897637795275
          },
          {
            "duration": 0.20045024999998873,
            "durationTicks": 178,
            "midi": 74,
            "name": "D5",
            "ticks": 163190,
            "time": 183.77233875000002,
            "velocity": 0.8818897637795275
          },
          {
            "duration": 0.2072069999999826,
            "durationTicks": 184,
            "midi": 82,
            "name": "A#5",
            "ticks": 163191,
            "time": 183.773464875,
            "velocity": 0.984251968503937
          },
          {
            "duration": 1.8355837499999836,
            "durationTicks": 1630,
            "midi": 86,
            "name": "D6",
            "ticks": 165380,
            "time": 186.23855250000003,
            "velocity": 0.8818897637795275
          },
          {
            "duration": 1.0619358750000174,
            "durationTicks": 943,
            "midi": 78,
            "name": "F#5",
            "ticks": 166077,
            "time": 187.02346162499998,
            "velocity": 0.7874015748031497
          },
          {
            "duration": 1.0596836250000194,
            "durationTicks": 941,
            "midi": 74,
            "name": "D5",
            "ticks": 166079,
            "time": 187.02571387499998,
            "velocity": 0.7874015748031497
          },
          {
            "duration": 0.16666649999999095,
            "durationTicks": 148,
            "midi": 79,
            "name": "G5",
            "ticks": 167042,
            "time": 188.11017225,
            "velocity": 0.984251968503937
          },
          {
            "duration": 0.13738724999998908,
            "durationTicks": 122,
            "midi": 74,
            "name": "D5",
            "ticks": 167048,
            "time": 188.116929,
            "velocity": 0.8818897637795275
          },
          {
            "duration": 0.13738724999998908,
            "durationTicks": 122,
            "midi": 70,
            "name": "A#4",
            "ticks": 167053,
            "time": 188.122559625,
            "velocity": 0.8818897637795275
          },
          {
            "duration": 0.15202687499999,
            "durationTicks": 135,
            "midi": 70,
            "name": "A#4",
            "ticks": 168844,
            "time": 190.1394495,
            "velocity": 0.8818897637795275
          },
          {
            "duration": 0.15427912499998797,
            "durationTicks": 137,
            "midi": 74,
            "name": "D5",
            "ticks": 168851,
            "time": 190.14733237500002,
            "velocity": 0.8818897637795275
          },
          {
            "duration": 0.15990974999999708,
            "durationTicks": 142,
            "midi": 79,
            "name": "G5",
            "ticks": 168853,
            "time": 190.14958462500002,
            "velocity": 0.984251968503937
          },
          {
            "duration": 0.22635112499997945,
            "durationTicks": 201,
            "midi": 74,
            "name": "D5",
            "ticks": 170762,
            "time": 192.29935725,
            "velocity": 0.8818897637795275
          },
          {
            "duration": 0.20382862499999987,
            "durationTicks": 181,
            "midi": 79,
            "name": "G5",
            "ticks": 170764,
            "time": 192.3016095,
            "velocity": 0.8818897637795275
          },
          {
            "duration": 0.20382862499997145,
            "durationTicks": 181,
            "midi": 82,
            "name": "A#5",
            "ticks": 170769,
            "time": 192.30724012500002,
            "velocity": 0.984251968503937
          },
          {
            "duration": 0.1644142500000214,
            "durationTicks": 146,
            "midi": 74,
            "name": "D5",
            "ticks": 174149,
            "time": 196.11354262499998,
            "velocity": 0.8818897637795275
          },
          {
            "duration": 0.11261249999998313,
            "durationTicks": 100,
            "midi": 77,
            "name": "F5",
            "ticks": 174260,
            "time": 196.23854250000002,
            "velocity": 0.8818897637795275
          },
          {
            "duration": 0.1103602500000136,
            "durationTicks": 98,
            "midi": 78,
            "name": "F#5",
            "ticks": 174502,
            "time": 196.51106475,
            "velocity": 0.8818897637795275
          },
          {
            "duration": 0.119369249999977,
            "durationTicks": 106,
            "midi": 79,
            "name": "G5",
            "ticks": 174742,
            "time": 196.78133475,
            "velocity": 0.984251968503937
          },
          {
            "duration": 0.3772518750000131,
            "durationTicks": 335,
            "midi": 77,
            "name": "F5",
            "ticks": 177552,
            "time": 199.94574599999999,
            "velocity": 0.8818897637795275
          },
          {
            "duration": 0.29279250000001866,
            "durationTicks": 260,
            "midi": 75,
            "name": "D#5",
            "ticks": 177838,
            "time": 200.26781775,
            "velocity": 0.8818897637795275
          },
          {
            "duration": 0.27477449999997816,
            "durationTicks": 244,
            "midi": 70,
            "name": "A#4",
            "ticks": 178083,
            "time": 200.54371837500003,
            "velocity": 0.7874015748031497
          },
          {
            "duration": 0.2972970000000146,
            "durationTicks": 264,
            "midi": 72,
            "name": "C5",
            "ticks": 178327,
            "time": 200.818492875,
            "velocity": 0.8818897637795275
          },
          {
            "duration": 0.10698187499997402,
            "durationTicks": 95,
            "midi": 74,
            "name": "D5",
            "ticks": 178569,
            "time": 201.091015125,
            "velocity": 0.8818897637795275
          },
          {
            "duration": 0.12725212499998406,
            "durationTicks": 113,
            "midi": 74,
            "name": "D5",
            "ticks": 178822,
            "time": 201.37592475000002,
            "velocity": 0.8818897637795275
          },
          {
            "duration": 0.17342324999998482,
            "durationTicks": 154,
            "midi": 74,
            "name": "D5",
            "ticks": 179523,
            "time": 202.16533837500003,
            "velocity": 0.984251968503937
          },
          {
            "duration": 0.15540525000002958,
            "durationTicks": 138,
            "midi": 86,
            "name": "D6",
            "ticks": 179532,
            "time": 202.17547349999998,
            "velocity": 0.8818897637795275
          },
          {
            "duration": 0.07319812500000467,
            "durationTicks": 65,
            "midi": 70,
            "name": "A#4",
            "ticks": 180737,
            "time": 203.53245412500002,
            "velocity": 0.8818897637795275
          },
          {
            "duration": 0.06306299999999965,
            "durationTicks": 56,
            "midi": 74,
            "name": "D5",
            "ticks": 180739,
            "time": 203.534706375,
            "velocity": 0.984251968503937
          },
          {
            "duration": 0.09121612499998832,
            "durationTicks": 81,
            "midi": 79,
            "name": "G5",
            "ticks": 180743,
            "time": 203.539210875,
            "velocity": 0.984251968503937
          },
          {
            "duration": 0.1317566250000084,
            "durationTicks": 117,
            "midi": 67,
            "name": "G4",
            "ticks": 181135,
            "time": 203.980651875,
            "velocity": 0.8818897637795275
          },
          {
            "duration": 0.1531530000000032,
            "durationTicks": 136,
            "midi": 70,
            "name": "A#4",
            "ticks": 181219,
            "time": 204.075246375,
            "velocity": 0.7874015748031497
          },
          {
            "duration": 0.18355837500001826,
            "durationTicks": 163,
            "midi": 72,
            "name": "C5",
            "ticks": 181330,
            "time": 204.20024625,
            "velocity": 0.8818897637795275
          },
          {
            "duration": 0.09121612499998832,
            "durationTicks": 81,
            "midi": 74,
            "name": "D5",
            "ticks": 181449,
            "time": 204.33425512500003,
            "velocity": 0.8818897637795275
          },
          {
            "duration": 0.7804046249999885,
            "durationTicks": 693,
            "midi": 66,
            "name": "F#4",
            "ticks": 181702,
            "time": 204.61916475,
            "velocity": 0.8818897637795275
          },
          {
            "duration": 0.7747740000000078,
            "durationTicks": 688,
            "midi": 72,
            "name": "C5",
            "ticks": 181703,
            "time": 204.620290875,
            "velocity": 0.984251968503937
          },
          {
            "duration": 0.7894136250000088,
            "durationTicks": 701,
            "midi": 77,
            "name": "F5",
            "ticks": 181709,
            "time": 204.627047625,
            "velocity": 0.984251968503937
          },
          {
            "duration": 0.33108074999998394,
            "durationTicks": 294,
            "midi": 70,
            "name": "A#4",
            "ticks": 182403,
            "time": 205.40857837500002,
            "velocity": 0.7874015748031497
          },
          {
            "duration": 0.3333330000000103,
            "durationTicks": 296,
            "midi": 74,
            "name": "D5",
            "ticks": 182407,
            "time": 205.41308287500001,
            "velocity": 0.8818897637795275
          },
          {
            "duration": 0.3175672500000246,
            "durationTicks": 282,
            "midi": 79,
            "name": "G5",
            "ticks": 182412,
            "time": 205.4187135,
            "velocity": 0.984251968503937
          },
          {
            "duration": 0.07207199999999148,
            "durationTicks": 64,
            "midi": 70,
            "name": "A#4",
            "ticks": 182751,
            "time": 205.800469875,
            "velocity": 0.7874015748031497
          },
          {
            "duration": 0.06418912499998441,
            "durationTicks": 57,
            "midi": 74,
            "name": "D5",
            "ticks": 182761,
            "time": 205.81173112500002,
            "velocity": 0.8818897637795275
          },
          {
            "duration": 0.05743237499999054,
            "durationTicks": 51,
            "midi": 79,
            "name": "G5",
            "ticks": 182764,
            "time": 205.8151095,
            "velocity": 0.8818897637795275
          },
          {
            "duration": 0.07545037500000262,
            "durationTicks": 67,
            "midi": 70,
            "name": "A#4",
            "ticks": 183604,
            "time": 206.7610545,
            "velocity": 0.6929133858267716
          },
          {
            "duration": 0.05405400000000782,
            "durationTicks": 48,
            "midi": 74,
            "name": "D5",
            "ticks": 183612,
            "time": 206.7700635,
            "velocity": 0.7874015748031497
          },
          {
            "duration": 0.05292787499999463,
            "durationTicks": 47,
            "midi": 79,
            "name": "G5",
            "ticks": 183617,
            "time": 206.775694125,
            "velocity": 0.7874015748031497
          },
          {
            "duration": 0.056306249999977354,
            "durationTicks": 50,
            "midi": 79,
            "name": "G5",
            "ticks": 184010,
            "time": 207.21826125,
            "velocity": 0.7874015748031497
          },
          {
            "duration": 0.06756749999999556,
            "durationTicks": 60,
            "midi": 70,
            "name": "A#4",
            "ticks": 184010,
            "time": 207.21826125,
            "velocity": 0.6929133858267716
          },
          {
            "duration": 0.06869362499998033,
            "durationTicks": 61,
            "midi": 74,
            "name": "D5",
            "ticks": 184016,
            "time": 207.225018,
            "velocity": 0.7874015748031497
          },
          {
            "duration": 0.32094562500000734,
            "durationTicks": 285,
            "midi": 74,
            "name": "D5",
            "ticks": 184330,
            "time": 207.57862125,
            "velocity": 0.8818897637795275
          },
          {
            "duration": 0.28716187500000956,
            "durationTicks": 255,
            "midi": 70,
            "name": "A#4",
            "ticks": 184334,
            "time": 207.58312575,
            "velocity": 0.7874015748031497
          },
          {
            "duration": 0.2916663750000055,
            "durationTicks": 259,
            "midi": 79,
            "name": "G5",
            "ticks": 184338,
            "time": 207.58763025000002,
            "velocity": 0.8818897637795275
          },
          {
            "duration": 0.06418912500001284,
            "durationTicks": 57,
            "midi": 70,
            "name": "A#4",
            "ticks": 184677,
            "time": 207.969386625,
            "velocity": 0.7874015748031497
          },
          {
            "duration": 0.07770262500000058,
            "durationTicks": 69,
            "midi": 74,
            "name": "D5",
            "ticks": 184680,
            "time": 207.972765,
            "velocity": 0.8818897637795275
          },
          {
            "duration": 0.06081075000000169,
            "durationTicks": 54,
            "midi": 79,
            "name": "G5",
            "ticks": 184684,
            "time": 207.9772695,
            "velocity": 0.8818897637795275
          },
          {
            "duration": 0.07319812500000467,
            "durationTicks": 65,
            "midi": 70,
            "name": "A#4",
            "ticks": 185535,
            "time": 208.935601875,
            "velocity": 0.6929133858267716
          },
          {
            "duration": 0.07094587500000671,
            "durationTicks": 63,
            "midi": 65,
            "name": "F4",
            "ticks": 185539,
            "time": 208.940106375,
            "velocity": 0.7874015748031497
          },
          {
            "duration": 0.06869362500000875,
            "durationTicks": 61,
            "midi": 74,
            "name": "D5",
            "ticks": 185541,
            "time": 208.942358625,
            "velocity": 0.6929133858267716
          },
          {
            "duration": 0.0979728749999822,
            "durationTicks": 87,
            "midi": 74,
            "name": "D5",
            "ticks": 185904,
            "time": 209.351142,
            "velocity": 0.7874015748031497
          },
          {
            "duration": 0.06869362499998033,
            "durationTicks": 61,
            "midi": 70,
            "name": "A#4",
            "ticks": 185906,
            "time": 209.35339425,
            "velocity": 0.6929133858267716
          },
          {
            "duration": 0.07770262499997216,
            "durationTicks": 69,
            "midi": 65,
            "name": "F4",
            "ticks": 185911,
            "time": 209.35902487500002,
            "velocity": 0.7874015748031497
          },
          {
            "duration": 0.08896387499999037,
            "durationTicks": 79,
            "midi": 70,
            "name": "A#4",
            "ticks": 186476,
            "time": 209.99528550000002,
            "velocity": 0.6929133858267716
          },
          {
            "duration": 0.06756749999999556,
            "durationTicks": 60,
            "midi": 62,
            "name": "D4",
            "ticks": 186480,
            "time": 209.99979000000002,
            "velocity": 0.7874015748031497
          },
          {
            "duration": 0.04954949999998348,
            "durationTicks": 44,
            "midi": 67,
            "name": "G4",
            "ticks": 186489,
            "time": 210.00992512500002,
            "velocity": 0.7874015748031497
          },
          {
            "duration": 0.09684674999999743,
            "durationTicks": 86,
            "midi": 70,
            "name": "A#4",
            "ticks": 186850,
            "time": 210.41645625,
            "velocity": 0.6929133858267716
          },
          {
            "duration": 0.06756749999999556,
            "durationTicks": 60,
            "midi": 62,
            "name": "D4",
            "ticks": 186852,
            "time": 210.4187085,
            "velocity": 0.7874015748031497
          },
          {
            "duration": 0.0720720000000199,
            "durationTicks": 64,
            "midi": 67,
            "name": "G4",
            "ticks": 186854,
            "time": 210.42096075,
            "velocity": 0.7874015748031497
          },
          {
            "duration": 0.10472962500000449,
            "durationTicks": 93,
            "midi": 70,
            "name": "A#4",
            "ticks": 187448,
            "time": 211.089879,
            "velocity": 0.6929133858267716
          },
          {
            "duration": 0.08896387499999037,
            "durationTicks": 79,
            "midi": 62,
            "name": "D4",
            "ticks": 187451,
            "time": 211.093257375,
            "velocity": 0.7874015748031497
          },
          {
            "duration": 0.07995487499999854,
            "durationTicks": 71,
            "midi": 67,
            "name": "G4",
            "ticks": 187457,
            "time": 211.100014125,
            "velocity": 0.6929133858267716
          },
          {
            "duration": 0.08108100000001173,
            "durationTicks": 72,
            "midi": 62,
            "name": "D4",
            "ticks": 187838,
            "time": 211.52906775,
            "velocity": 0.7874015748031497
          },
          {
            "duration": 0.08445937499999445,
            "durationTicks": 75,
            "midi": 70,
            "name": "A#4",
            "ticks": 187840,
            "time": 211.53132,
            "velocity": 0.6929133858267716
          },
          {
            "duration": 0.06756749999999556,
            "durationTicks": 60,
            "midi": 67,
            "name": "G4",
            "ticks": 187844,
            "time": 211.5358245,
            "velocity": 0.7874015748031497
          },
          {
            "duration": 1.0529268749999687,
            "durationTicks": 935,
            "midi": 86,
            "name": "D6",
            "ticks": 188165,
            "time": 211.89731062500002,
            "velocity": 0.8818897637795275
          },
          {
            "duration": 1.0304043749999892,
            "durationTicks": 915,
            "midi": 79,
            "name": "G5",
            "ticks": 188165,
            "time": 211.89731062500002,
            "velocity": 0.7874015748031497
          },
          {
            "duration": 1.061935874999989,
            "durationTicks": 943,
            "midi": 86,
            "name": "D6",
            "ticks": 189137,
            "time": 212.99190412500002,
            "velocity": 0.7874015748031497
          },
          {
            "duration": 1.061935874999989,
            "durationTicks": 943,
            "midi": 78,
            "name": "F#5",
            "ticks": 189137,
            "time": 212.99190412500002,
            "velocity": 0.7874015748031497
          },
          {
            "duration": 0.16666649999999095,
            "durationTicks": 148,
            "midi": 79,
            "name": "G5",
            "ticks": 190062,
            "time": 214.03356975,
            "velocity": 0.984251968503937
          },
          {
            "duration": 0.13738724999998908,
            "durationTicks": 122,
            "midi": 74,
            "name": "D5",
            "ticks": 190068,
            "time": 214.04032650000002,
            "velocity": 0.8818897637795275
          },
          {
            "duration": 0.13738724999998908,
            "durationTicks": 122,
            "midi": 70,
            "name": "A#4",
            "ticks": 190073,
            "time": 214.045957125,
            "velocity": 0.8818897637795275
          },
          {
            "duration": 0.15202687499999,
            "durationTicks": 135,
            "midi": 70,
            "name": "A#4",
            "ticks": 191884,
            "time": 216.0853695,
            "velocity": 0.8818897637795275
          },
          {
            "duration": 0.15427912499998797,
            "durationTicks": 137,
            "midi": 74,
            "name": "D5",
            "ticks": 191891,
            "time": 216.09325237500002,
            "velocity": 0.8818897637795275
          },
          {
            "duration": 0.15990974999999708,
            "durationTicks": 142,
            "midi": 79,
            "name": "G5",
            "ticks": 191893,
            "time": 216.09550462500002,
            "velocity": 0.984251968503937
          },
          {
            "duration": 0.22635112499997945,
            "durationTicks": 201,
            "midi": 74,
            "name": "D5",
            "ticks": 193802,
            "time": 218.24527725000002,
            "velocity": 0.8818897637795275
          },
          {
            "duration": 0.20382862499999987,
            "durationTicks": 181,
            "midi": 79,
            "name": "G5",
            "ticks": 193804,
            "time": 218.2475295,
            "velocity": 0.8818897637795275
          },
          {
            "duration": 0.20382862499997145,
            "durationTicks": 181,
            "midi": 82,
            "name": "A#5",
            "ticks": 193809,
            "time": 218.25316012500002,
            "velocity": 0.984251968503937
          },
          {
            "duration": 0.1644142500000214,
            "durationTicks": 146,
            "midi": 74,
            "name": "D5",
            "ticks": 197189,
            "time": 222.05946262499998,
            "velocity": 0.8818897637795275
          },
          {
            "duration": 0.11261249999998313,
            "durationTicks": 100,
            "midi": 77,
            "name": "F5",
            "ticks": 197300,
            "time": 222.18446250000002,
            "velocity": 0.8818897637795275
          },
          {
            "duration": 0.1103602500000136,
            "durationTicks": 98,
            "midi": 78,
            "name": "F#5",
            "ticks": 197542,
            "time": 222.45698475,
            "velocity": 0.8818897637795275
          },
          {
            "duration": 0.119369249999977,
            "durationTicks": 106,
            "midi": 79,
            "name": "G5",
            "ticks": 197782,
            "time": 222.72725475000001,
            "velocity": 0.984251968503937
          },
          {
            "duration": 0.3772518750000131,
            "durationTicks": 335,
            "midi": 77,
            "name": "F5",
            "ticks": 200592,
            "time": 225.891666,
            "velocity": 0.8818897637795275
          },
          {
            "duration": 0.29279250000001866,
            "durationTicks": 260,
            "midi": 75,
            "name": "D#5",
            "ticks": 200878,
            "time": 226.21373775,
            "velocity": 0.8818897637795275
          },
          {
            "duration": 0.27477449999997816,
            "durationTicks": 244,
            "midi": 70,
            "name": "A#4",
            "ticks": 201123,
            "time": 226.48963837500003,
            "velocity": 0.7874015748031497
          },
          {
            "duration": 0.2972970000000146,
            "durationTicks": 264,
            "midi": 72,
            "name": "C5",
            "ticks": 201367,
            "time": 226.764412875,
            "velocity": 0.8818897637795275
          },
          {
            "duration": 0.10698187499997402,
            "durationTicks": 95,
            "midi": 74,
            "name": "D5",
            "ticks": 201609,
            "time": 227.036935125,
            "velocity": 0.8818897637795275
          },
          {
            "duration": 0.12725212499998406,
            "durationTicks": 113,
            "midi": 74,
            "name": "D5",
            "ticks": 201862,
            "time": 227.32184475000003,
            "velocity": 0.8818897637795275
          },
          {
            "duration": 0.17342324999998482,
            "durationTicks": 154,
            "midi": 74,
            "name": "D5",
            "ticks": 202563,
            "time": 228.11125837500003,
            "velocity": 0.984251968503937
          },
          {
            "duration": 0.15540525000002958,
            "durationTicks": 138,
            "midi": 86,
            "name": "D6",
            "ticks": 202572,
            "time": 228.12139349999998,
            "velocity": 0.8818897637795275
          },
          {
            "duration": 0.3344591250000235,
            "durationTicks": 297,
            "midi": 82,
            "name": "A#5",
            "ticks": 207507,
            "time": 233.678820375,
            "velocity": 0.7874015748031497
          },
          {
            "duration": 0.3344591250000235,
            "durationTicks": 297,
            "midi": 79,
            "name": "G5",
            "ticks": 207507,
            "time": 233.678820375,
            "velocity": 0.7874015748031497
          },
          {
            "duration": 0.3119366250000155,
            "durationTicks": 277,
            "midi": 75,
            "name": "D#5",
            "ticks": 207509,
            "time": 233.68107262499998,
            "velocity": 0.6929133858267716
          },
          {
            "duration": 0.3119366250000155,
            "durationTicks": 277,
            "midi": 86,
            "name": "D6",
            "ticks": 207509,
            "time": 233.68107262499998,
            "velocity": 0.984251968503937
          },
          {
            "duration": 0.1328827500000216,
            "durationTicks": 118,
            "midi": 79,
            "name": "G5",
            "ticks": 207830,
            "time": 234.04255875,
            "velocity": 0.7874015748031497
          },
          {
            "duration": 0.1328827500000216,
            "durationTicks": 118,
            "midi": 75,
            "name": "D#5",
            "ticks": 207830,
            "time": 234.04255875,
            "velocity": 0.7874015748031497
          },
          {
            "duration": 0.1328827500000216,
            "durationTicks": 118,
            "midi": 72,
            "name": "C5",
            "ticks": 207830,
            "time": 234.04255875,
            "velocity": 0.6929133858267716
          },
          {
            "duration": 0.11486474999998109,
            "durationTicks": 102,
            "midi": 82,
            "name": "A#5",
            "ticks": 207840,
            "time": 234.05382,
            "velocity": 0.984251968503937
          },
          {
            "duration": 0.07770262499997216,
            "durationTicks": 69,
            "midi": 79,
            "name": "G5",
            "ticks": 208021,
            "time": 234.25764862500003,
            "velocity": 0.9763779527559056
          },
          {
            "duration": 0.08108100000001173,
            "durationTicks": 72,
            "midi": 75,
            "name": "D#5",
            "ticks": 208103,
            "time": 234.349990875,
            "velocity": 0.8818897637795275
          },
          {
            "duration": 0.06644137499998237,
            "durationTicks": 59,
            "midi": 79,
            "name": "G5",
            "ticks": 208201,
            "time": 234.46035112500002,
            "velocity": 0.8818897637795275
          },
          {
            "duration": 0.056306250000005775,
            "durationTicks": 50,
            "midi": 82,
            "name": "A#5",
            "ticks": 208245,
            "time": 234.509900625,
            "velocity": 0.9763779527559056
          },
          {
            "duration": 0.2578826250000077,
            "durationTicks": 229,
            "midi": 86,
            "name": "D6",
            "ticks": 208301,
            "time": 234.572963625,
            "velocity": 0.8818897637795275
          },
          {
            "duration": 0.2027025000000151,
            "durationTicks": 180,
            "midi": 82,
            "name": "A#5",
            "ticks": 208301,
            "time": 234.572963625,
            "velocity": 0.8818897637795275
          },
          {
            "duration": 0.2522519999999986,
            "durationTicks": 224,
            "midi": 75,
            "name": "D#5",
            "ticks": 208305,
            "time": 234.577468125,
            "velocity": 0.6929133858267716
          },
          {
            "duration": 0.2522519999999986,
            "durationTicks": 224,
            "midi": 79,
            "name": "G5",
            "ticks": 208305,
            "time": 234.577468125,
            "velocity": 0.7874015748031497
          },
          {
            "duration": 0.15990974999999708,
            "durationTicks": 142,
            "midi": 89,
            "name": "F6",
            "ticks": 208543,
            "time": 234.845485875,
            "velocity": 0.8818897637795275
          },
          {
            "duration": 0.12612599999997087,
            "durationTicks": 112,
            "midi": 86,
            "name": "D6",
            "ticks": 208548,
            "time": 234.85111650000002,
            "velocity": 0.7874015748031497
          },
          {
            "duration": 0.12612599999997087,
            "durationTicks": 112,
            "midi": 82,
            "name": "A#5",
            "ticks": 208548,
            "time": 234.85111650000002,
            "velocity": 0.7874015748031497
          },
          {
            "duration": 0.12612599999997087,
            "durationTicks": 112,
            "midi": 79,
            "name": "G5",
            "ticks": 208548,
            "time": 234.85111650000002,
            "velocity": 0.7874015748031497
          },
          {
            "duration": 0.6632876249999811,
            "durationTicks": 589,
            "midi": 81,
            "name": "A5",
            "ticks": 208700,
            "time": 235.02228750000003,
            "velocity": 0.7874015748031497
          },
          {
            "duration": 0.6632876249999811,
            "durationTicks": 589,
            "midi": 75,
            "name": "D#5",
            "ticks": 208700,
            "time": 235.02228750000003,
            "velocity": 0.6929133858267716
          },
          {
            "duration": 0.6632876249999811,
            "durationTicks": 589,
            "midi": 78,
            "name": "F#5",
            "ticks": 208700,
            "time": 235.02228750000003,
            "velocity": 0.7874015748031497
          },
          {
            "duration": 0.6768011249999972,
            "durationTicks": 601,
            "midi": 85,
            "name": "C#6",
            "ticks": 208722,
            "time": 235.04706225,
            "velocity": 0.8818897637795275
          },
          {
            "duration": 0.2972970000000146,
            "durationTicks": 264,
            "midi": 84,
            "name": "C6",
            "ticks": 209429,
            "time": 235.84323262499998,
            "velocity": 0.984251968503937
          },
          {
            "duration": 0.2567564999999945,
            "durationTicks": 228,
            "midi": 77,
            "name": "F5",
            "ticks": 209452,
            "time": 235.8691335,
            "velocity": 0.8818897637795275
          },
          {
            "duration": 0.2567564999999945,
            "durationTicks": 228,
            "midi": 74,
            "name": "D5",
            "ticks": 209452,
            "time": 235.8691335,
            "velocity": 0.6929133858267716
          },
          {
            "duration": 0.2567564999999945,
            "durationTicks": 228,
            "midi": 81,
            "name": "A5",
            "ticks": 209452,
            "time": 235.8691335,
            "velocity": 0.8818897637795275
          },
          {
            "duration": 0.09909899999999539,
            "durationTicks": 88,
            "midi": 70,
            "name": "A#4",
            "ticks": 209745,
            "time": 236.199088125,
            "velocity": 0.6929133858267716
          },
          {
            "duration": 0.09909899999999539,
            "durationTicks": 88,
            "midi": 73,
            "name": "C#5",
            "ticks": 209745,
            "time": 236.199088125,
            "velocity": 0.7874015748031497
          },
          {
            "duration": 0.15653137500001435,
            "durationTicks": 139,
            "midi": 81,
            "name": "A5",
            "ticks": 209760,
            "time": 236.21598,
            "velocity": 0.984251968503937
          },
          {
            "duration": 0.08558550000000764,
            "durationTicks": 76,
            "midi": 77,
            "name": "F5",
            "ticks": 209762,
            "time": 236.21823225,
            "velocity": 0.8818897637795275
          },
          {
            "duration": 0.08445937499999445,
            "durationTicks": 75,
            "midi": 77,
            "name": "F5",
            "ticks": 209947,
            "time": 236.42656537500002,
            "velocity": 0.8818897637795275
          },
          {
            "duration": 0.07657649999998739,
            "durationTicks": 68,
            "midi": 74,
            "name": "D5",
            "ticks": 210039,
            "time": 236.53016887500002,
            "velocity": 0.8818897637795275
          },
          {
            "duration": 0.0653152499999976,
            "durationTicks": 58,
            "midi": 77,
            "name": "F5",
            "ticks": 210122,
            "time": 236.62363725,
            "velocity": 0.8818897637795275
          },
          {
            "duration": 0.04166662499997642,
            "durationTicks": 37,
            "midi": 81,
            "name": "A5",
            "ticks": 210183,
            "time": 236.692330875,
            "velocity": 0.9763779527559056
          },
          {
            "duration": 0.1689187499999889,
            "durationTicks": 150,
            "midi": 81,
            "name": "A5",
            "ticks": 210234,
            "time": 236.74976325000003,
            "velocity": 0.8818897637795275
          },
          {
            "duration": 0.16891875000001733,
            "durationTicks": 150,
            "midi": 77,
            "name": "F5",
            "ticks": 210239,
            "time": 236.75539387499998,
            "velocity": 0.8818897637795275
          },
          {
            "duration": 0.16891875000001733,
            "durationTicks": 150,
            "midi": 74,
            "name": "D5",
            "ticks": 210239,
            "time": 236.75539387499998,
            "velocity": 0.6929133858267716
          },
          {
            "duration": 0.1463962499999809,
            "durationTicks": 130,
            "midi": 84,
            "name": "C6",
            "ticks": 210241,
            "time": 236.75764612500004,
            "velocity": 0.984251968503937
          },
          {
            "duration": 0.05743237499999054,
            "durationTicks": 51,
            "midi": 81,
            "name": "A5",
            "ticks": 210409,
            "time": 236.946835125,
            "velocity": 0.7874015748031497
          },
          {
            "duration": 0.18918899999999894,
            "durationTicks": 168,
            "midi": 74,
            "name": "D5",
            "ticks": 210449,
            "time": 236.991880125,
            "velocity": 0.7874015748031497
          },
          {
            "duration": 0.15878362499998389,
            "durationTicks": 141,
            "midi": 77,
            "name": "F5",
            "ticks": 210469,
            "time": 237.014402625,
            "velocity": 0.7874015748031497
          },
          {
            "duration": 0.18918900000002736,
            "durationTicks": 168,
            "midi": 81,
            "name": "A5",
            "ticks": 210469,
            "time": 237.014402625,
            "velocity": 0.7874015748031497
          },
          {
            "duration": 0.1463962499999809,
            "durationTicks": 130,
            "midi": 84,
            "name": "C6",
            "ticks": 210481,
            "time": 237.02791612500002,
            "velocity": 0.984251968503937
          },
          {
            "duration": 0.6362606249999772,
            "durationTicks": 565,
            "midi": 77,
            "name": "F5",
            "ticks": 210622,
            "time": 237.18669975000003,
            "velocity": 0.7874015748031497
          },
          {
            "duration": 0.6362606249999772,
            "durationTicks": 565,
            "midi": 71,
            "name": "B4",
            "ticks": 210622,
            "time": 237.18669975000003,
            "velocity": 0.6929133858267716
          },
          {
            "duration": 0.6013507499999662,
            "durationTicks": 534,
            "midi": 80,
            "name": "G#5",
            "ticks": 210646,
            "time": 237.21372675000003,
            "velocity": 0.8818897637795275
          },
          {
            "duration": 0.12049537500001861,
            "durationTicks": 107,
            "midi": 79,
            "name": "G5",
            "ticks": 211363,
            "time": 238.021158375,
            "velocity": 0.8818897637795275
          },
          {
            "duration": 0.08671162500002083,
            "durationTicks": 77,
            "midi": 82,
            "name": "A#5",
            "ticks": 211372,
            "time": 238.0312935,
            "velocity": 0.8818897637795275
          },
          {
            "duration": 0.0720720000000199,
            "durationTicks": 64,
            "midi": 75,
            "name": "D#5",
            "ticks": 211587,
            "time": 238.273410375,
            "velocity": 0.7874015748031497
          },
          {
            "duration": 0.09121612500001675,
            "durationTicks": 81,
            "midi": 79,
            "name": "G5",
            "ticks": 211589,
            "time": 238.275662625,
            "velocity": 0.8818897637795275
          },
          {
            "duration": 0.12162150000000338,
            "durationTicks": 108,
            "midi": 82,
            "name": "A#5",
            "ticks": 211698,
            "time": 238.39841025,
            "velocity": 0.8818897637795275
          },
          {
            "duration": 0.13513500000001955,
            "durationTicks": 120,
            "midi": 79,
            "name": "G5",
            "ticks": 211699,
            "time": 238.399536375,
            "velocity": 0.8818897637795275
          },
          {
            "duration": 0.09009000000000356,
            "durationTicks": 80,
            "midi": 75,
            "name": "D#5",
            "ticks": 211931,
            "time": 238.66079737500002,
            "velocity": 0.7874015748031497
          },
          {
            "duration": 0.09121612499998832,
            "durationTicks": 81,
            "midi": 79,
            "name": "G5",
            "ticks": 211950,
            "time": 238.68219375,
            "velocity": 0.8818897637795275
          },
          {
            "duration": 0.11711699999997904,
            "durationTicks": 104,
            "midi": 82,
            "name": "A#5",
            "ticks": 212161,
            "time": 238.91980612500004,
            "velocity": 0.7874015748031497
          },
          {
            "duration": 0.11148637499999836,
            "durationTicks": 99,
            "midi": 86,
            "name": "D6",
            "ticks": 212177,
            "time": 238.93782412500002,
            "velocity": 0.8818897637795275
          },
          {
            "duration": 0.10135124999999334,
            "durationTicks": 90,
            "midi": 79,
            "name": "G5",
            "ticks": 212404,
            "time": 239.1934545,
            "velocity": 0.8818897637795275
          },
          {
            "duration": 0.0934683750000147,
            "durationTicks": 83,
            "midi": 84,
            "name": "C6",
            "ticks": 212425,
            "time": 239.217103125,
            "velocity": 0.8818897637795275
          },
          {
            "duration": 0.26576549999998633,
            "durationTicks": 236,
            "midi": 78,
            "name": "F#5",
            "ticks": 212648,
            "time": 239.468229,
            "velocity": 0.7874015748031497
          },
          {
            "duration": 0.3119366249999871,
            "durationTicks": 277,
            "midi": 82,
            "name": "A#5",
            "ticks": 212654,
            "time": 239.47498575,
            "velocity": 0.8818897637795275
          },
          {
            "duration": 0.13513500000001955,
            "durationTicks": 120,
            "midi": 78,
            "name": "F#5",
            "ticks": 212891,
            "time": 239.741877375,
            "velocity": 0.7874015748031497
          },
          {
            "duration": 0.11148637499999836,
            "durationTicks": 99,
            "midi": 74,
            "name": "D5",
            "ticks": 212896,
            "time": 239.747508,
            "velocity": 0.7874015748031497
          },
          {
            "duration": 1.4076562500000023,
            "durationTicks": 1250,
            "midi": 74,
            "name": "D5",
            "ticks": 213011,
            "time": 239.87701237500002,
            "velocity": 0.6929133858267716
          },
          {
            "duration": 1.4076562500000023,
            "durationTicks": 1250,
            "midi": 77,
            "name": "F5",
            "ticks": 213011,
            "time": 239.87701237500002,
            "velocity": 0.8818897637795275
          },
          {
            "duration": 1.4222958750000032,
            "durationTicks": 1263,
            "midi": 81,
            "name": "A5",
            "ticks": 213017,
            "time": 239.88376912500001,
            "velocity": 0.8818897637795275
          },
          {
            "duration": 0.556305750000007,
            "durationTicks": 494,
            "midi": 82,
            "name": "A#5",
            "ticks": 214326,
            "time": 241.35786675,
            "velocity": 0.8818897637795275
          },
          {
            "duration": 0.49999950000000126,
            "durationTicks": 444,
            "midi": 74,
            "name": "D5",
            "ticks": 214332,
            "time": 241.3646235,
            "velocity": 0.6929133858267716
          },
          {
            "duration": 0.49999950000000126,
            "durationTicks": 444,
            "midi": 79,
            "name": "G5",
            "ticks": 214332,
            "time": 241.3646235,
            "velocity": 0.984251968503937
          },
          {
            "duration": 0.6148642500000108,
            "durationTicks": 546,
            "midi": 84,
            "name": "C6",
            "ticks": 214804,
            "time": 241.8961545,
            "velocity": 0.8818897637795275
          },
          {
            "duration": 0.6824317500000063,
            "durationTicks": 606,
            "midi": 74,
            "name": "D5",
            "ticks": 214811,
            "time": 241.904037375,
            "velocity": 0.6929133858267716
          },
          {
            "duration": 0.6824317500000063,
            "durationTicks": 606,
            "midi": 81,
            "name": "A5",
            "ticks": 214811,
            "time": 241.904037375,
            "velocity": 0.8818897637795275
          },
          {
            "duration": 5.302922625000008,
            "durationTicks": 4709,
            "midi": 81,
            "name": "A5",
            "ticks": 215421,
            "time": 242.590973625,
            "velocity": 0.984251968503937
          },
          {
            "duration": 5.174544375000011,
            "durationTicks": 4595,
            "midi": 74,
            "name": "D5",
            "ticks": 215440,
            "time": 242.61237,
            "velocity": 0.8818897637795275
          },
          {
            "duration": 5.174544375000011,
            "durationTicks": 4595,
            "midi": 78,
            "name": "F#5",
            "ticks": 215457,
            "time": 242.631514125,
            "velocity": 0.8818897637795275
          }
        ]
      },
      {
        "channel": 0,
        "controlChanges": {
          "0": [
            {
              "number": 0,
              "ticks": 690,
              "time": 0.77702625,
              "value": 0
            },
            {
              "number": 0,
              "ticks": 710,
              "time": 0.79954875,
              "value": 0
            }
          ],
          "32": [
            {
              "number": 32,
              "ticks": 700,
              "time": 0.7882875,
              "value": 0
            },
            {
              "number": 32,
              "ticks": 710,
              "time": 0.79954875,
              "value": 0
            }
          ]
        },
        "pitchBends": [],
        "instrument": {
          "family": "piano",
          "number": 0,
          "name": "acoustic grand piano"
        },
        "name": "",
        "notes": []
      },
      {
        "channel": 4,
        "controlChanges": {
          "0": [
            {
              "number": 0,
              "ticks": 46070,
              "time": 51.880578750000005,
              "value": 0
            },
            {
              "number": 0,
              "ticks": 136310,
              "time": 153.50209875000002,
              "value": 0
            }
          ],
          "1": [
            {
              "number": 1,
              "ticks": 20625,
              "time": 23.226328125000002,
              "value": 0.031496062992125984
            },
            {
              "number": 1,
              "ticks": 20630,
              "time": 23.23195875,
              "value": 0.031496062992125984
            },
            {
              "number": 1,
              "ticks": 20640,
              "time": 23.24322,
              "value": 0.031496062992125984
            },
            {
              "number": 1,
              "ticks": 20660,
              "time": 23.265742499999998,
              "value": 0.031496062992125984
            },
            {
              "number": 1,
              "ticks": 20685,
              "time": 23.293895625,
              "value": 0.031496062992125984
            },
            {
              "number": 1,
              "ticks": 20715,
              "time": 23.327679375000002,
              "value": 0.031496062992125984
            },
            {
              "number": 1,
              "ticks": 20735,
              "time": 23.350201875,
              "value": 0.047244094488188976
            },
            {
              "number": 1,
              "ticks": 20770,
              "time": 23.389616250000003,
              "value": 0.06299212598425197
            },
            {
              "number": 1,
              "ticks": 20810,
              "time": 23.43466125,
              "value": 0.12598425196850394
            },
            {
              "number": 1,
              "ticks": 20835,
              "time": 23.462814375,
              "value": 0.15748031496062992
            },
            {
              "number": 1,
              "ticks": 20845,
              "time": 23.474075625,
              "value": 0.1732283464566929
            },
            {
              "number": 1,
              "ticks": 20850,
              "time": 23.47970625,
              "value": 0.1889763779527559
            },
            {
              "number": 1,
              "ticks": 20860,
              "time": 23.490967500000004,
              "value": 0.2204724409448819
            },
            {
              "number": 1,
              "ticks": 20875,
              "time": 23.507859375000002,
              "value": 0.23622047244094488
            },
            {
              "number": 1,
              "ticks": 20880,
              "time": 23.51349,
              "value": 0.25196850393700787
            },
            {
              "number": 1,
              "ticks": 20885,
              "time": 23.519120625,
              "value": 0.25196850393700787
            },
            {
              "number": 1,
              "ticks": 20890,
              "time": 23.52475125,
              "value": 0.2677165354330709
            },
            {
              "number": 1,
              "ticks": 20895,
              "time": 23.530381875,
              "value": 0.2677165354330709
            },
            {
              "number": 1,
              "ticks": 21180,
              "time": 23.8513275,
              "value": 0
            },
            {
              "number": 1,
              "ticks": 22545,
              "time": 25.388488125000002,
              "value": 0.015748031496062992
            },
            {
              "number": 1,
              "ticks": 22550,
              "time": 25.39411875,
              "value": 0.015748031496062992
            },
            {
              "number": 1,
              "ticks": 22580,
              "time": 25.4279025,
              "value": 0.015748031496062992
            },
            {
              "number": 1,
              "ticks": 22595,
              "time": 25.444794375,
              "value": 0.015748031496062992
            },
            {
              "number": 1,
              "ticks": 22605,
              "time": 25.456055625,
              "value": 0.031496062992125984
            },
            {
              "number": 1,
              "ticks": 22640,
              "time": 25.49547,
              "value": 0.07874015748031496
            },
            {
              "number": 1,
              "ticks": 22665,
              "time": 25.523623125,
              "value": 0.12598425196850394
            },
            {
              "number": 1,
              "ticks": 22700,
              "time": 25.5630375,
              "value": 0.15748031496062992
            },
            {
              "number": 1,
              "ticks": 22735,
              "time": 25.602451875000003,
              "value": 0.2204724409448819
            },
            {
              "number": 1,
              "ticks": 23095,
              "time": 26.007856875,
              "value": 0
            },
            {
              "number": 1,
              "ticks": 24935,
              "time": 28.079926874999998,
              "value": 0.015748031496062992
            },
            {
              "number": 1,
              "ticks": 24940,
              "time": 28.085557500000004,
              "value": 0.015748031496062992
            },
            {
              "number": 1,
              "ticks": 24985,
              "time": 28.136233125000004,
              "value": 0.015748031496062992
            },
            {
              "number": 1,
              "ticks": 25005,
              "time": 28.158755625,
              "value": 0.031496062992125984
            },
            {
              "number": 1,
              "ticks": 25030,
              "time": 28.18690875,
              "value": 0.047244094488188976
            },
            {
              "number": 1,
              "ticks": 25050,
              "time": 28.20943125,
              "value": 0.06299212598425197
            },
            {
              "number": 1,
              "ticks": 25090,
              "time": 28.254476250000003,
              "value": 0.12598425196850394
            },
            {
              "number": 1,
              "ticks": 25105,
              "time": 28.271368125000002,
              "value": 0.15748031496062992
            },
            {
              "number": 1,
              "ticks": 25130,
              "time": 28.29952125,
              "value": 0.2204724409448819
            },
            {
              "number": 1,
              "ticks": 25525,
              "time": 28.744340625000003,
              "value": 0
            },
            {
              "number": 1,
              "ticks": 110865,
              "time": 124.847848125,
              "value": 0.031496062992125984
            },
            {
              "number": 1,
              "ticks": 110870,
              "time": 124.85347875,
              "value": 0.031496062992125984
            },
            {
              "number": 1,
              "ticks": 110880,
              "time": 124.86474000000001,
              "value": 0.031496062992125984
            },
            {
              "number": 1,
              "ticks": 110900,
              "time": 124.8872625,
              "value": 0.031496062992125984
            },
            {
              "number": 1,
              "ticks": 110925,
              "time": 124.91541562500001,
              "value": 0.031496062992125984
            },
            {
              "number": 1,
              "ticks": 110955,
              "time": 124.949199375,
              "value": 0.031496062992125984
            },
            {
              "number": 1,
              "ticks": 110975,
              "time": 124.971721875,
              "value": 0.047244094488188976
            },
            {
              "number": 1,
              "ticks": 111010,
              "time": 125.01113625,
              "value": 0.06299212598425197
            },
            {
              "number": 1,
              "ticks": 111050,
              "time": 125.05618125,
              "value": 0.12598425196850394
            },
            {
              "number": 1,
              "ticks": 111075,
              "time": 125.08433437500001,
              "value": 0.15748031496062992
            },
            {
              "number": 1,
              "ticks": 111085,
              "time": 125.09559562500002,
              "value": 0.1732283464566929
            },
            {
              "number": 1,
              "ticks": 111090,
              "time": 125.10122625000001,
              "value": 0.1889763779527559
            },
            {
              "number": 1,
              "ticks": 111100,
              "time": 125.11248750000001,
              "value": 0.2204724409448819
            },
            {
              "number": 1,
              "ticks": 111115,
              "time": 125.12937937500001,
              "value": 0.23622047244094488
            },
            {
              "number": 1,
              "ticks": 111120,
              "time": 125.13501000000001,
              "value": 0.25196850393700787
            },
            {
              "number": 1,
              "ticks": 111125,
              "time": 125.140640625,
              "value": 0.25196850393700787
            },
            {
              "number": 1,
              "ticks": 111130,
              "time": 125.14627125000001,
              "value": 0.2677165354330709
            },
            {
              "number": 1,
              "ticks": 111135,
              "time": 125.15190187500001,
              "value": 0.2677165354330709
            },
            {
              "number": 1,
              "ticks": 111420,
              "time": 125.4728475,
              "value": 0
            },
            {
              "number": 1,
              "ticks": 112785,
              "time": 127.010008125,
              "value": 0.015748031496062992
            },
            {
              "number": 1,
              "ticks": 112790,
              "time": 127.01563875,
              "value": 0.015748031496062992
            },
            {
              "number": 1,
              "ticks": 112820,
              "time": 127.0494225,
              "value": 0.015748031496062992
            },
            {
              "number": 1,
              "ticks": 112835,
              "time": 127.066314375,
              "value": 0.015748031496062992
            },
            {
              "number": 1,
              "ticks": 112845,
              "time": 127.07757562500001,
              "value": 0.031496062992125984
            },
            {
              "number": 1,
              "ticks": 112880,
              "time": 127.11699,
              "value": 0.07874015748031496
            },
            {
              "number": 1,
              "ticks": 112905,
              "time": 127.145143125,
              "value": 0.12598425196850394
            },
            {
              "number": 1,
              "ticks": 112940,
              "time": 127.1845575,
              "value": 0.15748031496062992
            },
            {
              "number": 1,
              "ticks": 112975,
              "time": 127.223971875,
              "value": 0.2204724409448819
            },
            {
              "number": 1,
              "ticks": 113335,
              "time": 127.629376875,
              "value": 0
            },
            {
              "number": 1,
              "ticks": 115175,
              "time": 129.701446875,
              "value": 0.015748031496062992
            },
            {
              "number": 1,
              "ticks": 115180,
              "time": 129.7070775,
              "value": 0.015748031496062992
            },
            {
              "number": 1,
              "ticks": 115225,
              "time": 129.75775312500002,
              "value": 0.015748031496062992
            },
            {
              "number": 1,
              "ticks": 115245,
              "time": 129.780275625,
              "value": 0.031496062992125984
            },
            {
              "number": 1,
              "ticks": 115270,
              "time": 129.80842875000002,
              "value": 0.047244094488188976
            },
            {
              "number": 1,
              "ticks": 115290,
              "time": 129.83095125,
              "value": 0.06299212598425197
            },
            {
              "number": 1,
              "ticks": 115330,
              "time": 129.87599625000001,
              "value": 0.12598425196850394
            },
            {
              "number": 1,
              "ticks": 115345,
              "time": 129.892888125,
              "value": 0.15748031496062992
            },
            {
              "number": 1,
              "ticks": 115370,
              "time": 129.92104125,
              "value": 0.2204724409448819
            },
            {
              "number": 1,
              "ticks": 115765,
              "time": 130.365860625,
              "value": 0
            },
            {
              "number": 1,
              "ticks": 208785,
              "time": 235.11800812500002,
              "value": 0.031496062992125984
            },
            {
              "number": 1,
              "ticks": 208790,
              "time": 235.12363875000003,
              "value": 0.031496062992125984
            },
            {
              "number": 1,
              "ticks": 208800,
              "time": 235.13490000000002,
              "value": 0.031496062992125984
            },
            {
              "number": 1,
              "ticks": 208820,
              "time": 235.15742250000002,
              "value": 0.031496062992125984
            },
            {
              "number": 1,
              "ticks": 208845,
              "time": 235.185575625,
              "value": 0.031496062992125984
            },
            {
              "number": 1,
              "ticks": 208875,
              "time": 235.219359375,
              "value": 0.031496062992125984
            },
            {
              "number": 1,
              "ticks": 208895,
              "time": 235.24188187500002,
              "value": 0.047244094488188976
            },
            {
              "number": 1,
              "ticks": 208930,
              "time": 235.28129625,
              "value": 0.06299212598425197
            },
            {
              "number": 1,
              "ticks": 208970,
              "time": 235.32634125,
              "value": 0.12598425196850394
            },
            {
              "number": 1,
              "ticks": 208995,
              "time": 235.354494375,
              "value": 0.15748031496062992
            },
            {
              "number": 1,
              "ticks": 209005,
              "time": 235.365755625,
              "value": 0.1732283464566929
            },
            {
              "number": 1,
              "ticks": 209010,
              "time": 235.37138625,
              "value": 0.1889763779527559
            },
            {
              "number": 1,
              "ticks": 209020,
              "time": 235.3826475,
              "value": 0.2204724409448819
            },
            {
              "number": 1,
              "ticks": 209035,
              "time": 235.399539375,
              "value": 0.23622047244094488
            },
            {
              "number": 1,
              "ticks": 209040,
              "time": 235.40517,
              "value": 0.25196850393700787
            },
            {
              "number": 1,
              "ticks": 209045,
              "time": 235.410800625,
              "value": 0.25196850393700787
            },
            {
              "number": 1,
              "ticks": 209050,
              "time": 235.41643125,
              "value": 0.2677165354330709
            },
            {
              "number": 1,
              "ticks": 209055,
              "time": 235.422061875,
              "value": 0.2677165354330709
            },
            {
              "number": 1,
              "ticks": 209340,
              "time": 235.7430075,
              "value": 0
            },
            {
              "number": 1,
              "ticks": 210705,
              "time": 237.28016812500002,
              "value": 0.015748031496062992
            },
            {
              "number": 1,
              "ticks": 210710,
              "time": 237.28579875000003,
              "value": 0.015748031496062992
            },
            {
              "number": 1,
              "ticks": 210740,
              "time": 237.31958250000002,
              "value": 0.015748031496062992
            },
            {
              "number": 1,
              "ticks": 210755,
              "time": 237.33647437500002,
              "value": 0.015748031496062992
            },
            {
              "number": 1,
              "ticks": 210765,
              "time": 237.347735625,
              "value": 0.031496062992125984
            },
            {
              "number": 1,
              "ticks": 210800,
              "time": 237.38715000000002,
              "value": 0.07874015748031496
            },
            {
              "number": 1,
              "ticks": 210825,
              "time": 237.415303125,
              "value": 0.12598425196850394
            },
            {
              "number": 1,
              "ticks": 210860,
              "time": 237.45471750000002,
              "value": 0.15748031496062992
            },
            {
              "number": 1,
              "ticks": 210895,
              "time": 237.494131875,
              "value": 0.2204724409448819
            },
            {
              "number": 1,
              "ticks": 211255,
              "time": 237.899536875,
              "value": 0
            },
            {
              "number": 1,
              "ticks": 213095,
              "time": 239.97160687500002,
              "value": 0.015748031496062992
            },
            {
              "number": 1,
              "ticks": 213100,
              "time": 239.9772375,
              "value": 0.015748031496062992
            },
            {
              "number": 1,
              "ticks": 213145,
              "time": 240.027913125,
              "value": 0.015748031496062992
            },
            {
              "number": 1,
              "ticks": 213165,
              "time": 240.050435625,
              "value": 0.031496062992125984
            },
            {
              "number": 1,
              "ticks": 213190,
              "time": 240.07858875,
              "value": 0.047244094488188976
            },
            {
              "number": 1,
              "ticks": 213210,
              "time": 240.10111125,
              "value": 0.06299212598425197
            },
            {
              "number": 1,
              "ticks": 213250,
              "time": 240.14615625,
              "value": 0.12598425196850394
            },
            {
              "number": 1,
              "ticks": 213265,
              "time": 240.163048125,
              "value": 0.15748031496062992
            },
            {
              "number": 1,
              "ticks": 213290,
              "time": 240.19120125,
              "value": 0.2204724409448819
            },
            {
              "number": 1,
              "ticks": 213685,
              "time": 240.636020625,
              "value": 0
            }
          ],
          "6": [
            {
              "number": 6,
              "ticks": 760,
              "time": 0.855855,
              "value": 0.015748031496062992
            },
            {
              "number": 6,
              "ticks": 69110,
              "time": 77.82649875,
              "value": 0.5039370078740157
            },
            {
              "number": 6,
              "ticks": 70940,
              "time": 79.88730749999999,
              "value": 0.5039370078740157
            },
            {
              "number": 6,
              "ticks": 72950,
              "time": 82.15081875,
              "value": 0.5039370078740157
            },
            {
              "number": 6,
              "ticks": 159350,
              "time": 179.44801875000002,
              "value": 0.5039370078740157
            },
            {
              "number": 6,
              "ticks": 161180,
              "time": 181.50882750000002,
              "value": 0.5039370078740157
            },
            {
              "number": 6,
              "ticks": 163190,
              "time": 183.77233875000002,
              "value": 0.5039370078740157
            }
          ],
          "7": [
            {
              "number": 7,
              "ticks": 720,
              "time": 0.81081,
              "value": 0.7086614173228346
            }
          ],
          "10": [
            {
              "number": 10,
              "ticks": 720,
              "time": 0.81081,
              "value": 0.5826771653543307
            }
          ],
          "11": [
            {
              "number": 11,
              "ticks": 46060,
              "time": 51.8693175,
              "value": 1
            },
            {
              "number": 11,
              "ticks": 67765,
              "time": 76.31186062500001,
              "value": 1
            },
            {
              "number": 11,
              "ticks": 67780,
              "time": 76.32875250000001,
              "value": 0.9763779527559056
            },
            {
              "number": 11,
              "ticks": 67795,
              "time": 76.345644375,
              "value": 0.952755905511811
            },
            {
              "number": 11,
              "ticks": 67810,
              "time": 76.36253625,
              "value": 0.9291338582677166
            },
            {
              "number": 11,
              "ticks": 67825,
              "time": 76.379428125,
              "value": 0.905511811023622
            },
            {
              "number": 11,
              "ticks": 67840,
              "time": 76.39632,
              "value": 0.8818897637795275
            },
            {
              "number": 11,
              "ticks": 67855,
              "time": 76.413211875,
              "value": 0.8582677165354331
            },
            {
              "number": 11,
              "ticks": 67870,
              "time": 76.43010375000001,
              "value": 0.8346456692913385
            },
            {
              "number": 11,
              "ticks": 67885,
              "time": 76.44699562500001,
              "value": 0.8110236220472441
            },
            {
              "number": 11,
              "ticks": 67900,
              "time": 76.46388750000001,
              "value": 0.7874015748031497
            },
            {
              "number": 11,
              "ticks": 67915,
              "time": 76.48077937500001,
              "value": 0.7637795275590551
            },
            {
              "number": 11,
              "ticks": 67930,
              "time": 76.49767125000001,
              "value": 0.7401574803149606
            },
            {
              "number": 11,
              "ticks": 67945,
              "time": 76.51456312500001,
              "value": 0.7165354330708661
            },
            {
              "number": 11,
              "ticks": 67960,
              "time": 76.53145500000001,
              "value": 0.6929133858267716
            },
            {
              "number": 11,
              "ticks": 67975,
              "time": 76.54834687500001,
              "value": 0.6692913385826772
            },
            {
              "number": 11,
              "ticks": 67990,
              "time": 76.56523875,
              "value": 0.6456692913385826
            },
            {
              "number": 11,
              "ticks": 68005,
              "time": 76.582130625,
              "value": 0.6220472440944882
            },
            {
              "number": 11,
              "ticks": 68020,
              "time": 76.5990225,
              "value": 0.5984251968503937
            },
            {
              "number": 11,
              "ticks": 68265,
              "time": 76.87492312500001,
              "value": 0.5905511811023622
            },
            {
              "number": 11,
              "ticks": 68280,
              "time": 76.89181500000001,
              "value": 0.5984251968503937
            },
            {
              "number": 11,
              "ticks": 68295,
              "time": 76.90870687500001,
              "value": 0.6141732283464567
            },
            {
              "number": 11,
              "ticks": 68310,
              "time": 76.92559875,
              "value": 0.6299212598425197
            },
            {
              "number": 11,
              "ticks": 68325,
              "time": 76.942490625,
              "value": 0.6377952755905512
            },
            {
              "number": 11,
              "ticks": 68340,
              "time": 76.9593825,
              "value": 0.6535433070866141
            },
            {
              "number": 11,
              "ticks": 68355,
              "time": 76.976274375,
              "value": 0.6614173228346457
            },
            {
              "number": 11,
              "ticks": 68370,
              "time": 76.99316625,
              "value": 0.6771653543307087
            },
            {
              "number": 11,
              "ticks": 68385,
              "time": 77.010058125,
              "value": 0.6850393700787402
            },
            {
              "number": 11,
              "ticks": 68400,
              "time": 77.02695,
              "value": 0.7007874015748031
            },
            {
              "number": 11,
              "ticks": 68415,
              "time": 77.043841875,
              "value": 0.7165354330708661
            },
            {
              "number": 11,
              "ticks": 68430,
              "time": 77.06073375,
              "value": 0.7244094488188977
            },
            {
              "number": 11,
              "ticks": 68445,
              "time": 77.077625625,
              "value": 0.7322834645669292
            },
            {
              "number": 11,
              "ticks": 68460,
              "time": 77.09451750000001,
              "value": 0.7480314960629921
            },
            {
              "number": 11,
              "ticks": 68475,
              "time": 77.11140937500001,
              "value": 0.7559055118110236
            },
            {
              "number": 11,
              "ticks": 68490,
              "time": 77.12830125,
              "value": 0.7716535433070866
            },
            {
              "number": 11,
              "ticks": 68505,
              "time": 77.145193125,
              "value": 0.7795275590551181
            },
            {
              "number": 11,
              "ticks": 68520,
              "time": 77.162085,
              "value": 0.7952755905511811
            },
            {
              "number": 11,
              "ticks": 68535,
              "time": 77.178976875,
              "value": 0.8031496062992126
            },
            {
              "number": 11,
              "ticks": 68550,
              "time": 77.19586875,
              "value": 0.8110236220472441
            },
            {
              "number": 11,
              "ticks": 68565,
              "time": 77.212760625,
              "value": 0.8267716535433071
            },
            {
              "number": 11,
              "ticks": 68580,
              "time": 77.2296525,
              "value": 0.8346456692913385
            },
            {
              "number": 11,
              "ticks": 68595,
              "time": 77.246544375,
              "value": 0.84251968503937
            },
            {
              "number": 11,
              "ticks": 68610,
              "time": 77.26343625,
              "value": 0.8503937007874016
            },
            {
              "number": 11,
              "ticks": 68625,
              "time": 77.280328125,
              "value": 0.8661417322834646
            },
            {
              "number": 11,
              "ticks": 68640,
              "time": 77.29722000000001,
              "value": 0.8740157480314961
            },
            {
              "number": 11,
              "ticks": 68655,
              "time": 77.31411187500001,
              "value": 0.8818897637795275
            },
            {
              "number": 11,
              "ticks": 68670,
              "time": 77.33100375000001,
              "value": 0.8976377952755905
            },
            {
              "number": 11,
              "ticks": 68685,
              "time": 77.347895625,
              "value": 0.905511811023622
            },
            {
              "number": 11,
              "ticks": 68700,
              "time": 77.3647875,
              "value": 0.9133858267716536
            },
            {
              "number": 11,
              "ticks": 68715,
              "time": 77.381679375,
              "value": 0.9212598425196851
            },
            {
              "number": 11,
              "ticks": 68730,
              "time": 77.39857125,
              "value": 0.9291338582677166
            },
            {
              "number": 11,
              "ticks": 68745,
              "time": 77.415463125,
              "value": 0.937007874015748
            },
            {
              "number": 11,
              "ticks": 68760,
              "time": 77.432355,
              "value": 0.952755905511811
            },
            {
              "number": 11,
              "ticks": 68775,
              "time": 77.449246875,
              "value": 0.9606299212598425
            },
            {
              "number": 11,
              "ticks": 68790,
              "time": 77.46613875,
              "value": 0.968503937007874
            },
            {
              "number": 11,
              "ticks": 68805,
              "time": 77.483030625,
              "value": 0.9763779527559056
            },
            {
              "number": 11,
              "ticks": 68820,
              "time": 77.4999225,
              "value": 0.984251968503937
            },
            {
              "number": 11,
              "ticks": 68835,
              "time": 77.51681437500001,
              "value": 0.9921259842519685
            },
            {
              "number": 11,
              "ticks": 136300,
              "time": 153.4908375,
              "value": 1
            },
            {
              "number": 11,
              "ticks": 158005,
              "time": 177.93338062499998,
              "value": 1
            },
            {
              "number": 11,
              "ticks": 158020,
              "time": 177.95027249999998,
              "value": 0.9763779527559056
            },
            {
              "number": 11,
              "ticks": 158035,
              "time": 177.967164375,
              "value": 0.952755905511811
            },
            {
              "number": 11,
              "ticks": 158050,
              "time": 177.98405625,
              "value": 0.9291338582677166
            },
            {
              "number": 11,
              "ticks": 158065,
              "time": 178.000948125,
              "value": 0.905511811023622
            },
            {
              "number": 11,
              "ticks": 158080,
              "time": 178.01784,
              "value": 0.8818897637795275
            },
            {
              "number": 11,
              "ticks": 158095,
              "time": 178.034731875,
              "value": 0.8582677165354331
            },
            {
              "number": 11,
              "ticks": 158110,
              "time": 178.05162375,
              "value": 0.8346456692913385
            },
            {
              "number": 11,
              "ticks": 158125,
              "time": 178.068515625,
              "value": 0.8110236220472441
            },
            {
              "number": 11,
              "ticks": 158140,
              "time": 178.0854075,
              "value": 0.7874015748031497
            },
            {
              "number": 11,
              "ticks": 158155,
              "time": 178.102299375,
              "value": 0.7637795275590551
            },
            {
              "number": 11,
              "ticks": 158170,
              "time": 178.11919125,
              "value": 0.7401574803149606
            },
            {
              "number": 11,
              "ticks": 158185,
              "time": 178.136083125,
              "value": 0.7165354330708661
            },
            {
              "number": 11,
              "ticks": 158200,
              "time": 178.152975,
              "value": 0.6929133858267716
            },
            {
              "number": 11,
              "ticks": 158215,
              "time": 178.169866875,
              "value": 0.6692913385826772
            },
            {
              "number": 11,
              "ticks": 158230,
              "time": 178.18675875,
              "value": 0.6456692913385826
            },
            {
              "number": 11,
              "ticks": 158245,
              "time": 178.203650625,
              "value": 0.6220472440944882
            },
            {
              "number": 11,
              "ticks": 158260,
              "time": 178.2205425,
              "value": 0.5984251968503937
            },
            {
              "number": 11,
              "ticks": 158505,
              "time": 178.496443125,
              "value": 0.5905511811023622
            },
            {
              "number": 11,
              "ticks": 158520,
              "time": 178.513335,
              "value": 0.5984251968503937
            },
            {
              "number": 11,
              "ticks": 158535,
              "time": 178.530226875,
              "value": 0.6141732283464567
            },
            {
              "number": 11,
              "ticks": 158550,
              "time": 178.54711875,
              "value": 0.6299212598425197
            },
            {
              "number": 11,
              "ticks": 158565,
              "time": 178.564010625,
              "value": 0.6377952755905512
            },
            {
              "number": 11,
              "ticks": 158580,
              "time": 178.5809025,
              "value": 0.6535433070866141
            },
            {
              "number": 11,
              "ticks": 158595,
              "time": 178.597794375,
              "value": 0.6614173228346457
            },
            {
              "number": 11,
              "ticks": 158610,
              "time": 178.61468625,
              "value": 0.6771653543307087
            },
            {
              "number": 11,
              "ticks": 158625,
              "time": 178.631578125,
              "value": 0.6850393700787402
            },
            {
              "number": 11,
              "ticks": 158640,
              "time": 178.64847,
              "value": 0.7007874015748031
            },
            {
              "number": 11,
              "ticks": 158655,
              "time": 178.665361875,
              "value": 0.7165354330708661
            },
            {
              "number": 11,
              "ticks": 158670,
              "time": 178.68225375,
              "value": 0.7244094488188977
            },
            {
              "number": 11,
              "ticks": 158685,
              "time": 178.699145625,
              "value": 0.7322834645669292
            },
            {
              "number": 11,
              "ticks": 158700,
              "time": 178.7160375,
              "value": 0.7480314960629921
            },
            {
              "number": 11,
              "ticks": 158715,
              "time": 178.732929375,
              "value": 0.7559055118110236
            },
            {
              "number": 11,
              "ticks": 158730,
              "time": 178.74982125,
              "value": 0.7716535433070866
            },
            {
              "number": 11,
              "ticks": 158745,
              "time": 178.766713125,
              "value": 0.7795275590551181
            },
            {
              "number": 11,
              "ticks": 158760,
              "time": 178.783605,
              "value": 0.7952755905511811
            },
            {
              "number": 11,
              "ticks": 158775,
              "time": 178.800496875,
              "value": 0.8031496062992126
            },
            {
              "number": 11,
              "ticks": 158790,
              "time": 178.81738875000002,
              "value": 0.8110236220472441
            },
            {
              "number": 11,
              "ticks": 158805,
              "time": 178.83428062500002,
              "value": 0.8267716535433071
            },
            {
              "number": 11,
              "ticks": 158820,
              "time": 178.85117250000002,
              "value": 0.8346456692913385
            },
            {
              "number": 11,
              "ticks": 158835,
              "time": 178.86806437500002,
              "value": 0.84251968503937
            },
            {
              "number": 11,
              "ticks": 158850,
              "time": 178.88495625000002,
              "value": 0.8503937007874016
            },
            {
              "number": 11,
              "ticks": 158865,
              "time": 178.90184812500001,
              "value": 0.8661417322834646
            },
            {
              "number": 11,
              "ticks": 158880,
              "time": 178.91874,
              "value": 0.8740157480314961
            },
            {
              "number": 11,
              "ticks": 158895,
              "time": 178.935631875,
              "value": 0.8818897637795275
            },
            {
              "number": 11,
              "ticks": 158910,
              "time": 178.95252375,
              "value": 0.8976377952755905
            },
            {
              "number": 11,
              "ticks": 158925,
              "time": 178.969415625,
              "value": 0.905511811023622
            },
            {
              "number": 11,
              "ticks": 158940,
              "time": 178.9863075,
              "value": 0.9133858267716536
            },
            {
              "number": 11,
              "ticks": 158955,
              "time": 179.003199375,
              "value": 0.9212598425196851
            },
            {
              "number": 11,
              "ticks": 158970,
              "time": 179.02009125,
              "value": 0.9291338582677166
            },
            {
              "number": 11,
              "ticks": 158985,
              "time": 179.036983125,
              "value": 0.937007874015748
            },
            {
              "number": 11,
              "ticks": 159000,
              "time": 179.053875,
              "value": 0.952755905511811
            },
            {
              "number": 11,
              "ticks": 159015,
              "time": 179.070766875,
              "value": 0.9606299212598425
            },
            {
              "number": 11,
              "ticks": 159030,
              "time": 179.08765875,
              "value": 0.968503937007874
            },
            {
              "number": 11,
              "ticks": 159045,
              "time": 179.104550625,
              "value": 0.9763779527559056
            },
            {
              "number": 11,
              "ticks": 159060,
              "time": 179.1214425,
              "value": 0.984251968503937
            },
            {
              "number": 11,
              "ticks": 159075,
              "time": 179.138334375,
              "value": 0.9921259842519685
            },
            {
              "number": 11,
              "ticks": 215780,
              "time": 242.99525250000002,
              "value": 1
            },
            {
              "number": 11,
              "ticks": 215834,
              "time": 243.05606325,
              "value": 0.9921259842519685
            },
            {
              "number": 11,
              "ticks": 215889,
              "time": 243.118000125,
              "value": 0.984251968503937
            },
            {
              "number": 11,
              "ticks": 215943,
              "time": 243.178810875,
              "value": 0.9763779527559056
            },
            {
              "number": 11,
              "ticks": 215998,
              "time": 243.24074775000003,
              "value": 0.968503937007874
            },
            {
              "number": 11,
              "ticks": 216052,
              "time": 243.30155850000003,
              "value": 0.9606299212598425
            },
            {
              "number": 11,
              "ticks": 216107,
              "time": 243.363495375,
              "value": 0.952755905511811
            },
            {
              "number": 11,
              "ticks": 216161,
              "time": 243.42430612500002,
              "value": 0.9448818897637795
            },
            {
              "number": 11,
              "ticks": 216216,
              "time": 243.486243,
              "value": 0.937007874015748
            },
            {
              "number": 11,
              "ticks": 216271,
              "time": 243.54817987500002,
              "value": 0.9291338582677166
            },
            {
              "number": 11,
              "ticks": 216325,
              "time": 243.608990625,
              "value": 0.9212598425196851
            },
            {
              "number": 11,
              "ticks": 216380,
              "time": 243.67092750000003,
              "value": 0.9133858267716536
            },
            {
              "number": 11,
              "ticks": 216434,
              "time": 243.73173825,
              "value": 0.905511811023622
            },
            {
              "number": 11,
              "ticks": 216489,
              "time": 243.79367512500002,
              "value": 0.8976377952755905
            },
            {
              "number": 11,
              "ticks": 216543,
              "time": 243.85448587500002,
              "value": 0.889763779527559
            },
            {
              "number": 11,
              "ticks": 216598,
              "time": 243.91642275,
              "value": 0.8818897637795275
            },
            {
              "number": 11,
              "ticks": 216653,
              "time": 243.978359625,
              "value": 0.8740157480314961
            },
            {
              "number": 11,
              "ticks": 216707,
              "time": 244.039170375,
              "value": 0.8661417322834646
            },
            {
              "number": 11,
              "ticks": 216762,
              "time": 244.10110724999998,
              "value": 0.8582677165354331
            },
            {
              "number": 11,
              "ticks": 216816,
              "time": 244.16191800000001,
              "value": 0.8503937007874016
            },
            {
              "number": 11,
              "ticks": 216871,
              "time": 244.22385487500003,
              "value": 0.84251968503937
            },
            {
              "number": 11,
              "ticks": 216925,
              "time": 244.284665625,
              "value": 0.8346456692913385
            },
            {
              "number": 11,
              "ticks": 216980,
              "time": 244.34660250000002,
              "value": 0.8267716535433071
            },
            {
              "number": 11,
              "ticks": 221085,
              "time": 248.96934562500002,
              "value": 1
            }
          ],
          "32": [
            {
              "number": 32,
              "ticks": 46070,
              "time": 51.880578750000005,
              "value": 0
            },
            {
              "number": 32,
              "ticks": 136310,
              "time": 153.50209875000002,
              "value": 0
            }
          ],
          "38": [
            {
              "number": 38,
              "ticks": 750,
              "time": 0.84459375,
              "value": 0.015748031496062992
            }
          ],
          "91": [
            {
              "number": 91,
              "ticks": 720,
              "time": 0.81081,
              "value": 0.23622047244094488
            }
          ],
          "93": [
            {
              "number": 93,
              "ticks": 720,
              "time": 0.81081,
              "value": 0.15748031496062992
            }
          ],
          "98": [
            {
              "number": 98,
              "ticks": 69100,
              "time": 77.81523750000001,
              "value": 0.7795275590551181
            },
            {
              "number": 98,
              "ticks": 70930,
              "time": 79.87604625,
              "value": 0.7795275590551181
            },
            {
              "number": 98,
              "ticks": 72940,
              "time": 82.13955750000001,
              "value": 0.7795275590551181
            },
            {
              "number": 98,
              "ticks": 159340,
              "time": 179.4367575,
              "value": 0.7795275590551181
            },
            {
              "number": 98,
              "ticks": 161170,
              "time": 181.49756625,
              "value": 0.7795275590551181
            },
            {
              "number": 98,
              "ticks": 163180,
              "time": 183.7610775,
              "value": 0.7795275590551181
            }
          ],
          "99": [
            {
              "number": 99,
              "ticks": 69090,
              "time": 77.80397625,
              "value": 0.007874015748031496
            },
            {
              "number": 99,
              "ticks": 70920,
              "time": 79.864785,
              "value": 0.007874015748031496
            },
            {
              "number": 99,
              "ticks": 72930,
              "time": 82.12829625,
              "value": 0.007874015748031496
            },
            {
              "number": 99,
              "ticks": 159330,
              "time": 179.42549625,
              "value": 0.007874015748031496
            },
            {
              "number": 99,
              "ticks": 161160,
              "time": 181.48630500000002,
              "value": 0.007874015748031496
            },
            {
              "number": 99,
              "ticks": 163170,
              "time": 183.74981625,
              "value": 0.007874015748031496
            }
          ],
          "100": [
            {
              "number": 100,
              "ticks": 740,
              "time": 0.8333325,
              "value": 0
            }
          ],
          "101": [
            {
              "number": 101,
              "ticks": 730,
              "time": 0.82207125,
              "value": 0
            }
          ]
        },
        "pitchBends": [],
        "instrument": {
          "family": "brass",
          "number": 61,
          "name": "brass section"
        },
        "name": "",
        "notes": [
          {
            "duration": 0.08220712500000005,
            "durationTicks": 73,
            "midi": 62,
            "name": "D4",
            "ticks": 11760,
            "time": 13.24323,
            "velocity": 0.7637795275590551
          },
          {
            "duration": 0.08783775000000027,
            "durationTicks": 78,
            "midi": 58,
            "name": "A#3",
            "ticks": 11760,
            "time": 13.24323,
            "velocity": 0.6692913385826772
          },
          {
            "duration": 0.07770262500000058,
            "durationTicks": 69,
            "midi": 64,
            "name": "E4",
            "ticks": 12120,
            "time": 13.648635,
            "velocity": 0.6692913385826772
          },
          {
            "duration": 0.06981975000000062,
            "durationTicks": 62,
            "midi": 60,
            "name": "C4",
            "ticks": 12120,
            "time": 13.648635,
            "velocity": 0.6692913385826772
          },
          {
            "duration": 1.1283772500000016,
            "durationTicks": 1002,
            "midi": 62,
            "name": "D4",
            "ticks": 12389,
            "time": 13.951562625,
            "velocity": 0.6692913385826772
          },
          {
            "duration": 1.1148637500000014,
            "durationTicks": 990,
            "midi": 65,
            "name": "F4",
            "ticks": 12392,
            "time": 13.954941,
            "velocity": 0.6692913385826772
          },
          {
            "duration": 0.06306299999999965,
            "durationTicks": 56,
            "midi": 62,
            "name": "D4",
            "ticks": 13680,
            "time": 15.40539,
            "velocity": 0.7637795275590551
          },
          {
            "duration": 0.06981975000000062,
            "durationTicks": 62,
            "midi": 58,
            "name": "A#3",
            "ticks": 13680,
            "time": 15.40539,
            "velocity": 0.5748031496062992
          },
          {
            "duration": 0.06981975000000062,
            "durationTicks": 62,
            "midi": 64,
            "name": "E4",
            "ticks": 14040,
            "time": 15.810795,
            "velocity": 0.6692913385826772
          },
          {
            "duration": 0.06756750000000089,
            "durationTicks": 60,
            "midi": 60,
            "name": "C4",
            "ticks": 14040,
            "time": 15.810795,
            "velocity": 0.6692913385826772
          },
          {
            "duration": 1.0349088749999993,
            "durationTicks": 919,
            "midi": 62,
            "name": "D4",
            "ticks": 14304,
            "time": 16.108092000000003,
            "velocity": 0.5748031496062992
          },
          {
            "duration": 1.0349088749999993,
            "durationTicks": 919,
            "midi": 65,
            "name": "F4",
            "ticks": 14311,
            "time": 16.115974875000003,
            "velocity": 0.6692913385826772
          },
          {
            "duration": 0.08445937500000156,
            "durationTicks": 75,
            "midi": 62,
            "name": "D4",
            "ticks": 15480,
            "time": 17.432415,
            "velocity": 0.6692913385826772
          },
          {
            "duration": 0.07319812500000111,
            "durationTicks": 65,
            "midi": 58,
            "name": "A#3",
            "ticks": 15480,
            "time": 17.432415,
            "velocity": 0.5748031496062992
          },
          {
            "duration": 0.04279275000000027,
            "durationTicks": 38,
            "midi": 64,
            "name": "E4",
            "ticks": 15840,
            "time": 17.83782,
            "velocity": 0.6692913385826772
          },
          {
            "duration": 0.07207199999999858,
            "durationTicks": 64,
            "midi": 60,
            "name": "C4",
            "ticks": 15840,
            "time": 17.83782,
            "velocity": 0.6692913385826772
          },
          {
            "duration": 0.06756749999999911,
            "durationTicks": 60,
            "midi": 64,
            "name": "E4",
            "ticks": 16080,
            "time": 18.10809,
            "velocity": 0.6692913385826772
          },
          {
            "duration": 0.08445937500000156,
            "durationTicks": 75,
            "midi": 60,
            "name": "C4",
            "ticks": 16080,
            "time": 18.10809,
            "velocity": 0.5748031496062992
          },
          {
            "duration": 0.07545037499999907,
            "durationTicks": 67,
            "midi": 65,
            "name": "F4",
            "ticks": 16320,
            "time": 18.37836,
            "velocity": 0.6692913385826772
          },
          {
            "duration": 0.07545037499999907,
            "durationTicks": 67,
            "midi": 62,
            "name": "D4",
            "ticks": 16320,
            "time": 18.37836,
            "velocity": 0.7637795275590551
          },
          {
            "duration": 0.07770262499999703,
            "durationTicks": 69,
            "midi": 67,
            "name": "G4",
            "ticks": 16560,
            "time": 18.64863,
            "velocity": 0.6692913385826772
          },
          {
            "duration": 0.0574323750000012,
            "durationTicks": 51,
            "midi": 64,
            "name": "E4",
            "ticks": 16560,
            "time": 18.64863,
            "velocity": 0.6692913385826772
          },
          {
            "duration": 0.07995487499999854,
            "durationTicks": 71,
            "midi": 65,
            "name": "F4",
            "ticks": 16800,
            "time": 18.9189,
            "velocity": 0.6692913385826772
          },
          {
            "duration": 0.06756749999999911,
            "durationTicks": 60,
            "midi": 62,
            "name": "D4",
            "ticks": 16800,
            "time": 18.9189,
            "velocity": 0.7637795275590551
          },
          {
            "duration": 0.07770262499999703,
            "durationTicks": 69,
            "midi": 60,
            "name": "C4",
            "ticks": 17040,
            "time": 19.18917,
            "velocity": 0.7637795275590551
          },
          {
            "duration": 0.09234225000000151,
            "durationTicks": 82,
            "midi": 57,
            "name": "A3",
            "ticks": 17040,
            "time": 19.18917,
            "velocity": 0.6692913385826772
          },
          {
            "duration": 1.2038276249999988,
            "durationTicks": 1069,
            "midi": 58,
            "name": "A#3",
            "ticks": 17160,
            "time": 19.324305000000003,
            "velocity": 0.6929133858267716
          },
          {
            "duration": 1.2162149999999983,
            "durationTicks": 1080,
            "midi": 62,
            "name": "D4",
            "ticks": 17160,
            "time": 19.324305000000003,
            "velocity": 0.8818897637795275
          },
          {
            "duration": 0.33558525000000117,
            "durationTicks": 298,
            "midi": 60,
            "name": "C4",
            "ticks": 19340,
            "time": 21.7792575,
            "velocity": 0.6299212598425197
          },
          {
            "duration": 0.34459424999999655,
            "durationTicks": 306,
            "midi": 67,
            "name": "G4",
            "ticks": 19342,
            "time": 21.78150975,
            "velocity": 0.7874015748031497
          },
          {
            "duration": 0.3220717499999992,
            "durationTicks": 286,
            "midi": 63,
            "name": "D#4",
            "ticks": 19347,
            "time": 21.787140375,
            "velocity": 0.6929133858267716
          },
          {
            "duration": 0.3378374999999991,
            "durationTicks": 300,
            "midi": 58,
            "name": "A#3",
            "ticks": 19347,
            "time": 21.787140375,
            "velocity": 0.6062992125984252
          },
          {
            "duration": 0.15653137500000014,
            "durationTicks": 139,
            "midi": 60,
            "name": "C4",
            "ticks": 19674,
            "time": 22.15538325,
            "velocity": 0.6929133858267716
          },
          {
            "duration": 0.12162149999999983,
            "durationTicks": 108,
            "midi": 63,
            "name": "D#4",
            "ticks": 19676,
            "time": 22.1576355,
            "velocity": 0.7874015748031497
          },
          {
            "duration": 0.11486474999999885,
            "durationTicks": 102,
            "midi": 55,
            "name": "G3",
            "ticks": 19679,
            "time": 22.161013875000002,
            "velocity": 0.6062992125984252
          },
          {
            "duration": 0.11824312499999934,
            "durationTicks": 105,
            "midi": 58,
            "name": "A#3",
            "ticks": 19685,
            "time": 22.167770625,
            "velocity": 0.6377952755905512
          },
          {
            "duration": 0.084459374999998,
            "durationTicks": 75,
            "midi": 63,
            "name": "D#4",
            "ticks": 19861,
            "time": 22.365968625,
            "velocity": 0.6929133858267716
          },
          {
            "duration": 0.07657649999999805,
            "durationTicks": 68,
            "midi": 60,
            "name": "C4",
            "ticks": 19953,
            "time": 22.469572125000003,
            "velocity": 0.6929133858267716
          },
          {
            "duration": 0.09121612500000253,
            "durationTicks": 81,
            "midi": 63,
            "name": "D#4",
            "ticks": 20036,
            "time": 22.5630405,
            "velocity": 0.5984251968503937
          },
          {
            "duration": 0.06644137500000014,
            "durationTicks": 59,
            "midi": 67,
            "name": "G4",
            "ticks": 20097,
            "time": 22.631734125,
            "velocity": 0.7874015748031497
          },
          {
            "duration": 0.20945925000000187,
            "durationTicks": 186,
            "midi": 63,
            "name": "D#4",
            "ticks": 20164,
            "time": 22.7071845,
            "velocity": 0.6929133858267716
          },
          {
            "duration": 0.22860337499999872,
            "durationTicks": 203,
            "midi": 67,
            "name": "G4",
            "ticks": 20164,
            "time": 22.7071845,
            "velocity": 0.7874015748031497
          },
          {
            "duration": 0.24436912500000219,
            "durationTicks": 217,
            "midi": 60,
            "name": "C4",
            "ticks": 20165,
            "time": 22.708310625,
            "velocity": 0.6299212598425197
          },
          {
            "duration": 0.17229712500000005,
            "durationTicks": 153,
            "midi": 58,
            "name": "A#3",
            "ticks": 20172,
            "time": 22.7161935,
            "velocity": 0.6220472440944882
          },
          {
            "duration": 0.1261259999999993,
            "durationTicks": 112,
            "midi": 67,
            "name": "G4",
            "ticks": 20393,
            "time": 22.965067125,
            "velocity": 0.6929133858267716
          },
          {
            "duration": 0.1261259999999993,
            "durationTicks": 112,
            "midi": 60,
            "name": "C4",
            "ticks": 20393,
            "time": 22.965067125,
            "velocity": 0.6062992125984252
          },
          {
            "duration": 0.15990975000000063,
            "durationTicks": 142,
            "midi": 70,
            "name": "A#4",
            "ticks": 20398,
            "time": 22.97069775,
            "velocity": 0.7874015748031497
          },
          {
            "duration": 0.1261259999999993,
            "durationTicks": 112,
            "midi": 63,
            "name": "D#4",
            "ticks": 20403,
            "time": 22.976328375,
            "velocity": 0.6929133858267716
          },
          {
            "duration": 0.6768011249999972,
            "durationTicks": 601,
            "midi": 63,
            "name": "D#4",
            "ticks": 20543,
            "time": 23.133985875,
            "velocity": 0.6929133858267716
          },
          {
            "duration": 0.6903146249999992,
            "durationTicks": 613,
            "midi": 66,
            "name": "F#4",
            "ticks": 20546,
            "time": 23.13736425,
            "velocity": 0.7874015748031497
          },
          {
            "duration": 0.6576570000000004,
            "durationTicks": 584,
            "midi": 60,
            "name": "C4",
            "ticks": 20554,
            "time": 23.14637325,
            "velocity": 0.6299212598425197
          },
          {
            "duration": 0.6509002499999994,
            "durationTicks": 578,
            "midi": 57,
            "name": "A3",
            "ticks": 20560,
            "time": 23.15313,
            "velocity": 0.6062992125984252
          },
          {
            "duration": 0.3108104999999952,
            "durationTicks": 276,
            "midi": 57,
            "name": "A3",
            "ticks": 21242,
            "time": 23.921147250000004,
            "velocity": 0.6299212598425197
          },
          {
            "duration": 0.3108104999999952,
            "durationTicks": 276,
            "midi": 65,
            "name": "F4",
            "ticks": 21242,
            "time": 23.921147250000004,
            "velocity": 0.7874015748031497
          },
          {
            "duration": 0.3029276249999988,
            "durationTicks": 269,
            "midi": 60,
            "name": "C4",
            "ticks": 21247,
            "time": 23.926777875000003,
            "velocity": 0.6929133858267716
          },
          {
            "duration": 0.2995492499999983,
            "durationTicks": 266,
            "midi": 62,
            "name": "D4",
            "ticks": 21250,
            "time": 23.930156250000003,
            "velocity": 0.7086614173228346
          },
          {
            "duration": 0.15653137500000014,
            "durationTicks": 139,
            "midi": 61,
            "name": "C#4",
            "ticks": 21593,
            "time": 24.316417125,
            "velocity": 0.6929133858267716
          },
          {
            "duration": 0.1509007500000017,
            "durationTicks": 134,
            "midi": 58,
            "name": "A#3",
            "ticks": 21596,
            "time": 24.3197955,
            "velocity": 0.6456692913385826
          },
          {
            "duration": 0.11036024999999938,
            "durationTicks": 98,
            "midi": 55,
            "name": "G3",
            "ticks": 21596,
            "time": 24.3197955,
            "velocity": 0.6062992125984252
          },
          {
            "duration": 0.16891874999999956,
            "durationTicks": 150,
            "midi": 65,
            "name": "F4",
            "ticks": 21600,
            "time": 24.3243,
            "velocity": 0.6929133858267716
          },
          {
            "duration": 0.084459374999998,
            "durationTicks": 75,
            "midi": 61,
            "name": "C#4",
            "ticks": 21780,
            "time": 24.527002500000002,
            "velocity": 0.6929133858267716
          },
          {
            "duration": 0.07657649999999805,
            "durationTicks": 68,
            "midi": 58,
            "name": "A#3",
            "ticks": 21872,
            "time": 24.630606000000004,
            "velocity": 0.6929133858267716
          },
          {
            "duration": 0.09121612499999898,
            "durationTicks": 81,
            "midi": 61,
            "name": "C#4",
            "ticks": 21955,
            "time": 24.724074375,
            "velocity": 0.5984251968503937
          },
          {
            "duration": 0.06644137500000014,
            "durationTicks": 59,
            "midi": 65,
            "name": "F4",
            "ticks": 22016,
            "time": 24.792768000000002,
            "velocity": 0.7874015748031497
          },
          {
            "duration": 0.35923387500000104,
            "durationTicks": 319,
            "midi": 60,
            "name": "C4",
            "ticks": 22077,
            "time": 24.861461625,
            "velocity": 0.6299212598425197
          },
          {
            "duration": 0.3648644999999995,
            "durationTicks": 324,
            "midi": 62,
            "name": "D4",
            "ticks": 22082,
            "time": 24.867092250000002,
            "velocity": 0.6929133858267716
          },
          {
            "duration": 0.36036,
            "durationTicks": 320,
            "midi": 69,
            "name": "A4",
            "ticks": 22083,
            "time": 24.868218375,
            "velocity": 0.7874015748031497
          },
          {
            "duration": 0.36148612500000254,
            "durationTicks": 321,
            "midi": 65,
            "name": "F4",
            "ticks": 22092,
            "time": 24.8783535,
            "velocity": 0.7480314960629921
          },
          {
            "duration": 0.6745488749999993,
            "durationTicks": 599,
            "midi": 56,
            "name": "G#3",
            "ticks": 22489,
            "time": 25.325425125000002,
            "velocity": 0.6062992125984252
          },
          {
            "duration": 0.6745488749999993,
            "durationTicks": 599,
            "midi": 59,
            "name": "B3",
            "ticks": 22489,
            "time": 25.325425125000002,
            "velocity": 0.6850393700787402
          },
          {
            "duration": 0.6745488749999957,
            "durationTicks": 599,
            "midi": 65,
            "name": "F4",
            "ticks": 22491,
            "time": 25.327677375000004,
            "velocity": 0.7874015748031497
          },
          {
            "duration": 0.6644137500000014,
            "durationTicks": 590,
            "midi": 61,
            "name": "C#4",
            "ticks": 22494,
            "time": 25.33105575,
            "velocity": 0.6929133858267716
          },
          {
            "duration": 0.09684674999999743,
            "durationTicks": 86,
            "midi": 63,
            "name": "D#4",
            "ticks": 23192,
            "time": 26.117091000000002,
            "velocity": 0.6929133858267716
          },
          {
            "duration": 0.08108100000000107,
            "durationTicks": 72,
            "midi": 58,
            "name": "A#3",
            "ticks": 23193,
            "time": 26.118217125,
            "velocity": 0.8818897637795275
          },
          {
            "duration": 0.08108100000000107,
            "durationTicks": 72,
            "midi": 60,
            "name": "C4",
            "ticks": 23193,
            "time": 26.118217125,
            "velocity": 0.8818897637795275
          },
          {
            "duration": 0.07207200000000213,
            "durationTicks": 64,
            "midi": 67,
            "name": "G4",
            "ticks": 23196,
            "time": 26.1215955,
            "velocity": 0.8818897637795275
          },
          {
            "duration": 0.05743237499999765,
            "durationTicks": 51,
            "midi": 63,
            "name": "D#4",
            "ticks": 23406,
            "time": 26.358081750000004,
            "velocity": 0.7874015748031497
          },
          {
            "duration": 0.03603599999999574,
            "durationTicks": 32,
            "midi": 60,
            "name": "C4",
            "ticks": 23411,
            "time": 26.363712375000002,
            "velocity": 0.6929133858267716
          },
          {
            "duration": 0.03603599999999574,
            "durationTicks": 32,
            "midi": 58,
            "name": "A#3",
            "ticks": 23411,
            "time": 26.363712375000002,
            "velocity": 0.7874015748031497
          },
          {
            "duration": 0.09459449999999947,
            "durationTicks": 84,
            "midi": 63,
            "name": "D#4",
            "ticks": 23516,
            "time": 26.4819555,
            "velocity": 0.6929133858267716
          },
          {
            "duration": 0.08558549999999698,
            "durationTicks": 76,
            "midi": 67,
            "name": "G4",
            "ticks": 23517,
            "time": 26.483081625,
            "velocity": 0.8818897637795275
          },
          {
            "duration": 0.08558550000000054,
            "durationTicks": 76,
            "midi": 58,
            "name": "A#3",
            "ticks": 23520,
            "time": 26.48646,
            "velocity": 0.8818897637795275
          },
          {
            "duration": 0.08558550000000054,
            "durationTicks": 76,
            "midi": 60,
            "name": "C4",
            "ticks": 23520,
            "time": 26.48646,
            "velocity": 0.8818897637795275
          },
          {
            "duration": 0.095720625000002,
            "durationTicks": 85,
            "midi": 63,
            "name": "D#4",
            "ticks": 23761,
            "time": 26.757856125,
            "velocity": 0.7874015748031497
          },
          {
            "duration": 0.08671162500000307,
            "durationTicks": 77,
            "midi": 60,
            "name": "C4",
            "ticks": 23764,
            "time": 26.7612345,
            "velocity": 0.6929133858267716
          },
          {
            "duration": 0.08671162500000307,
            "durationTicks": 77,
            "midi": 58,
            "name": "A#3",
            "ticks": 23764,
            "time": 26.7612345,
            "velocity": 0.8818897637795275
          },
          {
            "duration": 0.09797287500000351,
            "durationTicks": 87,
            "midi": 63,
            "name": "D#4",
            "ticks": 24005,
            "time": 27.032630625,
            "velocity": 0.6929133858267716
          },
          {
            "duration": 0.08671162500000307,
            "durationTicks": 77,
            "midi": 67,
            "name": "G4",
            "ticks": 24008,
            "time": 27.036009,
            "velocity": 0.7874015748031497
          },
          {
            "duration": 0.08783775000000205,
            "durationTicks": 78,
            "midi": 70,
            "name": "A#4",
            "ticks": 24009,
            "time": 27.037135125,
            "velocity": 0.6062992125984252
          },
          {
            "duration": 0.08783775000000205,
            "durationTicks": 78,
            "midi": 60,
            "name": "C4",
            "ticks": 24009,
            "time": 27.037135125,
            "velocity": 0.6692913385826772
          },
          {
            "duration": 0.09459449999999947,
            "durationTicks": 84,
            "midi": 67,
            "name": "G4",
            "ticks": 24246,
            "time": 27.304026750000002,
            "velocity": 0.7874015748031497
          },
          {
            "duration": 0.10247737499999943,
            "durationTicks": 91,
            "midi": 70,
            "name": "A#4",
            "ticks": 24250,
            "time": 27.30853125,
            "velocity": 0.6062992125984252
          },
          {
            "duration": 0.10247737499999943,
            "durationTicks": 91,
            "midi": 60,
            "name": "C4",
            "ticks": 24250,
            "time": 27.30853125,
            "velocity": 0.6299212598425197
          },
          {
            "duration": 0.11148637499999836,
            "durationTicks": 99,
            "midi": 63,
            "name": "D#4",
            "ticks": 24257,
            "time": 27.316414125,
            "velocity": 0.6929133858267716
          },
          {
            "duration": 0.21508987500000032,
            "durationTicks": 191,
            "midi": 57,
            "name": "A3",
            "ticks": 24487,
            "time": 27.575422875,
            "velocity": 0.6062992125984252
          },
          {
            "duration": 0.21508987500000032,
            "durationTicks": 191,
            "midi": 60,
            "name": "C4",
            "ticks": 24487,
            "time": 27.575422875,
            "velocity": 0.6929133858267716
          },
          {
            "duration": 0.21171149999999983,
            "durationTicks": 188,
            "midi": 62,
            "name": "D4",
            "ticks": 24488,
            "time": 27.576549,
            "velocity": 0.6929133858267716
          },
          {
            "duration": 0.19369350000000196,
            "durationTicks": 172,
            "midi": 66,
            "name": "F#4",
            "ticks": 24491,
            "time": 27.579927375,
            "velocity": 0.7874015748031497
          },
          {
            "duration": 0.08783775000000205,
            "durationTicks": 78,
            "midi": 57,
            "name": "A3",
            "ticks": 24717,
            "time": 27.834431625,
            "velocity": 0.6692913385826772
          },
          {
            "duration": 0.08783775000000205,
            "durationTicks": 78,
            "midi": 60,
            "name": "C4",
            "ticks": 24717,
            "time": 27.834431625,
            "velocity": 0.6929133858267716
          },
          {
            "duration": 0.08896387500000102,
            "durationTicks": 79,
            "midi": 54,
            "name": "F#3",
            "ticks": 24723,
            "time": 27.841188375,
            "velocity": 0.6062992125984252
          },
          {
            "duration": 0.10472962500000094,
            "durationTicks": 93,
            "midi": 62,
            "name": "D4",
            "ticks": 24725,
            "time": 27.843440625,
            "velocity": 0.7874015748031497
          },
          {
            "duration": 0.6756749999999982,
            "durationTicks": 600,
            "midi": 57,
            "name": "A3",
            "ticks": 24856,
            "time": 27.990963,
            "velocity": 0.6299212598425197
          },
          {
            "duration": 0.6756749999999982,
            "durationTicks": 600,
            "midi": 58,
            "name": "A#3",
            "ticks": 24856,
            "time": 27.990963,
            "velocity": 0.6929133858267716
          },
          {
            "duration": 0.6824317499999957,
            "durationTicks": 606,
            "midi": 62,
            "name": "D4",
            "ticks": 24857,
            "time": 27.992089125000003,
            "velocity": 0.7874015748031497
          },
          {
            "duration": 0.6835578750000018,
            "durationTicks": 607,
            "midi": 53,
            "name": "F3",
            "ticks": 24859,
            "time": 27.994341375,
            "velocity": 0.6062992125984252
          },
          {
            "duration": 0.07657649999999805,
            "durationTicks": 68,
            "midi": 56,
            "name": "G#3",
            "ticks": 25582,
            "time": 28.80852975,
            "velocity": 0.6299212598425197
          },
          {
            "duration": 0.07657649999999805,
            "durationTicks": 68,
            "midi": 59,
            "name": "B3",
            "ticks": 25582,
            "time": 28.80852975,
            "velocity": 0.6929133858267716
          },
          {
            "duration": 0.10022512499999792,
            "durationTicks": 89,
            "midi": 63,
            "name": "D#4",
            "ticks": 25585,
            "time": 28.811908125000002,
            "velocity": 0.7874015748031497
          },
          {
            "duration": 0.07995487500000209,
            "durationTicks": 71,
            "midi": 54,
            "name": "F#3",
            "ticks": 25587,
            "time": 28.814160375,
            "velocity": 0.6062992125984252
          },
          {
            "duration": 0.1069818749999989,
            "durationTicks": 95,
            "midi": 57,
            "name": "A3",
            "ticks": 25789,
            "time": 29.041637625,
            "velocity": 0.6692913385826772
          },
          {
            "duration": 0.12162150000000338,
            "durationTicks": 108,
            "midi": 58,
            "name": "A#3",
            "ticks": 25790,
            "time": 29.04276375,
            "velocity": 0.6929133858267716
          },
          {
            "duration": 0.1092341250000004,
            "durationTicks": 97,
            "midi": 62,
            "name": "D4",
            "ticks": 25796,
            "time": 29.0495205,
            "velocity": 0.7874015748031497
          },
          {
            "duration": 0.11711700000000391,
            "durationTicks": 104,
            "midi": 53,
            "name": "F3",
            "ticks": 25796,
            "time": 29.0495205,
            "velocity": 0.6062992125984252
          },
          {
            "duration": 0.14301787499999818,
            "durationTicks": 127,
            "midi": 55,
            "name": "G3",
            "ticks": 26044,
            "time": 29.328799500000002,
            "velocity": 0.8818897637795275
          },
          {
            "duration": 0.08445937500000156,
            "durationTicks": 75,
            "midi": 53,
            "name": "F3",
            "ticks": 26159,
            "time": 29.458303875000002,
            "velocity": 0.7874015748031497
          },
          {
            "duration": 0.10472962500000094,
            "durationTicks": 93,
            "midi": 51,
            "name": "D#3",
            "ticks": 26400,
            "time": 29.7297,
            "velocity": 0.7874015748031497
          },
          {
            "duration": 0.10472962500000094,
            "durationTicks": 93,
            "midi": 50,
            "name": "D3",
            "ticks": 26647,
            "time": 30.007852875,
            "velocity": 0.8818897637795275
          },
          {
            "duration": 0.10247737499999943,
            "durationTicks": 91,
            "midi": 48,
            "name": "C3",
            "ticks": 26888,
            "time": 30.279249,
            "velocity": 0.7874015748031497
          },
          {
            "duration": 0.3108105000000023,
            "durationTicks": 276,
            "midi": 59,
            "name": "B3",
            "ticks": 46080,
            "time": 51.89184,
            "velocity": 0.8818897637795275
          },
          {
            "duration": 0.29279250000000445,
            "durationTicks": 260,
            "midi": 55,
            "name": "G3",
            "ticks": 46081,
            "time": 51.892966125,
            "velocity": 0.5354330708661418
          },
          {
            "duration": 0.2905402500000065,
            "durationTicks": 258,
            "midi": 62,
            "name": "D4",
            "ticks": 46082,
            "time": 51.89409225,
            "velocity": 0.8818897637795275
          },
          {
            "duration": 0.3243240000000043,
            "durationTicks": 288,
            "midi": 53,
            "name": "F3",
            "ticks": 46082,
            "time": 51.89409225,
            "velocity": 0.7874015748031497
          },
          {
            "duration": 0.059684624999995606,
            "durationTicks": 53,
            "midi": 62,
            "name": "D4",
            "ticks": 46435,
            "time": 52.291614375,
            "velocity": 0.8818897637795275
          },
          {
            "duration": 0.05518012499999969,
            "durationTicks": 49,
            "midi": 59,
            "name": "B3",
            "ticks": 46435,
            "time": 52.291614375,
            "velocity": 0.7874015748031497
          },
          {
            "duration": 0.047297249999999735,
            "durationTicks": 42,
            "midi": 55,
            "name": "G3",
            "ticks": 46436,
            "time": 52.2927405,
            "velocity": 0.7874015748031497
          },
          {
            "duration": 0.0326576249999988,
            "durationTicks": 29,
            "midi": 53,
            "name": "F3",
            "ticks": 46436,
            "time": 52.2927405,
            "velocity": 0.6062992125984252
          },
          {
            "duration": 0.3175672499999962,
            "durationTicks": 282,
            "midi": 55,
            "name": "G3",
            "ticks": 47030,
            "time": 52.961658750000005,
            "velocity": 0.6062992125984252
          },
          {
            "duration": 0.32432399999999717,
            "durationTicks": 288,
            "midi": 53,
            "name": "F3",
            "ticks": 47031,
            "time": 52.962784875000004,
            "velocity": 0.7874015748031497
          },
          {
            "duration": 0.3108105000000023,
            "durationTicks": 276,
            "midi": 62,
            "name": "D4",
            "ticks": 47032,
            "time": 52.963911,
            "velocity": 0.7874015748031497
          },
          {
            "duration": 0.3175672500000033,
            "durationTicks": 282,
            "midi": 59,
            "name": "B3",
            "ticks": 47032,
            "time": 52.963911,
            "velocity": 0.8818897637795275
          },
          {
            "duration": 0.06756749999999556,
            "durationTicks": 60,
            "midi": 62,
            "name": "D4",
            "ticks": 47389,
            "time": 53.36593762500001,
            "velocity": 0.8818897637795275
          },
          {
            "duration": 0.0709458749999925,
            "durationTicks": 63,
            "midi": 59,
            "name": "B3",
            "ticks": 47389,
            "time": 53.36593762500001,
            "velocity": 0.7874015748031497
          },
          {
            "duration": 0.07432424999998943,
            "durationTicks": 66,
            "midi": 55,
            "name": "G3",
            "ticks": 47390,
            "time": 53.36706375000001,
            "velocity": 0.6929133858267716
          },
          {
            "duration": 0.07432424999999654,
            "durationTicks": 66,
            "midi": 53,
            "name": "F3",
            "ticks": 47398,
            "time": 53.376072750000006,
            "velocity": 0.6929133858267716
          },
          {
            "duration": 0.07432425000000364,
            "durationTicks": 66,
            "midi": 54,
            "name": "F#3",
            "ticks": 48232,
            "time": 54.315261,
            "velocity": 0.6929133858267716
          },
          {
            "duration": 0.0765765000000016,
            "durationTicks": 68,
            "midi": 65,
            "name": "F4",
            "ticks": 48232,
            "time": 54.315261,
            "velocity": 0.7874015748031497
          },
          {
            "duration": 0.07319812500000467,
            "durationTicks": 65,
            "midi": 58,
            "name": "A#3",
            "ticks": 48233,
            "time": 54.316387125,
            "velocity": 0.6929133858267716
          },
          {
            "duration": 0.056306250000005775,
            "durationTicks": 50,
            "midi": 60,
            "name": "C4",
            "ticks": 48236,
            "time": 54.319765499999995,
            "velocity": 0.7874015748031497
          },
          {
            "duration": 0.05405400000000071,
            "durationTicks": 48,
            "midi": 64,
            "name": "E4",
            "ticks": 48592,
            "time": 54.720666,
            "velocity": 0.7874015748031497
          },
          {
            "duration": 0.051801750000002755,
            "durationTicks": 46,
            "midi": 60,
            "name": "C4",
            "ticks": 48593,
            "time": 54.721792125,
            "velocity": 0.7874015748031497
          },
          {
            "duration": 0.04617112500000786,
            "durationTicks": 41,
            "midi": 58,
            "name": "A#3",
            "ticks": 48594,
            "time": 54.72291825,
            "velocity": 0.6929133858267716
          },
          {
            "duration": 0.018018000000004974,
            "durationTicks": 16,
            "midi": 54,
            "name": "F#3",
            "ticks": 48596,
            "time": 54.7251705,
            "velocity": 0.5039370078740157
          },
          {
            "duration": 1.1182421249999948,
            "durationTicks": 993,
            "midi": 54,
            "name": "F#3",
            "ticks": 48839,
            "time": 54.998818875000005,
            "velocity": 0.6062992125984252
          },
          {
            "duration": 1.102476375000002,
            "durationTicks": 979,
            "midi": 60,
            "name": "C4",
            "ticks": 48842,
            "time": 55.00219725,
            "velocity": 0.8818897637795275
          },
          {
            "duration": 1.104728625,
            "durationTicks": 981,
            "midi": 63,
            "name": "D#4",
            "ticks": 48846,
            "time": 55.006701750000005,
            "velocity": 0.7874015748031497
          },
          {
            "duration": 1.097971874999999,
            "durationTicks": 975,
            "midi": 58,
            "name": "A#3",
            "ticks": 48848,
            "time": 55.008954,
            "velocity": 0.6929133858267716
          },
          {
            "duration": 0.2781528750000035,
            "durationTicks": 247,
            "midi": 58,
            "name": "A#3",
            "ticks": 49919,
            "time": 56.215033875,
            "velocity": 0.6062992125984252
          },
          {
            "duration": 0.24999975000000063,
            "durationTicks": 222,
            "midi": 62,
            "name": "D4",
            "ticks": 49921,
            "time": 56.217286125,
            "velocity": 0.8818897637795275
          },
          {
            "duration": 0.28828800000000143,
            "durationTicks": 256,
            "midi": 53,
            "name": "F3",
            "ticks": 49921,
            "time": 56.217286125,
            "velocity": 0.8818897637795275
          },
          {
            "duration": 0.24211687500000068,
            "durationTicks": 215,
            "midi": 57,
            "name": "A3",
            "ticks": 49922,
            "time": 56.21841225,
            "velocity": 0.8818897637795275
          },
          {
            "duration": 0.09684674999999743,
            "durationTicks": 86,
            "midi": 58,
            "name": "A#3",
            "ticks": 50271,
            "time": 56.611429875000006,
            "velocity": 0.6929133858267716
          },
          {
            "duration": 0.06981974999999352,
            "durationTicks": 62,
            "midi": 53,
            "name": "F3",
            "ticks": 50271,
            "time": 56.611429875000006,
            "velocity": 0.6062992125984252
          },
          {
            "duration": 0.07770262499999347,
            "durationTicks": 69,
            "midi": 62,
            "name": "D4",
            "ticks": 50272,
            "time": 56.612556000000005,
            "velocity": 0.8818897637795275
          },
          {
            "duration": 0.06981974999999352,
            "durationTicks": 62,
            "midi": 57,
            "name": "A3",
            "ticks": 50274,
            "time": 56.61480825,
            "velocity": 0.7874015748031497
          },
          {
            "duration": 0.13513500000000533,
            "durationTicks": 120,
            "midi": 60,
            "name": "C4",
            "ticks": 50997,
            "time": 57.428996625,
            "velocity": 0.8818897637795275
          },
          {
            "duration": 0.11824312499999934,
            "durationTicks": 105,
            "midi": 54,
            "name": "F#3",
            "ticks": 50997,
            "time": 57.428996625,
            "velocity": 0.6929133858267716
          },
          {
            "duration": 0.13513500000000533,
            "durationTicks": 120,
            "midi": 62,
            "name": "D4",
            "ticks": 50999,
            "time": 57.431248875,
            "velocity": 0.8818897637795275
          },
          {
            "duration": 0.11261249999999734,
            "durationTicks": 100,
            "midi": 57,
            "name": "A3",
            "ticks": 50999,
            "time": 57.431248875,
            "velocity": 0.7874015748031497
          },
          {
            "duration": 0.27702675000000454,
            "durationTicks": 246,
            "midi": 58,
            "name": "A#3",
            "ticks": 51838,
            "time": 58.376067750000004,
            "velocity": 0.6062992125984252
          },
          {
            "duration": 0.2556303749999955,
            "durationTicks": 227,
            "midi": 53,
            "name": "F3",
            "ticks": 51839,
            "time": 58.377193875,
            "velocity": 0.7874015748031497
          },
          {
            "duration": 0.2623871249999965,
            "durationTicks": 233,
            "midi": 62,
            "name": "D4",
            "ticks": 51840,
            "time": 58.37832,
            "velocity": 0.8818897637795275
          },
          {
            "duration": 0.2578826250000006,
            "durationTicks": 229,
            "midi": 57,
            "name": "A3",
            "ticks": 51840,
            "time": 58.37832,
            "velocity": 0.7874015748031497
          },
          {
            "duration": 0.09009000000000356,
            "durationTicks": 80,
            "midi": 53,
            "name": "F3",
            "ticks": 52194,
            "time": 58.77696825,
            "velocity": 0.7874015748031497
          },
          {
            "duration": 0.09572062500000555,
            "durationTicks": 85,
            "midi": 58,
            "name": "A#3",
            "ticks": 52195,
            "time": 58.778094375,
            "velocity": 0.7874015748031497
          },
          {
            "duration": 0.08333324999999547,
            "durationTicks": 74,
            "midi": 62,
            "name": "D4",
            "ticks": 52196,
            "time": 58.7792205,
            "velocity": 0.8818897637795275
          },
          {
            "duration": 0.07432424999999654,
            "durationTicks": 66,
            "midi": 57,
            "name": "A3",
            "ticks": 52196,
            "time": 58.7792205,
            "velocity": 0.8818897637795275
          },
          {
            "duration": 0.13513499999999823,
            "durationTicks": 120,
            "midi": 58,
            "name": "A#3",
            "ticks": 52920,
            "time": 59.594535,
            "velocity": 0.7874015748031497
          },
          {
            "duration": 0.11711700000000036,
            "durationTicks": 104,
            "midi": 62,
            "name": "D4",
            "ticks": 52921,
            "time": 59.595661125,
            "velocity": 0.8818897637795275
          },
          {
            "duration": 0.1204953750000044,
            "durationTicks": 107,
            "midi": 52,
            "name": "E3",
            "ticks": 52922,
            "time": 59.59678725,
            "velocity": 0.7874015748031497
          },
          {
            "duration": 0.10022512500000147,
            "durationTicks": 89,
            "midi": 55,
            "name": "G3",
            "ticks": 52923,
            "time": 59.597913375,
            "velocity": 0.7874015748031497
          },
          {
            "duration": 0.354729374999998,
            "durationTicks": 315,
            "midi": 51,
            "name": "D#3",
            "ticks": 54720,
            "time": 61.62156,
            "velocity": 0.6929133858267716
          },
          {
            "duration": 0.34797262499999704,
            "durationTicks": 309,
            "midi": 55,
            "name": "G3",
            "ticks": 54720,
            "time": 61.62156,
            "velocity": 0.7874015748031497
          },
          {
            "duration": 0.354729374999998,
            "durationTicks": 315,
            "midi": 58,
            "name": "A#3",
            "ticks": 55080,
            "time": 62.026965000000004,
            "velocity": 0.7874015748031497
          },
          {
            "duration": 0.3378374999999991,
            "durationTicks": 300,
            "midi": 51,
            "name": "D#3",
            "ticks": 55080,
            "time": 62.026965000000004,
            "velocity": 0.6929133858267716
          },
          {
            "duration": 0.354729374999998,
            "durationTicks": 315,
            "midi": 55,
            "name": "G3",
            "ticks": 55080,
            "time": 62.026965000000004,
            "velocity": 0.7874015748031497
          },
          {
            "duration": 0.23198174999999566,
            "durationTicks": 206,
            "midi": 60,
            "name": "C4",
            "ticks": 55440,
            "time": 62.432370000000006,
            "velocity": 0.7874015748031497
          },
          {
            "duration": 0.21058537499999375,
            "durationTicks": 187,
            "midi": 51,
            "name": "D#3",
            "ticks": 55440,
            "time": 62.432370000000006,
            "velocity": 0.6929133858267716
          },
          {
            "duration": 0.23198174999999566,
            "durationTicks": 206,
            "midi": 55,
            "name": "G3",
            "ticks": 55440,
            "time": 62.432370000000006,
            "velocity": 0.7874015748031497
          },
          {
            "duration": 0.5180174999999991,
            "durationTicks": 460,
            "midi": 62,
            "name": "D4",
            "ticks": 55680,
            "time": 62.70264,
            "velocity": 0.6929133858267716
          },
          {
            "duration": 0.4054050000000018,
            "durationTicks": 360,
            "midi": 55,
            "name": "G3",
            "ticks": 55680,
            "time": 62.70264,
            "velocity": 0.6929133858267716
          },
          {
            "duration": 0.5180174999999991,
            "durationTicks": 460,
            "midi": 60,
            "name": "C4",
            "ticks": 55680,
            "time": 62.70264,
            "velocity": 0.6929133858267716
          },
          {
            "duration": 0.15540524999999406,
            "durationTicks": 138,
            "midi": 57,
            "name": "A3",
            "ticks": 56070,
            "time": 63.14182875,
            "velocity": 0.7086614173228346
          },
          {
            "duration": 0.1204953750000044,
            "durationTicks": 107,
            "midi": 60,
            "name": "C4",
            "ticks": 56163,
            "time": 63.246558375,
            "velocity": 0.7086614173228346
          },
          {
            "duration": 0.11036024999999938,
            "durationTicks": 98,
            "midi": 61,
            "name": "C#4",
            "ticks": 56412,
            "time": 63.52696350000001,
            "velocity": 0.7086614173228346
          },
          {
            "duration": 0.17792774999999494,
            "durationTicks": 158,
            "midi": 62,
            "name": "D4",
            "ticks": 56512,
            "time": 63.639576000000005,
            "velocity": 0.8818897637795275
          },
          {
            "duration": 0.14414399999999716,
            "durationTicks": 128,
            "midi": 54,
            "name": "F#3",
            "ticks": 56512,
            "time": 63.639576000000005,
            "velocity": 0.6929133858267716
          },
          {
            "duration": 0.10022512499999436,
            "durationTicks": 89,
            "midi": 53,
            "name": "F3",
            "ticks": 57491,
            "time": 64.742052375,
            "velocity": 0.8818897637795275
          },
          {
            "duration": 0.12162150000000338,
            "durationTicks": 108,
            "midi": 57,
            "name": "A3",
            "ticks": 57500,
            "time": 64.7521875,
            "velocity": 0.8818897637795275
          },
          {
            "duration": 0.11486475000000951,
            "durationTicks": 102,
            "midi": 62,
            "name": "D4",
            "ticks": 57504,
            "time": 64.756692,
            "velocity": 0.8818897637795275
          },
          {
            "duration": 0.1317566249999942,
            "durationTicks": 117,
            "midi": 58,
            "name": "A#3",
            "ticks": 57511,
            "time": 64.76457487500001,
            "velocity": 0.8818897637795275
          },
          {
            "duration": 0.10247737500000653,
            "durationTicks": 91,
            "midi": 55,
            "name": "G3",
            "ticks": 59400,
            "time": 66.891825,
            "velocity": 0.8818897637795275
          },
          {
            "duration": 0.1373872500000033,
            "durationTicks": 122,
            "midi": 63,
            "name": "D#4",
            "ticks": 59407,
            "time": 66.899707875,
            "velocity": 0.7874015748031497
          },
          {
            "duration": 0.12274762500000236,
            "durationTicks": 109,
            "midi": 60,
            "name": "C4",
            "ticks": 59409,
            "time": 66.901960125,
            "velocity": 0.7874015748031497
          },
          {
            "duration": 0.13288275000000738,
            "durationTicks": 118,
            "midi": 58,
            "name": "A#3",
            "ticks": 59411,
            "time": 66.904212375,
            "velocity": 0.7874015748031497
          },
          {
            "duration": 0.15765749999999912,
            "durationTicks": 140,
            "midi": 58,
            "name": "A#3",
            "ticks": 61309,
            "time": 69.04159762500001,
            "velocity": 0.6929133858267716
          },
          {
            "duration": 0.08671162500000662,
            "durationTicks": 77,
            "midi": 53,
            "name": "F3",
            "ticks": 61323,
            "time": 69.057363375,
            "velocity": 0.6929133858267716
          },
          {
            "duration": 0.13738724999998908,
            "durationTicks": 122,
            "midi": 62,
            "name": "D4",
            "ticks": 61325,
            "time": 69.059615625,
            "velocity": 0.984251968503937
          },
          {
            "duration": 0.0979728749999964,
            "durationTicks": 87,
            "midi": 57,
            "name": "A3",
            "ticks": 61329,
            "time": 69.064120125,
            "velocity": 0.8818897637795275
          },
          {
            "duration": 0.3445942500000001,
            "durationTicks": 306,
            "midi": 51,
            "name": "D#3",
            "ticks": 63360,
            "time": 71.35128,
            "velocity": 0.6929133858267716
          },
          {
            "duration": 0.36036,
            "durationTicks": 320,
            "midi": 58,
            "name": "A#3",
            "ticks": 63360,
            "time": 71.35128,
            "velocity": 0.6929133858267716
          },
          {
            "duration": 0.3569816250000031,
            "durationTicks": 317,
            "midi": 62,
            "name": "D4",
            "ticks": 63360,
            "time": 71.35128,
            "velocity": 0.8818897637795275
          },
          {
            "duration": 0.3400897500000042,
            "durationTicks": 302,
            "midi": 55,
            "name": "G3",
            "ticks": 63360,
            "time": 71.35128,
            "velocity": 0.7874015748031497
          },
          {
            "duration": 0.327702374999987,
            "durationTicks": 291,
            "midi": 51,
            "name": "D#3",
            "ticks": 63720,
            "time": 71.756685,
            "velocity": 0.6929133858267716
          },
          {
            "duration": 0.34234199999998793,
            "durationTicks": 304,
            "midi": 58,
            "name": "A#3",
            "ticks": 63720,
            "time": 71.756685,
            "velocity": 0.6929133858267716
          },
          {
            "duration": 0.3344591249999951,
            "durationTicks": 297,
            "midi": 62,
            "name": "D4",
            "ticks": 63720,
            "time": 71.756685,
            "velocity": 0.8818897637795275
          },
          {
            "duration": 0.3231978749999911,
            "durationTicks": 287,
            "midi": 55,
            "name": "G3",
            "ticks": 63720,
            "time": 71.756685,
            "velocity": 0.8818897637795275
          },
          {
            "duration": 0.36486449999999593,
            "durationTicks": 324,
            "midi": 58,
            "name": "A#3",
            "ticks": 64080,
            "time": 72.16209,
            "velocity": 0.8818897637795275
          },
          {
            "duration": 0.35698162499998887,
            "durationTicks": 317,
            "midi": 62,
            "name": "D4",
            "ticks": 64080,
            "time": 72.16209,
            "velocity": 0.8818897637795275
          },
          {
            "duration": 0.32545012499998904,
            "durationTicks": 289,
            "midi": 51,
            "name": "D#3",
            "ticks": 64080,
            "time": 72.16209,
            "velocity": 0.6929133858267716
          },
          {
            "duration": 0.34684649999999806,
            "durationTicks": 308,
            "midi": 55,
            "name": "G3",
            "ticks": 64080,
            "time": 72.16209,
            "velocity": 0.7874015748031497
          },
          {
            "duration": 0.2849096249999974,
            "durationTicks": 253,
            "midi": 51,
            "name": "D#3",
            "ticks": 64440,
            "time": 72.56749500000001,
            "velocity": 0.6929133858267716
          },
          {
            "duration": 0.3018014999999963,
            "durationTicks": 268,
            "midi": 58,
            "name": "A#3",
            "ticks": 64440,
            "time": 72.56749500000001,
            "velocity": 0.7874015748031497
          },
          {
            "duration": 0.30292762499999526,
            "durationTicks": 269,
            "midi": 62,
            "name": "D4",
            "ticks": 64440,
            "time": 72.56749500000001,
            "velocity": 0.8818897637795275
          },
          {
            "duration": 0.2905402499999923,
            "durationTicks": 258,
            "midi": 55,
            "name": "G3",
            "ticks": 64440,
            "time": 72.56749500000001,
            "velocity": 0.8818897637795275
          },
          {
            "duration": 0.10022512499999436,
            "durationTicks": 89,
            "midi": 51,
            "name": "D#3",
            "ticks": 64800,
            "time": 72.97290000000001,
            "velocity": 0.6062992125984252
          },
          {
            "duration": 0.09909899999999539,
            "durationTicks": 88,
            "midi": 62,
            "name": "D4",
            "ticks": 64800,
            "time": 72.97290000000001,
            "velocity": 0.8818897637795275
          },
          {
            "duration": 0.11711699999999325,
            "durationTicks": 104,
            "midi": 58,
            "name": "A#3",
            "ticks": 64800,
            "time": 72.97290000000001,
            "velocity": 0.7874015748031497
          },
          {
            "duration": 0.10585574999998926,
            "durationTicks": 94,
            "midi": 55,
            "name": "G3",
            "ticks": 64800,
            "time": 72.97290000000001,
            "velocity": 0.7874015748031497
          },
          {
            "duration": 0.09572062499999845,
            "durationTicks": 85,
            "midi": 58,
            "name": "A#3",
            "ticks": 65040,
            "time": 73.24317,
            "velocity": 0.6062992125984252
          },
          {
            "duration": 0.0709458749999925,
            "durationTicks": 63,
            "midi": 51,
            "name": "D#3",
            "ticks": 65040,
            "time": 73.24317,
            "velocity": 0.6929133858267716
          },
          {
            "duration": 0.0653152499999976,
            "durationTicks": 58,
            "midi": 62,
            "name": "D4",
            "ticks": 65040,
            "time": 73.24317,
            "velocity": 0.984251968503937
          },
          {
            "duration": 0.06306299999999965,
            "durationTicks": 56,
            "midi": 55,
            "name": "G3",
            "ticks": 65040,
            "time": 73.24317,
            "velocity": 0.7874015748031497
          },
          {
            "duration": 0.07207200000000569,
            "durationTicks": 64,
            "midi": 60,
            "name": "C4",
            "ticks": 65520,
            "time": 73.78371,
            "velocity": 0.8818897637795275
          },
          {
            "duration": 0.06306300000001386,
            "durationTicks": 56,
            "midi": 54,
            "name": "F#3",
            "ticks": 65520,
            "time": 73.78371,
            "velocity": 0.7874015748031497
          },
          {
            "duration": 0.06418912500001284,
            "durationTicks": 57,
            "midi": 62,
            "name": "D4",
            "ticks": 65520,
            "time": 73.78371,
            "velocity": 0.984251968503937
          },
          {
            "duration": 0.07207199999999148,
            "durationTicks": 64,
            "midi": 60,
            "name": "C4",
            "ticks": 65880,
            "time": 74.189115,
            "velocity": 0.8818897637795275
          },
          {
            "duration": 0.06756749999999556,
            "durationTicks": 60,
            "midi": 62,
            "name": "D4",
            "ticks": 65880,
            "time": 74.189115,
            "velocity": 0.8818897637795275
          },
          {
            "duration": 0.055180124999992586,
            "durationTicks": 49,
            "midi": 54,
            "name": "F#3",
            "ticks": 65880,
            "time": 74.189115,
            "velocity": 0.7874015748031497
          },
          {
            "duration": 0.0878377500000056,
            "durationTicks": 78,
            "midi": 55,
            "name": "G3",
            "ticks": 66480,
            "time": 74.86479,
            "velocity": 0.8818897637795275
          },
          {
            "duration": 0.0822071250000107,
            "durationTicks": 73,
            "midi": 61,
            "name": "C#4",
            "ticks": 66480,
            "time": 74.86479,
            "velocity": 0.8818897637795275
          },
          {
            "duration": 0.06193687500001488,
            "durationTicks": 55,
            "midi": 63,
            "name": "D#4",
            "ticks": 66480,
            "time": 74.86479,
            "velocity": 0.7874015748031497
          },
          {
            "duration": 0.12499987500000032,
            "durationTicks": 111,
            "midi": 55,
            "name": "G3",
            "ticks": 66840,
            "time": 75.270195,
            "velocity": 0.8818897637795275
          },
          {
            "duration": 0.10698187500000245,
            "durationTicks": 95,
            "midi": 61,
            "name": "C#4",
            "ticks": 66840,
            "time": 75.270195,
            "velocity": 0.8818897637795275
          },
          {
            "duration": 0.10247737500000653,
            "durationTicks": 91,
            "midi": 63,
            "name": "D#4",
            "ticks": 66840,
            "time": 75.270195,
            "velocity": 0.7874015748031497
          },
          {
            "duration": 0.10135124999999334,
            "durationTicks": 90,
            "midi": 60,
            "name": "C4",
            "ticks": 67200,
            "time": 75.6756,
            "velocity": 0.8818897637795275
          },
          {
            "duration": 0.1204953750000044,
            "durationTicks": 107,
            "midi": 62,
            "name": "D4",
            "ticks": 67200,
            "time": 75.6756,
            "velocity": 0.984251968503937
          },
          {
            "duration": 0.10923412499998619,
            "durationTicks": 97,
            "midi": 54,
            "name": "F#3",
            "ticks": 67200,
            "time": 75.6756,
            "velocity": 0.7874015748031497
          },
          {
            "duration": 1.6159893750000123,
            "durationTicks": 1435,
            "midi": 62,
            "name": "D4",
            "ticks": 67680,
            "time": 76.21614,
            "velocity": 0.984251968503937
          },
          {
            "duration": 1.6024758750000103,
            "durationTicks": 1423,
            "midi": 54,
            "name": "F#3",
            "ticks": 67680,
            "time": 76.21614,
            "velocity": 0.7874015748031497
          },
          {
            "duration": 1.6182416250000102,
            "durationTicks": 1437,
            "midi": 60,
            "name": "C4",
            "ticks": 67680,
            "time": 76.21614,
            "velocity": 0.8818897637795275
          },
          {
            "duration": 2.1249978750000054,
            "durationTicks": 1887,
            "midi": 62,
            "name": "D4",
            "ticks": 69120,
            "time": 77.83776,
            "velocity": 0.7874015748031497
          },
          {
            "duration": 2.134006874999997,
            "durationTicks": 1895,
            "midi": 58,
            "name": "A#3",
            "ticks": 69120,
            "time": 77.83776,
            "velocity": 0.6929133858267716
          },
          {
            "duration": 2.0945925000000045,
            "durationTicks": 1860,
            "midi": 55,
            "name": "G3",
            "ticks": 69120,
            "time": 77.83776,
            "velocity": 0.6062992125984252
          },
          {
            "duration": 2.0495474999999885,
            "durationTicks": 1820,
            "midi": 65,
            "name": "F4",
            "ticks": 71040,
            "time": 79.99992,
            "velocity": 0.6929133858267716
          },
          {
            "duration": 2.054052000000013,
            "durationTicks": 1824,
            "midi": 56,
            "name": "G#3",
            "ticks": 71040,
            "time": 79.99992,
            "velocity": 0.6062992125984252
          },
          {
            "duration": 2.055178125000012,
            "durationTicks": 1825,
            "midi": 62,
            "name": "D4",
            "ticks": 71040,
            "time": 79.99992,
            "velocity": 0.6929133858267716
          },
          {
            "duration": 0.32545012499998904,
            "durationTicks": 289,
            "midi": 62,
            "name": "D4",
            "ticks": 72960,
            "time": 82.16208,
            "velocity": 0.8818897637795275
          },
          {
            "duration": 0.3547293750000051,
            "durationTicks": 315,
            "midi": 51,
            "name": "D#3",
            "ticks": 72960,
            "time": 82.16208,
            "velocity": 0.6929133858267716
          },
          {
            "duration": 0.3445942500000001,
            "durationTicks": 306,
            "midi": 58,
            "name": "A#3",
            "ticks": 72960,
            "time": 82.16208,
            "velocity": 0.6929133858267716
          },
          {
            "duration": 0.3130627500000003,
            "durationTicks": 278,
            "midi": 55,
            "name": "G3",
            "ticks": 72960,
            "time": 82.16208,
            "velocity": 0.8818897637795275
          },
          {
            "duration": 0.028153125000002888,
            "durationTicks": 25,
            "midi": 51,
            "name": "D#3",
            "ticks": 73320,
            "time": 82.567485,
            "velocity": 0.6929133858267716
          },
          {
            "duration": 0.028153125000002888,
            "durationTicks": 25,
            "midi": 55,
            "name": "G3",
            "ticks": 73320,
            "time": 82.567485,
            "velocity": 0.6929133858267716
          },
          {
            "duration": 0.06756749999999556,
            "durationTicks": 60,
            "midi": 62,
            "name": "D4",
            "ticks": 73320,
            "time": 82.567485,
            "velocity": 0.8818897637795275
          },
          {
            "duration": 0.055180124999992586,
            "durationTicks": 49,
            "midi": 58,
            "name": "A#3",
            "ticks": 73320,
            "time": 82.567485,
            "velocity": 0.6062992125984252
          },
          {
            "duration": 0.3333330000000103,
            "durationTicks": 296,
            "midi": 58,
            "name": "A#3",
            "ticks": 73920,
            "time": 83.24316,
            "velocity": 0.6929133858267716
          },
          {
            "duration": 0.31531499999999824,
            "durationTicks": 280,
            "midi": 62,
            "name": "D4",
            "ticks": 73920,
            "time": 83.24316,
            "velocity": 0.8818897637795275
          },
          {
            "duration": 0.3164411249999972,
            "durationTicks": 281,
            "midi": 55,
            "name": "G3",
            "ticks": 73920,
            "time": 83.24316,
            "velocity": 0.8818897637795275
          },
          {
            "duration": 0.3006753749999973,
            "durationTicks": 267,
            "midi": 51,
            "name": "D#3",
            "ticks": 73920,
            "time": 83.24316,
            "velocity": 0.6929133858267716
          },
          {
            "duration": 0.07995487499999854,
            "durationTicks": 71,
            "midi": 51,
            "name": "D#3",
            "ticks": 74280,
            "time": 83.648565,
            "velocity": 0.6062992125984252
          },
          {
            "duration": 0.0822071249999965,
            "durationTicks": 73,
            "midi": 62,
            "name": "D4",
            "ticks": 74280,
            "time": 83.648565,
            "velocity": 0.984251968503937
          },
          {
            "duration": 0.08558549999999343,
            "durationTicks": 76,
            "midi": 58,
            "name": "A#3",
            "ticks": 74280,
            "time": 83.648565,
            "velocity": 0.6062992125984252
          },
          {
            "duration": 0.06306299999999965,
            "durationTicks": 56,
            "midi": 55,
            "name": "G3",
            "ticks": 74280,
            "time": 83.648565,
            "velocity": 0.8818897637795275
          },
          {
            "duration": 1.0439178749999911,
            "durationTicks": 927,
            "midi": 55,
            "name": "G3",
            "ticks": 74873,
            "time": 84.31635712500001,
            "velocity": 0.7874015748031497
          },
          {
            "duration": 1.077701624999989,
            "durationTicks": 957,
            "midi": 60,
            "name": "C4",
            "ticks": 74873,
            "time": 84.31635712500001,
            "velocity": 0.7874015748031497
          },
          {
            "duration": 1.0416656249999932,
            "durationTicks": 925,
            "midi": 62,
            "name": "D4",
            "ticks": 74874,
            "time": 84.31748325000001,
            "velocity": 0.7874015748031497
          },
          {
            "duration": 1.0563052500000083,
            "durationTicks": 938,
            "midi": 60,
            "name": "C4",
            "ticks": 75840,
            "time": 85.40532,
            "velocity": 0.7874015748031497
          },
          {
            "duration": 1.0484223750000012,
            "durationTicks": 931,
            "midi": 62,
            "name": "D4",
            "ticks": 75841,
            "time": 85.406446125,
            "velocity": 0.7874015748031497
          },
          {
            "duration": 1.0337827500000003,
            "durationTicks": 918,
            "midi": 54,
            "name": "F#3",
            "ticks": 75842,
            "time": 85.40757225,
            "velocity": 0.7874015748031497
          },
          {
            "duration": 0.17229712500000005,
            "durationTicks": 153,
            "midi": 57,
            "name": "A3",
            "ticks": 76783,
            "time": 86.467255875,
            "velocity": 0.7874015748031497
          },
          {
            "duration": 0.17680162500001018,
            "durationTicks": 157,
            "midi": 58,
            "name": "A#3",
            "ticks": 76786,
            "time": 86.47063425,
            "velocity": 0.8818897637795275
          },
          {
            "duration": 0.17454937500001222,
            "durationTicks": 155,
            "midi": 62,
            "name": "D4",
            "ticks": 76788,
            "time": 86.4728865,
            "velocity": 0.8818897637795275
          },
          {
            "duration": 0.13288275000000738,
            "durationTicks": 118,
            "midi": 53,
            "name": "F3",
            "ticks": 76789,
            "time": 86.474012625,
            "velocity": 0.7874015748031497
          },
          {
            "duration": 0.32432399999999006,
            "durationTicks": 288,
            "midi": 58,
            "name": "A#3",
            "ticks": 77760,
            "time": 87.56748,
            "velocity": 0.6062992125984252
          },
          {
            "duration": 0.3175672499999962,
            "durationTicks": 282,
            "midi": 62,
            "name": "D4",
            "ticks": 77760,
            "time": 87.56748,
            "velocity": 0.7874015748031497
          },
          {
            "duration": 0.3130627500000003,
            "durationTicks": 278,
            "midi": 55,
            "name": "G3",
            "ticks": 77760,
            "time": 87.56748,
            "velocity": 0.8818897637795275
          },
          {
            "duration": 0.2995492499999983,
            "durationTicks": 266,
            "midi": 52,
            "name": "E3",
            "ticks": 77760,
            "time": 87.56748,
            "velocity": 0.7874015748031497
          },
          {
            "duration": 0.07770262500000058,
            "durationTicks": 69,
            "midi": 62,
            "name": "D4",
            "ticks": 78120,
            "time": 87.972885,
            "velocity": 0.8818897637795275
          },
          {
            "duration": 0.07770262500000058,
            "durationTicks": 69,
            "midi": 58,
            "name": "A#3",
            "ticks": 78120,
            "time": 87.972885,
            "velocity": 0.7874015748031497
          },
          {
            "duration": 0.05743237499999054,
            "durationTicks": 51,
            "midi": 52,
            "name": "E3",
            "ticks": 78120,
            "time": 87.972885,
            "velocity": 0.6929133858267716
          },
          {
            "duration": 0.05743237499999054,
            "durationTicks": 51,
            "midi": 55,
            "name": "G3",
            "ticks": 78120,
            "time": 87.972885,
            "velocity": 0.7874015748031497
          },
          {
            "duration": 0.14977462500000627,
            "durationTicks": 133,
            "midi": 51,
            "name": "D#3",
            "ticks": 78600,
            "time": 88.513425,
            "velocity": 0.6929133858267716
          },
          {
            "duration": 0.17680162499999597,
            "durationTicks": 157,
            "midi": 58,
            "name": "A#3",
            "ticks": 78600,
            "time": 88.513425,
            "velocity": 0.6062992125984252
          },
          {
            "duration": 0.14301787499999818,
            "durationTicks": 127,
            "midi": 62,
            "name": "D4",
            "ticks": 78600,
            "time": 88.513425,
            "velocity": 0.8818897637795275
          },
          {
            "duration": 0.16554037500000618,
            "durationTicks": 147,
            "midi": 55,
            "name": "G3",
            "ticks": 78600,
            "time": 88.513425,
            "velocity": 0.8818897637795275
          },
          {
            "duration": 0.07995487500001275,
            "durationTicks": 71,
            "midi": 56,
            "name": "G#3",
            "ticks": 79920,
            "time": 89.99991,
            "velocity": 0.7874015748031497
          },
          {
            "duration": 0.07545037500000262,
            "durationTicks": 67,
            "midi": 58,
            "name": "A#3",
            "ticks": 79920,
            "time": 89.99991,
            "velocity": 0.7874015748031497
          },
          {
            "duration": 0.06306300000001386,
            "durationTicks": 56,
            "midi": 62,
            "name": "D4",
            "ticks": 79920,
            "time": 89.99991,
            "velocity": 0.8818897637795275
          },
          {
            "duration": 0.05405399999999361,
            "durationTicks": 48,
            "midi": 53,
            "name": "F3",
            "ticks": 79920,
            "time": 89.99991,
            "velocity": 0.6929133858267716
          },
          {
            "duration": 0.09009000000000356,
            "durationTicks": 80,
            "midi": 62,
            "name": "D4",
            "ticks": 80280,
            "time": 90.405315,
            "velocity": 0.8818897637795275
          },
          {
            "duration": 0.12499987500000032,
            "durationTicks": 111,
            "midi": 58,
            "name": "A#3",
            "ticks": 80280,
            "time": 90.405315,
            "velocity": 0.7874015748031497
          },
          {
            "duration": 0.06981974999999352,
            "durationTicks": 62,
            "midi": 53,
            "name": "F3",
            "ticks": 80280,
            "time": 90.405315,
            "velocity": 0.7874015748031497
          },
          {
            "duration": 0.12274762500000236,
            "durationTicks": 109,
            "midi": 56,
            "name": "G#3",
            "ticks": 80280,
            "time": 90.405315,
            "velocity": 0.6929133858267716
          },
          {
            "duration": 0.1418917499999992,
            "durationTicks": 126,
            "midi": 51,
            "name": "D#3",
            "ticks": 80520,
            "time": 90.675585,
            "velocity": 0.7874015748031497
          },
          {
            "duration": 0.16328812500000822,
            "durationTicks": 145,
            "midi": 58,
            "name": "A#3",
            "ticks": 80520,
            "time": 90.675585,
            "velocity": 0.8818897637795275
          },
          {
            "duration": 0.16103587500001026,
            "durationTicks": 143,
            "midi": 55,
            "name": "G3",
            "ticks": 80520,
            "time": 90.675585,
            "velocity": 0.8818897637795275
          },
          {
            "duration": 0.15202687500000422,
            "durationTicks": 135,
            "midi": 62,
            "name": "D4",
            "ticks": 80520,
            "time": 90.675585,
            "velocity": 0.984251968503937
          },
          {
            "duration": 0.12499987500000032,
            "durationTicks": 111,
            "midi": 60,
            "name": "C4",
            "ticks": 82800,
            "time": 93.24315,
            "velocity": 0.8818897637795275
          },
          {
            "duration": 0.13513500000000533,
            "durationTicks": 120,
            "midi": 62,
            "name": "D4",
            "ticks": 82800,
            "time": 93.24315,
            "velocity": 0.8818897637795275
          },
          {
            "duration": 0.08445937500000866,
            "durationTicks": 75,
            "midi": 55,
            "name": "G3",
            "ticks": 82800,
            "time": 93.24315,
            "velocity": 0.7874015748031497
          },
          {
            "duration": 0.13288275000000738,
            "durationTicks": 118,
            "midi": 60,
            "name": "C4",
            "ticks": 83160,
            "time": 93.648555,
            "velocity": 0.7874015748031497
          },
          {
            "duration": 0.12950437500001044,
            "durationTicks": 115,
            "midi": 55,
            "name": "G3",
            "ticks": 83160,
            "time": 93.648555,
            "velocity": 0.8818897637795275
          },
          {
            "duration": 0.13063050000000942,
            "durationTicks": 116,
            "midi": 62,
            "name": "D4",
            "ticks": 83160,
            "time": 93.648555,
            "velocity": 0.8818897637795275
          },
          {
            "duration": 0.1801800000000071,
            "durationTicks": 160,
            "midi": 60,
            "name": "C4",
            "ticks": 83520,
            "time": 94.05396,
            "velocity": 0.8818897637795275
          },
          {
            "duration": 0.1418917499999992,
            "durationTicks": 126,
            "midi": 62,
            "name": "D4",
            "ticks": 83520,
            "time": 94.05396,
            "velocity": 0.7874015748031497
          },
          {
            "duration": 0.14301787499999818,
            "durationTicks": 127,
            "midi": 54,
            "name": "F#3",
            "ticks": 83520,
            "time": 94.05396,
            "velocity": 0.7874015748031497
          },
          {
            "duration": 0.2027025000000009,
            "durationTicks": 180,
            "midi": 50,
            "name": "D3",
            "ticks": 83913,
            "time": 94.496527125,
            "velocity": 0.7874015748031497
          },
          {
            "duration": 0.09684674999999743,
            "durationTicks": 86,
            "midi": 62,
            "name": "D4",
            "ticks": 83916,
            "time": 94.4999055,
            "velocity": 0.8818897637795275
          },
          {
            "duration": 0.1249998749999861,
            "durationTicks": 111,
            "midi": 65,
            "name": "F4",
            "ticks": 84031,
            "time": 94.62940987500001,
            "velocity": 0.984251968503937
          },
          {
            "duration": 0.11711699999997904,
            "durationTicks": 104,
            "midi": 53,
            "name": "F3",
            "ticks": 84038,
            "time": 94.63729275000001,
            "velocity": 0.8818897637795275
          },
          {
            "duration": 0.12274762499998815,
            "durationTicks": 109,
            "midi": 54,
            "name": "F#3",
            "ticks": 84266,
            "time": 94.89404925000001,
            "velocity": 0.7874015748031497
          },
          {
            "duration": 0.12162149999998917,
            "durationTicks": 108,
            "midi": 66,
            "name": "F#4",
            "ticks": 84271,
            "time": 94.899679875,
            "velocity": 0.8818897637795275
          },
          {
            "duration": 0.14977462499999206,
            "durationTicks": 133,
            "midi": 55,
            "name": "G3",
            "ticks": 84504,
            "time": 95.16206700000001,
            "velocity": 0.8818897637795275
          },
          {
            "duration": 0.13851337500000227,
            "durationTicks": 123,
            "midi": 67,
            "name": "G4",
            "ticks": 84510,
            "time": 95.16882375,
            "velocity": 0.8818897637795275
          },
          {
            "duration": 0.3716212499999898,
            "durationTicks": 330,
            "midi": 65,
            "name": "F4",
            "ticks": 87277,
            "time": 98.284811625,
            "velocity": 0.984251968503937
          },
          {
            "duration": 0.28716187500000956,
            "durationTicks": 255,
            "midi": 63,
            "name": "D#4",
            "ticks": 87579,
            "time": 98.62490137500001,
            "velocity": 0.8818897637795275
          },
          {
            "duration": 0.2680177499999985,
            "durationTicks": 238,
            "midi": 58,
            "name": "A#3",
            "ticks": 87840,
            "time": 98.91882000000001,
            "velocity": 0.8818897637795275
          },
          {
            "duration": 0.11824312499999223,
            "durationTicks": 105,
            "midi": 60,
            "name": "C4",
            "ticks": 88080,
            "time": 99.18909000000001,
            "velocity": 0.8818897637795275
          },
          {
            "duration": 0.11486475000000951,
            "durationTicks": 102,
            "midi": 60,
            "name": "C4",
            "ticks": 88320,
            "time": 99.45936,
            "velocity": 0.8818897637795275
          },
          {
            "duration": 0.10022512499999436,
            "durationTicks": 89,
            "midi": 55,
            "name": "G3",
            "ticks": 88324,
            "time": 99.4638645,
            "velocity": 0.8818897637795275
          },
          {
            "duration": 0.08783774999999139,
            "durationTicks": 78,
            "midi": 62,
            "name": "D4",
            "ticks": 88331,
            "time": 99.471747375,
            "velocity": 0.8818897637795275
          },
          {
            "duration": 0.11036024999999938,
            "durationTicks": 98,
            "midi": 62,
            "name": "D4",
            "ticks": 88555,
            "time": 99.723999375,
            "velocity": 0.8818897637795275
          },
          {
            "duration": 0.10472962500000449,
            "durationTicks": 93,
            "midi": 55,
            "name": "G3",
            "ticks": 88560,
            "time": 99.72963,
            "velocity": 0.8818897637795275
          },
          {
            "duration": 0.11711700000000747,
            "durationTicks": 104,
            "midi": 60,
            "name": "C4",
            "ticks": 88562,
            "time": 99.73188225,
            "velocity": 0.7874015748031497
          },
          {
            "duration": 0.15540525000000116,
            "durationTicks": 138,
            "midi": 60,
            "name": "C4",
            "ticks": 89280,
            "time": 100.54044,
            "velocity": 0.8818897637795275
          },
          {
            "duration": 0.13063050000000942,
            "durationTicks": 116,
            "midi": 54,
            "name": "F#3",
            "ticks": 89280,
            "time": 100.54044,
            "velocity": 0.6929133858267716
          },
          {
            "duration": 0.13963950000000125,
            "durationTicks": 124,
            "midi": 62,
            "name": "D4",
            "ticks": 89280,
            "time": 100.54044,
            "velocity": 0.8818897637795275
          },
          {
            "duration": 0.2691438749999975,
            "durationTicks": 239,
            "midi": 58,
            "name": "A#3",
            "ticks": 89760,
            "time": 101.08098000000001,
            "velocity": 0.5354330708661418
          },
          {
            "duration": 0.25900874999999246,
            "durationTicks": 230,
            "midi": 63,
            "name": "D#4",
            "ticks": 89760,
            "time": 101.08098000000001,
            "velocity": 0.7874015748031497
          },
          {
            "duration": 0.2409907499999946,
            "durationTicks": 214,
            "midi": 60,
            "name": "C4",
            "ticks": 89760,
            "time": 101.08098000000001,
            "velocity": 0.8818897637795275
          },
          {
            "duration": 0.2240988749999957,
            "durationTicks": 199,
            "midi": 55,
            "name": "G3",
            "ticks": 89760,
            "time": 101.08098000000001,
            "velocity": 0.8818897637795275
          },
          {
            "duration": 0.11373862499999632,
            "durationTicks": 101,
            "midi": 60,
            "name": "C4",
            "ticks": 90000,
            "time": 101.35125000000001,
            "velocity": 0.6929133858267716
          },
          {
            "duration": 0.10810799999998721,
            "durationTicks": 96,
            "midi": 65,
            "name": "F4",
            "ticks": 90000,
            "time": 101.35125000000001,
            "velocity": 0.8818897637795275
          },
          {
            "duration": 0.11599087499999428,
            "durationTicks": 103,
            "midi": 54,
            "name": "F#3",
            "ticks": 90000,
            "time": 101.35125000000001,
            "velocity": 0.6062992125984252
          },
          {
            "duration": 1.2150888750000064,
            "durationTicks": 1079,
            "midi": 58,
            "name": "A#3",
            "ticks": 90120,
            "time": 101.486385,
            "velocity": 0.7874015748031497
          },
          {
            "duration": 1.2150888750000064,
            "durationTicks": 1079,
            "midi": 62,
            "name": "D4",
            "ticks": 90120,
            "time": 101.486385,
            "velocity": 0.8818897637795275
          },
          {
            "duration": 1.2027015000000034,
            "durationTicks": 1068,
            "midi": 57,
            "name": "A3",
            "ticks": 90120,
            "time": 101.486385,
            "velocity": 0.8818897637795275
          },
          {
            "duration": 1.2060798750000004,
            "durationTicks": 1071,
            "midi": 53,
            "name": "F3",
            "ticks": 90120,
            "time": 101.486385,
            "velocity": 0.6929133858267716
          },
          {
            "duration": 0.3051798749999932,
            "durationTicks": 271,
            "midi": 60,
            "name": "C4",
            "ticks": 94069,
            "time": 105.933452625,
            "velocity": 0.8818897637795275
          },
          {
            "duration": 0.3051798749999932,
            "durationTicks": 271,
            "midi": 58,
            "name": "A#3",
            "ticks": 94069,
            "time": 105.933452625,
            "velocity": 0.8818897637795275
          },
          {
            "duration": 0.3322068749999971,
            "durationTicks": 295,
            "midi": 63,
            "name": "D#4",
            "ticks": 94069,
            "time": 105.933452625,
            "velocity": 0.8818897637795275
          },
          {
            "duration": 0.36824287499999286,
            "durationTicks": 327,
            "midi": 67,
            "name": "G4",
            "ticks": 94073,
            "time": 105.93795712500001,
            "velocity": 0.8818897637795275
          },
          {
            "duration": 0.04504500000000178,
            "durationTicks": 40,
            "midi": 66,
            "name": "F#4",
            "ticks": 94304,
            "time": 106.198092,
            "velocity": 0.7874015748031497
          },
          {
            "duration": 0.04504500000001599,
            "durationTicks": 40,
            "midi": 65,
            "name": "F4",
            "ticks": 94355,
            "time": 106.255524375,
            "velocity": 0.7007874015748031
          },
          {
            "duration": 0.04504499999998757,
            "durationTicks": 40,
            "midi": 63,
            "name": "D#4",
            "ticks": 94390,
            "time": 106.29493875000001,
            "velocity": 0.7007874015748031
          },
          {
            "duration": 0.04504500000000178,
            "durationTicks": 40,
            "midi": 61,
            "name": "C#4",
            "ticks": 94428,
            "time": 106.3377315,
            "velocity": 0.6299212598425197
          },
          {
            "duration": 0.039414374999992674,
            "durationTicks": 35,
            "midi": 59,
            "name": "B3",
            "ticks": 94463,
            "time": 106.37714587500001,
            "velocity": 0.6220472440944882
          },
          {
            "duration": 0.039414374999992674,
            "durationTicks": 35,
            "midi": 58,
            "name": "A#3",
            "ticks": 94517,
            "time": 106.437956625,
            "velocity": 0.6062992125984252
          },
          {
            "duration": 0.039414375000021096,
            "durationTicks": 35,
            "midi": 56,
            "name": "G#3",
            "ticks": 94548,
            "time": 106.4728665,
            "velocity": 0.6062992125984252
          },
          {
            "duration": 0.039414375000006885,
            "durationTicks": 35,
            "midi": 54,
            "name": "F#3",
            "ticks": 94594,
            "time": 106.52466825,
            "velocity": 0.5039370078740157
          },
          {
            "duration": 0.039414374999992674,
            "durationTicks": 35,
            "midi": 53,
            "name": "F3",
            "ticks": 94637,
            "time": 106.573091625,
            "velocity": 0.5039370078740157
          },
          {
            "duration": 0.0822071250000107,
            "durationTicks": 73,
            "midi": 62,
            "name": "D4",
            "ticks": 102000,
            "time": 114.86475,
            "velocity": 0.7637795275590551
          },
          {
            "duration": 0.0878377500000056,
            "durationTicks": 78,
            "midi": 58,
            "name": "A#3",
            "ticks": 102000,
            "time": 114.86475,
            "velocity": 0.6692913385826772
          },
          {
            "duration": 0.07770262500001479,
            "durationTicks": 69,
            "midi": 64,
            "name": "E4",
            "ticks": 102360,
            "time": 115.270155,
            "velocity": 0.6692913385826772
          },
          {
            "duration": 0.06981974999999352,
            "durationTicks": 62,
            "midi": 60,
            "name": "C4",
            "ticks": 102360,
            "time": 115.270155,
            "velocity": 0.6692913385826772
          },
          {
            "duration": 1.1283772499999998,
            "durationTicks": 1002,
            "midi": 62,
            "name": "D4",
            "ticks": 102629,
            "time": 115.57308262500001,
            "velocity": 0.6692913385826772
          },
          {
            "duration": 1.1148637499999978,
            "durationTicks": 990,
            "midi": 65,
            "name": "F4",
            "ticks": 102632,
            "time": 115.57646100000001,
            "velocity": 0.6692913385826772
          },
          {
            "duration": 0.06306300000001386,
            "durationTicks": 56,
            "midi": 62,
            "name": "D4",
            "ticks": 103920,
            "time": 117.02691,
            "velocity": 0.7637795275590551
          },
          {
            "duration": 0.06981975000000773,
            "durationTicks": 62,
            "midi": 58,
            "name": "A#3",
            "ticks": 103920,
            "time": 117.02691,
            "velocity": 0.5748031496062992
          },
          {
            "duration": 0.06981974999999352,
            "durationTicks": 62,
            "midi": 64,
            "name": "E4",
            "ticks": 104280,
            "time": 117.432315,
            "velocity": 0.6692913385826772
          },
          {
            "duration": 0.06756749999999556,
            "durationTicks": 60,
            "midi": 60,
            "name": "C4",
            "ticks": 104280,
            "time": 117.432315,
            "velocity": 0.6692913385826772
          },
          {
            "duration": 1.034908874999985,
            "durationTicks": 919,
            "midi": 62,
            "name": "D4",
            "ticks": 104544,
            "time": 117.72961200000002,
            "velocity": 0.5748031496062992
          },
          {
            "duration": 1.034908874999985,
            "durationTicks": 919,
            "midi": 65,
            "name": "F4",
            "ticks": 104551,
            "time": 117.73749487500001,
            "velocity": 0.6692913385826772
          },
          {
            "duration": 0.08445937499999445,
            "durationTicks": 75,
            "midi": 62,
            "name": "D4",
            "ticks": 105720,
            "time": 119.05393500000001,
            "velocity": 0.6692913385826772
          },
          {
            "duration": 0.07319812499999045,
            "durationTicks": 65,
            "midi": 58,
            "name": "A#3",
            "ticks": 105720,
            "time": 119.05393500000001,
            "velocity": 0.5748031496062992
          },
          {
            "duration": 0.04279275000001803,
            "durationTicks": 38,
            "midi": 64,
            "name": "E4",
            "ticks": 106080,
            "time": 119.45934,
            "velocity": 0.6692913385826772
          },
          {
            "duration": 0.07207200000000569,
            "durationTicks": 64,
            "midi": 60,
            "name": "C4",
            "ticks": 106080,
            "time": 119.45934,
            "velocity": 0.6692913385826772
          },
          {
            "duration": 0.06756749999999556,
            "durationTicks": 60,
            "midi": 64,
            "name": "E4",
            "ticks": 106320,
            "time": 119.72961000000001,
            "velocity": 0.6692913385826772
          },
          {
            "duration": 0.08445937499999445,
            "durationTicks": 75,
            "midi": 60,
            "name": "C4",
            "ticks": 106320,
            "time": 119.72961000000001,
            "velocity": 0.5748031496062992
          },
          {
            "duration": 0.07545037499998841,
            "durationTicks": 67,
            "midi": 65,
            "name": "F4",
            "ticks": 106560,
            "time": 119.99988,
            "velocity": 0.6692913385826772
          },
          {
            "duration": 0.07545037499998841,
            "durationTicks": 67,
            "midi": 62,
            "name": "D4",
            "ticks": 106560,
            "time": 119.99988,
            "velocity": 0.7637795275590551
          },
          {
            "duration": 0.07770262500001479,
            "durationTicks": 69,
            "midi": 67,
            "name": "G4",
            "ticks": 106800,
            "time": 120.27015,
            "velocity": 0.6692913385826772
          },
          {
            "duration": 0.05743237499999054,
            "durationTicks": 51,
            "midi": 64,
            "name": "E4",
            "ticks": 106800,
            "time": 120.27015,
            "velocity": 0.6692913385826772
          },
          {
            "duration": 0.07995487499999854,
            "durationTicks": 71,
            "midi": 65,
            "name": "F4",
            "ticks": 107040,
            "time": 120.54042000000001,
            "velocity": 0.6692913385826772
          },
          {
            "duration": 0.06756749999999556,
            "durationTicks": 60,
            "midi": 62,
            "name": "D4",
            "ticks": 107040,
            "time": 120.54042000000001,
            "velocity": 0.7637795275590551
          },
          {
            "duration": 0.07770262500000058,
            "durationTicks": 69,
            "midi": 60,
            "name": "C4",
            "ticks": 107280,
            "time": 120.81069000000001,
            "velocity": 0.7637795275590551
          },
          {
            "duration": 0.0923422499999873,
            "durationTicks": 82,
            "midi": 57,
            "name": "A3",
            "ticks": 107280,
            "time": 120.81069000000001,
            "velocity": 0.6692913385826772
          },
          {
            "duration": 1.2038276250000024,
            "durationTicks": 1069,
            "midi": 58,
            "name": "A#3",
            "ticks": 107400,
            "time": 120.945825,
            "velocity": 0.6929133858267716
          },
          {
            "duration": 1.2162150000000054,
            "durationTicks": 1080,
            "midi": 62,
            "name": "D4",
            "ticks": 107400,
            "time": 120.945825,
            "velocity": 0.8818897637795275
          },
          {
            "duration": 0.33558524999999406,
            "durationTicks": 298,
            "midi": 60,
            "name": "C4",
            "ticks": 109580,
            "time": 123.4007775,
            "velocity": 0.6299212598425197
          },
          {
            "duration": 0.3445942500000001,
            "durationTicks": 306,
            "midi": 67,
            "name": "G4",
            "ticks": 109582,
            "time": 123.40302975,
            "velocity": 0.7874015748031497
          },
          {
            "duration": 0.3220717499999921,
            "durationTicks": 286,
            "midi": 63,
            "name": "D#4",
            "ticks": 109587,
            "time": 123.40866037500001,
            "velocity": 0.6929133858267716
          },
          {
            "duration": 0.337837499999992,
            "durationTicks": 300,
            "midi": 58,
            "name": "A#3",
            "ticks": 109587,
            "time": 123.40866037500001,
            "velocity": 0.6062992125984252
          },
          {
            "duration": 0.15653137499998593,
            "durationTicks": 139,
            "midi": 60,
            "name": "C4",
            "ticks": 109914,
            "time": 123.77690325000002,
            "velocity": 0.6929133858267716
          },
          {
            "duration": 0.12162149999998917,
            "durationTicks": 108,
            "midi": 63,
            "name": "D#4",
            "ticks": 109916,
            "time": 123.77915550000002,
            "velocity": 0.7874015748031497
          },
          {
            "duration": 0.1148647499999953,
            "durationTicks": 102,
            "midi": 55,
            "name": "G3",
            "ticks": 109919,
            "time": 123.78253387500001,
            "velocity": 0.6062992125984252
          },
          {
            "duration": 0.11824312500000644,
            "durationTicks": 105,
            "midi": 58,
            "name": "A#3",
            "ticks": 109925,
            "time": 123.78929062499999,
            "velocity": 0.6377952755905512
          },
          {
            "duration": 0.08445937500000866,
            "durationTicks": 75,
            "midi": 63,
            "name": "D#4",
            "ticks": 110101,
            "time": 123.987488625,
            "velocity": 0.6929133858267716
          },
          {
            "duration": 0.0765765000000016,
            "durationTicks": 68,
            "midi": 60,
            "name": "C4",
            "ticks": 110193,
            "time": 124.091092125,
            "velocity": 0.6929133858267716
          },
          {
            "duration": 0.09121612500000253,
            "durationTicks": 81,
            "midi": 63,
            "name": "D#4",
            "ticks": 110276,
            "time": 124.1845605,
            "velocity": 0.5984251968503937
          },
          {
            "duration": 0.06644137499999658,
            "durationTicks": 59,
            "midi": 67,
            "name": "G4",
            "ticks": 110337,
            "time": 124.25325412500001,
            "velocity": 0.7874015748031497
          },
          {
            "duration": 0.20945925000000898,
            "durationTicks": 186,
            "midi": 63,
            "name": "D#4",
            "ticks": 110404,
            "time": 124.3287045,
            "velocity": 0.6929133858267716
          },
          {
            "duration": 0.22860337500000583,
            "durationTicks": 203,
            "midi": 67,
            "name": "G4",
            "ticks": 110404,
            "time": 124.3287045,
            "velocity": 0.7874015748031497
          },
          {
            "duration": 0.24436912500000574,
            "durationTicks": 217,
            "midi": 60,
            "name": "C4",
            "ticks": 110405,
            "time": 124.329830625,
            "velocity": 0.6299212598425197
          },
          {
            "duration": 0.17229712500000005,
            "durationTicks": 153,
            "midi": 58,
            "name": "A#3",
            "ticks": 110412,
            "time": 124.3377135,
            "velocity": 0.6220472440944882
          },
          {
            "duration": 0.1261259999999993,
            "durationTicks": 112,
            "midi": 67,
            "name": "G4",
            "ticks": 110633,
            "time": 124.58658712500001,
            "velocity": 0.6929133858267716
          },
          {
            "duration": 0.1261259999999993,
            "durationTicks": 112,
            "midi": 60,
            "name": "C4",
            "ticks": 110633,
            "time": 124.58658712500001,
            "velocity": 0.6062992125984252
          },
          {
            "duration": 0.15990974999999708,
            "durationTicks": 142,
            "midi": 70,
            "name": "A#4",
            "ticks": 110638,
            "time": 124.59221775,
            "velocity": 0.7874015748031497
          },
          {
            "duration": 0.1261260000000135,
            "durationTicks": 112,
            "midi": 63,
            "name": "D#4",
            "ticks": 110643,
            "time": 124.597848375,
            "velocity": 0.6929133858267716
          },
          {
            "duration": 0.6768011249999972,
            "durationTicks": 601,
            "midi": 63,
            "name": "D#4",
            "ticks": 110783,
            "time": 124.75550587500001,
            "velocity": 0.6929133858267716
          },
          {
            "duration": 0.6903146249999992,
            "durationTicks": 613,
            "midi": 66,
            "name": "F#4",
            "ticks": 110786,
            "time": 124.75888425000001,
            "velocity": 0.7874015748031497
          },
          {
            "duration": 0.6576570000000004,
            "durationTicks": 584,
            "midi": 60,
            "name": "C4",
            "ticks": 110794,
            "time": 124.76789325,
            "velocity": 0.6299212598425197
          },
          {
            "duration": 0.6509002499999923,
            "durationTicks": 578,
            "midi": 57,
            "name": "A3",
            "ticks": 110800,
            "time": 124.77465000000001,
            "velocity": 0.6062992125984252
          },
          {
            "duration": 0.3108105000000023,
            "durationTicks": 276,
            "midi": 57,
            "name": "A3",
            "ticks": 111482,
            "time": 125.54266725000001,
            "velocity": 0.6299212598425197
          },
          {
            "duration": 0.3108105000000023,
            "durationTicks": 276,
            "midi": 65,
            "name": "F4",
            "ticks": 111482,
            "time": 125.54266725000001,
            "velocity": 0.7874015748031497
          },
          {
            "duration": 0.30292762499999526,
            "durationTicks": 269,
            "midi": 60,
            "name": "C4",
            "ticks": 111487,
            "time": 125.548297875,
            "velocity": 0.6929133858267716
          },
          {
            "duration": 0.2995492499999841,
            "durationTicks": 266,
            "midi": 62,
            "name": "D4",
            "ticks": 111490,
            "time": 125.55167625000001,
            "velocity": 0.7086614173228346
          },
          {
            "duration": 0.15653137499998593,
            "durationTicks": 139,
            "midi": 61,
            "name": "C#4",
            "ticks": 111833,
            "time": 125.93793712500002,
            "velocity": 0.6929133858267716
          },
          {
            "duration": 0.15090074999999104,
            "durationTicks": 134,
            "midi": 58,
            "name": "A#3",
            "ticks": 111836,
            "time": 125.94131550000002,
            "velocity": 0.6456692913385826
          },
          {
            "duration": 0.11036024999998517,
            "durationTicks": 98,
            "midi": 55,
            "name": "G3",
            "ticks": 111836,
            "time": 125.94131550000002,
            "velocity": 0.6062992125984252
          },
          {
            "duration": 0.16891875000000312,
            "durationTicks": 150,
            "midi": 65,
            "name": "F4",
            "ticks": 111840,
            "time": 125.94582,
            "velocity": 0.6929133858267716
          },
          {
            "duration": 0.08445937500000866,
            "durationTicks": 75,
            "midi": 61,
            "name": "C#4",
            "ticks": 112020,
            "time": 126.1485225,
            "velocity": 0.6929133858267716
          },
          {
            "duration": 0.0765765000000016,
            "durationTicks": 68,
            "midi": 58,
            "name": "A#3",
            "ticks": 112112,
            "time": 126.252126,
            "velocity": 0.6929133858267716
          },
          {
            "duration": 0.09121612500000253,
            "durationTicks": 81,
            "midi": 61,
            "name": "C#4",
            "ticks": 112195,
            "time": 126.345594375,
            "velocity": 0.5984251968503937
          },
          {
            "duration": 0.06644137499999658,
            "durationTicks": 59,
            "midi": 65,
            "name": "F4",
            "ticks": 112256,
            "time": 126.41428800000001,
            "velocity": 0.7874015748031497
          },
          {
            "duration": 0.35923387500000104,
            "durationTicks": 319,
            "midi": 60,
            "name": "C4",
            "ticks": 112317,
            "time": 126.48298162500001,
            "velocity": 0.6299212598425197
          },
          {
            "duration": 0.36486450000001014,
            "durationTicks": 324,
            "midi": 62,
            "name": "D4",
            "ticks": 112322,
            "time": 126.48861225,
            "velocity": 0.6929133858267716
          },
          {
            "duration": 0.3603600000000142,
            "durationTicks": 320,
            "midi": 69,
            "name": "A4",
            "ticks": 112323,
            "time": 126.489738375,
            "velocity": 0.7874015748031497
          },
          {
            "duration": 0.361486124999999,
            "durationTicks": 321,
            "midi": 65,
            "name": "F4",
            "ticks": 112332,
            "time": 126.4998735,
            "velocity": 0.7480314960629921
          },
          {
            "duration": 0.6745488749999993,
            "durationTicks": 599,
            "midi": 56,
            "name": "G#3",
            "ticks": 112729,
            "time": 126.946945125,
            "velocity": 0.6062992125984252
          },
          {
            "duration": 0.6745488749999993,
            "durationTicks": 599,
            "midi": 59,
            "name": "B3",
            "ticks": 112729,
            "time": 126.946945125,
            "velocity": 0.6850393700787402
          },
          {
            "duration": 0.6745488749999993,
            "durationTicks": 599,
            "midi": 65,
            "name": "F4",
            "ticks": 112731,
            "time": 126.949197375,
            "velocity": 0.7874015748031497
          },
          {
            "duration": 0.6644137499999943,
            "durationTicks": 590,
            "midi": 61,
            "name": "C#4",
            "ticks": 112734,
            "time": 126.95257575000001,
            "velocity": 0.6929133858267716
          },
          {
            "duration": 0.09684674999999743,
            "durationTicks": 86,
            "midi": 63,
            "name": "D#4",
            "ticks": 113432,
            "time": 127.738611,
            "velocity": 0.6929133858267716
          },
          {
            "duration": 0.08108099999999752,
            "durationTicks": 72,
            "midi": 58,
            "name": "A#3",
            "ticks": 113433,
            "time": 127.739737125,
            "velocity": 0.8818897637795275
          },
          {
            "duration": 0.08108099999999752,
            "durationTicks": 72,
            "midi": 60,
            "name": "C4",
            "ticks": 113433,
            "time": 127.739737125,
            "velocity": 0.8818897637795275
          },
          {
            "duration": 0.07207200000000569,
            "durationTicks": 64,
            "midi": 67,
            "name": "G4",
            "ticks": 113436,
            "time": 127.7431155,
            "velocity": 0.8818897637795275
          },
          {
            "duration": 0.057432375000018965,
            "durationTicks": 51,
            "midi": 63,
            "name": "D#4",
            "ticks": 113646,
            "time": 127.97960175,
            "velocity": 0.7874015748031497
          },
          {
            "duration": 0.03603599999999574,
            "durationTicks": 32,
            "midi": 60,
            "name": "C4",
            "ticks": 113651,
            "time": 127.98523237500001,
            "velocity": 0.6929133858267716
          },
          {
            "duration": 0.03603599999999574,
            "durationTicks": 32,
            "midi": 58,
            "name": "A#3",
            "ticks": 113651,
            "time": 127.98523237500001,
            "velocity": 0.7874015748031497
          },
          {
            "duration": 0.09459449999999947,
            "durationTicks": 84,
            "midi": 63,
            "name": "D#4",
            "ticks": 113756,
            "time": 128.1034755,
            "velocity": 0.6929133858267716
          },
          {
            "duration": 0.08558549999997922,
            "durationTicks": 76,
            "midi": 67,
            "name": "G4",
            "ticks": 113757,
            "time": 128.10460162500002,
            "velocity": 0.8818897637795275
          },
          {
            "duration": 0.08558550000000764,
            "durationTicks": 76,
            "midi": 58,
            "name": "A#3",
            "ticks": 113760,
            "time": 128.10798,
            "velocity": 0.8818897637795275
          },
          {
            "duration": 0.08558550000000764,
            "durationTicks": 76,
            "midi": 60,
            "name": "C4",
            "ticks": 113760,
            "time": 128.10798,
            "velocity": 0.8818897637795275
          },
          {
            "duration": 0.09572062500001266,
            "durationTicks": 85,
            "midi": 63,
            "name": "D#4",
            "ticks": 114001,
            "time": 128.379376125,
            "velocity": 0.7874015748031497
          },
          {
            "duration": 0.08671162499999241,
            "durationTicks": 77,
            "midi": 60,
            "name": "C4",
            "ticks": 114004,
            "time": 128.3827545,
            "velocity": 0.6929133858267716
          },
          {
            "duration": 0.08671162499999241,
            "durationTicks": 77,
            "midi": 58,
            "name": "A#3",
            "ticks": 114004,
            "time": 128.3827545,
            "velocity": 0.8818897637795275
          },
          {
            "duration": 0.09797287500001062,
            "durationTicks": 87,
            "midi": 63,
            "name": "D#4",
            "ticks": 114245,
            "time": 128.654150625,
            "velocity": 0.6929133858267716
          },
          {
            "duration": 0.08671162499999241,
            "durationTicks": 77,
            "midi": 67,
            "name": "G4",
            "ticks": 114248,
            "time": 128.657529,
            "velocity": 0.7874015748031497
          },
          {
            "duration": 0.08783774999997718,
            "durationTicks": 78,
            "midi": 70,
            "name": "A#4",
            "ticks": 114249,
            "time": 128.65865512500002,
            "velocity": 0.6062992125984252
          },
          {
            "duration": 0.08783774999997718,
            "durationTicks": 78,
            "midi": 60,
            "name": "C4",
            "ticks": 114249,
            "time": 128.65865512500002,
            "velocity": 0.6692913385826772
          },
          {
            "duration": 0.09459449999999947,
            "durationTicks": 84,
            "midi": 67,
            "name": "G4",
            "ticks": 114486,
            "time": 128.92554675,
            "velocity": 0.7874015748031497
          },
          {
            "duration": 0.10247737499997811,
            "durationTicks": 91,
            "midi": 70,
            "name": "A#4",
            "ticks": 114490,
            "time": 128.93005125000002,
            "velocity": 0.6062992125984252
          },
          {
            "duration": 0.10247737499997811,
            "durationTicks": 91,
            "midi": 60,
            "name": "C4",
            "ticks": 114490,
            "time": 128.93005125000002,
            "velocity": 0.6299212598425197
          },
          {
            "duration": 0.11148637499999836,
            "durationTicks": 99,
            "midi": 63,
            "name": "D#4",
            "ticks": 114497,
            "time": 128.937934125,
            "velocity": 0.6929133858267716
          },
          {
            "duration": 0.21508987500001808,
            "durationTicks": 191,
            "midi": 57,
            "name": "A3",
            "ticks": 114727,
            "time": 129.196942875,
            "velocity": 0.6062992125984252
          },
          {
            "duration": 0.21508987500001808,
            "durationTicks": 191,
            "midi": 60,
            "name": "C4",
            "ticks": 114727,
            "time": 129.196942875,
            "velocity": 0.6929133858267716
          },
          {
            "duration": 0.21171150000000694,
            "durationTicks": 188,
            "midi": 62,
            "name": "D4",
            "ticks": 114728,
            "time": 129.198069,
            "velocity": 0.6929133858267716
          },
          {
            "duration": 0.19369349999999486,
            "durationTicks": 172,
            "midi": 66,
            "name": "F#4",
            "ticks": 114731,
            "time": 129.20144737500001,
            "velocity": 0.7874015748031497
          },
          {
            "duration": 0.0878377500000056,
            "durationTicks": 78,
            "midi": 57,
            "name": "A3",
            "ticks": 114957,
            "time": 129.455951625,
            "velocity": 0.6692913385826772
          },
          {
            "duration": 0.0878377500000056,
            "durationTicks": 78,
            "midi": 60,
            "name": "C4",
            "ticks": 114957,
            "time": 129.455951625,
            "velocity": 0.6929133858267716
          },
          {
            "duration": 0.08896387499999037,
            "durationTicks": 79,
            "midi": 54,
            "name": "F#3",
            "ticks": 114963,
            "time": 129.462708375,
            "velocity": 0.6062992125984252
          },
          {
            "duration": 0.10472962500000449,
            "durationTicks": 93,
            "midi": 62,
            "name": "D4",
            "ticks": 114965,
            "time": 129.464960625,
            "velocity": 0.7874015748031497
          },
          {
            "duration": 0.6756750000000125,
            "durationTicks": 600,
            "midi": 57,
            "name": "A3",
            "ticks": 115096,
            "time": 129.612483,
            "velocity": 0.6299212598425197
          },
          {
            "duration": 0.6756750000000125,
            "durationTicks": 600,
            "midi": 58,
            "name": "A#3",
            "ticks": 115096,
            "time": 129.612483,
            "velocity": 0.6929133858267716
          },
          {
            "duration": 0.6824317500000063,
            "durationTicks": 606,
            "midi": 62,
            "name": "D4",
            "ticks": 115097,
            "time": 129.613609125,
            "velocity": 0.7874015748031497
          },
          {
            "duration": 0.6835578749999911,
            "durationTicks": 607,
            "midi": 53,
            "name": "F3",
            "ticks": 115099,
            "time": 129.615861375,
            "velocity": 0.6062992125984252
          },
          {
            "duration": 0.07657650000001581,
            "durationTicks": 68,
            "midi": 56,
            "name": "G#3",
            "ticks": 115822,
            "time": 130.43004975,
            "velocity": 0.6299212598425197
          },
          {
            "duration": 0.07657650000001581,
            "durationTicks": 68,
            "midi": 59,
            "name": "B3",
            "ticks": 115822,
            "time": 130.43004975,
            "velocity": 0.6929133858267716
          },
          {
            "duration": 0.10022512500000857,
            "durationTicks": 89,
            "midi": 63,
            "name": "D#4",
            "ticks": 115825,
            "time": 130.433428125,
            "velocity": 0.7874015748031497
          },
          {
            "duration": 0.07995487499999854,
            "durationTicks": 71,
            "midi": 54,
            "name": "F#3",
            "ticks": 115827,
            "time": 130.435680375,
            "velocity": 0.6062992125984252
          },
          {
            "duration": 0.10698187500000245,
            "durationTicks": 95,
            "midi": 57,
            "name": "A3",
            "ticks": 116029,
            "time": 130.663157625,
            "velocity": 0.6692913385826772
          },
          {
            "duration": 0.12162150000000338,
            "durationTicks": 108,
            "midi": 58,
            "name": "A#3",
            "ticks": 116030,
            "time": 130.66428375,
            "velocity": 0.6929133858267716
          },
          {
            "duration": 0.1092341250000004,
            "durationTicks": 97,
            "midi": 62,
            "name": "D4",
            "ticks": 116036,
            "time": 130.6710405,
            "velocity": 0.7874015748031497
          },
          {
            "duration": 0.11711700000000747,
            "durationTicks": 104,
            "midi": 53,
            "name": "F3",
            "ticks": 116036,
            "time": 130.6710405,
            "velocity": 0.6062992125984252
          },
          {
            "duration": 0.14301787499999818,
            "durationTicks": 127,
            "midi": 55,
            "name": "G3",
            "ticks": 116284,
            "time": 130.9503195,
            "velocity": 0.8818897637795275
          },
          {
            "duration": 0.08445937499999445,
            "durationTicks": 75,
            "midi": 53,
            "name": "F3",
            "ticks": 116399,
            "time": 131.07982387500002,
            "velocity": 0.7874015748031497
          },
          {
            "duration": 0.10472962499997607,
            "durationTicks": 93,
            "midi": 51,
            "name": "D#3",
            "ticks": 116640,
            "time": 131.35122,
            "velocity": 0.7874015748031497
          },
          {
            "duration": 0.10472962500000449,
            "durationTicks": 93,
            "midi": 50,
            "name": "D3",
            "ticks": 116887,
            "time": 131.629372875,
            "velocity": 0.8818897637795275
          },
          {
            "duration": 0.10247737499997811,
            "durationTicks": 91,
            "midi": 48,
            "name": "C3",
            "ticks": 117128,
            "time": 131.90076900000003,
            "velocity": 0.7874015748031497
          },
          {
            "duration": 0.3108105000000023,
            "durationTicks": 276,
            "midi": 59,
            "name": "B3",
            "ticks": 136320,
            "time": 153.51336,
            "velocity": 0.8818897637795275
          },
          {
            "duration": 0.29279249999999024,
            "durationTicks": 260,
            "midi": 55,
            "name": "G3",
            "ticks": 136321,
            "time": 153.51448612500002,
            "velocity": 0.5354330708661418
          },
          {
            "duration": 0.2905402500000207,
            "durationTicks": 258,
            "midi": 62,
            "name": "D4",
            "ticks": 136322,
            "time": 153.51561225,
            "velocity": 0.8818897637795275
          },
          {
            "duration": 0.3243240000000185,
            "durationTicks": 288,
            "midi": 53,
            "name": "F3",
            "ticks": 136322,
            "time": 153.51561225,
            "velocity": 0.7874015748031497
          },
          {
            "duration": 0.05968462500001692,
            "durationTicks": 53,
            "midi": 62,
            "name": "D4",
            "ticks": 136675,
            "time": 153.913134375,
            "velocity": 0.8818897637795275
          },
          {
            "duration": 0.055180124999992586,
            "durationTicks": 49,
            "midi": 59,
            "name": "B3",
            "ticks": 136675,
            "time": 153.913134375,
            "velocity": 0.7874015748031497
          },
          {
            "duration": 0.047297249999985524,
            "durationTicks": 42,
            "midi": 55,
            "name": "G3",
            "ticks": 136676,
            "time": 153.9142605,
            "velocity": 0.7874015748031497
          },
          {
            "duration": 0.03265762499998459,
            "durationTicks": 29,
            "midi": 53,
            "name": "F3",
            "ticks": 136676,
            "time": 153.9142605,
            "velocity": 0.6062992125984252
          },
          {
            "duration": 0.31756724999996777,
            "durationTicks": 282,
            "midi": 55,
            "name": "G3",
            "ticks": 137270,
            "time": 154.58317875000003,
            "velocity": 0.6062992125984252
          },
          {
            "duration": 0.3243240000000185,
            "durationTicks": 288,
            "midi": 53,
            "name": "F3",
            "ticks": 137271,
            "time": 154.584304875,
            "velocity": 0.7874015748031497
          },
          {
            "duration": 0.3108104999999739,
            "durationTicks": 276,
            "midi": 62,
            "name": "D4",
            "ticks": 137272,
            "time": 154.58543100000003,
            "velocity": 0.7874015748031497
          },
          {
            "duration": 0.31756724999996777,
            "durationTicks": 282,
            "midi": 59,
            "name": "B3",
            "ticks": 137272,
            "time": 154.58543100000003,
            "velocity": 0.8818897637795275
          },
          {
            "duration": 0.06756750000002398,
            "durationTicks": 60,
            "midi": 62,
            "name": "D4",
            "ticks": 137629,
            "time": 154.987457625,
            "velocity": 0.8818897637795275
          },
          {
            "duration": 0.07094587500003513,
            "durationTicks": 63,
            "midi": 59,
            "name": "B3",
            "ticks": 137629,
            "time": 154.987457625,
            "velocity": 0.7874015748031497
          },
          {
            "duration": 0.07432425000001786,
            "durationTicks": 66,
            "midi": 55,
            "name": "G3",
            "ticks": 137630,
            "time": 154.98858375,
            "velocity": 0.6929133858267716
          },
          {
            "duration": 0.07432425000001786,
            "durationTicks": 66,
            "midi": 53,
            "name": "F3",
            "ticks": 137638,
            "time": 154.99759275,
            "velocity": 0.6929133858267716
          },
          {
            "duration": 0.07432424999998943,
            "durationTicks": 66,
            "midi": 54,
            "name": "F#3",
            "ticks": 138472,
            "time": 155.93678100000002,
            "velocity": 0.6929133858267716
          },
          {
            "duration": 0.07657649999998739,
            "durationTicks": 68,
            "midi": 65,
            "name": "F4",
            "ticks": 138472,
            "time": 155.93678100000002,
            "velocity": 0.7874015748031497
          },
          {
            "duration": 0.07319812500000467,
            "durationTicks": 65,
            "midi": 58,
            "name": "A#3",
            "ticks": 138473,
            "time": 155.937907125,
            "velocity": 0.6929133858267716
          },
          {
            "duration": 0.056306250000005775,
            "durationTicks": 50,
            "midi": 60,
            "name": "C4",
            "ticks": 138476,
            "time": 155.94128550000002,
            "velocity": 0.7874015748031497
          },
          {
            "duration": 0.054053999999979396,
            "durationTicks": 48,
            "midi": 64,
            "name": "E4",
            "ticks": 138832,
            "time": 156.34218600000003,
            "velocity": 0.7874015748031497
          },
          {
            "duration": 0.05180175000000986,
            "durationTicks": 46,
            "midi": 60,
            "name": "C4",
            "ticks": 138833,
            "time": 156.343312125,
            "velocity": 0.7874015748031497
          },
          {
            "duration": 0.04617112500000076,
            "durationTicks": 41,
            "midi": 58,
            "name": "A#3",
            "ticks": 138834,
            "time": 156.34443825000002,
            "velocity": 0.6929133858267716
          },
          {
            "duration": 0.018017999999983658,
            "durationTicks": 16,
            "midi": 54,
            "name": "F#3",
            "ticks": 138836,
            "time": 156.34669050000002,
            "velocity": 0.5039370078740157
          },
          {
            "duration": 1.1182421250000232,
            "durationTicks": 993,
            "midi": 54,
            "name": "F#3",
            "ticks": 139079,
            "time": 156.620338875,
            "velocity": 0.6062992125984252
          },
          {
            "duration": 1.102476375000009,
            "durationTicks": 979,
            "midi": 60,
            "name": "C4",
            "ticks": 139082,
            "time": 156.62371725,
            "velocity": 0.8818897637795275
          },
          {
            "duration": 1.104728625000007,
            "durationTicks": 981,
            "midi": 63,
            "name": "D#4",
            "ticks": 139086,
            "time": 156.62822175,
            "velocity": 0.7874015748031497
          },
          {
            "duration": 1.0979718750000131,
            "durationTicks": 975,
            "midi": 58,
            "name": "A#3",
            "ticks": 139088,
            "time": 156.630474,
            "velocity": 0.6929133858267716
          },
          {
            "duration": 0.27815287500001773,
            "durationTicks": 247,
            "midi": 58,
            "name": "A#3",
            "ticks": 140159,
            "time": 157.836553875,
            "velocity": 0.6062992125984252
          },
          {
            "duration": 0.24999975000000063,
            "durationTicks": 222,
            "midi": 62,
            "name": "D4",
            "ticks": 140161,
            "time": 157.83880612500002,
            "velocity": 0.8818897637795275
          },
          {
            "duration": 0.2882879999999943,
            "durationTicks": 256,
            "midi": 53,
            "name": "F3",
            "ticks": 140161,
            "time": 157.83880612500002,
            "velocity": 0.8818897637795275
          },
          {
            "duration": 0.242116875000022,
            "durationTicks": 215,
            "midi": 57,
            "name": "A3",
            "ticks": 140162,
            "time": 157.83993225,
            "velocity": 0.8818897637795275
          },
          {
            "duration": 0.09684674999999743,
            "durationTicks": 86,
            "midi": 58,
            "name": "A#3",
            "ticks": 140511,
            "time": 158.232949875,
            "velocity": 0.6929133858267716
          },
          {
            "duration": 0.06981974999999352,
            "durationTicks": 62,
            "midi": 53,
            "name": "F3",
            "ticks": 140511,
            "time": 158.232949875,
            "velocity": 0.6062992125984252
          },
          {
            "duration": 0.07770262500000058,
            "durationTicks": 69,
            "midi": 62,
            "name": "D4",
            "ticks": 140512,
            "time": 158.23407600000002,
            "velocity": 0.8818897637795275
          },
          {
            "duration": 0.06981974999999352,
            "durationTicks": 62,
            "midi": 57,
            "name": "A3",
            "ticks": 140514,
            "time": 158.23632825,
            "velocity": 0.7874015748031497
          },
          {
            "duration": 0.13513499999999112,
            "durationTicks": 120,
            "midi": 60,
            "name": "C4",
            "ticks": 141237,
            "time": 159.050516625,
            "velocity": 0.8818897637795275
          },
          {
            "duration": 0.11824312499999223,
            "durationTicks": 105,
            "midi": 54,
            "name": "F#3",
            "ticks": 141237,
            "time": 159.050516625,
            "velocity": 0.6929133858267716
          },
          {
            "duration": 0.13513499999999112,
            "durationTicks": 120,
            "midi": 62,
            "name": "D4",
            "ticks": 141239,
            "time": 159.052768875,
            "velocity": 0.8818897637795275
          },
          {
            "duration": 0.11261250000001155,
            "durationTicks": 100,
            "midi": 57,
            "name": "A3",
            "ticks": 141239,
            "time": 159.052768875,
            "velocity": 0.7874015748031497
          },
          {
            "duration": 0.27702675000000454,
            "durationTicks": 246,
            "midi": 58,
            "name": "A#3",
            "ticks": 142078,
            "time": 159.99758775,
            "velocity": 0.6062992125984252
          },
          {
            "duration": 0.25563037500003816,
            "durationTicks": 227,
            "midi": 53,
            "name": "F3",
            "ticks": 142079,
            "time": 159.998713875,
            "velocity": 0.7874015748031497
          },
          {
            "duration": 0.2623871250000036,
            "durationTicks": 233,
            "midi": 62,
            "name": "D4",
            "ticks": 142080,
            "time": 159.99984,
            "velocity": 0.8818897637795275
          },
          {
            "duration": 0.2578826250000077,
            "durationTicks": 229,
            "midi": 57,
            "name": "A3",
            "ticks": 142080,
            "time": 159.99984,
            "velocity": 0.7874015748031497
          },
          {
            "duration": 0.09008999999997513,
            "durationTicks": 80,
            "midi": 53,
            "name": "F3",
            "ticks": 142434,
            "time": 160.39848825,
            "velocity": 0.7874015748031497
          },
          {
            "duration": 0.09572062500001266,
            "durationTicks": 85,
            "midi": 58,
            "name": "A#3",
            "ticks": 142435,
            "time": 160.399614375,
            "velocity": 0.7874015748031497
          },
          {
            "duration": 0.08333324999998126,
            "durationTicks": 74,
            "midi": 62,
            "name": "D4",
            "ticks": 142436,
            "time": 160.4007405,
            "velocity": 0.8818897637795275
          },
          {
            "duration": 0.07432424999998943,
            "durationTicks": 66,
            "midi": 57,
            "name": "A3",
            "ticks": 142436,
            "time": 160.4007405,
            "velocity": 0.8818897637795275
          },
          {
            "duration": 0.13513499999999112,
            "durationTicks": 120,
            "midi": 58,
            "name": "A#3",
            "ticks": 143160,
            "time": 161.216055,
            "velocity": 0.7874015748031497
          },
          {
            "duration": 0.11711699999997904,
            "durationTicks": 104,
            "midi": 62,
            "name": "D4",
            "ticks": 143161,
            "time": 161.21718112500002,
            "velocity": 0.8818897637795275
          },
          {
            "duration": 0.12049537499999019,
            "durationTicks": 107,
            "midi": 52,
            "name": "E3",
            "ticks": 143162,
            "time": 161.21830725,
            "velocity": 0.7874015748031497
          },
          {
            "duration": 0.10022512499998015,
            "durationTicks": 89,
            "midi": 55,
            "name": "G3",
            "ticks": 143163,
            "time": 161.21943337500002,
            "velocity": 0.7874015748031497
          },
          {
            "duration": 0.3547293749999767,
            "durationTicks": 315,
            "midi": 51,
            "name": "D#3",
            "ticks": 144960,
            "time": 163.24308000000002,
            "velocity": 0.6929133858267716
          },
          {
            "duration": 0.3479726249999828,
            "durationTicks": 309,
            "midi": 55,
            "name": "G3",
            "ticks": 144960,
            "time": 163.24308000000002,
            "velocity": 0.7874015748031497
          },
          {
            "duration": 0.3547293750000051,
            "durationTicks": 315,
            "midi": 58,
            "name": "A#3",
            "ticks": 145320,
            "time": 163.648485,
            "velocity": 0.7874015748031497
          },
          {
            "duration": 0.33783750000000623,
            "durationTicks": 300,
            "midi": 51,
            "name": "D#3",
            "ticks": 145320,
            "time": 163.648485,
            "velocity": 0.6929133858267716
          },
          {
            "duration": 0.3547293750000051,
            "durationTicks": 315,
            "midi": 55,
            "name": "G3",
            "ticks": 145320,
            "time": 163.648485,
            "velocity": 0.7874015748031497
          },
          {
            "duration": 0.23198175000001697,
            "durationTicks": 206,
            "midi": 60,
            "name": "C4",
            "ticks": 145680,
            "time": 164.05389,
            "velocity": 0.7874015748031497
          },
          {
            "duration": 0.21058537500002217,
            "durationTicks": 187,
            "midi": 51,
            "name": "D#3",
            "ticks": 145680,
            "time": 164.05389,
            "velocity": 0.6929133858267716
          },
          {
            "duration": 0.23198175000001697,
            "durationTicks": 206,
            "midi": 55,
            "name": "G3",
            "ticks": 145680,
            "time": 164.05389,
            "velocity": 0.7874015748031497
          },
          {
            "duration": 0.5180174999999849,
            "durationTicks": 460,
            "midi": 62,
            "name": "D4",
            "ticks": 145920,
            "time": 164.32416,
            "velocity": 0.6929133858267716
          },
          {
            "duration": 0.4054050000000018,
            "durationTicks": 360,
            "midi": 55,
            "name": "G3",
            "ticks": 145920,
            "time": 164.32416,
            "velocity": 0.6929133858267716
          },
          {
            "duration": 0.5180174999999849,
            "durationTicks": 460,
            "midi": 60,
            "name": "C4",
            "ticks": 145920,
            "time": 164.32416,
            "velocity": 0.6929133858267716
          },
          {
            "duration": 0.15540525000000116,
            "durationTicks": 138,
            "midi": 57,
            "name": "A3",
            "ticks": 146310,
            "time": 164.76334875,
            "velocity": 0.7086614173228346
          },
          {
            "duration": 0.12049537500001861,
            "durationTicks": 107,
            "midi": 60,
            "name": "C4",
            "ticks": 146403,
            "time": 164.868078375,
            "velocity": 0.7086614173228346
          },
          {
            "duration": 0.1103602500000136,
            "durationTicks": 98,
            "midi": 61,
            "name": "C#4",
            "ticks": 146652,
            "time": 165.1484835,
            "velocity": 0.7086614173228346
          },
          {
            "duration": 0.17792775000000915,
            "durationTicks": 158,
            "midi": 62,
            "name": "D4",
            "ticks": 146752,
            "time": 165.261096,
            "velocity": 0.8818897637795275
          },
          {
            "duration": 0.14414399999998295,
            "durationTicks": 128,
            "midi": 54,
            "name": "F#3",
            "ticks": 146752,
            "time": 165.261096,
            "velocity": 0.6929133858267716
          },
          {
            "duration": 0.10022512499998015,
            "durationTicks": 89,
            "midi": 53,
            "name": "F3",
            "ticks": 147731,
            "time": 166.36357237500002,
            "velocity": 0.8818897637795275
          },
          {
            "duration": 0.12162149999997496,
            "durationTicks": 108,
            "midi": 57,
            "name": "A3",
            "ticks": 147740,
            "time": 166.37370750000002,
            "velocity": 0.8818897637795275
          },
          {
            "duration": 0.11486474999998109,
            "durationTicks": 102,
            "midi": 62,
            "name": "D4",
            "ticks": 147744,
            "time": 166.37821200000002,
            "velocity": 0.8818897637795275
          },
          {
            "duration": 0.13175662499997998,
            "durationTicks": 117,
            "midi": 58,
            "name": "A#3",
            "ticks": 147751,
            "time": 166.38609487500003,
            "velocity": 0.8818897637795275
          },
          {
            "duration": 0.10247737500000653,
            "durationTicks": 91,
            "midi": 55,
            "name": "G3",
            "ticks": 149640,
            "time": 168.51334500000002,
            "velocity": 0.8818897637795275
          },
          {
            "duration": 0.13738724999998908,
            "durationTicks": 122,
            "midi": 63,
            "name": "D#4",
            "ticks": 149647,
            "time": 168.52122787500002,
            "velocity": 0.7874015748031497
          },
          {
            "duration": 0.12274762499998815,
            "durationTicks": 109,
            "midi": 60,
            "name": "C4",
            "ticks": 149649,
            "time": 168.52348012500002,
            "velocity": 0.7874015748031497
          },
          {
            "duration": 0.13288274999999317,
            "durationTicks": 118,
            "midi": 58,
            "name": "A#3",
            "ticks": 149651,
            "time": 168.52573237500002,
            "velocity": 0.7874015748031497
          },
          {
            "duration": 0.15765749999999912,
            "durationTicks": 140,
            "midi": 58,
            "name": "A#3",
            "ticks": 151549,
            "time": 170.663117625,
            "velocity": 0.6929133858267716
          },
          {
            "duration": 0.08671162499999241,
            "durationTicks": 77,
            "midi": 53,
            "name": "F3",
            "ticks": 151563,
            "time": 170.67888337500003,
            "velocity": 0.6929133858267716
          },
          {
            "duration": 0.13738724999998908,
            "durationTicks": 122,
            "midi": 62,
            "name": "D4",
            "ticks": 151565,
            "time": 170.68113562500002,
            "velocity": 0.984251968503937
          },
          {
            "duration": 0.0979728749999822,
            "durationTicks": 87,
            "midi": 57,
            "name": "A3",
            "ticks": 151569,
            "time": 170.68564012500002,
            "velocity": 0.8818897637795275
          },
          {
            "duration": 0.3445942500000001,
            "durationTicks": 306,
            "midi": 51,
            "name": "D#3",
            "ticks": 153600,
            "time": 172.9728,
            "velocity": 0.6929133858267716
          },
          {
            "duration": 0.3603600000000142,
            "durationTicks": 320,
            "midi": 58,
            "name": "A#3",
            "ticks": 153600,
            "time": 172.9728,
            "velocity": 0.6929133858267716
          },
          {
            "duration": 0.3569816250000031,
            "durationTicks": 317,
            "midi": 62,
            "name": "D4",
            "ticks": 153600,
            "time": 172.9728,
            "velocity": 0.8818897637795275
          },
          {
            "duration": 0.3400897500000042,
            "durationTicks": 302,
            "midi": 55,
            "name": "G3",
            "ticks": 153600,
            "time": 172.9728,
            "velocity": 0.7874015748031497
          },
          {
            "duration": 0.3277023750000012,
            "durationTicks": 291,
            "midi": 51,
            "name": "D#3",
            "ticks": 153960,
            "time": 173.378205,
            "velocity": 0.6929133858267716
          },
          {
            "duration": 0.34234200000000214,
            "durationTicks": 304,
            "midi": 58,
            "name": "A#3",
            "ticks": 153960,
            "time": 173.378205,
            "velocity": 0.6929133858267716
          },
          {
            "duration": 0.3344591249999951,
            "durationTicks": 297,
            "midi": 62,
            "name": "D4",
            "ticks": 153960,
            "time": 173.378205,
            "velocity": 0.8818897637795275
          },
          {
            "duration": 0.3231978750000053,
            "durationTicks": 287,
            "midi": 55,
            "name": "G3",
            "ticks": 153960,
            "time": 173.378205,
            "velocity": 0.8818897637795275
          },
          {
            "duration": 0.36486450000001014,
            "durationTicks": 324,
            "midi": 58,
            "name": "A#3",
            "ticks": 154320,
            "time": 173.78361,
            "velocity": 0.8818897637795275
          },
          {
            "duration": 0.3569816250000031,
            "durationTicks": 317,
            "midi": 62,
            "name": "D4",
            "ticks": 154320,
            "time": 173.78361,
            "velocity": 0.8818897637795275
          },
          {
            "duration": 0.32545012500000325,
            "durationTicks": 289,
            "midi": 51,
            "name": "D#3",
            "ticks": 154320,
            "time": 173.78361,
            "velocity": 0.6929133858267716
          },
          {
            "duration": 0.34684649999999806,
            "durationTicks": 308,
            "midi": 55,
            "name": "G3",
            "ticks": 154320,
            "time": 173.78361,
            "velocity": 0.7874015748031497
          },
          {
            "duration": 0.2849096249999832,
            "durationTicks": 253,
            "midi": 51,
            "name": "D#3",
            "ticks": 154680,
            "time": 174.189015,
            "velocity": 0.6929133858267716
          },
          {
            "duration": 0.3018015000000105,
            "durationTicks": 268,
            "midi": 58,
            "name": "A#3",
            "ticks": 154680,
            "time": 174.189015,
            "velocity": 0.7874015748031497
          },
          {
            "duration": 0.30292762499996684,
            "durationTicks": 269,
            "midi": 62,
            "name": "D4",
            "ticks": 154680,
            "time": 174.189015,
            "velocity": 0.8818897637795275
          },
          {
            "duration": 0.2905402500000207,
            "durationTicks": 258,
            "midi": 55,
            "name": "G3",
            "ticks": 154680,
            "time": 174.189015,
            "velocity": 0.8818897637795275
          },
          {
            "duration": 0.10022512499998015,
            "durationTicks": 89,
            "midi": 51,
            "name": "D#3",
            "ticks": 155040,
            "time": 174.59442,
            "velocity": 0.6062992125984252
          },
          {
            "duration": 0.09909899999999539,
            "durationTicks": 88,
            "midi": 62,
            "name": "D4",
            "ticks": 155040,
            "time": 174.59442,
            "velocity": 0.8818897637795275
          },
          {
            "duration": 0.11711699999997904,
            "durationTicks": 104,
            "midi": 58,
            "name": "A#3",
            "ticks": 155040,
            "time": 174.59442,
            "velocity": 0.7874015748031497
          },
          {
            "duration": 0.10585574999998926,
            "durationTicks": 94,
            "midi": 55,
            "name": "G3",
            "ticks": 155040,
            "time": 174.59442,
            "velocity": 0.7874015748031497
          },
          {
            "duration": 0.09572062500001266,
            "durationTicks": 85,
            "midi": 58,
            "name": "A#3",
            "ticks": 155280,
            "time": 174.86469,
            "velocity": 0.6062992125984252
          },
          {
            "duration": 0.07094587500003513,
            "durationTicks": 63,
            "midi": 51,
            "name": "D#3",
            "ticks": 155280,
            "time": 174.86469,
            "velocity": 0.6929133858267716
          },
          {
            "duration": 0.06531525000002603,
            "durationTicks": 58,
            "midi": 62,
            "name": "D4",
            "ticks": 155280,
            "time": 174.86469,
            "velocity": 0.984251968503937
          },
          {
            "duration": 0.06306300000002807,
            "durationTicks": 56,
            "midi": 55,
            "name": "G3",
            "ticks": 155280,
            "time": 174.86469,
            "velocity": 0.7874015748031497
          },
          {
            "duration": 0.07207199999999148,
            "durationTicks": 64,
            "midi": 60,
            "name": "C4",
            "ticks": 155760,
            "time": 175.40523000000002,
            "velocity": 0.8818897637795275
          },
          {
            "duration": 0.06306299999999965,
            "durationTicks": 56,
            "midi": 54,
            "name": "F#3",
            "ticks": 155760,
            "time": 175.40523000000002,
            "velocity": 0.7874015748031497
          },
          {
            "duration": 0.06418912499998441,
            "durationTicks": 57,
            "midi": 62,
            "name": "D4",
            "ticks": 155760,
            "time": 175.40523000000002,
            "velocity": 0.984251968503937
          },
          {
            "duration": 0.07207199999999148,
            "durationTicks": 64,
            "midi": 60,
            "name": "C4",
            "ticks": 156120,
            "time": 175.81063500000002,
            "velocity": 0.8818897637795275
          },
          {
            "duration": 0.06756749999999556,
            "durationTicks": 60,
            "midi": 62,
            "name": "D4",
            "ticks": 156120,
            "time": 175.81063500000002,
            "velocity": 0.8818897637795275
          },
          {
            "duration": 0.055180124999992586,
            "durationTicks": 49,
            "midi": 54,
            "name": "F#3",
            "ticks": 156120,
            "time": 175.81063500000002,
            "velocity": 0.7874015748031497
          },
          {
            "duration": 0.0878377500000056,
            "durationTicks": 78,
            "midi": 55,
            "name": "G3",
            "ticks": 156720,
            "time": 176.48631,
            "velocity": 0.8818897637795275
          },
          {
            "duration": 0.0822071249999965,
            "durationTicks": 73,
            "midi": 61,
            "name": "C#4",
            "ticks": 156720,
            "time": 176.48631,
            "velocity": 0.8818897637795275
          },
          {
            "duration": 0.06193687499998646,
            "durationTicks": 55,
            "midi": 63,
            "name": "D#4",
            "ticks": 156720,
            "time": 176.48631,
            "velocity": 0.7874015748031497
          },
          {
            "duration": 0.1249998749999861,
            "durationTicks": 111,
            "midi": 55,
            "name": "G3",
            "ticks": 157080,
            "time": 176.891715,
            "velocity": 0.8818897637795275
          },
          {
            "duration": 0.10698187500000245,
            "durationTicks": 95,
            "midi": 61,
            "name": "C#4",
            "ticks": 157080,
            "time": 176.891715,
            "velocity": 0.8818897637795275
          },
          {
            "duration": 0.10247737500000653,
            "durationTicks": 91,
            "midi": 63,
            "name": "D#4",
            "ticks": 157080,
            "time": 176.891715,
            "velocity": 0.7874015748031497
          },
          {
            "duration": 0.10135124999999334,
            "durationTicks": 90,
            "midi": 60,
            "name": "C4",
            "ticks": 157440,
            "time": 177.29712,
            "velocity": 0.8818897637795275
          },
          {
            "duration": 0.12049537499999019,
            "durationTicks": 107,
            "midi": 62,
            "name": "D4",
            "ticks": 157440,
            "time": 177.29712,
            "velocity": 0.984251968503937
          },
          {
            "duration": 0.1092341250000004,
            "durationTicks": 97,
            "midi": 54,
            "name": "F#3",
            "ticks": 157440,
            "time": 177.29712,
            "velocity": 0.7874015748031497
          },
          {
            "duration": 1.615989374999998,
            "durationTicks": 1435,
            "midi": 62,
            "name": "D4",
            "ticks": 157920,
            "time": 177.83766,
            "velocity": 0.984251968503937
          },
          {
            "duration": 1.6024758750000103,
            "durationTicks": 1423,
            "midi": 54,
            "name": "F#3",
            "ticks": 157920,
            "time": 177.83766,
            "velocity": 0.7874015748031497
          },
          {
            "duration": 1.618241624999996,
            "durationTicks": 1437,
            "midi": 60,
            "name": "C4",
            "ticks": 157920,
            "time": 177.83766,
            "velocity": 0.8818897637795275
          },
          {
            "duration": 2.124997874999991,
            "durationTicks": 1887,
            "midi": 62,
            "name": "D4",
            "ticks": 159360,
            "time": 179.45928,
            "velocity": 0.7874015748031497
          },
          {
            "duration": 2.1340068750000114,
            "durationTicks": 1895,
            "midi": 58,
            "name": "A#3",
            "ticks": 159360,
            "time": 179.45928,
            "velocity": 0.6929133858267716
          },
          {
            "duration": 2.0945925000000045,
            "durationTicks": 1860,
            "midi": 55,
            "name": "G3",
            "ticks": 159360,
            "time": 179.45928,
            "velocity": 0.6062992125984252
          },
          {
            "duration": 2.049547500000017,
            "durationTicks": 1820,
            "midi": 65,
            "name": "F4",
            "ticks": 161280,
            "time": 181.62144,
            "velocity": 0.6929133858267716
          },
          {
            "duration": 2.054052000000013,
            "durationTicks": 1824,
            "midi": 56,
            "name": "G#3",
            "ticks": 161280,
            "time": 181.62144,
            "velocity": 0.6062992125984252
          },
          {
            "duration": 2.0551781249999976,
            "durationTicks": 1825,
            "midi": 62,
            "name": "D4",
            "ticks": 161280,
            "time": 181.62144,
            "velocity": 0.6929133858267716
          },
          {
            "duration": 0.32545012500000325,
            "durationTicks": 289,
            "midi": 62,
            "name": "D4",
            "ticks": 163200,
            "time": 183.7836,
            "velocity": 0.8818897637795275
          },
          {
            "duration": 0.3547293750000051,
            "durationTicks": 315,
            "midi": 51,
            "name": "D#3",
            "ticks": 163200,
            "time": 183.7836,
            "velocity": 0.6929133858267716
          },
          {
            "duration": 0.3445942500000001,
            "durationTicks": 306,
            "midi": 58,
            "name": "A#3",
            "ticks": 163200,
            "time": 183.7836,
            "velocity": 0.6929133858267716
          },
          {
            "duration": 0.3130627500000003,
            "durationTicks": 278,
            "midi": 55,
            "name": "G3",
            "ticks": 163200,
            "time": 183.7836,
            "velocity": 0.8818897637795275
          },
          {
            "duration": 0.028153124999988677,
            "durationTicks": 25,
            "midi": 51,
            "name": "D#3",
            "ticks": 163560,
            "time": 184.189005,
            "velocity": 0.6929133858267716
          },
          {
            "duration": 0.028153124999988677,
            "durationTicks": 25,
            "midi": 55,
            "name": "G3",
            "ticks": 163560,
            "time": 184.189005,
            "velocity": 0.6929133858267716
          },
          {
            "duration": 0.06756749999999556,
            "durationTicks": 60,
            "midi": 62,
            "name": "D4",
            "ticks": 163560,
            "time": 184.189005,
            "velocity": 0.8818897637795275
          },
          {
            "duration": 0.055180124999992586,
            "durationTicks": 49,
            "midi": 58,
            "name": "A#3",
            "ticks": 163560,
            "time": 184.189005,
            "velocity": 0.6062992125984252
          },
          {
            "duration": 0.3333329999999819,
            "durationTicks": 296,
            "midi": 58,
            "name": "A#3",
            "ticks": 164160,
            "time": 184.86468000000002,
            "velocity": 0.6929133858267716
          },
          {
            "duration": 0.3153149999999698,
            "durationTicks": 280,
            "midi": 62,
            "name": "D4",
            "ticks": 164160,
            "time": 184.86468000000002,
            "velocity": 0.8818897637795275
          },
          {
            "duration": 0.316441124999983,
            "durationTicks": 281,
            "midi": 55,
            "name": "G3",
            "ticks": 164160,
            "time": 184.86468000000002,
            "velocity": 0.8818897637795275
          },
          {
            "duration": 0.3006753749999689,
            "durationTicks": 267,
            "midi": 51,
            "name": "D#3",
            "ticks": 164160,
            "time": 184.86468000000002,
            "velocity": 0.6929133858267716
          },
          {
            "duration": 0.07995487500002696,
            "durationTicks": 71,
            "midi": 51,
            "name": "D#3",
            "ticks": 164520,
            "time": 185.270085,
            "velocity": 0.6062992125984252
          },
          {
            "duration": 0.08220712500002492,
            "durationTicks": 73,
            "midi": 62,
            "name": "D4",
            "ticks": 164520,
            "time": 185.270085,
            "velocity": 0.984251968503937
          },
          {
            "duration": 0.08558550000003606,
            "durationTicks": 76,
            "midi": 58,
            "name": "A#3",
            "ticks": 164520,
            "time": 185.270085,
            "velocity": 0.6062992125984252
          },
          {
            "duration": 0.06306300000002807,
            "durationTicks": 56,
            "midi": 55,
            "name": "G3",
            "ticks": 164520,
            "time": 185.270085,
            "velocity": 0.8818897637795275
          },
          {
            "duration": 1.0439178750000053,
            "durationTicks": 927,
            "midi": 55,
            "name": "G3",
            "ticks": 165113,
            "time": 185.937877125,
            "velocity": 0.7874015748031497
          },
          {
            "duration": 1.0777016250000315,
            "durationTicks": 957,
            "midi": 60,
            "name": "C4",
            "ticks": 165113,
            "time": 185.937877125,
            "velocity": 0.7874015748031497
          },
          {
            "duration": 1.041665624999979,
            "durationTicks": 925,
            "midi": 62,
            "name": "D4",
            "ticks": 165114,
            "time": 185.93900325,
            "velocity": 0.7874015748031497
          },
          {
            "duration": 1.0563052500000083,
            "durationTicks": 938,
            "midi": 60,
            "name": "C4",
            "ticks": 166080,
            "time": 187.02684,
            "velocity": 0.7874015748031497
          },
          {
            "duration": 1.0484223749999728,
            "durationTicks": 931,
            "midi": 62,
            "name": "D4",
            "ticks": 166081,
            "time": 187.02796612500003,
            "velocity": 0.7874015748031497
          },
          {
            "duration": 1.0337827500000287,
            "durationTicks": 918,
            "midi": 54,
            "name": "F#3",
            "ticks": 166082,
            "time": 187.02909225,
            "velocity": 0.7874015748031497
          },
          {
            "duration": 0.17229712500000005,
            "durationTicks": 153,
            "midi": 57,
            "name": "A3",
            "ticks": 167023,
            "time": 188.088775875,
            "velocity": 0.7874015748031497
          },
          {
            "duration": 0.17680162499996754,
            "durationTicks": 157,
            "midi": 58,
            "name": "A#3",
            "ticks": 167026,
            "time": 188.09215425000002,
            "velocity": 0.8818897637795275
          },
          {
            "duration": 0.1745493749999696,
            "durationTicks": 155,
            "midi": 62,
            "name": "D4",
            "ticks": 167028,
            "time": 188.09440650000002,
            "velocity": 0.8818897637795275
          },
          {
            "duration": 0.13288274999999317,
            "durationTicks": 118,
            "midi": 53,
            "name": "F3",
            "ticks": 167029,
            "time": 188.095532625,
            "velocity": 0.7874015748031497
          },
          {
            "duration": 0.32432399999999006,
            "durationTicks": 288,
            "midi": 58,
            "name": "A#3",
            "ticks": 168000,
            "time": 189.18900000000002,
            "velocity": 0.6062992125984252
          },
          {
            "duration": 0.31756724999996777,
            "durationTicks": 282,
            "midi": 62,
            "name": "D4",
            "ticks": 168000,
            "time": 189.18900000000002,
            "velocity": 0.7874015748031497
          },
          {
            "duration": 0.31306274999997186,
            "durationTicks": 278,
            "midi": 55,
            "name": "G3",
            "ticks": 168000,
            "time": 189.18900000000002,
            "velocity": 0.8818897637795275
          },
          {
            "duration": 0.2995492499999841,
            "durationTicks": 266,
            "midi": 52,
            "name": "E3",
            "ticks": 168000,
            "time": 189.18900000000002,
            "velocity": 0.7874015748031497
          },
          {
            "duration": 0.077702625000029,
            "durationTicks": 69,
            "midi": 62,
            "name": "D4",
            "ticks": 168360,
            "time": 189.594405,
            "velocity": 0.8818897637795275
          },
          {
            "duration": 0.077702625000029,
            "durationTicks": 69,
            "midi": 58,
            "name": "A#3",
            "ticks": 168360,
            "time": 189.594405,
            "velocity": 0.7874015748031497
          },
          {
            "duration": 0.057432375000018965,
            "durationTicks": 51,
            "midi": 52,
            "name": "E3",
            "ticks": 168360,
            "time": 189.594405,
            "velocity": 0.6929133858267716
          },
          {
            "duration": 0.057432375000018965,
            "durationTicks": 51,
            "midi": 55,
            "name": "G3",
            "ticks": 168360,
            "time": 189.594405,
            "velocity": 0.7874015748031497
          },
          {
            "duration": 0.14977462499999206,
            "durationTicks": 133,
            "midi": 51,
            "name": "D#3",
            "ticks": 168840,
            "time": 190.13494500000002,
            "velocity": 0.6929133858267716
          },
          {
            "duration": 0.17680162499999597,
            "durationTicks": 157,
            "midi": 58,
            "name": "A#3",
            "ticks": 168840,
            "time": 190.13494500000002,
            "velocity": 0.6062992125984252
          },
          {
            "duration": 0.14301787499999818,
            "durationTicks": 127,
            "midi": 62,
            "name": "D4",
            "ticks": 168840,
            "time": 190.13494500000002,
            "velocity": 0.8818897637795275
          },
          {
            "duration": 0.16554037499997776,
            "durationTicks": 147,
            "midi": 55,
            "name": "G3",
            "ticks": 168840,
            "time": 190.13494500000002,
            "velocity": 0.8818897637795275
          },
          {
            "duration": 0.07995487499999854,
            "durationTicks": 71,
            "midi": 56,
            "name": "G#3",
            "ticks": 170160,
            "time": 191.62143,
            "velocity": 0.7874015748031497
          },
          {
            "duration": 0.07545037500000262,
            "durationTicks": 67,
            "midi": 58,
            "name": "A#3",
            "ticks": 170160,
            "time": 191.62143,
            "velocity": 0.7874015748031497
          },
          {
            "duration": 0.06306299999999965,
            "durationTicks": 56,
            "midi": 62,
            "name": "D4",
            "ticks": 170160,
            "time": 191.62143,
            "velocity": 0.8818897637795275
          },
          {
            "duration": 0.05405400000000782,
            "durationTicks": 48,
            "midi": 53,
            "name": "F3",
            "ticks": 170160,
            "time": 191.62143,
            "velocity": 0.6929133858267716
          },
          {
            "duration": 0.09009000000000356,
            "durationTicks": 80,
            "midi": 62,
            "name": "D4",
            "ticks": 170520,
            "time": 192.026835,
            "velocity": 0.8818897637795275
          },
          {
            "duration": 0.1249998749999861,
            "durationTicks": 111,
            "midi": 58,
            "name": "A#3",
            "ticks": 170520,
            "time": 192.026835,
            "velocity": 0.7874015748031497
          },
          {
            "duration": 0.06981974999999352,
            "durationTicks": 62,
            "midi": 53,
            "name": "F3",
            "ticks": 170520,
            "time": 192.026835,
            "velocity": 0.7874015748031497
          },
          {
            "duration": 0.12274762499998815,
            "durationTicks": 109,
            "midi": 56,
            "name": "G#3",
            "ticks": 170520,
            "time": 192.026835,
            "velocity": 0.6929133858267716
          },
          {
            "duration": 0.141891749999985,
            "durationTicks": 126,
            "midi": 51,
            "name": "D#3",
            "ticks": 170760,
            "time": 192.29710500000002,
            "velocity": 0.7874015748031497
          },
          {
            "duration": 0.1632881249999798,
            "durationTicks": 145,
            "midi": 58,
            "name": "A#3",
            "ticks": 170760,
            "time": 192.29710500000002,
            "velocity": 0.8818897637795275
          },
          {
            "duration": 0.16103587499998184,
            "durationTicks": 143,
            "midi": 55,
            "name": "G3",
            "ticks": 170760,
            "time": 192.29710500000002,
            "velocity": 0.8818897637795275
          },
          {
            "duration": 0.15202687499999,
            "durationTicks": 135,
            "midi": 62,
            "name": "D4",
            "ticks": 170760,
            "time": 192.29710500000002,
            "velocity": 0.984251968503937
          },
          {
            "duration": 0.1249998749999861,
            "durationTicks": 111,
            "midi": 60,
            "name": "C4",
            "ticks": 173040,
            "time": 194.86467000000002,
            "velocity": 0.8818897637795275
          },
          {
            "duration": 0.13513499999999112,
            "durationTicks": 120,
            "midi": 62,
            "name": "D4",
            "ticks": 173040,
            "time": 194.86467000000002,
            "velocity": 0.8818897637795275
          },
          {
            "duration": 0.08445937499999445,
            "durationTicks": 75,
            "midi": 55,
            "name": "G3",
            "ticks": 173040,
            "time": 194.86467000000002,
            "velocity": 0.7874015748031497
          },
          {
            "duration": 0.13288274999999317,
            "durationTicks": 118,
            "midi": 60,
            "name": "C4",
            "ticks": 173400,
            "time": 195.27007500000002,
            "velocity": 0.7874015748031497
          },
          {
            "duration": 0.12950437499998202,
            "durationTicks": 115,
            "midi": 55,
            "name": "G3",
            "ticks": 173400,
            "time": 195.27007500000002,
            "velocity": 0.8818897637795275
          },
          {
            "duration": 0.1306304999999952,
            "durationTicks": 116,
            "midi": 62,
            "name": "D4",
            "ticks": 173400,
            "time": 195.27007500000002,
            "velocity": 0.8818897637795275
          },
          {
            "duration": 0.1801800000000071,
            "durationTicks": 160,
            "midi": 60,
            "name": "C4",
            "ticks": 173760,
            "time": 195.67548,
            "velocity": 0.8818897637795275
          },
          {
            "duration": 0.14189175000001342,
            "durationTicks": 126,
            "midi": 62,
            "name": "D4",
            "ticks": 173760,
            "time": 195.67548,
            "velocity": 0.7874015748031497
          },
          {
            "duration": 0.1430178750000266,
            "durationTicks": 127,
            "midi": 54,
            "name": "F#3",
            "ticks": 173760,
            "time": 195.67548,
            "velocity": 0.7874015748031497
          },
          {
            "duration": 0.20270249999998668,
            "durationTicks": 180,
            "midi": 50,
            "name": "D3",
            "ticks": 174153,
            "time": 196.11804712500003,
            "velocity": 0.7874015748031497
          },
          {
            "duration": 0.09684674999999743,
            "durationTicks": 86,
            "midi": 62,
            "name": "D4",
            "ticks": 174156,
            "time": 196.12142550000002,
            "velocity": 0.8818897637795275
          },
          {
            "duration": 0.1249998749999861,
            "durationTicks": 111,
            "midi": 65,
            "name": "F4",
            "ticks": 174271,
            "time": 196.25092987500003,
            "velocity": 0.984251968503937
          },
          {
            "duration": 0.11711700000000747,
            "durationTicks": 104,
            "midi": 53,
            "name": "F3",
            "ticks": 174278,
            "time": 196.25881275,
            "velocity": 0.8818897637795275
          },
          {
            "duration": 0.12274762500001657,
            "durationTicks": 109,
            "midi": 54,
            "name": "F#3",
            "ticks": 174506,
            "time": 196.51556925,
            "velocity": 0.7874015748031497
          },
          {
            "duration": 0.12162150000000338,
            "durationTicks": 108,
            "midi": 66,
            "name": "F#4",
            "ticks": 174511,
            "time": 196.521199875,
            "velocity": 0.8818897637795275
          },
          {
            "duration": 0.14977462499999206,
            "durationTicks": 133,
            "midi": 55,
            "name": "G3",
            "ticks": 174744,
            "time": 196.783587,
            "velocity": 0.8818897637795275
          },
          {
            "duration": 0.13851337500000227,
            "durationTicks": 123,
            "midi": 67,
            "name": "G4",
            "ticks": 174750,
            "time": 196.79034375,
            "velocity": 0.8818897637795275
          },
          {
            "duration": 0.371621250000004,
            "durationTicks": 330,
            "midi": 65,
            "name": "F4",
            "ticks": 177517,
            "time": 199.906331625,
            "velocity": 0.984251968503937
          },
          {
            "duration": 0.28716187500000956,
            "durationTicks": 255,
            "midi": 63,
            "name": "D#4",
            "ticks": 177819,
            "time": 200.246421375,
            "velocity": 0.8818897637795275
          },
          {
            "duration": 0.2680177499999843,
            "durationTicks": 238,
            "midi": 58,
            "name": "A#3",
            "ticks": 178080,
            "time": 200.54034000000001,
            "velocity": 0.8818897637795275
          },
          {
            "duration": 0.11824312500002065,
            "durationTicks": 105,
            "midi": 60,
            "name": "C4",
            "ticks": 178320,
            "time": 200.81061,
            "velocity": 0.8818897637795275
          },
          {
            "duration": 0.11486474999998109,
            "durationTicks": 102,
            "midi": 60,
            "name": "C4",
            "ticks": 178560,
            "time": 201.08088,
            "velocity": 0.8818897637795275
          },
          {
            "duration": 0.10022512500000857,
            "durationTicks": 89,
            "midi": 55,
            "name": "G3",
            "ticks": 178564,
            "time": 201.0853845,
            "velocity": 0.8818897637795275
          },
          {
            "duration": 0.08783774999997718,
            "durationTicks": 78,
            "midi": 62,
            "name": "D4",
            "ticks": 178571,
            "time": 201.093267375,
            "velocity": 0.8818897637795275
          },
          {
            "duration": 0.1103602500000136,
            "durationTicks": 98,
            "midi": 62,
            "name": "D4",
            "ticks": 178795,
            "time": 201.345519375,
            "velocity": 0.8818897637795275
          },
          {
            "duration": 0.10472962500000449,
            "durationTicks": 93,
            "midi": 55,
            "name": "G3",
            "ticks": 178800,
            "time": 201.35115000000002,
            "velocity": 0.8818897637795275
          },
          {
            "duration": 0.11711700000000747,
            "durationTicks": 104,
            "midi": 60,
            "name": "C4",
            "ticks": 178802,
            "time": 201.35340225000002,
            "velocity": 0.7874015748031497
          },
          {
            "duration": 0.15540525000000116,
            "durationTicks": 138,
            "midi": 60,
            "name": "C4",
            "ticks": 179520,
            "time": 202.16196000000002,
            "velocity": 0.8818897637795275
          },
          {
            "duration": 0.1306304999999952,
            "durationTicks": 116,
            "midi": 54,
            "name": "F#3",
            "ticks": 179520,
            "time": 202.16196000000002,
            "velocity": 0.6929133858267716
          },
          {
            "duration": 0.13963949999998704,
            "durationTicks": 124,
            "midi": 62,
            "name": "D4",
            "ticks": 179520,
            "time": 202.16196000000002,
            "velocity": 0.8818897637795275
          },
          {
            "duration": 0.26914387499996906,
            "durationTicks": 239,
            "midi": 58,
            "name": "A#3",
            "ticks": 180000,
            "time": 202.70250000000001,
            "velocity": 0.5354330708661418
          },
          {
            "duration": 0.25900874999999246,
            "durationTicks": 230,
            "midi": 63,
            "name": "D#4",
            "ticks": 180000,
            "time": 202.70250000000001,
            "velocity": 0.7874015748031497
          },
          {
            "duration": 0.24099074999998038,
            "durationTicks": 214,
            "midi": 60,
            "name": "C4",
            "ticks": 180000,
            "time": 202.70250000000001,
            "velocity": 0.8818897637795275
          },
          {
            "duration": 0.2240988749999815,
            "durationTicks": 199,
            "midi": 55,
            "name": "G3",
            "ticks": 180000,
            "time": 202.70250000000001,
            "velocity": 0.8818897637795275
          },
          {
            "duration": 0.11373862500002474,
            "durationTicks": 101,
            "midi": 60,
            "name": "C4",
            "ticks": 180240,
            "time": 202.97277,
            "velocity": 0.6929133858267716
          },
          {
            "duration": 0.10810800000001564,
            "durationTicks": 96,
            "midi": 65,
            "name": "F4",
            "ticks": 180240,
            "time": 202.97277,
            "velocity": 0.8818897637795275
          },
          {
            "duration": 0.1159908750000227,
            "durationTicks": 103,
            "midi": 54,
            "name": "F#3",
            "ticks": 180240,
            "time": 202.97277,
            "velocity": 0.6062992125984252
          },
          {
            "duration": 0.8333325000000116,
            "durationTicks": 740,
            "midi": 58,
            "name": "A#3",
            "ticks": 180360,
            "time": 203.10790500000002,
            "velocity": 0.7874015748031497
          },
          {
            "duration": 0.8333325000000116,
            "durationTicks": 740,
            "midi": 62,
            "name": "D4",
            "ticks": 180360,
            "time": 203.10790500000002,
            "velocity": 0.8818897637795275
          },
          {
            "duration": 0.8209451250000086,
            "durationTicks": 729,
            "midi": 57,
            "name": "A3",
            "ticks": 180360,
            "time": 203.10790500000002,
            "velocity": 0.8818897637795275
          },
          {
            "duration": 0.8243234999999913,
            "durationTicks": 732,
            "midi": 53,
            "name": "F3",
            "ticks": 180360,
            "time": 203.10790500000002,
            "velocity": 0.6929133858267716
          },
          {
            "duration": 0.13851337500000227,
            "durationTicks": 123,
            "midi": 55,
            "name": "G3",
            "ticks": 181093,
            "time": 203.93335462500002,
            "velocity": 0.8818897637795275
          },
          {
            "duration": 0.1914412499999969,
            "durationTicks": 170,
            "midi": 58,
            "name": "A#3",
            "ticks": 181189,
            "time": 204.041462625,
            "velocity": 0.8818897637795275
          },
          {
            "duration": 0.16328812500003664,
            "durationTicks": 145,
            "midi": 60,
            "name": "C4",
            "ticks": 181326,
            "time": 204.19574175,
            "velocity": 0.7874015748031497
          },
          {
            "duration": 0.08333325000000968,
            "durationTicks": 74,
            "midi": 62,
            "name": "D4",
            "ticks": 181469,
            "time": 204.356777625,
            "velocity": 0.8818897637795275
          },
          {
            "duration": 0.7713956250000251,
            "durationTicks": 685,
            "midi": 62,
            "name": "D4",
            "ticks": 181705,
            "time": 204.622543125,
            "velocity": 0.8818897637795275
          },
          {
            "duration": 0.7499992500000303,
            "durationTicks": 666,
            "midi": 54,
            "name": "F#3",
            "ticks": 181705,
            "time": 204.622543125,
            "velocity": 0.8818897637795275
          },
          {
            "duration": 0.7713956250000251,
            "durationTicks": 685,
            "midi": 60,
            "name": "C4",
            "ticks": 181705,
            "time": 204.622543125,
            "velocity": 0.8818897637795275
          },
          {
            "duration": 0.30968437500001755,
            "durationTicks": 275,
            "midi": 58,
            "name": "A#3",
            "ticks": 182404,
            "time": 205.4097045,
            "velocity": 0.6062992125984252
          },
          {
            "duration": 0.29729699999998616,
            "durationTicks": 264,
            "midi": 65,
            "name": "F4",
            "ticks": 182405,
            "time": 205.41083062500002,
            "velocity": 0.7874015748031497
          },
          {
            "duration": 0.30292762499999526,
            "durationTicks": 269,
            "midi": 62,
            "name": "D4",
            "ticks": 182405,
            "time": 205.41083062500002,
            "velocity": 0.7874015748031497
          },
          {
            "duration": 0.28716187500000956,
            "durationTicks": 255,
            "midi": 55,
            "name": "G3",
            "ticks": 182407,
            "time": 205.41308287500001,
            "velocity": 0.8818897637795275
          },
          {
            "duration": 0.06418912500001284,
            "durationTicks": 57,
            "midi": 65,
            "name": "F4",
            "ticks": 182759,
            "time": 205.809478875,
            "velocity": 0.8818897637795275
          },
          {
            "duration": 0.06193687500001488,
            "durationTicks": 55,
            "midi": 62,
            "name": "D4",
            "ticks": 182759,
            "time": 205.809478875,
            "velocity": 0.7874015748031497
          },
          {
            "duration": 0.03490987500001097,
            "durationTicks": 31,
            "midi": 55,
            "name": "G3",
            "ticks": 182760,
            "time": 205.810605,
            "velocity": 0.6062992125984252
          },
          {
            "duration": 0.0439188750000028,
            "durationTicks": 39,
            "midi": 58,
            "name": "A#3",
            "ticks": 182762,
            "time": 205.81285725,
            "velocity": 0.6062992125984252
          },
          {
            "duration": 0.03490987500001097,
            "durationTicks": 31,
            "midi": 55,
            "name": "G3",
            "ticks": 183612,
            "time": 206.7700635,
            "velocity": 0.47244094488188976
          },
          {
            "duration": 0.06981974999999352,
            "durationTicks": 62,
            "midi": 65,
            "name": "F4",
            "ticks": 183612,
            "time": 206.7700635,
            "velocity": 0.7874015748031497
          },
          {
            "duration": 0.05743237499999054,
            "durationTicks": 51,
            "midi": 62,
            "name": "D4",
            "ticks": 183613,
            "time": 206.771189625,
            "velocity": 0.7874015748031497
          },
          {
            "duration": 0.06193687500001488,
            "durationTicks": 55,
            "midi": 58,
            "name": "A#3",
            "ticks": 183614,
            "time": 206.77231575,
            "velocity": 0.47244094488188976
          },
          {
            "duration": 0.04954949999998348,
            "durationTicks": 44,
            "midi": 55,
            "name": "G3",
            "ticks": 183971,
            "time": 207.174342375,
            "velocity": 0.6062992125984252
          },
          {
            "duration": 0.07094587500000671,
            "durationTicks": 63,
            "midi": 62,
            "name": "D4",
            "ticks": 183972,
            "time": 207.1754685,
            "velocity": 0.7874015748031497
          },
          {
            "duration": 0.06418912499998441,
            "durationTicks": 57,
            "midi": 65,
            "name": "F4",
            "ticks": 183973,
            "time": 207.176594625,
            "velocity": 0.7874015748031497
          },
          {
            "duration": 0.04279275000001803,
            "durationTicks": 38,
            "midi": 58,
            "name": "A#3",
            "ticks": 183974,
            "time": 207.17772075,
            "velocity": 0.5354330708661418
          },
          {
            "duration": 0.31981949999999415,
            "durationTicks": 284,
            "midi": 53,
            "name": "F3",
            "ticks": 184320,
            "time": 207.56736,
            "velocity": 0.8818897637795275
          },
          {
            "duration": 0.3175672499999962,
            "durationTicks": 282,
            "midi": 56,
            "name": "G#3",
            "ticks": 184320,
            "time": 207.56736,
            "velocity": 0.6929133858267716
          },
          {
            "duration": 0.31981950000002257,
            "durationTicks": 284,
            "midi": 58,
            "name": "A#3",
            "ticks": 184322,
            "time": 207.56961225,
            "velocity": 0.7874015748031497
          },
          {
            "duration": 0.3063060000000064,
            "durationTicks": 272,
            "midi": 62,
            "name": "D4",
            "ticks": 184322,
            "time": 207.56961225,
            "velocity": 0.8818897637795275
          },
          {
            "duration": 0.07094587500000671,
            "durationTicks": 63,
            "midi": 53,
            "name": "F3",
            "ticks": 184677,
            "time": 207.969386625,
            "velocity": 0.7874015748031497
          },
          {
            "duration": 0.05405400000000782,
            "durationTicks": 48,
            "midi": 56,
            "name": "G#3",
            "ticks": 184678,
            "time": 207.97051275,
            "velocity": 0.5354330708661418
          },
          {
            "duration": 0.05968462500001692,
            "durationTicks": 53,
            "midi": 62,
            "name": "D4",
            "ticks": 184679,
            "time": 207.971638875,
            "velocity": 0.7874015748031497
          },
          {
            "duration": 0.056306250000005775,
            "durationTicks": 50,
            "midi": 58,
            "name": "A#3",
            "ticks": 184680,
            "time": 207.972765,
            "velocity": 0.6929133858267716
          },
          {
            "duration": 0.0822071249999965,
            "durationTicks": 73,
            "midi": 56,
            "name": "G#3",
            "ticks": 185514,
            "time": 208.91195325,
            "velocity": 0.5354330708661418
          },
          {
            "duration": 0.06869362500000875,
            "durationTicks": 61,
            "midi": 53,
            "name": "F3",
            "ticks": 185519,
            "time": 208.917583875,
            "velocity": 0.8818897637795275
          },
          {
            "duration": 0.06193687499998646,
            "durationTicks": 55,
            "midi": 62,
            "name": "D4",
            "ticks": 185520,
            "time": 208.91871,
            "velocity": 0.7874015748031497
          },
          {
            "duration": 0.03490987499998255,
            "durationTicks": 31,
            "midi": 58,
            "name": "A#3",
            "ticks": 185523,
            "time": 208.92208837500002,
            "velocity": 0.6929133858267716
          },
          {
            "duration": 0.07207199999999148,
            "durationTicks": 64,
            "midi": 56,
            "name": "G#3",
            "ticks": 185881,
            "time": 209.32524112500002,
            "velocity": 0.6062992125984252
          },
          {
            "duration": 0.06981974999999352,
            "durationTicks": 62,
            "midi": 62,
            "name": "D4",
            "ticks": 185883,
            "time": 209.32749337500002,
            "velocity": 0.7874015748031497
          },
          {
            "duration": 0.07207199999999148,
            "durationTicks": 64,
            "midi": 53,
            "name": "F3",
            "ticks": 185884,
            "time": 209.3286195,
            "velocity": 0.8818897637795275
          },
          {
            "duration": 0.06193687499998646,
            "durationTicks": 55,
            "midi": 58,
            "name": "A#3",
            "ticks": 185885,
            "time": 209.32974562500002,
            "velocity": 0.6929133858267716
          },
          {
            "duration": 0.07657649999998739,
            "durationTicks": 68,
            "midi": 58,
            "name": "A#3",
            "ticks": 186483,
            "time": 210.00316837500003,
            "velocity": 0.6062992125984252
          },
          {
            "duration": 0.05743237499999054,
            "durationTicks": 51,
            "midi": 55,
            "name": "G3",
            "ticks": 186487,
            "time": 210.00767287500003,
            "velocity": 0.7874015748031497
          },
          {
            "duration": 0.07882874999998535,
            "durationTicks": 70,
            "midi": 58,
            "name": "A#3",
            "ticks": 186845,
            "time": 210.41082562500003,
            "velocity": 0.5354330708661418
          },
          {
            "duration": 0.04054049999999165,
            "durationTicks": 36,
            "midi": 55,
            "name": "G3",
            "ticks": 186849,
            "time": 210.41533012500003,
            "velocity": 0.7874015748031497
          },
          {
            "duration": 0.07657649999998739,
            "durationTicks": 68,
            "midi": 58,
            "name": "A#3",
            "ticks": 187441,
            "time": 211.08199612500002,
            "velocity": 0.5354330708661418
          },
          {
            "duration": 0.06756749999999556,
            "durationTicks": 60,
            "midi": 55,
            "name": "G3",
            "ticks": 187444,
            "time": 211.0853745,
            "velocity": 0.7874015748031497
          },
          {
            "duration": 0.08333325000000968,
            "durationTicks": 74,
            "midi": 58,
            "name": "A#3",
            "ticks": 187806,
            "time": 211.49303175,
            "velocity": 0.7874015748031497
          },
          {
            "duration": 0.06644137499998237,
            "durationTicks": 59,
            "midi": 55,
            "name": "G3",
            "ticks": 187809,
            "time": 211.496410125,
            "velocity": 0.7874015748031497
          },
          {
            "duration": 0.3175672499999962,
            "durationTicks": 282,
            "midi": 67,
            "name": "G4",
            "ticks": 188152,
            "time": 211.88267100000002,
            "velocity": 0.8818897637795275
          },
          {
            "duration": 0.32432399999999006,
            "durationTicks": 288,
            "midi": 62,
            "name": "D4",
            "ticks": 188152,
            "time": 211.88267100000002,
            "velocity": 0.8818897637795275
          },
          {
            "duration": 0.32207175000002053,
            "durationTicks": 286,
            "midi": 60,
            "name": "C4",
            "ticks": 188153,
            "time": 211.883797125,
            "velocity": 0.7874015748031497
          },
          {
            "duration": 0.06756749999999556,
            "durationTicks": 60,
            "midi": 62,
            "name": "D4",
            "ticks": 188516,
            "time": 212.2925805,
            "velocity": 0.7874015748031497
          },
          {
            "duration": 0.06193687499998646,
            "durationTicks": 55,
            "midi": 60,
            "name": "C4",
            "ticks": 188518,
            "time": 212.29483275,
            "velocity": 0.7874015748031497
          },
          {
            "duration": 0.030405374999986634,
            "durationTicks": 27,
            "midi": 67,
            "name": "G4",
            "ticks": 188521,
            "time": 212.29821112500002,
            "velocity": 0.6929133858267716
          },
          {
            "duration": 0.2849096249999832,
            "durationTicks": 253,
            "midi": 66,
            "name": "F#4",
            "ticks": 189114,
            "time": 212.96600325000003,
            "velocity": 0.6929133858267716
          },
          {
            "duration": 0.30743212499996275,
            "durationTicks": 273,
            "midi": 60,
            "name": "C4",
            "ticks": 189114,
            "time": 212.96600325000003,
            "velocity": 0.7874015748031497
          },
          {
            "duration": 0.2916663750000055,
            "durationTicks": 259,
            "midi": 62,
            "name": "D4",
            "ticks": 189115,
            "time": 212.96712937499998,
            "velocity": 0.8818897637795275
          },
          {
            "duration": 0.06644137500003922,
            "durationTicks": 59,
            "midi": 66,
            "name": "F#4",
            "ticks": 189471,
            "time": 213.368029875,
            "velocity": 0.6929133858267716
          },
          {
            "duration": 0.06981975000002194,
            "durationTicks": 62,
            "midi": 60,
            "name": "C4",
            "ticks": 189472,
            "time": 213.369156,
            "velocity": 0.7874015748031497
          },
          {
            "duration": 0.06756750000002398,
            "durationTicks": 60,
            "midi": 62,
            "name": "D4",
            "ticks": 189473,
            "time": 213.370282125,
            "velocity": 0.8818897637795275
          },
          {
            "duration": 0.17229712500000005,
            "durationTicks": 153,
            "midi": 57,
            "name": "A3",
            "ticks": 190063,
            "time": 214.034695875,
            "velocity": 0.7874015748031497
          },
          {
            "duration": 0.17680162499996754,
            "durationTicks": 157,
            "midi": 58,
            "name": "A#3",
            "ticks": 190066,
            "time": 214.03807425000002,
            "velocity": 0.8818897637795275
          },
          {
            "duration": 0.1745493749999696,
            "durationTicks": 155,
            "midi": 62,
            "name": "D4",
            "ticks": 190068,
            "time": 214.04032650000002,
            "velocity": 0.8818897637795275
          },
          {
            "duration": 0.13288274999999317,
            "durationTicks": 118,
            "midi": 53,
            "name": "F3",
            "ticks": 190069,
            "time": 214.041452625,
            "velocity": 0.7874015748031497
          },
          {
            "duration": 0.32432399999999006,
            "durationTicks": 288,
            "midi": 58,
            "name": "A#3",
            "ticks": 191040,
            "time": 215.13492000000002,
            "velocity": 0.6062992125984252
          },
          {
            "duration": 0.31756724999996777,
            "durationTicks": 282,
            "midi": 62,
            "name": "D4",
            "ticks": 191040,
            "time": 215.13492000000002,
            "velocity": 0.7874015748031497
          },
          {
            "duration": 0.31306274999997186,
            "durationTicks": 278,
            "midi": 55,
            "name": "G3",
            "ticks": 191040,
            "time": 215.13492000000002,
            "velocity": 0.8818897637795275
          },
          {
            "duration": 0.2995492499999841,
            "durationTicks": 266,
            "midi": 52,
            "name": "E3",
            "ticks": 191040,
            "time": 215.13492000000002,
            "velocity": 0.7874015748031497
          },
          {
            "duration": 0.077702625000029,
            "durationTicks": 69,
            "midi": 62,
            "name": "D4",
            "ticks": 191400,
            "time": 215.540325,
            "velocity": 0.8818897637795275
          },
          {
            "duration": 0.077702625000029,
            "durationTicks": 69,
            "midi": 58,
            "name": "A#3",
            "ticks": 191400,
            "time": 215.540325,
            "velocity": 0.7874015748031497
          },
          {
            "duration": 0.057432375000018965,
            "durationTicks": 51,
            "midi": 52,
            "name": "E3",
            "ticks": 191400,
            "time": 215.540325,
            "velocity": 0.6929133858267716
          },
          {
            "duration": 0.057432375000018965,
            "durationTicks": 51,
            "midi": 55,
            "name": "G3",
            "ticks": 191400,
            "time": 215.540325,
            "velocity": 0.7874015748031497
          },
          {
            "duration": 0.14977462499999206,
            "durationTicks": 133,
            "midi": 51,
            "name": "D#3",
            "ticks": 191880,
            "time": 216.08086500000002,
            "velocity": 0.6929133858267716
          },
          {
            "duration": 0.17680162499999597,
            "durationTicks": 157,
            "midi": 58,
            "name": "A#3",
            "ticks": 191880,
            "time": 216.08086500000002,
            "velocity": 0.6062992125984252
          },
          {
            "duration": 0.14301787499999818,
            "durationTicks": 127,
            "midi": 62,
            "name": "D4",
            "ticks": 191880,
            "time": 216.08086500000002,
            "velocity": 0.8818897637795275
          },
          {
            "duration": 0.16554037499997776,
            "durationTicks": 147,
            "midi": 55,
            "name": "G3",
            "ticks": 191880,
            "time": 216.08086500000002,
            "velocity": 0.8818897637795275
          },
          {
            "duration": 0.07995487499999854,
            "durationTicks": 71,
            "midi": 56,
            "name": "G#3",
            "ticks": 193200,
            "time": 217.56735,
            "velocity": 0.7874015748031497
          },
          {
            "duration": 0.07545037500000262,
            "durationTicks": 67,
            "midi": 58,
            "name": "A#3",
            "ticks": 193200,
            "time": 217.56735,
            "velocity": 0.7874015748031497
          },
          {
            "duration": 0.06306299999999965,
            "durationTicks": 56,
            "midi": 62,
            "name": "D4",
            "ticks": 193200,
            "time": 217.56735,
            "velocity": 0.8818897637795275
          },
          {
            "duration": 0.05405400000000782,
            "durationTicks": 48,
            "midi": 53,
            "name": "F3",
            "ticks": 193200,
            "time": 217.56735,
            "velocity": 0.6929133858267716
          },
          {
            "duration": 0.09009000000000356,
            "durationTicks": 80,
            "midi": 62,
            "name": "D4",
            "ticks": 193560,
            "time": 217.972755,
            "velocity": 0.8818897637795275
          },
          {
            "duration": 0.1249998749999861,
            "durationTicks": 111,
            "midi": 58,
            "name": "A#3",
            "ticks": 193560,
            "time": 217.972755,
            "velocity": 0.7874015748031497
          },
          {
            "duration": 0.06981974999999352,
            "durationTicks": 62,
            "midi": 53,
            "name": "F3",
            "ticks": 193560,
            "time": 217.972755,
            "velocity": 0.7874015748031497
          },
          {
            "duration": 0.12274762499998815,
            "durationTicks": 109,
            "midi": 56,
            "name": "G#3",
            "ticks": 193560,
            "time": 217.972755,
            "velocity": 0.6929133858267716
          },
          {
            "duration": 0.141891749999985,
            "durationTicks": 126,
            "midi": 51,
            "name": "D#3",
            "ticks": 193800,
            "time": 218.24302500000002,
            "velocity": 0.7874015748031497
          },
          {
            "duration": 0.1632881249999798,
            "durationTicks": 145,
            "midi": 58,
            "name": "A#3",
            "ticks": 193800,
            "time": 218.24302500000002,
            "velocity": 0.8818897637795275
          },
          {
            "duration": 0.16103587499998184,
            "durationTicks": 143,
            "midi": 55,
            "name": "G3",
            "ticks": 193800,
            "time": 218.24302500000002,
            "velocity": 0.8818897637795275
          },
          {
            "duration": 0.15202687499999,
            "durationTicks": 135,
            "midi": 62,
            "name": "D4",
            "ticks": 193800,
            "time": 218.24302500000002,
            "velocity": 0.984251968503937
          },
          {
            "duration": 0.1249998749999861,
            "durationTicks": 111,
            "midi": 60,
            "name": "C4",
            "ticks": 196080,
            "time": 220.81059000000002,
            "velocity": 0.8818897637795275
          },
          {
            "duration": 0.13513499999999112,
            "durationTicks": 120,
            "midi": 62,
            "name": "D4",
            "ticks": 196080,
            "time": 220.81059000000002,
            "velocity": 0.8818897637795275
          },
          {
            "duration": 0.08445937499999445,
            "durationTicks": 75,
            "midi": 55,
            "name": "G3",
            "ticks": 196080,
            "time": 220.81059000000002,
            "velocity": 0.7874015748031497
          },
          {
            "duration": 0.13288274999999317,
            "durationTicks": 118,
            "midi": 60,
            "name": "C4",
            "ticks": 196440,
            "time": 221.21599500000002,
            "velocity": 0.7874015748031497
          },
          {
            "duration": 0.12950437499998202,
            "durationTicks": 115,
            "midi": 55,
            "name": "G3",
            "ticks": 196440,
            "time": 221.21599500000002,
            "velocity": 0.8818897637795275
          },
          {
            "duration": 0.1306304999999952,
            "durationTicks": 116,
            "midi": 62,
            "name": "D4",
            "ticks": 196440,
            "time": 221.21599500000002,
            "velocity": 0.8818897637795275
          },
          {
            "duration": 0.1801800000000071,
            "durationTicks": 160,
            "midi": 60,
            "name": "C4",
            "ticks": 196800,
            "time": 221.6214,
            "velocity": 0.8818897637795275
          },
          {
            "duration": 0.14189175000001342,
            "durationTicks": 126,
            "midi": 62,
            "name": "D4",
            "ticks": 196800,
            "time": 221.6214,
            "velocity": 0.7874015748031497
          },
          {
            "duration": 0.1430178750000266,
            "durationTicks": 127,
            "midi": 54,
            "name": "F#3",
            "ticks": 196800,
            "time": 221.6214,
            "velocity": 0.7874015748031497
          },
          {
            "duration": 0.20270249999998668,
            "durationTicks": 180,
            "midi": 50,
            "name": "D3",
            "ticks": 197193,
            "time": 222.06396712500003,
            "velocity": 0.7874015748031497
          },
          {
            "duration": 0.09684674999999743,
            "durationTicks": 86,
            "midi": 62,
            "name": "D4",
            "ticks": 197196,
            "time": 222.06734550000002,
            "velocity": 0.8818897637795275
          },
          {
            "duration": 0.1249998749999861,
            "durationTicks": 111,
            "midi": 65,
            "name": "F4",
            "ticks": 197311,
            "time": 222.19684987500003,
            "velocity": 0.984251968503937
          },
          {
            "duration": 0.11711700000000747,
            "durationTicks": 104,
            "midi": 53,
            "name": "F3",
            "ticks": 197318,
            "time": 222.20473275,
            "velocity": 0.8818897637795275
          },
          {
            "duration": 0.12274762500001657,
            "durationTicks": 109,
            "midi": 54,
            "name": "F#3",
            "ticks": 197546,
            "time": 222.46148925,
            "velocity": 0.7874015748031497
          },
          {
            "duration": 0.12162150000000338,
            "durationTicks": 108,
            "midi": 66,
            "name": "F#4",
            "ticks": 197551,
            "time": 222.467119875,
            "velocity": 0.8818897637795275
          },
          {
            "duration": 0.14977462499999206,
            "durationTicks": 133,
            "midi": 55,
            "name": "G3",
            "ticks": 197784,
            "time": 222.729507,
            "velocity": 0.8818897637795275
          },
          {
            "duration": 0.13851337500000227,
            "durationTicks": 123,
            "midi": 67,
            "name": "G4",
            "ticks": 197790,
            "time": 222.73626375,
            "velocity": 0.8818897637795275
          },
          {
            "duration": 0.371621250000004,
            "durationTicks": 330,
            "midi": 65,
            "name": "F4",
            "ticks": 200557,
            "time": 225.852251625,
            "velocity": 0.984251968503937
          },
          {
            "duration": 0.28716187500000956,
            "durationTicks": 255,
            "midi": 63,
            "name": "D#4",
            "ticks": 200859,
            "time": 226.192341375,
            "velocity": 0.8818897637795275
          },
          {
            "duration": 0.2680177499999843,
            "durationTicks": 238,
            "midi": 58,
            "name": "A#3",
            "ticks": 201120,
            "time": 226.48626000000002,
            "velocity": 0.8818897637795275
          },
          {
            "duration": 0.11824312500002065,
            "durationTicks": 105,
            "midi": 60,
            "name": "C4",
            "ticks": 201360,
            "time": 226.75653,
            "velocity": 0.8818897637795275
          },
          {
            "duration": 0.11486474999998109,
            "durationTicks": 102,
            "midi": 60,
            "name": "C4",
            "ticks": 201600,
            "time": 227.0268,
            "velocity": 0.8818897637795275
          },
          {
            "duration": 0.10022512500000857,
            "durationTicks": 89,
            "midi": 55,
            "name": "G3",
            "ticks": 201604,
            "time": 227.0313045,
            "velocity": 0.8818897637795275
          },
          {
            "duration": 0.08783774999997718,
            "durationTicks": 78,
            "midi": 62,
            "name": "D4",
            "ticks": 201611,
            "time": 227.039187375,
            "velocity": 0.8818897637795275
          },
          {
            "duration": 0.1103602500000136,
            "durationTicks": 98,
            "midi": 62,
            "name": "D4",
            "ticks": 201835,
            "time": 227.291439375,
            "velocity": 0.8818897637795275
          },
          {
            "duration": 0.10472962500000449,
            "durationTicks": 93,
            "midi": 55,
            "name": "G3",
            "ticks": 201840,
            "time": 227.29707000000002,
            "velocity": 0.8818897637795275
          },
          {
            "duration": 0.11711700000000747,
            "durationTicks": 104,
            "midi": 60,
            "name": "C4",
            "ticks": 201842,
            "time": 227.29932225000002,
            "velocity": 0.7874015748031497
          },
          {
            "duration": 0.15540525000000116,
            "durationTicks": 138,
            "midi": 60,
            "name": "C4",
            "ticks": 202560,
            "time": 228.10788000000002,
            "velocity": 0.8818897637795275
          },
          {
            "duration": 0.1306304999999952,
            "durationTicks": 116,
            "midi": 54,
            "name": "F#3",
            "ticks": 202560,
            "time": 228.10788000000002,
            "velocity": 0.6929133858267716
          },
          {
            "duration": 0.13963949999998704,
            "durationTicks": 124,
            "midi": 62,
            "name": "D4",
            "ticks": 202560,
            "time": 228.10788000000002,
            "velocity": 0.8818897637795275
          },
          {
            "duration": 0.26914387499996906,
            "durationTicks": 239,
            "midi": 58,
            "name": "A#3",
            "ticks": 203040,
            "time": 228.64842000000002,
            "velocity": 0.5354330708661418
          },
          {
            "duration": 0.25900874999999246,
            "durationTicks": 230,
            "midi": 63,
            "name": "D#4",
            "ticks": 203040,
            "time": 228.64842000000002,
            "velocity": 0.7874015748031497
          },
          {
            "duration": 0.24099074999998038,
            "durationTicks": 214,
            "midi": 60,
            "name": "C4",
            "ticks": 203040,
            "time": 228.64842000000002,
            "velocity": 0.8818897637795275
          },
          {
            "duration": 0.2240988749999815,
            "durationTicks": 199,
            "midi": 55,
            "name": "G3",
            "ticks": 203040,
            "time": 228.64842000000002,
            "velocity": 0.8818897637795275
          },
          {
            "duration": 0.11373862500002474,
            "durationTicks": 101,
            "midi": 60,
            "name": "C4",
            "ticks": 203280,
            "time": 228.91869,
            "velocity": 0.6929133858267716
          },
          {
            "duration": 0.10810800000001564,
            "durationTicks": 96,
            "midi": 65,
            "name": "F4",
            "ticks": 203280,
            "time": 228.91869,
            "velocity": 0.8818897637795275
          },
          {
            "duration": 0.1159908750000227,
            "durationTicks": 103,
            "midi": 54,
            "name": "F#3",
            "ticks": 203280,
            "time": 228.91869,
            "velocity": 0.6062992125984252
          },
          {
            "duration": 1.2150888749999638,
            "durationTicks": 1079,
            "midi": 58,
            "name": "A#3",
            "ticks": 203400,
            "time": 229.05382500000002,
            "velocity": 0.7874015748031497
          },
          {
            "duration": 1.2150888749999638,
            "durationTicks": 1079,
            "midi": 62,
            "name": "D4",
            "ticks": 203400,
            "time": 229.05382500000002,
            "velocity": 0.8818897637795275
          },
          {
            "duration": 1.2027015000000176,
            "durationTicks": 1068,
            "midi": 57,
            "name": "A3",
            "ticks": 203400,
            "time": 229.05382500000002,
            "velocity": 0.8818897637795275
          },
          {
            "duration": 1.206079874999972,
            "durationTicks": 1071,
            "midi": 53,
            "name": "F3",
            "ticks": 203400,
            "time": 229.05382500000002,
            "velocity": 0.6929133858267716
          },
          {
            "duration": 0.3355852500000083,
            "durationTicks": 298,
            "midi": 60,
            "name": "C4",
            "ticks": 207500,
            "time": 233.6709375,
            "velocity": 0.6299212598425197
          },
          {
            "duration": 0.3445942500000001,
            "durationTicks": 306,
            "midi": 67,
            "name": "G4",
            "ticks": 207502,
            "time": 233.67318975,
            "velocity": 0.7874015748031497
          },
          {
            "duration": 0.32207175000002053,
            "durationTicks": 286,
            "midi": 63,
            "name": "D#4",
            "ticks": 207507,
            "time": 233.678820375,
            "velocity": 0.6929133858267716
          },
          {
            "duration": 0.33783750000000623,
            "durationTicks": 300,
            "midi": 58,
            "name": "A#3",
            "ticks": 207507,
            "time": 233.678820375,
            "velocity": 0.6062992125984252
          },
          {
            "duration": 0.15653137500001435,
            "durationTicks": 139,
            "midi": 60,
            "name": "C4",
            "ticks": 207834,
            "time": 234.04706325,
            "velocity": 0.6929133858267716
          },
          {
            "duration": 0.12162149999997496,
            "durationTicks": 108,
            "midi": 63,
            "name": "D#4",
            "ticks": 207836,
            "time": 234.0493155,
            "velocity": 0.7874015748031497
          },
          {
            "duration": 0.11486475000003793,
            "durationTicks": 102,
            "midi": 55,
            "name": "G3",
            "ticks": 207839,
            "time": 234.052693875,
            "velocity": 0.6062992125984252
          },
          {
            "duration": 0.11824312500002065,
            "durationTicks": 105,
            "midi": 58,
            "name": "A#3",
            "ticks": 207845,
            "time": 234.059450625,
            "velocity": 0.6377952755905512
          },
          {
            "duration": 0.08445937499999445,
            "durationTicks": 75,
            "midi": 63,
            "name": "D#4",
            "ticks": 208021,
            "time": 234.25764862500003,
            "velocity": 0.6929133858267716
          },
          {
            "duration": 0.07657649999998739,
            "durationTicks": 68,
            "midi": 60,
            "name": "C4",
            "ticks": 208113,
            "time": 234.36125212500002,
            "velocity": 0.6929133858267716
          },
          {
            "duration": 0.09121612499998832,
            "durationTicks": 81,
            "midi": 63,
            "name": "D#4",
            "ticks": 208196,
            "time": 234.4547205,
            "velocity": 0.5984251968503937
          },
          {
            "duration": 0.06644137500003922,
            "durationTicks": 59,
            "midi": 67,
            "name": "G4",
            "ticks": 208257,
            "time": 234.523414125,
            "velocity": 0.7874015748031497
          },
          {
            "duration": 0.20945925000000898,
            "durationTicks": 186,
            "midi": 63,
            "name": "D#4",
            "ticks": 208324,
            "time": 234.5988645,
            "velocity": 0.6929133858267716
          },
          {
            "duration": 0.22860337500000583,
            "durationTicks": 203,
            "midi": 67,
            "name": "G4",
            "ticks": 208324,
            "time": 234.5988645,
            "velocity": 0.7874015748031497
          },
          {
            "duration": 0.2443691249999631,
            "durationTicks": 217,
            "midi": 60,
            "name": "C4",
            "ticks": 208325,
            "time": 234.59999062500003,
            "velocity": 0.6299212598425197
          },
          {
            "duration": 0.17229712500002847,
            "durationTicks": 153,
            "midi": 58,
            "name": "A#3",
            "ticks": 208332,
            "time": 234.60787349999998,
            "velocity": 0.6220472440944882
          },
          {
            "duration": 0.1261259999999993,
            "durationTicks": 112,
            "midi": 67,
            "name": "G4",
            "ticks": 208553,
            "time": 234.856747125,
            "velocity": 0.6929133858267716
          },
          {
            "duration": 0.1261259999999993,
            "durationTicks": 112,
            "midi": 60,
            "name": "C4",
            "ticks": 208553,
            "time": 234.856747125,
            "velocity": 0.6062992125984252
          },
          {
            "duration": 0.1599097500000255,
            "durationTicks": 142,
            "midi": 70,
            "name": "A#4",
            "ticks": 208558,
            "time": 234.86237775,
            "velocity": 0.7874015748031497
          },
          {
            "duration": 0.12612599999997087,
            "durationTicks": 112,
            "midi": 63,
            "name": "D#4",
            "ticks": 208563,
            "time": 234.86800837500002,
            "velocity": 0.6929133858267716
          },
          {
            "duration": 0.6768011250000256,
            "durationTicks": 601,
            "midi": 63,
            "name": "D#4",
            "ticks": 208703,
            "time": 235.025665875,
            "velocity": 0.6929133858267716
          },
          {
            "duration": 0.690314624999985,
            "durationTicks": 613,
            "midi": 66,
            "name": "F#4",
            "ticks": 208706,
            "time": 235.02904425000003,
            "velocity": 0.7874015748031497
          },
          {
            "duration": 0.6576570000000004,
            "durationTicks": 584,
            "midi": 60,
            "name": "C4",
            "ticks": 208714,
            "time": 235.03805325000002,
            "velocity": 0.6299212598425197
          },
          {
            "duration": 0.6509002500000065,
            "durationTicks": 578,
            "midi": 57,
            "name": "A3",
            "ticks": 208720,
            "time": 235.04481,
            "velocity": 0.6062992125984252
          },
          {
            "duration": 0.3108105000000023,
            "durationTicks": 276,
            "midi": 57,
            "name": "A3",
            "ticks": 209402,
            "time": 235.81282725,
            "velocity": 0.6299212598425197
          },
          {
            "duration": 0.3108105000000023,
            "durationTicks": 276,
            "midi": 65,
            "name": "F4",
            "ticks": 209402,
            "time": 235.81282725,
            "velocity": 0.7874015748031497
          },
          {
            "duration": 0.30292762499999526,
            "durationTicks": 269,
            "midi": 60,
            "name": "C4",
            "ticks": 209407,
            "time": 235.818457875,
            "velocity": 0.6929133858267716
          },
          {
            "duration": 0.29954925000001253,
            "durationTicks": 266,
            "midi": 62,
            "name": "D4",
            "ticks": 209410,
            "time": 235.82183625,
            "velocity": 0.7086614173228346
          },
          {
            "duration": 0.15653137500001435,
            "durationTicks": 139,
            "midi": 61,
            "name": "C#4",
            "ticks": 209753,
            "time": 236.208097125,
            "velocity": 0.6929133858267716
          },
          {
            "duration": 0.15090075000000525,
            "durationTicks": 134,
            "midi": 58,
            "name": "A#3",
            "ticks": 209756,
            "time": 236.2114755,
            "velocity": 0.6456692913385826
          },
          {
            "duration": 0.11036024999998517,
            "durationTicks": 98,
            "midi": 55,
            "name": "G3",
            "ticks": 209756,
            "time": 236.2114755,
            "velocity": 0.6062992125984252
          },
          {
            "duration": 0.16891875000001733,
            "durationTicks": 150,
            "midi": 65,
            "name": "F4",
            "ticks": 209760,
            "time": 236.21598,
            "velocity": 0.6929133858267716
          },
          {
            "duration": 0.08445937499999445,
            "durationTicks": 75,
            "midi": 61,
            "name": "C#4",
            "ticks": 209940,
            "time": 236.41868250000002,
            "velocity": 0.6929133858267716
          },
          {
            "duration": 0.07657649999998739,
            "durationTicks": 68,
            "midi": 58,
            "name": "A#3",
            "ticks": 210032,
            "time": 236.522286,
            "velocity": 0.6929133858267716
          },
          {
            "duration": 0.09121612500001675,
            "durationTicks": 81,
            "midi": 61,
            "name": "C#4",
            "ticks": 210115,
            "time": 236.615754375,
            "velocity": 0.5984251968503937
          },
          {
            "duration": 0.06644137499998237,
            "durationTicks": 59,
            "midi": 65,
            "name": "F4",
            "ticks": 210176,
            "time": 236.684448,
            "velocity": 0.7874015748031497
          },
          {
            "duration": 0.35923387500002946,
            "durationTicks": 319,
            "midi": 60,
            "name": "C4",
            "ticks": 210237,
            "time": 236.75314162499998,
            "velocity": 0.6299212598425197
          },
          {
            "duration": 0.36486450000001014,
            "durationTicks": 324,
            "midi": 62,
            "name": "D4",
            "ticks": 210242,
            "time": 236.75877225,
            "velocity": 0.6929133858267716
          },
          {
            "duration": 0.3603599999999574,
            "durationTicks": 320,
            "midi": 69,
            "name": "A4",
            "ticks": 210243,
            "time": 236.75989837500003,
            "velocity": 0.7874015748031497
          },
          {
            "duration": 0.3614861250000274,
            "durationTicks": 321,
            "midi": 65,
            "name": "F4",
            "ticks": 210252,
            "time": 236.77003349999998,
            "velocity": 0.7480314960629921
          },
          {
            "duration": 0.6745488749999993,
            "durationTicks": 599,
            "midi": 56,
            "name": "G#3",
            "ticks": 210649,
            "time": 237.21710512500002,
            "velocity": 0.6062992125984252
          },
          {
            "duration": 0.6745488749999993,
            "durationTicks": 599,
            "midi": 59,
            "name": "B3",
            "ticks": 210649,
            "time": 237.21710512500002,
            "velocity": 0.6850393700787402
          },
          {
            "duration": 0.6745488749999993,
            "durationTicks": 599,
            "midi": 65,
            "name": "F4",
            "ticks": 210651,
            "time": 237.21935737500002,
            "velocity": 0.7874015748031497
          },
          {
            "duration": 0.6644137499999658,
            "durationTicks": 590,
            "midi": 61,
            "name": "C#4",
            "ticks": 210654,
            "time": 237.22273575000003,
            "velocity": 0.6929133858267716
          },
          {
            "duration": 0.09684675000002585,
            "durationTicks": 86,
            "midi": 63,
            "name": "D#4",
            "ticks": 211352,
            "time": 238.008771,
            "velocity": 0.6929133858267716
          },
          {
            "duration": 0.08108100000001173,
            "durationTicks": 72,
            "midi": 58,
            "name": "A#3",
            "ticks": 211353,
            "time": 238.009897125,
            "velocity": 0.8818897637795275
          },
          {
            "duration": 0.08108100000001173,
            "durationTicks": 72,
            "midi": 60,
            "name": "C4",
            "ticks": 211353,
            "time": 238.009897125,
            "velocity": 0.8818897637795275
          },
          {
            "duration": 0.0720720000000199,
            "durationTicks": 64,
            "midi": 67,
            "name": "G4",
            "ticks": 211356,
            "time": 238.0132755,
            "velocity": 0.8818897637795275
          },
          {
            "duration": 0.05743237499999054,
            "durationTicks": 51,
            "midi": 63,
            "name": "D#4",
            "ticks": 211566,
            "time": 238.24976175,
            "velocity": 0.7874015748031497
          },
          {
            "duration": 0.03603599999999574,
            "durationTicks": 32,
            "midi": 60,
            "name": "C4",
            "ticks": 211571,
            "time": 238.255392375,
            "velocity": 0.6929133858267716
          },
          {
            "duration": 0.03603599999999574,
            "durationTicks": 32,
            "midi": 58,
            "name": "A#3",
            "ticks": 211571,
            "time": 238.255392375,
            "velocity": 0.7874015748031497
          },
          {
            "duration": 0.09459449999999947,
            "durationTicks": 84,
            "midi": 63,
            "name": "D#4",
            "ticks": 211676,
            "time": 238.3736355,
            "velocity": 0.6929133858267716
          },
          {
            "duration": 0.08558550000000764,
            "durationTicks": 76,
            "midi": 67,
            "name": "G4",
            "ticks": 211677,
            "time": 238.374761625,
            "velocity": 0.8818897637795275
          },
          {
            "duration": 0.08558550000000764,
            "durationTicks": 76,
            "midi": 58,
            "name": "A#3",
            "ticks": 211680,
            "time": 238.37814,
            "velocity": 0.8818897637795275
          },
          {
            "duration": 0.08558550000000764,
            "durationTicks": 76,
            "midi": 60,
            "name": "C4",
            "ticks": 211680,
            "time": 238.37814,
            "velocity": 0.8818897637795275
          },
          {
            "duration": 0.09572062499998424,
            "durationTicks": 85,
            "midi": 63,
            "name": "D#4",
            "ticks": 211921,
            "time": 238.64953612500003,
            "velocity": 0.7874015748031497
          },
          {
            "duration": 0.08671162499999241,
            "durationTicks": 77,
            "midi": 60,
            "name": "C4",
            "ticks": 211924,
            "time": 238.6529145,
            "velocity": 0.6929133858267716
          },
          {
            "duration": 0.08671162499999241,
            "durationTicks": 77,
            "midi": 58,
            "name": "A#3",
            "ticks": 211924,
            "time": 238.6529145,
            "velocity": 0.8818897637795275
          },
          {
            "duration": 0.0979728749999822,
            "durationTicks": 87,
            "midi": 63,
            "name": "D#4",
            "ticks": 212165,
            "time": 238.92431062500003,
            "velocity": 0.6929133858267716
          },
          {
            "duration": 0.08671162500002083,
            "durationTicks": 77,
            "midi": 67,
            "name": "G4",
            "ticks": 212168,
            "time": 238.927689,
            "velocity": 0.7874015748031497
          },
          {
            "duration": 0.08783774999997718,
            "durationTicks": 78,
            "midi": 70,
            "name": "A#4",
            "ticks": 212169,
            "time": 238.92881512500003,
            "velocity": 0.6062992125984252
          },
          {
            "duration": 0.08783774999997718,
            "durationTicks": 78,
            "midi": 60,
            "name": "C4",
            "ticks": 212169,
            "time": 238.92881512500003,
            "velocity": 0.6692913385826772
          },
          {
            "duration": 0.09459449999999947,
            "durationTicks": 84,
            "midi": 67,
            "name": "G4",
            "ticks": 212406,
            "time": 239.19570675,
            "velocity": 0.7874015748031497
          },
          {
            "duration": 0.10247737500000653,
            "durationTicks": 91,
            "midi": 70,
            "name": "A#4",
            "ticks": 212410,
            "time": 239.20021125,
            "velocity": 0.6062992125984252
          },
          {
            "duration": 0.10247737500000653,
            "durationTicks": 91,
            "midi": 60,
            "name": "C4",
            "ticks": 212410,
            "time": 239.20021125,
            "velocity": 0.6299212598425197
          },
          {
            "duration": 0.11148637499999836,
            "durationTicks": 99,
            "midi": 63,
            "name": "D#4",
            "ticks": 212417,
            "time": 239.208094125,
            "velocity": 0.6929133858267716
          },
          {
            "duration": 0.21508987499998966,
            "durationTicks": 191,
            "midi": 57,
            "name": "A3",
            "ticks": 212647,
            "time": 239.46710287500002,
            "velocity": 0.6062992125984252
          },
          {
            "duration": 0.21508987499998966,
            "durationTicks": 191,
            "midi": 60,
            "name": "C4",
            "ticks": 212647,
            "time": 239.46710287500002,
            "velocity": 0.6929133858267716
          },
          {
            "duration": 0.21171150000000694,
            "durationTicks": 188,
            "midi": 62,
            "name": "D4",
            "ticks": 212648,
            "time": 239.468229,
            "velocity": 0.6929133858267716
          },
          {
            "duration": 0.19369349999999486,
            "durationTicks": 172,
            "midi": 66,
            "name": "F#4",
            "ticks": 212651,
            "time": 239.47160737500002,
            "velocity": 0.7874015748031497
          },
          {
            "duration": 0.08783775000003402,
            "durationTicks": 78,
            "midi": 57,
            "name": "A3",
            "ticks": 212877,
            "time": 239.726111625,
            "velocity": 0.6692913385826772
          },
          {
            "duration": 0.08783775000003402,
            "durationTicks": 78,
            "midi": 60,
            "name": "C4",
            "ticks": 212877,
            "time": 239.726111625,
            "velocity": 0.6929133858267716
          },
          {
            "duration": 0.08896387500001879,
            "durationTicks": 79,
            "midi": 54,
            "name": "F#3",
            "ticks": 212883,
            "time": 239.732868375,
            "velocity": 0.6062992125984252
          },
          {
            "duration": 0.10472962500000449,
            "durationTicks": 93,
            "midi": 62,
            "name": "D4",
            "ticks": 212885,
            "time": 239.735120625,
            "velocity": 0.7874015748031497
          },
          {
            "duration": 1.2995482499999866,
            "durationTicks": 1154,
            "midi": 57,
            "name": "A3",
            "ticks": 213016,
            "time": 239.88264300000003,
            "velocity": 0.6062992125984252
          },
          {
            "duration": 1.2995482499999866,
            "durationTicks": 1154,
            "midi": 58,
            "name": "A#3",
            "ticks": 213016,
            "time": 239.88264300000003,
            "velocity": 0.7874015748031497
          },
          {
            "duration": 1.306305000000009,
            "durationTicks": 1160,
            "midi": 62,
            "name": "D4",
            "ticks": 213017,
            "time": 239.88376912500001,
            "velocity": 0.7874015748031497
          },
          {
            "duration": 1.3074311249999937,
            "durationTicks": 1161,
            "midi": 65,
            "name": "F4",
            "ticks": 213019,
            "time": 239.886021375,
            "velocity": 0.7874015748031497
          },
          {
            "duration": 0.4797292499999912,
            "durationTicks": 426,
            "midi": 58,
            "name": "A#3",
            "ticks": 214303,
            "time": 241.331965875,
            "velocity": 0.7874015748031497
          },
          {
            "duration": 0.45720674999998323,
            "durationTicks": 406,
            "midi": 65,
            "name": "F4",
            "ticks": 214327,
            "time": 241.358992875,
            "velocity": 0.7874015748031497
          },
          {
            "duration": 0.4448193750000087,
            "durationTicks": 395,
            "midi": 62,
            "name": "D4",
            "ticks": 214334,
            "time": 241.36687575,
            "velocity": 0.7874015748031497
          },
          {
            "duration": 0.43468424999997524,
            "durationTicks": 386,
            "midi": 57,
            "name": "A3",
            "ticks": 214336,
            "time": 241.36912800000002,
            "velocity": 0.6062992125984252
          },
          {
            "duration": 0.5777021250000018,
            "durationTicks": 513,
            "midi": 65,
            "name": "F4",
            "ticks": 214816,
            "time": 241.909668,
            "velocity": 0.7874015748031497
          },
          {
            "duration": 0.6227471250000178,
            "durationTicks": 553,
            "midi": 62,
            "name": "D4",
            "ticks": 214827,
            "time": 241.92205537499999,
            "velocity": 0.7874015748031497
          },
          {
            "duration": 0.6193687500000351,
            "durationTicks": 550,
            "midi": 58,
            "name": "A#3",
            "ticks": 214827,
            "time": 241.92205537499999,
            "velocity": 0.7874015748031497
          },
          {
            "duration": 0.5844588749999957,
            "durationTicks": 519,
            "midi": 57,
            "name": "A3",
            "ticks": 214831,
            "time": 241.926559875,
            "velocity": 0.6062992125984252
          },
          {
            "duration": 4.82094112499999,
            "durationTicks": 4281,
            "midi": 58,
            "name": "A#3",
            "ticks": 215453,
            "time": 242.627009625,
            "velocity": 0.7874015748031497
          },
          {
            "duration": 4.921166250000027,
            "durationTicks": 4370,
            "midi": 55,
            "name": "G3",
            "ticks": 215466,
            "time": 242.64164925,
            "velocity": 0.6929133858267716
          },
          {
            "duration": 4.921166249999999,
            "durationTicks": 4370,
            "midi": 62,
            "name": "D4",
            "ticks": 215470,
            "time": 242.64615375,
            "velocity": 0.7874015748031497
          },
          {
            "duration": 4.941436500000009,
            "durationTicks": 4388,
            "midi": 52,
            "name": "E3",
            "ticks": 215479,
            "time": 242.656288875,
            "velocity": 0.6929133858267716
          }
        ]
      },
      {
        "channel": 0,
        "controlChanges": {
          "0": [
            {
              "number": 0,
              "ticks": 720,
              "time": 0.81081,
              "value": 0
            },
            {
              "number": 0,
              "ticks": 740,
              "time": 0.8333325,
              "value": 0
            }
          ],
          "32": [
            {
              "number": 32,
              "ticks": 730,
              "time": 0.82207125,
              "value": 0
            },
            {
              "number": 32,
              "ticks": 740,
              "time": 0.8333325,
              "value": 0
            }
          ]
        },
        "pitchBends": [],
        "instrument": {
          "family": "piano",
          "number": 0,
          "name": "acoustic grand piano"
        },
        "name": "",
        "notes": []
      },
      {
        "channel": 8,
        "controlChanges": {
          "7": [
            {
              "number": 7,
              "ticks": 750,
              "time": 0.84459375,
              "value": 0.9212598425196851
            }
          ],
          "10": [
            {
              "number": 10,
              "ticks": 750,
              "time": 0.84459375,
              "value": 0.5039370078740157
            }
          ],
          "38": [
            {
              "number": 38,
              "ticks": 780,
              "time": 0.8783775,
              "value": 0.015748031496062992
            }
          ],
          "91": [
            {
              "number": 91,
              "ticks": 750,
              "time": 0.84459375,
              "value": 0.15748031496062992
            }
          ],
          "93": [
            {
              "number": 93,
              "ticks": 750,
              "time": 0.84459375,
              "value": 0
            }
          ],
          "100": [
            {
              "number": 100,
              "ticks": 770,
              "time": 0.86711625,
              "value": 0
            }
          ],
          "101": [
            {
              "number": 101,
              "ticks": 760,
              "time": 0.855855,
              "value": 0
            }
          ]
        },
        "pitchBends": [],
        "instrument": {
          "family": "chromatic percussion",
          "number": 11,
          "name": "vibraphone"
        },
        "name": "",
        "notes": [
          {
            "duration": 0.078828749999996,
            "durationTicks": 70,
            "midi": 73,
            "name": "C#5",
            "ticks": 27066,
            "time": 30.479699250000003,
            "velocity": 0.3543307086614173
          },
          {
            "duration": 0.24774749999999912,
            "durationTicks": 220,
            "midi": 74,
            "name": "D5",
            "ticks": 27098,
            "time": 30.515735250000002,
            "velocity": 0.6929133858267716
          },
          {
            "duration": 0.22747724999999974,
            "durationTicks": 202,
            "midi": 74,
            "name": "D5",
            "ticks": 27373,
            "time": 30.825419625,
            "velocity": 0.6062992125984252
          },
          {
            "duration": 0.15202687500000067,
            "durationTicks": 135,
            "midi": 72,
            "name": "C5",
            "ticks": 27600,
            "time": 31.08105,
            "velocity": 0.5354330708661418
          },
          {
            "duration": 1.2105843749999998,
            "durationTicks": 1075,
            "midi": 74,
            "name": "D5",
            "ticks": 27730,
            "time": 31.227446250000003,
            "velocity": 0.7874015748031497
          },
          {
            "duration": 0.12499987500000032,
            "durationTicks": 111,
            "midi": 73,
            "name": "C#5",
            "ticks": 28959,
            "time": 32.611453875,
            "velocity": 0.28346456692913385
          },
          {
            "duration": 0.23085562500000378,
            "durationTicks": 205,
            "midi": 74,
            "name": "D5",
            "ticks": 29003,
            "time": 32.661003375,
            "velocity": 0.6062992125984252
          },
          {
            "duration": 0.24887362500000165,
            "durationTicks": 221,
            "midi": 74,
            "name": "D5",
            "ticks": 29269,
            "time": 32.960552625,
            "velocity": 0.5354330708661418
          },
          {
            "duration": 0.11824312500000644,
            "durationTicks": 105,
            "midi": 72,
            "name": "C5",
            "ticks": 29513,
            "time": 33.235327125,
            "velocity": 0.6062992125984252
          },
          {
            "duration": 0.4110356249999967,
            "durationTicks": 365,
            "midi": 75,
            "name": "D#5",
            "ticks": 29614,
            "time": 33.34906575,
            "velocity": 0.5354330708661418
          },
          {
            "duration": 0.2680177499999985,
            "durationTicks": 238,
            "midi": 74,
            "name": "D5",
            "ticks": 30002,
            "time": 33.78600225,
            "velocity": 0.6929133858267716
          },
          {
            "duration": 0.2939186249999963,
            "durationTicks": 261,
            "midi": 72,
            "name": "C5",
            "ticks": 30252,
            "time": 34.0675335,
            "velocity": 0.5354330708661418
          },
          {
            "duration": 0.31981950000000126,
            "durationTicks": 284,
            "midi": 70,
            "name": "A#4",
            "ticks": 30481,
            "time": 34.325416125,
            "velocity": 0.6929133858267716
          },
          {
            "duration": 1.2297284999999931,
            "durationTicks": 1092,
            "midi": 69,
            "name": "A4",
            "ticks": 30725,
            "time": 34.600190625,
            "velocity": 0.7874015748031497
          },
          {
            "duration": 0.4752247500000024,
            "durationTicks": 422,
            "midi": 70,
            "name": "A#4",
            "ticks": 31913,
            "time": 35.938027125,
            "velocity": 0.7874015748031497
          },
          {
            "duration": 0.3164411250000043,
            "durationTicks": 281,
            "midi": 72,
            "name": "C5",
            "ticks": 32379,
            "time": 36.462801375,
            "velocity": 0.6929133858267716
          },
          {
            "duration": 1.9245476250000024,
            "durationTicks": 1709,
            "midi": 69,
            "name": "A4",
            "ticks": 32640,
            "time": 36.75672,
            "velocity": 0.6929133858267716
          },
          {
            "duration": 0.09234225000000151,
            "durationTicks": 82,
            "midi": 73,
            "name": "C#5",
            "ticks": 34765,
            "time": 39.149735625,
            "velocity": 0.5354330708661418
          },
          {
            "duration": 0.2623871250000036,
            "durationTicks": 233,
            "midi": 74,
            "name": "D5",
            "ticks": 34803,
            "time": 39.192528374999995,
            "velocity": 0.6062992125984252
          },
          {
            "duration": 0.24211687499999357,
            "durationTicks": 215,
            "midi": 67,
            "name": "G4",
            "ticks": 35046,
            "time": 39.46617675,
            "velocity": 0.6929133858267716
          },
          {
            "duration": 0.32432399999999006,
            "durationTicks": 288,
            "midi": 77,
            "name": "F5",
            "ticks": 35277,
            "time": 39.72631162500001,
            "velocity": 0.6929133858267716
          },
          {
            "duration": 0.6621615000000034,
            "durationTicks": 588,
            "midi": 74,
            "name": "D5",
            "ticks": 35523,
            "time": 40.003338375,
            "velocity": 0.7874015748031497
          },
          {
            "duration": 0.09684674999999032,
            "durationTicks": 86,
            "midi": 67,
            "name": "G4",
            "ticks": 36634,
            "time": 41.25446325000001,
            "velocity": 0.47244094488188976
          },
          {
            "duration": 0.23423400000000072,
            "durationTicks": 208,
            "midi": 74,
            "name": "D5",
            "ticks": 36689,
            "time": 41.316400125,
            "velocity": 0.7874015748031497
          },
          {
            "duration": 0.2409907500000017,
            "durationTicks": 214,
            "midi": 74,
            "name": "D5",
            "ticks": 36962,
            "time": 41.62383225,
            "velocity": 0.6929133858267716
          },
          {
            "duration": 0.09684675000000453,
            "durationTicks": 86,
            "midi": 72,
            "name": "C5",
            "ticks": 37203,
            "time": 41.895228374999995,
            "velocity": 0.6062992125984252
          },
          {
            "duration": 0.39752212499999473,
            "durationTicks": 353,
            "midi": 75,
            "name": "D#5",
            "ticks": 37308,
            "time": 42.0134715,
            "velocity": 0.6929133858267716
          },
          {
            "duration": 0.2623871249999965,
            "durationTicks": 233,
            "midi": 74,
            "name": "D5",
            "ticks": 37688,
            "time": 42.441399000000004,
            "velocity": 0.6929133858267716
          },
          {
            "duration": 0.29729700000000037,
            "durationTicks": 264,
            "midi": 72,
            "name": "C5",
            "ticks": 37926,
            "time": 42.70941675,
            "velocity": 0.6062992125984252
          },
          {
            "duration": 0.3018014999999892,
            "durationTicks": 268,
            "midi": 70,
            "name": "A#4",
            "ticks": 38157,
            "time": 42.96955162500001,
            "velocity": 0.6929133858267716
          },
          {
            "duration": 1.5112597500000007,
            "durationTicks": 1342,
            "midi": 69,
            "name": "A4",
            "ticks": 38385,
            "time": 43.226308125,
            "velocity": 0.8818897637795275
          },
          {
            "duration": 0.4042788750000028,
            "durationTicks": 359,
            "midi": 72,
            "name": "C5",
            "ticks": 39860,
            "time": 44.8873425,
            "velocity": 0.7874015748031497
          },
          {
            "duration": 0.12837825000001146,
            "durationTicks": 114,
            "midi": 71,
            "name": "B4",
            "ticks": 40166,
            "time": 45.231936749999996,
            "velocity": 0.6062992125984252
          },
          {
            "duration": 0.14639625000000223,
            "durationTicks": 130,
            "midi": 70,
            "name": "A#4",
            "ticks": 40244,
            "time": 45.3197745,
            "velocity": 0.5039370078740157
          },
          {
            "duration": 1.6745478749999947,
            "durationTicks": 1487,
            "midi": 69,
            "name": "A4",
            "ticks": 40313,
            "time": 45.397477125,
            "velocity": 0.7874015748031497
          },
          {
            "duration": 0.09234225000000151,
            "durationTicks": 82,
            "midi": 78,
            "name": "F#5",
            "ticks": 42443,
            "time": 47.796123375,
            "velocity": 0.4015748031496063
          },
          {
            "duration": 0.26463937500000156,
            "durationTicks": 235,
            "midi": 79,
            "name": "G5",
            "ticks": 42470,
            "time": 47.82652875,
            "velocity": 0.6929133858267716
          },
          {
            "duration": 0.23085562499999668,
            "durationTicks": 205,
            "midi": 72,
            "name": "C5",
            "ticks": 42735,
            "time": 48.124951875,
            "velocity": 0.6929133858267716
          },
          {
            "duration": 0.22635112499999366,
            "durationTicks": 201,
            "midi": 82,
            "name": "A#5",
            "ticks": 42949,
            "time": 48.365942625,
            "velocity": 0.6929133858267716
          },
          {
            "duration": 0.356981624999996,
            "durationTicks": 317,
            "midi": 79,
            "name": "G5",
            "ticks": 43197,
            "time": 48.645221625000005,
            "velocity": 0.7874015748031497
          },
          {
            "duration": 0.8626117499999992,
            "durationTicks": 766,
            "midi": 72,
            "name": "C5",
            "ticks": 43554,
            "time": 49.04724825,
            "velocity": 0.6062992125984252
          },
          {
            "duration": 0.08333325000000258,
            "durationTicks": 74,
            "midi": 78,
            "name": "F#5",
            "ticks": 44341,
            "time": 49.933508625,
            "velocity": 0.31496062992125984
          },
          {
            "duration": 0.2623871250000036,
            "durationTicks": 233,
            "midi": 79,
            "name": "G5",
            "ticks": 44387,
            "time": 49.985310375,
            "velocity": 0.8818897637795275
          },
          {
            "duration": 0.2736483750000005,
            "durationTicks": 243,
            "midi": 77,
            "name": "F5",
            "ticks": 44652,
            "time": 50.283733500000004,
            "velocity": 0.6929133858267716
          },
          {
            "duration": 0.23423400000000782,
            "durationTicks": 208,
            "midi": 75,
            "name": "D#5",
            "ticks": 44868,
            "time": 50.526976499999996,
            "velocity": 0.6062992125984252
          },
          {
            "duration": 0.2837834999999913,
            "durationTicks": 252,
            "midi": 74,
            "name": "D5",
            "ticks": 45087,
            "time": 50.77359787500001,
            "velocity": 0.8818897637795275
          },
          {
            "duration": 0.29279249999999735,
            "durationTicks": 260,
            "midi": 74,
            "name": "D5",
            "ticks": 45383,
            "time": 51.106930875,
            "velocity": 0.6929133858267716
          },
          {
            "duration": 0.24999974999999353,
            "durationTicks": 222,
            "midi": 75,
            "name": "D#5",
            "ticks": 45612,
            "time": 51.364813500000004,
            "velocity": 0.6062992125984252
          },
          {
            "duration": 0.2556303749999955,
            "durationTicks": 227,
            "midi": 77,
            "name": "F5",
            "ticks": 45853,
            "time": 51.636209625000006,
            "velocity": 0.7874015748031497
          },
          {
            "duration": 0.9054045000000102,
            "durationTicks": 804,
            "midi": 79,
            "name": "G5",
            "ticks": 46105,
            "time": 51.919993125,
            "velocity": 0.7874015748031497
          },
          {
            "duration": 0.0979728749999964,
            "durationTicks": 87,
            "midi": 76,
            "name": "E5",
            "ticks": 46932,
            "time": 52.851298500000006,
            "velocity": 0.5354330708661418
          },
          {
            "duration": 0.12837825000001146,
            "durationTicks": 114,
            "midi": 75,
            "name": "D#5",
            "ticks": 46991,
            "time": 52.917739874999995,
            "velocity": 0.5354330708661418
          },
          {
            "duration": 0.40653112500000077,
            "durationTicks": 361,
            "midi": 74,
            "name": "D5",
            "ticks": 47065,
            "time": 53.001073125,
            "velocity": 0.6929133858267716
          },
          {
            "duration": 0.33558524999999406,
            "durationTicks": 298,
            "midi": 77,
            "name": "F5",
            "ticks": 47449,
            "time": 53.433505125,
            "velocity": 0.7874015748031497
          },
          {
            "duration": 1.5585570000000004,
            "durationTicks": 1384,
            "midi": 75,
            "name": "D#5",
            "ticks": 47768,
            "time": 53.792739000000005,
            "velocity": 0.7874015748031497
          },
          {
            "duration": 0.23423400000000072,
            "durationTicks": 208,
            "midi": 70,
            "name": "A#4",
            "ticks": 49450,
            "time": 55.68688125,
            "velocity": 0.7874015748031497
          },
          {
            "duration": 0.2522519999999986,
            "durationTicks": 224,
            "midi": 72,
            "name": "C5",
            "ticks": 49690,
            "time": 55.95715125,
            "velocity": 0.6929133858267716
          },
          {
            "duration": 0.11261249999999734,
            "durationTicks": 100,
            "midi": 73,
            "name": "C#5",
            "ticks": 49875,
            "time": 56.165484375000005,
            "velocity": 0.16535433070866143
          },
          {
            "duration": 0.22747724999999974,
            "durationTicks": 202,
            "midi": 74,
            "name": "D5",
            "ticks": 49935,
            "time": 56.233051875,
            "velocity": 0.6062992125984252
          },
          {
            "duration": 0.26463937499999446,
            "durationTicks": 235,
            "midi": 74,
            "name": "D5",
            "ticks": 50198,
            "time": 56.52922275,
            "velocity": 0.8818897637795275
          },
          {
            "duration": 0.26013487500000565,
            "durationTicks": 231,
            "midi": 72,
            "name": "C5",
            "ticks": 50416,
            "time": 56.774718,
            "velocity": 0.5354330708661418
          },
          {
            "duration": 0.11148637499999836,
            "durationTicks": 99,
            "midi": 70,
            "name": "A#4",
            "ticks": 50645,
            "time": 57.03260062500001,
            "velocity": 0.6062992125984252
          },
          {
            "duration": 0.6385128750000035,
            "durationTicks": 567,
            "midi": 74,
            "name": "D5",
            "ticks": 50761,
            "time": 57.163231125,
            "velocity": 0.7874015748031497
          },
          {
            "duration": 0.2556303749999955,
            "durationTicks": 227,
            "midi": 70,
            "name": "A#4",
            "ticks": 51361,
            "time": 57.838906125,
            "velocity": 0.6929133858267716
          },
          {
            "duration": 0.25563037500000263,
            "durationTicks": 227,
            "midi": 72,
            "name": "C5",
            "ticks": 51611,
            "time": 58.120437375,
            "velocity": 0.6062992125984252
          },
          {
            "duration": 0.25563037500000263,
            "durationTicks": 227,
            "midi": 74,
            "name": "D5",
            "ticks": 51859,
            "time": 58.399716375000004,
            "velocity": 0.7874015748031497
          },
          {
            "duration": 0.27139612499999544,
            "durationTicks": 241,
            "midi": 82,
            "name": "A#5",
            "ticks": 52107,
            "time": 58.67899537500001,
            "velocity": 0.7874015748031497
          },
          {
            "duration": 0.2860357500000035,
            "durationTicks": 254,
            "midi": 81,
            "name": "A5",
            "ticks": 52346,
            "time": 58.94813925,
            "velocity": 0.8818897637795275
          },
          {
            "duration": 0.12499987500000032,
            "durationTicks": 111,
            "midi": 79,
            "name": "G5",
            "ticks": 52567,
            "time": 59.197012875000006,
            "velocity": 0.7874015748031497
          },
          {
            "duration": 0.13738724999999619,
            "durationTicks": 122,
            "midi": 74,
            "name": "D5",
            "ticks": 52686,
            "time": 59.331021750000005,
            "velocity": 0.7874015748031497
          },
          {
            "duration": 0.5056301250000033,
            "durationTicks": 449,
            "midi": 74,
            "name": "D5",
            "ticks": 52823,
            "time": 59.485300875,
            "velocity": 0.5354330708661418
          },
          {
            "duration": 0.2725222500000015,
            "durationTicks": 242,
            "midi": 70,
            "name": "A#4",
            "ticks": 53289,
            "time": 60.010075125,
            "velocity": 0.6929133858267716
          },
          {
            "duration": 0.2578826250000077,
            "durationTicks": 229,
            "midi": 72,
            "name": "C5",
            "ticks": 53514,
            "time": 60.26345325,
            "velocity": 0.6062992125984252
          },
          {
            "duration": 0.1204953749999973,
            "durationTicks": 107,
            "midi": 73,
            "name": "C#5",
            "ticks": 53722,
            "time": 60.497687250000006,
            "velocity": 0.5354330708661418
          },
          {
            "duration": 0.39752212500000184,
            "durationTicks": 353,
            "midi": 74,
            "name": "D5",
            "ticks": 53791,
            "time": 60.575389875,
            "velocity": 0.6062992125984252
          },
          {
            "duration": 0.3265762499999951,
            "durationTicks": 290,
            "midi": 70,
            "name": "A#4",
            "ticks": 54169,
            "time": 61.001065125000004,
            "velocity": 0.7874015748031497
          },
          {
            "duration": 0.25337812499999757,
            "durationTicks": 225,
            "midi": 72,
            "name": "C5",
            "ticks": 54490,
            "time": 61.36255125,
            "velocity": 0.6929133858267716
          },
          {
            "duration": 0.3614861250000061,
            "durationTicks": 321,
            "midi": 74,
            "name": "D5",
            "ticks": 54757,
            "time": 61.663226625,
            "velocity": 0.7874015748031497
          },
          {
            "duration": 0.3457203749999991,
            "durationTicks": 307,
            "midi": 77,
            "name": "F5",
            "ticks": 55116,
            "time": 62.0675055,
            "velocity": 0.7874015748031497
          },
          {
            "duration": 0.3614861250000061,
            "durationTicks": 321,
            "midi": 75,
            "name": "D#5",
            "ticks": 55442,
            "time": 62.43462225,
            "velocity": 0.7874015748031497
          },
          {
            "duration": 0.8727468750000043,
            "durationTicks": 775,
            "midi": 74,
            "name": "D5",
            "ticks": 55723,
            "time": 62.751063375,
            "velocity": 0.6929133858267716
          },
          {
            "duration": 0.030405375000000845,
            "durationTicks": 27,
            "midi": 80,
            "name": "G#5",
            "ticks": 57487,
            "time": 64.737547875,
            "velocity": 0.6929133858267716
          },
          {
            "duration": 0.4211707500000017,
            "durationTicks": 374,
            "midi": 81,
            "name": "A5",
            "ticks": 57491,
            "time": 64.742052375,
            "velocity": 0.8818897637795275
          },
          {
            "duration": 0.2882879999999943,
            "durationTicks": 256,
            "midi": 79,
            "name": "G5",
            "ticks": 57825,
            "time": 65.118178125,
            "velocity": 0.7874015748031497
          },
          {
            "duration": 0.23873850000001084,
            "durationTicks": 212,
            "midi": 74,
            "name": "D5",
            "ticks": 58081,
            "time": 65.406466125,
            "velocity": 0.6929133858267716
          },
          {
            "duration": 0.1914412500000111,
            "durationTicks": 170,
            "midi": 70,
            "name": "A#4",
            "ticks": 58344,
            "time": 65.702637,
            "velocity": 0.6929133858267716
          },
          {
            "duration": 0.06193687500000067,
            "durationTicks": 55,
            "midi": 80,
            "name": "G#5",
            "ticks": 58537,
            "time": 65.919979125,
            "velocity": 0.25984251968503935
          },
          {
            "duration": 0.2398646249999956,
            "durationTicks": 213,
            "midi": 81,
            "name": "A5",
            "ticks": 58566,
            "time": 65.95263675000001,
            "velocity": 0.7874015748031497
          },
          {
            "duration": 0.16328812500000822,
            "durationTicks": 145,
            "midi": 81,
            "name": "A5",
            "ticks": 58815,
            "time": 66.233041875,
            "velocity": 0.8818897637795275
          },
          {
            "duration": 0.26463937500000156,
            "durationTicks": 235,
            "midi": 79,
            "name": "G5",
            "ticks": 58938,
            "time": 66.37155525,
            "velocity": 0.7874015748031497
          },
          {
            "duration": 0.3828824999999938,
            "durationTicks": 340,
            "midi": 77,
            "name": "F5",
            "ticks": 59430,
            "time": 66.92560875000001,
            "velocity": 0.7874015748031497
          },
          {
            "duration": 0.3119366250000013,
            "durationTicks": 277,
            "midi": 75,
            "name": "D#5",
            "ticks": 59745,
            "time": 67.280338125,
            "velocity": 0.6062992125984252
          },
          {
            "duration": 0.21508987500000387,
            "durationTicks": 191,
            "midi": 70,
            "name": "A#4",
            "ticks": 60022,
            "time": 67.59227475,
            "velocity": 0.6929133858267716
          },
          {
            "duration": 0.22747724999999264,
            "durationTicks": 202,
            "midi": 67,
            "name": "G4",
            "ticks": 60244,
            "time": 67.8422745,
            "velocity": 0.7874015748031497
          },
          {
            "duration": 0.07770262500000058,
            "durationTicks": 69,
            "midi": 75,
            "name": "D#5",
            "ticks": 60450,
            "time": 68.07425625,
            "velocity": 0.4015748031496063
          },
          {
            "duration": 0.2240988749999957,
            "durationTicks": 199,
            "midi": 77,
            "name": "F5",
            "ticks": 60484,
            "time": 68.11254450000001,
            "velocity": 0.6929133858267716
          },
          {
            "duration": 0.1700448750000021,
            "durationTicks": 151,
            "midi": 77,
            "name": "F5",
            "ticks": 60742,
            "time": 68.40308475,
            "velocity": 0.7874015748031497
          },
          {
            "duration": 0.27702675000000454,
            "durationTicks": 246,
            "midi": 75,
            "name": "D#5",
            "ticks": 60855,
            "time": 68.530336875,
            "velocity": 0.6062992125984252
          },
          {
            "duration": 0.3997743749999927,
            "durationTicks": 355,
            "midi": 81,
            "name": "A5",
            "ticks": 61355,
            "time": 69.093399375,
            "velocity": 0.8818897637795275
          },
          {
            "duration": 0.2837835000000126,
            "durationTicks": 252,
            "midi": 79,
            "name": "G5",
            "ticks": 61677,
            "time": 69.456011625,
            "velocity": 0.8818897637795275
          },
          {
            "duration": 0.27139612500002386,
            "durationTicks": 241,
            "midi": 74,
            "name": "D5",
            "ticks": 61912,
            "time": 69.72065099999999,
            "velocity": 0.6929133858267716
          },
          {
            "duration": 0.27139612499999544,
            "durationTicks": 241,
            "midi": 70,
            "name": "A#4",
            "ticks": 62160,
            "time": 69.99993,
            "velocity": 0.6929133858267716
          },
          {
            "duration": 0.32432399999999006,
            "durationTicks": 288,
            "midi": 69,
            "name": "A4",
            "ticks": 62401,
            "time": 70.271326125,
            "velocity": 0.7874015748031497
          },
          {
            "duration": 0.30517987500000743,
            "durationTicks": 271,
            "midi": 67,
            "name": "G4",
            "ticks": 62651,
            "time": 70.552857375,
            "velocity": 0.7874015748031497
          },
          {
            "duration": 0.2522519999999986,
            "durationTicks": 224,
            "midi": 70,
            "name": "A#4",
            "ticks": 62878,
            "time": 70.80848775000001,
            "velocity": 0.6929133858267716
          },
          {
            "duration": 0.19819800000000498,
            "durationTicks": 176,
            "midi": 74,
            "name": "D5",
            "ticks": 63136,
            "time": 71.099028,
            "velocity": 0.6929133858267716
          },
          {
            "duration": 0.44481937499999447,
            "durationTicks": 395,
            "midi": 77,
            "name": "F5",
            "ticks": 63346,
            "time": 71.33551425,
            "velocity": 0.6062992125984252
          },
          {
            "duration": 0.021396375000009016,
            "durationTicks": 19,
            "midi": 76,
            "name": "E5",
            "ticks": 63350,
            "time": 71.34001875,
            "velocity": 0.7874015748031497
          },
          {
            "duration": 0.3445942500000001,
            "durationTicks": 306,
            "midi": 75,
            "name": "D#5",
            "ticks": 63760,
            "time": 71.80173,
            "velocity": 0.7874015748031497
          },
          {
            "duration": 0.3761257499999999,
            "durationTicks": 334,
            "midi": 74,
            "name": "D5",
            "ticks": 64123,
            "time": 72.210513375,
            "velocity": 0.7874015748031497
          },
          {
            "duration": 0.4087833749999987,
            "durationTicks": 363,
            "midi": 72,
            "name": "C5",
            "ticks": 64495,
            "time": 72.62943187500001,
            "velocity": 0.6929133858267716
          },
          {
            "duration": 0.12950437499999623,
            "durationTicks": 115,
            "midi": 70,
            "name": "A#4",
            "ticks": 64835,
            "time": 73.012314375,
            "velocity": 0.6929133858267716
          },
          {
            "duration": 0.13063050000000942,
            "durationTicks": 116,
            "midi": 72,
            "name": "C5",
            "ticks": 64948,
            "time": 73.1395665,
            "velocity": 0.6062992125984252
          },
          {
            "duration": 0.141891749999985,
            "durationTicks": 126,
            "midi": 70,
            "name": "A#4",
            "ticks": 65051,
            "time": 73.25555737500001,
            "velocity": 0.6929133858267716
          },
          {
            "duration": 0.17905387500000813,
            "durationTicks": 159,
            "midi": 72,
            "name": "C5",
            "ticks": 65167,
            "time": 73.38618787499999,
            "velocity": 0.6062992125984252
          },
          {
            "duration": 2.1092321250000055,
            "durationTicks": 1873,
            "midi": 74,
            "name": "D5",
            "ticks": 65293,
            "time": 73.528079625,
            "velocity": 0.6929133858267716
          },
          {
            "duration": 1.6272506249999878,
            "durationTicks": 1445,
            "midi": 77,
            "name": "F5",
            "ticks": 67693,
            "time": 76.23077962500001,
            "velocity": 0.7874015748031497
          },
          {
            "duration": 0.1317566249999942,
            "durationTicks": 117,
            "midi": 79,
            "name": "G5",
            "ticks": 69368,
            "time": 78.117039,
            "velocity": 0.8818897637795275
          },
          {
            "duration": 0.1531530000000032,
            "durationTicks": 136,
            "midi": 82,
            "name": "A#5",
            "ticks": 69602,
            "time": 78.38055225,
            "velocity": 0.6929133858267716
          },
          {
            "duration": 0.10810800000001564,
            "durationTicks": 96,
            "midi": 77,
            "name": "F5",
            "ticks": 69741,
            "time": 78.537083625,
            "velocity": 0.6062992125984252
          },
          {
            "duration": 1.123872750000018,
            "durationTicks": 998,
            "midi": 79,
            "name": "G5",
            "ticks": 69967,
            "time": 78.79158787499999,
            "velocity": 0.8818897637795275
          },
          {
            "duration": 0.07432424999998943,
            "durationTicks": 66,
            "midi": 73,
            "name": "C#5",
            "ticks": 71250,
            "time": 80.23640625,
            "velocity": 0.1732283464566929
          },
          {
            "duration": 0.22184662499999774,
            "durationTicks": 197,
            "midi": 74,
            "name": "D5",
            "ticks": 71295,
            "time": 80.287081875,
            "velocity": 0.6929133858267716
          },
          {
            "duration": 0.14414399999998295,
            "durationTicks": 128,
            "midi": 77,
            "name": "F5",
            "ticks": 71547,
            "time": 80.57086537500001,
            "velocity": 0.6929133858267716
          },
          {
            "duration": 0.11824312500000644,
            "durationTicks": 105,
            "midi": 72,
            "name": "C5",
            "ticks": 71656,
            "time": 80.693613,
            "velocity": 0.47244094488188976
          },
          {
            "duration": 1.130629500000012,
            "durationTicks": 1004,
            "midi": 74,
            "name": "D5",
            "ticks": 71876,
            "time": 80.9413605,
            "velocity": 0.6929133858267716
          },
          {
            "duration": 0.12274762500000236,
            "durationTicks": 109,
            "midi": 69,
            "name": "A4",
            "ticks": 73195,
            "time": 82.426719375,
            "velocity": 0.4015748031496063
          },
          {
            "duration": 0.21283762500000591,
            "durationTicks": 189,
            "midi": 70,
            "name": "A#4",
            "ticks": 73235,
            "time": 82.47176437499999,
            "velocity": 0.7874015748031497
          },
          {
            "duration": 0.23873849999999663,
            "durationTicks": 212,
            "midi": 70,
            "name": "A#4",
            "ticks": 73479,
            "time": 82.74653887500001,
            "velocity": 0.6062992125984252
          },
          {
            "duration": 0.28153124999998624,
            "durationTicks": 250,
            "midi": 67,
            "name": "G4",
            "ticks": 73707,
            "time": 83.00329537500001,
            "velocity": 0.7874015748031497
          },
          {
            "duration": 0.4988733749999881,
            "durationTicks": 443,
            "midi": 70,
            "name": "A#4",
            "ticks": 73934,
            "time": 83.25892575,
            "velocity": 0.7874015748031497
          },
          {
            "duration": 0.1463962499999809,
            "durationTicks": 130,
            "midi": 67,
            "name": "G4",
            "ticks": 74396,
            "time": 83.77919550000001,
            "velocity": 0.7874015748031497
          },
          {
            "duration": 0.11599087500000849,
            "durationTicks": 103,
            "midi": 77,
            "name": "F5",
            "ticks": 74533,
            "time": 83.933474625,
            "velocity": 0.6929133858267716
          },
          {
            "duration": 2.2792769999999933,
            "durationTicks": 2024,
            "midi": 74,
            "name": "D5",
            "ticks": 74768,
            "time": 84.198114,
            "velocity": 0.6929133858267716
          },
          {
            "duration": 0.05743237499999054,
            "durationTicks": 51,
            "midi": 78,
            "name": "F#5",
            "ticks": 77040,
            "time": 86.75667,
            "velocity": 0.31496062992125984
          },
          {
            "duration": 0.13513500000000533,
            "durationTicks": 120,
            "midi": 79,
            "name": "G5",
            "ticks": 77067,
            "time": 86.787075375,
            "velocity": 0.8818897637795275
          },
          {
            "duration": 0.19369349999999486,
            "durationTicks": 172,
            "midi": 82,
            "name": "A#5",
            "ticks": 77303,
            "time": 87.05284087500002,
            "velocity": 0.6062992125984252
          },
          {
            "duration": 0.12725212500001248,
            "durationTicks": 113,
            "midi": 77,
            "name": "F5",
            "ticks": 77436,
            "time": 87.2026155,
            "velocity": 0.6062992125984252
          },
          {
            "duration": 1.104728625000007,
            "durationTicks": 981,
            "midi": 79,
            "name": "G5",
            "ticks": 77651,
            "time": 87.444732375,
            "velocity": 0.7874015748031497
          },
          {
            "duration": 0.0709458749999925,
            "durationTicks": 63,
            "midi": 78,
            "name": "F#5",
            "ticks": 78926,
            "time": 88.88054175,
            "velocity": 0.4015748031496063
          },
          {
            "duration": 0.19819800000000498,
            "durationTicks": 176,
            "midi": 79,
            "name": "G5",
            "ticks": 78949,
            "time": 88.906442625,
            "velocity": 0.7874015748031497
          },
          {
            "duration": 0.1959457499999928,
            "durationTicks": 174,
            "midi": 77,
            "name": "F5",
            "ticks": 79199,
            "time": 89.18797387500001,
            "velocity": 0.6062992125984252
          },
          {
            "duration": 0.14864849999999308,
            "durationTicks": 132,
            "midi": 79,
            "name": "G5",
            "ticks": 79329,
            "time": 89.334370125,
            "velocity": 0.7874015748031497
          },
          {
            "duration": 1.1869357500000035,
            "durationTicks": 1054,
            "midi": 74,
            "name": "D5",
            "ticks": 79569,
            "time": 89.604640125,
            "velocity": 0.6929133858267716
          },
          {
            "duration": 0.09008999999998935,
            "durationTicks": 80,
            "midi": 79,
            "name": "G5",
            "ticks": 80814,
            "time": 91.00666575000001,
            "velocity": 0.3543307086614173
          },
          {
            "duration": 0.05180174999999565,
            "durationTicks": 46,
            "midi": 81,
            "name": "A5",
            "ticks": 80854,
            "time": 91.05171075,
            "velocity": 0.7874015748031497
          },
          {
            "duration": 0.19369349999999486,
            "durationTicks": 172,
            "midi": 82,
            "name": "A#5",
            "ticks": 80873,
            "time": 91.073107125,
            "velocity": 0.7874015748031497
          },
          {
            "duration": 0.27477449999999237,
            "durationTicks": 244,
            "midi": 82,
            "name": "A#5",
            "ticks": 81116,
            "time": 91.34675550000001,
            "velocity": 0.6062992125984252
          },
          {
            "duration": 0.3175672499999962,
            "durationTicks": 282,
            "midi": 79,
            "name": "G5",
            "ticks": 81349,
            "time": 91.609142625,
            "velocity": 0.7874015748031497
          },
          {
            "duration": 0.27477449999999237,
            "durationTicks": 244,
            "midi": 82,
            "name": "A#5",
            "ticks": 81599,
            "time": 91.890673875,
            "velocity": 0.7874015748031497
          },
          {
            "duration": 0.21508987500000387,
            "durationTicks": 191,
            "midi": 70,
            "name": "A#4",
            "ticks": 81860,
            "time": 92.1845925,
            "velocity": 0.6062992125984252
          },
          {
            "duration": 0.2691438749999975,
            "durationTicks": 239,
            "midi": 72,
            "name": "C5",
            "ticks": 82116,
            "time": 92.4728805,
            "velocity": 0.47244094488188976
          },
          {
            "duration": 0.1801799999999929,
            "durationTicks": 160,
            "midi": 70,
            "name": "A#4",
            "ticks": 82359,
            "time": 92.74652887500001,
            "velocity": 0.6062992125984252
          },
          {
            "duration": 0.07770262500000058,
            "durationTicks": 69,
            "midi": 73,
            "name": "C#5",
            "ticks": 82794,
            "time": 93.23639325,
            "velocity": 0.7874015748031497
          },
          {
            "duration": 0.3186933750000094,
            "durationTicks": 283,
            "midi": 74,
            "name": "D5",
            "ticks": 82830,
            "time": 93.27693375,
            "velocity": 0.7874015748031497
          },
          {
            "duration": 0.3626122500000122,
            "durationTicks": 322,
            "midi": 77,
            "name": "F5",
            "ticks": 83178,
            "time": 93.66882525,
            "velocity": 0.7874015748031497
          },
          {
            "duration": 1.0292782500000044,
            "durationTicks": 914,
            "midi": 74,
            "name": "D5",
            "ticks": 83520,
            "time": 94.05396,
            "velocity": 0.8818897637795275
          },
          {
            "duration": 0.21508987500000387,
            "durationTicks": 191,
            "midi": 79,
            "name": "G5",
            "ticks": 84752,
            "time": 95.441346,
            "velocity": 0.8818897637795275
          },
          {
            "duration": 0.22184662499999774,
            "durationTicks": 197,
            "midi": 77,
            "name": "F5",
            "ticks": 84993,
            "time": 95.712742125,
            "velocity": 0.6929133858267716
          },
          {
            "duration": 0.24774749999998846,
            "durationTicks": 220,
            "midi": 79,
            "name": "G5",
            "ticks": 85224,
            "time": 95.97287700000001,
            "velocity": 0.8818897637795275
          },
          {
            "duration": 0.2837834999999984,
            "durationTicks": 252,
            "midi": 82,
            "name": "A#5",
            "ticks": 85461,
            "time": 96.239768625,
            "velocity": 0.6929133858267716
          },
          {
            "duration": 0.2623871250000036,
            "durationTicks": 233,
            "midi": 79,
            "name": "G5",
            "ticks": 85703,
            "time": 96.512290875,
            "velocity": 0.8818897637795275
          },
          {
            "duration": 0.23198174999998855,
            "durationTicks": 206,
            "midi": 77,
            "name": "F5",
            "ticks": 85944,
            "time": 96.78368700000001,
            "velocity": 0.6062992125984252
          },
          {
            "duration": 0.2623871249999894,
            "durationTicks": 233,
            "midi": 74,
            "name": "D5",
            "ticks": 86173,
            "time": 97.04156962500001,
            "velocity": 0.6929133858267716
          },
          {
            "duration": 0.05405399999999361,
            "durationTicks": 48,
            "midi": 70,
            "name": "A#4",
            "ticks": 86625,
            "time": 97.550578125,
            "velocity": 0.6929133858267716
          },
          {
            "duration": 0.4583328749999964,
            "durationTicks": 407,
            "midi": 72,
            "name": "C5",
            "ticks": 86648,
            "time": 97.576479,
            "velocity": 0.7874015748031497
          },
          {
            "duration": 0.40090049999997746,
            "durationTicks": 356,
            "midi": 67,
            "name": "G4",
            "ticks": 87070,
            "time": 98.05170375000002,
            "velocity": 0.6062992125984252
          },
          {
            "duration": 1.1114853749999867,
            "durationTicks": 987,
            "midi": 70,
            "name": "A#4",
            "ticks": 87353,
            "time": 98.37039712500001,
            "velocity": 0.7874015748031497
          },
          {
            "duration": 0.12274762500000236,
            "durationTicks": 109,
            "midi": 74,
            "name": "D5",
            "ticks": 89697,
            "time": 101.010034125,
            "velocity": 0.6929133858267716
          },
          {
            "duration": 0.3175672500000104,
            "durationTicks": 282,
            "midi": 82,
            "name": "A#5",
            "ticks": 89766,
            "time": 101.08773674999999,
            "velocity": 0.7874015748031497
          },
          {
            "duration": 0.17680162499999597,
            "durationTicks": 157,
            "midi": 81,
            "name": "A5",
            "ticks": 90012,
            "time": 101.36476350000001,
            "velocity": 0.7874015748031497
          },
          {
            "duration": 2.0878357500000106,
            "durationTicks": 1854,
            "midi": 79,
            "name": "G5",
            "ticks": 90140,
            "time": 101.50890749999999,
            "velocity": 0.8818897637795275
          },
          {
            "duration": 0.07882875000001377,
            "durationTicks": 70,
            "midi": 73,
            "name": "C#5",
            "ticks": 117306,
            "time": 132.10121924999999,
            "velocity": 0.3543307086614173
          },
          {
            "duration": 0.24774750000000267,
            "durationTicks": 220,
            "midi": 74,
            "name": "D5",
            "ticks": 117338,
            "time": 132.13725525,
            "velocity": 0.6929133858267716
          },
          {
            "duration": 0.22747724999999264,
            "durationTicks": 202,
            "midi": 74,
            "name": "D5",
            "ticks": 117613,
            "time": 132.446939625,
            "velocity": 0.6062992125984252
          },
          {
            "duration": 0.15202687499999,
            "durationTicks": 135,
            "midi": 72,
            "name": "C5",
            "ticks": 117840,
            "time": 132.70257,
            "velocity": 0.5354330708661418
          },
          {
            "duration": 1.2105843749999963,
            "durationTicks": 1075,
            "midi": 74,
            "name": "D5",
            "ticks": 117980,
            "time": 132.8602275,
            "velocity": 0.7874015748031497
          },
          {
            "duration": 0.12499987500001453,
            "durationTicks": 111,
            "midi": 73,
            "name": "C#5",
            "ticks": 119199,
            "time": 134.232973875,
            "velocity": 0.28346456692913385
          },
          {
            "duration": 0.23085562500000378,
            "durationTicks": 205,
            "midi": 74,
            "name": "D5",
            "ticks": 119243,
            "time": 134.282523375,
            "velocity": 0.6062992125984252
          },
          {
            "duration": 0.24887362500001586,
            "durationTicks": 221,
            "midi": 74,
            "name": "D5",
            "ticks": 119509,
            "time": 134.582072625,
            "velocity": 0.5354330708661418
          },
          {
            "duration": 0.11824312500002065,
            "durationTicks": 105,
            "midi": 72,
            "name": "C5",
            "ticks": 119753,
            "time": 134.856847125,
            "velocity": 0.6062992125984252
          },
          {
            "duration": 0.4110356250000109,
            "durationTicks": 365,
            "midi": 75,
            "name": "D#5",
            "ticks": 119854,
            "time": 134.97058575,
            "velocity": 0.5354330708661418
          },
          {
            "duration": 0.2680177500000127,
            "durationTicks": 238,
            "midi": 74,
            "name": "D5",
            "ticks": 120242,
            "time": 135.40752225,
            "velocity": 0.6929133858267716
          },
          {
            "duration": 0.29391862500000343,
            "durationTicks": 261,
            "midi": 72,
            "name": "C5",
            "ticks": 120492,
            "time": 135.6890535,
            "velocity": 0.5354330708661418
          },
          {
            "duration": 0.31981949999999415,
            "durationTicks": 284,
            "midi": 70,
            "name": "A#4",
            "ticks": 120721,
            "time": 135.946936125,
            "velocity": 0.6929133858267716
          },
          {
            "duration": 1.2297285000000215,
            "durationTicks": 1092,
            "midi": 69,
            "name": "A4",
            "ticks": 120965,
            "time": 136.221710625,
            "velocity": 0.7874015748031497
          },
          {
            "duration": 0.4752247499999953,
            "durationTicks": 422,
            "midi": 70,
            "name": "A#4",
            "ticks": 122153,
            "time": 137.55954712500002,
            "velocity": 0.7874015748031497
          },
          {
            "duration": 0.29391862500000343,
            "durationTicks": 261,
            "midi": 72,
            "name": "C5",
            "ticks": 122619,
            "time": 138.084321375,
            "velocity": 0.6929133858267716
          },
          {
            "duration": 1.924547624999974,
            "durationTicks": 1709,
            "midi": 69,
            "name": "A4",
            "ticks": 122893,
            "time": 138.392879625,
            "velocity": 0.6929133858267716
          },
          {
            "duration": 0.09234225000000151,
            "durationTicks": 82,
            "midi": 73,
            "name": "C#5",
            "ticks": 125005,
            "time": 140.771255625,
            "velocity": 0.5354330708661418
          },
          {
            "duration": 0.2623871249999752,
            "durationTicks": 233,
            "midi": 74,
            "name": "D5",
            "ticks": 125043,
            "time": 140.81404837500003,
            "velocity": 0.6062992125984252
          },
          {
            "duration": 0.242116875000022,
            "durationTicks": 215,
            "midi": 67,
            "name": "G4",
            "ticks": 125286,
            "time": 141.08769675,
            "velocity": 0.6929133858267716
          },
          {
            "duration": 0.3243240000000185,
            "durationTicks": 288,
            "midi": 77,
            "name": "F5",
            "ticks": 125517,
            "time": 141.347831625,
            "velocity": 0.6929133858267716
          },
          {
            "duration": 0.6621614999999679,
            "durationTicks": 588,
            "midi": 74,
            "name": "D5",
            "ticks": 125763,
            "time": 141.62485837500003,
            "velocity": 0.7874015748031497
          },
          {
            "duration": 0.09684675000002585,
            "durationTicks": 86,
            "midi": 67,
            "name": "G4",
            "ticks": 126874,
            "time": 142.87598325,
            "velocity": 0.47244094488188976
          },
          {
            "duration": 0.2342339999999865,
            "durationTicks": 208,
            "midi": 74,
            "name": "D5",
            "ticks": 126929,
            "time": 142.937920125,
            "velocity": 0.7874015748031497
          },
          {
            "duration": 0.2409907500000088,
            "durationTicks": 214,
            "midi": 74,
            "name": "D5",
            "ticks": 127202,
            "time": 143.24535225,
            "velocity": 0.6929133858267716
          },
          {
            "duration": 0.096846749999969,
            "durationTicks": 86,
            "midi": 72,
            "name": "C5",
            "ticks": 127443,
            "time": 143.51674837500002,
            "velocity": 0.6062992125984252
          },
          {
            "duration": 0.39752212499999473,
            "durationTicks": 353,
            "midi": 75,
            "name": "D#5",
            "ticks": 127548,
            "time": 143.6349915,
            "velocity": 0.6929133858267716
          },
          {
            "duration": 0.26238712500003203,
            "durationTicks": 233,
            "midi": 74,
            "name": "D5",
            "ticks": 127928,
            "time": 144.062919,
            "velocity": 0.6929133858267716
          },
          {
            "duration": 0.29729699999998616,
            "durationTicks": 264,
            "midi": 72,
            "name": "C5",
            "ticks": 128166,
            "time": 144.33093675,
            "velocity": 0.6062992125984252
          },
          {
            "duration": 0.3018015000000105,
            "durationTicks": 268,
            "midi": 70,
            "name": "A#4",
            "ticks": 128397,
            "time": 144.59107162499998,
            "velocity": 0.6929133858267716
          },
          {
            "duration": 1.5112597499999936,
            "durationTicks": 1342,
            "midi": 69,
            "name": "A4",
            "ticks": 128625,
            "time": 144.847828125,
            "velocity": 0.8818897637795275
          },
          {
            "duration": 0.4042788749999886,
            "durationTicks": 359,
            "midi": 72,
            "name": "C5",
            "ticks": 130100,
            "time": 146.50886250000002,
            "velocity": 0.7874015748031497
          },
          {
            "duration": 0.12837824999999725,
            "durationTicks": 114,
            "midi": 71,
            "name": "B4",
            "ticks": 130406,
            "time": 146.85345675000002,
            "velocity": 0.6062992125984252
          },
          {
            "duration": 0.14639625000000933,
            "durationTicks": 130,
            "midi": 70,
            "name": "A#4",
            "ticks": 130484,
            "time": 146.9412945,
            "velocity": 0.5039370078740157
          },
          {
            "duration": 1.6745478750000018,
            "durationTicks": 1487,
            "midi": 69,
            "name": "A4",
            "ticks": 130553,
            "time": 147.018997125,
            "velocity": 0.7874015748031497
          },
          {
            "duration": 0.09234225000000151,
            "durationTicks": 82,
            "midi": 78,
            "name": "F#5",
            "ticks": 132683,
            "time": 149.417643375,
            "velocity": 0.4015748031496063
          },
          {
            "duration": 0.26463937499997314,
            "durationTicks": 235,
            "midi": 79,
            "name": "G5",
            "ticks": 132710,
            "time": 149.44804875000003,
            "velocity": 0.6929133858267716
          },
          {
            "duration": 0.23085562500000378,
            "durationTicks": 205,
            "midi": 72,
            "name": "C5",
            "ticks": 132975,
            "time": 149.746471875,
            "velocity": 0.6929133858267716
          },
          {
            "duration": 0.22635112499997945,
            "durationTicks": 201,
            "midi": 82,
            "name": "A#5",
            "ticks": 133189,
            "time": 149.987462625,
            "velocity": 0.6929133858267716
          },
          {
            "duration": 0.3569816250000031,
            "durationTicks": 317,
            "midi": 79,
            "name": "G5",
            "ticks": 133437,
            "time": 150.26674162499998,
            "velocity": 0.7874015748031497
          },
          {
            "duration": 0.862611749999985,
            "durationTicks": 766,
            "midi": 72,
            "name": "C5",
            "ticks": 133794,
            "time": 150.66876825,
            "velocity": 0.6062992125984252
          },
          {
            "duration": 0.08333324999998126,
            "durationTicks": 74,
            "midi": 78,
            "name": "F#5",
            "ticks": 134581,
            "time": 151.55502862500003,
            "velocity": 0.31496062992125984
          },
          {
            "duration": 0.2623871249999752,
            "durationTicks": 233,
            "midi": 79,
            "name": "G5",
            "ticks": 134627,
            "time": 151.60683037500002,
            "velocity": 0.8818897637795275
          },
          {
            "duration": 0.2736483750000218,
            "durationTicks": 243,
            "midi": 77,
            "name": "F5",
            "ticks": 134892,
            "time": 151.9052535,
            "velocity": 0.6929133858267716
          },
          {
            "duration": 0.2342339999999865,
            "durationTicks": 208,
            "midi": 75,
            "name": "D#5",
            "ticks": 135108,
            "time": 152.14849650000002,
            "velocity": 0.6062992125984252
          },
          {
            "duration": 0.28378350000002683,
            "durationTicks": 252,
            "midi": 74,
            "name": "D5",
            "ticks": 135327,
            "time": 152.39511787499998,
            "velocity": 0.8818897637795275
          },
          {
            "duration": 0.29279250000001866,
            "durationTicks": 260,
            "midi": 74,
            "name": "D5",
            "ticks": 135623,
            "time": 152.728450875,
            "velocity": 0.6929133858267716
          },
          {
            "duration": 0.24999975000000063,
            "durationTicks": 222,
            "midi": 75,
            "name": "D#5",
            "ticks": 135852,
            "time": 152.9863335,
            "velocity": 0.6062992125984252
          },
          {
            "duration": 0.25563037500000974,
            "durationTicks": 227,
            "midi": 77,
            "name": "F5",
            "ticks": 136093,
            "time": 153.257729625,
            "velocity": 0.7874015748031497
          },
          {
            "duration": 1.0529268750000256,
            "durationTicks": 935,
            "midi": 79,
            "name": "G5",
            "ticks": 136345,
            "time": 153.541513125,
            "velocity": 0.7874015748031497
          },
          {
            "duration": 0.406531125000015,
            "durationTicks": 361,
            "midi": 74,
            "name": "D5",
            "ticks": 137305,
            "time": 154.622593125,
            "velocity": 0.6929133858267716
          },
          {
            "duration": 0.33558524999997985,
            "durationTicks": 298,
            "midi": 77,
            "name": "F5",
            "ticks": 137689,
            "time": 155.05502512500001,
            "velocity": 0.7874015748031497
          },
          {
            "duration": 1.5585570000000075,
            "durationTicks": 1384,
            "midi": 75,
            "name": "D#5",
            "ticks": 138008,
            "time": 155.414259,
            "velocity": 0.7874015748031497
          },
          {
            "duration": 0.2342339999999865,
            "durationTicks": 208,
            "midi": 70,
            "name": "A#4",
            "ticks": 139690,
            "time": 157.30840125,
            "velocity": 0.7874015748031497
          },
          {
            "duration": 0.252252000000027,
            "durationTicks": 224,
            "midi": 72,
            "name": "C5",
            "ticks": 139930,
            "time": 157.57867124999999,
            "velocity": 0.6929133858267716
          },
          {
            "duration": 0.11261249999998313,
            "durationTicks": 100,
            "midi": 73,
            "name": "C#5",
            "ticks": 140115,
            "time": 157.787004375,
            "velocity": 0.16535433070866143
          },
          {
            "duration": 0.22747725000002106,
            "durationTicks": 202,
            "midi": 74,
            "name": "D5",
            "ticks": 140175,
            "time": 157.854571875,
            "velocity": 0.6062992125984252
          },
          {
            "duration": 0.26463937500000156,
            "durationTicks": 235,
            "midi": 74,
            "name": "D5",
            "ticks": 140438,
            "time": 158.15074275,
            "velocity": 0.8818897637795275
          },
          {
            "duration": 0.26013487500000565,
            "durationTicks": 231,
            "midi": 72,
            "name": "C5",
            "ticks": 140656,
            "time": 158.396238,
            "velocity": 0.5354330708661418
          },
          {
            "duration": 0.11148637499996994,
            "durationTicks": 99,
            "midi": 70,
            "name": "A#4",
            "ticks": 140885,
            "time": 158.65412062500002,
            "velocity": 0.6062992125984252
          },
          {
            "duration": 0.6385128750000035,
            "durationTicks": 567,
            "midi": 74,
            "name": "D5",
            "ticks": 141001,
            "time": 158.784751125,
            "velocity": 0.7874015748031497
          },
          {
            "duration": 0.2556303749999813,
            "durationTicks": 227,
            "midi": 70,
            "name": "A#4",
            "ticks": 141601,
            "time": 159.46042612500003,
            "velocity": 0.6929133858267716
          },
          {
            "duration": 0.25563037500000974,
            "durationTicks": 227,
            "midi": 72,
            "name": "C5",
            "ticks": 141851,
            "time": 159.741957375,
            "velocity": 0.6062992125984252
          },
          {
            "duration": 0.25563037500000974,
            "durationTicks": 227,
            "midi": 74,
            "name": "D5",
            "ticks": 142099,
            "time": 160.021236375,
            "velocity": 0.7874015748031497
          },
          {
            "duration": 0.27139612499999544,
            "durationTicks": 241,
            "midi": 82,
            "name": "A#5",
            "ticks": 142347,
            "time": 160.300515375,
            "velocity": 0.7874015748031497
          },
          {
            "duration": 0.28603574999999637,
            "durationTicks": 254,
            "midi": 81,
            "name": "A5",
            "ticks": 142586,
            "time": 160.56965925,
            "velocity": 0.8818897637795275
          },
          {
            "duration": 0.1249998749999861,
            "durationTicks": 111,
            "midi": 79,
            "name": "G5",
            "ticks": 142807,
            "time": 160.81853287500002,
            "velocity": 0.7874015748031497
          },
          {
            "duration": 0.13738724999998908,
            "durationTicks": 122,
            "midi": 74,
            "name": "D5",
            "ticks": 142926,
            "time": 160.95254175,
            "velocity": 0.7874015748031497
          },
          {
            "duration": 0.5056301250000104,
            "durationTicks": 449,
            "midi": 74,
            "name": "D5",
            "ticks": 143063,
            "time": 161.106820875,
            "velocity": 0.5354330708661418
          },
          {
            "duration": 0.2725222499999802,
            "durationTicks": 242,
            "midi": 70,
            "name": "A#4",
            "ticks": 143529,
            "time": 161.63159512500002,
            "velocity": 0.6929133858267716
          },
          {
            "duration": 0.2578826250000077,
            "durationTicks": 229,
            "midi": 72,
            "name": "C5",
            "ticks": 143754,
            "time": 161.88497325,
            "velocity": 0.6062992125984252
          },
          {
            "duration": 0.12049537499999019,
            "durationTicks": 107,
            "midi": 73,
            "name": "C#5",
            "ticks": 143962,
            "time": 162.11920725000002,
            "velocity": 0.5354330708661418
          },
          {
            "duration": 0.39752212499999473,
            "durationTicks": 353,
            "midi": 74,
            "name": "D5",
            "ticks": 144031,
            "time": 162.19690987500002,
            "velocity": 0.6062992125984252
          },
          {
            "duration": 0.32657625000001644,
            "durationTicks": 290,
            "midi": 70,
            "name": "A#4",
            "ticks": 144409,
            "time": 162.622585125,
            "velocity": 0.7874015748031497
          },
          {
            "duration": 0.25337812499998336,
            "durationTicks": 225,
            "midi": 72,
            "name": "C5",
            "ticks": 144730,
            "time": 162.98407125,
            "velocity": 0.6929133858267716
          },
          {
            "duration": 0.36148612499997057,
            "durationTicks": 321,
            "midi": 74,
            "name": "D5",
            "ticks": 144997,
            "time": 163.28474662500003,
            "velocity": 0.7874015748031497
          },
          {
            "duration": 0.34572037499998487,
            "durationTicks": 307,
            "midi": 77,
            "name": "F5",
            "ticks": 145356,
            "time": 163.6890255,
            "velocity": 0.7874015748031497
          },
          {
            "duration": 0.361486124999999,
            "durationTicks": 321,
            "midi": 75,
            "name": "D#5",
            "ticks": 145682,
            "time": 164.05614225,
            "velocity": 0.7874015748031497
          },
          {
            "duration": 0.87274687499999,
            "durationTicks": 775,
            "midi": 74,
            "name": "D5",
            "ticks": 145963,
            "time": 164.372583375,
            "velocity": 0.6929133858267716
          },
          {
            "duration": 0.030405374999986634,
            "durationTicks": 27,
            "midi": 80,
            "name": "G#5",
            "ticks": 147727,
            "time": 166.35906787500002,
            "velocity": 0.6929133858267716
          },
          {
            "duration": 0.4211707499999875,
            "durationTicks": 374,
            "midi": 81,
            "name": "A5",
            "ticks": 147731,
            "time": 166.36357237500002,
            "velocity": 0.8818897637795275
          },
          {
            "duration": 0.2882879999999943,
            "durationTicks": 256,
            "midi": 79,
            "name": "G5",
            "ticks": 148065,
            "time": 166.73969812500002,
            "velocity": 0.7874015748031497
          },
          {
            "duration": 0.23873850000001084,
            "durationTicks": 212,
            "midi": 74,
            "name": "D5",
            "ticks": 148321,
            "time": 167.027986125,
            "velocity": 0.6929133858267716
          },
          {
            "duration": 0.19144124999996848,
            "durationTicks": 170,
            "midi": 70,
            "name": "A#4",
            "ticks": 148584,
            "time": 167.324157,
            "velocity": 0.6929133858267716
          },
          {
            "duration": 0.06193687500001488,
            "durationTicks": 55,
            "midi": 80,
            "name": "G#5",
            "ticks": 148777,
            "time": 167.541499125,
            "velocity": 0.25984251968503935
          },
          {
            "duration": 0.23986462500002403,
            "durationTicks": 213,
            "midi": 81,
            "name": "A5",
            "ticks": 148806,
            "time": 167.57415675,
            "velocity": 0.7874015748031497
          },
          {
            "duration": 0.16328812500000822,
            "durationTicks": 145,
            "midi": 81,
            "name": "A5",
            "ticks": 149055,
            "time": 167.854561875,
            "velocity": 0.8818897637795275
          },
          {
            "duration": 0.26463937499997314,
            "durationTicks": 235,
            "midi": 79,
            "name": "G5",
            "ticks": 149178,
            "time": 167.99307525000003,
            "velocity": 0.7874015748031497
          },
          {
            "duration": 0.3828824999999938,
            "durationTicks": 340,
            "midi": 77,
            "name": "F5",
            "ticks": 149670,
            "time": 168.54712875,
            "velocity": 0.7874015748031497
          },
          {
            "duration": 0.3119366249999871,
            "durationTicks": 277,
            "midi": 75,
            "name": "D#5",
            "ticks": 149985,
            "time": 168.90185812500002,
            "velocity": 0.6062992125984252
          },
          {
            "duration": 0.21508987500001808,
            "durationTicks": 191,
            "midi": 70,
            "name": "A#4",
            "ticks": 150262,
            "time": 169.21379475,
            "velocity": 0.6929133858267716
          },
          {
            "duration": 0.22747724999999264,
            "durationTicks": 202,
            "midi": 67,
            "name": "G4",
            "ticks": 150484,
            "time": 169.4637945,
            "velocity": 0.7874015748031497
          },
          {
            "duration": 0.077702625000029,
            "durationTicks": 69,
            "midi": 75,
            "name": "D#5",
            "ticks": 150690,
            "time": 169.69577625,
            "velocity": 0.4015748031496063
          },
          {
            "duration": 0.2240988750000099,
            "durationTicks": 199,
            "midi": 77,
            "name": "F5",
            "ticks": 150724,
            "time": 169.7340645,
            "velocity": 0.6929133858267716
          },
          {
            "duration": 0.1700448750000021,
            "durationTicks": 151,
            "midi": 77,
            "name": "F5",
            "ticks": 150982,
            "time": 170.02460475,
            "velocity": 0.7874015748031497
          },
          {
            "duration": 0.27702675000000454,
            "durationTicks": 246,
            "midi": 75,
            "name": "D#5",
            "ticks": 151095,
            "time": 170.151856875,
            "velocity": 0.6062992125984252
          },
          {
            "duration": 0.3997743749999927,
            "durationTicks": 355,
            "midi": 81,
            "name": "A5",
            "ticks": 151595,
            "time": 170.71491937500002,
            "velocity": 0.8818897637795275
          },
          {
            "duration": 0.2837834999999984,
            "durationTicks": 252,
            "midi": 79,
            "name": "G5",
            "ticks": 151917,
            "time": 171.077531625,
            "velocity": 0.8818897637795275
          },
          {
            "duration": 0.27139612499999544,
            "durationTicks": 241,
            "midi": 74,
            "name": "D5",
            "ticks": 152152,
            "time": 171.342171,
            "velocity": 0.6929133858267716
          },
          {
            "duration": 0.27139612500002386,
            "durationTicks": 241,
            "midi": 70,
            "name": "A#4",
            "ticks": 152400,
            "time": 171.62145,
            "velocity": 0.6929133858267716
          },
          {
            "duration": 0.32432399999996164,
            "durationTicks": 288,
            "midi": 69,
            "name": "A4",
            "ticks": 152641,
            "time": 171.89284612500003,
            "velocity": 0.7874015748031497
          },
          {
            "duration": 0.3051798749999932,
            "durationTicks": 271,
            "midi": 67,
            "name": "G4",
            "ticks": 152891,
            "time": 172.174377375,
            "velocity": 0.7874015748031497
          },
          {
            "duration": 0.25225199999997017,
            "durationTicks": 224,
            "midi": 70,
            "name": "A#4",
            "ticks": 153118,
            "time": 172.43000775000002,
            "velocity": 0.6929133858267716
          },
          {
            "duration": 0.19819799999999077,
            "durationTicks": 176,
            "midi": 74,
            "name": "D5",
            "ticks": 153376,
            "time": 172.720548,
            "velocity": 0.6929133858267716
          },
          {
            "duration": 0.44481937499998025,
            "durationTicks": 395,
            "midi": 77,
            "name": "F5",
            "ticks": 153586,
            "time": 172.95703425000002,
            "velocity": 0.6062992125984252
          },
          {
            "duration": 0.021396374999994805,
            "durationTicks": 19,
            "midi": 76,
            "name": "E5",
            "ticks": 153590,
            "time": 172.96153875000002,
            "velocity": 0.7874015748031497
          },
          {
            "duration": 0.3445942500000285,
            "durationTicks": 306,
            "midi": 75,
            "name": "D#5",
            "ticks": 154000,
            "time": 173.42325,
            "velocity": 0.7874015748031497
          },
          {
            "duration": 0.3761257499999999,
            "durationTicks": 334,
            "midi": 74,
            "name": "D5",
            "ticks": 154363,
            "time": 173.832033375,
            "velocity": 0.7874015748031497
          },
          {
            "duration": 0.40878337500001294,
            "durationTicks": 363,
            "midi": 72,
            "name": "C5",
            "ticks": 154735,
            "time": 174.250951875,
            "velocity": 0.6929133858267716
          },
          {
            "duration": 0.12950437499998202,
            "durationTicks": 115,
            "midi": 70,
            "name": "A#4",
            "ticks": 155075,
            "time": 174.63383437500002,
            "velocity": 0.6929133858267716
          },
          {
            "duration": 0.1306304999999952,
            "durationTicks": 116,
            "midi": 72,
            "name": "C5",
            "ticks": 155188,
            "time": 174.7610865,
            "velocity": 0.6062992125984252
          },
          {
            "duration": 0.14189175000001342,
            "durationTicks": 126,
            "midi": 70,
            "name": "A#4",
            "ticks": 155291,
            "time": 174.877077375,
            "velocity": 0.6929133858267716
          },
          {
            "duration": 0.17905387499999392,
            "durationTicks": 159,
            "midi": 72,
            "name": "C5",
            "ticks": 155407,
            "time": 175.00770787500002,
            "velocity": 0.6062992125984252
          },
          {
            "duration": 2.1092321250000055,
            "durationTicks": 1873,
            "midi": 74,
            "name": "D5",
            "ticks": 155533,
            "time": 175.149599625,
            "velocity": 0.6929133858267716
          },
          {
            "duration": 1.6272506250000163,
            "durationTicks": 1445,
            "midi": 77,
            "name": "F5",
            "ticks": 157933,
            "time": 177.852299625,
            "velocity": 0.7874015748031497
          },
          {
            "duration": 0.1317566250000084,
            "durationTicks": 117,
            "midi": 79,
            "name": "G5",
            "ticks": 159608,
            "time": 179.738559,
            "velocity": 0.8818897637795275
          },
          {
            "duration": 0.15315300000003162,
            "durationTicks": 136,
            "midi": 82,
            "name": "A#5",
            "ticks": 159842,
            "time": 180.00207225,
            "velocity": 0.6929133858267716
          },
          {
            "duration": 0.10810799999998721,
            "durationTicks": 96,
            "midi": 77,
            "name": "F5",
            "ticks": 159981,
            "time": 180.158603625,
            "velocity": 0.6062992125984252
          },
          {
            "duration": 1.1238727500000039,
            "durationTicks": 998,
            "midi": 79,
            "name": "G5",
            "ticks": 160207,
            "time": 180.413107875,
            "velocity": 0.8818897637795275
          },
          {
            "duration": 0.07432424999998943,
            "durationTicks": 66,
            "midi": 73,
            "name": "C#5",
            "ticks": 161490,
            "time": 181.85792625000002,
            "velocity": 0.1732283464566929
          },
          {
            "duration": 0.22184662499998353,
            "durationTicks": 197,
            "midi": 74,
            "name": "D5",
            "ticks": 161535,
            "time": 181.90860187500002,
            "velocity": 0.6929133858267716
          },
          {
            "duration": 0.1441440000000398,
            "durationTicks": 128,
            "midi": 77,
            "name": "F5",
            "ticks": 161787,
            "time": 182.192385375,
            "velocity": 0.6929133858267716
          },
          {
            "duration": 0.11824312499999223,
            "durationTicks": 105,
            "midi": 72,
            "name": "C5",
            "ticks": 161896,
            "time": 182.31513300000003,
            "velocity": 0.47244094488188976
          },
          {
            "duration": 1.1306294999999977,
            "durationTicks": 1004,
            "midi": 74,
            "name": "D5",
            "ticks": 162116,
            "time": 182.5628805,
            "velocity": 0.6929133858267716
          },
          {
            "duration": 0.12274762499998815,
            "durationTicks": 109,
            "midi": 69,
            "name": "A4",
            "ticks": 163435,
            "time": 184.048239375,
            "velocity": 0.4015748031496063
          },
          {
            "duration": 0.21283762499996328,
            "durationTicks": 189,
            "midi": 70,
            "name": "A#4",
            "ticks": 163475,
            "time": 184.09328437500002,
            "velocity": 0.7874015748031497
          },
          {
            "duration": 0.23873850000001084,
            "durationTicks": 212,
            "midi": 70,
            "name": "A#4",
            "ticks": 163719,
            "time": 184.368058875,
            "velocity": 0.6062992125984252
          },
          {
            "duration": 0.2815312500000289,
            "durationTicks": 250,
            "midi": 67,
            "name": "G4",
            "ticks": 163947,
            "time": 184.624815375,
            "velocity": 0.7874015748031497
          },
          {
            "duration": 0.4988733750000449,
            "durationTicks": 443,
            "midi": 70,
            "name": "A#4",
            "ticks": 164174,
            "time": 184.88044574999998,
            "velocity": 0.7874015748031497
          },
          {
            "duration": 0.1463962499999809,
            "durationTicks": 130,
            "midi": 67,
            "name": "G4",
            "ticks": 164636,
            "time": 185.40071550000002,
            "velocity": 0.7874015748031497
          },
          {
            "duration": 0.11599087499999428,
            "durationTicks": 103,
            "midi": 77,
            "name": "F5",
            "ticks": 164773,
            "time": 185.554994625,
            "velocity": 0.6929133858267716
          },
          {
            "duration": 2.2792770000000075,
            "durationTicks": 2024,
            "midi": 74,
            "name": "D5",
            "ticks": 165008,
            "time": 185.819634,
            "velocity": 0.6929133858267716
          },
          {
            "duration": 0.05743237499999054,
            "durationTicks": 51,
            "midi": 78,
            "name": "F#5",
            "ticks": 167280,
            "time": 188.37819000000002,
            "velocity": 0.31496062992125984
          },
          {
            "duration": 0.13513499999999112,
            "durationTicks": 120,
            "midi": 79,
            "name": "G5",
            "ticks": 167307,
            "time": 188.408595375,
            "velocity": 0.8818897637795275
          },
          {
            "duration": 0.19369350000002328,
            "durationTicks": 172,
            "midi": 82,
            "name": "A#5",
            "ticks": 167543,
            "time": 188.674360875,
            "velocity": 0.6062992125984252
          },
          {
            "duration": 0.12725212499998406,
            "durationTicks": 113,
            "midi": 77,
            "name": "F5",
            "ticks": 167676,
            "time": 188.8241355,
            "velocity": 0.6062992125984252
          },
          {
            "duration": 1.104728625000007,
            "durationTicks": 981,
            "midi": 79,
            "name": "G5",
            "ticks": 167891,
            "time": 189.066252375,
            "velocity": 0.7874015748031497
          },
          {
            "duration": 0.07094587499997829,
            "durationTicks": 63,
            "midi": 78,
            "name": "F#5",
            "ticks": 169166,
            "time": 190.50206175000002,
            "velocity": 0.4015748031496063
          },
          {
            "duration": 0.19819799999999077,
            "durationTicks": 176,
            "midi": 79,
            "name": "G5",
            "ticks": 169189,
            "time": 190.52796262500001,
            "velocity": 0.7874015748031497
          },
          {
            "duration": 0.19594575000002123,
            "durationTicks": 174,
            "midi": 77,
            "name": "F5",
            "ticks": 169439,
            "time": 190.809493875,
            "velocity": 0.6062992125984252
          },
          {
            "duration": 0.14864849999997887,
            "durationTicks": 132,
            "midi": 79,
            "name": "G5",
            "ticks": 169569,
            "time": 190.95589012500002,
            "velocity": 0.7874015748031497
          },
          {
            "duration": 1.1869357500000035,
            "durationTicks": 1054,
            "midi": 74,
            "name": "D5",
            "ticks": 169809,
            "time": 191.226160125,
            "velocity": 0.6929133858267716
          },
          {
            "duration": 0.09009000000000356,
            "durationTicks": 80,
            "midi": 79,
            "name": "G5",
            "ticks": 171054,
            "time": 192.62818575,
            "velocity": 0.3543307086614173
          },
          {
            "duration": 0.05180175000000986,
            "durationTicks": 46,
            "midi": 81,
            "name": "A5",
            "ticks": 171094,
            "time": 192.67323075000002,
            "velocity": 0.7874015748031497
          },
          {
            "duration": 0.19369349999999486,
            "durationTicks": 172,
            "midi": 82,
            "name": "A#5",
            "ticks": 171113,
            "time": 192.694627125,
            "velocity": 0.7874015748031497
          },
          {
            "duration": 0.2747745000000066,
            "durationTicks": 244,
            "midi": 82,
            "name": "A#5",
            "ticks": 171356,
            "time": 192.9682755,
            "velocity": 0.6062992125984252
          },
          {
            "duration": 0.3175672500000246,
            "durationTicks": 282,
            "midi": 79,
            "name": "G5",
            "ticks": 171589,
            "time": 193.230662625,
            "velocity": 0.7874015748031497
          },
          {
            "duration": 0.274774500000035,
            "durationTicks": 244,
            "midi": 82,
            "name": "A#5",
            "ticks": 171839,
            "time": 193.51219387499998,
            "velocity": 0.7874015748031497
          },
          {
            "duration": 0.21508987500001808,
            "durationTicks": 191,
            "midi": 70,
            "name": "A#4",
            "ticks": 172100,
            "time": 193.8061125,
            "velocity": 0.6062992125984252
          },
          {
            "duration": 0.2691438749999975,
            "durationTicks": 239,
            "midi": 72,
            "name": "C5",
            "ticks": 172356,
            "time": 194.0944005,
            "velocity": 0.47244094488188976
          },
          {
            "duration": 0.1801800000000071,
            "durationTicks": 160,
            "midi": 70,
            "name": "A#4",
            "ticks": 172599,
            "time": 194.368048875,
            "velocity": 0.6062992125984252
          },
          {
            "duration": 0.07770262500000058,
            "durationTicks": 69,
            "midi": 73,
            "name": "C#5",
            "ticks": 173034,
            "time": 194.85791325000002,
            "velocity": 0.7874015748031497
          },
          {
            "duration": 0.31869337499998096,
            "durationTicks": 283,
            "midi": 74,
            "name": "D5",
            "ticks": 173070,
            "time": 194.89845375000002,
            "velocity": 0.7874015748031497
          },
          {
            "duration": 0.4301797499999793,
            "durationTicks": 382,
            "midi": 77,
            "name": "F5",
            "ticks": 173418,
            "time": 195.29034525000003,
            "velocity": 0.7874015748031497
          },
          {
            "duration": 1.029278249999976,
            "durationTicks": 914,
            "midi": 74,
            "name": "D5",
            "ticks": 173788,
            "time": 195.70701150000002,
            "velocity": 0.8818897637795275
          },
          {
            "duration": 0.21508987499998966,
            "durationTicks": 191,
            "midi": 79,
            "name": "G5",
            "ticks": 174992,
            "time": 197.062866,
            "velocity": 0.8818897637795275
          },
          {
            "duration": 0.22184662500001195,
            "durationTicks": 197,
            "midi": 77,
            "name": "F5",
            "ticks": 175233,
            "time": 197.334262125,
            "velocity": 0.6929133858267716
          },
          {
            "duration": 0.24774749999997425,
            "durationTicks": 220,
            "midi": 79,
            "name": "G5",
            "ticks": 175464,
            "time": 197.59439700000001,
            "velocity": 0.8818897637795275
          },
          {
            "duration": 0.2837834999999984,
            "durationTicks": 252,
            "midi": 82,
            "name": "A#5",
            "ticks": 175701,
            "time": 197.86128862500001,
            "velocity": 0.6929133858267716
          },
          {
            "duration": 0.26238712500003203,
            "durationTicks": 233,
            "midi": 79,
            "name": "G5",
            "ticks": 175943,
            "time": 198.133810875,
            "velocity": 0.8818897637795275
          },
          {
            "duration": 0.23198174999998855,
            "durationTicks": 206,
            "midi": 77,
            "name": "F5",
            "ticks": 176184,
            "time": 198.40520700000002,
            "velocity": 0.6062992125984252
          },
          {
            "duration": 0.2623871250000036,
            "durationTicks": 233,
            "midi": 74,
            "name": "D5",
            "ticks": 176413,
            "time": 198.663089625,
            "velocity": 0.6929133858267716
          },
          {
            "duration": 0.05405400000000782,
            "durationTicks": 48,
            "midi": 70,
            "name": "A#4",
            "ticks": 176865,
            "time": 199.17209812500002,
            "velocity": 0.6929133858267716
          },
          {
            "duration": 0.4583328749999964,
            "durationTicks": 407,
            "midi": 72,
            "name": "C5",
            "ticks": 176888,
            "time": 199.197999,
            "velocity": 0.7874015748031497
          },
          {
            "duration": 0.4009005000000059,
            "durationTicks": 356,
            "midi": 67,
            "name": "G4",
            "ticks": 177310,
            "time": 199.67322375,
            "velocity": 0.6062992125984252
          },
          {
            "duration": 1.1114853750000009,
            "durationTicks": 987,
            "midi": 70,
            "name": "A#4",
            "ticks": 177583,
            "time": 199.980655875,
            "velocity": 0.7874015748031497
          },
          {
            "duration": 0.12274762500001657,
            "durationTicks": 109,
            "midi": 74,
            "name": "D5",
            "ticks": 179937,
            "time": 202.631554125,
            "velocity": 0.6929133858267716
          },
          {
            "duration": 0.3175672500000246,
            "durationTicks": 282,
            "midi": 82,
            "name": "A#5",
            "ticks": 180006,
            "time": 202.70925675,
            "velocity": 0.7874015748031497
          },
          {
            "duration": 0.1768016250000244,
            "durationTicks": 157,
            "midi": 81,
            "name": "A5",
            "ticks": 180252,
            "time": 202.98628349999998,
            "velocity": 0.7874015748031497
          },
          {
            "duration": 1.171169999999961,
            "durationTicks": 1040,
            "midi": 79,
            "name": "G5",
            "ticks": 180380,
            "time": 203.13042750000002,
            "velocity": 0.8818897637795275
          },
          {
            "duration": 0.13963950000001546,
            "durationTicks": 124,
            "midi": 74,
            "name": "D5",
            "ticks": 182609,
            "time": 205.640560125,
            "velocity": 0.6929133858267716
          },
          {
            "duration": 0.19819799999999077,
            "durationTicks": 176,
            "midi": 82,
            "name": "A#5",
            "ticks": 182679,
            "time": 205.71938887500002,
            "velocity": 0.6929133858267716
          },
          {
            "duration": 0.17454937500002643,
            "durationTicks": 155,
            "midi": 82,
            "name": "A#5",
            "ticks": 182912,
            "time": 205.981776,
            "velocity": 0.6929133858267716
          },
          {
            "duration": 0.11486475000000951,
            "durationTicks": 102,
            "midi": 81,
            "name": "A5",
            "ticks": 183036,
            "time": 206.1214155,
            "velocity": 0.8818897637795275
          },
          {
            "duration": 1.3975211249999688,
            "durationTicks": 1241,
            "midi": 79,
            "name": "G5",
            "ticks": 183241,
            "time": 206.35227112500002,
            "velocity": 0.8818897637795275
          },
          {
            "duration": 0.19819799999999077,
            "durationTicks": 176,
            "midi": 79,
            "name": "G5",
            "ticks": 184598,
            "time": 207.88042275,
            "velocity": 0.8818897637795275
          },
          {
            "duration": 0.19369350000002328,
            "durationTicks": 172,
            "midi": 77,
            "name": "F5",
            "ticks": 184827,
            "time": 208.138305375,
            "velocity": 0.6929133858267716
          },
          {
            "duration": 0.1306304999999952,
            "durationTicks": 116,
            "midi": 79,
            "name": "G5",
            "ticks": 184957,
            "time": 208.28470162500003,
            "velocity": 0.8818897637795275
          },
          {
            "duration": 0.7567559999999958,
            "durationTicks": 672,
            "midi": 74,
            "name": "D5",
            "ticks": 185186,
            "time": 208.54258425,
            "velocity": 0.7874015748031497
          },
          {
            "duration": 0.08783774999997718,
            "durationTicks": 78,
            "midi": 81,
            "name": "A5",
            "ticks": 186442,
            "time": 209.95699725000003,
            "velocity": 0.6062992125984252
          },
          {
            "duration": 0.2128376249999917,
            "durationTicks": 189,
            "midi": 82,
            "name": "A#5",
            "ticks": 186476,
            "time": 209.99528550000002,
            "velocity": 0.7874015748031497
          },
          {
            "duration": 0.219594375000014,
            "durationTicks": 195,
            "midi": 82,
            "name": "A#5",
            "ticks": 186723,
            "time": 210.273438375,
            "velocity": 0.6929133858267716
          },
          {
            "duration": 0.18355837499998984,
            "durationTicks": 163,
            "midi": 79,
            "name": "G5",
            "ticks": 186944,
            "time": 210.522312,
            "velocity": 0.7874015748031497
          },
          {
            "duration": 0.11373862500002474,
            "durationTicks": 101,
            "midi": 82,
            "name": "A#5",
            "ticks": 187114,
            "time": 210.71375325,
            "velocity": 0.4015748031496063
          },
          {
            "duration": 0.08220712500002492,
            "durationTicks": 73,
            "midi": 84,
            "name": "C6",
            "ticks": 187175,
            "time": 210.782446875,
            "velocity": 0.5039370078740157
          },
          {
            "duration": 0.4054050000000018,
            "durationTicks": 360,
            "midi": 85,
            "name": "C#6",
            "ticks": 187189,
            "time": 210.798212625,
            "velocity": 0.6929133858267716
          },
          {
            "duration": 0.4054050000000018,
            "durationTicks": 360,
            "midi": 85,
            "name": "C#6",
            "ticks": 187189,
            "time": 210.798212625,
            "velocity": 0.7874015748031497
          },
          {
            "duration": 0.39076537500000086,
            "durationTicks": 347,
            "midi": 84,
            "name": "C6",
            "ticks": 187536,
            "time": 211.188978,
            "velocity": 0.7874015748031497
          },
          {
            "duration": 0.3885131250000029,
            "durationTicks": 345,
            "midi": 82,
            "name": "A#5",
            "ticks": 187855,
            "time": 211.548211875,
            "velocity": 0.6929133858267716
          },
          {
            "duration": 0.9054044999999746,
            "durationTicks": 804,
            "midi": 84,
            "name": "C6",
            "ticks": 188150,
            "time": 211.88041875000002,
            "velocity": 0.7874015748031497
          },
          {
            "duration": 0.16328812500000822,
            "durationTicks": 145,
            "midi": 82,
            "name": "A#5",
            "ticks": 188918,
            "time": 212.74528275,
            "velocity": 0.5354330708661418
          },
          {
            "duration": 0.11599087499999428,
            "durationTicks": 103,
            "midi": 84,
            "name": "C6",
            "ticks": 189123,
            "time": 212.97613837500003,
            "velocity": 0.7874015748031497
          },
          {
            "duration": 0.18243224999997665,
            "durationTicks": 162,
            "midi": 85,
            "name": "C#6",
            "ticks": 189180,
            "time": 213.04032750000002,
            "velocity": 0.7874015748031497
          },
          {
            "duration": 0.11824312499999223,
            "durationTicks": 105,
            "midi": 84,
            "name": "C6",
            "ticks": 189394,
            "time": 213.28131825,
            "velocity": 0.6062992125984252
          },
          {
            "duration": 0.5889633749999916,
            "durationTicks": 523,
            "midi": 82,
            "name": "A#5",
            "ticks": 189527,
            "time": 213.43109287500002,
            "velocity": 0.6062992125984252
          },
          {
            "duration": 0.07094587499997829,
            "durationTicks": 63,
            "midi": 81,
            "name": "A5",
            "ticks": 190316,
            "time": 214.31960550000002,
            "velocity": 0.7874015748031497
          },
          {
            "duration": 0.2342339999999865,
            "durationTicks": 208,
            "midi": 82,
            "name": "A#5",
            "ticks": 190325,
            "time": 214.32974062500003,
            "velocity": 0.6929133858267716
          },
          {
            "duration": 0.19932412500003238,
            "durationTicks": 177,
            "midi": 82,
            "name": "A#5",
            "ticks": 190589,
            "time": 214.62703762499999,
            "velocity": 0.6929133858267716
          },
          {
            "duration": 0.13513499999999112,
            "durationTicks": 120,
            "midi": 81,
            "name": "A5",
            "ticks": 190717,
            "time": 214.77118162500003,
            "velocity": 0.8818897637795275
          },
          {
            "duration": 1.0270260000000349,
            "durationTicks": 912,
            "midi": 79,
            "name": "G5",
            "ticks": 190945,
            "time": 215.027938125,
            "velocity": 0.8818897637795275
          },
          {
            "duration": 0.21959437499998558,
            "durationTicks": 195,
            "midi": 79,
            "name": "G5",
            "ticks": 192242,
            "time": 216.48852225000002,
            "velocity": 0.7874015748031497
          },
          {
            "duration": 0.16554037500000618,
            "durationTicks": 147,
            "midi": 77,
            "name": "F5",
            "ticks": 192480,
            "time": 216.75654,
            "velocity": 0.6929133858267716
          },
          {
            "duration": 0.12837824999999725,
            "durationTicks": 114,
            "midi": 79,
            "name": "G5",
            "ticks": 192626,
            "time": 216.92095425000002,
            "velocity": 0.7874015748031497
          },
          {
            "duration": 1.0810800000000143,
            "durationTicks": 960,
            "midi": 74,
            "name": "D5",
            "ticks": 192855,
            "time": 217.178836875,
            "velocity": 0.7874015748031497
          },
          {
            "duration": 0.2454952499999763,
            "durationTicks": 218,
            "midi": 82,
            "name": "A#5",
            "ticks": 194134,
            "time": 218.61915075000002,
            "velocity": 0.7874015748031497
          },
          {
            "duration": 0.2578826250000077,
            "durationTicks": 229,
            "midi": 82,
            "name": "A#5",
            "ticks": 194407,
            "time": 218.926582875,
            "velocity": 0.6062992125984252
          },
          {
            "duration": 0.3119366250000155,
            "durationTicks": 277,
            "midi": 79,
            "name": "G5",
            "ticks": 194642,
            "time": 219.19122225,
            "velocity": 0.7874015748031497
          },
          {
            "duration": 0.24662137499996106,
            "durationTicks": 219,
            "midi": 82,
            "name": "A#5",
            "ticks": 194898,
            "time": 219.47951025000003,
            "velocity": 0.7874015748031497
          },
          {
            "duration": 0.21283762500002013,
            "durationTicks": 189,
            "midi": 70,
            "name": "A#4",
            "ticks": 195157,
            "time": 219.771176625,
            "velocity": 0.6929133858267716
          },
          {
            "duration": 0.27026999999998225,
            "durationTicks": 240,
            "midi": 72,
            "name": "C5",
            "ticks": 195402,
            "time": 220.04707725,
            "velocity": 0.6062992125984252
          },
          {
            "duration": 0.2466213750000179,
            "durationTicks": 219,
            "midi": 70,
            "name": "A#4",
            "ticks": 195627,
            "time": 220.30045537499998,
            "velocity": 0.5354330708661418
          },
          {
            "duration": 0.0822071249999965,
            "durationTicks": 73,
            "midi": 73,
            "name": "C#5",
            "ticks": 196060,
            "time": 220.7880675,
            "velocity": 0.6929133858267716
          },
          {
            "duration": 0.3378374999999778,
            "durationTicks": 300,
            "midi": 74,
            "name": "D5",
            "ticks": 196100,
            "time": 220.83311250000003,
            "velocity": 0.7874015748031497
          },
          {
            "duration": 0.46846800000000144,
            "durationTicks": 416,
            "midi": 77,
            "name": "F5",
            "ticks": 196444,
            "time": 221.22049950000002,
            "velocity": 0.7874015748031497
          },
          {
            "duration": 1.021395374999969,
            "durationTicks": 907,
            "midi": 74,
            "name": "D5",
            "ticks": 196805,
            "time": 221.62703062500003,
            "velocity": 0.8818897637795275
          },
          {
            "duration": 0.023648624999992762,
            "durationTicks": 21,
            "midi": 78,
            "name": "F#5",
            "ticks": 198034,
            "time": 223.01103825,
            "velocity": 0.5354330708661418
          },
          {
            "duration": 0.2578826250000077,
            "durationTicks": 229,
            "midi": 79,
            "name": "G5",
            "ticks": 198042,
            "time": 223.02004725,
            "velocity": 0.8818897637795275
          },
          {
            "duration": 0.3119366250000155,
            "durationTicks": 277,
            "midi": 77,
            "name": "F5",
            "ticks": 198294,
            "time": 223.30383075,
            "velocity": 0.6062992125984252
          },
          {
            "duration": 0.2578826250000077,
            "durationTicks": 229,
            "midi": 79,
            "name": "G5",
            "ticks": 198538,
            "time": 223.57860525,
            "velocity": 0.8818897637795275
          },
          {
            "duration": 0.29279249999999024,
            "durationTicks": 260,
            "midi": 82,
            "name": "A#5",
            "ticks": 198771,
            "time": 223.840992375,
            "velocity": 0.6929133858267716
          },
          {
            "duration": 0.25563037500000974,
            "durationTicks": 227,
            "midi": 79,
            "name": "G5",
            "ticks": 199021,
            "time": 224.122523625,
            "velocity": 0.7874015748031497
          },
          {
            "duration": 0.21508987499998966,
            "durationTicks": 191,
            "midi": 77,
            "name": "F5",
            "ticks": 199241,
            "time": 224.37027112500002,
            "velocity": 0.6062992125984252
          },
          {
            "duration": 0.1869367500000294,
            "durationTicks": 166,
            "midi": 74,
            "name": "D5",
            "ticks": 199470,
            "time": 224.62815375,
            "velocity": 0.7874015748031497
          },
          {
            "duration": 0.06869362500000875,
            "durationTicks": 61,
            "midi": 70,
            "name": "A#4",
            "ticks": 199949,
            "time": 225.167567625,
            "velocity": 0.5354330708661418
          },
          {
            "duration": 0.39752212499999473,
            "durationTicks": 353,
            "midi": 72,
            "name": "C5",
            "ticks": 199968,
            "time": 225.18896400000003,
            "velocity": 0.7874015748031497
          },
          {
            "duration": 0.2635132500000168,
            "durationTicks": 234,
            "midi": 67,
            "name": "G4",
            "ticks": 200400,
            "time": 225.67545,
            "velocity": 0.6929133858267716
          },
          {
            "duration": 1.1542781249999905,
            "durationTicks": 1025,
            "midi": 70,
            "name": "A#4",
            "ticks": 200619,
            "time": 225.922071375,
            "velocity": 0.7874015748031497
          },
          {
            "duration": 0.05968462500001692,
            "durationTicks": 53,
            "midi": 70,
            "name": "A#4",
            "ticks": 202979,
            "time": 228.579726375,
            "velocity": 0.6062992125984252
          },
          {
            "duration": 0.26463937499997314,
            "durationTicks": 235,
            "midi": 82,
            "name": "A#5",
            "ticks": 203074,
            "time": 228.68670825,
            "velocity": 0.8818897637795275
          },
          {
            "duration": 0.10135125000002176,
            "durationTicks": 90,
            "midi": 77,
            "name": "F5",
            "ticks": 203288,
            "time": 228.927699,
            "velocity": 0.7874015748031497
          },
          {
            "duration": 2.149772624999997,
            "durationTicks": 1909,
            "midi": 79,
            "name": "G5",
            "ticks": 203422,
            "time": 229.07859975000002,
            "velocity": 0.984251968503937
          }
        ]
      },
      {
        "channel": 9,
        "controlChanges": {
          "0": [
            {
              "number": 0,
              "ticks": 750,
              "time": 0.84459375,
              "value": 0
            }
          ],
          "6": [
            {
              "number": 6,
              "ticks": 820,
              "time": 0.9234225,
              "value": 0.015748031496062992
            }
          ],
          "7": [
            {
              "number": 7,
              "ticks": 780,
              "time": 0.8783775,
              "value": 0.7480314960629921
            }
          ],
          "10": [
            {
              "number": 10,
              "ticks": 780,
              "time": 0.8783775,
              "value": 0.5039370078740157
            }
          ],
          "32": [
            {
              "number": 32,
              "ticks": 760,
              "time": 0.855855,
              "value": 0
            }
          ],
          "38": [
            {
              "number": 38,
              "ticks": 810,
              "time": 0.91216125,
              "value": 0.015748031496062992
            }
          ],
          "91": [
            {
              "number": 91,
              "ticks": 780,
              "time": 0.8783775,
              "value": 0.9448818897637795
            }
          ],
          "93": [
            {
              "number": 93,
              "ticks": 780,
              "time": 0.8783775,
              "value": 0
            }
          ],
          "100": [
            {
              "number": 100,
              "ticks": 800,
              "time": 0.9009,
              "value": 0
            }
          ],
          "101": [
            {
              "number": 101,
              "ticks": 790,
              "time": 0.88963875,
              "value": 0
            }
          ]
        },
        "pitchBends": [],
        "instrument": {
          "family": "drums",
          "number": 0,
          "name": "standard kit"
        },
        "name": "",
        "notes": [
          {
            "duration": 0.01126125,
            "durationTicks": 10,
            "midi": 40,
            "name": "E2",
            "ticks": 3280,
            "time": 3.69369,
            "velocity": 0.15748031496062992
          },
          {
            "duration": 0.01126125,
            "durationTicks": 10,
            "midi": 40,
            "name": "E2",
            "ticks": 3320,
            "time": 3.738735,
            "velocity": 0.23622047244094488
          },
          {
            "duration": 0.01126125,
            "durationTicks": 10,
            "midi": 40,
            "name": "E2",
            "ticks": 3360,
            "time": 3.78378,
            "velocity": 0.5118110236220472
          },
          {
            "duration": 0.01126125,
            "durationTicks": 10,
            "midi": 40,
            "name": "E2",
            "ticks": 3440,
            "time": 3.87387,
            "velocity": 0.15748031496062992
          },
          {
            "duration": 0.01126125,
            "durationTicks": 10,
            "midi": 40,
            "name": "E2",
            "ticks": 3520,
            "time": 3.96396,
            "velocity": 0.28346456692913385
          },
          {
            "duration": 0.011261249999999556,
            "durationTicks": 10,
            "midi": 43,
            "name": "G2",
            "ticks": 3600,
            "time": 4.05405,
            "velocity": 0.3779527559055118
          },
          {
            "duration": 0.08783774999999938,
            "durationTicks": 78,
            "midi": 51,
            "name": "D#3",
            "ticks": 3840,
            "time": 4.32432,
            "velocity": 0.4015748031496063
          },
          {
            "duration": 0.10472962500000005,
            "durationTicks": 93,
            "midi": 51,
            "name": "D#3",
            "ticks": 4080,
            "time": 4.59459,
            "velocity": 0.5354330708661418
          },
          {
            "duration": 0.07770262500000058,
            "durationTicks": 69,
            "midi": 44,
            "name": "G#2",
            "ticks": 4080,
            "time": 4.59459,
            "velocity": 0.6929133858267716
          },
          {
            "duration": 0.09459450000000036,
            "durationTicks": 84,
            "midi": 51,
            "name": "D#3",
            "ticks": 4320,
            "time": 4.86486,
            "velocity": 0.31496062992125984
          },
          {
            "duration": 0.11824312500000023,
            "durationTicks": 105,
            "midi": 51,
            "name": "D#3",
            "ticks": 4560,
            "time": 5.13513,
            "velocity": 0.4015748031496063
          },
          {
            "duration": 0.07207199999999947,
            "durationTicks": 64,
            "midi": 44,
            "name": "G#2",
            "ticks": 4560,
            "time": 5.13513,
            "velocity": 0.8818897637795275
          },
          {
            "duration": 0.07319812499999934,
            "durationTicks": 65,
            "midi": 37,
            "name": "C#2",
            "ticks": 4560,
            "time": 5.13513,
            "velocity": 0.8818897637795275
          },
          {
            "duration": 0.10022512499999969,
            "durationTicks": 89,
            "midi": 51,
            "name": "D#3",
            "ticks": 4800,
            "time": 5.4054,
            "velocity": 0.3228346456692913
          },
          {
            "duration": 0.11036025000000027,
            "durationTicks": 98,
            "midi": 51,
            "name": "D#3",
            "ticks": 5040,
            "time": 5.67567,
            "velocity": 0.47244094488188976
          },
          {
            "duration": 0.06981974999999974,
            "durationTicks": 62,
            "midi": 44,
            "name": "G#2",
            "ticks": 5040,
            "time": 5.67567,
            "velocity": 0.6929133858267716
          },
          {
            "duration": 0.09009,
            "durationTicks": 80,
            "midi": 51,
            "name": "D#3",
            "ticks": 5280,
            "time": 5.94594,
            "velocity": 0.2992125984251969
          },
          {
            "duration": 0.11036025000000027,
            "durationTicks": 98,
            "midi": 51,
            "name": "D#3",
            "ticks": 5520,
            "time": 6.21621,
            "velocity": 0.47244094488188976
          },
          {
            "duration": 0.06981974999999974,
            "durationTicks": 62,
            "midi": 44,
            "name": "G#2",
            "ticks": 5520,
            "time": 6.21621,
            "velocity": 0.8818897637795275
          },
          {
            "duration": 0.06981974999999974,
            "durationTicks": 62,
            "midi": 37,
            "name": "C#2",
            "ticks": 5520,
            "time": 6.21621,
            "velocity": 0.8818897637795275
          },
          {
            "duration": 0.09009,
            "durationTicks": 80,
            "midi": 51,
            "name": "D#3",
            "ticks": 5760,
            "time": 6.48648,
            "velocity": 0.2992125984251969
          },
          {
            "duration": 0.10247737500000031,
            "durationTicks": 91,
            "midi": 51,
            "name": "D#3",
            "ticks": 6000,
            "time": 6.75675,
            "velocity": 0.3543307086614173
          },
          {
            "duration": 0.07770262500000058,
            "durationTicks": 69,
            "midi": 44,
            "name": "G#2",
            "ticks": 6000,
            "time": 6.75675,
            "velocity": 0.6929133858267716
          },
          {
            "duration": 0.09684675000000009,
            "durationTicks": 86,
            "midi": 51,
            "name": "D#3",
            "ticks": 6240,
            "time": 7.02702,
            "velocity": 0.3228346456692913
          },
          {
            "duration": 0.10022512499999969,
            "durationTicks": 89,
            "midi": 51,
            "name": "D#3",
            "ticks": 6480,
            "time": 7.29729,
            "velocity": 0.4015748031496063
          },
          {
            "duration": 0.07207199999999947,
            "durationTicks": 64,
            "midi": 44,
            "name": "G#2",
            "ticks": 6480,
            "time": 7.29729,
            "velocity": 0.8818897637795275
          },
          {
            "duration": 0.07319812499999934,
            "durationTicks": 65,
            "midi": 37,
            "name": "C#2",
            "ticks": 6480,
            "time": 7.29729,
            "velocity": 0.8818897637795275
          },
          {
            "duration": 0.09234224999999974,
            "durationTicks": 82,
            "midi": 51,
            "name": "D#3",
            "ticks": 6720,
            "time": 7.56756,
            "velocity": 0.3228346456692913
          },
          {
            "duration": 0.09909899999999983,
            "durationTicks": 88,
            "midi": 51,
            "name": "D#3",
            "ticks": 6960,
            "time": 7.83783,
            "velocity": 0.3543307086614173
          },
          {
            "duration": 0.06981974999999974,
            "durationTicks": 62,
            "midi": 44,
            "name": "G#2",
            "ticks": 6960,
            "time": 7.83783,
            "velocity": 0.6929133858267716
          },
          {
            "duration": 0.09684675000000098,
            "durationTicks": 86,
            "midi": 51,
            "name": "D#3",
            "ticks": 7200,
            "time": 8.1081,
            "velocity": 0.3543307086614173
          },
          {
            "duration": 0.11486475000000063,
            "durationTicks": 102,
            "midi": 51,
            "name": "D#3",
            "ticks": 7440,
            "time": 8.37837,
            "velocity": 0.3543307086614173
          },
          {
            "duration": 0.06981975000000062,
            "durationTicks": 62,
            "midi": 44,
            "name": "G#2",
            "ticks": 7440,
            "time": 8.37837,
            "velocity": 0.8818897637795275
          },
          {
            "duration": 0.06981975000000062,
            "durationTicks": 62,
            "midi": 37,
            "name": "C#2",
            "ticks": 7440,
            "time": 8.37837,
            "velocity": 0.8818897637795275
          },
          {
            "duration": 0.08783775000000027,
            "durationTicks": 78,
            "midi": 51,
            "name": "D#3",
            "ticks": 7680,
            "time": 8.64864,
            "velocity": 0.31496062992125984
          },
          {
            "duration": 0.10810799999999965,
            "durationTicks": 96,
            "midi": 51,
            "name": "D#3",
            "ticks": 7920,
            "time": 8.91891,
            "velocity": 0.4015748031496063
          },
          {
            "duration": 0.07770262500000058,
            "durationTicks": 69,
            "midi": 44,
            "name": "G#2",
            "ticks": 7920,
            "time": 8.91891,
            "velocity": 0.6929133858267716
          },
          {
            "duration": 0.09009,
            "durationTicks": 80,
            "midi": 51,
            "name": "D#3",
            "ticks": 8160,
            "time": 9.18918,
            "velocity": 0.3228346456692913
          },
          {
            "duration": 0.10472962500000094,
            "durationTicks": 93,
            "midi": 51,
            "name": "D#3",
            "ticks": 8400,
            "time": 9.45945,
            "velocity": 0.3543307086614173
          },
          {
            "duration": 0.07207200000000036,
            "durationTicks": 64,
            "midi": 44,
            "name": "G#2",
            "ticks": 8400,
            "time": 9.45945,
            "velocity": 0.8818897637795275
          },
          {
            "duration": 0.07319812500000111,
            "durationTicks": 65,
            "midi": 37,
            "name": "C#2",
            "ticks": 8400,
            "time": 9.45945,
            "velocity": 0.8818897637795275
          },
          {
            "duration": 0.07995487500000031,
            "durationTicks": 71,
            "midi": 51,
            "name": "D#3",
            "ticks": 8640,
            "time": 9.72972,
            "velocity": 0.3228346456692913
          },
          {
            "duration": 0.10698187500000067,
            "durationTicks": 95,
            "midi": 51,
            "name": "D#3",
            "ticks": 8880,
            "time": 9.99999,
            "velocity": 0.31496062992125984
          },
          {
            "duration": 0.06981975000000062,
            "durationTicks": 62,
            "midi": 44,
            "name": "G#2",
            "ticks": 8880,
            "time": 9.99999,
            "velocity": 0.6929133858267716
          },
          {
            "duration": 0.08783775000000027,
            "durationTicks": 78,
            "midi": 51,
            "name": "D#3",
            "ticks": 9120,
            "time": 10.27026,
            "velocity": 0.4015748031496063
          },
          {
            "duration": 0.10022512499999969,
            "durationTicks": 89,
            "midi": 51,
            "name": "D#3",
            "ticks": 9360,
            "time": 10.54053,
            "velocity": 0.2992125984251969
          },
          {
            "duration": 0.06981975000000062,
            "durationTicks": 62,
            "midi": 44,
            "name": "G#2",
            "ticks": 9360,
            "time": 10.54053,
            "velocity": 0.8818897637795275
          },
          {
            "duration": 0.06981975000000062,
            "durationTicks": 62,
            "midi": 37,
            "name": "C#2",
            "ticks": 9360,
            "time": 10.54053,
            "velocity": 0.8818897637795275
          },
          {
            "duration": 0.06306299999999965,
            "durationTicks": 56,
            "midi": 51,
            "name": "D#3",
            "ticks": 9600,
            "time": 10.8108,
            "velocity": 0.4015748031496063
          },
          {
            "duration": 0.08445937499999978,
            "durationTicks": 75,
            "midi": 51,
            "name": "D#3",
            "ticks": 9840,
            "time": 11.08107,
            "velocity": 0.6062992125984252
          },
          {
            "duration": 0.07770262500000058,
            "durationTicks": 69,
            "midi": 44,
            "name": "G#2",
            "ticks": 9840,
            "time": 11.08107,
            "velocity": 0.6929133858267716
          },
          {
            "duration": 0.05518012499999969,
            "durationTicks": 49,
            "midi": 51,
            "name": "D#3",
            "ticks": 10080,
            "time": 11.35134,
            "velocity": 0.3937007874015748
          },
          {
            "duration": 0.08445937499999978,
            "durationTicks": 75,
            "midi": 51,
            "name": "D#3",
            "ticks": 10320,
            "time": 11.62161,
            "velocity": 0.5354330708661418
          },
          {
            "duration": 0.07207200000000036,
            "durationTicks": 64,
            "midi": 44,
            "name": "G#2",
            "ticks": 10320,
            "time": 11.62161,
            "velocity": 0.8818897637795275
          },
          {
            "duration": 0.07319812500000111,
            "durationTicks": 65,
            "midi": 37,
            "name": "C#2",
            "ticks": 10320,
            "time": 11.62161,
            "velocity": 0.8818897637795275
          },
          {
            "duration": 0.05968462499999916,
            "durationTicks": 53,
            "midi": 51,
            "name": "D#3",
            "ticks": 10560,
            "time": 11.89188,
            "velocity": 0.3543307086614173
          },
          {
            "duration": 0.09009,
            "durationTicks": 80,
            "midi": 51,
            "name": "D#3",
            "ticks": 10800,
            "time": 12.16215,
            "velocity": 0.6062992125984252
          },
          {
            "duration": 0.06981975000000062,
            "durationTicks": 62,
            "midi": 44,
            "name": "G#2",
            "ticks": 10800,
            "time": 12.16215,
            "velocity": 0.6929133858267716
          },
          {
            "duration": 0.06869362500000165,
            "durationTicks": 61,
            "midi": 51,
            "name": "D#3",
            "ticks": 11040,
            "time": 12.43242,
            "velocity": 0.3543307086614173
          },
          {
            "duration": 0.07657649999999983,
            "durationTicks": 68,
            "midi": 51,
            "name": "D#3",
            "ticks": 11280,
            "time": 12.70269,
            "velocity": 0.6062992125984252
          },
          {
            "duration": 0.06981975000000062,
            "durationTicks": 62,
            "midi": 44,
            "name": "G#2",
            "ticks": 11280,
            "time": 12.70269,
            "velocity": 0.8818897637795275
          },
          {
            "duration": 0.06981975000000062,
            "durationTicks": 62,
            "midi": 37,
            "name": "C#2",
            "ticks": 11280,
            "time": 12.70269,
            "velocity": 0.8818897637795275
          },
          {
            "duration": 0.04166662499999951,
            "durationTicks": 37,
            "midi": 51,
            "name": "D#3",
            "ticks": 11440,
            "time": 12.88287,
            "velocity": 0.47244094488188976
          },
          {
            "duration": 0.04391887500000102,
            "durationTicks": 39,
            "midi": 51,
            "name": "D#3",
            "ticks": 11520,
            "time": 12.97296,
            "velocity": 0.31496062992125984
          },
          {
            "duration": 0.07770262500000058,
            "durationTicks": 69,
            "midi": 44,
            "name": "G#2",
            "ticks": 11760,
            "time": 13.24323,
            "velocity": 0.6929133858267716
          },
          {
            "duration": 0.07995487500000031,
            "durationTicks": 71,
            "midi": 51,
            "name": "D#3",
            "ticks": 11760,
            "time": 13.24323,
            "velocity": 0.5354330708661418
          },
          {
            "duration": 0.05292787499999996,
            "durationTicks": 47,
            "midi": 51,
            "name": "D#3",
            "ticks": 12000,
            "time": 13.5135,
            "velocity": 0.4015748031496063
          },
          {
            "duration": 0.07882874999999956,
            "durationTicks": 70,
            "midi": 51,
            "name": "D#3",
            "ticks": 12240,
            "time": 13.78377,
            "velocity": 0.6062992125984252
          },
          {
            "duration": 0.07207200000000036,
            "durationTicks": 64,
            "midi": 44,
            "name": "G#2",
            "ticks": 12240,
            "time": 13.78377,
            "velocity": 0.8818897637795275
          },
          {
            "duration": 0.07319812500000111,
            "durationTicks": 65,
            "midi": 37,
            "name": "C#2",
            "ticks": 12240,
            "time": 13.78377,
            "velocity": 0.8818897637795275
          },
          {
            "duration": 0.05968462499999916,
            "durationTicks": 53,
            "midi": 51,
            "name": "D#3",
            "ticks": 12480,
            "time": 14.05404,
            "velocity": 0.3543307086614173
          },
          {
            "duration": 0.08558550000000054,
            "durationTicks": 76,
            "midi": 51,
            "name": "D#3",
            "ticks": 12720,
            "time": 14.32431,
            "velocity": 0.5354330708661418
          },
          {
            "duration": 0.06981975000000062,
            "durationTicks": 62,
            "midi": 44,
            "name": "G#2",
            "ticks": 12720,
            "time": 14.32431,
            "velocity": 0.6929133858267716
          },
          {
            "duration": 0.07094587500000138,
            "durationTicks": 63,
            "midi": 51,
            "name": "D#3",
            "ticks": 12960,
            "time": 14.59458,
            "velocity": 0.47244094488188976
          },
          {
            "duration": 0.07319812500000111,
            "durationTicks": 65,
            "midi": 51,
            "name": "D#3",
            "ticks": 13200,
            "time": 14.86485,
            "velocity": 0.5354330708661418
          },
          {
            "duration": 0.06981975000000062,
            "durationTicks": 62,
            "midi": 44,
            "name": "G#2",
            "ticks": 13200,
            "time": 14.86485,
            "velocity": 0.8818897637795275
          },
          {
            "duration": 0.06981975000000062,
            "durationTicks": 62,
            "midi": 37,
            "name": "C#2",
            "ticks": 13200,
            "time": 14.86485,
            "velocity": 0.8818897637795275
          },
          {
            "duration": 0.04391887499999925,
            "durationTicks": 39,
            "midi": 51,
            "name": "D#3",
            "ticks": 13360,
            "time": 15.04503,
            "velocity": 0.47244094488188976
          },
          {
            "duration": 0.04842337500000049,
            "durationTicks": 43,
            "midi": 51,
            "name": "D#3",
            "ticks": 13440,
            "time": 15.13512,
            "velocity": 0.47244094488188976
          },
          {
            "duration": 0.07770262500000058,
            "durationTicks": 69,
            "midi": 44,
            "name": "G#2",
            "ticks": 13680,
            "time": 15.40539,
            "velocity": 0.6929133858267716
          },
          {
            "duration": 0.08445937499999978,
            "durationTicks": 75,
            "midi": 51,
            "name": "D#3",
            "ticks": 13680,
            "time": 15.40539,
            "velocity": 0.6929133858267716
          },
          {
            "duration": 0.057432374999999425,
            "durationTicks": 51,
            "midi": 51,
            "name": "D#3",
            "ticks": 13920,
            "time": 15.67566,
            "velocity": 0.31496062992125984
          },
          {
            "duration": 0.07545037499999907,
            "durationTicks": 67,
            "midi": 51,
            "name": "D#3",
            "ticks": 14160,
            "time": 15.94593,
            "velocity": 0.5354330708661418
          },
          {
            "duration": 0.07207199999999858,
            "durationTicks": 64,
            "midi": 44,
            "name": "G#2",
            "ticks": 14160,
            "time": 15.94593,
            "velocity": 0.8818897637795275
          },
          {
            "duration": 0.07319812500000111,
            "durationTicks": 65,
            "midi": 37,
            "name": "C#2",
            "ticks": 14160,
            "time": 15.94593,
            "velocity": 0.8818897637795275
          },
          {
            "duration": 0.05968462499999916,
            "durationTicks": 53,
            "midi": 51,
            "name": "D#3",
            "ticks": 14400,
            "time": 16.2162,
            "velocity": 0.47244094488188976
          },
          {
            "duration": 0.08333324999999903,
            "durationTicks": 74,
            "midi": 51,
            "name": "D#3",
            "ticks": 14640,
            "time": 16.48647,
            "velocity": 0.6929133858267716
          },
          {
            "duration": 0.06981975000000062,
            "durationTicks": 62,
            "midi": 44,
            "name": "G#2",
            "ticks": 14640,
            "time": 16.48647,
            "velocity": 0.6929133858267716
          },
          {
            "duration": 0.06193687500000067,
            "durationTicks": 55,
            "midi": 51,
            "name": "D#3",
            "ticks": 14880,
            "time": 16.75674,
            "velocity": 0.3543307086614173
          },
          {
            "duration": 0.06756749999999911,
            "durationTicks": 60,
            "midi": 51,
            "name": "D#3",
            "ticks": 15120,
            "time": 17.02701,
            "velocity": 0.5354330708661418
          },
          {
            "duration": 0.06981975000000062,
            "durationTicks": 62,
            "midi": 44,
            "name": "G#2",
            "ticks": 15120,
            "time": 17.02701,
            "velocity": 0.8818897637795275
          },
          {
            "duration": 0.06981975000000062,
            "durationTicks": 62,
            "midi": 37,
            "name": "C#2",
            "ticks": 15120,
            "time": 17.02701,
            "velocity": 0.8818897637795275
          },
          {
            "duration": 0.050675625000000224,
            "durationTicks": 45,
            "midi": 51,
            "name": "D#3",
            "ticks": 15280,
            "time": 17.20719,
            "velocity": 0.3543307086614173
          },
          {
            "duration": 0.05518012499999969,
            "durationTicks": 49,
            "midi": 51,
            "name": "D#3",
            "ticks": 15360,
            "time": 17.29728,
            "velocity": 0.31496062992125984
          },
          {
            "duration": 0.07770262499999703,
            "durationTicks": 69,
            "midi": 44,
            "name": "G#2",
            "ticks": 15600,
            "time": 17.56755,
            "velocity": 0.6929133858267716
          },
          {
            "duration": 0.06418912499999863,
            "durationTicks": 57,
            "midi": 51,
            "name": "D#3",
            "ticks": 15600,
            "time": 17.56755,
            "velocity": 0.6062992125984252
          },
          {
            "duration": 0.048423374999998714,
            "durationTicks": 43,
            "midi": 51,
            "name": "D#3",
            "ticks": 15840,
            "time": 17.83782,
            "velocity": 0.3543307086614173
          },
          {
            "duration": 0.07319812499999756,
            "durationTicks": 65,
            "midi": 51,
            "name": "D#3",
            "ticks": 16080,
            "time": 18.10809,
            "velocity": 0.6062992125984252
          },
          {
            "duration": 0.07207199999999858,
            "durationTicks": 64,
            "midi": 44,
            "name": "G#2",
            "ticks": 16080,
            "time": 18.10809,
            "velocity": 0.8818897637795275
          },
          {
            "duration": 0.07319812499999756,
            "durationTicks": 65,
            "midi": 37,
            "name": "C#2",
            "ticks": 16080,
            "time": 18.10809,
            "velocity": 0.8818897637795275
          },
          {
            "duration": 0.05518012499999969,
            "durationTicks": 49,
            "midi": 51,
            "name": "D#3",
            "ticks": 16320,
            "time": 18.37836,
            "velocity": 0.4015748031496063
          },
          {
            "duration": 0.08783775000000205,
            "durationTicks": 78,
            "midi": 51,
            "name": "D#3",
            "ticks": 16560,
            "time": 18.64863,
            "velocity": 0.6062992125984252
          },
          {
            "duration": 0.06981975000000062,
            "durationTicks": 62,
            "midi": 44,
            "name": "G#2",
            "ticks": 16560,
            "time": 18.64863,
            "velocity": 0.6929133858267716
          },
          {
            "duration": 0.06981975000000062,
            "durationTicks": 62,
            "midi": 51,
            "name": "D#3",
            "ticks": 16800,
            "time": 18.9189,
            "velocity": 0.47244094488188976
          },
          {
            "duration": 0.09009,
            "durationTicks": 80,
            "midi": 51,
            "name": "D#3",
            "ticks": 17040,
            "time": 19.18917,
            "velocity": 0.6062992125984252
          },
          {
            "duration": 0.06981975000000062,
            "durationTicks": 62,
            "midi": 44,
            "name": "G#2",
            "ticks": 17040,
            "time": 19.18917,
            "velocity": 0.8818897637795275
          },
          {
            "duration": 0.06981975000000062,
            "durationTicks": 62,
            "midi": 37,
            "name": "C#2",
            "ticks": 17040,
            "time": 19.18917,
            "velocity": 0.8818897637795275
          },
          {
            "duration": 0.050675625000000224,
            "durationTicks": 45,
            "midi": 51,
            "name": "D#3",
            "ticks": 17280,
            "time": 19.45944,
            "velocity": 0.3543307086614173
          },
          {
            "duration": 0.0709458749999996,
            "durationTicks": 63,
            "midi": 51,
            "name": "D#3",
            "ticks": 17520,
            "time": 19.72971,
            "velocity": 0.6062992125984252
          },
          {
            "duration": 0.07770262499999703,
            "durationTicks": 69,
            "midi": 44,
            "name": "G#2",
            "ticks": 17520,
            "time": 19.72971,
            "velocity": 0.6929133858267716
          },
          {
            "duration": 0.0574323750000012,
            "durationTicks": 51,
            "midi": 51,
            "name": "D#3",
            "ticks": 17760,
            "time": 19.99998,
            "velocity": 0.3543307086614173
          },
          {
            "duration": 0.08333325000000258,
            "durationTicks": 74,
            "midi": 51,
            "name": "D#3",
            "ticks": 18000,
            "time": 20.27025,
            "velocity": 0.6929133858267716
          },
          {
            "duration": 0.07207199999999858,
            "durationTicks": 64,
            "midi": 44,
            "name": "G#2",
            "ticks": 18000,
            "time": 20.27025,
            "velocity": 0.8818897637795275
          },
          {
            "duration": 0.07319812499999756,
            "durationTicks": 65,
            "midi": 37,
            "name": "C#2",
            "ticks": 18000,
            "time": 20.27025,
            "velocity": 0.8818897637795275
          },
          {
            "duration": 0.06644137500000014,
            "durationTicks": 59,
            "midi": 51,
            "name": "D#3",
            "ticks": 18240,
            "time": 20.54052,
            "velocity": 0.4015748031496063
          },
          {
            "duration": 0.08558550000000054,
            "durationTicks": 76,
            "midi": 51,
            "name": "D#3",
            "ticks": 18480,
            "time": 20.81079,
            "velocity": 0.6929133858267716
          },
          {
            "duration": 0.06981975000000062,
            "durationTicks": 62,
            "midi": 44,
            "name": "G#2",
            "ticks": 18480,
            "time": 20.81079,
            "velocity": 0.6929133858267716
          },
          {
            "duration": 0.011261250000000445,
            "durationTicks": 10,
            "midi": 45,
            "name": "A2",
            "ticks": 18720,
            "time": 21.08106,
            "velocity": 0.47244094488188976
          },
          {
            "duration": 0.06981975000000062,
            "durationTicks": 62,
            "midi": 51,
            "name": "D#3",
            "ticks": 18720,
            "time": 21.08106,
            "velocity": 0.5354330708661418
          },
          {
            "duration": 0.011261250000000445,
            "durationTicks": 10,
            "midi": 40,
            "name": "E2",
            "ticks": 18800,
            "time": 21.17115,
            "velocity": 0.2755905511811024
          },
          {
            "duration": 0.011261250000000445,
            "durationTicks": 10,
            "midi": 40,
            "name": "E2",
            "ticks": 18880,
            "time": 21.26124,
            "velocity": 0.2992125984251969
          },
          {
            "duration": 0.011261250000000445,
            "durationTicks": 10,
            "midi": 40,
            "name": "E2",
            "ticks": 18960,
            "time": 21.35133,
            "velocity": 0.33070866141732286
          },
          {
            "duration": 0.0709458749999996,
            "durationTicks": 63,
            "midi": 51,
            "name": "D#3",
            "ticks": 18960,
            "time": 21.35133,
            "velocity": 0.47244094488188976
          },
          {
            "duration": 0.011261250000000445,
            "durationTicks": 10,
            "midi": 40,
            "name": "E2",
            "ticks": 19040,
            "time": 21.44142,
            "velocity": 0.47244094488188976
          },
          {
            "duration": 0.011261250000000445,
            "durationTicks": 10,
            "midi": 40,
            "name": "E2",
            "ticks": 19120,
            "time": 21.53151,
            "velocity": 0.7637795275590551
          },
          {
            "duration": 0.050675625000000224,
            "durationTicks": 45,
            "midi": 51,
            "name": "D#3",
            "ticks": 19120,
            "time": 21.53151,
            "velocity": 0.47244094488188976
          },
          {
            "duration": 0.028153125000002888,
            "durationTicks": 25,
            "midi": 51,
            "name": "D#3",
            "ticks": 19200,
            "time": 21.6216,
            "velocity": 0.4015748031496063
          },
          {
            "duration": 0.011261250000000445,
            "durationTicks": 10,
            "midi": 40,
            "name": "E2",
            "ticks": 19200,
            "time": 21.6216,
            "velocity": 0.9212598425196851
          },
          {
            "duration": 0.011261250000000445,
            "durationTicks": 10,
            "midi": 49,
            "name": "C#3",
            "ticks": 19360,
            "time": 21.80178,
            "velocity": 0.47244094488188976
          },
          {
            "duration": 0.03941437499999978,
            "durationTicks": 35,
            "midi": 44,
            "name": "G#2",
            "ticks": 19378,
            "time": 21.82205025,
            "velocity": 0.6535433070866141
          },
          {
            "duration": 0.011261250000000445,
            "durationTicks": 10,
            "midi": 49,
            "name": "C#3",
            "ticks": 19680,
            "time": 22.16214,
            "velocity": 0.47244094488188976
          },
          {
            "duration": 0.06081074999999814,
            "durationTicks": 54,
            "midi": 44,
            "name": "G#2",
            "ticks": 19706,
            "time": 22.191419250000003,
            "velocity": 0.7559055118110236
          },
          {
            "duration": 0.011261250000000445,
            "durationTicks": 10,
            "midi": 40,
            "name": "E2",
            "ticks": 19920,
            "time": 22.43241,
            "velocity": 0.5354330708661418
          },
          {
            "duration": 0.06531525000000116,
            "durationTicks": 58,
            "midi": 44,
            "name": "G#2",
            "ticks": 19924,
            "time": 22.4369145,
            "velocity": 0.7244094488188977
          },
          {
            "duration": 0.011261249999996892,
            "durationTicks": 10,
            "midi": 40,
            "name": "E2",
            "ticks": 19960,
            "time": 22.477455000000003,
            "velocity": 0.4251968503937008
          },
          {
            "duration": 0.011261250000000445,
            "durationTicks": 10,
            "midi": 40,
            "name": "E2",
            "ticks": 20000,
            "time": 22.5225,
            "velocity": 0.3464566929133858
          },
          {
            "duration": 0.011261250000000445,
            "durationTicks": 10,
            "midi": 40,
            "name": "E2",
            "ticks": 20040,
            "time": 22.567545000000003,
            "velocity": 0.2677165354330709
          },
          {
            "duration": 0.011261250000000445,
            "durationTicks": 10,
            "midi": 40,
            "name": "E2",
            "ticks": 20080,
            "time": 22.61259,
            "velocity": 0.23622047244094488
          },
          {
            "duration": 0.011261250000000445,
            "durationTicks": 10,
            "midi": 40,
            "name": "E2",
            "ticks": 20120,
            "time": 22.657635,
            "velocity": 0.15748031496062992
          },
          {
            "duration": 0.06981975000000062,
            "durationTicks": 62,
            "midi": 44,
            "name": "G#2",
            "ticks": 20157,
            "time": 22.699301625,
            "velocity": 0.7244094488188977
          },
          {
            "duration": 0.011261250000000445,
            "durationTicks": 10,
            "midi": 49,
            "name": "C#3",
            "ticks": 20160,
            "time": 22.70268,
            "velocity": 0.47244094488188976
          },
          {
            "duration": 0.011261250000000445,
            "durationTicks": 10,
            "midi": 40,
            "name": "E2",
            "ticks": 20400,
            "time": 22.97295,
            "velocity": 0.6929133858267716
          },
          {
            "duration": 0.045044999999998225,
            "durationTicks": 40,
            "midi": 44,
            "name": "G#2",
            "ticks": 20430,
            "time": 23.006733750000002,
            "velocity": 0.5118110236220472
          },
          {
            "duration": 0.12499987499999676,
            "durationTicks": 111,
            "midi": 44,
            "name": "G#2",
            "ticks": 20541,
            "time": 23.131733625000003,
            "velocity": 0.5511811023622047
          },
          {
            "duration": 0.011261250000000445,
            "durationTicks": 10,
            "midi": 57,
            "name": "A3",
            "ticks": 20560,
            "time": 23.15313,
            "velocity": 0.6062992125984252
          },
          {
            "duration": 0.011261250000000445,
            "durationTicks": 10,
            "midi": 45,
            "name": "A2",
            "ticks": 20880,
            "time": 23.51349,
            "velocity": 0.5039370078740157
          },
          {
            "duration": 0.011261250000000445,
            "durationTicks": 10,
            "midi": 40,
            "name": "E2",
            "ticks": 20960,
            "time": 23.60358,
            "velocity": 0.5196850393700787
          },
          {
            "duration": 0.011261250000000445,
            "durationTicks": 10,
            "midi": 40,
            "name": "E2",
            "ticks": 21040,
            "time": 23.69367,
            "velocity": 0.7637795275590551
          },
          {
            "duration": 0.011261250000000445,
            "durationTicks": 10,
            "midi": 40,
            "name": "E2",
            "ticks": 21120,
            "time": 23.78376,
            "velocity": 0.8818897637795275
          },
          {
            "duration": 0.06981975000000062,
            "durationTicks": 62,
            "midi": 44,
            "name": "G#2",
            "ticks": 21256,
            "time": 23.936913,
            "velocity": 0.8346456692913385
          },
          {
            "duration": 0.011261250000000445,
            "durationTicks": 10,
            "midi": 49,
            "name": "C#3",
            "ticks": 21280,
            "time": 23.96394,
            "velocity": 0.47244094488188976
          },
          {
            "duration": 0.011261250000000445,
            "durationTicks": 10,
            "midi": 49,
            "name": "C#3",
            "ticks": 21600,
            "time": 24.3243,
            "velocity": 0.47244094488188976
          },
          {
            "duration": 0.0518017499999992,
            "durationTicks": 46,
            "midi": 44,
            "name": "G#2",
            "ticks": 21636,
            "time": 24.364840500000003,
            "velocity": 0.5984251968503937
          },
          {
            "duration": 0.011261250000000445,
            "durationTicks": 10,
            "midi": 40,
            "name": "E2",
            "ticks": 21840,
            "time": 24.59457,
            "velocity": 0.5669291338582677
          },
          {
            "duration": 0.06531525000000116,
            "durationTicks": 58,
            "midi": 44,
            "name": "G#2",
            "ticks": 21844,
            "time": 24.5990745,
            "velocity": 0.6535433070866141
          },
          {
            "duration": 0.011261249999996892,
            "durationTicks": 10,
            "midi": 40,
            "name": "E2",
            "ticks": 21880,
            "time": 24.639615000000003,
            "velocity": 0.3937007874015748
          },
          {
            "duration": 0.011261250000000445,
            "durationTicks": 10,
            "midi": 40,
            "name": "E2",
            "ticks": 21920,
            "time": 24.68466,
            "velocity": 0.31496062992125984
          },
          {
            "duration": 0.011261250000000445,
            "durationTicks": 10,
            "midi": 40,
            "name": "E2",
            "ticks": 21960,
            "time": 24.729705000000003,
            "velocity": 0.25196850393700787
          },
          {
            "duration": 0.011261250000000445,
            "durationTicks": 10,
            "midi": 40,
            "name": "E2",
            "ticks": 22000,
            "time": 24.77475,
            "velocity": 0.18110236220472442
          },
          {
            "duration": 0.011261250000000445,
            "durationTicks": 10,
            "midi": 40,
            "name": "E2",
            "ticks": 22040,
            "time": 24.819795,
            "velocity": 0.15748031496062992
          },
          {
            "duration": 0.07995487499999854,
            "durationTicks": 71,
            "midi": 44,
            "name": "G#2",
            "ticks": 22075,
            "time": 24.859209375000002,
            "velocity": 0.7559055118110236
          },
          {
            "duration": 0.011261250000000445,
            "durationTicks": 10,
            "midi": 40,
            "name": "E2",
            "ticks": 22080,
            "time": 24.86484,
            "velocity": 0.2755905511811024
          },
          {
            "duration": 0.011261249999996892,
            "durationTicks": 10,
            "midi": 40,
            "name": "E2",
            "ticks": 22330,
            "time": 25.14637125,
            "velocity": 0.6929133858267716
          },
          {
            "duration": 0.052927875000001734,
            "durationTicks": 47,
            "midi": 44,
            "name": "G#2",
            "ticks": 22339,
            "time": 25.156506375,
            "velocity": 0.5748031496062992
          },
          {
            "duration": 0.11261250000000089,
            "durationTicks": 100,
            "midi": 44,
            "name": "G#2",
            "ticks": 22490,
            "time": 25.32655125,
            "velocity": 0.6535433070866141
          },
          {
            "duration": 0.011261250000000445,
            "durationTicks": 10,
            "midi": 40,
            "name": "E2",
            "ticks": 22640,
            "time": 25.49547,
            "velocity": 0.15748031496062992
          },
          {
            "duration": 0.011261250000003997,
            "durationTicks": 10,
            "midi": 40,
            "name": "E2",
            "ticks": 22680,
            "time": 25.540515,
            "velocity": 0.23622047244094488
          },
          {
            "duration": 0.011261250000000445,
            "durationTicks": 10,
            "midi": 40,
            "name": "E2",
            "ticks": 22720,
            "time": 25.58556,
            "velocity": 0.8031496062992126
          },
          {
            "duration": 0.011261250000000445,
            "durationTicks": 10,
            "midi": 40,
            "name": "E2",
            "ticks": 22800,
            "time": 25.67565,
            "velocity": 0.937007874015748
          },
          {
            "duration": 0.06081075000000169,
            "durationTicks": 54,
            "midi": 44,
            "name": "G#2",
            "ticks": 22883,
            "time": 25.769118375,
            "velocity": 0.4409448818897638
          },
          {
            "duration": 0.011261249999996892,
            "durationTicks": 10,
            "midi": 40,
            "name": "E2",
            "ticks": 23290,
            "time": 26.22745125,
            "velocity": 0.6062992125984252
          },
          {
            "duration": 0.05405399999999716,
            "durationTicks": 48,
            "midi": 44,
            "name": "G#2",
            "ticks": 23301,
            "time": 26.239838625,
            "velocity": 0.5275590551181102
          },
          {
            "duration": 0.05743237499999765,
            "durationTicks": 51,
            "midi": 44,
            "name": "G#2",
            "ticks": 23534,
            "time": 26.50222575,
            "velocity": 0.5984251968503937
          },
          {
            "duration": 0.011261249999996892,
            "durationTicks": 10,
            "midi": 40,
            "name": "E2",
            "ticks": 23770,
            "time": 26.76799125,
            "velocity": 0.7874015748031497
          },
          {
            "duration": 0.07432425000000009,
            "durationTicks": 66,
            "midi": 44,
            "name": "G#2",
            "ticks": 23787,
            "time": 26.787135375000002,
            "velocity": 0.49606299212598426
          },
          {
            "duration": 0.050675625000000224,
            "durationTicks": 45,
            "midi": 44,
            "name": "G#2",
            "ticks": 24064,
            "time": 27.099072,
            "velocity": 0.4409448818897638
          },
          {
            "duration": 0.011261249999996892,
            "durationTicks": 10,
            "midi": 40,
            "name": "E2",
            "ticks": 24250,
            "time": 27.30853125,
            "velocity": 0.7874015748031497
          },
          {
            "duration": 0.06531525000000116,
            "durationTicks": 58,
            "midi": 44,
            "name": "G#2",
            "ticks": 24275,
            "time": 27.336684375,
            "velocity": 0.5118110236220472
          },
          {
            "duration": 0.052927875000001734,
            "durationTicks": 47,
            "midi": 44,
            "name": "G#2",
            "ticks": 24519,
            "time": 27.611458875,
            "velocity": 0.4251968503937008
          },
          {
            "duration": 0.011261249999996892,
            "durationTicks": 10,
            "midi": 40,
            "name": "E2",
            "ticks": 24730,
            "time": 27.84907125,
            "velocity": 0.7874015748031497
          },
          {
            "duration": 0.06981975000000062,
            "durationTicks": 62,
            "midi": 44,
            "name": "G#2",
            "ticks": 24790,
            "time": 27.91663875,
            "velocity": 0.29133858267716534
          },
          {
            "duration": 0.011261250000000445,
            "durationTicks": 10,
            "midi": 57,
            "name": "A3",
            "ticks": 24880,
            "time": 28.01799,
            "velocity": 0.6062992125984252
          },
          {
            "duration": 0.07207200000000213,
            "durationTicks": 64,
            "midi": 44,
            "name": "G#2",
            "ticks": 24886,
            "time": 28.02474675,
            "velocity": 0.7244094488188977
          },
          {
            "duration": 0.011261250000000445,
            "durationTicks": 10,
            "midi": 50,
            "name": "D3",
            "ticks": 25200,
            "time": 28.37835,
            "velocity": 0.6929133858267716
          },
          {
            "duration": 0.06756749999999911,
            "durationTicks": 60,
            "midi": 44,
            "name": "G#2",
            "ticks": 25250,
            "time": 28.43465625,
            "velocity": 0.28346456692913385
          },
          {
            "duration": 0.011261250000000445,
            "durationTicks": 10,
            "midi": 40,
            "name": "E2",
            "ticks": 25440,
            "time": 28.64862,
            "velocity": 0.7874015748031497
          },
          {
            "duration": 0.011261250000003997,
            "durationTicks": 10,
            "midi": 47,
            "name": "B2",
            "ticks": 25560,
            "time": 28.783755,
            "velocity": 0.31496062992125984
          },
          {
            "duration": 0.11373862499999987,
            "durationTicks": 101,
            "midi": 46,
            "name": "A#2",
            "ticks": 25600,
            "time": 28.8288,
            "velocity": 0.9448818897637795
          },
          {
            "duration": 0.04504500000000178,
            "durationTicks": 40,
            "midi": 44,
            "name": "G#2",
            "ticks": 25627,
            "time": 28.859205375000002,
            "velocity": 0.41732283464566927
          },
          {
            "duration": 0.09234224999999796,
            "durationTicks": 82,
            "midi": 42,
            "name": "F#2",
            "ticks": 25670,
            "time": 28.90762875,
            "velocity": 0.6299212598425197
          },
          {
            "duration": 0.09459449999999947,
            "durationTicks": 84,
            "midi": 46,
            "name": "A#2",
            "ticks": 25840,
            "time": 29.09907,
            "velocity": 0.9448818897637795
          },
          {
            "duration": 0.13288274999999672,
            "durationTicks": 118,
            "midi": 42,
            "name": "F#2",
            "ticks": 25911,
            "time": 29.179024875000003,
            "velocity": 0.6299212598425197
          },
          {
            "duration": 0.055180125000003244,
            "durationTicks": 49,
            "midi": 44,
            "name": "G#2",
            "ticks": 26413,
            "time": 29.744339625,
            "velocity": 0.31496062992125984
          },
          {
            "duration": 0.011261250000000445,
            "durationTicks": 10,
            "midi": 43,
            "name": "G2",
            "ticks": 26570,
            "time": 29.92114125,
            "velocity": 0.4330708661417323
          },
          {
            "duration": 0.011261250000000445,
            "durationTicks": 10,
            "midi": 41,
            "name": "F2",
            "ticks": 26640,
            "time": 29.99997,
            "velocity": 0.31496062992125984
          },
          {
            "duration": 0.05518012499999969,
            "durationTicks": 49,
            "midi": 44,
            "name": "G#2",
            "ticks": 26657,
            "time": 30.019114125,
            "velocity": 0.3543307086614173
          },
          {
            "duration": 0.04617112500000076,
            "durationTicks": 41,
            "midi": 51,
            "name": "D#3",
            "ticks": 26880,
            "time": 30.27024,
            "velocity": 0.5354330708661418
          },
          {
            "duration": 0.052927875000001734,
            "durationTicks": 47,
            "midi": 51,
            "name": "D#3",
            "ticks": 27120,
            "time": 30.54051,
            "velocity": 0.47244094488188976
          },
          {
            "duration": 0.07770262499999703,
            "durationTicks": 69,
            "midi": 44,
            "name": "G#2",
            "ticks": 27120,
            "time": 30.54051,
            "velocity": 0.6929133858267716
          },
          {
            "duration": 0.03490987500000031,
            "durationTicks": 31,
            "midi": 51,
            "name": "D#3",
            "ticks": 27280,
            "time": 30.72069,
            "velocity": 0.4015748031496063
          },
          {
            "duration": 0.0518017499999992,
            "durationTicks": 46,
            "midi": 51,
            "name": "D#3",
            "ticks": 27360,
            "time": 30.81078,
            "velocity": 0.47244094488188976
          },
          {
            "duration": 0.06306299999999965,
            "durationTicks": 56,
            "midi": 51,
            "name": "D#3",
            "ticks": 27600,
            "time": 31.08105,
            "velocity": 0.6062992125984252
          },
          {
            "duration": 0.07207199999999858,
            "durationTicks": 64,
            "midi": 44,
            "name": "G#2",
            "ticks": 27600,
            "time": 31.08105,
            "velocity": 0.8818897637795275
          },
          {
            "duration": 0.07319812499999756,
            "durationTicks": 65,
            "midi": 37,
            "name": "C#2",
            "ticks": 27600,
            "time": 31.08105,
            "velocity": 0.8818897637795275
          },
          {
            "duration": 0.05292787499999818,
            "durationTicks": 47,
            "midi": 51,
            "name": "D#3",
            "ticks": 27760,
            "time": 31.26123,
            "velocity": 0.5354330708661418
          },
          {
            "duration": 0.06193687500000067,
            "durationTicks": 55,
            "midi": 51,
            "name": "D#3",
            "ticks": 27840,
            "time": 31.35132,
            "velocity": 0.47244094488188976
          },
          {
            "duration": 0.06418912499999863,
            "durationTicks": 57,
            "midi": 51,
            "name": "D#3",
            "ticks": 28080,
            "time": 31.62159,
            "velocity": 0.5354330708661418
          },
          {
            "duration": 0.06981975000000062,
            "durationTicks": 62,
            "midi": 44,
            "name": "G#2",
            "ticks": 28080,
            "time": 31.62159,
            "velocity": 0.6929133858267716
          },
          {
            "duration": 0.048423374999998714,
            "durationTicks": 43,
            "midi": 51,
            "name": "D#3",
            "ticks": 28240,
            "time": 31.80177,
            "velocity": 0.5354330708661418
          },
          {
            "duration": 0.0574323750000012,
            "durationTicks": 51,
            "midi": 51,
            "name": "D#3",
            "ticks": 28320,
            "time": 31.89186,
            "velocity": 0.47244094488188976
          },
          {
            "duration": 0.043918874999995694,
            "durationTicks": 39,
            "midi": 51,
            "name": "D#3",
            "ticks": 28560,
            "time": 32.162130000000005,
            "velocity": 0.47244094488188976
          },
          {
            "duration": 0.06981975000000062,
            "durationTicks": 62,
            "midi": 44,
            "name": "G#2",
            "ticks": 28560,
            "time": 32.162130000000005,
            "velocity": 0.8818897637795275
          },
          {
            "duration": 0.06981975000000062,
            "durationTicks": 62,
            "midi": 37,
            "name": "C#2",
            "ticks": 28560,
            "time": 32.162130000000005,
            "velocity": 0.8818897637795275
          },
          {
            "duration": 0.043918874999995694,
            "durationTicks": 39,
            "midi": 51,
            "name": "D#3",
            "ticks": 28720,
            "time": 32.342310000000005,
            "velocity": 0.5354330708661418
          },
          {
            "duration": 0.04617112500000076,
            "durationTicks": 41,
            "midi": 51,
            "name": "D#3",
            "ticks": 28800,
            "time": 32.4324,
            "velocity": 0.5354330708661418
          },
          {
            "duration": 0.07770262500000058,
            "durationTicks": 69,
            "midi": 44,
            "name": "G#2",
            "ticks": 29040,
            "time": 32.70267,
            "velocity": 0.6929133858267716
          },
          {
            "duration": 0.05292787500000884,
            "durationTicks": 47,
            "midi": 51,
            "name": "D#3",
            "ticks": 29040,
            "time": 32.70267,
            "velocity": 0.47244094488188976
          },
          {
            "duration": 0.03490987499999676,
            "durationTicks": 31,
            "midi": 51,
            "name": "D#3",
            "ticks": 29200,
            "time": 32.882850000000005,
            "velocity": 0.4015748031496063
          },
          {
            "duration": 0.05180174999999565,
            "durationTicks": 46,
            "midi": 51,
            "name": "D#3",
            "ticks": 29280,
            "time": 32.97294,
            "velocity": 0.47244094488188976
          },
          {
            "duration": 0.06306299999999965,
            "durationTicks": 56,
            "midi": 51,
            "name": "D#3",
            "ticks": 29520,
            "time": 33.243210000000005,
            "velocity": 0.6062992125984252
          },
          {
            "duration": 0.07207199999999858,
            "durationTicks": 64,
            "midi": 44,
            "name": "G#2",
            "ticks": 29520,
            "time": 33.243210000000005,
            "velocity": 0.8818897637795275
          },
          {
            "duration": 0.07319812499999756,
            "durationTicks": 65,
            "midi": 37,
            "name": "C#2",
            "ticks": 29520,
            "time": 33.243210000000005,
            "velocity": 0.8818897637795275
          },
          {
            "duration": 0.05292787499999463,
            "durationTicks": 47,
            "midi": 51,
            "name": "D#3",
            "ticks": 29680,
            "time": 33.423390000000005,
            "velocity": 0.5354330708661418
          },
          {
            "duration": 0.06193687500000067,
            "durationTicks": 55,
            "midi": 51,
            "name": "D#3",
            "ticks": 29760,
            "time": 33.51348,
            "velocity": 0.47244094488188976
          },
          {
            "duration": 0.06418912500000573,
            "durationTicks": 57,
            "midi": 51,
            "name": "D#3",
            "ticks": 30000,
            "time": 33.78375,
            "velocity": 0.5354330708661418
          },
          {
            "duration": 0.06981975000000773,
            "durationTicks": 62,
            "midi": 44,
            "name": "G#2",
            "ticks": 30000,
            "time": 33.78375,
            "velocity": 0.6929133858267716
          },
          {
            "duration": 0.048423374999998714,
            "durationTicks": 43,
            "midi": 51,
            "name": "D#3",
            "ticks": 30160,
            "time": 33.963930000000005,
            "velocity": 0.5354330708661418
          },
          {
            "duration": 0.057432375000004754,
            "durationTicks": 51,
            "midi": 51,
            "name": "D#3",
            "ticks": 30240,
            "time": 34.05402,
            "velocity": 0.47244094488188976
          },
          {
            "duration": 0.043918874999995694,
            "durationTicks": 39,
            "midi": 51,
            "name": "D#3",
            "ticks": 30480,
            "time": 34.324290000000005,
            "velocity": 0.47244094488188976
          },
          {
            "duration": 0.06981975000000062,
            "durationTicks": 62,
            "midi": 44,
            "name": "G#2",
            "ticks": 30480,
            "time": 34.324290000000005,
            "velocity": 0.8818897637795275
          },
          {
            "duration": 0.06981975000000062,
            "durationTicks": 62,
            "midi": 37,
            "name": "C#2",
            "ticks": 30480,
            "time": 34.324290000000005,
            "velocity": 0.8818897637795275
          },
          {
            "duration": 0.043918874999995694,
            "durationTicks": 39,
            "midi": 51,
            "name": "D#3",
            "ticks": 30640,
            "time": 34.504470000000005,
            "velocity": 0.5354330708661418
          },
          {
            "duration": 0.04617112499999365,
            "durationTicks": 41,
            "midi": 51,
            "name": "D#3",
            "ticks": 30720,
            "time": 34.59456,
            "velocity": 0.5354330708661418
          },
          {
            "duration": 0.07770262500000058,
            "durationTicks": 69,
            "midi": 44,
            "name": "G#2",
            "ticks": 30960,
            "time": 34.86483,
            "velocity": 0.6929133858267716
          },
          {
            "duration": 0.052927875000001734,
            "durationTicks": 47,
            "midi": 51,
            "name": "D#3",
            "ticks": 30960,
            "time": 34.86483,
            "velocity": 0.47244094488188976
          },
          {
            "duration": 0.03490987499999676,
            "durationTicks": 31,
            "midi": 51,
            "name": "D#3",
            "ticks": 31120,
            "time": 35.04501,
            "velocity": 0.4015748031496063
          },
          {
            "duration": 0.05180174999999565,
            "durationTicks": 46,
            "midi": 51,
            "name": "D#3",
            "ticks": 31200,
            "time": 35.1351,
            "velocity": 0.47244094488188976
          },
          {
            "duration": 0.06306299999999254,
            "durationTicks": 56,
            "midi": 51,
            "name": "D#3",
            "ticks": 31440,
            "time": 35.405370000000005,
            "velocity": 0.6062992125984252
          },
          {
            "duration": 0.07207199999999858,
            "durationTicks": 64,
            "midi": 44,
            "name": "G#2",
            "ticks": 31440,
            "time": 35.405370000000005,
            "velocity": 0.8818897637795275
          },
          {
            "duration": 0.07319812499999756,
            "durationTicks": 65,
            "midi": 37,
            "name": "C#2",
            "ticks": 31440,
            "time": 35.405370000000005,
            "velocity": 0.8818897637795275
          },
          {
            "duration": 0.05292787500000884,
            "durationTicks": 47,
            "midi": 51,
            "name": "D#3",
            "ticks": 31600,
            "time": 35.58555,
            "velocity": 0.5354330708661418
          },
          {
            "duration": 0.06193687500000067,
            "durationTicks": 55,
            "midi": 51,
            "name": "D#3",
            "ticks": 31680,
            "time": 35.67564,
            "velocity": 0.47244094488188976
          },
          {
            "duration": 0.06418912500000573,
            "durationTicks": 57,
            "midi": 51,
            "name": "D#3",
            "ticks": 31920,
            "time": 35.94591,
            "velocity": 0.5354330708661418
          },
          {
            "duration": 0.06981975000000062,
            "durationTicks": 62,
            "midi": 44,
            "name": "G#2",
            "ticks": 31920,
            "time": 35.94591,
            "velocity": 0.6929133858267716
          },
          {
            "duration": 0.04842337500000582,
            "durationTicks": 43,
            "midi": 51,
            "name": "D#3",
            "ticks": 32080,
            "time": 36.12609,
            "velocity": 0.5354330708661418
          },
          {
            "duration": 0.057432375000004754,
            "durationTicks": 51,
            "midi": 51,
            "name": "D#3",
            "ticks": 32160,
            "time": 36.21618,
            "velocity": 0.47244094488188976
          },
          {
            "duration": 0.043918874999995694,
            "durationTicks": 39,
            "midi": 51,
            "name": "D#3",
            "ticks": 32400,
            "time": 36.486450000000005,
            "velocity": 0.47244094488188976
          },
          {
            "duration": 0.06981974999999352,
            "durationTicks": 62,
            "midi": 44,
            "name": "G#2",
            "ticks": 32400,
            "time": 36.486450000000005,
            "velocity": 0.8818897637795275
          },
          {
            "duration": 0.06981974999999352,
            "durationTicks": 62,
            "midi": 37,
            "name": "C#2",
            "ticks": 32400,
            "time": 36.486450000000005,
            "velocity": 0.8818897637795275
          },
          {
            "duration": 0.043918875000009905,
            "durationTicks": 39,
            "midi": 51,
            "name": "D#3",
            "ticks": 32560,
            "time": 36.66663,
            "velocity": 0.5354330708661418
          },
          {
            "duration": 0.04617112499999365,
            "durationTicks": 41,
            "midi": 51,
            "name": "D#3",
            "ticks": 32640,
            "time": 36.75672,
            "velocity": 0.5354330708661418
          },
          {
            "duration": 0.07770262500000058,
            "durationTicks": 69,
            "midi": 44,
            "name": "G#2",
            "ticks": 32880,
            "time": 37.02699,
            "velocity": 0.6929133858267716
          },
          {
            "duration": 0.052927875000001734,
            "durationTicks": 47,
            "midi": 51,
            "name": "D#3",
            "ticks": 32880,
            "time": 37.02699,
            "velocity": 0.47244094488188976
          },
          {
            "duration": 0.03490987499999676,
            "durationTicks": 31,
            "midi": 51,
            "name": "D#3",
            "ticks": 33040,
            "time": 37.20717,
            "velocity": 0.4015748031496063
          },
          {
            "duration": 0.05180174999999565,
            "durationTicks": 46,
            "midi": 51,
            "name": "D#3",
            "ticks": 33120,
            "time": 37.29726,
            "velocity": 0.47244094488188976
          },
          {
            "duration": 0.06306299999999254,
            "durationTicks": 56,
            "midi": 51,
            "name": "D#3",
            "ticks": 33360,
            "time": 37.567530000000005,
            "velocity": 0.6062992125984252
          },
          {
            "duration": 0.07207199999999858,
            "durationTicks": 64,
            "midi": 44,
            "name": "G#2",
            "ticks": 33360,
            "time": 37.567530000000005,
            "velocity": 0.8818897637795275
          },
          {
            "duration": 0.07319812499999756,
            "durationTicks": 65,
            "midi": 37,
            "name": "C#2",
            "ticks": 33360,
            "time": 37.567530000000005,
            "velocity": 0.8818897637795275
          },
          {
            "duration": 0.05292787500000884,
            "durationTicks": 47,
            "midi": 51,
            "name": "D#3",
            "ticks": 33520,
            "time": 37.74771,
            "velocity": 0.5354330708661418
          },
          {
            "duration": 0.06193687500000067,
            "durationTicks": 55,
            "midi": 51,
            "name": "D#3",
            "ticks": 33600,
            "time": 37.8378,
            "velocity": 0.47244094488188976
          },
          {
            "duration": 0.06418912500000573,
            "durationTicks": 57,
            "midi": 51,
            "name": "D#3",
            "ticks": 33840,
            "time": 38.10807,
            "velocity": 0.5354330708661418
          },
          {
            "duration": 0.06981975000000062,
            "durationTicks": 62,
            "midi": 44,
            "name": "G#2",
            "ticks": 33840,
            "time": 38.10807,
            "velocity": 0.6929133858267716
          },
          {
            "duration": 0.04842337500000582,
            "durationTicks": 43,
            "midi": 51,
            "name": "D#3",
            "ticks": 34000,
            "time": 38.28825,
            "velocity": 0.5354330708661418
          },
          {
            "duration": 0.057432375000004754,
            "durationTicks": 51,
            "midi": 51,
            "name": "D#3",
            "ticks": 34080,
            "time": 38.37834,
            "velocity": 0.47244094488188976
          },
          {
            "duration": 0.043918874999995694,
            "durationTicks": 39,
            "midi": 51,
            "name": "D#3",
            "ticks": 34320,
            "time": 38.648610000000005,
            "velocity": 0.47244094488188976
          },
          {
            "duration": 0.06981974999999352,
            "durationTicks": 62,
            "midi": 44,
            "name": "G#2",
            "ticks": 34320,
            "time": 38.648610000000005,
            "velocity": 0.8818897637795275
          },
          {
            "duration": 0.06981974999999352,
            "durationTicks": 62,
            "midi": 37,
            "name": "C#2",
            "ticks": 34320,
            "time": 38.648610000000005,
            "velocity": 0.8818897637795275
          },
          {
            "duration": 0.043918875000009905,
            "durationTicks": 39,
            "midi": 51,
            "name": "D#3",
            "ticks": 34480,
            "time": 38.82879,
            "velocity": 0.5354330708661418
          },
          {
            "duration": 0.04617112499999365,
            "durationTicks": 41,
            "midi": 51,
            "name": "D#3",
            "ticks": 34560,
            "time": 38.91888,
            "velocity": 0.5354330708661418
          },
          {
            "duration": 0.07770262500000058,
            "durationTicks": 69,
            "midi": 44,
            "name": "G#2",
            "ticks": 34800,
            "time": 39.18915,
            "velocity": 0.6929133858267716
          },
          {
            "duration": 0.052927875000001734,
            "durationTicks": 47,
            "midi": 51,
            "name": "D#3",
            "ticks": 34800,
            "time": 39.18915,
            "velocity": 0.47244094488188976
          },
          {
            "duration": 0.03490987499999676,
            "durationTicks": 31,
            "midi": 51,
            "name": "D#3",
            "ticks": 34960,
            "time": 39.36933,
            "velocity": 0.4015748031496063
          },
          {
            "duration": 0.05180174999999565,
            "durationTicks": 46,
            "midi": 51,
            "name": "D#3",
            "ticks": 35040,
            "time": 39.45942,
            "velocity": 0.47244094488188976
          },
          {
            "duration": 0.06306299999999254,
            "durationTicks": 56,
            "midi": 51,
            "name": "D#3",
            "ticks": 35280,
            "time": 39.729690000000005,
            "velocity": 0.6062992125984252
          },
          {
            "duration": 0.07207199999999858,
            "durationTicks": 64,
            "midi": 44,
            "name": "G#2",
            "ticks": 35280,
            "time": 39.729690000000005,
            "velocity": 0.8818897637795275
          },
          {
            "duration": 0.07319812499999756,
            "durationTicks": 65,
            "midi": 37,
            "name": "C#2",
            "ticks": 35280,
            "time": 39.729690000000005,
            "velocity": 0.8818897637795275
          },
          {
            "duration": 0.05292787500000884,
            "durationTicks": 47,
            "midi": 51,
            "name": "D#3",
            "ticks": 35440,
            "time": 39.90987,
            "velocity": 0.5354330708661418
          },
          {
            "duration": 0.06193687500000067,
            "durationTicks": 55,
            "midi": 51,
            "name": "D#3",
            "ticks": 35520,
            "time": 39.99996,
            "velocity": 0.47244094488188976
          },
          {
            "duration": 0.06418912500000573,
            "durationTicks": 57,
            "midi": 51,
            "name": "D#3",
            "ticks": 35760,
            "time": 40.27023,
            "velocity": 0.5354330708661418
          },
          {
            "duration": 0.06981975000000062,
            "durationTicks": 62,
            "midi": 44,
            "name": "G#2",
            "ticks": 35760,
            "time": 40.27023,
            "velocity": 0.6929133858267716
          },
          {
            "duration": 0.04842337500000582,
            "durationTicks": 43,
            "midi": 51,
            "name": "D#3",
            "ticks": 35920,
            "time": 40.45041,
            "velocity": 0.5354330708661418
          },
          {
            "duration": 0.057432375000004754,
            "durationTicks": 51,
            "midi": 51,
            "name": "D#3",
            "ticks": 36000,
            "time": 40.5405,
            "velocity": 0.47244094488188976
          },
          {
            "duration": 0.06981975000000062,
            "durationTicks": 62,
            "midi": 44,
            "name": "G#2",
            "ticks": 36120,
            "time": 40.675635,
            "velocity": 0.7874015748031497
          },
          {
            "duration": 0.0439188750000028,
            "durationTicks": 39,
            "midi": 51,
            "name": "D#3",
            "ticks": 36140,
            "time": 40.6981575,
            "velocity": 0.6062992125984252
          },
          {
            "duration": 0.043918875000009905,
            "durationTicks": 39,
            "midi": 51,
            "name": "D#3",
            "ticks": 36400,
            "time": 40.99095,
            "velocity": 0.5039370078740157
          },
          {
            "duration": 0.04617112499999365,
            "durationTicks": 41,
            "midi": 51,
            "name": "D#3",
            "ticks": 36480,
            "time": 41.08104,
            "velocity": 0.5354330708661418
          },
          {
            "duration": 0.07770262500000058,
            "durationTicks": 69,
            "midi": 44,
            "name": "G#2",
            "ticks": 36720,
            "time": 41.35131,
            "velocity": 0.6929133858267716
          },
          {
            "duration": 0.052927875000001734,
            "durationTicks": 47,
            "midi": 51,
            "name": "D#3",
            "ticks": 36720,
            "time": 41.35131,
            "velocity": 0.47244094488188976
          },
          {
            "duration": 0.03490987499999676,
            "durationTicks": 31,
            "midi": 51,
            "name": "D#3",
            "ticks": 36880,
            "time": 41.53149,
            "velocity": 0.4015748031496063
          },
          {
            "duration": 0.05180174999999565,
            "durationTicks": 46,
            "midi": 51,
            "name": "D#3",
            "ticks": 36960,
            "time": 41.62158,
            "velocity": 0.47244094488188976
          },
          {
            "duration": 0.06306299999999254,
            "durationTicks": 56,
            "midi": 51,
            "name": "D#3",
            "ticks": 37200,
            "time": 41.891850000000005,
            "velocity": 0.6062992125984252
          },
          {
            "duration": 0.07207199999999858,
            "durationTicks": 64,
            "midi": 44,
            "name": "G#2",
            "ticks": 37200,
            "time": 41.891850000000005,
            "velocity": 0.8818897637795275
          },
          {
            "duration": 0.07319812499999756,
            "durationTicks": 65,
            "midi": 37,
            "name": "C#2",
            "ticks": 37200,
            "time": 41.891850000000005,
            "velocity": 0.8818897637795275
          },
          {
            "duration": 0.05292787500000884,
            "durationTicks": 47,
            "midi": 51,
            "name": "D#3",
            "ticks": 37360,
            "time": 42.07203,
            "velocity": 0.5354330708661418
          },
          {
            "duration": 0.06193687500000067,
            "durationTicks": 55,
            "midi": 51,
            "name": "D#3",
            "ticks": 37440,
            "time": 42.16212,
            "velocity": 0.47244094488188976
          },
          {
            "duration": 0.06418912500000573,
            "durationTicks": 57,
            "midi": 51,
            "name": "D#3",
            "ticks": 37680,
            "time": 42.43239,
            "velocity": 0.5354330708661418
          },
          {
            "duration": 0.06981975000000062,
            "durationTicks": 62,
            "midi": 44,
            "name": "G#2",
            "ticks": 37680,
            "time": 42.43239,
            "velocity": 0.6929133858267716
          },
          {
            "duration": 0.04842337500000582,
            "durationTicks": 43,
            "midi": 51,
            "name": "D#3",
            "ticks": 37840,
            "time": 42.61257,
            "velocity": 0.5354330708661418
          },
          {
            "duration": 0.057432375000004754,
            "durationTicks": 51,
            "midi": 51,
            "name": "D#3",
            "ticks": 37920,
            "time": 42.70266,
            "velocity": 0.47244094488188976
          },
          {
            "duration": 0.043918874999995694,
            "durationTicks": 39,
            "midi": 51,
            "name": "D#3",
            "ticks": 38160,
            "time": 42.972930000000005,
            "velocity": 0.47244094488188976
          },
          {
            "duration": 0.06981974999999352,
            "durationTicks": 62,
            "midi": 44,
            "name": "G#2",
            "ticks": 38160,
            "time": 42.972930000000005,
            "velocity": 0.8818897637795275
          },
          {
            "duration": 0.06981974999999352,
            "durationTicks": 62,
            "midi": 37,
            "name": "C#2",
            "ticks": 38160,
            "time": 42.972930000000005,
            "velocity": 0.8818897637795275
          },
          {
            "duration": 0.043918875000009905,
            "durationTicks": 39,
            "midi": 51,
            "name": "D#3",
            "ticks": 38320,
            "time": 43.15311,
            "velocity": 0.5354330708661418
          },
          {
            "duration": 0.04617112499999365,
            "durationTicks": 41,
            "midi": 51,
            "name": "D#3",
            "ticks": 38400,
            "time": 43.2432,
            "velocity": 0.5354330708661418
          },
          {
            "duration": 0.07770262500000058,
            "durationTicks": 69,
            "midi": 44,
            "name": "G#2",
            "ticks": 38640,
            "time": 43.51347,
            "velocity": 0.6929133858267716
          },
          {
            "duration": 0.052927875000001734,
            "durationTicks": 47,
            "midi": 51,
            "name": "D#3",
            "ticks": 38640,
            "time": 43.51347,
            "velocity": 0.47244094488188976
          },
          {
            "duration": 0.03490987499999676,
            "durationTicks": 31,
            "midi": 51,
            "name": "D#3",
            "ticks": 38800,
            "time": 43.69365,
            "velocity": 0.4015748031496063
          },
          {
            "duration": 0.05180174999999565,
            "durationTicks": 46,
            "midi": 51,
            "name": "D#3",
            "ticks": 38880,
            "time": 43.78374,
            "velocity": 0.47244094488188976
          },
          {
            "duration": 0.06306299999999254,
            "durationTicks": 56,
            "midi": 51,
            "name": "D#3",
            "ticks": 39120,
            "time": 44.054010000000005,
            "velocity": 0.6062992125984252
          },
          {
            "duration": 0.07207199999999858,
            "durationTicks": 64,
            "midi": 44,
            "name": "G#2",
            "ticks": 39120,
            "time": 44.054010000000005,
            "velocity": 0.8818897637795275
          },
          {
            "duration": 0.07319812499999756,
            "durationTicks": 65,
            "midi": 37,
            "name": "C#2",
            "ticks": 39120,
            "time": 44.054010000000005,
            "velocity": 0.8818897637795275
          },
          {
            "duration": 0.05292787500000884,
            "durationTicks": 47,
            "midi": 51,
            "name": "D#3",
            "ticks": 39280,
            "time": 44.23419,
            "velocity": 0.5354330708661418
          },
          {
            "duration": 0.06193687500000067,
            "durationTicks": 55,
            "midi": 51,
            "name": "D#3",
            "ticks": 39360,
            "time": 44.32428,
            "velocity": 0.47244094488188976
          },
          {
            "duration": 0.06418912500000573,
            "durationTicks": 57,
            "midi": 51,
            "name": "D#3",
            "ticks": 39600,
            "time": 44.59455,
            "velocity": 0.5354330708661418
          },
          {
            "duration": 0.06981975000000062,
            "durationTicks": 62,
            "midi": 44,
            "name": "G#2",
            "ticks": 39600,
            "time": 44.59455,
            "velocity": 0.6929133858267716
          },
          {
            "duration": 0.04842337500000582,
            "durationTicks": 43,
            "midi": 51,
            "name": "D#3",
            "ticks": 39760,
            "time": 44.77473,
            "velocity": 0.5354330708661418
          },
          {
            "duration": 0.057432375000004754,
            "durationTicks": 51,
            "midi": 51,
            "name": "D#3",
            "ticks": 39840,
            "time": 44.86482,
            "velocity": 0.47244094488188976
          },
          {
            "duration": 0.043918874999995694,
            "durationTicks": 39,
            "midi": 51,
            "name": "D#3",
            "ticks": 40080,
            "time": 45.135090000000005,
            "velocity": 0.47244094488188976
          },
          {
            "duration": 0.06981974999999352,
            "durationTicks": 62,
            "midi": 44,
            "name": "G#2",
            "ticks": 40080,
            "time": 45.135090000000005,
            "velocity": 0.8818897637795275
          },
          {
            "duration": 0.06981974999999352,
            "durationTicks": 62,
            "midi": 37,
            "name": "C#2",
            "ticks": 40080,
            "time": 45.135090000000005,
            "velocity": 0.8818897637795275
          },
          {
            "duration": 0.043918875000009905,
            "durationTicks": 39,
            "midi": 51,
            "name": "D#3",
            "ticks": 40240,
            "time": 45.31527,
            "velocity": 0.5354330708661418
          },
          {
            "duration": 0.04617112499999365,
            "durationTicks": 41,
            "midi": 51,
            "name": "D#3",
            "ticks": 40320,
            "time": 45.40536,
            "velocity": 0.5354330708661418
          },
          {
            "duration": 0.07770262500000058,
            "durationTicks": 69,
            "midi": 44,
            "name": "G#2",
            "ticks": 40560,
            "time": 45.67563,
            "velocity": 0.6929133858267716
          },
          {
            "duration": 0.052927875000001734,
            "durationTicks": 47,
            "midi": 51,
            "name": "D#3",
            "ticks": 40560,
            "time": 45.67563,
            "velocity": 0.47244094488188976
          },
          {
            "duration": 0.03490987499999676,
            "durationTicks": 31,
            "midi": 51,
            "name": "D#3",
            "ticks": 40720,
            "time": 45.85581,
            "velocity": 0.4015748031496063
          },
          {
            "duration": 0.05180174999999565,
            "durationTicks": 46,
            "midi": 51,
            "name": "D#3",
            "ticks": 40800,
            "time": 45.9459,
            "velocity": 0.47244094488188976
          },
          {
            "duration": 0.06306299999999254,
            "durationTicks": 56,
            "midi": 51,
            "name": "D#3",
            "ticks": 41040,
            "time": 46.216170000000005,
            "velocity": 0.6062992125984252
          },
          {
            "duration": 0.07207199999999858,
            "durationTicks": 64,
            "midi": 44,
            "name": "G#2",
            "ticks": 41040,
            "time": 46.216170000000005,
            "velocity": 0.8818897637795275
          },
          {
            "duration": 0.07319812499999756,
            "durationTicks": 65,
            "midi": 37,
            "name": "C#2",
            "ticks": 41040,
            "time": 46.216170000000005,
            "velocity": 0.8818897637795275
          },
          {
            "duration": 0.05292787500000884,
            "durationTicks": 47,
            "midi": 51,
            "name": "D#3",
            "ticks": 41200,
            "time": 46.39635,
            "velocity": 0.5354330708661418
          },
          {
            "duration": 0.06193687500000067,
            "durationTicks": 55,
            "midi": 51,
            "name": "D#3",
            "ticks": 41280,
            "time": 46.48644,
            "velocity": 0.47244094488188976
          },
          {
            "duration": 0.06418912500000573,
            "durationTicks": 57,
            "midi": 51,
            "name": "D#3",
            "ticks": 41520,
            "time": 46.75671,
            "velocity": 0.5354330708661418
          },
          {
            "duration": 0.06981975000000062,
            "durationTicks": 62,
            "midi": 46,
            "name": "A#2",
            "ticks": 41520,
            "time": 46.75671,
            "velocity": 0.8818897637795275
          },
          {
            "duration": 0.04842337500000582,
            "durationTicks": 43,
            "midi": 51,
            "name": "D#3",
            "ticks": 41680,
            "time": 46.93689,
            "velocity": 0.5354330708661418
          },
          {
            "duration": 0.057432375000004754,
            "durationTicks": 51,
            "midi": 51,
            "name": "D#3",
            "ticks": 41760,
            "time": 47.02698,
            "velocity": 0.47244094488188976
          },
          {
            "duration": 0.06981975000000062,
            "durationTicks": 62,
            "midi": 42,
            "name": "F#2",
            "ticks": 41760,
            "time": 47.02698,
            "velocity": 0.8818897637795275
          },
          {
            "duration": 0.011261249999996892,
            "durationTicks": 10,
            "midi": 48,
            "name": "C3",
            "ticks": 41930,
            "time": 47.218421250000006,
            "velocity": 0.3543307086614173
          },
          {
            "duration": 0.06981974999999352,
            "durationTicks": 62,
            "midi": 44,
            "name": "G#2",
            "ticks": 42000,
            "time": 47.297250000000005,
            "velocity": 0.8818897637795275
          },
          {
            "duration": 0.043918874999995694,
            "durationTicks": 39,
            "midi": 51,
            "name": "D#3",
            "ticks": 42000,
            "time": 47.297250000000005,
            "velocity": 0.47244094488188976
          },
          {
            "duration": 0.011261250000003997,
            "durationTicks": 10,
            "midi": 47,
            "name": "B2",
            "ticks": 42010,
            "time": 47.30851125,
            "velocity": 0.4251968503937008
          },
          {
            "duration": 0.043918875000009905,
            "durationTicks": 39,
            "midi": 51,
            "name": "D#3",
            "ticks": 42160,
            "time": 47.47743,
            "velocity": 0.5354330708661418
          },
          {
            "duration": 0.04617112499999365,
            "durationTicks": 41,
            "midi": 51,
            "name": "D#3",
            "ticks": 42240,
            "time": 47.56752,
            "velocity": 0.5354330708661418
          },
          {
            "duration": 0.07770262500000058,
            "durationTicks": 69,
            "midi": 44,
            "name": "G#2",
            "ticks": 42480,
            "time": 47.83779,
            "velocity": 0.6929133858267716
          },
          {
            "duration": 0.052927875000001734,
            "durationTicks": 47,
            "midi": 51,
            "name": "D#3",
            "ticks": 42480,
            "time": 47.83779,
            "velocity": 0.47244094488188976
          },
          {
            "duration": 0.03490987499999676,
            "durationTicks": 31,
            "midi": 51,
            "name": "D#3",
            "ticks": 42640,
            "time": 48.01797,
            "velocity": 0.4015748031496063
          },
          {
            "duration": 0.05180174999999565,
            "durationTicks": 46,
            "midi": 51,
            "name": "D#3",
            "ticks": 42720,
            "time": 48.10806,
            "velocity": 0.47244094488188976
          },
          {
            "duration": 0.06306299999999254,
            "durationTicks": 56,
            "midi": 51,
            "name": "D#3",
            "ticks": 42960,
            "time": 48.378330000000005,
            "velocity": 0.6062992125984252
          },
          {
            "duration": 0.07207199999999858,
            "durationTicks": 64,
            "midi": 44,
            "name": "G#2",
            "ticks": 42960,
            "time": 48.378330000000005,
            "velocity": 0.8818897637795275
          },
          {
            "duration": 0.07319812499999756,
            "durationTicks": 65,
            "midi": 37,
            "name": "C#2",
            "ticks": 42960,
            "time": 48.378330000000005,
            "velocity": 0.8818897637795275
          },
          {
            "duration": 0.05292787500000884,
            "durationTicks": 47,
            "midi": 51,
            "name": "D#3",
            "ticks": 43120,
            "time": 48.55851,
            "velocity": 0.5354330708661418
          },
          {
            "duration": 0.06193687500000067,
            "durationTicks": 55,
            "midi": 51,
            "name": "D#3",
            "ticks": 43200,
            "time": 48.6486,
            "velocity": 0.47244094488188976
          },
          {
            "duration": 0.06418912500000573,
            "durationTicks": 57,
            "midi": 51,
            "name": "D#3",
            "ticks": 43440,
            "time": 48.91887,
            "velocity": 0.5354330708661418
          },
          {
            "duration": 0.06981975000000062,
            "durationTicks": 62,
            "midi": 44,
            "name": "G#2",
            "ticks": 43440,
            "time": 48.91887,
            "velocity": 0.6929133858267716
          },
          {
            "duration": 0.04842337500000582,
            "durationTicks": 43,
            "midi": 51,
            "name": "D#3",
            "ticks": 43600,
            "time": 49.09905,
            "velocity": 0.5354330708661418
          },
          {
            "duration": 0.057432375000004754,
            "durationTicks": 51,
            "midi": 51,
            "name": "D#3",
            "ticks": 43680,
            "time": 49.18914,
            "velocity": 0.47244094488188976
          },
          {
            "duration": 0.043918874999995694,
            "durationTicks": 39,
            "midi": 51,
            "name": "D#3",
            "ticks": 43920,
            "time": 49.459410000000005,
            "velocity": 0.47244094488188976
          },
          {
            "duration": 0.06981974999999352,
            "durationTicks": 62,
            "midi": 44,
            "name": "G#2",
            "ticks": 43920,
            "time": 49.459410000000005,
            "velocity": 0.8818897637795275
          },
          {
            "duration": 0.06981974999999352,
            "durationTicks": 62,
            "midi": 37,
            "name": "C#2",
            "ticks": 43920,
            "time": 49.459410000000005,
            "velocity": 0.8818897637795275
          },
          {
            "duration": 0.043918875000009905,
            "durationTicks": 39,
            "midi": 51,
            "name": "D#3",
            "ticks": 44080,
            "time": 49.63959,
            "velocity": 0.5354330708661418
          },
          {
            "duration": 0.04617112499999365,
            "durationTicks": 41,
            "midi": 51,
            "name": "D#3",
            "ticks": 44160,
            "time": 49.72968,
            "velocity": 0.5354330708661418
          },
          {
            "duration": 0.07770262500000058,
            "durationTicks": 69,
            "midi": 44,
            "name": "G#2",
            "ticks": 44400,
            "time": 49.99995,
            "velocity": 0.6929133858267716
          },
          {
            "duration": 0.052927875000001734,
            "durationTicks": 47,
            "midi": 51,
            "name": "D#3",
            "ticks": 44400,
            "time": 49.99995,
            "velocity": 0.47244094488188976
          },
          {
            "duration": 0.03490987499999676,
            "durationTicks": 31,
            "midi": 51,
            "name": "D#3",
            "ticks": 44560,
            "time": 50.18013,
            "velocity": 0.4015748031496063
          },
          {
            "duration": 0.05180174999999565,
            "durationTicks": 46,
            "midi": 51,
            "name": "D#3",
            "ticks": 44640,
            "time": 50.27022,
            "velocity": 0.47244094488188976
          },
          {
            "duration": 0.06306299999999254,
            "durationTicks": 56,
            "midi": 51,
            "name": "D#3",
            "ticks": 44880,
            "time": 50.540490000000005,
            "velocity": 0.6062992125984252
          },
          {
            "duration": 0.07207199999999858,
            "durationTicks": 64,
            "midi": 44,
            "name": "G#2",
            "ticks": 44880,
            "time": 50.540490000000005,
            "velocity": 0.8818897637795275
          },
          {
            "duration": 0.07319812499999756,
            "durationTicks": 65,
            "midi": 37,
            "name": "C#2",
            "ticks": 44880,
            "time": 50.540490000000005,
            "velocity": 0.8818897637795275
          },
          {
            "duration": 0.05292787500000884,
            "durationTicks": 47,
            "midi": 51,
            "name": "D#3",
            "ticks": 45040,
            "time": 50.72067,
            "velocity": 0.5354330708661418
          },
          {
            "duration": 0.06193687500000067,
            "durationTicks": 55,
            "midi": 51,
            "name": "D#3",
            "ticks": 45120,
            "time": 50.81076,
            "velocity": 0.47244094488188976
          },
          {
            "duration": 0.06418912500000573,
            "durationTicks": 57,
            "midi": 51,
            "name": "D#3",
            "ticks": 45360,
            "time": 51.08103,
            "velocity": 0.5354330708661418
          },
          {
            "duration": 0.06981975000000062,
            "durationTicks": 62,
            "midi": 44,
            "name": "G#2",
            "ticks": 45360,
            "time": 51.08103,
            "velocity": 0.6929133858267716
          },
          {
            "duration": 0.04842337500000582,
            "durationTicks": 43,
            "midi": 51,
            "name": "D#3",
            "ticks": 45520,
            "time": 51.26121,
            "velocity": 0.5354330708661418
          },
          {
            "duration": 0.057432375000004754,
            "durationTicks": 51,
            "midi": 51,
            "name": "D#3",
            "ticks": 45600,
            "time": 51.3513,
            "velocity": 0.47244094488188976
          },
          {
            "duration": 0.043918874999995694,
            "durationTicks": 39,
            "midi": 51,
            "name": "D#3",
            "ticks": 45840,
            "time": 51.621570000000006,
            "velocity": 0.47244094488188976
          },
          {
            "duration": 0.06981974999999352,
            "durationTicks": 62,
            "midi": 44,
            "name": "G#2",
            "ticks": 45840,
            "time": 51.621570000000006,
            "velocity": 0.8818897637795275
          },
          {
            "duration": 0.06981974999999352,
            "durationTicks": 62,
            "midi": 37,
            "name": "C#2",
            "ticks": 45840,
            "time": 51.621570000000006,
            "velocity": 0.8818897637795275
          },
          {
            "duration": 0.043918875000009905,
            "durationTicks": 39,
            "midi": 51,
            "name": "D#3",
            "ticks": 46000,
            "time": 51.80175,
            "velocity": 0.5354330708661418
          },
          {
            "duration": 0.04617112499999365,
            "durationTicks": 41,
            "midi": 51,
            "name": "D#3",
            "ticks": 46080,
            "time": 51.89184,
            "velocity": 0.5354330708661418
          },
          {
            "duration": 0.07770262500000058,
            "durationTicks": 69,
            "midi": 44,
            "name": "G#2",
            "ticks": 46320,
            "time": 52.16211,
            "velocity": 0.6929133858267716
          },
          {
            "duration": 0.052927875000001734,
            "durationTicks": 47,
            "midi": 51,
            "name": "D#3",
            "ticks": 46320,
            "time": 52.16211,
            "velocity": 0.47244094488188976
          },
          {
            "duration": 0.03490987499999676,
            "durationTicks": 31,
            "midi": 51,
            "name": "D#3",
            "ticks": 46480,
            "time": 52.34229,
            "velocity": 0.4015748031496063
          },
          {
            "duration": 0.05180174999999565,
            "durationTicks": 46,
            "midi": 51,
            "name": "D#3",
            "ticks": 46560,
            "time": 52.43238,
            "velocity": 0.47244094488188976
          },
          {
            "duration": 0.06306299999999254,
            "durationTicks": 56,
            "midi": 51,
            "name": "D#3",
            "ticks": 46800,
            "time": 52.702650000000006,
            "velocity": 0.6062992125984252
          },
          {
            "duration": 0.07207199999999858,
            "durationTicks": 64,
            "midi": 44,
            "name": "G#2",
            "ticks": 46800,
            "time": 52.702650000000006,
            "velocity": 0.8818897637795275
          },
          {
            "duration": 0.07319812499999756,
            "durationTicks": 65,
            "midi": 37,
            "name": "C#2",
            "ticks": 46800,
            "time": 52.702650000000006,
            "velocity": 0.8818897637795275
          },
          {
            "duration": 0.05292787500000884,
            "durationTicks": 47,
            "midi": 51,
            "name": "D#3",
            "ticks": 46960,
            "time": 52.88283,
            "velocity": 0.5354330708661418
          },
          {
            "duration": 0.06193687500000067,
            "durationTicks": 55,
            "midi": 51,
            "name": "D#3",
            "ticks": 47040,
            "time": 52.97292,
            "velocity": 0.47244094488188976
          },
          {
            "duration": 0.06418912500000573,
            "durationTicks": 57,
            "midi": 51,
            "name": "D#3",
            "ticks": 47280,
            "time": 53.24319,
            "velocity": 0.5354330708661418
          },
          {
            "duration": 0.06981975000000062,
            "durationTicks": 62,
            "midi": 44,
            "name": "G#2",
            "ticks": 47280,
            "time": 53.24319,
            "velocity": 0.6929133858267716
          },
          {
            "duration": 0.04842337500000582,
            "durationTicks": 43,
            "midi": 51,
            "name": "D#3",
            "ticks": 47440,
            "time": 53.42337,
            "velocity": 0.5354330708661418
          },
          {
            "duration": 0.057432375000004754,
            "durationTicks": 51,
            "midi": 51,
            "name": "D#3",
            "ticks": 47520,
            "time": 53.51346,
            "velocity": 0.47244094488188976
          },
          {
            "duration": 0.043918874999995694,
            "durationTicks": 39,
            "midi": 51,
            "name": "D#3",
            "ticks": 47760,
            "time": 53.783730000000006,
            "velocity": 0.47244094488188976
          },
          {
            "duration": 0.06981974999999352,
            "durationTicks": 62,
            "midi": 44,
            "name": "G#2",
            "ticks": 47760,
            "time": 53.783730000000006,
            "velocity": 0.8818897637795275
          },
          {
            "duration": 0.06981974999999352,
            "durationTicks": 62,
            "midi": 37,
            "name": "C#2",
            "ticks": 47760,
            "time": 53.783730000000006,
            "velocity": 0.8818897637795275
          },
          {
            "duration": 0.043918875000009905,
            "durationTicks": 39,
            "midi": 51,
            "name": "D#3",
            "ticks": 47920,
            "time": 53.96391,
            "velocity": 0.5354330708661418
          },
          {
            "duration": 0.04617112499999365,
            "durationTicks": 41,
            "midi": 51,
            "name": "D#3",
            "ticks": 48000,
            "time": 54.054,
            "velocity": 0.5354330708661418
          },
          {
            "duration": 0.07770262500000058,
            "durationTicks": 69,
            "midi": 44,
            "name": "G#2",
            "ticks": 48240,
            "time": 54.32427,
            "velocity": 0.6929133858267716
          },
          {
            "duration": 0.052927875000001734,
            "durationTicks": 47,
            "midi": 51,
            "name": "D#3",
            "ticks": 48240,
            "time": 54.32427,
            "velocity": 0.47244094488188976
          },
          {
            "duration": 0.03490987499999676,
            "durationTicks": 31,
            "midi": 51,
            "name": "D#3",
            "ticks": 48400,
            "time": 54.50445,
            "velocity": 0.4015748031496063
          },
          {
            "duration": 0.05180174999999565,
            "durationTicks": 46,
            "midi": 51,
            "name": "D#3",
            "ticks": 48480,
            "time": 54.59454,
            "velocity": 0.47244094488188976
          },
          {
            "duration": 0.06306299999999254,
            "durationTicks": 56,
            "midi": 51,
            "name": "D#3",
            "ticks": 48720,
            "time": 54.864810000000006,
            "velocity": 0.6062992125984252
          },
          {
            "duration": 0.07207199999999858,
            "durationTicks": 64,
            "midi": 44,
            "name": "G#2",
            "ticks": 48720,
            "time": 54.864810000000006,
            "velocity": 0.8818897637795275
          },
          {
            "duration": 0.07319812499999756,
            "durationTicks": 65,
            "midi": 37,
            "name": "C#2",
            "ticks": 48720,
            "time": 54.864810000000006,
            "velocity": 0.8818897637795275
          },
          {
            "duration": 0.05292787500000884,
            "durationTicks": 47,
            "midi": 51,
            "name": "D#3",
            "ticks": 48880,
            "time": 55.04499,
            "velocity": 0.5354330708661418
          },
          {
            "duration": 0.06193687500000067,
            "durationTicks": 55,
            "midi": 51,
            "name": "D#3",
            "ticks": 48960,
            "time": 55.13508,
            "velocity": 0.47244094488188976
          },
          {
            "duration": 0.06418912500000573,
            "durationTicks": 57,
            "midi": 51,
            "name": "D#3",
            "ticks": 49200,
            "time": 55.40535,
            "velocity": 0.5354330708661418
          },
          {
            "duration": 0.06981975000000062,
            "durationTicks": 62,
            "midi": 44,
            "name": "G#2",
            "ticks": 49200,
            "time": 55.40535,
            "velocity": 0.6929133858267716
          },
          {
            "duration": 0.04842337500000582,
            "durationTicks": 43,
            "midi": 51,
            "name": "D#3",
            "ticks": 49360,
            "time": 55.58553,
            "velocity": 0.5354330708661418
          },
          {
            "duration": 0.057432375000004754,
            "durationTicks": 51,
            "midi": 51,
            "name": "D#3",
            "ticks": 49440,
            "time": 55.67562,
            "velocity": 0.47244094488188976
          },
          {
            "duration": 0.011261249999996892,
            "durationTicks": 10,
            "midi": 40,
            "name": "E2",
            "ticks": 49610,
            "time": 55.867061250000006,
            "velocity": 0.3937007874015748
          },
          {
            "duration": 0.06981974999999352,
            "durationTicks": 62,
            "midi": 44,
            "name": "G#2",
            "ticks": 49680,
            "time": 55.945890000000006,
            "velocity": 0.8818897637795275
          },
          {
            "duration": 0.043918874999995694,
            "durationTicks": 39,
            "midi": 51,
            "name": "D#3",
            "ticks": 49680,
            "time": 55.945890000000006,
            "velocity": 0.47244094488188976
          },
          {
            "duration": 0.011261250000003997,
            "durationTicks": 10,
            "midi": 40,
            "name": "E2",
            "ticks": 49690,
            "time": 55.95715125,
            "velocity": 0.4094488188976378
          },
          {
            "duration": 0.043918875000009905,
            "durationTicks": 39,
            "midi": 51,
            "name": "D#3",
            "ticks": 49840,
            "time": 56.12607,
            "velocity": 0.5354330708661418
          },
          {
            "duration": 0.011261249999996892,
            "durationTicks": 10,
            "midi": 40,
            "name": "E2",
            "ticks": 49850,
            "time": 56.13733125,
            "velocity": 0.4566929133858268
          },
          {
            "duration": 0.04617112499999365,
            "durationTicks": 41,
            "midi": 51,
            "name": "D#3",
            "ticks": 49920,
            "time": 56.21616,
            "velocity": 0.5354330708661418
          },
          {
            "duration": 0.052927875000001734,
            "durationTicks": 47,
            "midi": 51,
            "name": "D#3",
            "ticks": 50160,
            "time": 56.48643,
            "velocity": 0.47244094488188976
          },
          {
            "duration": 0.07770262500000058,
            "durationTicks": 69,
            "midi": 44,
            "name": "G#2",
            "ticks": 50160,
            "time": 56.48643,
            "velocity": 0.6929133858267716
          },
          {
            "duration": 0.03490987499999676,
            "durationTicks": 31,
            "midi": 51,
            "name": "D#3",
            "ticks": 50320,
            "time": 56.66661,
            "velocity": 0.4015748031496063
          },
          {
            "duration": 0.05180174999999565,
            "durationTicks": 46,
            "midi": 51,
            "name": "D#3",
            "ticks": 50400,
            "time": 56.7567,
            "velocity": 0.47244094488188976
          },
          {
            "duration": 0.06306299999999254,
            "durationTicks": 56,
            "midi": 51,
            "name": "D#3",
            "ticks": 50640,
            "time": 57.026970000000006,
            "velocity": 0.6062992125984252
          },
          {
            "duration": 0.07207199999999858,
            "durationTicks": 64,
            "midi": 44,
            "name": "G#2",
            "ticks": 50640,
            "time": 57.026970000000006,
            "velocity": 0.8818897637795275
          },
          {
            "duration": 0.07319812499999756,
            "durationTicks": 65,
            "midi": 37,
            "name": "C#2",
            "ticks": 50640,
            "time": 57.026970000000006,
            "velocity": 0.8818897637795275
          },
          {
            "duration": 0.05292787500000884,
            "durationTicks": 47,
            "midi": 51,
            "name": "D#3",
            "ticks": 50800,
            "time": 57.20715,
            "velocity": 0.5354330708661418
          },
          {
            "duration": 0.06193687500000067,
            "durationTicks": 55,
            "midi": 51,
            "name": "D#3",
            "ticks": 50880,
            "time": 57.29724,
            "velocity": 0.47244094488188976
          },
          {
            "duration": 0.06418912500000573,
            "durationTicks": 57,
            "midi": 51,
            "name": "D#3",
            "ticks": 51120,
            "time": 57.56751,
            "velocity": 0.5354330708661418
          },
          {
            "duration": 0.06981975000000062,
            "durationTicks": 62,
            "midi": 44,
            "name": "G#2",
            "ticks": 51120,
            "time": 57.56751,
            "velocity": 0.6929133858267716
          },
          {
            "duration": 0.04842337500000582,
            "durationTicks": 43,
            "midi": 51,
            "name": "D#3",
            "ticks": 51280,
            "time": 57.74769,
            "velocity": 0.5354330708661418
          },
          {
            "duration": 0.057432375000004754,
            "durationTicks": 51,
            "midi": 51,
            "name": "D#3",
            "ticks": 51360,
            "time": 57.83778,
            "velocity": 0.47244094488188976
          },
          {
            "duration": 0.043918874999995694,
            "durationTicks": 39,
            "midi": 51,
            "name": "D#3",
            "ticks": 51600,
            "time": 58.108050000000006,
            "velocity": 0.47244094488188976
          },
          {
            "duration": 0.06981974999999352,
            "durationTicks": 62,
            "midi": 44,
            "name": "G#2",
            "ticks": 51600,
            "time": 58.108050000000006,
            "velocity": 0.8818897637795275
          },
          {
            "duration": 0.07319812499999756,
            "durationTicks": 65,
            "midi": 37,
            "name": "C#2",
            "ticks": 51600,
            "time": 58.108050000000006,
            "velocity": 0.8818897637795275
          },
          {
            "duration": 0.043918875000009905,
            "durationTicks": 39,
            "midi": 51,
            "name": "D#3",
            "ticks": 51760,
            "time": 58.28823,
            "velocity": 0.5354330708661418
          },
          {
            "duration": 0.04617112499999365,
            "durationTicks": 41,
            "midi": 51,
            "name": "D#3",
            "ticks": 51840,
            "time": 58.37832,
            "velocity": 0.5354330708661418
          },
          {
            "duration": 0.07770262500000058,
            "durationTicks": 69,
            "midi": 44,
            "name": "G#2",
            "ticks": 52080,
            "time": 58.64859,
            "velocity": 0.6929133858267716
          },
          {
            "duration": 0.052927875000001734,
            "durationTicks": 47,
            "midi": 51,
            "name": "D#3",
            "ticks": 52080,
            "time": 58.64859,
            "velocity": 0.47244094488188976
          },
          {
            "duration": 0.03490987499999676,
            "durationTicks": 31,
            "midi": 51,
            "name": "D#3",
            "ticks": 52240,
            "time": 58.82877,
            "velocity": 0.4015748031496063
          },
          {
            "duration": 0.05180174999999565,
            "durationTicks": 46,
            "midi": 51,
            "name": "D#3",
            "ticks": 52320,
            "time": 58.91886,
            "velocity": 0.47244094488188976
          },
          {
            "duration": 0.06306299999999254,
            "durationTicks": 56,
            "midi": 51,
            "name": "D#3",
            "ticks": 52560,
            "time": 59.189130000000006,
            "velocity": 0.6062992125984252
          },
          {
            "duration": 0.07207199999999858,
            "durationTicks": 64,
            "midi": 44,
            "name": "G#2",
            "ticks": 52560,
            "time": 59.189130000000006,
            "velocity": 0.8818897637795275
          },
          {
            "duration": 0.07319812499999756,
            "durationTicks": 65,
            "midi": 37,
            "name": "C#2",
            "ticks": 52560,
            "time": 59.189130000000006,
            "velocity": 0.8818897637795275
          },
          {
            "duration": 0.05292787500000884,
            "durationTicks": 47,
            "midi": 51,
            "name": "D#3",
            "ticks": 52720,
            "time": 59.36931,
            "velocity": 0.5354330708661418
          },
          {
            "duration": 0.06193687500000067,
            "durationTicks": 55,
            "midi": 51,
            "name": "D#3",
            "ticks": 52800,
            "time": 59.4594,
            "velocity": 0.47244094488188976
          },
          {
            "duration": 0.06418912500000573,
            "durationTicks": 57,
            "midi": 51,
            "name": "D#3",
            "ticks": 53040,
            "time": 59.72967,
            "velocity": 0.5354330708661418
          },
          {
            "duration": 0.06981975000000062,
            "durationTicks": 62,
            "midi": 44,
            "name": "G#2",
            "ticks": 53040,
            "time": 59.72967,
            "velocity": 0.6929133858267716
          },
          {
            "duration": 0.04842337500000582,
            "durationTicks": 43,
            "midi": 51,
            "name": "D#3",
            "ticks": 53200,
            "time": 59.90985,
            "velocity": 0.5354330708661418
          },
          {
            "duration": 0.057432375000004754,
            "durationTicks": 51,
            "midi": 51,
            "name": "D#3",
            "ticks": 53280,
            "time": 59.99994,
            "velocity": 0.47244094488188976
          },
          {
            "duration": 0.043918874999995694,
            "durationTicks": 39,
            "midi": 51,
            "name": "D#3",
            "ticks": 53520,
            "time": 60.270210000000006,
            "velocity": 0.47244094488188976
          },
          {
            "duration": 0.06981974999999352,
            "durationTicks": 62,
            "midi": 44,
            "name": "G#2",
            "ticks": 53520,
            "time": 60.270210000000006,
            "velocity": 0.8818897637795275
          },
          {
            "duration": 0.07319812499999756,
            "durationTicks": 65,
            "midi": 37,
            "name": "C#2",
            "ticks": 53520,
            "time": 60.270210000000006,
            "velocity": 0.8818897637795275
          },
          {
            "duration": 0.043918875000009905,
            "durationTicks": 39,
            "midi": 51,
            "name": "D#3",
            "ticks": 53680,
            "time": 60.45039,
            "velocity": 0.5354330708661418
          },
          {
            "duration": 0.04617112499999365,
            "durationTicks": 41,
            "midi": 51,
            "name": "D#3",
            "ticks": 53760,
            "time": 60.54048,
            "velocity": 0.5354330708661418
          },
          {
            "duration": 0.07770262500000058,
            "durationTicks": 69,
            "midi": 44,
            "name": "G#2",
            "ticks": 54000,
            "time": 60.81075,
            "velocity": 0.6929133858267716
          },
          {
            "duration": 0.052927875000001734,
            "durationTicks": 47,
            "midi": 51,
            "name": "D#3",
            "ticks": 54000,
            "time": 60.81075,
            "velocity": 0.47244094488188976
          },
          {
            "duration": 0.03490987499999676,
            "durationTicks": 31,
            "midi": 51,
            "name": "D#3",
            "ticks": 54160,
            "time": 60.99093,
            "velocity": 0.4015748031496063
          },
          {
            "duration": 0.05180174999999565,
            "durationTicks": 46,
            "midi": 51,
            "name": "D#3",
            "ticks": 54240,
            "time": 61.08102,
            "velocity": 0.47244094488188976
          },
          {
            "duration": 0.011261249999996892,
            "durationTicks": 10,
            "midi": 40,
            "name": "E2",
            "ticks": 54410,
            "time": 61.272461250000006,
            "velocity": 0.5039370078740157
          },
          {
            "duration": 0.07207199999999858,
            "durationTicks": 64,
            "midi": 44,
            "name": "G#2",
            "ticks": 54480,
            "time": 61.351290000000006,
            "velocity": 0.8818897637795275
          },
          {
            "duration": 0.06306299999999254,
            "durationTicks": 56,
            "midi": 51,
            "name": "D#3",
            "ticks": 54480,
            "time": 61.351290000000006,
            "velocity": 0.6062992125984252
          },
          {
            "duration": 0.011261250000003997,
            "durationTicks": 10,
            "midi": 40,
            "name": "E2",
            "ticks": 54490,
            "time": 61.36255125,
            "velocity": 0.8818897637795275
          },
          {
            "duration": 0.05292787500000884,
            "durationTicks": 47,
            "midi": 51,
            "name": "D#3",
            "ticks": 54640,
            "time": 61.53147,
            "velocity": 0.5354330708661418
          },
          {
            "duration": 0.011261249999996892,
            "durationTicks": 10,
            "midi": 49,
            "name": "C#3",
            "ticks": 54720,
            "time": 61.62156,
            "velocity": 0.31496062992125984
          },
          {
            "duration": 0.06981975000000062,
            "durationTicks": 62,
            "midi": 44,
            "name": "G#2",
            "ticks": 54960,
            "time": 61.89183,
            "velocity": 0.6929133858267716
          },
          {
            "duration": 0.011261249999996892,
            "durationTicks": 10,
            "midi": 49,
            "name": "C#3",
            "ticks": 55107,
            "time": 62.057370375000005,
            "velocity": 0.3937007874015748
          },
          {
            "duration": 0.011261249999996892,
            "durationTicks": 10,
            "midi": 49,
            "name": "C#3",
            "ticks": 55437,
            "time": 62.42899162500001,
            "velocity": 0.5511811023622047
          },
          {
            "duration": 0.06981974999999352,
            "durationTicks": 62,
            "midi": 44,
            "name": "G#2",
            "ticks": 55440,
            "time": 62.432370000000006,
            "velocity": 0.8818897637795275
          },
          {
            "duration": 0.011261249999996892,
            "durationTicks": 10,
            "midi": 57,
            "name": "A3",
            "ticks": 55680,
            "time": 62.70264,
            "velocity": 0.6062992125984252
          },
          {
            "duration": 0.052927875000001734,
            "durationTicks": 47,
            "midi": 51,
            "name": "D#3",
            "ticks": 55920,
            "time": 62.97291,
            "velocity": 0.47244094488188976
          },
          {
            "duration": 0.07770262500000058,
            "durationTicks": 69,
            "midi": 44,
            "name": "G#2",
            "ticks": 55920,
            "time": 62.97291,
            "velocity": 0.6929133858267716
          },
          {
            "duration": 0.03490987499999676,
            "durationTicks": 31,
            "midi": 51,
            "name": "D#3",
            "ticks": 56080,
            "time": 63.15309,
            "velocity": 0.4015748031496063
          },
          {
            "duration": 0.05180174999999565,
            "durationTicks": 46,
            "midi": 51,
            "name": "D#3",
            "ticks": 56160,
            "time": 63.24318,
            "velocity": 0.47244094488188976
          },
          {
            "duration": 0.011261249999996892,
            "durationTicks": 10,
            "midi": 48,
            "name": "C3",
            "ticks": 56160,
            "time": 63.24318,
            "velocity": 0.5433070866141733
          },
          {
            "duration": 0.011261250000003997,
            "durationTicks": 10,
            "midi": 48,
            "name": "C3",
            "ticks": 56320,
            "time": 63.42336,
            "velocity": 0.5669291338582677
          },
          {
            "duration": 0.011261249999996892,
            "durationTicks": 10,
            "midi": 40,
            "name": "E2",
            "ticks": 56400,
            "time": 63.513450000000006,
            "velocity": 0.968503937007874
          },
          {
            "duration": 0.06306299999999254,
            "durationTicks": 56,
            "midi": 51,
            "name": "D#3",
            "ticks": 56400,
            "time": 63.513450000000006,
            "velocity": 0.6062992125984252
          },
          {
            "duration": 0.011261249999996892,
            "durationTicks": 10,
            "midi": 46,
            "name": "A#2",
            "ticks": 56520,
            "time": 63.648585000000004,
            "velocity": 0.905511811023622
          },
          {
            "duration": 0.011261249999996892,
            "durationTicks": 10,
            "midi": 49,
            "name": "C#3",
            "ticks": 56540,
            "time": 63.671107500000005,
            "velocity": 0.47244094488188976
          },
          {
            "duration": 0.011261249999996892,
            "durationTicks": 10,
            "midi": 49,
            "name": "C#3",
            "ticks": 56640,
            "time": 63.78372,
            "velocity": 0.007874015748031496
          },
          {
            "duration": 0.011261249999996892,
            "durationTicks": 10,
            "midi": 42,
            "name": "F#2",
            "ticks": 56640,
            "time": 63.78372,
            "velocity": 0.5118110236220472
          },
          {
            "duration": 0.047297249999999735,
            "durationTicks": 42,
            "midi": 44,
            "name": "G#2",
            "ticks": 57100,
            "time": 64.3017375,
            "velocity": 0.5275590551181102
          },
          {
            "duration": 0.011261250000003997,
            "durationTicks": 10,
            "midi": 47,
            "name": "B2",
            "ticks": 57110,
            "time": 64.31299875,
            "velocity": 0.4881889763779528
          },
          {
            "duration": 0.011261249999989786,
            "durationTicks": 10,
            "midi": 40,
            "name": "E2",
            "ticks": 57180,
            "time": 64.3918275,
            "velocity": 0.31496062992125984
          },
          {
            "duration": 0.011261250000003997,
            "durationTicks": 10,
            "midi": 40,
            "name": "E2",
            "ticks": 57255,
            "time": 64.476286875,
            "velocity": 0.5511811023622047
          },
          {
            "duration": 0.05968462500000271,
            "durationTicks": 53,
            "midi": 44,
            "name": "G#2",
            "ticks": 57338,
            "time": 64.56975525,
            "velocity": 0.4645669291338583
          },
          {
            "duration": 0.011261250000003997,
            "durationTicks": 10,
            "midi": 40,
            "name": "E2",
            "ticks": 57340,
            "time": 64.5720075,
            "velocity": 0.937007874015748
          },
          {
            "duration": 0.011261250000003997,
            "durationTicks": 10,
            "midi": 49,
            "name": "C#3",
            "ticks": 57480,
            "time": 64.729665,
            "velocity": 0.6062992125984252
          },
          {
            "duration": 0.05292787499999463,
            "durationTicks": 47,
            "midi": 51,
            "name": "D#3",
            "ticks": 57840,
            "time": 65.13507,
            "velocity": 0.47244094488188976
          },
          {
            "duration": 0.07770262500000058,
            "durationTicks": 69,
            "midi": 44,
            "name": "G#2",
            "ticks": 57840,
            "time": 65.13507,
            "velocity": 0.3937007874015748
          },
          {
            "duration": 0.03490987499999676,
            "durationTicks": 31,
            "midi": 51,
            "name": "D#3",
            "ticks": 58000,
            "time": 65.31525,
            "velocity": 0.4015748031496063
          },
          {
            "duration": 0.05180175000000986,
            "durationTicks": 46,
            "midi": 51,
            "name": "D#3",
            "ticks": 58080,
            "time": 65.40534,
            "velocity": 0.47244094488188976
          },
          {
            "duration": 0.06306299999999965,
            "durationTicks": 56,
            "midi": 51,
            "name": "D#3",
            "ticks": 58320,
            "time": 65.67561,
            "velocity": 0.6062992125984252
          },
          {
            "duration": 0.07207200000000569,
            "durationTicks": 64,
            "midi": 44,
            "name": "G#2",
            "ticks": 58320,
            "time": 65.67561,
            "velocity": 0.8818897637795275
          },
          {
            "duration": 0.05292787500000884,
            "durationTicks": 47,
            "midi": 51,
            "name": "D#3",
            "ticks": 58480,
            "time": 65.85579,
            "velocity": 0.5354330708661418
          },
          {
            "duration": 0.06193687500000067,
            "durationTicks": 55,
            "midi": 51,
            "name": "D#3",
            "ticks": 58560,
            "time": 65.94588,
            "velocity": 0.47244094488188976
          },
          {
            "duration": 0.06418912500001284,
            "durationTicks": 57,
            "midi": 51,
            "name": "D#3",
            "ticks": 58800,
            "time": 66.21615,
            "velocity": 0.5354330708661418
          },
          {
            "duration": 0.06981975000000773,
            "durationTicks": 62,
            "midi": 44,
            "name": "G#2",
            "ticks": 58800,
            "time": 66.21615,
            "velocity": 0.6929133858267716
          },
          {
            "duration": 0.048423374999998714,
            "durationTicks": 43,
            "midi": 51,
            "name": "D#3",
            "ticks": 58960,
            "time": 66.39633,
            "velocity": 0.5354330708661418
          },
          {
            "duration": 0.05743237499999054,
            "durationTicks": 51,
            "midi": 51,
            "name": "D#3",
            "ticks": 59040,
            "time": 66.48642000000001,
            "velocity": 0.47244094488188976
          },
          {
            "duration": 0.011261249999989786,
            "durationTicks": 10,
            "midi": 40,
            "name": "E2",
            "ticks": 59198,
            "time": 66.66434775,
            "velocity": 0.5039370078740157
          },
          {
            "duration": 0.06981974999999352,
            "durationTicks": 62,
            "midi": 44,
            "name": "G#2",
            "ticks": 59280,
            "time": 66.75669,
            "velocity": 0.8818897637795275
          },
          {
            "duration": 0.04391887499998859,
            "durationTicks": 39,
            "midi": 51,
            "name": "D#3",
            "ticks": 59280,
            "time": 66.75669,
            "velocity": 0.47244094488188976
          },
          {
            "duration": 0.011261249999989786,
            "durationTicks": 10,
            "midi": 40,
            "name": "E2",
            "ticks": 59281,
            "time": 66.757816125,
            "velocity": 0.6929133858267716
          },
          {
            "duration": 0.011261250000003997,
            "durationTicks": 10,
            "midi": 49,
            "name": "C#3",
            "ticks": 59400,
            "time": 66.891825,
            "velocity": 0.6062992125984252
          },
          {
            "duration": 0.05292787499999463,
            "durationTicks": 47,
            "midi": 51,
            "name": "D#3",
            "ticks": 59760,
            "time": 67.29723,
            "velocity": 0.47244094488188976
          },
          {
            "duration": 0.07770262500000058,
            "durationTicks": 69,
            "midi": 44,
            "name": "G#2",
            "ticks": 59760,
            "time": 67.29723,
            "velocity": 0.6929133858267716
          },
          {
            "duration": 0.03490987499999676,
            "durationTicks": 31,
            "midi": 51,
            "name": "D#3",
            "ticks": 59920,
            "time": 67.47741,
            "velocity": 0.4015748031496063
          },
          {
            "duration": 0.05180175000000986,
            "durationTicks": 46,
            "midi": 51,
            "name": "D#3",
            "ticks": 60000,
            "time": 67.5675,
            "velocity": 0.47244094488188976
          },
          {
            "duration": 0.06306299999999965,
            "durationTicks": 56,
            "midi": 51,
            "name": "D#3",
            "ticks": 60240,
            "time": 67.83777,
            "velocity": 0.6062992125984252
          },
          {
            "duration": 0.07207200000000569,
            "durationTicks": 64,
            "midi": 44,
            "name": "G#2",
            "ticks": 60240,
            "time": 67.83777,
            "velocity": 0.8818897637795275
          },
          {
            "duration": 0.05292787500000884,
            "durationTicks": 47,
            "midi": 51,
            "name": "D#3",
            "ticks": 60400,
            "time": 68.01795,
            "velocity": 0.5354330708661418
          },
          {
            "duration": 0.06193687500000067,
            "durationTicks": 55,
            "midi": 51,
            "name": "D#3",
            "ticks": 60480,
            "time": 68.10804,
            "velocity": 0.47244094488188976
          },
          {
            "duration": 0.06418912500001284,
            "durationTicks": 57,
            "midi": 51,
            "name": "D#3",
            "ticks": 60720,
            "time": 68.37831,
            "velocity": 0.5354330708661418
          },
          {
            "duration": 0.06981975000000773,
            "durationTicks": 62,
            "midi": 44,
            "name": "G#2",
            "ticks": 60720,
            "time": 68.37831,
            "velocity": 0.6929133858267716
          },
          {
            "duration": 0.048423374999998714,
            "durationTicks": 43,
            "midi": 51,
            "name": "D#3",
            "ticks": 60880,
            "time": 68.55849,
            "velocity": 0.5354330708661418
          },
          {
            "duration": 0.05743237499999054,
            "durationTicks": 51,
            "midi": 51,
            "name": "D#3",
            "ticks": 60960,
            "time": 68.64858000000001,
            "velocity": 0.47244094488188976
          },
          {
            "duration": 0.011261249999989786,
            "durationTicks": 10,
            "midi": 40,
            "name": "E2",
            "ticks": 61118,
            "time": 68.82650775,
            "velocity": 0.5039370078740157
          },
          {
            "duration": 0.06981974999999352,
            "durationTicks": 62,
            "midi": 44,
            "name": "G#2",
            "ticks": 61200,
            "time": 68.91885,
            "velocity": 0.8818897637795275
          },
          {
            "duration": 0.04391887499998859,
            "durationTicks": 39,
            "midi": 51,
            "name": "D#3",
            "ticks": 61200,
            "time": 68.91885,
            "velocity": 0.47244094488188976
          },
          {
            "duration": 0.011261249999989786,
            "durationTicks": 10,
            "midi": 40,
            "name": "E2",
            "ticks": 61201,
            "time": 68.919976125,
            "velocity": 0.6929133858267716
          },
          {
            "duration": 0.011261250000003997,
            "durationTicks": 10,
            "midi": 57,
            "name": "A3",
            "ticks": 61320,
            "time": 69.053985,
            "velocity": 0.5354330708661418
          },
          {
            "duration": 0.05292787499999463,
            "durationTicks": 47,
            "midi": 51,
            "name": "D#3",
            "ticks": 61680,
            "time": 69.45939,
            "velocity": 0.47244094488188976
          },
          {
            "duration": 0.07770262500001479,
            "durationTicks": 69,
            "midi": 44,
            "name": "G#2",
            "ticks": 61680,
            "time": 69.45939,
            "velocity": 0.6929133858267716
          },
          {
            "duration": 0.03490987499999676,
            "durationTicks": 31,
            "midi": 51,
            "name": "D#3",
            "ticks": 61840,
            "time": 69.63957,
            "velocity": 0.4015748031496063
          },
          {
            "duration": 0.05180175000000986,
            "durationTicks": 46,
            "midi": 51,
            "name": "D#3",
            "ticks": 61920,
            "time": 69.72966,
            "velocity": 0.47244094488188976
          },
          {
            "duration": 0.06306299999999965,
            "durationTicks": 56,
            "midi": 51,
            "name": "D#3",
            "ticks": 62160,
            "time": 69.99993,
            "velocity": 0.6062992125984252
          },
          {
            "duration": 0.07207199999999148,
            "durationTicks": 64,
            "midi": 44,
            "name": "G#2",
            "ticks": 62160,
            "time": 69.99993,
            "velocity": 0.8818897637795275
          },
          {
            "duration": 0.05292787499999463,
            "durationTicks": 47,
            "midi": 51,
            "name": "D#3",
            "ticks": 62320,
            "time": 70.18011000000001,
            "velocity": 0.5354330708661418
          },
          {
            "duration": 0.06193687500000067,
            "durationTicks": 55,
            "midi": 51,
            "name": "D#3",
            "ticks": 62400,
            "time": 70.2702,
            "velocity": 0.47244094488188976
          },
          {
            "duration": 0.06418912500001284,
            "durationTicks": 57,
            "midi": 51,
            "name": "D#3",
            "ticks": 62640,
            "time": 70.54047,
            "velocity": 0.5354330708661418
          },
          {
            "duration": 0.06981975000000773,
            "durationTicks": 62,
            "midi": 44,
            "name": "G#2",
            "ticks": 62640,
            "time": 70.54047,
            "velocity": 0.6929133858267716
          },
          {
            "duration": 0.048423374999998714,
            "durationTicks": 43,
            "midi": 51,
            "name": "D#3",
            "ticks": 62800,
            "time": 70.72065,
            "velocity": 0.5354330708661418
          },
          {
            "duration": 0.05743237499999054,
            "durationTicks": 51,
            "midi": 51,
            "name": "D#3",
            "ticks": 62880,
            "time": 70.81074000000001,
            "velocity": 0.47244094488188976
          },
          {
            "duration": 0.06981974999999352,
            "durationTicks": 62,
            "midi": 44,
            "name": "G#2",
            "ticks": 62880,
            "time": 70.81074000000001,
            "velocity": 0.6929133858267716
          },
          {
            "duration": 0.011261250000003997,
            "durationTicks": 10,
            "midi": 40,
            "name": "E2",
            "ticks": 62960,
            "time": 70.90083,
            "velocity": 0.15748031496062992
          },
          {
            "duration": 0.011261250000003997,
            "durationTicks": 10,
            "midi": 40,
            "name": "E2",
            "ticks": 63000,
            "time": 70.945875,
            "velocity": 0.1968503937007874
          },
          {
            "duration": 0.011261249999989786,
            "durationTicks": 10,
            "midi": 40,
            "name": "E2",
            "ticks": 63040,
            "time": 70.99092,
            "velocity": 0.7874015748031497
          },
          {
            "duration": 0.011261250000003997,
            "durationTicks": 10,
            "midi": 40,
            "name": "E2",
            "ticks": 63120,
            "time": 71.08101,
            "velocity": 0.8818897637795275
          },
          {
            "duration": 0.06981974999999352,
            "durationTicks": 62,
            "midi": 44,
            "name": "G#2",
            "ticks": 63120,
            "time": 71.08101,
            "velocity": 0.8818897637795275
          },
          {
            "duration": 0.0439188750000028,
            "durationTicks": 39,
            "midi": 51,
            "name": "D#3",
            "ticks": 63120,
            "time": 71.08101,
            "velocity": 0.47244094488188976
          },
          {
            "duration": 0.011261250000003997,
            "durationTicks": 10,
            "midi": 49,
            "name": "C#3",
            "ticks": 63360,
            "time": 71.35128,
            "velocity": 0.4015748031496063
          },
          {
            "duration": 0.07770262500001479,
            "durationTicks": 69,
            "midi": 44,
            "name": "G#2",
            "ticks": 63600,
            "time": 71.62155,
            "velocity": 0.6929133858267716
          },
          {
            "duration": 0.011261249999989786,
            "durationTicks": 10,
            "midi": 49,
            "name": "C#3",
            "ticks": 63758,
            "time": 71.79947775000001,
            "velocity": 0.3937007874015748
          },
          {
            "duration": 0.07770262500001479,
            "durationTicks": 69,
            "midi": 44,
            "name": "G#2",
            "ticks": 63840,
            "time": 71.89182,
            "velocity": 0.5039370078740157
          },
          {
            "duration": 0.07207199999999148,
            "durationTicks": 64,
            "midi": 44,
            "name": "G#2",
            "ticks": 64080,
            "time": 72.16209,
            "velocity": 0.6062992125984252
          },
          {
            "duration": 0.011261250000003997,
            "durationTicks": 10,
            "midi": 49,
            "name": "C#3",
            "ticks": 64115,
            "time": 72.201504375,
            "velocity": 0.31496062992125984
          },
          {
            "duration": 0.07207199999999148,
            "durationTicks": 64,
            "midi": 44,
            "name": "G#2",
            "ticks": 64320,
            "time": 72.43236,
            "velocity": 0.6929133858267716
          },
          {
            "duration": 0.011261250000003997,
            "durationTicks": 10,
            "midi": 49,
            "name": "C#3",
            "ticks": 64468,
            "time": 72.59902650000001,
            "velocity": 0.31496062992125984
          },
          {
            "duration": 0.06981975000000773,
            "durationTicks": 62,
            "midi": 44,
            "name": "G#2",
            "ticks": 64560,
            "time": 72.70263,
            "velocity": 0.5039370078740157
          },
          {
            "duration": 0.011261250000003997,
            "durationTicks": 10,
            "midi": 40,
            "name": "E2",
            "ticks": 64760,
            "time": 72.927855,
            "velocity": 0.15748031496062992
          },
          {
            "duration": 0.011261250000003997,
            "durationTicks": 10,
            "midi": 49,
            "name": "C#3",
            "ticks": 64768,
            "time": 72.936864,
            "velocity": 0.31496062992125984
          },
          {
            "duration": 0.011261250000003997,
            "durationTicks": 10,
            "midi": 40,
            "name": "E2",
            "ticks": 64800,
            "time": 72.97290000000001,
            "velocity": 0.6929133858267716
          },
          {
            "duration": 0.06981974999999352,
            "durationTicks": 62,
            "midi": 44,
            "name": "G#2",
            "ticks": 64800,
            "time": 72.97290000000001,
            "velocity": 0.6062992125984252
          },
          {
            "duration": 0.06981974999999352,
            "durationTicks": 62,
            "midi": 44,
            "name": "G#2",
            "ticks": 65040,
            "time": 73.24317,
            "velocity": 0.6929133858267716
          },
          {
            "duration": 0.011261250000003997,
            "durationTicks": 10,
            "midi": 43,
            "name": "G2",
            "ticks": 65040,
            "time": 73.24317,
            "velocity": 0.6062992125984252
          },
          {
            "duration": 0.011261250000003997,
            "durationTicks": 10,
            "midi": 49,
            "name": "C#3",
            "ticks": 65040,
            "time": 73.24317,
            "velocity": 0.3937007874015748
          },
          {
            "duration": 0.011261250000003997,
            "durationTicks": 10,
            "midi": 49,
            "name": "C#3",
            "ticks": 65280,
            "time": 73.51344,
            "velocity": 0.47244094488188976
          },
          {
            "duration": 0.05292787499999463,
            "durationTicks": 47,
            "midi": 51,
            "name": "D#3",
            "ticks": 65520,
            "time": 73.78371,
            "velocity": 0.47244094488188976
          },
          {
            "duration": 0.07770262500001479,
            "durationTicks": 69,
            "midi": 44,
            "name": "G#2",
            "ticks": 65520,
            "time": 73.78371,
            "velocity": 0.6929133858267716
          },
          {
            "duration": 0.03490987499999676,
            "durationTicks": 31,
            "midi": 51,
            "name": "D#3",
            "ticks": 65680,
            "time": 73.96389,
            "velocity": 0.4015748031496063
          },
          {
            "duration": 0.05180175000000986,
            "durationTicks": 46,
            "midi": 51,
            "name": "D#3",
            "ticks": 65760,
            "time": 74.05398,
            "velocity": 0.47244094488188976
          },
          {
            "duration": 0.06306299999999965,
            "durationTicks": 56,
            "midi": 51,
            "name": "D#3",
            "ticks": 66000,
            "time": 74.32425,
            "velocity": 0.6062992125984252
          },
          {
            "duration": 0.07207199999999148,
            "durationTicks": 64,
            "midi": 44,
            "name": "G#2",
            "ticks": 66000,
            "time": 74.32425,
            "velocity": 0.8818897637795275
          },
          {
            "duration": 0.05292787499999463,
            "durationTicks": 47,
            "midi": 51,
            "name": "D#3",
            "ticks": 66160,
            "time": 74.50443000000001,
            "velocity": 0.5354330708661418
          },
          {
            "duration": 0.06193687500000067,
            "durationTicks": 55,
            "midi": 51,
            "name": "D#3",
            "ticks": 66240,
            "time": 74.59452,
            "velocity": 0.47244094488188976
          },
          {
            "duration": 0.06418912500001284,
            "durationTicks": 57,
            "midi": 51,
            "name": "D#3",
            "ticks": 66480,
            "time": 74.86479,
            "velocity": 0.5354330708661418
          },
          {
            "duration": 0.06981975000000773,
            "durationTicks": 62,
            "midi": 44,
            "name": "G#2",
            "ticks": 66480,
            "time": 74.86479,
            "velocity": 0.6929133858267716
          },
          {
            "duration": 0.048423374999998714,
            "durationTicks": 43,
            "midi": 51,
            "name": "D#3",
            "ticks": 66640,
            "time": 75.04497,
            "velocity": 0.5354330708661418
          },
          {
            "duration": 0.05743237499999054,
            "durationTicks": 51,
            "midi": 51,
            "name": "D#3",
            "ticks": 66720,
            "time": 75.13506000000001,
            "velocity": 0.47244094488188976
          },
          {
            "duration": 0.0439188750000028,
            "durationTicks": 39,
            "midi": 51,
            "name": "D#3",
            "ticks": 66960,
            "time": 75.40533,
            "velocity": 0.47244094488188976
          },
          {
            "duration": 0.06981974999999352,
            "durationTicks": 62,
            "midi": 44,
            "name": "G#2",
            "ticks": 66960,
            "time": 75.40533,
            "velocity": 0.8818897637795275
          },
          {
            "duration": 0.011261249999989786,
            "durationTicks": 10,
            "midi": 40,
            "name": "E2",
            "ticks": 67120,
            "time": 75.58551000000001,
            "velocity": 0.15748031496062992
          },
          {
            "duration": 0.04391887499998859,
            "durationTicks": 39,
            "midi": 51,
            "name": "D#3",
            "ticks": 67120,
            "time": 75.58551000000001,
            "velocity": 0.5354330708661418
          },
          {
            "duration": 0.011261250000003997,
            "durationTicks": 10,
            "midi": 40,
            "name": "E2",
            "ticks": 67160,
            "time": 75.630555,
            "velocity": 0.23622047244094488
          },
          {
            "duration": 0.011261250000003997,
            "durationTicks": 10,
            "midi": 40,
            "name": "E2",
            "ticks": 67200,
            "time": 75.6756,
            "velocity": 0.7874015748031497
          },
          {
            "duration": 0.04617112500000076,
            "durationTicks": 41,
            "midi": 51,
            "name": "D#3",
            "ticks": 67200,
            "time": 75.6756,
            "velocity": 0.5354330708661418
          },
          {
            "duration": 0.011261250000018208,
            "durationTicks": 10,
            "midi": 57,
            "name": "A3",
            "ticks": 67680,
            "time": 76.21614,
            "velocity": 0.6062992125984252
          },
          {
            "duration": 0.07207199999999148,
            "durationTicks": 64,
            "midi": 44,
            "name": "G#2",
            "ticks": 67920,
            "time": 76.48641,
            "velocity": 0.7007874015748031
          },
          {
            "duration": 0.07207199999999148,
            "durationTicks": 64,
            "midi": 44,
            "name": "G#2",
            "ticks": 68160,
            "time": 76.75668,
            "velocity": 0.7874015748031497
          },
          {
            "duration": 0.011261250000003997,
            "durationTicks": 10,
            "midi": 40,
            "name": "E2",
            "ticks": 68175,
            "time": 76.773571875,
            "velocity": 0.7874015748031497
          },
          {
            "duration": 0.011261249999989786,
            "durationTicks": 10,
            "midi": 40,
            "name": "E2",
            "ticks": 68229,
            "time": 76.834382625,
            "velocity": 0.5354330708661418
          },
          {
            "duration": 0.011261250000003997,
            "durationTicks": 10,
            "midi": 40,
            "name": "E2",
            "ticks": 68286,
            "time": 76.89857175,
            "velocity": 0.4330708661417323
          },
          {
            "duration": 0.011261250000003997,
            "durationTicks": 10,
            "midi": 40,
            "name": "E2",
            "ticks": 68342,
            "time": 76.96163475,
            "velocity": 0.3937007874015748
          },
          {
            "duration": 0.06981975000000773,
            "durationTicks": 62,
            "midi": 44,
            "name": "G#2",
            "ticks": 68400,
            "time": 77.02695,
            "velocity": 0.5984251968503937
          },
          {
            "duration": 0.011261249999989786,
            "durationTicks": 10,
            "midi": 48,
            "name": "C3",
            "ticks": 68412,
            "time": 77.0404635,
            "velocity": 0.6062992125984252
          },
          {
            "duration": 0.011261249999989786,
            "durationTicks": 10,
            "midi": 48,
            "name": "C3",
            "ticks": 68470,
            "time": 77.10577875000001,
            "velocity": 0.31496062992125984
          },
          {
            "duration": 0.011261250000003997,
            "durationTicks": 10,
            "midi": 48,
            "name": "C3",
            "ticks": 68510,
            "time": 77.15082375,
            "velocity": 0.31496062992125984
          },
          {
            "duration": 0.011261250000003997,
            "durationTicks": 10,
            "midi": 48,
            "name": "C3",
            "ticks": 68585,
            "time": 77.235283125,
            "velocity": 0.3937007874015748
          },
          {
            "duration": 0.06981974999999352,
            "durationTicks": 62,
            "midi": 44,
            "name": "G#2",
            "ticks": 68640,
            "time": 77.29722000000001,
            "velocity": 0.7007874015748031
          },
          {
            "duration": 0.011261250000018208,
            "durationTicks": 10,
            "midi": 48,
            "name": "C3",
            "ticks": 68647,
            "time": 77.30510287499999,
            "velocity": 0.6929133858267716
          },
          {
            "duration": 0.011261250000003997,
            "durationTicks": 10,
            "midi": 48,
            "name": "C3",
            "ticks": 68700,
            "time": 77.3647875,
            "velocity": 0.47244094488188976
          },
          {
            "duration": 0.011261249999989786,
            "durationTicks": 10,
            "midi": 48,
            "name": "C3",
            "ticks": 68769,
            "time": 77.442490125,
            "velocity": 0.3937007874015748
          },
          {
            "duration": 0.011261249999989786,
            "durationTicks": 10,
            "midi": 48,
            "name": "C3",
            "ticks": 68832,
            "time": 77.51343600000001,
            "velocity": 0.31496062992125984
          },
          {
            "duration": 0.06981974999999352,
            "durationTicks": 62,
            "midi": 44,
            "name": "G#2",
            "ticks": 68880,
            "time": 77.56749,
            "velocity": 0.7874015748031497
          },
          {
            "duration": 0.011261249999989786,
            "durationTicks": 10,
            "midi": 45,
            "name": "A2",
            "ticks": 68892,
            "time": 77.58100350000001,
            "velocity": 0.5039370078740157
          },
          {
            "duration": 0.011261250000003997,
            "durationTicks": 10,
            "midi": 45,
            "name": "A2",
            "ticks": 68939,
            "time": 77.633931375,
            "velocity": 0.3937007874015748
          },
          {
            "duration": 0.011261249999989786,
            "durationTicks": 10,
            "midi": 45,
            "name": "A2",
            "ticks": 68994,
            "time": 77.69586825,
            "velocity": 0.31496062992125984
          },
          {
            "duration": 0.011261249999989786,
            "durationTicks": 10,
            "midi": 45,
            "name": "A2",
            "ticks": 69056,
            "time": 77.76568800000001,
            "velocity": 0.2755905511811024
          },
          {
            "duration": 0.011261250000003997,
            "durationTicks": 10,
            "midi": 57,
            "name": "A3",
            "ticks": 69120,
            "time": 77.83776,
            "velocity": 0.6062992125984252
          },
          {
            "duration": 0.05292787499999463,
            "durationTicks": 47,
            "midi": 51,
            "name": "D#3",
            "ticks": 69360,
            "time": 78.10803,
            "velocity": 0.47244094488188976
          },
          {
            "duration": 0.07770262500001479,
            "durationTicks": 69,
            "midi": 44,
            "name": "G#2",
            "ticks": 69360,
            "time": 78.10803,
            "velocity": 0.6929133858267716
          },
          {
            "duration": 0.03490987499999676,
            "durationTicks": 31,
            "midi": 51,
            "name": "D#3",
            "ticks": 69520,
            "time": 78.28821,
            "velocity": 0.4015748031496063
          },
          {
            "duration": 0.05180175000000986,
            "durationTicks": 46,
            "midi": 51,
            "name": "D#3",
            "ticks": 69600,
            "time": 78.3783,
            "velocity": 0.47244094488188976
          },
          {
            "duration": 0.06306299999999965,
            "durationTicks": 56,
            "midi": 51,
            "name": "D#3",
            "ticks": 69840,
            "time": 78.64857,
            "velocity": 0.6062992125984252
          },
          {
            "duration": 0.07207199999999148,
            "durationTicks": 64,
            "midi": 44,
            "name": "G#2",
            "ticks": 69840,
            "time": 78.64857,
            "velocity": 0.8818897637795275
          },
          {
            "duration": 0.05292787499999463,
            "durationTicks": 47,
            "midi": 51,
            "name": "D#3",
            "ticks": 70000,
            "time": 78.82875000000001,
            "velocity": 0.5354330708661418
          },
          {
            "duration": 0.06193687500000067,
            "durationTicks": 55,
            "midi": 51,
            "name": "D#3",
            "ticks": 70080,
            "time": 78.91884,
            "velocity": 0.47244094488188976
          },
          {
            "duration": 0.06418912500001284,
            "durationTicks": 57,
            "midi": 51,
            "name": "D#3",
            "ticks": 70320,
            "time": 79.18911,
            "velocity": 0.5354330708661418
          },
          {
            "duration": 0.06981975000000773,
            "durationTicks": 62,
            "midi": 44,
            "name": "G#2",
            "ticks": 70320,
            "time": 79.18911,
            "velocity": 0.6929133858267716
          },
          {
            "duration": 0.048423374999998714,
            "durationTicks": 43,
            "midi": 51,
            "name": "D#3",
            "ticks": 70480,
            "time": 79.36929,
            "velocity": 0.5354330708661418
          },
          {
            "duration": 0.05743237499999054,
            "durationTicks": 51,
            "midi": 51,
            "name": "D#3",
            "ticks": 70560,
            "time": 79.45938000000001,
            "velocity": 0.47244094488188976
          },
          {
            "duration": 0.0439188750000028,
            "durationTicks": 39,
            "midi": 51,
            "name": "D#3",
            "ticks": 70800,
            "time": 79.72965,
            "velocity": 0.47244094488188976
          },
          {
            "duration": 0.06981974999999352,
            "durationTicks": 62,
            "midi": 44,
            "name": "G#2",
            "ticks": 70800,
            "time": 79.72965,
            "velocity": 0.8818897637795275
          },
          {
            "duration": 0.04391887499998859,
            "durationTicks": 39,
            "midi": 51,
            "name": "D#3",
            "ticks": 70960,
            "time": 79.90983000000001,
            "velocity": 0.5354330708661418
          },
          {
            "duration": 0.04617112500000076,
            "durationTicks": 41,
            "midi": 51,
            "name": "D#3",
            "ticks": 71040,
            "time": 79.99992,
            "velocity": 0.5354330708661418
          },
          {
            "duration": 0.05292787499999463,
            "durationTicks": 47,
            "midi": 51,
            "name": "D#3",
            "ticks": 71280,
            "time": 80.27019,
            "velocity": 0.47244094488188976
          },
          {
            "duration": 0.07770262500001479,
            "durationTicks": 69,
            "midi": 44,
            "name": "G#2",
            "ticks": 71280,
            "time": 80.27019,
            "velocity": 0.6929133858267716
          },
          {
            "duration": 0.03490987499999676,
            "durationTicks": 31,
            "midi": 51,
            "name": "D#3",
            "ticks": 71440,
            "time": 80.45037,
            "velocity": 0.4015748031496063
          },
          {
            "duration": 0.05180175000000986,
            "durationTicks": 46,
            "midi": 51,
            "name": "D#3",
            "ticks": 71520,
            "time": 80.54046,
            "velocity": 0.47244094488188976
          },
          {
            "duration": 0.06306299999999965,
            "durationTicks": 56,
            "midi": 51,
            "name": "D#3",
            "ticks": 71760,
            "time": 80.81073,
            "velocity": 0.6062992125984252
          },
          {
            "duration": 0.07207199999999148,
            "durationTicks": 64,
            "midi": 44,
            "name": "G#2",
            "ticks": 71760,
            "time": 80.81073,
            "velocity": 0.8818897637795275
          },
          {
            "duration": 0.05292787499999463,
            "durationTicks": 47,
            "midi": 51,
            "name": "D#3",
            "ticks": 71920,
            "time": 80.99091000000001,
            "velocity": 0.5354330708661418
          },
          {
            "duration": 0.06193687500000067,
            "durationTicks": 55,
            "midi": 51,
            "name": "D#3",
            "ticks": 72000,
            "time": 81.081,
            "velocity": 0.47244094488188976
          },
          {
            "duration": 0.06418912500001284,
            "durationTicks": 57,
            "midi": 51,
            "name": "D#3",
            "ticks": 72240,
            "time": 81.35127,
            "velocity": 0.5354330708661418
          },
          {
            "duration": 0.06981975000000773,
            "durationTicks": 62,
            "midi": 44,
            "name": "G#2",
            "ticks": 72240,
            "time": 81.35127,
            "velocity": 0.6929133858267716
          },
          {
            "duration": 0.048423374999998714,
            "durationTicks": 43,
            "midi": 51,
            "name": "D#3",
            "ticks": 72400,
            "time": 81.53145,
            "velocity": 0.5354330708661418
          },
          {
            "duration": 0.05743237499999054,
            "durationTicks": 51,
            "midi": 51,
            "name": "D#3",
            "ticks": 72480,
            "time": 81.62154000000001,
            "velocity": 0.47244094488188976
          },
          {
            "duration": 0.06981974999999352,
            "durationTicks": 62,
            "midi": 46,
            "name": "A#2",
            "ticks": 72600,
            "time": 81.756675,
            "velocity": 0.7874015748031497
          },
          {
            "duration": 0.06981974999999352,
            "durationTicks": 62,
            "midi": 44,
            "name": "G#2",
            "ticks": 72720,
            "time": 81.89181,
            "velocity": 0.8818897637795275
          },
          {
            "duration": 0.0439188750000028,
            "durationTicks": 39,
            "midi": 51,
            "name": "D#3",
            "ticks": 72720,
            "time": 81.89181,
            "velocity": 0.47244094488188976
          },
          {
            "duration": 0.04391887499998859,
            "durationTicks": 39,
            "midi": 51,
            "name": "D#3",
            "ticks": 72880,
            "time": 82.07199000000001,
            "velocity": 0.5354330708661418
          },
          {
            "duration": 0.04617112500000076,
            "durationTicks": 41,
            "midi": 51,
            "name": "D#3",
            "ticks": 72960,
            "time": 82.16208,
            "velocity": 0.5354330708661418
          },
          {
            "duration": 0.05292787499999463,
            "durationTicks": 47,
            "midi": 51,
            "name": "D#3",
            "ticks": 73200,
            "time": 82.43235,
            "velocity": 0.47244094488188976
          },
          {
            "duration": 0.07770262500001479,
            "durationTicks": 69,
            "midi": 44,
            "name": "G#2",
            "ticks": 73200,
            "time": 82.43235,
            "velocity": 0.6929133858267716
          },
          {
            "duration": 0.03490987499999676,
            "durationTicks": 31,
            "midi": 51,
            "name": "D#3",
            "ticks": 73360,
            "time": 82.61253,
            "velocity": 0.4015748031496063
          },
          {
            "duration": 0.05180175000000986,
            "durationTicks": 46,
            "midi": 51,
            "name": "D#3",
            "ticks": 73440,
            "time": 82.70262,
            "velocity": 0.47244094488188976
          },
          {
            "duration": 0.06306299999999965,
            "durationTicks": 56,
            "midi": 51,
            "name": "D#3",
            "ticks": 73680,
            "time": 82.97289,
            "velocity": 0.6062992125984252
          },
          {
            "duration": 0.07207199999999148,
            "durationTicks": 64,
            "midi": 44,
            "name": "G#2",
            "ticks": 73680,
            "time": 82.97289,
            "velocity": 0.8818897637795275
          },
          {
            "duration": 0.05292787499999463,
            "durationTicks": 47,
            "midi": 51,
            "name": "D#3",
            "ticks": 73840,
            "time": 83.15307000000001,
            "velocity": 0.5354330708661418
          },
          {
            "duration": 0.06193687500000067,
            "durationTicks": 55,
            "midi": 51,
            "name": "D#3",
            "ticks": 73920,
            "time": 83.24316,
            "velocity": 0.47244094488188976
          },
          {
            "duration": 0.06418912500001284,
            "durationTicks": 57,
            "midi": 51,
            "name": "D#3",
            "ticks": 74160,
            "time": 83.51343,
            "velocity": 0.5354330708661418
          },
          {
            "duration": 0.06981975000000773,
            "durationTicks": 62,
            "midi": 44,
            "name": "G#2",
            "ticks": 74160,
            "time": 83.51343,
            "velocity": 0.6929133858267716
          },
          {
            "duration": 0.048423374999998714,
            "durationTicks": 43,
            "midi": 51,
            "name": "D#3",
            "ticks": 74320,
            "time": 83.69361,
            "velocity": 0.5354330708661418
          },
          {
            "duration": 0.05743237499999054,
            "durationTicks": 51,
            "midi": 51,
            "name": "D#3",
            "ticks": 74400,
            "time": 83.78370000000001,
            "velocity": 0.47244094488188976
          },
          {
            "duration": 0.0439188750000028,
            "durationTicks": 39,
            "midi": 51,
            "name": "D#3",
            "ticks": 74640,
            "time": 84.05397,
            "velocity": 0.47244094488188976
          },
          {
            "duration": 0.06981974999999352,
            "durationTicks": 62,
            "midi": 44,
            "name": "G#2",
            "ticks": 74640,
            "time": 84.05397,
            "velocity": 0.8818897637795275
          },
          {
            "duration": 0.04391887499998859,
            "durationTicks": 39,
            "midi": 51,
            "name": "D#3",
            "ticks": 74800,
            "time": 84.23415000000001,
            "velocity": 0.5354330708661418
          },
          {
            "duration": 0.04617112500000076,
            "durationTicks": 41,
            "midi": 51,
            "name": "D#3",
            "ticks": 74880,
            "time": 84.32424,
            "velocity": 0.5354330708661418
          },
          {
            "duration": 0.05292787499999463,
            "durationTicks": 47,
            "midi": 51,
            "name": "D#3",
            "ticks": 75120,
            "time": 84.59451,
            "velocity": 0.47244094488188976
          },
          {
            "duration": 0.07770262500001479,
            "durationTicks": 69,
            "midi": 44,
            "name": "G#2",
            "ticks": 75120,
            "time": 84.59451,
            "velocity": 0.6929133858267716
          },
          {
            "duration": 0.03490987499999676,
            "durationTicks": 31,
            "midi": 51,
            "name": "D#3",
            "ticks": 75280,
            "time": 84.77469,
            "velocity": 0.4015748031496063
          },
          {
            "duration": 0.05180175000000986,
            "durationTicks": 46,
            "midi": 51,
            "name": "D#3",
            "ticks": 75360,
            "time": 84.86478,
            "velocity": 0.47244094488188976
          },
          {
            "duration": 0.06306299999999965,
            "durationTicks": 56,
            "midi": 51,
            "name": "D#3",
            "ticks": 75600,
            "time": 85.13505,
            "velocity": 0.6062992125984252
          },
          {
            "duration": 0.07207199999999148,
            "durationTicks": 64,
            "midi": 44,
            "name": "G#2",
            "ticks": 75600,
            "time": 85.13505,
            "velocity": 0.8818897637795275
          },
          {
            "duration": 0.05292787499999463,
            "durationTicks": 47,
            "midi": 51,
            "name": "D#3",
            "ticks": 75760,
            "time": 85.31523000000001,
            "velocity": 0.5354330708661418
          },
          {
            "duration": 0.06193687500000067,
            "durationTicks": 55,
            "midi": 51,
            "name": "D#3",
            "ticks": 75840,
            "time": 85.40532,
            "velocity": 0.47244094488188976
          },
          {
            "duration": 0.06418912500001284,
            "durationTicks": 57,
            "midi": 51,
            "name": "D#3",
            "ticks": 76080,
            "time": 85.67559,
            "velocity": 0.5354330708661418
          },
          {
            "duration": 0.06981975000000773,
            "durationTicks": 62,
            "midi": 44,
            "name": "G#2",
            "ticks": 76080,
            "time": 85.67559,
            "velocity": 0.6929133858267716
          },
          {
            "duration": 0.048423374999998714,
            "durationTicks": 43,
            "midi": 51,
            "name": "D#3",
            "ticks": 76240,
            "time": 85.85577,
            "velocity": 0.5354330708661418
          },
          {
            "duration": 0.05743237499999054,
            "durationTicks": 51,
            "midi": 51,
            "name": "D#3",
            "ticks": 76320,
            "time": 85.94586000000001,
            "velocity": 0.47244094488188976
          },
          {
            "duration": 0.0439188750000028,
            "durationTicks": 39,
            "midi": 51,
            "name": "D#3",
            "ticks": 76560,
            "time": 86.21613,
            "velocity": 0.47244094488188976
          },
          {
            "duration": 0.06981974999999352,
            "durationTicks": 62,
            "midi": 44,
            "name": "G#2",
            "ticks": 76560,
            "time": 86.21613,
            "velocity": 0.8818897637795275
          },
          {
            "duration": 0.04391887499998859,
            "durationTicks": 39,
            "midi": 51,
            "name": "D#3",
            "ticks": 76720,
            "time": 86.39631000000001,
            "velocity": 0.5354330708661418
          },
          {
            "duration": 0.04617112500000076,
            "durationTicks": 41,
            "midi": 51,
            "name": "D#3",
            "ticks": 76800,
            "time": 86.4864,
            "velocity": 0.5354330708661418
          },
          {
            "duration": 0.05292787499999463,
            "durationTicks": 47,
            "midi": 51,
            "name": "D#3",
            "ticks": 77040,
            "time": 86.75667,
            "velocity": 0.47244094488188976
          },
          {
            "duration": 0.07770262500001479,
            "durationTicks": 69,
            "midi": 44,
            "name": "G#2",
            "ticks": 77040,
            "time": 86.75667,
            "velocity": 0.6929133858267716
          },
          {
            "duration": 0.03490987499999676,
            "durationTicks": 31,
            "midi": 51,
            "name": "D#3",
            "ticks": 77200,
            "time": 86.93685,
            "velocity": 0.4015748031496063
          },
          {
            "duration": 0.05180175000000986,
            "durationTicks": 46,
            "midi": 51,
            "name": "D#3",
            "ticks": 77280,
            "time": 87.02694,
            "velocity": 0.47244094488188976
          },
          {
            "duration": 0.06306299999999965,
            "durationTicks": 56,
            "midi": 51,
            "name": "D#3",
            "ticks": 77520,
            "time": 87.29721,
            "velocity": 0.6062992125984252
          },
          {
            "duration": 0.07207199999999148,
            "durationTicks": 64,
            "midi": 44,
            "name": "G#2",
            "ticks": 77520,
            "time": 87.29721,
            "velocity": 0.8818897637795275
          },
          {
            "duration": 0.05292787499999463,
            "durationTicks": 47,
            "midi": 51,
            "name": "D#3",
            "ticks": 77680,
            "time": 87.47739000000001,
            "velocity": 0.5354330708661418
          },
          {
            "duration": 0.06193687500000067,
            "durationTicks": 55,
            "midi": 51,
            "name": "D#3",
            "ticks": 77760,
            "time": 87.56748,
            "velocity": 0.47244094488188976
          },
          {
            "duration": 0.011261250000003997,
            "durationTicks": 10,
            "midi": 40,
            "name": "E2",
            "ticks": 77886,
            "time": 87.70937175,
            "velocity": 0.3543307086614173
          },
          {
            "duration": 0.06981975000000773,
            "durationTicks": 62,
            "midi": 44,
            "name": "G#2",
            "ticks": 78000,
            "time": 87.83775,
            "velocity": 0.6929133858267716
          },
          {
            "duration": 0.06418912500001284,
            "durationTicks": 57,
            "midi": 51,
            "name": "D#3",
            "ticks": 78000,
            "time": 87.83775,
            "velocity": 0.5354330708661418
          },
          {
            "duration": 0.048423374999998714,
            "durationTicks": 43,
            "midi": 51,
            "name": "D#3",
            "ticks": 78160,
            "time": 88.01793,
            "velocity": 0.5354330708661418
          },
          {
            "duration": 0.05743237499999054,
            "durationTicks": 51,
            "midi": 51,
            "name": "D#3",
            "ticks": 78240,
            "time": 88.10802000000001,
            "velocity": 0.47244094488188976
          },
          {
            "duration": 0.011261250000003997,
            "durationTicks": 10,
            "midi": 40,
            "name": "E2",
            "ticks": 78240,
            "time": 88.10802000000001,
            "velocity": 0.31496062992125984
          },
          {
            "duration": 0.011261249999989786,
            "durationTicks": 10,
            "midi": 40,
            "name": "E2",
            "ticks": 78280,
            "time": 88.15306500000001,
            "velocity": 0.23622047244094488
          },
          {
            "duration": 0.011261250000003997,
            "durationTicks": 10,
            "midi": 40,
            "name": "E2",
            "ticks": 78320,
            "time": 88.19811,
            "velocity": 0.23622047244094488
          },
          {
            "duration": 0.011261250000003997,
            "durationTicks": 10,
            "midi": 40,
            "name": "E2",
            "ticks": 78352,
            "time": 88.234146,
            "velocity": 0.4094488188976378
          },
          {
            "duration": 0.011261250000003997,
            "durationTicks": 10,
            "midi": 40,
            "name": "E2",
            "ticks": 78360,
            "time": 88.243155,
            "velocity": 0.25196850393700787
          },
          {
            "duration": 0.06981974999999352,
            "durationTicks": 62,
            "midi": 44,
            "name": "G#2",
            "ticks": 78480,
            "time": 88.37829,
            "velocity": 0.8818897637795275
          },
          {
            "duration": 0.0439188750000028,
            "durationTicks": 39,
            "midi": 51,
            "name": "D#3",
            "ticks": 78480,
            "time": 88.37829,
            "velocity": 0.47244094488188976
          },
          {
            "duration": 0.011261250000003997,
            "durationTicks": 10,
            "midi": 49,
            "name": "C#3",
            "ticks": 78600,
            "time": 88.513425,
            "velocity": 0.5039370078740157
          },
          {
            "duration": 0.07770262500001479,
            "durationTicks": 69,
            "midi": 44,
            "name": "G#2",
            "ticks": 78960,
            "time": 88.91883,
            "velocity": 0.6929133858267716
          },
          {
            "duration": 0.05292787499999463,
            "durationTicks": 47,
            "midi": 51,
            "name": "D#3",
            "ticks": 78960,
            "time": 88.91883,
            "velocity": 0.47244094488188976
          },
          {
            "duration": 0.03490987499999676,
            "durationTicks": 31,
            "midi": 51,
            "name": "D#3",
            "ticks": 79120,
            "time": 89.09901,
            "velocity": 0.4015748031496063
          },
          {
            "duration": 0.05180175000000986,
            "durationTicks": 46,
            "midi": 51,
            "name": "D#3",
            "ticks": 79200,
            "time": 89.1891,
            "velocity": 0.47244094488188976
          },
          {
            "duration": 0.06306299999999965,
            "durationTicks": 56,
            "midi": 51,
            "name": "D#3",
            "ticks": 79440,
            "time": 89.45937,
            "velocity": 0.6062992125984252
          },
          {
            "duration": 0.07207199999999148,
            "durationTicks": 64,
            "midi": 44,
            "name": "G#2",
            "ticks": 79440,
            "time": 89.45937,
            "velocity": 0.8818897637795275
          },
          {
            "duration": 0.05292787499999463,
            "durationTicks": 47,
            "midi": 51,
            "name": "D#3",
            "ticks": 79600,
            "time": 89.63955000000001,
            "velocity": 0.5354330708661418
          },
          {
            "duration": 0.06193687500000067,
            "durationTicks": 55,
            "midi": 51,
            "name": "D#3",
            "ticks": 79680,
            "time": 89.72964,
            "velocity": 0.47244094488188976
          },
          {
            "duration": 0.06418912500001284,
            "durationTicks": 57,
            "midi": 51,
            "name": "D#3",
            "ticks": 79920,
            "time": 89.99991,
            "velocity": 0.5354330708661418
          },
          {
            "duration": 0.06981975000000773,
            "durationTicks": 62,
            "midi": 44,
            "name": "G#2",
            "ticks": 79920,
            "time": 89.99991,
            "velocity": 0.6929133858267716
          },
          {
            "duration": 0.048423374999998714,
            "durationTicks": 43,
            "midi": 51,
            "name": "D#3",
            "ticks": 80080,
            "time": 90.18009,
            "velocity": 0.5354330708661418
          },
          {
            "duration": 0.05743237499999054,
            "durationTicks": 51,
            "midi": 51,
            "name": "D#3",
            "ticks": 80160,
            "time": 90.27018000000001,
            "velocity": 0.47244094488188976
          },
          {
            "duration": 0.011261250000003997,
            "durationTicks": 10,
            "midi": 40,
            "name": "E2",
            "ticks": 80160,
            "time": 90.27018000000001,
            "velocity": 0.3700787401574803
          },
          {
            "duration": 0.011261249999989786,
            "durationTicks": 10,
            "midi": 40,
            "name": "E2",
            "ticks": 80200,
            "time": 90.31522500000001,
            "velocity": 0.23622047244094488
          },
          {
            "duration": 0.011261250000003997,
            "durationTicks": 10,
            "midi": 40,
            "name": "E2",
            "ticks": 80240,
            "time": 90.36027,
            "velocity": 0.1968503937007874
          },
          {
            "duration": 0.011261250000003997,
            "durationTicks": 10,
            "midi": 40,
            "name": "E2",
            "ticks": 80280,
            "time": 90.405315,
            "velocity": 0.15748031496062992
          },
          {
            "duration": 0.011261249999989786,
            "durationTicks": 10,
            "midi": 40,
            "name": "E2",
            "ticks": 80320,
            "time": 90.45036,
            "velocity": 0.23622047244094488
          },
          {
            "duration": 0.011261250000003997,
            "durationTicks": 10,
            "midi": 40,
            "name": "E2",
            "ticks": 80360,
            "time": 90.495405,
            "velocity": 0.25196850393700787
          },
          {
            "duration": 0.011261250000003997,
            "durationTicks": 10,
            "midi": 40,
            "name": "E2",
            "ticks": 80400,
            "time": 90.54045,
            "velocity": 0.25984251968503935
          },
          {
            "duration": 0.06981974999999352,
            "durationTicks": 62,
            "midi": 44,
            "name": "G#2",
            "ticks": 80400,
            "time": 90.54045,
            "velocity": 0.8818897637795275
          },
          {
            "duration": 0.0439188750000028,
            "durationTicks": 39,
            "midi": 51,
            "name": "D#3",
            "ticks": 80400,
            "time": 90.54045,
            "velocity": 0.47244094488188976
          },
          {
            "duration": 0.011261250000003997,
            "durationTicks": 10,
            "midi": 49,
            "name": "C#3",
            "ticks": 80520,
            "time": 90.675585,
            "velocity": 0.5039370078740157
          },
          {
            "duration": 0.07770262500001479,
            "durationTicks": 69,
            "midi": 44,
            "name": "G#2",
            "ticks": 80880,
            "time": 91.08099,
            "velocity": 0.6929133858267716
          },
          {
            "duration": 0.05292787499999463,
            "durationTicks": 47,
            "midi": 51,
            "name": "D#3",
            "ticks": 80880,
            "time": 91.08099,
            "velocity": 0.47244094488188976
          },
          {
            "duration": 0.03490987499999676,
            "durationTicks": 31,
            "midi": 51,
            "name": "D#3",
            "ticks": 81040,
            "time": 91.26117,
            "velocity": 0.4015748031496063
          },
          {
            "duration": 0.05180175000000986,
            "durationTicks": 46,
            "midi": 51,
            "name": "D#3",
            "ticks": 81120,
            "time": 91.35126,
            "velocity": 0.47244094488188976
          },
          {
            "duration": 0.06306299999999965,
            "durationTicks": 56,
            "midi": 51,
            "name": "D#3",
            "ticks": 81360,
            "time": 91.62153,
            "velocity": 0.6062992125984252
          },
          {
            "duration": 0.07207199999999148,
            "durationTicks": 64,
            "midi": 44,
            "name": "G#2",
            "ticks": 81360,
            "time": 91.62153,
            "velocity": 0.8818897637795275
          },
          {
            "duration": 0.05292787499999463,
            "durationTicks": 47,
            "midi": 51,
            "name": "D#3",
            "ticks": 81520,
            "time": 91.80171000000001,
            "velocity": 0.5354330708661418
          },
          {
            "duration": 0.06193687500000067,
            "durationTicks": 55,
            "midi": 51,
            "name": "D#3",
            "ticks": 81600,
            "time": 91.8918,
            "velocity": 0.47244094488188976
          },
          {
            "duration": 0.06418912500001284,
            "durationTicks": 57,
            "midi": 51,
            "name": "D#3",
            "ticks": 81840,
            "time": 92.16207,
            "velocity": 0.5354330708661418
          },
          {
            "duration": 0.06981975000000773,
            "durationTicks": 62,
            "midi": 44,
            "name": "G#2",
            "ticks": 81840,
            "time": 92.16207,
            "velocity": 0.6929133858267716
          },
          {
            "duration": 0.048423374999998714,
            "durationTicks": 43,
            "midi": 51,
            "name": "D#3",
            "ticks": 82000,
            "time": 92.34225,
            "velocity": 0.5354330708661418
          },
          {
            "duration": 0.05743237499999054,
            "durationTicks": 51,
            "midi": 51,
            "name": "D#3",
            "ticks": 82080,
            "time": 92.43234000000001,
            "velocity": 0.47244094488188976
          },
          {
            "duration": 0.0439188750000028,
            "durationTicks": 39,
            "midi": 51,
            "name": "D#3",
            "ticks": 82320,
            "time": 92.70261,
            "velocity": 0.47244094488188976
          },
          {
            "duration": 0.06981974999999352,
            "durationTicks": 62,
            "midi": 44,
            "name": "G#2",
            "ticks": 82320,
            "time": 92.70261,
            "velocity": 0.8818897637795275
          },
          {
            "duration": 0.04391887499998859,
            "durationTicks": 39,
            "midi": 51,
            "name": "D#3",
            "ticks": 82480,
            "time": 92.88279000000001,
            "velocity": 0.5354330708661418
          },
          {
            "duration": 0.04617112500000076,
            "durationTicks": 41,
            "midi": 51,
            "name": "D#3",
            "ticks": 82560,
            "time": 92.97288,
            "velocity": 0.5354330708661418
          },
          {
            "duration": 0.011261250000003997,
            "durationTicks": 10,
            "midi": 40,
            "name": "E2",
            "ticks": 82564,
            "time": 92.9773845,
            "velocity": 0.9133858267716536
          },
          {
            "duration": 0.07770262500001479,
            "durationTicks": 69,
            "midi": 44,
            "name": "G#2",
            "ticks": 82800,
            "time": 93.24315,
            "velocity": 0.6929133858267716
          },
          {
            "duration": 0.011261249999989786,
            "durationTicks": 10,
            "midi": 40,
            "name": "E2",
            "ticks": 82810,
            "time": 93.25441125,
            "velocity": 0.5118110236220472
          },
          {
            "duration": 0.011261249999989786,
            "durationTicks": 10,
            "midi": 40,
            "name": "E2",
            "ticks": 82960,
            "time": 93.42333,
            "velocity": 0.5590551181102362
          },
          {
            "duration": 0.011261249999989786,
            "durationTicks": 10,
            "midi": 40,
            "name": "E2",
            "ticks": 83048,
            "time": 93.52242900000002,
            "velocity": 1
          },
          {
            "duration": 0.011261250000003997,
            "durationTicks": 10,
            "midi": 49,
            "name": "C#3",
            "ticks": 83160,
            "time": 93.648555,
            "velocity": 0.5039370078740157
          },
          {
            "duration": 0.0664413750000108,
            "durationTicks": 59,
            "midi": 46,
            "name": "A#2",
            "ticks": 83210,
            "time": 93.70486125,
            "velocity": 0.7952755905511811
          },
          {
            "duration": 0.06081074999998748,
            "durationTicks": 54,
            "midi": 42,
            "name": "F#2",
            "ticks": 83337,
            "time": 93.847879125,
            "velocity": 0.47244094488188976
          },
          {
            "duration": 0.011261249999989786,
            "durationTicks": 10,
            "midi": 57,
            "name": "A3",
            "ticks": 83500,
            "time": 94.03143750000001,
            "velocity": 0.6062992125984252
          },
          {
            "duration": 0.09459449999999947,
            "durationTicks": 84,
            "midi": 46,
            "name": "A#2",
            "ticks": 83520,
            "time": 94.05396,
            "velocity": 0.905511811023622
          },
          {
            "duration": 0.0923422499999873,
            "durationTicks": 82,
            "midi": 42,
            "name": "F#2",
            "ticks": 83620,
            "time": 94.16657250000002,
            "velocity": 0.47244094488188976
          },
          {
            "duration": 0.011261250000003997,
            "durationTicks": 10,
            "midi": 50,
            "name": "D3",
            "ticks": 84000,
            "time": 94.59450000000001,
            "velocity": 0.3937007874015748
          },
          {
            "duration": 0.011261250000018208,
            "durationTicks": 10,
            "midi": 47,
            "name": "B2",
            "ticks": 84180,
            "time": 94.7972025,
            "velocity": 0.3937007874015748
          },
          {
            "duration": 0.011261250000003997,
            "durationTicks": 10,
            "midi": 45,
            "name": "A2",
            "ticks": 84240,
            "time": 94.86477000000001,
            "velocity": 0.3937007874015748
          },
          {
            "duration": 0.04617112500000076,
            "durationTicks": 41,
            "midi": 51,
            "name": "D#3",
            "ticks": 84480,
            "time": 95.13504,
            "velocity": 0.5354330708661418
          },
          {
            "duration": 0.05292787499999463,
            "durationTicks": 47,
            "midi": 51,
            "name": "D#3",
            "ticks": 84720,
            "time": 95.40531,
            "velocity": 0.47244094488188976
          },
          {
            "duration": 0.07770262500001479,
            "durationTicks": 69,
            "midi": 44,
            "name": "G#2",
            "ticks": 84720,
            "time": 95.40531,
            "velocity": 0.6929133858267716
          },
          {
            "duration": 0.03490987499999676,
            "durationTicks": 31,
            "midi": 51,
            "name": "D#3",
            "ticks": 84880,
            "time": 95.58549000000001,
            "velocity": 0.4015748031496063
          },
          {
            "duration": 0.05180175000000986,
            "durationTicks": 46,
            "midi": 51,
            "name": "D#3",
            "ticks": 84960,
            "time": 95.67558,
            "velocity": 0.47244094488188976
          },
          {
            "duration": 0.06306299999999965,
            "durationTicks": 56,
            "midi": 51,
            "name": "D#3",
            "ticks": 85200,
            "time": 95.94585000000001,
            "velocity": 0.6062992125984252
          },
          {
            "duration": 0.07207199999999148,
            "durationTicks": 64,
            "midi": 44,
            "name": "G#2",
            "ticks": 85200,
            "time": 95.94585000000001,
            "velocity": 0.8818897637795275
          },
          {
            "duration": 0.05292787499999463,
            "durationTicks": 47,
            "midi": 51,
            "name": "D#3",
            "ticks": 85360,
            "time": 96.12603000000001,
            "velocity": 0.5354330708661418
          },
          {
            "duration": 0.06193687500000067,
            "durationTicks": 55,
            "midi": 51,
            "name": "D#3",
            "ticks": 85440,
            "time": 96.21612,
            "velocity": 0.47244094488188976
          },
          {
            "duration": 0.06418912500001284,
            "durationTicks": 57,
            "midi": 51,
            "name": "D#3",
            "ticks": 85680,
            "time": 96.48639,
            "velocity": 0.5354330708661418
          },
          {
            "duration": 0.06981975000000773,
            "durationTicks": 62,
            "midi": 44,
            "name": "G#2",
            "ticks": 85680,
            "time": 96.48639,
            "velocity": 0.6929133858267716
          },
          {
            "duration": 0.048423374999998714,
            "durationTicks": 43,
            "midi": 51,
            "name": "D#3",
            "ticks": 85840,
            "time": 96.66657000000001,
            "velocity": 0.5354330708661418
          },
          {
            "duration": 0.05743237499999054,
            "durationTicks": 51,
            "midi": 51,
            "name": "D#3",
            "ticks": 85920,
            "time": 96.75666000000001,
            "velocity": 0.47244094488188976
          },
          {
            "duration": 0.0439188750000028,
            "durationTicks": 39,
            "midi": 51,
            "name": "D#3",
            "ticks": 86160,
            "time": 97.02693000000001,
            "velocity": 0.47244094488188976
          },
          {
            "duration": 0.06981974999999352,
            "durationTicks": 62,
            "midi": 44,
            "name": "G#2",
            "ticks": 86160,
            "time": 97.02693000000001,
            "velocity": 0.8818897637795275
          },
          {
            "duration": 0.04391887499998859,
            "durationTicks": 39,
            "midi": 51,
            "name": "D#3",
            "ticks": 86320,
            "time": 97.20711000000001,
            "velocity": 0.5354330708661418
          },
          {
            "duration": 0.04617112500000076,
            "durationTicks": 41,
            "midi": 51,
            "name": "D#3",
            "ticks": 86400,
            "time": 97.2972,
            "velocity": 0.5354330708661418
          },
          {
            "duration": 0.05292787499999463,
            "durationTicks": 47,
            "midi": 51,
            "name": "D#3",
            "ticks": 86640,
            "time": 97.56747,
            "velocity": 0.47244094488188976
          },
          {
            "duration": 0.07770262500001479,
            "durationTicks": 69,
            "midi": 44,
            "name": "G#2",
            "ticks": 86640,
            "time": 97.56747,
            "velocity": 0.6929133858267716
          },
          {
            "duration": 0.03490987499999676,
            "durationTicks": 31,
            "midi": 51,
            "name": "D#3",
            "ticks": 86800,
            "time": 97.74765000000001,
            "velocity": 0.4015748031496063
          },
          {
            "duration": 0.05180175000000986,
            "durationTicks": 46,
            "midi": 51,
            "name": "D#3",
            "ticks": 86880,
            "time": 97.83774,
            "velocity": 0.47244094488188976
          },
          {
            "duration": 0.06306299999999965,
            "durationTicks": 56,
            "midi": 51,
            "name": "D#3",
            "ticks": 87120,
            "time": 98.10801000000001,
            "velocity": 0.6062992125984252
          },
          {
            "duration": 0.07207199999999148,
            "durationTicks": 64,
            "midi": 44,
            "name": "G#2",
            "ticks": 87120,
            "time": 98.10801000000001,
            "velocity": 0.8818897637795275
          },
          {
            "duration": 0.05292787499999463,
            "durationTicks": 47,
            "midi": 51,
            "name": "D#3",
            "ticks": 87280,
            "time": 98.28819000000001,
            "velocity": 0.5354330708661418
          },
          {
            "duration": 0.06193687500000067,
            "durationTicks": 55,
            "midi": 51,
            "name": "D#3",
            "ticks": 87360,
            "time": 98.37828,
            "velocity": 0.47244094488188976
          },
          {
            "duration": 0.06418912500001284,
            "durationTicks": 57,
            "midi": 51,
            "name": "D#3",
            "ticks": 87600,
            "time": 98.64855,
            "velocity": 0.5354330708661418
          },
          {
            "duration": 0.06981975000000773,
            "durationTicks": 62,
            "midi": 44,
            "name": "G#2",
            "ticks": 87600,
            "time": 98.64855,
            "velocity": 0.6929133858267716
          },
          {
            "duration": 0.048423374999998714,
            "durationTicks": 43,
            "midi": 51,
            "name": "D#3",
            "ticks": 87760,
            "time": 98.82873000000001,
            "velocity": 0.5354330708661418
          },
          {
            "duration": 0.05743237499999054,
            "durationTicks": 51,
            "midi": 51,
            "name": "D#3",
            "ticks": 87840,
            "time": 98.91882000000001,
            "velocity": 0.47244094488188976
          },
          {
            "duration": 0.0439188750000028,
            "durationTicks": 39,
            "midi": 51,
            "name": "D#3",
            "ticks": 88080,
            "time": 99.18909000000001,
            "velocity": 0.47244094488188976
          },
          {
            "duration": 0.06981974999999352,
            "durationTicks": 62,
            "midi": 44,
            "name": "G#2",
            "ticks": 88080,
            "time": 99.18909000000001,
            "velocity": 0.8818897637795275
          },
          {
            "duration": 0.011261249999989786,
            "durationTicks": 10,
            "midi": 40,
            "name": "E2",
            "ticks": 88240,
            "time": 99.36927000000001,
            "velocity": 0.15748031496062992
          },
          {
            "duration": 0.011261250000003997,
            "durationTicks": 10,
            "midi": 40,
            "name": "E2",
            "ticks": 88280,
            "time": 99.414315,
            "velocity": 0.23622047244094488
          },
          {
            "duration": 0.011261250000003997,
            "durationTicks": 10,
            "midi": 40,
            "name": "E2",
            "ticks": 88320,
            "time": 99.45936,
            "velocity": 0.8818897637795275
          },
          {
            "duration": 0.011261249999989786,
            "durationTicks": 10,
            "midi": 40,
            "name": "E2",
            "ticks": 88480,
            "time": 99.63954000000001,
            "velocity": 0.15748031496062992
          },
          {
            "duration": 0.011261250000003997,
            "durationTicks": 10,
            "midi": 40,
            "name": "E2",
            "ticks": 88520,
            "time": 99.684585,
            "velocity": 0.23622047244094488
          },
          {
            "duration": 0.011261250000003997,
            "durationTicks": 10,
            "midi": 40,
            "name": "E2",
            "ticks": 88560,
            "time": 99.72963,
            "velocity": 0.8818897637795275
          },
          {
            "duration": 0.07770262500001479,
            "durationTicks": 69,
            "midi": 44,
            "name": "G#2",
            "ticks": 88560,
            "time": 99.72963,
            "velocity": 0.6929133858267716
          },
          {
            "duration": 0.07770262500001479,
            "durationTicks": 69,
            "midi": 44,
            "name": "G#2",
            "ticks": 88800,
            "time": 99.9999,
            "velocity": 0.6062992125984252
          },
          {
            "duration": 0.011261250000018208,
            "durationTicks": 10,
            "midi": 40,
            "name": "E2",
            "ticks": 88800,
            "time": 99.9999,
            "velocity": 0.15748031496062992
          },
          {
            "duration": 0.011261250000003997,
            "durationTicks": 10,
            "midi": 40,
            "name": "E2",
            "ticks": 88880,
            "time": 100.08999,
            "velocity": 0.23622047244094488
          },
          {
            "duration": 0.011261249999989786,
            "durationTicks": 10,
            "midi": 40,
            "name": "E2",
            "ticks": 88960,
            "time": 100.18008,
            "velocity": 0.31496062992125984
          },
          {
            "duration": 0.011261250000003997,
            "durationTicks": 10,
            "midi": 40,
            "name": "E2",
            "ticks": 89040,
            "time": 100.27017000000001,
            "velocity": 0.4881889763779528
          },
          {
            "duration": 0.07207199999999148,
            "durationTicks": 64,
            "midi": 44,
            "name": "G#2",
            "ticks": 89040,
            "time": 100.27017000000001,
            "velocity": 0.6929133858267716
          },
          {
            "duration": 0.011261250000003997,
            "durationTicks": 10,
            "midi": 40,
            "name": "E2",
            "ticks": 89120,
            "time": 100.36026,
            "velocity": 0.6299212598425197
          },
          {
            "duration": 0.011261249999989786,
            "durationTicks": 10,
            "midi": 40,
            "name": "E2",
            "ticks": 89200,
            "time": 100.45035000000001,
            "velocity": 0.7559055118110236
          },
          {
            "duration": 0.011261250000003997,
            "durationTicks": 10,
            "midi": 40,
            "name": "E2",
            "ticks": 89280,
            "time": 100.54044,
            "velocity": 0.9448818897637795
          },
          {
            "duration": 0.06981975000000773,
            "durationTicks": 62,
            "midi": 44,
            "name": "G#2",
            "ticks": 89520,
            "time": 100.81071,
            "velocity": 0.6062992125984252
          },
          {
            "duration": 0.06981974999999352,
            "durationTicks": 62,
            "midi": 44,
            "name": "G#2",
            "ticks": 89760,
            "time": 101.08098000000001,
            "velocity": 0.6929133858267716
          },
          {
            "duration": 0.011261250000003997,
            "durationTicks": 10,
            "midi": 49,
            "name": "C#3",
            "ticks": 89760,
            "time": 101.08098000000001,
            "velocity": 0.31496062992125984
          },
          {
            "duration": 0.011261250000003997,
            "durationTicks": 10,
            "midi": 40,
            "name": "E2",
            "ticks": 90000,
            "time": 101.35125000000001,
            "velocity": 0.6929133858267716
          },
          {
            "duration": 0.06981974999999352,
            "durationTicks": 62,
            "midi": 44,
            "name": "G#2",
            "ticks": 90000,
            "time": 101.35125000000001,
            "velocity": 0.6929133858267716
          },
          {
            "duration": 0.011261250000003997,
            "durationTicks": 10,
            "midi": 57,
            "name": "A3",
            "ticks": 90120,
            "time": 101.486385,
            "velocity": 0.5039370078740157
          },
          {
            "duration": 0.05292787499999463,
            "durationTicks": 47,
            "midi": 51,
            "name": "D#3",
            "ticks": 90480,
            "time": 101.89179,
            "velocity": 0.47244094488188976
          },
          {
            "duration": 0.07770262500001479,
            "durationTicks": 69,
            "midi": 44,
            "name": "G#2",
            "ticks": 90480,
            "time": 101.89179,
            "velocity": 0.6929133858267716
          },
          {
            "duration": 0.03490987499999676,
            "durationTicks": 31,
            "midi": 51,
            "name": "D#3",
            "ticks": 90640,
            "time": 102.07197000000001,
            "velocity": 0.4015748031496063
          },
          {
            "duration": 0.05180175000000986,
            "durationTicks": 46,
            "midi": 51,
            "name": "D#3",
            "ticks": 90720,
            "time": 102.16206,
            "velocity": 0.47244094488188976
          },
          {
            "duration": 0.06306299999999965,
            "durationTicks": 56,
            "midi": 51,
            "name": "D#3",
            "ticks": 90960,
            "time": 102.43233000000001,
            "velocity": 0.6062992125984252
          },
          {
            "duration": 0.07207199999999148,
            "durationTicks": 64,
            "midi": 44,
            "name": "G#2",
            "ticks": 90960,
            "time": 102.43233000000001,
            "velocity": 0.8818897637795275
          },
          {
            "duration": 0.05292787499999463,
            "durationTicks": 47,
            "midi": 51,
            "name": "D#3",
            "ticks": 91120,
            "time": 102.61251000000001,
            "velocity": 0.5354330708661418
          },
          {
            "duration": 0.06193687500000067,
            "durationTicks": 55,
            "midi": 51,
            "name": "D#3",
            "ticks": 91200,
            "time": 102.7026,
            "velocity": 0.47244094488188976
          },
          {
            "duration": 0.06418912500001284,
            "durationTicks": 57,
            "midi": 51,
            "name": "D#3",
            "ticks": 91440,
            "time": 102.97287,
            "velocity": 0.5354330708661418
          },
          {
            "duration": 0.06981975000000773,
            "durationTicks": 62,
            "midi": 44,
            "name": "G#2",
            "ticks": 91440,
            "time": 102.97287,
            "velocity": 0.6929133858267716
          },
          {
            "duration": 0.048423374999998714,
            "durationTicks": 43,
            "midi": 51,
            "name": "D#3",
            "ticks": 91600,
            "time": 103.15305000000001,
            "velocity": 0.5354330708661418
          },
          {
            "duration": 0.05743237499999054,
            "durationTicks": 51,
            "midi": 51,
            "name": "D#3",
            "ticks": 91680,
            "time": 103.24314000000001,
            "velocity": 0.47244094488188976
          },
          {
            "duration": 0.0439188750000028,
            "durationTicks": 39,
            "midi": 51,
            "name": "D#3",
            "ticks": 91920,
            "time": 103.51341000000001,
            "velocity": 0.47244094488188976
          },
          {
            "duration": 0.06981974999999352,
            "durationTicks": 62,
            "midi": 44,
            "name": "G#2",
            "ticks": 91920,
            "time": 103.51341000000001,
            "velocity": 0.8818897637795275
          },
          {
            "duration": 0.04391887499998859,
            "durationTicks": 39,
            "midi": 51,
            "name": "D#3",
            "ticks": 92080,
            "time": 103.69359000000001,
            "velocity": 0.5354330708661418
          },
          {
            "duration": 0.06193687500000067,
            "durationTicks": 55,
            "midi": 51,
            "name": "D#3",
            "ticks": 92160,
            "time": 103.78368,
            "velocity": 0.47244094488188976
          },
          {
            "duration": 0.047297249999999735,
            "durationTicks": 42,
            "midi": 51,
            "name": "D#3",
            "ticks": 92400,
            "time": 104.05395,
            "velocity": 0.6062992125984252
          },
          {
            "duration": 0.07770262500001479,
            "durationTicks": 69,
            "midi": 44,
            "name": "G#2",
            "ticks": 92400,
            "time": 104.05395,
            "velocity": 0.6929133858267716
          },
          {
            "duration": 0.048423374999998714,
            "durationTicks": 43,
            "midi": 51,
            "name": "D#3",
            "ticks": 92560,
            "time": 104.23413000000001,
            "velocity": 0.5354330708661418
          },
          {
            "duration": 0.07207200000000569,
            "durationTicks": 64,
            "midi": 44,
            "name": "G#2",
            "ticks": 92640,
            "time": 104.32422,
            "velocity": 0.7086614173228346
          },
          {
            "duration": 0.048423374999998714,
            "durationTicks": 43,
            "midi": 51,
            "name": "D#3",
            "ticks": 92760,
            "time": 104.459355,
            "velocity": 0.5354330708661418
          },
          {
            "duration": 0.011261250000003997,
            "durationTicks": 10,
            "midi": 46,
            "name": "A#2",
            "ticks": 93000,
            "time": 104.729625,
            "velocity": 1
          },
          {
            "duration": 0.06981974999999352,
            "durationTicks": 62,
            "midi": 44,
            "name": "G#2",
            "ticks": 93100,
            "time": 104.84223750000001,
            "velocity": 0.7480314960629921
          },
          {
            "duration": 0.06981975000000773,
            "durationTicks": 62,
            "midi": 44,
            "name": "G#2",
            "ticks": 93360,
            "time": 105.13503,
            "velocity": 0.6929133858267716
          },
          {
            "duration": 0.011261249999989786,
            "durationTicks": 10,
            "midi": 40,
            "name": "E2",
            "ticks": 93520,
            "time": 105.31521000000001,
            "velocity": 0.1968503937007874
          },
          {
            "duration": 0.011261250000003997,
            "durationTicks": 10,
            "midi": 40,
            "name": "E2",
            "ticks": 93560,
            "time": 105.360255,
            "velocity": 0.2755905511811024
          },
          {
            "duration": 0.011261250000003997,
            "durationTicks": 10,
            "midi": 40,
            "name": "E2",
            "ticks": 93600,
            "time": 105.40530000000001,
            "velocity": 0.5039370078740157
          },
          {
            "duration": 0.06981974999999352,
            "durationTicks": 62,
            "midi": 44,
            "name": "G#2",
            "ticks": 93600,
            "time": 105.40530000000001,
            "velocity": 0.7874015748031497
          },
          {
            "duration": 0.011261250000003997,
            "durationTicks": 10,
            "midi": 40,
            "name": "E2",
            "ticks": 93680,
            "time": 105.49539,
            "velocity": 0.5039370078740157
          },
          {
            "duration": 0.011261249999989786,
            "durationTicks": 10,
            "midi": 40,
            "name": "E2",
            "ticks": 93760,
            "time": 105.58548,
            "velocity": 0.47244094488188976
          },
          {
            "duration": 0.011261250000003997,
            "durationTicks": 10,
            "midi": 48,
            "name": "C3",
            "ticks": 93840,
            "time": 105.67557000000001,
            "velocity": 0.6062992125984252
          },
          {
            "duration": 0.06981974999999352,
            "durationTicks": 62,
            "midi": 44,
            "name": "G#2",
            "ticks": 93840,
            "time": 105.67557000000001,
            "velocity": 0.8818897637795275
          },
          {
            "duration": 0.011261250000003997,
            "durationTicks": 10,
            "midi": 47,
            "name": "B2",
            "ticks": 93920,
            "time": 105.76566,
            "velocity": 0.47244094488188976
          },
          {
            "duration": 0.011261249999989786,
            "durationTicks": 10,
            "midi": 43,
            "name": "G2",
            "ticks": 94000,
            "time": 105.85575000000001,
            "velocity": 0.31496062992125984
          },
          {
            "duration": 0.011261250000003997,
            "durationTicks": 10,
            "midi": 57,
            "name": "A3",
            "ticks": 94080,
            "time": 105.94584,
            "velocity": 0.5039370078740157
          },
          {
            "duration": 0.07770262500001479,
            "durationTicks": 69,
            "midi": 44,
            "name": "G#2",
            "ticks": 94320,
            "time": 106.21611,
            "velocity": 0.6929133858267716
          },
          {
            "duration": 0.05292787499999463,
            "durationTicks": 47,
            "midi": 51,
            "name": "D#3",
            "ticks": 94320,
            "time": 106.21611,
            "velocity": 0.47244094488188976
          },
          {
            "duration": 0.03490987499999676,
            "durationTicks": 31,
            "midi": 51,
            "name": "D#3",
            "ticks": 94480,
            "time": 106.39629000000001,
            "velocity": 0.4015748031496063
          },
          {
            "duration": 0.05180175000000986,
            "durationTicks": 46,
            "midi": 51,
            "name": "D#3",
            "ticks": 94560,
            "time": 106.48638,
            "velocity": 0.47244094488188976
          },
          {
            "duration": 0.07207199999999148,
            "durationTicks": 64,
            "midi": 44,
            "name": "G#2",
            "ticks": 94800,
            "time": 106.75665000000001,
            "velocity": 0.8818897637795275
          },
          {
            "duration": 0.06306299999999965,
            "durationTicks": 56,
            "midi": 51,
            "name": "D#3",
            "ticks": 94800,
            "time": 106.75665000000001,
            "velocity": 0.6062992125984252
          },
          {
            "duration": 0.05292787499999463,
            "durationTicks": 47,
            "midi": 51,
            "name": "D#3",
            "ticks": 94960,
            "time": 106.93683000000001,
            "velocity": 0.5354330708661418
          },
          {
            "duration": 0.06193687500000067,
            "durationTicks": 55,
            "midi": 51,
            "name": "D#3",
            "ticks": 95040,
            "time": 107.02692,
            "velocity": 0.47244094488188976
          },
          {
            "duration": 0.06981975000000773,
            "durationTicks": 62,
            "midi": 44,
            "name": "G#2",
            "ticks": 95280,
            "time": 107.29719,
            "velocity": 0.6929133858267716
          },
          {
            "duration": 0.06418912500001284,
            "durationTicks": 57,
            "midi": 51,
            "name": "D#3",
            "ticks": 95280,
            "time": 107.29719,
            "velocity": 0.5354330708661418
          },
          {
            "duration": 0.048423374999998714,
            "durationTicks": 43,
            "midi": 51,
            "name": "D#3",
            "ticks": 95440,
            "time": 107.47737000000001,
            "velocity": 0.5354330708661418
          },
          {
            "duration": 0.05743237499999054,
            "durationTicks": 51,
            "midi": 51,
            "name": "D#3",
            "ticks": 95520,
            "time": 107.56746000000001,
            "velocity": 0.47244094488188976
          },
          {
            "duration": 0.06981974999999352,
            "durationTicks": 62,
            "midi": 44,
            "name": "G#2",
            "ticks": 95760,
            "time": 107.83773000000001,
            "velocity": 0.8818897637795275
          },
          {
            "duration": 0.0439188750000028,
            "durationTicks": 39,
            "midi": 51,
            "name": "D#3",
            "ticks": 95760,
            "time": 107.83773000000001,
            "velocity": 0.47244094488188976
          },
          {
            "duration": 0.04391887499998859,
            "durationTicks": 39,
            "midi": 51,
            "name": "D#3",
            "ticks": 95920,
            "time": 108.01791000000001,
            "velocity": 0.5354330708661418
          },
          {
            "duration": 0.04617112500000076,
            "durationTicks": 41,
            "midi": 51,
            "name": "D#3",
            "ticks": 96000,
            "time": 108.108,
            "velocity": 0.5354330708661418
          },
          {
            "duration": 0.07770262500001479,
            "durationTicks": 69,
            "midi": 44,
            "name": "G#2",
            "ticks": 96240,
            "time": 108.37827,
            "velocity": 0.6929133858267716
          },
          {
            "duration": 0.05292787499999463,
            "durationTicks": 47,
            "midi": 51,
            "name": "D#3",
            "ticks": 96240,
            "time": 108.37827,
            "velocity": 0.47244094488188976
          },
          {
            "duration": 0.03490987499999676,
            "durationTicks": 31,
            "midi": 51,
            "name": "D#3",
            "ticks": 96400,
            "time": 108.55845000000001,
            "velocity": 0.4015748031496063
          },
          {
            "duration": 0.05180175000000986,
            "durationTicks": 46,
            "midi": 51,
            "name": "D#3",
            "ticks": 96480,
            "time": 108.64854,
            "velocity": 0.47244094488188976
          },
          {
            "duration": 0.07207199999999148,
            "durationTicks": 64,
            "midi": 44,
            "name": "G#2",
            "ticks": 96720,
            "time": 108.91881000000001,
            "velocity": 0.8818897637795275
          },
          {
            "duration": 0.06306299999999965,
            "durationTicks": 56,
            "midi": 51,
            "name": "D#3",
            "ticks": 96720,
            "time": 108.91881000000001,
            "velocity": 0.6062992125984252
          },
          {
            "duration": 0.05292787499999463,
            "durationTicks": 47,
            "midi": 51,
            "name": "D#3",
            "ticks": 96880,
            "time": 109.09899000000001,
            "velocity": 0.5354330708661418
          },
          {
            "duration": 0.06193687500000067,
            "durationTicks": 55,
            "midi": 51,
            "name": "D#3",
            "ticks": 96960,
            "time": 109.18908,
            "velocity": 0.47244094488188976
          },
          {
            "duration": 0.06418912500001284,
            "durationTicks": 57,
            "midi": 51,
            "name": "D#3",
            "ticks": 97200,
            "time": 109.45935,
            "velocity": 0.5354330708661418
          },
          {
            "duration": 0.06981975000000773,
            "durationTicks": 62,
            "midi": 44,
            "name": "G#2",
            "ticks": 97200,
            "time": 109.45935,
            "velocity": 0.6929133858267716
          },
          {
            "duration": 0.048423374999998714,
            "durationTicks": 43,
            "midi": 51,
            "name": "D#3",
            "ticks": 97360,
            "time": 109.63953000000001,
            "velocity": 0.5354330708661418
          },
          {
            "duration": 0.05743237499999054,
            "durationTicks": 51,
            "midi": 51,
            "name": "D#3",
            "ticks": 97440,
            "time": 109.72962000000001,
            "velocity": 0.47244094488188976
          },
          {
            "duration": 0.06981974999999352,
            "durationTicks": 62,
            "midi": 44,
            "name": "G#2",
            "ticks": 97680,
            "time": 109.99989000000001,
            "velocity": 0.8818897637795275
          },
          {
            "duration": 0.0439188750000028,
            "durationTicks": 39,
            "midi": 51,
            "name": "D#3",
            "ticks": 97680,
            "time": 109.99989000000001,
            "velocity": 0.47244094488188976
          },
          {
            "duration": 0.04391887499998859,
            "durationTicks": 39,
            "midi": 51,
            "name": "D#3",
            "ticks": 97840,
            "time": 110.18007000000001,
            "velocity": 0.5354330708661418
          },
          {
            "duration": 0.04617112500000076,
            "durationTicks": 41,
            "midi": 51,
            "name": "D#3",
            "ticks": 97920,
            "time": 110.27016,
            "velocity": 0.5354330708661418
          },
          {
            "duration": 0.07770262500001479,
            "durationTicks": 69,
            "midi": 44,
            "name": "G#2",
            "ticks": 98160,
            "time": 110.54043,
            "velocity": 0.6929133858267716
          },
          {
            "duration": 0.05292787499999463,
            "durationTicks": 47,
            "midi": 51,
            "name": "D#3",
            "ticks": 98160,
            "time": 110.54043,
            "velocity": 0.47244094488188976
          },
          {
            "duration": 0.03490987499999676,
            "durationTicks": 31,
            "midi": 51,
            "name": "D#3",
            "ticks": 98320,
            "time": 110.72061000000001,
            "velocity": 0.4015748031496063
          },
          {
            "duration": 0.05180175000000986,
            "durationTicks": 46,
            "midi": 51,
            "name": "D#3",
            "ticks": 98400,
            "time": 110.8107,
            "velocity": 0.47244094488188976
          },
          {
            "duration": 0.07207199999999148,
            "durationTicks": 64,
            "midi": 44,
            "name": "G#2",
            "ticks": 98640,
            "time": 111.08097000000001,
            "velocity": 0.8818897637795275
          },
          {
            "duration": 0.06306299999999965,
            "durationTicks": 56,
            "midi": 51,
            "name": "D#3",
            "ticks": 98640,
            "time": 111.08097000000001,
            "velocity": 0.6062992125984252
          },
          {
            "duration": 0.05292787499999463,
            "durationTicks": 47,
            "midi": 51,
            "name": "D#3",
            "ticks": 98800,
            "time": 111.26115000000001,
            "velocity": 0.5354330708661418
          },
          {
            "duration": 0.06193687500000067,
            "durationTicks": 55,
            "midi": 51,
            "name": "D#3",
            "ticks": 98880,
            "time": 111.35124,
            "velocity": 0.47244094488188976
          },
          {
            "duration": 0.06981975000000773,
            "durationTicks": 62,
            "midi": 44,
            "name": "G#2",
            "ticks": 99120,
            "time": 111.62151,
            "velocity": 0.6929133858267716
          },
          {
            "duration": 0.06418912500001284,
            "durationTicks": 57,
            "midi": 51,
            "name": "D#3",
            "ticks": 99120,
            "time": 111.62151,
            "velocity": 0.5354330708661418
          },
          {
            "duration": 0.048423374999998714,
            "durationTicks": 43,
            "midi": 51,
            "name": "D#3",
            "ticks": 99280,
            "time": 111.80169000000001,
            "velocity": 0.5354330708661418
          },
          {
            "duration": 0.05743237499999054,
            "durationTicks": 51,
            "midi": 51,
            "name": "D#3",
            "ticks": 99360,
            "time": 111.89178000000001,
            "velocity": 0.47244094488188976
          },
          {
            "duration": 0.06981974999999352,
            "durationTicks": 62,
            "midi": 44,
            "name": "G#2",
            "ticks": 99600,
            "time": 112.16205000000001,
            "velocity": 0.8818897637795275
          },
          {
            "duration": 0.0439188750000028,
            "durationTicks": 39,
            "midi": 51,
            "name": "D#3",
            "ticks": 99600,
            "time": 112.16205000000001,
            "velocity": 0.47244094488188976
          },
          {
            "duration": 0.04391887499998859,
            "durationTicks": 39,
            "midi": 51,
            "name": "D#3",
            "ticks": 99760,
            "time": 112.34223000000001,
            "velocity": 0.5354330708661418
          },
          {
            "duration": 0.04617112500000076,
            "durationTicks": 41,
            "midi": 51,
            "name": "D#3",
            "ticks": 99840,
            "time": 112.43232,
            "velocity": 0.5354330708661418
          },
          {
            "duration": 0.07770262500001479,
            "durationTicks": 69,
            "midi": 44,
            "name": "G#2",
            "ticks": 100080,
            "time": 112.70259,
            "velocity": 0.6929133858267716
          },
          {
            "duration": 0.05292787499999463,
            "durationTicks": 47,
            "midi": 51,
            "name": "D#3",
            "ticks": 100080,
            "time": 112.70259,
            "velocity": 0.47244094488188976
          },
          {
            "duration": 0.03490987499999676,
            "durationTicks": 31,
            "midi": 51,
            "name": "D#3",
            "ticks": 100240,
            "time": 112.88277000000001,
            "velocity": 0.4015748031496063
          },
          {
            "duration": 0.05180175000000986,
            "durationTicks": 46,
            "midi": 51,
            "name": "D#3",
            "ticks": 100320,
            "time": 112.97286,
            "velocity": 0.47244094488188976
          },
          {
            "duration": 0.07207199999999148,
            "durationTicks": 64,
            "midi": 44,
            "name": "G#2",
            "ticks": 100560,
            "time": 113.24313000000001,
            "velocity": 0.8818897637795275
          },
          {
            "duration": 0.06306299999999965,
            "durationTicks": 56,
            "midi": 51,
            "name": "D#3",
            "ticks": 100560,
            "time": 113.24313000000001,
            "velocity": 0.6062992125984252
          },
          {
            "duration": 0.05292787499999463,
            "durationTicks": 47,
            "midi": 51,
            "name": "D#3",
            "ticks": 100720,
            "time": 113.42331000000001,
            "velocity": 0.5354330708661418
          },
          {
            "duration": 0.06193687500000067,
            "durationTicks": 55,
            "midi": 51,
            "name": "D#3",
            "ticks": 100800,
            "time": 113.5134,
            "velocity": 0.47244094488188976
          },
          {
            "duration": 0.06981975000000773,
            "durationTicks": 62,
            "midi": 46,
            "name": "A#2",
            "ticks": 101040,
            "time": 113.78367,
            "velocity": 0.8818897637795275
          },
          {
            "duration": 0.06418912500001284,
            "durationTicks": 57,
            "midi": 51,
            "name": "D#3",
            "ticks": 101040,
            "time": 113.78367,
            "velocity": 0.5354330708661418
          },
          {
            "duration": 0.048423374999998714,
            "durationTicks": 43,
            "midi": 51,
            "name": "D#3",
            "ticks": 101200,
            "time": 113.96385000000001,
            "velocity": 0.5354330708661418
          },
          {
            "duration": 0.06981974999999352,
            "durationTicks": 62,
            "midi": 44,
            "name": "G#2",
            "ticks": 101280,
            "time": 114.05394000000001,
            "velocity": 0.6929133858267716
          },
          {
            "duration": 0.05743237499999054,
            "durationTicks": 51,
            "midi": 51,
            "name": "D#3",
            "ticks": 101280,
            "time": 114.05394000000001,
            "velocity": 0.47244094488188976
          },
          {
            "duration": 0.011261250000003997,
            "durationTicks": 10,
            "midi": 40,
            "name": "E2",
            "ticks": 101480,
            "time": 114.279165,
            "velocity": 0.15748031496062992
          },
          {
            "duration": 0.011261250000003997,
            "durationTicks": 10,
            "midi": 40,
            "name": "E2",
            "ticks": 101520,
            "time": 114.32421000000001,
            "velocity": 0.6929133858267716
          },
          {
            "duration": 0.06981974999999352,
            "durationTicks": 62,
            "midi": 44,
            "name": "G#2",
            "ticks": 101520,
            "time": 114.32421000000001,
            "velocity": 0.8818897637795275
          },
          {
            "duration": 0.0439188750000028,
            "durationTicks": 39,
            "midi": 51,
            "name": "D#3",
            "ticks": 101520,
            "time": 114.32421000000001,
            "velocity": 0.47244094488188976
          },
          {
            "duration": 0.0439188750000028,
            "durationTicks": 39,
            "midi": 51,
            "name": "D#3",
            "ticks": 101760,
            "time": 114.59448,
            "velocity": 0.31496062992125984
          },
          {
            "duration": 0.07995487500001275,
            "durationTicks": 71,
            "midi": 51,
            "name": "D#3",
            "ticks": 102000,
            "time": 114.86475,
            "velocity": 0.5354330708661418
          },
          {
            "duration": 0.05292787500000884,
            "durationTicks": 47,
            "midi": 51,
            "name": "D#3",
            "ticks": 102240,
            "time": 115.13502,
            "velocity": 0.4015748031496063
          },
          {
            "duration": 0.07882874999999956,
            "durationTicks": 70,
            "midi": 51,
            "name": "D#3",
            "ticks": 102480,
            "time": 115.40529000000001,
            "velocity": 0.6062992125984252
          },
          {
            "duration": 0.05968462500000271,
            "durationTicks": 53,
            "midi": 51,
            "name": "D#3",
            "ticks": 102720,
            "time": 115.67556,
            "velocity": 0.3543307086614173
          },
          {
            "duration": 0.08558550000000764,
            "durationTicks": 76,
            "midi": 51,
            "name": "D#3",
            "ticks": 102960,
            "time": 115.94583,
            "velocity": 0.5354330708661418
          },
          {
            "duration": 0.0709458749999925,
            "durationTicks": 63,
            "midi": 51,
            "name": "D#3",
            "ticks": 103200,
            "time": 116.21610000000001,
            "velocity": 0.47244094488188976
          },
          {
            "duration": 0.07319812499999045,
            "durationTicks": 65,
            "midi": 51,
            "name": "D#3",
            "ticks": 103440,
            "time": 116.48637000000001,
            "velocity": 0.5354330708661418
          },
          {
            "duration": 0.04391887499998859,
            "durationTicks": 39,
            "midi": 51,
            "name": "D#3",
            "ticks": 103600,
            "time": 116.66655000000002,
            "velocity": 0.47244094488188976
          },
          {
            "duration": 0.048423374999998714,
            "durationTicks": 43,
            "midi": 51,
            "name": "D#3",
            "ticks": 103680,
            "time": 116.75664,
            "velocity": 0.47244094488188976
          },
          {
            "duration": 0.08445937500000866,
            "durationTicks": 75,
            "midi": 51,
            "name": "D#3",
            "ticks": 103920,
            "time": 117.02691,
            "velocity": 0.6929133858267716
          },
          {
            "duration": 0.057432375000004754,
            "durationTicks": 51,
            "midi": 51,
            "name": "D#3",
            "ticks": 104160,
            "time": 117.29718,
            "velocity": 0.31496062992125984
          },
          {
            "duration": 0.07545037499998841,
            "durationTicks": 67,
            "midi": 51,
            "name": "D#3",
            "ticks": 104400,
            "time": 117.56745000000001,
            "velocity": 0.5354330708661418
          },
          {
            "duration": 0.05968462500000271,
            "durationTicks": 53,
            "midi": 51,
            "name": "D#3",
            "ticks": 104640,
            "time": 117.83772,
            "velocity": 0.47244094488188976
          },
          {
            "duration": 0.08333325000000968,
            "durationTicks": 74,
            "midi": 51,
            "name": "D#3",
            "ticks": 104880,
            "time": 118.10799,
            "velocity": 0.6929133858267716
          },
          {
            "duration": 0.06193687500000067,
            "durationTicks": 55,
            "midi": 51,
            "name": "D#3",
            "ticks": 105120,
            "time": 118.37826000000001,
            "velocity": 0.3543307086614173
          },
          {
            "duration": 0.06756749999999556,
            "durationTicks": 60,
            "midi": 51,
            "name": "D#3",
            "ticks": 105360,
            "time": 118.64853000000001,
            "velocity": 0.5354330708661418
          },
          {
            "duration": 0.05067562499999667,
            "durationTicks": 45,
            "midi": 51,
            "name": "D#3",
            "ticks": 105520,
            "time": 118.82871000000002,
            "velocity": 0.3543307086614173
          },
          {
            "duration": 0.055180124999992586,
            "durationTicks": 49,
            "midi": 51,
            "name": "D#3",
            "ticks": 105600,
            "time": 118.9188,
            "velocity": 0.31496062992125984
          },
          {
            "duration": 0.06418912500001284,
            "durationTicks": 57,
            "midi": 51,
            "name": "D#3",
            "ticks": 105840,
            "time": 119.18907,
            "velocity": 0.6062992125984252
          },
          {
            "duration": 0.048423375000012925,
            "durationTicks": 43,
            "midi": 51,
            "name": "D#3",
            "ticks": 106080,
            "time": 119.45934,
            "velocity": 0.3543307086614173
          },
          {
            "duration": 0.07319812499999045,
            "durationTicks": 65,
            "midi": 51,
            "name": "D#3",
            "ticks": 106320,
            "time": 119.72961000000001,
            "velocity": 0.6062992125984252
          },
          {
            "duration": 0.055180124999992586,
            "durationTicks": 49,
            "midi": 51,
            "name": "D#3",
            "ticks": 106560,
            "time": 119.99988,
            "velocity": 0.4015748031496063
          },
          {
            "duration": 0.0878377500000056,
            "durationTicks": 78,
            "midi": 51,
            "name": "D#3",
            "ticks": 106800,
            "time": 120.27015,
            "velocity": 0.6062992125984252
          },
          {
            "duration": 0.06981974999999352,
            "durationTicks": 62,
            "midi": 51,
            "name": "D#3",
            "ticks": 107040,
            "time": 120.54042000000001,
            "velocity": 0.47244094488188976
          },
          {
            "duration": 0.09008999999998935,
            "durationTicks": 80,
            "midi": 51,
            "name": "D#3",
            "ticks": 107280,
            "time": 120.81069000000001,
            "velocity": 0.6062992125984252
          },
          {
            "duration": 0.05067562499999667,
            "durationTicks": 45,
            "midi": 51,
            "name": "D#3",
            "ticks": 107520,
            "time": 121.08096,
            "velocity": 0.3543307086614173
          },
          {
            "duration": 0.07094587500000671,
            "durationTicks": 63,
            "midi": 51,
            "name": "D#3",
            "ticks": 107760,
            "time": 121.35123,
            "velocity": 0.6062992125984252
          },
          {
            "duration": 0.07770262500001479,
            "durationTicks": 69,
            "midi": 44,
            "name": "G#2",
            "ticks": 107760,
            "time": 121.35123,
            "velocity": 0.6929133858267716
          },
          {
            "duration": 0.057432375000004754,
            "durationTicks": 51,
            "midi": 51,
            "name": "D#3",
            "ticks": 108000,
            "time": 121.6215,
            "velocity": 0.3543307086614173
          },
          {
            "duration": 0.08333324999999547,
            "durationTicks": 74,
            "midi": 51,
            "name": "D#3",
            "ticks": 108240,
            "time": 121.89177000000001,
            "velocity": 0.6929133858267716
          },
          {
            "duration": 0.07207199999999148,
            "durationTicks": 64,
            "midi": 44,
            "name": "G#2",
            "ticks": 108240,
            "time": 121.89177000000001,
            "velocity": 0.8818897637795275
          },
          {
            "duration": 0.07319812499999045,
            "durationTicks": 65,
            "midi": 37,
            "name": "C#2",
            "ticks": 108240,
            "time": 121.89177000000001,
            "velocity": 0.8818897637795275
          },
          {
            "duration": 0.06644137499999658,
            "durationTicks": 59,
            "midi": 51,
            "name": "D#3",
            "ticks": 108480,
            "time": 122.16204,
            "velocity": 0.4015748031496063
          },
          {
            "duration": 0.08558550000000764,
            "durationTicks": 76,
            "midi": 51,
            "name": "D#3",
            "ticks": 108720,
            "time": 122.43231,
            "velocity": 0.6929133858267716
          },
          {
            "duration": 0.06981975000000773,
            "durationTicks": 62,
            "midi": 44,
            "name": "G#2",
            "ticks": 108720,
            "time": 122.43231,
            "velocity": 0.6929133858267716
          },
          {
            "duration": 0.011261250000003997,
            "durationTicks": 10,
            "midi": 45,
            "name": "A2",
            "ticks": 108960,
            "time": 122.70258000000001,
            "velocity": 0.47244094488188976
          },
          {
            "duration": 0.06981974999999352,
            "durationTicks": 62,
            "midi": 51,
            "name": "D#3",
            "ticks": 108960,
            "time": 122.70258000000001,
            "velocity": 0.5354330708661418
          },
          {
            "duration": 0.011261250000003997,
            "durationTicks": 10,
            "midi": 40,
            "name": "E2",
            "ticks": 109040,
            "time": 122.79267,
            "velocity": 0.2755905511811024
          },
          {
            "duration": 0.011261249999989786,
            "durationTicks": 10,
            "midi": 40,
            "name": "E2",
            "ticks": 109120,
            "time": 122.88276,
            "velocity": 0.2992125984251969
          },
          {
            "duration": 0.011261250000003997,
            "durationTicks": 10,
            "midi": 40,
            "name": "E2",
            "ticks": 109200,
            "time": 122.97285000000001,
            "velocity": 0.33070866141732286
          },
          {
            "duration": 0.0709458749999925,
            "durationTicks": 63,
            "midi": 51,
            "name": "D#3",
            "ticks": 109200,
            "time": 122.97285000000001,
            "velocity": 0.47244094488188976
          },
          {
            "duration": 0.011261250000003997,
            "durationTicks": 10,
            "midi": 40,
            "name": "E2",
            "ticks": 109280,
            "time": 123.06294,
            "velocity": 0.47244094488188976
          },
          {
            "duration": 0.011261249999989786,
            "durationTicks": 10,
            "midi": 40,
            "name": "E2",
            "ticks": 109360,
            "time": 123.15303000000002,
            "velocity": 0.7637795275590551
          },
          {
            "duration": 0.05067562499999667,
            "durationTicks": 45,
            "midi": 51,
            "name": "D#3",
            "ticks": 109360,
            "time": 123.15303000000002,
            "velocity": 0.47244094488188976
          },
          {
            "duration": 0.028153125000002888,
            "durationTicks": 25,
            "midi": 51,
            "name": "D#3",
            "ticks": 109440,
            "time": 123.24312,
            "velocity": 0.4015748031496063
          },
          {
            "duration": 0.011261250000003997,
            "durationTicks": 10,
            "midi": 40,
            "name": "E2",
            "ticks": 109440,
            "time": 123.24312,
            "velocity": 0.9212598425196851
          },
          {
            "duration": 0.011261249999989786,
            "durationTicks": 10,
            "midi": 49,
            "name": "C#3",
            "ticks": 109600,
            "time": 123.42330000000001,
            "velocity": 0.47244094488188976
          },
          {
            "duration": 0.039414374999992674,
            "durationTicks": 35,
            "midi": 44,
            "name": "G#2",
            "ticks": 109618,
            "time": 123.44357025000001,
            "velocity": 0.6535433070866141
          },
          {
            "duration": 0.011261250000018208,
            "durationTicks": 10,
            "midi": 49,
            "name": "C#3",
            "ticks": 109920,
            "time": 123.78366,
            "velocity": 0.47244094488188976
          },
          {
            "duration": 0.06081074999998748,
            "durationTicks": 54,
            "midi": 44,
            "name": "G#2",
            "ticks": 109946,
            "time": 123.81293925000001,
            "velocity": 0.7559055118110236
          },
          {
            "duration": 0.011261250000003997,
            "durationTicks": 10,
            "midi": 40,
            "name": "E2",
            "ticks": 110160,
            "time": 124.05393000000001,
            "velocity": 0.5354330708661418
          },
          {
            "duration": 0.0653152499999976,
            "durationTicks": 58,
            "midi": 44,
            "name": "G#2",
            "ticks": 110164,
            "time": 124.0584345,
            "velocity": 0.7244094488188977
          },
          {
            "duration": 0.011261249999989786,
            "durationTicks": 10,
            "midi": 40,
            "name": "E2",
            "ticks": 110200,
            "time": 124.09897500000001,
            "velocity": 0.4251968503937008
          },
          {
            "duration": 0.011261250000003997,
            "durationTicks": 10,
            "midi": 40,
            "name": "E2",
            "ticks": 110240,
            "time": 124.14402,
            "velocity": 0.3464566929133858
          },
          {
            "duration": 0.011261250000003997,
            "durationTicks": 10,
            "midi": 40,
            "name": "E2",
            "ticks": 110280,
            "time": 124.189065,
            "velocity": 0.2677165354330709
          },
          {
            "duration": 0.011261249999989786,
            "durationTicks": 10,
            "midi": 40,
            "name": "E2",
            "ticks": 110320,
            "time": 124.23411000000002,
            "velocity": 0.23622047244094488
          },
          {
            "duration": 0.011261250000003997,
            "durationTicks": 10,
            "midi": 40,
            "name": "E2",
            "ticks": 110360,
            "time": 124.279155,
            "velocity": 0.15748031496062992
          },
          {
            "duration": 0.06981974999999352,
            "durationTicks": 62,
            "midi": 44,
            "name": "G#2",
            "ticks": 110397,
            "time": 124.32082162500001,
            "velocity": 0.7244094488188977
          },
          {
            "duration": 0.011261250000003997,
            "durationTicks": 10,
            "midi": 49,
            "name": "C#3",
            "ticks": 110400,
            "time": 124.3242,
            "velocity": 0.47244094488188976
          },
          {
            "duration": 0.011261250000003997,
            "durationTicks": 10,
            "midi": 40,
            "name": "E2",
            "ticks": 110640,
            "time": 124.59447,
            "velocity": 0.6929133858267716
          },
          {
            "duration": 0.04504500000001599,
            "durationTicks": 40,
            "midi": 44,
            "name": "G#2",
            "ticks": 110670,
            "time": 124.62825375,
            "velocity": 0.5118110236220472
          },
          {
            "duration": 0.12499987500001453,
            "durationTicks": 111,
            "midi": 44,
            "name": "G#2",
            "ticks": 110781,
            "time": 124.753253625,
            "velocity": 0.5511811023622047
          },
          {
            "duration": 0.011261249999989786,
            "durationTicks": 10,
            "midi": 57,
            "name": "A3",
            "ticks": 110800,
            "time": 124.77465000000001,
            "velocity": 0.6062992125984252
          },
          {
            "duration": 0.011261250000003997,
            "durationTicks": 10,
            "midi": 45,
            "name": "A2",
            "ticks": 111120,
            "time": 125.13501000000001,
            "velocity": 0.5039370078740157
          },
          {
            "duration": 0.011261250000003997,
            "durationTicks": 10,
            "midi": 40,
            "name": "E2",
            "ticks": 111200,
            "time": 125.2251,
            "velocity": 0.5196850393700787
          },
          {
            "duration": 0.011261249999989786,
            "durationTicks": 10,
            "midi": 40,
            "name": "E2",
            "ticks": 111280,
            "time": 125.31519000000002,
            "velocity": 0.7637795275590551
          },
          {
            "duration": 0.011261250000003997,
            "durationTicks": 10,
            "midi": 40,
            "name": "E2",
            "ticks": 111360,
            "time": 125.40528,
            "velocity": 0.8818897637795275
          },
          {
            "duration": 0.06981974999999352,
            "durationTicks": 62,
            "midi": 44,
            "name": "G#2",
            "ticks": 111496,
            "time": 125.55843300000001,
            "velocity": 0.8346456692913385
          },
          {
            "duration": 0.011261249999989786,
            "durationTicks": 10,
            "midi": 49,
            "name": "C#3",
            "ticks": 111520,
            "time": 125.58546000000001,
            "velocity": 0.47244094488188976
          },
          {
            "duration": 0.011261250000018208,
            "durationTicks": 10,
            "midi": 49,
            "name": "C#3",
            "ticks": 111840,
            "time": 125.94582,
            "velocity": 0.47244094488188976
          },
          {
            "duration": 0.05180174999999565,
            "durationTicks": 46,
            "midi": 44,
            "name": "G#2",
            "ticks": 111876,
            "time": 125.9863605,
            "velocity": 0.5984251968503937
          },
          {
            "duration": 0.011261250000003997,
            "durationTicks": 10,
            "midi": 40,
            "name": "E2",
            "ticks": 112080,
            "time": 126.21609000000001,
            "velocity": 0.5669291338582677
          },
          {
            "duration": 0.0653152499999976,
            "durationTicks": 58,
            "midi": 44,
            "name": "G#2",
            "ticks": 112084,
            "time": 126.2205945,
            "velocity": 0.6535433070866141
          },
          {
            "duration": 0.011261249999989786,
            "durationTicks": 10,
            "midi": 40,
            "name": "E2",
            "ticks": 112120,
            "time": 126.26113500000001,
            "velocity": 0.3937007874015748
          },
          {
            "duration": 0.011261250000003997,
            "durationTicks": 10,
            "midi": 40,
            "name": "E2",
            "ticks": 112160,
            "time": 126.30618,
            "velocity": 0.31496062992125984
          },
          {
            "duration": 0.011261250000003997,
            "durationTicks": 10,
            "midi": 40,
            "name": "E2",
            "ticks": 112200,
            "time": 126.351225,
            "velocity": 0.25196850393700787
          },
          {
            "duration": 0.011261249999989786,
            "durationTicks": 10,
            "midi": 40,
            "name": "E2",
            "ticks": 112240,
            "time": 126.39627000000002,
            "velocity": 0.18110236220472442
          },
          {
            "duration": 0.011261250000003997,
            "durationTicks": 10,
            "midi": 40,
            "name": "E2",
            "ticks": 112280,
            "time": 126.441315,
            "velocity": 0.15748031496062992
          },
          {
            "duration": 0.07995487499998433,
            "durationTicks": 71,
            "midi": 44,
            "name": "G#2",
            "ticks": 112315,
            "time": 126.48072937500001,
            "velocity": 0.7559055118110236
          },
          {
            "duration": 0.011261250000003997,
            "durationTicks": 10,
            "midi": 40,
            "name": "E2",
            "ticks": 112320,
            "time": 126.48636,
            "velocity": 0.2755905511811024
          },
          {
            "duration": 0.011261249999989786,
            "durationTicks": 10,
            "midi": 40,
            "name": "E2",
            "ticks": 112570,
            "time": 126.76789125,
            "velocity": 0.6929133858267716
          },
          {
            "duration": 0.05292787500000884,
            "durationTicks": 47,
            "midi": 44,
            "name": "G#2",
            "ticks": 112579,
            "time": 126.778026375,
            "velocity": 0.5748031496062992
          },
          {
            "duration": 0.11261250000001155,
            "durationTicks": 100,
            "midi": 44,
            "name": "G#2",
            "ticks": 112730,
            "time": 126.94807125,
            "velocity": 0.6535433070866141
          },
          {
            "duration": 0.011261250000003997,
            "durationTicks": 10,
            "midi": 40,
            "name": "E2",
            "ticks": 112880,
            "time": 127.11699,
            "velocity": 0.15748031496062992
          },
          {
            "duration": 0.011261250000003997,
            "durationTicks": 10,
            "midi": 40,
            "name": "E2",
            "ticks": 112920,
            "time": 127.162035,
            "velocity": 0.23622047244094488
          },
          {
            "duration": 0.011261249999989786,
            "durationTicks": 10,
            "midi": 40,
            "name": "E2",
            "ticks": 112960,
            "time": 127.20708,
            "velocity": 0.8031496062992126
          },
          {
            "duration": 0.011261250000003997,
            "durationTicks": 10,
            "midi": 40,
            "name": "E2",
            "ticks": 113040,
            "time": 127.29717000000001,
            "velocity": 0.937007874015748
          },
          {
            "duration": 0.06081074999998748,
            "durationTicks": 54,
            "midi": 44,
            "name": "G#2",
            "ticks": 113123,
            "time": 127.39063837500001,
            "velocity": 0.4409448818897638
          },
          {
            "duration": 0.011261249999989786,
            "durationTicks": 10,
            "midi": 40,
            "name": "E2",
            "ticks": 113530,
            "time": 127.84897125,
            "velocity": 0.6062992125984252
          },
          {
            "duration": 0.05405400000002203,
            "durationTicks": 48,
            "midi": 44,
            "name": "G#2",
            "ticks": 113541,
            "time": 127.861358625,
            "velocity": 0.5275590551181102
          },
          {
            "duration": 0.05743237499999054,
            "durationTicks": 51,
            "midi": 44,
            "name": "G#2",
            "ticks": 113774,
            "time": 128.12374575,
            "velocity": 0.5984251968503937
          },
          {
            "duration": 0.011261249999989786,
            "durationTicks": 10,
            "midi": 40,
            "name": "E2",
            "ticks": 114010,
            "time": 128.38951125,
            "velocity": 0.7874015748031497
          },
          {
            "duration": 0.07432425000001786,
            "durationTicks": 66,
            "midi": 44,
            "name": "G#2",
            "ticks": 114027,
            "time": 128.408655375,
            "velocity": 0.49606299212598426
          },
          {
            "duration": 0.05067562499999667,
            "durationTicks": 45,
            "midi": 44,
            "name": "G#2",
            "ticks": 114304,
            "time": 128.720592,
            "velocity": 0.4409448818897638
          },
          {
            "duration": 0.011261249999989786,
            "durationTicks": 10,
            "midi": 40,
            "name": "E2",
            "ticks": 114490,
            "time": 128.93005125000002,
            "velocity": 0.7874015748031497
          },
          {
            "duration": 0.0653152499999976,
            "durationTicks": 58,
            "midi": 44,
            "name": "G#2",
            "ticks": 114515,
            "time": 128.958204375,
            "velocity": 0.5118110236220472
          },
          {
            "duration": 0.05292787499999463,
            "durationTicks": 47,
            "midi": 44,
            "name": "G#2",
            "ticks": 114759,
            "time": 129.23297887500001,
            "velocity": 0.4251968503937008
          },
          {
            "duration": 0.011261249999989786,
            "durationTicks": 10,
            "midi": 40,
            "name": "E2",
            "ticks": 114970,
            "time": 129.47059125,
            "velocity": 0.7874015748031497
          },
          {
            "duration": 0.06981974999999352,
            "durationTicks": 62,
            "midi": 44,
            "name": "G#2",
            "ticks": 115030,
            "time": 129.53815875,
            "velocity": 0.29133858267716534
          },
          {
            "duration": 0.011261249999989786,
            "durationTicks": 10,
            "midi": 57,
            "name": "A3",
            "ticks": 115120,
            "time": 129.63951,
            "velocity": 0.6062992125984252
          },
          {
            "duration": 0.07207199999999148,
            "durationTicks": 64,
            "midi": 44,
            "name": "G#2",
            "ticks": 115126,
            "time": 129.64626675,
            "velocity": 0.7244094488188977
          },
          {
            "duration": 0.011261249999989786,
            "durationTicks": 10,
            "midi": 47,
            "name": "B2",
            "ticks": 115440,
            "time": 129.99987000000002,
            "velocity": 0.5354330708661418
          },
          {
            "duration": 0.06756749999999556,
            "durationTicks": 60,
            "midi": 44,
            "name": "G#2",
            "ticks": 115490,
            "time": 130.05617625,
            "velocity": 0.28346456692913385
          },
          {
            "duration": 0.011261250000018208,
            "durationTicks": 10,
            "midi": 40,
            "name": "E2",
            "ticks": 115520,
            "time": 130.08996,
            "velocity": 0.47244094488188976
          },
          {
            "duration": 0.011261249999989786,
            "durationTicks": 10,
            "midi": 40,
            "name": "E2",
            "ticks": 115600,
            "time": 130.18005000000002,
            "velocity": 0.6929133858267716
          },
          {
            "duration": 0.011261250000018208,
            "durationTicks": 10,
            "midi": 40,
            "name": "E2",
            "ticks": 115680,
            "time": 130.27014,
            "velocity": 0.8661417322834646
          },
          {
            "duration": 0.011261249999989786,
            "durationTicks": 10,
            "midi": 47,
            "name": "B2",
            "ticks": 115800,
            "time": 130.40527500000002,
            "velocity": 0.31496062992125984
          },
          {
            "duration": 0.11373862499999632,
            "durationTicks": 101,
            "midi": 46,
            "name": "A#2",
            "ticks": 115840,
            "time": 130.45032,
            "velocity": 0.9448818897637795
          },
          {
            "duration": 0.04504500000001599,
            "durationTicks": 40,
            "midi": 44,
            "name": "G#2",
            "ticks": 115867,
            "time": 130.480725375,
            "velocity": 0.41732283464566927
          },
          {
            "duration": 0.09234225000002994,
            "durationTicks": 82,
            "midi": 42,
            "name": "F#2",
            "ticks": 115910,
            "time": 130.52914875,
            "velocity": 0.6299212598425197
          },
          {
            "duration": 0.09459449999997105,
            "durationTicks": 84,
            "midi": 46,
            "name": "A#2",
            "ticks": 116080,
            "time": 130.72059000000002,
            "velocity": 0.9448818897637795
          },
          {
            "duration": 0.1328827500000216,
            "durationTicks": 118,
            "midi": 42,
            "name": "F#2",
            "ticks": 116151,
            "time": 130.80054487499999,
            "velocity": 0.6299212598425197
          },
          {
            "duration": 0.055180124999992586,
            "durationTicks": 49,
            "midi": 44,
            "name": "G#2",
            "ticks": 116653,
            "time": 131.365859625,
            "velocity": 0.31496062992125984
          },
          {
            "duration": 0.011261249999989786,
            "durationTicks": 10,
            "midi": 43,
            "name": "G2",
            "ticks": 116810,
            "time": 131.54266125,
            "velocity": 0.4330708661417323
          },
          {
            "duration": 0.011261250000018208,
            "durationTicks": 10,
            "midi": 41,
            "name": "F2",
            "ticks": 116880,
            "time": 131.62149,
            "velocity": 0.31496062992125984
          },
          {
            "duration": 0.05518012500002101,
            "durationTicks": 49,
            "midi": 44,
            "name": "G#2",
            "ticks": 116897,
            "time": 131.640634125,
            "velocity": 0.3543307086614173
          },
          {
            "duration": 0.04617112500000076,
            "durationTicks": 41,
            "midi": 51,
            "name": "D#3",
            "ticks": 117120,
            "time": 131.89176,
            "velocity": 0.5354330708661418
          },
          {
            "duration": 0.05292787499999463,
            "durationTicks": 47,
            "midi": 51,
            "name": "D#3",
            "ticks": 117360,
            "time": 132.16203000000002,
            "velocity": 0.47244094488188976
          },
          {
            "duration": 0.07770262500000058,
            "durationTicks": 69,
            "midi": 44,
            "name": "G#2",
            "ticks": 117360,
            "time": 132.16203000000002,
            "velocity": 0.6929133858267716
          },
          {
            "duration": 0.03490987499998255,
            "durationTicks": 31,
            "midi": 51,
            "name": "D#3",
            "ticks": 117520,
            "time": 132.34221000000002,
            "velocity": 0.4015748031496063
          },
          {
            "duration": 0.05180175000000986,
            "durationTicks": 46,
            "midi": 51,
            "name": "D#3",
            "ticks": 117600,
            "time": 132.4323,
            "velocity": 0.47244094488188976
          },
          {
            "duration": 0.06306299999999965,
            "durationTicks": 56,
            "midi": 51,
            "name": "D#3",
            "ticks": 117840,
            "time": 132.70257,
            "velocity": 0.6062992125984252
          },
          {
            "duration": 0.07207199999999148,
            "durationTicks": 64,
            "midi": 44,
            "name": "G#2",
            "ticks": 117840,
            "time": 132.70257,
            "velocity": 0.8818897637795275
          },
          {
            "duration": 0.07319812500000467,
            "durationTicks": 65,
            "midi": 37,
            "name": "C#2",
            "ticks": 117840,
            "time": 132.70257,
            "velocity": 0.8818897637795275
          },
          {
            "duration": 0.05292787499999463,
            "durationTicks": 47,
            "midi": 51,
            "name": "D#3",
            "ticks": 118000,
            "time": 132.88275000000002,
            "velocity": 0.5354330708661418
          },
          {
            "duration": 0.06193687499998646,
            "durationTicks": 55,
            "midi": 51,
            "name": "D#3",
            "ticks": 118080,
            "time": 132.97284000000002,
            "velocity": 0.47244094488188976
          },
          {
            "duration": 0.06418912500001284,
            "durationTicks": 57,
            "midi": 51,
            "name": "D#3",
            "ticks": 118320,
            "time": 133.24311,
            "velocity": 0.5354330708661418
          },
          {
            "duration": 0.06981974999999352,
            "durationTicks": 62,
            "midi": 44,
            "name": "G#2",
            "ticks": 118320,
            "time": 133.24311,
            "velocity": 0.6929133858267716
          },
          {
            "duration": 0.048423374999998714,
            "durationTicks": 43,
            "midi": 51,
            "name": "D#3",
            "ticks": 118480,
            "time": 133.42329,
            "velocity": 0.5354330708661418
          },
          {
            "duration": 0.05743237499999054,
            "durationTicks": 51,
            "midi": 51,
            "name": "D#3",
            "ticks": 118560,
            "time": 133.51338,
            "velocity": 0.47244094488188976
          },
          {
            "duration": 0.0439188750000028,
            "durationTicks": 39,
            "midi": 51,
            "name": "D#3",
            "ticks": 118800,
            "time": 133.78365,
            "velocity": 0.47244094488188976
          },
          {
            "duration": 0.06981975000002194,
            "durationTicks": 62,
            "midi": 44,
            "name": "G#2",
            "ticks": 118800,
            "time": 133.78365,
            "velocity": 0.8818897637795275
          },
          {
            "duration": 0.06981975000002194,
            "durationTicks": 62,
            "midi": 37,
            "name": "C#2",
            "ticks": 118800,
            "time": 133.78365,
            "velocity": 0.8818897637795275
          },
          {
            "duration": 0.0439188750000028,
            "durationTicks": 39,
            "midi": 51,
            "name": "D#3",
            "ticks": 118960,
            "time": 133.96383,
            "velocity": 0.5354330708661418
          },
          {
            "duration": 0.04617112500000076,
            "durationTicks": 41,
            "midi": 51,
            "name": "D#3",
            "ticks": 119040,
            "time": 134.05392,
            "velocity": 0.5354330708661418
          },
          {
            "duration": 0.07770262500000058,
            "durationTicks": 69,
            "midi": 44,
            "name": "G#2",
            "ticks": 119280,
            "time": 134.32419000000002,
            "velocity": 0.6929133858267716
          },
          {
            "duration": 0.05292787499999463,
            "durationTicks": 47,
            "midi": 51,
            "name": "D#3",
            "ticks": 119280,
            "time": 134.32419000000002,
            "velocity": 0.47244094488188976
          },
          {
            "duration": 0.03490987499998255,
            "durationTicks": 31,
            "midi": 51,
            "name": "D#3",
            "ticks": 119440,
            "time": 134.50437000000002,
            "velocity": 0.4015748031496063
          },
          {
            "duration": 0.05180175000000986,
            "durationTicks": 46,
            "midi": 51,
            "name": "D#3",
            "ticks": 119520,
            "time": 134.59446,
            "velocity": 0.47244094488188976
          },
          {
            "duration": 0.06306299999999965,
            "durationTicks": 56,
            "midi": 51,
            "name": "D#3",
            "ticks": 119760,
            "time": 134.86473,
            "velocity": 0.6062992125984252
          },
          {
            "duration": 0.07207199999999148,
            "durationTicks": 64,
            "midi": 44,
            "name": "G#2",
            "ticks": 119760,
            "time": 134.86473,
            "velocity": 0.8818897637795275
          },
          {
            "duration": 0.07319812500000467,
            "durationTicks": 65,
            "midi": 37,
            "name": "C#2",
            "ticks": 119760,
            "time": 134.86473,
            "velocity": 0.8818897637795275
          },
          {
            "duration": 0.05292787499999463,
            "durationTicks": 47,
            "midi": 51,
            "name": "D#3",
            "ticks": 119920,
            "time": 135.04491000000002,
            "velocity": 0.5354330708661418
          },
          {
            "duration": 0.06193687500001488,
            "durationTicks": 55,
            "midi": 51,
            "name": "D#3",
            "ticks": 120000,
            "time": 135.135,
            "velocity": 0.47244094488188976
          },
          {
            "duration": 0.06418912500001284,
            "durationTicks": 57,
            "midi": 51,
            "name": "D#3",
            "ticks": 120240,
            "time": 135.40527,
            "velocity": 0.5354330708661418
          },
          {
            "duration": 0.06981974999999352,
            "durationTicks": 62,
            "midi": 44,
            "name": "G#2",
            "ticks": 120240,
            "time": 135.40527,
            "velocity": 0.6929133858267716
          },
          {
            "duration": 0.048423374999998714,
            "durationTicks": 43,
            "midi": 51,
            "name": "D#3",
            "ticks": 120400,
            "time": 135.58545,
            "velocity": 0.5354330708661418
          },
          {
            "duration": 0.05743237499999054,
            "durationTicks": 51,
            "midi": 51,
            "name": "D#3",
            "ticks": 120480,
            "time": 135.67554,
            "velocity": 0.47244094488188976
          },
          {
            "duration": 0.0439188750000028,
            "durationTicks": 39,
            "midi": 51,
            "name": "D#3",
            "ticks": 120720,
            "time": 135.94581,
            "velocity": 0.47244094488188976
          },
          {
            "duration": 0.06981975000002194,
            "durationTicks": 62,
            "midi": 44,
            "name": "G#2",
            "ticks": 120720,
            "time": 135.94581,
            "velocity": 0.8818897637795275
          },
          {
            "duration": 0.06981975000002194,
            "durationTicks": 62,
            "midi": 37,
            "name": "C#2",
            "ticks": 120720,
            "time": 135.94581,
            "velocity": 0.8818897637795275
          },
          {
            "duration": 0.0439188750000028,
            "durationTicks": 39,
            "midi": 51,
            "name": "D#3",
            "ticks": 120880,
            "time": 136.12599,
            "velocity": 0.5354330708661418
          },
          {
            "duration": 0.04617112500000076,
            "durationTicks": 41,
            "midi": 51,
            "name": "D#3",
            "ticks": 120960,
            "time": 136.21608,
            "velocity": 0.5354330708661418
          },
          {
            "duration": 0.07770262500000058,
            "durationTicks": 69,
            "midi": 44,
            "name": "G#2",
            "ticks": 121200,
            "time": 136.48635000000002,
            "velocity": 0.6929133858267716
          },
          {
            "duration": 0.05292787499999463,
            "durationTicks": 47,
            "midi": 51,
            "name": "D#3",
            "ticks": 121200,
            "time": 136.48635000000002,
            "velocity": 0.47244094488188976
          },
          {
            "duration": 0.03490987499998255,
            "durationTicks": 31,
            "midi": 51,
            "name": "D#3",
            "ticks": 121360,
            "time": 136.66653000000002,
            "velocity": 0.4015748031496063
          },
          {
            "duration": 0.05180175000000986,
            "durationTicks": 46,
            "midi": 51,
            "name": "D#3",
            "ticks": 121440,
            "time": 136.75662,
            "velocity": 0.47244094488188976
          },
          {
            "duration": 0.06306299999999965,
            "durationTicks": 56,
            "midi": 51,
            "name": "D#3",
            "ticks": 121680,
            "time": 137.02689,
            "velocity": 0.6062992125984252
          },
          {
            "duration": 0.07207199999999148,
            "durationTicks": 64,
            "midi": 44,
            "name": "G#2",
            "ticks": 121680,
            "time": 137.02689,
            "velocity": 0.8818897637795275
          },
          {
            "duration": 0.07319812500000467,
            "durationTicks": 65,
            "midi": 37,
            "name": "C#2",
            "ticks": 121680,
            "time": 137.02689,
            "velocity": 0.8818897637795275
          },
          {
            "duration": 0.05292787499999463,
            "durationTicks": 47,
            "midi": 51,
            "name": "D#3",
            "ticks": 121840,
            "time": 137.20707000000002,
            "velocity": 0.5354330708661418
          },
          {
            "duration": 0.06193687499998646,
            "durationTicks": 55,
            "midi": 51,
            "name": "D#3",
            "ticks": 121920,
            "time": 137.29716000000002,
            "velocity": 0.47244094488188976
          },
          {
            "duration": 0.06418912500001284,
            "durationTicks": 57,
            "midi": 51,
            "name": "D#3",
            "ticks": 122160,
            "time": 137.56743,
            "velocity": 0.5354330708661418
          },
          {
            "duration": 0.06981974999999352,
            "durationTicks": 62,
            "midi": 44,
            "name": "G#2",
            "ticks": 122160,
            "time": 137.56743,
            "velocity": 0.6929133858267716
          },
          {
            "duration": 0.048423374999998714,
            "durationTicks": 43,
            "midi": 51,
            "name": "D#3",
            "ticks": 122320,
            "time": 137.74761,
            "velocity": 0.5354330708661418
          },
          {
            "duration": 0.05743237499999054,
            "durationTicks": 51,
            "midi": 51,
            "name": "D#3",
            "ticks": 122400,
            "time": 137.8377,
            "velocity": 0.47244094488188976
          },
          {
            "duration": 0.0439188750000028,
            "durationTicks": 39,
            "midi": 51,
            "name": "D#3",
            "ticks": 122640,
            "time": 138.10797,
            "velocity": 0.47244094488188976
          },
          {
            "duration": 0.06981975000002194,
            "durationTicks": 62,
            "midi": 44,
            "name": "G#2",
            "ticks": 122640,
            "time": 138.10797,
            "velocity": 0.8818897637795275
          },
          {
            "duration": 0.06981975000002194,
            "durationTicks": 62,
            "midi": 37,
            "name": "C#2",
            "ticks": 122640,
            "time": 138.10797,
            "velocity": 0.8818897637795275
          },
          {
            "duration": 0.0439188750000028,
            "durationTicks": 39,
            "midi": 51,
            "name": "D#3",
            "ticks": 122800,
            "time": 138.28815,
            "velocity": 0.5354330708661418
          },
          {
            "duration": 0.04617112500000076,
            "durationTicks": 41,
            "midi": 51,
            "name": "D#3",
            "ticks": 122880,
            "time": 138.37824,
            "velocity": 0.5354330708661418
          },
          {
            "duration": 0.07770262500000058,
            "durationTicks": 69,
            "midi": 44,
            "name": "G#2",
            "ticks": 123120,
            "time": 138.64851000000002,
            "velocity": 0.6929133858267716
          },
          {
            "duration": 0.05292787499999463,
            "durationTicks": 47,
            "midi": 51,
            "name": "D#3",
            "ticks": 123120,
            "time": 138.64851000000002,
            "velocity": 0.47244094488188976
          },
          {
            "duration": 0.03490987500001097,
            "durationTicks": 31,
            "midi": 51,
            "name": "D#3",
            "ticks": 123280,
            "time": 138.82869,
            "velocity": 0.4015748031496063
          },
          {
            "duration": 0.05180175000000986,
            "durationTicks": 46,
            "midi": 51,
            "name": "D#3",
            "ticks": 123360,
            "time": 138.91878,
            "velocity": 0.47244094488188976
          },
          {
            "duration": 0.06306299999999965,
            "durationTicks": 56,
            "midi": 51,
            "name": "D#3",
            "ticks": 123600,
            "time": 139.18905,
            "velocity": 0.6062992125984252
          },
          {
            "duration": 0.07207199999999148,
            "durationTicks": 64,
            "midi": 44,
            "name": "G#2",
            "ticks": 123600,
            "time": 139.18905,
            "velocity": 0.8818897637795275
          },
          {
            "duration": 0.07319812500000467,
            "durationTicks": 65,
            "midi": 37,
            "name": "C#2",
            "ticks": 123600,
            "time": 139.18905,
            "velocity": 0.8818897637795275
          },
          {
            "duration": 0.05292787499999463,
            "durationTicks": 47,
            "midi": 51,
            "name": "D#3",
            "ticks": 123760,
            "time": 139.36923,
            "velocity": 0.5354330708661418
          },
          {
            "duration": 0.06193687500001488,
            "durationTicks": 55,
            "midi": 51,
            "name": "D#3",
            "ticks": 123840,
            "time": 139.45932,
            "velocity": 0.47244094488188976
          },
          {
            "duration": 0.06418912499998441,
            "durationTicks": 57,
            "midi": 51,
            "name": "D#3",
            "ticks": 124080,
            "time": 139.72959,
            "velocity": 0.5354330708661418
          },
          {
            "duration": 0.06981974999999352,
            "durationTicks": 62,
            "midi": 44,
            "name": "G#2",
            "ticks": 124080,
            "time": 139.72959,
            "velocity": 0.6929133858267716
          },
          {
            "duration": 0.048423374999998714,
            "durationTicks": 43,
            "midi": 51,
            "name": "D#3",
            "ticks": 124240,
            "time": 139.90977,
            "velocity": 0.5354330708661418
          },
          {
            "duration": 0.05743237499999054,
            "durationTicks": 51,
            "midi": 51,
            "name": "D#3",
            "ticks": 124320,
            "time": 139.99986,
            "velocity": 0.47244094488188976
          },
          {
            "duration": 0.0439188750000028,
            "durationTicks": 39,
            "midi": 51,
            "name": "D#3",
            "ticks": 124560,
            "time": 140.27013,
            "velocity": 0.47244094488188976
          },
          {
            "duration": 0.06981975000002194,
            "durationTicks": 62,
            "midi": 44,
            "name": "G#2",
            "ticks": 124560,
            "time": 140.27013,
            "velocity": 0.8818897637795275
          },
          {
            "duration": 0.06981975000002194,
            "durationTicks": 62,
            "midi": 37,
            "name": "C#2",
            "ticks": 124560,
            "time": 140.27013,
            "velocity": 0.8818897637795275
          },
          {
            "duration": 0.0439188750000028,
            "durationTicks": 39,
            "midi": 51,
            "name": "D#3",
            "ticks": 124720,
            "time": 140.45031,
            "velocity": 0.5354330708661418
          },
          {
            "duration": 0.04617112500000076,
            "durationTicks": 41,
            "midi": 51,
            "name": "D#3",
            "ticks": 124800,
            "time": 140.5404,
            "velocity": 0.5354330708661418
          },
          {
            "duration": 0.07770262500000058,
            "durationTicks": 69,
            "midi": 44,
            "name": "G#2",
            "ticks": 125040,
            "time": 140.81067000000002,
            "velocity": 0.6929133858267716
          },
          {
            "duration": 0.05292787499999463,
            "durationTicks": 47,
            "midi": 51,
            "name": "D#3",
            "ticks": 125040,
            "time": 140.81067000000002,
            "velocity": 0.47244094488188976
          },
          {
            "duration": 0.03490987500001097,
            "durationTicks": 31,
            "midi": 51,
            "name": "D#3",
            "ticks": 125200,
            "time": 140.99085,
            "velocity": 0.4015748031496063
          },
          {
            "duration": 0.05180175000000986,
            "durationTicks": 46,
            "midi": 51,
            "name": "D#3",
            "ticks": 125280,
            "time": 141.08094,
            "velocity": 0.47244094488188976
          },
          {
            "duration": 0.06306299999999965,
            "durationTicks": 56,
            "midi": 51,
            "name": "D#3",
            "ticks": 125520,
            "time": 141.35121,
            "velocity": 0.6062992125984252
          },
          {
            "duration": 0.07207199999999148,
            "durationTicks": 64,
            "midi": 44,
            "name": "G#2",
            "ticks": 125520,
            "time": 141.35121,
            "velocity": 0.8818897637795275
          },
          {
            "duration": 0.07319812500000467,
            "durationTicks": 65,
            "midi": 37,
            "name": "C#2",
            "ticks": 125520,
            "time": 141.35121,
            "velocity": 0.8818897637795275
          },
          {
            "duration": 0.05292787499999463,
            "durationTicks": 47,
            "midi": 51,
            "name": "D#3",
            "ticks": 125680,
            "time": 141.53139,
            "velocity": 0.5354330708661418
          },
          {
            "duration": 0.06193687499998646,
            "durationTicks": 55,
            "midi": 51,
            "name": "D#3",
            "ticks": 125760,
            "time": 141.62148000000002,
            "velocity": 0.47244094488188976
          },
          {
            "duration": 0.06418912499998441,
            "durationTicks": 57,
            "midi": 51,
            "name": "D#3",
            "ticks": 126000,
            "time": 141.89175,
            "velocity": 0.5354330708661418
          },
          {
            "duration": 0.06981974999999352,
            "durationTicks": 62,
            "midi": 44,
            "name": "G#2",
            "ticks": 126000,
            "time": 141.89175,
            "velocity": 0.6929133858267716
          },
          {
            "duration": 0.048423374999998714,
            "durationTicks": 43,
            "midi": 51,
            "name": "D#3",
            "ticks": 126160,
            "time": 142.07193,
            "velocity": 0.5354330708661418
          },
          {
            "duration": 0.05743237499999054,
            "durationTicks": 51,
            "midi": 51,
            "name": "D#3",
            "ticks": 126240,
            "time": 142.16202,
            "velocity": 0.47244094488188976
          },
          {
            "duration": 0.06981974999999352,
            "durationTicks": 62,
            "midi": 44,
            "name": "G#2",
            "ticks": 126360,
            "time": 142.297155,
            "velocity": 0.7874015748031497
          },
          {
            "duration": 0.04391887499997438,
            "durationTicks": 39,
            "midi": 51,
            "name": "D#3",
            "ticks": 126380,
            "time": 142.3196775,
            "velocity": 0.6062992125984252
          },
          {
            "duration": 0.0439188750000028,
            "durationTicks": 39,
            "midi": 51,
            "name": "D#3",
            "ticks": 126640,
            "time": 142.61247,
            "velocity": 0.5039370078740157
          },
          {
            "duration": 0.04617112500000076,
            "durationTicks": 41,
            "midi": 51,
            "name": "D#3",
            "ticks": 126720,
            "time": 142.70256,
            "velocity": 0.5354330708661418
          },
          {
            "duration": 0.07770262500000058,
            "durationTicks": 69,
            "midi": 44,
            "name": "G#2",
            "ticks": 126960,
            "time": 142.97283000000002,
            "velocity": 0.6929133858267716
          },
          {
            "duration": 0.05292787499999463,
            "durationTicks": 47,
            "midi": 51,
            "name": "D#3",
            "ticks": 126960,
            "time": 142.97283000000002,
            "velocity": 0.47244094488188976
          },
          {
            "duration": 0.03490987500001097,
            "durationTicks": 31,
            "midi": 51,
            "name": "D#3",
            "ticks": 127120,
            "time": 143.15301,
            "velocity": 0.4015748031496063
          },
          {
            "duration": 0.05180175000000986,
            "durationTicks": 46,
            "midi": 51,
            "name": "D#3",
            "ticks": 127200,
            "time": 143.2431,
            "velocity": 0.47244094488188976
          },
          {
            "duration": 0.06306299999999965,
            "durationTicks": 56,
            "midi": 51,
            "name": "D#3",
            "ticks": 127440,
            "time": 143.51337,
            "velocity": 0.6062992125984252
          },
          {
            "duration": 0.07207199999999148,
            "durationTicks": 64,
            "midi": 44,
            "name": "G#2",
            "ticks": 127440,
            "time": 143.51337,
            "velocity": 0.8818897637795275
          },
          {
            "duration": 0.07319812500000467,
            "durationTicks": 65,
            "midi": 37,
            "name": "C#2",
            "ticks": 127440,
            "time": 143.51337,
            "velocity": 0.8818897637795275
          },
          {
            "duration": 0.05292787499999463,
            "durationTicks": 47,
            "midi": 51,
            "name": "D#3",
            "ticks": 127600,
            "time": 143.69355,
            "velocity": 0.5354330708661418
          },
          {
            "duration": 0.06193687500001488,
            "durationTicks": 55,
            "midi": 51,
            "name": "D#3",
            "ticks": 127680,
            "time": 143.78364,
            "velocity": 0.47244094488188976
          },
          {
            "duration": 0.06418912499998441,
            "durationTicks": 57,
            "midi": 51,
            "name": "D#3",
            "ticks": 127920,
            "time": 144.05391,
            "velocity": 0.5354330708661418
          },
          {
            "duration": 0.06981974999999352,
            "durationTicks": 62,
            "midi": 44,
            "name": "G#2",
            "ticks": 127920,
            "time": 144.05391,
            "velocity": 0.6929133858267716
          },
          {
            "duration": 0.048423374999998714,
            "durationTicks": 43,
            "midi": 51,
            "name": "D#3",
            "ticks": 128080,
            "time": 144.23409,
            "velocity": 0.5354330708661418
          },
          {
            "duration": 0.05743237499999054,
            "durationTicks": 51,
            "midi": 51,
            "name": "D#3",
            "ticks": 128160,
            "time": 144.32418,
            "velocity": 0.47244094488188976
          },
          {
            "duration": 0.0439188750000028,
            "durationTicks": 39,
            "midi": 51,
            "name": "D#3",
            "ticks": 128400,
            "time": 144.59445,
            "velocity": 0.47244094488188976
          },
          {
            "duration": 0.06981975000002194,
            "durationTicks": 62,
            "midi": 44,
            "name": "G#2",
            "ticks": 128400,
            "time": 144.59445,
            "velocity": 0.8818897637795275
          },
          {
            "duration": 0.06981975000002194,
            "durationTicks": 62,
            "midi": 37,
            "name": "C#2",
            "ticks": 128400,
            "time": 144.59445,
            "velocity": 0.8818897637795275
          },
          {
            "duration": 0.0439188750000028,
            "durationTicks": 39,
            "midi": 51,
            "name": "D#3",
            "ticks": 128560,
            "time": 144.77463,
            "velocity": 0.5354330708661418
          },
          {
            "duration": 0.04617112500000076,
            "durationTicks": 41,
            "midi": 51,
            "name": "D#3",
            "ticks": 128640,
            "time": 144.86472,
            "velocity": 0.5354330708661418
          },
          {
            "duration": 0.07770262500000058,
            "durationTicks": 69,
            "midi": 44,
            "name": "G#2",
            "ticks": 128880,
            "time": 145.13499000000002,
            "velocity": 0.6929133858267716
          },
          {
            "duration": 0.05292787499999463,
            "durationTicks": 47,
            "midi": 51,
            "name": "D#3",
            "ticks": 128880,
            "time": 145.13499000000002,
            "velocity": 0.47244094488188976
          },
          {
            "duration": 0.03490987500001097,
            "durationTicks": 31,
            "midi": 51,
            "name": "D#3",
            "ticks": 129040,
            "time": 145.31517,
            "velocity": 0.4015748031496063
          },
          {
            "duration": 0.05180175000000986,
            "durationTicks": 46,
            "midi": 51,
            "name": "D#3",
            "ticks": 129120,
            "time": 145.40526,
            "velocity": 0.47244094488188976
          },
          {
            "duration": 0.06306299999999965,
            "durationTicks": 56,
            "midi": 51,
            "name": "D#3",
            "ticks": 129360,
            "time": 145.67553,
            "velocity": 0.6062992125984252
          },
          {
            "duration": 0.07207199999999148,
            "durationTicks": 64,
            "midi": 44,
            "name": "G#2",
            "ticks": 129360,
            "time": 145.67553,
            "velocity": 0.8818897637795275
          },
          {
            "duration": 0.07319812500000467,
            "durationTicks": 65,
            "midi": 37,
            "name": "C#2",
            "ticks": 129360,
            "time": 145.67553,
            "velocity": 0.8818897637795275
          },
          {
            "duration": 0.05292787499999463,
            "durationTicks": 47,
            "midi": 51,
            "name": "D#3",
            "ticks": 129520,
            "time": 145.85571,
            "velocity": 0.5354330708661418
          },
          {
            "duration": 0.06193687499998646,
            "durationTicks": 55,
            "midi": 51,
            "name": "D#3",
            "ticks": 129600,
            "time": 145.94580000000002,
            "velocity": 0.47244094488188976
          },
          {
            "duration": 0.06418912499998441,
            "durationTicks": 57,
            "midi": 51,
            "name": "D#3",
            "ticks": 129840,
            "time": 146.21607,
            "velocity": 0.5354330708661418
          },
          {
            "duration": 0.06981974999999352,
            "durationTicks": 62,
            "midi": 44,
            "name": "G#2",
            "ticks": 129840,
            "time": 146.21607,
            "velocity": 0.6929133858267716
          },
          {
            "duration": 0.048423374999998714,
            "durationTicks": 43,
            "midi": 51,
            "name": "D#3",
            "ticks": 130000,
            "time": 146.39625,
            "velocity": 0.5354330708661418
          },
          {
            "duration": 0.05743237499999054,
            "durationTicks": 51,
            "midi": 51,
            "name": "D#3",
            "ticks": 130080,
            "time": 146.48634,
            "velocity": 0.47244094488188976
          },
          {
            "duration": 0.0439188750000028,
            "durationTicks": 39,
            "midi": 51,
            "name": "D#3",
            "ticks": 130320,
            "time": 146.75661,
            "velocity": 0.47244094488188976
          },
          {
            "duration": 0.06981975000002194,
            "durationTicks": 62,
            "midi": 44,
            "name": "G#2",
            "ticks": 130320,
            "time": 146.75661,
            "velocity": 0.8818897637795275
          },
          {
            "duration": 0.06981975000002194,
            "durationTicks": 62,
            "midi": 37,
            "name": "C#2",
            "ticks": 130320,
            "time": 146.75661,
            "velocity": 0.8818897637795275
          },
          {
            "duration": 0.0439188750000028,
            "durationTicks": 39,
            "midi": 51,
            "name": "D#3",
            "ticks": 130480,
            "time": 146.93679,
            "velocity": 0.5354330708661418
          },
          {
            "duration": 0.04617112500000076,
            "durationTicks": 41,
            "midi": 51,
            "name": "D#3",
            "ticks": 130560,
            "time": 147.02688,
            "velocity": 0.5354330708661418
          },
          {
            "duration": 0.07770262500000058,
            "durationTicks": 69,
            "midi": 44,
            "name": "G#2",
            "ticks": 130800,
            "time": 147.29715000000002,
            "velocity": 0.6929133858267716
          },
          {
            "duration": 0.05292787499999463,
            "durationTicks": 47,
            "midi": 51,
            "name": "D#3",
            "ticks": 130800,
            "time": 147.29715000000002,
            "velocity": 0.47244094488188976
          },
          {
            "duration": 0.03490987500001097,
            "durationTicks": 31,
            "midi": 51,
            "name": "D#3",
            "ticks": 130960,
            "time": 147.47733,
            "velocity": 0.4015748031496063
          },
          {
            "duration": 0.05180175000000986,
            "durationTicks": 46,
            "midi": 51,
            "name": "D#3",
            "ticks": 131040,
            "time": 147.56742,
            "velocity": 0.47244094488188976
          },
          {
            "duration": 0.06306299999999965,
            "durationTicks": 56,
            "midi": 51,
            "name": "D#3",
            "ticks": 131280,
            "time": 147.83769,
            "velocity": 0.6062992125984252
          },
          {
            "duration": 0.07207199999999148,
            "durationTicks": 64,
            "midi": 44,
            "name": "G#2",
            "ticks": 131280,
            "time": 147.83769,
            "velocity": 0.8818897637795275
          },
          {
            "duration": 0.07319812500000467,
            "durationTicks": 65,
            "midi": 37,
            "name": "C#2",
            "ticks": 131280,
            "time": 147.83769,
            "velocity": 0.8818897637795275
          },
          {
            "duration": 0.05292787499999463,
            "durationTicks": 47,
            "midi": 51,
            "name": "D#3",
            "ticks": 131440,
            "time": 148.01787,
            "velocity": 0.5354330708661418
          },
          {
            "duration": 0.06193687500001488,
            "durationTicks": 55,
            "midi": 51,
            "name": "D#3",
            "ticks": 131520,
            "time": 148.10796,
            "velocity": 0.47244094488188976
          },
          {
            "duration": 0.06418912499998441,
            "durationTicks": 57,
            "midi": 51,
            "name": "D#3",
            "ticks": 131760,
            "time": 148.37823,
            "velocity": 0.5354330708661418
          },
          {
            "duration": 0.06981974999999352,
            "durationTicks": 62,
            "midi": 46,
            "name": "A#2",
            "ticks": 131760,
            "time": 148.37823,
            "velocity": 0.8818897637795275
          },
          {
            "duration": 0.048423374999998714,
            "durationTicks": 43,
            "midi": 51,
            "name": "D#3",
            "ticks": 131920,
            "time": 148.55841,
            "velocity": 0.5354330708661418
          },
          {
            "duration": 0.05743237499999054,
            "durationTicks": 51,
            "midi": 51,
            "name": "D#3",
            "ticks": 132000,
            "time": 148.6485,
            "velocity": 0.47244094488188976
          },
          {
            "duration": 0.06981974999999352,
            "durationTicks": 62,
            "midi": 42,
            "name": "F#2",
            "ticks": 132000,
            "time": 148.6485,
            "velocity": 0.8818897637795275
          },
          {
            "duration": 0.011261249999989786,
            "durationTicks": 10,
            "midi": 48,
            "name": "C3",
            "ticks": 132170,
            "time": 148.83994125,
            "velocity": 0.3543307086614173
          },
          {
            "duration": 0.06981975000002194,
            "durationTicks": 62,
            "midi": 44,
            "name": "G#2",
            "ticks": 132240,
            "time": 148.91877,
            "velocity": 0.8818897637795275
          },
          {
            "duration": 0.0439188750000028,
            "durationTicks": 39,
            "midi": 51,
            "name": "D#3",
            "ticks": 132240,
            "time": 148.91877,
            "velocity": 0.47244094488188976
          },
          {
            "duration": 0.011261250000018208,
            "durationTicks": 10,
            "midi": 47,
            "name": "B2",
            "ticks": 132250,
            "time": 148.93003124999998,
            "velocity": 0.4251968503937008
          },
          {
            "duration": 0.0439188750000028,
            "durationTicks": 39,
            "midi": 51,
            "name": "D#3",
            "ticks": 132400,
            "time": 149.09895,
            "velocity": 0.5354330708661418
          },
          {
            "duration": 0.04617112500000076,
            "durationTicks": 41,
            "midi": 51,
            "name": "D#3",
            "ticks": 132480,
            "time": 149.18904,
            "velocity": 0.5354330708661418
          },
          {
            "duration": 0.07770262500000058,
            "durationTicks": 69,
            "midi": 44,
            "name": "G#2",
            "ticks": 132720,
            "time": 149.45931000000002,
            "velocity": 0.6929133858267716
          },
          {
            "duration": 0.05292787499999463,
            "durationTicks": 47,
            "midi": 51,
            "name": "D#3",
            "ticks": 132720,
            "time": 149.45931000000002,
            "velocity": 0.47244094488188976
          },
          {
            "duration": 0.03490987500001097,
            "durationTicks": 31,
            "midi": 51,
            "name": "D#3",
            "ticks": 132880,
            "time": 149.63949,
            "velocity": 0.4015748031496063
          },
          {
            "duration": 0.05180175000000986,
            "durationTicks": 46,
            "midi": 51,
            "name": "D#3",
            "ticks": 132960,
            "time": 149.72958,
            "velocity": 0.47244094488188976
          },
          {
            "duration": 0.06306299999999965,
            "durationTicks": 56,
            "midi": 51,
            "name": "D#3",
            "ticks": 133200,
            "time": 149.99985,
            "velocity": 0.6062992125984252
          },
          {
            "duration": 0.07207199999999148,
            "durationTicks": 64,
            "midi": 44,
            "name": "G#2",
            "ticks": 133200,
            "time": 149.99985,
            "velocity": 0.8818897637795275
          },
          {
            "duration": 0.07319812500000467,
            "durationTicks": 65,
            "midi": 37,
            "name": "C#2",
            "ticks": 133200,
            "time": 149.99985,
            "velocity": 0.8818897637795275
          },
          {
            "duration": 0.05292787499999463,
            "durationTicks": 47,
            "midi": 51,
            "name": "D#3",
            "ticks": 133360,
            "time": 150.18003,
            "velocity": 0.5354330708661418
          },
          {
            "duration": 0.06193687499998646,
            "durationTicks": 55,
            "midi": 51,
            "name": "D#3",
            "ticks": 133440,
            "time": 150.27012000000002,
            "velocity": 0.47244094488188976
          },
          {
            "duration": 0.06418912499998441,
            "durationTicks": 57,
            "midi": 51,
            "name": "D#3",
            "ticks": 133680,
            "time": 150.54039,
            "velocity": 0.5354330708661418
          },
          {
            "duration": 0.06981974999999352,
            "durationTicks": 62,
            "midi": 44,
            "name": "G#2",
            "ticks": 133680,
            "time": 150.54039,
            "velocity": 0.6929133858267716
          },
          {
            "duration": 0.048423374999998714,
            "durationTicks": 43,
            "midi": 51,
            "name": "D#3",
            "ticks": 133840,
            "time": 150.72057,
            "velocity": 0.5354330708661418
          },
          {
            "duration": 0.05743237499999054,
            "durationTicks": 51,
            "midi": 51,
            "name": "D#3",
            "ticks": 133920,
            "time": 150.81066,
            "velocity": 0.47244094488188976
          },
          {
            "duration": 0.0439188750000028,
            "durationTicks": 39,
            "midi": 51,
            "name": "D#3",
            "ticks": 134160,
            "time": 151.08093,
            "velocity": 0.47244094488188976
          },
          {
            "duration": 0.06981975000002194,
            "durationTicks": 62,
            "midi": 44,
            "name": "G#2",
            "ticks": 134160,
            "time": 151.08093,
            "velocity": 0.8818897637795275
          },
          {
            "duration": 0.06981975000002194,
            "durationTicks": 62,
            "midi": 37,
            "name": "C#2",
            "ticks": 134160,
            "time": 151.08093,
            "velocity": 0.8818897637795275
          },
          {
            "duration": 0.0439188750000028,
            "durationTicks": 39,
            "midi": 51,
            "name": "D#3",
            "ticks": 134320,
            "time": 151.26111,
            "velocity": 0.5354330708661418
          },
          {
            "duration": 0.04617112500000076,
            "durationTicks": 41,
            "midi": 51,
            "name": "D#3",
            "ticks": 134400,
            "time": 151.3512,
            "velocity": 0.5354330708661418
          },
          {
            "duration": 0.07770262500000058,
            "durationTicks": 69,
            "midi": 44,
            "name": "G#2",
            "ticks": 134640,
            "time": 151.62147000000002,
            "velocity": 0.6929133858267716
          },
          {
            "duration": 0.05292787499999463,
            "durationTicks": 47,
            "midi": 51,
            "name": "D#3",
            "ticks": 134640,
            "time": 151.62147000000002,
            "velocity": 0.47244094488188976
          },
          {
            "duration": 0.03490987500001097,
            "durationTicks": 31,
            "midi": 51,
            "name": "D#3",
            "ticks": 134800,
            "time": 151.80165,
            "velocity": 0.4015748031496063
          },
          {
            "duration": 0.05180175000000986,
            "durationTicks": 46,
            "midi": 51,
            "name": "D#3",
            "ticks": 134880,
            "time": 151.89174,
            "velocity": 0.47244094488188976
          },
          {
            "duration": 0.06306299999999965,
            "durationTicks": 56,
            "midi": 51,
            "name": "D#3",
            "ticks": 135120,
            "time": 152.16201,
            "velocity": 0.6062992125984252
          },
          {
            "duration": 0.07207199999999148,
            "durationTicks": 64,
            "midi": 44,
            "name": "G#2",
            "ticks": 135120,
            "time": 152.16201,
            "velocity": 0.8818897637795275
          },
          {
            "duration": 0.07319812500000467,
            "durationTicks": 65,
            "midi": 37,
            "name": "C#2",
            "ticks": 135120,
            "time": 152.16201,
            "velocity": 0.8818897637795275
          },
          {
            "duration": 0.05292787499999463,
            "durationTicks": 47,
            "midi": 51,
            "name": "D#3",
            "ticks": 135280,
            "time": 152.34219,
            "velocity": 0.5354330708661418
          },
          {
            "duration": 0.06193687500001488,
            "durationTicks": 55,
            "midi": 51,
            "name": "D#3",
            "ticks": 135360,
            "time": 152.43228,
            "velocity": 0.47244094488188976
          },
          {
            "duration": 0.06418912499998441,
            "durationTicks": 57,
            "midi": 51,
            "name": "D#3",
            "ticks": 135600,
            "time": 152.70255,
            "velocity": 0.5354330708661418
          },
          {
            "duration": 0.06981974999999352,
            "durationTicks": 62,
            "midi": 44,
            "name": "G#2",
            "ticks": 135600,
            "time": 152.70255,
            "velocity": 0.6929133858267716
          },
          {
            "duration": 0.048423374999998714,
            "durationTicks": 43,
            "midi": 51,
            "name": "D#3",
            "ticks": 135760,
            "time": 152.88273,
            "velocity": 0.5354330708661418
          },
          {
            "duration": 0.05743237499999054,
            "durationTicks": 51,
            "midi": 51,
            "name": "D#3",
            "ticks": 135840,
            "time": 152.97282,
            "velocity": 0.47244094488188976
          },
          {
            "duration": 0.0439188750000028,
            "durationTicks": 39,
            "midi": 51,
            "name": "D#3",
            "ticks": 136080,
            "time": 153.24309,
            "velocity": 0.47244094488188976
          },
          {
            "duration": 0.06981975000002194,
            "durationTicks": 62,
            "midi": 44,
            "name": "G#2",
            "ticks": 136080,
            "time": 153.24309,
            "velocity": 0.8818897637795275
          },
          {
            "duration": 0.06981975000002194,
            "durationTicks": 62,
            "midi": 37,
            "name": "C#2",
            "ticks": 136080,
            "time": 153.24309,
            "velocity": 0.8818897637795275
          },
          {
            "duration": 0.0439188750000028,
            "durationTicks": 39,
            "midi": 51,
            "name": "D#3",
            "ticks": 136240,
            "time": 153.42327,
            "velocity": 0.5354330708661418
          },
          {
            "duration": 0.04617112500000076,
            "durationTicks": 41,
            "midi": 51,
            "name": "D#3",
            "ticks": 136320,
            "time": 153.51336,
            "velocity": 0.5354330708661418
          },
          {
            "duration": 0.07770262500000058,
            "durationTicks": 69,
            "midi": 44,
            "name": "G#2",
            "ticks": 136560,
            "time": 153.78363000000002,
            "velocity": 0.6929133858267716
          },
          {
            "duration": 0.05292787499999463,
            "durationTicks": 47,
            "midi": 51,
            "name": "D#3",
            "ticks": 136560,
            "time": 153.78363000000002,
            "velocity": 0.47244094488188976
          },
          {
            "duration": 0.03490987500001097,
            "durationTicks": 31,
            "midi": 51,
            "name": "D#3",
            "ticks": 136720,
            "time": 153.96381,
            "velocity": 0.4015748031496063
          },
          {
            "duration": 0.05180175000000986,
            "durationTicks": 46,
            "midi": 51,
            "name": "D#3",
            "ticks": 136800,
            "time": 154.0539,
            "velocity": 0.47244094488188976
          },
          {
            "duration": 0.06306299999999965,
            "durationTicks": 56,
            "midi": 51,
            "name": "D#3",
            "ticks": 137040,
            "time": 154.32417,
            "velocity": 0.6062992125984252
          },
          {
            "duration": 0.07207199999999148,
            "durationTicks": 64,
            "midi": 44,
            "name": "G#2",
            "ticks": 137040,
            "time": 154.32417,
            "velocity": 0.8818897637795275
          },
          {
            "duration": 0.07319812500000467,
            "durationTicks": 65,
            "midi": 37,
            "name": "C#2",
            "ticks": 137040,
            "time": 154.32417,
            "velocity": 0.8818897637795275
          },
          {
            "duration": 0.05292787499999463,
            "durationTicks": 47,
            "midi": 51,
            "name": "D#3",
            "ticks": 137200,
            "time": 154.50435,
            "velocity": 0.5354330708661418
          },
          {
            "duration": 0.06193687499998646,
            "durationTicks": 55,
            "midi": 51,
            "name": "D#3",
            "ticks": 137280,
            "time": 154.59444000000002,
            "velocity": 0.47244094488188976
          },
          {
            "duration": 0.06418912499998441,
            "durationTicks": 57,
            "midi": 51,
            "name": "D#3",
            "ticks": 137520,
            "time": 154.86471,
            "velocity": 0.5354330708661418
          },
          {
            "duration": 0.06981974999999352,
            "durationTicks": 62,
            "midi": 44,
            "name": "G#2",
            "ticks": 137520,
            "time": 154.86471,
            "velocity": 0.6929133858267716
          },
          {
            "duration": 0.048423374999998714,
            "durationTicks": 43,
            "midi": 51,
            "name": "D#3",
            "ticks": 137680,
            "time": 155.04489,
            "velocity": 0.5354330708661418
          },
          {
            "duration": 0.05743237499999054,
            "durationTicks": 51,
            "midi": 51,
            "name": "D#3",
            "ticks": 137760,
            "time": 155.13498,
            "velocity": 0.47244094488188976
          },
          {
            "duration": 0.0439188750000028,
            "durationTicks": 39,
            "midi": 51,
            "name": "D#3",
            "ticks": 138000,
            "time": 155.40525,
            "velocity": 0.47244094488188976
          },
          {
            "duration": 0.06981975000002194,
            "durationTicks": 62,
            "midi": 44,
            "name": "G#2",
            "ticks": 138000,
            "time": 155.40525,
            "velocity": 0.8818897637795275
          },
          {
            "duration": 0.06981975000002194,
            "durationTicks": 62,
            "midi": 37,
            "name": "C#2",
            "ticks": 138000,
            "time": 155.40525,
            "velocity": 0.8818897637795275
          },
          {
            "duration": 0.0439188750000028,
            "durationTicks": 39,
            "midi": 51,
            "name": "D#3",
            "ticks": 138160,
            "time": 155.58543,
            "velocity": 0.5354330708661418
          },
          {
            "duration": 0.04617112500000076,
            "durationTicks": 41,
            "midi": 51,
            "name": "D#3",
            "ticks": 138240,
            "time": 155.67552,
            "velocity": 0.5354330708661418
          },
          {
            "duration": 0.12049537500001861,
            "durationTicks": 107,
            "midi": 44,
            "name": "G#2",
            "ticks": 138479,
            "time": 155.944663875,
            "velocity": 0.7559055118110236
          },
          {
            "duration": 0.05292787499999463,
            "durationTicks": 47,
            "midi": 51,
            "name": "D#3",
            "ticks": 138480,
            "time": 155.94579000000002,
            "velocity": 0.47244094488188976
          },
          {
            "duration": 0.03490987500001097,
            "durationTicks": 31,
            "midi": 51,
            "name": "D#3",
            "ticks": 138640,
            "time": 156.12597,
            "velocity": 0.4015748031496063
          },
          {
            "duration": 0.05180175000000986,
            "durationTicks": 46,
            "midi": 51,
            "name": "D#3",
            "ticks": 138720,
            "time": 156.21606,
            "velocity": 0.47244094488188976
          },
          {
            "duration": 0.06306299999999965,
            "durationTicks": 56,
            "midi": 51,
            "name": "D#3",
            "ticks": 138960,
            "time": 156.48633,
            "velocity": 0.6062992125984252
          },
          {
            "duration": 0.07319812500000467,
            "durationTicks": 65,
            "midi": 37,
            "name": "C#2",
            "ticks": 138960,
            "time": 156.48633,
            "velocity": 0.8818897637795275
          },
          {
            "duration": 0.10923412499997198,
            "durationTicks": 97,
            "midi": 44,
            "name": "G#2",
            "ticks": 138980,
            "time": 156.50885250000002,
            "velocity": 0.8346456692913385
          },
          {
            "duration": 0.05292787499999463,
            "durationTicks": 47,
            "midi": 51,
            "name": "D#3",
            "ticks": 139120,
            "time": 156.66651,
            "velocity": 0.5354330708661418
          },
          {
            "duration": 0.06193687500001488,
            "durationTicks": 55,
            "midi": 51,
            "name": "D#3",
            "ticks": 139200,
            "time": 156.7566,
            "velocity": 0.47244094488188976
          },
          {
            "duration": 0.06418912499998441,
            "durationTicks": 57,
            "midi": 51,
            "name": "D#3",
            "ticks": 139440,
            "time": 157.02687,
            "velocity": 0.5354330708661418
          },
          {
            "duration": 0.11599087499999428,
            "durationTicks": 103,
            "midi": 44,
            "name": "G#2",
            "ticks": 139462,
            "time": 157.05164475,
            "velocity": 0.8661417322834646
          },
          {
            "duration": 0.048423374999998714,
            "durationTicks": 43,
            "midi": 51,
            "name": "D#3",
            "ticks": 139600,
            "time": 157.20705,
            "velocity": 0.5354330708661418
          },
          {
            "duration": 0.05743237499999054,
            "durationTicks": 51,
            "midi": 51,
            "name": "D#3",
            "ticks": 139680,
            "time": 157.29714,
            "velocity": 0.47244094488188976
          },
          {
            "duration": 0.08558549999997922,
            "durationTicks": 76,
            "midi": 46,
            "name": "A#2",
            "ticks": 139856,
            "time": 157.495338,
            "velocity": 0.8740157480314961
          },
          {
            "duration": 0.0439188750000028,
            "durationTicks": 39,
            "midi": 51,
            "name": "D#3",
            "ticks": 139920,
            "time": 157.56741,
            "velocity": 0.47244094488188976
          },
          {
            "duration": 0.011261249999989786,
            "durationTicks": 10,
            "midi": 42,
            "name": "F#2",
            "ticks": 139995,
            "time": 157.65186937500002,
            "velocity": 0.6692913385826772
          },
          {
            "duration": 0.0439188750000028,
            "durationTicks": 39,
            "midi": 51,
            "name": "D#3",
            "ticks": 140080,
            "time": 157.74759,
            "velocity": 0.5354330708661418
          },
          {
            "duration": 0.04617112500000076,
            "durationTicks": 41,
            "midi": 51,
            "name": "D#3",
            "ticks": 140160,
            "time": 157.83768,
            "velocity": 0.5354330708661418
          },
          {
            "duration": 0.05292787499999463,
            "durationTicks": 47,
            "midi": 51,
            "name": "D#3",
            "ticks": 140400,
            "time": 158.10795000000002,
            "velocity": 0.47244094488188976
          },
          {
            "duration": 0.07770262500000058,
            "durationTicks": 69,
            "midi": 44,
            "name": "G#2",
            "ticks": 140400,
            "time": 158.10795000000002,
            "velocity": 0.6929133858267716
          },
          {
            "duration": 0.03490987500001097,
            "durationTicks": 31,
            "midi": 51,
            "name": "D#3",
            "ticks": 140560,
            "time": 158.28813,
            "velocity": 0.4015748031496063
          },
          {
            "duration": 0.05180175000000986,
            "durationTicks": 46,
            "midi": 51,
            "name": "D#3",
            "ticks": 140640,
            "time": 158.37822,
            "velocity": 0.47244094488188976
          },
          {
            "duration": 0.06306299999999965,
            "durationTicks": 56,
            "midi": 51,
            "name": "D#3",
            "ticks": 140880,
            "time": 158.64849,
            "velocity": 0.6062992125984252
          },
          {
            "duration": 0.07207199999999148,
            "durationTicks": 64,
            "midi": 44,
            "name": "G#2",
            "ticks": 140880,
            "time": 158.64849,
            "velocity": 0.8818897637795275
          },
          {
            "duration": 0.07319812500000467,
            "durationTicks": 65,
            "midi": 37,
            "name": "C#2",
            "ticks": 140880,
            "time": 158.64849,
            "velocity": 0.8818897637795275
          },
          {
            "duration": 0.05292787499999463,
            "durationTicks": 47,
            "midi": 51,
            "name": "D#3",
            "ticks": 141040,
            "time": 158.82867,
            "velocity": 0.5354330708661418
          },
          {
            "duration": 0.06193687499998646,
            "durationTicks": 55,
            "midi": 51,
            "name": "D#3",
            "ticks": 141120,
            "time": 158.91876000000002,
            "velocity": 0.47244094488188976
          },
          {
            "duration": 0.06418912499998441,
            "durationTicks": 57,
            "midi": 51,
            "name": "D#3",
            "ticks": 141360,
            "time": 159.18903,
            "velocity": 0.5354330708661418
          },
          {
            "duration": 0.06981974999999352,
            "durationTicks": 62,
            "midi": 44,
            "name": "G#2",
            "ticks": 141360,
            "time": 159.18903,
            "velocity": 0.6929133858267716
          },
          {
            "duration": 0.048423374999998714,
            "durationTicks": 43,
            "midi": 51,
            "name": "D#3",
            "ticks": 141520,
            "time": 159.36921,
            "velocity": 0.5354330708661418
          },
          {
            "duration": 0.05743237499999054,
            "durationTicks": 51,
            "midi": 51,
            "name": "D#3",
            "ticks": 141600,
            "time": 159.4593,
            "velocity": 0.47244094488188976
          },
          {
            "duration": 0.0439188750000028,
            "durationTicks": 39,
            "midi": 51,
            "name": "D#3",
            "ticks": 141840,
            "time": 159.72957,
            "velocity": 0.47244094488188976
          },
          {
            "duration": 0.06981975000002194,
            "durationTicks": 62,
            "midi": 44,
            "name": "G#2",
            "ticks": 141840,
            "time": 159.72957,
            "velocity": 0.8818897637795275
          },
          {
            "duration": 0.07319812500003309,
            "durationTicks": 65,
            "midi": 37,
            "name": "C#2",
            "ticks": 141840,
            "time": 159.72957,
            "velocity": 0.8818897637795275
          },
          {
            "duration": 0.0439188750000028,
            "durationTicks": 39,
            "midi": 51,
            "name": "D#3",
            "ticks": 142000,
            "time": 159.90975,
            "velocity": 0.5354330708661418
          },
          {
            "duration": 0.04617112500000076,
            "durationTicks": 41,
            "midi": 51,
            "name": "D#3",
            "ticks": 142080,
            "time": 159.99984,
            "velocity": 0.5354330708661418
          },
          {
            "duration": 0.05292787499999463,
            "durationTicks": 47,
            "midi": 51,
            "name": "D#3",
            "ticks": 142320,
            "time": 160.27011000000002,
            "velocity": 0.47244094488188976
          },
          {
            "duration": 0.07770262500000058,
            "durationTicks": 69,
            "midi": 44,
            "name": "G#2",
            "ticks": 142320,
            "time": 160.27011000000002,
            "velocity": 0.6929133858267716
          },
          {
            "duration": 0.03490987500001097,
            "durationTicks": 31,
            "midi": 51,
            "name": "D#3",
            "ticks": 142480,
            "time": 160.45029,
            "velocity": 0.4015748031496063
          },
          {
            "duration": 0.05180175000000986,
            "durationTicks": 46,
            "midi": 51,
            "name": "D#3",
            "ticks": 142560,
            "time": 160.54038,
            "velocity": 0.47244094488188976
          },
          {
            "duration": 0.06306299999999965,
            "durationTicks": 56,
            "midi": 51,
            "name": "D#3",
            "ticks": 142800,
            "time": 160.81065,
            "velocity": 0.6062992125984252
          },
          {
            "duration": 0.07207199999999148,
            "durationTicks": 64,
            "midi": 44,
            "name": "G#2",
            "ticks": 142800,
            "time": 160.81065,
            "velocity": 0.8818897637795275
          },
          {
            "duration": 0.07319812500000467,
            "durationTicks": 65,
            "midi": 37,
            "name": "C#2",
            "ticks": 142800,
            "time": 160.81065,
            "velocity": 0.8818897637795275
          },
          {
            "duration": 0.05292787499999463,
            "durationTicks": 47,
            "midi": 51,
            "name": "D#3",
            "ticks": 142960,
            "time": 160.99083,
            "velocity": 0.5354330708661418
          },
          {
            "duration": 0.06193687500001488,
            "durationTicks": 55,
            "midi": 51,
            "name": "D#3",
            "ticks": 143040,
            "time": 161.08092,
            "velocity": 0.47244094488188976
          },
          {
            "duration": 0.06418912499998441,
            "durationTicks": 57,
            "midi": 51,
            "name": "D#3",
            "ticks": 143280,
            "time": 161.35119,
            "velocity": 0.5354330708661418
          },
          {
            "duration": 0.06981974999999352,
            "durationTicks": 62,
            "midi": 44,
            "name": "G#2",
            "ticks": 143280,
            "time": 161.35119,
            "velocity": 0.6929133858267716
          },
          {
            "duration": 0.048423374999998714,
            "durationTicks": 43,
            "midi": 51,
            "name": "D#3",
            "ticks": 143440,
            "time": 161.53137,
            "velocity": 0.5354330708661418
          },
          {
            "duration": 0.05743237499999054,
            "durationTicks": 51,
            "midi": 51,
            "name": "D#3",
            "ticks": 143520,
            "time": 161.62146,
            "velocity": 0.47244094488188976
          },
          {
            "duration": 0.0439188750000028,
            "durationTicks": 39,
            "midi": 51,
            "name": "D#3",
            "ticks": 143760,
            "time": 161.89173,
            "velocity": 0.47244094488188976
          },
          {
            "duration": 0.06981975000002194,
            "durationTicks": 62,
            "midi": 44,
            "name": "G#2",
            "ticks": 143760,
            "time": 161.89173,
            "velocity": 0.8818897637795275
          },
          {
            "duration": 0.07319812500003309,
            "durationTicks": 65,
            "midi": 37,
            "name": "C#2",
            "ticks": 143760,
            "time": 161.89173,
            "velocity": 0.8818897637795275
          },
          {
            "duration": 0.0439188750000028,
            "durationTicks": 39,
            "midi": 51,
            "name": "D#3",
            "ticks": 143920,
            "time": 162.07191,
            "velocity": 0.5354330708661418
          },
          {
            "duration": 0.04617112500000076,
            "durationTicks": 41,
            "midi": 51,
            "name": "D#3",
            "ticks": 144000,
            "time": 162.162,
            "velocity": 0.5354330708661418
          },
          {
            "duration": 0.05292787499999463,
            "durationTicks": 47,
            "midi": 51,
            "name": "D#3",
            "ticks": 144240,
            "time": 162.43227000000002,
            "velocity": 0.47244094488188976
          },
          {
            "duration": 0.07770262500000058,
            "durationTicks": 69,
            "midi": 44,
            "name": "G#2",
            "ticks": 144240,
            "time": 162.43227000000002,
            "velocity": 0.6929133858267716
          },
          {
            "duration": 0.03490987500001097,
            "durationTicks": 31,
            "midi": 51,
            "name": "D#3",
            "ticks": 144400,
            "time": 162.61245,
            "velocity": 0.4015748031496063
          },
          {
            "duration": 0.05180175000000986,
            "durationTicks": 46,
            "midi": 51,
            "name": "D#3",
            "ticks": 144480,
            "time": 162.70254,
            "velocity": 0.47244094488188976
          },
          {
            "duration": 0.011261249999989786,
            "durationTicks": 10,
            "midi": 40,
            "name": "E2",
            "ticks": 144650,
            "time": 162.89398125000002,
            "velocity": 0.5039370078740157
          },
          {
            "duration": 0.07207199999999148,
            "durationTicks": 64,
            "midi": 44,
            "name": "G#2",
            "ticks": 144720,
            "time": 162.97281,
            "velocity": 0.8818897637795275
          },
          {
            "duration": 0.06306299999999965,
            "durationTicks": 56,
            "midi": 51,
            "name": "D#3",
            "ticks": 144720,
            "time": 162.97281,
            "velocity": 0.6062992125984252
          },
          {
            "duration": 0.011261250000018208,
            "durationTicks": 10,
            "midi": 40,
            "name": "E2",
            "ticks": 144730,
            "time": 162.98407125,
            "velocity": 0.8818897637795275
          },
          {
            "duration": 0.05292787499999463,
            "durationTicks": 47,
            "midi": 51,
            "name": "D#3",
            "ticks": 144880,
            "time": 163.15299,
            "velocity": 0.5354330708661418
          },
          {
            "duration": 0.011261249999961365,
            "durationTicks": 10,
            "midi": 49,
            "name": "C#3",
            "ticks": 144960,
            "time": 163.24308000000002,
            "velocity": 0.31496062992125984
          },
          {
            "duration": 0.06981974999999352,
            "durationTicks": 62,
            "midi": 44,
            "name": "G#2",
            "ticks": 145200,
            "time": 163.51335,
            "velocity": 0.6929133858267716
          },
          {
            "duration": 0.01126125000004663,
            "durationTicks": 10,
            "midi": 49,
            "name": "C#3",
            "ticks": 145347,
            "time": 163.67889037499998,
            "velocity": 0.3937007874015748
          },
          {
            "duration": 0.011261250000018208,
            "durationTicks": 10,
            "midi": 49,
            "name": "C#3",
            "ticks": 145677,
            "time": 164.05051162499998,
            "velocity": 0.5511811023622047
          },
          {
            "duration": 0.06981975000002194,
            "durationTicks": 62,
            "midi": 44,
            "name": "G#2",
            "ticks": 145680,
            "time": 164.05389,
            "velocity": 0.8818897637795275
          },
          {
            "duration": 0.011261249999989786,
            "durationTicks": 10,
            "midi": 57,
            "name": "A3",
            "ticks": 145920,
            "time": 164.32416,
            "velocity": 0.6062992125984252
          },
          {
            "duration": 0.05292787499999463,
            "durationTicks": 47,
            "midi": 51,
            "name": "D#3",
            "ticks": 146160,
            "time": 164.59443000000002,
            "velocity": 0.47244094488188976
          },
          {
            "duration": 0.07770262500000058,
            "durationTicks": 69,
            "midi": 44,
            "name": "G#2",
            "ticks": 146160,
            "time": 164.59443000000002,
            "velocity": 0.6929133858267716
          },
          {
            "duration": 0.03490987500001097,
            "durationTicks": 31,
            "midi": 51,
            "name": "D#3",
            "ticks": 146320,
            "time": 164.77461,
            "velocity": 0.4015748031496063
          },
          {
            "duration": 0.05180175000000986,
            "durationTicks": 46,
            "midi": 51,
            "name": "D#3",
            "ticks": 146400,
            "time": 164.8647,
            "velocity": 0.47244094488188976
          },
          {
            "duration": 0.011261249999989786,
            "durationTicks": 10,
            "midi": 48,
            "name": "C3",
            "ticks": 146400,
            "time": 164.8647,
            "velocity": 0.5433070866141733
          },
          {
            "duration": 0.011261250000018208,
            "durationTicks": 10,
            "midi": 48,
            "name": "C3",
            "ticks": 146560,
            "time": 165.04488,
            "velocity": 0.5669291338582677
          },
          {
            "duration": 0.011261249999989786,
            "durationTicks": 10,
            "midi": 40,
            "name": "E2",
            "ticks": 146640,
            "time": 165.13497,
            "velocity": 0.968503937007874
          },
          {
            "duration": 0.06306299999999965,
            "durationTicks": 56,
            "midi": 51,
            "name": "D#3",
            "ticks": 146640,
            "time": 165.13497,
            "velocity": 0.6062992125984252
          },
          {
            "duration": 0.011261249999989786,
            "durationTicks": 10,
            "midi": 46,
            "name": "A#2",
            "ticks": 146760,
            "time": 165.270105,
            "velocity": 0.905511811023622
          },
          {
            "duration": 0.011261249999989786,
            "durationTicks": 10,
            "midi": 49,
            "name": "C#3",
            "ticks": 146780,
            "time": 165.2926275,
            "velocity": 0.47244094488188976
          },
          {
            "duration": 0.011261249999989786,
            "durationTicks": 10,
            "midi": 49,
            "name": "C#3",
            "ticks": 146880,
            "time": 165.40524,
            "velocity": 0.007874015748031496
          },
          {
            "duration": 0.011261249999989786,
            "durationTicks": 10,
            "midi": 42,
            "name": "F#2",
            "ticks": 146880,
            "time": 165.40524,
            "velocity": 0.5118110236220472
          },
          {
            "duration": 0.047297250000013946,
            "durationTicks": 42,
            "midi": 44,
            "name": "G#2",
            "ticks": 147340,
            "time": 165.9232575,
            "velocity": 0.5275590551181102
          },
          {
            "duration": 0.011261249999989786,
            "durationTicks": 10,
            "midi": 47,
            "name": "B2",
            "ticks": 147350,
            "time": 165.93451875000002,
            "velocity": 0.4881889763779528
          },
          {
            "duration": 0.011261249999989786,
            "durationTicks": 10,
            "midi": 40,
            "name": "E2",
            "ticks": 147420,
            "time": 166.0133475,
            "velocity": 0.31496062992125984
          },
          {
            "duration": 0.011261249999989786,
            "durationTicks": 10,
            "midi": 40,
            "name": "E2",
            "ticks": 147495,
            "time": 166.097806875,
            "velocity": 0.5511811023622047
          },
          {
            "duration": 0.05968462500001692,
            "durationTicks": 53,
            "midi": 44,
            "name": "G#2",
            "ticks": 147578,
            "time": 166.19127525,
            "velocity": 0.4645669291338583
          },
          {
            "duration": 0.011261250000018208,
            "durationTicks": 10,
            "midi": 40,
            "name": "E2",
            "ticks": 147580,
            "time": 166.1935275,
            "velocity": 0.937007874015748
          },
          {
            "duration": 0.011261249999989786,
            "durationTicks": 10,
            "midi": 49,
            "name": "C#3",
            "ticks": 147720,
            "time": 166.35118500000002,
            "velocity": 0.6062992125984252
          },
          {
            "duration": 0.05292787499999463,
            "durationTicks": 47,
            "midi": 51,
            "name": "D#3",
            "ticks": 148080,
            "time": 166.75659000000002,
            "velocity": 0.47244094488188976
          },
          {
            "duration": 0.07770262500000058,
            "durationTicks": 69,
            "midi": 44,
            "name": "G#2",
            "ticks": 148080,
            "time": 166.75659000000002,
            "velocity": 0.3937007874015748
          },
          {
            "duration": 0.03490987500001097,
            "durationTicks": 31,
            "midi": 51,
            "name": "D#3",
            "ticks": 148240,
            "time": 166.93677,
            "velocity": 0.4015748031496063
          },
          {
            "duration": 0.05180175000000986,
            "durationTicks": 46,
            "midi": 51,
            "name": "D#3",
            "ticks": 148320,
            "time": 167.02686,
            "velocity": 0.47244094488188976
          },
          {
            "duration": 0.06306299999999965,
            "durationTicks": 56,
            "midi": 51,
            "name": "D#3",
            "ticks": 148560,
            "time": 167.29713,
            "velocity": 0.6062992125984252
          },
          {
            "duration": 0.07207199999999148,
            "durationTicks": 64,
            "midi": 44,
            "name": "G#2",
            "ticks": 148560,
            "time": 167.29713,
            "velocity": 0.8818897637795275
          },
          {
            "duration": 0.05292787499999463,
            "durationTicks": 47,
            "midi": 51,
            "name": "D#3",
            "ticks": 148720,
            "time": 167.47731,
            "velocity": 0.5354330708661418
          },
          {
            "duration": 0.06193687499998646,
            "durationTicks": 55,
            "midi": 51,
            "name": "D#3",
            "ticks": 148800,
            "time": 167.56740000000002,
            "velocity": 0.47244094488188976
          },
          {
            "duration": 0.06418912499998441,
            "durationTicks": 57,
            "midi": 51,
            "name": "D#3",
            "ticks": 149040,
            "time": 167.83767,
            "velocity": 0.5354330708661418
          },
          {
            "duration": 0.06981974999999352,
            "durationTicks": 62,
            "midi": 44,
            "name": "G#2",
            "ticks": 149040,
            "time": 167.83767,
            "velocity": 0.6929133858267716
          },
          {
            "duration": 0.048423374999998714,
            "durationTicks": 43,
            "midi": 51,
            "name": "D#3",
            "ticks": 149200,
            "time": 168.01785,
            "velocity": 0.5354330708661418
          },
          {
            "duration": 0.05743237499999054,
            "durationTicks": 51,
            "midi": 51,
            "name": "D#3",
            "ticks": 149280,
            "time": 168.10794,
            "velocity": 0.47244094488188976
          },
          {
            "duration": 0.011261250000018208,
            "durationTicks": 10,
            "midi": 40,
            "name": "E2",
            "ticks": 149438,
            "time": 168.28586775,
            "velocity": 0.5039370078740157
          },
          {
            "duration": 0.06981975000002194,
            "durationTicks": 62,
            "midi": 44,
            "name": "G#2",
            "ticks": 149520,
            "time": 168.37821,
            "velocity": 0.8818897637795275
          },
          {
            "duration": 0.0439188750000028,
            "durationTicks": 39,
            "midi": 51,
            "name": "D#3",
            "ticks": 149520,
            "time": 168.37821,
            "velocity": 0.47244094488188976
          },
          {
            "duration": 0.011261249999989786,
            "durationTicks": 10,
            "midi": 40,
            "name": "E2",
            "ticks": 149521,
            "time": 168.379336125,
            "velocity": 0.6929133858267716
          },
          {
            "duration": 0.011261249999989786,
            "durationTicks": 10,
            "midi": 49,
            "name": "C#3",
            "ticks": 149640,
            "time": 168.51334500000002,
            "velocity": 0.6062992125984252
          },
          {
            "duration": 0.05292787499999463,
            "durationTicks": 47,
            "midi": 51,
            "name": "D#3",
            "ticks": 150000,
            "time": 168.91875000000002,
            "velocity": 0.47244094488188976
          },
          {
            "duration": 0.07770262500000058,
            "durationTicks": 69,
            "midi": 44,
            "name": "G#2",
            "ticks": 150000,
            "time": 168.91875000000002,
            "velocity": 0.6929133858267716
          },
          {
            "duration": 0.03490987500001097,
            "durationTicks": 31,
            "midi": 51,
            "name": "D#3",
            "ticks": 150160,
            "time": 169.09893,
            "velocity": 0.4015748031496063
          },
          {
            "duration": 0.05180175000000986,
            "durationTicks": 46,
            "midi": 51,
            "name": "D#3",
            "ticks": 150240,
            "time": 169.18902,
            "velocity": 0.47244094488188976
          },
          {
            "duration": 0.06306299999999965,
            "durationTicks": 56,
            "midi": 51,
            "name": "D#3",
            "ticks": 150480,
            "time": 169.45929,
            "velocity": 0.6062992125984252
          },
          {
            "duration": 0.07207199999999148,
            "durationTicks": 64,
            "midi": 44,
            "name": "G#2",
            "ticks": 150480,
            "time": 169.45929,
            "velocity": 0.8818897637795275
          },
          {
            "duration": 0.05292787499999463,
            "durationTicks": 47,
            "midi": 51,
            "name": "D#3",
            "ticks": 150640,
            "time": 169.63947,
            "velocity": 0.5354330708661418
          },
          {
            "duration": 0.06193687500001488,
            "durationTicks": 55,
            "midi": 51,
            "name": "D#3",
            "ticks": 150720,
            "time": 169.72956,
            "velocity": 0.47244094488188976
          },
          {
            "duration": 0.06418912499998441,
            "durationTicks": 57,
            "midi": 51,
            "name": "D#3",
            "ticks": 150960,
            "time": 169.99983,
            "velocity": 0.5354330708661418
          },
          {
            "duration": 0.06981974999999352,
            "durationTicks": 62,
            "midi": 44,
            "name": "G#2",
            "ticks": 150960,
            "time": 169.99983,
            "velocity": 0.6929133858267716
          },
          {
            "duration": 0.048423374999998714,
            "durationTicks": 43,
            "midi": 51,
            "name": "D#3",
            "ticks": 151120,
            "time": 170.18001,
            "velocity": 0.5354330708661418
          },
          {
            "duration": 0.05743237499999054,
            "durationTicks": 51,
            "midi": 51,
            "name": "D#3",
            "ticks": 151200,
            "time": 170.2701,
            "velocity": 0.47244094488188976
          },
          {
            "duration": 0.011261250000018208,
            "durationTicks": 10,
            "midi": 40,
            "name": "E2",
            "ticks": 151358,
            "time": 170.44802775,
            "velocity": 0.5039370078740157
          },
          {
            "duration": 0.06981975000002194,
            "durationTicks": 62,
            "midi": 44,
            "name": "G#2",
            "ticks": 151440,
            "time": 170.54037,
            "velocity": 0.8818897637795275
          },
          {
            "duration": 0.0439188750000028,
            "durationTicks": 39,
            "midi": 51,
            "name": "D#3",
            "ticks": 151440,
            "time": 170.54037,
            "velocity": 0.47244094488188976
          },
          {
            "duration": 0.011261249999989786,
            "durationTicks": 10,
            "midi": 40,
            "name": "E2",
            "ticks": 151441,
            "time": 170.541496125,
            "velocity": 0.6929133858267716
          },
          {
            "duration": 0.011261249999989786,
            "durationTicks": 10,
            "midi": 57,
            "name": "A3",
            "ticks": 151560,
            "time": 170.67550500000002,
            "velocity": 0.5354330708661418
          },
          {
            "duration": 0.05292787499999463,
            "durationTicks": 47,
            "midi": 51,
            "name": "D#3",
            "ticks": 151920,
            "time": 171.08091000000002,
            "velocity": 0.47244094488188976
          },
          {
            "duration": 0.07770262500000058,
            "durationTicks": 69,
            "midi": 44,
            "name": "G#2",
            "ticks": 151920,
            "time": 171.08091000000002,
            "velocity": 0.6929133858267716
          },
          {
            "duration": 0.03490987500001097,
            "durationTicks": 31,
            "midi": 51,
            "name": "D#3",
            "ticks": 152080,
            "time": 171.26109,
            "velocity": 0.4015748031496063
          },
          {
            "duration": 0.05180175000000986,
            "durationTicks": 46,
            "midi": 51,
            "name": "D#3",
            "ticks": 152160,
            "time": 171.35118,
            "velocity": 0.47244094488188976
          },
          {
            "duration": 0.06306299999999965,
            "durationTicks": 56,
            "midi": 51,
            "name": "D#3",
            "ticks": 152400,
            "time": 171.62145,
            "velocity": 0.6062992125984252
          },
          {
            "duration": 0.07207199999999148,
            "durationTicks": 64,
            "midi": 44,
            "name": "G#2",
            "ticks": 152400,
            "time": 171.62145,
            "velocity": 0.8818897637795275
          },
          {
            "duration": 0.05292787499999463,
            "durationTicks": 47,
            "midi": 51,
            "name": "D#3",
            "ticks": 152560,
            "time": 171.80163,
            "velocity": 0.5354330708661418
          },
          {
            "duration": 0.06193687499998646,
            "durationTicks": 55,
            "midi": 51,
            "name": "D#3",
            "ticks": 152640,
            "time": 171.89172000000002,
            "velocity": 0.47244094488188976
          },
          {
            "duration": 0.06418912499998441,
            "durationTicks": 57,
            "midi": 51,
            "name": "D#3",
            "ticks": 152880,
            "time": 172.16199,
            "velocity": 0.5354330708661418
          },
          {
            "duration": 0.06981974999999352,
            "durationTicks": 62,
            "midi": 44,
            "name": "G#2",
            "ticks": 152880,
            "time": 172.16199,
            "velocity": 0.6929133858267716
          },
          {
            "duration": 0.048423374999998714,
            "durationTicks": 43,
            "midi": 51,
            "name": "D#3",
            "ticks": 153040,
            "time": 172.34217,
            "velocity": 0.5354330708661418
          },
          {
            "duration": 0.05743237499999054,
            "durationTicks": 51,
            "midi": 51,
            "name": "D#3",
            "ticks": 153120,
            "time": 172.43226,
            "velocity": 0.47244094488188976
          },
          {
            "duration": 0.06981974999999352,
            "durationTicks": 62,
            "midi": 44,
            "name": "G#2",
            "ticks": 153120,
            "time": 172.43226,
            "velocity": 0.6929133858267716
          },
          {
            "duration": 0.011261249999989786,
            "durationTicks": 10,
            "midi": 40,
            "name": "E2",
            "ticks": 153200,
            "time": 172.52235000000002,
            "velocity": 0.15748031496062992
          },
          {
            "duration": 0.011261249999989786,
            "durationTicks": 10,
            "midi": 40,
            "name": "E2",
            "ticks": 153240,
            "time": 172.567395,
            "velocity": 0.1968503937007874
          },
          {
            "duration": 0.011261250000018208,
            "durationTicks": 10,
            "midi": 40,
            "name": "E2",
            "ticks": 153280,
            "time": 172.61244,
            "velocity": 0.7874015748031497
          },
          {
            "duration": 0.011261249999989786,
            "durationTicks": 10,
            "midi": 40,
            "name": "E2",
            "ticks": 153360,
            "time": 172.70253,
            "velocity": 0.8818897637795275
          },
          {
            "duration": 0.06981975000002194,
            "durationTicks": 62,
            "midi": 44,
            "name": "G#2",
            "ticks": 153360,
            "time": 172.70253,
            "velocity": 0.8818897637795275
          },
          {
            "duration": 0.0439188750000028,
            "durationTicks": 39,
            "midi": 51,
            "name": "D#3",
            "ticks": 153360,
            "time": 172.70253,
            "velocity": 0.47244094488188976
          },
          {
            "duration": 0.011261249999989786,
            "durationTicks": 10,
            "midi": 49,
            "name": "C#3",
            "ticks": 153600,
            "time": 172.9728,
            "velocity": 0.4015748031496063
          },
          {
            "duration": 0.07770262500000058,
            "durationTicks": 69,
            "midi": 44,
            "name": "G#2",
            "ticks": 153840,
            "time": 173.24307000000002,
            "velocity": 0.6929133858267716
          },
          {
            "duration": 0.011261250000018208,
            "durationTicks": 10,
            "midi": 49,
            "name": "C#3",
            "ticks": 153998,
            "time": 173.42099775,
            "velocity": 0.3937007874015748
          },
          {
            "duration": 0.07770262500000058,
            "durationTicks": 69,
            "midi": 44,
            "name": "G#2",
            "ticks": 154080,
            "time": 173.51334,
            "velocity": 0.5039370078740157
          },
          {
            "duration": 0.07207199999999148,
            "durationTicks": 64,
            "midi": 44,
            "name": "G#2",
            "ticks": 154320,
            "time": 173.78361,
            "velocity": 0.6062992125984252
          },
          {
            "duration": 0.011261249999989786,
            "durationTicks": 10,
            "midi": 49,
            "name": "C#3",
            "ticks": 154355,
            "time": 173.82302437500002,
            "velocity": 0.31496062992125984
          },
          {
            "duration": 0.0720720000000199,
            "durationTicks": 64,
            "midi": 44,
            "name": "G#2",
            "ticks": 154560,
            "time": 174.05388,
            "velocity": 0.6929133858267716
          },
          {
            "duration": 0.011261249999989786,
            "durationTicks": 10,
            "midi": 49,
            "name": "C#3",
            "ticks": 154708,
            "time": 174.2205465,
            "velocity": 0.31496062992125984
          },
          {
            "duration": 0.06981974999999352,
            "durationTicks": 62,
            "midi": 44,
            "name": "G#2",
            "ticks": 154800,
            "time": 174.32415,
            "velocity": 0.5039370078740157
          },
          {
            "duration": 0.011261249999989786,
            "durationTicks": 10,
            "midi": 40,
            "name": "E2",
            "ticks": 155000,
            "time": 174.54937500000003,
            "velocity": 0.15748031496062992
          },
          {
            "duration": 0.011261249999989786,
            "durationTicks": 10,
            "midi": 49,
            "name": "C#3",
            "ticks": 155008,
            "time": 174.55838400000002,
            "velocity": 0.31496062992125984
          },
          {
            "duration": 0.011261249999989786,
            "durationTicks": 10,
            "midi": 40,
            "name": "E2",
            "ticks": 155040,
            "time": 174.59442,
            "velocity": 0.6929133858267716
          },
          {
            "duration": 0.06981974999999352,
            "durationTicks": 62,
            "midi": 44,
            "name": "G#2",
            "ticks": 155040,
            "time": 174.59442,
            "velocity": 0.6062992125984252
          },
          {
            "duration": 0.06981975000002194,
            "durationTicks": 62,
            "midi": 44,
            "name": "G#2",
            "ticks": 155280,
            "time": 174.86469,
            "velocity": 0.6929133858267716
          },
          {
            "duration": 0.011261249999989786,
            "durationTicks": 10,
            "midi": 43,
            "name": "G2",
            "ticks": 155280,
            "time": 174.86469,
            "velocity": 0.6062992125984252
          },
          {
            "duration": 0.011261249999989786,
            "durationTicks": 10,
            "midi": 49,
            "name": "C#3",
            "ticks": 155280,
            "time": 174.86469,
            "velocity": 0.3937007874015748
          },
          {
            "duration": 0.011261249999989786,
            "durationTicks": 10,
            "midi": 49,
            "name": "C#3",
            "ticks": 155520,
            "time": 175.13496,
            "velocity": 0.47244094488188976
          },
          {
            "duration": 0.05292787499999463,
            "durationTicks": 47,
            "midi": 51,
            "name": "D#3",
            "ticks": 155760,
            "time": 175.40523000000002,
            "velocity": 0.47244094488188976
          },
          {
            "duration": 0.07770262500000058,
            "durationTicks": 69,
            "midi": 44,
            "name": "G#2",
            "ticks": 155760,
            "time": 175.40523000000002,
            "velocity": 0.6929133858267716
          },
          {
            "duration": 0.03490987500001097,
            "durationTicks": 31,
            "midi": 51,
            "name": "D#3",
            "ticks": 155920,
            "time": 175.58541,
            "velocity": 0.4015748031496063
          },
          {
            "duration": 0.05180175000000986,
            "durationTicks": 46,
            "midi": 51,
            "name": "D#3",
            "ticks": 156000,
            "time": 175.6755,
            "velocity": 0.47244094488188976
          },
          {
            "duration": 0.06306299999999965,
            "durationTicks": 56,
            "midi": 51,
            "name": "D#3",
            "ticks": 156240,
            "time": 175.94577,
            "velocity": 0.6062992125984252
          },
          {
            "duration": 0.07207199999999148,
            "durationTicks": 64,
            "midi": 44,
            "name": "G#2",
            "ticks": 156240,
            "time": 175.94577,
            "velocity": 0.8818897637795275
          },
          {
            "duration": 0.05292787499999463,
            "durationTicks": 47,
            "midi": 51,
            "name": "D#3",
            "ticks": 156400,
            "time": 176.12595,
            "velocity": 0.5354330708661418
          },
          {
            "duration": 0.06193687499998646,
            "durationTicks": 55,
            "midi": 51,
            "name": "D#3",
            "ticks": 156480,
            "time": 176.21604000000002,
            "velocity": 0.47244094488188976
          },
          {
            "duration": 0.06418912499998441,
            "durationTicks": 57,
            "midi": 51,
            "name": "D#3",
            "ticks": 156720,
            "time": 176.48631,
            "velocity": 0.5354330708661418
          },
          {
            "duration": 0.06981974999999352,
            "durationTicks": 62,
            "midi": 44,
            "name": "G#2",
            "ticks": 156720,
            "time": 176.48631,
            "velocity": 0.6929133858267716
          },
          {
            "duration": 0.048423374999998714,
            "durationTicks": 43,
            "midi": 51,
            "name": "D#3",
            "ticks": 156880,
            "time": 176.66649,
            "velocity": 0.5354330708661418
          },
          {
            "duration": 0.05743237499999054,
            "durationTicks": 51,
            "midi": 51,
            "name": "D#3",
            "ticks": 156960,
            "time": 176.75658,
            "velocity": 0.47244094488188976
          },
          {
            "duration": 0.0439188750000028,
            "durationTicks": 39,
            "midi": 51,
            "name": "D#3",
            "ticks": 157200,
            "time": 177.02685,
            "velocity": 0.47244094488188976
          },
          {
            "duration": 0.06981975000002194,
            "durationTicks": 62,
            "midi": 44,
            "name": "G#2",
            "ticks": 157200,
            "time": 177.02685,
            "velocity": 0.8818897637795275
          },
          {
            "duration": 0.011261250000018208,
            "durationTicks": 10,
            "midi": 40,
            "name": "E2",
            "ticks": 157360,
            "time": 177.20703,
            "velocity": 0.15748031496062992
          },
          {
            "duration": 0.0439188750000028,
            "durationTicks": 39,
            "midi": 51,
            "name": "D#3",
            "ticks": 157360,
            "time": 177.20703,
            "velocity": 0.5354330708661418
          },
          {
            "duration": 0.011261249999989786,
            "durationTicks": 10,
            "midi": 40,
            "name": "E2",
            "ticks": 157400,
            "time": 177.25207500000002,
            "velocity": 0.23622047244094488
          },
          {
            "duration": 0.011261249999989786,
            "durationTicks": 10,
            "midi": 40,
            "name": "E2",
            "ticks": 157440,
            "time": 177.29712,
            "velocity": 0.7874015748031497
          },
          {
            "duration": 0.04617112500000076,
            "durationTicks": 41,
            "midi": 51,
            "name": "D#3",
            "ticks": 157440,
            "time": 177.29712,
            "velocity": 0.5354330708661418
          },
          {
            "duration": 0.011261249999989786,
            "durationTicks": 10,
            "midi": 57,
            "name": "A3",
            "ticks": 157920,
            "time": 177.83766,
            "velocity": 0.6062992125984252
          },
          {
            "duration": 0.07207199999999148,
            "durationTicks": 64,
            "midi": 44,
            "name": "G#2",
            "ticks": 158160,
            "time": 178.10793,
            "velocity": 0.7007874015748031
          },
          {
            "duration": 0.0720720000000199,
            "durationTicks": 64,
            "midi": 44,
            "name": "G#2",
            "ticks": 158400,
            "time": 178.3782,
            "velocity": 0.7874015748031497
          },
          {
            "duration": 0.011261249999989786,
            "durationTicks": 10,
            "midi": 40,
            "name": "E2",
            "ticks": 158415,
            "time": 178.39509187500002,
            "velocity": 0.7874015748031497
          },
          {
            "duration": 0.011261249999989786,
            "durationTicks": 10,
            "midi": 40,
            "name": "E2",
            "ticks": 158469,
            "time": 178.45590262500002,
            "velocity": 0.5354330708661418
          },
          {
            "duration": 0.011261250000018208,
            "durationTicks": 10,
            "midi": 40,
            "name": "E2",
            "ticks": 158526,
            "time": 178.52009175,
            "velocity": 0.4330708661417323
          },
          {
            "duration": 0.011261249999989786,
            "durationTicks": 10,
            "midi": 40,
            "name": "E2",
            "ticks": 158582,
            "time": 178.58315475,
            "velocity": 0.3937007874015748
          },
          {
            "duration": 0.06981974999999352,
            "durationTicks": 62,
            "midi": 44,
            "name": "G#2",
            "ticks": 158640,
            "time": 178.64847,
            "velocity": 0.5984251968503937
          },
          {
            "duration": 0.011261250000018208,
            "durationTicks": 10,
            "midi": 48,
            "name": "C3",
            "ticks": 158652,
            "time": 178.6619835,
            "velocity": 0.6062992125984252
          },
          {
            "duration": 0.011261250000018208,
            "durationTicks": 10,
            "midi": 48,
            "name": "C3",
            "ticks": 158710,
            "time": 178.72729875,
            "velocity": 0.31496062992125984
          },
          {
            "duration": 0.011261249999989786,
            "durationTicks": 10,
            "midi": 48,
            "name": "C3",
            "ticks": 158750,
            "time": 178.77234375,
            "velocity": 0.31496062992125984
          },
          {
            "duration": 0.011261249999989786,
            "durationTicks": 10,
            "midi": 48,
            "name": "C3",
            "ticks": 158825,
            "time": 178.85680312500003,
            "velocity": 0.3937007874015748
          },
          {
            "duration": 0.06981974999999352,
            "durationTicks": 62,
            "midi": 44,
            "name": "G#2",
            "ticks": 158880,
            "time": 178.91874,
            "velocity": 0.7007874015748031
          },
          {
            "duration": 0.011261249999989786,
            "durationTicks": 10,
            "midi": 48,
            "name": "C3",
            "ticks": 158887,
            "time": 178.92662287500002,
            "velocity": 0.6929133858267716
          },
          {
            "duration": 0.011261249999989786,
            "durationTicks": 10,
            "midi": 48,
            "name": "C3",
            "ticks": 158940,
            "time": 178.9863075,
            "velocity": 0.47244094488188976
          },
          {
            "duration": 0.011261249999989786,
            "durationTicks": 10,
            "midi": 48,
            "name": "C3",
            "ticks": 159009,
            "time": 179.064010125,
            "velocity": 0.3937007874015748
          },
          {
            "duration": 0.011261250000018208,
            "durationTicks": 10,
            "midi": 48,
            "name": "C3",
            "ticks": 159072,
            "time": 179.134956,
            "velocity": 0.31496062992125984
          },
          {
            "duration": 0.06981975000002194,
            "durationTicks": 62,
            "midi": 44,
            "name": "G#2",
            "ticks": 159120,
            "time": 179.18901,
            "velocity": 0.7874015748031497
          },
          {
            "duration": 0.011261250000018208,
            "durationTicks": 10,
            "midi": 45,
            "name": "A2",
            "ticks": 159132,
            "time": 179.20252349999998,
            "velocity": 0.5039370078740157
          },
          {
            "duration": 0.01126125000004663,
            "durationTicks": 10,
            "midi": 45,
            "name": "A2",
            "ticks": 159179,
            "time": 179.25545137499998,
            "velocity": 0.3937007874015748
          },
          {
            "duration": 0.011261249999989786,
            "durationTicks": 10,
            "midi": 45,
            "name": "A2",
            "ticks": 159234,
            "time": 179.31738825000002,
            "velocity": 0.31496062992125984
          },
          {
            "duration": 0.011261249999989786,
            "durationTicks": 10,
            "midi": 45,
            "name": "A2",
            "ticks": 159296,
            "time": 179.38720800000002,
            "velocity": 0.2755905511811024
          },
          {
            "duration": 0.011261249999989786,
            "durationTicks": 10,
            "midi": 57,
            "name": "A3",
            "ticks": 159360,
            "time": 179.45928,
            "velocity": 0.6062992125984252
          },
          {
            "duration": 0.05292787499999463,
            "durationTicks": 47,
            "midi": 51,
            "name": "D#3",
            "ticks": 159600,
            "time": 179.72955000000002,
            "velocity": 0.47244094488188976
          },
          {
            "duration": 0.07770262500000058,
            "durationTicks": 69,
            "midi": 44,
            "name": "G#2",
            "ticks": 159600,
            "time": 179.72955000000002,
            "velocity": 0.6929133858267716
          },
          {
            "duration": 0.03490987500001097,
            "durationTicks": 31,
            "midi": 51,
            "name": "D#3",
            "ticks": 159760,
            "time": 179.90973,
            "velocity": 0.4015748031496063
          },
          {
            "duration": 0.05180175000000986,
            "durationTicks": 46,
            "midi": 51,
            "name": "D#3",
            "ticks": 159840,
            "time": 179.99982,
            "velocity": 0.47244094488188976
          },
          {
            "duration": 0.06306299999999965,
            "durationTicks": 56,
            "midi": 51,
            "name": "D#3",
            "ticks": 160080,
            "time": 180.27009,
            "velocity": 0.6062992125984252
          },
          {
            "duration": 0.07207199999999148,
            "durationTicks": 64,
            "midi": 44,
            "name": "G#2",
            "ticks": 160080,
            "time": 180.27009,
            "velocity": 0.8818897637795275
          },
          {
            "duration": 0.05292787499999463,
            "durationTicks": 47,
            "midi": 51,
            "name": "D#3",
            "ticks": 160240,
            "time": 180.45027,
            "velocity": 0.5354330708661418
          },
          {
            "duration": 0.06193687499998646,
            "durationTicks": 55,
            "midi": 51,
            "name": "D#3",
            "ticks": 160320,
            "time": 180.54036000000002,
            "velocity": 0.47244094488188976
          },
          {
            "duration": 0.06418912499998441,
            "durationTicks": 57,
            "midi": 51,
            "name": "D#3",
            "ticks": 160560,
            "time": 180.81063,
            "velocity": 0.5354330708661418
          },
          {
            "duration": 0.06981974999999352,
            "durationTicks": 62,
            "midi": 44,
            "name": "G#2",
            "ticks": 160560,
            "time": 180.81063,
            "velocity": 0.6929133858267716
          },
          {
            "duration": 0.048423374999998714,
            "durationTicks": 43,
            "midi": 51,
            "name": "D#3",
            "ticks": 160720,
            "time": 180.99081,
            "velocity": 0.5354330708661418
          },
          {
            "duration": 0.05743237499999054,
            "durationTicks": 51,
            "midi": 51,
            "name": "D#3",
            "ticks": 160800,
            "time": 181.0809,
            "velocity": 0.47244094488188976
          },
          {
            "duration": 0.0439188750000028,
            "durationTicks": 39,
            "midi": 51,
            "name": "D#3",
            "ticks": 161040,
            "time": 181.35117,
            "velocity": 0.47244094488188976
          },
          {
            "duration": 0.06981975000002194,
            "durationTicks": 62,
            "midi": 44,
            "name": "G#2",
            "ticks": 161040,
            "time": 181.35117,
            "velocity": 0.8818897637795275
          },
          {
            "duration": 0.0439188750000028,
            "durationTicks": 39,
            "midi": 51,
            "name": "D#3",
            "ticks": 161200,
            "time": 181.53135,
            "velocity": 0.5354330708661418
          },
          {
            "duration": 0.04617112500000076,
            "durationTicks": 41,
            "midi": 51,
            "name": "D#3",
            "ticks": 161280,
            "time": 181.62144,
            "velocity": 0.5354330708661418
          },
          {
            "duration": 0.05292787499999463,
            "durationTicks": 47,
            "midi": 51,
            "name": "D#3",
            "ticks": 161520,
            "time": 181.89171000000002,
            "velocity": 0.47244094488188976
          },
          {
            "duration": 0.07770262500000058,
            "durationTicks": 69,
            "midi": 44,
            "name": "G#2",
            "ticks": 161520,
            "time": 181.89171000000002,
            "velocity": 0.6929133858267716
          },
          {
            "duration": 0.03490987500001097,
            "durationTicks": 31,
            "midi": 51,
            "name": "D#3",
            "ticks": 161680,
            "time": 182.07189,
            "velocity": 0.4015748031496063
          },
          {
            "duration": 0.05180175000000986,
            "durationTicks": 46,
            "midi": 51,
            "name": "D#3",
            "ticks": 161760,
            "time": 182.16198,
            "velocity": 0.47244094488188976
          },
          {
            "duration": 0.06306299999999965,
            "durationTicks": 56,
            "midi": 51,
            "name": "D#3",
            "ticks": 162000,
            "time": 182.43225,
            "velocity": 0.6062992125984252
          },
          {
            "duration": 0.07207199999999148,
            "durationTicks": 64,
            "midi": 44,
            "name": "G#2",
            "ticks": 162000,
            "time": 182.43225,
            "velocity": 0.8818897637795275
          },
          {
            "duration": 0.05292787499999463,
            "durationTicks": 47,
            "midi": 51,
            "name": "D#3",
            "ticks": 162160,
            "time": 182.61243,
            "velocity": 0.5354330708661418
          },
          {
            "duration": 0.06193687500001488,
            "durationTicks": 55,
            "midi": 51,
            "name": "D#3",
            "ticks": 162240,
            "time": 182.70252,
            "velocity": 0.47244094488188976
          },
          {
            "duration": 0.06418912499998441,
            "durationTicks": 57,
            "midi": 51,
            "name": "D#3",
            "ticks": 162480,
            "time": 182.97279,
            "velocity": 0.5354330708661418
          },
          {
            "duration": 0.06981974999999352,
            "durationTicks": 62,
            "midi": 44,
            "name": "G#2",
            "ticks": 162480,
            "time": 182.97279,
            "velocity": 0.6929133858267716
          },
          {
            "duration": 0.048423374999998714,
            "durationTicks": 43,
            "midi": 51,
            "name": "D#3",
            "ticks": 162640,
            "time": 183.15297,
            "velocity": 0.5354330708661418
          },
          {
            "duration": 0.05743237499999054,
            "durationTicks": 51,
            "midi": 51,
            "name": "D#3",
            "ticks": 162720,
            "time": 183.24306,
            "velocity": 0.47244094488188976
          },
          {
            "duration": 0.06981974999999352,
            "durationTicks": 62,
            "midi": 46,
            "name": "A#2",
            "ticks": 162840,
            "time": 183.378195,
            "velocity": 0.7874015748031497
          },
          {
            "duration": 0.06981975000002194,
            "durationTicks": 62,
            "midi": 44,
            "name": "G#2",
            "ticks": 162960,
            "time": 183.51333,
            "velocity": 0.8818897637795275
          },
          {
            "duration": 0.0439188750000028,
            "durationTicks": 39,
            "midi": 51,
            "name": "D#3",
            "ticks": 162960,
            "time": 183.51333,
            "velocity": 0.47244094488188976
          },
          {
            "duration": 0.0439188750000028,
            "durationTicks": 39,
            "midi": 51,
            "name": "D#3",
            "ticks": 163120,
            "time": 183.69351,
            "velocity": 0.5354330708661418
          },
          {
            "duration": 0.04617112500000076,
            "durationTicks": 41,
            "midi": 51,
            "name": "D#3",
            "ticks": 163200,
            "time": 183.7836,
            "velocity": 0.5354330708661418
          },
          {
            "duration": 0.05292787499999463,
            "durationTicks": 47,
            "midi": 51,
            "name": "D#3",
            "ticks": 163440,
            "time": 184.05387000000002,
            "velocity": 0.47244094488188976
          },
          {
            "duration": 0.07770262500000058,
            "durationTicks": 69,
            "midi": 44,
            "name": "G#2",
            "ticks": 163440,
            "time": 184.05387000000002,
            "velocity": 0.6929133858267716
          },
          {
            "duration": 0.03490987500001097,
            "durationTicks": 31,
            "midi": 51,
            "name": "D#3",
            "ticks": 163600,
            "time": 184.23405,
            "velocity": 0.4015748031496063
          },
          {
            "duration": 0.05180175000000986,
            "durationTicks": 46,
            "midi": 51,
            "name": "D#3",
            "ticks": 163680,
            "time": 184.32414,
            "velocity": 0.47244094488188976
          },
          {
            "duration": 0.06306299999999965,
            "durationTicks": 56,
            "midi": 51,
            "name": "D#3",
            "ticks": 163920,
            "time": 184.59441,
            "velocity": 0.6062992125984252
          },
          {
            "duration": 0.07207199999999148,
            "durationTicks": 64,
            "midi": 44,
            "name": "G#2",
            "ticks": 163920,
            "time": 184.59441,
            "velocity": 0.8818897637795275
          },
          {
            "duration": 0.05292787499999463,
            "durationTicks": 47,
            "midi": 51,
            "name": "D#3",
            "ticks": 164080,
            "time": 184.77459,
            "velocity": 0.5354330708661418
          },
          {
            "duration": 0.06193687499998646,
            "durationTicks": 55,
            "midi": 51,
            "name": "D#3",
            "ticks": 164160,
            "time": 184.86468000000002,
            "velocity": 0.47244094488188976
          },
          {
            "duration": 0.06418912499998441,
            "durationTicks": 57,
            "midi": 51,
            "name": "D#3",
            "ticks": 164400,
            "time": 185.13495,
            "velocity": 0.5354330708661418
          },
          {
            "duration": 0.06981974999999352,
            "durationTicks": 62,
            "midi": 44,
            "name": "G#2",
            "ticks": 164400,
            "time": 185.13495,
            "velocity": 0.6929133858267716
          },
          {
            "duration": 0.048423374999998714,
            "durationTicks": 43,
            "midi": 51,
            "name": "D#3",
            "ticks": 164560,
            "time": 185.31513,
            "velocity": 0.5354330708661418
          },
          {
            "duration": 0.05743237499999054,
            "durationTicks": 51,
            "midi": 51,
            "name": "D#3",
            "ticks": 164640,
            "time": 185.40522,
            "velocity": 0.47244094488188976
          },
          {
            "duration": 0.0439188750000028,
            "durationTicks": 39,
            "midi": 51,
            "name": "D#3",
            "ticks": 164880,
            "time": 185.67549,
            "velocity": 0.47244094488188976
          },
          {
            "duration": 0.06981975000002194,
            "durationTicks": 62,
            "midi": 44,
            "name": "G#2",
            "ticks": 164880,
            "time": 185.67549,
            "velocity": 0.8818897637795275
          },
          {
            "duration": 0.0439188750000028,
            "durationTicks": 39,
            "midi": 51,
            "name": "D#3",
            "ticks": 165040,
            "time": 185.85567,
            "velocity": 0.5354330708661418
          },
          {
            "duration": 0.04617112500000076,
            "durationTicks": 41,
            "midi": 51,
            "name": "D#3",
            "ticks": 165120,
            "time": 185.94576,
            "velocity": 0.5354330708661418
          },
          {
            "duration": 0.05292787499999463,
            "durationTicks": 47,
            "midi": 51,
            "name": "D#3",
            "ticks": 165360,
            "time": 186.21603000000002,
            "velocity": 0.47244094488188976
          },
          {
            "duration": 0.07770262500000058,
            "durationTicks": 69,
            "midi": 44,
            "name": "G#2",
            "ticks": 165360,
            "time": 186.21603000000002,
            "velocity": 0.6929133858267716
          },
          {
            "duration": 0.03490987500001097,
            "durationTicks": 31,
            "midi": 51,
            "name": "D#3",
            "ticks": 165520,
            "time": 186.39621,
            "velocity": 0.4015748031496063
          },
          {
            "duration": 0.05180175000000986,
            "durationTicks": 46,
            "midi": 51,
            "name": "D#3",
            "ticks": 165600,
            "time": 186.4863,
            "velocity": 0.47244094488188976
          },
          {
            "duration": 0.06306299999999965,
            "durationTicks": 56,
            "midi": 51,
            "name": "D#3",
            "ticks": 165840,
            "time": 186.75657,
            "velocity": 0.6062992125984252
          },
          {
            "duration": 0.07207199999999148,
            "durationTicks": 64,
            "midi": 44,
            "name": "G#2",
            "ticks": 165840,
            "time": 186.75657,
            "velocity": 0.8818897637795275
          },
          {
            "duration": 0.05292787499999463,
            "durationTicks": 47,
            "midi": 51,
            "name": "D#3",
            "ticks": 166000,
            "time": 186.93675,
            "velocity": 0.5354330708661418
          },
          {
            "duration": 0.06193687500001488,
            "durationTicks": 55,
            "midi": 51,
            "name": "D#3",
            "ticks": 166080,
            "time": 187.02684,
            "velocity": 0.47244094488188976
          },
          {
            "duration": 0.06418912499998441,
            "durationTicks": 57,
            "midi": 51,
            "name": "D#3",
            "ticks": 166320,
            "time": 187.29711,
            "velocity": 0.5354330708661418
          },
          {
            "duration": 0.06981974999999352,
            "durationTicks": 62,
            "midi": 44,
            "name": "G#2",
            "ticks": 166320,
            "time": 187.29711,
            "velocity": 0.6929133858267716
          },
          {
            "duration": 0.048423374999998714,
            "durationTicks": 43,
            "midi": 51,
            "name": "D#3",
            "ticks": 166480,
            "time": 187.47729,
            "velocity": 0.5354330708661418
          },
          {
            "duration": 0.05743237499999054,
            "durationTicks": 51,
            "midi": 51,
            "name": "D#3",
            "ticks": 166560,
            "time": 187.56738,
            "velocity": 0.47244094488188976
          },
          {
            "duration": 0.0439188750000028,
            "durationTicks": 39,
            "midi": 51,
            "name": "D#3",
            "ticks": 166800,
            "time": 187.83765,
            "velocity": 0.47244094488188976
          },
          {
            "duration": 0.06981975000002194,
            "durationTicks": 62,
            "midi": 44,
            "name": "G#2",
            "ticks": 166800,
            "time": 187.83765,
            "velocity": 0.8818897637795275
          },
          {
            "duration": 0.0439188750000028,
            "durationTicks": 39,
            "midi": 51,
            "name": "D#3",
            "ticks": 166960,
            "time": 188.01783,
            "velocity": 0.5354330708661418
          },
          {
            "duration": 0.04617112500000076,
            "durationTicks": 41,
            "midi": 51,
            "name": "D#3",
            "ticks": 167040,
            "time": 188.10792,
            "velocity": 0.5354330708661418
          },
          {
            "duration": 0.05292787499999463,
            "durationTicks": 47,
            "midi": 51,
            "name": "D#3",
            "ticks": 167280,
            "time": 188.37819000000002,
            "velocity": 0.47244094488188976
          },
          {
            "duration": 0.07770262500000058,
            "durationTicks": 69,
            "midi": 44,
            "name": "G#2",
            "ticks": 167280,
            "time": 188.37819000000002,
            "velocity": 0.6929133858267716
          },
          {
            "duration": 0.03490987500001097,
            "durationTicks": 31,
            "midi": 51,
            "name": "D#3",
            "ticks": 167440,
            "time": 188.55837,
            "velocity": 0.4015748031496063
          },
          {
            "duration": 0.05180175000000986,
            "durationTicks": 46,
            "midi": 51,
            "name": "D#3",
            "ticks": 167520,
            "time": 188.64846,
            "velocity": 0.47244094488188976
          },
          {
            "duration": 0.06306299999999965,
            "durationTicks": 56,
            "midi": 51,
            "name": "D#3",
            "ticks": 167760,
            "time": 188.91873,
            "velocity": 0.6062992125984252
          },
          {
            "duration": 0.07207199999999148,
            "durationTicks": 64,
            "midi": 44,
            "name": "G#2",
            "ticks": 167760,
            "time": 188.91873,
            "velocity": 0.8818897637795275
          },
          {
            "duration": 0.05292787499999463,
            "durationTicks": 47,
            "midi": 51,
            "name": "D#3",
            "ticks": 167920,
            "time": 189.09891,
            "velocity": 0.5354330708661418
          },
          {
            "duration": 0.06193687499998646,
            "durationTicks": 55,
            "midi": 51,
            "name": "D#3",
            "ticks": 168000,
            "time": 189.18900000000002,
            "velocity": 0.47244094488188976
          },
          {
            "duration": 0.011261250000018208,
            "durationTicks": 10,
            "midi": 40,
            "name": "E2",
            "ticks": 168126,
            "time": 189.33089175,
            "velocity": 0.3543307086614173
          },
          {
            "duration": 0.06981974999999352,
            "durationTicks": 62,
            "midi": 44,
            "name": "G#2",
            "ticks": 168240,
            "time": 189.45927,
            "velocity": 0.6929133858267716
          },
          {
            "duration": 0.06418912499998441,
            "durationTicks": 57,
            "midi": 51,
            "name": "D#3",
            "ticks": 168240,
            "time": 189.45927,
            "velocity": 0.5354330708661418
          },
          {
            "duration": 0.048423374999998714,
            "durationTicks": 43,
            "midi": 51,
            "name": "D#3",
            "ticks": 168400,
            "time": 189.63945,
            "velocity": 0.5354330708661418
          },
          {
            "duration": 0.05743237499999054,
            "durationTicks": 51,
            "midi": 51,
            "name": "D#3",
            "ticks": 168480,
            "time": 189.72954000000001,
            "velocity": 0.47244094488188976
          },
          {
            "duration": 0.011261249999989786,
            "durationTicks": 10,
            "midi": 40,
            "name": "E2",
            "ticks": 168480,
            "time": 189.72954000000001,
            "velocity": 0.31496062992125984
          },
          {
            "duration": 0.011261250000018208,
            "durationTicks": 10,
            "midi": 40,
            "name": "E2",
            "ticks": 168520,
            "time": 189.774585,
            "velocity": 0.23622047244094488
          },
          {
            "duration": 0.011261249999989786,
            "durationTicks": 10,
            "midi": 40,
            "name": "E2",
            "ticks": 168560,
            "time": 189.81963000000002,
            "velocity": 0.23622047244094488
          },
          {
            "duration": 0.011261249999989786,
            "durationTicks": 10,
            "midi": 40,
            "name": "E2",
            "ticks": 168592,
            "time": 189.855666,
            "velocity": 0.4094488188976378
          },
          {
            "duration": 0.011261249999989786,
            "durationTicks": 10,
            "midi": 40,
            "name": "E2",
            "ticks": 168600,
            "time": 189.864675,
            "velocity": 0.25196850393700787
          },
          {
            "duration": 0.06981975000002194,
            "durationTicks": 62,
            "midi": 44,
            "name": "G#2",
            "ticks": 168720,
            "time": 189.99981,
            "velocity": 0.8818897637795275
          },
          {
            "duration": 0.0439188750000028,
            "durationTicks": 39,
            "midi": 51,
            "name": "D#3",
            "ticks": 168720,
            "time": 189.99981,
            "velocity": 0.47244094488188976
          },
          {
            "duration": 0.011261249999989786,
            "durationTicks": 10,
            "midi": 49,
            "name": "C#3",
            "ticks": 168840,
            "time": 190.13494500000002,
            "velocity": 0.5039370078740157
          },
          {
            "duration": 0.07770262500000058,
            "durationTicks": 69,
            "midi": 44,
            "name": "G#2",
            "ticks": 169200,
            "time": 190.54035000000002,
            "velocity": 0.6929133858267716
          },
          {
            "duration": 0.05292787499999463,
            "durationTicks": 47,
            "midi": 51,
            "name": "D#3",
            "ticks": 169200,
            "time": 190.54035000000002,
            "velocity": 0.47244094488188976
          },
          {
            "duration": 0.03490987500001097,
            "durationTicks": 31,
            "midi": 51,
            "name": "D#3",
            "ticks": 169360,
            "time": 190.72053,
            "velocity": 0.4015748031496063
          },
          {
            "duration": 0.05180175000000986,
            "durationTicks": 46,
            "midi": 51,
            "name": "D#3",
            "ticks": 169440,
            "time": 190.81062,
            "velocity": 0.47244094488188976
          },
          {
            "duration": 0.06306299999999965,
            "durationTicks": 56,
            "midi": 51,
            "name": "D#3",
            "ticks": 169680,
            "time": 191.08089,
            "velocity": 0.6062992125984252
          },
          {
            "duration": 0.07207199999999148,
            "durationTicks": 64,
            "midi": 44,
            "name": "G#2",
            "ticks": 169680,
            "time": 191.08089,
            "velocity": 0.8818897637795275
          },
          {
            "duration": 0.05292787499999463,
            "durationTicks": 47,
            "midi": 51,
            "name": "D#3",
            "ticks": 169840,
            "time": 191.26107,
            "velocity": 0.5354330708661418
          },
          {
            "duration": 0.06193687500001488,
            "durationTicks": 55,
            "midi": 51,
            "name": "D#3",
            "ticks": 169920,
            "time": 191.35116,
            "velocity": 0.47244094488188976
          },
          {
            "duration": 0.06418912499998441,
            "durationTicks": 57,
            "midi": 51,
            "name": "D#3",
            "ticks": 170160,
            "time": 191.62143,
            "velocity": 0.5354330708661418
          },
          {
            "duration": 0.06981974999999352,
            "durationTicks": 62,
            "midi": 44,
            "name": "G#2",
            "ticks": 170160,
            "time": 191.62143,
            "velocity": 0.6929133858267716
          },
          {
            "duration": 0.048423374999998714,
            "durationTicks": 43,
            "midi": 51,
            "name": "D#3",
            "ticks": 170320,
            "time": 191.80161,
            "velocity": 0.5354330708661418
          },
          {
            "duration": 0.05743237499999054,
            "durationTicks": 51,
            "midi": 51,
            "name": "D#3",
            "ticks": 170400,
            "time": 191.89170000000001,
            "velocity": 0.47244094488188976
          },
          {
            "duration": 0.011261249999989786,
            "durationTicks": 10,
            "midi": 40,
            "name": "E2",
            "ticks": 170400,
            "time": 191.89170000000001,
            "velocity": 0.3700787401574803
          },
          {
            "duration": 0.011261250000018208,
            "durationTicks": 10,
            "midi": 40,
            "name": "E2",
            "ticks": 170440,
            "time": 191.936745,
            "velocity": 0.23622047244094488
          },
          {
            "duration": 0.011261249999989786,
            "durationTicks": 10,
            "midi": 40,
            "name": "E2",
            "ticks": 170480,
            "time": 191.98179000000002,
            "velocity": 0.1968503937007874
          },
          {
            "duration": 0.011261249999989786,
            "durationTicks": 10,
            "midi": 40,
            "name": "E2",
            "ticks": 170520,
            "time": 192.026835,
            "velocity": 0.15748031496062992
          },
          {
            "duration": 0.011261250000018208,
            "durationTicks": 10,
            "midi": 40,
            "name": "E2",
            "ticks": 170560,
            "time": 192.07188,
            "velocity": 0.23622047244094488
          },
          {
            "duration": 0.011261249999989786,
            "durationTicks": 10,
            "midi": 40,
            "name": "E2",
            "ticks": 170600,
            "time": 192.116925,
            "velocity": 0.25196850393700787
          },
          {
            "duration": 0.011261249999989786,
            "durationTicks": 10,
            "midi": 40,
            "name": "E2",
            "ticks": 170640,
            "time": 192.16197,
            "velocity": 0.25984251968503935
          },
          {
            "duration": 0.06981975000002194,
            "durationTicks": 62,
            "midi": 44,
            "name": "G#2",
            "ticks": 170640,
            "time": 192.16197,
            "velocity": 0.8818897637795275
          },
          {
            "duration": 0.0439188750000028,
            "durationTicks": 39,
            "midi": 51,
            "name": "D#3",
            "ticks": 170640,
            "time": 192.16197,
            "velocity": 0.47244094488188976
          },
          {
            "duration": 0.011261249999989786,
            "durationTicks": 10,
            "midi": 49,
            "name": "C#3",
            "ticks": 170760,
            "time": 192.29710500000002,
            "velocity": 0.5039370078740157
          },
          {
            "duration": 0.07770262500000058,
            "durationTicks": 69,
            "midi": 44,
            "name": "G#2",
            "ticks": 171120,
            "time": 192.70251000000002,
            "velocity": 0.6929133858267716
          },
          {
            "duration": 0.05292787499999463,
            "durationTicks": 47,
            "midi": 51,
            "name": "D#3",
            "ticks": 171120,
            "time": 192.70251000000002,
            "velocity": 0.47244094488188976
          },
          {
            "duration": 0.03490987500001097,
            "durationTicks": 31,
            "midi": 51,
            "name": "D#3",
            "ticks": 171280,
            "time": 192.88269,
            "velocity": 0.4015748031496063
          },
          {
            "duration": 0.05180175000000986,
            "durationTicks": 46,
            "midi": 51,
            "name": "D#3",
            "ticks": 171360,
            "time": 192.97278,
            "velocity": 0.47244094488188976
          },
          {
            "duration": 0.06306299999999965,
            "durationTicks": 56,
            "midi": 51,
            "name": "D#3",
            "ticks": 171600,
            "time": 193.24305,
            "velocity": 0.6062992125984252
          },
          {
            "duration": 0.07207199999999148,
            "durationTicks": 64,
            "midi": 44,
            "name": "G#2",
            "ticks": 171600,
            "time": 193.24305,
            "velocity": 0.8818897637795275
          },
          {
            "duration": 0.05292787499999463,
            "durationTicks": 47,
            "midi": 51,
            "name": "D#3",
            "ticks": 171760,
            "time": 193.42323,
            "velocity": 0.5354330708661418
          },
          {
            "duration": 0.06193687499998646,
            "durationTicks": 55,
            "midi": 51,
            "name": "D#3",
            "ticks": 171840,
            "time": 193.51332000000002,
            "velocity": 0.47244094488188976
          },
          {
            "duration": 0.06418912499998441,
            "durationTicks": 57,
            "midi": 51,
            "name": "D#3",
            "ticks": 172080,
            "time": 193.78359,
            "velocity": 0.5354330708661418
          },
          {
            "duration": 0.06981974999999352,
            "durationTicks": 62,
            "midi": 44,
            "name": "G#2",
            "ticks": 172080,
            "time": 193.78359,
            "velocity": 0.6929133858267716
          },
          {
            "duration": 0.048423374999998714,
            "durationTicks": 43,
            "midi": 51,
            "name": "D#3",
            "ticks": 172240,
            "time": 193.96377,
            "velocity": 0.5354330708661418
          },
          {
            "duration": 0.05743237499999054,
            "durationTicks": 51,
            "midi": 51,
            "name": "D#3",
            "ticks": 172320,
            "time": 194.05386000000001,
            "velocity": 0.47244094488188976
          },
          {
            "duration": 0.0439188750000028,
            "durationTicks": 39,
            "midi": 51,
            "name": "D#3",
            "ticks": 172560,
            "time": 194.32413,
            "velocity": 0.47244094488188976
          },
          {
            "duration": 0.06981975000002194,
            "durationTicks": 62,
            "midi": 44,
            "name": "G#2",
            "ticks": 172560,
            "time": 194.32413,
            "velocity": 0.8818897637795275
          },
          {
            "duration": 0.0439188750000028,
            "durationTicks": 39,
            "midi": 51,
            "name": "D#3",
            "ticks": 172720,
            "time": 194.50431,
            "velocity": 0.5354330708661418
          },
          {
            "duration": 0.04617112500000076,
            "durationTicks": 41,
            "midi": 51,
            "name": "D#3",
            "ticks": 172800,
            "time": 194.5944,
            "velocity": 0.5354330708661418
          },
          {
            "duration": 0.011261249999989786,
            "durationTicks": 10,
            "midi": 40,
            "name": "E2",
            "ticks": 172804,
            "time": 194.5989045,
            "velocity": 0.9133858267716536
          },
          {
            "duration": 0.07770262500000058,
            "durationTicks": 69,
            "midi": 44,
            "name": "G#2",
            "ticks": 173040,
            "time": 194.86467000000002,
            "velocity": 0.6929133858267716
          },
          {
            "duration": 0.011261250000018208,
            "durationTicks": 10,
            "midi": 40,
            "name": "E2",
            "ticks": 173050,
            "time": 194.87593125,
            "velocity": 0.5118110236220472
          },
          {
            "duration": 0.011261250000018208,
            "durationTicks": 10,
            "midi": 40,
            "name": "E2",
            "ticks": 173200,
            "time": 195.04485,
            "velocity": 0.5590551181102362
          },
          {
            "duration": 0.011261250000018208,
            "durationTicks": 10,
            "midi": 40,
            "name": "E2",
            "ticks": 173288,
            "time": 195.143949,
            "velocity": 1
          },
          {
            "duration": 0.011261249999989786,
            "durationTicks": 10,
            "midi": 49,
            "name": "C#3",
            "ticks": 173400,
            "time": 195.27007500000002,
            "velocity": 0.5039370078740157
          },
          {
            "duration": 0.06644137499998237,
            "durationTicks": 59,
            "midi": 46,
            "name": "A#2",
            "ticks": 173450,
            "time": 195.32638125000003,
            "velocity": 0.7952755905511811
          },
          {
            "duration": 0.06081075000000169,
            "durationTicks": 54,
            "midi": 42,
            "name": "F#2",
            "ticks": 173577,
            "time": 195.469399125,
            "velocity": 0.47244094488188976
          },
          {
            "duration": 0.01126125000004663,
            "durationTicks": 10,
            "midi": 57,
            "name": "A3",
            "ticks": 173740,
            "time": 195.65295749999999,
            "velocity": 0.6062992125984252
          },
          {
            "duration": 0.09459450000002789,
            "durationTicks": 84,
            "midi": 46,
            "name": "A#2",
            "ticks": 173760,
            "time": 195.67548,
            "velocity": 0.905511811023622
          },
          {
            "duration": 0.09234225000000151,
            "durationTicks": 82,
            "midi": 42,
            "name": "F#2",
            "ticks": 173860,
            "time": 195.7880925,
            "velocity": 0.47244094488188976
          },
          {
            "duration": 0.011261249999989786,
            "durationTicks": 10,
            "midi": 50,
            "name": "D3",
            "ticks": 174240,
            "time": 196.21602000000001,
            "velocity": 0.3937007874015748
          },
          {
            "duration": 0.011261249999989786,
            "durationTicks": 10,
            "midi": 47,
            "name": "B2",
            "ticks": 174420,
            "time": 196.4187225,
            "velocity": 0.3937007874015748
          },
          {
            "duration": 0.011261249999989786,
            "durationTicks": 10,
            "midi": 45,
            "name": "A2",
            "ticks": 174480,
            "time": 196.48629,
            "velocity": 0.3937007874015748
          },
          {
            "duration": 0.04617112500000076,
            "durationTicks": 41,
            "midi": 51,
            "name": "D#3",
            "ticks": 174720,
            "time": 196.75656,
            "velocity": 0.5354330708661418
          },
          {
            "duration": 0.05292787499999463,
            "durationTicks": 47,
            "midi": 51,
            "name": "D#3",
            "ticks": 174960,
            "time": 197.02683000000002,
            "velocity": 0.47244094488188976
          },
          {
            "duration": 0.07770262500000058,
            "durationTicks": 69,
            "midi": 44,
            "name": "G#2",
            "ticks": 174960,
            "time": 197.02683000000002,
            "velocity": 0.6929133858267716
          },
          {
            "duration": 0.03490987500001097,
            "durationTicks": 31,
            "midi": 51,
            "name": "D#3",
            "ticks": 175120,
            "time": 197.20701,
            "velocity": 0.4015748031496063
          },
          {
            "duration": 0.05180175000000986,
            "durationTicks": 46,
            "midi": 51,
            "name": "D#3",
            "ticks": 175200,
            "time": 197.2971,
            "velocity": 0.47244094488188976
          },
          {
            "duration": 0.06306299999999965,
            "durationTicks": 56,
            "midi": 51,
            "name": "D#3",
            "ticks": 175440,
            "time": 197.56737,
            "velocity": 0.6062992125984252
          },
          {
            "duration": 0.07207199999999148,
            "durationTicks": 64,
            "midi": 44,
            "name": "G#2",
            "ticks": 175440,
            "time": 197.56737,
            "velocity": 0.8818897637795275
          },
          {
            "duration": 0.05292787499999463,
            "durationTicks": 47,
            "midi": 51,
            "name": "D#3",
            "ticks": 175600,
            "time": 197.74755,
            "velocity": 0.5354330708661418
          },
          {
            "duration": 0.06193687499998646,
            "durationTicks": 55,
            "midi": 51,
            "name": "D#3",
            "ticks": 175680,
            "time": 197.83764000000002,
            "velocity": 0.47244094488188976
          },
          {
            "duration": 0.06418912499998441,
            "durationTicks": 57,
            "midi": 51,
            "name": "D#3",
            "ticks": 175920,
            "time": 198.10791,
            "velocity": 0.5354330708661418
          },
          {
            "duration": 0.06981974999999352,
            "durationTicks": 62,
            "midi": 44,
            "name": "G#2",
            "ticks": 175920,
            "time": 198.10791,
            "velocity": 0.6929133858267716
          },
          {
            "duration": 0.048423374999998714,
            "durationTicks": 43,
            "midi": 51,
            "name": "D#3",
            "ticks": 176080,
            "time": 198.28809,
            "velocity": 0.5354330708661418
          },
          {
            "duration": 0.05743237499999054,
            "durationTicks": 51,
            "midi": 51,
            "name": "D#3",
            "ticks": 176160,
            "time": 198.37818000000001,
            "velocity": 0.47244094488188976
          },
          {
            "duration": 0.0439188750000028,
            "durationTicks": 39,
            "midi": 51,
            "name": "D#3",
            "ticks": 176400,
            "time": 198.64845,
            "velocity": 0.47244094488188976
          },
          {
            "duration": 0.06981975000002194,
            "durationTicks": 62,
            "midi": 44,
            "name": "G#2",
            "ticks": 176400,
            "time": 198.64845,
            "velocity": 0.8818897637795275
          },
          {
            "duration": 0.0439188750000028,
            "durationTicks": 39,
            "midi": 51,
            "name": "D#3",
            "ticks": 176560,
            "time": 198.82863,
            "velocity": 0.5354330708661418
          },
          {
            "duration": 0.04617112500000076,
            "durationTicks": 41,
            "midi": 51,
            "name": "D#3",
            "ticks": 176640,
            "time": 198.91872,
            "velocity": 0.5354330708661418
          },
          {
            "duration": 0.05292787499999463,
            "durationTicks": 47,
            "midi": 51,
            "name": "D#3",
            "ticks": 176880,
            "time": 199.18899000000002,
            "velocity": 0.47244094488188976
          },
          {
            "duration": 0.07770262500000058,
            "durationTicks": 69,
            "midi": 44,
            "name": "G#2",
            "ticks": 176880,
            "time": 199.18899000000002,
            "velocity": 0.6929133858267716
          },
          {
            "duration": 0.03490987500001097,
            "durationTicks": 31,
            "midi": 51,
            "name": "D#3",
            "ticks": 177040,
            "time": 199.36917,
            "velocity": 0.4015748031496063
          },
          {
            "duration": 0.05180175000000986,
            "durationTicks": 46,
            "midi": 51,
            "name": "D#3",
            "ticks": 177120,
            "time": 199.45926,
            "velocity": 0.47244094488188976
          },
          {
            "duration": 0.06306299999999965,
            "durationTicks": 56,
            "midi": 51,
            "name": "D#3",
            "ticks": 177360,
            "time": 199.72953,
            "velocity": 0.6062992125984252
          },
          {
            "duration": 0.07207199999999148,
            "durationTicks": 64,
            "midi": 44,
            "name": "G#2",
            "ticks": 177360,
            "time": 199.72953,
            "velocity": 0.8818897637795275
          },
          {
            "duration": 0.05292787499999463,
            "durationTicks": 47,
            "midi": 51,
            "name": "D#3",
            "ticks": 177520,
            "time": 199.90971,
            "velocity": 0.5354330708661418
          },
          {
            "duration": 0.06193687500001488,
            "durationTicks": 55,
            "midi": 51,
            "name": "D#3",
            "ticks": 177600,
            "time": 199.9998,
            "velocity": 0.47244094488188976
          },
          {
            "duration": 0.06418912499998441,
            "durationTicks": 57,
            "midi": 51,
            "name": "D#3",
            "ticks": 177840,
            "time": 200.27007,
            "velocity": 0.5354330708661418
          },
          {
            "duration": 0.06981974999999352,
            "durationTicks": 62,
            "midi": 44,
            "name": "G#2",
            "ticks": 177840,
            "time": 200.27007,
            "velocity": 0.6929133858267716
          },
          {
            "duration": 0.048423374999998714,
            "durationTicks": 43,
            "midi": 51,
            "name": "D#3",
            "ticks": 178000,
            "time": 200.45025,
            "velocity": 0.5354330708661418
          },
          {
            "duration": 0.05743237499999054,
            "durationTicks": 51,
            "midi": 51,
            "name": "D#3",
            "ticks": 178080,
            "time": 200.54034000000001,
            "velocity": 0.47244094488188976
          },
          {
            "duration": 0.0439188750000028,
            "durationTicks": 39,
            "midi": 51,
            "name": "D#3",
            "ticks": 178320,
            "time": 200.81061,
            "velocity": 0.47244094488188976
          },
          {
            "duration": 0.06981975000002194,
            "durationTicks": 62,
            "midi": 44,
            "name": "G#2",
            "ticks": 178320,
            "time": 200.81061,
            "velocity": 0.8818897637795275
          },
          {
            "duration": 0.011261250000018208,
            "durationTicks": 10,
            "midi": 40,
            "name": "E2",
            "ticks": 178480,
            "time": 200.99079,
            "velocity": 0.15748031496062992
          },
          {
            "duration": 0.011261249999989786,
            "durationTicks": 10,
            "midi": 40,
            "name": "E2",
            "ticks": 178520,
            "time": 201.03583500000002,
            "velocity": 0.23622047244094488
          },
          {
            "duration": 0.011261249999989786,
            "durationTicks": 10,
            "midi": 40,
            "name": "E2",
            "ticks": 178560,
            "time": 201.08088,
            "velocity": 0.8818897637795275
          },
          {
            "duration": 0.011261250000018208,
            "durationTicks": 10,
            "midi": 40,
            "name": "E2",
            "ticks": 178720,
            "time": 201.26106,
            "velocity": 0.15748031496062992
          },
          {
            "duration": 0.011261249999989786,
            "durationTicks": 10,
            "midi": 40,
            "name": "E2",
            "ticks": 178760,
            "time": 201.30610500000003,
            "velocity": 0.23622047244094488
          },
          {
            "duration": 0.011261249999989786,
            "durationTicks": 10,
            "midi": 40,
            "name": "E2",
            "ticks": 178800,
            "time": 201.35115000000002,
            "velocity": 0.8818897637795275
          },
          {
            "duration": 0.07770262500000058,
            "durationTicks": 69,
            "midi": 44,
            "name": "G#2",
            "ticks": 178800,
            "time": 201.35115000000002,
            "velocity": 0.6929133858267716
          },
          {
            "duration": 0.07770262500000058,
            "durationTicks": 69,
            "midi": 44,
            "name": "G#2",
            "ticks": 179040,
            "time": 201.62142,
            "velocity": 0.6062992125984252
          },
          {
            "duration": 0.011261249999989786,
            "durationTicks": 10,
            "midi": 40,
            "name": "E2",
            "ticks": 179040,
            "time": 201.62142,
            "velocity": 0.15748031496062992
          },
          {
            "duration": 0.011261249999989786,
            "durationTicks": 10,
            "midi": 40,
            "name": "E2",
            "ticks": 179120,
            "time": 201.71151,
            "velocity": 0.23622047244094488
          },
          {
            "duration": 0.011261250000018208,
            "durationTicks": 10,
            "midi": 40,
            "name": "E2",
            "ticks": 179200,
            "time": 201.8016,
            "velocity": 0.31496062992125984
          },
          {
            "duration": 0.011261249999989786,
            "durationTicks": 10,
            "midi": 40,
            "name": "E2",
            "ticks": 179280,
            "time": 201.89169,
            "velocity": 0.4881889763779528
          },
          {
            "duration": 0.07207199999999148,
            "durationTicks": 64,
            "midi": 44,
            "name": "G#2",
            "ticks": 179280,
            "time": 201.89169,
            "velocity": 0.6929133858267716
          },
          {
            "duration": 0.011261249999989786,
            "durationTicks": 10,
            "midi": 40,
            "name": "E2",
            "ticks": 179360,
            "time": 201.98178000000001,
            "velocity": 0.6299212598425197
          },
          {
            "duration": 0.011261250000018208,
            "durationTicks": 10,
            "midi": 40,
            "name": "E2",
            "ticks": 179440,
            "time": 202.07187,
            "velocity": 0.7559055118110236
          },
          {
            "duration": 0.011261249999961365,
            "durationTicks": 10,
            "midi": 40,
            "name": "E2",
            "ticks": 179520,
            "time": 202.16196000000002,
            "velocity": 0.9448818897637795
          },
          {
            "duration": 0.06981974999999352,
            "durationTicks": 62,
            "midi": 44,
            "name": "G#2",
            "ticks": 179760,
            "time": 202.43223,
            "velocity": 0.6062992125984252
          },
          {
            "duration": 0.06981974999999352,
            "durationTicks": 62,
            "midi": 44,
            "name": "G#2",
            "ticks": 180000,
            "time": 202.70250000000001,
            "velocity": 0.6929133858267716
          },
          {
            "duration": 0.011261249999989786,
            "durationTicks": 10,
            "midi": 49,
            "name": "C#3",
            "ticks": 180000,
            "time": 202.70250000000001,
            "velocity": 0.31496062992125984
          },
          {
            "duration": 0.011261249999989786,
            "durationTicks": 10,
            "midi": 40,
            "name": "E2",
            "ticks": 180240,
            "time": 202.97277,
            "velocity": 0.6929133858267716
          },
          {
            "duration": 0.06981975000002194,
            "durationTicks": 62,
            "midi": 44,
            "name": "G#2",
            "ticks": 180240,
            "time": 202.97277,
            "velocity": 0.6929133858267716
          },
          {
            "duration": 0.011261249999989786,
            "durationTicks": 10,
            "midi": 57,
            "name": "A3",
            "ticks": 180360,
            "time": 203.10790500000002,
            "velocity": 0.5039370078740157
          },
          {
            "duration": 0.05292787499999463,
            "durationTicks": 47,
            "midi": 51,
            "name": "D#3",
            "ticks": 180720,
            "time": 203.51331000000002,
            "velocity": 0.47244094488188976
          },
          {
            "duration": 0.07770262500000058,
            "durationTicks": 69,
            "midi": 44,
            "name": "G#2",
            "ticks": 180720,
            "time": 203.51331000000002,
            "velocity": 0.6929133858267716
          },
          {
            "duration": 0.03490987500001097,
            "durationTicks": 31,
            "midi": 51,
            "name": "D#3",
            "ticks": 180880,
            "time": 203.69349,
            "velocity": 0.4015748031496063
          },
          {
            "duration": 0.05180175000000986,
            "durationTicks": 46,
            "midi": 51,
            "name": "D#3",
            "ticks": 180960,
            "time": 203.78358,
            "velocity": 0.47244094488188976
          },
          {
            "duration": 0.01126125000004663,
            "durationTicks": 10,
            "midi": 40,
            "name": "E2",
            "ticks": 181056,
            "time": 203.891688,
            "velocity": 0.15748031496062992
          },
          {
            "duration": 0.011261249999989786,
            "durationTicks": 10,
            "midi": 40,
            "name": "E2",
            "ticks": 181096,
            "time": 203.93673300000003,
            "velocity": 0.23622047244094488
          },
          {
            "duration": 0.011261249999989786,
            "durationTicks": 10,
            "midi": 40,
            "name": "E2",
            "ticks": 181136,
            "time": 203.98177800000002,
            "velocity": 0.5039370078740157
          },
          {
            "duration": 0.07207199999999148,
            "durationTicks": 64,
            "midi": 44,
            "name": "G#2",
            "ticks": 181200,
            "time": 204.05385,
            "velocity": 0.8818897637795275
          },
          {
            "duration": 0.06306299999999965,
            "durationTicks": 56,
            "midi": 51,
            "name": "D#3",
            "ticks": 181200,
            "time": 204.05385,
            "velocity": 0.6062992125984252
          },
          {
            "duration": 0.011261249999989786,
            "durationTicks": 10,
            "midi": 40,
            "name": "E2",
            "ticks": 181224,
            "time": 204.08087700000002,
            "velocity": 0.6062992125984252
          },
          {
            "duration": 0.011261249999989786,
            "durationTicks": 10,
            "midi": 40,
            "name": "E2",
            "ticks": 181338,
            "time": 204.20925525,
            "velocity": 0.6929133858267716
          },
          {
            "duration": 0.05292787499999463,
            "durationTicks": 47,
            "midi": 51,
            "name": "D#3",
            "ticks": 181360,
            "time": 204.23403,
            "velocity": 0.5354330708661418
          },
          {
            "duration": 0.06193687500001488,
            "durationTicks": 55,
            "midi": 51,
            "name": "D#3",
            "ticks": 181440,
            "time": 204.32412,
            "velocity": 0.47244094488188976
          },
          {
            "duration": 0.011261249999989786,
            "durationTicks": 10,
            "midi": 40,
            "name": "E2",
            "ticks": 181440,
            "time": 204.32412,
            "velocity": 0.7874015748031497
          },
          {
            "duration": 0.06981974999999352,
            "durationTicks": 62,
            "midi": 44,
            "name": "G#2",
            "ticks": 181680,
            "time": 204.59439,
            "velocity": 0.6929133858267716
          },
          {
            "duration": 0.06418912499998441,
            "durationTicks": 57,
            "midi": 51,
            "name": "D#3",
            "ticks": 181680,
            "time": 204.59439,
            "velocity": 0.5354330708661418
          },
          {
            "duration": 0.011261250000018208,
            "durationTicks": 10,
            "midi": 49,
            "name": "C#3",
            "ticks": 181690,
            "time": 204.60565125,
            "velocity": 0.6062992125984252
          },
          {
            "duration": 0.048423374999998714,
            "durationTicks": 43,
            "midi": 51,
            "name": "D#3",
            "ticks": 181840,
            "time": 204.77457,
            "velocity": 0.5354330708661418
          },
          {
            "duration": 0.05743237499999054,
            "durationTicks": 51,
            "midi": 51,
            "name": "D#3",
            "ticks": 181920,
            "time": 204.86466000000001,
            "velocity": 0.47244094488188976
          },
          {
            "duration": 0.011261249999989786,
            "durationTicks": 10,
            "midi": 50,
            "name": "D3",
            "ticks": 181927,
            "time": 204.87254287500002,
            "velocity": 0.6929133858267716
          },
          {
            "duration": 0.011261249999989786,
            "durationTicks": 10,
            "midi": 50,
            "name": "D3",
            "ticks": 181980,
            "time": 204.9322275,
            "velocity": 0.47244094488188976
          },
          {
            "duration": 0.011261249999989786,
            "durationTicks": 10,
            "midi": 50,
            "name": "D3",
            "ticks": 182049,
            "time": 205.009930125,
            "velocity": 0.3937007874015748
          },
          {
            "duration": 0.011261250000018208,
            "durationTicks": 10,
            "midi": 50,
            "name": "D3",
            "ticks": 182112,
            "time": 205.080876,
            "velocity": 0.31496062992125984
          },
          {
            "duration": 0.06981975000002194,
            "durationTicks": 62,
            "midi": 44,
            "name": "G#2",
            "ticks": 182160,
            "time": 205.13493,
            "velocity": 0.8818897637795275
          },
          {
            "duration": 0.0439188750000028,
            "durationTicks": 39,
            "midi": 51,
            "name": "D#3",
            "ticks": 182160,
            "time": 205.13493,
            "velocity": 0.47244094488188976
          },
          {
            "duration": 0.011261250000018208,
            "durationTicks": 10,
            "midi": 47,
            "name": "B2",
            "ticks": 182172,
            "time": 205.14844349999998,
            "velocity": 0.5039370078740157
          },
          {
            "duration": 0.01126125000004663,
            "durationTicks": 10,
            "midi": 47,
            "name": "B2",
            "ticks": 182219,
            "time": 205.20137137499998,
            "velocity": 0.3937007874015748
          },
          {
            "duration": 0.011261249999989786,
            "durationTicks": 10,
            "midi": 47,
            "name": "B2",
            "ticks": 182274,
            "time": 205.26330825000002,
            "velocity": 0.31496062992125984
          },
          {
            "duration": 0.0439188750000028,
            "durationTicks": 39,
            "midi": 51,
            "name": "D#3",
            "ticks": 182320,
            "time": 205.31511,
            "velocity": 0.5354330708661418
          },
          {
            "duration": 0.011261249999989786,
            "durationTicks": 10,
            "midi": 47,
            "name": "B2",
            "ticks": 182336,
            "time": 205.33312800000002,
            "velocity": 0.2755905511811024
          },
          {
            "duration": 0.011261249999989786,
            "durationTicks": 10,
            "midi": 57,
            "name": "A3",
            "ticks": 182400,
            "time": 205.4052,
            "velocity": 0.6062992125984252
          },
          {
            "duration": 0.05292787499999463,
            "durationTicks": 47,
            "midi": 51,
            "name": "D#3",
            "ticks": 182640,
            "time": 205.67547000000002,
            "velocity": 0.47244094488188976
          },
          {
            "duration": 0.07770262500000058,
            "durationTicks": 69,
            "midi": 44,
            "name": "G#2",
            "ticks": 182640,
            "time": 205.67547000000002,
            "velocity": 0.6929133858267716
          },
          {
            "duration": 0.03490987500001097,
            "durationTicks": 31,
            "midi": 51,
            "name": "D#3",
            "ticks": 182800,
            "time": 205.85565,
            "velocity": 0.4015748031496063
          },
          {
            "duration": 0.05180175000000986,
            "durationTicks": 46,
            "midi": 51,
            "name": "D#3",
            "ticks": 182880,
            "time": 205.94574,
            "velocity": 0.47244094488188976
          },
          {
            "duration": 0.06306299999999965,
            "durationTicks": 56,
            "midi": 51,
            "name": "D#3",
            "ticks": 183120,
            "time": 206.21601,
            "velocity": 0.6062992125984252
          },
          {
            "duration": 0.07207199999999148,
            "durationTicks": 64,
            "midi": 44,
            "name": "G#2",
            "ticks": 183120,
            "time": 206.21601,
            "velocity": 0.8818897637795275
          },
          {
            "duration": 0.05292787499999463,
            "durationTicks": 47,
            "midi": 51,
            "name": "D#3",
            "ticks": 183280,
            "time": 206.39619,
            "velocity": 0.5354330708661418
          },
          {
            "duration": 0.06193687499998646,
            "durationTicks": 55,
            "midi": 51,
            "name": "D#3",
            "ticks": 183360,
            "time": 206.48628000000002,
            "velocity": 0.47244094488188976
          },
          {
            "duration": 0.06418912499998441,
            "durationTicks": 57,
            "midi": 51,
            "name": "D#3",
            "ticks": 183600,
            "time": 206.75655,
            "velocity": 0.5354330708661418
          },
          {
            "duration": 0.06981974999999352,
            "durationTicks": 62,
            "midi": 44,
            "name": "G#2",
            "ticks": 183600,
            "time": 206.75655,
            "velocity": 0.6929133858267716
          },
          {
            "duration": 0.048423374999998714,
            "durationTicks": 43,
            "midi": 51,
            "name": "D#3",
            "ticks": 183760,
            "time": 206.93673,
            "velocity": 0.5354330708661418
          },
          {
            "duration": 0.05743237499999054,
            "durationTicks": 51,
            "midi": 51,
            "name": "D#3",
            "ticks": 183840,
            "time": 207.02682000000001,
            "velocity": 0.47244094488188976
          },
          {
            "duration": 0.0439188750000028,
            "durationTicks": 39,
            "midi": 51,
            "name": "D#3",
            "ticks": 184080,
            "time": 207.29709,
            "velocity": 0.47244094488188976
          },
          {
            "duration": 0.06981975000002194,
            "durationTicks": 62,
            "midi": 44,
            "name": "G#2",
            "ticks": 184080,
            "time": 207.29709,
            "velocity": 0.8818897637795275
          },
          {
            "duration": 0.0439188750000028,
            "durationTicks": 39,
            "midi": 51,
            "name": "D#3",
            "ticks": 184240,
            "time": 207.47727,
            "velocity": 0.5354330708661418
          },
          {
            "duration": 0.04617112500000076,
            "durationTicks": 41,
            "midi": 51,
            "name": "D#3",
            "ticks": 184320,
            "time": 207.56736,
            "velocity": 0.5354330708661418
          },
          {
            "duration": 0.05292787499999463,
            "durationTicks": 47,
            "midi": 51,
            "name": "D#3",
            "ticks": 184560,
            "time": 207.83763000000002,
            "velocity": 0.47244094488188976
          },
          {
            "duration": 0.07770262500000058,
            "durationTicks": 69,
            "midi": 44,
            "name": "G#2",
            "ticks": 184560,
            "time": 207.83763000000002,
            "velocity": 0.6929133858267716
          },
          {
            "duration": 0.03490987500001097,
            "durationTicks": 31,
            "midi": 51,
            "name": "D#3",
            "ticks": 184720,
            "time": 208.01781,
            "velocity": 0.4015748031496063
          },
          {
            "duration": 0.05180175000000986,
            "durationTicks": 46,
            "midi": 51,
            "name": "D#3",
            "ticks": 184800,
            "time": 208.1079,
            "velocity": 0.47244094488188976
          },
          {
            "duration": 0.06306299999999965,
            "durationTicks": 56,
            "midi": 51,
            "name": "D#3",
            "ticks": 185040,
            "time": 208.37817,
            "velocity": 0.6062992125984252
          },
          {
            "duration": 0.07207199999999148,
            "durationTicks": 64,
            "midi": 44,
            "name": "G#2",
            "ticks": 185040,
            "time": 208.37817,
            "velocity": 0.8818897637795275
          },
          {
            "duration": 0.05292787499999463,
            "durationTicks": 47,
            "midi": 51,
            "name": "D#3",
            "ticks": 185200,
            "time": 208.55835,
            "velocity": 0.5354330708661418
          },
          {
            "duration": 0.06193687500001488,
            "durationTicks": 55,
            "midi": 51,
            "name": "D#3",
            "ticks": 185280,
            "time": 208.64844,
            "velocity": 0.47244094488188976
          },
          {
            "duration": 0.06418912499998441,
            "durationTicks": 57,
            "midi": 51,
            "name": "D#3",
            "ticks": 185520,
            "time": 208.91871,
            "velocity": 0.5354330708661418
          },
          {
            "duration": 0.06981974999999352,
            "durationTicks": 62,
            "midi": 44,
            "name": "G#2",
            "ticks": 185520,
            "time": 208.91871,
            "velocity": 0.6929133858267716
          },
          {
            "duration": 0.048423374999998714,
            "durationTicks": 43,
            "midi": 51,
            "name": "D#3",
            "ticks": 185680,
            "time": 209.09889,
            "velocity": 0.5354330708661418
          },
          {
            "duration": 0.05743237499999054,
            "durationTicks": 51,
            "midi": 51,
            "name": "D#3",
            "ticks": 185760,
            "time": 209.18898000000002,
            "velocity": 0.47244094488188976
          },
          {
            "duration": 0.06981974999999352,
            "durationTicks": 62,
            "midi": 46,
            "name": "A#2",
            "ticks": 185880,
            "time": 209.324115,
            "velocity": 0.7874015748031497
          },
          {
            "duration": 0.06981975000002194,
            "durationTicks": 62,
            "midi": 44,
            "name": "G#2",
            "ticks": 186000,
            "time": 209.45925,
            "velocity": 0.8818897637795275
          },
          {
            "duration": 0.0439188750000028,
            "durationTicks": 39,
            "midi": 51,
            "name": "D#3",
            "ticks": 186000,
            "time": 209.45925,
            "velocity": 0.47244094488188976
          },
          {
            "duration": 0.0439188750000028,
            "durationTicks": 39,
            "midi": 51,
            "name": "D#3",
            "ticks": 186160,
            "time": 209.63943,
            "velocity": 0.5354330708661418
          },
          {
            "duration": 0.04617112500000076,
            "durationTicks": 41,
            "midi": 51,
            "name": "D#3",
            "ticks": 186240,
            "time": 209.72952,
            "velocity": 0.5354330708661418
          },
          {
            "duration": 0.05292787499999463,
            "durationTicks": 47,
            "midi": 51,
            "name": "D#3",
            "ticks": 186480,
            "time": 209.99979000000002,
            "velocity": 0.47244094488188976
          },
          {
            "duration": 0.07770262500000058,
            "durationTicks": 69,
            "midi": 44,
            "name": "G#2",
            "ticks": 186480,
            "time": 209.99979000000002,
            "velocity": 0.6929133858267716
          },
          {
            "duration": 0.03490987500001097,
            "durationTicks": 31,
            "midi": 51,
            "name": "D#3",
            "ticks": 186640,
            "time": 210.17997,
            "velocity": 0.4015748031496063
          },
          {
            "duration": 0.05180175000000986,
            "durationTicks": 46,
            "midi": 51,
            "name": "D#3",
            "ticks": 186720,
            "time": 210.27006,
            "velocity": 0.47244094488188976
          },
          {
            "duration": 0.06306299999999965,
            "durationTicks": 56,
            "midi": 51,
            "name": "D#3",
            "ticks": 186960,
            "time": 210.54033,
            "velocity": 0.6062992125984252
          },
          {
            "duration": 0.07207199999999148,
            "durationTicks": 64,
            "midi": 44,
            "name": "G#2",
            "ticks": 186960,
            "time": 210.54033,
            "velocity": 0.8818897637795275
          },
          {
            "duration": 0.05292787499999463,
            "durationTicks": 47,
            "midi": 51,
            "name": "D#3",
            "ticks": 187120,
            "time": 210.72051,
            "velocity": 0.5354330708661418
          },
          {
            "duration": 0.06193687499998646,
            "durationTicks": 55,
            "midi": 51,
            "name": "D#3",
            "ticks": 187200,
            "time": 210.81060000000002,
            "velocity": 0.47244094488188976
          },
          {
            "duration": 0.06418912499998441,
            "durationTicks": 57,
            "midi": 51,
            "name": "D#3",
            "ticks": 187440,
            "time": 211.08087,
            "velocity": 0.5354330708661418
          },
          {
            "duration": 0.06981974999999352,
            "durationTicks": 62,
            "midi": 44,
            "name": "G#2",
            "ticks": 187440,
            "time": 211.08087,
            "velocity": 0.6929133858267716
          },
          {
            "duration": 0.048423374999998714,
            "durationTicks": 43,
            "midi": 51,
            "name": "D#3",
            "ticks": 187600,
            "time": 211.26105,
            "velocity": 0.5354330708661418
          },
          {
            "duration": 0.05743237499999054,
            "durationTicks": 51,
            "midi": 51,
            "name": "D#3",
            "ticks": 187680,
            "time": 211.35114000000002,
            "velocity": 0.47244094488188976
          },
          {
            "duration": 0.0439188750000028,
            "durationTicks": 39,
            "midi": 51,
            "name": "D#3",
            "ticks": 187920,
            "time": 211.62141,
            "velocity": 0.47244094488188976
          },
          {
            "duration": 0.06981975000002194,
            "durationTicks": 62,
            "midi": 44,
            "name": "G#2",
            "ticks": 187920,
            "time": 211.62141,
            "velocity": 0.8818897637795275
          },
          {
            "duration": 0.0439188750000028,
            "durationTicks": 39,
            "midi": 51,
            "name": "D#3",
            "ticks": 188080,
            "time": 211.80159,
            "velocity": 0.5354330708661418
          },
          {
            "duration": 0.04617112500000076,
            "durationTicks": 41,
            "midi": 51,
            "name": "D#3",
            "ticks": 188160,
            "time": 211.89168,
            "velocity": 0.5354330708661418
          },
          {
            "duration": 0.05292787499999463,
            "durationTicks": 47,
            "midi": 51,
            "name": "D#3",
            "ticks": 188400,
            "time": 212.16195000000002,
            "velocity": 0.47244094488188976
          },
          {
            "duration": 0.07770262500000058,
            "durationTicks": 69,
            "midi": 44,
            "name": "G#2",
            "ticks": 188400,
            "time": 212.16195000000002,
            "velocity": 0.6929133858267716
          },
          {
            "duration": 0.03490987500001097,
            "durationTicks": 31,
            "midi": 51,
            "name": "D#3",
            "ticks": 188560,
            "time": 212.34213,
            "velocity": 0.4015748031496063
          },
          {
            "duration": 0.05180175000000986,
            "durationTicks": 46,
            "midi": 51,
            "name": "D#3",
            "ticks": 188640,
            "time": 212.43222,
            "velocity": 0.47244094488188976
          },
          {
            "duration": 0.06306299999999965,
            "durationTicks": 56,
            "midi": 51,
            "name": "D#3",
            "ticks": 188880,
            "time": 212.70249,
            "velocity": 0.6062992125984252
          },
          {
            "duration": 0.07207199999999148,
            "durationTicks": 64,
            "midi": 44,
            "name": "G#2",
            "ticks": 188880,
            "time": 212.70249,
            "velocity": 0.8818897637795275
          },
          {
            "duration": 0.05292787499999463,
            "durationTicks": 47,
            "midi": 51,
            "name": "D#3",
            "ticks": 189040,
            "time": 212.88267,
            "velocity": 0.5354330708661418
          },
          {
            "duration": 0.06193687500001488,
            "durationTicks": 55,
            "midi": 51,
            "name": "D#3",
            "ticks": 189120,
            "time": 212.97276,
            "velocity": 0.47244094488188976
          },
          {
            "duration": 0.06418912499998441,
            "durationTicks": 57,
            "midi": 51,
            "name": "D#3",
            "ticks": 189360,
            "time": 213.24303,
            "velocity": 0.5354330708661418
          },
          {
            "duration": 0.06981974999999352,
            "durationTicks": 62,
            "midi": 44,
            "name": "G#2",
            "ticks": 189360,
            "time": 213.24303,
            "velocity": 0.6929133858267716
          },
          {
            "duration": 0.048423374999998714,
            "durationTicks": 43,
            "midi": 51,
            "name": "D#3",
            "ticks": 189520,
            "time": 213.42321,
            "velocity": 0.5354330708661418
          },
          {
            "duration": 0.05743237499999054,
            "durationTicks": 51,
            "midi": 51,
            "name": "D#3",
            "ticks": 189600,
            "time": 213.51330000000002,
            "velocity": 0.47244094488188976
          },
          {
            "duration": 0.0439188750000028,
            "durationTicks": 39,
            "midi": 51,
            "name": "D#3",
            "ticks": 189840,
            "time": 213.78357,
            "velocity": 0.47244094488188976
          },
          {
            "duration": 0.06981975000002194,
            "durationTicks": 62,
            "midi": 44,
            "name": "G#2",
            "ticks": 189840,
            "time": 213.78357,
            "velocity": 0.8818897637795275
          },
          {
            "duration": 0.0439188750000028,
            "durationTicks": 39,
            "midi": 51,
            "name": "D#3",
            "ticks": 190000,
            "time": 213.96375,
            "velocity": 0.5354330708661418
          },
          {
            "duration": 0.04617112500000076,
            "durationTicks": 41,
            "midi": 51,
            "name": "D#3",
            "ticks": 190080,
            "time": 214.05384,
            "velocity": 0.5354330708661418
          },
          {
            "duration": 0.05292787499999463,
            "durationTicks": 47,
            "midi": 51,
            "name": "D#3",
            "ticks": 190320,
            "time": 214.32411000000002,
            "velocity": 0.47244094488188976
          },
          {
            "duration": 0.07770262500000058,
            "durationTicks": 69,
            "midi": 44,
            "name": "G#2",
            "ticks": 190320,
            "time": 214.32411000000002,
            "velocity": 0.6929133858267716
          },
          {
            "duration": 0.03490987500001097,
            "durationTicks": 31,
            "midi": 51,
            "name": "D#3",
            "ticks": 190480,
            "time": 214.50429,
            "velocity": 0.4015748031496063
          },
          {
            "duration": 0.05180175000000986,
            "durationTicks": 46,
            "midi": 51,
            "name": "D#3",
            "ticks": 190560,
            "time": 214.59438,
            "velocity": 0.47244094488188976
          },
          {
            "duration": 0.06306299999999965,
            "durationTicks": 56,
            "midi": 51,
            "name": "D#3",
            "ticks": 190800,
            "time": 214.86465,
            "velocity": 0.6062992125984252
          },
          {
            "duration": 0.07207199999999148,
            "durationTicks": 64,
            "midi": 44,
            "name": "G#2",
            "ticks": 190800,
            "time": 214.86465,
            "velocity": 0.8818897637795275
          },
          {
            "duration": 0.05292787499999463,
            "durationTicks": 47,
            "midi": 51,
            "name": "D#3",
            "ticks": 190960,
            "time": 215.04483,
            "velocity": 0.5354330708661418
          },
          {
            "duration": 0.06193687499998646,
            "durationTicks": 55,
            "midi": 51,
            "name": "D#3",
            "ticks": 191040,
            "time": 215.13492000000002,
            "velocity": 0.47244094488188976
          },
          {
            "duration": 0.011261250000018208,
            "durationTicks": 10,
            "midi": 40,
            "name": "E2",
            "ticks": 191166,
            "time": 215.27681175,
            "velocity": 0.3543307086614173
          },
          {
            "duration": 0.06981974999999352,
            "durationTicks": 62,
            "midi": 44,
            "name": "G#2",
            "ticks": 191280,
            "time": 215.40519,
            "velocity": 0.6929133858267716
          },
          {
            "duration": 0.06418912499998441,
            "durationTicks": 57,
            "midi": 51,
            "name": "D#3",
            "ticks": 191280,
            "time": 215.40519,
            "velocity": 0.5354330708661418
          },
          {
            "duration": 0.048423374999998714,
            "durationTicks": 43,
            "midi": 51,
            "name": "D#3",
            "ticks": 191440,
            "time": 215.58537,
            "velocity": 0.5354330708661418
          },
          {
            "duration": 0.05743237499999054,
            "durationTicks": 51,
            "midi": 51,
            "name": "D#3",
            "ticks": 191520,
            "time": 215.67546000000002,
            "velocity": 0.47244094488188976
          },
          {
            "duration": 0.011261249999989786,
            "durationTicks": 10,
            "midi": 40,
            "name": "E2",
            "ticks": 191520,
            "time": 215.67546000000002,
            "velocity": 0.31496062992125984
          },
          {
            "duration": 0.011261250000018208,
            "durationTicks": 10,
            "midi": 40,
            "name": "E2",
            "ticks": 191560,
            "time": 215.720505,
            "velocity": 0.23622047244094488
          },
          {
            "duration": 0.011261249999989786,
            "durationTicks": 10,
            "midi": 40,
            "name": "E2",
            "ticks": 191600,
            "time": 215.76555000000002,
            "velocity": 0.23622047244094488
          },
          {
            "duration": 0.011261249999989786,
            "durationTicks": 10,
            "midi": 40,
            "name": "E2",
            "ticks": 191632,
            "time": 215.80158600000001,
            "velocity": 0.4094488188976378
          },
          {
            "duration": 0.011261249999989786,
            "durationTicks": 10,
            "midi": 40,
            "name": "E2",
            "ticks": 191640,
            "time": 215.810595,
            "velocity": 0.25196850393700787
          },
          {
            "duration": 0.06981975000002194,
            "durationTicks": 62,
            "midi": 44,
            "name": "G#2",
            "ticks": 191760,
            "time": 215.94573,
            "velocity": 0.8818897637795275
          },
          {
            "duration": 0.0439188750000028,
            "durationTicks": 39,
            "midi": 51,
            "name": "D#3",
            "ticks": 191760,
            "time": 215.94573,
            "velocity": 0.47244094488188976
          },
          {
            "duration": 0.011261249999989786,
            "durationTicks": 10,
            "midi": 49,
            "name": "C#3",
            "ticks": 191880,
            "time": 216.08086500000002,
            "velocity": 0.5039370078740157
          },
          {
            "duration": 0.07770262500000058,
            "durationTicks": 69,
            "midi": 44,
            "name": "G#2",
            "ticks": 192240,
            "time": 216.48627000000002,
            "velocity": 0.6929133858267716
          },
          {
            "duration": 0.05292787499999463,
            "durationTicks": 47,
            "midi": 51,
            "name": "D#3",
            "ticks": 192240,
            "time": 216.48627000000002,
            "velocity": 0.47244094488188976
          },
          {
            "duration": 0.03490987500001097,
            "durationTicks": 31,
            "midi": 51,
            "name": "D#3",
            "ticks": 192400,
            "time": 216.66645,
            "velocity": 0.4015748031496063
          },
          {
            "duration": 0.05180175000000986,
            "durationTicks": 46,
            "midi": 51,
            "name": "D#3",
            "ticks": 192480,
            "time": 216.75654,
            "velocity": 0.47244094488188976
          },
          {
            "duration": 0.06306299999999965,
            "durationTicks": 56,
            "midi": 51,
            "name": "D#3",
            "ticks": 192720,
            "time": 217.02681,
            "velocity": 0.6062992125984252
          },
          {
            "duration": 0.07207199999999148,
            "durationTicks": 64,
            "midi": 44,
            "name": "G#2",
            "ticks": 192720,
            "time": 217.02681,
            "velocity": 0.8818897637795275
          },
          {
            "duration": 0.05292787499999463,
            "durationTicks": 47,
            "midi": 51,
            "name": "D#3",
            "ticks": 192880,
            "time": 217.20699,
            "velocity": 0.5354330708661418
          },
          {
            "duration": 0.06193687500001488,
            "durationTicks": 55,
            "midi": 51,
            "name": "D#3",
            "ticks": 192960,
            "time": 217.29708,
            "velocity": 0.47244094488188976
          },
          {
            "duration": 0.06418912499998441,
            "durationTicks": 57,
            "midi": 51,
            "name": "D#3",
            "ticks": 193200,
            "time": 217.56735,
            "velocity": 0.5354330708661418
          },
          {
            "duration": 0.06981974999999352,
            "durationTicks": 62,
            "midi": 44,
            "name": "G#2",
            "ticks": 193200,
            "time": 217.56735,
            "velocity": 0.6929133858267716
          },
          {
            "duration": 0.048423374999998714,
            "durationTicks": 43,
            "midi": 51,
            "name": "D#3",
            "ticks": 193360,
            "time": 217.74753,
            "velocity": 0.5354330708661418
          },
          {
            "duration": 0.05743237499999054,
            "durationTicks": 51,
            "midi": 51,
            "name": "D#3",
            "ticks": 193440,
            "time": 217.83762000000002,
            "velocity": 0.47244094488188976
          },
          {
            "duration": 0.011261249999989786,
            "durationTicks": 10,
            "midi": 40,
            "name": "E2",
            "ticks": 193440,
            "time": 217.83762000000002,
            "velocity": 0.3700787401574803
          },
          {
            "duration": 0.011261250000018208,
            "durationTicks": 10,
            "midi": 40,
            "name": "E2",
            "ticks": 193480,
            "time": 217.882665,
            "velocity": 0.23622047244094488
          },
          {
            "duration": 0.011261249999989786,
            "durationTicks": 10,
            "midi": 40,
            "name": "E2",
            "ticks": 193520,
            "time": 217.92771000000002,
            "velocity": 0.1968503937007874
          },
          {
            "duration": 0.011261249999989786,
            "durationTicks": 10,
            "midi": 40,
            "name": "E2",
            "ticks": 193560,
            "time": 217.972755,
            "velocity": 0.15748031496062992
          },
          {
            "duration": 0.011261250000018208,
            "durationTicks": 10,
            "midi": 40,
            "name": "E2",
            "ticks": 193600,
            "time": 218.0178,
            "velocity": 0.23622047244094488
          },
          {
            "duration": 0.011261249999989786,
            "durationTicks": 10,
            "midi": 40,
            "name": "E2",
            "ticks": 193640,
            "time": 218.062845,
            "velocity": 0.25196850393700787
          },
          {
            "duration": 0.011261249999989786,
            "durationTicks": 10,
            "midi": 40,
            "name": "E2",
            "ticks": 193680,
            "time": 218.10789,
            "velocity": 0.25984251968503935
          },
          {
            "duration": 0.06981975000002194,
            "durationTicks": 62,
            "midi": 44,
            "name": "G#2",
            "ticks": 193680,
            "time": 218.10789,
            "velocity": 0.8818897637795275
          },
          {
            "duration": 0.0439188750000028,
            "durationTicks": 39,
            "midi": 51,
            "name": "D#3",
            "ticks": 193680,
            "time": 218.10789,
            "velocity": 0.47244094488188976
          },
          {
            "duration": 0.011261249999989786,
            "durationTicks": 10,
            "midi": 49,
            "name": "C#3",
            "ticks": 193800,
            "time": 218.24302500000002,
            "velocity": 0.5039370078740157
          },
          {
            "duration": 0.07770262500000058,
            "durationTicks": 69,
            "midi": 44,
            "name": "G#2",
            "ticks": 194160,
            "time": 218.64843000000002,
            "velocity": 0.6929133858267716
          },
          {
            "duration": 0.05292787499999463,
            "durationTicks": 47,
            "midi": 51,
            "name": "D#3",
            "ticks": 194160,
            "time": 218.64843000000002,
            "velocity": 0.47244094488188976
          },
          {
            "duration": 0.03490987500001097,
            "durationTicks": 31,
            "midi": 51,
            "name": "D#3",
            "ticks": 194320,
            "time": 218.82861,
            "velocity": 0.4015748031496063
          },
          {
            "duration": 0.05180175000000986,
            "durationTicks": 46,
            "midi": 51,
            "name": "D#3",
            "ticks": 194400,
            "time": 218.9187,
            "velocity": 0.47244094488188976
          },
          {
            "duration": 0.06306299999999965,
            "durationTicks": 56,
            "midi": 51,
            "name": "D#3",
            "ticks": 194640,
            "time": 219.18897,
            "velocity": 0.6062992125984252
          },
          {
            "duration": 0.07207199999999148,
            "durationTicks": 64,
            "midi": 44,
            "name": "G#2",
            "ticks": 194640,
            "time": 219.18897,
            "velocity": 0.8818897637795275
          },
          {
            "duration": 0.05292787499999463,
            "durationTicks": 47,
            "midi": 51,
            "name": "D#3",
            "ticks": 194800,
            "time": 219.36915,
            "velocity": 0.5354330708661418
          },
          {
            "duration": 0.06193687499998646,
            "durationTicks": 55,
            "midi": 51,
            "name": "D#3",
            "ticks": 194880,
            "time": 219.45924000000002,
            "velocity": 0.47244094488188976
          },
          {
            "duration": 0.06418912499998441,
            "durationTicks": 57,
            "midi": 51,
            "name": "D#3",
            "ticks": 195120,
            "time": 219.72951,
            "velocity": 0.5354330708661418
          },
          {
            "duration": 0.06981974999999352,
            "durationTicks": 62,
            "midi": 44,
            "name": "G#2",
            "ticks": 195120,
            "time": 219.72951,
            "velocity": 0.6929133858267716
          },
          {
            "duration": 0.048423374999998714,
            "durationTicks": 43,
            "midi": 51,
            "name": "D#3",
            "ticks": 195280,
            "time": 219.90969,
            "velocity": 0.5354330708661418
          },
          {
            "duration": 0.05743237499999054,
            "durationTicks": 51,
            "midi": 51,
            "name": "D#3",
            "ticks": 195360,
            "time": 219.99978000000002,
            "velocity": 0.47244094488188976
          },
          {
            "duration": 0.0439188750000028,
            "durationTicks": 39,
            "midi": 51,
            "name": "D#3",
            "ticks": 195600,
            "time": 220.27005,
            "velocity": 0.47244094488188976
          },
          {
            "duration": 0.06981975000002194,
            "durationTicks": 62,
            "midi": 44,
            "name": "G#2",
            "ticks": 195600,
            "time": 220.27005,
            "velocity": 0.8818897637795275
          },
          {
            "duration": 0.0439188750000028,
            "durationTicks": 39,
            "midi": 51,
            "name": "D#3",
            "ticks": 195760,
            "time": 220.45023,
            "velocity": 0.5354330708661418
          },
          {
            "duration": 0.04617112500000076,
            "durationTicks": 41,
            "midi": 51,
            "name": "D#3",
            "ticks": 195840,
            "time": 220.54032,
            "velocity": 0.5354330708661418
          },
          {
            "duration": 0.011261249999989786,
            "durationTicks": 10,
            "midi": 40,
            "name": "E2",
            "ticks": 195844,
            "time": 220.5448245,
            "velocity": 0.9133858267716536
          },
          {
            "duration": 0.07770262500000058,
            "durationTicks": 69,
            "midi": 44,
            "name": "G#2",
            "ticks": 196080,
            "time": 220.81059000000002,
            "velocity": 0.6929133858267716
          },
          {
            "duration": 0.011261250000018208,
            "durationTicks": 10,
            "midi": 40,
            "name": "E2",
            "ticks": 196090,
            "time": 220.82185125,
            "velocity": 0.5118110236220472
          },
          {
            "duration": 0.011261250000018208,
            "durationTicks": 10,
            "midi": 40,
            "name": "E2",
            "ticks": 196240,
            "time": 220.99077,
            "velocity": 0.5590551181102362
          },
          {
            "duration": 0.011261250000018208,
            "durationTicks": 10,
            "midi": 40,
            "name": "E2",
            "ticks": 196328,
            "time": 221.089869,
            "velocity": 1
          },
          {
            "duration": 0.011261249999989786,
            "durationTicks": 10,
            "midi": 49,
            "name": "C#3",
            "ticks": 196440,
            "time": 221.21599500000002,
            "velocity": 0.5039370078740157
          },
          {
            "duration": 0.06644137499998237,
            "durationTicks": 59,
            "midi": 46,
            "name": "A#2",
            "ticks": 196490,
            "time": 221.27230125000003,
            "velocity": 0.7952755905511811
          },
          {
            "duration": 0.06081075000000169,
            "durationTicks": 54,
            "midi": 42,
            "name": "F#2",
            "ticks": 196617,
            "time": 221.415319125,
            "velocity": 0.47244094488188976
          },
          {
            "duration": 0.01126125000004663,
            "durationTicks": 10,
            "midi": 57,
            "name": "A3",
            "ticks": 196780,
            "time": 221.5988775,
            "velocity": 0.6062992125984252
          },
          {
            "duration": 0.09459450000002789,
            "durationTicks": 84,
            "midi": 46,
            "name": "A#2",
            "ticks": 196800,
            "time": 221.6214,
            "velocity": 0.905511811023622
          },
          {
            "duration": 0.09234225000000151,
            "durationTicks": 82,
            "midi": 42,
            "name": "F#2",
            "ticks": 196900,
            "time": 221.7340125,
            "velocity": 0.47244094488188976
          },
          {
            "duration": 0.011261249999989786,
            "durationTicks": 10,
            "midi": 50,
            "name": "D3",
            "ticks": 197280,
            "time": 222.16194000000002,
            "velocity": 0.3937007874015748
          },
          {
            "duration": 0.011261249999989786,
            "durationTicks": 10,
            "midi": 47,
            "name": "B2",
            "ticks": 197460,
            "time": 222.3646425,
            "velocity": 0.3937007874015748
          },
          {
            "duration": 0.011261249999989786,
            "durationTicks": 10,
            "midi": 45,
            "name": "A2",
            "ticks": 197520,
            "time": 222.43221,
            "velocity": 0.3937007874015748
          },
          {
            "duration": 0.04617112500000076,
            "durationTicks": 41,
            "midi": 51,
            "name": "D#3",
            "ticks": 197760,
            "time": 222.70248,
            "velocity": 0.5354330708661418
          },
          {
            "duration": 0.05292787499999463,
            "durationTicks": 47,
            "midi": 51,
            "name": "D#3",
            "ticks": 198000,
            "time": 222.97275000000002,
            "velocity": 0.47244094488188976
          },
          {
            "duration": 0.07770262500000058,
            "durationTicks": 69,
            "midi": 44,
            "name": "G#2",
            "ticks": 198000,
            "time": 222.97275000000002,
            "velocity": 0.6929133858267716
          },
          {
            "duration": 0.03490987500001097,
            "durationTicks": 31,
            "midi": 51,
            "name": "D#3",
            "ticks": 198160,
            "time": 223.15293,
            "velocity": 0.4015748031496063
          },
          {
            "duration": 0.05180175000000986,
            "durationTicks": 46,
            "midi": 51,
            "name": "D#3",
            "ticks": 198240,
            "time": 223.24302,
            "velocity": 0.47244094488188976
          },
          {
            "duration": 0.06306299999999965,
            "durationTicks": 56,
            "midi": 51,
            "name": "D#3",
            "ticks": 198480,
            "time": 223.51329,
            "velocity": 0.6062992125984252
          },
          {
            "duration": 0.07207199999999148,
            "durationTicks": 64,
            "midi": 44,
            "name": "G#2",
            "ticks": 198480,
            "time": 223.51329,
            "velocity": 0.8818897637795275
          },
          {
            "duration": 0.05292787499999463,
            "durationTicks": 47,
            "midi": 51,
            "name": "D#3",
            "ticks": 198640,
            "time": 223.69347,
            "velocity": 0.5354330708661418
          },
          {
            "duration": 0.06193687499998646,
            "durationTicks": 55,
            "midi": 51,
            "name": "D#3",
            "ticks": 198720,
            "time": 223.78356000000002,
            "velocity": 0.47244094488188976
          },
          {
            "duration": 0.06418912499998441,
            "durationTicks": 57,
            "midi": 51,
            "name": "D#3",
            "ticks": 198960,
            "time": 224.05383,
            "velocity": 0.5354330708661418
          },
          {
            "duration": 0.06981974999999352,
            "durationTicks": 62,
            "midi": 44,
            "name": "G#2",
            "ticks": 198960,
            "time": 224.05383,
            "velocity": 0.6929133858267716
          },
          {
            "duration": 0.048423374999998714,
            "durationTicks": 43,
            "midi": 51,
            "name": "D#3",
            "ticks": 199120,
            "time": 224.23401,
            "velocity": 0.5354330708661418
          },
          {
            "duration": 0.05743237499999054,
            "durationTicks": 51,
            "midi": 51,
            "name": "D#3",
            "ticks": 199200,
            "time": 224.32410000000002,
            "velocity": 0.47244094488188976
          },
          {
            "duration": 0.0439188750000028,
            "durationTicks": 39,
            "midi": 51,
            "name": "D#3",
            "ticks": 199440,
            "time": 224.59437,
            "velocity": 0.47244094488188976
          },
          {
            "duration": 0.06981975000002194,
            "durationTicks": 62,
            "midi": 44,
            "name": "G#2",
            "ticks": 199440,
            "time": 224.59437,
            "velocity": 0.8818897637795275
          },
          {
            "duration": 0.0439188750000028,
            "durationTicks": 39,
            "midi": 51,
            "name": "D#3",
            "ticks": 199600,
            "time": 224.77455,
            "velocity": 0.5354330708661418
          },
          {
            "duration": 0.04617112500000076,
            "durationTicks": 41,
            "midi": 51,
            "name": "D#3",
            "ticks": 199680,
            "time": 224.86464,
            "velocity": 0.5354330708661418
          },
          {
            "duration": 0.05292787499999463,
            "durationTicks": 47,
            "midi": 51,
            "name": "D#3",
            "ticks": 199920,
            "time": 225.13491000000002,
            "velocity": 0.47244094488188976
          },
          {
            "duration": 0.07770262500000058,
            "durationTicks": 69,
            "midi": 44,
            "name": "G#2",
            "ticks": 199920,
            "time": 225.13491000000002,
            "velocity": 0.6929133858267716
          },
          {
            "duration": 0.03490987500001097,
            "durationTicks": 31,
            "midi": 51,
            "name": "D#3",
            "ticks": 200080,
            "time": 225.31509,
            "velocity": 0.4015748031496063
          },
          {
            "duration": 0.05180175000000986,
            "durationTicks": 46,
            "midi": 51,
            "name": "D#3",
            "ticks": 200160,
            "time": 225.40518,
            "velocity": 0.47244094488188976
          },
          {
            "duration": 0.06306299999999965,
            "durationTicks": 56,
            "midi": 51,
            "name": "D#3",
            "ticks": 200400,
            "time": 225.67545,
            "velocity": 0.6062992125984252
          },
          {
            "duration": 0.07207199999999148,
            "durationTicks": 64,
            "midi": 44,
            "name": "G#2",
            "ticks": 200400,
            "time": 225.67545,
            "velocity": 0.8818897637795275
          },
          {
            "duration": 0.05292787499999463,
            "durationTicks": 47,
            "midi": 51,
            "name": "D#3",
            "ticks": 200560,
            "time": 225.85563,
            "velocity": 0.5354330708661418
          },
          {
            "duration": 0.06193687500001488,
            "durationTicks": 55,
            "midi": 51,
            "name": "D#3",
            "ticks": 200640,
            "time": 225.94572,
            "velocity": 0.47244094488188976
          },
          {
            "duration": 0.06418912499998441,
            "durationTicks": 57,
            "midi": 51,
            "name": "D#3",
            "ticks": 200880,
            "time": 226.21599,
            "velocity": 0.5354330708661418
          },
          {
            "duration": 0.06981974999999352,
            "durationTicks": 62,
            "midi": 44,
            "name": "G#2",
            "ticks": 200880,
            "time": 226.21599,
            "velocity": 0.6929133858267716
          },
          {
            "duration": 0.048423374999998714,
            "durationTicks": 43,
            "midi": 51,
            "name": "D#3",
            "ticks": 201040,
            "time": 226.39617,
            "velocity": 0.5354330708661418
          },
          {
            "duration": 0.05743237499999054,
            "durationTicks": 51,
            "midi": 51,
            "name": "D#3",
            "ticks": 201120,
            "time": 226.48626000000002,
            "velocity": 0.47244094488188976
          },
          {
            "duration": 0.0439188750000028,
            "durationTicks": 39,
            "midi": 51,
            "name": "D#3",
            "ticks": 201360,
            "time": 226.75653,
            "velocity": 0.47244094488188976
          },
          {
            "duration": 0.06981975000002194,
            "durationTicks": 62,
            "midi": 44,
            "name": "G#2",
            "ticks": 201360,
            "time": 226.75653,
            "velocity": 0.8818897637795275
          },
          {
            "duration": 0.011261250000018208,
            "durationTicks": 10,
            "midi": 40,
            "name": "E2",
            "ticks": 201520,
            "time": 226.93671,
            "velocity": 0.15748031496062992
          },
          {
            "duration": 0.011261249999989786,
            "durationTicks": 10,
            "midi": 40,
            "name": "E2",
            "ticks": 201560,
            "time": 226.98175500000002,
            "velocity": 0.23622047244094488
          },
          {
            "duration": 0.011261249999989786,
            "durationTicks": 10,
            "midi": 40,
            "name": "E2",
            "ticks": 201600,
            "time": 227.0268,
            "velocity": 0.8818897637795275
          },
          {
            "duration": 0.011261250000018208,
            "durationTicks": 10,
            "midi": 40,
            "name": "E2",
            "ticks": 201760,
            "time": 227.20698,
            "velocity": 0.15748031496062992
          },
          {
            "duration": 0.011261249999989786,
            "durationTicks": 10,
            "midi": 40,
            "name": "E2",
            "ticks": 201800,
            "time": 227.25202500000003,
            "velocity": 0.23622047244094488
          },
          {
            "duration": 0.011261249999989786,
            "durationTicks": 10,
            "midi": 40,
            "name": "E2",
            "ticks": 201840,
            "time": 227.29707000000002,
            "velocity": 0.8818897637795275
          },
          {
            "duration": 0.07770262500000058,
            "durationTicks": 69,
            "midi": 44,
            "name": "G#2",
            "ticks": 201840,
            "time": 227.29707000000002,
            "velocity": 0.6929133858267716
          },
          {
            "duration": 0.07770262500000058,
            "durationTicks": 69,
            "midi": 44,
            "name": "G#2",
            "ticks": 202080,
            "time": 227.56734,
            "velocity": 0.6062992125984252
          },
          {
            "duration": 0.011261249999989786,
            "durationTicks": 10,
            "midi": 40,
            "name": "E2",
            "ticks": 202080,
            "time": 227.56734,
            "velocity": 0.15748031496062992
          },
          {
            "duration": 0.011261249999989786,
            "durationTicks": 10,
            "midi": 40,
            "name": "E2",
            "ticks": 202160,
            "time": 227.65743,
            "velocity": 0.23622047244094488
          },
          {
            "duration": 0.011261250000018208,
            "durationTicks": 10,
            "midi": 40,
            "name": "E2",
            "ticks": 202240,
            "time": 227.74752,
            "velocity": 0.31496062992125984
          },
          {
            "duration": 0.011261249999989786,
            "durationTicks": 10,
            "midi": 40,
            "name": "E2",
            "ticks": 202320,
            "time": 227.83761,
            "velocity": 0.4881889763779528
          },
          {
            "duration": 0.07207199999999148,
            "durationTicks": 64,
            "midi": 44,
            "name": "G#2",
            "ticks": 202320,
            "time": 227.83761,
            "velocity": 0.6929133858267716
          },
          {
            "duration": 0.011261249999989786,
            "durationTicks": 10,
            "midi": 40,
            "name": "E2",
            "ticks": 202400,
            "time": 227.92770000000002,
            "velocity": 0.6299212598425197
          },
          {
            "duration": 0.011261250000018208,
            "durationTicks": 10,
            "midi": 40,
            "name": "E2",
            "ticks": 202480,
            "time": 228.01779,
            "velocity": 0.7559055118110236
          },
          {
            "duration": 0.011261249999961365,
            "durationTicks": 10,
            "midi": 40,
            "name": "E2",
            "ticks": 202560,
            "time": 228.10788000000002,
            "velocity": 0.9448818897637795
          },
          {
            "duration": 0.06981974999999352,
            "durationTicks": 62,
            "midi": 44,
            "name": "G#2",
            "ticks": 202800,
            "time": 228.37815,
            "velocity": 0.6062992125984252
          },
          {
            "duration": 0.06981974999999352,
            "durationTicks": 62,
            "midi": 44,
            "name": "G#2",
            "ticks": 203040,
            "time": 228.64842000000002,
            "velocity": 0.6929133858267716
          },
          {
            "duration": 0.011261249999989786,
            "durationTicks": 10,
            "midi": 49,
            "name": "C#3",
            "ticks": 203040,
            "time": 228.64842000000002,
            "velocity": 0.31496062992125984
          },
          {
            "duration": 0.011261249999989786,
            "durationTicks": 10,
            "midi": 40,
            "name": "E2",
            "ticks": 203280,
            "time": 228.91869,
            "velocity": 0.6929133858267716
          },
          {
            "duration": 0.06981975000002194,
            "durationTicks": 62,
            "midi": 44,
            "name": "G#2",
            "ticks": 203280,
            "time": 228.91869,
            "velocity": 0.6929133858267716
          },
          {
            "duration": 0.011261249999989786,
            "durationTicks": 10,
            "midi": 57,
            "name": "A3",
            "ticks": 203400,
            "time": 229.05382500000002,
            "velocity": 0.5039370078740157
          },
          {
            "duration": 0.05292787499999463,
            "durationTicks": 47,
            "midi": 51,
            "name": "D#3",
            "ticks": 203760,
            "time": 229.45923000000002,
            "velocity": 0.47244094488188976
          },
          {
            "duration": 0.07770262500000058,
            "durationTicks": 69,
            "midi": 44,
            "name": "G#2",
            "ticks": 203760,
            "time": 229.45923000000002,
            "velocity": 0.6929133858267716
          },
          {
            "duration": 0.03490987500001097,
            "durationTicks": 31,
            "midi": 51,
            "name": "D#3",
            "ticks": 203920,
            "time": 229.63941,
            "velocity": 0.4015748031496063
          },
          {
            "duration": 0.05180175000000986,
            "durationTicks": 46,
            "midi": 51,
            "name": "D#3",
            "ticks": 204000,
            "time": 229.7295,
            "velocity": 0.47244094488188976
          },
          {
            "duration": 0.06306299999999965,
            "durationTicks": 56,
            "midi": 51,
            "name": "D#3",
            "ticks": 204240,
            "time": 229.99977,
            "velocity": 0.6062992125984252
          },
          {
            "duration": 0.07207199999999148,
            "durationTicks": 64,
            "midi": 44,
            "name": "G#2",
            "ticks": 204240,
            "time": 229.99977,
            "velocity": 0.8818897637795275
          },
          {
            "duration": 0.05292787499999463,
            "durationTicks": 47,
            "midi": 51,
            "name": "D#3",
            "ticks": 204400,
            "time": 230.17995,
            "velocity": 0.5354330708661418
          },
          {
            "duration": 0.06193687500001488,
            "durationTicks": 55,
            "midi": 51,
            "name": "D#3",
            "ticks": 204480,
            "time": 230.27004,
            "velocity": 0.47244094488188976
          },
          {
            "duration": 0.06418912499998441,
            "durationTicks": 57,
            "midi": 51,
            "name": "D#3",
            "ticks": 204720,
            "time": 230.54031,
            "velocity": 0.5354330708661418
          },
          {
            "duration": 0.06981974999999352,
            "durationTicks": 62,
            "midi": 44,
            "name": "G#2",
            "ticks": 204720,
            "time": 230.54031,
            "velocity": 0.6929133858267716
          },
          {
            "duration": 0.048423374999998714,
            "durationTicks": 43,
            "midi": 51,
            "name": "D#3",
            "ticks": 204880,
            "time": 230.72049,
            "velocity": 0.5354330708661418
          },
          {
            "duration": 0.05743237499999054,
            "durationTicks": 51,
            "midi": 51,
            "name": "D#3",
            "ticks": 204960,
            "time": 230.81058000000002,
            "velocity": 0.47244094488188976
          },
          {
            "duration": 0.0439188750000028,
            "durationTicks": 39,
            "midi": 51,
            "name": "D#3",
            "ticks": 205200,
            "time": 231.08085,
            "velocity": 0.47244094488188976
          },
          {
            "duration": 0.06981975000002194,
            "durationTicks": 62,
            "midi": 44,
            "name": "G#2",
            "ticks": 205200,
            "time": 231.08085,
            "velocity": 0.8818897637795275
          },
          {
            "duration": 0.0439188750000028,
            "durationTicks": 39,
            "midi": 51,
            "name": "D#3",
            "ticks": 205360,
            "time": 231.26103,
            "velocity": 0.5354330708661418
          },
          {
            "duration": 0.011261249999989786,
            "durationTicks": 10,
            "midi": 35,
            "name": "B1",
            "ticks": 205440,
            "time": 231.35112,
            "velocity": 0.3543307086614173
          },
          {
            "duration": 0.06193687499998646,
            "durationTicks": 55,
            "midi": 51,
            "name": "D#3",
            "ticks": 205440,
            "time": 231.35112,
            "velocity": 0.47244094488188976
          },
          {
            "duration": 0.011261250000018208,
            "durationTicks": 10,
            "midi": 40,
            "name": "E2",
            "ticks": 205540,
            "time": 231.4637325,
            "velocity": 0.3543307086614173
          },
          {
            "duration": 0.011261249999989786,
            "durationTicks": 10,
            "midi": 40,
            "name": "E2",
            "ticks": 205560,
            "time": 231.486255,
            "velocity": 0.6929133858267716
          },
          {
            "duration": 0.047297249999985524,
            "durationTicks": 42,
            "midi": 51,
            "name": "D#3",
            "ticks": 205680,
            "time": 231.62139000000002,
            "velocity": 0.6062992125984252
          },
          {
            "duration": 0.07770262500000058,
            "durationTicks": 69,
            "midi": 44,
            "name": "G#2",
            "ticks": 205680,
            "time": 231.62139000000002,
            "velocity": 0.6929133858267716
          },
          {
            "duration": 0.011261249999989786,
            "durationTicks": 10,
            "midi": 35,
            "name": "B1",
            "ticks": 205800,
            "time": 231.756525,
            "velocity": 0.31496062992125984
          },
          {
            "duration": 0.048423374999998714,
            "durationTicks": 43,
            "midi": 51,
            "name": "D#3",
            "ticks": 205840,
            "time": 231.80157,
            "velocity": 0.5354330708661418
          },
          {
            "duration": 0.011261249999989786,
            "durationTicks": 10,
            "midi": 35,
            "name": "B1",
            "ticks": 205920,
            "time": 231.89166,
            "velocity": 0.5039370078740157
          },
          {
            "duration": 0.048423374999998714,
            "durationTicks": 43,
            "midi": 51,
            "name": "D#3",
            "ticks": 206040,
            "time": 232.02679500000002,
            "velocity": 0.5354330708661418
          },
          {
            "duration": 0.07207199999999148,
            "durationTicks": 64,
            "midi": 46,
            "name": "A#2",
            "ticks": 206280,
            "time": 232.297065,
            "velocity": 0.984251968503937
          },
          {
            "duration": 0.011261249999989786,
            "durationTicks": 10,
            "midi": 35,
            "name": "B1",
            "ticks": 206280,
            "time": 232.297065,
            "velocity": 0.6062992125984252
          },
          {
            "duration": 0.06981974999999352,
            "durationTicks": 62,
            "midi": 44,
            "name": "G#2",
            "ticks": 206400,
            "time": 232.43220000000002,
            "velocity": 0.007874015748031496
          },
          {
            "duration": 0.06981974999999352,
            "durationTicks": 62,
            "midi": 44,
            "name": "G#2",
            "ticks": 206640,
            "time": 232.70247,
            "velocity": 0.7874015748031497
          },
          {
            "duration": 0.011261250000018208,
            "durationTicks": 10,
            "midi": 40,
            "name": "E2",
            "ticks": 206860,
            "time": 232.9502175,
            "velocity": 0.23622047244094488
          },
          {
            "duration": 0.011261249999989786,
            "durationTicks": 10,
            "midi": 40,
            "name": "E2",
            "ticks": 206880,
            "time": 232.97274000000002,
            "velocity": 0.3937007874015748
          },
          {
            "duration": 0.06981974999999352,
            "durationTicks": 62,
            "midi": 44,
            "name": "G#2",
            "ticks": 206880,
            "time": 232.97274000000002,
            "velocity": 0.7874015748031497
          },
          {
            "duration": 0.011261250000018208,
            "durationTicks": 10,
            "midi": 40,
            "name": "E2",
            "ticks": 206905,
            "time": 233.000893125,
            "velocity": 0.7874015748031497
          },
          {
            "duration": 0.011261249999989786,
            "durationTicks": 10,
            "midi": 43,
            "name": "G2",
            "ticks": 207048,
            "time": 233.16192900000001,
            "velocity": 0.6062992125984252
          },
          {
            "duration": 0.06981975000002194,
            "durationTicks": 62,
            "midi": 44,
            "name": "G#2",
            "ticks": 207120,
            "time": 233.24301,
            "velocity": 0.8818897637795275
          },
          {
            "duration": 0.011261250000018208,
            "durationTicks": 10,
            "midi": 35,
            "name": "B1",
            "ticks": 207132,
            "time": 233.2565235,
            "velocity": 0.3937007874015748
          },
          {
            "duration": 0.011261249999989786,
            "durationTicks": 10,
            "midi": 40,
            "name": "E2",
            "ticks": 207266,
            "time": 233.40742425000002,
            "velocity": 0.4330708661417323
          },
          {
            "duration": 0.011261250000018208,
            "durationTicks": 10,
            "midi": 40,
            "name": "E2",
            "ticks": 207340,
            "time": 233.4907575,
            "velocity": 0.3937007874015748
          },
          {
            "duration": 0.011261249999989786,
            "durationTicks": 10,
            "midi": 40,
            "name": "E2",
            "ticks": 207360,
            "time": 233.51328,
            "velocity": 0.7874015748031497
          },
          {
            "duration": 0.06981974999999352,
            "durationTicks": 62,
            "midi": 44,
            "name": "G#2",
            "ticks": 207360,
            "time": 233.51328,
            "velocity": 0.7874015748031497
          },
          {
            "duration": 0.011261250000018208,
            "durationTicks": 10,
            "midi": 49,
            "name": "C#3",
            "ticks": 207520,
            "time": 233.69346,
            "velocity": 0.47244094488188976
          },
          {
            "duration": 0.011261249999989786,
            "durationTicks": 10,
            "midi": 49,
            "name": "C#3",
            "ticks": 207840,
            "time": 234.05382,
            "velocity": 0.47244094488188976
          },
          {
            "duration": 0.011261249999989786,
            "durationTicks": 10,
            "midi": 40,
            "name": "E2",
            "ticks": 208110,
            "time": 234.35787375,
            "velocity": 0.6929133858267716
          },
          {
            "duration": 0.011261249999989786,
            "durationTicks": 10,
            "midi": 49,
            "name": "C#3",
            "ticks": 208320,
            "time": 234.59436,
            "velocity": 0.47244094488188976
          },
          {
            "duration": 0.011261249999989786,
            "durationTicks": 10,
            "midi": 40,
            "name": "E2",
            "ticks": 208590,
            "time": 234.89841375,
            "velocity": 0.6929133858267716
          },
          {
            "duration": 0.011261250000018208,
            "durationTicks": 10,
            "midi": 57,
            "name": "A3",
            "ticks": 208720,
            "time": 235.04481,
            "velocity": 0.6062992125984252
          },
          {
            "duration": 0.011261249999989786,
            "durationTicks": 10,
            "midi": 40,
            "name": "E2",
            "ticks": 208955,
            "time": 235.309449375,
            "velocity": 0.23622047244094488
          },
          {
            "duration": 0.011261249999989786,
            "durationTicks": 10,
            "midi": 40,
            "name": "E2",
            "ticks": 209025,
            "time": 235.388278125,
            "velocity": 0.3464566929133858
          },
          {
            "duration": 0.011261249999989786,
            "durationTicks": 10,
            "midi": 40,
            "name": "E2",
            "ticks": 209045,
            "time": 235.410800625,
            "velocity": 0.5039370078740157
          },
          {
            "duration": 0.011261249999989786,
            "durationTicks": 10,
            "midi": 40,
            "name": "E2",
            "ticks": 209131,
            "time": 235.50764737500003,
            "velocity": 0.4330708661417323
          },
          {
            "duration": 0.011261249999989786,
            "durationTicks": 10,
            "midi": 40,
            "name": "E2",
            "ticks": 209180,
            "time": 235.56282750000003,
            "velocity": 0.3937007874015748
          },
          {
            "duration": 0.011261250000018208,
            "durationTicks": 10,
            "midi": 40,
            "name": "E2",
            "ticks": 209200,
            "time": 235.58535,
            "velocity": 0.6929133858267716
          },
          {
            "duration": 0.011261249999989786,
            "durationTicks": 10,
            "midi": 40,
            "name": "E2",
            "ticks": 209265,
            "time": 235.658548125,
            "velocity": 0.23622047244094488
          },
          {
            "duration": 0.011261250000018208,
            "durationTicks": 10,
            "midi": 40,
            "name": "E2",
            "ticks": 209275,
            "time": 235.669809375,
            "velocity": 0.6929133858267716
          },
          {
            "duration": 0.011261250000018208,
            "durationTicks": 10,
            "midi": 49,
            "name": "C#3",
            "ticks": 209440,
            "time": 235.85562,
            "velocity": 0.47244094488188976
          },
          {
            "duration": 0.011261249999989786,
            "durationTicks": 10,
            "midi": 49,
            "name": "C#3",
            "ticks": 209760,
            "time": 236.21598,
            "velocity": 0.47244094488188976
          },
          {
            "duration": 0.011261249999989786,
            "durationTicks": 10,
            "midi": 40,
            "name": "E2",
            "ticks": 210030,
            "time": 236.52003375,
            "velocity": 0.6929133858267716
          },
          {
            "duration": 0.011261249999961365,
            "durationTicks": 10,
            "midi": 49,
            "name": "C#3",
            "ticks": 210240,
            "time": 236.75652000000002,
            "velocity": 0.47244094488188976
          },
          {
            "duration": 0.011261249999989786,
            "durationTicks": 10,
            "midi": 40,
            "name": "E2",
            "ticks": 210510,
            "time": 237.06057375,
            "velocity": 0.6929133858267716
          },
          {
            "duration": 0.011261250000018208,
            "durationTicks": 10,
            "midi": 57,
            "name": "A3",
            "ticks": 210640,
            "time": 237.20697,
            "velocity": 0.6062992125984252
          },
          {
            "duration": 0.011261250000018208,
            "durationTicks": 10,
            "midi": 40,
            "name": "E2",
            "ticks": 210820,
            "time": 237.4096725,
            "velocity": 0.3937007874015748
          },
          {
            "duration": 0.011261249999989786,
            "durationTicks": 10,
            "midi": 40,
            "name": "E2",
            "ticks": 210860,
            "time": 237.45471750000002,
            "velocity": 0.6929133858267716
          },
          {
            "duration": 0.011261249999989786,
            "durationTicks": 10,
            "midi": 43,
            "name": "G2",
            "ticks": 210980,
            "time": 237.5898525,
            "velocity": 0.47244094488188976
          },
          {
            "duration": 0.011261249999989786,
            "durationTicks": 10,
            "midi": 43,
            "name": "G2",
            "ticks": 210990,
            "time": 237.60111375,
            "velocity": 0.6929133858267716
          },
          {
            "duration": 0.011261250000018208,
            "durationTicks": 10,
            "midi": 40,
            "name": "E2",
            "ticks": 211450,
            "time": 238.11913125,
            "velocity": 0.6062992125984252
          },
          {
            "duration": 0.011261250000018208,
            "durationTicks": 10,
            "midi": 40,
            "name": "E2",
            "ticks": 211930,
            "time": 238.65967125,
            "velocity": 0.7874015748031497
          },
          {
            "duration": 0.011261250000018208,
            "durationTicks": 10,
            "midi": 40,
            "name": "E2",
            "ticks": 212410,
            "time": 239.20021125,
            "velocity": 0.7874015748031497
          },
          {
            "duration": 0.011261250000018208,
            "durationTicks": 10,
            "midi": 40,
            "name": "E2",
            "ticks": 212890,
            "time": 239.74075125,
            "velocity": 0.7874015748031497
          },
          {
            "duration": 0.011261250000018208,
            "durationTicks": 10,
            "midi": 57,
            "name": "A3",
            "ticks": 213040,
            "time": 239.90967,
            "velocity": 0.6062992125984252
          },
          {
            "duration": 0.17342324999998482,
            "durationTicks": 154,
            "midi": 49,
            "name": "C#3",
            "ticks": 213052,
            "time": 239.92318350000002,
            "velocity": 0.6062992125984252
          },
          {
            "duration": 0.011261249999989786,
            "durationTicks": 10,
            "midi": 50,
            "name": "D3",
            "ticks": 213238,
            "time": 240.13264275,
            "velocity": 0.6062992125984252
          },
          {
            "duration": 0.011261249999989786,
            "durationTicks": 10,
            "midi": 50,
            "name": "D3",
            "ticks": 213317,
            "time": 240.22160662500002,
            "velocity": 0.6929133858267716
          },
          {
            "duration": 0.011261249999989786,
            "durationTicks": 10,
            "midi": 50,
            "name": "D3",
            "ticks": 213401,
            "time": 240.31620112500002,
            "velocity": 0.6062992125984252
          },
          {
            "duration": 0.011261249999989786,
            "durationTicks": 10,
            "midi": 47,
            "name": "B2",
            "ticks": 213468,
            "time": 240.39165150000002,
            "velocity": 0.5039370078740157
          },
          {
            "duration": 0.011261249999989786,
            "durationTicks": 10,
            "midi": 47,
            "name": "B2",
            "ticks": 213549,
            "time": 240.482867625,
            "velocity": 0.6062992125984252
          },
          {
            "duration": 0.011261249999989786,
            "durationTicks": 10,
            "midi": 47,
            "name": "B2",
            "ticks": 213626,
            "time": 240.56957925,
            "velocity": 0.5039370078740157
          },
          {
            "duration": 0.01126125000004663,
            "durationTicks": 10,
            "midi": 45,
            "name": "A2",
            "ticks": 213698,
            "time": 240.65066025,
            "velocity": 0.5039370078740157
          },
          {
            "duration": 0.011261250000018208,
            "durationTicks": 10,
            "midi": 45,
            "name": "A2",
            "ticks": 213771,
            "time": 240.732867375,
            "velocity": 0.4330708661417323
          },
          {
            "duration": 0.011261250000018208,
            "durationTicks": 10,
            "midi": 45,
            "name": "A2",
            "ticks": 213852,
            "time": 240.8240835,
            "velocity": 0.3543307086614173
          },
          {
            "duration": 0.01126125000004663,
            "durationTicks": 10,
            "midi": 40,
            "name": "E2",
            "ticks": 214058,
            "time": 241.05606525,
            "velocity": 0.7874015748031497
          },
          {
            "duration": 0.011261249999961365,
            "durationTicks": 10,
            "midi": 40,
            "name": "E2",
            "ticks": 214078,
            "time": 241.07858775000003,
            "velocity": 0.984251968503937
          },
          {
            "duration": 0.17342325000001324,
            "durationTicks": 154,
            "midi": 49,
            "name": "C#3",
            "ticks": 214330,
            "time": 241.36237125,
            "velocity": 0.6062992125984252
          },
          {
            "duration": 0.22297275000002514,
            "durationTicks": 198,
            "midi": 57,
            "name": "A3",
            "ticks": 214810,
            "time": 241.90291125,
            "velocity": 0.6929133858267716
          },
          {
            "duration": 0.20157637500000192,
            "durationTicks": 179,
            "midi": 49,
            "name": "C#3",
            "ticks": 215497,
            "time": 242.676559125,
            "velocity": 0.6929133858267716
          },
          {
            "duration": 0.05405400000000782,
            "durationTicks": 48,
            "midi": 57,
            "name": "A3",
            "ticks": 215916,
            "time": 243.1484055,
            "velocity": 0.23622047244094488
          },
          {
            "duration": 0.054053999999979396,
            "durationTicks": 48,
            "midi": 57,
            "name": "A3",
            "ticks": 215996,
            "time": 243.23849550000003,
            "velocity": 0.31496062992125984
          },
          {
            "duration": 0.011261249999989786,
            "durationTicks": 10,
            "midi": 57,
            "name": "A3",
            "ticks": 216101,
            "time": 243.35673862500002,
            "velocity": 0.3937007874015748
          },
          {
            "duration": 0.011261250000018208,
            "durationTicks": 10,
            "midi": 57,
            "name": "A3",
            "ticks": 216192,
            "time": 243.459216,
            "velocity": 0.5511811023622047
          },
          {
            "duration": 0.011261249999989786,
            "durationTicks": 10,
            "midi": 57,
            "name": "A3",
            "ticks": 216281,
            "time": 243.559441125,
            "velocity": 0.6299212598425197
          },
          {
            "duration": 0.011261249999989786,
            "durationTicks": 10,
            "midi": 57,
            "name": "A3",
            "ticks": 216376,
            "time": 243.66642300000004,
            "velocity": 0.7874015748031497
          },
          {
            "duration": 0.021396374999994805,
            "durationTicks": 19,
            "midi": 57,
            "name": "A3",
            "ticks": 216471,
            "time": 243.773404875,
            "velocity": 0.8661417322834646
          },
          {
            "duration": 0.021396374999994805,
            "durationTicks": 19,
            "midi": 57,
            "name": "A3",
            "ticks": 216595,
            "time": 243.913044375,
            "velocity": 0.7874015748031497
          },
          {
            "duration": 0.054053999999979396,
            "durationTicks": 48,
            "midi": 57,
            "name": "A3",
            "ticks": 216691,
            "time": 244.021152375,
            "velocity": 0.7086614173228346
          },
          {
            "duration": 0.054053999999979396,
            "durationTicks": 48,
            "midi": 57,
            "name": "A3",
            "ticks": 216806,
            "time": 244.15065675000002,
            "velocity": 0.5511811023622047
          },
          {
            "duration": 0.05405400000000782,
            "durationTicks": 48,
            "midi": 57,
            "name": "A3",
            "ticks": 216921,
            "time": 244.280161125,
            "velocity": 0.47244094488188976
          },
          {
            "duration": 0.054053999999979396,
            "durationTicks": 48,
            "midi": 49,
            "name": "C#3",
            "ticks": 217038,
            "time": 244.41191775000001,
            "velocity": 0.7874015748031497
          },
          {
            "duration": 0.05405400000000782,
            "durationTicks": 48,
            "midi": 49,
            "name": "C#3",
            "ticks": 217163,
            "time": 244.55268337500002,
            "velocity": 0.5039370078740157
          },
          {
            "duration": 0.054053999999979396,
            "durationTicks": 48,
            "midi": 57,
            "name": "A3",
            "ticks": 217306,
            "time": 244.71371925000003,
            "velocity": 0.8818897637795275
          },
          {
            "duration": 0.011261249999989786,
            "durationTicks": 10,
            "midi": 50,
            "name": "D3",
            "ticks": 217367,
            "time": 244.782412875,
            "velocity": 0.23622047244094488
          },
          {
            "duration": 0.011261250000018208,
            "durationTicks": 10,
            "midi": 50,
            "name": "D3",
            "ticks": 217390,
            "time": 244.80831375,
            "velocity": 0.2755905511811024
          },
          {
            "duration": 0.011261249999989786,
            "durationTicks": 10,
            "midi": 50,
            "name": "D3",
            "ticks": 217421,
            "time": 244.843223625,
            "velocity": 0.31496062992125984
          },
          {
            "duration": 0.011261249999989786,
            "durationTicks": 10,
            "midi": 50,
            "name": "D3",
            "ticks": 217474,
            "time": 244.90290825,
            "velocity": 0.31496062992125984
          },
          {
            "duration": 0.011261250000018208,
            "durationTicks": 10,
            "midi": 50,
            "name": "D3",
            "ticks": 217559,
            "time": 244.998628875,
            "velocity": 0.3937007874015748
          },
          {
            "duration": 0.011261249999989786,
            "durationTicks": 10,
            "midi": 50,
            "name": "D3",
            "ticks": 217627,
            "time": 245.07520537500002,
            "velocity": 0.3937007874015748
          },
          {
            "duration": 0.011261250000018208,
            "durationTicks": 10,
            "midi": 50,
            "name": "D3",
            "ticks": 217692,
            "time": 245.1484035,
            "velocity": 0.5039370078740157
          },
          {
            "duration": 0.011261249999989786,
            "durationTicks": 10,
            "midi": 50,
            "name": "D3",
            "ticks": 217770,
            "time": 245.23624125,
            "velocity": 0.6062992125984252
          },
          {
            "duration": 0.011261250000018208,
            "durationTicks": 10,
            "midi": 50,
            "name": "D3",
            "ticks": 217857,
            "time": 245.334214125,
            "velocity": 0.4330708661417323
          },
          {
            "duration": 0.011261249999989786,
            "durationTicks": 10,
            "midi": 47,
            "name": "B2",
            "ticks": 217940,
            "time": 245.42768250000003,
            "velocity": 0.23622047244094488
          },
          {
            "duration": 0.011261249999989786,
            "durationTicks": 10,
            "midi": 47,
            "name": "B2",
            "ticks": 217998,
            "time": 245.49299775000003,
            "velocity": 0.31496062992125984
          },
          {
            "duration": 0.011261249999989786,
            "durationTicks": 10,
            "midi": 47,
            "name": "B2",
            "ticks": 218062,
            "time": 245.56506975000002,
            "velocity": 0.3937007874015748
          },
          {
            "duration": 0.011261249999989786,
            "durationTicks": 10,
            "midi": 47,
            "name": "B2",
            "ticks": 218139,
            "time": 245.651781375,
            "velocity": 0.47244094488188976
          },
          {
            "duration": 0.011261249999989786,
            "durationTicks": 10,
            "midi": 47,
            "name": "B2",
            "ticks": 218210,
            "time": 245.73173625,
            "velocity": 0.5511811023622047
          },
          {
            "duration": 0.011261249999989786,
            "durationTicks": 10,
            "midi": 47,
            "name": "B2",
            "ticks": 218285,
            "time": 245.816195625,
            "velocity": 0.3937007874015748
          },
          {
            "duration": 0.011261249999989786,
            "durationTicks": 10,
            "midi": 43,
            "name": "G2",
            "ticks": 218375,
            "time": 245.91754687500003,
            "velocity": 0.2755905511811024
          },
          {
            "duration": 0.011261250000018208,
            "durationTicks": 10,
            "midi": 43,
            "name": "G2",
            "ticks": 218444,
            "time": 245.9952495,
            "velocity": 0.3543307086614173
          },
          {
            "duration": 0.011261249999989786,
            "durationTicks": 10,
            "midi": 43,
            "name": "G2",
            "ticks": 218514,
            "time": 246.07407825,
            "velocity": 0.4330708661417323
          },
          {
            "duration": 0.011261249999989786,
            "durationTicks": 10,
            "midi": 43,
            "name": "G2",
            "ticks": 218585,
            "time": 246.154033125,
            "velocity": 0.5039370078740157
          },
          {
            "duration": 0.011261250000018208,
            "durationTicks": 10,
            "midi": 43,
            "name": "G2",
            "ticks": 218663,
            "time": 246.241870875,
            "velocity": 0.5039370078740157
          },
          {
            "duration": 0.011261250000018208,
            "durationTicks": 10,
            "midi": 43,
            "name": "G2",
            "ticks": 218742,
            "time": 246.33083475,
            "velocity": 0.5039370078740157
          },
          {
            "duration": 0.011261249999989786,
            "durationTicks": 10,
            "midi": 41,
            "name": "F2",
            "ticks": 218880,
            "time": 246.48624,
            "velocity": 0.4566929133858268
          },
          {
            "duration": 0.011261249999989786,
            "durationTicks": 10,
            "midi": 41,
            "name": "F2",
            "ticks": 219116,
            "time": 246.75200550000002,
            "velocity": 0.23622047244094488
          },
          {
            "duration": 0.011261249999989786,
            "durationTicks": 10,
            "midi": 41,
            "name": "F2",
            "ticks": 219131,
            "time": 246.76889737500002,
            "velocity": 0.4330708661417323
          },
          {
            "duration": 0.011261250000018208,
            "durationTicks": 10,
            "midi": 40,
            "name": "E2",
            "ticks": 219670,
            "time": 247.37587875,
            "velocity": 0.5039370078740157
          },
          {
            "duration": 0.011261250000018208,
            "durationTicks": 10,
            "midi": 40,
            "name": "E2",
            "ticks": 219685,
            "time": 247.392770625,
            "velocity": 0.6062992125984252
          },
          {
            "duration": 0.011261249999989786,
            "durationTicks": 10,
            "midi": 50,
            "name": "D3",
            "ticks": 219727,
            "time": 247.440067875,
            "velocity": 0.6062992125984252
          },
          {
            "duration": 0.011261249999989786,
            "durationTicks": 10,
            "midi": 47,
            "name": "B2",
            "ticks": 219784,
            "time": 247.504257,
            "velocity": 0.6062992125984252
          },
          {
            "duration": 0.01126125000004663,
            "durationTicks": 10,
            "midi": 43,
            "name": "G2",
            "ticks": 219848,
            "time": 247.576329,
            "velocity": 0.5039370078740157
          },
          {
            "duration": 0.011261249999989786,
            "durationTicks": 10,
            "midi": 42,
            "name": "F#2",
            "ticks": 219868,
            "time": 247.59885150000002,
            "velocity": 0.8818897637795275
          }
        ]
      },
      {
        "channel": 14,
        "controlChanges": {
          "0": [
            {
              "number": 0,
              "ticks": 770,
              "time": 0.86711625,
              "value": 0
            },
            {
              "number": 0,
              "ticks": 790,
              "time": 0.88963875,
              "value": 0
            }
          ],
          "6": [
            {
              "number": 6,
              "ticks": 850,
              "time": 0.95720625,
              "value": 0.09448818897637795
            },
            {
              "number": 6,
              "ticks": 880,
              "time": 0.99099,
              "value": 0.5039370078740157
            },
            {
              "number": 6,
              "ticks": 910,
              "time": 1.02477375,
              "value": 1
            },
            {
              "number": 6,
              "ticks": 930,
              "time": 1.04729625,
              "value": 0.6299212598425197
            },
            {
              "number": 6,
              "ticks": 960,
              "time": 1.08108,
              "value": 0.4881889763779528
            },
            {
              "number": 6,
              "ticks": 980,
              "time": 1.1036025,
              "value": 0.49606299212598426
            }
          ],
          "7": [
            {
              "number": 7,
              "ticks": 800,
              "time": 0.9009,
              "value": 0.7086614173228346
            }
          ],
          "10": [
            {
              "number": 10,
              "ticks": 800,
              "time": 0.9009,
              "value": 0.5039370078740157
            }
          ],
          "32": [
            {
              "number": 32,
              "ticks": 780,
              "time": 0.8783775,
              "value": 0
            }
          ],
          "38": [
            {
              "number": 38,
              "ticks": 840,
              "time": 0.945945,
              "value": 0.09448818897637795
            }
          ],
          "91": [
            {
              "number": 91,
              "ticks": 800,
              "time": 0.9009,
              "value": 0.984251968503937
            }
          ],
          "93": [
            {
              "number": 93,
              "ticks": 800,
              "time": 0.9009,
              "value": 0
            }
          ],
          "98": [
            {
              "number": 98,
              "ticks": 870,
              "time": 0.97972875,
              "value": 0.5118110236220472
            },
            {
              "number": 98,
              "ticks": 900,
              "time": 1.0135125,
              "value": 0.5118110236220472
            },
            {
              "number": 98,
              "ticks": 920,
              "time": 1.036035,
              "value": 0.2755905511811024
            },
            {
              "number": 98,
              "ticks": 950,
              "time": 1.06981875,
              "value": 0.2755905511811024
            },
            {
              "number": 98,
              "ticks": 970,
              "time": 1.09234125,
              "value": 0.5118110236220472
            }
          ],
          "99": [
            {
              "number": 99,
              "ticks": 860,
              "time": 0.9684675,
              "value": 0.2204724409448819
            },
            {
              "number": 99,
              "ticks": 890,
              "time": 1.00225125,
              "value": 0.2283464566929134
            },
            {
              "number": 99,
              "ticks": 940,
              "time": 1.0585575,
              "value": 0.1889763779527559
            }
          ],
          "100": [
            {
              "number": 100,
              "ticks": 830,
              "time": 0.93468375,
              "value": 0
            }
          ],
          "101": [
            {
              "number": 101,
              "ticks": 820,
              "time": 0.9234225,
              "value": 0
            }
          ]
        },
        "pitchBends": [],
        "instrument": {
          "family": "piano",
          "number": 0,
          "name": "acoustic grand piano"
        },
        "name": "",
        "notes": [
          {
            "duration": 0.01126125,
            "durationTicks": 10,
            "midi": 65,
            "name": "F4",
            "ticks": 3360,
            "time": 3.78378,
            "velocity": 0.2992125984251969
          },
          {
            "duration": 0.011261250000000445,
            "durationTicks": 10,
            "midi": 35,
            "name": "B1",
            "ticks": 3840,
            "time": 4.32432,
            "velocity": 0.7244094488188977
          },
          {
            "duration": 0.011261249999999556,
            "durationTicks": 10,
            "midi": 35,
            "name": "B1",
            "ticks": 6640,
            "time": 7.47747,
            "velocity": 0.5118110236220472
          },
          {
            "duration": 0.011261249999998668,
            "durationTicks": 10,
            "midi": 35,
            "name": "B1",
            "ticks": 11420,
            "time": 12.860347500000001,
            "velocity": 0.47244094488188976
          },
          {
            "duration": 0.011261250000000445,
            "durationTicks": 10,
            "midi": 35,
            "name": "B1",
            "ticks": 15260,
            "time": 17.1846675,
            "velocity": 0.5039370078740157
          },
          {
            "duration": 0.011261250000000445,
            "durationTicks": 10,
            "midi": 35,
            "name": "B1",
            "ticks": 18140,
            "time": 20.4279075,
            "velocity": 0.5275590551181102
          },
          {
            "duration": 0.011261250000000445,
            "durationTicks": 10,
            "midi": 35,
            "name": "B1",
            "ticks": 18720,
            "time": 21.08106,
            "velocity": 0.5039370078740157
          },
          {
            "duration": 0.011261250000000445,
            "durationTicks": 10,
            "midi": 65,
            "name": "F4",
            "ticks": 18960,
            "time": 21.35133,
            "velocity": 0.03937007874015748
          },
          {
            "duration": 0.011261250000000445,
            "durationTicks": 10,
            "midi": 65,
            "name": "F4",
            "ticks": 19040,
            "time": 21.44142,
            "velocity": 0.18110236220472442
          },
          {
            "duration": 0.011261250000000445,
            "durationTicks": 10,
            "midi": 35,
            "name": "B1",
            "ticks": 19120,
            "time": 21.53151,
            "velocity": 0.5039370078740157
          },
          {
            "duration": 0.011261250000000445,
            "durationTicks": 10,
            "midi": 65,
            "name": "F4",
            "ticks": 19120,
            "time": 21.53151,
            "velocity": 0.47244094488188976
          },
          {
            "duration": 0.011261250000000445,
            "durationTicks": 10,
            "midi": 65,
            "name": "F4",
            "ticks": 19200,
            "time": 21.6216,
            "velocity": 0.6299212598425197
          },
          {
            "duration": 0.011261250000000445,
            "durationTicks": 10,
            "midi": 35,
            "name": "B1",
            "ticks": 19200,
            "time": 21.6216,
            "velocity": 0.6929133858267716
          },
          {
            "duration": 0.011261250000000445,
            "durationTicks": 10,
            "midi": 35,
            "name": "B1",
            "ticks": 19360,
            "time": 21.80178,
            "velocity": 0.6929133858267716
          },
          {
            "duration": 0.011261250000000445,
            "durationTicks": 10,
            "midi": 35,
            "name": "B1",
            "ticks": 19680,
            "time": 22.16214,
            "velocity": 0.6929133858267716
          },
          {
            "duration": 0.011261250000000445,
            "durationTicks": 10,
            "midi": 65,
            "name": "F4",
            "ticks": 19920,
            "time": 22.43241,
            "velocity": 0.2440944881889764
          },
          {
            "duration": 0.011261249999996892,
            "durationTicks": 10,
            "midi": 65,
            "name": "F4",
            "ticks": 19960,
            "time": 22.477455000000003,
            "velocity": 0.13385826771653545
          },
          {
            "duration": 0.011261250000000445,
            "durationTicks": 10,
            "midi": 65,
            "name": "F4",
            "ticks": 20000,
            "time": 22.5225,
            "velocity": 0.05511811023622047
          },
          {
            "duration": 0.011261250000000445,
            "durationTicks": 10,
            "midi": 35,
            "name": "B1",
            "ticks": 20160,
            "time": 22.70268,
            "velocity": 0.6929133858267716
          },
          {
            "duration": 0.011261250000000445,
            "durationTicks": 10,
            "midi": 65,
            "name": "F4",
            "ticks": 20400,
            "time": 22.97295,
            "velocity": 0.4015748031496063
          },
          {
            "duration": 0.011261250000000445,
            "durationTicks": 10,
            "midi": 35,
            "name": "B1",
            "ticks": 20560,
            "time": 23.15313,
            "velocity": 0.6929133858267716
          },
          {
            "duration": 0.011261250000000445,
            "durationTicks": 10,
            "midi": 35,
            "name": "B1",
            "ticks": 20880,
            "time": 23.51349,
            "velocity": 0.47244094488188976
          },
          {
            "duration": 0.011261250000000445,
            "durationTicks": 10,
            "midi": 65,
            "name": "F4",
            "ticks": 20960,
            "time": 23.60358,
            "velocity": 0.2283464566929134
          },
          {
            "duration": 0.011261250000000445,
            "durationTicks": 10,
            "midi": 65,
            "name": "F4",
            "ticks": 21040,
            "time": 23.69367,
            "velocity": 0.47244094488188976
          },
          {
            "duration": 0.011261250000000445,
            "durationTicks": 10,
            "midi": 35,
            "name": "B1",
            "ticks": 21120,
            "time": 23.78376,
            "velocity": 0.6062992125984252
          },
          {
            "duration": 0.011261250000000445,
            "durationTicks": 10,
            "midi": 65,
            "name": "F4",
            "ticks": 21120,
            "time": 23.78376,
            "velocity": 0.5905511811023622
          },
          {
            "duration": 0.011261250000000445,
            "durationTicks": 10,
            "midi": 35,
            "name": "B1",
            "ticks": 21280,
            "time": 23.96394,
            "velocity": 0.6929133858267716
          },
          {
            "duration": 0.011261250000000445,
            "durationTicks": 10,
            "midi": 35,
            "name": "B1",
            "ticks": 21600,
            "time": 24.3243,
            "velocity": 0.6929133858267716
          },
          {
            "duration": 0.011261250000000445,
            "durationTicks": 10,
            "midi": 65,
            "name": "F4",
            "ticks": 21840,
            "time": 24.59457,
            "velocity": 0.2755905511811024
          },
          {
            "duration": 0.011261249999996892,
            "durationTicks": 10,
            "midi": 65,
            "name": "F4",
            "ticks": 21880,
            "time": 24.639615000000003,
            "velocity": 0.10236220472440945
          },
          {
            "duration": 0.011261250000000445,
            "durationTicks": 10,
            "midi": 65,
            "name": "F4",
            "ticks": 21920,
            "time": 24.68466,
            "velocity": 0.031496062992125984
          },
          {
            "duration": 0.011261250000000445,
            "durationTicks": 10,
            "midi": 35,
            "name": "B1",
            "ticks": 22080,
            "time": 24.86484,
            "velocity": 0.6929133858267716
          },
          {
            "duration": 0.011261249999996892,
            "durationTicks": 10,
            "midi": 65,
            "name": "F4",
            "ticks": 22330,
            "time": 25.14637125,
            "velocity": 0.4015748031496063
          },
          {
            "duration": 0.011261250000000445,
            "durationTicks": 10,
            "midi": 35,
            "name": "B1",
            "ticks": 22480,
            "time": 25.31529,
            "velocity": 0.6929133858267716
          },
          {
            "duration": 0.011261250000000445,
            "durationTicks": 10,
            "midi": 65,
            "name": "F4",
            "ticks": 22720,
            "time": 25.58556,
            "velocity": 0.5118110236220472
          },
          {
            "duration": 0.011261250000000445,
            "durationTicks": 10,
            "midi": 65,
            "name": "F4",
            "ticks": 22800,
            "time": 25.67565,
            "velocity": 0.6456692913385826
          },
          {
            "duration": 0.011261250000000445,
            "durationTicks": 10,
            "midi": 35,
            "name": "B1",
            "ticks": 23040,
            "time": 25.94592,
            "velocity": 0.6929133858267716
          },
          {
            "duration": 0.011261249999996892,
            "durationTicks": 10,
            "midi": 65,
            "name": "F4",
            "ticks": 23290,
            "time": 26.22745125,
            "velocity": 0.31496062992125984
          },
          {
            "duration": 0.011261250000000445,
            "durationTicks": 10,
            "midi": 35,
            "name": "B1",
            "ticks": 23520,
            "time": 26.48646,
            "velocity": 0.7086614173228346
          },
          {
            "duration": 0.011261249999996892,
            "durationTicks": 10,
            "midi": 65,
            "name": "F4",
            "ticks": 23770,
            "time": 26.76799125,
            "velocity": 0.49606299212598426
          },
          {
            "duration": 0.011261250000000445,
            "durationTicks": 10,
            "midi": 35,
            "name": "B1",
            "ticks": 24000,
            "time": 27.027,
            "velocity": 0.7086614173228346
          },
          {
            "duration": 0.011261249999996892,
            "durationTicks": 10,
            "midi": 65,
            "name": "F4",
            "ticks": 24250,
            "time": 27.30853125,
            "velocity": 0.49606299212598426
          },
          {
            "duration": 0.011261250000000445,
            "durationTicks": 10,
            "midi": 35,
            "name": "B1",
            "ticks": 24480,
            "time": 27.56754,
            "velocity": 0.7086614173228346
          },
          {
            "duration": 0.011261249999996892,
            "durationTicks": 10,
            "midi": 65,
            "name": "F4",
            "ticks": 24730,
            "time": 27.84907125,
            "velocity": 0.49606299212598426
          },
          {
            "duration": 0.011261250000000445,
            "durationTicks": 10,
            "midi": 35,
            "name": "B1",
            "ticks": 24880,
            "time": 28.01799,
            "velocity": 0.7874015748031497
          },
          {
            "duration": 0.011261250000000445,
            "durationTicks": 10,
            "midi": 65,
            "name": "F4",
            "ticks": 25440,
            "time": 28.64862,
            "velocity": 0.49606299212598426
          },
          {
            "duration": 0.011261250000003997,
            "durationTicks": 10,
            "midi": 35,
            "name": "B1",
            "ticks": 25560,
            "time": 28.783755,
            "velocity": 0.8661417322834646
          },
          {
            "duration": 0.011261250000000445,
            "durationTicks": 10,
            "midi": 35,
            "name": "B1",
            "ticks": 25800,
            "time": 29.054025000000003,
            "velocity": 0.8818897637795275
          },
          {
            "duration": 0.011261250000000445,
            "durationTicks": 10,
            "midi": 35,
            "name": "B1",
            "ticks": 26880,
            "time": 30.27024,
            "velocity": 0.6220472440944882
          },
          {
            "duration": 0.011261249999996892,
            "durationTicks": 10,
            "midi": 35,
            "name": "B1",
            "ticks": 29640,
            "time": 33.378345,
            "velocity": 0.48031496062992124
          },
          {
            "duration": 0.011261250000003997,
            "durationTicks": 10,
            "midi": 35,
            "name": "B1",
            "ticks": 29900,
            "time": 33.6711375,
            "velocity": 0.49606299212598426
          },
          {
            "duration": 0.011261250000003997,
            "durationTicks": 10,
            "midi": 35,
            "name": "B1",
            "ticks": 30613,
            "time": 34.474064625,
            "velocity": 0.47244094488188976
          },
          {
            "duration": 0.011261249999996892,
            "durationTicks": 10,
            "midi": 35,
            "name": "B1",
            "ticks": 33517,
            "time": 37.744331625,
            "velocity": 0.5275590551181102
          },
          {
            "duration": 0.011261249999996892,
            "durationTicks": 10,
            "midi": 35,
            "name": "B1",
            "ticks": 38310,
            "time": 43.14184875,
            "velocity": 0.5275590551181102
          },
          {
            "duration": 0.011261249999996892,
            "durationTicks": 10,
            "midi": 35,
            "name": "B1",
            "ticks": 40714,
            "time": 45.849053250000004,
            "velocity": 0.5354330708661418
          },
          {
            "duration": 0.011261249999996892,
            "durationTicks": 10,
            "midi": 35,
            "name": "B1",
            "ticks": 42240,
            "time": 47.56752,
            "velocity": 0.5118110236220472
          },
          {
            "duration": 0.011261249999996892,
            "durationTicks": 10,
            "midi": 35,
            "name": "B1",
            "ticks": 44520,
            "time": 50.135085000000004,
            "velocity": 0.4645669291338583
          },
          {
            "duration": 0.011261249999996892,
            "durationTicks": 10,
            "midi": 65,
            "name": "F4",
            "ticks": 49610,
            "time": 55.867061250000006,
            "velocity": 0.10236220472440945
          },
          {
            "duration": 0.011261250000003997,
            "durationTicks": 10,
            "midi": 65,
            "name": "F4",
            "ticks": 49690,
            "time": 55.95715125,
            "velocity": 0.11811023622047244
          },
          {
            "duration": 0.011261249999996892,
            "durationTicks": 10,
            "midi": 65,
            "name": "F4",
            "ticks": 49850,
            "time": 56.13733125,
            "velocity": 0.16535433070866143
          },
          {
            "duration": 0.011261249999996892,
            "durationTicks": 10,
            "midi": 35,
            "name": "B1",
            "ticks": 49920,
            "time": 56.21616,
            "velocity": 0.31496062992125984
          },
          {
            "duration": 0.011261249999996892,
            "durationTicks": 10,
            "midi": 65,
            "name": "F4",
            "ticks": 54410,
            "time": 61.272461250000006,
            "velocity": 0.2125984251968504
          },
          {
            "duration": 0.011261250000003997,
            "durationTicks": 10,
            "midi": 65,
            "name": "F4",
            "ticks": 54490,
            "time": 61.36255125,
            "velocity": 0.5905511811023622
          },
          {
            "duration": 0.011261249999996892,
            "durationTicks": 10,
            "midi": 35,
            "name": "B1",
            "ticks": 54720,
            "time": 61.62156,
            "velocity": 0.6850393700787402
          },
          {
            "duration": 0.011261249999996892,
            "durationTicks": 10,
            "midi": 35,
            "name": "B1",
            "ticks": 55107,
            "time": 62.057370375000005,
            "velocity": 0.6850393700787402
          },
          {
            "duration": 0.011261249999996892,
            "durationTicks": 10,
            "midi": 35,
            "name": "B1",
            "ticks": 55437,
            "time": 62.42899162500001,
            "velocity": 0.6850393700787402
          },
          {
            "duration": 0.011261249999996892,
            "durationTicks": 10,
            "midi": 35,
            "name": "B1",
            "ticks": 55680,
            "time": 62.70264,
            "velocity": 0.6141732283464567
          },
          {
            "duration": 0.011261249999996892,
            "durationTicks": 10,
            "midi": 65,
            "name": "F4",
            "ticks": 56400,
            "time": 63.513450000000006,
            "velocity": 0.6771653543307087
          },
          {
            "duration": 0.011261249999996892,
            "durationTicks": 10,
            "midi": 35,
            "name": "B1",
            "ticks": 56520,
            "time": 63.648585000000004,
            "velocity": 0.8582677165354331
          },
          {
            "duration": 0.011261249999996892,
            "durationTicks": 10,
            "midi": 35,
            "name": "B1",
            "ticks": 56540,
            "time": 63.671107500000005,
            "velocity": 0.6141732283464567
          },
          {
            "duration": 0.011261249999989786,
            "durationTicks": 10,
            "midi": 65,
            "name": "F4",
            "ticks": 57180,
            "time": 64.3918275,
            "velocity": 0.031496062992125984
          },
          {
            "duration": 0.011261250000003997,
            "durationTicks": 10,
            "midi": 65,
            "name": "F4",
            "ticks": 57255,
            "time": 64.476286875,
            "velocity": 0.25984251968503935
          },
          {
            "duration": 0.011261250000003997,
            "durationTicks": 10,
            "midi": 65,
            "name": "F4",
            "ticks": 57340,
            "time": 64.5720075,
            "velocity": 0.6456692913385826
          },
          {
            "duration": 0.011261250000003997,
            "durationTicks": 10,
            "midi": 35,
            "name": "B1",
            "ticks": 57480,
            "time": 64.729665,
            "velocity": 0.6929133858267716
          },
          {
            "duration": 0.011261249999989786,
            "durationTicks": 10,
            "midi": 35,
            "name": "B1",
            "ticks": 59040,
            "time": 66.48642000000001,
            "velocity": 0.4330708661417323
          },
          {
            "duration": 0.011261249999989786,
            "durationTicks": 10,
            "midi": 65,
            "name": "F4",
            "ticks": 59198,
            "time": 66.66434775,
            "velocity": 0.2125984251968504
          },
          {
            "duration": 0.011261249999989786,
            "durationTicks": 10,
            "midi": 65,
            "name": "F4",
            "ticks": 59281,
            "time": 66.757816125,
            "velocity": 0.4015748031496063
          },
          {
            "duration": 0.011261250000003997,
            "durationTicks": 10,
            "midi": 35,
            "name": "B1",
            "ticks": 59400,
            "time": 66.891825,
            "velocity": 0.6141732283464567
          },
          {
            "duration": 0.011261249999989786,
            "durationTicks": 10,
            "midi": 35,
            "name": "B1",
            "ticks": 60661,
            "time": 68.311868625,
            "velocity": 0.5511811023622047
          },
          {
            "duration": 0.011261249999989786,
            "durationTicks": 10,
            "midi": 65,
            "name": "F4",
            "ticks": 61118,
            "time": 68.82650775,
            "velocity": 0.2125984251968504
          },
          {
            "duration": 0.011261249999989786,
            "durationTicks": 10,
            "midi": 65,
            "name": "F4",
            "ticks": 61201,
            "time": 68.919976125,
            "velocity": 0.4015748031496063
          },
          {
            "duration": 0.011261250000003997,
            "durationTicks": 10,
            "midi": 35,
            "name": "B1",
            "ticks": 61320,
            "time": 69.053985,
            "velocity": 0.5275590551181102
          },
          {
            "duration": 0.011261249999989786,
            "durationTicks": 10,
            "midi": 65,
            "name": "F4",
            "ticks": 63040,
            "time": 70.99092,
            "velocity": 0.49606299212598426
          },
          {
            "duration": 0.011261250000003997,
            "durationTicks": 10,
            "midi": 65,
            "name": "F4",
            "ticks": 63120,
            "time": 71.08101,
            "velocity": 0.5905511811023622
          },
          {
            "duration": 0.011261250000003997,
            "durationTicks": 10,
            "midi": 35,
            "name": "B1",
            "ticks": 63360,
            "time": 71.35128,
            "velocity": 0.7086614173228346
          },
          {
            "duration": 0.011261250000003997,
            "durationTicks": 10,
            "midi": 35,
            "name": "B1",
            "ticks": 63787,
            "time": 71.832135375,
            "velocity": 0.7086614173228346
          },
          {
            "duration": 0.011261250000003997,
            "durationTicks": 10,
            "midi": 35,
            "name": "B1",
            "ticks": 64129,
            "time": 72.217270125,
            "velocity": 0.7086614173228346
          },
          {
            "duration": 0.011261250000003997,
            "durationTicks": 10,
            "midi": 35,
            "name": "B1",
            "ticks": 64530,
            "time": 72.66884625,
            "velocity": 0.7086614173228346
          },
          {
            "duration": 0.011261250000003997,
            "durationTicks": 10,
            "midi": 35,
            "name": "B1",
            "ticks": 64800,
            "time": 72.97290000000001,
            "velocity": 0.7086614173228346
          },
          {
            "duration": 0.011261250000003997,
            "durationTicks": 10,
            "midi": 65,
            "name": "F4",
            "ticks": 64800,
            "time": 72.97290000000001,
            "velocity": 0.4015748031496063
          },
          {
            "duration": 0.011261250000003997,
            "durationTicks": 10,
            "midi": 35,
            "name": "B1",
            "ticks": 65040,
            "time": 73.24317,
            "velocity": 0.7086614173228346
          },
          {
            "duration": 0.011261250000003997,
            "durationTicks": 10,
            "midi": 35,
            "name": "B1",
            "ticks": 65280,
            "time": 73.51344,
            "velocity": 0.6929133858267716
          },
          {
            "duration": 0.011261249999989786,
            "durationTicks": 10,
            "midi": 35,
            "name": "B1",
            "ticks": 67120,
            "time": 75.58551000000001,
            "velocity": 0.31496062992125984
          },
          {
            "duration": 0.011261250000003997,
            "durationTicks": 10,
            "midi": 35,
            "name": "B1",
            "ticks": 67200,
            "time": 75.6756,
            "velocity": 0.5039370078740157
          },
          {
            "duration": 0.011261250000003997,
            "durationTicks": 10,
            "midi": 65,
            "name": "F4",
            "ticks": 67200,
            "time": 75.6756,
            "velocity": 0.49606299212598426
          },
          {
            "duration": 0.011261250000018208,
            "durationTicks": 10,
            "midi": 35,
            "name": "B1",
            "ticks": 67680,
            "time": 76.21614,
            "velocity": 0.6929133858267716
          },
          {
            "duration": 0.011261250000003997,
            "durationTicks": 10,
            "midi": 65,
            "name": "F4",
            "ticks": 68175,
            "time": 76.773571875,
            "velocity": 0.49606299212598426
          },
          {
            "duration": 0.011261249999989786,
            "durationTicks": 10,
            "midi": 65,
            "name": "F4",
            "ticks": 68229,
            "time": 76.834382625,
            "velocity": 0.2440944881889764
          },
          {
            "duration": 0.011261250000003997,
            "durationTicks": 10,
            "midi": 65,
            "name": "F4",
            "ticks": 68286,
            "time": 76.89857175,
            "velocity": 0.14173228346456693
          },
          {
            "duration": 0.011261250000003997,
            "durationTicks": 10,
            "midi": 65,
            "name": "F4",
            "ticks": 68342,
            "time": 76.96163475,
            "velocity": 0.10236220472440945
          },
          {
            "duration": 0.011261250000003997,
            "durationTicks": 10,
            "midi": 35,
            "name": "B1",
            "ticks": 69120,
            "time": 77.83776,
            "velocity": 0.7480314960629921
          },
          {
            "duration": 0.011261249999989786,
            "durationTicks": 10,
            "midi": 35,
            "name": "B1",
            "ticks": 76000,
            "time": 85.58550000000001,
            "velocity": 0.5511811023622047
          },
          {
            "duration": 0.011261249999989786,
            "durationTicks": 10,
            "midi": 35,
            "name": "B1",
            "ticks": 76690,
            "time": 86.36252625,
            "velocity": 0.5511811023622047
          },
          {
            "duration": 0.011261250000003997,
            "durationTicks": 10,
            "midi": 65,
            "name": "F4",
            "ticks": 77886,
            "time": 87.70937175,
            "velocity": 0.06299212598425197
          },
          {
            "duration": 0.011261250000003997,
            "durationTicks": 10,
            "midi": 65,
            "name": "F4",
            "ticks": 78240,
            "time": 88.10802000000001,
            "velocity": 0.031496062992125984
          },
          {
            "duration": 0.011261250000003997,
            "durationTicks": 10,
            "midi": 65,
            "name": "F4",
            "ticks": 78352,
            "time": 88.234146,
            "velocity": 0.11811023622047244
          },
          {
            "duration": 0.011261250000003997,
            "durationTicks": 10,
            "midi": 35,
            "name": "B1",
            "ticks": 78600,
            "time": 88.513425,
            "velocity": 0.6929133858267716
          },
          {
            "duration": 0.011261250000003997,
            "durationTicks": 10,
            "midi": 65,
            "name": "F4",
            "ticks": 80160,
            "time": 90.27018000000001,
            "velocity": 0.07874015748031496
          },
          {
            "duration": 0.011261250000003997,
            "durationTicks": 10,
            "midi": 35,
            "name": "B1",
            "ticks": 80520,
            "time": 90.675585,
            "velocity": 0.6929133858267716
          },
          {
            "duration": 0.011261250000003997,
            "durationTicks": 10,
            "midi": 65,
            "name": "F4",
            "ticks": 82564,
            "time": 92.9773845,
            "velocity": 0.6220472440944882
          },
          {
            "duration": 0.011261250000003997,
            "durationTicks": 10,
            "midi": 35,
            "name": "B1",
            "ticks": 82800,
            "time": 93.24315,
            "velocity": 0.6062992125984252
          },
          {
            "duration": 0.011261249999989786,
            "durationTicks": 10,
            "midi": 65,
            "name": "F4",
            "ticks": 82810,
            "time": 93.25441125,
            "velocity": 0.2204724409448819
          },
          {
            "duration": 0.011261249999989786,
            "durationTicks": 10,
            "midi": 65,
            "name": "F4",
            "ticks": 82960,
            "time": 93.42333,
            "velocity": 0.2677165354330709
          },
          {
            "duration": 0.011261249999989786,
            "durationTicks": 10,
            "midi": 65,
            "name": "F4",
            "ticks": 83048,
            "time": 93.52242900000002,
            "velocity": 0.7086614173228346
          },
          {
            "duration": 0.011261250000003997,
            "durationTicks": 10,
            "midi": 35,
            "name": "B1",
            "ticks": 83160,
            "time": 93.648555,
            "velocity": 0.5039370078740157
          },
          {
            "duration": 0.011261250000003997,
            "durationTicks": 10,
            "midi": 35,
            "name": "B1",
            "ticks": 83510,
            "time": 94.04269875,
            "velocity": 0.6929133858267716
          },
          {
            "duration": 0.011261250000003997,
            "durationTicks": 10,
            "midi": 35,
            "name": "B1",
            "ticks": 88320,
            "time": 99.45936,
            "velocity": 0.7874015748031497
          },
          {
            "duration": 0.011261250000003997,
            "durationTicks": 10,
            "midi": 65,
            "name": "F4",
            "ticks": 88320,
            "time": 99.45936,
            "velocity": 0.5905511811023622
          },
          {
            "duration": 0.011261250000003997,
            "durationTicks": 10,
            "midi": 35,
            "name": "B1",
            "ticks": 88560,
            "time": 99.72963,
            "velocity": 0.7874015748031497
          },
          {
            "duration": 0.011261250000003997,
            "durationTicks": 10,
            "midi": 65,
            "name": "F4",
            "ticks": 88560,
            "time": 99.72963,
            "velocity": 0.5905511811023622
          },
          {
            "duration": 0.011261249999989786,
            "durationTicks": 10,
            "midi": 65,
            "name": "F4",
            "ticks": 88960,
            "time": 100.18008,
            "velocity": 0.031496062992125984
          },
          {
            "duration": 0.011261250000003997,
            "durationTicks": 10,
            "midi": 65,
            "name": "F4",
            "ticks": 89040,
            "time": 100.27017000000001,
            "velocity": 0.1968503937007874
          },
          {
            "duration": 0.011261250000003997,
            "durationTicks": 10,
            "midi": 65,
            "name": "F4",
            "ticks": 89120,
            "time": 100.36026,
            "velocity": 0.33858267716535434
          },
          {
            "duration": 0.011261249999989786,
            "durationTicks": 10,
            "midi": 65,
            "name": "F4",
            "ticks": 89200,
            "time": 100.45035000000001,
            "velocity": 0.4645669291338583
          },
          {
            "duration": 0.011261250000003997,
            "durationTicks": 10,
            "midi": 35,
            "name": "B1",
            "ticks": 89280,
            "time": 100.54044,
            "velocity": 0.7874015748031497
          },
          {
            "duration": 0.011261250000003997,
            "durationTicks": 10,
            "midi": 65,
            "name": "F4",
            "ticks": 89280,
            "time": 100.54044,
            "velocity": 0.6535433070866141
          },
          {
            "duration": 0.011261250000003997,
            "durationTicks": 10,
            "midi": 35,
            "name": "B1",
            "ticks": 89760,
            "time": 101.08098000000001,
            "velocity": 0.6062992125984252
          },
          {
            "duration": 0.011261250000003997,
            "durationTicks": 10,
            "midi": 65,
            "name": "F4",
            "ticks": 90000,
            "time": 101.35125000000001,
            "velocity": 0.4015748031496063
          },
          {
            "duration": 0.011261250000003997,
            "durationTicks": 10,
            "midi": 35,
            "name": "B1",
            "ticks": 90120,
            "time": 101.486385,
            "velocity": 0.7874015748031497
          },
          {
            "duration": 0.011261250000003997,
            "durationTicks": 10,
            "midi": 35,
            "name": "B1",
            "ticks": 91109,
            "time": 102.60012262500001,
            "velocity": 0.44881889763779526
          },
          {
            "duration": 0.011261250000003997,
            "durationTicks": 10,
            "midi": 35,
            "name": "B1",
            "ticks": 93000,
            "time": 104.729625,
            "velocity": 0.7244094488188977
          },
          {
            "duration": 0.011261250000003997,
            "durationTicks": 10,
            "midi": 65,
            "name": "F4",
            "ticks": 93600,
            "time": 105.40530000000001,
            "velocity": 0.2125984251968504
          },
          {
            "duration": 0.011261250000003997,
            "durationTicks": 10,
            "midi": 65,
            "name": "F4",
            "ticks": 93680,
            "time": 105.49539,
            "velocity": 0.2125984251968504
          },
          {
            "duration": 0.011261249999989786,
            "durationTicks": 10,
            "midi": 65,
            "name": "F4",
            "ticks": 93760,
            "time": 105.58548,
            "velocity": 0.18110236220472442
          },
          {
            "duration": 0.011261250000003997,
            "durationTicks": 10,
            "midi": 35,
            "name": "B1",
            "ticks": 94080,
            "time": 105.94584,
            "velocity": 0.6929133858267716
          },
          {
            "duration": 0.011261250000018208,
            "durationTicks": 10,
            "midi": 35,
            "name": "B1",
            "ticks": 101460,
            "time": 114.2566425,
            "velocity": 0.6929133858267716
          },
          {
            "duration": 0.011261250000003997,
            "durationTicks": 10,
            "midi": 65,
            "name": "F4",
            "ticks": 101520,
            "time": 114.32421000000001,
            "velocity": 0.4015748031496063
          },
          {
            "duration": 0.011261250000018208,
            "durationTicks": 10,
            "midi": 35,
            "name": "B1",
            "ticks": 105500,
            "time": 118.8061875,
            "velocity": 0.5039370078740157
          },
          {
            "duration": 0.011261250000018208,
            "durationTicks": 10,
            "midi": 35,
            "name": "B1",
            "ticks": 108380,
            "time": 122.0494275,
            "velocity": 0.5275590551181102
          },
          {
            "duration": 0.011261250000003997,
            "durationTicks": 10,
            "midi": 35,
            "name": "B1",
            "ticks": 108960,
            "time": 122.70258000000001,
            "velocity": 0.5039370078740157
          },
          {
            "duration": 0.011261250000003997,
            "durationTicks": 10,
            "midi": 65,
            "name": "F4",
            "ticks": 109200,
            "time": 122.97285000000001,
            "velocity": 0.03937007874015748
          },
          {
            "duration": 0.011261250000003997,
            "durationTicks": 10,
            "midi": 65,
            "name": "F4",
            "ticks": 109280,
            "time": 123.06294,
            "velocity": 0.18110236220472442
          },
          {
            "duration": 0.011261249999989786,
            "durationTicks": 10,
            "midi": 35,
            "name": "B1",
            "ticks": 109360,
            "time": 123.15303000000002,
            "velocity": 0.5039370078740157
          },
          {
            "duration": 0.011261249999989786,
            "durationTicks": 10,
            "midi": 65,
            "name": "F4",
            "ticks": 109360,
            "time": 123.15303000000002,
            "velocity": 0.47244094488188976
          },
          {
            "duration": 0.011261250000003997,
            "durationTicks": 10,
            "midi": 65,
            "name": "F4",
            "ticks": 109440,
            "time": 123.24312,
            "velocity": 0.6299212598425197
          },
          {
            "duration": 0.011261250000003997,
            "durationTicks": 10,
            "midi": 35,
            "name": "B1",
            "ticks": 109440,
            "time": 123.24312,
            "velocity": 0.6929133858267716
          },
          {
            "duration": 0.011261249999989786,
            "durationTicks": 10,
            "midi": 35,
            "name": "B1",
            "ticks": 109600,
            "time": 123.42330000000001,
            "velocity": 0.6929133858267716
          },
          {
            "duration": 0.011261250000018208,
            "durationTicks": 10,
            "midi": 35,
            "name": "B1",
            "ticks": 109920,
            "time": 123.78366,
            "velocity": 0.6929133858267716
          },
          {
            "duration": 0.011261250000003997,
            "durationTicks": 10,
            "midi": 65,
            "name": "F4",
            "ticks": 110160,
            "time": 124.05393000000001,
            "velocity": 0.2440944881889764
          },
          {
            "duration": 0.011261249999989786,
            "durationTicks": 10,
            "midi": 65,
            "name": "F4",
            "ticks": 110200,
            "time": 124.09897500000001,
            "velocity": 0.13385826771653545
          },
          {
            "duration": 0.011261250000003997,
            "durationTicks": 10,
            "midi": 65,
            "name": "F4",
            "ticks": 110240,
            "time": 124.14402,
            "velocity": 0.05511811023622047
          },
          {
            "duration": 0.011261250000003997,
            "durationTicks": 10,
            "midi": 35,
            "name": "B1",
            "ticks": 110400,
            "time": 124.3242,
            "velocity": 0.6929133858267716
          },
          {
            "duration": 0.011261250000003997,
            "durationTicks": 10,
            "midi": 65,
            "name": "F4",
            "ticks": 110640,
            "time": 124.59447,
            "velocity": 0.4015748031496063
          },
          {
            "duration": 0.011261249999989786,
            "durationTicks": 10,
            "midi": 35,
            "name": "B1",
            "ticks": 110800,
            "time": 124.77465000000001,
            "velocity": 0.6929133858267716
          },
          {
            "duration": 0.011261250000003997,
            "durationTicks": 10,
            "midi": 35,
            "name": "B1",
            "ticks": 111120,
            "time": 125.13501000000001,
            "velocity": 0.47244094488188976
          },
          {
            "duration": 0.011261250000003997,
            "durationTicks": 10,
            "midi": 65,
            "name": "F4",
            "ticks": 111200,
            "time": 125.2251,
            "velocity": 0.2283464566929134
          },
          {
            "duration": 0.011261249999989786,
            "durationTicks": 10,
            "midi": 65,
            "name": "F4",
            "ticks": 111280,
            "time": 125.31519000000002,
            "velocity": 0.47244094488188976
          },
          {
            "duration": 0.011261250000003997,
            "durationTicks": 10,
            "midi": 35,
            "name": "B1",
            "ticks": 111360,
            "time": 125.40528,
            "velocity": 0.6062992125984252
          },
          {
            "duration": 0.011261250000003997,
            "durationTicks": 10,
            "midi": 65,
            "name": "F4",
            "ticks": 111360,
            "time": 125.40528,
            "velocity": 0.5905511811023622
          },
          {
            "duration": 0.011261249999989786,
            "durationTicks": 10,
            "midi": 35,
            "name": "B1",
            "ticks": 111520,
            "time": 125.58546000000001,
            "velocity": 0.6929133858267716
          },
          {
            "duration": 0.011261250000018208,
            "durationTicks": 10,
            "midi": 35,
            "name": "B1",
            "ticks": 111840,
            "time": 125.94582,
            "velocity": 0.6929133858267716
          },
          {
            "duration": 0.011261250000003997,
            "durationTicks": 10,
            "midi": 65,
            "name": "F4",
            "ticks": 112080,
            "time": 126.21609000000001,
            "velocity": 0.2755905511811024
          },
          {
            "duration": 0.011261249999989786,
            "durationTicks": 10,
            "midi": 65,
            "name": "F4",
            "ticks": 112120,
            "time": 126.26113500000001,
            "velocity": 0.10236220472440945
          },
          {
            "duration": 0.011261250000003997,
            "durationTicks": 10,
            "midi": 65,
            "name": "F4",
            "ticks": 112160,
            "time": 126.30618,
            "velocity": 0.031496062992125984
          },
          {
            "duration": 0.011261250000003997,
            "durationTicks": 10,
            "midi": 35,
            "name": "B1",
            "ticks": 112320,
            "time": 126.48636,
            "velocity": 0.6929133858267716
          },
          {
            "duration": 0.011261249999989786,
            "durationTicks": 10,
            "midi": 65,
            "name": "F4",
            "ticks": 112570,
            "time": 126.76789125,
            "velocity": 0.4015748031496063
          },
          {
            "duration": 0.011261249999989786,
            "durationTicks": 10,
            "midi": 35,
            "name": "B1",
            "ticks": 112720,
            "time": 126.93681000000001,
            "velocity": 0.6929133858267716
          },
          {
            "duration": 0.011261249999989786,
            "durationTicks": 10,
            "midi": 65,
            "name": "F4",
            "ticks": 112960,
            "time": 127.20708,
            "velocity": 0.5118110236220472
          },
          {
            "duration": 0.011261250000003997,
            "durationTicks": 10,
            "midi": 65,
            "name": "F4",
            "ticks": 113040,
            "time": 127.29717000000001,
            "velocity": 0.6456692913385826
          },
          {
            "duration": 0.011261250000003997,
            "durationTicks": 10,
            "midi": 35,
            "name": "B1",
            "ticks": 113280,
            "time": 127.56744,
            "velocity": 0.6929133858267716
          },
          {
            "duration": 0.011261249999989786,
            "durationTicks": 10,
            "midi": 65,
            "name": "F4",
            "ticks": 113530,
            "time": 127.84897125,
            "velocity": 0.31496062992125984
          },
          {
            "duration": 0.011261250000018208,
            "durationTicks": 10,
            "midi": 35,
            "name": "B1",
            "ticks": 113760,
            "time": 128.10798,
            "velocity": 0.7086614173228346
          },
          {
            "duration": 0.011261249999989786,
            "durationTicks": 10,
            "midi": 65,
            "name": "F4",
            "ticks": 114010,
            "time": 128.38951125,
            "velocity": 0.49606299212598426
          },
          {
            "duration": 0.011261249999989786,
            "durationTicks": 10,
            "midi": 35,
            "name": "B1",
            "ticks": 114240,
            "time": 128.64852000000002,
            "velocity": 0.7086614173228346
          },
          {
            "duration": 0.011261249999989786,
            "durationTicks": 10,
            "midi": 65,
            "name": "F4",
            "ticks": 114490,
            "time": 128.93005125000002,
            "velocity": 0.49606299212598426
          },
          {
            "duration": 0.011261249999989786,
            "durationTicks": 10,
            "midi": 35,
            "name": "B1",
            "ticks": 114720,
            "time": 129.18906,
            "velocity": 0.7086614173228346
          },
          {
            "duration": 0.011261249999989786,
            "durationTicks": 10,
            "midi": 65,
            "name": "F4",
            "ticks": 114970,
            "time": 129.47059125,
            "velocity": 0.49606299212598426
          },
          {
            "duration": 0.011261249999989786,
            "durationTicks": 10,
            "midi": 35,
            "name": "B1",
            "ticks": 115120,
            "time": 129.63951,
            "velocity": 0.7874015748031497
          },
          {
            "duration": 0.011261250000018208,
            "durationTicks": 10,
            "midi": 65,
            "name": "F4",
            "ticks": 115680,
            "time": 130.27014,
            "velocity": 0.49606299212598426
          },
          {
            "duration": 0.011261249999989786,
            "durationTicks": 10,
            "midi": 35,
            "name": "B1",
            "ticks": 115800,
            "time": 130.40527500000002,
            "velocity": 0.8661417322834646
          },
          {
            "duration": 0.011261250000018208,
            "durationTicks": 10,
            "midi": 35,
            "name": "B1",
            "ticks": 116040,
            "time": 130.675545,
            "velocity": 0.8818897637795275
          },
          {
            "duration": 0.011261250000018208,
            "durationTicks": 10,
            "midi": 35,
            "name": "B1",
            "ticks": 117120,
            "time": 131.89176,
            "velocity": 0.6220472440944882
          },
          {
            "duration": 0.011261250000018208,
            "durationTicks": 10,
            "midi": 35,
            "name": "B1",
            "ticks": 119880,
            "time": 134.999865,
            "velocity": 0.48031496062992124
          },
          {
            "duration": 0.011261249999989786,
            "durationTicks": 10,
            "midi": 35,
            "name": "B1",
            "ticks": 120853,
            "time": 136.09558462500001,
            "velocity": 0.47244094488188976
          },
          {
            "duration": 0.011261249999989786,
            "durationTicks": 10,
            "midi": 35,
            "name": "B1",
            "ticks": 128550,
            "time": 144.76336875,
            "velocity": 0.5275590551181102
          },
          {
            "duration": 0.011261249999989786,
            "durationTicks": 10,
            "midi": 35,
            "name": "B1",
            "ticks": 132480,
            "time": 149.18904,
            "velocity": 0.5118110236220472
          },
          {
            "duration": 0.011261249999989786,
            "durationTicks": 10,
            "midi": 65,
            "name": "F4",
            "ticks": 139850,
            "time": 157.48858125,
            "velocity": 0.10236220472440945
          },
          {
            "duration": 0.011261249999989786,
            "durationTicks": 10,
            "midi": 65,
            "name": "F4",
            "ticks": 139920,
            "time": 157.56741,
            "velocity": 0.11811023622047244
          },
          {
            "duration": 0.011261250000018208,
            "durationTicks": 10,
            "midi": 65,
            "name": "F4",
            "ticks": 140050,
            "time": 157.71380625,
            "velocity": 0.16535433070866143
          },
          {
            "duration": 0.011261249999989786,
            "durationTicks": 10,
            "midi": 35,
            "name": "B1",
            "ticks": 140160,
            "time": 157.83768,
            "velocity": 0.31496062992125984
          },
          {
            "duration": 0.011261249999989786,
            "durationTicks": 10,
            "midi": 65,
            "name": "F4",
            "ticks": 144650,
            "time": 162.89398125000002,
            "velocity": 0.2125984251968504
          },
          {
            "duration": 0.011261250000018208,
            "durationTicks": 10,
            "midi": 65,
            "name": "F4",
            "ticks": 144730,
            "time": 162.98407125,
            "velocity": 0.5905511811023622
          },
          {
            "duration": 0.011261249999961365,
            "durationTicks": 10,
            "midi": 35,
            "name": "B1",
            "ticks": 144960,
            "time": 163.24308000000002,
            "velocity": 0.6850393700787402
          },
          {
            "duration": 0.01126125000004663,
            "durationTicks": 10,
            "midi": 35,
            "name": "B1",
            "ticks": 145347,
            "time": 163.67889037499998,
            "velocity": 0.6850393700787402
          },
          {
            "duration": 0.011261250000018208,
            "durationTicks": 10,
            "midi": 35,
            "name": "B1",
            "ticks": 145677,
            "time": 164.05051162499998,
            "velocity": 0.6850393700787402
          },
          {
            "duration": 0.011261249999989786,
            "durationTicks": 10,
            "midi": 35,
            "name": "B1",
            "ticks": 145920,
            "time": 164.32416,
            "velocity": 0.6141732283464567
          },
          {
            "duration": 0.011261249999989786,
            "durationTicks": 10,
            "midi": 65,
            "name": "F4",
            "ticks": 146640,
            "time": 165.13497,
            "velocity": 0.6771653543307087
          },
          {
            "duration": 0.011261249999989786,
            "durationTicks": 10,
            "midi": 35,
            "name": "B1",
            "ticks": 146760,
            "time": 165.270105,
            "velocity": 0.8582677165354331
          },
          {
            "duration": 0.011261249999989786,
            "durationTicks": 10,
            "midi": 35,
            "name": "B1",
            "ticks": 146780,
            "time": 165.2926275,
            "velocity": 0.6141732283464567
          },
          {
            "duration": 0.011261249999989786,
            "durationTicks": 10,
            "midi": 65,
            "name": "F4",
            "ticks": 147420,
            "time": 166.0133475,
            "velocity": 0.031496062992125984
          },
          {
            "duration": 0.011261249999989786,
            "durationTicks": 10,
            "midi": 65,
            "name": "F4",
            "ticks": 147495,
            "time": 166.097806875,
            "velocity": 0.25984251968503935
          },
          {
            "duration": 0.011261250000018208,
            "durationTicks": 10,
            "midi": 65,
            "name": "F4",
            "ticks": 147580,
            "time": 166.1935275,
            "velocity": 0.6456692913385826
          },
          {
            "duration": 0.011261249999989786,
            "durationTicks": 10,
            "midi": 35,
            "name": "B1",
            "ticks": 147720,
            "time": 166.35118500000002,
            "velocity": 0.6929133858267716
          },
          {
            "duration": 0.011261249999989786,
            "durationTicks": 10,
            "midi": 35,
            "name": "B1",
            "ticks": 149280,
            "time": 168.10794,
            "velocity": 0.4330708661417323
          },
          {
            "duration": 0.011261250000018208,
            "durationTicks": 10,
            "midi": 65,
            "name": "F4",
            "ticks": 149438,
            "time": 168.28586775,
            "velocity": 0.2125984251968504
          },
          {
            "duration": 0.011261249999989786,
            "durationTicks": 10,
            "midi": 65,
            "name": "F4",
            "ticks": 149521,
            "time": 168.379336125,
            "velocity": 0.4015748031496063
          },
          {
            "duration": 0.011261249999989786,
            "durationTicks": 10,
            "midi": 35,
            "name": "B1",
            "ticks": 149640,
            "time": 168.51334500000002,
            "velocity": 0.6141732283464567
          },
          {
            "duration": 0.011261249999989786,
            "durationTicks": 10,
            "midi": 35,
            "name": "B1",
            "ticks": 150901,
            "time": 169.93338862500002,
            "velocity": 0.5511811023622047
          },
          {
            "duration": 0.011261250000018208,
            "durationTicks": 10,
            "midi": 65,
            "name": "F4",
            "ticks": 151358,
            "time": 170.44802775,
            "velocity": 0.2125984251968504
          },
          {
            "duration": 0.011261249999989786,
            "durationTicks": 10,
            "midi": 65,
            "name": "F4",
            "ticks": 151441,
            "time": 170.541496125,
            "velocity": 0.4015748031496063
          },
          {
            "duration": 0.011261249999989786,
            "durationTicks": 10,
            "midi": 35,
            "name": "B1",
            "ticks": 151560,
            "time": 170.67550500000002,
            "velocity": 0.5275590551181102
          },
          {
            "duration": 0.011261250000018208,
            "durationTicks": 10,
            "midi": 65,
            "name": "F4",
            "ticks": 153280,
            "time": 172.61244,
            "velocity": 0.49606299212598426
          },
          {
            "duration": 0.011261249999989786,
            "durationTicks": 10,
            "midi": 65,
            "name": "F4",
            "ticks": 153360,
            "time": 172.70253,
            "velocity": 0.5905511811023622
          },
          {
            "duration": 0.011261249999989786,
            "durationTicks": 10,
            "midi": 35,
            "name": "B1",
            "ticks": 153600,
            "time": 172.9728,
            "velocity": 0.7086614173228346
          },
          {
            "duration": 0.011261249999989786,
            "durationTicks": 10,
            "midi": 35,
            "name": "B1",
            "ticks": 154027,
            "time": 173.453655375,
            "velocity": 0.7086614173228346
          },
          {
            "duration": 0.011261249999989786,
            "durationTicks": 10,
            "midi": 35,
            "name": "B1",
            "ticks": 154369,
            "time": 173.838790125,
            "velocity": 0.7086614173228346
          },
          {
            "duration": 0.011261249999989786,
            "durationTicks": 10,
            "midi": 35,
            "name": "B1",
            "ticks": 154770,
            "time": 174.29036625,
            "velocity": 0.7086614173228346
          },
          {
            "duration": 0.011261249999989786,
            "durationTicks": 10,
            "midi": 35,
            "name": "B1",
            "ticks": 155040,
            "time": 174.59442,
            "velocity": 0.7086614173228346
          },
          {
            "duration": 0.011261249999989786,
            "durationTicks": 10,
            "midi": 65,
            "name": "F4",
            "ticks": 155040,
            "time": 174.59442,
            "velocity": 0.4015748031496063
          },
          {
            "duration": 0.011261249999989786,
            "durationTicks": 10,
            "midi": 35,
            "name": "B1",
            "ticks": 155280,
            "time": 174.86469,
            "velocity": 0.7086614173228346
          },
          {
            "duration": 0.011261249999989786,
            "durationTicks": 10,
            "midi": 35,
            "name": "B1",
            "ticks": 155520,
            "time": 175.13496,
            "velocity": 0.6929133858267716
          },
          {
            "duration": 0.011261250000018208,
            "durationTicks": 10,
            "midi": 35,
            "name": "B1",
            "ticks": 157360,
            "time": 177.20703,
            "velocity": 0.31496062992125984
          },
          {
            "duration": 0.011261249999989786,
            "durationTicks": 10,
            "midi": 35,
            "name": "B1",
            "ticks": 157440,
            "time": 177.29712,
            "velocity": 0.5039370078740157
          },
          {
            "duration": 0.011261249999989786,
            "durationTicks": 10,
            "midi": 65,
            "name": "F4",
            "ticks": 157440,
            "time": 177.29712,
            "velocity": 0.49606299212598426
          },
          {
            "duration": 0.011261249999989786,
            "durationTicks": 10,
            "midi": 35,
            "name": "B1",
            "ticks": 157920,
            "time": 177.83766,
            "velocity": 0.6929133858267716
          },
          {
            "duration": 0.011261249999989786,
            "durationTicks": 10,
            "midi": 65,
            "name": "F4",
            "ticks": 158415,
            "time": 178.39509187500002,
            "velocity": 0.49606299212598426
          },
          {
            "duration": 0.011261249999989786,
            "durationTicks": 10,
            "midi": 65,
            "name": "F4",
            "ticks": 158469,
            "time": 178.45590262500002,
            "velocity": 0.2440944881889764
          },
          {
            "duration": 0.011261250000018208,
            "durationTicks": 10,
            "midi": 65,
            "name": "F4",
            "ticks": 158526,
            "time": 178.52009175,
            "velocity": 0.14173228346456693
          },
          {
            "duration": 0.011261249999989786,
            "durationTicks": 10,
            "midi": 65,
            "name": "F4",
            "ticks": 158582,
            "time": 178.58315475,
            "velocity": 0.10236220472440945
          },
          {
            "duration": 0.011261249999989786,
            "durationTicks": 10,
            "midi": 35,
            "name": "B1",
            "ticks": 159360,
            "time": 179.45928,
            "velocity": 0.7480314960629921
          },
          {
            "duration": 0.011261250000018208,
            "durationTicks": 10,
            "midi": 35,
            "name": "B1",
            "ticks": 166240,
            "time": 187.20702,
            "velocity": 0.5511811023622047
          },
          {
            "duration": 0.011261250000018208,
            "durationTicks": 10,
            "midi": 35,
            "name": "B1",
            "ticks": 166930,
            "time": 187.98404625,
            "velocity": 0.5511811023622047
          },
          {
            "duration": 0.011261250000018208,
            "durationTicks": 10,
            "midi": 65,
            "name": "F4",
            "ticks": 168126,
            "time": 189.33089175,
            "velocity": 0.06299212598425197
          },
          {
            "duration": 0.011261249999989786,
            "durationTicks": 10,
            "midi": 65,
            "name": "F4",
            "ticks": 168480,
            "time": 189.72954000000001,
            "velocity": 0.031496062992125984
          },
          {
            "duration": 0.011261249999989786,
            "durationTicks": 10,
            "midi": 65,
            "name": "F4",
            "ticks": 168592,
            "time": 189.855666,
            "velocity": 0.11811023622047244
          },
          {
            "duration": 0.011261249999989786,
            "durationTicks": 10,
            "midi": 35,
            "name": "B1",
            "ticks": 168840,
            "time": 190.13494500000002,
            "velocity": 0.6929133858267716
          },
          {
            "duration": 0.011261249999989786,
            "durationTicks": 10,
            "midi": 65,
            "name": "F4",
            "ticks": 170400,
            "time": 191.89170000000001,
            "velocity": 0.07874015748031496
          },
          {
            "duration": 0.011261249999989786,
            "durationTicks": 10,
            "midi": 35,
            "name": "B1",
            "ticks": 170760,
            "time": 192.29710500000002,
            "velocity": 0.6929133858267716
          },
          {
            "duration": 0.011261249999989786,
            "durationTicks": 10,
            "midi": 65,
            "name": "F4",
            "ticks": 172804,
            "time": 194.5989045,
            "velocity": 0.6220472440944882
          },
          {
            "duration": 0.011261249999989786,
            "durationTicks": 10,
            "midi": 35,
            "name": "B1",
            "ticks": 173040,
            "time": 194.86467000000002,
            "velocity": 0.6062992125984252
          },
          {
            "duration": 0.011261250000018208,
            "durationTicks": 10,
            "midi": 65,
            "name": "F4",
            "ticks": 173050,
            "time": 194.87593125,
            "velocity": 0.2204724409448819
          },
          {
            "duration": 0.011261250000018208,
            "durationTicks": 10,
            "midi": 65,
            "name": "F4",
            "ticks": 173200,
            "time": 195.04485,
            "velocity": 0.2677165354330709
          },
          {
            "duration": 0.011261250000018208,
            "durationTicks": 10,
            "midi": 65,
            "name": "F4",
            "ticks": 173288,
            "time": 195.143949,
            "velocity": 0.7086614173228346
          },
          {
            "duration": 0.011261249999989786,
            "durationTicks": 10,
            "midi": 35,
            "name": "B1",
            "ticks": 173400,
            "time": 195.27007500000002,
            "velocity": 0.5039370078740157
          },
          {
            "duration": 0.011261249999961365,
            "durationTicks": 10,
            "midi": 35,
            "name": "B1",
            "ticks": 173750,
            "time": 195.66421875000003,
            "velocity": 0.6929133858267716
          },
          {
            "duration": 0.011261249999989786,
            "durationTicks": 10,
            "midi": 35,
            "name": "B1",
            "ticks": 178560,
            "time": 201.08088,
            "velocity": 0.7874015748031497
          },
          {
            "duration": 0.011261249999989786,
            "durationTicks": 10,
            "midi": 65,
            "name": "F4",
            "ticks": 178560,
            "time": 201.08088,
            "velocity": 0.5905511811023622
          },
          {
            "duration": 0.011261249999989786,
            "durationTicks": 10,
            "midi": 35,
            "name": "B1",
            "ticks": 178800,
            "time": 201.35115000000002,
            "velocity": 0.7874015748031497
          },
          {
            "duration": 0.011261249999989786,
            "durationTicks": 10,
            "midi": 65,
            "name": "F4",
            "ticks": 178800,
            "time": 201.35115000000002,
            "velocity": 0.5905511811023622
          },
          {
            "duration": 0.011261250000018208,
            "durationTicks": 10,
            "midi": 65,
            "name": "F4",
            "ticks": 179200,
            "time": 201.8016,
            "velocity": 0.031496062992125984
          },
          {
            "duration": 0.011261249999989786,
            "durationTicks": 10,
            "midi": 65,
            "name": "F4",
            "ticks": 179280,
            "time": 201.89169,
            "velocity": 0.1968503937007874
          },
          {
            "duration": 0.011261249999989786,
            "durationTicks": 10,
            "midi": 65,
            "name": "F4",
            "ticks": 179360,
            "time": 201.98178000000001,
            "velocity": 0.33858267716535434
          },
          {
            "duration": 0.011261250000018208,
            "durationTicks": 10,
            "midi": 65,
            "name": "F4",
            "ticks": 179440,
            "time": 202.07187,
            "velocity": 0.4645669291338583
          },
          {
            "duration": 0.011261249999961365,
            "durationTicks": 10,
            "midi": 35,
            "name": "B1",
            "ticks": 179520,
            "time": 202.16196000000002,
            "velocity": 0.7874015748031497
          },
          {
            "duration": 0.011261249999961365,
            "durationTicks": 10,
            "midi": 65,
            "name": "F4",
            "ticks": 179520,
            "time": 202.16196000000002,
            "velocity": 0.6535433070866141
          },
          {
            "duration": 0.011261249999989786,
            "durationTicks": 10,
            "midi": 35,
            "name": "B1",
            "ticks": 180000,
            "time": 202.70250000000001,
            "velocity": 0.6062992125984252
          },
          {
            "duration": 0.011261249999989786,
            "durationTicks": 10,
            "midi": 65,
            "name": "F4",
            "ticks": 180240,
            "time": 202.97277,
            "velocity": 0.4015748031496063
          },
          {
            "duration": 0.011261249999989786,
            "durationTicks": 10,
            "midi": 35,
            "name": "B1",
            "ticks": 180360,
            "time": 203.10790500000002,
            "velocity": 0.7874015748031497
          },
          {
            "duration": 0.011261249999989786,
            "durationTicks": 10,
            "midi": 65,
            "name": "F4",
            "ticks": 181096,
            "time": 203.93673300000003,
            "velocity": 0.10236220472440945
          },
          {
            "duration": 0.011261249999989786,
            "durationTicks": 10,
            "midi": 65,
            "name": "F4",
            "ticks": 181136,
            "time": 203.98177800000002,
            "velocity": 0.3700787401574803
          },
          {
            "duration": 0.011261249999989786,
            "durationTicks": 10,
            "midi": 65,
            "name": "F4",
            "ticks": 181224,
            "time": 204.08087700000002,
            "velocity": 0.47244094488188976
          },
          {
            "duration": 0.011261250000018208,
            "durationTicks": 10,
            "midi": 65,
            "name": "F4",
            "ticks": 181360,
            "time": 204.23403,
            "velocity": 0.5590551181102362
          },
          {
            "duration": 0.011261249999989786,
            "durationTicks": 10,
            "midi": 65,
            "name": "F4",
            "ticks": 181440,
            "time": 204.32412,
            "velocity": 0.6535433070866141
          },
          {
            "duration": 0.011261250000018208,
            "durationTicks": 10,
            "midi": 35,
            "name": "B1",
            "ticks": 181690,
            "time": 204.60565125,
            "velocity": 0.8818897637795275
          },
          {
            "duration": 0.011261249999989786,
            "durationTicks": 10,
            "midi": 35,
            "name": "B1",
            "ticks": 182400,
            "time": 205.4052,
            "velocity": 0.7480314960629921
          },
          {
            "duration": 0.011261250000018208,
            "durationTicks": 10,
            "midi": 35,
            "name": "B1",
            "ticks": 189280,
            "time": 213.15294,
            "velocity": 0.5511811023622047
          },
          {
            "duration": 0.011261250000018208,
            "durationTicks": 10,
            "midi": 35,
            "name": "B1",
            "ticks": 189970,
            "time": 213.92996625,
            "velocity": 0.5511811023622047
          },
          {
            "duration": 0.011261250000018208,
            "durationTicks": 10,
            "midi": 65,
            "name": "F4",
            "ticks": 191166,
            "time": 215.27681175,
            "velocity": 0.06299212598425197
          },
          {
            "duration": 0.011261249999989786,
            "durationTicks": 10,
            "midi": 65,
            "name": "F4",
            "ticks": 191632,
            "time": 215.80158600000001,
            "velocity": 0.11811023622047244
          },
          {
            "duration": 0.011261249999989786,
            "durationTicks": 10,
            "midi": 35,
            "name": "B1",
            "ticks": 191880,
            "time": 216.08086500000002,
            "velocity": 0.6929133858267716
          },
          {
            "duration": 0.011261249999989786,
            "durationTicks": 10,
            "midi": 35,
            "name": "B1",
            "ticks": 193800,
            "time": 218.24302500000002,
            "velocity": 0.6929133858267716
          },
          {
            "duration": 0.011261249999989786,
            "durationTicks": 10,
            "midi": 65,
            "name": "F4",
            "ticks": 195844,
            "time": 220.5448245,
            "velocity": 0.6220472440944882
          },
          {
            "duration": 0.011261249999989786,
            "durationTicks": 10,
            "midi": 35,
            "name": "B1",
            "ticks": 196080,
            "time": 220.81059000000002,
            "velocity": 0.6062992125984252
          },
          {
            "duration": 0.011261250000018208,
            "durationTicks": 10,
            "midi": 65,
            "name": "F4",
            "ticks": 196090,
            "time": 220.82185125,
            "velocity": 0.2204724409448819
          },
          {
            "duration": 0.011261250000018208,
            "durationTicks": 10,
            "midi": 65,
            "name": "F4",
            "ticks": 196240,
            "time": 220.99077,
            "velocity": 0.2677165354330709
          },
          {
            "duration": 0.011261250000018208,
            "durationTicks": 10,
            "midi": 65,
            "name": "F4",
            "ticks": 196328,
            "time": 221.089869,
            "velocity": 0.7086614173228346
          },
          {
            "duration": 0.011261249999989786,
            "durationTicks": 10,
            "midi": 35,
            "name": "B1",
            "ticks": 196440,
            "time": 221.21599500000002,
            "velocity": 0.5039370078740157
          },
          {
            "duration": 0.011261249999961365,
            "durationTicks": 10,
            "midi": 35,
            "name": "B1",
            "ticks": 196790,
            "time": 221.61013875000003,
            "velocity": 0.6929133858267716
          },
          {
            "duration": 0.011261249999989786,
            "durationTicks": 10,
            "midi": 35,
            "name": "B1",
            "ticks": 201600,
            "time": 227.0268,
            "velocity": 0.7874015748031497
          },
          {
            "duration": 0.011261249999989786,
            "durationTicks": 10,
            "midi": 65,
            "name": "F4",
            "ticks": 201600,
            "time": 227.0268,
            "velocity": 0.5905511811023622
          },
          {
            "duration": 0.011261249999989786,
            "durationTicks": 10,
            "midi": 35,
            "name": "B1",
            "ticks": 201840,
            "time": 227.29707000000002,
            "velocity": 0.7874015748031497
          },
          {
            "duration": 0.011261249999989786,
            "durationTicks": 10,
            "midi": 65,
            "name": "F4",
            "ticks": 201840,
            "time": 227.29707000000002,
            "velocity": 0.5905511811023622
          },
          {
            "duration": 0.011261250000018208,
            "durationTicks": 10,
            "midi": 65,
            "name": "F4",
            "ticks": 202240,
            "time": 227.74752,
            "velocity": 0.031496062992125984
          },
          {
            "duration": 0.011261249999989786,
            "durationTicks": 10,
            "midi": 65,
            "name": "F4",
            "ticks": 202320,
            "time": 227.83761,
            "velocity": 0.1968503937007874
          },
          {
            "duration": 0.011261249999989786,
            "durationTicks": 10,
            "midi": 65,
            "name": "F4",
            "ticks": 202400,
            "time": 227.92770000000002,
            "velocity": 0.33858267716535434
          },
          {
            "duration": 0.011261250000018208,
            "durationTicks": 10,
            "midi": 65,
            "name": "F4",
            "ticks": 202480,
            "time": 228.01779,
            "velocity": 0.4645669291338583
          },
          {
            "duration": 0.011261249999961365,
            "durationTicks": 10,
            "midi": 35,
            "name": "B1",
            "ticks": 202560,
            "time": 228.10788000000002,
            "velocity": 0.7874015748031497
          },
          {
            "duration": 0.011261249999961365,
            "durationTicks": 10,
            "midi": 65,
            "name": "F4",
            "ticks": 202560,
            "time": 228.10788000000002,
            "velocity": 0.6535433070866141
          },
          {
            "duration": 0.011261249999989786,
            "durationTicks": 10,
            "midi": 35,
            "name": "B1",
            "ticks": 203040,
            "time": 228.64842000000002,
            "velocity": 0.6062992125984252
          },
          {
            "duration": 0.011261249999989786,
            "durationTicks": 10,
            "midi": 65,
            "name": "F4",
            "ticks": 203280,
            "time": 228.91869,
            "velocity": 0.4015748031496063
          },
          {
            "duration": 0.011261249999989786,
            "durationTicks": 10,
            "midi": 35,
            "name": "B1",
            "ticks": 203400,
            "time": 229.05382500000002,
            "velocity": 0.7874015748031497
          },
          {
            "duration": 0.011261250000018208,
            "durationTicks": 10,
            "midi": 35,
            "name": "B1",
            "ticks": 204389,
            "time": 230.167562625,
            "velocity": 0.44881889763779526
          },
          {
            "duration": 0.011261250000018208,
            "durationTicks": 10,
            "midi": 65,
            "name": "F4",
            "ticks": 205540,
            "time": 231.4637325,
            "velocity": 0.2204724409448819
          },
          {
            "duration": 0.011261249999989786,
            "durationTicks": 10,
            "midi": 65,
            "name": "F4",
            "ticks": 205560,
            "time": 231.486255,
            "velocity": 0.5590551181102362
          },
          {
            "duration": 0.011261249999989786,
            "durationTicks": 10,
            "midi": 35,
            "name": "B1",
            "ticks": 206280,
            "time": 232.297065,
            "velocity": 0.7244094488188977
          },
          {
            "duration": 0.011261249999989786,
            "durationTicks": 10,
            "midi": 35,
            "name": "B1",
            "ticks": 207360,
            "time": 233.51328,
            "velocity": 0.7874015748031497
          },
          {
            "duration": 0.011261250000018208,
            "durationTicks": 10,
            "midi": 35,
            "name": "B1",
            "ticks": 207520,
            "time": 233.69346,
            "velocity": 0.6929133858267716
          },
          {
            "duration": 0.011261249999989786,
            "durationTicks": 10,
            "midi": 35,
            "name": "B1",
            "ticks": 207840,
            "time": 234.05382,
            "velocity": 0.6929133858267716
          },
          {
            "duration": 0.011261249999989786,
            "durationTicks": 10,
            "midi": 65,
            "name": "F4",
            "ticks": 208110,
            "time": 234.35787375,
            "velocity": 0.5590551181102362
          },
          {
            "duration": 0.011261249999989786,
            "durationTicks": 10,
            "midi": 35,
            "name": "B1",
            "ticks": 208320,
            "time": 234.59436,
            "velocity": 0.6929133858267716
          },
          {
            "duration": 0.011261249999989786,
            "durationTicks": 10,
            "midi": 65,
            "name": "F4",
            "ticks": 208590,
            "time": 234.89841375,
            "velocity": 0.5590551181102362
          },
          {
            "duration": 0.011261250000018208,
            "durationTicks": 10,
            "midi": 35,
            "name": "B1",
            "ticks": 208720,
            "time": 235.04481,
            "velocity": 0.6929133858267716
          },
          {
            "duration": 0.011261249999989786,
            "durationTicks": 10,
            "midi": 65,
            "name": "F4",
            "ticks": 208955,
            "time": 235.309449375,
            "velocity": 0.10236220472440945
          },
          {
            "duration": 0.011261249999989786,
            "durationTicks": 10,
            "midi": 65,
            "name": "F4",
            "ticks": 209025,
            "time": 235.388278125,
            "velocity": 0.2125984251968504
          },
          {
            "duration": 0.011261249999989786,
            "durationTicks": 10,
            "midi": 65,
            "name": "F4",
            "ticks": 209045,
            "time": 235.410800625,
            "velocity": 0.3700787401574803
          },
          {
            "duration": 0.011261249999989786,
            "durationTicks": 10,
            "midi": 65,
            "name": "F4",
            "ticks": 209131,
            "time": 235.50764737500003,
            "velocity": 0.2992125984251969
          },
          {
            "duration": 0.011261249999989786,
            "durationTicks": 10,
            "midi": 65,
            "name": "F4",
            "ticks": 209180,
            "time": 235.56282750000003,
            "velocity": 0.25984251968503935
          },
          {
            "duration": 0.011261250000018208,
            "durationTicks": 10,
            "midi": 65,
            "name": "F4",
            "ticks": 209200,
            "time": 235.58535,
            "velocity": 0.5590551181102362
          },
          {
            "duration": 0.011261250000018208,
            "durationTicks": 10,
            "midi": 35,
            "name": "B1",
            "ticks": 209200,
            "time": 235.58535,
            "velocity": 0.3937007874015748
          },
          {
            "duration": 0.011261249999989786,
            "durationTicks": 10,
            "midi": 65,
            "name": "F4",
            "ticks": 209265,
            "time": 235.658548125,
            "velocity": 0.10236220472440945
          },
          {
            "duration": 0.011261250000018208,
            "durationTicks": 10,
            "midi": 65,
            "name": "F4",
            "ticks": 209275,
            "time": 235.669809375,
            "velocity": 0.5590551181102362
          },
          {
            "duration": 0.011261249999989786,
            "durationTicks": 10,
            "midi": 35,
            "name": "B1",
            "ticks": 209280,
            "time": 235.67544,
            "velocity": 0.4330708661417323
          },
          {
            "duration": 0.011261250000018208,
            "durationTicks": 10,
            "midi": 35,
            "name": "B1",
            "ticks": 209440,
            "time": 235.85562,
            "velocity": 0.6929133858267716
          },
          {
            "duration": 0.011261249999989786,
            "durationTicks": 10,
            "midi": 35,
            "name": "B1",
            "ticks": 209760,
            "time": 236.21598,
            "velocity": 0.6929133858267716
          },
          {
            "duration": 0.011261249999961365,
            "durationTicks": 10,
            "midi": 35,
            "name": "B1",
            "ticks": 210240,
            "time": 236.75652000000002,
            "velocity": 0.6929133858267716
          },
          {
            "duration": 0.011261249999989786,
            "durationTicks": 10,
            "midi": 35,
            "name": "B1",
            "ticks": 210600,
            "time": 237.161925,
            "velocity": 0.5039370078740157
          },
          {
            "duration": 0.011261250000018208,
            "durationTicks": 10,
            "midi": 35,
            "name": "B1",
            "ticks": 210640,
            "time": 237.20697,
            "velocity": 0.6929133858267716
          },
          {
            "duration": 0.011261249999989786,
            "durationTicks": 10,
            "midi": 35,
            "name": "B1",
            "ticks": 211140,
            "time": 237.7700325,
            "velocity": 0.5039370078740157
          },
          {
            "duration": 0.011261249999989786,
            "durationTicks": 10,
            "midi": 35,
            "name": "B1",
            "ticks": 211200,
            "time": 237.8376,
            "velocity": 0.5039370078740157
          },
          {
            "duration": 0.011261249999989786,
            "durationTicks": 10,
            "midi": 35,
            "name": "B1",
            "ticks": 211680,
            "time": 238.37814,
            "velocity": 0.5039370078740157
          },
          {
            "duration": 0.011261249999989786,
            "durationTicks": 10,
            "midi": 35,
            "name": "B1",
            "ticks": 212160,
            "time": 238.91868,
            "velocity": 0.5039370078740157
          },
          {
            "duration": 0.011261249999989786,
            "durationTicks": 10,
            "midi": 35,
            "name": "B1",
            "ticks": 212640,
            "time": 239.45922000000002,
            "velocity": 0.5039370078740157
          },
          {
            "duration": 0.011261250000018208,
            "durationTicks": 10,
            "midi": 35,
            "name": "B1",
            "ticks": 213040,
            "time": 239.90967,
            "velocity": 0.7874015748031497
          },
          {
            "duration": 0.011261249999961365,
            "durationTicks": 10,
            "midi": 35,
            "name": "B1",
            "ticks": 214078,
            "time": 241.07858775000003,
            "velocity": 0.5039370078740157
          },
          {
            "duration": 0.011261250000018208,
            "durationTicks": 10,
            "midi": 35,
            "name": "B1",
            "ticks": 214388,
            "time": 241.4276865,
            "velocity": 0.7874015748031497
          },
          {
            "duration": 0.011261249999989786,
            "durationTicks": 10,
            "midi": 35,
            "name": "B1",
            "ticks": 214846,
            "time": 241.94345175000004,
            "velocity": 0.7874015748031497
          },
          {
            "duration": 0.011261250000018208,
            "durationTicks": 10,
            "midi": 35,
            "name": "B1",
            "ticks": 215487,
            "time": 242.665297875,
            "velocity": 0.8818897637795275
          },
          {
            "duration": 0.011261250000018208,
            "durationTicks": 10,
            "midi": 35,
            "name": "B1",
            "ticks": 216415,
            "time": 243.710341875,
            "velocity": 0.25984251968503935
          },
          {
            "duration": 0.011261250000018208,
            "durationTicks": 10,
            "midi": 35,
            "name": "B1",
            "ticks": 216638,
            "time": 243.96146775,
            "velocity": 0.33858267716535434
          },
          {
            "duration": 0.011261249999989786,
            "durationTicks": 10,
            "midi": 35,
            "name": "B1",
            "ticks": 216826,
            "time": 244.17317925000003,
            "velocity": 0.5118110236220472
          },
          {
            "duration": 0.011261250000018208,
            "durationTicks": 10,
            "midi": 35,
            "name": "B1",
            "ticks": 217043,
            "time": 244.417548375,
            "velocity": 0.5984251968503937
          },
          {
            "duration": 0.011261249999989786,
            "durationTicks": 10,
            "midi": 35,
            "name": "B1",
            "ticks": 217310,
            "time": 244.71822375000002,
            "velocity": 0.6929133858267716
          },
          {
            "duration": 0.01126125000004663,
            "durationTicks": 10,
            "midi": 35,
            "name": "B1",
            "ticks": 219848,
            "time": 247.576329,
            "velocity": 0.8818897637795275
          }
        ]
      },
      {
        "channel": 0,
        "controlChanges": {
          "0": [
            {
              "number": 0,
              "ticks": 780,
              "time": 0.8783775,
              "value": 0
            },
            {
              "number": 0,
              "ticks": 800,
              "time": 0.9009,
              "value": 0
            }
          ],
          "32": [
            {
              "number": 32,
              "ticks": 790,
              "time": 0.88963875,
              "value": 0
            },
            {
              "number": 32,
              "ticks": 800,
              "time": 0.9009,
              "value": 0
            }
          ]
        },
        "pitchBends": [],
        "instrument": {
          "family": "piano",
          "number": 0,
          "name": "acoustic grand piano"
        },
        "name": "",
        "notes": []
      },
      {
        "channel": 6,
        "controlChanges": {
          "6": [
            {
              "number": 6,
              "ticks": 850,
              "time": 0.95720625,
              "value": 0.015748031496062992
            },
            {
              "number": 6,
              "ticks": 30260,
              "time": 34.0765425,
              "value": 0.3464566929133858
            },
            {
              "number": 6,
              "ticks": 43180,
              "time": 48.6260775,
              "value": 0.5039370078740157
            },
            {
              "number": 6,
              "ticks": 120500,
              "time": 135.6980625,
              "value": 0.3464566929133858
            },
            {
              "number": 6,
              "ticks": 133420,
              "time": 150.24759749999998,
              "value": 0.5039370078740157
            }
          ],
          "7": [
            {
              "number": 7,
              "ticks": 810,
              "time": 0.91216125,
              "value": 0.5511811023622047
            },
            {
              "number": 7,
              "ticks": 65280,
              "time": 73.51344,
              "value": 0.6299212598425197
            },
            {
              "number": 7,
              "ticks": 70439,
              "time": 79.323118875,
              "value": 0.5905511811023622
            },
            {
              "number": 7,
              "ticks": 101750,
              "time": 114.58321875,
              "value": 0.5511811023622047
            },
            {
              "number": 7,
              "ticks": 155520,
              "time": 175.13496,
              "value": 0.6299212598425197
            },
            {
              "number": 7,
              "ticks": 160679,
              "time": 180.94463887499998,
              "value": 0.5905511811023622
            }
          ],
          "10": [
            {
              "number": 10,
              "ticks": 810,
              "time": 0.91216125,
              "value": 0.2992125984251969
            }
          ],
          "11": [
            {
              "number": 11,
              "ticks": 11440,
              "time": 12.88287,
              "value": 0.3937007874015748
            },
            {
              "number": 11,
              "ticks": 11495,
              "time": 12.944806875000001,
              "value": 0.4015748031496063
            },
            {
              "number": 11,
              "ticks": 11550,
              "time": 13.00674375,
              "value": 0.4094488188976378
            },
            {
              "number": 11,
              "ticks": 11605,
              "time": 13.068680625,
              "value": 0.41732283464566927
            },
            {
              "number": 11,
              "ticks": 11660,
              "time": 13.130617500000001,
              "value": 0.4251968503937008
            },
            {
              "number": 11,
              "ticks": 11715,
              "time": 13.192554375,
              "value": 0.4330708661417323
            },
            {
              "number": 11,
              "ticks": 11770,
              "time": 13.25449125,
              "value": 0.4409448818897638
            },
            {
              "number": 11,
              "ticks": 11825,
              "time": 13.316428125000002,
              "value": 0.44881889763779526
            },
            {
              "number": 11,
              "ticks": 11880,
              "time": 13.378365,
              "value": 0.4566929133858268
            },
            {
              "number": 11,
              "ticks": 11935,
              "time": 13.440301875,
              "value": 0.4645669291338583
            },
            {
              "number": 11,
              "ticks": 11990,
              "time": 13.502238750000002,
              "value": 0.47244094488188976
            },
            {
              "number": 11,
              "ticks": 12045,
              "time": 13.564175625,
              "value": 0.48031496062992124
            },
            {
              "number": 11,
              "ticks": 12100,
              "time": 13.6261125,
              "value": 0.4881889763779528
            },
            {
              "number": 11,
              "ticks": 12155,
              "time": 13.688049375,
              "value": 0.49606299212598426
            },
            {
              "number": 11,
              "ticks": 12210,
              "time": 13.749986250000001,
              "value": 0.5039370078740157
            },
            {
              "number": 11,
              "ticks": 12265,
              "time": 13.811923125,
              "value": 0.5118110236220472
            },
            {
              "number": 11,
              "ticks": 12320,
              "time": 13.87386,
              "value": 0.5196850393700787
            },
            {
              "number": 11,
              "ticks": 12375,
              "time": 13.935796875000001,
              "value": 0.5275590551181102
            },
            {
              "number": 11,
              "ticks": 12430,
              "time": 13.99773375,
              "value": 0.5354330708661418
            },
            {
              "number": 11,
              "ticks": 12485,
              "time": 14.059670625,
              "value": 0.5433070866141733
            },
            {
              "number": 11,
              "ticks": 12541,
              "time": 14.122733625000002,
              "value": 0.5511811023622047
            },
            {
              "number": 11,
              "ticks": 12596,
              "time": 14.184670500000001,
              "value": 0.5590551181102362
            },
            {
              "number": 11,
              "ticks": 12651,
              "time": 14.246607375,
              "value": 0.5669291338582677
            },
            {
              "number": 11,
              "ticks": 12706,
              "time": 14.30854425,
              "value": 0.5748031496062992
            },
            {
              "number": 11,
              "ticks": 12761,
              "time": 14.370481125000001,
              "value": 0.5826771653543307
            },
            {
              "number": 11,
              "ticks": 12816,
              "time": 14.432418,
              "value": 0.5905511811023622
            },
            {
              "number": 11,
              "ticks": 12871,
              "time": 14.494354875,
              "value": 0.5984251968503937
            },
            {
              "number": 11,
              "ticks": 12926,
              "time": 14.556291750000002,
              "value": 0.6062992125984252
            },
            {
              "number": 11,
              "ticks": 12981,
              "time": 14.618228625,
              "value": 0.6141732283464567
            },
            {
              "number": 11,
              "ticks": 13036,
              "time": 14.680165500000001,
              "value": 0.6220472440944882
            },
            {
              "number": 11,
              "ticks": 13091,
              "time": 14.742102375,
              "value": 0.6299212598425197
            },
            {
              "number": 11,
              "ticks": 13146,
              "time": 14.80403925,
              "value": 0.6377952755905512
            },
            {
              "number": 11,
              "ticks": 13201,
              "time": 14.865976125000001,
              "value": 0.6456692913385826
            },
            {
              "number": 11,
              "ticks": 13256,
              "time": 14.927913,
              "value": 0.6535433070866141
            },
            {
              "number": 11,
              "ticks": 13311,
              "time": 14.989849875,
              "value": 0.6614173228346457
            },
            {
              "number": 11,
              "ticks": 13366,
              "time": 15.051786750000002,
              "value": 0.6692913385826772
            },
            {
              "number": 11,
              "ticks": 13421,
              "time": 15.113723625,
              "value": 0.6771653543307087
            },
            {
              "number": 11,
              "ticks": 13476,
              "time": 15.1756605,
              "value": 0.6850393700787402
            },
            {
              "number": 11,
              "ticks": 13531,
              "time": 15.237597375000002,
              "value": 0.6929133858267716
            },
            {
              "number": 11,
              "ticks": 13587,
              "time": 15.300660375,
              "value": 0.7007874015748031
            },
            {
              "number": 11,
              "ticks": 13642,
              "time": 15.36259725,
              "value": 0.7086614173228346
            },
            {
              "number": 11,
              "ticks": 13697,
              "time": 15.424534125000001,
              "value": 0.7165354330708661
            },
            {
              "number": 11,
              "ticks": 13752,
              "time": 15.486471,
              "value": 0.7244094488188977
            },
            {
              "number": 11,
              "ticks": 13807,
              "time": 15.548407875,
              "value": 0.7322834645669292
            },
            {
              "number": 11,
              "ticks": 13862,
              "time": 15.610344750000001,
              "value": 0.7401574803149606
            },
            {
              "number": 11,
              "ticks": 13917,
              "time": 15.672281625,
              "value": 0.7480314960629921
            },
            {
              "number": 11,
              "ticks": 13972,
              "time": 15.7342185,
              "value": 0.7559055118110236
            },
            {
              "number": 11,
              "ticks": 14027,
              "time": 15.796155375,
              "value": 0.7637795275590551
            },
            {
              "number": 11,
              "ticks": 14082,
              "time": 15.85809225,
              "value": 0.7716535433070866
            },
            {
              "number": 11,
              "ticks": 14137,
              "time": 15.920029125000001,
              "value": 0.7795275590551181
            },
            {
              "number": 11,
              "ticks": 14192,
              "time": 15.981966,
              "value": 0.7874015748031497
            },
            {
              "number": 11,
              "ticks": 14247,
              "time": 16.043902875,
              "value": 0.7952755905511811
            },
            {
              "number": 11,
              "ticks": 14302,
              "time": 16.10583975,
              "value": 0.8031496062992126
            },
            {
              "number": 11,
              "ticks": 14357,
              "time": 16.167776625000002,
              "value": 0.8110236220472441
            },
            {
              "number": 11,
              "ticks": 14412,
              "time": 16.2297135,
              "value": 0.8188976377952756
            },
            {
              "number": 11,
              "ticks": 14467,
              "time": 16.291650375,
              "value": 0.8267716535433071
            },
            {
              "number": 11,
              "ticks": 14522,
              "time": 16.35358725,
              "value": 0.8346456692913385
            },
            {
              "number": 11,
              "ticks": 14577,
              "time": 16.415524125,
              "value": 0.84251968503937
            },
            {
              "number": 11,
              "ticks": 14633,
              "time": 16.478587125,
              "value": 0.8503937007874016
            },
            {
              "number": 11,
              "ticks": 14688,
              "time": 16.540524,
              "value": 0.8582677165354331
            },
            {
              "number": 11,
              "ticks": 14743,
              "time": 16.602460875000002,
              "value": 0.8661417322834646
            },
            {
              "number": 11,
              "ticks": 14798,
              "time": 16.66439775,
              "value": 0.8740157480314961
            },
            {
              "number": 11,
              "ticks": 14853,
              "time": 16.726334625,
              "value": 0.8818897637795275
            },
            {
              "number": 11,
              "ticks": 14908,
              "time": 16.7882715,
              "value": 0.889763779527559
            },
            {
              "number": 11,
              "ticks": 14963,
              "time": 16.850208375,
              "value": 0.8976377952755905
            },
            {
              "number": 11,
              "ticks": 15018,
              "time": 16.912145250000002,
              "value": 0.905511811023622
            },
            {
              "number": 11,
              "ticks": 15073,
              "time": 16.974082125000002,
              "value": 0.9133858267716536
            },
            {
              "number": 11,
              "ticks": 15128,
              "time": 17.036019,
              "value": 0.9212598425196851
            },
            {
              "number": 11,
              "ticks": 15183,
              "time": 17.097955875,
              "value": 0.9291338582677166
            },
            {
              "number": 11,
              "ticks": 15238,
              "time": 17.15989275,
              "value": 0.937007874015748
            },
            {
              "number": 11,
              "ticks": 15293,
              "time": 17.221829625,
              "value": 0.9448818897637795
            },
            {
              "number": 11,
              "ticks": 15348,
              "time": 17.283766500000002,
              "value": 0.952755905511811
            },
            {
              "number": 11,
              "ticks": 15403,
              "time": 17.345703375,
              "value": 0.9606299212598425
            },
            {
              "number": 11,
              "ticks": 15458,
              "time": 17.40764025,
              "value": 0.968503937007874
            },
            {
              "number": 11,
              "ticks": 15513,
              "time": 17.469577125,
              "value": 0.9763779527559056
            },
            {
              "number": 11,
              "ticks": 15568,
              "time": 17.531513999999998,
              "value": 0.984251968503937
            },
            {
              "number": 11,
              "ticks": 15623,
              "time": 17.593450875,
              "value": 0.9921259842519685
            },
            {
              "number": 11,
              "ticks": 15679,
              "time": 17.656513875,
              "value": 1
            },
            {
              "number": 11,
              "ticks": 16080,
              "time": 18.10809,
              "value": 1
            },
            {
              "number": 11,
              "ticks": 16131,
              "time": 18.165522375000002,
              "value": 0.9921259842519685
            },
            {
              "number": 11,
              "ticks": 16183,
              "time": 18.224080875,
              "value": 0.984251968503937
            },
            {
              "number": 11,
              "ticks": 16234,
              "time": 18.28151325,
              "value": 0.9763779527559056
            },
            {
              "number": 11,
              "ticks": 16286,
              "time": 18.34007175,
              "value": 0.968503937007874
            },
            {
              "number": 11,
              "ticks": 16337,
              "time": 18.397504125,
              "value": 0.9606299212598425
            },
            {
              "number": 11,
              "ticks": 16389,
              "time": 18.456062624999998,
              "value": 0.952755905511811
            },
            {
              "number": 11,
              "ticks": 16441,
              "time": 18.514621124999998,
              "value": 0.9448818897637795
            },
            {
              "number": 11,
              "ticks": 16492,
              "time": 18.572053500000003,
              "value": 0.937007874015748
            },
            {
              "number": 11,
              "ticks": 16544,
              "time": 18.630612000000003,
              "value": 0.9291338582677166
            },
            {
              "number": 11,
              "ticks": 16595,
              "time": 18.688044375,
              "value": 0.9212598425196851
            },
            {
              "number": 11,
              "ticks": 16647,
              "time": 18.746602875,
              "value": 0.9133858267716536
            },
            {
              "number": 11,
              "ticks": 16699,
              "time": 18.805161375,
              "value": 0.905511811023622
            },
            {
              "number": 11,
              "ticks": 16750,
              "time": 18.862593750000002,
              "value": 0.8976377952755905
            },
            {
              "number": 11,
              "ticks": 16802,
              "time": 18.921152250000002,
              "value": 0.889763779527559
            },
            {
              "number": 11,
              "ticks": 16853,
              "time": 18.978584625,
              "value": 0.8818897637795275
            },
            {
              "number": 11,
              "ticks": 16905,
              "time": 19.037143125,
              "value": 0.8740157480314961
            },
            {
              "number": 11,
              "ticks": 16957,
              "time": 19.095701625,
              "value": 0.8661417322834646
            },
            {
              "number": 11,
              "ticks": 17008,
              "time": 19.153133999999998,
              "value": 0.8582677165354331
            },
            {
              "number": 11,
              "ticks": 17060,
              "time": 19.211692499999998,
              "value": 0.8503937007874016
            },
            {
              "number": 11,
              "ticks": 17111,
              "time": 19.269124875,
              "value": 0.84251968503937
            },
            {
              "number": 11,
              "ticks": 17163,
              "time": 19.327683375000003,
              "value": 0.8346456692913385
            },
            {
              "number": 11,
              "ticks": 17215,
              "time": 19.386241875000003,
              "value": 0.8267716535433071
            },
            {
              "number": 11,
              "ticks": 17266,
              "time": 19.44367425,
              "value": 0.8188976377952756
            },
            {
              "number": 11,
              "ticks": 17318,
              "time": 19.50223275,
              "value": 0.8110236220472441
            },
            {
              "number": 11,
              "ticks": 17369,
              "time": 19.559665125000002,
              "value": 0.8031496062992126
            },
            {
              "number": 11,
              "ticks": 17421,
              "time": 19.618223625000002,
              "value": 0.7952755905511811
            },
            {
              "number": 11,
              "ticks": 17473,
              "time": 19.676782125,
              "value": 0.7874015748031497
            },
            {
              "number": 11,
              "ticks": 17524,
              "time": 19.7342145,
              "value": 0.7795275590551181
            },
            {
              "number": 11,
              "ticks": 17576,
              "time": 19.792773,
              "value": 0.7716535433070866
            },
            {
              "number": 11,
              "ticks": 17627,
              "time": 19.850205375,
              "value": 0.7637795275590551
            },
            {
              "number": 11,
              "ticks": 17679,
              "time": 19.908763874999998,
              "value": 0.7559055118110236
            },
            {
              "number": 11,
              "ticks": 17731,
              "time": 19.967322375,
              "value": 0.7480314960629921
            },
            {
              "number": 11,
              "ticks": 17782,
              "time": 20.02475475,
              "value": 0.7401574803149606
            },
            {
              "number": 11,
              "ticks": 17834,
              "time": 20.083313250000003,
              "value": 0.7322834645669292
            },
            {
              "number": 11,
              "ticks": 17885,
              "time": 20.140745625,
              "value": 0.7244094488188977
            },
            {
              "number": 11,
              "ticks": 17937,
              "time": 20.199304125,
              "value": 0.7165354330708661
            },
            {
              "number": 11,
              "ticks": 17989,
              "time": 20.257862625,
              "value": 0.7086614173228346
            },
            {
              "number": 11,
              "ticks": 18040,
              "time": 20.315295000000003,
              "value": 0.7007874015748031
            },
            {
              "number": 11,
              "ticks": 18092,
              "time": 20.373853500000003,
              "value": 0.6929133858267716
            },
            {
              "number": 11,
              "ticks": 18143,
              "time": 20.431285875,
              "value": 0.6850393700787402
            },
            {
              "number": 11,
              "ticks": 18195,
              "time": 20.489844375,
              "value": 0.6771653543307087
            },
            {
              "number": 11,
              "ticks": 18247,
              "time": 20.548402875,
              "value": 0.6692913385826772
            },
            {
              "number": 11,
              "ticks": 18298,
              "time": 20.60583525,
              "value": 0.6614173228346457
            },
            {
              "number": 11,
              "ticks": 18350,
              "time": 20.66439375,
              "value": 0.6535433070866141
            },
            {
              "number": 11,
              "ticks": 18401,
              "time": 20.721826125,
              "value": 0.6456692913385826
            },
            {
              "number": 11,
              "ticks": 18453,
              "time": 20.780384625,
              "value": 0.6377952755905512
            },
            {
              "number": 11,
              "ticks": 18505,
              "time": 20.838943125000004,
              "value": 0.6299212598425197
            },
            {
              "number": 11,
              "ticks": 18556,
              "time": 20.8963755,
              "value": 0.6220472440944882
            },
            {
              "number": 11,
              "ticks": 18608,
              "time": 20.954934,
              "value": 0.6141732283464567
            },
            {
              "number": 11,
              "ticks": 18659,
              "time": 21.012366375000003,
              "value": 0.6062992125984252
            },
            {
              "number": 11,
              "ticks": 18711,
              "time": 21.070924875000003,
              "value": 0.5984251968503937
            },
            {
              "number": 11,
              "ticks": 18763,
              "time": 21.129483375,
              "value": 0.5905511811023622
            },
            {
              "number": 11,
              "ticks": 18814,
              "time": 21.18691575,
              "value": 0.5826771653543307
            },
            {
              "number": 11,
              "ticks": 18866,
              "time": 21.24547425,
              "value": 0.5748031496062992
            },
            {
              "number": 11,
              "ticks": 18917,
              "time": 21.302906625000002,
              "value": 0.5669291338582677
            },
            {
              "number": 11,
              "ticks": 18969,
              "time": 21.361465125,
              "value": 0.5590551181102362
            },
            {
              "number": 11,
              "ticks": 19021,
              "time": 21.420023625,
              "value": 0.5511811023622047
            },
            {
              "number": 11,
              "ticks": 19072,
              "time": 21.477456,
              "value": 0.5433070866141733
            },
            {
              "number": 11,
              "ticks": 19124,
              "time": 21.5360145,
              "value": 0.5354330708661418
            },
            {
              "number": 11,
              "ticks": 19175,
              "time": 21.593446874999998,
              "value": 0.5275590551181102
            },
            {
              "number": 11,
              "ticks": 19227,
              "time": 21.652005375,
              "value": 0.5196850393700787
            },
            {
              "number": 11,
              "ticks": 19279,
              "time": 21.710563875000002,
              "value": 0.5118110236220472
            },
            {
              "number": 11,
              "ticks": 20601,
              "time": 23.199301125,
              "value": 1
            },
            {
              "number": 11,
              "ticks": 30680,
              "time": 34.549515,
              "value": 0
            },
            {
              "number": 11,
              "ticks": 30695,
              "time": 34.566406875,
              "value": 0.007874015748031496
            },
            {
              "number": 11,
              "ticks": 30710,
              "time": 34.58329875,
              "value": 0.015748031496062992
            },
            {
              "number": 11,
              "ticks": 30725,
              "time": 34.600190625,
              "value": 0.031496062992125984
            },
            {
              "number": 11,
              "ticks": 30740,
              "time": 34.6170825,
              "value": 0.03937007874015748
            },
            {
              "number": 11,
              "ticks": 30755,
              "time": 34.633974375,
              "value": 0.047244094488188976
            },
            {
              "number": 11,
              "ticks": 30770,
              "time": 34.65086625000001,
              "value": 0.06299212598425197
            },
            {
              "number": 11,
              "ticks": 30785,
              "time": 34.667758125000006,
              "value": 0.07086614173228346
            },
            {
              "number": 11,
              "ticks": 30800,
              "time": 34.684650000000005,
              "value": 0.08661417322834646
            },
            {
              "number": 11,
              "ticks": 30815,
              "time": 34.701541875000004,
              "value": 0.09448818897637795
            },
            {
              "number": 11,
              "ticks": 30830,
              "time": 34.71843375,
              "value": 0.10236220472440945
            },
            {
              "number": 11,
              "ticks": 30845,
              "time": 34.735325625,
              "value": 0.11811023622047244
            },
            {
              "number": 11,
              "ticks": 30860,
              "time": 34.7522175,
              "value": 0.12598425196850394
            },
            {
              "number": 11,
              "ticks": 30875,
              "time": 34.769109375000006,
              "value": 0.14173228346456693
            },
            {
              "number": 11,
              "ticks": 30890,
              "time": 34.786001250000005,
              "value": 0.14960629921259844
            },
            {
              "number": 11,
              "ticks": 30905,
              "time": 34.802893125000004,
              "value": 0.15748031496062992
            },
            {
              "number": 11,
              "ticks": 30920,
              "time": 34.819785,
              "value": 0.1732283464566929
            },
            {
              "number": 11,
              "ticks": 30935,
              "time": 34.836676875,
              "value": 0.18110236220472442
            },
            {
              "number": 11,
              "ticks": 30950,
              "time": 34.85356875,
              "value": 0.1968503937007874
            },
            {
              "number": 11,
              "ticks": 30965,
              "time": 34.87046062500001,
              "value": 0.2047244094488189
            },
            {
              "number": 11,
              "ticks": 30980,
              "time": 34.887352500000006,
              "value": 0.2125984251968504
            },
            {
              "number": 11,
              "ticks": 30995,
              "time": 34.904244375000005,
              "value": 0.2283464566929134
            },
            {
              "number": 11,
              "ticks": 31010,
              "time": 34.92113625,
              "value": 0.23622047244094488
            },
            {
              "number": 11,
              "ticks": 31025,
              "time": 34.938028125,
              "value": 0.2440944881889764
            },
            {
              "number": 11,
              "ticks": 31040,
              "time": 34.95492,
              "value": 0.25984251968503935
            },
            {
              "number": 11,
              "ticks": 31055,
              "time": 34.97181187500001,
              "value": 0.2677165354330709
            },
            {
              "number": 11,
              "ticks": 31070,
              "time": 34.988703750000006,
              "value": 0.28346456692913385
            },
            {
              "number": 11,
              "ticks": 31085,
              "time": 35.005595625000005,
              "value": 0.29133858267716534
            },
            {
              "number": 11,
              "ticks": 31100,
              "time": 35.022487500000004,
              "value": 0.2992125984251969
            },
            {
              "number": 11,
              "ticks": 31115,
              "time": 35.039379375,
              "value": 0.31496062992125984
            },
            {
              "number": 11,
              "ticks": 31130,
              "time": 35.05627125,
              "value": 0.3228346456692913
            },
            {
              "number": 11,
              "ticks": 31145,
              "time": 35.073163125,
              "value": 0.33858267716535434
            },
            {
              "number": 11,
              "ticks": 31160,
              "time": 35.09005500000001,
              "value": 0.3464566929133858
            },
            {
              "number": 11,
              "ticks": 31175,
              "time": 35.106946875000006,
              "value": 0.3543307086614173
            },
            {
              "number": 11,
              "ticks": 31190,
              "time": 35.123838750000004,
              "value": 0.3700787401574803
            },
            {
              "number": 11,
              "ticks": 31205,
              "time": 35.140730625,
              "value": 0.3779527559055118
            },
            {
              "number": 11,
              "ticks": 31220,
              "time": 35.1576225,
              "value": 0.3937007874015748
            },
            {
              "number": 11,
              "ticks": 31235,
              "time": 35.174514375,
              "value": 0.4015748031496063
            },
            {
              "number": 11,
              "ticks": 31250,
              "time": 35.19140625000001,
              "value": 0.4094488188976378
            },
            {
              "number": 11,
              "ticks": 31265,
              "time": 35.208298125000006,
              "value": 0.4251968503937008
            },
            {
              "number": 11,
              "ticks": 31280,
              "time": 35.225190000000005,
              "value": 0.4330708661417323
            },
            {
              "number": 11,
              "ticks": 31295,
              "time": 35.242081875000004,
              "value": 0.4409448818897638
            },
            {
              "number": 11,
              "ticks": 31310,
              "time": 35.25897375,
              "value": 0.4566929133858268
            },
            {
              "number": 11,
              "ticks": 31325,
              "time": 35.275865625,
              "value": 0.4645669291338583
            },
            {
              "number": 11,
              "ticks": 31340,
              "time": 35.2927575,
              "value": 0.48031496062992124
            },
            {
              "number": 11,
              "ticks": 31355,
              "time": 35.309649375000006,
              "value": 0.4881889763779528
            },
            {
              "number": 11,
              "ticks": 31370,
              "time": 35.326541250000005,
              "value": 0.49606299212598426
            },
            {
              "number": 11,
              "ticks": 31385,
              "time": 35.343433125000004,
              "value": 0.5118110236220472
            },
            {
              "number": 11,
              "ticks": 31400,
              "time": 35.360325,
              "value": 0.5196850393700787
            },
            {
              "number": 11,
              "ticks": 31415,
              "time": 35.377216875,
              "value": 0.5354330708661418
            },
            {
              "number": 11,
              "ticks": 31430,
              "time": 35.39410875,
              "value": 0.5433070866141733
            },
            {
              "number": 11,
              "ticks": 31445,
              "time": 35.41100062500001,
              "value": 0.5511811023622047
            },
            {
              "number": 11,
              "ticks": 31460,
              "time": 35.427892500000006,
              "value": 0.5669291338582677
            },
            {
              "number": 11,
              "ticks": 31475,
              "time": 35.444784375000005,
              "value": 0.5748031496062992
            },
            {
              "number": 11,
              "ticks": 31490,
              "time": 35.461676250000004,
              "value": 0.5905511811023622
            },
            {
              "number": 11,
              "ticks": 31505,
              "time": 35.478568125,
              "value": 0.5984251968503937
            },
            {
              "number": 11,
              "ticks": 31520,
              "time": 35.49546,
              "value": 0.6062992125984252
            },
            {
              "number": 11,
              "ticks": 31535,
              "time": 35.51235187500001,
              "value": 0.6220472440944882
            },
            {
              "number": 11,
              "ticks": 31550,
              "time": 35.529243750000006,
              "value": 0.6299212598425197
            },
            {
              "number": 11,
              "ticks": 31565,
              "time": 35.546135625000005,
              "value": 0.6456692913385826
            },
            {
              "number": 11,
              "ticks": 31580,
              "time": 35.563027500000004,
              "value": 0.6535433070866141
            },
            {
              "number": 11,
              "ticks": 31595,
              "time": 35.579919375,
              "value": 0.6614173228346457
            },
            {
              "number": 11,
              "ticks": 31610,
              "time": 35.59681125,
              "value": 0.6771653543307087
            },
            {
              "number": 11,
              "ticks": 31625,
              "time": 35.613703125,
              "value": 0.6850393700787402
            },
            {
              "number": 11,
              "ticks": 31640,
              "time": 35.63059500000001,
              "value": 0.6929133858267716
            },
            {
              "number": 11,
              "ticks": 31655,
              "time": 35.647486875000006,
              "value": 0.7086614173228346
            },
            {
              "number": 11,
              "ticks": 31670,
              "time": 35.664378750000004,
              "value": 0.7165354330708661
            },
            {
              "number": 11,
              "ticks": 31685,
              "time": 35.681270625,
              "value": 0.7322834645669292
            },
            {
              "number": 11,
              "ticks": 31700,
              "time": 35.6981625,
              "value": 0.7401574803149606
            },
            {
              "number": 11,
              "ticks": 31715,
              "time": 35.715054375,
              "value": 0.7480314960629921
            },
            {
              "number": 11,
              "ticks": 31730,
              "time": 35.73194625000001,
              "value": 0.7637795275590551
            },
            {
              "number": 11,
              "ticks": 31745,
              "time": 35.748838125000006,
              "value": 0.7716535433070866
            },
            {
              "number": 11,
              "ticks": 31759,
              "time": 35.764603875000006,
              "value": 0.7874015748031497
            },
            {
              "number": 11,
              "ticks": 31780,
              "time": 35.7882525,
              "value": 0.7874015748031497
            },
            {
              "number": 11,
              "ticks": 31806,
              "time": 35.81753175,
              "value": 0.7795275590551181
            },
            {
              "number": 11,
              "ticks": 31833,
              "time": 35.847937125,
              "value": 0.7716535433070866
            },
            {
              "number": 11,
              "ticks": 31860,
              "time": 35.8783425,
              "value": 0.7637795275590551
            },
            {
              "number": 11,
              "ticks": 31887,
              "time": 35.908747875,
              "value": 0.7559055118110236
            },
            {
              "number": 11,
              "ticks": 31914,
              "time": 35.93915325,
              "value": 0.7480314960629921
            },
            {
              "number": 11,
              "ticks": 31941,
              "time": 35.969558625000005,
              "value": 0.7401574803149606
            },
            {
              "number": 11,
              "ticks": 31968,
              "time": 35.999964,
              "value": 0.7322834645669292
            },
            {
              "number": 11,
              "ticks": 31995,
              "time": 36.030369375,
              "value": 0.7244094488188977
            },
            {
              "number": 11,
              "ticks": 32022,
              "time": 36.06077475000001,
              "value": 0.7165354330708661
            },
            {
              "number": 11,
              "ticks": 32049,
              "time": 36.091180125,
              "value": 0.7086614173228346
            },
            {
              "number": 11,
              "ticks": 32076,
              "time": 36.1215855,
              "value": 0.7007874015748031
            },
            {
              "number": 11,
              "ticks": 32103,
              "time": 36.151990874999996,
              "value": 0.6929133858267716
            },
            {
              "number": 11,
              "ticks": 32130,
              "time": 36.182396250000004,
              "value": 0.6850393700787402
            },
            {
              "number": 11,
              "ticks": 32157,
              "time": 36.212801625000004,
              "value": 0.6771653543307087
            },
            {
              "number": 11,
              "ticks": 32184,
              "time": 36.243207,
              "value": 0.6692913385826772
            },
            {
              "number": 11,
              "ticks": 32211,
              "time": 36.273612375000006,
              "value": 0.6614173228346457
            },
            {
              "number": 11,
              "ticks": 32238,
              "time": 36.30401775,
              "value": 0.6535433070866141
            },
            {
              "number": 11,
              "ticks": 32265,
              "time": 36.334423125,
              "value": 0.6456692913385826
            },
            {
              "number": 11,
              "ticks": 32292,
              "time": 36.3648285,
              "value": 0.6377952755905512
            },
            {
              "number": 11,
              "ticks": 32319,
              "time": 36.395233875,
              "value": 0.6299212598425197
            },
            {
              "number": 11,
              "ticks": 32346,
              "time": 36.42563925,
              "value": 0.6220472440944882
            },
            {
              "number": 11,
              "ticks": 32373,
              "time": 36.456044625,
              "value": 0.6141732283464567
            },
            {
              "number": 11,
              "ticks": 32400,
              "time": 36.486450000000005,
              "value": 0.6062992125984252
            },
            {
              "number": 11,
              "ticks": 32427,
              "time": 36.516855375000006,
              "value": 0.5984251968503937
            },
            {
              "number": 11,
              "ticks": 32454,
              "time": 36.54726075,
              "value": 0.5905511811023622
            },
            {
              "number": 11,
              "ticks": 32481,
              "time": 36.577666125,
              "value": 0.5826771653543307
            },
            {
              "number": 11,
              "ticks": 32508,
              "time": 36.6080715,
              "value": 0.5748031496062992
            },
            {
              "number": 11,
              "ticks": 32535,
              "time": 36.638476875,
              "value": 0.5669291338582677
            },
            {
              "number": 11,
              "ticks": 32562,
              "time": 36.66888225,
              "value": 0.5590551181102362
            },
            {
              "number": 11,
              "ticks": 32589,
              "time": 36.699287625,
              "value": 0.5511811023622047
            },
            {
              "number": 11,
              "ticks": 32616,
              "time": 36.729693000000005,
              "value": 0.5433070866141733
            },
            {
              "number": 11,
              "ticks": 32643,
              "time": 36.760098375,
              "value": 0.5354330708661418
            },
            {
              "number": 11,
              "ticks": 32670,
              "time": 36.79050375,
              "value": 0.5275590551181102
            },
            {
              "number": 11,
              "ticks": 32697,
              "time": 36.82090912500001,
              "value": 0.5196850393700787
            },
            {
              "number": 11,
              "ticks": 32724,
              "time": 36.8513145,
              "value": 0.5118110236220472
            },
            {
              "number": 11,
              "ticks": 32751,
              "time": 36.881719875,
              "value": 0.5039370078740157
            },
            {
              "number": 11,
              "ticks": 32778,
              "time": 36.912125249999995,
              "value": 0.49606299212598426
            },
            {
              "number": 11,
              "ticks": 32805,
              "time": 36.942530625,
              "value": 0.4881889763779528
            },
            {
              "number": 11,
              "ticks": 32832,
              "time": 36.972936000000004,
              "value": 0.48031496062992124
            },
            {
              "number": 11,
              "ticks": 32859,
              "time": 37.003341375,
              "value": 0.47244094488188976
            },
            {
              "number": 11,
              "ticks": 32886,
              "time": 37.033746750000006,
              "value": 0.4645669291338583
            },
            {
              "number": 11,
              "ticks": 32913,
              "time": 37.064152125,
              "value": 0.4566929133858268
            },
            {
              "number": 11,
              "ticks": 32940,
              "time": 37.0945575,
              "value": 0.44881889763779526
            },
            {
              "number": 11,
              "ticks": 32967,
              "time": 37.124962875,
              "value": 0.4409448818897638
            },
            {
              "number": 11,
              "ticks": 32994,
              "time": 37.15536825,
              "value": 0.4330708661417323
            },
            {
              "number": 11,
              "ticks": 33021,
              "time": 37.185773625,
              "value": 0.4251968503937008
            },
            {
              "number": 11,
              "ticks": 33048,
              "time": 37.216179,
              "value": 0.41732283464566927
            },
            {
              "number": 11,
              "ticks": 33075,
              "time": 37.246584375000005,
              "value": 0.4094488188976378
            },
            {
              "number": 11,
              "ticks": 33102,
              "time": 37.276989750000006,
              "value": 0.4015748031496063
            },
            {
              "number": 11,
              "ticks": 33129,
              "time": 37.307395125,
              "value": 0.3937007874015748
            },
            {
              "number": 11,
              "ticks": 33156,
              "time": 37.3378005,
              "value": 0.3858267716535433
            },
            {
              "number": 11,
              "ticks": 33183,
              "time": 37.368205875,
              "value": 0.3779527559055118
            },
            {
              "number": 11,
              "ticks": 33210,
              "time": 37.39861125,
              "value": 0.3700787401574803
            },
            {
              "number": 11,
              "ticks": 33237,
              "time": 37.429016625,
              "value": 0.36220472440944884
            },
            {
              "number": 11,
              "ticks": 33264,
              "time": 37.459421999999996,
              "value": 0.3543307086614173
            },
            {
              "number": 11,
              "ticks": 33291,
              "time": 37.489827375000004,
              "value": 0.3464566929133858
            },
            {
              "number": 11,
              "ticks": 33318,
              "time": 37.52023275,
              "value": 0.33858267716535434
            },
            {
              "number": 11,
              "ticks": 33345,
              "time": 37.550638125,
              "value": 0.33070866141732286
            },
            {
              "number": 11,
              "ticks": 33372,
              "time": 37.58104350000001,
              "value": 0.3228346456692913
            },
            {
              "number": 11,
              "ticks": 33399,
              "time": 37.611448875,
              "value": 0.31496062992125984
            },
            {
              "number": 11,
              "ticks": 33426,
              "time": 37.64185425,
              "value": 0.30708661417322836
            },
            {
              "number": 11,
              "ticks": 33453,
              "time": 37.672259624999995,
              "value": 0.2992125984251969
            },
            {
              "number": 11,
              "ticks": 33480,
              "time": 37.702665,
              "value": 0.29133858267716534
            },
            {
              "number": 11,
              "ticks": 33507,
              "time": 37.733070375000004,
              "value": 0.28346456692913385
            },
            {
              "number": 11,
              "ticks": 33534,
              "time": 37.76347575,
              "value": 0.2755905511811024
            },
            {
              "number": 11,
              "ticks": 33561,
              "time": 37.793881125000006,
              "value": 0.2677165354330709
            },
            {
              "number": 11,
              "ticks": 33588,
              "time": 37.8242865,
              "value": 0.25984251968503935
            },
            {
              "number": 11,
              "ticks": 33615,
              "time": 37.854691875,
              "value": 0.25196850393700787
            },
            {
              "number": 11,
              "ticks": 33642,
              "time": 37.88509725,
              "value": 0.2440944881889764
            },
            {
              "number": 11,
              "ticks": 33669,
              "time": 37.915502625,
              "value": 0.23622047244094488
            },
            {
              "number": 11,
              "ticks": 33696,
              "time": 37.945908,
              "value": 0.2283464566929134
            },
            {
              "number": 11,
              "ticks": 33723,
              "time": 37.976313375,
              "value": 0.2204724409448819
            },
            {
              "number": 11,
              "ticks": 33750,
              "time": 38.006718750000005,
              "value": 0.2125984251968504
            },
            {
              "number": 11,
              "ticks": 33777,
              "time": 38.037124125000005,
              "value": 0.2047244094488189
            },
            {
              "number": 11,
              "ticks": 33804,
              "time": 38.0675295,
              "value": 0.1968503937007874
            },
            {
              "number": 11,
              "ticks": 33831,
              "time": 38.097934875,
              "value": 0.1889763779527559
            },
            {
              "number": 11,
              "ticks": 33858,
              "time": 38.12834025,
              "value": 0.18110236220472442
            },
            {
              "number": 11,
              "ticks": 33885,
              "time": 38.158745625,
              "value": 0.1732283464566929
            },
            {
              "number": 11,
              "ticks": 33912,
              "time": 38.189151,
              "value": 0.16535433070866143
            },
            {
              "number": 11,
              "ticks": 33939,
              "time": 38.219556375,
              "value": 0.15748031496062992
            },
            {
              "number": 11,
              "ticks": 33966,
              "time": 38.249961750000004,
              "value": 0.14960629921259844
            },
            {
              "number": 11,
              "ticks": 33993,
              "time": 38.280367125,
              "value": 0.14173228346456693
            },
            {
              "number": 11,
              "ticks": 34020,
              "time": 38.3107725,
              "value": 0.13385826771653545
            },
            {
              "number": 11,
              "ticks": 34047,
              "time": 38.34117787500001,
              "value": 0.12598425196850394
            },
            {
              "number": 11,
              "ticks": 34074,
              "time": 38.37158325,
              "value": 0.11811023622047244
            },
            {
              "number": 11,
              "ticks": 34101,
              "time": 38.401988625,
              "value": 0.11023622047244094
            },
            {
              "number": 11,
              "ticks": 34128,
              "time": 38.432393999999995,
              "value": 0.10236220472440945
            },
            {
              "number": 11,
              "ticks": 34155,
              "time": 38.462799375,
              "value": 0.09448818897637795
            },
            {
              "number": 11,
              "ticks": 34182,
              "time": 38.493204750000004,
              "value": 0.08661417322834646
            },
            {
              "number": 11,
              "ticks": 34209,
              "time": 38.523610125,
              "value": 0.07874015748031496
            },
            {
              "number": 11,
              "ticks": 34236,
              "time": 38.554015500000006,
              "value": 0.07086614173228346
            },
            {
              "number": 11,
              "ticks": 34263,
              "time": 38.584420875,
              "value": 0.06299212598425197
            },
            {
              "number": 11,
              "ticks": 34290,
              "time": 38.61482625,
              "value": 0.05511811023622047
            },
            {
              "number": 11,
              "ticks": 34317,
              "time": 38.64523162500001,
              "value": 0.047244094488188976
            },
            {
              "number": 11,
              "ticks": 34344,
              "time": 38.675637,
              "value": 0.03937007874015748
            },
            {
              "number": 11,
              "ticks": 34371,
              "time": 38.706042375,
              "value": 0.031496062992125984
            },
            {
              "number": 11,
              "ticks": 34398,
              "time": 38.736447749999996,
              "value": 0.023622047244094488
            },
            {
              "number": 11,
              "ticks": 34425,
              "time": 38.766853125000004,
              "value": 0.015748031496062992
            },
            {
              "number": 11,
              "ticks": 34452,
              "time": 38.797258500000005,
              "value": 0.007874015748031496
            },
            {
              "number": 11,
              "ticks": 34479,
              "time": 38.827663875,
              "value": 0
            },
            {
              "number": 11,
              "ticks": 35859,
              "time": 40.381716375,
              "value": 1
            },
            {
              "number": 11,
              "ticks": 38360,
              "time": 43.19815500000001,
              "value": 0.07874015748031496
            },
            {
              "number": 11,
              "ticks": 38375,
              "time": 43.215046875000006,
              "value": 0.08661417322834646
            },
            {
              "number": 11,
              "ticks": 38390,
              "time": 43.231938750000005,
              "value": 0.09448818897637795
            },
            {
              "number": 11,
              "ticks": 38405,
              "time": 43.248830625000004,
              "value": 0.10236220472440945
            },
            {
              "number": 11,
              "ticks": 38420,
              "time": 43.2657225,
              "value": 0.11811023622047244
            },
            {
              "number": 11,
              "ticks": 38435,
              "time": 43.282614375,
              "value": 0.12598425196850394
            },
            {
              "number": 11,
              "ticks": 38450,
              "time": 43.29950625000001,
              "value": 0.13385826771653545
            },
            {
              "number": 11,
              "ticks": 38465,
              "time": 43.316398125000006,
              "value": 0.14960629921259844
            },
            {
              "number": 11,
              "ticks": 38480,
              "time": 43.333290000000005,
              "value": 0.15748031496062992
            },
            {
              "number": 11,
              "ticks": 38495,
              "time": 43.350181875000004,
              "value": 0.16535433070866143
            },
            {
              "number": 11,
              "ticks": 38510,
              "time": 43.36707375,
              "value": 0.18110236220472442
            },
            {
              "number": 11,
              "ticks": 38525,
              "time": 43.383965625,
              "value": 0.1889763779527559
            },
            {
              "number": 11,
              "ticks": 38540,
              "time": 43.4008575,
              "value": 0.1968503937007874
            },
            {
              "number": 11,
              "ticks": 38555,
              "time": 43.41774937500001,
              "value": 0.2125984251968504
            },
            {
              "number": 11,
              "ticks": 38570,
              "time": 43.434641250000006,
              "value": 0.2204724409448819
            },
            {
              "number": 11,
              "ticks": 38585,
              "time": 43.451533125000005,
              "value": 0.2283464566929134
            },
            {
              "number": 11,
              "ticks": 38600,
              "time": 43.468425,
              "value": 0.2440944881889764
            },
            {
              "number": 11,
              "ticks": 38615,
              "time": 43.485316875,
              "value": 0.25196850393700787
            },
            {
              "number": 11,
              "ticks": 38630,
              "time": 43.50220875,
              "value": 0.25984251968503935
            },
            {
              "number": 11,
              "ticks": 38645,
              "time": 43.51910062500001,
              "value": 0.2755905511811024
            },
            {
              "number": 11,
              "ticks": 38660,
              "time": 43.535992500000006,
              "value": 0.28346456692913385
            },
            {
              "number": 11,
              "ticks": 38675,
              "time": 43.552884375000005,
              "value": 0.29133858267716534
            },
            {
              "number": 11,
              "ticks": 38690,
              "time": 43.569776250000004,
              "value": 0.30708661417322836
            },
            {
              "number": 11,
              "ticks": 38705,
              "time": 43.586668125,
              "value": 0.31496062992125984
            },
            {
              "number": 11,
              "ticks": 38720,
              "time": 43.60356,
              "value": 0.3228346456692913
            },
            {
              "number": 11,
              "ticks": 38735,
              "time": 43.62045187500001,
              "value": 0.33858267716535434
            },
            {
              "number": 11,
              "ticks": 38750,
              "time": 43.63734375000001,
              "value": 0.3464566929133858
            },
            {
              "number": 11,
              "ticks": 38765,
              "time": 43.654235625000005,
              "value": 0.3543307086614173
            },
            {
              "number": 11,
              "ticks": 38780,
              "time": 43.671127500000004,
              "value": 0.3700787401574803
            },
            {
              "number": 11,
              "ticks": 38795,
              "time": 43.688019375,
              "value": 0.3779527559055118
            },
            {
              "number": 11,
              "ticks": 38810,
              "time": 43.70491125,
              "value": 0.3858267716535433
            },
            {
              "number": 11,
              "ticks": 38825,
              "time": 43.721803125,
              "value": 0.4015748031496063
            },
            {
              "number": 11,
              "ticks": 38840,
              "time": 43.73869500000001,
              "value": 0.4094488188976378
            },
            {
              "number": 11,
              "ticks": 38855,
              "time": 43.755586875000006,
              "value": 0.41732283464566927
            },
            {
              "number": 11,
              "ticks": 38870,
              "time": 43.772478750000005,
              "value": 0.4330708661417323
            },
            {
              "number": 11,
              "ticks": 38885,
              "time": 43.789370625000004,
              "value": 0.4409448818897638
            },
            {
              "number": 11,
              "ticks": 38900,
              "time": 43.8062625,
              "value": 0.44881889763779526
            },
            {
              "number": 11,
              "ticks": 38915,
              "time": 43.823154375,
              "value": 0.4645669291338583
            },
            {
              "number": 11,
              "ticks": 38930,
              "time": 43.84004625000001,
              "value": 0.47244094488188976
            },
            {
              "number": 11,
              "ticks": 38945,
              "time": 43.856938125000006,
              "value": 0.48031496062992124
            },
            {
              "number": 11,
              "ticks": 38960,
              "time": 43.873830000000005,
              "value": 0.4881889763779528
            },
            {
              "number": 11,
              "ticks": 38975,
              "time": 43.890721875000004,
              "value": 0.5039370078740157
            },
            {
              "number": 11,
              "ticks": 38990,
              "time": 43.90761375,
              "value": 0.5118110236220472
            },
            {
              "number": 11,
              "ticks": 39005,
              "time": 43.924505625,
              "value": 0.5196850393700787
            },
            {
              "number": 11,
              "ticks": 39020,
              "time": 43.9413975,
              "value": 0.5354330708661418
            },
            {
              "number": 11,
              "ticks": 39035,
              "time": 43.95828937500001,
              "value": 0.5433070866141733
            },
            {
              "number": 11,
              "ticks": 39050,
              "time": 43.975181250000006,
              "value": 0.5511811023622047
            },
            {
              "number": 11,
              "ticks": 39065,
              "time": 43.992073125000005,
              "value": 0.5669291338582677
            },
            {
              "number": 11,
              "ticks": 39080,
              "time": 44.008965,
              "value": 0.5748031496062992
            },
            {
              "number": 11,
              "ticks": 39095,
              "time": 44.025856875,
              "value": 0.5826771653543307
            },
            {
              "number": 11,
              "ticks": 39110,
              "time": 44.04274875,
              "value": 0.5984251968503937
            },
            {
              "number": 11,
              "ticks": 39125,
              "time": 44.05964062500001,
              "value": 0.6062992125984252
            },
            {
              "number": 11,
              "ticks": 39140,
              "time": 44.076532500000006,
              "value": 0.6141732283464567
            },
            {
              "number": 11,
              "ticks": 39155,
              "time": 44.093424375000005,
              "value": 0.6299212598425197
            },
            {
              "number": 11,
              "ticks": 39170,
              "time": 44.110316250000004,
              "value": 0.6377952755905512
            },
            {
              "number": 11,
              "ticks": 39185,
              "time": 44.127208125,
              "value": 0.6456692913385826
            },
            {
              "number": 11,
              "ticks": 39200,
              "time": 44.1441,
              "value": 0.6614173228346457
            },
            {
              "number": 11,
              "ticks": 39215,
              "time": 44.16099187500001,
              "value": 0.6692913385826772
            },
            {
              "number": 11,
              "ticks": 39230,
              "time": 44.17788375000001,
              "value": 0.6771653543307087
            },
            {
              "number": 11,
              "ticks": 39245,
              "time": 44.194775625000005,
              "value": 0.6929133858267716
            },
            {
              "number": 11,
              "ticks": 39260,
              "time": 44.211667500000004,
              "value": 0.7007874015748031
            },
            {
              "number": 11,
              "ticks": 39275,
              "time": 44.228559375,
              "value": 0.7086614173228346
            },
            {
              "number": 11,
              "ticks": 39290,
              "time": 44.24545125,
              "value": 0.7244094488188977
            },
            {
              "number": 11,
              "ticks": 39305,
              "time": 44.262343125,
              "value": 0.7322834645669292
            },
            {
              "number": 11,
              "ticks": 39320,
              "time": 44.27923500000001,
              "value": 0.7401574803149606
            },
            {
              "number": 11,
              "ticks": 39335,
              "time": 44.296126875000006,
              "value": 0.7559055118110236
            },
            {
              "number": 11,
              "ticks": 39350,
              "time": 44.313018750000005,
              "value": 0.7637795275590551
            },
            {
              "number": 11,
              "ticks": 39365,
              "time": 44.329910625000004,
              "value": 0.7716535433070866
            },
            {
              "number": 11,
              "ticks": 39379,
              "time": 44.345676375000004,
              "value": 0.7874015748031497
            },
            {
              "number": 11,
              "ticks": 39400,
              "time": 44.369324999999996,
              "value": 0.7874015748031497
            },
            {
              "number": 11,
              "ticks": 39417,
              "time": 44.38846912500001,
              "value": 0.7795275590551181
            },
            {
              "number": 11,
              "ticks": 39435,
              "time": 44.408739375,
              "value": 0.7716535433070866
            },
            {
              "number": 11,
              "ticks": 39453,
              "time": 44.429009625,
              "value": 0.7637795275590551
            },
            {
              "number": 11,
              "ticks": 39471,
              "time": 44.449279875,
              "value": 0.7559055118110236
            },
            {
              "number": 11,
              "ticks": 39488,
              "time": 44.468424,
              "value": 0.7480314960629921
            },
            {
              "number": 11,
              "ticks": 39506,
              "time": 44.488694249999995,
              "value": 0.7401574803149606
            },
            {
              "number": 11,
              "ticks": 39524,
              "time": 44.508964500000005,
              "value": 0.7322834645669292
            },
            {
              "number": 11,
              "ticks": 39542,
              "time": 44.52923475,
              "value": 0.7244094488188977
            },
            {
              "number": 11,
              "ticks": 39559,
              "time": 44.548378875000004,
              "value": 0.7165354330708661
            },
            {
              "number": 11,
              "ticks": 39577,
              "time": 44.568649125,
              "value": 0.7086614173228346
            },
            {
              "number": 11,
              "ticks": 39595,
              "time": 44.588919374999996,
              "value": 0.7007874015748031
            },
            {
              "number": 11,
              "ticks": 39613,
              "time": 44.609189625000006,
              "value": 0.6929133858267716
            },
            {
              "number": 11,
              "ticks": 39630,
              "time": 44.62833375,
              "value": 0.6850393700787402
            },
            {
              "number": 11,
              "ticks": 39648,
              "time": 44.648604,
              "value": 0.6771653543307087
            },
            {
              "number": 11,
              "ticks": 39666,
              "time": 44.66887425,
              "value": 0.6692913385826772
            },
            {
              "number": 11,
              "ticks": 39684,
              "time": 44.6891445,
              "value": 0.6614173228346457
            },
            {
              "number": 11,
              "ticks": 39701,
              "time": 44.708288625,
              "value": 0.6535433070866141
            },
            {
              "number": 11,
              "ticks": 39719,
              "time": 44.728558875000004,
              "value": 0.6456692913385826
            },
            {
              "number": 11,
              "ticks": 39737,
              "time": 44.748829125,
              "value": 0.6377952755905512
            },
            {
              "number": 11,
              "ticks": 39755,
              "time": 44.769099375,
              "value": 0.6299212598425197
            },
            {
              "number": 11,
              "ticks": 39772,
              "time": 44.7882435,
              "value": 0.6220472440944882
            },
            {
              "number": 11,
              "ticks": 39790,
              "time": 44.808513749999996,
              "value": 0.6141732283464567
            },
            {
              "number": 11,
              "ticks": 39808,
              "time": 44.828784000000006,
              "value": 0.6062992125984252
            },
            {
              "number": 11,
              "ticks": 39826,
              "time": 44.84905425,
              "value": 0.5984251968503937
            },
            {
              "number": 11,
              "ticks": 39843,
              "time": 44.868198375,
              "value": 0.5905511811023622
            },
            {
              "number": 11,
              "ticks": 39861,
              "time": 44.888468625,
              "value": 0.5826771653543307
            },
            {
              "number": 11,
              "ticks": 39879,
              "time": 44.908738875,
              "value": 0.5748031496062992
            },
            {
              "number": 11,
              "ticks": 39897,
              "time": 44.92900912500001,
              "value": 0.5669291338582677
            },
            {
              "number": 11,
              "ticks": 39914,
              "time": 44.948153250000004,
              "value": 0.5590551181102362
            },
            {
              "number": 11,
              "ticks": 39932,
              "time": 44.9684235,
              "value": 0.5511811023622047
            },
            {
              "number": 11,
              "ticks": 39950,
              "time": 44.98869375,
              "value": 0.5433070866141733
            },
            {
              "number": 11,
              "ticks": 39968,
              "time": 45.008964,
              "value": 0.5354330708661418
            },
            {
              "number": 11,
              "ticks": 39985,
              "time": 45.028108124999996,
              "value": 0.5275590551181102
            },
            {
              "number": 11,
              "ticks": 40003,
              "time": 45.048378375000006,
              "value": 0.5196850393700787
            },
            {
              "number": 11,
              "ticks": 40021,
              "time": 45.068648625,
              "value": 0.5118110236220472
            },
            {
              "number": 11,
              "ticks": 40039,
              "time": 45.088918875000005,
              "value": 0.5039370078740157
            },
            {
              "number": 11,
              "ticks": 40056,
              "time": 45.108063,
              "value": 0.49606299212598426
            },
            {
              "number": 11,
              "ticks": 40074,
              "time": 45.12833325,
              "value": 0.4881889763779528
            },
            {
              "number": 11,
              "ticks": 40092,
              "time": 45.14860350000001,
              "value": 0.48031496062992124
            },
            {
              "number": 11,
              "ticks": 40110,
              "time": 45.16887375,
              "value": 0.47244094488188976
            },
            {
              "number": 11,
              "ticks": 40127,
              "time": 45.188017875,
              "value": 0.4645669291338583
            },
            {
              "number": 11,
              "ticks": 40145,
              "time": 45.208288125,
              "value": 0.4566929133858268
            },
            {
              "number": 11,
              "ticks": 40163,
              "time": 45.228558375,
              "value": 0.44881889763779526
            },
            {
              "number": 11,
              "ticks": 40181,
              "time": 45.248828625,
              "value": 0.4409448818897638
            },
            {
              "number": 11,
              "ticks": 40199,
              "time": 45.269098875000005,
              "value": 0.4330708661417323
            },
            {
              "number": 11,
              "ticks": 40219,
              "time": 45.291621375000005,
              "value": 0.48031496062992124
            },
            {
              "number": 11,
              "ticks": 40239,
              "time": 45.314143875,
              "value": 0.47244094488188976
            },
            {
              "number": 11,
              "ticks": 40300,
              "time": 45.3828375,
              "value": 0.6299212598425197
            },
            {
              "number": 11,
              "ticks": 40320,
              "time": 45.40536,
              "value": 0.6377952755905512
            },
            {
              "number": 11,
              "ticks": 40341,
              "time": 45.429008625,
              "value": 0.6456692913385826
            },
            {
              "number": 11,
              "ticks": 40362,
              "time": 45.45265725,
              "value": 0.6535433070866141
            },
            {
              "number": 11,
              "ticks": 40383,
              "time": 45.476305875,
              "value": 0.6614173228346457
            },
            {
              "number": 11,
              "ticks": 40404,
              "time": 45.4999545,
              "value": 0.6692913385826772
            },
            {
              "number": 11,
              "ticks": 40425,
              "time": 45.523603125,
              "value": 0.6771653543307087
            },
            {
              "number": 11,
              "ticks": 40446,
              "time": 45.54725175,
              "value": 0.6850393700787402
            },
            {
              "number": 11,
              "ticks": 40467,
              "time": 45.57090037500001,
              "value": 0.6929133858267716
            },
            {
              "number": 11,
              "ticks": 40488,
              "time": 45.594549,
              "value": 0.7007874015748031
            },
            {
              "number": 11,
              "ticks": 40509,
              "time": 45.618197625,
              "value": 0.7086614173228346
            },
            {
              "number": 11,
              "ticks": 40530,
              "time": 45.64184625,
              "value": 0.7165354330708661
            },
            {
              "number": 11,
              "ticks": 40551,
              "time": 45.665494875,
              "value": 0.7244094488188977
            },
            {
              "number": 11,
              "ticks": 40572,
              "time": 45.68914350000001,
              "value": 0.7322834645669292
            },
            {
              "number": 11,
              "ticks": 40593,
              "time": 45.712792125,
              "value": 0.7401574803149606
            },
            {
              "number": 11,
              "ticks": 40614,
              "time": 45.73644075,
              "value": 0.7480314960629921
            },
            {
              "number": 11,
              "ticks": 40635,
              "time": 45.760089375,
              "value": 0.7559055118110236
            },
            {
              "number": 11,
              "ticks": 40656,
              "time": 45.78373800000001,
              "value": 0.7637795275590551
            },
            {
              "number": 11,
              "ticks": 40677,
              "time": 45.80738662500001,
              "value": 0.7716535433070866
            },
            {
              "number": 11,
              "ticks": 40698,
              "time": 45.83103525,
              "value": 0.7795275590551181
            },
            {
              "number": 11,
              "ticks": 40719,
              "time": 45.854683875,
              "value": 0.7874015748031497
            },
            {
              "number": 11,
              "ticks": 40930,
              "time": 46.09229625,
              "value": 0.7874015748031497
            },
            {
              "number": 11,
              "ticks": 40945,
              "time": 46.109188124999996,
              "value": 0.7795275590551181
            },
            {
              "number": 11,
              "ticks": 40960,
              "time": 46.12608,
              "value": 0.7716535433070866
            },
            {
              "number": 11,
              "ticks": 40975,
              "time": 46.142971875,
              "value": 0.7637795275590551
            },
            {
              "number": 11,
              "ticks": 40990,
              "time": 46.15986375,
              "value": 0.7480314960629921
            },
            {
              "number": 11,
              "ticks": 41005,
              "time": 46.176755625,
              "value": 0.7401574803149606
            },
            {
              "number": 11,
              "ticks": 41020,
              "time": 46.1936475,
              "value": 0.7322834645669292
            },
            {
              "number": 11,
              "ticks": 41035,
              "time": 46.210539374999996,
              "value": 0.7165354330708661
            },
            {
              "number": 11,
              "ticks": 41050,
              "time": 46.22743125,
              "value": 0.7086614173228346
            },
            {
              "number": 11,
              "ticks": 41065,
              "time": 46.244323125,
              "value": 0.7007874015748031
            },
            {
              "number": 11,
              "ticks": 41080,
              "time": 46.261215,
              "value": 0.6850393700787402
            },
            {
              "number": 11,
              "ticks": 41095,
              "time": 46.278106875,
              "value": 0.6771653543307087
            },
            {
              "number": 11,
              "ticks": 41110,
              "time": 46.29499875,
              "value": 0.6692913385826772
            },
            {
              "number": 11,
              "ticks": 41125,
              "time": 46.311890625,
              "value": 0.6614173228346457
            },
            {
              "number": 11,
              "ticks": 41140,
              "time": 46.3287825,
              "value": 0.6456692913385826
            },
            {
              "number": 11,
              "ticks": 41155,
              "time": 46.345674375,
              "value": 0.6377952755905512
            },
            {
              "number": 11,
              "ticks": 41170,
              "time": 46.36256625,
              "value": 0.6299212598425197
            },
            {
              "number": 11,
              "ticks": 41185,
              "time": 46.379458125,
              "value": 0.6141732283464567
            },
            {
              "number": 11,
              "ticks": 41200,
              "time": 46.39635,
              "value": 0.6062992125984252
            },
            {
              "number": 11,
              "ticks": 41215,
              "time": 46.413241875,
              "value": 0.5984251968503937
            },
            {
              "number": 11,
              "ticks": 41230,
              "time": 46.430133749999996,
              "value": 0.5826771653543307
            },
            {
              "number": 11,
              "ticks": 41245,
              "time": 46.447025625,
              "value": 0.5748031496062992
            },
            {
              "number": 11,
              "ticks": 41260,
              "time": 46.4639175,
              "value": 0.5669291338582677
            },
            {
              "number": 11,
              "ticks": 41275,
              "time": 46.480809375,
              "value": 0.5511811023622047
            },
            {
              "number": 11,
              "ticks": 41290,
              "time": 46.49770125,
              "value": 0.5433070866141733
            },
            {
              "number": 11,
              "ticks": 41305,
              "time": 46.514593125,
              "value": 0.5354330708661418
            },
            {
              "number": 11,
              "ticks": 41320,
              "time": 46.531484999999996,
              "value": 0.5275590551181102
            },
            {
              "number": 11,
              "ticks": 41335,
              "time": 46.548376875,
              "value": 0.5118110236220472
            },
            {
              "number": 11,
              "ticks": 41350,
              "time": 46.56526875,
              "value": 0.5039370078740157
            },
            {
              "number": 11,
              "ticks": 41365,
              "time": 46.582160625,
              "value": 0.49606299212598426
            },
            {
              "number": 11,
              "ticks": 41380,
              "time": 46.5990525,
              "value": 0.48031496062992124
            },
            {
              "number": 11,
              "ticks": 41395,
              "time": 46.615944375,
              "value": 0.47244094488188976
            },
            {
              "number": 11,
              "ticks": 41410,
              "time": 46.63283625,
              "value": 0.4645669291338583
            },
            {
              "number": 11,
              "ticks": 41425,
              "time": 46.649728124999996,
              "value": 0.44881889763779526
            },
            {
              "number": 11,
              "ticks": 41440,
              "time": 46.66662,
              "value": 0.4409448818897638
            },
            {
              "number": 11,
              "ticks": 41455,
              "time": 46.683511875,
              "value": 0.4330708661417323
            },
            {
              "number": 11,
              "ticks": 41470,
              "time": 46.70040375,
              "value": 0.41732283464566927
            },
            {
              "number": 11,
              "ticks": 41485,
              "time": 46.717295625,
              "value": 0.4094488188976378
            },
            {
              "number": 11,
              "ticks": 41500,
              "time": 46.7341875,
              "value": 0.4015748031496063
            },
            {
              "number": 11,
              "ticks": 41515,
              "time": 46.751079374999996,
              "value": 0.3937007874015748
            },
            {
              "number": 11,
              "ticks": 41530,
              "time": 46.76797125,
              "value": 0.3779527559055118
            },
            {
              "number": 11,
              "ticks": 41545,
              "time": 46.784863125,
              "value": 0.3700787401574803
            },
            {
              "number": 11,
              "ticks": 41560,
              "time": 46.801755,
              "value": 0.36220472440944884
            },
            {
              "number": 11,
              "ticks": 41575,
              "time": 46.818646875,
              "value": 0.3464566929133858
            },
            {
              "number": 11,
              "ticks": 41590,
              "time": 46.83553875,
              "value": 0.33858267716535434
            },
            {
              "number": 11,
              "ticks": 41605,
              "time": 46.852430625,
              "value": 0.33070866141732286
            },
            {
              "number": 11,
              "ticks": 41619,
              "time": 46.868196375000004,
              "value": 0.31496062992125984
            },
            {
              "number": 11,
              "ticks": 43045,
              "time": 48.474050625,
              "value": 1
            },
            {
              "number": 11,
              "ticks": 49840,
              "time": 56.12607,
              "value": 0.6692913385826772
            },
            {
              "number": 11,
              "ticks": 49941,
              "time": 56.239808625,
              "value": 0.6771653543307087
            },
            {
              "number": 11,
              "ticks": 50043,
              "time": 56.354673375,
              "value": 0.6850393700787402
            },
            {
              "number": 11,
              "ticks": 50145,
              "time": 56.469538125,
              "value": 0.6929133858267716
            },
            {
              "number": 11,
              "ticks": 50247,
              "time": 56.584402875,
              "value": 0.7007874015748031
            },
            {
              "number": 11,
              "ticks": 50349,
              "time": 56.699267625,
              "value": 0.7086614173228346
            },
            {
              "number": 11,
              "ticks": 50451,
              "time": 56.81413237500001,
              "value": 0.7165354330708661
            },
            {
              "number": 11,
              "ticks": 50553,
              "time": 56.928997125,
              "value": 0.7244094488188977
            },
            {
              "number": 11,
              "ticks": 50655,
              "time": 57.043861875000005,
              "value": 0.7322834645669292
            },
            {
              "number": 11,
              "ticks": 50756,
              "time": 57.1576005,
              "value": 0.7401574803149606
            },
            {
              "number": 11,
              "ticks": 50858,
              "time": 57.27246525,
              "value": 0.7480314960629921
            },
            {
              "number": 11,
              "ticks": 50960,
              "time": 57.387330000000006,
              "value": 0.7559055118110236
            },
            {
              "number": 11,
              "ticks": 51062,
              "time": 57.50219475,
              "value": 0.7637795275590551
            },
            {
              "number": 11,
              "ticks": 51164,
              "time": 57.6170595,
              "value": 0.7716535433070866
            },
            {
              "number": 11,
              "ticks": 51266,
              "time": 57.73192425,
              "value": 0.7795275590551181
            },
            {
              "number": 11,
              "ticks": 51368,
              "time": 57.846789,
              "value": 0.7874015748031497
            },
            {
              "number": 11,
              "ticks": 51470,
              "time": 57.96165375,
              "value": 0.7952755905511811
            },
            {
              "number": 11,
              "ticks": 51571,
              "time": 58.075392375,
              "value": 0.8031496062992126
            },
            {
              "number": 11,
              "ticks": 51673,
              "time": 58.190257125,
              "value": 0.8110236220472441
            },
            {
              "number": 11,
              "ticks": 51775,
              "time": 58.305121875,
              "value": 0.8188976377952756
            },
            {
              "number": 11,
              "ticks": 51877,
              "time": 58.419986625,
              "value": 0.8267716535433071
            },
            {
              "number": 11,
              "ticks": 51979,
              "time": 58.534851375,
              "value": 0.8346456692913385
            },
            {
              "number": 11,
              "ticks": 52081,
              "time": 58.649716125,
              "value": 0.84251968503937
            },
            {
              "number": 11,
              "ticks": 52183,
              "time": 58.76458087500001,
              "value": 0.8503937007874016
            },
            {
              "number": 11,
              "ticks": 52285,
              "time": 58.879445625,
              "value": 0.8582677165354331
            },
            {
              "number": 11,
              "ticks": 52387,
              "time": 58.994310375000005,
              "value": 0.8661417322834646
            },
            {
              "number": 11,
              "ticks": 52488,
              "time": 59.108049,
              "value": 0.8740157480314961
            },
            {
              "number": 11,
              "ticks": 52590,
              "time": 59.222913750000004,
              "value": 0.8818897637795275
            },
            {
              "number": 11,
              "ticks": 52692,
              "time": 59.337778500000006,
              "value": 0.889763779527559
            },
            {
              "number": 11,
              "ticks": 52794,
              "time": 59.45264325,
              "value": 0.8976377952755905
            },
            {
              "number": 11,
              "ticks": 52896,
              "time": 59.567508000000004,
              "value": 0.905511811023622
            },
            {
              "number": 11,
              "ticks": 52998,
              "time": 59.68237275,
              "value": 0.9133858267716536
            },
            {
              "number": 11,
              "ticks": 53100,
              "time": 59.7972375,
              "value": 0.9212598425196851
            },
            {
              "number": 11,
              "ticks": 53202,
              "time": 59.912102250000004,
              "value": 0.9291338582677166
            },
            {
              "number": 11,
              "ticks": 53303,
              "time": 60.025840875,
              "value": 0.937007874015748
            },
            {
              "number": 11,
              "ticks": 53405,
              "time": 60.140705625,
              "value": 0.9448818897637795
            },
            {
              "number": 11,
              "ticks": 53507,
              "time": 60.255570375,
              "value": 0.952755905511811
            },
            {
              "number": 11,
              "ticks": 53609,
              "time": 60.370435125,
              "value": 0.9606299212598425
            },
            {
              "number": 11,
              "ticks": 53711,
              "time": 60.485299874999995,
              "value": 0.968503937007874
            },
            {
              "number": 11,
              "ticks": 53813,
              "time": 60.600164625000005,
              "value": 0.9763779527559056
            },
            {
              "number": 11,
              "ticks": 53915,
              "time": 60.71502937500001,
              "value": 0.984251968503937
            },
            {
              "number": 11,
              "ticks": 54017,
              "time": 60.829894125,
              "value": 0.9921259842519685
            },
            {
              "number": 11,
              "ticks": 54119,
              "time": 60.944758875000005,
              "value": 1
            },
            {
              "number": 11,
              "ticks": 65230,
              "time": 73.45713375000001,
              "value": 0.8661417322834646
            },
            {
              "number": 11,
              "ticks": 65317,
              "time": 73.555106625,
              "value": 0.8740157480314961
            },
            {
              "number": 11,
              "ticks": 65404,
              "time": 73.6530795,
              "value": 0.8818897637795275
            },
            {
              "number": 11,
              "ticks": 65491,
              "time": 73.751052375,
              "value": 0.889763779527559
            },
            {
              "number": 11,
              "ticks": 65578,
              "time": 73.84902525000001,
              "value": 0.8976377952755905
            },
            {
              "number": 11,
              "ticks": 65665,
              "time": 73.94699812500001,
              "value": 0.905511811023622
            },
            {
              "number": 11,
              "ticks": 65752,
              "time": 74.04497099999999,
              "value": 0.9133858267716536
            },
            {
              "number": 11,
              "ticks": 65839,
              "time": 74.142943875,
              "value": 0.9212598425196851
            },
            {
              "number": 11,
              "ticks": 65926,
              "time": 74.24091675,
              "value": 0.9291338582677166
            },
            {
              "number": 11,
              "ticks": 66013,
              "time": 74.33888962500001,
              "value": 0.937007874015748
            },
            {
              "number": 11,
              "ticks": 66100,
              "time": 74.4368625,
              "value": 0.9448818897637795
            },
            {
              "number": 11,
              "ticks": 66187,
              "time": 74.534835375,
              "value": 0.952755905511811
            },
            {
              "number": 11,
              "ticks": 66274,
              "time": 74.63280825,
              "value": 0.9606299212598425
            },
            {
              "number": 11,
              "ticks": 66361,
              "time": 74.73078112500001,
              "value": 0.968503937007874
            },
            {
              "number": 11,
              "ticks": 66448,
              "time": 74.828754,
              "value": 0.9763779527559056
            },
            {
              "number": 11,
              "ticks": 66535,
              "time": 74.92672687500001,
              "value": 0.984251968503937
            },
            {
              "number": 11,
              "ticks": 66622,
              "time": 75.02469975,
              "value": 0.9921259842519685
            },
            {
              "number": 11,
              "ticks": 66709,
              "time": 75.12267262499999,
              "value": 1
            },
            {
              "number": 11,
              "ticks": 71135,
              "time": 80.10690187499999,
              "value": 1
            },
            {
              "number": 11,
              "ticks": 71150,
              "time": 80.12379375,
              "value": 0.9448818897637795
            },
            {
              "number": 11,
              "ticks": 71165,
              "time": 80.140685625,
              "value": 0.8818897637795275
            },
            {
              "number": 11,
              "ticks": 71180,
              "time": 80.1575775,
              "value": 0.8188976377952756
            },
            {
              "number": 11,
              "ticks": 71195,
              "time": 80.174469375,
              "value": 0.7559055118110236
            },
            {
              "number": 11,
              "ticks": 71210,
              "time": 80.19136125,
              "value": 0.6929133858267716
            },
            {
              "number": 11,
              "ticks": 71225,
              "time": 80.208253125,
              "value": 0.6299212598425197
            },
            {
              "number": 11,
              "ticks": 71240,
              "time": 80.225145,
              "value": 0.5669291338582677
            },
            {
              "number": 11,
              "ticks": 71560,
              "time": 80.58550500000001,
              "value": 1
            },
            {
              "number": 11,
              "ticks": 73125,
              "time": 82.347890625,
              "value": 0.9448818897637795
            },
            {
              "number": 11,
              "ticks": 73140,
              "time": 82.3647825,
              "value": 0.8818897637795275
            },
            {
              "number": 11,
              "ticks": 73155,
              "time": 82.381674375,
              "value": 0.8188976377952756
            },
            {
              "number": 11,
              "ticks": 73170,
              "time": 82.39856625,
              "value": 0.7559055118110236
            },
            {
              "number": 11,
              "ticks": 73185,
              "time": 82.415458125,
              "value": 0.6929133858267716
            },
            {
              "number": 11,
              "ticks": 73200,
              "time": 82.43235,
              "value": 0.6299212598425197
            },
            {
              "number": 11,
              "ticks": 73215,
              "time": 82.449241875,
              "value": 0.5669291338582677
            },
            {
              "number": 11,
              "ticks": 73505,
              "time": 82.775818125,
              "value": 1
            },
            {
              "number": 11,
              "ticks": 101760,
              "time": 114.59448,
              "value": 0.2755905511811024
            },
            {
              "number": 11,
              "ticks": 101801,
              "time": 114.640651125,
              "value": 0.28346456692913385
            },
            {
              "number": 11,
              "ticks": 101843,
              "time": 114.687948375,
              "value": 0.29133858267716534
            },
            {
              "number": 11,
              "ticks": 101885,
              "time": 114.735245625,
              "value": 0.2992125984251969
            },
            {
              "number": 11,
              "ticks": 101926,
              "time": 114.78141675,
              "value": 0.30708661417322836
            },
            {
              "number": 11,
              "ticks": 101968,
              "time": 114.828714,
              "value": 0.31496062992125984
            },
            {
              "number": 11,
              "ticks": 102010,
              "time": 114.87601125,
              "value": 0.3228346456692913
            },
            {
              "number": 11,
              "ticks": 102052,
              "time": 114.92330849999999,
              "value": 0.33070866141732286
            },
            {
              "number": 11,
              "ticks": 102093,
              "time": 114.969479625,
              "value": 0.33858267716535434
            },
            {
              "number": 11,
              "ticks": 102135,
              "time": 115.016776875,
              "value": 0.3464566929133858
            },
            {
              "number": 11,
              "ticks": 102177,
              "time": 115.064074125,
              "value": 0.3543307086614173
            },
            {
              "number": 11,
              "ticks": 102219,
              "time": 115.111371375,
              "value": 0.36220472440944884
            },
            {
              "number": 11,
              "ticks": 102260,
              "time": 115.1575425,
              "value": 0.3700787401574803
            },
            {
              "number": 11,
              "ticks": 102302,
              "time": 115.20483975,
              "value": 0.3779527559055118
            },
            {
              "number": 11,
              "ticks": 102344,
              "time": 115.252137,
              "value": 0.3858267716535433
            },
            {
              "number": 11,
              "ticks": 102385,
              "time": 115.298308125,
              "value": 0.3937007874015748
            },
            {
              "number": 11,
              "ticks": 102427,
              "time": 115.34560537499999,
              "value": 0.4015748031496063
            },
            {
              "number": 11,
              "ticks": 102469,
              "time": 115.392902625,
              "value": 0.4094488188976378
            },
            {
              "number": 11,
              "ticks": 102511,
              "time": 115.440199875,
              "value": 0.41732283464566927
            },
            {
              "number": 11,
              "ticks": 102552,
              "time": 115.486371,
              "value": 0.4251968503937008
            },
            {
              "number": 11,
              "ticks": 102594,
              "time": 115.53366825,
              "value": 0.4330708661417323
            },
            {
              "number": 11,
              "ticks": 102636,
              "time": 115.5809655,
              "value": 0.4409448818897638
            },
            {
              "number": 11,
              "ticks": 102678,
              "time": 115.62826275,
              "value": 0.44881889763779526
            },
            {
              "number": 11,
              "ticks": 102719,
              "time": 115.674433875,
              "value": 0.4566929133858268
            },
            {
              "number": 11,
              "ticks": 102761,
              "time": 115.721731125,
              "value": 0.4645669291338583
            },
            {
              "number": 11,
              "ticks": 102803,
              "time": 115.769028375,
              "value": 0.47244094488188976
            },
            {
              "number": 11,
              "ticks": 102844,
              "time": 115.8151995,
              "value": 0.48031496062992124
            },
            {
              "number": 11,
              "ticks": 102886,
              "time": 115.86249675,
              "value": 0.4881889763779528
            },
            {
              "number": 11,
              "ticks": 102928,
              "time": 115.909794,
              "value": 0.49606299212598426
            },
            {
              "number": 11,
              "ticks": 102970,
              "time": 115.95709125,
              "value": 0.5039370078740157
            },
            {
              "number": 11,
              "ticks": 103011,
              "time": 116.00326237499999,
              "value": 0.5118110236220472
            },
            {
              "number": 11,
              "ticks": 103053,
              "time": 116.050559625,
              "value": 0.5196850393700787
            },
            {
              "number": 11,
              "ticks": 103095,
              "time": 116.097856875,
              "value": 0.5275590551181102
            },
            {
              "number": 11,
              "ticks": 103137,
              "time": 116.145154125,
              "value": 0.5354330708661418
            },
            {
              "number": 11,
              "ticks": 103178,
              "time": 116.19132525,
              "value": 0.5433070866141733
            },
            {
              "number": 11,
              "ticks": 103220,
              "time": 116.2386225,
              "value": 0.5511811023622047
            },
            {
              "number": 11,
              "ticks": 103262,
              "time": 116.28591975,
              "value": 0.5590551181102362
            },
            {
              "number": 11,
              "ticks": 103303,
              "time": 116.332090875,
              "value": 0.5669291338582677
            },
            {
              "number": 11,
              "ticks": 103345,
              "time": 116.379388125,
              "value": 0.5748031496062992
            },
            {
              "number": 11,
              "ticks": 103387,
              "time": 116.42668537499999,
              "value": 0.5826771653543307
            },
            {
              "number": 11,
              "ticks": 103429,
              "time": 116.473982625,
              "value": 0.5905511811023622
            },
            {
              "number": 11,
              "ticks": 103470,
              "time": 116.52015375,
              "value": 0.5984251968503937
            },
            {
              "number": 11,
              "ticks": 103512,
              "time": 116.567451,
              "value": 0.6062992125984252
            },
            {
              "number": 11,
              "ticks": 103554,
              "time": 116.61474825,
              "value": 0.6141732283464567
            },
            {
              "number": 11,
              "ticks": 103596,
              "time": 116.6620455,
              "value": 0.6220472440944882
            },
            {
              "number": 11,
              "ticks": 103637,
              "time": 116.708216625,
              "value": 0.6299212598425197
            },
            {
              "number": 11,
              "ticks": 103679,
              "time": 116.755513875,
              "value": 0.6377952755905512
            },
            {
              "number": 11,
              "ticks": 103721,
              "time": 116.802811125,
              "value": 0.6456692913385826
            },
            {
              "number": 11,
              "ticks": 103762,
              "time": 116.84898224999999,
              "value": 0.6535433070866141
            },
            {
              "number": 11,
              "ticks": 103804,
              "time": 116.8962795,
              "value": 0.6614173228346457
            },
            {
              "number": 11,
              "ticks": 103846,
              "time": 116.94357675,
              "value": 0.6692913385826772
            },
            {
              "number": 11,
              "ticks": 103888,
              "time": 116.990874,
              "value": 0.6771653543307087
            },
            {
              "number": 11,
              "ticks": 103929,
              "time": 117.037045125,
              "value": 0.6850393700787402
            },
            {
              "number": 11,
              "ticks": 103971,
              "time": 117.08434237499999,
              "value": 0.6929133858267716
            },
            {
              "number": 11,
              "ticks": 104013,
              "time": 117.131639625,
              "value": 0.7007874015748031
            },
            {
              "number": 11,
              "ticks": 104055,
              "time": 117.178936875,
              "value": 0.7086614173228346
            },
            {
              "number": 11,
              "ticks": 104096,
              "time": 117.225108,
              "value": 0.7165354330708661
            },
            {
              "number": 11,
              "ticks": 104138,
              "time": 117.27240525,
              "value": 0.7244094488188977
            },
            {
              "number": 11,
              "ticks": 104180,
              "time": 117.3197025,
              "value": 0.7322834645669292
            },
            {
              "number": 11,
              "ticks": 104221,
              "time": 117.365873625,
              "value": 0.7401574803149606
            },
            {
              "number": 11,
              "ticks": 104263,
              "time": 117.413170875,
              "value": 0.7480314960629921
            },
            {
              "number": 11,
              "ticks": 104305,
              "time": 117.460468125,
              "value": 0.7559055118110236
            },
            {
              "number": 11,
              "ticks": 104347,
              "time": 117.50776537499999,
              "value": 0.7637795275590551
            },
            {
              "number": 11,
              "ticks": 104388,
              "time": 117.5539365,
              "value": 0.7716535433070866
            },
            {
              "number": 11,
              "ticks": 104430,
              "time": 117.60123375,
              "value": 0.7795275590551181
            },
            {
              "number": 11,
              "ticks": 104472,
              "time": 117.648531,
              "value": 0.7874015748031497
            },
            {
              "number": 11,
              "ticks": 104514,
              "time": 117.69582825,
              "value": 0.7952755905511811
            },
            {
              "number": 11,
              "ticks": 104555,
              "time": 117.741999375,
              "value": 0.8031496062992126
            },
            {
              "number": 11,
              "ticks": 104597,
              "time": 117.789296625,
              "value": 0.8110236220472441
            },
            {
              "number": 11,
              "ticks": 104639,
              "time": 117.836593875,
              "value": 0.8188976377952756
            },
            {
              "number": 11,
              "ticks": 104680,
              "time": 117.882765,
              "value": 0.8267716535433071
            },
            {
              "number": 11,
              "ticks": 104722,
              "time": 117.93006224999999,
              "value": 0.8346456692913385
            },
            {
              "number": 11,
              "ticks": 104764,
              "time": 117.9773595,
              "value": 0.84251968503937
            },
            {
              "number": 11,
              "ticks": 104806,
              "time": 118.02465675,
              "value": 0.8503937007874016
            },
            {
              "number": 11,
              "ticks": 104847,
              "time": 118.070827875,
              "value": 0.8582677165354331
            },
            {
              "number": 11,
              "ticks": 104889,
              "time": 118.118125125,
              "value": 0.8661417322834646
            },
            {
              "number": 11,
              "ticks": 104931,
              "time": 118.16542237499999,
              "value": 0.8740157480314961
            },
            {
              "number": 11,
              "ticks": 104973,
              "time": 118.212719625,
              "value": 0.8818897637795275
            },
            {
              "number": 11,
              "ticks": 105014,
              "time": 118.25889075,
              "value": 0.889763779527559
            },
            {
              "number": 11,
              "ticks": 105056,
              "time": 118.306188,
              "value": 0.8976377952755905
            },
            {
              "number": 11,
              "ticks": 105098,
              "time": 118.35348525,
              "value": 0.905511811023622
            },
            {
              "number": 11,
              "ticks": 105139,
              "time": 118.399656375,
              "value": 0.9133858267716536
            },
            {
              "number": 11,
              "ticks": 105181,
              "time": 118.446953625,
              "value": 0.9212598425196851
            },
            {
              "number": 11,
              "ticks": 105223,
              "time": 118.494250875,
              "value": 0.9291338582677166
            },
            {
              "number": 11,
              "ticks": 105265,
              "time": 118.541548125,
              "value": 0.937007874015748
            },
            {
              "number": 11,
              "ticks": 105306,
              "time": 118.58771924999999,
              "value": 0.9448818897637795
            },
            {
              "number": 11,
              "ticks": 105348,
              "time": 118.6350165,
              "value": 0.952755905511811
            },
            {
              "number": 11,
              "ticks": 105390,
              "time": 118.68231375,
              "value": 0.9606299212598425
            },
            {
              "number": 11,
              "ticks": 105432,
              "time": 118.729611,
              "value": 0.968503937007874
            },
            {
              "number": 11,
              "ticks": 105473,
              "time": 118.775782125,
              "value": 0.9763779527559056
            },
            {
              "number": 11,
              "ticks": 105515,
              "time": 118.823079375,
              "value": 0.984251968503937
            },
            {
              "number": 11,
              "ticks": 105557,
              "time": 118.870376625,
              "value": 0.9921259842519685
            },
            {
              "number": 11,
              "ticks": 105599,
              "time": 118.917673875,
              "value": 1
            },
            {
              "number": 11,
              "ticks": 106320,
              "time": 119.72961000000001,
              "value": 1
            },
            {
              "number": 11,
              "ticks": 106371,
              "time": 119.787042375,
              "value": 0.9921259842519685
            },
            {
              "number": 11,
              "ticks": 106423,
              "time": 119.845600875,
              "value": 0.984251968503937
            },
            {
              "number": 11,
              "ticks": 106474,
              "time": 119.90303325000001,
              "value": 0.9763779527559056
            },
            {
              "number": 11,
              "ticks": 106526,
              "time": 119.96159175000001,
              "value": 0.968503937007874
            },
            {
              "number": 11,
              "ticks": 106577,
              "time": 120.019024125,
              "value": 0.9606299212598425
            },
            {
              "number": 11,
              "ticks": 106629,
              "time": 120.077582625,
              "value": 0.952755905511811
            },
            {
              "number": 11,
              "ticks": 106681,
              "time": 120.13614112500001,
              "value": 0.9448818897637795
            },
            {
              "number": 11,
              "ticks": 106732,
              "time": 120.1935735,
              "value": 0.937007874015748
            },
            {
              "number": 11,
              "ticks": 106784,
              "time": 120.252132,
              "value": 0.9291338582677166
            },
            {
              "number": 11,
              "ticks": 106835,
              "time": 120.309564375,
              "value": 0.9212598425196851
            },
            {
              "number": 11,
              "ticks": 106887,
              "time": 120.36812287500001,
              "value": 0.9133858267716536
            },
            {
              "number": 11,
              "ticks": 106939,
              "time": 120.426681375,
              "value": 0.905511811023622
            },
            {
              "number": 11,
              "ticks": 106990,
              "time": 120.48411375,
              "value": 0.8976377952755905
            },
            {
              "number": 11,
              "ticks": 107042,
              "time": 120.54267225,
              "value": 0.889763779527559
            },
            {
              "number": 11,
              "ticks": 107093,
              "time": 120.60010462500001,
              "value": 0.8818897637795275
            },
            {
              "number": 11,
              "ticks": 107145,
              "time": 120.658663125,
              "value": 0.8740157480314961
            },
            {
              "number": 11,
              "ticks": 107197,
              "time": 120.717221625,
              "value": 0.8661417322834646
            },
            {
              "number": 11,
              "ticks": 107248,
              "time": 120.77465400000001,
              "value": 0.8582677165354331
            },
            {
              "number": 11,
              "ticks": 107300,
              "time": 120.8332125,
              "value": 0.8503937007874016
            },
            {
              "number": 11,
              "ticks": 107351,
              "time": 120.890644875,
              "value": 0.84251968503937
            },
            {
              "number": 11,
              "ticks": 107403,
              "time": 120.949203375,
              "value": 0.8346456692913385
            },
            {
              "number": 11,
              "ticks": 107455,
              "time": 121.00776187500001,
              "value": 0.8267716535433071
            },
            {
              "number": 11,
              "ticks": 107506,
              "time": 121.06519425,
              "value": 0.8188976377952756
            },
            {
              "number": 11,
              "ticks": 107558,
              "time": 121.12375275000001,
              "value": 0.8110236220472441
            },
            {
              "number": 11,
              "ticks": 107609,
              "time": 121.181185125,
              "value": 0.8031496062992126
            },
            {
              "number": 11,
              "ticks": 107661,
              "time": 121.239743625,
              "value": 0.7952755905511811
            },
            {
              "number": 11,
              "ticks": 107713,
              "time": 121.298302125,
              "value": 0.7874015748031497
            },
            {
              "number": 11,
              "ticks": 107764,
              "time": 121.3557345,
              "value": 0.7795275590551181
            },
            {
              "number": 11,
              "ticks": 107816,
              "time": 121.41429300000001,
              "value": 0.7716535433070866
            },
            {
              "number": 11,
              "ticks": 107867,
              "time": 121.471725375,
              "value": 0.7637795275590551
            },
            {
              "number": 11,
              "ticks": 107919,
              "time": 121.53028387500001,
              "value": 0.7559055118110236
            },
            {
              "number": 11,
              "ticks": 107971,
              "time": 121.588842375,
              "value": 0.7480314960629921
            },
            {
              "number": 11,
              "ticks": 108022,
              "time": 121.64627475,
              "value": 0.7401574803149606
            },
            {
              "number": 11,
              "ticks": 108074,
              "time": 121.70483325000001,
              "value": 0.7322834645669292
            },
            {
              "number": 11,
              "ticks": 108125,
              "time": 121.762265625,
              "value": 0.7244094488188977
            },
            {
              "number": 11,
              "ticks": 108177,
              "time": 121.820824125,
              "value": 0.7165354330708661
            },
            {
              "number": 11,
              "ticks": 108229,
              "time": 121.879382625,
              "value": 0.7086614173228346
            },
            {
              "number": 11,
              "ticks": 108280,
              "time": 121.93681500000001,
              "value": 0.7007874015748031
            },
            {
              "number": 11,
              "ticks": 108332,
              "time": 121.9953735,
              "value": 0.6929133858267716
            },
            {
              "number": 11,
              "ticks": 108383,
              "time": 122.05280587500002,
              "value": 0.6850393700787402
            },
            {
              "number": 11,
              "ticks": 108435,
              "time": 122.11136437500001,
              "value": 0.6771653543307087
            },
            {
              "number": 11,
              "ticks": 108487,
              "time": 122.169922875,
              "value": 0.6692913385826772
            },
            {
              "number": 11,
              "ticks": 108538,
              "time": 122.22735525,
              "value": 0.6614173228346457
            },
            {
              "number": 11,
              "ticks": 108590,
              "time": 122.28591375,
              "value": 0.6535433070866141
            },
            {
              "number": 11,
              "ticks": 108641,
              "time": 122.34334612500001,
              "value": 0.6456692913385826
            },
            {
              "number": 11,
              "ticks": 108693,
              "time": 122.401904625,
              "value": 0.6377952755905512
            },
            {
              "number": 11,
              "ticks": 108745,
              "time": 122.460463125,
              "value": 0.6299212598425197
            },
            {
              "number": 11,
              "ticks": 108796,
              "time": 122.51789550000001,
              "value": 0.6220472440944882
            },
            {
              "number": 11,
              "ticks": 108848,
              "time": 122.57645400000001,
              "value": 0.6141732283464567
            },
            {
              "number": 11,
              "ticks": 108899,
              "time": 122.633886375,
              "value": 0.6062992125984252
            },
            {
              "number": 11,
              "ticks": 108951,
              "time": 122.69244487499999,
              "value": 0.5984251968503937
            },
            {
              "number": 11,
              "ticks": 109003,
              "time": 122.75100337500001,
              "value": 0.5905511811023622
            },
            {
              "number": 11,
              "ticks": 109054,
              "time": 122.80843575,
              "value": 0.5826771653543307
            },
            {
              "number": 11,
              "ticks": 109106,
              "time": 122.86699425,
              "value": 0.5748031496062992
            },
            {
              "number": 11,
              "ticks": 109157,
              "time": 122.92442662500001,
              "value": 0.5669291338582677
            },
            {
              "number": 11,
              "ticks": 109209,
              "time": 122.98298512500001,
              "value": 0.5590551181102362
            },
            {
              "number": 11,
              "ticks": 109261,
              "time": 123.041543625,
              "value": 0.5511811023622047
            },
            {
              "number": 11,
              "ticks": 109312,
              "time": 123.098976,
              "value": 0.5433070866141733
            },
            {
              "number": 11,
              "ticks": 109364,
              "time": 123.15753450000001,
              "value": 0.5354330708661418
            },
            {
              "number": 11,
              "ticks": 109415,
              "time": 123.214966875,
              "value": 0.5275590551181102
            },
            {
              "number": 11,
              "ticks": 109467,
              "time": 123.273525375,
              "value": 0.5196850393700787
            },
            {
              "number": 11,
              "ticks": 109519,
              "time": 123.332083875,
              "value": 0.5118110236220472
            },
            {
              "number": 11,
              "ticks": 110841,
              "time": 124.820821125,
              "value": 1
            },
            {
              "number": 11,
              "ticks": 120920,
              "time": 136.171035,
              "value": 0
            },
            {
              "number": 11,
              "ticks": 120935,
              "time": 136.187926875,
              "value": 0.007874015748031496
            },
            {
              "number": 11,
              "ticks": 120950,
              "time": 136.20481875,
              "value": 0.015748031496062992
            },
            {
              "number": 11,
              "ticks": 120965,
              "time": 136.221710625,
              "value": 0.031496062992125984
            },
            {
              "number": 11,
              "ticks": 120980,
              "time": 136.2386025,
              "value": 0.03937007874015748
            },
            {
              "number": 11,
              "ticks": 120995,
              "time": 136.255494375,
              "value": 0.047244094488188976
            },
            {
              "number": 11,
              "ticks": 121010,
              "time": 136.27238625,
              "value": 0.06299212598425197
            },
            {
              "number": 11,
              "ticks": 121025,
              "time": 136.289278125,
              "value": 0.07086614173228346
            },
            {
              "number": 11,
              "ticks": 121040,
              "time": 136.30617,
              "value": 0.08661417322834646
            },
            {
              "number": 11,
              "ticks": 121055,
              "time": 136.323061875,
              "value": 0.09448818897637795
            },
            {
              "number": 11,
              "ticks": 121070,
              "time": 136.33995375,
              "value": 0.10236220472440945
            },
            {
              "number": 11,
              "ticks": 121085,
              "time": 136.356845625,
              "value": 0.11811023622047244
            },
            {
              "number": 11,
              "ticks": 121100,
              "time": 136.3737375,
              "value": 0.12598425196850394
            },
            {
              "number": 11,
              "ticks": 121115,
              "time": 136.390629375,
              "value": 0.14173228346456693
            },
            {
              "number": 11,
              "ticks": 121130,
              "time": 136.40752125,
              "value": 0.14960629921259844
            },
            {
              "number": 11,
              "ticks": 121145,
              "time": 136.424413125,
              "value": 0.15748031496062992
            },
            {
              "number": 11,
              "ticks": 121160,
              "time": 136.441305,
              "value": 0.1732283464566929
            },
            {
              "number": 11,
              "ticks": 121175,
              "time": 136.458196875,
              "value": 0.18110236220472442
            },
            {
              "number": 11,
              "ticks": 121190,
              "time": 136.47508875,
              "value": 0.1968503937007874
            },
            {
              "number": 11,
              "ticks": 121205,
              "time": 136.491980625,
              "value": 0.2047244094488189
            },
            {
              "number": 11,
              "ticks": 121220,
              "time": 136.5088725,
              "value": 0.2125984251968504
            },
            {
              "number": 11,
              "ticks": 121235,
              "time": 136.525764375,
              "value": 0.2283464566929134
            },
            {
              "number": 11,
              "ticks": 121250,
              "time": 136.54265625,
              "value": 0.23622047244094488
            },
            {
              "number": 11,
              "ticks": 121265,
              "time": 136.559548125,
              "value": 0.2440944881889764
            },
            {
              "number": 11,
              "ticks": 121280,
              "time": 136.57644,
              "value": 0.25984251968503935
            },
            {
              "number": 11,
              "ticks": 121295,
              "time": 136.593331875,
              "value": 0.2677165354330709
            },
            {
              "number": 11,
              "ticks": 121310,
              "time": 136.61022375,
              "value": 0.28346456692913385
            },
            {
              "number": 11,
              "ticks": 121325,
              "time": 136.627115625,
              "value": 0.29133858267716534
            },
            {
              "number": 11,
              "ticks": 121340,
              "time": 136.6440075,
              "value": 0.2992125984251969
            },
            {
              "number": 11,
              "ticks": 121355,
              "time": 136.660899375,
              "value": 0.31496062992125984
            },
            {
              "number": 11,
              "ticks": 121370,
              "time": 136.67779125,
              "value": 0.3228346456692913
            },
            {
              "number": 11,
              "ticks": 121385,
              "time": 136.694683125,
              "value": 0.33858267716535434
            },
            {
              "number": 11,
              "ticks": 121400,
              "time": 136.711575,
              "value": 0.3464566929133858
            },
            {
              "number": 11,
              "ticks": 121415,
              "time": 136.728466875,
              "value": 0.3543307086614173
            },
            {
              "number": 11,
              "ticks": 121430,
              "time": 136.74535875,
              "value": 0.3700787401574803
            },
            {
              "number": 11,
              "ticks": 121445,
              "time": 136.762250625,
              "value": 0.3779527559055118
            },
            {
              "number": 11,
              "ticks": 121460,
              "time": 136.7791425,
              "value": 0.3937007874015748
            },
            {
              "number": 11,
              "ticks": 121475,
              "time": 136.796034375,
              "value": 0.4015748031496063
            },
            {
              "number": 11,
              "ticks": 121490,
              "time": 136.81292625,
              "value": 0.4094488188976378
            },
            {
              "number": 11,
              "ticks": 121505,
              "time": 136.829818125,
              "value": 0.4251968503937008
            },
            {
              "number": 11,
              "ticks": 121520,
              "time": 136.84671,
              "value": 0.4330708661417323
            },
            {
              "number": 11,
              "ticks": 121535,
              "time": 136.863601875,
              "value": 0.4409448818897638
            },
            {
              "number": 11,
              "ticks": 121550,
              "time": 136.88049375,
              "value": 0.4566929133858268
            },
            {
              "number": 11,
              "ticks": 121565,
              "time": 136.897385625,
              "value": 0.4645669291338583
            },
            {
              "number": 11,
              "ticks": 121580,
              "time": 136.9142775,
              "value": 0.48031496062992124
            },
            {
              "number": 11,
              "ticks": 121595,
              "time": 136.931169375,
              "value": 0.4881889763779528
            },
            {
              "number": 11,
              "ticks": 121610,
              "time": 136.94806125,
              "value": 0.49606299212598426
            },
            {
              "number": 11,
              "ticks": 121625,
              "time": 136.964953125,
              "value": 0.5118110236220472
            },
            {
              "number": 11,
              "ticks": 121640,
              "time": 136.981845,
              "value": 0.5196850393700787
            },
            {
              "number": 11,
              "ticks": 121655,
              "time": 136.998736875,
              "value": 0.5354330708661418
            },
            {
              "number": 11,
              "ticks": 121670,
              "time": 137.01562875,
              "value": 0.5433070866141733
            },
            {
              "number": 11,
              "ticks": 121685,
              "time": 137.032520625,
              "value": 0.5511811023622047
            },
            {
              "number": 11,
              "ticks": 121700,
              "time": 137.0494125,
              "value": 0.5669291338582677
            },
            {
              "number": 11,
              "ticks": 121715,
              "time": 137.066304375,
              "value": 0.5748031496062992
            },
            {
              "number": 11,
              "ticks": 121730,
              "time": 137.08319625,
              "value": 0.5905511811023622
            },
            {
              "number": 11,
              "ticks": 121745,
              "time": 137.100088125,
              "value": 0.5984251968503937
            },
            {
              "number": 11,
              "ticks": 121760,
              "time": 137.11698,
              "value": 0.6062992125984252
            },
            {
              "number": 11,
              "ticks": 121775,
              "time": 137.133871875,
              "value": 0.6220472440944882
            },
            {
              "number": 11,
              "ticks": 121790,
              "time": 137.15076375,
              "value": 0.6299212598425197
            },
            {
              "number": 11,
              "ticks": 121805,
              "time": 137.167655625,
              "value": 0.6456692913385826
            },
            {
              "number": 11,
              "ticks": 121820,
              "time": 137.1845475,
              "value": 0.6535433070866141
            },
            {
              "number": 11,
              "ticks": 121835,
              "time": 137.201439375,
              "value": 0.6614173228346457
            },
            {
              "number": 11,
              "ticks": 121850,
              "time": 137.21833125,
              "value": 0.6771653543307087
            },
            {
              "number": 11,
              "ticks": 121865,
              "time": 137.235223125,
              "value": 0.6850393700787402
            },
            {
              "number": 11,
              "ticks": 121880,
              "time": 137.252115,
              "value": 0.6929133858267716
            },
            {
              "number": 11,
              "ticks": 121895,
              "time": 137.269006875,
              "value": 0.7086614173228346
            },
            {
              "number": 11,
              "ticks": 121910,
              "time": 137.28589875,
              "value": 0.7165354330708661
            },
            {
              "number": 11,
              "ticks": 121925,
              "time": 137.302790625,
              "value": 0.7322834645669292
            },
            {
              "number": 11,
              "ticks": 121940,
              "time": 137.3196825,
              "value": 0.7401574803149606
            },
            {
              "number": 11,
              "ticks": 121955,
              "time": 137.336574375,
              "value": 0.7480314960629921
            },
            {
              "number": 11,
              "ticks": 121970,
              "time": 137.35346625,
              "value": 0.7637795275590551
            },
            {
              "number": 11,
              "ticks": 121985,
              "time": 137.370358125,
              "value": 0.7716535433070866
            },
            {
              "number": 11,
              "ticks": 121999,
              "time": 137.386123875,
              "value": 0.7874015748031497
            },
            {
              "number": 11,
              "ticks": 122020,
              "time": 137.4097725,
              "value": 0.7874015748031497
            },
            {
              "number": 11,
              "ticks": 122046,
              "time": 137.43905175,
              "value": 0.7795275590551181
            },
            {
              "number": 11,
              "ticks": 122073,
              "time": 137.469457125,
              "value": 0.7716535433070866
            },
            {
              "number": 11,
              "ticks": 122100,
              "time": 137.4998625,
              "value": 0.7637795275590551
            },
            {
              "number": 11,
              "ticks": 122127,
              "time": 137.53026787500002,
              "value": 0.7559055118110236
            },
            {
              "number": 11,
              "ticks": 122154,
              "time": 137.56067325,
              "value": 0.7480314960629921
            },
            {
              "number": 11,
              "ticks": 122181,
              "time": 137.591078625,
              "value": 0.7401574803149606
            },
            {
              "number": 11,
              "ticks": 122208,
              "time": 137.621484,
              "value": 0.7322834645669292
            },
            {
              "number": 11,
              "ticks": 122235,
              "time": 137.651889375,
              "value": 0.7244094488188977
            },
            {
              "number": 11,
              "ticks": 122262,
              "time": 137.68229475,
              "value": 0.7165354330708661
            },
            {
              "number": 11,
              "ticks": 122289,
              "time": 137.712700125,
              "value": 0.7086614173228346
            },
            {
              "number": 11,
              "ticks": 122316,
              "time": 137.7431055,
              "value": 0.7007874015748031
            },
            {
              "number": 11,
              "ticks": 122343,
              "time": 137.773510875,
              "value": 0.6929133858267716
            },
            {
              "number": 11,
              "ticks": 122370,
              "time": 137.80391625000001,
              "value": 0.6850393700787402
            },
            {
              "number": 11,
              "ticks": 122397,
              "time": 137.834321625,
              "value": 0.6771653543307087
            },
            {
              "number": 11,
              "ticks": 122424,
              "time": 137.86472700000002,
              "value": 0.6692913385826772
            },
            {
              "number": 11,
              "ticks": 122451,
              "time": 137.895132375,
              "value": 0.6614173228346457
            },
            {
              "number": 11,
              "ticks": 122478,
              "time": 137.92553775,
              "value": 0.6535433070866141
            },
            {
              "number": 11,
              "ticks": 122505,
              "time": 137.955943125,
              "value": 0.6456692913385826
            },
            {
              "number": 11,
              "ticks": 122532,
              "time": 137.98634850000002,
              "value": 0.6377952755905512
            },
            {
              "number": 11,
              "ticks": 122559,
              "time": 138.016753875,
              "value": 0.6299212598425197
            },
            {
              "number": 11,
              "ticks": 122586,
              "time": 138.04715925,
              "value": 0.6220472440944882
            },
            {
              "number": 11,
              "ticks": 122613,
              "time": 138.077564625,
              "value": 0.6141732283464567
            },
            {
              "number": 11,
              "ticks": 122640,
              "time": 138.10797,
              "value": 0.6062992125984252
            },
            {
              "number": 11,
              "ticks": 122667,
              "time": 138.138375375,
              "value": 0.5984251968503937
            },
            {
              "number": 11,
              "ticks": 122694,
              "time": 138.16878075000002,
              "value": 0.5905511811023622
            },
            {
              "number": 11,
              "ticks": 122721,
              "time": 138.199186125,
              "value": 0.5826771653543307
            },
            {
              "number": 11,
              "ticks": 122748,
              "time": 138.2295915,
              "value": 0.5748031496062992
            },
            {
              "number": 11,
              "ticks": 122775,
              "time": 138.259996875,
              "value": 0.5669291338582677
            },
            {
              "number": 11,
              "ticks": 122802,
              "time": 138.29040225,
              "value": 0.5590551181102362
            },
            {
              "number": 11,
              "ticks": 122829,
              "time": 138.32080762500001,
              "value": 0.5511811023622047
            },
            {
              "number": 11,
              "ticks": 122856,
              "time": 138.351213,
              "value": 0.5433070866141733
            },
            {
              "number": 11,
              "ticks": 122883,
              "time": 138.38161837500002,
              "value": 0.5354330708661418
            },
            {
              "number": 11,
              "ticks": 122910,
              "time": 138.41202375,
              "value": 0.5275590551181102
            },
            {
              "number": 11,
              "ticks": 122937,
              "time": 138.442429125,
              "value": 0.5196850393700787
            },
            {
              "number": 11,
              "ticks": 122964,
              "time": 138.4728345,
              "value": 0.5118110236220472
            },
            {
              "number": 11,
              "ticks": 122991,
              "time": 138.503239875,
              "value": 0.5039370078740157
            },
            {
              "number": 11,
              "ticks": 123018,
              "time": 138.53364525,
              "value": 0.49606299212598426
            },
            {
              "number": 11,
              "ticks": 123045,
              "time": 138.564050625,
              "value": 0.4881889763779528
            },
            {
              "number": 11,
              "ticks": 123072,
              "time": 138.59445599999998,
              "value": 0.48031496062992124
            },
            {
              "number": 11,
              "ticks": 123099,
              "time": 138.62486137500002,
              "value": 0.47244094488188976
            },
            {
              "number": 11,
              "ticks": 123126,
              "time": 138.65526675,
              "value": 0.4645669291338583
            },
            {
              "number": 11,
              "ticks": 123153,
              "time": 138.68567212500002,
              "value": 0.4566929133858268
            },
            {
              "number": 11,
              "ticks": 123180,
              "time": 138.7160775,
              "value": 0.44881889763779526
            },
            {
              "number": 11,
              "ticks": 123207,
              "time": 138.746482875,
              "value": 0.4409448818897638
            },
            {
              "number": 11,
              "ticks": 123234,
              "time": 138.77688825,
              "value": 0.4330708661417323
            },
            {
              "number": 11,
              "ticks": 123261,
              "time": 138.807293625,
              "value": 0.4251968503937008
            },
            {
              "number": 11,
              "ticks": 123288,
              "time": 138.83769900000001,
              "value": 0.41732283464566927
            },
            {
              "number": 11,
              "ticks": 123315,
              "time": 138.868104375,
              "value": 0.4094488188976378
            },
            {
              "number": 11,
              "ticks": 123342,
              "time": 138.89850975,
              "value": 0.4015748031496063
            },
            {
              "number": 11,
              "ticks": 123369,
              "time": 138.928915125,
              "value": 0.3937007874015748
            },
            {
              "number": 11,
              "ticks": 123396,
              "time": 138.9593205,
              "value": 0.3858267716535433
            },
            {
              "number": 11,
              "ticks": 123423,
              "time": 138.989725875,
              "value": 0.3779527559055118
            },
            {
              "number": 11,
              "ticks": 123450,
              "time": 139.02013125,
              "value": 0.3700787401574803
            },
            {
              "number": 11,
              "ticks": 123477,
              "time": 139.050536625,
              "value": 0.36220472440944884
            },
            {
              "number": 11,
              "ticks": 123504,
              "time": 139.08094200000002,
              "value": 0.3543307086614173
            },
            {
              "number": 11,
              "ticks": 123531,
              "time": 139.111347375,
              "value": 0.3464566929133858
            },
            {
              "number": 11,
              "ticks": 123558,
              "time": 139.14175275000002,
              "value": 0.33858267716535434
            },
            {
              "number": 11,
              "ticks": 123585,
              "time": 139.172158125,
              "value": 0.33070866141732286
            },
            {
              "number": 11,
              "ticks": 123612,
              "time": 139.2025635,
              "value": 0.3228346456692913
            },
            {
              "number": 11,
              "ticks": 123639,
              "time": 139.232968875,
              "value": 0.31496062992125984
            },
            {
              "number": 11,
              "ticks": 123666,
              "time": 139.26337425,
              "value": 0.30708661417322836
            },
            {
              "number": 11,
              "ticks": 123693,
              "time": 139.293779625,
              "value": 0.2992125984251969
            },
            {
              "number": 11,
              "ticks": 123720,
              "time": 139.324185,
              "value": 0.29133858267716534
            },
            {
              "number": 11,
              "ticks": 123747,
              "time": 139.354590375,
              "value": 0.28346456692913385
            },
            {
              "number": 11,
              "ticks": 123774,
              "time": 139.38499575,
              "value": 0.2755905511811024
            },
            {
              "number": 11,
              "ticks": 123801,
              "time": 139.415401125,
              "value": 0.2677165354330709
            },
            {
              "number": 11,
              "ticks": 123828,
              "time": 139.44580650000003,
              "value": 0.25984251968503935
            },
            {
              "number": 11,
              "ticks": 123855,
              "time": 139.47621187500002,
              "value": 0.25196850393700787
            },
            {
              "number": 11,
              "ticks": 123882,
              "time": 139.50661725,
              "value": 0.2440944881889764
            },
            {
              "number": 11,
              "ticks": 123909,
              "time": 139.53702262500002,
              "value": 0.23622047244094488
            },
            {
              "number": 11,
              "ticks": 123936,
              "time": 139.567428,
              "value": 0.2283464566929134
            },
            {
              "number": 11,
              "ticks": 123963,
              "time": 139.59783337500002,
              "value": 0.2204724409448819
            },
            {
              "number": 11,
              "ticks": 123990,
              "time": 139.62823875,
              "value": 0.2125984251968504
            },
            {
              "number": 11,
              "ticks": 124017,
              "time": 139.658644125,
              "value": 0.2047244094488189
            },
            {
              "number": 11,
              "ticks": 124044,
              "time": 139.6890495,
              "value": 0.1968503937007874
            },
            {
              "number": 11,
              "ticks": 124071,
              "time": 139.719454875,
              "value": 0.1889763779527559
            },
            {
              "number": 11,
              "ticks": 124098,
              "time": 139.74986025,
              "value": 0.18110236220472442
            },
            {
              "number": 11,
              "ticks": 124125,
              "time": 139.780265625,
              "value": 0.1732283464566929
            },
            {
              "number": 11,
              "ticks": 124152,
              "time": 139.81067099999999,
              "value": 0.16535433070866143
            },
            {
              "number": 11,
              "ticks": 124179,
              "time": 139.841076375,
              "value": 0.15748031496062992
            },
            {
              "number": 11,
              "ticks": 124206,
              "time": 139.87148175,
              "value": 0.14960629921259844
            },
            {
              "number": 11,
              "ticks": 124233,
              "time": 139.90188712500003,
              "value": 0.14173228346456693
            },
            {
              "number": 11,
              "ticks": 124260,
              "time": 139.93229250000002,
              "value": 0.13385826771653545
            },
            {
              "number": 11,
              "ticks": 124287,
              "time": 139.962697875,
              "value": 0.12598425196850394
            },
            {
              "number": 11,
              "ticks": 124314,
              "time": 139.99310325000002,
              "value": 0.11811023622047244
            },
            {
              "number": 11,
              "ticks": 124341,
              "time": 140.023508625,
              "value": 0.11023622047244094
            },
            {
              "number": 11,
              "ticks": 124368,
              "time": 140.05391400000002,
              "value": 0.10236220472440945
            },
            {
              "number": 11,
              "ticks": 124395,
              "time": 140.084319375,
              "value": 0.09448818897637795
            },
            {
              "number": 11,
              "ticks": 124422,
              "time": 140.11472475,
              "value": 0.08661417322834646
            },
            {
              "number": 11,
              "ticks": 124449,
              "time": 140.145130125,
              "value": 0.07874015748031496
            },
            {
              "number": 11,
              "ticks": 124476,
              "time": 140.1755355,
              "value": 0.07086614173228346
            },
            {
              "number": 11,
              "ticks": 124503,
              "time": 140.205940875,
              "value": 0.06299212598425197
            },
            {
              "number": 11,
              "ticks": 124530,
              "time": 140.23634625,
              "value": 0.05511811023622047
            },
            {
              "number": 11,
              "ticks": 124557,
              "time": 140.26675162499998,
              "value": 0.047244094488188976
            },
            {
              "number": 11,
              "ticks": 124584,
              "time": 140.297157,
              "value": 0.03937007874015748
            },
            {
              "number": 11,
              "ticks": 124611,
              "time": 140.32756237499999,
              "value": 0.031496062992125984
            },
            {
              "number": 11,
              "ticks": 124638,
              "time": 140.35796775000003,
              "value": 0.023622047244094488
            },
            {
              "number": 11,
              "ticks": 124665,
              "time": 140.38837312500002,
              "value": 0.015748031496062992
            },
            {
              "number": 11,
              "ticks": 124692,
              "time": 140.4187785,
              "value": 0.007874015748031496
            },
            {
              "number": 11,
              "ticks": 124719,
              "time": 140.44918387500002,
              "value": 0
            },
            {
              "number": 11,
              "ticks": 126099,
              "time": 142.003236375,
              "value": 1
            },
            {
              "number": 11,
              "ticks": 128600,
              "time": 144.81967500000002,
              "value": 0.07874015748031496
            },
            {
              "number": 11,
              "ticks": 128615,
              "time": 144.83656687500002,
              "value": 0.08661417322834646
            },
            {
              "number": 11,
              "ticks": 128630,
              "time": 144.85345875000002,
              "value": 0.09448818897637795
            },
            {
              "number": 11,
              "ticks": 128645,
              "time": 144.87035062500001,
              "value": 0.10236220472440945
            },
            {
              "number": 11,
              "ticks": 128660,
              "time": 144.8872425,
              "value": 0.11811023622047244
            },
            {
              "number": 11,
              "ticks": 128675,
              "time": 144.904134375,
              "value": 0.12598425196850394
            },
            {
              "number": 11,
              "ticks": 128690,
              "time": 144.92102625,
              "value": 0.13385826771653545
            },
            {
              "number": 11,
              "ticks": 128705,
              "time": 144.937918125,
              "value": 0.14960629921259844
            },
            {
              "number": 11,
              "ticks": 128720,
              "time": 144.95481,
              "value": 0.15748031496062992
            },
            {
              "number": 11,
              "ticks": 128735,
              "time": 144.971701875,
              "value": 0.16535433070866143
            },
            {
              "number": 11,
              "ticks": 128750,
              "time": 144.98859375,
              "value": 0.18110236220472442
            },
            {
              "number": 11,
              "ticks": 128765,
              "time": 145.005485625,
              "value": 0.1889763779527559
            },
            {
              "number": 11,
              "ticks": 128780,
              "time": 145.0223775,
              "value": 0.1968503937007874
            },
            {
              "number": 11,
              "ticks": 128795,
              "time": 145.039269375,
              "value": 0.2125984251968504
            },
            {
              "number": 11,
              "ticks": 128810,
              "time": 145.05616125,
              "value": 0.2204724409448819
            },
            {
              "number": 11,
              "ticks": 128825,
              "time": 145.07305312500003,
              "value": 0.2283464566929134
            },
            {
              "number": 11,
              "ticks": 128840,
              "time": 145.08994500000003,
              "value": 0.2440944881889764
            },
            {
              "number": 11,
              "ticks": 128855,
              "time": 145.10683687500003,
              "value": 0.25196850393700787
            },
            {
              "number": 11,
              "ticks": 128870,
              "time": 145.12372875000003,
              "value": 0.25984251968503935
            },
            {
              "number": 11,
              "ticks": 128885,
              "time": 145.14062062500003,
              "value": 0.2755905511811024
            },
            {
              "number": 11,
              "ticks": 128900,
              "time": 145.15751250000002,
              "value": 0.28346456692913385
            },
            {
              "number": 11,
              "ticks": 128915,
              "time": 145.17440437500002,
              "value": 0.29133858267716534
            },
            {
              "number": 11,
              "ticks": 128930,
              "time": 145.19129625000002,
              "value": 0.30708661417322836
            },
            {
              "number": 11,
              "ticks": 128945,
              "time": 145.20818812500002,
              "value": 0.31496062992125984
            },
            {
              "number": 11,
              "ticks": 128960,
              "time": 145.22508000000002,
              "value": 0.3228346456692913
            },
            {
              "number": 11,
              "ticks": 128975,
              "time": 145.24197187500002,
              "value": 0.33858267716535434
            },
            {
              "number": 11,
              "ticks": 128990,
              "time": 145.25886375000002,
              "value": 0.3464566929133858
            },
            {
              "number": 11,
              "ticks": 129005,
              "time": 145.27575562500002,
              "value": 0.3543307086614173
            },
            {
              "number": 11,
              "ticks": 129020,
              "time": 145.29264750000002,
              "value": 0.3700787401574803
            },
            {
              "number": 11,
              "ticks": 129035,
              "time": 145.309539375,
              "value": 0.3779527559055118
            },
            {
              "number": 11,
              "ticks": 129050,
              "time": 145.32643125,
              "value": 0.3858267716535433
            },
            {
              "number": 11,
              "ticks": 129065,
              "time": 145.343323125,
              "value": 0.4015748031496063
            },
            {
              "number": 11,
              "ticks": 129080,
              "time": 145.360215,
              "value": 0.4094488188976378
            },
            {
              "number": 11,
              "ticks": 129095,
              "time": 145.377106875,
              "value": 0.41732283464566927
            },
            {
              "number": 11,
              "ticks": 129110,
              "time": 145.39399875,
              "value": 0.4330708661417323
            },
            {
              "number": 11,
              "ticks": 129125,
              "time": 145.410890625,
              "value": 0.4409448818897638
            },
            {
              "number": 11,
              "ticks": 129140,
              "time": 145.4277825,
              "value": 0.44881889763779526
            },
            {
              "number": 11,
              "ticks": 129155,
              "time": 145.444674375,
              "value": 0.4645669291338583
            },
            {
              "number": 11,
              "ticks": 129170,
              "time": 145.46156625,
              "value": 0.47244094488188976
            },
            {
              "number": 11,
              "ticks": 129185,
              "time": 145.478458125,
              "value": 0.48031496062992124
            },
            {
              "number": 11,
              "ticks": 129200,
              "time": 145.49535,
              "value": 0.4881889763779528
            },
            {
              "number": 11,
              "ticks": 129215,
              "time": 145.51224187500003,
              "value": 0.5039370078740157
            },
            {
              "number": 11,
              "ticks": 129230,
              "time": 145.52913375000003,
              "value": 0.5118110236220472
            },
            {
              "number": 11,
              "ticks": 129245,
              "time": 145.54602562500003,
              "value": 0.5196850393700787
            },
            {
              "number": 11,
              "ticks": 129260,
              "time": 145.56291750000003,
              "value": 0.5354330708661418
            },
            {
              "number": 11,
              "ticks": 129275,
              "time": 145.57980937500002,
              "value": 0.5433070866141733
            },
            {
              "number": 11,
              "ticks": 129290,
              "time": 145.59670125000002,
              "value": 0.5511811023622047
            },
            {
              "number": 11,
              "ticks": 129305,
              "time": 145.61359312500002,
              "value": 0.5669291338582677
            },
            {
              "number": 11,
              "ticks": 129320,
              "time": 145.63048500000002,
              "value": 0.5748031496062992
            },
            {
              "number": 11,
              "ticks": 129335,
              "time": 145.64737687500002,
              "value": 0.5826771653543307
            },
            {
              "number": 11,
              "ticks": 129350,
              "time": 145.66426875000002,
              "value": 0.5984251968503937
            },
            {
              "number": 11,
              "ticks": 129365,
              "time": 145.68116062500002,
              "value": 0.6062992125984252
            },
            {
              "number": 11,
              "ticks": 129380,
              "time": 145.69805250000002,
              "value": 0.6141732283464567
            },
            {
              "number": 11,
              "ticks": 129395,
              "time": 145.71494437500002,
              "value": 0.6299212598425197
            },
            {
              "number": 11,
              "ticks": 129410,
              "time": 145.73183625000001,
              "value": 0.6377952755905512
            },
            {
              "number": 11,
              "ticks": 129425,
              "time": 145.748728125,
              "value": 0.6456692913385826
            },
            {
              "number": 11,
              "ticks": 129440,
              "time": 145.76562,
              "value": 0.6614173228346457
            },
            {
              "number": 11,
              "ticks": 129455,
              "time": 145.782511875,
              "value": 0.6692913385826772
            },
            {
              "number": 11,
              "ticks": 129470,
              "time": 145.79940375,
              "value": 0.6771653543307087
            },
            {
              "number": 11,
              "ticks": 129485,
              "time": 145.816295625,
              "value": 0.6929133858267716
            },
            {
              "number": 11,
              "ticks": 129500,
              "time": 145.8331875,
              "value": 0.7007874015748031
            },
            {
              "number": 11,
              "ticks": 129515,
              "time": 145.850079375,
              "value": 0.7086614173228346
            },
            {
              "number": 11,
              "ticks": 129530,
              "time": 145.86697125,
              "value": 0.7244094488188977
            },
            {
              "number": 11,
              "ticks": 129545,
              "time": 145.883863125,
              "value": 0.7322834645669292
            },
            {
              "number": 11,
              "ticks": 129560,
              "time": 145.900755,
              "value": 0.7401574803149606
            },
            {
              "number": 11,
              "ticks": 129575,
              "time": 145.917646875,
              "value": 0.7559055118110236
            },
            {
              "number": 11,
              "ticks": 129590,
              "time": 145.93453875000003,
              "value": 0.7637795275590551
            },
            {
              "number": 11,
              "ticks": 129605,
              "time": 145.95143062500003,
              "value": 0.7716535433070866
            },
            {
              "number": 11,
              "ticks": 129619,
              "time": 145.96719637500001,
              "value": 0.7874015748031497
            },
            {
              "number": 11,
              "ticks": 129640,
              "time": 145.990845,
              "value": 0.7874015748031497
            },
            {
              "number": 11,
              "ticks": 129657,
              "time": 146.009989125,
              "value": 0.7795275590551181
            },
            {
              "number": 11,
              "ticks": 129675,
              "time": 146.030259375,
              "value": 0.7716535433070866
            },
            {
              "number": 11,
              "ticks": 129693,
              "time": 146.05052962500002,
              "value": 0.7637795275590551
            },
            {
              "number": 11,
              "ticks": 129711,
              "time": 146.070799875,
              "value": 0.7559055118110236
            },
            {
              "number": 11,
              "ticks": 129728,
              "time": 146.089944,
              "value": 0.7480314960629921
            },
            {
              "number": 11,
              "ticks": 129746,
              "time": 146.11021425,
              "value": 0.7401574803149606
            },
            {
              "number": 11,
              "ticks": 129764,
              "time": 146.1304845,
              "value": 0.7322834645669292
            },
            {
              "number": 11,
              "ticks": 129782,
              "time": 146.15075475,
              "value": 0.7244094488188977
            },
            {
              "number": 11,
              "ticks": 129799,
              "time": 146.169898875,
              "value": 0.7165354330708661
            },
            {
              "number": 11,
              "ticks": 129817,
              "time": 146.190169125,
              "value": 0.7086614173228346
            },
            {
              "number": 11,
              "ticks": 129835,
              "time": 146.210439375,
              "value": 0.7007874015748031
            },
            {
              "number": 11,
              "ticks": 129853,
              "time": 146.230709625,
              "value": 0.6929133858267716
            },
            {
              "number": 11,
              "ticks": 129870,
              "time": 146.24985375,
              "value": 0.6850393700787402
            },
            {
              "number": 11,
              "ticks": 129888,
              "time": 146.270124,
              "value": 0.6771653543307087
            },
            {
              "number": 11,
              "ticks": 129906,
              "time": 146.29039425,
              "value": 0.6692913385826772
            },
            {
              "number": 11,
              "ticks": 129924,
              "time": 146.3106645,
              "value": 0.6614173228346457
            },
            {
              "number": 11,
              "ticks": 129941,
              "time": 146.329808625,
              "value": 0.6535433070866141
            },
            {
              "number": 11,
              "ticks": 129959,
              "time": 146.35007887499998,
              "value": 0.6456692913385826
            },
            {
              "number": 11,
              "ticks": 129977,
              "time": 146.370349125,
              "value": 0.6377952755905512
            },
            {
              "number": 11,
              "ticks": 129995,
              "time": 146.39061937500003,
              "value": 0.6299212598425197
            },
            {
              "number": 11,
              "ticks": 130012,
              "time": 146.40976350000003,
              "value": 0.6220472440944882
            },
            {
              "number": 11,
              "ticks": 130030,
              "time": 146.43003375,
              "value": 0.6141732283464567
            },
            {
              "number": 11,
              "ticks": 130048,
              "time": 146.45030400000002,
              "value": 0.6062992125984252
            },
            {
              "number": 11,
              "ticks": 130066,
              "time": 146.47057425000003,
              "value": 0.5984251968503937
            },
            {
              "number": 11,
              "ticks": 130083,
              "time": 146.48971837500002,
              "value": 0.5905511811023622
            },
            {
              "number": 11,
              "ticks": 130101,
              "time": 146.509988625,
              "value": 0.5826771653543307
            },
            {
              "number": 11,
              "ticks": 130119,
              "time": 146.53025887500002,
              "value": 0.5748031496062992
            },
            {
              "number": 11,
              "ticks": 130137,
              "time": 146.550529125,
              "value": 0.5669291338582677
            },
            {
              "number": 11,
              "ticks": 130154,
              "time": 146.56967325,
              "value": 0.5590551181102362
            },
            {
              "number": 11,
              "ticks": 130172,
              "time": 146.5899435,
              "value": 0.5511811023622047
            },
            {
              "number": 11,
              "ticks": 130190,
              "time": 146.61021375,
              "value": 0.5433070866141733
            },
            {
              "number": 11,
              "ticks": 130208,
              "time": 146.630484,
              "value": 0.5354330708661418
            },
            {
              "number": 11,
              "ticks": 130225,
              "time": 146.649628125,
              "value": 0.5275590551181102
            },
            {
              "number": 11,
              "ticks": 130243,
              "time": 146.669898375,
              "value": 0.5196850393700787
            },
            {
              "number": 11,
              "ticks": 130261,
              "time": 146.690168625,
              "value": 0.5118110236220472
            },
            {
              "number": 11,
              "ticks": 130279,
              "time": 146.710438875,
              "value": 0.5039370078740157
            },
            {
              "number": 11,
              "ticks": 130296,
              "time": 146.729583,
              "value": 0.49606299212598426
            },
            {
              "number": 11,
              "ticks": 130314,
              "time": 146.74985325,
              "value": 0.4881889763779528
            },
            {
              "number": 11,
              "ticks": 130332,
              "time": 146.77012349999998,
              "value": 0.48031496062992124
            },
            {
              "number": 11,
              "ticks": 130350,
              "time": 146.79039375,
              "value": 0.47244094488188976
            },
            {
              "number": 11,
              "ticks": 130367,
              "time": 146.809537875,
              "value": 0.4645669291338583
            },
            {
              "number": 11,
              "ticks": 130385,
              "time": 146.82980812500003,
              "value": 0.4566929133858268
            },
            {
              "number": 11,
              "ticks": 130403,
              "time": 146.850078375,
              "value": 0.44881889763779526
            },
            {
              "number": 11,
              "ticks": 130421,
              "time": 146.87034862500002,
              "value": 0.4409448818897638
            },
            {
              "number": 11,
              "ticks": 130439,
              "time": 146.890618875,
              "value": 0.4330708661417323
            },
            {
              "number": 11,
              "ticks": 130459,
              "time": 146.913141375,
              "value": 0.48031496062992124
            },
            {
              "number": 11,
              "ticks": 130479,
              "time": 146.93566387500002,
              "value": 0.47244094488188976
            },
            {
              "number": 11,
              "ticks": 130540,
              "time": 147.0043575,
              "value": 0.6299212598425197
            },
            {
              "number": 11,
              "ticks": 130560,
              "time": 147.02688,
              "value": 0.6377952755905512
            },
            {
              "number": 11,
              "ticks": 130581,
              "time": 147.050528625,
              "value": 0.6456692913385826
            },
            {
              "number": 11,
              "ticks": 130602,
              "time": 147.07417725,
              "value": 0.6535433070866141
            },
            {
              "number": 11,
              "ticks": 130623,
              "time": 147.097825875,
              "value": 0.6614173228346457
            },
            {
              "number": 11,
              "ticks": 130644,
              "time": 147.1214745,
              "value": 0.6692913385826772
            },
            {
              "number": 11,
              "ticks": 130665,
              "time": 147.145123125,
              "value": 0.6771653543307087
            },
            {
              "number": 11,
              "ticks": 130686,
              "time": 147.16877175,
              "value": 0.6850393700787402
            },
            {
              "number": 11,
              "ticks": 130707,
              "time": 147.19242037499998,
              "value": 0.6929133858267716
            },
            {
              "number": 11,
              "ticks": 130728,
              "time": 147.216069,
              "value": 0.7007874015748031
            },
            {
              "number": 11,
              "ticks": 130749,
              "time": 147.23971762500003,
              "value": 0.7086614173228346
            },
            {
              "number": 11,
              "ticks": 130770,
              "time": 147.26336625000002,
              "value": 0.7165354330708661
            },
            {
              "number": 11,
              "ticks": 130791,
              "time": 147.287014875,
              "value": 0.7244094488188977
            },
            {
              "number": 11,
              "ticks": 130812,
              "time": 147.3106635,
              "value": 0.7322834645669292
            },
            {
              "number": 11,
              "ticks": 130833,
              "time": 147.33431212500003,
              "value": 0.7401574803149606
            },
            {
              "number": 11,
              "ticks": 130854,
              "time": 147.35796075000002,
              "value": 0.7480314960629921
            },
            {
              "number": 11,
              "ticks": 130875,
              "time": 147.381609375,
              "value": 0.7559055118110236
            },
            {
              "number": 11,
              "ticks": 130896,
              "time": 147.405258,
              "value": 0.7637795275590551
            },
            {
              "number": 11,
              "ticks": 130917,
              "time": 147.428906625,
              "value": 0.7716535433070866
            },
            {
              "number": 11,
              "ticks": 130938,
              "time": 147.45255525000002,
              "value": 0.7795275590551181
            },
            {
              "number": 11,
              "ticks": 130959,
              "time": 147.476203875,
              "value": 0.7874015748031497
            },
            {
              "number": 11,
              "ticks": 131170,
              "time": 147.71381625,
              "value": 0.7874015748031497
            },
            {
              "number": 11,
              "ticks": 131185,
              "time": 147.730708125,
              "value": 0.7795275590551181
            },
            {
              "number": 11,
              "ticks": 131200,
              "time": 147.7476,
              "value": 0.7716535433070866
            },
            {
              "number": 11,
              "ticks": 131215,
              "time": 147.764491875,
              "value": 0.7637795275590551
            },
            {
              "number": 11,
              "ticks": 131230,
              "time": 147.78138375,
              "value": 0.7480314960629921
            },
            {
              "number": 11,
              "ticks": 131245,
              "time": 147.798275625,
              "value": 0.7401574803149606
            },
            {
              "number": 11,
              "ticks": 131260,
              "time": 147.8151675,
              "value": 0.7322834645669292
            },
            {
              "number": 11,
              "ticks": 131275,
              "time": 147.832059375,
              "value": 0.7165354330708661
            },
            {
              "number": 11,
              "ticks": 131290,
              "time": 147.84895125,
              "value": 0.7086614173228346
            },
            {
              "number": 11,
              "ticks": 131305,
              "time": 147.865843125,
              "value": 0.7007874015748031
            },
            {
              "number": 11,
              "ticks": 131320,
              "time": 147.882735,
              "value": 0.6850393700787402
            },
            {
              "number": 11,
              "ticks": 131335,
              "time": 147.899626875,
              "value": 0.6771653543307087
            },
            {
              "number": 11,
              "ticks": 131350,
              "time": 147.91651875,
              "value": 0.6692913385826772
            },
            {
              "number": 11,
              "ticks": 131365,
              "time": 147.933410625,
              "value": 0.6614173228346457
            },
            {
              "number": 11,
              "ticks": 131380,
              "time": 147.9503025,
              "value": 0.6456692913385826
            },
            {
              "number": 11,
              "ticks": 131395,
              "time": 147.967194375,
              "value": 0.6377952755905512
            },
            {
              "number": 11,
              "ticks": 131410,
              "time": 147.98408625,
              "value": 0.6299212598425197
            },
            {
              "number": 11,
              "ticks": 131425,
              "time": 148.000978125,
              "value": 0.6141732283464567
            },
            {
              "number": 11,
              "ticks": 131440,
              "time": 148.01787,
              "value": 0.6062992125984252
            },
            {
              "number": 11,
              "ticks": 131455,
              "time": 148.034761875,
              "value": 0.5984251968503937
            },
            {
              "number": 11,
              "ticks": 131470,
              "time": 148.05165374999999,
              "value": 0.5826771653543307
            },
            {
              "number": 11,
              "ticks": 131485,
              "time": 148.06854562499998,
              "value": 0.5748031496062992
            },
            {
              "number": 11,
              "ticks": 131500,
              "time": 148.08543749999998,
              "value": 0.5669291338582677
            },
            {
              "number": 11,
              "ticks": 131515,
              "time": 148.10232937499998,
              "value": 0.5511811023622047
            },
            {
              "number": 11,
              "ticks": 131530,
              "time": 148.11922124999998,
              "value": 0.5433070866141733
            },
            {
              "number": 11,
              "ticks": 131545,
              "time": 148.136113125,
              "value": 0.5354330708661418
            },
            {
              "number": 11,
              "ticks": 131560,
              "time": 148.153005,
              "value": 0.5275590551181102
            },
            {
              "number": 11,
              "ticks": 131575,
              "time": 148.169896875,
              "value": 0.5118110236220472
            },
            {
              "number": 11,
              "ticks": 131590,
              "time": 148.18678875,
              "value": 0.5039370078740157
            },
            {
              "number": 11,
              "ticks": 131605,
              "time": 148.203680625,
              "value": 0.49606299212598426
            },
            {
              "number": 11,
              "ticks": 131620,
              "time": 148.2205725,
              "value": 0.48031496062992124
            },
            {
              "number": 11,
              "ticks": 131635,
              "time": 148.237464375,
              "value": 0.47244094488188976
            },
            {
              "number": 11,
              "ticks": 131650,
              "time": 148.25435625,
              "value": 0.4645669291338583
            },
            {
              "number": 11,
              "ticks": 131665,
              "time": 148.271248125,
              "value": 0.44881889763779526
            },
            {
              "number": 11,
              "ticks": 131680,
              "time": 148.28814,
              "value": 0.4409448818897638
            },
            {
              "number": 11,
              "ticks": 131695,
              "time": 148.305031875,
              "value": 0.4330708661417323
            },
            {
              "number": 11,
              "ticks": 131710,
              "time": 148.32192375,
              "value": 0.41732283464566927
            },
            {
              "number": 11,
              "ticks": 131725,
              "time": 148.338815625,
              "value": 0.4094488188976378
            },
            {
              "number": 11,
              "ticks": 131740,
              "time": 148.3557075,
              "value": 0.4015748031496063
            },
            {
              "number": 11,
              "ticks": 131755,
              "time": 148.372599375,
              "value": 0.3937007874015748
            },
            {
              "number": 11,
              "ticks": 131770,
              "time": 148.38949125,
              "value": 0.3779527559055118
            },
            {
              "number": 11,
              "ticks": 131785,
              "time": 148.406383125,
              "value": 0.3700787401574803
            },
            {
              "number": 11,
              "ticks": 131800,
              "time": 148.423275,
              "value": 0.36220472440944884
            },
            {
              "number": 11,
              "ticks": 131815,
              "time": 148.440166875,
              "value": 0.3464566929133858
            },
            {
              "number": 11,
              "ticks": 131830,
              "time": 148.45705875,
              "value": 0.33858267716535434
            },
            {
              "number": 11,
              "ticks": 131845,
              "time": 148.473950625,
              "value": 0.33070866141732286
            },
            {
              "number": 11,
              "ticks": 131859,
              "time": 148.489716375,
              "value": 0.31496062992125984
            },
            {
              "number": 11,
              "ticks": 133285,
              "time": 150.095570625,
              "value": 1
            },
            {
              "number": 11,
              "ticks": 140080,
              "time": 157.74759,
              "value": 0.6692913385826772
            },
            {
              "number": 11,
              "ticks": 140181,
              "time": 157.861328625,
              "value": 0.6771653543307087
            },
            {
              "number": 11,
              "ticks": 140283,
              "time": 157.976193375,
              "value": 0.6850393700787402
            },
            {
              "number": 11,
              "ticks": 140385,
              "time": 158.09105812500002,
              "value": 0.6929133858267716
            },
            {
              "number": 11,
              "ticks": 140487,
              "time": 158.205922875,
              "value": 0.7007874015748031
            },
            {
              "number": 11,
              "ticks": 140589,
              "time": 158.320787625,
              "value": 0.7086614173228346
            },
            {
              "number": 11,
              "ticks": 140691,
              "time": 158.435652375,
              "value": 0.7165354330708661
            },
            {
              "number": 11,
              "ticks": 140793,
              "time": 158.55051712500003,
              "value": 0.7244094488188977
            },
            {
              "number": 11,
              "ticks": 140895,
              "time": 158.665381875,
              "value": 0.7322834645669292
            },
            {
              "number": 11,
              "ticks": 140996,
              "time": 158.7791205,
              "value": 0.7401574803149606
            },
            {
              "number": 11,
              "ticks": 141098,
              "time": 158.89398525,
              "value": 0.7480314960629921
            },
            {
              "number": 11,
              "ticks": 141200,
              "time": 159.00885000000002,
              "value": 0.7559055118110236
            },
            {
              "number": 11,
              "ticks": 141302,
              "time": 159.12371475,
              "value": 0.7637795275590551
            },
            {
              "number": 11,
              "ticks": 141404,
              "time": 159.2385795,
              "value": 0.7716535433070866
            },
            {
              "number": 11,
              "ticks": 141506,
              "time": 159.35344425000002,
              "value": 0.7795275590551181
            },
            {
              "number": 11,
              "ticks": 141608,
              "time": 159.468309,
              "value": 0.7874015748031497
            },
            {
              "number": 11,
              "ticks": 141710,
              "time": 159.58317375000001,
              "value": 0.7952755905511811
            },
            {
              "number": 11,
              "ticks": 141811,
              "time": 159.696912375,
              "value": 0.8031496062992126
            },
            {
              "number": 11,
              "ticks": 141913,
              "time": 159.81177712500002,
              "value": 0.8110236220472441
            },
            {
              "number": 11,
              "ticks": 142015,
              "time": 159.926641875,
              "value": 0.8188976377952756
            },
            {
              "number": 11,
              "ticks": 142117,
              "time": 160.041506625,
              "value": 0.8267716535433071
            },
            {
              "number": 11,
              "ticks": 142219,
              "time": 160.156371375,
              "value": 0.8346456692913385
            },
            {
              "number": 11,
              "ticks": 142321,
              "time": 160.27123612500003,
              "value": 0.84251968503937
            },
            {
              "number": 11,
              "ticks": 142423,
              "time": 160.386100875,
              "value": 0.8503937007874016
            },
            {
              "number": 11,
              "ticks": 142525,
              "time": 160.500965625,
              "value": 0.8582677165354331
            },
            {
              "number": 11,
              "ticks": 142627,
              "time": 160.615830375,
              "value": 0.8661417322834646
            },
            {
              "number": 11,
              "ticks": 142728,
              "time": 160.72956900000003,
              "value": 0.8740157480314961
            },
            {
              "number": 11,
              "ticks": 142830,
              "time": 160.84443375,
              "value": 0.8818897637795275
            },
            {
              "number": 11,
              "ticks": 142932,
              "time": 160.9592985,
              "value": 0.889763779527559
            },
            {
              "number": 11,
              "ticks": 143034,
              "time": 161.07416325000003,
              "value": 0.8976377952755905
            },
            {
              "number": 11,
              "ticks": 143136,
              "time": 161.189028,
              "value": 0.905511811023622
            },
            {
              "number": 11,
              "ticks": 143238,
              "time": 161.30389275000002,
              "value": 0.9133858267716536
            },
            {
              "number": 11,
              "ticks": 143340,
              "time": 161.4187575,
              "value": 0.9212598425196851
            },
            {
              "number": 11,
              "ticks": 143442,
              "time": 161.53362225,
              "value": 0.9291338582677166
            },
            {
              "number": 11,
              "ticks": 143543,
              "time": 161.647360875,
              "value": 0.937007874015748
            },
            {
              "number": 11,
              "ticks": 143645,
              "time": 161.762225625,
              "value": 0.9448818897637795
            },
            {
              "number": 11,
              "ticks": 143747,
              "time": 161.877090375,
              "value": 0.952755905511811
            },
            {
              "number": 11,
              "ticks": 143849,
              "time": 161.991955125,
              "value": 0.9606299212598425
            },
            {
              "number": 11,
              "ticks": 143951,
              "time": 162.106819875,
              "value": 0.968503937007874
            },
            {
              "number": 11,
              "ticks": 144053,
              "time": 162.221684625,
              "value": 0.9763779527559056
            },
            {
              "number": 11,
              "ticks": 144155,
              "time": 162.336549375,
              "value": 0.984251968503937
            },
            {
              "number": 11,
              "ticks": 144257,
              "time": 162.451414125,
              "value": 0.9921259842519685
            },
            {
              "number": 11,
              "ticks": 144359,
              "time": 162.566278875,
              "value": 1
            },
            {
              "number": 11,
              "ticks": 155470,
              "time": 175.07865375,
              "value": 0.8661417322834646
            },
            {
              "number": 11,
              "ticks": 155557,
              "time": 175.176626625,
              "value": 0.8740157480314961
            },
            {
              "number": 11,
              "ticks": 155644,
              "time": 175.2745995,
              "value": 0.8818897637795275
            },
            {
              "number": 11,
              "ticks": 155731,
              "time": 175.37257237500003,
              "value": 0.889763779527559
            },
            {
              "number": 11,
              "ticks": 155818,
              "time": 175.47054525000001,
              "value": 0.8976377952755905
            },
            {
              "number": 11,
              "ticks": 155905,
              "time": 175.568518125,
              "value": 0.905511811023622
            },
            {
              "number": 11,
              "ticks": 155992,
              "time": 175.666491,
              "value": 0.9133858267716536
            },
            {
              "number": 11,
              "ticks": 156079,
              "time": 175.764463875,
              "value": 0.9212598425196851
            },
            {
              "number": 11,
              "ticks": 156166,
              "time": 175.86243675000003,
              "value": 0.9291338582677166
            },
            {
              "number": 11,
              "ticks": 156253,
              "time": 175.960409625,
              "value": 0.937007874015748
            },
            {
              "number": 11,
              "ticks": 156340,
              "time": 176.0583825,
              "value": 0.9448818897637795
            },
            {
              "number": 11,
              "ticks": 156427,
              "time": 176.156355375,
              "value": 0.952755905511811
            },
            {
              "number": 11,
              "ticks": 156514,
              "time": 176.25432825000001,
              "value": 0.9606299212598425
            },
            {
              "number": 11,
              "ticks": 156601,
              "time": 176.35230112500003,
              "value": 0.968503937007874
            },
            {
              "number": 11,
              "ticks": 156688,
              "time": 176.450274,
              "value": 0.9763779527559056
            },
            {
              "number": 11,
              "ticks": 156775,
              "time": 176.548246875,
              "value": 0.984251968503937
            },
            {
              "number": 11,
              "ticks": 156862,
              "time": 176.64621975000003,
              "value": 0.9921259842519685
            },
            {
              "number": 11,
              "ticks": 156949,
              "time": 176.744192625,
              "value": 1
            },
            {
              "number": 11,
              "ticks": 161375,
              "time": 181.728421875,
              "value": 1
            },
            {
              "number": 11,
              "ticks": 161390,
              "time": 181.74531375,
              "value": 0.9448818897637795
            },
            {
              "number": 11,
              "ticks": 161405,
              "time": 181.762205625,
              "value": 0.8818897637795275
            },
            {
              "number": 11,
              "ticks": 161420,
              "time": 181.7790975,
              "value": 0.8188976377952756
            },
            {
              "number": 11,
              "ticks": 161435,
              "time": 181.795989375,
              "value": 0.7559055118110236
            },
            {
              "number": 11,
              "ticks": 161450,
              "time": 181.81288125,
              "value": 0.6929133858267716
            },
            {
              "number": 11,
              "ticks": 161465,
              "time": 181.82977312500003,
              "value": 0.6299212598425197
            },
            {
              "number": 11,
              "ticks": 161480,
              "time": 181.84666500000003,
              "value": 0.5669291338582677
            },
            {
              "number": 11,
              "ticks": 161800,
              "time": 182.207025,
              "value": 1
            },
            {
              "number": 11,
              "ticks": 163365,
              "time": 183.969410625,
              "value": 0.9448818897637795
            },
            {
              "number": 11,
              "ticks": 163380,
              "time": 183.9863025,
              "value": 0.8818897637795275
            },
            {
              "number": 11,
              "ticks": 163395,
              "time": 184.00319437500002,
              "value": 0.8188976377952756
            },
            {
              "number": 11,
              "ticks": 163410,
              "time": 184.02008625000002,
              "value": 0.7559055118110236
            },
            {
              "number": 11,
              "ticks": 163425,
              "time": 184.03697812500002,
              "value": 0.6929133858267716
            },
            {
              "number": 11,
              "ticks": 163440,
              "time": 184.05387000000002,
              "value": 0.6299212598425197
            },
            {
              "number": 11,
              "ticks": 163455,
              "time": 184.07076187500002,
              "value": 0.5669291338582677
            },
            {
              "number": 11,
              "ticks": 163745,
              "time": 184.397338125,
              "value": 1
            },
            {
              "number": 11,
              "ticks": 188140,
              "time": 211.8691575,
              "value": 1
            },
            {
              "number": 11,
              "ticks": 188155,
              "time": 211.886049375,
              "value": 0.9921259842519685
            },
            {
              "number": 11,
              "ticks": 188171,
              "time": 211.904067375,
              "value": 0.984251968503937
            },
            {
              "number": 11,
              "ticks": 188186,
              "time": 211.92095925,
              "value": 0.9763779527559056
            },
            {
              "number": 11,
              "ticks": 188202,
              "time": 211.93897725,
              "value": 0.968503937007874
            },
            {
              "number": 11,
              "ticks": 188217,
              "time": 211.955869125,
              "value": 0.9606299212598425
            },
            {
              "number": 11,
              "ticks": 188233,
              "time": 211.973887125,
              "value": 0.952755905511811
            },
            {
              "number": 11,
              "ticks": 188248,
              "time": 211.990779,
              "value": 0.9448818897637795
            },
            {
              "number": 11,
              "ticks": 188264,
              "time": 212.008797,
              "value": 0.937007874015748
            },
            {
              "number": 11,
              "ticks": 188279,
              "time": 212.025688875,
              "value": 0.9291338582677166
            },
            {
              "number": 11,
              "ticks": 188295,
              "time": 212.043706875,
              "value": 0.9212598425196851
            },
            {
              "number": 11,
              "ticks": 188310,
              "time": 212.06059875,
              "value": 0.9133858267716536
            },
            {
              "number": 11,
              "ticks": 188326,
              "time": 212.07861675,
              "value": 0.905511811023622
            },
            {
              "number": 11,
              "ticks": 188341,
              "time": 212.09550862500004,
              "value": 0.8976377952755905
            },
            {
              "number": 11,
              "ticks": 188357,
              "time": 212.11352662500002,
              "value": 0.889763779527559
            },
            {
              "number": 11,
              "ticks": 188372,
              "time": 212.13041850000002,
              "value": 0.8818897637795275
            },
            {
              "number": 11,
              "ticks": 188388,
              "time": 212.14843650000003,
              "value": 0.8740157480314961
            },
            {
              "number": 11,
              "ticks": 188403,
              "time": 212.16532837500003,
              "value": 0.8661417322834646
            },
            {
              "number": 11,
              "ticks": 188419,
              "time": 212.183346375,
              "value": 0.8582677165354331
            },
            {
              "number": 11,
              "ticks": 188434,
              "time": 212.20023825,
              "value": 0.8503937007874016
            },
            {
              "number": 11,
              "ticks": 188450,
              "time": 212.21825625000002,
              "value": 0.84251968503937
            },
            {
              "number": 11,
              "ticks": 188465,
              "time": 212.23514812500002,
              "value": 0.8346456692913385
            },
            {
              "number": 11,
              "ticks": 188481,
              "time": 212.253166125,
              "value": 0.8267716535433071
            },
            {
              "number": 11,
              "ticks": 188496,
              "time": 212.270058,
              "value": 0.8188976377952756
            },
            {
              "number": 11,
              "ticks": 188512,
              "time": 212.28807600000002,
              "value": 0.8110236220472441
            },
            {
              "number": 11,
              "ticks": 188527,
              "time": 212.30496787500002,
              "value": 0.8031496062992126
            },
            {
              "number": 11,
              "ticks": 188543,
              "time": 212.322985875,
              "value": 0.7952755905511811
            },
            {
              "number": 11,
              "ticks": 188559,
              "time": 212.341003875,
              "value": 0.7874015748031497
            },
            {
              "number": 11,
              "ticks": 188621,
              "time": 212.410823625,
              "value": 0.8503937007874016
            },
            {
              "number": 11,
              "ticks": 188686,
              "time": 212.48402175,
              "value": 0.8582677165354331
            },
            {
              "number": 11,
              "ticks": 188751,
              "time": 212.55721987500002,
              "value": 0.8661417322834646
            },
            {
              "number": 11,
              "ticks": 188816,
              "time": 212.63041800000002,
              "value": 0.8740157480314961
            },
            {
              "number": 11,
              "ticks": 188881,
              "time": 212.70361612500002,
              "value": 0.8818897637795275
            },
            {
              "number": 11,
              "ticks": 188946,
              "time": 212.77681425,
              "value": 0.889763779527559
            },
            {
              "number": 11,
              "ticks": 189012,
              "time": 212.8511385,
              "value": 0.8976377952755905
            },
            {
              "number": 11,
              "ticks": 189077,
              "time": 212.924336625,
              "value": 0.905511811023622
            },
            {
              "number": 11,
              "ticks": 189142,
              "time": 212.99753475000003,
              "value": 0.9133858267716536
            },
            {
              "number": 11,
              "ticks": 189207,
              "time": 213.070732875,
              "value": 0.9212598425196851
            },
            {
              "number": 11,
              "ticks": 189272,
              "time": 213.143931,
              "value": 0.9291338582677166
            },
            {
              "number": 11,
              "ticks": 189337,
              "time": 213.217129125,
              "value": 0.937007874015748
            },
            {
              "number": 11,
              "ticks": 189402,
              "time": 213.29032725,
              "value": 0.9448818897637795
            },
            {
              "number": 11,
              "ticks": 189468,
              "time": 213.3646515,
              "value": 0.952755905511811
            },
            {
              "number": 11,
              "ticks": 189533,
              "time": 213.437849625,
              "value": 0.9606299212598425
            },
            {
              "number": 11,
              "ticks": 189598,
              "time": 213.51104775000002,
              "value": 0.968503937007874
            },
            {
              "number": 11,
              "ticks": 189663,
              "time": 213.58424587500002,
              "value": 0.9763779527559056
            },
            {
              "number": 11,
              "ticks": 189728,
              "time": 213.657444,
              "value": 0.984251968503937
            },
            {
              "number": 11,
              "ticks": 189793,
              "time": 213.730642125,
              "value": 0.9921259842519685
            },
            {
              "number": 11,
              "ticks": 189859,
              "time": 213.804966375,
              "value": 1
            }
          ],
          "38": [
            {
              "number": 38,
              "ticks": 840,
              "time": 0.945945,
              "value": 0.015748031496062992
            }
          ],
          "91": [
            {
              "number": 91,
              "ticks": 810,
              "time": 0.91216125,
              "value": 0.23622047244094488
            }
          ],
          "93": [
            {
              "number": 93,
              "ticks": 810,
              "time": 0.91216125,
              "value": 0.31496062992125984
            }
          ],
          "98": [
            {
              "number": 98,
              "ticks": 30250,
              "time": 34.065281250000005,
              "value": 0.7795275590551181
            },
            {
              "number": 98,
              "ticks": 43170,
              "time": 48.614816250000004,
              "value": 0.7795275590551181
            },
            {
              "number": 98,
              "ticks": 120490,
              "time": 135.68680125,
              "value": 0.7795275590551181
            },
            {
              "number": 98,
              "ticks": 133410,
              "time": 150.23633625,
              "value": 0.7795275590551181
            }
          ],
          "99": [
            {
              "number": 99,
              "ticks": 30240,
              "time": 34.05402,
              "value": 0.007874015748031496
            },
            {
              "number": 99,
              "ticks": 43160,
              "time": 48.60355500000001,
              "value": 0.007874015748031496
            },
            {
              "number": 99,
              "ticks": 120480,
              "time": 135.67554,
              "value": 0.007874015748031496
            },
            {
              "number": 99,
              "ticks": 133400,
              "time": 150.225075,
              "value": 0.007874015748031496
            }
          ],
          "100": [
            {
              "number": 100,
              "ticks": 830,
              "time": 0.93468375,
              "value": 0
            }
          ],
          "101": [
            {
              "number": 101,
              "ticks": 820,
              "time": 0.9234225,
              "value": 0
            }
          ]
        },
        "pitchBends": [
          {
            "ticks": 71190,
            "time": 80.16883875,
            "value": 0
          },
          {
            "ticks": 71205,
            "time": 80.185730625,
            "value": -0.1051025390625
          },
          {
            "ticks": 71220,
            "time": 80.2026225,
            "value": -0.21044921875
          },
          {
            "ticks": 71235,
            "time": 80.219514375,
            "value": -0.315673828125
          },
          {
            "ticks": 71250,
            "time": 80.23640625,
            "value": -0.4210205078125
          },
          {
            "ticks": 71265,
            "time": 80.253298125,
            "value": -0.5262451171875
          },
          {
            "ticks": 71280,
            "time": 80.27019,
            "value": -0.6314697265625
          },
          {
            "ticks": 71295,
            "time": 80.287081875,
            "value": -0.7366943359375
          },
          {
            "ticks": 71310,
            "time": 80.30397375,
            "value": -0.8419189453125
          },
          {
            "ticks": 71314,
            "time": 80.30847825,
            "value": -0.8701171875
          },
          {
            "ticks": 71510,
            "time": 80.52919874999999,
            "value": 0
          },
          {
            "ticks": 73165,
            "time": 82.392935625,
            "value": 0
          },
          {
            "ticks": 73180,
            "time": 82.4098275,
            "value": -0.1051025390625
          },
          {
            "ticks": 73195,
            "time": 82.426719375,
            "value": -0.21044921875
          },
          {
            "ticks": 73210,
            "time": 82.44361125,
            "value": -0.315673828125
          },
          {
            "ticks": 73225,
            "time": 82.460503125,
            "value": -0.4210205078125
          },
          {
            "ticks": 73240,
            "time": 82.477395,
            "value": -0.5262451171875
          },
          {
            "ticks": 73255,
            "time": 82.49428687500001,
            "value": -0.6314697265625
          },
          {
            "ticks": 73270,
            "time": 82.51117875000001,
            "value": -0.7366943359375
          },
          {
            "ticks": 73285,
            "time": 82.52807062500001,
            "value": -0.8419189453125
          },
          {
            "ticks": 73289,
            "time": 82.53257512500001,
            "value": -0.8701171875
          },
          {
            "ticks": 73485,
            "time": 82.753295625,
            "value": 0
          },
          {
            "ticks": 161430,
            "time": 181.79035875,
            "value": 0
          },
          {
            "ticks": 161445,
            "time": 181.807250625,
            "value": -0.1051025390625
          },
          {
            "ticks": 161460,
            "time": 181.8241425,
            "value": -0.21044921875
          },
          {
            "ticks": 161475,
            "time": 181.84103437500002,
            "value": -0.315673828125
          },
          {
            "ticks": 161490,
            "time": 181.85792625000002,
            "value": -0.4210205078125
          },
          {
            "ticks": 161505,
            "time": 181.87481812500002,
            "value": -0.5262451171875
          },
          {
            "ticks": 161520,
            "time": 181.89171000000002,
            "value": -0.6314697265625
          },
          {
            "ticks": 161535,
            "time": 181.90860187500002,
            "value": -0.7366943359375
          },
          {
            "ticks": 161550,
            "time": 181.92549375000002,
            "value": -0.8419189453125
          },
          {
            "ticks": 161554,
            "time": 181.92999825,
            "value": -0.8701171875
          },
          {
            "ticks": 161750,
            "time": 182.15071875,
            "value": 0
          },
          {
            "ticks": 163405,
            "time": 184.014455625,
            "value": 0
          },
          {
            "ticks": 163420,
            "time": 184.0313475,
            "value": -0.1051025390625
          },
          {
            "ticks": 163435,
            "time": 184.048239375,
            "value": -0.21044921875
          },
          {
            "ticks": 163450,
            "time": 184.06513125,
            "value": -0.315673828125
          },
          {
            "ticks": 163465,
            "time": 184.082023125,
            "value": -0.4210205078125
          },
          {
            "ticks": 163480,
            "time": 184.098915,
            "value": -0.5262451171875
          },
          {
            "ticks": 163495,
            "time": 184.115806875,
            "value": -0.6314697265625
          },
          {
            "ticks": 163510,
            "time": 184.13269875,
            "value": -0.7366943359375
          },
          {
            "ticks": 163525,
            "time": 184.149590625,
            "value": -0.8419189453125
          },
          {
            "ticks": 163529,
            "time": 184.154095125,
            "value": -0.8701171875
          },
          {
            "ticks": 163725,
            "time": 184.374815625,
            "value": 0
          }
        ],
        "instrument": {
          "family": "ensemble",
          "number": 48,
          "name": "string ensemble 1"
        },
        "name": "",
        "notes": [
          {
            "duration": 8.729720999999998,
            "durationTicks": 7752,
            "midi": 91,
            "name": "G6",
            "ticks": 11520,
            "time": 12.97296,
            "velocity": 0.6929133858267716
          },
          {
            "duration": 0.1148647499999953,
            "durationTicks": 102,
            "midi": 69,
            "name": "A4",
            "ticks": 30732,
            "time": 34.6080735,
            "velocity": 0.5354330708661418
          },
          {
            "duration": 0.11261249999999734,
            "durationTicks": 100,
            "midi": 72,
            "name": "C5",
            "ticks": 30795,
            "time": 34.679019375,
            "velocity": 0.5354330708661418
          },
          {
            "duration": 0.10135124999999334,
            "durationTicks": 90,
            "midi": 69,
            "name": "A4",
            "ticks": 30871,
            "time": 34.764604875,
            "velocity": 0.5354330708661418
          },
          {
            "duration": 0.11936924999999832,
            "durationTicks": 106,
            "midi": 72,
            "name": "C5",
            "ticks": 30922,
            "time": 34.82203725,
            "velocity": 0.7874015748031497
          },
          {
            "duration": 0.09684674999999743,
            "durationTicks": 86,
            "midi": 69,
            "name": "A4",
            "ticks": 30995,
            "time": 34.904244375000005,
            "velocity": 0.6062992125984252
          },
          {
            "duration": 0.11936924999999832,
            "durationTicks": 106,
            "midi": 72,
            "name": "C5",
            "ticks": 31034,
            "time": 34.94816325,
            "velocity": 0.6929133858267716
          },
          {
            "duration": 0.09684675000000453,
            "durationTicks": 86,
            "midi": 69,
            "name": "A4",
            "ticks": 31105,
            "time": 35.028118125,
            "velocity": 0.6929133858267716
          },
          {
            "duration": 0.10022512500000147,
            "durationTicks": 89,
            "midi": 72,
            "name": "C5",
            "ticks": 31163,
            "time": 35.093433375000004,
            "velocity": 0.6062992125984252
          },
          {
            "duration": 0.11261250000000445,
            "durationTicks": 100,
            "midi": 69,
            "name": "A4",
            "ticks": 31203,
            "time": 35.138478375,
            "velocity": 0.7874015748031497
          },
          {
            "duration": 0.11824312499999934,
            "durationTicks": 105,
            "midi": 72,
            "name": "C5",
            "ticks": 31262,
            "time": 35.20491975,
            "velocity": 0.6929133858267716
          },
          {
            "duration": 0.09346837500000049,
            "durationTicks": 83,
            "midi": 69,
            "name": "A4",
            "ticks": 31328,
            "time": 35.279244,
            "velocity": 0.6062992125984252
          },
          {
            "duration": 0.12162149999999627,
            "durationTicks": 108,
            "midi": 72,
            "name": "C5",
            "ticks": 31373,
            "time": 35.329919625,
            "velocity": 0.6929133858267716
          },
          {
            "duration": 0.10810800000000143,
            "durationTicks": 96,
            "midi": 69,
            "name": "A4",
            "ticks": 31436,
            "time": 35.400865499999995,
            "velocity": 0.7874015748031497
          },
          {
            "duration": 0.11711699999999325,
            "durationTicks": 104,
            "midi": 72,
            "name": "C5",
            "ticks": 31489,
            "time": 35.460550125000005,
            "velocity": 0.7874015748031497
          },
          {
            "duration": 0.1148647499999953,
            "durationTicks": 102,
            "midi": 69,
            "name": "A4",
            "ticks": 31550,
            "time": 35.529243750000006,
            "velocity": 0.7874015748031497
          },
          {
            "duration": 0.10810800000000143,
            "durationTicks": 96,
            "midi": 72,
            "name": "C5",
            "ticks": 31611,
            "time": 35.597937375,
            "velocity": 0.6929133858267716
          },
          {
            "duration": 0.11036024999999938,
            "durationTicks": 98,
            "midi": 69,
            "name": "A4",
            "ticks": 31662,
            "time": 35.655369750000006,
            "velocity": 0.7874015748031497
          },
          {
            "duration": 0.1204953749999973,
            "durationTicks": 107,
            "midi": 72,
            "name": "C5",
            "ticks": 31717,
            "time": 35.717306625,
            "velocity": 0.6929133858267716
          },
          {
            "duration": 0.10810800000000143,
            "durationTicks": 96,
            "midi": 69,
            "name": "A4",
            "ticks": 31772,
            "time": 35.7792435,
            "velocity": 0.8818897637795275
          },
          {
            "duration": 0.11936924999999832,
            "durationTicks": 106,
            "midi": 72,
            "name": "C5",
            "ticks": 31832,
            "time": 35.846811,
            "velocity": 0.6929133858267716
          },
          {
            "duration": 0.11036024999999938,
            "durationTicks": 98,
            "midi": 69,
            "name": "A4",
            "ticks": 31887,
            "time": 35.908747875,
            "velocity": 0.7874015748031497
          },
          {
            "duration": 0.1261259999999993,
            "durationTicks": 112,
            "midi": 72,
            "name": "C5",
            "ticks": 31940,
            "time": 35.968432500000006,
            "velocity": 0.6929133858267716
          },
          {
            "duration": 0.10360350000000551,
            "durationTicks": 92,
            "midi": 69,
            "name": "A4",
            "ticks": 32005,
            "time": 36.041630624999996,
            "velocity": 0.6929133858267716
          },
          {
            "duration": 0.1261259999999993,
            "durationTicks": 112,
            "midi": 72,
            "name": "C5",
            "ticks": 32056,
            "time": 36.099063,
            "velocity": 0.6929133858267716
          },
          {
            "duration": 0.11036024999999938,
            "durationTicks": 98,
            "midi": 69,
            "name": "A4",
            "ticks": 32117,
            "time": 36.167756625,
            "velocity": 0.7874015748031497
          },
          {
            "duration": 0.1317566249999942,
            "durationTicks": 117,
            "midi": 72,
            "name": "C5",
            "ticks": 32172,
            "time": 36.2296935,
            "velocity": 0.6929133858267716
          },
          {
            "duration": 0.10810800000000143,
            "durationTicks": 96,
            "midi": 69,
            "name": "A4",
            "ticks": 32238,
            "time": 36.30401775,
            "velocity": 0.6929133858267716
          },
          {
            "duration": 0.11936924999999832,
            "durationTicks": 106,
            "midi": 72,
            "name": "C5",
            "ticks": 32297,
            "time": 36.370459125,
            "velocity": 0.6929133858267716
          },
          {
            "duration": 0.10810800000000143,
            "durationTicks": 96,
            "midi": 69,
            "name": "A4",
            "ticks": 32350,
            "time": 36.43014375,
            "velocity": 0.7874015748031497
          },
          {
            "duration": 0.13738724999999619,
            "durationTicks": 122,
            "midi": 72,
            "name": "C5",
            "ticks": 32407,
            "time": 36.494332875000005,
            "velocity": 0.7874015748031497
          },
          {
            "duration": 0.09459450000000658,
            "durationTicks": 84,
            "midi": 69,
            "name": "A4",
            "ticks": 32486,
            "time": 36.583296749999995,
            "velocity": 0.7874015748031497
          },
          {
            "duration": 0.11711700000000036,
            "durationTicks": 104,
            "midi": 72,
            "name": "C5",
            "ticks": 32542,
            "time": 36.64635975,
            "velocity": 0.6929133858267716
          },
          {
            "duration": 0.1204953750000044,
            "durationTicks": 107,
            "midi": 69,
            "name": "A4",
            "ticks": 32586,
            "time": 36.69590925,
            "velocity": 0.7874015748031497
          },
          {
            "duration": 0.11711700000000036,
            "durationTicks": 104,
            "midi": 72,
            "name": "C5",
            "ticks": 32672,
            "time": 36.792756,
            "velocity": 0.7874015748031497
          },
          {
            "duration": 0.11261249999999734,
            "durationTicks": 100,
            "midi": 69,
            "name": "A4",
            "ticks": 32729,
            "time": 36.856945125,
            "velocity": 0.8818897637795275
          },
          {
            "duration": 0.11036024999999938,
            "durationTicks": 98,
            "midi": 72,
            "name": "C5",
            "ticks": 32805,
            "time": 36.942530625,
            "velocity": 0.6929133858267716
          },
          {
            "duration": 0.11036024999999938,
            "durationTicks": 98,
            "midi": 69,
            "name": "A4",
            "ticks": 32854,
            "time": 36.99771075,
            "velocity": 0.7874015748031497
          },
          {
            "duration": 0.1261259999999993,
            "durationTicks": 112,
            "midi": 72,
            "name": "C5",
            "ticks": 32913,
            "time": 37.064152125,
            "velocity": 0.7874015748031497
          },
          {
            "duration": 0.10810799999999432,
            "durationTicks": 96,
            "midi": 69,
            "name": "A4",
            "ticks": 32982,
            "time": 37.14185475000001,
            "velocity": 0.8818897637795275
          },
          {
            "duration": 0.12274762499999525,
            "durationTicks": 109,
            "midi": 72,
            "name": "C5",
            "ticks": 33043,
            "time": 37.210548375,
            "velocity": 0.7874015748031497
          },
          {
            "duration": 0.10360350000000551,
            "durationTicks": 92,
            "midi": 69,
            "name": "A4",
            "ticks": 33115,
            "time": 37.291629375,
            "velocity": 0.8818897637795275
          },
          {
            "duration": 0.07432424999999654,
            "durationTicks": 66,
            "midi": 81,
            "name": "A5",
            "ticks": 38412,
            "time": 43.256713500000004,
            "velocity": 0.5354330708661418
          },
          {
            "duration": 0.07207199999999858,
            "durationTicks": 64,
            "midi": 84,
            "name": "C6",
            "ticks": 38475,
            "time": 43.327659375,
            "velocity": 0.5354330708661418
          },
          {
            "duration": 0.060810749999994584,
            "durationTicks": 54,
            "midi": 81,
            "name": "A5",
            "ticks": 38551,
            "time": 43.413244875000004,
            "velocity": 0.5354330708661418
          },
          {
            "duration": 0.07882874999999956,
            "durationTicks": 70,
            "midi": 84,
            "name": "C6",
            "ticks": 38602,
            "time": 43.47067725,
            "velocity": 0.7874015748031497
          },
          {
            "duration": 0.056306249999991564,
            "durationTicks": 50,
            "midi": 81,
            "name": "A5",
            "ticks": 38675,
            "time": 43.552884375000005,
            "velocity": 0.6062992125984252
          },
          {
            "duration": 0.07882874999999956,
            "durationTicks": 70,
            "midi": 84,
            "name": "C6",
            "ticks": 38714,
            "time": 43.59680325,
            "velocity": 0.6929133858267716
          },
          {
            "duration": 0.056306250000005775,
            "durationTicks": 50,
            "midi": 81,
            "name": "A5",
            "ticks": 38785,
            "time": 43.676758125,
            "velocity": 0.6929133858267716
          },
          {
            "duration": 0.059684624999995606,
            "durationTicks": 53,
            "midi": 84,
            "name": "C6",
            "ticks": 38843,
            "time": 43.742073375000004,
            "velocity": 0.6062992125984252
          },
          {
            "duration": 0.07207200000000569,
            "durationTicks": 64,
            "midi": 81,
            "name": "A5",
            "ticks": 38883,
            "time": 43.787118375,
            "velocity": 0.7874015748031497
          },
          {
            "duration": 0.07770262499999347,
            "durationTicks": 69,
            "midi": 84,
            "name": "C6",
            "ticks": 38942,
            "time": 43.85355975,
            "velocity": 0.6929133858267716
          },
          {
            "duration": 0.052927875000001734,
            "durationTicks": 47,
            "midi": 81,
            "name": "A5",
            "ticks": 39008,
            "time": 43.927884,
            "velocity": 0.6062992125984252
          },
          {
            "duration": 0.08108100000000462,
            "durationTicks": 72,
            "midi": 84,
            "name": "C6",
            "ticks": 39053,
            "time": 43.978559625,
            "velocity": 0.6929133858267716
          },
          {
            "duration": 0.06756750000000267,
            "durationTicks": 60,
            "midi": 81,
            "name": "A5",
            "ticks": 39116,
            "time": 44.049505499999995,
            "velocity": 0.7874015748031497
          },
          {
            "duration": 0.0765765000000016,
            "durationTicks": 68,
            "midi": 84,
            "name": "C6",
            "ticks": 39169,
            "time": 44.109190125000005,
            "velocity": 0.7874015748031497
          },
          {
            "duration": 0.07432424999998943,
            "durationTicks": 66,
            "midi": 81,
            "name": "A5",
            "ticks": 39230,
            "time": 44.17788375000001,
            "velocity": 0.7874015748031497
          },
          {
            "duration": 0.06756750000000267,
            "durationTicks": 60,
            "midi": 84,
            "name": "C6",
            "ticks": 39291,
            "time": 44.246577375,
            "velocity": 0.6929133858267716
          },
          {
            "duration": 0.06981974999999352,
            "durationTicks": 62,
            "midi": 81,
            "name": "A5",
            "ticks": 39342,
            "time": 44.304009750000006,
            "velocity": 0.7874015748031497
          },
          {
            "duration": 0.07995487499999854,
            "durationTicks": 71,
            "midi": 84,
            "name": "C6",
            "ticks": 39397,
            "time": 44.365946625,
            "velocity": 0.6929133858267716
          },
          {
            "duration": 0.06756750000000267,
            "durationTicks": 60,
            "midi": 81,
            "name": "A5",
            "ticks": 39452,
            "time": 44.4278835,
            "velocity": 0.8818897637795275
          },
          {
            "duration": 0.07882874999999956,
            "durationTicks": 70,
            "midi": 84,
            "name": "C6",
            "ticks": 39512,
            "time": 44.495451,
            "velocity": 0.6929133858267716
          },
          {
            "duration": 0.06981975000000062,
            "durationTicks": 62,
            "midi": 81,
            "name": "A5",
            "ticks": 39567,
            "time": 44.557387875,
            "velocity": 0.7874015748031497
          },
          {
            "duration": 0.08558550000000054,
            "durationTicks": 76,
            "midi": 84,
            "name": "C6",
            "ticks": 39620,
            "time": 44.617072500000006,
            "velocity": 0.6929133858267716
          },
          {
            "duration": 0.06306300000000675,
            "durationTicks": 56,
            "midi": 81,
            "name": "A5",
            "ticks": 39685,
            "time": 44.690270625,
            "velocity": 0.6929133858267716
          },
          {
            "duration": 0.08558550000000054,
            "durationTicks": 76,
            "midi": 84,
            "name": "C6",
            "ticks": 39736,
            "time": 44.747703,
            "velocity": 0.6929133858267716
          },
          {
            "duration": 0.06981975000000062,
            "durationTicks": 62,
            "midi": 81,
            "name": "A5",
            "ticks": 39797,
            "time": 44.816396625,
            "velocity": 0.7874015748031497
          },
          {
            "duration": 0.09121612499999543,
            "durationTicks": 81,
            "midi": 84,
            "name": "C6",
            "ticks": 39852,
            "time": 44.878333500000004,
            "velocity": 0.6929133858267716
          },
          {
            "duration": 0.06756749999999556,
            "durationTicks": 60,
            "midi": 81,
            "name": "A5",
            "ticks": 39918,
            "time": 44.95265775,
            "velocity": 0.6929133858267716
          },
          {
            "duration": 0.07882875000000666,
            "durationTicks": 70,
            "midi": 84,
            "name": "C6",
            "ticks": 39977,
            "time": 45.019099125,
            "velocity": 0.6929133858267716
          },
          {
            "duration": 0.06756750000000267,
            "durationTicks": 60,
            "midi": 81,
            "name": "A5",
            "ticks": 40030,
            "time": 45.07878375,
            "velocity": 0.7874015748031497
          },
          {
            "duration": 0.09684674999999032,
            "durationTicks": 86,
            "midi": 84,
            "name": "C6",
            "ticks": 40087,
            "time": 45.142972875000005,
            "velocity": 0.7874015748031497
          },
          {
            "duration": 0.05405400000000782,
            "durationTicks": 48,
            "midi": 81,
            "name": "A5",
            "ticks": 40166,
            "time": 45.231936749999996,
            "velocity": 0.7874015748031497
          },
          {
            "duration": 0.0765765000000016,
            "durationTicks": 68,
            "midi": 84,
            "name": "C6",
            "ticks": 40222,
            "time": 45.29499975,
            "velocity": 0.6929133858267716
          },
          {
            "duration": 0.1204953750000044,
            "durationTicks": 107,
            "midi": 65,
            "name": "F4",
            "ticks": 40266,
            "time": 45.34454925,
            "velocity": 0.7874015748031497
          },
          {
            "duration": 0.11711700000000036,
            "durationTicks": 104,
            "midi": 69,
            "name": "A4",
            "ticks": 40352,
            "time": 45.441396,
            "velocity": 0.7874015748031497
          },
          {
            "duration": 0.11261249999999734,
            "durationTicks": 100,
            "midi": 65,
            "name": "F4",
            "ticks": 40409,
            "time": 45.505585125,
            "velocity": 0.8818897637795275
          },
          {
            "duration": 0.11036024999999938,
            "durationTicks": 98,
            "midi": 69,
            "name": "A4",
            "ticks": 40485,
            "time": 45.591170625000004,
            "velocity": 0.6929133858267716
          },
          {
            "duration": 0.11036024999999938,
            "durationTicks": 98,
            "midi": 65,
            "name": "F4",
            "ticks": 40534,
            "time": 45.64635075,
            "velocity": 0.7874015748031497
          },
          {
            "duration": 0.1261259999999993,
            "durationTicks": 112,
            "midi": 69,
            "name": "A4",
            "ticks": 40593,
            "time": 45.712792125,
            "velocity": 0.7874015748031497
          },
          {
            "duration": 0.10810799999999432,
            "durationTicks": 96,
            "midi": 65,
            "name": "F4",
            "ticks": 40662,
            "time": 45.79049475000001,
            "velocity": 0.8818897637795275
          },
          {
            "duration": 0.12274762499999525,
            "durationTicks": 109,
            "midi": 69,
            "name": "A4",
            "ticks": 40723,
            "time": 45.859188375,
            "velocity": 0.7874015748031497
          },
          {
            "duration": 0.10360350000000551,
            "durationTicks": 92,
            "midi": 65,
            "name": "F4",
            "ticks": 40795,
            "time": 45.940269375,
            "velocity": 0.8818897637795275
          },
          {
            "duration": 0.12387375000000134,
            "durationTicks": 110,
            "midi": 69,
            "name": "A4",
            "ticks": 40852,
            "time": 46.004458500000005,
            "velocity": 0.7874015748031497
          },
          {
            "duration": 0.10810799999999432,
            "durationTicks": 96,
            "midi": 65,
            "name": "F4",
            "ticks": 40917,
            "time": 46.077656625,
            "velocity": 0.7874015748031497
          },
          {
            "duration": 0.12950437499999623,
            "durationTicks": 115,
            "midi": 69,
            "name": "A4",
            "ticks": 40978,
            "time": 46.146350250000005,
            "velocity": 0.6929133858267716
          },
          {
            "duration": 0.11261249999999734,
            "durationTicks": 100,
            "midi": 65,
            "name": "F4",
            "ticks": 41044,
            "time": 46.22067450000001,
            "velocity": 0.8818897637795275
          },
          {
            "duration": 0.12162150000000338,
            "durationTicks": 108,
            "midi": 69,
            "name": "A4",
            "ticks": 41109,
            "time": 46.293872625,
            "velocity": 0.6929133858267716
          },
          {
            "duration": 0.11261250000000445,
            "durationTicks": 100,
            "midi": 65,
            "name": "F4",
            "ticks": 41170,
            "time": 46.36256625,
            "velocity": 0.8818897637795275
          },
          {
            "duration": 0.12725212499999827,
            "durationTicks": 113,
            "midi": 69,
            "name": "A4",
            "ticks": 41233,
            "time": 46.43351212500001,
            "velocity": 0.6929133858267716
          },
          {
            "duration": 0.07545037500000262,
            "durationTicks": 67,
            "midi": 65,
            "name": "F4",
            "ticks": 41313,
            "time": 46.523602125,
            "velocity": 0.6062992125984252
          },
          {
            "duration": 0.12162149999999627,
            "durationTicks": 108,
            "midi": 69,
            "name": "A4",
            "ticks": 41354,
            "time": 46.569773250000004,
            "velocity": 0.6929133858267716
          },
          {
            "duration": 0.12387375000000844,
            "durationTicks": 110,
            "midi": 65,
            "name": "F4",
            "ticks": 41415,
            "time": 46.638466875,
            "velocity": 0.7874015748031497
          },
          {
            "duration": 0.12274762500000236,
            "durationTicks": 109,
            "midi": 69,
            "name": "A4",
            "ticks": 41492,
            "time": 46.7251785,
            "velocity": 0.7874015748031497
          },
          {
            "duration": 4.313058750000003,
            "durationTicks": 3830,
            "midi": 74,
            "name": "D5",
            "ticks": 49920,
            "time": 56.21616,
            "velocity": 0.6929133858267716
          },
          {
            "duration": 2.16216,
            "durationTicks": 1920,
            "midi": 74,
            "name": "D5",
            "ticks": 53760,
            "time": 60.54048,
            "velocity": 0.6929133858267716
          },
          {
            "duration": 0.8220712500000005,
            "durationTicks": 730,
            "midi": 74,
            "name": "D5",
            "ticks": 55680,
            "time": 62.70264,
            "velocity": 0.6062992125984252
          },
          {
            "duration": 0.19481962500000094,
            "durationTicks": 173,
            "midi": 74,
            "name": "D5",
            "ticks": 56440,
            "time": 63.558495,
            "velocity": 0.6062992125984252
          },
          {
            "duration": 0.06869362499999454,
            "durationTicks": 61,
            "midi": 50,
            "name": "D3",
            "ticks": 65289,
            "time": 73.52357512500001,
            "velocity": 0.5984251968503937
          },
          {
            "duration": 0.06869362499999454,
            "durationTicks": 61,
            "midi": 62,
            "name": "D4",
            "ticks": 65289,
            "time": 73.52357512500001,
            "velocity": 0.6929133858267716
          },
          {
            "duration": 0.06869362500000875,
            "durationTicks": 61,
            "midi": 51,
            "name": "D#3",
            "ticks": 65344,
            "time": 73.585512,
            "velocity": 0.5984251968503937
          },
          {
            "duration": 0.06869362500000875,
            "durationTicks": 61,
            "midi": 63,
            "name": "D#4",
            "ticks": 65344,
            "time": 73.585512,
            "velocity": 0.6929133858267716
          },
          {
            "duration": 0.08333324999999547,
            "durationTicks": 74,
            "midi": 52,
            "name": "E3",
            "ticks": 65406,
            "time": 73.65533175,
            "velocity": 0.5984251968503937
          },
          {
            "duration": 0.08333324999999547,
            "durationTicks": 74,
            "midi": 64,
            "name": "E4",
            "ticks": 65406,
            "time": 73.65533175,
            "velocity": 0.6929133858267716
          },
          {
            "duration": 0.07207199999999148,
            "durationTicks": 64,
            "midi": 53,
            "name": "F3",
            "ticks": 65461,
            "time": 73.717268625,
            "velocity": 0.5984251968503937
          },
          {
            "duration": 0.07207199999999148,
            "durationTicks": 64,
            "midi": 65,
            "name": "F4",
            "ticks": 65461,
            "time": 73.717268625,
            "velocity": 0.6929133858267716
          },
          {
            "duration": 0.1531530000000032,
            "durationTicks": 136,
            "midi": 54,
            "name": "F#3",
            "ticks": 65514,
            "time": 73.77695325,
            "velocity": 0.5984251968503937
          },
          {
            "duration": 0.1531530000000032,
            "durationTicks": 136,
            "midi": 66,
            "name": "F#4",
            "ticks": 65514,
            "time": 73.77695325,
            "velocity": 0.6929133858267716
          },
          {
            "duration": 0.09909899999999539,
            "durationTicks": 88,
            "midi": 55,
            "name": "G3",
            "ticks": 65647,
            "time": 73.926727875,
            "velocity": 0.5984251968503937
          },
          {
            "duration": 0.09909899999999539,
            "durationTicks": 88,
            "midi": 67,
            "name": "G4",
            "ticks": 65647,
            "time": 73.926727875,
            "velocity": 0.6929133858267716
          },
          {
            "duration": 0.06531525000001182,
            "durationTicks": 58,
            "midi": 56,
            "name": "G#3",
            "ticks": 65717,
            "time": 74.005556625,
            "velocity": 0.5984251968503937
          },
          {
            "duration": 0.06531525000001182,
            "durationTicks": 58,
            "midi": 68,
            "name": "G#4",
            "ticks": 65717,
            "time": 74.005556625,
            "velocity": 0.6929133858267716
          },
          {
            "duration": 0.1430178750000124,
            "durationTicks": 127,
            "midi": 57,
            "name": "A3",
            "ticks": 65767,
            "time": 74.06186287499999,
            "velocity": 0.5984251968503937
          },
          {
            "duration": 0.1430178750000124,
            "durationTicks": 127,
            "midi": 69,
            "name": "A4",
            "ticks": 65767,
            "time": 74.06186287499999,
            "velocity": 0.6929133858267716
          },
          {
            "duration": 0.09234225000000151,
            "durationTicks": 82,
            "midi": 58,
            "name": "A#3",
            "ticks": 65888,
            "time": 74.198124,
            "velocity": 0.6929133858267716
          },
          {
            "duration": 0.09234225000000151,
            "durationTicks": 82,
            "midi": 70,
            "name": "A#4",
            "ticks": 65888,
            "time": 74.198124,
            "velocity": 0.7874015748031497
          },
          {
            "duration": 0.0979728749999822,
            "durationTicks": 87,
            "midi": 59,
            "name": "B3",
            "ticks": 65963,
            "time": 74.28258337500002,
            "velocity": 0.6929133858267716
          },
          {
            "duration": 0.0979728749999822,
            "durationTicks": 87,
            "midi": 71,
            "name": "B4",
            "ticks": 65963,
            "time": 74.28258337500002,
            "velocity": 0.7874015748031497
          },
          {
            "duration": 0.14414399999999716,
            "durationTicks": 128,
            "midi": 60,
            "name": "C4",
            "ticks": 66027,
            "time": 74.35465537500001,
            "velocity": 0.6929133858267716
          },
          {
            "duration": 0.14414399999999716,
            "durationTicks": 128,
            "midi": 72,
            "name": "C5",
            "ticks": 66027,
            "time": 74.35465537500001,
            "velocity": 0.7874015748031497
          },
          {
            "duration": 0.15427912500000218,
            "durationTicks": 137,
            "midi": 61,
            "name": "C#4",
            "ticks": 66138,
            "time": 74.47965525,
            "velocity": 0.6929133858267716
          },
          {
            "duration": 0.15427912500000218,
            "durationTicks": 137,
            "midi": 73,
            "name": "C#5",
            "ticks": 66138,
            "time": 74.47965525,
            "velocity": 0.7874015748031497
          },
          {
            "duration": 0.13400887500000636,
            "durationTicks": 119,
            "midi": 62,
            "name": "D4",
            "ticks": 66261,
            "time": 74.618168625,
            "velocity": 0.6929133858267716
          },
          {
            "duration": 0.13400887500000636,
            "durationTicks": 119,
            "midi": 74,
            "name": "D5",
            "ticks": 66261,
            "time": 74.618168625,
            "velocity": 0.7874015748031497
          },
          {
            "duration": 0.1036034999999913,
            "durationTicks": 92,
            "midi": 63,
            "name": "D#4",
            "ticks": 66378,
            "time": 74.74992525,
            "velocity": 0.6929133858267716
          },
          {
            "duration": 0.1036034999999913,
            "durationTicks": 92,
            "midi": 75,
            "name": "D#5",
            "ticks": 66378,
            "time": 74.74992525,
            "velocity": 0.7874015748031497
          },
          {
            "duration": 0.05292787499999463,
            "durationTicks": 47,
            "midi": 64,
            "name": "E4",
            "ticks": 66458,
            "time": 74.84001525000001,
            "velocity": 0.6929133858267716
          },
          {
            "duration": 0.05292787499999463,
            "durationTicks": 47,
            "midi": 76,
            "name": "E5",
            "ticks": 66458,
            "time": 74.84001525000001,
            "velocity": 0.8818897637795275
          },
          {
            "duration": 0.11036024999999938,
            "durationTicks": 98,
            "midi": 65,
            "name": "F4",
            "ticks": 66494,
            "time": 74.88055575,
            "velocity": 0.6929133858267716
          },
          {
            "duration": 0.11036024999999938,
            "durationTicks": 98,
            "midi": 77,
            "name": "F5",
            "ticks": 66494,
            "time": 74.88055575,
            "velocity": 0.8818897637795275
          },
          {
            "duration": 0.057432375000004754,
            "durationTicks": 51,
            "midi": 66,
            "name": "F#4",
            "ticks": 66574,
            "time": 74.97064575,
            "velocity": 0.6929133858267716
          },
          {
            "duration": 0.057432375000004754,
            "durationTicks": 51,
            "midi": 78,
            "name": "F#5",
            "ticks": 66574,
            "time": 74.97064575,
            "velocity": 0.8818897637795275
          },
          {
            "duration": 0.09909899999999539,
            "durationTicks": 88,
            "midi": 67,
            "name": "G4",
            "ticks": 66622,
            "time": 75.02469975,
            "velocity": 0.6929133858267716
          },
          {
            "duration": 0.09909899999999539,
            "durationTicks": 88,
            "midi": 79,
            "name": "G5",
            "ticks": 66622,
            "time": 75.02469975,
            "velocity": 0.8818897637795275
          },
          {
            "duration": 0.05405400000000782,
            "durationTicks": 48,
            "midi": 68,
            "name": "G#4",
            "ticks": 66692,
            "time": 75.1035285,
            "velocity": 0.6929133858267716
          },
          {
            "duration": 0.05405400000000782,
            "durationTicks": 48,
            "midi": 80,
            "name": "G#5",
            "ticks": 66692,
            "time": 75.1035285,
            "velocity": 0.8818897637795275
          },
          {
            "duration": 0.13288274999999317,
            "durationTicks": 118,
            "midi": 69,
            "name": "A4",
            "ticks": 66733,
            "time": 75.14969962500001,
            "velocity": 0.6929133858267716
          },
          {
            "duration": 0.13288274999999317,
            "durationTicks": 118,
            "midi": 81,
            "name": "A5",
            "ticks": 66733,
            "time": 75.14969962500001,
            "velocity": 0.7874015748031497
          },
          {
            "duration": 0.08108100000001173,
            "durationTicks": 72,
            "midi": 70,
            "name": "A#4",
            "ticks": 66838,
            "time": 75.26794275,
            "velocity": 0.8503937007874016
          },
          {
            "duration": 0.08108100000001173,
            "durationTicks": 72,
            "midi": 82,
            "name": "A#5",
            "ticks": 66838,
            "time": 75.26794275,
            "velocity": 0.9448818897637795
          },
          {
            "duration": 0.09234225000000151,
            "durationTicks": 82,
            "midi": 71,
            "name": "B4",
            "ticks": 66898,
            "time": 75.33551025,
            "velocity": 0.9448818897637795
          },
          {
            "duration": 0.09234225000000151,
            "durationTicks": 82,
            "midi": 83,
            "name": "B5",
            "ticks": 66898,
            "time": 75.33551025,
            "velocity": 0.9448818897637795
          },
          {
            "duration": 0.12387374999998713,
            "durationTicks": 110,
            "midi": 72,
            "name": "C5",
            "ticks": 66975,
            "time": 75.422221875,
            "velocity": 0.9448818897637795
          },
          {
            "duration": 0.10698187499998824,
            "durationTicks": 95,
            "midi": 84,
            "name": "C6",
            "ticks": 66975,
            "time": 75.422221875,
            "velocity": 0.9448818897637795
          },
          {
            "duration": 0.10923412500001461,
            "durationTicks": 97,
            "midi": 73,
            "name": "C#5",
            "ticks": 67083,
            "time": 75.543843375,
            "velocity": 0.9448818897637795
          },
          {
            "duration": 0.10923412500001461,
            "durationTicks": 97,
            "midi": 85,
            "name": "C#6",
            "ticks": 67083,
            "time": 75.543843375,
            "velocity": 0.9448818897637795
          },
          {
            "duration": 0.11261249999999734,
            "durationTicks": 100,
            "midi": 74,
            "name": "D5",
            "ticks": 67170,
            "time": 75.64181625,
            "velocity": 0.984251968503937
          },
          {
            "duration": 0.11261249999999734,
            "durationTicks": 100,
            "midi": 86,
            "name": "D6",
            "ticks": 67170,
            "time": 75.64181625,
            "velocity": 0.984251968503937
          },
          {
            "duration": 1.5990975000000134,
            "durationTicks": 1420,
            "midi": 89,
            "name": "F6",
            "ticks": 67680,
            "time": 76.21614,
            "velocity": 0.6929133858267716
          },
          {
            "duration": 0.16891875000000312,
            "durationTicks": 150,
            "midi": 91,
            "name": "G6",
            "ticks": 69090,
            "time": 77.80397625,
            "velocity": 0.8818897637795275
          },
          {
            "duration": 0.07995487499999854,
            "durationTicks": 71,
            "midi": 82,
            "name": "A#5",
            "ticks": 70429,
            "time": 79.311857625,
            "velocity": 0.6929133858267716
          },
          {
            "duration": 0.09234225000001572,
            "durationTicks": 82,
            "midi": 84,
            "name": "C6",
            "ticks": 70549,
            "time": 79.446992625,
            "velocity": 0.7874015748031497
          },
          {
            "duration": 0.07995487499998433,
            "durationTicks": 71,
            "midi": 85,
            "name": "C#6",
            "ticks": 70778,
            "time": 79.70487525000001,
            "velocity": 0.7874015748031497
          },
          {
            "duration": 0.30405374999999424,
            "durationTicks": 270,
            "midi": 86,
            "name": "D6",
            "ticks": 70995,
            "time": 79.949244375,
            "velocity": 0.889763779527559
          },
          {
            "duration": 0.08445937499999445,
            "durationTicks": 75,
            "midi": 86,
            "name": "D6",
            "ticks": 72365,
            "time": 81.492035625,
            "velocity": 0.6929133858267716
          },
          {
            "duration": 0.09459449999998526,
            "durationTicks": 84,
            "midi": 84,
            "name": "C6",
            "ticks": 72505,
            "time": 81.64969312500001,
            "velocity": 0.7874015748031497
          },
          {
            "duration": 0.0923422499999873,
            "durationTicks": 82,
            "midi": 86,
            "name": "D6",
            "ticks": 72720,
            "time": 81.89181,
            "velocity": 0.7874015748031497
          },
          {
            "duration": 0.35923387500000104,
            "durationTicks": 319,
            "midi": 82,
            "name": "A#5",
            "ticks": 72921,
            "time": 82.118161125,
            "velocity": 0.889763779527559
          },
          {
            "duration": 0.27477449999999237,
            "durationTicks": 244,
            "midi": 86,
            "name": "D6",
            "ticks": 74861,
            "time": 84.30284362500001,
            "velocity": 0.889763779527559
          },
          {
            "duration": 0.12950437500001044,
            "durationTicks": 115,
            "midi": 87,
            "name": "D#6",
            "ticks": 75110,
            "time": 84.58324875,
            "velocity": 0.7874015748031497
          },
          {
            "duration": 0.10810799999998721,
            "durationTicks": 96,
            "midi": 86,
            "name": "D6",
            "ticks": 75224,
            "time": 84.71162700000001,
            "velocity": 0.7874015748031497
          },
          {
            "duration": 0.08108100000001173,
            "durationTicks": 72,
            "midi": 84,
            "name": "C6",
            "ticks": 75321,
            "time": 84.820861125,
            "velocity": 0.7874015748031497
          },
          {
            "duration": 0.09009000000000356,
            "durationTicks": 80,
            "midi": 84,
            "name": "C6",
            "ticks": 75453,
            "time": 84.969509625,
            "velocity": 0.7874015748031497
          },
          {
            "duration": 0.13063050000000942,
            "durationTicks": 116,
            "midi": 84,
            "name": "C6",
            "ticks": 75704,
            "time": 85.252167,
            "velocity": 0.7874015748031497
          },
          {
            "duration": 0.07995487499998433,
            "durationTicks": 71,
            "midi": 82,
            "name": "A#5",
            "ticks": 75819,
            "time": 85.38167137500001,
            "velocity": 0.7874015748031497
          },
          {
            "duration": 0.10472962499999028,
            "durationTicks": 93,
            "midi": 82,
            "name": "A#5",
            "ticks": 75947,
            "time": 85.52581537500001,
            "velocity": 0.7874015748031497
          },
          {
            "duration": 0.12387374999998713,
            "durationTicks": 110,
            "midi": 82,
            "name": "A#5",
            "ticks": 76195,
            "time": 85.80509437500001,
            "velocity": 0.7874015748031497
          },
          {
            "duration": 0.07319812500001888,
            "durationTicks": 65,
            "midi": 81,
            "name": "A5",
            "ticks": 76308,
            "time": 85.9323465,
            "velocity": 0.7874015748031497
          },
          {
            "duration": 0.10022512500000857,
            "durationTicks": 89,
            "midi": 81,
            "name": "A5",
            "ticks": 76437,
            "time": 86.077616625,
            "velocity": 0.889763779527559
          },
          {
            "duration": 3.1801770000000005,
            "durationTicks": 2824,
            "midi": 79,
            "name": "G5",
            "ticks": 76800,
            "time": 86.4864,
            "velocity": 0.6299212598425197
          },
          {
            "duration": 0.5686931249999958,
            "durationTicks": 505,
            "midi": 74,
            "name": "D5",
            "ticks": 79720,
            "time": 89.774685,
            "velocity": 0.6299212598425197
          },
          {
            "duration": 0.5686931249999958,
            "durationTicks": 505,
            "midi": 77,
            "name": "F5",
            "ticks": 80160,
            "time": 90.27018000000001,
            "velocity": 0.6299212598425197
          },
          {
            "duration": 2.1092321250000055,
            "durationTicks": 1873,
            "midi": 82,
            "name": "A#5",
            "ticks": 80640,
            "time": 90.81072,
            "velocity": 0.6299212598425197
          },
          {
            "duration": 0.11824312499999223,
            "durationTicks": 105,
            "midi": 74,
            "name": "D5",
            "ticks": 88814,
            "time": 100.01566575000001,
            "velocity": 0.7874015748031497
          },
          {
            "duration": 0.11824312499999223,
            "durationTicks": 105,
            "midi": 75,
            "name": "D#5",
            "ticks": 88868,
            "time": 100.07647650000001,
            "velocity": 0.8818897637795275
          },
          {
            "duration": 0.0979728749999964,
            "durationTicks": 87,
            "midi": 77,
            "name": "F5",
            "ticks": 88943,
            "time": 100.160935875,
            "velocity": 0.8818897637795275
          },
          {
            "duration": 0.09909899999999539,
            "durationTicks": 88,
            "midi": 79,
            "name": "G5",
            "ticks": 89006,
            "time": 100.23188175000001,
            "velocity": 0.8818897637795275
          },
          {
            "duration": 0.09909899999999539,
            "durationTicks": 88,
            "midi": 81,
            "name": "A5",
            "ticks": 89072,
            "time": 100.306206,
            "velocity": 0.8818897637795275
          },
          {
            "duration": 0.1047296250000187,
            "durationTicks": 93,
            "midi": 82,
            "name": "A#5",
            "ticks": 89152,
            "time": 100.39629599999999,
            "velocity": 0.8818897637795275
          },
          {
            "duration": 0.11711699999999325,
            "durationTicks": 104,
            "midi": 84,
            "name": "C6",
            "ticks": 89216,
            "time": 100.46836800000001,
            "velocity": 0.8818897637795275
          },
          {
            "duration": 0.10698187500000245,
            "durationTicks": 95,
            "midi": 86,
            "name": "D6",
            "ticks": 89293,
            "time": 100.555079625,
            "velocity": 0.984251968503937
          },
          {
            "duration": 8.729720999999998,
            "durationTicks": 7752,
            "midi": 91,
            "name": "G6",
            "ticks": 101760,
            "time": 114.59448,
            "velocity": 0.6929133858267716
          },
          {
            "duration": 0.11486474999998109,
            "durationTicks": 102,
            "midi": 69,
            "name": "A4",
            "ticks": 120972,
            "time": 136.22959350000002,
            "velocity": 0.5354330708661418
          },
          {
            "duration": 0.11261250000001155,
            "durationTicks": 100,
            "midi": 72,
            "name": "C5",
            "ticks": 121035,
            "time": 136.300539375,
            "velocity": 0.5354330708661418
          },
          {
            "duration": 0.10135124999999334,
            "durationTicks": 90,
            "midi": 69,
            "name": "A4",
            "ticks": 121111,
            "time": 136.386124875,
            "velocity": 0.5354330708661418
          },
          {
            "duration": 0.11936925000000542,
            "durationTicks": 106,
            "midi": 72,
            "name": "C5",
            "ticks": 121162,
            "time": 136.44355725,
            "velocity": 0.7874015748031497
          },
          {
            "duration": 0.09684674999999743,
            "durationTicks": 86,
            "midi": 69,
            "name": "A4",
            "ticks": 121235,
            "time": 136.525764375,
            "velocity": 0.6062992125984252
          },
          {
            "duration": 0.11936925000000542,
            "durationTicks": 106,
            "midi": 72,
            "name": "C5",
            "ticks": 121274,
            "time": 136.56968325,
            "velocity": 0.6929133858267716
          },
          {
            "duration": 0.096846749999969,
            "durationTicks": 86,
            "midi": 69,
            "name": "A4",
            "ticks": 121345,
            "time": 136.64963812500002,
            "velocity": 0.6929133858267716
          },
          {
            "duration": 0.10022512499998015,
            "durationTicks": 89,
            "midi": 72,
            "name": "C5",
            "ticks": 121403,
            "time": 136.71495337500002,
            "velocity": 0.6062992125984252
          },
          {
            "duration": 0.11261250000001155,
            "durationTicks": 100,
            "midi": 69,
            "name": "A4",
            "ticks": 121443,
            "time": 136.759998375,
            "velocity": 0.7874015748031497
          },
          {
            "duration": 0.11824312500002065,
            "durationTicks": 105,
            "midi": 72,
            "name": "C5",
            "ticks": 121502,
            "time": 136.82643975,
            "velocity": 0.6929133858267716
          },
          {
            "duration": 0.09346837499998628,
            "durationTicks": 83,
            "midi": 69,
            "name": "A4",
            "ticks": 121568,
            "time": 136.900764,
            "velocity": 0.6062992125984252
          },
          {
            "duration": 0.12162150000000338,
            "durationTicks": 108,
            "midi": 72,
            "name": "C5",
            "ticks": 121613,
            "time": 136.951439625,
            "velocity": 0.6929133858267716
          },
          {
            "duration": 0.10810799999998721,
            "durationTicks": 96,
            "midi": 69,
            "name": "A4",
            "ticks": 121676,
            "time": 137.0223855,
            "velocity": 0.7874015748031497
          },
          {
            "duration": 0.11711700000000747,
            "durationTicks": 104,
            "midi": 72,
            "name": "C5",
            "ticks": 121729,
            "time": 137.082070125,
            "velocity": 0.7874015748031497
          },
          {
            "duration": 0.11486474999998109,
            "durationTicks": 102,
            "midi": 69,
            "name": "A4",
            "ticks": 121790,
            "time": 137.15076375,
            "velocity": 0.7874015748031497
          },
          {
            "duration": 0.10810800000001564,
            "durationTicks": 96,
            "midi": 72,
            "name": "C5",
            "ticks": 121851,
            "time": 137.219457375,
            "velocity": 0.6929133858267716
          },
          {
            "duration": 0.11036024999998517,
            "durationTicks": 98,
            "midi": 69,
            "name": "A4",
            "ticks": 121902,
            "time": 137.27688975,
            "velocity": 0.7874015748031497
          },
          {
            "duration": 0.12049537500001861,
            "durationTicks": 107,
            "midi": 72,
            "name": "C5",
            "ticks": 121957,
            "time": 137.338826625,
            "velocity": 0.6929133858267716
          },
          {
            "duration": 0.10810800000001564,
            "durationTicks": 96,
            "midi": 69,
            "name": "A4",
            "ticks": 122012,
            "time": 137.4007635,
            "velocity": 0.8818897637795275
          },
          {
            "duration": 0.11936925000000542,
            "durationTicks": 106,
            "midi": 72,
            "name": "C5",
            "ticks": 122072,
            "time": 137.468331,
            "velocity": 0.6929133858267716
          },
          {
            "duration": 0.11036024999998517,
            "durationTicks": 98,
            "midi": 69,
            "name": "A4",
            "ticks": 122127,
            "time": 137.53026787500002,
            "velocity": 0.7874015748031497
          },
          {
            "duration": 0.1261259999999993,
            "durationTicks": 112,
            "midi": 72,
            "name": "C5",
            "ticks": 122180,
            "time": 137.5899525,
            "velocity": 0.6929133858267716
          },
          {
            "duration": 0.1036034999999913,
            "durationTicks": 92,
            "midi": 69,
            "name": "A4",
            "ticks": 122245,
            "time": 137.66315062500001,
            "velocity": 0.6929133858267716
          },
          {
            "duration": 0.1261259999999993,
            "durationTicks": 112,
            "midi": 72,
            "name": "C5",
            "ticks": 122296,
            "time": 137.720583,
            "velocity": 0.6929133858267716
          },
          {
            "duration": 0.11036024999998517,
            "durationTicks": 98,
            "midi": 69,
            "name": "A4",
            "ticks": 122357,
            "time": 137.789276625,
            "velocity": 0.7874015748031497
          },
          {
            "duration": 0.1317566250000084,
            "durationTicks": 117,
            "midi": 72,
            "name": "C5",
            "ticks": 122412,
            "time": 137.8512135,
            "velocity": 0.6929133858267716
          },
          {
            "duration": 0.10810800000001564,
            "durationTicks": 96,
            "midi": 69,
            "name": "A4",
            "ticks": 122478,
            "time": 137.92553775,
            "velocity": 0.6929133858267716
          },
          {
            "duration": 0.11936925000000542,
            "durationTicks": 106,
            "midi": 72,
            "name": "C5",
            "ticks": 122537,
            "time": 137.991979125,
            "velocity": 0.6929133858267716
          },
          {
            "duration": 0.10810799999998721,
            "durationTicks": 96,
            "midi": 69,
            "name": "A4",
            "ticks": 122590,
            "time": 138.05166375000002,
            "velocity": 0.7874015748031497
          },
          {
            "duration": 0.1373872500000175,
            "durationTicks": 122,
            "midi": 72,
            "name": "C5",
            "ticks": 122647,
            "time": 138.115852875,
            "velocity": 0.7874015748031497
          },
          {
            "duration": 0.09459449999997105,
            "durationTicks": 84,
            "midi": 69,
            "name": "A4",
            "ticks": 122726,
            "time": 138.20481675000002,
            "velocity": 0.7874015748031497
          },
          {
            "duration": 0.11711700000000747,
            "durationTicks": 104,
            "midi": 72,
            "name": "C5",
            "ticks": 122782,
            "time": 138.26787975,
            "velocity": 0.6929133858267716
          },
          {
            "duration": 0.12049537499999019,
            "durationTicks": 107,
            "midi": 69,
            "name": "A4",
            "ticks": 122826,
            "time": 138.31742925,
            "velocity": 0.7874015748031497
          },
          {
            "duration": 0.11711700000000747,
            "durationTicks": 104,
            "midi": 72,
            "name": "C5",
            "ticks": 122912,
            "time": 138.414276,
            "velocity": 0.7874015748031497
          },
          {
            "duration": 0.11261250000003997,
            "durationTicks": 100,
            "midi": 69,
            "name": "A4",
            "ticks": 122969,
            "time": 138.47846512499999,
            "velocity": 0.8818897637795275
          },
          {
            "duration": 0.1103602500000136,
            "durationTicks": 98,
            "midi": 72,
            "name": "C5",
            "ticks": 123045,
            "time": 138.564050625,
            "velocity": 0.6929133858267716
          },
          {
            "duration": 0.11036024999998517,
            "durationTicks": 98,
            "midi": 69,
            "name": "A4",
            "ticks": 123094,
            "time": 138.61923075,
            "velocity": 0.7874015748031497
          },
          {
            "duration": 0.12612599999997087,
            "durationTicks": 112,
            "midi": 72,
            "name": "C5",
            "ticks": 123153,
            "time": 138.68567212500002,
            "velocity": 0.7874015748031497
          },
          {
            "duration": 0.10810800000001564,
            "durationTicks": 96,
            "midi": 69,
            "name": "A4",
            "ticks": 123222,
            "time": 138.76337475,
            "velocity": 0.8818897637795275
          },
          {
            "duration": 0.12274762499998815,
            "durationTicks": 109,
            "midi": 72,
            "name": "C5",
            "ticks": 123283,
            "time": 138.832068375,
            "velocity": 0.7874015748031497
          },
          {
            "duration": 0.1036034999999913,
            "durationTicks": 92,
            "midi": 69,
            "name": "A4",
            "ticks": 123355,
            "time": 138.913149375,
            "velocity": 0.8818897637795275
          },
          {
            "duration": 0.07432425000001786,
            "durationTicks": 66,
            "midi": 81,
            "name": "A5",
            "ticks": 128652,
            "time": 144.8782335,
            "velocity": 0.5354330708661418
          },
          {
            "duration": 0.07207199999999148,
            "durationTicks": 64,
            "midi": 84,
            "name": "C6",
            "ticks": 128715,
            "time": 144.949179375,
            "velocity": 0.5354330708661418
          },
          {
            "duration": 0.06081075000000169,
            "durationTicks": 54,
            "midi": 81,
            "name": "A5",
            "ticks": 128791,
            "time": 145.034764875,
            "velocity": 0.5354330708661418
          },
          {
            "duration": 0.07882874999998535,
            "durationTicks": 70,
            "midi": 84,
            "name": "C6",
            "ticks": 128842,
            "time": 145.09219725000003,
            "velocity": 0.7874015748031497
          },
          {
            "duration": 0.056306249999977354,
            "durationTicks": 50,
            "midi": 81,
            "name": "A5",
            "ticks": 128915,
            "time": 145.17440437500002,
            "velocity": 0.6062992125984252
          },
          {
            "duration": 0.07882875000001377,
            "durationTicks": 70,
            "midi": 84,
            "name": "C6",
            "ticks": 128954,
            "time": 145.21832325,
            "velocity": 0.6929133858267716
          },
          {
            "duration": 0.056306250000005775,
            "durationTicks": 50,
            "midi": 81,
            "name": "A5",
            "ticks": 129025,
            "time": 145.298278125,
            "velocity": 0.6929133858267716
          },
          {
            "duration": 0.05968462500001692,
            "durationTicks": 53,
            "midi": 84,
            "name": "C6",
            "ticks": 129083,
            "time": 145.363593375,
            "velocity": 0.6062992125984252
          },
          {
            "duration": 0.07207199999999148,
            "durationTicks": 64,
            "midi": 81,
            "name": "A5",
            "ticks": 129123,
            "time": 145.408638375,
            "velocity": 0.7874015748031497
          },
          {
            "duration": 0.077702625000029,
            "durationTicks": 69,
            "midi": 84,
            "name": "C6",
            "ticks": 129182,
            "time": 145.47507975,
            "velocity": 0.6929133858267716
          },
          {
            "duration": 0.05292787499999463,
            "durationTicks": 47,
            "midi": 81,
            "name": "A5",
            "ticks": 129248,
            "time": 145.549404,
            "velocity": 0.6062992125984252
          },
          {
            "duration": 0.08108100000001173,
            "durationTicks": 72,
            "midi": 84,
            "name": "C6",
            "ticks": 129293,
            "time": 145.600079625,
            "velocity": 0.6929133858267716
          },
          {
            "duration": 0.06756749999999556,
            "durationTicks": 60,
            "midi": 81,
            "name": "A5",
            "ticks": 129356,
            "time": 145.6710255,
            "velocity": 0.7874015748031497
          },
          {
            "duration": 0.07657649999998739,
            "durationTicks": 68,
            "midi": 84,
            "name": "C6",
            "ticks": 129409,
            "time": 145.730710125,
            "velocity": 0.7874015748031497
          },
          {
            "duration": 0.07432424999998943,
            "durationTicks": 66,
            "midi": 81,
            "name": "A5",
            "ticks": 129470,
            "time": 145.79940375,
            "velocity": 0.7874015748031497
          },
          {
            "duration": 0.06756749999999556,
            "durationTicks": 60,
            "midi": 84,
            "name": "C6",
            "ticks": 129531,
            "time": 145.868097375,
            "velocity": 0.6929133858267716
          },
          {
            "duration": 0.06981975000002194,
            "durationTicks": 62,
            "midi": 81,
            "name": "A5",
            "ticks": 129582,
            "time": 145.92552974999998,
            "velocity": 0.7874015748031497
          },
          {
            "duration": 0.07995487499999854,
            "durationTicks": 71,
            "midi": 84,
            "name": "C6",
            "ticks": 129637,
            "time": 145.98746662500002,
            "velocity": 0.6929133858267716
          },
          {
            "duration": 0.06756749999999556,
            "durationTicks": 60,
            "midi": 81,
            "name": "A5",
            "ticks": 129692,
            "time": 146.0494035,
            "velocity": 0.8818897637795275
          },
          {
            "duration": 0.07882874999998535,
            "durationTicks": 70,
            "midi": 84,
            "name": "C6",
            "ticks": 129752,
            "time": 146.116971,
            "velocity": 0.6929133858267716
          },
          {
            "duration": 0.06981974999999352,
            "durationTicks": 62,
            "midi": 81,
            "name": "A5",
            "ticks": 129807,
            "time": 146.178907875,
            "velocity": 0.7874015748031497
          },
          {
            "duration": 0.08558549999997922,
            "durationTicks": 76,
            "midi": 84,
            "name": "C6",
            "ticks": 129860,
            "time": 146.2385925,
            "velocity": 0.6929133858267716
          },
          {
            "duration": 0.06306299999999965,
            "durationTicks": 56,
            "midi": 81,
            "name": "A5",
            "ticks": 129925,
            "time": 146.311790625,
            "velocity": 0.6929133858267716
          },
          {
            "duration": 0.08558549999997922,
            "durationTicks": 76,
            "midi": 84,
            "name": "C6",
            "ticks": 129976,
            "time": 146.36922300000003,
            "velocity": 0.6929133858267716
          },
          {
            "duration": 0.06981974999999352,
            "durationTicks": 62,
            "midi": 81,
            "name": "A5",
            "ticks": 130037,
            "time": 146.437916625,
            "velocity": 0.7874015748031497
          },
          {
            "duration": 0.09121612500001675,
            "durationTicks": 81,
            "midi": 84,
            "name": "C6",
            "ticks": 130092,
            "time": 146.4998535,
            "velocity": 0.6929133858267716
          },
          {
            "duration": 0.06756749999999556,
            "durationTicks": 60,
            "midi": 81,
            "name": "A5",
            "ticks": 130158,
            "time": 146.57417775000002,
            "velocity": 0.6929133858267716
          },
          {
            "duration": 0.07882874999998535,
            "durationTicks": 70,
            "midi": 84,
            "name": "C6",
            "ticks": 130217,
            "time": 146.640619125,
            "velocity": 0.6929133858267716
          },
          {
            "duration": 0.06756749999999556,
            "durationTicks": 60,
            "midi": 81,
            "name": "A5",
            "ticks": 130270,
            "time": 146.70030375,
            "velocity": 0.7874015748031497
          },
          {
            "duration": 0.09684675000002585,
            "durationTicks": 86,
            "midi": 84,
            "name": "C6",
            "ticks": 130327,
            "time": 146.764492875,
            "velocity": 0.7874015748031497
          },
          {
            "duration": 0.054053999999979396,
            "durationTicks": 48,
            "midi": 81,
            "name": "A5",
            "ticks": 130406,
            "time": 146.85345675000002,
            "velocity": 0.7874015748031497
          },
          {
            "duration": 0.07657649999998739,
            "durationTicks": 68,
            "midi": 84,
            "name": "C6",
            "ticks": 130462,
            "time": 146.91651975000002,
            "velocity": 0.6929133858267716
          },
          {
            "duration": 0.12049537499999019,
            "durationTicks": 107,
            "midi": 65,
            "name": "F4",
            "ticks": 130506,
            "time": 146.96606925,
            "velocity": 0.7874015748031497
          },
          {
            "duration": 0.11711700000000747,
            "durationTicks": 104,
            "midi": 69,
            "name": "A4",
            "ticks": 130592,
            "time": 147.062916,
            "velocity": 0.7874015748031497
          },
          {
            "duration": 0.11261250000003997,
            "durationTicks": 100,
            "midi": 65,
            "name": "F4",
            "ticks": 130649,
            "time": 147.12710512499999,
            "velocity": 0.8818897637795275
          },
          {
            "duration": 0.1103602500000136,
            "durationTicks": 98,
            "midi": 69,
            "name": "A4",
            "ticks": 130725,
            "time": 147.212690625,
            "velocity": 0.6929133858267716
          },
          {
            "duration": 0.11036024999998517,
            "durationTicks": 98,
            "midi": 65,
            "name": "F4",
            "ticks": 130774,
            "time": 147.26787075000001,
            "velocity": 0.7874015748031497
          },
          {
            "duration": 0.12612599999997087,
            "durationTicks": 112,
            "midi": 69,
            "name": "A4",
            "ticks": 130833,
            "time": 147.33431212500003,
            "velocity": 0.7874015748031497
          },
          {
            "duration": 0.10810800000001564,
            "durationTicks": 96,
            "midi": 65,
            "name": "F4",
            "ticks": 130902,
            "time": 147.41201475,
            "velocity": 0.8818897637795275
          },
          {
            "duration": 0.12274762499998815,
            "durationTicks": 109,
            "midi": 69,
            "name": "A4",
            "ticks": 130963,
            "time": 147.480708375,
            "velocity": 0.7874015748031497
          },
          {
            "duration": 0.1036034999999913,
            "durationTicks": 92,
            "midi": 65,
            "name": "F4",
            "ticks": 131035,
            "time": 147.561789375,
            "velocity": 0.8818897637795275
          },
          {
            "duration": 0.12387375000000134,
            "durationTicks": 110,
            "midi": 69,
            "name": "A4",
            "ticks": 131092,
            "time": 147.6259785,
            "velocity": 0.7874015748031497
          },
          {
            "duration": 0.10810800000001564,
            "durationTicks": 96,
            "midi": 65,
            "name": "F4",
            "ticks": 131157,
            "time": 147.699176625,
            "velocity": 0.7874015748031497
          },
          {
            "duration": 0.12950437499998202,
            "durationTicks": 115,
            "midi": 69,
            "name": "A4",
            "ticks": 131218,
            "time": 147.76787025000002,
            "velocity": 0.6929133858267716
          },
          {
            "duration": 0.11261249999998313,
            "durationTicks": 100,
            "midi": 65,
            "name": "F4",
            "ticks": 131284,
            "time": 147.8421945,
            "velocity": 0.8818897637795275
          },
          {
            "duration": 0.12162149999997496,
            "durationTicks": 108,
            "midi": 69,
            "name": "A4",
            "ticks": 131349,
            "time": 147.915392625,
            "velocity": 0.6929133858267716
          },
          {
            "duration": 0.11261250000003997,
            "durationTicks": 100,
            "midi": 65,
            "name": "F4",
            "ticks": 131410,
            "time": 147.98408625,
            "velocity": 0.8818897637795275
          },
          {
            "duration": 0.12725212500001248,
            "durationTicks": 113,
            "midi": 69,
            "name": "A4",
            "ticks": 131473,
            "time": 148.055032125,
            "velocity": 0.6929133858267716
          },
          {
            "duration": 0.0754503749999742,
            "durationTicks": 67,
            "midi": 65,
            "name": "F4",
            "ticks": 131553,
            "time": 148.14512212500003,
            "velocity": 0.6062992125984252
          },
          {
            "duration": 0.12162150000000338,
            "durationTicks": 108,
            "midi": 69,
            "name": "A4",
            "ticks": 131594,
            "time": 148.19129325,
            "velocity": 0.6929133858267716
          },
          {
            "duration": 0.12387375000000134,
            "durationTicks": 110,
            "midi": 65,
            "name": "F4",
            "ticks": 131655,
            "time": 148.259986875,
            "velocity": 0.7874015748031497
          },
          {
            "duration": 0.12274762499998815,
            "durationTicks": 109,
            "midi": 69,
            "name": "A4",
            "ticks": 131732,
            "time": 148.3466985,
            "velocity": 0.7874015748031497
          },
          {
            "duration": 4.31305875000001,
            "durationTicks": 3830,
            "midi": 74,
            "name": "D5",
            "ticks": 140160,
            "time": 157.83768,
            "velocity": 0.6929133858267716
          },
          {
            "duration": 2.16216,
            "durationTicks": 1920,
            "midi": 74,
            "name": "D5",
            "ticks": 144000,
            "time": 162.162,
            "velocity": 0.6929133858267716
          },
          {
            "duration": 0.8220712499999934,
            "durationTicks": 730,
            "midi": 74,
            "name": "D5",
            "ticks": 145920,
            "time": 164.32416,
            "velocity": 0.6062992125984252
          },
          {
            "duration": 0.19481962500000805,
            "durationTicks": 173,
            "midi": 74,
            "name": "D5",
            "ticks": 146680,
            "time": 165.180015,
            "velocity": 0.6062992125984252
          },
          {
            "duration": 0.06869362499998033,
            "durationTicks": 61,
            "midi": 50,
            "name": "D3",
            "ticks": 155529,
            "time": 175.145095125,
            "velocity": 0.5984251968503937
          },
          {
            "duration": 0.06869362499998033,
            "durationTicks": 61,
            "midi": 62,
            "name": "D4",
            "ticks": 155529,
            "time": 175.145095125,
            "velocity": 0.6929133858267716
          },
          {
            "duration": 0.06869362500000875,
            "durationTicks": 61,
            "midi": 51,
            "name": "D#3",
            "ticks": 155584,
            "time": 175.207032,
            "velocity": 0.5984251968503937
          },
          {
            "duration": 0.06869362500000875,
            "durationTicks": 61,
            "midi": 63,
            "name": "D#4",
            "ticks": 155584,
            "time": 175.207032,
            "velocity": 0.6929133858267716
          },
          {
            "duration": 0.0833332500000381,
            "durationTicks": 74,
            "midi": 52,
            "name": "E3",
            "ticks": 155646,
            "time": 175.27685175,
            "velocity": 0.5984251968503937
          },
          {
            "duration": 0.0833332500000381,
            "durationTicks": 74,
            "midi": 64,
            "name": "E4",
            "ticks": 155646,
            "time": 175.27685175,
            "velocity": 0.6929133858267716
          },
          {
            "duration": 0.07207199999999148,
            "durationTicks": 64,
            "midi": 53,
            "name": "F3",
            "ticks": 155701,
            "time": 175.33878862500003,
            "velocity": 0.5984251968503937
          },
          {
            "duration": 0.07207199999999148,
            "durationTicks": 64,
            "midi": 65,
            "name": "F4",
            "ticks": 155701,
            "time": 175.33878862500003,
            "velocity": 0.6929133858267716
          },
          {
            "duration": 0.15315299999997478,
            "durationTicks": 136,
            "midi": 54,
            "name": "F#3",
            "ticks": 155754,
            "time": 175.39847325000002,
            "velocity": 0.5984251968503937
          },
          {
            "duration": 0.15315299999997478,
            "durationTicks": 136,
            "midi": 66,
            "name": "F#4",
            "ticks": 155754,
            "time": 175.39847325000002,
            "velocity": 0.6929133858267716
          },
          {
            "duration": 0.09909899999999539,
            "durationTicks": 88,
            "midi": 55,
            "name": "G3",
            "ticks": 155887,
            "time": 175.54824787500002,
            "velocity": 0.5984251968503937
          },
          {
            "duration": 0.09909899999999539,
            "durationTicks": 88,
            "midi": 67,
            "name": "G4",
            "ticks": 155887,
            "time": 175.54824787500002,
            "velocity": 0.6929133858267716
          },
          {
            "duration": 0.0653152499999976,
            "durationTicks": 58,
            "midi": 56,
            "name": "G#3",
            "ticks": 155957,
            "time": 175.627076625,
            "velocity": 0.5984251968503937
          },
          {
            "duration": 0.0653152499999976,
            "durationTicks": 58,
            "midi": 68,
            "name": "G#4",
            "ticks": 155957,
            "time": 175.627076625,
            "velocity": 0.6929133858267716
          },
          {
            "duration": 0.14301787499999818,
            "durationTicks": 127,
            "midi": 57,
            "name": "A3",
            "ticks": 156007,
            "time": 175.683382875,
            "velocity": 0.5984251968503937
          },
          {
            "duration": 0.14301787499999818,
            "durationTicks": 127,
            "midi": 69,
            "name": "A4",
            "ticks": 156007,
            "time": 175.683382875,
            "velocity": 0.6929133858267716
          },
          {
            "duration": 0.09234225000000151,
            "durationTicks": 82,
            "midi": 58,
            "name": "A#3",
            "ticks": 156128,
            "time": 175.819644,
            "velocity": 0.6929133858267716
          },
          {
            "duration": 0.09234225000000151,
            "durationTicks": 82,
            "midi": 70,
            "name": "A#4",
            "ticks": 156128,
            "time": 175.819644,
            "velocity": 0.7874015748031497
          },
          {
            "duration": 0.09797287500001062,
            "durationTicks": 87,
            "midi": 59,
            "name": "B3",
            "ticks": 156203,
            "time": 175.904103375,
            "velocity": 0.6929133858267716
          },
          {
            "duration": 0.09797287500001062,
            "durationTicks": 87,
            "midi": 71,
            "name": "B4",
            "ticks": 156203,
            "time": 175.904103375,
            "velocity": 0.7874015748031497
          },
          {
            "duration": 0.14414400000001137,
            "durationTicks": 128,
            "midi": 60,
            "name": "C4",
            "ticks": 156267,
            "time": 175.976175375,
            "velocity": 0.6929133858267716
          },
          {
            "duration": 0.14414400000001137,
            "durationTicks": 128,
            "midi": 72,
            "name": "C5",
            "ticks": 156267,
            "time": 175.976175375,
            "velocity": 0.7874015748031497
          },
          {
            "duration": 0.1542791250000164,
            "durationTicks": 137,
            "midi": 61,
            "name": "C#4",
            "ticks": 156378,
            "time": 176.10117525,
            "velocity": 0.6929133858267716
          },
          {
            "duration": 0.1542791250000164,
            "durationTicks": 137,
            "midi": 73,
            "name": "C#5",
            "ticks": 156378,
            "time": 176.10117525,
            "velocity": 0.7874015748031497
          },
          {
            "duration": 0.13400887500000636,
            "durationTicks": 119,
            "midi": 62,
            "name": "D4",
            "ticks": 156501,
            "time": 176.239688625,
            "velocity": 0.6929133858267716
          },
          {
            "duration": 0.13400887500000636,
            "durationTicks": 119,
            "midi": 74,
            "name": "D5",
            "ticks": 156501,
            "time": 176.239688625,
            "velocity": 0.7874015748031497
          },
          {
            "duration": 0.1036034999999913,
            "durationTicks": 92,
            "midi": 63,
            "name": "D#4",
            "ticks": 156618,
            "time": 176.37144525000002,
            "velocity": 0.6929133858267716
          },
          {
            "duration": 0.1036034999999913,
            "durationTicks": 92,
            "midi": 75,
            "name": "D#5",
            "ticks": 156618,
            "time": 176.37144525000002,
            "velocity": 0.7874015748031497
          },
          {
            "duration": 0.05292787499999463,
            "durationTicks": 47,
            "midi": 64,
            "name": "E4",
            "ticks": 156698,
            "time": 176.46153525,
            "velocity": 0.6929133858267716
          },
          {
            "duration": 0.05292787499999463,
            "durationTicks": 47,
            "midi": 76,
            "name": "E5",
            "ticks": 156698,
            "time": 176.46153525,
            "velocity": 0.8818897637795275
          },
          {
            "duration": 0.1103602500000136,
            "durationTicks": 98,
            "midi": 65,
            "name": "F4",
            "ticks": 156734,
            "time": 176.50207575,
            "velocity": 0.6929133858267716
          },
          {
            "duration": 0.1103602500000136,
            "durationTicks": 98,
            "midi": 77,
            "name": "F5",
            "ticks": 156734,
            "time": 176.50207575,
            "velocity": 0.8818897637795275
          },
          {
            "duration": 0.05743237499999054,
            "durationTicks": 51,
            "midi": 66,
            "name": "F#4",
            "ticks": 156814,
            "time": 176.59216575,
            "velocity": 0.6929133858267716
          },
          {
            "duration": 0.05743237499999054,
            "durationTicks": 51,
            "midi": 78,
            "name": "F#5",
            "ticks": 156814,
            "time": 176.59216575,
            "velocity": 0.8818897637795275
          },
          {
            "duration": 0.09909899999999539,
            "durationTicks": 88,
            "midi": 67,
            "name": "G4",
            "ticks": 156862,
            "time": 176.64621975000003,
            "velocity": 0.6929133858267716
          },
          {
            "duration": 0.09909899999999539,
            "durationTicks": 88,
            "midi": 79,
            "name": "G5",
            "ticks": 156862,
            "time": 176.64621975000003,
            "velocity": 0.8818897637795275
          },
          {
            "duration": 0.05405400000000782,
            "durationTicks": 48,
            "midi": 68,
            "name": "G#4",
            "ticks": 156932,
            "time": 176.7250485,
            "velocity": 0.6929133858267716
          },
          {
            "duration": 0.05405400000000782,
            "durationTicks": 48,
            "midi": 80,
            "name": "G#5",
            "ticks": 156932,
            "time": 176.7250485,
            "velocity": 0.8818897637795275
          },
          {
            "duration": 0.13288274999999317,
            "durationTicks": 118,
            "midi": 69,
            "name": "A4",
            "ticks": 156973,
            "time": 176.77121962500001,
            "velocity": 0.6929133858267716
          },
          {
            "duration": 0.13288274999999317,
            "durationTicks": 118,
            "midi": 81,
            "name": "A5",
            "ticks": 156973,
            "time": 176.77121962500001,
            "velocity": 0.7874015748031497
          },
          {
            "duration": 0.0810809999999833,
            "durationTicks": 72,
            "midi": 70,
            "name": "A#4",
            "ticks": 157078,
            "time": 176.88946275,
            "velocity": 0.8503937007874016
          },
          {
            "duration": 0.0810809999999833,
            "durationTicks": 72,
            "midi": 82,
            "name": "A#5",
            "ticks": 157078,
            "time": 176.88946275,
            "velocity": 0.9448818897637795
          },
          {
            "duration": 0.09234225000000151,
            "durationTicks": 82,
            "midi": 71,
            "name": "B4",
            "ticks": 157138,
            "time": 176.95703025,
            "velocity": 0.9448818897637795
          },
          {
            "duration": 0.09234225000000151,
            "durationTicks": 82,
            "midi": 83,
            "name": "B5",
            "ticks": 157138,
            "time": 176.95703025,
            "velocity": 0.9448818897637795
          },
          {
            "duration": 0.12387375000002976,
            "durationTicks": 110,
            "midi": 72,
            "name": "C5",
            "ticks": 157215,
            "time": 177.043741875,
            "velocity": 0.9448818897637795
          },
          {
            "duration": 0.10698187500003087,
            "durationTicks": 95,
            "midi": 84,
            "name": "C6",
            "ticks": 157215,
            "time": 177.043741875,
            "velocity": 0.9448818897637795
          },
          {
            "duration": 0.10923412499997198,
            "durationTicks": 97,
            "midi": 73,
            "name": "C#5",
            "ticks": 157323,
            "time": 177.16536337500003,
            "velocity": 0.9448818897637795
          },
          {
            "duration": 0.10923412499997198,
            "durationTicks": 97,
            "midi": 85,
            "name": "C#6",
            "ticks": 157323,
            "time": 177.16536337500003,
            "velocity": 0.9448818897637795
          },
          {
            "duration": 0.11261249999998313,
            "durationTicks": 100,
            "midi": 74,
            "name": "D5",
            "ticks": 157410,
            "time": 177.26333625,
            "velocity": 0.984251968503937
          },
          {
            "duration": 0.11261249999998313,
            "durationTicks": 100,
            "midi": 86,
            "name": "D6",
            "ticks": 157410,
            "time": 177.26333625,
            "velocity": 0.984251968503937
          },
          {
            "duration": 1.5990974999999992,
            "durationTicks": 1420,
            "midi": 89,
            "name": "F6",
            "ticks": 157920,
            "time": 177.83766,
            "velocity": 0.6929133858267716
          },
          {
            "duration": 0.1689187499999889,
            "durationTicks": 150,
            "midi": 91,
            "name": "G6",
            "ticks": 159330,
            "time": 179.42549625,
            "velocity": 0.8818897637795275
          },
          {
            "duration": 0.07995487500002696,
            "durationTicks": 71,
            "midi": 82,
            "name": "A#5",
            "ticks": 160669,
            "time": 180.933377625,
            "velocity": 0.6929133858267716
          },
          {
            "duration": 0.09234225000000151,
            "durationTicks": 82,
            "midi": 84,
            "name": "C6",
            "ticks": 160789,
            "time": 181.068512625,
            "velocity": 0.7874015748031497
          },
          {
            "duration": 0.07995487499999854,
            "durationTicks": 71,
            "midi": 85,
            "name": "C#6",
            "ticks": 161018,
            "time": 181.32639525,
            "velocity": 0.7874015748031497
          },
          {
            "duration": 0.30405375000000845,
            "durationTicks": 270,
            "midi": 86,
            "name": "D6",
            "ticks": 161235,
            "time": 181.570764375,
            "velocity": 0.889763779527559
          },
          {
            "duration": 0.08445937500002287,
            "durationTicks": 75,
            "midi": 86,
            "name": "D6",
            "ticks": 162605,
            "time": 183.113555625,
            "velocity": 0.6929133858267716
          },
          {
            "duration": 0.09459449999999947,
            "durationTicks": 84,
            "midi": 84,
            "name": "C6",
            "ticks": 162745,
            "time": 183.271213125,
            "velocity": 0.7874015748031497
          },
          {
            "duration": 0.09234225000002994,
            "durationTicks": 82,
            "midi": 86,
            "name": "D6",
            "ticks": 162960,
            "time": 183.51333,
            "velocity": 0.7874015748031497
          },
          {
            "duration": 0.35923387500000104,
            "durationTicks": 319,
            "midi": 82,
            "name": "A#5",
            "ticks": 163161,
            "time": 183.739681125,
            "velocity": 0.889763779527559
          },
          {
            "duration": 0.2747745000000066,
            "durationTicks": 244,
            "midi": 86,
            "name": "D6",
            "ticks": 165101,
            "time": 185.924363625,
            "velocity": 0.889763779527559
          },
          {
            "duration": 0.12950437499998202,
            "durationTicks": 115,
            "midi": 87,
            "name": "D#6",
            "ticks": 165350,
            "time": 186.20476875000003,
            "velocity": 0.7874015748031497
          },
          {
            "duration": 0.10810800000001564,
            "durationTicks": 96,
            "midi": 86,
            "name": "D6",
            "ticks": 165464,
            "time": 186.333147,
            "velocity": 0.7874015748031497
          },
          {
            "duration": 0.08108100000001173,
            "durationTicks": 72,
            "midi": 84,
            "name": "C6",
            "ticks": 165561,
            "time": 186.442381125,
            "velocity": 0.7874015748031497
          },
          {
            "duration": 0.09008999999997513,
            "durationTicks": 80,
            "midi": 84,
            "name": "C6",
            "ticks": 165693,
            "time": 186.59102962500003,
            "velocity": 0.7874015748031497
          },
          {
            "duration": 0.1306304999999952,
            "durationTicks": 116,
            "midi": 84,
            "name": "C6",
            "ticks": 165944,
            "time": 186.873687,
            "velocity": 0.7874015748031497
          },
          {
            "duration": 0.07995487500002696,
            "durationTicks": 71,
            "midi": 82,
            "name": "A#5",
            "ticks": 166059,
            "time": 187.003191375,
            "velocity": 0.7874015748031497
          },
          {
            "duration": 0.10472962500000449,
            "durationTicks": 93,
            "midi": 82,
            "name": "A#5",
            "ticks": 166187,
            "time": 187.147335375,
            "velocity": 0.7874015748031497
          },
          {
            "duration": 0.12387375000002976,
            "durationTicks": 110,
            "midi": 82,
            "name": "A#5",
            "ticks": 166435,
            "time": 187.42661437499999,
            "velocity": 0.7874015748031497
          },
          {
            "duration": 0.07319812499997624,
            "durationTicks": 65,
            "midi": 81,
            "name": "A5",
            "ticks": 166548,
            "time": 187.55386650000003,
            "velocity": 0.7874015748031497
          },
          {
            "duration": 0.10022512500000857,
            "durationTicks": 89,
            "midi": 81,
            "name": "A5",
            "ticks": 166677,
            "time": 187.699136625,
            "velocity": 0.889763779527559
          },
          {
            "duration": 3.1801769999999863,
            "durationTicks": 2824,
            "midi": 79,
            "name": "G5",
            "ticks": 167040,
            "time": 188.10792,
            "velocity": 0.6299212598425197
          },
          {
            "duration": 0.56869312500001,
            "durationTicks": 505,
            "midi": 74,
            "name": "D5",
            "ticks": 169920,
            "time": 191.35116,
            "velocity": 0.6299212598425197
          },
          {
            "duration": 0.5686931249999816,
            "durationTicks": 505,
            "midi": 77,
            "name": "F5",
            "ticks": 170400,
            "time": 191.89170000000001,
            "velocity": 0.6299212598425197
          },
          {
            "duration": 2.1092321250000055,
            "durationTicks": 1873,
            "midi": 82,
            "name": "A#5",
            "ticks": 170880,
            "time": 192.43224,
            "velocity": 0.6299212598425197
          },
          {
            "duration": 0.11824312500002065,
            "durationTicks": 105,
            "midi": 74,
            "name": "D5",
            "ticks": 179054,
            "time": 201.63718575,
            "velocity": 0.7874015748031497
          },
          {
            "duration": 0.11824312500002065,
            "durationTicks": 105,
            "midi": 75,
            "name": "D#5",
            "ticks": 179108,
            "time": 201.6979965,
            "velocity": 0.8818897637795275
          },
          {
            "duration": 0.09797287500001062,
            "durationTicks": 87,
            "midi": 77,
            "name": "F5",
            "ticks": 179183,
            "time": 201.782455875,
            "velocity": 0.8818897637795275
          },
          {
            "duration": 0.09909899999999539,
            "durationTicks": 88,
            "midi": 79,
            "name": "G5",
            "ticks": 179246,
            "time": 201.85340175000002,
            "velocity": 0.8818897637795275
          },
          {
            "duration": 0.09909899999999539,
            "durationTicks": 88,
            "midi": 81,
            "name": "A5",
            "ticks": 179312,
            "time": 201.927726,
            "velocity": 0.8818897637795275
          },
          {
            "duration": 0.10472962499997607,
            "durationTicks": 93,
            "midi": 82,
            "name": "A#5",
            "ticks": 179392,
            "time": 202.017816,
            "velocity": 0.8818897637795275
          },
          {
            "duration": 0.11711700000000747,
            "durationTicks": 104,
            "midi": 84,
            "name": "C6",
            "ticks": 179456,
            "time": 202.089888,
            "velocity": 0.8818897637795275
          },
          {
            "duration": 0.10698187500000245,
            "durationTicks": 95,
            "midi": 86,
            "name": "D6",
            "ticks": 179533,
            "time": 202.17659962500002,
            "velocity": 0.984251968503937
          },
          {
            "duration": 1.7094577500000128,
            "durationTicks": 1518,
            "midi": 79,
            "name": "G5",
            "ticks": 182400,
            "time": 205.4052,
            "velocity": 0.8818897637795275
          },
          {
            "duration": 0.515765249999987,
            "durationTicks": 458,
            "midi": 82,
            "name": "A#5",
            "ticks": 183841,
            "time": 207.02794612500003,
            "velocity": 0.8818897637795275
          },
          {
            "duration": 2.2128356249999968,
            "durationTicks": 1965,
            "midi": 86,
            "name": "D6",
            "ticks": 184321,
            "time": 207.56848612500002,
            "velocity": 0.8818897637795275
          },
          {
            "duration": 2.027025000000009,
            "durationTicks": 1800,
            "midi": 82,
            "name": "A#5",
            "ticks": 186241,
            "time": 209.73064612500002,
            "velocity": 0.6929133858267716
          },
          {
            "duration": 0.17567549999998278,
            "durationTicks": 156,
            "midi": 50,
            "name": "D3",
            "ticks": 188146,
            "time": 211.87591425000002,
            "velocity": 0.8346456692913385
          },
          {
            "duration": 0.17567549999998278,
            "durationTicks": 156,
            "midi": 62,
            "name": "D4",
            "ticks": 188146,
            "time": 211.87591425000002,
            "velocity": 0.7874015748031497
          },
          {
            "duration": 0.22522499999999468,
            "durationTicks": 200,
            "midi": 51,
            "name": "D#3",
            "ticks": 188257,
            "time": 212.000914125,
            "velocity": 0.8346456692913385
          },
          {
            "duration": 0.22522499999999468,
            "durationTicks": 200,
            "midi": 63,
            "name": "D#4",
            "ticks": 188257,
            "time": 212.000914125,
            "velocity": 0.7874015748031497
          },
          {
            "duration": 0.18243224999997665,
            "durationTicks": 162,
            "midi": 52,
            "name": "E3",
            "ticks": 188403,
            "time": 212.16532837500003,
            "velocity": 0.8346456692913385
          },
          {
            "duration": 0.18243224999997665,
            "durationTicks": 162,
            "midi": 64,
            "name": "E4",
            "ticks": 188403,
            "time": 212.16532837500003,
            "velocity": 0.7874015748031497
          },
          {
            "duration": 0.197071875000006,
            "durationTicks": 175,
            "midi": 53,
            "name": "F3",
            "ticks": 188511,
            "time": 212.286949875,
            "velocity": 0.7401574803149606
          },
          {
            "duration": 0.197071875000006,
            "durationTicks": 175,
            "midi": 65,
            "name": "F4",
            "ticks": 188511,
            "time": 212.286949875,
            "velocity": 0.6929133858267716
          },
          {
            "duration": 0.16891875000001733,
            "durationTicks": 150,
            "midi": 54,
            "name": "F#3",
            "ticks": 188650,
            "time": 212.44348125,
            "velocity": 0.7401574803149606
          },
          {
            "duration": 0.16891875000001733,
            "durationTicks": 150,
            "midi": 66,
            "name": "F#4",
            "ticks": 188650,
            "time": 212.44348125,
            "velocity": 0.6929133858267716
          },
          {
            "duration": 0.19481962499997962,
            "durationTicks": 173,
            "midi": 55,
            "name": "G3",
            "ticks": 188761,
            "time": 212.56848112500003,
            "velocity": 0.7401574803149606
          },
          {
            "duration": 0.19481962499997962,
            "durationTicks": 173,
            "midi": 67,
            "name": "G4",
            "ticks": 188761,
            "time": 212.56848112500003,
            "velocity": 0.6929133858267716
          },
          {
            "duration": 0.1903151249999837,
            "durationTicks": 169,
            "midi": 56,
            "name": "G#3",
            "ticks": 188886,
            "time": 212.70924675,
            "velocity": 0.7401574803149606
          },
          {
            "duration": 0.1903151249999837,
            "durationTicks": 169,
            "midi": 68,
            "name": "G#4",
            "ticks": 188886,
            "time": 212.70924675,
            "velocity": 0.6929133858267716
          },
          {
            "duration": 0.18806287500001417,
            "durationTicks": 167,
            "midi": 57,
            "name": "A3",
            "ticks": 189005,
            "time": 212.843255625,
            "velocity": 0.7401574803149606
          },
          {
            "duration": 0.18806287500001417,
            "durationTicks": 167,
            "midi": 69,
            "name": "A4",
            "ticks": 189005,
            "time": 212.843255625,
            "velocity": 0.7874015748031497
          },
          {
            "duration": 0.1475223749999941,
            "durationTicks": 131,
            "midi": 58,
            "name": "A#3",
            "ticks": 189129,
            "time": 212.98289512500003,
            "velocity": 0.7401574803149606
          },
          {
            "duration": 0.1475223749999941,
            "durationTicks": 131,
            "midi": 70,
            "name": "A#4",
            "ticks": 189129,
            "time": 212.98289512500003,
            "velocity": 0.7874015748031497
          },
          {
            "duration": 0.13175662499997998,
            "durationTicks": 117,
            "midi": 59,
            "name": "B3",
            "ticks": 189212,
            "time": 213.0763635,
            "velocity": 0.7401574803149606
          },
          {
            "duration": 0.13175662499997998,
            "durationTicks": 117,
            "midi": 71,
            "name": "B4",
            "ticks": 189212,
            "time": 213.0763635,
            "velocity": 0.7874015748031497
          },
          {
            "duration": 0.13175662499997998,
            "durationTicks": 117,
            "midi": 60,
            "name": "C4",
            "ticks": 189302,
            "time": 213.17771475,
            "velocity": 0.7401574803149606
          },
          {
            "duration": 0.13175662499997998,
            "durationTicks": 117,
            "midi": 72,
            "name": "C5",
            "ticks": 189302,
            "time": 213.17771475,
            "velocity": 0.7874015748031497
          },
          {
            "duration": 0.17117100000001528,
            "durationTicks": 152,
            "midi": 61,
            "name": "C#4",
            "ticks": 189368,
            "time": 213.252039,
            "velocity": 0.8346456692913385
          },
          {
            "duration": 0.17117100000001528,
            "durationTicks": 152,
            "midi": 73,
            "name": "C#5",
            "ticks": 189368,
            "time": 213.252039,
            "velocity": 0.7874015748031497
          },
          {
            "duration": 0.15202687500001844,
            "durationTicks": 135,
            "midi": 62,
            "name": "D4",
            "ticks": 189495,
            "time": 213.395056875,
            "velocity": 0.8346456692913385
          },
          {
            "duration": 0.13626112500003273,
            "durationTicks": 121,
            "midi": 74,
            "name": "D5",
            "ticks": 189495,
            "time": 213.395056875,
            "velocity": 0.7874015748031497
          },
          {
            "duration": 0.1362611250000043,
            "durationTicks": 121,
            "midi": 63,
            "name": "D#4",
            "ticks": 189627,
            "time": 213.543705375,
            "velocity": 0.7952755905511811
          },
          {
            "duration": 0.1362611250000043,
            "durationTicks": 121,
            "midi": 75,
            "name": "D#5",
            "ticks": 189627,
            "time": 213.543705375,
            "velocity": 0.7874015748031497
          },
          {
            "duration": 0.17229712500002847,
            "durationTicks": 153,
            "midi": 64,
            "name": "E4",
            "ticks": 189737,
            "time": 213.667579125,
            "velocity": 0.889763779527559
          },
          {
            "duration": 0.17229712500002847,
            "durationTicks": 153,
            "midi": 76,
            "name": "E5",
            "ticks": 189737,
            "time": 213.667579125,
            "velocity": 0.8818897637795275
          },
          {
            "duration": 0.2184682500000008,
            "durationTicks": 194,
            "midi": 65,
            "name": "F4",
            "ticks": 189856,
            "time": 213.801588,
            "velocity": 0.889763779527559
          },
          {
            "duration": 0.18806287500001417,
            "durationTicks": 167,
            "midi": 77,
            "name": "F5",
            "ticks": 189856,
            "time": 213.801588,
            "velocity": 0.8818897637795275
          },
          {
            "duration": 0.17117099999998686,
            "durationTicks": 152,
            "midi": 78,
            "name": "F#5",
            "ticks": 189984,
            "time": 213.94573200000002,
            "velocity": 0.9448818897637795
          },
          {
            "duration": 0.16216199999999503,
            "durationTicks": 144,
            "midi": 66,
            "name": "F#4",
            "ticks": 189996,
            "time": 213.9592455,
            "velocity": 0.889763779527559
          },
          {
            "duration": 3.1801769999999863,
            "durationTicks": 2824,
            "midi": 79,
            "name": "G5",
            "ticks": 190080,
            "time": 214.05384,
            "velocity": 0.7874015748031497
          },
          {
            "duration": 0.56869312500001,
            "durationTicks": 505,
            "midi": 74,
            "name": "D5",
            "ticks": 192960,
            "time": 217.29708,
            "velocity": 0.6299212598425197
          },
          {
            "duration": 0.5686931249999816,
            "durationTicks": 505,
            "midi": 77,
            "name": "F5",
            "ticks": 193440,
            "time": 217.83762000000002,
            "velocity": 0.6299212598425197
          },
          {
            "duration": 2.1092321250000055,
            "durationTicks": 1873,
            "midi": 82,
            "name": "A#5",
            "ticks": 193920,
            "time": 218.37816,
            "velocity": 0.6299212598425197
          },
          {
            "duration": 0.11824312500002065,
            "durationTicks": 105,
            "midi": 74,
            "name": "D5",
            "ticks": 202094,
            "time": 227.58310575,
            "velocity": 0.7874015748031497
          },
          {
            "duration": 0.11824312500002065,
            "durationTicks": 105,
            "midi": 75,
            "name": "D#5",
            "ticks": 202148,
            "time": 227.6439165,
            "velocity": 0.8818897637795275
          },
          {
            "duration": 0.09797287500001062,
            "durationTicks": 87,
            "midi": 77,
            "name": "F5",
            "ticks": 202223,
            "time": 227.728375875,
            "velocity": 0.8818897637795275
          },
          {
            "duration": 0.09909899999999539,
            "durationTicks": 88,
            "midi": 79,
            "name": "G5",
            "ticks": 202286,
            "time": 227.79932175000002,
            "velocity": 0.8818897637795275
          },
          {
            "duration": 0.09909899999999539,
            "durationTicks": 88,
            "midi": 81,
            "name": "A5",
            "ticks": 202352,
            "time": 227.873646,
            "velocity": 0.8818897637795275
          },
          {
            "duration": 0.10472962499997607,
            "durationTicks": 93,
            "midi": 82,
            "name": "A#5",
            "ticks": 202432,
            "time": 227.963736,
            "velocity": 0.8818897637795275
          },
          {
            "duration": 0.11711700000000747,
            "durationTicks": 104,
            "midi": 84,
            "name": "C6",
            "ticks": 202496,
            "time": 228.035808,
            "velocity": 0.8818897637795275
          },
          {
            "duration": 0.10698187500000245,
            "durationTicks": 95,
            "midi": 86,
            "name": "D6",
            "ticks": 202573,
            "time": 228.12251962500002,
            "velocity": 0.984251968503937
          }
        ]
      },
      {
        "channel": 0,
        "controlChanges": {
          "0": [
            {
              "number": 0,
              "ticks": 810,
              "time": 0.91216125,
              "value": 0
            },
            {
              "number": 0,
              "ticks": 830,
              "time": 0.93468375,
              "value": 0
            }
          ],
          "32": [
            {
              "number": 32,
              "ticks": 820,
              "time": 0.9234225,
              "value": 0
            },
            {
              "number": 32,
              "ticks": 830,
              "time": 0.93468375,
              "value": 0
            }
          ]
        },
        "pitchBends": [],
        "instrument": {
          "family": "piano",
          "number": 0,
          "name": "acoustic grand piano"
        },
        "name": "",
        "notes": []
      },
      {
        "channel": 11,
        "controlChanges": {
          "0": [
            {
              "number": 0,
              "ticks": 83390,
              "time": 93.90756375,
              "value": 0
            },
            {
              "number": 0,
              "ticks": 173630,
              "time": 195.52908375,
              "value": 0
            },
            {
              "number": 0,
              "ticks": 182610,
              "time": 205.64168625000002,
              "value": 0
            },
            {
              "number": 0,
              "ticks": 196670,
              "time": 221.47500375,
              "value": 0
            }
          ],
          "1": [
            {
              "number": 1,
              "ticks": 33860,
              "time": 38.130592500000006,
              "value": 0
            },
            {
              "number": 1,
              "ticks": 33875,
              "time": 38.147484375000005,
              "value": 0.007874015748031496
            },
            {
              "number": 1,
              "ticks": 33890,
              "time": 38.164376250000004,
              "value": 0.023622047244094488
            },
            {
              "number": 1,
              "ticks": 33905,
              "time": 38.181268125,
              "value": 0.03937007874015748
            },
            {
              "number": 1,
              "ticks": 33920,
              "time": 38.19816,
              "value": 0.047244094488188976
            },
            {
              "number": 1,
              "ticks": 33935,
              "time": 38.21505187500001,
              "value": 0.06299212598425197
            },
            {
              "number": 1,
              "ticks": 33950,
              "time": 38.231943750000006,
              "value": 0.07874015748031496
            },
            {
              "number": 1,
              "ticks": 33965,
              "time": 38.248835625000005,
              "value": 0.08661417322834646
            },
            {
              "number": 1,
              "ticks": 33980,
              "time": 38.265727500000004,
              "value": 0.10236220472440945
            },
            {
              "number": 1,
              "ticks": 33995,
              "time": 38.282619375,
              "value": 0.11811023622047244
            },
            {
              "number": 1,
              "ticks": 34010,
              "time": 38.29951125,
              "value": 0.13385826771653545
            },
            {
              "number": 1,
              "ticks": 34025,
              "time": 38.316403125,
              "value": 0.14173228346456693
            },
            {
              "number": 1,
              "ticks": 34040,
              "time": 38.33329500000001,
              "value": 0.15748031496062992
            },
            {
              "number": 1,
              "ticks": 34055,
              "time": 38.350186875000006,
              "value": 0.1732283464566929
            },
            {
              "number": 1,
              "ticks": 34070,
              "time": 38.367078750000005,
              "value": 0.18110236220472442
            },
            {
              "number": 1,
              "ticks": 34085,
              "time": 38.383970625,
              "value": 0.1968503937007874
            },
            {
              "number": 1,
              "ticks": 34100,
              "time": 38.4008625,
              "value": 0.2125984251968504
            },
            {
              "number": 1,
              "ticks": 34115,
              "time": 38.417754375,
              "value": 0.2283464566929134
            },
            {
              "number": 1,
              "ticks": 34130,
              "time": 38.43464625000001,
              "value": 0.23622047244094488
            },
            {
              "number": 1,
              "ticks": 34145,
              "time": 38.451538125000006,
              "value": 0.25196850393700787
            },
            {
              "number": 1,
              "ticks": 34160,
              "time": 38.468430000000005,
              "value": 0.2677165354330709
            },
            {
              "number": 1,
              "ticks": 34175,
              "time": 38.485321875000004,
              "value": 0.2755905511811024
            },
            {
              "number": 1,
              "ticks": 34190,
              "time": 38.50221375,
              "value": 0.29133858267716534
            },
            {
              "number": 1,
              "ticks": 34205,
              "time": 38.519105625,
              "value": 0.30708661417322836
            },
            {
              "number": 1,
              "ticks": 34220,
              "time": 38.5359975,
              "value": 0.3228346456692913
            },
            {
              "number": 1,
              "ticks": 34235,
              "time": 38.55288937500001,
              "value": 0.33070866141732286
            },
            {
              "number": 1,
              "ticks": 34250,
              "time": 38.569781250000005,
              "value": 0.3464566929133858
            },
            {
              "number": 1,
              "ticks": 34265,
              "time": 38.586673125000004,
              "value": 0.36220472440944884
            },
            {
              "number": 1,
              "ticks": 34280,
              "time": 38.603565,
              "value": 0.3700787401574803
            },
            {
              "number": 1,
              "ticks": 34295,
              "time": 38.620456875,
              "value": 0.3858267716535433
            },
            {
              "number": 1,
              "ticks": 34299,
              "time": 38.624961375,
              "value": 0.3937007874015748
            },
            {
              "number": 1,
              "ticks": 35325,
              "time": 39.780365625,
              "value": 0
            },
            {
              "number": 1,
              "ticks": 124100,
              "time": 139.7521125,
              "value": 0
            },
            {
              "number": 1,
              "ticks": 124115,
              "time": 139.769004375,
              "value": 0.007874015748031496
            },
            {
              "number": 1,
              "ticks": 124130,
              "time": 139.78589625,
              "value": 0.023622047244094488
            },
            {
              "number": 1,
              "ticks": 124145,
              "time": 139.802788125,
              "value": 0.03937007874015748
            },
            {
              "number": 1,
              "ticks": 124160,
              "time": 139.81968,
              "value": 0.047244094488188976
            },
            {
              "number": 1,
              "ticks": 124175,
              "time": 139.836571875,
              "value": 0.06299212598425197
            },
            {
              "number": 1,
              "ticks": 124190,
              "time": 139.85346375,
              "value": 0.07874015748031496
            },
            {
              "number": 1,
              "ticks": 124205,
              "time": 139.870355625,
              "value": 0.08661417322834646
            },
            {
              "number": 1,
              "ticks": 124220,
              "time": 139.88724750000003,
              "value": 0.10236220472440945
            },
            {
              "number": 1,
              "ticks": 124235,
              "time": 139.90413937500003,
              "value": 0.11811023622047244
            },
            {
              "number": 1,
              "ticks": 124250,
              "time": 139.92103125000003,
              "value": 0.13385826771653545
            },
            {
              "number": 1,
              "ticks": 124265,
              "time": 139.93792312500003,
              "value": 0.14173228346456693
            },
            {
              "number": 1,
              "ticks": 124280,
              "time": 139.95481500000002,
              "value": 0.15748031496062992
            },
            {
              "number": 1,
              "ticks": 124295,
              "time": 139.97170687500002,
              "value": 0.1732283464566929
            },
            {
              "number": 1,
              "ticks": 124310,
              "time": 139.98859875000002,
              "value": 0.18110236220472442
            },
            {
              "number": 1,
              "ticks": 124325,
              "time": 140.00549062500002,
              "value": 0.1968503937007874
            },
            {
              "number": 1,
              "ticks": 124340,
              "time": 140.02238250000002,
              "value": 0.2125984251968504
            },
            {
              "number": 1,
              "ticks": 124355,
              "time": 140.03927437500002,
              "value": 0.2283464566929134
            },
            {
              "number": 1,
              "ticks": 124370,
              "time": 140.05616625000002,
              "value": 0.23622047244094488
            },
            {
              "number": 1,
              "ticks": 124385,
              "time": 140.07305812500002,
              "value": 0.25196850393700787
            },
            {
              "number": 1,
              "ticks": 124400,
              "time": 140.08995000000002,
              "value": 0.2677165354330709
            },
            {
              "number": 1,
              "ticks": 124415,
              "time": 140.10684187500001,
              "value": 0.2755905511811024
            },
            {
              "number": 1,
              "ticks": 124430,
              "time": 140.12373375,
              "value": 0.29133858267716534
            },
            {
              "number": 1,
              "ticks": 124445,
              "time": 140.140625625,
              "value": 0.30708661417322836
            },
            {
              "number": 1,
              "ticks": 124460,
              "time": 140.1575175,
              "value": 0.3228346456692913
            },
            {
              "number": 1,
              "ticks": 124475,
              "time": 140.174409375,
              "value": 0.33070866141732286
            },
            {
              "number": 1,
              "ticks": 124490,
              "time": 140.19130125,
              "value": 0.3464566929133858
            },
            {
              "number": 1,
              "ticks": 124505,
              "time": 140.208193125,
              "value": 0.36220472440944884
            },
            {
              "number": 1,
              "ticks": 124520,
              "time": 140.225085,
              "value": 0.3700787401574803
            },
            {
              "number": 1,
              "ticks": 124535,
              "time": 140.241976875,
              "value": 0.3858267716535433
            },
            {
              "number": 1,
              "ticks": 124539,
              "time": 140.246481375,
              "value": 0.3937007874015748
            },
            {
              "number": 1,
              "ticks": 125565,
              "time": 141.401885625,
              "value": 0
            }
          ],
          "6": [
            {
              "number": 6,
              "ticks": 880,
              "time": 0.99099,
              "value": 0.015748031496062992
            }
          ],
          "7": [
            {
              "number": 7,
              "ticks": 840,
              "time": 0.945945,
              "value": 0.5118110236220472
            },
            {
              "number": 7,
              "ticks": 89740,
              "time": 101.0584575,
              "value": 0.5118110236220472
            },
            {
              "number": 7,
              "ticks": 179980,
              "time": 202.6799775,
              "value": 0.5118110236220472
            },
            {
              "number": 7,
              "ticks": 182620,
              "time": 205.6529475,
              "value": 0.5118110236220472
            },
            {
              "number": 7,
              "ticks": 203020,
              "time": 228.6258975,
              "value": 0.5118110236220472
            }
          ],
          "10": [
            {
              "number": 10,
              "ticks": 840,
              "time": 0.945945,
              "value": 0.8188976377952756
            },
            {
              "number": 10,
              "ticks": 89740,
              "time": 101.0584575,
              "value": 0.8188976377952756
            },
            {
              "number": 10,
              "ticks": 179980,
              "time": 202.6799775,
              "value": 0.8188976377952756
            },
            {
              "number": 10,
              "ticks": 182620,
              "time": 205.6529475,
              "value": 0.8188976377952756
            },
            {
              "number": 10,
              "ticks": 203020,
              "time": 228.6258975,
              "value": 0.8188976377952756
            }
          ],
          "11": [
            {
              "number": 11,
              "ticks": 33860,
              "time": 38.130592500000006,
              "value": 1
            },
            {
              "number": 11,
              "ticks": 33887,
              "time": 38.160997875,
              "value": 0.9921259842519685
            },
            {
              "number": 11,
              "ticks": 33914,
              "time": 38.19140325,
              "value": 0.984251968503937
            },
            {
              "number": 11,
              "ticks": 33942,
              "time": 38.22293475000001,
              "value": 0.9763779527559056
            },
            {
              "number": 11,
              "ticks": 33969,
              "time": 38.253340125,
              "value": 0.968503937007874
            },
            {
              "number": 11,
              "ticks": 33996,
              "time": 38.2837455,
              "value": 0.9606299212598425
            },
            {
              "number": 11,
              "ticks": 34024,
              "time": 38.315277,
              "value": 0.952755905511811
            },
            {
              "number": 11,
              "ticks": 34051,
              "time": 38.345682375,
              "value": 0.9448818897637795
            },
            {
              "number": 11,
              "ticks": 34078,
              "time": 38.37608775,
              "value": 0.937007874015748
            },
            {
              "number": 11,
              "ticks": 34106,
              "time": 38.407619249999996,
              "value": 0.9291338582677166
            },
            {
              "number": 11,
              "ticks": 34133,
              "time": 38.438024625000004,
              "value": 0.9212598425196851
            },
            {
              "number": 11,
              "ticks": 34161,
              "time": 38.469556125000004,
              "value": 0.9133858267716536
            },
            {
              "number": 11,
              "ticks": 34188,
              "time": 38.4999615,
              "value": 0.905511811023622
            },
            {
              "number": 11,
              "ticks": 34215,
              "time": 38.530366875,
              "value": 0.8976377952755905
            },
            {
              "number": 11,
              "ticks": 34243,
              "time": 38.561898375000006,
              "value": 0.889763779527559
            },
            {
              "number": 11,
              "ticks": 34270,
              "time": 38.59230375,
              "value": 0.8818897637795275
            },
            {
              "number": 11,
              "ticks": 34297,
              "time": 38.622709125,
              "value": 0.8740157480314961
            },
            {
              "number": 11,
              "ticks": 34325,
              "time": 38.65424062500001,
              "value": 0.8661417322834646
            },
            {
              "number": 11,
              "ticks": 34352,
              "time": 38.684646,
              "value": 0.8582677165354331
            },
            {
              "number": 11,
              "ticks": 34380,
              "time": 38.7161775,
              "value": 0.8503937007874016
            },
            {
              "number": 11,
              "ticks": 34407,
              "time": 38.746582875,
              "value": 0.84251968503937
            },
            {
              "number": 11,
              "ticks": 34434,
              "time": 38.77698825,
              "value": 0.8346456692913385
            },
            {
              "number": 11,
              "ticks": 34462,
              "time": 38.80851975,
              "value": 0.8267716535433071
            },
            {
              "number": 11,
              "ticks": 34489,
              "time": 38.838925125,
              "value": 0.8188976377952756
            },
            {
              "number": 11,
              "ticks": 34516,
              "time": 38.869330500000004,
              "value": 0.8110236220472441
            },
            {
              "number": 11,
              "ticks": 34544,
              "time": 38.900862000000004,
              "value": 0.8031496062992126
            },
            {
              "number": 11,
              "ticks": 34571,
              "time": 38.931267375,
              "value": 0.7952755905511811
            },
            {
              "number": 11,
              "ticks": 34599,
              "time": 38.962798875,
              "value": 0.7874015748031497
            },
            {
              "number": 11,
              "ticks": 35356,
              "time": 39.8152755,
              "value": 1
            },
            {
              "number": 11,
              "ticks": 124100,
              "time": 139.7521125,
              "value": 1
            },
            {
              "number": 11,
              "ticks": 124127,
              "time": 139.782517875,
              "value": 0.9921259842519685
            },
            {
              "number": 11,
              "ticks": 124154,
              "time": 139.81292324999998,
              "value": 0.984251968503937
            },
            {
              "number": 11,
              "ticks": 124182,
              "time": 139.84445474999998,
              "value": 0.9763779527559056
            },
            {
              "number": 11,
              "ticks": 124209,
              "time": 139.874860125,
              "value": 0.968503937007874
            },
            {
              "number": 11,
              "ticks": 124236,
              "time": 139.9052655,
              "value": 0.9606299212598425
            },
            {
              "number": 11,
              "ticks": 124264,
              "time": 139.936797,
              "value": 0.952755905511811
            },
            {
              "number": 11,
              "ticks": 124291,
              "time": 139.96720237500003,
              "value": 0.9448818897637795
            },
            {
              "number": 11,
              "ticks": 124318,
              "time": 139.99760775000001,
              "value": 0.937007874015748
            },
            {
              "number": 11,
              "ticks": 124346,
              "time": 140.02913925000001,
              "value": 0.9291338582677166
            },
            {
              "number": 11,
              "ticks": 124373,
              "time": 140.059544625,
              "value": 0.9212598425196851
            },
            {
              "number": 11,
              "ticks": 124401,
              "time": 140.091076125,
              "value": 0.9133858267716536
            },
            {
              "number": 11,
              "ticks": 124428,
              "time": 140.12148150000002,
              "value": 0.905511811023622
            },
            {
              "number": 11,
              "ticks": 124455,
              "time": 140.151886875,
              "value": 0.8976377952755905
            },
            {
              "number": 11,
              "ticks": 124483,
              "time": 140.183418375,
              "value": 0.889763779527559
            },
            {
              "number": 11,
              "ticks": 124510,
              "time": 140.21382375,
              "value": 0.8818897637795275
            },
            {
              "number": 11,
              "ticks": 124537,
              "time": 140.244229125,
              "value": 0.8740157480314961
            },
            {
              "number": 11,
              "ticks": 124565,
              "time": 140.275760625,
              "value": 0.8661417322834646
            },
            {
              "number": 11,
              "ticks": 124592,
              "time": 140.306166,
              "value": 0.8582677165354331
            },
            {
              "number": 11,
              "ticks": 124620,
              "time": 140.33769750000002,
              "value": 0.8503937007874016
            },
            {
              "number": 11,
              "ticks": 124647,
              "time": 140.368102875,
              "value": 0.84251968503937
            },
            {
              "number": 11,
              "ticks": 124674,
              "time": 140.39850825000002,
              "value": 0.8346456692913385
            },
            {
              "number": 11,
              "ticks": 124702,
              "time": 140.43003975000002,
              "value": 0.8267716535433071
            },
            {
              "number": 11,
              "ticks": 124729,
              "time": 140.460445125,
              "value": 0.8188976377952756
            },
            {
              "number": 11,
              "ticks": 124756,
              "time": 140.49085050000002,
              "value": 0.8110236220472441
            },
            {
              "number": 11,
              "ticks": 124784,
              "time": 140.522382,
              "value": 0.8031496062992126
            },
            {
              "number": 11,
              "ticks": 124811,
              "time": 140.552787375,
              "value": 0.7952755905511811
            },
            {
              "number": 11,
              "ticks": 124839,
              "time": 140.584318875,
              "value": 0.7874015748031497
            },
            {
              "number": 11,
              "ticks": 125596,
              "time": 141.43679550000002,
              "value": 1
            }
          ],
          "32": [
            {
              "number": 32,
              "ticks": 83390,
              "time": 93.90756375,
              "value": 0
            },
            {
              "number": 32,
              "ticks": 173630,
              "time": 195.52908375,
              "value": 0
            },
            {
              "number": 32,
              "ticks": 182610,
              "time": 205.64168625000002,
              "value": 0
            },
            {
              "number": 32,
              "ticks": 196670,
              "time": 221.47500375,
              "value": 0
            }
          ],
          "38": [
            {
              "number": 38,
              "ticks": 870,
              "time": 0.97972875,
              "value": 0.015748031496062992
            }
          ],
          "91": [
            {
              "number": 91,
              "ticks": 840,
              "time": 0.945945,
              "value": 0
            },
            {
              "number": 91,
              "ticks": 89740,
              "time": 101.0584575,
              "value": 0
            },
            {
              "number": 91,
              "ticks": 179980,
              "time": 202.6799775,
              "value": 0
            },
            {
              "number": 91,
              "ticks": 182620,
              "time": 205.6529475,
              "value": 0
            },
            {
              "number": 91,
              "ticks": 203020,
              "time": 228.6258975,
              "value": 0
            }
          ],
          "93": [
            {
              "number": 93,
              "ticks": 840,
              "time": 0.945945,
              "value": 0.03937007874015748
            },
            {
              "number": 93,
              "ticks": 89740,
              "time": 101.0584575,
              "value": 0.03937007874015748
            },
            {
              "number": 93,
              "ticks": 179980,
              "time": 202.6799775,
              "value": 0.03937007874015748
            },
            {
              "number": 93,
              "ticks": 182620,
              "time": 205.6529475,
              "value": 0.03937007874015748
            },
            {
              "number": 93,
              "ticks": 203020,
              "time": 228.6258975,
              "value": 0.03937007874015748
            }
          ],
          "100": [
            {
              "number": 100,
              "ticks": 860,
              "time": 0.9684675,
              "value": 0
            }
          ],
          "101": [
            {
              "number": 101,
              "ticks": 850,
              "time": 0.95720625,
              "value": 0
            }
          ]
        },
        "pitchBends": [],
        "instrument": {
          "family": "ensemble",
          "number": 53,
          "name": "voice oohs"
        },
        "name": "",
        "notes": [
          {
            "duration": 0.5123868750000042,
            "durationTicks": 455,
            "midi": 58,
            "name": "A#3",
            "ticks": 32880,
            "time": 37.02699,
            "velocity": 0.6299212598425197
          },
          {
            "duration": 0.5123868750000042,
            "durationTicks": 455,
            "midi": 70,
            "name": "A#4",
            "ticks": 32880,
            "time": 37.02699,
            "velocity": 0.7874015748031497
          },
          {
            "duration": 0.2691438749999975,
            "durationTicks": 239,
            "midi": 58,
            "name": "A#3",
            "ticks": 33360,
            "time": 37.567530000000005,
            "velocity": 0.6299212598425197
          },
          {
            "duration": 0.2691438749999975,
            "durationTicks": 239,
            "midi": 72,
            "name": "C5",
            "ticks": 33360,
            "time": 37.567530000000005,
            "velocity": 0.7874015748031497
          },
          {
            "duration": 1.1655393750000016,
            "durationTicks": 1035,
            "midi": 58,
            "name": "A#3",
            "ticks": 33600,
            "time": 37.8378,
            "velocity": 0.6299212598425197
          },
          {
            "duration": 1.1655393750000016,
            "durationTicks": 1035,
            "midi": 69,
            "name": "A4",
            "ticks": 33600,
            "time": 37.8378,
            "velocity": 0.7874015748031497
          },
          {
            "duration": 0.534909374999998,
            "durationTicks": 475,
            "midi": 62,
            "name": "D4",
            "ticks": 40785,
            "time": 45.929008125,
            "velocity": 0.6299212598425197
          },
          {
            "duration": 0.47297249999999735,
            "durationTicks": 420,
            "midi": 72,
            "name": "C5",
            "ticks": 40785,
            "time": 45.929008125,
            "velocity": 0.7874015748031497
          },
          {
            "duration": 0.06418912499999863,
            "durationTicks": 57,
            "midi": 71,
            "name": "B4",
            "ticks": 41181,
            "time": 46.374953625,
            "velocity": 0.5275590551181102
          },
          {
            "duration": 0.057432375000004754,
            "durationTicks": 51,
            "midi": 70,
            "name": "A#4",
            "ticks": 41229,
            "time": 46.429007625,
            "velocity": 0.5354330708661418
          },
          {
            "duration": 0.5855849999999947,
            "durationTicks": 520,
            "midi": 58,
            "name": "A#3",
            "ticks": 41280,
            "time": 46.48644,
            "velocity": 0.6299212598425197
          },
          {
            "duration": 0.6047291250000058,
            "durationTicks": 537,
            "midi": 69,
            "name": "A4",
            "ticks": 41283,
            "time": 46.489818375,
            "velocity": 0.7874015748031497
          },
          {
            "duration": 0.6047291250000058,
            "durationTicks": 537,
            "midi": 68,
            "name": "G#4",
            "ticks": 41763,
            "time": 47.030358375,
            "velocity": 0.5039370078740157
          },
          {
            "duration": 2.1362591250000023,
            "durationTicks": 1897,
            "midi": 67,
            "name": "G4",
            "ticks": 42243,
            "time": 47.570898375,
            "velocity": 0.3937007874015748
          },
          {
            "duration": 0.10247737500000653,
            "durationTicks": 91,
            "midi": 62,
            "name": "D4",
            "ticks": 69360,
            "time": 78.10803,
            "velocity": 0.6299212598425197
          },
          {
            "duration": 0.07995487500001275,
            "durationTicks": 71,
            "midi": 74,
            "name": "D5",
            "ticks": 69360,
            "time": 78.10803,
            "velocity": 0.7874015748031497
          },
          {
            "duration": 0.07770262500001479,
            "durationTicks": 69,
            "midi": 62,
            "name": "D4",
            "ticks": 69600,
            "time": 78.3783,
            "velocity": 0.6299212598425197
          },
          {
            "duration": 0.07545037500000262,
            "durationTicks": 67,
            "midi": 74,
            "name": "D5",
            "ticks": 69600,
            "time": 78.3783,
            "velocity": 0.7874015748031497
          },
          {
            "duration": 0.1317566250000084,
            "durationTicks": 117,
            "midi": 62,
            "name": "D4",
            "ticks": 69720,
            "time": 78.513435,
            "velocity": 0.6299212598425197
          },
          {
            "duration": 0.1103602500000136,
            "durationTicks": 98,
            "midi": 74,
            "name": "D5",
            "ticks": 69720,
            "time": 78.513435,
            "velocity": 0.7874015748031497
          },
          {
            "duration": 1.1599087500000138,
            "durationTicks": 1030,
            "midi": 62,
            "name": "D4",
            "ticks": 69960,
            "time": 78.783705,
            "velocity": 0.6299212598425197
          },
          {
            "duration": 1.1542781250000047,
            "durationTicks": 1025,
            "midi": 74,
            "name": "D5",
            "ticks": 69960,
            "time": 78.783705,
            "velocity": 0.7874015748031497
          },
          {
            "duration": 0.11486475000000951,
            "durationTicks": 102,
            "midi": 58,
            "name": "A#3",
            "ticks": 71280,
            "time": 80.27019,
            "velocity": 0.6299212598425197
          },
          {
            "duration": 0.11599087500000849,
            "durationTicks": 103,
            "midi": 68,
            "name": "G#4",
            "ticks": 71280,
            "time": 80.27019,
            "velocity": 0.7874015748031497
          },
          {
            "duration": 0.06531525000001182,
            "durationTicks": 58,
            "midi": 58,
            "name": "A#3",
            "ticks": 71520,
            "time": 80.54046,
            "velocity": 0.6299212598425197
          },
          {
            "duration": 0.06306300000001386,
            "durationTicks": 56,
            "midi": 68,
            "name": "G#4",
            "ticks": 71520,
            "time": 80.54046,
            "velocity": 0.7874015748031497
          },
          {
            "duration": 0.11711700000000747,
            "durationTicks": 104,
            "midi": 58,
            "name": "A#3",
            "ticks": 71640,
            "time": 80.675595,
            "velocity": 0.6299212598425197
          },
          {
            "duration": 0.11486475000000951,
            "durationTicks": 102,
            "midi": 68,
            "name": "G#4",
            "ticks": 71640,
            "time": 80.675595,
            "velocity": 0.7874015748031497
          },
          {
            "duration": 1.1644132500000097,
            "durationTicks": 1034,
            "midi": 58,
            "name": "A#3",
            "ticks": 71880,
            "time": 80.945865,
            "velocity": 0.6299212598425197
          },
          {
            "duration": 1.1745483750000147,
            "durationTicks": 1043,
            "midi": 68,
            "name": "G#4",
            "ticks": 71880,
            "time": 80.945865,
            "velocity": 0.7874015748031497
          },
          {
            "duration": 0.1587836249999981,
            "durationTicks": 141,
            "midi": 74,
            "name": "D5",
            "ticks": 78000,
            "time": 87.83775,
            "velocity": 0.7874015748031497
          },
          {
            "duration": 0.10247737499999232,
            "durationTicks": 91,
            "midi": 72,
            "name": "C5",
            "ticks": 78240,
            "time": 88.10802000000001,
            "velocity": 0.7874015748031497
          },
          {
            "duration": 0.13963950000000125,
            "durationTicks": 124,
            "midi": 70,
            "name": "A#4",
            "ticks": 78360,
            "time": 88.243155,
            "velocity": 0.7874015748031497
          },
          {
            "duration": 0.31531500000001245,
            "durationTicks": 280,
            "midi": 67,
            "name": "G4",
            "ticks": 78600,
            "time": 88.513425,
            "velocity": 0.7874015748031497
          },
          {
            "duration": 0.1700448750000021,
            "durationTicks": 151,
            "midi": 74,
            "name": "D5",
            "ticks": 79920,
            "time": 89.99991,
            "velocity": 0.7874015748031497
          },
          {
            "duration": 0.1148647499999953,
            "durationTicks": 102,
            "midi": 72,
            "name": "C5",
            "ticks": 80160,
            "time": 90.27018000000001,
            "velocity": 0.7874015748031497
          },
          {
            "duration": 0.1373872500000033,
            "durationTicks": 122,
            "midi": 74,
            "name": "D5",
            "ticks": 80280,
            "time": 90.405315,
            "velocity": 0.7874015748031497
          },
          {
            "duration": 0.32094562500000734,
            "durationTicks": 285,
            "midi": 70,
            "name": "A#4",
            "ticks": 80520,
            "time": 90.675585,
            "velocity": 0.7874015748031497
          },
          {
            "duration": 0.1914412499999827,
            "durationTicks": 170,
            "midi": 67,
            "name": "G4",
            "ticks": 89760,
            "time": 101.08098000000001,
            "velocity": 0.7874015748031497
          },
          {
            "duration": 0.21058537499997954,
            "durationTicks": 187,
            "midi": 70,
            "name": "A#4",
            "ticks": 89760,
            "time": 101.08098000000001,
            "velocity": 0.7874015748031497
          },
          {
            "duration": 0.11261249999999734,
            "durationTicks": 100,
            "midi": 65,
            "name": "F4",
            "ticks": 90000,
            "time": 101.35125000000001,
            "velocity": 0.7874015748031497
          },
          {
            "duration": 0.12162149999998917,
            "durationTicks": 108,
            "midi": 69,
            "name": "A4",
            "ticks": 90000,
            "time": 101.35125000000001,
            "velocity": 0.7874015748031497
          },
          {
            "duration": 1.1948186250000106,
            "durationTicks": 1061,
            "midi": 67,
            "name": "G4",
            "ticks": 90120,
            "time": 101.486385,
            "velocity": 0.7874015748031497
          },
          {
            "duration": 0.5123868750000042,
            "durationTicks": 455,
            "midi": 58,
            "name": "A#3",
            "ticks": 123120,
            "time": 138.64851000000002,
            "velocity": 0.6299212598425197
          },
          {
            "duration": 0.5123868750000042,
            "durationTicks": 455,
            "midi": 70,
            "name": "A#4",
            "ticks": 123120,
            "time": 138.64851000000002,
            "velocity": 0.7874015748031497
          },
          {
            "duration": 0.26914387499996906,
            "durationTicks": 239,
            "midi": 58,
            "name": "A#3",
            "ticks": 123600,
            "time": 139.18905,
            "velocity": 0.6299212598425197
          },
          {
            "duration": 0.26914387499996906,
            "durationTicks": 239,
            "midi": 72,
            "name": "C5",
            "ticks": 123600,
            "time": 139.18905,
            "velocity": 0.7874015748031497
          },
          {
            "duration": 1.1655393750000087,
            "durationTicks": 1035,
            "midi": 58,
            "name": "A#3",
            "ticks": 123840,
            "time": 139.45932,
            "velocity": 0.6299212598425197
          },
          {
            "duration": 1.1655393750000087,
            "durationTicks": 1035,
            "midi": 69,
            "name": "A4",
            "ticks": 123840,
            "time": 139.45932,
            "velocity": 0.7874015748031497
          },
          {
            "duration": 0.5349093749999838,
            "durationTicks": 475,
            "midi": 62,
            "name": "D4",
            "ticks": 131025,
            "time": 147.550528125,
            "velocity": 0.6299212598425197
          },
          {
            "duration": 0.47297249999999735,
            "durationTicks": 420,
            "midi": 72,
            "name": "C5",
            "ticks": 131025,
            "time": 147.550528125,
            "velocity": 0.7874015748031497
          },
          {
            "duration": 0.06418912500001284,
            "durationTicks": 57,
            "midi": 71,
            "name": "B4",
            "ticks": 131421,
            "time": 147.996473625,
            "velocity": 0.5275590551181102
          },
          {
            "duration": 0.05743237499999054,
            "durationTicks": 51,
            "midi": 70,
            "name": "A#4",
            "ticks": 131469,
            "time": 148.050527625,
            "velocity": 0.5354330708661418
          },
          {
            "duration": 0.5855850000000089,
            "durationTicks": 520,
            "midi": 58,
            "name": "A#3",
            "ticks": 131520,
            "time": 148.10796,
            "velocity": 0.6299212598425197
          },
          {
            "duration": 0.6047291249999773,
            "durationTicks": 537,
            "midi": 69,
            "name": "A4",
            "ticks": 131523,
            "time": 148.11133837500003,
            "velocity": 0.7874015748031497
          },
          {
            "duration": 0.6047291249999773,
            "durationTicks": 537,
            "midi": 68,
            "name": "G#4",
            "ticks": 132003,
            "time": 148.65187837500002,
            "velocity": 0.5039370078740157
          },
          {
            "duration": 2.136259124999981,
            "durationTicks": 1897,
            "midi": 67,
            "name": "G4",
            "ticks": 132483,
            "time": 149.19241837500002,
            "velocity": 0.3937007874015748
          },
          {
            "duration": 0.10247737500000653,
            "durationTicks": 91,
            "midi": 62,
            "name": "D4",
            "ticks": 159600,
            "time": 179.72955000000002,
            "velocity": 0.6299212598425197
          },
          {
            "duration": 0.07995487499999854,
            "durationTicks": 71,
            "midi": 74,
            "name": "D5",
            "ticks": 159600,
            "time": 179.72955000000002,
            "velocity": 0.7874015748031497
          },
          {
            "duration": 0.07770262500000058,
            "durationTicks": 69,
            "midi": 62,
            "name": "D4",
            "ticks": 159840,
            "time": 179.99982,
            "velocity": 0.6299212598425197
          },
          {
            "duration": 0.07545037500000262,
            "durationTicks": 67,
            "midi": 74,
            "name": "D5",
            "ticks": 159840,
            "time": 179.99982,
            "velocity": 0.7874015748031497
          },
          {
            "duration": 0.13175662499997998,
            "durationTicks": 117,
            "midi": 62,
            "name": "D4",
            "ticks": 159960,
            "time": 180.13495500000002,
            "velocity": 0.6299212598425197
          },
          {
            "duration": 0.11036024999998517,
            "durationTicks": 98,
            "midi": 74,
            "name": "D5",
            "ticks": 159960,
            "time": 180.13495500000002,
            "velocity": 0.7874015748031497
          },
          {
            "duration": 1.1599087499999996,
            "durationTicks": 1030,
            "midi": 62,
            "name": "D4",
            "ticks": 160200,
            "time": 180.405225,
            "velocity": 0.6299212598425197
          },
          {
            "duration": 1.154278125000019,
            "durationTicks": 1025,
            "midi": 74,
            "name": "D5",
            "ticks": 160200,
            "time": 180.405225,
            "velocity": 0.7874015748031497
          },
          {
            "duration": 0.11486474999998109,
            "durationTicks": 102,
            "midi": 58,
            "name": "A#3",
            "ticks": 161520,
            "time": 181.89171000000002,
            "velocity": 0.6299212598425197
          },
          {
            "duration": 0.11599087499999428,
            "durationTicks": 103,
            "midi": 68,
            "name": "G#4",
            "ticks": 161520,
            "time": 181.89171000000002,
            "velocity": 0.7874015748031497
          },
          {
            "duration": 0.0653152499999976,
            "durationTicks": 58,
            "midi": 58,
            "name": "A#3",
            "ticks": 161760,
            "time": 182.16198,
            "velocity": 0.6299212598425197
          },
          {
            "duration": 0.06306299999999965,
            "durationTicks": 56,
            "midi": 68,
            "name": "G#4",
            "ticks": 161760,
            "time": 182.16198,
            "velocity": 0.7874015748031497
          },
          {
            "duration": 0.11711699999997904,
            "durationTicks": 104,
            "midi": 58,
            "name": "A#3",
            "ticks": 161880,
            "time": 182.29711500000002,
            "velocity": 0.6299212598425197
          },
          {
            "duration": 0.11486474999998109,
            "durationTicks": 102,
            "midi": 68,
            "name": "G#4",
            "ticks": 161880,
            "time": 182.29711500000002,
            "velocity": 0.7874015748031497
          },
          {
            "duration": 1.1644132499999955,
            "durationTicks": 1034,
            "midi": 58,
            "name": "A#3",
            "ticks": 162120,
            "time": 182.567385,
            "velocity": 0.6299212598425197
          },
          {
            "duration": 1.1745483750000005,
            "durationTicks": 1043,
            "midi": 68,
            "name": "G#4",
            "ticks": 162120,
            "time": 182.567385,
            "velocity": 0.7874015748031497
          },
          {
            "duration": 0.15878362499998389,
            "durationTicks": 141,
            "midi": 74,
            "name": "D5",
            "ticks": 168240,
            "time": 189.45927,
            "velocity": 0.7874015748031497
          },
          {
            "duration": 0.10247737500000653,
            "durationTicks": 91,
            "midi": 72,
            "name": "C5",
            "ticks": 168480,
            "time": 189.72954000000001,
            "velocity": 0.7874015748031497
          },
          {
            "duration": 0.13963949999998704,
            "durationTicks": 124,
            "midi": 70,
            "name": "A#4",
            "ticks": 168600,
            "time": 189.864675,
            "velocity": 0.7874015748031497
          },
          {
            "duration": 0.3153149999999698,
            "durationTicks": 280,
            "midi": 67,
            "name": "G4",
            "ticks": 168840,
            "time": 190.13494500000002,
            "velocity": 0.7874015748031497
          },
          {
            "duration": 0.17004487500003052,
            "durationTicks": 151,
            "midi": 74,
            "name": "D5",
            "ticks": 170160,
            "time": 191.62143,
            "velocity": 0.7874015748031497
          },
          {
            "duration": 0.11486474999998109,
            "durationTicks": 102,
            "midi": 72,
            "name": "C5",
            "ticks": 170400,
            "time": 191.89170000000001,
            "velocity": 0.7874015748031497
          },
          {
            "duration": 0.13738724999998908,
            "durationTicks": 122,
            "midi": 74,
            "name": "D5",
            "ticks": 170520,
            "time": 192.026835,
            "velocity": 0.7874015748031497
          },
          {
            "duration": 0.3209456249999789,
            "durationTicks": 285,
            "midi": 70,
            "name": "A#4",
            "ticks": 170760,
            "time": 192.29710500000002,
            "velocity": 0.7874015748031497
          },
          {
            "duration": 0.1914412499999969,
            "durationTicks": 170,
            "midi": 67,
            "name": "G4",
            "ticks": 180000,
            "time": 202.70250000000001,
            "velocity": 0.7874015748031497
          },
          {
            "duration": 0.21058537499999375,
            "durationTicks": 187,
            "midi": 70,
            "name": "A#4",
            "ticks": 180000,
            "time": 202.70250000000001,
            "velocity": 0.7874015748031497
          },
          {
            "duration": 0.11261250000001155,
            "durationTicks": 100,
            "midi": 65,
            "name": "F4",
            "ticks": 180240,
            "time": 202.97277,
            "velocity": 0.7874015748031497
          },
          {
            "duration": 0.1216215000000318,
            "durationTicks": 108,
            "midi": 69,
            "name": "A4",
            "ticks": 180240,
            "time": 202.97277,
            "velocity": 0.7874015748031497
          },
          {
            "duration": 1.0585574999999778,
            "durationTicks": 940,
            "midi": 67,
            "name": "G4",
            "ticks": 180360,
            "time": 203.10790500000002,
            "velocity": 0.7874015748031497
          },
          {
            "duration": 0.10247737500000653,
            "durationTicks": 91,
            "midi": 62,
            "name": "D4",
            "ticks": 182640,
            "time": 205.67547000000002,
            "velocity": 0.6299212598425197
          },
          {
            "duration": 0.10247737500000653,
            "durationTicks": 91,
            "midi": 74,
            "name": "D5",
            "ticks": 182640,
            "time": 205.67547000000002,
            "velocity": 0.7874015748031497
          },
          {
            "duration": 0.07770262500000058,
            "durationTicks": 69,
            "midi": 62,
            "name": "D4",
            "ticks": 182880,
            "time": 205.94574,
            "velocity": 0.6299212598425197
          },
          {
            "duration": 0.07770262500000058,
            "durationTicks": 69,
            "midi": 74,
            "name": "D5",
            "ticks": 182880,
            "time": 205.94574,
            "velocity": 0.7874015748031497
          },
          {
            "duration": 0.13175662499997998,
            "durationTicks": 117,
            "midi": 62,
            "name": "D4",
            "ticks": 183000,
            "time": 206.08087500000002,
            "velocity": 0.6299212598425197
          },
          {
            "duration": 0.13175662499997998,
            "durationTicks": 117,
            "midi": 72,
            "name": "C5",
            "ticks": 183000,
            "time": 206.08087500000002,
            "velocity": 0.7874015748031497
          },
          {
            "duration": 1.1599087499999996,
            "durationTicks": 1030,
            "midi": 62,
            "name": "D4",
            "ticks": 183240,
            "time": 206.351145,
            "velocity": 0.6299212598425197
          },
          {
            "duration": 1.154278125000019,
            "durationTicks": 1025,
            "midi": 70,
            "name": "A#4",
            "ticks": 183240,
            "time": 206.351145,
            "velocity": 0.7874015748031497
          },
          {
            "duration": 0.11486474999998109,
            "durationTicks": 102,
            "midi": 58,
            "name": "A#3",
            "ticks": 184560,
            "time": 207.83763000000002,
            "velocity": 0.6299212598425197
          },
          {
            "duration": 0.11599087499999428,
            "durationTicks": 103,
            "midi": 68,
            "name": "G#4",
            "ticks": 184560,
            "time": 207.83763000000002,
            "velocity": 0.7874015748031497
          },
          {
            "duration": 0.0653152499999976,
            "durationTicks": 58,
            "midi": 58,
            "name": "A#3",
            "ticks": 184800,
            "time": 208.1079,
            "velocity": 0.6299212598425197
          },
          {
            "duration": 0.06306299999999965,
            "durationTicks": 56,
            "midi": 68,
            "name": "G#4",
            "ticks": 184800,
            "time": 208.1079,
            "velocity": 0.7874015748031497
          },
          {
            "duration": 0.11711699999997904,
            "durationTicks": 104,
            "midi": 58,
            "name": "A#3",
            "ticks": 184920,
            "time": 208.24303500000002,
            "velocity": 0.6299212598425197
          },
          {
            "duration": 0.11486474999998109,
            "durationTicks": 102,
            "midi": 68,
            "name": "G#4",
            "ticks": 184920,
            "time": 208.24303500000002,
            "velocity": 0.7874015748031497
          },
          {
            "duration": 1.1644132499999955,
            "durationTicks": 1034,
            "midi": 58,
            "name": "A#3",
            "ticks": 185160,
            "time": 208.513305,
            "velocity": 0.6299212598425197
          },
          {
            "duration": 1.1745483750000005,
            "durationTicks": 1043,
            "midi": 68,
            "name": "G#4",
            "ticks": 185160,
            "time": 208.513305,
            "velocity": 0.7874015748031497
          },
          {
            "duration": 0.15878362499998389,
            "durationTicks": 141,
            "midi": 74,
            "name": "D5",
            "ticks": 191280,
            "time": 215.40519,
            "velocity": 0.7874015748031497
          },
          {
            "duration": 0.10247737500000653,
            "durationTicks": 91,
            "midi": 72,
            "name": "C5",
            "ticks": 191520,
            "time": 215.67546000000002,
            "velocity": 0.7874015748031497
          },
          {
            "duration": 0.13963949999998704,
            "durationTicks": 124,
            "midi": 70,
            "name": "A#4",
            "ticks": 191640,
            "time": 215.810595,
            "velocity": 0.7874015748031497
          },
          {
            "duration": 0.3153149999999698,
            "durationTicks": 280,
            "midi": 67,
            "name": "G4",
            "ticks": 191880,
            "time": 216.08086500000002,
            "velocity": 0.7874015748031497
          },
          {
            "duration": 0.17004487500003052,
            "durationTicks": 151,
            "midi": 74,
            "name": "D5",
            "ticks": 193200,
            "time": 217.56735,
            "velocity": 0.7874015748031497
          },
          {
            "duration": 0.11486474999998109,
            "durationTicks": 102,
            "midi": 72,
            "name": "C5",
            "ticks": 193440,
            "time": 217.83762000000002,
            "velocity": 0.7874015748031497
          },
          {
            "duration": 0.13738724999998908,
            "durationTicks": 122,
            "midi": 74,
            "name": "D5",
            "ticks": 193560,
            "time": 217.972755,
            "velocity": 0.7874015748031497
          },
          {
            "duration": 0.3209456249999789,
            "durationTicks": 285,
            "midi": 70,
            "name": "A#4",
            "ticks": 193800,
            "time": 218.24302500000002,
            "velocity": 0.7874015748031497
          },
          {
            "duration": 0.1914412499999969,
            "durationTicks": 170,
            "midi": 67,
            "name": "G4",
            "ticks": 203040,
            "time": 228.64842000000002,
            "velocity": 0.7874015748031497
          },
          {
            "duration": 0.21058537499999375,
            "durationTicks": 187,
            "midi": 70,
            "name": "A#4",
            "ticks": 203040,
            "time": 228.64842000000002,
            "velocity": 0.7874015748031497
          },
          {
            "duration": 0.11261250000001155,
            "durationTicks": 100,
            "midi": 65,
            "name": "F4",
            "ticks": 203280,
            "time": 228.91869,
            "velocity": 0.7874015748031497
          },
          {
            "duration": 0.1216215000000318,
            "durationTicks": 108,
            "midi": 69,
            "name": "A4",
            "ticks": 203280,
            "time": 228.91869,
            "velocity": 0.7874015748031497
          },
          {
            "duration": 1.1948186249999821,
            "durationTicks": 1061,
            "midi": 67,
            "name": "G4",
            "ticks": 203400,
            "time": 229.05382500000002,
            "velocity": 0.7874015748031497
          }
        ]
      },
      {
        "channel": 0,
        "controlChanges": {
          "0": [
            {
              "number": 0,
              "ticks": 840,
              "time": 0.945945,
              "value": 0
            },
            {
              "number": 0,
              "ticks": 860,
              "time": 0.9684675,
              "value": 0
            }
          ],
          "32": [
            {
              "number": 32,
              "ticks": 850,
              "time": 0.95720625,
              "value": 0
            },
            {
              "number": 32,
              "ticks": 860,
              "time": 0.9684675,
              "value": 0
            }
          ]
        },
        "pitchBends": [],
        "instrument": {
          "family": "piano",
          "number": 0,
          "name": "acoustic grand piano"
        },
        "name": "",
        "notes": []
      },
      {
        "channel": 12,
        "controlChanges": {
          "0": [
            {
              "number": 0,
              "ticks": 83390,
              "time": 93.90756375,
              "value": 0
            },
            {
              "number": 0,
              "ticks": 173630,
              "time": 195.52908375,
              "value": 0
            },
            {
              "number": 0,
              "ticks": 196670,
              "time": 221.47500375,
              "value": 0
            }
          ],
          "1": [
            {
              "number": 1,
              "ticks": 33860,
              "time": 38.130592500000006,
              "value": 0
            },
            {
              "number": 1,
              "ticks": 33875,
              "time": 38.147484375000005,
              "value": 0.007874015748031496
            },
            {
              "number": 1,
              "ticks": 33890,
              "time": 38.164376250000004,
              "value": 0.023622047244094488
            },
            {
              "number": 1,
              "ticks": 33905,
              "time": 38.181268125,
              "value": 0.03937007874015748
            },
            {
              "number": 1,
              "ticks": 33920,
              "time": 38.19816,
              "value": 0.047244094488188976
            },
            {
              "number": 1,
              "ticks": 33935,
              "time": 38.21505187500001,
              "value": 0.06299212598425197
            },
            {
              "number": 1,
              "ticks": 33950,
              "time": 38.231943750000006,
              "value": 0.07874015748031496
            },
            {
              "number": 1,
              "ticks": 33965,
              "time": 38.248835625000005,
              "value": 0.08661417322834646
            },
            {
              "number": 1,
              "ticks": 33980,
              "time": 38.265727500000004,
              "value": 0.10236220472440945
            },
            {
              "number": 1,
              "ticks": 33995,
              "time": 38.282619375,
              "value": 0.11811023622047244
            },
            {
              "number": 1,
              "ticks": 34010,
              "time": 38.29951125,
              "value": 0.13385826771653545
            },
            {
              "number": 1,
              "ticks": 34025,
              "time": 38.316403125,
              "value": 0.14173228346456693
            },
            {
              "number": 1,
              "ticks": 34040,
              "time": 38.33329500000001,
              "value": 0.15748031496062992
            },
            {
              "number": 1,
              "ticks": 34055,
              "time": 38.350186875000006,
              "value": 0.1732283464566929
            },
            {
              "number": 1,
              "ticks": 34070,
              "time": 38.367078750000005,
              "value": 0.18110236220472442
            },
            {
              "number": 1,
              "ticks": 34085,
              "time": 38.383970625,
              "value": 0.1968503937007874
            },
            {
              "number": 1,
              "ticks": 34100,
              "time": 38.4008625,
              "value": 0.2125984251968504
            },
            {
              "number": 1,
              "ticks": 34115,
              "time": 38.417754375,
              "value": 0.2283464566929134
            },
            {
              "number": 1,
              "ticks": 34130,
              "time": 38.43464625000001,
              "value": 0.23622047244094488
            },
            {
              "number": 1,
              "ticks": 34145,
              "time": 38.451538125000006,
              "value": 0.25196850393700787
            },
            {
              "number": 1,
              "ticks": 34160,
              "time": 38.468430000000005,
              "value": 0.2677165354330709
            },
            {
              "number": 1,
              "ticks": 34175,
              "time": 38.485321875000004,
              "value": 0.2755905511811024
            },
            {
              "number": 1,
              "ticks": 34190,
              "time": 38.50221375,
              "value": 0.29133858267716534
            },
            {
              "number": 1,
              "ticks": 34205,
              "time": 38.519105625,
              "value": 0.30708661417322836
            },
            {
              "number": 1,
              "ticks": 34220,
              "time": 38.5359975,
              "value": 0.3228346456692913
            },
            {
              "number": 1,
              "ticks": 34235,
              "time": 38.55288937500001,
              "value": 0.33070866141732286
            },
            {
              "number": 1,
              "ticks": 34250,
              "time": 38.569781250000005,
              "value": 0.3464566929133858
            },
            {
              "number": 1,
              "ticks": 34265,
              "time": 38.586673125000004,
              "value": 0.36220472440944884
            },
            {
              "number": 1,
              "ticks": 34280,
              "time": 38.603565,
              "value": 0.3700787401574803
            },
            {
              "number": 1,
              "ticks": 34295,
              "time": 38.620456875,
              "value": 0.3858267716535433
            },
            {
              "number": 1,
              "ticks": 34299,
              "time": 38.624961375,
              "value": 0.3937007874015748
            },
            {
              "number": 1,
              "ticks": 35325,
              "time": 39.780365625,
              "value": 0
            },
            {
              "number": 1,
              "ticks": 124100,
              "time": 139.7521125,
              "value": 0
            },
            {
              "number": 1,
              "ticks": 124115,
              "time": 139.769004375,
              "value": 0.007874015748031496
            },
            {
              "number": 1,
              "ticks": 124130,
              "time": 139.78589625,
              "value": 0.023622047244094488
            },
            {
              "number": 1,
              "ticks": 124145,
              "time": 139.802788125,
              "value": 0.03937007874015748
            },
            {
              "number": 1,
              "ticks": 124160,
              "time": 139.81968,
              "value": 0.047244094488188976
            },
            {
              "number": 1,
              "ticks": 124175,
              "time": 139.836571875,
              "value": 0.06299212598425197
            },
            {
              "number": 1,
              "ticks": 124190,
              "time": 139.85346375,
              "value": 0.07874015748031496
            },
            {
              "number": 1,
              "ticks": 124205,
              "time": 139.870355625,
              "value": 0.08661417322834646
            },
            {
              "number": 1,
              "ticks": 124220,
              "time": 139.88724750000003,
              "value": 0.10236220472440945
            },
            {
              "number": 1,
              "ticks": 124235,
              "time": 139.90413937500003,
              "value": 0.11811023622047244
            },
            {
              "number": 1,
              "ticks": 124250,
              "time": 139.92103125000003,
              "value": 0.13385826771653545
            },
            {
              "number": 1,
              "ticks": 124265,
              "time": 139.93792312500003,
              "value": 0.14173228346456693
            },
            {
              "number": 1,
              "ticks": 124280,
              "time": 139.95481500000002,
              "value": 0.15748031496062992
            },
            {
              "number": 1,
              "ticks": 124295,
              "time": 139.97170687500002,
              "value": 0.1732283464566929
            },
            {
              "number": 1,
              "ticks": 124310,
              "time": 139.98859875000002,
              "value": 0.18110236220472442
            },
            {
              "number": 1,
              "ticks": 124325,
              "time": 140.00549062500002,
              "value": 0.1968503937007874
            },
            {
              "number": 1,
              "ticks": 124340,
              "time": 140.02238250000002,
              "value": 0.2125984251968504
            },
            {
              "number": 1,
              "ticks": 124355,
              "time": 140.03927437500002,
              "value": 0.2283464566929134
            },
            {
              "number": 1,
              "ticks": 124370,
              "time": 140.05616625000002,
              "value": 0.23622047244094488
            },
            {
              "number": 1,
              "ticks": 124385,
              "time": 140.07305812500002,
              "value": 0.25196850393700787
            },
            {
              "number": 1,
              "ticks": 124400,
              "time": 140.08995000000002,
              "value": 0.2677165354330709
            },
            {
              "number": 1,
              "ticks": 124415,
              "time": 140.10684187500001,
              "value": 0.2755905511811024
            },
            {
              "number": 1,
              "ticks": 124430,
              "time": 140.12373375,
              "value": 0.29133858267716534
            },
            {
              "number": 1,
              "ticks": 124445,
              "time": 140.140625625,
              "value": 0.30708661417322836
            },
            {
              "number": 1,
              "ticks": 124460,
              "time": 140.1575175,
              "value": 0.3228346456692913
            },
            {
              "number": 1,
              "ticks": 124475,
              "time": 140.174409375,
              "value": 0.33070866141732286
            },
            {
              "number": 1,
              "ticks": 124490,
              "time": 140.19130125,
              "value": 0.3464566929133858
            },
            {
              "number": 1,
              "ticks": 124505,
              "time": 140.208193125,
              "value": 0.36220472440944884
            },
            {
              "number": 1,
              "ticks": 124520,
              "time": 140.225085,
              "value": 0.3700787401574803
            },
            {
              "number": 1,
              "ticks": 124535,
              "time": 140.241976875,
              "value": 0.3858267716535433
            },
            {
              "number": 1,
              "ticks": 124539,
              "time": 140.246481375,
              "value": 0.3937007874015748
            },
            {
              "number": 1,
              "ticks": 125565,
              "time": 141.401885625,
              "value": 0
            }
          ],
          "6": [
            {
              "number": 6,
              "ticks": 910,
              "time": 1.02477375,
              "value": 0.015748031496062992
            }
          ],
          "7": [
            {
              "number": 7,
              "ticks": 870,
              "time": 0.97972875,
              "value": 0.5511811023622047
            },
            {
              "number": 7,
              "ticks": 89740,
              "time": 101.0584575,
              "value": 0.5511811023622047
            },
            {
              "number": 7,
              "ticks": 179980,
              "time": 202.6799775,
              "value": 0.5511811023622047
            },
            {
              "number": 7,
              "ticks": 203020,
              "time": 228.6258975,
              "value": 0.5511811023622047
            }
          ],
          "10": [
            {
              "number": 10,
              "ticks": 870,
              "time": 0.97972875,
              "value": 0.1889763779527559
            },
            {
              "number": 10,
              "ticks": 89740,
              "time": 101.0584575,
              "value": 0.1889763779527559
            },
            {
              "number": 10,
              "ticks": 179980,
              "time": 202.6799775,
              "value": 0.1889763779527559
            },
            {
              "number": 10,
              "ticks": 203020,
              "time": 228.6258975,
              "value": 0.1889763779527559
            }
          ],
          "11": [
            {
              "number": 11,
              "ticks": 33860,
              "time": 38.130592500000006,
              "value": 1
            },
            {
              "number": 11,
              "ticks": 33887,
              "time": 38.160997875,
              "value": 0.9921259842519685
            },
            {
              "number": 11,
              "ticks": 33914,
              "time": 38.19140325,
              "value": 0.984251968503937
            },
            {
              "number": 11,
              "ticks": 33942,
              "time": 38.22293475000001,
              "value": 0.9763779527559056
            },
            {
              "number": 11,
              "ticks": 33969,
              "time": 38.253340125,
              "value": 0.968503937007874
            },
            {
              "number": 11,
              "ticks": 33996,
              "time": 38.2837455,
              "value": 0.9606299212598425
            },
            {
              "number": 11,
              "ticks": 34024,
              "time": 38.315277,
              "value": 0.952755905511811
            },
            {
              "number": 11,
              "ticks": 34051,
              "time": 38.345682375,
              "value": 0.9448818897637795
            },
            {
              "number": 11,
              "ticks": 34078,
              "time": 38.37608775,
              "value": 0.937007874015748
            },
            {
              "number": 11,
              "ticks": 34106,
              "time": 38.407619249999996,
              "value": 0.9291338582677166
            },
            {
              "number": 11,
              "ticks": 34133,
              "time": 38.438024625000004,
              "value": 0.9212598425196851
            },
            {
              "number": 11,
              "ticks": 34161,
              "time": 38.469556125000004,
              "value": 0.9133858267716536
            },
            {
              "number": 11,
              "ticks": 34188,
              "time": 38.4999615,
              "value": 0.905511811023622
            },
            {
              "number": 11,
              "ticks": 34215,
              "time": 38.530366875,
              "value": 0.8976377952755905
            },
            {
              "number": 11,
              "ticks": 34243,
              "time": 38.561898375000006,
              "value": 0.889763779527559
            },
            {
              "number": 11,
              "ticks": 34270,
              "time": 38.59230375,
              "value": 0.8818897637795275
            },
            {
              "number": 11,
              "ticks": 34297,
              "time": 38.622709125,
              "value": 0.8740157480314961
            },
            {
              "number": 11,
              "ticks": 34325,
              "time": 38.65424062500001,
              "value": 0.8661417322834646
            },
            {
              "number": 11,
              "ticks": 34352,
              "time": 38.684646,
              "value": 0.8582677165354331
            },
            {
              "number": 11,
              "ticks": 34380,
              "time": 38.7161775,
              "value": 0.8503937007874016
            },
            {
              "number": 11,
              "ticks": 34407,
              "time": 38.746582875,
              "value": 0.84251968503937
            },
            {
              "number": 11,
              "ticks": 34434,
              "time": 38.77698825,
              "value": 0.8346456692913385
            },
            {
              "number": 11,
              "ticks": 34462,
              "time": 38.80851975,
              "value": 0.8267716535433071
            },
            {
              "number": 11,
              "ticks": 34489,
              "time": 38.838925125,
              "value": 0.8188976377952756
            },
            {
              "number": 11,
              "ticks": 34516,
              "time": 38.869330500000004,
              "value": 0.8110236220472441
            },
            {
              "number": 11,
              "ticks": 34544,
              "time": 38.900862000000004,
              "value": 0.8031496062992126
            },
            {
              "number": 11,
              "ticks": 34571,
              "time": 38.931267375,
              "value": 0.7952755905511811
            },
            {
              "number": 11,
              "ticks": 34599,
              "time": 38.962798875,
              "value": 0.7874015748031497
            },
            {
              "number": 11,
              "ticks": 35356,
              "time": 39.8152755,
              "value": 1
            },
            {
              "number": 11,
              "ticks": 124100,
              "time": 139.7521125,
              "value": 1
            },
            {
              "number": 11,
              "ticks": 124127,
              "time": 139.782517875,
              "value": 0.9921259842519685
            },
            {
              "number": 11,
              "ticks": 124154,
              "time": 139.81292324999998,
              "value": 0.984251968503937
            },
            {
              "number": 11,
              "ticks": 124182,
              "time": 139.84445474999998,
              "value": 0.9763779527559056
            },
            {
              "number": 11,
              "ticks": 124209,
              "time": 139.874860125,
              "value": 0.968503937007874
            },
            {
              "number": 11,
              "ticks": 124236,
              "time": 139.9052655,
              "value": 0.9606299212598425
            },
            {
              "number": 11,
              "ticks": 124264,
              "time": 139.936797,
              "value": 0.952755905511811
            },
            {
              "number": 11,
              "ticks": 124291,
              "time": 139.96720237500003,
              "value": 0.9448818897637795
            },
            {
              "number": 11,
              "ticks": 124318,
              "time": 139.99760775000001,
              "value": 0.937007874015748
            },
            {
              "number": 11,
              "ticks": 124346,
              "time": 140.02913925000001,
              "value": 0.9291338582677166
            },
            {
              "number": 11,
              "ticks": 124373,
              "time": 140.059544625,
              "value": 0.9212598425196851
            },
            {
              "number": 11,
              "ticks": 124401,
              "time": 140.091076125,
              "value": 0.9133858267716536
            },
            {
              "number": 11,
              "ticks": 124428,
              "time": 140.12148150000002,
              "value": 0.905511811023622
            },
            {
              "number": 11,
              "ticks": 124455,
              "time": 140.151886875,
              "value": 0.8976377952755905
            },
            {
              "number": 11,
              "ticks": 124483,
              "time": 140.183418375,
              "value": 0.889763779527559
            },
            {
              "number": 11,
              "ticks": 124510,
              "time": 140.21382375,
              "value": 0.8818897637795275
            },
            {
              "number": 11,
              "ticks": 124537,
              "time": 140.244229125,
              "value": 0.8740157480314961
            },
            {
              "number": 11,
              "ticks": 124565,
              "time": 140.275760625,
              "value": 0.8661417322834646
            },
            {
              "number": 11,
              "ticks": 124592,
              "time": 140.306166,
              "value": 0.8582677165354331
            },
            {
              "number": 11,
              "ticks": 124620,
              "time": 140.33769750000002,
              "value": 0.8503937007874016
            },
            {
              "number": 11,
              "ticks": 124647,
              "time": 140.368102875,
              "value": 0.84251968503937
            },
            {
              "number": 11,
              "ticks": 124674,
              "time": 140.39850825000002,
              "value": 0.8346456692913385
            },
            {
              "number": 11,
              "ticks": 124702,
              "time": 140.43003975000002,
              "value": 0.8267716535433071
            },
            {
              "number": 11,
              "ticks": 124729,
              "time": 140.460445125,
              "value": 0.8188976377952756
            },
            {
              "number": 11,
              "ticks": 124756,
              "time": 140.49085050000002,
              "value": 0.8110236220472441
            },
            {
              "number": 11,
              "ticks": 124784,
              "time": 140.522382,
              "value": 0.8031496062992126
            },
            {
              "number": 11,
              "ticks": 124811,
              "time": 140.552787375,
              "value": 0.7952755905511811
            },
            {
              "number": 11,
              "ticks": 124839,
              "time": 140.584318875,
              "value": 0.7874015748031497
            },
            {
              "number": 11,
              "ticks": 125596,
              "time": 141.43679550000002,
              "value": 1
            }
          ],
          "32": [
            {
              "number": 32,
              "ticks": 83390,
              "time": 93.90756375,
              "value": 0
            },
            {
              "number": 32,
              "ticks": 173630,
              "time": 195.52908375,
              "value": 0
            },
            {
              "number": 32,
              "ticks": 196670,
              "time": 221.47500375,
              "value": 0
            }
          ],
          "38": [
            {
              "number": 38,
              "ticks": 900,
              "time": 1.0135125,
              "value": 0.015748031496062992
            }
          ],
          "91": [
            {
              "number": 91,
              "ticks": 870,
              "time": 0.97972875,
              "value": 0
            },
            {
              "number": 91,
              "ticks": 89740,
              "time": 101.0584575,
              "value": 0
            },
            {
              "number": 91,
              "ticks": 179980,
              "time": 202.6799775,
              "value": 0
            },
            {
              "number": 91,
              "ticks": 203020,
              "time": 228.6258975,
              "value": 0
            }
          ],
          "93": [
            {
              "number": 93,
              "ticks": 870,
              "time": 0.97972875,
              "value": 0.03937007874015748
            },
            {
              "number": 93,
              "ticks": 89740,
              "time": 101.0584575,
              "value": 0.03937007874015748
            },
            {
              "number": 93,
              "ticks": 179980,
              "time": 202.6799775,
              "value": 0.03937007874015748
            },
            {
              "number": 93,
              "ticks": 203020,
              "time": 228.6258975,
              "value": 0.03937007874015748
            }
          ],
          "100": [
            {
              "number": 100,
              "ticks": 890,
              "time": 1.00225125,
              "value": 0
            }
          ],
          "101": [
            {
              "number": 101,
              "ticks": 880,
              "time": 0.99099,
              "value": 0
            }
          ]
        },
        "pitchBends": [],
        "instrument": {
          "family": "ensemble",
          "number": 53,
          "name": "voice oohs"
        },
        "name": "",
        "notes": [
          {
            "duration": 0.5371616250000102,
            "durationTicks": 477,
            "midi": 62,
            "name": "D4",
            "ticks": 32880,
            "time": 37.02699,
            "velocity": 0.6929133858267716
          },
          {
            "duration": 0.5371616250000102,
            "durationTicks": 477,
            "midi": 67,
            "name": "G4",
            "ticks": 32880,
            "time": 37.02699,
            "velocity": 0.6929133858267716
          },
          {
            "duration": 0.24774749999999557,
            "durationTicks": 220,
            "midi": 62,
            "name": "D4",
            "ticks": 33360,
            "time": 37.567530000000005,
            "velocity": 0.7874015748031497
          },
          {
            "duration": 0.24774749999999557,
            "durationTicks": 220,
            "midi": 69,
            "name": "A4",
            "ticks": 33360,
            "time": 37.567530000000005,
            "velocity": 0.7874015748031497
          },
          {
            "duration": 1.1576565000000016,
            "durationTicks": 1028,
            "midi": 62,
            "name": "D4",
            "ticks": 33600,
            "time": 37.8378,
            "velocity": 0.7874015748031497
          },
          {
            "duration": 1.1576565000000016,
            "durationTicks": 1028,
            "midi": 65,
            "name": "F4",
            "ticks": 33600,
            "time": 37.8378,
            "velocity": 0.7874015748031497
          },
          {
            "duration": 0.4876121250000054,
            "durationTicks": 433,
            "midi": 65,
            "name": "F4",
            "ticks": 40801,
            "time": 45.947026125,
            "velocity": 0.6929133858267716
          },
          {
            "duration": 0.4876121250000054,
            "durationTicks": 433,
            "midi": 69,
            "name": "A4",
            "ticks": 40801,
            "time": 45.947026125,
            "velocity": 0.6929133858267716
          },
          {
            "duration": 0.5731976250000059,
            "durationTicks": 509,
            "midi": 62,
            "name": "D4",
            "ticks": 41309,
            "time": 46.519097625,
            "velocity": 0.6929133858267716
          },
          {
            "duration": 0.5731976250000059,
            "durationTicks": 509,
            "midi": 65,
            "name": "F4",
            "ticks": 41309,
            "time": 46.519097625,
            "velocity": 0.6929133858267716
          },
          {
            "duration": 0.6047291250000058,
            "durationTicks": 537,
            "midi": 64,
            "name": "E4",
            "ticks": 41760,
            "time": 47.02698,
            "velocity": 0.5039370078740157
          },
          {
            "duration": 2.1362591250000023,
            "durationTicks": 1897,
            "midi": 63,
            "name": "D#4",
            "ticks": 42240,
            "time": 47.56752,
            "velocity": 0.3937007874015748
          },
          {
            "duration": 0.07995487500001275,
            "durationTicks": 71,
            "midi": 70,
            "name": "A#4",
            "ticks": 69360,
            "time": 78.10803,
            "velocity": 0.6929133858267716
          },
          {
            "duration": 0.10247737500000653,
            "durationTicks": 91,
            "midi": 67,
            "name": "G4",
            "ticks": 69360,
            "time": 78.10803,
            "velocity": 0.6929133858267716
          },
          {
            "duration": 0.07770262500001479,
            "durationTicks": 69,
            "midi": 67,
            "name": "G4",
            "ticks": 69600,
            "time": 78.3783,
            "velocity": 0.6929133858267716
          },
          {
            "duration": 0.07545037500000262,
            "durationTicks": 67,
            "midi": 70,
            "name": "A#4",
            "ticks": 69600,
            "time": 78.3783,
            "velocity": 0.6929133858267716
          },
          {
            "duration": 0.1317566250000084,
            "durationTicks": 117,
            "midi": 67,
            "name": "G4",
            "ticks": 69720,
            "time": 78.513435,
            "velocity": 0.6929133858267716
          },
          {
            "duration": 0.1103602500000136,
            "durationTicks": 98,
            "midi": 70,
            "name": "A#4",
            "ticks": 69720,
            "time": 78.513435,
            "velocity": 0.6929133858267716
          },
          {
            "duration": 1.1599087500000138,
            "durationTicks": 1030,
            "midi": 67,
            "name": "G4",
            "ticks": 69960,
            "time": 78.783705,
            "velocity": 0.6929133858267716
          },
          {
            "duration": 1.1542781250000047,
            "durationTicks": 1025,
            "midi": 70,
            "name": "A#4",
            "ticks": 69960,
            "time": 78.783705,
            "velocity": 0.6929133858267716
          },
          {
            "duration": 0.11486475000000951,
            "durationTicks": 102,
            "midi": 62,
            "name": "D4",
            "ticks": 71280,
            "time": 80.27019,
            "velocity": 0.6929133858267716
          },
          {
            "duration": 0.11599087500000849,
            "durationTicks": 103,
            "midi": 65,
            "name": "F4",
            "ticks": 71280,
            "time": 80.27019,
            "velocity": 0.6929133858267716
          },
          {
            "duration": 0.06531525000001182,
            "durationTicks": 58,
            "midi": 62,
            "name": "D4",
            "ticks": 71520,
            "time": 80.54046,
            "velocity": 0.6929133858267716
          },
          {
            "duration": 0.06306300000001386,
            "durationTicks": 56,
            "midi": 65,
            "name": "F4",
            "ticks": 71520,
            "time": 80.54046,
            "velocity": 0.6929133858267716
          },
          {
            "duration": 0.11711700000000747,
            "durationTicks": 104,
            "midi": 62,
            "name": "D4",
            "ticks": 71640,
            "time": 80.675595,
            "velocity": 0.6929133858267716
          },
          {
            "duration": 0.11486475000000951,
            "durationTicks": 102,
            "midi": 65,
            "name": "F4",
            "ticks": 71640,
            "time": 80.675595,
            "velocity": 0.6929133858267716
          },
          {
            "duration": 1.1644132500000097,
            "durationTicks": 1034,
            "midi": 62,
            "name": "D4",
            "ticks": 71880,
            "time": 80.945865,
            "velocity": 0.6929133858267716
          },
          {
            "duration": 1.1745483750000147,
            "durationTicks": 1043,
            "midi": 65,
            "name": "F4",
            "ticks": 71880,
            "time": 80.945865,
            "velocity": 0.6929133858267716
          },
          {
            "duration": 0.16666650000000516,
            "durationTicks": 148,
            "midi": 67,
            "name": "G4",
            "ticks": 78000,
            "time": 87.83775,
            "velocity": 0.6929133858267716
          },
          {
            "duration": 0.17117100000000107,
            "durationTicks": 152,
            "midi": 70,
            "name": "A#4",
            "ticks": 78000,
            "time": 87.83775,
            "velocity": 0.6929133858267716
          },
          {
            "duration": 0.0765765000000016,
            "durationTicks": 68,
            "midi": 62,
            "name": "D4",
            "ticks": 78240,
            "time": 88.10802000000001,
            "velocity": 0.6929133858267716
          },
          {
            "duration": 0.07882874999999956,
            "durationTicks": 70,
            "midi": 67,
            "name": "G4",
            "ticks": 78240,
            "time": 88.10802000000001,
            "velocity": 0.6929133858267716
          },
          {
            "duration": 0.16103587500001026,
            "durationTicks": 143,
            "midi": 62,
            "name": "D4",
            "ticks": 78360,
            "time": 88.243155,
            "velocity": 0.6929133858267716
          },
          {
            "duration": 0.174549374999998,
            "durationTicks": 155,
            "midi": 67,
            "name": "G4",
            "ticks": 78360,
            "time": 88.243155,
            "velocity": 0.6929133858267716
          },
          {
            "duration": 0.3186933750000094,
            "durationTicks": 283,
            "midi": 63,
            "name": "D#4",
            "ticks": 78600,
            "time": 88.513425,
            "velocity": 0.6929133858267716
          },
          {
            "duration": 0.3231978750000053,
            "durationTicks": 287,
            "midi": 58,
            "name": "A#3",
            "ticks": 78600,
            "time": 88.513425,
            "velocity": 0.6929133858267716
          },
          {
            "duration": 0.17229712500000005,
            "durationTicks": 153,
            "midi": 65,
            "name": "F4",
            "ticks": 79920,
            "time": 89.99991,
            "velocity": 0.6929133858267716
          },
          {
            "duration": 0.1700448750000021,
            "durationTicks": 151,
            "midi": 70,
            "name": "A#4",
            "ticks": 79920,
            "time": 89.99991,
            "velocity": 0.6929133858267716
          },
          {
            "duration": 0.10585574999998926,
            "durationTicks": 94,
            "midi": 65,
            "name": "F4",
            "ticks": 80160,
            "time": 90.27018000000001,
            "velocity": 0.6929133858267716
          },
          {
            "duration": 0.0923422499999873,
            "durationTicks": 82,
            "midi": 70,
            "name": "A#4",
            "ticks": 80160,
            "time": 90.27018000000001,
            "velocity": 0.6929133858267716
          },
          {
            "duration": 0.19369349999999486,
            "durationTicks": 172,
            "midi": 65,
            "name": "F4",
            "ticks": 80280,
            "time": 90.405315,
            "velocity": 0.6929133858267716
          },
          {
            "duration": 0.15090075000000525,
            "durationTicks": 134,
            "midi": 70,
            "name": "A#4",
            "ticks": 80280,
            "time": 90.405315,
            "velocity": 0.6929133858267716
          },
          {
            "duration": 0.3175672500000104,
            "durationTicks": 282,
            "midi": 63,
            "name": "D#4",
            "ticks": 80520,
            "time": 90.675585,
            "velocity": 0.6929133858267716
          },
          {
            "duration": 0.3063060000000064,
            "durationTicks": 272,
            "midi": 67,
            "name": "G4",
            "ticks": 80520,
            "time": 90.675585,
            "velocity": 0.6929133858267716
          },
          {
            "duration": 0.20833312499998158,
            "durationTicks": 185,
            "midi": 63,
            "name": "D#4",
            "ticks": 89760,
            "time": 101.08098000000001,
            "velocity": 0.7874015748031497
          },
          {
            "duration": 0.09572062499999845,
            "durationTicks": 85,
            "midi": 62,
            "name": "D4",
            "ticks": 90000,
            "time": 101.35125000000001,
            "velocity": 0.7874015748031497
          },
          {
            "duration": 1.1959447500000095,
            "durationTicks": 1062,
            "midi": 62,
            "name": "D4",
            "ticks": 90120,
            "time": 101.486385,
            "velocity": 0.6929133858267716
          },
          {
            "duration": 1.1891880000000015,
            "durationTicks": 1056,
            "midi": 58,
            "name": "A#3",
            "ticks": 90120,
            "time": 101.486385,
            "velocity": 0.6929133858267716
          },
          {
            "duration": 0.5371616249999818,
            "durationTicks": 477,
            "midi": 62,
            "name": "D4",
            "ticks": 123120,
            "time": 138.64851000000002,
            "velocity": 0.6929133858267716
          },
          {
            "duration": 0.5371616249999818,
            "durationTicks": 477,
            "midi": 67,
            "name": "G4",
            "ticks": 123120,
            "time": 138.64851000000002,
            "velocity": 0.6929133858267716
          },
          {
            "duration": 0.24774749999997425,
            "durationTicks": 220,
            "midi": 62,
            "name": "D4",
            "ticks": 123600,
            "time": 139.18905,
            "velocity": 0.7874015748031497
          },
          {
            "duration": 0.24774749999997425,
            "durationTicks": 220,
            "midi": 69,
            "name": "A4",
            "ticks": 123600,
            "time": 139.18905,
            "velocity": 0.7874015748031497
          },
          {
            "duration": 1.1576565000000016,
            "durationTicks": 1028,
            "midi": 62,
            "name": "D4",
            "ticks": 123840,
            "time": 139.45932,
            "velocity": 0.7874015748031497
          },
          {
            "duration": 1.1576565000000016,
            "durationTicks": 1028,
            "midi": 65,
            "name": "F4",
            "ticks": 123840,
            "time": 139.45932,
            "velocity": 0.7874015748031497
          },
          {
            "duration": 0.48761212499996986,
            "durationTicks": 433,
            "midi": 65,
            "name": "F4",
            "ticks": 131041,
            "time": 147.568546125,
            "velocity": 0.6929133858267716
          },
          {
            "duration": 0.48761212499996986,
            "durationTicks": 433,
            "midi": 69,
            "name": "A4",
            "ticks": 131041,
            "time": 147.568546125,
            "velocity": 0.6929133858267716
          },
          {
            "duration": 0.5731976250000059,
            "durationTicks": 509,
            "midi": 62,
            "name": "D4",
            "ticks": 131549,
            "time": 148.140617625,
            "velocity": 0.6929133858267716
          },
          {
            "duration": 0.5731976250000059,
            "durationTicks": 509,
            "midi": 65,
            "name": "F4",
            "ticks": 131549,
            "time": 148.140617625,
            "velocity": 0.6929133858267716
          },
          {
            "duration": 0.6047291249999773,
            "durationTicks": 537,
            "midi": 64,
            "name": "E4",
            "ticks": 132000,
            "time": 148.6485,
            "velocity": 0.5039370078740157
          },
          {
            "duration": 2.1362591250000094,
            "durationTicks": 1897,
            "midi": 63,
            "name": "D#4",
            "ticks": 132480,
            "time": 149.18904,
            "velocity": 0.3937007874015748
          },
          {
            "duration": 0.07995487499999854,
            "durationTicks": 71,
            "midi": 70,
            "name": "A#4",
            "ticks": 159600,
            "time": 179.72955000000002,
            "velocity": 0.6929133858267716
          },
          {
            "duration": 0.10247737500000653,
            "durationTicks": 91,
            "midi": 67,
            "name": "G4",
            "ticks": 159600,
            "time": 179.72955000000002,
            "velocity": 0.6929133858267716
          },
          {
            "duration": 0.07770262500000058,
            "durationTicks": 69,
            "midi": 67,
            "name": "G4",
            "ticks": 159840,
            "time": 179.99982,
            "velocity": 0.6929133858267716
          },
          {
            "duration": 0.07545037500000262,
            "durationTicks": 67,
            "midi": 70,
            "name": "A#4",
            "ticks": 159840,
            "time": 179.99982,
            "velocity": 0.6929133858267716
          },
          {
            "duration": 0.13175662499997998,
            "durationTicks": 117,
            "midi": 67,
            "name": "G4",
            "ticks": 159960,
            "time": 180.13495500000002,
            "velocity": 0.6929133858267716
          },
          {
            "duration": 0.11036024999998517,
            "durationTicks": 98,
            "midi": 70,
            "name": "A#4",
            "ticks": 159960,
            "time": 180.13495500000002,
            "velocity": 0.6929133858267716
          },
          {
            "duration": 1.1599087499999996,
            "durationTicks": 1030,
            "midi": 67,
            "name": "G4",
            "ticks": 160200,
            "time": 180.405225,
            "velocity": 0.6929133858267716
          },
          {
            "duration": 1.154278125000019,
            "durationTicks": 1025,
            "midi": 70,
            "name": "A#4",
            "ticks": 160200,
            "time": 180.405225,
            "velocity": 0.6929133858267716
          },
          {
            "duration": 0.11486474999998109,
            "durationTicks": 102,
            "midi": 62,
            "name": "D4",
            "ticks": 161520,
            "time": 181.89171000000002,
            "velocity": 0.6929133858267716
          },
          {
            "duration": 0.11599087499999428,
            "durationTicks": 103,
            "midi": 65,
            "name": "F4",
            "ticks": 161520,
            "time": 181.89171000000002,
            "velocity": 0.6929133858267716
          },
          {
            "duration": 0.0653152499999976,
            "durationTicks": 58,
            "midi": 62,
            "name": "D4",
            "ticks": 161760,
            "time": 182.16198,
            "velocity": 0.6929133858267716
          },
          {
            "duration": 0.06306299999999965,
            "durationTicks": 56,
            "midi": 65,
            "name": "F4",
            "ticks": 161760,
            "time": 182.16198,
            "velocity": 0.6929133858267716
          },
          {
            "duration": 0.11711699999997904,
            "durationTicks": 104,
            "midi": 62,
            "name": "D4",
            "ticks": 161880,
            "time": 182.29711500000002,
            "velocity": 0.6929133858267716
          },
          {
            "duration": 0.11486474999998109,
            "durationTicks": 102,
            "midi": 65,
            "name": "F4",
            "ticks": 161880,
            "time": 182.29711500000002,
            "velocity": 0.6929133858267716
          },
          {
            "duration": 1.1644132499999955,
            "durationTicks": 1034,
            "midi": 62,
            "name": "D4",
            "ticks": 162120,
            "time": 182.567385,
            "velocity": 0.6929133858267716
          },
          {
            "duration": 1.1745483750000005,
            "durationTicks": 1043,
            "midi": 65,
            "name": "F4",
            "ticks": 162120,
            "time": 182.567385,
            "velocity": 0.6929133858267716
          },
          {
            "duration": 0.16666650000001937,
            "durationTicks": 148,
            "midi": 67,
            "name": "G4",
            "ticks": 168240,
            "time": 189.45927,
            "velocity": 0.6929133858267716
          },
          {
            "duration": 0.17117100000001528,
            "durationTicks": 152,
            "midi": 70,
            "name": "A#4",
            "ticks": 168240,
            "time": 189.45927,
            "velocity": 0.6929133858267716
          },
          {
            "duration": 0.07657649999998739,
            "durationTicks": 68,
            "midi": 62,
            "name": "D4",
            "ticks": 168480,
            "time": 189.72954000000001,
            "velocity": 0.6929133858267716
          },
          {
            "duration": 0.07882874999998535,
            "durationTicks": 70,
            "midi": 67,
            "name": "G4",
            "ticks": 168480,
            "time": 189.72954000000001,
            "velocity": 0.6929133858267716
          },
          {
            "duration": 0.16103587499998184,
            "durationTicks": 143,
            "midi": 62,
            "name": "D4",
            "ticks": 168600,
            "time": 189.864675,
            "velocity": 0.6929133858267716
          },
          {
            "duration": 0.174549374999998,
            "durationTicks": 155,
            "midi": 67,
            "name": "G4",
            "ticks": 168600,
            "time": 189.864675,
            "velocity": 0.6929133858267716
          },
          {
            "duration": 0.31869337499998096,
            "durationTicks": 283,
            "midi": 63,
            "name": "D#4",
            "ticks": 168840,
            "time": 190.13494500000002,
            "velocity": 0.6929133858267716
          },
          {
            "duration": 0.3231978749999769,
            "durationTicks": 287,
            "midi": 58,
            "name": "A#3",
            "ticks": 168840,
            "time": 190.13494500000002,
            "velocity": 0.6929133858267716
          },
          {
            "duration": 0.17229712500002847,
            "durationTicks": 153,
            "midi": 65,
            "name": "F4",
            "ticks": 170160,
            "time": 191.62143,
            "velocity": 0.6929133858267716
          },
          {
            "duration": 0.17004487500003052,
            "durationTicks": 151,
            "midi": 70,
            "name": "A#4",
            "ticks": 170160,
            "time": 191.62143,
            "velocity": 0.6929133858267716
          },
          {
            "duration": 0.10585574999998926,
            "durationTicks": 94,
            "midi": 65,
            "name": "F4",
            "ticks": 170400,
            "time": 191.89170000000001,
            "velocity": 0.6929133858267716
          },
          {
            "duration": 0.09234225000000151,
            "durationTicks": 82,
            "midi": 70,
            "name": "A#4",
            "ticks": 170400,
            "time": 191.89170000000001,
            "velocity": 0.6929133858267716
          },
          {
            "duration": 0.19369350000002328,
            "durationTicks": 172,
            "midi": 65,
            "name": "F4",
            "ticks": 170520,
            "time": 192.026835,
            "velocity": 0.6929133858267716
          },
          {
            "duration": 0.15090074999997682,
            "durationTicks": 134,
            "midi": 70,
            "name": "A#4",
            "ticks": 170520,
            "time": 192.026835,
            "velocity": 0.6929133858267716
          },
          {
            "duration": 0.31756724999996777,
            "durationTicks": 282,
            "midi": 63,
            "name": "D#4",
            "ticks": 170760,
            "time": 192.29710500000002,
            "velocity": 0.6929133858267716
          },
          {
            "duration": 0.306305999999978,
            "durationTicks": 272,
            "midi": 67,
            "name": "G4",
            "ticks": 170760,
            "time": 192.29710500000002,
            "velocity": 0.6929133858267716
          },
          {
            "duration": 0.2083331249999958,
            "durationTicks": 185,
            "midi": 63,
            "name": "D#4",
            "ticks": 180000,
            "time": 202.70250000000001,
            "velocity": 0.7874015748031497
          },
          {
            "duration": 0.09572062500001266,
            "durationTicks": 85,
            "midi": 62,
            "name": "D4",
            "ticks": 180240,
            "time": 202.97277,
            "velocity": 0.7874015748031497
          },
          {
            "duration": 1.0585574999999778,
            "durationTicks": 940,
            "midi": 62,
            "name": "D4",
            "ticks": 180360,
            "time": 203.10790500000002,
            "velocity": 0.6929133858267716
          },
          {
            "duration": 1.051800749999984,
            "durationTicks": 934,
            "midi": 58,
            "name": "A#3",
            "ticks": 180360,
            "time": 203.10790500000002,
            "velocity": 0.6929133858267716
          },
          {
            "duration": 0.10247737500000653,
            "durationTicks": 91,
            "midi": 67,
            "name": "G4",
            "ticks": 182640,
            "time": 205.67547000000002,
            "velocity": 0.6929133858267716
          },
          {
            "duration": 0.07995487499999854,
            "durationTicks": 71,
            "midi": 70,
            "name": "A#4",
            "ticks": 182640,
            "time": 205.67547000000002,
            "velocity": 0.6929133858267716
          },
          {
            "duration": 0.07770262500000058,
            "durationTicks": 69,
            "midi": 67,
            "name": "G4",
            "ticks": 182880,
            "time": 205.94574,
            "velocity": 0.6929133858267716
          },
          {
            "duration": 0.07545037500000262,
            "durationTicks": 67,
            "midi": 70,
            "name": "A#4",
            "ticks": 182880,
            "time": 205.94574,
            "velocity": 0.6929133858267716
          },
          {
            "duration": 0.13175662499997998,
            "durationTicks": 117,
            "midi": 65,
            "name": "F4",
            "ticks": 183000,
            "time": 206.08087500000002,
            "velocity": 0.6929133858267716
          },
          {
            "duration": 0.11036024999998517,
            "durationTicks": 98,
            "midi": 69,
            "name": "A4",
            "ticks": 183000,
            "time": 206.08087500000002,
            "velocity": 0.6929133858267716
          },
          {
            "duration": 1.1599087499999996,
            "durationTicks": 1030,
            "midi": 67,
            "name": "G4",
            "ticks": 183240,
            "time": 206.351145,
            "velocity": 0.6929133858267716
          },
          {
            "duration": 1.1599087499999996,
            "durationTicks": 1030,
            "midi": 62,
            "name": "D4",
            "ticks": 183240,
            "time": 206.351145,
            "velocity": 0.6929133858267716
          },
          {
            "duration": 0.11486474999998109,
            "durationTicks": 102,
            "midi": 62,
            "name": "D4",
            "ticks": 184560,
            "time": 207.83763000000002,
            "velocity": 0.6929133858267716
          },
          {
            "duration": 0.11599087499999428,
            "durationTicks": 103,
            "midi": 65,
            "name": "F4",
            "ticks": 184560,
            "time": 207.83763000000002,
            "velocity": 0.6929133858267716
          },
          {
            "duration": 0.0653152499999976,
            "durationTicks": 58,
            "midi": 62,
            "name": "D4",
            "ticks": 184800,
            "time": 208.1079,
            "velocity": 0.6929133858267716
          },
          {
            "duration": 0.06306299999999965,
            "durationTicks": 56,
            "midi": 65,
            "name": "F4",
            "ticks": 184800,
            "time": 208.1079,
            "velocity": 0.6929133858267716
          },
          {
            "duration": 0.11711699999997904,
            "durationTicks": 104,
            "midi": 62,
            "name": "D4",
            "ticks": 184920,
            "time": 208.24303500000002,
            "velocity": 0.6929133858267716
          },
          {
            "duration": 0.11486474999998109,
            "durationTicks": 102,
            "midi": 65,
            "name": "F4",
            "ticks": 184920,
            "time": 208.24303500000002,
            "velocity": 0.6929133858267716
          },
          {
            "duration": 1.1644132499999955,
            "durationTicks": 1034,
            "midi": 62,
            "name": "D4",
            "ticks": 185160,
            "time": 208.513305,
            "velocity": 0.6929133858267716
          },
          {
            "duration": 1.1745483750000005,
            "durationTicks": 1043,
            "midi": 65,
            "name": "F4",
            "ticks": 185160,
            "time": 208.513305,
            "velocity": 0.6929133858267716
          },
          {
            "duration": 0.16666650000001937,
            "durationTicks": 148,
            "midi": 67,
            "name": "G4",
            "ticks": 191280,
            "time": 215.40519,
            "velocity": 0.6929133858267716
          },
          {
            "duration": 0.17117100000001528,
            "durationTicks": 152,
            "midi": 70,
            "name": "A#4",
            "ticks": 191280,
            "time": 215.40519,
            "velocity": 0.6929133858267716
          },
          {
            "duration": 0.07657649999998739,
            "durationTicks": 68,
            "midi": 62,
            "name": "D4",
            "ticks": 191520,
            "time": 215.67546000000002,
            "velocity": 0.6929133858267716
          },
          {
            "duration": 0.07882874999998535,
            "durationTicks": 70,
            "midi": 67,
            "name": "G4",
            "ticks": 191520,
            "time": 215.67546000000002,
            "velocity": 0.6929133858267716
          },
          {
            "duration": 0.16103587499998184,
            "durationTicks": 143,
            "midi": 62,
            "name": "D4",
            "ticks": 191640,
            "time": 215.810595,
            "velocity": 0.6929133858267716
          },
          {
            "duration": 0.174549374999998,
            "durationTicks": 155,
            "midi": 67,
            "name": "G4",
            "ticks": 191640,
            "time": 215.810595,
            "velocity": 0.6929133858267716
          },
          {
            "duration": 0.31869337499998096,
            "durationTicks": 283,
            "midi": 63,
            "name": "D#4",
            "ticks": 191880,
            "time": 216.08086500000002,
            "velocity": 0.6929133858267716
          },
          {
            "duration": 0.3231978749999769,
            "durationTicks": 287,
            "midi": 58,
            "name": "A#3",
            "ticks": 191880,
            "time": 216.08086500000002,
            "velocity": 0.6929133858267716
          },
          {
            "duration": 0.17229712500002847,
            "durationTicks": 153,
            "midi": 65,
            "name": "F4",
            "ticks": 193200,
            "time": 217.56735,
            "velocity": 0.6929133858267716
          },
          {
            "duration": 0.17004487500003052,
            "durationTicks": 151,
            "midi": 70,
            "name": "A#4",
            "ticks": 193200,
            "time": 217.56735,
            "velocity": 0.6929133858267716
          },
          {
            "duration": 0.10585574999998926,
            "durationTicks": 94,
            "midi": 65,
            "name": "F4",
            "ticks": 193440,
            "time": 217.83762000000002,
            "velocity": 0.6929133858267716
          },
          {
            "duration": 0.09234225000000151,
            "durationTicks": 82,
            "midi": 70,
            "name": "A#4",
            "ticks": 193440,
            "time": 217.83762000000002,
            "velocity": 0.6929133858267716
          },
          {
            "duration": 0.19369350000002328,
            "durationTicks": 172,
            "midi": 65,
            "name": "F4",
            "ticks": 193560,
            "time": 217.972755,
            "velocity": 0.6929133858267716
          },
          {
            "duration": 0.15090074999997682,
            "durationTicks": 134,
            "midi": 70,
            "name": "A#4",
            "ticks": 193560,
            "time": 217.972755,
            "velocity": 0.6929133858267716
          },
          {
            "duration": 0.31756724999996777,
            "durationTicks": 282,
            "midi": 63,
            "name": "D#4",
            "ticks": 193800,
            "time": 218.24302500000002,
            "velocity": 0.6929133858267716
          },
          {
            "duration": 0.306305999999978,
            "durationTicks": 272,
            "midi": 67,
            "name": "G4",
            "ticks": 193800,
            "time": 218.24302500000002,
            "velocity": 0.6929133858267716
          },
          {
            "duration": 0.2083331249999958,
            "durationTicks": 185,
            "midi": 63,
            "name": "D#4",
            "ticks": 203040,
            "time": 228.64842000000002,
            "velocity": 0.7874015748031497
          },
          {
            "duration": 0.09572062500001266,
            "durationTicks": 85,
            "midi": 62,
            "name": "D4",
            "ticks": 203280,
            "time": 228.91869,
            "velocity": 0.7874015748031497
          },
          {
            "duration": 1.195944749999967,
            "durationTicks": 1062,
            "midi": 62,
            "name": "D4",
            "ticks": 203400,
            "time": 229.05382500000002,
            "velocity": 0.6929133858267716
          },
          {
            "duration": 1.189187999999973,
            "durationTicks": 1056,
            "midi": 58,
            "name": "A#3",
            "ticks": 203400,
            "time": 229.05382500000002,
            "velocity": 0.6929133858267716
          }
        ]
      },
      {
        "channel": 0,
        "controlChanges": {
          "0": [
            {
              "number": 0,
              "ticks": 905,
              "time": 1.019143125,
              "value": 0
            },
            {
              "number": 0,
              "ticks": 925,
              "time": 1.041665625,
              "value": 0
            }
          ],
          "32": [
            {
              "number": 32,
              "ticks": 915,
              "time": 1.030404375,
              "value": 0
            }
          ]
        },
        "pitchBends": [],
        "instrument": {
          "family": "piano",
          "number": 0,
          "name": "acoustic grand piano"
        },
        "name": "",
        "notes": []
      },
      {
        "channel": 7,
        "controlChanges": {
          "6": [
            {
              "number": 6,
              "ticks": 1025,
              "time": 1.154278125,
              "value": 0.015748031496062992
            },
            {
              "number": 6,
              "ticks": 1055,
              "time": 1.188061875,
              "value": 0.5039370078740157
            }
          ],
          "7": [
            {
              "number": 7,
              "ticks": 945,
              "time": 1.064188125,
              "value": 0.4251968503937008
            },
            {
              "number": 7,
              "ticks": 69105,
              "time": 77.820868125,
              "value": 0.49606299212598426
            },
            {
              "number": 7,
              "ticks": 84465,
              "time": 95.118148125,
              "value": 0.4251968503937008
            },
            {
              "number": 7,
              "ticks": 159345,
              "time": 179.442388125,
              "value": 0.49606299212598426
            },
            {
              "number": 7,
              "ticks": 174705,
              "time": 196.739668125,
              "value": 0.4251968503937008
            },
            {
              "number": 7,
              "ticks": 180465,
              "time": 203.226148125,
              "value": 0.5118110236220472
            },
            {
              "number": 7,
              "ticks": 197745,
              "time": 222.685588125,
              "value": 0.4409448818897638
            }
          ],
          "10": [
            {
              "number": 10,
              "ticks": 965,
              "time": 1.086710625,
              "value": 0.952755905511811
            }
          ],
          "11": [
            {
              "number": 11,
              "ticks": 955,
              "time": 1.075449375,
              "value": 1
            },
            {
              "number": 11,
              "ticks": 54710,
              "time": 61.610298750000005,
              "value": 1
            },
            {
              "number": 11,
              "ticks": 54855,
              "time": 61.773586875,
              "value": 0.9133858267716536
            },
            {
              "number": 11,
              "ticks": 54905,
              "time": 61.829893125000005,
              "value": 0.8267716535433071
            },
            {
              "number": 11,
              "ticks": 54955,
              "time": 61.886199375,
              "value": 0.7401574803149606
            },
            {
              "number": 11,
              "ticks": 55005,
              "time": 61.942505625,
              "value": 0.6850393700787402
            },
            {
              "number": 11,
              "ticks": 55070,
              "time": 62.01570375000001,
              "value": 1
            },
            {
              "number": 11,
              "ticks": 55225,
              "time": 62.190253125,
              "value": 0.9291338582677166
            },
            {
              "number": 11,
              "ticks": 55265,
              "time": 62.23529812500001,
              "value": 0.8503937007874016
            },
            {
              "number": 11,
              "ticks": 55305,
              "time": 62.280343125,
              "value": 0.7795275590551181
            },
            {
              "number": 11,
              "ticks": 55345,
              "time": 62.325388124999996,
              "value": 0.7007874015748031
            },
            {
              "number": 11,
              "ticks": 55395,
              "time": 62.381694375,
              "value": 1
            },
            {
              "number": 11,
              "ticks": 144950,
              "time": 163.23181875000003,
              "value": 1
            },
            {
              "number": 11,
              "ticks": 145095,
              "time": 163.395106875,
              "value": 0.9133858267716536
            },
            {
              "number": 11,
              "ticks": 145145,
              "time": 163.45141312500002,
              "value": 0.8267716535433071
            },
            {
              "number": 11,
              "ticks": 145195,
              "time": 163.507719375,
              "value": 0.7401574803149606
            },
            {
              "number": 11,
              "ticks": 145245,
              "time": 163.564025625,
              "value": 0.6850393700787402
            },
            {
              "number": 11,
              "ticks": 145310,
              "time": 163.63722375,
              "value": 1
            },
            {
              "number": 11,
              "ticks": 145465,
              "time": 163.811773125,
              "value": 0.9291338582677166
            },
            {
              "number": 11,
              "ticks": 145505,
              "time": 163.85681812500002,
              "value": 0.8503937007874016
            },
            {
              "number": 11,
              "ticks": 145545,
              "time": 163.901863125,
              "value": 0.7795275590551181
            },
            {
              "number": 11,
              "ticks": 145585,
              "time": 163.946908125,
              "value": 0.7007874015748031
            },
            {
              "number": 11,
              "ticks": 145635,
              "time": 164.003214375,
              "value": 1
            }
          ],
          "38": [
            {
              "number": 38,
              "ticks": 1015,
              "time": 1.143016875,
              "value": 0.015748031496062992
            }
          ],
          "91": [
            {
              "number": 91,
              "ticks": 975,
              "time": 1.097971875,
              "value": 0.3937007874015748
            }
          ],
          "93": [
            {
              "number": 93,
              "ticks": 985,
              "time": 1.109233125,
              "value": 0.09448818897637795
            }
          ],
          "98": [
            {
              "number": 98,
              "ticks": 1045,
              "time": 1.176800625,
              "value": 0.25196850393700787
            }
          ],
          "99": [
            {
              "number": 99,
              "ticks": 1035,
              "time": 1.165539375,
              "value": 0.007874015748031496
            }
          ],
          "100": [
            {
              "number": 100,
              "ticks": 1005,
              "time": 1.131755625,
              "value": 0
            }
          ],
          "101": [
            {
              "number": 101,
              "ticks": 995,
              "time": 1.120494375,
              "value": 0
            }
          ]
        },
        "pitchBends": [],
        "instrument": {
          "family": "guitar",
          "number": 25,
          "name": "acoustic guitar (steel)"
        },
        "name": "",
        "notes": [
          {
            "duration": 0.24774749999999557,
            "durationTicks": 220,
            "midi": 48,
            "name": "C3",
            "ticks": 26875,
            "time": 30.264609375000003,
            "velocity": 0.3937007874015748
          },
          {
            "duration": 0.23648624999999868,
            "durationTicks": 210,
            "midi": 55,
            "name": "G3",
            "ticks": 26885,
            "time": 30.275870625,
            "velocity": 0.3543307086614173
          },
          {
            "duration": 0.045044999999998225,
            "durationTicks": 40,
            "midi": 55,
            "name": "G3",
            "ticks": 27115,
            "time": 30.534879375000003,
            "velocity": 0.5354330708661418
          },
          {
            "duration": 0.033783750000001334,
            "durationTicks": 30,
            "midi": 58,
            "name": "A#3",
            "ticks": 27120,
            "time": 30.54051,
            "velocity": 0.6929133858267716
          },
          {
            "duration": 0.022522500000004442,
            "durationTicks": 20,
            "midi": 63,
            "name": "D#4",
            "ticks": 27125,
            "time": 30.546140625,
            "velocity": 0.7086614173228346
          },
          {
            "duration": 0.011261250000000445,
            "durationTicks": 10,
            "midi": 63,
            "name": "D#4",
            "ticks": 27275,
            "time": 30.715059375,
            "velocity": 0.33858267716535434
          },
          {
            "duration": 0.011261250000000445,
            "durationTicks": 10,
            "midi": 58,
            "name": "A#3",
            "ticks": 27280,
            "time": 30.72069,
            "velocity": 0.4251968503937008
          },
          {
            "duration": 0.011261250000003997,
            "durationTicks": 10,
            "midi": 55,
            "name": "G3",
            "ticks": 27285,
            "time": 30.726320625,
            "velocity": 0.4330708661417323
          },
          {
            "duration": 0.23648624999999868,
            "durationTicks": 210,
            "midi": 48,
            "name": "C3",
            "ticks": 27355,
            "time": 30.805149375000003,
            "velocity": 0.3937007874015748
          },
          {
            "duration": 0.22522500000000178,
            "durationTicks": 200,
            "midi": 55,
            "name": "G3",
            "ticks": 27365,
            "time": 30.816410625,
            "velocity": 0.3937007874015748
          },
          {
            "duration": 0.022522499999997336,
            "durationTicks": 20,
            "midi": 55,
            "name": "G3",
            "ticks": 27595,
            "time": 31.075419375000003,
            "velocity": 0.5354330708661418
          },
          {
            "duration": 0.033783750000001334,
            "durationTicks": 30,
            "midi": 58,
            "name": "A#3",
            "ticks": 27605,
            "time": 31.086680625,
            "velocity": 0.6929133858267716
          },
          {
            "duration": 0.02252250000000089,
            "durationTicks": 20,
            "midi": 63,
            "name": "D#4",
            "ticks": 27615,
            "time": 31.097941875,
            "velocity": 0.7086614173228346
          },
          {
            "duration": 0.24774749999999557,
            "durationTicks": 220,
            "midi": 48,
            "name": "C3",
            "ticks": 27835,
            "time": 31.345689375000003,
            "velocity": 0.3937007874015748
          },
          {
            "duration": 0.23648624999999868,
            "durationTicks": 210,
            "midi": 55,
            "name": "G3",
            "ticks": 27845,
            "time": 31.356950625,
            "velocity": 0.3543307086614173
          },
          {
            "duration": 0.045044999999998225,
            "durationTicks": 40,
            "midi": 55,
            "name": "G3",
            "ticks": 28075,
            "time": 31.615959375000003,
            "velocity": 0.5354330708661418
          },
          {
            "duration": 0.033783750000001334,
            "durationTicks": 30,
            "midi": 58,
            "name": "A#3",
            "ticks": 28085,
            "time": 31.627220625,
            "velocity": 0.6929133858267716
          },
          {
            "duration": 0.02252250000000089,
            "durationTicks": 20,
            "midi": 63,
            "name": "D#4",
            "ticks": 28095,
            "time": 31.638481875,
            "velocity": 0.7086614173228346
          },
          {
            "duration": 0.011261250000000445,
            "durationTicks": 10,
            "midi": 63,
            "name": "D#4",
            "ticks": 28235,
            "time": 31.796139375,
            "velocity": 0.33858267716535434
          },
          {
            "duration": 0.011261250000000445,
            "durationTicks": 10,
            "midi": 58,
            "name": "A#3",
            "ticks": 28240,
            "time": 31.80177,
            "velocity": 0.41732283464566927
          },
          {
            "duration": 0.011261250000003997,
            "durationTicks": 10,
            "midi": 55,
            "name": "G3",
            "ticks": 28245,
            "time": 31.807400625,
            "velocity": 0.4330708661417323
          },
          {
            "duration": 0.24774749999999912,
            "durationTicks": 220,
            "midi": 48,
            "name": "C3",
            "ticks": 28315,
            "time": 31.886229375000003,
            "velocity": 0.3937007874015748
          },
          {
            "duration": 0.23648625000000223,
            "durationTicks": 210,
            "midi": 55,
            "name": "G3",
            "ticks": 28325,
            "time": 31.897490625,
            "velocity": 0.3543307086614173
          },
          {
            "duration": 0.04504499999999467,
            "durationTicks": 40,
            "midi": 55,
            "name": "G3",
            "ticks": 28555,
            "time": 32.156499375,
            "velocity": 0.5354330708661418
          },
          {
            "duration": 0.03378374999999778,
            "durationTicks": 30,
            "midi": 58,
            "name": "A#3",
            "ticks": 28560,
            "time": 32.162130000000005,
            "velocity": 0.6929133858267716
          },
          {
            "duration": 0.02252250000000089,
            "durationTicks": 20,
            "midi": 63,
            "name": "D#4",
            "ticks": 28565,
            "time": 32.167760625,
            "velocity": 0.7086614173228346
          },
          {
            "duration": 0.24774750000000267,
            "durationTicks": 220,
            "midi": 48,
            "name": "C3",
            "ticks": 28795,
            "time": 32.426769375,
            "velocity": 0.3937007874015748
          },
          {
            "duration": 0.23648624999999868,
            "durationTicks": 210,
            "midi": 55,
            "name": "G3",
            "ticks": 28805,
            "time": 32.438030625,
            "velocity": 0.3543307086614173
          },
          {
            "duration": 0.04504499999999467,
            "durationTicks": 40,
            "midi": 55,
            "name": "G3",
            "ticks": 29035,
            "time": 32.697039375,
            "velocity": 0.5354330708661418
          },
          {
            "duration": 0.03378374999999778,
            "durationTicks": 30,
            "midi": 58,
            "name": "A#3",
            "ticks": 29045,
            "time": 32.708300625,
            "velocity": 0.6929133858267716
          },
          {
            "duration": 0.022522499999993784,
            "durationTicks": 20,
            "midi": 63,
            "name": "D#4",
            "ticks": 29055,
            "time": 32.719561875000004,
            "velocity": 0.7086614173228346
          },
          {
            "duration": 0.011261249999996892,
            "durationTicks": 10,
            "midi": 63,
            "name": "D#4",
            "ticks": 29195,
            "time": 32.877219375,
            "velocity": 0.33858267716535434
          },
          {
            "duration": 0.011261249999996892,
            "durationTicks": 10,
            "midi": 58,
            "name": "A#3",
            "ticks": 29200,
            "time": 32.882850000000005,
            "velocity": 0.41732283464566927
          },
          {
            "duration": 0.011261250000003997,
            "durationTicks": 10,
            "midi": 55,
            "name": "G3",
            "ticks": 29205,
            "time": 32.888480625,
            "velocity": 0.4330708661417323
          },
          {
            "duration": 0.24774750000000267,
            "durationTicks": 220,
            "midi": 48,
            "name": "C3",
            "ticks": 29275,
            "time": 32.967309375,
            "velocity": 0.3937007874015748
          },
          {
            "duration": 0.23648624999999868,
            "durationTicks": 210,
            "midi": 55,
            "name": "G3",
            "ticks": 29285,
            "time": 32.978570625,
            "velocity": 0.3543307086614173
          },
          {
            "duration": 0.04504499999999467,
            "durationTicks": 40,
            "midi": 55,
            "name": "G3",
            "ticks": 29515,
            "time": 33.237579375,
            "velocity": 0.5354330708661418
          },
          {
            "duration": 0.03378374999999778,
            "durationTicks": 30,
            "midi": 58,
            "name": "A#3",
            "ticks": 29525,
            "time": 33.248840625,
            "velocity": 0.6929133858267716
          },
          {
            "duration": 0.022522499999993784,
            "durationTicks": 20,
            "midi": 63,
            "name": "D#4",
            "ticks": 29535,
            "time": 33.260101875000004,
            "velocity": 0.7086614173228346
          },
          {
            "duration": 0.24774750000000267,
            "durationTicks": 220,
            "midi": 48,
            "name": "C3",
            "ticks": 29755,
            "time": 33.507849375,
            "velocity": 0.3937007874015748
          },
          {
            "duration": 0.23648624999999868,
            "durationTicks": 210,
            "midi": 55,
            "name": "G3",
            "ticks": 29765,
            "time": 33.519110625,
            "velocity": 0.3543307086614173
          },
          {
            "duration": 0.04504499999999467,
            "durationTicks": 40,
            "midi": 55,
            "name": "G3",
            "ticks": 29995,
            "time": 33.778119375,
            "velocity": 0.5354330708661418
          },
          {
            "duration": 0.03378374999999778,
            "durationTicks": 30,
            "midi": 60,
            "name": "C4",
            "ticks": 30005,
            "time": 33.789380625,
            "velocity": 0.7322834645669292
          },
          {
            "duration": 0.022522499999993784,
            "durationTicks": 20,
            "midi": 63,
            "name": "D#4",
            "ticks": 30015,
            "time": 33.800641875000004,
            "velocity": 0.7086614173228346
          },
          {
            "duration": 0.011261249999996892,
            "durationTicks": 10,
            "midi": 63,
            "name": "D#4",
            "ticks": 30155,
            "time": 33.958299375,
            "velocity": 0.33858267716535434
          },
          {
            "duration": 0.011261249999996892,
            "durationTicks": 10,
            "midi": 60,
            "name": "C4",
            "ticks": 30160,
            "time": 33.963930000000005,
            "velocity": 0.4566929133858268
          },
          {
            "duration": 0.011261250000003997,
            "durationTicks": 10,
            "midi": 55,
            "name": "G3",
            "ticks": 30165,
            "time": 33.969560625,
            "velocity": 0.4330708661417323
          },
          {
            "duration": 0.24774750000000267,
            "durationTicks": 220,
            "midi": 50,
            "name": "D3",
            "ticks": 30235,
            "time": 34.048389375,
            "velocity": 0.3937007874015748
          },
          {
            "duration": 0.23648624999999868,
            "durationTicks": 210,
            "midi": 54,
            "name": "F#3",
            "ticks": 30245,
            "time": 34.059650625,
            "velocity": 0.3543307086614173
          },
          {
            "duration": 0.14639624999999512,
            "durationTicks": 130,
            "midi": 54,
            "name": "F#3",
            "ticks": 30475,
            "time": 34.318659375,
            "velocity": 0.5354330708661418
          },
          {
            "duration": 0.13513499999999823,
            "durationTicks": 120,
            "midi": 60,
            "name": "C4",
            "ticks": 30485,
            "time": 34.329920625,
            "velocity": 0.6929133858267716
          },
          {
            "duration": 0.12387374999999423,
            "durationTicks": 110,
            "midi": 63,
            "name": "D#4",
            "ticks": 30495,
            "time": 34.341181875000004,
            "velocity": 0.7086614173228346
          },
          {
            "duration": 0.24774750000000267,
            "durationTicks": 220,
            "midi": 43,
            "name": "G2",
            "ticks": 30715,
            "time": 34.588929375,
            "velocity": 0.3937007874015748
          },
          {
            "duration": 0.23648624999999868,
            "durationTicks": 210,
            "midi": 50,
            "name": "D3",
            "ticks": 30725,
            "time": 34.600190625,
            "velocity": 0.3543307086614173
          },
          {
            "duration": 0.045045000000008883,
            "durationTicks": 40,
            "midi": 53,
            "name": "F3",
            "ticks": 30955,
            "time": 34.859199374999996,
            "velocity": 0.5354330708661418
          },
          {
            "duration": 0.03378374999999778,
            "durationTicks": 30,
            "midi": 58,
            "name": "A#3",
            "ticks": 30965,
            "time": 34.87046062500001,
            "velocity": 0.6929133858267716
          },
          {
            "duration": 0.02252250000000089,
            "durationTicks": 20,
            "midi": 62,
            "name": "D4",
            "ticks": 30975,
            "time": 34.881721875000004,
            "velocity": 0.7086614173228346
          },
          {
            "duration": 0.011261249999996892,
            "durationTicks": 10,
            "midi": 62,
            "name": "D4",
            "ticks": 31115,
            "time": 35.039379375,
            "velocity": 0.33858267716535434
          },
          {
            "duration": 0.011261250000003997,
            "durationTicks": 10,
            "midi": 58,
            "name": "A#3",
            "ticks": 31120,
            "time": 35.04501,
            "velocity": 0.41732283464566927
          },
          {
            "duration": 0.011261249999996892,
            "durationTicks": 10,
            "midi": 53,
            "name": "F3",
            "ticks": 31125,
            "time": 35.050640625,
            "velocity": 0.4330708661417323
          },
          {
            "duration": 0.24774750000000267,
            "durationTicks": 220,
            "midi": 43,
            "name": "G2",
            "ticks": 31195,
            "time": 35.129469375,
            "velocity": 0.3937007874015748
          },
          {
            "duration": 0.23648624999999868,
            "durationTicks": 210,
            "midi": 50,
            "name": "D3",
            "ticks": 31205,
            "time": 35.140730625,
            "velocity": 0.3543307086614173
          },
          {
            "duration": 0.045045000000008883,
            "durationTicks": 40,
            "midi": 53,
            "name": "F3",
            "ticks": 31435,
            "time": 35.399739374999996,
            "velocity": 0.5354330708661418
          },
          {
            "duration": 0.03378374999999778,
            "durationTicks": 30,
            "midi": 58,
            "name": "A#3",
            "ticks": 31445,
            "time": 35.41100062500001,
            "velocity": 0.6929133858267716
          },
          {
            "duration": 0.02252250000000089,
            "durationTicks": 20,
            "midi": 62,
            "name": "D4",
            "ticks": 31455,
            "time": 35.422261875000004,
            "velocity": 0.7086614173228346
          },
          {
            "duration": 0.24774750000000267,
            "durationTicks": 220,
            "midi": 43,
            "name": "G2",
            "ticks": 31675,
            "time": 35.670009375,
            "velocity": 0.3937007874015748
          },
          {
            "duration": 0.23648624999999868,
            "durationTicks": 210,
            "midi": 50,
            "name": "D3",
            "ticks": 31685,
            "time": 35.681270625,
            "velocity": 0.3543307086614173
          },
          {
            "duration": 0.07882875000000666,
            "durationTicks": 70,
            "midi": 53,
            "name": "F3",
            "ticks": 31915,
            "time": 35.940279374999996,
            "velocity": 0.5354330708661418
          },
          {
            "duration": 0.06756749999999556,
            "durationTicks": 60,
            "midi": 58,
            "name": "A#3",
            "ticks": 31925,
            "time": 35.95154062500001,
            "velocity": 0.6929133858267716
          },
          {
            "duration": 0.05630624999999867,
            "durationTicks": 50,
            "midi": 62,
            "name": "D4",
            "ticks": 31935,
            "time": 35.962801875000004,
            "velocity": 0.7086614173228346
          },
          {
            "duration": 0.011261249999996892,
            "durationTicks": 10,
            "midi": 62,
            "name": "D4",
            "ticks": 32075,
            "time": 36.120459375,
            "velocity": 0.33858267716535434
          },
          {
            "duration": 0.011261250000003997,
            "durationTicks": 10,
            "midi": 58,
            "name": "A#3",
            "ticks": 32080,
            "time": 36.12609,
            "velocity": 0.41732283464566927
          },
          {
            "duration": 0.011261249999996892,
            "durationTicks": 10,
            "midi": 53,
            "name": "F3",
            "ticks": 32085,
            "time": 36.131720625,
            "velocity": 0.4330708661417323
          },
          {
            "duration": 0.24774750000000267,
            "durationTicks": 220,
            "midi": 43,
            "name": "G2",
            "ticks": 32155,
            "time": 36.210549375,
            "velocity": 0.3937007874015748
          },
          {
            "duration": 0.23648624999999868,
            "durationTicks": 210,
            "midi": 50,
            "name": "D3",
            "ticks": 32165,
            "time": 36.221810625,
            "velocity": 0.3543307086614173
          },
          {
            "duration": 0.045045000000008883,
            "durationTicks": 40,
            "midi": 53,
            "name": "F3",
            "ticks": 32395,
            "time": 36.480819374999996,
            "velocity": 0.5354330708661418
          },
          {
            "duration": 0.03378374999999778,
            "durationTicks": 30,
            "midi": 58,
            "name": "A#3",
            "ticks": 32405,
            "time": 36.49208062500001,
            "velocity": 0.6929133858267716
          },
          {
            "duration": 0.02252250000000089,
            "durationTicks": 20,
            "midi": 62,
            "name": "D4",
            "ticks": 32415,
            "time": 36.503341875000004,
            "velocity": 0.7086614173228346
          },
          {
            "duration": 0.24774750000000267,
            "durationTicks": 220,
            "midi": 43,
            "name": "G2",
            "ticks": 32635,
            "time": 36.751089375,
            "velocity": 0.3937007874015748
          },
          {
            "duration": 0.23648624999999868,
            "durationTicks": 210,
            "midi": 50,
            "name": "D3",
            "ticks": 32645,
            "time": 36.762350625,
            "velocity": 0.3543307086614173
          },
          {
            "duration": 0.045045000000008883,
            "durationTicks": 40,
            "midi": 53,
            "name": "F3",
            "ticks": 32875,
            "time": 37.021359374999996,
            "velocity": 0.5354330708661418
          },
          {
            "duration": 0.03378374999999778,
            "durationTicks": 30,
            "midi": 58,
            "name": "A#3",
            "ticks": 32885,
            "time": 37.03262062500001,
            "velocity": 0.6929133858267716
          },
          {
            "duration": 0.02252250000000089,
            "durationTicks": 20,
            "midi": 62,
            "name": "D4",
            "ticks": 32895,
            "time": 37.043881875000004,
            "velocity": 0.7086614173228346
          },
          {
            "duration": 0.011261249999996892,
            "durationTicks": 10,
            "midi": 62,
            "name": "D4",
            "ticks": 33035,
            "time": 37.201539375,
            "velocity": 0.33858267716535434
          },
          {
            "duration": 0.011261250000003997,
            "durationTicks": 10,
            "midi": 58,
            "name": "A#3",
            "ticks": 33040,
            "time": 37.20717,
            "velocity": 0.41732283464566927
          },
          {
            "duration": 0.011261249999996892,
            "durationTicks": 10,
            "midi": 53,
            "name": "F3",
            "ticks": 33045,
            "time": 37.212800625,
            "velocity": 0.4330708661417323
          },
          {
            "duration": 0.24774750000000267,
            "durationTicks": 220,
            "midi": 43,
            "name": "G2",
            "ticks": 33115,
            "time": 37.291629375,
            "velocity": 0.3937007874015748
          },
          {
            "duration": 0.23648624999999868,
            "durationTicks": 210,
            "midi": 50,
            "name": "D3",
            "ticks": 33125,
            "time": 37.302890625,
            "velocity": 0.3543307086614173
          },
          {
            "duration": 0.07882875000000666,
            "durationTicks": 70,
            "midi": 53,
            "name": "F3",
            "ticks": 33355,
            "time": 37.561899374999996,
            "velocity": 0.5354330708661418
          },
          {
            "duration": 0.056306249999991564,
            "durationTicks": 50,
            "midi": 58,
            "name": "A#3",
            "ticks": 33365,
            "time": 37.57316062500001,
            "velocity": 0.6929133858267716
          },
          {
            "duration": 0.05630624999999867,
            "durationTicks": 50,
            "midi": 62,
            "name": "D4",
            "ticks": 33375,
            "time": 37.584421875000004,
            "velocity": 0.7086614173228346
          },
          {
            "duration": 0.24774750000000267,
            "durationTicks": 220,
            "midi": 43,
            "name": "G2",
            "ticks": 33595,
            "time": 37.832169375,
            "velocity": 0.3937007874015748
          },
          {
            "duration": 0.23648624999999868,
            "durationTicks": 210,
            "midi": 50,
            "name": "D3",
            "ticks": 33605,
            "time": 37.843430625,
            "velocity": 0.3543307086614173
          },
          {
            "duration": 0.045045000000008883,
            "durationTicks": 40,
            "midi": 53,
            "name": "F3",
            "ticks": 33835,
            "time": 38.102439374999996,
            "velocity": 0.5354330708661418
          },
          {
            "duration": 0.03378374999999778,
            "durationTicks": 30,
            "midi": 58,
            "name": "A#3",
            "ticks": 33845,
            "time": 38.11370062500001,
            "velocity": 0.6929133858267716
          },
          {
            "duration": 0.02252250000000089,
            "durationTicks": 20,
            "midi": 62,
            "name": "D4",
            "ticks": 33855,
            "time": 38.124961875000004,
            "velocity": 0.7086614173228346
          },
          {
            "duration": 0.011261249999996892,
            "durationTicks": 10,
            "midi": 62,
            "name": "D4",
            "ticks": 33995,
            "time": 38.282619375,
            "velocity": 0.33858267716535434
          },
          {
            "duration": 0.011261250000003997,
            "durationTicks": 10,
            "midi": 58,
            "name": "A#3",
            "ticks": 34000,
            "time": 38.28825,
            "velocity": 0.41732283464566927
          },
          {
            "duration": 0.011261249999996892,
            "durationTicks": 10,
            "midi": 53,
            "name": "F3",
            "ticks": 34005,
            "time": 38.293880625,
            "velocity": 0.4330708661417323
          },
          {
            "duration": 0.24774750000000267,
            "durationTicks": 220,
            "midi": 43,
            "name": "G2",
            "ticks": 34075,
            "time": 38.372709375,
            "velocity": 0.3937007874015748
          },
          {
            "duration": 0.23648624999999868,
            "durationTicks": 210,
            "midi": 50,
            "name": "D3",
            "ticks": 34085,
            "time": 38.383970625,
            "velocity": 0.3543307086614173
          },
          {
            "duration": 0.045045000000008883,
            "durationTicks": 40,
            "midi": 53,
            "name": "F3",
            "ticks": 34315,
            "time": 38.642979374999996,
            "velocity": 0.5354330708661418
          },
          {
            "duration": 0.03378374999999778,
            "durationTicks": 30,
            "midi": 58,
            "name": "A#3",
            "ticks": 34325,
            "time": 38.65424062500001,
            "velocity": 0.6929133858267716
          },
          {
            "duration": 0.02252250000000089,
            "durationTicks": 20,
            "midi": 62,
            "name": "D4",
            "ticks": 34335,
            "time": 38.665501875000004,
            "velocity": 0.7086614173228346
          },
          {
            "duration": 0.24774750000000267,
            "durationTicks": 220,
            "midi": 48,
            "name": "C3",
            "ticks": 34555,
            "time": 38.913249375,
            "velocity": 0.3937007874015748
          },
          {
            "duration": 0.23648624999999868,
            "durationTicks": 210,
            "midi": 55,
            "name": "G3",
            "ticks": 34565,
            "time": 38.924510625,
            "velocity": 0.3543307086614173
          },
          {
            "duration": 0.045045000000008883,
            "durationTicks": 40,
            "midi": 55,
            "name": "G3",
            "ticks": 34795,
            "time": 39.183519374999996,
            "velocity": 0.5354330708661418
          },
          {
            "duration": 0.033783750000004886,
            "durationTicks": 30,
            "midi": 58,
            "name": "A#3",
            "ticks": 34800,
            "time": 39.18915,
            "velocity": 0.6929133858267716
          },
          {
            "duration": 0.022522499999993784,
            "durationTicks": 20,
            "midi": 62,
            "name": "D4",
            "ticks": 34805,
            "time": 39.19478062500001,
            "velocity": 0.7086614173228346
          },
          {
            "duration": 0.011261249999996892,
            "durationTicks": 10,
            "midi": 62,
            "name": "D4",
            "ticks": 34955,
            "time": 39.363699375,
            "velocity": 0.33858267716535434
          },
          {
            "duration": 0.011261250000003997,
            "durationTicks": 10,
            "midi": 58,
            "name": "A#3",
            "ticks": 34960,
            "time": 39.36933,
            "velocity": 0.41732283464566927
          },
          {
            "duration": 0.011261249999996892,
            "durationTicks": 10,
            "midi": 55,
            "name": "G3",
            "ticks": 34965,
            "time": 39.374960625,
            "velocity": 0.4330708661417323
          },
          {
            "duration": 0.24774750000000267,
            "durationTicks": 220,
            "midi": 48,
            "name": "C3",
            "ticks": 35035,
            "time": 39.453789375,
            "velocity": 0.3937007874015748
          },
          {
            "duration": 0.23648624999999868,
            "durationTicks": 210,
            "midi": 55,
            "name": "G3",
            "ticks": 35045,
            "time": 39.465050625,
            "velocity": 0.3543307086614173
          },
          {
            "duration": 0.022522500000007994,
            "durationTicks": 20,
            "midi": 55,
            "name": "G3",
            "ticks": 35275,
            "time": 39.724059374999996,
            "velocity": 0.5354330708661418
          },
          {
            "duration": 0.03378374999999778,
            "durationTicks": 30,
            "midi": 58,
            "name": "A#3",
            "ticks": 35285,
            "time": 39.73532062500001,
            "velocity": 0.6929133858267716
          },
          {
            "duration": 0.02252250000000089,
            "durationTicks": 20,
            "midi": 62,
            "name": "D4",
            "ticks": 35295,
            "time": 39.746581875000004,
            "velocity": 0.7086614173228346
          },
          {
            "duration": 0.24774750000000267,
            "durationTicks": 220,
            "midi": 48,
            "name": "C3",
            "ticks": 35515,
            "time": 39.994329375,
            "velocity": 0.3937007874015748
          },
          {
            "duration": 0.23648624999999868,
            "durationTicks": 210,
            "midi": 55,
            "name": "G3",
            "ticks": 35525,
            "time": 40.005590625,
            "velocity": 0.3543307086614173
          },
          {
            "duration": 0.07882875000000666,
            "durationTicks": 70,
            "midi": 55,
            "name": "G3",
            "ticks": 35755,
            "time": 40.264599374999996,
            "velocity": 0.5354330708661418
          },
          {
            "duration": 0.06756749999999556,
            "durationTicks": 60,
            "midi": 58,
            "name": "A#3",
            "ticks": 35765,
            "time": 40.27586062500001,
            "velocity": 0.6929133858267716
          },
          {
            "duration": 0.05630624999999867,
            "durationTicks": 50,
            "midi": 62,
            "name": "D4",
            "ticks": 35775,
            "time": 40.287121875000004,
            "velocity": 0.7086614173228346
          },
          {
            "duration": 0.011261249999996892,
            "durationTicks": 10,
            "midi": 62,
            "name": "D4",
            "ticks": 35915,
            "time": 40.444779375,
            "velocity": 0.33858267716535434
          },
          {
            "duration": 0.011261250000003997,
            "durationTicks": 10,
            "midi": 58,
            "name": "A#3",
            "ticks": 35920,
            "time": 40.45041,
            "velocity": 0.41732283464566927
          },
          {
            "duration": 0.011261249999996892,
            "durationTicks": 10,
            "midi": 55,
            "name": "G3",
            "ticks": 35925,
            "time": 40.456040625,
            "velocity": 0.4330708661417323
          },
          {
            "duration": 0.011261250000003997,
            "durationTicks": 10,
            "midi": 48,
            "name": "C3",
            "ticks": 35995,
            "time": 40.534869375,
            "velocity": 0.6062992125984252
          },
          {
            "duration": 0.011261249999996892,
            "durationTicks": 10,
            "midi": 55,
            "name": "G3",
            "ticks": 36005,
            "time": 40.546130625,
            "velocity": 0.5905511811023622
          },
          {
            "duration": 0.349098749999996,
            "durationTicks": 310,
            "midi": 63,
            "name": "D#4",
            "ticks": 36155,
            "time": 40.71504937500001,
            "velocity": 0.6929133858267716
          },
          {
            "duration": 0.3378374999999991,
            "durationTicks": 300,
            "midi": 59,
            "name": "B3",
            "ticks": 36160,
            "time": 40.72068,
            "velocity": 0.6771653543307087
          },
          {
            "duration": 0.3378374999999991,
            "durationTicks": 300,
            "midi": 53,
            "name": "F3",
            "ticks": 36165,
            "time": 40.726310625,
            "velocity": 0.6771653543307087
          },
          {
            "duration": 0.24774750000000267,
            "durationTicks": 220,
            "midi": 48,
            "name": "C3",
            "ticks": 36475,
            "time": 41.075409375,
            "velocity": 0.3937007874015748
          },
          {
            "duration": 0.23648624999999868,
            "durationTicks": 210,
            "midi": 55,
            "name": "G3",
            "ticks": 36485,
            "time": 41.086670625000004,
            "velocity": 0.3543307086614173
          },
          {
            "duration": 0.045045000000008883,
            "durationTicks": 40,
            "midi": 55,
            "name": "G3",
            "ticks": 36715,
            "time": 41.345679374999996,
            "velocity": 0.5354330708661418
          },
          {
            "duration": 0.033783750000004886,
            "durationTicks": 30,
            "midi": 58,
            "name": "A#3",
            "ticks": 36720,
            "time": 41.35131,
            "velocity": 0.6929133858267716
          },
          {
            "duration": 0.03378374999999778,
            "durationTicks": 30,
            "midi": 62,
            "name": "D4",
            "ticks": 36725,
            "time": 41.35694062500001,
            "velocity": 0.7086614173228346
          },
          {
            "duration": 0.011261249999996892,
            "durationTicks": 10,
            "midi": 62,
            "name": "D4",
            "ticks": 36875,
            "time": 41.525859375,
            "velocity": 0.33858267716535434
          },
          {
            "duration": 0.011261250000003997,
            "durationTicks": 10,
            "midi": 58,
            "name": "A#3",
            "ticks": 36880,
            "time": 41.53149,
            "velocity": 0.41732283464566927
          },
          {
            "duration": 0.011261249999996892,
            "durationTicks": 10,
            "midi": 55,
            "name": "G3",
            "ticks": 36885,
            "time": 41.537120625,
            "velocity": 0.4330708661417323
          },
          {
            "duration": 0.24774750000000267,
            "durationTicks": 220,
            "midi": 48,
            "name": "C3",
            "ticks": 36955,
            "time": 41.615949375,
            "velocity": 0.3937007874015748
          },
          {
            "duration": 0.23648624999999868,
            "durationTicks": 210,
            "midi": 55,
            "name": "G3",
            "ticks": 36965,
            "time": 41.627210625000004,
            "velocity": 0.3543307086614173
          },
          {
            "duration": 0.022522500000007994,
            "durationTicks": 20,
            "midi": 55,
            "name": "G3",
            "ticks": 37195,
            "time": 41.886219374999996,
            "velocity": 0.5354330708661418
          },
          {
            "duration": 0.06756749999999556,
            "durationTicks": 60,
            "midi": 58,
            "name": "A#3",
            "ticks": 37205,
            "time": 41.89748062500001,
            "velocity": 0.6929133858267716
          },
          {
            "duration": 0.04504499999999467,
            "durationTicks": 40,
            "midi": 62,
            "name": "D4",
            "ticks": 37215,
            "time": 41.908741875000004,
            "velocity": 0.7086614173228346
          },
          {
            "duration": 0.02252250000000089,
            "durationTicks": 20,
            "midi": 50,
            "name": "D3",
            "ticks": 37435,
            "time": 42.156489375,
            "velocity": 0.3937007874015748
          },
          {
            "duration": 0.07882875000000666,
            "durationTicks": 70,
            "midi": 54,
            "name": "F#3",
            "ticks": 37675,
            "time": 42.426759374999996,
            "velocity": 0.5354330708661418
          },
          {
            "duration": 0.06756750000000267,
            "durationTicks": 60,
            "midi": 60,
            "name": "C4",
            "ticks": 37680,
            "time": 42.43239,
            "velocity": 0.6929133858267716
          },
          {
            "duration": 0.06756749999999556,
            "durationTicks": 60,
            "midi": 63,
            "name": "D#4",
            "ticks": 37685,
            "time": 42.43802062500001,
            "velocity": 0.7086614173228346
          },
          {
            "duration": 0.011261249999996892,
            "durationTicks": 10,
            "midi": 63,
            "name": "D#4",
            "ticks": 37835,
            "time": 42.606939375,
            "velocity": 0.33858267716535434
          },
          {
            "duration": 0.011261250000003997,
            "durationTicks": 10,
            "midi": 60,
            "name": "C4",
            "ticks": 37840,
            "time": 42.61257,
            "velocity": 0.41732283464566927
          },
          {
            "duration": 0.011261249999996892,
            "durationTicks": 10,
            "midi": 54,
            "name": "F#3",
            "ticks": 37845,
            "time": 42.618200625,
            "velocity": 0.4330708661417323
          },
          {
            "duration": 0.02252250000000089,
            "durationTicks": 20,
            "midi": 50,
            "name": "D3",
            "ticks": 37915,
            "time": 42.697029375,
            "velocity": 0.3543307086614173
          },
          {
            "duration": 0.022522500000007994,
            "durationTicks": 20,
            "midi": 54,
            "name": "F#3",
            "ticks": 38155,
            "time": 42.967299374999996,
            "velocity": 0.5354330708661418
          },
          {
            "duration": 0.03378374999999778,
            "durationTicks": 30,
            "midi": 60,
            "name": "C4",
            "ticks": 38165,
            "time": 42.97856062500001,
            "velocity": 0.6929133858267716
          },
          {
            "duration": 0.02252250000000089,
            "durationTicks": 20,
            "midi": 63,
            "name": "D#4",
            "ticks": 38175,
            "time": 42.989821875000004,
            "velocity": 0.7086614173228346
          },
          {
            "duration": 0.24774750000000267,
            "durationTicks": 220,
            "midi": 43,
            "name": "G2",
            "ticks": 38395,
            "time": 43.237569375,
            "velocity": 0.3937007874015748
          },
          {
            "duration": 0.23648624999999868,
            "durationTicks": 210,
            "midi": 50,
            "name": "D3",
            "ticks": 38405,
            "time": 43.248830625000004,
            "velocity": 0.3543307086614173
          },
          {
            "duration": 0.045045000000008883,
            "durationTicks": 40,
            "midi": 53,
            "name": "F3",
            "ticks": 38635,
            "time": 43.507839374999996,
            "velocity": 0.5354330708661418
          },
          {
            "duration": 0.03378374999999778,
            "durationTicks": 30,
            "midi": 58,
            "name": "A#3",
            "ticks": 38645,
            "time": 43.51910062500001,
            "velocity": 0.6929133858267716
          },
          {
            "duration": 0.02252250000000089,
            "durationTicks": 20,
            "midi": 62,
            "name": "D4",
            "ticks": 38655,
            "time": 43.530361875000004,
            "velocity": 0.7086614173228346
          },
          {
            "duration": 0.011261249999996892,
            "durationTicks": 10,
            "midi": 62,
            "name": "D4",
            "ticks": 38795,
            "time": 43.688019375,
            "velocity": 0.33858267716535434
          },
          {
            "duration": 0.011261250000003997,
            "durationTicks": 10,
            "midi": 58,
            "name": "A#3",
            "ticks": 38800,
            "time": 43.69365,
            "velocity": 0.41732283464566927
          },
          {
            "duration": 0.011261249999996892,
            "durationTicks": 10,
            "midi": 53,
            "name": "F3",
            "ticks": 38805,
            "time": 43.699280625,
            "velocity": 0.4330708661417323
          },
          {
            "duration": 0.24774750000000267,
            "durationTicks": 220,
            "midi": 43,
            "name": "G2",
            "ticks": 38875,
            "time": 43.778109375,
            "velocity": 0.3937007874015748
          },
          {
            "duration": 0.23648624999999868,
            "durationTicks": 210,
            "midi": 50,
            "name": "D3",
            "ticks": 38885,
            "time": 43.789370625000004,
            "velocity": 0.3543307086614173
          },
          {
            "duration": 0.045045000000008883,
            "durationTicks": 40,
            "midi": 53,
            "name": "F3",
            "ticks": 39115,
            "time": 44.048379374999996,
            "velocity": 0.5354330708661418
          },
          {
            "duration": 0.03378374999999778,
            "durationTicks": 30,
            "midi": 58,
            "name": "A#3",
            "ticks": 39125,
            "time": 44.05964062500001,
            "velocity": 0.6929133858267716
          },
          {
            "duration": 0.02252250000000089,
            "durationTicks": 20,
            "midi": 62,
            "name": "D4",
            "ticks": 39135,
            "time": 44.070901875000004,
            "velocity": 0.7086614173228346
          },
          {
            "duration": 0.24774750000000267,
            "durationTicks": 220,
            "midi": 43,
            "name": "G2",
            "ticks": 39355,
            "time": 44.318649375,
            "velocity": 0.3937007874015748
          },
          {
            "duration": 0.23648624999999868,
            "durationTicks": 210,
            "midi": 50,
            "name": "D3",
            "ticks": 39365,
            "time": 44.329910625000004,
            "velocity": 0.3543307086614173
          },
          {
            "duration": 0.09009000000000356,
            "durationTicks": 80,
            "midi": 53,
            "name": "F3",
            "ticks": 39595,
            "time": 44.588919374999996,
            "velocity": 0.5354330708661418
          },
          {
            "duration": 0.07882874999999245,
            "durationTicks": 70,
            "midi": 58,
            "name": "A#3",
            "ticks": 39605,
            "time": 44.60018062500001,
            "velocity": 0.6929133858267716
          },
          {
            "duration": 0.06756749999999556,
            "durationTicks": 60,
            "midi": 62,
            "name": "D4",
            "ticks": 39615,
            "time": 44.611441875000004,
            "velocity": 0.7086614173228346
          },
          {
            "duration": 0.011261249999996892,
            "durationTicks": 10,
            "midi": 62,
            "name": "D4",
            "ticks": 39755,
            "time": 44.769099375,
            "velocity": 0.33858267716535434
          },
          {
            "duration": 0.011261250000003997,
            "durationTicks": 10,
            "midi": 58,
            "name": "A#3",
            "ticks": 39760,
            "time": 44.77473,
            "velocity": 0.41732283464566927
          },
          {
            "duration": 0.011261249999996892,
            "durationTicks": 10,
            "midi": 53,
            "name": "F3",
            "ticks": 39765,
            "time": 44.780360625,
            "velocity": 0.4330708661417323
          },
          {
            "duration": 0.24774750000000267,
            "durationTicks": 220,
            "midi": 43,
            "name": "G2",
            "ticks": 39835,
            "time": 44.859189375,
            "velocity": 0.3937007874015748
          },
          {
            "duration": 0.23648624999999868,
            "durationTicks": 210,
            "midi": 50,
            "name": "D3",
            "ticks": 39845,
            "time": 44.870450625000004,
            "velocity": 0.3543307086614173
          },
          {
            "duration": 0.09009000000000356,
            "durationTicks": 80,
            "midi": 53,
            "name": "F3",
            "ticks": 40075,
            "time": 45.129459374999996,
            "velocity": 0.5354330708661418
          },
          {
            "duration": 0.07882874999999245,
            "durationTicks": 70,
            "midi": 58,
            "name": "A#3",
            "ticks": 40085,
            "time": 45.14072062500001,
            "velocity": 0.6929133858267716
          },
          {
            "duration": 0.06756749999999556,
            "durationTicks": 60,
            "midi": 62,
            "name": "D4",
            "ticks": 40095,
            "time": 45.151981875000004,
            "velocity": 0.7086614173228346
          },
          {
            "duration": 0.24774750000000267,
            "durationTicks": 220,
            "midi": 43,
            "name": "G2",
            "ticks": 40315,
            "time": 45.399729375,
            "velocity": 0.3937007874015748
          },
          {
            "duration": 0.23648624999999868,
            "durationTicks": 210,
            "midi": 50,
            "name": "D3",
            "ticks": 40325,
            "time": 45.410990625000004,
            "velocity": 0.3543307086614173
          },
          {
            "duration": 0.09009000000000356,
            "durationTicks": 80,
            "midi": 53,
            "name": "F3",
            "ticks": 40555,
            "time": 45.669999374999996,
            "velocity": 0.5354330708661418
          },
          {
            "duration": 0.07882874999999245,
            "durationTicks": 70,
            "midi": 58,
            "name": "A#3",
            "ticks": 40565,
            "time": 45.68126062500001,
            "velocity": 0.6929133858267716
          },
          {
            "duration": 0.06756749999999556,
            "durationTicks": 60,
            "midi": 62,
            "name": "D4",
            "ticks": 40575,
            "time": 45.692521875000004,
            "velocity": 0.7086614173228346
          },
          {
            "duration": 0.011261249999996892,
            "durationTicks": 10,
            "midi": 62,
            "name": "D4",
            "ticks": 40715,
            "time": 45.850179375,
            "velocity": 0.33858267716535434
          },
          {
            "duration": 0.011261250000003997,
            "durationTicks": 10,
            "midi": 58,
            "name": "A#3",
            "ticks": 40720,
            "time": 45.85581,
            "velocity": 0.41732283464566927
          },
          {
            "duration": 0.011261249999996892,
            "durationTicks": 10,
            "midi": 53,
            "name": "F3",
            "ticks": 40725,
            "time": 45.861440625,
            "velocity": 0.4330708661417323
          },
          {
            "duration": 0.24774750000000267,
            "durationTicks": 220,
            "midi": 43,
            "name": "G2",
            "ticks": 40795,
            "time": 45.940269375,
            "velocity": 0.3937007874015748
          },
          {
            "duration": 0.23648624999999868,
            "durationTicks": 210,
            "midi": 50,
            "name": "D3",
            "ticks": 40805,
            "time": 45.951530625000004,
            "velocity": 0.3543307086614173
          },
          {
            "duration": 0.045045000000008883,
            "durationTicks": 40,
            "midi": 53,
            "name": "F3",
            "ticks": 41035,
            "time": 46.210539374999996,
            "velocity": 0.5354330708661418
          },
          {
            "duration": 0.03378374999999778,
            "durationTicks": 30,
            "midi": 58,
            "name": "A#3",
            "ticks": 41045,
            "time": 46.22180062500001,
            "velocity": 0.6929133858267716
          },
          {
            "duration": 0.02252250000000089,
            "durationTicks": 20,
            "midi": 62,
            "name": "D4",
            "ticks": 41055,
            "time": 46.233061875000004,
            "velocity": 0.7086614173228346
          },
          {
            "duration": 0.24774750000000267,
            "durationTicks": 220,
            "midi": 43,
            "name": "G2",
            "ticks": 41275,
            "time": 46.480809375,
            "velocity": 0.3937007874015748
          },
          {
            "duration": 0.23648624999999868,
            "durationTicks": 210,
            "midi": 50,
            "name": "D3",
            "ticks": 41285,
            "time": 46.492070625000004,
            "velocity": 0.3543307086614173
          },
          {
            "duration": 0.045045000000008883,
            "durationTicks": 40,
            "midi": 53,
            "name": "F3",
            "ticks": 41515,
            "time": 46.751079374999996,
            "velocity": 0.5354330708661418
          },
          {
            "duration": 0.03378374999999778,
            "durationTicks": 30,
            "midi": 58,
            "name": "A#3",
            "ticks": 41525,
            "time": 46.76234062500001,
            "velocity": 0.6929133858267716
          },
          {
            "duration": 0.02252250000000089,
            "durationTicks": 20,
            "midi": 62,
            "name": "D4",
            "ticks": 41535,
            "time": 46.773601875000004,
            "velocity": 0.7086614173228346
          },
          {
            "duration": 0.011261249999996892,
            "durationTicks": 10,
            "midi": 62,
            "name": "D4",
            "ticks": 41675,
            "time": 46.931259375,
            "velocity": 0.33858267716535434
          },
          {
            "duration": 0.011261250000003997,
            "durationTicks": 10,
            "midi": 58,
            "name": "A#3",
            "ticks": 41680,
            "time": 46.93689,
            "velocity": 0.41732283464566927
          },
          {
            "duration": 0.011261249999996892,
            "durationTicks": 10,
            "midi": 53,
            "name": "F3",
            "ticks": 41685,
            "time": 46.942520625,
            "velocity": 0.4330708661417323
          },
          {
            "duration": 0.24774750000000267,
            "durationTicks": 220,
            "midi": 42,
            "name": "F#2",
            "ticks": 41755,
            "time": 47.021349375,
            "velocity": 0.3937007874015748
          },
          {
            "duration": 0.23648624999999868,
            "durationTicks": 210,
            "midi": 49,
            "name": "C#3",
            "ticks": 41765,
            "time": 47.032610625000004,
            "velocity": 0.3543307086614173
          },
          {
            "duration": 0.045045000000008883,
            "durationTicks": 40,
            "midi": 52,
            "name": "E3",
            "ticks": 41995,
            "time": 47.291619374999996,
            "velocity": 0.5354330708661418
          },
          {
            "duration": 0.03378374999999778,
            "durationTicks": 30,
            "midi": 57,
            "name": "A3",
            "ticks": 42005,
            "time": 47.30288062500001,
            "velocity": 0.6929133858267716
          },
          {
            "duration": 0.02252250000000089,
            "durationTicks": 20,
            "midi": 61,
            "name": "C#4",
            "ticks": 42015,
            "time": 47.314141875000004,
            "velocity": 0.7086614173228346
          },
          {
            "duration": 0.011261249999996892,
            "durationTicks": 10,
            "midi": 61,
            "name": "C#4",
            "ticks": 42155,
            "time": 47.471799375,
            "velocity": 0.41732283464566927
          },
          {
            "duration": 0.011261250000003997,
            "durationTicks": 10,
            "midi": 57,
            "name": "A3",
            "ticks": 42160,
            "time": 47.47743,
            "velocity": 0.5748031496062992
          },
          {
            "duration": 0.011261249999996892,
            "durationTicks": 10,
            "midi": 52,
            "name": "E3",
            "ticks": 42165,
            "time": 47.483060625,
            "velocity": 0.5905511811023622
          },
          {
            "duration": 0.24774750000000267,
            "durationTicks": 220,
            "midi": 41,
            "name": "F2",
            "ticks": 42235,
            "time": 47.561889375,
            "velocity": 0.3937007874015748
          },
          {
            "duration": 0.23648624999999868,
            "durationTicks": 210,
            "midi": 48,
            "name": "C3",
            "ticks": 42245,
            "time": 47.573150625000004,
            "velocity": 0.3543307086614173
          },
          {
            "duration": 0.045045000000008883,
            "durationTicks": 40,
            "midi": 51,
            "name": "D#3",
            "ticks": 42475,
            "time": 47.832159374999996,
            "velocity": 0.5354330708661418
          },
          {
            "duration": 0.03378374999999778,
            "durationTicks": 30,
            "midi": 56,
            "name": "G#3",
            "ticks": 42485,
            "time": 47.84342062500001,
            "velocity": 0.6929133858267716
          },
          {
            "duration": 0.02252250000000089,
            "durationTicks": 20,
            "midi": 60,
            "name": "C4",
            "ticks": 42495,
            "time": 47.854681875000004,
            "velocity": 0.7086614173228346
          },
          {
            "duration": 0.011261249999996892,
            "durationTicks": 10,
            "midi": 60,
            "name": "C4",
            "ticks": 42635,
            "time": 48.012339375,
            "velocity": 0.33858267716535434
          },
          {
            "duration": 0.011261250000003997,
            "durationTicks": 10,
            "midi": 56,
            "name": "G#3",
            "ticks": 42640,
            "time": 48.01797,
            "velocity": 0.41732283464566927
          },
          {
            "duration": 0.011261249999996892,
            "durationTicks": 10,
            "midi": 51,
            "name": "D#3",
            "ticks": 42645,
            "time": 48.023600625,
            "velocity": 0.4330708661417323
          },
          {
            "duration": 0.24774750000000267,
            "durationTicks": 220,
            "midi": 41,
            "name": "F2",
            "ticks": 42715,
            "time": 48.102429375,
            "velocity": 0.3937007874015748
          },
          {
            "duration": 0.23648624999999868,
            "durationTicks": 210,
            "midi": 48,
            "name": "C3",
            "ticks": 42725,
            "time": 48.113690625000004,
            "velocity": 0.3543307086614173
          },
          {
            "duration": 0.045045000000008883,
            "durationTicks": 40,
            "midi": 51,
            "name": "D#3",
            "ticks": 42955,
            "time": 48.372699374999996,
            "velocity": 0.5354330708661418
          },
          {
            "duration": 0.03378374999999778,
            "durationTicks": 30,
            "midi": 56,
            "name": "G#3",
            "ticks": 42965,
            "time": 48.38396062500001,
            "velocity": 0.6929133858267716
          },
          {
            "duration": 0.02252250000000089,
            "durationTicks": 20,
            "midi": 60,
            "name": "C4",
            "ticks": 42975,
            "time": 48.395221875000004,
            "velocity": 0.7086614173228346
          },
          {
            "duration": 0.24774750000000267,
            "durationTicks": 220,
            "midi": 41,
            "name": "F2",
            "ticks": 43195,
            "time": 48.642969375,
            "velocity": 0.3937007874015748
          },
          {
            "duration": 0.23648624999999868,
            "durationTicks": 210,
            "midi": 48,
            "name": "C3",
            "ticks": 43205,
            "time": 48.654230625000004,
            "velocity": 0.3543307086614173
          },
          {
            "duration": 0.045045000000008883,
            "durationTicks": 40,
            "midi": 51,
            "name": "D#3",
            "ticks": 43435,
            "time": 48.913239374999996,
            "velocity": 0.5354330708661418
          },
          {
            "duration": 0.03378374999999778,
            "durationTicks": 30,
            "midi": 56,
            "name": "G#3",
            "ticks": 43445,
            "time": 48.92450062500001,
            "velocity": 0.6929133858267716
          },
          {
            "duration": 0.02252250000000089,
            "durationTicks": 20,
            "midi": 60,
            "name": "C4",
            "ticks": 43455,
            "time": 48.935761875000004,
            "velocity": 0.7086614173228346
          },
          {
            "duration": 0.011261249999996892,
            "durationTicks": 10,
            "midi": 60,
            "name": "C4",
            "ticks": 43595,
            "time": 49.093419375,
            "velocity": 0.33858267716535434
          },
          {
            "duration": 0.011261250000003997,
            "durationTicks": 10,
            "midi": 56,
            "name": "G#3",
            "ticks": 43600,
            "time": 49.09905,
            "velocity": 0.41732283464566927
          },
          {
            "duration": 0.011261249999996892,
            "durationTicks": 10,
            "midi": 51,
            "name": "D#3",
            "ticks": 43605,
            "time": 49.104680625,
            "velocity": 0.4330708661417323
          },
          {
            "duration": 0.24774750000000267,
            "durationTicks": 220,
            "midi": 41,
            "name": "F2",
            "ticks": 43675,
            "time": 49.183509375,
            "velocity": 0.3937007874015748
          },
          {
            "duration": 0.23648624999999868,
            "durationTicks": 210,
            "midi": 48,
            "name": "C3",
            "ticks": 43685,
            "time": 49.194770625000004,
            "velocity": 0.3543307086614173
          },
          {
            "duration": 0.07882875000000666,
            "durationTicks": 70,
            "midi": 51,
            "name": "D#3",
            "ticks": 43915,
            "time": 49.453779374999996,
            "velocity": 0.5354330708661418
          },
          {
            "duration": 0.06756749999999556,
            "durationTicks": 60,
            "midi": 56,
            "name": "G#3",
            "ticks": 43925,
            "time": 49.46504062500001,
            "velocity": 0.6929133858267716
          },
          {
            "duration": 0.05630624999999867,
            "durationTicks": 50,
            "midi": 60,
            "name": "C4",
            "ticks": 43935,
            "time": 49.476301875000004,
            "velocity": 0.7086614173228346
          },
          {
            "duration": 0.24774750000000267,
            "durationTicks": 220,
            "midi": 41,
            "name": "F2",
            "ticks": 44155,
            "time": 49.724049375,
            "velocity": 0.3937007874015748
          },
          {
            "duration": 0.23648624999999868,
            "durationTicks": 210,
            "midi": 48,
            "name": "C3",
            "ticks": 44165,
            "time": 49.735310625000004,
            "velocity": 0.3543307086614173
          },
          {
            "duration": 0.045045000000008883,
            "durationTicks": 40,
            "midi": 51,
            "name": "D#3",
            "ticks": 44395,
            "time": 49.994319374999996,
            "velocity": 0.5354330708661418
          },
          {
            "duration": 0.03378374999999778,
            "durationTicks": 30,
            "midi": 56,
            "name": "G#3",
            "ticks": 44405,
            "time": 50.00558062500001,
            "velocity": 0.6929133858267716
          },
          {
            "duration": 0.02252250000000089,
            "durationTicks": 20,
            "midi": 60,
            "name": "C4",
            "ticks": 44415,
            "time": 50.016841875000004,
            "velocity": 0.7086614173228346
          },
          {
            "duration": 0.011261249999996892,
            "durationTicks": 10,
            "midi": 60,
            "name": "C4",
            "ticks": 44555,
            "time": 50.174499375,
            "velocity": 0.33858267716535434
          },
          {
            "duration": 0.011261250000003997,
            "durationTicks": 10,
            "midi": 56,
            "name": "G#3",
            "ticks": 44560,
            "time": 50.18013,
            "velocity": 0.41732283464566927
          },
          {
            "duration": 0.011261249999996892,
            "durationTicks": 10,
            "midi": 51,
            "name": "D#3",
            "ticks": 44565,
            "time": 50.185760625,
            "velocity": 0.4330708661417323
          },
          {
            "duration": 0.24774750000000267,
            "durationTicks": 220,
            "midi": 41,
            "name": "F2",
            "ticks": 44635,
            "time": 50.264589375,
            "velocity": 0.3937007874015748
          },
          {
            "duration": 0.23648624999999868,
            "durationTicks": 210,
            "midi": 48,
            "name": "C3",
            "ticks": 44645,
            "time": 50.275850625000004,
            "velocity": 0.3543307086614173
          },
          {
            "duration": 0.10135125000000045,
            "durationTicks": 90,
            "midi": 51,
            "name": "D#3",
            "ticks": 44875,
            "time": 50.534859374999996,
            "velocity": 0.5354330708661418
          },
          {
            "duration": 0.09008999999998935,
            "durationTicks": 80,
            "midi": 56,
            "name": "G#3",
            "ticks": 44885,
            "time": 50.54612062500001,
            "velocity": 0.6929133858267716
          },
          {
            "duration": 0.07882874999999245,
            "durationTicks": 70,
            "midi": 60,
            "name": "C4",
            "ticks": 44895,
            "time": 50.557381875000004,
            "velocity": 0.7086614173228346
          },
          {
            "duration": 0.24774750000000267,
            "durationTicks": 220,
            "midi": 46,
            "name": "A#2",
            "ticks": 45115,
            "time": 50.805129375,
            "velocity": 0.3937007874015748
          },
          {
            "duration": 0.23648624999999868,
            "durationTicks": 210,
            "midi": 53,
            "name": "F3",
            "ticks": 45125,
            "time": 50.816390625000004,
            "velocity": 0.3543307086614173
          },
          {
            "duration": 0.045045000000008883,
            "durationTicks": 40,
            "midi": 53,
            "name": "F3",
            "ticks": 45355,
            "time": 51.075399374999996,
            "velocity": 0.5354330708661418
          },
          {
            "duration": 0.03378374999999778,
            "durationTicks": 30,
            "midi": 56,
            "name": "G#3",
            "ticks": 45365,
            "time": 51.08666062500001,
            "velocity": 0.6929133858267716
          },
          {
            "duration": 0.02252250000000089,
            "durationTicks": 20,
            "midi": 62,
            "name": "D4",
            "ticks": 45375,
            "time": 51.097921875000004,
            "velocity": 0.7086614173228346
          },
          {
            "duration": 0.011261249999996892,
            "durationTicks": 10,
            "midi": 62,
            "name": "D4",
            "ticks": 45515,
            "time": 51.255579375,
            "velocity": 0.33858267716535434
          },
          {
            "duration": 0.011261250000003997,
            "durationTicks": 10,
            "midi": 56,
            "name": "G#3",
            "ticks": 45520,
            "time": 51.26121,
            "velocity": 0.41732283464566927
          },
          {
            "duration": 0.011261249999996892,
            "durationTicks": 10,
            "midi": 53,
            "name": "F3",
            "ticks": 45525,
            "time": 51.266840625,
            "velocity": 0.4330708661417323
          },
          {
            "duration": 0.24774750000000267,
            "durationTicks": 220,
            "midi": 46,
            "name": "A#2",
            "ticks": 45595,
            "time": 51.345669375,
            "velocity": 0.3937007874015748
          },
          {
            "duration": 0.23648624999999868,
            "durationTicks": 210,
            "midi": 53,
            "name": "F3",
            "ticks": 45605,
            "time": 51.356930625000004,
            "velocity": 0.3543307086614173
          },
          {
            "duration": 0.045045000000008883,
            "durationTicks": 40,
            "midi": 53,
            "name": "F3",
            "ticks": 45835,
            "time": 51.615939374999996,
            "velocity": 0.5354330708661418
          },
          {
            "duration": 0.03378374999999778,
            "durationTicks": 30,
            "midi": 56,
            "name": "G#3",
            "ticks": 45845,
            "time": 51.62720062500001,
            "velocity": 0.6929133858267716
          },
          {
            "duration": 0.02252250000000089,
            "durationTicks": 20,
            "midi": 62,
            "name": "D4",
            "ticks": 45855,
            "time": 51.638461875000004,
            "velocity": 0.7086614173228346
          },
          {
            "duration": 0.24774750000000267,
            "durationTicks": 220,
            "midi": 47,
            "name": "B2",
            "ticks": 46075,
            "time": 51.886209375,
            "velocity": 0.41732283464566927
          },
          {
            "duration": 0.23648624999999868,
            "durationTicks": 210,
            "midi": 53,
            "name": "F3",
            "ticks": 46085,
            "time": 51.897470625000004,
            "velocity": 0.3779527559055118
          },
          {
            "duration": 0.045045000000008883,
            "durationTicks": 40,
            "midi": 53,
            "name": "F3",
            "ticks": 46315,
            "time": 52.156479374999996,
            "velocity": 0.5590551181102362
          },
          {
            "duration": 0.033783750000004886,
            "durationTicks": 30,
            "midi": 59,
            "name": "B3",
            "ticks": 46320,
            "time": 52.16211,
            "velocity": 0.7165354330708661
          },
          {
            "duration": 0.022522499999993784,
            "durationTicks": 20,
            "midi": 62,
            "name": "D4",
            "ticks": 46325,
            "time": 52.16774062500001,
            "velocity": 0.7322834645669292
          },
          {
            "duration": 0.011261249999996892,
            "durationTicks": 10,
            "midi": 62,
            "name": "D4",
            "ticks": 46475,
            "time": 52.336659375,
            "velocity": 0.36220472440944884
          },
          {
            "duration": 0.011261250000003997,
            "durationTicks": 10,
            "midi": 59,
            "name": "B3",
            "ticks": 46480,
            "time": 52.34229,
            "velocity": 0.4409448818897638
          },
          {
            "duration": 0.011261249999996892,
            "durationTicks": 10,
            "midi": 53,
            "name": "F3",
            "ticks": 46485,
            "time": 52.347920625,
            "velocity": 0.4566929133858268
          },
          {
            "duration": 0.24774750000000267,
            "durationTicks": 220,
            "midi": 47,
            "name": "B2",
            "ticks": 46555,
            "time": 52.426749375,
            "velocity": 0.41732283464566927
          },
          {
            "duration": 0.23648624999999868,
            "durationTicks": 210,
            "midi": 53,
            "name": "F3",
            "ticks": 46565,
            "time": 52.438010625000004,
            "velocity": 0.3779527559055118
          },
          {
            "duration": 0.09009000000000356,
            "durationTicks": 80,
            "midi": 53,
            "name": "F3",
            "ticks": 46795,
            "time": 52.697019374999996,
            "velocity": 0.5590551181102362
          },
          {
            "duration": 0.07882874999999245,
            "durationTicks": 70,
            "midi": 59,
            "name": "B3",
            "ticks": 46805,
            "time": 52.70828062500001,
            "velocity": 0.7165354330708661
          },
          {
            "duration": 0.06756749999999556,
            "durationTicks": 60,
            "midi": 62,
            "name": "D4",
            "ticks": 46815,
            "time": 52.719541875000004,
            "velocity": 0.7322834645669292
          },
          {
            "duration": 0.24774750000000267,
            "durationTicks": 220,
            "midi": 47,
            "name": "B2",
            "ticks": 47035,
            "time": 52.967289375,
            "velocity": 0.41732283464566927
          },
          {
            "duration": 0.23648624999999868,
            "durationTicks": 210,
            "midi": 53,
            "name": "F3",
            "ticks": 47045,
            "time": 52.978550625000004,
            "velocity": 0.3779527559055118
          },
          {
            "duration": 0.045045000000008883,
            "durationTicks": 40,
            "midi": 53,
            "name": "F3",
            "ticks": 47275,
            "time": 53.237559375,
            "velocity": 0.5590551181102362
          },
          {
            "duration": 0.03378374999999778,
            "durationTicks": 30,
            "midi": 59,
            "name": "B3",
            "ticks": 47285,
            "time": 53.24882062500001,
            "velocity": 0.7165354330708661
          },
          {
            "duration": 0.02252250000000089,
            "durationTicks": 20,
            "midi": 62,
            "name": "D4",
            "ticks": 47295,
            "time": 53.260081875000004,
            "velocity": 0.7322834645669292
          },
          {
            "duration": 0.011261249999996892,
            "durationTicks": 10,
            "midi": 62,
            "name": "D4",
            "ticks": 47435,
            "time": 53.417739375000004,
            "velocity": 0.36220472440944884
          },
          {
            "duration": 0.011261250000003997,
            "durationTicks": 10,
            "midi": 59,
            "name": "B3",
            "ticks": 47440,
            "time": 53.42337,
            "velocity": 0.4409448818897638
          },
          {
            "duration": 0.011261249999996892,
            "durationTicks": 10,
            "midi": 53,
            "name": "F3",
            "ticks": 47445,
            "time": 53.429000625,
            "velocity": 0.4566929133858268
          },
          {
            "duration": 0.24774750000000267,
            "durationTicks": 220,
            "midi": 47,
            "name": "B2",
            "ticks": 47515,
            "time": 53.507829375,
            "velocity": 0.41732283464566927
          },
          {
            "duration": 0.23648624999999868,
            "durationTicks": 210,
            "midi": 53,
            "name": "F3",
            "ticks": 47525,
            "time": 53.519090625000004,
            "velocity": 0.3779527559055118
          },
          {
            "duration": 0.11261250000001155,
            "durationTicks": 100,
            "midi": 53,
            "name": "F3",
            "ticks": 47755,
            "time": 53.778099375,
            "velocity": 0.5590551181102362
          },
          {
            "duration": 0.10135124999999334,
            "durationTicks": 90,
            "midi": 59,
            "name": "B3",
            "ticks": 47760,
            "time": 53.783730000000006,
            "velocity": 0.7165354330708661
          },
          {
            "duration": 0.09008999999998935,
            "durationTicks": 80,
            "midi": 62,
            "name": "D4",
            "ticks": 47765,
            "time": 53.78936062500001,
            "velocity": 0.7322834645669292
          },
          {
            "duration": 0.24774750000000267,
            "durationTicks": 220,
            "midi": 44,
            "name": "G#2",
            "ticks": 47995,
            "time": 54.048369375,
            "velocity": 0.41732283464566927
          },
          {
            "duration": 0.23648624999999868,
            "durationTicks": 210,
            "midi": 51,
            "name": "D#3",
            "ticks": 48005,
            "time": 54.059630625000004,
            "velocity": 0.3779527559055118
          },
          {
            "duration": 0.045045000000008883,
            "durationTicks": 40,
            "midi": 54,
            "name": "F#3",
            "ticks": 48235,
            "time": 54.318639375,
            "velocity": 0.5590551181102362
          },
          {
            "duration": 0.033783750000004886,
            "durationTicks": 30,
            "midi": 60,
            "name": "C4",
            "ticks": 48240,
            "time": 54.32427,
            "velocity": 0.7165354330708661
          },
          {
            "duration": 0.022522499999993784,
            "durationTicks": 20,
            "midi": 63,
            "name": "D#4",
            "ticks": 48245,
            "time": 54.32990062500001,
            "velocity": 0.7322834645669292
          },
          {
            "duration": 0.011261249999996892,
            "durationTicks": 10,
            "midi": 63,
            "name": "D#4",
            "ticks": 48395,
            "time": 54.498819375000004,
            "velocity": 0.36220472440944884
          },
          {
            "duration": 0.011261250000003997,
            "durationTicks": 10,
            "midi": 60,
            "name": "C4",
            "ticks": 48400,
            "time": 54.50445,
            "velocity": 0.4409448818897638
          },
          {
            "duration": 0.011261249999996892,
            "durationTicks": 10,
            "midi": 54,
            "name": "F#3",
            "ticks": 48405,
            "time": 54.510080625,
            "velocity": 0.4566929133858268
          },
          {
            "duration": 0.24774750000000267,
            "durationTicks": 220,
            "midi": 44,
            "name": "G#2",
            "ticks": 48475,
            "time": 54.588909375,
            "velocity": 0.41732283464566927
          },
          {
            "duration": 0.23648624999999868,
            "durationTicks": 210,
            "midi": 51,
            "name": "D#3",
            "ticks": 48485,
            "time": 54.600170625000004,
            "velocity": 0.3779527559055118
          },
          {
            "duration": 0.022522500000007994,
            "durationTicks": 20,
            "midi": 54,
            "name": "F#3",
            "ticks": 48715,
            "time": 54.859179375,
            "velocity": 0.5590551181102362
          },
          {
            "duration": 0.03378374999999778,
            "durationTicks": 30,
            "midi": 60,
            "name": "C4",
            "ticks": 48725,
            "time": 54.87044062500001,
            "velocity": 0.7165354330708661
          },
          {
            "duration": 0.02252250000000089,
            "durationTicks": 20,
            "midi": 63,
            "name": "D#4",
            "ticks": 48735,
            "time": 54.881701875000005,
            "velocity": 0.7322834645669292
          },
          {
            "duration": 0.24774750000000267,
            "durationTicks": 220,
            "midi": 44,
            "name": "G#2",
            "ticks": 48955,
            "time": 55.129449375,
            "velocity": 0.41732283464566927
          },
          {
            "duration": 0.23648624999999868,
            "durationTicks": 210,
            "midi": 51,
            "name": "D#3",
            "ticks": 48965,
            "time": 55.140710625000004,
            "velocity": 0.3779527559055118
          },
          {
            "duration": 0.045045000000008883,
            "durationTicks": 40,
            "midi": 54,
            "name": "F#3",
            "ticks": 49195,
            "time": 55.399719375,
            "velocity": 0.5590551181102362
          },
          {
            "duration": 0.033783750000004886,
            "durationTicks": 30,
            "midi": 60,
            "name": "C4",
            "ticks": 49200,
            "time": 55.40535,
            "velocity": 0.7165354330708661
          },
          {
            "duration": 0.022522499999993784,
            "durationTicks": 20,
            "midi": 63,
            "name": "D#4",
            "ticks": 49205,
            "time": 55.41098062500001,
            "velocity": 0.7322834645669292
          },
          {
            "duration": 0.011261249999996892,
            "durationTicks": 10,
            "midi": 63,
            "name": "D#4",
            "ticks": 49355,
            "time": 55.579899375000004,
            "velocity": 0.36220472440944884
          },
          {
            "duration": 0.011261250000003997,
            "durationTicks": 10,
            "midi": 60,
            "name": "C4",
            "ticks": 49360,
            "time": 55.58553,
            "velocity": 0.4409448818897638
          },
          {
            "duration": 0.011261249999996892,
            "durationTicks": 10,
            "midi": 54,
            "name": "F#3",
            "ticks": 49365,
            "time": 55.591160625,
            "velocity": 0.4566929133858268
          },
          {
            "duration": 0.24774750000000267,
            "durationTicks": 220,
            "midi": 44,
            "name": "G#2",
            "ticks": 49435,
            "time": 55.669989375,
            "velocity": 0.41732283464566927
          },
          {
            "duration": 0.23648624999999868,
            "durationTicks": 210,
            "midi": 51,
            "name": "D#3",
            "ticks": 49445,
            "time": 55.681250625000004,
            "velocity": 0.3779527559055118
          },
          {
            "duration": 0.09009000000000356,
            "durationTicks": 80,
            "midi": 54,
            "name": "F#3",
            "ticks": 49675,
            "time": 55.940259375,
            "velocity": 0.5590551181102362
          },
          {
            "duration": 0.07882874999999245,
            "durationTicks": 70,
            "midi": 60,
            "name": "C4",
            "ticks": 49685,
            "time": 55.95152062500001,
            "velocity": 0.7165354330708661
          },
          {
            "duration": 0.06756749999999556,
            "durationTicks": 60,
            "midi": 63,
            "name": "D#4",
            "ticks": 49695,
            "time": 55.962781875000005,
            "velocity": 0.7322834645669292
          },
          {
            "duration": 0.24774750000000267,
            "durationTicks": 220,
            "midi": 43,
            "name": "G2",
            "ticks": 49915,
            "time": 56.210529375,
            "velocity": 0.41732283464566927
          },
          {
            "duration": 0.23648624999999868,
            "durationTicks": 210,
            "midi": 50,
            "name": "D3",
            "ticks": 49925,
            "time": 56.221790625000004,
            "velocity": 0.3779527559055118
          },
          {
            "duration": 0.045045000000008883,
            "durationTicks": 40,
            "midi": 55,
            "name": "G3",
            "ticks": 50155,
            "time": 56.480799375,
            "velocity": 0.7322834645669292
          },
          {
            "duration": 0.033783750000004886,
            "durationTicks": 30,
            "midi": 58,
            "name": "A#3",
            "ticks": 50160,
            "time": 56.48643,
            "velocity": 0.7165354330708661
          },
          {
            "duration": 0.022522499999993784,
            "durationTicks": 20,
            "midi": 62,
            "name": "D4",
            "ticks": 50165,
            "time": 56.49206062500001,
            "velocity": 0.5590551181102362
          },
          {
            "duration": 0.011261249999996892,
            "durationTicks": 10,
            "midi": 62,
            "name": "D4",
            "ticks": 50315,
            "time": 56.660979375000004,
            "velocity": 0.36220472440944884
          },
          {
            "duration": 0.011261250000003997,
            "durationTicks": 10,
            "midi": 58,
            "name": "A#3",
            "ticks": 50320,
            "time": 56.66661,
            "velocity": 0.4409448818897638
          },
          {
            "duration": 0.011261249999996892,
            "durationTicks": 10,
            "midi": 55,
            "name": "G3",
            "ticks": 50325,
            "time": 56.672240625,
            "velocity": 0.4566929133858268
          },
          {
            "duration": 0.24774750000000267,
            "durationTicks": 220,
            "midi": 43,
            "name": "G2",
            "ticks": 50395,
            "time": 56.751069375,
            "velocity": 0.41732283464566927
          },
          {
            "duration": 0.23648624999999868,
            "durationTicks": 210,
            "midi": 50,
            "name": "D3",
            "ticks": 50405,
            "time": 56.762330625000004,
            "velocity": 0.3779527559055118
          },
          {
            "duration": 0.09009000000000356,
            "durationTicks": 80,
            "midi": 55,
            "name": "G3",
            "ticks": 50635,
            "time": 57.021339375,
            "velocity": 0.7322834645669292
          },
          {
            "duration": 0.07882874999999245,
            "durationTicks": 70,
            "midi": 58,
            "name": "A#3",
            "ticks": 50645,
            "time": 57.03260062500001,
            "velocity": 0.7165354330708661
          },
          {
            "duration": 0.06756749999999556,
            "durationTicks": 60,
            "midi": 62,
            "name": "D4",
            "ticks": 50655,
            "time": 57.043861875000005,
            "velocity": 0.5590551181102362
          },
          {
            "duration": 0.24774750000000267,
            "durationTicks": 220,
            "midi": 43,
            "name": "G2",
            "ticks": 50875,
            "time": 57.291609375,
            "velocity": 0.41732283464566927
          },
          {
            "duration": 0.23648624999999868,
            "durationTicks": 210,
            "midi": 50,
            "name": "D3",
            "ticks": 50885,
            "time": 57.302870625000004,
            "velocity": 0.3779527559055118
          },
          {
            "duration": 0.045045000000008883,
            "durationTicks": 40,
            "midi": 54,
            "name": "F#3",
            "ticks": 51115,
            "time": 57.561879375,
            "velocity": 0.7322834645669292
          },
          {
            "duration": 0.033783750000004886,
            "durationTicks": 30,
            "midi": 58,
            "name": "A#3",
            "ticks": 51120,
            "time": 57.56751,
            "velocity": 0.7165354330708661
          },
          {
            "duration": 0.022522499999993784,
            "durationTicks": 20,
            "midi": 62,
            "name": "D4",
            "ticks": 51125,
            "time": 57.57314062500001,
            "velocity": 0.5590551181102362
          },
          {
            "duration": 0.011261249999996892,
            "durationTicks": 10,
            "midi": 62,
            "name": "D4",
            "ticks": 51275,
            "time": 57.742059375000004,
            "velocity": 0.36220472440944884
          },
          {
            "duration": 0.011261250000003997,
            "durationTicks": 10,
            "midi": 58,
            "name": "A#3",
            "ticks": 51280,
            "time": 57.74769,
            "velocity": 0.4409448818897638
          },
          {
            "duration": 0.011261249999996892,
            "durationTicks": 10,
            "midi": 54,
            "name": "F#3",
            "ticks": 51285,
            "time": 57.753320625,
            "velocity": 0.44881889763779526
          },
          {
            "duration": 0.24774750000000267,
            "durationTicks": 220,
            "midi": 43,
            "name": "G2",
            "ticks": 51355,
            "time": 57.832149375,
            "velocity": 0.41732283464566927
          },
          {
            "duration": 0.23648624999999868,
            "durationTicks": 210,
            "midi": 50,
            "name": "D3",
            "ticks": 51365,
            "time": 57.843410625000004,
            "velocity": 0.3779527559055118
          },
          {
            "duration": 0.10135125000000045,
            "durationTicks": 90,
            "midi": 54,
            "name": "F#3",
            "ticks": 51595,
            "time": 58.102419375,
            "velocity": 0.7322834645669292
          },
          {
            "duration": 0.09008999999998935,
            "durationTicks": 80,
            "midi": 58,
            "name": "A#3",
            "ticks": 51605,
            "time": 58.11368062500001,
            "velocity": 0.7165354330708661
          },
          {
            "duration": 0.07882874999999245,
            "durationTicks": 70,
            "midi": 62,
            "name": "D4",
            "ticks": 51615,
            "time": 58.124941875000005,
            "velocity": 0.5590551181102362
          },
          {
            "duration": 0.24774750000000267,
            "durationTicks": 220,
            "midi": 43,
            "name": "G2",
            "ticks": 51835,
            "time": 58.372689375,
            "velocity": 0.41732283464566927
          },
          {
            "duration": 0.23648624999999868,
            "durationTicks": 210,
            "midi": 50,
            "name": "D3",
            "ticks": 51845,
            "time": 58.383950625000004,
            "velocity": 0.3779527559055118
          },
          {
            "duration": 0.045045000000008883,
            "durationTicks": 40,
            "midi": 53,
            "name": "F3",
            "ticks": 52075,
            "time": 58.642959375,
            "velocity": 0.7322834645669292
          },
          {
            "duration": 0.033783750000004886,
            "durationTicks": 30,
            "midi": 58,
            "name": "A#3",
            "ticks": 52080,
            "time": 58.64859,
            "velocity": 0.7165354330708661
          },
          {
            "duration": 0.022522499999993784,
            "durationTicks": 20,
            "midi": 62,
            "name": "D4",
            "ticks": 52085,
            "time": 58.65422062500001,
            "velocity": 0.5590551181102362
          },
          {
            "duration": 0.011261249999996892,
            "durationTicks": 10,
            "midi": 62,
            "name": "D4",
            "ticks": 52235,
            "time": 58.823139375000004,
            "velocity": 0.36220472440944884
          },
          {
            "duration": 0.011261250000003997,
            "durationTicks": 10,
            "midi": 58,
            "name": "A#3",
            "ticks": 52240,
            "time": 58.82877,
            "velocity": 0.4409448818897638
          },
          {
            "duration": 0.011261249999996892,
            "durationTicks": 10,
            "midi": 53,
            "name": "F3",
            "ticks": 52245,
            "time": 58.834400625,
            "velocity": 0.4566929133858268
          },
          {
            "duration": 0.24774750000000267,
            "durationTicks": 220,
            "midi": 43,
            "name": "G2",
            "ticks": 52315,
            "time": 58.913229375,
            "velocity": 0.41732283464566927
          },
          {
            "duration": 0.23648624999999868,
            "durationTicks": 210,
            "midi": 50,
            "name": "D3",
            "ticks": 52325,
            "time": 58.924490625000004,
            "velocity": 0.3779527559055118
          },
          {
            "duration": 0.09009000000000356,
            "durationTicks": 80,
            "midi": 53,
            "name": "F3",
            "ticks": 52555,
            "time": 59.183499375,
            "velocity": 0.7322834645669292
          },
          {
            "duration": 0.07882874999999245,
            "durationTicks": 70,
            "midi": 58,
            "name": "A#3",
            "ticks": 52565,
            "time": 59.19476062500001,
            "velocity": 0.7165354330708661
          },
          {
            "duration": 0.06756749999999556,
            "durationTicks": 60,
            "midi": 62,
            "name": "D4",
            "ticks": 52575,
            "time": 59.206021875000005,
            "velocity": 0.5590551181102362
          },
          {
            "duration": 0.24774750000000267,
            "durationTicks": 220,
            "midi": 52,
            "name": "E3",
            "ticks": 52795,
            "time": 59.453769375,
            "velocity": 0.41732283464566927
          },
          {
            "duration": 0.23648624999999868,
            "durationTicks": 210,
            "midi": 58,
            "name": "A#3",
            "ticks": 52805,
            "time": 59.465030625000004,
            "velocity": 0.3779527559055118
          },
          {
            "duration": 0.045045000000008883,
            "durationTicks": 40,
            "midi": 58,
            "name": "A#3",
            "ticks": 53035,
            "time": 59.724039375,
            "velocity": 0.7322834645669292
          },
          {
            "duration": 0.033783750000004886,
            "durationTicks": 30,
            "midi": 62,
            "name": "D4",
            "ticks": 53040,
            "time": 59.72967,
            "velocity": 0.7165354330708661
          },
          {
            "duration": 0.022522499999993784,
            "durationTicks": 20,
            "midi": 67,
            "name": "G4",
            "ticks": 53045,
            "time": 59.73530062500001,
            "velocity": 0.5590551181102362
          },
          {
            "duration": 0.011261249999996892,
            "durationTicks": 10,
            "midi": 67,
            "name": "G4",
            "ticks": 53195,
            "time": 59.904219375000004,
            "velocity": 0.36220472440944884
          },
          {
            "duration": 0.011261250000003997,
            "durationTicks": 10,
            "midi": 62,
            "name": "D4",
            "ticks": 53200,
            "time": 59.90985,
            "velocity": 0.4409448818897638
          },
          {
            "duration": 0.011261249999996892,
            "durationTicks": 10,
            "midi": 58,
            "name": "A#3",
            "ticks": 53205,
            "time": 59.915480625,
            "velocity": 0.4566929133858268
          },
          {
            "duration": 0.24774750000000267,
            "durationTicks": 220,
            "midi": 52,
            "name": "E3",
            "ticks": 53275,
            "time": 59.994309375,
            "velocity": 0.41732283464566927
          },
          {
            "duration": 0.23648624999999868,
            "durationTicks": 210,
            "midi": 58,
            "name": "A#3",
            "ticks": 53285,
            "time": 60.005570625000004,
            "velocity": 0.3779527559055118
          },
          {
            "duration": 0.022522500000007994,
            "durationTicks": 20,
            "midi": 58,
            "name": "A#3",
            "ticks": 53515,
            "time": 60.264579375,
            "velocity": 0.7322834645669292
          },
          {
            "duration": 0.03378374999999778,
            "durationTicks": 30,
            "midi": 62,
            "name": "D4",
            "ticks": 53525,
            "time": 60.27584062500001,
            "velocity": 0.7165354330708661
          },
          {
            "duration": 0.02252250000000089,
            "durationTicks": 20,
            "midi": 67,
            "name": "G4",
            "ticks": 53535,
            "time": 60.287101875000005,
            "velocity": 0.5590551181102362
          },
          {
            "duration": 0.24774750000000267,
            "durationTicks": 220,
            "midi": 51,
            "name": "D#3",
            "ticks": 53755,
            "time": 60.534849375,
            "velocity": 0.41732283464566927
          },
          {
            "duration": 0.23648624999999868,
            "durationTicks": 210,
            "midi": 58,
            "name": "A#3",
            "ticks": 53765,
            "time": 60.546110625000004,
            "velocity": 0.3779527559055118
          },
          {
            "duration": 0.045045000000008883,
            "durationTicks": 40,
            "midi": 58,
            "name": "A#3",
            "ticks": 53995,
            "time": 60.805119375,
            "velocity": 0.7322834645669292
          },
          {
            "duration": 0.033783750000004886,
            "durationTicks": 30,
            "midi": 62,
            "name": "D4",
            "ticks": 54000,
            "time": 60.81075,
            "velocity": 0.7165354330708661
          },
          {
            "duration": 0.022522499999993784,
            "durationTicks": 20,
            "midi": 67,
            "name": "G4",
            "ticks": 54005,
            "time": 60.81638062500001,
            "velocity": 0.5590551181102362
          },
          {
            "duration": 0.011261249999996892,
            "durationTicks": 10,
            "midi": 67,
            "name": "G4",
            "ticks": 54155,
            "time": 60.985299375000004,
            "velocity": 0.36220472440944884
          },
          {
            "duration": 0.011261250000003997,
            "durationTicks": 10,
            "midi": 62,
            "name": "D4",
            "ticks": 54160,
            "time": 60.99093,
            "velocity": 0.4409448818897638
          },
          {
            "duration": 0.011261249999996892,
            "durationTicks": 10,
            "midi": 58,
            "name": "A#3",
            "ticks": 54165,
            "time": 60.996560625,
            "velocity": 0.4566929133858268
          },
          {
            "duration": 0.24774750000000267,
            "durationTicks": 220,
            "midi": 51,
            "name": "D#3",
            "ticks": 54235,
            "time": 61.075389375,
            "velocity": 0.41732283464566927
          },
          {
            "duration": 0.23648624999999868,
            "durationTicks": 210,
            "midi": 58,
            "name": "A#3",
            "ticks": 54245,
            "time": 61.086650625000004,
            "velocity": 0.3779527559055118
          },
          {
            "duration": 0.045045000000008883,
            "durationTicks": 40,
            "midi": 58,
            "name": "A#3",
            "ticks": 54475,
            "time": 61.345659375,
            "velocity": 0.8110236220472441
          },
          {
            "duration": 0.03378374999999778,
            "durationTicks": 30,
            "midi": 62,
            "name": "D4",
            "ticks": 54485,
            "time": 61.35692062500001,
            "velocity": 0.7952755905511811
          },
          {
            "duration": 0.02252250000000089,
            "durationTicks": 20,
            "midi": 67,
            "name": "G4",
            "ticks": 54495,
            "time": 61.368181875000005,
            "velocity": 0.7165354330708661
          },
          {
            "duration": 0.31531500000000534,
            "durationTicks": 280,
            "midi": 58,
            "name": "A#3",
            "ticks": 54715,
            "time": 61.615929375,
            "velocity": 0.7716535433070866
          },
          {
            "duration": 0.30405375000000134,
            "durationTicks": 270,
            "midi": 62,
            "name": "D4",
            "ticks": 54725,
            "time": 61.627190625000004,
            "velocity": 0.7165354330708661
          },
          {
            "duration": 0.29279250000000445,
            "durationTicks": 260,
            "midi": 67,
            "name": "G4",
            "ticks": 54735,
            "time": 61.638451875,
            "velocity": 0.6377952755905512
          },
          {
            "duration": 0.31531500000000534,
            "durationTicks": 280,
            "midi": 58,
            "name": "A#3",
            "ticks": 55075,
            "time": 62.021334375,
            "velocity": 0.7322834645669292
          },
          {
            "duration": 0.30405375000000134,
            "durationTicks": 270,
            "midi": 62,
            "name": "D4",
            "ticks": 55085,
            "time": 62.032595625000006,
            "velocity": 0.7165354330708661
          },
          {
            "duration": 0.29279250000000445,
            "durationTicks": 260,
            "midi": 67,
            "name": "G4",
            "ticks": 55095,
            "time": 62.043856875,
            "velocity": 0.6377952755905512
          },
          {
            "duration": 0.2027025000000009,
            "durationTicks": 180,
            "midi": 58,
            "name": "A#3",
            "ticks": 55435,
            "time": 62.426739375,
            "velocity": 0.7559055118110236
          },
          {
            "duration": 0.1914412499999898,
            "durationTicks": 170,
            "midi": 62,
            "name": "D4",
            "ticks": 55445,
            "time": 62.43800062500001,
            "velocity": 0.7322834645669292
          },
          {
            "duration": 0.1801799999999929,
            "durationTicks": 160,
            "midi": 67,
            "name": "G4",
            "ticks": 55455,
            "time": 62.449261875000005,
            "velocity": 0.6535433070866141
          },
          {
            "duration": 0.24774750000000267,
            "durationTicks": 220,
            "midi": 50,
            "name": "D3",
            "ticks": 55675,
            "time": 62.697009375,
            "velocity": 0.41732283464566927
          },
          {
            "duration": 0.23648624999999868,
            "durationTicks": 210,
            "midi": 57,
            "name": "A3",
            "ticks": 55685,
            "time": 62.708270625000004,
            "velocity": 0.3779527559055118
          },
          {
            "duration": 0.045045000000008883,
            "durationTicks": 40,
            "midi": 57,
            "name": "A3",
            "ticks": 55915,
            "time": 62.967279375,
            "velocity": 0.7322834645669292
          },
          {
            "duration": 0.033783750000004886,
            "durationTicks": 30,
            "midi": 60,
            "name": "C4",
            "ticks": 55920,
            "time": 62.97291,
            "velocity": 0.7165354330708661
          },
          {
            "duration": 0.022522499999993784,
            "durationTicks": 20,
            "midi": 67,
            "name": "G4",
            "ticks": 55925,
            "time": 62.97854062500001,
            "velocity": 0.6377952755905512
          },
          {
            "duration": 0.022522499999993784,
            "durationTicks": 20,
            "midi": 67,
            "name": "G4",
            "ticks": 56075,
            "time": 63.147459375000004,
            "velocity": 0.48031496062992124
          },
          {
            "duration": 0.011261250000003997,
            "durationTicks": 10,
            "midi": 60,
            "name": "C4",
            "ticks": 56080,
            "time": 63.15309,
            "velocity": 0.6377952755905512
          },
          {
            "duration": 0.011261249999996892,
            "durationTicks": 10,
            "midi": 57,
            "name": "A3",
            "ticks": 56085,
            "time": 63.158720625,
            "velocity": 0.6535433070866141
          },
          {
            "duration": 0.24774750000000267,
            "durationTicks": 220,
            "midi": 50,
            "name": "D3",
            "ticks": 56155,
            "time": 63.237549375,
            "velocity": 0.41732283464566927
          },
          {
            "duration": 0.23648624999999868,
            "durationTicks": 210,
            "midi": 57,
            "name": "A3",
            "ticks": 56165,
            "time": 63.248810625000004,
            "velocity": 0.3779527559055118
          },
          {
            "duration": 0.15765750000000622,
            "durationTicks": 140,
            "midi": 57,
            "name": "A3",
            "ticks": 56395,
            "time": 63.507819375,
            "velocity": 0.6929133858267716
          },
          {
            "duration": 0.14639624999999512,
            "durationTicks": 130,
            "midi": 60,
            "name": "C4",
            "ticks": 56400,
            "time": 63.513450000000006,
            "velocity": 0.6771653543307087
          },
          {
            "duration": 0.14639624999999512,
            "durationTicks": 130,
            "midi": 67,
            "name": "G4",
            "ticks": 56405,
            "time": 63.51908062500001,
            "velocity": 0.5590551181102362
          },
          {
            "duration": 0.09008999999999645,
            "durationTicks": 80,
            "midi": 66,
            "name": "F#4",
            "ticks": 56555,
            "time": 63.687999375000004,
            "velocity": 0.6377952755905512
          },
          {
            "duration": 0.07882875000000666,
            "durationTicks": 70,
            "midi": 60,
            "name": "C4",
            "ticks": 56560,
            "time": 63.69363,
            "velocity": 0.7165354330708661
          },
          {
            "duration": 0.06756750000000267,
            "durationTicks": 60,
            "midi": 57,
            "name": "A3",
            "ticks": 56565,
            "time": 63.699260625,
            "velocity": 0.7322834645669292
          },
          {
            "duration": 0.1914412500000111,
            "durationTicks": 170,
            "midi": 50,
            "name": "D3",
            "ticks": 57535,
            "time": 64.791601875,
            "velocity": 0.6929133858267716
          },
          {
            "duration": 0.1801799999999929,
            "durationTicks": 160,
            "midi": 53,
            "name": "F3",
            "ticks": 57540,
            "time": 64.7972325,
            "velocity": 0.6929133858267716
          },
          {
            "duration": 0.1801800000000071,
            "durationTicks": 160,
            "midi": 58,
            "name": "A#3",
            "ticks": 57545,
            "time": 64.802863125,
            "velocity": 0.7086614173228346
          },
          {
            "duration": 0.011261250000003997,
            "durationTicks": 10,
            "midi": 62,
            "name": "D4",
            "ticks": 57755,
            "time": 65.039349375,
            "velocity": 0.49606299212598426
          },
          {
            "duration": 0.011261250000003997,
            "durationTicks": 10,
            "midi": 58,
            "name": "A#3",
            "ticks": 57760,
            "time": 65.04498,
            "velocity": 0.49606299212598426
          },
          {
            "duration": 0.011261249999989786,
            "durationTicks": 10,
            "midi": 53,
            "name": "F3",
            "ticks": 57765,
            "time": 65.050610625,
            "velocity": 0.5118110236220472
          },
          {
            "duration": 0.10135124999999334,
            "durationTicks": 90,
            "midi": 53,
            "name": "F3",
            "ticks": 57835,
            "time": 65.129439375,
            "velocity": 0.49606299212598426
          },
          {
            "duration": 0.09008999999998935,
            "durationTicks": 80,
            "midi": 58,
            "name": "A#3",
            "ticks": 57845,
            "time": 65.14070062500001,
            "velocity": 0.6535433070866141
          },
          {
            "duration": 0.07882874999999956,
            "durationTicks": 70,
            "midi": 62,
            "name": "D4",
            "ticks": 57855,
            "time": 65.151961875,
            "velocity": 0.6692913385826772
          },
          {
            "duration": 0.011261250000003997,
            "durationTicks": 10,
            "midi": 50,
            "name": "D3",
            "ticks": 58075,
            "time": 65.399709375,
            "velocity": 0.5354330708661418
          },
          {
            "duration": 0.011261250000003997,
            "durationTicks": 10,
            "midi": 53,
            "name": "F3",
            "ticks": 58085,
            "time": 65.410970625,
            "velocity": 0.5354330708661418
          },
          {
            "duration": 0.011261249999989786,
            "durationTicks": 10,
            "midi": 58,
            "name": "A#3",
            "ticks": 58095,
            "time": 65.42223187500001,
            "velocity": 0.5590551181102362
          },
          {
            "duration": 0.09009000000000356,
            "durationTicks": 80,
            "midi": 53,
            "name": "F3",
            "ticks": 58315,
            "time": 65.669979375,
            "velocity": 0.6141732283464567
          },
          {
            "duration": 0.06756750000000977,
            "durationTicks": 60,
            "midi": 58,
            "name": "A#3",
            "ticks": 58325,
            "time": 65.681240625,
            "velocity": 0.6929133858267716
          },
          {
            "duration": 0.056306250000005775,
            "durationTicks": 50,
            "midi": 62,
            "name": "D4",
            "ticks": 58335,
            "time": 65.692501875,
            "velocity": 0.7086614173228346
          },
          {
            "duration": 0.2252250000000089,
            "durationTicks": 200,
            "midi": 50,
            "name": "D3",
            "ticks": 58555,
            "time": 65.940249375,
            "velocity": 0.41732283464566927
          },
          {
            "duration": 0.21396374999999068,
            "durationTicks": 190,
            "midi": 53,
            "name": "F3",
            "ticks": 58565,
            "time": 65.95151062500001,
            "velocity": 0.41732283464566927
          },
          {
            "duration": 0.2027025000000009,
            "durationTicks": 180,
            "midi": 58,
            "name": "A#3",
            "ticks": 58575,
            "time": 65.962771875,
            "velocity": 0.4015748031496063
          },
          {
            "duration": 0.14639624999999512,
            "durationTicks": 130,
            "midi": 53,
            "name": "F3",
            "ticks": 58795,
            "time": 66.210519375,
            "velocity": 0.6929133858267716
          },
          {
            "duration": 0.13513499999999112,
            "durationTicks": 120,
            "midi": 58,
            "name": "A#3",
            "ticks": 58805,
            "time": 66.22178062500001,
            "velocity": 0.7007874015748031
          },
          {
            "duration": 0.12387375000000134,
            "durationTicks": 110,
            "midi": 62,
            "name": "D4",
            "ticks": 58815,
            "time": 66.233041875,
            "velocity": 0.7086614173228346
          },
          {
            "duration": 0.04504499999998757,
            "durationTicks": 40,
            "midi": 62,
            "name": "D4",
            "ticks": 58955,
            "time": 66.39069937500001,
            "velocity": 0.7322834645669292
          },
          {
            "duration": 0.03378374999999778,
            "durationTicks": 30,
            "midi": 58,
            "name": "A#3",
            "ticks": 58960,
            "time": 66.39633,
            "velocity": 0.7322834645669292
          },
          {
            "duration": 0.022522500000007994,
            "durationTicks": 20,
            "midi": 53,
            "name": "F3",
            "ticks": 58965,
            "time": 66.401960625,
            "velocity": 0.7480314960629921
          },
          {
            "duration": 0.056306250000005775,
            "durationTicks": 50,
            "midi": 50,
            "name": "D3",
            "ticks": 59035,
            "time": 66.480789375,
            "velocity": 0.4566929133858268
          },
          {
            "duration": 0.04504500000000178,
            "durationTicks": 40,
            "midi": 53,
            "name": "F3",
            "ticks": 59045,
            "time": 66.492050625,
            "velocity": 0.5354330708661418
          },
          {
            "duration": 0.03378374999999778,
            "durationTicks": 30,
            "midi": 58,
            "name": "A#3",
            "ticks": 59055,
            "time": 66.50331187500001,
            "velocity": 0.5590551181102362
          },
          {
            "duration": 0.14639625000000933,
            "durationTicks": 130,
            "midi": 53,
            "name": "F3",
            "ticks": 59275,
            "time": 66.751059375,
            "velocity": 0.5354330708661418
          },
          {
            "duration": 0.13513500000000533,
            "durationTicks": 120,
            "midi": 58,
            "name": "A#3",
            "ticks": 59285,
            "time": 66.762320625,
            "velocity": 0.6929133858267716
          },
          {
            "duration": 0.12387375000000134,
            "durationTicks": 110,
            "midi": 62,
            "name": "D4",
            "ticks": 59295,
            "time": 66.773581875,
            "velocity": 0.7086614173228346
          },
          {
            "duration": 0.23648624999999868,
            "durationTicks": 210,
            "midi": 63,
            "name": "D#4",
            "ticks": 59435,
            "time": 66.931239375,
            "velocity": 0.5748031496062992
          },
          {
            "duration": 0.2252250000000089,
            "durationTicks": 200,
            "midi": 60,
            "name": "C4",
            "ticks": 59440,
            "time": 66.93687,
            "velocity": 0.5748031496062992
          },
          {
            "duration": 0.22522499999999468,
            "durationTicks": 200,
            "midi": 55,
            "name": "G3",
            "ticks": 59445,
            "time": 66.94250062500001,
            "velocity": 0.5905511811023622
          },
          {
            "duration": 0.011261250000003997,
            "durationTicks": 10,
            "midi": 63,
            "name": "D#4",
            "ticks": 59675,
            "time": 67.201509375,
            "velocity": 0.5748031496062992
          },
          {
            "duration": 0.011261250000003997,
            "durationTicks": 10,
            "midi": 60,
            "name": "C4",
            "ticks": 59680,
            "time": 67.20714,
            "velocity": 0.5748031496062992
          },
          {
            "duration": 0.011261249999989786,
            "durationTicks": 10,
            "midi": 55,
            "name": "G3",
            "ticks": 59685,
            "time": 67.212770625,
            "velocity": 0.5118110236220472
          },
          {
            "duration": 0.07882874999999956,
            "durationTicks": 70,
            "midi": 55,
            "name": "G3",
            "ticks": 59755,
            "time": 67.291599375,
            "velocity": 0.6141732283464567
          },
          {
            "duration": 0.06756749999999556,
            "durationTicks": 60,
            "midi": 60,
            "name": "C4",
            "ticks": 59765,
            "time": 67.30286062500001,
            "velocity": 0.6929133858267716
          },
          {
            "duration": 0.056306250000005775,
            "durationTicks": 50,
            "midi": 63,
            "name": "D#4",
            "ticks": 59775,
            "time": 67.314121875,
            "velocity": 0.7086614173228346
          },
          {
            "duration": 0.011261249999989786,
            "durationTicks": 10,
            "midi": 63,
            "name": "D#4",
            "ticks": 59915,
            "time": 67.47177937500001,
            "velocity": 0.33858267716535434
          },
          {
            "duration": 0.011261250000003997,
            "durationTicks": 10,
            "midi": 60,
            "name": "C4",
            "ticks": 59920,
            "time": 67.47741,
            "velocity": 0.41732283464566927
          },
          {
            "duration": 0.011261250000003997,
            "durationTicks": 10,
            "midi": 55,
            "name": "G3",
            "ticks": 59925,
            "time": 67.483040625,
            "velocity": 0.4330708661417323
          },
          {
            "duration": 0.10135124999999334,
            "durationTicks": 90,
            "midi": 55,
            "name": "G3",
            "ticks": 59995,
            "time": 67.561869375,
            "velocity": 0.4566929133858268
          },
          {
            "duration": 0.09008999999998935,
            "durationTicks": 80,
            "midi": 60,
            "name": "C4",
            "ticks": 60005,
            "time": 67.573130625,
            "velocity": 0.5354330708661418
          },
          {
            "duration": 0.07882874999998535,
            "durationTicks": 70,
            "midi": 63,
            "name": "D#4",
            "ticks": 60015,
            "time": 67.58439187500001,
            "velocity": 0.5511811023622047
          },
          {
            "duration": 0.14639625000000933,
            "durationTicks": 130,
            "midi": 55,
            "name": "G3",
            "ticks": 60235,
            "time": 67.832139375,
            "velocity": 0.5354330708661418
          },
          {
            "duration": 0.13513500000000533,
            "durationTicks": 120,
            "midi": 60,
            "name": "C4",
            "ticks": 60245,
            "time": 67.843400625,
            "velocity": 0.6141732283464567
          },
          {
            "duration": 0.12387375000000134,
            "durationTicks": 110,
            "midi": 63,
            "name": "D#4",
            "ticks": 60255,
            "time": 67.854661875,
            "velocity": 0.6299212598425197
          },
          {
            "duration": 0.056306249999991564,
            "durationTicks": 50,
            "midi": 63,
            "name": "D#4",
            "ticks": 60395,
            "time": 68.012319375,
            "velocity": 0.6692913385826772
          },
          {
            "duration": 0.04504500000000178,
            "durationTicks": 40,
            "midi": 60,
            "name": "C4",
            "ticks": 60400,
            "time": 68.01795,
            "velocity": 0.7007874015748031
          },
          {
            "duration": 0.03378374999999778,
            "durationTicks": 30,
            "midi": 55,
            "name": "G3",
            "ticks": 60405,
            "time": 68.02358062500001,
            "velocity": 0.7165354330708661
          },
          {
            "duration": 0.2027025000000009,
            "durationTicks": 180,
            "midi": 54,
            "name": "F#3",
            "ticks": 60475,
            "time": 68.102409375,
            "velocity": 0.5669291338582677
          },
          {
            "duration": 0.1914412499999827,
            "durationTicks": 170,
            "midi": 60,
            "name": "C4",
            "ticks": 60485,
            "time": 68.11367062500001,
            "velocity": 0.6141732283464567
          },
          {
            "duration": 0.1801799999999929,
            "durationTicks": 160,
            "midi": 65,
            "name": "F4",
            "ticks": 60495,
            "time": 68.124931875,
            "velocity": 0.6220472440944882
          },
          {
            "duration": 0.07882874999999956,
            "durationTicks": 70,
            "midi": 54,
            "name": "F#3",
            "ticks": 60715,
            "time": 68.372679375,
            "velocity": 0.5354330708661418
          },
          {
            "duration": 0.06756749999999556,
            "durationTicks": 60,
            "midi": 60,
            "name": "C4",
            "ticks": 60725,
            "time": 68.38394062500001,
            "velocity": 0.6929133858267716
          },
          {
            "duration": 0.056306250000005775,
            "durationTicks": 50,
            "midi": 65,
            "name": "F4",
            "ticks": 60735,
            "time": 68.395201875,
            "velocity": 0.7086614173228346
          },
          {
            "duration": 0.011261249999989786,
            "durationTicks": 10,
            "midi": 62,
            "name": "D4",
            "ticks": 60875,
            "time": 68.55285937500001,
            "velocity": 0.33858267716535434
          },
          {
            "duration": 0.011261250000003997,
            "durationTicks": 10,
            "midi": 58,
            "name": "A#3",
            "ticks": 60880,
            "time": 68.55849,
            "velocity": 0.41732283464566927
          },
          {
            "duration": 0.011261250000003997,
            "durationTicks": 10,
            "midi": 53,
            "name": "F3",
            "ticks": 60885,
            "time": 68.564120625,
            "velocity": 0.4330708661417323
          },
          {
            "duration": 0.24774750000000267,
            "durationTicks": 220,
            "midi": 50,
            "name": "D3",
            "ticks": 60955,
            "time": 68.642949375,
            "velocity": 0.3937007874015748
          },
          {
            "duration": 0.23648624999999868,
            "durationTicks": 210,
            "midi": 54,
            "name": "F#3",
            "ticks": 60965,
            "time": 68.654210625,
            "velocity": 0.3543307086614173
          },
          {
            "duration": 0.15765749999999912,
            "durationTicks": 140,
            "midi": 54,
            "name": "F#3",
            "ticks": 61195,
            "time": 68.913219375,
            "velocity": 0.5354330708661418
          },
          {
            "duration": 0.14639624999999512,
            "durationTicks": 130,
            "midi": 60,
            "name": "C4",
            "ticks": 61205,
            "time": 68.924480625,
            "velocity": 0.6929133858267716
          },
          {
            "duration": 0.13513499999999112,
            "durationTicks": 120,
            "midi": 65,
            "name": "F4",
            "ticks": 61215,
            "time": 68.935741875,
            "velocity": 0.7086614173228346
          },
          {
            "duration": 0.29279250000000445,
            "durationTicks": 260,
            "midi": 62,
            "name": "D4",
            "ticks": 61355,
            "time": 69.093399375,
            "velocity": 0.5748031496062992
          },
          {
            "duration": 0.28153125000000045,
            "durationTicks": 250,
            "midi": 58,
            "name": "A#3",
            "ticks": 61360,
            "time": 69.09903,
            "velocity": 0.5748031496062992
          },
          {
            "duration": 0.28153125000000045,
            "durationTicks": 250,
            "midi": 53,
            "name": "F3",
            "ticks": 61365,
            "time": 69.10466062500001,
            "velocity": 0.5905511811023622
          },
          {
            "duration": 0.09009000000000356,
            "durationTicks": 80,
            "midi": 53,
            "name": "F3",
            "ticks": 61675,
            "time": 69.453759375,
            "velocity": 0.5354330708661418
          },
          {
            "duration": 0.07882875000001377,
            "durationTicks": 70,
            "midi": 58,
            "name": "A#3",
            "ticks": 61685,
            "time": 69.465020625,
            "velocity": 0.6141732283464567
          },
          {
            "duration": 0.06756750000000977,
            "durationTicks": 60,
            "midi": 62,
            "name": "D4",
            "ticks": 61695,
            "time": 69.476281875,
            "velocity": 0.6299212598425197
          },
          {
            "duration": 0.011261250000003997,
            "durationTicks": 10,
            "midi": 62,
            "name": "D4",
            "ticks": 61835,
            "time": 69.633939375,
            "velocity": 0.33858267716535434
          },
          {
            "duration": 0.011261249999989786,
            "durationTicks": 10,
            "midi": 58,
            "name": "A#3",
            "ticks": 61840,
            "time": 69.63957,
            "velocity": 0.41732283464566927
          },
          {
            "duration": 0.011261250000003997,
            "durationTicks": 10,
            "midi": 53,
            "name": "F3",
            "ticks": 61845,
            "time": 69.645200625,
            "velocity": 0.4330708661417323
          },
          {
            "duration": 0.09008999999998935,
            "durationTicks": 80,
            "midi": 62,
            "name": "D4",
            "ticks": 61915,
            "time": 69.72402937500001,
            "velocity": 0.5748031496062992
          },
          {
            "duration": 0.07882875000001377,
            "durationTicks": 70,
            "midi": 58,
            "name": "A#3",
            "ticks": 61925,
            "time": 69.73529062499999,
            "velocity": 0.5748031496062992
          },
          {
            "duration": 0.06756749999999556,
            "durationTicks": 60,
            "midi": 53,
            "name": "F3",
            "ticks": 61935,
            "time": 69.74655187500001,
            "velocity": 0.5905511811023622
          },
          {
            "duration": 0.13513499999999112,
            "durationTicks": 120,
            "midi": 53,
            "name": "F3",
            "ticks": 62155,
            "time": 69.99429937500001,
            "velocity": 0.6141732283464567
          },
          {
            "duration": 0.12387375000000134,
            "durationTicks": 110,
            "midi": 58,
            "name": "A#3",
            "ticks": 62165,
            "time": 70.005560625,
            "velocity": 0.6141732283464567
          },
          {
            "duration": 0.11261249999999734,
            "durationTicks": 100,
            "midi": 62,
            "name": "D4",
            "ticks": 62175,
            "time": 70.016821875,
            "velocity": 0.6299212598425197
          },
          {
            "duration": 0.022522500000007994,
            "durationTicks": 20,
            "midi": 62,
            "name": "D4",
            "ticks": 62315,
            "time": 70.174479375,
            "velocity": 0.5748031496062992
          },
          {
            "duration": 0.011261249999989786,
            "durationTicks": 10,
            "midi": 58,
            "name": "A#3",
            "ticks": 62320,
            "time": 70.18011000000001,
            "velocity": 0.5748031496062992
          },
          {
            "duration": 0.011261250000003997,
            "durationTicks": 10,
            "midi": 53,
            "name": "F3",
            "ticks": 62325,
            "time": 70.18574062500001,
            "velocity": 0.5905511811023622
          },
          {
            "duration": 0.16891875000000312,
            "durationTicks": 150,
            "midi": 53,
            "name": "F3",
            "ticks": 62395,
            "time": 70.26456937500001,
            "velocity": 0.5748031496062992
          },
          {
            "duration": 0.15765750000001333,
            "durationTicks": 140,
            "midi": 58,
            "name": "A#3",
            "ticks": 62405,
            "time": 70.275830625,
            "velocity": 0.5748031496062992
          },
          {
            "duration": 0.14639625000000933,
            "durationTicks": 130,
            "midi": 62,
            "name": "D4",
            "ticks": 62415,
            "time": 70.287091875,
            "velocity": 0.5984251968503937
          },
          {
            "duration": 0.06756749999999556,
            "durationTicks": 60,
            "midi": 62,
            "name": "D4",
            "ticks": 62555,
            "time": 70.444749375,
            "velocity": 0.5354330708661418
          },
          {
            "duration": 0.06756749999999556,
            "durationTicks": 60,
            "midi": 58,
            "name": "A#3",
            "ticks": 62560,
            "time": 70.45038000000001,
            "velocity": 0.5354330708661418
          },
          {
            "duration": 0.056306249999991564,
            "durationTicks": 50,
            "midi": 53,
            "name": "F3",
            "ticks": 62565,
            "time": 70.456010625,
            "velocity": 0.5511811023622047
          },
          {
            "duration": 0.16891875000000312,
            "durationTicks": 150,
            "midi": 53,
            "name": "F3",
            "ticks": 62635,
            "time": 70.534839375,
            "velocity": 0.5905511811023622
          },
          {
            "duration": 0.15765750000001333,
            "durationTicks": 140,
            "midi": 58,
            "name": "A#3",
            "ticks": 62645,
            "time": 70.546100625,
            "velocity": 0.5905511811023622
          },
          {
            "duration": 0.14639625000000933,
            "durationTicks": 130,
            "midi": 62,
            "name": "D4",
            "ticks": 62655,
            "time": 70.557361875,
            "velocity": 0.6141732283464567
          },
          {
            "duration": 0.24774750000000267,
            "durationTicks": 220,
            "midi": 62,
            "name": "D4",
            "ticks": 62795,
            "time": 70.715019375,
            "velocity": 0.6220472440944882
          },
          {
            "duration": 0.23648624999999868,
            "durationTicks": 210,
            "midi": 58,
            "name": "A#3",
            "ticks": 62805,
            "time": 70.726280625,
            "velocity": 0.6299212598425197
          },
          {
            "duration": 0.22522499999999468,
            "durationTicks": 200,
            "midi": 53,
            "name": "F3",
            "ticks": 62815,
            "time": 70.737541875,
            "velocity": 0.6377952755905512
          },
          {
            "duration": 0.07882875000001377,
            "durationTicks": 70,
            "midi": 62,
            "name": "D4",
            "ticks": 63035,
            "time": 70.985289375,
            "velocity": 0.5354330708661418
          },
          {
            "duration": 0.07882874999999956,
            "durationTicks": 70,
            "midi": 58,
            "name": "A#3",
            "ticks": 63040,
            "time": 70.99092,
            "velocity": 0.5354330708661418
          },
          {
            "duration": 0.06756750000000977,
            "durationTicks": 60,
            "midi": 53,
            "name": "F3",
            "ticks": 63045,
            "time": 70.996550625,
            "velocity": 0.5511811023622047
          },
          {
            "duration": 0.09008999999998935,
            "durationTicks": 80,
            "midi": 62,
            "name": "D4",
            "ticks": 63115,
            "time": 71.07537937500001,
            "velocity": 0.7007874015748031
          },
          {
            "duration": 0.07882874999999956,
            "durationTicks": 70,
            "midi": 58,
            "name": "A#3",
            "ticks": 63125,
            "time": 71.086640625,
            "velocity": 0.7007874015748031
          },
          {
            "duration": 0.06756749999999556,
            "durationTicks": 60,
            "midi": 53,
            "name": "F3",
            "ticks": 63135,
            "time": 71.097901875,
            "velocity": 0.7086614173228346
          },
          {
            "duration": 0.3941437499999978,
            "durationTicks": 350,
            "midi": 58,
            "name": "A#3",
            "ticks": 63355,
            "time": 71.34564937500001,
            "velocity": 0.7480314960629921
          },
          {
            "duration": 0.382882500000008,
            "durationTicks": 340,
            "midi": 62,
            "name": "D4",
            "ticks": 63365,
            "time": 71.356910625,
            "velocity": 0.6692913385826772
          },
          {
            "duration": 0.371621250000004,
            "durationTicks": 330,
            "midi": 67,
            "name": "G4",
            "ticks": 63375,
            "time": 71.368171875,
            "velocity": 0.6692913385826772
          },
          {
            "duration": 0.394143750000012,
            "durationTicks": 350,
            "midi": 58,
            "name": "A#3",
            "ticks": 63725,
            "time": 71.762315625,
            "velocity": 0.7795275590551181
          },
          {
            "duration": 0.371621250000004,
            "durationTicks": 330,
            "midi": 62,
            "name": "D4",
            "ticks": 63735,
            "time": 71.773576875,
            "velocity": 0.7480314960629921
          },
          {
            "duration": 0.36036,
            "durationTicks": 320,
            "midi": 67,
            "name": "G4",
            "ticks": 63745,
            "time": 71.78483812500001,
            "velocity": 0.6771653543307087
          },
          {
            "duration": 0.36036,
            "durationTicks": 320,
            "midi": 58,
            "name": "A#3",
            "ticks": 64105,
            "time": 72.19024312500001,
            "velocity": 0.7244094488188977
          },
          {
            "duration": 0.3490987500000102,
            "durationTicks": 310,
            "midi": 62,
            "name": "D4",
            "ticks": 64115,
            "time": 72.201504375,
            "velocity": 0.6929133858267716
          },
          {
            "duration": 0.33783750000000623,
            "durationTicks": 300,
            "midi": 67,
            "name": "G4",
            "ticks": 64125,
            "time": 72.212765625,
            "velocity": 0.6850393700787402
          },
          {
            "duration": 0.24774750000000267,
            "durationTicks": 220,
            "midi": 58,
            "name": "A#3",
            "ticks": 64455,
            "time": 72.584386875,
            "velocity": 0.7165354330708661
          },
          {
            "duration": 0.23648624999999868,
            "durationTicks": 210,
            "midi": 62,
            "name": "D4",
            "ticks": 64465,
            "time": 72.59564812500001,
            "velocity": 0.7086614173228346
          },
          {
            "duration": 0.2252250000000089,
            "durationTicks": 200,
            "midi": 67,
            "name": "G4",
            "ticks": 64475,
            "time": 72.606909375,
            "velocity": 0.7086614173228346
          },
          {
            "duration": 0.022522499999993784,
            "durationTicks": 20,
            "midi": 67,
            "name": "G4",
            "ticks": 64695,
            "time": 72.854656875,
            "velocity": 0.49606299212598426
          },
          {
            "duration": 0.011261249999989786,
            "durationTicks": 10,
            "midi": 62,
            "name": "D4",
            "ticks": 64705,
            "time": 72.86591812500001,
            "velocity": 0.5905511811023622
          },
          {
            "duration": 0.011261250000003997,
            "durationTicks": 10,
            "midi": 58,
            "name": "A#3",
            "ticks": 64715,
            "time": 72.877179375,
            "velocity": 0.6692913385826772
          },
          {
            "duration": 0.10135125000000755,
            "durationTicks": 90,
            "midi": 58,
            "name": "A#3",
            "ticks": 64785,
            "time": 72.956008125,
            "velocity": 0.7322834645669292
          },
          {
            "duration": 0.09008999999998935,
            "durationTicks": 80,
            "midi": 62,
            "name": "D4",
            "ticks": 64795,
            "time": 72.96726937500001,
            "velocity": 0.7480314960629921
          },
          {
            "duration": 0.07882875000001377,
            "durationTicks": 70,
            "midi": 67,
            "name": "G4",
            "ticks": 64805,
            "time": 72.97853062499999,
            "velocity": 0.7480314960629921
          },
          {
            "duration": 0.056306249999991564,
            "durationTicks": 50,
            "midi": 58,
            "name": "A#3",
            "ticks": 65035,
            "time": 73.23753937500001,
            "velocity": 0.7874015748031497
          },
          {
            "duration": 0.04504500000000178,
            "durationTicks": 40,
            "midi": 62,
            "name": "D4",
            "ticks": 65040,
            "time": 73.24317,
            "velocity": 0.7716535433070866
          },
          {
            "duration": 0.03378374999999778,
            "durationTicks": 30,
            "midi": 67,
            "name": "G4",
            "ticks": 65045,
            "time": 73.248800625,
            "velocity": 0.7952755905511811
          },
          {
            "duration": 0.056306249999991564,
            "durationTicks": 50,
            "midi": 57,
            "name": "A3",
            "ticks": 65275,
            "time": 73.50780937500001,
            "velocity": 0.6299212598425197
          },
          {
            "duration": 0.04504500000000178,
            "durationTicks": 40,
            "midi": 60,
            "name": "C4",
            "ticks": 65285,
            "time": 73.519070625,
            "velocity": 0.5511811023622047
          },
          {
            "duration": 0.03378374999999778,
            "durationTicks": 30,
            "midi": 66,
            "name": "F#4",
            "ticks": 65295,
            "time": 73.530331875,
            "velocity": 0.3700787401574803
          },
          {
            "duration": 0.056306249999991564,
            "durationTicks": 50,
            "midi": 57,
            "name": "A3",
            "ticks": 65515,
            "time": 73.778079375,
            "velocity": 0.7874015748031497
          },
          {
            "duration": 0.04504500000000178,
            "durationTicks": 40,
            "midi": 60,
            "name": "C4",
            "ticks": 65525,
            "time": 73.789340625,
            "velocity": 0.7086614173228346
          },
          {
            "duration": 0.03378374999999778,
            "durationTicks": 30,
            "midi": 66,
            "name": "F#4",
            "ticks": 65535,
            "time": 73.800601875,
            "velocity": 0.5275590551181102
          },
          {
            "duration": 0.056306249999991564,
            "durationTicks": 50,
            "midi": 57,
            "name": "A3",
            "ticks": 65755,
            "time": 74.04834937500002,
            "velocity": 0.6299212598425197
          },
          {
            "duration": 0.04504500000001599,
            "durationTicks": 40,
            "midi": 60,
            "name": "C4",
            "ticks": 65765,
            "time": 74.05961062499999,
            "velocity": 0.5511811023622047
          },
          {
            "duration": 0.03378374999999778,
            "durationTicks": 30,
            "midi": 66,
            "name": "F#4",
            "ticks": 65775,
            "time": 74.07087187500001,
            "velocity": 0.3700787401574803
          },
          {
            "duration": 0.1576574999999849,
            "durationTicks": 140,
            "midi": 57,
            "name": "A3",
            "ticks": 65995,
            "time": 74.31861937500001,
            "velocity": 0.7874015748031497
          },
          {
            "duration": 0.14639624999999512,
            "durationTicks": 130,
            "midi": 60,
            "name": "C4",
            "ticks": 66005,
            "time": 74.329880625,
            "velocity": 0.7086614173228346
          },
          {
            "duration": 0.13513499999999112,
            "durationTicks": 120,
            "midi": 66,
            "name": "F#4",
            "ticks": 66015,
            "time": 74.341141875,
            "velocity": 0.5275590551181102
          },
          {
            "duration": 0.056306250000005775,
            "durationTicks": 50,
            "midi": 66,
            "name": "F#4",
            "ticks": 66155,
            "time": 74.498799375,
            "velocity": 0.44881889763779526
          },
          {
            "duration": 0.04504500000000178,
            "durationTicks": 40,
            "midi": 60,
            "name": "C4",
            "ticks": 66165,
            "time": 74.51006062500001,
            "velocity": 0.5511811023622047
          },
          {
            "duration": 0.03378374999999778,
            "durationTicks": 30,
            "midi": 57,
            "name": "A3",
            "ticks": 66175,
            "time": 74.52132187500001,
            "velocity": 0.7086614173228346
          },
          {
            "duration": 0.056306249999991564,
            "durationTicks": 50,
            "midi": 58,
            "name": "A#3",
            "ticks": 66235,
            "time": 74.58888937500001,
            "velocity": 0.6299212598425197
          },
          {
            "duration": 0.04504500000000178,
            "durationTicks": 40,
            "midi": 63,
            "name": "D#4",
            "ticks": 66245,
            "time": 74.600150625,
            "velocity": 0.5511811023622047
          },
          {
            "duration": 0.03378374999999778,
            "durationTicks": 30,
            "midi": 67,
            "name": "G4",
            "ticks": 66255,
            "time": 74.611411875,
            "velocity": 0.44881889763779526
          },
          {
            "duration": 0.056306249999991564,
            "durationTicks": 50,
            "midi": 58,
            "name": "A#3",
            "ticks": 66475,
            "time": 74.859159375,
            "velocity": 0.7874015748031497
          },
          {
            "duration": 0.04504500000000178,
            "durationTicks": 40,
            "midi": 63,
            "name": "D#4",
            "ticks": 66485,
            "time": 74.870420625,
            "velocity": 0.7086614173228346
          },
          {
            "duration": 0.03378374999999778,
            "durationTicks": 30,
            "midi": 67,
            "name": "G4",
            "ticks": 66495,
            "time": 74.881681875,
            "velocity": 0.5275590551181102
          },
          {
            "duration": 0.056306249999991564,
            "durationTicks": 50,
            "midi": 58,
            "name": "A#3",
            "ticks": 66715,
            "time": 75.12942937500002,
            "velocity": 0.6299212598425197
          },
          {
            "duration": 0.04504500000001599,
            "durationTicks": 40,
            "midi": 63,
            "name": "D#4",
            "ticks": 66725,
            "time": 75.14069062499999,
            "velocity": 0.5511811023622047
          },
          {
            "duration": 0.03378374999999778,
            "durationTicks": 30,
            "midi": 67,
            "name": "G4",
            "ticks": 66735,
            "time": 75.15195187500001,
            "velocity": 0.44881889763779526
          },
          {
            "duration": 0.1576574999999849,
            "durationTicks": 140,
            "midi": 58,
            "name": "A#3",
            "ticks": 66955,
            "time": 75.39969937500001,
            "velocity": 0.7874015748031497
          },
          {
            "duration": 0.14639624999999512,
            "durationTicks": 130,
            "midi": 63,
            "name": "D#4",
            "ticks": 66965,
            "time": 75.410960625,
            "velocity": 0.7086614173228346
          },
          {
            "duration": 0.13513499999999112,
            "durationTicks": 120,
            "midi": 67,
            "name": "G4",
            "ticks": 66975,
            "time": 75.422221875,
            "velocity": 0.5275590551181102
          },
          {
            "duration": 0.056306250000005775,
            "durationTicks": 50,
            "midi": 67,
            "name": "G4",
            "ticks": 67115,
            "time": 75.579879375,
            "velocity": 0.44881889763779526
          },
          {
            "duration": 0.04504500000000178,
            "durationTicks": 40,
            "midi": 63,
            "name": "D#4",
            "ticks": 67125,
            "time": 75.59114062500001,
            "velocity": 0.5511811023622047
          },
          {
            "duration": 0.03378374999999778,
            "durationTicks": 30,
            "midi": 58,
            "name": "A#3",
            "ticks": 67135,
            "time": 75.60240187500001,
            "velocity": 0.7086614173228346
          },
          {
            "duration": 0.056306249999991564,
            "durationTicks": 50,
            "midi": 57,
            "name": "A3",
            "ticks": 67195,
            "time": 75.66996937500001,
            "velocity": 0.7874015748031497
          },
          {
            "duration": 0.04504500000000178,
            "durationTicks": 40,
            "midi": 60,
            "name": "C4",
            "ticks": 67200,
            "time": 75.6756,
            "velocity": 0.7874015748031497
          },
          {
            "duration": 0.03378374999999778,
            "durationTicks": 30,
            "midi": 66,
            "name": "F#4",
            "ticks": 67205,
            "time": 75.681230625,
            "velocity": 0.7637795275590551
          },
          {
            "duration": 0.8671162500000236,
            "durationTicks": 770,
            "midi": 54,
            "name": "F#3",
            "ticks": 67685,
            "time": 76.22177062499999,
            "velocity": 0.8818897637795275
          },
          {
            "duration": 0.8558549999999769,
            "durationTicks": 760,
            "midi": 60,
            "name": "C4",
            "ticks": 67690,
            "time": 76.22740125000001,
            "velocity": 0.8818897637795275
          },
          {
            "duration": 0.8558550000000054,
            "durationTicks": 760,
            "midi": 65,
            "name": "F4",
            "ticks": 67695,
            "time": 76.23303187500001,
            "velocity": 0.8503937007874016
          },
          {
            "duration": 0.24774749999998846,
            "durationTicks": 220,
            "midi": 43,
            "name": "G2",
            "ticks": 69115,
            "time": 77.83212937500001,
            "velocity": 0.41732283464566927
          },
          {
            "duration": 0.23648624999999868,
            "durationTicks": 210,
            "midi": 50,
            "name": "D3",
            "ticks": 69125,
            "time": 77.843390625,
            "velocity": 0.3779527559055118
          },
          {
            "duration": 0.04504499999998757,
            "durationTicks": 40,
            "midi": 58,
            "name": "A#3",
            "ticks": 69355,
            "time": 78.102399375,
            "velocity": 0.7322834645669292
          },
          {
            "duration": 0.03378374999999778,
            "durationTicks": 30,
            "midi": 62,
            "name": "D4",
            "ticks": 69360,
            "time": 78.10803,
            "velocity": 0.7165354330708661
          },
          {
            "duration": 0.022522500000007994,
            "durationTicks": 20,
            "midi": 67,
            "name": "G4",
            "ticks": 69365,
            "time": 78.113660625,
            "velocity": 0.7165354330708661
          },
          {
            "duration": 0.011261250000003997,
            "durationTicks": 10,
            "midi": 67,
            "name": "G4",
            "ticks": 69515,
            "time": 78.282579375,
            "velocity": 0.4409448818897638
          },
          {
            "duration": 0.011261249999989786,
            "durationTicks": 10,
            "midi": 62,
            "name": "D4",
            "ticks": 69520,
            "time": 78.28821,
            "velocity": 0.4409448818897638
          },
          {
            "duration": 0.011261250000003997,
            "durationTicks": 10,
            "midi": 58,
            "name": "A#3",
            "ticks": 69525,
            "time": 78.293840625,
            "velocity": 0.4566929133858268
          },
          {
            "duration": 0.24774749999998846,
            "durationTicks": 220,
            "midi": 43,
            "name": "G2",
            "ticks": 69595,
            "time": 78.37266937500002,
            "velocity": 0.41732283464566927
          },
          {
            "duration": 0.2364862500000129,
            "durationTicks": 210,
            "midi": 50,
            "name": "D3",
            "ticks": 69605,
            "time": 78.38393062499999,
            "velocity": 0.3779527559055118
          },
          {
            "duration": 0.09008999999998935,
            "durationTicks": 80,
            "midi": 58,
            "name": "A#3",
            "ticks": 69835,
            "time": 78.64293937500001,
            "velocity": 0.7322834645669292
          },
          {
            "duration": 0.07882874999999956,
            "durationTicks": 70,
            "midi": 62,
            "name": "D4",
            "ticks": 69845,
            "time": 78.654200625,
            "velocity": 0.7165354330708661
          },
          {
            "duration": 0.06756749999999556,
            "durationTicks": 60,
            "midi": 67,
            "name": "G4",
            "ticks": 69855,
            "time": 78.665461875,
            "velocity": 0.7165354330708661
          },
          {
            "duration": 0.24774749999998846,
            "durationTicks": 220,
            "midi": 43,
            "name": "G2",
            "ticks": 70075,
            "time": 78.91320937500001,
            "velocity": 0.41732283464566927
          },
          {
            "duration": 0.23648624999999868,
            "durationTicks": 210,
            "midi": 50,
            "name": "D3",
            "ticks": 70085,
            "time": 78.924470625,
            "velocity": 0.3779527559055118
          },
          {
            "duration": 0.04504499999998757,
            "durationTicks": 40,
            "midi": 58,
            "name": "A#3",
            "ticks": 70315,
            "time": 79.183479375,
            "velocity": 0.7322834645669292
          },
          {
            "duration": 0.03378374999999778,
            "durationTicks": 30,
            "midi": 62,
            "name": "D4",
            "ticks": 70320,
            "time": 79.18911,
            "velocity": 0.7165354330708661
          },
          {
            "duration": 0.022522500000007994,
            "durationTicks": 20,
            "midi": 67,
            "name": "G4",
            "ticks": 70325,
            "time": 79.194740625,
            "velocity": 0.7165354330708661
          },
          {
            "duration": 0.011261250000003997,
            "durationTicks": 10,
            "midi": 67,
            "name": "G4",
            "ticks": 70475,
            "time": 79.363659375,
            "velocity": 0.4409448818897638
          },
          {
            "duration": 0.011261249999989786,
            "durationTicks": 10,
            "midi": 62,
            "name": "D4",
            "ticks": 70480,
            "time": 79.36929,
            "velocity": 0.4409448818897638
          },
          {
            "duration": 0.011261250000003997,
            "durationTicks": 10,
            "midi": 58,
            "name": "A#3",
            "ticks": 70485,
            "time": 79.374920625,
            "velocity": 0.4566929133858268
          },
          {
            "duration": 0.24774749999998846,
            "durationTicks": 220,
            "midi": 43,
            "name": "G2",
            "ticks": 70555,
            "time": 79.45374937500002,
            "velocity": 0.41732283464566927
          },
          {
            "duration": 0.2364862500000129,
            "durationTicks": 210,
            "midi": 50,
            "name": "D3",
            "ticks": 70565,
            "time": 79.46501062499999,
            "velocity": 0.3779527559055118
          },
          {
            "duration": 0.09008999999998935,
            "durationTicks": 80,
            "midi": 58,
            "name": "A#3",
            "ticks": 70795,
            "time": 79.72401937500001,
            "velocity": 0.7322834645669292
          },
          {
            "duration": 0.07882874999999956,
            "durationTicks": 70,
            "midi": 62,
            "name": "D4",
            "ticks": 70800,
            "time": 79.72965,
            "velocity": 0.7165354330708661
          },
          {
            "duration": 0.06756749999999556,
            "durationTicks": 60,
            "midi": 67,
            "name": "G4",
            "ticks": 70805,
            "time": 79.735280625,
            "velocity": 0.7165354330708661
          },
          {
            "duration": 0.24774749999998846,
            "durationTicks": 220,
            "midi": 46,
            "name": "A#2",
            "ticks": 71035,
            "time": 79.99428937500001,
            "velocity": 0.41732283464566927
          },
          {
            "duration": 0.23648624999999868,
            "durationTicks": 210,
            "midi": 53,
            "name": "F3",
            "ticks": 71045,
            "time": 80.005550625,
            "velocity": 0.3779527559055118
          },
          {
            "duration": 0.04504499999998757,
            "durationTicks": 40,
            "midi": 56,
            "name": "G#3",
            "ticks": 71275,
            "time": 80.264559375,
            "velocity": 0.6535433070866141
          },
          {
            "duration": 0.03378374999999778,
            "durationTicks": 30,
            "midi": 62,
            "name": "D4",
            "ticks": 71280,
            "time": 80.27019,
            "velocity": 0.7165354330708661
          },
          {
            "duration": 0.022522500000007994,
            "durationTicks": 20,
            "midi": 65,
            "name": "F4",
            "ticks": 71285,
            "time": 80.275820625,
            "velocity": 0.7165354330708661
          },
          {
            "duration": 0.011261250000003997,
            "durationTicks": 10,
            "midi": 65,
            "name": "F4",
            "ticks": 71435,
            "time": 80.444739375,
            "velocity": 0.4409448818897638
          },
          {
            "duration": 0.011261249999989786,
            "durationTicks": 10,
            "midi": 62,
            "name": "D4",
            "ticks": 71440,
            "time": 80.45037,
            "velocity": 0.4409448818897638
          },
          {
            "duration": 0.011261250000003997,
            "durationTicks": 10,
            "midi": 56,
            "name": "G#3",
            "ticks": 71445,
            "time": 80.456000625,
            "velocity": 0.3779527559055118
          },
          {
            "duration": 0.24774749999998846,
            "durationTicks": 220,
            "midi": 46,
            "name": "A#2",
            "ticks": 71515,
            "time": 80.53482937500002,
            "velocity": 0.41732283464566927
          },
          {
            "duration": 0.2364862500000129,
            "durationTicks": 210,
            "midi": 53,
            "name": "F3",
            "ticks": 71525,
            "time": 80.54609062499999,
            "velocity": 0.3779527559055118
          },
          {
            "duration": 0.09008999999998935,
            "durationTicks": 80,
            "midi": 56,
            "name": "G#3",
            "ticks": 71755,
            "time": 80.80509937500001,
            "velocity": 0.6535433070866141
          },
          {
            "duration": 0.07882874999999956,
            "durationTicks": 70,
            "midi": 62,
            "name": "D4",
            "ticks": 71765,
            "time": 80.816360625,
            "velocity": 0.7165354330708661
          },
          {
            "duration": 0.06756749999999556,
            "durationTicks": 60,
            "midi": 65,
            "name": "F4",
            "ticks": 71775,
            "time": 80.827621875,
            "velocity": 0.7165354330708661
          },
          {
            "duration": 0.24774749999998846,
            "durationTicks": 220,
            "midi": 46,
            "name": "A#2",
            "ticks": 71995,
            "time": 81.07536937500001,
            "velocity": 0.41732283464566927
          },
          {
            "duration": 0.23648624999999868,
            "durationTicks": 210,
            "midi": 53,
            "name": "F3",
            "ticks": 72005,
            "time": 81.086630625,
            "velocity": 0.3779527559055118
          },
          {
            "duration": 0.04504499999998757,
            "durationTicks": 40,
            "midi": 56,
            "name": "G#3",
            "ticks": 72235,
            "time": 81.345639375,
            "velocity": 0.6535433070866141
          },
          {
            "duration": 0.03378374999999778,
            "durationTicks": 30,
            "midi": 62,
            "name": "D4",
            "ticks": 72240,
            "time": 81.35127,
            "velocity": 0.7165354330708661
          },
          {
            "duration": 0.022522500000007994,
            "durationTicks": 20,
            "midi": 65,
            "name": "F4",
            "ticks": 72245,
            "time": 81.356900625,
            "velocity": 0.7165354330708661
          },
          {
            "duration": 0.011261250000003997,
            "durationTicks": 10,
            "midi": 65,
            "name": "F4",
            "ticks": 72395,
            "time": 81.525819375,
            "velocity": 0.4409448818897638
          },
          {
            "duration": 0.011261249999989786,
            "durationTicks": 10,
            "midi": 62,
            "name": "D4",
            "ticks": 72400,
            "time": 81.53145,
            "velocity": 0.4409448818897638
          },
          {
            "duration": 0.011261250000003997,
            "durationTicks": 10,
            "midi": 56,
            "name": "G#3",
            "ticks": 72405,
            "time": 81.537080625,
            "velocity": 0.3779527559055118
          },
          {
            "duration": 0.24774749999998846,
            "durationTicks": 220,
            "midi": 46,
            "name": "A#2",
            "ticks": 72475,
            "time": 81.61590937500002,
            "velocity": 0.41732283464566927
          },
          {
            "duration": 0.2364862500000129,
            "durationTicks": 210,
            "midi": 53,
            "name": "F3",
            "ticks": 72485,
            "time": 81.62717062499999,
            "velocity": 0.3779527559055118
          },
          {
            "duration": 0.09008999999998935,
            "durationTicks": 80,
            "midi": 56,
            "name": "G#3",
            "ticks": 72715,
            "time": 81.88617937500001,
            "velocity": 0.6535433070866141
          },
          {
            "duration": 0.07882874999999956,
            "durationTicks": 70,
            "midi": 62,
            "name": "D4",
            "ticks": 72720,
            "time": 81.89181,
            "velocity": 0.7165354330708661
          },
          {
            "duration": 0.06756749999999556,
            "durationTicks": 60,
            "midi": 65,
            "name": "F4",
            "ticks": 72725,
            "time": 81.897440625,
            "velocity": 0.7165354330708661
          },
          {
            "duration": 0.24774749999998846,
            "durationTicks": 220,
            "midi": 51,
            "name": "D#3",
            "ticks": 72955,
            "time": 82.15644937500001,
            "velocity": 0.41732283464566927
          },
          {
            "duration": 0.23648624999999868,
            "durationTicks": 210,
            "midi": 58,
            "name": "A#3",
            "ticks": 72965,
            "time": 82.167710625,
            "velocity": 0.3779527559055118
          },
          {
            "duration": 0.04504499999998757,
            "durationTicks": 40,
            "midi": 58,
            "name": "A#3",
            "ticks": 73195,
            "time": 82.426719375,
            "velocity": 0.6535433070866141
          },
          {
            "duration": 0.03378374999999778,
            "durationTicks": 30,
            "midi": 62,
            "name": "D4",
            "ticks": 73200,
            "time": 82.43235,
            "velocity": 0.7165354330708661
          },
          {
            "duration": 0.022522500000007994,
            "durationTicks": 20,
            "midi": 67,
            "name": "G4",
            "ticks": 73205,
            "time": 82.437980625,
            "velocity": 0.7165354330708661
          },
          {
            "duration": 0.011261250000003997,
            "durationTicks": 10,
            "midi": 67,
            "name": "G4",
            "ticks": 73355,
            "time": 82.606899375,
            "velocity": 0.4409448818897638
          },
          {
            "duration": 0.011261249999989786,
            "durationTicks": 10,
            "midi": 62,
            "name": "D4",
            "ticks": 73360,
            "time": 82.61253,
            "velocity": 0.4409448818897638
          },
          {
            "duration": 0.011261250000003997,
            "durationTicks": 10,
            "midi": 58,
            "name": "A#3",
            "ticks": 73365,
            "time": 82.618160625,
            "velocity": 0.3779527559055118
          },
          {
            "duration": 0.24774749999998846,
            "durationTicks": 220,
            "midi": 51,
            "name": "D#3",
            "ticks": 73435,
            "time": 82.69698937500002,
            "velocity": 0.41732283464566927
          },
          {
            "duration": 0.2364862500000129,
            "durationTicks": 210,
            "midi": 58,
            "name": "A#3",
            "ticks": 73445,
            "time": 82.70825062499999,
            "velocity": 0.3779527559055118
          },
          {
            "duration": 0.09008999999998935,
            "durationTicks": 80,
            "midi": 58,
            "name": "A#3",
            "ticks": 73675,
            "time": 82.96725937500001,
            "velocity": 0.6535433070866141
          },
          {
            "duration": 0.07882874999999956,
            "durationTicks": 70,
            "midi": 62,
            "name": "D4",
            "ticks": 73685,
            "time": 82.978520625,
            "velocity": 0.7165354330708661
          },
          {
            "duration": 0.06756749999999556,
            "durationTicks": 60,
            "midi": 67,
            "name": "G4",
            "ticks": 73695,
            "time": 82.989781875,
            "velocity": 0.7165354330708661
          },
          {
            "duration": 0.24774749999998846,
            "durationTicks": 220,
            "midi": 51,
            "name": "D#3",
            "ticks": 73915,
            "time": 83.23752937500001,
            "velocity": 0.41732283464566927
          },
          {
            "duration": 0.23648624999999868,
            "durationTicks": 210,
            "midi": 58,
            "name": "A#3",
            "ticks": 73925,
            "time": 83.248790625,
            "velocity": 0.3779527559055118
          },
          {
            "duration": 0.04504499999998757,
            "durationTicks": 40,
            "midi": 58,
            "name": "A#3",
            "ticks": 74155,
            "time": 83.507799375,
            "velocity": 0.6535433070866141
          },
          {
            "duration": 0.03378374999999778,
            "durationTicks": 30,
            "midi": 62,
            "name": "D4",
            "ticks": 74160,
            "time": 83.51343,
            "velocity": 0.7165354330708661
          },
          {
            "duration": 0.022522500000007994,
            "durationTicks": 20,
            "midi": 67,
            "name": "G4",
            "ticks": 74165,
            "time": 83.519060625,
            "velocity": 0.7165354330708661
          },
          {
            "duration": 0.011261250000003997,
            "durationTicks": 10,
            "midi": 67,
            "name": "G4",
            "ticks": 74315,
            "time": 83.687979375,
            "velocity": 0.4409448818897638
          },
          {
            "duration": 0.011261249999989786,
            "durationTicks": 10,
            "midi": 62,
            "name": "D4",
            "ticks": 74320,
            "time": 83.69361,
            "velocity": 0.4409448818897638
          },
          {
            "duration": 0.011261250000003997,
            "durationTicks": 10,
            "midi": 58,
            "name": "A#3",
            "ticks": 74325,
            "time": 83.699240625,
            "velocity": 0.3779527559055118
          },
          {
            "duration": 0.24774749999998846,
            "durationTicks": 220,
            "midi": 51,
            "name": "D#3",
            "ticks": 74395,
            "time": 83.77806937500002,
            "velocity": 0.41732283464566927
          },
          {
            "duration": 0.2364862500000129,
            "durationTicks": 210,
            "midi": 58,
            "name": "A#3",
            "ticks": 74405,
            "time": 83.78933062499999,
            "velocity": 0.3779527559055118
          },
          {
            "duration": 0.09008999999998935,
            "durationTicks": 80,
            "midi": 58,
            "name": "A#3",
            "ticks": 74635,
            "time": 84.04833937500001,
            "velocity": 0.6535433070866141
          },
          {
            "duration": 0.07882874999999956,
            "durationTicks": 70,
            "midi": 62,
            "name": "D4",
            "ticks": 74640,
            "time": 84.05397,
            "velocity": 0.7165354330708661
          },
          {
            "duration": 0.06756749999999556,
            "durationTicks": 60,
            "midi": 67,
            "name": "G4",
            "ticks": 74645,
            "time": 84.059600625,
            "velocity": 0.7165354330708661
          },
          {
            "duration": 0.24774749999998846,
            "durationTicks": 220,
            "midi": 50,
            "name": "D3",
            "ticks": 74875,
            "time": 84.31860937500001,
            "velocity": 0.41732283464566927
          },
          {
            "duration": 0.23648624999999868,
            "durationTicks": 210,
            "midi": 57,
            "name": "A3",
            "ticks": 74885,
            "time": 84.329870625,
            "velocity": 0.3779527559055118
          },
          {
            "duration": 0.04504499999998757,
            "durationTicks": 40,
            "midi": 57,
            "name": "A3",
            "ticks": 75115,
            "time": 84.588879375,
            "velocity": 0.6535433070866141
          },
          {
            "duration": 0.03378374999999778,
            "durationTicks": 30,
            "midi": 60,
            "name": "C4",
            "ticks": 75120,
            "time": 84.59451,
            "velocity": 0.7165354330708661
          },
          {
            "duration": 0.022522500000007994,
            "durationTicks": 20,
            "midi": 67,
            "name": "G4",
            "ticks": 75125,
            "time": 84.600140625,
            "velocity": 0.7165354330708661
          },
          {
            "duration": 0.011261250000003997,
            "durationTicks": 10,
            "midi": 67,
            "name": "G4",
            "ticks": 75275,
            "time": 84.769059375,
            "velocity": 0.4409448818897638
          },
          {
            "duration": 0.011261249999989786,
            "durationTicks": 10,
            "midi": 60,
            "name": "C4",
            "ticks": 75280,
            "time": 84.77469,
            "velocity": 0.4409448818897638
          },
          {
            "duration": 0.011261250000003997,
            "durationTicks": 10,
            "midi": 57,
            "name": "A3",
            "ticks": 75285,
            "time": 84.780320625,
            "velocity": 0.3779527559055118
          },
          {
            "duration": 0.24774749999998846,
            "durationTicks": 220,
            "midi": 50,
            "name": "D3",
            "ticks": 75355,
            "time": 84.85914937500002,
            "velocity": 0.49606299212598426
          },
          {
            "duration": 0.2364862500000129,
            "durationTicks": 210,
            "midi": 57,
            "name": "A3",
            "ticks": 75365,
            "time": 84.87041062499999,
            "velocity": 0.4566929133858268
          },
          {
            "duration": 0.09008999999998935,
            "durationTicks": 80,
            "midi": 57,
            "name": "A3",
            "ticks": 75595,
            "time": 85.12941937500001,
            "velocity": 0.6535433070866141
          },
          {
            "duration": 0.07882874999999956,
            "durationTicks": 70,
            "midi": 60,
            "name": "C4",
            "ticks": 75605,
            "time": 85.140680625,
            "velocity": 0.7165354330708661
          },
          {
            "duration": 0.06756749999999556,
            "durationTicks": 60,
            "midi": 67,
            "name": "G4",
            "ticks": 75615,
            "time": 85.151941875,
            "velocity": 0.7165354330708661
          },
          {
            "duration": 0.24774749999998846,
            "durationTicks": 220,
            "midi": 50,
            "name": "D3",
            "ticks": 75835,
            "time": 85.39968937500001,
            "velocity": 0.5354330708661418
          },
          {
            "duration": 0.23648624999999868,
            "durationTicks": 210,
            "midi": 57,
            "name": "A3",
            "ticks": 75845,
            "time": 85.410950625,
            "velocity": 0.49606299212598426
          },
          {
            "duration": 0.04504499999998757,
            "durationTicks": 40,
            "midi": 57,
            "name": "A3",
            "ticks": 76075,
            "time": 85.669959375,
            "velocity": 0.6535433070866141
          },
          {
            "duration": 0.03378374999999778,
            "durationTicks": 30,
            "midi": 60,
            "name": "C4",
            "ticks": 76080,
            "time": 85.67559,
            "velocity": 0.7165354330708661
          },
          {
            "duration": 0.022522500000007994,
            "durationTicks": 20,
            "midi": 66,
            "name": "F#4",
            "ticks": 76085,
            "time": 85.681220625,
            "velocity": 0.7165354330708661
          },
          {
            "duration": 0.011261250000003997,
            "durationTicks": 10,
            "midi": 66,
            "name": "F#4",
            "ticks": 76235,
            "time": 85.850139375,
            "velocity": 0.5984251968503937
          },
          {
            "duration": 0.011261249999989786,
            "durationTicks": 10,
            "midi": 60,
            "name": "C4",
            "ticks": 76240,
            "time": 85.85577,
            "velocity": 0.5984251968503937
          },
          {
            "duration": 0.011261250000003997,
            "durationTicks": 10,
            "midi": 57,
            "name": "A3",
            "ticks": 76245,
            "time": 85.861400625,
            "velocity": 0.5354330708661418
          },
          {
            "duration": 0.24774749999998846,
            "durationTicks": 220,
            "midi": 50,
            "name": "D3",
            "ticks": 76315,
            "time": 85.94022937500002,
            "velocity": 0.5748031496062992
          },
          {
            "duration": 0.2364862500000129,
            "durationTicks": 210,
            "midi": 57,
            "name": "A3",
            "ticks": 76325,
            "time": 85.95149062499999,
            "velocity": 0.5354330708661418
          },
          {
            "duration": 0.09008999999998935,
            "durationTicks": 80,
            "midi": 57,
            "name": "A3",
            "ticks": 76555,
            "time": 86.21049937500001,
            "velocity": 0.6535433070866141
          },
          {
            "duration": 0.07882874999999956,
            "durationTicks": 70,
            "midi": 60,
            "name": "C4",
            "ticks": 76560,
            "time": 86.21613,
            "velocity": 0.7165354330708661
          },
          {
            "duration": 0.06756749999999556,
            "durationTicks": 60,
            "midi": 66,
            "name": "F#4",
            "ticks": 76565,
            "time": 86.221760625,
            "velocity": 0.7165354330708661
          },
          {
            "duration": 0.24774749999998846,
            "durationTicks": 220,
            "midi": 55,
            "name": "G3",
            "ticks": 76795,
            "time": 86.48076937500001,
            "velocity": 0.6377952755905512
          },
          {
            "duration": 0.24774750000000267,
            "durationTicks": 220,
            "midi": 58,
            "name": "A#3",
            "ticks": 76800,
            "time": 86.4864,
            "velocity": 0.6377952755905512
          },
          {
            "duration": 0.23648624999999868,
            "durationTicks": 210,
            "midi": 62,
            "name": "D4",
            "ticks": 76805,
            "time": 86.492030625,
            "velocity": 0.5984251968503937
          },
          {
            "duration": 0.04504499999998757,
            "durationTicks": 40,
            "midi": 58,
            "name": "A#3",
            "ticks": 77035,
            "time": 86.751039375,
            "velocity": 0.7165354330708661
          },
          {
            "duration": 0.03378374999999778,
            "durationTicks": 30,
            "midi": 62,
            "name": "D4",
            "ticks": 77040,
            "time": 86.75667,
            "velocity": 0.7007874015748031
          },
          {
            "duration": 0.022522500000007994,
            "durationTicks": 20,
            "midi": 67,
            "name": "G4",
            "ticks": 77045,
            "time": 86.762300625,
            "velocity": 0.7007874015748031
          },
          {
            "duration": 0.011261250000003997,
            "durationTicks": 10,
            "midi": 67,
            "name": "G4",
            "ticks": 77195,
            "time": 86.931219375,
            "velocity": 0.4251968503937008
          },
          {
            "duration": 0.011261249999989786,
            "durationTicks": 10,
            "midi": 62,
            "name": "D4",
            "ticks": 77200,
            "time": 86.93685,
            "velocity": 0.4251968503937008
          },
          {
            "duration": 0.011261250000003997,
            "durationTicks": 10,
            "midi": 58,
            "name": "A#3",
            "ticks": 77205,
            "time": 86.942480625,
            "velocity": 0.4409448818897638
          },
          {
            "duration": 0.24774749999998846,
            "durationTicks": 220,
            "midi": 55,
            "name": "G3",
            "ticks": 77275,
            "time": 87.02130937500002,
            "velocity": 0.5984251968503937
          },
          {
            "duration": 0.24774750000001688,
            "durationTicks": 220,
            "midi": 58,
            "name": "A#3",
            "ticks": 77280,
            "time": 87.02694,
            "velocity": 0.5984251968503937
          },
          {
            "duration": 0.2364862500000129,
            "durationTicks": 210,
            "midi": 62,
            "name": "D4",
            "ticks": 77285,
            "time": 87.03257062499999,
            "velocity": 0.5590551181102362
          },
          {
            "duration": 0.16891875000000312,
            "durationTicks": 150,
            "midi": 58,
            "name": "A#3",
            "ticks": 77515,
            "time": 87.29157937500001,
            "velocity": 0.5511811023622047
          },
          {
            "duration": 0.16891875000000312,
            "durationTicks": 150,
            "midi": 62,
            "name": "D4",
            "ticks": 77520,
            "time": 87.29721,
            "velocity": 0.5511811023622047
          },
          {
            "duration": 0.15765750000001333,
            "durationTicks": 140,
            "midi": 67,
            "name": "G4",
            "ticks": 77525,
            "time": 87.302840625,
            "velocity": 0.5433070866141733
          },
          {
            "duration": 0.056306250000005775,
            "durationTicks": 50,
            "midi": 67,
            "name": "G4",
            "ticks": 77675,
            "time": 87.471759375,
            "velocity": 0.6220472440944882
          },
          {
            "duration": 0.056306249999991564,
            "durationTicks": 50,
            "midi": 62,
            "name": "D4",
            "ticks": 77680,
            "time": 87.47739000000001,
            "velocity": 0.6220472440944882
          },
          {
            "duration": 0.04504500000000178,
            "durationTicks": 40,
            "midi": 58,
            "name": "A#3",
            "ticks": 77685,
            "time": 87.48302062500001,
            "velocity": 0.6377952755905512
          },
          {
            "duration": 0.24774749999998846,
            "durationTicks": 220,
            "midi": 48,
            "name": "C3",
            "ticks": 77755,
            "time": 87.56184937500001,
            "velocity": 0.5984251968503937
          },
          {
            "duration": 0.24774750000000267,
            "durationTicks": 220,
            "midi": 55,
            "name": "G3",
            "ticks": 77760,
            "time": 87.56748,
            "velocity": 0.5984251968503937
          },
          {
            "duration": 0.23648624999999868,
            "durationTicks": 210,
            "midi": 58,
            "name": "A#3",
            "ticks": 77765,
            "time": 87.573110625,
            "velocity": 0.5826771653543307
          },
          {
            "duration": 0.04504499999998757,
            "durationTicks": 40,
            "midi": 58,
            "name": "A#3",
            "ticks": 77995,
            "time": 87.832119375,
            "velocity": 0.6377952755905512
          },
          {
            "duration": 0.03378374999999778,
            "durationTicks": 30,
            "midi": 64,
            "name": "E4",
            "ticks": 78000,
            "time": 87.83775,
            "velocity": 0.7007874015748031
          },
          {
            "duration": 0.022522500000007994,
            "durationTicks": 20,
            "midi": 67,
            "name": "G4",
            "ticks": 78005,
            "time": 87.843380625,
            "velocity": 0.7007874015748031
          },
          {
            "duration": 0.011261250000003997,
            "durationTicks": 10,
            "midi": 67,
            "name": "G4",
            "ticks": 78155,
            "time": 88.012299375,
            "velocity": 0.4251968503937008
          },
          {
            "duration": 0.011261249999989786,
            "durationTicks": 10,
            "midi": 64,
            "name": "E4",
            "ticks": 78160,
            "time": 88.01793,
            "velocity": 0.4251968503937008
          },
          {
            "duration": 0.011261250000003997,
            "durationTicks": 10,
            "midi": 58,
            "name": "A#3",
            "ticks": 78165,
            "time": 88.023560625,
            "velocity": 0.36220472440944884
          },
          {
            "duration": 0.24774749999998846,
            "durationTicks": 220,
            "midi": 48,
            "name": "C3",
            "ticks": 78235,
            "time": 88.10238937500002,
            "velocity": 0.5984251968503937
          },
          {
            "duration": 0.24774750000000267,
            "durationTicks": 220,
            "midi": 55,
            "name": "G3",
            "ticks": 78240,
            "time": 88.10802000000001,
            "velocity": 0.5984251968503937
          },
          {
            "duration": 0.2364862500000129,
            "durationTicks": 210,
            "midi": 58,
            "name": "A#3",
            "ticks": 78245,
            "time": 88.11365062499999,
            "velocity": 0.5826771653543307
          },
          {
            "duration": 0.04504499999998757,
            "durationTicks": 40,
            "midi": 58,
            "name": "A#3",
            "ticks": 78475,
            "time": 88.37265937500001,
            "velocity": 0.7165354330708661
          },
          {
            "duration": 0.03378374999999778,
            "durationTicks": 30,
            "midi": 64,
            "name": "E4",
            "ticks": 78480,
            "time": 88.37829,
            "velocity": 0.7007874015748031
          },
          {
            "duration": 0.022522500000007994,
            "durationTicks": 20,
            "midi": 67,
            "name": "G4",
            "ticks": 78485,
            "time": 88.383920625,
            "velocity": 0.7007874015748031
          },
          {
            "duration": 0.27026999999999646,
            "durationTicks": 240,
            "midi": 48,
            "name": "C3",
            "ticks": 78635,
            "time": 88.552839375,
            "velocity": 0.6377952755905512
          },
          {
            "duration": 0.25900874999999246,
            "durationTicks": 230,
            "midi": 55,
            "name": "G3",
            "ticks": 78640,
            "time": 88.55847000000001,
            "velocity": 0.6377952755905512
          },
          {
            "duration": 0.25900874999999246,
            "durationTicks": 230,
            "midi": 58,
            "name": "A#3",
            "ticks": 78645,
            "time": 88.56410062500001,
            "velocity": 0.6220472440944882
          },
          {
            "duration": 0.04504500000000178,
            "durationTicks": 40,
            "midi": 67,
            "name": "G4",
            "ticks": 78875,
            "time": 88.823109375,
            "velocity": 0.7401574803149606
          },
          {
            "duration": 0.04504499999998757,
            "durationTicks": 40,
            "midi": 63,
            "name": "D#4",
            "ticks": 78880,
            "time": 88.82874000000001,
            "velocity": 0.7401574803149606
          },
          {
            "duration": 0.03378374999999778,
            "durationTicks": 30,
            "midi": 58,
            "name": "A#3",
            "ticks": 78885,
            "time": 88.834370625,
            "velocity": 0.7559055118110236
          },
          {
            "duration": 0.25900874999999246,
            "durationTicks": 230,
            "midi": 48,
            "name": "C3",
            "ticks": 78955,
            "time": 88.913199375,
            "velocity": 0.6377952755905512
          },
          {
            "duration": 0.24774750000000267,
            "durationTicks": 220,
            "midi": 55,
            "name": "G3",
            "ticks": 78960,
            "time": 88.91883,
            "velocity": 0.6377952755905512
          },
          {
            "duration": 0.23648624999999868,
            "durationTicks": 210,
            "midi": 58,
            "name": "A#3",
            "ticks": 78965,
            "time": 88.924460625,
            "velocity": 0.6220472440944882
          },
          {
            "duration": 0.1801799999999787,
            "durationTicks": 160,
            "midi": 48,
            "name": "C3",
            "ticks": 79195,
            "time": 89.18346937500002,
            "velocity": 0.6377952755905512
          },
          {
            "duration": 0.16891875000000312,
            "durationTicks": 150,
            "midi": 55,
            "name": "G3",
            "ticks": 79200,
            "time": 89.1891,
            "velocity": 0.6377952755905512
          },
          {
            "duration": 0.16891875000000312,
            "durationTicks": 150,
            "midi": 58,
            "name": "A#3",
            "ticks": 79205,
            "time": 89.19473062499999,
            "velocity": 0.6220472440944882
          },
          {
            "duration": 0.04504499999998757,
            "durationTicks": 40,
            "midi": 58,
            "name": "A#3",
            "ticks": 79435,
            "time": 89.45373937500001,
            "velocity": 0.6377952755905512
          },
          {
            "duration": 0.03378374999999778,
            "durationTicks": 30,
            "midi": 63,
            "name": "D#4",
            "ticks": 79440,
            "time": 89.45937,
            "velocity": 0.7007874015748031
          },
          {
            "duration": 0.022522500000007994,
            "durationTicks": 20,
            "midi": 67,
            "name": "G4",
            "ticks": 79445,
            "time": 89.465000625,
            "velocity": 0.7007874015748031
          },
          {
            "duration": 0.011261250000003997,
            "durationTicks": 10,
            "midi": 67,
            "name": "G4",
            "ticks": 79595,
            "time": 89.633919375,
            "velocity": 0.48031496062992124
          },
          {
            "duration": 0.011261249999989786,
            "durationTicks": 10,
            "midi": 63,
            "name": "D#4",
            "ticks": 79600,
            "time": 89.63955000000001,
            "velocity": 0.48031496062992124
          },
          {
            "duration": 0.011261250000003997,
            "durationTicks": 10,
            "midi": 58,
            "name": "A#3",
            "ticks": 79605,
            "time": 89.64518062500001,
            "velocity": 0.41732283464566927
          },
          {
            "duration": 0.24774749999998846,
            "durationTicks": 220,
            "midi": 46,
            "name": "A#2",
            "ticks": 79675,
            "time": 89.72400937500001,
            "velocity": 0.5354330708661418
          },
          {
            "duration": 0.23648624999999868,
            "durationTicks": 210,
            "midi": 53,
            "name": "F3",
            "ticks": 79685,
            "time": 89.735270625,
            "velocity": 0.49606299212598426
          },
          {
            "duration": 0.04504499999998757,
            "durationTicks": 40,
            "midi": 56,
            "name": "G#3",
            "ticks": 79915,
            "time": 89.994279375,
            "velocity": 0.6929133858267716
          },
          {
            "duration": 0.03378374999999778,
            "durationTicks": 30,
            "midi": 62,
            "name": "D4",
            "ticks": 79920,
            "time": 89.99991,
            "velocity": 0.7559055118110236
          },
          {
            "duration": 0.022522500000007994,
            "durationTicks": 20,
            "midi": 65,
            "name": "F4",
            "ticks": 79925,
            "time": 90.005540625,
            "velocity": 0.7559055118110236
          },
          {
            "duration": 0.011261250000003997,
            "durationTicks": 10,
            "midi": 65,
            "name": "F4",
            "ticks": 80075,
            "time": 90.174459375,
            "velocity": 0.48031496062992124
          },
          {
            "duration": 0.011261249999989786,
            "durationTicks": 10,
            "midi": 62,
            "name": "D4",
            "ticks": 80080,
            "time": 90.18009,
            "velocity": 0.48031496062992124
          },
          {
            "duration": 0.011261250000003997,
            "durationTicks": 10,
            "midi": 56,
            "name": "G#3",
            "ticks": 80085,
            "time": 90.185720625,
            "velocity": 0.41732283464566927
          },
          {
            "duration": 0.24774749999998846,
            "durationTicks": 220,
            "midi": 46,
            "name": "A#2",
            "ticks": 80155,
            "time": 90.26454937500002,
            "velocity": 0.5354330708661418
          },
          {
            "duration": 0.2364862500000129,
            "durationTicks": 210,
            "midi": 53,
            "name": "F3",
            "ticks": 80165,
            "time": 90.27581062499999,
            "velocity": 0.49606299212598426
          },
          {
            "duration": 0.04504499999998757,
            "durationTicks": 40,
            "midi": 56,
            "name": "G#3",
            "ticks": 80395,
            "time": 90.53481937500001,
            "velocity": 0.6929133858267716
          },
          {
            "duration": 0.03378374999999778,
            "durationTicks": 30,
            "midi": 62,
            "name": "D4",
            "ticks": 80400,
            "time": 90.54045,
            "velocity": 0.7559055118110236
          },
          {
            "duration": 0.022522500000007994,
            "durationTicks": 20,
            "midi": 65,
            "name": "F4",
            "ticks": 80405,
            "time": 90.546080625,
            "velocity": 0.7559055118110236
          },
          {
            "duration": 0.337837499999992,
            "durationTicks": 300,
            "midi": 51,
            "name": "D#3",
            "ticks": 80555,
            "time": 90.714999375,
            "velocity": 0.6929133858267716
          },
          {
            "duration": 0.326576249999988,
            "durationTicks": 290,
            "midi": 58,
            "name": "A#3",
            "ticks": 80565,
            "time": 90.72626062500001,
            "velocity": 0.6535433070866141
          },
          {
            "duration": 0.04504499999998757,
            "durationTicks": 40,
            "midi": 58,
            "name": "A#3",
            "ticks": 80875,
            "time": 91.075359375,
            "velocity": 0.6929133858267716
          },
          {
            "duration": 0.03378374999999778,
            "durationTicks": 30,
            "midi": 62,
            "name": "D4",
            "ticks": 80880,
            "time": 91.08099,
            "velocity": 0.7559055118110236
          },
          {
            "duration": 0.022522500000007994,
            "durationTicks": 20,
            "midi": 67,
            "name": "G4",
            "ticks": 80885,
            "time": 91.086620625,
            "velocity": 0.7559055118110236
          },
          {
            "duration": 0.011261250000003997,
            "durationTicks": 10,
            "midi": 67,
            "name": "G4",
            "ticks": 81035,
            "time": 91.255539375,
            "velocity": 0.48031496062992124
          },
          {
            "duration": 0.011261249999989786,
            "durationTicks": 10,
            "midi": 62,
            "name": "D4",
            "ticks": 81040,
            "time": 91.26117,
            "velocity": 0.48031496062992124
          },
          {
            "duration": 0.011261250000003997,
            "durationTicks": 10,
            "midi": 58,
            "name": "A#3",
            "ticks": 81045,
            "time": 91.266800625,
            "velocity": 0.41732283464566927
          },
          {
            "duration": 0.24774749999998846,
            "durationTicks": 220,
            "midi": 51,
            "name": "D#3",
            "ticks": 81115,
            "time": 91.34562937500002,
            "velocity": 0.5354330708661418
          },
          {
            "duration": 0.2364862500000129,
            "durationTicks": 210,
            "midi": 58,
            "name": "A#3",
            "ticks": 81125,
            "time": 91.35689062499999,
            "velocity": 0.49606299212598426
          },
          {
            "duration": 0.09008999999998935,
            "durationTicks": 80,
            "midi": 58,
            "name": "A#3",
            "ticks": 81355,
            "time": 91.61589937500001,
            "velocity": 0.6929133858267716
          },
          {
            "duration": 0.07882874999999956,
            "durationTicks": 70,
            "midi": 62,
            "name": "D4",
            "ticks": 81365,
            "time": 91.627160625,
            "velocity": 0.7559055118110236
          },
          {
            "duration": 0.06756749999999556,
            "durationTicks": 60,
            "midi": 67,
            "name": "G4",
            "ticks": 81375,
            "time": 91.638421875,
            "velocity": 0.7559055118110236
          },
          {
            "duration": 0.24774749999998846,
            "durationTicks": 220,
            "midi": 51,
            "name": "D#3",
            "ticks": 81595,
            "time": 91.88616937500001,
            "velocity": 0.5354330708661418
          },
          {
            "duration": 0.23648624999999868,
            "durationTicks": 210,
            "midi": 58,
            "name": "A#3",
            "ticks": 81605,
            "time": 91.897430625,
            "velocity": 0.49606299212598426
          },
          {
            "duration": 0.04504499999998757,
            "durationTicks": 40,
            "midi": 58,
            "name": "A#3",
            "ticks": 81835,
            "time": 92.156439375,
            "velocity": 0.6929133858267716
          },
          {
            "duration": 0.03378374999999778,
            "durationTicks": 30,
            "midi": 62,
            "name": "D4",
            "ticks": 81840,
            "time": 92.16207,
            "velocity": 0.7559055118110236
          },
          {
            "duration": 0.022522500000007994,
            "durationTicks": 20,
            "midi": 67,
            "name": "G4",
            "ticks": 81845,
            "time": 92.167700625,
            "velocity": 0.7559055118110236
          },
          {
            "duration": 0.011261250000003997,
            "durationTicks": 10,
            "midi": 67,
            "name": "G4",
            "ticks": 81995,
            "time": 92.336619375,
            "velocity": 0.5590551181102362
          },
          {
            "duration": 0.011261249999989786,
            "durationTicks": 10,
            "midi": 62,
            "name": "D4",
            "ticks": 82000,
            "time": 92.34225,
            "velocity": 0.5590551181102362
          },
          {
            "duration": 0.011261250000003997,
            "durationTicks": 10,
            "midi": 58,
            "name": "A#3",
            "ticks": 82005,
            "time": 92.347880625,
            "velocity": 0.49606299212598426
          },
          {
            "duration": 0.24774749999998846,
            "durationTicks": 220,
            "midi": 51,
            "name": "D#3",
            "ticks": 82075,
            "time": 92.42670937500002,
            "velocity": 0.5354330708661418
          },
          {
            "duration": 0.2364862500000129,
            "durationTicks": 210,
            "midi": 58,
            "name": "A#3",
            "ticks": 82085,
            "time": 92.43797062499999,
            "velocity": 0.49606299212598426
          },
          {
            "duration": 0.09008999999998935,
            "durationTicks": 80,
            "midi": 58,
            "name": "A#3",
            "ticks": 82315,
            "time": 92.69697937500001,
            "velocity": 0.6929133858267716
          },
          {
            "duration": 0.07882874999999956,
            "durationTicks": 70,
            "midi": 62,
            "name": "D4",
            "ticks": 82320,
            "time": 92.70261,
            "velocity": 0.7559055118110236
          },
          {
            "duration": 0.06756749999999556,
            "durationTicks": 60,
            "midi": 67,
            "name": "G4",
            "ticks": 82325,
            "time": 92.708240625,
            "velocity": 0.7559055118110236
          },
          {
            "duration": 0.07882875000001377,
            "durationTicks": 70,
            "midi": 57,
            "name": "A3",
            "ticks": 82805,
            "time": 93.248780625,
            "velocity": 0.6299212598425197
          },
          {
            "duration": 0.07882874999999956,
            "durationTicks": 70,
            "midi": 60,
            "name": "C4",
            "ticks": 82810,
            "time": 93.25441125,
            "velocity": 0.6299212598425197
          },
          {
            "duration": 0.06756750000000977,
            "durationTicks": 60,
            "midi": 67,
            "name": "G4",
            "ticks": 82815,
            "time": 93.260041875,
            "velocity": 0.7244094488188977
          },
          {
            "duration": 0.056306249999991564,
            "durationTicks": 50,
            "midi": 57,
            "name": "A3",
            "ticks": 83175,
            "time": 93.665446875,
            "velocity": 0.7244094488188977
          },
          {
            "duration": 0.056306250000019986,
            "durationTicks": 50,
            "midi": 60,
            "name": "C4",
            "ticks": 83180,
            "time": 93.6710775,
            "velocity": 0.6299212598425197
          },
          {
            "duration": 0.04504499999998757,
            "durationTicks": 40,
            "midi": 67,
            "name": "G4",
            "ticks": 83185,
            "time": 93.676708125,
            "velocity": 0.6929133858267716
          },
          {
            "duration": 0.10135124999999334,
            "durationTicks": 90,
            "midi": 57,
            "name": "A3",
            "ticks": 83525,
            "time": 94.059590625,
            "velocity": 0.6929133858267716
          },
          {
            "duration": 0.09008999999998935,
            "durationTicks": 80,
            "midi": 60,
            "name": "C4",
            "ticks": 83530,
            "time": 94.06522125000001,
            "velocity": 0.7086614173228346
          },
          {
            "duration": 0.07882874999999956,
            "durationTicks": 70,
            "midi": 66,
            "name": "F#4",
            "ticks": 83535,
            "time": 94.070851875,
            "velocity": 0.6929133858267716
          },
          {
            "duration": 0.24774749999998846,
            "durationTicks": 220,
            "midi": 43,
            "name": "G2",
            "ticks": 84475,
            "time": 95.12940937500001,
            "velocity": 0.41732283464566927
          },
          {
            "duration": 0.23648624999999868,
            "durationTicks": 210,
            "midi": 50,
            "name": "D3",
            "ticks": 84485,
            "time": 95.140670625,
            "velocity": 0.3779527559055118
          },
          {
            "duration": 0.04504499999998757,
            "durationTicks": 40,
            "midi": 58,
            "name": "A#3",
            "ticks": 84715,
            "time": 95.399679375,
            "velocity": 0.7322834645669292
          },
          {
            "duration": 0.03378374999999778,
            "durationTicks": 30,
            "midi": 62,
            "name": "D4",
            "ticks": 84720,
            "time": 95.40531,
            "velocity": 0.7165354330708661
          },
          {
            "duration": 0.022522500000007994,
            "durationTicks": 20,
            "midi": 67,
            "name": "G4",
            "ticks": 84725,
            "time": 95.410940625,
            "velocity": 0.7165354330708661
          },
          {
            "duration": 0.011261250000003997,
            "durationTicks": 10,
            "midi": 67,
            "name": "G4",
            "ticks": 84875,
            "time": 95.579859375,
            "velocity": 0.4409448818897638
          },
          {
            "duration": 0.011261249999989786,
            "durationTicks": 10,
            "midi": 62,
            "name": "D4",
            "ticks": 84880,
            "time": 95.58549000000001,
            "velocity": 0.4409448818897638
          },
          {
            "duration": 0.011261250000003997,
            "durationTicks": 10,
            "midi": 58,
            "name": "A#3",
            "ticks": 84885,
            "time": 95.591120625,
            "velocity": 0.4566929133858268
          },
          {
            "duration": 0.24774749999998846,
            "durationTicks": 220,
            "midi": 43,
            "name": "G2",
            "ticks": 84955,
            "time": 95.66994937500002,
            "velocity": 0.41732283464566927
          },
          {
            "duration": 0.2364862500000129,
            "durationTicks": 210,
            "midi": 50,
            "name": "D3",
            "ticks": 84965,
            "time": 95.68121062499999,
            "velocity": 0.3779527559055118
          },
          {
            "duration": 0.04504499999998757,
            "durationTicks": 40,
            "midi": 58,
            "name": "A#3",
            "ticks": 85195,
            "time": 95.94021937500001,
            "velocity": 0.7322834645669292
          },
          {
            "duration": 0.03378374999999778,
            "durationTicks": 30,
            "midi": 62,
            "name": "D4",
            "ticks": 85200,
            "time": 95.94585000000001,
            "velocity": 0.7165354330708661
          },
          {
            "duration": 0.022522500000007994,
            "durationTicks": 20,
            "midi": 67,
            "name": "G4",
            "ticks": 85205,
            "time": 95.951480625,
            "velocity": 0.7165354330708661
          },
          {
            "duration": 0.011261250000003997,
            "durationTicks": 10,
            "midi": 67,
            "name": "G4",
            "ticks": 85355,
            "time": 96.120399375,
            "velocity": 0.4409448818897638
          },
          {
            "duration": 0.011261249999989786,
            "durationTicks": 10,
            "midi": 62,
            "name": "D4",
            "ticks": 85360,
            "time": 96.12603000000001,
            "velocity": 0.4409448818897638
          },
          {
            "duration": 0.011261250000003997,
            "durationTicks": 10,
            "midi": 58,
            "name": "A#3",
            "ticks": 85365,
            "time": 96.13166062500001,
            "velocity": 0.4566929133858268
          },
          {
            "duration": 0.24774749999998846,
            "durationTicks": 220,
            "midi": 46,
            "name": "A#2",
            "ticks": 85435,
            "time": 96.21048937500001,
            "velocity": 0.41732283464566927
          },
          {
            "duration": 0.23648624999999868,
            "durationTicks": 210,
            "midi": 53,
            "name": "F3",
            "ticks": 85445,
            "time": 96.221750625,
            "velocity": 0.3779527559055118
          },
          {
            "duration": 0.04504499999998757,
            "durationTicks": 40,
            "midi": 56,
            "name": "G#3",
            "ticks": 85675,
            "time": 96.480759375,
            "velocity": 0.6535433070866141
          },
          {
            "duration": 0.03378374999999778,
            "durationTicks": 30,
            "midi": 62,
            "name": "D4",
            "ticks": 85680,
            "time": 96.48639,
            "velocity": 0.7165354330708661
          },
          {
            "duration": 0.022522500000007994,
            "durationTicks": 20,
            "midi": 65,
            "name": "F4",
            "ticks": 85685,
            "time": 96.492020625,
            "velocity": 0.7165354330708661
          },
          {
            "duration": 0.011261250000003997,
            "durationTicks": 10,
            "midi": 65,
            "name": "F4",
            "ticks": 85835,
            "time": 96.660939375,
            "velocity": 0.4409448818897638
          },
          {
            "duration": 0.011261249999989786,
            "durationTicks": 10,
            "midi": 62,
            "name": "D4",
            "ticks": 85840,
            "time": 96.66657000000001,
            "velocity": 0.4409448818897638
          },
          {
            "duration": 0.011261250000003997,
            "durationTicks": 10,
            "midi": 56,
            "name": "G#3",
            "ticks": 85845,
            "time": 96.672200625,
            "velocity": 0.3779527559055118
          },
          {
            "duration": 0.24774749999998846,
            "durationTicks": 220,
            "midi": 46,
            "name": "A#2",
            "ticks": 85915,
            "time": 96.75102937500002,
            "velocity": 0.41732283464566927
          },
          {
            "duration": 0.2364862500000129,
            "durationTicks": 210,
            "midi": 53,
            "name": "F3",
            "ticks": 85925,
            "time": 96.76229062499999,
            "velocity": 0.3779527559055118
          },
          {
            "duration": 0.04504499999998757,
            "durationTicks": 40,
            "midi": 56,
            "name": "G#3",
            "ticks": 86155,
            "time": 97.02129937500001,
            "velocity": 0.6535433070866141
          },
          {
            "duration": 0.03378374999999778,
            "durationTicks": 30,
            "midi": 62,
            "name": "D4",
            "ticks": 86160,
            "time": 97.02693000000001,
            "velocity": 0.7165354330708661
          },
          {
            "duration": 0.022522500000007994,
            "durationTicks": 20,
            "midi": 65,
            "name": "F4",
            "ticks": 86165,
            "time": 97.032560625,
            "velocity": 0.7165354330708661
          },
          {
            "duration": 0.011261250000003997,
            "durationTicks": 10,
            "midi": 65,
            "name": "F4",
            "ticks": 86315,
            "time": 97.201479375,
            "velocity": 0.4409448818897638
          },
          {
            "duration": 0.011261249999989786,
            "durationTicks": 10,
            "midi": 62,
            "name": "D4",
            "ticks": 86320,
            "time": 97.20711000000001,
            "velocity": 0.4409448818897638
          },
          {
            "duration": 0.011261250000003997,
            "durationTicks": 10,
            "midi": 56,
            "name": "G#3",
            "ticks": 86325,
            "time": 97.21274062500001,
            "velocity": 0.3779527559055118
          },
          {
            "duration": 0.24774749999998846,
            "durationTicks": 220,
            "midi": 51,
            "name": "D#3",
            "ticks": 86395,
            "time": 97.29156937500001,
            "velocity": 0.41732283464566927
          },
          {
            "duration": 0.23648624999999868,
            "durationTicks": 210,
            "midi": 58,
            "name": "A#3",
            "ticks": 86405,
            "time": 97.302830625,
            "velocity": 0.3779527559055118
          },
          {
            "duration": 0.04504499999998757,
            "durationTicks": 40,
            "midi": 58,
            "name": "A#3",
            "ticks": 86635,
            "time": 97.561839375,
            "velocity": 0.6535433070866141
          },
          {
            "duration": 0.03378374999999778,
            "durationTicks": 30,
            "midi": 62,
            "name": "D4",
            "ticks": 86640,
            "time": 97.56747,
            "velocity": 0.7165354330708661
          },
          {
            "duration": 0.022522500000007994,
            "durationTicks": 20,
            "midi": 67,
            "name": "G4",
            "ticks": 86645,
            "time": 97.573100625,
            "velocity": 0.7165354330708661
          },
          {
            "duration": 0.011261250000003997,
            "durationTicks": 10,
            "midi": 67,
            "name": "G4",
            "ticks": 86795,
            "time": 97.742019375,
            "velocity": 0.4409448818897638
          },
          {
            "duration": 0.011261249999989786,
            "durationTicks": 10,
            "midi": 62,
            "name": "D4",
            "ticks": 86800,
            "time": 97.74765000000001,
            "velocity": 0.4409448818897638
          },
          {
            "duration": 0.011261250000003997,
            "durationTicks": 10,
            "midi": 58,
            "name": "A#3",
            "ticks": 86805,
            "time": 97.753280625,
            "velocity": 0.3779527559055118
          },
          {
            "duration": 0.24774749999998846,
            "durationTicks": 220,
            "midi": 51,
            "name": "D#3",
            "ticks": 86875,
            "time": 97.83210937500002,
            "velocity": 0.41732283464566927
          },
          {
            "duration": 0.2364862500000129,
            "durationTicks": 210,
            "midi": 58,
            "name": "A#3",
            "ticks": 86885,
            "time": 97.84337062499999,
            "velocity": 0.3779527559055118
          },
          {
            "duration": 0.09008999999998935,
            "durationTicks": 80,
            "midi": 58,
            "name": "A#3",
            "ticks": 87115,
            "time": 98.10237937500001,
            "velocity": 0.6535433070866141
          },
          {
            "duration": 0.07882874999999956,
            "durationTicks": 70,
            "midi": 62,
            "name": "D4",
            "ticks": 87125,
            "time": 98.113640625,
            "velocity": 0.7165354330708661
          },
          {
            "duration": 0.06756749999999556,
            "durationTicks": 60,
            "midi": 67,
            "name": "G4",
            "ticks": 87135,
            "time": 98.124901875,
            "velocity": 0.7165354330708661
          },
          {
            "duration": 0.24774749999998846,
            "durationTicks": 220,
            "midi": 44,
            "name": "G#2",
            "ticks": 87355,
            "time": 98.37264937500001,
            "velocity": 0.41732283464566927
          },
          {
            "duration": 0.23648624999999868,
            "durationTicks": 210,
            "midi": 51,
            "name": "D#3",
            "ticks": 87365,
            "time": 98.383910625,
            "velocity": 0.3779527559055118
          },
          {
            "duration": 0.04504499999998757,
            "durationTicks": 40,
            "midi": 60,
            "name": "C4",
            "ticks": 87595,
            "time": 98.642919375,
            "velocity": 0.7322834645669292
          },
          {
            "duration": 0.03378374999999778,
            "durationTicks": 30,
            "midi": 63,
            "name": "D#4",
            "ticks": 87600,
            "time": 98.64855,
            "velocity": 0.7165354330708661
          },
          {
            "duration": 0.022522500000007994,
            "durationTicks": 20,
            "midi": 68,
            "name": "G#4",
            "ticks": 87605,
            "time": 98.654180625,
            "velocity": 0.7165354330708661
          },
          {
            "duration": 0.011261250000003997,
            "durationTicks": 10,
            "midi": 68,
            "name": "G#4",
            "ticks": 87755,
            "time": 98.823099375,
            "velocity": 0.4409448818897638
          },
          {
            "duration": 0.011261249999989786,
            "durationTicks": 10,
            "midi": 63,
            "name": "D#4",
            "ticks": 87760,
            "time": 98.82873000000001,
            "velocity": 0.4409448818897638
          },
          {
            "duration": 0.011261250000003997,
            "durationTicks": 10,
            "midi": 60,
            "name": "C4",
            "ticks": 87765,
            "time": 98.834360625,
            "velocity": 0.4566929133858268
          },
          {
            "duration": 0.24774749999998846,
            "durationTicks": 220,
            "midi": 44,
            "name": "G#2",
            "ticks": 87835,
            "time": 98.91318937500002,
            "velocity": 0.41732283464566927
          },
          {
            "duration": 0.2364862500000129,
            "durationTicks": 210,
            "midi": 51,
            "name": "D#3",
            "ticks": 87845,
            "time": 98.92445062499999,
            "velocity": 0.3779527559055118
          },
          {
            "duration": 0.04504499999998757,
            "durationTicks": 40,
            "midi": 60,
            "name": "C4",
            "ticks": 88075,
            "time": 99.18345937500001,
            "velocity": 0.7322834645669292
          },
          {
            "duration": 0.03378374999999778,
            "durationTicks": 30,
            "midi": 63,
            "name": "D#4",
            "ticks": 88080,
            "time": 99.18909000000001,
            "velocity": 0.7165354330708661
          },
          {
            "duration": 0.022522500000007994,
            "durationTicks": 20,
            "midi": 68,
            "name": "G#4",
            "ticks": 88085,
            "time": 99.194720625,
            "velocity": 0.7165354330708661
          },
          {
            "duration": 0.04504499999998757,
            "durationTicks": 40,
            "midi": 57,
            "name": "A3",
            "ticks": 88315,
            "time": 99.45372937500001,
            "velocity": 0.7086614173228346
          },
          {
            "duration": 0.03378374999999778,
            "durationTicks": 30,
            "midi": 60,
            "name": "C4",
            "ticks": 88325,
            "time": 99.464990625,
            "velocity": 0.6141732283464567
          },
          {
            "duration": 0.03378374999999778,
            "durationTicks": 30,
            "midi": 67,
            "name": "G4",
            "ticks": 88335,
            "time": 99.476251875,
            "velocity": 0.7086614173228346
          },
          {
            "duration": 0.056306250000005775,
            "durationTicks": 50,
            "midi": 57,
            "name": "A3",
            "ticks": 88575,
            "time": 99.746521875,
            "velocity": 0.7086614173228346
          },
          {
            "duration": 0.056306250000019986,
            "durationTicks": 50,
            "midi": 60,
            "name": "C4",
            "ticks": 88580,
            "time": 99.7521525,
            "velocity": 0.6141732283464567
          },
          {
            "duration": 0.056306250000005775,
            "durationTicks": 50,
            "midi": 67,
            "name": "G4",
            "ticks": 88585,
            "time": 99.757783125,
            "velocity": 0.7086614173228346
          },
          {
            "duration": 0.07882874999998535,
            "durationTicks": 70,
            "midi": 57,
            "name": "A3",
            "ticks": 89275,
            "time": 100.53480937500001,
            "velocity": 0.5275590551181102
          },
          {
            "duration": 0.09008999999998935,
            "durationTicks": 80,
            "midi": 60,
            "name": "C4",
            "ticks": 89280,
            "time": 100.54044,
            "velocity": 0.7086614173228346
          },
          {
            "duration": 0.06756749999999556,
            "durationTicks": 60,
            "midi": 66,
            "name": "F#4",
            "ticks": 89285,
            "time": 100.546070625,
            "velocity": 0.7086614173228346
          },
          {
            "duration": 0.24774749999998846,
            "durationTicks": 220,
            "midi": 43,
            "name": "G2",
            "ticks": 90235,
            "time": 101.61588937500001,
            "velocity": 0.41732283464566927
          },
          {
            "duration": 0.23648624999999868,
            "durationTicks": 210,
            "midi": 50,
            "name": "D3",
            "ticks": 90245,
            "time": 101.627150625,
            "velocity": 0.3779527559055118
          },
          {
            "duration": 0.04504499999998757,
            "durationTicks": 40,
            "midi": 58,
            "name": "A#3",
            "ticks": 90475,
            "time": 101.886159375,
            "velocity": 0.7322834645669292
          },
          {
            "duration": 0.03378374999999778,
            "durationTicks": 30,
            "midi": 62,
            "name": "D4",
            "ticks": 90480,
            "time": 101.89179,
            "velocity": 0.7165354330708661
          },
          {
            "duration": 0.022522500000007994,
            "durationTicks": 20,
            "midi": 67,
            "name": "G4",
            "ticks": 90485,
            "time": 101.897420625,
            "velocity": 0.7165354330708661
          },
          {
            "duration": 0.24774749999998846,
            "durationTicks": 220,
            "midi": 43,
            "name": "G2",
            "ticks": 90715,
            "time": 102.15642937500002,
            "velocity": 0.41732283464566927
          },
          {
            "duration": 0.2364862500000129,
            "durationTicks": 210,
            "midi": 50,
            "name": "D3",
            "ticks": 90725,
            "time": 102.16769062499999,
            "velocity": 0.3779527559055118
          },
          {
            "duration": 0.04504499999998757,
            "durationTicks": 40,
            "midi": 58,
            "name": "A#3",
            "ticks": 90955,
            "time": 102.42669937500001,
            "velocity": 0.7322834645669292
          },
          {
            "duration": 0.03378374999999778,
            "durationTicks": 30,
            "midi": 62,
            "name": "D4",
            "ticks": 90960,
            "time": 102.43233000000001,
            "velocity": 0.7165354330708661
          },
          {
            "duration": 0.022522500000007994,
            "durationTicks": 20,
            "midi": 67,
            "name": "G4",
            "ticks": 90965,
            "time": 102.437960625,
            "velocity": 0.7165354330708661
          },
          {
            "duration": 0.24774749999998846,
            "durationTicks": 220,
            "midi": 48,
            "name": "C3",
            "ticks": 91195,
            "time": 102.69696937500001,
            "velocity": 0.41732283464566927
          },
          {
            "duration": 0.23648624999999868,
            "durationTicks": 210,
            "midi": 55,
            "name": "G3",
            "ticks": 91205,
            "time": 102.708230625,
            "velocity": 0.3779527559055118
          },
          {
            "duration": 0.04504499999998757,
            "durationTicks": 40,
            "midi": 58,
            "name": "A#3",
            "ticks": 91435,
            "time": 102.967239375,
            "velocity": 0.6535433070866141
          },
          {
            "duration": 0.03378374999999778,
            "durationTicks": 30,
            "midi": 64,
            "name": "E4",
            "ticks": 91440,
            "time": 102.97287,
            "velocity": 0.7165354330708661
          },
          {
            "duration": 0.022522500000007994,
            "durationTicks": 20,
            "midi": 67,
            "name": "G4",
            "ticks": 91445,
            "time": 102.978500625,
            "velocity": 0.7165354330708661
          },
          {
            "duration": 0.24774749999998846,
            "durationTicks": 220,
            "midi": 48,
            "name": "C3",
            "ticks": 91675,
            "time": 103.23750937500002,
            "velocity": 0.41732283464566927
          },
          {
            "duration": 0.2364862500000129,
            "durationTicks": 210,
            "midi": 55,
            "name": "G3",
            "ticks": 91685,
            "time": 103.24877062499999,
            "velocity": 0.3779527559055118
          },
          {
            "duration": 0.04504499999998757,
            "durationTicks": 40,
            "midi": 58,
            "name": "A#3",
            "ticks": 91915,
            "time": 103.50777937500001,
            "velocity": 0.6535433070866141
          },
          {
            "duration": 0.03378374999999778,
            "durationTicks": 30,
            "midi": 64,
            "name": "E4",
            "ticks": 91920,
            "time": 103.51341000000001,
            "velocity": 0.7165354330708661
          },
          {
            "duration": 0.022522500000007994,
            "durationTicks": 20,
            "midi": 67,
            "name": "G4",
            "ticks": 91925,
            "time": 103.519040625,
            "velocity": 0.7165354330708661
          },
          {
            "duration": 0.056306249999991564,
            "durationTicks": 50,
            "midi": 55,
            "name": "G3",
            "ticks": 92275,
            "time": 103.91318437500001,
            "velocity": 0.6062992125984252
          },
          {
            "duration": 0.04504500000000178,
            "durationTicks": 40,
            "midi": 58,
            "name": "A#3",
            "ticks": 92280,
            "time": 103.91881500000001,
            "velocity": 0.6929133858267716
          },
          {
            "duration": 0.04504500000000178,
            "durationTicks": 40,
            "midi": 62,
            "name": "D4",
            "ticks": 92285,
            "time": 103.924445625,
            "velocity": 0.7874015748031497
          },
          {
            "duration": 0.2139637500000191,
            "durationTicks": 190,
            "midi": 55,
            "name": "G3",
            "ticks": 92645,
            "time": 104.32985062499999,
            "velocity": 0.6929133858267716
          },
          {
            "duration": 0.2027025000000009,
            "durationTicks": 180,
            "midi": 58,
            "name": "A#3",
            "ticks": 92650,
            "time": 104.33548125000002,
            "velocity": 0.7874015748031497
          },
          {
            "duration": 0.2027025000000009,
            "durationTicks": 180,
            "midi": 64,
            "name": "E4",
            "ticks": 92655,
            "time": 104.34111187500001,
            "velocity": 0.6062992125984252
          },
          {
            "duration": 0.056306250000005775,
            "durationTicks": 50,
            "midi": 55,
            "name": "G3",
            "ticks": 92985,
            "time": 104.712733125,
            "velocity": 0.6929133858267716
          },
          {
            "duration": 0.056306250000019986,
            "durationTicks": 50,
            "midi": 58,
            "name": "A#3",
            "ticks": 92990,
            "time": 104.71836375,
            "velocity": 0.7874015748031497
          },
          {
            "duration": 0.04504500000000178,
            "durationTicks": 40,
            "midi": 62,
            "name": "D4",
            "ticks": 92995,
            "time": 104.723994375,
            "velocity": 0.6929133858267716
          },
          {
            "duration": 0.09008999999998935,
            "durationTicks": 80,
            "midi": 48,
            "name": "C3",
            "ticks": 94081,
            "time": 105.946966125,
            "velocity": 0.5354330708661418
          },
          {
            "duration": 0.09009000000000356,
            "durationTicks": 80,
            "midi": 55,
            "name": "G3",
            "ticks": 94086,
            "time": 105.95259675,
            "velocity": 0.6141732283464567
          },
          {
            "duration": 0.07882874999998535,
            "durationTicks": 70,
            "midi": 58,
            "name": "A#3",
            "ticks": 94091,
            "time": 105.958227375,
            "velocity": 0.6299212598425197
          },
          {
            "duration": 0.10135125000000755,
            "durationTicks": 90,
            "midi": 55,
            "name": "G3",
            "ticks": 94325,
            "time": 106.221740625,
            "velocity": 0.6141732283464567
          },
          {
            "duration": 0.10135125000000755,
            "durationTicks": 90,
            "midi": 58,
            "name": "A#3",
            "ticks": 94330,
            "time": 106.22737125,
            "velocity": 0.7716535433070866
          },
          {
            "duration": 0.09009000000000356,
            "durationTicks": 80,
            "midi": 63,
            "name": "D#4",
            "ticks": 94335,
            "time": 106.233001875,
            "velocity": 0.7874015748031497
          },
          {
            "duration": 0.011261250000003997,
            "durationTicks": 10,
            "midi": 63,
            "name": "D#4",
            "ticks": 94485,
            "time": 106.401920625,
            "velocity": 0.41732283464566927
          },
          {
            "duration": 0.011261250000003997,
            "durationTicks": 10,
            "midi": 58,
            "name": "A#3",
            "ticks": 94490,
            "time": 106.40755125,
            "velocity": 0.5039370078740157
          },
          {
            "duration": 0.011261249999989786,
            "durationTicks": 10,
            "midi": 55,
            "name": "G3",
            "ticks": 94495,
            "time": 106.413181875,
            "velocity": 0.5118110236220472
          },
          {
            "duration": 0.09009000000000356,
            "durationTicks": 80,
            "midi": 48,
            "name": "C3",
            "ticks": 94561,
            "time": 106.487506125,
            "velocity": 0.5354330708661418
          },
          {
            "duration": 0.09009000000001777,
            "durationTicks": 80,
            "midi": 55,
            "name": "G3",
            "ticks": 94566,
            "time": 106.49313674999999,
            "velocity": 0.6141732283464567
          },
          {
            "duration": 0.07882874999998535,
            "durationTicks": 70,
            "midi": 58,
            "name": "A#3",
            "ticks": 94571,
            "time": 106.49876737500001,
            "velocity": 0.6299212598425197
          },
          {
            "duration": 0.15765750000001333,
            "durationTicks": 140,
            "midi": 55,
            "name": "G3",
            "ticks": 94805,
            "time": 106.762280625,
            "velocity": 0.6141732283464567
          },
          {
            "duration": 0.15765749999999912,
            "durationTicks": 140,
            "midi": 58,
            "name": "A#3",
            "ticks": 94815,
            "time": 106.773541875,
            "velocity": 0.7716535433070866
          },
          {
            "duration": 0.13513500000000533,
            "durationTicks": 120,
            "midi": 63,
            "name": "D#4",
            "ticks": 94825,
            "time": 106.78480312500001,
            "velocity": 0.7874015748031497
          },
          {
            "duration": 0.056306249999991564,
            "durationTicks": 50,
            "midi": 63,
            "name": "D#4",
            "ticks": 94965,
            "time": 106.94246062500001,
            "velocity": 0.6535433070866141
          },
          {
            "duration": 0.011261250000003997,
            "durationTicks": 10,
            "midi": 58,
            "name": "A#3",
            "ticks": 94970,
            "time": 106.94809125,
            "velocity": 0.5039370078740157
          },
          {
            "duration": 0.011261249999989786,
            "durationTicks": 10,
            "midi": 55,
            "name": "G3",
            "ticks": 94975,
            "time": 106.95372187500001,
            "velocity": 0.5118110236220472
          },
          {
            "duration": 0.09008999999998935,
            "durationTicks": 80,
            "midi": 48,
            "name": "C3",
            "ticks": 95041,
            "time": 107.028046125,
            "velocity": 0.5354330708661418
          },
          {
            "duration": 0.09009000000000356,
            "durationTicks": 80,
            "midi": 55,
            "name": "G3",
            "ticks": 95046,
            "time": 107.03367675,
            "velocity": 0.6141732283464567
          },
          {
            "duration": 0.07882874999998535,
            "durationTicks": 70,
            "midi": 58,
            "name": "A#3",
            "ticks": 95051,
            "time": 107.039307375,
            "velocity": 0.6299212598425197
          },
          {
            "duration": 0.12387375000001555,
            "durationTicks": 110,
            "midi": 55,
            "name": "G3",
            "ticks": 95285,
            "time": 107.302820625,
            "velocity": 0.6141732283464567
          },
          {
            "duration": 0.12387375000000134,
            "durationTicks": 110,
            "midi": 58,
            "name": "A#3",
            "ticks": 95295,
            "time": 107.314081875,
            "velocity": 0.7716535433070866
          },
          {
            "duration": 0.11261249999999734,
            "durationTicks": 100,
            "midi": 63,
            "name": "D#4",
            "ticks": 95305,
            "time": 107.325343125,
            "velocity": 0.7874015748031497
          },
          {
            "duration": 0.011261250000003997,
            "durationTicks": 10,
            "midi": 63,
            "name": "D#4",
            "ticks": 95445,
            "time": 107.483000625,
            "velocity": 0.41732283464566927
          },
          {
            "duration": 0.011261250000003997,
            "durationTicks": 10,
            "midi": 58,
            "name": "A#3",
            "ticks": 95450,
            "time": 107.48863125,
            "velocity": 0.49606299212598426
          },
          {
            "duration": 0.011261249999989786,
            "durationTicks": 10,
            "midi": 55,
            "name": "G3",
            "ticks": 95455,
            "time": 107.494261875,
            "velocity": 0.5118110236220472
          },
          {
            "duration": 0.24774750000001688,
            "durationTicks": 220,
            "midi": 49,
            "name": "C#3",
            "ticks": 95521,
            "time": 107.568586125,
            "velocity": 0.5354330708661418
          },
          {
            "duration": 0.24774750000001688,
            "durationTicks": 220,
            "midi": 56,
            "name": "G#3",
            "ticks": 95526,
            "time": 107.57421674999999,
            "velocity": 0.6141732283464567
          },
          {
            "duration": 0.23648624999999868,
            "durationTicks": 210,
            "midi": 59,
            "name": "B3",
            "ticks": 95531,
            "time": 107.57984737500001,
            "velocity": 0.6299212598425197
          },
          {
            "duration": 0.15765750000001333,
            "durationTicks": 140,
            "midi": 56,
            "name": "G#3",
            "ticks": 95765,
            "time": 107.843360625,
            "velocity": 0.6141732283464567
          },
          {
            "duration": 0.15765749999999912,
            "durationTicks": 140,
            "midi": 59,
            "name": "B3",
            "ticks": 95770,
            "time": 107.84899125000001,
            "velocity": 0.7716535433070866
          },
          {
            "duration": 0.13513499999999112,
            "durationTicks": 120,
            "midi": 64,
            "name": "E4",
            "ticks": 95775,
            "time": 107.854621875,
            "velocity": 0.7874015748031497
          },
          {
            "duration": 0.011261250000003997,
            "durationTicks": 10,
            "midi": 64,
            "name": "E4",
            "ticks": 95925,
            "time": 108.02354062500001,
            "velocity": 0.41732283464566927
          },
          {
            "duration": 0.011261250000003997,
            "durationTicks": 10,
            "midi": 59,
            "name": "B3",
            "ticks": 95930,
            "time": 108.02917125,
            "velocity": 0.5039370078740157
          },
          {
            "duration": 0.011261249999989786,
            "durationTicks": 10,
            "midi": 56,
            "name": "G#3",
            "ticks": 95935,
            "time": 108.03480187500001,
            "velocity": 0.5118110236220472
          },
          {
            "duration": 0.24774750000000267,
            "durationTicks": 220,
            "midi": 50,
            "name": "D3",
            "ticks": 96001,
            "time": 108.109126125,
            "velocity": 0.5354330708661418
          },
          {
            "duration": 0.24774750000000267,
            "durationTicks": 220,
            "midi": 57,
            "name": "A3",
            "ticks": 96006,
            "time": 108.11475675,
            "velocity": 0.6141732283464567
          },
          {
            "duration": 0.23648624999999868,
            "durationTicks": 210,
            "midi": 60,
            "name": "C4",
            "ticks": 96011,
            "time": 108.120387375,
            "velocity": 0.6299212598425197
          },
          {
            "duration": 0.07882875000001377,
            "durationTicks": 70,
            "midi": 57,
            "name": "A3",
            "ticks": 96245,
            "time": 108.383900625,
            "velocity": 0.6141732283464567
          },
          {
            "duration": 0.07882874999999956,
            "durationTicks": 70,
            "midi": 60,
            "name": "C4",
            "ticks": 96250,
            "time": 108.38953125,
            "velocity": 0.7716535433070866
          },
          {
            "duration": 0.06756750000000977,
            "durationTicks": 60,
            "midi": 65,
            "name": "F4",
            "ticks": 96255,
            "time": 108.395161875,
            "velocity": 0.7874015748031497
          },
          {
            "duration": 0.011261250000003997,
            "durationTicks": 10,
            "midi": 65,
            "name": "F4",
            "ticks": 96405,
            "time": 108.564080625,
            "velocity": 0.4566929133858268
          },
          {
            "duration": 0.011261250000003997,
            "durationTicks": 10,
            "midi": 60,
            "name": "C4",
            "ticks": 96410,
            "time": 108.56971125,
            "velocity": 0.4251968503937008
          },
          {
            "duration": 0.011261249999989786,
            "durationTicks": 10,
            "midi": 57,
            "name": "A3",
            "ticks": 96415,
            "time": 108.575341875,
            "velocity": 0.5039370078740157
          },
          {
            "duration": 0.24774750000001688,
            "durationTicks": 220,
            "midi": 50,
            "name": "D3",
            "ticks": 96481,
            "time": 108.649666125,
            "velocity": 0.5354330708661418
          },
          {
            "duration": 0.24774750000001688,
            "durationTicks": 220,
            "midi": 57,
            "name": "A3",
            "ticks": 96486,
            "time": 108.65529674999999,
            "velocity": 0.6141732283464567
          },
          {
            "duration": 0.23648624999999868,
            "durationTicks": 210,
            "midi": 60,
            "name": "C4",
            "ticks": 96491,
            "time": 108.66092737500001,
            "velocity": 0.6299212598425197
          },
          {
            "duration": 0.04504500000000178,
            "durationTicks": 40,
            "midi": 57,
            "name": "A3",
            "ticks": 96721,
            "time": 108.919936125,
            "velocity": 0.8110236220472441
          },
          {
            "duration": 0.04504500000000178,
            "durationTicks": 40,
            "midi": 60,
            "name": "C4",
            "ticks": 96726,
            "time": 108.92556675,
            "velocity": 0.8110236220472441
          },
          {
            "duration": 0.03378374999999778,
            "durationTicks": 30,
            "midi": 65,
            "name": "F4",
            "ticks": 96731,
            "time": 108.93119737500001,
            "velocity": 0.7874015748031497
          },
          {
            "duration": 0.056306249999991564,
            "durationTicks": 50,
            "midi": 65,
            "name": "F4",
            "ticks": 96881,
            "time": 109.10011612500001,
            "velocity": 0.6141732283464567
          },
          {
            "duration": 0.011261250000003997,
            "durationTicks": 10,
            "midi": 60,
            "name": "C4",
            "ticks": 96886,
            "time": 109.10574675000001,
            "velocity": 0.5039370078740157
          },
          {
            "duration": 0.011261250000003997,
            "durationTicks": 10,
            "midi": 57,
            "name": "A3",
            "ticks": 96891,
            "time": 109.111377375,
            "velocity": 0.5118110236220472
          },
          {
            "duration": 0.24774750000000267,
            "durationTicks": 220,
            "midi": 43,
            "name": "G2",
            "ticks": 96961,
            "time": 109.190206125,
            "velocity": 0.6141732283464567
          },
          {
            "duration": 0.24774750000000267,
            "durationTicks": 220,
            "midi": 50,
            "name": "D3",
            "ticks": 96966,
            "time": 109.19583675,
            "velocity": 0.6141732283464567
          },
          {
            "duration": 0.23648624999999868,
            "durationTicks": 210,
            "midi": 59,
            "name": "B3",
            "ticks": 96971,
            "time": 109.20146737500001,
            "velocity": 0.6062992125984252
          },
          {
            "duration": 0.12387375000001555,
            "durationTicks": 110,
            "midi": 59,
            "name": "B3",
            "ticks": 97207,
            "time": 109.467232875,
            "velocity": 0.7322834645669292
          },
          {
            "duration": 0.11261249999999734,
            "durationTicks": 100,
            "midi": 62,
            "name": "D4",
            "ticks": 97212,
            "time": 109.4728635,
            "velocity": 0.7165354330708661
          },
          {
            "duration": 0.10135125000000755,
            "durationTicks": 90,
            "midi": 67,
            "name": "G4",
            "ticks": 97217,
            "time": 109.478494125,
            "velocity": 0.7244094488188977
          },
          {
            "duration": 0.011261250000003997,
            "durationTicks": 10,
            "midi": 67,
            "name": "G4",
            "ticks": 97367,
            "time": 109.647412875,
            "velocity": 0.5196850393700787
          },
          {
            "duration": 0.011261250000003997,
            "durationTicks": 10,
            "midi": 62,
            "name": "D4",
            "ticks": 97372,
            "time": 109.6530435,
            "velocity": 0.5196850393700787
          },
          {
            "duration": 0.011261249999989786,
            "durationTicks": 10,
            "midi": 59,
            "name": "B3",
            "ticks": 97377,
            "time": 109.658674125,
            "velocity": 0.5354330708661418
          },
          {
            "duration": 0.24774750000001688,
            "durationTicks": 220,
            "midi": 43,
            "name": "G2",
            "ticks": 97441,
            "time": 109.730746125,
            "velocity": 0.6141732283464567
          },
          {
            "duration": 0.24774750000001688,
            "durationTicks": 220,
            "midi": 50,
            "name": "D3",
            "ticks": 97446,
            "time": 109.73637674999999,
            "velocity": 0.6141732283464567
          },
          {
            "duration": 0.23648624999999868,
            "durationTicks": 210,
            "midi": 59,
            "name": "B3",
            "ticks": 97451,
            "time": 109.74200737500001,
            "velocity": 0.6062992125984252
          },
          {
            "duration": 0.09009000000000356,
            "durationTicks": 80,
            "midi": 59,
            "name": "B3",
            "ticks": 97687,
            "time": 110.007772875,
            "velocity": 0.8110236220472441
          },
          {
            "duration": 0.07882874999998535,
            "durationTicks": 70,
            "midi": 62,
            "name": "D4",
            "ticks": 97692,
            "time": 110.01340350000001,
            "velocity": 0.7952755905511811
          },
          {
            "duration": 0.06756749999999556,
            "durationTicks": 60,
            "midi": 67,
            "name": "G4",
            "ticks": 97697,
            "time": 110.019034125,
            "velocity": 0.7952755905511811
          },
          {
            "duration": 0.011261250000003997,
            "durationTicks": 10,
            "midi": 67,
            "name": "G4",
            "ticks": 97847,
            "time": 110.18795287500001,
            "velocity": 0.5196850393700787
          },
          {
            "duration": 0.011261250000003997,
            "durationTicks": 10,
            "midi": 62,
            "name": "D4",
            "ticks": 97852,
            "time": 110.1935835,
            "velocity": 0.5196850393700787
          },
          {
            "duration": 0.011261249999989786,
            "durationTicks": 10,
            "midi": 59,
            "name": "B3",
            "ticks": 97857,
            "time": 110.19921412500001,
            "velocity": 0.5354330708661418
          },
          {
            "duration": 0.24774750000000267,
            "durationTicks": 220,
            "midi": 48,
            "name": "C3",
            "ticks": 97927,
            "time": 110.278042875,
            "velocity": 0.5511811023622047
          },
          {
            "duration": 0.24774749999998846,
            "durationTicks": 220,
            "midi": 55,
            "name": "G3",
            "ticks": 97932,
            "time": 110.2836735,
            "velocity": 0.6299212598425197
          },
          {
            "duration": 0.23648624999999868,
            "durationTicks": 210,
            "midi": 58,
            "name": "A#3",
            "ticks": 97937,
            "time": 110.289304125,
            "velocity": 0.6456692913385826
          },
          {
            "duration": 0.07882875000001377,
            "durationTicks": 70,
            "midi": 55,
            "name": "G3",
            "ticks": 98177,
            "time": 110.559574125,
            "velocity": 0.6299212598425197
          },
          {
            "duration": 0.07882875000001377,
            "durationTicks": 70,
            "midi": 58,
            "name": "A#3",
            "ticks": 98182,
            "time": 110.56520474999999,
            "velocity": 0.7874015748031497
          },
          {
            "duration": 0.06756750000000977,
            "durationTicks": 60,
            "midi": 63,
            "name": "D#4",
            "ticks": 98187,
            "time": 110.570835375,
            "velocity": 0.8031496062992126
          },
          {
            "duration": 0.011261249999989786,
            "durationTicks": 10,
            "midi": 63,
            "name": "D#4",
            "ticks": 98337,
            "time": 110.739754125,
            "velocity": 0.47244094488188976
          },
          {
            "duration": 0.011261250000003997,
            "durationTicks": 10,
            "midi": 58,
            "name": "A#3",
            "ticks": 98342,
            "time": 110.74538475,
            "velocity": 0.4409448818897638
          },
          {
            "duration": 0.011261250000003997,
            "durationTicks": 10,
            "midi": 55,
            "name": "G3",
            "ticks": 98347,
            "time": 110.751015375,
            "velocity": 0.5196850393700787
          },
          {
            "duration": 0.24774750000001688,
            "durationTicks": 220,
            "midi": 48,
            "name": "C3",
            "ticks": 98407,
            "time": 110.81858287499999,
            "velocity": 0.5511811023622047
          },
          {
            "duration": 0.24774749999998846,
            "durationTicks": 220,
            "midi": 55,
            "name": "G3",
            "ticks": 98412,
            "time": 110.82421350000001,
            "velocity": 0.6299212598425197
          },
          {
            "duration": 0.23648624999999868,
            "durationTicks": 210,
            "midi": 58,
            "name": "A#3",
            "ticks": 98417,
            "time": 110.82984412500001,
            "velocity": 0.6456692913385826
          },
          {
            "duration": 0.04504500000000178,
            "durationTicks": 40,
            "midi": 55,
            "name": "G3",
            "ticks": 98657,
            "time": 111.100114125,
            "velocity": 0.8267716535433071
          },
          {
            "duration": 0.04504500000000178,
            "durationTicks": 40,
            "midi": 58,
            "name": "A#3",
            "ticks": 98662,
            "time": 111.10574475,
            "velocity": 0.8267716535433071
          },
          {
            "duration": 0.03378374999999778,
            "durationTicks": 30,
            "midi": 63,
            "name": "D#4",
            "ticks": 98667,
            "time": 111.11137537500001,
            "velocity": 0.8031496062992126
          },
          {
            "duration": 0.056306249999991564,
            "durationTicks": 50,
            "midi": 63,
            "name": "D#4",
            "ticks": 98817,
            "time": 111.28029412500001,
            "velocity": 0.6299212598425197
          },
          {
            "duration": 0.011261250000003997,
            "durationTicks": 10,
            "midi": 58,
            "name": "A#3",
            "ticks": 98822,
            "time": 111.28592475,
            "velocity": 0.5196850393700787
          },
          {
            "duration": 0.011261250000003997,
            "durationTicks": 10,
            "midi": 55,
            "name": "G3",
            "ticks": 98827,
            "time": 111.291555375,
            "velocity": 0.5275590551181102
          },
          {
            "duration": 0.24774749999998846,
            "durationTicks": 220,
            "midi": 41,
            "name": "F2",
            "ticks": 98892,
            "time": 111.3647535,
            "velocity": 0.6299212598425197
          },
          {
            "duration": 0.24774750000000267,
            "durationTicks": 220,
            "midi": 48,
            "name": "C3",
            "ticks": 98897,
            "time": 111.370384125,
            "velocity": 0.6299212598425197
          },
          {
            "duration": 0.23648624999999868,
            "durationTicks": 210,
            "midi": 57,
            "name": "A3",
            "ticks": 98902,
            "time": 111.37601475,
            "velocity": 0.6220472440944882
          },
          {
            "duration": 0.12387375000001555,
            "durationTicks": 110,
            "midi": 57,
            "name": "A3",
            "ticks": 99138,
            "time": 111.64178025,
            "velocity": 0.7480314960629921
          },
          {
            "duration": 0.11261249999999734,
            "durationTicks": 100,
            "midi": 60,
            "name": "C4",
            "ticks": 99143,
            "time": 111.647410875,
            "velocity": 0.7322834645669292
          },
          {
            "duration": 0.10135125000000755,
            "durationTicks": 90,
            "midi": 65,
            "name": "F4",
            "ticks": 99148,
            "time": 111.6530415,
            "velocity": 0.7401574803149606
          },
          {
            "duration": 0.011261250000003997,
            "durationTicks": 10,
            "midi": 65,
            "name": "F4",
            "ticks": 99298,
            "time": 111.82196025,
            "velocity": 0.5354330708661418
          },
          {
            "duration": 0.011261250000003997,
            "durationTicks": 10,
            "midi": 60,
            "name": "C4",
            "ticks": 99303,
            "time": 111.827590875,
            "velocity": 0.5354330708661418
          },
          {
            "duration": 0.011261249999989786,
            "durationTicks": 10,
            "midi": 57,
            "name": "A3",
            "ticks": 99308,
            "time": 111.83322150000001,
            "velocity": 0.5511811023622047
          },
          {
            "duration": 0.24774749999998846,
            "durationTicks": 220,
            "midi": 41,
            "name": "F2",
            "ticks": 99372,
            "time": 111.90529350000001,
            "velocity": 0.6299212598425197
          },
          {
            "duration": 0.24774750000000267,
            "durationTicks": 220,
            "midi": 48,
            "name": "C3",
            "ticks": 99377,
            "time": 111.91092412500001,
            "velocity": 0.6299212598425197
          },
          {
            "duration": 0.23648624999999868,
            "durationTicks": 210,
            "midi": 57,
            "name": "A3",
            "ticks": 99382,
            "time": 111.91655475,
            "velocity": 0.6220472440944882
          },
          {
            "duration": 0.09009000000000356,
            "durationTicks": 80,
            "midi": 57,
            "name": "A3",
            "ticks": 99618,
            "time": 112.18232025,
            "velocity": 0.8267716535433071
          },
          {
            "duration": 0.07882874999998535,
            "durationTicks": 70,
            "midi": 60,
            "name": "C4",
            "ticks": 99623,
            "time": 112.18795087500001,
            "velocity": 0.8110236220472441
          },
          {
            "duration": 0.06756749999999556,
            "durationTicks": 60,
            "midi": 65,
            "name": "F4",
            "ticks": 99628,
            "time": 112.19358150000001,
            "velocity": 0.8110236220472441
          },
          {
            "duration": 0.011261250000003997,
            "durationTicks": 10,
            "midi": 65,
            "name": "F4",
            "ticks": 99778,
            "time": 112.36250025000001,
            "velocity": 0.5354330708661418
          },
          {
            "duration": 0.011261250000003997,
            "durationTicks": 10,
            "midi": 60,
            "name": "C4",
            "ticks": 99783,
            "time": 112.368130875,
            "velocity": 0.5354330708661418
          },
          {
            "duration": 0.011261249999989786,
            "durationTicks": 10,
            "midi": 57,
            "name": "A3",
            "ticks": 99788,
            "time": 112.37376150000001,
            "velocity": 0.5511811023622047
          },
          {
            "duration": 0.24774750000000267,
            "durationTicks": 220,
            "midi": 46,
            "name": "A#2",
            "ticks": 99841,
            "time": 112.433446125,
            "velocity": 0.5748031496062992
          },
          {
            "duration": 0.24774750000000267,
            "durationTicks": 220,
            "midi": 53,
            "name": "F3",
            "ticks": 99846,
            "time": 112.43907675,
            "velocity": 0.5748031496062992
          },
          {
            "duration": 0.23648624999999868,
            "durationTicks": 210,
            "midi": 57,
            "name": "A3",
            "ticks": 99851,
            "time": 112.44470737500001,
            "velocity": 0.4566929133858268
          },
          {
            "duration": 0.07882875000001377,
            "durationTicks": 70,
            "midi": 57,
            "name": "A3",
            "ticks": 100087,
            "time": 112.710472875,
            "velocity": 0.8110236220472441
          },
          {
            "duration": 0.06756750000000977,
            "durationTicks": 60,
            "midi": 62,
            "name": "D4",
            "ticks": 100092,
            "time": 112.7161035,
            "velocity": 0.7952755905511811
          },
          {
            "duration": 0.056306250000005775,
            "durationTicks": 50,
            "midi": 65,
            "name": "F4",
            "ticks": 100097,
            "time": 112.721734125,
            "velocity": 0.7952755905511811
          },
          {
            "duration": 0.06756749999999556,
            "durationTicks": 60,
            "midi": 65,
            "name": "F4",
            "ticks": 100247,
            "time": 112.890652875,
            "velocity": 0.5196850393700787
          },
          {
            "duration": 0.011261250000003997,
            "durationTicks": 10,
            "midi": 62,
            "name": "D4",
            "ticks": 100252,
            "time": 112.8962835,
            "velocity": 0.5196850393700787
          },
          {
            "duration": 0.011261249999989786,
            "durationTicks": 10,
            "midi": 57,
            "name": "A3",
            "ticks": 100257,
            "time": 112.901914125,
            "velocity": 0.4566929133858268
          },
          {
            "duration": 0.24774750000001688,
            "durationTicks": 220,
            "midi": 46,
            "name": "A#2",
            "ticks": 100321,
            "time": 112.973986125,
            "velocity": 0.5748031496062992
          },
          {
            "duration": 0.24774750000001688,
            "durationTicks": 220,
            "midi": 53,
            "name": "F3",
            "ticks": 100326,
            "time": 112.97961674999999,
            "velocity": 0.5748031496062992
          },
          {
            "duration": 0.23648624999999868,
            "durationTicks": 210,
            "midi": 57,
            "name": "A3",
            "ticks": 100331,
            "time": 112.98524737500001,
            "velocity": 0.4566929133858268
          },
          {
            "duration": 0.12387375000000134,
            "durationTicks": 110,
            "midi": 57,
            "name": "A3",
            "ticks": 100567,
            "time": 113.251012875,
            "velocity": 0.7322834645669292
          },
          {
            "duration": 0.12387374999998713,
            "durationTicks": 110,
            "midi": 62,
            "name": "D4",
            "ticks": 100572,
            "time": 113.25664350000001,
            "velocity": 0.7165354330708661
          },
          {
            "duration": 0.11261249999999734,
            "durationTicks": 100,
            "midi": 65,
            "name": "F4",
            "ticks": 100577,
            "time": 113.262274125,
            "velocity": 0.7165354330708661
          },
          {
            "duration": 0.056306249999991564,
            "durationTicks": 50,
            "midi": 65,
            "name": "F4",
            "ticks": 100727,
            "time": 113.43119287500001,
            "velocity": 0.5196850393700787
          },
          {
            "duration": 0.011261250000003997,
            "durationTicks": 10,
            "midi": 62,
            "name": "D4",
            "ticks": 100732,
            "time": 113.4368235,
            "velocity": 0.5196850393700787
          },
          {
            "duration": 0.011261249999989786,
            "durationTicks": 10,
            "midi": 57,
            "name": "A3",
            "ticks": 100737,
            "time": 113.44245412500001,
            "velocity": 0.4566929133858268
          },
          {
            "duration": 0.24774750000000267,
            "durationTicks": 220,
            "midi": 52,
            "name": "E3",
            "ticks": 100801,
            "time": 113.514526125,
            "velocity": 0.5748031496062992
          },
          {
            "duration": 0.24774750000000267,
            "durationTicks": 220,
            "midi": 58,
            "name": "A#3",
            "ticks": 100806,
            "time": 113.52015675,
            "velocity": 0.5590551181102362
          },
          {
            "duration": 0.23648624999999868,
            "durationTicks": 210,
            "midi": 62,
            "name": "D4",
            "ticks": 100811,
            "time": 113.52578737500001,
            "velocity": 0.4566929133858268
          },
          {
            "duration": 0.10135125000000755,
            "durationTicks": 90,
            "midi": 58,
            "name": "A#3",
            "ticks": 101047,
            "time": 113.791552875,
            "velocity": 0.8110236220472441
          },
          {
            "duration": 0.09009000000000356,
            "durationTicks": 80,
            "midi": 62,
            "name": "D4",
            "ticks": 101052,
            "time": 113.7971835,
            "velocity": 0.7952755905511811
          },
          {
            "duration": 0.07882875000001377,
            "durationTicks": 70,
            "midi": 67,
            "name": "G4",
            "ticks": 101057,
            "time": 113.802814125,
            "velocity": 0.7952755905511811
          },
          {
            "duration": 0.06756749999999556,
            "durationTicks": 60,
            "midi": 67,
            "name": "G4",
            "ticks": 101207,
            "time": 113.971732875,
            "velocity": 0.5196850393700787
          },
          {
            "duration": 0.011261250000003997,
            "durationTicks": 10,
            "midi": 62,
            "name": "D4",
            "ticks": 101212,
            "time": 113.9773635,
            "velocity": 0.5196850393700787
          },
          {
            "duration": 0.011261249999989786,
            "durationTicks": 10,
            "midi": 58,
            "name": "A#3",
            "ticks": 101217,
            "time": 113.982994125,
            "velocity": 0.4566929133858268
          },
          {
            "duration": 0.24774750000001688,
            "durationTicks": 220,
            "midi": 50,
            "name": "D3",
            "ticks": 101281,
            "time": 114.055066125,
            "velocity": 0.5748031496062992
          },
          {
            "duration": 0.24774750000001688,
            "durationTicks": 220,
            "midi": 54,
            "name": "F#3",
            "ticks": 101286,
            "time": 114.06069674999999,
            "velocity": 0.5748031496062992
          },
          {
            "duration": 0.23648624999999868,
            "durationTicks": 210,
            "midi": 60,
            "name": "C4",
            "ticks": 101291,
            "time": 114.06632737500001,
            "velocity": 0.5354330708661418
          },
          {
            "duration": 0.2027025000000009,
            "durationTicks": 180,
            "midi": 54,
            "name": "F#3",
            "ticks": 101527,
            "time": 114.332092875,
            "velocity": 0.7322834645669292
          },
          {
            "duration": 0.1914412499999969,
            "durationTicks": 170,
            "midi": 60,
            "name": "C4",
            "ticks": 101532,
            "time": 114.33772350000001,
            "velocity": 0.7952755905511811
          },
          {
            "duration": 0.1801800000000071,
            "durationTicks": 160,
            "midi": 65,
            "name": "F4",
            "ticks": 101537,
            "time": 114.343354125,
            "velocity": 0.7952755905511811
          },
          {
            "duration": 0.24774749999997425,
            "durationTicks": 220,
            "midi": 48,
            "name": "C3",
            "ticks": 117115,
            "time": 131.88612937500002,
            "velocity": 0.3937007874015748
          },
          {
            "duration": 0.2364862500000129,
            "durationTicks": 210,
            "midi": 55,
            "name": "G3",
            "ticks": 117125,
            "time": 131.89739062499999,
            "velocity": 0.3543307086614173
          },
          {
            "duration": 0.04504499999998757,
            "durationTicks": 40,
            "midi": 55,
            "name": "G3",
            "ticks": 117355,
            "time": 132.156399375,
            "velocity": 0.5354330708661418
          },
          {
            "duration": 0.03378374999999778,
            "durationTicks": 30,
            "midi": 58,
            "name": "A#3",
            "ticks": 117360,
            "time": 132.16203000000002,
            "velocity": 0.6929133858267716
          },
          {
            "duration": 0.022522500000007994,
            "durationTicks": 20,
            "midi": 63,
            "name": "D#4",
            "ticks": 117365,
            "time": 132.167660625,
            "velocity": 0.7086614173228346
          },
          {
            "duration": 0.011261249999989786,
            "durationTicks": 10,
            "midi": 63,
            "name": "D#4",
            "ticks": 117515,
            "time": 132.336579375,
            "velocity": 0.33858267716535434
          },
          {
            "duration": 0.011261249999989786,
            "durationTicks": 10,
            "midi": 58,
            "name": "A#3",
            "ticks": 117520,
            "time": 132.34221000000002,
            "velocity": 0.4251968503937008
          },
          {
            "duration": 0.011261250000018208,
            "durationTicks": 10,
            "midi": 55,
            "name": "G3",
            "ticks": 117525,
            "time": 132.347840625,
            "velocity": 0.4330708661417323
          },
          {
            "duration": 0.23648624999998447,
            "durationTicks": 210,
            "midi": 48,
            "name": "C3",
            "ticks": 117595,
            "time": 132.42666937500002,
            "velocity": 0.3937007874015748
          },
          {
            "duration": 0.22522499999999468,
            "durationTicks": 200,
            "midi": 55,
            "name": "G3",
            "ticks": 117605,
            "time": 132.437930625,
            "velocity": 0.3937007874015748
          },
          {
            "duration": 0.022522500000007994,
            "durationTicks": 20,
            "midi": 55,
            "name": "G3",
            "ticks": 117835,
            "time": 132.696939375,
            "velocity": 0.5354330708661418
          },
          {
            "duration": 0.03378374999999778,
            "durationTicks": 30,
            "midi": 58,
            "name": "A#3",
            "ticks": 117845,
            "time": 132.708200625,
            "velocity": 0.6929133858267716
          },
          {
            "duration": 0.022522499999979573,
            "durationTicks": 20,
            "midi": 63,
            "name": "D#4",
            "ticks": 117855,
            "time": 132.719461875,
            "velocity": 0.7086614173228346
          },
          {
            "duration": 0.24774750000000267,
            "durationTicks": 220,
            "midi": 48,
            "name": "C3",
            "ticks": 118075,
            "time": 132.967209375,
            "velocity": 0.3937007874015748
          },
          {
            "duration": 0.2364862500000129,
            "durationTicks": 210,
            "midi": 55,
            "name": "G3",
            "ticks": 118085,
            "time": 132.978470625,
            "velocity": 0.3543307086614173
          },
          {
            "duration": 0.04504499999998757,
            "durationTicks": 40,
            "midi": 55,
            "name": "G3",
            "ticks": 118315,
            "time": 133.23747937500002,
            "velocity": 0.5354330708661418
          },
          {
            "duration": 0.03378374999999778,
            "durationTicks": 30,
            "midi": 58,
            "name": "A#3",
            "ticks": 118325,
            "time": 133.248740625,
            "velocity": 0.6929133858267716
          },
          {
            "duration": 0.022522500000007994,
            "durationTicks": 20,
            "midi": 63,
            "name": "D#4",
            "ticks": 118335,
            "time": 133.260001875,
            "velocity": 0.7086614173228346
          },
          {
            "duration": 0.011261250000018208,
            "durationTicks": 10,
            "midi": 63,
            "name": "D#4",
            "ticks": 118475,
            "time": 133.417659375,
            "velocity": 0.33858267716535434
          },
          {
            "duration": 0.011261249999989786,
            "durationTicks": 10,
            "midi": 58,
            "name": "A#3",
            "ticks": 118480,
            "time": 133.42329,
            "velocity": 0.41732283464566927
          },
          {
            "duration": 0.011261249999989786,
            "durationTicks": 10,
            "midi": 55,
            "name": "G3",
            "ticks": 118485,
            "time": 133.42892062500002,
            "velocity": 0.4330708661417323
          },
          {
            "duration": 0.24774750000000267,
            "durationTicks": 220,
            "midi": 48,
            "name": "C3",
            "ticks": 118555,
            "time": 133.507749375,
            "velocity": 0.3937007874015748
          },
          {
            "duration": 0.2364862500000129,
            "durationTicks": 210,
            "midi": 55,
            "name": "G3",
            "ticks": 118565,
            "time": 133.519010625,
            "velocity": 0.3543307086614173
          },
          {
            "duration": 0.04504499999998757,
            "durationTicks": 40,
            "midi": 55,
            "name": "G3",
            "ticks": 118795,
            "time": 133.778019375,
            "velocity": 0.5354330708661418
          },
          {
            "duration": 0.03378374999999778,
            "durationTicks": 30,
            "midi": 58,
            "name": "A#3",
            "ticks": 118800,
            "time": 133.78365,
            "velocity": 0.6929133858267716
          },
          {
            "duration": 0.022522500000007994,
            "durationTicks": 20,
            "midi": 63,
            "name": "D#4",
            "ticks": 118805,
            "time": 133.789280625,
            "velocity": 0.7086614173228346
          },
          {
            "duration": 0.24774749999997425,
            "durationTicks": 220,
            "midi": 48,
            "name": "C3",
            "ticks": 119035,
            "time": 134.04828937500002,
            "velocity": 0.3937007874015748
          },
          {
            "duration": 0.2364862500000129,
            "durationTicks": 210,
            "midi": 55,
            "name": "G3",
            "ticks": 119045,
            "time": 134.05955062499999,
            "velocity": 0.3543307086614173
          },
          {
            "duration": 0.04504499999998757,
            "durationTicks": 40,
            "midi": 55,
            "name": "G3",
            "ticks": 119275,
            "time": 134.318559375,
            "velocity": 0.5354330708661418
          },
          {
            "duration": 0.03378374999999778,
            "durationTicks": 30,
            "midi": 58,
            "name": "A#3",
            "ticks": 119285,
            "time": 134.329820625,
            "velocity": 0.6929133858267716
          },
          {
            "duration": 0.022522499999979573,
            "durationTicks": 20,
            "midi": 63,
            "name": "D#4",
            "ticks": 119295,
            "time": 134.34108187500001,
            "velocity": 0.7086614173228346
          },
          {
            "duration": 0.011261249999989786,
            "durationTicks": 10,
            "midi": 63,
            "name": "D#4",
            "ticks": 119435,
            "time": 134.498739375,
            "velocity": 0.33858267716535434
          },
          {
            "duration": 0.011261249999989786,
            "durationTicks": 10,
            "midi": 58,
            "name": "A#3",
            "ticks": 119440,
            "time": 134.50437000000002,
            "velocity": 0.41732283464566927
          },
          {
            "duration": 0.011261250000018208,
            "durationTicks": 10,
            "midi": 55,
            "name": "G3",
            "ticks": 119445,
            "time": 134.510000625,
            "velocity": 0.4330708661417323
          },
          {
            "duration": 0.24774749999997425,
            "durationTicks": 220,
            "midi": 48,
            "name": "C3",
            "ticks": 119515,
            "time": 134.58882937500002,
            "velocity": 0.3937007874015748
          },
          {
            "duration": 0.23648624999998447,
            "durationTicks": 210,
            "midi": 55,
            "name": "G3",
            "ticks": 119525,
            "time": 134.600090625,
            "velocity": 0.3543307086614173
          },
          {
            "duration": 0.04504499999998757,
            "durationTicks": 40,
            "midi": 55,
            "name": "G3",
            "ticks": 119755,
            "time": 134.859099375,
            "velocity": 0.5354330708661418
          },
          {
            "duration": 0.03378374999999778,
            "durationTicks": 30,
            "midi": 58,
            "name": "A#3",
            "ticks": 119765,
            "time": 134.870360625,
            "velocity": 0.6929133858267716
          },
          {
            "duration": 0.022522499999979573,
            "durationTicks": 20,
            "midi": 63,
            "name": "D#4",
            "ticks": 119775,
            "time": 134.881621875,
            "velocity": 0.7086614173228346
          },
          {
            "duration": 0.24774750000000267,
            "durationTicks": 220,
            "midi": 48,
            "name": "C3",
            "ticks": 119995,
            "time": 135.129369375,
            "velocity": 0.3937007874015748
          },
          {
            "duration": 0.2364862500000129,
            "durationTicks": 210,
            "midi": 55,
            "name": "G3",
            "ticks": 120005,
            "time": 135.140630625,
            "velocity": 0.3543307086614173
          },
          {
            "duration": 0.04504499999998757,
            "durationTicks": 40,
            "midi": 55,
            "name": "G3",
            "ticks": 120235,
            "time": 135.39963937500002,
            "velocity": 0.5354330708661418
          },
          {
            "duration": 0.03378374999999778,
            "durationTicks": 30,
            "midi": 60,
            "name": "C4",
            "ticks": 120245,
            "time": 135.410900625,
            "velocity": 0.7322834645669292
          },
          {
            "duration": 0.022522500000007994,
            "durationTicks": 20,
            "midi": 63,
            "name": "D#4",
            "ticks": 120255,
            "time": 135.422161875,
            "velocity": 0.7086614173228346
          },
          {
            "duration": 0.011261250000018208,
            "durationTicks": 10,
            "midi": 63,
            "name": "D#4",
            "ticks": 120395,
            "time": 135.579819375,
            "velocity": 0.33858267716535434
          },
          {
            "duration": 0.011261249999989786,
            "durationTicks": 10,
            "midi": 60,
            "name": "C4",
            "ticks": 120400,
            "time": 135.58545,
            "velocity": 0.4566929133858268
          },
          {
            "duration": 0.011261249999989786,
            "durationTicks": 10,
            "midi": 55,
            "name": "G3",
            "ticks": 120405,
            "time": 135.59108062500002,
            "velocity": 0.4330708661417323
          },
          {
            "duration": 0.24774750000000267,
            "durationTicks": 220,
            "midi": 50,
            "name": "D3",
            "ticks": 120475,
            "time": 135.669909375,
            "velocity": 0.3937007874015748
          },
          {
            "duration": 0.2364862500000129,
            "durationTicks": 210,
            "midi": 54,
            "name": "F#3",
            "ticks": 120485,
            "time": 135.681170625,
            "velocity": 0.3543307086614173
          },
          {
            "duration": 0.1463962499999809,
            "durationTicks": 130,
            "midi": 54,
            "name": "F#3",
            "ticks": 120715,
            "time": 135.940179375,
            "velocity": 0.5354330708661418
          },
          {
            "duration": 0.13513499999999112,
            "durationTicks": 120,
            "midi": 60,
            "name": "C4",
            "ticks": 120725,
            "time": 135.951440625,
            "velocity": 0.6929133858267716
          },
          {
            "duration": 0.12387375000000134,
            "durationTicks": 110,
            "midi": 63,
            "name": "D#4",
            "ticks": 120735,
            "time": 135.962701875,
            "velocity": 0.7086614173228346
          },
          {
            "duration": 0.24774749999997425,
            "durationTicks": 220,
            "midi": 43,
            "name": "G2",
            "ticks": 120955,
            "time": 136.21044937500002,
            "velocity": 0.3937007874015748
          },
          {
            "duration": 0.2364862500000129,
            "durationTicks": 210,
            "midi": 50,
            "name": "D3",
            "ticks": 120965,
            "time": 136.221710625,
            "velocity": 0.3543307086614173
          },
          {
            "duration": 0.04504499999998757,
            "durationTicks": 40,
            "midi": 53,
            "name": "F3",
            "ticks": 121195,
            "time": 136.480719375,
            "velocity": 0.5354330708661418
          },
          {
            "duration": 0.03378374999999778,
            "durationTicks": 30,
            "midi": 58,
            "name": "A#3",
            "ticks": 121205,
            "time": 136.491980625,
            "velocity": 0.6929133858267716
          },
          {
            "duration": 0.022522499999979573,
            "durationTicks": 20,
            "midi": 62,
            "name": "D4",
            "ticks": 121215,
            "time": 136.50324187500001,
            "velocity": 0.7086614173228346
          },
          {
            "duration": 0.011261249999989786,
            "durationTicks": 10,
            "midi": 62,
            "name": "D4",
            "ticks": 121355,
            "time": 136.660899375,
            "velocity": 0.33858267716535434
          },
          {
            "duration": 0.011261249999989786,
            "durationTicks": 10,
            "midi": 58,
            "name": "A#3",
            "ticks": 121360,
            "time": 136.66653000000002,
            "velocity": 0.41732283464566927
          },
          {
            "duration": 0.011261250000018208,
            "durationTicks": 10,
            "midi": 53,
            "name": "F3",
            "ticks": 121365,
            "time": 136.672160625,
            "velocity": 0.4330708661417323
          },
          {
            "duration": 0.24774749999997425,
            "durationTicks": 220,
            "midi": 43,
            "name": "G2",
            "ticks": 121435,
            "time": 136.75098937500002,
            "velocity": 0.3937007874015748
          },
          {
            "duration": 0.23648624999998447,
            "durationTicks": 210,
            "midi": 50,
            "name": "D3",
            "ticks": 121445,
            "time": 136.762250625,
            "velocity": 0.3543307086614173
          },
          {
            "duration": 0.04504499999998757,
            "durationTicks": 40,
            "midi": 53,
            "name": "F3",
            "ticks": 121675,
            "time": 137.021259375,
            "velocity": 0.5354330708661418
          },
          {
            "duration": 0.03378374999999778,
            "durationTicks": 30,
            "midi": 58,
            "name": "A#3",
            "ticks": 121685,
            "time": 137.032520625,
            "velocity": 0.6929133858267716
          },
          {
            "duration": 0.022522499999979573,
            "durationTicks": 20,
            "midi": 62,
            "name": "D4",
            "ticks": 121695,
            "time": 137.043781875,
            "velocity": 0.7086614173228346
          },
          {
            "duration": 0.24774750000000267,
            "durationTicks": 220,
            "midi": 43,
            "name": "G2",
            "ticks": 121915,
            "time": 137.291529375,
            "velocity": 0.3937007874015748
          },
          {
            "duration": 0.2364862500000129,
            "durationTicks": 210,
            "midi": 50,
            "name": "D3",
            "ticks": 121925,
            "time": 137.302790625,
            "velocity": 0.3543307086614173
          },
          {
            "duration": 0.07882874999998535,
            "durationTicks": 70,
            "midi": 53,
            "name": "F3",
            "ticks": 122155,
            "time": 137.56179937500002,
            "velocity": 0.5354330708661418
          },
          {
            "duration": 0.06756749999999556,
            "durationTicks": 60,
            "midi": 58,
            "name": "A#3",
            "ticks": 122165,
            "time": 137.573060625,
            "velocity": 0.6929133858267716
          },
          {
            "duration": 0.056306250000005775,
            "durationTicks": 50,
            "midi": 62,
            "name": "D4",
            "ticks": 122175,
            "time": 137.584321875,
            "velocity": 0.7086614173228346
          },
          {
            "duration": 0.011261250000018208,
            "durationTicks": 10,
            "midi": 62,
            "name": "D4",
            "ticks": 122315,
            "time": 137.741979375,
            "velocity": 0.33858267716535434
          },
          {
            "duration": 0.011261249999989786,
            "durationTicks": 10,
            "midi": 58,
            "name": "A#3",
            "ticks": 122320,
            "time": 137.74761,
            "velocity": 0.41732283464566927
          },
          {
            "duration": 0.011261249999989786,
            "durationTicks": 10,
            "midi": 53,
            "name": "F3",
            "ticks": 122325,
            "time": 137.75324062500002,
            "velocity": 0.4330708661417323
          },
          {
            "duration": 0.24774750000000267,
            "durationTicks": 220,
            "midi": 43,
            "name": "G2",
            "ticks": 122395,
            "time": 137.832069375,
            "velocity": 0.3937007874015748
          },
          {
            "duration": 0.2364862500000129,
            "durationTicks": 210,
            "midi": 50,
            "name": "D3",
            "ticks": 122405,
            "time": 137.843330625,
            "velocity": 0.3543307086614173
          },
          {
            "duration": 0.04504499999998757,
            "durationTicks": 40,
            "midi": 53,
            "name": "F3",
            "ticks": 122635,
            "time": 138.102339375,
            "velocity": 0.5354330708661418
          },
          {
            "duration": 0.03378374999999778,
            "durationTicks": 30,
            "midi": 58,
            "name": "A#3",
            "ticks": 122645,
            "time": 138.113600625,
            "velocity": 0.6929133858267716
          },
          {
            "duration": 0.022522500000007994,
            "durationTicks": 20,
            "midi": 62,
            "name": "D4",
            "ticks": 122655,
            "time": 138.124861875,
            "velocity": 0.7086614173228346
          },
          {
            "duration": 0.24774750000000267,
            "durationTicks": 220,
            "midi": 43,
            "name": "G2",
            "ticks": 122875,
            "time": 138.37260937500002,
            "velocity": 0.3937007874015748
          },
          {
            "duration": 0.2364862500000129,
            "durationTicks": 210,
            "midi": 50,
            "name": "D3",
            "ticks": 122885,
            "time": 138.38387062500001,
            "velocity": 0.3543307086614173
          },
          {
            "duration": 0.04504500000001599,
            "durationTicks": 40,
            "midi": 53,
            "name": "F3",
            "ticks": 123115,
            "time": 138.642879375,
            "velocity": 0.5354330708661418
          },
          {
            "duration": 0.03378374999999778,
            "durationTicks": 30,
            "midi": 58,
            "name": "A#3",
            "ticks": 123125,
            "time": 138.65414062500003,
            "velocity": 0.6929133858267716
          },
          {
            "duration": 0.022522500000007994,
            "durationTicks": 20,
            "midi": 62,
            "name": "D4",
            "ticks": 123135,
            "time": 138.66540187500001,
            "velocity": 0.7086614173228346
          },
          {
            "duration": 0.011261249999989786,
            "durationTicks": 10,
            "midi": 62,
            "name": "D4",
            "ticks": 123275,
            "time": 138.823059375,
            "velocity": 0.33858267716535434
          },
          {
            "duration": 0.011261250000018208,
            "durationTicks": 10,
            "midi": 58,
            "name": "A#3",
            "ticks": 123280,
            "time": 138.82869,
            "velocity": 0.41732283464566927
          },
          {
            "duration": 0.011261249999989786,
            "durationTicks": 10,
            "midi": 53,
            "name": "F3",
            "ticks": 123285,
            "time": 138.834320625,
            "velocity": 0.4330708661417323
          },
          {
            "duration": 0.2477475000000311,
            "durationTicks": 220,
            "midi": 43,
            "name": "G2",
            "ticks": 123355,
            "time": 138.913149375,
            "velocity": 0.3937007874015748
          },
          {
            "duration": 0.2364862500000129,
            "durationTicks": 210,
            "midi": 50,
            "name": "D3",
            "ticks": 123365,
            "time": 138.924410625,
            "velocity": 0.3543307086614173
          },
          {
            "duration": 0.07882875000001377,
            "durationTicks": 70,
            "midi": 53,
            "name": "F3",
            "ticks": 123595,
            "time": 139.183419375,
            "velocity": 0.5354330708661418
          },
          {
            "duration": 0.056306249999977354,
            "durationTicks": 50,
            "midi": 58,
            "name": "A#3",
            "ticks": 123605,
            "time": 139.19468062500002,
            "velocity": 0.6929133858267716
          },
          {
            "duration": 0.056306250000005775,
            "durationTicks": 50,
            "midi": 62,
            "name": "D4",
            "ticks": 123615,
            "time": 139.205941875,
            "velocity": 0.7086614173228346
          },
          {
            "duration": 0.2477475000000311,
            "durationTicks": 220,
            "midi": 43,
            "name": "G2",
            "ticks": 123835,
            "time": 139.45368937499998,
            "velocity": 0.3937007874015748
          },
          {
            "duration": 0.23648624999998447,
            "durationTicks": 210,
            "midi": 50,
            "name": "D3",
            "ticks": 123845,
            "time": 139.46495062500003,
            "velocity": 0.3543307086614173
          },
          {
            "duration": 0.04504500000001599,
            "durationTicks": 40,
            "midi": 53,
            "name": "F3",
            "ticks": 124075,
            "time": 139.723959375,
            "velocity": 0.5354330708661418
          },
          {
            "duration": 0.03378374999999778,
            "durationTicks": 30,
            "midi": 58,
            "name": "A#3",
            "ticks": 124085,
            "time": 139.735220625,
            "velocity": 0.6929133858267716
          },
          {
            "duration": 0.022522500000007994,
            "durationTicks": 20,
            "midi": 62,
            "name": "D4",
            "ticks": 124095,
            "time": 139.746481875,
            "velocity": 0.7086614173228346
          },
          {
            "duration": 0.011261249999989786,
            "durationTicks": 10,
            "midi": 62,
            "name": "D4",
            "ticks": 124235,
            "time": 139.90413937500003,
            "velocity": 0.33858267716535434
          },
          {
            "duration": 0.011261250000018208,
            "durationTicks": 10,
            "midi": 58,
            "name": "A#3",
            "ticks": 124240,
            "time": 139.90977,
            "velocity": 0.41732283464566927
          },
          {
            "duration": 0.011261249999989786,
            "durationTicks": 10,
            "midi": 53,
            "name": "F3",
            "ticks": 124245,
            "time": 139.91540062500002,
            "velocity": 0.4330708661417323
          },
          {
            "duration": 0.24774750000000267,
            "durationTicks": 220,
            "midi": 43,
            "name": "G2",
            "ticks": 124315,
            "time": 139.994229375,
            "velocity": 0.3937007874015748
          },
          {
            "duration": 0.23648624999998447,
            "durationTicks": 210,
            "midi": 50,
            "name": "D3",
            "ticks": 124325,
            "time": 140.00549062500002,
            "velocity": 0.3543307086614173
          },
          {
            "duration": 0.04504500000001599,
            "durationTicks": 40,
            "midi": 53,
            "name": "F3",
            "ticks": 124555,
            "time": 140.26449937499999,
            "velocity": 0.5354330708661418
          },
          {
            "duration": 0.03378374999999778,
            "durationTicks": 30,
            "midi": 58,
            "name": "A#3",
            "ticks": 124565,
            "time": 140.275760625,
            "velocity": 0.6929133858267716
          },
          {
            "duration": 0.022522500000007994,
            "durationTicks": 20,
            "midi": 62,
            "name": "D4",
            "ticks": 124575,
            "time": 140.287021875,
            "velocity": 0.7086614173228346
          },
          {
            "duration": 0.2477475000000311,
            "durationTicks": 220,
            "midi": 48,
            "name": "C3",
            "ticks": 124795,
            "time": 140.534769375,
            "velocity": 0.3937007874015748
          },
          {
            "duration": 0.2364862500000129,
            "durationTicks": 210,
            "midi": 55,
            "name": "G3",
            "ticks": 124805,
            "time": 140.54603062500001,
            "velocity": 0.3543307086614173
          },
          {
            "duration": 0.04504500000001599,
            "durationTicks": 40,
            "midi": 55,
            "name": "G3",
            "ticks": 125035,
            "time": 140.805039375,
            "velocity": 0.5354330708661418
          },
          {
            "duration": 0.03378374999999778,
            "durationTicks": 30,
            "midi": 58,
            "name": "A#3",
            "ticks": 125040,
            "time": 140.81067000000002,
            "velocity": 0.6929133858267716
          },
          {
            "duration": 0.022522499999979573,
            "durationTicks": 20,
            "midi": 62,
            "name": "D4",
            "ticks": 125045,
            "time": 140.81630062500003,
            "velocity": 0.7086614173228346
          },
          {
            "duration": 0.011261249999989786,
            "durationTicks": 10,
            "midi": 62,
            "name": "D4",
            "ticks": 125195,
            "time": 140.985219375,
            "velocity": 0.33858267716535434
          },
          {
            "duration": 0.011261250000018208,
            "durationTicks": 10,
            "midi": 58,
            "name": "A#3",
            "ticks": 125200,
            "time": 140.99085,
            "velocity": 0.41732283464566927
          },
          {
            "duration": 0.011261249999989786,
            "durationTicks": 10,
            "midi": 55,
            "name": "G3",
            "ticks": 125205,
            "time": 140.996480625,
            "velocity": 0.4330708661417323
          },
          {
            "duration": 0.2477475000000311,
            "durationTicks": 220,
            "midi": 48,
            "name": "C3",
            "ticks": 125275,
            "time": 141.075309375,
            "velocity": 0.3937007874015748
          },
          {
            "duration": 0.2364862500000129,
            "durationTicks": 210,
            "midi": 55,
            "name": "G3",
            "ticks": 125285,
            "time": 141.086570625,
            "velocity": 0.3543307086614173
          },
          {
            "duration": 0.022522500000007994,
            "durationTicks": 20,
            "midi": 55,
            "name": "G3",
            "ticks": 125515,
            "time": 141.345579375,
            "velocity": 0.5354330708661418
          },
          {
            "duration": 0.03378374999999778,
            "durationTicks": 30,
            "midi": 58,
            "name": "A#3",
            "ticks": 125525,
            "time": 141.35684062500002,
            "velocity": 0.6929133858267716
          },
          {
            "duration": 0.022522500000007994,
            "durationTicks": 20,
            "midi": 62,
            "name": "D4",
            "ticks": 125535,
            "time": 141.368101875,
            "velocity": 0.7086614173228346
          },
          {
            "duration": 0.2477475000000311,
            "durationTicks": 220,
            "midi": 48,
            "name": "C3",
            "ticks": 125755,
            "time": 141.61584937499998,
            "velocity": 0.3937007874015748
          },
          {
            "duration": 0.23648624999998447,
            "durationTicks": 210,
            "midi": 55,
            "name": "G3",
            "ticks": 125765,
            "time": 141.62711062500003,
            "velocity": 0.3543307086614173
          },
          {
            "duration": 0.07882875000001377,
            "durationTicks": 70,
            "midi": 55,
            "name": "G3",
            "ticks": 125995,
            "time": 141.886119375,
            "velocity": 0.5354330708661418
          },
          {
            "duration": 0.06756749999999556,
            "durationTicks": 60,
            "midi": 58,
            "name": "A#3",
            "ticks": 126005,
            "time": 141.897380625,
            "velocity": 0.6929133858267716
          },
          {
            "duration": 0.056306250000005775,
            "durationTicks": 50,
            "midi": 62,
            "name": "D4",
            "ticks": 126015,
            "time": 141.908641875,
            "velocity": 0.7086614173228346
          },
          {
            "duration": 0.011261249999989786,
            "durationTicks": 10,
            "midi": 62,
            "name": "D4",
            "ticks": 126155,
            "time": 142.06629937500003,
            "velocity": 0.33858267716535434
          },
          {
            "duration": 0.011261250000018208,
            "durationTicks": 10,
            "midi": 58,
            "name": "A#3",
            "ticks": 126160,
            "time": 142.07193,
            "velocity": 0.41732283464566927
          },
          {
            "duration": 0.011261249999989786,
            "durationTicks": 10,
            "midi": 55,
            "name": "G3",
            "ticks": 126165,
            "time": 142.07756062500002,
            "velocity": 0.4330708661417323
          },
          {
            "duration": 0.011261250000018208,
            "durationTicks": 10,
            "midi": 48,
            "name": "C3",
            "ticks": 126235,
            "time": 142.156389375,
            "velocity": 0.6062992125984252
          },
          {
            "duration": 0.011261249999989786,
            "durationTicks": 10,
            "midi": 55,
            "name": "G3",
            "ticks": 126245,
            "time": 142.16765062500002,
            "velocity": 0.5905511811023622
          },
          {
            "duration": 0.349098749999996,
            "durationTicks": 310,
            "midi": 63,
            "name": "D#4",
            "ticks": 126395,
            "time": 142.336569375,
            "velocity": 0.6929133858267716
          },
          {
            "duration": 0.33783750000000623,
            "durationTicks": 300,
            "midi": 59,
            "name": "B3",
            "ticks": 126400,
            "time": 142.3422,
            "velocity": 0.6771653543307087
          },
          {
            "duration": 0.33783750000000623,
            "durationTicks": 300,
            "midi": 53,
            "name": "F3",
            "ticks": 126405,
            "time": 142.347830625,
            "velocity": 0.6771653543307087
          },
          {
            "duration": 0.2477475000000311,
            "durationTicks": 220,
            "midi": 48,
            "name": "C3",
            "ticks": 126715,
            "time": 142.696929375,
            "velocity": 0.3937007874015748
          },
          {
            "duration": 0.2364862500000129,
            "durationTicks": 210,
            "midi": 55,
            "name": "G3",
            "ticks": 126725,
            "time": 142.70819062500001,
            "velocity": 0.3543307086614173
          },
          {
            "duration": 0.04504500000001599,
            "durationTicks": 40,
            "midi": 55,
            "name": "G3",
            "ticks": 126955,
            "time": 142.967199375,
            "velocity": 0.5354330708661418
          },
          {
            "duration": 0.03378374999999778,
            "durationTicks": 30,
            "midi": 58,
            "name": "A#3",
            "ticks": 126960,
            "time": 142.97283000000002,
            "velocity": 0.6929133858267716
          },
          {
            "duration": 0.03378374999999778,
            "durationTicks": 30,
            "midi": 62,
            "name": "D4",
            "ticks": 126965,
            "time": 142.97846062500003,
            "velocity": 0.7086614173228346
          },
          {
            "duration": 0.011261249999989786,
            "durationTicks": 10,
            "midi": 62,
            "name": "D4",
            "ticks": 127115,
            "time": 143.147379375,
            "velocity": 0.33858267716535434
          },
          {
            "duration": 0.011261250000018208,
            "durationTicks": 10,
            "midi": 58,
            "name": "A#3",
            "ticks": 127120,
            "time": 143.15301,
            "velocity": 0.41732283464566927
          },
          {
            "duration": 0.011261249999989786,
            "durationTicks": 10,
            "midi": 55,
            "name": "G3",
            "ticks": 127125,
            "time": 143.158640625,
            "velocity": 0.4330708661417323
          },
          {
            "duration": 0.2477475000000311,
            "durationTicks": 220,
            "midi": 48,
            "name": "C3",
            "ticks": 127195,
            "time": 143.237469375,
            "velocity": 0.3937007874015748
          },
          {
            "duration": 0.2364862500000129,
            "durationTicks": 210,
            "midi": 55,
            "name": "G3",
            "ticks": 127205,
            "time": 143.248730625,
            "velocity": 0.3543307086614173
          },
          {
            "duration": 0.022522500000007994,
            "durationTicks": 20,
            "midi": 55,
            "name": "G3",
            "ticks": 127435,
            "time": 143.507739375,
            "velocity": 0.5354330708661418
          },
          {
            "duration": 0.06756749999999556,
            "durationTicks": 60,
            "midi": 58,
            "name": "A#3",
            "ticks": 127445,
            "time": 143.51900062500002,
            "velocity": 0.6929133858267716
          },
          {
            "duration": 0.04504499999998757,
            "durationTicks": 40,
            "midi": 62,
            "name": "D4",
            "ticks": 127455,
            "time": 143.530261875,
            "velocity": 0.7086614173228346
          },
          {
            "duration": 0.022522500000036416,
            "durationTicks": 20,
            "midi": 50,
            "name": "D3",
            "ticks": 127675,
            "time": 143.77800937499998,
            "velocity": 0.3937007874015748
          },
          {
            "duration": 0.07882875000001377,
            "durationTicks": 70,
            "midi": 54,
            "name": "F#3",
            "ticks": 127915,
            "time": 144.048279375,
            "velocity": 0.5354330708661418
          },
          {
            "duration": 0.06756749999999556,
            "durationTicks": 60,
            "midi": 60,
            "name": "C4",
            "ticks": 127920,
            "time": 144.05391,
            "velocity": 0.6929133858267716
          },
          {
            "duration": 0.06756749999999556,
            "durationTicks": 60,
            "midi": 63,
            "name": "D#4",
            "ticks": 127925,
            "time": 144.059540625,
            "velocity": 0.7086614173228346
          },
          {
            "duration": 0.011261249999989786,
            "durationTicks": 10,
            "midi": 63,
            "name": "D#4",
            "ticks": 128075,
            "time": 144.22845937500003,
            "velocity": 0.33858267716535434
          },
          {
            "duration": 0.011261250000018208,
            "durationTicks": 10,
            "midi": 60,
            "name": "C4",
            "ticks": 128080,
            "time": 144.23409,
            "velocity": 0.41732283464566927
          },
          {
            "duration": 0.011261249999989786,
            "durationTicks": 10,
            "midi": 54,
            "name": "F#3",
            "ticks": 128085,
            "time": 144.23972062500002,
            "velocity": 0.4330708661417323
          },
          {
            "duration": 0.022522500000007994,
            "durationTicks": 20,
            "midi": 50,
            "name": "D3",
            "ticks": 128155,
            "time": 144.318549375,
            "velocity": 0.3543307086614173
          },
          {
            "duration": 0.022522500000007994,
            "durationTicks": 20,
            "midi": 54,
            "name": "F#3",
            "ticks": 128395,
            "time": 144.58881937499999,
            "velocity": 0.5354330708661418
          },
          {
            "duration": 0.03378374999999778,
            "durationTicks": 30,
            "midi": 60,
            "name": "C4",
            "ticks": 128405,
            "time": 144.600080625,
            "velocity": 0.6929133858267716
          },
          {
            "duration": 0.022522500000007994,
            "durationTicks": 20,
            "midi": 63,
            "name": "D#4",
            "ticks": 128415,
            "time": 144.611341875,
            "velocity": 0.7086614173228346
          },
          {
            "duration": 0.2477475000000311,
            "durationTicks": 220,
            "midi": 43,
            "name": "G2",
            "ticks": 128635,
            "time": 144.859089375,
            "velocity": 0.3937007874015748
          },
          {
            "duration": 0.2364862500000129,
            "durationTicks": 210,
            "midi": 50,
            "name": "D3",
            "ticks": 128645,
            "time": 144.87035062500001,
            "velocity": 0.3543307086614173
          },
          {
            "duration": 0.04504500000001599,
            "durationTicks": 40,
            "midi": 53,
            "name": "F3",
            "ticks": 128875,
            "time": 145.129359375,
            "velocity": 0.5354330708661418
          },
          {
            "duration": 0.03378374999999778,
            "durationTicks": 30,
            "midi": 58,
            "name": "A#3",
            "ticks": 128885,
            "time": 145.14062062500003,
            "velocity": 0.6929133858267716
          },
          {
            "duration": 0.022522500000007994,
            "durationTicks": 20,
            "midi": 62,
            "name": "D4",
            "ticks": 128895,
            "time": 145.15188187500002,
            "velocity": 0.7086614173228346
          },
          {
            "duration": 0.011261249999989786,
            "durationTicks": 10,
            "midi": 62,
            "name": "D4",
            "ticks": 129035,
            "time": 145.309539375,
            "velocity": 0.33858267716535434
          },
          {
            "duration": 0.011261250000018208,
            "durationTicks": 10,
            "midi": 58,
            "name": "A#3",
            "ticks": 129040,
            "time": 145.31517,
            "velocity": 0.41732283464566927
          },
          {
            "duration": 0.011261249999989786,
            "durationTicks": 10,
            "midi": 53,
            "name": "F3",
            "ticks": 129045,
            "time": 145.320800625,
            "velocity": 0.4330708661417323
          },
          {
            "duration": 0.2477475000000311,
            "durationTicks": 220,
            "midi": 43,
            "name": "G2",
            "ticks": 129115,
            "time": 145.399629375,
            "velocity": 0.3937007874015748
          },
          {
            "duration": 0.2364862500000129,
            "durationTicks": 210,
            "midi": 50,
            "name": "D3",
            "ticks": 129125,
            "time": 145.410890625,
            "velocity": 0.3543307086614173
          },
          {
            "duration": 0.04504500000001599,
            "durationTicks": 40,
            "midi": 53,
            "name": "F3",
            "ticks": 129355,
            "time": 145.669899375,
            "velocity": 0.5354330708661418
          },
          {
            "duration": 0.03378374999999778,
            "durationTicks": 30,
            "midi": 58,
            "name": "A#3",
            "ticks": 129365,
            "time": 145.68116062500002,
            "velocity": 0.6929133858267716
          },
          {
            "duration": 0.022522500000007994,
            "durationTicks": 20,
            "midi": 62,
            "name": "D4",
            "ticks": 129375,
            "time": 145.692421875,
            "velocity": 0.7086614173228346
          },
          {
            "duration": 0.2477475000000311,
            "durationTicks": 220,
            "midi": 43,
            "name": "G2",
            "ticks": 129595,
            "time": 145.94016937499998,
            "velocity": 0.3937007874015748
          },
          {
            "duration": 0.23648624999998447,
            "durationTicks": 210,
            "midi": 50,
            "name": "D3",
            "ticks": 129605,
            "time": 145.95143062500003,
            "velocity": 0.3543307086614173
          },
          {
            "duration": 0.09009000000000356,
            "durationTicks": 80,
            "midi": 53,
            "name": "F3",
            "ticks": 129835,
            "time": 146.210439375,
            "velocity": 0.5354330708661418
          },
          {
            "duration": 0.07882874999998535,
            "durationTicks": 70,
            "midi": 58,
            "name": "A#3",
            "ticks": 129845,
            "time": 146.221700625,
            "velocity": 0.6929133858267716
          },
          {
            "duration": 0.06756749999999556,
            "durationTicks": 60,
            "midi": 62,
            "name": "D4",
            "ticks": 129855,
            "time": 146.232961875,
            "velocity": 0.7086614173228346
          },
          {
            "duration": 0.011261249999989786,
            "durationTicks": 10,
            "midi": 62,
            "name": "D4",
            "ticks": 129995,
            "time": 146.39061937500003,
            "velocity": 0.33858267716535434
          },
          {
            "duration": 0.011261250000018208,
            "durationTicks": 10,
            "midi": 58,
            "name": "A#3",
            "ticks": 130000,
            "time": 146.39625,
            "velocity": 0.41732283464566927
          },
          {
            "duration": 0.011261249999989786,
            "durationTicks": 10,
            "midi": 53,
            "name": "F3",
            "ticks": 130005,
            "time": 146.40188062500002,
            "velocity": 0.4330708661417323
          },
          {
            "duration": 0.24774750000000267,
            "durationTicks": 220,
            "midi": 43,
            "name": "G2",
            "ticks": 130075,
            "time": 146.480709375,
            "velocity": 0.3937007874015748
          },
          {
            "duration": 0.23648624999998447,
            "durationTicks": 210,
            "midi": 50,
            "name": "D3",
            "ticks": 130085,
            "time": 146.49197062500002,
            "velocity": 0.3543307086614173
          },
          {
            "duration": 0.09009000000003198,
            "durationTicks": 80,
            "midi": 53,
            "name": "F3",
            "ticks": 130315,
            "time": 146.750979375,
            "velocity": 0.5354330708661418
          },
          {
            "duration": 0.07882875000001377,
            "durationTicks": 70,
            "midi": 58,
            "name": "A#3",
            "ticks": 130325,
            "time": 146.762240625,
            "velocity": 0.6929133858267716
          },
          {
            "duration": 0.06756750000002398,
            "durationTicks": 60,
            "midi": 62,
            "name": "D4",
            "ticks": 130335,
            "time": 146.773501875,
            "velocity": 0.7086614173228346
          },
          {
            "duration": 0.2477475000000311,
            "durationTicks": 220,
            "midi": 43,
            "name": "G2",
            "ticks": 130555,
            "time": 147.021249375,
            "velocity": 0.3937007874015748
          },
          {
            "duration": 0.2364862500000129,
            "durationTicks": 210,
            "midi": 50,
            "name": "D3",
            "ticks": 130565,
            "time": 147.03251062500001,
            "velocity": 0.3543307086614173
          },
          {
            "duration": 0.09009000000000356,
            "durationTicks": 80,
            "midi": 53,
            "name": "F3",
            "ticks": 130795,
            "time": 147.291519375,
            "velocity": 0.5354330708661418
          },
          {
            "duration": 0.07882874999998535,
            "durationTicks": 70,
            "midi": 58,
            "name": "A#3",
            "ticks": 130805,
            "time": 147.30278062500003,
            "velocity": 0.6929133858267716
          },
          {
            "duration": 0.06756749999999556,
            "durationTicks": 60,
            "midi": 62,
            "name": "D4",
            "ticks": 130815,
            "time": 147.31404187500002,
            "velocity": 0.7086614173228346
          },
          {
            "duration": 0.011261249999989786,
            "durationTicks": 10,
            "midi": 62,
            "name": "D4",
            "ticks": 130955,
            "time": 147.47169937500001,
            "velocity": 0.33858267716535434
          },
          {
            "duration": 0.011261250000018208,
            "durationTicks": 10,
            "midi": 58,
            "name": "A#3",
            "ticks": 130960,
            "time": 147.47733,
            "velocity": 0.41732283464566927
          },
          {
            "duration": 0.011261249999989786,
            "durationTicks": 10,
            "midi": 53,
            "name": "F3",
            "ticks": 130965,
            "time": 147.482960625,
            "velocity": 0.4330708661417323
          },
          {
            "duration": 0.2477475000000311,
            "durationTicks": 220,
            "midi": 43,
            "name": "G2",
            "ticks": 131035,
            "time": 147.561789375,
            "velocity": 0.3937007874015748
          },
          {
            "duration": 0.2364862500000129,
            "durationTicks": 210,
            "midi": 50,
            "name": "D3",
            "ticks": 131045,
            "time": 147.573050625,
            "velocity": 0.3543307086614173
          },
          {
            "duration": 0.04504500000001599,
            "durationTicks": 40,
            "midi": 53,
            "name": "F3",
            "ticks": 131275,
            "time": 147.832059375,
            "velocity": 0.5354330708661418
          },
          {
            "duration": 0.03378374999999778,
            "durationTicks": 30,
            "midi": 58,
            "name": "A#3",
            "ticks": 131285,
            "time": 147.84332062500002,
            "velocity": 0.6929133858267716
          },
          {
            "duration": 0.022522500000007994,
            "durationTicks": 20,
            "midi": 62,
            "name": "D4",
            "ticks": 131295,
            "time": 147.854581875,
            "velocity": 0.7086614173228346
          },
          {
            "duration": 0.2477475000000311,
            "durationTicks": 220,
            "midi": 43,
            "name": "G2",
            "ticks": 131515,
            "time": 148.10232937499998,
            "velocity": 0.3937007874015748
          },
          {
            "duration": 0.23648624999998447,
            "durationTicks": 210,
            "midi": 50,
            "name": "D3",
            "ticks": 131525,
            "time": 148.11359062500003,
            "velocity": 0.3543307086614173
          },
          {
            "duration": 0.04504500000001599,
            "durationTicks": 40,
            "midi": 53,
            "name": "F3",
            "ticks": 131755,
            "time": 148.372599375,
            "velocity": 0.5354330708661418
          },
          {
            "duration": 0.03378374999999778,
            "durationTicks": 30,
            "midi": 58,
            "name": "A#3",
            "ticks": 131765,
            "time": 148.383860625,
            "velocity": 0.6929133858267716
          },
          {
            "duration": 0.022522500000007994,
            "durationTicks": 20,
            "midi": 62,
            "name": "D4",
            "ticks": 131775,
            "time": 148.395121875,
            "velocity": 0.7086614173228346
          },
          {
            "duration": 0.011261249999989786,
            "durationTicks": 10,
            "midi": 62,
            "name": "D4",
            "ticks": 131915,
            "time": 148.55277937500003,
            "velocity": 0.33858267716535434
          },
          {
            "duration": 0.011261250000018208,
            "durationTicks": 10,
            "midi": 58,
            "name": "A#3",
            "ticks": 131920,
            "time": 148.55841,
            "velocity": 0.41732283464566927
          },
          {
            "duration": 0.011261249999989786,
            "durationTicks": 10,
            "midi": 53,
            "name": "F3",
            "ticks": 131925,
            "time": 148.56404062500002,
            "velocity": 0.4330708661417323
          },
          {
            "duration": 0.24774750000000267,
            "durationTicks": 220,
            "midi": 42,
            "name": "F#2",
            "ticks": 131995,
            "time": 148.642869375,
            "velocity": 0.3937007874015748
          },
          {
            "duration": 0.23648624999998447,
            "durationTicks": 210,
            "midi": 49,
            "name": "C#3",
            "ticks": 132005,
            "time": 148.65413062500002,
            "velocity": 0.3543307086614173
          },
          {
            "duration": 0.04504500000001599,
            "durationTicks": 40,
            "midi": 52,
            "name": "E3",
            "ticks": 132235,
            "time": 148.913139375,
            "velocity": 0.5354330708661418
          },
          {
            "duration": 0.03378374999999778,
            "durationTicks": 30,
            "midi": 57,
            "name": "A3",
            "ticks": 132245,
            "time": 148.924400625,
            "velocity": 0.6929133858267716
          },
          {
            "duration": 0.022522500000007994,
            "durationTicks": 20,
            "midi": 61,
            "name": "C#4",
            "ticks": 132255,
            "time": 148.935661875,
            "velocity": 0.7086614173228346
          },
          {
            "duration": 0.011261249999989786,
            "durationTicks": 10,
            "midi": 61,
            "name": "C#4",
            "ticks": 132395,
            "time": 149.09331937500002,
            "velocity": 0.41732283464566927
          },
          {
            "duration": 0.011261250000018208,
            "durationTicks": 10,
            "midi": 57,
            "name": "A3",
            "ticks": 132400,
            "time": 149.09895,
            "velocity": 0.5748031496062992
          },
          {
            "duration": 0.011261249999989786,
            "durationTicks": 10,
            "midi": 52,
            "name": "E3",
            "ticks": 132405,
            "time": 149.104580625,
            "velocity": 0.5905511811023622
          },
          {
            "duration": 0.2477475000000311,
            "durationTicks": 220,
            "midi": 41,
            "name": "F2",
            "ticks": 132475,
            "time": 149.183409375,
            "velocity": 0.3937007874015748
          },
          {
            "duration": 0.2364862500000129,
            "durationTicks": 210,
            "midi": 48,
            "name": "C3",
            "ticks": 132485,
            "time": 149.19467062500001,
            "velocity": 0.3543307086614173
          },
          {
            "duration": 0.04504500000001599,
            "durationTicks": 40,
            "midi": 51,
            "name": "D#3",
            "ticks": 132715,
            "time": 149.453679375,
            "velocity": 0.5354330708661418
          },
          {
            "duration": 0.03378374999999778,
            "durationTicks": 30,
            "midi": 56,
            "name": "G#3",
            "ticks": 132725,
            "time": 149.46494062500003,
            "velocity": 0.6929133858267716
          },
          {
            "duration": 0.022522500000007994,
            "durationTicks": 20,
            "midi": 60,
            "name": "C4",
            "ticks": 132735,
            "time": 149.47620187500002,
            "velocity": 0.7086614173228346
          },
          {
            "duration": 0.011261249999989786,
            "durationTicks": 10,
            "midi": 60,
            "name": "C4",
            "ticks": 132875,
            "time": 149.63385937500001,
            "velocity": 0.33858267716535434
          },
          {
            "duration": 0.011261250000018208,
            "durationTicks": 10,
            "midi": 56,
            "name": "G#3",
            "ticks": 132880,
            "time": 149.63949,
            "velocity": 0.41732283464566927
          },
          {
            "duration": 0.011261249999989786,
            "durationTicks": 10,
            "midi": 51,
            "name": "D#3",
            "ticks": 132885,
            "time": 149.645120625,
            "velocity": 0.4330708661417323
          },
          {
            "duration": 0.2477475000000311,
            "durationTicks": 220,
            "midi": 41,
            "name": "F2",
            "ticks": 132955,
            "time": 149.723949375,
            "velocity": 0.3937007874015748
          },
          {
            "duration": 0.2364862500000129,
            "durationTicks": 210,
            "midi": 48,
            "name": "C3",
            "ticks": 132965,
            "time": 149.735210625,
            "velocity": 0.3543307086614173
          },
          {
            "duration": 0.04504500000001599,
            "durationTicks": 40,
            "midi": 51,
            "name": "D#3",
            "ticks": 133195,
            "time": 149.994219375,
            "velocity": 0.5354330708661418
          },
          {
            "duration": 0.03378374999999778,
            "durationTicks": 30,
            "midi": 56,
            "name": "G#3",
            "ticks": 133205,
            "time": 150.00548062500002,
            "velocity": 0.6929133858267716
          },
          {
            "duration": 0.022522500000007994,
            "durationTicks": 20,
            "midi": 60,
            "name": "C4",
            "ticks": 133215,
            "time": 150.016741875,
            "velocity": 0.7086614173228346
          },
          {
            "duration": 0.2477475000000311,
            "durationTicks": 220,
            "midi": 41,
            "name": "F2",
            "ticks": 133435,
            "time": 150.26448937499998,
            "velocity": 0.3937007874015748
          },
          {
            "duration": 0.23648624999998447,
            "durationTicks": 210,
            "midi": 48,
            "name": "C3",
            "ticks": 133445,
            "time": 150.27575062500003,
            "velocity": 0.3543307086614173
          },
          {
            "duration": 0.04504500000001599,
            "durationTicks": 40,
            "midi": 51,
            "name": "D#3",
            "ticks": 133675,
            "time": 150.534759375,
            "velocity": 0.5354330708661418
          },
          {
            "duration": 0.03378374999999778,
            "durationTicks": 30,
            "midi": 56,
            "name": "G#3",
            "ticks": 133685,
            "time": 150.546020625,
            "velocity": 0.6929133858267716
          },
          {
            "duration": 0.022522500000007994,
            "durationTicks": 20,
            "midi": 60,
            "name": "C4",
            "ticks": 133695,
            "time": 150.557281875,
            "velocity": 0.7086614173228346
          },
          {
            "duration": 0.011261249999989786,
            "durationTicks": 10,
            "midi": 60,
            "name": "C4",
            "ticks": 133835,
            "time": 150.71493937500003,
            "velocity": 0.33858267716535434
          },
          {
            "duration": 0.011261250000018208,
            "durationTicks": 10,
            "midi": 56,
            "name": "G#3",
            "ticks": 133840,
            "time": 150.72057,
            "velocity": 0.41732283464566927
          },
          {
            "duration": 0.011261249999989786,
            "durationTicks": 10,
            "midi": 51,
            "name": "D#3",
            "ticks": 133845,
            "time": 150.72620062500002,
            "velocity": 0.4330708661417323
          },
          {
            "duration": 0.24774750000000267,
            "durationTicks": 220,
            "midi": 41,
            "name": "F2",
            "ticks": 133915,
            "time": 150.805029375,
            "velocity": 0.3937007874015748
          },
          {
            "duration": 0.23648624999998447,
            "durationTicks": 210,
            "midi": 48,
            "name": "C3",
            "ticks": 133925,
            "time": 150.81629062500002,
            "velocity": 0.3543307086614173
          },
          {
            "duration": 0.07882875000004219,
            "durationTicks": 70,
            "midi": 51,
            "name": "D#3",
            "ticks": 134155,
            "time": 151.075299375,
            "velocity": 0.5354330708661418
          },
          {
            "duration": 0.06756750000002398,
            "durationTicks": 60,
            "midi": 56,
            "name": "G#3",
            "ticks": 134165,
            "time": 151.086560625,
            "velocity": 0.6929133858267716
          },
          {
            "duration": 0.0563062500000342,
            "durationTicks": 50,
            "midi": 60,
            "name": "C4",
            "ticks": 134175,
            "time": 151.097821875,
            "velocity": 0.7086614173228346
          },
          {
            "duration": 0.2477475000000311,
            "durationTicks": 220,
            "midi": 41,
            "name": "F2",
            "ticks": 134395,
            "time": 151.345569375,
            "velocity": 0.3937007874015748
          },
          {
            "duration": 0.2364862500000129,
            "durationTicks": 210,
            "midi": 48,
            "name": "C3",
            "ticks": 134405,
            "time": 151.35683062500001,
            "velocity": 0.3543307086614173
          },
          {
            "duration": 0.04504500000001599,
            "durationTicks": 40,
            "midi": 51,
            "name": "D#3",
            "ticks": 134635,
            "time": 151.615839375,
            "velocity": 0.5354330708661418
          },
          {
            "duration": 0.03378374999999778,
            "durationTicks": 30,
            "midi": 56,
            "name": "G#3",
            "ticks": 134645,
            "time": 151.62710062500003,
            "velocity": 0.6929133858267716
          },
          {
            "duration": 0.022522500000007994,
            "durationTicks": 20,
            "midi": 60,
            "name": "C4",
            "ticks": 134655,
            "time": 151.63836187500002,
            "velocity": 0.7086614173228346
          },
          {
            "duration": 0.011261249999989786,
            "durationTicks": 10,
            "midi": 60,
            "name": "C4",
            "ticks": 134795,
            "time": 151.79601937500001,
            "velocity": 0.33858267716535434
          },
          {
            "duration": 0.011261250000018208,
            "durationTicks": 10,
            "midi": 56,
            "name": "G#3",
            "ticks": 134800,
            "time": 151.80165,
            "velocity": 0.41732283464566927
          },
          {
            "duration": 0.011261249999989786,
            "durationTicks": 10,
            "midi": 51,
            "name": "D#3",
            "ticks": 134805,
            "time": 151.807280625,
            "velocity": 0.4330708661417323
          },
          {
            "duration": 0.2477475000000311,
            "durationTicks": 220,
            "midi": 41,
            "name": "F2",
            "ticks": 134875,
            "time": 151.886109375,
            "velocity": 0.3937007874015748
          },
          {
            "duration": 0.2364862500000129,
            "durationTicks": 210,
            "midi": 48,
            "name": "C3",
            "ticks": 134885,
            "time": 151.897370625,
            "velocity": 0.3543307086614173
          },
          {
            "duration": 0.10135124999999334,
            "durationTicks": 90,
            "midi": 51,
            "name": "D#3",
            "ticks": 135115,
            "time": 152.156379375,
            "velocity": 0.5354330708661418
          },
          {
            "duration": 0.09008999999997513,
            "durationTicks": 80,
            "midi": 56,
            "name": "G#3",
            "ticks": 135125,
            "time": 152.16764062500002,
            "velocity": 0.6929133858267716
          },
          {
            "duration": 0.07882874999998535,
            "durationTicks": 70,
            "midi": 60,
            "name": "C4",
            "ticks": 135135,
            "time": 152.178901875,
            "velocity": 0.7086614173228346
          },
          {
            "duration": 0.2477475000000311,
            "durationTicks": 220,
            "midi": 46,
            "name": "A#2",
            "ticks": 135355,
            "time": 152.42664937499998,
            "velocity": 0.3937007874015748
          },
          {
            "duration": 0.23648624999998447,
            "durationTicks": 210,
            "midi": 53,
            "name": "F3",
            "ticks": 135365,
            "time": 152.43791062500003,
            "velocity": 0.3543307086614173
          },
          {
            "duration": 0.04504500000001599,
            "durationTicks": 40,
            "midi": 53,
            "name": "F3",
            "ticks": 135595,
            "time": 152.696919375,
            "velocity": 0.5354330708661418
          },
          {
            "duration": 0.03378374999999778,
            "durationTicks": 30,
            "midi": 56,
            "name": "G#3",
            "ticks": 135605,
            "time": 152.708180625,
            "velocity": 0.6929133858267716
          },
          {
            "duration": 0.022522500000007994,
            "durationTicks": 20,
            "midi": 62,
            "name": "D4",
            "ticks": 135615,
            "time": 152.719441875,
            "velocity": 0.7086614173228346
          },
          {
            "duration": 0.011261249999989786,
            "durationTicks": 10,
            "midi": 62,
            "name": "D4",
            "ticks": 135755,
            "time": 152.87709937500003,
            "velocity": 0.33858267716535434
          },
          {
            "duration": 0.011261250000018208,
            "durationTicks": 10,
            "midi": 56,
            "name": "G#3",
            "ticks": 135760,
            "time": 152.88273,
            "velocity": 0.41732283464566927
          },
          {
            "duration": 0.011261249999989786,
            "durationTicks": 10,
            "midi": 53,
            "name": "F3",
            "ticks": 135765,
            "time": 152.88836062500002,
            "velocity": 0.4330708661417323
          },
          {
            "duration": 0.24774750000000267,
            "durationTicks": 220,
            "midi": 46,
            "name": "A#2",
            "ticks": 135835,
            "time": 152.967189375,
            "velocity": 0.3937007874015748
          },
          {
            "duration": 0.23648624999998447,
            "durationTicks": 210,
            "midi": 53,
            "name": "F3",
            "ticks": 135845,
            "time": 152.97845062500002,
            "velocity": 0.3543307086614173
          },
          {
            "duration": 0.04504500000001599,
            "durationTicks": 40,
            "midi": 53,
            "name": "F3",
            "ticks": 136075,
            "time": 153.237459375,
            "velocity": 0.5354330708661418
          },
          {
            "duration": 0.03378374999999778,
            "durationTicks": 30,
            "midi": 56,
            "name": "G#3",
            "ticks": 136085,
            "time": 153.248720625,
            "velocity": 0.6929133858267716
          },
          {
            "duration": 0.022522500000007994,
            "durationTicks": 20,
            "midi": 62,
            "name": "D4",
            "ticks": 136095,
            "time": 153.259981875,
            "velocity": 0.7086614173228346
          },
          {
            "duration": 0.2477475000000311,
            "durationTicks": 220,
            "midi": 47,
            "name": "B2",
            "ticks": 136315,
            "time": 153.507729375,
            "velocity": 0.41732283464566927
          },
          {
            "duration": 0.2364862500000129,
            "durationTicks": 210,
            "midi": 53,
            "name": "F3",
            "ticks": 136325,
            "time": 153.51899062500001,
            "velocity": 0.3779527559055118
          },
          {
            "duration": 0.04504500000001599,
            "durationTicks": 40,
            "midi": 53,
            "name": "F3",
            "ticks": 136555,
            "time": 153.777999375,
            "velocity": 0.5590551181102362
          },
          {
            "duration": 0.03378374999999778,
            "durationTicks": 30,
            "midi": 59,
            "name": "B3",
            "ticks": 136560,
            "time": 153.78363000000002,
            "velocity": 0.7165354330708661
          },
          {
            "duration": 0.022522499999979573,
            "durationTicks": 20,
            "midi": 62,
            "name": "D4",
            "ticks": 136565,
            "time": 153.78926062500003,
            "velocity": 0.7322834645669292
          },
          {
            "duration": 0.011261249999989786,
            "durationTicks": 10,
            "midi": 62,
            "name": "D4",
            "ticks": 136715,
            "time": 153.95817937500001,
            "velocity": 0.36220472440944884
          },
          {
            "duration": 0.011261250000018208,
            "durationTicks": 10,
            "midi": 59,
            "name": "B3",
            "ticks": 136720,
            "time": 153.96381,
            "velocity": 0.4409448818897638
          },
          {
            "duration": 0.011261249999989786,
            "durationTicks": 10,
            "midi": 53,
            "name": "F3",
            "ticks": 136725,
            "time": 153.969440625,
            "velocity": 0.4566929133858268
          },
          {
            "duration": 0.2477475000000311,
            "durationTicks": 220,
            "midi": 47,
            "name": "B2",
            "ticks": 136795,
            "time": 154.048269375,
            "velocity": 0.41732283464566927
          },
          {
            "duration": 0.2364862500000129,
            "durationTicks": 210,
            "midi": 53,
            "name": "F3",
            "ticks": 136805,
            "time": 154.059530625,
            "velocity": 0.3779527559055118
          },
          {
            "duration": 0.09009000000000356,
            "durationTicks": 80,
            "midi": 53,
            "name": "F3",
            "ticks": 137035,
            "time": 154.318539375,
            "velocity": 0.5590551181102362
          },
          {
            "duration": 0.07882874999998535,
            "durationTicks": 70,
            "midi": 59,
            "name": "B3",
            "ticks": 137045,
            "time": 154.32980062500002,
            "velocity": 0.7165354330708661
          },
          {
            "duration": 0.06756749999999556,
            "durationTicks": 60,
            "midi": 62,
            "name": "D4",
            "ticks": 137055,
            "time": 154.341061875,
            "velocity": 0.7322834645669292
          },
          {
            "duration": 0.2477475000000311,
            "durationTicks": 220,
            "midi": 47,
            "name": "B2",
            "ticks": 137275,
            "time": 154.58880937499998,
            "velocity": 0.41732283464566927
          },
          {
            "duration": 0.23648624999998447,
            "durationTicks": 210,
            "midi": 53,
            "name": "F3",
            "ticks": 137285,
            "time": 154.60007062500003,
            "velocity": 0.3779527559055118
          },
          {
            "duration": 0.04504500000001599,
            "durationTicks": 40,
            "midi": 53,
            "name": "F3",
            "ticks": 137515,
            "time": 154.859079375,
            "velocity": 0.5590551181102362
          },
          {
            "duration": 0.03378374999999778,
            "durationTicks": 30,
            "midi": 59,
            "name": "B3",
            "ticks": 137525,
            "time": 154.870340625,
            "velocity": 0.7165354330708661
          },
          {
            "duration": 0.022522500000007994,
            "durationTicks": 20,
            "midi": 62,
            "name": "D4",
            "ticks": 137535,
            "time": 154.881601875,
            "velocity": 0.7322834645669292
          },
          {
            "duration": 0.011261249999989786,
            "durationTicks": 10,
            "midi": 62,
            "name": "D4",
            "ticks": 137675,
            "time": 155.03925937500003,
            "velocity": 0.36220472440944884
          },
          {
            "duration": 0.011261250000018208,
            "durationTicks": 10,
            "midi": 59,
            "name": "B3",
            "ticks": 137680,
            "time": 155.04489,
            "velocity": 0.4409448818897638
          },
          {
            "duration": 0.011261249999989786,
            "durationTicks": 10,
            "midi": 53,
            "name": "F3",
            "ticks": 137685,
            "time": 155.05052062500002,
            "velocity": 0.4566929133858268
          },
          {
            "duration": 0.24774750000000267,
            "durationTicks": 220,
            "midi": 47,
            "name": "B2",
            "ticks": 137755,
            "time": 155.129349375,
            "velocity": 0.41732283464566927
          },
          {
            "duration": 0.23648624999998447,
            "durationTicks": 210,
            "midi": 53,
            "name": "F3",
            "ticks": 137765,
            "time": 155.14061062500002,
            "velocity": 0.3779527559055118
          },
          {
            "duration": 0.11261250000003997,
            "durationTicks": 100,
            "midi": 53,
            "name": "F3",
            "ticks": 137995,
            "time": 155.399619375,
            "velocity": 0.5590551181102362
          },
          {
            "duration": 0.10135125000002176,
            "durationTicks": 90,
            "midi": 59,
            "name": "B3",
            "ticks": 138000,
            "time": 155.40525,
            "velocity": 0.7165354330708661
          },
          {
            "duration": 0.09009000000000356,
            "durationTicks": 80,
            "midi": 62,
            "name": "D4",
            "ticks": 138005,
            "time": 155.410880625,
            "velocity": 0.7322834645669292
          },
          {
            "duration": 0.2477475000000311,
            "durationTicks": 220,
            "midi": 44,
            "name": "G#2",
            "ticks": 138235,
            "time": 155.669889375,
            "velocity": 0.41732283464566927
          },
          {
            "duration": 0.2364862500000129,
            "durationTicks": 210,
            "midi": 51,
            "name": "D#3",
            "ticks": 138245,
            "time": 155.68115062500001,
            "velocity": 0.3779527559055118
          },
          {
            "duration": 0.04504500000001599,
            "durationTicks": 40,
            "midi": 54,
            "name": "F#3",
            "ticks": 138475,
            "time": 155.940159375,
            "velocity": 0.5590551181102362
          },
          {
            "duration": 0.03378374999999778,
            "durationTicks": 30,
            "midi": 60,
            "name": "C4",
            "ticks": 138480,
            "time": 155.94579000000002,
            "velocity": 0.7165354330708661
          },
          {
            "duration": 0.022522499999979573,
            "durationTicks": 20,
            "midi": 63,
            "name": "D#4",
            "ticks": 138485,
            "time": 155.95142062500003,
            "velocity": 0.7322834645669292
          },
          {
            "duration": 0.011261249999989786,
            "durationTicks": 10,
            "midi": 63,
            "name": "D#4",
            "ticks": 138635,
            "time": 156.12033937500001,
            "velocity": 0.36220472440944884
          },
          {
            "duration": 0.011261250000018208,
            "durationTicks": 10,
            "midi": 60,
            "name": "C4",
            "ticks": 138640,
            "time": 156.12597,
            "velocity": 0.4409448818897638
          },
          {
            "duration": 0.011261249999989786,
            "durationTicks": 10,
            "midi": 54,
            "name": "F#3",
            "ticks": 138645,
            "time": 156.131600625,
            "velocity": 0.4566929133858268
          },
          {
            "duration": 0.2477475000000311,
            "durationTicks": 220,
            "midi": 44,
            "name": "G#2",
            "ticks": 138715,
            "time": 156.210429375,
            "velocity": 0.41732283464566927
          },
          {
            "duration": 0.2364862500000129,
            "durationTicks": 210,
            "midi": 51,
            "name": "D#3",
            "ticks": 138725,
            "time": 156.221690625,
            "velocity": 0.3779527559055118
          },
          {
            "duration": 0.022522500000007994,
            "durationTicks": 20,
            "midi": 54,
            "name": "F#3",
            "ticks": 138955,
            "time": 156.480699375,
            "velocity": 0.5590551181102362
          },
          {
            "duration": 0.03378374999999778,
            "durationTicks": 30,
            "midi": 60,
            "name": "C4",
            "ticks": 138965,
            "time": 156.49196062500002,
            "velocity": 0.7165354330708661
          },
          {
            "duration": 0.022522500000007994,
            "durationTicks": 20,
            "midi": 63,
            "name": "D#4",
            "ticks": 138975,
            "time": 156.503221875,
            "velocity": 0.7322834645669292
          },
          {
            "duration": 0.2477475000000311,
            "durationTicks": 220,
            "midi": 44,
            "name": "G#2",
            "ticks": 139195,
            "time": 156.75096937499998,
            "velocity": 0.41732283464566927
          },
          {
            "duration": 0.23648624999998447,
            "durationTicks": 210,
            "midi": 51,
            "name": "D#3",
            "ticks": 139205,
            "time": 156.76223062500003,
            "velocity": 0.3779527559055118
          },
          {
            "duration": 0.04504500000001599,
            "durationTicks": 40,
            "midi": 54,
            "name": "F#3",
            "ticks": 139435,
            "time": 157.021239375,
            "velocity": 0.5590551181102362
          },
          {
            "duration": 0.03378374999999778,
            "durationTicks": 30,
            "midi": 60,
            "name": "C4",
            "ticks": 139440,
            "time": 157.02687,
            "velocity": 0.7165354330708661
          },
          {
            "duration": 0.022522499999979573,
            "durationTicks": 20,
            "midi": 63,
            "name": "D#4",
            "ticks": 139445,
            "time": 157.032500625,
            "velocity": 0.7322834645669292
          },
          {
            "duration": 0.011261249999989786,
            "durationTicks": 10,
            "midi": 63,
            "name": "D#4",
            "ticks": 139595,
            "time": 157.20141937500003,
            "velocity": 0.36220472440944884
          },
          {
            "duration": 0.011261250000018208,
            "durationTicks": 10,
            "midi": 60,
            "name": "C4",
            "ticks": 139600,
            "time": 157.20705,
            "velocity": 0.4409448818897638
          },
          {
            "duration": 0.011261249999989786,
            "durationTicks": 10,
            "midi": 54,
            "name": "F#3",
            "ticks": 139605,
            "time": 157.21268062500002,
            "velocity": 0.4566929133858268
          },
          {
            "duration": 0.24774750000000267,
            "durationTicks": 220,
            "midi": 44,
            "name": "G#2",
            "ticks": 139675,
            "time": 157.291509375,
            "velocity": 0.41732283464566927
          },
          {
            "duration": 0.23648624999998447,
            "durationTicks": 210,
            "midi": 51,
            "name": "D#3",
            "ticks": 139685,
            "time": 157.30277062500002,
            "velocity": 0.3779527559055118
          },
          {
            "duration": 0.09009000000003198,
            "durationTicks": 80,
            "midi": 54,
            "name": "F#3",
            "ticks": 139915,
            "time": 157.561779375,
            "velocity": 0.5590551181102362
          },
          {
            "duration": 0.07882875000001377,
            "durationTicks": 70,
            "midi": 60,
            "name": "C4",
            "ticks": 139925,
            "time": 157.573040625,
            "velocity": 0.7165354330708661
          },
          {
            "duration": 0.06756750000002398,
            "durationTicks": 60,
            "midi": 63,
            "name": "D#4",
            "ticks": 139935,
            "time": 157.584301875,
            "velocity": 0.7322834645669292
          },
          {
            "duration": 0.2477475000000311,
            "durationTicks": 220,
            "midi": 43,
            "name": "G2",
            "ticks": 140155,
            "time": 157.832049375,
            "velocity": 0.41732283464566927
          },
          {
            "duration": 0.2364862500000129,
            "durationTicks": 210,
            "midi": 50,
            "name": "D3",
            "ticks": 140165,
            "time": 157.84331062500002,
            "velocity": 0.3779527559055118
          },
          {
            "duration": 0.04504500000001599,
            "durationTicks": 40,
            "midi": 55,
            "name": "G3",
            "ticks": 140395,
            "time": 158.102319375,
            "velocity": 0.7322834645669292
          },
          {
            "duration": 0.03378374999999778,
            "durationTicks": 30,
            "midi": 58,
            "name": "A#3",
            "ticks": 140400,
            "time": 158.10795000000002,
            "velocity": 0.7165354330708661
          },
          {
            "duration": 0.022522499999979573,
            "durationTicks": 20,
            "midi": 62,
            "name": "D4",
            "ticks": 140405,
            "time": 158.11358062500003,
            "velocity": 0.5590551181102362
          },
          {
            "duration": 0.011261249999989786,
            "durationTicks": 10,
            "midi": 62,
            "name": "D4",
            "ticks": 140555,
            "time": 158.28249937500001,
            "velocity": 0.36220472440944884
          },
          {
            "duration": 0.011261250000018208,
            "durationTicks": 10,
            "midi": 58,
            "name": "A#3",
            "ticks": 140560,
            "time": 158.28813,
            "velocity": 0.4409448818897638
          },
          {
            "duration": 0.011261249999989786,
            "durationTicks": 10,
            "midi": 55,
            "name": "G3",
            "ticks": 140565,
            "time": 158.293760625,
            "velocity": 0.4566929133858268
          },
          {
            "duration": 0.2477475000000311,
            "durationTicks": 220,
            "midi": 43,
            "name": "G2",
            "ticks": 140635,
            "time": 158.372589375,
            "velocity": 0.41732283464566927
          },
          {
            "duration": 0.2364862500000129,
            "durationTicks": 210,
            "midi": 50,
            "name": "D3",
            "ticks": 140645,
            "time": 158.383850625,
            "velocity": 0.3779527559055118
          },
          {
            "duration": 0.09009000000000356,
            "durationTicks": 80,
            "midi": 55,
            "name": "G3",
            "ticks": 140875,
            "time": 158.642859375,
            "velocity": 0.7322834645669292
          },
          {
            "duration": 0.07882874999998535,
            "durationTicks": 70,
            "midi": 58,
            "name": "A#3",
            "ticks": 140885,
            "time": 158.65412062500002,
            "velocity": 0.7165354330708661
          },
          {
            "duration": 0.06756749999999556,
            "durationTicks": 60,
            "midi": 62,
            "name": "D4",
            "ticks": 140895,
            "time": 158.665381875,
            "velocity": 0.5590551181102362
          },
          {
            "duration": 0.2477475000000311,
            "durationTicks": 220,
            "midi": 43,
            "name": "G2",
            "ticks": 141115,
            "time": 158.91312937499998,
            "velocity": 0.41732283464566927
          },
          {
            "duration": 0.23648624999998447,
            "durationTicks": 210,
            "midi": 50,
            "name": "D3",
            "ticks": 141125,
            "time": 158.92439062500003,
            "velocity": 0.3779527559055118
          },
          {
            "duration": 0.04504500000001599,
            "durationTicks": 40,
            "midi": 54,
            "name": "F#3",
            "ticks": 141355,
            "time": 159.183399375,
            "velocity": 0.7322834645669292
          },
          {
            "duration": 0.03378374999999778,
            "durationTicks": 30,
            "midi": 58,
            "name": "A#3",
            "ticks": 141360,
            "time": 159.18903,
            "velocity": 0.7165354330708661
          },
          {
            "duration": 0.022522499999979573,
            "durationTicks": 20,
            "midi": 62,
            "name": "D4",
            "ticks": 141365,
            "time": 159.194660625,
            "velocity": 0.5590551181102362
          },
          {
            "duration": 0.011261249999989786,
            "durationTicks": 10,
            "midi": 62,
            "name": "D4",
            "ticks": 141515,
            "time": 159.36357937500003,
            "velocity": 0.36220472440944884
          },
          {
            "duration": 0.011261250000018208,
            "durationTicks": 10,
            "midi": 58,
            "name": "A#3",
            "ticks": 141520,
            "time": 159.36921,
            "velocity": 0.4409448818897638
          },
          {
            "duration": 0.011261249999989786,
            "durationTicks": 10,
            "midi": 54,
            "name": "F#3",
            "ticks": 141525,
            "time": 159.37484062500002,
            "velocity": 0.44881889763779526
          },
          {
            "duration": 0.24774750000000267,
            "durationTicks": 220,
            "midi": 43,
            "name": "G2",
            "ticks": 141595,
            "time": 159.453669375,
            "velocity": 0.41732283464566927
          },
          {
            "duration": 0.23648624999998447,
            "durationTicks": 210,
            "midi": 50,
            "name": "D3",
            "ticks": 141605,
            "time": 159.46493062500002,
            "velocity": 0.3779527559055118
          },
          {
            "duration": 0.10135125000002176,
            "durationTicks": 90,
            "midi": 54,
            "name": "F#3",
            "ticks": 141835,
            "time": 159.723939375,
            "velocity": 0.7322834645669292
          },
          {
            "duration": 0.09009000000000356,
            "durationTicks": 80,
            "midi": 58,
            "name": "A#3",
            "ticks": 141845,
            "time": 159.735200625,
            "velocity": 0.7165354330708661
          },
          {
            "duration": 0.07882875000001377,
            "durationTicks": 70,
            "midi": 62,
            "name": "D4",
            "ticks": 141855,
            "time": 159.746461875,
            "velocity": 0.5590551181102362
          },
          {
            "duration": 0.2477475000000311,
            "durationTicks": 220,
            "midi": 43,
            "name": "G2",
            "ticks": 142075,
            "time": 159.994209375,
            "velocity": 0.41732283464566927
          },
          {
            "duration": 0.2364862500000129,
            "durationTicks": 210,
            "midi": 50,
            "name": "D3",
            "ticks": 142085,
            "time": 160.00547062500002,
            "velocity": 0.3779527559055118
          },
          {
            "duration": 0.04504500000001599,
            "durationTicks": 40,
            "midi": 53,
            "name": "F3",
            "ticks": 142315,
            "time": 160.264479375,
            "velocity": 0.7322834645669292
          },
          {
            "duration": 0.03378374999999778,
            "durationTicks": 30,
            "midi": 58,
            "name": "A#3",
            "ticks": 142320,
            "time": 160.27011000000002,
            "velocity": 0.7165354330708661
          },
          {
            "duration": 0.022522499999979573,
            "durationTicks": 20,
            "midi": 62,
            "name": "D4",
            "ticks": 142325,
            "time": 160.27574062500003,
            "velocity": 0.5590551181102362
          },
          {
            "duration": 0.011261249999989786,
            "durationTicks": 10,
            "midi": 62,
            "name": "D4",
            "ticks": 142475,
            "time": 160.44465937500001,
            "velocity": 0.36220472440944884
          },
          {
            "duration": 0.011261250000018208,
            "durationTicks": 10,
            "midi": 58,
            "name": "A#3",
            "ticks": 142480,
            "time": 160.45029,
            "velocity": 0.4409448818897638
          },
          {
            "duration": 0.011261249999989786,
            "durationTicks": 10,
            "midi": 53,
            "name": "F3",
            "ticks": 142485,
            "time": 160.455920625,
            "velocity": 0.4566929133858268
          },
          {
            "duration": 0.2477475000000311,
            "durationTicks": 220,
            "midi": 43,
            "name": "G2",
            "ticks": 142555,
            "time": 160.534749375,
            "velocity": 0.41732283464566927
          },
          {
            "duration": 0.2364862500000129,
            "durationTicks": 210,
            "midi": 50,
            "name": "D3",
            "ticks": 142565,
            "time": 160.546010625,
            "velocity": 0.3779527559055118
          },
          {
            "duration": 0.09009000000000356,
            "durationTicks": 80,
            "midi": 53,
            "name": "F3",
            "ticks": 142795,
            "time": 160.805019375,
            "velocity": 0.7322834645669292
          },
          {
            "duration": 0.07882874999998535,
            "durationTicks": 70,
            "midi": 58,
            "name": "A#3",
            "ticks": 142805,
            "time": 160.81628062500002,
            "velocity": 0.7165354330708661
          },
          {
            "duration": 0.06756749999999556,
            "durationTicks": 60,
            "midi": 62,
            "name": "D4",
            "ticks": 142815,
            "time": 160.827541875,
            "velocity": 0.5590551181102362
          },
          {
            "duration": 0.2477475000000311,
            "durationTicks": 220,
            "midi": 52,
            "name": "E3",
            "ticks": 143035,
            "time": 161.07528937499998,
            "velocity": 0.41732283464566927
          },
          {
            "duration": 0.23648624999998447,
            "durationTicks": 210,
            "midi": 58,
            "name": "A#3",
            "ticks": 143045,
            "time": 161.08655062500003,
            "velocity": 0.3779527559055118
          },
          {
            "duration": 0.04504500000001599,
            "durationTicks": 40,
            "midi": 58,
            "name": "A#3",
            "ticks": 143275,
            "time": 161.345559375,
            "velocity": 0.7322834645669292
          },
          {
            "duration": 0.03378374999999778,
            "durationTicks": 30,
            "midi": 62,
            "name": "D4",
            "ticks": 143280,
            "time": 161.35119,
            "velocity": 0.7165354330708661
          },
          {
            "duration": 0.022522499999979573,
            "durationTicks": 20,
            "midi": 67,
            "name": "G4",
            "ticks": 143285,
            "time": 161.356820625,
            "velocity": 0.5590551181102362
          },
          {
            "duration": 0.011261249999989786,
            "durationTicks": 10,
            "midi": 67,
            "name": "G4",
            "ticks": 143435,
            "time": 161.52573937500003,
            "velocity": 0.36220472440944884
          },
          {
            "duration": 0.011261250000018208,
            "durationTicks": 10,
            "midi": 62,
            "name": "D4",
            "ticks": 143440,
            "time": 161.53137,
            "velocity": 0.4409448818897638
          },
          {
            "duration": 0.011261249999989786,
            "durationTicks": 10,
            "midi": 58,
            "name": "A#3",
            "ticks": 143445,
            "time": 161.53700062500002,
            "velocity": 0.4566929133858268
          },
          {
            "duration": 0.24774750000000267,
            "durationTicks": 220,
            "midi": 52,
            "name": "E3",
            "ticks": 143515,
            "time": 161.615829375,
            "velocity": 0.41732283464566927
          },
          {
            "duration": 0.23648624999998447,
            "durationTicks": 210,
            "midi": 58,
            "name": "A#3",
            "ticks": 143525,
            "time": 161.62709062500002,
            "velocity": 0.3779527559055118
          },
          {
            "duration": 0.022522500000007994,
            "durationTicks": 20,
            "midi": 58,
            "name": "A#3",
            "ticks": 143755,
            "time": 161.886099375,
            "velocity": 0.7322834645669292
          },
          {
            "duration": 0.03378374999999778,
            "durationTicks": 30,
            "midi": 62,
            "name": "D4",
            "ticks": 143765,
            "time": 161.897360625,
            "velocity": 0.7165354330708661
          },
          {
            "duration": 0.022522500000007994,
            "durationTicks": 20,
            "midi": 67,
            "name": "G4",
            "ticks": 143775,
            "time": 161.908621875,
            "velocity": 0.5590551181102362
          },
          {
            "duration": 0.2477475000000311,
            "durationTicks": 220,
            "midi": 51,
            "name": "D#3",
            "ticks": 143995,
            "time": 162.156369375,
            "velocity": 0.41732283464566927
          },
          {
            "duration": 0.2364862500000129,
            "durationTicks": 210,
            "midi": 58,
            "name": "A#3",
            "ticks": 144005,
            "time": 162.16763062500002,
            "velocity": 0.3779527559055118
          },
          {
            "duration": 0.04504500000001599,
            "durationTicks": 40,
            "midi": 58,
            "name": "A#3",
            "ticks": 144235,
            "time": 162.426639375,
            "velocity": 0.7322834645669292
          },
          {
            "duration": 0.03378374999999778,
            "durationTicks": 30,
            "midi": 62,
            "name": "D4",
            "ticks": 144240,
            "time": 162.43227000000002,
            "velocity": 0.7165354330708661
          },
          {
            "duration": 0.022522499999979573,
            "durationTicks": 20,
            "midi": 67,
            "name": "G4",
            "ticks": 144245,
            "time": 162.43790062500003,
            "velocity": 0.5590551181102362
          },
          {
            "duration": 0.011261249999989786,
            "durationTicks": 10,
            "midi": 67,
            "name": "G4",
            "ticks": 144395,
            "time": 162.60681937500001,
            "velocity": 0.36220472440944884
          },
          {
            "duration": 0.011261250000018208,
            "durationTicks": 10,
            "midi": 62,
            "name": "D4",
            "ticks": 144400,
            "time": 162.61245,
            "velocity": 0.4409448818897638
          },
          {
            "duration": 0.011261249999989786,
            "durationTicks": 10,
            "midi": 58,
            "name": "A#3",
            "ticks": 144405,
            "time": 162.618080625,
            "velocity": 0.4566929133858268
          },
          {
            "duration": 0.2477475000000311,
            "durationTicks": 220,
            "midi": 51,
            "name": "D#3",
            "ticks": 144475,
            "time": 162.696909375,
            "velocity": 0.41732283464566927
          },
          {
            "duration": 0.2364862500000129,
            "durationTicks": 210,
            "midi": 58,
            "name": "A#3",
            "ticks": 144485,
            "time": 162.708170625,
            "velocity": 0.3779527559055118
          },
          {
            "duration": 0.04504500000001599,
            "durationTicks": 40,
            "midi": 58,
            "name": "A#3",
            "ticks": 144715,
            "time": 162.967179375,
            "velocity": 0.8110236220472441
          },
          {
            "duration": 0.03378374999999778,
            "durationTicks": 30,
            "midi": 62,
            "name": "D4",
            "ticks": 144725,
            "time": 162.97844062500002,
            "velocity": 0.7952755905511811
          },
          {
            "duration": 0.022522500000007994,
            "durationTicks": 20,
            "midi": 67,
            "name": "G4",
            "ticks": 144735,
            "time": 162.989701875,
            "velocity": 0.7165354330708661
          },
          {
            "duration": 0.31531500000002666,
            "durationTicks": 280,
            "midi": 58,
            "name": "A#3",
            "ticks": 144955,
            "time": 163.23744937499998,
            "velocity": 0.7716535433070866
          },
          {
            "duration": 0.30405374999998,
            "durationTicks": 270,
            "midi": 62,
            "name": "D4",
            "ticks": 144965,
            "time": 163.24871062500003,
            "velocity": 0.7165354330708661
          },
          {
            "duration": 0.29279249999999024,
            "durationTicks": 260,
            "midi": 67,
            "name": "G4",
            "ticks": 144975,
            "time": 163.25997187500002,
            "velocity": 0.6377952755905512
          },
          {
            "duration": 0.31531500000002666,
            "durationTicks": 280,
            "midi": 58,
            "name": "A#3",
            "ticks": 145315,
            "time": 163.64285437499998,
            "velocity": 0.7322834645669292
          },
          {
            "duration": 0.30405375000000845,
            "durationTicks": 270,
            "midi": 62,
            "name": "D4",
            "ticks": 145325,
            "time": 163.654115625,
            "velocity": 0.7165354330708661
          },
          {
            "duration": 0.29279250000001866,
            "durationTicks": 260,
            "midi": 67,
            "name": "G4",
            "ticks": 145335,
            "time": 163.665376875,
            "velocity": 0.6377952755905512
          },
          {
            "duration": 0.2027025000000151,
            "durationTicks": 180,
            "midi": 58,
            "name": "A#3",
            "ticks": 145675,
            "time": 164.048259375,
            "velocity": 0.7559055118110236
          },
          {
            "duration": 0.1914412499999969,
            "durationTicks": 170,
            "midi": 62,
            "name": "D4",
            "ticks": 145685,
            "time": 164.059520625,
            "velocity": 0.7322834645669292
          },
          {
            "duration": 0.1801800000000071,
            "durationTicks": 160,
            "midi": 67,
            "name": "G4",
            "ticks": 145695,
            "time": 164.070781875,
            "velocity": 0.6535433070866141
          },
          {
            "duration": 0.2477475000000311,
            "durationTicks": 220,
            "midi": 50,
            "name": "D3",
            "ticks": 145915,
            "time": 164.318529375,
            "velocity": 0.41732283464566927
          },
          {
            "duration": 0.2364862500000129,
            "durationTicks": 210,
            "midi": 57,
            "name": "A3",
            "ticks": 145925,
            "time": 164.32979062500002,
            "velocity": 0.3779527559055118
          },
          {
            "duration": 0.04504500000001599,
            "durationTicks": 40,
            "midi": 57,
            "name": "A3",
            "ticks": 146155,
            "time": 164.588799375,
            "velocity": 0.7322834645669292
          },
          {
            "duration": 0.03378374999999778,
            "durationTicks": 30,
            "midi": 60,
            "name": "C4",
            "ticks": 146160,
            "time": 164.59443000000002,
            "velocity": 0.7165354330708661
          },
          {
            "duration": 0.022522499999979573,
            "durationTicks": 20,
            "midi": 67,
            "name": "G4",
            "ticks": 146165,
            "time": 164.60006062500003,
            "velocity": 0.6377952755905512
          },
          {
            "duration": 0.022522499999979573,
            "durationTicks": 20,
            "midi": 67,
            "name": "G4",
            "ticks": 146315,
            "time": 164.76897937500001,
            "velocity": 0.48031496062992124
          },
          {
            "duration": 0.011261250000018208,
            "durationTicks": 10,
            "midi": 60,
            "name": "C4",
            "ticks": 146320,
            "time": 164.77461,
            "velocity": 0.6377952755905512
          },
          {
            "duration": 0.011261249999989786,
            "durationTicks": 10,
            "midi": 57,
            "name": "A3",
            "ticks": 146325,
            "time": 164.780240625,
            "velocity": 0.6535433070866141
          },
          {
            "duration": 0.2477475000000311,
            "durationTicks": 220,
            "midi": 50,
            "name": "D3",
            "ticks": 146395,
            "time": 164.859069375,
            "velocity": 0.41732283464566927
          },
          {
            "duration": 0.2364862500000129,
            "durationTicks": 210,
            "midi": 57,
            "name": "A3",
            "ticks": 146405,
            "time": 164.870330625,
            "velocity": 0.3779527559055118
          },
          {
            "duration": 0.15765749999999912,
            "durationTicks": 140,
            "midi": 57,
            "name": "A3",
            "ticks": 146635,
            "time": 165.129339375,
            "velocity": 0.6929133858267716
          },
          {
            "duration": 0.1463962499999809,
            "durationTicks": 130,
            "midi": 60,
            "name": "C4",
            "ticks": 146640,
            "time": 165.13497,
            "velocity": 0.6771653543307087
          },
          {
            "duration": 0.1463962499999809,
            "durationTicks": 130,
            "midi": 67,
            "name": "G4",
            "ticks": 146645,
            "time": 165.14060062500002,
            "velocity": 0.5590551181102362
          },
          {
            "duration": 0.09008999999997513,
            "durationTicks": 80,
            "midi": 66,
            "name": "F#4",
            "ticks": 146795,
            "time": 165.309519375,
            "velocity": 0.6377952755905512
          },
          {
            "duration": 0.07882875000004219,
            "durationTicks": 70,
            "midi": 60,
            "name": "C4",
            "ticks": 146800,
            "time": 165.31515,
            "velocity": 0.7165354330708661
          },
          {
            "duration": 0.06756749999999556,
            "durationTicks": 60,
            "midi": 57,
            "name": "A3",
            "ticks": 146805,
            "time": 165.320780625,
            "velocity": 0.7322834645669292
          },
          {
            "duration": 0.1914412499999969,
            "durationTicks": 170,
            "midi": 50,
            "name": "D3",
            "ticks": 147775,
            "time": 166.413121875,
            "velocity": 0.6929133858267716
          },
          {
            "duration": 0.1801799999999787,
            "durationTicks": 160,
            "midi": 53,
            "name": "F3",
            "ticks": 147780,
            "time": 166.4187525,
            "velocity": 0.6929133858267716
          },
          {
            "duration": 0.1801799999999787,
            "durationTicks": 160,
            "midi": 58,
            "name": "A#3",
            "ticks": 147785,
            "time": 166.42438312500002,
            "velocity": 0.7086614173228346
          },
          {
            "duration": 0.011261249999989786,
            "durationTicks": 10,
            "midi": 62,
            "name": "D4",
            "ticks": 147995,
            "time": 166.660869375,
            "velocity": 0.49606299212598426
          },
          {
            "duration": 0.011261250000018208,
            "durationTicks": 10,
            "midi": 58,
            "name": "A#3",
            "ticks": 148000,
            "time": 166.66649999999998,
            "velocity": 0.49606299212598426
          },
          {
            "duration": 0.011261249999989786,
            "durationTicks": 10,
            "midi": 53,
            "name": "F3",
            "ticks": 148005,
            "time": 166.672130625,
            "velocity": 0.5118110236220472
          },
          {
            "duration": 0.10135124999999334,
            "durationTicks": 90,
            "midi": 53,
            "name": "F3",
            "ticks": 148075,
            "time": 166.750959375,
            "velocity": 0.49606299212598426
          },
          {
            "duration": 0.09008999999997513,
            "durationTicks": 80,
            "midi": 58,
            "name": "A#3",
            "ticks": 148085,
            "time": 166.76222062500003,
            "velocity": 0.6535433070866141
          },
          {
            "duration": 0.07882874999998535,
            "durationTicks": 70,
            "midi": 62,
            "name": "D4",
            "ticks": 148095,
            "time": 166.77348187500002,
            "velocity": 0.6692913385826772
          },
          {
            "duration": 0.011261250000018208,
            "durationTicks": 10,
            "midi": 50,
            "name": "D3",
            "ticks": 148315,
            "time": 167.021229375,
            "velocity": 0.5354330708661418
          },
          {
            "duration": 0.011261249999989786,
            "durationTicks": 10,
            "midi": 53,
            "name": "F3",
            "ticks": 148325,
            "time": 167.032490625,
            "velocity": 0.5354330708661418
          },
          {
            "duration": 0.011261249999989786,
            "durationTicks": 10,
            "midi": 58,
            "name": "A#3",
            "ticks": 148335,
            "time": 167.043751875,
            "velocity": 0.5590551181102362
          },
          {
            "duration": 0.09009000000000356,
            "durationTicks": 80,
            "midi": 53,
            "name": "F3",
            "ticks": 148555,
            "time": 167.291499375,
            "velocity": 0.6141732283464567
          },
          {
            "duration": 0.06756749999999556,
            "durationTicks": 60,
            "midi": 58,
            "name": "A#3",
            "ticks": 148565,
            "time": 167.30276062500002,
            "velocity": 0.6929133858267716
          },
          {
            "duration": 0.056306250000005775,
            "durationTicks": 50,
            "midi": 62,
            "name": "D4",
            "ticks": 148575,
            "time": 167.314021875,
            "velocity": 0.7086614173228346
          },
          {
            "duration": 0.2252250000000231,
            "durationTicks": 200,
            "midi": 50,
            "name": "D3",
            "ticks": 148795,
            "time": 167.56176937499998,
            "velocity": 0.41732283464566927
          },
          {
            "duration": 0.21396374999997647,
            "durationTicks": 190,
            "midi": 53,
            "name": "F3",
            "ticks": 148805,
            "time": 167.57303062500003,
            "velocity": 0.41732283464566927
          },
          {
            "duration": 0.20270249999998668,
            "durationTicks": 180,
            "midi": 58,
            "name": "A#3",
            "ticks": 148815,
            "time": 167.58429187500002,
            "velocity": 0.4015748031496063
          },
          {
            "duration": 0.14639625000000933,
            "durationTicks": 130,
            "midi": 53,
            "name": "F3",
            "ticks": 149035,
            "time": 167.832039375,
            "velocity": 0.6929133858267716
          },
          {
            "duration": 0.13513499999999112,
            "durationTicks": 120,
            "midi": 58,
            "name": "A#3",
            "ticks": 149045,
            "time": 167.843300625,
            "velocity": 0.7007874015748031
          },
          {
            "duration": 0.12387375000000134,
            "durationTicks": 110,
            "midi": 62,
            "name": "D4",
            "ticks": 149055,
            "time": 167.854561875,
            "velocity": 0.7086614173228346
          },
          {
            "duration": 0.04504499999998757,
            "durationTicks": 40,
            "midi": 62,
            "name": "D4",
            "ticks": 149195,
            "time": 168.01221937500003,
            "velocity": 0.7322834645669292
          },
          {
            "duration": 0.03378374999999778,
            "durationTicks": 30,
            "midi": 58,
            "name": "A#3",
            "ticks": 149200,
            "time": 168.01785,
            "velocity": 0.7322834645669292
          },
          {
            "duration": 0.022522500000007994,
            "durationTicks": 20,
            "midi": 53,
            "name": "F3",
            "ticks": 149205,
            "time": 168.02348062500002,
            "velocity": 0.7480314960629921
          },
          {
            "duration": 0.056306250000005775,
            "durationTicks": 50,
            "midi": 50,
            "name": "D3",
            "ticks": 149275,
            "time": 168.102309375,
            "velocity": 0.4566929133858268
          },
          {
            "duration": 0.04504499999998757,
            "durationTicks": 40,
            "midi": 53,
            "name": "F3",
            "ticks": 149285,
            "time": 168.11357062500002,
            "velocity": 0.5354330708661418
          },
          {
            "duration": 0.03378374999999778,
            "durationTicks": 30,
            "midi": 58,
            "name": "A#3",
            "ticks": 149295,
            "time": 168.124831875,
            "velocity": 0.5590551181102362
          },
          {
            "duration": 0.14639625000003775,
            "durationTicks": 130,
            "midi": 53,
            "name": "F3",
            "ticks": 149515,
            "time": 168.372579375,
            "velocity": 0.5354330708661418
          },
          {
            "duration": 0.13513500000001955,
            "durationTicks": 120,
            "midi": 58,
            "name": "A#3",
            "ticks": 149525,
            "time": 168.383840625,
            "velocity": 0.6929133858267716
          },
          {
            "duration": 0.12387375000002976,
            "durationTicks": 110,
            "midi": 62,
            "name": "D4",
            "ticks": 149535,
            "time": 168.395101875,
            "velocity": 0.7086614173228346
          },
          {
            "duration": 0.23648624999998447,
            "durationTicks": 210,
            "midi": 63,
            "name": "D#4",
            "ticks": 149675,
            "time": 168.55275937500002,
            "velocity": 0.5748031496062992
          },
          {
            "duration": 0.22522499999999468,
            "durationTicks": 200,
            "midi": 60,
            "name": "C4",
            "ticks": 149680,
            "time": 168.55839,
            "velocity": 0.5748031496062992
          },
          {
            "duration": 0.22522499999999468,
            "durationTicks": 200,
            "midi": 55,
            "name": "G3",
            "ticks": 149685,
            "time": 168.564020625,
            "velocity": 0.5905511811023622
          },
          {
            "duration": 0.011261249999989786,
            "durationTicks": 10,
            "midi": 63,
            "name": "D#4",
            "ticks": 149915,
            "time": 168.823029375,
            "velocity": 0.5748031496062992
          },
          {
            "duration": 0.011261250000018208,
            "durationTicks": 10,
            "midi": 60,
            "name": "C4",
            "ticks": 149920,
            "time": 168.82865999999999,
            "velocity": 0.5748031496062992
          },
          {
            "duration": 0.011261249999989786,
            "durationTicks": 10,
            "midi": 55,
            "name": "G3",
            "ticks": 149925,
            "time": 168.834290625,
            "velocity": 0.5118110236220472
          },
          {
            "duration": 0.07882875000001377,
            "durationTicks": 70,
            "midi": 55,
            "name": "G3",
            "ticks": 149995,
            "time": 168.913119375,
            "velocity": 0.6141732283464567
          },
          {
            "duration": 0.06756749999999556,
            "durationTicks": 60,
            "midi": 60,
            "name": "C4",
            "ticks": 150005,
            "time": 168.92438062500003,
            "velocity": 0.6929133858267716
          },
          {
            "duration": 0.056306250000005775,
            "durationTicks": 50,
            "midi": 63,
            "name": "D#4",
            "ticks": 150015,
            "time": 168.93564187500002,
            "velocity": 0.7086614173228346
          },
          {
            "duration": 0.011261249999989786,
            "durationTicks": 10,
            "midi": 63,
            "name": "D#4",
            "ticks": 150155,
            "time": 169.09329937500002,
            "velocity": 0.33858267716535434
          },
          {
            "duration": 0.011261250000018208,
            "durationTicks": 10,
            "midi": 60,
            "name": "C4",
            "ticks": 150160,
            "time": 169.09893,
            "velocity": 0.41732283464566927
          },
          {
            "duration": 0.011261249999989786,
            "durationTicks": 10,
            "midi": 55,
            "name": "G3",
            "ticks": 150165,
            "time": 169.104560625,
            "velocity": 0.4330708661417323
          },
          {
            "duration": 0.10135124999999334,
            "durationTicks": 90,
            "midi": 55,
            "name": "G3",
            "ticks": 150235,
            "time": 169.183389375,
            "velocity": 0.4566929133858268
          },
          {
            "duration": 0.09008999999997513,
            "durationTicks": 80,
            "midi": 60,
            "name": "C4",
            "ticks": 150245,
            "time": 169.194650625,
            "velocity": 0.5354330708661418
          },
          {
            "duration": 0.07882874999998535,
            "durationTicks": 70,
            "midi": 63,
            "name": "D#4",
            "ticks": 150255,
            "time": 169.205911875,
            "velocity": 0.5511811023622047
          },
          {
            "duration": 0.14639625000000933,
            "durationTicks": 130,
            "midi": 55,
            "name": "G3",
            "ticks": 150475,
            "time": 169.453659375,
            "velocity": 0.5354330708661418
          },
          {
            "duration": 0.13513499999999112,
            "durationTicks": 120,
            "midi": 60,
            "name": "C4",
            "ticks": 150485,
            "time": 169.46492062500002,
            "velocity": 0.6141732283464567
          },
          {
            "duration": 0.12387375000000134,
            "durationTicks": 110,
            "midi": 63,
            "name": "D#4",
            "ticks": 150495,
            "time": 169.476181875,
            "velocity": 0.6299212598425197
          },
          {
            "duration": 0.056306249999977354,
            "durationTicks": 50,
            "midi": 63,
            "name": "D#4",
            "ticks": 150635,
            "time": 169.633839375,
            "velocity": 0.6692913385826772
          },
          {
            "duration": 0.04504500000001599,
            "durationTicks": 40,
            "midi": 60,
            "name": "C4",
            "ticks": 150640,
            "time": 169.63947,
            "velocity": 0.7007874015748031
          },
          {
            "duration": 0.03378374999999778,
            "durationTicks": 30,
            "midi": 55,
            "name": "G3",
            "ticks": 150645,
            "time": 169.645100625,
            "velocity": 0.7165354330708661
          },
          {
            "duration": 0.2027025000000151,
            "durationTicks": 180,
            "midi": 54,
            "name": "F#3",
            "ticks": 150715,
            "time": 169.72392937499998,
            "velocity": 0.5669291338582677
          },
          {
            "duration": 0.19144124999996848,
            "durationTicks": 170,
            "midi": 60,
            "name": "C4",
            "ticks": 150725,
            "time": 169.73519062500003,
            "velocity": 0.6141732283464567
          },
          {
            "duration": 0.1801799999999787,
            "durationTicks": 160,
            "midi": 65,
            "name": "F4",
            "ticks": 150735,
            "time": 169.74645187500002,
            "velocity": 0.6220472440944882
          },
          {
            "duration": 0.07882875000001377,
            "durationTicks": 70,
            "midi": 54,
            "name": "F#3",
            "ticks": 150955,
            "time": 169.994199375,
            "velocity": 0.5354330708661418
          },
          {
            "duration": 0.06756749999999556,
            "durationTicks": 60,
            "midi": 60,
            "name": "C4",
            "ticks": 150965,
            "time": 170.005460625,
            "velocity": 0.6929133858267716
          },
          {
            "duration": 0.056306250000005775,
            "durationTicks": 50,
            "midi": 65,
            "name": "F4",
            "ticks": 150975,
            "time": 170.016721875,
            "velocity": 0.7086614173228346
          },
          {
            "duration": 0.011261249999989786,
            "durationTicks": 10,
            "midi": 62,
            "name": "D4",
            "ticks": 151115,
            "time": 170.17437937500003,
            "velocity": 0.33858267716535434
          },
          {
            "duration": 0.011261250000018208,
            "durationTicks": 10,
            "midi": 58,
            "name": "A#3",
            "ticks": 151120,
            "time": 170.18001,
            "velocity": 0.41732283464566927
          },
          {
            "duration": 0.011261249999989786,
            "durationTicks": 10,
            "midi": 53,
            "name": "F3",
            "ticks": 151125,
            "time": 170.18564062500002,
            "velocity": 0.4330708661417323
          },
          {
            "duration": 0.24774750000000267,
            "durationTicks": 220,
            "midi": 50,
            "name": "D3",
            "ticks": 151195,
            "time": 170.264469375,
            "velocity": 0.3937007874015748
          },
          {
            "duration": 0.23648624999998447,
            "durationTicks": 210,
            "midi": 54,
            "name": "F#3",
            "ticks": 151205,
            "time": 170.27573062500002,
            "velocity": 0.3543307086614173
          },
          {
            "duration": 0.15765750000002754,
            "durationTicks": 140,
            "midi": 54,
            "name": "F#3",
            "ticks": 151435,
            "time": 170.534739375,
            "velocity": 0.5354330708661418
          },
          {
            "duration": 0.14639625000000933,
            "durationTicks": 130,
            "midi": 60,
            "name": "C4",
            "ticks": 151445,
            "time": 170.546000625,
            "velocity": 0.6929133858267716
          },
          {
            "duration": 0.13513500000001955,
            "durationTicks": 120,
            "midi": 65,
            "name": "F4",
            "ticks": 151455,
            "time": 170.557261875,
            "velocity": 0.7086614173228346
          },
          {
            "duration": 0.2927924999999618,
            "durationTicks": 260,
            "midi": 62,
            "name": "D4",
            "ticks": 151595,
            "time": 170.71491937500002,
            "velocity": 0.5748031496062992
          },
          {
            "duration": 0.28153125000000045,
            "durationTicks": 250,
            "midi": 58,
            "name": "A#3",
            "ticks": 151600,
            "time": 170.72055,
            "velocity": 0.5748031496062992
          },
          {
            "duration": 0.28153124999997203,
            "durationTicks": 250,
            "midi": 53,
            "name": "F3",
            "ticks": 151605,
            "time": 170.726180625,
            "velocity": 0.5905511811023622
          },
          {
            "duration": 0.09009000000000356,
            "durationTicks": 80,
            "midi": 53,
            "name": "F3",
            "ticks": 151915,
            "time": 171.075279375,
            "velocity": 0.5354330708661418
          },
          {
            "duration": 0.07882874999998535,
            "durationTicks": 70,
            "midi": 58,
            "name": "A#3",
            "ticks": 151925,
            "time": 171.08654062500003,
            "velocity": 0.6141732283464567
          },
          {
            "duration": 0.06756749999999556,
            "durationTicks": 60,
            "midi": 62,
            "name": "D4",
            "ticks": 151935,
            "time": 171.09780187500002,
            "velocity": 0.6299212598425197
          },
          {
            "duration": 0.011261249999989786,
            "durationTicks": 10,
            "midi": 62,
            "name": "D4",
            "ticks": 152075,
            "time": 171.25545937500002,
            "velocity": 0.33858267716535434
          },
          {
            "duration": 0.011261250000018208,
            "durationTicks": 10,
            "midi": 58,
            "name": "A#3",
            "ticks": 152080,
            "time": 171.26109,
            "velocity": 0.41732283464566927
          },
          {
            "duration": 0.011261249999989786,
            "durationTicks": 10,
            "midi": 53,
            "name": "F3",
            "ticks": 152085,
            "time": 171.266720625,
            "velocity": 0.4330708661417323
          },
          {
            "duration": 0.09009000000000356,
            "durationTicks": 80,
            "midi": 62,
            "name": "D4",
            "ticks": 152155,
            "time": 171.345549375,
            "velocity": 0.5748031496062992
          },
          {
            "duration": 0.07882874999998535,
            "durationTicks": 70,
            "midi": 58,
            "name": "A#3",
            "ticks": 152165,
            "time": 171.356810625,
            "velocity": 0.5748031496062992
          },
          {
            "duration": 0.06756749999999556,
            "durationTicks": 60,
            "midi": 53,
            "name": "F3",
            "ticks": 152175,
            "time": 171.368071875,
            "velocity": 0.5905511811023622
          },
          {
            "duration": 0.13513499999999112,
            "durationTicks": 120,
            "midi": 53,
            "name": "F3",
            "ticks": 152395,
            "time": 171.615819375,
            "velocity": 0.6141732283464567
          },
          {
            "duration": 0.12387374999997292,
            "durationTicks": 110,
            "midi": 58,
            "name": "A#3",
            "ticks": 152405,
            "time": 171.62708062500002,
            "velocity": 0.6141732283464567
          },
          {
            "duration": 0.11261249999998313,
            "durationTicks": 100,
            "midi": 62,
            "name": "D4",
            "ticks": 152415,
            "time": 171.638341875,
            "velocity": 0.6299212598425197
          },
          {
            "duration": 0.022522499999979573,
            "durationTicks": 20,
            "midi": 62,
            "name": "D4",
            "ticks": 152555,
            "time": 171.795999375,
            "velocity": 0.5748031496062992
          },
          {
            "duration": 0.011261250000018208,
            "durationTicks": 10,
            "midi": 58,
            "name": "A#3",
            "ticks": 152560,
            "time": 171.80163,
            "velocity": 0.5748031496062992
          },
          {
            "duration": 0.011261249999989786,
            "durationTicks": 10,
            "midi": 53,
            "name": "F3",
            "ticks": 152565,
            "time": 171.807260625,
            "velocity": 0.5905511811023622
          },
          {
            "duration": 0.16891875000001733,
            "durationTicks": 150,
            "midi": 53,
            "name": "F3",
            "ticks": 152635,
            "time": 171.88608937499998,
            "velocity": 0.5748031496062992
          },
          {
            "duration": 0.1576574999999707,
            "durationTicks": 140,
            "midi": 58,
            "name": "A#3",
            "ticks": 152645,
            "time": 171.89735062500003,
            "velocity": 0.5748031496062992
          },
          {
            "duration": 0.1463962499999809,
            "durationTicks": 130,
            "midi": 62,
            "name": "D4",
            "ticks": 152655,
            "time": 171.90861187500002,
            "velocity": 0.5984251968503937
          },
          {
            "duration": 0.06756749999999556,
            "durationTicks": 60,
            "midi": 62,
            "name": "D4",
            "ticks": 152795,
            "time": 172.06626937500002,
            "velocity": 0.5354330708661418
          },
          {
            "duration": 0.06756749999999556,
            "durationTicks": 60,
            "midi": 58,
            "name": "A#3",
            "ticks": 152800,
            "time": 172.0719,
            "velocity": 0.5354330708661418
          },
          {
            "duration": 0.056306250000005775,
            "durationTicks": 50,
            "midi": 53,
            "name": "F3",
            "ticks": 152805,
            "time": 172.077530625,
            "velocity": 0.5511811023622047
          },
          {
            "duration": 0.1689187499999889,
            "durationTicks": 150,
            "midi": 53,
            "name": "F3",
            "ticks": 152875,
            "time": 172.156359375,
            "velocity": 0.5905511811023622
          },
          {
            "duration": 0.1576574999999707,
            "durationTicks": 140,
            "midi": 58,
            "name": "A#3",
            "ticks": 152885,
            "time": 172.167620625,
            "velocity": 0.5905511811023622
          },
          {
            "duration": 0.1463962499999809,
            "durationTicks": 130,
            "midi": 62,
            "name": "D4",
            "ticks": 152895,
            "time": 172.178881875,
            "velocity": 0.6141732283464567
          },
          {
            "duration": 0.24774749999997425,
            "durationTicks": 220,
            "midi": 62,
            "name": "D4",
            "ticks": 153035,
            "time": 172.33653937500003,
            "velocity": 0.6220472440944882
          },
          {
            "duration": 0.23648624999998447,
            "durationTicks": 210,
            "midi": 58,
            "name": "A#3",
            "ticks": 153045,
            "time": 172.34780062500002,
            "velocity": 0.6299212598425197
          },
          {
            "duration": 0.22522499999999468,
            "durationTicks": 200,
            "midi": 53,
            "name": "F3",
            "ticks": 153055,
            "time": 172.359061875,
            "velocity": 0.6377952755905512
          },
          {
            "duration": 0.07882874999998535,
            "durationTicks": 70,
            "midi": 62,
            "name": "D4",
            "ticks": 153275,
            "time": 172.606809375,
            "velocity": 0.5354330708661418
          },
          {
            "duration": 0.07882875000001377,
            "durationTicks": 70,
            "midi": 58,
            "name": "A#3",
            "ticks": 153280,
            "time": 172.61244,
            "velocity": 0.5354330708661418
          },
          {
            "duration": 0.06756749999999556,
            "durationTicks": 60,
            "midi": 53,
            "name": "F3",
            "ticks": 153285,
            "time": 172.618070625,
            "velocity": 0.5511811023622047
          },
          {
            "duration": 0.09009000000003198,
            "durationTicks": 80,
            "midi": 62,
            "name": "D4",
            "ticks": 153355,
            "time": 172.696899375,
            "velocity": 0.7007874015748031
          },
          {
            "duration": 0.07882875000001377,
            "durationTicks": 70,
            "midi": 58,
            "name": "A#3",
            "ticks": 153365,
            "time": 172.708160625,
            "velocity": 0.7007874015748031
          },
          {
            "duration": 0.06756750000002398,
            "durationTicks": 60,
            "midi": 53,
            "name": "F3",
            "ticks": 153375,
            "time": 172.719421875,
            "velocity": 0.7086614173228346
          },
          {
            "duration": 0.394143750000012,
            "durationTicks": 350,
            "midi": 58,
            "name": "A#3",
            "ticks": 153595,
            "time": 172.967169375,
            "velocity": 0.7480314960629921
          },
          {
            "duration": 0.3828824999999938,
            "durationTicks": 340,
            "midi": 62,
            "name": "D4",
            "ticks": 153605,
            "time": 172.97843062500002,
            "velocity": 0.6692913385826772
          },
          {
            "duration": 0.371621250000004,
            "durationTicks": 330,
            "midi": 67,
            "name": "G4",
            "ticks": 153615,
            "time": 172.989691875,
            "velocity": 0.6692913385826772
          },
          {
            "duration": 0.3941437499999836,
            "durationTicks": 350,
            "midi": 58,
            "name": "A#3",
            "ticks": 153965,
            "time": 173.38383562500002,
            "velocity": 0.7795275590551181
          },
          {
            "duration": 0.371621250000004,
            "durationTicks": 330,
            "midi": 62,
            "name": "D4",
            "ticks": 153975,
            "time": 173.395096875,
            "velocity": 0.7480314960629921
          },
          {
            "duration": 0.3603600000000142,
            "durationTicks": 320,
            "midi": 67,
            "name": "G4",
            "ticks": 153985,
            "time": 173.406358125,
            "velocity": 0.6771653543307087
          },
          {
            "duration": 0.3603600000000142,
            "durationTicks": 320,
            "midi": 58,
            "name": "A#3",
            "ticks": 154345,
            "time": 173.811763125,
            "velocity": 0.7244094488188977
          },
          {
            "duration": 0.349098749999996,
            "durationTicks": 310,
            "midi": 62,
            "name": "D4",
            "ticks": 154355,
            "time": 173.82302437500002,
            "velocity": 0.6929133858267716
          },
          {
            "duration": 0.33783750000000623,
            "durationTicks": 300,
            "midi": 67,
            "name": "G4",
            "ticks": 154365,
            "time": 173.834285625,
            "velocity": 0.6850393700787402
          },
          {
            "duration": 0.24774749999997425,
            "durationTicks": 220,
            "midi": 58,
            "name": "A#3",
            "ticks": 154695,
            "time": 174.205906875,
            "velocity": 0.7165354330708661
          },
          {
            "duration": 0.23648624999998447,
            "durationTicks": 210,
            "midi": 62,
            "name": "D4",
            "ticks": 154705,
            "time": 174.217168125,
            "velocity": 0.7086614173228346
          },
          {
            "duration": 0.22522499999996626,
            "durationTicks": 200,
            "midi": 67,
            "name": "G4",
            "ticks": 154715,
            "time": 174.22842937500002,
            "velocity": 0.7086614173228346
          },
          {
            "duration": 0.022522500000036416,
            "durationTicks": 20,
            "midi": 67,
            "name": "G4",
            "ticks": 154935,
            "time": 174.476176875,
            "velocity": 0.49606299212598426
          },
          {
            "duration": 0.01126125000004663,
            "durationTicks": 10,
            "midi": 62,
            "name": "D4",
            "ticks": 154945,
            "time": 174.48743812499998,
            "velocity": 0.5905511811023622
          },
          {
            "duration": 0.011261249999989786,
            "durationTicks": 10,
            "midi": 58,
            "name": "A#3",
            "ticks": 154955,
            "time": 174.49869937500003,
            "velocity": 0.6692913385826772
          },
          {
            "duration": 0.10135124999999334,
            "durationTicks": 90,
            "midi": 58,
            "name": "A#3",
            "ticks": 155025,
            "time": 174.57752812500001,
            "velocity": 0.7322834645669292
          },
          {
            "duration": 0.09009000000000356,
            "durationTicks": 80,
            "midi": 62,
            "name": "D4",
            "ticks": 155035,
            "time": 174.588789375,
            "velocity": 0.7480314960629921
          },
          {
            "duration": 0.07882874999998535,
            "durationTicks": 70,
            "midi": 67,
            "name": "G4",
            "ticks": 155045,
            "time": 174.60005062500002,
            "velocity": 0.7480314960629921
          },
          {
            "duration": 0.056306250000005775,
            "durationTicks": 50,
            "midi": 58,
            "name": "A#3",
            "ticks": 155275,
            "time": 174.859059375,
            "velocity": 0.7874015748031497
          },
          {
            "duration": 0.04504499999998757,
            "durationTicks": 40,
            "midi": 62,
            "name": "D4",
            "ticks": 155280,
            "time": 174.86469,
            "velocity": 0.7716535433070866
          },
          {
            "duration": 0.03378374999999778,
            "durationTicks": 30,
            "midi": 67,
            "name": "G4",
            "ticks": 155285,
            "time": 174.870320625,
            "velocity": 0.7952755905511811
          },
          {
            "duration": 0.056306250000005775,
            "durationTicks": 50,
            "midi": 57,
            "name": "A3",
            "ticks": 155515,
            "time": 175.129329375,
            "velocity": 0.6299212598425197
          },
          {
            "duration": 0.04504499999998757,
            "durationTicks": 40,
            "midi": 60,
            "name": "C4",
            "ticks": 155525,
            "time": 175.14059062500002,
            "velocity": 0.5511811023622047
          },
          {
            "duration": 0.03378374999999778,
            "durationTicks": 30,
            "midi": 66,
            "name": "F#4",
            "ticks": 155535,
            "time": 175.151851875,
            "velocity": 0.3700787401574803
          },
          {
            "duration": 0.056306250000005775,
            "durationTicks": 50,
            "midi": 57,
            "name": "A3",
            "ticks": 155755,
            "time": 175.399599375,
            "velocity": 0.7874015748031497
          },
          {
            "duration": 0.04504499999998757,
            "durationTicks": 40,
            "midi": 60,
            "name": "C4",
            "ticks": 155765,
            "time": 175.41086062500003,
            "velocity": 0.7086614173228346
          },
          {
            "duration": 0.03378374999999778,
            "durationTicks": 30,
            "midi": 66,
            "name": "F#4",
            "ticks": 155775,
            "time": 175.42212187500002,
            "velocity": 0.5275590551181102
          },
          {
            "duration": 0.056306250000005775,
            "durationTicks": 50,
            "midi": 57,
            "name": "A3",
            "ticks": 155995,
            "time": 175.669869375,
            "velocity": 0.6299212598425197
          },
          {
            "duration": 0.04504499999998757,
            "durationTicks": 40,
            "midi": 60,
            "name": "C4",
            "ticks": 156005,
            "time": 175.681130625,
            "velocity": 0.5511811023622047
          },
          {
            "duration": 0.03378374999999778,
            "durationTicks": 30,
            "midi": 66,
            "name": "F#4",
            "ticks": 156015,
            "time": 175.692391875,
            "velocity": 0.3700787401574803
          },
          {
            "duration": 0.15765749999999912,
            "durationTicks": 140,
            "midi": 57,
            "name": "A3",
            "ticks": 156235,
            "time": 175.940139375,
            "velocity": 0.7874015748031497
          },
          {
            "duration": 0.1463962499999809,
            "durationTicks": 130,
            "midi": 60,
            "name": "C4",
            "ticks": 156245,
            "time": 175.95140062500002,
            "velocity": 0.7086614173228346
          },
          {
            "duration": 0.13513499999999112,
            "durationTicks": 120,
            "midi": 66,
            "name": "F#4",
            "ticks": 156255,
            "time": 175.962661875,
            "velocity": 0.5275590551181102
          },
          {
            "duration": 0.056306249999977354,
            "durationTicks": 50,
            "midi": 66,
            "name": "F#4",
            "ticks": 156395,
            "time": 176.120319375,
            "velocity": 0.44881889763779526
          },
          {
            "duration": 0.04504499999998757,
            "durationTicks": 40,
            "midi": 60,
            "name": "C4",
            "ticks": 156405,
            "time": 176.131580625,
            "velocity": 0.5511811023622047
          },
          {
            "duration": 0.03378374999999778,
            "durationTicks": 30,
            "midi": 57,
            "name": "A3",
            "ticks": 156415,
            "time": 176.142841875,
            "velocity": 0.7086614173228346
          },
          {
            "duration": 0.0563062500000342,
            "durationTicks": 50,
            "midi": 58,
            "name": "A#3",
            "ticks": 156475,
            "time": 176.21040937499998,
            "velocity": 0.6299212598425197
          },
          {
            "duration": 0.04504499999998757,
            "durationTicks": 40,
            "midi": 63,
            "name": "D#4",
            "ticks": 156485,
            "time": 176.22167062500003,
            "velocity": 0.5511811023622047
          },
          {
            "duration": 0.03378374999999778,
            "durationTicks": 30,
            "midi": 67,
            "name": "G4",
            "ticks": 156495,
            "time": 176.23293187500002,
            "velocity": 0.44881889763779526
          },
          {
            "duration": 0.056306250000005775,
            "durationTicks": 50,
            "midi": 58,
            "name": "A#3",
            "ticks": 156715,
            "time": 176.480679375,
            "velocity": 0.7874015748031497
          },
          {
            "duration": 0.04504499999998757,
            "durationTicks": 40,
            "midi": 63,
            "name": "D#4",
            "ticks": 156725,
            "time": 176.491940625,
            "velocity": 0.7086614173228346
          },
          {
            "duration": 0.03378374999999778,
            "durationTicks": 30,
            "midi": 67,
            "name": "G4",
            "ticks": 156735,
            "time": 176.503201875,
            "velocity": 0.5275590551181102
          },
          {
            "duration": 0.056306250000005775,
            "durationTicks": 50,
            "midi": 58,
            "name": "A#3",
            "ticks": 156955,
            "time": 176.750949375,
            "velocity": 0.6299212598425197
          },
          {
            "duration": 0.04504499999998757,
            "durationTicks": 40,
            "midi": 63,
            "name": "D#4",
            "ticks": 156965,
            "time": 176.76221062500002,
            "velocity": 0.5511811023622047
          },
          {
            "duration": 0.03378374999999778,
            "durationTicks": 30,
            "midi": 67,
            "name": "G4",
            "ticks": 156975,
            "time": 176.773471875,
            "velocity": 0.44881889763779526
          },
          {
            "duration": 0.15765750000002754,
            "durationTicks": 140,
            "midi": 58,
            "name": "A#3",
            "ticks": 157195,
            "time": 177.021219375,
            "velocity": 0.7874015748031497
          },
          {
            "duration": 0.14639625000000933,
            "durationTicks": 130,
            "midi": 63,
            "name": "D#4",
            "ticks": 157205,
            "time": 177.032480625,
            "velocity": 0.7086614173228346
          },
          {
            "duration": 0.13513500000001955,
            "durationTicks": 120,
            "midi": 67,
            "name": "G4",
            "ticks": 157215,
            "time": 177.043741875,
            "velocity": 0.5275590551181102
          },
          {
            "duration": 0.056306249999977354,
            "durationTicks": 50,
            "midi": 67,
            "name": "G4",
            "ticks": 157355,
            "time": 177.20139937500002,
            "velocity": 0.44881889763779526
          },
          {
            "duration": 0.04504499999998757,
            "durationTicks": 40,
            "midi": 63,
            "name": "D#4",
            "ticks": 157365,
            "time": 177.212660625,
            "velocity": 0.5511811023622047
          },
          {
            "duration": 0.03378374999999778,
            "durationTicks": 30,
            "midi": 58,
            "name": "A#3",
            "ticks": 157375,
            "time": 177.223921875,
            "velocity": 0.7086614173228346
          },
          {
            "duration": 0.056306250000005775,
            "durationTicks": 50,
            "midi": 57,
            "name": "A3",
            "ticks": 157435,
            "time": 177.291489375,
            "velocity": 0.7874015748031497
          },
          {
            "duration": 0.04504499999998757,
            "durationTicks": 40,
            "midi": 60,
            "name": "C4",
            "ticks": 157440,
            "time": 177.29712,
            "velocity": 0.7874015748031497
          },
          {
            "duration": 0.03378374999999778,
            "durationTicks": 30,
            "midi": 66,
            "name": "F#4",
            "ticks": 157445,
            "time": 177.30275062500002,
            "velocity": 0.7637795275590551
          },
          {
            "duration": 0.8671162499999809,
            "durationTicks": 770,
            "midi": 54,
            "name": "F#3",
            "ticks": 157925,
            "time": 177.843290625,
            "velocity": 0.8818897637795275
          },
          {
            "duration": 0.8558550000000196,
            "durationTicks": 760,
            "midi": 60,
            "name": "C4",
            "ticks": 157930,
            "time": 177.84892125,
            "velocity": 0.8818897637795275
          },
          {
            "duration": 0.8558549999999912,
            "durationTicks": 760,
            "midi": 65,
            "name": "F4",
            "ticks": 157935,
            "time": 177.854551875,
            "velocity": 0.8503937007874016
          },
          {
            "duration": 0.2477475000000311,
            "durationTicks": 220,
            "midi": 43,
            "name": "G2",
            "ticks": 159355,
            "time": 179.453649375,
            "velocity": 0.41732283464566927
          },
          {
            "duration": 0.2364862500000129,
            "durationTicks": 210,
            "midi": 50,
            "name": "D3",
            "ticks": 159365,
            "time": 179.46491062500002,
            "velocity": 0.3779527559055118
          },
          {
            "duration": 0.04504500000001599,
            "durationTicks": 40,
            "midi": 58,
            "name": "A#3",
            "ticks": 159595,
            "time": 179.723919375,
            "velocity": 0.7322834645669292
          },
          {
            "duration": 0.03378374999999778,
            "durationTicks": 30,
            "midi": 62,
            "name": "D4",
            "ticks": 159600,
            "time": 179.72955000000002,
            "velocity": 0.7165354330708661
          },
          {
            "duration": 0.022522499999979573,
            "durationTicks": 20,
            "midi": 67,
            "name": "G4",
            "ticks": 159605,
            "time": 179.73518062500003,
            "velocity": 0.7165354330708661
          },
          {
            "duration": 0.011261249999989786,
            "durationTicks": 10,
            "midi": 67,
            "name": "G4",
            "ticks": 159755,
            "time": 179.90409937500002,
            "velocity": 0.4409448818897638
          },
          {
            "duration": 0.011261250000018208,
            "durationTicks": 10,
            "midi": 62,
            "name": "D4",
            "ticks": 159760,
            "time": 179.90973,
            "velocity": 0.4409448818897638
          },
          {
            "duration": 0.011261249999989786,
            "durationTicks": 10,
            "midi": 58,
            "name": "A#3",
            "ticks": 159765,
            "time": 179.915360625,
            "velocity": 0.4566929133858268
          },
          {
            "duration": 0.2477475000000311,
            "durationTicks": 220,
            "midi": 43,
            "name": "G2",
            "ticks": 159835,
            "time": 179.994189375,
            "velocity": 0.41732283464566927
          },
          {
            "duration": 0.2364862500000129,
            "durationTicks": 210,
            "midi": 50,
            "name": "D3",
            "ticks": 159845,
            "time": 180.005450625,
            "velocity": 0.3779527559055118
          },
          {
            "duration": 0.09009000000000356,
            "durationTicks": 80,
            "midi": 58,
            "name": "A#3",
            "ticks": 160075,
            "time": 180.264459375,
            "velocity": 0.7322834645669292
          },
          {
            "duration": 0.07882874999998535,
            "durationTicks": 70,
            "midi": 62,
            "name": "D4",
            "ticks": 160085,
            "time": 180.27572062500002,
            "velocity": 0.7165354330708661
          },
          {
            "duration": 0.06756749999999556,
            "durationTicks": 60,
            "midi": 67,
            "name": "G4",
            "ticks": 160095,
            "time": 180.286981875,
            "velocity": 0.7165354330708661
          },
          {
            "duration": 0.2477475000000311,
            "durationTicks": 220,
            "midi": 43,
            "name": "G2",
            "ticks": 160315,
            "time": 180.53472937499998,
            "velocity": 0.41732283464566927
          },
          {
            "duration": 0.23648624999998447,
            "durationTicks": 210,
            "midi": 50,
            "name": "D3",
            "ticks": 160325,
            "time": 180.54599062500003,
            "velocity": 0.3779527559055118
          },
          {
            "duration": 0.04504500000001599,
            "durationTicks": 40,
            "midi": 58,
            "name": "A#3",
            "ticks": 160555,
            "time": 180.804999375,
            "velocity": 0.7322834645669292
          },
          {
            "duration": 0.03378374999999778,
            "durationTicks": 30,
            "midi": 62,
            "name": "D4",
            "ticks": 160560,
            "time": 180.81063,
            "velocity": 0.7165354330708661
          },
          {
            "duration": 0.022522499999979573,
            "durationTicks": 20,
            "midi": 67,
            "name": "G4",
            "ticks": 160565,
            "time": 180.816260625,
            "velocity": 0.7165354330708661
          },
          {
            "duration": 0.011261249999989786,
            "durationTicks": 10,
            "midi": 67,
            "name": "G4",
            "ticks": 160715,
            "time": 180.98517937500003,
            "velocity": 0.4409448818897638
          },
          {
            "duration": 0.011261250000018208,
            "durationTicks": 10,
            "midi": 62,
            "name": "D4",
            "ticks": 160720,
            "time": 180.99081,
            "velocity": 0.4409448818897638
          },
          {
            "duration": 0.011261249999989786,
            "durationTicks": 10,
            "midi": 58,
            "name": "A#3",
            "ticks": 160725,
            "time": 180.99644062500002,
            "velocity": 0.4566929133858268
          },
          {
            "duration": 0.24774750000000267,
            "durationTicks": 220,
            "midi": 43,
            "name": "G2",
            "ticks": 160795,
            "time": 181.075269375,
            "velocity": 0.41732283464566927
          },
          {
            "duration": 0.23648624999998447,
            "durationTicks": 210,
            "midi": 50,
            "name": "D3",
            "ticks": 160805,
            "time": 181.08653062500002,
            "velocity": 0.3779527559055118
          },
          {
            "duration": 0.09009000000003198,
            "durationTicks": 80,
            "midi": 58,
            "name": "A#3",
            "ticks": 161035,
            "time": 181.345539375,
            "velocity": 0.7322834645669292
          },
          {
            "duration": 0.07882875000001377,
            "durationTicks": 70,
            "midi": 62,
            "name": "D4",
            "ticks": 161040,
            "time": 181.35117,
            "velocity": 0.7165354330708661
          },
          {
            "duration": 0.06756750000002398,
            "durationTicks": 60,
            "midi": 67,
            "name": "G4",
            "ticks": 161045,
            "time": 181.356800625,
            "velocity": 0.7165354330708661
          },
          {
            "duration": 0.2477475000000311,
            "durationTicks": 220,
            "midi": 46,
            "name": "A#2",
            "ticks": 161275,
            "time": 181.615809375,
            "velocity": 0.41732283464566927
          },
          {
            "duration": 0.2364862500000129,
            "durationTicks": 210,
            "midi": 53,
            "name": "F3",
            "ticks": 161285,
            "time": 181.62707062500002,
            "velocity": 0.3779527559055118
          },
          {
            "duration": 0.04504500000001599,
            "durationTicks": 40,
            "midi": 56,
            "name": "G#3",
            "ticks": 161515,
            "time": 181.886079375,
            "velocity": 0.6535433070866141
          },
          {
            "duration": 0.03378374999999778,
            "durationTicks": 30,
            "midi": 62,
            "name": "D4",
            "ticks": 161520,
            "time": 181.89171000000002,
            "velocity": 0.7165354330708661
          },
          {
            "duration": 0.022522499999979573,
            "durationTicks": 20,
            "midi": 65,
            "name": "F4",
            "ticks": 161525,
            "time": 181.89734062500003,
            "velocity": 0.7165354330708661
          },
          {
            "duration": 0.011261249999989786,
            "durationTicks": 10,
            "midi": 65,
            "name": "F4",
            "ticks": 161675,
            "time": 182.06625937500002,
            "velocity": 0.4409448818897638
          },
          {
            "duration": 0.011261250000018208,
            "durationTicks": 10,
            "midi": 62,
            "name": "D4",
            "ticks": 161680,
            "time": 182.07189,
            "velocity": 0.4409448818897638
          },
          {
            "duration": 0.011261249999989786,
            "durationTicks": 10,
            "midi": 56,
            "name": "G#3",
            "ticks": 161685,
            "time": 182.077520625,
            "velocity": 0.3779527559055118
          },
          {
            "duration": 0.2477475000000311,
            "durationTicks": 220,
            "midi": 46,
            "name": "A#2",
            "ticks": 161755,
            "time": 182.156349375,
            "velocity": 0.41732283464566927
          },
          {
            "duration": 0.2364862500000129,
            "durationTicks": 210,
            "midi": 53,
            "name": "F3",
            "ticks": 161765,
            "time": 182.167610625,
            "velocity": 0.3779527559055118
          },
          {
            "duration": 0.09009000000000356,
            "durationTicks": 80,
            "midi": 56,
            "name": "G#3",
            "ticks": 161995,
            "time": 182.426619375,
            "velocity": 0.6535433070866141
          },
          {
            "duration": 0.07882874999998535,
            "durationTicks": 70,
            "midi": 62,
            "name": "D4",
            "ticks": 162005,
            "time": 182.43788062500002,
            "velocity": 0.7165354330708661
          },
          {
            "duration": 0.06756749999999556,
            "durationTicks": 60,
            "midi": 65,
            "name": "F4",
            "ticks": 162015,
            "time": 182.449141875,
            "velocity": 0.7165354330708661
          },
          {
            "duration": 0.2477475000000311,
            "durationTicks": 220,
            "midi": 46,
            "name": "A#2",
            "ticks": 162235,
            "time": 182.69688937499998,
            "velocity": 0.41732283464566927
          },
          {
            "duration": 0.23648624999998447,
            "durationTicks": 210,
            "midi": 53,
            "name": "F3",
            "ticks": 162245,
            "time": 182.70815062500003,
            "velocity": 0.3779527559055118
          },
          {
            "duration": 0.04504500000001599,
            "durationTicks": 40,
            "midi": 56,
            "name": "G#3",
            "ticks": 162475,
            "time": 182.967159375,
            "velocity": 0.6535433070866141
          },
          {
            "duration": 0.03378374999999778,
            "durationTicks": 30,
            "midi": 62,
            "name": "D4",
            "ticks": 162480,
            "time": 182.97279,
            "velocity": 0.7165354330708661
          },
          {
            "duration": 0.022522499999979573,
            "durationTicks": 20,
            "midi": 65,
            "name": "F4",
            "ticks": 162485,
            "time": 182.978420625,
            "velocity": 0.7165354330708661
          },
          {
            "duration": 0.011261249999989786,
            "durationTicks": 10,
            "midi": 65,
            "name": "F4",
            "ticks": 162635,
            "time": 183.14733937500003,
            "velocity": 0.4409448818897638
          },
          {
            "duration": 0.011261250000018208,
            "durationTicks": 10,
            "midi": 62,
            "name": "D4",
            "ticks": 162640,
            "time": 183.15297,
            "velocity": 0.4409448818897638
          },
          {
            "duration": 0.011261249999989786,
            "durationTicks": 10,
            "midi": 56,
            "name": "G#3",
            "ticks": 162645,
            "time": 183.15860062500002,
            "velocity": 0.3779527559055118
          },
          {
            "duration": 0.24774750000000267,
            "durationTicks": 220,
            "midi": 46,
            "name": "A#2",
            "ticks": 162715,
            "time": 183.237429375,
            "velocity": 0.41732283464566927
          },
          {
            "duration": 0.23648624999998447,
            "durationTicks": 210,
            "midi": 53,
            "name": "F3",
            "ticks": 162725,
            "time": 183.24869062500002,
            "velocity": 0.3779527559055118
          },
          {
            "duration": 0.09009000000003198,
            "durationTicks": 80,
            "midi": 56,
            "name": "G#3",
            "ticks": 162955,
            "time": 183.507699375,
            "velocity": 0.6535433070866141
          },
          {
            "duration": 0.07882875000001377,
            "durationTicks": 70,
            "midi": 62,
            "name": "D4",
            "ticks": 162960,
            "time": 183.51333,
            "velocity": 0.7165354330708661
          },
          {
            "duration": 0.06756750000002398,
            "durationTicks": 60,
            "midi": 65,
            "name": "F4",
            "ticks": 162965,
            "time": 183.518960625,
            "velocity": 0.7165354330708661
          },
          {
            "duration": 0.2477475000000311,
            "durationTicks": 220,
            "midi": 51,
            "name": "D#3",
            "ticks": 163195,
            "time": 183.777969375,
            "velocity": 0.41732283464566927
          },
          {
            "duration": 0.2364862500000129,
            "durationTicks": 210,
            "midi": 58,
            "name": "A#3",
            "ticks": 163205,
            "time": 183.78923062500002,
            "velocity": 0.3779527559055118
          },
          {
            "duration": 0.04504500000001599,
            "durationTicks": 40,
            "midi": 58,
            "name": "A#3",
            "ticks": 163435,
            "time": 184.048239375,
            "velocity": 0.6535433070866141
          },
          {
            "duration": 0.03378374999999778,
            "durationTicks": 30,
            "midi": 62,
            "name": "D4",
            "ticks": 163440,
            "time": 184.05387000000002,
            "velocity": 0.7165354330708661
          },
          {
            "duration": 0.022522499999979573,
            "durationTicks": 20,
            "midi": 67,
            "name": "G4",
            "ticks": 163445,
            "time": 184.05950062500003,
            "velocity": 0.7165354330708661
          },
          {
            "duration": 0.011261249999989786,
            "durationTicks": 10,
            "midi": 67,
            "name": "G4",
            "ticks": 163595,
            "time": 184.22841937500002,
            "velocity": 0.4409448818897638
          },
          {
            "duration": 0.011261250000018208,
            "durationTicks": 10,
            "midi": 62,
            "name": "D4",
            "ticks": 163600,
            "time": 184.23405,
            "velocity": 0.4409448818897638
          },
          {
            "duration": 0.011261249999989786,
            "durationTicks": 10,
            "midi": 58,
            "name": "A#3",
            "ticks": 163605,
            "time": 184.239680625,
            "velocity": 0.3779527559055118
          },
          {
            "duration": 0.2477475000000311,
            "durationTicks": 220,
            "midi": 51,
            "name": "D#3",
            "ticks": 163675,
            "time": 184.318509375,
            "velocity": 0.41732283464566927
          },
          {
            "duration": 0.2364862500000129,
            "durationTicks": 210,
            "midi": 58,
            "name": "A#3",
            "ticks": 163685,
            "time": 184.329770625,
            "velocity": 0.3779527559055118
          },
          {
            "duration": 0.09009000000000356,
            "durationTicks": 80,
            "midi": 58,
            "name": "A#3",
            "ticks": 163915,
            "time": 184.588779375,
            "velocity": 0.6535433070866141
          },
          {
            "duration": 0.07882874999998535,
            "durationTicks": 70,
            "midi": 62,
            "name": "D4",
            "ticks": 163925,
            "time": 184.60004062500002,
            "velocity": 0.7165354330708661
          },
          {
            "duration": 0.06756749999999556,
            "durationTicks": 60,
            "midi": 67,
            "name": "G4",
            "ticks": 163935,
            "time": 184.611301875,
            "velocity": 0.7165354330708661
          },
          {
            "duration": 0.2477475000000311,
            "durationTicks": 220,
            "midi": 51,
            "name": "D#3",
            "ticks": 164155,
            "time": 184.85904937499998,
            "velocity": 0.41732283464566927
          },
          {
            "duration": 0.23648624999998447,
            "durationTicks": 210,
            "midi": 58,
            "name": "A#3",
            "ticks": 164165,
            "time": 184.87031062500003,
            "velocity": 0.3779527559055118
          },
          {
            "duration": 0.04504500000001599,
            "durationTicks": 40,
            "midi": 58,
            "name": "A#3",
            "ticks": 164395,
            "time": 185.129319375,
            "velocity": 0.6535433070866141
          },
          {
            "duration": 0.03378374999999778,
            "durationTicks": 30,
            "midi": 62,
            "name": "D4",
            "ticks": 164400,
            "time": 185.13495,
            "velocity": 0.7165354330708661
          },
          {
            "duration": 0.022522499999979573,
            "durationTicks": 20,
            "midi": 67,
            "name": "G4",
            "ticks": 164405,
            "time": 185.140580625,
            "velocity": 0.7165354330708661
          },
          {
            "duration": 0.011261249999989786,
            "durationTicks": 10,
            "midi": 67,
            "name": "G4",
            "ticks": 164555,
            "time": 185.30949937500003,
            "velocity": 0.4409448818897638
          },
          {
            "duration": 0.011261250000018208,
            "durationTicks": 10,
            "midi": 62,
            "name": "D4",
            "ticks": 164560,
            "time": 185.31513,
            "velocity": 0.4409448818897638
          },
          {
            "duration": 0.011261249999989786,
            "durationTicks": 10,
            "midi": 58,
            "name": "A#3",
            "ticks": 164565,
            "time": 185.32076062500002,
            "velocity": 0.3779527559055118
          },
          {
            "duration": 0.24774750000000267,
            "durationTicks": 220,
            "midi": 51,
            "name": "D#3",
            "ticks": 164635,
            "time": 185.399589375,
            "velocity": 0.41732283464566927
          },
          {
            "duration": 0.23648624999998447,
            "durationTicks": 210,
            "midi": 58,
            "name": "A#3",
            "ticks": 164645,
            "time": 185.41085062500002,
            "velocity": 0.3779527559055118
          },
          {
            "duration": 0.09009000000003198,
            "durationTicks": 80,
            "midi": 58,
            "name": "A#3",
            "ticks": 164875,
            "time": 185.669859375,
            "velocity": 0.6535433070866141
          },
          {
            "duration": 0.07882875000001377,
            "durationTicks": 70,
            "midi": 62,
            "name": "D4",
            "ticks": 164880,
            "time": 185.67549,
            "velocity": 0.7165354330708661
          },
          {
            "duration": 0.06756750000002398,
            "durationTicks": 60,
            "midi": 67,
            "name": "G4",
            "ticks": 164885,
            "time": 185.681120625,
            "velocity": 0.7165354330708661
          },
          {
            "duration": 0.2477475000000311,
            "durationTicks": 220,
            "midi": 50,
            "name": "D3",
            "ticks": 165115,
            "time": 185.940129375,
            "velocity": 0.41732283464566927
          },
          {
            "duration": 0.2364862500000129,
            "durationTicks": 210,
            "midi": 57,
            "name": "A3",
            "ticks": 165125,
            "time": 185.95139062500002,
            "velocity": 0.3779527559055118
          },
          {
            "duration": 0.04504500000001599,
            "durationTicks": 40,
            "midi": 57,
            "name": "A3",
            "ticks": 165355,
            "time": 186.210399375,
            "velocity": 0.6535433070866141
          },
          {
            "duration": 0.03378374999999778,
            "durationTicks": 30,
            "midi": 60,
            "name": "C4",
            "ticks": 165360,
            "time": 186.21603000000002,
            "velocity": 0.7165354330708661
          },
          {
            "duration": 0.022522499999979573,
            "durationTicks": 20,
            "midi": 67,
            "name": "G4",
            "ticks": 165365,
            "time": 186.22166062500003,
            "velocity": 0.7165354330708661
          },
          {
            "duration": 0.011261249999989786,
            "durationTicks": 10,
            "midi": 67,
            "name": "G4",
            "ticks": 165515,
            "time": 186.39057937500002,
            "velocity": 0.4409448818897638
          },
          {
            "duration": 0.011261250000018208,
            "durationTicks": 10,
            "midi": 60,
            "name": "C4",
            "ticks": 165520,
            "time": 186.39621,
            "velocity": 0.4409448818897638
          },
          {
            "duration": 0.011261249999989786,
            "durationTicks": 10,
            "midi": 57,
            "name": "A3",
            "ticks": 165525,
            "time": 186.401840625,
            "velocity": 0.3779527559055118
          },
          {
            "duration": 0.2477475000000311,
            "durationTicks": 220,
            "midi": 50,
            "name": "D3",
            "ticks": 165595,
            "time": 186.480669375,
            "velocity": 0.49606299212598426
          },
          {
            "duration": 0.2364862500000129,
            "durationTicks": 210,
            "midi": 57,
            "name": "A3",
            "ticks": 165605,
            "time": 186.491930625,
            "velocity": 0.4566929133858268
          },
          {
            "duration": 0.09009000000000356,
            "durationTicks": 80,
            "midi": 57,
            "name": "A3",
            "ticks": 165835,
            "time": 186.750939375,
            "velocity": 0.6535433070866141
          },
          {
            "duration": 0.07882874999998535,
            "durationTicks": 70,
            "midi": 60,
            "name": "C4",
            "ticks": 165845,
            "time": 186.76220062500002,
            "velocity": 0.7165354330708661
          },
          {
            "duration": 0.06756749999999556,
            "durationTicks": 60,
            "midi": 67,
            "name": "G4",
            "ticks": 165855,
            "time": 186.773461875,
            "velocity": 0.7165354330708661
          },
          {
            "duration": 0.2477475000000311,
            "durationTicks": 220,
            "midi": 50,
            "name": "D3",
            "ticks": 166075,
            "time": 187.02120937499998,
            "velocity": 0.5354330708661418
          },
          {
            "duration": 0.23648624999998447,
            "durationTicks": 210,
            "midi": 57,
            "name": "A3",
            "ticks": 166085,
            "time": 187.03247062500003,
            "velocity": 0.49606299212598426
          },
          {
            "duration": 0.04504500000001599,
            "durationTicks": 40,
            "midi": 57,
            "name": "A3",
            "ticks": 166315,
            "time": 187.291479375,
            "velocity": 0.6535433070866141
          },
          {
            "duration": 0.03378374999999778,
            "durationTicks": 30,
            "midi": 60,
            "name": "C4",
            "ticks": 166320,
            "time": 187.29711,
            "velocity": 0.7165354330708661
          },
          {
            "duration": 0.022522499999979573,
            "durationTicks": 20,
            "midi": 66,
            "name": "F#4",
            "ticks": 166325,
            "time": 187.302740625,
            "velocity": 0.7165354330708661
          },
          {
            "duration": 0.011261249999989786,
            "durationTicks": 10,
            "midi": 66,
            "name": "F#4",
            "ticks": 166475,
            "time": 187.47165937500003,
            "velocity": 0.5984251968503937
          },
          {
            "duration": 0.011261250000018208,
            "durationTicks": 10,
            "midi": 60,
            "name": "C4",
            "ticks": 166480,
            "time": 187.47729,
            "velocity": 0.5984251968503937
          },
          {
            "duration": 0.011261249999989786,
            "durationTicks": 10,
            "midi": 57,
            "name": "A3",
            "ticks": 166485,
            "time": 187.48292062500002,
            "velocity": 0.5354330708661418
          },
          {
            "duration": 0.24774750000000267,
            "durationTicks": 220,
            "midi": 50,
            "name": "D3",
            "ticks": 166555,
            "time": 187.561749375,
            "velocity": 0.5748031496062992
          },
          {
            "duration": 0.23648624999998447,
            "durationTicks": 210,
            "midi": 57,
            "name": "A3",
            "ticks": 166565,
            "time": 187.57301062500002,
            "velocity": 0.5354330708661418
          },
          {
            "duration": 0.09009000000003198,
            "durationTicks": 80,
            "midi": 57,
            "name": "A3",
            "ticks": 166795,
            "time": 187.832019375,
            "velocity": 0.6535433070866141
          },
          {
            "duration": 0.07882875000001377,
            "durationTicks": 70,
            "midi": 60,
            "name": "C4",
            "ticks": 166800,
            "time": 187.83765,
            "velocity": 0.7165354330708661
          },
          {
            "duration": 0.06756750000002398,
            "durationTicks": 60,
            "midi": 66,
            "name": "F#4",
            "ticks": 166805,
            "time": 187.843280625,
            "velocity": 0.7165354330708661
          },
          {
            "duration": 0.2477475000000311,
            "durationTicks": 220,
            "midi": 55,
            "name": "G3",
            "ticks": 167035,
            "time": 188.102289375,
            "velocity": 0.6377952755905512
          },
          {
            "duration": 0.24774750000000267,
            "durationTicks": 220,
            "midi": 58,
            "name": "A#3",
            "ticks": 167040,
            "time": 188.10792,
            "velocity": 0.6377952755905512
          },
          {
            "duration": 0.2364862500000129,
            "durationTicks": 210,
            "midi": 62,
            "name": "D4",
            "ticks": 167045,
            "time": 188.11355062500002,
            "velocity": 0.5984251968503937
          },
          {
            "duration": 0.04504500000001599,
            "durationTicks": 40,
            "midi": 58,
            "name": "A#3",
            "ticks": 167275,
            "time": 188.372559375,
            "velocity": 0.7165354330708661
          },
          {
            "duration": 0.03378374999999778,
            "durationTicks": 30,
            "midi": 62,
            "name": "D4",
            "ticks": 167280,
            "time": 188.37819000000002,
            "velocity": 0.7007874015748031
          },
          {
            "duration": 0.022522499999979573,
            "durationTicks": 20,
            "midi": 67,
            "name": "G4",
            "ticks": 167285,
            "time": 188.38382062500003,
            "velocity": 0.7007874015748031
          },
          {
            "duration": 0.011261249999989786,
            "durationTicks": 10,
            "midi": 67,
            "name": "G4",
            "ticks": 167435,
            "time": 188.55273937500002,
            "velocity": 0.4251968503937008
          },
          {
            "duration": 0.011261250000018208,
            "durationTicks": 10,
            "midi": 62,
            "name": "D4",
            "ticks": 167440,
            "time": 188.55837,
            "velocity": 0.4251968503937008
          },
          {
            "duration": 0.011261249999989786,
            "durationTicks": 10,
            "midi": 58,
            "name": "A#3",
            "ticks": 167445,
            "time": 188.564000625,
            "velocity": 0.4409448818897638
          },
          {
            "duration": 0.2477475000000311,
            "durationTicks": 220,
            "midi": 55,
            "name": "G3",
            "ticks": 167515,
            "time": 188.642829375,
            "velocity": 0.5984251968503937
          },
          {
            "duration": 0.24774750000000267,
            "durationTicks": 220,
            "midi": 58,
            "name": "A#3",
            "ticks": 167520,
            "time": 188.64846,
            "velocity": 0.5984251968503937
          },
          {
            "duration": 0.2364862500000129,
            "durationTicks": 210,
            "midi": 62,
            "name": "D4",
            "ticks": 167525,
            "time": 188.654090625,
            "velocity": 0.5590551181102362
          },
          {
            "duration": 0.1689187499999889,
            "durationTicks": 150,
            "midi": 58,
            "name": "A#3",
            "ticks": 167755,
            "time": 188.913099375,
            "velocity": 0.5511811023622047
          },
          {
            "duration": 0.1689187499999889,
            "durationTicks": 150,
            "midi": 62,
            "name": "D4",
            "ticks": 167760,
            "time": 188.91873,
            "velocity": 0.5511811023622047
          },
          {
            "duration": 0.1576574999999707,
            "durationTicks": 140,
            "midi": 67,
            "name": "G4",
            "ticks": 167765,
            "time": 188.92436062500002,
            "velocity": 0.5433070866141733
          },
          {
            "duration": 0.056306249999977354,
            "durationTicks": 50,
            "midi": 67,
            "name": "G4",
            "ticks": 167915,
            "time": 189.093279375,
            "velocity": 0.6220472440944882
          },
          {
            "duration": 0.056306250000005775,
            "durationTicks": 50,
            "midi": 62,
            "name": "D4",
            "ticks": 167920,
            "time": 189.09891,
            "velocity": 0.6220472440944882
          },
          {
            "duration": 0.04504499999998757,
            "durationTicks": 40,
            "midi": 58,
            "name": "A#3",
            "ticks": 167925,
            "time": 189.104540625,
            "velocity": 0.6377952755905512
          },
          {
            "duration": 0.2477475000000311,
            "durationTicks": 220,
            "midi": 48,
            "name": "C3",
            "ticks": 167995,
            "time": 189.18336937499998,
            "velocity": 0.5984251968503937
          },
          {
            "duration": 0.24774749999997425,
            "durationTicks": 220,
            "midi": 55,
            "name": "G3",
            "ticks": 168000,
            "time": 189.18900000000002,
            "velocity": 0.5984251968503937
          },
          {
            "duration": 0.23648624999998447,
            "durationTicks": 210,
            "midi": 58,
            "name": "A#3",
            "ticks": 168005,
            "time": 189.19463062500003,
            "velocity": 0.5826771653543307
          },
          {
            "duration": 0.04504500000001599,
            "durationTicks": 40,
            "midi": 58,
            "name": "A#3",
            "ticks": 168235,
            "time": 189.453639375,
            "velocity": 0.6377952755905512
          },
          {
            "duration": 0.03378374999999778,
            "durationTicks": 30,
            "midi": 64,
            "name": "E4",
            "ticks": 168240,
            "time": 189.45927,
            "velocity": 0.7007874015748031
          },
          {
            "duration": 0.022522499999979573,
            "durationTicks": 20,
            "midi": 67,
            "name": "G4",
            "ticks": 168245,
            "time": 189.464900625,
            "velocity": 0.7007874015748031
          },
          {
            "duration": 0.011261249999989786,
            "durationTicks": 10,
            "midi": 67,
            "name": "G4",
            "ticks": 168395,
            "time": 189.63381937500003,
            "velocity": 0.4251968503937008
          },
          {
            "duration": 0.011261250000018208,
            "durationTicks": 10,
            "midi": 64,
            "name": "E4",
            "ticks": 168400,
            "time": 189.63945,
            "velocity": 0.4251968503937008
          },
          {
            "duration": 0.011261249999989786,
            "durationTicks": 10,
            "midi": 58,
            "name": "A#3",
            "ticks": 168405,
            "time": 189.64508062500002,
            "velocity": 0.36220472440944884
          },
          {
            "duration": 0.24774750000000267,
            "durationTicks": 220,
            "midi": 48,
            "name": "C3",
            "ticks": 168475,
            "time": 189.723909375,
            "velocity": 0.5984251968503937
          },
          {
            "duration": 0.24774749999997425,
            "durationTicks": 220,
            "midi": 55,
            "name": "G3",
            "ticks": 168480,
            "time": 189.72954000000001,
            "velocity": 0.5984251968503937
          },
          {
            "duration": 0.23648624999998447,
            "durationTicks": 210,
            "midi": 58,
            "name": "A#3",
            "ticks": 168485,
            "time": 189.73517062500002,
            "velocity": 0.5826771653543307
          },
          {
            "duration": 0.04504500000001599,
            "durationTicks": 40,
            "midi": 58,
            "name": "A#3",
            "ticks": 168715,
            "time": 189.994179375,
            "velocity": 0.7165354330708661
          },
          {
            "duration": 0.03378374999999778,
            "durationTicks": 30,
            "midi": 64,
            "name": "E4",
            "ticks": 168720,
            "time": 189.99981,
            "velocity": 0.7007874015748031
          },
          {
            "duration": 0.022522499999979573,
            "durationTicks": 20,
            "midi": 67,
            "name": "G4",
            "ticks": 168725,
            "time": 190.005440625,
            "velocity": 0.7007874015748031
          },
          {
            "duration": 0.27026999999998225,
            "durationTicks": 240,
            "midi": 48,
            "name": "C3",
            "ticks": 168875,
            "time": 190.17435937500002,
            "velocity": 0.6377952755905512
          },
          {
            "duration": 0.25900874999999246,
            "durationTicks": 230,
            "midi": 55,
            "name": "G3",
            "ticks": 168880,
            "time": 190.17999,
            "velocity": 0.6377952755905512
          },
          {
            "duration": 0.25900874999999246,
            "durationTicks": 230,
            "midi": 58,
            "name": "A#3",
            "ticks": 168885,
            "time": 190.185620625,
            "velocity": 0.6220472440944882
          },
          {
            "duration": 0.04504500000001599,
            "durationTicks": 40,
            "midi": 67,
            "name": "G4",
            "ticks": 169115,
            "time": 190.444629375,
            "velocity": 0.7401574803149606
          },
          {
            "duration": 0.04504500000004441,
            "durationTicks": 40,
            "midi": 63,
            "name": "D#4",
            "ticks": 169120,
            "time": 190.45026,
            "velocity": 0.7401574803149606
          },
          {
            "duration": 0.0337837500000262,
            "durationTicks": 30,
            "midi": 58,
            "name": "A#3",
            "ticks": 169125,
            "time": 190.455890625,
            "velocity": 0.7559055118110236
          },
          {
            "duration": 0.25900874999999246,
            "durationTicks": 230,
            "midi": 48,
            "name": "C3",
            "ticks": 169195,
            "time": 190.534719375,
            "velocity": 0.6377952755905512
          },
          {
            "duration": 0.24774749999997425,
            "durationTicks": 220,
            "midi": 55,
            "name": "G3",
            "ticks": 169200,
            "time": 190.54035000000002,
            "velocity": 0.6377952755905512
          },
          {
            "duration": 0.23648624999998447,
            "durationTicks": 210,
            "midi": 58,
            "name": "A#3",
            "ticks": 169205,
            "time": 190.54598062500003,
            "velocity": 0.6220472440944882
          },
          {
            "duration": 0.18018000000003553,
            "durationTicks": 160,
            "midi": 48,
            "name": "C3",
            "ticks": 169435,
            "time": 190.804989375,
            "velocity": 0.6377952755905512
          },
          {
            "duration": 0.16891875000001733,
            "durationTicks": 150,
            "midi": 55,
            "name": "G3",
            "ticks": 169440,
            "time": 190.81062,
            "velocity": 0.6377952755905512
          },
          {
            "duration": 0.16891875000001733,
            "durationTicks": 150,
            "midi": 58,
            "name": "A#3",
            "ticks": 169445,
            "time": 190.816250625,
            "velocity": 0.6220472440944882
          },
          {
            "duration": 0.04504500000001599,
            "durationTicks": 40,
            "midi": 58,
            "name": "A#3",
            "ticks": 169675,
            "time": 191.075259375,
            "velocity": 0.6377952755905512
          },
          {
            "duration": 0.03378374999999778,
            "durationTicks": 30,
            "midi": 63,
            "name": "D#4",
            "ticks": 169680,
            "time": 191.08089,
            "velocity": 0.7007874015748031
          },
          {
            "duration": 0.022522499999979573,
            "durationTicks": 20,
            "midi": 67,
            "name": "G4",
            "ticks": 169685,
            "time": 191.08652062500002,
            "velocity": 0.7007874015748031
          },
          {
            "duration": 0.011261249999989786,
            "durationTicks": 10,
            "midi": 67,
            "name": "G4",
            "ticks": 169835,
            "time": 191.255439375,
            "velocity": 0.48031496062992124
          },
          {
            "duration": 0.011261250000018208,
            "durationTicks": 10,
            "midi": 63,
            "name": "D#4",
            "ticks": 169840,
            "time": 191.26107,
            "velocity": 0.48031496062992124
          },
          {
            "duration": 0.011261249999989786,
            "durationTicks": 10,
            "midi": 58,
            "name": "A#3",
            "ticks": 169845,
            "time": 191.266700625,
            "velocity": 0.41732283464566927
          },
          {
            "duration": 0.2477475000000311,
            "durationTicks": 220,
            "midi": 46,
            "name": "A#2",
            "ticks": 169915,
            "time": 191.34552937499998,
            "velocity": 0.5354330708661418
          },
          {
            "duration": 0.23648624999998447,
            "durationTicks": 210,
            "midi": 53,
            "name": "F3",
            "ticks": 169925,
            "time": 191.35679062500003,
            "velocity": 0.49606299212598426
          },
          {
            "duration": 0.04504500000001599,
            "durationTicks": 40,
            "midi": 56,
            "name": "G#3",
            "ticks": 170155,
            "time": 191.615799375,
            "velocity": 0.6929133858267716
          },
          {
            "duration": 0.03378374999999778,
            "durationTicks": 30,
            "midi": 62,
            "name": "D4",
            "ticks": 170160,
            "time": 191.62143,
            "velocity": 0.7559055118110236
          },
          {
            "duration": 0.022522499999979573,
            "durationTicks": 20,
            "midi": 65,
            "name": "F4",
            "ticks": 170165,
            "time": 191.627060625,
            "velocity": 0.7559055118110236
          },
          {
            "duration": 0.011261249999989786,
            "durationTicks": 10,
            "midi": 65,
            "name": "F4",
            "ticks": 170315,
            "time": 191.79597937500003,
            "velocity": 0.48031496062992124
          },
          {
            "duration": 0.011261250000018208,
            "durationTicks": 10,
            "midi": 62,
            "name": "D4",
            "ticks": 170320,
            "time": 191.80161,
            "velocity": 0.48031496062992124
          },
          {
            "duration": 0.011261249999989786,
            "durationTicks": 10,
            "midi": 56,
            "name": "G#3",
            "ticks": 170325,
            "time": 191.80724062500002,
            "velocity": 0.41732283464566927
          },
          {
            "duration": 0.24774750000000267,
            "durationTicks": 220,
            "midi": 46,
            "name": "A#2",
            "ticks": 170395,
            "time": 191.886069375,
            "velocity": 0.5354330708661418
          },
          {
            "duration": 0.23648624999998447,
            "durationTicks": 210,
            "midi": 53,
            "name": "F3",
            "ticks": 170405,
            "time": 191.89733062500002,
            "velocity": 0.49606299212598426
          },
          {
            "duration": 0.04504500000001599,
            "durationTicks": 40,
            "midi": 56,
            "name": "G#3",
            "ticks": 170635,
            "time": 192.156339375,
            "velocity": 0.6929133858267716
          },
          {
            "duration": 0.03378374999999778,
            "durationTicks": 30,
            "midi": 62,
            "name": "D4",
            "ticks": 170640,
            "time": 192.16197,
            "velocity": 0.7559055118110236
          },
          {
            "duration": 0.022522499999979573,
            "durationTicks": 20,
            "midi": 65,
            "name": "F4",
            "ticks": 170645,
            "time": 192.167600625,
            "velocity": 0.7559055118110236
          },
          {
            "duration": 0.33783750000000623,
            "durationTicks": 300,
            "midi": 51,
            "name": "D#3",
            "ticks": 170795,
            "time": 192.33651937500002,
            "velocity": 0.6929133858267716
          },
          {
            "duration": 0.32657625000001644,
            "durationTicks": 290,
            "midi": 58,
            "name": "A#3",
            "ticks": 170805,
            "time": 192.347780625,
            "velocity": 0.6535433070866141
          },
          {
            "duration": 0.04504500000001599,
            "durationTicks": 40,
            "midi": 58,
            "name": "A#3",
            "ticks": 171115,
            "time": 192.696879375,
            "velocity": 0.6929133858267716
          },
          {
            "duration": 0.03378374999999778,
            "durationTicks": 30,
            "midi": 62,
            "name": "D4",
            "ticks": 171120,
            "time": 192.70251000000002,
            "velocity": 0.7559055118110236
          },
          {
            "duration": 0.022522499999979573,
            "durationTicks": 20,
            "midi": 67,
            "name": "G4",
            "ticks": 171125,
            "time": 192.70814062500003,
            "velocity": 0.7559055118110236
          },
          {
            "duration": 0.011261249999989786,
            "durationTicks": 10,
            "midi": 67,
            "name": "G4",
            "ticks": 171275,
            "time": 192.87705937500002,
            "velocity": 0.48031496062992124
          },
          {
            "duration": 0.011261250000018208,
            "durationTicks": 10,
            "midi": 62,
            "name": "D4",
            "ticks": 171280,
            "time": 192.88269,
            "velocity": 0.48031496062992124
          },
          {
            "duration": 0.011261249999989786,
            "durationTicks": 10,
            "midi": 58,
            "name": "A#3",
            "ticks": 171285,
            "time": 192.888320625,
            "velocity": 0.41732283464566927
          },
          {
            "duration": 0.2477475000000311,
            "durationTicks": 220,
            "midi": 51,
            "name": "D#3",
            "ticks": 171355,
            "time": 192.967149375,
            "velocity": 0.5354330708661418
          },
          {
            "duration": 0.2364862500000129,
            "durationTicks": 210,
            "midi": 58,
            "name": "A#3",
            "ticks": 171365,
            "time": 192.978410625,
            "velocity": 0.49606299212598426
          },
          {
            "duration": 0.09009000000000356,
            "durationTicks": 80,
            "midi": 58,
            "name": "A#3",
            "ticks": 171595,
            "time": 193.237419375,
            "velocity": 0.6929133858267716
          },
          {
            "duration": 0.07882874999998535,
            "durationTicks": 70,
            "midi": 62,
            "name": "D4",
            "ticks": 171605,
            "time": 193.24868062500002,
            "velocity": 0.7559055118110236
          },
          {
            "duration": 0.06756749999999556,
            "durationTicks": 60,
            "midi": 67,
            "name": "G4",
            "ticks": 171615,
            "time": 193.259941875,
            "velocity": 0.7559055118110236
          },
          {
            "duration": 0.2477475000000311,
            "durationTicks": 220,
            "midi": 51,
            "name": "D#3",
            "ticks": 171835,
            "time": 193.50768937499998,
            "velocity": 0.5354330708661418
          },
          {
            "duration": 0.23648624999998447,
            "durationTicks": 210,
            "midi": 58,
            "name": "A#3",
            "ticks": 171845,
            "time": 193.51895062500003,
            "velocity": 0.49606299212598426
          },
          {
            "duration": 0.04504500000001599,
            "durationTicks": 40,
            "midi": 58,
            "name": "A#3",
            "ticks": 172075,
            "time": 193.777959375,
            "velocity": 0.6929133858267716
          },
          {
            "duration": 0.03378374999999778,
            "durationTicks": 30,
            "midi": 62,
            "name": "D4",
            "ticks": 172080,
            "time": 193.78359,
            "velocity": 0.7559055118110236
          },
          {
            "duration": 0.022522499999979573,
            "durationTicks": 20,
            "midi": 67,
            "name": "G4",
            "ticks": 172085,
            "time": 193.789220625,
            "velocity": 0.7559055118110236
          },
          {
            "duration": 0.011261249999989786,
            "durationTicks": 10,
            "midi": 67,
            "name": "G4",
            "ticks": 172235,
            "time": 193.95813937500003,
            "velocity": 0.5590551181102362
          },
          {
            "duration": 0.011261250000018208,
            "durationTicks": 10,
            "midi": 62,
            "name": "D4",
            "ticks": 172240,
            "time": 193.96377,
            "velocity": 0.5590551181102362
          },
          {
            "duration": 0.011261249999989786,
            "durationTicks": 10,
            "midi": 58,
            "name": "A#3",
            "ticks": 172245,
            "time": 193.96940062500002,
            "velocity": 0.49606299212598426
          },
          {
            "duration": 0.24774750000000267,
            "durationTicks": 220,
            "midi": 51,
            "name": "D#3",
            "ticks": 172315,
            "time": 194.048229375,
            "velocity": 0.5354330708661418
          },
          {
            "duration": 0.23648624999998447,
            "durationTicks": 210,
            "midi": 58,
            "name": "A#3",
            "ticks": 172325,
            "time": 194.05949062500002,
            "velocity": 0.49606299212598426
          },
          {
            "duration": 0.09009000000003198,
            "durationTicks": 80,
            "midi": 58,
            "name": "A#3",
            "ticks": 172555,
            "time": 194.318499375,
            "velocity": 0.6929133858267716
          },
          {
            "duration": 0.07882875000001377,
            "durationTicks": 70,
            "midi": 62,
            "name": "D4",
            "ticks": 172560,
            "time": 194.32413,
            "velocity": 0.7559055118110236
          },
          {
            "duration": 0.06756750000002398,
            "durationTicks": 60,
            "midi": 67,
            "name": "G4",
            "ticks": 172565,
            "time": 194.329760625,
            "velocity": 0.7559055118110236
          },
          {
            "duration": 0.07882874999998535,
            "durationTicks": 70,
            "midi": 57,
            "name": "A3",
            "ticks": 173045,
            "time": 194.87030062500003,
            "velocity": 0.6299212598425197
          },
          {
            "duration": 0.07882875000001377,
            "durationTicks": 70,
            "midi": 60,
            "name": "C4",
            "ticks": 173050,
            "time": 194.87593125,
            "velocity": 0.6299212598425197
          },
          {
            "duration": 0.06756749999999556,
            "durationTicks": 60,
            "midi": 67,
            "name": "G4",
            "ticks": 173055,
            "time": 194.88156187500002,
            "velocity": 0.7244094488188977
          },
          {
            "duration": 0.056306250000005775,
            "durationTicks": 50,
            "midi": 57,
            "name": "A3",
            "ticks": 173415,
            "time": 195.28696687500002,
            "velocity": 0.7244094488188977
          },
          {
            "duration": 0.056306249999977354,
            "durationTicks": 50,
            "midi": 60,
            "name": "C4",
            "ticks": 173420,
            "time": 195.29259750000003,
            "velocity": 0.6299212598425197
          },
          {
            "duration": 0.04504500000001599,
            "durationTicks": 40,
            "midi": 67,
            "name": "G4",
            "ticks": 173425,
            "time": 195.298228125,
            "velocity": 0.6929133858267716
          },
          {
            "duration": 0.10135124999999334,
            "durationTicks": 90,
            "midi": 57,
            "name": "A3",
            "ticks": 173765,
            "time": 195.68111062500003,
            "velocity": 0.6929133858267716
          },
          {
            "duration": 0.09009000000003198,
            "durationTicks": 80,
            "midi": 60,
            "name": "C4",
            "ticks": 173770,
            "time": 195.68674124999998,
            "velocity": 0.7086614173228346
          },
          {
            "duration": 0.07882874999998535,
            "durationTicks": 70,
            "midi": 66,
            "name": "F#4",
            "ticks": 173775,
            "time": 195.69237187500002,
            "velocity": 0.6929133858267716
          },
          {
            "duration": 0.2477475000000311,
            "durationTicks": 220,
            "midi": 43,
            "name": "G2",
            "ticks": 174715,
            "time": 196.750929375,
            "velocity": 0.41732283464566927
          },
          {
            "duration": 0.2364862500000129,
            "durationTicks": 210,
            "midi": 50,
            "name": "D3",
            "ticks": 174725,
            "time": 196.76219062500002,
            "velocity": 0.3779527559055118
          },
          {
            "duration": 0.04504500000001599,
            "durationTicks": 40,
            "midi": 58,
            "name": "A#3",
            "ticks": 174955,
            "time": 197.021199375,
            "velocity": 0.7322834645669292
          },
          {
            "duration": 0.03378374999999778,
            "durationTicks": 30,
            "midi": 62,
            "name": "D4",
            "ticks": 174960,
            "time": 197.02683000000002,
            "velocity": 0.7165354330708661
          },
          {
            "duration": 0.022522499999979573,
            "durationTicks": 20,
            "midi": 67,
            "name": "G4",
            "ticks": 174965,
            "time": 197.03246062500003,
            "velocity": 0.7165354330708661
          },
          {
            "duration": 0.011261249999989786,
            "durationTicks": 10,
            "midi": 67,
            "name": "G4",
            "ticks": 175115,
            "time": 197.20137937500002,
            "velocity": 0.4409448818897638
          },
          {
            "duration": 0.011261250000018208,
            "durationTicks": 10,
            "midi": 62,
            "name": "D4",
            "ticks": 175120,
            "time": 197.20701,
            "velocity": 0.4409448818897638
          },
          {
            "duration": 0.011261249999989786,
            "durationTicks": 10,
            "midi": 58,
            "name": "A#3",
            "ticks": 175125,
            "time": 197.212640625,
            "velocity": 0.4566929133858268
          },
          {
            "duration": 0.2477475000000311,
            "durationTicks": 220,
            "midi": 43,
            "name": "G2",
            "ticks": 175195,
            "time": 197.291469375,
            "velocity": 0.41732283464566927
          },
          {
            "duration": 0.2364862500000129,
            "durationTicks": 210,
            "midi": 50,
            "name": "D3",
            "ticks": 175205,
            "time": 197.302730625,
            "velocity": 0.3779527559055118
          },
          {
            "duration": 0.04504500000001599,
            "durationTicks": 40,
            "midi": 58,
            "name": "A#3",
            "ticks": 175435,
            "time": 197.561739375,
            "velocity": 0.7322834645669292
          },
          {
            "duration": 0.03378374999999778,
            "durationTicks": 30,
            "midi": 62,
            "name": "D4",
            "ticks": 175440,
            "time": 197.56737,
            "velocity": 0.7165354330708661
          },
          {
            "duration": 0.022522499999979573,
            "durationTicks": 20,
            "midi": 67,
            "name": "G4",
            "ticks": 175445,
            "time": 197.57300062500002,
            "velocity": 0.7165354330708661
          },
          {
            "duration": 0.011261249999989786,
            "durationTicks": 10,
            "midi": 67,
            "name": "G4",
            "ticks": 175595,
            "time": 197.741919375,
            "velocity": 0.4409448818897638
          },
          {
            "duration": 0.011261250000018208,
            "durationTicks": 10,
            "midi": 62,
            "name": "D4",
            "ticks": 175600,
            "time": 197.74755,
            "velocity": 0.4409448818897638
          },
          {
            "duration": 0.011261249999989786,
            "durationTicks": 10,
            "midi": 58,
            "name": "A#3",
            "ticks": 175605,
            "time": 197.753180625,
            "velocity": 0.4566929133858268
          },
          {
            "duration": 0.2477475000000311,
            "durationTicks": 220,
            "midi": 46,
            "name": "A#2",
            "ticks": 175675,
            "time": 197.83200937499998,
            "velocity": 0.41732283464566927
          },
          {
            "duration": 0.23648624999998447,
            "durationTicks": 210,
            "midi": 53,
            "name": "F3",
            "ticks": 175685,
            "time": 197.84327062500003,
            "velocity": 0.3779527559055118
          },
          {
            "duration": 0.04504500000001599,
            "durationTicks": 40,
            "midi": 56,
            "name": "G#3",
            "ticks": 175915,
            "time": 198.102279375,
            "velocity": 0.6535433070866141
          },
          {
            "duration": 0.03378374999999778,
            "durationTicks": 30,
            "midi": 62,
            "name": "D4",
            "ticks": 175920,
            "time": 198.10791,
            "velocity": 0.7165354330708661
          },
          {
            "duration": 0.022522499999979573,
            "durationTicks": 20,
            "midi": 65,
            "name": "F4",
            "ticks": 175925,
            "time": 198.113540625,
            "velocity": 0.7165354330708661
          },
          {
            "duration": 0.011261249999989786,
            "durationTicks": 10,
            "midi": 65,
            "name": "F4",
            "ticks": 176075,
            "time": 198.28245937500003,
            "velocity": 0.4409448818897638
          },
          {
            "duration": 0.011261250000018208,
            "durationTicks": 10,
            "midi": 62,
            "name": "D4",
            "ticks": 176080,
            "time": 198.28809,
            "velocity": 0.4409448818897638
          },
          {
            "duration": 0.011261249999989786,
            "durationTicks": 10,
            "midi": 56,
            "name": "G#3",
            "ticks": 176085,
            "time": 198.29372062500002,
            "velocity": 0.3779527559055118
          },
          {
            "duration": 0.24774750000000267,
            "durationTicks": 220,
            "midi": 46,
            "name": "A#2",
            "ticks": 176155,
            "time": 198.372549375,
            "velocity": 0.41732283464566927
          },
          {
            "duration": 0.23648624999998447,
            "durationTicks": 210,
            "midi": 53,
            "name": "F3",
            "ticks": 176165,
            "time": 198.38381062500002,
            "velocity": 0.3779527559055118
          },
          {
            "duration": 0.04504500000001599,
            "durationTicks": 40,
            "midi": 56,
            "name": "G#3",
            "ticks": 176395,
            "time": 198.642819375,
            "velocity": 0.6535433070866141
          },
          {
            "duration": 0.03378374999999778,
            "durationTicks": 30,
            "midi": 62,
            "name": "D4",
            "ticks": 176400,
            "time": 198.64845,
            "velocity": 0.7165354330708661
          },
          {
            "duration": 0.022522499999979573,
            "durationTicks": 20,
            "midi": 65,
            "name": "F4",
            "ticks": 176405,
            "time": 198.654080625,
            "velocity": 0.7165354330708661
          },
          {
            "duration": 0.011261249999989786,
            "durationTicks": 10,
            "midi": 65,
            "name": "F4",
            "ticks": 176555,
            "time": 198.82299937500002,
            "velocity": 0.4409448818897638
          },
          {
            "duration": 0.011261250000018208,
            "durationTicks": 10,
            "midi": 62,
            "name": "D4",
            "ticks": 176560,
            "time": 198.82863,
            "velocity": 0.4409448818897638
          },
          {
            "duration": 0.011261249999989786,
            "durationTicks": 10,
            "midi": 56,
            "name": "G#3",
            "ticks": 176565,
            "time": 198.834260625,
            "velocity": 0.3779527559055118
          },
          {
            "duration": 0.2477475000000311,
            "durationTicks": 220,
            "midi": 51,
            "name": "D#3",
            "ticks": 176635,
            "time": 198.913089375,
            "velocity": 0.41732283464566927
          },
          {
            "duration": 0.2364862500000129,
            "durationTicks": 210,
            "midi": 58,
            "name": "A#3",
            "ticks": 176645,
            "time": 198.92435062500002,
            "velocity": 0.3779527559055118
          },
          {
            "duration": 0.04504500000001599,
            "durationTicks": 40,
            "midi": 58,
            "name": "A#3",
            "ticks": 176875,
            "time": 199.183359375,
            "velocity": 0.6535433070866141
          },
          {
            "duration": 0.03378374999999778,
            "durationTicks": 30,
            "midi": 62,
            "name": "D4",
            "ticks": 176880,
            "time": 199.18899000000002,
            "velocity": 0.7165354330708661
          },
          {
            "duration": 0.022522499999979573,
            "durationTicks": 20,
            "midi": 67,
            "name": "G4",
            "ticks": 176885,
            "time": 199.19462062500003,
            "velocity": 0.7165354330708661
          },
          {
            "duration": 0.011261249999989786,
            "durationTicks": 10,
            "midi": 67,
            "name": "G4",
            "ticks": 177035,
            "time": 199.36353937500002,
            "velocity": 0.4409448818897638
          },
          {
            "duration": 0.011261250000018208,
            "durationTicks": 10,
            "midi": 62,
            "name": "D4",
            "ticks": 177040,
            "time": 199.36917,
            "velocity": 0.4409448818897638
          },
          {
            "duration": 0.011261249999989786,
            "durationTicks": 10,
            "midi": 58,
            "name": "A#3",
            "ticks": 177045,
            "time": 199.374800625,
            "velocity": 0.3779527559055118
          },
          {
            "duration": 0.2477475000000311,
            "durationTicks": 220,
            "midi": 51,
            "name": "D#3",
            "ticks": 177115,
            "time": 199.453629375,
            "velocity": 0.41732283464566927
          },
          {
            "duration": 0.2364862500000129,
            "durationTicks": 210,
            "midi": 58,
            "name": "A#3",
            "ticks": 177125,
            "time": 199.464890625,
            "velocity": 0.3779527559055118
          },
          {
            "duration": 0.09009000000000356,
            "durationTicks": 80,
            "midi": 58,
            "name": "A#3",
            "ticks": 177355,
            "time": 199.723899375,
            "velocity": 0.6535433070866141
          },
          {
            "duration": 0.07882874999998535,
            "durationTicks": 70,
            "midi": 62,
            "name": "D4",
            "ticks": 177365,
            "time": 199.73516062500002,
            "velocity": 0.7165354330708661
          },
          {
            "duration": 0.06756749999999556,
            "durationTicks": 60,
            "midi": 67,
            "name": "G4",
            "ticks": 177375,
            "time": 199.746421875,
            "velocity": 0.7165354330708661
          },
          {
            "duration": 0.2477475000000311,
            "durationTicks": 220,
            "midi": 44,
            "name": "G#2",
            "ticks": 177595,
            "time": 199.99416937499998,
            "velocity": 0.41732283464566927
          },
          {
            "duration": 0.23648624999998447,
            "durationTicks": 210,
            "midi": 51,
            "name": "D#3",
            "ticks": 177605,
            "time": 200.00543062500003,
            "velocity": 0.3779527559055118
          },
          {
            "duration": 0.04504500000001599,
            "durationTicks": 40,
            "midi": 60,
            "name": "C4",
            "ticks": 177835,
            "time": 200.264439375,
            "velocity": 0.7322834645669292
          },
          {
            "duration": 0.03378374999999778,
            "durationTicks": 30,
            "midi": 63,
            "name": "D#4",
            "ticks": 177840,
            "time": 200.27007,
            "velocity": 0.7165354330708661
          },
          {
            "duration": 0.022522499999979573,
            "durationTicks": 20,
            "midi": 68,
            "name": "G#4",
            "ticks": 177845,
            "time": 200.275700625,
            "velocity": 0.7165354330708661
          },
          {
            "duration": 0.011261249999989786,
            "durationTicks": 10,
            "midi": 68,
            "name": "G#4",
            "ticks": 177995,
            "time": 200.44461937500003,
            "velocity": 0.4409448818897638
          },
          {
            "duration": 0.011261250000018208,
            "durationTicks": 10,
            "midi": 63,
            "name": "D#4",
            "ticks": 178000,
            "time": 200.45025,
            "velocity": 0.4409448818897638
          },
          {
            "duration": 0.011261249999989786,
            "durationTicks": 10,
            "midi": 60,
            "name": "C4",
            "ticks": 178005,
            "time": 200.45588062500002,
            "velocity": 0.4566929133858268
          },
          {
            "duration": 0.24774750000000267,
            "durationTicks": 220,
            "midi": 44,
            "name": "G#2",
            "ticks": 178075,
            "time": 200.534709375,
            "velocity": 0.41732283464566927
          },
          {
            "duration": 0.23648624999998447,
            "durationTicks": 210,
            "midi": 51,
            "name": "D#3",
            "ticks": 178085,
            "time": 200.54597062500002,
            "velocity": 0.3779527559055118
          },
          {
            "duration": 0.04504500000001599,
            "durationTicks": 40,
            "midi": 60,
            "name": "C4",
            "ticks": 178315,
            "time": 200.804979375,
            "velocity": 0.7322834645669292
          },
          {
            "duration": 0.03378374999999778,
            "durationTicks": 30,
            "midi": 63,
            "name": "D#4",
            "ticks": 178320,
            "time": 200.81061,
            "velocity": 0.7165354330708661
          },
          {
            "duration": 0.022522499999979573,
            "durationTicks": 20,
            "midi": 68,
            "name": "G#4",
            "ticks": 178325,
            "time": 200.816240625,
            "velocity": 0.7165354330708661
          },
          {
            "duration": 0.04504500000001599,
            "durationTicks": 40,
            "midi": 57,
            "name": "A3",
            "ticks": 178555,
            "time": 201.075249375,
            "velocity": 0.7086614173228346
          },
          {
            "duration": 0.03378374999999778,
            "durationTicks": 30,
            "midi": 60,
            "name": "C4",
            "ticks": 178560,
            "time": 201.08088,
            "velocity": 0.6141732283464567
          },
          {
            "duration": 0.03378374999999778,
            "durationTicks": 30,
            "midi": 67,
            "name": "G4",
            "ticks": 178565,
            "time": 201.08651062500002,
            "velocity": 0.7086614173228346
          },
          {
            "duration": 0.056306249999977354,
            "durationTicks": 50,
            "midi": 57,
            "name": "A3",
            "ticks": 178805,
            "time": 201.35678062500003,
            "velocity": 0.7086614173228346
          },
          {
            "duration": 0.056306250000005775,
            "durationTicks": 50,
            "midi": 60,
            "name": "C4",
            "ticks": 178810,
            "time": 201.36241125,
            "velocity": 0.6141732283464567
          },
          {
            "duration": 0.056306250000005775,
            "durationTicks": 50,
            "midi": 67,
            "name": "G4",
            "ticks": 178815,
            "time": 201.36804187500002,
            "velocity": 0.7086614173228346
          },
          {
            "duration": 0.07882874999998535,
            "durationTicks": 70,
            "midi": 57,
            "name": "A3",
            "ticks": 179525,
            "time": 202.16759062500003,
            "velocity": 0.5275590551181102
          },
          {
            "duration": 0.09009000000003198,
            "durationTicks": 80,
            "midi": 60,
            "name": "C4",
            "ticks": 179530,
            "time": 202.17322124999998,
            "velocity": 0.7086614173228346
          },
          {
            "duration": 0.06756749999999556,
            "durationTicks": 60,
            "midi": 66,
            "name": "F#4",
            "ticks": 179535,
            "time": 202.17885187500002,
            "velocity": 0.7086614173228346
          },
          {
            "duration": 0.2477475000000311,
            "durationTicks": 220,
            "midi": 43,
            "name": "G2",
            "ticks": 180475,
            "time": 203.237409375,
            "velocity": 0.41732283464566927
          },
          {
            "duration": 0.2364862500000129,
            "durationTicks": 210,
            "midi": 50,
            "name": "D3",
            "ticks": 180485,
            "time": 203.24867062500002,
            "velocity": 0.3779527559055118
          },
          {
            "duration": 0.04504500000001599,
            "durationTicks": 40,
            "midi": 58,
            "name": "A#3",
            "ticks": 180715,
            "time": 203.507679375,
            "velocity": 0.7322834645669292
          },
          {
            "duration": 0.03378374999999778,
            "durationTicks": 30,
            "midi": 62,
            "name": "D4",
            "ticks": 180720,
            "time": 203.51331000000002,
            "velocity": 0.7165354330708661
          },
          {
            "duration": 0.022522499999979573,
            "durationTicks": 20,
            "midi": 67,
            "name": "G4",
            "ticks": 180725,
            "time": 203.51894062500003,
            "velocity": 0.7165354330708661
          },
          {
            "duration": 0.2477475000000311,
            "durationTicks": 220,
            "midi": 43,
            "name": "G2",
            "ticks": 180955,
            "time": 203.777949375,
            "velocity": 0.41732283464566927
          },
          {
            "duration": 0.2364862500000129,
            "durationTicks": 210,
            "midi": 50,
            "name": "D3",
            "ticks": 180965,
            "time": 203.789210625,
            "velocity": 0.3779527559055118
          },
          {
            "duration": 0.04504500000001599,
            "durationTicks": 40,
            "midi": 58,
            "name": "A#3",
            "ticks": 181195,
            "time": 204.048219375,
            "velocity": 0.7322834645669292
          },
          {
            "duration": 0.03378374999999778,
            "durationTicks": 30,
            "midi": 62,
            "name": "D4",
            "ticks": 181200,
            "time": 204.05385,
            "velocity": 0.7165354330708661
          },
          {
            "duration": 0.022522499999979573,
            "durationTicks": 20,
            "midi": 67,
            "name": "G4",
            "ticks": 181205,
            "time": 204.05948062500002,
            "velocity": 0.7165354330708661
          },
          {
            "duration": 0.011261249999989786,
            "durationTicks": 10,
            "midi": 67,
            "name": "G4",
            "ticks": 181355,
            "time": 204.228399375,
            "velocity": 0.4409448818897638
          },
          {
            "duration": 0.011261250000018208,
            "durationTicks": 10,
            "midi": 62,
            "name": "D4",
            "ticks": 181360,
            "time": 204.23403,
            "velocity": 0.4409448818897638
          },
          {
            "duration": 0.011261249999989786,
            "durationTicks": 10,
            "midi": 58,
            "name": "A#3",
            "ticks": 181365,
            "time": 204.239660625,
            "velocity": 0.4566929133858268
          },
          {
            "duration": 0.04504500000004441,
            "durationTicks": 40,
            "midi": 55,
            "name": "G3",
            "ticks": 181435,
            "time": 204.31848937499998,
            "velocity": 0.7322834645669292
          },
          {
            "duration": 0.0337837500000262,
            "durationTicks": 30,
            "midi": 58,
            "name": "A#3",
            "ticks": 181440,
            "time": 204.32412,
            "velocity": 0.7165354330708661
          },
          {
            "duration": 0.022522499999979573,
            "durationTicks": 20,
            "midi": 67,
            "name": "G4",
            "ticks": 181445,
            "time": 204.32975062500003,
            "velocity": 0.7165354330708661
          },
          {
            "duration": 0.7545037500000262,
            "durationTicks": 670,
            "midi": 54,
            "name": "F#3",
            "ticks": 181675,
            "time": 204.588759375,
            "velocity": 0.8031496062992126
          },
          {
            "duration": 0.743242500000008,
            "durationTicks": 660,
            "midi": 60,
            "name": "C4",
            "ticks": 181680,
            "time": 204.59439,
            "velocity": 0.8031496062992126
          },
          {
            "duration": 0.743242500000008,
            "durationTicks": 660,
            "midi": 65,
            "name": "F4",
            "ticks": 181685,
            "time": 204.600020625,
            "velocity": 0.7716535433070866
          },
          {
            "duration": 0.2477475000000311,
            "durationTicks": 220,
            "midi": 43,
            "name": "G2",
            "ticks": 182395,
            "time": 205.399569375,
            "velocity": 0.5748031496062992
          },
          {
            "duration": 0.2364862500000129,
            "durationTicks": 210,
            "midi": 50,
            "name": "D3",
            "ticks": 182405,
            "time": 205.41083062500002,
            "velocity": 0.5354330708661418
          },
          {
            "duration": 0.04504500000001599,
            "durationTicks": 40,
            "midi": 58,
            "name": "A#3",
            "ticks": 182635,
            "time": 205.669839375,
            "velocity": 0.7322834645669292
          },
          {
            "duration": 0.03378374999999778,
            "durationTicks": 30,
            "midi": 62,
            "name": "D4",
            "ticks": 182640,
            "time": 205.67547000000002,
            "velocity": 0.7165354330708661
          },
          {
            "duration": 0.022522499999979573,
            "durationTicks": 20,
            "midi": 67,
            "name": "G4",
            "ticks": 182645,
            "time": 205.68110062500003,
            "velocity": 0.7165354330708661
          },
          {
            "duration": 0.011261249999989786,
            "durationTicks": 10,
            "midi": 67,
            "name": "G4",
            "ticks": 182795,
            "time": 205.85001937500002,
            "velocity": 0.4409448818897638
          },
          {
            "duration": 0.011261250000018208,
            "durationTicks": 10,
            "midi": 62,
            "name": "D4",
            "ticks": 182800,
            "time": 205.85565,
            "velocity": 0.4409448818897638
          },
          {
            "duration": 0.011261249999989786,
            "durationTicks": 10,
            "midi": 58,
            "name": "A#3",
            "ticks": 182805,
            "time": 205.861280625,
            "velocity": 0.4566929133858268
          },
          {
            "duration": 0.2477475000000311,
            "durationTicks": 220,
            "midi": 43,
            "name": "G2",
            "ticks": 182875,
            "time": 205.940109375,
            "velocity": 0.5748031496062992
          },
          {
            "duration": 0.2364862500000129,
            "durationTicks": 210,
            "midi": 50,
            "name": "D3",
            "ticks": 182885,
            "time": 205.951370625,
            "velocity": 0.5354330708661418
          },
          {
            "duration": 0.09009000000000356,
            "durationTicks": 80,
            "midi": 58,
            "name": "A#3",
            "ticks": 183115,
            "time": 206.210379375,
            "velocity": 0.7322834645669292
          },
          {
            "duration": 0.07882874999998535,
            "durationTicks": 70,
            "midi": 62,
            "name": "D4",
            "ticks": 183125,
            "time": 206.22164062500002,
            "velocity": 0.7165354330708661
          },
          {
            "duration": 0.06756749999999556,
            "durationTicks": 60,
            "midi": 67,
            "name": "G4",
            "ticks": 183135,
            "time": 206.232901875,
            "velocity": 0.7165354330708661
          },
          {
            "duration": 0.011261249999989786,
            "durationTicks": 10,
            "midi": 67,
            "name": "G4",
            "ticks": 183275,
            "time": 206.390559375,
            "velocity": 0.4409448818897638
          },
          {
            "duration": 0.011261250000018208,
            "durationTicks": 10,
            "midi": 62,
            "name": "D4",
            "ticks": 183280,
            "time": 206.39619,
            "velocity": 0.4409448818897638
          },
          {
            "duration": 0.011261249999989786,
            "durationTicks": 10,
            "midi": 58,
            "name": "A#3",
            "ticks": 183285,
            "time": 206.401820625,
            "velocity": 0.4566929133858268
          },
          {
            "duration": 0.2477475000000311,
            "durationTicks": 220,
            "midi": 43,
            "name": "G2",
            "ticks": 183355,
            "time": 206.48064937499998,
            "velocity": 0.5748031496062992
          },
          {
            "duration": 0.23648624999998447,
            "durationTicks": 210,
            "midi": 50,
            "name": "D3",
            "ticks": 183365,
            "time": 206.49191062500003,
            "velocity": 0.5354330708661418
          },
          {
            "duration": 0.04504500000001599,
            "durationTicks": 40,
            "midi": 58,
            "name": "A#3",
            "ticks": 183595,
            "time": 206.750919375,
            "velocity": 0.7322834645669292
          },
          {
            "duration": 0.03378374999999778,
            "durationTicks": 30,
            "midi": 62,
            "name": "D4",
            "ticks": 183600,
            "time": 206.75655,
            "velocity": 0.7165354330708661
          },
          {
            "duration": 0.022522499999979573,
            "durationTicks": 20,
            "midi": 67,
            "name": "G4",
            "ticks": 183605,
            "time": 206.762180625,
            "velocity": 0.7165354330708661
          },
          {
            "duration": 0.011261249999989786,
            "durationTicks": 10,
            "midi": 67,
            "name": "G4",
            "ticks": 183755,
            "time": 206.93109937500003,
            "velocity": 0.5984251968503937
          },
          {
            "duration": 0.011261250000018208,
            "durationTicks": 10,
            "midi": 62,
            "name": "D4",
            "ticks": 183760,
            "time": 206.93673,
            "velocity": 0.5984251968503937
          },
          {
            "duration": 0.011261249999989786,
            "durationTicks": 10,
            "midi": 58,
            "name": "A#3",
            "ticks": 183765,
            "time": 206.94236062500002,
            "velocity": 0.6141732283464567
          },
          {
            "duration": 0.24774750000000267,
            "durationTicks": 220,
            "midi": 43,
            "name": "G2",
            "ticks": 183835,
            "time": 207.021189375,
            "velocity": 0.5748031496062992
          },
          {
            "duration": 0.23648624999998447,
            "durationTicks": 210,
            "midi": 50,
            "name": "D3",
            "ticks": 183845,
            "time": 207.03245062500002,
            "velocity": 0.5354330708661418
          },
          {
            "duration": 0.09009000000003198,
            "durationTicks": 80,
            "midi": 58,
            "name": "A#3",
            "ticks": 184075,
            "time": 207.291459375,
            "velocity": 0.7322834645669292
          },
          {
            "duration": 0.07882875000001377,
            "durationTicks": 70,
            "midi": 62,
            "name": "D4",
            "ticks": 184080,
            "time": 207.29709,
            "velocity": 0.7165354330708661
          },
          {
            "duration": 0.06756750000002398,
            "durationTicks": 60,
            "midi": 67,
            "name": "G4",
            "ticks": 184085,
            "time": 207.302720625,
            "velocity": 0.7165354330708661
          },
          {
            "duration": 0.011261249999989786,
            "durationTicks": 10,
            "midi": 67,
            "name": "G4",
            "ticks": 184235,
            "time": 207.47163937500002,
            "velocity": 0.4409448818897638
          },
          {
            "duration": 0.011261250000018208,
            "durationTicks": 10,
            "midi": 62,
            "name": "D4",
            "ticks": 184240,
            "time": 207.47727,
            "velocity": 0.4409448818897638
          },
          {
            "duration": 0.011261249999989786,
            "durationTicks": 10,
            "midi": 58,
            "name": "A#3",
            "ticks": 184245,
            "time": 207.482900625,
            "velocity": 0.4566929133858268
          },
          {
            "duration": 0.2477475000000311,
            "durationTicks": 220,
            "midi": 46,
            "name": "A#2",
            "ticks": 184315,
            "time": 207.561729375,
            "velocity": 0.41732283464566927
          },
          {
            "duration": 0.2364862500000129,
            "durationTicks": 210,
            "midi": 53,
            "name": "F3",
            "ticks": 184325,
            "time": 207.57299062500002,
            "velocity": 0.3779527559055118
          },
          {
            "duration": 0.04504500000001599,
            "durationTicks": 40,
            "midi": 56,
            "name": "G#3",
            "ticks": 184555,
            "time": 207.831999375,
            "velocity": 0.6535433070866141
          },
          {
            "duration": 0.03378374999999778,
            "durationTicks": 30,
            "midi": 62,
            "name": "D4",
            "ticks": 184560,
            "time": 207.83763000000002,
            "velocity": 0.7165354330708661
          },
          {
            "duration": 0.022522499999979573,
            "durationTicks": 20,
            "midi": 65,
            "name": "F4",
            "ticks": 184565,
            "time": 207.84326062500003,
            "velocity": 0.7165354330708661
          },
          {
            "duration": 0.011261249999989786,
            "durationTicks": 10,
            "midi": 65,
            "name": "F4",
            "ticks": 184715,
            "time": 208.01217937500002,
            "velocity": 0.4409448818897638
          },
          {
            "duration": 0.011261250000018208,
            "durationTicks": 10,
            "midi": 62,
            "name": "D4",
            "ticks": 184720,
            "time": 208.01781,
            "velocity": 0.4409448818897638
          },
          {
            "duration": 0.011261249999989786,
            "durationTicks": 10,
            "midi": 56,
            "name": "G#3",
            "ticks": 184725,
            "time": 208.023440625,
            "velocity": 0.3779527559055118
          },
          {
            "duration": 0.2477475000000311,
            "durationTicks": 220,
            "midi": 46,
            "name": "A#2",
            "ticks": 184795,
            "time": 208.102269375,
            "velocity": 0.41732283464566927
          },
          {
            "duration": 0.2364862500000129,
            "durationTicks": 210,
            "midi": 53,
            "name": "F3",
            "ticks": 184805,
            "time": 208.113530625,
            "velocity": 0.3779527559055118
          },
          {
            "duration": 0.09009000000000356,
            "durationTicks": 80,
            "midi": 56,
            "name": "G#3",
            "ticks": 185035,
            "time": 208.372539375,
            "velocity": 0.6535433070866141
          },
          {
            "duration": 0.07882874999998535,
            "durationTicks": 70,
            "midi": 62,
            "name": "D4",
            "ticks": 185045,
            "time": 208.38380062500002,
            "velocity": 0.7165354330708661
          },
          {
            "duration": 0.06756749999999556,
            "durationTicks": 60,
            "midi": 65,
            "name": "F4",
            "ticks": 185055,
            "time": 208.395061875,
            "velocity": 0.7165354330708661
          },
          {
            "duration": 0.2477475000000311,
            "durationTicks": 220,
            "midi": 46,
            "name": "A#2",
            "ticks": 185275,
            "time": 208.64280937499998,
            "velocity": 0.41732283464566927
          },
          {
            "duration": 0.23648624999998447,
            "durationTicks": 210,
            "midi": 53,
            "name": "F3",
            "ticks": 185285,
            "time": 208.65407062500003,
            "velocity": 0.3779527559055118
          },
          {
            "duration": 0.04504500000001599,
            "durationTicks": 40,
            "midi": 56,
            "name": "G#3",
            "ticks": 185515,
            "time": 208.913079375,
            "velocity": 0.6535433070866141
          },
          {
            "duration": 0.03378374999999778,
            "durationTicks": 30,
            "midi": 62,
            "name": "D4",
            "ticks": 185520,
            "time": 208.91871,
            "velocity": 0.7165354330708661
          },
          {
            "duration": 0.022522499999979573,
            "durationTicks": 20,
            "midi": 65,
            "name": "F4",
            "ticks": 185525,
            "time": 208.924340625,
            "velocity": 0.7165354330708661
          },
          {
            "duration": 0.011261249999989786,
            "durationTicks": 10,
            "midi": 65,
            "name": "F4",
            "ticks": 185675,
            "time": 209.09325937500003,
            "velocity": 0.4409448818897638
          },
          {
            "duration": 0.011261250000018208,
            "durationTicks": 10,
            "midi": 62,
            "name": "D4",
            "ticks": 185680,
            "time": 209.09889,
            "velocity": 0.4409448818897638
          },
          {
            "duration": 0.011261249999989786,
            "durationTicks": 10,
            "midi": 56,
            "name": "G#3",
            "ticks": 185685,
            "time": 209.10452062500002,
            "velocity": 0.3779527559055118
          },
          {
            "duration": 0.24774750000000267,
            "durationTicks": 220,
            "midi": 46,
            "name": "A#2",
            "ticks": 185755,
            "time": 209.183349375,
            "velocity": 0.41732283464566927
          },
          {
            "duration": 0.23648624999998447,
            "durationTicks": 210,
            "midi": 53,
            "name": "F3",
            "ticks": 185765,
            "time": 209.19461062500002,
            "velocity": 0.3779527559055118
          },
          {
            "duration": 0.09009000000003198,
            "durationTicks": 80,
            "midi": 56,
            "name": "G#3",
            "ticks": 185995,
            "time": 209.453619375,
            "velocity": 0.6535433070866141
          },
          {
            "duration": 0.07882875000001377,
            "durationTicks": 70,
            "midi": 62,
            "name": "D4",
            "ticks": 186000,
            "time": 209.45925,
            "velocity": 0.7165354330708661
          },
          {
            "duration": 0.06756750000002398,
            "durationTicks": 60,
            "midi": 65,
            "name": "F4",
            "ticks": 186005,
            "time": 209.464880625,
            "velocity": 0.7165354330708661
          },
          {
            "duration": 0.2477475000000311,
            "durationTicks": 220,
            "midi": 51,
            "name": "D#3",
            "ticks": 186235,
            "time": 209.723889375,
            "velocity": 0.41732283464566927
          },
          {
            "duration": 0.2364862500000129,
            "durationTicks": 210,
            "midi": 58,
            "name": "A#3",
            "ticks": 186245,
            "time": 209.73515062500002,
            "velocity": 0.3779527559055118
          },
          {
            "duration": 0.04504500000001599,
            "durationTicks": 40,
            "midi": 58,
            "name": "A#3",
            "ticks": 186475,
            "time": 209.994159375,
            "velocity": 0.6535433070866141
          },
          {
            "duration": 0.022522500000007994,
            "durationTicks": 20,
            "midi": 67,
            "name": "G4",
            "ticks": 186480,
            "time": 209.99979000000002,
            "velocity": 0.7165354330708661
          },
          {
            "duration": 0.03378374999999778,
            "durationTicks": 30,
            "midi": 62,
            "name": "D4",
            "ticks": 186485,
            "time": 210.00542062500003,
            "velocity": 0.7165354330708661
          },
          {
            "duration": 0.011261249999989786,
            "durationTicks": 10,
            "midi": 67,
            "name": "G4",
            "ticks": 186635,
            "time": 210.17433937500002,
            "velocity": 0.4409448818897638
          },
          {
            "duration": 0.011261250000018208,
            "durationTicks": 10,
            "midi": 62,
            "name": "D4",
            "ticks": 186640,
            "time": 210.17997,
            "velocity": 0.4409448818897638
          },
          {
            "duration": 0.011261249999989786,
            "durationTicks": 10,
            "midi": 58,
            "name": "A#3",
            "ticks": 186645,
            "time": 210.185600625,
            "velocity": 0.3779527559055118
          },
          {
            "duration": 0.2477475000000311,
            "durationTicks": 220,
            "midi": 51,
            "name": "D#3",
            "ticks": 186715,
            "time": 210.264429375,
            "velocity": 0.41732283464566927
          },
          {
            "duration": 0.2364862500000129,
            "durationTicks": 210,
            "midi": 58,
            "name": "A#3",
            "ticks": 186725,
            "time": 210.275690625,
            "velocity": 0.3779527559055118
          },
          {
            "duration": 0.09009000000000356,
            "durationTicks": 80,
            "midi": 58,
            "name": "A#3",
            "ticks": 186955,
            "time": 210.534699375,
            "velocity": 0.6535433070866141
          },
          {
            "duration": 0.07882874999998535,
            "durationTicks": 70,
            "midi": 62,
            "name": "D4",
            "ticks": 186965,
            "time": 210.54596062500002,
            "velocity": 0.7165354330708661
          },
          {
            "duration": 0.06756749999999556,
            "durationTicks": 60,
            "midi": 67,
            "name": "G4",
            "ticks": 186975,
            "time": 210.557221875,
            "velocity": 0.7165354330708661
          },
          {
            "duration": 0.011261249999989786,
            "durationTicks": 10,
            "midi": 67,
            "name": "G4",
            "ticks": 187115,
            "time": 210.714879375,
            "velocity": 0.4409448818897638
          },
          {
            "duration": 0.011261250000018208,
            "durationTicks": 10,
            "midi": 62,
            "name": "D4",
            "ticks": 187120,
            "time": 210.72051,
            "velocity": 0.4409448818897638
          },
          {
            "duration": 0.011261249999989786,
            "durationTicks": 10,
            "midi": 58,
            "name": "A#3",
            "ticks": 187125,
            "time": 210.726140625,
            "velocity": 0.3779527559055118
          },
          {
            "duration": 0.2477475000000311,
            "durationTicks": 220,
            "midi": 51,
            "name": "D#3",
            "ticks": 187195,
            "time": 210.80496937499998,
            "velocity": 0.41732283464566927
          },
          {
            "duration": 0.23648624999998447,
            "durationTicks": 210,
            "midi": 58,
            "name": "A#3",
            "ticks": 187205,
            "time": 210.81623062500003,
            "velocity": 0.3779527559055118
          },
          {
            "duration": 0.04504500000001599,
            "durationTicks": 40,
            "midi": 58,
            "name": "A#3",
            "ticks": 187435,
            "time": 211.075239375,
            "velocity": 0.6535433070866141
          },
          {
            "duration": 0.03378374999999778,
            "durationTicks": 30,
            "midi": 62,
            "name": "D4",
            "ticks": 187440,
            "time": 211.08087,
            "velocity": 0.7165354330708661
          },
          {
            "duration": 0.022522499999979573,
            "durationTicks": 20,
            "midi": 67,
            "name": "G4",
            "ticks": 187445,
            "time": 211.086500625,
            "velocity": 0.7165354330708661
          },
          {
            "duration": 0.011261249999989786,
            "durationTicks": 10,
            "midi": 67,
            "name": "G4",
            "ticks": 187595,
            "time": 211.25541937500003,
            "velocity": 0.4409448818897638
          },
          {
            "duration": 0.011261250000018208,
            "durationTicks": 10,
            "midi": 62,
            "name": "D4",
            "ticks": 187600,
            "time": 211.26105,
            "velocity": 0.4409448818897638
          },
          {
            "duration": 0.011261249999989786,
            "durationTicks": 10,
            "midi": 58,
            "name": "A#3",
            "ticks": 187605,
            "time": 211.26668062500002,
            "velocity": 0.3779527559055118
          },
          {
            "duration": 0.24774750000000267,
            "durationTicks": 220,
            "midi": 51,
            "name": "D#3",
            "ticks": 187675,
            "time": 211.345509375,
            "velocity": 0.41732283464566927
          },
          {
            "duration": 0.23648624999998447,
            "durationTicks": 210,
            "midi": 58,
            "name": "A#3",
            "ticks": 187685,
            "time": 211.35677062500002,
            "velocity": 0.3779527559055118
          },
          {
            "duration": 0.09009000000003198,
            "durationTicks": 80,
            "midi": 58,
            "name": "A#3",
            "ticks": 187915,
            "time": 211.615779375,
            "velocity": 0.6535433070866141
          },
          {
            "duration": 0.07882875000001377,
            "durationTicks": 70,
            "midi": 62,
            "name": "D4",
            "ticks": 187920,
            "time": 211.62141,
            "velocity": 0.7165354330708661
          },
          {
            "duration": 0.06756750000002398,
            "durationTicks": 60,
            "midi": 67,
            "name": "G4",
            "ticks": 187925,
            "time": 211.627040625,
            "velocity": 0.7165354330708661
          },
          {
            "duration": 0.2477475000000311,
            "durationTicks": 220,
            "midi": 50,
            "name": "D3",
            "ticks": 188155,
            "time": 211.886049375,
            "velocity": 0.41732283464566927
          },
          {
            "duration": 0.2364862500000129,
            "durationTicks": 210,
            "midi": 57,
            "name": "A3",
            "ticks": 188165,
            "time": 211.89731062500002,
            "velocity": 0.3779527559055118
          },
          {
            "duration": 0.04504500000001599,
            "durationTicks": 40,
            "midi": 57,
            "name": "A3",
            "ticks": 188395,
            "time": 212.156319375,
            "velocity": 0.6535433070866141
          },
          {
            "duration": 0.03378374999999778,
            "durationTicks": 30,
            "midi": 60,
            "name": "C4",
            "ticks": 188400,
            "time": 212.16195000000002,
            "velocity": 0.7165354330708661
          },
          {
            "duration": 0.022522499999979573,
            "durationTicks": 20,
            "midi": 67,
            "name": "G4",
            "ticks": 188405,
            "time": 212.16758062500003,
            "velocity": 0.7165354330708661
          },
          {
            "duration": 0.011261249999989786,
            "durationTicks": 10,
            "midi": 67,
            "name": "G4",
            "ticks": 188555,
            "time": 212.33649937500002,
            "velocity": 0.4409448818897638
          },
          {
            "duration": 0.011261250000018208,
            "durationTicks": 10,
            "midi": 60,
            "name": "C4",
            "ticks": 188560,
            "time": 212.34213,
            "velocity": 0.4409448818897638
          },
          {
            "duration": 0.011261249999989786,
            "durationTicks": 10,
            "midi": 57,
            "name": "A3",
            "ticks": 188565,
            "time": 212.347760625,
            "velocity": 0.3779527559055118
          },
          {
            "duration": 0.2477475000000311,
            "durationTicks": 220,
            "midi": 50,
            "name": "D3",
            "ticks": 188635,
            "time": 212.426589375,
            "velocity": 0.49606299212598426
          },
          {
            "duration": 0.2364862500000129,
            "durationTicks": 210,
            "midi": 57,
            "name": "A3",
            "ticks": 188645,
            "time": 212.437850625,
            "velocity": 0.4566929133858268
          },
          {
            "duration": 0.09009000000000356,
            "durationTicks": 80,
            "midi": 57,
            "name": "A3",
            "ticks": 188875,
            "time": 212.696859375,
            "velocity": 0.6535433070866141
          },
          {
            "duration": 0.07882874999998535,
            "durationTicks": 70,
            "midi": 60,
            "name": "C4",
            "ticks": 188885,
            "time": 212.70812062500002,
            "velocity": 0.7165354330708661
          },
          {
            "duration": 0.06756749999999556,
            "durationTicks": 60,
            "midi": 67,
            "name": "G4",
            "ticks": 188895,
            "time": 212.719381875,
            "velocity": 0.7165354330708661
          },
          {
            "duration": 0.2477475000000311,
            "durationTicks": 220,
            "midi": 50,
            "name": "D3",
            "ticks": 189115,
            "time": 212.96712937499998,
            "velocity": 0.5354330708661418
          },
          {
            "duration": 0.23648624999998447,
            "durationTicks": 210,
            "midi": 57,
            "name": "A3",
            "ticks": 189125,
            "time": 212.97839062500003,
            "velocity": 0.49606299212598426
          },
          {
            "duration": 0.04504500000001599,
            "durationTicks": 40,
            "midi": 57,
            "name": "A3",
            "ticks": 189355,
            "time": 213.237399375,
            "velocity": 0.6535433070866141
          },
          {
            "duration": 0.03378374999999778,
            "durationTicks": 30,
            "midi": 60,
            "name": "C4",
            "ticks": 189360,
            "time": 213.24303,
            "velocity": 0.7165354330708661
          },
          {
            "duration": 0.022522499999979573,
            "durationTicks": 20,
            "midi": 66,
            "name": "F#4",
            "ticks": 189365,
            "time": 213.248660625,
            "velocity": 0.7165354330708661
          },
          {
            "duration": 0.011261249999989786,
            "durationTicks": 10,
            "midi": 66,
            "name": "F#4",
            "ticks": 189515,
            "time": 213.41757937500003,
            "velocity": 0.5984251968503937
          },
          {
            "duration": 0.011261250000018208,
            "durationTicks": 10,
            "midi": 60,
            "name": "C4",
            "ticks": 189520,
            "time": 213.42321,
            "velocity": 0.5984251968503937
          },
          {
            "duration": 0.011261249999989786,
            "durationTicks": 10,
            "midi": 57,
            "name": "A3",
            "ticks": 189525,
            "time": 213.42884062500002,
            "velocity": 0.5354330708661418
          },
          {
            "duration": 0.24774750000000267,
            "durationTicks": 220,
            "midi": 50,
            "name": "D3",
            "ticks": 189595,
            "time": 213.507669375,
            "velocity": 0.5748031496062992
          },
          {
            "duration": 0.23648624999998447,
            "durationTicks": 210,
            "midi": 57,
            "name": "A3",
            "ticks": 189605,
            "time": 213.51893062500002,
            "velocity": 0.5354330708661418
          },
          {
            "duration": 0.09009000000003198,
            "durationTicks": 80,
            "midi": 57,
            "name": "A3",
            "ticks": 189835,
            "time": 213.777939375,
            "velocity": 0.6535433070866141
          },
          {
            "duration": 0.07882875000001377,
            "durationTicks": 70,
            "midi": 60,
            "name": "C4",
            "ticks": 189840,
            "time": 213.78357,
            "velocity": 0.7165354330708661
          },
          {
            "duration": 0.06756750000002398,
            "durationTicks": 60,
            "midi": 66,
            "name": "F#4",
            "ticks": 189845,
            "time": 213.789200625,
            "velocity": 0.7165354330708661
          },
          {
            "duration": 0.2252250000000231,
            "durationTicks": 200,
            "midi": 55,
            "name": "G3",
            "ticks": 190075,
            "time": 214.048209375,
            "velocity": 0.6377952755905512
          },
          {
            "duration": 0.2252250000000231,
            "durationTicks": 200,
            "midi": 58,
            "name": "A#3",
            "ticks": 190080,
            "time": 214.05384,
            "velocity": 0.6377952755905512
          },
          {
            "duration": 0.2139637500000049,
            "durationTicks": 190,
            "midi": 62,
            "name": "D4",
            "ticks": 190085,
            "time": 214.05947062500002,
            "velocity": 0.5984251968503937
          },
          {
            "duration": 0.15765749999999912,
            "durationTicks": 140,
            "midi": 58,
            "name": "A#3",
            "ticks": 190315,
            "time": 214.318479375,
            "velocity": 0.7165354330708661
          },
          {
            "duration": 0.15765749999999912,
            "durationTicks": 140,
            "midi": 62,
            "name": "D4",
            "ticks": 190320,
            "time": 214.32411000000002,
            "velocity": 0.7007874015748031
          },
          {
            "duration": 0.1463962499999809,
            "durationTicks": 130,
            "midi": 67,
            "name": "G4",
            "ticks": 190325,
            "time": 214.32974062500003,
            "velocity": 0.7007874015748031
          },
          {
            "duration": 0.06756749999999556,
            "durationTicks": 60,
            "midi": 67,
            "name": "G4",
            "ticks": 190475,
            "time": 214.49865937500002,
            "velocity": 0.5826771653543307
          },
          {
            "duration": 0.06756749999999556,
            "durationTicks": 60,
            "midi": 62,
            "name": "D4",
            "ticks": 190480,
            "time": 214.50429,
            "velocity": 0.5826771653543307
          },
          {
            "duration": 0.06756749999999556,
            "durationTicks": 60,
            "midi": 58,
            "name": "A#3",
            "ticks": 190485,
            "time": 214.509920625,
            "velocity": 0.5984251968503937
          },
          {
            "duration": 0.2252250000000231,
            "durationTicks": 200,
            "midi": 55,
            "name": "G3",
            "ticks": 190555,
            "time": 214.588749375,
            "velocity": 0.6771653543307087
          },
          {
            "duration": 0.2252250000000231,
            "durationTicks": 200,
            "midi": 58,
            "name": "A#3",
            "ticks": 190560,
            "time": 214.59438,
            "velocity": 0.6771653543307087
          },
          {
            "duration": 0.2139637500000049,
            "durationTicks": 190,
            "midi": 62,
            "name": "D4",
            "ticks": 190565,
            "time": 214.600010625,
            "velocity": 0.6377952755905512
          },
          {
            "duration": 0.1689187499999889,
            "durationTicks": 150,
            "midi": 58,
            "name": "A#3",
            "ticks": 190795,
            "time": 214.859019375,
            "velocity": 0.6299212598425197
          },
          {
            "duration": 0.1689187499999889,
            "durationTicks": 150,
            "midi": 62,
            "name": "D4",
            "ticks": 190800,
            "time": 214.86465,
            "velocity": 0.6299212598425197
          },
          {
            "duration": 0.1576574999999707,
            "durationTicks": 140,
            "midi": 67,
            "name": "G4",
            "ticks": 190805,
            "time": 214.87028062500002,
            "velocity": 0.6220472440944882
          },
          {
            "duration": 0.056306249999977354,
            "durationTicks": 50,
            "midi": 67,
            "name": "G4",
            "ticks": 190955,
            "time": 215.039199375,
            "velocity": 0.6220472440944882
          },
          {
            "duration": 0.056306250000005775,
            "durationTicks": 50,
            "midi": 62,
            "name": "D4",
            "ticks": 190960,
            "time": 215.04483,
            "velocity": 0.6220472440944882
          },
          {
            "duration": 0.04504499999998757,
            "durationTicks": 40,
            "midi": 58,
            "name": "A#3",
            "ticks": 190965,
            "time": 215.050460625,
            "velocity": 0.6377952755905512
          },
          {
            "duration": 0.2477475000000311,
            "durationTicks": 220,
            "midi": 48,
            "name": "C3",
            "ticks": 191035,
            "time": 215.12928937499998,
            "velocity": 0.5984251968503937
          },
          {
            "duration": 0.24774749999997425,
            "durationTicks": 220,
            "midi": 55,
            "name": "G3",
            "ticks": 191040,
            "time": 215.13492000000002,
            "velocity": 0.5984251968503937
          },
          {
            "duration": 0.23648624999998447,
            "durationTicks": 210,
            "midi": 58,
            "name": "A#3",
            "ticks": 191045,
            "time": 215.14055062500003,
            "velocity": 0.5826771653543307
          },
          {
            "duration": 0.04504500000001599,
            "durationTicks": 40,
            "midi": 58,
            "name": "A#3",
            "ticks": 191275,
            "time": 215.399559375,
            "velocity": 0.6377952755905512
          },
          {
            "duration": 0.03378374999999778,
            "durationTicks": 30,
            "midi": 64,
            "name": "E4",
            "ticks": 191280,
            "time": 215.40519,
            "velocity": 0.7007874015748031
          },
          {
            "duration": 0.022522499999979573,
            "durationTicks": 20,
            "midi": 67,
            "name": "G4",
            "ticks": 191285,
            "time": 215.410820625,
            "velocity": 0.7007874015748031
          },
          {
            "duration": 0.011261249999989786,
            "durationTicks": 10,
            "midi": 67,
            "name": "G4",
            "ticks": 191435,
            "time": 215.57973937500003,
            "velocity": 0.5826771653543307
          },
          {
            "duration": 0.011261250000018208,
            "durationTicks": 10,
            "midi": 64,
            "name": "E4",
            "ticks": 191440,
            "time": 215.58537,
            "velocity": 0.5826771653543307
          },
          {
            "duration": 0.011261249999989786,
            "durationTicks": 10,
            "midi": 58,
            "name": "A#3",
            "ticks": 191445,
            "time": 215.59100062500002,
            "velocity": 0.5196850393700787
          },
          {
            "duration": 0.24774750000000267,
            "durationTicks": 220,
            "midi": 48,
            "name": "C3",
            "ticks": 191515,
            "time": 215.669829375,
            "velocity": 0.5984251968503937
          },
          {
            "duration": 0.24774749999997425,
            "durationTicks": 220,
            "midi": 55,
            "name": "G3",
            "ticks": 191520,
            "time": 215.67546000000002,
            "velocity": 0.5984251968503937
          },
          {
            "duration": 0.23648624999998447,
            "durationTicks": 210,
            "midi": 58,
            "name": "A#3",
            "ticks": 191525,
            "time": 215.68109062500002,
            "velocity": 0.5826771653543307
          },
          {
            "duration": 0.04504500000001599,
            "durationTicks": 40,
            "midi": 58,
            "name": "A#3",
            "ticks": 191755,
            "time": 215.940099375,
            "velocity": 0.7165354330708661
          },
          {
            "duration": 0.03378374999999778,
            "durationTicks": 30,
            "midi": 64,
            "name": "E4",
            "ticks": 191760,
            "time": 215.94573,
            "velocity": 0.7007874015748031
          },
          {
            "duration": 0.022522499999979573,
            "durationTicks": 20,
            "midi": 67,
            "name": "G4",
            "ticks": 191765,
            "time": 215.951360625,
            "velocity": 0.7007874015748031
          },
          {
            "duration": 0.25900874999996404,
            "durationTicks": 230,
            "midi": 48,
            "name": "C3",
            "ticks": 191915,
            "time": 216.12027937500002,
            "velocity": 0.6771653543307087
          },
          {
            "duration": 0.24774750000000267,
            "durationTicks": 220,
            "midi": 55,
            "name": "G3",
            "ticks": 191920,
            "time": 216.12591,
            "velocity": 0.6771653543307087
          },
          {
            "duration": 0.24774749999997425,
            "durationTicks": 220,
            "midi": 58,
            "name": "A#3",
            "ticks": 191925,
            "time": 216.131540625,
            "velocity": 0.6614173228346457
          },
          {
            "duration": 0.04504500000001599,
            "durationTicks": 40,
            "midi": 67,
            "name": "G4",
            "ticks": 192155,
            "time": 216.390549375,
            "velocity": 0.6929133858267716
          },
          {
            "duration": 0.04504500000004441,
            "durationTicks": 40,
            "midi": 63,
            "name": "D#4",
            "ticks": 192160,
            "time": 216.39618,
            "velocity": 0.6929133858267716
          },
          {
            "duration": 0.0337837500000262,
            "durationTicks": 30,
            "midi": 58,
            "name": "A#3",
            "ticks": 192165,
            "time": 216.401810625,
            "velocity": 0.7086614173228346
          },
          {
            "duration": 0.25900874999999246,
            "durationTicks": 230,
            "midi": 48,
            "name": "C3",
            "ticks": 192235,
            "time": 216.480639375,
            "velocity": 0.5984251968503937
          },
          {
            "duration": 0.24774749999997425,
            "durationTicks": 220,
            "midi": 55,
            "name": "G3",
            "ticks": 192240,
            "time": 216.48627000000002,
            "velocity": 0.5984251968503937
          },
          {
            "duration": 0.23648624999998447,
            "durationTicks": 210,
            "midi": 58,
            "name": "A#3",
            "ticks": 192245,
            "time": 216.49190062500003,
            "velocity": 0.5826771653543307
          },
          {
            "duration": 0.2364862500000129,
            "durationTicks": 210,
            "midi": 48,
            "name": "C3",
            "ticks": 192475,
            "time": 216.750909375,
            "velocity": 0.6377952755905512
          },
          {
            "duration": 0.2364862500000129,
            "durationTicks": 210,
            "midi": 55,
            "name": "G3",
            "ticks": 192480,
            "time": 216.75654,
            "velocity": 0.6377952755905512
          },
          {
            "duration": 0.22522499999999468,
            "durationTicks": 200,
            "midi": 58,
            "name": "A#3",
            "ticks": 192485,
            "time": 216.762170625,
            "velocity": 0.6220472440944882
          },
          {
            "duration": 0.04504500000001599,
            "durationTicks": 40,
            "midi": 58,
            "name": "A#3",
            "ticks": 192715,
            "time": 217.021179375,
            "velocity": 0.6377952755905512
          },
          {
            "duration": 0.03378374999999778,
            "durationTicks": 30,
            "midi": 63,
            "name": "D#4",
            "ticks": 192720,
            "time": 217.02681,
            "velocity": 0.7007874015748031
          },
          {
            "duration": 0.022522499999979573,
            "durationTicks": 20,
            "midi": 67,
            "name": "G4",
            "ticks": 192725,
            "time": 217.03244062500002,
            "velocity": 0.7007874015748031
          },
          {
            "duration": 0.011261249999989786,
            "durationTicks": 10,
            "midi": 67,
            "name": "G4",
            "ticks": 192875,
            "time": 217.201359375,
            "velocity": 0.48031496062992124
          },
          {
            "duration": 0.011261250000018208,
            "durationTicks": 10,
            "midi": 63,
            "name": "D#4",
            "ticks": 192880,
            "time": 217.20699,
            "velocity": 0.48031496062992124
          },
          {
            "duration": 0.011261249999989786,
            "durationTicks": 10,
            "midi": 58,
            "name": "A#3",
            "ticks": 192885,
            "time": 217.212620625,
            "velocity": 0.41732283464566927
          },
          {
            "duration": 0.2477475000000311,
            "durationTicks": 220,
            "midi": 46,
            "name": "A#2",
            "ticks": 192955,
            "time": 217.29144937499998,
            "velocity": 0.5354330708661418
          },
          {
            "duration": 0.23648624999998447,
            "durationTicks": 210,
            "midi": 53,
            "name": "F3",
            "ticks": 192965,
            "time": 217.30271062500003,
            "velocity": 0.49606299212598426
          },
          {
            "duration": 0.04504500000001599,
            "durationTicks": 40,
            "midi": 56,
            "name": "G#3",
            "ticks": 193195,
            "time": 217.561719375,
            "velocity": 0.6929133858267716
          },
          {
            "duration": 0.03378374999999778,
            "durationTicks": 30,
            "midi": 62,
            "name": "D4",
            "ticks": 193200,
            "time": 217.56735,
            "velocity": 0.7559055118110236
          },
          {
            "duration": 0.022522499999979573,
            "durationTicks": 20,
            "midi": 65,
            "name": "F4",
            "ticks": 193205,
            "time": 217.572980625,
            "velocity": 0.7559055118110236
          },
          {
            "duration": 0.011261249999989786,
            "durationTicks": 10,
            "midi": 65,
            "name": "F4",
            "ticks": 193355,
            "time": 217.74189937500003,
            "velocity": 0.48031496062992124
          },
          {
            "duration": 0.011261250000018208,
            "durationTicks": 10,
            "midi": 62,
            "name": "D4",
            "ticks": 193360,
            "time": 217.74753,
            "velocity": 0.48031496062992124
          },
          {
            "duration": 0.011261249999989786,
            "durationTicks": 10,
            "midi": 56,
            "name": "G#3",
            "ticks": 193365,
            "time": 217.75316062500002,
            "velocity": 0.41732283464566927
          },
          {
            "duration": 0.24774750000000267,
            "durationTicks": 220,
            "midi": 46,
            "name": "A#2",
            "ticks": 193435,
            "time": 217.831989375,
            "velocity": 0.5354330708661418
          },
          {
            "duration": 0.23648624999998447,
            "durationTicks": 210,
            "midi": 53,
            "name": "F3",
            "ticks": 193445,
            "time": 217.84325062500002,
            "velocity": 0.49606299212598426
          },
          {
            "duration": 0.04504500000001599,
            "durationTicks": 40,
            "midi": 56,
            "name": "G#3",
            "ticks": 193675,
            "time": 218.102259375,
            "velocity": 0.6929133858267716
          },
          {
            "duration": 0.03378374999999778,
            "durationTicks": 30,
            "midi": 62,
            "name": "D4",
            "ticks": 193680,
            "time": 218.10789,
            "velocity": 0.7559055118110236
          },
          {
            "duration": 0.022522499999979573,
            "durationTicks": 20,
            "midi": 65,
            "name": "F4",
            "ticks": 193685,
            "time": 218.113520625,
            "velocity": 0.7559055118110236
          },
          {
            "duration": 0.33783750000000623,
            "durationTicks": 300,
            "midi": 51,
            "name": "D#3",
            "ticks": 193835,
            "time": 218.28243937500002,
            "velocity": 0.6929133858267716
          },
          {
            "duration": 0.32657625000001644,
            "durationTicks": 290,
            "midi": 58,
            "name": "A#3",
            "ticks": 193845,
            "time": 218.293700625,
            "velocity": 0.6535433070866141
          },
          {
            "duration": 0.04504500000001599,
            "durationTicks": 40,
            "midi": 58,
            "name": "A#3",
            "ticks": 194155,
            "time": 218.642799375,
            "velocity": 0.6929133858267716
          },
          {
            "duration": 0.03378374999999778,
            "durationTicks": 30,
            "midi": 62,
            "name": "D4",
            "ticks": 194160,
            "time": 218.64843000000002,
            "velocity": 0.7559055118110236
          },
          {
            "duration": 0.022522499999979573,
            "durationTicks": 20,
            "midi": 67,
            "name": "G4",
            "ticks": 194165,
            "time": 218.65406062500003,
            "velocity": 0.7559055118110236
          },
          {
            "duration": 0.011261249999989786,
            "durationTicks": 10,
            "midi": 67,
            "name": "G4",
            "ticks": 194315,
            "time": 218.82297937500002,
            "velocity": 0.48031496062992124
          },
          {
            "duration": 0.011261250000018208,
            "durationTicks": 10,
            "midi": 62,
            "name": "D4",
            "ticks": 194320,
            "time": 218.82861,
            "velocity": 0.48031496062992124
          },
          {
            "duration": 0.011261249999989786,
            "durationTicks": 10,
            "midi": 58,
            "name": "A#3",
            "ticks": 194325,
            "time": 218.834240625,
            "velocity": 0.41732283464566927
          },
          {
            "duration": 0.2477475000000311,
            "durationTicks": 220,
            "midi": 51,
            "name": "D#3",
            "ticks": 194395,
            "time": 218.913069375,
            "velocity": 0.5354330708661418
          },
          {
            "duration": 0.2364862500000129,
            "durationTicks": 210,
            "midi": 58,
            "name": "A#3",
            "ticks": 194405,
            "time": 218.924330625,
            "velocity": 0.49606299212598426
          },
          {
            "duration": 0.09009000000000356,
            "durationTicks": 80,
            "midi": 58,
            "name": "A#3",
            "ticks": 194635,
            "time": 219.183339375,
            "velocity": 0.6929133858267716
          },
          {
            "duration": 0.07882874999998535,
            "durationTicks": 70,
            "midi": 62,
            "name": "D4",
            "ticks": 194645,
            "time": 219.19460062500002,
            "velocity": 0.7559055118110236
          },
          {
            "duration": 0.06756749999999556,
            "durationTicks": 60,
            "midi": 67,
            "name": "G4",
            "ticks": 194655,
            "time": 219.205861875,
            "velocity": 0.7559055118110236
          },
          {
            "duration": 0.2477475000000311,
            "durationTicks": 220,
            "midi": 51,
            "name": "D#3",
            "ticks": 194875,
            "time": 219.45360937499998,
            "velocity": 0.5354330708661418
          },
          {
            "duration": 0.23648624999998447,
            "durationTicks": 210,
            "midi": 58,
            "name": "A#3",
            "ticks": 194885,
            "time": 219.46487062500003,
            "velocity": 0.49606299212598426
          },
          {
            "duration": 0.04504500000001599,
            "durationTicks": 40,
            "midi": 58,
            "name": "A#3",
            "ticks": 195115,
            "time": 219.723879375,
            "velocity": 0.6929133858267716
          },
          {
            "duration": 0.03378374999999778,
            "durationTicks": 30,
            "midi": 62,
            "name": "D4",
            "ticks": 195120,
            "time": 219.72951,
            "velocity": 0.7559055118110236
          },
          {
            "duration": 0.022522499999979573,
            "durationTicks": 20,
            "midi": 67,
            "name": "G4",
            "ticks": 195125,
            "time": 219.735140625,
            "velocity": 0.7559055118110236
          },
          {
            "duration": 0.011261249999989786,
            "durationTicks": 10,
            "midi": 67,
            "name": "G4",
            "ticks": 195275,
            "time": 219.90405937500003,
            "velocity": 0.5590551181102362
          },
          {
            "duration": 0.011261250000018208,
            "durationTicks": 10,
            "midi": 62,
            "name": "D4",
            "ticks": 195280,
            "time": 219.90969,
            "velocity": 0.5590551181102362
          },
          {
            "duration": 0.011261249999989786,
            "durationTicks": 10,
            "midi": 58,
            "name": "A#3",
            "ticks": 195285,
            "time": 219.91532062500002,
            "velocity": 0.49606299212598426
          },
          {
            "duration": 0.24774750000000267,
            "durationTicks": 220,
            "midi": 51,
            "name": "D#3",
            "ticks": 195355,
            "time": 219.994149375,
            "velocity": 0.5354330708661418
          },
          {
            "duration": 0.23648624999998447,
            "durationTicks": 210,
            "midi": 58,
            "name": "A#3",
            "ticks": 195365,
            "time": 220.00541062500002,
            "velocity": 0.49606299212598426
          },
          {
            "duration": 0.09009000000003198,
            "durationTicks": 80,
            "midi": 58,
            "name": "A#3",
            "ticks": 195595,
            "time": 220.264419375,
            "velocity": 0.6929133858267716
          },
          {
            "duration": 0.07882875000001377,
            "durationTicks": 70,
            "midi": 62,
            "name": "D4",
            "ticks": 195600,
            "time": 220.27005,
            "velocity": 0.7559055118110236
          },
          {
            "duration": 0.06756750000002398,
            "durationTicks": 60,
            "midi": 67,
            "name": "G4",
            "ticks": 195605,
            "time": 220.275680625,
            "velocity": 0.7559055118110236
          },
          {
            "duration": 0.07882874999998535,
            "durationTicks": 70,
            "midi": 57,
            "name": "A3",
            "ticks": 196085,
            "time": 220.81622062500003,
            "velocity": 0.6299212598425197
          },
          {
            "duration": 0.07882875000001377,
            "durationTicks": 70,
            "midi": 60,
            "name": "C4",
            "ticks": 196090,
            "time": 220.82185125,
            "velocity": 0.6299212598425197
          },
          {
            "duration": 0.06756749999999556,
            "durationTicks": 60,
            "midi": 67,
            "name": "G4",
            "ticks": 196095,
            "time": 220.82748187500002,
            "velocity": 0.7244094488188977
          },
          {
            "duration": 0.056306250000005775,
            "durationTicks": 50,
            "midi": 57,
            "name": "A3",
            "ticks": 196455,
            "time": 221.23288687500002,
            "velocity": 0.7244094488188977
          },
          {
            "duration": 0.056306249999977354,
            "durationTicks": 50,
            "midi": 60,
            "name": "C4",
            "ticks": 196460,
            "time": 221.23851750000003,
            "velocity": 0.6299212598425197
          },
          {
            "duration": 0.04504500000001599,
            "durationTicks": 40,
            "midi": 67,
            "name": "G4",
            "ticks": 196465,
            "time": 221.244148125,
            "velocity": 0.6929133858267716
          },
          {
            "duration": 0.10135124999999334,
            "durationTicks": 90,
            "midi": 57,
            "name": "A3",
            "ticks": 196805,
            "time": 221.62703062500003,
            "velocity": 0.6929133858267716
          },
          {
            "duration": 0.09009000000003198,
            "durationTicks": 80,
            "midi": 60,
            "name": "C4",
            "ticks": 196810,
            "time": 221.63266124999998,
            "velocity": 0.7086614173228346
          },
          {
            "duration": 0.07882874999998535,
            "durationTicks": 70,
            "midi": 66,
            "name": "F#4",
            "ticks": 196815,
            "time": 221.63829187500002,
            "velocity": 0.6929133858267716
          },
          {
            "duration": 0.2477475000000311,
            "durationTicks": 220,
            "midi": 43,
            "name": "G2",
            "ticks": 197755,
            "time": 222.696849375,
            "velocity": 0.41732283464566927
          },
          {
            "duration": 0.2364862500000129,
            "durationTicks": 210,
            "midi": 50,
            "name": "D3",
            "ticks": 197765,
            "time": 222.70811062500002,
            "velocity": 0.3779527559055118
          },
          {
            "duration": 0.04504500000001599,
            "durationTicks": 40,
            "midi": 58,
            "name": "A#3",
            "ticks": 197995,
            "time": 222.967119375,
            "velocity": 0.7322834645669292
          },
          {
            "duration": 0.03378374999999778,
            "durationTicks": 30,
            "midi": 62,
            "name": "D4",
            "ticks": 198000,
            "time": 222.97275000000002,
            "velocity": 0.7165354330708661
          },
          {
            "duration": 0.022522499999979573,
            "durationTicks": 20,
            "midi": 67,
            "name": "G4",
            "ticks": 198005,
            "time": 222.97838062500003,
            "velocity": 0.7165354330708661
          },
          {
            "duration": 0.011261249999989786,
            "durationTicks": 10,
            "midi": 67,
            "name": "G4",
            "ticks": 198155,
            "time": 223.14729937500002,
            "velocity": 0.4409448818897638
          },
          {
            "duration": 0.011261250000018208,
            "durationTicks": 10,
            "midi": 62,
            "name": "D4",
            "ticks": 198160,
            "time": 223.15293,
            "velocity": 0.4409448818897638
          },
          {
            "duration": 0.011261249999989786,
            "durationTicks": 10,
            "midi": 58,
            "name": "A#3",
            "ticks": 198165,
            "time": 223.158560625,
            "velocity": 0.4566929133858268
          },
          {
            "duration": 0.2477475000000311,
            "durationTicks": 220,
            "midi": 43,
            "name": "G2",
            "ticks": 198235,
            "time": 223.237389375,
            "velocity": 0.41732283464566927
          },
          {
            "duration": 0.2364862500000129,
            "durationTicks": 210,
            "midi": 50,
            "name": "D3",
            "ticks": 198245,
            "time": 223.248650625,
            "velocity": 0.3779527559055118
          },
          {
            "duration": 0.04504500000001599,
            "durationTicks": 40,
            "midi": 58,
            "name": "A#3",
            "ticks": 198475,
            "time": 223.507659375,
            "velocity": 0.7322834645669292
          },
          {
            "duration": 0.03378374999999778,
            "durationTicks": 30,
            "midi": 62,
            "name": "D4",
            "ticks": 198480,
            "time": 223.51329,
            "velocity": 0.7165354330708661
          },
          {
            "duration": 0.022522499999979573,
            "durationTicks": 20,
            "midi": 67,
            "name": "G4",
            "ticks": 198485,
            "time": 223.51892062500002,
            "velocity": 0.7165354330708661
          },
          {
            "duration": 0.011261249999989786,
            "durationTicks": 10,
            "midi": 67,
            "name": "G4",
            "ticks": 198635,
            "time": 223.687839375,
            "velocity": 0.4409448818897638
          },
          {
            "duration": 0.011261250000018208,
            "durationTicks": 10,
            "midi": 62,
            "name": "D4",
            "ticks": 198640,
            "time": 223.69347,
            "velocity": 0.4409448818897638
          },
          {
            "duration": 0.011261249999989786,
            "durationTicks": 10,
            "midi": 58,
            "name": "A#3",
            "ticks": 198645,
            "time": 223.699100625,
            "velocity": 0.4566929133858268
          },
          {
            "duration": 0.2477475000000311,
            "durationTicks": 220,
            "midi": 46,
            "name": "A#2",
            "ticks": 198715,
            "time": 223.77792937499999,
            "velocity": 0.41732283464566927
          },
          {
            "duration": 0.23648624999998447,
            "durationTicks": 210,
            "midi": 53,
            "name": "F3",
            "ticks": 198725,
            "time": 223.78919062500003,
            "velocity": 0.3779527559055118
          },
          {
            "duration": 0.04504500000001599,
            "durationTicks": 40,
            "midi": 56,
            "name": "G#3",
            "ticks": 198955,
            "time": 224.048199375,
            "velocity": 0.6535433070866141
          },
          {
            "duration": 0.03378374999999778,
            "durationTicks": 30,
            "midi": 62,
            "name": "D4",
            "ticks": 198960,
            "time": 224.05383,
            "velocity": 0.7165354330708661
          },
          {
            "duration": 0.022522499999979573,
            "durationTicks": 20,
            "midi": 65,
            "name": "F4",
            "ticks": 198965,
            "time": 224.059460625,
            "velocity": 0.7165354330708661
          },
          {
            "duration": 0.011261249999989786,
            "durationTicks": 10,
            "midi": 65,
            "name": "F4",
            "ticks": 199115,
            "time": 224.22837937500003,
            "velocity": 0.4409448818897638
          },
          {
            "duration": 0.011261250000018208,
            "durationTicks": 10,
            "midi": 62,
            "name": "D4",
            "ticks": 199120,
            "time": 224.23401,
            "velocity": 0.4409448818897638
          },
          {
            "duration": 0.011261249999989786,
            "durationTicks": 10,
            "midi": 56,
            "name": "G#3",
            "ticks": 199125,
            "time": 224.23964062500002,
            "velocity": 0.3779527559055118
          },
          {
            "duration": 0.24774750000000267,
            "durationTicks": 220,
            "midi": 46,
            "name": "A#2",
            "ticks": 199195,
            "time": 224.318469375,
            "velocity": 0.41732283464566927
          },
          {
            "duration": 0.23648624999998447,
            "durationTicks": 210,
            "midi": 53,
            "name": "F3",
            "ticks": 199205,
            "time": 224.32973062500002,
            "velocity": 0.3779527559055118
          },
          {
            "duration": 0.04504500000001599,
            "durationTicks": 40,
            "midi": 56,
            "name": "G#3",
            "ticks": 199435,
            "time": 224.588739375,
            "velocity": 0.6535433070866141
          },
          {
            "duration": 0.03378374999999778,
            "durationTicks": 30,
            "midi": 62,
            "name": "D4",
            "ticks": 199440,
            "time": 224.59437,
            "velocity": 0.7165354330708661
          },
          {
            "duration": 0.022522499999979573,
            "durationTicks": 20,
            "midi": 65,
            "name": "F4",
            "ticks": 199445,
            "time": 224.600000625,
            "velocity": 0.7165354330708661
          },
          {
            "duration": 0.011261249999989786,
            "durationTicks": 10,
            "midi": 65,
            "name": "F4",
            "ticks": 199595,
            "time": 224.76891937500002,
            "velocity": 0.4409448818897638
          },
          {
            "duration": 0.011261250000018208,
            "durationTicks": 10,
            "midi": 62,
            "name": "D4",
            "ticks": 199600,
            "time": 224.77455,
            "velocity": 0.4409448818897638
          },
          {
            "duration": 0.011261249999989786,
            "durationTicks": 10,
            "midi": 56,
            "name": "G#3",
            "ticks": 199605,
            "time": 224.780180625,
            "velocity": 0.3779527559055118
          },
          {
            "duration": 0.2477475000000311,
            "durationTicks": 220,
            "midi": 51,
            "name": "D#3",
            "ticks": 199675,
            "time": 224.859009375,
            "velocity": 0.41732283464566927
          },
          {
            "duration": 0.2364862500000129,
            "durationTicks": 210,
            "midi": 58,
            "name": "A#3",
            "ticks": 199685,
            "time": 224.87027062500002,
            "velocity": 0.3779527559055118
          },
          {
            "duration": 0.04504500000001599,
            "durationTicks": 40,
            "midi": 58,
            "name": "A#3",
            "ticks": 199915,
            "time": 225.129279375,
            "velocity": 0.6535433070866141
          },
          {
            "duration": 0.03378374999999778,
            "durationTicks": 30,
            "midi": 62,
            "name": "D4",
            "ticks": 199920,
            "time": 225.13491000000002,
            "velocity": 0.7165354330708661
          },
          {
            "duration": 0.022522499999979573,
            "durationTicks": 20,
            "midi": 67,
            "name": "G4",
            "ticks": 199925,
            "time": 225.14054062500003,
            "velocity": 0.7165354330708661
          },
          {
            "duration": 0.011261249999989786,
            "durationTicks": 10,
            "midi": 67,
            "name": "G4",
            "ticks": 200075,
            "time": 225.30945937500002,
            "velocity": 0.4409448818897638
          },
          {
            "duration": 0.011261250000018208,
            "durationTicks": 10,
            "midi": 62,
            "name": "D4",
            "ticks": 200080,
            "time": 225.31509,
            "velocity": 0.4409448818897638
          },
          {
            "duration": 0.011261249999989786,
            "durationTicks": 10,
            "midi": 58,
            "name": "A#3",
            "ticks": 200085,
            "time": 225.320720625,
            "velocity": 0.3779527559055118
          },
          {
            "duration": 0.2477475000000311,
            "durationTicks": 220,
            "midi": 51,
            "name": "D#3",
            "ticks": 200155,
            "time": 225.399549375,
            "velocity": 0.41732283464566927
          },
          {
            "duration": 0.2364862500000129,
            "durationTicks": 210,
            "midi": 58,
            "name": "A#3",
            "ticks": 200165,
            "time": 225.410810625,
            "velocity": 0.3779527559055118
          },
          {
            "duration": 0.09009000000000356,
            "durationTicks": 80,
            "midi": 58,
            "name": "A#3",
            "ticks": 200395,
            "time": 225.669819375,
            "velocity": 0.6535433070866141
          },
          {
            "duration": 0.07882874999998535,
            "durationTicks": 70,
            "midi": 62,
            "name": "D4",
            "ticks": 200405,
            "time": 225.68108062500002,
            "velocity": 0.7165354330708661
          },
          {
            "duration": 0.06756749999999556,
            "durationTicks": 60,
            "midi": 67,
            "name": "G4",
            "ticks": 200415,
            "time": 225.692341875,
            "velocity": 0.7165354330708661
          },
          {
            "duration": 0.2477475000000311,
            "durationTicks": 220,
            "midi": 44,
            "name": "G#2",
            "ticks": 200635,
            "time": 225.94008937499999,
            "velocity": 0.41732283464566927
          },
          {
            "duration": 0.23648624999998447,
            "durationTicks": 210,
            "midi": 51,
            "name": "D#3",
            "ticks": 200645,
            "time": 225.95135062500003,
            "velocity": 0.3779527559055118
          },
          {
            "duration": 0.04504500000001599,
            "durationTicks": 40,
            "midi": 60,
            "name": "C4",
            "ticks": 200875,
            "time": 226.210359375,
            "velocity": 0.7322834645669292
          },
          {
            "duration": 0.03378374999999778,
            "durationTicks": 30,
            "midi": 63,
            "name": "D#4",
            "ticks": 200880,
            "time": 226.21599,
            "velocity": 0.7165354330708661
          },
          {
            "duration": 0.022522499999979573,
            "durationTicks": 20,
            "midi": 68,
            "name": "G#4",
            "ticks": 200885,
            "time": 226.221620625,
            "velocity": 0.7165354330708661
          },
          {
            "duration": 0.011261249999989786,
            "durationTicks": 10,
            "midi": 68,
            "name": "G#4",
            "ticks": 201035,
            "time": 226.39053937500003,
            "velocity": 0.4409448818897638
          },
          {
            "duration": 0.011261250000018208,
            "durationTicks": 10,
            "midi": 63,
            "name": "D#4",
            "ticks": 201040,
            "time": 226.39617,
            "velocity": 0.4409448818897638
          },
          {
            "duration": 0.011261249999989786,
            "durationTicks": 10,
            "midi": 60,
            "name": "C4",
            "ticks": 201045,
            "time": 226.40180062500002,
            "velocity": 0.4566929133858268
          },
          {
            "duration": 0.24774750000000267,
            "durationTicks": 220,
            "midi": 44,
            "name": "G#2",
            "ticks": 201115,
            "time": 226.480629375,
            "velocity": 0.41732283464566927
          },
          {
            "duration": 0.23648624999998447,
            "durationTicks": 210,
            "midi": 51,
            "name": "D#3",
            "ticks": 201125,
            "time": 226.49189062500002,
            "velocity": 0.3779527559055118
          },
          {
            "duration": 0.04504500000001599,
            "durationTicks": 40,
            "midi": 60,
            "name": "C4",
            "ticks": 201355,
            "time": 226.750899375,
            "velocity": 0.7322834645669292
          },
          {
            "duration": 0.03378374999999778,
            "durationTicks": 30,
            "midi": 63,
            "name": "D#4",
            "ticks": 201360,
            "time": 226.75653,
            "velocity": 0.7165354330708661
          },
          {
            "duration": 0.022522499999979573,
            "durationTicks": 20,
            "midi": 68,
            "name": "G#4",
            "ticks": 201365,
            "time": 226.762160625,
            "velocity": 0.7165354330708661
          },
          {
            "duration": 0.04504500000001599,
            "durationTicks": 40,
            "midi": 57,
            "name": "A3",
            "ticks": 201595,
            "time": 227.021169375,
            "velocity": 0.7086614173228346
          },
          {
            "duration": 0.03378374999999778,
            "durationTicks": 30,
            "midi": 60,
            "name": "C4",
            "ticks": 201605,
            "time": 227.03243062500002,
            "velocity": 0.6141732283464567
          },
          {
            "duration": 0.03378374999999778,
            "durationTicks": 30,
            "midi": 67,
            "name": "G4",
            "ticks": 201615,
            "time": 227.043691875,
            "velocity": 0.7086614173228346
          },
          {
            "duration": 0.056306250000005775,
            "durationTicks": 50,
            "midi": 57,
            "name": "A3",
            "ticks": 201855,
            "time": 227.31396187500002,
            "velocity": 0.7086614173228346
          },
          {
            "duration": 0.056306249999977354,
            "durationTicks": 50,
            "midi": 60,
            "name": "C4",
            "ticks": 201860,
            "time": 227.31959250000003,
            "velocity": 0.6141732283464567
          },
          {
            "duration": 0.056306250000005775,
            "durationTicks": 50,
            "midi": 67,
            "name": "G4",
            "ticks": 201865,
            "time": 227.325223125,
            "velocity": 0.7086614173228346
          },
          {
            "duration": 0.07882874999998535,
            "durationTicks": 70,
            "midi": 57,
            "name": "A3",
            "ticks": 202575,
            "time": 228.12477187500002,
            "velocity": 0.5275590551181102
          },
          {
            "duration": 0.09008999999997513,
            "durationTicks": 80,
            "midi": 60,
            "name": "C4",
            "ticks": 202580,
            "time": 228.13040250000003,
            "velocity": 0.7086614173228346
          },
          {
            "duration": 0.06756749999999556,
            "durationTicks": 60,
            "midi": 66,
            "name": "F#4",
            "ticks": 202585,
            "time": 228.136033125,
            "velocity": 0.7086614173228346
          },
          {
            "duration": 0.056306249999977354,
            "durationTicks": 50,
            "midi": 55,
            "name": "G3",
            "ticks": 205565,
            "time": 231.491885625,
            "velocity": 0.6062992125984252
          },
          {
            "duration": 0.04504500000001599,
            "durationTicks": 40,
            "midi": 58,
            "name": "A#3",
            "ticks": 205570,
            "time": 231.49751625,
            "velocity": 0.6929133858267716
          },
          {
            "duration": 0.04504499999998757,
            "durationTicks": 40,
            "midi": 62,
            "name": "D4",
            "ticks": 205575,
            "time": 231.503146875,
            "velocity": 0.7874015748031497
          },
          {
            "duration": 0.28153125000000045,
            "durationTicks": 250,
            "midi": 55,
            "name": "G3",
            "ticks": 205935,
            "time": 231.908551875,
            "velocity": 0.6929133858267716
          },
          {
            "duration": 0.27027000000001067,
            "durationTicks": 240,
            "midi": 58,
            "name": "A#3",
            "ticks": 205940,
            "time": 231.9141825,
            "velocity": 0.7874015748031497
          },
          {
            "duration": 0.27027000000001067,
            "durationTicks": 240,
            "midi": 64,
            "name": "E4",
            "ticks": 205945,
            "time": 231.919813125,
            "velocity": 0.6062992125984252
          },
          {
            "duration": 0.056306250000005775,
            "durationTicks": 50,
            "midi": 55,
            "name": "G3",
            "ticks": 206275,
            "time": 232.291434375,
            "velocity": 0.7716535433070866
          },
          {
            "duration": 0.056306250000005775,
            "durationTicks": 50,
            "midi": 58,
            "name": "A#3",
            "ticks": 206280,
            "time": 232.297065,
            "velocity": 0.7874015748031497
          },
          {
            "duration": 0.04504499999998757,
            "durationTicks": 40,
            "midi": 62,
            "name": "D4",
            "ticks": 206285,
            "time": 232.302695625,
            "velocity": 0.7716535433070866
          }
        ]
      },
      {
        "channel": 11,
        "controlChanges": {
          "0": [
            {
              "number": 0,
              "ticks": 89730,
              "time": 101.04719625,
              "value": 0
            },
            {
              "number": 0,
              "ticks": 179970,
              "time": 202.66871625000002,
              "value": 0
            },
            {
              "number": 0,
              "ticks": 203010,
              "time": 228.61463625000002,
              "value": 0
            }
          ],
          "7": [
            {
              "number": 7,
              "ticks": 83400,
              "time": 93.918825,
              "value": 0.7244094488188977
            },
            {
              "number": 7,
              "ticks": 173640,
              "time": 195.540345,
              "value": 0.7244094488188977
            },
            {
              "number": 7,
              "ticks": 196680,
              "time": 221.486265,
              "value": 0.7244094488188977
            }
          ],
          "10": [
            {
              "number": 10,
              "ticks": 83400,
              "time": 93.918825,
              "value": 0.5039370078740157
            },
            {
              "number": 10,
              "ticks": 173640,
              "time": 195.540345,
              "value": 0.5039370078740157
            },
            {
              "number": 10,
              "ticks": 196680,
              "time": 221.486265,
              "value": 0.5039370078740157
            }
          ],
          "32": [
            {
              "number": 32,
              "ticks": 89730,
              "time": 101.04719625,
              "value": 0
            },
            {
              "number": 32,
              "ticks": 179970,
              "time": 202.66871625000002,
              "value": 0
            },
            {
              "number": 32,
              "ticks": 203010,
              "time": 228.61463625000002,
              "value": 0
            }
          ],
          "91": [
            {
              "number": 91,
              "ticks": 83400,
              "time": 93.918825,
              "value": 0
            },
            {
              "number": 91,
              "ticks": 173640,
              "time": 195.540345,
              "value": 0
            },
            {
              "number": 91,
              "ticks": 196680,
              "time": 221.486265,
              "value": 0
            }
          ],
          "93": [
            {
              "number": 93,
              "ticks": 83400,
              "time": 93.918825,
              "value": 0.03937007874015748
            },
            {
              "number": 93,
              "ticks": 173640,
              "time": 195.540345,
              "value": 0.03937007874015748
            },
            {
              "number": 93,
              "ticks": 196680,
              "time": 221.486265,
              "value": 0.03937007874015748
            }
          ]
        },
        "pitchBends": [],
        "instrument": {
          "family": "ensemble",
          "number": 54,
          "name": "synth voice"
        },
        "name": "",
        "notes": [
          {
            "duration": 1.0698187500000103,
            "durationTicks": 950,
            "midi": 70,
            "name": "A#4",
            "ticks": 84470,
            "time": 95.12377875,
            "velocity": 0.7874015748031497
          },
          {
            "duration": 1.078827750000002,
            "durationTicks": 958,
            "midi": 62,
            "name": "D4",
            "ticks": 84470,
            "time": 95.12377875,
            "velocity": 0.6062992125984252
          },
          {
            "duration": 0.5090084999999931,
            "durationTicks": 452,
            "midi": 62,
            "name": "D4",
            "ticks": 85430,
            "time": 96.20485875,
            "velocity": 0.6062992125984252
          },
          {
            "duration": 0.5090084999999931,
            "durationTicks": 452,
            "midi": 70,
            "name": "A#4",
            "ticks": 85430,
            "time": 96.20485875,
            "velocity": 0.7874015748031497
          },
          {
            "duration": 0.4887382500000115,
            "durationTicks": 434,
            "midi": 62,
            "name": "D4",
            "ticks": 85910,
            "time": 96.74539874999999,
            "velocity": 0.6062992125984252
          },
          {
            "duration": 0.4887382500000115,
            "durationTicks": 434,
            "midi": 72,
            "name": "C5",
            "ticks": 85910,
            "time": 96.74539874999999,
            "velocity": 0.7874015748031497
          },
          {
            "duration": 1.0518007500000124,
            "durationTicks": 934,
            "midi": 62,
            "name": "D4",
            "ticks": 86390,
            "time": 97.28593875,
            "velocity": 0.6062992125984252
          },
          {
            "duration": 1.0371611250000115,
            "durationTicks": 921,
            "midi": 70,
            "name": "A#4",
            "ticks": 86390,
            "time": 97.28593875,
            "velocity": 0.7874015748031497
          },
          {
            "duration": 1.0213953750000115,
            "durationTicks": 907,
            "midi": 70,
            "name": "A#4",
            "ticks": 87350,
            "time": 98.36701875,
            "velocity": 0.7874015748031497
          },
          {
            "duration": 1.0247737500000085,
            "durationTicks": 910,
            "midi": 60,
            "name": "C4",
            "ticks": 87350,
            "time": 98.36701875,
            "velocity": 0.6062992125984252
          },
          {
            "duration": 1.0788277500000163,
            "durationTicks": 958,
            "midi": 62,
            "name": "D4",
            "ticks": 174720,
            "time": 196.75656,
            "velocity": 0.6062992125984252
          },
          {
            "duration": 1.0698187500000245,
            "durationTicks": 950,
            "midi": 70,
            "name": "A#4",
            "ticks": 174720,
            "time": 196.75656,
            "velocity": 0.7874015748031497
          },
          {
            "duration": 0.5090084999999931,
            "durationTicks": 452,
            "midi": 62,
            "name": "D4",
            "ticks": 175680,
            "time": 197.83764000000002,
            "velocity": 0.6062992125984252
          },
          {
            "duration": 0.5090084999999931,
            "durationTicks": 452,
            "midi": 70,
            "name": "A#4",
            "ticks": 175680,
            "time": 197.83764000000002,
            "velocity": 0.7874015748031497
          },
          {
            "duration": 0.48873824999998305,
            "durationTicks": 434,
            "midi": 62,
            "name": "D4",
            "ticks": 176160,
            "time": 198.37818000000001,
            "velocity": 0.6062992125984252
          },
          {
            "duration": 0.48873824999998305,
            "durationTicks": 434,
            "midi": 72,
            "name": "C5",
            "ticks": 176160,
            "time": 198.37818000000001,
            "velocity": 0.7874015748031497
          },
          {
            "duration": 1.051800749999984,
            "durationTicks": 934,
            "midi": 62,
            "name": "D4",
            "ticks": 176640,
            "time": 198.91872,
            "velocity": 0.6062992125984252
          },
          {
            "duration": 1.037161124999983,
            "durationTicks": 921,
            "midi": 70,
            "name": "A#4",
            "ticks": 176640,
            "time": 198.91872,
            "velocity": 0.7874015748031497
          },
          {
            "duration": 1.0247737500000085,
            "durationTicks": 910,
            "midi": 60,
            "name": "C4",
            "ticks": 177600,
            "time": 199.9998,
            "velocity": 0.6062992125984252
          },
          {
            "duration": 1.0213953750000258,
            "durationTicks": 907,
            "midi": 70,
            "name": "A#4",
            "ticks": 177600,
            "time": 199.9998,
            "velocity": 0.7874015748031497
          },
          {
            "duration": 1.0788277500000163,
            "durationTicks": 958,
            "midi": 62,
            "name": "D4",
            "ticks": 197760,
            "time": 222.70248,
            "velocity": 0.6062992125984252
          },
          {
            "duration": 1.0698187500000245,
            "durationTicks": 950,
            "midi": 70,
            "name": "A#4",
            "ticks": 197760,
            "time": 222.70248,
            "velocity": 0.7874015748031497
          },
          {
            "duration": 0.5090084999999931,
            "durationTicks": 452,
            "midi": 62,
            "name": "D4",
            "ticks": 198720,
            "time": 223.78356000000002,
            "velocity": 0.6062992125984252
          },
          {
            "duration": 0.5090084999999931,
            "durationTicks": 452,
            "midi": 70,
            "name": "A#4",
            "ticks": 198720,
            "time": 223.78356000000002,
            "velocity": 0.7874015748031497
          },
          {
            "duration": 0.48873824999998305,
            "durationTicks": 434,
            "midi": 62,
            "name": "D4",
            "ticks": 199200,
            "time": 224.32410000000002,
            "velocity": 0.6062992125984252
          },
          {
            "duration": 0.48873824999998305,
            "durationTicks": 434,
            "midi": 72,
            "name": "C5",
            "ticks": 199200,
            "time": 224.32410000000002,
            "velocity": 0.7874015748031497
          },
          {
            "duration": 1.051800749999984,
            "durationTicks": 934,
            "midi": 62,
            "name": "D4",
            "ticks": 199680,
            "time": 224.86464,
            "velocity": 0.6062992125984252
          },
          {
            "duration": 1.037161124999983,
            "durationTicks": 921,
            "midi": 70,
            "name": "A#4",
            "ticks": 199680,
            "time": 224.86464,
            "velocity": 0.7874015748031497
          },
          {
            "duration": 1.0247737500000085,
            "durationTicks": 910,
            "midi": 60,
            "name": "C4",
            "ticks": 200640,
            "time": 225.94572,
            "velocity": 0.6062992125984252
          },
          {
            "duration": 1.0213953750000258,
            "durationTicks": 907,
            "midi": 70,
            "name": "A#4",
            "ticks": 200640,
            "time": 225.94572,
            "velocity": 0.7874015748031497
          }
        ]
      },
      {
        "channel": 12,
        "controlChanges": {
          "0": [
            {
              "number": 0,
              "ticks": 89730,
              "time": 101.04719625,
              "value": 0
            },
            {
              "number": 0,
              "ticks": 179970,
              "time": 202.66871625000002,
              "value": 0
            },
            {
              "number": 0,
              "ticks": 203010,
              "time": 228.61463625000002,
              "value": 0
            }
          ],
          "7": [
            {
              "number": 7,
              "ticks": 83400,
              "time": 93.918825,
              "value": 0.6850393700787402
            },
            {
              "number": 7,
              "ticks": 173640,
              "time": 195.540345,
              "value": 0.6850393700787402
            },
            {
              "number": 7,
              "ticks": 196680,
              "time": 221.486265,
              "value": 0.6850393700787402
            }
          ],
          "10": [
            {
              "number": 10,
              "ticks": 83400,
              "time": 93.918825,
              "value": 0.5039370078740157
            },
            {
              "number": 10,
              "ticks": 173640,
              "time": 195.540345,
              "value": 0.5039370078740157
            },
            {
              "number": 10,
              "ticks": 196680,
              "time": 221.486265,
              "value": 0.5039370078740157
            }
          ],
          "32": [
            {
              "number": 32,
              "ticks": 89730,
              "time": 101.04719625,
              "value": 0
            },
            {
              "number": 32,
              "ticks": 179970,
              "time": 202.66871625000002,
              "value": 0
            },
            {
              "number": 32,
              "ticks": 203010,
              "time": 228.61463625000002,
              "value": 0
            }
          ],
          "91": [
            {
              "number": 91,
              "ticks": 83400,
              "time": 93.918825,
              "value": 0
            },
            {
              "number": 91,
              "ticks": 173640,
              "time": 195.540345,
              "value": 0
            },
            {
              "number": 91,
              "ticks": 196680,
              "time": 221.486265,
              "value": 0
            }
          ],
          "93": [
            {
              "number": 93,
              "ticks": 83400,
              "time": 93.918825,
              "value": 0.03937007874015748
            },
            {
              "number": 93,
              "ticks": 173640,
              "time": 195.540345,
              "value": 0.03937007874015748
            },
            {
              "number": 93,
              "ticks": 196680,
              "time": 221.486265,
              "value": 0.03937007874015748
            }
          ]
        },
        "pitchBends": [],
        "instrument": {
          "family": "ensemble",
          "number": 54,
          "name": "synth voice"
        },
        "name": "",
        "notes": [
          {
            "duration": 1.078827750000002,
            "durationTicks": 958,
            "midi": 67,
            "name": "G4",
            "ticks": 84480,
            "time": 95.13504,
            "velocity": 0.6929133858267716
          },
          {
            "duration": 1.084458374999997,
            "durationTicks": 963,
            "midi": 65,
            "name": "F4",
            "ticks": 84480,
            "time": 95.13504,
            "velocity": 0.6929133858267716
          },
          {
            "duration": 0.5168913750000002,
            "durationTicks": 459,
            "midi": 68,
            "name": "G#4",
            "ticks": 85440,
            "time": 96.21612,
            "velocity": 0.6929133858267716
          },
          {
            "duration": 0.5090084999999931,
            "durationTicks": 452,
            "midi": 65,
            "name": "F4",
            "ticks": 85440,
            "time": 96.21612,
            "velocity": 0.6929133858267716
          },
          {
            "duration": 0.5168913750000002,
            "durationTicks": 459,
            "midi": 68,
            "name": "G#4",
            "ticks": 85920,
            "time": 96.75666000000001,
            "velocity": 0.6929133858267716
          },
          {
            "duration": 0.48873824999999727,
            "durationTicks": 434,
            "midi": 65,
            "name": "F4",
            "ticks": 85920,
            "time": 96.75666000000001,
            "velocity": 0.6929133858267716
          },
          {
            "duration": 1.0371611249999972,
            "durationTicks": 921,
            "midi": 67,
            "name": "G4",
            "ticks": 86400,
            "time": 97.2972,
            "velocity": 0.6929133858267716
          },
          {
            "duration": 1.0472962500000023,
            "durationTicks": 930,
            "midi": 66,
            "name": "F#4",
            "ticks": 87360,
            "time": 98.37828,
            "velocity": 0.6929133858267716
          },
          {
            "duration": 1.0472962500000023,
            "durationTicks": 930,
            "midi": 63,
            "name": "D#4",
            "ticks": 87360,
            "time": 98.37828,
            "velocity": 0.6929133858267716
          },
          {
            "duration": 1.0788277500000163,
            "durationTicks": 958,
            "midi": 67,
            "name": "G4",
            "ticks": 174720,
            "time": 196.75656,
            "velocity": 0.6929133858267716
          },
          {
            "duration": 1.0844583750000254,
            "durationTicks": 963,
            "midi": 65,
            "name": "F4",
            "ticks": 174720,
            "time": 196.75656,
            "velocity": 0.6929133858267716
          },
          {
            "duration": 0.5090084999999931,
            "durationTicks": 452,
            "midi": 65,
            "name": "F4",
            "ticks": 175680,
            "time": 197.83764000000002,
            "velocity": 0.6929133858267716
          },
          {
            "duration": 1.057431374999993,
            "durationTicks": 939,
            "midi": 68,
            "name": "G#4",
            "ticks": 175680,
            "time": 197.83764000000002,
            "velocity": 0.6929133858267716
          },
          {
            "duration": 0.48873824999998305,
            "durationTicks": 434,
            "midi": 65,
            "name": "F4",
            "ticks": 176160,
            "time": 198.37818000000001,
            "velocity": 0.6929133858267716
          },
          {
            "duration": 1.037161124999983,
            "durationTicks": 921,
            "midi": 67,
            "name": "G4",
            "ticks": 176640,
            "time": 198.91872,
            "velocity": 0.6929133858267716
          },
          {
            "duration": 1.0472962500000165,
            "durationTicks": 930,
            "midi": 66,
            "name": "F#4",
            "ticks": 177600,
            "time": 199.9998,
            "velocity": 0.6929133858267716
          },
          {
            "duration": 1.0472962500000165,
            "durationTicks": 930,
            "midi": 63,
            "name": "D#4",
            "ticks": 177600,
            "time": 199.9998,
            "velocity": 0.6929133858267716
          },
          {
            "duration": 1.0788277500000163,
            "durationTicks": 958,
            "midi": 67,
            "name": "G4",
            "ticks": 197760,
            "time": 222.70248,
            "velocity": 0.6929133858267716
          },
          {
            "duration": 1.0844583750000254,
            "durationTicks": 963,
            "midi": 65,
            "name": "F4",
            "ticks": 197760,
            "time": 222.70248,
            "velocity": 0.6929133858267716
          },
          {
            "duration": 0.5090084999999931,
            "durationTicks": 452,
            "midi": 65,
            "name": "F4",
            "ticks": 198720,
            "time": 223.78356000000002,
            "velocity": 0.6929133858267716
          },
          {
            "duration": 1.057431374999993,
            "durationTicks": 939,
            "midi": 68,
            "name": "G#4",
            "ticks": 198720,
            "time": 223.78356000000002,
            "velocity": 0.6929133858267716
          },
          {
            "duration": 0.48873824999998305,
            "durationTicks": 434,
            "midi": 65,
            "name": "F4",
            "ticks": 199200,
            "time": 224.32410000000002,
            "velocity": 0.6929133858267716
          },
          {
            "duration": 1.037161124999983,
            "durationTicks": 921,
            "midi": 67,
            "name": "G4",
            "ticks": 199680,
            "time": 224.86464,
            "velocity": 0.6929133858267716
          },
          {
            "duration": 1.0472962500000165,
            "durationTicks": 930,
            "midi": 66,
            "name": "F#4",
            "ticks": 200640,
            "time": 225.94572,
            "velocity": 0.6929133858267716
          },
          {
            "duration": 1.0472962500000165,
            "durationTicks": 930,
            "midi": 63,
            "name": "D#4",
            "ticks": 200640,
            "time": 225.94572,
            "velocity": 0.6929133858267716
          }
        ]
      }
    ]
  }