{
  "header": {
    "keySignatures": [
      {
        "key": "C",
        "scale": "major",
        "ticks": 0
      }
    ],
    "meta": [],
    "name": "",
    "ppq": 48,
    "tempos": [
      {
        "bpm": 318.0004134005374,
        "ticks": 0
      },
      {
        "bpm": 204.00044880098736,
        "ticks": 0
      },
      {
        "bpm": 204.00044880098736,
        "ticks": 308
      }
    ],
    "timeSignatures": [
      {
        "ticks": 0,
        "timeSignature": [
          4,
          4
        ],
        "measures": 0
      }
    ]
  },
  "tracks": [
    {
      "channel": 0,
      "controlChanges": {
        "0": [
          {
            "number": 0,
            "ticks": 135,
            "time": 0.8272040625,
            "value": 0
          }
        ],
        "6": [
          {
            "number": 6,
            "ticks": 130,
            "time": 0.7965668750000001,
            "value": 0.12598425196850394
          },
          {
            "number": 6,
            "ticks": 132,
            "time": 0.80882175,
            "value": 0.5118110236220472
          }
        ],
        "7": [
          {
            "number": 7,
            "ticks": 133,
            "time": 0.8149491875000001,
            "value": 0.8267716535433071
          }
        ],
        "10": [
          {
            "number": 10,
            "ticks": 133,
            "time": 0.8149491875000001,
            "value": 0.47244094488188976
          }
        ],
        "11": [
          {
            "number": 11,
            "ticks": 134,
            "time": 0.821076625,
            "value": 0.7874015748031497
          }
        ],
        "32": [
          {
            "number": 32,
            "ticks": 136,
            "time": 0.8333315000000001,
            "value": 0.007874015748031496
          }
        ],
        "91": [
          {
            "number": 91,
            "ticks": 123,
            "time": 0.7536748125,
            "value": 0.6614173228346457
          }
        ],
        "93": [
          {
            "number": 93,
            "ticks": 124,
            "time": 0.7598022500000001,
            "value": 0.9448818897637795
          }
        ],
        "94": [
          {
            "number": 94,
            "ticks": 125,
            "time": 0.7659296875,
            "value": 0
          }
        ],
        "100": [
          {
            "number": 100,
            "ticks": 128,
            "time": 0.784312,
            "value": 0
          },
          {
            "number": 100,
            "ticks": 132,
            "time": 0.80882175,
            "value": 0.007874015748031496
          }
        ],
        "101": [
          {
            "number": 101,
            "ticks": 129,
            "time": 0.7904394375,
            "value": 0
          },
          {
            "number": 101,
            "ticks": 132,
            "time": 0.80882175,
            "value": 0
          }
        ]
      },
      "pitchBends": [
        {
          "ticks": 131,
          "time": 0.8026943125,
          "value": 0
        }
      ],
      "instrument": {
        "family": "piano",
        "number": 0,
        "name": "acoustic grand piano"
      },
      "name": "Ds.SET1 (55_POWER\u0000",
      "notes": [],
      "endOfTrackTicks": 9912
    },
    {
      "channel": 9,
      "controlChanges": {
        "6": [
          {
            "number": 6,
            "ticks": 138,
            "time": 0.845586375,
            "value": 1
          },
          {
            "number": 6,
            "ticks": 139,
            "time": 0.8517138125000001,
            "value": 0.5039370078740157
          },
          {
            "number": 6,
            "ticks": 140,
            "time": 0.85784125,
            "value": 0.49606299212598426
          },
          {
            "number": 6,
            "ticks": 141,
            "time": 0.8639686875,
            "value": 0.4881889763779528
          },
          {
            "number": 6,
            "ticks": 142,
            "time": 0.8700961250000001,
            "value": 0.49606299212598426
          },
          {
            "number": 6,
            "ticks": 143,
            "time": 0.8762235625,
            "value": 0
          },
          {
            "number": 6,
            "ticks": 144,
            "time": 0.8823510000000001,
            "value": 0.9448818897637795
          },
          {
            "number": 6,
            "ticks": 145,
            "time": 0.8884784375000001,
            "value": 0.5039370078740157
          }
        ],
        "7": [
          {
            "number": 7,
            "ticks": 9192,
            "time": 56.32340550000001,
            "value": 0.8267716535433071
          },
          {
            "number": 7,
            "ticks": 9240,
            "time": 56.61752250000001,
            "value": 0.7716535433070866
          },
          {
            "number": 7,
            "ticks": 9288,
            "time": 56.91163950000001,
            "value": 0.7165354330708661
          },
          {
            "number": 7,
            "ticks": 9336,
            "time": 57.20575650000001,
            "value": 0.6692913385826772
          },
          {
            "number": 7,
            "ticks": 9384,
            "time": 57.49987350000001,
            "value": 0.6141732283464567
          },
          {
            "number": 7,
            "ticks": 9432,
            "time": 57.79399050000001,
            "value": 0.5669291338582677
          },
          {
            "number": 7,
            "ticks": 9480,
            "time": 58.08810750000001,
            "value": 0.5118110236220472
          },
          {
            "number": 7,
            "ticks": 9528,
            "time": 58.38222450000001,
            "value": 0.4645669291338583
          },
          {
            "number": 7,
            "ticks": 9576,
            "time": 58.67634150000001,
            "value": 0.4094488188976378
          },
          {
            "number": 7,
            "ticks": 9624,
            "time": 58.97045850000001,
            "value": 0.3543307086614173
          },
          {
            "number": 7,
            "ticks": 9672,
            "time": 59.26457550000001,
            "value": 0.30708661417322836
          },
          {
            "number": 7,
            "ticks": 9720,
            "time": 59.55869250000001,
            "value": 0.25196850393700787
          },
          {
            "number": 7,
            "ticks": 9768,
            "time": 59.852809500000006,
            "value": 0.2047244094488189
          },
          {
            "number": 7,
            "ticks": 9816,
            "time": 60.146926500000006,
            "value": 0.14960629921259844
          },
          {
            "number": 7,
            "ticks": 9864,
            "time": 60.441043500000006,
            "value": 0.10236220472440945
          },
          {
            "number": 7,
            "ticks": 9912,
            "time": 60.735160500000006,
            "value": 0.047244094488188976
          }
        ],
        "98": [
          {
            "number": 98,
            "ticks": 138,
            "time": 0.845586375,
            "value": 0.25196850393700787
          },
          {
            "number": 98,
            "ticks": 139,
            "time": 0.8517138125000001,
            "value": 0.7795275590551181
          },
          {
            "number": 98,
            "ticks": 140,
            "time": 0.85784125,
            "value": 0.33070866141732286
          },
          {
            "number": 98,
            "ticks": 141,
            "time": 0.8639686875,
            "value": 0.4251968503937008
          },
          {
            "number": 98,
            "ticks": 142,
            "time": 0.8700961250000001,
            "value": 0.2992125984251969
          },
          {
            "number": 98,
            "ticks": 143,
            "time": 0.8762235625,
            "value": 0.2992125984251969
          },
          {
            "number": 98,
            "ticks": 144,
            "time": 0.8823510000000001,
            "value": 0.2992125984251969
          },
          {
            "number": 98,
            "ticks": 145,
            "time": 0.8884784375000001,
            "value": 0.25984251968503935
          }
        ],
        "99": [
          {
            "number": 99,
            "ticks": 138,
            "time": 0.845586375,
            "value": 0.007874015748031496
          },
          {
            "number": 99,
            "ticks": 139,
            "time": 0.8517138125000001,
            "value": 0.007874015748031496
          },
          {
            "number": 99,
            "ticks": 140,
            "time": 0.85784125,
            "value": 0.2204724409448819
          },
          {
            "number": 99,
            "ticks": 141,
            "time": 0.8639686875,
            "value": 0.1889763779527559
          },
          {
            "number": 99,
            "ticks": 142,
            "time": 0.8700961250000001,
            "value": 0.1889763779527559
          },
          {
            "number": 99,
            "ticks": 143,
            "time": 0.8762235625,
            "value": 0.2283464566929134
          },
          {
            "number": 99,
            "ticks": 144,
            "time": 0.8823510000000001,
            "value": 0.23622047244094488
          },
          {
            "number": 99,
            "ticks": 145,
            "time": 0.8884784375000001,
            "value": 0.007874015748031496
          }
        ]
      },
      "pitchBends": [],
      "instrument": {
        "family": "drums",
        "number": 16,
        "name": "power kit"
      },
      "name": "",
      "notes": [
        {
          "duration": 0.006127437499999999,
          "durationTicks": 1,
          "midi": 42,
          "name": "F#2",
          "ticks": 312,
          "time": 1.9117605000000002,
          "velocity": 0.47244094488188976
        },
        {
          "duration": 0.006127437499999999,
          "durationTicks": 1,
          "midi": 54,
          "name": "F#3",
          "ticks": 312,
          "time": 1.9117605000000002,
          "velocity": 0.6299212598425197
        },
        {
          "duration": 0.006127437499999999,
          "durationTicks": 1,
          "midi": 42,
          "name": "F#2",
          "ticks": 336,
          "time": 2.058819,
          "velocity": 0.47244094488188976
        },
        {
          "duration": 0.006127437499999999,
          "durationTicks": 1,
          "midi": 54,
          "name": "F#3",
          "ticks": 336,
          "time": 2.058819,
          "velocity": 0.4330708661417323
        },
        {
          "duration": 0.006127437499999999,
          "durationTicks": 1,
          "midi": 38,
          "name": "D2",
          "ticks": 360,
          "time": 2.2058775,
          "velocity": 0.6299212598425197
        },
        {
          "duration": 0.006127437499999999,
          "durationTicks": 1,
          "midi": 42,
          "name": "F#2",
          "ticks": 360,
          "time": 2.2058775,
          "velocity": 0.47244094488188976
        },
        {
          "duration": 0.006127437499999999,
          "durationTicks": 1,
          "midi": 54,
          "name": "F#3",
          "ticks": 360,
          "time": 2.2058775,
          "velocity": 0.4330708661417323
        },
        {
          "duration": 0.006127437499999999,
          "durationTicks": 1,
          "midi": 42,
          "name": "F#2",
          "ticks": 384,
          "time": 2.352936,
          "velocity": 0.47244094488188976
        },
        {
          "duration": 0.006127437499999999,
          "durationTicks": 1,
          "midi": 54,
          "name": "F#3",
          "ticks": 384,
          "time": 2.352936,
          "velocity": 0.4330708661417323
        },
        {
          "duration": 0.006127437499999999,
          "durationTicks": 1,
          "midi": 42,
          "name": "F#2",
          "ticks": 408,
          "time": 2.4999945,
          "velocity": 0.47244094488188976
        },
        {
          "duration": 0.006127437499999999,
          "durationTicks": 1,
          "midi": 54,
          "name": "F#3",
          "ticks": 408,
          "time": 2.4999945,
          "velocity": 0.6299212598425197
        },
        {
          "duration": 0.006127437499999555,
          "durationTicks": 1,
          "midi": 42,
          "name": "F#2",
          "ticks": 432,
          "time": 2.6470530000000005,
          "velocity": 0.47244094488188976
        },
        {
          "duration": 0.006127437499999555,
          "durationTicks": 1,
          "midi": 54,
          "name": "F#3",
          "ticks": 432,
          "time": 2.6470530000000005,
          "velocity": 0.4330708661417323
        },
        {
          "duration": 0.006127437499999555,
          "durationTicks": 1,
          "midi": 38,
          "name": "D2",
          "ticks": 456,
          "time": 2.7941115000000005,
          "velocity": 0.6299212598425197
        },
        {
          "duration": 0.006127437499999555,
          "durationTicks": 1,
          "midi": 42,
          "name": "F#2",
          "ticks": 456,
          "time": 2.7941115000000005,
          "velocity": 0.47244094488188976
        },
        {
          "duration": 0.006127437499999555,
          "durationTicks": 1,
          "midi": 54,
          "name": "F#3",
          "ticks": 456,
          "time": 2.7941115000000005,
          "velocity": 0.4330708661417323
        },
        {
          "duration": 0.006127437499999999,
          "durationTicks": 1,
          "midi": 42,
          "name": "F#2",
          "ticks": 480,
          "time": 2.9411700000000005,
          "velocity": 0.47244094488188976
        },
        {
          "duration": 0.006127437499999999,
          "durationTicks": 1,
          "midi": 54,
          "name": "F#3",
          "ticks": 480,
          "time": 2.9411700000000005,
          "velocity": 0.4330708661417323
        },
        {
          "duration": 0.006127437499999999,
          "durationTicks": 1,
          "midi": 42,
          "name": "F#2",
          "ticks": 504,
          "time": 3.0882285000000005,
          "velocity": 0.47244094488188976
        },
        {
          "duration": 0.006127437499999999,
          "durationTicks": 1,
          "midi": 54,
          "name": "F#3",
          "ticks": 504,
          "time": 3.0882285000000005,
          "velocity": 0.6299212598425197
        },
        {
          "duration": 0.006127437499999999,
          "durationTicks": 1,
          "midi": 42,
          "name": "F#2",
          "ticks": 528,
          "time": 3.2352870000000005,
          "velocity": 0.47244094488188976
        },
        {
          "duration": 0.006127437499999999,
          "durationTicks": 1,
          "midi": 54,
          "name": "F#3",
          "ticks": 528,
          "time": 3.2352870000000005,
          "velocity": 0.4330708661417323
        },
        {
          "duration": 0.006127437499999999,
          "durationTicks": 1,
          "midi": 38,
          "name": "D2",
          "ticks": 552,
          "time": 3.3823455000000004,
          "velocity": 0.6299212598425197
        },
        {
          "duration": 0.006127437499999999,
          "durationTicks": 1,
          "midi": 42,
          "name": "F#2",
          "ticks": 552,
          "time": 3.3823455000000004,
          "velocity": 0.47244094488188976
        },
        {
          "duration": 0.006127437499999999,
          "durationTicks": 1,
          "midi": 54,
          "name": "F#3",
          "ticks": 552,
          "time": 3.3823455000000004,
          "velocity": 0.4330708661417323
        },
        {
          "duration": 0.006127437499999999,
          "durationTicks": 1,
          "midi": 42,
          "name": "F#2",
          "ticks": 576,
          "time": 3.5294040000000004,
          "velocity": 0.47244094488188976
        },
        {
          "duration": 0.006127437499999999,
          "durationTicks": 1,
          "midi": 54,
          "name": "F#3",
          "ticks": 576,
          "time": 3.5294040000000004,
          "velocity": 0.4330708661417323
        },
        {
          "duration": 0.006127437499999999,
          "durationTicks": 1,
          "midi": 38,
          "name": "D2",
          "ticks": 600,
          "time": 3.6764625000000004,
          "velocity": 0.6299212598425197
        },
        {
          "duration": 0.006127437499999999,
          "durationTicks": 1,
          "midi": 42,
          "name": "F#2",
          "ticks": 600,
          "time": 3.6764625000000004,
          "velocity": 0.47244094488188976
        },
        {
          "duration": 0.006127437499999999,
          "durationTicks": 1,
          "midi": 54,
          "name": "F#3",
          "ticks": 600,
          "time": 3.6764625000000004,
          "velocity": 0.6299212598425197
        },
        {
          "duration": 0.006127437499999999,
          "durationTicks": 1,
          "midi": 42,
          "name": "F#2",
          "ticks": 624,
          "time": 3.8235210000000004,
          "velocity": 0.47244094488188976
        },
        {
          "duration": 0.006127437499999999,
          "durationTicks": 1,
          "midi": 54,
          "name": "F#3",
          "ticks": 624,
          "time": 3.8235210000000004,
          "velocity": 0.4330708661417323
        },
        {
          "duration": 0.006127437499999999,
          "durationTicks": 1,
          "midi": 42,
          "name": "F#2",
          "ticks": 648,
          "time": 3.9705795000000004,
          "velocity": 0.47244094488188976
        },
        {
          "duration": 0.006127437499999999,
          "durationTicks": 1,
          "midi": 54,
          "name": "F#3",
          "ticks": 648,
          "time": 3.9705795000000004,
          "velocity": 0.4330708661417323
        },
        {
          "duration": 0.006127437499999999,
          "durationTicks": 1,
          "midi": 42,
          "name": "F#2",
          "ticks": 672,
          "time": 4.117638,
          "velocity": 0.47244094488188976
        },
        {
          "duration": 0.006127437499999999,
          "durationTicks": 1,
          "midi": 54,
          "name": "F#3",
          "ticks": 672,
          "time": 4.117638,
          "velocity": 0.4330708661417323
        },
        {
          "duration": 0.006127437499999999,
          "durationTicks": 1,
          "midi": 38,
          "name": "D2",
          "ticks": 696,
          "time": 4.2646965,
          "velocity": 0.6299212598425197
        },
        {
          "duration": 0.006127437499999999,
          "durationTicks": 1,
          "midi": 42,
          "name": "F#2",
          "ticks": 696,
          "time": 4.2646965,
          "velocity": 0.47244094488188976
        },
        {
          "duration": 0.006127437499999999,
          "durationTicks": 1,
          "midi": 54,
          "name": "F#3",
          "ticks": 696,
          "time": 4.2646965,
          "velocity": 0.6299212598425197
        },
        {
          "duration": 0.006127437499999999,
          "durationTicks": 1,
          "midi": 42,
          "name": "F#2",
          "ticks": 720,
          "time": 4.411755,
          "velocity": 0.47244094488188976
        },
        {
          "duration": 0.006127437499999999,
          "durationTicks": 1,
          "midi": 54,
          "name": "F#3",
          "ticks": 720,
          "time": 4.411755,
          "velocity": 0.4330708661417323
        },
        {
          "duration": 0.006127437499999111,
          "durationTicks": 1,
          "midi": 42,
          "name": "F#2",
          "ticks": 744,
          "time": 4.558813500000001,
          "velocity": 0.47244094488188976
        },
        {
          "duration": 0.006127437499999111,
          "durationTicks": 1,
          "midi": 54,
          "name": "F#3",
          "ticks": 744,
          "time": 4.558813500000001,
          "velocity": 0.4330708661417323
        },
        {
          "duration": 0.006127437499999111,
          "durationTicks": 1,
          "midi": 42,
          "name": "F#2",
          "ticks": 768,
          "time": 4.705872000000001,
          "velocity": 0.47244094488188976
        },
        {
          "duration": 0.006127437499999111,
          "durationTicks": 1,
          "midi": 54,
          "name": "F#3",
          "ticks": 768,
          "time": 4.705872000000001,
          "velocity": 0.4330708661417323
        },
        {
          "duration": 0.006127437499999111,
          "durationTicks": 1,
          "midi": 38,
          "name": "D2",
          "ticks": 792,
          "time": 4.852930500000001,
          "velocity": 0.6299212598425197
        },
        {
          "duration": 0.006127437499999111,
          "durationTicks": 1,
          "midi": 42,
          "name": "F#2",
          "ticks": 792,
          "time": 4.852930500000001,
          "velocity": 0.47244094488188976
        },
        {
          "duration": 0.006127437499999111,
          "durationTicks": 1,
          "midi": 54,
          "name": "F#3",
          "ticks": 792,
          "time": 4.852930500000001,
          "velocity": 0.6299212598425197
        },
        {
          "duration": 0.006127437499999111,
          "durationTicks": 1,
          "midi": 42,
          "name": "F#2",
          "ticks": 816,
          "time": 4.999989000000001,
          "velocity": 0.47244094488188976
        },
        {
          "duration": 0.006127437499999111,
          "durationTicks": 1,
          "midi": 54,
          "name": "F#3",
          "ticks": 816,
          "time": 4.999989000000001,
          "velocity": 0.4330708661417323
        },
        {
          "duration": 0.006127437499999111,
          "durationTicks": 1,
          "midi": 42,
          "name": "F#2",
          "ticks": 840,
          "time": 5.147047500000001,
          "velocity": 0.47244094488188976
        },
        {
          "duration": 0.006127437499999111,
          "durationTicks": 1,
          "midi": 54,
          "name": "F#3",
          "ticks": 840,
          "time": 5.147047500000001,
          "velocity": 0.4330708661417323
        },
        {
          "duration": 0.006127437499999111,
          "durationTicks": 1,
          "midi": 42,
          "name": "F#2",
          "ticks": 864,
          "time": 5.294106000000001,
          "velocity": 0.47244094488188976
        },
        {
          "duration": 0.006127437499999111,
          "durationTicks": 1,
          "midi": 54,
          "name": "F#3",
          "ticks": 864,
          "time": 5.294106000000001,
          "velocity": 0.4330708661417323
        },
        {
          "duration": 0.006127437499999111,
          "durationTicks": 1,
          "midi": 38,
          "name": "D2",
          "ticks": 888,
          "time": 5.441164500000001,
          "velocity": 0.6299212598425197
        },
        {
          "duration": 0.006127437499999111,
          "durationTicks": 1,
          "midi": 42,
          "name": "F#2",
          "ticks": 888,
          "time": 5.441164500000001,
          "velocity": 0.47244094488188976
        },
        {
          "duration": 0.006127437499999111,
          "durationTicks": 1,
          "midi": 54,
          "name": "F#3",
          "ticks": 888,
          "time": 5.441164500000001,
          "velocity": 0.6299212598425197
        },
        {
          "duration": 0.006127437499999111,
          "durationTicks": 1,
          "midi": 42,
          "name": "F#2",
          "ticks": 912,
          "time": 5.588223000000001,
          "velocity": 0.47244094488188976
        },
        {
          "duration": 0.006127437499999111,
          "durationTicks": 1,
          "midi": 54,
          "name": "F#3",
          "ticks": 912,
          "time": 5.588223000000001,
          "velocity": 0.4330708661417323
        },
        {
          "duration": 0.006127437499999111,
          "durationTicks": 1,
          "midi": 38,
          "name": "D2",
          "ticks": 936,
          "time": 5.735281500000001,
          "velocity": 0.6299212598425197
        },
        {
          "duration": 0.006127437499999111,
          "durationTicks": 1,
          "midi": 42,
          "name": "F#2",
          "ticks": 936,
          "time": 5.735281500000001,
          "velocity": 0.47244094488188976
        },
        {
          "duration": 0.006127437499999111,
          "durationTicks": 1,
          "midi": 54,
          "name": "F#3",
          "ticks": 936,
          "time": 5.735281500000001,
          "velocity": 0.4330708661417323
        },
        {
          "duration": 0.006127437499999999,
          "durationTicks": 1,
          "midi": 42,
          "name": "F#2",
          "ticks": 960,
          "time": 5.882340000000001,
          "velocity": 0.47244094488188976
        },
        {
          "duration": 0.006127437499999999,
          "durationTicks": 1,
          "midi": 54,
          "name": "F#3",
          "ticks": 960,
          "time": 5.882340000000001,
          "velocity": 0.4330708661417323
        },
        {
          "duration": 0.006127437499999999,
          "durationTicks": 1,
          "midi": 42,
          "name": "F#2",
          "ticks": 984,
          "time": 6.029398500000001,
          "velocity": 0.47244094488188976
        },
        {
          "duration": 0.006127437499999999,
          "durationTicks": 1,
          "midi": 54,
          "name": "F#3",
          "ticks": 984,
          "time": 6.029398500000001,
          "velocity": 0.6299212598425197
        },
        {
          "duration": 0.006127437499999999,
          "durationTicks": 1,
          "midi": 42,
          "name": "F#2",
          "ticks": 1008,
          "time": 6.176457000000001,
          "velocity": 0.47244094488188976
        },
        {
          "duration": 0.006127437499999999,
          "durationTicks": 1,
          "midi": 54,
          "name": "F#3",
          "ticks": 1008,
          "time": 6.176457000000001,
          "velocity": 0.4330708661417323
        },
        {
          "duration": 0.006127437499999999,
          "durationTicks": 1,
          "midi": 38,
          "name": "D2",
          "ticks": 1032,
          "time": 6.323515500000001,
          "velocity": 0.6299212598425197
        },
        {
          "duration": 0.006127437499999999,
          "durationTicks": 1,
          "midi": 42,
          "name": "F#2",
          "ticks": 1032,
          "time": 6.323515500000001,
          "velocity": 0.47244094488188976
        },
        {
          "duration": 0.006127437499999999,
          "durationTicks": 1,
          "midi": 54,
          "name": "F#3",
          "ticks": 1032,
          "time": 6.323515500000001,
          "velocity": 0.4330708661417323
        },
        {
          "duration": 0.006127437499999999,
          "durationTicks": 1,
          "midi": 42,
          "name": "F#2",
          "ticks": 1056,
          "time": 6.470574000000001,
          "velocity": 0.47244094488188976
        },
        {
          "duration": 0.006127437499999999,
          "durationTicks": 1,
          "midi": 54,
          "name": "F#3",
          "ticks": 1056,
          "time": 6.470574000000001,
          "velocity": 0.4330708661417323
        },
        {
          "duration": 0.006127437499999999,
          "durationTicks": 1,
          "midi": 42,
          "name": "F#2",
          "ticks": 1080,
          "time": 6.617632500000001,
          "velocity": 0.47244094488188976
        },
        {
          "duration": 0.006127437499999999,
          "durationTicks": 1,
          "midi": 54,
          "name": "F#3",
          "ticks": 1080,
          "time": 6.617632500000001,
          "velocity": 0.6299212598425197
        },
        {
          "duration": 0.006127437499999999,
          "durationTicks": 1,
          "midi": 42,
          "name": "F#2",
          "ticks": 1104,
          "time": 6.764691000000001,
          "velocity": 0.47244094488188976
        },
        {
          "duration": 0.006127437499999999,
          "durationTicks": 1,
          "midi": 54,
          "name": "F#3",
          "ticks": 1104,
          "time": 6.764691000000001,
          "velocity": 0.4330708661417323
        },
        {
          "duration": 0.006127437499999999,
          "durationTicks": 1,
          "midi": 38,
          "name": "D2",
          "ticks": 1128,
          "time": 6.911749500000001,
          "velocity": 0.6299212598425197
        },
        {
          "duration": 0.006127437499999999,
          "durationTicks": 1,
          "midi": 42,
          "name": "F#2",
          "ticks": 1128,
          "time": 6.911749500000001,
          "velocity": 0.47244094488188976
        },
        {
          "duration": 0.006127437499999999,
          "durationTicks": 1,
          "midi": 54,
          "name": "F#3",
          "ticks": 1128,
          "time": 6.911749500000001,
          "velocity": 0.4330708661417323
        },
        {
          "duration": 0.006127437499999999,
          "durationTicks": 1,
          "midi": 42,
          "name": "F#2",
          "ticks": 1152,
          "time": 7.058808000000001,
          "velocity": 0.47244094488188976
        },
        {
          "duration": 0.006127437499999999,
          "durationTicks": 1,
          "midi": 54,
          "name": "F#3",
          "ticks": 1152,
          "time": 7.058808000000001,
          "velocity": 0.4330708661417323
        },
        {
          "duration": 0.006127437499999999,
          "durationTicks": 1,
          "midi": 42,
          "name": "F#2",
          "ticks": 1176,
          "time": 7.205866500000001,
          "velocity": 0.47244094488188976
        },
        {
          "duration": 0.006127437499999999,
          "durationTicks": 1,
          "midi": 54,
          "name": "F#3",
          "ticks": 1176,
          "time": 7.205866500000001,
          "velocity": 0.6299212598425197
        },
        {
          "duration": 0.006127437499999999,
          "durationTicks": 1,
          "midi": 42,
          "name": "F#2",
          "ticks": 1200,
          "time": 7.352925000000001,
          "velocity": 0.47244094488188976
        },
        {
          "duration": 0.006127437499999999,
          "durationTicks": 1,
          "midi": 54,
          "name": "F#3",
          "ticks": 1200,
          "time": 7.352925000000001,
          "velocity": 0.4330708661417323
        },
        {
          "duration": 0.006127437499999999,
          "durationTicks": 1,
          "midi": 38,
          "name": "D2",
          "ticks": 1224,
          "time": 7.499983500000001,
          "velocity": 0.6299212598425197
        },
        {
          "duration": 0.006127437499999999,
          "durationTicks": 1,
          "midi": 42,
          "name": "F#2",
          "ticks": 1224,
          "time": 7.499983500000001,
          "velocity": 0.47244094488188976
        },
        {
          "duration": 0.006127437499999999,
          "durationTicks": 1,
          "midi": 54,
          "name": "F#3",
          "ticks": 1224,
          "time": 7.499983500000001,
          "velocity": 0.4330708661417323
        },
        {
          "duration": 0.006127437499999999,
          "durationTicks": 1,
          "midi": 42,
          "name": "F#2",
          "ticks": 1248,
          "time": 7.647042000000001,
          "velocity": 0.47244094488188976
        },
        {
          "duration": 0.006127437499999999,
          "durationTicks": 1,
          "midi": 54,
          "name": "F#3",
          "ticks": 1248,
          "time": 7.647042000000001,
          "velocity": 0.4330708661417323
        },
        {
          "duration": 0.006127437499999999,
          "durationTicks": 1,
          "midi": 38,
          "name": "D2",
          "ticks": 1272,
          "time": 7.794100500000001,
          "velocity": 0.6299212598425197
        },
        {
          "duration": 0.006127437499999999,
          "durationTicks": 1,
          "midi": 42,
          "name": "F#2",
          "ticks": 1272,
          "time": 7.794100500000001,
          "velocity": 0.47244094488188976
        },
        {
          "duration": 0.006127437499999999,
          "durationTicks": 1,
          "midi": 54,
          "name": "F#3",
          "ticks": 1272,
          "time": 7.794100500000001,
          "velocity": 0.6299212598425197
        },
        {
          "duration": 0.006127437499999999,
          "durationTicks": 1,
          "midi": 42,
          "name": "F#2",
          "ticks": 1296,
          "time": 7.941159000000001,
          "velocity": 0.47244094488188976
        },
        {
          "duration": 0.006127437499999999,
          "durationTicks": 1,
          "midi": 54,
          "name": "F#3",
          "ticks": 1296,
          "time": 7.941159000000001,
          "velocity": 0.4330708661417323
        },
        {
          "duration": 0.006127437499999999,
          "durationTicks": 1,
          "midi": 42,
          "name": "F#2",
          "ticks": 1320,
          "time": 8.0882175,
          "velocity": 0.47244094488188976
        },
        {
          "duration": 0.006127437499999999,
          "durationTicks": 1,
          "midi": 54,
          "name": "F#3",
          "ticks": 1320,
          "time": 8.0882175,
          "velocity": 0.4330708661417323
        },
        {
          "duration": 0.006127437499999999,
          "durationTicks": 1,
          "midi": 42,
          "name": "F#2",
          "ticks": 1344,
          "time": 8.235276,
          "velocity": 0.47244094488188976
        },
        {
          "duration": 0.006127437499999999,
          "durationTicks": 1,
          "midi": 54,
          "name": "F#3",
          "ticks": 1344,
          "time": 8.235276,
          "velocity": 0.4330708661417323
        },
        {
          "duration": 0.006127437499999999,
          "durationTicks": 1,
          "midi": 38,
          "name": "D2",
          "ticks": 1368,
          "time": 8.3823345,
          "velocity": 0.6299212598425197
        },
        {
          "duration": 0.006127437499999999,
          "durationTicks": 1,
          "midi": 42,
          "name": "F#2",
          "ticks": 1368,
          "time": 8.3823345,
          "velocity": 0.47244094488188976
        },
        {
          "duration": 0.006127437499999999,
          "durationTicks": 1,
          "midi": 54,
          "name": "F#3",
          "ticks": 1368,
          "time": 8.3823345,
          "velocity": 0.6299212598425197
        },
        {
          "duration": 0.006127437499999999,
          "durationTicks": 1,
          "midi": 42,
          "name": "F#2",
          "ticks": 1392,
          "time": 8.529393,
          "velocity": 0.47244094488188976
        },
        {
          "duration": 0.006127437499999999,
          "durationTicks": 1,
          "midi": 54,
          "name": "F#3",
          "ticks": 1392,
          "time": 8.529393,
          "velocity": 0.4330708661417323
        },
        {
          "duration": 0.006127437499999999,
          "durationTicks": 1,
          "midi": 42,
          "name": "F#2",
          "ticks": 1416,
          "time": 8.6764515,
          "velocity": 0.47244094488188976
        },
        {
          "duration": 0.006127437499999999,
          "durationTicks": 1,
          "midi": 54,
          "name": "F#3",
          "ticks": 1416,
          "time": 8.6764515,
          "velocity": 0.4330708661417323
        },
        {
          "duration": 0.006127437499999999,
          "durationTicks": 1,
          "midi": 42,
          "name": "F#2",
          "ticks": 1440,
          "time": 8.82351,
          "velocity": 0.47244094488188976
        },
        {
          "duration": 0.006127437499999999,
          "durationTicks": 1,
          "midi": 54,
          "name": "F#3",
          "ticks": 1440,
          "time": 8.82351,
          "velocity": 0.4330708661417323
        },
        {
          "duration": 0.006127437499999999,
          "durationTicks": 1,
          "midi": 38,
          "name": "D2",
          "ticks": 1464,
          "time": 8.9705685,
          "velocity": 0.6299212598425197
        },
        {
          "duration": 0.006127437499999999,
          "durationTicks": 1,
          "midi": 42,
          "name": "F#2",
          "ticks": 1464,
          "time": 8.9705685,
          "velocity": 0.47244094488188976
        },
        {
          "duration": 0.006127437499999999,
          "durationTicks": 1,
          "midi": 54,
          "name": "F#3",
          "ticks": 1464,
          "time": 8.9705685,
          "velocity": 0.6299212598425197
        },
        {
          "duration": 0.006127437499999999,
          "durationTicks": 1,
          "midi": 42,
          "name": "F#2",
          "ticks": 1488,
          "time": 9.117627,
          "velocity": 0.47244094488188976
        },
        {
          "duration": 0.006127437499999999,
          "durationTicks": 1,
          "midi": 54,
          "name": "F#3",
          "ticks": 1488,
          "time": 9.117627,
          "velocity": 0.4330708661417323
        },
        {
          "duration": 0.006127437499999999,
          "durationTicks": 1,
          "midi": 42,
          "name": "F#2",
          "ticks": 1512,
          "time": 9.2646855,
          "velocity": 0.47244094488188976
        },
        {
          "duration": 0.006127437499999999,
          "durationTicks": 1,
          "midi": 54,
          "name": "F#3",
          "ticks": 1512,
          "time": 9.2646855,
          "velocity": 0.4330708661417323
        },
        {
          "duration": 0.006127437499999999,
          "durationTicks": 1,
          "midi": 42,
          "name": "F#2",
          "ticks": 1536,
          "time": 9.411744,
          "velocity": 0.47244094488188976
        },
        {
          "duration": 0.006127437499999999,
          "durationTicks": 1,
          "midi": 54,
          "name": "F#3",
          "ticks": 1536,
          "time": 9.411744,
          "velocity": 0.4330708661417323
        },
        {
          "duration": 0.006127437499999999,
          "durationTicks": 1,
          "midi": 38,
          "name": "D2",
          "ticks": 1560,
          "time": 9.5588025,
          "velocity": 0.6299212598425197
        },
        {
          "duration": 0.006127437499999999,
          "durationTicks": 1,
          "midi": 42,
          "name": "F#2",
          "ticks": 1560,
          "time": 9.5588025,
          "velocity": 0.47244094488188976
        },
        {
          "duration": 0.006127437499999999,
          "durationTicks": 1,
          "midi": 54,
          "name": "F#3",
          "ticks": 1560,
          "time": 9.5588025,
          "velocity": 0.6299212598425197
        },
        {
          "duration": 0.006127437499999999,
          "durationTicks": 1,
          "midi": 42,
          "name": "F#2",
          "ticks": 1584,
          "time": 9.705861,
          "velocity": 0.47244094488188976
        },
        {
          "duration": 0.006127437499999999,
          "durationTicks": 1,
          "midi": 54,
          "name": "F#3",
          "ticks": 1584,
          "time": 9.705861,
          "velocity": 0.4330708661417323
        },
        {
          "duration": 0.006127437499999999,
          "durationTicks": 1,
          "midi": 38,
          "name": "D2",
          "ticks": 1608,
          "time": 9.8529195,
          "velocity": 0.6299212598425197
        },
        {
          "duration": 0.006127437499999999,
          "durationTicks": 1,
          "midi": 42,
          "name": "F#2",
          "ticks": 1608,
          "time": 9.8529195,
          "velocity": 0.47244094488188976
        },
        {
          "duration": 0.006127437499999999,
          "durationTicks": 1,
          "midi": 54,
          "name": "F#3",
          "ticks": 1608,
          "time": 9.8529195,
          "velocity": 0.4330708661417323
        },
        {
          "duration": 0.006127437499999999,
          "durationTicks": 1,
          "midi": 42,
          "name": "F#2",
          "ticks": 1632,
          "time": 9.999978,
          "velocity": 0.47244094488188976
        },
        {
          "duration": 0.006127437499999999,
          "durationTicks": 1,
          "midi": 54,
          "name": "F#3",
          "ticks": 1632,
          "time": 9.999978,
          "velocity": 0.4330708661417323
        },
        {
          "duration": 0.006127437499999999,
          "durationTicks": 1,
          "midi": 42,
          "name": "F#2",
          "ticks": 1656,
          "time": 10.1470365,
          "velocity": 0.47244094488188976
        },
        {
          "duration": 0.006127437499999999,
          "durationTicks": 1,
          "midi": 54,
          "name": "F#3",
          "ticks": 1656,
          "time": 10.1470365,
          "velocity": 0.6299212598425197
        },
        {
          "duration": 0.006127437499999999,
          "durationTicks": 1,
          "midi": 42,
          "name": "F#2",
          "ticks": 1680,
          "time": 10.294095,
          "velocity": 0.47244094488188976
        },
        {
          "duration": 0.006127437499999999,
          "durationTicks": 1,
          "midi": 54,
          "name": "F#3",
          "ticks": 1680,
          "time": 10.294095,
          "velocity": 0.4330708661417323
        },
        {
          "duration": 0.006127437499999999,
          "durationTicks": 1,
          "midi": 38,
          "name": "D2",
          "ticks": 1704,
          "time": 10.4411535,
          "velocity": 0.6299212598425197
        },
        {
          "duration": 0.006127437499999999,
          "durationTicks": 1,
          "midi": 42,
          "name": "F#2",
          "ticks": 1704,
          "time": 10.4411535,
          "velocity": 0.47244094488188976
        },
        {
          "duration": 0.006127437499999999,
          "durationTicks": 1,
          "midi": 54,
          "name": "F#3",
          "ticks": 1704,
          "time": 10.4411535,
          "velocity": 0.4330708661417323
        },
        {
          "duration": 0.006127437499999999,
          "durationTicks": 1,
          "midi": 42,
          "name": "F#2",
          "ticks": 1728,
          "time": 10.588212,
          "velocity": 0.47244094488188976
        },
        {
          "duration": 0.006127437499999999,
          "durationTicks": 1,
          "midi": 54,
          "name": "F#3",
          "ticks": 1728,
          "time": 10.588212,
          "velocity": 0.4330708661417323
        },
        {
          "duration": 0.006127437499999999,
          "durationTicks": 1,
          "midi": 42,
          "name": "F#2",
          "ticks": 1752,
          "time": 10.7352705,
          "velocity": 0.47244094488188976
        },
        {
          "duration": 0.006127437499999999,
          "durationTicks": 1,
          "midi": 54,
          "name": "F#3",
          "ticks": 1752,
          "time": 10.7352705,
          "velocity": 0.6299212598425197
        },
        {
          "duration": 0.006127437499999999,
          "durationTicks": 1,
          "midi": 42,
          "name": "F#2",
          "ticks": 1776,
          "time": 10.882329,
          "velocity": 0.47244094488188976
        },
        {
          "duration": 0.006127437499999999,
          "durationTicks": 1,
          "midi": 54,
          "name": "F#3",
          "ticks": 1776,
          "time": 10.882329,
          "velocity": 0.4330708661417323
        },
        {
          "duration": 0.006127437499999999,
          "durationTicks": 1,
          "midi": 38,
          "name": "D2",
          "ticks": 1800,
          "time": 11.0293875,
          "velocity": 0.6299212598425197
        },
        {
          "duration": 0.006127437499999999,
          "durationTicks": 1,
          "midi": 42,
          "name": "F#2",
          "ticks": 1800,
          "time": 11.0293875,
          "velocity": 0.47244094488188976
        },
        {
          "duration": 0.006127437499999999,
          "durationTicks": 1,
          "midi": 54,
          "name": "F#3",
          "ticks": 1800,
          "time": 11.0293875,
          "velocity": 0.4330708661417323
        },
        {
          "duration": 0.006127437499999999,
          "durationTicks": 1,
          "midi": 42,
          "name": "F#2",
          "ticks": 1824,
          "time": 11.176446,
          "velocity": 0.47244094488188976
        },
        {
          "duration": 0.006127437499999999,
          "durationTicks": 1,
          "midi": 54,
          "name": "F#3",
          "ticks": 1824,
          "time": 11.176446,
          "velocity": 0.4330708661417323
        },
        {
          "duration": 0.006127437499999999,
          "durationTicks": 1,
          "midi": 42,
          "name": "F#2",
          "ticks": 1848,
          "time": 11.3235045,
          "velocity": 0.47244094488188976
        },
        {
          "duration": 0.006127437499999999,
          "durationTicks": 1,
          "midi": 54,
          "name": "F#3",
          "ticks": 1848,
          "time": 11.3235045,
          "velocity": 0.6299212598425197
        },
        {
          "duration": 0.006127437499999999,
          "durationTicks": 1,
          "midi": 42,
          "name": "F#2",
          "ticks": 1872,
          "time": 11.470563,
          "velocity": 0.47244094488188976
        },
        {
          "duration": 0.006127437499999999,
          "durationTicks": 1,
          "midi": 54,
          "name": "F#3",
          "ticks": 1872,
          "time": 11.470563,
          "velocity": 0.4330708661417323
        },
        {
          "duration": 0.006127437499999999,
          "durationTicks": 1,
          "midi": 38,
          "name": "D2",
          "ticks": 1896,
          "time": 11.6176215,
          "velocity": 0.6299212598425197
        },
        {
          "duration": 0.006127437499999999,
          "durationTicks": 1,
          "midi": 42,
          "name": "F#2",
          "ticks": 1896,
          "time": 11.6176215,
          "velocity": 0.47244094488188976
        },
        {
          "duration": 0.006127437499999999,
          "durationTicks": 1,
          "midi": 54,
          "name": "F#3",
          "ticks": 1896,
          "time": 11.6176215,
          "velocity": 0.4330708661417323
        },
        {
          "duration": 0.006127437499999999,
          "durationTicks": 1,
          "midi": 42,
          "name": "F#2",
          "ticks": 1920,
          "time": 11.76468,
          "velocity": 0.47244094488188976
        },
        {
          "duration": 0.006127437499999999,
          "durationTicks": 1,
          "midi": 54,
          "name": "F#3",
          "ticks": 1920,
          "time": 11.76468,
          "velocity": 0.4330708661417323
        },
        {
          "duration": 0.006127437499999999,
          "durationTicks": 1,
          "midi": 38,
          "name": "D2",
          "ticks": 1944,
          "time": 11.9117385,
          "velocity": 0.6299212598425197
        },
        {
          "duration": 0.006127437499999999,
          "durationTicks": 1,
          "midi": 42,
          "name": "F#2",
          "ticks": 1944,
          "time": 11.9117385,
          "velocity": 0.47244094488188976
        },
        {
          "duration": 0.006127437499999999,
          "durationTicks": 1,
          "midi": 54,
          "name": "F#3",
          "ticks": 1944,
          "time": 11.9117385,
          "velocity": 0.6299212598425197
        },
        {
          "duration": 0.006127437499999999,
          "durationTicks": 1,
          "midi": 42,
          "name": "F#2",
          "ticks": 1968,
          "time": 12.058797,
          "velocity": 0.47244094488188976
        },
        {
          "duration": 0.006127437499999999,
          "durationTicks": 1,
          "midi": 54,
          "name": "F#3",
          "ticks": 1968,
          "time": 12.058797,
          "velocity": 0.4330708661417323
        },
        {
          "duration": 0.006127437499999999,
          "durationTicks": 1,
          "midi": 42,
          "name": "F#2",
          "ticks": 1992,
          "time": 12.2058555,
          "velocity": 0.47244094488188976
        },
        {
          "duration": 0.006127437499999999,
          "durationTicks": 1,
          "midi": 54,
          "name": "F#3",
          "ticks": 1992,
          "time": 12.2058555,
          "velocity": 0.4330708661417323
        },
        {
          "duration": 0.006127437499998223,
          "durationTicks": 1,
          "midi": 42,
          "name": "F#2",
          "ticks": 2016,
          "time": 12.352914000000002,
          "velocity": 0.47244094488188976
        },
        {
          "duration": 0.006127437499998223,
          "durationTicks": 1,
          "midi": 54,
          "name": "F#3",
          "ticks": 2016,
          "time": 12.352914000000002,
          "velocity": 0.4330708661417323
        },
        {
          "duration": 0.006127437499998223,
          "durationTicks": 1,
          "midi": 38,
          "name": "D2",
          "ticks": 2040,
          "time": 12.499972500000002,
          "velocity": 0.6299212598425197
        },
        {
          "duration": 0.006127437499998223,
          "durationTicks": 1,
          "midi": 42,
          "name": "F#2",
          "ticks": 2040,
          "time": 12.499972500000002,
          "velocity": 0.47244094488188976
        },
        {
          "duration": 0.006127437499998223,
          "durationTicks": 1,
          "midi": 54,
          "name": "F#3",
          "ticks": 2040,
          "time": 12.499972500000002,
          "velocity": 0.6299212598425197
        },
        {
          "duration": 0.006127437499998223,
          "durationTicks": 1,
          "midi": 42,
          "name": "F#2",
          "ticks": 2064,
          "time": 12.647031000000002,
          "velocity": 0.47244094488188976
        },
        {
          "duration": 0.006127437499998223,
          "durationTicks": 1,
          "midi": 54,
          "name": "F#3",
          "ticks": 2064,
          "time": 12.647031000000002,
          "velocity": 0.4330708661417323
        },
        {
          "duration": 0.006127437499998223,
          "durationTicks": 1,
          "midi": 42,
          "name": "F#2",
          "ticks": 2088,
          "time": 12.794089500000002,
          "velocity": 0.47244094488188976
        },
        {
          "duration": 0.006127437499998223,
          "durationTicks": 1,
          "midi": 54,
          "name": "F#3",
          "ticks": 2088,
          "time": 12.794089500000002,
          "velocity": 0.4330708661417323
        },
        {
          "duration": 0.006127437499998223,
          "durationTicks": 1,
          "midi": 42,
          "name": "F#2",
          "ticks": 2112,
          "time": 12.941148000000002,
          "velocity": 0.47244094488188976
        },
        {
          "duration": 0.006127437499998223,
          "durationTicks": 1,
          "midi": 54,
          "name": "F#3",
          "ticks": 2112,
          "time": 12.941148000000002,
          "velocity": 0.4330708661417323
        },
        {
          "duration": 0.006127437499998223,
          "durationTicks": 1,
          "midi": 38,
          "name": "D2",
          "ticks": 2136,
          "time": 13.088206500000002,
          "velocity": 0.6299212598425197
        },
        {
          "duration": 0.006127437499998223,
          "durationTicks": 1,
          "midi": 42,
          "name": "F#2",
          "ticks": 2136,
          "time": 13.088206500000002,
          "velocity": 0.47244094488188976
        },
        {
          "duration": 0.006127437499998223,
          "durationTicks": 1,
          "midi": 54,
          "name": "F#3",
          "ticks": 2136,
          "time": 13.088206500000002,
          "velocity": 0.6299212598425197
        },
        {
          "duration": 0.006127437499998223,
          "durationTicks": 1,
          "midi": 42,
          "name": "F#2",
          "ticks": 2160,
          "time": 13.235265000000002,
          "velocity": 0.47244094488188976
        },
        {
          "duration": 0.006127437499998223,
          "durationTicks": 1,
          "midi": 54,
          "name": "F#3",
          "ticks": 2160,
          "time": 13.235265000000002,
          "velocity": 0.4330708661417323
        },
        {
          "duration": 0.006127437499998223,
          "durationTicks": 1,
          "midi": 42,
          "name": "F#2",
          "ticks": 2184,
          "time": 13.382323500000002,
          "velocity": 0.47244094488188976
        },
        {
          "duration": 0.006127437499998223,
          "durationTicks": 1,
          "midi": 54,
          "name": "F#3",
          "ticks": 2184,
          "time": 13.382323500000002,
          "velocity": 0.4330708661417323
        },
        {
          "duration": 0.006127437499998223,
          "durationTicks": 1,
          "midi": 42,
          "name": "F#2",
          "ticks": 2208,
          "time": 13.529382000000002,
          "velocity": 0.47244094488188976
        },
        {
          "duration": 0.006127437499998223,
          "durationTicks": 1,
          "midi": 54,
          "name": "F#3",
          "ticks": 2208,
          "time": 13.529382000000002,
          "velocity": 0.4330708661417323
        },
        {
          "duration": 0.006127437499998223,
          "durationTicks": 1,
          "midi": 38,
          "name": "D2",
          "ticks": 2232,
          "time": 13.676440500000002,
          "velocity": 0.6299212598425197
        },
        {
          "duration": 0.006127437499998223,
          "durationTicks": 1,
          "midi": 42,
          "name": "F#2",
          "ticks": 2232,
          "time": 13.676440500000002,
          "velocity": 0.47244094488188976
        },
        {
          "duration": 0.006127437499998223,
          "durationTicks": 1,
          "midi": 54,
          "name": "F#3",
          "ticks": 2232,
          "time": 13.676440500000002,
          "velocity": 0.6299212598425197
        },
        {
          "duration": 0.006127437499998223,
          "durationTicks": 1,
          "midi": 42,
          "name": "F#2",
          "ticks": 2256,
          "time": 13.823499000000002,
          "velocity": 0.47244094488188976
        },
        {
          "duration": 0.006127437499998223,
          "durationTicks": 1,
          "midi": 54,
          "name": "F#3",
          "ticks": 2256,
          "time": 13.823499000000002,
          "velocity": 0.4330708661417323
        },
        {
          "duration": 0.006127437499998223,
          "durationTicks": 1,
          "midi": 38,
          "name": "D2",
          "ticks": 2280,
          "time": 13.970557500000002,
          "velocity": 0.6299212598425197
        },
        {
          "duration": 0.006127437499998223,
          "durationTicks": 1,
          "midi": 42,
          "name": "F#2",
          "ticks": 2280,
          "time": 13.970557500000002,
          "velocity": 0.47244094488188976
        },
        {
          "duration": 0.006127437499998223,
          "durationTicks": 1,
          "midi": 54,
          "name": "F#3",
          "ticks": 2280,
          "time": 13.970557500000002,
          "velocity": 0.4330708661417323
        },
        {
          "duration": 0.006127437499998223,
          "durationTicks": 1,
          "midi": 42,
          "name": "F#2",
          "ticks": 2304,
          "time": 14.117616000000002,
          "velocity": 0.47244094488188976
        },
        {
          "duration": 0.006127437499998223,
          "durationTicks": 1,
          "midi": 54,
          "name": "F#3",
          "ticks": 2304,
          "time": 14.117616000000002,
          "velocity": 0.4330708661417323
        },
        {
          "duration": 0.006127437499998223,
          "durationTicks": 1,
          "midi": 42,
          "name": "F#2",
          "ticks": 2328,
          "time": 14.264674500000002,
          "velocity": 0.47244094488188976
        },
        {
          "duration": 0.006127437499998223,
          "durationTicks": 1,
          "midi": 54,
          "name": "F#3",
          "ticks": 2328,
          "time": 14.264674500000002,
          "velocity": 0.6299212598425197
        },
        {
          "duration": 0.006127437499998223,
          "durationTicks": 1,
          "midi": 42,
          "name": "F#2",
          "ticks": 2352,
          "time": 14.411733000000002,
          "velocity": 0.47244094488188976
        },
        {
          "duration": 0.006127437499998223,
          "durationTicks": 1,
          "midi": 54,
          "name": "F#3",
          "ticks": 2352,
          "time": 14.411733000000002,
          "velocity": 0.4330708661417323
        },
        {
          "duration": 0.006127437499998223,
          "durationTicks": 1,
          "midi": 38,
          "name": "D2",
          "ticks": 2376,
          "time": 14.558791500000002,
          "velocity": 0.6299212598425197
        },
        {
          "duration": 0.006127437499998223,
          "durationTicks": 1,
          "midi": 42,
          "name": "F#2",
          "ticks": 2376,
          "time": 14.558791500000002,
          "velocity": 0.47244094488188976
        },
        {
          "duration": 0.006127437499998223,
          "durationTicks": 1,
          "midi": 54,
          "name": "F#3",
          "ticks": 2376,
          "time": 14.558791500000002,
          "velocity": 0.4330708661417323
        },
        {
          "duration": 0.006127437499998223,
          "durationTicks": 1,
          "midi": 42,
          "name": "F#2",
          "ticks": 2400,
          "time": 14.705850000000002,
          "velocity": 0.47244094488188976
        },
        {
          "duration": 0.006127437499998223,
          "durationTicks": 1,
          "midi": 54,
          "name": "F#3",
          "ticks": 2400,
          "time": 14.705850000000002,
          "velocity": 0.4330708661417323
        },
        {
          "duration": 0.006127437499998223,
          "durationTicks": 1,
          "midi": 42,
          "name": "F#2",
          "ticks": 2424,
          "time": 14.852908500000002,
          "velocity": 0.47244094488188976
        },
        {
          "duration": 0.006127437499998223,
          "durationTicks": 1,
          "midi": 54,
          "name": "F#3",
          "ticks": 2424,
          "time": 14.852908500000002,
          "velocity": 0.6299212598425197
        },
        {
          "duration": 0.006127437499998223,
          "durationTicks": 1,
          "midi": 42,
          "name": "F#2",
          "ticks": 2448,
          "time": 14.999967000000002,
          "velocity": 0.47244094488188976
        },
        {
          "duration": 0.006127437499998223,
          "durationTicks": 1,
          "midi": 54,
          "name": "F#3",
          "ticks": 2448,
          "time": 14.999967000000002,
          "velocity": 0.4330708661417323
        },
        {
          "duration": 0.006127437499998223,
          "durationTicks": 1,
          "midi": 38,
          "name": "D2",
          "ticks": 2472,
          "time": 15.147025500000002,
          "velocity": 0.6299212598425197
        },
        {
          "duration": 0.006127437499998223,
          "durationTicks": 1,
          "midi": 42,
          "name": "F#2",
          "ticks": 2472,
          "time": 15.147025500000002,
          "velocity": 0.47244094488188976
        },
        {
          "duration": 0.006127437499998223,
          "durationTicks": 1,
          "midi": 54,
          "name": "F#3",
          "ticks": 2472,
          "time": 15.147025500000002,
          "velocity": 0.4330708661417323
        },
        {
          "duration": 0.006127437499998223,
          "durationTicks": 1,
          "midi": 42,
          "name": "F#2",
          "ticks": 2496,
          "time": 15.294084000000002,
          "velocity": 0.47244094488188976
        },
        {
          "duration": 0.006127437499998223,
          "durationTicks": 1,
          "midi": 54,
          "name": "F#3",
          "ticks": 2496,
          "time": 15.294084000000002,
          "velocity": 0.4330708661417323
        },
        {
          "duration": 0.006127437499998223,
          "durationTicks": 1,
          "midi": 42,
          "name": "F#2",
          "ticks": 2520,
          "time": 15.441142500000002,
          "velocity": 0.47244094488188976
        },
        {
          "duration": 0.006127437499998223,
          "durationTicks": 1,
          "midi": 54,
          "name": "F#3",
          "ticks": 2520,
          "time": 15.441142500000002,
          "velocity": 0.6299212598425197
        },
        {
          "duration": 0.006127437499998223,
          "durationTicks": 1,
          "midi": 42,
          "name": "F#2",
          "ticks": 2544,
          "time": 15.588201000000002,
          "velocity": 0.47244094488188976
        },
        {
          "duration": 0.006127437499998223,
          "durationTicks": 1,
          "midi": 54,
          "name": "F#3",
          "ticks": 2544,
          "time": 15.588201000000002,
          "velocity": 0.4330708661417323
        },
        {
          "duration": 0.006127437499998223,
          "durationTicks": 1,
          "midi": 38,
          "name": "D2",
          "ticks": 2568,
          "time": 15.735259500000002,
          "velocity": 0.6299212598425197
        },
        {
          "duration": 0.006127437499998223,
          "durationTicks": 1,
          "midi": 42,
          "name": "F#2",
          "ticks": 2568,
          "time": 15.735259500000002,
          "velocity": 0.47244094488188976
        },
        {
          "duration": 0.006127437499998223,
          "durationTicks": 1,
          "midi": 54,
          "name": "F#3",
          "ticks": 2568,
          "time": 15.735259500000002,
          "velocity": 0.4330708661417323
        },
        {
          "duration": 0.006127437499998223,
          "durationTicks": 1,
          "midi": 42,
          "name": "F#2",
          "ticks": 2592,
          "time": 15.882318000000001,
          "velocity": 0.47244094488188976
        },
        {
          "duration": 0.006127437499998223,
          "durationTicks": 1,
          "midi": 54,
          "name": "F#3",
          "ticks": 2592,
          "time": 15.882318000000001,
          "velocity": 0.4330708661417323
        },
        {
          "duration": 0.006127437499998223,
          "durationTicks": 1,
          "midi": 38,
          "name": "D2",
          "ticks": 2616,
          "time": 16.0293765,
          "velocity": 0.6299212598425197
        },
        {
          "duration": 0.006127437499998223,
          "durationTicks": 1,
          "midi": 42,
          "name": "F#2",
          "ticks": 2616,
          "time": 16.0293765,
          "velocity": 0.47244094488188976
        },
        {
          "duration": 0.006127437499998223,
          "durationTicks": 1,
          "midi": 54,
          "name": "F#3",
          "ticks": 2616,
          "time": 16.0293765,
          "velocity": 0.6299212598425197
        },
        {
          "duration": 0.006127437499998223,
          "durationTicks": 1,
          "midi": 42,
          "name": "F#2",
          "ticks": 2640,
          "time": 16.176435,
          "velocity": 0.47244094488188976
        },
        {
          "duration": 0.006127437499998223,
          "durationTicks": 1,
          "midi": 54,
          "name": "F#3",
          "ticks": 2640,
          "time": 16.176435,
          "velocity": 0.4330708661417323
        },
        {
          "duration": 0.006127437499998223,
          "durationTicks": 1,
          "midi": 42,
          "name": "F#2",
          "ticks": 2664,
          "time": 16.3234935,
          "velocity": 0.47244094488188976
        },
        {
          "duration": 0.006127437499998223,
          "durationTicks": 1,
          "midi": 54,
          "name": "F#3",
          "ticks": 2664,
          "time": 16.3234935,
          "velocity": 0.4330708661417323
        },
        {
          "duration": 0.006127437499998223,
          "durationTicks": 1,
          "midi": 42,
          "name": "F#2",
          "ticks": 2688,
          "time": 16.470552,
          "velocity": 0.47244094488188976
        },
        {
          "duration": 0.006127437499998223,
          "durationTicks": 1,
          "midi": 54,
          "name": "F#3",
          "ticks": 2688,
          "time": 16.470552,
          "velocity": 0.4330708661417323
        },
        {
          "duration": 0.006127437499998223,
          "durationTicks": 1,
          "midi": 38,
          "name": "D2",
          "ticks": 2712,
          "time": 16.6176105,
          "velocity": 0.6299212598425197
        },
        {
          "duration": 0.006127437499998223,
          "durationTicks": 1,
          "midi": 42,
          "name": "F#2",
          "ticks": 2712,
          "time": 16.6176105,
          "velocity": 0.47244094488188976
        },
        {
          "duration": 0.006127437499998223,
          "durationTicks": 1,
          "midi": 54,
          "name": "F#3",
          "ticks": 2712,
          "time": 16.6176105,
          "velocity": 0.6299212598425197
        },
        {
          "duration": 0.006127437499998223,
          "durationTicks": 1,
          "midi": 42,
          "name": "F#2",
          "ticks": 2736,
          "time": 16.764669,
          "velocity": 0.47244094488188976
        },
        {
          "duration": 0.006127437499998223,
          "durationTicks": 1,
          "midi": 54,
          "name": "F#3",
          "ticks": 2736,
          "time": 16.764669,
          "velocity": 0.4330708661417323
        },
        {
          "duration": 0.006127437499998223,
          "durationTicks": 1,
          "midi": 42,
          "name": "F#2",
          "ticks": 2760,
          "time": 16.9117275,
          "velocity": 0.47244094488188976
        },
        {
          "duration": 0.006127437499998223,
          "durationTicks": 1,
          "midi": 54,
          "name": "F#3",
          "ticks": 2760,
          "time": 16.9117275,
          "velocity": 0.4330708661417323
        },
        {
          "duration": 0.006127437499998223,
          "durationTicks": 1,
          "midi": 42,
          "name": "F#2",
          "ticks": 2784,
          "time": 17.058786,
          "velocity": 0.47244094488188976
        },
        {
          "duration": 0.006127437499998223,
          "durationTicks": 1,
          "midi": 54,
          "name": "F#3",
          "ticks": 2784,
          "time": 17.058786,
          "velocity": 0.4330708661417323
        },
        {
          "duration": 0.006127437499998223,
          "durationTicks": 1,
          "midi": 38,
          "name": "D2",
          "ticks": 2808,
          "time": 17.2058445,
          "velocity": 0.6299212598425197
        },
        {
          "duration": 0.006127437499998223,
          "durationTicks": 1,
          "midi": 42,
          "name": "F#2",
          "ticks": 2808,
          "time": 17.2058445,
          "velocity": 0.47244094488188976
        },
        {
          "duration": 0.006127437499998223,
          "durationTicks": 1,
          "midi": 54,
          "name": "F#3",
          "ticks": 2808,
          "time": 17.2058445,
          "velocity": 0.6299212598425197
        },
        {
          "duration": 0.006127437499998223,
          "durationTicks": 1,
          "midi": 42,
          "name": "F#2",
          "ticks": 2832,
          "time": 17.352903,
          "velocity": 0.47244094488188976
        },
        {
          "duration": 0.006127437499998223,
          "durationTicks": 1,
          "midi": 54,
          "name": "F#3",
          "ticks": 2832,
          "time": 17.352903,
          "velocity": 0.4330708661417323
        },
        {
          "duration": 0.006127437499998223,
          "durationTicks": 1,
          "midi": 42,
          "name": "F#2",
          "ticks": 2856,
          "time": 17.4999615,
          "velocity": 0.47244094488188976
        },
        {
          "duration": 0.006127437499998223,
          "durationTicks": 1,
          "midi": 54,
          "name": "F#3",
          "ticks": 2856,
          "time": 17.4999615,
          "velocity": 0.4330708661417323
        },
        {
          "duration": 0.006127437499998223,
          "durationTicks": 1,
          "midi": 42,
          "name": "F#2",
          "ticks": 2880,
          "time": 17.64702,
          "velocity": 0.47244094488188976
        },
        {
          "duration": 0.006127437499998223,
          "durationTicks": 1,
          "midi": 54,
          "name": "F#3",
          "ticks": 2880,
          "time": 17.64702,
          "velocity": 0.4330708661417323
        },
        {
          "duration": 0.006127437499998223,
          "durationTicks": 1,
          "midi": 38,
          "name": "D2",
          "ticks": 2904,
          "time": 17.7940785,
          "velocity": 0.6299212598425197
        },
        {
          "duration": 0.006127437499998223,
          "durationTicks": 1,
          "midi": 42,
          "name": "F#2",
          "ticks": 2904,
          "time": 17.7940785,
          "velocity": 0.47244094488188976
        },
        {
          "duration": 0.006127437499998223,
          "durationTicks": 1,
          "midi": 54,
          "name": "F#3",
          "ticks": 2904,
          "time": 17.7940785,
          "velocity": 0.6299212598425197
        },
        {
          "duration": 0.006127437499998223,
          "durationTicks": 1,
          "midi": 42,
          "name": "F#2",
          "ticks": 2928,
          "time": 17.941137,
          "velocity": 0.47244094488188976
        },
        {
          "duration": 0.006127437499998223,
          "durationTicks": 1,
          "midi": 54,
          "name": "F#3",
          "ticks": 2928,
          "time": 17.941137,
          "velocity": 0.4330708661417323
        },
        {
          "duration": 0.006127437499998223,
          "durationTicks": 1,
          "midi": 38,
          "name": "D2",
          "ticks": 2952,
          "time": 18.0881955,
          "velocity": 0.6299212598425197
        },
        {
          "duration": 0.006127437499998223,
          "durationTicks": 1,
          "midi": 42,
          "name": "F#2",
          "ticks": 2952,
          "time": 18.0881955,
          "velocity": 0.47244094488188976
        },
        {
          "duration": 0.006127437499998223,
          "durationTicks": 1,
          "midi": 54,
          "name": "F#3",
          "ticks": 2952,
          "time": 18.0881955,
          "velocity": 0.4330708661417323
        },
        {
          "duration": 0.006127437499998223,
          "durationTicks": 1,
          "midi": 42,
          "name": "F#2",
          "ticks": 2976,
          "time": 18.235254,
          "velocity": 0.47244094488188976
        },
        {
          "duration": 0.006127437499998223,
          "durationTicks": 1,
          "midi": 54,
          "name": "F#3",
          "ticks": 2976,
          "time": 18.235254,
          "velocity": 0.4330708661417323
        },
        {
          "duration": 0.006127437499998223,
          "durationTicks": 1,
          "midi": 42,
          "name": "F#2",
          "ticks": 3000,
          "time": 18.3823125,
          "velocity": 0.47244094488188976
        },
        {
          "duration": 0.006127437499998223,
          "durationTicks": 1,
          "midi": 54,
          "name": "F#3",
          "ticks": 3000,
          "time": 18.3823125,
          "velocity": 0.6299212598425197
        },
        {
          "duration": 0.006127437499998223,
          "durationTicks": 1,
          "midi": 42,
          "name": "F#2",
          "ticks": 3024,
          "time": 18.529371,
          "velocity": 0.47244094488188976
        },
        {
          "duration": 0.006127437499998223,
          "durationTicks": 1,
          "midi": 54,
          "name": "F#3",
          "ticks": 3024,
          "time": 18.529371,
          "velocity": 0.4330708661417323
        },
        {
          "duration": 0.006127437499998223,
          "durationTicks": 1,
          "midi": 38,
          "name": "D2",
          "ticks": 3048,
          "time": 18.6764295,
          "velocity": 0.6299212598425197
        },
        {
          "duration": 0.006127437499998223,
          "durationTicks": 1,
          "midi": 42,
          "name": "F#2",
          "ticks": 3048,
          "time": 18.6764295,
          "velocity": 0.47244094488188976
        },
        {
          "duration": 0.006127437499998223,
          "durationTicks": 1,
          "midi": 54,
          "name": "F#3",
          "ticks": 3048,
          "time": 18.6764295,
          "velocity": 0.4330708661417323
        },
        {
          "duration": 0.006127437499998223,
          "durationTicks": 1,
          "midi": 42,
          "name": "F#2",
          "ticks": 3072,
          "time": 18.823488,
          "velocity": 0.47244094488188976
        },
        {
          "duration": 0.006127437499998223,
          "durationTicks": 1,
          "midi": 54,
          "name": "F#3",
          "ticks": 3072,
          "time": 18.823488,
          "velocity": 0.4330708661417323
        },
        {
          "duration": 0.006127437499998223,
          "durationTicks": 1,
          "midi": 42,
          "name": "F#2",
          "ticks": 3096,
          "time": 18.9705465,
          "velocity": 0.47244094488188976
        },
        {
          "duration": 0.006127437499998223,
          "durationTicks": 1,
          "midi": 54,
          "name": "F#3",
          "ticks": 3096,
          "time": 18.9705465,
          "velocity": 0.6299212598425197
        },
        {
          "duration": 0.006127437499998223,
          "durationTicks": 1,
          "midi": 42,
          "name": "F#2",
          "ticks": 3120,
          "time": 19.117605,
          "velocity": 0.47244094488188976
        },
        {
          "duration": 0.006127437499998223,
          "durationTicks": 1,
          "midi": 54,
          "name": "F#3",
          "ticks": 3120,
          "time": 19.117605,
          "velocity": 0.4330708661417323
        },
        {
          "duration": 0.006127437499998223,
          "durationTicks": 1,
          "midi": 38,
          "name": "D2",
          "ticks": 3144,
          "time": 19.2646635,
          "velocity": 0.6299212598425197
        },
        {
          "duration": 0.006127437499998223,
          "durationTicks": 1,
          "midi": 42,
          "name": "F#2",
          "ticks": 3144,
          "time": 19.2646635,
          "velocity": 0.47244094488188976
        },
        {
          "duration": 0.006127437499998223,
          "durationTicks": 1,
          "midi": 54,
          "name": "F#3",
          "ticks": 3144,
          "time": 19.2646635,
          "velocity": 0.4330708661417323
        },
        {
          "duration": 0.006127437499998223,
          "durationTicks": 1,
          "midi": 42,
          "name": "F#2",
          "ticks": 3168,
          "time": 19.411722,
          "velocity": 0.47244094488188976
        },
        {
          "duration": 0.006127437499998223,
          "durationTicks": 1,
          "midi": 54,
          "name": "F#3",
          "ticks": 3168,
          "time": 19.411722,
          "velocity": 0.4330708661417323
        },
        {
          "duration": 0.006127437499998223,
          "durationTicks": 1,
          "midi": 54,
          "name": "F#3",
          "ticks": 3192,
          "time": 19.5587805,
          "velocity": 0.6299212598425197
        },
        {
          "duration": 0.006127437499998223,
          "durationTicks": 1,
          "midi": 42,
          "name": "F#2",
          "ticks": 3192,
          "time": 19.5587805,
          "velocity": 0.47244094488188976
        },
        {
          "duration": 0.006127437499998223,
          "durationTicks": 1,
          "midi": 54,
          "name": "F#3",
          "ticks": 3216,
          "time": 19.705839,
          "velocity": 0.4330708661417323
        },
        {
          "duration": 0.006127437499998223,
          "durationTicks": 1,
          "midi": 42,
          "name": "F#2",
          "ticks": 3216,
          "time": 19.705839,
          "velocity": 0.47244094488188976
        },
        {
          "duration": 0.006127437499998223,
          "durationTicks": 1,
          "midi": 38,
          "name": "D2",
          "ticks": 3240,
          "time": 19.8528975,
          "velocity": 0.6299212598425197
        },
        {
          "duration": 0.006127437499998223,
          "durationTicks": 1,
          "midi": 54,
          "name": "F#3",
          "ticks": 3240,
          "time": 19.8528975,
          "velocity": 0.4330708661417323
        },
        {
          "duration": 0.006127437499998223,
          "durationTicks": 1,
          "midi": 42,
          "name": "F#2",
          "ticks": 3240,
          "time": 19.8528975,
          "velocity": 0.47244094488188976
        },
        {
          "duration": 0.006127437499998223,
          "durationTicks": 1,
          "midi": 54,
          "name": "F#3",
          "ticks": 3264,
          "time": 19.999956,
          "velocity": 0.4330708661417323
        },
        {
          "duration": 0.006127437499998223,
          "durationTicks": 1,
          "midi": 42,
          "name": "F#2",
          "ticks": 3264,
          "time": 19.999956,
          "velocity": 0.47244094488188976
        },
        {
          "duration": 0.006127437499998223,
          "durationTicks": 1,
          "midi": 54,
          "name": "F#3",
          "ticks": 3288,
          "time": 20.1470145,
          "velocity": 0.4330708661417323
        },
        {
          "duration": 0.006127437499998223,
          "durationTicks": 1,
          "midi": 42,
          "name": "F#2",
          "ticks": 3288,
          "time": 20.1470145,
          "velocity": 0.47244094488188976
        },
        {
          "duration": 0.006127437499998223,
          "durationTicks": 1,
          "midi": 54,
          "name": "F#3",
          "ticks": 3312,
          "time": 20.294073,
          "velocity": 0.4330708661417323
        },
        {
          "duration": 0.006127437499998223,
          "durationTicks": 1,
          "midi": 42,
          "name": "F#2",
          "ticks": 3312,
          "time": 20.294073,
          "velocity": 0.47244094488188976
        },
        {
          "duration": 0.006127437499998223,
          "durationTicks": 1,
          "midi": 38,
          "name": "D2",
          "ticks": 3336,
          "time": 20.4411315,
          "velocity": 0.6299212598425197
        },
        {
          "duration": 0.006127437499998223,
          "durationTicks": 1,
          "midi": 54,
          "name": "F#3",
          "ticks": 3336,
          "time": 20.4411315,
          "velocity": 0.6299212598425197
        },
        {
          "duration": 0.006127437499998223,
          "durationTicks": 1,
          "midi": 42,
          "name": "F#2",
          "ticks": 3336,
          "time": 20.4411315,
          "velocity": 0.47244094488188976
        },
        {
          "duration": 0.006127437499998223,
          "durationTicks": 1,
          "midi": 54,
          "name": "F#3",
          "ticks": 3360,
          "time": 20.58819,
          "velocity": 0.4330708661417323
        },
        {
          "duration": 0.006127437499998223,
          "durationTicks": 1,
          "midi": 42,
          "name": "F#2",
          "ticks": 3360,
          "time": 20.58819,
          "velocity": 0.47244094488188976
        },
        {
          "duration": 0.0061274375000017756,
          "durationTicks": 1,
          "midi": 54,
          "name": "F#3",
          "ticks": 3384,
          "time": 20.7352485,
          "velocity": 0.4330708661417323
        },
        {
          "duration": 0.0061274375000017756,
          "durationTicks": 1,
          "midi": 42,
          "name": "F#2",
          "ticks": 3384,
          "time": 20.7352485,
          "velocity": 0.47244094488188976
        },
        {
          "duration": 0.0061274375000017756,
          "durationTicks": 1,
          "midi": 54,
          "name": "F#3",
          "ticks": 3408,
          "time": 20.882307,
          "velocity": 0.4330708661417323
        },
        {
          "duration": 0.0061274375000017756,
          "durationTicks": 1,
          "midi": 42,
          "name": "F#2",
          "ticks": 3408,
          "time": 20.882307,
          "velocity": 0.47244094488188976
        },
        {
          "duration": 0.0061274375000017756,
          "durationTicks": 1,
          "midi": 38,
          "name": "D2",
          "ticks": 3432,
          "time": 21.0293655,
          "velocity": 0.6299212598425197
        },
        {
          "duration": 0.0061274375000017756,
          "durationTicks": 1,
          "midi": 54,
          "name": "F#3",
          "ticks": 3432,
          "time": 21.0293655,
          "velocity": 0.6299212598425197
        },
        {
          "duration": 0.0061274375000017756,
          "durationTicks": 1,
          "midi": 42,
          "name": "F#2",
          "ticks": 3432,
          "time": 21.0293655,
          "velocity": 0.47244094488188976
        },
        {
          "duration": 0.0061274375000017756,
          "durationTicks": 1,
          "midi": 54,
          "name": "F#3",
          "ticks": 3456,
          "time": 21.176424,
          "velocity": 0.4330708661417323
        },
        {
          "duration": 0.0061274375000017756,
          "durationTicks": 1,
          "midi": 42,
          "name": "F#2",
          "ticks": 3456,
          "time": 21.176424,
          "velocity": 0.47244094488188976
        },
        {
          "duration": 0.0061274375000017756,
          "durationTicks": 1,
          "midi": 54,
          "name": "F#3",
          "ticks": 3480,
          "time": 21.3234825,
          "velocity": 0.4330708661417323
        },
        {
          "duration": 0.0061274375000017756,
          "durationTicks": 1,
          "midi": 42,
          "name": "F#2",
          "ticks": 3480,
          "time": 21.3234825,
          "velocity": 0.47244094488188976
        },
        {
          "duration": 0.0061274375000017756,
          "durationTicks": 1,
          "midi": 54,
          "name": "F#3",
          "ticks": 3504,
          "time": 21.470541,
          "velocity": 0.4330708661417323
        },
        {
          "duration": 0.0061274375000017756,
          "durationTicks": 1,
          "midi": 42,
          "name": "F#2",
          "ticks": 3504,
          "time": 21.470541,
          "velocity": 0.47244094488188976
        },
        {
          "duration": 0.0061274375000017756,
          "durationTicks": 1,
          "midi": 38,
          "name": "D2",
          "ticks": 3528,
          "time": 21.6175995,
          "velocity": 0.6299212598425197
        },
        {
          "duration": 0.0061274375000017756,
          "durationTicks": 1,
          "midi": 54,
          "name": "F#3",
          "ticks": 3528,
          "time": 21.6175995,
          "velocity": 0.6299212598425197
        },
        {
          "duration": 0.0061274375000017756,
          "durationTicks": 1,
          "midi": 42,
          "name": "F#2",
          "ticks": 3528,
          "time": 21.6175995,
          "velocity": 0.47244094488188976
        },
        {
          "duration": 0.0061274375000017756,
          "durationTicks": 1,
          "midi": 54,
          "name": "F#3",
          "ticks": 3552,
          "time": 21.764658,
          "velocity": 0.4330708661417323
        },
        {
          "duration": 0.0061274375000017756,
          "durationTicks": 1,
          "midi": 42,
          "name": "F#2",
          "ticks": 3552,
          "time": 21.764658,
          "velocity": 0.47244094488188976
        },
        {
          "duration": 0.0061274375000017756,
          "durationTicks": 1,
          "midi": 54,
          "name": "F#3",
          "ticks": 3576,
          "time": 21.9117165,
          "velocity": 0.4330708661417323
        },
        {
          "duration": 0.0061274375000017756,
          "durationTicks": 1,
          "midi": 42,
          "name": "F#2",
          "ticks": 3576,
          "time": 21.9117165,
          "velocity": 0.47244094488188976
        },
        {
          "duration": 0.0061274375000017756,
          "durationTicks": 1,
          "midi": 54,
          "name": "F#3",
          "ticks": 3600,
          "time": 22.058775,
          "velocity": 0.4330708661417323
        },
        {
          "duration": 0.0061274375000017756,
          "durationTicks": 1,
          "midi": 42,
          "name": "F#2",
          "ticks": 3600,
          "time": 22.058775,
          "velocity": 0.47244094488188976
        },
        {
          "duration": 0.0061274375000017756,
          "durationTicks": 1,
          "midi": 38,
          "name": "D2",
          "ticks": 3624,
          "time": 22.2058335,
          "velocity": 0.6299212598425197
        },
        {
          "duration": 0.0061274375000017756,
          "durationTicks": 1,
          "midi": 54,
          "name": "F#3",
          "ticks": 3624,
          "time": 22.2058335,
          "velocity": 0.6299212598425197
        },
        {
          "duration": 0.0061274375000017756,
          "durationTicks": 1,
          "midi": 42,
          "name": "F#2",
          "ticks": 3624,
          "time": 22.2058335,
          "velocity": 0.47244094488188976
        },
        {
          "duration": 0.0061274375000017756,
          "durationTicks": 1,
          "midi": 54,
          "name": "F#3",
          "ticks": 3648,
          "time": 22.352892,
          "velocity": 0.4330708661417323
        },
        {
          "duration": 0.0061274375000017756,
          "durationTicks": 1,
          "midi": 42,
          "name": "F#2",
          "ticks": 3648,
          "time": 22.352892,
          "velocity": 0.47244094488188976
        },
        {
          "duration": 0.0061274375000017756,
          "durationTicks": 1,
          "midi": 54,
          "name": "F#3",
          "ticks": 3672,
          "time": 22.4999505,
          "velocity": 0.4330708661417323
        },
        {
          "duration": 0.0061274375000017756,
          "durationTicks": 1,
          "midi": 42,
          "name": "F#2",
          "ticks": 3672,
          "time": 22.4999505,
          "velocity": 0.47244094488188976
        },
        {
          "duration": 0.0061274375000017756,
          "durationTicks": 1,
          "midi": 54,
          "name": "F#3",
          "ticks": 3696,
          "time": 22.647009,
          "velocity": 0.4330708661417323
        },
        {
          "duration": 0.0061274375000017756,
          "durationTicks": 1,
          "midi": 42,
          "name": "F#2",
          "ticks": 3696,
          "time": 22.647009,
          "velocity": 0.47244094488188976
        },
        {
          "duration": 0.0061274375000017756,
          "durationTicks": 1,
          "midi": 38,
          "name": "D2",
          "ticks": 3720,
          "time": 22.7940675,
          "velocity": 0.6299212598425197
        },
        {
          "duration": 0.0061274375000017756,
          "durationTicks": 1,
          "midi": 54,
          "name": "F#3",
          "ticks": 3720,
          "time": 22.7940675,
          "velocity": 0.4330708661417323
        },
        {
          "duration": 0.0061274375000017756,
          "durationTicks": 1,
          "midi": 42,
          "name": "F#2",
          "ticks": 3720,
          "time": 22.7940675,
          "velocity": 0.47244094488188976
        },
        {
          "duration": 0.0061274375000017756,
          "durationTicks": 1,
          "midi": 54,
          "name": "F#3",
          "ticks": 3744,
          "time": 22.941126,
          "velocity": 0.4330708661417323
        },
        {
          "duration": 0.0061274375000017756,
          "durationTicks": 1,
          "midi": 42,
          "name": "F#2",
          "ticks": 3744,
          "time": 22.941126,
          "velocity": 0.47244094488188976
        },
        {
          "duration": 0.0061274375000017756,
          "durationTicks": 1,
          "midi": 42,
          "name": "F#2",
          "ticks": 3768,
          "time": 23.0881845,
          "velocity": 0.47244094488188976
        },
        {
          "duration": 0.0061274375000017756,
          "durationTicks": 1,
          "midi": 54,
          "name": "F#3",
          "ticks": 3768,
          "time": 23.0881845,
          "velocity": 0.6299212598425197
        },
        {
          "duration": 0.0061274375000017756,
          "durationTicks": 1,
          "midi": 42,
          "name": "F#2",
          "ticks": 3792,
          "time": 23.235243,
          "velocity": 0.47244094488188976
        },
        {
          "duration": 0.0061274375000017756,
          "durationTicks": 1,
          "midi": 54,
          "name": "F#3",
          "ticks": 3792,
          "time": 23.235243,
          "velocity": 0.4330708661417323
        },
        {
          "duration": 0.0061274375000017756,
          "durationTicks": 1,
          "midi": 38,
          "name": "D2",
          "ticks": 3816,
          "time": 23.3823015,
          "velocity": 0.6299212598425197
        },
        {
          "duration": 0.0061274375000017756,
          "durationTicks": 1,
          "midi": 42,
          "name": "F#2",
          "ticks": 3816,
          "time": 23.3823015,
          "velocity": 0.47244094488188976
        },
        {
          "duration": 0.0061274375000017756,
          "durationTicks": 1,
          "midi": 54,
          "name": "F#3",
          "ticks": 3816,
          "time": 23.3823015,
          "velocity": 0.4330708661417323
        },
        {
          "duration": 0.0061274375000017756,
          "durationTicks": 1,
          "midi": 42,
          "name": "F#2",
          "ticks": 3840,
          "time": 23.52936,
          "velocity": 0.47244094488188976
        },
        {
          "duration": 0.0061274375000017756,
          "durationTicks": 1,
          "midi": 54,
          "name": "F#3",
          "ticks": 3840,
          "time": 23.52936,
          "velocity": 0.4330708661417323
        },
        {
          "duration": 0.0061274375000017756,
          "durationTicks": 1,
          "midi": 42,
          "name": "F#2",
          "ticks": 3864,
          "time": 23.6764185,
          "velocity": 0.47244094488188976
        },
        {
          "duration": 0.0061274375000017756,
          "durationTicks": 1,
          "midi": 54,
          "name": "F#3",
          "ticks": 3864,
          "time": 23.6764185,
          "velocity": 0.6299212598425197
        },
        {
          "duration": 0.0061274375000017756,
          "durationTicks": 1,
          "midi": 42,
          "name": "F#2",
          "ticks": 3888,
          "time": 23.823477,
          "velocity": 0.47244094488188976
        },
        {
          "duration": 0.0061274375000017756,
          "durationTicks": 1,
          "midi": 54,
          "name": "F#3",
          "ticks": 3888,
          "time": 23.823477,
          "velocity": 0.4330708661417323
        },
        {
          "duration": 0.0061274375000017756,
          "durationTicks": 1,
          "midi": 38,
          "name": "D2",
          "ticks": 3912,
          "time": 23.9705355,
          "velocity": 0.6299212598425197
        },
        {
          "duration": 0.0061274375000017756,
          "durationTicks": 1,
          "midi": 42,
          "name": "F#2",
          "ticks": 3912,
          "time": 23.9705355,
          "velocity": 0.47244094488188976
        },
        {
          "duration": 0.0061274375000017756,
          "durationTicks": 1,
          "midi": 54,
          "name": "F#3",
          "ticks": 3912,
          "time": 23.9705355,
          "velocity": 0.4330708661417323
        },
        {
          "duration": 0.0061274375000017756,
          "durationTicks": 1,
          "midi": 42,
          "name": "F#2",
          "ticks": 3936,
          "time": 24.117594,
          "velocity": 0.47244094488188976
        },
        {
          "duration": 0.0061274375000017756,
          "durationTicks": 1,
          "midi": 54,
          "name": "F#3",
          "ticks": 3936,
          "time": 24.117594,
          "velocity": 0.4330708661417323
        },
        {
          "duration": 0.0061274375000017756,
          "durationTicks": 1,
          "midi": 54,
          "name": "F#3",
          "ticks": 3960,
          "time": 24.2646525,
          "velocity": 0.6299212598425197
        },
        {
          "duration": 0.0061274375000017756,
          "durationTicks": 1,
          "midi": 42,
          "name": "F#2",
          "ticks": 3960,
          "time": 24.2646525,
          "velocity": 0.47244094488188976
        },
        {
          "duration": 0.0061274375000017756,
          "durationTicks": 1,
          "midi": 54,
          "name": "F#3",
          "ticks": 3984,
          "time": 24.411711,
          "velocity": 0.4330708661417323
        },
        {
          "duration": 0.0061274375000017756,
          "durationTicks": 1,
          "midi": 42,
          "name": "F#2",
          "ticks": 3984,
          "time": 24.411711,
          "velocity": 0.47244094488188976
        },
        {
          "duration": 0.0061274375000017756,
          "durationTicks": 1,
          "midi": 38,
          "name": "D2",
          "ticks": 4008,
          "time": 24.5587695,
          "velocity": 0.6299212598425197
        },
        {
          "duration": 0.0061274375000017756,
          "durationTicks": 1,
          "midi": 54,
          "name": "F#3",
          "ticks": 4008,
          "time": 24.5587695,
          "velocity": 0.4330708661417323
        },
        {
          "duration": 0.0061274375000017756,
          "durationTicks": 1,
          "midi": 42,
          "name": "F#2",
          "ticks": 4008,
          "time": 24.5587695,
          "velocity": 0.47244094488188976
        },
        {
          "duration": 0.0061274375000017756,
          "durationTicks": 1,
          "midi": 54,
          "name": "F#3",
          "ticks": 4032,
          "time": 24.705828,
          "velocity": 0.4330708661417323
        },
        {
          "duration": 0.0061274375000017756,
          "durationTicks": 1,
          "midi": 42,
          "name": "F#2",
          "ticks": 4032,
          "time": 24.705828,
          "velocity": 0.47244094488188976
        },
        {
          "duration": 0.0061274375000017756,
          "durationTicks": 1,
          "midi": 54,
          "name": "F#3",
          "ticks": 4056,
          "time": 24.8528865,
          "velocity": 0.4330708661417323
        },
        {
          "duration": 0.0061274375000017756,
          "durationTicks": 1,
          "midi": 42,
          "name": "F#2",
          "ticks": 4056,
          "time": 24.8528865,
          "velocity": 0.47244094488188976
        },
        {
          "duration": 0.0061274375000017756,
          "durationTicks": 1,
          "midi": 54,
          "name": "F#3",
          "ticks": 4080,
          "time": 24.999945,
          "velocity": 0.4330708661417323
        },
        {
          "duration": 0.0061274375000017756,
          "durationTicks": 1,
          "midi": 42,
          "name": "F#2",
          "ticks": 4080,
          "time": 24.999945,
          "velocity": 0.47244094488188976
        },
        {
          "duration": 0.0061274375000017756,
          "durationTicks": 1,
          "midi": 38,
          "name": "D2",
          "ticks": 4104,
          "time": 25.1470035,
          "velocity": 0.6299212598425197
        },
        {
          "duration": 0.0061274375000017756,
          "durationTicks": 1,
          "midi": 54,
          "name": "F#3",
          "ticks": 4104,
          "time": 25.1470035,
          "velocity": 0.6299212598425197
        },
        {
          "duration": 0.0061274375000017756,
          "durationTicks": 1,
          "midi": 42,
          "name": "F#2",
          "ticks": 4104,
          "time": 25.1470035,
          "velocity": 0.47244094488188976
        },
        {
          "duration": 0.0061274375000017756,
          "durationTicks": 1,
          "midi": 54,
          "name": "F#3",
          "ticks": 4128,
          "time": 25.294062,
          "velocity": 0.4330708661417323
        },
        {
          "duration": 0.0061274375000017756,
          "durationTicks": 1,
          "midi": 42,
          "name": "F#2",
          "ticks": 4128,
          "time": 25.294062,
          "velocity": 0.47244094488188976
        },
        {
          "duration": 0.0061274375000017756,
          "durationTicks": 1,
          "midi": 54,
          "name": "F#3",
          "ticks": 4152,
          "time": 25.4411205,
          "velocity": 0.4330708661417323
        },
        {
          "duration": 0.0061274375000017756,
          "durationTicks": 1,
          "midi": 42,
          "name": "F#2",
          "ticks": 4152,
          "time": 25.4411205,
          "velocity": 0.47244094488188976
        },
        {
          "duration": 0.0061274375000017756,
          "durationTicks": 1,
          "midi": 54,
          "name": "F#3",
          "ticks": 4176,
          "time": 25.588179,
          "velocity": 0.4330708661417323
        },
        {
          "duration": 0.0061274375000017756,
          "durationTicks": 1,
          "midi": 42,
          "name": "F#2",
          "ticks": 4176,
          "time": 25.588179,
          "velocity": 0.47244094488188976
        },
        {
          "duration": 0.0061274375000017756,
          "durationTicks": 1,
          "midi": 38,
          "name": "D2",
          "ticks": 4200,
          "time": 25.7352375,
          "velocity": 0.6299212598425197
        },
        {
          "duration": 0.0061274375000017756,
          "durationTicks": 1,
          "midi": 54,
          "name": "F#3",
          "ticks": 4200,
          "time": 25.7352375,
          "velocity": 0.6299212598425197
        },
        {
          "duration": 0.0061274375000017756,
          "durationTicks": 1,
          "midi": 42,
          "name": "F#2",
          "ticks": 4200,
          "time": 25.7352375,
          "velocity": 0.47244094488188976
        },
        {
          "duration": 0.0061274375000017756,
          "durationTicks": 1,
          "midi": 54,
          "name": "F#3",
          "ticks": 4224,
          "time": 25.882296,
          "velocity": 0.4330708661417323
        },
        {
          "duration": 0.0061274375000017756,
          "durationTicks": 1,
          "midi": 42,
          "name": "F#2",
          "ticks": 4224,
          "time": 25.882296,
          "velocity": 0.47244094488188976
        },
        {
          "duration": 0.0061274375000017756,
          "durationTicks": 1,
          "midi": 54,
          "name": "F#3",
          "ticks": 4248,
          "time": 26.0293545,
          "velocity": 0.4330708661417323
        },
        {
          "duration": 0.0061274375000017756,
          "durationTicks": 1,
          "midi": 42,
          "name": "F#2",
          "ticks": 4248,
          "time": 26.0293545,
          "velocity": 0.47244094488188976
        },
        {
          "duration": 0.0061274375000017756,
          "durationTicks": 1,
          "midi": 54,
          "name": "F#3",
          "ticks": 4272,
          "time": 26.176413,
          "velocity": 0.4330708661417323
        },
        {
          "duration": 0.0061274375000017756,
          "durationTicks": 1,
          "midi": 42,
          "name": "F#2",
          "ticks": 4272,
          "time": 26.176413,
          "velocity": 0.47244094488188976
        },
        {
          "duration": 0.0061274375000017756,
          "durationTicks": 1,
          "midi": 38,
          "name": "D2",
          "ticks": 4296,
          "time": 26.3234715,
          "velocity": 0.6299212598425197
        },
        {
          "duration": 0.0061274375000017756,
          "durationTicks": 1,
          "midi": 54,
          "name": "F#3",
          "ticks": 4296,
          "time": 26.3234715,
          "velocity": 0.6299212598425197
        },
        {
          "duration": 0.0061274375000017756,
          "durationTicks": 1,
          "midi": 42,
          "name": "F#2",
          "ticks": 4296,
          "time": 26.3234715,
          "velocity": 0.47244094488188976
        },
        {
          "duration": 0.0061274375000017756,
          "durationTicks": 1,
          "midi": 54,
          "name": "F#3",
          "ticks": 4320,
          "time": 26.47053,
          "velocity": 0.4330708661417323
        },
        {
          "duration": 0.0061274375000017756,
          "durationTicks": 1,
          "midi": 42,
          "name": "F#2",
          "ticks": 4320,
          "time": 26.47053,
          "velocity": 0.47244094488188976
        },
        {
          "duration": 0.0061274375000017756,
          "durationTicks": 1,
          "midi": 54,
          "name": "F#3",
          "ticks": 4344,
          "time": 26.6175885,
          "velocity": 0.4330708661417323
        },
        {
          "duration": 0.0061274375000017756,
          "durationTicks": 1,
          "midi": 42,
          "name": "F#2",
          "ticks": 4344,
          "time": 26.6175885,
          "velocity": 0.47244094488188976
        },
        {
          "duration": 0.0061274375000017756,
          "durationTicks": 1,
          "midi": 54,
          "name": "F#3",
          "ticks": 4368,
          "time": 26.764647,
          "velocity": 0.4330708661417323
        },
        {
          "duration": 0.0061274375000017756,
          "durationTicks": 1,
          "midi": 42,
          "name": "F#2",
          "ticks": 4368,
          "time": 26.764647,
          "velocity": 0.47244094488188976
        },
        {
          "duration": 0.0061274375000017756,
          "durationTicks": 1,
          "midi": 38,
          "name": "D2",
          "ticks": 4392,
          "time": 26.9117055,
          "velocity": 0.6299212598425197
        },
        {
          "duration": 0.0061274375000017756,
          "durationTicks": 1,
          "midi": 54,
          "name": "F#3",
          "ticks": 4392,
          "time": 26.9117055,
          "velocity": 0.6299212598425197
        },
        {
          "duration": 0.0061274375000017756,
          "durationTicks": 1,
          "midi": 42,
          "name": "F#2",
          "ticks": 4392,
          "time": 26.9117055,
          "velocity": 0.47244094488188976
        },
        {
          "duration": 0.0061274375000017756,
          "durationTicks": 1,
          "midi": 54,
          "name": "F#3",
          "ticks": 4416,
          "time": 27.058764,
          "velocity": 0.4330708661417323
        },
        {
          "duration": 0.0061274375000017756,
          "durationTicks": 1,
          "midi": 42,
          "name": "F#2",
          "ticks": 4416,
          "time": 27.058764,
          "velocity": 0.47244094488188976
        },
        {
          "duration": 0.0061274375000017756,
          "durationTicks": 1,
          "midi": 54,
          "name": "F#3",
          "ticks": 4440,
          "time": 27.2058225,
          "velocity": 0.4330708661417323
        },
        {
          "duration": 0.0061274375000017756,
          "durationTicks": 1,
          "midi": 42,
          "name": "F#2",
          "ticks": 4440,
          "time": 27.2058225,
          "velocity": 0.47244094488188976
        },
        {
          "duration": 0.0061274375000017756,
          "durationTicks": 1,
          "midi": 54,
          "name": "F#3",
          "ticks": 4464,
          "time": 27.352881,
          "velocity": 0.4330708661417323
        },
        {
          "duration": 0.0061274375000017756,
          "durationTicks": 1,
          "midi": 42,
          "name": "F#2",
          "ticks": 4464,
          "time": 27.352881,
          "velocity": 0.47244094488188976
        },
        {
          "duration": 0.0061274375000017756,
          "durationTicks": 1,
          "midi": 38,
          "name": "D2",
          "ticks": 4488,
          "time": 27.4999395,
          "velocity": 0.6299212598425197
        },
        {
          "duration": 0.0061274375000017756,
          "durationTicks": 1,
          "midi": 54,
          "name": "F#3",
          "ticks": 4488,
          "time": 27.4999395,
          "velocity": 0.4330708661417323
        },
        {
          "duration": 0.0061274375000017756,
          "durationTicks": 1,
          "midi": 42,
          "name": "F#2",
          "ticks": 4488,
          "time": 27.4999395,
          "velocity": 0.47244094488188976
        },
        {
          "duration": 0.0061274375000017756,
          "durationTicks": 1,
          "midi": 54,
          "name": "F#3",
          "ticks": 4512,
          "time": 27.646998,
          "velocity": 0.4330708661417323
        },
        {
          "duration": 0.0061274375000017756,
          "durationTicks": 1,
          "midi": 42,
          "name": "F#2",
          "ticks": 4512,
          "time": 27.646998,
          "velocity": 0.47244094488188976
        },
        {
          "duration": 0.0061274375000017756,
          "durationTicks": 1,
          "midi": 42,
          "name": "F#2",
          "ticks": 4536,
          "time": 27.7940565,
          "velocity": 0.47244094488188976
        },
        {
          "duration": 0.0061274375000017756,
          "durationTicks": 1,
          "midi": 54,
          "name": "F#3",
          "ticks": 4536,
          "time": 27.7940565,
          "velocity": 0.6299212598425197
        },
        {
          "duration": 0.0061274375000017756,
          "durationTicks": 1,
          "midi": 42,
          "name": "F#2",
          "ticks": 4560,
          "time": 27.941115,
          "velocity": 0.47244094488188976
        },
        {
          "duration": 0.0061274375000017756,
          "durationTicks": 1,
          "midi": 54,
          "name": "F#3",
          "ticks": 4560,
          "time": 27.941115,
          "velocity": 0.4330708661417323
        },
        {
          "duration": 0.0061274375000017756,
          "durationTicks": 1,
          "midi": 38,
          "name": "D2",
          "ticks": 4584,
          "time": 28.0881735,
          "velocity": 0.6299212598425197
        },
        {
          "duration": 0.0061274375000017756,
          "durationTicks": 1,
          "midi": 42,
          "name": "F#2",
          "ticks": 4584,
          "time": 28.0881735,
          "velocity": 0.47244094488188976
        },
        {
          "duration": 0.0061274375000017756,
          "durationTicks": 1,
          "midi": 54,
          "name": "F#3",
          "ticks": 4584,
          "time": 28.0881735,
          "velocity": 0.4330708661417323
        },
        {
          "duration": 0.0061274375000017756,
          "durationTicks": 1,
          "midi": 42,
          "name": "F#2",
          "ticks": 4608,
          "time": 28.235232,
          "velocity": 0.47244094488188976
        },
        {
          "duration": 0.0061274375000017756,
          "durationTicks": 1,
          "midi": 54,
          "name": "F#3",
          "ticks": 4608,
          "time": 28.235232,
          "velocity": 0.4330708661417323
        },
        {
          "duration": 0.0061274375000017756,
          "durationTicks": 1,
          "midi": 42,
          "name": "F#2",
          "ticks": 4632,
          "time": 28.3822905,
          "velocity": 0.47244094488188976
        },
        {
          "duration": 0.0061274375000017756,
          "durationTicks": 1,
          "midi": 54,
          "name": "F#3",
          "ticks": 4632,
          "time": 28.3822905,
          "velocity": 0.6299212598425197
        },
        {
          "duration": 0.0061274375000017756,
          "durationTicks": 1,
          "midi": 42,
          "name": "F#2",
          "ticks": 4656,
          "time": 28.529349,
          "velocity": 0.47244094488188976
        },
        {
          "duration": 0.0061274375000017756,
          "durationTicks": 1,
          "midi": 54,
          "name": "F#3",
          "ticks": 4656,
          "time": 28.529349,
          "velocity": 0.4330708661417323
        },
        {
          "duration": 0.0061274375000017756,
          "durationTicks": 1,
          "midi": 38,
          "name": "D2",
          "ticks": 4680,
          "time": 28.6764075,
          "velocity": 0.6299212598425197
        },
        {
          "duration": 0.0061274375000017756,
          "durationTicks": 1,
          "midi": 42,
          "name": "F#2",
          "ticks": 4680,
          "time": 28.6764075,
          "velocity": 0.47244094488188976
        },
        {
          "duration": 0.0061274375000017756,
          "durationTicks": 1,
          "midi": 54,
          "name": "F#3",
          "ticks": 4680,
          "time": 28.6764075,
          "velocity": 0.4330708661417323
        },
        {
          "duration": 0.0061274375000017756,
          "durationTicks": 1,
          "midi": 42,
          "name": "F#2",
          "ticks": 4704,
          "time": 28.823466,
          "velocity": 0.47244094488188976
        },
        {
          "duration": 0.0061274375000017756,
          "durationTicks": 1,
          "midi": 54,
          "name": "F#3",
          "ticks": 4704,
          "time": 28.823466,
          "velocity": 0.4330708661417323
        },
        {
          "duration": 0.0061274375000017756,
          "durationTicks": 1,
          "midi": 54,
          "name": "F#3",
          "ticks": 4728,
          "time": 28.9705245,
          "velocity": 0.6299212598425197
        },
        {
          "duration": 0.0061274375000017756,
          "durationTicks": 1,
          "midi": 42,
          "name": "F#2",
          "ticks": 4728,
          "time": 28.9705245,
          "velocity": 0.47244094488188976
        },
        {
          "duration": 0.0061274375000017756,
          "durationTicks": 1,
          "midi": 54,
          "name": "F#3",
          "ticks": 4752,
          "time": 29.117583,
          "velocity": 0.4330708661417323
        },
        {
          "duration": 0.0061274375000017756,
          "durationTicks": 1,
          "midi": 42,
          "name": "F#2",
          "ticks": 4752,
          "time": 29.117583,
          "velocity": 0.47244094488188976
        },
        {
          "duration": 0.0061274375000017756,
          "durationTicks": 1,
          "midi": 38,
          "name": "D2",
          "ticks": 4776,
          "time": 29.2646415,
          "velocity": 0.6299212598425197
        },
        {
          "duration": 0.0061274375000017756,
          "durationTicks": 1,
          "midi": 54,
          "name": "F#3",
          "ticks": 4776,
          "time": 29.2646415,
          "velocity": 0.4330708661417323
        },
        {
          "duration": 0.0061274375000017756,
          "durationTicks": 1,
          "midi": 42,
          "name": "F#2",
          "ticks": 4776,
          "time": 29.2646415,
          "velocity": 0.47244094488188976
        },
        {
          "duration": 0.0061274375000017756,
          "durationTicks": 1,
          "midi": 54,
          "name": "F#3",
          "ticks": 4800,
          "time": 29.4117,
          "velocity": 0.4330708661417323
        },
        {
          "duration": 0.0061274375000017756,
          "durationTicks": 1,
          "midi": 42,
          "name": "F#2",
          "ticks": 4800,
          "time": 29.4117,
          "velocity": 0.47244094488188976
        },
        {
          "duration": 0.0061274375000017756,
          "durationTicks": 1,
          "midi": 54,
          "name": "F#3",
          "ticks": 4824,
          "time": 29.5587585,
          "velocity": 0.4330708661417323
        },
        {
          "duration": 0.0061274375000017756,
          "durationTicks": 1,
          "midi": 42,
          "name": "F#2",
          "ticks": 4824,
          "time": 29.5587585,
          "velocity": 0.47244094488188976
        },
        {
          "duration": 0.0061274375000017756,
          "durationTicks": 1,
          "midi": 54,
          "name": "F#3",
          "ticks": 4848,
          "time": 29.705817,
          "velocity": 0.4330708661417323
        },
        {
          "duration": 0.0061274375000017756,
          "durationTicks": 1,
          "midi": 42,
          "name": "F#2",
          "ticks": 4848,
          "time": 29.705817,
          "velocity": 0.47244094488188976
        },
        {
          "duration": 0.0061274375000017756,
          "durationTicks": 1,
          "midi": 38,
          "name": "D2",
          "ticks": 4872,
          "time": 29.8528755,
          "velocity": 0.6299212598425197
        },
        {
          "duration": 0.0061274375000017756,
          "durationTicks": 1,
          "midi": 54,
          "name": "F#3",
          "ticks": 4872,
          "time": 29.8528755,
          "velocity": 0.6299212598425197
        },
        {
          "duration": 0.0061274375000017756,
          "durationTicks": 1,
          "midi": 42,
          "name": "F#2",
          "ticks": 4872,
          "time": 29.8528755,
          "velocity": 0.47244094488188976
        },
        {
          "duration": 0.0061274375000017756,
          "durationTicks": 1,
          "midi": 54,
          "name": "F#3",
          "ticks": 4896,
          "time": 29.999934,
          "velocity": 0.4330708661417323
        },
        {
          "duration": 0.0061274375000017756,
          "durationTicks": 1,
          "midi": 42,
          "name": "F#2",
          "ticks": 4896,
          "time": 29.999934,
          "velocity": 0.47244094488188976
        },
        {
          "duration": 0.0061274375000017756,
          "durationTicks": 1,
          "midi": 54,
          "name": "F#3",
          "ticks": 4920,
          "time": 30.1469925,
          "velocity": 0.4330708661417323
        },
        {
          "duration": 0.0061274375000017756,
          "durationTicks": 1,
          "midi": 42,
          "name": "F#2",
          "ticks": 4920,
          "time": 30.1469925,
          "velocity": 0.47244094488188976
        },
        {
          "duration": 0.0061274375000017756,
          "durationTicks": 1,
          "midi": 54,
          "name": "F#3",
          "ticks": 4944,
          "time": 30.294051,
          "velocity": 0.4330708661417323
        },
        {
          "duration": 0.0061274375000017756,
          "durationTicks": 1,
          "midi": 42,
          "name": "F#2",
          "ticks": 4944,
          "time": 30.294051,
          "velocity": 0.47244094488188976
        },
        {
          "duration": 0.0061274375000017756,
          "durationTicks": 1,
          "midi": 38,
          "name": "D2",
          "ticks": 4968,
          "time": 30.4411095,
          "velocity": 0.6299212598425197
        },
        {
          "duration": 0.0061274375000017756,
          "durationTicks": 1,
          "midi": 54,
          "name": "F#3",
          "ticks": 4968,
          "time": 30.4411095,
          "velocity": 0.6299212598425197
        },
        {
          "duration": 0.0061274375000017756,
          "durationTicks": 1,
          "midi": 42,
          "name": "F#2",
          "ticks": 4968,
          "time": 30.4411095,
          "velocity": 0.47244094488188976
        },
        {
          "duration": 0.0061274375000017756,
          "durationTicks": 1,
          "midi": 54,
          "name": "F#3",
          "ticks": 4992,
          "time": 30.588168,
          "velocity": 0.4330708661417323
        },
        {
          "duration": 0.0061274375000017756,
          "durationTicks": 1,
          "midi": 42,
          "name": "F#2",
          "ticks": 4992,
          "time": 30.588168,
          "velocity": 0.47244094488188976
        },
        {
          "duration": 0.0061274375000017756,
          "durationTicks": 1,
          "midi": 54,
          "name": "F#3",
          "ticks": 5016,
          "time": 30.7352265,
          "velocity": 0.4330708661417323
        },
        {
          "duration": 0.0061274375000017756,
          "durationTicks": 1,
          "midi": 42,
          "name": "F#2",
          "ticks": 5016,
          "time": 30.7352265,
          "velocity": 0.47244094488188976
        },
        {
          "duration": 0.0061274375000017756,
          "durationTicks": 1,
          "midi": 54,
          "name": "F#3",
          "ticks": 5040,
          "time": 30.882285,
          "velocity": 0.4330708661417323
        },
        {
          "duration": 0.0061274375000017756,
          "durationTicks": 1,
          "midi": 42,
          "name": "F#2",
          "ticks": 5040,
          "time": 30.882285,
          "velocity": 0.47244094488188976
        },
        {
          "duration": 0.0061274375000017756,
          "durationTicks": 1,
          "midi": 38,
          "name": "D2",
          "ticks": 5064,
          "time": 31.0293435,
          "velocity": 0.6299212598425197
        },
        {
          "duration": 0.0061274375000017756,
          "durationTicks": 1,
          "midi": 54,
          "name": "F#3",
          "ticks": 5064,
          "time": 31.0293435,
          "velocity": 0.6299212598425197
        },
        {
          "duration": 0.0061274375000017756,
          "durationTicks": 1,
          "midi": 42,
          "name": "F#2",
          "ticks": 5064,
          "time": 31.0293435,
          "velocity": 0.47244094488188976
        },
        {
          "duration": 0.0061274375000017756,
          "durationTicks": 1,
          "midi": 54,
          "name": "F#3",
          "ticks": 5088,
          "time": 31.176402,
          "velocity": 0.4330708661417323
        },
        {
          "duration": 0.0061274375000017756,
          "durationTicks": 1,
          "midi": 42,
          "name": "F#2",
          "ticks": 5088,
          "time": 31.176402,
          "velocity": 0.47244094488188976
        },
        {
          "duration": 0.0061274375000017756,
          "durationTicks": 1,
          "midi": 54,
          "name": "F#3",
          "ticks": 5112,
          "time": 31.3234605,
          "velocity": 0.4330708661417323
        },
        {
          "duration": 0.0061274375000017756,
          "durationTicks": 1,
          "midi": 42,
          "name": "F#2",
          "ticks": 5112,
          "time": 31.3234605,
          "velocity": 0.47244094488188976
        },
        {
          "duration": 0.0061274375000017756,
          "durationTicks": 1,
          "midi": 54,
          "name": "F#3",
          "ticks": 5136,
          "time": 31.470519,
          "velocity": 0.4330708661417323
        },
        {
          "duration": 0.0061274375000017756,
          "durationTicks": 1,
          "midi": 42,
          "name": "F#2",
          "ticks": 5136,
          "time": 31.470519,
          "velocity": 0.47244094488188976
        },
        {
          "duration": 0.0061274375000017756,
          "durationTicks": 1,
          "midi": 38,
          "name": "D2",
          "ticks": 5160,
          "time": 31.6175775,
          "velocity": 0.6299212598425197
        },
        {
          "duration": 0.0061274375000017756,
          "durationTicks": 1,
          "midi": 54,
          "name": "F#3",
          "ticks": 5160,
          "time": 31.6175775,
          "velocity": 0.6299212598425197
        },
        {
          "duration": 0.0061274375000017756,
          "durationTicks": 1,
          "midi": 42,
          "name": "F#2",
          "ticks": 5160,
          "time": 31.6175775,
          "velocity": 0.47244094488188976
        },
        {
          "duration": 0.0061274375000017756,
          "durationTicks": 1,
          "midi": 54,
          "name": "F#3",
          "ticks": 5184,
          "time": 31.764636,
          "velocity": 0.4330708661417323
        },
        {
          "duration": 0.0061274375000017756,
          "durationTicks": 1,
          "midi": 42,
          "name": "F#2",
          "ticks": 5184,
          "time": 31.764636,
          "velocity": 0.47244094488188976
        },
        {
          "duration": 0.0061274375000017756,
          "durationTicks": 1,
          "midi": 54,
          "name": "F#3",
          "ticks": 5208,
          "time": 31.9116945,
          "velocity": 0.4330708661417323
        },
        {
          "duration": 0.0061274375000017756,
          "durationTicks": 1,
          "midi": 42,
          "name": "F#2",
          "ticks": 5208,
          "time": 31.9116945,
          "velocity": 0.47244094488188976
        },
        {
          "duration": 0.006127437499998223,
          "durationTicks": 1,
          "midi": 54,
          "name": "F#3",
          "ticks": 5232,
          "time": 32.058753,
          "velocity": 0.4330708661417323
        },
        {
          "duration": 0.006127437499998223,
          "durationTicks": 1,
          "midi": 42,
          "name": "F#2",
          "ticks": 5232,
          "time": 32.058753,
          "velocity": 0.47244094488188976
        },
        {
          "duration": 0.006127437500005328,
          "durationTicks": 1,
          "midi": 38,
          "name": "D2",
          "ticks": 5256,
          "time": 32.2058115,
          "velocity": 0.6299212598425197
        },
        {
          "duration": 0.006127437500005328,
          "durationTicks": 1,
          "midi": 54,
          "name": "F#3",
          "ticks": 5256,
          "time": 32.2058115,
          "velocity": 0.4330708661417323
        },
        {
          "duration": 0.006127437500005328,
          "durationTicks": 1,
          "midi": 42,
          "name": "F#2",
          "ticks": 5256,
          "time": 32.2058115,
          "velocity": 0.47244094488188976
        },
        {
          "duration": 0.006127437500005328,
          "durationTicks": 1,
          "midi": 54,
          "name": "F#3",
          "ticks": 5280,
          "time": 32.35287,
          "velocity": 0.4330708661417323
        },
        {
          "duration": 0.006127437500005328,
          "durationTicks": 1,
          "midi": 42,
          "name": "F#2",
          "ticks": 5280,
          "time": 32.35287,
          "velocity": 0.47244094488188976
        },
        {
          "duration": 0.006127437500005328,
          "durationTicks": 1,
          "midi": 42,
          "name": "F#2",
          "ticks": 5304,
          "time": 32.4999285,
          "velocity": 0.47244094488188976
        },
        {
          "duration": 0.006127437500005328,
          "durationTicks": 1,
          "midi": 54,
          "name": "F#3",
          "ticks": 5304,
          "time": 32.4999285,
          "velocity": 0.6299212598425197
        },
        {
          "duration": 0.006127437500005328,
          "durationTicks": 1,
          "midi": 42,
          "name": "F#2",
          "ticks": 5328,
          "time": 32.646987,
          "velocity": 0.47244094488188976
        },
        {
          "duration": 0.006127437500005328,
          "durationTicks": 1,
          "midi": 54,
          "name": "F#3",
          "ticks": 5328,
          "time": 32.646987,
          "velocity": 0.4330708661417323
        },
        {
          "duration": 0.006127437500005328,
          "durationTicks": 1,
          "midi": 38,
          "name": "D2",
          "ticks": 5352,
          "time": 32.7940455,
          "velocity": 0.6299212598425197
        },
        {
          "duration": 0.006127437500005328,
          "durationTicks": 1,
          "midi": 42,
          "name": "F#2",
          "ticks": 5352,
          "time": 32.7940455,
          "velocity": 0.47244094488188976
        },
        {
          "duration": 0.006127437500005328,
          "durationTicks": 1,
          "midi": 54,
          "name": "F#3",
          "ticks": 5352,
          "time": 32.7940455,
          "velocity": 0.4330708661417323
        },
        {
          "duration": 0.006127437500005328,
          "durationTicks": 1,
          "midi": 42,
          "name": "F#2",
          "ticks": 5376,
          "time": 32.941104,
          "velocity": 0.47244094488188976
        },
        {
          "duration": 0.006127437500005328,
          "durationTicks": 1,
          "midi": 54,
          "name": "F#3",
          "ticks": 5376,
          "time": 32.941104,
          "velocity": 0.4330708661417323
        },
        {
          "duration": 0.006127437500005328,
          "durationTicks": 1,
          "midi": 42,
          "name": "F#2",
          "ticks": 5400,
          "time": 33.0881625,
          "velocity": 0.47244094488188976
        },
        {
          "duration": 0.006127437500005328,
          "durationTicks": 1,
          "midi": 54,
          "name": "F#3",
          "ticks": 5400,
          "time": 33.0881625,
          "velocity": 0.6299212598425197
        },
        {
          "duration": 0.006127437500005328,
          "durationTicks": 1,
          "midi": 42,
          "name": "F#2",
          "ticks": 5424,
          "time": 33.235221,
          "velocity": 0.47244094488188976
        },
        {
          "duration": 0.006127437500005328,
          "durationTicks": 1,
          "midi": 54,
          "name": "F#3",
          "ticks": 5424,
          "time": 33.235221,
          "velocity": 0.4330708661417323
        },
        {
          "duration": 0.006127437500005328,
          "durationTicks": 1,
          "midi": 38,
          "name": "D2",
          "ticks": 5448,
          "time": 33.3822795,
          "velocity": 0.6299212598425197
        },
        {
          "duration": 0.006127437500005328,
          "durationTicks": 1,
          "midi": 42,
          "name": "F#2",
          "ticks": 5448,
          "time": 33.3822795,
          "velocity": 0.47244094488188976
        },
        {
          "duration": 0.006127437500005328,
          "durationTicks": 1,
          "midi": 54,
          "name": "F#3",
          "ticks": 5448,
          "time": 33.3822795,
          "velocity": 0.4330708661417323
        },
        {
          "duration": 0.006127437500005328,
          "durationTicks": 1,
          "midi": 42,
          "name": "F#2",
          "ticks": 5472,
          "time": 33.529338,
          "velocity": 0.47244094488188976
        },
        {
          "duration": 0.006127437500005328,
          "durationTicks": 1,
          "midi": 54,
          "name": "F#3",
          "ticks": 5472,
          "time": 33.529338,
          "velocity": 0.4330708661417323
        },
        {
          "duration": 0.006127437500005328,
          "durationTicks": 1,
          "midi": 54,
          "name": "F#3",
          "ticks": 5496,
          "time": 33.6763965,
          "velocity": 0.6299212598425197
        },
        {
          "duration": 0.006127437500005328,
          "durationTicks": 1,
          "midi": 42,
          "name": "F#2",
          "ticks": 5496,
          "time": 33.6763965,
          "velocity": 0.47244094488188976
        },
        {
          "duration": 0.006127437500005328,
          "durationTicks": 1,
          "midi": 54,
          "name": "F#3",
          "ticks": 5520,
          "time": 33.823455,
          "velocity": 0.4330708661417323
        },
        {
          "duration": 0.006127437500005328,
          "durationTicks": 1,
          "midi": 42,
          "name": "F#2",
          "ticks": 5520,
          "time": 33.823455,
          "velocity": 0.47244094488188976
        },
        {
          "duration": 0.006127437499998223,
          "durationTicks": 1,
          "midi": 38,
          "name": "D2",
          "ticks": 5544,
          "time": 33.9705135,
          "velocity": 0.6299212598425197
        },
        {
          "duration": 0.006127437499998223,
          "durationTicks": 1,
          "midi": 54,
          "name": "F#3",
          "ticks": 5544,
          "time": 33.9705135,
          "velocity": 0.4330708661417323
        },
        {
          "duration": 0.006127437499998223,
          "durationTicks": 1,
          "midi": 42,
          "name": "F#2",
          "ticks": 5544,
          "time": 33.9705135,
          "velocity": 0.47244094488188976
        },
        {
          "duration": 0.006127437499998223,
          "durationTicks": 1,
          "midi": 54,
          "name": "F#3",
          "ticks": 5568,
          "time": 34.117572,
          "velocity": 0.4330708661417323
        },
        {
          "duration": 0.006127437499998223,
          "durationTicks": 1,
          "midi": 42,
          "name": "F#2",
          "ticks": 5568,
          "time": 34.117572,
          "velocity": 0.47244094488188976
        },
        {
          "duration": 0.006127437499998223,
          "durationTicks": 1,
          "midi": 54,
          "name": "F#3",
          "ticks": 5592,
          "time": 34.2646305,
          "velocity": 0.4330708661417323
        },
        {
          "duration": 0.006127437499998223,
          "durationTicks": 1,
          "midi": 42,
          "name": "F#2",
          "ticks": 5592,
          "time": 34.2646305,
          "velocity": 0.47244094488188976
        },
        {
          "duration": 0.006127437499998223,
          "durationTicks": 1,
          "midi": 54,
          "name": "F#3",
          "ticks": 5616,
          "time": 34.411689,
          "velocity": 0.4330708661417323
        },
        {
          "duration": 0.006127437499998223,
          "durationTicks": 1,
          "midi": 42,
          "name": "F#2",
          "ticks": 5616,
          "time": 34.411689,
          "velocity": 0.47244094488188976
        },
        {
          "duration": 0.006127437499998223,
          "durationTicks": 1,
          "midi": 38,
          "name": "D2",
          "ticks": 5640,
          "time": 34.5587475,
          "velocity": 0.6299212598425197
        },
        {
          "duration": 0.006127437499998223,
          "durationTicks": 1,
          "midi": 54,
          "name": "F#3",
          "ticks": 5640,
          "time": 34.5587475,
          "velocity": 0.6299212598425197
        },
        {
          "duration": 0.006127437499998223,
          "durationTicks": 1,
          "midi": 42,
          "name": "F#2",
          "ticks": 5640,
          "time": 34.5587475,
          "velocity": 0.47244094488188976
        },
        {
          "duration": 0.006127437499998223,
          "durationTicks": 1,
          "midi": 54,
          "name": "F#3",
          "ticks": 5664,
          "time": 34.705806,
          "velocity": 0.4330708661417323
        },
        {
          "duration": 0.006127437499998223,
          "durationTicks": 1,
          "midi": 42,
          "name": "F#2",
          "ticks": 5664,
          "time": 34.705806,
          "velocity": 0.47244094488188976
        },
        {
          "duration": 0.006127437499998223,
          "durationTicks": 1,
          "midi": 54,
          "name": "F#3",
          "ticks": 5688,
          "time": 34.8528645,
          "velocity": 0.4330708661417323
        },
        {
          "duration": 0.006127437499998223,
          "durationTicks": 1,
          "midi": 42,
          "name": "F#2",
          "ticks": 5688,
          "time": 34.8528645,
          "velocity": 0.47244094488188976
        },
        {
          "duration": 0.006127437499998223,
          "durationTicks": 1,
          "midi": 54,
          "name": "F#3",
          "ticks": 5712,
          "time": 34.999923,
          "velocity": 0.4330708661417323
        },
        {
          "duration": 0.006127437499998223,
          "durationTicks": 1,
          "midi": 42,
          "name": "F#2",
          "ticks": 5712,
          "time": 34.999923,
          "velocity": 0.47244094488188976
        },
        {
          "duration": 0.006127437499998223,
          "durationTicks": 1,
          "midi": 38,
          "name": "D2",
          "ticks": 5736,
          "time": 35.1469815,
          "velocity": 0.6299212598425197
        },
        {
          "duration": 0.006127437499998223,
          "durationTicks": 1,
          "midi": 54,
          "name": "F#3",
          "ticks": 5736,
          "time": 35.1469815,
          "velocity": 0.6299212598425197
        },
        {
          "duration": 0.006127437499998223,
          "durationTicks": 1,
          "midi": 42,
          "name": "F#2",
          "ticks": 5736,
          "time": 35.1469815,
          "velocity": 0.47244094488188976
        },
        {
          "duration": 0.006127437499998223,
          "durationTicks": 1,
          "midi": 54,
          "name": "F#3",
          "ticks": 5760,
          "time": 35.29404,
          "velocity": 0.4330708661417323
        },
        {
          "duration": 0.006127437499998223,
          "durationTicks": 1,
          "midi": 42,
          "name": "F#2",
          "ticks": 5760,
          "time": 35.29404,
          "velocity": 0.47244094488188976
        },
        {
          "duration": 0.006127437499998223,
          "durationTicks": 1,
          "midi": 54,
          "name": "F#3",
          "ticks": 5784,
          "time": 35.4410985,
          "velocity": 0.4330708661417323
        },
        {
          "duration": 0.006127437499998223,
          "durationTicks": 1,
          "midi": 42,
          "name": "F#2",
          "ticks": 5784,
          "time": 35.4410985,
          "velocity": 0.47244094488188976
        },
        {
          "duration": 0.006127437499998223,
          "durationTicks": 1,
          "midi": 54,
          "name": "F#3",
          "ticks": 5808,
          "time": 35.588157,
          "velocity": 0.4330708661417323
        },
        {
          "duration": 0.006127437499998223,
          "durationTicks": 1,
          "midi": 42,
          "name": "F#2",
          "ticks": 5808,
          "time": 35.588157,
          "velocity": 0.47244094488188976
        },
        {
          "duration": 0.006127437499998223,
          "durationTicks": 1,
          "midi": 38,
          "name": "D2",
          "ticks": 5832,
          "time": 35.7352155,
          "velocity": 0.6299212598425197
        },
        {
          "duration": 0.006127437499998223,
          "durationTicks": 1,
          "midi": 54,
          "name": "F#3",
          "ticks": 5832,
          "time": 35.7352155,
          "velocity": 0.6299212598425197
        },
        {
          "duration": 0.006127437499998223,
          "durationTicks": 1,
          "midi": 42,
          "name": "F#2",
          "ticks": 5832,
          "time": 35.7352155,
          "velocity": 0.47244094488188976
        },
        {
          "duration": 0.006127437499998223,
          "durationTicks": 1,
          "midi": 54,
          "name": "F#3",
          "ticks": 5856,
          "time": 35.882274,
          "velocity": 0.4330708661417323
        },
        {
          "duration": 0.006127437499998223,
          "durationTicks": 1,
          "midi": 42,
          "name": "F#2",
          "ticks": 5856,
          "time": 35.882274,
          "velocity": 0.47244094488188976
        },
        {
          "duration": 0.006127437499998223,
          "durationTicks": 1,
          "midi": 54,
          "name": "F#3",
          "ticks": 5880,
          "time": 36.0293325,
          "velocity": 0.4330708661417323
        },
        {
          "duration": 0.006127437499998223,
          "durationTicks": 1,
          "midi": 42,
          "name": "F#2",
          "ticks": 5880,
          "time": 36.0293325,
          "velocity": 0.47244094488188976
        },
        {
          "duration": 0.006127437499998223,
          "durationTicks": 1,
          "midi": 54,
          "name": "F#3",
          "ticks": 5904,
          "time": 36.176391,
          "velocity": 0.4330708661417323
        },
        {
          "duration": 0.006127437499998223,
          "durationTicks": 1,
          "midi": 42,
          "name": "F#2",
          "ticks": 5904,
          "time": 36.176391,
          "velocity": 0.47244094488188976
        },
        {
          "duration": 0.006127437499998223,
          "durationTicks": 1,
          "midi": 38,
          "name": "D2",
          "ticks": 5928,
          "time": 36.3234495,
          "velocity": 0.6299212598425197
        },
        {
          "duration": 0.006127437499998223,
          "durationTicks": 1,
          "midi": 54,
          "name": "F#3",
          "ticks": 5928,
          "time": 36.3234495,
          "velocity": 0.6299212598425197
        },
        {
          "duration": 0.006127437499998223,
          "durationTicks": 1,
          "midi": 42,
          "name": "F#2",
          "ticks": 5928,
          "time": 36.3234495,
          "velocity": 0.47244094488188976
        },
        {
          "duration": 0.006127437499998223,
          "durationTicks": 1,
          "midi": 54,
          "name": "F#3",
          "ticks": 5952,
          "time": 36.470508,
          "velocity": 0.4330708661417323
        },
        {
          "duration": 0.006127437499998223,
          "durationTicks": 1,
          "midi": 42,
          "name": "F#2",
          "ticks": 5952,
          "time": 36.470508,
          "velocity": 0.47244094488188976
        },
        {
          "duration": 0.006127437499998223,
          "durationTicks": 1,
          "midi": 54,
          "name": "F#3",
          "ticks": 5976,
          "time": 36.6175665,
          "velocity": 0.4330708661417323
        },
        {
          "duration": 0.006127437499998223,
          "durationTicks": 1,
          "midi": 42,
          "name": "F#2",
          "ticks": 5976,
          "time": 36.6175665,
          "velocity": 0.47244094488188976
        },
        {
          "duration": 0.006127437499998223,
          "durationTicks": 1,
          "midi": 38,
          "name": "D2",
          "ticks": 6000,
          "time": 36.764625,
          "velocity": 0.6692913385826772
        },
        {
          "duration": 0.006127437499998223,
          "durationTicks": 1,
          "midi": 54,
          "name": "F#3",
          "ticks": 6000,
          "time": 36.764625,
          "velocity": 0.4330708661417323
        },
        {
          "duration": 0.006127437499998223,
          "durationTicks": 1,
          "midi": 42,
          "name": "F#2",
          "ticks": 6000,
          "time": 36.764625,
          "velocity": 0.47244094488188976
        },
        {
          "duration": 0.006127437499998223,
          "durationTicks": 1,
          "midi": 38,
          "name": "D2",
          "ticks": 6024,
          "time": 36.9116835,
          "velocity": 0.6692913385826772
        },
        {
          "duration": 0.006127437499998223,
          "durationTicks": 1,
          "midi": 54,
          "name": "F#3",
          "ticks": 6024,
          "time": 36.9116835,
          "velocity": 0.4330708661417323
        },
        {
          "duration": 0.006127437499998223,
          "durationTicks": 1,
          "midi": 42,
          "name": "F#2",
          "ticks": 6024,
          "time": 36.9116835,
          "velocity": 0.47244094488188976
        },
        {
          "duration": 0.006127437499998223,
          "durationTicks": 1,
          "midi": 38,
          "name": "D2",
          "ticks": 6048,
          "time": 37.058742,
          "velocity": 0.6692913385826772
        },
        {
          "duration": 0.006127437499998223,
          "durationTicks": 1,
          "midi": 54,
          "name": "F#3",
          "ticks": 6048,
          "time": 37.058742,
          "velocity": 0.4330708661417323
        },
        {
          "duration": 0.006127437499998223,
          "durationTicks": 1,
          "midi": 42,
          "name": "F#2",
          "ticks": 6048,
          "time": 37.058742,
          "velocity": 0.47244094488188976
        },
        {
          "duration": 0.006127437499998223,
          "durationTicks": 1,
          "midi": 42,
          "name": "F#2",
          "ticks": 6072,
          "time": 37.2058005,
          "velocity": 0.47244094488188976
        },
        {
          "duration": 0.006127437499998223,
          "durationTicks": 1,
          "midi": 54,
          "name": "F#3",
          "ticks": 6072,
          "time": 37.2058005,
          "velocity": 0.6299212598425197
        },
        {
          "duration": 0.006127437499998223,
          "durationTicks": 1,
          "midi": 42,
          "name": "F#2",
          "ticks": 6096,
          "time": 37.352859,
          "velocity": 0.47244094488188976
        },
        {
          "duration": 0.006127437499998223,
          "durationTicks": 1,
          "midi": 54,
          "name": "F#3",
          "ticks": 6096,
          "time": 37.352859,
          "velocity": 0.4330708661417323
        },
        {
          "duration": 0.006127437499998223,
          "durationTicks": 1,
          "midi": 38,
          "name": "D2",
          "ticks": 6120,
          "time": 37.4999175,
          "velocity": 0.6299212598425197
        },
        {
          "duration": 0.006127437499998223,
          "durationTicks": 1,
          "midi": 42,
          "name": "F#2",
          "ticks": 6120,
          "time": 37.4999175,
          "velocity": 0.47244094488188976
        },
        {
          "duration": 0.006127437499998223,
          "durationTicks": 1,
          "midi": 54,
          "name": "F#3",
          "ticks": 6120,
          "time": 37.4999175,
          "velocity": 0.4330708661417323
        },
        {
          "duration": 0.006127437499998223,
          "durationTicks": 1,
          "midi": 42,
          "name": "F#2",
          "ticks": 6144,
          "time": 37.646976,
          "velocity": 0.47244094488188976
        },
        {
          "duration": 0.006127437499998223,
          "durationTicks": 1,
          "midi": 54,
          "name": "F#3",
          "ticks": 6144,
          "time": 37.646976,
          "velocity": 0.4330708661417323
        },
        {
          "duration": 0.006127437499998223,
          "durationTicks": 1,
          "midi": 42,
          "name": "F#2",
          "ticks": 6168,
          "time": 37.7940345,
          "velocity": 0.47244094488188976
        },
        {
          "duration": 0.006127437499998223,
          "durationTicks": 1,
          "midi": 54,
          "name": "F#3",
          "ticks": 6168,
          "time": 37.7940345,
          "velocity": 0.6299212598425197
        },
        {
          "duration": 0.006127437499998223,
          "durationTicks": 1,
          "midi": 42,
          "name": "F#2",
          "ticks": 6192,
          "time": 37.941093,
          "velocity": 0.47244094488188976
        },
        {
          "duration": 0.006127437499998223,
          "durationTicks": 1,
          "midi": 54,
          "name": "F#3",
          "ticks": 6192,
          "time": 37.941093,
          "velocity": 0.4330708661417323
        },
        {
          "duration": 0.006127437499998223,
          "durationTicks": 1,
          "midi": 38,
          "name": "D2",
          "ticks": 6216,
          "time": 38.0881515,
          "velocity": 0.6299212598425197
        },
        {
          "duration": 0.006127437499998223,
          "durationTicks": 1,
          "midi": 42,
          "name": "F#2",
          "ticks": 6216,
          "time": 38.0881515,
          "velocity": 0.47244094488188976
        },
        {
          "duration": 0.006127437499998223,
          "durationTicks": 1,
          "midi": 54,
          "name": "F#3",
          "ticks": 6216,
          "time": 38.0881515,
          "velocity": 0.4330708661417323
        },
        {
          "duration": 0.006127437499998223,
          "durationTicks": 1,
          "midi": 42,
          "name": "F#2",
          "ticks": 6240,
          "time": 38.23521,
          "velocity": 0.47244094488188976
        },
        {
          "duration": 0.006127437499998223,
          "durationTicks": 1,
          "midi": 54,
          "name": "F#3",
          "ticks": 6240,
          "time": 38.23521,
          "velocity": 0.4330708661417323
        },
        {
          "duration": 0.006127437499998223,
          "durationTicks": 1,
          "midi": 54,
          "name": "F#3",
          "ticks": 6264,
          "time": 38.3822685,
          "velocity": 0.6299212598425197
        },
        {
          "duration": 0.006127437499998223,
          "durationTicks": 1,
          "midi": 42,
          "name": "F#2",
          "ticks": 6264,
          "time": 38.3822685,
          "velocity": 0.47244094488188976
        },
        {
          "duration": 0.006127437499998223,
          "durationTicks": 1,
          "midi": 54,
          "name": "F#3",
          "ticks": 6288,
          "time": 38.529327,
          "velocity": 0.4330708661417323
        },
        {
          "duration": 0.006127437499998223,
          "durationTicks": 1,
          "midi": 42,
          "name": "F#2",
          "ticks": 6288,
          "time": 38.529327,
          "velocity": 0.47244094488188976
        },
        {
          "duration": 0.006127437499998223,
          "durationTicks": 1,
          "midi": 38,
          "name": "D2",
          "ticks": 6312,
          "time": 38.6763855,
          "velocity": 0.6299212598425197
        },
        {
          "duration": 0.006127437499998223,
          "durationTicks": 1,
          "midi": 54,
          "name": "F#3",
          "ticks": 6312,
          "time": 38.6763855,
          "velocity": 0.4330708661417323
        },
        {
          "duration": 0.006127437499998223,
          "durationTicks": 1,
          "midi": 42,
          "name": "F#2",
          "ticks": 6312,
          "time": 38.6763855,
          "velocity": 0.47244094488188976
        },
        {
          "duration": 0.006127437499998223,
          "durationTicks": 1,
          "midi": 54,
          "name": "F#3",
          "ticks": 6336,
          "time": 38.823444,
          "velocity": 0.4330708661417323
        },
        {
          "duration": 0.006127437499998223,
          "durationTicks": 1,
          "midi": 42,
          "name": "F#2",
          "ticks": 6336,
          "time": 38.823444,
          "velocity": 0.47244094488188976
        },
        {
          "duration": 0.006127437499998223,
          "durationTicks": 1,
          "midi": 54,
          "name": "F#3",
          "ticks": 6360,
          "time": 38.9705025,
          "velocity": 0.4330708661417323
        },
        {
          "duration": 0.006127437499998223,
          "durationTicks": 1,
          "midi": 42,
          "name": "F#2",
          "ticks": 6360,
          "time": 38.9705025,
          "velocity": 0.47244094488188976
        },
        {
          "duration": 0.006127437499998223,
          "durationTicks": 1,
          "midi": 54,
          "name": "F#3",
          "ticks": 6384,
          "time": 39.117561,
          "velocity": 0.4330708661417323
        },
        {
          "duration": 0.006127437499998223,
          "durationTicks": 1,
          "midi": 42,
          "name": "F#2",
          "ticks": 6384,
          "time": 39.117561,
          "velocity": 0.47244094488188976
        },
        {
          "duration": 0.006127437499998223,
          "durationTicks": 1,
          "midi": 38,
          "name": "D2",
          "ticks": 6408,
          "time": 39.2646195,
          "velocity": 0.6299212598425197
        },
        {
          "duration": 0.006127437499998223,
          "durationTicks": 1,
          "midi": 54,
          "name": "F#3",
          "ticks": 6408,
          "time": 39.2646195,
          "velocity": 0.6299212598425197
        },
        {
          "duration": 0.006127437499998223,
          "durationTicks": 1,
          "midi": 42,
          "name": "F#2",
          "ticks": 6408,
          "time": 39.2646195,
          "velocity": 0.47244094488188976
        },
        {
          "duration": 0.006127437499998223,
          "durationTicks": 1,
          "midi": 54,
          "name": "F#3",
          "ticks": 6432,
          "time": 39.411678,
          "velocity": 0.4330708661417323
        },
        {
          "duration": 0.006127437499998223,
          "durationTicks": 1,
          "midi": 42,
          "name": "F#2",
          "ticks": 6432,
          "time": 39.411678,
          "velocity": 0.47244094488188976
        },
        {
          "duration": 0.006127437499998223,
          "durationTicks": 1,
          "midi": 54,
          "name": "F#3",
          "ticks": 6456,
          "time": 39.5587365,
          "velocity": 0.4330708661417323
        },
        {
          "duration": 0.006127437499998223,
          "durationTicks": 1,
          "midi": 42,
          "name": "F#2",
          "ticks": 6456,
          "time": 39.5587365,
          "velocity": 0.47244094488188976
        },
        {
          "duration": 0.006127437499998223,
          "durationTicks": 1,
          "midi": 54,
          "name": "F#3",
          "ticks": 6480,
          "time": 39.705795,
          "velocity": 0.4330708661417323
        },
        {
          "duration": 0.006127437499998223,
          "durationTicks": 1,
          "midi": 42,
          "name": "F#2",
          "ticks": 6480,
          "time": 39.705795,
          "velocity": 0.47244094488188976
        },
        {
          "duration": 0.006127437499998223,
          "durationTicks": 1,
          "midi": 38,
          "name": "D2",
          "ticks": 6504,
          "time": 39.8528535,
          "velocity": 0.6299212598425197
        },
        {
          "duration": 0.006127437499998223,
          "durationTicks": 1,
          "midi": 54,
          "name": "F#3",
          "ticks": 6504,
          "time": 39.8528535,
          "velocity": 0.6299212598425197
        },
        {
          "duration": 0.006127437499998223,
          "durationTicks": 1,
          "midi": 42,
          "name": "F#2",
          "ticks": 6504,
          "time": 39.8528535,
          "velocity": 0.47244094488188976
        },
        {
          "duration": 0.006127437499998223,
          "durationTicks": 1,
          "midi": 54,
          "name": "F#3",
          "ticks": 6528,
          "time": 39.999912,
          "velocity": 0.4330708661417323
        },
        {
          "duration": 0.006127437499998223,
          "durationTicks": 1,
          "midi": 42,
          "name": "F#2",
          "ticks": 6528,
          "time": 39.999912,
          "velocity": 0.47244094488188976
        },
        {
          "duration": 0.006127437499998223,
          "durationTicks": 1,
          "midi": 54,
          "name": "F#3",
          "ticks": 6552,
          "time": 40.1469705,
          "velocity": 0.4330708661417323
        },
        {
          "duration": 0.006127437499998223,
          "durationTicks": 1,
          "midi": 42,
          "name": "F#2",
          "ticks": 6552,
          "time": 40.1469705,
          "velocity": 0.47244094488188976
        },
        {
          "duration": 0.006127437499998223,
          "durationTicks": 1,
          "midi": 54,
          "name": "F#3",
          "ticks": 6576,
          "time": 40.294029,
          "velocity": 0.4330708661417323
        },
        {
          "duration": 0.006127437499998223,
          "durationTicks": 1,
          "midi": 42,
          "name": "F#2",
          "ticks": 6576,
          "time": 40.294029,
          "velocity": 0.47244094488188976
        },
        {
          "duration": 0.006127437499998223,
          "durationTicks": 1,
          "midi": 38,
          "name": "D2",
          "ticks": 6600,
          "time": 40.4410875,
          "velocity": 0.6299212598425197
        },
        {
          "duration": 0.006127437499998223,
          "durationTicks": 1,
          "midi": 54,
          "name": "F#3",
          "ticks": 6600,
          "time": 40.4410875,
          "velocity": 0.6299212598425197
        },
        {
          "duration": 0.006127437499998223,
          "durationTicks": 1,
          "midi": 42,
          "name": "F#2",
          "ticks": 6600,
          "time": 40.4410875,
          "velocity": 0.47244094488188976
        },
        {
          "duration": 0.006127437499998223,
          "durationTicks": 1,
          "midi": 54,
          "name": "F#3",
          "ticks": 6624,
          "time": 40.588146,
          "velocity": 0.4330708661417323
        },
        {
          "duration": 0.006127437499998223,
          "durationTicks": 1,
          "midi": 42,
          "name": "F#2",
          "ticks": 6624,
          "time": 40.588146,
          "velocity": 0.47244094488188976
        },
        {
          "duration": 0.006127437499998223,
          "durationTicks": 1,
          "midi": 54,
          "name": "F#3",
          "ticks": 6648,
          "time": 40.7352045,
          "velocity": 0.4330708661417323
        },
        {
          "duration": 0.006127437499998223,
          "durationTicks": 1,
          "midi": 42,
          "name": "F#2",
          "ticks": 6648,
          "time": 40.7352045,
          "velocity": 0.47244094488188976
        },
        {
          "duration": 0.006127437499998223,
          "durationTicks": 1,
          "midi": 54,
          "name": "F#3",
          "ticks": 6672,
          "time": 40.882263,
          "velocity": 0.4330708661417323
        },
        {
          "duration": 0.006127437499998223,
          "durationTicks": 1,
          "midi": 42,
          "name": "F#2",
          "ticks": 6672,
          "time": 40.882263,
          "velocity": 0.47244094488188976
        },
        {
          "duration": 0.006127437499998223,
          "durationTicks": 1,
          "midi": 38,
          "name": "D2",
          "ticks": 6696,
          "time": 41.0293215,
          "velocity": 0.6299212598425197
        },
        {
          "duration": 0.006127437499998223,
          "durationTicks": 1,
          "midi": 54,
          "name": "F#3",
          "ticks": 6696,
          "time": 41.0293215,
          "velocity": 0.6299212598425197
        },
        {
          "duration": 0.006127437499998223,
          "durationTicks": 1,
          "midi": 42,
          "name": "F#2",
          "ticks": 6696,
          "time": 41.0293215,
          "velocity": 0.47244094488188976
        },
        {
          "duration": 0.006127437499998223,
          "durationTicks": 1,
          "midi": 54,
          "name": "F#3",
          "ticks": 6720,
          "time": 41.17638,
          "velocity": 0.4330708661417323
        },
        {
          "duration": 0.006127437499998223,
          "durationTicks": 1,
          "midi": 42,
          "name": "F#2",
          "ticks": 6720,
          "time": 41.17638,
          "velocity": 0.47244094488188976
        },
        {
          "duration": 0.006127437499998223,
          "durationTicks": 1,
          "midi": 54,
          "name": "F#3",
          "ticks": 6744,
          "time": 41.3234385,
          "velocity": 0.4330708661417323
        },
        {
          "duration": 0.006127437499998223,
          "durationTicks": 1,
          "midi": 42,
          "name": "F#2",
          "ticks": 6744,
          "time": 41.3234385,
          "velocity": 0.47244094488188976
        },
        {
          "duration": 0.006127437499998223,
          "durationTicks": 1,
          "midi": 54,
          "name": "F#3",
          "ticks": 6768,
          "time": 41.470497,
          "velocity": 0.4330708661417323
        },
        {
          "duration": 0.006127437499998223,
          "durationTicks": 1,
          "midi": 42,
          "name": "F#2",
          "ticks": 6768,
          "time": 41.470497,
          "velocity": 0.47244094488188976
        },
        {
          "duration": 0.006127437499998223,
          "durationTicks": 1,
          "midi": 38,
          "name": "D2",
          "ticks": 6792,
          "time": 41.6175555,
          "velocity": 0.6299212598425197
        },
        {
          "duration": 0.006127437499998223,
          "durationTicks": 1,
          "midi": 54,
          "name": "F#3",
          "ticks": 6792,
          "time": 41.6175555,
          "velocity": 0.4330708661417323
        },
        {
          "duration": 0.006127437499998223,
          "durationTicks": 1,
          "midi": 42,
          "name": "F#2",
          "ticks": 6792,
          "time": 41.6175555,
          "velocity": 0.47244094488188976
        },
        {
          "duration": 0.006127437499998223,
          "durationTicks": 1,
          "midi": 54,
          "name": "F#3",
          "ticks": 6816,
          "time": 41.764614,
          "velocity": 0.4330708661417323
        },
        {
          "duration": 0.006127437499998223,
          "durationTicks": 1,
          "midi": 42,
          "name": "F#2",
          "ticks": 6816,
          "time": 41.764614,
          "velocity": 0.47244094488188976
        },
        {
          "duration": 0.006127437499998223,
          "durationTicks": 1,
          "midi": 42,
          "name": "F#2",
          "ticks": 6840,
          "time": 41.9116725,
          "velocity": 0.47244094488188976
        },
        {
          "duration": 0.006127437499998223,
          "durationTicks": 1,
          "midi": 54,
          "name": "F#3",
          "ticks": 6840,
          "time": 41.9116725,
          "velocity": 0.6299212598425197
        },
        {
          "duration": 0.006127437499998223,
          "durationTicks": 1,
          "midi": 42,
          "name": "F#2",
          "ticks": 6864,
          "time": 42.058731,
          "velocity": 0.47244094488188976
        },
        {
          "duration": 0.006127437499998223,
          "durationTicks": 1,
          "midi": 54,
          "name": "F#3",
          "ticks": 6864,
          "time": 42.058731,
          "velocity": 0.4330708661417323
        },
        {
          "duration": 0.006127437499998223,
          "durationTicks": 1,
          "midi": 38,
          "name": "D2",
          "ticks": 6888,
          "time": 42.2057895,
          "velocity": 0.6299212598425197
        },
        {
          "duration": 0.006127437499998223,
          "durationTicks": 1,
          "midi": 42,
          "name": "F#2",
          "ticks": 6888,
          "time": 42.2057895,
          "velocity": 0.47244094488188976
        },
        {
          "duration": 0.006127437499998223,
          "durationTicks": 1,
          "midi": 54,
          "name": "F#3",
          "ticks": 6888,
          "time": 42.2057895,
          "velocity": 0.4330708661417323
        },
        {
          "duration": 0.006127437499998223,
          "durationTicks": 1,
          "midi": 42,
          "name": "F#2",
          "ticks": 6912,
          "time": 42.352848,
          "velocity": 0.47244094488188976
        },
        {
          "duration": 0.006127437499998223,
          "durationTicks": 1,
          "midi": 54,
          "name": "F#3",
          "ticks": 6912,
          "time": 42.352848,
          "velocity": 0.4330708661417323
        },
        {
          "duration": 0.006127437499998223,
          "durationTicks": 1,
          "midi": 42,
          "name": "F#2",
          "ticks": 6936,
          "time": 42.4999065,
          "velocity": 0.47244094488188976
        },
        {
          "duration": 0.006127437499998223,
          "durationTicks": 1,
          "midi": 54,
          "name": "F#3",
          "ticks": 6936,
          "time": 42.4999065,
          "velocity": 0.6299212598425197
        },
        {
          "duration": 0.006127437499998223,
          "durationTicks": 1,
          "midi": 42,
          "name": "F#2",
          "ticks": 6960,
          "time": 42.646965,
          "velocity": 0.47244094488188976
        },
        {
          "duration": 0.006127437499998223,
          "durationTicks": 1,
          "midi": 54,
          "name": "F#3",
          "ticks": 6960,
          "time": 42.646965,
          "velocity": 0.4330708661417323
        },
        {
          "duration": 0.006127437499998223,
          "durationTicks": 1,
          "midi": 38,
          "name": "D2",
          "ticks": 6984,
          "time": 42.7940235,
          "velocity": 0.6299212598425197
        },
        {
          "duration": 0.006127437499998223,
          "durationTicks": 1,
          "midi": 42,
          "name": "F#2",
          "ticks": 6984,
          "time": 42.7940235,
          "velocity": 0.47244094488188976
        },
        {
          "duration": 0.006127437499998223,
          "durationTicks": 1,
          "midi": 54,
          "name": "F#3",
          "ticks": 6984,
          "time": 42.7940235,
          "velocity": 0.4330708661417323
        },
        {
          "duration": 0.006127437499998223,
          "durationTicks": 1,
          "midi": 42,
          "name": "F#2",
          "ticks": 7008,
          "time": 42.941082,
          "velocity": 0.47244094488188976
        },
        {
          "duration": 0.006127437499998223,
          "durationTicks": 1,
          "midi": 54,
          "name": "F#3",
          "ticks": 7008,
          "time": 42.941082,
          "velocity": 0.4330708661417323
        },
        {
          "duration": 0.006127437499998223,
          "durationTicks": 1,
          "midi": 54,
          "name": "F#3",
          "ticks": 7032,
          "time": 43.0881405,
          "velocity": 0.6299212598425197
        },
        {
          "duration": 0.006127437499998223,
          "durationTicks": 1,
          "midi": 42,
          "name": "F#2",
          "ticks": 7032,
          "time": 43.0881405,
          "velocity": 0.47244094488188976
        },
        {
          "duration": 0.006127437499998223,
          "durationTicks": 1,
          "midi": 54,
          "name": "F#3",
          "ticks": 7056,
          "time": 43.235199,
          "velocity": 0.4330708661417323
        },
        {
          "duration": 0.006127437499998223,
          "durationTicks": 1,
          "midi": 42,
          "name": "F#2",
          "ticks": 7056,
          "time": 43.235199,
          "velocity": 0.47244094488188976
        },
        {
          "duration": 0.006127437499998223,
          "durationTicks": 1,
          "midi": 38,
          "name": "D2",
          "ticks": 7080,
          "time": 43.3822575,
          "velocity": 0.6299212598425197
        },
        {
          "duration": 0.006127437499998223,
          "durationTicks": 1,
          "midi": 54,
          "name": "F#3",
          "ticks": 7080,
          "time": 43.3822575,
          "velocity": 0.4330708661417323
        },
        {
          "duration": 0.006127437499998223,
          "durationTicks": 1,
          "midi": 42,
          "name": "F#2",
          "ticks": 7080,
          "time": 43.3822575,
          "velocity": 0.47244094488188976
        },
        {
          "duration": 0.006127437499998223,
          "durationTicks": 1,
          "midi": 54,
          "name": "F#3",
          "ticks": 7104,
          "time": 43.529316,
          "velocity": 0.4330708661417323
        },
        {
          "duration": 0.006127437499998223,
          "durationTicks": 1,
          "midi": 42,
          "name": "F#2",
          "ticks": 7104,
          "time": 43.529316,
          "velocity": 0.47244094488188976
        },
        {
          "duration": 0.006127437499991117,
          "durationTicks": 1,
          "midi": 54,
          "name": "F#3",
          "ticks": 7128,
          "time": 43.67637450000001,
          "velocity": 0.4330708661417323
        },
        {
          "duration": 0.006127437499991117,
          "durationTicks": 1,
          "midi": 42,
          "name": "F#2",
          "ticks": 7128,
          "time": 43.67637450000001,
          "velocity": 0.47244094488188976
        },
        {
          "duration": 0.006127437499991117,
          "durationTicks": 1,
          "midi": 54,
          "name": "F#3",
          "ticks": 7152,
          "time": 43.82343300000001,
          "velocity": 0.4330708661417323
        },
        {
          "duration": 0.006127437499991117,
          "durationTicks": 1,
          "midi": 42,
          "name": "F#2",
          "ticks": 7152,
          "time": 43.82343300000001,
          "velocity": 0.47244094488188976
        },
        {
          "duration": 0.006127437499991117,
          "durationTicks": 1,
          "midi": 38,
          "name": "D2",
          "ticks": 7176,
          "time": 43.97049150000001,
          "velocity": 0.6299212598425197
        },
        {
          "duration": 0.006127437499991117,
          "durationTicks": 1,
          "midi": 54,
          "name": "F#3",
          "ticks": 7176,
          "time": 43.97049150000001,
          "velocity": 0.6299212598425197
        },
        {
          "duration": 0.006127437499991117,
          "durationTicks": 1,
          "midi": 42,
          "name": "F#2",
          "ticks": 7176,
          "time": 43.97049150000001,
          "velocity": 0.47244094488188976
        },
        {
          "duration": 0.006127437499991117,
          "durationTicks": 1,
          "midi": 54,
          "name": "F#3",
          "ticks": 7200,
          "time": 44.11755000000001,
          "velocity": 0.4330708661417323
        },
        {
          "duration": 0.006127437499991117,
          "durationTicks": 1,
          "midi": 42,
          "name": "F#2",
          "ticks": 7200,
          "time": 44.11755000000001,
          "velocity": 0.47244094488188976
        },
        {
          "duration": 0.006127437499991117,
          "durationTicks": 1,
          "midi": 54,
          "name": "F#3",
          "ticks": 7224,
          "time": 44.26460850000001,
          "velocity": 0.4330708661417323
        },
        {
          "duration": 0.006127437499991117,
          "durationTicks": 1,
          "midi": 42,
          "name": "F#2",
          "ticks": 7224,
          "time": 44.26460850000001,
          "velocity": 0.47244094488188976
        },
        {
          "duration": 0.006127437499991117,
          "durationTicks": 1,
          "midi": 54,
          "name": "F#3",
          "ticks": 7248,
          "time": 44.41166700000001,
          "velocity": 0.4330708661417323
        },
        {
          "duration": 0.006127437499991117,
          "durationTicks": 1,
          "midi": 42,
          "name": "F#2",
          "ticks": 7248,
          "time": 44.41166700000001,
          "velocity": 0.47244094488188976
        },
        {
          "duration": 0.006127437499991117,
          "durationTicks": 1,
          "midi": 38,
          "name": "D2",
          "ticks": 7272,
          "time": 44.55872550000001,
          "velocity": 0.6299212598425197
        },
        {
          "duration": 0.006127437499991117,
          "durationTicks": 1,
          "midi": 54,
          "name": "F#3",
          "ticks": 7272,
          "time": 44.55872550000001,
          "velocity": 0.6299212598425197
        },
        {
          "duration": 0.006127437499991117,
          "durationTicks": 1,
          "midi": 42,
          "name": "F#2",
          "ticks": 7272,
          "time": 44.55872550000001,
          "velocity": 0.47244094488188976
        },
        {
          "duration": 0.006127437499991117,
          "durationTicks": 1,
          "midi": 54,
          "name": "F#3",
          "ticks": 7296,
          "time": 44.70578400000001,
          "velocity": 0.4330708661417323
        },
        {
          "duration": 0.006127437499991117,
          "durationTicks": 1,
          "midi": 42,
          "name": "F#2",
          "ticks": 7296,
          "time": 44.70578400000001,
          "velocity": 0.47244094488188976
        },
        {
          "duration": 0.006127437499991117,
          "durationTicks": 1,
          "midi": 54,
          "name": "F#3",
          "ticks": 7320,
          "time": 44.85284250000001,
          "velocity": 0.4330708661417323
        },
        {
          "duration": 0.006127437499991117,
          "durationTicks": 1,
          "midi": 42,
          "name": "F#2",
          "ticks": 7320,
          "time": 44.85284250000001,
          "velocity": 0.47244094488188976
        },
        {
          "duration": 0.006127437499991117,
          "durationTicks": 1,
          "midi": 54,
          "name": "F#3",
          "ticks": 7344,
          "time": 44.99990100000001,
          "velocity": 0.4330708661417323
        },
        {
          "duration": 0.006127437499991117,
          "durationTicks": 1,
          "midi": 42,
          "name": "F#2",
          "ticks": 7344,
          "time": 44.99990100000001,
          "velocity": 0.47244094488188976
        },
        {
          "duration": 0.006127437499991117,
          "durationTicks": 1,
          "midi": 38,
          "name": "D2",
          "ticks": 7368,
          "time": 45.14695950000001,
          "velocity": 0.6299212598425197
        },
        {
          "duration": 0.006127437499991117,
          "durationTicks": 1,
          "midi": 54,
          "name": "F#3",
          "ticks": 7368,
          "time": 45.14695950000001,
          "velocity": 0.6299212598425197
        },
        {
          "duration": 0.006127437499991117,
          "durationTicks": 1,
          "midi": 42,
          "name": "F#2",
          "ticks": 7368,
          "time": 45.14695950000001,
          "velocity": 0.47244094488188976
        },
        {
          "duration": 0.006127437499991117,
          "durationTicks": 1,
          "midi": 54,
          "name": "F#3",
          "ticks": 7392,
          "time": 45.29401800000001,
          "velocity": 0.4330708661417323
        },
        {
          "duration": 0.006127437499991117,
          "durationTicks": 1,
          "midi": 42,
          "name": "F#2",
          "ticks": 7392,
          "time": 45.29401800000001,
          "velocity": 0.47244094488188976
        },
        {
          "duration": 0.006127437499991117,
          "durationTicks": 1,
          "midi": 54,
          "name": "F#3",
          "ticks": 7416,
          "time": 45.44107650000001,
          "velocity": 0.4330708661417323
        },
        {
          "duration": 0.006127437499991117,
          "durationTicks": 1,
          "midi": 42,
          "name": "F#2",
          "ticks": 7416,
          "time": 45.44107650000001,
          "velocity": 0.47244094488188976
        },
        {
          "duration": 0.006127437499991117,
          "durationTicks": 1,
          "midi": 54,
          "name": "F#3",
          "ticks": 7440,
          "time": 45.58813500000001,
          "velocity": 0.4330708661417323
        },
        {
          "duration": 0.006127437499991117,
          "durationTicks": 1,
          "midi": 42,
          "name": "F#2",
          "ticks": 7440,
          "time": 45.58813500000001,
          "velocity": 0.47244094488188976
        },
        {
          "duration": 0.006127437499991117,
          "durationTicks": 1,
          "midi": 38,
          "name": "D2",
          "ticks": 7464,
          "time": 45.73519350000001,
          "velocity": 0.6299212598425197
        },
        {
          "duration": 0.006127437499991117,
          "durationTicks": 1,
          "midi": 54,
          "name": "F#3",
          "ticks": 7464,
          "time": 45.73519350000001,
          "velocity": 0.6299212598425197
        },
        {
          "duration": 0.006127437499991117,
          "durationTicks": 1,
          "midi": 42,
          "name": "F#2",
          "ticks": 7464,
          "time": 45.73519350000001,
          "velocity": 0.47244094488188976
        },
        {
          "duration": 0.006127437499991117,
          "durationTicks": 1,
          "midi": 54,
          "name": "F#3",
          "ticks": 7488,
          "time": 45.88225200000001,
          "velocity": 0.4330708661417323
        },
        {
          "duration": 0.006127437499991117,
          "durationTicks": 1,
          "midi": 42,
          "name": "F#2",
          "ticks": 7488,
          "time": 45.88225200000001,
          "velocity": 0.47244094488188976
        },
        {
          "duration": 0.006127437499991117,
          "durationTicks": 1,
          "midi": 54,
          "name": "F#3",
          "ticks": 7512,
          "time": 46.02931050000001,
          "velocity": 0.4330708661417323
        },
        {
          "duration": 0.006127437499991117,
          "durationTicks": 1,
          "midi": 42,
          "name": "F#2",
          "ticks": 7512,
          "time": 46.02931050000001,
          "velocity": 0.47244094488188976
        },
        {
          "duration": 0.006127437499991117,
          "durationTicks": 1,
          "midi": 54,
          "name": "F#3",
          "ticks": 7536,
          "time": 46.17636900000001,
          "velocity": 0.4330708661417323
        },
        {
          "duration": 0.006127437499991117,
          "durationTicks": 1,
          "midi": 42,
          "name": "F#2",
          "ticks": 7536,
          "time": 46.17636900000001,
          "velocity": 0.47244094488188976
        },
        {
          "duration": 0.006127437499991117,
          "durationTicks": 1,
          "midi": 38,
          "name": "D2",
          "ticks": 7560,
          "time": 46.32342750000001,
          "velocity": 0.6299212598425197
        },
        {
          "duration": 0.006127437499991117,
          "durationTicks": 1,
          "midi": 54,
          "name": "F#3",
          "ticks": 7560,
          "time": 46.32342750000001,
          "velocity": 0.4330708661417323
        },
        {
          "duration": 0.006127437499991117,
          "durationTicks": 1,
          "midi": 42,
          "name": "F#2",
          "ticks": 7560,
          "time": 46.32342750000001,
          "velocity": 0.47244094488188976
        },
        {
          "duration": 0.006127437499991117,
          "durationTicks": 1,
          "midi": 54,
          "name": "F#3",
          "ticks": 7584,
          "time": 46.47048600000001,
          "velocity": 0.4330708661417323
        },
        {
          "duration": 0.006127437499991117,
          "durationTicks": 1,
          "midi": 42,
          "name": "F#2",
          "ticks": 7584,
          "time": 46.47048600000001,
          "velocity": 0.47244094488188976
        },
        {
          "duration": 0.006127437499991117,
          "durationTicks": 1,
          "midi": 42,
          "name": "F#2",
          "ticks": 7608,
          "time": 46.61754450000001,
          "velocity": 0.47244094488188976
        },
        {
          "duration": 0.006127437499991117,
          "durationTicks": 1,
          "midi": 54,
          "name": "F#3",
          "ticks": 7608,
          "time": 46.61754450000001,
          "velocity": 0.6299212598425197
        },
        {
          "duration": 0.006127437499991117,
          "durationTicks": 1,
          "midi": 42,
          "name": "F#2",
          "ticks": 7632,
          "time": 46.76460300000001,
          "velocity": 0.47244094488188976
        },
        {
          "duration": 0.006127437499991117,
          "durationTicks": 1,
          "midi": 54,
          "name": "F#3",
          "ticks": 7632,
          "time": 46.76460300000001,
          "velocity": 0.4330708661417323
        },
        {
          "duration": 0.006127437499991117,
          "durationTicks": 1,
          "midi": 38,
          "name": "D2",
          "ticks": 7656,
          "time": 46.91166150000001,
          "velocity": 0.6299212598425197
        },
        {
          "duration": 0.006127437499991117,
          "durationTicks": 1,
          "midi": 42,
          "name": "F#2",
          "ticks": 7656,
          "time": 46.91166150000001,
          "velocity": 0.47244094488188976
        },
        {
          "duration": 0.006127437499991117,
          "durationTicks": 1,
          "midi": 54,
          "name": "F#3",
          "ticks": 7656,
          "time": 46.91166150000001,
          "velocity": 0.4330708661417323
        },
        {
          "duration": 0.006127437499991117,
          "durationTicks": 1,
          "midi": 42,
          "name": "F#2",
          "ticks": 7680,
          "time": 47.05872000000001,
          "velocity": 0.47244094488188976
        },
        {
          "duration": 0.006127437499991117,
          "durationTicks": 1,
          "midi": 54,
          "name": "F#3",
          "ticks": 7680,
          "time": 47.05872000000001,
          "velocity": 0.4330708661417323
        },
        {
          "duration": 0.006127437499991117,
          "durationTicks": 1,
          "midi": 42,
          "name": "F#2",
          "ticks": 7704,
          "time": 47.20577850000001,
          "velocity": 0.47244094488188976
        },
        {
          "duration": 0.006127437499991117,
          "durationTicks": 1,
          "midi": 54,
          "name": "F#3",
          "ticks": 7704,
          "time": 47.20577850000001,
          "velocity": 0.6299212598425197
        },
        {
          "duration": 0.006127437499991117,
          "durationTicks": 1,
          "midi": 42,
          "name": "F#2",
          "ticks": 7728,
          "time": 47.35283700000001,
          "velocity": 0.47244094488188976
        },
        {
          "duration": 0.006127437499991117,
          "durationTicks": 1,
          "midi": 54,
          "name": "F#3",
          "ticks": 7728,
          "time": 47.35283700000001,
          "velocity": 0.4330708661417323
        },
        {
          "duration": 0.006127437499991117,
          "durationTicks": 1,
          "midi": 38,
          "name": "D2",
          "ticks": 7752,
          "time": 47.49989550000001,
          "velocity": 0.6299212598425197
        },
        {
          "duration": 0.006127437499991117,
          "durationTicks": 1,
          "midi": 42,
          "name": "F#2",
          "ticks": 7752,
          "time": 47.49989550000001,
          "velocity": 0.47244094488188976
        },
        {
          "duration": 0.006127437499991117,
          "durationTicks": 1,
          "midi": 54,
          "name": "F#3",
          "ticks": 7752,
          "time": 47.49989550000001,
          "velocity": 0.4330708661417323
        },
        {
          "duration": 0.006127437499991117,
          "durationTicks": 1,
          "midi": 42,
          "name": "F#2",
          "ticks": 7776,
          "time": 47.64695400000001,
          "velocity": 0.47244094488188976
        },
        {
          "duration": 0.006127437499991117,
          "durationTicks": 1,
          "midi": 54,
          "name": "F#3",
          "ticks": 7776,
          "time": 47.64695400000001,
          "velocity": 0.4330708661417323
        },
        {
          "duration": 0.006127437499991117,
          "durationTicks": 1,
          "midi": 54,
          "name": "F#3",
          "ticks": 7800,
          "time": 47.79401250000001,
          "velocity": 0.6299212598425197
        },
        {
          "duration": 0.006127437499991117,
          "durationTicks": 1,
          "midi": 42,
          "name": "F#2",
          "ticks": 7800,
          "time": 47.79401250000001,
          "velocity": 0.47244094488188976
        },
        {
          "duration": 0.006127437499991117,
          "durationTicks": 1,
          "midi": 54,
          "name": "F#3",
          "ticks": 7824,
          "time": 47.94107100000001,
          "velocity": 0.4330708661417323
        },
        {
          "duration": 0.006127437499991117,
          "durationTicks": 1,
          "midi": 42,
          "name": "F#2",
          "ticks": 7824,
          "time": 47.94107100000001,
          "velocity": 0.47244094488188976
        },
        {
          "duration": 0.006127437499991117,
          "durationTicks": 1,
          "midi": 38,
          "name": "D2",
          "ticks": 7848,
          "time": 48.08812950000001,
          "velocity": 0.6299212598425197
        },
        {
          "duration": 0.006127437499991117,
          "durationTicks": 1,
          "midi": 54,
          "name": "F#3",
          "ticks": 7848,
          "time": 48.08812950000001,
          "velocity": 0.4330708661417323
        },
        {
          "duration": 0.006127437499991117,
          "durationTicks": 1,
          "midi": 42,
          "name": "F#2",
          "ticks": 7848,
          "time": 48.08812950000001,
          "velocity": 0.47244094488188976
        },
        {
          "duration": 0.006127437499991117,
          "durationTicks": 1,
          "midi": 54,
          "name": "F#3",
          "ticks": 7872,
          "time": 48.23518800000001,
          "velocity": 0.4330708661417323
        },
        {
          "duration": 0.006127437499991117,
          "durationTicks": 1,
          "midi": 42,
          "name": "F#2",
          "ticks": 7872,
          "time": 48.23518800000001,
          "velocity": 0.47244094488188976
        },
        {
          "duration": 0.006127437499991117,
          "durationTicks": 1,
          "midi": 54,
          "name": "F#3",
          "ticks": 7896,
          "time": 48.38224650000001,
          "velocity": 0.4330708661417323
        },
        {
          "duration": 0.006127437499991117,
          "durationTicks": 1,
          "midi": 42,
          "name": "F#2",
          "ticks": 7896,
          "time": 48.38224650000001,
          "velocity": 0.47244094488188976
        },
        {
          "duration": 0.006127437499991117,
          "durationTicks": 1,
          "midi": 54,
          "name": "F#3",
          "ticks": 7920,
          "time": 48.52930500000001,
          "velocity": 0.4330708661417323
        },
        {
          "duration": 0.006127437499991117,
          "durationTicks": 1,
          "midi": 42,
          "name": "F#2",
          "ticks": 7920,
          "time": 48.52930500000001,
          "velocity": 0.47244094488188976
        },
        {
          "duration": 0.006127437499991117,
          "durationTicks": 1,
          "midi": 38,
          "name": "D2",
          "ticks": 7944,
          "time": 48.67636350000001,
          "velocity": 0.6299212598425197
        },
        {
          "duration": 0.006127437499991117,
          "durationTicks": 1,
          "midi": 54,
          "name": "F#3",
          "ticks": 7944,
          "time": 48.67636350000001,
          "velocity": 0.6299212598425197
        },
        {
          "duration": 0.006127437499991117,
          "durationTicks": 1,
          "midi": 42,
          "name": "F#2",
          "ticks": 7944,
          "time": 48.67636350000001,
          "velocity": 0.47244094488188976
        },
        {
          "duration": 0.006127437499991117,
          "durationTicks": 1,
          "midi": 54,
          "name": "F#3",
          "ticks": 7968,
          "time": 48.82342200000001,
          "velocity": 0.4330708661417323
        },
        {
          "duration": 0.006127437499991117,
          "durationTicks": 1,
          "midi": 42,
          "name": "F#2",
          "ticks": 7968,
          "time": 48.82342200000001,
          "velocity": 0.47244094488188976
        },
        {
          "duration": 0.006127437499991117,
          "durationTicks": 1,
          "midi": 54,
          "name": "F#3",
          "ticks": 7992,
          "time": 48.97048050000001,
          "velocity": 0.4330708661417323
        },
        {
          "duration": 0.006127437499991117,
          "durationTicks": 1,
          "midi": 42,
          "name": "F#2",
          "ticks": 7992,
          "time": 48.97048050000001,
          "velocity": 0.47244094488188976
        },
        {
          "duration": 0.006127437499991117,
          "durationTicks": 1,
          "midi": 54,
          "name": "F#3",
          "ticks": 8016,
          "time": 49.11753900000001,
          "velocity": 0.4330708661417323
        },
        {
          "duration": 0.006127437499991117,
          "durationTicks": 1,
          "midi": 42,
          "name": "F#2",
          "ticks": 8016,
          "time": 49.11753900000001,
          "velocity": 0.47244094488188976
        },
        {
          "duration": 0.006127437499991117,
          "durationTicks": 1,
          "midi": 38,
          "name": "D2",
          "ticks": 8040,
          "time": 49.26459750000001,
          "velocity": 0.6299212598425197
        },
        {
          "duration": 0.006127437499991117,
          "durationTicks": 1,
          "midi": 54,
          "name": "F#3",
          "ticks": 8040,
          "time": 49.26459750000001,
          "velocity": 0.6299212598425197
        },
        {
          "duration": 0.006127437499991117,
          "durationTicks": 1,
          "midi": 42,
          "name": "F#2",
          "ticks": 8040,
          "time": 49.26459750000001,
          "velocity": 0.47244094488188976
        },
        {
          "duration": 0.006127437499991117,
          "durationTicks": 1,
          "midi": 54,
          "name": "F#3",
          "ticks": 8064,
          "time": 49.41165600000001,
          "velocity": 0.4330708661417323
        },
        {
          "duration": 0.006127437499991117,
          "durationTicks": 1,
          "midi": 42,
          "name": "F#2",
          "ticks": 8064,
          "time": 49.41165600000001,
          "velocity": 0.47244094488188976
        },
        {
          "duration": 0.006127437499991117,
          "durationTicks": 1,
          "midi": 54,
          "name": "F#3",
          "ticks": 8088,
          "time": 49.55871450000001,
          "velocity": 0.4330708661417323
        },
        {
          "duration": 0.006127437499991117,
          "durationTicks": 1,
          "midi": 42,
          "name": "F#2",
          "ticks": 8088,
          "time": 49.55871450000001,
          "velocity": 0.47244094488188976
        },
        {
          "duration": 0.006127437499991117,
          "durationTicks": 1,
          "midi": 54,
          "name": "F#3",
          "ticks": 8112,
          "time": 49.70577300000001,
          "velocity": 0.4330708661417323
        },
        {
          "duration": 0.006127437499991117,
          "durationTicks": 1,
          "midi": 42,
          "name": "F#2",
          "ticks": 8112,
          "time": 49.70577300000001,
          "velocity": 0.47244094488188976
        },
        {
          "duration": 0.006127437499991117,
          "durationTicks": 1,
          "midi": 38,
          "name": "D2",
          "ticks": 8136,
          "time": 49.85283150000001,
          "velocity": 0.6299212598425197
        },
        {
          "duration": 0.006127437499991117,
          "durationTicks": 1,
          "midi": 54,
          "name": "F#3",
          "ticks": 8136,
          "time": 49.85283150000001,
          "velocity": 0.6299212598425197
        },
        {
          "duration": 0.006127437499991117,
          "durationTicks": 1,
          "midi": 42,
          "name": "F#2",
          "ticks": 8136,
          "time": 49.85283150000001,
          "velocity": 0.47244094488188976
        },
        {
          "duration": 0.006127437499991117,
          "durationTicks": 1,
          "midi": 54,
          "name": "F#3",
          "ticks": 8160,
          "time": 49.99989000000001,
          "velocity": 0.4330708661417323
        },
        {
          "duration": 0.006127437499991117,
          "durationTicks": 1,
          "midi": 42,
          "name": "F#2",
          "ticks": 8160,
          "time": 49.99989000000001,
          "velocity": 0.47244094488188976
        },
        {
          "duration": 0.006127437499991117,
          "durationTicks": 1,
          "midi": 54,
          "name": "F#3",
          "ticks": 8184,
          "time": 50.14694850000001,
          "velocity": 0.4330708661417323
        },
        {
          "duration": 0.006127437499991117,
          "durationTicks": 1,
          "midi": 42,
          "name": "F#2",
          "ticks": 8184,
          "time": 50.14694850000001,
          "velocity": 0.47244094488188976
        },
        {
          "duration": 0.006127437499991117,
          "durationTicks": 1,
          "midi": 54,
          "name": "F#3",
          "ticks": 8208,
          "time": 50.29400700000001,
          "velocity": 0.4330708661417323
        },
        {
          "duration": 0.006127437499991117,
          "durationTicks": 1,
          "midi": 42,
          "name": "F#2",
          "ticks": 8208,
          "time": 50.29400700000001,
          "velocity": 0.47244094488188976
        },
        {
          "duration": 0.006127437499991117,
          "durationTicks": 1,
          "midi": 38,
          "name": "D2",
          "ticks": 8232,
          "time": 50.44106550000001,
          "velocity": 0.6299212598425197
        },
        {
          "duration": 0.006127437499991117,
          "durationTicks": 1,
          "midi": 54,
          "name": "F#3",
          "ticks": 8232,
          "time": 50.44106550000001,
          "velocity": 0.6299212598425197
        },
        {
          "duration": 0.006127437499991117,
          "durationTicks": 1,
          "midi": 42,
          "name": "F#2",
          "ticks": 8232,
          "time": 50.44106550000001,
          "velocity": 0.47244094488188976
        },
        {
          "duration": 0.006127437499991117,
          "durationTicks": 1,
          "midi": 54,
          "name": "F#3",
          "ticks": 8256,
          "time": 50.58812400000001,
          "velocity": 0.4330708661417323
        },
        {
          "duration": 0.006127437499991117,
          "durationTicks": 1,
          "midi": 42,
          "name": "F#2",
          "ticks": 8256,
          "time": 50.58812400000001,
          "velocity": 0.47244094488188976
        },
        {
          "duration": 0.006127437499991117,
          "durationTicks": 1,
          "midi": 54,
          "name": "F#3",
          "ticks": 8280,
          "time": 50.73518250000001,
          "velocity": 0.4330708661417323
        },
        {
          "duration": 0.006127437499991117,
          "durationTicks": 1,
          "midi": 42,
          "name": "F#2",
          "ticks": 8280,
          "time": 50.73518250000001,
          "velocity": 0.47244094488188976
        },
        {
          "duration": 0.006127437499991117,
          "durationTicks": 1,
          "midi": 54,
          "name": "F#3",
          "ticks": 8304,
          "time": 50.88224100000001,
          "velocity": 0.4330708661417323
        },
        {
          "duration": 0.006127437499991117,
          "durationTicks": 1,
          "midi": 42,
          "name": "F#2",
          "ticks": 8304,
          "time": 50.88224100000001,
          "velocity": 0.47244094488188976
        },
        {
          "duration": 0.006127437499991117,
          "durationTicks": 1,
          "midi": 38,
          "name": "D2",
          "ticks": 8328,
          "time": 51.02929950000001,
          "velocity": 0.6299212598425197
        },
        {
          "duration": 0.006127437499991117,
          "durationTicks": 1,
          "midi": 54,
          "name": "F#3",
          "ticks": 8328,
          "time": 51.02929950000001,
          "velocity": 0.4330708661417323
        },
        {
          "duration": 0.006127437499991117,
          "durationTicks": 1,
          "midi": 42,
          "name": "F#2",
          "ticks": 8328,
          "time": 51.02929950000001,
          "velocity": 0.47244094488188976
        },
        {
          "duration": 0.006127437499991117,
          "durationTicks": 1,
          "midi": 54,
          "name": "F#3",
          "ticks": 8352,
          "time": 51.17635800000001,
          "velocity": 0.4330708661417323
        },
        {
          "duration": 0.006127437499991117,
          "durationTicks": 1,
          "midi": 42,
          "name": "F#2",
          "ticks": 8352,
          "time": 51.17635800000001,
          "velocity": 0.47244094488188976
        },
        {
          "duration": 0.006127437499991117,
          "durationTicks": 1,
          "midi": 42,
          "name": "F#2",
          "ticks": 8376,
          "time": 51.32341650000001,
          "velocity": 0.47244094488188976
        },
        {
          "duration": 0.006127437499991117,
          "durationTicks": 1,
          "midi": 54,
          "name": "F#3",
          "ticks": 8376,
          "time": 51.32341650000001,
          "velocity": 0.6299212598425197
        },
        {
          "duration": 0.006127437499991117,
          "durationTicks": 1,
          "midi": 42,
          "name": "F#2",
          "ticks": 8400,
          "time": 51.47047500000001,
          "velocity": 0.47244094488188976
        },
        {
          "duration": 0.006127437499991117,
          "durationTicks": 1,
          "midi": 54,
          "name": "F#3",
          "ticks": 8400,
          "time": 51.47047500000001,
          "velocity": 0.4330708661417323
        },
        {
          "duration": 0.006127437499991117,
          "durationTicks": 1,
          "midi": 38,
          "name": "D2",
          "ticks": 8424,
          "time": 51.61753350000001,
          "velocity": 0.6299212598425197
        },
        {
          "duration": 0.006127437499991117,
          "durationTicks": 1,
          "midi": 42,
          "name": "F#2",
          "ticks": 8424,
          "time": 51.61753350000001,
          "velocity": 0.47244094488188976
        },
        {
          "duration": 0.006127437499991117,
          "durationTicks": 1,
          "midi": 54,
          "name": "F#3",
          "ticks": 8424,
          "time": 51.61753350000001,
          "velocity": 0.4330708661417323
        },
        {
          "duration": 0.006127437499991117,
          "durationTicks": 1,
          "midi": 42,
          "name": "F#2",
          "ticks": 8448,
          "time": 51.76459200000001,
          "velocity": 0.47244094488188976
        },
        {
          "duration": 0.006127437499991117,
          "durationTicks": 1,
          "midi": 54,
          "name": "F#3",
          "ticks": 8448,
          "time": 51.76459200000001,
          "velocity": 0.4330708661417323
        },
        {
          "duration": 0.006127437499991117,
          "durationTicks": 1,
          "midi": 42,
          "name": "F#2",
          "ticks": 8472,
          "time": 51.91165050000001,
          "velocity": 0.47244094488188976
        },
        {
          "duration": 0.006127437499991117,
          "durationTicks": 1,
          "midi": 54,
          "name": "F#3",
          "ticks": 8472,
          "time": 51.91165050000001,
          "velocity": 0.6299212598425197
        },
        {
          "duration": 0.006127437499991117,
          "durationTicks": 1,
          "midi": 42,
          "name": "F#2",
          "ticks": 8496,
          "time": 52.05870900000001,
          "velocity": 0.47244094488188976
        },
        {
          "duration": 0.006127437499991117,
          "durationTicks": 1,
          "midi": 54,
          "name": "F#3",
          "ticks": 8496,
          "time": 52.05870900000001,
          "velocity": 0.4330708661417323
        },
        {
          "duration": 0.006127437499991117,
          "durationTicks": 1,
          "midi": 38,
          "name": "D2",
          "ticks": 8520,
          "time": 52.20576750000001,
          "velocity": 0.6299212598425197
        },
        {
          "duration": 0.006127437499991117,
          "durationTicks": 1,
          "midi": 42,
          "name": "F#2",
          "ticks": 8520,
          "time": 52.20576750000001,
          "velocity": 0.47244094488188976
        },
        {
          "duration": 0.006127437499991117,
          "durationTicks": 1,
          "midi": 54,
          "name": "F#3",
          "ticks": 8520,
          "time": 52.20576750000001,
          "velocity": 0.4330708661417323
        },
        {
          "duration": 0.006127437499991117,
          "durationTicks": 1,
          "midi": 42,
          "name": "F#2",
          "ticks": 8544,
          "time": 52.35282600000001,
          "velocity": 0.47244094488188976
        },
        {
          "duration": 0.006127437499991117,
          "durationTicks": 1,
          "midi": 54,
          "name": "F#3",
          "ticks": 8544,
          "time": 52.35282600000001,
          "velocity": 0.4330708661417323
        },
        {
          "duration": 0.006127437499991117,
          "durationTicks": 1,
          "midi": 54,
          "name": "F#3",
          "ticks": 8568,
          "time": 52.49988450000001,
          "velocity": 0.6299212598425197
        },
        {
          "duration": 0.006127437499991117,
          "durationTicks": 1,
          "midi": 42,
          "name": "F#2",
          "ticks": 8568,
          "time": 52.49988450000001,
          "velocity": 0.47244094488188976
        },
        {
          "duration": 0.006127437499991117,
          "durationTicks": 1,
          "midi": 54,
          "name": "F#3",
          "ticks": 8592,
          "time": 52.64694300000001,
          "velocity": 0.4330708661417323
        },
        {
          "duration": 0.006127437499991117,
          "durationTicks": 1,
          "midi": 42,
          "name": "F#2",
          "ticks": 8592,
          "time": 52.64694300000001,
          "velocity": 0.47244094488188976
        },
        {
          "duration": 0.006127437499991117,
          "durationTicks": 1,
          "midi": 38,
          "name": "D2",
          "ticks": 8616,
          "time": 52.79400150000001,
          "velocity": 0.6299212598425197
        },
        {
          "duration": 0.006127437499991117,
          "durationTicks": 1,
          "midi": 54,
          "name": "F#3",
          "ticks": 8616,
          "time": 52.79400150000001,
          "velocity": 0.4330708661417323
        },
        {
          "duration": 0.006127437499991117,
          "durationTicks": 1,
          "midi": 42,
          "name": "F#2",
          "ticks": 8616,
          "time": 52.79400150000001,
          "velocity": 0.47244094488188976
        },
        {
          "duration": 0.006127437499991117,
          "durationTicks": 1,
          "midi": 54,
          "name": "F#3",
          "ticks": 8640,
          "time": 52.94106000000001,
          "velocity": 0.4330708661417323
        },
        {
          "duration": 0.006127437499991117,
          "durationTicks": 1,
          "midi": 42,
          "name": "F#2",
          "ticks": 8640,
          "time": 52.94106000000001,
          "velocity": 0.47244094488188976
        },
        {
          "duration": 0.006127437499991117,
          "durationTicks": 1,
          "midi": 54,
          "name": "F#3",
          "ticks": 8664,
          "time": 53.08811850000001,
          "velocity": 0.4330708661417323
        },
        {
          "duration": 0.006127437499991117,
          "durationTicks": 1,
          "midi": 42,
          "name": "F#2",
          "ticks": 8664,
          "time": 53.08811850000001,
          "velocity": 0.47244094488188976
        },
        {
          "duration": 0.006127437499991117,
          "durationTicks": 1,
          "midi": 54,
          "name": "F#3",
          "ticks": 8688,
          "time": 53.23517700000001,
          "velocity": 0.4330708661417323
        },
        {
          "duration": 0.006127437499991117,
          "durationTicks": 1,
          "midi": 42,
          "name": "F#2",
          "ticks": 8688,
          "time": 53.23517700000001,
          "velocity": 0.47244094488188976
        },
        {
          "duration": 0.006127437499991117,
          "durationTicks": 1,
          "midi": 38,
          "name": "D2",
          "ticks": 8712,
          "time": 53.38223550000001,
          "velocity": 0.6299212598425197
        },
        {
          "duration": 0.006127437499991117,
          "durationTicks": 1,
          "midi": 54,
          "name": "F#3",
          "ticks": 8712,
          "time": 53.38223550000001,
          "velocity": 0.6299212598425197
        },
        {
          "duration": 0.006127437499991117,
          "durationTicks": 1,
          "midi": 42,
          "name": "F#2",
          "ticks": 8712,
          "time": 53.38223550000001,
          "velocity": 0.47244094488188976
        },
        {
          "duration": 0.006127437499991117,
          "durationTicks": 1,
          "midi": 54,
          "name": "F#3",
          "ticks": 8736,
          "time": 53.52929400000001,
          "velocity": 0.4330708661417323
        },
        {
          "duration": 0.006127437499991117,
          "durationTicks": 1,
          "midi": 42,
          "name": "F#2",
          "ticks": 8736,
          "time": 53.52929400000001,
          "velocity": 0.47244094488188976
        },
        {
          "duration": 0.006127437499991117,
          "durationTicks": 1,
          "midi": 54,
          "name": "F#3",
          "ticks": 8760,
          "time": 53.67635250000001,
          "velocity": 0.4330708661417323
        },
        {
          "duration": 0.006127437499991117,
          "durationTicks": 1,
          "midi": 42,
          "name": "F#2",
          "ticks": 8760,
          "time": 53.67635250000001,
          "velocity": 0.47244094488188976
        },
        {
          "duration": 0.006127437499991117,
          "durationTicks": 1,
          "midi": 54,
          "name": "F#3",
          "ticks": 8784,
          "time": 53.82341100000001,
          "velocity": 0.4330708661417323
        },
        {
          "duration": 0.006127437499991117,
          "durationTicks": 1,
          "midi": 42,
          "name": "F#2",
          "ticks": 8784,
          "time": 53.82341100000001,
          "velocity": 0.47244094488188976
        },
        {
          "duration": 0.006127437499991117,
          "durationTicks": 1,
          "midi": 38,
          "name": "D2",
          "ticks": 8808,
          "time": 53.97046950000001,
          "velocity": 0.6299212598425197
        },
        {
          "duration": 0.006127437499991117,
          "durationTicks": 1,
          "midi": 54,
          "name": "F#3",
          "ticks": 8808,
          "time": 53.97046950000001,
          "velocity": 0.6299212598425197
        },
        {
          "duration": 0.006127437499991117,
          "durationTicks": 1,
          "midi": 42,
          "name": "F#2",
          "ticks": 8808,
          "time": 53.97046950000001,
          "velocity": 0.47244094488188976
        },
        {
          "duration": 0.006127437499991117,
          "durationTicks": 1,
          "midi": 54,
          "name": "F#3",
          "ticks": 8832,
          "time": 54.11752800000001,
          "velocity": 0.4330708661417323
        },
        {
          "duration": 0.006127437499991117,
          "durationTicks": 1,
          "midi": 42,
          "name": "F#2",
          "ticks": 8832,
          "time": 54.11752800000001,
          "velocity": 0.47244094488188976
        },
        {
          "duration": 0.006127437499991117,
          "durationTicks": 1,
          "midi": 54,
          "name": "F#3",
          "ticks": 8856,
          "time": 54.26458650000001,
          "velocity": 0.4330708661417323
        },
        {
          "duration": 0.006127437499991117,
          "durationTicks": 1,
          "midi": 42,
          "name": "F#2",
          "ticks": 8856,
          "time": 54.26458650000001,
          "velocity": 0.47244094488188976
        },
        {
          "duration": 0.006127437499991117,
          "durationTicks": 1,
          "midi": 54,
          "name": "F#3",
          "ticks": 8880,
          "time": 54.41164500000001,
          "velocity": 0.4330708661417323
        },
        {
          "duration": 0.006127437499991117,
          "durationTicks": 1,
          "midi": 42,
          "name": "F#2",
          "ticks": 8880,
          "time": 54.41164500000001,
          "velocity": 0.47244094488188976
        },
        {
          "duration": 0.006127437499991117,
          "durationTicks": 1,
          "midi": 38,
          "name": "D2",
          "ticks": 8904,
          "time": 54.55870350000001,
          "velocity": 0.6299212598425197
        },
        {
          "duration": 0.006127437499991117,
          "durationTicks": 1,
          "midi": 54,
          "name": "F#3",
          "ticks": 8904,
          "time": 54.55870350000001,
          "velocity": 0.6299212598425197
        },
        {
          "duration": 0.006127437499991117,
          "durationTicks": 1,
          "midi": 42,
          "name": "F#2",
          "ticks": 8904,
          "time": 54.55870350000001,
          "velocity": 0.47244094488188976
        },
        {
          "duration": 0.006127437499991117,
          "durationTicks": 1,
          "midi": 54,
          "name": "F#3",
          "ticks": 8928,
          "time": 54.70576200000001,
          "velocity": 0.4330708661417323
        },
        {
          "duration": 0.006127437499991117,
          "durationTicks": 1,
          "midi": 42,
          "name": "F#2",
          "ticks": 8928,
          "time": 54.70576200000001,
          "velocity": 0.47244094488188976
        },
        {
          "duration": 0.006127437499991117,
          "durationTicks": 1,
          "midi": 54,
          "name": "F#3",
          "ticks": 8952,
          "time": 54.85282050000001,
          "velocity": 0.4330708661417323
        },
        {
          "duration": 0.006127437499991117,
          "durationTicks": 1,
          "midi": 42,
          "name": "F#2",
          "ticks": 8952,
          "time": 54.85282050000001,
          "velocity": 0.47244094488188976
        },
        {
          "duration": 0.006127437499991117,
          "durationTicks": 1,
          "midi": 54,
          "name": "F#3",
          "ticks": 8976,
          "time": 54.99987900000001,
          "velocity": 0.4330708661417323
        },
        {
          "duration": 0.006127437499991117,
          "durationTicks": 1,
          "midi": 42,
          "name": "F#2",
          "ticks": 8976,
          "time": 54.99987900000001,
          "velocity": 0.47244094488188976
        },
        {
          "duration": 0.006127437499991117,
          "durationTicks": 1,
          "midi": 38,
          "name": "D2",
          "ticks": 9000,
          "time": 55.14693750000001,
          "velocity": 0.6299212598425197
        },
        {
          "duration": 0.006127437499991117,
          "durationTicks": 1,
          "midi": 54,
          "name": "F#3",
          "ticks": 9000,
          "time": 55.14693750000001,
          "velocity": 0.6299212598425197
        },
        {
          "duration": 0.006127437499991117,
          "durationTicks": 1,
          "midi": 42,
          "name": "F#2",
          "ticks": 9000,
          "time": 55.14693750000001,
          "velocity": 0.47244094488188976
        },
        {
          "duration": 0.006127437499991117,
          "durationTicks": 1,
          "midi": 54,
          "name": "F#3",
          "ticks": 9024,
          "time": 55.29399600000001,
          "velocity": 0.4330708661417323
        },
        {
          "duration": 0.006127437499991117,
          "durationTicks": 1,
          "midi": 42,
          "name": "F#2",
          "ticks": 9024,
          "time": 55.29399600000001,
          "velocity": 0.47244094488188976
        },
        {
          "duration": 0.006127437499991117,
          "durationTicks": 1,
          "midi": 54,
          "name": "F#3",
          "ticks": 9048,
          "time": 55.44105450000001,
          "velocity": 0.4330708661417323
        },
        {
          "duration": 0.006127437499991117,
          "durationTicks": 1,
          "midi": 42,
          "name": "F#2",
          "ticks": 9048,
          "time": 55.44105450000001,
          "velocity": 0.47244094488188976
        },
        {
          "duration": 0.006127437499991117,
          "durationTicks": 1,
          "midi": 38,
          "name": "D2",
          "ticks": 9072,
          "time": 55.58811300000001,
          "velocity": 0.6692913385826772
        },
        {
          "duration": 0.006127437499991117,
          "durationTicks": 1,
          "midi": 54,
          "name": "F#3",
          "ticks": 9072,
          "time": 55.58811300000001,
          "velocity": 0.4330708661417323
        },
        {
          "duration": 0.006127437499991117,
          "durationTicks": 1,
          "midi": 42,
          "name": "F#2",
          "ticks": 9072,
          "time": 55.58811300000001,
          "velocity": 0.47244094488188976
        },
        {
          "duration": 0.006127437499991117,
          "durationTicks": 1,
          "midi": 38,
          "name": "D2",
          "ticks": 9096,
          "time": 55.73517150000001,
          "velocity": 0.6692913385826772
        },
        {
          "duration": 0.006127437499991117,
          "durationTicks": 1,
          "midi": 54,
          "name": "F#3",
          "ticks": 9096,
          "time": 55.73517150000001,
          "velocity": 0.4330708661417323
        },
        {
          "duration": 0.006127437499991117,
          "durationTicks": 1,
          "midi": 42,
          "name": "F#2",
          "ticks": 9096,
          "time": 55.73517150000001,
          "velocity": 0.47244094488188976
        },
        {
          "duration": 0.006127437499991117,
          "durationTicks": 1,
          "midi": 38,
          "name": "D2",
          "ticks": 9120,
          "time": 55.88223000000001,
          "velocity": 0.6692913385826772
        },
        {
          "duration": 0.006127437499991117,
          "durationTicks": 1,
          "midi": 54,
          "name": "F#3",
          "ticks": 9120,
          "time": 55.88223000000001,
          "velocity": 0.4330708661417323
        },
        {
          "duration": 0.006127437499991117,
          "durationTicks": 1,
          "midi": 42,
          "name": "F#2",
          "ticks": 9120,
          "time": 55.88223000000001,
          "velocity": 0.47244094488188976
        },
        {
          "duration": 0.006127437499991117,
          "durationTicks": 1,
          "midi": 42,
          "name": "F#2",
          "ticks": 9144,
          "time": 56.02928850000001,
          "velocity": 0.47244094488188976
        },
        {
          "duration": 0.006127437499991117,
          "durationTicks": 1,
          "midi": 54,
          "name": "F#3",
          "ticks": 9144,
          "time": 56.02928850000001,
          "velocity": 0.6299212598425197
        },
        {
          "duration": 0.006127437499991117,
          "durationTicks": 1,
          "midi": 42,
          "name": "F#2",
          "ticks": 9168,
          "time": 56.17634700000001,
          "velocity": 0.47244094488188976
        },
        {
          "duration": 0.006127437499991117,
          "durationTicks": 1,
          "midi": 54,
          "name": "F#3",
          "ticks": 9168,
          "time": 56.17634700000001,
          "velocity": 0.4330708661417323
        },
        {
          "duration": 0.006127437499991117,
          "durationTicks": 1,
          "midi": 38,
          "name": "D2",
          "ticks": 9192,
          "time": 56.32340550000001,
          "velocity": 0.6299212598425197
        },
        {
          "duration": 0.006127437499991117,
          "durationTicks": 1,
          "midi": 42,
          "name": "F#2",
          "ticks": 9192,
          "time": 56.32340550000001,
          "velocity": 0.47244094488188976
        },
        {
          "duration": 0.006127437499991117,
          "durationTicks": 1,
          "midi": 54,
          "name": "F#3",
          "ticks": 9192,
          "time": 56.32340550000001,
          "velocity": 0.4330708661417323
        },
        {
          "duration": 0.006127437499991117,
          "durationTicks": 1,
          "midi": 42,
          "name": "F#2",
          "ticks": 9216,
          "time": 56.47046400000001,
          "velocity": 0.47244094488188976
        },
        {
          "duration": 0.006127437499991117,
          "durationTicks": 1,
          "midi": 54,
          "name": "F#3",
          "ticks": 9216,
          "time": 56.47046400000001,
          "velocity": 0.4330708661417323
        },
        {
          "duration": 0.006127437499991117,
          "durationTicks": 1,
          "midi": 42,
          "name": "F#2",
          "ticks": 9240,
          "time": 56.61752250000001,
          "velocity": 0.47244094488188976
        },
        {
          "duration": 0.006127437499991117,
          "durationTicks": 1,
          "midi": 54,
          "name": "F#3",
          "ticks": 9240,
          "time": 56.61752250000001,
          "velocity": 0.6299212598425197
        },
        {
          "duration": 0.006127437499991117,
          "durationTicks": 1,
          "midi": 42,
          "name": "F#2",
          "ticks": 9264,
          "time": 56.76458100000001,
          "velocity": 0.47244094488188976
        },
        {
          "duration": 0.006127437499991117,
          "durationTicks": 1,
          "midi": 54,
          "name": "F#3",
          "ticks": 9264,
          "time": 56.76458100000001,
          "velocity": 0.4330708661417323
        },
        {
          "duration": 0.006127437499991117,
          "durationTicks": 1,
          "midi": 38,
          "name": "D2",
          "ticks": 9288,
          "time": 56.91163950000001,
          "velocity": 0.6299212598425197
        },
        {
          "duration": 0.006127437499991117,
          "durationTicks": 1,
          "midi": 42,
          "name": "F#2",
          "ticks": 9288,
          "time": 56.91163950000001,
          "velocity": 0.47244094488188976
        },
        {
          "duration": 0.006127437499991117,
          "durationTicks": 1,
          "midi": 54,
          "name": "F#3",
          "ticks": 9288,
          "time": 56.91163950000001,
          "velocity": 0.4330708661417323
        },
        {
          "duration": 0.006127437499991117,
          "durationTicks": 1,
          "midi": 42,
          "name": "F#2",
          "ticks": 9312,
          "time": 57.05869800000001,
          "velocity": 0.47244094488188976
        },
        {
          "duration": 0.006127437499991117,
          "durationTicks": 1,
          "midi": 54,
          "name": "F#3",
          "ticks": 9312,
          "time": 57.05869800000001,
          "velocity": 0.4330708661417323
        },
        {
          "duration": 0.006127437499991117,
          "durationTicks": 1,
          "midi": 42,
          "name": "F#2",
          "ticks": 9336,
          "time": 57.20575650000001,
          "velocity": 0.47244094488188976
        },
        {
          "duration": 0.006127437499991117,
          "durationTicks": 1,
          "midi": 54,
          "name": "F#3",
          "ticks": 9336,
          "time": 57.20575650000001,
          "velocity": 0.6299212598425197
        },
        {
          "duration": 0.006127437499991117,
          "durationTicks": 1,
          "midi": 42,
          "name": "F#2",
          "ticks": 9360,
          "time": 57.35281500000001,
          "velocity": 0.47244094488188976
        },
        {
          "duration": 0.006127437499991117,
          "durationTicks": 1,
          "midi": 54,
          "name": "F#3",
          "ticks": 9360,
          "time": 57.35281500000001,
          "velocity": 0.4330708661417323
        },
        {
          "duration": 0.006127437499991117,
          "durationTicks": 1,
          "midi": 38,
          "name": "D2",
          "ticks": 9384,
          "time": 57.49987350000001,
          "velocity": 0.6299212598425197
        },
        {
          "duration": 0.006127437499991117,
          "durationTicks": 1,
          "midi": 42,
          "name": "F#2",
          "ticks": 9384,
          "time": 57.49987350000001,
          "velocity": 0.47244094488188976
        },
        {
          "duration": 0.006127437499991117,
          "durationTicks": 1,
          "midi": 54,
          "name": "F#3",
          "ticks": 9384,
          "time": 57.49987350000001,
          "velocity": 0.4330708661417323
        },
        {
          "duration": 0.006127437499991117,
          "durationTicks": 1,
          "midi": 42,
          "name": "F#2",
          "ticks": 9408,
          "time": 57.64693200000001,
          "velocity": 0.47244094488188976
        },
        {
          "duration": 0.006127437499991117,
          "durationTicks": 1,
          "midi": 54,
          "name": "F#3",
          "ticks": 9408,
          "time": 57.64693200000001,
          "velocity": 0.4330708661417323
        },
        {
          "duration": 0.006127437499991117,
          "durationTicks": 1,
          "midi": 38,
          "name": "D2",
          "ticks": 9432,
          "time": 57.79399050000001,
          "velocity": 0.6299212598425197
        },
        {
          "duration": 0.006127437499991117,
          "durationTicks": 1,
          "midi": 42,
          "name": "F#2",
          "ticks": 9432,
          "time": 57.79399050000001,
          "velocity": 0.47244094488188976
        },
        {
          "duration": 0.006127437499991117,
          "durationTicks": 1,
          "midi": 54,
          "name": "F#3",
          "ticks": 9432,
          "time": 57.79399050000001,
          "velocity": 0.6299212598425197
        },
        {
          "duration": 0.006127437499991117,
          "durationTicks": 1,
          "midi": 42,
          "name": "F#2",
          "ticks": 9456,
          "time": 57.94104900000001,
          "velocity": 0.47244094488188976
        },
        {
          "duration": 0.006127437499991117,
          "durationTicks": 1,
          "midi": 54,
          "name": "F#3",
          "ticks": 9456,
          "time": 57.94104900000001,
          "velocity": 0.4330708661417323
        },
        {
          "duration": 0.006127437499991117,
          "durationTicks": 1,
          "midi": 42,
          "name": "F#2",
          "ticks": 9480,
          "time": 58.08810750000001,
          "velocity": 0.47244094488188976
        },
        {
          "duration": 0.006127437499991117,
          "durationTicks": 1,
          "midi": 54,
          "name": "F#3",
          "ticks": 9480,
          "time": 58.08810750000001,
          "velocity": 0.4330708661417323
        },
        {
          "duration": 0.006127437499991117,
          "durationTicks": 1,
          "midi": 42,
          "name": "F#2",
          "ticks": 9504,
          "time": 58.23516600000001,
          "velocity": 0.47244094488188976
        },
        {
          "duration": 0.006127437499991117,
          "durationTicks": 1,
          "midi": 54,
          "name": "F#3",
          "ticks": 9504,
          "time": 58.23516600000001,
          "velocity": 0.4330708661417323
        },
        {
          "duration": 0.006127437499991117,
          "durationTicks": 1,
          "midi": 38,
          "name": "D2",
          "ticks": 9528,
          "time": 58.38222450000001,
          "velocity": 0.6299212598425197
        },
        {
          "duration": 0.006127437499991117,
          "durationTicks": 1,
          "midi": 42,
          "name": "F#2",
          "ticks": 9528,
          "time": 58.38222450000001,
          "velocity": 0.47244094488188976
        },
        {
          "duration": 0.006127437499991117,
          "durationTicks": 1,
          "midi": 54,
          "name": "F#3",
          "ticks": 9528,
          "time": 58.38222450000001,
          "velocity": 0.6299212598425197
        },
        {
          "duration": 0.006127437499991117,
          "durationTicks": 1,
          "midi": 42,
          "name": "F#2",
          "ticks": 9552,
          "time": 58.52928300000001,
          "velocity": 0.47244094488188976
        },
        {
          "duration": 0.006127437499991117,
          "durationTicks": 1,
          "midi": 54,
          "name": "F#3",
          "ticks": 9552,
          "time": 58.52928300000001,
          "velocity": 0.4330708661417323
        },
        {
          "duration": 0.006127437499991117,
          "durationTicks": 1,
          "midi": 42,
          "name": "F#2",
          "ticks": 9576,
          "time": 58.67634150000001,
          "velocity": 0.47244094488188976
        },
        {
          "duration": 0.006127437499991117,
          "durationTicks": 1,
          "midi": 54,
          "name": "F#3",
          "ticks": 9576,
          "time": 58.67634150000001,
          "velocity": 0.4330708661417323
        },
        {
          "duration": 0.006127437499991117,
          "durationTicks": 1,
          "midi": 42,
          "name": "F#2",
          "ticks": 9600,
          "time": 58.82340000000001,
          "velocity": 0.47244094488188976
        },
        {
          "duration": 0.006127437499991117,
          "durationTicks": 1,
          "midi": 54,
          "name": "F#3",
          "ticks": 9600,
          "time": 58.82340000000001,
          "velocity": 0.4330708661417323
        },
        {
          "duration": 0.006127437499991117,
          "durationTicks": 1,
          "midi": 38,
          "name": "D2",
          "ticks": 9624,
          "time": 58.97045850000001,
          "velocity": 0.6299212598425197
        },
        {
          "duration": 0.006127437499991117,
          "durationTicks": 1,
          "midi": 42,
          "name": "F#2",
          "ticks": 9624,
          "time": 58.97045850000001,
          "velocity": 0.47244094488188976
        },
        {
          "duration": 0.006127437499991117,
          "durationTicks": 1,
          "midi": 54,
          "name": "F#3",
          "ticks": 9624,
          "time": 58.97045850000001,
          "velocity": 0.6299212598425197
        },
        {
          "duration": 0.006127437499991117,
          "durationTicks": 1,
          "midi": 42,
          "name": "F#2",
          "ticks": 9648,
          "time": 59.11751700000001,
          "velocity": 0.47244094488188976
        },
        {
          "duration": 0.006127437499991117,
          "durationTicks": 1,
          "midi": 54,
          "name": "F#3",
          "ticks": 9648,
          "time": 59.11751700000001,
          "velocity": 0.4330708661417323
        },
        {
          "duration": 0.006127437499991117,
          "durationTicks": 1,
          "midi": 42,
          "name": "F#2",
          "ticks": 9672,
          "time": 59.26457550000001,
          "velocity": 0.47244094488188976
        },
        {
          "duration": 0.006127437499991117,
          "durationTicks": 1,
          "midi": 54,
          "name": "F#3",
          "ticks": 9672,
          "time": 59.26457550000001,
          "velocity": 0.4330708661417323
        },
        {
          "duration": 0.006127437499991117,
          "durationTicks": 1,
          "midi": 42,
          "name": "F#2",
          "ticks": 9696,
          "time": 59.41163400000001,
          "velocity": 0.47244094488188976
        },
        {
          "duration": 0.006127437499991117,
          "durationTicks": 1,
          "midi": 54,
          "name": "F#3",
          "ticks": 9696,
          "time": 59.41163400000001,
          "velocity": 0.4330708661417323
        },
        {
          "duration": 0.006127437499991117,
          "durationTicks": 1,
          "midi": 38,
          "name": "D2",
          "ticks": 9720,
          "time": 59.55869250000001,
          "velocity": 0.6299212598425197
        },
        {
          "duration": 0.006127437499991117,
          "durationTicks": 1,
          "midi": 42,
          "name": "F#2",
          "ticks": 9720,
          "time": 59.55869250000001,
          "velocity": 0.47244094488188976
        },
        {
          "duration": 0.006127437499991117,
          "durationTicks": 1,
          "midi": 54,
          "name": "F#3",
          "ticks": 9720,
          "time": 59.55869250000001,
          "velocity": 0.6299212598425197
        },
        {
          "duration": 0.006127437499991117,
          "durationTicks": 1,
          "midi": 42,
          "name": "F#2",
          "ticks": 9744,
          "time": 59.70575100000001,
          "velocity": 0.47244094488188976
        },
        {
          "duration": 0.006127437499991117,
          "durationTicks": 1,
          "midi": 54,
          "name": "F#3",
          "ticks": 9744,
          "time": 59.70575100000001,
          "velocity": 0.4330708661417323
        },
        {
          "duration": 0.006127437499991117,
          "durationTicks": 1,
          "midi": 38,
          "name": "D2",
          "ticks": 9768,
          "time": 59.852809500000006,
          "velocity": 0.6299212598425197
        },
        {
          "duration": 0.006127437499991117,
          "durationTicks": 1,
          "midi": 42,
          "name": "F#2",
          "ticks": 9768,
          "time": 59.852809500000006,
          "velocity": 0.47244094488188976
        },
        {
          "duration": 0.006127437499991117,
          "durationTicks": 1,
          "midi": 54,
          "name": "F#3",
          "ticks": 9768,
          "time": 59.852809500000006,
          "velocity": 0.4330708661417323
        },
        {
          "duration": 0.006127437499991117,
          "durationTicks": 1,
          "midi": 42,
          "name": "F#2",
          "ticks": 9792,
          "time": 59.999868000000006,
          "velocity": 0.47244094488188976
        },
        {
          "duration": 0.006127437499991117,
          "durationTicks": 1,
          "midi": 54,
          "name": "F#3",
          "ticks": 9792,
          "time": 59.999868000000006,
          "velocity": 0.4330708661417323
        },
        {
          "duration": 0.006127437499991117,
          "durationTicks": 1,
          "midi": 42,
          "name": "F#2",
          "ticks": 9816,
          "time": 60.146926500000006,
          "velocity": 0.47244094488188976
        },
        {
          "duration": 0.006127437499991117,
          "durationTicks": 1,
          "midi": 54,
          "name": "F#3",
          "ticks": 9816,
          "time": 60.146926500000006,
          "velocity": 0.6299212598425197
        },
        {
          "duration": 0.006127437499991117,
          "durationTicks": 1,
          "midi": 42,
          "name": "F#2",
          "ticks": 9840,
          "time": 60.293985000000006,
          "velocity": 0.47244094488188976
        },
        {
          "duration": 0.006127437499991117,
          "durationTicks": 1,
          "midi": 54,
          "name": "F#3",
          "ticks": 9840,
          "time": 60.293985000000006,
          "velocity": 0.4330708661417323
        },
        {
          "duration": 0.006127437499991117,
          "durationTicks": 1,
          "midi": 38,
          "name": "D2",
          "ticks": 9864,
          "time": 60.441043500000006,
          "velocity": 0.6299212598425197
        },
        {
          "duration": 0.006127437499991117,
          "durationTicks": 1,
          "midi": 42,
          "name": "F#2",
          "ticks": 9864,
          "time": 60.441043500000006,
          "velocity": 0.47244094488188976
        },
        {
          "duration": 0.006127437499991117,
          "durationTicks": 1,
          "midi": 54,
          "name": "F#3",
          "ticks": 9864,
          "time": 60.441043500000006,
          "velocity": 0.4330708661417323
        },
        {
          "duration": 0.006127437499991117,
          "durationTicks": 1,
          "midi": 42,
          "name": "F#2",
          "ticks": 9888,
          "time": 60.588102000000006,
          "velocity": 0.47244094488188976
        },
        {
          "duration": 0.006127437499991117,
          "durationTicks": 1,
          "midi": 54,
          "name": "F#3",
          "ticks": 9888,
          "time": 60.588102000000006,
          "velocity": 0.4330708661417323
        }
      ]
    },
    {
      "channel": 0,
      "controlChanges": {
        "0": [
          {
            "number": 0,
            "ticks": 146,
            "time": 0.894605875,
            "value": 0
          }
        ],
        "6": [
          {
            "number": 6,
            "ticks": 140,
            "time": 0.85784125,
            "value": 0.12598425196850394
          },
          {
            "number": 6,
            "ticks": 142,
            "time": 0.8700961250000001,
            "value": 0.48031496062992124
          }
        ],
        "7": [
          {
            "number": 7,
            "ticks": 144,
            "time": 0.8823510000000001,
            "value": 0.6692913385826772
          }
        ],
        "10": [
          {
            "number": 10,
            "ticks": 144,
            "time": 0.8823510000000001,
            "value": 0.47244094488188976
          }
        ],
        "11": [
          {
            "number": 11,
            "ticks": 145,
            "time": 0.8884784375000001,
            "value": 0.7874015748031497
          }
        ],
        "32": [
          {
            "number": 32,
            "ticks": 147,
            "time": 0.9007333125000001,
            "value": 0.015748031496062992
          }
        ],
        "91": [
          {
            "number": 91,
            "ticks": 133,
            "time": 0.8149491875000001,
            "value": 0.6299212598425197
          }
        ],
        "93": [
          {
            "number": 93,
            "ticks": 134,
            "time": 0.821076625,
            "value": 0.3779527559055118
          }
        ],
        "94": [
          {
            "number": 94,
            "ticks": 135,
            "time": 0.8272040625,
            "value": 0
          }
        ],
        "100": [
          {
            "number": 100,
            "ticks": 138,
            "time": 0.845586375,
            "value": 0
          },
          {
            "number": 100,
            "ticks": 142,
            "time": 0.8700961250000001,
            "value": 0.007874015748031496
          }
        ],
        "101": [
          {
            "number": 101,
            "ticks": 139,
            "time": 0.8517138125000001,
            "value": 0
          },
          {
            "number": 101,
            "ticks": 142,
            "time": 0.8700961250000001,
            "value": 0
          }
        ]
      },
      "pitchBends": [
        {
          "ticks": 141,
          "time": 0.8639686875,
          "value": 0
        }
      ],
      "instrument": {
        "family": "piano",
        "number": 0,
        "name": "acoustic grand piano"
      },
      "name": "Ds.SET2 (88_ROOM/ELEC.\u0000",
      "notes": [],
      "endOfTrackTicks": 9912
    },
    {
      "channel": 0,
      "controlChanges": {
        "6": [
          {
            "number": 6,
            "ticks": 149,
            "time": 0.9129881875,
            "value": 1
          },
          {
            "number": 6,
            "ticks": 150,
            "time": 0.9191156250000001,
            "value": 0.5039370078740157
          },
          {
            "number": 6,
            "ticks": 151,
            "time": 0.9252430625000001,
            "value": 0.5905511811023622
          },
          {
            "number": 6,
            "ticks": 152,
            "time": 0.9313705,
            "value": 0.5511811023622047
          },
          {
            "number": 6,
            "ticks": 600,
            "time": 3.6764625000000004,
            "value": 0.6299212598425197
          },
          {
            "number": 6,
            "ticks": 936,
            "time": 5.735281500000001,
            "value": 0.6299212598425197
          },
          {
            "number": 6,
            "ticks": 1272,
            "time": 7.794100500000001,
            "value": 0.6299212598425197
          },
          {
            "number": 6,
            "ticks": 1608,
            "time": 9.8529195,
            "value": 0.6299212598425197
          },
          {
            "number": 6,
            "ticks": 1944,
            "time": 11.9117385,
            "value": 0.6299212598425197
          },
          {
            "number": 6,
            "ticks": 2280,
            "time": 13.970557500000002,
            "value": 0.6299212598425197
          },
          {
            "number": 6,
            "ticks": 2616,
            "time": 16.0293765,
            "value": 0.6299212598425197
          },
          {
            "number": 6,
            "ticks": 2952,
            "time": 18.0881955,
            "value": 0.6299212598425197
          },
          {
            "number": 6,
            "ticks": 9072,
            "time": 55.58811300000001,
            "value": 0.6299212598425197
          },
          {
            "number": 6,
            "ticks": 9432,
            "time": 57.79399050000001,
            "value": 0.6299212598425197
          },
          {
            "number": 6,
            "ticks": 9768,
            "time": 59.852809500000006,
            "value": 0.6299212598425197
          }
        ],
        "7": [
          {
            "number": 7,
            "ticks": 9192,
            "time": 56.32340550000001,
            "value": 0.6692913385826772
          },
          {
            "number": 7,
            "ticks": 9240,
            "time": 56.61752250000001,
            "value": 0.6220472440944882
          },
          {
            "number": 7,
            "ticks": 9288,
            "time": 56.91163950000001,
            "value": 0.5826771653543307
          },
          {
            "number": 7,
            "ticks": 9336,
            "time": 57.20575650000001,
            "value": 0.5433070866141733
          },
          {
            "number": 7,
            "ticks": 9384,
            "time": 57.49987350000001,
            "value": 0.49606299212598426
          },
          {
            "number": 7,
            "ticks": 9432,
            "time": 57.79399050000001,
            "value": 0.4566929133858268
          },
          {
            "number": 7,
            "ticks": 9480,
            "time": 58.08810750000001,
            "value": 0.41732283464566927
          },
          {
            "number": 7,
            "ticks": 9528,
            "time": 58.38222450000001,
            "value": 0.3700787401574803
          },
          {
            "number": 7,
            "ticks": 9576,
            "time": 58.67634150000001,
            "value": 0.33070866141732286
          },
          {
            "number": 7,
            "ticks": 9624,
            "time": 58.97045850000001,
            "value": 0.29133858267716534
          },
          {
            "number": 7,
            "ticks": 9672,
            "time": 59.26457550000001,
            "value": 0.2440944881889764
          },
          {
            "number": 7,
            "ticks": 9720,
            "time": 59.55869250000001,
            "value": 0.2047244094488189
          },
          {
            "number": 7,
            "ticks": 9768,
            "time": 59.852809500000006,
            "value": 0.16535433070866143
          },
          {
            "number": 7,
            "ticks": 9864,
            "time": 60.441043500000006,
            "value": 0.07874015748031496
          },
          {
            "number": 7,
            "ticks": 9912,
            "time": 60.735160500000006,
            "value": 0.03937007874015748
          }
        ],
        "10": [
          {
            "number": 10,
            "ticks": 600,
            "time": 3.6764625000000004,
            "value": 0.6299212598425197
          },
          {
            "number": 10,
            "ticks": 936,
            "time": 5.735281500000001,
            "value": 0.6299212598425197
          },
          {
            "number": 10,
            "ticks": 1272,
            "time": 7.794100500000001,
            "value": 0.6299212598425197
          },
          {
            "number": 10,
            "ticks": 1608,
            "time": 9.8529195,
            "value": 0.6299212598425197
          },
          {
            "number": 10,
            "ticks": 1944,
            "time": 11.9117385,
            "value": 0.6299212598425197
          },
          {
            "number": 10,
            "ticks": 2280,
            "time": 13.970557500000002,
            "value": 0.6299212598425197
          },
          {
            "number": 10,
            "ticks": 2616,
            "time": 16.0293765,
            "value": 0.6299212598425197
          },
          {
            "number": 10,
            "ticks": 2952,
            "time": 18.0881955,
            "value": 0.6299212598425197
          },
          {
            "number": 10,
            "ticks": 9072,
            "time": 55.58811300000001,
            "value": 0.6299212598425197
          },
          {
            "number": 10,
            "ticks": 9432,
            "time": 57.79399050000001,
            "value": 0.6299212598425197
          },
          {
            "number": 10,
            "ticks": 9768,
            "time": 59.852809500000006,
            "value": 0.6299212598425197
          }
        ],
        "98": [
          {
            "number": 98,
            "ticks": 149,
            "time": 0.9129881875,
            "value": 0.25196850393700787
          },
          {
            "number": 98,
            "ticks": 150,
            "time": 0.9191156250000001,
            "value": 0.7795275590551181
          },
          {
            "number": 98,
            "ticks": 151,
            "time": 0.9252430625000001,
            "value": 0.7874015748031497
          },
          {
            "number": 98,
            "ticks": 152,
            "time": 0.9313705,
            "value": 0.25984251968503935
          }
        ],
        "99": [
          {
            "number": 99,
            "ticks": 149,
            "time": 0.9129881875,
            "value": 0.007874015748031496
          },
          {
            "number": 99,
            "ticks": 150,
            "time": 0.9191156250000001,
            "value": 0.007874015748031496
          },
          {
            "number": 99,
            "ticks": 151,
            "time": 0.9252430625000001,
            "value": 0.007874015748031496
          },
          {
            "number": 99,
            "ticks": 152,
            "time": 0.9313705,
            "value": 0.007874015748031496
          }
        ]
      },
      "pitchBends": [],
      "instrument": {
        "family": "chromatic percussion",
        "number": 8,
        "name": "celesta"
      },
      "name": "",
      "notes": [
        {
          "duration": 0.006127437499999999,
          "durationTicks": 1,
          "midi": 36,
          "name": "C2",
          "ticks": 312,
          "time": 1.9117605000000002,
          "velocity": 0.8661417322834646
        },
        {
          "duration": 0.006127437499999999,
          "durationTicks": 1,
          "midi": 36,
          "name": "C2",
          "ticks": 408,
          "time": 2.4999945,
          "velocity": 0.8661417322834646
        },
        {
          "duration": 0.006127437499999555,
          "durationTicks": 1,
          "midi": 36,
          "name": "C2",
          "ticks": 432,
          "time": 2.6470530000000005,
          "velocity": 0.8661417322834646
        },
        {
          "duration": 0.006127437499999999,
          "durationTicks": 1,
          "midi": 36,
          "name": "C2",
          "ticks": 480,
          "time": 2.9411700000000005,
          "velocity": 0.8661417322834646
        },
        {
          "duration": 0.006127437499999999,
          "durationTicks": 1,
          "midi": 36,
          "name": "C2",
          "ticks": 528,
          "time": 3.2352870000000005,
          "velocity": 0.8661417322834646
        },
        {
          "duration": 0.006127437499999999,
          "durationTicks": 1,
          "midi": 36,
          "name": "C2",
          "ticks": 624,
          "time": 3.8235210000000004,
          "velocity": 0.8661417322834646
        },
        {
          "duration": 0.006127437499999999,
          "durationTicks": 1,
          "midi": 36,
          "name": "C2",
          "ticks": 648,
          "time": 3.9705795000000004,
          "velocity": 0.8661417322834646
        },
        {
          "duration": 0.006127437499999111,
          "durationTicks": 1,
          "midi": 36,
          "name": "C2",
          "ticks": 744,
          "time": 4.558813500000001,
          "velocity": 0.8661417322834646
        },
        {
          "duration": 0.006127437499999111,
          "durationTicks": 1,
          "midi": 36,
          "name": "C2",
          "ticks": 768,
          "time": 4.705872000000001,
          "velocity": 0.8661417322834646
        },
        {
          "duration": 0.006127437499999111,
          "durationTicks": 1,
          "midi": 36,
          "name": "C2",
          "ticks": 816,
          "time": 4.999989000000001,
          "velocity": 0.8661417322834646
        },
        {
          "duration": 0.006127437499999111,
          "durationTicks": 1,
          "midi": 36,
          "name": "C2",
          "ticks": 864,
          "time": 5.294106000000001,
          "velocity": 0.8661417322834646
        },
        {
          "duration": 0.006127437499999999,
          "durationTicks": 1,
          "midi": 36,
          "name": "C2",
          "ticks": 984,
          "time": 6.029398500000001,
          "velocity": 0.8661417322834646
        },
        {
          "duration": 0.006127437499999999,
          "durationTicks": 1,
          "midi": 36,
          "name": "C2",
          "ticks": 1080,
          "time": 6.617632500000001,
          "velocity": 0.8661417322834646
        },
        {
          "duration": 0.006127437499999999,
          "durationTicks": 1,
          "midi": 36,
          "name": "C2",
          "ticks": 1104,
          "time": 6.764691000000001,
          "velocity": 0.8661417322834646
        },
        {
          "duration": 0.006127437499999999,
          "durationTicks": 1,
          "midi": 36,
          "name": "C2",
          "ticks": 1152,
          "time": 7.058808000000001,
          "velocity": 0.8661417322834646
        },
        {
          "duration": 0.006127437499999999,
          "durationTicks": 1,
          "midi": 36,
          "name": "C2",
          "ticks": 1200,
          "time": 7.352925000000001,
          "velocity": 0.8661417322834646
        },
        {
          "duration": 0.006127437499999999,
          "durationTicks": 1,
          "midi": 36,
          "name": "C2",
          "ticks": 1296,
          "time": 7.941159000000001,
          "velocity": 0.8661417322834646
        },
        {
          "duration": 0.006127437499999999,
          "durationTicks": 1,
          "midi": 36,
          "name": "C2",
          "ticks": 1320,
          "time": 8.0882175,
          "velocity": 0.8661417322834646
        },
        {
          "duration": 0.006127437499999999,
          "durationTicks": 1,
          "midi": 36,
          "name": "C2",
          "ticks": 1416,
          "time": 8.6764515,
          "velocity": 0.8661417322834646
        },
        {
          "duration": 0.006127437499999999,
          "durationTicks": 1,
          "midi": 36,
          "name": "C2",
          "ticks": 1440,
          "time": 8.82351,
          "velocity": 0.8661417322834646
        },
        {
          "duration": 0.006127437499999999,
          "durationTicks": 1,
          "midi": 36,
          "name": "C2",
          "ticks": 1488,
          "time": 9.117627,
          "velocity": 0.8661417322834646
        },
        {
          "duration": 0.006127437499999999,
          "durationTicks": 1,
          "midi": 36,
          "name": "C2",
          "ticks": 1536,
          "time": 9.411744,
          "velocity": 0.8661417322834646
        },
        {
          "duration": 0.006127437499999999,
          "durationTicks": 1,
          "midi": 36,
          "name": "C2",
          "ticks": 1656,
          "time": 10.1470365,
          "velocity": 0.8661417322834646
        },
        {
          "duration": 0.006127437499999999,
          "durationTicks": 1,
          "midi": 36,
          "name": "C2",
          "ticks": 1752,
          "time": 10.7352705,
          "velocity": 0.8661417322834646
        },
        {
          "duration": 0.006127437499999999,
          "durationTicks": 1,
          "midi": 36,
          "name": "C2",
          "ticks": 1776,
          "time": 10.882329,
          "velocity": 0.8661417322834646
        },
        {
          "duration": 0.006127437499999999,
          "durationTicks": 1,
          "midi": 36,
          "name": "C2",
          "ticks": 1824,
          "time": 11.176446,
          "velocity": 0.8661417322834646
        },
        {
          "duration": 0.006127437499999999,
          "durationTicks": 1,
          "midi": 36,
          "name": "C2",
          "ticks": 1872,
          "time": 11.470563,
          "velocity": 0.8661417322834646
        },
        {
          "duration": 0.006127437499999999,
          "durationTicks": 1,
          "midi": 36,
          "name": "C2",
          "ticks": 1968,
          "time": 12.058797,
          "velocity": 0.8661417322834646
        },
        {
          "duration": 0.006127437499999999,
          "durationTicks": 1,
          "midi": 36,
          "name": "C2",
          "ticks": 1992,
          "time": 12.2058555,
          "velocity": 0.8661417322834646
        },
        {
          "duration": 0.006127437499998223,
          "durationTicks": 1,
          "midi": 36,
          "name": "C2",
          "ticks": 2088,
          "time": 12.794089500000002,
          "velocity": 0.8661417322834646
        },
        {
          "duration": 0.006127437499998223,
          "durationTicks": 1,
          "midi": 36,
          "name": "C2",
          "ticks": 2112,
          "time": 12.941148000000002,
          "velocity": 0.8661417322834646
        },
        {
          "duration": 0.006127437499998223,
          "durationTicks": 1,
          "midi": 36,
          "name": "C2",
          "ticks": 2160,
          "time": 13.235265000000002,
          "velocity": 0.8661417322834646
        },
        {
          "duration": 0.006127437499998223,
          "durationTicks": 1,
          "midi": 36,
          "name": "C2",
          "ticks": 2208,
          "time": 13.529382000000002,
          "velocity": 0.8661417322834646
        },
        {
          "duration": 0.006127437499998223,
          "durationTicks": 1,
          "midi": 36,
          "name": "C2",
          "ticks": 2328,
          "time": 14.264674500000002,
          "velocity": 0.8661417322834646
        },
        {
          "duration": 0.006127437499998223,
          "durationTicks": 1,
          "midi": 36,
          "name": "C2",
          "ticks": 2424,
          "time": 14.852908500000002,
          "velocity": 0.8661417322834646
        },
        {
          "duration": 0.006127437499998223,
          "durationTicks": 1,
          "midi": 36,
          "name": "C2",
          "ticks": 2448,
          "time": 14.999967000000002,
          "velocity": 0.8661417322834646
        },
        {
          "duration": 0.006127437499998223,
          "durationTicks": 1,
          "midi": 36,
          "name": "C2",
          "ticks": 2496,
          "time": 15.294084000000002,
          "velocity": 0.8661417322834646
        },
        {
          "duration": 0.006127437499998223,
          "durationTicks": 1,
          "midi": 36,
          "name": "C2",
          "ticks": 2544,
          "time": 15.588201000000002,
          "velocity": 0.8661417322834646
        },
        {
          "duration": 0.006127437499998223,
          "durationTicks": 1,
          "midi": 36,
          "name": "C2",
          "ticks": 2640,
          "time": 16.176435,
          "velocity": 0.8661417322834646
        },
        {
          "duration": 0.006127437499998223,
          "durationTicks": 1,
          "midi": 36,
          "name": "C2",
          "ticks": 2664,
          "time": 16.3234935,
          "velocity": 0.8661417322834646
        },
        {
          "duration": 0.006127437499998223,
          "durationTicks": 1,
          "midi": 36,
          "name": "C2",
          "ticks": 2760,
          "time": 16.9117275,
          "velocity": 0.8661417322834646
        },
        {
          "duration": 0.006127437499998223,
          "durationTicks": 1,
          "midi": 36,
          "name": "C2",
          "ticks": 2784,
          "time": 17.058786,
          "velocity": 0.8661417322834646
        },
        {
          "duration": 0.006127437499998223,
          "durationTicks": 1,
          "midi": 36,
          "name": "C2",
          "ticks": 2832,
          "time": 17.352903,
          "velocity": 0.8661417322834646
        },
        {
          "duration": 0.006127437499998223,
          "durationTicks": 1,
          "midi": 36,
          "name": "C2",
          "ticks": 2880,
          "time": 17.64702,
          "velocity": 0.8661417322834646
        },
        {
          "duration": 0.006127437499998223,
          "durationTicks": 1,
          "midi": 36,
          "name": "C2",
          "ticks": 3000,
          "time": 18.3823125,
          "velocity": 0.8661417322834646
        },
        {
          "duration": 0.006127437499998223,
          "durationTicks": 1,
          "midi": 36,
          "name": "C2",
          "ticks": 3096,
          "time": 18.9705465,
          "velocity": 0.8661417322834646
        },
        {
          "duration": 0.006127437499998223,
          "durationTicks": 1,
          "midi": 36,
          "name": "C2",
          "ticks": 3120,
          "time": 19.117605,
          "velocity": 0.8661417322834646
        },
        {
          "duration": 0.006127437499998223,
          "durationTicks": 1,
          "midi": 36,
          "name": "C2",
          "ticks": 3168,
          "time": 19.411722,
          "velocity": 0.8661417322834646
        },
        {
          "duration": 0.006127437499998223,
          "durationTicks": 1,
          "midi": 36,
          "name": "C2",
          "ticks": 3216,
          "time": 19.705839,
          "velocity": 0.8661417322834646
        },
        {
          "duration": 0.006127437499998223,
          "durationTicks": 1,
          "midi": 36,
          "name": "C2",
          "ticks": 3264,
          "time": 19.999956,
          "velocity": 0.8661417322834646
        },
        {
          "duration": 0.006127437499998223,
          "durationTicks": 1,
          "midi": 36,
          "name": "C2",
          "ticks": 3312,
          "time": 20.294073,
          "velocity": 0.8661417322834646
        },
        {
          "duration": 0.006127437499998223,
          "durationTicks": 1,
          "midi": 36,
          "name": "C2",
          "ticks": 3360,
          "time": 20.58819,
          "velocity": 0.8661417322834646
        },
        {
          "duration": 0.0061274375000017756,
          "durationTicks": 1,
          "midi": 36,
          "name": "C2",
          "ticks": 3384,
          "time": 20.7352485,
          "velocity": 0.8661417322834646
        },
        {
          "duration": 0.0061274375000017756,
          "durationTicks": 1,
          "midi": 36,
          "name": "C2",
          "ticks": 3480,
          "time": 21.3234825,
          "velocity": 0.8661417322834646
        },
        {
          "duration": 0.0061274375000017756,
          "durationTicks": 1,
          "midi": 36,
          "name": "C2",
          "ticks": 3504,
          "time": 21.470541,
          "velocity": 0.8661417322834646
        },
        {
          "duration": 0.0061274375000017756,
          "durationTicks": 1,
          "midi": 36,
          "name": "C2",
          "ticks": 3552,
          "time": 21.764658,
          "velocity": 0.8661417322834646
        },
        {
          "duration": 0.0061274375000017756,
          "durationTicks": 1,
          "midi": 36,
          "name": "C2",
          "ticks": 3600,
          "time": 22.058775,
          "velocity": 0.8661417322834646
        },
        {
          "duration": 0.0061274375000017756,
          "durationTicks": 1,
          "midi": 36,
          "name": "C2",
          "ticks": 3648,
          "time": 22.352892,
          "velocity": 0.8661417322834646
        },
        {
          "duration": 0.0061274375000017756,
          "durationTicks": 1,
          "midi": 36,
          "name": "C2",
          "ticks": 3696,
          "time": 22.647009,
          "velocity": 0.8661417322834646
        },
        {
          "duration": 0.0061274375000017756,
          "durationTicks": 1,
          "midi": 36,
          "name": "C2",
          "ticks": 3744,
          "time": 22.941126,
          "velocity": 0.8661417322834646
        },
        {
          "duration": 0.0061274375000017756,
          "durationTicks": 1,
          "midi": 36,
          "name": "C2",
          "ticks": 3768,
          "time": 23.0881845,
          "velocity": 0.8661417322834646
        },
        {
          "duration": 0.0061274375000017756,
          "durationTicks": 1,
          "midi": 36,
          "name": "C2",
          "ticks": 3864,
          "time": 23.6764185,
          "velocity": 0.8661417322834646
        },
        {
          "duration": 0.0061274375000017756,
          "durationTicks": 1,
          "midi": 36,
          "name": "C2",
          "ticks": 3888,
          "time": 23.823477,
          "velocity": 0.8661417322834646
        },
        {
          "duration": 0.0061274375000017756,
          "durationTicks": 1,
          "midi": 36,
          "name": "C2",
          "ticks": 3936,
          "time": 24.117594,
          "velocity": 0.8661417322834646
        },
        {
          "duration": 0.0061274375000017756,
          "durationTicks": 1,
          "midi": 36,
          "name": "C2",
          "ticks": 3984,
          "time": 24.411711,
          "velocity": 0.8661417322834646
        },
        {
          "duration": 0.0061274375000017756,
          "durationTicks": 1,
          "midi": 36,
          "name": "C2",
          "ticks": 4032,
          "time": 24.705828,
          "velocity": 0.8661417322834646
        },
        {
          "duration": 0.0061274375000017756,
          "durationTicks": 1,
          "midi": 36,
          "name": "C2",
          "ticks": 4080,
          "time": 24.999945,
          "velocity": 0.8661417322834646
        },
        {
          "duration": 0.0061274375000017756,
          "durationTicks": 1,
          "midi": 36,
          "name": "C2",
          "ticks": 4128,
          "time": 25.294062,
          "velocity": 0.8661417322834646
        },
        {
          "duration": 0.0061274375000017756,
          "durationTicks": 1,
          "midi": 36,
          "name": "C2",
          "ticks": 4152,
          "time": 25.4411205,
          "velocity": 0.8661417322834646
        },
        {
          "duration": 0.0061274375000017756,
          "durationTicks": 1,
          "midi": 36,
          "name": "C2",
          "ticks": 4248,
          "time": 26.0293545,
          "velocity": 0.8661417322834646
        },
        {
          "duration": 0.0061274375000017756,
          "durationTicks": 1,
          "midi": 36,
          "name": "C2",
          "ticks": 4272,
          "time": 26.176413,
          "velocity": 0.8661417322834646
        },
        {
          "duration": 0.0061274375000017756,
          "durationTicks": 1,
          "midi": 36,
          "name": "C2",
          "ticks": 4320,
          "time": 26.47053,
          "velocity": 0.8661417322834646
        },
        {
          "duration": 0.0061274375000017756,
          "durationTicks": 1,
          "midi": 36,
          "name": "C2",
          "ticks": 4368,
          "time": 26.764647,
          "velocity": 0.8661417322834646
        },
        {
          "duration": 0.0061274375000017756,
          "durationTicks": 1,
          "midi": 36,
          "name": "C2",
          "ticks": 4416,
          "time": 27.058764,
          "velocity": 0.8661417322834646
        },
        {
          "duration": 0.0061274375000017756,
          "durationTicks": 1,
          "midi": 36,
          "name": "C2",
          "ticks": 4464,
          "time": 27.352881,
          "velocity": 0.8661417322834646
        },
        {
          "duration": 0.0061274375000017756,
          "durationTicks": 1,
          "midi": 36,
          "name": "C2",
          "ticks": 4512,
          "time": 27.646998,
          "velocity": 0.8661417322834646
        },
        {
          "duration": 0.0061274375000017756,
          "durationTicks": 1,
          "midi": 36,
          "name": "C2",
          "ticks": 4536,
          "time": 27.7940565,
          "velocity": 0.8661417322834646
        },
        {
          "duration": 0.0061274375000017756,
          "durationTicks": 1,
          "midi": 36,
          "name": "C2",
          "ticks": 4632,
          "time": 28.3822905,
          "velocity": 0.8661417322834646
        },
        {
          "duration": 0.0061274375000017756,
          "durationTicks": 1,
          "midi": 36,
          "name": "C2",
          "ticks": 4656,
          "time": 28.529349,
          "velocity": 0.8661417322834646
        },
        {
          "duration": 0.0061274375000017756,
          "durationTicks": 1,
          "midi": 36,
          "name": "C2",
          "ticks": 4704,
          "time": 28.823466,
          "velocity": 0.8661417322834646
        },
        {
          "duration": 0.0061274375000017756,
          "durationTicks": 1,
          "midi": 36,
          "name": "C2",
          "ticks": 4752,
          "time": 29.117583,
          "velocity": 0.8661417322834646
        },
        {
          "duration": 0.0061274375000017756,
          "durationTicks": 1,
          "midi": 36,
          "name": "C2",
          "ticks": 4800,
          "time": 29.4117,
          "velocity": 0.8661417322834646
        },
        {
          "duration": 0.0061274375000017756,
          "durationTicks": 1,
          "midi": 36,
          "name": "C2",
          "ticks": 4848,
          "time": 29.705817,
          "velocity": 0.8661417322834646
        },
        {
          "duration": 0.0061274375000017756,
          "durationTicks": 1,
          "midi": 36,
          "name": "C2",
          "ticks": 4896,
          "time": 29.999934,
          "velocity": 0.8661417322834646
        },
        {
          "duration": 0.0061274375000017756,
          "durationTicks": 1,
          "midi": 36,
          "name": "C2",
          "ticks": 4920,
          "time": 30.1469925,
          "velocity": 0.8661417322834646
        },
        {
          "duration": 0.0061274375000017756,
          "durationTicks": 1,
          "midi": 36,
          "name": "C2",
          "ticks": 5016,
          "time": 30.7352265,
          "velocity": 0.8661417322834646
        },
        {
          "duration": 0.0061274375000017756,
          "durationTicks": 1,
          "midi": 36,
          "name": "C2",
          "ticks": 5040,
          "time": 30.882285,
          "velocity": 0.8661417322834646
        },
        {
          "duration": 0.0061274375000017756,
          "durationTicks": 1,
          "midi": 36,
          "name": "C2",
          "ticks": 5088,
          "time": 31.176402,
          "velocity": 0.8661417322834646
        },
        {
          "duration": 0.0061274375000017756,
          "durationTicks": 1,
          "midi": 36,
          "name": "C2",
          "ticks": 5136,
          "time": 31.470519,
          "velocity": 0.8661417322834646
        },
        {
          "duration": 0.0061274375000017756,
          "durationTicks": 1,
          "midi": 36,
          "name": "C2",
          "ticks": 5184,
          "time": 31.764636,
          "velocity": 0.8661417322834646
        },
        {
          "duration": 0.006127437499998223,
          "durationTicks": 1,
          "midi": 36,
          "name": "C2",
          "ticks": 5232,
          "time": 32.058753,
          "velocity": 0.8661417322834646
        },
        {
          "duration": 0.006127437500005328,
          "durationTicks": 1,
          "midi": 36,
          "name": "C2",
          "ticks": 5280,
          "time": 32.35287,
          "velocity": 0.8661417322834646
        },
        {
          "duration": 0.006127437500005328,
          "durationTicks": 1,
          "midi": 36,
          "name": "C2",
          "ticks": 5304,
          "time": 32.4999285,
          "velocity": 0.8661417322834646
        },
        {
          "duration": 0.006127437500005328,
          "durationTicks": 1,
          "midi": 36,
          "name": "C2",
          "ticks": 5400,
          "time": 33.0881625,
          "velocity": 0.8661417322834646
        },
        {
          "duration": 0.006127437500005328,
          "durationTicks": 1,
          "midi": 36,
          "name": "C2",
          "ticks": 5424,
          "time": 33.235221,
          "velocity": 0.8661417322834646
        },
        {
          "duration": 0.006127437500005328,
          "durationTicks": 1,
          "midi": 36,
          "name": "C2",
          "ticks": 5472,
          "time": 33.529338,
          "velocity": 0.8661417322834646
        },
        {
          "duration": 0.006127437500005328,
          "durationTicks": 1,
          "midi": 36,
          "name": "C2",
          "ticks": 5520,
          "time": 33.823455,
          "velocity": 0.8661417322834646
        },
        {
          "duration": 0.006127437499998223,
          "durationTicks": 1,
          "midi": 36,
          "name": "C2",
          "ticks": 5568,
          "time": 34.117572,
          "velocity": 0.8661417322834646
        },
        {
          "duration": 0.006127437499998223,
          "durationTicks": 1,
          "midi": 36,
          "name": "C2",
          "ticks": 5616,
          "time": 34.411689,
          "velocity": 0.8661417322834646
        },
        {
          "duration": 0.006127437499998223,
          "durationTicks": 1,
          "midi": 36,
          "name": "C2",
          "ticks": 5664,
          "time": 34.705806,
          "velocity": 0.8661417322834646
        },
        {
          "duration": 0.006127437499998223,
          "durationTicks": 1,
          "midi": 36,
          "name": "C2",
          "ticks": 5688,
          "time": 34.8528645,
          "velocity": 0.8661417322834646
        },
        {
          "duration": 0.006127437499998223,
          "durationTicks": 1,
          "midi": 36,
          "name": "C2",
          "ticks": 5784,
          "time": 35.4410985,
          "velocity": 0.8661417322834646
        },
        {
          "duration": 0.006127437499998223,
          "durationTicks": 1,
          "midi": 36,
          "name": "C2",
          "ticks": 5808,
          "time": 35.588157,
          "velocity": 0.8661417322834646
        },
        {
          "duration": 0.006127437499998223,
          "durationTicks": 1,
          "midi": 36,
          "name": "C2",
          "ticks": 5856,
          "time": 35.882274,
          "velocity": 0.8661417322834646
        },
        {
          "duration": 0.006127437499998223,
          "durationTicks": 1,
          "midi": 36,
          "name": "C2",
          "ticks": 5904,
          "time": 36.176391,
          "velocity": 0.8661417322834646
        },
        {
          "duration": 0.006127437499998223,
          "durationTicks": 1,
          "midi": 36,
          "name": "C2",
          "ticks": 5952,
          "time": 36.470508,
          "velocity": 0.8661417322834646
        },
        {
          "duration": 0.006127437499998223,
          "durationTicks": 1,
          "midi": 36,
          "name": "C2",
          "ticks": 6000,
          "time": 36.764625,
          "velocity": 0.8661417322834646
        },
        {
          "duration": 0.006127437499998223,
          "durationTicks": 1,
          "midi": 36,
          "name": "C2",
          "ticks": 6048,
          "time": 37.058742,
          "velocity": 0.8661417322834646
        },
        {
          "duration": 0.006127437499998223,
          "durationTicks": 1,
          "midi": 36,
          "name": "C2",
          "ticks": 6072,
          "time": 37.2058005,
          "velocity": 0.8661417322834646
        },
        {
          "duration": 0.006127437499998223,
          "durationTicks": 1,
          "midi": 36,
          "name": "C2",
          "ticks": 6168,
          "time": 37.7940345,
          "velocity": 0.8661417322834646
        },
        {
          "duration": 0.006127437499998223,
          "durationTicks": 1,
          "midi": 36,
          "name": "C2",
          "ticks": 6192,
          "time": 37.941093,
          "velocity": 0.8661417322834646
        },
        {
          "duration": 0.006127437499998223,
          "durationTicks": 1,
          "midi": 36,
          "name": "C2",
          "ticks": 6240,
          "time": 38.23521,
          "velocity": 0.8661417322834646
        },
        {
          "duration": 0.006127437499998223,
          "durationTicks": 1,
          "midi": 36,
          "name": "C2",
          "ticks": 6288,
          "time": 38.529327,
          "velocity": 0.8661417322834646
        },
        {
          "duration": 0.006127437499998223,
          "durationTicks": 1,
          "midi": 36,
          "name": "C2",
          "ticks": 6336,
          "time": 38.823444,
          "velocity": 0.8661417322834646
        },
        {
          "duration": 0.006127437499998223,
          "durationTicks": 1,
          "midi": 36,
          "name": "C2",
          "ticks": 6384,
          "time": 39.117561,
          "velocity": 0.8661417322834646
        },
        {
          "duration": 0.006127437499998223,
          "durationTicks": 1,
          "midi": 36,
          "name": "C2",
          "ticks": 6432,
          "time": 39.411678,
          "velocity": 0.8661417322834646
        },
        {
          "duration": 0.006127437499998223,
          "durationTicks": 1,
          "midi": 36,
          "name": "C2",
          "ticks": 6456,
          "time": 39.5587365,
          "velocity": 0.8661417322834646
        },
        {
          "duration": 0.006127437499998223,
          "durationTicks": 1,
          "midi": 36,
          "name": "C2",
          "ticks": 6552,
          "time": 40.1469705,
          "velocity": 0.8661417322834646
        },
        {
          "duration": 0.006127437499998223,
          "durationTicks": 1,
          "midi": 36,
          "name": "C2",
          "ticks": 6576,
          "time": 40.294029,
          "velocity": 0.8661417322834646
        },
        {
          "duration": 0.006127437499998223,
          "durationTicks": 1,
          "midi": 36,
          "name": "C2",
          "ticks": 6624,
          "time": 40.588146,
          "velocity": 0.8661417322834646
        },
        {
          "duration": 0.006127437499998223,
          "durationTicks": 1,
          "midi": 36,
          "name": "C2",
          "ticks": 6672,
          "time": 40.882263,
          "velocity": 0.8661417322834646
        },
        {
          "duration": 0.006127437499998223,
          "durationTicks": 1,
          "midi": 36,
          "name": "C2",
          "ticks": 6720,
          "time": 41.17638,
          "velocity": 0.8661417322834646
        },
        {
          "duration": 0.006127437499998223,
          "durationTicks": 1,
          "midi": 36,
          "name": "C2",
          "ticks": 6768,
          "time": 41.470497,
          "velocity": 0.8661417322834646
        },
        {
          "duration": 0.006127437499998223,
          "durationTicks": 1,
          "midi": 36,
          "name": "C2",
          "ticks": 6816,
          "time": 41.764614,
          "velocity": 0.8661417322834646
        },
        {
          "duration": 0.006127437499998223,
          "durationTicks": 1,
          "midi": 36,
          "name": "C2",
          "ticks": 6840,
          "time": 41.9116725,
          "velocity": 0.8661417322834646
        },
        {
          "duration": 0.006127437499998223,
          "durationTicks": 1,
          "midi": 36,
          "name": "C2",
          "ticks": 6936,
          "time": 42.4999065,
          "velocity": 0.8661417322834646
        },
        {
          "duration": 0.006127437499998223,
          "durationTicks": 1,
          "midi": 36,
          "name": "C2",
          "ticks": 6960,
          "time": 42.646965,
          "velocity": 0.8661417322834646
        },
        {
          "duration": 0.006127437499998223,
          "durationTicks": 1,
          "midi": 36,
          "name": "C2",
          "ticks": 7008,
          "time": 42.941082,
          "velocity": 0.8661417322834646
        },
        {
          "duration": 0.006127437499998223,
          "durationTicks": 1,
          "midi": 36,
          "name": "C2",
          "ticks": 7056,
          "time": 43.235199,
          "velocity": 0.8661417322834646
        },
        {
          "duration": 0.006127437499998223,
          "durationTicks": 1,
          "midi": 36,
          "name": "C2",
          "ticks": 7104,
          "time": 43.529316,
          "velocity": 0.8661417322834646
        },
        {
          "duration": 0.006127437499991117,
          "durationTicks": 1,
          "midi": 36,
          "name": "C2",
          "ticks": 7152,
          "time": 43.82343300000001,
          "velocity": 0.8661417322834646
        },
        {
          "duration": 0.006127437499991117,
          "durationTicks": 1,
          "midi": 36,
          "name": "C2",
          "ticks": 7200,
          "time": 44.11755000000001,
          "velocity": 0.8661417322834646
        },
        {
          "duration": 0.006127437499991117,
          "durationTicks": 1,
          "midi": 36,
          "name": "C2",
          "ticks": 7224,
          "time": 44.26460850000001,
          "velocity": 0.8661417322834646
        },
        {
          "duration": 0.006127437499991117,
          "durationTicks": 1,
          "midi": 36,
          "name": "C2",
          "ticks": 7320,
          "time": 44.85284250000001,
          "velocity": 0.8661417322834646
        },
        {
          "duration": 0.006127437499991117,
          "durationTicks": 1,
          "midi": 36,
          "name": "C2",
          "ticks": 7344,
          "time": 44.99990100000001,
          "velocity": 0.8661417322834646
        },
        {
          "duration": 0.006127437499991117,
          "durationTicks": 1,
          "midi": 36,
          "name": "C2",
          "ticks": 7392,
          "time": 45.29401800000001,
          "velocity": 0.8661417322834646
        },
        {
          "duration": 0.006127437499991117,
          "durationTicks": 1,
          "midi": 36,
          "name": "C2",
          "ticks": 7440,
          "time": 45.58813500000001,
          "velocity": 0.8661417322834646
        },
        {
          "duration": 0.006127437499991117,
          "durationTicks": 1,
          "midi": 36,
          "name": "C2",
          "ticks": 7488,
          "time": 45.88225200000001,
          "velocity": 0.8661417322834646
        },
        {
          "duration": 0.006127437499991117,
          "durationTicks": 1,
          "midi": 36,
          "name": "C2",
          "ticks": 7536,
          "time": 46.17636900000001,
          "velocity": 0.8661417322834646
        },
        {
          "duration": 0.006127437499991117,
          "durationTicks": 1,
          "midi": 36,
          "name": "C2",
          "ticks": 7584,
          "time": 46.47048600000001,
          "velocity": 0.8661417322834646
        },
        {
          "duration": 0.006127437499991117,
          "durationTicks": 1,
          "midi": 36,
          "name": "C2",
          "ticks": 7608,
          "time": 46.61754450000001,
          "velocity": 0.8661417322834646
        },
        {
          "duration": 0.006127437499991117,
          "durationTicks": 1,
          "midi": 36,
          "name": "C2",
          "ticks": 7704,
          "time": 47.20577850000001,
          "velocity": 0.8661417322834646
        },
        {
          "duration": 0.006127437499991117,
          "durationTicks": 1,
          "midi": 36,
          "name": "C2",
          "ticks": 7728,
          "time": 47.35283700000001,
          "velocity": 0.8661417322834646
        },
        {
          "duration": 0.006127437499991117,
          "durationTicks": 1,
          "midi": 36,
          "name": "C2",
          "ticks": 7776,
          "time": 47.64695400000001,
          "velocity": 0.8661417322834646
        },
        {
          "duration": 0.006127437499991117,
          "durationTicks": 1,
          "midi": 36,
          "name": "C2",
          "ticks": 7824,
          "time": 47.94107100000001,
          "velocity": 0.8661417322834646
        },
        {
          "duration": 0.006127437499991117,
          "durationTicks": 1,
          "midi": 36,
          "name": "C2",
          "ticks": 7872,
          "time": 48.23518800000001,
          "velocity": 0.8661417322834646
        },
        {
          "duration": 0.006127437499991117,
          "durationTicks": 1,
          "midi": 36,
          "name": "C2",
          "ticks": 7920,
          "time": 48.52930500000001,
          "velocity": 0.8661417322834646
        },
        {
          "duration": 0.006127437499991117,
          "durationTicks": 1,
          "midi": 36,
          "name": "C2",
          "ticks": 7968,
          "time": 48.82342200000001,
          "velocity": 0.8661417322834646
        },
        {
          "duration": 0.006127437499991117,
          "durationTicks": 1,
          "midi": 36,
          "name": "C2",
          "ticks": 7992,
          "time": 48.97048050000001,
          "velocity": 0.8661417322834646
        },
        {
          "duration": 0.006127437499991117,
          "durationTicks": 1,
          "midi": 36,
          "name": "C2",
          "ticks": 8088,
          "time": 49.55871450000001,
          "velocity": 0.8661417322834646
        },
        {
          "duration": 0.006127437499991117,
          "durationTicks": 1,
          "midi": 36,
          "name": "C2",
          "ticks": 8112,
          "time": 49.70577300000001,
          "velocity": 0.8661417322834646
        },
        {
          "duration": 0.006127437499991117,
          "durationTicks": 1,
          "midi": 36,
          "name": "C2",
          "ticks": 8160,
          "time": 49.99989000000001,
          "velocity": 0.8661417322834646
        },
        {
          "duration": 0.006127437499991117,
          "durationTicks": 1,
          "midi": 36,
          "name": "C2",
          "ticks": 8208,
          "time": 50.29400700000001,
          "velocity": 0.8661417322834646
        },
        {
          "duration": 0.006127437499991117,
          "durationTicks": 1,
          "midi": 36,
          "name": "C2",
          "ticks": 8256,
          "time": 50.58812400000001,
          "velocity": 0.8661417322834646
        },
        {
          "duration": 0.006127437499991117,
          "durationTicks": 1,
          "midi": 36,
          "name": "C2",
          "ticks": 8304,
          "time": 50.88224100000001,
          "velocity": 0.8661417322834646
        },
        {
          "duration": 0.006127437499991117,
          "durationTicks": 1,
          "midi": 36,
          "name": "C2",
          "ticks": 8352,
          "time": 51.17635800000001,
          "velocity": 0.8661417322834646
        },
        {
          "duration": 0.006127437499991117,
          "durationTicks": 1,
          "midi": 36,
          "name": "C2",
          "ticks": 8376,
          "time": 51.32341650000001,
          "velocity": 0.8661417322834646
        },
        {
          "duration": 0.006127437499991117,
          "durationTicks": 1,
          "midi": 36,
          "name": "C2",
          "ticks": 8472,
          "time": 51.91165050000001,
          "velocity": 0.8661417322834646
        },
        {
          "duration": 0.006127437499991117,
          "durationTicks": 1,
          "midi": 36,
          "name": "C2",
          "ticks": 8496,
          "time": 52.05870900000001,
          "velocity": 0.8661417322834646
        },
        {
          "duration": 0.006127437499991117,
          "durationTicks": 1,
          "midi": 36,
          "name": "C2",
          "ticks": 8544,
          "time": 52.35282600000001,
          "velocity": 0.8661417322834646
        },
        {
          "duration": 0.006127437499991117,
          "durationTicks": 1,
          "midi": 36,
          "name": "C2",
          "ticks": 8592,
          "time": 52.64694300000001,
          "velocity": 0.8661417322834646
        },
        {
          "duration": 0.006127437499991117,
          "durationTicks": 1,
          "midi": 36,
          "name": "C2",
          "ticks": 8640,
          "time": 52.94106000000001,
          "velocity": 0.8661417322834646
        },
        {
          "duration": 0.006127437499991117,
          "durationTicks": 1,
          "midi": 36,
          "name": "C2",
          "ticks": 8688,
          "time": 53.23517700000001,
          "velocity": 0.8661417322834646
        },
        {
          "duration": 0.006127437499991117,
          "durationTicks": 1,
          "midi": 36,
          "name": "C2",
          "ticks": 8736,
          "time": 53.52929400000001,
          "velocity": 0.8661417322834646
        },
        {
          "duration": 0.006127437499991117,
          "durationTicks": 1,
          "midi": 36,
          "name": "C2",
          "ticks": 8760,
          "time": 53.67635250000001,
          "velocity": 0.8661417322834646
        },
        {
          "duration": 0.006127437499991117,
          "durationTicks": 1,
          "midi": 36,
          "name": "C2",
          "ticks": 8856,
          "time": 54.26458650000001,
          "velocity": 0.8661417322834646
        },
        {
          "duration": 0.006127437499991117,
          "durationTicks": 1,
          "midi": 36,
          "name": "C2",
          "ticks": 8880,
          "time": 54.41164500000001,
          "velocity": 0.8661417322834646
        },
        {
          "duration": 0.006127437499991117,
          "durationTicks": 1,
          "midi": 36,
          "name": "C2",
          "ticks": 8928,
          "time": 54.70576200000001,
          "velocity": 0.8661417322834646
        },
        {
          "duration": 0.006127437499991117,
          "durationTicks": 1,
          "midi": 36,
          "name": "C2",
          "ticks": 8976,
          "time": 54.99987900000001,
          "velocity": 0.8661417322834646
        },
        {
          "duration": 0.006127437499991117,
          "durationTicks": 1,
          "midi": 36,
          "name": "C2",
          "ticks": 9024,
          "time": 55.29399600000001,
          "velocity": 0.8661417322834646
        },
        {
          "duration": 0.006127437499991117,
          "durationTicks": 1,
          "midi": 36,
          "name": "C2",
          "ticks": 9144,
          "time": 56.02928850000001,
          "velocity": 0.8661417322834646
        },
        {
          "duration": 0.006127437499991117,
          "durationTicks": 1,
          "midi": 36,
          "name": "C2",
          "ticks": 9240,
          "time": 56.61752250000001,
          "velocity": 0.8661417322834646
        },
        {
          "duration": 0.006127437499991117,
          "durationTicks": 1,
          "midi": 36,
          "name": "C2",
          "ticks": 9264,
          "time": 56.76458100000001,
          "velocity": 0.8661417322834646
        },
        {
          "duration": 0.006127437499991117,
          "durationTicks": 1,
          "midi": 36,
          "name": "C2",
          "ticks": 9312,
          "time": 57.05869800000001,
          "velocity": 0.8661417322834646
        },
        {
          "duration": 0.006127437499991117,
          "durationTicks": 1,
          "midi": 36,
          "name": "C2",
          "ticks": 9360,
          "time": 57.35281500000001,
          "velocity": 0.8661417322834646
        },
        {
          "duration": 0.006127437499991117,
          "durationTicks": 1,
          "midi": 36,
          "name": "C2",
          "ticks": 9456,
          "time": 57.94104900000001,
          "velocity": 0.8661417322834646
        },
        {
          "duration": 0.006127437499991117,
          "durationTicks": 1,
          "midi": 36,
          "name": "C2",
          "ticks": 9480,
          "time": 58.08810750000001,
          "velocity": 0.8661417322834646
        },
        {
          "duration": 0.006127437499991117,
          "durationTicks": 1,
          "midi": 36,
          "name": "C2",
          "ticks": 9576,
          "time": 58.67634150000001,
          "velocity": 0.8661417322834646
        },
        {
          "duration": 0.006127437499991117,
          "durationTicks": 1,
          "midi": 36,
          "name": "C2",
          "ticks": 9600,
          "time": 58.82340000000001,
          "velocity": 0.8661417322834646
        },
        {
          "duration": 0.006127437499991117,
          "durationTicks": 1,
          "midi": 36,
          "name": "C2",
          "ticks": 9648,
          "time": 59.11751700000001,
          "velocity": 0.8661417322834646
        },
        {
          "duration": 0.006127437499991117,
          "durationTicks": 1,
          "midi": 36,
          "name": "C2",
          "ticks": 9696,
          "time": 59.41163400000001,
          "velocity": 0.8661417322834646
        },
        {
          "duration": 0.006127437499991117,
          "durationTicks": 1,
          "midi": 36,
          "name": "C2",
          "ticks": 9816,
          "time": 60.146926500000006,
          "velocity": 0.8661417322834646
        }
      ]
    },
    {
      "channel": 0,
      "controlChanges": {
        "6": [
          {
            "number": 6,
            "ticks": 624,
            "time": 3.8235210000000004,
            "value": 0.5511811023622047
          },
          {
            "number": 6,
            "ticks": 984,
            "time": 6.029398500000001,
            "value": 0.5511811023622047
          },
          {
            "number": 6,
            "ticks": 1296,
            "time": 7.941159000000001,
            "value": 0.5511811023622047
          },
          {
            "number": 6,
            "ticks": 1656,
            "time": 10.1470365,
            "value": 0.5511811023622047
          },
          {
            "number": 6,
            "ticks": 1968,
            "time": 12.058797,
            "value": 0.5511811023622047
          },
          {
            "number": 6,
            "ticks": 2328,
            "time": 14.264674500000002,
            "value": 0.5511811023622047
          },
          {
            "number": 6,
            "ticks": 2640,
            "time": 16.176435,
            "value": 0.5511811023622047
          },
          {
            "number": 6,
            "ticks": 3000,
            "time": 18.3823125,
            "value": 0.5511811023622047
          },
          {
            "number": 6,
            "ticks": 9144,
            "time": 56.02928850000001,
            "value": 0.5511811023622047
          },
          {
            "number": 6,
            "ticks": 9456,
            "time": 57.94104900000001,
            "value": 0.5511811023622047
          },
          {
            "number": 6,
            "ticks": 9816,
            "time": 60.146926500000006,
            "value": 0.5511811023622047
          }
        ],
        "7": [
          {
            "number": 7,
            "ticks": 9816,
            "time": 60.146926500000006,
            "value": 0.11811023622047244
          }
        ],
        "10": [
          {
            "number": 10,
            "ticks": 624,
            "time": 3.8235210000000004,
            "value": 0.47244094488188976
          },
          {
            "number": 10,
            "ticks": 984,
            "time": 6.029398500000001,
            "value": 0.47244094488188976
          },
          {
            "number": 10,
            "ticks": 1296,
            "time": 7.941159000000001,
            "value": 0.47244094488188976
          },
          {
            "number": 10,
            "ticks": 1656,
            "time": 10.1470365,
            "value": 0.47244094488188976
          },
          {
            "number": 10,
            "ticks": 1968,
            "time": 12.058797,
            "value": 0.47244094488188976
          },
          {
            "number": 10,
            "ticks": 2328,
            "time": 14.264674500000002,
            "value": 0.47244094488188976
          },
          {
            "number": 10,
            "ticks": 2640,
            "time": 16.176435,
            "value": 0.47244094488188976
          },
          {
            "number": 10,
            "ticks": 3000,
            "time": 18.3823125,
            "value": 0.47244094488188976
          },
          {
            "number": 10,
            "ticks": 9144,
            "time": 56.02928850000001,
            "value": 0.47244094488188976
          },
          {
            "number": 10,
            "ticks": 9456,
            "time": 57.94104900000001,
            "value": 0.47244094488188976
          },
          {
            "number": 10,
            "ticks": 9816,
            "time": 60.146926500000006,
            "value": 0.47244094488188976
          }
        ]
      },
      "pitchBends": [
        {
          "ticks": 960,
          "time": 5.882340000000001,
          "value": -0.25
        },
        {
          "ticks": 984,
          "time": 6.029398500000001,
          "value": 0
        },
        {
          "ticks": 1632,
          "time": 9.999978,
          "value": -0.25
        },
        {
          "ticks": 1656,
          "time": 10.1470365,
          "value": 0
        },
        {
          "ticks": 2304,
          "time": 14.117616000000002,
          "value": -0.25
        },
        {
          "ticks": 2328,
          "time": 14.264674500000002,
          "value": 0
        },
        {
          "ticks": 2976,
          "time": 18.235254,
          "value": -0.25
        },
        {
          "ticks": 3000,
          "time": 18.3823125,
          "value": 0
        },
        {
          "ticks": 9096,
          "time": 55.73517150000001,
          "value": -0.125
        },
        {
          "ticks": 9120,
          "time": 55.88223000000001,
          "value": -0.25
        },
        {
          "ticks": 9144,
          "time": 56.02928850000001,
          "value": 0
        },
        {
          "ticks": 9792,
          "time": 59.999868000000006,
          "value": -0.25
        },
        {
          "ticks": 9816,
          "time": 60.146926500000006,
          "value": 0
        }
      ],
      "instrument": {
        "family": "guitar",
        "number": 24,
        "name": "acoustic guitar (nylon)"
      },
      "name": "",
      "notes": [
        {
          "duration": 0.006127437499999999,
          "durationTicks": 1,
          "midi": 43,
          "name": "G2",
          "ticks": 600,
          "time": 3.6764625000000004,
          "velocity": 0.7480314960629921
        },
        {
          "duration": 0.006127437499999999,
          "durationTicks": 1,
          "midi": 41,
          "name": "F2",
          "ticks": 600,
          "time": 3.6764625000000004,
          "velocity": 0.7480314960629921
        },
        {
          "duration": 0.006127437499999111,
          "durationTicks": 1,
          "midi": 43,
          "name": "G2",
          "ticks": 936,
          "time": 5.735281500000001,
          "velocity": 0.7480314960629921
        },
        {
          "duration": 0.006127437499999111,
          "durationTicks": 1,
          "midi": 41,
          "name": "F2",
          "ticks": 936,
          "time": 5.735281500000001,
          "velocity": 0.7480314960629921
        },
        {
          "duration": 0.006127437499999999,
          "durationTicks": 1,
          "midi": 41,
          "name": "F2",
          "ticks": 960,
          "time": 5.882340000000001,
          "velocity": 0.7480314960629921
        },
        {
          "duration": 0.006127437499999999,
          "durationTicks": 1,
          "midi": 43,
          "name": "G2",
          "ticks": 960,
          "time": 5.882340000000001,
          "velocity": 0.7480314960629921
        },
        {
          "duration": 0.006127437499999999,
          "durationTicks": 1,
          "midi": 43,
          "name": "G2",
          "ticks": 1272,
          "time": 7.794100500000001,
          "velocity": 0.7480314960629921
        },
        {
          "duration": 0.006127437499999999,
          "durationTicks": 1,
          "midi": 41,
          "name": "F2",
          "ticks": 1272,
          "time": 7.794100500000001,
          "velocity": 0.7480314960629921
        },
        {
          "duration": 0.006127437499999999,
          "durationTicks": 1,
          "midi": 43,
          "name": "G2",
          "ticks": 1608,
          "time": 9.8529195,
          "velocity": 0.7480314960629921
        },
        {
          "duration": 0.006127437499999999,
          "durationTicks": 1,
          "midi": 41,
          "name": "F2",
          "ticks": 1608,
          "time": 9.8529195,
          "velocity": 0.7480314960629921
        },
        {
          "duration": 0.006127437499999999,
          "durationTicks": 1,
          "midi": 43,
          "name": "G2",
          "ticks": 1632,
          "time": 9.999978,
          "velocity": 0.7480314960629921
        },
        {
          "duration": 0.006127437499999999,
          "durationTicks": 1,
          "midi": 41,
          "name": "F2",
          "ticks": 1632,
          "time": 9.999978,
          "velocity": 0.7480314960629921
        },
        {
          "duration": 0.006127437499999999,
          "durationTicks": 1,
          "midi": 43,
          "name": "G2",
          "ticks": 1944,
          "time": 11.9117385,
          "velocity": 0.7480314960629921
        },
        {
          "duration": 0.006127437499999999,
          "durationTicks": 1,
          "midi": 41,
          "name": "F2",
          "ticks": 1944,
          "time": 11.9117385,
          "velocity": 0.7480314960629921
        },
        {
          "duration": 0.006127437499998223,
          "durationTicks": 1,
          "midi": 43,
          "name": "G2",
          "ticks": 2280,
          "time": 13.970557500000002,
          "velocity": 0.7480314960629921
        },
        {
          "duration": 0.006127437499998223,
          "durationTicks": 1,
          "midi": 41,
          "name": "F2",
          "ticks": 2280,
          "time": 13.970557500000002,
          "velocity": 0.7480314960629921
        },
        {
          "duration": 0.006127437499998223,
          "durationTicks": 1,
          "midi": 41,
          "name": "F2",
          "ticks": 2304,
          "time": 14.117616000000002,
          "velocity": 0.7480314960629921
        },
        {
          "duration": 0.006127437499998223,
          "durationTicks": 1,
          "midi": 43,
          "name": "G2",
          "ticks": 2304,
          "time": 14.117616000000002,
          "velocity": 0.7480314960629921
        },
        {
          "duration": 0.006127437499998223,
          "durationTicks": 1,
          "midi": 43,
          "name": "G2",
          "ticks": 2616,
          "time": 16.0293765,
          "velocity": 0.7480314960629921
        },
        {
          "duration": 0.006127437499998223,
          "durationTicks": 1,
          "midi": 41,
          "name": "F2",
          "ticks": 2616,
          "time": 16.0293765,
          "velocity": 0.7480314960629921
        },
        {
          "duration": 0.006127437499998223,
          "durationTicks": 1,
          "midi": 43,
          "name": "G2",
          "ticks": 2952,
          "time": 18.0881955,
          "velocity": 0.7480314960629921
        },
        {
          "duration": 0.006127437499998223,
          "durationTicks": 1,
          "midi": 41,
          "name": "F2",
          "ticks": 2952,
          "time": 18.0881955,
          "velocity": 0.7480314960629921
        },
        {
          "duration": 0.006127437499998223,
          "durationTicks": 1,
          "midi": 43,
          "name": "G2",
          "ticks": 2976,
          "time": 18.235254,
          "velocity": 0.7480314960629921
        },
        {
          "duration": 0.006127437499998223,
          "durationTicks": 1,
          "midi": 41,
          "name": "F2",
          "ticks": 2976,
          "time": 18.235254,
          "velocity": 0.7480314960629921
        },
        {
          "duration": 0.006127437499991117,
          "durationTicks": 1,
          "midi": 43,
          "name": "G2",
          "ticks": 9072,
          "time": 55.58811300000001,
          "velocity": 0.7086614173228346
        },
        {
          "duration": 0.006127437499991117,
          "durationTicks": 1,
          "midi": 41,
          "name": "F2",
          "ticks": 9072,
          "time": 55.58811300000001,
          "velocity": 0.7086614173228346
        },
        {
          "duration": 0.006127437499991117,
          "durationTicks": 1,
          "midi": 43,
          "name": "G2",
          "ticks": 9096,
          "time": 55.73517150000001,
          "velocity": 0.7086614173228346
        },
        {
          "duration": 0.006127437499991117,
          "durationTicks": 1,
          "midi": 41,
          "name": "F2",
          "ticks": 9096,
          "time": 55.73517150000001,
          "velocity": 0.7086614173228346
        },
        {
          "duration": 0.006127437499991117,
          "durationTicks": 1,
          "midi": 43,
          "name": "G2",
          "ticks": 9120,
          "time": 55.88223000000001,
          "velocity": 0.7086614173228346
        },
        {
          "duration": 0.006127437499991117,
          "durationTicks": 1,
          "midi": 41,
          "name": "F2",
          "ticks": 9120,
          "time": 55.88223000000001,
          "velocity": 0.7086614173228346
        },
        {
          "duration": 0.006127437499991117,
          "durationTicks": 1,
          "midi": 43,
          "name": "G2",
          "ticks": 9432,
          "time": 57.79399050000001,
          "velocity": 0.7480314960629921
        },
        {
          "duration": 0.006127437499991117,
          "durationTicks": 1,
          "midi": 41,
          "name": "F2",
          "ticks": 9432,
          "time": 57.79399050000001,
          "velocity": 0.7480314960629921
        },
        {
          "duration": 0.006127437499991117,
          "durationTicks": 1,
          "midi": 43,
          "name": "G2",
          "ticks": 9768,
          "time": 59.852809500000006,
          "velocity": 0.7480314960629921
        },
        {
          "duration": 0.006127437499991117,
          "durationTicks": 1,
          "midi": 41,
          "name": "F2",
          "ticks": 9768,
          "time": 59.852809500000006,
          "velocity": 0.7480314960629921
        },
        {
          "duration": 0.006127437499991117,
          "durationTicks": 1,
          "midi": 41,
          "name": "F2",
          "ticks": 9792,
          "time": 59.999868000000006,
          "velocity": 0.7480314960629921
        },
        {
          "duration": 0.006127437499991117,
          "durationTicks": 1,
          "midi": 43,
          "name": "G2",
          "ticks": 9792,
          "time": 59.999868000000006,
          "velocity": 0.7480314960629921
        }
      ]
    },
    {
      "channel": 0,
      "controlChanges": {
        "0": [
          {
            "number": 0,
            "ticks": 162,
            "time": 0.9926448750000001,
            "value": 0.06299212598425197
          }
        ],
        "1": [
          {
            "number": 1,
            "ticks": 158,
            "time": 0.968135125,
            "value": 0
          }
        ],
        "5": [
          {
            "number": 5,
            "ticks": 161,
            "time": 0.9865174375,
            "value": 0
          }
        ],
        "6": [
          {
            "number": 6,
            "ticks": 146,
            "time": 0.894605875,
            "value": 0.12598425196850394
          },
          {
            "number": 6,
            "ticks": 148,
            "time": 0.9068607500000001,
            "value": 0.5590551181102362
          },
          {
            "number": 6,
            "ticks": 149,
            "time": 0.9129881875,
            "value": 0.5118110236220472
          },
          {
            "number": 6,
            "ticks": 150,
            "time": 0.9191156250000001,
            "value": 0.5118110236220472
          },
          {
            "number": 6,
            "ticks": 151,
            "time": 0.9252430625000001,
            "value": 0.5039370078740157
          }
        ],
        "7": [
          {
            "number": 7,
            "ticks": 155,
            "time": 0.9497528125,
            "value": 0.5905511811023622
          }
        ],
        "10": [
          {
            "number": 10,
            "ticks": 157,
            "time": 0.9620076875000001,
            "value": 0.5669291338582677
          }
        ],
        "11": [
          {
            "number": 11,
            "ticks": 156,
            "time": 0.9558802500000001,
            "value": 0.7874015748031497
          }
        ],
        "32": [
          {
            "number": 32,
            "ticks": 163,
            "time": 0.9987723125000001,
            "value": 0.015748031496062992
          }
        ],
        "64": [
          {
            "number": 64,
            "ticks": 159,
            "time": 0.9742625625000001,
            "value": 0
          }
        ],
        "65": [
          {
            "number": 65,
            "ticks": 160,
            "time": 0.9803900000000001,
            "value": 0
          }
        ],
        "91": [
          {
            "number": 91,
            "ticks": 140,
            "time": 0.85784125,
            "value": 0.3779527559055118
          }
        ],
        "93": [
          {
            "number": 93,
            "ticks": 141,
            "time": 0.8639686875,
            "value": 0.1889763779527559
          }
        ],
        "94": [
          {
            "number": 94,
            "ticks": 142,
            "time": 0.8700961250000001,
            "value": 0.47244094488188976
          }
        ],
        "98": [
          {
            "number": 98,
            "ticks": 149,
            "time": 0.9129881875,
            "value": 0.06299212598425197
          },
          {
            "number": 98,
            "ticks": 150,
            "time": 0.9191156250000001,
            "value": 0.07086614173228346
          },
          {
            "number": 98,
            "ticks": 151,
            "time": 0.9252430625000001,
            "value": 0.07874015748031496
          }
        ],
        "99": [
          {
            "number": 99,
            "ticks": 149,
            "time": 0.9129881875,
            "value": 0.007874015748031496
          },
          {
            "number": 99,
            "ticks": 150,
            "time": 0.9191156250000001,
            "value": 0.007874015748031496
          },
          {
            "number": 99,
            "ticks": 151,
            "time": 0.9252430625000001,
            "value": 0.007874015748031496
          }
        ],
        "100": [
          {
            "number": 100,
            "ticks": 144,
            "time": 0.8823510000000001,
            "value": 0
          },
          {
            "number": 100,
            "ticks": 148,
            "time": 0.9068607500000001,
            "value": 0.007874015748031496
          }
        ],
        "101": [
          {
            "number": 101,
            "ticks": 145,
            "time": 0.8884784375000001,
            "value": 0
          },
          {
            "number": 101,
            "ticks": 148,
            "time": 0.9068607500000001,
            "value": 0
          }
        ]
      },
      "pitchBends": [
        {
          "ticks": 147,
          "time": 0.9007333125000001,
          "value": 0
        }
      ],
      "instrument": {
        "family": "piano",
        "number": 0,
        "name": "acoustic grand piano"
      },
      "name": "LEAD\u0000",
      "notes": [],
      "endOfTrackTicks": 9912
    },
    {
      "channel": 1,
      "controlChanges": {
        "0": [
          {
            "number": 0,
            "ticks": 648,
            "time": 3.9705795000000004,
            "value": 1
          },
          {
            "number": 0,
            "ticks": 1320,
            "time": 8.0882175,
            "value": 1
          },
          {
            "number": 0,
            "ticks": 1992,
            "time": 12.2058555,
            "value": 1
          },
          {
            "number": 0,
            "ticks": 2664,
            "time": 16.3234935,
            "value": 1
          },
          {
            "number": 0,
            "ticks": 9480,
            "time": 58.08810750000001,
            "value": 1
          }
        ],
        "6": [
          {
            "number": 6,
            "ticks": 165,
            "time": 1.0110271875,
            "value": 1
          },
          {
            "number": 6,
            "ticks": 166,
            "time": 1.017154625,
            "value": 0.6299212598425197
          },
          {
            "number": 6,
            "ticks": 167,
            "time": 1.0232820625,
            "value": 0.47244094488188976
          },
          {
            "number": 6,
            "ticks": 168,
            "time": 1.0294095,
            "value": 0.5511811023622047
          },
          {
            "number": 6,
            "ticks": 169,
            "time": 1.0355369375,
            "value": 0.5511811023622047
          },
          {
            "number": 6,
            "ticks": 984,
            "time": 6.029398500000001,
            "value": 0.47244094488188976
          },
          {
            "number": 6,
            "ticks": 1656,
            "time": 10.1470365,
            "value": 0.47244094488188976
          },
          {
            "number": 6,
            "ticks": 2328,
            "time": 14.264674500000002,
            "value": 0.47244094488188976
          },
          {
            "number": 6,
            "ticks": 9012,
            "time": 55.22046675000001,
            "value": 0.5511811023622047
          },
          {
            "number": 6,
            "ticks": 9024,
            "time": 55.29399600000001,
            "value": 0.6299212598425197
          },
          {
            "number": 6,
            "ticks": 9816,
            "time": 60.146926500000006,
            "value": 0.47244094488188976
          }
        ],
        "7": [
          {
            "number": 7,
            "ticks": 648,
            "time": 3.9705795000000004,
            "value": 0.7244094488188977
          },
          {
            "number": 7,
            "ticks": 1320,
            "time": 8.0882175,
            "value": 0.7244094488188977
          },
          {
            "number": 7,
            "ticks": 1992,
            "time": 12.2058555,
            "value": 0.7244094488188977
          },
          {
            "number": 7,
            "ticks": 2664,
            "time": 16.3234935,
            "value": 0.7244094488188977
          },
          {
            "number": 7,
            "ticks": 9192,
            "time": 56.32340550000001,
            "value": 0.5905511811023622
          },
          {
            "number": 7,
            "ticks": 9240,
            "time": 56.61752250000001,
            "value": 0.5511811023622047
          },
          {
            "number": 7,
            "ticks": 9288,
            "time": 56.91163950000001,
            "value": 0.5118110236220472
          },
          {
            "number": 7,
            "ticks": 9336,
            "time": 57.20575650000001,
            "value": 0.47244094488188976
          },
          {
            "number": 7,
            "ticks": 9384,
            "time": 57.49987350000001,
            "value": 0.4409448818897638
          },
          {
            "number": 7,
            "ticks": 9432,
            "time": 57.79399050000001,
            "value": 0.4015748031496063
          },
          {
            "number": 7,
            "ticks": 9480,
            "time": 58.08810750000001,
            "value": 0.36220472440944884
          },
          {
            "number": 7,
            "ticks": 9480,
            "time": 58.08810750000001,
            "value": 0.4015748031496063
          },
          {
            "number": 7,
            "ticks": 9864,
            "time": 60.441043500000006,
            "value": 0.07086614173228346
          },
          {
            "number": 7,
            "ticks": 9912,
            "time": 60.735160500000006,
            "value": 0.031496062992125984
          }
        ],
        "10": [
          {
            "number": 10,
            "ticks": 312,
            "time": 1.9117605000000002,
            "value": 0.25196850393700787
          },
          {
            "number": 10,
            "ticks": 384,
            "time": 2.352936,
            "value": 0.5039370078740157
          },
          {
            "number": 10,
            "ticks": 432,
            "time": 2.6470530000000005,
            "value": 0.7559055118110236
          },
          {
            "number": 10,
            "ticks": 984,
            "time": 6.029398500000001,
            "value": 0.25196850393700787
          },
          {
            "number": 10,
            "ticks": 1056,
            "time": 6.470574000000001,
            "value": 0.5039370078740157
          },
          {
            "number": 10,
            "ticks": 1104,
            "time": 6.764691000000001,
            "value": 0.7559055118110236
          },
          {
            "number": 10,
            "ticks": 1656,
            "time": 10.1470365,
            "value": 0.25196850393700787
          },
          {
            "number": 10,
            "ticks": 1728,
            "time": 10.588212,
            "value": 0.5039370078740157
          },
          {
            "number": 10,
            "ticks": 1776,
            "time": 10.882329,
            "value": 0.7559055118110236
          },
          {
            "number": 10,
            "ticks": 2328,
            "time": 14.264674500000002,
            "value": 0.25196850393700787
          },
          {
            "number": 10,
            "ticks": 2400,
            "time": 14.705850000000002,
            "value": 0.5039370078740157
          },
          {
            "number": 10,
            "ticks": 2448,
            "time": 14.999967000000002,
            "value": 0.7559055118110236
          },
          {
            "number": 10,
            "ticks": 9144,
            "time": 56.02928850000001,
            "value": 0.25196850393700787
          },
          {
            "number": 10,
            "ticks": 9216,
            "time": 56.47046400000001,
            "value": 0.5039370078740157
          },
          {
            "number": 10,
            "ticks": 9264,
            "time": 56.76458100000001,
            "value": 0.7559055118110236
          },
          {
            "number": 10,
            "ticks": 9816,
            "time": 60.146926500000006,
            "value": 0.25196850393700787
          },
          {
            "number": 10,
            "ticks": 9888,
            "time": 60.588102000000006,
            "value": 0.5039370078740157
          }
        ],
        "32": [
          {
            "number": 32,
            "ticks": 648,
            "time": 3.9705795000000004,
            "value": 0.007874015748031496
          },
          {
            "number": 32,
            "ticks": 1320,
            "time": 8.0882175,
            "value": 0.007874015748031496
          },
          {
            "number": 32,
            "ticks": 1992,
            "time": 12.2058555,
            "value": 0.007874015748031496
          },
          {
            "number": 32,
            "ticks": 2664,
            "time": 16.3234935,
            "value": 0.007874015748031496
          },
          {
            "number": 32,
            "ticks": 9480,
            "time": 58.08810750000001,
            "value": 0.007874015748031496
          }
        ],
        "98": [
          {
            "number": 98,
            "ticks": 165,
            "time": 1.0110271875,
            "value": 0.25196850393700787
          },
          {
            "number": 98,
            "ticks": 166,
            "time": 1.017154625,
            "value": 0.25984251968503935
          },
          {
            "number": 98,
            "ticks": 167,
            "time": 1.0232820625,
            "value": 0.7795275590551181
          },
          {
            "number": 98,
            "ticks": 168,
            "time": 1.0294095,
            "value": 0.7874015748031497
          },
          {
            "number": 98,
            "ticks": 169,
            "time": 1.0355369375,
            "value": 0.8031496062992126
          },
          {
            "number": 98,
            "ticks": 9012,
            "time": 55.22046675000001,
            "value": 0.7874015748031497
          },
          {
            "number": 98,
            "ticks": 9024,
            "time": 55.29399600000001,
            "value": 0.25984251968503935
          }
        ],
        "99": [
          {
            "number": 99,
            "ticks": 165,
            "time": 1.0110271875,
            "value": 0.007874015748031496
          },
          {
            "number": 99,
            "ticks": 166,
            "time": 1.017154625,
            "value": 0.007874015748031496
          },
          {
            "number": 99,
            "ticks": 167,
            "time": 1.0232820625,
            "value": 0.007874015748031496
          },
          {
            "number": 99,
            "ticks": 168,
            "time": 1.0294095,
            "value": 0.007874015748031496
          },
          {
            "number": 99,
            "ticks": 169,
            "time": 1.0355369375,
            "value": 0.007874015748031496
          },
          {
            "number": 99,
            "ticks": 9012,
            "time": 55.22046675000001,
            "value": 0.007874015748031496
          },
          {
            "number": 99,
            "ticks": 9024,
            "time": 55.29399600000001,
            "value": 0.007874015748031496
          }
        ]
      },
      "pitchBends": [
        {
          "ticks": 9048,
          "time": 55.44105450000001,
          "value": 0
        }
      ],
      "instrument": {
        "family": "ensemble",
        "number": 50,
        "name": "synthstrings 1"
      },
      "name": "",
      "notes": [
        {
          "duration": 0.09803899999999999,
          "durationTicks": 16,
          "midi": 78,
          "name": "F#5",
          "ticks": 312,
          "time": 1.9117605000000002,
          "velocity": 1
        },
        {
          "duration": 0.09803899999999999,
          "durationTicks": 16,
          "midi": 78,
          "name": "F#5",
          "ticks": 336,
          "time": 2.058819,
          "velocity": 1
        },
        {
          "duration": 0.09803899999999999,
          "durationTicks": 16,
          "midi": 78,
          "name": "F#5",
          "ticks": 384,
          "time": 2.352936,
          "velocity": 1
        },
        {
          "duration": 0.09803899999999954,
          "durationTicks": 16,
          "midi": 78,
          "name": "F#5",
          "ticks": 432,
          "time": 2.6470530000000005,
          "velocity": 1
        },
        {
          "duration": 0.09803899999999999,
          "durationTicks": 16,
          "midi": 78,
          "name": "F#5",
          "ticks": 456,
          "time": 2.7941115000000005,
          "velocity": 1
        },
        {
          "duration": 0.09803899999999999,
          "durationTicks": 16,
          "midi": 78,
          "name": "F#5",
          "ticks": 504,
          "time": 3.0882285000000005,
          "velocity": 0.5511811023622047
        },
        {
          "duration": 0.09803899999999999,
          "durationTicks": 16,
          "midi": 78,
          "name": "F#5",
          "ticks": 552,
          "time": 3.3823455000000004,
          "velocity": 0.47244094488188976
        },
        {
          "duration": 0.09803899999999999,
          "durationTicks": 16,
          "midi": 78,
          "name": "F#5",
          "ticks": 600,
          "time": 3.6764625000000004,
          "velocity": 0.3937007874015748
        },
        {
          "duration": 0.09803899999999999,
          "durationTicks": 16,
          "midi": 78,
          "name": "F#5",
          "ticks": 984,
          "time": 6.029398500000001,
          "velocity": 1
        },
        {
          "duration": 0.09803899999999999,
          "durationTicks": 16,
          "midi": 78,
          "name": "F#5",
          "ticks": 1008,
          "time": 6.176457000000001,
          "velocity": 1
        },
        {
          "duration": 0.09803899999999999,
          "durationTicks": 16,
          "midi": 78,
          "name": "F#5",
          "ticks": 1056,
          "time": 6.470574000000001,
          "velocity": 1
        },
        {
          "duration": 0.09803899999999999,
          "durationTicks": 16,
          "midi": 78,
          "name": "F#5",
          "ticks": 1104,
          "time": 6.764691000000001,
          "velocity": 1
        },
        {
          "duration": 0.09803899999999999,
          "durationTicks": 16,
          "midi": 78,
          "name": "F#5",
          "ticks": 1128,
          "time": 6.911749500000001,
          "velocity": 1
        },
        {
          "duration": 0.09803899999999999,
          "durationTicks": 16,
          "midi": 78,
          "name": "F#5",
          "ticks": 1176,
          "time": 7.205866500000001,
          "velocity": 0.5511811023622047
        },
        {
          "duration": 0.09803899999999999,
          "durationTicks": 16,
          "midi": 78,
          "name": "F#5",
          "ticks": 1224,
          "time": 7.499983500000001,
          "velocity": 0.47244094488188976
        },
        {
          "duration": 0.09803899999999999,
          "durationTicks": 16,
          "midi": 78,
          "name": "F#5",
          "ticks": 1272,
          "time": 7.794100500000001,
          "velocity": 0.3937007874015748
        },
        {
          "duration": 0.09803899999999999,
          "durationTicks": 16,
          "midi": 78,
          "name": "F#5",
          "ticks": 1656,
          "time": 10.1470365,
          "velocity": 1
        },
        {
          "duration": 0.09803899999999999,
          "durationTicks": 16,
          "midi": 78,
          "name": "F#5",
          "ticks": 1680,
          "time": 10.294095,
          "velocity": 1
        },
        {
          "duration": 0.09803899999999999,
          "durationTicks": 16,
          "midi": 78,
          "name": "F#5",
          "ticks": 1728,
          "time": 10.588212,
          "velocity": 1
        },
        {
          "duration": 0.09803899999999999,
          "durationTicks": 16,
          "midi": 78,
          "name": "F#5",
          "ticks": 1776,
          "time": 10.882329,
          "velocity": 1
        },
        {
          "duration": 0.09803899999999999,
          "durationTicks": 16,
          "midi": 78,
          "name": "F#5",
          "ticks": 1800,
          "time": 11.0293875,
          "velocity": 1
        },
        {
          "duration": 0.09803899999999999,
          "durationTicks": 16,
          "midi": 78,
          "name": "F#5",
          "ticks": 1848,
          "time": 11.3235045,
          "velocity": 0.5511811023622047
        },
        {
          "duration": 0.09803899999999999,
          "durationTicks": 16,
          "midi": 78,
          "name": "F#5",
          "ticks": 1896,
          "time": 11.6176215,
          "velocity": 0.47244094488188976
        },
        {
          "duration": 0.09803899999999999,
          "durationTicks": 16,
          "midi": 78,
          "name": "F#5",
          "ticks": 1944,
          "time": 11.9117385,
          "velocity": 0.3937007874015748
        },
        {
          "duration": 0.09803899999999821,
          "durationTicks": 16,
          "midi": 78,
          "name": "F#5",
          "ticks": 2328,
          "time": 14.264674500000002,
          "velocity": 1
        },
        {
          "duration": 0.09803899999999821,
          "durationTicks": 16,
          "midi": 78,
          "name": "F#5",
          "ticks": 2352,
          "time": 14.411733000000002,
          "velocity": 1
        },
        {
          "duration": 0.09803899999999821,
          "durationTicks": 16,
          "midi": 78,
          "name": "F#5",
          "ticks": 2400,
          "time": 14.705850000000002,
          "velocity": 1
        },
        {
          "duration": 0.09803899999999821,
          "durationTicks": 16,
          "midi": 78,
          "name": "F#5",
          "ticks": 2448,
          "time": 14.999967000000002,
          "velocity": 1
        },
        {
          "duration": 0.09803899999999821,
          "durationTicks": 16,
          "midi": 78,
          "name": "F#5",
          "ticks": 2472,
          "time": 15.147025500000002,
          "velocity": 1
        },
        {
          "duration": 0.09803899999999821,
          "durationTicks": 16,
          "midi": 78,
          "name": "F#5",
          "ticks": 2520,
          "time": 15.441142500000002,
          "velocity": 0.5511811023622047
        },
        {
          "duration": 0.09803899999999821,
          "durationTicks": 16,
          "midi": 78,
          "name": "F#5",
          "ticks": 2568,
          "time": 15.735259500000002,
          "velocity": 0.47244094488188976
        },
        {
          "duration": 0.09803899999999999,
          "durationTicks": 16,
          "midi": 78,
          "name": "F#5",
          "ticks": 2616,
          "time": 16.0293765,
          "velocity": 0.3937007874015748
        },
        {
          "duration": 0.09803899999999288,
          "durationTicks": 16,
          "midi": 78,
          "name": "F#5",
          "ticks": 9144,
          "time": 56.02928850000001,
          "velocity": 1
        },
        {
          "duration": 0.09803899999999288,
          "durationTicks": 16,
          "midi": 78,
          "name": "F#5",
          "ticks": 9168,
          "time": 56.17634700000001,
          "velocity": 1
        },
        {
          "duration": 0.09803899999999288,
          "durationTicks": 16,
          "midi": 78,
          "name": "F#5",
          "ticks": 9216,
          "time": 56.47046400000001,
          "velocity": 1
        },
        {
          "duration": 0.09803899999999288,
          "durationTicks": 16,
          "midi": 78,
          "name": "F#5",
          "ticks": 9264,
          "time": 56.76458100000001,
          "velocity": 1
        },
        {
          "duration": 0.09803899999999288,
          "durationTicks": 16,
          "midi": 78,
          "name": "F#5",
          "ticks": 9288,
          "time": 56.91163950000001,
          "velocity": 1
        },
        {
          "duration": 0.09803899999999288,
          "durationTicks": 16,
          "midi": 78,
          "name": "F#5",
          "ticks": 9336,
          "time": 57.20575650000001,
          "velocity": 0.5511811023622047
        },
        {
          "duration": 0.09803899999999288,
          "durationTicks": 16,
          "midi": 78,
          "name": "F#5",
          "ticks": 9384,
          "time": 57.49987350000001,
          "velocity": 0.47244094488188976
        },
        {
          "duration": 0.09803899999999288,
          "durationTicks": 16,
          "midi": 78,
          "name": "F#5",
          "ticks": 9432,
          "time": 57.79399050000001,
          "velocity": 0.3937007874015748
        },
        {
          "duration": 0.09803899999999288,
          "durationTicks": 16,
          "midi": 78,
          "name": "F#5",
          "ticks": 9816,
          "time": 60.146926500000006,
          "velocity": 1
        },
        {
          "duration": 0.09803899999999288,
          "durationTicks": 16,
          "midi": 78,
          "name": "F#5",
          "ticks": 9840,
          "time": 60.293985000000006,
          "velocity": 1
        },
        {
          "duration": 0.09803899999999288,
          "durationTicks": 16,
          "midi": 78,
          "name": "F#5",
          "ticks": 9888,
          "time": 60.588102000000006,
          "velocity": 1
        }
      ]
    },
    {
      "channel": 1,
      "controlChanges": {
        "0": [
          {
            "number": 0,
            "ticks": 984,
            "time": 6.029398500000001,
            "value": 0.06299212598425197
          },
          {
            "number": 0,
            "ticks": 1656,
            "time": 10.1470365,
            "value": 0.06299212598425197
          },
          {
            "number": 0,
            "ticks": 2328,
            "time": 14.264674500000002,
            "value": 0.06299212598425197
          },
          {
            "number": 0,
            "ticks": 8988,
            "time": 55.07340825000001,
            "value": 0.06299212598425197
          },
          {
            "number": 0,
            "ticks": 9816,
            "time": 60.146926500000006,
            "value": 0.06299212598425197
          }
        ],
        "1": [
          {
            "number": 1,
            "ticks": 8976,
            "time": 54.99987900000001,
            "value": 0
          }
        ],
        "6": [
          {
            "number": 6,
            "ticks": 648,
            "time": 3.9705795000000004,
            "value": 0.5118110236220472
          },
          {
            "number": 6,
            "ticks": 1320,
            "time": 8.0882175,
            "value": 0.5118110236220472
          },
          {
            "number": 6,
            "ticks": 1992,
            "time": 12.2058555,
            "value": 0.5118110236220472
          },
          {
            "number": 6,
            "ticks": 2664,
            "time": 16.3234935,
            "value": 0.5118110236220472
          },
          {
            "number": 6,
            "ticks": 9480,
            "time": 58.08810750000001,
            "value": 0.5118110236220472
          }
        ],
        "7": [
          {
            "number": 7,
            "ticks": 984,
            "time": 6.029398500000001,
            "value": 0.5905511811023622
          },
          {
            "number": 7,
            "ticks": 1656,
            "time": 10.1470365,
            "value": 0.5905511811023622
          },
          {
            "number": 7,
            "ticks": 2328,
            "time": 14.264674500000002,
            "value": 0.5905511811023622
          },
          {
            "number": 7,
            "ticks": 8964,
            "time": 54.92634975000001,
            "value": 0.5905511811023622
          },
          {
            "number": 7,
            "ticks": 9528,
            "time": 58.38222450000001,
            "value": 0.4015748031496063
          },
          {
            "number": 7,
            "ticks": 9576,
            "time": 58.67634150000001,
            "value": 0.36220472440944884
          },
          {
            "number": 7,
            "ticks": 9624,
            "time": 58.97045850000001,
            "value": 0.31496062992125984
          },
          {
            "number": 7,
            "ticks": 9672,
            "time": 59.26457550000001,
            "value": 0.2677165354330709
          },
          {
            "number": 7,
            "ticks": 9720,
            "time": 59.55869250000001,
            "value": 0.2204724409448819
          },
          {
            "number": 7,
            "ticks": 9768,
            "time": 59.852809500000006,
            "value": 0.18110236220472442
          },
          {
            "number": 7,
            "ticks": 9816,
            "time": 60.146926500000006,
            "value": 0.13385826771653545
          },
          {
            "number": 7,
            "ticks": 9816,
            "time": 60.146926500000006,
            "value": 0.07086614173228346
          }
        ],
        "10": [
          {
            "number": 10,
            "ticks": 648,
            "time": 3.9705795000000004,
            "value": 0.5039370078740157
          },
          {
            "number": 10,
            "ticks": 1320,
            "time": 8.0882175,
            "value": 0.5039370078740157
          },
          {
            "number": 10,
            "ticks": 1992,
            "time": 12.2058555,
            "value": 0.5039370078740157
          },
          {
            "number": 10,
            "ticks": 2664,
            "time": 16.3234935,
            "value": 0.5039370078740157
          },
          {
            "number": 10,
            "ticks": 9480,
            "time": 58.08810750000001,
            "value": 0.5039370078740157
          }
        ],
        "11": [
          {
            "number": 11,
            "ticks": 8952,
            "time": 54.85282050000001,
            "value": 0.7874015748031497
          },
          {
            "number": 11,
            "ticks": 8964,
            "time": 54.92634975000001,
            "value": 0.7874015748031497
          }
        ],
        "32": [
          {
            "number": 32,
            "ticks": 984,
            "time": 6.029398500000001,
            "value": 0.015748031496062992
          },
          {
            "number": 32,
            "ticks": 1656,
            "time": 10.1470365,
            "value": 0.015748031496062992
          },
          {
            "number": 32,
            "ticks": 2328,
            "time": 14.264674500000002,
            "value": 0.015748031496062992
          },
          {
            "number": 32,
            "ticks": 8988,
            "time": 55.07340825000001,
            "value": 0.015748031496062992
          },
          {
            "number": 32,
            "ticks": 9816,
            "time": 60.146926500000006,
            "value": 0.015748031496062992
          }
        ],
        "93": [
          {
            "number": 93,
            "ticks": 8976,
            "time": 54.99987900000001,
            "value": 0.1889763779527559
          }
        ],
        "94": [
          {
            "number": 94,
            "ticks": 8964,
            "time": 54.92634975000001,
            "value": 0.47244094488188976
          }
        ],
        "98": [
          {
            "number": 98,
            "ticks": 648,
            "time": 3.9705795000000004,
            "value": 0.7795275590551181
          },
          {
            "number": 98,
            "ticks": 1320,
            "time": 8.0882175,
            "value": 0.7795275590551181
          },
          {
            "number": 98,
            "ticks": 1992,
            "time": 12.2058555,
            "value": 0.7795275590551181
          },
          {
            "number": 98,
            "ticks": 2664,
            "time": 16.3234935,
            "value": 0.7795275590551181
          },
          {
            "number": 98,
            "ticks": 9480,
            "time": 58.08810750000001,
            "value": 0.7795275590551181
          }
        ],
        "99": [
          {
            "number": 99,
            "ticks": 648,
            "time": 3.9705795000000004,
            "value": 0.007874015748031496
          },
          {
            "number": 99,
            "ticks": 1320,
            "time": 8.0882175,
            "value": 0.007874015748031496
          },
          {
            "number": 99,
            "ticks": 1992,
            "time": 12.2058555,
            "value": 0.007874015748031496
          },
          {
            "number": 99,
            "ticks": 2664,
            "time": 16.3234935,
            "value": 0.007874015748031496
          },
          {
            "number": 99,
            "ticks": 9480,
            "time": 58.08810750000001,
            "value": 0.007874015748031496
          }
        ]
      },
      "pitchBends": [],
      "instrument": {
        "family": "guitar",
        "number": 29,
        "name": "overdriven guitar"
      },
      "name": "",
      "notes": [
        {
          "duration": 0.39215599999999995,
          "durationTicks": 64,
          "midi": 66,
          "name": "F#4",
          "ticks": 648,
          "time": 3.9705795000000004,
          "velocity": 1
        },
        {
          "duration": 0.39215599999999995,
          "durationTicks": 64,
          "midi": 73,
          "name": "C#5",
          "ticks": 720,
          "time": 4.411755,
          "velocity": 1
        },
        {
          "duration": 0.24509749999999908,
          "durationTicks": 40,
          "midi": 83,
          "name": "B5",
          "ticks": 792,
          "time": 4.852930500000001,
          "velocity": 1
        },
        {
          "duration": 0.24509749999999908,
          "durationTicks": 40,
          "midi": 82,
          "name": "A#5",
          "ticks": 840,
          "time": 5.147047500000001,
          "velocity": 1
        },
        {
          "duration": 0.24509749999999908,
          "durationTicks": 40,
          "midi": 78,
          "name": "F#5",
          "ticks": 888,
          "time": 5.441164500000001,
          "velocity": 1
        },
        {
          "duration": 0.24509749999999997,
          "durationTicks": 40,
          "midi": 80,
          "name": "G#5",
          "ticks": 936,
          "time": 5.735281500000001,
          "velocity": 1
        },
        {
          "duration": 0.39215599999999995,
          "durationTicks": 64,
          "midi": 66,
          "name": "F#4",
          "ticks": 1320,
          "time": 8.0882175,
          "velocity": 1
        },
        {
          "duration": 0.39215599999999995,
          "durationTicks": 64,
          "midi": 73,
          "name": "C#5",
          "ticks": 1392,
          "time": 8.529393,
          "velocity": 1
        },
        {
          "duration": 0.24509749999999997,
          "durationTicks": 40,
          "midi": 83,
          "name": "B5",
          "ticks": 1464,
          "time": 8.9705685,
          "velocity": 1
        },
        {
          "duration": 0.24509749999999997,
          "durationTicks": 40,
          "midi": 82,
          "name": "A#5",
          "ticks": 1512,
          "time": 9.2646855,
          "velocity": 1
        },
        {
          "duration": 0.24509749999999997,
          "durationTicks": 40,
          "midi": 78,
          "name": "F#5",
          "ticks": 1560,
          "time": 9.5588025,
          "velocity": 1
        },
        {
          "duration": 0.24509749999999997,
          "durationTicks": 40,
          "midi": 80,
          "name": "G#5",
          "ticks": 1608,
          "time": 9.8529195,
          "velocity": 1
        },
        {
          "duration": 0.39215599999999995,
          "durationTicks": 64,
          "midi": 66,
          "name": "F#4",
          "ticks": 1992,
          "time": 12.2058555,
          "velocity": 1
        },
        {
          "duration": 0.3921559999999982,
          "durationTicks": 64,
          "midi": 73,
          "name": "C#5",
          "ticks": 2064,
          "time": 12.647031000000002,
          "velocity": 1
        },
        {
          "duration": 0.2450974999999982,
          "durationTicks": 40,
          "midi": 83,
          "name": "B5",
          "ticks": 2136,
          "time": 13.088206500000002,
          "velocity": 1
        },
        {
          "duration": 0.2450974999999982,
          "durationTicks": 40,
          "midi": 82,
          "name": "A#5",
          "ticks": 2184,
          "time": 13.382323500000002,
          "velocity": 1
        },
        {
          "duration": 0.2450974999999982,
          "durationTicks": 40,
          "midi": 78,
          "name": "F#5",
          "ticks": 2232,
          "time": 13.676440500000002,
          "velocity": 1
        },
        {
          "duration": 0.2450974999999982,
          "durationTicks": 40,
          "midi": 80,
          "name": "G#5",
          "ticks": 2280,
          "time": 13.970557500000002,
          "velocity": 1
        },
        {
          "duration": 0.39215599999999995,
          "durationTicks": 64,
          "midi": 66,
          "name": "F#4",
          "ticks": 2664,
          "time": 16.3234935,
          "velocity": 1
        },
        {
          "duration": 0.39215599999999995,
          "durationTicks": 64,
          "midi": 73,
          "name": "C#5",
          "ticks": 2736,
          "time": 16.764669,
          "velocity": 1
        },
        {
          "duration": 0.24509749999999997,
          "durationTicks": 40,
          "midi": 83,
          "name": "B5",
          "ticks": 2808,
          "time": 17.2058445,
          "velocity": 1
        },
        {
          "duration": 0.24509749999999997,
          "durationTicks": 40,
          "midi": 82,
          "name": "A#5",
          "ticks": 2856,
          "time": 17.4999615,
          "velocity": 1
        },
        {
          "duration": 0.24509749999999997,
          "durationTicks": 40,
          "midi": 78,
          "name": "F#5",
          "ticks": 2904,
          "time": 17.7940785,
          "velocity": 1
        },
        {
          "duration": 0.24509749999999997,
          "durationTicks": 40,
          "midi": 80,
          "name": "G#5",
          "ticks": 2952,
          "time": 18.0881955,
          "velocity": 1
        },
        {
          "duration": 0.39215599999999284,
          "durationTicks": 64,
          "midi": 66,
          "name": "F#4",
          "ticks": 9480,
          "time": 58.08810750000001,
          "velocity": 1
        },
        {
          "duration": 0.39215599999999284,
          "durationTicks": 64,
          "midi": 73,
          "name": "C#5",
          "ticks": 9552,
          "time": 58.52928300000001,
          "velocity": 1
        },
        {
          "duration": 0.24509749999999286,
          "durationTicks": 40,
          "midi": 83,
          "name": "B5",
          "ticks": 9624,
          "time": 58.97045850000001,
          "velocity": 1
        },
        {
          "duration": 0.24509749999999286,
          "durationTicks": 40,
          "midi": 82,
          "name": "A#5",
          "ticks": 9672,
          "time": 59.26457550000001,
          "velocity": 1
        },
        {
          "duration": 0.24509749999999286,
          "durationTicks": 40,
          "midi": 78,
          "name": "F#5",
          "ticks": 9720,
          "time": 59.55869250000001,
          "velocity": 1
        },
        {
          "duration": 0.24509749999999286,
          "durationTicks": 40,
          "midi": 80,
          "name": "G#5",
          "ticks": 9768,
          "time": 59.852809500000006,
          "velocity": 1
        }
      ]
    },
    {
      "channel": 0,
      "controlChanges": {
        "0": [
          {
            "number": 0,
            "ticks": 172,
            "time": 1.05391925,
            "value": 1
          }
        ],
        "1": [
          {
            "number": 1,
            "ticks": 168,
            "time": 1.0294095,
            "value": 0
          }
        ],
        "5": [
          {
            "number": 5,
            "ticks": 171,
            "time": 1.0477918125,
            "value": 0
          }
        ],
        "6": [
          {
            "number": 6,
            "ticks": 156,
            "time": 0.9558802500000001,
            "value": 0.12598425196850394
          },
          {
            "number": 6,
            "ticks": 158,
            "time": 0.968135125,
            "value": 0.44881889763779526
          },
          {
            "number": 6,
            "ticks": 159,
            "time": 0.9742625625000001,
            "value": 0.5118110236220472
          },
          {
            "number": 6,
            "ticks": 160,
            "time": 0.9803900000000001,
            "value": 0.5118110236220472
          },
          {
            "number": 6,
            "ticks": 161,
            "time": 0.9865174375,
            "value": 0.5039370078740157
          }
        ],
        "7": [
          {
            "number": 7,
            "ticks": 165,
            "time": 1.0110271875,
            "value": 0.7874015748031497
          }
        ],
        "10": [
          {
            "number": 10,
            "ticks": 167,
            "time": 1.0232820625,
            "value": 0.5669291338582677
          }
        ],
        "11": [
          {
            "number": 11,
            "ticks": 166,
            "time": 1.017154625,
            "value": 0.7874015748031497
          }
        ],
        "32": [
          {
            "number": 32,
            "ticks": 173,
            "time": 1.0600466875,
            "value": 0.007874015748031496
          }
        ],
        "64": [
          {
            "number": 64,
            "ticks": 169,
            "time": 1.0355369375,
            "value": 0
          }
        ],
        "65": [
          {
            "number": 65,
            "ticks": 170,
            "time": 1.041664375,
            "value": 0
          }
        ],
        "91": [
          {
            "number": 91,
            "ticks": 150,
            "time": 0.9191156250000001,
            "value": 0.3779527559055118
          }
        ],
        "93": [
          {
            "number": 93,
            "ticks": 151,
            "time": 0.9252430625000001,
            "value": 0.1889763779527559
          }
        ],
        "94": [
          {
            "number": 94,
            "ticks": 152,
            "time": 0.9313705,
            "value": 0.47244094488188976
          }
        ],
        "98": [
          {
            "number": 98,
            "ticks": 159,
            "time": 0.9742625625000001,
            "value": 0.06299212598425197
          },
          {
            "number": 98,
            "ticks": 160,
            "time": 0.9803900000000001,
            "value": 0.07086614173228346
          },
          {
            "number": 98,
            "ticks": 161,
            "time": 0.9865174375,
            "value": 0.07874015748031496
          }
        ],
        "99": [
          {
            "number": 99,
            "ticks": 159,
            "time": 0.9742625625000001,
            "value": 0.007874015748031496
          },
          {
            "number": 99,
            "ticks": 160,
            "time": 0.9803900000000001,
            "value": 0.007874015748031496
          },
          {
            "number": 99,
            "ticks": 161,
            "time": 0.9865174375,
            "value": 0.007874015748031496
          }
        ],
        "100": [
          {
            "number": 100,
            "ticks": 154,
            "time": 0.9436253750000001,
            "value": 0
          },
          {
            "number": 100,
            "ticks": 158,
            "time": 0.968135125,
            "value": 0.007874015748031496
          }
        ],
        "101": [
          {
            "number": 101,
            "ticks": 155,
            "time": 0.9497528125,
            "value": 0
          },
          {
            "number": 101,
            "ticks": 158,
            "time": 0.968135125,
            "value": 0
          }
        ]
      },
      "pitchBends": [
        {
          "ticks": 157,
          "time": 0.9620076875000001,
          "value": 0
        }
      ],
      "instrument": {
        "family": "piano",
        "number": 0,
        "name": "acoustic grand piano"
      },
      "name": "LEAD'\u0000",
      "notes": [],
      "endOfTrackTicks": 9912
    },
    {
      "channel": 2,
      "controlChanges": {
        "0": [
          {
            "number": 0,
            "ticks": 648,
            "time": 3.9705795000000004,
            "value": 1
          },
          {
            "number": 0,
            "ticks": 1320,
            "time": 8.0882175,
            "value": 1
          },
          {
            "number": 0,
            "ticks": 1992,
            "time": 12.2058555,
            "value": 1
          },
          {
            "number": 0,
            "ticks": 2664,
            "time": 16.3234935,
            "value": 1
          },
          {
            "number": 0,
            "ticks": 9480,
            "time": 58.08810750000001,
            "value": 1
          }
        ],
        "6": [
          {
            "number": 6,
            "ticks": 175,
            "time": 1.0723015625,
            "value": 1
          },
          {
            "number": 6,
            "ticks": 176,
            "time": 1.078429,
            "value": 0.6299212598425197
          },
          {
            "number": 6,
            "ticks": 177,
            "time": 1.0845564375,
            "value": 0.47244094488188976
          },
          {
            "number": 6,
            "ticks": 178,
            "time": 1.090683875,
            "value": 0.5511811023622047
          },
          {
            "number": 6,
            "ticks": 179,
            "time": 1.0968113125,
            "value": 0.5511811023622047
          },
          {
            "number": 6,
            "ticks": 984,
            "time": 6.029398500000001,
            "value": 0.47244094488188976
          },
          {
            "number": 6,
            "ticks": 1656,
            "time": 10.1470365,
            "value": 0.47244094488188976
          },
          {
            "number": 6,
            "ticks": 2328,
            "time": 14.264674500000002,
            "value": 0.47244094488188976
          },
          {
            "number": 6,
            "ticks": 8988,
            "time": 55.07340825000001,
            "value": 0.47244094488188976
          },
          {
            "number": 6,
            "ticks": 9816,
            "time": 60.146926500000006,
            "value": 0.47244094488188976
          }
        ],
        "7": [
          {
            "number": 7,
            "ticks": 648,
            "time": 3.9705795000000004,
            "value": 0.7244094488188977
          },
          {
            "number": 7,
            "ticks": 1320,
            "time": 8.0882175,
            "value": 0.7244094488188977
          },
          {
            "number": 7,
            "ticks": 1992,
            "time": 12.2058555,
            "value": 0.7244094488188977
          },
          {
            "number": 7,
            "ticks": 2664,
            "time": 16.3234935,
            "value": 0.7244094488188977
          },
          {
            "number": 7,
            "ticks": 9192,
            "time": 56.32340550000001,
            "value": 0.7874015748031497
          },
          {
            "number": 7,
            "ticks": 9240,
            "time": 56.61752250000001,
            "value": 0.7322834645669292
          },
          {
            "number": 7,
            "ticks": 9288,
            "time": 56.91163950000001,
            "value": 0.6850393700787402
          },
          {
            "number": 7,
            "ticks": 9336,
            "time": 57.20575650000001,
            "value": 0.6377952755905512
          },
          {
            "number": 7,
            "ticks": 9384,
            "time": 57.49987350000001,
            "value": 0.5905511811023622
          },
          {
            "number": 7,
            "ticks": 9432,
            "time": 57.79399050000001,
            "value": 0.5354330708661418
          },
          {
            "number": 7,
            "ticks": 9480,
            "time": 58.08810750000001,
            "value": 0.4881889763779528
          },
          {
            "number": 7,
            "ticks": 9480,
            "time": 58.08810750000001,
            "value": 0.4015748031496063
          },
          {
            "number": 7,
            "ticks": 9864,
            "time": 60.441043500000006,
            "value": 0.09448818897637795
          },
          {
            "number": 7,
            "ticks": 9912,
            "time": 60.735160500000006,
            "value": 0.047244094488188976
          }
        ],
        "10": [
          {
            "number": 10,
            "ticks": 312,
            "time": 1.9117605000000002,
            "value": 0.25196850393700787
          },
          {
            "number": 10,
            "ticks": 384,
            "time": 2.352936,
            "value": 0.5039370078740157
          },
          {
            "number": 10,
            "ticks": 432,
            "time": 2.6470530000000005,
            "value": 0.7559055118110236
          },
          {
            "number": 10,
            "ticks": 984,
            "time": 6.029398500000001,
            "value": 0.25196850393700787
          },
          {
            "number": 10,
            "ticks": 1056,
            "time": 6.470574000000001,
            "value": 0.5039370078740157
          },
          {
            "number": 10,
            "ticks": 1104,
            "time": 6.764691000000001,
            "value": 0.7559055118110236
          },
          {
            "number": 10,
            "ticks": 1656,
            "time": 10.1470365,
            "value": 0.25196850393700787
          },
          {
            "number": 10,
            "ticks": 1728,
            "time": 10.588212,
            "value": 0.5039370078740157
          },
          {
            "number": 10,
            "ticks": 1776,
            "time": 10.882329,
            "value": 0.7559055118110236
          },
          {
            "number": 10,
            "ticks": 2328,
            "time": 14.264674500000002,
            "value": 0.25196850393700787
          },
          {
            "number": 10,
            "ticks": 2400,
            "time": 14.705850000000002,
            "value": 0.5039370078740157
          },
          {
            "number": 10,
            "ticks": 2448,
            "time": 14.999967000000002,
            "value": 0.7559055118110236
          },
          {
            "number": 10,
            "ticks": 8988,
            "time": 55.07340825000001,
            "value": 0.25196850393700787
          },
          {
            "number": 10,
            "ticks": 9144,
            "time": 56.02928850000001,
            "value": 0.25196850393700787
          },
          {
            "number": 10,
            "ticks": 9216,
            "time": 56.47046400000001,
            "value": 0.5039370078740157
          },
          {
            "number": 10,
            "ticks": 9264,
            "time": 56.76458100000001,
            "value": 0.7559055118110236
          },
          {
            "number": 10,
            "ticks": 9816,
            "time": 60.146926500000006,
            "value": 0.25196850393700787
          },
          {
            "number": 10,
            "ticks": 9888,
            "time": 60.588102000000006,
            "value": 0.5039370078740157
          }
        ],
        "32": [
          {
            "number": 32,
            "ticks": 648,
            "time": 3.9705795000000004,
            "value": 0.007874015748031496
          },
          {
            "number": 32,
            "ticks": 1320,
            "time": 8.0882175,
            "value": 0.007874015748031496
          },
          {
            "number": 32,
            "ticks": 1992,
            "time": 12.2058555,
            "value": 0.007874015748031496
          },
          {
            "number": 32,
            "ticks": 2664,
            "time": 16.3234935,
            "value": 0.007874015748031496
          },
          {
            "number": 32,
            "ticks": 9480,
            "time": 58.08810750000001,
            "value": 0.007874015748031496
          }
        ],
        "98": [
          {
            "number": 98,
            "ticks": 175,
            "time": 1.0723015625,
            "value": 0.25196850393700787
          },
          {
            "number": 98,
            "ticks": 176,
            "time": 1.078429,
            "value": 0.25984251968503935
          },
          {
            "number": 98,
            "ticks": 177,
            "time": 1.0845564375,
            "value": 0.7795275590551181
          },
          {
            "number": 98,
            "ticks": 178,
            "time": 1.090683875,
            "value": 0.7874015748031497
          },
          {
            "number": 98,
            "ticks": 179,
            "time": 1.0968113125,
            "value": 0.8031496062992126
          }
        ],
        "99": [
          {
            "number": 99,
            "ticks": 175,
            "time": 1.0723015625,
            "value": 0.007874015748031496
          },
          {
            "number": 99,
            "ticks": 176,
            "time": 1.078429,
            "value": 0.007874015748031496
          },
          {
            "number": 99,
            "ticks": 177,
            "time": 1.0845564375,
            "value": 0.007874015748031496
          },
          {
            "number": 99,
            "ticks": 178,
            "time": 1.090683875,
            "value": 0.007874015748031496
          },
          {
            "number": 99,
            "ticks": 179,
            "time": 1.0968113125,
            "value": 0.007874015748031496
          }
        ]
      },
      "pitchBends": [],
      "instrument": {
        "family": "ensemble",
        "number": 49,
        "name": "string ensemble 2"
      },
      "name": "",
      "notes": [
        {
          "duration": 0.09803899999999999,
          "durationTicks": 16,
          "midi": 78,
          "name": "F#5",
          "ticks": 312,
          "time": 1.9117605000000002,
          "velocity": 1
        },
        {
          "duration": 0.09803899999999999,
          "durationTicks": 16,
          "midi": 78,
          "name": "F#5",
          "ticks": 336,
          "time": 2.058819,
          "velocity": 1
        },
        {
          "duration": 0.09803899999999999,
          "durationTicks": 16,
          "midi": 78,
          "name": "F#5",
          "ticks": 384,
          "time": 2.352936,
          "velocity": 1
        },
        {
          "duration": 0.09803899999999954,
          "durationTicks": 16,
          "midi": 78,
          "name": "F#5",
          "ticks": 432,
          "time": 2.6470530000000005,
          "velocity": 1
        },
        {
          "duration": 0.09803899999999999,
          "durationTicks": 16,
          "midi": 78,
          "name": "F#5",
          "ticks": 456,
          "time": 2.7941115000000005,
          "velocity": 1
        },
        {
          "duration": 0.09803899999999999,
          "durationTicks": 16,
          "midi": 78,
          "name": "F#5",
          "ticks": 504,
          "time": 3.0882285000000005,
          "velocity": 0.11811023622047244
        },
        {
          "duration": 0.09803899999999999,
          "durationTicks": 16,
          "midi": 78,
          "name": "F#5",
          "ticks": 552,
          "time": 3.3823455000000004,
          "velocity": 0.07874015748031496
        },
        {
          "duration": 0.09803899999999999,
          "durationTicks": 16,
          "midi": 78,
          "name": "F#5",
          "ticks": 600,
          "time": 3.6764625000000004,
          "velocity": 0.03937007874015748
        },
        {
          "duration": 0.09803899999999999,
          "durationTicks": 16,
          "midi": 78,
          "name": "F#5",
          "ticks": 984,
          "time": 6.029398500000001,
          "velocity": 1
        },
        {
          "duration": 0.09803899999999999,
          "durationTicks": 16,
          "midi": 78,
          "name": "F#5",
          "ticks": 1008,
          "time": 6.176457000000001,
          "velocity": 1
        },
        {
          "duration": 0.09803899999999999,
          "durationTicks": 16,
          "midi": 78,
          "name": "F#5",
          "ticks": 1056,
          "time": 6.470574000000001,
          "velocity": 1
        },
        {
          "duration": 0.09803899999999999,
          "durationTicks": 16,
          "midi": 78,
          "name": "F#5",
          "ticks": 1104,
          "time": 6.764691000000001,
          "velocity": 1
        },
        {
          "duration": 0.09803899999999999,
          "durationTicks": 16,
          "midi": 78,
          "name": "F#5",
          "ticks": 1128,
          "time": 6.911749500000001,
          "velocity": 1
        },
        {
          "duration": 0.09803899999999999,
          "durationTicks": 16,
          "midi": 78,
          "name": "F#5",
          "ticks": 1176,
          "time": 7.205866500000001,
          "velocity": 0.11811023622047244
        },
        {
          "duration": 0.09803899999999999,
          "durationTicks": 16,
          "midi": 78,
          "name": "F#5",
          "ticks": 1224,
          "time": 7.499983500000001,
          "velocity": 0.07874015748031496
        },
        {
          "duration": 0.09803899999999999,
          "durationTicks": 16,
          "midi": 78,
          "name": "F#5",
          "ticks": 1272,
          "time": 7.794100500000001,
          "velocity": 0.03937007874015748
        },
        {
          "duration": 0.09803899999999999,
          "durationTicks": 16,
          "midi": 78,
          "name": "F#5",
          "ticks": 1656,
          "time": 10.1470365,
          "velocity": 1
        },
        {
          "duration": 0.09803899999999999,
          "durationTicks": 16,
          "midi": 78,
          "name": "F#5",
          "ticks": 1680,
          "time": 10.294095,
          "velocity": 1
        },
        {
          "duration": 0.09803899999999999,
          "durationTicks": 16,
          "midi": 78,
          "name": "F#5",
          "ticks": 1728,
          "time": 10.588212,
          "velocity": 1
        },
        {
          "duration": 0.09803899999999999,
          "durationTicks": 16,
          "midi": 78,
          "name": "F#5",
          "ticks": 1776,
          "time": 10.882329,
          "velocity": 1
        },
        {
          "duration": 0.09803899999999999,
          "durationTicks": 16,
          "midi": 78,
          "name": "F#5",
          "ticks": 1800,
          "time": 11.0293875,
          "velocity": 1
        },
        {
          "duration": 0.09803899999999999,
          "durationTicks": 16,
          "midi": 78,
          "name": "F#5",
          "ticks": 1848,
          "time": 11.3235045,
          "velocity": 0.11811023622047244
        },
        {
          "duration": 0.09803899999999999,
          "durationTicks": 16,
          "midi": 78,
          "name": "F#5",
          "ticks": 1896,
          "time": 11.6176215,
          "velocity": 0.07874015748031496
        },
        {
          "duration": 0.09803899999999999,
          "durationTicks": 16,
          "midi": 78,
          "name": "F#5",
          "ticks": 1944,
          "time": 11.9117385,
          "velocity": 0.03937007874015748
        },
        {
          "duration": 0.09803899999999821,
          "durationTicks": 16,
          "midi": 78,
          "name": "F#5",
          "ticks": 2328,
          "time": 14.264674500000002,
          "velocity": 1
        },
        {
          "duration": 0.09803899999999821,
          "durationTicks": 16,
          "midi": 78,
          "name": "F#5",
          "ticks": 2352,
          "time": 14.411733000000002,
          "velocity": 1
        },
        {
          "duration": 0.09803899999999821,
          "durationTicks": 16,
          "midi": 78,
          "name": "F#5",
          "ticks": 2400,
          "time": 14.705850000000002,
          "velocity": 1
        },
        {
          "duration": 0.09803899999999821,
          "durationTicks": 16,
          "midi": 78,
          "name": "F#5",
          "ticks": 2448,
          "time": 14.999967000000002,
          "velocity": 1
        },
        {
          "duration": 0.09803899999999821,
          "durationTicks": 16,
          "midi": 78,
          "name": "F#5",
          "ticks": 2472,
          "time": 15.147025500000002,
          "velocity": 1
        },
        {
          "duration": 0.09803899999999821,
          "durationTicks": 16,
          "midi": 78,
          "name": "F#5",
          "ticks": 2520,
          "time": 15.441142500000002,
          "velocity": 0.11811023622047244
        },
        {
          "duration": 0.09803899999999821,
          "durationTicks": 16,
          "midi": 78,
          "name": "F#5",
          "ticks": 2568,
          "time": 15.735259500000002,
          "velocity": 0.07874015748031496
        },
        {
          "duration": 0.09803899999999999,
          "durationTicks": 16,
          "midi": 78,
          "name": "F#5",
          "ticks": 2616,
          "time": 16.0293765,
          "velocity": 0.03937007874015748
        },
        {
          "duration": 0.09803899999999288,
          "durationTicks": 16,
          "midi": 78,
          "name": "F#5",
          "ticks": 9144,
          "time": 56.02928850000001,
          "velocity": 1
        },
        {
          "duration": 0.09803899999999288,
          "durationTicks": 16,
          "midi": 78,
          "name": "F#5",
          "ticks": 9168,
          "time": 56.17634700000001,
          "velocity": 1
        },
        {
          "duration": 0.09803899999999288,
          "durationTicks": 16,
          "midi": 78,
          "name": "F#5",
          "ticks": 9216,
          "time": 56.47046400000001,
          "velocity": 1
        },
        {
          "duration": 0.09803899999999288,
          "durationTicks": 16,
          "midi": 78,
          "name": "F#5",
          "ticks": 9264,
          "time": 56.76458100000001,
          "velocity": 1
        },
        {
          "duration": 0.09803899999999288,
          "durationTicks": 16,
          "midi": 78,
          "name": "F#5",
          "ticks": 9288,
          "time": 56.91163950000001,
          "velocity": 1
        },
        {
          "duration": 0.09803899999999288,
          "durationTicks": 16,
          "midi": 78,
          "name": "F#5",
          "ticks": 9336,
          "time": 57.20575650000001,
          "velocity": 0.11811023622047244
        },
        {
          "duration": 0.09803899999999288,
          "durationTicks": 16,
          "midi": 78,
          "name": "F#5",
          "ticks": 9384,
          "time": 57.49987350000001,
          "velocity": 0.07874015748031496
        },
        {
          "duration": 0.09803899999999288,
          "durationTicks": 16,
          "midi": 78,
          "name": "F#5",
          "ticks": 9432,
          "time": 57.79399050000001,
          "velocity": 0.03937007874015748
        },
        {
          "duration": 0.09803899999999288,
          "durationTicks": 16,
          "midi": 78,
          "name": "F#5",
          "ticks": 9816,
          "time": 60.146926500000006,
          "velocity": 1
        },
        {
          "duration": 0.09803899999999288,
          "durationTicks": 16,
          "midi": 78,
          "name": "F#5",
          "ticks": 9840,
          "time": 60.293985000000006,
          "velocity": 1
        },
        {
          "duration": 0.09803899999999288,
          "durationTicks": 16,
          "midi": 78,
          "name": "F#5",
          "ticks": 9888,
          "time": 60.588102000000006,
          "velocity": 1
        }
      ]
    },
    {
      "channel": 2,
      "controlChanges": {
        "0": [
          {
            "number": 0,
            "ticks": 984,
            "time": 6.029398500000001,
            "value": 1
          },
          {
            "number": 0,
            "ticks": 1656,
            "time": 10.1470365,
            "value": 1
          },
          {
            "number": 0,
            "ticks": 2328,
            "time": 14.264674500000002,
            "value": 1
          },
          {
            "number": 0,
            "ticks": 8976,
            "time": 54.99987900000001,
            "value": 1
          },
          {
            "number": 0,
            "ticks": 9816,
            "time": 60.146926500000006,
            "value": 1
          }
        ],
        "1": [
          {
            "number": 1,
            "ticks": 8964,
            "time": 54.92634975000001,
            "value": 0
          }
        ],
        "6": [
          {
            "number": 6,
            "ticks": 648,
            "time": 3.9705795000000004,
            "value": 0.5118110236220472
          },
          {
            "number": 6,
            "ticks": 1320,
            "time": 8.0882175,
            "value": 0.5118110236220472
          },
          {
            "number": 6,
            "ticks": 1992,
            "time": 12.2058555,
            "value": 0.5118110236220472
          },
          {
            "number": 6,
            "ticks": 2664,
            "time": 16.3234935,
            "value": 0.5118110236220472
          },
          {
            "number": 6,
            "ticks": 8952,
            "time": 54.85282050000001,
            "value": 0.6299212598425197
          },
          {
            "number": 6,
            "ticks": 9480,
            "time": 58.08810750000001,
            "value": 0.5118110236220472
          }
        ],
        "7": [
          {
            "number": 7,
            "ticks": 984,
            "time": 6.029398500000001,
            "value": 0.7874015748031497
          },
          {
            "number": 7,
            "ticks": 1656,
            "time": 10.1470365,
            "value": 0.7874015748031497
          },
          {
            "number": 7,
            "ticks": 2328,
            "time": 14.264674500000002,
            "value": 0.7874015748031497
          },
          {
            "number": 7,
            "ticks": 8964,
            "time": 54.92634975000001,
            "value": 0.7874015748031497
          },
          {
            "number": 7,
            "ticks": 9528,
            "time": 58.38222450000001,
            "value": 0.4015748031496063
          },
          {
            "number": 7,
            "ticks": 9576,
            "time": 58.67634150000001,
            "value": 0.36220472440944884
          },
          {
            "number": 7,
            "ticks": 9624,
            "time": 58.97045850000001,
            "value": 0.31496062992125984
          },
          {
            "number": 7,
            "ticks": 9672,
            "time": 59.26457550000001,
            "value": 0.2677165354330709
          },
          {
            "number": 7,
            "ticks": 9720,
            "time": 59.55869250000001,
            "value": 0.2204724409448819
          },
          {
            "number": 7,
            "ticks": 9768,
            "time": 59.852809500000006,
            "value": 0.18110236220472442
          },
          {
            "number": 7,
            "ticks": 9816,
            "time": 60.146926500000006,
            "value": 0.13385826771653545
          },
          {
            "number": 7,
            "ticks": 9816,
            "time": 60.146926500000006,
            "value": 0.09448818897637795
          }
        ],
        "10": [
          {
            "number": 10,
            "ticks": 648,
            "time": 3.9705795000000004,
            "value": 0.5039370078740157
          },
          {
            "number": 10,
            "ticks": 1320,
            "time": 8.0882175,
            "value": 0.5039370078740157
          },
          {
            "number": 10,
            "ticks": 1992,
            "time": 12.2058555,
            "value": 0.5039370078740157
          },
          {
            "number": 10,
            "ticks": 2664,
            "time": 16.3234935,
            "value": 0.5039370078740157
          },
          {
            "number": 10,
            "ticks": 9480,
            "time": 58.08810750000001,
            "value": 0.5039370078740157
          }
        ],
        "11": [
          {
            "number": 11,
            "ticks": 8952,
            "time": 54.85282050000001,
            "value": 0.7874015748031497
          }
        ],
        "32": [
          {
            "number": 32,
            "ticks": 984,
            "time": 6.029398500000001,
            "value": 0.007874015748031496
          },
          {
            "number": 32,
            "ticks": 1656,
            "time": 10.1470365,
            "value": 0.007874015748031496
          },
          {
            "number": 32,
            "ticks": 2328,
            "time": 14.264674500000002,
            "value": 0.007874015748031496
          },
          {
            "number": 32,
            "ticks": 8976,
            "time": 54.99987900000001,
            "value": 0.007874015748031496
          },
          {
            "number": 32,
            "ticks": 9816,
            "time": 60.146926500000006,
            "value": 0.007874015748031496
          }
        ],
        "93": [
          {
            "number": 93,
            "ticks": 8952,
            "time": 54.85282050000001,
            "value": 0.1889763779527559
          }
        ],
        "94": [
          {
            "number": 94,
            "ticks": 8952,
            "time": 54.85282050000001,
            "value": 0.47244094488188976
          }
        ],
        "98": [
          {
            "number": 98,
            "ticks": 648,
            "time": 3.9705795000000004,
            "value": 0.7795275590551181
          },
          {
            "number": 98,
            "ticks": 1320,
            "time": 8.0882175,
            "value": 0.7795275590551181
          },
          {
            "number": 98,
            "ticks": 1992,
            "time": 12.2058555,
            "value": 0.7795275590551181
          },
          {
            "number": 98,
            "ticks": 2664,
            "time": 16.3234935,
            "value": 0.7795275590551181
          },
          {
            "number": 98,
            "ticks": 8952,
            "time": 54.85282050000001,
            "value": 0.25984251968503935
          },
          {
            "number": 98,
            "ticks": 9480,
            "time": 58.08810750000001,
            "value": 0.7795275590551181
          }
        ],
        "99": [
          {
            "number": 99,
            "ticks": 648,
            "time": 3.9705795000000004,
            "value": 0.007874015748031496
          },
          {
            "number": 99,
            "ticks": 1320,
            "time": 8.0882175,
            "value": 0.007874015748031496
          },
          {
            "number": 99,
            "ticks": 1992,
            "time": 12.2058555,
            "value": 0.007874015748031496
          },
          {
            "number": 99,
            "ticks": 2664,
            "time": 16.3234935,
            "value": 0.007874015748031496
          },
          {
            "number": 99,
            "ticks": 8952,
            "time": 54.85282050000001,
            "value": 0.007874015748031496
          },
          {
            "number": 99,
            "ticks": 9480,
            "time": 58.08810750000001,
            "value": 0.007874015748031496
          }
        ]
      },
      "pitchBends": [
        {
          "ticks": 8964,
          "time": 54.92634975000001,
          "value": 0
        }
      ],
      "instrument": {
        "family": "guitar",
        "number": 29,
        "name": "overdriven guitar"
      },
      "name": "",
      "notes": [
        {
          "duration": 0.39215599999999995,
          "durationTicks": 64,
          "midi": 66,
          "name": "F#4",
          "ticks": 648,
          "time": 3.9705795000000004,
          "velocity": 1
        },
        {
          "duration": 0.39215599999999995,
          "durationTicks": 64,
          "midi": 73,
          "name": "C#5",
          "ticks": 720,
          "time": 4.411755,
          "velocity": 1
        },
        {
          "duration": 0.24509749999999908,
          "durationTicks": 40,
          "midi": 83,
          "name": "B5",
          "ticks": 792,
          "time": 4.852930500000001,
          "velocity": 1
        },
        {
          "duration": 0.24509749999999908,
          "durationTicks": 40,
          "midi": 82,
          "name": "A#5",
          "ticks": 840,
          "time": 5.147047500000001,
          "velocity": 1
        },
        {
          "duration": 0.24509749999999908,
          "durationTicks": 40,
          "midi": 78,
          "name": "F#5",
          "ticks": 888,
          "time": 5.441164500000001,
          "velocity": 1
        },
        {
          "duration": 0.24509749999999997,
          "durationTicks": 40,
          "midi": 80,
          "name": "G#5",
          "ticks": 936,
          "time": 5.735281500000001,
          "velocity": 1
        },
        {
          "duration": 0.39215599999999995,
          "durationTicks": 64,
          "midi": 66,
          "name": "F#4",
          "ticks": 1320,
          "time": 8.0882175,
          "velocity": 1
        },
        {
          "duration": 0.39215599999999995,
          "durationTicks": 64,
          "midi": 73,
          "name": "C#5",
          "ticks": 1392,
          "time": 8.529393,
          "velocity": 1
        },
        {
          "duration": 0.24509749999999997,
          "durationTicks": 40,
          "midi": 83,
          "name": "B5",
          "ticks": 1464,
          "time": 8.9705685,
          "velocity": 1
        },
        {
          "duration": 0.24509749999999997,
          "durationTicks": 40,
          "midi": 82,
          "name": "A#5",
          "ticks": 1512,
          "time": 9.2646855,
          "velocity": 1
        },
        {
          "duration": 0.24509749999999997,
          "durationTicks": 40,
          "midi": 78,
          "name": "F#5",
          "ticks": 1560,
          "time": 9.5588025,
          "velocity": 1
        },
        {
          "duration": 0.24509749999999997,
          "durationTicks": 40,
          "midi": 80,
          "name": "G#5",
          "ticks": 1608,
          "time": 9.8529195,
          "velocity": 1
        },
        {
          "duration": 0.39215599999999995,
          "durationTicks": 64,
          "midi": 66,
          "name": "F#4",
          "ticks": 1992,
          "time": 12.2058555,
          "velocity": 1
        },
        {
          "duration": 0.3921559999999982,
          "durationTicks": 64,
          "midi": 73,
          "name": "C#5",
          "ticks": 2064,
          "time": 12.647031000000002,
          "velocity": 1
        },
        {
          "duration": 0.2450974999999982,
          "durationTicks": 40,
          "midi": 83,
          "name": "B5",
          "ticks": 2136,
          "time": 13.088206500000002,
          "velocity": 1
        },
        {
          "duration": 0.2450974999999982,
          "durationTicks": 40,
          "midi": 82,
          "name": "A#5",
          "ticks": 2184,
          "time": 13.382323500000002,
          "velocity": 1
        },
        {
          "duration": 0.2450974999999982,
          "durationTicks": 40,
          "midi": 78,
          "name": "F#5",
          "ticks": 2232,
          "time": 13.676440500000002,
          "velocity": 1
        },
        {
          "duration": 0.2450974999999982,
          "durationTicks": 40,
          "midi": 80,
          "name": "G#5",
          "ticks": 2280,
          "time": 13.970557500000002,
          "velocity": 1
        },
        {
          "duration": 0.39215599999999995,
          "durationTicks": 64,
          "midi": 66,
          "name": "F#4",
          "ticks": 2664,
          "time": 16.3234935,
          "velocity": 1
        },
        {
          "duration": 0.39215599999999995,
          "durationTicks": 64,
          "midi": 73,
          "name": "C#5",
          "ticks": 2736,
          "time": 16.764669,
          "velocity": 1
        },
        {
          "duration": 0.24509749999999997,
          "durationTicks": 40,
          "midi": 83,
          "name": "B5",
          "ticks": 2808,
          "time": 17.2058445,
          "velocity": 1
        },
        {
          "duration": 0.24509749999999997,
          "durationTicks": 40,
          "midi": 82,
          "name": "A#5",
          "ticks": 2856,
          "time": 17.4999615,
          "velocity": 1
        },
        {
          "duration": 0.24509749999999997,
          "durationTicks": 40,
          "midi": 78,
          "name": "F#5",
          "ticks": 2904,
          "time": 17.7940785,
          "velocity": 1
        },
        {
          "duration": 0.24509749999999997,
          "durationTicks": 40,
          "midi": 80,
          "name": "G#5",
          "ticks": 2952,
          "time": 18.0881955,
          "velocity": 1
        },
        {
          "duration": 0.39215599999999284,
          "durationTicks": 64,
          "midi": 66,
          "name": "F#4",
          "ticks": 9480,
          "time": 58.08810750000001,
          "velocity": 1
        },
        {
          "duration": 0.39215599999999284,
          "durationTicks": 64,
          "midi": 73,
          "name": "C#5",
          "ticks": 9552,
          "time": 58.52928300000001,
          "velocity": 1
        },
        {
          "duration": 0.24509749999999286,
          "durationTicks": 40,
          "midi": 83,
          "name": "B5",
          "ticks": 9624,
          "time": 58.97045850000001,
          "velocity": 1
        },
        {
          "duration": 0.24509749999999286,
          "durationTicks": 40,
          "midi": 82,
          "name": "A#5",
          "ticks": 9672,
          "time": 59.26457550000001,
          "velocity": 1
        },
        {
          "duration": 0.24509749999999286,
          "durationTicks": 40,
          "midi": 78,
          "name": "F#5",
          "ticks": 9720,
          "time": 59.55869250000001,
          "velocity": 1
        },
        {
          "duration": 0.24509749999999286,
          "durationTicks": 40,
          "midi": 80,
          "name": "G#5",
          "ticks": 9768,
          "time": 59.852809500000006,
          "velocity": 1
        }
      ]
    },
    {
      "channel": 0,
      "controlChanges": {
        "0": [
          {
            "number": 0,
            "ticks": 182,
            "time": 1.115193625,
            "value": 0.1889763779527559
          }
        ],
        "1": [
          {
            "number": 1,
            "ticks": 178,
            "time": 1.090683875,
            "value": 0
          }
        ],
        "5": [
          {
            "number": 5,
            "ticks": 181,
            "time": 1.1090661875,
            "value": 0
          }
        ],
        "6": [
          {
            "number": 6,
            "ticks": 166,
            "time": 1.017154625,
            "value": 0.12598425196850394
          },
          {
            "number": 6,
            "ticks": 168,
            "time": 1.0294095,
            "value": 0.5433070866141733
          },
          {
            "number": 6,
            "ticks": 169,
            "time": 1.0355369375,
            "value": 0.5118110236220472
          },
          {
            "number": 6,
            "ticks": 170,
            "time": 1.041664375,
            "value": 0.5118110236220472
          },
          {
            "number": 6,
            "ticks": 171,
            "time": 1.0477918125,
            "value": 0.5039370078740157
          }
        ],
        "7": [
          {
            "number": 7,
            "ticks": 175,
            "time": 1.0723015625,
            "value": 0.5118110236220472
          }
        ],
        "10": [
          {
            "number": 10,
            "ticks": 177,
            "time": 1.0845564375,
            "value": 0.5039370078740157
          }
        ],
        "11": [
          {
            "number": 11,
            "ticks": 176,
            "time": 1.078429,
            "value": 0.7874015748031497
          }
        ],
        "32": [
          {
            "number": 32,
            "ticks": 183,
            "time": 1.1213210625,
            "value": 0.015748031496062992
          }
        ],
        "64": [
          {
            "number": 64,
            "ticks": 179,
            "time": 1.0968113125,
            "value": 0
          }
        ],
        "65": [
          {
            "number": 65,
            "ticks": 180,
            "time": 1.10293875,
            "value": 0
          }
        ],
        "91": [
          {
            "number": 91,
            "ticks": 160,
            "time": 0.9803900000000001,
            "value": 0.5039370078740157
          }
        ],
        "93": [
          {
            "number": 93,
            "ticks": 161,
            "time": 0.9865174375,
            "value": 0.1889763779527559
          }
        ],
        "94": [
          {
            "number": 94,
            "ticks": 162,
            "time": 0.9926448750000001,
            "value": 0.47244094488188976
          }
        ],
        "98": [
          {
            "number": 98,
            "ticks": 169,
            "time": 1.0355369375,
            "value": 0.06299212598425197
          },
          {
            "number": 98,
            "ticks": 170,
            "time": 1.041664375,
            "value": 0.07086614173228346
          },
          {
            "number": 98,
            "ticks": 171,
            "time": 1.0477918125,
            "value": 0.07874015748031496
          }
        ],
        "99": [
          {
            "number": 99,
            "ticks": 169,
            "time": 1.0355369375,
            "value": 0.007874015748031496
          },
          {
            "number": 99,
            "ticks": 170,
            "time": 1.041664375,
            "value": 0.007874015748031496
          },
          {
            "number": 99,
            "ticks": 171,
            "time": 1.0477918125,
            "value": 0.007874015748031496
          }
        ],
        "100": [
          {
            "number": 100,
            "ticks": 164,
            "time": 1.00489975,
            "value": 0
          },
          {
            "number": 100,
            "ticks": 168,
            "time": 1.0294095,
            "value": 0.007874015748031496
          }
        ],
        "101": [
          {
            "number": 101,
            "ticks": 165,
            "time": 1.0110271875,
            "value": 0
          },
          {
            "number": 101,
            "ticks": 168,
            "time": 1.0294095,
            "value": 0
          }
        ]
      },
      "pitchBends": [
        {
          "ticks": 167,
          "time": 1.0232820625,
          "value": 0
        }
      ],
      "instrument": {
        "family": "piano",
        "number": 0,
        "name": "acoustic grand piano"
      },
      "name": "LEAD+\u0000",
      "notes": [],
      "endOfTrackTicks": 9912
    },
    {
      "channel": 3,
      "controlChanges": {
        "0": [
          {
            "number": 0,
            "ticks": 648,
            "time": 3.9705795000000004,
            "value": 0.06299212598425197
          },
          {
            "number": 0,
            "ticks": 1320,
            "time": 8.0882175,
            "value": 0.06299212598425197
          },
          {
            "number": 0,
            "ticks": 1992,
            "time": 12.2058555,
            "value": 0.06299212598425197
          },
          {
            "number": 0,
            "ticks": 2664,
            "time": 16.3234935,
            "value": 0.06299212598425197
          },
          {
            "number": 0,
            "ticks": 9480,
            "time": 58.08810750000001,
            "value": 0.06299212598425197
          }
        ],
        "6": [
          {
            "number": 6,
            "ticks": 185,
            "time": 1.1335759375,
            "value": 1
          },
          {
            "number": 6,
            "ticks": 186,
            "time": 1.139703375,
            "value": 0.5511811023622047
          },
          {
            "number": 6,
            "ticks": 187,
            "time": 1.1458308125,
            "value": 0.47244094488188976
          },
          {
            "number": 6,
            "ticks": 188,
            "time": 1.15195825,
            "value": 0.5511811023622047
          },
          {
            "number": 6,
            "ticks": 189,
            "time": 1.1580856875,
            "value": 0.7086614173228346
          },
          {
            "number": 6,
            "ticks": 8976,
            "time": 54.99987900000001,
            "value": 0.5433070866141733
          },
          {
            "number": 6,
            "ticks": 8976,
            "time": 54.99987900000001,
            "value": 0.5511811023622047
          },
          {
            "number": 6,
            "ticks": 8976,
            "time": 54.99987900000001,
            "value": 0.5511811023622047
          },
          {
            "number": 6,
            "ticks": 8988,
            "time": 55.07340825000001,
            "value": 0.7086614173228346
          }
        ],
        "7": [
          {
            "number": 7,
            "ticks": 648,
            "time": 3.9705795000000004,
            "value": 0.6456692913385826
          },
          {
            "number": 7,
            "ticks": 1320,
            "time": 8.0882175,
            "value": 0.6456692913385826
          },
          {
            "number": 7,
            "ticks": 1992,
            "time": 12.2058555,
            "value": 0.6456692913385826
          },
          {
            "number": 7,
            "ticks": 2664,
            "time": 16.3234935,
            "value": 0.6456692913385826
          },
          {
            "number": 7,
            "ticks": 9192,
            "time": 56.32340550000001,
            "value": 0.5118110236220472
          },
          {
            "number": 7,
            "ticks": 9240,
            "time": 56.61752250000001,
            "value": 0.47244094488188976
          },
          {
            "number": 7,
            "ticks": 9288,
            "time": 56.91163950000001,
            "value": 0.4409448818897638
          },
          {
            "number": 7,
            "ticks": 9336,
            "time": 57.20575650000001,
            "value": 0.4094488188976378
          },
          {
            "number": 7,
            "ticks": 9384,
            "time": 57.49987350000001,
            "value": 0.3779527559055118
          },
          {
            "number": 7,
            "ticks": 9432,
            "time": 57.79399050000001,
            "value": 0.3464566929133858
          },
          {
            "number": 7,
            "ticks": 9480,
            "time": 58.08810750000001,
            "value": 0.31496062992125984
          },
          {
            "number": 7,
            "ticks": 9480,
            "time": 58.08810750000001,
            "value": 0.36220472440944884
          },
          {
            "number": 7,
            "ticks": 9864,
            "time": 60.441043500000006,
            "value": 0.06299212598425197
          },
          {
            "number": 7,
            "ticks": 9912,
            "time": 60.735160500000006,
            "value": 0.031496062992125984
          }
        ],
        "10": [
          {
            "number": 10,
            "ticks": 312,
            "time": 1.9117605000000002,
            "value": 0.25196850393700787
          },
          {
            "number": 10,
            "ticks": 384,
            "time": 2.352936,
            "value": 0.5039370078740157
          },
          {
            "number": 10,
            "ticks": 432,
            "time": 2.6470530000000005,
            "value": 0.7559055118110236
          },
          {
            "number": 10,
            "ticks": 984,
            "time": 6.029398500000001,
            "value": 0.25196850393700787
          },
          {
            "number": 10,
            "ticks": 1056,
            "time": 6.470574000000001,
            "value": 0.5039370078740157
          },
          {
            "number": 10,
            "ticks": 1104,
            "time": 6.764691000000001,
            "value": 0.7559055118110236
          },
          {
            "number": 10,
            "ticks": 1656,
            "time": 10.1470365,
            "value": 0.25196850393700787
          },
          {
            "number": 10,
            "ticks": 1728,
            "time": 10.588212,
            "value": 0.5039370078740157
          },
          {
            "number": 10,
            "ticks": 1776,
            "time": 10.882329,
            "value": 0.7559055118110236
          },
          {
            "number": 10,
            "ticks": 2328,
            "time": 14.264674500000002,
            "value": 0.25196850393700787
          },
          {
            "number": 10,
            "ticks": 2400,
            "time": 14.705850000000002,
            "value": 0.5039370078740157
          },
          {
            "number": 10,
            "ticks": 2448,
            "time": 14.999967000000002,
            "value": 0.7559055118110236
          },
          {
            "number": 10,
            "ticks": 9000,
            "time": 55.14693750000001,
            "value": 0.25196850393700787
          },
          {
            "number": 10,
            "ticks": 9144,
            "time": 56.02928850000001,
            "value": 0.25196850393700787
          },
          {
            "number": 10,
            "ticks": 9216,
            "time": 56.47046400000001,
            "value": 0.5039370078740157
          },
          {
            "number": 10,
            "ticks": 9264,
            "time": 56.76458100000001,
            "value": 0.7559055118110236
          },
          {
            "number": 10,
            "ticks": 9816,
            "time": 60.146926500000006,
            "value": 0.25196850393700787
          },
          {
            "number": 10,
            "ticks": 9888,
            "time": 60.588102000000006,
            "value": 0.5039370078740157
          }
        ],
        "32": [
          {
            "number": 32,
            "ticks": 648,
            "time": 3.9705795000000004,
            "value": 0.015748031496062992
          },
          {
            "number": 32,
            "ticks": 1320,
            "time": 8.0882175,
            "value": 0.015748031496062992
          },
          {
            "number": 32,
            "ticks": 1992,
            "time": 12.2058555,
            "value": 0.015748031496062992
          },
          {
            "number": 32,
            "ticks": 2664,
            "time": 16.3234935,
            "value": 0.015748031496062992
          },
          {
            "number": 32,
            "ticks": 9480,
            "time": 58.08810750000001,
            "value": 0.015748031496062992
          }
        ],
        "98": [
          {
            "number": 98,
            "ticks": 185,
            "time": 1.1335759375,
            "value": 0.25196850393700787
          },
          {
            "number": 98,
            "ticks": 186,
            "time": 1.139703375,
            "value": 0.25984251968503935
          },
          {
            "number": 98,
            "ticks": 187,
            "time": 1.1458308125,
            "value": 0.7795275590551181
          },
          {
            "number": 98,
            "ticks": 188,
            "time": 1.15195825,
            "value": 0.7874015748031497
          },
          {
            "number": 98,
            "ticks": 189,
            "time": 1.1580856875,
            "value": 0.8031496062992126
          },
          {
            "number": 98,
            "ticks": 8976,
            "time": 54.99987900000001,
            "value": 0.7874015748031497
          },
          {
            "number": 98,
            "ticks": 8976,
            "time": 54.99987900000001,
            "value": 0.25984251968503935
          },
          {
            "number": 98,
            "ticks": 8988,
            "time": 55.07340825000001,
            "value": 0.8031496062992126
          }
        ],
        "99": [
          {
            "number": 99,
            "ticks": 185,
            "time": 1.1335759375,
            "value": 0.007874015748031496
          },
          {
            "number": 99,
            "ticks": 186,
            "time": 1.139703375,
            "value": 0.007874015748031496
          },
          {
            "number": 99,
            "ticks": 187,
            "time": 1.1458308125,
            "value": 0.007874015748031496
          },
          {
            "number": 99,
            "ticks": 188,
            "time": 1.15195825,
            "value": 0.007874015748031496
          },
          {
            "number": 99,
            "ticks": 189,
            "time": 1.1580856875,
            "value": 0.007874015748031496
          },
          {
            "number": 99,
            "ticks": 8976,
            "time": 54.99987900000001,
            "value": 0.007874015748031496
          },
          {
            "number": 99,
            "ticks": 8976,
            "time": 54.99987900000001,
            "value": 0.007874015748031496
          },
          {
            "number": 99,
            "ticks": 8988,
            "time": 55.07340825000001,
            "value": 0.007874015748031496
          }
        ],
        "100": [
          {
            "number": 100,
            "ticks": 8976,
            "time": 54.99987900000001,
            "value": 0.007874015748031496
          }
        ],
        "101": [
          {
            "number": 101,
            "ticks": 8976,
            "time": 54.99987900000001,
            "value": 0
          }
        ]
      },
      "pitchBends": [
        {
          "ticks": 8988,
          "time": 55.07340825000001,
          "value": 0
        }
      ],
      "instrument": {
        "family": "organ",
        "number": 16,
        "name": "drawbar organ"
      },
      "name": "",
      "notes": [
        {
          "duration": 0.09803899999999999,
          "durationTicks": 16,
          "midi": 78,
          "name": "F#5",
          "ticks": 312,
          "time": 1.9117605000000002,
          "velocity": 1
        },
        {
          "duration": 0.09803899999999999,
          "durationTicks": 16,
          "midi": 78,
          "name": "F#5",
          "ticks": 336,
          "time": 2.058819,
          "velocity": 1
        },
        {
          "duration": 0.09803899999999999,
          "durationTicks": 16,
          "midi": 78,
          "name": "F#5",
          "ticks": 384,
          "time": 2.352936,
          "velocity": 1
        },
        {
          "duration": 0.09803899999999954,
          "durationTicks": 16,
          "midi": 78,
          "name": "F#5",
          "ticks": 432,
          "time": 2.6470530000000005,
          "velocity": 1
        },
        {
          "duration": 0.09803899999999999,
          "durationTicks": 16,
          "midi": 78,
          "name": "F#5",
          "ticks": 456,
          "time": 2.7941115000000005,
          "velocity": 1
        },
        {
          "duration": 0.09803899999999999,
          "durationTicks": 16,
          "midi": 78,
          "name": "F#5",
          "ticks": 504,
          "time": 3.0882285000000005,
          "velocity": 0.47244094488188976
        },
        {
          "duration": 0.09803899999999999,
          "durationTicks": 16,
          "midi": 78,
          "name": "F#5",
          "ticks": 552,
          "time": 3.3823455000000004,
          "velocity": 0.3937007874015748
        },
        {
          "duration": 0.09803899999999999,
          "durationTicks": 16,
          "midi": 78,
          "name": "F#5",
          "ticks": 600,
          "time": 3.6764625000000004,
          "velocity": 0.31496062992125984
        },
        {
          "duration": 0.09803899999999999,
          "durationTicks": 16,
          "midi": 78,
          "name": "F#5",
          "ticks": 984,
          "time": 6.029398500000001,
          "velocity": 1
        },
        {
          "duration": 0.09803899999999999,
          "durationTicks": 16,
          "midi": 78,
          "name": "F#5",
          "ticks": 1008,
          "time": 6.176457000000001,
          "velocity": 1
        },
        {
          "duration": 0.09803899999999999,
          "durationTicks": 16,
          "midi": 78,
          "name": "F#5",
          "ticks": 1056,
          "time": 6.470574000000001,
          "velocity": 1
        },
        {
          "duration": 0.09803899999999999,
          "durationTicks": 16,
          "midi": 78,
          "name": "F#5",
          "ticks": 1104,
          "time": 6.764691000000001,
          "velocity": 1
        },
        {
          "duration": 0.09803899999999999,
          "durationTicks": 16,
          "midi": 78,
          "name": "F#5",
          "ticks": 1128,
          "time": 6.911749500000001,
          "velocity": 1
        },
        {
          "duration": 0.09803899999999999,
          "durationTicks": 16,
          "midi": 78,
          "name": "F#5",
          "ticks": 1176,
          "time": 7.205866500000001,
          "velocity": 0.47244094488188976
        },
        {
          "duration": 0.09803899999999999,
          "durationTicks": 16,
          "midi": 78,
          "name": "F#5",
          "ticks": 1224,
          "time": 7.499983500000001,
          "velocity": 0.3937007874015748
        },
        {
          "duration": 0.09803899999999999,
          "durationTicks": 16,
          "midi": 78,
          "name": "F#5",
          "ticks": 1272,
          "time": 7.794100500000001,
          "velocity": 0.31496062992125984
        },
        {
          "duration": 0.09803899999999999,
          "durationTicks": 16,
          "midi": 78,
          "name": "F#5",
          "ticks": 1656,
          "time": 10.1470365,
          "velocity": 1
        },
        {
          "duration": 0.09803899999999999,
          "durationTicks": 16,
          "midi": 78,
          "name": "F#5",
          "ticks": 1680,
          "time": 10.294095,
          "velocity": 1
        },
        {
          "duration": 0.09803899999999999,
          "durationTicks": 16,
          "midi": 78,
          "name": "F#5",
          "ticks": 1728,
          "time": 10.588212,
          "velocity": 1
        },
        {
          "duration": 0.09803899999999999,
          "durationTicks": 16,
          "midi": 78,
          "name": "F#5",
          "ticks": 1776,
          "time": 10.882329,
          "velocity": 1
        },
        {
          "duration": 0.09803899999999999,
          "durationTicks": 16,
          "midi": 78,
          "name": "F#5",
          "ticks": 1800,
          "time": 11.0293875,
          "velocity": 1
        },
        {
          "duration": 0.09803899999999999,
          "durationTicks": 16,
          "midi": 78,
          "name": "F#5",
          "ticks": 1848,
          "time": 11.3235045,
          "velocity": 0.47244094488188976
        },
        {
          "duration": 0.09803899999999999,
          "durationTicks": 16,
          "midi": 78,
          "name": "F#5",
          "ticks": 1896,
          "time": 11.6176215,
          "velocity": 0.3937007874015748
        },
        {
          "duration": 0.09803899999999999,
          "durationTicks": 16,
          "midi": 78,
          "name": "F#5",
          "ticks": 1944,
          "time": 11.9117385,
          "velocity": 0.31496062992125984
        },
        {
          "duration": 0.09803899999999821,
          "durationTicks": 16,
          "midi": 78,
          "name": "F#5",
          "ticks": 2328,
          "time": 14.264674500000002,
          "velocity": 1
        },
        {
          "duration": 0.09803899999999821,
          "durationTicks": 16,
          "midi": 78,
          "name": "F#5",
          "ticks": 2352,
          "time": 14.411733000000002,
          "velocity": 1
        },
        {
          "duration": 0.09803899999999821,
          "durationTicks": 16,
          "midi": 78,
          "name": "F#5",
          "ticks": 2400,
          "time": 14.705850000000002,
          "velocity": 1
        },
        {
          "duration": 0.09803899999999821,
          "durationTicks": 16,
          "midi": 78,
          "name": "F#5",
          "ticks": 2448,
          "time": 14.999967000000002,
          "velocity": 1
        },
        {
          "duration": 0.09803899999999821,
          "durationTicks": 16,
          "midi": 78,
          "name": "F#5",
          "ticks": 2472,
          "time": 15.147025500000002,
          "velocity": 1
        },
        {
          "duration": 0.09803899999999821,
          "durationTicks": 16,
          "midi": 78,
          "name": "F#5",
          "ticks": 2520,
          "time": 15.441142500000002,
          "velocity": 0.47244094488188976
        },
        {
          "duration": 0.09803899999999821,
          "durationTicks": 16,
          "midi": 78,
          "name": "F#5",
          "ticks": 2568,
          "time": 15.735259500000002,
          "velocity": 0.3937007874015748
        },
        {
          "duration": 0.09803899999999999,
          "durationTicks": 16,
          "midi": 78,
          "name": "F#5",
          "ticks": 2616,
          "time": 16.0293765,
          "velocity": 0.31496062992125984
        },
        {
          "duration": 0.09803899999999288,
          "durationTicks": 16,
          "midi": 78,
          "name": "F#5",
          "ticks": 9144,
          "time": 56.02928850000001,
          "velocity": 1
        },
        {
          "duration": 0.09803899999999288,
          "durationTicks": 16,
          "midi": 78,
          "name": "F#5",
          "ticks": 9168,
          "time": 56.17634700000001,
          "velocity": 1
        },
        {
          "duration": 0.09803899999999288,
          "durationTicks": 16,
          "midi": 78,
          "name": "F#5",
          "ticks": 9216,
          "time": 56.47046400000001,
          "velocity": 1
        },
        {
          "duration": 0.09803899999999288,
          "durationTicks": 16,
          "midi": 78,
          "name": "F#5",
          "ticks": 9264,
          "time": 56.76458100000001,
          "velocity": 1
        },
        {
          "duration": 0.09803899999999288,
          "durationTicks": 16,
          "midi": 78,
          "name": "F#5",
          "ticks": 9288,
          "time": 56.91163950000001,
          "velocity": 1
        },
        {
          "duration": 0.09803899999999288,
          "durationTicks": 16,
          "midi": 78,
          "name": "F#5",
          "ticks": 9336,
          "time": 57.20575650000001,
          "velocity": 0.47244094488188976
        },
        {
          "duration": 0.09803899999999288,
          "durationTicks": 16,
          "midi": 78,
          "name": "F#5",
          "ticks": 9384,
          "time": 57.49987350000001,
          "velocity": 0.3937007874015748
        },
        {
          "duration": 0.09803899999999288,
          "durationTicks": 16,
          "midi": 78,
          "name": "F#5",
          "ticks": 9432,
          "time": 57.79399050000001,
          "velocity": 0.31496062992125984
        },
        {
          "duration": 0.09803899999999288,
          "durationTicks": 16,
          "midi": 78,
          "name": "F#5",
          "ticks": 9816,
          "time": 60.146926500000006,
          "velocity": 1
        },
        {
          "duration": 0.09803899999999288,
          "durationTicks": 16,
          "midi": 78,
          "name": "F#5",
          "ticks": 9840,
          "time": 60.293985000000006,
          "velocity": 1
        },
        {
          "duration": 0.09803899999999288,
          "durationTicks": 16,
          "midi": 78,
          "name": "F#5",
          "ticks": 9888,
          "time": 60.588102000000006,
          "velocity": 1
        }
      ]
    },
    {
      "channel": 3,
      "controlChanges": {
        "0": [
          {
            "number": 0,
            "ticks": 984,
            "time": 6.029398500000001,
            "value": 0.1889763779527559
          },
          {
            "number": 0,
            "ticks": 1656,
            "time": 10.1470365,
            "value": 0.1889763779527559
          },
          {
            "number": 0,
            "ticks": 2328,
            "time": 14.264674500000002,
            "value": 0.1889763779527559
          },
          {
            "number": 0,
            "ticks": 8952,
            "time": 54.85282050000001,
            "value": 0.1889763779527559
          },
          {
            "number": 0,
            "ticks": 9816,
            "time": 60.146926500000006,
            "value": 0.1889763779527559
          }
        ],
        "1": [
          {
            "number": 1,
            "ticks": 8952,
            "time": 54.85282050000001,
            "value": 0
          }
        ],
        "7": [
          {
            "number": 7,
            "ticks": 984,
            "time": 6.029398500000001,
            "value": 0.5118110236220472
          },
          {
            "number": 7,
            "ticks": 1656,
            "time": 10.1470365,
            "value": 0.5118110236220472
          },
          {
            "number": 7,
            "ticks": 2328,
            "time": 14.264674500000002,
            "value": 0.5118110236220472
          },
          {
            "number": 7,
            "ticks": 8952,
            "time": 54.85282050000001,
            "value": 0.5118110236220472
          },
          {
            "number": 7,
            "ticks": 9528,
            "time": 58.38222450000001,
            "value": 0.36220472440944884
          },
          {
            "number": 7,
            "ticks": 9576,
            "time": 58.67634150000001,
            "value": 0.3228346456692913
          },
          {
            "number": 7,
            "ticks": 9624,
            "time": 58.97045850000001,
            "value": 0.2755905511811024
          },
          {
            "number": 7,
            "ticks": 9672,
            "time": 59.26457550000001,
            "value": 0.23622047244094488
          },
          {
            "number": 7,
            "ticks": 9720,
            "time": 59.55869250000001,
            "value": 0.1968503937007874
          },
          {
            "number": 7,
            "ticks": 9768,
            "time": 59.852809500000006,
            "value": 0.15748031496062992
          },
          {
            "number": 7,
            "ticks": 9816,
            "time": 60.146926500000006,
            "value": 0.11811023622047244
          },
          {
            "number": 7,
            "ticks": 9816,
            "time": 60.146926500000006,
            "value": 0.06299212598425197
          }
        ],
        "10": [
          {
            "number": 10,
            "ticks": 648,
            "time": 3.9705795000000004,
            "value": 0.5984251968503937
          },
          {
            "number": 10,
            "ticks": 1320,
            "time": 8.0882175,
            "value": 0.5984251968503937
          },
          {
            "number": 10,
            "ticks": 1992,
            "time": 12.2058555,
            "value": 0.5984251968503937
          },
          {
            "number": 10,
            "ticks": 2664,
            "time": 16.3234935,
            "value": 0.5984251968503937
          },
          {
            "number": 10,
            "ticks": 8952,
            "time": 54.85282050000001,
            "value": 0.5039370078740157
          },
          {
            "number": 10,
            "ticks": 9480,
            "time": 58.08810750000001,
            "value": 0.5984251968503937
          }
        ],
        "11": [
          {
            "number": 11,
            "ticks": 648,
            "time": 3.9705795000000004,
            "value": 0.7874015748031497
          },
          {
            "number": 11,
            "ticks": 658,
            "time": 4.031853875,
            "value": 0.7322834645669292
          },
          {
            "number": 11,
            "ticks": 668,
            "time": 4.09312825,
            "value": 0.6692913385826772
          },
          {
            "number": 11,
            "ticks": 678,
            "time": 4.154402625,
            "value": 0.6062992125984252
          },
          {
            "number": 11,
            "ticks": 688,
            "time": 4.215677,
            "value": 0.5433070866141733
          },
          {
            "number": 11,
            "ticks": 698,
            "time": 4.276951375,
            "value": 0.48031496062992124
          },
          {
            "number": 11,
            "ticks": 708,
            "time": 4.33822575,
            "value": 0.41732283464566927
          },
          {
            "number": 11,
            "ticks": 718,
            "time": 4.399500125,
            "value": 0.3543307086614173
          },
          {
            "number": 11,
            "ticks": 720,
            "time": 4.411755,
            "value": 0.3464566929133858
          },
          {
            "number": 11,
            "ticks": 720,
            "time": 4.411755,
            "value": 0.7874015748031497
          },
          {
            "number": 11,
            "ticks": 730,
            "time": 4.473029375,
            "value": 0.7322834645669292
          },
          {
            "number": 11,
            "ticks": 740,
            "time": 4.53430375,
            "value": 0.6692913385826772
          },
          {
            "number": 11,
            "ticks": 750,
            "time": 4.595578125000001,
            "value": 0.6062992125984252
          },
          {
            "number": 11,
            "ticks": 760,
            "time": 4.6568525,
            "value": 0.5433070866141733
          },
          {
            "number": 11,
            "ticks": 770,
            "time": 4.718126875,
            "value": 0.48031496062992124
          },
          {
            "number": 11,
            "ticks": 780,
            "time": 4.779401250000001,
            "value": 0.41732283464566927
          },
          {
            "number": 11,
            "ticks": 790,
            "time": 4.840675625,
            "value": 0.3543307086614173
          },
          {
            "number": 11,
            "ticks": 792,
            "time": 4.852930500000001,
            "value": 0.3464566929133858
          },
          {
            "number": 11,
            "ticks": 792,
            "time": 4.852930500000001,
            "value": 0.7874015748031497
          },
          {
            "number": 11,
            "ticks": 802,
            "time": 4.914204875,
            "value": 0.7007874015748031
          },
          {
            "number": 11,
            "ticks": 812,
            "time": 4.97547925,
            "value": 0.6062992125984252
          },
          {
            "number": 11,
            "ticks": 822,
            "time": 5.036753625000001,
            "value": 0.5118110236220472
          },
          {
            "number": 11,
            "ticks": 832,
            "time": 5.098028,
            "value": 0.41732283464566927
          },
          {
            "number": 11,
            "ticks": 840,
            "time": 5.147047500000001,
            "value": 0.3464566929133858
          },
          {
            "number": 11,
            "ticks": 840,
            "time": 5.147047500000001,
            "value": 0.7874015748031497
          },
          {
            "number": 11,
            "ticks": 850,
            "time": 5.208321875,
            "value": 0.7007874015748031
          },
          {
            "number": 11,
            "ticks": 860,
            "time": 5.26959625,
            "value": 0.6062992125984252
          },
          {
            "number": 11,
            "ticks": 870,
            "time": 5.330870625000001,
            "value": 0.5118110236220472
          },
          {
            "number": 11,
            "ticks": 880,
            "time": 5.392145,
            "value": 0.41732283464566927
          },
          {
            "number": 11,
            "ticks": 888,
            "time": 5.441164500000001,
            "value": 0.3464566929133858
          },
          {
            "number": 11,
            "ticks": 888,
            "time": 5.441164500000001,
            "value": 0.7874015748031497
          },
          {
            "number": 11,
            "ticks": 898,
            "time": 5.502438875,
            "value": 0.7007874015748031
          },
          {
            "number": 11,
            "ticks": 908,
            "time": 5.563713250000001,
            "value": 0.6062992125984252
          },
          {
            "number": 11,
            "ticks": 918,
            "time": 5.624987625000001,
            "value": 0.5118110236220472
          },
          {
            "number": 11,
            "ticks": 928,
            "time": 5.686262,
            "value": 0.41732283464566927
          },
          {
            "number": 11,
            "ticks": 936,
            "time": 5.735281500000001,
            "value": 0.7874015748031497
          },
          {
            "number": 11,
            "ticks": 946,
            "time": 5.796555875,
            "value": 0.7007874015748031
          },
          {
            "number": 11,
            "ticks": 956,
            "time": 5.857830250000001,
            "value": 0.6062992125984252
          },
          {
            "number": 11,
            "ticks": 966,
            "time": 5.919104625000001,
            "value": 0.5118110236220472
          },
          {
            "number": 11,
            "ticks": 976,
            "time": 5.980379000000001,
            "value": 0.41732283464566927
          },
          {
            "number": 11,
            "ticks": 984,
            "time": 6.029398500000001,
            "value": 0.7874015748031497
          },
          {
            "number": 11,
            "ticks": 1320,
            "time": 8.0882175,
            "value": 0.7874015748031497
          },
          {
            "number": 11,
            "ticks": 1330,
            "time": 8.149491875,
            "value": 0.7322834645669292
          },
          {
            "number": 11,
            "ticks": 1340,
            "time": 8.21076625,
            "value": 0.6692913385826772
          },
          {
            "number": 11,
            "ticks": 1350,
            "time": 8.272040625,
            "value": 0.6062992125984252
          },
          {
            "number": 11,
            "ticks": 1360,
            "time": 8.333315,
            "value": 0.5433070866141733
          },
          {
            "number": 11,
            "ticks": 1370,
            "time": 8.394589375,
            "value": 0.48031496062992124
          },
          {
            "number": 11,
            "ticks": 1380,
            "time": 8.45586375,
            "value": 0.41732283464566927
          },
          {
            "number": 11,
            "ticks": 1390,
            "time": 8.517138125,
            "value": 0.3543307086614173
          },
          {
            "number": 11,
            "ticks": 1392,
            "time": 8.529393,
            "value": 0.3464566929133858
          },
          {
            "number": 11,
            "ticks": 1392,
            "time": 8.529393,
            "value": 0.7874015748031497
          },
          {
            "number": 11,
            "ticks": 1402,
            "time": 8.590667375,
            "value": 0.7322834645669292
          },
          {
            "number": 11,
            "ticks": 1412,
            "time": 8.65194175,
            "value": 0.6692913385826772
          },
          {
            "number": 11,
            "ticks": 1422,
            "time": 8.713216125,
            "value": 0.6062992125984252
          },
          {
            "number": 11,
            "ticks": 1432,
            "time": 8.7744905,
            "value": 0.5433070866141733
          },
          {
            "number": 11,
            "ticks": 1442,
            "time": 8.835764875,
            "value": 0.48031496062992124
          },
          {
            "number": 11,
            "ticks": 1452,
            "time": 8.89703925,
            "value": 0.41732283464566927
          },
          {
            "number": 11,
            "ticks": 1462,
            "time": 8.958313625,
            "value": 0.3543307086614173
          },
          {
            "number": 11,
            "ticks": 1464,
            "time": 8.9705685,
            "value": 0.3464566929133858
          },
          {
            "number": 11,
            "ticks": 1464,
            "time": 8.9705685,
            "value": 0.7874015748031497
          },
          {
            "number": 11,
            "ticks": 1474,
            "time": 9.031842875,
            "value": 0.7007874015748031
          },
          {
            "number": 11,
            "ticks": 1484,
            "time": 9.09311725,
            "value": 0.6062992125984252
          },
          {
            "number": 11,
            "ticks": 1494,
            "time": 9.154391625,
            "value": 0.5118110236220472
          },
          {
            "number": 11,
            "ticks": 1504,
            "time": 9.215666,
            "value": 0.41732283464566927
          },
          {
            "number": 11,
            "ticks": 1512,
            "time": 9.2646855,
            "value": 0.3464566929133858
          },
          {
            "number": 11,
            "ticks": 1512,
            "time": 9.2646855,
            "value": 0.7874015748031497
          },
          {
            "number": 11,
            "ticks": 1522,
            "time": 9.325959875,
            "value": 0.7007874015748031
          },
          {
            "number": 11,
            "ticks": 1532,
            "time": 9.38723425,
            "value": 0.6062992125984252
          },
          {
            "number": 11,
            "ticks": 1542,
            "time": 9.448508625,
            "value": 0.5118110236220472
          },
          {
            "number": 11,
            "ticks": 1552,
            "time": 9.509783,
            "value": 0.41732283464566927
          },
          {
            "number": 11,
            "ticks": 1560,
            "time": 9.5588025,
            "value": 0.3464566929133858
          },
          {
            "number": 11,
            "ticks": 1560,
            "time": 9.5588025,
            "value": 0.7874015748031497
          },
          {
            "number": 11,
            "ticks": 1570,
            "time": 9.620076875,
            "value": 0.7007874015748031
          },
          {
            "number": 11,
            "ticks": 1580,
            "time": 9.68135125,
            "value": 0.6062992125984252
          },
          {
            "number": 11,
            "ticks": 1590,
            "time": 9.742625625,
            "value": 0.5118110236220472
          },
          {
            "number": 11,
            "ticks": 1600,
            "time": 9.8039,
            "value": 0.41732283464566927
          },
          {
            "number": 11,
            "ticks": 1608,
            "time": 9.8529195,
            "value": 0.3464566929133858
          },
          {
            "number": 11,
            "ticks": 1608,
            "time": 9.8529195,
            "value": 0.7874015748031497
          },
          {
            "number": 11,
            "ticks": 1618,
            "time": 9.914193875,
            "value": 0.7007874015748031
          },
          {
            "number": 11,
            "ticks": 1628,
            "time": 9.97546825,
            "value": 0.6062992125984252
          },
          {
            "number": 11,
            "ticks": 1638,
            "time": 10.036742625,
            "value": 0.5118110236220472
          },
          {
            "number": 11,
            "ticks": 1648,
            "time": 10.098017,
            "value": 0.41732283464566927
          },
          {
            "number": 11,
            "ticks": 1656,
            "time": 10.1470365,
            "value": 0.7874015748031497
          },
          {
            "number": 11,
            "ticks": 1992,
            "time": 12.2058555,
            "value": 0.7874015748031497
          },
          {
            "number": 11,
            "ticks": 2002,
            "time": 12.267129875,
            "value": 0.7322834645669292
          },
          {
            "number": 11,
            "ticks": 2012,
            "time": 12.32840425,
            "value": 0.6692913385826772
          },
          {
            "number": 11,
            "ticks": 2022,
            "time": 12.389678625000002,
            "value": 0.6062992125984252
          },
          {
            "number": 11,
            "ticks": 2032,
            "time": 12.450953,
            "value": 0.5433070866141733
          },
          {
            "number": 11,
            "ticks": 2042,
            "time": 12.512227375,
            "value": 0.48031496062992124
          },
          {
            "number": 11,
            "ticks": 2052,
            "time": 12.573501750000002,
            "value": 0.41732283464566927
          },
          {
            "number": 11,
            "ticks": 2062,
            "time": 12.634776125,
            "value": 0.3543307086614173
          },
          {
            "number": 11,
            "ticks": 2064,
            "time": 12.647031000000002,
            "value": 0.3464566929133858
          },
          {
            "number": 11,
            "ticks": 2064,
            "time": 12.647031000000002,
            "value": 0.7874015748031497
          },
          {
            "number": 11,
            "ticks": 2074,
            "time": 12.708305375,
            "value": 0.7322834645669292
          },
          {
            "number": 11,
            "ticks": 2084,
            "time": 12.76957975,
            "value": 0.6692913385826772
          },
          {
            "number": 11,
            "ticks": 2094,
            "time": 12.830854125000002,
            "value": 0.6062992125984252
          },
          {
            "number": 11,
            "ticks": 2104,
            "time": 12.8921285,
            "value": 0.5433070866141733
          },
          {
            "number": 11,
            "ticks": 2114,
            "time": 12.953402875,
            "value": 0.48031496062992124
          },
          {
            "number": 11,
            "ticks": 2124,
            "time": 13.014677250000002,
            "value": 0.41732283464566927
          },
          {
            "number": 11,
            "ticks": 2134,
            "time": 13.075951625,
            "value": 0.3543307086614173
          },
          {
            "number": 11,
            "ticks": 2136,
            "time": 13.088206500000002,
            "value": 0.3464566929133858
          },
          {
            "number": 11,
            "ticks": 2136,
            "time": 13.088206500000002,
            "value": 0.7874015748031497
          },
          {
            "number": 11,
            "ticks": 2146,
            "time": 13.149480875,
            "value": 0.7007874015748031
          },
          {
            "number": 11,
            "ticks": 2156,
            "time": 13.21075525,
            "value": 0.6062992125984252
          },
          {
            "number": 11,
            "ticks": 2166,
            "time": 13.272029625000002,
            "value": 0.5118110236220472
          },
          {
            "number": 11,
            "ticks": 2176,
            "time": 13.333304,
            "value": 0.41732283464566927
          },
          {
            "number": 11,
            "ticks": 2184,
            "time": 13.382323500000002,
            "value": 0.3464566929133858
          },
          {
            "number": 11,
            "ticks": 2184,
            "time": 13.382323500000002,
            "value": 0.7874015748031497
          },
          {
            "number": 11,
            "ticks": 2194,
            "time": 13.443597875,
            "value": 0.7007874015748031
          },
          {
            "number": 11,
            "ticks": 2204,
            "time": 13.50487225,
            "value": 0.6062992125984252
          },
          {
            "number": 11,
            "ticks": 2214,
            "time": 13.566146625000002,
            "value": 0.5118110236220472
          },
          {
            "number": 11,
            "ticks": 2224,
            "time": 13.627421,
            "value": 0.41732283464566927
          },
          {
            "number": 11,
            "ticks": 2232,
            "time": 13.676440500000002,
            "value": 0.3464566929133858
          },
          {
            "number": 11,
            "ticks": 2232,
            "time": 13.676440500000002,
            "value": 0.7874015748031497
          },
          {
            "number": 11,
            "ticks": 2242,
            "time": 13.737714875,
            "value": 0.7007874015748031
          },
          {
            "number": 11,
            "ticks": 2252,
            "time": 13.79898925,
            "value": 0.6062992125984252
          },
          {
            "number": 11,
            "ticks": 2262,
            "time": 13.860263625000002,
            "value": 0.5118110236220472
          },
          {
            "number": 11,
            "ticks": 2272,
            "time": 13.921538,
            "value": 0.41732283464566927
          },
          {
            "number": 11,
            "ticks": 2280,
            "time": 13.970557500000002,
            "value": 0.7874015748031497
          },
          {
            "number": 11,
            "ticks": 2290,
            "time": 14.031831875,
            "value": 0.7007874015748031
          },
          {
            "number": 11,
            "ticks": 2300,
            "time": 14.09310625,
            "value": 0.6062992125984252
          },
          {
            "number": 11,
            "ticks": 2310,
            "time": 14.154380625000002,
            "value": 0.5118110236220472
          },
          {
            "number": 11,
            "ticks": 2320,
            "time": 14.215655,
            "value": 0.41732283464566927
          },
          {
            "number": 11,
            "ticks": 2328,
            "time": 14.264674500000002,
            "value": 0.7874015748031497
          },
          {
            "number": 11,
            "ticks": 2664,
            "time": 16.3234935,
            "value": 0.7874015748031497
          },
          {
            "number": 11,
            "ticks": 2674,
            "time": 16.384767875,
            "value": 0.7322834645669292
          },
          {
            "number": 11,
            "ticks": 2684,
            "time": 16.44604225,
            "value": 0.6692913385826772
          },
          {
            "number": 11,
            "ticks": 2694,
            "time": 16.507316625,
            "value": 0.6062992125984252
          },
          {
            "number": 11,
            "ticks": 2704,
            "time": 16.568591,
            "value": 0.5433070866141733
          },
          {
            "number": 11,
            "ticks": 2714,
            "time": 16.629865375,
            "value": 0.48031496062992124
          },
          {
            "number": 11,
            "ticks": 2724,
            "time": 16.69113975,
            "value": 0.41732283464566927
          },
          {
            "number": 11,
            "ticks": 2734,
            "time": 16.752414125,
            "value": 0.3543307086614173
          },
          {
            "number": 11,
            "ticks": 2736,
            "time": 16.764669,
            "value": 0.3464566929133858
          },
          {
            "number": 11,
            "ticks": 2736,
            "time": 16.764669,
            "value": 0.7874015748031497
          },
          {
            "number": 11,
            "ticks": 2746,
            "time": 16.825943375,
            "value": 0.7322834645669292
          },
          {
            "number": 11,
            "ticks": 2756,
            "time": 16.88721775,
            "value": 0.6692913385826772
          },
          {
            "number": 11,
            "ticks": 2766,
            "time": 16.948492125,
            "value": 0.6062992125984252
          },
          {
            "number": 11,
            "ticks": 2776,
            "time": 17.0097665,
            "value": 0.5433070866141733
          },
          {
            "number": 11,
            "ticks": 2786,
            "time": 17.071040875,
            "value": 0.48031496062992124
          },
          {
            "number": 11,
            "ticks": 2796,
            "time": 17.13231525,
            "value": 0.41732283464566927
          },
          {
            "number": 11,
            "ticks": 2806,
            "time": 17.193589625,
            "value": 0.3543307086614173
          },
          {
            "number": 11,
            "ticks": 2808,
            "time": 17.2058445,
            "value": 0.3464566929133858
          },
          {
            "number": 11,
            "ticks": 2808,
            "time": 17.2058445,
            "value": 0.7874015748031497
          },
          {
            "number": 11,
            "ticks": 2818,
            "time": 17.267118875,
            "value": 0.7007874015748031
          },
          {
            "number": 11,
            "ticks": 2828,
            "time": 17.32839325,
            "value": 0.6062992125984252
          },
          {
            "number": 11,
            "ticks": 2838,
            "time": 17.389667625,
            "value": 0.5118110236220472
          },
          {
            "number": 11,
            "ticks": 2848,
            "time": 17.450942,
            "value": 0.41732283464566927
          },
          {
            "number": 11,
            "ticks": 2856,
            "time": 17.4999615,
            "value": 0.3464566929133858
          },
          {
            "number": 11,
            "ticks": 2856,
            "time": 17.4999615,
            "value": 0.7874015748031497
          },
          {
            "number": 11,
            "ticks": 2866,
            "time": 17.561235875,
            "value": 0.7007874015748031
          },
          {
            "number": 11,
            "ticks": 2876,
            "time": 17.62251025,
            "value": 0.6062992125984252
          },
          {
            "number": 11,
            "ticks": 2886,
            "time": 17.683784625,
            "value": 0.5118110236220472
          },
          {
            "number": 11,
            "ticks": 2896,
            "time": 17.745059,
            "value": 0.41732283464566927
          },
          {
            "number": 11,
            "ticks": 2904,
            "time": 17.7940785,
            "value": 0.3464566929133858
          },
          {
            "number": 11,
            "ticks": 2904,
            "time": 17.7940785,
            "value": 0.7874015748031497
          },
          {
            "number": 11,
            "ticks": 2914,
            "time": 17.855352875,
            "value": 0.7007874015748031
          },
          {
            "number": 11,
            "ticks": 2924,
            "time": 17.91662725,
            "value": 0.6062992125984252
          },
          {
            "number": 11,
            "ticks": 2934,
            "time": 17.977901625,
            "value": 0.5118110236220472
          },
          {
            "number": 11,
            "ticks": 2944,
            "time": 18.039176,
            "value": 0.41732283464566927
          },
          {
            "number": 11,
            "ticks": 2952,
            "time": 18.0881955,
            "value": 0.3464566929133858
          },
          {
            "number": 11,
            "ticks": 2952,
            "time": 18.0881955,
            "value": 0.7874015748031497
          },
          {
            "number": 11,
            "ticks": 2962,
            "time": 18.149469875,
            "value": 0.7007874015748031
          },
          {
            "number": 11,
            "ticks": 2972,
            "time": 18.21074425,
            "value": 0.6062992125984252
          },
          {
            "number": 11,
            "ticks": 2982,
            "time": 18.272018625,
            "value": 0.5118110236220472
          },
          {
            "number": 11,
            "ticks": 2992,
            "time": 18.333293,
            "value": 0.41732283464566927
          },
          {
            "number": 11,
            "ticks": 8952,
            "time": 54.85282050000001,
            "value": 0.7874015748031497
          },
          {
            "number": 11,
            "ticks": 9480,
            "time": 58.08810750000001,
            "value": 0.7874015748031497
          },
          {
            "number": 11,
            "ticks": 9490,
            "time": 58.149381875,
            "value": 0.7322834645669292
          },
          {
            "number": 11,
            "ticks": 9500,
            "time": 58.21065625,
            "value": 0.6692913385826772
          },
          {
            "number": 11,
            "ticks": 9510,
            "time": 58.271930625,
            "value": 0.6062992125984252
          },
          {
            "number": 11,
            "ticks": 9520,
            "time": 58.333205,
            "value": 0.5433070866141733
          },
          {
            "number": 11,
            "ticks": 9530,
            "time": 58.394479375,
            "value": 0.48031496062992124
          },
          {
            "number": 11,
            "ticks": 9540,
            "time": 58.45575375000001,
            "value": 0.41732283464566927
          },
          {
            "number": 11,
            "ticks": 9550,
            "time": 58.517028125,
            "value": 0.3543307086614173
          },
          {
            "number": 11,
            "ticks": 9552,
            "time": 58.52928300000001,
            "value": 0.3464566929133858
          },
          {
            "number": 11,
            "ticks": 9552,
            "time": 58.52928300000001,
            "value": 0.7874015748031497
          },
          {
            "number": 11,
            "ticks": 9562,
            "time": 58.590557375,
            "value": 0.7322834645669292
          },
          {
            "number": 11,
            "ticks": 9572,
            "time": 58.65183175000001,
            "value": 0.6692913385826772
          },
          {
            "number": 11,
            "ticks": 9582,
            "time": 58.713106125,
            "value": 0.6062992125984252
          },
          {
            "number": 11,
            "ticks": 9592,
            "time": 58.7743805,
            "value": 0.5433070866141733
          },
          {
            "number": 11,
            "ticks": 9602,
            "time": 58.835654875,
            "value": 0.48031496062992124
          },
          {
            "number": 11,
            "ticks": 9612,
            "time": 58.89692925000001,
            "value": 0.41732283464566927
          },
          {
            "number": 11,
            "ticks": 9622,
            "time": 58.958203625,
            "value": 0.3543307086614173
          },
          {
            "number": 11,
            "ticks": 9624,
            "time": 58.97045850000001,
            "value": 0.3464566929133858
          },
          {
            "number": 11,
            "ticks": 9624,
            "time": 58.97045850000001,
            "value": 0.7874015748031497
          },
          {
            "number": 11,
            "ticks": 9634,
            "time": 59.031732875,
            "value": 0.7007874015748031
          },
          {
            "number": 11,
            "ticks": 9644,
            "time": 59.09300725000001,
            "value": 0.6062992125984252
          },
          {
            "number": 11,
            "ticks": 9654,
            "time": 59.154281625,
            "value": 0.5118110236220472
          },
          {
            "number": 11,
            "ticks": 9664,
            "time": 59.215556,
            "value": 0.41732283464566927
          },
          {
            "number": 11,
            "ticks": 9672,
            "time": 59.26457550000001,
            "value": 0.3464566929133858
          },
          {
            "number": 11,
            "ticks": 9672,
            "time": 59.26457550000001,
            "value": 0.7874015748031497
          },
          {
            "number": 11,
            "ticks": 9682,
            "time": 59.325849875,
            "value": 0.7007874015748031
          },
          {
            "number": 11,
            "ticks": 9692,
            "time": 59.38712425000001,
            "value": 0.6062992125984252
          },
          {
            "number": 11,
            "ticks": 9702,
            "time": 59.448398625,
            "value": 0.5118110236220472
          },
          {
            "number": 11,
            "ticks": 9712,
            "time": 59.509673,
            "value": 0.41732283464566927
          },
          {
            "number": 11,
            "ticks": 9720,
            "time": 59.55869250000001,
            "value": 0.3464566929133858
          },
          {
            "number": 11,
            "ticks": 9720,
            "time": 59.55869250000001,
            "value": 0.7874015748031497
          },
          {
            "number": 11,
            "ticks": 9730,
            "time": 59.619966875,
            "value": 0.7007874015748031
          },
          {
            "number": 11,
            "ticks": 9740,
            "time": 59.68124125000001,
            "value": 0.6062992125984252
          },
          {
            "number": 11,
            "ticks": 9750,
            "time": 59.742515625,
            "value": 0.5118110236220472
          },
          {
            "number": 11,
            "ticks": 9760,
            "time": 59.80379,
            "value": 0.41732283464566927
          },
          {
            "number": 11,
            "ticks": 9768,
            "time": 59.852809500000006,
            "value": 0.7874015748031497
          },
          {
            "number": 11,
            "ticks": 9778,
            "time": 59.914083875,
            "value": 0.7007874015748031
          },
          {
            "number": 11,
            "ticks": 9788,
            "time": 59.975358250000006,
            "value": 0.6062992125984252
          },
          {
            "number": 11,
            "ticks": 9798,
            "time": 60.036632625,
            "value": 0.5118110236220472
          },
          {
            "number": 11,
            "ticks": 9808,
            "time": 60.097907,
            "value": 0.41732283464566927
          },
          {
            "number": 11,
            "ticks": 9816,
            "time": 60.146926500000006,
            "value": 0.7874015748031497
          }
        ],
        "32": [
          {
            "number": 32,
            "ticks": 984,
            "time": 6.029398500000001,
            "value": 0.015748031496062992
          },
          {
            "number": 32,
            "ticks": 1656,
            "time": 10.1470365,
            "value": 0.015748031496062992
          },
          {
            "number": 32,
            "ticks": 2328,
            "time": 14.264674500000002,
            "value": 0.015748031496062992
          },
          {
            "number": 32,
            "ticks": 8952,
            "time": 54.85282050000001,
            "value": 0.015748031496062992
          },
          {
            "number": 32,
            "ticks": 9816,
            "time": 60.146926500000006,
            "value": 0.015748031496062992
          }
        ],
        "93": [
          {
            "number": 93,
            "ticks": 8952,
            "time": 54.85282050000001,
            "value": 0.1889763779527559
          }
        ],
        "94": [
          {
            "number": 94,
            "ticks": 8952,
            "time": 54.85282050000001,
            "value": 0.47244094488188976
          }
        ]
      },
      "pitchBends": [],
      "instrument": {
        "family": "ensemble",
        "number": 50,
        "name": "synthstrings 1"
      },
      "name": "",
      "notes": [
        {
          "duration": 0.39215599999999995,
          "durationTicks": 64,
          "midi": 66,
          "name": "F#4",
          "ticks": 648,
          "time": 3.9705795000000004,
          "velocity": 1
        },
        {
          "duration": 0.39215599999999995,
          "durationTicks": 64,
          "midi": 73,
          "name": "C#5",
          "ticks": 720,
          "time": 4.411755,
          "velocity": 1
        },
        {
          "duration": 0.24509749999999908,
          "durationTicks": 40,
          "midi": 83,
          "name": "B5",
          "ticks": 792,
          "time": 4.852930500000001,
          "velocity": 1
        },
        {
          "duration": 0.24509749999999908,
          "durationTicks": 40,
          "midi": 82,
          "name": "A#5",
          "ticks": 840,
          "time": 5.147047500000001,
          "velocity": 1
        },
        {
          "duration": 0.24509749999999908,
          "durationTicks": 40,
          "midi": 78,
          "name": "F#5",
          "ticks": 888,
          "time": 5.441164500000001,
          "velocity": 1
        },
        {
          "duration": 0.24509749999999997,
          "durationTicks": 40,
          "midi": 80,
          "name": "G#5",
          "ticks": 936,
          "time": 5.735281500000001,
          "velocity": 1
        },
        {
          "duration": 0.39215599999999995,
          "durationTicks": 64,
          "midi": 66,
          "name": "F#4",
          "ticks": 1320,
          "time": 8.0882175,
          "velocity": 1
        },
        {
          "duration": 0.39215599999999995,
          "durationTicks": 64,
          "midi": 73,
          "name": "C#5",
          "ticks": 1392,
          "time": 8.529393,
          "velocity": 1
        },
        {
          "duration": 0.24509749999999997,
          "durationTicks": 40,
          "midi": 83,
          "name": "B5",
          "ticks": 1464,
          "time": 8.9705685,
          "velocity": 1
        },
        {
          "duration": 0.24509749999999997,
          "durationTicks": 40,
          "midi": 82,
          "name": "A#5",
          "ticks": 1512,
          "time": 9.2646855,
          "velocity": 1
        },
        {
          "duration": 0.24509749999999997,
          "durationTicks": 40,
          "midi": 78,
          "name": "F#5",
          "ticks": 1560,
          "time": 9.5588025,
          "velocity": 1
        },
        {
          "duration": 0.24509749999999997,
          "durationTicks": 40,
          "midi": 80,
          "name": "G#5",
          "ticks": 1608,
          "time": 9.8529195,
          "velocity": 1
        },
        {
          "duration": 0.39215599999999995,
          "durationTicks": 64,
          "midi": 66,
          "name": "F#4",
          "ticks": 1992,
          "time": 12.2058555,
          "velocity": 1
        },
        {
          "duration": 0.3921559999999982,
          "durationTicks": 64,
          "midi": 73,
          "name": "C#5",
          "ticks": 2064,
          "time": 12.647031000000002,
          "velocity": 1
        },
        {
          "duration": 0.2450974999999982,
          "durationTicks": 40,
          "midi": 83,
          "name": "B5",
          "ticks": 2136,
          "time": 13.088206500000002,
          "velocity": 1
        },
        {
          "duration": 0.2450974999999982,
          "durationTicks": 40,
          "midi": 82,
          "name": "A#5",
          "ticks": 2184,
          "time": 13.382323500000002,
          "velocity": 1
        },
        {
          "duration": 0.2450974999999982,
          "durationTicks": 40,
          "midi": 78,
          "name": "F#5",
          "ticks": 2232,
          "time": 13.676440500000002,
          "velocity": 1
        },
        {
          "duration": 0.2450974999999982,
          "durationTicks": 40,
          "midi": 80,
          "name": "G#5",
          "ticks": 2280,
          "time": 13.970557500000002,
          "velocity": 1
        },
        {
          "duration": 0.39215599999999995,
          "durationTicks": 64,
          "midi": 66,
          "name": "F#4",
          "ticks": 2664,
          "time": 16.3234935,
          "velocity": 1
        },
        {
          "duration": 0.39215599999999995,
          "durationTicks": 64,
          "midi": 73,
          "name": "C#5",
          "ticks": 2736,
          "time": 16.764669,
          "velocity": 1
        },
        {
          "duration": 0.24509749999999997,
          "durationTicks": 40,
          "midi": 83,
          "name": "B5",
          "ticks": 2808,
          "time": 17.2058445,
          "velocity": 1
        },
        {
          "duration": 0.24509749999999997,
          "durationTicks": 40,
          "midi": 82,
          "name": "A#5",
          "ticks": 2856,
          "time": 17.4999615,
          "velocity": 1
        },
        {
          "duration": 0.24509749999999997,
          "durationTicks": 40,
          "midi": 78,
          "name": "F#5",
          "ticks": 2904,
          "time": 17.7940785,
          "velocity": 1
        },
        {
          "duration": 0.24509749999999997,
          "durationTicks": 40,
          "midi": 80,
          "name": "G#5",
          "ticks": 2952,
          "time": 18.0881955,
          "velocity": 1
        },
        {
          "duration": 0.39215599999999284,
          "durationTicks": 64,
          "midi": 66,
          "name": "F#4",
          "ticks": 9480,
          "time": 58.08810750000001,
          "velocity": 1
        },
        {
          "duration": 0.39215599999999284,
          "durationTicks": 64,
          "midi": 73,
          "name": "C#5",
          "ticks": 9552,
          "time": 58.52928300000001,
          "velocity": 1
        },
        {
          "duration": 0.24509749999999286,
          "durationTicks": 40,
          "midi": 83,
          "name": "B5",
          "ticks": 9624,
          "time": 58.97045850000001,
          "velocity": 1
        },
        {
          "duration": 0.24509749999999286,
          "durationTicks": 40,
          "midi": 82,
          "name": "A#5",
          "ticks": 9672,
          "time": 59.26457550000001,
          "velocity": 1
        },
        {
          "duration": 0.24509749999999286,
          "durationTicks": 40,
          "midi": 78,
          "name": "F#5",
          "ticks": 9720,
          "time": 59.55869250000001,
          "velocity": 1
        },
        {
          "duration": 0.24509749999999286,
          "durationTicks": 40,
          "midi": 80,
          "name": "G#5",
          "ticks": 9768,
          "time": 59.852809500000006,
          "velocity": 1
        }
      ]
    },
    {
      "channel": 0,
      "controlChanges": {
        "0": [
          {
            "number": 0,
            "ticks": 192,
            "time": 1.176468,
            "value": 0.1889763779527559
          }
        ],
        "1": [
          {
            "number": 1,
            "ticks": 188,
            "time": 1.15195825,
            "value": 0
          }
        ],
        "5": [
          {
            "number": 5,
            "ticks": 191,
            "time": 1.1703405625,
            "value": 0
          }
        ],
        "6": [
          {
            "number": 6,
            "ticks": 176,
            "time": 1.078429,
            "value": 0.12598425196850394
          },
          {
            "number": 6,
            "ticks": 178,
            "time": 1.090683875,
            "value": 0.4645669291338583
          },
          {
            "number": 6,
            "ticks": 179,
            "time": 1.0968113125,
            "value": 0.5118110236220472
          },
          {
            "number": 6,
            "ticks": 180,
            "time": 1.10293875,
            "value": 0.5118110236220472
          },
          {
            "number": 6,
            "ticks": 181,
            "time": 1.1090661875,
            "value": 0.5039370078740157
          }
        ],
        "7": [
          {
            "number": 7,
            "ticks": 185,
            "time": 1.1335759375,
            "value": 0.5118110236220472
          }
        ],
        "10": [
          {
            "number": 10,
            "ticks": 187,
            "time": 1.1458308125,
            "value": 0.5039370078740157
          }
        ],
        "11": [
          {
            "number": 11,
            "ticks": 186,
            "time": 1.139703375,
            "value": 0.7874015748031497
          }
        ],
        "32": [
          {
            "number": 32,
            "ticks": 193,
            "time": 1.1825954375,
            "value": 0.015748031496062992
          }
        ],
        "64": [
          {
            "number": 64,
            "ticks": 189,
            "time": 1.1580856875,
            "value": 0
          }
        ],
        "65": [
          {
            "number": 65,
            "ticks": 190,
            "time": 1.164213125,
            "value": 0
          }
        ],
        "91": [
          {
            "number": 91,
            "ticks": 170,
            "time": 1.041664375,
            "value": 0.5039370078740157
          }
        ],
        "93": [
          {
            "number": 93,
            "ticks": 171,
            "time": 1.0477918125,
            "value": 0.1889763779527559
          }
        ],
        "94": [
          {
            "number": 94,
            "ticks": 172,
            "time": 1.05391925,
            "value": 0.47244094488188976
          }
        ],
        "98": [
          {
            "number": 98,
            "ticks": 179,
            "time": 1.0968113125,
            "value": 0.06299212598425197
          },
          {
            "number": 98,
            "ticks": 180,
            "time": 1.10293875,
            "value": 0.07086614173228346
          },
          {
            "number": 98,
            "ticks": 181,
            "time": 1.1090661875,
            "value": 0.07874015748031496
          }
        ],
        "99": [
          {
            "number": 99,
            "ticks": 179,
            "time": 1.0968113125,
            "value": 0.007874015748031496
          },
          {
            "number": 99,
            "ticks": 180,
            "time": 1.10293875,
            "value": 0.007874015748031496
          },
          {
            "number": 99,
            "ticks": 181,
            "time": 1.1090661875,
            "value": 0.007874015748031496
          }
        ],
        "100": [
          {
            "number": 100,
            "ticks": 174,
            "time": 1.066174125,
            "value": 0
          },
          {
            "number": 100,
            "ticks": 178,
            "time": 1.090683875,
            "value": 0.007874015748031496
          }
        ],
        "101": [
          {
            "number": 101,
            "ticks": 175,
            "time": 1.0723015625,
            "value": 0
          },
          {
            "number": 101,
            "ticks": 178,
            "time": 1.090683875,
            "value": 0
          }
        ]
      },
      "pitchBends": [
        {
          "ticks": 177,
          "time": 1.0845564375,
          "value": 0
        }
      ],
      "instrument": {
        "family": "piano",
        "number": 0,
        "name": "acoustic grand piano"
      },
      "name": "LEAD++\u0000",
      "notes": [],
      "endOfTrackTicks": 9912
    },
    {
      "channel": 4,
      "controlChanges": {
        "0": [
          {
            "number": 0,
            "ticks": 8952,
            "time": 54.85282050000001,
            "value": 0.1889763779527559
          }
        ],
        "6": [
          {
            "number": 6,
            "ticks": 195,
            "time": 1.1948503125,
            "value": 1
          },
          {
            "number": 6,
            "ticks": 196,
            "time": 1.20097775,
            "value": 0.5511811023622047
          },
          {
            "number": 6,
            "ticks": 197,
            "time": 1.2071051875,
            "value": 0.47244094488188976
          },
          {
            "number": 6,
            "ticks": 198,
            "time": 1.213232625,
            "value": 0.5511811023622047
          },
          {
            "number": 6,
            "ticks": 199,
            "time": 1.2193600625,
            "value": 0.7086614173228346
          },
          {
            "number": 6,
            "ticks": 8964,
            "time": 54.92634975000001,
            "value": 1
          },
          {
            "number": 6,
            "ticks": 8976,
            "time": 54.99987900000001,
            "value": 0.47244094488188976
          },
          {
            "number": 6,
            "ticks": 8976,
            "time": 54.99987900000001,
            "value": 0.4645669291338583
          },
          {
            "number": 6,
            "ticks": 8988,
            "time": 55.07340825000001,
            "value": 0.6299212598425197
          }
        ],
        "7": [
          {
            "number": 7,
            "ticks": 648,
            "time": 3.9705795000000004,
            "value": 0.5669291338582677
          },
          {
            "number": 7,
            "ticks": 984,
            "time": 6.029398500000001,
            "value": 0.5118110236220472
          },
          {
            "number": 7,
            "ticks": 1320,
            "time": 8.0882175,
            "value": 0.5669291338582677
          },
          {
            "number": 7,
            "ticks": 1656,
            "time": 10.1470365,
            "value": 0.5118110236220472
          },
          {
            "number": 7,
            "ticks": 1992,
            "time": 12.2058555,
            "value": 0.5669291338582677
          },
          {
            "number": 7,
            "ticks": 2328,
            "time": 14.264674500000002,
            "value": 0.5118110236220472
          },
          {
            "number": 7,
            "ticks": 2664,
            "time": 16.3234935,
            "value": 0.5669291338582677
          },
          {
            "number": 7,
            "ticks": 9000,
            "time": 55.14693750000001,
            "value": 0.5118110236220472
          },
          {
            "number": 7,
            "ticks": 9192,
            "time": 56.32340550000001,
            "value": 0.5118110236220472
          },
          {
            "number": 7,
            "ticks": 9240,
            "time": 56.61752250000001,
            "value": 0.47244094488188976
          },
          {
            "number": 7,
            "ticks": 9288,
            "time": 56.91163950000001,
            "value": 0.4409448818897638
          },
          {
            "number": 7,
            "ticks": 9336,
            "time": 57.20575650000001,
            "value": 0.4094488188976378
          },
          {
            "number": 7,
            "ticks": 9384,
            "time": 57.49987350000001,
            "value": 0.3779527559055118
          },
          {
            "number": 7,
            "ticks": 9432,
            "time": 57.79399050000001,
            "value": 0.3464566929133858
          },
          {
            "number": 7,
            "ticks": 9480,
            "time": 58.08810750000001,
            "value": 0.31496062992125984
          },
          {
            "number": 7,
            "ticks": 9480,
            "time": 58.08810750000001,
            "value": 0.31496062992125984
          },
          {
            "number": 7,
            "ticks": 9528,
            "time": 58.38222450000001,
            "value": 0.31496062992125984
          },
          {
            "number": 7,
            "ticks": 9576,
            "time": 58.67634150000001,
            "value": 0.28346456692913385
          },
          {
            "number": 7,
            "ticks": 9624,
            "time": 58.97045850000001,
            "value": 0.2440944881889764
          },
          {
            "number": 7,
            "ticks": 9672,
            "time": 59.26457550000001,
            "value": 0.2125984251968504
          },
          {
            "number": 7,
            "ticks": 9720,
            "time": 59.55869250000001,
            "value": 0.1732283464566929
          },
          {
            "number": 7,
            "ticks": 9768,
            "time": 59.852809500000006,
            "value": 0.14173228346456693
          },
          {
            "number": 7,
            "ticks": 9816,
            "time": 60.146926500000006,
            "value": 0.10236220472440945
          },
          {
            "number": 7,
            "ticks": 9816,
            "time": 60.146926500000006,
            "value": 0.06299212598425197
          },
          {
            "number": 7,
            "ticks": 9864,
            "time": 60.441043500000006,
            "value": 0.06299212598425197
          },
          {
            "number": 7,
            "ticks": 9912,
            "time": 60.735160500000006,
            "value": 0.031496062992125984
          }
        ],
        "10": [
          {
            "number": 10,
            "ticks": 312,
            "time": 1.9117605000000002,
            "value": 0.25196850393700787
          },
          {
            "number": 10,
            "ticks": 384,
            "time": 2.352936,
            "value": 0.5039370078740157
          },
          {
            "number": 10,
            "ticks": 432,
            "time": 2.6470530000000005,
            "value": 0.7559055118110236
          },
          {
            "number": 10,
            "ticks": 648,
            "time": 3.9705795000000004,
            "value": 0.5984251968503937
          },
          {
            "number": 10,
            "ticks": 984,
            "time": 6.029398500000001,
            "value": 0.25196850393700787
          },
          {
            "number": 10,
            "ticks": 1056,
            "time": 6.470574000000001,
            "value": 0.5039370078740157
          },
          {
            "number": 10,
            "ticks": 1104,
            "time": 6.764691000000001,
            "value": 0.7559055118110236
          },
          {
            "number": 10,
            "ticks": 1320,
            "time": 8.0882175,
            "value": 0.5984251968503937
          },
          {
            "number": 10,
            "ticks": 1656,
            "time": 10.1470365,
            "value": 0.25196850393700787
          },
          {
            "number": 10,
            "ticks": 1728,
            "time": 10.588212,
            "value": 0.5039370078740157
          },
          {
            "number": 10,
            "ticks": 1776,
            "time": 10.882329,
            "value": 0.7559055118110236
          },
          {
            "number": 10,
            "ticks": 1992,
            "time": 12.2058555,
            "value": 0.5984251968503937
          },
          {
            "number": 10,
            "ticks": 2328,
            "time": 14.264674500000002,
            "value": 0.25196850393700787
          },
          {
            "number": 10,
            "ticks": 2400,
            "time": 14.705850000000002,
            "value": 0.5039370078740157
          },
          {
            "number": 10,
            "ticks": 2448,
            "time": 14.999967000000002,
            "value": 0.7559055118110236
          },
          {
            "number": 10,
            "ticks": 2664,
            "time": 16.3234935,
            "value": 0.5984251968503937
          },
          {
            "number": 10,
            "ticks": 9000,
            "time": 55.14693750000001,
            "value": 0.25196850393700787
          },
          {
            "number": 10,
            "ticks": 9144,
            "time": 56.02928850000001,
            "value": 0.25196850393700787
          },
          {
            "number": 10,
            "ticks": 9216,
            "time": 56.47046400000001,
            "value": 0.5039370078740157
          },
          {
            "number": 10,
            "ticks": 9264,
            "time": 56.76458100000001,
            "value": 0.7559055118110236
          },
          {
            "number": 10,
            "ticks": 9480,
            "time": 58.08810750000001,
            "value": 0.5984251968503937
          },
          {
            "number": 10,
            "ticks": 9816,
            "time": 60.146926500000006,
            "value": 0.25196850393700787
          },
          {
            "number": 10,
            "ticks": 9888,
            "time": 60.588102000000006,
            "value": 0.5039370078740157
          }
        ],
        "11": [
          {
            "number": 11,
            "ticks": 648,
            "time": 3.9705795000000004,
            "value": 0.7874015748031497
          },
          {
            "number": 11,
            "ticks": 658,
            "time": 4.031853875,
            "value": 0.7322834645669292
          },
          {
            "number": 11,
            "ticks": 668,
            "time": 4.09312825,
            "value": 0.6692913385826772
          },
          {
            "number": 11,
            "ticks": 678,
            "time": 4.154402625,
            "value": 0.6062992125984252
          },
          {
            "number": 11,
            "ticks": 688,
            "time": 4.215677,
            "value": 0.5433070866141733
          },
          {
            "number": 11,
            "ticks": 698,
            "time": 4.276951375,
            "value": 0.48031496062992124
          },
          {
            "number": 11,
            "ticks": 708,
            "time": 4.33822575,
            "value": 0.41732283464566927
          },
          {
            "number": 11,
            "ticks": 718,
            "time": 4.399500125,
            "value": 0.3543307086614173
          },
          {
            "number": 11,
            "ticks": 720,
            "time": 4.411755,
            "value": 0.3464566929133858
          },
          {
            "number": 11,
            "ticks": 720,
            "time": 4.411755,
            "value": 0.7874015748031497
          },
          {
            "number": 11,
            "ticks": 730,
            "time": 4.473029375,
            "value": 0.7322834645669292
          },
          {
            "number": 11,
            "ticks": 740,
            "time": 4.53430375,
            "value": 0.6692913385826772
          },
          {
            "number": 11,
            "ticks": 750,
            "time": 4.595578125000001,
            "value": 0.6062992125984252
          },
          {
            "number": 11,
            "ticks": 760,
            "time": 4.6568525,
            "value": 0.5433070866141733
          },
          {
            "number": 11,
            "ticks": 770,
            "time": 4.718126875,
            "value": 0.48031496062992124
          },
          {
            "number": 11,
            "ticks": 780,
            "time": 4.779401250000001,
            "value": 0.41732283464566927
          },
          {
            "number": 11,
            "ticks": 790,
            "time": 4.840675625,
            "value": 0.3543307086614173
          },
          {
            "number": 11,
            "ticks": 792,
            "time": 4.852930500000001,
            "value": 0.3464566929133858
          },
          {
            "number": 11,
            "ticks": 792,
            "time": 4.852930500000001,
            "value": 0.7874015748031497
          },
          {
            "number": 11,
            "ticks": 802,
            "time": 4.914204875,
            "value": 0.7007874015748031
          },
          {
            "number": 11,
            "ticks": 812,
            "time": 4.97547925,
            "value": 0.6062992125984252
          },
          {
            "number": 11,
            "ticks": 822,
            "time": 5.036753625000001,
            "value": 0.5118110236220472
          },
          {
            "number": 11,
            "ticks": 832,
            "time": 5.098028,
            "value": 0.41732283464566927
          },
          {
            "number": 11,
            "ticks": 840,
            "time": 5.147047500000001,
            "value": 0.3464566929133858
          },
          {
            "number": 11,
            "ticks": 840,
            "time": 5.147047500000001,
            "value": 0.7874015748031497
          },
          {
            "number": 11,
            "ticks": 850,
            "time": 5.208321875,
            "value": 0.7007874015748031
          },
          {
            "number": 11,
            "ticks": 860,
            "time": 5.26959625,
            "value": 0.6062992125984252
          },
          {
            "number": 11,
            "ticks": 870,
            "time": 5.330870625000001,
            "value": 0.5118110236220472
          },
          {
            "number": 11,
            "ticks": 880,
            "time": 5.392145,
            "value": 0.41732283464566927
          },
          {
            "number": 11,
            "ticks": 888,
            "time": 5.441164500000001,
            "value": 0.3464566929133858
          },
          {
            "number": 11,
            "ticks": 888,
            "time": 5.441164500000001,
            "value": 0.7874015748031497
          },
          {
            "number": 11,
            "ticks": 898,
            "time": 5.502438875,
            "value": 0.7007874015748031
          },
          {
            "number": 11,
            "ticks": 908,
            "time": 5.563713250000001,
            "value": 0.6062992125984252
          },
          {
            "number": 11,
            "ticks": 918,
            "time": 5.624987625000001,
            "value": 0.5118110236220472
          },
          {
            "number": 11,
            "ticks": 928,
            "time": 5.686262,
            "value": 0.41732283464566927
          },
          {
            "number": 11,
            "ticks": 936,
            "time": 5.735281500000001,
            "value": 0.3464566929133858
          },
          {
            "number": 11,
            "ticks": 936,
            "time": 5.735281500000001,
            "value": 0.7874015748031497
          },
          {
            "number": 11,
            "ticks": 946,
            "time": 5.796555875,
            "value": 0.7007874015748031
          },
          {
            "number": 11,
            "ticks": 956,
            "time": 5.857830250000001,
            "value": 0.6062992125984252
          },
          {
            "number": 11,
            "ticks": 966,
            "time": 5.919104625000001,
            "value": 0.5118110236220472
          },
          {
            "number": 11,
            "ticks": 976,
            "time": 5.980379000000001,
            "value": 0.41732283464566927
          },
          {
            "number": 11,
            "ticks": 984,
            "time": 6.029398500000001,
            "value": 0.7874015748031497
          },
          {
            "number": 11,
            "ticks": 1320,
            "time": 8.0882175,
            "value": 0.7874015748031497
          },
          {
            "number": 11,
            "ticks": 1330,
            "time": 8.149491875,
            "value": 0.7322834645669292
          },
          {
            "number": 11,
            "ticks": 1340,
            "time": 8.21076625,
            "value": 0.6692913385826772
          },
          {
            "number": 11,
            "ticks": 1350,
            "time": 8.272040625,
            "value": 0.6062992125984252
          },
          {
            "number": 11,
            "ticks": 1360,
            "time": 8.333315,
            "value": 0.5433070866141733
          },
          {
            "number": 11,
            "ticks": 1370,
            "time": 8.394589375,
            "value": 0.48031496062992124
          },
          {
            "number": 11,
            "ticks": 1380,
            "time": 8.45586375,
            "value": 0.41732283464566927
          },
          {
            "number": 11,
            "ticks": 1390,
            "time": 8.517138125,
            "value": 0.3543307086614173
          },
          {
            "number": 11,
            "ticks": 1392,
            "time": 8.529393,
            "value": 0.3464566929133858
          },
          {
            "number": 11,
            "ticks": 1392,
            "time": 8.529393,
            "value": 0.7874015748031497
          },
          {
            "number": 11,
            "ticks": 1402,
            "time": 8.590667375,
            "value": 0.7322834645669292
          },
          {
            "number": 11,
            "ticks": 1412,
            "time": 8.65194175,
            "value": 0.6692913385826772
          },
          {
            "number": 11,
            "ticks": 1422,
            "time": 8.713216125,
            "value": 0.6062992125984252
          },
          {
            "number": 11,
            "ticks": 1432,
            "time": 8.7744905,
            "value": 0.5433070866141733
          },
          {
            "number": 11,
            "ticks": 1442,
            "time": 8.835764875,
            "value": 0.48031496062992124
          },
          {
            "number": 11,
            "ticks": 1452,
            "time": 8.89703925,
            "value": 0.41732283464566927
          },
          {
            "number": 11,
            "ticks": 1462,
            "time": 8.958313625,
            "value": 0.3543307086614173
          },
          {
            "number": 11,
            "ticks": 1464,
            "time": 8.9705685,
            "value": 0.3464566929133858
          },
          {
            "number": 11,
            "ticks": 1464,
            "time": 8.9705685,
            "value": 0.7874015748031497
          },
          {
            "number": 11,
            "ticks": 1474,
            "time": 9.031842875,
            "value": 0.7007874015748031
          },
          {
            "number": 11,
            "ticks": 1484,
            "time": 9.09311725,
            "value": 0.6062992125984252
          },
          {
            "number": 11,
            "ticks": 1494,
            "time": 9.154391625,
            "value": 0.5118110236220472
          },
          {
            "number": 11,
            "ticks": 1504,
            "time": 9.215666,
            "value": 0.41732283464566927
          },
          {
            "number": 11,
            "ticks": 1512,
            "time": 9.2646855,
            "value": 0.3464566929133858
          },
          {
            "number": 11,
            "ticks": 1512,
            "time": 9.2646855,
            "value": 0.7874015748031497
          },
          {
            "number": 11,
            "ticks": 1522,
            "time": 9.325959875,
            "value": 0.7007874015748031
          },
          {
            "number": 11,
            "ticks": 1532,
            "time": 9.38723425,
            "value": 0.6062992125984252
          },
          {
            "number": 11,
            "ticks": 1542,
            "time": 9.448508625,
            "value": 0.5118110236220472
          },
          {
            "number": 11,
            "ticks": 1552,
            "time": 9.509783,
            "value": 0.41732283464566927
          },
          {
            "number": 11,
            "ticks": 1560,
            "time": 9.5588025,
            "value": 0.3464566929133858
          },
          {
            "number": 11,
            "ticks": 1560,
            "time": 9.5588025,
            "value": 0.7874015748031497
          },
          {
            "number": 11,
            "ticks": 1570,
            "time": 9.620076875,
            "value": 0.7007874015748031
          },
          {
            "number": 11,
            "ticks": 1580,
            "time": 9.68135125,
            "value": 0.6062992125984252
          },
          {
            "number": 11,
            "ticks": 1590,
            "time": 9.742625625,
            "value": 0.5118110236220472
          },
          {
            "number": 11,
            "ticks": 1600,
            "time": 9.8039,
            "value": 0.41732283464566927
          },
          {
            "number": 11,
            "ticks": 1608,
            "time": 9.8529195,
            "value": 0.3464566929133858
          },
          {
            "number": 11,
            "ticks": 1608,
            "time": 9.8529195,
            "value": 0.7874015748031497
          },
          {
            "number": 11,
            "ticks": 1618,
            "time": 9.914193875,
            "value": 0.7007874015748031
          },
          {
            "number": 11,
            "ticks": 1628,
            "time": 9.97546825,
            "value": 0.6062992125984252
          },
          {
            "number": 11,
            "ticks": 1638,
            "time": 10.036742625,
            "value": 0.5118110236220472
          },
          {
            "number": 11,
            "ticks": 1648,
            "time": 10.098017,
            "value": 0.41732283464566927
          },
          {
            "number": 11,
            "ticks": 1656,
            "time": 10.1470365,
            "value": 0.7874015748031497
          },
          {
            "number": 11,
            "ticks": 1992,
            "time": 12.2058555,
            "value": 0.7874015748031497
          },
          {
            "number": 11,
            "ticks": 2002,
            "time": 12.267129875,
            "value": 0.7322834645669292
          },
          {
            "number": 11,
            "ticks": 2012,
            "time": 12.32840425,
            "value": 0.6692913385826772
          },
          {
            "number": 11,
            "ticks": 2022,
            "time": 12.389678625000002,
            "value": 0.6062992125984252
          },
          {
            "number": 11,
            "ticks": 2032,
            "time": 12.450953,
            "value": 0.5433070866141733
          },
          {
            "number": 11,
            "ticks": 2042,
            "time": 12.512227375,
            "value": 0.48031496062992124
          },
          {
            "number": 11,
            "ticks": 2052,
            "time": 12.573501750000002,
            "value": 0.41732283464566927
          },
          {
            "number": 11,
            "ticks": 2062,
            "time": 12.634776125,
            "value": 0.3543307086614173
          },
          {
            "number": 11,
            "ticks": 2064,
            "time": 12.647031000000002,
            "value": 0.3464566929133858
          },
          {
            "number": 11,
            "ticks": 2064,
            "time": 12.647031000000002,
            "value": 0.7874015748031497
          },
          {
            "number": 11,
            "ticks": 2074,
            "time": 12.708305375,
            "value": 0.7322834645669292
          },
          {
            "number": 11,
            "ticks": 2084,
            "time": 12.76957975,
            "value": 0.6692913385826772
          },
          {
            "number": 11,
            "ticks": 2094,
            "time": 12.830854125000002,
            "value": 0.6062992125984252
          },
          {
            "number": 11,
            "ticks": 2104,
            "time": 12.8921285,
            "value": 0.5433070866141733
          },
          {
            "number": 11,
            "ticks": 2114,
            "time": 12.953402875,
            "value": 0.48031496062992124
          },
          {
            "number": 11,
            "ticks": 2124,
            "time": 13.014677250000002,
            "value": 0.41732283464566927
          },
          {
            "number": 11,
            "ticks": 2134,
            "time": 13.075951625,
            "value": 0.3543307086614173
          },
          {
            "number": 11,
            "ticks": 2136,
            "time": 13.088206500000002,
            "value": 0.3464566929133858
          },
          {
            "number": 11,
            "ticks": 2136,
            "time": 13.088206500000002,
            "value": 0.7874015748031497
          },
          {
            "number": 11,
            "ticks": 2146,
            "time": 13.149480875,
            "value": 0.7007874015748031
          },
          {
            "number": 11,
            "ticks": 2156,
            "time": 13.21075525,
            "value": 0.6062992125984252
          },
          {
            "number": 11,
            "ticks": 2166,
            "time": 13.272029625000002,
            "value": 0.5118110236220472
          },
          {
            "number": 11,
            "ticks": 2176,
            "time": 13.333304,
            "value": 0.41732283464566927
          },
          {
            "number": 11,
            "ticks": 2184,
            "time": 13.382323500000002,
            "value": 0.3464566929133858
          },
          {
            "number": 11,
            "ticks": 2184,
            "time": 13.382323500000002,
            "value": 0.7874015748031497
          },
          {
            "number": 11,
            "ticks": 2194,
            "time": 13.443597875,
            "value": 0.7007874015748031
          },
          {
            "number": 11,
            "ticks": 2204,
            "time": 13.50487225,
            "value": 0.6062992125984252
          },
          {
            "number": 11,
            "ticks": 2214,
            "time": 13.566146625000002,
            "value": 0.5118110236220472
          },
          {
            "number": 11,
            "ticks": 2224,
            "time": 13.627421,
            "value": 0.41732283464566927
          },
          {
            "number": 11,
            "ticks": 2232,
            "time": 13.676440500000002,
            "value": 0.3464566929133858
          },
          {
            "number": 11,
            "ticks": 2232,
            "time": 13.676440500000002,
            "value": 0.7874015748031497
          },
          {
            "number": 11,
            "ticks": 2242,
            "time": 13.737714875,
            "value": 0.7007874015748031
          },
          {
            "number": 11,
            "ticks": 2252,
            "time": 13.79898925,
            "value": 0.6062992125984252
          },
          {
            "number": 11,
            "ticks": 2262,
            "time": 13.860263625000002,
            "value": 0.5118110236220472
          },
          {
            "number": 11,
            "ticks": 2272,
            "time": 13.921538,
            "value": 0.41732283464566927
          },
          {
            "number": 11,
            "ticks": 2280,
            "time": 13.970557500000002,
            "value": 0.3464566929133858
          },
          {
            "number": 11,
            "ticks": 2280,
            "time": 13.970557500000002,
            "value": 0.7874015748031497
          },
          {
            "number": 11,
            "ticks": 2290,
            "time": 14.031831875,
            "value": 0.7007874015748031
          },
          {
            "number": 11,
            "ticks": 2300,
            "time": 14.09310625,
            "value": 0.6062992125984252
          },
          {
            "number": 11,
            "ticks": 2310,
            "time": 14.154380625000002,
            "value": 0.5118110236220472
          },
          {
            "number": 11,
            "ticks": 2320,
            "time": 14.215655,
            "value": 0.41732283464566927
          },
          {
            "number": 11,
            "ticks": 2328,
            "time": 14.264674500000002,
            "value": 0.7874015748031497
          },
          {
            "number": 11,
            "ticks": 2664,
            "time": 16.3234935,
            "value": 0.7874015748031497
          },
          {
            "number": 11,
            "ticks": 2674,
            "time": 16.384767875,
            "value": 0.7322834645669292
          },
          {
            "number": 11,
            "ticks": 2684,
            "time": 16.44604225,
            "value": 0.6692913385826772
          },
          {
            "number": 11,
            "ticks": 2694,
            "time": 16.507316625,
            "value": 0.6062992125984252
          },
          {
            "number": 11,
            "ticks": 2704,
            "time": 16.568591,
            "value": 0.5433070866141733
          },
          {
            "number": 11,
            "ticks": 2714,
            "time": 16.629865375,
            "value": 0.48031496062992124
          },
          {
            "number": 11,
            "ticks": 2724,
            "time": 16.69113975,
            "value": 0.41732283464566927
          },
          {
            "number": 11,
            "ticks": 2734,
            "time": 16.752414125,
            "value": 0.3543307086614173
          },
          {
            "number": 11,
            "ticks": 2736,
            "time": 16.764669,
            "value": 0.3464566929133858
          },
          {
            "number": 11,
            "ticks": 2736,
            "time": 16.764669,
            "value": 0.7874015748031497
          },
          {
            "number": 11,
            "ticks": 2746,
            "time": 16.825943375,
            "value": 0.7322834645669292
          },
          {
            "number": 11,
            "ticks": 2756,
            "time": 16.88721775,
            "value": 0.6692913385826772
          },
          {
            "number": 11,
            "ticks": 2766,
            "time": 16.948492125,
            "value": 0.6062992125984252
          },
          {
            "number": 11,
            "ticks": 2776,
            "time": 17.0097665,
            "value": 0.5433070866141733
          },
          {
            "number": 11,
            "ticks": 2786,
            "time": 17.071040875,
            "value": 0.48031496062992124
          },
          {
            "number": 11,
            "ticks": 2796,
            "time": 17.13231525,
            "value": 0.41732283464566927
          },
          {
            "number": 11,
            "ticks": 2806,
            "time": 17.193589625,
            "value": 0.3543307086614173
          },
          {
            "number": 11,
            "ticks": 2808,
            "time": 17.2058445,
            "value": 0.3464566929133858
          },
          {
            "number": 11,
            "ticks": 2808,
            "time": 17.2058445,
            "value": 0.7874015748031497
          },
          {
            "number": 11,
            "ticks": 2818,
            "time": 17.267118875,
            "value": 0.7007874015748031
          },
          {
            "number": 11,
            "ticks": 2828,
            "time": 17.32839325,
            "value": 0.6062992125984252
          },
          {
            "number": 11,
            "ticks": 2838,
            "time": 17.389667625,
            "value": 0.5118110236220472
          },
          {
            "number": 11,
            "ticks": 2848,
            "time": 17.450942,
            "value": 0.41732283464566927
          },
          {
            "number": 11,
            "ticks": 2856,
            "time": 17.4999615,
            "value": 0.3464566929133858
          },
          {
            "number": 11,
            "ticks": 2856,
            "time": 17.4999615,
            "value": 0.7874015748031497
          },
          {
            "number": 11,
            "ticks": 2866,
            "time": 17.561235875,
            "value": 0.7007874015748031
          },
          {
            "number": 11,
            "ticks": 2876,
            "time": 17.62251025,
            "value": 0.6062992125984252
          },
          {
            "number": 11,
            "ticks": 2886,
            "time": 17.683784625,
            "value": 0.5118110236220472
          },
          {
            "number": 11,
            "ticks": 2896,
            "time": 17.745059,
            "value": 0.41732283464566927
          },
          {
            "number": 11,
            "ticks": 2904,
            "time": 17.7940785,
            "value": 0.3464566929133858
          },
          {
            "number": 11,
            "ticks": 2904,
            "time": 17.7940785,
            "value": 0.7874015748031497
          },
          {
            "number": 11,
            "ticks": 2914,
            "time": 17.855352875,
            "value": 0.7007874015748031
          },
          {
            "number": 11,
            "ticks": 2924,
            "time": 17.91662725,
            "value": 0.6062992125984252
          },
          {
            "number": 11,
            "ticks": 2934,
            "time": 17.977901625,
            "value": 0.5118110236220472
          },
          {
            "number": 11,
            "ticks": 2944,
            "time": 18.039176,
            "value": 0.41732283464566927
          },
          {
            "number": 11,
            "ticks": 2952,
            "time": 18.0881955,
            "value": 0.3464566929133858
          },
          {
            "number": 11,
            "ticks": 2952,
            "time": 18.0881955,
            "value": 0.7874015748031497
          },
          {
            "number": 11,
            "ticks": 2962,
            "time": 18.149469875,
            "value": 0.7007874015748031
          },
          {
            "number": 11,
            "ticks": 2972,
            "time": 18.21074425,
            "value": 0.6062992125984252
          },
          {
            "number": 11,
            "ticks": 2982,
            "time": 18.272018625,
            "value": 0.5118110236220472
          },
          {
            "number": 11,
            "ticks": 2992,
            "time": 18.333293,
            "value": 0.41732283464566927
          },
          {
            "number": 11,
            "ticks": 8952,
            "time": 54.85282050000001,
            "value": 0.7874015748031497
          },
          {
            "number": 11,
            "ticks": 9480,
            "time": 58.08810750000001,
            "value": 0.7874015748031497
          },
          {
            "number": 11,
            "ticks": 9490,
            "time": 58.149381875,
            "value": 0.7322834645669292
          },
          {
            "number": 11,
            "ticks": 9500,
            "time": 58.21065625,
            "value": 0.6692913385826772
          },
          {
            "number": 11,
            "ticks": 9510,
            "time": 58.271930625,
            "value": 0.6062992125984252
          },
          {
            "number": 11,
            "ticks": 9520,
            "time": 58.333205,
            "value": 0.5433070866141733
          },
          {
            "number": 11,
            "ticks": 9530,
            "time": 58.394479375,
            "value": 0.48031496062992124
          },
          {
            "number": 11,
            "ticks": 9540,
            "time": 58.45575375000001,
            "value": 0.41732283464566927
          },
          {
            "number": 11,
            "ticks": 9550,
            "time": 58.517028125,
            "value": 0.3543307086614173
          },
          {
            "number": 11,
            "ticks": 9552,
            "time": 58.52928300000001,
            "value": 0.3464566929133858
          },
          {
            "number": 11,
            "ticks": 9552,
            "time": 58.52928300000001,
            "value": 0.7874015748031497
          },
          {
            "number": 11,
            "ticks": 9562,
            "time": 58.590557375,
            "value": 0.7322834645669292
          },
          {
            "number": 11,
            "ticks": 9572,
            "time": 58.65183175000001,
            "value": 0.6692913385826772
          },
          {
            "number": 11,
            "ticks": 9582,
            "time": 58.713106125,
            "value": 0.6062992125984252
          },
          {
            "number": 11,
            "ticks": 9592,
            "time": 58.7743805,
            "value": 0.5433070866141733
          },
          {
            "number": 11,
            "ticks": 9602,
            "time": 58.835654875,
            "value": 0.48031496062992124
          },
          {
            "number": 11,
            "ticks": 9612,
            "time": 58.89692925000001,
            "value": 0.41732283464566927
          },
          {
            "number": 11,
            "ticks": 9622,
            "time": 58.958203625,
            "value": 0.3543307086614173
          },
          {
            "number": 11,
            "ticks": 9624,
            "time": 58.97045850000001,
            "value": 0.3464566929133858
          },
          {
            "number": 11,
            "ticks": 9624,
            "time": 58.97045850000001,
            "value": 0.7874015748031497
          },
          {
            "number": 11,
            "ticks": 9634,
            "time": 59.031732875,
            "value": 0.7007874015748031
          },
          {
            "number": 11,
            "ticks": 9644,
            "time": 59.09300725000001,
            "value": 0.6062992125984252
          },
          {
            "number": 11,
            "ticks": 9654,
            "time": 59.154281625,
            "value": 0.5118110236220472
          },
          {
            "number": 11,
            "ticks": 9664,
            "time": 59.215556,
            "value": 0.41732283464566927
          },
          {
            "number": 11,
            "ticks": 9672,
            "time": 59.26457550000001,
            "value": 0.3464566929133858
          },
          {
            "number": 11,
            "ticks": 9672,
            "time": 59.26457550000001,
            "value": 0.7874015748031497
          },
          {
            "number": 11,
            "ticks": 9682,
            "time": 59.325849875,
            "value": 0.7007874015748031
          },
          {
            "number": 11,
            "ticks": 9692,
            "time": 59.38712425000001,
            "value": 0.6062992125984252
          },
          {
            "number": 11,
            "ticks": 9702,
            "time": 59.448398625,
            "value": 0.5118110236220472
          },
          {
            "number": 11,
            "ticks": 9712,
            "time": 59.509673,
            "value": 0.41732283464566927
          },
          {
            "number": 11,
            "ticks": 9720,
            "time": 59.55869250000001,
            "value": 0.3464566929133858
          },
          {
            "number": 11,
            "ticks": 9720,
            "time": 59.55869250000001,
            "value": 0.7874015748031497
          },
          {
            "number": 11,
            "ticks": 9730,
            "time": 59.619966875,
            "value": 0.7007874015748031
          },
          {
            "number": 11,
            "ticks": 9740,
            "time": 59.68124125000001,
            "value": 0.6062992125984252
          },
          {
            "number": 11,
            "ticks": 9750,
            "time": 59.742515625,
            "value": 0.5118110236220472
          },
          {
            "number": 11,
            "ticks": 9760,
            "time": 59.80379,
            "value": 0.41732283464566927
          },
          {
            "number": 11,
            "ticks": 9768,
            "time": 59.852809500000006,
            "value": 0.3464566929133858
          },
          {
            "number": 11,
            "ticks": 9768,
            "time": 59.852809500000006,
            "value": 0.7874015748031497
          },
          {
            "number": 11,
            "ticks": 9778,
            "time": 59.914083875,
            "value": 0.7007874015748031
          },
          {
            "number": 11,
            "ticks": 9788,
            "time": 59.975358250000006,
            "value": 0.6062992125984252
          },
          {
            "number": 11,
            "ticks": 9798,
            "time": 60.036632625,
            "value": 0.5118110236220472
          },
          {
            "number": 11,
            "ticks": 9808,
            "time": 60.097907,
            "value": 0.41732283464566927
          },
          {
            "number": 11,
            "ticks": 9816,
            "time": 60.146926500000006,
            "value": 0.7874015748031497
          }
        ],
        "32": [
          {
            "number": 32,
            "ticks": 8952,
            "time": 54.85282050000001,
            "value": 0.015748031496062992
          }
        ],
        "93": [
          {
            "number": 93,
            "ticks": 8952,
            "time": 54.85282050000001,
            "value": 0.1889763779527559
          }
        ],
        "94": [
          {
            "number": 94,
            "ticks": 8952,
            "time": 54.85282050000001,
            "value": 0.47244094488188976
          }
        ],
        "98": [
          {
            "number": 98,
            "ticks": 195,
            "time": 1.1948503125,
            "value": 0.25196850393700787
          },
          {
            "number": 98,
            "ticks": 196,
            "time": 1.20097775,
            "value": 0.25984251968503935
          },
          {
            "number": 98,
            "ticks": 197,
            "time": 1.2071051875,
            "value": 0.7795275590551181
          },
          {
            "number": 98,
            "ticks": 198,
            "time": 1.213232625,
            "value": 0.7874015748031497
          },
          {
            "number": 98,
            "ticks": 199,
            "time": 1.2193600625,
            "value": 0.8031496062992126
          },
          {
            "number": 98,
            "ticks": 8964,
            "time": 54.92634975000001,
            "value": 0.25196850393700787
          },
          {
            "number": 98,
            "ticks": 8976,
            "time": 54.99987900000001,
            "value": 0.7795275590551181
          },
          {
            "number": 98,
            "ticks": 8988,
            "time": 55.07340825000001,
            "value": 0.25984251968503935
          }
        ],
        "99": [
          {
            "number": 99,
            "ticks": 195,
            "time": 1.1948503125,
            "value": 0.007874015748031496
          },
          {
            "number": 99,
            "ticks": 196,
            "time": 1.20097775,
            "value": 0.007874015748031496
          },
          {
            "number": 99,
            "ticks": 197,
            "time": 1.2071051875,
            "value": 0.007874015748031496
          },
          {
            "number": 99,
            "ticks": 198,
            "time": 1.213232625,
            "value": 0.007874015748031496
          },
          {
            "number": 99,
            "ticks": 199,
            "time": 1.2193600625,
            "value": 0.007874015748031496
          },
          {
            "number": 99,
            "ticks": 8964,
            "time": 54.92634975000001,
            "value": 0.007874015748031496
          },
          {
            "number": 99,
            "ticks": 8976,
            "time": 54.99987900000001,
            "value": 0.007874015748031496
          },
          {
            "number": 99,
            "ticks": 8988,
            "time": 55.07340825000001,
            "value": 0.007874015748031496
          }
        ],
        "100": [
          {
            "number": 100,
            "ticks": 8976,
            "time": 54.99987900000001,
            "value": 0.007874015748031496
          }
        ],
        "101": [
          {
            "number": 101,
            "ticks": 8976,
            "time": 54.99987900000001,
            "value": 0
          }
        ]
      },
      "pitchBends": [
        {
          "ticks": 8988,
          "time": 55.07340825000001,
          "value": 0
        }
      ],
      "instrument": {
        "family": "organ",
        "number": 16,
        "name": "drawbar organ"
      },
      "name": "",
      "notes": [
        {
          "duration": 0.09803899999999999,
          "durationTicks": 16,
          "midi": 78,
          "name": "F#5",
          "ticks": 312,
          "time": 1.9117605000000002,
          "velocity": 1
        },
        {
          "duration": 0.09803899999999999,
          "durationTicks": 16,
          "midi": 78,
          "name": "F#5",
          "ticks": 336,
          "time": 2.058819,
          "velocity": 1
        },
        {
          "duration": 0.09803899999999999,
          "durationTicks": 16,
          "midi": 78,
          "name": "F#5",
          "ticks": 384,
          "time": 2.352936,
          "velocity": 1
        },
        {
          "duration": 0.09803899999999954,
          "durationTicks": 16,
          "midi": 78,
          "name": "F#5",
          "ticks": 432,
          "time": 2.6470530000000005,
          "velocity": 1
        },
        {
          "duration": 0.09803899999999999,
          "durationTicks": 16,
          "midi": 78,
          "name": "F#5",
          "ticks": 456,
          "time": 2.7941115000000005,
          "velocity": 1
        },
        {
          "duration": 0.09803899999999999,
          "durationTicks": 16,
          "midi": 78,
          "name": "F#5",
          "ticks": 504,
          "time": 3.0882285000000005,
          "velocity": 0.47244094488188976
        },
        {
          "duration": 0.09803899999999999,
          "durationTicks": 16,
          "midi": 78,
          "name": "F#5",
          "ticks": 552,
          "time": 3.3823455000000004,
          "velocity": 0.3937007874015748
        },
        {
          "duration": 0.09803899999999999,
          "durationTicks": 16,
          "midi": 78,
          "name": "F#5",
          "ticks": 600,
          "time": 3.6764625000000004,
          "velocity": 0.31496062992125984
        },
        {
          "duration": 0.39215599999999995,
          "durationTicks": 64,
          "midi": 66,
          "name": "F#4",
          "ticks": 648,
          "time": 3.9705795000000004,
          "velocity": 1
        },
        {
          "duration": 0.39215599999999995,
          "durationTicks": 64,
          "midi": 73,
          "name": "C#5",
          "ticks": 720,
          "time": 4.411755,
          "velocity": 1
        },
        {
          "duration": 0.24509749999999908,
          "durationTicks": 40,
          "midi": 83,
          "name": "B5",
          "ticks": 792,
          "time": 4.852930500000001,
          "velocity": 1
        },
        {
          "duration": 0.24509749999999908,
          "durationTicks": 40,
          "midi": 82,
          "name": "A#5",
          "ticks": 840,
          "time": 5.147047500000001,
          "velocity": 1
        },
        {
          "duration": 0.24509749999999908,
          "durationTicks": 40,
          "midi": 78,
          "name": "F#5",
          "ticks": 888,
          "time": 5.441164500000001,
          "velocity": 1
        },
        {
          "duration": 0.24509749999999997,
          "durationTicks": 40,
          "midi": 80,
          "name": "G#5",
          "ticks": 936,
          "time": 5.735281500000001,
          "velocity": 1
        },
        {
          "duration": 0.09803899999999999,
          "durationTicks": 16,
          "midi": 78,
          "name": "F#5",
          "ticks": 984,
          "time": 6.029398500000001,
          "velocity": 1
        },
        {
          "duration": 0.09803899999999999,
          "durationTicks": 16,
          "midi": 78,
          "name": "F#5",
          "ticks": 1008,
          "time": 6.176457000000001,
          "velocity": 1
        },
        {
          "duration": 0.09803899999999999,
          "durationTicks": 16,
          "midi": 78,
          "name": "F#5",
          "ticks": 1056,
          "time": 6.470574000000001,
          "velocity": 1
        },
        {
          "duration": 0.09803899999999999,
          "durationTicks": 16,
          "midi": 78,
          "name": "F#5",
          "ticks": 1104,
          "time": 6.764691000000001,
          "velocity": 1
        },
        {
          "duration": 0.09803899999999999,
          "durationTicks": 16,
          "midi": 78,
          "name": "F#5",
          "ticks": 1128,
          "time": 6.911749500000001,
          "velocity": 1
        },
        {
          "duration": 0.09803899999999999,
          "durationTicks": 16,
          "midi": 78,
          "name": "F#5",
          "ticks": 1176,
          "time": 7.205866500000001,
          "velocity": 0.47244094488188976
        },
        {
          "duration": 0.09803899999999999,
          "durationTicks": 16,
          "midi": 78,
          "name": "F#5",
          "ticks": 1224,
          "time": 7.499983500000001,
          "velocity": 0.3937007874015748
        },
        {
          "duration": 0.09803899999999999,
          "durationTicks": 16,
          "midi": 78,
          "name": "F#5",
          "ticks": 1272,
          "time": 7.794100500000001,
          "velocity": 0.31496062992125984
        },
        {
          "duration": 0.39215599999999995,
          "durationTicks": 64,
          "midi": 66,
          "name": "F#4",
          "ticks": 1320,
          "time": 8.0882175,
          "velocity": 1
        },
        {
          "duration": 0.39215599999999995,
          "durationTicks": 64,
          "midi": 73,
          "name": "C#5",
          "ticks": 1392,
          "time": 8.529393,
          "velocity": 1
        },
        {
          "duration": 0.24509749999999997,
          "durationTicks": 40,
          "midi": 83,
          "name": "B5",
          "ticks": 1464,
          "time": 8.9705685,
          "velocity": 1
        },
        {
          "duration": 0.24509749999999997,
          "durationTicks": 40,
          "midi": 82,
          "name": "A#5",
          "ticks": 1512,
          "time": 9.2646855,
          "velocity": 1
        },
        {
          "duration": 0.24509749999999997,
          "durationTicks": 40,
          "midi": 78,
          "name": "F#5",
          "ticks": 1560,
          "time": 9.5588025,
          "velocity": 1
        },
        {
          "duration": 0.24509749999999997,
          "durationTicks": 40,
          "midi": 80,
          "name": "G#5",
          "ticks": 1608,
          "time": 9.8529195,
          "velocity": 1
        },
        {
          "duration": 0.09803899999999999,
          "durationTicks": 16,
          "midi": 78,
          "name": "F#5",
          "ticks": 1656,
          "time": 10.1470365,
          "velocity": 1
        },
        {
          "duration": 0.09803899999999999,
          "durationTicks": 16,
          "midi": 78,
          "name": "F#5",
          "ticks": 1680,
          "time": 10.294095,
          "velocity": 1
        },
        {
          "duration": 0.09803899999999999,
          "durationTicks": 16,
          "midi": 78,
          "name": "F#5",
          "ticks": 1728,
          "time": 10.588212,
          "velocity": 1
        },
        {
          "duration": 0.09803899999999999,
          "durationTicks": 16,
          "midi": 78,
          "name": "F#5",
          "ticks": 1776,
          "time": 10.882329,
          "velocity": 1
        },
        {
          "duration": 0.09803899999999999,
          "durationTicks": 16,
          "midi": 78,
          "name": "F#5",
          "ticks": 1800,
          "time": 11.0293875,
          "velocity": 1
        },
        {
          "duration": 0.09803899999999999,
          "durationTicks": 16,
          "midi": 78,
          "name": "F#5",
          "ticks": 1848,
          "time": 11.3235045,
          "velocity": 0.47244094488188976
        },
        {
          "duration": 0.09803899999999999,
          "durationTicks": 16,
          "midi": 78,
          "name": "F#5",
          "ticks": 1896,
          "time": 11.6176215,
          "velocity": 0.3937007874015748
        },
        {
          "duration": 0.09803899999999999,
          "durationTicks": 16,
          "midi": 78,
          "name": "F#5",
          "ticks": 1944,
          "time": 11.9117385,
          "velocity": 0.31496062992125984
        },
        {
          "duration": 0.39215599999999995,
          "durationTicks": 64,
          "midi": 66,
          "name": "F#4",
          "ticks": 1992,
          "time": 12.2058555,
          "velocity": 1
        },
        {
          "duration": 0.3921559999999982,
          "durationTicks": 64,
          "midi": 73,
          "name": "C#5",
          "ticks": 2064,
          "time": 12.647031000000002,
          "velocity": 1
        },
        {
          "duration": 0.2450974999999982,
          "durationTicks": 40,
          "midi": 83,
          "name": "B5",
          "ticks": 2136,
          "time": 13.088206500000002,
          "velocity": 1
        },
        {
          "duration": 0.2450974999999982,
          "durationTicks": 40,
          "midi": 82,
          "name": "A#5",
          "ticks": 2184,
          "time": 13.382323500000002,
          "velocity": 1
        },
        {
          "duration": 0.2450974999999982,
          "durationTicks": 40,
          "midi": 78,
          "name": "F#5",
          "ticks": 2232,
          "time": 13.676440500000002,
          "velocity": 1
        },
        {
          "duration": 0.2450974999999982,
          "durationTicks": 40,
          "midi": 80,
          "name": "G#5",
          "ticks": 2280,
          "time": 13.970557500000002,
          "velocity": 1
        },
        {
          "duration": 0.09803899999999821,
          "durationTicks": 16,
          "midi": 78,
          "name": "F#5",
          "ticks": 2328,
          "time": 14.264674500000002,
          "velocity": 1
        },
        {
          "duration": 0.09803899999999821,
          "durationTicks": 16,
          "midi": 78,
          "name": "F#5",
          "ticks": 2352,
          "time": 14.411733000000002,
          "velocity": 1
        },
        {
          "duration": 0.09803899999999821,
          "durationTicks": 16,
          "midi": 78,
          "name": "F#5",
          "ticks": 2400,
          "time": 14.705850000000002,
          "velocity": 1
        },
        {
          "duration": 0.09803899999999821,
          "durationTicks": 16,
          "midi": 78,
          "name": "F#5",
          "ticks": 2448,
          "time": 14.999967000000002,
          "velocity": 1
        },
        {
          "duration": 0.09803899999999821,
          "durationTicks": 16,
          "midi": 78,
          "name": "F#5",
          "ticks": 2472,
          "time": 15.147025500000002,
          "velocity": 1
        },
        {
          "duration": 0.09803899999999821,
          "durationTicks": 16,
          "midi": 78,
          "name": "F#5",
          "ticks": 2520,
          "time": 15.441142500000002,
          "velocity": 0.47244094488188976
        },
        {
          "duration": 0.09803899999999821,
          "durationTicks": 16,
          "midi": 78,
          "name": "F#5",
          "ticks": 2568,
          "time": 15.735259500000002,
          "velocity": 0.3937007874015748
        },
        {
          "duration": 0.09803899999999999,
          "durationTicks": 16,
          "midi": 78,
          "name": "F#5",
          "ticks": 2616,
          "time": 16.0293765,
          "velocity": 0.31496062992125984
        },
        {
          "duration": 0.39215599999999995,
          "durationTicks": 64,
          "midi": 66,
          "name": "F#4",
          "ticks": 2664,
          "time": 16.3234935,
          "velocity": 1
        },
        {
          "duration": 0.39215599999999995,
          "durationTicks": 64,
          "midi": 73,
          "name": "C#5",
          "ticks": 2736,
          "time": 16.764669,
          "velocity": 1
        },
        {
          "duration": 0.24509749999999997,
          "durationTicks": 40,
          "midi": 83,
          "name": "B5",
          "ticks": 2808,
          "time": 17.2058445,
          "velocity": 1
        },
        {
          "duration": 0.24509749999999997,
          "durationTicks": 40,
          "midi": 82,
          "name": "A#5",
          "ticks": 2856,
          "time": 17.4999615,
          "velocity": 1
        },
        {
          "duration": 0.24509749999999997,
          "durationTicks": 40,
          "midi": 78,
          "name": "F#5",
          "ticks": 2904,
          "time": 17.7940785,
          "velocity": 1
        },
        {
          "duration": 0.24509749999999997,
          "durationTicks": 40,
          "midi": 80,
          "name": "G#5",
          "ticks": 2952,
          "time": 18.0881955,
          "velocity": 1
        },
        {
          "duration": 0.09803899999999288,
          "durationTicks": 16,
          "midi": 78,
          "name": "F#5",
          "ticks": 9144,
          "time": 56.02928850000001,
          "velocity": 1
        },
        {
          "duration": 0.09803899999999288,
          "durationTicks": 16,
          "midi": 78,
          "name": "F#5",
          "ticks": 9168,
          "time": 56.17634700000001,
          "velocity": 1
        },
        {
          "duration": 0.09803899999999288,
          "durationTicks": 16,
          "midi": 78,
          "name": "F#5",
          "ticks": 9216,
          "time": 56.47046400000001,
          "velocity": 1
        },
        {
          "duration": 0.09803899999999288,
          "durationTicks": 16,
          "midi": 78,
          "name": "F#5",
          "ticks": 9264,
          "time": 56.76458100000001,
          "velocity": 1
        },
        {
          "duration": 0.09803899999999288,
          "durationTicks": 16,
          "midi": 78,
          "name": "F#5",
          "ticks": 9288,
          "time": 56.91163950000001,
          "velocity": 1
        },
        {
          "duration": 0.09803899999999288,
          "durationTicks": 16,
          "midi": 78,
          "name": "F#5",
          "ticks": 9336,
          "time": 57.20575650000001,
          "velocity": 0.47244094488188976
        },
        {
          "duration": 0.09803899999999288,
          "durationTicks": 16,
          "midi": 78,
          "name": "F#5",
          "ticks": 9384,
          "time": 57.49987350000001,
          "velocity": 0.3937007874015748
        },
        {
          "duration": 0.09803899999999288,
          "durationTicks": 16,
          "midi": 78,
          "name": "F#5",
          "ticks": 9432,
          "time": 57.79399050000001,
          "velocity": 0.31496062992125984
        },
        {
          "duration": 0.39215599999999284,
          "durationTicks": 64,
          "midi": 66,
          "name": "F#4",
          "ticks": 9480,
          "time": 58.08810750000001,
          "velocity": 1
        },
        {
          "duration": 0.39215599999999284,
          "durationTicks": 64,
          "midi": 73,
          "name": "C#5",
          "ticks": 9552,
          "time": 58.52928300000001,
          "velocity": 1
        },
        {
          "duration": 0.24509749999999286,
          "durationTicks": 40,
          "midi": 83,
          "name": "B5",
          "ticks": 9624,
          "time": 58.97045850000001,
          "velocity": 1
        },
        {
          "duration": 0.24509749999999286,
          "durationTicks": 40,
          "midi": 82,
          "name": "A#5",
          "ticks": 9672,
          "time": 59.26457550000001,
          "velocity": 1
        },
        {
          "duration": 0.24509749999999286,
          "durationTicks": 40,
          "midi": 78,
          "name": "F#5",
          "ticks": 9720,
          "time": 59.55869250000001,
          "velocity": 1
        },
        {
          "duration": 0.24509749999999286,
          "durationTicks": 40,
          "midi": 80,
          "name": "G#5",
          "ticks": 9768,
          "time": 59.852809500000006,
          "velocity": 1
        },
        {
          "duration": 0.09803899999999288,
          "durationTicks": 16,
          "midi": 78,
          "name": "F#5",
          "ticks": 9816,
          "time": 60.146926500000006,
          "velocity": 1
        },
        {
          "duration": 0.09803899999999288,
          "durationTicks": 16,
          "midi": 78,
          "name": "F#5",
          "ticks": 9840,
          "time": 60.293985000000006,
          "velocity": 1
        },
        {
          "duration": 0.09803899999999288,
          "durationTicks": 16,
          "midi": 78,
          "name": "F#5",
          "ticks": 9888,
          "time": 60.588102000000006,
          "velocity": 1
        }
      ]
    },
    {
      "channel": 0,
      "controlChanges": {
        "0": [
          {
            "number": 0,
            "ticks": 200,
            "time": 1.2254875,
            "value": 0
          }
        ],
        "1": [
          {
            "number": 1,
            "ticks": 196,
            "time": 1.20097775,
            "value": 0
          }
        ],
        "5": [
          {
            "number": 5,
            "ticks": 199,
            "time": 1.2193600625,
            "value": 0
          }
        ],
        "6": [
          {
            "number": 6,
            "ticks": 186,
            "time": 1.139703375,
            "value": 0.12598425196850394
          },
          {
            "number": 6,
            "ticks": 188,
            "time": 1.15195825,
            "value": 0.5984251968503937
          },
          {
            "number": 6,
            "ticks": 189,
            "time": 1.1580856875,
            "value": 0.5433070866141733
          },
          {
            "number": 6,
            "ticks": 190,
            "time": 1.164213125,
            "value": 0.5039370078740157
          },
          {
            "number": 6,
            "ticks": 191,
            "time": 1.1703405625,
            "value": 0.5039370078740157
          },
          {
            "number": 6,
            "ticks": 192,
            "time": 1.176468,
            "value": 0.5039370078740157
          }
        ],
        "7": [
          {
            "number": 7,
            "ticks": 193,
            "time": 1.1825954375,
            "value": 0.7874015748031497
          }
        ],
        "10": [
          {
            "number": 10,
            "ticks": 195,
            "time": 1.1948503125,
            "value": 0.3779527559055118
          }
        ],
        "11": [
          {
            "number": 11,
            "ticks": 194,
            "time": 1.188722875,
            "value": 0.7874015748031497
          }
        ],
        "32": [
          {
            "number": 32,
            "ticks": 201,
            "time": 1.2316149375,
            "value": 0.015748031496062992
          }
        ],
        "64": [
          {
            "number": 64,
            "ticks": 197,
            "time": 1.2071051875,
            "value": 0
          }
        ],
        "65": [
          {
            "number": 65,
            "ticks": 198,
            "time": 1.213232625,
            "value": 1
          }
        ],
        "91": [
          {
            "number": 91,
            "ticks": 181,
            "time": 1.1090661875,
            "value": 0
          }
        ],
        "93": [
          {
            "number": 93,
            "ticks": 182,
            "time": 1.115193625,
            "value": 0
          }
        ],
        "94": [
          {
            "number": 94,
            "ticks": 183,
            "time": 1.1213210625,
            "value": 0
          }
        ],
        "98": [
          {
            "number": 98,
            "ticks": 190,
            "time": 1.164213125,
            "value": 0.06299212598425197
          },
          {
            "number": 98,
            "ticks": 191,
            "time": 1.1703405625,
            "value": 0.07086614173228346
          },
          {
            "number": 98,
            "ticks": 192,
            "time": 1.176468,
            "value": 0.07874015748031496
          }
        ],
        "99": [
          {
            "number": 99,
            "ticks": 190,
            "time": 1.164213125,
            "value": 0.007874015748031496
          },
          {
            "number": 99,
            "ticks": 191,
            "time": 1.1703405625,
            "value": 0.007874015748031496
          },
          {
            "number": 99,
            "ticks": 192,
            "time": 1.176468,
            "value": 0.007874015748031496
          }
        ],
        "100": [
          {
            "number": 100,
            "ticks": 184,
            "time": 1.1274485,
            "value": 0
          },
          {
            "number": 100,
            "ticks": 188,
            "time": 1.15195825,
            "value": 0.015748031496062992
          },
          {
            "number": 100,
            "ticks": 189,
            "time": 1.1580856875,
            "value": 0.007874015748031496
          }
        ],
        "101": [
          {
            "number": 101,
            "ticks": 185,
            "time": 1.1335759375,
            "value": 0
          },
          {
            "number": 101,
            "ticks": 188,
            "time": 1.15195825,
            "value": 0
          },
          {
            "number": 101,
            "ticks": 189,
            "time": 1.1580856875,
            "value": 0
          }
        ]
      },
      "pitchBends": [
        {
          "ticks": 187,
          "time": 1.1458308125,
          "value": 0
        }
      ],
      "instrument": {
        "family": "piano",
        "number": 0,
        "name": "acoustic grand piano"
      },
      "name": "EFX LEAD\u0000",
      "notes": [],
      "endOfTrackTicks": 10680
    },
    {
      "channel": 5,
      "controlChanges": {
        "1": [
          {
            "number": 1,
            "ticks": 2808,
            "time": 17.2058445,
            "value": 0
          },
          {
            "number": 1,
            "ticks": 5640,
            "time": 34.5587475,
            "value": 0
          },
          {
            "number": 1,
            "ticks": 5676,
            "time": 34.77933525,
            "value": 0.03937007874015748
          },
          {
            "number": 1,
            "ticks": 5688,
            "time": 34.8528645,
            "value": 0.07874015748031496
          },
          {
            "number": 1,
            "ticks": 5700,
            "time": 34.92639375,
            "value": 0.12598425196850394
          },
          {
            "number": 1,
            "ticks": 5712,
            "time": 34.999923,
            "value": 0.16535433070866143
          },
          {
            "number": 1,
            "ticks": 5724,
            "time": 35.07345225,
            "value": 0.2125984251968504
          },
          {
            "number": 1,
            "ticks": 5736,
            "time": 35.1469815,
            "value": 0.25196850393700787
          },
          {
            "number": 1,
            "ticks": 5748,
            "time": 35.22051075,
            "value": 0.2992125984251969
          },
          {
            "number": 1,
            "ticks": 5760,
            "time": 35.29404,
            "value": 0.33858267716535434
          },
          {
            "number": 1,
            "ticks": 5772,
            "time": 35.36756925,
            "value": 0.3858267716535433
          },
          {
            "number": 1,
            "ticks": 5784,
            "time": 35.4410985,
            "value": 0.4251968503937008
          },
          {
            "number": 1,
            "ticks": 5796,
            "time": 35.51462775,
            "value": 0.47244094488188976
          },
          {
            "number": 1,
            "ticks": 6072,
            "time": 37.2058005,
            "value": 0
          },
          {
            "number": 1,
            "ticks": 8712,
            "time": 53.38223550000001,
            "value": 0
          },
          {
            "number": 1,
            "ticks": 8724,
            "time": 53.45576475000001,
            "value": 0.031496062992125984
          },
          {
            "number": 1,
            "ticks": 8736,
            "time": 53.52929400000001,
            "value": 0.07086614173228346
          },
          {
            "number": 1,
            "ticks": 8748,
            "time": 53.60282325000001,
            "value": 0.11023622047244094
          },
          {
            "number": 1,
            "ticks": 8760,
            "time": 53.67635250000001,
            "value": 0.14960629921259844
          },
          {
            "number": 1,
            "ticks": 8772,
            "time": 53.74988175000001,
            "value": 0.1889763779527559
          },
          {
            "number": 1,
            "ticks": 8784,
            "time": 53.82341100000001,
            "value": 0.2204724409448819
          },
          {
            "number": 1,
            "ticks": 8796,
            "time": 53.89694025000001,
            "value": 0.25984251968503935
          },
          {
            "number": 1,
            "ticks": 8808,
            "time": 53.97046950000001,
            "value": 0.2992125984251969
          },
          {
            "number": 1,
            "ticks": 8820,
            "time": 54.04399875000001,
            "value": 0.33858267716535434
          },
          {
            "number": 1,
            "ticks": 8832,
            "time": 54.11752800000001,
            "value": 0.3779527559055118
          },
          {
            "number": 1,
            "ticks": 8844,
            "time": 54.19105725000001,
            "value": 0.41732283464566927
          },
          {
            "number": 1,
            "ticks": 8856,
            "time": 54.26458650000001,
            "value": 0.44881889763779526
          },
          {
            "number": 1,
            "ticks": 8868,
            "time": 54.33811575000001,
            "value": 0.4881889763779528
          },
          {
            "number": 1,
            "ticks": 8880,
            "time": 54.41164500000001,
            "value": 0.5275590551181102
          },
          {
            "number": 1,
            "ticks": 8892,
            "time": 54.48517425000001,
            "value": 0.5669291338582677
          },
          {
            "number": 1,
            "ticks": 8904,
            "time": 54.55870350000001,
            "value": 0.6062992125984252
          },
          {
            "number": 1,
            "ticks": 8916,
            "time": 54.63223275000001,
            "value": 0.6377952755905512
          },
          {
            "number": 1,
            "ticks": 8928,
            "time": 54.70576200000001,
            "value": 0.6771653543307087
          },
          {
            "number": 1,
            "ticks": 8940,
            "time": 54.77929125000001,
            "value": 0.7165354330708661
          },
          {
            "number": 1,
            "ticks": 8952,
            "time": 54.85282050000001,
            "value": 0.7559055118110236
          },
          {
            "number": 1,
            "ticks": 8952,
            "time": 54.85282050000001,
            "value": 0.7874015748031497
          }
        ],
        "5": [
          {
            "number": 5,
            "ticks": 3072,
            "time": 18.823488,
            "value": 0.4251968503937008
          },
          {
            "number": 5,
            "ticks": 3240,
            "time": 19.8528975,
            "value": 0
          },
          {
            "number": 5,
            "ticks": 4608,
            "time": 28.235232,
            "value": 0.4251968503937008
          },
          {
            "number": 5,
            "ticks": 4776,
            "time": 29.2646415,
            "value": 0
          },
          {
            "number": 5,
            "ticks": 6144,
            "time": 37.646976,
            "value": 0.4251968503937008
          },
          {
            "number": 5,
            "ticks": 6312,
            "time": 38.6763855,
            "value": 0
          },
          {
            "number": 5,
            "ticks": 7680,
            "time": 47.05872000000001,
            "value": 0.4251968503937008
          },
          {
            "number": 5,
            "ticks": 7848,
            "time": 48.08812950000001,
            "value": 0
          }
        ],
        "6": [
          {
            "number": 6,
            "ticks": 203,
            "time": 1.2438698125,
            "value": 0.5511811023622047
          },
          {
            "number": 6,
            "ticks": 204,
            "time": 1.24999725,
            "value": 0.5905511811023622
          },
          {
            "number": 6,
            "ticks": 205,
            "time": 1.2561246875,
            "value": 0.3937007874015748
          },
          {
            "number": 6,
            "ticks": 206,
            "time": 1.262252125,
            "value": 0.8267716535433071
          },
          {
            "number": 6,
            "ticks": 207,
            "time": 1.2683795625,
            "value": 0.5039370078740157
          },
          {
            "number": 6,
            "ticks": 5640,
            "time": 34.5587475,
            "value": 1
          },
          {
            "number": 6,
            "ticks": 6072,
            "time": 37.2058005,
            "value": 0.5039370078740157
          },
          {
            "number": 6,
            "ticks": 8712,
            "time": 53.38223550000001,
            "value": 1
          },
          {
            "number": 6,
            "ticks": 9912,
            "time": 60.735160500000006,
            "value": 0.5039370078740157
          }
        ],
        "7": [
          {
            "number": 7,
            "ticks": 2904,
            "time": 17.7940785,
            "value": 0.9448818897637795
          },
          {
            "number": 7,
            "ticks": 8796,
            "time": 53.89694025000001,
            "value": 0.9448818897637795
          },
          {
            "number": 7,
            "ticks": 8802,
            "time": 53.933704875000004,
            "value": 0.9133858267716536
          },
          {
            "number": 7,
            "ticks": 8808,
            "time": 53.97046950000001,
            "value": 0.8818897637795275
          },
          {
            "number": 7,
            "ticks": 8814,
            "time": 54.007234125000004,
            "value": 0.8503937007874016
          },
          {
            "number": 7,
            "ticks": 8820,
            "time": 54.04399875000001,
            "value": 0.8188976377952756
          },
          {
            "number": 7,
            "ticks": 8826,
            "time": 54.080763375000004,
            "value": 0.7874015748031497
          },
          {
            "number": 7,
            "ticks": 8832,
            "time": 54.11752800000001,
            "value": 0.7480314960629921
          },
          {
            "number": 7,
            "ticks": 9960,
            "time": 61.029277500000006,
            "value": 0.7480314960629921
          },
          {
            "number": 7,
            "ticks": 10008,
            "time": 61.323394500000006,
            "value": 0.7007874015748031
          },
          {
            "number": 7,
            "ticks": 10056,
            "time": 61.617511500000006,
            "value": 0.6535433070866141
          },
          {
            "number": 7,
            "ticks": 10104,
            "time": 61.911628500000006,
            "value": 0.6062992125984252
          },
          {
            "number": 7,
            "ticks": 10152,
            "time": 62.205745500000006,
            "value": 0.5590551181102362
          },
          {
            "number": 7,
            "ticks": 10200,
            "time": 62.499862500000006,
            "value": 0.5118110236220472
          },
          {
            "number": 7,
            "ticks": 10248,
            "time": 62.793979500000006,
            "value": 0.4645669291338583
          },
          {
            "number": 7,
            "ticks": 10296,
            "time": 63.088096500000006,
            "value": 0.41732283464566927
          },
          {
            "number": 7,
            "ticks": 10344,
            "time": 63.382213500000006,
            "value": 0.3700787401574803
          },
          {
            "number": 7,
            "ticks": 10392,
            "time": 63.676330500000006,
            "value": 0.3228346456692913
          },
          {
            "number": 7,
            "ticks": 10440,
            "time": 63.970447500000006,
            "value": 0.2755905511811024
          },
          {
            "number": 7,
            "ticks": 10488,
            "time": 64.2645645,
            "value": 0.2283464566929134
          },
          {
            "number": 7,
            "ticks": 10536,
            "time": 64.5586815,
            "value": 0.18110236220472442
          },
          {
            "number": 7,
            "ticks": 10584,
            "time": 64.8527985,
            "value": 0.13385826771653545
          },
          {
            "number": 7,
            "ticks": 10632,
            "time": 65.1469155,
            "value": 0.08661417322834646
          },
          {
            "number": 7,
            "ticks": 10680,
            "time": 65.4410325,
            "value": 0.03937007874015748
          }
        ],
        "11": [
          {
            "number": 11,
            "ticks": 2856,
            "time": 17.4999615,
            "value": 0.9448818897637795
          },
          {
            "number": 11,
            "ticks": 8952,
            "time": 54.85282050000001,
            "value": 0.9448818897637795
          },
          {
            "number": 11,
            "ticks": 9144,
            "time": 56.02928850000001,
            "value": 1
          },
          {
            "number": 11,
            "ticks": 9150,
            "time": 56.066053125,
            "value": 0.9921259842519685
          },
          {
            "number": 11,
            "ticks": 9156,
            "time": 56.10281775000001,
            "value": 0.984251968503937
          },
          {
            "number": 11,
            "ticks": 9162,
            "time": 56.139582375,
            "value": 0.9763779527559056
          },
          {
            "number": 11,
            "ticks": 9168,
            "time": 56.17634700000001,
            "value": 0.9606299212598425
          },
          {
            "number": 11,
            "ticks": 9174,
            "time": 56.213111625,
            "value": 0.952755905511811
          },
          {
            "number": 11,
            "ticks": 9180,
            "time": 56.24987625000001,
            "value": 0.9448818897637795
          },
          {
            "number": 11,
            "ticks": 9186,
            "time": 56.286640875,
            "value": 0.9291338582677166
          },
          {
            "number": 11,
            "ticks": 9192,
            "time": 56.32340550000001,
            "value": 0.9212598425196851
          },
          {
            "number": 11,
            "ticks": 9198,
            "time": 56.360170125,
            "value": 0.9133858267716536
          },
          {
            "number": 11,
            "ticks": 9204,
            "time": 56.39693475000001,
            "value": 0.8976377952755905
          },
          {
            "number": 11,
            "ticks": 9210,
            "time": 56.433699375,
            "value": 0.889763779527559
          },
          {
            "number": 11,
            "ticks": 9216,
            "time": 56.47046400000001,
            "value": 0.8818897637795275
          },
          {
            "number": 11,
            "ticks": 9222,
            "time": 56.507228625,
            "value": 0.8661417322834646
          },
          {
            "number": 11,
            "ticks": 9228,
            "time": 56.54399325000001,
            "value": 0.8582677165354331
          },
          {
            "number": 11,
            "ticks": 9234,
            "time": 56.580757875,
            "value": 0.8503937007874016
          },
          {
            "number": 11,
            "ticks": 9240,
            "time": 56.61752250000001,
            "value": 0.8346456692913385
          },
          {
            "number": 11,
            "ticks": 9246,
            "time": 56.654287125,
            "value": 0.8267716535433071
          },
          {
            "number": 11,
            "ticks": 9252,
            "time": 56.69105175000001,
            "value": 0.8188976377952756
          },
          {
            "number": 11,
            "ticks": 9258,
            "time": 56.727816375,
            "value": 0.8031496062992126
          },
          {
            "number": 11,
            "ticks": 9264,
            "time": 56.76458100000001,
            "value": 0.7952755905511811
          },
          {
            "number": 11,
            "ticks": 9270,
            "time": 56.801345625,
            "value": 0.7874015748031497
          },
          {
            "number": 11,
            "ticks": 9276,
            "time": 56.83811025000001,
            "value": 0.7716535433070866
          },
          {
            "number": 11,
            "ticks": 9282,
            "time": 56.874874875,
            "value": 0.7637795275590551
          },
          {
            "number": 11,
            "ticks": 9288,
            "time": 56.91163950000001,
            "value": 0.7559055118110236
          },
          {
            "number": 11,
            "ticks": 9294,
            "time": 56.948404125,
            "value": 0.7401574803149606
          },
          {
            "number": 11,
            "ticks": 9300,
            "time": 56.98516875000001,
            "value": 0.7322834645669292
          },
          {
            "number": 11,
            "ticks": 9306,
            "time": 57.021933375,
            "value": 0.7244094488188977
          },
          {
            "number": 11,
            "ticks": 9312,
            "time": 57.05869800000001,
            "value": 0.7086614173228346
          },
          {
            "number": 11,
            "ticks": 9318,
            "time": 57.095462625,
            "value": 0.7007874015748031
          },
          {
            "number": 11,
            "ticks": 9324,
            "time": 57.13222725000001,
            "value": 0.6929133858267716
          },
          {
            "number": 11,
            "ticks": 9330,
            "time": 57.168991875,
            "value": 0.6771653543307087
          },
          {
            "number": 11,
            "ticks": 9336,
            "time": 57.20575650000001,
            "value": 0.6692913385826772
          },
          {
            "number": 11,
            "ticks": 9342,
            "time": 57.242521125,
            "value": 0.6614173228346457
          },
          {
            "number": 11,
            "ticks": 9348,
            "time": 57.27928575000001,
            "value": 0.6456692913385826
          },
          {
            "number": 11,
            "ticks": 9354,
            "time": 57.316050375,
            "value": 0.6377952755905512
          },
          {
            "number": 11,
            "ticks": 9360,
            "time": 57.35281500000001,
            "value": 0.6299212598425197
          },
          {
            "number": 11,
            "ticks": 9366,
            "time": 57.389579625,
            "value": 0.6141732283464567
          },
          {
            "number": 11,
            "ticks": 9372,
            "time": 57.42634425000001,
            "value": 0.6062992125984252
          },
          {
            "number": 11,
            "ticks": 9378,
            "time": 57.463108875,
            "value": 0.5984251968503937
          },
          {
            "number": 11,
            "ticks": 9384,
            "time": 57.49987350000001,
            "value": 0.5826771653543307
          },
          {
            "number": 11,
            "ticks": 9390,
            "time": 57.536638125,
            "value": 0.5748031496062992
          },
          {
            "number": 11,
            "ticks": 9396,
            "time": 57.57340275000001,
            "value": 0.5669291338582677
          },
          {
            "number": 11,
            "ticks": 9402,
            "time": 57.610167375,
            "value": 0.5590551181102362
          },
          {
            "number": 11,
            "ticks": 9408,
            "time": 57.64693200000001,
            "value": 0.5433070866141733
          },
          {
            "number": 11,
            "ticks": 9414,
            "time": 57.683696625,
            "value": 0.5354330708661418
          },
          {
            "number": 11,
            "ticks": 9420,
            "time": 57.72046125000001,
            "value": 0.5275590551181102
          },
          {
            "number": 11,
            "ticks": 9426,
            "time": 57.757225875,
            "value": 0.5118110236220472
          },
          {
            "number": 11,
            "ticks": 9432,
            "time": 57.79399050000001,
            "value": 0.5039370078740157
          },
          {
            "number": 11,
            "ticks": 9438,
            "time": 57.830755125,
            "value": 0.49606299212598426
          },
          {
            "number": 11,
            "ticks": 9444,
            "time": 57.86751975000001,
            "value": 0.48031496062992124
          },
          {
            "number": 11,
            "ticks": 9450,
            "time": 57.904284375,
            "value": 0.47244094488188976
          },
          {
            "number": 11,
            "ticks": 9456,
            "time": 57.94104900000001,
            "value": 0.4645669291338583
          },
          {
            "number": 11,
            "ticks": 9462,
            "time": 57.977813625,
            "value": 0.44881889763779526
          },
          {
            "number": 11,
            "ticks": 9468,
            "time": 58.01457825000001,
            "value": 0.4409448818897638
          },
          {
            "number": 11,
            "ticks": 9474,
            "time": 58.051342875,
            "value": 0.4330708661417323
          },
          {
            "number": 11,
            "ticks": 9480,
            "time": 58.08810750000001,
            "value": 0.41732283464566927
          },
          {
            "number": 11,
            "ticks": 9486,
            "time": 58.124872125,
            "value": 0.4094488188976378
          },
          {
            "number": 11,
            "ticks": 9492,
            "time": 58.16163675000001,
            "value": 0.4015748031496063
          },
          {
            "number": 11,
            "ticks": 9498,
            "time": 58.198401375,
            "value": 0.3858267716535433
          },
          {
            "number": 11,
            "ticks": 9504,
            "time": 58.23516600000001,
            "value": 0.3779527559055118
          },
          {
            "number": 11,
            "ticks": 9510,
            "time": 58.271930625,
            "value": 0.3700787401574803
          },
          {
            "number": 11,
            "ticks": 9516,
            "time": 58.30869525000001,
            "value": 0.3543307086614173
          },
          {
            "number": 11,
            "ticks": 9522,
            "time": 58.345459875,
            "value": 0.3464566929133858
          },
          {
            "number": 11,
            "ticks": 9528,
            "time": 58.38222450000001,
            "value": 0.33858267716535434
          },
          {
            "number": 11,
            "ticks": 9534,
            "time": 58.418989125,
            "value": 0.3228346456692913
          },
          {
            "number": 11,
            "ticks": 9540,
            "time": 58.45575375000001,
            "value": 0.31496062992125984
          },
          {
            "number": 11,
            "ticks": 9546,
            "time": 58.492518375,
            "value": 0.30708661417322836
          },
          {
            "number": 11,
            "ticks": 9552,
            "time": 58.52928300000001,
            "value": 0.29133858267716534
          },
          {
            "number": 11,
            "ticks": 9558,
            "time": 58.566047625,
            "value": 0.28346456692913385
          },
          {
            "number": 11,
            "ticks": 9564,
            "time": 58.60281225000001,
            "value": 0.2755905511811024
          },
          {
            "number": 11,
            "ticks": 9570,
            "time": 58.639576875,
            "value": 0.25984251968503935
          },
          {
            "number": 11,
            "ticks": 9576,
            "time": 58.67634150000001,
            "value": 0.25196850393700787
          },
          {
            "number": 11,
            "ticks": 9582,
            "time": 58.713106125,
            "value": 0.2440944881889764
          },
          {
            "number": 11,
            "ticks": 9588,
            "time": 58.74987075000001,
            "value": 0.2283464566929134
          },
          {
            "number": 11,
            "ticks": 9594,
            "time": 58.786635375,
            "value": 0.2204724409448819
          },
          {
            "number": 11,
            "ticks": 9600,
            "time": 58.82340000000001,
            "value": 0.2125984251968504
          },
          {
            "number": 11,
            "ticks": 9606,
            "time": 58.860164625,
            "value": 0.1968503937007874
          },
          {
            "number": 11,
            "ticks": 9612,
            "time": 58.89692925000001,
            "value": 0.1889763779527559
          },
          {
            "number": 11,
            "ticks": 9618,
            "time": 58.933693875,
            "value": 0.18110236220472442
          },
          {
            "number": 11,
            "ticks": 9624,
            "time": 58.97045850000001,
            "value": 0.16535433070866143
          },
          {
            "number": 11,
            "ticks": 9630,
            "time": 59.007223125,
            "value": 0.15748031496062992
          },
          {
            "number": 11,
            "ticks": 9636,
            "time": 59.04398775000001,
            "value": 0.14960629921259844
          },
          {
            "number": 11,
            "ticks": 9642,
            "time": 59.080752375,
            "value": 0.14173228346456693
          },
          {
            "number": 11,
            "ticks": 9648,
            "time": 59.11751700000001,
            "value": 0.12598425196850394
          },
          {
            "number": 11,
            "ticks": 9654,
            "time": 59.154281625,
            "value": 0.11811023622047244
          },
          {
            "number": 11,
            "ticks": 9660,
            "time": 59.19104625000001,
            "value": 0.11023622047244094
          },
          {
            "number": 11,
            "ticks": 9666,
            "time": 59.227810875,
            "value": 0.09448818897637795
          },
          {
            "number": 11,
            "ticks": 9672,
            "time": 59.26457550000001,
            "value": 0.08661417322834646
          },
          {
            "number": 11,
            "ticks": 9678,
            "time": 59.301340125,
            "value": 0.07874015748031496
          },
          {
            "number": 11,
            "ticks": 9684,
            "time": 59.33810475000001,
            "value": 0.06299212598425197
          },
          {
            "number": 11,
            "ticks": 9690,
            "time": 59.374869375,
            "value": 0.05511811023622047
          },
          {
            "number": 11,
            "ticks": 9696,
            "time": 59.41163400000001,
            "value": 0.047244094488188976
          },
          {
            "number": 11,
            "ticks": 9702,
            "time": 59.448398625,
            "value": 0.031496062992125984
          },
          {
            "number": 11,
            "ticks": 9708,
            "time": 59.48516325000001,
            "value": 0.023622047244094488
          },
          {
            "number": 11,
            "ticks": 9714,
            "time": 59.521927875,
            "value": 0.015748031496062992
          },
          {
            "number": 11,
            "ticks": 9720,
            "time": 59.55869250000001,
            "value": 0
          }
        ],
        "93": [
          {
            "number": 93,
            "ticks": 9144,
            "time": 56.02928850000001,
            "value": 0.7874015748031497
          }
        ],
        "94": [
          {
            "number": 94,
            "ticks": 9336,
            "time": 57.20575650000001,
            "value": 0.7874015748031497
          }
        ],
        "98": [
          {
            "number": 98,
            "ticks": 203,
            "time": 1.2438698125,
            "value": 0.25196850393700787
          },
          {
            "number": 98,
            "ticks": 204,
            "time": 1.24999725,
            "value": 0.25984251968503935
          },
          {
            "number": 98,
            "ticks": 205,
            "time": 1.2561246875,
            "value": 0.7795275590551181
          },
          {
            "number": 98,
            "ticks": 206,
            "time": 1.262252125,
            "value": 0.8031496062992126
          },
          {
            "number": 98,
            "ticks": 207,
            "time": 1.2683795625,
            "value": 0.7874015748031497
          }
        ],
        "99": [
          {
            "number": 99,
            "ticks": 203,
            "time": 1.2438698125,
            "value": 0.007874015748031496
          },
          {
            "number": 99,
            "ticks": 204,
            "time": 1.24999725,
            "value": 0.007874015748031496
          },
          {
            "number": 99,
            "ticks": 205,
            "time": 1.2561246875,
            "value": 0.007874015748031496
          },
          {
            "number": 99,
            "ticks": 206,
            "time": 1.262252125,
            "value": 0.007874015748031496
          },
          {
            "number": 99,
            "ticks": 207,
            "time": 1.2683795625,
            "value": 0.007874015748031496
          }
        ],
        "126": [
          {
            "number": 126,
            "ticks": 208,
            "time": 1.274507,
            "value": 0
          }
        ]
      },
      "pitchBends": [
        {
          "ticks": 2952,
          "time": 18.0881955,
          "value": 0
        },
        {
          "ticks": 3384,
          "time": 20.7352485,
          "value": -0.078125
        },
        {
          "ticks": 3392,
          "time": 20.784268,
          "value": -0.0625
        },
        {
          "ticks": 3399,
          "time": 20.8271600625,
          "value": -0.046875
        },
        {
          "ticks": 3406,
          "time": 20.870052125,
          "value": -0.03125
        },
        {
          "ticks": 3413,
          "time": 20.912944187500003,
          "value": -0.015625
        },
        {
          "ticks": 3420,
          "time": 20.95583625,
          "value": 0
        },
        {
          "ticks": 3768,
          "time": 23.0881845,
          "value": -0.125
        },
        {
          "ticks": 3773,
          "time": 23.118821687500002,
          "value": -0.109375
        },
        {
          "ticks": 3777,
          "time": 23.1433314375,
          "value": -0.09375
        },
        {
          "ticks": 3782,
          "time": 23.173968625,
          "value": -0.078125
        },
        {
          "ticks": 3786,
          "time": 23.198478375,
          "value": -0.0625
        },
        {
          "ticks": 3791,
          "time": 23.229115562500002,
          "value": -0.046875
        },
        {
          "ticks": 3795,
          "time": 23.2536253125,
          "value": -0.03125
        },
        {
          "ticks": 3800,
          "time": 23.2842625,
          "value": -0.015625
        },
        {
          "ticks": 3804,
          "time": 23.30877225,
          "value": 0
        },
        {
          "ticks": 4152,
          "time": 25.4411205,
          "value": -0.125
        },
        {
          "ticks": 4157,
          "time": 25.471757687500002,
          "value": -0.109375
        },
        {
          "ticks": 4161,
          "time": 25.4962674375,
          "value": -0.09375
        },
        {
          "ticks": 4166,
          "time": 25.526904625,
          "value": -0.078125
        },
        {
          "ticks": 4170,
          "time": 25.551414375,
          "value": -0.0625
        },
        {
          "ticks": 4175,
          "time": 25.582051562500002,
          "value": -0.046875
        },
        {
          "ticks": 4179,
          "time": 25.6065613125,
          "value": -0.03125
        },
        {
          "ticks": 4184,
          "time": 25.6371985,
          "value": -0.015625
        },
        {
          "ticks": 4188,
          "time": 25.66170825,
          "value": 0
        },
        {
          "ticks": 4224,
          "time": 25.882296,
          "value": 0
        },
        {
          "ticks": 4229,
          "time": 25.912933187500002,
          "value": 0.015625
        },
        {
          "ticks": 4233,
          "time": 25.9374429375,
          "value": 0.03125
        },
        {
          "ticks": 4238,
          "time": 25.968080125,
          "value": 0.046875
        },
        {
          "ticks": 4242,
          "time": 25.992589875,
          "value": 0.0625
        },
        {
          "ticks": 4247,
          "time": 26.023227062500002,
          "value": 0.078125
        },
        {
          "ticks": 4251,
          "time": 26.0477368125,
          "value": 0.09375
        },
        {
          "ticks": 4256,
          "time": 26.078374,
          "value": 0.109375
        },
        {
          "ticks": 4260,
          "time": 26.10288375,
          "value": 0.125
        },
        {
          "ticks": 4344,
          "time": 26.6175885,
          "value": 0
        },
        {
          "ticks": 4344,
          "time": 26.6175885,
          "value": -0.0625
        },
        {
          "ticks": 4350,
          "time": 26.654353125,
          "value": -0.046875
        },
        {
          "ticks": 4356,
          "time": 26.69111775,
          "value": -0.03125
        },
        {
          "ticks": 4362,
          "time": 26.727882375,
          "value": -0.015625
        },
        {
          "ticks": 4368,
          "time": 26.764647,
          "value": 0
        },
        {
          "ticks": 4920,
          "time": 30.1469925,
          "value": -0.078125
        },
        {
          "ticks": 4928,
          "time": 30.196012000000003,
          "value": -0.0625
        },
        {
          "ticks": 4935,
          "time": 30.2389040625,
          "value": -0.046875
        },
        {
          "ticks": 4942,
          "time": 30.281796125000003,
          "value": -0.03125
        },
        {
          "ticks": 4949,
          "time": 30.3246881875,
          "value": -0.015625
        },
        {
          "ticks": 4956,
          "time": 30.36758025,
          "value": 0
        },
        {
          "ticks": 5640,
          "time": 34.5587475,
          "value": 0
        },
        {
          "ticks": 5682,
          "time": 34.816099875,
          "value": -0.015625
        },
        {
          "ticks": 5688,
          "time": 34.8528645,
          "value": -0.03125
        },
        {
          "ticks": 5694,
          "time": 34.889629125,
          "value": -0.046875
        },
        {
          "ticks": 5700,
          "time": 34.92639375,
          "value": -0.0625
        },
        {
          "ticks": 5706,
          "time": 34.963158375,
          "value": -0.078125
        },
        {
          "ticks": 5712,
          "time": 34.999923,
          "value": -0.09375
        },
        {
          "ticks": 5718,
          "time": 35.036687625,
          "value": -0.109375
        },
        {
          "ticks": 5723,
          "time": 35.067324812500004,
          "value": -0.125
        },
        {
          "ticks": 5754,
          "time": 35.257275375,
          "value": -0.125
        },
        {
          "ticks": 5760,
          "time": 35.29404,
          "value": -0.109375
        },
        {
          "ticks": 5765,
          "time": 35.3246771875,
          "value": -0.09375
        },
        {
          "ticks": 5770,
          "time": 35.355314375000006,
          "value": -0.078125
        },
        {
          "ticks": 5775,
          "time": 35.3859515625,
          "value": -0.0625
        },
        {
          "ticks": 5780,
          "time": 35.41658875,
          "value": -0.046875
        },
        {
          "ticks": 5785,
          "time": 35.4472259375,
          "value": -0.03125
        },
        {
          "ticks": 5790,
          "time": 35.477863125,
          "value": -0.015625
        },
        {
          "ticks": 5795,
          "time": 35.508500312500004,
          "value": 0
        },
        {
          "ticks": 5796,
          "time": 35.51462775,
          "value": 0
        },
        {
          "ticks": 6456,
          "time": 39.5587365,
          "value": -0.078125
        },
        {
          "ticks": 6464,
          "time": 39.607756,
          "value": -0.0625
        },
        {
          "ticks": 6471,
          "time": 39.650648062500004,
          "value": -0.046875
        },
        {
          "ticks": 6478,
          "time": 39.693540125,
          "value": -0.03125
        },
        {
          "ticks": 6485,
          "time": 39.7364321875,
          "value": -0.015625
        },
        {
          "ticks": 6492,
          "time": 39.77932425,
          "value": 0
        },
        {
          "ticks": 6840,
          "time": 41.9116725,
          "value": -0.125
        },
        {
          "ticks": 6845,
          "time": 41.9423096875,
          "value": -0.109375
        },
        {
          "ticks": 6849,
          "time": 41.96681943750001,
          "value": -0.09375
        },
        {
          "ticks": 6854,
          "time": 41.997456625000005,
          "value": -0.078125
        },
        {
          "ticks": 6858,
          "time": 42.021966375000005,
          "value": -0.0625
        },
        {
          "ticks": 6863,
          "time": 42.0526035625,
          "value": -0.046875
        },
        {
          "ticks": 6867,
          "time": 42.0771133125,
          "value": -0.03125
        },
        {
          "ticks": 6872,
          "time": 42.1077505,
          "value": -0.015625
        },
        {
          "ticks": 6876,
          "time": 42.13226025,
          "value": 0
        },
        {
          "ticks": 7224,
          "time": 44.26460850000001,
          "value": -0.125
        },
        {
          "ticks": 7229,
          "time": 44.2952456875,
          "value": -0.109375
        },
        {
          "ticks": 7233,
          "time": 44.31975543750001,
          "value": -0.09375
        },
        {
          "ticks": 7238,
          "time": 44.350392625000005,
          "value": -0.078125
        },
        {
          "ticks": 7242,
          "time": 44.374902375000005,
          "value": -0.0625
        },
        {
          "ticks": 7247,
          "time": 44.4055395625,
          "value": -0.046875
        },
        {
          "ticks": 7251,
          "time": 44.4300493125,
          "value": -0.03125
        },
        {
          "ticks": 7256,
          "time": 44.4606865,
          "value": -0.015625
        },
        {
          "ticks": 7260,
          "time": 44.48519625000001,
          "value": 0
        },
        {
          "ticks": 7296,
          "time": 44.70578400000001,
          "value": 0
        },
        {
          "ticks": 7301,
          "time": 44.7364211875,
          "value": 0.015625
        },
        {
          "ticks": 7305,
          "time": 44.76093093750001,
          "value": 0.03125
        },
        {
          "ticks": 7310,
          "time": 44.791568125000005,
          "value": 0.046875
        },
        {
          "ticks": 7314,
          "time": 44.816077875000005,
          "value": 0.0625
        },
        {
          "ticks": 7319,
          "time": 44.8467150625,
          "value": 0.078125
        },
        {
          "ticks": 7323,
          "time": 44.8712248125,
          "value": 0.09375
        },
        {
          "ticks": 7328,
          "time": 44.901862,
          "value": 0.109375
        },
        {
          "ticks": 7332,
          "time": 44.92637175000001,
          "value": 0.125
        },
        {
          "ticks": 7416,
          "time": 45.44107650000001,
          "value": 0
        },
        {
          "ticks": 7416,
          "time": 45.44107650000001,
          "value": -0.0625
        },
        {
          "ticks": 7422,
          "time": 45.477841125000005,
          "value": -0.046875
        },
        {
          "ticks": 7428,
          "time": 45.51460575000001,
          "value": -0.03125
        },
        {
          "ticks": 7434,
          "time": 45.551370375000005,
          "value": -0.015625
        },
        {
          "ticks": 7440,
          "time": 45.58813500000001,
          "value": 0
        },
        {
          "ticks": 7992,
          "time": 48.97048050000001,
          "value": -0.078125
        },
        {
          "ticks": 8000,
          "time": 49.0195,
          "value": -0.0625
        },
        {
          "ticks": 8007,
          "time": 49.0623920625,
          "value": -0.046875
        },
        {
          "ticks": 8014,
          "time": 49.105284125,
          "value": -0.03125
        },
        {
          "ticks": 8021,
          "time": 49.148176187500006,
          "value": -0.015625
        },
        {
          "ticks": 8028,
          "time": 49.19106825000001,
          "value": 0
        },
        {
          "ticks": 8712,
          "time": 53.38223550000001,
          "value": 0
        },
        {
          "ticks": 8724,
          "time": 53.45576475000001,
          "value": 0.015625
        },
        {
          "ticks": 8736,
          "time": 53.52929400000001,
          "value": 0.03125
        },
        {
          "ticks": 8748,
          "time": 53.60282325000001,
          "value": 0.046875
        },
        {
          "ticks": 8760,
          "time": 53.67635250000001,
          "value": 0.0625
        },
        {
          "ticks": 8772,
          "time": 53.74988175000001,
          "value": 0.078125
        },
        {
          "ticks": 8784,
          "time": 53.82341100000001,
          "value": 0.09375
        },
        {
          "ticks": 8796,
          "time": 53.89694025000001,
          "value": 0.109375
        },
        {
          "ticks": 8807,
          "time": 53.9643420625,
          "value": 0.125
        }
      ],
      "instrument": {
        "family": "piano",
        "number": 7,
        "name": "clavi"
      },
      "name": "",
      "notes": [
        {
          "duration": 0.006127437499998223,
          "durationTicks": 1,
          "midi": 42,
          "name": "F#2",
          "ticks": 3000,
          "time": 18.3823125,
          "velocity": 0.6299212598425197
        },
        {
          "duration": 0.006127437499998223,
          "durationTicks": 1,
          "midi": 54,
          "name": "F#3",
          "ticks": 3072,
          "time": 18.823488,
          "velocity": 1
        },
        {
          "duration": 0.006127437499998223,
          "durationTicks": 1,
          "midi": 49,
          "name": "C#3",
          "ticks": 3240,
          "time": 19.8528975,
          "velocity": 1
        },
        {
          "duration": 0.006127437499998223,
          "durationTicks": 1,
          "midi": 54,
          "name": "F#3",
          "ticks": 3288,
          "time": 20.1470145,
          "velocity": 1
        },
        {
          "duration": 0.006127437499998223,
          "durationTicks": 1,
          "midi": 56,
          "name": "G#3",
          "ticks": 3336,
          "time": 20.4411315,
          "velocity": 1
        },
        {
          "duration": 0.0061274375000017756,
          "durationTicks": 1,
          "midi": 57,
          "name": "A3",
          "ticks": 3384,
          "time": 20.7352485,
          "velocity": 1
        },
        {
          "duration": 0.0061274375000017756,
          "durationTicks": 1,
          "midi": 56,
          "name": "G#3",
          "ticks": 3456,
          "time": 21.176424,
          "velocity": 1
        },
        {
          "duration": 0.0061274375000017756,
          "durationTicks": 1,
          "midi": 54,
          "name": "F#3",
          "ticks": 3528,
          "time": 21.6175995,
          "velocity": 1
        },
        {
          "duration": 0.0061274375000017756,
          "durationTicks": 1,
          "midi": 52,
          "name": "E3",
          "ticks": 3600,
          "time": 22.058775,
          "velocity": 1
        },
        {
          "duration": 0.0061274375000017756,
          "durationTicks": 1,
          "midi": 49,
          "name": "C#3",
          "ticks": 3720,
          "time": 22.7940675,
          "velocity": 1
        },
        {
          "duration": 0.0061274375000017756,
          "durationTicks": 1,
          "midi": 54,
          "name": "F#3",
          "ticks": 3768,
          "time": 23.0881845,
          "velocity": 1
        },
        {
          "duration": 0.0061274375000017756,
          "durationTicks": 1,
          "midi": 52,
          "name": "E3",
          "ticks": 3840,
          "time": 23.52936,
          "velocity": 1
        },
        {
          "duration": 0.0061274375000017756,
          "durationTicks": 1,
          "midi": 54,
          "name": "F#3",
          "ticks": 3912,
          "time": 23.9705355,
          "velocity": 1
        },
        {
          "duration": 0.0061274375000017756,
          "durationTicks": 1,
          "midi": 49,
          "name": "C#3",
          "ticks": 4008,
          "time": 24.5587695,
          "velocity": 1
        },
        {
          "duration": 0.0061274375000017756,
          "durationTicks": 1,
          "midi": 47,
          "name": "B2",
          "ticks": 4104,
          "time": 25.1470035,
          "velocity": 1
        },
        {
          "duration": 0.0061274375000017756,
          "durationTicks": 1,
          "midi": 52,
          "name": "E3",
          "ticks": 4152,
          "time": 25.4411205,
          "velocity": 1
        },
        {
          "duration": 0.0061274375000017756,
          "durationTicks": 1,
          "midi": 47,
          "name": "B2",
          "ticks": 4224,
          "time": 25.882296,
          "velocity": 1
        },
        {
          "duration": 0.0061274375000017756,
          "durationTicks": 1,
          "midi": 57,
          "name": "A3",
          "ticks": 4344,
          "time": 26.6175885,
          "velocity": 1
        },
        {
          "duration": 0.0061274375000017756,
          "durationTicks": 1,
          "midi": 56,
          "name": "G#3",
          "ticks": 4392,
          "time": 26.9117055,
          "velocity": 1
        },
        {
          "duration": 0.0061274375000017756,
          "durationTicks": 1,
          "midi": 52,
          "name": "E3",
          "ticks": 4416,
          "time": 27.058764,
          "velocity": 1
        },
        {
          "duration": 0.0061274375000017756,
          "durationTicks": 1,
          "midi": 49,
          "name": "C#3",
          "ticks": 4464,
          "time": 27.352881,
          "velocity": 1
        },
        {
          "duration": 0.0061274375000017756,
          "durationTicks": 1,
          "midi": 52,
          "name": "E3",
          "ticks": 4488,
          "time": 27.4999395,
          "velocity": 1
        },
        {
          "duration": 0.0061274375000017756,
          "durationTicks": 1,
          "midi": 54,
          "name": "F#3",
          "ticks": 4512,
          "time": 27.646998,
          "velocity": 1
        },
        {
          "duration": 0.0061274375000017756,
          "durationTicks": 1,
          "midi": 42,
          "name": "F#2",
          "ticks": 4536,
          "time": 27.7940565,
          "velocity": 0.6299212598425197
        },
        {
          "duration": 0.0061274375000017756,
          "durationTicks": 1,
          "midi": 54,
          "name": "F#3",
          "ticks": 4608,
          "time": 28.235232,
          "velocity": 1
        },
        {
          "duration": 0.0061274375000017756,
          "durationTicks": 1,
          "midi": 49,
          "name": "C#3",
          "ticks": 4776,
          "time": 29.2646415,
          "velocity": 1
        },
        {
          "duration": 0.0061274375000017756,
          "durationTicks": 1,
          "midi": 54,
          "name": "F#3",
          "ticks": 4824,
          "time": 29.5587585,
          "velocity": 1
        },
        {
          "duration": 0.0061274375000017756,
          "durationTicks": 1,
          "midi": 56,
          "name": "G#3",
          "ticks": 4872,
          "time": 29.8528755,
          "velocity": 1
        },
        {
          "duration": 0.0061274375000017756,
          "durationTicks": 1,
          "midi": 57,
          "name": "A3",
          "ticks": 4920,
          "time": 30.1469925,
          "velocity": 1
        },
        {
          "duration": 0.0061274375000017756,
          "durationTicks": 1,
          "midi": 56,
          "name": "G#3",
          "ticks": 4992,
          "time": 30.588168,
          "velocity": 1
        },
        {
          "duration": 0.0061274375000017756,
          "durationTicks": 1,
          "midi": 54,
          "name": "F#3",
          "ticks": 5064,
          "time": 31.0293435,
          "velocity": 1
        },
        {
          "duration": 0.0061274375000017756,
          "durationTicks": 1,
          "midi": 52,
          "name": "E3",
          "ticks": 5136,
          "time": 31.470519,
          "velocity": 1
        },
        {
          "duration": 0.006127437500005328,
          "durationTicks": 1,
          "midi": 54,
          "name": "F#3",
          "ticks": 5256,
          "time": 32.2058115,
          "velocity": 1
        },
        {
          "duration": 0.006127437500005328,
          "durationTicks": 1,
          "midi": 56,
          "name": "G#3",
          "ticks": 5280,
          "time": 32.35287,
          "velocity": 1
        },
        {
          "duration": 0.006127437500005328,
          "durationTicks": 1,
          "midi": 57,
          "name": "A3",
          "ticks": 5304,
          "time": 32.4999285,
          "velocity": 1
        },
        {
          "duration": 0.006127437500005328,
          "durationTicks": 1,
          "midi": 56,
          "name": "G#3",
          "ticks": 5328,
          "time": 32.646987,
          "velocity": 1
        },
        {
          "duration": 0.006127437500005328,
          "durationTicks": 1,
          "midi": 54,
          "name": "F#3",
          "ticks": 5352,
          "time": 32.7940455,
          "velocity": 1
        },
        {
          "duration": 0.006127437500005328,
          "durationTicks": 1,
          "midi": 52,
          "name": "E3",
          "ticks": 5376,
          "time": 32.941104,
          "velocity": 1
        },
        {
          "duration": 0.006127437500005328,
          "durationTicks": 1,
          "midi": 54,
          "name": "F#3",
          "ticks": 5448,
          "time": 33.3822795,
          "velocity": 1
        },
        {
          "duration": 0.006127437500005328,
          "durationTicks": 1,
          "midi": 56,
          "name": "G#3",
          "ticks": 5472,
          "time": 33.529338,
          "velocity": 1
        },
        {
          "duration": 0.006127437500005328,
          "durationTicks": 1,
          "midi": 57,
          "name": "A3",
          "ticks": 5496,
          "time": 33.6763965,
          "velocity": 1
        },
        {
          "duration": 0.006127437500005328,
          "durationTicks": 1,
          "midi": 56,
          "name": "G#3",
          "ticks": 5520,
          "time": 33.823455,
          "velocity": 1
        },
        {
          "duration": 0.006127437499998223,
          "durationTicks": 1,
          "midi": 54,
          "name": "F#3",
          "ticks": 5544,
          "time": 33.9705135,
          "velocity": 1
        },
        {
          "duration": 0.006127437499998223,
          "durationTicks": 1,
          "midi": 52,
          "name": "E3",
          "ticks": 5568,
          "time": 34.117572,
          "velocity": 1
        },
        {
          "duration": 2.5980334999999997,
          "durationTicks": 424,
          "midi": 54,
          "name": "F#3",
          "ticks": 5640,
          "time": 34.5587475,
          "velocity": 1
        },
        {
          "duration": 0.006127437499998223,
          "durationTicks": 1,
          "midi": 42,
          "name": "F#2",
          "ticks": 6072,
          "time": 37.2058005,
          "velocity": 0.6299212598425197
        },
        {
          "duration": 0.006127437499998223,
          "durationTicks": 1,
          "midi": 54,
          "name": "F#3",
          "ticks": 6144,
          "time": 37.646976,
          "velocity": 1
        },
        {
          "duration": 0.006127437499998223,
          "durationTicks": 1,
          "midi": 49,
          "name": "C#3",
          "ticks": 6312,
          "time": 38.6763855,
          "velocity": 1
        },
        {
          "duration": 0.006127437499998223,
          "durationTicks": 1,
          "midi": 54,
          "name": "F#3",
          "ticks": 6360,
          "time": 38.9705025,
          "velocity": 1
        },
        {
          "duration": 0.006127437499998223,
          "durationTicks": 1,
          "midi": 56,
          "name": "G#3",
          "ticks": 6408,
          "time": 39.2646195,
          "velocity": 1
        },
        {
          "duration": 0.006127437499998223,
          "durationTicks": 1,
          "midi": 57,
          "name": "A3",
          "ticks": 6456,
          "time": 39.5587365,
          "velocity": 1
        },
        {
          "duration": 0.006127437499998223,
          "durationTicks": 1,
          "midi": 56,
          "name": "G#3",
          "ticks": 6528,
          "time": 39.999912,
          "velocity": 1
        },
        {
          "duration": 0.006127437499998223,
          "durationTicks": 1,
          "midi": 54,
          "name": "F#3",
          "ticks": 6600,
          "time": 40.4410875,
          "velocity": 1
        },
        {
          "duration": 0.006127437499998223,
          "durationTicks": 1,
          "midi": 52,
          "name": "E3",
          "ticks": 6672,
          "time": 40.882263,
          "velocity": 1
        },
        {
          "duration": 0.006127437499998223,
          "durationTicks": 1,
          "midi": 49,
          "name": "C#3",
          "ticks": 6792,
          "time": 41.6175555,
          "velocity": 1
        },
        {
          "duration": 0.006127437499998223,
          "durationTicks": 1,
          "midi": 54,
          "name": "F#3",
          "ticks": 6840,
          "time": 41.9116725,
          "velocity": 1
        },
        {
          "duration": 0.006127437499998223,
          "durationTicks": 1,
          "midi": 52,
          "name": "E3",
          "ticks": 6912,
          "time": 42.352848,
          "velocity": 1
        },
        {
          "duration": 0.006127437499998223,
          "durationTicks": 1,
          "midi": 54,
          "name": "F#3",
          "ticks": 6984,
          "time": 42.7940235,
          "velocity": 1
        },
        {
          "duration": 0.006127437499998223,
          "durationTicks": 1,
          "midi": 49,
          "name": "C#3",
          "ticks": 7080,
          "time": 43.3822575,
          "velocity": 1
        },
        {
          "duration": 0.006127437499991117,
          "durationTicks": 1,
          "midi": 47,
          "name": "B2",
          "ticks": 7176,
          "time": 43.97049150000001,
          "velocity": 1
        },
        {
          "duration": 0.006127437499991117,
          "durationTicks": 1,
          "midi": 52,
          "name": "E3",
          "ticks": 7224,
          "time": 44.26460850000001,
          "velocity": 1
        },
        {
          "duration": 0.006127437499991117,
          "durationTicks": 1,
          "midi": 47,
          "name": "B2",
          "ticks": 7296,
          "time": 44.70578400000001,
          "velocity": 1
        },
        {
          "duration": 0.006127437499991117,
          "durationTicks": 1,
          "midi": 57,
          "name": "A3",
          "ticks": 7416,
          "time": 45.44107650000001,
          "velocity": 1
        },
        {
          "duration": 0.006127437499991117,
          "durationTicks": 1,
          "midi": 56,
          "name": "G#3",
          "ticks": 7464,
          "time": 45.73519350000001,
          "velocity": 1
        },
        {
          "duration": 0.006127437499991117,
          "durationTicks": 1,
          "midi": 52,
          "name": "E3",
          "ticks": 7488,
          "time": 45.88225200000001,
          "velocity": 1
        },
        {
          "duration": 0.006127437499991117,
          "durationTicks": 1,
          "midi": 49,
          "name": "C#3",
          "ticks": 7536,
          "time": 46.17636900000001,
          "velocity": 1
        },
        {
          "duration": 0.006127437499991117,
          "durationTicks": 1,
          "midi": 52,
          "name": "E3",
          "ticks": 7560,
          "time": 46.32342750000001,
          "velocity": 1
        },
        {
          "duration": 0.006127437499991117,
          "durationTicks": 1,
          "midi": 54,
          "name": "F#3",
          "ticks": 7584,
          "time": 46.47048600000001,
          "velocity": 1
        },
        {
          "duration": 0.006127437499991117,
          "durationTicks": 1,
          "midi": 42,
          "name": "F#2",
          "ticks": 7608,
          "time": 46.61754450000001,
          "velocity": 0.6299212598425197
        },
        {
          "duration": 0.006127437499991117,
          "durationTicks": 1,
          "midi": 54,
          "name": "F#3",
          "ticks": 7680,
          "time": 47.05872000000001,
          "velocity": 1
        },
        {
          "duration": 0.006127437499991117,
          "durationTicks": 1,
          "midi": 49,
          "name": "C#3",
          "ticks": 7848,
          "time": 48.08812950000001,
          "velocity": 1
        },
        {
          "duration": 0.006127437499991117,
          "durationTicks": 1,
          "midi": 54,
          "name": "F#3",
          "ticks": 7896,
          "time": 48.38224650000001,
          "velocity": 1
        },
        {
          "duration": 0.006127437499991117,
          "durationTicks": 1,
          "midi": 56,
          "name": "G#3",
          "ticks": 7944,
          "time": 48.67636350000001,
          "velocity": 1
        },
        {
          "duration": 0.006127437499991117,
          "durationTicks": 1,
          "midi": 57,
          "name": "A3",
          "ticks": 7992,
          "time": 48.97048050000001,
          "velocity": 1
        },
        {
          "duration": 0.006127437499991117,
          "durationTicks": 1,
          "midi": 56,
          "name": "G#3",
          "ticks": 8064,
          "time": 49.41165600000001,
          "velocity": 1
        },
        {
          "duration": 0.006127437499991117,
          "durationTicks": 1,
          "midi": 54,
          "name": "F#3",
          "ticks": 8136,
          "time": 49.85283150000001,
          "velocity": 1
        },
        {
          "duration": 0.006127437499991117,
          "durationTicks": 1,
          "midi": 52,
          "name": "E3",
          "ticks": 8208,
          "time": 50.29400700000001,
          "velocity": 1
        },
        {
          "duration": 0.006127437499991117,
          "durationTicks": 1,
          "midi": 54,
          "name": "F#3",
          "ticks": 8328,
          "time": 51.02929950000001,
          "velocity": 1
        },
        {
          "duration": 0.006127437499991117,
          "durationTicks": 1,
          "midi": 56,
          "name": "G#3",
          "ticks": 8352,
          "time": 51.17635800000001,
          "velocity": 1
        },
        {
          "duration": 0.006127437499991117,
          "durationTicks": 1,
          "midi": 57,
          "name": "A3",
          "ticks": 8376,
          "time": 51.32341650000001,
          "velocity": 1
        },
        {
          "duration": 0.006127437499991117,
          "durationTicks": 1,
          "midi": 56,
          "name": "G#3",
          "ticks": 8400,
          "time": 51.47047500000001,
          "velocity": 1
        },
        {
          "duration": 0.006127437499991117,
          "durationTicks": 1,
          "midi": 54,
          "name": "F#3",
          "ticks": 8424,
          "time": 51.61753350000001,
          "velocity": 1
        },
        {
          "duration": 0.006127437499991117,
          "durationTicks": 1,
          "midi": 52,
          "name": "E3",
          "ticks": 8448,
          "time": 51.76459200000001,
          "velocity": 1
        },
        {
          "duration": 0.006127437499991117,
          "durationTicks": 1,
          "midi": 54,
          "name": "F#3",
          "ticks": 8520,
          "time": 52.20576750000001,
          "velocity": 1
        },
        {
          "duration": 0.006127437499991117,
          "durationTicks": 1,
          "midi": 56,
          "name": "G#3",
          "ticks": 8544,
          "time": 52.35282600000001,
          "velocity": 1
        },
        {
          "duration": 0.006127437499991117,
          "durationTicks": 1,
          "midi": 57,
          "name": "A3",
          "ticks": 8568,
          "time": 52.49988450000001,
          "velocity": 1
        },
        {
          "duration": 0.006127437499991117,
          "durationTicks": 1,
          "midi": 56,
          "name": "G#3",
          "ticks": 8592,
          "time": 52.64694300000001,
          "velocity": 1
        },
        {
          "duration": 0.006127437499991117,
          "durationTicks": 1,
          "midi": 54,
          "name": "F#3",
          "ticks": 8616,
          "time": 52.79400150000001,
          "velocity": 1
        },
        {
          "duration": 0.006127437499991117,
          "durationTicks": 1,
          "midi": 52,
          "name": "E3",
          "ticks": 8640,
          "time": 52.94106000000001,
          "velocity": 1
        },
        {
          "duration": 6.470573999999999,
          "durationTicks": 1056,
          "midi": 57,
          "name": "A3",
          "ticks": 8712,
          "time": 53.38223550000001,
          "velocity": 1
        }
      ]
    },
    {
      "channel": 0,
      "controlChanges": {
        "0": [
          {
            "number": 0,
            "ticks": 204,
            "time": 1.24999725,
            "value": 0
          }
        ],
        "1": [
          {
            "number": 1,
            "ticks": 200,
            "time": 1.2254875,
            "value": 0
          }
        ],
        "5": [
          {
            "number": 5,
            "ticks": 203,
            "time": 1.2438698125,
            "value": 0
          }
        ],
        "6": [
          {
            "number": 6,
            "ticks": 195,
            "time": 1.1948503125,
            "value": 0.12598425196850394
          },
          {
            "number": 6,
            "ticks": 197,
            "time": 1.2071051875,
            "value": 0.5275590551181102
          }
        ],
        "7": [
          {
            "number": 7,
            "ticks": 197,
            "time": 1.2071051875,
            "value": 0.5905511811023622
          }
        ],
        "10": [
          {
            "number": 10,
            "ticks": 199,
            "time": 1.2193600625,
            "value": 0.5039370078740157
          }
        ],
        "11": [
          {
            "number": 11,
            "ticks": 198,
            "time": 1.213232625,
            "value": 0.7874015748031497
          }
        ],
        "32": [
          {
            "number": 32,
            "ticks": 205,
            "time": 1.2561246875,
            "value": 0.007874015748031496
          }
        ],
        "64": [
          {
            "number": 64,
            "ticks": 201,
            "time": 1.2316149375,
            "value": 0
          }
        ],
        "65": [
          {
            "number": 65,
            "ticks": 202,
            "time": 1.237742375,
            "value": 0
          }
        ],
        "91": [
          {
            "number": 91,
            "ticks": 190,
            "time": 1.164213125,
            "value": 0
          }
        ],
        "93": [
          {
            "number": 93,
            "ticks": 191,
            "time": 1.1703405625,
            "value": 0.3779527559055118
          }
        ],
        "94": [
          {
            "number": 94,
            "ticks": 192,
            "time": 1.176468,
            "value": 0
          }
        ],
        "100": [
          {
            "number": 100,
            "ticks": 193,
            "time": 1.1825954375,
            "value": 0
          },
          {
            "number": 100,
            "ticks": 197,
            "time": 1.2071051875,
            "value": 0.007874015748031496
          }
        ],
        "101": [
          {
            "number": 101,
            "ticks": 194,
            "time": 1.188722875,
            "value": 0
          },
          {
            "number": 101,
            "ticks": 197,
            "time": 1.2071051875,
            "value": 0
          }
        ]
      },
      "pitchBends": [
        {
          "ticks": 196,
          "time": 1.20097775,
          "value": 0
        }
      ],
      "instrument": {
        "family": "piano",
        "number": 0,
        "name": "acoustic grand piano"
      },
      "name": "BASE1+\u0000",
      "notes": [],
      "endOfTrackTicks": 9912
    },
    {
      "channel": 0,
      "controlChanges": {
        "0": [
          {
            "number": 0,
            "ticks": 234,
            "time": 1.433820375,
            "value": 0.023622047244094488
          }
        ],
        "1": [
          {
            "number": 1,
            "ticks": 230,
            "time": 1.4093106250000003,
            "value": 0
          }
        ],
        "5": [
          {
            "number": 5,
            "ticks": 233,
            "time": 1.4276929375000003,
            "value": 0
          }
        ],
        "6": [
          {
            "number": 6,
            "ticks": 207,
            "time": 1.2683795625,
            "value": 1
          },
          {
            "number": 6,
            "ticks": 208,
            "time": 1.274507,
            "value": 0
          },
          {
            "number": 6,
            "ticks": 209,
            "time": 1.2806344375,
            "value": 0.5118110236220472
          },
          {
            "number": 6,
            "ticks": 210,
            "time": 1.286761875,
            "value": 1
          },
          {
            "number": 6,
            "ticks": 211,
            "time": 1.2928893125,
            "value": 0.5511811023622047
          },
          {
            "number": 6,
            "ticks": 224,
            "time": 1.3725460000000003,
            "value": 0.12598425196850394
          },
          {
            "number": 6,
            "ticks": 226,
            "time": 1.384800875,
            "value": 0.47244094488188976
          }
        ],
        "7": [
          {
            "number": 7,
            "ticks": 227,
            "time": 1.3909283125000003,
            "value": 0.5511811023622047
          }
        ],
        "10": [
          {
            "number": 10,
            "ticks": 229,
            "time": 1.4031831875,
            "value": 0.4094488188976378
          }
        ],
        "11": [
          {
            "number": 11,
            "ticks": 228,
            "time": 1.39705575,
            "value": 0.7874015748031497
          }
        ],
        "32": [
          {
            "number": 32,
            "ticks": 235,
            "time": 1.4399478125,
            "value": 0.015748031496062992
          }
        ],
        "64": [
          {
            "number": 64,
            "ticks": 231,
            "time": 1.4154380625,
            "value": 0
          }
        ],
        "65": [
          {
            "number": 65,
            "ticks": 232,
            "time": 1.4215655,
            "value": 0
          }
        ],
        "91": [
          {
            "number": 91,
            "ticks": 219,
            "time": 1.3419088125,
            "value": 0
          }
        ],
        "93": [
          {
            "number": 93,
            "ticks": 220,
            "time": 1.34803625,
            "value": 0.3779527559055118
          }
        ],
        "94": [
          {
            "number": 94,
            "ticks": 221,
            "time": 1.3541636875000003,
            "value": 0
          }
        ],
        "98": [
          {
            "number": 98,
            "ticks": 207,
            "time": 1.2683795625,
            "value": 0.25196850393700787
          },
          {
            "number": 98,
            "ticks": 208,
            "time": 1.274507,
            "value": 0.25984251968503935
          },
          {
            "number": 98,
            "ticks": 209,
            "time": 1.2806344375,
            "value": 0.7795275590551181
          },
          {
            "number": 98,
            "ticks": 210,
            "time": 1.286761875,
            "value": 0.7874015748031497
          },
          {
            "number": 98,
            "ticks": 211,
            "time": 1.2928893125,
            "value": 0.8031496062992126
          }
        ],
        "99": [
          {
            "number": 99,
            "ticks": 207,
            "time": 1.2683795625,
            "value": 0.007874015748031496
          },
          {
            "number": 99,
            "ticks": 208,
            "time": 1.274507,
            "value": 0.007874015748031496
          },
          {
            "number": 99,
            "ticks": 209,
            "time": 1.2806344375,
            "value": 0.007874015748031496
          },
          {
            "number": 99,
            "ticks": 210,
            "time": 1.286761875,
            "value": 0.007874015748031496
          },
          {
            "number": 99,
            "ticks": 211,
            "time": 1.2928893125,
            "value": 0.007874015748031496
          }
        ],
        "100": [
          {
            "number": 100,
            "ticks": 222,
            "time": 1.360291125,
            "value": 0
          },
          {
            "number": 100,
            "ticks": 226,
            "time": 1.384800875,
            "value": 0.007874015748031496
          }
        ],
        "101": [
          {
            "number": 101,
            "ticks": 223,
            "time": 1.3664185625,
            "value": 0
          },
          {
            "number": 101,
            "ticks": 226,
            "time": 1.384800875,
            "value": 0
          }
        ]
      },
      "pitchBends": [
        {
          "ticks": 225,
          "time": 1.3786734375,
          "value": 0
        }
      ],
      "instrument": {
        "family": "bass",
        "number": 36,
        "name": "slap bass 1"
      },
      "name": "",
      "notes": []
    },
    {
      "channel": 6,
      "controlChanges": {
        "6": [
          {
            "number": 6,
            "ticks": 237,
            "time": 1.4522026875,
            "value": 1
          },
          {
            "number": 6,
            "ticks": 238,
            "time": 1.458330125,
            "value": 0.5511811023622047
          },
          {
            "number": 6,
            "ticks": 239,
            "time": 1.4644575625000003,
            "value": 1
          },
          {
            "number": 6,
            "ticks": 240,
            "time": 1.470585,
            "value": 0.5039370078740157
          }
        ],
        "7": [
          {
            "number": 7,
            "ticks": 9192,
            "time": 56.32340550000001,
            "value": 0.5511811023622047
          },
          {
            "number": 7,
            "ticks": 9240,
            "time": 56.61752250000001,
            "value": 0.5118110236220472
          },
          {
            "number": 7,
            "ticks": 9288,
            "time": 56.91163950000001,
            "value": 0.48031496062992124
          },
          {
            "number": 7,
            "ticks": 9336,
            "time": 57.20575650000001,
            "value": 0.4409448818897638
          },
          {
            "number": 7,
            "ticks": 9384,
            "time": 57.49987350000001,
            "value": 0.4094488188976378
          },
          {
            "number": 7,
            "ticks": 9432,
            "time": 57.79399050000001,
            "value": 0.3779527559055118
          },
          {
            "number": 7,
            "ticks": 9480,
            "time": 58.08810750000001,
            "value": 0.33858267716535434
          },
          {
            "number": 7,
            "ticks": 9528,
            "time": 58.38222450000001,
            "value": 0.30708661417322836
          },
          {
            "number": 7,
            "ticks": 9576,
            "time": 58.67634150000001,
            "value": 0.2755905511811024
          },
          {
            "number": 7,
            "ticks": 9624,
            "time": 58.97045850000001,
            "value": 0.23622047244094488
          },
          {
            "number": 7,
            "ticks": 9672,
            "time": 59.26457550000001,
            "value": 0.2047244094488189
          },
          {
            "number": 7,
            "ticks": 9720,
            "time": 59.55869250000001,
            "value": 0.16535433070866143
          },
          {
            "number": 7,
            "ticks": 9768,
            "time": 59.852809500000006,
            "value": 0.13385826771653545
          },
          {
            "number": 7,
            "ticks": 9816,
            "time": 60.146926500000006,
            "value": 0.10236220472440945
          },
          {
            "number": 7,
            "ticks": 9864,
            "time": 60.441043500000006,
            "value": 0.06299212598425197
          },
          {
            "number": 7,
            "ticks": 9912,
            "time": 60.735160500000006,
            "value": 0.031496062992125984
          }
        ],
        "98": [
          {
            "number": 98,
            "ticks": 237,
            "time": 1.4522026875,
            "value": 0.25196850393700787
          },
          {
            "number": 98,
            "ticks": 238,
            "time": 1.458330125,
            "value": 0.25984251968503935
          },
          {
            "number": 98,
            "ticks": 239,
            "time": 1.4644575625000003,
            "value": 0.7874015748031497
          },
          {
            "number": 98,
            "ticks": 240,
            "time": 1.470585,
            "value": 0.8031496062992126
          }
        ],
        "99": [
          {
            "number": 99,
            "ticks": 237,
            "time": 1.4522026875,
            "value": 0.007874015748031496
          },
          {
            "number": 99,
            "ticks": 238,
            "time": 1.458330125,
            "value": 0.007874015748031496
          },
          {
            "number": 99,
            "ticks": 239,
            "time": 1.4644575625000003,
            "value": 0.007874015748031496
          },
          {
            "number": 99,
            "ticks": 240,
            "time": 1.470585,
            "value": 0.007874015748031496
          }
        ]
      },
      "pitchBends": [],
      "instrument": {
        "family": "bass",
        "number": 39,
        "name": "synth bass 2"
      },
      "name": "",
      "notes": [
        {
          "duration": 0.09803899999999999,
          "durationTicks": 16,
          "midi": 30,
          "name": "F#1",
          "ticks": 312,
          "time": 1.9117605000000002,
          "velocity": 1
        },
        {
          "duration": 0.09803899999999999,
          "durationTicks": 16,
          "midi": 30,
          "name": "F#1",
          "ticks": 336,
          "time": 2.058819,
          "velocity": 1
        },
        {
          "duration": 0.09803899999999999,
          "durationTicks": 16,
          "midi": 42,
          "name": "F#2",
          "ticks": 360,
          "time": 2.2058775,
          "velocity": 1
        },
        {
          "duration": 0.09803899999999999,
          "durationTicks": 16,
          "midi": 30,
          "name": "F#1",
          "ticks": 384,
          "time": 2.352936,
          "velocity": 1
        },
        {
          "duration": 0.09803899999999999,
          "durationTicks": 16,
          "midi": 30,
          "name": "F#1",
          "ticks": 408,
          "time": 2.4999945,
          "velocity": 1
        },
        {
          "duration": 0.09803899999999954,
          "durationTicks": 16,
          "midi": 30,
          "name": "F#1",
          "ticks": 432,
          "time": 2.6470530000000005,
          "velocity": 1
        },
        {
          "duration": 0.09803899999999999,
          "durationTicks": 16,
          "midi": 42,
          "name": "F#2",
          "ticks": 456,
          "time": 2.7941115000000005,
          "velocity": 1
        },
        {
          "duration": 0.09803899999999999,
          "durationTicks": 16,
          "midi": 30,
          "name": "F#1",
          "ticks": 480,
          "time": 2.9411700000000005,
          "velocity": 1
        },
        {
          "duration": 0.09803899999999999,
          "durationTicks": 16,
          "midi": 30,
          "name": "F#1",
          "ticks": 528,
          "time": 3.2352870000000005,
          "velocity": 1
        },
        {
          "duration": 0.09803899999999999,
          "durationTicks": 16,
          "midi": 42,
          "name": "F#2",
          "ticks": 552,
          "time": 3.3823455000000004,
          "velocity": 1
        },
        {
          "duration": 0.09803899999999999,
          "durationTicks": 16,
          "midi": 30,
          "name": "F#1",
          "ticks": 576,
          "time": 3.5294040000000004,
          "velocity": 1
        },
        {
          "duration": 0.09803899999999999,
          "durationTicks": 16,
          "midi": 37,
          "name": "C#2",
          "ticks": 600,
          "time": 3.6764625000000004,
          "velocity": 1
        },
        {
          "duration": 0.09803899999999999,
          "durationTicks": 16,
          "midi": 42,
          "name": "F#2",
          "ticks": 624,
          "time": 3.8235210000000004,
          "velocity": 1
        },
        {
          "duration": 0.09803899999999999,
          "durationTicks": 16,
          "midi": 30,
          "name": "F#1",
          "ticks": 648,
          "time": 3.9705795000000004,
          "velocity": 1
        },
        {
          "duration": 0.09803899999999999,
          "durationTicks": 16,
          "midi": 30,
          "name": "F#1",
          "ticks": 672,
          "time": 4.117638,
          "velocity": 1
        },
        {
          "duration": 0.09803899999999999,
          "durationTicks": 16,
          "midi": 42,
          "name": "F#2",
          "ticks": 696,
          "time": 4.2646965,
          "velocity": 1
        },
        {
          "duration": 0.09803899999999999,
          "durationTicks": 16,
          "midi": 30,
          "name": "F#1",
          "ticks": 720,
          "time": 4.411755,
          "velocity": 1
        },
        {
          "duration": 0.0980389999999991,
          "durationTicks": 16,
          "midi": 30,
          "name": "F#1",
          "ticks": 744,
          "time": 4.558813500000001,
          "velocity": 1
        },
        {
          "duration": 0.0980389999999991,
          "durationTicks": 16,
          "midi": 30,
          "name": "F#1",
          "ticks": 768,
          "time": 4.705872000000001,
          "velocity": 1
        },
        {
          "duration": 0.0980389999999991,
          "durationTicks": 16,
          "midi": 42,
          "name": "F#2",
          "ticks": 792,
          "time": 4.852930500000001,
          "velocity": 1
        },
        {
          "duration": 0.0980389999999991,
          "durationTicks": 16,
          "midi": 30,
          "name": "F#1",
          "ticks": 816,
          "time": 4.999989000000001,
          "velocity": 1
        },
        {
          "duration": 0.0980389999999991,
          "durationTicks": 16,
          "midi": 30,
          "name": "F#1",
          "ticks": 864,
          "time": 5.294106000000001,
          "velocity": 1
        },
        {
          "duration": 0.0980389999999991,
          "durationTicks": 16,
          "midi": 42,
          "name": "F#2",
          "ticks": 888,
          "time": 5.441164500000001,
          "velocity": 1
        },
        {
          "duration": 0.0980389999999991,
          "durationTicks": 16,
          "midi": 30,
          "name": "F#1",
          "ticks": 912,
          "time": 5.588223000000001,
          "velocity": 1
        },
        {
          "duration": 0.0980389999999991,
          "durationTicks": 16,
          "midi": 40,
          "name": "E2",
          "ticks": 936,
          "time": 5.735281500000001,
          "velocity": 1
        },
        {
          "duration": 0.09803899999999999,
          "durationTicks": 16,
          "midi": 37,
          "name": "C#2",
          "ticks": 960,
          "time": 5.882340000000001,
          "velocity": 1
        },
        {
          "duration": 0.09803899999999999,
          "durationTicks": 16,
          "midi": 30,
          "name": "F#1",
          "ticks": 984,
          "time": 6.029398500000001,
          "velocity": 1
        },
        {
          "duration": 0.09803899999999999,
          "durationTicks": 16,
          "midi": 30,
          "name": "F#1",
          "ticks": 1008,
          "time": 6.176457000000001,
          "velocity": 1
        },
        {
          "duration": 0.09803899999999999,
          "durationTicks": 16,
          "midi": 42,
          "name": "F#2",
          "ticks": 1032,
          "time": 6.323515500000001,
          "velocity": 1
        },
        {
          "duration": 0.09803899999999999,
          "durationTicks": 16,
          "midi": 30,
          "name": "F#1",
          "ticks": 1056,
          "time": 6.470574000000001,
          "velocity": 1
        },
        {
          "duration": 0.09803899999999999,
          "durationTicks": 16,
          "midi": 30,
          "name": "F#1",
          "ticks": 1080,
          "time": 6.617632500000001,
          "velocity": 1
        },
        {
          "duration": 0.09803899999999999,
          "durationTicks": 16,
          "midi": 30,
          "name": "F#1",
          "ticks": 1104,
          "time": 6.764691000000001,
          "velocity": 1
        },
        {
          "duration": 0.09803899999999999,
          "durationTicks": 16,
          "midi": 42,
          "name": "F#2",
          "ticks": 1128,
          "time": 6.911749500000001,
          "velocity": 1
        },
        {
          "duration": 0.09803899999999999,
          "durationTicks": 16,
          "midi": 30,
          "name": "F#1",
          "ticks": 1152,
          "time": 7.058808000000001,
          "velocity": 1
        },
        {
          "duration": 0.09803899999999999,
          "durationTicks": 16,
          "midi": 30,
          "name": "F#1",
          "ticks": 1200,
          "time": 7.352925000000001,
          "velocity": 1
        },
        {
          "duration": 0.09803899999999999,
          "durationTicks": 16,
          "midi": 42,
          "name": "F#2",
          "ticks": 1224,
          "time": 7.499983500000001,
          "velocity": 1
        },
        {
          "duration": 0.09803899999999999,
          "durationTicks": 16,
          "midi": 30,
          "name": "F#1",
          "ticks": 1248,
          "time": 7.647042000000001,
          "velocity": 1
        },
        {
          "duration": 0.09803899999999999,
          "durationTicks": 16,
          "midi": 37,
          "name": "C#2",
          "ticks": 1272,
          "time": 7.794100500000001,
          "velocity": 1
        },
        {
          "duration": 0.09803899999999999,
          "durationTicks": 16,
          "midi": 42,
          "name": "F#2",
          "ticks": 1296,
          "time": 7.941159000000001,
          "velocity": 1
        },
        {
          "duration": 0.09803899999999999,
          "durationTicks": 16,
          "midi": 30,
          "name": "F#1",
          "ticks": 1320,
          "time": 8.0882175,
          "velocity": 1
        },
        {
          "duration": 0.09803899999999999,
          "durationTicks": 16,
          "midi": 30,
          "name": "F#1",
          "ticks": 1344,
          "time": 8.235276,
          "velocity": 1
        },
        {
          "duration": 0.09803899999999999,
          "durationTicks": 16,
          "midi": 42,
          "name": "F#2",
          "ticks": 1368,
          "time": 8.3823345,
          "velocity": 1
        },
        {
          "duration": 0.09803899999999999,
          "durationTicks": 16,
          "midi": 30,
          "name": "F#1",
          "ticks": 1392,
          "time": 8.529393,
          "velocity": 1
        },
        {
          "duration": 0.09803899999999999,
          "durationTicks": 16,
          "midi": 30,
          "name": "F#1",
          "ticks": 1416,
          "time": 8.6764515,
          "velocity": 1
        },
        {
          "duration": 0.09803899999999999,
          "durationTicks": 16,
          "midi": 30,
          "name": "F#1",
          "ticks": 1440,
          "time": 8.82351,
          "velocity": 1
        },
        {
          "duration": 0.09803899999999999,
          "durationTicks": 16,
          "midi": 42,
          "name": "F#2",
          "ticks": 1464,
          "time": 8.9705685,
          "velocity": 1
        },
        {
          "duration": 0.09803899999999999,
          "durationTicks": 16,
          "midi": 30,
          "name": "F#1",
          "ticks": 1488,
          "time": 9.117627,
          "velocity": 1
        },
        {
          "duration": 0.09803899999999999,
          "durationTicks": 16,
          "midi": 30,
          "name": "F#1",
          "ticks": 1536,
          "time": 9.411744,
          "velocity": 1
        },
        {
          "duration": 0.09803899999999999,
          "durationTicks": 16,
          "midi": 42,
          "name": "F#2",
          "ticks": 1560,
          "time": 9.5588025,
          "velocity": 1
        },
        {
          "duration": 0.09803899999999999,
          "durationTicks": 16,
          "midi": 30,
          "name": "F#1",
          "ticks": 1584,
          "time": 9.705861,
          "velocity": 1
        },
        {
          "duration": 0.09803899999999999,
          "durationTicks": 16,
          "midi": 40,
          "name": "E2",
          "ticks": 1608,
          "time": 9.8529195,
          "velocity": 1
        },
        {
          "duration": 0.09803899999999999,
          "durationTicks": 16,
          "midi": 37,
          "name": "C#2",
          "ticks": 1632,
          "time": 9.999978,
          "velocity": 1
        },
        {
          "duration": 0.09803899999999999,
          "durationTicks": 16,
          "midi": 30,
          "name": "F#1",
          "ticks": 1656,
          "time": 10.1470365,
          "velocity": 1
        },
        {
          "duration": 0.09803899999999999,
          "durationTicks": 16,
          "midi": 30,
          "name": "F#1",
          "ticks": 1680,
          "time": 10.294095,
          "velocity": 1
        },
        {
          "duration": 0.09803899999999999,
          "durationTicks": 16,
          "midi": 42,
          "name": "F#2",
          "ticks": 1704,
          "time": 10.4411535,
          "velocity": 1
        },
        {
          "duration": 0.09803899999999999,
          "durationTicks": 16,
          "midi": 30,
          "name": "F#1",
          "ticks": 1728,
          "time": 10.588212,
          "velocity": 1
        },
        {
          "duration": 0.09803899999999999,
          "durationTicks": 16,
          "midi": 30,
          "name": "F#1",
          "ticks": 1752,
          "time": 10.7352705,
          "velocity": 1
        },
        {
          "duration": 0.09803899999999999,
          "durationTicks": 16,
          "midi": 30,
          "name": "F#1",
          "ticks": 1776,
          "time": 10.882329,
          "velocity": 1
        },
        {
          "duration": 0.09803899999999999,
          "durationTicks": 16,
          "midi": 42,
          "name": "F#2",
          "ticks": 1800,
          "time": 11.0293875,
          "velocity": 1
        },
        {
          "duration": 0.09803899999999999,
          "durationTicks": 16,
          "midi": 30,
          "name": "F#1",
          "ticks": 1824,
          "time": 11.176446,
          "velocity": 1
        },
        {
          "duration": 0.09803899999999999,
          "durationTicks": 16,
          "midi": 30,
          "name": "F#1",
          "ticks": 1872,
          "time": 11.470563,
          "velocity": 1
        },
        {
          "duration": 0.09803899999999999,
          "durationTicks": 16,
          "midi": 42,
          "name": "F#2",
          "ticks": 1896,
          "time": 11.6176215,
          "velocity": 1
        },
        {
          "duration": 0.09803899999999999,
          "durationTicks": 16,
          "midi": 30,
          "name": "F#1",
          "ticks": 1920,
          "time": 11.76468,
          "velocity": 1
        },
        {
          "duration": 0.09803899999999999,
          "durationTicks": 16,
          "midi": 37,
          "name": "C#2",
          "ticks": 1944,
          "time": 11.9117385,
          "velocity": 1
        },
        {
          "duration": 0.09803899999999999,
          "durationTicks": 16,
          "midi": 42,
          "name": "F#2",
          "ticks": 1968,
          "time": 12.058797,
          "velocity": 1
        },
        {
          "duration": 0.09803899999999999,
          "durationTicks": 16,
          "midi": 30,
          "name": "F#1",
          "ticks": 1992,
          "time": 12.2058555,
          "velocity": 1
        },
        {
          "duration": 0.09803899999999821,
          "durationTicks": 16,
          "midi": 30,
          "name": "F#1",
          "ticks": 2016,
          "time": 12.352914000000002,
          "velocity": 1
        },
        {
          "duration": 0.09803899999999821,
          "durationTicks": 16,
          "midi": 42,
          "name": "F#2",
          "ticks": 2040,
          "time": 12.499972500000002,
          "velocity": 1
        },
        {
          "duration": 0.09803899999999821,
          "durationTicks": 16,
          "midi": 30,
          "name": "F#1",
          "ticks": 2064,
          "time": 12.647031000000002,
          "velocity": 1
        },
        {
          "duration": 0.09803899999999821,
          "durationTicks": 16,
          "midi": 30,
          "name": "F#1",
          "ticks": 2088,
          "time": 12.794089500000002,
          "velocity": 1
        },
        {
          "duration": 0.09803899999999821,
          "durationTicks": 16,
          "midi": 30,
          "name": "F#1",
          "ticks": 2112,
          "time": 12.941148000000002,
          "velocity": 1
        },
        {
          "duration": 0.09803899999999821,
          "durationTicks": 16,
          "midi": 42,
          "name": "F#2",
          "ticks": 2136,
          "time": 13.088206500000002,
          "velocity": 1
        },
        {
          "duration": 0.09803899999999821,
          "durationTicks": 16,
          "midi": 30,
          "name": "F#1",
          "ticks": 2160,
          "time": 13.235265000000002,
          "velocity": 1
        },
        {
          "duration": 0.09803899999999821,
          "durationTicks": 16,
          "midi": 30,
          "name": "F#1",
          "ticks": 2208,
          "time": 13.529382000000002,
          "velocity": 1
        },
        {
          "duration": 0.09803899999999821,
          "durationTicks": 16,
          "midi": 42,
          "name": "F#2",
          "ticks": 2232,
          "time": 13.676440500000002,
          "velocity": 1
        },
        {
          "duration": 0.09803899999999821,
          "durationTicks": 16,
          "midi": 30,
          "name": "F#1",
          "ticks": 2256,
          "time": 13.823499000000002,
          "velocity": 1
        },
        {
          "duration": 0.09803899999999821,
          "durationTicks": 16,
          "midi": 40,
          "name": "E2",
          "ticks": 2280,
          "time": 13.970557500000002,
          "velocity": 1
        },
        {
          "duration": 0.09803899999999821,
          "durationTicks": 16,
          "midi": 37,
          "name": "C#2",
          "ticks": 2304,
          "time": 14.117616000000002,
          "velocity": 1
        },
        {
          "duration": 0.09803899999999821,
          "durationTicks": 16,
          "midi": 30,
          "name": "F#1",
          "ticks": 2328,
          "time": 14.264674500000002,
          "velocity": 1
        },
        {
          "duration": 0.09803899999999821,
          "durationTicks": 16,
          "midi": 30,
          "name": "F#1",
          "ticks": 2352,
          "time": 14.411733000000002,
          "velocity": 1
        },
        {
          "duration": 0.09803899999999821,
          "durationTicks": 16,
          "midi": 42,
          "name": "F#2",
          "ticks": 2376,
          "time": 14.558791500000002,
          "velocity": 1
        },
        {
          "duration": 0.09803899999999821,
          "durationTicks": 16,
          "midi": 30,
          "name": "F#1",
          "ticks": 2400,
          "time": 14.705850000000002,
          "velocity": 1
        },
        {
          "duration": 0.09803899999999821,
          "durationTicks": 16,
          "midi": 30,
          "name": "F#1",
          "ticks": 2424,
          "time": 14.852908500000002,
          "velocity": 1
        },
        {
          "duration": 0.09803899999999821,
          "durationTicks": 16,
          "midi": 30,
          "name": "F#1",
          "ticks": 2448,
          "time": 14.999967000000002,
          "velocity": 1
        },
        {
          "duration": 0.09803899999999821,
          "durationTicks": 16,
          "midi": 42,
          "name": "F#2",
          "ticks": 2472,
          "time": 15.147025500000002,
          "velocity": 1
        },
        {
          "duration": 0.09803899999999821,
          "durationTicks": 16,
          "midi": 30,
          "name": "F#1",
          "ticks": 2496,
          "time": 15.294084000000002,
          "velocity": 1
        },
        {
          "duration": 0.09803899999999821,
          "durationTicks": 16,
          "midi": 30,
          "name": "F#1",
          "ticks": 2544,
          "time": 15.588201000000002,
          "velocity": 1
        },
        {
          "duration": 0.09803899999999821,
          "durationTicks": 16,
          "midi": 42,
          "name": "F#2",
          "ticks": 2568,
          "time": 15.735259500000002,
          "velocity": 1
        },
        {
          "duration": 0.09803899999999821,
          "durationTicks": 16,
          "midi": 30,
          "name": "F#1",
          "ticks": 2592,
          "time": 15.882318000000001,
          "velocity": 1
        },
        {
          "duration": 0.09803899999999999,
          "durationTicks": 16,
          "midi": 37,
          "name": "C#2",
          "ticks": 2616,
          "time": 16.0293765,
          "velocity": 1
        },
        {
          "duration": 0.09803899999999999,
          "durationTicks": 16,
          "midi": 42,
          "name": "F#2",
          "ticks": 2640,
          "time": 16.176435,
          "velocity": 1
        },
        {
          "duration": 0.09803899999999999,
          "durationTicks": 16,
          "midi": 30,
          "name": "F#1",
          "ticks": 2664,
          "time": 16.3234935,
          "velocity": 1
        },
        {
          "duration": 0.09803899999999999,
          "durationTicks": 16,
          "midi": 30,
          "name": "F#1",
          "ticks": 2688,
          "time": 16.470552,
          "velocity": 1
        },
        {
          "duration": 0.09803899999999999,
          "durationTicks": 16,
          "midi": 42,
          "name": "F#2",
          "ticks": 2712,
          "time": 16.6176105,
          "velocity": 1
        },
        {
          "duration": 0.09803899999999999,
          "durationTicks": 16,
          "midi": 30,
          "name": "F#1",
          "ticks": 2736,
          "time": 16.764669,
          "velocity": 1
        },
        {
          "duration": 0.09803899999999999,
          "durationTicks": 16,
          "midi": 30,
          "name": "F#1",
          "ticks": 2760,
          "time": 16.9117275,
          "velocity": 1
        },
        {
          "duration": 0.09803899999999999,
          "durationTicks": 16,
          "midi": 30,
          "name": "F#1",
          "ticks": 2784,
          "time": 17.058786,
          "velocity": 1
        },
        {
          "duration": 0.09803899999999999,
          "durationTicks": 16,
          "midi": 42,
          "name": "F#2",
          "ticks": 2808,
          "time": 17.2058445,
          "velocity": 1
        },
        {
          "duration": 0.09803899999999999,
          "durationTicks": 16,
          "midi": 30,
          "name": "F#1",
          "ticks": 2832,
          "time": 17.352903,
          "velocity": 1
        },
        {
          "duration": 0.09803899999999999,
          "durationTicks": 16,
          "midi": 30,
          "name": "F#1",
          "ticks": 2880,
          "time": 17.64702,
          "velocity": 1
        },
        {
          "duration": 0.09803899999999999,
          "durationTicks": 16,
          "midi": 42,
          "name": "F#2",
          "ticks": 2904,
          "time": 17.7940785,
          "velocity": 1
        },
        {
          "duration": 0.09803899999999999,
          "durationTicks": 16,
          "midi": 30,
          "name": "F#1",
          "ticks": 2928,
          "time": 17.941137,
          "velocity": 1
        },
        {
          "duration": 0.09803899999999999,
          "durationTicks": 16,
          "midi": 40,
          "name": "E2",
          "ticks": 2952,
          "time": 18.0881955,
          "velocity": 1
        },
        {
          "duration": 0.09803899999999999,
          "durationTicks": 16,
          "midi": 37,
          "name": "C#2",
          "ticks": 2976,
          "time": 18.235254,
          "velocity": 1
        },
        {
          "duration": 0.39215599999999995,
          "durationTicks": 64,
          "midi": 38,
          "name": "D2",
          "ticks": 3000,
          "time": 18.3823125,
          "velocity": 1
        },
        {
          "duration": 0.09803899999999999,
          "durationTicks": 16,
          "midi": 38,
          "name": "D2",
          "ticks": 3096,
          "time": 18.9705465,
          "velocity": 1
        },
        {
          "duration": 0.09803899999999999,
          "durationTicks": 16,
          "midi": 38,
          "name": "D2",
          "ticks": 3120,
          "time": 19.117605,
          "velocity": 1
        },
        {
          "duration": 0.09803899999999999,
          "durationTicks": 16,
          "midi": 38,
          "name": "D2",
          "ticks": 3168,
          "time": 19.411722,
          "velocity": 1
        },
        {
          "duration": 0.09803899999999999,
          "durationTicks": 16,
          "midi": 38,
          "name": "D2",
          "ticks": 3216,
          "time": 19.705839,
          "velocity": 1
        },
        {
          "duration": 0.24509749999999997,
          "durationTicks": 40,
          "midi": 38,
          "name": "D2",
          "ticks": 3264,
          "time": 19.999956,
          "velocity": 1
        },
        {
          "duration": 0.09803899999999999,
          "durationTicks": 16,
          "midi": 38,
          "name": "D2",
          "ticks": 3312,
          "time": 20.294073,
          "velocity": 1
        },
        {
          "duration": 0.09803899999999999,
          "durationTicks": 16,
          "midi": 38,
          "name": "D2",
          "ticks": 3360,
          "time": 20.58819,
          "velocity": 1
        },
        {
          "duration": 0.39215599999999995,
          "durationTicks": 64,
          "midi": 40,
          "name": "E2",
          "ticks": 3384,
          "time": 20.7352485,
          "velocity": 1
        },
        {
          "duration": 0.09803899999999999,
          "durationTicks": 16,
          "midi": 40,
          "name": "E2",
          "ticks": 3480,
          "time": 21.3234825,
          "velocity": 1
        },
        {
          "duration": 0.09803899999999999,
          "durationTicks": 16,
          "midi": 40,
          "name": "E2",
          "ticks": 3504,
          "time": 21.470541,
          "velocity": 1
        },
        {
          "duration": 0.09803899999999999,
          "durationTicks": 16,
          "midi": 40,
          "name": "E2",
          "ticks": 3552,
          "time": 21.764658,
          "velocity": 1
        },
        {
          "duration": 0.09803899999999999,
          "durationTicks": 16,
          "midi": 40,
          "name": "E2",
          "ticks": 3600,
          "time": 22.058775,
          "velocity": 1
        },
        {
          "duration": 0.24509749999999997,
          "durationTicks": 40,
          "midi": 40,
          "name": "E2",
          "ticks": 3648,
          "time": 22.352892,
          "velocity": 1
        },
        {
          "duration": 0.09803900000000354,
          "durationTicks": 16,
          "midi": 40,
          "name": "E2",
          "ticks": 3696,
          "time": 22.647009,
          "velocity": 1
        },
        {
          "duration": 0.09803900000000354,
          "durationTicks": 16,
          "midi": 40,
          "name": "E2",
          "ticks": 3744,
          "time": 22.941126,
          "velocity": 1
        },
        {
          "duration": 0.3921560000000035,
          "durationTicks": 64,
          "midi": 38,
          "name": "D2",
          "ticks": 3768,
          "time": 23.0881845,
          "velocity": 1
        },
        {
          "duration": 0.09803900000000354,
          "durationTicks": 16,
          "midi": 38,
          "name": "D2",
          "ticks": 3864,
          "time": 23.6764185,
          "velocity": 1
        },
        {
          "duration": 0.09803900000000354,
          "durationTicks": 16,
          "midi": 38,
          "name": "D2",
          "ticks": 3888,
          "time": 23.823477,
          "velocity": 1
        },
        {
          "duration": 0.09803900000000354,
          "durationTicks": 16,
          "midi": 38,
          "name": "D2",
          "ticks": 3936,
          "time": 24.117594,
          "velocity": 1
        },
        {
          "duration": 0.09803900000000354,
          "durationTicks": 16,
          "midi": 38,
          "name": "D2",
          "ticks": 3984,
          "time": 24.411711,
          "velocity": 1
        },
        {
          "duration": 0.24509750000000352,
          "durationTicks": 40,
          "midi": 38,
          "name": "D2",
          "ticks": 4032,
          "time": 24.705828,
          "velocity": 1
        },
        {
          "duration": 0.09803900000000354,
          "durationTicks": 16,
          "midi": 38,
          "name": "D2",
          "ticks": 4080,
          "time": 24.999945,
          "velocity": 1
        },
        {
          "duration": 0.09803900000000354,
          "durationTicks": 16,
          "midi": 38,
          "name": "D2",
          "ticks": 4128,
          "time": 25.294062,
          "velocity": 1
        },
        {
          "duration": 0.3921560000000035,
          "durationTicks": 64,
          "midi": 40,
          "name": "E2",
          "ticks": 4152,
          "time": 25.4411205,
          "velocity": 1
        },
        {
          "duration": 0.09803900000000354,
          "durationTicks": 16,
          "midi": 40,
          "name": "E2",
          "ticks": 4248,
          "time": 26.0293545,
          "velocity": 1
        },
        {
          "duration": 0.09803900000000354,
          "durationTicks": 16,
          "midi": 40,
          "name": "E2",
          "ticks": 4272,
          "time": 26.176413,
          "velocity": 1
        },
        {
          "duration": 0.09803900000000354,
          "durationTicks": 16,
          "midi": 40,
          "name": "E2",
          "ticks": 4320,
          "time": 26.47053,
          "velocity": 1
        },
        {
          "duration": 0.09803900000000354,
          "durationTicks": 16,
          "midi": 40,
          "name": "E2",
          "ticks": 4368,
          "time": 26.764647,
          "velocity": 1
        },
        {
          "duration": 0.24509750000000352,
          "durationTicks": 40,
          "midi": 40,
          "name": "E2",
          "ticks": 4416,
          "time": 27.058764,
          "velocity": 1
        },
        {
          "duration": 0.09803900000000354,
          "durationTicks": 16,
          "midi": 40,
          "name": "E2",
          "ticks": 4464,
          "time": 27.352881,
          "velocity": 1
        },
        {
          "duration": 0.09803900000000354,
          "durationTicks": 16,
          "midi": 40,
          "name": "E2",
          "ticks": 4512,
          "time": 27.646998,
          "velocity": 1
        },
        {
          "duration": 0.3921560000000035,
          "durationTicks": 64,
          "midi": 38,
          "name": "D2",
          "ticks": 4536,
          "time": 27.7940565,
          "velocity": 1
        },
        {
          "duration": 0.09803900000000354,
          "durationTicks": 16,
          "midi": 38,
          "name": "D2",
          "ticks": 4632,
          "time": 28.3822905,
          "velocity": 1
        },
        {
          "duration": 0.09803900000000354,
          "durationTicks": 16,
          "midi": 38,
          "name": "D2",
          "ticks": 4656,
          "time": 28.529349,
          "velocity": 1
        },
        {
          "duration": 0.09803900000000354,
          "durationTicks": 16,
          "midi": 38,
          "name": "D2",
          "ticks": 4704,
          "time": 28.823466,
          "velocity": 1
        },
        {
          "duration": 0.09803900000000354,
          "durationTicks": 16,
          "midi": 38,
          "name": "D2",
          "ticks": 4752,
          "time": 29.117583,
          "velocity": 1
        },
        {
          "duration": 0.24509750000000352,
          "durationTicks": 40,
          "midi": 38,
          "name": "D2",
          "ticks": 4800,
          "time": 29.4117,
          "velocity": 1
        },
        {
          "duration": 0.09803900000000354,
          "durationTicks": 16,
          "midi": 38,
          "name": "D2",
          "ticks": 4848,
          "time": 29.705817,
          "velocity": 1
        },
        {
          "duration": 0.09803900000000354,
          "durationTicks": 16,
          "midi": 38,
          "name": "D2",
          "ticks": 4896,
          "time": 29.999934,
          "velocity": 1
        },
        {
          "duration": 0.3921560000000035,
          "durationTicks": 64,
          "midi": 40,
          "name": "E2",
          "ticks": 4920,
          "time": 30.1469925,
          "velocity": 1
        },
        {
          "duration": 0.09803900000000354,
          "durationTicks": 16,
          "midi": 40,
          "name": "E2",
          "ticks": 5016,
          "time": 30.7352265,
          "velocity": 1
        },
        {
          "duration": 0.09803900000000354,
          "durationTicks": 16,
          "midi": 40,
          "name": "E2",
          "ticks": 5040,
          "time": 30.882285,
          "velocity": 1
        },
        {
          "duration": 0.09803900000000354,
          "durationTicks": 16,
          "midi": 40,
          "name": "E2",
          "ticks": 5088,
          "time": 31.176402,
          "velocity": 1
        },
        {
          "duration": 0.09803900000000354,
          "durationTicks": 16,
          "midi": 40,
          "name": "E2",
          "ticks": 5136,
          "time": 31.470519,
          "velocity": 1
        },
        {
          "duration": 0.24509750000000352,
          "durationTicks": 40,
          "midi": 40,
          "name": "E2",
          "ticks": 5184,
          "time": 31.764636,
          "velocity": 1
        },
        {
          "duration": 0.09803899999999999,
          "durationTicks": 16,
          "midi": 40,
          "name": "E2",
          "ticks": 5232,
          "time": 32.058753,
          "velocity": 1
        },
        {
          "duration": 0.09803899999999999,
          "durationTicks": 16,
          "midi": 40,
          "name": "E2",
          "ticks": 5280,
          "time": 32.35287,
          "velocity": 1
        },
        {
          "duration": 0.39215599999999995,
          "durationTicks": 64,
          "midi": 38,
          "name": "D2",
          "ticks": 5304,
          "time": 32.4999285,
          "velocity": 1
        },
        {
          "duration": 0.09803899999999999,
          "durationTicks": 16,
          "midi": 38,
          "name": "D2",
          "ticks": 5400,
          "time": 33.0881625,
          "velocity": 1
        },
        {
          "duration": 0.09803899999999999,
          "durationTicks": 16,
          "midi": 38,
          "name": "D2",
          "ticks": 5424,
          "time": 33.235221,
          "velocity": 1
        },
        {
          "duration": 0.09803899999999999,
          "durationTicks": 16,
          "midi": 38,
          "name": "D2",
          "ticks": 5472,
          "time": 33.529338,
          "velocity": 1
        },
        {
          "duration": 0.09803899999999999,
          "durationTicks": 16,
          "midi": 40,
          "name": "E2",
          "ticks": 5520,
          "time": 33.823455,
          "velocity": 1
        },
        {
          "duration": 0.24509749999999997,
          "durationTicks": 40,
          "midi": 40,
          "name": "E2",
          "ticks": 5568,
          "time": 34.117572,
          "velocity": 1
        },
        {
          "duration": 0.09803899999999999,
          "durationTicks": 16,
          "midi": 40,
          "name": "E2",
          "ticks": 5616,
          "time": 34.411689,
          "velocity": 1
        },
        {
          "duration": 0.09803899999999999,
          "durationTicks": 16,
          "midi": 40,
          "name": "E2",
          "ticks": 5664,
          "time": 34.705806,
          "velocity": 1
        },
        {
          "duration": 0.39215599999999995,
          "durationTicks": 64,
          "midi": 35,
          "name": "B1",
          "ticks": 5688,
          "time": 34.8528645,
          "velocity": 1
        },
        {
          "duration": 0.09803899999999999,
          "durationTicks": 16,
          "midi": 35,
          "name": "B1",
          "ticks": 5784,
          "time": 35.4410985,
          "velocity": 1
        },
        {
          "duration": 0.09803899999999999,
          "durationTicks": 16,
          "midi": 35,
          "name": "B1",
          "ticks": 5808,
          "time": 35.588157,
          "velocity": 1
        },
        {
          "duration": 0.09803899999999999,
          "durationTicks": 16,
          "midi": 35,
          "name": "B1",
          "ticks": 5856,
          "time": 35.882274,
          "velocity": 1
        },
        {
          "duration": 0.09803899999999999,
          "durationTicks": 16,
          "midi": 35,
          "name": "B1",
          "ticks": 5904,
          "time": 36.176391,
          "velocity": 1
        },
        {
          "duration": 0.24509749999999997,
          "durationTicks": 40,
          "midi": 47,
          "name": "B2",
          "ticks": 5952,
          "time": 36.470508,
          "velocity": 1
        },
        {
          "duration": 0.09803899999999999,
          "durationTicks": 16,
          "midi": 44,
          "name": "G#2",
          "ticks": 6000,
          "time": 36.764625,
          "velocity": 1
        },
        {
          "duration": 0.09803899999999999,
          "durationTicks": 16,
          "midi": 42,
          "name": "F#2",
          "ticks": 6024,
          "time": 36.9116835,
          "velocity": 1
        },
        {
          "duration": 0.09803899999999999,
          "durationTicks": 16,
          "midi": 35,
          "name": "B1",
          "ticks": 6048,
          "time": 37.058742,
          "velocity": 1
        },
        {
          "duration": 0.39215599999999995,
          "durationTicks": 64,
          "midi": 38,
          "name": "D2",
          "ticks": 6072,
          "time": 37.2058005,
          "velocity": 1
        },
        {
          "duration": 0.09803899999999999,
          "durationTicks": 16,
          "midi": 38,
          "name": "D2",
          "ticks": 6168,
          "time": 37.7940345,
          "velocity": 1
        },
        {
          "duration": 0.09803899999999999,
          "durationTicks": 16,
          "midi": 38,
          "name": "D2",
          "ticks": 6192,
          "time": 37.941093,
          "velocity": 1
        },
        {
          "duration": 0.09803899999999999,
          "durationTicks": 16,
          "midi": 38,
          "name": "D2",
          "ticks": 6240,
          "time": 38.23521,
          "velocity": 1
        },
        {
          "duration": 0.09803899999999999,
          "durationTicks": 16,
          "midi": 38,
          "name": "D2",
          "ticks": 6288,
          "time": 38.529327,
          "velocity": 1
        },
        {
          "duration": 0.24509749999999997,
          "durationTicks": 40,
          "midi": 38,
          "name": "D2",
          "ticks": 6336,
          "time": 38.823444,
          "velocity": 1
        },
        {
          "duration": 0.09803899999999999,
          "durationTicks": 16,
          "midi": 38,
          "name": "D2",
          "ticks": 6384,
          "time": 39.117561,
          "velocity": 1
        },
        {
          "duration": 0.09803899999999999,
          "durationTicks": 16,
          "midi": 38,
          "name": "D2",
          "ticks": 6432,
          "time": 39.411678,
          "velocity": 1
        },
        {
          "duration": 0.39215599999999995,
          "durationTicks": 64,
          "midi": 40,
          "name": "E2",
          "ticks": 6456,
          "time": 39.5587365,
          "velocity": 1
        },
        {
          "duration": 0.09803899999999999,
          "durationTicks": 16,
          "midi": 40,
          "name": "E2",
          "ticks": 6552,
          "time": 40.1469705,
          "velocity": 1
        },
        {
          "duration": 0.09803899999999999,
          "durationTicks": 16,
          "midi": 40,
          "name": "E2",
          "ticks": 6576,
          "time": 40.294029,
          "velocity": 1
        },
        {
          "duration": 0.09803899999999999,
          "durationTicks": 16,
          "midi": 40,
          "name": "E2",
          "ticks": 6624,
          "time": 40.588146,
          "velocity": 1
        },
        {
          "duration": 0.09803899999999999,
          "durationTicks": 16,
          "midi": 40,
          "name": "E2",
          "ticks": 6672,
          "time": 40.882263,
          "velocity": 1
        },
        {
          "duration": 0.24509749999999997,
          "durationTicks": 40,
          "midi": 40,
          "name": "E2",
          "ticks": 6720,
          "time": 41.17638,
          "velocity": 1
        },
        {
          "duration": 0.09803899999999999,
          "durationTicks": 16,
          "midi": 40,
          "name": "E2",
          "ticks": 6768,
          "time": 41.470497,
          "velocity": 1
        },
        {
          "duration": 0.09803899999999999,
          "durationTicks": 16,
          "midi": 40,
          "name": "E2",
          "ticks": 6816,
          "time": 41.764614,
          "velocity": 1
        },
        {
          "duration": 0.39215599999999995,
          "durationTicks": 64,
          "midi": 38,
          "name": "D2",
          "ticks": 6840,
          "time": 41.9116725,
          "velocity": 1
        },
        {
          "duration": 0.09803899999999999,
          "durationTicks": 16,
          "midi": 38,
          "name": "D2",
          "ticks": 6936,
          "time": 42.4999065,
          "velocity": 1
        },
        {
          "duration": 0.09803899999999999,
          "durationTicks": 16,
          "midi": 38,
          "name": "D2",
          "ticks": 6960,
          "time": 42.646965,
          "velocity": 1
        },
        {
          "duration": 0.09803899999999999,
          "durationTicks": 16,
          "midi": 38,
          "name": "D2",
          "ticks": 7008,
          "time": 42.941082,
          "velocity": 1
        },
        {
          "duration": 0.09803899999999999,
          "durationTicks": 16,
          "midi": 38,
          "name": "D2",
          "ticks": 7056,
          "time": 43.235199,
          "velocity": 1
        },
        {
          "duration": 0.24509749999999997,
          "durationTicks": 40,
          "midi": 38,
          "name": "D2",
          "ticks": 7104,
          "time": 43.529316,
          "velocity": 1
        },
        {
          "duration": 0.09803899999999288,
          "durationTicks": 16,
          "midi": 38,
          "name": "D2",
          "ticks": 7152,
          "time": 43.82343300000001,
          "velocity": 1
        },
        {
          "duration": 0.09803899999999288,
          "durationTicks": 16,
          "midi": 38,
          "name": "D2",
          "ticks": 7200,
          "time": 44.11755000000001,
          "velocity": 1
        },
        {
          "duration": 0.39215599999999284,
          "durationTicks": 64,
          "midi": 40,
          "name": "E2",
          "ticks": 7224,
          "time": 44.26460850000001,
          "velocity": 1
        },
        {
          "duration": 0.09803899999999288,
          "durationTicks": 16,
          "midi": 40,
          "name": "E2",
          "ticks": 7320,
          "time": 44.85284250000001,
          "velocity": 1
        },
        {
          "duration": 0.09803899999999288,
          "durationTicks": 16,
          "midi": 40,
          "name": "E2",
          "ticks": 7344,
          "time": 44.99990100000001,
          "velocity": 1
        },
        {
          "duration": 0.09803899999999288,
          "durationTicks": 16,
          "midi": 40,
          "name": "E2",
          "ticks": 7392,
          "time": 45.29401800000001,
          "velocity": 1
        },
        {
          "duration": 0.09803899999999288,
          "durationTicks": 16,
          "midi": 40,
          "name": "E2",
          "ticks": 7440,
          "time": 45.58813500000001,
          "velocity": 1
        },
        {
          "duration": 0.24509749999999286,
          "durationTicks": 40,
          "midi": 40,
          "name": "E2",
          "ticks": 7488,
          "time": 45.88225200000001,
          "velocity": 1
        },
        {
          "duration": 0.09803899999999288,
          "durationTicks": 16,
          "midi": 40,
          "name": "E2",
          "ticks": 7536,
          "time": 46.17636900000001,
          "velocity": 1
        },
        {
          "duration": 0.09803899999999288,
          "durationTicks": 16,
          "midi": 40,
          "name": "E2",
          "ticks": 7584,
          "time": 46.47048600000001,
          "velocity": 1
        },
        {
          "duration": 0.39215599999999284,
          "durationTicks": 64,
          "midi": 38,
          "name": "D2",
          "ticks": 7608,
          "time": 46.61754450000001,
          "velocity": 1
        },
        {
          "duration": 0.09803899999999288,
          "durationTicks": 16,
          "midi": 38,
          "name": "D2",
          "ticks": 7704,
          "time": 47.20577850000001,
          "velocity": 1
        },
        {
          "duration": 0.09803899999999288,
          "durationTicks": 16,
          "midi": 38,
          "name": "D2",
          "ticks": 7728,
          "time": 47.35283700000001,
          "velocity": 1
        },
        {
          "duration": 0.09803899999999288,
          "durationTicks": 16,
          "midi": 38,
          "name": "D2",
          "ticks": 7776,
          "time": 47.64695400000001,
          "velocity": 1
        },
        {
          "duration": 0.09803899999999288,
          "durationTicks": 16,
          "midi": 38,
          "name": "D2",
          "ticks": 7824,
          "time": 47.94107100000001,
          "velocity": 1
        },
        {
          "duration": 0.24509749999999286,
          "durationTicks": 40,
          "midi": 38,
          "name": "D2",
          "ticks": 7872,
          "time": 48.23518800000001,
          "velocity": 1
        },
        {
          "duration": 0.09803899999999288,
          "durationTicks": 16,
          "midi": 38,
          "name": "D2",
          "ticks": 7920,
          "time": 48.52930500000001,
          "velocity": 1
        },
        {
          "duration": 0.09803899999999288,
          "durationTicks": 16,
          "midi": 38,
          "name": "D2",
          "ticks": 7968,
          "time": 48.82342200000001,
          "velocity": 1
        },
        {
          "duration": 0.39215599999999284,
          "durationTicks": 64,
          "midi": 40,
          "name": "E2",
          "ticks": 7992,
          "time": 48.97048050000001,
          "velocity": 1
        },
        {
          "duration": 0.09803899999999288,
          "durationTicks": 16,
          "midi": 40,
          "name": "E2",
          "ticks": 8088,
          "time": 49.55871450000001,
          "velocity": 1
        },
        {
          "duration": 0.09803899999999288,
          "durationTicks": 16,
          "midi": 40,
          "name": "E2",
          "ticks": 8112,
          "time": 49.70577300000001,
          "velocity": 1
        },
        {
          "duration": 0.09803899999999288,
          "durationTicks": 16,
          "midi": 40,
          "name": "E2",
          "ticks": 8160,
          "time": 49.99989000000001,
          "velocity": 1
        },
        {
          "duration": 0.09803899999999288,
          "durationTicks": 16,
          "midi": 40,
          "name": "E2",
          "ticks": 8208,
          "time": 50.29400700000001,
          "velocity": 1
        },
        {
          "duration": 0.24509749999999286,
          "durationTicks": 40,
          "midi": 40,
          "name": "E2",
          "ticks": 8256,
          "time": 50.58812400000001,
          "velocity": 1
        },
        {
          "duration": 0.09803899999999288,
          "durationTicks": 16,
          "midi": 40,
          "name": "E2",
          "ticks": 8304,
          "time": 50.88224100000001,
          "velocity": 1
        },
        {
          "duration": 0.09803899999999288,
          "durationTicks": 16,
          "midi": 40,
          "name": "E2",
          "ticks": 8352,
          "time": 51.17635800000001,
          "velocity": 1
        },
        {
          "duration": 0.39215599999999284,
          "durationTicks": 64,
          "midi": 38,
          "name": "D2",
          "ticks": 8376,
          "time": 51.32341650000001,
          "velocity": 1
        },
        {
          "duration": 0.09803899999999288,
          "durationTicks": 16,
          "midi": 38,
          "name": "D2",
          "ticks": 8472,
          "time": 51.91165050000001,
          "velocity": 1
        },
        {
          "duration": 0.09803899999999288,
          "durationTicks": 16,
          "midi": 38,
          "name": "D2",
          "ticks": 8496,
          "time": 52.05870900000001,
          "velocity": 1
        },
        {
          "duration": 0.09803899999999288,
          "durationTicks": 16,
          "midi": 38,
          "name": "D2",
          "ticks": 8544,
          "time": 52.35282600000001,
          "velocity": 1
        },
        {
          "duration": 0.09803899999999288,
          "durationTicks": 16,
          "midi": 40,
          "name": "E2",
          "ticks": 8592,
          "time": 52.64694300000001,
          "velocity": 1
        },
        {
          "duration": 0.24509749999999286,
          "durationTicks": 40,
          "midi": 40,
          "name": "E2",
          "ticks": 8640,
          "time": 52.94106000000001,
          "velocity": 1
        },
        {
          "duration": 0.09803899999999288,
          "durationTicks": 16,
          "midi": 40,
          "name": "E2",
          "ticks": 8688,
          "time": 53.23517700000001,
          "velocity": 1
        },
        {
          "duration": 0.09803899999999288,
          "durationTicks": 16,
          "midi": 40,
          "name": "E2",
          "ticks": 8736,
          "time": 53.52929400000001,
          "velocity": 1
        },
        {
          "duration": 0.39215599999999284,
          "durationTicks": 64,
          "midi": 35,
          "name": "B1",
          "ticks": 8760,
          "time": 53.67635250000001,
          "velocity": 1
        },
        {
          "duration": 0.09803899999999288,
          "durationTicks": 16,
          "midi": 35,
          "name": "B1",
          "ticks": 8856,
          "time": 54.26458650000001,
          "velocity": 1
        },
        {
          "duration": 0.09803899999999288,
          "durationTicks": 16,
          "midi": 35,
          "name": "B1",
          "ticks": 8880,
          "time": 54.41164500000001,
          "velocity": 1
        },
        {
          "duration": 0.09803899999999288,
          "durationTicks": 16,
          "midi": 35,
          "name": "B1",
          "ticks": 8928,
          "time": 54.70576200000001,
          "velocity": 1
        },
        {
          "duration": 0.09803899999999288,
          "durationTicks": 16,
          "midi": 35,
          "name": "B1",
          "ticks": 8976,
          "time": 54.99987900000001,
          "velocity": 1
        },
        {
          "duration": 0.24509749999999286,
          "durationTicks": 40,
          "midi": 47,
          "name": "B2",
          "ticks": 9024,
          "time": 55.29399600000001,
          "velocity": 1
        },
        {
          "duration": 0.09803899999999288,
          "durationTicks": 16,
          "midi": 44,
          "name": "G#2",
          "ticks": 9072,
          "time": 55.58811300000001,
          "velocity": 1
        },
        {
          "duration": 0.09803899999999288,
          "durationTicks": 16,
          "midi": 42,
          "name": "F#2",
          "ticks": 9096,
          "time": 55.73517150000001,
          "velocity": 1
        },
        {
          "duration": 0.07352924999999999,
          "durationTicks": 12,
          "midi": 35,
          "name": "B1",
          "ticks": 9120,
          "time": 55.88223000000001,
          "velocity": 1
        },
        {
          "duration": 0.09803899999999288,
          "durationTicks": 16,
          "midi": 30,
          "name": "F#1",
          "ticks": 9144,
          "time": 56.02928850000001,
          "velocity": 1
        },
        {
          "duration": 0.09803899999999288,
          "durationTicks": 16,
          "midi": 30,
          "name": "F#1",
          "ticks": 9168,
          "time": 56.17634700000001,
          "velocity": 1
        },
        {
          "duration": 0.09803899999999288,
          "durationTicks": 16,
          "midi": 42,
          "name": "F#2",
          "ticks": 9192,
          "time": 56.32340550000001,
          "velocity": 1
        },
        {
          "duration": 0.09803899999999288,
          "durationTicks": 16,
          "midi": 30,
          "name": "F#1",
          "ticks": 9216,
          "time": 56.47046400000001,
          "velocity": 1
        },
        {
          "duration": 0.09803899999999288,
          "durationTicks": 16,
          "midi": 30,
          "name": "F#1",
          "ticks": 9240,
          "time": 56.61752250000001,
          "velocity": 1
        },
        {
          "duration": 0.09803899999999288,
          "durationTicks": 16,
          "midi": 30,
          "name": "F#1",
          "ticks": 9264,
          "time": 56.76458100000001,
          "velocity": 1
        },
        {
          "duration": 0.09803899999999288,
          "durationTicks": 16,
          "midi": 42,
          "name": "F#2",
          "ticks": 9288,
          "time": 56.91163950000001,
          "velocity": 1
        },
        {
          "duration": 0.09803899999999288,
          "durationTicks": 16,
          "midi": 30,
          "name": "F#1",
          "ticks": 9312,
          "time": 57.05869800000001,
          "velocity": 1
        },
        {
          "duration": 0.09803899999999288,
          "durationTicks": 16,
          "midi": 30,
          "name": "F#1",
          "ticks": 9360,
          "time": 57.35281500000001,
          "velocity": 1
        },
        {
          "duration": 0.09803899999999288,
          "durationTicks": 16,
          "midi": 42,
          "name": "F#2",
          "ticks": 9384,
          "time": 57.49987350000001,
          "velocity": 1
        },
        {
          "duration": 0.09803899999999288,
          "durationTicks": 16,
          "midi": 30,
          "name": "F#1",
          "ticks": 9408,
          "time": 57.64693200000001,
          "velocity": 1
        },
        {
          "duration": 0.09803899999999288,
          "durationTicks": 16,
          "midi": 37,
          "name": "C#2",
          "ticks": 9432,
          "time": 57.79399050000001,
          "velocity": 1
        },
        {
          "duration": 0.09803899999999288,
          "durationTicks": 16,
          "midi": 42,
          "name": "F#2",
          "ticks": 9456,
          "time": 57.94104900000001,
          "velocity": 1
        },
        {
          "duration": 0.09803899999999288,
          "durationTicks": 16,
          "midi": 30,
          "name": "F#1",
          "ticks": 9480,
          "time": 58.08810750000001,
          "velocity": 1
        },
        {
          "duration": 0.09803899999999288,
          "durationTicks": 16,
          "midi": 30,
          "name": "F#1",
          "ticks": 9504,
          "time": 58.23516600000001,
          "velocity": 1
        },
        {
          "duration": 0.09803899999999288,
          "durationTicks": 16,
          "midi": 42,
          "name": "F#2",
          "ticks": 9528,
          "time": 58.38222450000001,
          "velocity": 1
        },
        {
          "duration": 0.09803899999999288,
          "durationTicks": 16,
          "midi": 30,
          "name": "F#1",
          "ticks": 9552,
          "time": 58.52928300000001,
          "velocity": 1
        },
        {
          "duration": 0.09803899999999288,
          "durationTicks": 16,
          "midi": 30,
          "name": "F#1",
          "ticks": 9576,
          "time": 58.67634150000001,
          "velocity": 1
        },
        {
          "duration": 0.09803899999999288,
          "durationTicks": 16,
          "midi": 30,
          "name": "F#1",
          "ticks": 9600,
          "time": 58.82340000000001,
          "velocity": 1
        },
        {
          "duration": 0.09803899999999288,
          "durationTicks": 16,
          "midi": 42,
          "name": "F#2",
          "ticks": 9624,
          "time": 58.97045850000001,
          "velocity": 1
        },
        {
          "duration": 0.09803899999999288,
          "durationTicks": 16,
          "midi": 30,
          "name": "F#1",
          "ticks": 9648,
          "time": 59.11751700000001,
          "velocity": 1
        },
        {
          "duration": 0.09803899999999288,
          "durationTicks": 16,
          "midi": 30,
          "name": "F#1",
          "ticks": 9696,
          "time": 59.41163400000001,
          "velocity": 1
        },
        {
          "duration": 0.09803899999999288,
          "durationTicks": 16,
          "midi": 42,
          "name": "F#2",
          "ticks": 9720,
          "time": 59.55869250000001,
          "velocity": 1
        },
        {
          "duration": 0.09803899999999288,
          "durationTicks": 16,
          "midi": 30,
          "name": "F#1",
          "ticks": 9744,
          "time": 59.70575100000001,
          "velocity": 1
        },
        {
          "duration": 0.09803899999999288,
          "durationTicks": 16,
          "midi": 40,
          "name": "E2",
          "ticks": 9768,
          "time": 59.852809500000006,
          "velocity": 1
        },
        {
          "duration": 0.09803899999999288,
          "durationTicks": 16,
          "midi": 37,
          "name": "C#2",
          "ticks": 9792,
          "time": 59.999868000000006,
          "velocity": 1
        },
        {
          "duration": 0.09803899999999288,
          "durationTicks": 16,
          "midi": 30,
          "name": "F#1",
          "ticks": 9816,
          "time": 60.146926500000006,
          "velocity": 1
        },
        {
          "duration": 0.09803899999999288,
          "durationTicks": 16,
          "midi": 30,
          "name": "F#1",
          "ticks": 9840,
          "time": 60.293985000000006,
          "velocity": 1
        },
        {
          "duration": 0.09803899999999288,
          "durationTicks": 16,
          "midi": 42,
          "name": "F#2",
          "ticks": 9864,
          "time": 60.441043500000006,
          "velocity": 1
        },
        {
          "duration": 0.09803899999999288,
          "durationTicks": 16,
          "midi": 30,
          "name": "F#1",
          "ticks": 9888,
          "time": 60.588102000000006,
          "velocity": 1
        }
      ]
    },
    {
      "channel": 0,
      "controlChanges": {
        "0": [
          {
            "number": 0,
            "ticks": 218,
            "time": 1.3357813750000003,
            "value": 0
          }
        ],
        "1": [
          {
            "number": 1,
            "ticks": 214,
            "time": 1.311271625,
            "value": 0
          }
        ],
        "5": [
          {
            "number": 5,
            "ticks": 217,
            "time": 1.3296539375,
            "value": 0
          }
        ],
        "6": [
          {
            "number": 6,
            "ticks": 206,
            "time": 1.262252125,
            "value": 0.12598425196850394
          },
          {
            "number": 6,
            "ticks": 208,
            "time": 1.274507,
            "value": 0.5433070866141733
          }
        ],
        "7": [
          {
            "number": 7,
            "ticks": 211,
            "time": 1.2928893125,
            "value": 0.7874015748031497
          }
        ],
        "10": [
          {
            "number": 10,
            "ticks": 213,
            "time": 1.3051441875,
            "value": 0.5984251968503937
          }
        ],
        "11": [
          {
            "number": 11,
            "ticks": 212,
            "time": 1.29901675,
            "value": 0.7874015748031497
          }
        ],
        "32": [
          {
            "number": 32,
            "ticks": 219,
            "time": 1.3419088125,
            "value": 0.007874015748031496
          }
        ],
        "64": [
          {
            "number": 64,
            "ticks": 215,
            "time": 1.3173990625000003,
            "value": 0
          }
        ],
        "65": [
          {
            "number": 65,
            "ticks": 216,
            "time": 1.3235265,
            "value": 0
          }
        ],
        "91": [
          {
            "number": 91,
            "ticks": 200,
            "time": 1.2254875,
            "value": 0
          }
        ],
        "93": [
          {
            "number": 93,
            "ticks": 201,
            "time": 1.2316149375,
            "value": 0.5039370078740157
          }
        ],
        "94": [
          {
            "number": 94,
            "ticks": 202,
            "time": 1.237742375,
            "value": 0
          }
        ],
        "100": [
          {
            "number": 100,
            "ticks": 204,
            "time": 1.24999725,
            "value": 0
          },
          {
            "number": 100,
            "ticks": 208,
            "time": 1.274507,
            "value": 0.007874015748031496
          }
        ],
        "101": [
          {
            "number": 101,
            "ticks": 205,
            "time": 1.2561246875,
            "value": 0
          },
          {
            "number": 101,
            "ticks": 208,
            "time": 1.274507,
            "value": 0
          }
        ]
      },
      "pitchBends": [
        {
          "ticks": 207,
          "time": 1.2683795625,
          "value": 0
        }
      ],
      "instrument": {
        "family": "piano",
        "number": 0,
        "name": "acoustic grand piano"
      },
      "name": "BASE1++\u0000",
      "notes": [],
      "endOfTrackTicks": 10680
    },
    {
      "channel": 7,
      "controlChanges": {
        "6": [
          {
            "number": 6,
            "ticks": 221,
            "time": 1.3541636875000003,
            "value": 1
          },
          {
            "number": 6,
            "ticks": 222,
            "time": 1.360291125,
            "value": 0.6299212598425197
          },
          {
            "number": 6,
            "ticks": 223,
            "time": 1.3664185625,
            "value": 0.47244094488188976
          },
          {
            "number": 6,
            "ticks": 224,
            "time": 1.3725460000000003,
            "value": 0.6692913385826772
          }
        ],
        "7": [
          {
            "number": 7,
            "ticks": 9960,
            "time": 61.029277500000006,
            "value": 0.7874015748031497
          },
          {
            "number": 7,
            "ticks": 10008,
            "time": 61.323394500000006,
            "value": 0.7322834645669292
          },
          {
            "number": 7,
            "ticks": 10056,
            "time": 61.617511500000006,
            "value": 0.6850393700787402
          },
          {
            "number": 7,
            "ticks": 10104,
            "time": 61.911628500000006,
            "value": 0.6377952755905512
          },
          {
            "number": 7,
            "ticks": 10152,
            "time": 62.205745500000006,
            "value": 0.5905511811023622
          },
          {
            "number": 7,
            "ticks": 10200,
            "time": 62.499862500000006,
            "value": 0.5354330708661418
          },
          {
            "number": 7,
            "ticks": 10248,
            "time": 62.793979500000006,
            "value": 0.4881889763779528
          },
          {
            "number": 7,
            "ticks": 10296,
            "time": 63.088096500000006,
            "value": 0.4409448818897638
          },
          {
            "number": 7,
            "ticks": 10344,
            "time": 63.382213500000006,
            "value": 0.3937007874015748
          },
          {
            "number": 7,
            "ticks": 10392,
            "time": 63.676330500000006,
            "value": 0.33858267716535434
          },
          {
            "number": 7,
            "ticks": 10440,
            "time": 63.970447500000006,
            "value": 0.29133858267716534
          },
          {
            "number": 7,
            "ticks": 10488,
            "time": 64.2645645,
            "value": 0.2440944881889764
          },
          {
            "number": 7,
            "ticks": 10536,
            "time": 64.5586815,
            "value": 0.1968503937007874
          },
          {
            "number": 7,
            "ticks": 10584,
            "time": 64.8527985,
            "value": 0.14173228346456693
          },
          {
            "number": 7,
            "ticks": 10632,
            "time": 65.1469155,
            "value": 0.09448818897637795
          },
          {
            "number": 7,
            "ticks": 10680,
            "time": 65.4410325,
            "value": 0.047244094488188976
          }
        ],
        "98": [
          {
            "number": 98,
            "ticks": 221,
            "time": 1.3541636875000003,
            "value": 0.25196850393700787
          },
          {
            "number": 98,
            "ticks": 222,
            "time": 1.360291125,
            "value": 0.25984251968503935
          },
          {
            "number": 98,
            "ticks": 223,
            "time": 1.3664185625,
            "value": 0.7795275590551181
          },
          {
            "number": 98,
            "ticks": 224,
            "time": 1.3725460000000003,
            "value": 0.8031496062992126
          }
        ],
        "99": [
          {
            "number": 99,
            "ticks": 221,
            "time": 1.3541636875000003,
            "value": 0.007874015748031496
          },
          {
            "number": 99,
            "ticks": 222,
            "time": 1.360291125,
            "value": 0.007874015748031496
          },
          {
            "number": 99,
            "ticks": 223,
            "time": 1.3664185625,
            "value": 0.007874015748031496
          },
          {
            "number": 99,
            "ticks": 224,
            "time": 1.3725460000000003,
            "value": 0.007874015748031496
          }
        ]
      },
      "pitchBends": [],
      "instrument": {
        "family": "bass",
        "number": 34,
        "name": "electric bass (pick)"
      },
      "name": "",
      "notes": [
        {
          "duration": 0.006127437499999999,
          "durationTicks": 1,
          "midi": 30,
          "name": "F#1",
          "ticks": 312,
          "time": 1.9117605000000002,
          "velocity": 1
        },
        {
          "duration": 0.006127437499999999,
          "durationTicks": 1,
          "midi": 30,
          "name": "F#1",
          "ticks": 336,
          "time": 2.058819,
          "velocity": 1
        },
        {
          "duration": 0.006127437499999999,
          "durationTicks": 1,
          "midi": 42,
          "name": "F#2",
          "ticks": 360,
          "time": 2.2058775,
          "velocity": 1
        },
        {
          "duration": 0.006127437499999999,
          "durationTicks": 1,
          "midi": 30,
          "name": "F#1",
          "ticks": 384,
          "time": 2.352936,
          "velocity": 1
        },
        {
          "duration": 0.006127437499999999,
          "durationTicks": 1,
          "midi": 30,
          "name": "F#1",
          "ticks": 408,
          "time": 2.4999945,
          "velocity": 1
        },
        {
          "duration": 0.006127437499999555,
          "durationTicks": 1,
          "midi": 30,
          "name": "F#1",
          "ticks": 432,
          "time": 2.6470530000000005,
          "velocity": 1
        },
        {
          "duration": 0.006127437499999555,
          "durationTicks": 1,
          "midi": 42,
          "name": "F#2",
          "ticks": 456,
          "time": 2.7941115000000005,
          "velocity": 1
        },
        {
          "duration": 0.006127437499999999,
          "durationTicks": 1,
          "midi": 30,
          "name": "F#1",
          "ticks": 480,
          "time": 2.9411700000000005,
          "velocity": 1
        },
        {
          "duration": 0.006127437499999999,
          "durationTicks": 1,
          "midi": 30,
          "name": "F#1",
          "ticks": 504,
          "time": 3.0882285000000005,
          "velocity": 0.47244094488188976
        },
        {
          "duration": 0.006127437499999999,
          "durationTicks": 1,
          "midi": 30,
          "name": "F#1",
          "ticks": 528,
          "time": 3.2352870000000005,
          "velocity": 1
        },
        {
          "duration": 0.006127437499999999,
          "durationTicks": 1,
          "midi": 42,
          "name": "F#2",
          "ticks": 552,
          "time": 3.3823455000000004,
          "velocity": 1
        },
        {
          "duration": 0.006127437499999999,
          "durationTicks": 1,
          "midi": 30,
          "name": "F#1",
          "ticks": 576,
          "time": 3.5294040000000004,
          "velocity": 1
        },
        {
          "duration": 0.006127437499999999,
          "durationTicks": 1,
          "midi": 37,
          "name": "C#2",
          "ticks": 600,
          "time": 3.6764625000000004,
          "velocity": 1
        },
        {
          "duration": 0.006127437499999999,
          "durationTicks": 1,
          "midi": 42,
          "name": "F#2",
          "ticks": 624,
          "time": 3.8235210000000004,
          "velocity": 1
        },
        {
          "duration": 0.006127437499999999,
          "durationTicks": 1,
          "midi": 30,
          "name": "F#1",
          "ticks": 648,
          "time": 3.9705795000000004,
          "velocity": 1
        },
        {
          "duration": 0.006127437499999999,
          "durationTicks": 1,
          "midi": 30,
          "name": "F#1",
          "ticks": 672,
          "time": 4.117638,
          "velocity": 1
        },
        {
          "duration": 0.006127437499999999,
          "durationTicks": 1,
          "midi": 42,
          "name": "F#2",
          "ticks": 696,
          "time": 4.2646965,
          "velocity": 1
        },
        {
          "duration": 0.006127437499999999,
          "durationTicks": 1,
          "midi": 30,
          "name": "F#1",
          "ticks": 720,
          "time": 4.411755,
          "velocity": 1
        },
        {
          "duration": 0.006127437499999111,
          "durationTicks": 1,
          "midi": 30,
          "name": "F#1",
          "ticks": 744,
          "time": 4.558813500000001,
          "velocity": 1
        },
        {
          "duration": 0.006127437499999111,
          "durationTicks": 1,
          "midi": 30,
          "name": "F#1",
          "ticks": 768,
          "time": 4.705872000000001,
          "velocity": 1
        },
        {
          "duration": 0.006127437499999111,
          "durationTicks": 1,
          "midi": 42,
          "name": "F#2",
          "ticks": 792,
          "time": 4.852930500000001,
          "velocity": 1
        },
        {
          "duration": 0.006127437499999111,
          "durationTicks": 1,
          "midi": 30,
          "name": "F#1",
          "ticks": 816,
          "time": 4.999989000000001,
          "velocity": 1
        },
        {
          "duration": 0.006127437499999111,
          "durationTicks": 1,
          "midi": 30,
          "name": "F#1",
          "ticks": 840,
          "time": 5.147047500000001,
          "velocity": 0.47244094488188976
        },
        {
          "duration": 0.006127437499999111,
          "durationTicks": 1,
          "midi": 30,
          "name": "F#1",
          "ticks": 864,
          "time": 5.294106000000001,
          "velocity": 1
        },
        {
          "duration": 0.006127437499999111,
          "durationTicks": 1,
          "midi": 42,
          "name": "F#2",
          "ticks": 888,
          "time": 5.441164500000001,
          "velocity": 1
        },
        {
          "duration": 0.006127437499999111,
          "durationTicks": 1,
          "midi": 30,
          "name": "F#1",
          "ticks": 912,
          "time": 5.588223000000001,
          "velocity": 1
        },
        {
          "duration": 0.006127437499999111,
          "durationTicks": 1,
          "midi": 40,
          "name": "E2",
          "ticks": 936,
          "time": 5.735281500000001,
          "velocity": 1
        },
        {
          "duration": 0.006127437499999999,
          "durationTicks": 1,
          "midi": 37,
          "name": "C#2",
          "ticks": 960,
          "time": 5.882340000000001,
          "velocity": 1
        },
        {
          "duration": 0.006127437499999999,
          "durationTicks": 1,
          "midi": 30,
          "name": "F#1",
          "ticks": 984,
          "time": 6.029398500000001,
          "velocity": 1
        },
        {
          "duration": 0.006127437499999999,
          "durationTicks": 1,
          "midi": 30,
          "name": "F#1",
          "ticks": 1008,
          "time": 6.176457000000001,
          "velocity": 1
        },
        {
          "duration": 0.006127437499999999,
          "durationTicks": 1,
          "midi": 42,
          "name": "F#2",
          "ticks": 1032,
          "time": 6.323515500000001,
          "velocity": 1
        },
        {
          "duration": 0.006127437499999999,
          "durationTicks": 1,
          "midi": 30,
          "name": "F#1",
          "ticks": 1056,
          "time": 6.470574000000001,
          "velocity": 1
        },
        {
          "duration": 0.006127437499999999,
          "durationTicks": 1,
          "midi": 30,
          "name": "F#1",
          "ticks": 1080,
          "time": 6.617632500000001,
          "velocity": 1
        },
        {
          "duration": 0.006127437499999999,
          "durationTicks": 1,
          "midi": 30,
          "name": "F#1",
          "ticks": 1104,
          "time": 6.764691000000001,
          "velocity": 1
        },
        {
          "duration": 0.006127437499999999,
          "durationTicks": 1,
          "midi": 42,
          "name": "F#2",
          "ticks": 1128,
          "time": 6.911749500000001,
          "velocity": 1
        },
        {
          "duration": 0.006127437499999999,
          "durationTicks": 1,
          "midi": 30,
          "name": "F#1",
          "ticks": 1152,
          "time": 7.058808000000001,
          "velocity": 1
        },
        {
          "duration": 0.006127437499999999,
          "durationTicks": 1,
          "midi": 30,
          "name": "F#1",
          "ticks": 1176,
          "time": 7.205866500000001,
          "velocity": 0.47244094488188976
        },
        {
          "duration": 0.006127437499999999,
          "durationTicks": 1,
          "midi": 30,
          "name": "F#1",
          "ticks": 1200,
          "time": 7.352925000000001,
          "velocity": 1
        },
        {
          "duration": 0.006127437499999999,
          "durationTicks": 1,
          "midi": 42,
          "name": "F#2",
          "ticks": 1224,
          "time": 7.499983500000001,
          "velocity": 1
        },
        {
          "duration": 0.006127437499999999,
          "durationTicks": 1,
          "midi": 30,
          "name": "F#1",
          "ticks": 1248,
          "time": 7.647042000000001,
          "velocity": 1
        },
        {
          "duration": 0.006127437499999999,
          "durationTicks": 1,
          "midi": 37,
          "name": "C#2",
          "ticks": 1272,
          "time": 7.794100500000001,
          "velocity": 1
        },
        {
          "duration": 0.006127437499999999,
          "durationTicks": 1,
          "midi": 42,
          "name": "F#2",
          "ticks": 1296,
          "time": 7.941159000000001,
          "velocity": 1
        },
        {
          "duration": 0.006127437499999999,
          "durationTicks": 1,
          "midi": 30,
          "name": "F#1",
          "ticks": 1320,
          "time": 8.0882175,
          "velocity": 1
        },
        {
          "duration": 0.006127437499999999,
          "durationTicks": 1,
          "midi": 30,
          "name": "F#1",
          "ticks": 1344,
          "time": 8.235276,
          "velocity": 1
        },
        {
          "duration": 0.006127437499999999,
          "durationTicks": 1,
          "midi": 42,
          "name": "F#2",
          "ticks": 1368,
          "time": 8.3823345,
          "velocity": 1
        },
        {
          "duration": 0.006127437499999999,
          "durationTicks": 1,
          "midi": 30,
          "name": "F#1",
          "ticks": 1392,
          "time": 8.529393,
          "velocity": 1
        },
        {
          "duration": 0.006127437499999999,
          "durationTicks": 1,
          "midi": 30,
          "name": "F#1",
          "ticks": 1416,
          "time": 8.6764515,
          "velocity": 1
        },
        {
          "duration": 0.006127437499999999,
          "durationTicks": 1,
          "midi": 30,
          "name": "F#1",
          "ticks": 1440,
          "time": 8.82351,
          "velocity": 1
        },
        {
          "duration": 0.006127437499999999,
          "durationTicks": 1,
          "midi": 42,
          "name": "F#2",
          "ticks": 1464,
          "time": 8.9705685,
          "velocity": 1
        },
        {
          "duration": 0.006127437499999999,
          "durationTicks": 1,
          "midi": 30,
          "name": "F#1",
          "ticks": 1488,
          "time": 9.117627,
          "velocity": 1
        },
        {
          "duration": 0.006127437499999999,
          "durationTicks": 1,
          "midi": 30,
          "name": "F#1",
          "ticks": 1512,
          "time": 9.2646855,
          "velocity": 0.47244094488188976
        },
        {
          "duration": 0.006127437499999999,
          "durationTicks": 1,
          "midi": 30,
          "name": "F#1",
          "ticks": 1536,
          "time": 9.411744,
          "velocity": 1
        },
        {
          "duration": 0.006127437499999999,
          "durationTicks": 1,
          "midi": 42,
          "name": "F#2",
          "ticks": 1560,
          "time": 9.5588025,
          "velocity": 1
        },
        {
          "duration": 0.006127437499999999,
          "durationTicks": 1,
          "midi": 30,
          "name": "F#1",
          "ticks": 1584,
          "time": 9.705861,
          "velocity": 1
        },
        {
          "duration": 0.006127437499999999,
          "durationTicks": 1,
          "midi": 40,
          "name": "E2",
          "ticks": 1608,
          "time": 9.8529195,
          "velocity": 1
        },
        {
          "duration": 0.006127437499999999,
          "durationTicks": 1,
          "midi": 37,
          "name": "C#2",
          "ticks": 1632,
          "time": 9.999978,
          "velocity": 1
        },
        {
          "duration": 0.006127437499999999,
          "durationTicks": 1,
          "midi": 30,
          "name": "F#1",
          "ticks": 1656,
          "time": 10.1470365,
          "velocity": 1
        },
        {
          "duration": 0.006127437499999999,
          "durationTicks": 1,
          "midi": 30,
          "name": "F#1",
          "ticks": 1680,
          "time": 10.294095,
          "velocity": 1
        },
        {
          "duration": 0.006127437499999999,
          "durationTicks": 1,
          "midi": 42,
          "name": "F#2",
          "ticks": 1704,
          "time": 10.4411535,
          "velocity": 1
        },
        {
          "duration": 0.006127437499999999,
          "durationTicks": 1,
          "midi": 30,
          "name": "F#1",
          "ticks": 1728,
          "time": 10.588212,
          "velocity": 1
        },
        {
          "duration": 0.006127437499999999,
          "durationTicks": 1,
          "midi": 30,
          "name": "F#1",
          "ticks": 1752,
          "time": 10.7352705,
          "velocity": 1
        },
        {
          "duration": 0.006127437499999999,
          "durationTicks": 1,
          "midi": 30,
          "name": "F#1",
          "ticks": 1776,
          "time": 10.882329,
          "velocity": 1
        },
        {
          "duration": 0.006127437499999999,
          "durationTicks": 1,
          "midi": 42,
          "name": "F#2",
          "ticks": 1800,
          "time": 11.0293875,
          "velocity": 1
        },
        {
          "duration": 0.006127437499999999,
          "durationTicks": 1,
          "midi": 30,
          "name": "F#1",
          "ticks": 1824,
          "time": 11.176446,
          "velocity": 1
        },
        {
          "duration": 0.006127437499999999,
          "durationTicks": 1,
          "midi": 30,
          "name": "F#1",
          "ticks": 1848,
          "time": 11.3235045,
          "velocity": 0.47244094488188976
        },
        {
          "duration": 0.006127437499999999,
          "durationTicks": 1,
          "midi": 30,
          "name": "F#1",
          "ticks": 1872,
          "time": 11.470563,
          "velocity": 1
        },
        {
          "duration": 0.006127437499999999,
          "durationTicks": 1,
          "midi": 42,
          "name": "F#2",
          "ticks": 1896,
          "time": 11.6176215,
          "velocity": 1
        },
        {
          "duration": 0.006127437499999999,
          "durationTicks": 1,
          "midi": 30,
          "name": "F#1",
          "ticks": 1920,
          "time": 11.76468,
          "velocity": 1
        },
        {
          "duration": 0.006127437499999999,
          "durationTicks": 1,
          "midi": 37,
          "name": "C#2",
          "ticks": 1944,
          "time": 11.9117385,
          "velocity": 1
        },
        {
          "duration": 0.006127437499999999,
          "durationTicks": 1,
          "midi": 42,
          "name": "F#2",
          "ticks": 1968,
          "time": 12.058797,
          "velocity": 1
        },
        {
          "duration": 0.006127437499999999,
          "durationTicks": 1,
          "midi": 30,
          "name": "F#1",
          "ticks": 1992,
          "time": 12.2058555,
          "velocity": 1
        },
        {
          "duration": 0.006127437499998223,
          "durationTicks": 1,
          "midi": 30,
          "name": "F#1",
          "ticks": 2016,
          "time": 12.352914000000002,
          "velocity": 1
        },
        {
          "duration": 0.006127437499998223,
          "durationTicks": 1,
          "midi": 42,
          "name": "F#2",
          "ticks": 2040,
          "time": 12.499972500000002,
          "velocity": 1
        },
        {
          "duration": 0.006127437499998223,
          "durationTicks": 1,
          "midi": 30,
          "name": "F#1",
          "ticks": 2064,
          "time": 12.647031000000002,
          "velocity": 1
        },
        {
          "duration": 0.006127437499998223,
          "durationTicks": 1,
          "midi": 30,
          "name": "F#1",
          "ticks": 2088,
          "time": 12.794089500000002,
          "velocity": 1
        },
        {
          "duration": 0.006127437499998223,
          "durationTicks": 1,
          "midi": 30,
          "name": "F#1",
          "ticks": 2112,
          "time": 12.941148000000002,
          "velocity": 1
        },
        {
          "duration": 0.006127437499998223,
          "durationTicks": 1,
          "midi": 42,
          "name": "F#2",
          "ticks": 2136,
          "time": 13.088206500000002,
          "velocity": 1
        },
        {
          "duration": 0.006127437499998223,
          "durationTicks": 1,
          "midi": 30,
          "name": "F#1",
          "ticks": 2160,
          "time": 13.235265000000002,
          "velocity": 1
        },
        {
          "duration": 0.006127437499998223,
          "durationTicks": 1,
          "midi": 30,
          "name": "F#1",
          "ticks": 2184,
          "time": 13.382323500000002,
          "velocity": 0.47244094488188976
        },
        {
          "duration": 0.006127437499998223,
          "durationTicks": 1,
          "midi": 30,
          "name": "F#1",
          "ticks": 2208,
          "time": 13.529382000000002,
          "velocity": 1
        },
        {
          "duration": 0.006127437499998223,
          "durationTicks": 1,
          "midi": 42,
          "name": "F#2",
          "ticks": 2232,
          "time": 13.676440500000002,
          "velocity": 1
        },
        {
          "duration": 0.006127437499998223,
          "durationTicks": 1,
          "midi": 30,
          "name": "F#1",
          "ticks": 2256,
          "time": 13.823499000000002,
          "velocity": 1
        },
        {
          "duration": 0.006127437499998223,
          "durationTicks": 1,
          "midi": 40,
          "name": "E2",
          "ticks": 2280,
          "time": 13.970557500000002,
          "velocity": 1
        },
        {
          "duration": 0.006127437499998223,
          "durationTicks": 1,
          "midi": 37,
          "name": "C#2",
          "ticks": 2304,
          "time": 14.117616000000002,
          "velocity": 1
        },
        {
          "duration": 0.006127437499998223,
          "durationTicks": 1,
          "midi": 30,
          "name": "F#1",
          "ticks": 2328,
          "time": 14.264674500000002,
          "velocity": 1
        },
        {
          "duration": 0.006127437499998223,
          "durationTicks": 1,
          "midi": 30,
          "name": "F#1",
          "ticks": 2352,
          "time": 14.411733000000002,
          "velocity": 1
        },
        {
          "duration": 0.006127437499998223,
          "durationTicks": 1,
          "midi": 42,
          "name": "F#2",
          "ticks": 2376,
          "time": 14.558791500000002,
          "velocity": 1
        },
        {
          "duration": 0.006127437499998223,
          "durationTicks": 1,
          "midi": 30,
          "name": "F#1",
          "ticks": 2400,
          "time": 14.705850000000002,
          "velocity": 1
        },
        {
          "duration": 0.006127437499998223,
          "durationTicks": 1,
          "midi": 30,
          "name": "F#1",
          "ticks": 2424,
          "time": 14.852908500000002,
          "velocity": 1
        },
        {
          "duration": 0.006127437499998223,
          "durationTicks": 1,
          "midi": 30,
          "name": "F#1",
          "ticks": 2448,
          "time": 14.999967000000002,
          "velocity": 1
        },
        {
          "duration": 0.006127437499998223,
          "durationTicks": 1,
          "midi": 42,
          "name": "F#2",
          "ticks": 2472,
          "time": 15.147025500000002,
          "velocity": 1
        },
        {
          "duration": 0.006127437499998223,
          "durationTicks": 1,
          "midi": 30,
          "name": "F#1",
          "ticks": 2496,
          "time": 15.294084000000002,
          "velocity": 1
        },
        {
          "duration": 0.006127437499998223,
          "durationTicks": 1,
          "midi": 30,
          "name": "F#1",
          "ticks": 2520,
          "time": 15.441142500000002,
          "velocity": 0.47244094488188976
        },
        {
          "duration": 0.006127437499998223,
          "durationTicks": 1,
          "midi": 30,
          "name": "F#1",
          "ticks": 2544,
          "time": 15.588201000000002,
          "velocity": 1
        },
        {
          "duration": 0.006127437499998223,
          "durationTicks": 1,
          "midi": 42,
          "name": "F#2",
          "ticks": 2568,
          "time": 15.735259500000002,
          "velocity": 1
        },
        {
          "duration": 0.006127437499998223,
          "durationTicks": 1,
          "midi": 30,
          "name": "F#1",
          "ticks": 2592,
          "time": 15.882318000000001,
          "velocity": 1
        },
        {
          "duration": 0.006127437499998223,
          "durationTicks": 1,
          "midi": 37,
          "name": "C#2",
          "ticks": 2616,
          "time": 16.0293765,
          "velocity": 1
        },
        {
          "duration": 0.006127437499998223,
          "durationTicks": 1,
          "midi": 42,
          "name": "F#2",
          "ticks": 2640,
          "time": 16.176435,
          "velocity": 1
        },
        {
          "duration": 0.006127437499998223,
          "durationTicks": 1,
          "midi": 30,
          "name": "F#1",
          "ticks": 2664,
          "time": 16.3234935,
          "velocity": 1
        },
        {
          "duration": 0.006127437499998223,
          "durationTicks": 1,
          "midi": 30,
          "name": "F#1",
          "ticks": 2688,
          "time": 16.470552,
          "velocity": 1
        },
        {
          "duration": 0.006127437499998223,
          "durationTicks": 1,
          "midi": 42,
          "name": "F#2",
          "ticks": 2712,
          "time": 16.6176105,
          "velocity": 1
        },
        {
          "duration": 0.006127437499998223,
          "durationTicks": 1,
          "midi": 30,
          "name": "F#1",
          "ticks": 2736,
          "time": 16.764669,
          "velocity": 1
        },
        {
          "duration": 0.006127437499998223,
          "durationTicks": 1,
          "midi": 30,
          "name": "F#1",
          "ticks": 2760,
          "time": 16.9117275,
          "velocity": 1
        },
        {
          "duration": 0.006127437499998223,
          "durationTicks": 1,
          "midi": 30,
          "name": "F#1",
          "ticks": 2784,
          "time": 17.058786,
          "velocity": 1
        },
        {
          "duration": 0.006127437499998223,
          "durationTicks": 1,
          "midi": 42,
          "name": "F#2",
          "ticks": 2808,
          "time": 17.2058445,
          "velocity": 1
        },
        {
          "duration": 0.006127437499998223,
          "durationTicks": 1,
          "midi": 30,
          "name": "F#1",
          "ticks": 2832,
          "time": 17.352903,
          "velocity": 1
        },
        {
          "duration": 0.006127437499998223,
          "durationTicks": 1,
          "midi": 30,
          "name": "F#1",
          "ticks": 2856,
          "time": 17.4999615,
          "velocity": 0.47244094488188976
        },
        {
          "duration": 0.006127437499998223,
          "durationTicks": 1,
          "midi": 30,
          "name": "F#1",
          "ticks": 2880,
          "time": 17.64702,
          "velocity": 1
        },
        {
          "duration": 0.006127437499998223,
          "durationTicks": 1,
          "midi": 42,
          "name": "F#2",
          "ticks": 2904,
          "time": 17.7940785,
          "velocity": 1
        },
        {
          "duration": 0.006127437499998223,
          "durationTicks": 1,
          "midi": 30,
          "name": "F#1",
          "ticks": 2928,
          "time": 17.941137,
          "velocity": 1
        },
        {
          "duration": 0.006127437499998223,
          "durationTicks": 1,
          "midi": 40,
          "name": "E2",
          "ticks": 2952,
          "time": 18.0881955,
          "velocity": 1
        },
        {
          "duration": 0.006127437499998223,
          "durationTicks": 1,
          "midi": 37,
          "name": "C#2",
          "ticks": 2976,
          "time": 18.235254,
          "velocity": 1
        },
        {
          "duration": 0.006127437499998223,
          "durationTicks": 1,
          "midi": 38,
          "name": "D2",
          "ticks": 3000,
          "time": 18.3823125,
          "velocity": 1
        },
        {
          "duration": 0.006127437499998223,
          "durationTicks": 1,
          "midi": 38,
          "name": "D2",
          "ticks": 3072,
          "time": 18.823488,
          "velocity": 0.47244094488188976
        },
        {
          "duration": 0.006127437499998223,
          "durationTicks": 1,
          "midi": 38,
          "name": "D2",
          "ticks": 3096,
          "time": 18.9705465,
          "velocity": 1
        },
        {
          "duration": 0.006127437499998223,
          "durationTicks": 1,
          "midi": 38,
          "name": "D2",
          "ticks": 3120,
          "time": 19.117605,
          "velocity": 1
        },
        {
          "duration": 0.006127437499998223,
          "durationTicks": 1,
          "midi": 38,
          "name": "D2",
          "ticks": 3144,
          "time": 19.2646635,
          "velocity": 0.47244094488188976
        },
        {
          "duration": 0.006127437499998223,
          "durationTicks": 1,
          "midi": 38,
          "name": "D2",
          "ticks": 3168,
          "time": 19.411722,
          "velocity": 1
        },
        {
          "duration": 0.006127437499998223,
          "durationTicks": 1,
          "midi": 38,
          "name": "D2",
          "ticks": 3192,
          "time": 19.5587805,
          "velocity": 0.47244094488188976
        },
        {
          "duration": 0.006127437499998223,
          "durationTicks": 1,
          "midi": 38,
          "name": "D2",
          "ticks": 3216,
          "time": 19.705839,
          "velocity": 1
        },
        {
          "duration": 0.006127437499998223,
          "durationTicks": 1,
          "midi": 38,
          "name": "D2",
          "ticks": 3240,
          "time": 19.8528975,
          "velocity": 0.47244094488188976
        },
        {
          "duration": 0.006127437499998223,
          "durationTicks": 1,
          "midi": 38,
          "name": "D2",
          "ticks": 3264,
          "time": 19.999956,
          "velocity": 1
        },
        {
          "duration": 0.006127437499998223,
          "durationTicks": 1,
          "midi": 38,
          "name": "D2",
          "ticks": 3312,
          "time": 20.294073,
          "velocity": 1
        },
        {
          "duration": 0.006127437499998223,
          "durationTicks": 1,
          "midi": 38,
          "name": "D2",
          "ticks": 3336,
          "time": 20.4411315,
          "velocity": 0.47244094488188976
        },
        {
          "duration": 0.006127437499998223,
          "durationTicks": 1,
          "midi": 38,
          "name": "D2",
          "ticks": 3360,
          "time": 20.58819,
          "velocity": 1
        },
        {
          "duration": 0.0061274375000017756,
          "durationTicks": 1,
          "midi": 40,
          "name": "E2",
          "ticks": 3384,
          "time": 20.7352485,
          "velocity": 1
        },
        {
          "duration": 0.0061274375000017756,
          "durationTicks": 1,
          "midi": 40,
          "name": "E2",
          "ticks": 3456,
          "time": 21.176424,
          "velocity": 0.47244094488188976
        },
        {
          "duration": 0.0061274375000017756,
          "durationTicks": 1,
          "midi": 40,
          "name": "E2",
          "ticks": 3480,
          "time": 21.3234825,
          "velocity": 1
        },
        {
          "duration": 0.0061274375000017756,
          "durationTicks": 1,
          "midi": 40,
          "name": "E2",
          "ticks": 3504,
          "time": 21.470541,
          "velocity": 1
        },
        {
          "duration": 0.0061274375000017756,
          "durationTicks": 1,
          "midi": 40,
          "name": "E2",
          "ticks": 3528,
          "time": 21.6175995,
          "velocity": 0.47244094488188976
        },
        {
          "duration": 0.0061274375000017756,
          "durationTicks": 1,
          "midi": 40,
          "name": "E2",
          "ticks": 3552,
          "time": 21.764658,
          "velocity": 1
        },
        {
          "duration": 0.0061274375000017756,
          "durationTicks": 1,
          "midi": 38,
          "name": "D2",
          "ticks": 3576,
          "time": 21.9117165,
          "velocity": 0.47244094488188976
        },
        {
          "duration": 0.0061274375000017756,
          "durationTicks": 1,
          "midi": 40,
          "name": "E2",
          "ticks": 3600,
          "time": 22.058775,
          "velocity": 1
        },
        {
          "duration": 0.0061274375000017756,
          "durationTicks": 1,
          "midi": 40,
          "name": "E2",
          "ticks": 3648,
          "time": 22.352892,
          "velocity": 1
        },
        {
          "duration": 0.0061274375000017756,
          "durationTicks": 1,
          "midi": 40,
          "name": "E2",
          "ticks": 3696,
          "time": 22.647009,
          "velocity": 1
        },
        {
          "duration": 0.0061274375000017756,
          "durationTicks": 1,
          "midi": 40,
          "name": "E2",
          "ticks": 3720,
          "time": 22.7940675,
          "velocity": 0.47244094488188976
        },
        {
          "duration": 0.0061274375000017756,
          "durationTicks": 1,
          "midi": 40,
          "name": "E2",
          "ticks": 3744,
          "time": 22.941126,
          "velocity": 1
        },
        {
          "duration": 0.0061274375000017756,
          "durationTicks": 1,
          "midi": 38,
          "name": "D2",
          "ticks": 3768,
          "time": 23.0881845,
          "velocity": 1
        },
        {
          "duration": 0.0061274375000017756,
          "durationTicks": 1,
          "midi": 38,
          "name": "D2",
          "ticks": 3840,
          "time": 23.52936,
          "velocity": 0.47244094488188976
        },
        {
          "duration": 0.0061274375000017756,
          "durationTicks": 1,
          "midi": 38,
          "name": "D2",
          "ticks": 3864,
          "time": 23.6764185,
          "velocity": 1
        },
        {
          "duration": 0.0061274375000017756,
          "durationTicks": 1,
          "midi": 38,
          "name": "D2",
          "ticks": 3888,
          "time": 23.823477,
          "velocity": 1
        },
        {
          "duration": 0.0061274375000017756,
          "durationTicks": 1,
          "midi": 38,
          "name": "D2",
          "ticks": 3912,
          "time": 23.9705355,
          "velocity": 0.47244094488188976
        },
        {
          "duration": 0.0061274375000017756,
          "durationTicks": 1,
          "midi": 38,
          "name": "D2",
          "ticks": 3936,
          "time": 24.117594,
          "velocity": 1
        },
        {
          "duration": 0.0061274375000017756,
          "durationTicks": 1,
          "midi": 38,
          "name": "D2",
          "ticks": 3960,
          "time": 24.2646525,
          "velocity": 0.47244094488188976
        },
        {
          "duration": 0.0061274375000017756,
          "durationTicks": 1,
          "midi": 38,
          "name": "D2",
          "ticks": 3984,
          "time": 24.411711,
          "velocity": 1
        },
        {
          "duration": 0.0061274375000017756,
          "durationTicks": 1,
          "midi": 38,
          "name": "D2",
          "ticks": 4008,
          "time": 24.5587695,
          "velocity": 0.47244094488188976
        },
        {
          "duration": 0.0061274375000017756,
          "durationTicks": 1,
          "midi": 38,
          "name": "D2",
          "ticks": 4032,
          "time": 24.705828,
          "velocity": 1
        },
        {
          "duration": 0.0061274375000017756,
          "durationTicks": 1,
          "midi": 38,
          "name": "D2",
          "ticks": 4080,
          "time": 24.999945,
          "velocity": 1
        },
        {
          "duration": 0.0061274375000017756,
          "durationTicks": 1,
          "midi": 38,
          "name": "D2",
          "ticks": 4104,
          "time": 25.1470035,
          "velocity": 0.47244094488188976
        },
        {
          "duration": 0.0061274375000017756,
          "durationTicks": 1,
          "midi": 38,
          "name": "D2",
          "ticks": 4128,
          "time": 25.294062,
          "velocity": 1
        },
        {
          "duration": 0.0061274375000017756,
          "durationTicks": 1,
          "midi": 40,
          "name": "E2",
          "ticks": 4152,
          "time": 25.4411205,
          "velocity": 1
        },
        {
          "duration": 0.0061274375000017756,
          "durationTicks": 1,
          "midi": 40,
          "name": "E2",
          "ticks": 4224,
          "time": 25.882296,
          "velocity": 0.47244094488188976
        },
        {
          "duration": 0.0061274375000017756,
          "durationTicks": 1,
          "midi": 40,
          "name": "E2",
          "ticks": 4248,
          "time": 26.0293545,
          "velocity": 1
        },
        {
          "duration": 0.0061274375000017756,
          "durationTicks": 1,
          "midi": 40,
          "name": "E2",
          "ticks": 4272,
          "time": 26.176413,
          "velocity": 1
        },
        {
          "duration": 0.0061274375000017756,
          "durationTicks": 1,
          "midi": 40,
          "name": "E2",
          "ticks": 4296,
          "time": 26.3234715,
          "velocity": 0.47244094488188976
        },
        {
          "duration": 0.0061274375000017756,
          "durationTicks": 1,
          "midi": 40,
          "name": "E2",
          "ticks": 4320,
          "time": 26.47053,
          "velocity": 1
        },
        {
          "duration": 0.0061274375000017756,
          "durationTicks": 1,
          "midi": 38,
          "name": "D2",
          "ticks": 4344,
          "time": 26.6175885,
          "velocity": 0.47244094488188976
        },
        {
          "duration": 0.0061274375000017756,
          "durationTicks": 1,
          "midi": 40,
          "name": "E2",
          "ticks": 4368,
          "time": 26.764647,
          "velocity": 1
        },
        {
          "duration": 0.0061274375000017756,
          "durationTicks": 1,
          "midi": 40,
          "name": "E2",
          "ticks": 4416,
          "time": 27.058764,
          "velocity": 1
        },
        {
          "duration": 0.0061274375000017756,
          "durationTicks": 1,
          "midi": 40,
          "name": "E2",
          "ticks": 4464,
          "time": 27.352881,
          "velocity": 1
        },
        {
          "duration": 0.0061274375000017756,
          "durationTicks": 1,
          "midi": 40,
          "name": "E2",
          "ticks": 4488,
          "time": 27.4999395,
          "velocity": 0.47244094488188976
        },
        {
          "duration": 0.0061274375000017756,
          "durationTicks": 1,
          "midi": 40,
          "name": "E2",
          "ticks": 4512,
          "time": 27.646998,
          "velocity": 1
        },
        {
          "duration": 0.0061274375000017756,
          "durationTicks": 1,
          "midi": 38,
          "name": "D2",
          "ticks": 4536,
          "time": 27.7940565,
          "velocity": 1
        },
        {
          "duration": 0.0061274375000017756,
          "durationTicks": 1,
          "midi": 38,
          "name": "D2",
          "ticks": 4608,
          "time": 28.235232,
          "velocity": 0.47244094488188976
        },
        {
          "duration": 0.0061274375000017756,
          "durationTicks": 1,
          "midi": 38,
          "name": "D2",
          "ticks": 4632,
          "time": 28.3822905,
          "velocity": 1
        },
        {
          "duration": 0.0061274375000017756,
          "durationTicks": 1,
          "midi": 38,
          "name": "D2",
          "ticks": 4656,
          "time": 28.529349,
          "velocity": 1
        },
        {
          "duration": 0.0061274375000017756,
          "durationTicks": 1,
          "midi": 38,
          "name": "D2",
          "ticks": 4680,
          "time": 28.6764075,
          "velocity": 0.47244094488188976
        },
        {
          "duration": 0.0061274375000017756,
          "durationTicks": 1,
          "midi": 38,
          "name": "D2",
          "ticks": 4704,
          "time": 28.823466,
          "velocity": 1
        },
        {
          "duration": 0.0061274375000017756,
          "durationTicks": 1,
          "midi": 38,
          "name": "D2",
          "ticks": 4728,
          "time": 28.9705245,
          "velocity": 0.47244094488188976
        },
        {
          "duration": 0.0061274375000017756,
          "durationTicks": 1,
          "midi": 38,
          "name": "D2",
          "ticks": 4752,
          "time": 29.117583,
          "velocity": 1
        },
        {
          "duration": 0.0061274375000017756,
          "durationTicks": 1,
          "midi": 38,
          "name": "D2",
          "ticks": 4776,
          "time": 29.2646415,
          "velocity": 0.47244094488188976
        },
        {
          "duration": 0.0061274375000017756,
          "durationTicks": 1,
          "midi": 38,
          "name": "D2",
          "ticks": 4800,
          "time": 29.4117,
          "velocity": 1
        },
        {
          "duration": 0.0061274375000017756,
          "durationTicks": 1,
          "midi": 38,
          "name": "D2",
          "ticks": 4848,
          "time": 29.705817,
          "velocity": 1
        },
        {
          "duration": 0.0061274375000017756,
          "durationTicks": 1,
          "midi": 38,
          "name": "D2",
          "ticks": 4872,
          "time": 29.8528755,
          "velocity": 0.47244094488188976
        },
        {
          "duration": 0.0061274375000017756,
          "durationTicks": 1,
          "midi": 38,
          "name": "D2",
          "ticks": 4896,
          "time": 29.999934,
          "velocity": 1
        },
        {
          "duration": 0.0061274375000017756,
          "durationTicks": 1,
          "midi": 40,
          "name": "E2",
          "ticks": 4920,
          "time": 30.1469925,
          "velocity": 1
        },
        {
          "duration": 0.0061274375000017756,
          "durationTicks": 1,
          "midi": 40,
          "name": "E2",
          "ticks": 4992,
          "time": 30.588168,
          "velocity": 0.47244094488188976
        },
        {
          "duration": 0.0061274375000017756,
          "durationTicks": 1,
          "midi": 40,
          "name": "E2",
          "ticks": 5016,
          "time": 30.7352265,
          "velocity": 1
        },
        {
          "duration": 0.0061274375000017756,
          "durationTicks": 1,
          "midi": 40,
          "name": "E2",
          "ticks": 5040,
          "time": 30.882285,
          "velocity": 1
        },
        {
          "duration": 0.0061274375000017756,
          "durationTicks": 1,
          "midi": 40,
          "name": "E2",
          "ticks": 5064,
          "time": 31.0293435,
          "velocity": 0.47244094488188976
        },
        {
          "duration": 0.0061274375000017756,
          "durationTicks": 1,
          "midi": 40,
          "name": "E2",
          "ticks": 5088,
          "time": 31.176402,
          "velocity": 1
        },
        {
          "duration": 0.0061274375000017756,
          "durationTicks": 1,
          "midi": 38,
          "name": "D2",
          "ticks": 5112,
          "time": 31.3234605,
          "velocity": 0.47244094488188976
        },
        {
          "duration": 0.0061274375000017756,
          "durationTicks": 1,
          "midi": 40,
          "name": "E2",
          "ticks": 5136,
          "time": 31.470519,
          "velocity": 1
        },
        {
          "duration": 0.0061274375000017756,
          "durationTicks": 1,
          "midi": 40,
          "name": "E2",
          "ticks": 5184,
          "time": 31.764636,
          "velocity": 1
        },
        {
          "duration": 0.006127437499998223,
          "durationTicks": 1,
          "midi": 40,
          "name": "E2",
          "ticks": 5232,
          "time": 32.058753,
          "velocity": 1
        },
        {
          "duration": 0.006127437500005328,
          "durationTicks": 1,
          "midi": 40,
          "name": "E2",
          "ticks": 5256,
          "time": 32.2058115,
          "velocity": 0.47244094488188976
        },
        {
          "duration": 0.006127437500005328,
          "durationTicks": 1,
          "midi": 40,
          "name": "E2",
          "ticks": 5280,
          "time": 32.35287,
          "velocity": 1
        },
        {
          "duration": 0.006127437500005328,
          "durationTicks": 1,
          "midi": 38,
          "name": "D2",
          "ticks": 5304,
          "time": 32.4999285,
          "velocity": 1
        },
        {
          "duration": 0.006127437500005328,
          "durationTicks": 1,
          "midi": 38,
          "name": "D2",
          "ticks": 5376,
          "time": 32.941104,
          "velocity": 0.47244094488188976
        },
        {
          "duration": 0.006127437500005328,
          "durationTicks": 1,
          "midi": 38,
          "name": "D2",
          "ticks": 5400,
          "time": 33.0881625,
          "velocity": 1
        },
        {
          "duration": 0.006127437500005328,
          "durationTicks": 1,
          "midi": 38,
          "name": "D2",
          "ticks": 5424,
          "time": 33.235221,
          "velocity": 1
        },
        {
          "duration": 0.006127437500005328,
          "durationTicks": 1,
          "midi": 38,
          "name": "D2",
          "ticks": 5448,
          "time": 33.3822795,
          "velocity": 0.47244094488188976
        },
        {
          "duration": 0.006127437500005328,
          "durationTicks": 1,
          "midi": 38,
          "name": "D2",
          "ticks": 5472,
          "time": 33.529338,
          "velocity": 1
        },
        {
          "duration": 0.006127437500005328,
          "durationTicks": 1,
          "midi": 38,
          "name": "D2",
          "ticks": 5496,
          "time": 33.6763965,
          "velocity": 0.47244094488188976
        },
        {
          "duration": 0.006127437500005328,
          "durationTicks": 1,
          "midi": 40,
          "name": "E2",
          "ticks": 5520,
          "time": 33.823455,
          "velocity": 1
        },
        {
          "duration": 0.006127437499998223,
          "durationTicks": 1,
          "midi": 40,
          "name": "E2",
          "ticks": 5568,
          "time": 34.117572,
          "velocity": 1
        },
        {
          "duration": 0.006127437499998223,
          "durationTicks": 1,
          "midi": 40,
          "name": "E2",
          "ticks": 5616,
          "time": 34.411689,
          "velocity": 1
        },
        {
          "duration": 0.006127437499998223,
          "durationTicks": 1,
          "midi": 40,
          "name": "E2",
          "ticks": 5640,
          "time": 34.5587475,
          "velocity": 0.47244094488188976
        },
        {
          "duration": 0.006127437499998223,
          "durationTicks": 1,
          "midi": 40,
          "name": "E2",
          "ticks": 5664,
          "time": 34.705806,
          "velocity": 1
        },
        {
          "duration": 0.006127437499998223,
          "durationTicks": 1,
          "midi": 35,
          "name": "B1",
          "ticks": 5688,
          "time": 34.8528645,
          "velocity": 1
        },
        {
          "duration": 0.006127437499998223,
          "durationTicks": 1,
          "midi": 35,
          "name": "B1",
          "ticks": 5760,
          "time": 35.29404,
          "velocity": 0.47244094488188976
        },
        {
          "duration": 0.006127437499998223,
          "durationTicks": 1,
          "midi": 35,
          "name": "B1",
          "ticks": 5784,
          "time": 35.4410985,
          "velocity": 1
        },
        {
          "duration": 0.006127437499998223,
          "durationTicks": 1,
          "midi": 35,
          "name": "B1",
          "ticks": 5808,
          "time": 35.588157,
          "velocity": 1
        },
        {
          "duration": 0.006127437499998223,
          "durationTicks": 1,
          "midi": 35,
          "name": "B1",
          "ticks": 5832,
          "time": 35.7352155,
          "velocity": 0.47244094488188976
        },
        {
          "duration": 0.006127437499998223,
          "durationTicks": 1,
          "midi": 35,
          "name": "B1",
          "ticks": 5856,
          "time": 35.882274,
          "velocity": 1
        },
        {
          "duration": 0.006127437499998223,
          "durationTicks": 1,
          "midi": 35,
          "name": "B1",
          "ticks": 5880,
          "time": 36.0293325,
          "velocity": 0.47244094488188976
        },
        {
          "duration": 0.006127437499998223,
          "durationTicks": 1,
          "midi": 35,
          "name": "B1",
          "ticks": 5904,
          "time": 36.176391,
          "velocity": 1
        },
        {
          "duration": 0.006127437499998223,
          "durationTicks": 1,
          "midi": 35,
          "name": "B1",
          "ticks": 5928,
          "time": 36.3234495,
          "velocity": 0.47244094488188976
        },
        {
          "duration": 0.006127437499998223,
          "durationTicks": 1,
          "midi": 47,
          "name": "B2",
          "ticks": 5952,
          "time": 36.470508,
          "velocity": 1
        },
        {
          "duration": 0.006127437499998223,
          "durationTicks": 1,
          "midi": 44,
          "name": "G#2",
          "ticks": 6000,
          "time": 36.764625,
          "velocity": 1
        },
        {
          "duration": 0.006127437499998223,
          "durationTicks": 1,
          "midi": 42,
          "name": "F#2",
          "ticks": 6024,
          "time": 36.9116835,
          "velocity": 1
        },
        {
          "duration": 0.006127437499998223,
          "durationTicks": 1,
          "midi": 35,
          "name": "B1",
          "ticks": 6048,
          "time": 37.058742,
          "velocity": 1
        },
        {
          "duration": 0.006127437499998223,
          "durationTicks": 1,
          "midi": 38,
          "name": "D2",
          "ticks": 6072,
          "time": 37.2058005,
          "velocity": 1
        },
        {
          "duration": 0.006127437499998223,
          "durationTicks": 1,
          "midi": 38,
          "name": "D2",
          "ticks": 6144,
          "time": 37.646976,
          "velocity": 0.47244094488188976
        },
        {
          "duration": 0.006127437499998223,
          "durationTicks": 1,
          "midi": 38,
          "name": "D2",
          "ticks": 6168,
          "time": 37.7940345,
          "velocity": 1
        },
        {
          "duration": 0.006127437499998223,
          "durationTicks": 1,
          "midi": 38,
          "name": "D2",
          "ticks": 6192,
          "time": 37.941093,
          "velocity": 1
        },
        {
          "duration": 0.006127437499998223,
          "durationTicks": 1,
          "midi": 38,
          "name": "D2",
          "ticks": 6216,
          "time": 38.0881515,
          "velocity": 0.47244094488188976
        },
        {
          "duration": 0.006127437499998223,
          "durationTicks": 1,
          "midi": 38,
          "name": "D2",
          "ticks": 6240,
          "time": 38.23521,
          "velocity": 1
        },
        {
          "duration": 0.006127437499998223,
          "durationTicks": 1,
          "midi": 38,
          "name": "D2",
          "ticks": 6264,
          "time": 38.3822685,
          "velocity": 0.47244094488188976
        },
        {
          "duration": 0.006127437499998223,
          "durationTicks": 1,
          "midi": 38,
          "name": "D2",
          "ticks": 6288,
          "time": 38.529327,
          "velocity": 1
        },
        {
          "duration": 0.006127437499998223,
          "durationTicks": 1,
          "midi": 38,
          "name": "D2",
          "ticks": 6312,
          "time": 38.6763855,
          "velocity": 0.47244094488188976
        },
        {
          "duration": 0.006127437499998223,
          "durationTicks": 1,
          "midi": 38,
          "name": "D2",
          "ticks": 6336,
          "time": 38.823444,
          "velocity": 1
        },
        {
          "duration": 0.006127437499998223,
          "durationTicks": 1,
          "midi": 38,
          "name": "D2",
          "ticks": 6384,
          "time": 39.117561,
          "velocity": 1
        },
        {
          "duration": 0.006127437499998223,
          "durationTicks": 1,
          "midi": 38,
          "name": "D2",
          "ticks": 6408,
          "time": 39.2646195,
          "velocity": 0.47244094488188976
        },
        {
          "duration": 0.006127437499998223,
          "durationTicks": 1,
          "midi": 38,
          "name": "D2",
          "ticks": 6432,
          "time": 39.411678,
          "velocity": 1
        },
        {
          "duration": 0.006127437499998223,
          "durationTicks": 1,
          "midi": 40,
          "name": "E2",
          "ticks": 6456,
          "time": 39.5587365,
          "velocity": 1
        },
        {
          "duration": 0.006127437499998223,
          "durationTicks": 1,
          "midi": 40,
          "name": "E2",
          "ticks": 6528,
          "time": 39.999912,
          "velocity": 0.47244094488188976
        },
        {
          "duration": 0.006127437499998223,
          "durationTicks": 1,
          "midi": 40,
          "name": "E2",
          "ticks": 6552,
          "time": 40.1469705,
          "velocity": 1
        },
        {
          "duration": 0.006127437499998223,
          "durationTicks": 1,
          "midi": 40,
          "name": "E2",
          "ticks": 6576,
          "time": 40.294029,
          "velocity": 1
        },
        {
          "duration": 0.006127437499998223,
          "durationTicks": 1,
          "midi": 40,
          "name": "E2",
          "ticks": 6600,
          "time": 40.4410875,
          "velocity": 0.47244094488188976
        },
        {
          "duration": 0.006127437499998223,
          "durationTicks": 1,
          "midi": 40,
          "name": "E2",
          "ticks": 6624,
          "time": 40.588146,
          "velocity": 1
        },
        {
          "duration": 0.006127437499998223,
          "durationTicks": 1,
          "midi": 38,
          "name": "D2",
          "ticks": 6648,
          "time": 40.7352045,
          "velocity": 0.47244094488188976
        },
        {
          "duration": 0.006127437499998223,
          "durationTicks": 1,
          "midi": 40,
          "name": "E2",
          "ticks": 6672,
          "time": 40.882263,
          "velocity": 1
        },
        {
          "duration": 0.006127437499998223,
          "durationTicks": 1,
          "midi": 40,
          "name": "E2",
          "ticks": 6720,
          "time": 41.17638,
          "velocity": 1
        },
        {
          "duration": 0.006127437499998223,
          "durationTicks": 1,
          "midi": 40,
          "name": "E2",
          "ticks": 6768,
          "time": 41.470497,
          "velocity": 1
        },
        {
          "duration": 0.006127437499998223,
          "durationTicks": 1,
          "midi": 40,
          "name": "E2",
          "ticks": 6792,
          "time": 41.6175555,
          "velocity": 0.47244094488188976
        },
        {
          "duration": 0.006127437499998223,
          "durationTicks": 1,
          "midi": 40,
          "name": "E2",
          "ticks": 6816,
          "time": 41.764614,
          "velocity": 1
        },
        {
          "duration": 0.006127437499998223,
          "durationTicks": 1,
          "midi": 38,
          "name": "D2",
          "ticks": 6840,
          "time": 41.9116725,
          "velocity": 1
        },
        {
          "duration": 0.006127437499998223,
          "durationTicks": 1,
          "midi": 38,
          "name": "D2",
          "ticks": 6912,
          "time": 42.352848,
          "velocity": 0.47244094488188976
        },
        {
          "duration": 0.006127437499998223,
          "durationTicks": 1,
          "midi": 38,
          "name": "D2",
          "ticks": 6936,
          "time": 42.4999065,
          "velocity": 1
        },
        {
          "duration": 0.006127437499998223,
          "durationTicks": 1,
          "midi": 38,
          "name": "D2",
          "ticks": 6960,
          "time": 42.646965,
          "velocity": 1
        },
        {
          "duration": 0.006127437499998223,
          "durationTicks": 1,
          "midi": 38,
          "name": "D2",
          "ticks": 6984,
          "time": 42.7940235,
          "velocity": 0.47244094488188976
        },
        {
          "duration": 0.006127437499998223,
          "durationTicks": 1,
          "midi": 38,
          "name": "D2",
          "ticks": 7008,
          "time": 42.941082,
          "velocity": 1
        },
        {
          "duration": 0.006127437499998223,
          "durationTicks": 1,
          "midi": 38,
          "name": "D2",
          "ticks": 7032,
          "time": 43.0881405,
          "velocity": 0.47244094488188976
        },
        {
          "duration": 0.006127437499998223,
          "durationTicks": 1,
          "midi": 38,
          "name": "D2",
          "ticks": 7056,
          "time": 43.235199,
          "velocity": 1
        },
        {
          "duration": 0.006127437499998223,
          "durationTicks": 1,
          "midi": 38,
          "name": "D2",
          "ticks": 7080,
          "time": 43.3822575,
          "velocity": 0.47244094488188976
        },
        {
          "duration": 0.006127437499998223,
          "durationTicks": 1,
          "midi": 38,
          "name": "D2",
          "ticks": 7104,
          "time": 43.529316,
          "velocity": 1
        },
        {
          "duration": 0.006127437499991117,
          "durationTicks": 1,
          "midi": 38,
          "name": "D2",
          "ticks": 7152,
          "time": 43.82343300000001,
          "velocity": 1
        },
        {
          "duration": 0.006127437499991117,
          "durationTicks": 1,
          "midi": 38,
          "name": "D2",
          "ticks": 7176,
          "time": 43.97049150000001,
          "velocity": 0.47244094488188976
        },
        {
          "duration": 0.006127437499991117,
          "durationTicks": 1,
          "midi": 38,
          "name": "D2",
          "ticks": 7200,
          "time": 44.11755000000001,
          "velocity": 1
        },
        {
          "duration": 0.006127437499991117,
          "durationTicks": 1,
          "midi": 40,
          "name": "E2",
          "ticks": 7224,
          "time": 44.26460850000001,
          "velocity": 1
        },
        {
          "duration": 0.006127437499991117,
          "durationTicks": 1,
          "midi": 40,
          "name": "E2",
          "ticks": 7296,
          "time": 44.70578400000001,
          "velocity": 0.47244094488188976
        },
        {
          "duration": 0.006127437499991117,
          "durationTicks": 1,
          "midi": 40,
          "name": "E2",
          "ticks": 7320,
          "time": 44.85284250000001,
          "velocity": 1
        },
        {
          "duration": 0.006127437499991117,
          "durationTicks": 1,
          "midi": 40,
          "name": "E2",
          "ticks": 7344,
          "time": 44.99990100000001,
          "velocity": 1
        },
        {
          "duration": 0.006127437499991117,
          "durationTicks": 1,
          "midi": 40,
          "name": "E2",
          "ticks": 7368,
          "time": 45.14695950000001,
          "velocity": 0.47244094488188976
        },
        {
          "duration": 0.006127437499991117,
          "durationTicks": 1,
          "midi": 40,
          "name": "E2",
          "ticks": 7392,
          "time": 45.29401800000001,
          "velocity": 1
        },
        {
          "duration": 0.006127437499991117,
          "durationTicks": 1,
          "midi": 38,
          "name": "D2",
          "ticks": 7416,
          "time": 45.44107650000001,
          "velocity": 0.47244094488188976
        },
        {
          "duration": 0.006127437499991117,
          "durationTicks": 1,
          "midi": 40,
          "name": "E2",
          "ticks": 7440,
          "time": 45.58813500000001,
          "velocity": 1
        },
        {
          "duration": 0.006127437499991117,
          "durationTicks": 1,
          "midi": 40,
          "name": "E2",
          "ticks": 7488,
          "time": 45.88225200000001,
          "velocity": 1
        },
        {
          "duration": 0.006127437499991117,
          "durationTicks": 1,
          "midi": 40,
          "name": "E2",
          "ticks": 7536,
          "time": 46.17636900000001,
          "velocity": 1
        },
        {
          "duration": 0.006127437499991117,
          "durationTicks": 1,
          "midi": 40,
          "name": "E2",
          "ticks": 7560,
          "time": 46.32342750000001,
          "velocity": 0.47244094488188976
        },
        {
          "duration": 0.006127437499991117,
          "durationTicks": 1,
          "midi": 40,
          "name": "E2",
          "ticks": 7584,
          "time": 46.47048600000001,
          "velocity": 1
        },
        {
          "duration": 0.006127437499991117,
          "durationTicks": 1,
          "midi": 38,
          "name": "D2",
          "ticks": 7608,
          "time": 46.61754450000001,
          "velocity": 1
        },
        {
          "duration": 0.006127437499991117,
          "durationTicks": 1,
          "midi": 38,
          "name": "D2",
          "ticks": 7680,
          "time": 47.05872000000001,
          "velocity": 0.47244094488188976
        },
        {
          "duration": 0.006127437499991117,
          "durationTicks": 1,
          "midi": 38,
          "name": "D2",
          "ticks": 7704,
          "time": 47.20577850000001,
          "velocity": 1
        },
        {
          "duration": 0.006127437499991117,
          "durationTicks": 1,
          "midi": 38,
          "name": "D2",
          "ticks": 7728,
          "time": 47.35283700000001,
          "velocity": 1
        },
        {
          "duration": 0.006127437499991117,
          "durationTicks": 1,
          "midi": 38,
          "name": "D2",
          "ticks": 7752,
          "time": 47.49989550000001,
          "velocity": 0.47244094488188976
        },
        {
          "duration": 0.006127437499991117,
          "durationTicks": 1,
          "midi": 38,
          "name": "D2",
          "ticks": 7776,
          "time": 47.64695400000001,
          "velocity": 1
        },
        {
          "duration": 0.006127437499991117,
          "durationTicks": 1,
          "midi": 38,
          "name": "D2",
          "ticks": 7800,
          "time": 47.79401250000001,
          "velocity": 0.47244094488188976
        },
        {
          "duration": 0.006127437499991117,
          "durationTicks": 1,
          "midi": 38,
          "name": "D2",
          "ticks": 7824,
          "time": 47.94107100000001,
          "velocity": 1
        },
        {
          "duration": 0.006127437499991117,
          "durationTicks": 1,
          "midi": 38,
          "name": "D2",
          "ticks": 7848,
          "time": 48.08812950000001,
          "velocity": 0.47244094488188976
        },
        {
          "duration": 0.006127437499991117,
          "durationTicks": 1,
          "midi": 38,
          "name": "D2",
          "ticks": 7872,
          "time": 48.23518800000001,
          "velocity": 1
        },
        {
          "duration": 0.006127437499991117,
          "durationTicks": 1,
          "midi": 38,
          "name": "D2",
          "ticks": 7920,
          "time": 48.52930500000001,
          "velocity": 1
        },
        {
          "duration": 0.006127437499991117,
          "durationTicks": 1,
          "midi": 38,
          "name": "D2",
          "ticks": 7944,
          "time": 48.67636350000001,
          "velocity": 0.47244094488188976
        },
        {
          "duration": 0.006127437499991117,
          "durationTicks": 1,
          "midi": 38,
          "name": "D2",
          "ticks": 7968,
          "time": 48.82342200000001,
          "velocity": 1
        },
        {
          "duration": 0.006127437499991117,
          "durationTicks": 1,
          "midi": 40,
          "name": "E2",
          "ticks": 7992,
          "time": 48.97048050000001,
          "velocity": 1
        },
        {
          "duration": 0.006127437499991117,
          "durationTicks": 1,
          "midi": 40,
          "name": "E2",
          "ticks": 8064,
          "time": 49.41165600000001,
          "velocity": 0.47244094488188976
        },
        {
          "duration": 0.006127437499991117,
          "durationTicks": 1,
          "midi": 40,
          "name": "E2",
          "ticks": 8088,
          "time": 49.55871450000001,
          "velocity": 1
        },
        {
          "duration": 0.006127437499991117,
          "durationTicks": 1,
          "midi": 40,
          "name": "E2",
          "ticks": 8112,
          "time": 49.70577300000001,
          "velocity": 1
        },
        {
          "duration": 0.006127437499991117,
          "durationTicks": 1,
          "midi": 40,
          "name": "E2",
          "ticks": 8136,
          "time": 49.85283150000001,
          "velocity": 0.47244094488188976
        },
        {
          "duration": 0.006127437499991117,
          "durationTicks": 1,
          "midi": 40,
          "name": "E2",
          "ticks": 8160,
          "time": 49.99989000000001,
          "velocity": 1
        },
        {
          "duration": 0.006127437499991117,
          "durationTicks": 1,
          "midi": 38,
          "name": "D2",
          "ticks": 8184,
          "time": 50.14694850000001,
          "velocity": 0.47244094488188976
        },
        {
          "duration": 0.006127437499991117,
          "durationTicks": 1,
          "midi": 40,
          "name": "E2",
          "ticks": 8208,
          "time": 50.29400700000001,
          "velocity": 1
        },
        {
          "duration": 0.006127437499991117,
          "durationTicks": 1,
          "midi": 40,
          "name": "E2",
          "ticks": 8256,
          "time": 50.58812400000001,
          "velocity": 1
        },
        {
          "duration": 0.006127437499991117,
          "durationTicks": 1,
          "midi": 40,
          "name": "E2",
          "ticks": 8304,
          "time": 50.88224100000001,
          "velocity": 1
        },
        {
          "duration": 0.006127437499991117,
          "durationTicks": 1,
          "midi": 40,
          "name": "E2",
          "ticks": 8328,
          "time": 51.02929950000001,
          "velocity": 0.47244094488188976
        },
        {
          "duration": 0.006127437499991117,
          "durationTicks": 1,
          "midi": 40,
          "name": "E2",
          "ticks": 8352,
          "time": 51.17635800000001,
          "velocity": 1
        },
        {
          "duration": 0.006127437499991117,
          "durationTicks": 1,
          "midi": 38,
          "name": "D2",
          "ticks": 8376,
          "time": 51.32341650000001,
          "velocity": 1
        },
        {
          "duration": 0.006127437499991117,
          "durationTicks": 1,
          "midi": 38,
          "name": "D2",
          "ticks": 8448,
          "time": 51.76459200000001,
          "velocity": 0.47244094488188976
        },
        {
          "duration": 0.006127437499991117,
          "durationTicks": 1,
          "midi": 38,
          "name": "D2",
          "ticks": 8472,
          "time": 51.91165050000001,
          "velocity": 1
        },
        {
          "duration": 0.006127437499991117,
          "durationTicks": 1,
          "midi": 38,
          "name": "D2",
          "ticks": 8496,
          "time": 52.05870900000001,
          "velocity": 1
        },
        {
          "duration": 0.006127437499991117,
          "durationTicks": 1,
          "midi": 38,
          "name": "D2",
          "ticks": 8520,
          "time": 52.20576750000001,
          "velocity": 0.47244094488188976
        },
        {
          "duration": 0.006127437499991117,
          "durationTicks": 1,
          "midi": 38,
          "name": "D2",
          "ticks": 8544,
          "time": 52.35282600000001,
          "velocity": 1
        },
        {
          "duration": 0.006127437499991117,
          "durationTicks": 1,
          "midi": 38,
          "name": "D2",
          "ticks": 8568,
          "time": 52.49988450000001,
          "velocity": 0.47244094488188976
        },
        {
          "duration": 0.006127437499991117,
          "durationTicks": 1,
          "midi": 40,
          "name": "E2",
          "ticks": 8592,
          "time": 52.64694300000001,
          "velocity": 1
        },
        {
          "duration": 0.006127437499991117,
          "durationTicks": 1,
          "midi": 40,
          "name": "E2",
          "ticks": 8640,
          "time": 52.94106000000001,
          "velocity": 1
        },
        {
          "duration": 0.006127437499991117,
          "durationTicks": 1,
          "midi": 40,
          "name": "E2",
          "ticks": 8688,
          "time": 53.23517700000001,
          "velocity": 1
        },
        {
          "duration": 0.006127437499991117,
          "durationTicks": 1,
          "midi": 40,
          "name": "E2",
          "ticks": 8712,
          "time": 53.38223550000001,
          "velocity": 0.47244094488188976
        },
        {
          "duration": 0.006127437499991117,
          "durationTicks": 1,
          "midi": 40,
          "name": "E2",
          "ticks": 8736,
          "time": 53.52929400000001,
          "velocity": 1
        },
        {
          "duration": 0.006127437499991117,
          "durationTicks": 1,
          "midi": 35,
          "name": "B1",
          "ticks": 8760,
          "time": 53.67635250000001,
          "velocity": 1
        },
        {
          "duration": 0.006127437499991117,
          "durationTicks": 1,
          "midi": 35,
          "name": "B1",
          "ticks": 8832,
          "time": 54.11752800000001,
          "velocity": 0.47244094488188976
        },
        {
          "duration": 0.006127437499991117,
          "durationTicks": 1,
          "midi": 35,
          "name": "B1",
          "ticks": 8856,
          "time": 54.26458650000001,
          "velocity": 1
        },
        {
          "duration": 0.006127437499991117,
          "durationTicks": 1,
          "midi": 35,
          "name": "B1",
          "ticks": 8880,
          "time": 54.41164500000001,
          "velocity": 1
        },
        {
          "duration": 0.006127437499991117,
          "durationTicks": 1,
          "midi": 35,
          "name": "B1",
          "ticks": 8904,
          "time": 54.55870350000001,
          "velocity": 0.47244094488188976
        },
        {
          "duration": 0.006127437499991117,
          "durationTicks": 1,
          "midi": 35,
          "name": "B1",
          "ticks": 8928,
          "time": 54.70576200000001,
          "velocity": 1
        },
        {
          "duration": 0.006127437499991117,
          "durationTicks": 1,
          "midi": 35,
          "name": "B1",
          "ticks": 8952,
          "time": 54.85282050000001,
          "velocity": 0.47244094488188976
        },
        {
          "duration": 0.006127437499991117,
          "durationTicks": 1,
          "midi": 35,
          "name": "B1",
          "ticks": 8976,
          "time": 54.99987900000001,
          "velocity": 1
        },
        {
          "duration": 0.006127437499991117,
          "durationTicks": 1,
          "midi": 35,
          "name": "B1",
          "ticks": 9000,
          "time": 55.14693750000001,
          "velocity": 0.47244094488188976
        },
        {
          "duration": 0.006127437499991117,
          "durationTicks": 1,
          "midi": 47,
          "name": "B2",
          "ticks": 9024,
          "time": 55.29399600000001,
          "velocity": 1
        },
        {
          "duration": 0.006127437499991117,
          "durationTicks": 1,
          "midi": 44,
          "name": "G#2",
          "ticks": 9072,
          "time": 55.58811300000001,
          "velocity": 1
        },
        {
          "duration": 0.006127437499991117,
          "durationTicks": 1,
          "midi": 42,
          "name": "F#2",
          "ticks": 9096,
          "time": 55.73517150000001,
          "velocity": 1
        },
        {
          "duration": 0.006127437499991117,
          "durationTicks": 1,
          "midi": 35,
          "name": "B1",
          "ticks": 9120,
          "time": 55.88223000000001,
          "velocity": 1
        },
        {
          "duration": 0.006127437499991117,
          "durationTicks": 1,
          "midi": 30,
          "name": "F#1",
          "ticks": 9144,
          "time": 56.02928850000001,
          "velocity": 1
        },
        {
          "duration": 0.006127437499991117,
          "durationTicks": 1,
          "midi": 30,
          "name": "F#1",
          "ticks": 9168,
          "time": 56.17634700000001,
          "velocity": 1
        },
        {
          "duration": 0.006127437499991117,
          "durationTicks": 1,
          "midi": 42,
          "name": "F#2",
          "ticks": 9192,
          "time": 56.32340550000001,
          "velocity": 1
        },
        {
          "duration": 0.006127437499991117,
          "durationTicks": 1,
          "midi": 30,
          "name": "F#1",
          "ticks": 9216,
          "time": 56.47046400000001,
          "velocity": 1
        },
        {
          "duration": 0.006127437499991117,
          "durationTicks": 1,
          "midi": 30,
          "name": "F#1",
          "ticks": 9240,
          "time": 56.61752250000001,
          "velocity": 1
        },
        {
          "duration": 0.006127437499991117,
          "durationTicks": 1,
          "midi": 30,
          "name": "F#1",
          "ticks": 9264,
          "time": 56.76458100000001,
          "velocity": 1
        },
        {
          "duration": 0.006127437499991117,
          "durationTicks": 1,
          "midi": 42,
          "name": "F#2",
          "ticks": 9288,
          "time": 56.91163950000001,
          "velocity": 1
        },
        {
          "duration": 0.006127437499991117,
          "durationTicks": 1,
          "midi": 30,
          "name": "F#1",
          "ticks": 9312,
          "time": 57.05869800000001,
          "velocity": 1
        },
        {
          "duration": 0.006127437499991117,
          "durationTicks": 1,
          "midi": 30,
          "name": "F#1",
          "ticks": 9336,
          "time": 57.20575650000001,
          "velocity": 0.47244094488188976
        },
        {
          "duration": 0.006127437499991117,
          "durationTicks": 1,
          "midi": 30,
          "name": "F#1",
          "ticks": 9360,
          "time": 57.35281500000001,
          "velocity": 1
        },
        {
          "duration": 0.006127437499991117,
          "durationTicks": 1,
          "midi": 42,
          "name": "F#2",
          "ticks": 9384,
          "time": 57.49987350000001,
          "velocity": 1
        },
        {
          "duration": 0.006127437499991117,
          "durationTicks": 1,
          "midi": 30,
          "name": "F#1",
          "ticks": 9408,
          "time": 57.64693200000001,
          "velocity": 1
        },
        {
          "duration": 0.006127437499991117,
          "durationTicks": 1,
          "midi": 37,
          "name": "C#2",
          "ticks": 9432,
          "time": 57.79399050000001,
          "velocity": 1
        },
        {
          "duration": 0.006127437499991117,
          "durationTicks": 1,
          "midi": 42,
          "name": "F#2",
          "ticks": 9456,
          "time": 57.94104900000001,
          "velocity": 1
        },
        {
          "duration": 0.006127437499991117,
          "durationTicks": 1,
          "midi": 30,
          "name": "F#1",
          "ticks": 9480,
          "time": 58.08810750000001,
          "velocity": 1
        },
        {
          "duration": 0.006127437499991117,
          "durationTicks": 1,
          "midi": 30,
          "name": "F#1",
          "ticks": 9504,
          "time": 58.23516600000001,
          "velocity": 1
        },
        {
          "duration": 0.006127437499991117,
          "durationTicks": 1,
          "midi": 42,
          "name": "F#2",
          "ticks": 9528,
          "time": 58.38222450000001,
          "velocity": 1
        },
        {
          "duration": 0.006127437499991117,
          "durationTicks": 1,
          "midi": 30,
          "name": "F#1",
          "ticks": 9552,
          "time": 58.52928300000001,
          "velocity": 1
        },
        {
          "duration": 0.006127437499991117,
          "durationTicks": 1,
          "midi": 30,
          "name": "F#1",
          "ticks": 9576,
          "time": 58.67634150000001,
          "velocity": 1
        },
        {
          "duration": 0.006127437499991117,
          "durationTicks": 1,
          "midi": 30,
          "name": "F#1",
          "ticks": 9600,
          "time": 58.82340000000001,
          "velocity": 1
        },
        {
          "duration": 0.006127437499991117,
          "durationTicks": 1,
          "midi": 42,
          "name": "F#2",
          "ticks": 9624,
          "time": 58.97045850000001,
          "velocity": 1
        },
        {
          "duration": 0.006127437499991117,
          "durationTicks": 1,
          "midi": 30,
          "name": "F#1",
          "ticks": 9648,
          "time": 59.11751700000001,
          "velocity": 1
        },
        {
          "duration": 0.006127437499991117,
          "durationTicks": 1,
          "midi": 30,
          "name": "F#1",
          "ticks": 9672,
          "time": 59.26457550000001,
          "velocity": 0.47244094488188976
        },
        {
          "duration": 0.006127437499991117,
          "durationTicks": 1,
          "midi": 30,
          "name": "F#1",
          "ticks": 9696,
          "time": 59.41163400000001,
          "velocity": 1
        },
        {
          "duration": 0.006127437499991117,
          "durationTicks": 1,
          "midi": 42,
          "name": "F#2",
          "ticks": 9720,
          "time": 59.55869250000001,
          "velocity": 1
        },
        {
          "duration": 0.006127437499991117,
          "durationTicks": 1,
          "midi": 30,
          "name": "F#1",
          "ticks": 9744,
          "time": 59.70575100000001,
          "velocity": 1
        },
        {
          "duration": 0.006127437499991117,
          "durationTicks": 1,
          "midi": 40,
          "name": "E2",
          "ticks": 9768,
          "time": 59.852809500000006,
          "velocity": 1
        },
        {
          "duration": 0.006127437499991117,
          "durationTicks": 1,
          "midi": 37,
          "name": "C#2",
          "ticks": 9792,
          "time": 59.999868000000006,
          "velocity": 1
        },
        {
          "duration": 0.006127437499991117,
          "durationTicks": 1,
          "midi": 30,
          "name": "F#1",
          "ticks": 9816,
          "time": 60.146926500000006,
          "velocity": 1
        },
        {
          "duration": 0.006127437499991117,
          "durationTicks": 1,
          "midi": 30,
          "name": "F#1",
          "ticks": 9840,
          "time": 60.293985000000006,
          "velocity": 1
        },
        {
          "duration": 0.006127437499991117,
          "durationTicks": 1,
          "midi": 42,
          "name": "F#2",
          "ticks": 9864,
          "time": 60.441043500000006,
          "velocity": 1
        },
        {
          "duration": 0.006127437499991117,
          "durationTicks": 1,
          "midi": 30,
          "name": "F#1",
          "ticks": 9888,
          "time": 60.588102000000006,
          "velocity": 1
        },
        {
          "duration": 0.006127437499991117,
          "durationTicks": 1,
          "midi": 30,
          "name": "F#1",
          "ticks": 9912,
          "time": 60.735160500000006,
          "velocity": 1
        },
        {
          "duration": 0.006127437499991117,
          "durationTicks": 1,
          "midi": 30,
          "name": "F#1",
          "ticks": 9936,
          "time": 60.882219000000006,
          "velocity": 1
        },
        {
          "duration": 0.006127437499991117,
          "durationTicks": 1,
          "midi": 42,
          "name": "F#2",
          "ticks": 9960,
          "time": 61.029277500000006,
          "velocity": 1
        },
        {
          "duration": 0.006127437499991117,
          "durationTicks": 1,
          "midi": 30,
          "name": "F#1",
          "ticks": 9984,
          "time": 61.176336000000006,
          "velocity": 1
        },
        {
          "duration": 0.006127437499991117,
          "durationTicks": 1,
          "midi": 30,
          "name": "F#1",
          "ticks": 10008,
          "time": 61.323394500000006,
          "velocity": 0.47244094488188976
        },
        {
          "duration": 0.006127437499991117,
          "durationTicks": 1,
          "midi": 30,
          "name": "F#1",
          "ticks": 10032,
          "time": 61.470453000000006,
          "velocity": 1
        },
        {
          "duration": 0.006127437499991117,
          "durationTicks": 1,
          "midi": 42,
          "name": "F#2",
          "ticks": 10056,
          "time": 61.617511500000006,
          "velocity": 1
        },
        {
          "duration": 0.006127437499991117,
          "durationTicks": 1,
          "midi": 30,
          "name": "F#1",
          "ticks": 10080,
          "time": 61.764570000000006,
          "velocity": 1
        },
        {
          "duration": 0.006127437499991117,
          "durationTicks": 1,
          "midi": 37,
          "name": "C#2",
          "ticks": 10104,
          "time": 61.911628500000006,
          "velocity": 1
        },
        {
          "duration": 0.006127437499991117,
          "durationTicks": 1,
          "midi": 42,
          "name": "F#2",
          "ticks": 10128,
          "time": 62.058687000000006,
          "velocity": 1
        },
        {
          "duration": 0.006127437499991117,
          "durationTicks": 1,
          "midi": 30,
          "name": "F#1",
          "ticks": 10152,
          "time": 62.205745500000006,
          "velocity": 1
        },
        {
          "duration": 0.006127437499991117,
          "durationTicks": 1,
          "midi": 30,
          "name": "F#1",
          "ticks": 10176,
          "time": 62.352804000000006,
          "velocity": 1
        },
        {
          "duration": 0.006127437499991117,
          "durationTicks": 1,
          "midi": 42,
          "name": "F#2",
          "ticks": 10200,
          "time": 62.499862500000006,
          "velocity": 1
        },
        {
          "duration": 0.006127437499991117,
          "durationTicks": 1,
          "midi": 30,
          "name": "F#1",
          "ticks": 10224,
          "time": 62.646921000000006,
          "velocity": 1
        },
        {
          "duration": 0.006127437499991117,
          "durationTicks": 1,
          "midi": 30,
          "name": "F#1",
          "ticks": 10248,
          "time": 62.793979500000006,
          "velocity": 1
        },
        {
          "duration": 0.006127437499991117,
          "durationTicks": 1,
          "midi": 30,
          "name": "F#1",
          "ticks": 10272,
          "time": 62.941038000000006,
          "velocity": 1
        },
        {
          "duration": 0.006127437499991117,
          "durationTicks": 1,
          "midi": 42,
          "name": "F#2",
          "ticks": 10296,
          "time": 63.088096500000006,
          "velocity": 1
        },
        {
          "duration": 0.006127437499991117,
          "durationTicks": 1,
          "midi": 30,
          "name": "F#1",
          "ticks": 10320,
          "time": 63.235155000000006,
          "velocity": 1
        },
        {
          "duration": 0.006127437499991117,
          "durationTicks": 1,
          "midi": 30,
          "name": "F#1",
          "ticks": 10344,
          "time": 63.382213500000006,
          "velocity": 0.47244094488188976
        },
        {
          "duration": 0.006127437499991117,
          "durationTicks": 1,
          "midi": 30,
          "name": "F#1",
          "ticks": 10368,
          "time": 63.529272000000006,
          "velocity": 1
        },
        {
          "duration": 0.006127437499991117,
          "durationTicks": 1,
          "midi": 42,
          "name": "F#2",
          "ticks": 10392,
          "time": 63.676330500000006,
          "velocity": 1
        },
        {
          "duration": 0.006127437499998223,
          "durationTicks": 1,
          "midi": 30,
          "name": "F#1",
          "ticks": 10416,
          "time": 63.823389000000006,
          "velocity": 1
        },
        {
          "duration": 0.006127437499998223,
          "durationTicks": 1,
          "midi": 40,
          "name": "E2",
          "ticks": 10440,
          "time": 63.970447500000006,
          "velocity": 1
        },
        {
          "duration": 0.006127437499998223,
          "durationTicks": 1,
          "midi": 37,
          "name": "C#2",
          "ticks": 10464,
          "time": 64.117506,
          "velocity": 1
        },
        {
          "duration": 0.006127437499998223,
          "durationTicks": 1,
          "midi": 30,
          "name": "F#1",
          "ticks": 10488,
          "time": 64.2645645,
          "velocity": 1
        },
        {
          "duration": 0.006127437499998223,
          "durationTicks": 1,
          "midi": 30,
          "name": "F#1",
          "ticks": 10512,
          "time": 64.411623,
          "velocity": 1
        },
        {
          "duration": 0.006127437499998223,
          "durationTicks": 1,
          "midi": 42,
          "name": "F#2",
          "ticks": 10536,
          "time": 64.5586815,
          "velocity": 1
        },
        {
          "duration": 0.006127437499998223,
          "durationTicks": 1,
          "midi": 30,
          "name": "F#1",
          "ticks": 10560,
          "time": 64.70574,
          "velocity": 1
        },
        {
          "duration": 0.006127437499998223,
          "durationTicks": 1,
          "midi": 30,
          "name": "F#1",
          "ticks": 10584,
          "time": 64.8527985,
          "velocity": 1
        },
        {
          "duration": 0.006127437499998223,
          "durationTicks": 1,
          "midi": 30,
          "name": "F#1",
          "ticks": 10608,
          "time": 64.999857,
          "velocity": 1
        },
        {
          "duration": 0.006127437499998223,
          "durationTicks": 1,
          "midi": 42,
          "name": "F#2",
          "ticks": 10632,
          "time": 65.1469155,
          "velocity": 1
        },
        {
          "duration": 0.006127437499998223,
          "durationTicks": 1,
          "midi": 30,
          "name": "F#1",
          "ticks": 10656,
          "time": 65.293974,
          "velocity": 1
        }
      ]
    },
    {
      "channel": 0,
      "controlChanges": {
        "0": [
          {
            "number": 0,
            "ticks": 230,
            "time": 1.4093106250000003,
            "value": 0
          }
        ],
        "1": [
          {
            "number": 1,
            "ticks": 226,
            "time": 1.384800875,
            "value": 0
          }
        ],
        "5": [
          {
            "number": 5,
            "ticks": 229,
            "time": 1.4031831875,
            "value": 0
          }
        ],
        "6": [
          {
            "number": 6,
            "ticks": 216,
            "time": 1.3235265,
            "value": 0.12598425196850394
          },
          {
            "number": 6,
            "ticks": 218,
            "time": 1.3357813750000003,
            "value": 0.5984251968503937
          },
          {
            "number": 6,
            "ticks": 219,
            "time": 1.3419088125,
            "value": 0.4645669291338583
          },
          {
            "number": 6,
            "ticks": 220,
            "time": 1.34803625,
            "value": 0.5039370078740157
          },
          {
            "number": 6,
            "ticks": 221,
            "time": 1.3541636875000003,
            "value": 0.5039370078740157
          },
          {
            "number": 6,
            "ticks": 222,
            "time": 1.360291125,
            "value": 0.5039370078740157
          }
        ],
        "7": [
          {
            "number": 7,
            "ticks": 223,
            "time": 1.3664185625,
            "value": 1
          }
        ],
        "10": [
          {
            "number": 10,
            "ticks": 225,
            "time": 1.3786734375,
            "value": 0.3779527559055118
          }
        ],
        "11": [
          {
            "number": 11,
            "ticks": 224,
            "time": 1.3725460000000003,
            "value": 1
          }
        ],
        "32": [
          {
            "number": 32,
            "ticks": 231,
            "time": 1.4154380625,
            "value": 0.007874015748031496
          }
        ],
        "64": [
          {
            "number": 64,
            "ticks": 227,
            "time": 1.3909283125000003,
            "value": 0
          }
        ],
        "65": [
          {
            "number": 65,
            "ticks": 228,
            "time": 1.39705575,
            "value": 1
          }
        ],
        "91": [
          {
            "number": 91,
            "ticks": 211,
            "time": 1.2928893125,
            "value": 0
          }
        ],
        "93": [
          {
            "number": 93,
            "ticks": 212,
            "time": 1.29901675,
            "value": 0
          }
        ],
        "94": [
          {
            "number": 94,
            "ticks": 213,
            "time": 1.3051441875,
            "value": 0
          }
        ],
        "98": [
          {
            "number": 98,
            "ticks": 220,
            "time": 1.34803625,
            "value": 0.06299212598425197
          },
          {
            "number": 98,
            "ticks": 221,
            "time": 1.3541636875000003,
            "value": 0.07086614173228346
          },
          {
            "number": 98,
            "ticks": 222,
            "time": 1.360291125,
            "value": 0.07874015748031496
          }
        ],
        "99": [
          {
            "number": 99,
            "ticks": 220,
            "time": 1.34803625,
            "value": 0.007874015748031496
          },
          {
            "number": 99,
            "ticks": 221,
            "time": 1.3541636875000003,
            "value": 0.007874015748031496
          },
          {
            "number": 99,
            "ticks": 222,
            "time": 1.360291125,
            "value": 0.007874015748031496
          }
        ],
        "100": [
          {
            "number": 100,
            "ticks": 214,
            "time": 1.311271625,
            "value": 0
          },
          {
            "number": 100,
            "ticks": 218,
            "time": 1.3357813750000003,
            "value": 0.015748031496062992
          },
          {
            "number": 100,
            "ticks": 219,
            "time": 1.3419088125,
            "value": 0.007874015748031496
          }
        ],
        "101": [
          {
            "number": 101,
            "ticks": 215,
            "time": 1.3173990625000003,
            "value": 0
          },
          {
            "number": 101,
            "ticks": 218,
            "time": 1.3357813750000003,
            "value": 0
          },
          {
            "number": 101,
            "ticks": 219,
            "time": 1.3419088125,
            "value": 0
          }
        ]
      },
      "pitchBends": [
        {
          "ticks": 217,
          "time": 1.3296539375,
          "value": 0
        }
      ],
      "instrument": {
        "family": "piano",
        "number": 0,
        "name": "acoustic grand piano"
      },
      "name": "EFX FEED BACK+\u0000",
      "notes": [],
      "endOfTrackTicks": 10680
    },
    {
      "channel": 8,
      "controlChanges": {
        "0": [
          {
            "number": 0,
            "ticks": 2904,
            "time": 17.7940785,
            "value": 0
          },
          {
            "number": 0,
            "ticks": 5640,
            "time": 34.5587475,
            "value": 0.06299212598425197
          },
          {
            "number": 0,
            "ticks": 8712,
            "time": 53.38223550000001,
            "value": 0.06299212598425197
          }
        ],
        "1": [
          {
            "number": 1,
            "ticks": 2808,
            "time": 17.2058445,
            "value": 0
          },
          {
            "number": 1,
            "ticks": 5640,
            "time": 34.5587475,
            "value": 0
          }
        ],
        "5": [
          {
            "number": 5,
            "ticks": 3072,
            "time": 18.823488,
            "value": 0.4251968503937008
          },
          {
            "number": 5,
            "ticks": 3240,
            "time": 19.8528975,
            "value": 0
          },
          {
            "number": 5,
            "ticks": 4608,
            "time": 28.235232,
            "value": 0.4251968503937008
          },
          {
            "number": 5,
            "ticks": 4776,
            "time": 29.2646415,
            "value": 0
          },
          {
            "number": 5,
            "ticks": 6144,
            "time": 37.646976,
            "value": 0.4251968503937008
          },
          {
            "number": 5,
            "ticks": 6312,
            "time": 38.6763855,
            "value": 0
          },
          {
            "number": 5,
            "ticks": 7680,
            "time": 47.05872000000001,
            "value": 0.4251968503937008
          },
          {
            "number": 5,
            "ticks": 7848,
            "time": 48.08812950000001,
            "value": 0
          }
        ],
        "6": [
          {
            "number": 6,
            "ticks": 233,
            "time": 1.4276929375000003,
            "value": 0.6299212598425197
          },
          {
            "number": 6,
            "ticks": 234,
            "time": 1.433820375,
            "value": 0.5905511811023622
          },
          {
            "number": 6,
            "ticks": 235,
            "time": 1.4399478125,
            "value": 0.5039370078740157
          },
          {
            "number": 6,
            "ticks": 236,
            "time": 1.4460752500000003,
            "value": 1
          },
          {
            "number": 6,
            "ticks": 237,
            "time": 1.4522026875,
            "value": 0.5039370078740157
          },
          {
            "number": 6,
            "ticks": 3000,
            "time": 18.3823125,
            "value": 0.5039370078740157
          },
          {
            "number": 6,
            "ticks": 3000,
            "time": 18.3823125,
            "value": 0.8661417322834646
          },
          {
            "number": 6,
            "ticks": 5640,
            "time": 34.5587475,
            "value": 0.5511811023622047
          },
          {
            "number": 6,
            "ticks": 5640,
            "time": 34.5587475,
            "value": 1
          },
          {
            "number": 6,
            "ticks": 8712,
            "time": 53.38223550000001,
            "value": 0.5511811023622047
          },
          {
            "number": 6,
            "ticks": 8712,
            "time": 53.38223550000001,
            "value": 0.8661417322834646
          }
        ],
        "7": [
          {
            "number": 7,
            "ticks": 2856,
            "time": 17.4999615,
            "value": 0.1968503937007874
          },
          {
            "number": 7,
            "ticks": 3000,
            "time": 18.3823125,
            "value": 0.3937007874015748
          },
          {
            "number": 7,
            "ticks": 3072,
            "time": 18.823488,
            "value": 0.15748031496062992
          },
          {
            "number": 7,
            "ticks": 4536,
            "time": 27.7940565,
            "value": 0.3937007874015748
          },
          {
            "number": 7,
            "ticks": 4608,
            "time": 28.235232,
            "value": 0.15748031496062992
          },
          {
            "number": 7,
            "ticks": 6072,
            "time": 37.2058005,
            "value": 0.3937007874015748
          },
          {
            "number": 7,
            "ticks": 6144,
            "time": 37.646976,
            "value": 0.15748031496062992
          },
          {
            "number": 7,
            "ticks": 7608,
            "time": 46.61754450000001,
            "value": 0.3937007874015748
          },
          {
            "number": 7,
            "ticks": 7680,
            "time": 47.05872000000001,
            "value": 0.15748031496062992
          }
        ],
        "11": [
          {
            "number": 11,
            "ticks": 2832,
            "time": 17.352903,
            "value": 1
          }
        ],
        "32": [
          {
            "number": 32,
            "ticks": 2928,
            "time": 17.941137,
            "value": 0.007874015748031496
          },
          {
            "number": 32,
            "ticks": 5640,
            "time": 34.5587475,
            "value": 0.023622047244094488
          },
          {
            "number": 32,
            "ticks": 8712,
            "time": 53.38223550000001,
            "value": 0.023622047244094488
          }
        ],
        "98": [
          {
            "number": 98,
            "ticks": 233,
            "time": 1.4276929375000003,
            "value": 0.25196850393700787
          },
          {
            "number": 98,
            "ticks": 234,
            "time": 1.433820375,
            "value": 0.25984251968503935
          },
          {
            "number": 98,
            "ticks": 235,
            "time": 1.4399478125,
            "value": 0.7795275590551181
          },
          {
            "number": 98,
            "ticks": 236,
            "time": 1.4460752500000003,
            "value": 0.8031496062992126
          },
          {
            "number": 98,
            "ticks": 237,
            "time": 1.4522026875,
            "value": 0.7874015748031497
          },
          {
            "number": 98,
            "ticks": 3000,
            "time": 18.3823125,
            "value": 0.7874015748031497
          },
          {
            "number": 98,
            "ticks": 3000,
            "time": 18.3823125,
            "value": 0.25196850393700787
          },
          {
            "number": 98,
            "ticks": 5640,
            "time": 34.5587475,
            "value": 0.25196850393700787
          },
          {
            "number": 98,
            "ticks": 5640,
            "time": 34.5587475,
            "value": 0.7874015748031497
          },
          {
            "number": 98,
            "ticks": 8712,
            "time": 53.38223550000001,
            "value": 0.25196850393700787
          },
          {
            "number": 98,
            "ticks": 8712,
            "time": 53.38223550000001,
            "value": 0.7874015748031497
          }
        ],
        "99": [
          {
            "number": 99,
            "ticks": 233,
            "time": 1.4276929375000003,
            "value": 0.007874015748031496
          },
          {
            "number": 99,
            "ticks": 234,
            "time": 1.433820375,
            "value": 0.007874015748031496
          },
          {
            "number": 99,
            "ticks": 235,
            "time": 1.4399478125,
            "value": 0.007874015748031496
          },
          {
            "number": 99,
            "ticks": 236,
            "time": 1.4460752500000003,
            "value": 0.007874015748031496
          },
          {
            "number": 99,
            "ticks": 237,
            "time": 1.4522026875,
            "value": 0.007874015748031496
          },
          {
            "number": 99,
            "ticks": 3000,
            "time": 18.3823125,
            "value": 0.007874015748031496
          },
          {
            "number": 99,
            "ticks": 3000,
            "time": 18.3823125,
            "value": 0.007874015748031496
          },
          {
            "number": 99,
            "ticks": 5640,
            "time": 34.5587475,
            "value": 0.007874015748031496
          },
          {
            "number": 99,
            "ticks": 5640,
            "time": 34.5587475,
            "value": 0.007874015748031496
          },
          {
            "number": 99,
            "ticks": 8712,
            "time": 53.38223550000001,
            "value": 0.007874015748031496
          },
          {
            "number": 99,
            "ticks": 8712,
            "time": 53.38223550000001,
            "value": 0.007874015748031496
          }
        ],
        "126": [
          {
            "number": 126,
            "ticks": 238,
            "time": 1.458330125,
            "value": 0
          }
        ]
      },
      "pitchBends": [
        {
          "ticks": 2880,
          "time": 17.64702,
          "value": 0
        },
        {
          "ticks": 3384,
          "time": 20.7352485,
          "value": -0.078125
        },
        {
          "ticks": 3392,
          "time": 20.784268,
          "value": -0.0625
        },
        {
          "ticks": 3399,
          "time": 20.8271600625,
          "value": -0.046875
        },
        {
          "ticks": 3406,
          "time": 20.870052125,
          "value": -0.03125
        },
        {
          "ticks": 3413,
          "time": 20.912944187500003,
          "value": -0.015625
        },
        {
          "ticks": 3420,
          "time": 20.95583625,
          "value": 0
        },
        {
          "ticks": 3768,
          "time": 23.0881845,
          "value": -0.125
        },
        {
          "ticks": 3773,
          "time": 23.118821687500002,
          "value": -0.109375
        },
        {
          "ticks": 3777,
          "time": 23.1433314375,
          "value": -0.09375
        },
        {
          "ticks": 3782,
          "time": 23.173968625,
          "value": -0.078125
        },
        {
          "ticks": 3786,
          "time": 23.198478375,
          "value": -0.0625
        },
        {
          "ticks": 3791,
          "time": 23.229115562500002,
          "value": -0.046875
        },
        {
          "ticks": 3795,
          "time": 23.2536253125,
          "value": -0.03125
        },
        {
          "ticks": 3800,
          "time": 23.2842625,
          "value": -0.015625
        },
        {
          "ticks": 3804,
          "time": 23.30877225,
          "value": 0
        },
        {
          "ticks": 4152,
          "time": 25.4411205,
          "value": -0.125
        },
        {
          "ticks": 4157,
          "time": 25.471757687500002,
          "value": -0.109375
        },
        {
          "ticks": 4161,
          "time": 25.4962674375,
          "value": -0.09375
        },
        {
          "ticks": 4166,
          "time": 25.526904625,
          "value": -0.078125
        },
        {
          "ticks": 4170,
          "time": 25.551414375,
          "value": -0.0625
        },
        {
          "ticks": 4175,
          "time": 25.582051562500002,
          "value": -0.046875
        },
        {
          "ticks": 4179,
          "time": 25.6065613125,
          "value": -0.03125
        },
        {
          "ticks": 4184,
          "time": 25.6371985,
          "value": -0.015625
        },
        {
          "ticks": 4188,
          "time": 25.66170825,
          "value": 0
        },
        {
          "ticks": 4224,
          "time": 25.882296,
          "value": 0
        },
        {
          "ticks": 4229,
          "time": 25.912933187500002,
          "value": 0.015625
        },
        {
          "ticks": 4233,
          "time": 25.9374429375,
          "value": 0.03125
        },
        {
          "ticks": 4238,
          "time": 25.968080125,
          "value": 0.046875
        },
        {
          "ticks": 4242,
          "time": 25.992589875,
          "value": 0.0625
        },
        {
          "ticks": 4247,
          "time": 26.023227062500002,
          "value": 0.078125
        },
        {
          "ticks": 4251,
          "time": 26.0477368125,
          "value": 0.09375
        },
        {
          "ticks": 4256,
          "time": 26.078374,
          "value": 0.109375
        },
        {
          "ticks": 4260,
          "time": 26.10288375,
          "value": 0.125
        },
        {
          "ticks": 4344,
          "time": 26.6175885,
          "value": -0.0625
        },
        {
          "ticks": 4350,
          "time": 26.654353125,
          "value": -0.046875
        },
        {
          "ticks": 4356,
          "time": 26.69111775,
          "value": -0.03125
        },
        {
          "ticks": 4362,
          "time": 26.727882375,
          "value": -0.015625
        },
        {
          "ticks": 4368,
          "time": 26.764647,
          "value": 0
        },
        {
          "ticks": 4920,
          "time": 30.1469925,
          "value": -0.078125
        },
        {
          "ticks": 4928,
          "time": 30.196012000000003,
          "value": -0.0625
        },
        {
          "ticks": 4935,
          "time": 30.2389040625,
          "value": -0.046875
        },
        {
          "ticks": 4942,
          "time": 30.281796125000003,
          "value": -0.03125
        },
        {
          "ticks": 4949,
          "time": 30.3246881875,
          "value": -0.015625
        },
        {
          "ticks": 4956,
          "time": 30.36758025,
          "value": 0
        },
        {
          "ticks": 5640,
          "time": 34.5587475,
          "value": 0
        },
        {
          "ticks": 6456,
          "time": 39.5587365,
          "value": -0.078125
        },
        {
          "ticks": 6464,
          "time": 39.607756,
          "value": -0.0625
        },
        {
          "ticks": 6471,
          "time": 39.650648062500004,
          "value": -0.046875
        },
        {
          "ticks": 6478,
          "time": 39.693540125,
          "value": -0.03125
        },
        {
          "ticks": 6485,
          "time": 39.7364321875,
          "value": -0.015625
        },
        {
          "ticks": 6492,
          "time": 39.77932425,
          "value": 0
        },
        {
          "ticks": 6840,
          "time": 41.9116725,
          "value": -0.125
        },
        {
          "ticks": 6845,
          "time": 41.9423096875,
          "value": -0.109375
        },
        {
          "ticks": 6849,
          "time": 41.96681943750001,
          "value": -0.09375
        },
        {
          "ticks": 6854,
          "time": 41.997456625000005,
          "value": -0.078125
        },
        {
          "ticks": 6858,
          "time": 42.021966375000005,
          "value": -0.0625
        },
        {
          "ticks": 6863,
          "time": 42.0526035625,
          "value": -0.046875
        },
        {
          "ticks": 6867,
          "time": 42.0771133125,
          "value": -0.03125
        },
        {
          "ticks": 6872,
          "time": 42.1077505,
          "value": -0.015625
        },
        {
          "ticks": 6876,
          "time": 42.13226025,
          "value": 0
        },
        {
          "ticks": 7224,
          "time": 44.26460850000001,
          "value": -0.125
        },
        {
          "ticks": 7229,
          "time": 44.2952456875,
          "value": -0.109375
        },
        {
          "ticks": 7233,
          "time": 44.31975543750001,
          "value": -0.09375
        },
        {
          "ticks": 7238,
          "time": 44.350392625000005,
          "value": -0.078125
        },
        {
          "ticks": 7242,
          "time": 44.374902375000005,
          "value": -0.0625
        },
        {
          "ticks": 7247,
          "time": 44.4055395625,
          "value": -0.046875
        },
        {
          "ticks": 7251,
          "time": 44.4300493125,
          "value": -0.03125
        },
        {
          "ticks": 7256,
          "time": 44.4606865,
          "value": -0.015625
        },
        {
          "ticks": 7260,
          "time": 44.48519625000001,
          "value": 0
        },
        {
          "ticks": 7296,
          "time": 44.70578400000001,
          "value": 0
        },
        {
          "ticks": 7301,
          "time": 44.7364211875,
          "value": 0.015625
        },
        {
          "ticks": 7305,
          "time": 44.76093093750001,
          "value": 0.03125
        },
        {
          "ticks": 7310,
          "time": 44.791568125000005,
          "value": 0.046875
        },
        {
          "ticks": 7314,
          "time": 44.816077875000005,
          "value": 0.0625
        },
        {
          "ticks": 7319,
          "time": 44.8467150625,
          "value": 0.078125
        },
        {
          "ticks": 7323,
          "time": 44.8712248125,
          "value": 0.09375
        },
        {
          "ticks": 7328,
          "time": 44.901862,
          "value": 0.109375
        },
        {
          "ticks": 7332,
          "time": 44.92637175000001,
          "value": 0.125
        },
        {
          "ticks": 7416,
          "time": 45.44107650000001,
          "value": -0.0625
        },
        {
          "ticks": 7422,
          "time": 45.477841125000005,
          "value": -0.046875
        },
        {
          "ticks": 7428,
          "time": 45.51460575000001,
          "value": -0.03125
        },
        {
          "ticks": 7434,
          "time": 45.551370375000005,
          "value": -0.015625
        },
        {
          "ticks": 7440,
          "time": 45.58813500000001,
          "value": 0
        },
        {
          "ticks": 7992,
          "time": 48.97048050000001,
          "value": -0.078125
        },
        {
          "ticks": 8000,
          "time": 49.0195,
          "value": -0.0625
        },
        {
          "ticks": 8007,
          "time": 49.0623920625,
          "value": -0.046875
        },
        {
          "ticks": 8014,
          "time": 49.105284125,
          "value": -0.03125
        },
        {
          "ticks": 8021,
          "time": 49.148176187500006,
          "value": -0.015625
        },
        {
          "ticks": 8028,
          "time": 49.19106825000001,
          "value": 0
        }
      ],
      "instrument": {
        "family": "synth lead",
        "number": 87,
        "name": "lead 8 (bass + lead)"
      },
      "name": "",
      "notes": [
        {
          "duration": 0.44117549999999994,
          "durationTicks": 72,
          "midi": 54,
          "name": "F#3",
          "ticks": 3000,
          "time": 18.3823125,
          "velocity": 1
        },
        {
          "duration": 0.9803899999999999,
          "durationTicks": 160,
          "midi": 66,
          "name": "F#4",
          "ticks": 3072,
          "time": 18.823488,
          "velocity": 1
        },
        {
          "duration": 0.24509749999999997,
          "durationTicks": 40,
          "midi": 61,
          "name": "C#4",
          "ticks": 3240,
          "time": 19.8528975,
          "velocity": 1
        },
        {
          "duration": 0.24509749999999997,
          "durationTicks": 40,
          "midi": 66,
          "name": "F#4",
          "ticks": 3288,
          "time": 20.1470145,
          "velocity": 1
        },
        {
          "duration": 0.24509749999999997,
          "durationTicks": 40,
          "midi": 68,
          "name": "G#4",
          "ticks": 3336,
          "time": 20.4411315,
          "velocity": 1
        },
        {
          "duration": 0.39215599999999995,
          "durationTicks": 64,
          "midi": 69,
          "name": "A4",
          "ticks": 3384,
          "time": 20.7352485,
          "velocity": 1
        },
        {
          "duration": 0.39215599999999995,
          "durationTicks": 64,
          "midi": 68,
          "name": "G#4",
          "ticks": 3456,
          "time": 21.176424,
          "velocity": 1
        },
        {
          "duration": 0.39215599999999995,
          "durationTicks": 64,
          "midi": 66,
          "name": "F#4",
          "ticks": 3528,
          "time": 21.6175995,
          "velocity": 1
        },
        {
          "duration": 0.6862730000000035,
          "durationTicks": 112,
          "midi": 64,
          "name": "E4",
          "ticks": 3600,
          "time": 22.058775,
          "velocity": 1
        },
        {
          "duration": 0.24509750000000352,
          "durationTicks": 40,
          "midi": 61,
          "name": "C#4",
          "ticks": 3720,
          "time": 22.7940675,
          "velocity": 1
        },
        {
          "duration": 0.3921560000000035,
          "durationTicks": 64,
          "midi": 66,
          "name": "F#4",
          "ticks": 3768,
          "time": 23.0881845,
          "velocity": 1
        },
        {
          "duration": 0.3921560000000035,
          "durationTicks": 64,
          "midi": 64,
          "name": "E4",
          "ticks": 3840,
          "time": 23.52936,
          "velocity": 1
        },
        {
          "duration": 0.5392145000000035,
          "durationTicks": 88,
          "midi": 66,
          "name": "F#4",
          "ticks": 3912,
          "time": 23.9705355,
          "velocity": 1
        },
        {
          "duration": 0.5392145000000035,
          "durationTicks": 88,
          "midi": 61,
          "name": "C#4",
          "ticks": 4008,
          "time": 24.5587695,
          "velocity": 1
        },
        {
          "duration": 0.24509750000000352,
          "durationTicks": 40,
          "midi": 59,
          "name": "B3",
          "ticks": 4104,
          "time": 25.1470035,
          "velocity": 1
        },
        {
          "duration": 0.3921560000000035,
          "durationTicks": 64,
          "midi": 64,
          "name": "E4",
          "ticks": 4152,
          "time": 25.4411205,
          "velocity": 1
        },
        {
          "duration": 0.6862730000000035,
          "durationTicks": 112,
          "midi": 59,
          "name": "B3",
          "ticks": 4224,
          "time": 25.882296,
          "velocity": 1
        },
        {
          "duration": 0.24509750000000352,
          "durationTicks": 40,
          "midi": 69,
          "name": "A4",
          "ticks": 4344,
          "time": 26.6175885,
          "velocity": 1
        },
        {
          "duration": 0.09803900000000354,
          "durationTicks": 16,
          "midi": 68,
          "name": "G#4",
          "ticks": 4392,
          "time": 26.9117055,
          "velocity": 1
        },
        {
          "duration": 0.24509750000000352,
          "durationTicks": 40,
          "midi": 64,
          "name": "E4",
          "ticks": 4416,
          "time": 27.058764,
          "velocity": 1
        },
        {
          "duration": 0.09803900000000354,
          "durationTicks": 16,
          "midi": 61,
          "name": "C#4",
          "ticks": 4464,
          "time": 27.352881,
          "velocity": 1
        },
        {
          "duration": 0.09803900000000354,
          "durationTicks": 16,
          "midi": 64,
          "name": "E4",
          "ticks": 4488,
          "time": 27.4999395,
          "velocity": 1
        },
        {
          "duration": 0.09803900000000354,
          "durationTicks": 16,
          "midi": 66,
          "name": "F#4",
          "ticks": 4512,
          "time": 27.646998,
          "velocity": 1
        },
        {
          "duration": 0.44117549999999994,
          "durationTicks": 72,
          "midi": 54,
          "name": "F#3",
          "ticks": 4536,
          "time": 27.7940565,
          "velocity": 1
        },
        {
          "duration": 0.9803900000000034,
          "durationTicks": 160,
          "midi": 66,
          "name": "F#4",
          "ticks": 4608,
          "time": 28.235232,
          "velocity": 1
        },
        {
          "duration": 0.24509750000000352,
          "durationTicks": 40,
          "midi": 61,
          "name": "C#4",
          "ticks": 4776,
          "time": 29.2646415,
          "velocity": 1
        },
        {
          "duration": 0.24509750000000352,
          "durationTicks": 40,
          "midi": 66,
          "name": "F#4",
          "ticks": 4824,
          "time": 29.5587585,
          "velocity": 1
        },
        {
          "duration": 0.24509750000000352,
          "durationTicks": 40,
          "midi": 68,
          "name": "G#4",
          "ticks": 4872,
          "time": 29.8528755,
          "velocity": 1
        },
        {
          "duration": 0.3921560000000035,
          "durationTicks": 64,
          "midi": 69,
          "name": "A4",
          "ticks": 4920,
          "time": 30.1469925,
          "velocity": 1
        },
        {
          "duration": 0.3921560000000035,
          "durationTicks": 64,
          "midi": 68,
          "name": "G#4",
          "ticks": 4992,
          "time": 30.588168,
          "velocity": 1
        },
        {
          "duration": 0.30024443750000174,
          "durationTicks": 49,
          "midi": 66,
          "name": "F#4",
          "ticks": 5064,
          "time": 31.0293435,
          "velocity": 1
        },
        {
          "duration": 0.6862730000000035,
          "durationTicks": 112,
          "midi": 64,
          "name": "E4",
          "ticks": 5136,
          "time": 31.470519,
          "velocity": 1
        },
        {
          "duration": 0.09803899999999999,
          "durationTicks": 16,
          "midi": 66,
          "name": "F#4",
          "ticks": 5256,
          "time": 32.2058115,
          "velocity": 1
        },
        {
          "duration": 0.09803899999999999,
          "durationTicks": 16,
          "midi": 68,
          "name": "G#4",
          "ticks": 5280,
          "time": 32.35287,
          "velocity": 1
        },
        {
          "duration": 0.09803899999999999,
          "durationTicks": 16,
          "midi": 69,
          "name": "A4",
          "ticks": 5304,
          "time": 32.4999285,
          "velocity": 1
        },
        {
          "duration": 0.09803899999999999,
          "durationTicks": 16,
          "midi": 68,
          "name": "G#4",
          "ticks": 5328,
          "time": 32.646987,
          "velocity": 1
        },
        {
          "duration": 0.09803899999999999,
          "durationTicks": 16,
          "midi": 66,
          "name": "F#4",
          "ticks": 5352,
          "time": 32.7940455,
          "velocity": 1
        },
        {
          "duration": 0.39215599999999995,
          "durationTicks": 64,
          "midi": 64,
          "name": "E4",
          "ticks": 5376,
          "time": 32.941104,
          "velocity": 1
        },
        {
          "duration": 0.09803899999999999,
          "durationTicks": 16,
          "midi": 66,
          "name": "F#4",
          "ticks": 5448,
          "time": 33.3822795,
          "velocity": 1
        },
        {
          "duration": 0.09803899999999999,
          "durationTicks": 16,
          "midi": 68,
          "name": "G#4",
          "ticks": 5472,
          "time": 33.529338,
          "velocity": 1
        },
        {
          "duration": 0.09803899999999999,
          "durationTicks": 16,
          "midi": 69,
          "name": "A4",
          "ticks": 5496,
          "time": 33.6763965,
          "velocity": 1
        },
        {
          "duration": 0.09803899999999999,
          "durationTicks": 16,
          "midi": 68,
          "name": "G#4",
          "ticks": 5520,
          "time": 33.823455,
          "velocity": 1
        },
        {
          "duration": 0.09803899999999999,
          "durationTicks": 16,
          "midi": 66,
          "name": "F#4",
          "ticks": 5544,
          "time": 33.9705135,
          "velocity": 1
        },
        {
          "duration": 0.39215599999999995,
          "durationTicks": 64,
          "midi": 64,
          "name": "E4",
          "ticks": 5568,
          "time": 34.117572,
          "velocity": 1
        },
        {
          "duration": 0.44117549999999994,
          "durationTicks": 72,
          "midi": 54,
          "name": "F#3",
          "ticks": 6072,
          "time": 37.2058005,
          "velocity": 1
        },
        {
          "duration": 0.9803899999999999,
          "durationTicks": 160,
          "midi": 66,
          "name": "F#4",
          "ticks": 6144,
          "time": 37.646976,
          "velocity": 1
        },
        {
          "duration": 0.24509749999999997,
          "durationTicks": 40,
          "midi": 61,
          "name": "C#4",
          "ticks": 6312,
          "time": 38.6763855,
          "velocity": 1
        },
        {
          "duration": 0.24509749999999997,
          "durationTicks": 40,
          "midi": 66,
          "name": "F#4",
          "ticks": 6360,
          "time": 38.9705025,
          "velocity": 1
        },
        {
          "duration": 0.24509749999999997,
          "durationTicks": 40,
          "midi": 68,
          "name": "G#4",
          "ticks": 6408,
          "time": 39.2646195,
          "velocity": 1
        },
        {
          "duration": 0.39215599999999995,
          "durationTicks": 64,
          "midi": 69,
          "name": "A4",
          "ticks": 6456,
          "time": 39.5587365,
          "velocity": 1
        },
        {
          "duration": 0.39215599999999995,
          "durationTicks": 64,
          "midi": 68,
          "name": "G#4",
          "ticks": 6528,
          "time": 39.999912,
          "velocity": 1
        },
        {
          "duration": 0.39215599999999995,
          "durationTicks": 64,
          "midi": 66,
          "name": "F#4",
          "ticks": 6600,
          "time": 40.4410875,
          "velocity": 1
        },
        {
          "duration": 0.6862729999999999,
          "durationTicks": 112,
          "midi": 64,
          "name": "E4",
          "ticks": 6672,
          "time": 40.882263,
          "velocity": 1
        },
        {
          "duration": 0.24509749999999997,
          "durationTicks": 40,
          "midi": 61,
          "name": "C#4",
          "ticks": 6792,
          "time": 41.6175555,
          "velocity": 1
        },
        {
          "duration": 0.39215599999999995,
          "durationTicks": 64,
          "midi": 66,
          "name": "F#4",
          "ticks": 6840,
          "time": 41.9116725,
          "velocity": 1
        },
        {
          "duration": 0.39215599999999995,
          "durationTicks": 64,
          "midi": 64,
          "name": "E4",
          "ticks": 6912,
          "time": 42.352848,
          "velocity": 1
        },
        {
          "duration": 0.5392144999999999,
          "durationTicks": 88,
          "midi": 66,
          "name": "F#4",
          "ticks": 6984,
          "time": 42.7940235,
          "velocity": 1
        },
        {
          "duration": 0.5392144999999999,
          "durationTicks": 88,
          "midi": 61,
          "name": "C#4",
          "ticks": 7080,
          "time": 43.3822575,
          "velocity": 1
        },
        {
          "duration": 0.24509749999999286,
          "durationTicks": 40,
          "midi": 59,
          "name": "B3",
          "ticks": 7176,
          "time": 43.97049150000001,
          "velocity": 1
        },
        {
          "duration": 0.39215599999999284,
          "durationTicks": 64,
          "midi": 64,
          "name": "E4",
          "ticks": 7224,
          "time": 44.26460850000001,
          "velocity": 1
        },
        {
          "duration": 0.6862729999999928,
          "durationTicks": 112,
          "midi": 59,
          "name": "B3",
          "ticks": 7296,
          "time": 44.70578400000001,
          "velocity": 1
        },
        {
          "duration": 0.24509749999999286,
          "durationTicks": 40,
          "midi": 69,
          "name": "A4",
          "ticks": 7416,
          "time": 45.44107650000001,
          "velocity": 1
        },
        {
          "duration": 0.09803899999999288,
          "durationTicks": 16,
          "midi": 68,
          "name": "G#4",
          "ticks": 7464,
          "time": 45.73519350000001,
          "velocity": 1
        },
        {
          "duration": 0.24509749999999286,
          "durationTicks": 40,
          "midi": 64,
          "name": "E4",
          "ticks": 7488,
          "time": 45.88225200000001,
          "velocity": 1
        },
        {
          "duration": 0.09803899999999288,
          "durationTicks": 16,
          "midi": 61,
          "name": "C#4",
          "ticks": 7536,
          "time": 46.17636900000001,
          "velocity": 1
        },
        {
          "duration": 0.09803899999999288,
          "durationTicks": 16,
          "midi": 64,
          "name": "E4",
          "ticks": 7560,
          "time": 46.32342750000001,
          "velocity": 1
        },
        {
          "duration": 0.09803899999999288,
          "durationTicks": 16,
          "midi": 66,
          "name": "F#4",
          "ticks": 7584,
          "time": 46.47048600000001,
          "velocity": 1
        },
        {
          "duration": 0.44117549999999994,
          "durationTicks": 72,
          "midi": 54,
          "name": "F#3",
          "ticks": 7608,
          "time": 46.61754450000001,
          "velocity": 1
        },
        {
          "duration": 0.9803899999999928,
          "durationTicks": 160,
          "midi": 66,
          "name": "F#4",
          "ticks": 7680,
          "time": 47.05872000000001,
          "velocity": 1
        },
        {
          "duration": 0.24509749999999286,
          "durationTicks": 40,
          "midi": 61,
          "name": "C#4",
          "ticks": 7848,
          "time": 48.08812950000001,
          "velocity": 1
        },
        {
          "duration": 0.24509749999999286,
          "durationTicks": 40,
          "midi": 66,
          "name": "F#4",
          "ticks": 7896,
          "time": 48.38224650000001,
          "velocity": 1
        },
        {
          "duration": 0.24509749999999286,
          "durationTicks": 40,
          "midi": 68,
          "name": "G#4",
          "ticks": 7944,
          "time": 48.67636350000001,
          "velocity": 1
        },
        {
          "duration": 0.39215599999999284,
          "durationTicks": 64,
          "midi": 69,
          "name": "A4",
          "ticks": 7992,
          "time": 48.97048050000001,
          "velocity": 1
        },
        {
          "duration": 0.39215599999999284,
          "durationTicks": 64,
          "midi": 68,
          "name": "G#4",
          "ticks": 8064,
          "time": 49.41165600000001,
          "velocity": 1
        },
        {
          "duration": 0.3002444374999911,
          "durationTicks": 49,
          "midi": 66,
          "name": "F#4",
          "ticks": 8136,
          "time": 49.85283150000001,
          "velocity": 1
        },
        {
          "duration": 0.6862729999999928,
          "durationTicks": 112,
          "midi": 64,
          "name": "E4",
          "ticks": 8208,
          "time": 50.29400700000001,
          "velocity": 1
        },
        {
          "duration": 0.09803899999999288,
          "durationTicks": 16,
          "midi": 66,
          "name": "F#4",
          "ticks": 8328,
          "time": 51.02929950000001,
          "velocity": 1
        },
        {
          "duration": 0.09803899999999288,
          "durationTicks": 16,
          "midi": 68,
          "name": "G#4",
          "ticks": 8352,
          "time": 51.17635800000001,
          "velocity": 1
        },
        {
          "duration": 0.09803899999999288,
          "durationTicks": 16,
          "midi": 69,
          "name": "A4",
          "ticks": 8376,
          "time": 51.32341650000001,
          "velocity": 1
        },
        {
          "duration": 0.09803899999999288,
          "durationTicks": 16,
          "midi": 68,
          "name": "G#4",
          "ticks": 8400,
          "time": 51.47047500000001,
          "velocity": 1
        },
        {
          "duration": 0.09803899999999288,
          "durationTicks": 16,
          "midi": 66,
          "name": "F#4",
          "ticks": 8424,
          "time": 51.61753350000001,
          "velocity": 1
        },
        {
          "duration": 0.39215599999999284,
          "durationTicks": 64,
          "midi": 64,
          "name": "E4",
          "ticks": 8448,
          "time": 51.76459200000001,
          "velocity": 1
        },
        {
          "duration": 0.09803899999999288,
          "durationTicks": 16,
          "midi": 66,
          "name": "F#4",
          "ticks": 8520,
          "time": 52.20576750000001,
          "velocity": 1
        },
        {
          "duration": 0.09803899999999288,
          "durationTicks": 16,
          "midi": 68,
          "name": "G#4",
          "ticks": 8544,
          "time": 52.35282600000001,
          "velocity": 1
        },
        {
          "duration": 0.09803899999999288,
          "durationTicks": 16,
          "midi": 69,
          "name": "A4",
          "ticks": 8568,
          "time": 52.49988450000001,
          "velocity": 1
        },
        {
          "duration": 0.09803899999999288,
          "durationTicks": 16,
          "midi": 68,
          "name": "G#4",
          "ticks": 8592,
          "time": 52.64694300000001,
          "velocity": 1
        },
        {
          "duration": 0.09803899999999288,
          "durationTicks": 16,
          "midi": 66,
          "name": "F#4",
          "ticks": 8616,
          "time": 52.79400150000001,
          "velocity": 1
        },
        {
          "duration": 0.39215599999999284,
          "durationTicks": 64,
          "midi": 64,
          "name": "E4",
          "ticks": 8640,
          "time": 52.94106000000001,
          "velocity": 1
        }
      ]
    },
    {
      "channel": 8,
      "controlChanges": {
        "0": [
          {
            "number": 0,
            "ticks": 6072,
            "time": 37.2058005,
            "value": 0
          }
        ],
        "1": [
          {
            "number": 1,
            "ticks": 5676,
            "time": 34.77933525,
            "value": 0.03937007874015748
          },
          {
            "number": 1,
            "ticks": 5688,
            "time": 34.8528645,
            "value": 0.07874015748031496
          },
          {
            "number": 1,
            "ticks": 5700,
            "time": 34.92639375,
            "value": 0.12598425196850394
          },
          {
            "number": 1,
            "ticks": 5712,
            "time": 34.999923,
            "value": 0.16535433070866143
          },
          {
            "number": 1,
            "ticks": 5724,
            "time": 35.07345225,
            "value": 0.2125984251968504
          },
          {
            "number": 1,
            "ticks": 5736,
            "time": 35.1469815,
            "value": 0.25196850393700787
          },
          {
            "number": 1,
            "ticks": 5748,
            "time": 35.22051075,
            "value": 0.2992125984251969
          },
          {
            "number": 1,
            "ticks": 5760,
            "time": 35.29404,
            "value": 0.33858267716535434
          },
          {
            "number": 1,
            "ticks": 5772,
            "time": 35.36756925,
            "value": 0.3858267716535433
          },
          {
            "number": 1,
            "ticks": 5784,
            "time": 35.4410985,
            "value": 0.4251968503937008
          },
          {
            "number": 1,
            "ticks": 5796,
            "time": 35.51462775,
            "value": 0.47244094488188976
          },
          {
            "number": 1,
            "ticks": 6072,
            "time": 37.2058005,
            "value": 0
          },
          {
            "number": 1,
            "ticks": 8712,
            "time": 53.38223550000001,
            "value": 0
          },
          {
            "number": 1,
            "ticks": 8724,
            "time": 53.45576475000001,
            "value": 0.031496062992125984
          },
          {
            "number": 1,
            "ticks": 8736,
            "time": 53.52929400000001,
            "value": 0.07086614173228346
          },
          {
            "number": 1,
            "ticks": 8748,
            "time": 53.60282325000001,
            "value": 0.11023622047244094
          },
          {
            "number": 1,
            "ticks": 8760,
            "time": 53.67635250000001,
            "value": 0.14960629921259844
          },
          {
            "number": 1,
            "ticks": 8772,
            "time": 53.74988175000001,
            "value": 0.1889763779527559
          },
          {
            "number": 1,
            "ticks": 8784,
            "time": 53.82341100000001,
            "value": 0.2204724409448819
          },
          {
            "number": 1,
            "ticks": 8796,
            "time": 53.89694025000001,
            "value": 0.25984251968503935
          },
          {
            "number": 1,
            "ticks": 8808,
            "time": 53.97046950000001,
            "value": 0.2992125984251969
          },
          {
            "number": 1,
            "ticks": 8820,
            "time": 54.04399875000001,
            "value": 0.33858267716535434
          },
          {
            "number": 1,
            "ticks": 8832,
            "time": 54.11752800000001,
            "value": 0.3779527559055118
          },
          {
            "number": 1,
            "ticks": 8844,
            "time": 54.19105725000001,
            "value": 0.41732283464566927
          },
          {
            "number": 1,
            "ticks": 8856,
            "time": 54.26458650000001,
            "value": 0.44881889763779526
          },
          {
            "number": 1,
            "ticks": 8868,
            "time": 54.33811575000001,
            "value": 0.4881889763779528
          },
          {
            "number": 1,
            "ticks": 8880,
            "time": 54.41164500000001,
            "value": 0.5275590551181102
          },
          {
            "number": 1,
            "ticks": 8892,
            "time": 54.48517425000001,
            "value": 0.5669291338582677
          },
          {
            "number": 1,
            "ticks": 8904,
            "time": 54.55870350000001,
            "value": 0.6062992125984252
          },
          {
            "number": 1,
            "ticks": 8916,
            "time": 54.63223275000001,
            "value": 0.6377952755905512
          },
          {
            "number": 1,
            "ticks": 8928,
            "time": 54.70576200000001,
            "value": 0.6771653543307087
          },
          {
            "number": 1,
            "ticks": 8940,
            "time": 54.77929125000001,
            "value": 0.7165354330708661
          },
          {
            "number": 1,
            "ticks": 8952,
            "time": 54.85282050000001,
            "value": 0.9448818897637795
          }
        ],
        "6": [
          {
            "number": 6,
            "ticks": 6072,
            "time": 37.2058005,
            "value": 0.5039370078740157
          },
          {
            "number": 6,
            "ticks": 6072,
            "time": 37.2058005,
            "value": 0.7086614173228346
          }
        ],
        "7": [
          {
            "number": 7,
            "ticks": 5780,
            "time": 35.41658875,
            "value": 0.15748031496062992
          },
          {
            "number": 7,
            "ticks": 5786,
            "time": 35.453353375,
            "value": 0.4251968503937008
          },
          {
            "number": 7,
            "ticks": 5792,
            "time": 35.490118,
            "value": 0.5433070866141733
          },
          {
            "number": 7,
            "ticks": 5798,
            "time": 35.526882625,
            "value": 0.6299212598425197
          },
          {
            "number": 7,
            "ticks": 5804,
            "time": 35.56364725,
            "value": 0.7165354330708661
          },
          {
            "number": 7,
            "ticks": 5810,
            "time": 35.600411875,
            "value": 0.7244094488188977
          },
          {
            "number": 7,
            "ticks": 5816,
            "time": 35.6371765,
            "value": 0.7322834645669292
          },
          {
            "number": 7,
            "ticks": 5822,
            "time": 35.673941125,
            "value": 0.7480314960629921
          },
          {
            "number": 7,
            "ticks": 5828,
            "time": 35.71070575,
            "value": 0.7559055118110236
          },
          {
            "number": 7,
            "ticks": 5834,
            "time": 35.747470375,
            "value": 0.7637795275590551
          },
          {
            "number": 7,
            "ticks": 5840,
            "time": 35.784235,
            "value": 0.7716535433070866
          },
          {
            "number": 7,
            "ticks": 5846,
            "time": 35.820999625,
            "value": 0.7874015748031497
          },
          {
            "number": 7,
            "ticks": 5852,
            "time": 35.85776425,
            "value": 0.7952755905511811
          },
          {
            "number": 7,
            "ticks": 5858,
            "time": 35.894528875,
            "value": 0.8031496062992126
          },
          {
            "number": 7,
            "ticks": 5864,
            "time": 35.9312935,
            "value": 0.8110236220472441
          },
          {
            "number": 7,
            "ticks": 5870,
            "time": 35.968058125,
            "value": 0.8267716535433071
          },
          {
            "number": 7,
            "ticks": 5876,
            "time": 36.00482275,
            "value": 0.8346456692913385
          },
          {
            "number": 7,
            "ticks": 5880,
            "time": 36.0293325,
            "value": 0.84251968503937
          },
          {
            "number": 7,
            "ticks": 6072,
            "time": 37.2058005,
            "value": 0.15748031496062992
          },
          {
            "number": 7,
            "ticks": 8784,
            "time": 53.82341100000001,
            "value": 0.15748031496062992
          },
          {
            "number": 7,
            "ticks": 8790,
            "time": 53.860175625000004,
            "value": 0.33070866141732286
          },
          {
            "number": 7,
            "ticks": 8796,
            "time": 53.89694025000001,
            "value": 0.5118110236220472
          },
          {
            "number": 7,
            "ticks": 8802,
            "time": 53.933704875000004,
            "value": 0.6929133858267716
          },
          {
            "number": 7,
            "ticks": 8808,
            "time": 53.97046950000001,
            "value": 0.84251968503937
          },
          {
            "number": 7,
            "ticks": 8820,
            "time": 54.04399875000001,
            "value": 1
          },
          {
            "number": 7,
            "ticks": 9960,
            "time": 61.029277500000006,
            "value": 1
          },
          {
            "number": 7,
            "ticks": 10008,
            "time": 61.323394500000006,
            "value": 0.937007874015748
          },
          {
            "number": 7,
            "ticks": 10056,
            "time": 61.617511500000006,
            "value": 0.8740157480314961
          },
          {
            "number": 7,
            "ticks": 10104,
            "time": 61.911628500000006,
            "value": 0.8110236220472441
          },
          {
            "number": 7,
            "ticks": 10152,
            "time": 62.205745500000006,
            "value": 0.7480314960629921
          },
          {
            "number": 7,
            "ticks": 10200,
            "time": 62.499862500000006,
            "value": 0.6850393700787402
          },
          {
            "number": 7,
            "ticks": 10248,
            "time": 62.793979500000006,
            "value": 0.6220472440944882
          },
          {
            "number": 7,
            "ticks": 10296,
            "time": 63.088096500000006,
            "value": 0.5590551181102362
          },
          {
            "number": 7,
            "ticks": 10344,
            "time": 63.382213500000006,
            "value": 0.49606299212598426
          },
          {
            "number": 7,
            "ticks": 10392,
            "time": 63.676330500000006,
            "value": 0.4330708661417323
          },
          {
            "number": 7,
            "ticks": 10440,
            "time": 63.970447500000006,
            "value": 0.3700787401574803
          },
          {
            "number": 7,
            "ticks": 10488,
            "time": 64.2645645,
            "value": 0.30708661417322836
          },
          {
            "number": 7,
            "ticks": 10536,
            "time": 64.5586815,
            "value": 0.2440944881889764
          },
          {
            "number": 7,
            "ticks": 10584,
            "time": 64.8527985,
            "value": 0.18110236220472442
          },
          {
            "number": 7,
            "ticks": 10632,
            "time": 65.1469155,
            "value": 0.11811023622047244
          },
          {
            "number": 7,
            "ticks": 10680,
            "time": 65.4410325,
            "value": 0.05511811023622047
          }
        ],
        "11": [
          {
            "number": 11,
            "ticks": 9144,
            "time": 56.02928850000001,
            "value": 1
          },
          {
            "number": 11,
            "ticks": 9150,
            "time": 56.066053125,
            "value": 0.9921259842519685
          },
          {
            "number": 11,
            "ticks": 9156,
            "time": 56.10281775000001,
            "value": 0.984251968503937
          },
          {
            "number": 11,
            "ticks": 9162,
            "time": 56.139582375,
            "value": 0.9763779527559056
          },
          {
            "number": 11,
            "ticks": 9168,
            "time": 56.17634700000001,
            "value": 0.9606299212598425
          },
          {
            "number": 11,
            "ticks": 9174,
            "time": 56.213111625,
            "value": 0.952755905511811
          },
          {
            "number": 11,
            "ticks": 9180,
            "time": 56.24987625000001,
            "value": 0.9448818897637795
          },
          {
            "number": 11,
            "ticks": 9186,
            "time": 56.286640875,
            "value": 0.9291338582677166
          },
          {
            "number": 11,
            "ticks": 9192,
            "time": 56.32340550000001,
            "value": 0.9212598425196851
          },
          {
            "number": 11,
            "ticks": 9198,
            "time": 56.360170125,
            "value": 0.9133858267716536
          },
          {
            "number": 11,
            "ticks": 9204,
            "time": 56.39693475000001,
            "value": 0.8976377952755905
          },
          {
            "number": 11,
            "ticks": 9210,
            "time": 56.433699375,
            "value": 0.889763779527559
          },
          {
            "number": 11,
            "ticks": 9216,
            "time": 56.47046400000001,
            "value": 0.8818897637795275
          },
          {
            "number": 11,
            "ticks": 9222,
            "time": 56.507228625,
            "value": 0.8661417322834646
          },
          {
            "number": 11,
            "ticks": 9228,
            "time": 56.54399325000001,
            "value": 0.8582677165354331
          },
          {
            "number": 11,
            "ticks": 9234,
            "time": 56.580757875,
            "value": 0.8503937007874016
          },
          {
            "number": 11,
            "ticks": 9240,
            "time": 56.61752250000001,
            "value": 0.8346456692913385
          },
          {
            "number": 11,
            "ticks": 9246,
            "time": 56.654287125,
            "value": 0.8267716535433071
          },
          {
            "number": 11,
            "ticks": 9252,
            "time": 56.69105175000001,
            "value": 0.8188976377952756
          },
          {
            "number": 11,
            "ticks": 9258,
            "time": 56.727816375,
            "value": 0.8031496062992126
          },
          {
            "number": 11,
            "ticks": 9264,
            "time": 56.76458100000001,
            "value": 0.7952755905511811
          },
          {
            "number": 11,
            "ticks": 9270,
            "time": 56.801345625,
            "value": 0.7874015748031497
          },
          {
            "number": 11,
            "ticks": 9276,
            "time": 56.83811025000001,
            "value": 0.7716535433070866
          },
          {
            "number": 11,
            "ticks": 9282,
            "time": 56.874874875,
            "value": 0.7637795275590551
          },
          {
            "number": 11,
            "ticks": 9288,
            "time": 56.91163950000001,
            "value": 0.7559055118110236
          },
          {
            "number": 11,
            "ticks": 9294,
            "time": 56.948404125,
            "value": 0.7401574803149606
          },
          {
            "number": 11,
            "ticks": 9300,
            "time": 56.98516875000001,
            "value": 0.7322834645669292
          },
          {
            "number": 11,
            "ticks": 9306,
            "time": 57.021933375,
            "value": 0.7244094488188977
          },
          {
            "number": 11,
            "ticks": 9312,
            "time": 57.05869800000001,
            "value": 0.7086614173228346
          },
          {
            "number": 11,
            "ticks": 9318,
            "time": 57.095462625,
            "value": 0.7007874015748031
          },
          {
            "number": 11,
            "ticks": 9324,
            "time": 57.13222725000001,
            "value": 0.6929133858267716
          },
          {
            "number": 11,
            "ticks": 9330,
            "time": 57.168991875,
            "value": 0.6771653543307087
          },
          {
            "number": 11,
            "ticks": 9336,
            "time": 57.20575650000001,
            "value": 0.6692913385826772
          },
          {
            "number": 11,
            "ticks": 9342,
            "time": 57.242521125,
            "value": 0.6614173228346457
          },
          {
            "number": 11,
            "ticks": 9348,
            "time": 57.27928575000001,
            "value": 0.6456692913385826
          },
          {
            "number": 11,
            "ticks": 9354,
            "time": 57.316050375,
            "value": 0.6377952755905512
          },
          {
            "number": 11,
            "ticks": 9360,
            "time": 57.35281500000001,
            "value": 0.6299212598425197
          },
          {
            "number": 11,
            "ticks": 9366,
            "time": 57.389579625,
            "value": 0.6141732283464567
          },
          {
            "number": 11,
            "ticks": 9372,
            "time": 57.42634425000001,
            "value": 0.6062992125984252
          },
          {
            "number": 11,
            "ticks": 9378,
            "time": 57.463108875,
            "value": 0.5984251968503937
          },
          {
            "number": 11,
            "ticks": 9384,
            "time": 57.49987350000001,
            "value": 0.5826771653543307
          },
          {
            "number": 11,
            "ticks": 9390,
            "time": 57.536638125,
            "value": 0.5748031496062992
          },
          {
            "number": 11,
            "ticks": 9396,
            "time": 57.57340275000001,
            "value": 0.5669291338582677
          },
          {
            "number": 11,
            "ticks": 9402,
            "time": 57.610167375,
            "value": 0.5590551181102362
          },
          {
            "number": 11,
            "ticks": 9408,
            "time": 57.64693200000001,
            "value": 0.5433070866141733
          },
          {
            "number": 11,
            "ticks": 9414,
            "time": 57.683696625,
            "value": 0.5354330708661418
          },
          {
            "number": 11,
            "ticks": 9420,
            "time": 57.72046125000001,
            "value": 0.5275590551181102
          },
          {
            "number": 11,
            "ticks": 9426,
            "time": 57.757225875,
            "value": 0.5118110236220472
          },
          {
            "number": 11,
            "ticks": 9432,
            "time": 57.79399050000001,
            "value": 0.5039370078740157
          },
          {
            "number": 11,
            "ticks": 9438,
            "time": 57.830755125,
            "value": 0.49606299212598426
          },
          {
            "number": 11,
            "ticks": 9444,
            "time": 57.86751975000001,
            "value": 0.48031496062992124
          },
          {
            "number": 11,
            "ticks": 9450,
            "time": 57.904284375,
            "value": 0.47244094488188976
          },
          {
            "number": 11,
            "ticks": 9456,
            "time": 57.94104900000001,
            "value": 0.4645669291338583
          },
          {
            "number": 11,
            "ticks": 9462,
            "time": 57.977813625,
            "value": 0.44881889763779526
          },
          {
            "number": 11,
            "ticks": 9468,
            "time": 58.01457825000001,
            "value": 0.4409448818897638
          },
          {
            "number": 11,
            "ticks": 9474,
            "time": 58.051342875,
            "value": 0.4330708661417323
          },
          {
            "number": 11,
            "ticks": 9480,
            "time": 58.08810750000001,
            "value": 0.41732283464566927
          },
          {
            "number": 11,
            "ticks": 9486,
            "time": 58.124872125,
            "value": 0.4094488188976378
          },
          {
            "number": 11,
            "ticks": 9492,
            "time": 58.16163675000001,
            "value": 0.4015748031496063
          },
          {
            "number": 11,
            "ticks": 9498,
            "time": 58.198401375,
            "value": 0.3858267716535433
          },
          {
            "number": 11,
            "ticks": 9504,
            "time": 58.23516600000001,
            "value": 0.3779527559055118
          },
          {
            "number": 11,
            "ticks": 9510,
            "time": 58.271930625,
            "value": 0.3700787401574803
          },
          {
            "number": 11,
            "ticks": 9516,
            "time": 58.30869525000001,
            "value": 0.3543307086614173
          },
          {
            "number": 11,
            "ticks": 9522,
            "time": 58.345459875,
            "value": 0.3464566929133858
          },
          {
            "number": 11,
            "ticks": 9528,
            "time": 58.38222450000001,
            "value": 0.33858267716535434
          },
          {
            "number": 11,
            "ticks": 9534,
            "time": 58.418989125,
            "value": 0.3228346456692913
          },
          {
            "number": 11,
            "ticks": 9540,
            "time": 58.45575375000001,
            "value": 0.31496062992125984
          },
          {
            "number": 11,
            "ticks": 9546,
            "time": 58.492518375,
            "value": 0.30708661417322836
          },
          {
            "number": 11,
            "ticks": 9552,
            "time": 58.52928300000001,
            "value": 0.29133858267716534
          },
          {
            "number": 11,
            "ticks": 9558,
            "time": 58.566047625,
            "value": 0.28346456692913385
          },
          {
            "number": 11,
            "ticks": 9564,
            "time": 58.60281225000001,
            "value": 0.2755905511811024
          },
          {
            "number": 11,
            "ticks": 9570,
            "time": 58.639576875,
            "value": 0.25984251968503935
          },
          {
            "number": 11,
            "ticks": 9576,
            "time": 58.67634150000001,
            "value": 0.25196850393700787
          },
          {
            "number": 11,
            "ticks": 9582,
            "time": 58.713106125,
            "value": 0.2440944881889764
          },
          {
            "number": 11,
            "ticks": 9588,
            "time": 58.74987075000001,
            "value": 0.2283464566929134
          },
          {
            "number": 11,
            "ticks": 9594,
            "time": 58.786635375,
            "value": 0.2204724409448819
          },
          {
            "number": 11,
            "ticks": 9600,
            "time": 58.82340000000001,
            "value": 0.2125984251968504
          },
          {
            "number": 11,
            "ticks": 9606,
            "time": 58.860164625,
            "value": 0.1968503937007874
          },
          {
            "number": 11,
            "ticks": 9612,
            "time": 58.89692925000001,
            "value": 0.1889763779527559
          },
          {
            "number": 11,
            "ticks": 9618,
            "time": 58.933693875,
            "value": 0.18110236220472442
          },
          {
            "number": 11,
            "ticks": 9624,
            "time": 58.97045850000001,
            "value": 0.16535433070866143
          },
          {
            "number": 11,
            "ticks": 9630,
            "time": 59.007223125,
            "value": 0.15748031496062992
          },
          {
            "number": 11,
            "ticks": 9636,
            "time": 59.04398775000001,
            "value": 0.14960629921259844
          },
          {
            "number": 11,
            "ticks": 9642,
            "time": 59.080752375,
            "value": 0.14173228346456693
          },
          {
            "number": 11,
            "ticks": 9648,
            "time": 59.11751700000001,
            "value": 0.12598425196850394
          },
          {
            "number": 11,
            "ticks": 9654,
            "time": 59.154281625,
            "value": 0.11811023622047244
          },
          {
            "number": 11,
            "ticks": 9660,
            "time": 59.19104625000001,
            "value": 0.11023622047244094
          },
          {
            "number": 11,
            "ticks": 9666,
            "time": 59.227810875,
            "value": 0.09448818897637795
          },
          {
            "number": 11,
            "ticks": 9672,
            "time": 59.26457550000001,
            "value": 0.08661417322834646
          },
          {
            "number": 11,
            "ticks": 9678,
            "time": 59.301340125,
            "value": 0.07874015748031496
          },
          {
            "number": 11,
            "ticks": 9684,
            "time": 59.33810475000001,
            "value": 0.06299212598425197
          },
          {
            "number": 11,
            "ticks": 9690,
            "time": 59.374869375,
            "value": 0.05511811023622047
          },
          {
            "number": 11,
            "ticks": 9696,
            "time": 59.41163400000001,
            "value": 0.047244094488188976
          },
          {
            "number": 11,
            "ticks": 9702,
            "time": 59.448398625,
            "value": 0.031496062992125984
          },
          {
            "number": 11,
            "ticks": 9708,
            "time": 59.48516325000001,
            "value": 0.023622047244094488
          },
          {
            "number": 11,
            "ticks": 9714,
            "time": 59.521927875,
            "value": 0.015748031496062992
          },
          {
            "number": 11,
            "ticks": 9720,
            "time": 59.55869250000001,
            "value": 0
          }
        ],
        "32": [
          {
            "number": 32,
            "ticks": 6072,
            "time": 37.2058005,
            "value": 0.007874015748031496
          }
        ],
        "93": [
          {
            "number": 93,
            "ticks": 9144,
            "time": 56.02928850000001,
            "value": 0.7874015748031497
          }
        ],
        "94": [
          {
            "number": 94,
            "ticks": 9336,
            "time": 57.20575650000001,
            "value": 0.7874015748031497
          }
        ],
        "98": [
          {
            "number": 98,
            "ticks": 6072,
            "time": 37.2058005,
            "value": 0.7874015748031497
          },
          {
            "number": 98,
            "ticks": 6072,
            "time": 37.2058005,
            "value": 0.25196850393700787
          }
        ],
        "99": [
          {
            "number": 99,
            "ticks": 6072,
            "time": 37.2058005,
            "value": 0.007874015748031496
          },
          {
            "number": 99,
            "ticks": 6072,
            "time": 37.2058005,
            "value": 0.007874015748031496
          }
        ]
      },
      "pitchBends": [
        {
          "ticks": 5682,
          "time": 34.816099875,
          "value": -0.015625
        },
        {
          "ticks": 5688,
          "time": 34.8528645,
          "value": -0.03125
        },
        {
          "ticks": 5694,
          "time": 34.889629125,
          "value": -0.046875
        },
        {
          "ticks": 5700,
          "time": 34.92639375,
          "value": -0.0625
        },
        {
          "ticks": 5706,
          "time": 34.963158375,
          "value": -0.078125
        },
        {
          "ticks": 5712,
          "time": 34.999923,
          "value": -0.09375
        },
        {
          "ticks": 5718,
          "time": 35.036687625,
          "value": -0.109375
        },
        {
          "ticks": 5723,
          "time": 35.067324812500004,
          "value": -0.125
        },
        {
          "ticks": 5754,
          "time": 35.257275375,
          "value": -0.125
        },
        {
          "ticks": 5760,
          "time": 35.29404,
          "value": -0.109375
        },
        {
          "ticks": 5765,
          "time": 35.3246771875,
          "value": -0.09375
        },
        {
          "ticks": 5770,
          "time": 35.355314375000006,
          "value": -0.078125
        },
        {
          "ticks": 5775,
          "time": 35.3859515625,
          "value": -0.0625
        },
        {
          "ticks": 5780,
          "time": 35.41658875,
          "value": -0.046875
        },
        {
          "ticks": 5785,
          "time": 35.4472259375,
          "value": -0.03125
        },
        {
          "ticks": 5790,
          "time": 35.477863125,
          "value": -0.015625
        },
        {
          "ticks": 5795,
          "time": 35.508500312500004,
          "value": 0
        },
        {
          "ticks": 5796,
          "time": 35.51462775,
          "value": 0
        },
        {
          "ticks": 8712,
          "time": 53.38223550000001,
          "value": 0
        },
        {
          "ticks": 8724,
          "time": 53.45576475000001,
          "value": 0.015625
        },
        {
          "ticks": 8736,
          "time": 53.52929400000001,
          "value": 0.03125
        },
        {
          "ticks": 8748,
          "time": 53.60282325000001,
          "value": 0.046875
        },
        {
          "ticks": 8760,
          "time": 53.67635250000001,
          "value": 0.0625
        },
        {
          "ticks": 8772,
          "time": 53.74988175000001,
          "value": 0.078125
        },
        {
          "ticks": 8784,
          "time": 53.82341100000001,
          "value": 0.09375
        },
        {
          "ticks": 8796,
          "time": 53.89694025000001,
          "value": 0.109375
        },
        {
          "ticks": 8807,
          "time": 53.9643420625,
          "value": 0.125
        }
      ],
      "instrument": {
        "family": "synth lead",
        "number": 80,
        "name": "lead 1 (square)"
      },
      "name": "",
      "notes": [
        {
          "duration": 2.5980334999999997,
          "durationTicks": 424,
          "midi": 66,
          "name": "F#4",
          "ticks": 5640,
          "time": 34.5587475,
          "velocity": 1
        },
        {
          "duration": 6.470573999999999,
          "durationTicks": 1056,
          "midi": 69,
          "name": "A4",
          "ticks": 8712,
          "time": 53.38223550000001,
          "velocity": 1
        }
      ]
    },
    {
      "channel": 0,
      "controlChanges": {
        "0": [
          {
            "number": 0,
            "ticks": 239,
            "time": 1.4644575625000003,
            "value": 0
          }
        ],
        "1": [
          {
            "number": 1,
            "ticks": 235,
            "time": 1.4399478125,
            "value": 0
          }
        ],
        "5": [
          {
            "number": 5,
            "ticks": 238,
            "time": 1.458330125,
            "value": 0
          }
        ],
        "6": [
          {
            "number": 6,
            "ticks": 226,
            "time": 1.384800875,
            "value": 0.12598425196850394
          },
          {
            "number": 6,
            "ticks": 228,
            "time": 1.39705575,
            "value": 0.4645669291338583
          }
        ],
        "7": [
          {
            "number": 7,
            "ticks": 232,
            "time": 1.4215655,
            "value": 0.5511811023622047
          }
        ],
        "10": [
          {
            "number": 10,
            "ticks": 234,
            "time": 1.433820375,
            "value": 0.25196850393700787
          }
        ],
        "11": [
          {
            "number": 11,
            "ticks": 233,
            "time": 1.4276929375000003,
            "value": 0.7874015748031497
          }
        ],
        "32": [
          {
            "number": 32,
            "ticks": 240,
            "time": 1.470585,
            "value": 0.015748031496062992
          }
        ],
        "64": [
          {
            "number": 64,
            "ticks": 236,
            "time": 1.4460752500000003,
            "value": 0
          }
        ],
        "65": [
          {
            "number": 65,
            "ticks": 237,
            "time": 1.4522026875,
            "value": 0
          }
        ],
        "91": [
          {
            "number": 91,
            "ticks": 220,
            "time": 1.34803625,
            "value": 0.1889763779527559
          }
        ],
        "93": [
          {
            "number": 93,
            "ticks": 221,
            "time": 1.3541636875000003,
            "value": 0.09448818897637795
          }
        ],
        "94": [
          {
            "number": 94,
            "ticks": 222,
            "time": 1.360291125,
            "value": 0.15748031496062992
          }
        ],
        "100": [
          {
            "number": 100,
            "ticks": 224,
            "time": 1.3725460000000003,
            "value": 0
          },
          {
            "number": 100,
            "ticks": 228,
            "time": 1.39705575,
            "value": 0.007874015748031496
          }
        ],
        "101": [
          {
            "number": 101,
            "ticks": 225,
            "time": 1.3786734375,
            "value": 0
          },
          {
            "number": 101,
            "ticks": 228,
            "time": 1.39705575,
            "value": 0
          }
        ]
      },
      "pitchBends": [
        {
          "ticks": 227,
          "time": 1.3909283125000003,
          "value": 0
        }
      ],
      "instrument": {
        "family": "piano",
        "number": 0,
        "name": "acoustic grand piano"
      },
      "name": "BASE2+\u0000",
      "notes": [],
      "endOfTrackTicks": 9912
    },
    {
      "channel": 10,
      "controlChanges": {
        "6": [
          {
            "number": 6,
            "ticks": 242,
            "time": 1.4828398750000003,
            "value": 1
          },
          {
            "number": 6,
            "ticks": 243,
            "time": 1.4889673125,
            "value": 0.6299212598425197
          },
          {
            "number": 6,
            "ticks": 244,
            "time": 1.49509475,
            "value": 0.5275590551181102
          },
          {
            "number": 6,
            "ticks": 245,
            "time": 1.5012221875000002,
            "value": 1
          },
          {
            "number": 6,
            "ticks": 246,
            "time": 1.507349625,
            "value": 0.5039370078740157
          }
        ],
        "7": [
          {
            "number": 7,
            "ticks": 9192,
            "time": 56.32340550000001,
            "value": 0.5511811023622047
          },
          {
            "number": 7,
            "ticks": 9240,
            "time": 56.61752250000001,
            "value": 0.5118110236220472
          },
          {
            "number": 7,
            "ticks": 9288,
            "time": 56.91163950000001,
            "value": 0.48031496062992124
          },
          {
            "number": 7,
            "ticks": 9336,
            "time": 57.20575650000001,
            "value": 0.4409448818897638
          },
          {
            "number": 7,
            "ticks": 9384,
            "time": 57.49987350000001,
            "value": 0.4094488188976378
          },
          {
            "number": 7,
            "ticks": 9432,
            "time": 57.79399050000001,
            "value": 0.3779527559055118
          },
          {
            "number": 7,
            "ticks": 9480,
            "time": 58.08810750000001,
            "value": 0.33858267716535434
          },
          {
            "number": 7,
            "ticks": 9528,
            "time": 58.38222450000001,
            "value": 0.30708661417322836
          },
          {
            "number": 7,
            "ticks": 9576,
            "time": 58.67634150000001,
            "value": 0.2755905511811024
          },
          {
            "number": 7,
            "ticks": 9624,
            "time": 58.97045850000001,
            "value": 0.23622047244094488
          },
          {
            "number": 7,
            "ticks": 9672,
            "time": 59.26457550000001,
            "value": 0.2047244094488189
          },
          {
            "number": 7,
            "ticks": 9720,
            "time": 59.55869250000001,
            "value": 0.16535433070866143
          },
          {
            "number": 7,
            "ticks": 9768,
            "time": 59.852809500000006,
            "value": 0.13385826771653545
          },
          {
            "number": 7,
            "ticks": 9816,
            "time": 60.146926500000006,
            "value": 0.10236220472440945
          },
          {
            "number": 7,
            "ticks": 9864,
            "time": 60.441043500000006,
            "value": 0.06299212598425197
          },
          {
            "number": 7,
            "ticks": 9912,
            "time": 60.735160500000006,
            "value": 0.031496062992125984
          }
        ],
        "98": [
          {
            "number": 98,
            "ticks": 242,
            "time": 1.4828398750000003,
            "value": 0.25196850393700787
          },
          {
            "number": 98,
            "ticks": 243,
            "time": 1.4889673125,
            "value": 0.25984251968503935
          },
          {
            "number": 98,
            "ticks": 244,
            "time": 1.49509475,
            "value": 0.7795275590551181
          },
          {
            "number": 98,
            "ticks": 245,
            "time": 1.5012221875000002,
            "value": 0.7874015748031497
          },
          {
            "number": 98,
            "ticks": 246,
            "time": 1.507349625,
            "value": 0.8031496062992126
          }
        ],
        "99": [
          {
            "number": 99,
            "ticks": 242,
            "time": 1.4828398750000003,
            "value": 0.007874015748031496
          },
          {
            "number": 99,
            "ticks": 243,
            "time": 1.4889673125,
            "value": 0.007874015748031496
          },
          {
            "number": 99,
            "ticks": 244,
            "time": 1.49509475,
            "value": 0.007874015748031496
          },
          {
            "number": 99,
            "ticks": 245,
            "time": 1.5012221875000002,
            "value": 0.007874015748031496
          },
          {
            "number": 99,
            "ticks": 246,
            "time": 1.507349625,
            "value": 0.007874015748031496
          }
        ]
      },
      "pitchBends": [],
      "instrument": {
        "family": "bass",
        "number": 35,
        "name": "fretless bass"
      },
      "name": "",
      "notes": [
        {
          "duration": 4.068618500000001,
          "durationTicks": 664,
          "midi": 42,
          "name": "F#2",
          "ticks": 312,
          "time": 1.9117605000000002,
          "velocity": 1
        },
        {
          "duration": 4.0686184999999995,
          "durationTicks": 664,
          "midi": 42,
          "name": "F#2",
          "ticks": 984,
          "time": 6.029398500000001,
          "velocity": 1
        },
        {
          "duration": 4.0686184999999995,
          "durationTicks": 664,
          "midi": 42,
          "name": "F#2",
          "ticks": 1656,
          "time": 10.1470365,
          "velocity": 1
        },
        {
          "duration": 4.0686184999999995,
          "durationTicks": 664,
          "midi": 42,
          "name": "F#2",
          "ticks": 2328,
          "time": 14.264674500000002,
          "velocity": 1
        },
        {
          "duration": 2.3039164999999997,
          "durationTicks": 376,
          "midi": 38,
          "name": "D2",
          "ticks": 3000,
          "time": 18.3823125,
          "velocity": 1
        },
        {
          "duration": 2.3039165000000033,
          "durationTicks": 376,
          "midi": 40,
          "name": "E2",
          "ticks": 3384,
          "time": 20.7352485,
          "velocity": 1
        },
        {
          "duration": 2.3039165000000033,
          "durationTicks": 376,
          "midi": 38,
          "name": "D2",
          "ticks": 3768,
          "time": 23.0881845,
          "velocity": 1
        },
        {
          "duration": 2.3039165000000033,
          "durationTicks": 376,
          "midi": 40,
          "name": "E2",
          "ticks": 4152,
          "time": 25.4411205,
          "velocity": 1
        },
        {
          "duration": 2.3039165000000033,
          "durationTicks": 376,
          "midi": 38,
          "name": "D2",
          "ticks": 4536,
          "time": 27.7940565,
          "velocity": 1
        },
        {
          "duration": 2.3039165000000033,
          "durationTicks": 376,
          "midi": 40,
          "name": "E2",
          "ticks": 4920,
          "time": 30.1469925,
          "velocity": 1
        },
        {
          "duration": 1.1274484999999999,
          "durationTicks": 184,
          "midi": 38,
          "name": "D2",
          "ticks": 5304,
          "time": 32.4999285,
          "velocity": 1
        },
        {
          "duration": 1.1274484999999999,
          "durationTicks": 184,
          "midi": 40,
          "name": "E2",
          "ticks": 5496,
          "time": 33.6763965,
          "velocity": 1
        },
        {
          "duration": 2.3039164999999997,
          "durationTicks": 376,
          "midi": 35,
          "name": "B1",
          "ticks": 5688,
          "time": 34.8528645,
          "velocity": 1
        },
        {
          "duration": 2.3039164999999997,
          "durationTicks": 376,
          "midi": 38,
          "name": "D2",
          "ticks": 6072,
          "time": 37.2058005,
          "velocity": 1
        },
        {
          "duration": 2.3039164999999997,
          "durationTicks": 376,
          "midi": 40,
          "name": "E2",
          "ticks": 6456,
          "time": 39.5587365,
          "velocity": 1
        },
        {
          "duration": 2.3039164999999997,
          "durationTicks": 376,
          "midi": 38,
          "name": "D2",
          "ticks": 6840,
          "time": 41.9116725,
          "velocity": 1
        },
        {
          "duration": 2.3039164999999926,
          "durationTicks": 376,
          "midi": 40,
          "name": "E2",
          "ticks": 7224,
          "time": 44.26460850000001,
          "velocity": 1
        },
        {
          "duration": 2.3039164999999926,
          "durationTicks": 376,
          "midi": 38,
          "name": "D2",
          "ticks": 7608,
          "time": 46.61754450000001,
          "velocity": 1
        },
        {
          "duration": 2.3039164999999926,
          "durationTicks": 376,
          "midi": 40,
          "name": "E2",
          "ticks": 7992,
          "time": 48.97048050000001,
          "velocity": 1
        },
        {
          "duration": 1.1274484999999927,
          "durationTicks": 184,
          "midi": 38,
          "name": "D2",
          "ticks": 8376,
          "time": 51.32341650000001,
          "velocity": 1
        },
        {
          "duration": 1.1274484999999927,
          "durationTicks": 184,
          "midi": 40,
          "name": "E2",
          "ticks": 8568,
          "time": 52.49988450000001,
          "velocity": 1
        },
        {
          "duration": 2.3039164999999926,
          "durationTicks": 376,
          "midi": 35,
          "name": "B1",
          "ticks": 8760,
          "time": 53.67635250000001,
          "velocity": 1
        },
        {
          "duration": 4.068618499999992,
          "durationTicks": 664,
          "midi": 42,
          "name": "F#2",
          "ticks": 9144,
          "time": 56.02928850000001,
          "velocity": 1
        }
      ]
    },
    {
      "channel": 0,
      "controlChanges": {
        "0": [
          {
            "number": 0,
            "ticks": 249,
            "time": 1.5257319375,
            "value": 1
          }
        ],
        "1": [
          {
            "number": 1,
            "ticks": 245,
            "time": 1.5012221875000002,
            "value": 0
          }
        ],
        "5": [
          {
            "number": 5,
            "ticks": 248,
            "time": 1.5196045000000002,
            "value": 0
          }
        ],
        "6": [
          {
            "number": 6,
            "ticks": 236,
            "time": 1.4460752500000003,
            "value": 0.12598425196850394
          },
          {
            "number": 6,
            "ticks": 238,
            "time": 1.458330125,
            "value": 0.5433070866141733
          }
        ],
        "7": [
          {
            "number": 7,
            "ticks": 242,
            "time": 1.4828398750000003,
            "value": 0.8267716535433071
          }
        ],
        "10": [
          {
            "number": 10,
            "ticks": 244,
            "time": 1.49509475,
            "value": 0.4094488188976378
          }
        ],
        "11": [
          {
            "number": 11,
            "ticks": 243,
            "time": 1.4889673125,
            "value": 0.7874015748031497
          }
        ],
        "32": [
          {
            "number": 32,
            "ticks": 250,
            "time": 1.531859375,
            "value": 0.007874015748031496
          }
        ],
        "64": [
          {
            "number": 64,
            "ticks": 246,
            "time": 1.507349625,
            "value": 0
          }
        ],
        "65": [
          {
            "number": 65,
            "ticks": 247,
            "time": 1.5134770625,
            "value": 0
          }
        ],
        "91": [
          {
            "number": 91,
            "ticks": 230,
            "time": 1.4093106250000003,
            "value": 0.5984251968503937
          }
        ],
        "93": [
          {
            "number": 93,
            "ticks": 231,
            "time": 1.4154380625,
            "value": 0.1889763779527559
          }
        ],
        "94": [
          {
            "number": 94,
            "ticks": 232,
            "time": 1.4215655,
            "value": 0.15748031496062992
          }
        ],
        "100": [
          {
            "number": 100,
            "ticks": 234,
            "time": 1.433820375,
            "value": 0
          },
          {
            "number": 100,
            "ticks": 238,
            "time": 1.458330125,
            "value": 0.007874015748031496
          }
        ],
        "101": [
          {
            "number": 101,
            "ticks": 235,
            "time": 1.4399478125,
            "value": 0
          },
          {
            "number": 101,
            "ticks": 238,
            "time": 1.458330125,
            "value": 0
          }
        ]
      },
      "pitchBends": [
        {
          "ticks": 237,
          "time": 1.4522026875,
          "value": 0
        }
      ],
      "instrument": {
        "family": "piano",
        "number": 0,
        "name": "acoustic grand piano"
      },
      "name": "SUB1\u0000",
      "notes": [],
      "endOfTrackTicks": 9912
    },
    {
      "channel": 11,
      "controlChanges": {
        "6": [
          {
            "number": 6,
            "ticks": 252,
            "time": 1.54411425,
            "value": 1
          },
          {
            "number": 6,
            "ticks": 253,
            "time": 1.5502416875,
            "value": 0.5511811023622047
          },
          {
            "number": 6,
            "ticks": 254,
            "time": 1.5563691250000002,
            "value": 0.5118110236220472
          },
          {
            "number": 6,
            "ticks": 255,
            "time": 1.5624965625,
            "value": 1
          },
          {
            "number": 6,
            "ticks": 256,
            "time": 1.568624,
            "value": 0.5511811023622047
          }
        ],
        "7": [
          {
            "number": 7,
            "ticks": 312,
            "time": 1.9117605000000002,
            "value": 0.8267716535433071
          },
          {
            "number": 7,
            "ticks": 3000,
            "time": 18.3823125,
            "value": 0.968503937007874
          },
          {
            "number": 7,
            "ticks": 5976,
            "time": 36.6175665,
            "value": 0.984251968503937
          },
          {
            "number": 7,
            "ticks": 6072,
            "time": 37.2058005,
            "value": 0.9212598425196851
          },
          {
            "number": 7,
            "ticks": 9048,
            "time": 55.44105450000001,
            "value": 0.984251968503937
          },
          {
            "number": 7,
            "ticks": 9144,
            "time": 56.02928850000001,
            "value": 0.9212598425196851
          },
          {
            "number": 7,
            "ticks": 9144,
            "time": 56.02928850000001,
            "value": 0.8267716535433071
          },
          {
            "number": 7,
            "ticks": 9192,
            "time": 56.32340550000001,
            "value": 0.8267716535433071
          },
          {
            "number": 7,
            "ticks": 9240,
            "time": 56.61752250000001,
            "value": 0.7716535433070866
          },
          {
            "number": 7,
            "ticks": 9288,
            "time": 56.91163950000001,
            "value": 0.7165354330708661
          },
          {
            "number": 7,
            "ticks": 9336,
            "time": 57.20575650000001,
            "value": 0.6692913385826772
          },
          {
            "number": 7,
            "ticks": 9384,
            "time": 57.49987350000001,
            "value": 0.6141732283464567
          },
          {
            "number": 7,
            "ticks": 9432,
            "time": 57.79399050000001,
            "value": 0.5669291338582677
          },
          {
            "number": 7,
            "ticks": 9480,
            "time": 58.08810750000001,
            "value": 0.5118110236220472
          },
          {
            "number": 7,
            "ticks": 9528,
            "time": 58.38222450000001,
            "value": 0.4645669291338583
          },
          {
            "number": 7,
            "ticks": 9576,
            "time": 58.67634150000001,
            "value": 0.4094488188976378
          },
          {
            "number": 7,
            "ticks": 9624,
            "time": 58.97045850000001,
            "value": 0.3543307086614173
          },
          {
            "number": 7,
            "ticks": 9672,
            "time": 59.26457550000001,
            "value": 0.30708661417322836
          },
          {
            "number": 7,
            "ticks": 9720,
            "time": 59.55869250000001,
            "value": 0.25196850393700787
          },
          {
            "number": 7,
            "ticks": 9768,
            "time": 59.852809500000006,
            "value": 0.2047244094488189
          },
          {
            "number": 7,
            "ticks": 9816,
            "time": 60.146926500000006,
            "value": 0.14960629921259844
          },
          {
            "number": 7,
            "ticks": 9864,
            "time": 60.441043500000006,
            "value": 0.10236220472440945
          },
          {
            "number": 7,
            "ticks": 9912,
            "time": 60.735160500000006,
            "value": 0.047244094488188976
          }
        ],
        "94": [
          {
            "number": 94,
            "ticks": 312,
            "time": 1.9117605000000002,
            "value": 0.15748031496062992
          },
          {
            "number": 94,
            "ticks": 3000,
            "time": 18.3823125,
            "value": 0.31496062992125984
          },
          {
            "number": 94,
            "ticks": 9144,
            "time": 56.02928850000001,
            "value": 0.15748031496062992
          }
        ],
        "98": [
          {
            "number": 98,
            "ticks": 252,
            "time": 1.54411425,
            "value": 0.25196850393700787
          },
          {
            "number": 98,
            "ticks": 253,
            "time": 1.5502416875,
            "value": 0.25984251968503935
          },
          {
            "number": 98,
            "ticks": 254,
            "time": 1.5563691250000002,
            "value": 0.7795275590551181
          },
          {
            "number": 98,
            "ticks": 255,
            "time": 1.5624965625,
            "value": 0.7874015748031497
          },
          {
            "number": 98,
            "ticks": 256,
            "time": 1.568624,
            "value": 0.8031496062992126
          }
        ],
        "99": [
          {
            "number": 99,
            "ticks": 252,
            "time": 1.54411425,
            "value": 0.007874015748031496
          },
          {
            "number": 99,
            "ticks": 253,
            "time": 1.5502416875,
            "value": 0.007874015748031496
          },
          {
            "number": 99,
            "ticks": 254,
            "time": 1.5563691250000002,
            "value": 0.007874015748031496
          },
          {
            "number": 99,
            "ticks": 255,
            "time": 1.5624965625,
            "value": 0.007874015748031496
          },
          {
            "number": 99,
            "ticks": 256,
            "time": 1.568624,
            "value": 0.007874015748031496
          }
        ]
      },
      "pitchBends": [],
      "instrument": {
        "family": "guitar",
        "number": 29,
        "name": "overdriven guitar"
      },
      "name": "",
      "notes": [
        {
          "duration": 0.09803899999999999,
          "durationTicks": 16,
          "midi": 64,
          "name": "E4",
          "ticks": 312,
          "time": 1.9117605000000002,
          "velocity": 1
        },
        {
          "duration": 0.09803899999999999,
          "durationTicks": 16,
          "midi": 61,
          "name": "C#4",
          "ticks": 312,
          "time": 1.9117605000000002,
          "velocity": 1
        },
        {
          "duration": 0.09803899999999999,
          "durationTicks": 16,
          "midi": 63,
          "name": "D#4",
          "ticks": 336,
          "time": 2.058819,
          "velocity": 1
        },
        {
          "duration": 0.09803899999999999,
          "durationTicks": 16,
          "midi": 59,
          "name": "B3",
          "ticks": 336,
          "time": 2.058819,
          "velocity": 1
        },
        {
          "duration": 0.09803899999999999,
          "durationTicks": 16,
          "midi": 64,
          "name": "E4",
          "ticks": 384,
          "time": 2.352936,
          "velocity": 1
        },
        {
          "duration": 0.09803899999999999,
          "durationTicks": 16,
          "midi": 61,
          "name": "C#4",
          "ticks": 384,
          "time": 2.352936,
          "velocity": 1
        },
        {
          "duration": 0.09803899999999954,
          "durationTicks": 16,
          "midi": 63,
          "name": "D#4",
          "ticks": 432,
          "time": 2.6470530000000005,
          "velocity": 1
        },
        {
          "duration": 0.09803899999999954,
          "durationTicks": 16,
          "midi": 59,
          "name": "B3",
          "ticks": 432,
          "time": 2.6470530000000005,
          "velocity": 1
        },
        {
          "duration": 0.09803899999999999,
          "durationTicks": 16,
          "midi": 64,
          "name": "E4",
          "ticks": 480,
          "time": 2.9411700000000005,
          "velocity": 1
        },
        {
          "duration": 0.09803899999999999,
          "durationTicks": 16,
          "midi": 61,
          "name": "C#4",
          "ticks": 480,
          "time": 2.9411700000000005,
          "velocity": 1
        },
        {
          "duration": 0.09803899999999999,
          "durationTicks": 16,
          "midi": 64,
          "name": "E4",
          "ticks": 528,
          "time": 3.2352870000000005,
          "velocity": 1
        },
        {
          "duration": 0.09803899999999999,
          "durationTicks": 16,
          "midi": 61,
          "name": "C#4",
          "ticks": 528,
          "time": 3.2352870000000005,
          "velocity": 1
        },
        {
          "duration": 0.09803899999999999,
          "durationTicks": 16,
          "midi": 63,
          "name": "D#4",
          "ticks": 552,
          "time": 3.3823455000000004,
          "velocity": 1
        },
        {
          "duration": 0.09803899999999999,
          "durationTicks": 16,
          "midi": 59,
          "name": "B3",
          "ticks": 552,
          "time": 3.3823455000000004,
          "velocity": 1
        },
        {
          "duration": 0.09803899999999999,
          "durationTicks": 16,
          "midi": 66,
          "name": "F#4",
          "ticks": 600,
          "time": 3.6764625000000004,
          "velocity": 1
        },
        {
          "duration": 0.09803899999999999,
          "durationTicks": 16,
          "midi": 61,
          "name": "C#4",
          "ticks": 600,
          "time": 3.6764625000000004,
          "velocity": 1
        },
        {
          "duration": 0.09803899999999999,
          "durationTicks": 16,
          "midi": 64,
          "name": "E4",
          "ticks": 648,
          "time": 3.9705795000000004,
          "velocity": 1
        },
        {
          "duration": 0.09803899999999999,
          "durationTicks": 16,
          "midi": 61,
          "name": "C#4",
          "ticks": 648,
          "time": 3.9705795000000004,
          "velocity": 1
        },
        {
          "duration": 0.09803899999999999,
          "durationTicks": 16,
          "midi": 63,
          "name": "D#4",
          "ticks": 672,
          "time": 4.117638,
          "velocity": 1
        },
        {
          "duration": 0.09803899999999999,
          "durationTicks": 16,
          "midi": 59,
          "name": "B3",
          "ticks": 672,
          "time": 4.117638,
          "velocity": 1
        },
        {
          "duration": 0.09803899999999999,
          "durationTicks": 16,
          "midi": 64,
          "name": "E4",
          "ticks": 720,
          "time": 4.411755,
          "velocity": 1
        },
        {
          "duration": 0.09803899999999999,
          "durationTicks": 16,
          "midi": 61,
          "name": "C#4",
          "ticks": 720,
          "time": 4.411755,
          "velocity": 1
        },
        {
          "duration": 0.0980389999999991,
          "durationTicks": 16,
          "midi": 63,
          "name": "D#4",
          "ticks": 768,
          "time": 4.705872000000001,
          "velocity": 1
        },
        {
          "duration": 0.0980389999999991,
          "durationTicks": 16,
          "midi": 59,
          "name": "B3",
          "ticks": 768,
          "time": 4.705872000000001,
          "velocity": 1
        },
        {
          "duration": 0.0980389999999991,
          "durationTicks": 16,
          "midi": 64,
          "name": "E4",
          "ticks": 816,
          "time": 4.999989000000001,
          "velocity": 1
        },
        {
          "duration": 0.0980389999999991,
          "durationTicks": 16,
          "midi": 61,
          "name": "C#4",
          "ticks": 816,
          "time": 4.999989000000001,
          "velocity": 1
        },
        {
          "duration": 0.0980389999999991,
          "durationTicks": 16,
          "midi": 64,
          "name": "E4",
          "ticks": 864,
          "time": 5.294106000000001,
          "velocity": 1
        },
        {
          "duration": 0.0980389999999991,
          "durationTicks": 16,
          "midi": 61,
          "name": "C#4",
          "ticks": 864,
          "time": 5.294106000000001,
          "velocity": 1
        },
        {
          "duration": 0.0980389999999991,
          "durationTicks": 16,
          "midi": 63,
          "name": "D#4",
          "ticks": 888,
          "time": 5.441164500000001,
          "velocity": 1
        },
        {
          "duration": 0.0980389999999991,
          "durationTicks": 16,
          "midi": 59,
          "name": "B3",
          "ticks": 888,
          "time": 5.441164500000001,
          "velocity": 1
        },
        {
          "duration": 0.0980389999999991,
          "durationTicks": 16,
          "midi": 61,
          "name": "C#4",
          "ticks": 936,
          "time": 5.735281500000001,
          "velocity": 1
        },
        {
          "duration": 0.0980389999999991,
          "durationTicks": 16,
          "midi": 58,
          "name": "A#3",
          "ticks": 936,
          "time": 5.735281500000001,
          "velocity": 1
        },
        {
          "duration": 0.09803899999999999,
          "durationTicks": 16,
          "midi": 64,
          "name": "E4",
          "ticks": 984,
          "time": 6.029398500000001,
          "velocity": 1
        },
        {
          "duration": 0.09803899999999999,
          "durationTicks": 16,
          "midi": 61,
          "name": "C#4",
          "ticks": 984,
          "time": 6.029398500000001,
          "velocity": 1
        },
        {
          "duration": 0.09803899999999999,
          "durationTicks": 16,
          "midi": 63,
          "name": "D#4",
          "ticks": 1008,
          "time": 6.176457000000001,
          "velocity": 1
        },
        {
          "duration": 0.09803899999999999,
          "durationTicks": 16,
          "midi": 59,
          "name": "B3",
          "ticks": 1008,
          "time": 6.176457000000001,
          "velocity": 1
        },
        {
          "duration": 0.09803899999999999,
          "durationTicks": 16,
          "midi": 64,
          "name": "E4",
          "ticks": 1056,
          "time": 6.470574000000001,
          "velocity": 1
        },
        {
          "duration": 0.09803899999999999,
          "durationTicks": 16,
          "midi": 61,
          "name": "C#4",
          "ticks": 1056,
          "time": 6.470574000000001,
          "velocity": 1
        },
        {
          "duration": 0.09803899999999999,
          "durationTicks": 16,
          "midi": 63,
          "name": "D#4",
          "ticks": 1104,
          "time": 6.764691000000001,
          "velocity": 1
        },
        {
          "duration": 0.09803899999999999,
          "durationTicks": 16,
          "midi": 59,
          "name": "B3",
          "ticks": 1104,
          "time": 6.764691000000001,
          "velocity": 1
        },
        {
          "duration": 0.09803899999999999,
          "durationTicks": 16,
          "midi": 64,
          "name": "E4",
          "ticks": 1152,
          "time": 7.058808000000001,
          "velocity": 1
        },
        {
          "duration": 0.09803899999999999,
          "durationTicks": 16,
          "midi": 61,
          "name": "C#4",
          "ticks": 1152,
          "time": 7.058808000000001,
          "velocity": 1
        },
        {
          "duration": 0.09803899999999999,
          "durationTicks": 16,
          "midi": 64,
          "name": "E4",
          "ticks": 1200,
          "time": 7.352925000000001,
          "velocity": 1
        },
        {
          "duration": 0.09803899999999999,
          "durationTicks": 16,
          "midi": 61,
          "name": "C#4",
          "ticks": 1200,
          "time": 7.352925000000001,
          "velocity": 1
        },
        {
          "duration": 0.09803899999999999,
          "durationTicks": 16,
          "midi": 63,
          "name": "D#4",
          "ticks": 1224,
          "time": 7.499983500000001,
          "velocity": 1
        },
        {
          "duration": 0.09803899999999999,
          "durationTicks": 16,
          "midi": 59,
          "name": "B3",
          "ticks": 1224,
          "time": 7.499983500000001,
          "velocity": 1
        },
        {
          "duration": 0.09803899999999999,
          "durationTicks": 16,
          "midi": 66,
          "name": "F#4",
          "ticks": 1272,
          "time": 7.794100500000001,
          "velocity": 1
        },
        {
          "duration": 0.09803899999999999,
          "durationTicks": 16,
          "midi": 61,
          "name": "C#4",
          "ticks": 1272,
          "time": 7.794100500000001,
          "velocity": 1
        },
        {
          "duration": 0.09803899999999999,
          "durationTicks": 16,
          "midi": 64,
          "name": "E4",
          "ticks": 1320,
          "time": 8.0882175,
          "velocity": 1
        },
        {
          "duration": 0.09803899999999999,
          "durationTicks": 16,
          "midi": 61,
          "name": "C#4",
          "ticks": 1320,
          "time": 8.0882175,
          "velocity": 1
        },
        {
          "duration": 0.09803899999999999,
          "durationTicks": 16,
          "midi": 63,
          "name": "D#4",
          "ticks": 1344,
          "time": 8.235276,
          "velocity": 1
        },
        {
          "duration": 0.09803899999999999,
          "durationTicks": 16,
          "midi": 59,
          "name": "B3",
          "ticks": 1344,
          "time": 8.235276,
          "velocity": 1
        },
        {
          "duration": 0.09803899999999999,
          "durationTicks": 16,
          "midi": 64,
          "name": "E4",
          "ticks": 1392,
          "time": 8.529393,
          "velocity": 1
        },
        {
          "duration": 0.09803899999999999,
          "durationTicks": 16,
          "midi": 61,
          "name": "C#4",
          "ticks": 1392,
          "time": 8.529393,
          "velocity": 1
        },
        {
          "duration": 0.09803899999999999,
          "durationTicks": 16,
          "midi": 63,
          "name": "D#4",
          "ticks": 1440,
          "time": 8.82351,
          "velocity": 1
        },
        {
          "duration": 0.09803899999999999,
          "durationTicks": 16,
          "midi": 59,
          "name": "B3",
          "ticks": 1440,
          "time": 8.82351,
          "velocity": 1
        },
        {
          "duration": 0.09803899999999999,
          "durationTicks": 16,
          "midi": 64,
          "name": "E4",
          "ticks": 1488,
          "time": 9.117627,
          "velocity": 1
        },
        {
          "duration": 0.09803899999999999,
          "durationTicks": 16,
          "midi": 61,
          "name": "C#4",
          "ticks": 1488,
          "time": 9.117627,
          "velocity": 1
        },
        {
          "duration": 0.09803899999999999,
          "durationTicks": 16,
          "midi": 64,
          "name": "E4",
          "ticks": 1536,
          "time": 9.411744,
          "velocity": 1
        },
        {
          "duration": 0.09803899999999999,
          "durationTicks": 16,
          "midi": 61,
          "name": "C#4",
          "ticks": 1536,
          "time": 9.411744,
          "velocity": 1
        },
        {
          "duration": 0.09803899999999999,
          "durationTicks": 16,
          "midi": 63,
          "name": "D#4",
          "ticks": 1560,
          "time": 9.5588025,
          "velocity": 1
        },
        {
          "duration": 0.09803899999999999,
          "durationTicks": 16,
          "midi": 59,
          "name": "B3",
          "ticks": 1560,
          "time": 9.5588025,
          "velocity": 1
        },
        {
          "duration": 0.09803899999999999,
          "durationTicks": 16,
          "midi": 61,
          "name": "C#4",
          "ticks": 1608,
          "time": 9.8529195,
          "velocity": 1
        },
        {
          "duration": 0.09803899999999999,
          "durationTicks": 16,
          "midi": 58,
          "name": "A#3",
          "ticks": 1608,
          "time": 9.8529195,
          "velocity": 1
        },
        {
          "duration": 0.09803899999999999,
          "durationTicks": 16,
          "midi": 64,
          "name": "E4",
          "ticks": 1656,
          "time": 10.1470365,
          "velocity": 1
        },
        {
          "duration": 0.09803899999999999,
          "durationTicks": 16,
          "midi": 61,
          "name": "C#4",
          "ticks": 1656,
          "time": 10.1470365,
          "velocity": 1
        },
        {
          "duration": 0.09803899999999999,
          "durationTicks": 16,
          "midi": 63,
          "name": "D#4",
          "ticks": 1680,
          "time": 10.294095,
          "velocity": 1
        },
        {
          "duration": 0.09803899999999999,
          "durationTicks": 16,
          "midi": 59,
          "name": "B3",
          "ticks": 1680,
          "time": 10.294095,
          "velocity": 1
        },
        {
          "duration": 0.09803899999999999,
          "durationTicks": 16,
          "midi": 64,
          "name": "E4",
          "ticks": 1728,
          "time": 10.588212,
          "velocity": 1
        },
        {
          "duration": 0.09803899999999999,
          "durationTicks": 16,
          "midi": 61,
          "name": "C#4",
          "ticks": 1728,
          "time": 10.588212,
          "velocity": 1
        },
        {
          "duration": 0.09803899999999999,
          "durationTicks": 16,
          "midi": 63,
          "name": "D#4",
          "ticks": 1776,
          "time": 10.882329,
          "velocity": 1
        },
        {
          "duration": 0.09803899999999999,
          "durationTicks": 16,
          "midi": 59,
          "name": "B3",
          "ticks": 1776,
          "time": 10.882329,
          "velocity": 1
        },
        {
          "duration": 0.09803899999999999,
          "durationTicks": 16,
          "midi": 64,
          "name": "E4",
          "ticks": 1824,
          "time": 11.176446,
          "velocity": 1
        },
        {
          "duration": 0.09803899999999999,
          "durationTicks": 16,
          "midi": 61,
          "name": "C#4",
          "ticks": 1824,
          "time": 11.176446,
          "velocity": 1
        },
        {
          "duration": 0.09803899999999999,
          "durationTicks": 16,
          "midi": 64,
          "name": "E4",
          "ticks": 1872,
          "time": 11.470563,
          "velocity": 1
        },
        {
          "duration": 0.09803899999999999,
          "durationTicks": 16,
          "midi": 61,
          "name": "C#4",
          "ticks": 1872,
          "time": 11.470563,
          "velocity": 1
        },
        {
          "duration": 0.09803899999999999,
          "durationTicks": 16,
          "midi": 63,
          "name": "D#4",
          "ticks": 1896,
          "time": 11.6176215,
          "velocity": 1
        },
        {
          "duration": 0.09803899999999999,
          "durationTicks": 16,
          "midi": 59,
          "name": "B3",
          "ticks": 1896,
          "time": 11.6176215,
          "velocity": 1
        },
        {
          "duration": 0.09803899999999999,
          "durationTicks": 16,
          "midi": 66,
          "name": "F#4",
          "ticks": 1944,
          "time": 11.9117385,
          "velocity": 1
        },
        {
          "duration": 0.09803899999999999,
          "durationTicks": 16,
          "midi": 61,
          "name": "C#4",
          "ticks": 1944,
          "time": 11.9117385,
          "velocity": 1
        },
        {
          "duration": 0.09803899999999999,
          "durationTicks": 16,
          "midi": 64,
          "name": "E4",
          "ticks": 1992,
          "time": 12.2058555,
          "velocity": 1
        },
        {
          "duration": 0.09803899999999999,
          "durationTicks": 16,
          "midi": 61,
          "name": "C#4",
          "ticks": 1992,
          "time": 12.2058555,
          "velocity": 1
        },
        {
          "duration": 0.09803899999999821,
          "durationTicks": 16,
          "midi": 63,
          "name": "D#4",
          "ticks": 2016,
          "time": 12.352914000000002,
          "velocity": 1
        },
        {
          "duration": 0.09803899999999821,
          "durationTicks": 16,
          "midi": 59,
          "name": "B3",
          "ticks": 2016,
          "time": 12.352914000000002,
          "velocity": 1
        },
        {
          "duration": 0.09803899999999821,
          "durationTicks": 16,
          "midi": 64,
          "name": "E4",
          "ticks": 2064,
          "time": 12.647031000000002,
          "velocity": 1
        },
        {
          "duration": 0.09803899999999821,
          "durationTicks": 16,
          "midi": 61,
          "name": "C#4",
          "ticks": 2064,
          "time": 12.647031000000002,
          "velocity": 1
        },
        {
          "duration": 0.09803899999999821,
          "durationTicks": 16,
          "midi": 63,
          "name": "D#4",
          "ticks": 2112,
          "time": 12.941148000000002,
          "velocity": 1
        },
        {
          "duration": 0.09803899999999821,
          "durationTicks": 16,
          "midi": 59,
          "name": "B3",
          "ticks": 2112,
          "time": 12.941148000000002,
          "velocity": 1
        },
        {
          "duration": 0.09803899999999821,
          "durationTicks": 16,
          "midi": 64,
          "name": "E4",
          "ticks": 2160,
          "time": 13.235265000000002,
          "velocity": 1
        },
        {
          "duration": 0.09803899999999821,
          "durationTicks": 16,
          "midi": 61,
          "name": "C#4",
          "ticks": 2160,
          "time": 13.235265000000002,
          "velocity": 1
        },
        {
          "duration": 0.09803899999999821,
          "durationTicks": 16,
          "midi": 64,
          "name": "E4",
          "ticks": 2208,
          "time": 13.529382000000002,
          "velocity": 1
        },
        {
          "duration": 0.09803899999999821,
          "durationTicks": 16,
          "midi": 61,
          "name": "C#4",
          "ticks": 2208,
          "time": 13.529382000000002,
          "velocity": 1
        },
        {
          "duration": 0.09803899999999821,
          "durationTicks": 16,
          "midi": 63,
          "name": "D#4",
          "ticks": 2232,
          "time": 13.676440500000002,
          "velocity": 1
        },
        {
          "duration": 0.09803899999999821,
          "durationTicks": 16,
          "midi": 59,
          "name": "B3",
          "ticks": 2232,
          "time": 13.676440500000002,
          "velocity": 1
        },
        {
          "duration": 0.09803899999999821,
          "durationTicks": 16,
          "midi": 61,
          "name": "C#4",
          "ticks": 2280,
          "time": 13.970557500000002,
          "velocity": 1
        },
        {
          "duration": 0.09803899999999821,
          "durationTicks": 16,
          "midi": 58,
          "name": "A#3",
          "ticks": 2280,
          "time": 13.970557500000002,
          "velocity": 1
        },
        {
          "duration": 0.09803899999999821,
          "durationTicks": 16,
          "midi": 64,
          "name": "E4",
          "ticks": 2328,
          "time": 14.264674500000002,
          "velocity": 1
        },
        {
          "duration": 0.09803899999999821,
          "durationTicks": 16,
          "midi": 61,
          "name": "C#4",
          "ticks": 2328,
          "time": 14.264674500000002,
          "velocity": 1
        },
        {
          "duration": 0.09803899999999821,
          "durationTicks": 16,
          "midi": 63,
          "name": "D#4",
          "ticks": 2352,
          "time": 14.411733000000002,
          "velocity": 1
        },
        {
          "duration": 0.09803899999999821,
          "durationTicks": 16,
          "midi": 59,
          "name": "B3",
          "ticks": 2352,
          "time": 14.411733000000002,
          "velocity": 1
        },
        {
          "duration": 0.09803899999999821,
          "durationTicks": 16,
          "midi": 64,
          "name": "E4",
          "ticks": 2400,
          "time": 14.705850000000002,
          "velocity": 1
        },
        {
          "duration": 0.09803899999999821,
          "durationTicks": 16,
          "midi": 61,
          "name": "C#4",
          "ticks": 2400,
          "time": 14.705850000000002,
          "velocity": 1
        },
        {
          "duration": 0.09803899999999821,
          "durationTicks": 16,
          "midi": 63,
          "name": "D#4",
          "ticks": 2448,
          "time": 14.999967000000002,
          "velocity": 1
        },
        {
          "duration": 0.09803899999999821,
          "durationTicks": 16,
          "midi": 59,
          "name": "B3",
          "ticks": 2448,
          "time": 14.999967000000002,
          "velocity": 1
        },
        {
          "duration": 0.09803899999999821,
          "durationTicks": 16,
          "midi": 64,
          "name": "E4",
          "ticks": 2496,
          "time": 15.294084000000002,
          "velocity": 1
        },
        {
          "duration": 0.09803899999999821,
          "durationTicks": 16,
          "midi": 61,
          "name": "C#4",
          "ticks": 2496,
          "time": 15.294084000000002,
          "velocity": 1
        },
        {
          "duration": 0.09803899999999821,
          "durationTicks": 16,
          "midi": 64,
          "name": "E4",
          "ticks": 2544,
          "time": 15.588201000000002,
          "velocity": 1
        },
        {
          "duration": 0.09803899999999821,
          "durationTicks": 16,
          "midi": 61,
          "name": "C#4",
          "ticks": 2544,
          "time": 15.588201000000002,
          "velocity": 1
        },
        {
          "duration": 0.09803899999999821,
          "durationTicks": 16,
          "midi": 63,
          "name": "D#4",
          "ticks": 2568,
          "time": 15.735259500000002,
          "velocity": 1
        },
        {
          "duration": 0.09803899999999821,
          "durationTicks": 16,
          "midi": 59,
          "name": "B3",
          "ticks": 2568,
          "time": 15.735259500000002,
          "velocity": 1
        },
        {
          "duration": 0.09803899999999999,
          "durationTicks": 16,
          "midi": 66,
          "name": "F#4",
          "ticks": 2616,
          "time": 16.0293765,
          "velocity": 1
        },
        {
          "duration": 0.09803899999999999,
          "durationTicks": 16,
          "midi": 61,
          "name": "C#4",
          "ticks": 2616,
          "time": 16.0293765,
          "velocity": 1
        },
        {
          "duration": 0.09803899999999999,
          "durationTicks": 16,
          "midi": 64,
          "name": "E4",
          "ticks": 2664,
          "time": 16.3234935,
          "velocity": 1
        },
        {
          "duration": 0.09803899999999999,
          "durationTicks": 16,
          "midi": 61,
          "name": "C#4",
          "ticks": 2664,
          "time": 16.3234935,
          "velocity": 1
        },
        {
          "duration": 0.09803899999999999,
          "durationTicks": 16,
          "midi": 63,
          "name": "D#4",
          "ticks": 2688,
          "time": 16.470552,
          "velocity": 1
        },
        {
          "duration": 0.09803899999999999,
          "durationTicks": 16,
          "midi": 59,
          "name": "B3",
          "ticks": 2688,
          "time": 16.470552,
          "velocity": 1
        },
        {
          "duration": 0.09803899999999999,
          "durationTicks": 16,
          "midi": 64,
          "name": "E4",
          "ticks": 2736,
          "time": 16.764669,
          "velocity": 1
        },
        {
          "duration": 0.09803899999999999,
          "durationTicks": 16,
          "midi": 61,
          "name": "C#4",
          "ticks": 2736,
          "time": 16.764669,
          "velocity": 1
        },
        {
          "duration": 0.09803899999999999,
          "durationTicks": 16,
          "midi": 63,
          "name": "D#4",
          "ticks": 2784,
          "time": 17.058786,
          "velocity": 1
        },
        {
          "duration": 0.09803899999999999,
          "durationTicks": 16,
          "midi": 59,
          "name": "B3",
          "ticks": 2784,
          "time": 17.058786,
          "velocity": 1
        },
        {
          "duration": 0.09803899999999999,
          "durationTicks": 16,
          "midi": 64,
          "name": "E4",
          "ticks": 2832,
          "time": 17.352903,
          "velocity": 1
        },
        {
          "duration": 0.09803899999999999,
          "durationTicks": 16,
          "midi": 61,
          "name": "C#4",
          "ticks": 2832,
          "time": 17.352903,
          "velocity": 1
        },
        {
          "duration": 0.09803899999999999,
          "durationTicks": 16,
          "midi": 64,
          "name": "E4",
          "ticks": 2880,
          "time": 17.64702,
          "velocity": 1
        },
        {
          "duration": 0.09803899999999999,
          "durationTicks": 16,
          "midi": 61,
          "name": "C#4",
          "ticks": 2880,
          "time": 17.64702,
          "velocity": 1
        },
        {
          "duration": 0.09803899999999999,
          "durationTicks": 16,
          "midi": 63,
          "name": "D#4",
          "ticks": 2904,
          "time": 17.7940785,
          "velocity": 1
        },
        {
          "duration": 0.09803899999999999,
          "durationTicks": 16,
          "midi": 59,
          "name": "B3",
          "ticks": 2904,
          "time": 17.7940785,
          "velocity": 1
        },
        {
          "duration": 0.09803899999999999,
          "durationTicks": 16,
          "midi": 61,
          "name": "C#4",
          "ticks": 2952,
          "time": 18.0881955,
          "velocity": 1
        },
        {
          "duration": 0.09803899999999999,
          "durationTicks": 16,
          "midi": 58,
          "name": "A#3",
          "ticks": 2952,
          "time": 18.0881955,
          "velocity": 1
        },
        {
          "duration": 0.09803899999999999,
          "durationTicks": 16,
          "midi": 66,
          "name": "F#4",
          "ticks": 3000,
          "time": 18.3823125,
          "velocity": 1
        },
        {
          "duration": 0.09803899999999999,
          "durationTicks": 16,
          "midi": 61,
          "name": "C#4",
          "ticks": 3000,
          "time": 18.3823125,
          "velocity": 1
        },
        {
          "duration": 0.09803899999999999,
          "durationTicks": 16,
          "midi": 64,
          "name": "E4",
          "ticks": 3024,
          "time": 18.529371,
          "velocity": 1
        },
        {
          "duration": 0.09803899999999999,
          "durationTicks": 16,
          "midi": 61,
          "name": "C#4",
          "ticks": 3024,
          "time": 18.529371,
          "velocity": 1
        },
        {
          "duration": 0.09803899999999999,
          "durationTicks": 16,
          "midi": 66,
          "name": "F#4",
          "ticks": 3072,
          "time": 18.823488,
          "velocity": 1
        },
        {
          "duration": 0.09803899999999999,
          "durationTicks": 16,
          "midi": 61,
          "name": "C#4",
          "ticks": 3072,
          "time": 18.823488,
          "velocity": 1
        },
        {
          "duration": 0.09803899999999999,
          "durationTicks": 16,
          "midi": 64,
          "name": "E4",
          "ticks": 3120,
          "time": 19.117605,
          "velocity": 1
        },
        {
          "duration": 0.09803899999999999,
          "durationTicks": 16,
          "midi": 61,
          "name": "C#4",
          "ticks": 3120,
          "time": 19.117605,
          "velocity": 1
        },
        {
          "duration": 0.09803899999999999,
          "durationTicks": 16,
          "midi": 66,
          "name": "F#4",
          "ticks": 3168,
          "time": 19.411722,
          "velocity": 1
        },
        {
          "duration": 0.09803899999999999,
          "durationTicks": 16,
          "midi": 61,
          "name": "C#4",
          "ticks": 3168,
          "time": 19.411722,
          "velocity": 1
        },
        {
          "duration": 0.09803899999999999,
          "durationTicks": 16,
          "midi": 66,
          "name": "F#4",
          "ticks": 3216,
          "time": 19.705839,
          "velocity": 1
        },
        {
          "duration": 0.09803899999999999,
          "durationTicks": 16,
          "midi": 61,
          "name": "C#4",
          "ticks": 3216,
          "time": 19.705839,
          "velocity": 1
        },
        {
          "duration": 0.09803899999999999,
          "durationTicks": 16,
          "midi": 64,
          "name": "E4",
          "ticks": 3240,
          "time": 19.8528975,
          "velocity": 1
        },
        {
          "duration": 0.09803899999999999,
          "durationTicks": 16,
          "midi": 61,
          "name": "C#4",
          "ticks": 3240,
          "time": 19.8528975,
          "velocity": 1
        },
        {
          "duration": 0.09803899999999999,
          "durationTicks": 16,
          "midi": 66,
          "name": "F#4",
          "ticks": 3288,
          "time": 20.1470145,
          "velocity": 1
        },
        {
          "duration": 0.09803899999999999,
          "durationTicks": 16,
          "midi": 61,
          "name": "C#4",
          "ticks": 3288,
          "time": 20.1470145,
          "velocity": 1
        },
        {
          "duration": 0.09803899999999999,
          "durationTicks": 16,
          "midi": 64,
          "name": "E4",
          "ticks": 3312,
          "time": 20.294073,
          "velocity": 1
        },
        {
          "duration": 0.09803899999999999,
          "durationTicks": 16,
          "midi": 61,
          "name": "C#4",
          "ticks": 3312,
          "time": 20.294073,
          "velocity": 1
        },
        {
          "duration": 0.09803899999999999,
          "durationTicks": 16,
          "midi": 66,
          "name": "F#4",
          "ticks": 3384,
          "time": 20.7352485,
          "velocity": 1
        },
        {
          "duration": 0.09803899999999999,
          "durationTicks": 16,
          "midi": 61,
          "name": "C#4",
          "ticks": 3384,
          "time": 20.7352485,
          "velocity": 1
        },
        {
          "duration": 0.09803899999999999,
          "durationTicks": 16,
          "midi": 64,
          "name": "E4",
          "ticks": 3408,
          "time": 20.882307,
          "velocity": 1
        },
        {
          "duration": 0.09803899999999999,
          "durationTicks": 16,
          "midi": 59,
          "name": "B3",
          "ticks": 3408,
          "time": 20.882307,
          "velocity": 1
        },
        {
          "duration": 0.09803899999999999,
          "durationTicks": 16,
          "midi": 66,
          "name": "F#4",
          "ticks": 3456,
          "time": 21.176424,
          "velocity": 1
        },
        {
          "duration": 0.09803899999999999,
          "durationTicks": 16,
          "midi": 61,
          "name": "C#4",
          "ticks": 3456,
          "time": 21.176424,
          "velocity": 1
        },
        {
          "duration": 0.09803899999999999,
          "durationTicks": 16,
          "midi": 64,
          "name": "E4",
          "ticks": 3504,
          "time": 21.470541,
          "velocity": 1
        },
        {
          "duration": 0.09803899999999999,
          "durationTicks": 16,
          "midi": 59,
          "name": "B3",
          "ticks": 3504,
          "time": 21.470541,
          "velocity": 1
        },
        {
          "duration": 0.09803899999999999,
          "durationTicks": 16,
          "midi": 66,
          "name": "F#4",
          "ticks": 3552,
          "time": 21.764658,
          "velocity": 1
        },
        {
          "duration": 0.09803899999999999,
          "durationTicks": 16,
          "midi": 61,
          "name": "C#4",
          "ticks": 3552,
          "time": 21.764658,
          "velocity": 1
        },
        {
          "duration": 0.09803899999999999,
          "durationTicks": 16,
          "midi": 66,
          "name": "F#4",
          "ticks": 3600,
          "time": 22.058775,
          "velocity": 1
        },
        {
          "duration": 0.09803899999999999,
          "durationTicks": 16,
          "midi": 61,
          "name": "C#4",
          "ticks": 3600,
          "time": 22.058775,
          "velocity": 1
        },
        {
          "duration": 0.09803899999999999,
          "durationTicks": 16,
          "midi": 64,
          "name": "E4",
          "ticks": 3624,
          "time": 22.2058335,
          "velocity": 1
        },
        {
          "duration": 0.09803899999999999,
          "durationTicks": 16,
          "midi": 59,
          "name": "B3",
          "ticks": 3624,
          "time": 22.2058335,
          "velocity": 1
        },
        {
          "duration": 0.09803899999999999,
          "durationTicks": 16,
          "midi": 66,
          "name": "F#4",
          "ticks": 3672,
          "time": 22.4999505,
          "velocity": 1
        },
        {
          "duration": 0.09803899999999999,
          "durationTicks": 16,
          "midi": 61,
          "name": "C#4",
          "ticks": 3672,
          "time": 22.4999505,
          "velocity": 1
        },
        {
          "duration": 0.09803900000000354,
          "durationTicks": 16,
          "midi": 64,
          "name": "E4",
          "ticks": 3696,
          "time": 22.647009,
          "velocity": 1
        },
        {
          "duration": 0.09803900000000354,
          "durationTicks": 16,
          "midi": 59,
          "name": "B3",
          "ticks": 3696,
          "time": 22.647009,
          "velocity": 1
        },
        {
          "duration": 0.09803900000000354,
          "durationTicks": 16,
          "midi": 66,
          "name": "F#4",
          "ticks": 3768,
          "time": 23.0881845,
          "velocity": 1
        },
        {
          "duration": 0.09803900000000354,
          "durationTicks": 16,
          "midi": 61,
          "name": "C#4",
          "ticks": 3768,
          "time": 23.0881845,
          "velocity": 1
        },
        {
          "duration": 0.09803900000000354,
          "durationTicks": 16,
          "midi": 64,
          "name": "E4",
          "ticks": 3792,
          "time": 23.235243,
          "velocity": 1
        },
        {
          "duration": 0.09803900000000354,
          "durationTicks": 16,
          "midi": 61,
          "name": "C#4",
          "ticks": 3792,
          "time": 23.235243,
          "velocity": 1
        },
        {
          "duration": 0.09803900000000354,
          "durationTicks": 16,
          "midi": 66,
          "name": "F#4",
          "ticks": 3840,
          "time": 23.52936,
          "velocity": 1
        },
        {
          "duration": 0.09803900000000354,
          "durationTicks": 16,
          "midi": 61,
          "name": "C#4",
          "ticks": 3840,
          "time": 23.52936,
          "velocity": 1
        },
        {
          "duration": 0.09803900000000354,
          "durationTicks": 16,
          "midi": 64,
          "name": "E4",
          "ticks": 3888,
          "time": 23.823477,
          "velocity": 1
        },
        {
          "duration": 0.09803900000000354,
          "durationTicks": 16,
          "midi": 61,
          "name": "C#4",
          "ticks": 3888,
          "time": 23.823477,
          "velocity": 1
        },
        {
          "duration": 0.09803900000000354,
          "durationTicks": 16,
          "midi": 66,
          "name": "F#4",
          "ticks": 3936,
          "time": 24.117594,
          "velocity": 1
        },
        {
          "duration": 0.09803900000000354,
          "durationTicks": 16,
          "midi": 61,
          "name": "C#4",
          "ticks": 3936,
          "time": 24.117594,
          "velocity": 1
        },
        {
          "duration": 0.09803900000000354,
          "durationTicks": 16,
          "midi": 66,
          "name": "F#4",
          "ticks": 3984,
          "time": 24.411711,
          "velocity": 1
        },
        {
          "duration": 0.09803900000000354,
          "durationTicks": 16,
          "midi": 61,
          "name": "C#4",
          "ticks": 3984,
          "time": 24.411711,
          "velocity": 1
        },
        {
          "duration": 0.09803900000000354,
          "durationTicks": 16,
          "midi": 64,
          "name": "E4",
          "ticks": 4008,
          "time": 24.5587695,
          "velocity": 1
        },
        {
          "duration": 0.09803900000000354,
          "durationTicks": 16,
          "midi": 61,
          "name": "C#4",
          "ticks": 4008,
          "time": 24.5587695,
          "velocity": 1
        },
        {
          "duration": 0.09803900000000354,
          "durationTicks": 16,
          "midi": 66,
          "name": "F#4",
          "ticks": 4056,
          "time": 24.8528865,
          "velocity": 1
        },
        {
          "duration": 0.09803900000000354,
          "durationTicks": 16,
          "midi": 61,
          "name": "C#4",
          "ticks": 4056,
          "time": 24.8528865,
          "velocity": 1
        },
        {
          "duration": 0.09803900000000354,
          "durationTicks": 16,
          "midi": 64,
          "name": "E4",
          "ticks": 4080,
          "time": 24.999945,
          "velocity": 1
        },
        {
          "duration": 0.09803900000000354,
          "durationTicks": 16,
          "midi": 61,
          "name": "C#4",
          "ticks": 4080,
          "time": 24.999945,
          "velocity": 1
        },
        {
          "duration": 0.09803900000000354,
          "durationTicks": 16,
          "midi": 66,
          "name": "F#4",
          "ticks": 4152,
          "time": 25.4411205,
          "velocity": 1
        },
        {
          "duration": 0.09803900000000354,
          "durationTicks": 16,
          "midi": 61,
          "name": "C#4",
          "ticks": 4152,
          "time": 25.4411205,
          "velocity": 1
        },
        {
          "duration": 0.09803900000000354,
          "durationTicks": 16,
          "midi": 64,
          "name": "E4",
          "ticks": 4176,
          "time": 25.588179,
          "velocity": 1
        },
        {
          "duration": 0.09803900000000354,
          "durationTicks": 16,
          "midi": 59,
          "name": "B3",
          "ticks": 4176,
          "time": 25.588179,
          "velocity": 1
        },
        {
          "duration": 0.09803900000000354,
          "durationTicks": 16,
          "midi": 66,
          "name": "F#4",
          "ticks": 4224,
          "time": 25.882296,
          "velocity": 1
        },
        {
          "duration": 0.09803900000000354,
          "durationTicks": 16,
          "midi": 61,
          "name": "C#4",
          "ticks": 4224,
          "time": 25.882296,
          "velocity": 1
        },
        {
          "duration": 0.09803900000000354,
          "durationTicks": 16,
          "midi": 64,
          "name": "E4",
          "ticks": 4272,
          "time": 26.176413,
          "velocity": 1
        },
        {
          "duration": 0.09803900000000354,
          "durationTicks": 16,
          "midi": 59,
          "name": "B3",
          "ticks": 4272,
          "time": 26.176413,
          "velocity": 1
        },
        {
          "duration": 0.09803900000000354,
          "durationTicks": 16,
          "midi": 66,
          "name": "F#4",
          "ticks": 4320,
          "time": 26.47053,
          "velocity": 1
        },
        {
          "duration": 0.09803900000000354,
          "durationTicks": 16,
          "midi": 61,
          "name": "C#4",
          "ticks": 4320,
          "time": 26.47053,
          "velocity": 1
        },
        {
          "duration": 0.09803900000000354,
          "durationTicks": 16,
          "midi": 66,
          "name": "F#4",
          "ticks": 4368,
          "time": 26.764647,
          "velocity": 1
        },
        {
          "duration": 0.09803900000000354,
          "durationTicks": 16,
          "midi": 61,
          "name": "C#4",
          "ticks": 4368,
          "time": 26.764647,
          "velocity": 1
        },
        {
          "duration": 0.09803900000000354,
          "durationTicks": 16,
          "midi": 64,
          "name": "E4",
          "ticks": 4392,
          "time": 26.9117055,
          "velocity": 1
        },
        {
          "duration": 0.09803900000000354,
          "durationTicks": 16,
          "midi": 59,
          "name": "B3",
          "ticks": 4392,
          "time": 26.9117055,
          "velocity": 1
        },
        {
          "duration": 0.09803900000000354,
          "durationTicks": 16,
          "midi": 66,
          "name": "F#4",
          "ticks": 4440,
          "time": 27.2058225,
          "velocity": 1
        },
        {
          "duration": 0.09803900000000354,
          "durationTicks": 16,
          "midi": 61,
          "name": "C#4",
          "ticks": 4440,
          "time": 27.2058225,
          "velocity": 1
        },
        {
          "duration": 0.09803900000000354,
          "durationTicks": 16,
          "midi": 64,
          "name": "E4",
          "ticks": 4464,
          "time": 27.352881,
          "velocity": 1
        },
        {
          "duration": 0.09803900000000354,
          "durationTicks": 16,
          "midi": 59,
          "name": "B3",
          "ticks": 4464,
          "time": 27.352881,
          "velocity": 1
        },
        {
          "duration": 0.09803900000000354,
          "durationTicks": 16,
          "midi": 66,
          "name": "F#4",
          "ticks": 4536,
          "time": 27.7940565,
          "velocity": 1
        },
        {
          "duration": 0.09803900000000354,
          "durationTicks": 16,
          "midi": 61,
          "name": "C#4",
          "ticks": 4536,
          "time": 27.7940565,
          "velocity": 1
        },
        {
          "duration": 0.09803900000000354,
          "durationTicks": 16,
          "midi": 64,
          "name": "E4",
          "ticks": 4560,
          "time": 27.941115,
          "velocity": 1
        },
        {
          "duration": 0.09803900000000354,
          "durationTicks": 16,
          "midi": 61,
          "name": "C#4",
          "ticks": 4560,
          "time": 27.941115,
          "velocity": 1
        },
        {
          "duration": 0.09803900000000354,
          "durationTicks": 16,
          "midi": 66,
          "name": "F#4",
          "ticks": 4608,
          "time": 28.235232,
          "velocity": 1
        },
        {
          "duration": 0.09803900000000354,
          "durationTicks": 16,
          "midi": 61,
          "name": "C#4",
          "ticks": 4608,
          "time": 28.235232,
          "velocity": 1
        },
        {
          "duration": 0.09803900000000354,
          "durationTicks": 16,
          "midi": 64,
          "name": "E4",
          "ticks": 4656,
          "time": 28.529349,
          "velocity": 1
        },
        {
          "duration": 0.09803900000000354,
          "durationTicks": 16,
          "midi": 61,
          "name": "C#4",
          "ticks": 4656,
          "time": 28.529349,
          "velocity": 1
        },
        {
          "duration": 0.09803900000000354,
          "durationTicks": 16,
          "midi": 66,
          "name": "F#4",
          "ticks": 4704,
          "time": 28.823466,
          "velocity": 1
        },
        {
          "duration": 0.09803900000000354,
          "durationTicks": 16,
          "midi": 61,
          "name": "C#4",
          "ticks": 4704,
          "time": 28.823466,
          "velocity": 1
        },
        {
          "duration": 0.09803900000000354,
          "durationTicks": 16,
          "midi": 66,
          "name": "F#4",
          "ticks": 4752,
          "time": 29.117583,
          "velocity": 1
        },
        {
          "duration": 0.09803900000000354,
          "durationTicks": 16,
          "midi": 61,
          "name": "C#4",
          "ticks": 4752,
          "time": 29.117583,
          "velocity": 1
        },
        {
          "duration": 0.09803900000000354,
          "durationTicks": 16,
          "midi": 64,
          "name": "E4",
          "ticks": 4776,
          "time": 29.2646415,
          "velocity": 1
        },
        {
          "duration": 0.09803900000000354,
          "durationTicks": 16,
          "midi": 61,
          "name": "C#4",
          "ticks": 4776,
          "time": 29.2646415,
          "velocity": 1
        },
        {
          "duration": 0.09803900000000354,
          "durationTicks": 16,
          "midi": 66,
          "name": "F#4",
          "ticks": 4824,
          "time": 29.5587585,
          "velocity": 1
        },
        {
          "duration": 0.09803900000000354,
          "durationTicks": 16,
          "midi": 61,
          "name": "C#4",
          "ticks": 4824,
          "time": 29.5587585,
          "velocity": 1
        },
        {
          "duration": 0.09803900000000354,
          "durationTicks": 16,
          "midi": 64,
          "name": "E4",
          "ticks": 4848,
          "time": 29.705817,
          "velocity": 1
        },
        {
          "duration": 0.09803900000000354,
          "durationTicks": 16,
          "midi": 61,
          "name": "C#4",
          "ticks": 4848,
          "time": 29.705817,
          "velocity": 1
        },
        {
          "duration": 0.09803900000000354,
          "durationTicks": 16,
          "midi": 66,
          "name": "F#4",
          "ticks": 4920,
          "time": 30.1469925,
          "velocity": 1
        },
        {
          "duration": 0.09803900000000354,
          "durationTicks": 16,
          "midi": 61,
          "name": "C#4",
          "ticks": 4920,
          "time": 30.1469925,
          "velocity": 1
        },
        {
          "duration": 0.09803900000000354,
          "durationTicks": 16,
          "midi": 64,
          "name": "E4",
          "ticks": 4944,
          "time": 30.294051,
          "velocity": 1
        },
        {
          "duration": 0.09803900000000354,
          "durationTicks": 16,
          "midi": 59,
          "name": "B3",
          "ticks": 4944,
          "time": 30.294051,
          "velocity": 1
        },
        {
          "duration": 0.09803900000000354,
          "durationTicks": 16,
          "midi": 66,
          "name": "F#4",
          "ticks": 4992,
          "time": 30.588168,
          "velocity": 1
        },
        {
          "duration": 0.09803900000000354,
          "durationTicks": 16,
          "midi": 61,
          "name": "C#4",
          "ticks": 4992,
          "time": 30.588168,
          "velocity": 1
        },
        {
          "duration": 0.09803900000000354,
          "durationTicks": 16,
          "midi": 64,
          "name": "E4",
          "ticks": 5040,
          "time": 30.882285,
          "velocity": 1
        },
        {
          "duration": 0.09803900000000354,
          "durationTicks": 16,
          "midi": 59,
          "name": "B3",
          "ticks": 5040,
          "time": 30.882285,
          "velocity": 1
        },
        {
          "duration": 0.09803900000000354,
          "durationTicks": 16,
          "midi": 66,
          "name": "F#4",
          "ticks": 5088,
          "time": 31.176402,
          "velocity": 1
        },
        {
          "duration": 0.09803900000000354,
          "durationTicks": 16,
          "midi": 61,
          "name": "C#4",
          "ticks": 5088,
          "time": 31.176402,
          "velocity": 1
        },
        {
          "duration": 0.09803900000000354,
          "durationTicks": 16,
          "midi": 66,
          "name": "F#4",
          "ticks": 5136,
          "time": 31.470519,
          "velocity": 1
        },
        {
          "duration": 0.09803900000000354,
          "durationTicks": 16,
          "midi": 61,
          "name": "C#4",
          "ticks": 5136,
          "time": 31.470519,
          "velocity": 1
        },
        {
          "duration": 0.09803900000000354,
          "durationTicks": 16,
          "midi": 64,
          "name": "E4",
          "ticks": 5160,
          "time": 31.6175775,
          "velocity": 1
        },
        {
          "duration": 0.09803900000000354,
          "durationTicks": 16,
          "midi": 59,
          "name": "B3",
          "ticks": 5160,
          "time": 31.6175775,
          "velocity": 1
        },
        {
          "duration": 0.09803900000000354,
          "durationTicks": 16,
          "midi": 66,
          "name": "F#4",
          "ticks": 5208,
          "time": 31.9116945,
          "velocity": 1
        },
        {
          "duration": 0.09803900000000354,
          "durationTicks": 16,
          "midi": 61,
          "name": "C#4",
          "ticks": 5208,
          "time": 31.9116945,
          "velocity": 1
        },
        {
          "duration": 0.09803899999999999,
          "durationTicks": 16,
          "midi": 64,
          "name": "E4",
          "ticks": 5232,
          "time": 32.058753,
          "velocity": 1
        },
        {
          "duration": 0.09803899999999999,
          "durationTicks": 16,
          "midi": 59,
          "name": "B3",
          "ticks": 5232,
          "time": 32.058753,
          "velocity": 1
        },
        {
          "duration": 0.09803899999999999,
          "durationTicks": 16,
          "midi": 66,
          "name": "F#4",
          "ticks": 5304,
          "time": 32.4999285,
          "velocity": 1
        },
        {
          "duration": 0.09803899999999999,
          "durationTicks": 16,
          "midi": 61,
          "name": "C#4",
          "ticks": 5304,
          "time": 32.4999285,
          "velocity": 1
        },
        {
          "duration": 0.09803899999999999,
          "durationTicks": 16,
          "midi": 64,
          "name": "E4",
          "ticks": 5328,
          "time": 32.646987,
          "velocity": 1
        },
        {
          "duration": 0.09803899999999999,
          "durationTicks": 16,
          "midi": 61,
          "name": "C#4",
          "ticks": 5328,
          "time": 32.646987,
          "velocity": 1
        },
        {
          "duration": 0.09803899999999999,
          "durationTicks": 16,
          "midi": 66,
          "name": "F#4",
          "ticks": 5376,
          "time": 32.941104,
          "velocity": 1
        },
        {
          "duration": 0.09803899999999999,
          "durationTicks": 16,
          "midi": 61,
          "name": "C#4",
          "ticks": 5376,
          "time": 32.941104,
          "velocity": 1
        },
        {
          "duration": 0.09803899999999999,
          "durationTicks": 16,
          "midi": 64,
          "name": "E4",
          "ticks": 5424,
          "time": 33.235221,
          "velocity": 1
        },
        {
          "duration": 0.09803899999999999,
          "durationTicks": 16,
          "midi": 61,
          "name": "C#4",
          "ticks": 5424,
          "time": 33.235221,
          "velocity": 1
        },
        {
          "duration": 0.09803899999999999,
          "durationTicks": 16,
          "midi": 66,
          "name": "F#4",
          "ticks": 5472,
          "time": 33.529338,
          "velocity": 1
        },
        {
          "duration": 0.09803899999999999,
          "durationTicks": 16,
          "midi": 61,
          "name": "C#4",
          "ticks": 5472,
          "time": 33.529338,
          "velocity": 1
        },
        {
          "duration": 0.09803899999999999,
          "durationTicks": 16,
          "midi": 66,
          "name": "F#4",
          "ticks": 5520,
          "time": 33.823455,
          "velocity": 1
        },
        {
          "duration": 0.09803899999999999,
          "durationTicks": 16,
          "midi": 61,
          "name": "C#4",
          "ticks": 5520,
          "time": 33.823455,
          "velocity": 1
        },
        {
          "duration": 0.09803899999999999,
          "durationTicks": 16,
          "midi": 64,
          "name": "E4",
          "ticks": 5544,
          "time": 33.9705135,
          "velocity": 1
        },
        {
          "duration": 0.09803899999999999,
          "durationTicks": 16,
          "midi": 61,
          "name": "C#4",
          "ticks": 5544,
          "time": 33.9705135,
          "velocity": 1
        },
        {
          "duration": 0.09803899999999999,
          "durationTicks": 16,
          "midi": 66,
          "name": "F#4",
          "ticks": 5592,
          "time": 34.2646305,
          "velocity": 1
        },
        {
          "duration": 0.09803899999999999,
          "durationTicks": 16,
          "midi": 61,
          "name": "C#4",
          "ticks": 5592,
          "time": 34.2646305,
          "velocity": 1
        },
        {
          "duration": 0.09803899999999999,
          "durationTicks": 16,
          "midi": 64,
          "name": "E4",
          "ticks": 5616,
          "time": 34.411689,
          "velocity": 1
        },
        {
          "duration": 0.09803899999999999,
          "durationTicks": 16,
          "midi": 61,
          "name": "C#4",
          "ticks": 5616,
          "time": 34.411689,
          "velocity": 1
        },
        {
          "duration": 0.09803899999999999,
          "durationTicks": 16,
          "midi": 66,
          "name": "F#4",
          "ticks": 5688,
          "time": 34.8528645,
          "velocity": 1
        },
        {
          "duration": 0.09803899999999999,
          "durationTicks": 16,
          "midi": 61,
          "name": "C#4",
          "ticks": 5688,
          "time": 34.8528645,
          "velocity": 1
        },
        {
          "duration": 0.09803899999999999,
          "durationTicks": 16,
          "midi": 64,
          "name": "E4",
          "ticks": 5712,
          "time": 34.999923,
          "velocity": 1
        },
        {
          "duration": 0.09803899999999999,
          "durationTicks": 16,
          "midi": 59,
          "name": "B3",
          "ticks": 5712,
          "time": 34.999923,
          "velocity": 1
        },
        {
          "duration": 0.09803899999999999,
          "durationTicks": 16,
          "midi": 66,
          "name": "F#4",
          "ticks": 5760,
          "time": 35.29404,
          "velocity": 1
        },
        {
          "duration": 0.09803899999999999,
          "durationTicks": 16,
          "midi": 61,
          "name": "C#4",
          "ticks": 5760,
          "time": 35.29404,
          "velocity": 1
        },
        {
          "duration": 0.09803899999999999,
          "durationTicks": 16,
          "midi": 64,
          "name": "E4",
          "ticks": 5808,
          "time": 35.588157,
          "velocity": 1
        },
        {
          "duration": 0.09803899999999999,
          "durationTicks": 16,
          "midi": 59,
          "name": "B3",
          "ticks": 5808,
          "time": 35.588157,
          "velocity": 1
        },
        {
          "duration": 0.09803899999999999,
          "durationTicks": 16,
          "midi": 66,
          "name": "F#4",
          "ticks": 5856,
          "time": 35.882274,
          "velocity": 1
        },
        {
          "duration": 0.09803899999999999,
          "durationTicks": 16,
          "midi": 61,
          "name": "C#4",
          "ticks": 5856,
          "time": 35.882274,
          "velocity": 1
        },
        {
          "duration": 0.09803899999999999,
          "durationTicks": 16,
          "midi": 66,
          "name": "F#4",
          "ticks": 5904,
          "time": 36.176391,
          "velocity": 1
        },
        {
          "duration": 0.09803899999999999,
          "durationTicks": 16,
          "midi": 61,
          "name": "C#4",
          "ticks": 5904,
          "time": 36.176391,
          "velocity": 1
        },
        {
          "duration": 0.09803899999999999,
          "durationTicks": 16,
          "midi": 64,
          "name": "E4",
          "ticks": 5928,
          "time": 36.3234495,
          "velocity": 1
        },
        {
          "duration": 0.09803899999999999,
          "durationTicks": 16,
          "midi": 59,
          "name": "B3",
          "ticks": 5928,
          "time": 36.3234495,
          "velocity": 1
        },
        {
          "duration": 0.09803899999999999,
          "durationTicks": 16,
          "midi": 66,
          "name": "F#4",
          "ticks": 5976,
          "time": 36.6175665,
          "velocity": 1
        },
        {
          "duration": 0.09803899999999999,
          "durationTicks": 16,
          "midi": 61,
          "name": "C#4",
          "ticks": 5976,
          "time": 36.6175665,
          "velocity": 1
        },
        {
          "duration": 0.09803899999999999,
          "durationTicks": 16,
          "midi": 64,
          "name": "E4",
          "ticks": 6000,
          "time": 36.764625,
          "velocity": 1
        },
        {
          "duration": 0.09803899999999999,
          "durationTicks": 16,
          "midi": 59,
          "name": "B3",
          "ticks": 6000,
          "time": 36.764625,
          "velocity": 1
        },
        {
          "duration": 0.09803899999999999,
          "durationTicks": 16,
          "midi": 63,
          "name": "D#4",
          "ticks": 6024,
          "time": 36.9116835,
          "velocity": 1
        },
        {
          "duration": 0.09803899999999999,
          "durationTicks": 16,
          "midi": 58,
          "name": "A#3",
          "ticks": 6024,
          "time": 36.9116835,
          "velocity": 1
        },
        {
          "duration": 0.09803899999999999,
          "durationTicks": 16,
          "midi": 61,
          "name": "C#4",
          "ticks": 6048,
          "time": 37.058742,
          "velocity": 1
        },
        {
          "duration": 0.09803899999999999,
          "durationTicks": 16,
          "midi": 56,
          "name": "G#3",
          "ticks": 6048,
          "time": 37.058742,
          "velocity": 1
        },
        {
          "duration": 0.09803899999999999,
          "durationTicks": 16,
          "midi": 66,
          "name": "F#4",
          "ticks": 6072,
          "time": 37.2058005,
          "velocity": 1
        },
        {
          "duration": 0.09803899999999999,
          "durationTicks": 16,
          "midi": 61,
          "name": "C#4",
          "ticks": 6072,
          "time": 37.2058005,
          "velocity": 1
        },
        {
          "duration": 0.09803899999999999,
          "durationTicks": 16,
          "midi": 64,
          "name": "E4",
          "ticks": 6096,
          "time": 37.352859,
          "velocity": 1
        },
        {
          "duration": 0.09803899999999999,
          "durationTicks": 16,
          "midi": 61,
          "name": "C#4",
          "ticks": 6096,
          "time": 37.352859,
          "velocity": 1
        },
        {
          "duration": 0.09803899999999999,
          "durationTicks": 16,
          "midi": 66,
          "name": "F#4",
          "ticks": 6144,
          "time": 37.646976,
          "velocity": 1
        },
        {
          "duration": 0.09803899999999999,
          "durationTicks": 16,
          "midi": 61,
          "name": "C#4",
          "ticks": 6144,
          "time": 37.646976,
          "velocity": 1
        },
        {
          "duration": 0.09803899999999999,
          "durationTicks": 16,
          "midi": 64,
          "name": "E4",
          "ticks": 6192,
          "time": 37.941093,
          "velocity": 1
        },
        {
          "duration": 0.09803899999999999,
          "durationTicks": 16,
          "midi": 61,
          "name": "C#4",
          "ticks": 6192,
          "time": 37.941093,
          "velocity": 1
        },
        {
          "duration": 0.09803899999999999,
          "durationTicks": 16,
          "midi": 66,
          "name": "F#4",
          "ticks": 6240,
          "time": 38.23521,
          "velocity": 1
        },
        {
          "duration": 0.09803899999999999,
          "durationTicks": 16,
          "midi": 61,
          "name": "C#4",
          "ticks": 6240,
          "time": 38.23521,
          "velocity": 1
        },
        {
          "duration": 0.09803899999999999,
          "durationTicks": 16,
          "midi": 66,
          "name": "F#4",
          "ticks": 6288,
          "time": 38.529327,
          "velocity": 1
        },
        {
          "duration": 0.09803899999999999,
          "durationTicks": 16,
          "midi": 61,
          "name": "C#4",
          "ticks": 6288,
          "time": 38.529327,
          "velocity": 1
        },
        {
          "duration": 0.09803899999999999,
          "durationTicks": 16,
          "midi": 64,
          "name": "E4",
          "ticks": 6312,
          "time": 38.6763855,
          "velocity": 1
        },
        {
          "duration": 0.09803899999999999,
          "durationTicks": 16,
          "midi": 61,
          "name": "C#4",
          "ticks": 6312,
          "time": 38.6763855,
          "velocity": 1
        },
        {
          "duration": 0.09803899999999999,
          "durationTicks": 16,
          "midi": 66,
          "name": "F#4",
          "ticks": 6360,
          "time": 38.9705025,
          "velocity": 1
        },
        {
          "duration": 0.09803899999999999,
          "durationTicks": 16,
          "midi": 61,
          "name": "C#4",
          "ticks": 6360,
          "time": 38.9705025,
          "velocity": 1
        },
        {
          "duration": 0.09803899999999999,
          "durationTicks": 16,
          "midi": 64,
          "name": "E4",
          "ticks": 6384,
          "time": 39.117561,
          "velocity": 1
        },
        {
          "duration": 0.09803899999999999,
          "durationTicks": 16,
          "midi": 61,
          "name": "C#4",
          "ticks": 6384,
          "time": 39.117561,
          "velocity": 1
        },
        {
          "duration": 0.09803899999999999,
          "durationTicks": 16,
          "midi": 66,
          "name": "F#4",
          "ticks": 6456,
          "time": 39.5587365,
          "velocity": 1
        },
        {
          "duration": 0.09803899999999999,
          "durationTicks": 16,
          "midi": 61,
          "name": "C#4",
          "ticks": 6456,
          "time": 39.5587365,
          "velocity": 1
        },
        {
          "duration": 0.09803899999999999,
          "durationTicks": 16,
          "midi": 64,
          "name": "E4",
          "ticks": 6480,
          "time": 39.705795,
          "velocity": 1
        },
        {
          "duration": 0.09803899999999999,
          "durationTicks": 16,
          "midi": 59,
          "name": "B3",
          "ticks": 6480,
          "time": 39.705795,
          "velocity": 1
        },
        {
          "duration": 0.09803899999999999,
          "durationTicks": 16,
          "midi": 66,
          "name": "F#4",
          "ticks": 6528,
          "time": 39.999912,
          "velocity": 1
        },
        {
          "duration": 0.09803899999999999,
          "durationTicks": 16,
          "midi": 61,
          "name": "C#4",
          "ticks": 6528,
          "time": 39.999912,
          "velocity": 1
        },
        {
          "duration": 0.09803899999999999,
          "durationTicks": 16,
          "midi": 64,
          "name": "E4",
          "ticks": 6576,
          "time": 40.294029,
          "velocity": 1
        },
        {
          "duration": 0.09803899999999999,
          "durationTicks": 16,
          "midi": 59,
          "name": "B3",
          "ticks": 6576,
          "time": 40.294029,
          "velocity": 1
        },
        {
          "duration": 0.09803899999999999,
          "durationTicks": 16,
          "midi": 66,
          "name": "F#4",
          "ticks": 6624,
          "time": 40.588146,
          "velocity": 1
        },
        {
          "duration": 0.09803899999999999,
          "durationTicks": 16,
          "midi": 61,
          "name": "C#4",
          "ticks": 6624,
          "time": 40.588146,
          "velocity": 1
        },
        {
          "duration": 0.09803899999999999,
          "durationTicks": 16,
          "midi": 66,
          "name": "F#4",
          "ticks": 6672,
          "time": 40.882263,
          "velocity": 1
        },
        {
          "duration": 0.09803899999999999,
          "durationTicks": 16,
          "midi": 61,
          "name": "C#4",
          "ticks": 6672,
          "time": 40.882263,
          "velocity": 1
        },
        {
          "duration": 0.09803899999999999,
          "durationTicks": 16,
          "midi": 64,
          "name": "E4",
          "ticks": 6696,
          "time": 41.0293215,
          "velocity": 1
        },
        {
          "duration": 0.09803899999999999,
          "durationTicks": 16,
          "midi": 59,
          "name": "B3",
          "ticks": 6696,
          "time": 41.0293215,
          "velocity": 1
        },
        {
          "duration": 0.09803899999999999,
          "durationTicks": 16,
          "midi": 66,
          "name": "F#4",
          "ticks": 6744,
          "time": 41.3234385,
          "velocity": 1
        },
        {
          "duration": 0.09803899999999999,
          "durationTicks": 16,
          "midi": 61,
          "name": "C#4",
          "ticks": 6744,
          "time": 41.3234385,
          "velocity": 1
        },
        {
          "duration": 0.09803899999999999,
          "durationTicks": 16,
          "midi": 64,
          "name": "E4",
          "ticks": 6768,
          "time": 41.470497,
          "velocity": 1
        },
        {
          "duration": 0.09803899999999999,
          "durationTicks": 16,
          "midi": 59,
          "name": "B3",
          "ticks": 6768,
          "time": 41.470497,
          "velocity": 1
        },
        {
          "duration": 0.09803899999999999,
          "durationTicks": 16,
          "midi": 66,
          "name": "F#4",
          "ticks": 6840,
          "time": 41.9116725,
          "velocity": 1
        },
        {
          "duration": 0.09803899999999999,
          "durationTicks": 16,
          "midi": 61,
          "name": "C#4",
          "ticks": 6840,
          "time": 41.9116725,
          "velocity": 1
        },
        {
          "duration": 0.09803899999999999,
          "durationTicks": 16,
          "midi": 64,
          "name": "E4",
          "ticks": 6864,
          "time": 42.058731,
          "velocity": 1
        },
        {
          "duration": 0.09803899999999999,
          "durationTicks": 16,
          "midi": 61,
          "name": "C#4",
          "ticks": 6864,
          "time": 42.058731,
          "velocity": 1
        },
        {
          "duration": 0.09803899999999999,
          "durationTicks": 16,
          "midi": 66,
          "name": "F#4",
          "ticks": 6912,
          "time": 42.352848,
          "velocity": 1
        },
        {
          "duration": 0.09803899999999999,
          "durationTicks": 16,
          "midi": 61,
          "name": "C#4",
          "ticks": 6912,
          "time": 42.352848,
          "velocity": 1
        },
        {
          "duration": 0.09803899999999999,
          "durationTicks": 16,
          "midi": 64,
          "name": "E4",
          "ticks": 6960,
          "time": 42.646965,
          "velocity": 1
        },
        {
          "duration": 0.09803899999999999,
          "durationTicks": 16,
          "midi": 61,
          "name": "C#4",
          "ticks": 6960,
          "time": 42.646965,
          "velocity": 1
        },
        {
          "duration": 0.09803899999999999,
          "durationTicks": 16,
          "midi": 66,
          "name": "F#4",
          "ticks": 7008,
          "time": 42.941082,
          "velocity": 1
        },
        {
          "duration": 0.09803899999999999,
          "durationTicks": 16,
          "midi": 61,
          "name": "C#4",
          "ticks": 7008,
          "time": 42.941082,
          "velocity": 1
        },
        {
          "duration": 0.09803899999999999,
          "durationTicks": 16,
          "midi": 66,
          "name": "F#4",
          "ticks": 7056,
          "time": 43.235199,
          "velocity": 1
        },
        {
          "duration": 0.09803899999999999,
          "durationTicks": 16,
          "midi": 61,
          "name": "C#4",
          "ticks": 7056,
          "time": 43.235199,
          "velocity": 1
        },
        {
          "duration": 0.09803899999999999,
          "durationTicks": 16,
          "midi": 64,
          "name": "E4",
          "ticks": 7080,
          "time": 43.3822575,
          "velocity": 1
        },
        {
          "duration": 0.09803899999999999,
          "durationTicks": 16,
          "midi": 61,
          "name": "C#4",
          "ticks": 7080,
          "time": 43.3822575,
          "velocity": 1
        },
        {
          "duration": 0.09803899999999288,
          "durationTicks": 16,
          "midi": 66,
          "name": "F#4",
          "ticks": 7128,
          "time": 43.67637450000001,
          "velocity": 1
        },
        {
          "duration": 0.09803899999999288,
          "durationTicks": 16,
          "midi": 61,
          "name": "C#4",
          "ticks": 7128,
          "time": 43.67637450000001,
          "velocity": 1
        },
        {
          "duration": 0.09803899999999288,
          "durationTicks": 16,
          "midi": 64,
          "name": "E4",
          "ticks": 7152,
          "time": 43.82343300000001,
          "velocity": 1
        },
        {
          "duration": 0.09803899999999288,
          "durationTicks": 16,
          "midi": 61,
          "name": "C#4",
          "ticks": 7152,
          "time": 43.82343300000001,
          "velocity": 1
        },
        {
          "duration": 0.09803899999999288,
          "durationTicks": 16,
          "midi": 66,
          "name": "F#4",
          "ticks": 7224,
          "time": 44.26460850000001,
          "velocity": 1
        },
        {
          "duration": 0.09803899999999288,
          "durationTicks": 16,
          "midi": 61,
          "name": "C#4",
          "ticks": 7224,
          "time": 44.26460850000001,
          "velocity": 1
        },
        {
          "duration": 0.09803899999999288,
          "durationTicks": 16,
          "midi": 64,
          "name": "E4",
          "ticks": 7248,
          "time": 44.41166700000001,
          "velocity": 1
        },
        {
          "duration": 0.09803899999999288,
          "durationTicks": 16,
          "midi": 59,
          "name": "B3",
          "ticks": 7248,
          "time": 44.41166700000001,
          "velocity": 1
        },
        {
          "duration": 0.09803899999999288,
          "durationTicks": 16,
          "midi": 66,
          "name": "F#4",
          "ticks": 7296,
          "time": 44.70578400000001,
          "velocity": 1
        },
        {
          "duration": 0.09803899999999288,
          "durationTicks": 16,
          "midi": 61,
          "name": "C#4",
          "ticks": 7296,
          "time": 44.70578400000001,
          "velocity": 1
        },
        {
          "duration": 0.09803899999999288,
          "durationTicks": 16,
          "midi": 64,
          "name": "E4",
          "ticks": 7344,
          "time": 44.99990100000001,
          "velocity": 1
        },
        {
          "duration": 0.09803899999999288,
          "durationTicks": 16,
          "midi": 59,
          "name": "B3",
          "ticks": 7344,
          "time": 44.99990100000001,
          "velocity": 1
        },
        {
          "duration": 0.09803899999999288,
          "durationTicks": 16,
          "midi": 66,
          "name": "F#4",
          "ticks": 7392,
          "time": 45.29401800000001,
          "velocity": 1
        },
        {
          "duration": 0.09803899999999288,
          "durationTicks": 16,
          "midi": 61,
          "name": "C#4",
          "ticks": 7392,
          "time": 45.29401800000001,
          "velocity": 1
        },
        {
          "duration": 0.09803899999999288,
          "durationTicks": 16,
          "midi": 66,
          "name": "F#4",
          "ticks": 7440,
          "time": 45.58813500000001,
          "velocity": 1
        },
        {
          "duration": 0.09803899999999288,
          "durationTicks": 16,
          "midi": 61,
          "name": "C#4",
          "ticks": 7440,
          "time": 45.58813500000001,
          "velocity": 1
        },
        {
          "duration": 0.09803899999999288,
          "durationTicks": 16,
          "midi": 64,
          "name": "E4",
          "ticks": 7464,
          "time": 45.73519350000001,
          "velocity": 1
        },
        {
          "duration": 0.09803899999999288,
          "durationTicks": 16,
          "midi": 59,
          "name": "B3",
          "ticks": 7464,
          "time": 45.73519350000001,
          "velocity": 1
        },
        {
          "duration": 0.09803899999999288,
          "durationTicks": 16,
          "midi": 66,
          "name": "F#4",
          "ticks": 7512,
          "time": 46.02931050000001,
          "velocity": 1
        },
        {
          "duration": 0.09803899999999288,
          "durationTicks": 16,
          "midi": 61,
          "name": "C#4",
          "ticks": 7512,
          "time": 46.02931050000001,
          "velocity": 1
        },
        {
          "duration": 0.09803899999999288,
          "durationTicks": 16,
          "midi": 64,
          "name": "E4",
          "ticks": 7536,
          "time": 46.17636900000001,
          "velocity": 1
        },
        {
          "duration": 0.09803899999999288,
          "durationTicks": 16,
          "midi": 59,
          "name": "B3",
          "ticks": 7536,
          "time": 46.17636900000001,
          "velocity": 1
        },
        {
          "duration": 0.09803899999999288,
          "durationTicks": 16,
          "midi": 66,
          "name": "F#4",
          "ticks": 7608,
          "time": 46.61754450000001,
          "velocity": 1
        },
        {
          "duration": 0.09803899999999288,
          "durationTicks": 16,
          "midi": 61,
          "name": "C#4",
          "ticks": 7608,
          "time": 46.61754450000001,
          "velocity": 1
        },
        {
          "duration": 0.09803899999999288,
          "durationTicks": 16,
          "midi": 64,
          "name": "E4",
          "ticks": 7632,
          "time": 46.76460300000001,
          "velocity": 1
        },
        {
          "duration": 0.09803899999999288,
          "durationTicks": 16,
          "midi": 61,
          "name": "C#4",
          "ticks": 7632,
          "time": 46.76460300000001,
          "velocity": 1
        },
        {
          "duration": 0.09803899999999288,
          "durationTicks": 16,
          "midi": 66,
          "name": "F#4",
          "ticks": 7680,
          "time": 47.05872000000001,
          "velocity": 1
        },
        {
          "duration": 0.09803899999999288,
          "durationTicks": 16,
          "midi": 61,
          "name": "C#4",
          "ticks": 7680,
          "time": 47.05872000000001,
          "velocity": 1
        },
        {
          "duration": 0.09803899999999288,
          "durationTicks": 16,
          "midi": 64,
          "name": "E4",
          "ticks": 7728,
          "time": 47.35283700000001,
          "velocity": 1
        },
        {
          "duration": 0.09803899999999288,
          "durationTicks": 16,
          "midi": 61,
          "name": "C#4",
          "ticks": 7728,
          "time": 47.35283700000001,
          "velocity": 1
        },
        {
          "duration": 0.09803899999999288,
          "durationTicks": 16,
          "midi": 66,
          "name": "F#4",
          "ticks": 7776,
          "time": 47.64695400000001,
          "velocity": 1
        },
        {
          "duration": 0.09803899999999288,
          "durationTicks": 16,
          "midi": 61,
          "name": "C#4",
          "ticks": 7776,
          "time": 47.64695400000001,
          "velocity": 1
        },
        {
          "duration": 0.09803899999999288,
          "durationTicks": 16,
          "midi": 66,
          "name": "F#4",
          "ticks": 7824,
          "time": 47.94107100000001,
          "velocity": 1
        },
        {
          "duration": 0.09803899999999288,
          "durationTicks": 16,
          "midi": 61,
          "name": "C#4",
          "ticks": 7824,
          "time": 47.94107100000001,
          "velocity": 1
        },
        {
          "duration": 0.09803899999999288,
          "durationTicks": 16,
          "midi": 64,
          "name": "E4",
          "ticks": 7848,
          "time": 48.08812950000001,
          "velocity": 1
        },
        {
          "duration": 0.09803899999999288,
          "durationTicks": 16,
          "midi": 61,
          "name": "C#4",
          "ticks": 7848,
          "time": 48.08812950000001,
          "velocity": 1
        },
        {
          "duration": 0.09803899999999288,
          "durationTicks": 16,
          "midi": 66,
          "name": "F#4",
          "ticks": 7896,
          "time": 48.38224650000001,
          "velocity": 1
        },
        {
          "duration": 0.09803899999999288,
          "durationTicks": 16,
          "midi": 61,
          "name": "C#4",
          "ticks": 7896,
          "time": 48.38224650000001,
          "velocity": 1
        },
        {
          "duration": 0.09803899999999288,
          "durationTicks": 16,
          "midi": 64,
          "name": "E4",
          "ticks": 7920,
          "time": 48.52930500000001,
          "velocity": 1
        },
        {
          "duration": 0.09803899999999288,
          "durationTicks": 16,
          "midi": 61,
          "name": "C#4",
          "ticks": 7920,
          "time": 48.52930500000001,
          "velocity": 1
        },
        {
          "duration": 0.09803899999999288,
          "durationTicks": 16,
          "midi": 66,
          "name": "F#4",
          "ticks": 7992,
          "time": 48.97048050000001,
          "velocity": 1
        },
        {
          "duration": 0.09803899999999288,
          "durationTicks": 16,
          "midi": 61,
          "name": "C#4",
          "ticks": 7992,
          "time": 48.97048050000001,
          "velocity": 1
        },
        {
          "duration": 0.09803899999999288,
          "durationTicks": 16,
          "midi": 64,
          "name": "E4",
          "ticks": 8016,
          "time": 49.11753900000001,
          "velocity": 1
        },
        {
          "duration": 0.09803899999999288,
          "durationTicks": 16,
          "midi": 59,
          "name": "B3",
          "ticks": 8016,
          "time": 49.11753900000001,
          "velocity": 1
        },
        {
          "duration": 0.09803899999999288,
          "durationTicks": 16,
          "midi": 66,
          "name": "F#4",
          "ticks": 8064,
          "time": 49.41165600000001,
          "velocity": 1
        },
        {
          "duration": 0.09803899999999288,
          "durationTicks": 16,
          "midi": 61,
          "name": "C#4",
          "ticks": 8064,
          "time": 49.41165600000001,
          "velocity": 1
        },
        {
          "duration": 0.09803899999999288,
          "durationTicks": 16,
          "midi": 64,
          "name": "E4",
          "ticks": 8112,
          "time": 49.70577300000001,
          "velocity": 1
        },
        {
          "duration": 0.09803899999999288,
          "durationTicks": 16,
          "midi": 59,
          "name": "B3",
          "ticks": 8112,
          "time": 49.70577300000001,
          "velocity": 1
        },
        {
          "duration": 0.09803899999999288,
          "durationTicks": 16,
          "midi": 66,
          "name": "F#4",
          "ticks": 8160,
          "time": 49.99989000000001,
          "velocity": 1
        },
        {
          "duration": 0.09803899999999288,
          "durationTicks": 16,
          "midi": 61,
          "name": "C#4",
          "ticks": 8160,
          "time": 49.99989000000001,
          "velocity": 1
        },
        {
          "duration": 0.09803899999999288,
          "durationTicks": 16,
          "midi": 66,
          "name": "F#4",
          "ticks": 8208,
          "time": 50.29400700000001,
          "velocity": 1
        },
        {
          "duration": 0.09803899999999288,
          "durationTicks": 16,
          "midi": 61,
          "name": "C#4",
          "ticks": 8208,
          "time": 50.29400700000001,
          "velocity": 1
        },
        {
          "duration": 0.09803899999999288,
          "durationTicks": 16,
          "midi": 64,
          "name": "E4",
          "ticks": 8232,
          "time": 50.44106550000001,
          "velocity": 1
        },
        {
          "duration": 0.09803899999999288,
          "durationTicks": 16,
          "midi": 59,
          "name": "B3",
          "ticks": 8232,
          "time": 50.44106550000001,
          "velocity": 1
        },
        {
          "duration": 0.09803899999999288,
          "durationTicks": 16,
          "midi": 66,
          "name": "F#4",
          "ticks": 8280,
          "time": 50.73518250000001,
          "velocity": 1
        },
        {
          "duration": 0.09803899999999288,
          "durationTicks": 16,
          "midi": 61,
          "name": "C#4",
          "ticks": 8280,
          "time": 50.73518250000001,
          "velocity": 1
        },
        {
          "duration": 0.09803899999999288,
          "durationTicks": 16,
          "midi": 64,
          "name": "E4",
          "ticks": 8304,
          "time": 50.88224100000001,
          "velocity": 1
        },
        {
          "duration": 0.09803899999999288,
          "durationTicks": 16,
          "midi": 59,
          "name": "B3",
          "ticks": 8304,
          "time": 50.88224100000001,
          "velocity": 1
        },
        {
          "duration": 0.09803899999999288,
          "durationTicks": 16,
          "midi": 66,
          "name": "F#4",
          "ticks": 8376,
          "time": 51.32341650000001,
          "velocity": 1
        },
        {
          "duration": 0.09803899999999288,
          "durationTicks": 16,
          "midi": 61,
          "name": "C#4",
          "ticks": 8376,
          "time": 51.32341650000001,
          "velocity": 1
        },
        {
          "duration": 0.09803899999999288,
          "durationTicks": 16,
          "midi": 64,
          "name": "E4",
          "ticks": 8400,
          "time": 51.47047500000001,
          "velocity": 1
        },
        {
          "duration": 0.09803899999999288,
          "durationTicks": 16,
          "midi": 61,
          "name": "C#4",
          "ticks": 8400,
          "time": 51.47047500000001,
          "velocity": 1
        },
        {
          "duration": 0.09803899999999288,
          "durationTicks": 16,
          "midi": 66,
          "name": "F#4",
          "ticks": 8448,
          "time": 51.76459200000001,
          "velocity": 1
        },
        {
          "duration": 0.09803899999999288,
          "durationTicks": 16,
          "midi": 61,
          "name": "C#4",
          "ticks": 8448,
          "time": 51.76459200000001,
          "velocity": 1
        },
        {
          "duration": 0.09803899999999288,
          "durationTicks": 16,
          "midi": 64,
          "name": "E4",
          "ticks": 8496,
          "time": 52.05870900000001,
          "velocity": 1
        },
        {
          "duration": 0.09803899999999288,
          "durationTicks": 16,
          "midi": 61,
          "name": "C#4",
          "ticks": 8496,
          "time": 52.05870900000001,
          "velocity": 1
        },
        {
          "duration": 0.09803899999999288,
          "durationTicks": 16,
          "midi": 66,
          "name": "F#4",
          "ticks": 8544,
          "time": 52.35282600000001,
          "velocity": 1
        },
        {
          "duration": 0.09803899999999288,
          "durationTicks": 16,
          "midi": 61,
          "name": "C#4",
          "ticks": 8544,
          "time": 52.35282600000001,
          "velocity": 1
        },
        {
          "duration": 0.09803899999999288,
          "durationTicks": 16,
          "midi": 66,
          "name": "F#4",
          "ticks": 8592,
          "time": 52.64694300000001,
          "velocity": 1
        },
        {
          "duration": 0.09803899999999288,
          "durationTicks": 16,
          "midi": 61,
          "name": "C#4",
          "ticks": 8592,
          "time": 52.64694300000001,
          "velocity": 1
        },
        {
          "duration": 0.09803899999999288,
          "durationTicks": 16,
          "midi": 64,
          "name": "E4",
          "ticks": 8616,
          "time": 52.79400150000001,
          "velocity": 1
        },
        {
          "duration": 0.09803899999999288,
          "durationTicks": 16,
          "midi": 61,
          "name": "C#4",
          "ticks": 8616,
          "time": 52.79400150000001,
          "velocity": 1
        },
        {
          "duration": 0.09803899999999288,
          "durationTicks": 16,
          "midi": 66,
          "name": "F#4",
          "ticks": 8664,
          "time": 53.08811850000001,
          "velocity": 1
        },
        {
          "duration": 0.09803899999999288,
          "durationTicks": 16,
          "midi": 61,
          "name": "C#4",
          "ticks": 8664,
          "time": 53.08811850000001,
          "velocity": 1
        },
        {
          "duration": 0.09803899999999288,
          "durationTicks": 16,
          "midi": 64,
          "name": "E4",
          "ticks": 8688,
          "time": 53.23517700000001,
          "velocity": 1
        },
        {
          "duration": 0.09803899999999288,
          "durationTicks": 16,
          "midi": 61,
          "name": "C#4",
          "ticks": 8688,
          "time": 53.23517700000001,
          "velocity": 1
        },
        {
          "duration": 0.09803899999999288,
          "durationTicks": 16,
          "midi": 66,
          "name": "F#4",
          "ticks": 8760,
          "time": 53.67635250000001,
          "velocity": 1
        },
        {
          "duration": 0.09803899999999288,
          "durationTicks": 16,
          "midi": 61,
          "name": "C#4",
          "ticks": 8760,
          "time": 53.67635250000001,
          "velocity": 1
        },
        {
          "duration": 0.09803899999999288,
          "durationTicks": 16,
          "midi": 64,
          "name": "E4",
          "ticks": 8784,
          "time": 53.82341100000001,
          "velocity": 1
        },
        {
          "duration": 0.09803899999999288,
          "durationTicks": 16,
          "midi": 59,
          "name": "B3",
          "ticks": 8784,
          "time": 53.82341100000001,
          "velocity": 1
        },
        {
          "duration": 0.09803899999999288,
          "durationTicks": 16,
          "midi": 66,
          "name": "F#4",
          "ticks": 8832,
          "time": 54.11752800000001,
          "velocity": 1
        },
        {
          "duration": 0.09803899999999288,
          "durationTicks": 16,
          "midi": 61,
          "name": "C#4",
          "ticks": 8832,
          "time": 54.11752800000001,
          "velocity": 1
        },
        {
          "duration": 0.09803899999999288,
          "durationTicks": 16,
          "midi": 64,
          "name": "E4",
          "ticks": 8880,
          "time": 54.41164500000001,
          "velocity": 1
        },
        {
          "duration": 0.09803899999999288,
          "durationTicks": 16,
          "midi": 59,
          "name": "B3",
          "ticks": 8880,
          "time": 54.41164500000001,
          "velocity": 1
        },
        {
          "duration": 0.09803899999999288,
          "durationTicks": 16,
          "midi": 66,
          "name": "F#4",
          "ticks": 8928,
          "time": 54.70576200000001,
          "velocity": 1
        },
        {
          "duration": 0.09803899999999288,
          "durationTicks": 16,
          "midi": 61,
          "name": "C#4",
          "ticks": 8928,
          "time": 54.70576200000001,
          "velocity": 1
        },
        {
          "duration": 0.09803899999999288,
          "durationTicks": 16,
          "midi": 66,
          "name": "F#4",
          "ticks": 8976,
          "time": 54.99987900000001,
          "velocity": 1
        },
        {
          "duration": 0.09803899999999288,
          "durationTicks": 16,
          "midi": 61,
          "name": "C#4",
          "ticks": 8976,
          "time": 54.99987900000001,
          "velocity": 1
        },
        {
          "duration": 0.09803899999999288,
          "durationTicks": 16,
          "midi": 64,
          "name": "E4",
          "ticks": 9000,
          "time": 55.14693750000001,
          "velocity": 1
        },
        {
          "duration": 0.09803899999999288,
          "durationTicks": 16,
          "midi": 59,
          "name": "B3",
          "ticks": 9000,
          "time": 55.14693750000001,
          "velocity": 1
        },
        {
          "duration": 0.09803899999999288,
          "durationTicks": 16,
          "midi": 66,
          "name": "F#4",
          "ticks": 9048,
          "time": 55.44105450000001,
          "velocity": 1
        },
        {
          "duration": 0.09803899999999288,
          "durationTicks": 16,
          "midi": 61,
          "name": "C#4",
          "ticks": 9048,
          "time": 55.44105450000001,
          "velocity": 1
        },
        {
          "duration": 0.09803899999999288,
          "durationTicks": 16,
          "midi": 64,
          "name": "E4",
          "ticks": 9072,
          "time": 55.58811300000001,
          "velocity": 1
        },
        {
          "duration": 0.09803899999999288,
          "durationTicks": 16,
          "midi": 59,
          "name": "B3",
          "ticks": 9072,
          "time": 55.58811300000001,
          "velocity": 1
        },
        {
          "duration": 0.09803899999999288,
          "durationTicks": 16,
          "midi": 63,
          "name": "D#4",
          "ticks": 9096,
          "time": 55.73517150000001,
          "velocity": 1
        },
        {
          "duration": 0.09803899999999288,
          "durationTicks": 16,
          "midi": 58,
          "name": "A#3",
          "ticks": 9096,
          "time": 55.73517150000001,
          "velocity": 1
        },
        {
          "duration": 0.09803899999999288,
          "durationTicks": 16,
          "midi": 61,
          "name": "C#4",
          "ticks": 9120,
          "time": 55.88223000000001,
          "velocity": 1
        },
        {
          "duration": 0.09803899999999288,
          "durationTicks": 16,
          "midi": 56,
          "name": "G#3",
          "ticks": 9120,
          "time": 55.88223000000001,
          "velocity": 1
        },
        {
          "duration": 0.09803899999999288,
          "durationTicks": 16,
          "midi": 64,
          "name": "E4",
          "ticks": 9144,
          "time": 56.02928850000001,
          "velocity": 1
        },
        {
          "duration": 0.09803899999999288,
          "durationTicks": 16,
          "midi": 61,
          "name": "C#4",
          "ticks": 9144,
          "time": 56.02928850000001,
          "velocity": 1
        },
        {
          "duration": 0.09803899999999288,
          "durationTicks": 16,
          "midi": 63,
          "name": "D#4",
          "ticks": 9168,
          "time": 56.17634700000001,
          "velocity": 1
        },
        {
          "duration": 0.09803899999999288,
          "durationTicks": 16,
          "midi": 59,
          "name": "B3",
          "ticks": 9168,
          "time": 56.17634700000001,
          "velocity": 1
        },
        {
          "duration": 0.09803899999999288,
          "durationTicks": 16,
          "midi": 64,
          "name": "E4",
          "ticks": 9216,
          "time": 56.47046400000001,
          "velocity": 1
        },
        {
          "duration": 0.09803899999999288,
          "durationTicks": 16,
          "midi": 61,
          "name": "C#4",
          "ticks": 9216,
          "time": 56.47046400000001,
          "velocity": 1
        },
        {
          "duration": 0.09803899999999288,
          "durationTicks": 16,
          "midi": 63,
          "name": "D#4",
          "ticks": 9264,
          "time": 56.76458100000001,
          "velocity": 1
        },
        {
          "duration": 0.09803899999999288,
          "durationTicks": 16,
          "midi": 59,
          "name": "B3",
          "ticks": 9264,
          "time": 56.76458100000001,
          "velocity": 1
        },
        {
          "duration": 0.09803899999999288,
          "durationTicks": 16,
          "midi": 64,
          "name": "E4",
          "ticks": 9312,
          "time": 57.05869800000001,
          "velocity": 1
        },
        {
          "duration": 0.09803899999999288,
          "durationTicks": 16,
          "midi": 61,
          "name": "C#4",
          "ticks": 9312,
          "time": 57.05869800000001,
          "velocity": 1
        },
        {
          "duration": 0.09803899999999288,
          "durationTicks": 16,
          "midi": 64,
          "name": "E4",
          "ticks": 9360,
          "time": 57.35281500000001,
          "velocity": 1
        },
        {
          "duration": 0.09803899999999288,
          "durationTicks": 16,
          "midi": 61,
          "name": "C#4",
          "ticks": 9360,
          "time": 57.35281500000001,
          "velocity": 1
        },
        {
          "duration": 0.09803899999999288,
          "durationTicks": 16,
          "midi": 63,
          "name": "D#4",
          "ticks": 9384,
          "time": 57.49987350000001,
          "velocity": 1
        },
        {
          "duration": 0.09803899999999288,
          "durationTicks": 16,
          "midi": 59,
          "name": "B3",
          "ticks": 9384,
          "time": 57.49987350000001,
          "velocity": 1
        },
        {
          "duration": 0.09803899999999288,
          "durationTicks": 16,
          "midi": 66,
          "name": "F#4",
          "ticks": 9432,
          "time": 57.79399050000001,
          "velocity": 1
        },
        {
          "duration": 0.09803899999999288,
          "durationTicks": 16,
          "midi": 61,
          "name": "C#4",
          "ticks": 9432,
          "time": 57.79399050000001,
          "velocity": 1
        },
        {
          "duration": 0.09803899999999288,
          "durationTicks": 16,
          "midi": 64,
          "name": "E4",
          "ticks": 9480,
          "time": 58.08810750000001,
          "velocity": 1
        },
        {
          "duration": 0.09803899999999288,
          "durationTicks": 16,
          "midi": 61,
          "name": "C#4",
          "ticks": 9480,
          "time": 58.08810750000001,
          "velocity": 1
        },
        {
          "duration": 0.09803899999999288,
          "durationTicks": 16,
          "midi": 63,
          "name": "D#4",
          "ticks": 9504,
          "time": 58.23516600000001,
          "velocity": 1
        },
        {
          "duration": 0.09803899999999288,
          "durationTicks": 16,
          "midi": 59,
          "name": "B3",
          "ticks": 9504,
          "time": 58.23516600000001,
          "velocity": 1
        },
        {
          "duration": 0.09803899999999288,
          "durationTicks": 16,
          "midi": 64,
          "name": "E4",
          "ticks": 9552,
          "time": 58.52928300000001,
          "velocity": 1
        },
        {
          "duration": 0.09803899999999288,
          "durationTicks": 16,
          "midi": 61,
          "name": "C#4",
          "ticks": 9552,
          "time": 58.52928300000001,
          "velocity": 1
        },
        {
          "duration": 0.09803899999999288,
          "durationTicks": 16,
          "midi": 63,
          "name": "D#4",
          "ticks": 9600,
          "time": 58.82340000000001,
          "velocity": 1
        },
        {
          "duration": 0.09803899999999288,
          "durationTicks": 16,
          "midi": 59,
          "name": "B3",
          "ticks": 9600,
          "time": 58.82340000000001,
          "velocity": 1
        },
        {
          "duration": 0.09803899999999288,
          "durationTicks": 16,
          "midi": 64,
          "name": "E4",
          "ticks": 9648,
          "time": 59.11751700000001,
          "velocity": 1
        },
        {
          "duration": 0.09803899999999288,
          "durationTicks": 16,
          "midi": 61,
          "name": "C#4",
          "ticks": 9648,
          "time": 59.11751700000001,
          "velocity": 1
        },
        {
          "duration": 0.09803899999999288,
          "durationTicks": 16,
          "midi": 64,
          "name": "E4",
          "ticks": 9696,
          "time": 59.41163400000001,
          "velocity": 1
        },
        {
          "duration": 0.09803899999999288,
          "durationTicks": 16,
          "midi": 61,
          "name": "C#4",
          "ticks": 9696,
          "time": 59.41163400000001,
          "velocity": 1
        },
        {
          "duration": 0.09803899999999288,
          "durationTicks": 16,
          "midi": 63,
          "name": "D#4",
          "ticks": 9720,
          "time": 59.55869250000001,
          "velocity": 1
        },
        {
          "duration": 0.09803899999999288,
          "durationTicks": 16,
          "midi": 59,
          "name": "B3",
          "ticks": 9720,
          "time": 59.55869250000001,
          "velocity": 1
        },
        {
          "duration": 0.09803899999999288,
          "durationTicks": 16,
          "midi": 61,
          "name": "C#4",
          "ticks": 9768,
          "time": 59.852809500000006,
          "velocity": 1
        },
        {
          "duration": 0.09803899999999288,
          "durationTicks": 16,
          "midi": 58,
          "name": "A#3",
          "ticks": 9768,
          "time": 59.852809500000006,
          "velocity": 1
        },
        {
          "duration": 0.09803899999999288,
          "durationTicks": 16,
          "midi": 64,
          "name": "E4",
          "ticks": 9816,
          "time": 60.146926500000006,
          "velocity": 1
        },
        {
          "duration": 0.09803899999999288,
          "durationTicks": 16,
          "midi": 61,
          "name": "C#4",
          "ticks": 9816,
          "time": 60.146926500000006,
          "velocity": 1
        },
        {
          "duration": 0.09803899999999288,
          "durationTicks": 16,
          "midi": 63,
          "name": "D#4",
          "ticks": 9840,
          "time": 60.293985000000006,
          "velocity": 1
        },
        {
          "duration": 0.09803899999999288,
          "durationTicks": 16,
          "midi": 59,
          "name": "B3",
          "ticks": 9840,
          "time": 60.293985000000006,
          "velocity": 1
        },
        {
          "duration": 0.09803899999999288,
          "durationTicks": 16,
          "midi": 64,
          "name": "E4",
          "ticks": 9888,
          "time": 60.588102000000006,
          "velocity": 1
        },
        {
          "duration": 0.09803899999999288,
          "durationTicks": 16,
          "midi": 61,
          "name": "C#4",
          "ticks": 9888,
          "time": 60.588102000000006,
          "velocity": 1
        }
      ]
    },
    {
      "channel": 0,
      "controlChanges": {
        "0": [
          {
            "number": 0,
            "ticks": 259,
            "time": 1.5870063125,
            "value": 0.007874015748031496
          }
        ],
        "1": [
          {
            "number": 1,
            "ticks": 255,
            "time": 1.5624965625,
            "value": 0
          }
        ],
        "5": [
          {
            "number": 5,
            "ticks": 258,
            "time": 1.580878875,
            "value": 0
          }
        ],
        "6": [
          {
            "number": 6,
            "ticks": 246,
            "time": 1.507349625,
            "value": 0.12598425196850394
          },
          {
            "number": 6,
            "ticks": 248,
            "time": 1.5196045000000002,
            "value": 0.4645669291338583
          }
        ],
        "7": [
          {
            "number": 7,
            "ticks": 252,
            "time": 1.54411425,
            "value": 0.6692913385826772
          }
        ],
        "10": [
          {
            "number": 10,
            "ticks": 254,
            "time": 1.5563691250000002,
            "value": 0.4094488188976378
          }
        ],
        "11": [
          {
            "number": 11,
            "ticks": 253,
            "time": 1.5502416875,
            "value": 0.7874015748031497
          }
        ],
        "32": [
          {
            "number": 32,
            "ticks": 260,
            "time": 1.5931337500000002,
            "value": 0.015748031496062992
          }
        ],
        "64": [
          {
            "number": 64,
            "ticks": 256,
            "time": 1.568624,
            "value": 0
          }
        ],
        "65": [
          {
            "number": 65,
            "ticks": 257,
            "time": 1.5747514375000002,
            "value": 0
          }
        ],
        "91": [
          {
            "number": 91,
            "ticks": 240,
            "time": 1.470585,
            "value": 0.5039370078740157
          }
        ],
        "93": [
          {
            "number": 93,
            "ticks": 241,
            "time": 1.4767124375,
            "value": 0.1889763779527559
          }
        ],
        "94": [
          {
            "number": 94,
            "ticks": 242,
            "time": 1.4828398750000003,
            "value": 0.15748031496062992
          }
        ],
        "100": [
          {
            "number": 100,
            "ticks": 244,
            "time": 1.49509475,
            "value": 0
          },
          {
            "number": 100,
            "ticks": 248,
            "time": 1.5196045000000002,
            "value": 0.007874015748031496
          }
        ],
        "101": [
          {
            "number": 101,
            "ticks": 245,
            "time": 1.5012221875000002,
            "value": 0
          },
          {
            "number": 101,
            "ticks": 248,
            "time": 1.5196045000000002,
            "value": 0
          }
        ]
      },
      "pitchBends": [
        {
          "ticks": 247,
          "time": 1.5134770625,
          "value": 0
        }
      ],
      "instrument": {
        "family": "piano",
        "number": 0,
        "name": "acoustic grand piano"
      },
      "name": "SUB1'\u0000",
      "notes": [],
      "endOfTrackTicks": 9912
    },
    {
      "channel": 12,
      "controlChanges": {
        "0": [
          {
            "number": 0,
            "ticks": 312,
            "time": 1.9117605000000002,
            "value": 0.007874015748031496
          },
          {
            "number": 0,
            "ticks": 3000,
            "time": 18.3823125,
            "value": 0
          }
        ],
        "6": [
          {
            "number": 6,
            "ticks": 262,
            "time": 1.605388625,
            "value": 0.3937007874015748
          },
          {
            "number": 6,
            "ticks": 263,
            "time": 1.6115160625000002,
            "value": 0.5511811023622047
          },
          {
            "number": 6,
            "ticks": 264,
            "time": 1.6176435,
            "value": 0.47244094488188976
          },
          {
            "number": 6,
            "ticks": 265,
            "time": 1.6237709375,
            "value": 1
          },
          {
            "number": 6,
            "ticks": 266,
            "time": 1.6298983750000002,
            "value": 0.5511811023622047
          }
        ],
        "7": [
          {
            "number": 7,
            "ticks": 312,
            "time": 1.9117605000000002,
            "value": 0.6850393700787402
          },
          {
            "number": 7,
            "ticks": 3000,
            "time": 18.3823125,
            "value": 0.4881889763779528
          },
          {
            "number": 7,
            "ticks": 9192,
            "time": 56.32340550000001,
            "value": 0.6850393700787402
          },
          {
            "number": 7,
            "ticks": 9240,
            "time": 56.61752250000001,
            "value": 0.6377952755905512
          },
          {
            "number": 7,
            "ticks": 9288,
            "time": 56.91163950000001,
            "value": 0.5984251968503937
          },
          {
            "number": 7,
            "ticks": 9336,
            "time": 57.20575650000001,
            "value": 0.5511811023622047
          },
          {
            "number": 7,
            "ticks": 9384,
            "time": 57.49987350000001,
            "value": 0.5118110236220472
          },
          {
            "number": 7,
            "ticks": 9432,
            "time": 57.79399050000001,
            "value": 0.4645669291338583
          },
          {
            "number": 7,
            "ticks": 9480,
            "time": 58.08810750000001,
            "value": 0.4251968503937008
          },
          {
            "number": 7,
            "ticks": 9528,
            "time": 58.38222450000001,
            "value": 0.3779527559055118
          },
          {
            "number": 7,
            "ticks": 9576,
            "time": 58.67634150000001,
            "value": 0.33858267716535434
          },
          {
            "number": 7,
            "ticks": 9624,
            "time": 58.97045850000001,
            "value": 0.2992125984251969
          },
          {
            "number": 7,
            "ticks": 9672,
            "time": 59.26457550000001,
            "value": 0.25196850393700787
          },
          {
            "number": 7,
            "ticks": 9720,
            "time": 59.55869250000001,
            "value": 0.2125984251968504
          },
          {
            "number": 7,
            "ticks": 9768,
            "time": 59.852809500000006,
            "value": 0.16535433070866143
          },
          {
            "number": 7,
            "ticks": 9816,
            "time": 60.146926500000006,
            "value": 0.12598425196850394
          },
          {
            "number": 7,
            "ticks": 9864,
            "time": 60.441043500000006,
            "value": 0.07874015748031496
          },
          {
            "number": 7,
            "ticks": 9912,
            "time": 60.735160500000006,
            "value": 0.03937007874015748
          }
        ],
        "32": [
          {
            "number": 32,
            "ticks": 312,
            "time": 1.9117605000000002,
            "value": 0.015748031496062992
          },
          {
            "number": 32,
            "ticks": 3000,
            "time": 18.3823125,
            "value": 0.007874015748031496
          }
        ],
        "94": [
          {
            "number": 94,
            "ticks": 312,
            "time": 1.9117605000000002,
            "value": 0.15748031496062992
          },
          {
            "number": 94,
            "ticks": 3000,
            "time": 18.3823125,
            "value": 0.31496062992125984
          }
        ],
        "98": [
          {
            "number": 98,
            "ticks": 262,
            "time": 1.605388625,
            "value": 0.25196850393700787
          },
          {
            "number": 98,
            "ticks": 263,
            "time": 1.6115160625000002,
            "value": 0.25984251968503935
          },
          {
            "number": 98,
            "ticks": 264,
            "time": 1.6176435,
            "value": 0.7795275590551181
          },
          {
            "number": 98,
            "ticks": 265,
            "time": 1.6237709375,
            "value": 0.7874015748031497
          },
          {
            "number": 98,
            "ticks": 266,
            "time": 1.6298983750000002,
            "value": 0.8031496062992126
          }
        ],
        "99": [
          {
            "number": 99,
            "ticks": 262,
            "time": 1.605388625,
            "value": 0.007874015748031496
          },
          {
            "number": 99,
            "ticks": 263,
            "time": 1.6115160625000002,
            "value": 0.007874015748031496
          },
          {
            "number": 99,
            "ticks": 264,
            "time": 1.6176435,
            "value": 0.007874015748031496
          },
          {
            "number": 99,
            "ticks": 265,
            "time": 1.6237709375,
            "value": 0.007874015748031496
          },
          {
            "number": 99,
            "ticks": 266,
            "time": 1.6298983750000002,
            "value": 0.007874015748031496
          }
        ]
      },
      "pitchBends": [],
      "instrument": {
        "family": "brass",
        "number": 62,
        "name": "synthbrass 1"
      },
      "name": "",
      "notes": [
        {
          "duration": 0.09803899999999999,
          "durationTicks": 16,
          "midi": 64,
          "name": "E4",
          "ticks": 312,
          "time": 1.9117605000000002,
          "velocity": 1
        },
        {
          "duration": 0.09803899999999999,
          "durationTicks": 16,
          "midi": 61,
          "name": "C#4",
          "ticks": 312,
          "time": 1.9117605000000002,
          "velocity": 1
        },
        {
          "duration": 0.09803899999999999,
          "durationTicks": 16,
          "midi": 63,
          "name": "D#4",
          "ticks": 336,
          "time": 2.058819,
          "velocity": 1
        },
        {
          "duration": 0.09803899999999999,
          "durationTicks": 16,
          "midi": 59,
          "name": "B3",
          "ticks": 336,
          "time": 2.058819,
          "velocity": 1
        },
        {
          "duration": 0.09803899999999999,
          "durationTicks": 16,
          "midi": 64,
          "name": "E4",
          "ticks": 384,
          "time": 2.352936,
          "velocity": 1
        },
        {
          "duration": 0.09803899999999999,
          "durationTicks": 16,
          "midi": 61,
          "name": "C#4",
          "ticks": 384,
          "time": 2.352936,
          "velocity": 1
        },
        {
          "duration": 0.09803899999999954,
          "durationTicks": 16,
          "midi": 63,
          "name": "D#4",
          "ticks": 432,
          "time": 2.6470530000000005,
          "velocity": 1
        },
        {
          "duration": 0.09803899999999954,
          "durationTicks": 16,
          "midi": 59,
          "name": "B3",
          "ticks": 432,
          "time": 2.6470530000000005,
          "velocity": 1
        },
        {
          "duration": 0.09803899999999999,
          "durationTicks": 16,
          "midi": 64,
          "name": "E4",
          "ticks": 480,
          "time": 2.9411700000000005,
          "velocity": 1
        },
        {
          "duration": 0.09803899999999999,
          "durationTicks": 16,
          "midi": 61,
          "name": "C#4",
          "ticks": 480,
          "time": 2.9411700000000005,
          "velocity": 1
        },
        {
          "duration": 0.09803899999999999,
          "durationTicks": 16,
          "midi": 64,
          "name": "E4",
          "ticks": 528,
          "time": 3.2352870000000005,
          "velocity": 1
        },
        {
          "duration": 0.09803899999999999,
          "durationTicks": 16,
          "midi": 61,
          "name": "C#4",
          "ticks": 528,
          "time": 3.2352870000000005,
          "velocity": 1
        },
        {
          "duration": 0.09803899999999999,
          "durationTicks": 16,
          "midi": 63,
          "name": "D#4",
          "ticks": 552,
          "time": 3.3823455000000004,
          "velocity": 1
        },
        {
          "duration": 0.09803899999999999,
          "durationTicks": 16,
          "midi": 59,
          "name": "B3",
          "ticks": 552,
          "time": 3.3823455000000004,
          "velocity": 1
        },
        {
          "duration": 0.09803899999999999,
          "durationTicks": 16,
          "midi": 66,
          "name": "F#4",
          "ticks": 600,
          "time": 3.6764625000000004,
          "velocity": 1
        },
        {
          "duration": 0.09803899999999999,
          "durationTicks": 16,
          "midi": 61,
          "name": "C#4",
          "ticks": 600,
          "time": 3.6764625000000004,
          "velocity": 1
        },
        {
          "duration": 0.09803899999999999,
          "durationTicks": 16,
          "midi": 64,
          "name": "E4",
          "ticks": 648,
          "time": 3.9705795000000004,
          "velocity": 1
        },
        {
          "duration": 0.09803899999999999,
          "durationTicks": 16,
          "midi": 61,
          "name": "C#4",
          "ticks": 648,
          "time": 3.9705795000000004,
          "velocity": 1
        },
        {
          "duration": 0.09803899999999999,
          "durationTicks": 16,
          "midi": 63,
          "name": "D#4",
          "ticks": 672,
          "time": 4.117638,
          "velocity": 1
        },
        {
          "duration": 0.09803899999999999,
          "durationTicks": 16,
          "midi": 59,
          "name": "B3",
          "ticks": 672,
          "time": 4.117638,
          "velocity": 1
        },
        {
          "duration": 0.09803899999999999,
          "durationTicks": 16,
          "midi": 64,
          "name": "E4",
          "ticks": 720,
          "time": 4.411755,
          "velocity": 1
        },
        {
          "duration": 0.09803899999999999,
          "durationTicks": 16,
          "midi": 61,
          "name": "C#4",
          "ticks": 720,
          "time": 4.411755,
          "velocity": 1
        },
        {
          "duration": 0.0980389999999991,
          "durationTicks": 16,
          "midi": 63,
          "name": "D#4",
          "ticks": 768,
          "time": 4.705872000000001,
          "velocity": 1
        },
        {
          "duration": 0.0980389999999991,
          "durationTicks": 16,
          "midi": 59,
          "name": "B3",
          "ticks": 768,
          "time": 4.705872000000001,
          "velocity": 1
        },
        {
          "duration": 0.0980389999999991,
          "durationTicks": 16,
          "midi": 64,
          "name": "E4",
          "ticks": 816,
          "time": 4.999989000000001,
          "velocity": 1
        },
        {
          "duration": 0.0980389999999991,
          "durationTicks": 16,
          "midi": 61,
          "name": "C#4",
          "ticks": 816,
          "time": 4.999989000000001,
          "velocity": 1
        },
        {
          "duration": 0.0980389999999991,
          "durationTicks": 16,
          "midi": 64,
          "name": "E4",
          "ticks": 864,
          "time": 5.294106000000001,
          "velocity": 1
        },
        {
          "duration": 0.0980389999999991,
          "durationTicks": 16,
          "midi": 61,
          "name": "C#4",
          "ticks": 864,
          "time": 5.294106000000001,
          "velocity": 1
        },
        {
          "duration": 0.0980389999999991,
          "durationTicks": 16,
          "midi": 63,
          "name": "D#4",
          "ticks": 888,
          "time": 5.441164500000001,
          "velocity": 1
        },
        {
          "duration": 0.0980389999999991,
          "durationTicks": 16,
          "midi": 59,
          "name": "B3",
          "ticks": 888,
          "time": 5.441164500000001,
          "velocity": 1
        },
        {
          "duration": 0.0980389999999991,
          "durationTicks": 16,
          "midi": 61,
          "name": "C#4",
          "ticks": 936,
          "time": 5.735281500000001,
          "velocity": 1
        },
        {
          "duration": 0.0980389999999991,
          "durationTicks": 16,
          "midi": 58,
          "name": "A#3",
          "ticks": 936,
          "time": 5.735281500000001,
          "velocity": 1
        },
        {
          "duration": 0.09803899999999999,
          "durationTicks": 16,
          "midi": 64,
          "name": "E4",
          "ticks": 984,
          "time": 6.029398500000001,
          "velocity": 1
        },
        {
          "duration": 0.09803899999999999,
          "durationTicks": 16,
          "midi": 61,
          "name": "C#4",
          "ticks": 984,
          "time": 6.029398500000001,
          "velocity": 1
        },
        {
          "duration": 0.09803899999999999,
          "durationTicks": 16,
          "midi": 63,
          "name": "D#4",
          "ticks": 1008,
          "time": 6.176457000000001,
          "velocity": 1
        },
        {
          "duration": 0.09803899999999999,
          "durationTicks": 16,
          "midi": 59,
          "name": "B3",
          "ticks": 1008,
          "time": 6.176457000000001,
          "velocity": 1
        },
        {
          "duration": 0.09803899999999999,
          "durationTicks": 16,
          "midi": 64,
          "name": "E4",
          "ticks": 1056,
          "time": 6.470574000000001,
          "velocity": 1
        },
        {
          "duration": 0.09803899999999999,
          "durationTicks": 16,
          "midi": 61,
          "name": "C#4",
          "ticks": 1056,
          "time": 6.470574000000001,
          "velocity": 1
        },
        {
          "duration": 0.09803899999999999,
          "durationTicks": 16,
          "midi": 63,
          "name": "D#4",
          "ticks": 1104,
          "time": 6.764691000000001,
          "velocity": 1
        },
        {
          "duration": 0.09803899999999999,
          "durationTicks": 16,
          "midi": 59,
          "name": "B3",
          "ticks": 1104,
          "time": 6.764691000000001,
          "velocity": 1
        },
        {
          "duration": 0.09803899999999999,
          "durationTicks": 16,
          "midi": 64,
          "name": "E4",
          "ticks": 1152,
          "time": 7.058808000000001,
          "velocity": 1
        },
        {
          "duration": 0.09803899999999999,
          "durationTicks": 16,
          "midi": 61,
          "name": "C#4",
          "ticks": 1152,
          "time": 7.058808000000001,
          "velocity": 1
        },
        {
          "duration": 0.09803899999999999,
          "durationTicks": 16,
          "midi": 64,
          "name": "E4",
          "ticks": 1200,
          "time": 7.352925000000001,
          "velocity": 1
        },
        {
          "duration": 0.09803899999999999,
          "durationTicks": 16,
          "midi": 61,
          "name": "C#4",
          "ticks": 1200,
          "time": 7.352925000000001,
          "velocity": 1
        },
        {
          "duration": 0.09803899999999999,
          "durationTicks": 16,
          "midi": 63,
          "name": "D#4",
          "ticks": 1224,
          "time": 7.499983500000001,
          "velocity": 1
        },
        {
          "duration": 0.09803899999999999,
          "durationTicks": 16,
          "midi": 59,
          "name": "B3",
          "ticks": 1224,
          "time": 7.499983500000001,
          "velocity": 1
        },
        {
          "duration": 0.09803899999999999,
          "durationTicks": 16,
          "midi": 66,
          "name": "F#4",
          "ticks": 1272,
          "time": 7.794100500000001,
          "velocity": 1
        },
        {
          "duration": 0.09803899999999999,
          "durationTicks": 16,
          "midi": 61,
          "name": "C#4",
          "ticks": 1272,
          "time": 7.794100500000001,
          "velocity": 1
        },
        {
          "duration": 0.09803899999999999,
          "durationTicks": 16,
          "midi": 64,
          "name": "E4",
          "ticks": 1320,
          "time": 8.0882175,
          "velocity": 1
        },
        {
          "duration": 0.09803899999999999,
          "durationTicks": 16,
          "midi": 61,
          "name": "C#4",
          "ticks": 1320,
          "time": 8.0882175,
          "velocity": 1
        },
        {
          "duration": 0.09803899999999999,
          "durationTicks": 16,
          "midi": 63,
          "name": "D#4",
          "ticks": 1344,
          "time": 8.235276,
          "velocity": 1
        },
        {
          "duration": 0.09803899999999999,
          "durationTicks": 16,
          "midi": 59,
          "name": "B3",
          "ticks": 1344,
          "time": 8.235276,
          "velocity": 1
        },
        {
          "duration": 0.09803899999999999,
          "durationTicks": 16,
          "midi": 64,
          "name": "E4",
          "ticks": 1392,
          "time": 8.529393,
          "velocity": 1
        },
        {
          "duration": 0.09803899999999999,
          "durationTicks": 16,
          "midi": 61,
          "name": "C#4",
          "ticks": 1392,
          "time": 8.529393,
          "velocity": 1
        },
        {
          "duration": 0.09803899999999999,
          "durationTicks": 16,
          "midi": 63,
          "name": "D#4",
          "ticks": 1440,
          "time": 8.82351,
          "velocity": 1
        },
        {
          "duration": 0.09803899999999999,
          "durationTicks": 16,
          "midi": 59,
          "name": "B3",
          "ticks": 1440,
          "time": 8.82351,
          "velocity": 1
        },
        {
          "duration": 0.09803899999999999,
          "durationTicks": 16,
          "midi": 64,
          "name": "E4",
          "ticks": 1488,
          "time": 9.117627,
          "velocity": 1
        },
        {
          "duration": 0.09803899999999999,
          "durationTicks": 16,
          "midi": 61,
          "name": "C#4",
          "ticks": 1488,
          "time": 9.117627,
          "velocity": 1
        },
        {
          "duration": 0.09803899999999999,
          "durationTicks": 16,
          "midi": 64,
          "name": "E4",
          "ticks": 1536,
          "time": 9.411744,
          "velocity": 1
        },
        {
          "duration": 0.09803899999999999,
          "durationTicks": 16,
          "midi": 61,
          "name": "C#4",
          "ticks": 1536,
          "time": 9.411744,
          "velocity": 1
        },
        {
          "duration": 0.09803899999999999,
          "durationTicks": 16,
          "midi": 63,
          "name": "D#4",
          "ticks": 1560,
          "time": 9.5588025,
          "velocity": 1
        },
        {
          "duration": 0.09803899999999999,
          "durationTicks": 16,
          "midi": 59,
          "name": "B3",
          "ticks": 1560,
          "time": 9.5588025,
          "velocity": 1
        },
        {
          "duration": 0.09803899999999999,
          "durationTicks": 16,
          "midi": 61,
          "name": "C#4",
          "ticks": 1608,
          "time": 9.8529195,
          "velocity": 1
        },
        {
          "duration": 0.09803899999999999,
          "durationTicks": 16,
          "midi": 58,
          "name": "A#3",
          "ticks": 1608,
          "time": 9.8529195,
          "velocity": 1
        },
        {
          "duration": 0.09803899999999999,
          "durationTicks": 16,
          "midi": 64,
          "name": "E4",
          "ticks": 1656,
          "time": 10.1470365,
          "velocity": 1
        },
        {
          "duration": 0.09803899999999999,
          "durationTicks": 16,
          "midi": 61,
          "name": "C#4",
          "ticks": 1656,
          "time": 10.1470365,
          "velocity": 1
        },
        {
          "duration": 0.09803899999999999,
          "durationTicks": 16,
          "midi": 63,
          "name": "D#4",
          "ticks": 1680,
          "time": 10.294095,
          "velocity": 1
        },
        {
          "duration": 0.09803899999999999,
          "durationTicks": 16,
          "midi": 59,
          "name": "B3",
          "ticks": 1680,
          "time": 10.294095,
          "velocity": 1
        },
        {
          "duration": 0.09803899999999999,
          "durationTicks": 16,
          "midi": 64,
          "name": "E4",
          "ticks": 1728,
          "time": 10.588212,
          "velocity": 1
        },
        {
          "duration": 0.09803899999999999,
          "durationTicks": 16,
          "midi": 61,
          "name": "C#4",
          "ticks": 1728,
          "time": 10.588212,
          "velocity": 1
        },
        {
          "duration": 0.09803899999999999,
          "durationTicks": 16,
          "midi": 63,
          "name": "D#4",
          "ticks": 1776,
          "time": 10.882329,
          "velocity": 1
        },
        {
          "duration": 0.09803899999999999,
          "durationTicks": 16,
          "midi": 59,
          "name": "B3",
          "ticks": 1776,
          "time": 10.882329,
          "velocity": 1
        },
        {
          "duration": 0.09803899999999999,
          "durationTicks": 16,
          "midi": 64,
          "name": "E4",
          "ticks": 1824,
          "time": 11.176446,
          "velocity": 1
        },
        {
          "duration": 0.09803899999999999,
          "durationTicks": 16,
          "midi": 61,
          "name": "C#4",
          "ticks": 1824,
          "time": 11.176446,
          "velocity": 1
        },
        {
          "duration": 0.09803899999999999,
          "durationTicks": 16,
          "midi": 64,
          "name": "E4",
          "ticks": 1872,
          "time": 11.470563,
          "velocity": 1
        },
        {
          "duration": 0.09803899999999999,
          "durationTicks": 16,
          "midi": 61,
          "name": "C#4",
          "ticks": 1872,
          "time": 11.470563,
          "velocity": 1
        },
        {
          "duration": 0.09803899999999999,
          "durationTicks": 16,
          "midi": 63,
          "name": "D#4",
          "ticks": 1896,
          "time": 11.6176215,
          "velocity": 1
        },
        {
          "duration": 0.09803899999999999,
          "durationTicks": 16,
          "midi": 59,
          "name": "B3",
          "ticks": 1896,
          "time": 11.6176215,
          "velocity": 1
        },
        {
          "duration": 0.09803899999999999,
          "durationTicks": 16,
          "midi": 66,
          "name": "F#4",
          "ticks": 1944,
          "time": 11.9117385,
          "velocity": 1
        },
        {
          "duration": 0.09803899999999999,
          "durationTicks": 16,
          "midi": 61,
          "name": "C#4",
          "ticks": 1944,
          "time": 11.9117385,
          "velocity": 1
        },
        {
          "duration": 0.09803899999999999,
          "durationTicks": 16,
          "midi": 64,
          "name": "E4",
          "ticks": 1992,
          "time": 12.2058555,
          "velocity": 1
        },
        {
          "duration": 0.09803899999999999,
          "durationTicks": 16,
          "midi": 61,
          "name": "C#4",
          "ticks": 1992,
          "time": 12.2058555,
          "velocity": 1
        },
        {
          "duration": 0.09803899999999821,
          "durationTicks": 16,
          "midi": 63,
          "name": "D#4",
          "ticks": 2016,
          "time": 12.352914000000002,
          "velocity": 1
        },
        {
          "duration": 0.09803899999999821,
          "durationTicks": 16,
          "midi": 59,
          "name": "B3",
          "ticks": 2016,
          "time": 12.352914000000002,
          "velocity": 1
        },
        {
          "duration": 0.09803899999999821,
          "durationTicks": 16,
          "midi": 64,
          "name": "E4",
          "ticks": 2064,
          "time": 12.647031000000002,
          "velocity": 1
        },
        {
          "duration": 0.09803899999999821,
          "durationTicks": 16,
          "midi": 61,
          "name": "C#4",
          "ticks": 2064,
          "time": 12.647031000000002,
          "velocity": 1
        },
        {
          "duration": 0.09803899999999821,
          "durationTicks": 16,
          "midi": 63,
          "name": "D#4",
          "ticks": 2112,
          "time": 12.941148000000002,
          "velocity": 1
        },
        {
          "duration": 0.09803899999999821,
          "durationTicks": 16,
          "midi": 59,
          "name": "B3",
          "ticks": 2112,
          "time": 12.941148000000002,
          "velocity": 1
        },
        {
          "duration": 0.09803899999999821,
          "durationTicks": 16,
          "midi": 64,
          "name": "E4",
          "ticks": 2160,
          "time": 13.235265000000002,
          "velocity": 1
        },
        {
          "duration": 0.09803899999999821,
          "durationTicks": 16,
          "midi": 61,
          "name": "C#4",
          "ticks": 2160,
          "time": 13.235265000000002,
          "velocity": 1
        },
        {
          "duration": 0.09803899999999821,
          "durationTicks": 16,
          "midi": 64,
          "name": "E4",
          "ticks": 2208,
          "time": 13.529382000000002,
          "velocity": 1
        },
        {
          "duration": 0.09803899999999821,
          "durationTicks": 16,
          "midi": 61,
          "name": "C#4",
          "ticks": 2208,
          "time": 13.529382000000002,
          "velocity": 1
        },
        {
          "duration": 0.09803899999999821,
          "durationTicks": 16,
          "midi": 63,
          "name": "D#4",
          "ticks": 2232,
          "time": 13.676440500000002,
          "velocity": 1
        },
        {
          "duration": 0.09803899999999821,
          "durationTicks": 16,
          "midi": 59,
          "name": "B3",
          "ticks": 2232,
          "time": 13.676440500000002,
          "velocity": 1
        },
        {
          "duration": 0.09803899999999821,
          "durationTicks": 16,
          "midi": 61,
          "name": "C#4",
          "ticks": 2280,
          "time": 13.970557500000002,
          "velocity": 1
        },
        {
          "duration": 0.09803899999999821,
          "durationTicks": 16,
          "midi": 58,
          "name": "A#3",
          "ticks": 2280,
          "time": 13.970557500000002,
          "velocity": 1
        },
        {
          "duration": 0.09803899999999821,
          "durationTicks": 16,
          "midi": 64,
          "name": "E4",
          "ticks": 2328,
          "time": 14.264674500000002,
          "velocity": 1
        },
        {
          "duration": 0.09803899999999821,
          "durationTicks": 16,
          "midi": 61,
          "name": "C#4",
          "ticks": 2328,
          "time": 14.264674500000002,
          "velocity": 1
        },
        {
          "duration": 0.09803899999999821,
          "durationTicks": 16,
          "midi": 63,
          "name": "D#4",
          "ticks": 2352,
          "time": 14.411733000000002,
          "velocity": 1
        },
        {
          "duration": 0.09803899999999821,
          "durationTicks": 16,
          "midi": 59,
          "name": "B3",
          "ticks": 2352,
          "time": 14.411733000000002,
          "velocity": 1
        },
        {
          "duration": 0.09803899999999821,
          "durationTicks": 16,
          "midi": 64,
          "name": "E4",
          "ticks": 2400,
          "time": 14.705850000000002,
          "velocity": 1
        },
        {
          "duration": 0.09803899999999821,
          "durationTicks": 16,
          "midi": 61,
          "name": "C#4",
          "ticks": 2400,
          "time": 14.705850000000002,
          "velocity": 1
        },
        {
          "duration": 0.09803899999999821,
          "durationTicks": 16,
          "midi": 63,
          "name": "D#4",
          "ticks": 2448,
          "time": 14.999967000000002,
          "velocity": 1
        },
        {
          "duration": 0.09803899999999821,
          "durationTicks": 16,
          "midi": 59,
          "name": "B3",
          "ticks": 2448,
          "time": 14.999967000000002,
          "velocity": 1
        },
        {
          "duration": 0.09803899999999821,
          "durationTicks": 16,
          "midi": 64,
          "name": "E4",
          "ticks": 2496,
          "time": 15.294084000000002,
          "velocity": 1
        },
        {
          "duration": 0.09803899999999821,
          "durationTicks": 16,
          "midi": 61,
          "name": "C#4",
          "ticks": 2496,
          "time": 15.294084000000002,
          "velocity": 1
        },
        {
          "duration": 0.09803899999999821,
          "durationTicks": 16,
          "midi": 64,
          "name": "E4",
          "ticks": 2544,
          "time": 15.588201000000002,
          "velocity": 1
        },
        {
          "duration": 0.09803899999999821,
          "durationTicks": 16,
          "midi": 61,
          "name": "C#4",
          "ticks": 2544,
          "time": 15.588201000000002,
          "velocity": 1
        },
        {
          "duration": 0.09803899999999821,
          "durationTicks": 16,
          "midi": 63,
          "name": "D#4",
          "ticks": 2568,
          "time": 15.735259500000002,
          "velocity": 1
        },
        {
          "duration": 0.09803899999999821,
          "durationTicks": 16,
          "midi": 59,
          "name": "B3",
          "ticks": 2568,
          "time": 15.735259500000002,
          "velocity": 1
        },
        {
          "duration": 0.09803899999999999,
          "durationTicks": 16,
          "midi": 66,
          "name": "F#4",
          "ticks": 2616,
          "time": 16.0293765,
          "velocity": 1
        },
        {
          "duration": 0.09803899999999999,
          "durationTicks": 16,
          "midi": 61,
          "name": "C#4",
          "ticks": 2616,
          "time": 16.0293765,
          "velocity": 1
        },
        {
          "duration": 0.09803899999999999,
          "durationTicks": 16,
          "midi": 64,
          "name": "E4",
          "ticks": 2664,
          "time": 16.3234935,
          "velocity": 1
        },
        {
          "duration": 0.09803899999999999,
          "durationTicks": 16,
          "midi": 61,
          "name": "C#4",
          "ticks": 2664,
          "time": 16.3234935,
          "velocity": 1
        },
        {
          "duration": 0.09803899999999999,
          "durationTicks": 16,
          "midi": 63,
          "name": "D#4",
          "ticks": 2688,
          "time": 16.470552,
          "velocity": 1
        },
        {
          "duration": 0.09803899999999999,
          "durationTicks": 16,
          "midi": 59,
          "name": "B3",
          "ticks": 2688,
          "time": 16.470552,
          "velocity": 1
        },
        {
          "duration": 0.09803899999999999,
          "durationTicks": 16,
          "midi": 64,
          "name": "E4",
          "ticks": 2736,
          "time": 16.764669,
          "velocity": 1
        },
        {
          "duration": 0.09803899999999999,
          "durationTicks": 16,
          "midi": 61,
          "name": "C#4",
          "ticks": 2736,
          "time": 16.764669,
          "velocity": 1
        },
        {
          "duration": 0.09803899999999999,
          "durationTicks": 16,
          "midi": 63,
          "name": "D#4",
          "ticks": 2784,
          "time": 17.058786,
          "velocity": 1
        },
        {
          "duration": 0.09803899999999999,
          "durationTicks": 16,
          "midi": 59,
          "name": "B3",
          "ticks": 2784,
          "time": 17.058786,
          "velocity": 1
        },
        {
          "duration": 0.09803899999999999,
          "durationTicks": 16,
          "midi": 64,
          "name": "E4",
          "ticks": 2832,
          "time": 17.352903,
          "velocity": 1
        },
        {
          "duration": 0.09803899999999999,
          "durationTicks": 16,
          "midi": 61,
          "name": "C#4",
          "ticks": 2832,
          "time": 17.352903,
          "velocity": 1
        },
        {
          "duration": 0.09803899999999999,
          "durationTicks": 16,
          "midi": 64,
          "name": "E4",
          "ticks": 2880,
          "time": 17.64702,
          "velocity": 1
        },
        {
          "duration": 0.09803899999999999,
          "durationTicks": 16,
          "midi": 61,
          "name": "C#4",
          "ticks": 2880,
          "time": 17.64702,
          "velocity": 1
        },
        {
          "duration": 0.09803899999999999,
          "durationTicks": 16,
          "midi": 63,
          "name": "D#4",
          "ticks": 2904,
          "time": 17.7940785,
          "velocity": 1
        },
        {
          "duration": 0.09803899999999999,
          "durationTicks": 16,
          "midi": 59,
          "name": "B3",
          "ticks": 2904,
          "time": 17.7940785,
          "velocity": 1
        },
        {
          "duration": 0.09803899999999999,
          "durationTicks": 16,
          "midi": 61,
          "name": "C#4",
          "ticks": 2952,
          "time": 18.0881955,
          "velocity": 1
        },
        {
          "duration": 0.09803899999999999,
          "durationTicks": 16,
          "midi": 58,
          "name": "A#3",
          "ticks": 2952,
          "time": 18.0881955,
          "velocity": 1
        },
        {
          "duration": 0.09803899999999288,
          "durationTicks": 16,
          "midi": 64,
          "name": "E4",
          "ticks": 9144,
          "time": 56.02928850000001,
          "velocity": 1
        },
        {
          "duration": 0.09803899999999288,
          "durationTicks": 16,
          "midi": 61,
          "name": "C#4",
          "ticks": 9144,
          "time": 56.02928850000001,
          "velocity": 1
        },
        {
          "duration": 0.09803899999999288,
          "durationTicks": 16,
          "midi": 63,
          "name": "D#4",
          "ticks": 9168,
          "time": 56.17634700000001,
          "velocity": 1
        },
        {
          "duration": 0.09803899999999288,
          "durationTicks": 16,
          "midi": 59,
          "name": "B3",
          "ticks": 9168,
          "time": 56.17634700000001,
          "velocity": 1
        },
        {
          "duration": 0.09803899999999288,
          "durationTicks": 16,
          "midi": 64,
          "name": "E4",
          "ticks": 9216,
          "time": 56.47046400000001,
          "velocity": 1
        },
        {
          "duration": 0.09803899999999288,
          "durationTicks": 16,
          "midi": 61,
          "name": "C#4",
          "ticks": 9216,
          "time": 56.47046400000001,
          "velocity": 1
        },
        {
          "duration": 0.09803899999999288,
          "durationTicks": 16,
          "midi": 63,
          "name": "D#4",
          "ticks": 9264,
          "time": 56.76458100000001,
          "velocity": 1
        },
        {
          "duration": 0.09803899999999288,
          "durationTicks": 16,
          "midi": 59,
          "name": "B3",
          "ticks": 9264,
          "time": 56.76458100000001,
          "velocity": 1
        },
        {
          "duration": 0.09803899999999288,
          "durationTicks": 16,
          "midi": 64,
          "name": "E4",
          "ticks": 9312,
          "time": 57.05869800000001,
          "velocity": 1
        },
        {
          "duration": 0.09803899999999288,
          "durationTicks": 16,
          "midi": 61,
          "name": "C#4",
          "ticks": 9312,
          "time": 57.05869800000001,
          "velocity": 1
        },
        {
          "duration": 0.09803899999999288,
          "durationTicks": 16,
          "midi": 64,
          "name": "E4",
          "ticks": 9360,
          "time": 57.35281500000001,
          "velocity": 1
        },
        {
          "duration": 0.09803899999999288,
          "durationTicks": 16,
          "midi": 61,
          "name": "C#4",
          "ticks": 9360,
          "time": 57.35281500000001,
          "velocity": 1
        },
        {
          "duration": 0.09803899999999288,
          "durationTicks": 16,
          "midi": 63,
          "name": "D#4",
          "ticks": 9384,
          "time": 57.49987350000001,
          "velocity": 1
        },
        {
          "duration": 0.09803899999999288,
          "durationTicks": 16,
          "midi": 59,
          "name": "B3",
          "ticks": 9384,
          "time": 57.49987350000001,
          "velocity": 1
        },
        {
          "duration": 0.09803899999999288,
          "durationTicks": 16,
          "midi": 66,
          "name": "F#4",
          "ticks": 9432,
          "time": 57.79399050000001,
          "velocity": 1
        },
        {
          "duration": 0.09803899999999288,
          "durationTicks": 16,
          "midi": 61,
          "name": "C#4",
          "ticks": 9432,
          "time": 57.79399050000001,
          "velocity": 1
        },
        {
          "duration": 0.09803899999999288,
          "durationTicks": 16,
          "midi": 64,
          "name": "E4",
          "ticks": 9480,
          "time": 58.08810750000001,
          "velocity": 1
        },
        {
          "duration": 0.09803899999999288,
          "durationTicks": 16,
          "midi": 61,
          "name": "C#4",
          "ticks": 9480,
          "time": 58.08810750000001,
          "velocity": 1
        },
        {
          "duration": 0.09803899999999288,
          "durationTicks": 16,
          "midi": 63,
          "name": "D#4",
          "ticks": 9504,
          "time": 58.23516600000001,
          "velocity": 1
        },
        {
          "duration": 0.09803899999999288,
          "durationTicks": 16,
          "midi": 59,
          "name": "B3",
          "ticks": 9504,
          "time": 58.23516600000001,
          "velocity": 1
        },
        {
          "duration": 0.09803899999999288,
          "durationTicks": 16,
          "midi": 64,
          "name": "E4",
          "ticks": 9552,
          "time": 58.52928300000001,
          "velocity": 1
        },
        {
          "duration": 0.09803899999999288,
          "durationTicks": 16,
          "midi": 61,
          "name": "C#4",
          "ticks": 9552,
          "time": 58.52928300000001,
          "velocity": 1
        },
        {
          "duration": 0.09803899999999288,
          "durationTicks": 16,
          "midi": 63,
          "name": "D#4",
          "ticks": 9600,
          "time": 58.82340000000001,
          "velocity": 1
        },
        {
          "duration": 0.09803899999999288,
          "durationTicks": 16,
          "midi": 59,
          "name": "B3",
          "ticks": 9600,
          "time": 58.82340000000001,
          "velocity": 1
        },
        {
          "duration": 0.09803899999999288,
          "durationTicks": 16,
          "midi": 64,
          "name": "E4",
          "ticks": 9648,
          "time": 59.11751700000001,
          "velocity": 1
        },
        {
          "duration": 0.09803899999999288,
          "durationTicks": 16,
          "midi": 61,
          "name": "C#4",
          "ticks": 9648,
          "time": 59.11751700000001,
          "velocity": 1
        },
        {
          "duration": 0.09803899999999288,
          "durationTicks": 16,
          "midi": 64,
          "name": "E4",
          "ticks": 9696,
          "time": 59.41163400000001,
          "velocity": 1
        },
        {
          "duration": 0.09803899999999288,
          "durationTicks": 16,
          "midi": 61,
          "name": "C#4",
          "ticks": 9696,
          "time": 59.41163400000001,
          "velocity": 1
        },
        {
          "duration": 0.09803899999999288,
          "durationTicks": 16,
          "midi": 63,
          "name": "D#4",
          "ticks": 9720,
          "time": 59.55869250000001,
          "velocity": 1
        },
        {
          "duration": 0.09803899999999288,
          "durationTicks": 16,
          "midi": 59,
          "name": "B3",
          "ticks": 9720,
          "time": 59.55869250000001,
          "velocity": 1
        },
        {
          "duration": 0.09803899999999288,
          "durationTicks": 16,
          "midi": 61,
          "name": "C#4",
          "ticks": 9768,
          "time": 59.852809500000006,
          "velocity": 1
        },
        {
          "duration": 0.09803899999999288,
          "durationTicks": 16,
          "midi": 58,
          "name": "A#3",
          "ticks": 9768,
          "time": 59.852809500000006,
          "velocity": 1
        },
        {
          "duration": 0.09803899999999288,
          "durationTicks": 16,
          "midi": 64,
          "name": "E4",
          "ticks": 9816,
          "time": 60.146926500000006,
          "velocity": 1
        },
        {
          "duration": 0.09803899999999288,
          "durationTicks": 16,
          "midi": 61,
          "name": "C#4",
          "ticks": 9816,
          "time": 60.146926500000006,
          "velocity": 1
        },
        {
          "duration": 0.09803899999999288,
          "durationTicks": 16,
          "midi": 63,
          "name": "D#4",
          "ticks": 9840,
          "time": 60.293985000000006,
          "velocity": 1
        },
        {
          "duration": 0.09803899999999288,
          "durationTicks": 16,
          "midi": 59,
          "name": "B3",
          "ticks": 9840,
          "time": 60.293985000000006,
          "velocity": 1
        },
        {
          "duration": 0.09803899999999288,
          "durationTicks": 16,
          "midi": 64,
          "name": "E4",
          "ticks": 9888,
          "time": 60.588102000000006,
          "velocity": 1
        },
        {
          "duration": 0.09803899999999288,
          "durationTicks": 16,
          "midi": 61,
          "name": "C#4",
          "ticks": 9888,
          "time": 60.588102000000006,
          "velocity": 1
        }
      ]
    },
    {
      "channel": 12,
      "controlChanges": {
        "0": [
          {
            "number": 0,
            "ticks": 9144,
            "time": 56.02928850000001,
            "value": 0.007874015748031496
          }
        ],
        "7": [
          {
            "number": 7,
            "ticks": 5976,
            "time": 36.6175665,
            "value": 0.5905511811023622
          },
          {
            "number": 7,
            "ticks": 6072,
            "time": 37.2058005,
            "value": 0.49606299212598426
          },
          {
            "number": 7,
            "ticks": 9048,
            "time": 55.44105450000001,
            "value": 0.5905511811023622
          },
          {
            "number": 7,
            "ticks": 9144,
            "time": 56.02928850000001,
            "value": 0.49606299212598426
          },
          {
            "number": 7,
            "ticks": 9144,
            "time": 56.02928850000001,
            "value": 0.6850393700787402
          }
        ],
        "32": [
          {
            "number": 32,
            "ticks": 9144,
            "time": 56.02928850000001,
            "value": 0.015748031496062992
          }
        ],
        "94": [
          {
            "number": 94,
            "ticks": 9144,
            "time": 56.02928850000001,
            "value": 0.15748031496062992
          }
        ]
      },
      "pitchBends": [],
      "instrument": {
        "family": "bass",
        "number": 34,
        "name": "electric bass (pick)"
      },
      "name": "",
      "notes": [
        {
          "duration": 0.09803899999999999,
          "durationTicks": 16,
          "midi": 66,
          "name": "F#4",
          "ticks": 3000,
          "time": 18.3823125,
          "velocity": 1
        },
        {
          "duration": 0.09803899999999999,
          "durationTicks": 16,
          "midi": 61,
          "name": "C#4",
          "ticks": 3000,
          "time": 18.3823125,
          "velocity": 1
        },
        {
          "duration": 0.09803899999999999,
          "durationTicks": 16,
          "midi": 64,
          "name": "E4",
          "ticks": 3024,
          "time": 18.529371,
          "velocity": 1
        },
        {
          "duration": 0.09803899999999999,
          "durationTicks": 16,
          "midi": 61,
          "name": "C#4",
          "ticks": 3024,
          "time": 18.529371,
          "velocity": 1
        },
        {
          "duration": 0.09803899999999999,
          "durationTicks": 16,
          "midi": 66,
          "name": "F#4",
          "ticks": 3072,
          "time": 18.823488,
          "velocity": 1
        },
        {
          "duration": 0.09803899999999999,
          "durationTicks": 16,
          "midi": 61,
          "name": "C#4",
          "ticks": 3072,
          "time": 18.823488,
          "velocity": 1
        },
        {
          "duration": 0.09803899999999999,
          "durationTicks": 16,
          "midi": 64,
          "name": "E4",
          "ticks": 3120,
          "time": 19.117605,
          "velocity": 1
        },
        {
          "duration": 0.09803899999999999,
          "durationTicks": 16,
          "midi": 61,
          "name": "C#4",
          "ticks": 3120,
          "time": 19.117605,
          "velocity": 1
        },
        {
          "duration": 0.09803899999999999,
          "durationTicks": 16,
          "midi": 66,
          "name": "F#4",
          "ticks": 3168,
          "time": 19.411722,
          "velocity": 1
        },
        {
          "duration": 0.09803899999999999,
          "durationTicks": 16,
          "midi": 61,
          "name": "C#4",
          "ticks": 3168,
          "time": 19.411722,
          "velocity": 1
        },
        {
          "duration": 0.09803899999999999,
          "durationTicks": 16,
          "midi": 66,
          "name": "F#4",
          "ticks": 3216,
          "time": 19.705839,
          "velocity": 1
        },
        {
          "duration": 0.09803899999999999,
          "durationTicks": 16,
          "midi": 61,
          "name": "C#4",
          "ticks": 3216,
          "time": 19.705839,
          "velocity": 1
        },
        {
          "duration": 0.09803899999999999,
          "durationTicks": 16,
          "midi": 64,
          "name": "E4",
          "ticks": 3240,
          "time": 19.8528975,
          "velocity": 1
        },
        {
          "duration": 0.09803899999999999,
          "durationTicks": 16,
          "midi": 61,
          "name": "C#4",
          "ticks": 3240,
          "time": 19.8528975,
          "velocity": 1
        },
        {
          "duration": 0.09803899999999999,
          "durationTicks": 16,
          "midi": 66,
          "name": "F#4",
          "ticks": 3288,
          "time": 20.1470145,
          "velocity": 1
        },
        {
          "duration": 0.09803899999999999,
          "durationTicks": 16,
          "midi": 61,
          "name": "C#4",
          "ticks": 3288,
          "time": 20.1470145,
          "velocity": 1
        },
        {
          "duration": 0.09803899999999999,
          "durationTicks": 16,
          "midi": 64,
          "name": "E4",
          "ticks": 3312,
          "time": 20.294073,
          "velocity": 1
        },
        {
          "duration": 0.09803899999999999,
          "durationTicks": 16,
          "midi": 61,
          "name": "C#4",
          "ticks": 3312,
          "time": 20.294073,
          "velocity": 1
        },
        {
          "duration": 0.09803899999999999,
          "durationTicks": 16,
          "midi": 66,
          "name": "F#4",
          "ticks": 3384,
          "time": 20.7352485,
          "velocity": 1
        },
        {
          "duration": 0.09803899999999999,
          "durationTicks": 16,
          "midi": 61,
          "name": "C#4",
          "ticks": 3384,
          "time": 20.7352485,
          "velocity": 1
        },
        {
          "duration": 0.09803899999999999,
          "durationTicks": 16,
          "midi": 64,
          "name": "E4",
          "ticks": 3408,
          "time": 20.882307,
          "velocity": 1
        },
        {
          "duration": 0.09803899999999999,
          "durationTicks": 16,
          "midi": 59,
          "name": "B3",
          "ticks": 3408,
          "time": 20.882307,
          "velocity": 1
        },
        {
          "duration": 0.09803899999999999,
          "durationTicks": 16,
          "midi": 66,
          "name": "F#4",
          "ticks": 3456,
          "time": 21.176424,
          "velocity": 1
        },
        {
          "duration": 0.09803899999999999,
          "durationTicks": 16,
          "midi": 61,
          "name": "C#4",
          "ticks": 3456,
          "time": 21.176424,
          "velocity": 1
        },
        {
          "duration": 0.09803899999999999,
          "durationTicks": 16,
          "midi": 64,
          "name": "E4",
          "ticks": 3504,
          "time": 21.470541,
          "velocity": 1
        },
        {
          "duration": 0.09803899999999999,
          "durationTicks": 16,
          "midi": 59,
          "name": "B3",
          "ticks": 3504,
          "time": 21.470541,
          "velocity": 1
        },
        {
          "duration": 0.09803899999999999,
          "durationTicks": 16,
          "midi": 66,
          "name": "F#4",
          "ticks": 3552,
          "time": 21.764658,
          "velocity": 1
        },
        {
          "duration": 0.09803899999999999,
          "durationTicks": 16,
          "midi": 61,
          "name": "C#4",
          "ticks": 3552,
          "time": 21.764658,
          "velocity": 1
        },
        {
          "duration": 0.09803899999999999,
          "durationTicks": 16,
          "midi": 66,
          "name": "F#4",
          "ticks": 3600,
          "time": 22.058775,
          "velocity": 1
        },
        {
          "duration": 0.09803899999999999,
          "durationTicks": 16,
          "midi": 61,
          "name": "C#4",
          "ticks": 3600,
          "time": 22.058775,
          "velocity": 1
        },
        {
          "duration": 0.09803899999999999,
          "durationTicks": 16,
          "midi": 64,
          "name": "E4",
          "ticks": 3624,
          "time": 22.2058335,
          "velocity": 1
        },
        {
          "duration": 0.09803899999999999,
          "durationTicks": 16,
          "midi": 59,
          "name": "B3",
          "ticks": 3624,
          "time": 22.2058335,
          "velocity": 1
        },
        {
          "duration": 0.09803899999999999,
          "durationTicks": 16,
          "midi": 66,
          "name": "F#4",
          "ticks": 3672,
          "time": 22.4999505,
          "velocity": 1
        },
        {
          "duration": 0.09803899999999999,
          "durationTicks": 16,
          "midi": 61,
          "name": "C#4",
          "ticks": 3672,
          "time": 22.4999505,
          "velocity": 1
        },
        {
          "duration": 0.09803900000000354,
          "durationTicks": 16,
          "midi": 64,
          "name": "E4",
          "ticks": 3696,
          "time": 22.647009,
          "velocity": 1
        },
        {
          "duration": 0.09803900000000354,
          "durationTicks": 16,
          "midi": 59,
          "name": "B3",
          "ticks": 3696,
          "time": 22.647009,
          "velocity": 1
        },
        {
          "duration": 0.09803900000000354,
          "durationTicks": 16,
          "midi": 66,
          "name": "F#4",
          "ticks": 3768,
          "time": 23.0881845,
          "velocity": 1
        },
        {
          "duration": 0.09803900000000354,
          "durationTicks": 16,
          "midi": 61,
          "name": "C#4",
          "ticks": 3768,
          "time": 23.0881845,
          "velocity": 1
        },
        {
          "duration": 0.09803900000000354,
          "durationTicks": 16,
          "midi": 64,
          "name": "E4",
          "ticks": 3792,
          "time": 23.235243,
          "velocity": 1
        },
        {
          "duration": 0.09803900000000354,
          "durationTicks": 16,
          "midi": 61,
          "name": "C#4",
          "ticks": 3792,
          "time": 23.235243,
          "velocity": 1
        },
        {
          "duration": 0.09803900000000354,
          "durationTicks": 16,
          "midi": 66,
          "name": "F#4",
          "ticks": 3840,
          "time": 23.52936,
          "velocity": 1
        },
        {
          "duration": 0.09803900000000354,
          "durationTicks": 16,
          "midi": 61,
          "name": "C#4",
          "ticks": 3840,
          "time": 23.52936,
          "velocity": 1
        },
        {
          "duration": 0.09803900000000354,
          "durationTicks": 16,
          "midi": 64,
          "name": "E4",
          "ticks": 3888,
          "time": 23.823477,
          "velocity": 1
        },
        {
          "duration": 0.09803900000000354,
          "durationTicks": 16,
          "midi": 61,
          "name": "C#4",
          "ticks": 3888,
          "time": 23.823477,
          "velocity": 1
        },
        {
          "duration": 0.09803900000000354,
          "durationTicks": 16,
          "midi": 66,
          "name": "F#4",
          "ticks": 3936,
          "time": 24.117594,
          "velocity": 1
        },
        {
          "duration": 0.09803900000000354,
          "durationTicks": 16,
          "midi": 61,
          "name": "C#4",
          "ticks": 3936,
          "time": 24.117594,
          "velocity": 1
        },
        {
          "duration": 0.09803900000000354,
          "durationTicks": 16,
          "midi": 66,
          "name": "F#4",
          "ticks": 3984,
          "time": 24.411711,
          "velocity": 1
        },
        {
          "duration": 0.09803900000000354,
          "durationTicks": 16,
          "midi": 61,
          "name": "C#4",
          "ticks": 3984,
          "time": 24.411711,
          "velocity": 1
        },
        {
          "duration": 0.09803900000000354,
          "durationTicks": 16,
          "midi": 64,
          "name": "E4",
          "ticks": 4008,
          "time": 24.5587695,
          "velocity": 1
        },
        {
          "duration": 0.09803900000000354,
          "durationTicks": 16,
          "midi": 61,
          "name": "C#4",
          "ticks": 4008,
          "time": 24.5587695,
          "velocity": 1
        },
        {
          "duration": 0.09803900000000354,
          "durationTicks": 16,
          "midi": 66,
          "name": "F#4",
          "ticks": 4056,
          "time": 24.8528865,
          "velocity": 1
        },
        {
          "duration": 0.09803900000000354,
          "durationTicks": 16,
          "midi": 61,
          "name": "C#4",
          "ticks": 4056,
          "time": 24.8528865,
          "velocity": 1
        },
        {
          "duration": 0.09803900000000354,
          "durationTicks": 16,
          "midi": 64,
          "name": "E4",
          "ticks": 4080,
          "time": 24.999945,
          "velocity": 1
        },
        {
          "duration": 0.09803900000000354,
          "durationTicks": 16,
          "midi": 61,
          "name": "C#4",
          "ticks": 4080,
          "time": 24.999945,
          "velocity": 1
        },
        {
          "duration": 0.09803900000000354,
          "durationTicks": 16,
          "midi": 66,
          "name": "F#4",
          "ticks": 4152,
          "time": 25.4411205,
          "velocity": 1
        },
        {
          "duration": 0.09803900000000354,
          "durationTicks": 16,
          "midi": 61,
          "name": "C#4",
          "ticks": 4152,
          "time": 25.4411205,
          "velocity": 1
        },
        {
          "duration": 0.09803900000000354,
          "durationTicks": 16,
          "midi": 64,
          "name": "E4",
          "ticks": 4176,
          "time": 25.588179,
          "velocity": 1
        },
        {
          "duration": 0.09803900000000354,
          "durationTicks": 16,
          "midi": 59,
          "name": "B3",
          "ticks": 4176,
          "time": 25.588179,
          "velocity": 1
        },
        {
          "duration": 0.09803900000000354,
          "durationTicks": 16,
          "midi": 66,
          "name": "F#4",
          "ticks": 4224,
          "time": 25.882296,
          "velocity": 1
        },
        {
          "duration": 0.09803900000000354,
          "durationTicks": 16,
          "midi": 61,
          "name": "C#4",
          "ticks": 4224,
          "time": 25.882296,
          "velocity": 1
        },
        {
          "duration": 0.09803900000000354,
          "durationTicks": 16,
          "midi": 64,
          "name": "E4",
          "ticks": 4272,
          "time": 26.176413,
          "velocity": 1
        },
        {
          "duration": 0.09803900000000354,
          "durationTicks": 16,
          "midi": 59,
          "name": "B3",
          "ticks": 4272,
          "time": 26.176413,
          "velocity": 1
        },
        {
          "duration": 0.09803900000000354,
          "durationTicks": 16,
          "midi": 66,
          "name": "F#4",
          "ticks": 4320,
          "time": 26.47053,
          "velocity": 1
        },
        {
          "duration": 0.09803900000000354,
          "durationTicks": 16,
          "midi": 61,
          "name": "C#4",
          "ticks": 4320,
          "time": 26.47053,
          "velocity": 1
        },
        {
          "duration": 0.09803900000000354,
          "durationTicks": 16,
          "midi": 66,
          "name": "F#4",
          "ticks": 4368,
          "time": 26.764647,
          "velocity": 1
        },
        {
          "duration": 0.09803900000000354,
          "durationTicks": 16,
          "midi": 61,
          "name": "C#4",
          "ticks": 4368,
          "time": 26.764647,
          "velocity": 1
        },
        {
          "duration": 0.09803900000000354,
          "durationTicks": 16,
          "midi": 64,
          "name": "E4",
          "ticks": 4392,
          "time": 26.9117055,
          "velocity": 1
        },
        {
          "duration": 0.09803900000000354,
          "durationTicks": 16,
          "midi": 59,
          "name": "B3",
          "ticks": 4392,
          "time": 26.9117055,
          "velocity": 1
        },
        {
          "duration": 0.09803900000000354,
          "durationTicks": 16,
          "midi": 66,
          "name": "F#4",
          "ticks": 4440,
          "time": 27.2058225,
          "velocity": 1
        },
        {
          "duration": 0.09803900000000354,
          "durationTicks": 16,
          "midi": 61,
          "name": "C#4",
          "ticks": 4440,
          "time": 27.2058225,
          "velocity": 1
        },
        {
          "duration": 0.09803900000000354,
          "durationTicks": 16,
          "midi": 64,
          "name": "E4",
          "ticks": 4464,
          "time": 27.352881,
          "velocity": 1
        },
        {
          "duration": 0.09803900000000354,
          "durationTicks": 16,
          "midi": 59,
          "name": "B3",
          "ticks": 4464,
          "time": 27.352881,
          "velocity": 1
        },
        {
          "duration": 0.09803900000000354,
          "durationTicks": 16,
          "midi": 66,
          "name": "F#4",
          "ticks": 4536,
          "time": 27.7940565,
          "velocity": 1
        },
        {
          "duration": 0.09803900000000354,
          "durationTicks": 16,
          "midi": 61,
          "name": "C#4",
          "ticks": 4536,
          "time": 27.7940565,
          "velocity": 1
        },
        {
          "duration": 0.09803900000000354,
          "durationTicks": 16,
          "midi": 64,
          "name": "E4",
          "ticks": 4560,
          "time": 27.941115,
          "velocity": 1
        },
        {
          "duration": 0.09803900000000354,
          "durationTicks": 16,
          "midi": 61,
          "name": "C#4",
          "ticks": 4560,
          "time": 27.941115,
          "velocity": 1
        },
        {
          "duration": 0.09803900000000354,
          "durationTicks": 16,
          "midi": 66,
          "name": "F#4",
          "ticks": 4608,
          "time": 28.235232,
          "velocity": 1
        },
        {
          "duration": 0.09803900000000354,
          "durationTicks": 16,
          "midi": 61,
          "name": "C#4",
          "ticks": 4608,
          "time": 28.235232,
          "velocity": 1
        },
        {
          "duration": 0.09803900000000354,
          "durationTicks": 16,
          "midi": 64,
          "name": "E4",
          "ticks": 4656,
          "time": 28.529349,
          "velocity": 1
        },
        {
          "duration": 0.09803900000000354,
          "durationTicks": 16,
          "midi": 61,
          "name": "C#4",
          "ticks": 4656,
          "time": 28.529349,
          "velocity": 1
        },
        {
          "duration": 0.09803900000000354,
          "durationTicks": 16,
          "midi": 66,
          "name": "F#4",
          "ticks": 4704,
          "time": 28.823466,
          "velocity": 1
        },
        {
          "duration": 0.09803900000000354,
          "durationTicks": 16,
          "midi": 61,
          "name": "C#4",
          "ticks": 4704,
          "time": 28.823466,
          "velocity": 1
        },
        {
          "duration": 0.09803900000000354,
          "durationTicks": 16,
          "midi": 66,
          "name": "F#4",
          "ticks": 4752,
          "time": 29.117583,
          "velocity": 1
        },
        {
          "duration": 0.09803900000000354,
          "durationTicks": 16,
          "midi": 61,
          "name": "C#4",
          "ticks": 4752,
          "time": 29.117583,
          "velocity": 1
        },
        {
          "duration": 0.09803900000000354,
          "durationTicks": 16,
          "midi": 64,
          "name": "E4",
          "ticks": 4776,
          "time": 29.2646415,
          "velocity": 1
        },
        {
          "duration": 0.09803900000000354,
          "durationTicks": 16,
          "midi": 61,
          "name": "C#4",
          "ticks": 4776,
          "time": 29.2646415,
          "velocity": 1
        },
        {
          "duration": 0.09803900000000354,
          "durationTicks": 16,
          "midi": 66,
          "name": "F#4",
          "ticks": 4824,
          "time": 29.5587585,
          "velocity": 1
        },
        {
          "duration": 0.09803900000000354,
          "durationTicks": 16,
          "midi": 61,
          "name": "C#4",
          "ticks": 4824,
          "time": 29.5587585,
          "velocity": 1
        },
        {
          "duration": 0.09803900000000354,
          "durationTicks": 16,
          "midi": 64,
          "name": "E4",
          "ticks": 4848,
          "time": 29.705817,
          "velocity": 1
        },
        {
          "duration": 0.09803900000000354,
          "durationTicks": 16,
          "midi": 61,
          "name": "C#4",
          "ticks": 4848,
          "time": 29.705817,
          "velocity": 1
        },
        {
          "duration": 0.09803900000000354,
          "durationTicks": 16,
          "midi": 66,
          "name": "F#4",
          "ticks": 4920,
          "time": 30.1469925,
          "velocity": 1
        },
        {
          "duration": 0.09803900000000354,
          "durationTicks": 16,
          "midi": 61,
          "name": "C#4",
          "ticks": 4920,
          "time": 30.1469925,
          "velocity": 1
        },
        {
          "duration": 0.09803900000000354,
          "durationTicks": 16,
          "midi": 64,
          "name": "E4",
          "ticks": 4944,
          "time": 30.294051,
          "velocity": 1
        },
        {
          "duration": 0.09803900000000354,
          "durationTicks": 16,
          "midi": 59,
          "name": "B3",
          "ticks": 4944,
          "time": 30.294051,
          "velocity": 1
        },
        {
          "duration": 0.09803900000000354,
          "durationTicks": 16,
          "midi": 66,
          "name": "F#4",
          "ticks": 4992,
          "time": 30.588168,
          "velocity": 1
        },
        {
          "duration": 0.09803900000000354,
          "durationTicks": 16,
          "midi": 61,
          "name": "C#4",
          "ticks": 4992,
          "time": 30.588168,
          "velocity": 1
        },
        {
          "duration": 0.09803900000000354,
          "durationTicks": 16,
          "midi": 64,
          "name": "E4",
          "ticks": 5040,
          "time": 30.882285,
          "velocity": 1
        },
        {
          "duration": 0.09803900000000354,
          "durationTicks": 16,
          "midi": 59,
          "name": "B3",
          "ticks": 5040,
          "time": 30.882285,
          "velocity": 1
        },
        {
          "duration": 0.09803900000000354,
          "durationTicks": 16,
          "midi": 66,
          "name": "F#4",
          "ticks": 5088,
          "time": 31.176402,
          "velocity": 1
        },
        {
          "duration": 0.09803900000000354,
          "durationTicks": 16,
          "midi": 61,
          "name": "C#4",
          "ticks": 5088,
          "time": 31.176402,
          "velocity": 1
        },
        {
          "duration": 0.09803900000000354,
          "durationTicks": 16,
          "midi": 66,
          "name": "F#4",
          "ticks": 5136,
          "time": 31.470519,
          "velocity": 1
        },
        {
          "duration": 0.09803900000000354,
          "durationTicks": 16,
          "midi": 61,
          "name": "C#4",
          "ticks": 5136,
          "time": 31.470519,
          "velocity": 1
        },
        {
          "duration": 0.09803900000000354,
          "durationTicks": 16,
          "midi": 64,
          "name": "E4",
          "ticks": 5160,
          "time": 31.6175775,
          "velocity": 1
        },
        {
          "duration": 0.09803900000000354,
          "durationTicks": 16,
          "midi": 59,
          "name": "B3",
          "ticks": 5160,
          "time": 31.6175775,
          "velocity": 1
        },
        {
          "duration": 0.09803900000000354,
          "durationTicks": 16,
          "midi": 66,
          "name": "F#4",
          "ticks": 5208,
          "time": 31.9116945,
          "velocity": 1
        },
        {
          "duration": 0.09803900000000354,
          "durationTicks": 16,
          "midi": 61,
          "name": "C#4",
          "ticks": 5208,
          "time": 31.9116945,
          "velocity": 1
        },
        {
          "duration": 0.09803899999999999,
          "durationTicks": 16,
          "midi": 64,
          "name": "E4",
          "ticks": 5232,
          "time": 32.058753,
          "velocity": 1
        },
        {
          "duration": 0.09803899999999999,
          "durationTicks": 16,
          "midi": 59,
          "name": "B3",
          "ticks": 5232,
          "time": 32.058753,
          "velocity": 1
        },
        {
          "duration": 0.09803899999999999,
          "durationTicks": 16,
          "midi": 66,
          "name": "F#4",
          "ticks": 5304,
          "time": 32.4999285,
          "velocity": 1
        },
        {
          "duration": 0.09803899999999999,
          "durationTicks": 16,
          "midi": 61,
          "name": "C#4",
          "ticks": 5304,
          "time": 32.4999285,
          "velocity": 1
        },
        {
          "duration": 0.09803899999999999,
          "durationTicks": 16,
          "midi": 64,
          "name": "E4",
          "ticks": 5328,
          "time": 32.646987,
          "velocity": 1
        },
        {
          "duration": 0.09803899999999999,
          "durationTicks": 16,
          "midi": 61,
          "name": "C#4",
          "ticks": 5328,
          "time": 32.646987,
          "velocity": 1
        },
        {
          "duration": 0.09803899999999999,
          "durationTicks": 16,
          "midi": 66,
          "name": "F#4",
          "ticks": 5376,
          "time": 32.941104,
          "velocity": 1
        },
        {
          "duration": 0.09803899999999999,
          "durationTicks": 16,
          "midi": 61,
          "name": "C#4",
          "ticks": 5376,
          "time": 32.941104,
          "velocity": 1
        },
        {
          "duration": 0.09803899999999999,
          "durationTicks": 16,
          "midi": 64,
          "name": "E4",
          "ticks": 5424,
          "time": 33.235221,
          "velocity": 1
        },
        {
          "duration": 0.09803899999999999,
          "durationTicks": 16,
          "midi": 61,
          "name": "C#4",
          "ticks": 5424,
          "time": 33.235221,
          "velocity": 1
        },
        {
          "duration": 0.09803899999999999,
          "durationTicks": 16,
          "midi": 66,
          "name": "F#4",
          "ticks": 5472,
          "time": 33.529338,
          "velocity": 1
        },
        {
          "duration": 0.09803899999999999,
          "durationTicks": 16,
          "midi": 61,
          "name": "C#4",
          "ticks": 5472,
          "time": 33.529338,
          "velocity": 1
        },
        {
          "duration": 0.09803899999999999,
          "durationTicks": 16,
          "midi": 66,
          "name": "F#4",
          "ticks": 5520,
          "time": 33.823455,
          "velocity": 1
        },
        {
          "duration": 0.09803899999999999,
          "durationTicks": 16,
          "midi": 61,
          "name": "C#4",
          "ticks": 5520,
          "time": 33.823455,
          "velocity": 1
        },
        {
          "duration": 0.09803899999999999,
          "durationTicks": 16,
          "midi": 64,
          "name": "E4",
          "ticks": 5544,
          "time": 33.9705135,
          "velocity": 1
        },
        {
          "duration": 0.09803899999999999,
          "durationTicks": 16,
          "midi": 61,
          "name": "C#4",
          "ticks": 5544,
          "time": 33.9705135,
          "velocity": 1
        },
        {
          "duration": 0.09803899999999999,
          "durationTicks": 16,
          "midi": 66,
          "name": "F#4",
          "ticks": 5592,
          "time": 34.2646305,
          "velocity": 1
        },
        {
          "duration": 0.09803899999999999,
          "durationTicks": 16,
          "midi": 61,
          "name": "C#4",
          "ticks": 5592,
          "time": 34.2646305,
          "velocity": 1
        },
        {
          "duration": 0.09803899999999999,
          "durationTicks": 16,
          "midi": 64,
          "name": "E4",
          "ticks": 5616,
          "time": 34.411689,
          "velocity": 1
        },
        {
          "duration": 0.09803899999999999,
          "durationTicks": 16,
          "midi": 61,
          "name": "C#4",
          "ticks": 5616,
          "time": 34.411689,
          "velocity": 1
        },
        {
          "duration": 0.09803899999999999,
          "durationTicks": 16,
          "midi": 66,
          "name": "F#4",
          "ticks": 5688,
          "time": 34.8528645,
          "velocity": 1
        },
        {
          "duration": 0.09803899999999999,
          "durationTicks": 16,
          "midi": 61,
          "name": "C#4",
          "ticks": 5688,
          "time": 34.8528645,
          "velocity": 1
        },
        {
          "duration": 0.09803899999999999,
          "durationTicks": 16,
          "midi": 64,
          "name": "E4",
          "ticks": 5712,
          "time": 34.999923,
          "velocity": 1
        },
        {
          "duration": 0.09803899999999999,
          "durationTicks": 16,
          "midi": 59,
          "name": "B3",
          "ticks": 5712,
          "time": 34.999923,
          "velocity": 1
        },
        {
          "duration": 0.09803899999999999,
          "durationTicks": 16,
          "midi": 66,
          "name": "F#4",
          "ticks": 5760,
          "time": 35.29404,
          "velocity": 1
        },
        {
          "duration": 0.09803899999999999,
          "durationTicks": 16,
          "midi": 61,
          "name": "C#4",
          "ticks": 5760,
          "time": 35.29404,
          "velocity": 1
        },
        {
          "duration": 0.09803899999999999,
          "durationTicks": 16,
          "midi": 64,
          "name": "E4",
          "ticks": 5808,
          "time": 35.588157,
          "velocity": 1
        },
        {
          "duration": 0.09803899999999999,
          "durationTicks": 16,
          "midi": 59,
          "name": "B3",
          "ticks": 5808,
          "time": 35.588157,
          "velocity": 1
        },
        {
          "duration": 0.09803899999999999,
          "durationTicks": 16,
          "midi": 66,
          "name": "F#4",
          "ticks": 5856,
          "time": 35.882274,
          "velocity": 1
        },
        {
          "duration": 0.09803899999999999,
          "durationTicks": 16,
          "midi": 61,
          "name": "C#4",
          "ticks": 5856,
          "time": 35.882274,
          "velocity": 1
        },
        {
          "duration": 0.09803899999999999,
          "durationTicks": 16,
          "midi": 66,
          "name": "F#4",
          "ticks": 5904,
          "time": 36.176391,
          "velocity": 1
        },
        {
          "duration": 0.09803899999999999,
          "durationTicks": 16,
          "midi": 61,
          "name": "C#4",
          "ticks": 5904,
          "time": 36.176391,
          "velocity": 1
        },
        {
          "duration": 0.09803899999999999,
          "durationTicks": 16,
          "midi": 64,
          "name": "E4",
          "ticks": 5928,
          "time": 36.3234495,
          "velocity": 1
        },
        {
          "duration": 0.09803899999999999,
          "durationTicks": 16,
          "midi": 59,
          "name": "B3",
          "ticks": 5928,
          "time": 36.3234495,
          "velocity": 1
        },
        {
          "duration": 0.09803899999999999,
          "durationTicks": 16,
          "midi": 66,
          "name": "F#4",
          "ticks": 5976,
          "time": 36.6175665,
          "velocity": 1
        },
        {
          "duration": 0.09803899999999999,
          "durationTicks": 16,
          "midi": 61,
          "name": "C#4",
          "ticks": 5976,
          "time": 36.6175665,
          "velocity": 1
        },
        {
          "duration": 0.09803899999999999,
          "durationTicks": 16,
          "midi": 64,
          "name": "E4",
          "ticks": 6000,
          "time": 36.764625,
          "velocity": 1
        },
        {
          "duration": 0.09803899999999999,
          "durationTicks": 16,
          "midi": 59,
          "name": "B3",
          "ticks": 6000,
          "time": 36.764625,
          "velocity": 1
        },
        {
          "duration": 0.09803899999999999,
          "durationTicks": 16,
          "midi": 63,
          "name": "D#4",
          "ticks": 6024,
          "time": 36.9116835,
          "velocity": 1
        },
        {
          "duration": 0.09803899999999999,
          "durationTicks": 16,
          "midi": 58,
          "name": "A#3",
          "ticks": 6024,
          "time": 36.9116835,
          "velocity": 1
        },
        {
          "duration": 0.09803899999999999,
          "durationTicks": 16,
          "midi": 61,
          "name": "C#4",
          "ticks": 6048,
          "time": 37.058742,
          "velocity": 1
        },
        {
          "duration": 0.09803899999999999,
          "durationTicks": 16,
          "midi": 56,
          "name": "G#3",
          "ticks": 6048,
          "time": 37.058742,
          "velocity": 1
        },
        {
          "duration": 0.09803899999999999,
          "durationTicks": 16,
          "midi": 66,
          "name": "F#4",
          "ticks": 6072,
          "time": 37.2058005,
          "velocity": 1
        },
        {
          "duration": 0.09803899999999999,
          "durationTicks": 16,
          "midi": 61,
          "name": "C#4",
          "ticks": 6072,
          "time": 37.2058005,
          "velocity": 1
        },
        {
          "duration": 0.09803899999999999,
          "durationTicks": 16,
          "midi": 64,
          "name": "E4",
          "ticks": 6096,
          "time": 37.352859,
          "velocity": 1
        },
        {
          "duration": 0.09803899999999999,
          "durationTicks": 16,
          "midi": 61,
          "name": "C#4",
          "ticks": 6096,
          "time": 37.352859,
          "velocity": 1
        },
        {
          "duration": 0.09803899999999999,
          "durationTicks": 16,
          "midi": 66,
          "name": "F#4",
          "ticks": 6144,
          "time": 37.646976,
          "velocity": 1
        },
        {
          "duration": 0.09803899999999999,
          "durationTicks": 16,
          "midi": 61,
          "name": "C#4",
          "ticks": 6144,
          "time": 37.646976,
          "velocity": 1
        },
        {
          "duration": 0.09803899999999999,
          "durationTicks": 16,
          "midi": 64,
          "name": "E4",
          "ticks": 6192,
          "time": 37.941093,
          "velocity": 1
        },
        {
          "duration": 0.09803899999999999,
          "durationTicks": 16,
          "midi": 61,
          "name": "C#4",
          "ticks": 6192,
          "time": 37.941093,
          "velocity": 1
        },
        {
          "duration": 0.09803899999999999,
          "durationTicks": 16,
          "midi": 66,
          "name": "F#4",
          "ticks": 6240,
          "time": 38.23521,
          "velocity": 1
        },
        {
          "duration": 0.09803899999999999,
          "durationTicks": 16,
          "midi": 61,
          "name": "C#4",
          "ticks": 6240,
          "time": 38.23521,
          "velocity": 1
        },
        {
          "duration": 0.09803899999999999,
          "durationTicks": 16,
          "midi": 66,
          "name": "F#4",
          "ticks": 6288,
          "time": 38.529327,
          "velocity": 1
        },
        {
          "duration": 0.09803899999999999,
          "durationTicks": 16,
          "midi": 61,
          "name": "C#4",
          "ticks": 6288,
          "time": 38.529327,
          "velocity": 1
        },
        {
          "duration": 0.09803899999999999,
          "durationTicks": 16,
          "midi": 64,
          "name": "E4",
          "ticks": 6312,
          "time": 38.6763855,
          "velocity": 1
        },
        {
          "duration": 0.09803899999999999,
          "durationTicks": 16,
          "midi": 61,
          "name": "C#4",
          "ticks": 6312,
          "time": 38.6763855,
          "velocity": 1
        },
        {
          "duration": 0.09803899999999999,
          "durationTicks": 16,
          "midi": 66,
          "name": "F#4",
          "ticks": 6360,
          "time": 38.9705025,
          "velocity": 1
        },
        {
          "duration": 0.09803899999999999,
          "durationTicks": 16,
          "midi": 61,
          "name": "C#4",
          "ticks": 6360,
          "time": 38.9705025,
          "velocity": 1
        },
        {
          "duration": 0.09803899999999999,
          "durationTicks": 16,
          "midi": 64,
          "name": "E4",
          "ticks": 6384,
          "time": 39.117561,
          "velocity": 1
        },
        {
          "duration": 0.09803899999999999,
          "durationTicks": 16,
          "midi": 61,
          "name": "C#4",
          "ticks": 6384,
          "time": 39.117561,
          "velocity": 1
        },
        {
          "duration": 0.09803899999999999,
          "durationTicks": 16,
          "midi": 66,
          "name": "F#4",
          "ticks": 6456,
          "time": 39.5587365,
          "velocity": 1
        },
        {
          "duration": 0.09803899999999999,
          "durationTicks": 16,
          "midi": 61,
          "name": "C#4",
          "ticks": 6456,
          "time": 39.5587365,
          "velocity": 1
        },
        {
          "duration": 0.09803899999999999,
          "durationTicks": 16,
          "midi": 64,
          "name": "E4",
          "ticks": 6480,
          "time": 39.705795,
          "velocity": 1
        },
        {
          "duration": 0.09803899999999999,
          "durationTicks": 16,
          "midi": 59,
          "name": "B3",
          "ticks": 6480,
          "time": 39.705795,
          "velocity": 1
        },
        {
          "duration": 0.09803899999999999,
          "durationTicks": 16,
          "midi": 66,
          "name": "F#4",
          "ticks": 6528,
          "time": 39.999912,
          "velocity": 1
        },
        {
          "duration": 0.09803899999999999,
          "durationTicks": 16,
          "midi": 61,
          "name": "C#4",
          "ticks": 6528,
          "time": 39.999912,
          "velocity": 1
        },
        {
          "duration": 0.09803899999999999,
          "durationTicks": 16,
          "midi": 64,
          "name": "E4",
          "ticks": 6576,
          "time": 40.294029,
          "velocity": 1
        },
        {
          "duration": 0.09803899999999999,
          "durationTicks": 16,
          "midi": 59,
          "name": "B3",
          "ticks": 6576,
          "time": 40.294029,
          "velocity": 1
        },
        {
          "duration": 0.09803899999999999,
          "durationTicks": 16,
          "midi": 66,
          "name": "F#4",
          "ticks": 6624,
          "time": 40.588146,
          "velocity": 1
        },
        {
          "duration": 0.09803899999999999,
          "durationTicks": 16,
          "midi": 61,
          "name": "C#4",
          "ticks": 6624,
          "time": 40.588146,
          "velocity": 1
        },
        {
          "duration": 0.09803899999999999,
          "durationTicks": 16,
          "midi": 66,
          "name": "F#4",
          "ticks": 6672,
          "time": 40.882263,
          "velocity": 1
        },
        {
          "duration": 0.09803899999999999,
          "durationTicks": 16,
          "midi": 61,
          "name": "C#4",
          "ticks": 6672,
          "time": 40.882263,
          "velocity": 1
        },
        {
          "duration": 0.09803899999999999,
          "durationTicks": 16,
          "midi": 64,
          "name": "E4",
          "ticks": 6696,
          "time": 41.0293215,
          "velocity": 1
        },
        {
          "duration": 0.09803899999999999,
          "durationTicks": 16,
          "midi": 59,
          "name": "B3",
          "ticks": 6696,
          "time": 41.0293215,
          "velocity": 1
        },
        {
          "duration": 0.09803899999999999,
          "durationTicks": 16,
          "midi": 66,
          "name": "F#4",
          "ticks": 6744,
          "time": 41.3234385,
          "velocity": 1
        },
        {
          "duration": 0.09803899999999999,
          "durationTicks": 16,
          "midi": 61,
          "name": "C#4",
          "ticks": 6744,
          "time": 41.3234385,
          "velocity": 1
        },
        {
          "duration": 0.09803899999999999,
          "durationTicks": 16,
          "midi": 64,
          "name": "E4",
          "ticks": 6768,
          "time": 41.470497,
          "velocity": 1
        },
        {
          "duration": 0.09803899999999999,
          "durationTicks": 16,
          "midi": 59,
          "name": "B3",
          "ticks": 6768,
          "time": 41.470497,
          "velocity": 1
        },
        {
          "duration": 0.09803899999999999,
          "durationTicks": 16,
          "midi": 66,
          "name": "F#4",
          "ticks": 6840,
          "time": 41.9116725,
          "velocity": 1
        },
        {
          "duration": 0.09803899999999999,
          "durationTicks": 16,
          "midi": 61,
          "name": "C#4",
          "ticks": 6840,
          "time": 41.9116725,
          "velocity": 1
        },
        {
          "duration": 0.09803899999999999,
          "durationTicks": 16,
          "midi": 64,
          "name": "E4",
          "ticks": 6864,
          "time": 42.058731,
          "velocity": 1
        },
        {
          "duration": 0.09803899999999999,
          "durationTicks": 16,
          "midi": 61,
          "name": "C#4",
          "ticks": 6864,
          "time": 42.058731,
          "velocity": 1
        },
        {
          "duration": 0.09803899999999999,
          "durationTicks": 16,
          "midi": 66,
          "name": "F#4",
          "ticks": 6912,
          "time": 42.352848,
          "velocity": 1
        },
        {
          "duration": 0.09803899999999999,
          "durationTicks": 16,
          "midi": 61,
          "name": "C#4",
          "ticks": 6912,
          "time": 42.352848,
          "velocity": 1
        },
        {
          "duration": 0.09803899999999999,
          "durationTicks": 16,
          "midi": 64,
          "name": "E4",
          "ticks": 6960,
          "time": 42.646965,
          "velocity": 1
        },
        {
          "duration": 0.09803899999999999,
          "durationTicks": 16,
          "midi": 61,
          "name": "C#4",
          "ticks": 6960,
          "time": 42.646965,
          "velocity": 1
        },
        {
          "duration": 0.09803899999999999,
          "durationTicks": 16,
          "midi": 66,
          "name": "F#4",
          "ticks": 7008,
          "time": 42.941082,
          "velocity": 1
        },
        {
          "duration": 0.09803899999999999,
          "durationTicks": 16,
          "midi": 61,
          "name": "C#4",
          "ticks": 7008,
          "time": 42.941082,
          "velocity": 1
        },
        {
          "duration": 0.09803899999999999,
          "durationTicks": 16,
          "midi": 66,
          "name": "F#4",
          "ticks": 7056,
          "time": 43.235199,
          "velocity": 1
        },
        {
          "duration": 0.09803899999999999,
          "durationTicks": 16,
          "midi": 61,
          "name": "C#4",
          "ticks": 7056,
          "time": 43.235199,
          "velocity": 1
        },
        {
          "duration": 0.09803899999999999,
          "durationTicks": 16,
          "midi": 64,
          "name": "E4",
          "ticks": 7080,
          "time": 43.3822575,
          "velocity": 1
        },
        {
          "duration": 0.09803899999999999,
          "durationTicks": 16,
          "midi": 61,
          "name": "C#4",
          "ticks": 7080,
          "time": 43.3822575,
          "velocity": 1
        },
        {
          "duration": 0.09803899999999288,
          "durationTicks": 16,
          "midi": 66,
          "name": "F#4",
          "ticks": 7128,
          "time": 43.67637450000001,
          "velocity": 1
        },
        {
          "duration": 0.09803899999999288,
          "durationTicks": 16,
          "midi": 61,
          "name": "C#4",
          "ticks": 7128,
          "time": 43.67637450000001,
          "velocity": 1
        },
        {
          "duration": 0.09803899999999288,
          "durationTicks": 16,
          "midi": 64,
          "name": "E4",
          "ticks": 7152,
          "time": 43.82343300000001,
          "velocity": 1
        },
        {
          "duration": 0.09803899999999288,
          "durationTicks": 16,
          "midi": 61,
          "name": "C#4",
          "ticks": 7152,
          "time": 43.82343300000001,
          "velocity": 1
        },
        {
          "duration": 0.09803899999999288,
          "durationTicks": 16,
          "midi": 66,
          "name": "F#4",
          "ticks": 7224,
          "time": 44.26460850000001,
          "velocity": 1
        },
        {
          "duration": 0.09803899999999288,
          "durationTicks": 16,
          "midi": 61,
          "name": "C#4",
          "ticks": 7224,
          "time": 44.26460850000001,
          "velocity": 1
        },
        {
          "duration": 0.09803899999999288,
          "durationTicks": 16,
          "midi": 64,
          "name": "E4",
          "ticks": 7248,
          "time": 44.41166700000001,
          "velocity": 1
        },
        {
          "duration": 0.09803899999999288,
          "durationTicks": 16,
          "midi": 59,
          "name": "B3",
          "ticks": 7248,
          "time": 44.41166700000001,
          "velocity": 1
        },
        {
          "duration": 0.09803899999999288,
          "durationTicks": 16,
          "midi": 66,
          "name": "F#4",
          "ticks": 7296,
          "time": 44.70578400000001,
          "velocity": 1
        },
        {
          "duration": 0.09803899999999288,
          "durationTicks": 16,
          "midi": 61,
          "name": "C#4",
          "ticks": 7296,
          "time": 44.70578400000001,
          "velocity": 1
        },
        {
          "duration": 0.09803899999999288,
          "durationTicks": 16,
          "midi": 64,
          "name": "E4",
          "ticks": 7344,
          "time": 44.99990100000001,
          "velocity": 1
        },
        {
          "duration": 0.09803899999999288,
          "durationTicks": 16,
          "midi": 59,
          "name": "B3",
          "ticks": 7344,
          "time": 44.99990100000001,
          "velocity": 1
        },
        {
          "duration": 0.09803899999999288,
          "durationTicks": 16,
          "midi": 66,
          "name": "F#4",
          "ticks": 7392,
          "time": 45.29401800000001,
          "velocity": 1
        },
        {
          "duration": 0.09803899999999288,
          "durationTicks": 16,
          "midi": 61,
          "name": "C#4",
          "ticks": 7392,
          "time": 45.29401800000001,
          "velocity": 1
        },
        {
          "duration": 0.09803899999999288,
          "durationTicks": 16,
          "midi": 66,
          "name": "F#4",
          "ticks": 7440,
          "time": 45.58813500000001,
          "velocity": 1
        },
        {
          "duration": 0.09803899999999288,
          "durationTicks": 16,
          "midi": 61,
          "name": "C#4",
          "ticks": 7440,
          "time": 45.58813500000001,
          "velocity": 1
        },
        {
          "duration": 0.09803899999999288,
          "durationTicks": 16,
          "midi": 64,
          "name": "E4",
          "ticks": 7464,
          "time": 45.73519350000001,
          "velocity": 1
        },
        {
          "duration": 0.09803899999999288,
          "durationTicks": 16,
          "midi": 59,
          "name": "B3",
          "ticks": 7464,
          "time": 45.73519350000001,
          "velocity": 1
        },
        {
          "duration": 0.09803899999999288,
          "durationTicks": 16,
          "midi": 66,
          "name": "F#4",
          "ticks": 7512,
          "time": 46.02931050000001,
          "velocity": 1
        },
        {
          "duration": 0.09803899999999288,
          "durationTicks": 16,
          "midi": 61,
          "name": "C#4",
          "ticks": 7512,
          "time": 46.02931050000001,
          "velocity": 1
        },
        {
          "duration": 0.09803899999999288,
          "durationTicks": 16,
          "midi": 64,
          "name": "E4",
          "ticks": 7536,
          "time": 46.17636900000001,
          "velocity": 1
        },
        {
          "duration": 0.09803899999999288,
          "durationTicks": 16,
          "midi": 59,
          "name": "B3",
          "ticks": 7536,
          "time": 46.17636900000001,
          "velocity": 1
        },
        {
          "duration": 0.09803899999999288,
          "durationTicks": 16,
          "midi": 66,
          "name": "F#4",
          "ticks": 7608,
          "time": 46.61754450000001,
          "velocity": 1
        },
        {
          "duration": 0.09803899999999288,
          "durationTicks": 16,
          "midi": 61,
          "name": "C#4",
          "ticks": 7608,
          "time": 46.61754450000001,
          "velocity": 1
        },
        {
          "duration": 0.09803899999999288,
          "durationTicks": 16,
          "midi": 64,
          "name": "E4",
          "ticks": 7632,
          "time": 46.76460300000001,
          "velocity": 1
        },
        {
          "duration": 0.09803899999999288,
          "durationTicks": 16,
          "midi": 61,
          "name": "C#4",
          "ticks": 7632,
          "time": 46.76460300000001,
          "velocity": 1
        },
        {
          "duration": 0.09803899999999288,
          "durationTicks": 16,
          "midi": 66,
          "name": "F#4",
          "ticks": 7680,
          "time": 47.05872000000001,
          "velocity": 1
        },
        {
          "duration": 0.09803899999999288,
          "durationTicks": 16,
          "midi": 61,
          "name": "C#4",
          "ticks": 7680,
          "time": 47.05872000000001,
          "velocity": 1
        },
        {
          "duration": 0.09803899999999288,
          "durationTicks": 16,
          "midi": 64,
          "name": "E4",
          "ticks": 7728,
          "time": 47.35283700000001,
          "velocity": 1
        },
        {
          "duration": 0.09803899999999288,
          "durationTicks": 16,
          "midi": 61,
          "name": "C#4",
          "ticks": 7728,
          "time": 47.35283700000001,
          "velocity": 1
        },
        {
          "duration": 0.09803899999999288,
          "durationTicks": 16,
          "midi": 66,
          "name": "F#4",
          "ticks": 7776,
          "time": 47.64695400000001,
          "velocity": 1
        },
        {
          "duration": 0.09803899999999288,
          "durationTicks": 16,
          "midi": 61,
          "name": "C#4",
          "ticks": 7776,
          "time": 47.64695400000001,
          "velocity": 1
        },
        {
          "duration": 0.09803899999999288,
          "durationTicks": 16,
          "midi": 66,
          "name": "F#4",
          "ticks": 7824,
          "time": 47.94107100000001,
          "velocity": 1
        },
        {
          "duration": 0.09803899999999288,
          "durationTicks": 16,
          "midi": 61,
          "name": "C#4",
          "ticks": 7824,
          "time": 47.94107100000001,
          "velocity": 1
        },
        {
          "duration": 0.09803899999999288,
          "durationTicks": 16,
          "midi": 64,
          "name": "E4",
          "ticks": 7848,
          "time": 48.08812950000001,
          "velocity": 1
        },
        {
          "duration": 0.09803899999999288,
          "durationTicks": 16,
          "midi": 61,
          "name": "C#4",
          "ticks": 7848,
          "time": 48.08812950000001,
          "velocity": 1
        },
        {
          "duration": 0.09803899999999288,
          "durationTicks": 16,
          "midi": 66,
          "name": "F#4",
          "ticks": 7896,
          "time": 48.38224650000001,
          "velocity": 1
        },
        {
          "duration": 0.09803899999999288,
          "durationTicks": 16,
          "midi": 61,
          "name": "C#4",
          "ticks": 7896,
          "time": 48.38224650000001,
          "velocity": 1
        },
        {
          "duration": 0.09803899999999288,
          "durationTicks": 16,
          "midi": 64,
          "name": "E4",
          "ticks": 7920,
          "time": 48.52930500000001,
          "velocity": 1
        },
        {
          "duration": 0.09803899999999288,
          "durationTicks": 16,
          "midi": 61,
          "name": "C#4",
          "ticks": 7920,
          "time": 48.52930500000001,
          "velocity": 1
        },
        {
          "duration": 0.09803899999999288,
          "durationTicks": 16,
          "midi": 66,
          "name": "F#4",
          "ticks": 7992,
          "time": 48.97048050000001,
          "velocity": 1
        },
        {
          "duration": 0.09803899999999288,
          "durationTicks": 16,
          "midi": 61,
          "name": "C#4",
          "ticks": 7992,
          "time": 48.97048050000001,
          "velocity": 1
        },
        {
          "duration": 0.09803899999999288,
          "durationTicks": 16,
          "midi": 64,
          "name": "E4",
          "ticks": 8016,
          "time": 49.11753900000001,
          "velocity": 1
        },
        {
          "duration": 0.09803899999999288,
          "durationTicks": 16,
          "midi": 59,
          "name": "B3",
          "ticks": 8016,
          "time": 49.11753900000001,
          "velocity": 1
        },
        {
          "duration": 0.09803899999999288,
          "durationTicks": 16,
          "midi": 66,
          "name": "F#4",
          "ticks": 8064,
          "time": 49.41165600000001,
          "velocity": 1
        },
        {
          "duration": 0.09803899999999288,
          "durationTicks": 16,
          "midi": 61,
          "name": "C#4",
          "ticks": 8064,
          "time": 49.41165600000001,
          "velocity": 1
        },
        {
          "duration": 0.09803899999999288,
          "durationTicks": 16,
          "midi": 64,
          "name": "E4",
          "ticks": 8112,
          "time": 49.70577300000001,
          "velocity": 1
        },
        {
          "duration": 0.09803899999999288,
          "durationTicks": 16,
          "midi": 59,
          "name": "B3",
          "ticks": 8112,
          "time": 49.70577300000001,
          "velocity": 1
        },
        {
          "duration": 0.09803899999999288,
          "durationTicks": 16,
          "midi": 66,
          "name": "F#4",
          "ticks": 8160,
          "time": 49.99989000000001,
          "velocity": 1
        },
        {
          "duration": 0.09803899999999288,
          "durationTicks": 16,
          "midi": 61,
          "name": "C#4",
          "ticks": 8160,
          "time": 49.99989000000001,
          "velocity": 1
        },
        {
          "duration": 0.09803899999999288,
          "durationTicks": 16,
          "midi": 66,
          "name": "F#4",
          "ticks": 8208,
          "time": 50.29400700000001,
          "velocity": 1
        },
        {
          "duration": 0.09803899999999288,
          "durationTicks": 16,
          "midi": 61,
          "name": "C#4",
          "ticks": 8208,
          "time": 50.29400700000001,
          "velocity": 1
        },
        {
          "duration": 0.09803899999999288,
          "durationTicks": 16,
          "midi": 64,
          "name": "E4",
          "ticks": 8232,
          "time": 50.44106550000001,
          "velocity": 1
        },
        {
          "duration": 0.09803899999999288,
          "durationTicks": 16,
          "midi": 59,
          "name": "B3",
          "ticks": 8232,
          "time": 50.44106550000001,
          "velocity": 1
        },
        {
          "duration": 0.09803899999999288,
          "durationTicks": 16,
          "midi": 66,
          "name": "F#4",
          "ticks": 8280,
          "time": 50.73518250000001,
          "velocity": 1
        },
        {
          "duration": 0.09803899999999288,
          "durationTicks": 16,
          "midi": 61,
          "name": "C#4",
          "ticks": 8280,
          "time": 50.73518250000001,
          "velocity": 1
        },
        {
          "duration": 0.09803899999999288,
          "durationTicks": 16,
          "midi": 64,
          "name": "E4",
          "ticks": 8304,
          "time": 50.88224100000001,
          "velocity": 1
        },
        {
          "duration": 0.09803899999999288,
          "durationTicks": 16,
          "midi": 59,
          "name": "B3",
          "ticks": 8304,
          "time": 50.88224100000001,
          "velocity": 1
        },
        {
          "duration": 0.09803899999999288,
          "durationTicks": 16,
          "midi": 66,
          "name": "F#4",
          "ticks": 8376,
          "time": 51.32341650000001,
          "velocity": 1
        },
        {
          "duration": 0.09803899999999288,
          "durationTicks": 16,
          "midi": 61,
          "name": "C#4",
          "ticks": 8376,
          "time": 51.32341650000001,
          "velocity": 1
        },
        {
          "duration": 0.09803899999999288,
          "durationTicks": 16,
          "midi": 64,
          "name": "E4",
          "ticks": 8400,
          "time": 51.47047500000001,
          "velocity": 1
        },
        {
          "duration": 0.09803899999999288,
          "durationTicks": 16,
          "midi": 61,
          "name": "C#4",
          "ticks": 8400,
          "time": 51.47047500000001,
          "velocity": 1
        },
        {
          "duration": 0.09803899999999288,
          "durationTicks": 16,
          "midi": 66,
          "name": "F#4",
          "ticks": 8448,
          "time": 51.76459200000001,
          "velocity": 1
        },
        {
          "duration": 0.09803899999999288,
          "durationTicks": 16,
          "midi": 61,
          "name": "C#4",
          "ticks": 8448,
          "time": 51.76459200000001,
          "velocity": 1
        },
        {
          "duration": 0.09803899999999288,
          "durationTicks": 16,
          "midi": 64,
          "name": "E4",
          "ticks": 8496,
          "time": 52.05870900000001,
          "velocity": 1
        },
        {
          "duration": 0.09803899999999288,
          "durationTicks": 16,
          "midi": 61,
          "name": "C#4",
          "ticks": 8496,
          "time": 52.05870900000001,
          "velocity": 1
        },
        {
          "duration": 0.09803899999999288,
          "durationTicks": 16,
          "midi": 66,
          "name": "F#4",
          "ticks": 8544,
          "time": 52.35282600000001,
          "velocity": 1
        },
        {
          "duration": 0.09803899999999288,
          "durationTicks": 16,
          "midi": 61,
          "name": "C#4",
          "ticks": 8544,
          "time": 52.35282600000001,
          "velocity": 1
        },
        {
          "duration": 0.09803899999999288,
          "durationTicks": 16,
          "midi": 66,
          "name": "F#4",
          "ticks": 8592,
          "time": 52.64694300000001,
          "velocity": 1
        },
        {
          "duration": 0.09803899999999288,
          "durationTicks": 16,
          "midi": 61,
          "name": "C#4",
          "ticks": 8592,
          "time": 52.64694300000001,
          "velocity": 1
        },
        {
          "duration": 0.09803899999999288,
          "durationTicks": 16,
          "midi": 64,
          "name": "E4",
          "ticks": 8616,
          "time": 52.79400150000001,
          "velocity": 1
        },
        {
          "duration": 0.09803899999999288,
          "durationTicks": 16,
          "midi": 61,
          "name": "C#4",
          "ticks": 8616,
          "time": 52.79400150000001,
          "velocity": 1
        },
        {
          "duration": 0.09803899999999288,
          "durationTicks": 16,
          "midi": 66,
          "name": "F#4",
          "ticks": 8664,
          "time": 53.08811850000001,
          "velocity": 1
        },
        {
          "duration": 0.09803899999999288,
          "durationTicks": 16,
          "midi": 61,
          "name": "C#4",
          "ticks": 8664,
          "time": 53.08811850000001,
          "velocity": 1
        },
        {
          "duration": 0.09803899999999288,
          "durationTicks": 16,
          "midi": 64,
          "name": "E4",
          "ticks": 8688,
          "time": 53.23517700000001,
          "velocity": 1
        },
        {
          "duration": 0.09803899999999288,
          "durationTicks": 16,
          "midi": 61,
          "name": "C#4",
          "ticks": 8688,
          "time": 53.23517700000001,
          "velocity": 1
        },
        {
          "duration": 0.09803899999999288,
          "durationTicks": 16,
          "midi": 66,
          "name": "F#4",
          "ticks": 8760,
          "time": 53.67635250000001,
          "velocity": 1
        },
        {
          "duration": 0.09803899999999288,
          "durationTicks": 16,
          "midi": 61,
          "name": "C#4",
          "ticks": 8760,
          "time": 53.67635250000001,
          "velocity": 1
        },
        {
          "duration": 0.09803899999999288,
          "durationTicks": 16,
          "midi": 64,
          "name": "E4",
          "ticks": 8784,
          "time": 53.82341100000001,
          "velocity": 1
        },
        {
          "duration": 0.09803899999999288,
          "durationTicks": 16,
          "midi": 59,
          "name": "B3",
          "ticks": 8784,
          "time": 53.82341100000001,
          "velocity": 1
        },
        {
          "duration": 0.09803899999999288,
          "durationTicks": 16,
          "midi": 66,
          "name": "F#4",
          "ticks": 8832,
          "time": 54.11752800000001,
          "velocity": 1
        },
        {
          "duration": 0.09803899999999288,
          "durationTicks": 16,
          "midi": 61,
          "name": "C#4",
          "ticks": 8832,
          "time": 54.11752800000001,
          "velocity": 1
        },
        {
          "duration": 0.09803899999999288,
          "durationTicks": 16,
          "midi": 64,
          "name": "E4",
          "ticks": 8880,
          "time": 54.41164500000001,
          "velocity": 1
        },
        {
          "duration": 0.09803899999999288,
          "durationTicks": 16,
          "midi": 59,
          "name": "B3",
          "ticks": 8880,
          "time": 54.41164500000001,
          "velocity": 1
        },
        {
          "duration": 0.09803899999999288,
          "durationTicks": 16,
          "midi": 66,
          "name": "F#4",
          "ticks": 8928,
          "time": 54.70576200000001,
          "velocity": 1
        },
        {
          "duration": 0.09803899999999288,
          "durationTicks": 16,
          "midi": 61,
          "name": "C#4",
          "ticks": 8928,
          "time": 54.70576200000001,
          "velocity": 1
        },
        {
          "duration": 0.09803899999999288,
          "durationTicks": 16,
          "midi": 66,
          "name": "F#4",
          "ticks": 8976,
          "time": 54.99987900000001,
          "velocity": 1
        },
        {
          "duration": 0.09803899999999288,
          "durationTicks": 16,
          "midi": 61,
          "name": "C#4",
          "ticks": 8976,
          "time": 54.99987900000001,
          "velocity": 1
        },
        {
          "duration": 0.09803899999999288,
          "durationTicks": 16,
          "midi": 64,
          "name": "E4",
          "ticks": 9000,
          "time": 55.14693750000001,
          "velocity": 1
        },
        {
          "duration": 0.09803899999999288,
          "durationTicks": 16,
          "midi": 59,
          "name": "B3",
          "ticks": 9000,
          "time": 55.14693750000001,
          "velocity": 1
        },
        {
          "duration": 0.09803899999999288,
          "durationTicks": 16,
          "midi": 66,
          "name": "F#4",
          "ticks": 9048,
          "time": 55.44105450000001,
          "velocity": 1
        },
        {
          "duration": 0.09803899999999288,
          "durationTicks": 16,
          "midi": 61,
          "name": "C#4",
          "ticks": 9048,
          "time": 55.44105450000001,
          "velocity": 1
        },
        {
          "duration": 0.09803899999999288,
          "durationTicks": 16,
          "midi": 64,
          "name": "E4",
          "ticks": 9072,
          "time": 55.58811300000001,
          "velocity": 1
        },
        {
          "duration": 0.09803899999999288,
          "durationTicks": 16,
          "midi": 59,
          "name": "B3",
          "ticks": 9072,
          "time": 55.58811300000001,
          "velocity": 1
        },
        {
          "duration": 0.09803899999999288,
          "durationTicks": 16,
          "midi": 63,
          "name": "D#4",
          "ticks": 9096,
          "time": 55.73517150000001,
          "velocity": 1
        },
        {
          "duration": 0.09803899999999288,
          "durationTicks": 16,
          "midi": 58,
          "name": "A#3",
          "ticks": 9096,
          "time": 55.73517150000001,
          "velocity": 1
        },
        {
          "duration": 0.09803899999999288,
          "durationTicks": 16,
          "midi": 61,
          "name": "C#4",
          "ticks": 9120,
          "time": 55.88223000000001,
          "velocity": 1
        },
        {
          "duration": 0.09803899999999288,
          "durationTicks": 16,
          "midi": 56,
          "name": "G#3",
          "ticks": 9120,
          "time": 55.88223000000001,
          "velocity": 1
        }
      ]
    },
    {
      "channel": 0,
      "controlChanges": {
        "0": [
          {
            "number": 0,
            "ticks": 272,
            "time": 1.6666630000000002,
            "value": 0.06299212598425197
          }
        ],
        "1": [
          {
            "number": 1,
            "ticks": 268,
            "time": 1.64215325,
            "value": 0
          }
        ],
        "5": [
          {
            "number": 5,
            "ticks": 271,
            "time": 1.6605355625,
            "value": 0
          }
        ],
        "6": [
          {
            "number": 6,
            "ticks": 256,
            "time": 1.568624,
            "value": 0.12598425196850394
          },
          {
            "number": 6,
            "ticks": 258,
            "time": 1.580878875,
            "value": 0.4645669291338583
          },
          {
            "number": 6,
            "ticks": 259,
            "time": 1.5870063125,
            "value": 0.5511811023622047
          },
          {
            "number": 6,
            "ticks": 260,
            "time": 1.5931337500000002,
            "value": 0.6299212598425197
          },
          {
            "number": 6,
            "ticks": 261,
            "time": 1.5992611875,
            "value": 0.5511811023622047
          }
        ],
        "7": [
          {
            "number": 7,
            "ticks": 265,
            "time": 1.6237709375,
            "value": 0.31496062992125984
          }
        ],
        "10": [
          {
            "number": 10,
            "ticks": 267,
            "time": 1.6360258125,
            "value": 0.5984251968503937
          }
        ],
        "11": [
          {
            "number": 11,
            "ticks": 266,
            "time": 1.6298983750000002,
            "value": 0.7874015748031497
          }
        ],
        "32": [
          {
            "number": 32,
            "ticks": 273,
            "time": 1.6727904375,
            "value": 0.015748031496062992
          }
        ],
        "64": [
          {
            "number": 64,
            "ticks": 269,
            "time": 1.6482806875000002,
            "value": 0
          }
        ],
        "65": [
          {
            "number": 65,
            "ticks": 270,
            "time": 1.654408125,
            "value": 0
          }
        ],
        "91": [
          {
            "number": 91,
            "ticks": 250,
            "time": 1.531859375,
            "value": 0.3779527559055118
          }
        ],
        "93": [
          {
            "number": 93,
            "ticks": 251,
            "time": 1.5379868125000002,
            "value": 0.1889763779527559
          }
        ],
        "94": [
          {
            "number": 94,
            "ticks": 252,
            "time": 1.54411425,
            "value": 0.5511811023622047
          }
        ],
        "98": [
          {
            "number": 98,
            "ticks": 259,
            "time": 1.5870063125,
            "value": 0.06299212598425197
          },
          {
            "number": 98,
            "ticks": 260,
            "time": 1.5931337500000002,
            "value": 0.07086614173228346
          },
          {
            "number": 98,
            "ticks": 261,
            "time": 1.5992611875,
            "value": 0.07874015748031496
          }
        ],
        "99": [
          {
            "number": 99,
            "ticks": 259,
            "time": 1.5870063125,
            "value": 0.007874015748031496
          },
          {
            "number": 99,
            "ticks": 260,
            "time": 1.5931337500000002,
            "value": 0.007874015748031496
          },
          {
            "number": 99,
            "ticks": 261,
            "time": 1.5992611875,
            "value": 0.007874015748031496
          }
        ],
        "100": [
          {
            "number": 100,
            "ticks": 254,
            "time": 1.5563691250000002,
            "value": 0
          },
          {
            "number": 100,
            "ticks": 258,
            "time": 1.580878875,
            "value": 0.007874015748031496
          }
        ],
        "101": [
          {
            "number": 101,
            "ticks": 255,
            "time": 1.5624965625,
            "value": 0
          },
          {
            "number": 101,
            "ticks": 258,
            "time": 1.580878875,
            "value": 0
          }
        ]
      },
      "pitchBends": [
        {
          "ticks": 257,
          "time": 1.5747514375000002,
          "value": 0
        }
      ],
      "instrument": {
        "family": "piano",
        "number": 0,
        "name": "acoustic grand piano"
      },
      "name": "SUB2\u0000",
      "notes": [],
      "endOfTrackTicks": 10680
    },
    {
      "channel": 13,
      "controlChanges": {
        "0": [
          {
            "number": 0,
            "ticks": 3000,
            "time": 18.3823125,
            "value": 0.1889763779527559
          }
        ],
        "6": [
          {
            "number": 6,
            "ticks": 275,
            "time": 1.6850453125000002,
            "value": 1
          },
          {
            "number": 6,
            "ticks": 276,
            "time": 1.69117275,
            "value": 0.6299212598425197
          },
          {
            "number": 6,
            "ticks": 277,
            "time": 1.6973001875,
            "value": 0.47244094488188976
          },
          {
            "number": 6,
            "ticks": 278,
            "time": 1.7034276250000002,
            "value": 0.6692913385826772
          }
        ],
        "7": [
          {
            "number": 7,
            "ticks": 3000,
            "time": 18.3823125,
            "value": 0.4330708661417323
          },
          {
            "number": 7,
            "ticks": 9912,
            "time": 60.735160500000006,
            "value": 0.31496062992125984
          },
          {
            "number": 7,
            "ticks": 9960,
            "time": 61.029277500000006,
            "value": 0.31496062992125984
          },
          {
            "number": 7,
            "ticks": 10008,
            "time": 61.323394500000006,
            "value": 0.29133858267716534
          },
          {
            "number": 7,
            "ticks": 10056,
            "time": 61.617511500000006,
            "value": 0.2755905511811024
          },
          {
            "number": 7,
            "ticks": 10104,
            "time": 61.911628500000006,
            "value": 0.25196850393700787
          },
          {
            "number": 7,
            "ticks": 10152,
            "time": 62.205745500000006,
            "value": 0.23622047244094488
          },
          {
            "number": 7,
            "ticks": 10200,
            "time": 62.499862500000006,
            "value": 0.2125984251968504
          },
          {
            "number": 7,
            "ticks": 10248,
            "time": 62.793979500000006,
            "value": 0.1968503937007874
          },
          {
            "number": 7,
            "ticks": 10296,
            "time": 63.088096500000006,
            "value": 0.1732283464566929
          },
          {
            "number": 7,
            "ticks": 10344,
            "time": 63.382213500000006,
            "value": 0.15748031496062992
          },
          {
            "number": 7,
            "ticks": 10392,
            "time": 63.676330500000006,
            "value": 0.13385826771653545
          },
          {
            "number": 7,
            "ticks": 10440,
            "time": 63.970447500000006,
            "value": 0.11811023622047244
          },
          {
            "number": 7,
            "ticks": 10488,
            "time": 64.2645645,
            "value": 0.09448818897637795
          },
          {
            "number": 7,
            "ticks": 10536,
            "time": 64.5586815,
            "value": 0.07874015748031496
          },
          {
            "number": 7,
            "ticks": 10584,
            "time": 64.8527985,
            "value": 0.05511811023622047
          },
          {
            "number": 7,
            "ticks": 10632,
            "time": 65.1469155,
            "value": 0.03937007874015748
          },
          {
            "number": 7,
            "ticks": 10680,
            "time": 65.4410325,
            "value": 0.015748031496062992
          }
        ],
        "32": [
          {
            "number": 32,
            "ticks": 3000,
            "time": 18.3823125,
            "value": 0.015748031496062992
          }
        ],
        "98": [
          {
            "number": 98,
            "ticks": 275,
            "time": 1.6850453125000002,
            "value": 0.25196850393700787
          },
          {
            "number": 98,
            "ticks": 276,
            "time": 1.69117275,
            "value": 0.25984251968503935
          },
          {
            "number": 98,
            "ticks": 277,
            "time": 1.6973001875,
            "value": 0.7795275590551181
          },
          {
            "number": 98,
            "ticks": 278,
            "time": 1.7034276250000002,
            "value": 0.8031496062992126
          }
        ],
        "99": [
          {
            "number": 99,
            "ticks": 275,
            "time": 1.6850453125000002,
            "value": 0.007874015748031496
          },
          {
            "number": 99,
            "ticks": 276,
            "time": 1.69117275,
            "value": 0.007874015748031496
          },
          {
            "number": 99,
            "ticks": 277,
            "time": 1.6973001875,
            "value": 0.007874015748031496
          },
          {
            "number": 99,
            "ticks": 278,
            "time": 1.7034276250000002,
            "value": 0.007874015748031496
          }
        ]
      },
      "pitchBends": [],
      "instrument": {
        "family": "synth lead",
        "number": 80,
        "name": "lead 1 (square)"
      },
      "name": "",
      "notes": [
        {
          "duration": 0.5392144999999999,
          "durationTicks": 88,
          "midi": 61,
          "name": "C#4",
          "ticks": 312,
          "time": 1.9117605000000002,
          "velocity": 1
        },
        {
          "duration": 3.480384500000001,
          "durationTicks": 568,
          "midi": 68,
          "name": "G#4",
          "ticks": 408,
          "time": 2.4999945,
          "velocity": 1
        },
        {
          "duration": 0.5392144999999999,
          "durationTicks": 88,
          "midi": 61,
          "name": "C#4",
          "ticks": 984,
          "time": 6.029398500000001,
          "velocity": 1
        },
        {
          "duration": 3.4803844999999995,
          "durationTicks": 568,
          "midi": 68,
          "name": "G#4",
          "ticks": 1080,
          "time": 6.617632500000001,
          "velocity": 1
        },
        {
          "duration": 0.5392144999999999,
          "durationTicks": 88,
          "midi": 61,
          "name": "C#4",
          "ticks": 1656,
          "time": 10.1470365,
          "velocity": 1
        },
        {
          "duration": 3.4803844999999995,
          "durationTicks": 568,
          "midi": 68,
          "name": "G#4",
          "ticks": 1752,
          "time": 10.7352705,
          "velocity": 1
        },
        {
          "duration": 0.5392144999999982,
          "durationTicks": 88,
          "midi": 61,
          "name": "C#4",
          "ticks": 2328,
          "time": 14.264674500000002,
          "velocity": 1
        },
        {
          "duration": 3.4803844999999995,
          "durationTicks": 568,
          "midi": 68,
          "name": "G#4",
          "ticks": 2424,
          "time": 14.852908500000002,
          "velocity": 1
        },
        {
          "duration": 0.5392144999999928,
          "durationTicks": 88,
          "midi": 61,
          "name": "C#4",
          "ticks": 9144,
          "time": 56.02928850000001,
          "velocity": 1
        },
        {
          "duration": 3.4803844999999924,
          "durationTicks": 568,
          "midi": 68,
          "name": "G#4",
          "ticks": 9240,
          "time": 56.61752250000001,
          "velocity": 1
        },
        {
          "duration": 0.5392144999999928,
          "durationTicks": 88,
          "midi": 61,
          "name": "C#4",
          "ticks": 9816,
          "time": 60.146926500000006,
          "velocity": 1
        },
        {
          "duration": 3.4803844999999995,
          "durationTicks": 568,
          "midi": 68,
          "name": "G#4",
          "ticks": 9912,
          "time": 60.735160500000006,
          "velocity": 1
        },
        {
          "duration": 0.5392144999999999,
          "durationTicks": 88,
          "midi": 61,
          "name": "C#4",
          "ticks": 10488,
          "time": 64.2645645,
          "velocity": 1
        }
      ]
    },
    {
      "channel": 13,
      "controlChanges": {
        "0": [
          {
            "number": 0,
            "ticks": 9144,
            "time": 56.02928850000001,
            "value": 0.06299212598425197
          }
        ],
        "7": [
          {
            "number": 7,
            "ticks": 5976,
            "time": 36.6175665,
            "value": 0.5118110236220472
          },
          {
            "number": 7,
            "ticks": 6072,
            "time": 37.2058005,
            "value": 0.4330708661417323
          },
          {
            "number": 7,
            "ticks": 9048,
            "time": 55.44105450000001,
            "value": 0.5118110236220472
          },
          {
            "number": 7,
            "ticks": 9144,
            "time": 56.02928850000001,
            "value": 0.4330708661417323
          },
          {
            "number": 7,
            "ticks": 9144,
            "time": 56.02928850000001,
            "value": 0.3543307086614173
          }
        ],
        "10": [
          {
            "number": 10,
            "ticks": 3000,
            "time": 18.3823125,
            "value": 0.25196850393700787
          },
          {
            "number": 10,
            "ticks": 3048,
            "time": 18.6764295,
            "value": 0.7559055118110236
          },
          {
            "number": 10,
            "ticks": 3072,
            "time": 18.823488,
            "value": 0.25196850393700787
          },
          {
            "number": 10,
            "ticks": 3120,
            "time": 19.117605,
            "value": 0.7559055118110236
          },
          {
            "number": 10,
            "ticks": 3168,
            "time": 19.411722,
            "value": 0.25196850393700787
          },
          {
            "number": 10,
            "ticks": 3216,
            "time": 19.705839,
            "value": 0.7559055118110236
          },
          {
            "number": 10,
            "ticks": 3264,
            "time": 19.999956,
            "value": 0.25196850393700787
          },
          {
            "number": 10,
            "ticks": 3360,
            "time": 20.58819,
            "value": 0.7559055118110236
          },
          {
            "number": 10,
            "ticks": 3384,
            "time": 20.7352485,
            "value": 0.7559055118110236
          },
          {
            "number": 10,
            "ticks": 3432,
            "time": 21.0293655,
            "value": 0.25196850393700787
          },
          {
            "number": 10,
            "ticks": 3456,
            "time": 21.176424,
            "value": 0.7559055118110236
          },
          {
            "number": 10,
            "ticks": 3504,
            "time": 21.470541,
            "value": 0.25196850393700787
          },
          {
            "number": 10,
            "ticks": 3552,
            "time": 21.764658,
            "value": 0.7559055118110236
          },
          {
            "number": 10,
            "ticks": 3600,
            "time": 22.058775,
            "value": 0.25196850393700787
          },
          {
            "number": 10,
            "ticks": 3648,
            "time": 22.352892,
            "value": 0.7559055118110236
          },
          {
            "number": 10,
            "ticks": 3744,
            "time": 22.941126,
            "value": 0.25196850393700787
          },
          {
            "number": 10,
            "ticks": 3768,
            "time": 23.0881845,
            "value": 0.25196850393700787
          },
          {
            "number": 10,
            "ticks": 3816,
            "time": 23.3823015,
            "value": 0.7559055118110236
          },
          {
            "number": 10,
            "ticks": 3840,
            "time": 23.52936,
            "value": 0.25196850393700787
          },
          {
            "number": 10,
            "ticks": 3888,
            "time": 23.823477,
            "value": 0.7559055118110236
          },
          {
            "number": 10,
            "ticks": 3936,
            "time": 24.117594,
            "value": 0.25196850393700787
          },
          {
            "number": 10,
            "ticks": 3984,
            "time": 24.411711,
            "value": 0.7559055118110236
          },
          {
            "number": 10,
            "ticks": 4032,
            "time": 24.705828,
            "value": 0.25196850393700787
          },
          {
            "number": 10,
            "ticks": 4128,
            "time": 25.294062,
            "value": 0.7559055118110236
          },
          {
            "number": 10,
            "ticks": 4152,
            "time": 25.4411205,
            "value": 0.7559055118110236
          },
          {
            "number": 10,
            "ticks": 4200,
            "time": 25.7352375,
            "value": 0.25196850393700787
          },
          {
            "number": 10,
            "ticks": 4224,
            "time": 25.882296,
            "value": 0.7559055118110236
          },
          {
            "number": 10,
            "ticks": 4272,
            "time": 26.176413,
            "value": 0.25196850393700787
          },
          {
            "number": 10,
            "ticks": 4320,
            "time": 26.47053,
            "value": 0.7559055118110236
          },
          {
            "number": 10,
            "ticks": 4368,
            "time": 26.764647,
            "value": 0.25196850393700787
          },
          {
            "number": 10,
            "ticks": 4416,
            "time": 27.058764,
            "value": 0.7559055118110236
          },
          {
            "number": 10,
            "ticks": 4512,
            "time": 27.646998,
            "value": 0.25196850393700787
          },
          {
            "number": 10,
            "ticks": 4536,
            "time": 27.7940565,
            "value": 0.25196850393700787
          },
          {
            "number": 10,
            "ticks": 4584,
            "time": 28.0881735,
            "value": 0.7559055118110236
          },
          {
            "number": 10,
            "ticks": 4608,
            "time": 28.235232,
            "value": 0.25196850393700787
          },
          {
            "number": 10,
            "ticks": 4656,
            "time": 28.529349,
            "value": 0.7559055118110236
          },
          {
            "number": 10,
            "ticks": 4704,
            "time": 28.823466,
            "value": 0.25196850393700787
          },
          {
            "number": 10,
            "ticks": 4752,
            "time": 29.117583,
            "value": 0.7559055118110236
          },
          {
            "number": 10,
            "ticks": 4800,
            "time": 29.4117,
            "value": 0.25196850393700787
          },
          {
            "number": 10,
            "ticks": 4896,
            "time": 29.999934,
            "value": 0.7559055118110236
          },
          {
            "number": 10,
            "ticks": 4920,
            "time": 30.1469925,
            "value": 0.7559055118110236
          },
          {
            "number": 10,
            "ticks": 4968,
            "time": 30.4411095,
            "value": 0.25196850393700787
          },
          {
            "number": 10,
            "ticks": 4992,
            "time": 30.588168,
            "value": 0.7559055118110236
          },
          {
            "number": 10,
            "ticks": 5040,
            "time": 30.882285,
            "value": 0.25196850393700787
          },
          {
            "number": 10,
            "ticks": 5088,
            "time": 31.176402,
            "value": 0.7559055118110236
          },
          {
            "number": 10,
            "ticks": 5136,
            "time": 31.470519,
            "value": 0.25196850393700787
          },
          {
            "number": 10,
            "ticks": 5184,
            "time": 31.764636,
            "value": 0.7559055118110236
          },
          {
            "number": 10,
            "ticks": 5280,
            "time": 32.35287,
            "value": 0.25196850393700787
          },
          {
            "number": 10,
            "ticks": 5304,
            "time": 32.4999285,
            "value": 0.25196850393700787
          },
          {
            "number": 10,
            "ticks": 5352,
            "time": 32.7940455,
            "value": 0.7559055118110236
          },
          {
            "number": 10,
            "ticks": 5376,
            "time": 32.941104,
            "value": 0.25196850393700787
          },
          {
            "number": 10,
            "ticks": 5424,
            "time": 33.235221,
            "value": 0.7559055118110236
          },
          {
            "number": 10,
            "ticks": 5472,
            "time": 33.529338,
            "value": 0.25196850393700787
          },
          {
            "number": 10,
            "ticks": 5520,
            "time": 33.823455,
            "value": 0.7559055118110236
          },
          {
            "number": 10,
            "ticks": 5568,
            "time": 34.117572,
            "value": 0.25196850393700787
          },
          {
            "number": 10,
            "ticks": 5664,
            "time": 34.705806,
            "value": 0.7559055118110236
          },
          {
            "number": 10,
            "ticks": 5688,
            "time": 34.8528645,
            "value": 0.7559055118110236
          },
          {
            "number": 10,
            "ticks": 5736,
            "time": 35.1469815,
            "value": 0.25196850393700787
          },
          {
            "number": 10,
            "ticks": 5760,
            "time": 35.29404,
            "value": 0.7559055118110236
          },
          {
            "number": 10,
            "ticks": 5808,
            "time": 35.588157,
            "value": 0.25196850393700787
          },
          {
            "number": 10,
            "ticks": 5856,
            "time": 35.882274,
            "value": 0.7559055118110236
          },
          {
            "number": 10,
            "ticks": 5904,
            "time": 36.176391,
            "value": 0.25196850393700787
          },
          {
            "number": 10,
            "ticks": 5952,
            "time": 36.470508,
            "value": 0.7559055118110236
          },
          {
            "number": 10,
            "ticks": 5976,
            "time": 36.6175665,
            "value": 0.5984251968503937
          },
          {
            "number": 10,
            "ticks": 6072,
            "time": 37.2058005,
            "value": 0.25196850393700787
          },
          {
            "number": 10,
            "ticks": 6120,
            "time": 37.4999175,
            "value": 0.7559055118110236
          },
          {
            "number": 10,
            "ticks": 6144,
            "time": 37.646976,
            "value": 0.25196850393700787
          },
          {
            "number": 10,
            "ticks": 6192,
            "time": 37.941093,
            "value": 0.7559055118110236
          },
          {
            "number": 10,
            "ticks": 6240,
            "time": 38.23521,
            "value": 0.25196850393700787
          },
          {
            "number": 10,
            "ticks": 6288,
            "time": 38.529327,
            "value": 0.7559055118110236
          },
          {
            "number": 10,
            "ticks": 6336,
            "time": 38.823444,
            "value": 0.25196850393700787
          },
          {
            "number": 10,
            "ticks": 6432,
            "time": 39.411678,
            "value": 0.7559055118110236
          },
          {
            "number": 10,
            "ticks": 6456,
            "time": 39.5587365,
            "value": 0.7559055118110236
          },
          {
            "number": 10,
            "ticks": 6504,
            "time": 39.8528535,
            "value": 0.25196850393700787
          },
          {
            "number": 10,
            "ticks": 6528,
            "time": 39.999912,
            "value": 0.7559055118110236
          },
          {
            "number": 10,
            "ticks": 6576,
            "time": 40.294029,
            "value": 0.25196850393700787
          },
          {
            "number": 10,
            "ticks": 6624,
            "time": 40.588146,
            "value": 0.7559055118110236
          },
          {
            "number": 10,
            "ticks": 6672,
            "time": 40.882263,
            "value": 0.25196850393700787
          },
          {
            "number": 10,
            "ticks": 6720,
            "time": 41.17638,
            "value": 0.7559055118110236
          },
          {
            "number": 10,
            "ticks": 6816,
            "time": 41.764614,
            "value": 0.25196850393700787
          },
          {
            "number": 10,
            "ticks": 6840,
            "time": 41.9116725,
            "value": 0.25196850393700787
          },
          {
            "number": 10,
            "ticks": 6888,
            "time": 42.2057895,
            "value": 0.7559055118110236
          },
          {
            "number": 10,
            "ticks": 6912,
            "time": 42.352848,
            "value": 0.25196850393700787
          },
          {
            "number": 10,
            "ticks": 6960,
            "time": 42.646965,
            "value": 0.7559055118110236
          },
          {
            "number": 10,
            "ticks": 7008,
            "time": 42.941082,
            "value": 0.25196850393700787
          },
          {
            "number": 10,
            "ticks": 7056,
            "time": 43.235199,
            "value": 0.7559055118110236
          },
          {
            "number": 10,
            "ticks": 7104,
            "time": 43.529316,
            "value": 0.25196850393700787
          },
          {
            "number": 10,
            "ticks": 7200,
            "time": 44.11755000000001,
            "value": 0.7559055118110236
          },
          {
            "number": 10,
            "ticks": 7224,
            "time": 44.26460850000001,
            "value": 0.7559055118110236
          },
          {
            "number": 10,
            "ticks": 7272,
            "time": 44.55872550000001,
            "value": 0.25196850393700787
          },
          {
            "number": 10,
            "ticks": 7296,
            "time": 44.70578400000001,
            "value": 0.7559055118110236
          },
          {
            "number": 10,
            "ticks": 7344,
            "time": 44.99990100000001,
            "value": 0.25196850393700787
          },
          {
            "number": 10,
            "ticks": 7392,
            "time": 45.29401800000001,
            "value": 0.7559055118110236
          },
          {
            "number": 10,
            "ticks": 7440,
            "time": 45.58813500000001,
            "value": 0.25196850393700787
          },
          {
            "number": 10,
            "ticks": 7488,
            "time": 45.88225200000001,
            "value": 0.7559055118110236
          },
          {
            "number": 10,
            "ticks": 7584,
            "time": 46.47048600000001,
            "value": 0.25196850393700787
          },
          {
            "number": 10,
            "ticks": 7608,
            "time": 46.61754450000001,
            "value": 0.25196850393700787
          },
          {
            "number": 10,
            "ticks": 7656,
            "time": 46.91166150000001,
            "value": 0.7559055118110236
          },
          {
            "number": 10,
            "ticks": 7680,
            "time": 47.05872000000001,
            "value": 0.25196850393700787
          },
          {
            "number": 10,
            "ticks": 7728,
            "time": 47.35283700000001,
            "value": 0.7559055118110236
          },
          {
            "number": 10,
            "ticks": 7776,
            "time": 47.64695400000001,
            "value": 0.25196850393700787
          },
          {
            "number": 10,
            "ticks": 7824,
            "time": 47.94107100000001,
            "value": 0.7559055118110236
          },
          {
            "number": 10,
            "ticks": 7872,
            "time": 48.23518800000001,
            "value": 0.25196850393700787
          },
          {
            "number": 10,
            "ticks": 7968,
            "time": 48.82342200000001,
            "value": 0.7559055118110236
          },
          {
            "number": 10,
            "ticks": 7992,
            "time": 48.97048050000001,
            "value": 0.7559055118110236
          },
          {
            "number": 10,
            "ticks": 8040,
            "time": 49.26459750000001,
            "value": 0.25196850393700787
          },
          {
            "number": 10,
            "ticks": 8064,
            "time": 49.41165600000001,
            "value": 0.7559055118110236
          },
          {
            "number": 10,
            "ticks": 8112,
            "time": 49.70577300000001,
            "value": 0.25196850393700787
          },
          {
            "number": 10,
            "ticks": 8160,
            "time": 49.99989000000001,
            "value": 0.7559055118110236
          },
          {
            "number": 10,
            "ticks": 8208,
            "time": 50.29400700000001,
            "value": 0.25196850393700787
          },
          {
            "number": 10,
            "ticks": 8256,
            "time": 50.58812400000001,
            "value": 0.7559055118110236
          },
          {
            "number": 10,
            "ticks": 8352,
            "time": 51.17635800000001,
            "value": 0.25196850393700787
          },
          {
            "number": 10,
            "ticks": 8376,
            "time": 51.32341650000001,
            "value": 0.25196850393700787
          },
          {
            "number": 10,
            "ticks": 8424,
            "time": 51.61753350000001,
            "value": 0.7559055118110236
          },
          {
            "number": 10,
            "ticks": 8448,
            "time": 51.76459200000001,
            "value": 0.25196850393700787
          },
          {
            "number": 10,
            "ticks": 8496,
            "time": 52.05870900000001,
            "value": 0.7559055118110236
          },
          {
            "number": 10,
            "ticks": 8544,
            "time": 52.35282600000001,
            "value": 0.25196850393700787
          },
          {
            "number": 10,
            "ticks": 8592,
            "time": 52.64694300000001,
            "value": 0.7559055118110236
          },
          {
            "number": 10,
            "ticks": 8640,
            "time": 52.94106000000001,
            "value": 0.25196850393700787
          },
          {
            "number": 10,
            "ticks": 8736,
            "time": 53.52929400000001,
            "value": 0.7559055118110236
          },
          {
            "number": 10,
            "ticks": 8760,
            "time": 53.67635250000001,
            "value": 0.7559055118110236
          },
          {
            "number": 10,
            "ticks": 8808,
            "time": 53.97046950000001,
            "value": 0.25196850393700787
          },
          {
            "number": 10,
            "ticks": 8832,
            "time": 54.11752800000001,
            "value": 0.7559055118110236
          },
          {
            "number": 10,
            "ticks": 8880,
            "time": 54.41164500000001,
            "value": 0.25196850393700787
          },
          {
            "number": 10,
            "ticks": 8928,
            "time": 54.70576200000001,
            "value": 0.7559055118110236
          },
          {
            "number": 10,
            "ticks": 8976,
            "time": 54.99987900000001,
            "value": 0.25196850393700787
          },
          {
            "number": 10,
            "ticks": 9024,
            "time": 55.29399600000001,
            "value": 0.7559055118110236
          },
          {
            "number": 10,
            "ticks": 9048,
            "time": 55.44105450000001,
            "value": 0.5984251968503937
          }
        ],
        "32": [
          {
            "number": 32,
            "ticks": 9144,
            "time": 56.02928850000001,
            "value": 0.015748031496062992
          }
        ]
      },
      "pitchBends": [],
      "instrument": {
        "family": "organ",
        "number": 16,
        "name": "drawbar organ"
      },
      "name": "",
      "notes": [
        {
          "duration": 0.09803899999999999,
          "durationTicks": 16,
          "midi": 78,
          "name": "F#5",
          "ticks": 3000,
          "time": 18.3823125,
          "velocity": 1
        },
        {
          "duration": 0.09803899999999999,
          "durationTicks": 16,
          "midi": 78,
          "name": "F#5",
          "ticks": 3048,
          "time": 18.6764295,
          "velocity": 1
        },
        {
          "duration": 0.09803899999999999,
          "durationTicks": 16,
          "midi": 78,
          "name": "F#5",
          "ticks": 3072,
          "time": 18.823488,
          "velocity": 1
        },
        {
          "duration": 0.09803899999999999,
          "durationTicks": 16,
          "midi": 78,
          "name": "F#5",
          "ticks": 3120,
          "time": 19.117605,
          "velocity": 1
        },
        {
          "duration": 0.09803899999999999,
          "durationTicks": 16,
          "midi": 78,
          "name": "F#5",
          "ticks": 3168,
          "time": 19.411722,
          "velocity": 1
        },
        {
          "duration": 0.09803899999999999,
          "durationTicks": 16,
          "midi": 78,
          "name": "F#5",
          "ticks": 3216,
          "time": 19.705839,
          "velocity": 1
        },
        {
          "duration": 0.09803899999999999,
          "durationTicks": 16,
          "midi": 78,
          "name": "F#5",
          "ticks": 3264,
          "time": 19.999956,
          "velocity": 1
        },
        {
          "duration": 0.09803899999999999,
          "durationTicks": 16,
          "midi": 78,
          "name": "F#5",
          "ticks": 3288,
          "time": 20.1470145,
          "velocity": 1
        },
        {
          "duration": 0.09803899999999999,
          "durationTicks": 16,
          "midi": 78,
          "name": "F#5",
          "ticks": 3312,
          "time": 20.294073,
          "velocity": 1
        },
        {
          "duration": 0.09803899999999999,
          "durationTicks": 16,
          "midi": 78,
          "name": "F#5",
          "ticks": 3360,
          "time": 20.58819,
          "velocity": 1
        },
        {
          "duration": 0.09803899999999999,
          "durationTicks": 16,
          "midi": 78,
          "name": "F#5",
          "ticks": 3384,
          "time": 20.7352485,
          "velocity": 1
        },
        {
          "duration": 0.09803899999999999,
          "durationTicks": 16,
          "midi": 78,
          "name": "F#5",
          "ticks": 3432,
          "time": 21.0293655,
          "velocity": 1
        },
        {
          "duration": 0.09803899999999999,
          "durationTicks": 16,
          "midi": 78,
          "name": "F#5",
          "ticks": 3456,
          "time": 21.176424,
          "velocity": 1
        },
        {
          "duration": 0.09803899999999999,
          "durationTicks": 16,
          "midi": 78,
          "name": "F#5",
          "ticks": 3504,
          "time": 21.470541,
          "velocity": 1
        },
        {
          "duration": 0.09803899999999999,
          "durationTicks": 16,
          "midi": 78,
          "name": "F#5",
          "ticks": 3552,
          "time": 21.764658,
          "velocity": 1
        },
        {
          "duration": 0.09803899999999999,
          "durationTicks": 16,
          "midi": 78,
          "name": "F#5",
          "ticks": 3600,
          "time": 22.058775,
          "velocity": 1
        },
        {
          "duration": 0.09803899999999999,
          "durationTicks": 16,
          "midi": 78,
          "name": "F#5",
          "ticks": 3648,
          "time": 22.352892,
          "velocity": 1
        },
        {
          "duration": 0.09803899999999999,
          "durationTicks": 16,
          "midi": 78,
          "name": "F#5",
          "ticks": 3672,
          "time": 22.4999505,
          "velocity": 1
        },
        {
          "duration": 0.09803900000000354,
          "durationTicks": 16,
          "midi": 78,
          "name": "F#5",
          "ticks": 3696,
          "time": 22.647009,
          "velocity": 1
        },
        {
          "duration": 0.09803900000000354,
          "durationTicks": 16,
          "midi": 78,
          "name": "F#5",
          "ticks": 3744,
          "time": 22.941126,
          "velocity": 1
        },
        {
          "duration": 0.09803900000000354,
          "durationTicks": 16,
          "midi": 78,
          "name": "F#5",
          "ticks": 3768,
          "time": 23.0881845,
          "velocity": 1
        },
        {
          "duration": 0.09803900000000354,
          "durationTicks": 16,
          "midi": 78,
          "name": "F#5",
          "ticks": 3816,
          "time": 23.3823015,
          "velocity": 1
        },
        {
          "duration": 0.09803900000000354,
          "durationTicks": 16,
          "midi": 78,
          "name": "F#5",
          "ticks": 3840,
          "time": 23.52936,
          "velocity": 1
        },
        {
          "duration": 0.09803900000000354,
          "durationTicks": 16,
          "midi": 78,
          "name": "F#5",
          "ticks": 3888,
          "time": 23.823477,
          "velocity": 1
        },
        {
          "duration": 0.09803900000000354,
          "durationTicks": 16,
          "midi": 78,
          "name": "F#5",
          "ticks": 3936,
          "time": 24.117594,
          "velocity": 1
        },
        {
          "duration": 0.09803900000000354,
          "durationTicks": 16,
          "midi": 78,
          "name": "F#5",
          "ticks": 3984,
          "time": 24.411711,
          "velocity": 1
        },
        {
          "duration": 0.09803900000000354,
          "durationTicks": 16,
          "midi": 78,
          "name": "F#5",
          "ticks": 4032,
          "time": 24.705828,
          "velocity": 1
        },
        {
          "duration": 0.09803900000000354,
          "durationTicks": 16,
          "midi": 78,
          "name": "F#5",
          "ticks": 4056,
          "time": 24.8528865,
          "velocity": 1
        },
        {
          "duration": 0.09803900000000354,
          "durationTicks": 16,
          "midi": 78,
          "name": "F#5",
          "ticks": 4080,
          "time": 24.999945,
          "velocity": 1
        },
        {
          "duration": 0.09803900000000354,
          "durationTicks": 16,
          "midi": 78,
          "name": "F#5",
          "ticks": 4128,
          "time": 25.294062,
          "velocity": 1
        },
        {
          "duration": 0.09803900000000354,
          "durationTicks": 16,
          "midi": 78,
          "name": "F#5",
          "ticks": 4152,
          "time": 25.4411205,
          "velocity": 1
        },
        {
          "duration": 0.09803900000000354,
          "durationTicks": 16,
          "midi": 78,
          "name": "F#5",
          "ticks": 4200,
          "time": 25.7352375,
          "velocity": 1
        },
        {
          "duration": 0.09803900000000354,
          "durationTicks": 16,
          "midi": 78,
          "name": "F#5",
          "ticks": 4224,
          "time": 25.882296,
          "velocity": 1
        },
        {
          "duration": 0.09803900000000354,
          "durationTicks": 16,
          "midi": 78,
          "name": "F#5",
          "ticks": 4272,
          "time": 26.176413,
          "velocity": 1
        },
        {
          "duration": 0.09803900000000354,
          "durationTicks": 16,
          "midi": 78,
          "name": "F#5",
          "ticks": 4320,
          "time": 26.47053,
          "velocity": 1
        },
        {
          "duration": 0.09803900000000354,
          "durationTicks": 16,
          "midi": 78,
          "name": "F#5",
          "ticks": 4368,
          "time": 26.764647,
          "velocity": 1
        },
        {
          "duration": 0.09803900000000354,
          "durationTicks": 16,
          "midi": 78,
          "name": "F#5",
          "ticks": 4416,
          "time": 27.058764,
          "velocity": 1
        },
        {
          "duration": 0.09803900000000354,
          "durationTicks": 16,
          "midi": 78,
          "name": "F#5",
          "ticks": 4440,
          "time": 27.2058225,
          "velocity": 1
        },
        {
          "duration": 0.09803900000000354,
          "durationTicks": 16,
          "midi": 78,
          "name": "F#5",
          "ticks": 4464,
          "time": 27.352881,
          "velocity": 1
        },
        {
          "duration": 0.09803900000000354,
          "durationTicks": 16,
          "midi": 78,
          "name": "F#5",
          "ticks": 4512,
          "time": 27.646998,
          "velocity": 1
        },
        {
          "duration": 0.09803900000000354,
          "durationTicks": 16,
          "midi": 78,
          "name": "F#5",
          "ticks": 4536,
          "time": 27.7940565,
          "velocity": 1
        },
        {
          "duration": 0.09803900000000354,
          "durationTicks": 16,
          "midi": 78,
          "name": "F#5",
          "ticks": 4584,
          "time": 28.0881735,
          "velocity": 1
        },
        {
          "duration": 0.09803900000000354,
          "durationTicks": 16,
          "midi": 78,
          "name": "F#5",
          "ticks": 4608,
          "time": 28.235232,
          "velocity": 1
        },
        {
          "duration": 0.09803900000000354,
          "durationTicks": 16,
          "midi": 78,
          "name": "F#5",
          "ticks": 4656,
          "time": 28.529349,
          "velocity": 1
        },
        {
          "duration": 0.09803900000000354,
          "durationTicks": 16,
          "midi": 78,
          "name": "F#5",
          "ticks": 4704,
          "time": 28.823466,
          "velocity": 1
        },
        {
          "duration": 0.09803900000000354,
          "durationTicks": 16,
          "midi": 78,
          "name": "F#5",
          "ticks": 4752,
          "time": 29.117583,
          "velocity": 1
        },
        {
          "duration": 0.09803900000000354,
          "durationTicks": 16,
          "midi": 78,
          "name": "F#5",
          "ticks": 4800,
          "time": 29.4117,
          "velocity": 1
        },
        {
          "duration": 0.09803900000000354,
          "durationTicks": 16,
          "midi": 78,
          "name": "F#5",
          "ticks": 4824,
          "time": 29.5587585,
          "velocity": 1
        },
        {
          "duration": 0.09803900000000354,
          "durationTicks": 16,
          "midi": 78,
          "name": "F#5",
          "ticks": 4848,
          "time": 29.705817,
          "velocity": 1
        },
        {
          "duration": 0.09803900000000354,
          "durationTicks": 16,
          "midi": 78,
          "name": "F#5",
          "ticks": 4896,
          "time": 29.999934,
          "velocity": 1
        },
        {
          "duration": 0.09803900000000354,
          "durationTicks": 16,
          "midi": 78,
          "name": "F#5",
          "ticks": 4920,
          "time": 30.1469925,
          "velocity": 1
        },
        {
          "duration": 0.09803900000000354,
          "durationTicks": 16,
          "midi": 78,
          "name": "F#5",
          "ticks": 4968,
          "time": 30.4411095,
          "velocity": 1
        },
        {
          "duration": 0.09803900000000354,
          "durationTicks": 16,
          "midi": 78,
          "name": "F#5",
          "ticks": 4992,
          "time": 30.588168,
          "velocity": 1
        },
        {
          "duration": 0.09803900000000354,
          "durationTicks": 16,
          "midi": 78,
          "name": "F#5",
          "ticks": 5040,
          "time": 30.882285,
          "velocity": 1
        },
        {
          "duration": 0.09803900000000354,
          "durationTicks": 16,
          "midi": 78,
          "name": "F#5",
          "ticks": 5088,
          "time": 31.176402,
          "velocity": 1
        },
        {
          "duration": 0.09803900000000354,
          "durationTicks": 16,
          "midi": 78,
          "name": "F#5",
          "ticks": 5136,
          "time": 31.470519,
          "velocity": 1
        },
        {
          "duration": 0.09803900000000354,
          "durationTicks": 16,
          "midi": 78,
          "name": "F#5",
          "ticks": 5184,
          "time": 31.764636,
          "velocity": 1
        },
        {
          "duration": 0.09803900000000354,
          "durationTicks": 16,
          "midi": 78,
          "name": "F#5",
          "ticks": 5208,
          "time": 31.9116945,
          "velocity": 1
        },
        {
          "duration": 0.09803899999999999,
          "durationTicks": 16,
          "midi": 78,
          "name": "F#5",
          "ticks": 5232,
          "time": 32.058753,
          "velocity": 1
        },
        {
          "duration": 0.09803899999999999,
          "durationTicks": 16,
          "midi": 78,
          "name": "F#5",
          "ticks": 5280,
          "time": 32.35287,
          "velocity": 1
        },
        {
          "duration": 0.09803899999999999,
          "durationTicks": 16,
          "midi": 78,
          "name": "F#5",
          "ticks": 5304,
          "time": 32.4999285,
          "velocity": 1
        },
        {
          "duration": 0.09803899999999999,
          "durationTicks": 16,
          "midi": 78,
          "name": "F#5",
          "ticks": 5352,
          "time": 32.7940455,
          "velocity": 1
        },
        {
          "duration": 0.09803899999999999,
          "durationTicks": 16,
          "midi": 78,
          "name": "F#5",
          "ticks": 5376,
          "time": 32.941104,
          "velocity": 1
        },
        {
          "duration": 0.09803899999999999,
          "durationTicks": 16,
          "midi": 78,
          "name": "F#5",
          "ticks": 5424,
          "time": 33.235221,
          "velocity": 1
        },
        {
          "duration": 0.09803899999999999,
          "durationTicks": 16,
          "midi": 78,
          "name": "F#5",
          "ticks": 5472,
          "time": 33.529338,
          "velocity": 1
        },
        {
          "duration": 0.09803899999999999,
          "durationTicks": 16,
          "midi": 78,
          "name": "F#5",
          "ticks": 5520,
          "time": 33.823455,
          "velocity": 1
        },
        {
          "duration": 0.09803899999999999,
          "durationTicks": 16,
          "midi": 78,
          "name": "F#5",
          "ticks": 5568,
          "time": 34.117572,
          "velocity": 1
        },
        {
          "duration": 0.09803899999999999,
          "durationTicks": 16,
          "midi": 78,
          "name": "F#5",
          "ticks": 5592,
          "time": 34.2646305,
          "velocity": 1
        },
        {
          "duration": 0.09803899999999999,
          "durationTicks": 16,
          "midi": 78,
          "name": "F#5",
          "ticks": 5616,
          "time": 34.411689,
          "velocity": 1
        },
        {
          "duration": 0.09803899999999999,
          "durationTicks": 16,
          "midi": 78,
          "name": "F#5",
          "ticks": 5664,
          "time": 34.705806,
          "velocity": 1
        },
        {
          "duration": 0.09803899999999999,
          "durationTicks": 16,
          "midi": 78,
          "name": "F#5",
          "ticks": 5688,
          "time": 34.8528645,
          "velocity": 1
        },
        {
          "duration": 0.09803899999999999,
          "durationTicks": 16,
          "midi": 78,
          "name": "F#5",
          "ticks": 5736,
          "time": 35.1469815,
          "velocity": 1
        },
        {
          "duration": 0.09803899999999999,
          "durationTicks": 16,
          "midi": 78,
          "name": "F#5",
          "ticks": 5760,
          "time": 35.29404,
          "velocity": 1
        },
        {
          "duration": 0.09803899999999999,
          "durationTicks": 16,
          "midi": 78,
          "name": "F#5",
          "ticks": 5808,
          "time": 35.588157,
          "velocity": 1
        },
        {
          "duration": 0.09803899999999999,
          "durationTicks": 16,
          "midi": 78,
          "name": "F#5",
          "ticks": 5856,
          "time": 35.882274,
          "velocity": 1
        },
        {
          "duration": 0.09803899999999999,
          "durationTicks": 16,
          "midi": 78,
          "name": "F#5",
          "ticks": 5904,
          "time": 36.176391,
          "velocity": 1
        },
        {
          "duration": 0.09803899999999999,
          "durationTicks": 16,
          "midi": 78,
          "name": "F#5",
          "ticks": 5952,
          "time": 36.470508,
          "velocity": 1
        },
        {
          "duration": 0.09803899999999999,
          "durationTicks": 16,
          "midi": 78,
          "name": "F#5",
          "ticks": 5976,
          "time": 36.6175665,
          "velocity": 1
        },
        {
          "duration": 0.09803899999999999,
          "durationTicks": 16,
          "midi": 76,
          "name": "E5",
          "ticks": 6000,
          "time": 36.764625,
          "velocity": 1
        },
        {
          "duration": 0.09803899999999999,
          "durationTicks": 16,
          "midi": 75,
          "name": "D#5",
          "ticks": 6024,
          "time": 36.9116835,
          "velocity": 1
        },
        {
          "duration": 0.09803899999999999,
          "durationTicks": 16,
          "midi": 73,
          "name": "C#5",
          "ticks": 6048,
          "time": 37.058742,
          "velocity": 1
        },
        {
          "duration": 0.09803899999999999,
          "durationTicks": 16,
          "midi": 78,
          "name": "F#5",
          "ticks": 6072,
          "time": 37.2058005,
          "velocity": 1
        },
        {
          "duration": 0.09803899999999999,
          "durationTicks": 16,
          "midi": 78,
          "name": "F#5",
          "ticks": 6120,
          "time": 37.4999175,
          "velocity": 1
        },
        {
          "duration": 0.09803899999999999,
          "durationTicks": 16,
          "midi": 78,
          "name": "F#5",
          "ticks": 6144,
          "time": 37.646976,
          "velocity": 1
        },
        {
          "duration": 0.09803899999999999,
          "durationTicks": 16,
          "midi": 78,
          "name": "F#5",
          "ticks": 6192,
          "time": 37.941093,
          "velocity": 1
        },
        {
          "duration": 0.09803899999999999,
          "durationTicks": 16,
          "midi": 78,
          "name": "F#5",
          "ticks": 6240,
          "time": 38.23521,
          "velocity": 1
        },
        {
          "duration": 0.09803899999999999,
          "durationTicks": 16,
          "midi": 78,
          "name": "F#5",
          "ticks": 6288,
          "time": 38.529327,
          "velocity": 1
        },
        {
          "duration": 0.09803899999999999,
          "durationTicks": 16,
          "midi": 78,
          "name": "F#5",
          "ticks": 6336,
          "time": 38.823444,
          "velocity": 1
        },
        {
          "duration": 0.09803899999999999,
          "durationTicks": 16,
          "midi": 78,
          "name": "F#5",
          "ticks": 6360,
          "time": 38.9705025,
          "velocity": 1
        },
        {
          "duration": 0.09803899999999999,
          "durationTicks": 16,
          "midi": 78,
          "name": "F#5",
          "ticks": 6384,
          "time": 39.117561,
          "velocity": 1
        },
        {
          "duration": 0.09803899999999999,
          "durationTicks": 16,
          "midi": 78,
          "name": "F#5",
          "ticks": 6432,
          "time": 39.411678,
          "velocity": 1
        },
        {
          "duration": 0.09803899999999999,
          "durationTicks": 16,
          "midi": 78,
          "name": "F#5",
          "ticks": 6456,
          "time": 39.5587365,
          "velocity": 1
        },
        {
          "duration": 0.09803899999999999,
          "durationTicks": 16,
          "midi": 78,
          "name": "F#5",
          "ticks": 6504,
          "time": 39.8528535,
          "velocity": 1
        },
        {
          "duration": 0.09803899999999999,
          "durationTicks": 16,
          "midi": 78,
          "name": "F#5",
          "ticks": 6528,
          "time": 39.999912,
          "velocity": 1
        },
        {
          "duration": 0.09803899999999999,
          "durationTicks": 16,
          "midi": 78,
          "name": "F#5",
          "ticks": 6576,
          "time": 40.294029,
          "velocity": 1
        },
        {
          "duration": 0.09803899999999999,
          "durationTicks": 16,
          "midi": 78,
          "name": "F#5",
          "ticks": 6624,
          "time": 40.588146,
          "velocity": 1
        },
        {
          "duration": 0.09803899999999999,
          "durationTicks": 16,
          "midi": 78,
          "name": "F#5",
          "ticks": 6672,
          "time": 40.882263,
          "velocity": 1
        },
        {
          "duration": 0.09803899999999999,
          "durationTicks": 16,
          "midi": 78,
          "name": "F#5",
          "ticks": 6720,
          "time": 41.17638,
          "velocity": 1
        },
        {
          "duration": 0.09803899999999999,
          "durationTicks": 16,
          "midi": 78,
          "name": "F#5",
          "ticks": 6744,
          "time": 41.3234385,
          "velocity": 1
        },
        {
          "duration": 0.09803899999999999,
          "durationTicks": 16,
          "midi": 78,
          "name": "F#5",
          "ticks": 6768,
          "time": 41.470497,
          "velocity": 1
        },
        {
          "duration": 0.09803899999999999,
          "durationTicks": 16,
          "midi": 78,
          "name": "F#5",
          "ticks": 6816,
          "time": 41.764614,
          "velocity": 1
        },
        {
          "duration": 0.09803899999999999,
          "durationTicks": 16,
          "midi": 78,
          "name": "F#5",
          "ticks": 6840,
          "time": 41.9116725,
          "velocity": 1
        },
        {
          "duration": 0.09803899999999999,
          "durationTicks": 16,
          "midi": 78,
          "name": "F#5",
          "ticks": 6888,
          "time": 42.2057895,
          "velocity": 1
        },
        {
          "duration": 0.09803899999999999,
          "durationTicks": 16,
          "midi": 78,
          "name": "F#5",
          "ticks": 6912,
          "time": 42.352848,
          "velocity": 1
        },
        {
          "duration": 0.09803899999999999,
          "durationTicks": 16,
          "midi": 78,
          "name": "F#5",
          "ticks": 6960,
          "time": 42.646965,
          "velocity": 1
        },
        {
          "duration": 0.09803899999999999,
          "durationTicks": 16,
          "midi": 78,
          "name": "F#5",
          "ticks": 7008,
          "time": 42.941082,
          "velocity": 1
        },
        {
          "duration": 0.09803899999999999,
          "durationTicks": 16,
          "midi": 78,
          "name": "F#5",
          "ticks": 7056,
          "time": 43.235199,
          "velocity": 1
        },
        {
          "duration": 0.09803899999999999,
          "durationTicks": 16,
          "midi": 78,
          "name": "F#5",
          "ticks": 7104,
          "time": 43.529316,
          "velocity": 1
        },
        {
          "duration": 0.09803899999999288,
          "durationTicks": 16,
          "midi": 78,
          "name": "F#5",
          "ticks": 7128,
          "time": 43.67637450000001,
          "velocity": 1
        },
        {
          "duration": 0.09803899999999288,
          "durationTicks": 16,
          "midi": 78,
          "name": "F#5",
          "ticks": 7152,
          "time": 43.82343300000001,
          "velocity": 1
        },
        {
          "duration": 0.09803899999999288,
          "durationTicks": 16,
          "midi": 78,
          "name": "F#5",
          "ticks": 7200,
          "time": 44.11755000000001,
          "velocity": 1
        },
        {
          "duration": 0.09803899999999288,
          "durationTicks": 16,
          "midi": 78,
          "name": "F#5",
          "ticks": 7224,
          "time": 44.26460850000001,
          "velocity": 1
        },
        {
          "duration": 0.09803899999999288,
          "durationTicks": 16,
          "midi": 78,
          "name": "F#5",
          "ticks": 7272,
          "time": 44.55872550000001,
          "velocity": 1
        },
        {
          "duration": 0.09803899999999288,
          "durationTicks": 16,
          "midi": 78,
          "name": "F#5",
          "ticks": 7296,
          "time": 44.70578400000001,
          "velocity": 1
        },
        {
          "duration": 0.09803899999999288,
          "durationTicks": 16,
          "midi": 78,
          "name": "F#5",
          "ticks": 7344,
          "time": 44.99990100000001,
          "velocity": 1
        },
        {
          "duration": 0.09803899999999288,
          "durationTicks": 16,
          "midi": 78,
          "name": "F#5",
          "ticks": 7392,
          "time": 45.29401800000001,
          "velocity": 1
        },
        {
          "duration": 0.09803899999999288,
          "durationTicks": 16,
          "midi": 78,
          "name": "F#5",
          "ticks": 7440,
          "time": 45.58813500000001,
          "velocity": 1
        },
        {
          "duration": 0.09803899999999288,
          "durationTicks": 16,
          "midi": 78,
          "name": "F#5",
          "ticks": 7488,
          "time": 45.88225200000001,
          "velocity": 1
        },
        {
          "duration": 0.09803899999999288,
          "durationTicks": 16,
          "midi": 78,
          "name": "F#5",
          "ticks": 7512,
          "time": 46.02931050000001,
          "velocity": 1
        },
        {
          "duration": 0.09803899999999288,
          "durationTicks": 16,
          "midi": 78,
          "name": "F#5",
          "ticks": 7536,
          "time": 46.17636900000001,
          "velocity": 1
        },
        {
          "duration": 0.09803899999999288,
          "durationTicks": 16,
          "midi": 78,
          "name": "F#5",
          "ticks": 7584,
          "time": 46.47048600000001,
          "velocity": 1
        },
        {
          "duration": 0.09803899999999288,
          "durationTicks": 16,
          "midi": 78,
          "name": "F#5",
          "ticks": 7608,
          "time": 46.61754450000001,
          "velocity": 1
        },
        {
          "duration": 0.09803899999999288,
          "durationTicks": 16,
          "midi": 78,
          "name": "F#5",
          "ticks": 7656,
          "time": 46.91166150000001,
          "velocity": 1
        },
        {
          "duration": 0.09803899999999288,
          "durationTicks": 16,
          "midi": 78,
          "name": "F#5",
          "ticks": 7680,
          "time": 47.05872000000001,
          "velocity": 1
        },
        {
          "duration": 0.09803899999999288,
          "durationTicks": 16,
          "midi": 78,
          "name": "F#5",
          "ticks": 7728,
          "time": 47.35283700000001,
          "velocity": 1
        },
        {
          "duration": 0.09803899999999288,
          "durationTicks": 16,
          "midi": 78,
          "name": "F#5",
          "ticks": 7776,
          "time": 47.64695400000001,
          "velocity": 1
        },
        {
          "duration": 0.09803899999999288,
          "durationTicks": 16,
          "midi": 78,
          "name": "F#5",
          "ticks": 7824,
          "time": 47.94107100000001,
          "velocity": 1
        },
        {
          "duration": 0.09803899999999288,
          "durationTicks": 16,
          "midi": 78,
          "name": "F#5",
          "ticks": 7872,
          "time": 48.23518800000001,
          "velocity": 1
        },
        {
          "duration": 0.09803899999999288,
          "durationTicks": 16,
          "midi": 78,
          "name": "F#5",
          "ticks": 7896,
          "time": 48.38224650000001,
          "velocity": 1
        },
        {
          "duration": 0.09803899999999288,
          "durationTicks": 16,
          "midi": 78,
          "name": "F#5",
          "ticks": 7920,
          "time": 48.52930500000001,
          "velocity": 1
        },
        {
          "duration": 0.09803899999999288,
          "durationTicks": 16,
          "midi": 78,
          "name": "F#5",
          "ticks": 7968,
          "time": 48.82342200000001,
          "velocity": 1
        },
        {
          "duration": 0.09803899999999288,
          "durationTicks": 16,
          "midi": 78,
          "name": "F#5",
          "ticks": 7992,
          "time": 48.97048050000001,
          "velocity": 1
        },
        {
          "duration": 0.09803899999999288,
          "durationTicks": 16,
          "midi": 78,
          "name": "F#5",
          "ticks": 8040,
          "time": 49.26459750000001,
          "velocity": 1
        },
        {
          "duration": 0.09803899999999288,
          "durationTicks": 16,
          "midi": 78,
          "name": "F#5",
          "ticks": 8064,
          "time": 49.41165600000001,
          "velocity": 1
        },
        {
          "duration": 0.09803899999999288,
          "durationTicks": 16,
          "midi": 78,
          "name": "F#5",
          "ticks": 8112,
          "time": 49.70577300000001,
          "velocity": 1
        },
        {
          "duration": 0.09803899999999288,
          "durationTicks": 16,
          "midi": 78,
          "name": "F#5",
          "ticks": 8160,
          "time": 49.99989000000001,
          "velocity": 1
        },
        {
          "duration": 0.09803899999999288,
          "durationTicks": 16,
          "midi": 78,
          "name": "F#5",
          "ticks": 8208,
          "time": 50.29400700000001,
          "velocity": 1
        },
        {
          "duration": 0.09803899999999288,
          "durationTicks": 16,
          "midi": 78,
          "name": "F#5",
          "ticks": 8256,
          "time": 50.58812400000001,
          "velocity": 1
        },
        {
          "duration": 0.09803899999999288,
          "durationTicks": 16,
          "midi": 78,
          "name": "F#5",
          "ticks": 8280,
          "time": 50.73518250000001,
          "velocity": 1
        },
        {
          "duration": 0.09803899999999288,
          "durationTicks": 16,
          "midi": 78,
          "name": "F#5",
          "ticks": 8304,
          "time": 50.88224100000001,
          "velocity": 1
        },
        {
          "duration": 0.09803899999999288,
          "durationTicks": 16,
          "midi": 78,
          "name": "F#5",
          "ticks": 8352,
          "time": 51.17635800000001,
          "velocity": 1
        },
        {
          "duration": 0.09803899999999288,
          "durationTicks": 16,
          "midi": 78,
          "name": "F#5",
          "ticks": 8376,
          "time": 51.32341650000001,
          "velocity": 1
        },
        {
          "duration": 0.09803899999999288,
          "durationTicks": 16,
          "midi": 78,
          "name": "F#5",
          "ticks": 8424,
          "time": 51.61753350000001,
          "velocity": 1
        },
        {
          "duration": 0.09803899999999288,
          "durationTicks": 16,
          "midi": 78,
          "name": "F#5",
          "ticks": 8448,
          "time": 51.76459200000001,
          "velocity": 1
        },
        {
          "duration": 0.09803899999999288,
          "durationTicks": 16,
          "midi": 78,
          "name": "F#5",
          "ticks": 8496,
          "time": 52.05870900000001,
          "velocity": 1
        },
        {
          "duration": 0.09803899999999288,
          "durationTicks": 16,
          "midi": 78,
          "name": "F#5",
          "ticks": 8544,
          "time": 52.35282600000001,
          "velocity": 1
        },
        {
          "duration": 0.09803899999999288,
          "durationTicks": 16,
          "midi": 78,
          "name": "F#5",
          "ticks": 8592,
          "time": 52.64694300000001,
          "velocity": 1
        },
        {
          "duration": 0.09803899999999288,
          "durationTicks": 16,
          "midi": 78,
          "name": "F#5",
          "ticks": 8640,
          "time": 52.94106000000001,
          "velocity": 1
        },
        {
          "duration": 0.09803899999999288,
          "durationTicks": 16,
          "midi": 78,
          "name": "F#5",
          "ticks": 8664,
          "time": 53.08811850000001,
          "velocity": 1
        },
        {
          "duration": 0.09803899999999288,
          "durationTicks": 16,
          "midi": 78,
          "name": "F#5",
          "ticks": 8688,
          "time": 53.23517700000001,
          "velocity": 1
        },
        {
          "duration": 0.09803899999999288,
          "durationTicks": 16,
          "midi": 78,
          "name": "F#5",
          "ticks": 8736,
          "time": 53.52929400000001,
          "velocity": 1
        },
        {
          "duration": 0.09803899999999288,
          "durationTicks": 16,
          "midi": 78,
          "name": "F#5",
          "ticks": 8760,
          "time": 53.67635250000001,
          "velocity": 1
        },
        {
          "duration": 0.09803899999999288,
          "durationTicks": 16,
          "midi": 78,
          "name": "F#5",
          "ticks": 8808,
          "time": 53.97046950000001,
          "velocity": 1
        },
        {
          "duration": 0.09803899999999288,
          "durationTicks": 16,
          "midi": 78,
          "name": "F#5",
          "ticks": 8832,
          "time": 54.11752800000001,
          "velocity": 1
        },
        {
          "duration": 0.09803899999999288,
          "durationTicks": 16,
          "midi": 78,
          "name": "F#5",
          "ticks": 8880,
          "time": 54.41164500000001,
          "velocity": 1
        },
        {
          "duration": 0.09803899999999288,
          "durationTicks": 16,
          "midi": 78,
          "name": "F#5",
          "ticks": 8928,
          "time": 54.70576200000001,
          "velocity": 1
        },
        {
          "duration": 0.09803899999999288,
          "durationTicks": 16,
          "midi": 78,
          "name": "F#5",
          "ticks": 8976,
          "time": 54.99987900000001,
          "velocity": 1
        },
        {
          "duration": 0.09803899999999288,
          "durationTicks": 16,
          "midi": 78,
          "name": "F#5",
          "ticks": 9024,
          "time": 55.29399600000001,
          "velocity": 1
        },
        {
          "duration": 0.09803899999999288,
          "durationTicks": 16,
          "midi": 78,
          "name": "F#5",
          "ticks": 9048,
          "time": 55.44105450000001,
          "velocity": 1
        },
        {
          "duration": 0.09803899999999288,
          "durationTicks": 16,
          "midi": 76,
          "name": "E5",
          "ticks": 9072,
          "time": 55.58811300000001,
          "velocity": 1
        },
        {
          "duration": 0.09803899999999288,
          "durationTicks": 16,
          "midi": 75,
          "name": "D#5",
          "ticks": 9096,
          "time": 55.73517150000001,
          "velocity": 1
        },
        {
          "duration": 0.09803899999999288,
          "durationTicks": 16,
          "midi": 73,
          "name": "C#5",
          "ticks": 9120,
          "time": 55.88223000000001,
          "velocity": 1
        }
      ]
    },
    {
      "channel": 0,
      "controlChanges": {
        "0": [
          {
            "number": 0,
            "ticks": 282,
            "time": 1.727937375,
            "value": 0.06299212598425197
          }
        ],
        "1": [
          {
            "number": 1,
            "ticks": 278,
            "time": 1.7034276250000002,
            "value": 0
          }
        ],
        "5": [
          {
            "number": 5,
            "ticks": 281,
            "time": 1.7218099375000002,
            "value": 0
          }
        ],
        "6": [
          {
            "number": 6,
            "ticks": 266,
            "time": 1.6298983750000002,
            "value": 0.12598425196850394
          },
          {
            "number": 6,
            "ticks": 268,
            "time": 1.64215325,
            "value": 0.5433070866141733
          },
          {
            "number": 6,
            "ticks": 269,
            "time": 1.6482806875000002,
            "value": 0.5511811023622047
          },
          {
            "number": 6,
            "ticks": 270,
            "time": 1.654408125,
            "value": 0.6299212598425197
          },
          {
            "number": 6,
            "ticks": 271,
            "time": 1.6605355625,
            "value": 0.5511811023622047
          }
        ],
        "7": [
          {
            "number": 7,
            "ticks": 275,
            "time": 1.6850453125000002,
            "value": 0.23622047244094488
          }
        ],
        "10": [
          {
            "number": 10,
            "ticks": 277,
            "time": 1.6973001875,
            "value": 0.25196850393700787
          }
        ],
        "11": [
          {
            "number": 11,
            "ticks": 276,
            "time": 1.69117275,
            "value": 0.7874015748031497
          }
        ],
        "32": [
          {
            "number": 32,
            "ticks": 283,
            "time": 1.7340648125,
            "value": 0.015748031496062992
          }
        ],
        "64": [
          {
            "number": 64,
            "ticks": 279,
            "time": 1.7095550625,
            "value": 0
          }
        ],
        "65": [
          {
            "number": 65,
            "ticks": 280,
            "time": 1.7156825,
            "value": 0
          }
        ],
        "91": [
          {
            "number": 91,
            "ticks": 260,
            "time": 1.5931337500000002,
            "value": 0.3779527559055118
          }
        ],
        "93": [
          {
            "number": 93,
            "ticks": 261,
            "time": 1.5992611875,
            "value": 0.1889763779527559
          }
        ],
        "94": [
          {
            "number": 94,
            "ticks": 262,
            "time": 1.605388625,
            "value": 0.5511811023622047
          }
        ],
        "98": [
          {
            "number": 98,
            "ticks": 269,
            "time": 1.6482806875000002,
            "value": 0.06299212598425197
          },
          {
            "number": 98,
            "ticks": 270,
            "time": 1.654408125,
            "value": 0.07086614173228346
          },
          {
            "number": 98,
            "ticks": 271,
            "time": 1.6605355625,
            "value": 0.07874015748031496
          }
        ],
        "99": [
          {
            "number": 99,
            "ticks": 269,
            "time": 1.6482806875000002,
            "value": 0.007874015748031496
          },
          {
            "number": 99,
            "ticks": 270,
            "time": 1.654408125,
            "value": 0.007874015748031496
          },
          {
            "number": 99,
            "ticks": 271,
            "time": 1.6605355625,
            "value": 0.007874015748031496
          }
        ],
        "100": [
          {
            "number": 100,
            "ticks": 264,
            "time": 1.6176435,
            "value": 0
          },
          {
            "number": 100,
            "ticks": 268,
            "time": 1.64215325,
            "value": 0.007874015748031496
          }
        ],
        "101": [
          {
            "number": 101,
            "ticks": 265,
            "time": 1.6237709375,
            "value": 0
          },
          {
            "number": 101,
            "ticks": 268,
            "time": 1.64215325,
            "value": 0
          }
        ]
      },
      "pitchBends": [
        {
          "ticks": 267,
          "time": 1.6360258125,
          "value": 0
        }
      ],
      "instrument": {
        "family": "piano",
        "number": 0,
        "name": "acoustic grand piano"
      },
      "name": "SUB2'\u0000",
      "notes": [],
      "endOfTrackTicks": 10680
    },
    {
      "channel": 14,
      "controlChanges": {
        "0": [
          {
            "number": 0,
            "ticks": 3000,
            "time": 18.3823125,
            "value": 0.06299212598425197
          }
        ],
        "6": [
          {
            "number": 6,
            "ticks": 285,
            "time": 1.7463196875,
            "value": 1
          },
          {
            "number": 6,
            "ticks": 286,
            "time": 1.752447125,
            "value": 0.6299212598425197
          },
          {
            "number": 6,
            "ticks": 287,
            "time": 1.7585745625000002,
            "value": 0.47244094488188976
          },
          {
            "number": 6,
            "ticks": 288,
            "time": 1.7647020000000002,
            "value": 0.5039370078740157
          }
        ],
        "7": [
          {
            "number": 7,
            "ticks": 3000,
            "time": 18.3823125,
            "value": 0.5118110236220472
          },
          {
            "number": 7,
            "ticks": 9960,
            "time": 61.029277500000006,
            "value": 0.23622047244094488
          },
          {
            "number": 7,
            "ticks": 10008,
            "time": 61.323394500000006,
            "value": 0.2204724409448819
          },
          {
            "number": 7,
            "ticks": 10056,
            "time": 61.617511500000006,
            "value": 0.2047244094488189
          },
          {
            "number": 7,
            "ticks": 10104,
            "time": 61.911628500000006,
            "value": 0.1889763779527559
          },
          {
            "number": 7,
            "ticks": 10152,
            "time": 62.205745500000006,
            "value": 0.1732283464566929
          },
          {
            "number": 7,
            "ticks": 10200,
            "time": 62.499862500000006,
            "value": 0.15748031496062992
          },
          {
            "number": 7,
            "ticks": 10248,
            "time": 62.793979500000006,
            "value": 0.14173228346456693
          },
          {
            "number": 7,
            "ticks": 10296,
            "time": 63.088096500000006,
            "value": 0.12598425196850394
          },
          {
            "number": 7,
            "ticks": 10344,
            "time": 63.382213500000006,
            "value": 0.11811023622047244
          },
          {
            "number": 7,
            "ticks": 10392,
            "time": 63.676330500000006,
            "value": 0.10236220472440945
          },
          {
            "number": 7,
            "ticks": 10440,
            "time": 63.970447500000006,
            "value": 0.08661417322834646
          },
          {
            "number": 7,
            "ticks": 10488,
            "time": 64.2645645,
            "value": 0.07086614173228346
          },
          {
            "number": 7,
            "ticks": 10536,
            "time": 64.5586815,
            "value": 0.05511811023622047
          },
          {
            "number": 7,
            "ticks": 10584,
            "time": 64.8527985,
            "value": 0.03937007874015748
          },
          {
            "number": 7,
            "ticks": 10632,
            "time": 65.1469155,
            "value": 0.023622047244094488
          },
          {
            "number": 7,
            "ticks": 10680,
            "time": 65.4410325,
            "value": 0.007874015748031496
          }
        ],
        "32": [
          {
            "number": 32,
            "ticks": 3000,
            "time": 18.3823125,
            "value": 0.015748031496062992
          }
        ],
        "98": [
          {
            "number": 98,
            "ticks": 285,
            "time": 1.7463196875,
            "value": 0.25196850393700787
          },
          {
            "number": 98,
            "ticks": 286,
            "time": 1.752447125,
            "value": 0.25984251968503935
          },
          {
            "number": 98,
            "ticks": 287,
            "time": 1.7585745625000002,
            "value": 0.7795275590551181
          },
          {
            "number": 98,
            "ticks": 288,
            "time": 1.7647020000000002,
            "value": 0.8031496062992126
          }
        ],
        "99": [
          {
            "number": 99,
            "ticks": 285,
            "time": 1.7463196875,
            "value": 0.007874015748031496
          },
          {
            "number": 99,
            "ticks": 286,
            "time": 1.752447125,
            "value": 0.007874015748031496
          },
          {
            "number": 99,
            "ticks": 287,
            "time": 1.7585745625000002,
            "value": 0.007874015748031496
          },
          {
            "number": 99,
            "ticks": 288,
            "time": 1.7647020000000002,
            "value": 0.007874015748031496
          }
        ]
      },
      "pitchBends": [],
      "instrument": {
        "family": "synth lead",
        "number": 80,
        "name": "lead 1 (square)"
      },
      "name": "",
      "notes": [
        {
          "duration": 0.5392144999999999,
          "durationTicks": 88,
          "midi": 61,
          "name": "C#4",
          "ticks": 312,
          "time": 1.9117605000000002,
          "velocity": 1
        },
        {
          "duration": 3.480384500000001,
          "durationTicks": 568,
          "midi": 68,
          "name": "G#4",
          "ticks": 408,
          "time": 2.4999945,
          "velocity": 1
        },
        {
          "duration": 0.5392144999999999,
          "durationTicks": 88,
          "midi": 61,
          "name": "C#4",
          "ticks": 984,
          "time": 6.029398500000001,
          "velocity": 1
        },
        {
          "duration": 3.4803844999999995,
          "durationTicks": 568,
          "midi": 68,
          "name": "G#4",
          "ticks": 1080,
          "time": 6.617632500000001,
          "velocity": 1
        },
        {
          "duration": 0.5392144999999999,
          "durationTicks": 88,
          "midi": 61,
          "name": "C#4",
          "ticks": 1656,
          "time": 10.1470365,
          "velocity": 1
        },
        {
          "duration": 3.4803844999999995,
          "durationTicks": 568,
          "midi": 68,
          "name": "G#4",
          "ticks": 1752,
          "time": 10.7352705,
          "velocity": 1
        },
        {
          "duration": 0.5392144999999982,
          "durationTicks": 88,
          "midi": 61,
          "name": "C#4",
          "ticks": 2328,
          "time": 14.264674500000002,
          "velocity": 1
        },
        {
          "duration": 3.4803844999999995,
          "durationTicks": 568,
          "midi": 68,
          "name": "G#4",
          "ticks": 2424,
          "time": 14.852908500000002,
          "velocity": 1
        },
        {
          "duration": 0.5392144999999928,
          "durationTicks": 88,
          "midi": 61,
          "name": "C#4",
          "ticks": 9816,
          "time": 60.146926500000006,
          "velocity": 1
        },
        {
          "duration": 3.4803844999999995,
          "durationTicks": 568,
          "midi": 68,
          "name": "G#4",
          "ticks": 9912,
          "time": 60.735160500000006,
          "velocity": 1
        },
        {
          "duration": 0.5392144999999999,
          "durationTicks": 88,
          "midi": 61,
          "name": "C#4",
          "ticks": 10488,
          "time": 64.2645645,
          "velocity": 1
        }
      ]
    },
    {
      "channel": 14,
      "controlChanges": {
        "0": [
          {
            "number": 0,
            "ticks": 9478,
            "time": 58.075852625,
            "value": 0.1889763779527559
          }
        ],
        "6": [
          {
            "number": 6,
            "ticks": 9478,
            "time": 58.075852625,
            "value": 0.5039370078740157
          }
        ],
        "7": [
          {
            "number": 7,
            "ticks": 5976,
            "time": 36.6175665,
            "value": 0.6299212598425197
          },
          {
            "number": 7,
            "ticks": 6072,
            "time": 37.2058005,
            "value": 0.5118110236220472
          },
          {
            "number": 7,
            "ticks": 9048,
            "time": 55.44105450000001,
            "value": 0.6299212598425197
          },
          {
            "number": 7,
            "ticks": 9140,
            "time": 56.00477875,
            "value": 0.31496062992125984
          },
          {
            "number": 7,
            "ticks": 9478,
            "time": 58.075852625,
            "value": 0.31496062992125984
          }
        ],
        "10": [
          {
            "number": 10,
            "ticks": 3000,
            "time": 18.3823125,
            "value": 0.25196850393700787
          },
          {
            "number": 10,
            "ticks": 3048,
            "time": 18.6764295,
            "value": 0.7559055118110236
          },
          {
            "number": 10,
            "ticks": 3072,
            "time": 18.823488,
            "value": 0.25196850393700787
          },
          {
            "number": 10,
            "ticks": 3120,
            "time": 19.117605,
            "value": 0.7559055118110236
          },
          {
            "number": 10,
            "ticks": 3168,
            "time": 19.411722,
            "value": 0.25196850393700787
          },
          {
            "number": 10,
            "ticks": 3216,
            "time": 19.705839,
            "value": 0.7559055118110236
          },
          {
            "number": 10,
            "ticks": 3264,
            "time": 19.999956,
            "value": 0.25196850393700787
          },
          {
            "number": 10,
            "ticks": 3360,
            "time": 20.58819,
            "value": 0.7559055118110236
          },
          {
            "number": 10,
            "ticks": 3384,
            "time": 20.7352485,
            "value": 0.7559055118110236
          },
          {
            "number": 10,
            "ticks": 3432,
            "time": 21.0293655,
            "value": 0.25196850393700787
          },
          {
            "number": 10,
            "ticks": 3456,
            "time": 21.176424,
            "value": 0.7559055118110236
          },
          {
            "number": 10,
            "ticks": 3504,
            "time": 21.470541,
            "value": 0.25196850393700787
          },
          {
            "number": 10,
            "ticks": 3552,
            "time": 21.764658,
            "value": 0.7559055118110236
          },
          {
            "number": 10,
            "ticks": 3600,
            "time": 22.058775,
            "value": 0.25196850393700787
          },
          {
            "number": 10,
            "ticks": 3648,
            "time": 22.352892,
            "value": 0.7559055118110236
          },
          {
            "number": 10,
            "ticks": 3744,
            "time": 22.941126,
            "value": 0.25196850393700787
          },
          {
            "number": 10,
            "ticks": 3768,
            "time": 23.0881845,
            "value": 0.25196850393700787
          },
          {
            "number": 10,
            "ticks": 3816,
            "time": 23.3823015,
            "value": 0.7559055118110236
          },
          {
            "number": 10,
            "ticks": 3840,
            "time": 23.52936,
            "value": 0.25196850393700787
          },
          {
            "number": 10,
            "ticks": 3888,
            "time": 23.823477,
            "value": 0.7559055118110236
          },
          {
            "number": 10,
            "ticks": 3936,
            "time": 24.117594,
            "value": 0.25196850393700787
          },
          {
            "number": 10,
            "ticks": 3984,
            "time": 24.411711,
            "value": 0.7559055118110236
          },
          {
            "number": 10,
            "ticks": 4032,
            "time": 24.705828,
            "value": 0.25196850393700787
          },
          {
            "number": 10,
            "ticks": 4128,
            "time": 25.294062,
            "value": 0.7559055118110236
          },
          {
            "number": 10,
            "ticks": 4152,
            "time": 25.4411205,
            "value": 0.7559055118110236
          },
          {
            "number": 10,
            "ticks": 4200,
            "time": 25.7352375,
            "value": 0.25196850393700787
          },
          {
            "number": 10,
            "ticks": 4224,
            "time": 25.882296,
            "value": 0.7559055118110236
          },
          {
            "number": 10,
            "ticks": 4272,
            "time": 26.176413,
            "value": 0.25196850393700787
          },
          {
            "number": 10,
            "ticks": 4320,
            "time": 26.47053,
            "value": 0.7559055118110236
          },
          {
            "number": 10,
            "ticks": 4368,
            "time": 26.764647,
            "value": 0.25196850393700787
          },
          {
            "number": 10,
            "ticks": 4416,
            "time": 27.058764,
            "value": 0.7559055118110236
          },
          {
            "number": 10,
            "ticks": 4512,
            "time": 27.646998,
            "value": 0.25196850393700787
          },
          {
            "number": 10,
            "ticks": 4536,
            "time": 27.7940565,
            "value": 0.25196850393700787
          },
          {
            "number": 10,
            "ticks": 4584,
            "time": 28.0881735,
            "value": 0.7559055118110236
          },
          {
            "number": 10,
            "ticks": 4608,
            "time": 28.235232,
            "value": 0.25196850393700787
          },
          {
            "number": 10,
            "ticks": 4656,
            "time": 28.529349,
            "value": 0.7559055118110236
          },
          {
            "number": 10,
            "ticks": 4704,
            "time": 28.823466,
            "value": 0.25196850393700787
          },
          {
            "number": 10,
            "ticks": 4752,
            "time": 29.117583,
            "value": 0.7559055118110236
          },
          {
            "number": 10,
            "ticks": 4800,
            "time": 29.4117,
            "value": 0.25196850393700787
          },
          {
            "number": 10,
            "ticks": 4896,
            "time": 29.999934,
            "value": 0.7559055118110236
          },
          {
            "number": 10,
            "ticks": 4920,
            "time": 30.1469925,
            "value": 0.7559055118110236
          },
          {
            "number": 10,
            "ticks": 4968,
            "time": 30.4411095,
            "value": 0.25196850393700787
          },
          {
            "number": 10,
            "ticks": 4992,
            "time": 30.588168,
            "value": 0.7559055118110236
          },
          {
            "number": 10,
            "ticks": 5040,
            "time": 30.882285,
            "value": 0.25196850393700787
          },
          {
            "number": 10,
            "ticks": 5088,
            "time": 31.176402,
            "value": 0.7559055118110236
          },
          {
            "number": 10,
            "ticks": 5136,
            "time": 31.470519,
            "value": 0.25196850393700787
          },
          {
            "number": 10,
            "ticks": 5184,
            "time": 31.764636,
            "value": 0.7559055118110236
          },
          {
            "number": 10,
            "ticks": 5280,
            "time": 32.35287,
            "value": 0.25196850393700787
          },
          {
            "number": 10,
            "ticks": 5304,
            "time": 32.4999285,
            "value": 0.25196850393700787
          },
          {
            "number": 10,
            "ticks": 5352,
            "time": 32.7940455,
            "value": 0.7559055118110236
          },
          {
            "number": 10,
            "ticks": 5376,
            "time": 32.941104,
            "value": 0.25196850393700787
          },
          {
            "number": 10,
            "ticks": 5424,
            "time": 33.235221,
            "value": 0.7559055118110236
          },
          {
            "number": 10,
            "ticks": 5472,
            "time": 33.529338,
            "value": 0.25196850393700787
          },
          {
            "number": 10,
            "ticks": 5520,
            "time": 33.823455,
            "value": 0.7559055118110236
          },
          {
            "number": 10,
            "ticks": 5568,
            "time": 34.117572,
            "value": 0.25196850393700787
          },
          {
            "number": 10,
            "ticks": 5664,
            "time": 34.705806,
            "value": 0.7559055118110236
          },
          {
            "number": 10,
            "ticks": 5688,
            "time": 34.8528645,
            "value": 0.7559055118110236
          },
          {
            "number": 10,
            "ticks": 5736,
            "time": 35.1469815,
            "value": 0.25196850393700787
          },
          {
            "number": 10,
            "ticks": 5760,
            "time": 35.29404,
            "value": 0.7559055118110236
          },
          {
            "number": 10,
            "ticks": 5808,
            "time": 35.588157,
            "value": 0.25196850393700787
          },
          {
            "number": 10,
            "ticks": 5856,
            "time": 35.882274,
            "value": 0.7559055118110236
          },
          {
            "number": 10,
            "ticks": 5904,
            "time": 36.176391,
            "value": 0.25196850393700787
          },
          {
            "number": 10,
            "ticks": 5952,
            "time": 36.470508,
            "value": 0.7559055118110236
          },
          {
            "number": 10,
            "ticks": 5976,
            "time": 36.6175665,
            "value": 0.5984251968503937
          },
          {
            "number": 10,
            "ticks": 6072,
            "time": 37.2058005,
            "value": 0.25196850393700787
          },
          {
            "number": 10,
            "ticks": 6120,
            "time": 37.4999175,
            "value": 0.7559055118110236
          },
          {
            "number": 10,
            "ticks": 6144,
            "time": 37.646976,
            "value": 0.25196850393700787
          },
          {
            "number": 10,
            "ticks": 6192,
            "time": 37.941093,
            "value": 0.7559055118110236
          },
          {
            "number": 10,
            "ticks": 6240,
            "time": 38.23521,
            "value": 0.25196850393700787
          },
          {
            "number": 10,
            "ticks": 6288,
            "time": 38.529327,
            "value": 0.7559055118110236
          },
          {
            "number": 10,
            "ticks": 6336,
            "time": 38.823444,
            "value": 0.25196850393700787
          },
          {
            "number": 10,
            "ticks": 6432,
            "time": 39.411678,
            "value": 0.7559055118110236
          },
          {
            "number": 10,
            "ticks": 6456,
            "time": 39.5587365,
            "value": 0.7559055118110236
          },
          {
            "number": 10,
            "ticks": 6504,
            "time": 39.8528535,
            "value": 0.25196850393700787
          },
          {
            "number": 10,
            "ticks": 6528,
            "time": 39.999912,
            "value": 0.7559055118110236
          },
          {
            "number": 10,
            "ticks": 6576,
            "time": 40.294029,
            "value": 0.25196850393700787
          },
          {
            "number": 10,
            "ticks": 6624,
            "time": 40.588146,
            "value": 0.7559055118110236
          },
          {
            "number": 10,
            "ticks": 6672,
            "time": 40.882263,
            "value": 0.25196850393700787
          },
          {
            "number": 10,
            "ticks": 6720,
            "time": 41.17638,
            "value": 0.7559055118110236
          },
          {
            "number": 10,
            "ticks": 6816,
            "time": 41.764614,
            "value": 0.25196850393700787
          },
          {
            "number": 10,
            "ticks": 6840,
            "time": 41.9116725,
            "value": 0.25196850393700787
          },
          {
            "number": 10,
            "ticks": 6888,
            "time": 42.2057895,
            "value": 0.7559055118110236
          },
          {
            "number": 10,
            "ticks": 6912,
            "time": 42.352848,
            "value": 0.25196850393700787
          },
          {
            "number": 10,
            "ticks": 6960,
            "time": 42.646965,
            "value": 0.7559055118110236
          },
          {
            "number": 10,
            "ticks": 7008,
            "time": 42.941082,
            "value": 0.25196850393700787
          },
          {
            "number": 10,
            "ticks": 7056,
            "time": 43.235199,
            "value": 0.7559055118110236
          },
          {
            "number": 10,
            "ticks": 7104,
            "time": 43.529316,
            "value": 0.25196850393700787
          },
          {
            "number": 10,
            "ticks": 7200,
            "time": 44.11755000000001,
            "value": 0.7559055118110236
          },
          {
            "number": 10,
            "ticks": 7224,
            "time": 44.26460850000001,
            "value": 0.7559055118110236
          },
          {
            "number": 10,
            "ticks": 7272,
            "time": 44.55872550000001,
            "value": 0.25196850393700787
          },
          {
            "number": 10,
            "ticks": 7296,
            "time": 44.70578400000001,
            "value": 0.7559055118110236
          },
          {
            "number": 10,
            "ticks": 7344,
            "time": 44.99990100000001,
            "value": 0.25196850393700787
          },
          {
            "number": 10,
            "ticks": 7392,
            "time": 45.29401800000001,
            "value": 0.7559055118110236
          },
          {
            "number": 10,
            "ticks": 7440,
            "time": 45.58813500000001,
            "value": 0.25196850393700787
          },
          {
            "number": 10,
            "ticks": 7488,
            "time": 45.88225200000001,
            "value": 0.7559055118110236
          },
          {
            "number": 10,
            "ticks": 7584,
            "time": 46.47048600000001,
            "value": 0.25196850393700787
          },
          {
            "number": 10,
            "ticks": 7608,
            "time": 46.61754450000001,
            "value": 0.25196850393700787
          },
          {
            "number": 10,
            "ticks": 7656,
            "time": 46.91166150000001,
            "value": 0.7559055118110236
          },
          {
            "number": 10,
            "ticks": 7680,
            "time": 47.05872000000001,
            "value": 0.25196850393700787
          },
          {
            "number": 10,
            "ticks": 7728,
            "time": 47.35283700000001,
            "value": 0.7559055118110236
          },
          {
            "number": 10,
            "ticks": 7776,
            "time": 47.64695400000001,
            "value": 0.25196850393700787
          },
          {
            "number": 10,
            "ticks": 7824,
            "time": 47.94107100000001,
            "value": 0.7559055118110236
          },
          {
            "number": 10,
            "ticks": 7872,
            "time": 48.23518800000001,
            "value": 0.25196850393700787
          },
          {
            "number": 10,
            "ticks": 7968,
            "time": 48.82342200000001,
            "value": 0.7559055118110236
          },
          {
            "number": 10,
            "ticks": 7992,
            "time": 48.97048050000001,
            "value": 0.7559055118110236
          },
          {
            "number": 10,
            "ticks": 8040,
            "time": 49.26459750000001,
            "value": 0.25196850393700787
          },
          {
            "number": 10,
            "ticks": 8064,
            "time": 49.41165600000001,
            "value": 0.7559055118110236
          },
          {
            "number": 10,
            "ticks": 8112,
            "time": 49.70577300000001,
            "value": 0.25196850393700787
          },
          {
            "number": 10,
            "ticks": 8160,
            "time": 49.99989000000001,
            "value": 0.7559055118110236
          },
          {
            "number": 10,
            "ticks": 8208,
            "time": 50.29400700000001,
            "value": 0.25196850393700787
          },
          {
            "number": 10,
            "ticks": 8256,
            "time": 50.58812400000001,
            "value": 0.7559055118110236
          },
          {
            "number": 10,
            "ticks": 8352,
            "time": 51.17635800000001,
            "value": 0.25196850393700787
          },
          {
            "number": 10,
            "ticks": 8376,
            "time": 51.32341650000001,
            "value": 0.25196850393700787
          },
          {
            "number": 10,
            "ticks": 8424,
            "time": 51.61753350000001,
            "value": 0.7559055118110236
          },
          {
            "number": 10,
            "ticks": 8448,
            "time": 51.76459200000001,
            "value": 0.25196850393700787
          },
          {
            "number": 10,
            "ticks": 8496,
            "time": 52.05870900000001,
            "value": 0.7559055118110236
          },
          {
            "number": 10,
            "ticks": 8544,
            "time": 52.35282600000001,
            "value": 0.25196850393700787
          },
          {
            "number": 10,
            "ticks": 8592,
            "time": 52.64694300000001,
            "value": 0.7559055118110236
          },
          {
            "number": 10,
            "ticks": 8640,
            "time": 52.94106000000001,
            "value": 0.25196850393700787
          },
          {
            "number": 10,
            "ticks": 8736,
            "time": 53.52929400000001,
            "value": 0.7559055118110236
          },
          {
            "number": 10,
            "ticks": 8760,
            "time": 53.67635250000001,
            "value": 0.7559055118110236
          },
          {
            "number": 10,
            "ticks": 8808,
            "time": 53.97046950000001,
            "value": 0.25196850393700787
          },
          {
            "number": 10,
            "ticks": 8832,
            "time": 54.11752800000001,
            "value": 0.7559055118110236
          },
          {
            "number": 10,
            "ticks": 8880,
            "time": 54.41164500000001,
            "value": 0.25196850393700787
          },
          {
            "number": 10,
            "ticks": 8928,
            "time": 54.70576200000001,
            "value": 0.7559055118110236
          },
          {
            "number": 10,
            "ticks": 8976,
            "time": 54.99987900000001,
            "value": 0.25196850393700787
          },
          {
            "number": 10,
            "ticks": 9024,
            "time": 55.29399600000001,
            "value": 0.7559055118110236
          },
          {
            "number": 10,
            "ticks": 9144,
            "time": 56.02928850000001,
            "value": 0.25196850393700787
          },
          {
            "number": 10,
            "ticks": 9216,
            "time": 56.47046400000001,
            "value": 0.5039370078740157
          },
          {
            "number": 10,
            "ticks": 9264,
            "time": 56.76458100000001,
            "value": 0.7559055118110236
          }
        ],
        "11": [
          {
            "number": 11,
            "ticks": 9140,
            "time": 56.00477875,
            "value": 0.7874015748031497
          }
        ],
        "32": [
          {
            "number": 32,
            "ticks": 9478,
            "time": 58.075852625,
            "value": 0.015748031496062992
          }
        ],
        "94": [
          {
            "number": 94,
            "ticks": 9140,
            "time": 56.00477875,
            "value": 0.6299212598425197
          }
        ],
        "100": [
          {
            "number": 100,
            "ticks": 9478,
            "time": 58.075852625,
            "value": 0.007874015748031496
          }
        ],
        "101": [
          {
            "number": 101,
            "ticks": 9478,
            "time": 58.075852625,
            "value": 0
          }
        ]
      },
      "pitchBends": [],
      "instrument": {
        "family": "ensemble",
        "number": 50,
        "name": "synthstrings 1"
      },
      "name": "",
      "notes": [
        {
          "duration": 0.09803899999999999,
          "durationTicks": 16,
          "midi": 78,
          "name": "F#5",
          "ticks": 3000,
          "time": 18.3823125,
          "velocity": 1
        },
        {
          "duration": 0.09803899999999999,
          "durationTicks": 16,
          "midi": 78,
          "name": "F#5",
          "ticks": 3048,
          "time": 18.6764295,
          "velocity": 1
        },
        {
          "duration": 0.09803899999999999,
          "durationTicks": 16,
          "midi": 78,
          "name": "F#5",
          "ticks": 3072,
          "time": 18.823488,
          "velocity": 1
        },
        {
          "duration": 0.09803899999999999,
          "durationTicks": 16,
          "midi": 78,
          "name": "F#5",
          "ticks": 3120,
          "time": 19.117605,
          "velocity": 1
        },
        {
          "duration": 0.09803899999999999,
          "durationTicks": 16,
          "midi": 78,
          "name": "F#5",
          "ticks": 3168,
          "time": 19.411722,
          "velocity": 1
        },
        {
          "duration": 0.09803899999999999,
          "durationTicks": 16,
          "midi": 78,
          "name": "F#5",
          "ticks": 3216,
          "time": 19.705839,
          "velocity": 1
        },
        {
          "duration": 0.09803899999999999,
          "durationTicks": 16,
          "midi": 78,
          "name": "F#5",
          "ticks": 3264,
          "time": 19.999956,
          "velocity": 1
        },
        {
          "duration": 0.09803899999999999,
          "durationTicks": 16,
          "midi": 78,
          "name": "F#5",
          "ticks": 3288,
          "time": 20.1470145,
          "velocity": 1
        },
        {
          "duration": 0.09803899999999999,
          "durationTicks": 16,
          "midi": 78,
          "name": "F#5",
          "ticks": 3312,
          "time": 20.294073,
          "velocity": 1
        },
        {
          "duration": 0.09803899999999999,
          "durationTicks": 16,
          "midi": 78,
          "name": "F#5",
          "ticks": 3360,
          "time": 20.58819,
          "velocity": 1
        },
        {
          "duration": 0.09803899999999999,
          "durationTicks": 16,
          "midi": 78,
          "name": "F#5",
          "ticks": 3384,
          "time": 20.7352485,
          "velocity": 1
        },
        {
          "duration": 0.09803899999999999,
          "durationTicks": 16,
          "midi": 78,
          "name": "F#5",
          "ticks": 3432,
          "time": 21.0293655,
          "velocity": 1
        },
        {
          "duration": 0.09803899999999999,
          "durationTicks": 16,
          "midi": 78,
          "name": "F#5",
          "ticks": 3456,
          "time": 21.176424,
          "velocity": 1
        },
        {
          "duration": 0.09803899999999999,
          "durationTicks": 16,
          "midi": 78,
          "name": "F#5",
          "ticks": 3504,
          "time": 21.470541,
          "velocity": 1
        },
        {
          "duration": 0.09803899999999999,
          "durationTicks": 16,
          "midi": 78,
          "name": "F#5",
          "ticks": 3552,
          "time": 21.764658,
          "velocity": 1
        },
        {
          "duration": 0.09803899999999999,
          "durationTicks": 16,
          "midi": 78,
          "name": "F#5",
          "ticks": 3600,
          "time": 22.058775,
          "velocity": 1
        },
        {
          "duration": 0.09803899999999999,
          "durationTicks": 16,
          "midi": 78,
          "name": "F#5",
          "ticks": 3648,
          "time": 22.352892,
          "velocity": 1
        },
        {
          "duration": 0.09803899999999999,
          "durationTicks": 16,
          "midi": 78,
          "name": "F#5",
          "ticks": 3672,
          "time": 22.4999505,
          "velocity": 1
        },
        {
          "duration": 0.09803900000000354,
          "durationTicks": 16,
          "midi": 78,
          "name": "F#5",
          "ticks": 3696,
          "time": 22.647009,
          "velocity": 1
        },
        {
          "duration": 0.09803900000000354,
          "durationTicks": 16,
          "midi": 78,
          "name": "F#5",
          "ticks": 3744,
          "time": 22.941126,
          "velocity": 1
        },
        {
          "duration": 0.09803900000000354,
          "durationTicks": 16,
          "midi": 78,
          "name": "F#5",
          "ticks": 3768,
          "time": 23.0881845,
          "velocity": 1
        },
        {
          "duration": 0.09803900000000354,
          "durationTicks": 16,
          "midi": 78,
          "name": "F#5",
          "ticks": 3816,
          "time": 23.3823015,
          "velocity": 1
        },
        {
          "duration": 0.09803900000000354,
          "durationTicks": 16,
          "midi": 78,
          "name": "F#5",
          "ticks": 3840,
          "time": 23.52936,
          "velocity": 1
        },
        {
          "duration": 0.09803900000000354,
          "durationTicks": 16,
          "midi": 78,
          "name": "F#5",
          "ticks": 3888,
          "time": 23.823477,
          "velocity": 1
        },
        {
          "duration": 0.09803900000000354,
          "durationTicks": 16,
          "midi": 78,
          "name": "F#5",
          "ticks": 3936,
          "time": 24.117594,
          "velocity": 1
        },
        {
          "duration": 0.09803900000000354,
          "durationTicks": 16,
          "midi": 78,
          "name": "F#5",
          "ticks": 3984,
          "time": 24.411711,
          "velocity": 1
        },
        {
          "duration": 0.09803900000000354,
          "durationTicks": 16,
          "midi": 78,
          "name": "F#5",
          "ticks": 4032,
          "time": 24.705828,
          "velocity": 1
        },
        {
          "duration": 0.09803900000000354,
          "durationTicks": 16,
          "midi": 78,
          "name": "F#5",
          "ticks": 4056,
          "time": 24.8528865,
          "velocity": 1
        },
        {
          "duration": 0.09803900000000354,
          "durationTicks": 16,
          "midi": 78,
          "name": "F#5",
          "ticks": 4080,
          "time": 24.999945,
          "velocity": 1
        },
        {
          "duration": 0.09803900000000354,
          "durationTicks": 16,
          "midi": 78,
          "name": "F#5",
          "ticks": 4128,
          "time": 25.294062,
          "velocity": 1
        },
        {
          "duration": 0.09803900000000354,
          "durationTicks": 16,
          "midi": 78,
          "name": "F#5",
          "ticks": 4152,
          "time": 25.4411205,
          "velocity": 1
        },
        {
          "duration": 0.09803900000000354,
          "durationTicks": 16,
          "midi": 78,
          "name": "F#5",
          "ticks": 4200,
          "time": 25.7352375,
          "velocity": 1
        },
        {
          "duration": 0.09803900000000354,
          "durationTicks": 16,
          "midi": 78,
          "name": "F#5",
          "ticks": 4224,
          "time": 25.882296,
          "velocity": 1
        },
        {
          "duration": 0.09803900000000354,
          "durationTicks": 16,
          "midi": 78,
          "name": "F#5",
          "ticks": 4272,
          "time": 26.176413,
          "velocity": 1
        },
        {
          "duration": 0.09803900000000354,
          "durationTicks": 16,
          "midi": 78,
          "name": "F#5",
          "ticks": 4320,
          "time": 26.47053,
          "velocity": 1
        },
        {
          "duration": 0.09803900000000354,
          "durationTicks": 16,
          "midi": 78,
          "name": "F#5",
          "ticks": 4368,
          "time": 26.764647,
          "velocity": 1
        },
        {
          "duration": 0.09803900000000354,
          "durationTicks": 16,
          "midi": 78,
          "name": "F#5",
          "ticks": 4416,
          "time": 27.058764,
          "velocity": 1
        },
        {
          "duration": 0.09803900000000354,
          "durationTicks": 16,
          "midi": 78,
          "name": "F#5",
          "ticks": 4440,
          "time": 27.2058225,
          "velocity": 1
        },
        {
          "duration": 0.09803900000000354,
          "durationTicks": 16,
          "midi": 78,
          "name": "F#5",
          "ticks": 4464,
          "time": 27.352881,
          "velocity": 1
        },
        {
          "duration": 0.09803900000000354,
          "durationTicks": 16,
          "midi": 78,
          "name": "F#5",
          "ticks": 4512,
          "time": 27.646998,
          "velocity": 1
        },
        {
          "duration": 0.09803900000000354,
          "durationTicks": 16,
          "midi": 78,
          "name": "F#5",
          "ticks": 4536,
          "time": 27.7940565,
          "velocity": 1
        },
        {
          "duration": 0.09803900000000354,
          "durationTicks": 16,
          "midi": 78,
          "name": "F#5",
          "ticks": 4584,
          "time": 28.0881735,
          "velocity": 1
        },
        {
          "duration": 0.09803900000000354,
          "durationTicks": 16,
          "midi": 78,
          "name": "F#5",
          "ticks": 4608,
          "time": 28.235232,
          "velocity": 1
        },
        {
          "duration": 0.09803900000000354,
          "durationTicks": 16,
          "midi": 78,
          "name": "F#5",
          "ticks": 4656,
          "time": 28.529349,
          "velocity": 1
        },
        {
          "duration": 0.09803900000000354,
          "durationTicks": 16,
          "midi": 78,
          "name": "F#5",
          "ticks": 4704,
          "time": 28.823466,
          "velocity": 1
        },
        {
          "duration": 0.09803900000000354,
          "durationTicks": 16,
          "midi": 78,
          "name": "F#5",
          "ticks": 4752,
          "time": 29.117583,
          "velocity": 1
        },
        {
          "duration": 0.09803900000000354,
          "durationTicks": 16,
          "midi": 78,
          "name": "F#5",
          "ticks": 4800,
          "time": 29.4117,
          "velocity": 1
        },
        {
          "duration": 0.09803900000000354,
          "durationTicks": 16,
          "midi": 78,
          "name": "F#5",
          "ticks": 4824,
          "time": 29.5587585,
          "velocity": 1
        },
        {
          "duration": 0.09803900000000354,
          "durationTicks": 16,
          "midi": 78,
          "name": "F#5",
          "ticks": 4848,
          "time": 29.705817,
          "velocity": 1
        },
        {
          "duration": 0.09803900000000354,
          "durationTicks": 16,
          "midi": 78,
          "name": "F#5",
          "ticks": 4896,
          "time": 29.999934,
          "velocity": 1
        },
        {
          "duration": 0.09803900000000354,
          "durationTicks": 16,
          "midi": 78,
          "name": "F#5",
          "ticks": 4920,
          "time": 30.1469925,
          "velocity": 1
        },
        {
          "duration": 0.09803900000000354,
          "durationTicks": 16,
          "midi": 78,
          "name": "F#5",
          "ticks": 4968,
          "time": 30.4411095,
          "velocity": 1
        },
        {
          "duration": 0.09803900000000354,
          "durationTicks": 16,
          "midi": 78,
          "name": "F#5",
          "ticks": 4992,
          "time": 30.588168,
          "velocity": 1
        },
        {
          "duration": 0.09803900000000354,
          "durationTicks": 16,
          "midi": 78,
          "name": "F#5",
          "ticks": 5040,
          "time": 30.882285,
          "velocity": 1
        },
        {
          "duration": 0.09803900000000354,
          "durationTicks": 16,
          "midi": 78,
          "name": "F#5",
          "ticks": 5088,
          "time": 31.176402,
          "velocity": 1
        },
        {
          "duration": 0.09803900000000354,
          "durationTicks": 16,
          "midi": 78,
          "name": "F#5",
          "ticks": 5136,
          "time": 31.470519,
          "velocity": 1
        },
        {
          "duration": 0.09803900000000354,
          "durationTicks": 16,
          "midi": 78,
          "name": "F#5",
          "ticks": 5184,
          "time": 31.764636,
          "velocity": 1
        },
        {
          "duration": 0.09803900000000354,
          "durationTicks": 16,
          "midi": 78,
          "name": "F#5",
          "ticks": 5208,
          "time": 31.9116945,
          "velocity": 1
        },
        {
          "duration": 0.09803899999999999,
          "durationTicks": 16,
          "midi": 78,
          "name": "F#5",
          "ticks": 5232,
          "time": 32.058753,
          "velocity": 1
        },
        {
          "duration": 0.09803899999999999,
          "durationTicks": 16,
          "midi": 78,
          "name": "F#5",
          "ticks": 5280,
          "time": 32.35287,
          "velocity": 1
        },
        {
          "duration": 0.09803899999999999,
          "durationTicks": 16,
          "midi": 78,
          "name": "F#5",
          "ticks": 5304,
          "time": 32.4999285,
          "velocity": 1
        },
        {
          "duration": 0.09803899999999999,
          "durationTicks": 16,
          "midi": 78,
          "name": "F#5",
          "ticks": 5352,
          "time": 32.7940455,
          "velocity": 1
        },
        {
          "duration": 0.09803899999999999,
          "durationTicks": 16,
          "midi": 78,
          "name": "F#5",
          "ticks": 5376,
          "time": 32.941104,
          "velocity": 1
        },
        {
          "duration": 0.09803899999999999,
          "durationTicks": 16,
          "midi": 78,
          "name": "F#5",
          "ticks": 5424,
          "time": 33.235221,
          "velocity": 1
        },
        {
          "duration": 0.09803899999999999,
          "durationTicks": 16,
          "midi": 78,
          "name": "F#5",
          "ticks": 5472,
          "time": 33.529338,
          "velocity": 1
        },
        {
          "duration": 0.09803899999999999,
          "durationTicks": 16,
          "midi": 78,
          "name": "F#5",
          "ticks": 5520,
          "time": 33.823455,
          "velocity": 1
        },
        {
          "duration": 0.09803899999999999,
          "durationTicks": 16,
          "midi": 78,
          "name": "F#5",
          "ticks": 5568,
          "time": 34.117572,
          "velocity": 1
        },
        {
          "duration": 0.09803899999999999,
          "durationTicks": 16,
          "midi": 78,
          "name": "F#5",
          "ticks": 5592,
          "time": 34.2646305,
          "velocity": 1
        },
        {
          "duration": 0.09803899999999999,
          "durationTicks": 16,
          "midi": 78,
          "name": "F#5",
          "ticks": 5616,
          "time": 34.411689,
          "velocity": 1
        },
        {
          "duration": 0.09803899999999999,
          "durationTicks": 16,
          "midi": 78,
          "name": "F#5",
          "ticks": 5664,
          "time": 34.705806,
          "velocity": 1
        },
        {
          "duration": 0.09803899999999999,
          "durationTicks": 16,
          "midi": 78,
          "name": "F#5",
          "ticks": 5688,
          "time": 34.8528645,
          "velocity": 1
        },
        {
          "duration": 0.09803899999999999,
          "durationTicks": 16,
          "midi": 78,
          "name": "F#5",
          "ticks": 5736,
          "time": 35.1469815,
          "velocity": 1
        },
        {
          "duration": 0.09803899999999999,
          "durationTicks": 16,
          "midi": 78,
          "name": "F#5",
          "ticks": 5760,
          "time": 35.29404,
          "velocity": 1
        },
        {
          "duration": 0.09803899999999999,
          "durationTicks": 16,
          "midi": 78,
          "name": "F#5",
          "ticks": 5808,
          "time": 35.588157,
          "velocity": 1
        },
        {
          "duration": 0.09803899999999999,
          "durationTicks": 16,
          "midi": 78,
          "name": "F#5",
          "ticks": 5856,
          "time": 35.882274,
          "velocity": 1
        },
        {
          "duration": 0.09803899999999999,
          "durationTicks": 16,
          "midi": 78,
          "name": "F#5",
          "ticks": 5904,
          "time": 36.176391,
          "velocity": 1
        },
        {
          "duration": 0.09803899999999999,
          "durationTicks": 16,
          "midi": 78,
          "name": "F#5",
          "ticks": 5952,
          "time": 36.470508,
          "velocity": 1
        },
        {
          "duration": 0.09803899999999999,
          "durationTicks": 16,
          "midi": 78,
          "name": "F#5",
          "ticks": 5976,
          "time": 36.6175665,
          "velocity": 1
        },
        {
          "duration": 0.09803899999999999,
          "durationTicks": 16,
          "midi": 76,
          "name": "E5",
          "ticks": 6000,
          "time": 36.764625,
          "velocity": 1
        },
        {
          "duration": 0.09803899999999999,
          "durationTicks": 16,
          "midi": 75,
          "name": "D#5",
          "ticks": 6024,
          "time": 36.9116835,
          "velocity": 1
        },
        {
          "duration": 0.09803899999999999,
          "durationTicks": 16,
          "midi": 73,
          "name": "C#5",
          "ticks": 6048,
          "time": 37.058742,
          "velocity": 1
        },
        {
          "duration": 0.09803899999999999,
          "durationTicks": 16,
          "midi": 78,
          "name": "F#5",
          "ticks": 6072,
          "time": 37.2058005,
          "velocity": 1
        },
        {
          "duration": 0.09803899999999999,
          "durationTicks": 16,
          "midi": 78,
          "name": "F#5",
          "ticks": 6120,
          "time": 37.4999175,
          "velocity": 1
        },
        {
          "duration": 0.09803899999999999,
          "durationTicks": 16,
          "midi": 78,
          "name": "F#5",
          "ticks": 6144,
          "time": 37.646976,
          "velocity": 1
        },
        {
          "duration": 0.09803899999999999,
          "durationTicks": 16,
          "midi": 78,
          "name": "F#5",
          "ticks": 6192,
          "time": 37.941093,
          "velocity": 1
        },
        {
          "duration": 0.09803899999999999,
          "durationTicks": 16,
          "midi": 78,
          "name": "F#5",
          "ticks": 6240,
          "time": 38.23521,
          "velocity": 1
        },
        {
          "duration": 0.09803899999999999,
          "durationTicks": 16,
          "midi": 78,
          "name": "F#5",
          "ticks": 6288,
          "time": 38.529327,
          "velocity": 1
        },
        {
          "duration": 0.09803899999999999,
          "durationTicks": 16,
          "midi": 78,
          "name": "F#5",
          "ticks": 6336,
          "time": 38.823444,
          "velocity": 1
        },
        {
          "duration": 0.09803899999999999,
          "durationTicks": 16,
          "midi": 78,
          "name": "F#5",
          "ticks": 6360,
          "time": 38.9705025,
          "velocity": 1
        },
        {
          "duration": 0.09803899999999999,
          "durationTicks": 16,
          "midi": 78,
          "name": "F#5",
          "ticks": 6384,
          "time": 39.117561,
          "velocity": 1
        },
        {
          "duration": 0.09803899999999999,
          "durationTicks": 16,
          "midi": 78,
          "name": "F#5",
          "ticks": 6432,
          "time": 39.411678,
          "velocity": 1
        },
        {
          "duration": 0.09803899999999999,
          "durationTicks": 16,
          "midi": 78,
          "name": "F#5",
          "ticks": 6456,
          "time": 39.5587365,
          "velocity": 1
        },
        {
          "duration": 0.09803899999999999,
          "durationTicks": 16,
          "midi": 78,
          "name": "F#5",
          "ticks": 6504,
          "time": 39.8528535,
          "velocity": 1
        },
        {
          "duration": 0.09803899999999999,
          "durationTicks": 16,
          "midi": 78,
          "name": "F#5",
          "ticks": 6528,
          "time": 39.999912,
          "velocity": 1
        },
        {
          "duration": 0.09803899999999999,
          "durationTicks": 16,
          "midi": 78,
          "name": "F#5",
          "ticks": 6576,
          "time": 40.294029,
          "velocity": 1
        },
        {
          "duration": 0.09803899999999999,
          "durationTicks": 16,
          "midi": 78,
          "name": "F#5",
          "ticks": 6624,
          "time": 40.588146,
          "velocity": 1
        },
        {
          "duration": 0.09803899999999999,
          "durationTicks": 16,
          "midi": 78,
          "name": "F#5",
          "ticks": 6672,
          "time": 40.882263,
          "velocity": 1
        },
        {
          "duration": 0.09803899999999999,
          "durationTicks": 16,
          "midi": 78,
          "name": "F#5",
          "ticks": 6720,
          "time": 41.17638,
          "velocity": 1
        },
        {
          "duration": 0.09803899999999999,
          "durationTicks": 16,
          "midi": 78,
          "name": "F#5",
          "ticks": 6744,
          "time": 41.3234385,
          "velocity": 1
        },
        {
          "duration": 0.09803899999999999,
          "durationTicks": 16,
          "midi": 78,
          "name": "F#5",
          "ticks": 6768,
          "time": 41.470497,
          "velocity": 1
        },
        {
          "duration": 0.09803899999999999,
          "durationTicks": 16,
          "midi": 78,
          "name": "F#5",
          "ticks": 6816,
          "time": 41.764614,
          "velocity": 1
        },
        {
          "duration": 0.09803899999999999,
          "durationTicks": 16,
          "midi": 78,
          "name": "F#5",
          "ticks": 6840,
          "time": 41.9116725,
          "velocity": 1
        },
        {
          "duration": 0.09803899999999999,
          "durationTicks": 16,
          "midi": 78,
          "name": "F#5",
          "ticks": 6888,
          "time": 42.2057895,
          "velocity": 1
        },
        {
          "duration": 0.09803899999999999,
          "durationTicks": 16,
          "midi": 78,
          "name": "F#5",
          "ticks": 6912,
          "time": 42.352848,
          "velocity": 1
        },
        {
          "duration": 0.09803899999999999,
          "durationTicks": 16,
          "midi": 78,
          "name": "F#5",
          "ticks": 6960,
          "time": 42.646965,
          "velocity": 1
        },
        {
          "duration": 0.09803899999999999,
          "durationTicks": 16,
          "midi": 78,
          "name": "F#5",
          "ticks": 7008,
          "time": 42.941082,
          "velocity": 1
        },
        {
          "duration": 0.09803899999999999,
          "durationTicks": 16,
          "midi": 78,
          "name": "F#5",
          "ticks": 7056,
          "time": 43.235199,
          "velocity": 1
        },
        {
          "duration": 0.09803899999999999,
          "durationTicks": 16,
          "midi": 78,
          "name": "F#5",
          "ticks": 7104,
          "time": 43.529316,
          "velocity": 1
        },
        {
          "duration": 0.09803899999999288,
          "durationTicks": 16,
          "midi": 78,
          "name": "F#5",
          "ticks": 7128,
          "time": 43.67637450000001,
          "velocity": 1
        },
        {
          "duration": 0.09803899999999288,
          "durationTicks": 16,
          "midi": 78,
          "name": "F#5",
          "ticks": 7152,
          "time": 43.82343300000001,
          "velocity": 1
        },
        {
          "duration": 0.09803899999999288,
          "durationTicks": 16,
          "midi": 78,
          "name": "F#5",
          "ticks": 7200,
          "time": 44.11755000000001,
          "velocity": 1
        },
        {
          "duration": 0.09803899999999288,
          "durationTicks": 16,
          "midi": 78,
          "name": "F#5",
          "ticks": 7224,
          "time": 44.26460850000001,
          "velocity": 1
        },
        {
          "duration": 0.09803899999999288,
          "durationTicks": 16,
          "midi": 78,
          "name": "F#5",
          "ticks": 7272,
          "time": 44.55872550000001,
          "velocity": 1
        },
        {
          "duration": 0.09803899999999288,
          "durationTicks": 16,
          "midi": 78,
          "name": "F#5",
          "ticks": 7296,
          "time": 44.70578400000001,
          "velocity": 1
        },
        {
          "duration": 0.09803899999999288,
          "durationTicks": 16,
          "midi": 78,
          "name": "F#5",
          "ticks": 7344,
          "time": 44.99990100000001,
          "velocity": 1
        },
        {
          "duration": 0.09803899999999288,
          "durationTicks": 16,
          "midi": 78,
          "name": "F#5",
          "ticks": 7392,
          "time": 45.29401800000001,
          "velocity": 1
        },
        {
          "duration": 0.09803899999999288,
          "durationTicks": 16,
          "midi": 78,
          "name": "F#5",
          "ticks": 7440,
          "time": 45.58813500000001,
          "velocity": 1
        },
        {
          "duration": 0.09803899999999288,
          "durationTicks": 16,
          "midi": 78,
          "name": "F#5",
          "ticks": 7488,
          "time": 45.88225200000001,
          "velocity": 1
        },
        {
          "duration": 0.09803899999999288,
          "durationTicks": 16,
          "midi": 78,
          "name": "F#5",
          "ticks": 7512,
          "time": 46.02931050000001,
          "velocity": 1
        },
        {
          "duration": 0.09803899999999288,
          "durationTicks": 16,
          "midi": 78,
          "name": "F#5",
          "ticks": 7536,
          "time": 46.17636900000001,
          "velocity": 1
        },
        {
          "duration": 0.09803899999999288,
          "durationTicks": 16,
          "midi": 78,
          "name": "F#5",
          "ticks": 7584,
          "time": 46.47048600000001,
          "velocity": 1
        },
        {
          "duration": 0.09803899999999288,
          "durationTicks": 16,
          "midi": 78,
          "name": "F#5",
          "ticks": 7608,
          "time": 46.61754450000001,
          "velocity": 1
        },
        {
          "duration": 0.09803899999999288,
          "durationTicks": 16,
          "midi": 78,
          "name": "F#5",
          "ticks": 7656,
          "time": 46.91166150000001,
          "velocity": 1
        },
        {
          "duration": 0.09803899999999288,
          "durationTicks": 16,
          "midi": 78,
          "name": "F#5",
          "ticks": 7680,
          "time": 47.05872000000001,
          "velocity": 1
        },
        {
          "duration": 0.09803899999999288,
          "durationTicks": 16,
          "midi": 78,
          "name": "F#5",
          "ticks": 7728,
          "time": 47.35283700000001,
          "velocity": 1
        },
        {
          "duration": 0.09803899999999288,
          "durationTicks": 16,
          "midi": 78,
          "name": "F#5",
          "ticks": 7776,
          "time": 47.64695400000001,
          "velocity": 1
        },
        {
          "duration": 0.09803899999999288,
          "durationTicks": 16,
          "midi": 78,
          "name": "F#5",
          "ticks": 7824,
          "time": 47.94107100000001,
          "velocity": 1
        },
        {
          "duration": 0.09803899999999288,
          "durationTicks": 16,
          "midi": 78,
          "name": "F#5",
          "ticks": 7872,
          "time": 48.23518800000001,
          "velocity": 1
        },
        {
          "duration": 0.09803899999999288,
          "durationTicks": 16,
          "midi": 78,
          "name": "F#5",
          "ticks": 7896,
          "time": 48.38224650000001,
          "velocity": 1
        },
        {
          "duration": 0.09803899999999288,
          "durationTicks": 16,
          "midi": 78,
          "name": "F#5",
          "ticks": 7920,
          "time": 48.52930500000001,
          "velocity": 1
        },
        {
          "duration": 0.09803899999999288,
          "durationTicks": 16,
          "midi": 78,
          "name": "F#5",
          "ticks": 7968,
          "time": 48.82342200000001,
          "velocity": 1
        },
        {
          "duration": 0.09803899999999288,
          "durationTicks": 16,
          "midi": 78,
          "name": "F#5",
          "ticks": 7992,
          "time": 48.97048050000001,
          "velocity": 1
        },
        {
          "duration": 0.09803899999999288,
          "durationTicks": 16,
          "midi": 78,
          "name": "F#5",
          "ticks": 8040,
          "time": 49.26459750000001,
          "velocity": 1
        },
        {
          "duration": 0.09803899999999288,
          "durationTicks": 16,
          "midi": 78,
          "name": "F#5",
          "ticks": 8064,
          "time": 49.41165600000001,
          "velocity": 1
        },
        {
          "duration": 0.09803899999999288,
          "durationTicks": 16,
          "midi": 78,
          "name": "F#5",
          "ticks": 8112,
          "time": 49.70577300000001,
          "velocity": 1
        },
        {
          "duration": 0.09803899999999288,
          "durationTicks": 16,
          "midi": 78,
          "name": "F#5",
          "ticks": 8160,
          "time": 49.99989000000001,
          "velocity": 1
        },
        {
          "duration": 0.09803899999999288,
          "durationTicks": 16,
          "midi": 78,
          "name": "F#5",
          "ticks": 8208,
          "time": 50.29400700000001,
          "velocity": 1
        },
        {
          "duration": 0.09803899999999288,
          "durationTicks": 16,
          "midi": 78,
          "name": "F#5",
          "ticks": 8256,
          "time": 50.58812400000001,
          "velocity": 1
        },
        {
          "duration": 0.09803899999999288,
          "durationTicks": 16,
          "midi": 78,
          "name": "F#5",
          "ticks": 8280,
          "time": 50.73518250000001,
          "velocity": 1
        },
        {
          "duration": 0.09803899999999288,
          "durationTicks": 16,
          "midi": 78,
          "name": "F#5",
          "ticks": 8304,
          "time": 50.88224100000001,
          "velocity": 1
        },
        {
          "duration": 0.09803899999999288,
          "durationTicks": 16,
          "midi": 78,
          "name": "F#5",
          "ticks": 8352,
          "time": 51.17635800000001,
          "velocity": 1
        },
        {
          "duration": 0.09803899999999288,
          "durationTicks": 16,
          "midi": 78,
          "name": "F#5",
          "ticks": 8376,
          "time": 51.32341650000001,
          "velocity": 1
        },
        {
          "duration": 0.09803899999999288,
          "durationTicks": 16,
          "midi": 78,
          "name": "F#5",
          "ticks": 8424,
          "time": 51.61753350000001,
          "velocity": 1
        },
        {
          "duration": 0.09803899999999288,
          "durationTicks": 16,
          "midi": 78,
          "name": "F#5",
          "ticks": 8448,
          "time": 51.76459200000001,
          "velocity": 1
        },
        {
          "duration": 0.09803899999999288,
          "durationTicks": 16,
          "midi": 78,
          "name": "F#5",
          "ticks": 8496,
          "time": 52.05870900000001,
          "velocity": 1
        },
        {
          "duration": 0.09803899999999288,
          "durationTicks": 16,
          "midi": 78,
          "name": "F#5",
          "ticks": 8544,
          "time": 52.35282600000001,
          "velocity": 1
        },
        {
          "duration": 0.09803899999999288,
          "durationTicks": 16,
          "midi": 78,
          "name": "F#5",
          "ticks": 8592,
          "time": 52.64694300000001,
          "velocity": 1
        },
        {
          "duration": 0.09803899999999288,
          "durationTicks": 16,
          "midi": 78,
          "name": "F#5",
          "ticks": 8640,
          "time": 52.94106000000001,
          "velocity": 1
        },
        {
          "duration": 0.09803899999999288,
          "durationTicks": 16,
          "midi": 78,
          "name": "F#5",
          "ticks": 8664,
          "time": 53.08811850000001,
          "velocity": 1
        },
        {
          "duration": 0.09803899999999288,
          "durationTicks": 16,
          "midi": 78,
          "name": "F#5",
          "ticks": 8688,
          "time": 53.23517700000001,
          "velocity": 1
        },
        {
          "duration": 0.09803899999999288,
          "durationTicks": 16,
          "midi": 78,
          "name": "F#5",
          "ticks": 8736,
          "time": 53.52929400000001,
          "velocity": 1
        },
        {
          "duration": 0.09803899999999288,
          "durationTicks": 16,
          "midi": 78,
          "name": "F#5",
          "ticks": 8760,
          "time": 53.67635250000001,
          "velocity": 1
        },
        {
          "duration": 0.09803899999999288,
          "durationTicks": 16,
          "midi": 78,
          "name": "F#5",
          "ticks": 8808,
          "time": 53.97046950000001,
          "velocity": 1
        },
        {
          "duration": 0.09803899999999288,
          "durationTicks": 16,
          "midi": 78,
          "name": "F#5",
          "ticks": 8832,
          "time": 54.11752800000001,
          "velocity": 1
        },
        {
          "duration": 0.09803899999999288,
          "durationTicks": 16,
          "midi": 78,
          "name": "F#5",
          "ticks": 8880,
          "time": 54.41164500000001,
          "velocity": 1
        },
        {
          "duration": 0.09803899999999288,
          "durationTicks": 16,
          "midi": 78,
          "name": "F#5",
          "ticks": 8928,
          "time": 54.70576200000001,
          "velocity": 1
        },
        {
          "duration": 0.09803899999999288,
          "durationTicks": 16,
          "midi": 78,
          "name": "F#5",
          "ticks": 8976,
          "time": 54.99987900000001,
          "velocity": 1
        },
        {
          "duration": 0.09803899999999288,
          "durationTicks": 16,
          "midi": 78,
          "name": "F#5",
          "ticks": 9024,
          "time": 55.29399600000001,
          "velocity": 1
        },
        {
          "duration": 0.09803899999999288,
          "durationTicks": 16,
          "midi": 78,
          "name": "F#5",
          "ticks": 9048,
          "time": 55.44105450000001,
          "velocity": 1
        },
        {
          "duration": 0.09803899999999288,
          "durationTicks": 16,
          "midi": 76,
          "name": "E5",
          "ticks": 9072,
          "time": 55.58811300000001,
          "velocity": 1
        },
        {
          "duration": 0.09803899999999288,
          "durationTicks": 16,
          "midi": 75,
          "name": "D#5",
          "ticks": 9096,
          "time": 55.73517150000001,
          "velocity": 1
        },
        {
          "duration": 0.09803899999999288,
          "durationTicks": 16,
          "midi": 73,
          "name": "C#5",
          "ticks": 9120,
          "time": 55.88223000000001,
          "velocity": 1
        },
        {
          "duration": 0.09803899999999288,
          "durationTicks": 16,
          "midi": 78,
          "name": "F#5",
          "ticks": 9144,
          "time": 56.02928850000001,
          "velocity": 1
        },
        {
          "duration": 0.09803899999999288,
          "durationTicks": 16,
          "midi": 78,
          "name": "F#5",
          "ticks": 9168,
          "time": 56.17634700000001,
          "velocity": 1
        },
        {
          "duration": 0.09803899999999288,
          "durationTicks": 16,
          "midi": 78,
          "name": "F#5",
          "ticks": 9216,
          "time": 56.47046400000001,
          "velocity": 1
        },
        {
          "duration": 0.09803899999999288,
          "durationTicks": 16,
          "midi": 78,
          "name": "F#5",
          "ticks": 9264,
          "time": 56.76458100000001,
          "velocity": 1
        },
        {
          "duration": 0.09803899999999288,
          "durationTicks": 16,
          "midi": 78,
          "name": "F#5",
          "ticks": 9288,
          "time": 56.91163950000001,
          "velocity": 1
        },
        {
          "duration": 0.09803899999999288,
          "durationTicks": 16,
          "midi": 78,
          "name": "F#5",
          "ticks": 9336,
          "time": 57.20575650000001,
          "velocity": 0.5511811023622047
        },
        {
          "duration": 0.09803899999999288,
          "durationTicks": 16,
          "midi": 78,
          "name": "F#5",
          "ticks": 9384,
          "time": 57.49987350000001,
          "velocity": 0.47244094488188976
        },
        {
          "duration": 0.09803899999999288,
          "durationTicks": 16,
          "midi": 78,
          "name": "F#5",
          "ticks": 9432,
          "time": 57.79399050000001,
          "velocity": 0.3937007874015748
        }
      ]
    },
    {
      "channel": 14,
      "controlChanges": {
        "0": [
          {
            "number": 0,
            "ticks": 9814,
            "time": 60.134671625,
            "value": 0.06299212598425197
          }
        ],
        "6": [
          {
            "number": 6,
            "ticks": 9479,
            "time": 58.0819800625,
            "value": 0.7086614173228346
          },
          {
            "number": 6,
            "ticks": 9479,
            "time": 58.0819800625,
            "value": 0.47244094488188976
          },
          {
            "number": 6,
            "ticks": 9812,
            "time": 60.122416750000006,
            "value": 0.5039370078740157
          },
          {
            "number": 6,
            "ticks": 9812,
            "time": 60.122416750000006,
            "value": 0.5039370078740157
          },
          {
            "number": 6,
            "ticks": 9814,
            "time": 60.134671625,
            "value": 0.5433070866141733
          }
        ],
        "7": [
          {
            "number": 7,
            "ticks": 9814,
            "time": 60.134671625,
            "value": 0.23622047244094488
          }
        ],
        "10": [
          {
            "number": 10,
            "ticks": 9480,
            "time": 58.08810750000001,
            "value": 0.5039370078740157
          },
          {
            "number": 10,
            "ticks": 9814,
            "time": 60.134671625,
            "value": 0.25196850393700787
          }
        ],
        "11": [
          {
            "number": 11,
            "ticks": 9480,
            "time": 58.08810750000001,
            "value": 0.7874015748031497
          },
          {
            "number": 11,
            "ticks": 9490,
            "time": 58.149381875,
            "value": 0.7480314960629921
          },
          {
            "number": 11,
            "ticks": 9500,
            "time": 58.21065625,
            "value": 0.7086614173228346
          },
          {
            "number": 11,
            "ticks": 9510,
            "time": 58.271930625,
            "value": 0.6692913385826772
          },
          {
            "number": 11,
            "ticks": 9520,
            "time": 58.333205,
            "value": 0.6299212598425197
          },
          {
            "number": 11,
            "ticks": 9530,
            "time": 58.394479375,
            "value": 0.5905511811023622
          },
          {
            "number": 11,
            "ticks": 9540,
            "time": 58.45575375000001,
            "value": 0.5511811023622047
          },
          {
            "number": 11,
            "ticks": 9550,
            "time": 58.517028125,
            "value": 0.5118110236220472
          },
          {
            "number": 11,
            "ticks": 9552,
            "time": 58.52928300000001,
            "value": 0.5039370078740157
          },
          {
            "number": 11,
            "ticks": 9552,
            "time": 58.52928300000001,
            "value": 0.7874015748031497
          },
          {
            "number": 11,
            "ticks": 9562,
            "time": 58.590557375,
            "value": 0.7480314960629921
          },
          {
            "number": 11,
            "ticks": 9572,
            "time": 58.65183175000001,
            "value": 0.7086614173228346
          },
          {
            "number": 11,
            "ticks": 9582,
            "time": 58.713106125,
            "value": 0.6692913385826772
          },
          {
            "number": 11,
            "ticks": 9592,
            "time": 58.7743805,
            "value": 0.6299212598425197
          },
          {
            "number": 11,
            "ticks": 9602,
            "time": 58.835654875,
            "value": 0.5905511811023622
          },
          {
            "number": 11,
            "ticks": 9612,
            "time": 58.89692925000001,
            "value": 0.5511811023622047
          },
          {
            "number": 11,
            "ticks": 9622,
            "time": 58.958203625,
            "value": 0.5118110236220472
          },
          {
            "number": 11,
            "ticks": 9624,
            "time": 58.97045850000001,
            "value": 0.5039370078740157
          },
          {
            "number": 11,
            "ticks": 9624,
            "time": 58.97045850000001,
            "value": 0.7874015748031497
          },
          {
            "number": 11,
            "ticks": 9634,
            "time": 59.031732875,
            "value": 0.7322834645669292
          },
          {
            "number": 11,
            "ticks": 9644,
            "time": 59.09300725000001,
            "value": 0.6692913385826772
          },
          {
            "number": 11,
            "ticks": 9654,
            "time": 59.154281625,
            "value": 0.6141732283464567
          },
          {
            "number": 11,
            "ticks": 9664,
            "time": 59.215556,
            "value": 0.5511811023622047
          },
          {
            "number": 11,
            "ticks": 9672,
            "time": 59.26457550000001,
            "value": 0.5039370078740157
          },
          {
            "number": 11,
            "ticks": 9672,
            "time": 59.26457550000001,
            "value": 0.7874015748031497
          },
          {
            "number": 11,
            "ticks": 9682,
            "time": 59.325849875,
            "value": 0.7322834645669292
          },
          {
            "number": 11,
            "ticks": 9692,
            "time": 59.38712425000001,
            "value": 0.6692913385826772
          },
          {
            "number": 11,
            "ticks": 9702,
            "time": 59.448398625,
            "value": 0.6141732283464567
          },
          {
            "number": 11,
            "ticks": 9712,
            "time": 59.509673,
            "value": 0.5511811023622047
          },
          {
            "number": 11,
            "ticks": 9720,
            "time": 59.55869250000001,
            "value": 0.5039370078740157
          },
          {
            "number": 11,
            "ticks": 9720,
            "time": 59.55869250000001,
            "value": 0.7874015748031497
          },
          {
            "number": 11,
            "ticks": 9730,
            "time": 59.619966875,
            "value": 0.7322834645669292
          },
          {
            "number": 11,
            "ticks": 9740,
            "time": 59.68124125000001,
            "value": 0.6692913385826772
          },
          {
            "number": 11,
            "ticks": 9750,
            "time": 59.742515625,
            "value": 0.6141732283464567
          },
          {
            "number": 11,
            "ticks": 9760,
            "time": 59.80379,
            "value": 0.5511811023622047
          },
          {
            "number": 11,
            "ticks": 9768,
            "time": 59.852809500000006,
            "value": 0.5039370078740157
          },
          {
            "number": 11,
            "ticks": 9768,
            "time": 59.852809500000006,
            "value": 0.7874015748031497
          },
          {
            "number": 11,
            "ticks": 9778,
            "time": 59.914083875,
            "value": 0.7244094488188977
          },
          {
            "number": 11,
            "ticks": 9788,
            "time": 59.975358250000006,
            "value": 0.6614173228346457
          },
          {
            "number": 11,
            "ticks": 9798,
            "time": 60.036632625,
            "value": 0.5984251968503937
          },
          {
            "number": 11,
            "ticks": 9808,
            "time": 60.097907,
            "value": 0.5354330708661418
          },
          {
            "number": 11,
            "ticks": 9812,
            "time": 60.122416750000006,
            "value": 0.7874015748031497
          }
        ],
        "32": [
          {
            "number": 32,
            "ticks": 9814,
            "time": 60.134671625,
            "value": 0.015748031496062992
          }
        ],
        "94": [
          {
            "number": 94,
            "ticks": 9814,
            "time": 60.134671625,
            "value": 0.5511811023622047
          }
        ],
        "98": [
          {
            "number": 98,
            "ticks": 9479,
            "time": 58.0819800625,
            "value": 0.8031496062992126
          },
          {
            "number": 98,
            "ticks": 9479,
            "time": 58.0819800625,
            "value": 0.7795275590551181
          },
          {
            "number": 98,
            "ticks": 9812,
            "time": 60.122416750000006,
            "value": 0.8031496062992126
          },
          {
            "number": 98,
            "ticks": 9812,
            "time": 60.122416750000006,
            "value": 0.7795275590551181
          }
        ],
        "99": [
          {
            "number": 99,
            "ticks": 9479,
            "time": 58.0819800625,
            "value": 0.007874015748031496
          },
          {
            "number": 99,
            "ticks": 9479,
            "time": 58.0819800625,
            "value": 0.007874015748031496
          },
          {
            "number": 99,
            "ticks": 9812,
            "time": 60.122416750000006,
            "value": 0.007874015748031496
          },
          {
            "number": 99,
            "ticks": 9812,
            "time": 60.122416750000006,
            "value": 0.007874015748031496
          }
        ],
        "100": [
          {
            "number": 100,
            "ticks": 9814,
            "time": 60.134671625,
            "value": 0.007874015748031496
          }
        ],
        "101": [
          {
            "number": 101,
            "ticks": 9814,
            "time": 60.134671625,
            "value": 0
          }
        ]
      },
      "pitchBends": [],
      "instrument": {
        "family": "organ",
        "number": 16,
        "name": "drawbar organ"
      },
      "name": "",
      "notes": [
        {
          "duration": 0.39215599999999284,
          "durationTicks": 64,
          "midi": 66,
          "name": "F#4",
          "ticks": 9480,
          "time": 58.08810750000001,
          "velocity": 1
        },
        {
          "duration": 0.39215599999999284,
          "durationTicks": 64,
          "midi": 73,
          "name": "C#5",
          "ticks": 9552,
          "time": 58.52928300000001,
          "velocity": 1
        },
        {
          "duration": 0.24509749999999286,
          "durationTicks": 40,
          "midi": 83,
          "name": "B5",
          "ticks": 9624,
          "time": 58.97045850000001,
          "velocity": 1
        },
        {
          "duration": 0.24509749999999286,
          "durationTicks": 40,
          "midi": 82,
          "name": "A#5",
          "ticks": 9672,
          "time": 59.26457550000001,
          "velocity": 1
        },
        {
          "duration": 0.24509749999999286,
          "durationTicks": 40,
          "midi": 78,
          "name": "F#5",
          "ticks": 9720,
          "time": 59.55869250000001,
          "velocity": 1
        },
        {
          "duration": 0.23284262499999642,
          "durationTicks": 38,
          "midi": 80,
          "name": "G#5",
          "ticks": 9768,
          "time": 59.852809500000006,
          "velocity": 1
        }
      ]
    },
    {
      "channel": 0,
      "controlChanges": {},
      "pitchBends": [],
      "instrument": {
        "family": "piano",
        "number": 0,
        "name": "acoustic grand piano"
      },
      "name": "8P.INIT\u0000",
      "notes": [],
      "endOfTrackTicks": 312
    },
    {
      "channel": 0,
      "controlChanges": {
        "0": [
          {
            "number": 0,
            "ticks": 314,
            "time": 1.9240153750000002,
            "value": 1
          }
        ],
        "1": [
          {
            "number": 1,
            "ticks": 310,
            "time": 1.8995056250000002,
            "value": 0
          }
        ],
        "5": [
          {
            "number": 5,
            "ticks": 313,
            "time": 1.9178879375000002,
            "value": 0
          }
        ],
        "6": [
          {
            "number": 6,
            "ticks": 298,
            "time": 1.825976375,
            "value": 0.12598425196850394
          },
          {
            "number": 6,
            "ticks": 300,
            "time": 1.8382312500000002,
            "value": 0.44881889763779526
          },
          {
            "number": 6,
            "ticks": 301,
            "time": 1.8443586875,
            "value": 0.5118110236220472
          },
          {
            "number": 6,
            "ticks": 302,
            "time": 1.8504861250000002,
            "value": 0.5118110236220472
          },
          {
            "number": 6,
            "ticks": 303,
            "time": 1.8566135625000002,
            "value": 0.5039370078740157
          }
        ],
        "7": [
          {
            "number": 7,
            "ticks": 307,
            "time": 1.8811233125,
            "value": 0.8267716535433071
          }
        ],
        "10": [
          {
            "number": 10,
            "ticks": 309,
            "time": 1.8933781875000002,
            "value": 0.5669291338582677
          }
        ],
        "11": [
          {
            "number": 11,
            "ticks": 308,
            "time": 1.8872507500000002,
            "value": 0.7086614173228346
          }
        ],
        "32": [
          {
            "number": 32,
            "ticks": 315,
            "time": 1.9301428125000002,
            "value": 0.007874015748031496
          }
        ],
        "64": [
          {
            "number": 64,
            "ticks": 311,
            "time": 1.9056330625000002,
            "value": 0
          }
        ],
        "65": [
          {
            "number": 65,
            "ticks": 312,
            "time": 1.9117605000000002,
            "value": 0
          }
        ],
        "91": [
          {
            "number": 91,
            "ticks": 292,
            "time": 1.78921175,
            "value": 0.3779527559055118
          }
        ],
        "93": [
          {
            "number": 93,
            "ticks": 293,
            "time": 1.7953391875000002,
            "value": 0.1889763779527559
          }
        ],
        "94": [
          {
            "number": 94,
            "ticks": 294,
            "time": 1.8014666250000002,
            "value": 0.47244094488188976
          }
        ],
        "98": [
          {
            "number": 98,
            "ticks": 301,
            "time": 1.8443586875,
            "value": 0.06299212598425197
          },
          {
            "number": 98,
            "ticks": 302,
            "time": 1.8504861250000002,
            "value": 0.07086614173228346
          },
          {
            "number": 98,
            "ticks": 303,
            "time": 1.8566135625000002,
            "value": 0.07874015748031496
          }
        ],
        "99": [
          {
            "number": 99,
            "ticks": 301,
            "time": 1.8443586875,
            "value": 0.007874015748031496
          },
          {
            "number": 99,
            "ticks": 302,
            "time": 1.8504861250000002,
            "value": 0.007874015748031496
          },
          {
            "number": 99,
            "ticks": 303,
            "time": 1.8566135625000002,
            "value": 0.007874015748031496
          }
        ],
        "100": [
          {
            "number": 100,
            "ticks": 296,
            "time": 1.8137215000000002,
            "value": 0
          },
          {
            "number": 100,
            "ticks": 300,
            "time": 1.8382312500000002,
            "value": 0.007874015748031496
          }
        ],
        "101": [
          {
            "number": 101,
            "ticks": 297,
            "time": 1.8198489375000002,
            "value": 0
          },
          {
            "number": 101,
            "ticks": 300,
            "time": 1.8382312500000002,
            "value": 0
          }
        ]
      },
      "pitchBends": [
        {
          "ticks": 299,
          "time": 1.8321038125000002,
          "value": 0
        }
      ],
      "instrument": {
        "family": "piano",
        "number": 0,
        "name": "acoustic grand piano"
      },
      "name": "SUB3\u0000",
      "notes": [],
      "endOfTrackTicks": 9924
    },
    {
      "channel": 15,
      "controlChanges": {
        "0": [
          {
            "number": 0,
            "ticks": 660,
            "time": 4.04410875,
            "value": 1
          },
          {
            "number": 0,
            "ticks": 1332,
            "time": 8.16174675,
            "value": 1
          },
          {
            "number": 0,
            "ticks": 2004,
            "time": 12.27938475,
            "value": 1
          },
          {
            "number": 0,
            "ticks": 2676,
            "time": 16.39702275,
            "value": 1
          },
          {
            "number": 0,
            "ticks": 9492,
            "time": 58.16163675000001,
            "value": 1
          }
        ],
        "6": [
          {
            "number": 6,
            "ticks": 317,
            "time": 1.9423976875000002,
            "value": 1
          },
          {
            "number": 6,
            "ticks": 318,
            "time": 1.9485251250000002,
            "value": 0.6299212598425197
          },
          {
            "number": 6,
            "ticks": 319,
            "time": 1.9546525625000002,
            "value": 0.47244094488188976
          },
          {
            "number": 6,
            "ticks": 320,
            "time": 1.9607800000000002,
            "value": 0.47244094488188976
          },
          {
            "number": 6,
            "ticks": 321,
            "time": 1.9669074375000002,
            "value": 0.5511811023622047
          },
          {
            "number": 6,
            "ticks": 996,
            "time": 6.102927750000001,
            "value": 0.47244094488188976
          },
          {
            "number": 6,
            "ticks": 1668,
            "time": 10.22056575,
            "value": 0.47244094488188976
          },
          {
            "number": 6,
            "ticks": 2340,
            "time": 14.338203750000002,
            "value": 0.47244094488188976
          },
          {
            "number": 6,
            "ticks": 9084,
            "time": 55.66164225000001,
            "value": 1
          },
          {
            "number": 6,
            "ticks": 9096,
            "time": 55.73517150000001,
            "value": 0.6299212598425197
          },
          {
            "number": 6,
            "ticks": 9108,
            "time": 55.80870075000001,
            "value": 0.47244094488188976
          },
          {
            "number": 6,
            "ticks": 9120,
            "time": 55.88223000000001,
            "value": 0.47244094488188976
          },
          {
            "number": 6,
            "ticks": 9144,
            "time": 56.02928850000001,
            "value": 0.5511811023622047
          },
          {
            "number": 6,
            "ticks": 9828,
            "time": 60.220455750000006,
            "value": 0.47244094488188976
          }
        ],
        "7": [
          {
            "number": 7,
            "ticks": 660,
            "time": 4.04410875,
            "value": 0.7637795275590551
          },
          {
            "number": 7,
            "ticks": 1332,
            "time": 8.16174675,
            "value": 0.7637795275590551
          },
          {
            "number": 7,
            "ticks": 2004,
            "time": 12.27938475,
            "value": 0.7637795275590551
          },
          {
            "number": 7,
            "ticks": 2676,
            "time": 16.39702275,
            "value": 0.7637795275590551
          },
          {
            "number": 7,
            "ticks": 9204,
            "time": 56.39693475000001,
            "value": 0.8267716535433071
          },
          {
            "number": 7,
            "ticks": 9252,
            "time": 56.69105175000001,
            "value": 0.7716535433070866
          },
          {
            "number": 7,
            "ticks": 9300,
            "time": 56.98516875000001,
            "value": 0.7165354330708661
          },
          {
            "number": 7,
            "ticks": 9348,
            "time": 57.27928575000001,
            "value": 0.6692913385826772
          },
          {
            "number": 7,
            "ticks": 9396,
            "time": 57.57340275000001,
            "value": 0.6141732283464567
          },
          {
            "number": 7,
            "ticks": 9444,
            "time": 57.86751975000001,
            "value": 0.5669291338582677
          },
          {
            "number": 7,
            "ticks": 9492,
            "time": 58.16163675000001,
            "value": 0.5118110236220472
          },
          {
            "number": 7,
            "ticks": 9492,
            "time": 58.16163675000001,
            "value": 0.4251968503937008
          },
          {
            "number": 7,
            "ticks": 9876,
            "time": 60.514572750000006,
            "value": 0.10236220472440945
          },
          {
            "number": 7,
            "ticks": 9924,
            "time": 60.808689750000006,
            "value": 0.047244094488188976
          }
        ],
        "10": [
          {
            "number": 10,
            "ticks": 324,
            "time": 1.9852897500000002,
            "value": 0.25196850393700787
          },
          {
            "number": 10,
            "ticks": 396,
            "time": 2.42646525,
            "value": 0.5039370078740157
          },
          {
            "number": 10,
            "ticks": 444,
            "time": 2.7205822500000005,
            "value": 0.7559055118110236
          },
          {
            "number": 10,
            "ticks": 996,
            "time": 6.102927750000001,
            "value": 0.25196850393700787
          },
          {
            "number": 10,
            "ticks": 1068,
            "time": 6.544103250000001,
            "value": 0.5039370078740157
          },
          {
            "number": 10,
            "ticks": 1116,
            "time": 6.838220250000001,
            "value": 0.7559055118110236
          },
          {
            "number": 10,
            "ticks": 1668,
            "time": 10.22056575,
            "value": 0.25196850393700787
          },
          {
            "number": 10,
            "ticks": 1740,
            "time": 10.66174125,
            "value": 0.5039370078740157
          },
          {
            "number": 10,
            "ticks": 1788,
            "time": 10.95585825,
            "value": 0.7559055118110236
          },
          {
            "number": 10,
            "ticks": 2340,
            "time": 14.338203750000002,
            "value": 0.25196850393700787
          },
          {
            "number": 10,
            "ticks": 2412,
            "time": 14.779379250000002,
            "value": 0.5039370078740157
          },
          {
            "number": 10,
            "ticks": 2460,
            "time": 15.073496250000002,
            "value": 0.7559055118110236
          },
          {
            "number": 10,
            "ticks": 9156,
            "time": 56.10281775000001,
            "value": 0.25196850393700787
          },
          {
            "number": 10,
            "ticks": 9228,
            "time": 56.54399325000001,
            "value": 0.5039370078740157
          },
          {
            "number": 10,
            "ticks": 9276,
            "time": 56.83811025000001,
            "value": 0.7559055118110236
          },
          {
            "number": 10,
            "ticks": 9828,
            "time": 60.220455750000006,
            "value": 0.25196850393700787
          },
          {
            "number": 10,
            "ticks": 9900,
            "time": 60.661631250000006,
            "value": 0.5039370078740157
          }
        ],
        "32": [
          {
            "number": 32,
            "ticks": 660,
            "time": 4.04410875,
            "value": 0.007874015748031496
          },
          {
            "number": 32,
            "ticks": 1332,
            "time": 8.16174675,
            "value": 0.007874015748031496
          },
          {
            "number": 32,
            "ticks": 2004,
            "time": 12.27938475,
            "value": 0.007874015748031496
          },
          {
            "number": 32,
            "ticks": 2676,
            "time": 16.39702275,
            "value": 0.007874015748031496
          },
          {
            "number": 32,
            "ticks": 9492,
            "time": 58.16163675000001,
            "value": 0.007874015748031496
          }
        ],
        "98": [
          {
            "number": 98,
            "ticks": 317,
            "time": 1.9423976875000002,
            "value": 0.25196850393700787
          },
          {
            "number": 98,
            "ticks": 318,
            "time": 1.9485251250000002,
            "value": 0.25984251968503935
          },
          {
            "number": 98,
            "ticks": 319,
            "time": 1.9546525625000002,
            "value": 0.7795275590551181
          },
          {
            "number": 98,
            "ticks": 320,
            "time": 1.9607800000000002,
            "value": 0.7874015748031497
          },
          {
            "number": 98,
            "ticks": 321,
            "time": 1.9669074375000002,
            "value": 0.8031496062992126
          },
          {
            "number": 98,
            "ticks": 9084,
            "time": 55.66164225000001,
            "value": 0.25196850393700787
          },
          {
            "number": 98,
            "ticks": 9096,
            "time": 55.73517150000001,
            "value": 0.25984251968503935
          },
          {
            "number": 98,
            "ticks": 9108,
            "time": 55.80870075000001,
            "value": 0.7795275590551181
          },
          {
            "number": 98,
            "ticks": 9120,
            "time": 55.88223000000001,
            "value": 0.7874015748031497
          },
          {
            "number": 98,
            "ticks": 9132,
            "time": 55.95575925000001,
            "value": 0.8031496062992126
          }
        ],
        "99": [
          {
            "number": 99,
            "ticks": 317,
            "time": 1.9423976875000002,
            "value": 0.007874015748031496
          },
          {
            "number": 99,
            "ticks": 318,
            "time": 1.9485251250000002,
            "value": 0.007874015748031496
          },
          {
            "number": 99,
            "ticks": 319,
            "time": 1.9546525625000002,
            "value": 0.007874015748031496
          },
          {
            "number": 99,
            "ticks": 320,
            "time": 1.9607800000000002,
            "value": 0.007874015748031496
          },
          {
            "number": 99,
            "ticks": 321,
            "time": 1.9669074375000002,
            "value": 0.007874015748031496
          },
          {
            "number": 99,
            "ticks": 9084,
            "time": 55.66164225000001,
            "value": 0.007874015748031496
          },
          {
            "number": 99,
            "ticks": 9096,
            "time": 55.73517150000001,
            "value": 0.007874015748031496
          },
          {
            "number": 99,
            "ticks": 9108,
            "time": 55.80870075000001,
            "value": 0.007874015748031496
          },
          {
            "number": 99,
            "ticks": 9120,
            "time": 55.88223000000001,
            "value": 0.007874015748031496
          },
          {
            "number": 99,
            "ticks": 9132,
            "time": 55.95575925000001,
            "value": 0.007874015748031496
          }
        ]
      },
      "pitchBends": [],
      "instrument": {
        "family": "ensemble",
        "number": 49,
        "name": "string ensemble 2"
      },
      "name": "",
      "notes": [
        {
          "duration": 0.09803899999999999,
          "durationTicks": 16,
          "midi": 78,
          "name": "F#5",
          "ticks": 324,
          "time": 1.9852897500000002,
          "velocity": 1
        },
        {
          "duration": 0.09803899999999999,
          "durationTicks": 16,
          "midi": 78,
          "name": "F#5",
          "ticks": 348,
          "time": 2.13234825,
          "velocity": 1
        },
        {
          "duration": 0.09803899999999999,
          "durationTicks": 16,
          "midi": 78,
          "name": "F#5",
          "ticks": 396,
          "time": 2.42646525,
          "velocity": 1
        },
        {
          "duration": 0.09803899999999954,
          "durationTicks": 16,
          "midi": 78,
          "name": "F#5",
          "ticks": 444,
          "time": 2.7205822500000005,
          "velocity": 1
        },
        {
          "duration": 0.09803899999999999,
          "durationTicks": 16,
          "midi": 78,
          "name": "F#5",
          "ticks": 468,
          "time": 2.8676407500000005,
          "velocity": 1
        },
        {
          "duration": 0.09803899999999999,
          "durationTicks": 16,
          "midi": 78,
          "name": "F#5",
          "ticks": 516,
          "time": 3.1617577500000005,
          "velocity": 0.3937007874015748
        },
        {
          "duration": 0.09803899999999999,
          "durationTicks": 16,
          "midi": 78,
          "name": "F#5",
          "ticks": 564,
          "time": 3.4558747500000004,
          "velocity": 0.31496062992125984
        },
        {
          "duration": 0.09803899999999999,
          "durationTicks": 16,
          "midi": 78,
          "name": "F#5",
          "ticks": 612,
          "time": 3.7499917500000004,
          "velocity": 0.23622047244094488
        },
        {
          "duration": 0.09803899999999999,
          "durationTicks": 16,
          "midi": 78,
          "name": "F#5",
          "ticks": 996,
          "time": 6.102927750000001,
          "velocity": 1
        },
        {
          "duration": 0.09803899999999999,
          "durationTicks": 16,
          "midi": 78,
          "name": "F#5",
          "ticks": 1020,
          "time": 6.249986250000001,
          "velocity": 1
        },
        {
          "duration": 0.09803899999999999,
          "durationTicks": 16,
          "midi": 78,
          "name": "F#5",
          "ticks": 1068,
          "time": 6.544103250000001,
          "velocity": 1
        },
        {
          "duration": 0.09803899999999999,
          "durationTicks": 16,
          "midi": 78,
          "name": "F#5",
          "ticks": 1116,
          "time": 6.838220250000001,
          "velocity": 1
        },
        {
          "duration": 0.09803899999999999,
          "durationTicks": 16,
          "midi": 78,
          "name": "F#5",
          "ticks": 1140,
          "time": 6.985278750000001,
          "velocity": 1
        },
        {
          "duration": 0.09803899999999999,
          "durationTicks": 16,
          "midi": 78,
          "name": "F#5",
          "ticks": 1188,
          "time": 7.279395750000001,
          "velocity": 0.5511811023622047
        },
        {
          "duration": 0.09803899999999999,
          "durationTicks": 16,
          "midi": 78,
          "name": "F#5",
          "ticks": 1236,
          "time": 7.573512750000001,
          "velocity": 0.47244094488188976
        },
        {
          "duration": 0.09803899999999999,
          "durationTicks": 16,
          "midi": 78,
          "name": "F#5",
          "ticks": 1284,
          "time": 7.867629750000001,
          "velocity": 0.3937007874015748
        },
        {
          "duration": 0.09803899999999999,
          "durationTicks": 16,
          "midi": 78,
          "name": "F#5",
          "ticks": 1668,
          "time": 10.22056575,
          "velocity": 1
        },
        {
          "duration": 0.09803899999999999,
          "durationTicks": 16,
          "midi": 78,
          "name": "F#5",
          "ticks": 1692,
          "time": 10.36762425,
          "velocity": 1
        },
        {
          "duration": 0.09803899999999999,
          "durationTicks": 16,
          "midi": 78,
          "name": "F#5",
          "ticks": 1740,
          "time": 10.66174125,
          "velocity": 1
        },
        {
          "duration": 0.09803899999999999,
          "durationTicks": 16,
          "midi": 78,
          "name": "F#5",
          "ticks": 1788,
          "time": 10.95585825,
          "velocity": 1
        },
        {
          "duration": 0.09803899999999999,
          "durationTicks": 16,
          "midi": 78,
          "name": "F#5",
          "ticks": 1812,
          "time": 11.10291675,
          "velocity": 1
        },
        {
          "duration": 0.09803899999999999,
          "durationTicks": 16,
          "midi": 78,
          "name": "F#5",
          "ticks": 1860,
          "time": 11.39703375,
          "velocity": 0.3937007874015748
        },
        {
          "duration": 0.09803899999999999,
          "durationTicks": 16,
          "midi": 78,
          "name": "F#5",
          "ticks": 1908,
          "time": 11.69115075,
          "velocity": 0.31496062992125984
        },
        {
          "duration": 0.09803899999999999,
          "durationTicks": 16,
          "midi": 78,
          "name": "F#5",
          "ticks": 1956,
          "time": 11.98526775,
          "velocity": 0.23622047244094488
        },
        {
          "duration": 0.09803899999999821,
          "durationTicks": 16,
          "midi": 78,
          "name": "F#5",
          "ticks": 2340,
          "time": 14.338203750000002,
          "velocity": 1
        },
        {
          "duration": 0.09803899999999821,
          "durationTicks": 16,
          "midi": 78,
          "name": "F#5",
          "ticks": 2364,
          "time": 14.485262250000002,
          "velocity": 1
        },
        {
          "duration": 0.09803899999999821,
          "durationTicks": 16,
          "midi": 78,
          "name": "F#5",
          "ticks": 2412,
          "time": 14.779379250000002,
          "velocity": 1
        },
        {
          "duration": 0.09803899999999821,
          "durationTicks": 16,
          "midi": 78,
          "name": "F#5",
          "ticks": 2460,
          "time": 15.073496250000002,
          "velocity": 1
        },
        {
          "duration": 0.09803899999999821,
          "durationTicks": 16,
          "midi": 78,
          "name": "F#5",
          "ticks": 2484,
          "time": 15.220554750000002,
          "velocity": 1
        },
        {
          "duration": 0.09803899999999821,
          "durationTicks": 16,
          "midi": 78,
          "name": "F#5",
          "ticks": 2532,
          "time": 15.514671750000002,
          "velocity": 0.5511811023622047
        },
        {
          "duration": 0.09803899999999821,
          "durationTicks": 16,
          "midi": 78,
          "name": "F#5",
          "ticks": 2580,
          "time": 15.808788750000001,
          "velocity": 0.47244094488188976
        },
        {
          "duration": 0.09803899999999999,
          "durationTicks": 16,
          "midi": 78,
          "name": "F#5",
          "ticks": 2628,
          "time": 16.10290575,
          "velocity": 0.3937007874015748
        },
        {
          "duration": 0.09803899999999288,
          "durationTicks": 16,
          "midi": 78,
          "name": "F#5",
          "ticks": 9156,
          "time": 56.10281775000001,
          "velocity": 1
        },
        {
          "duration": 0.09803899999999288,
          "durationTicks": 16,
          "midi": 78,
          "name": "F#5",
          "ticks": 9180,
          "time": 56.24987625000001,
          "velocity": 1
        },
        {
          "duration": 0.09803899999999288,
          "durationTicks": 16,
          "midi": 78,
          "name": "F#5",
          "ticks": 9228,
          "time": 56.54399325000001,
          "velocity": 1
        },
        {
          "duration": 0.09803899999999288,
          "durationTicks": 16,
          "midi": 78,
          "name": "F#5",
          "ticks": 9276,
          "time": 56.83811025000001,
          "velocity": 1
        },
        {
          "duration": 0.09803899999999288,
          "durationTicks": 16,
          "midi": 78,
          "name": "F#5",
          "ticks": 9300,
          "time": 56.98516875000001,
          "velocity": 1
        },
        {
          "duration": 0.09803899999999288,
          "durationTicks": 16,
          "midi": 78,
          "name": "F#5",
          "ticks": 9348,
          "time": 57.27928575000001,
          "velocity": 0.3937007874015748
        },
        {
          "duration": 0.09803899999999288,
          "durationTicks": 16,
          "midi": 78,
          "name": "F#5",
          "ticks": 9396,
          "time": 57.57340275000001,
          "velocity": 0.31496062992125984
        },
        {
          "duration": 0.09803899999999288,
          "durationTicks": 16,
          "midi": 78,
          "name": "F#5",
          "ticks": 9444,
          "time": 57.86751975000001,
          "velocity": 0.23622047244094488
        },
        {
          "duration": 0.09803899999999288,
          "durationTicks": 16,
          "midi": 78,
          "name": "F#5",
          "ticks": 9828,
          "time": 60.220455750000006,
          "velocity": 1
        },
        {
          "duration": 0.09803899999999288,
          "durationTicks": 16,
          "midi": 78,
          "name": "F#5",
          "ticks": 9852,
          "time": 60.367514250000006,
          "velocity": 1
        },
        {
          "duration": 0.09803899999999288,
          "durationTicks": 16,
          "midi": 78,
          "name": "F#5",
          "ticks": 9900,
          "time": 60.661631250000006,
          "velocity": 1
        }
      ]
    },
    {
      "channel": 15,
      "controlChanges": {
        "0": [
          {
            "number": 0,
            "ticks": 996,
            "time": 6.102927750000001,
            "value": 1
          },
          {
            "number": 0,
            "ticks": 1668,
            "time": 10.22056575,
            "value": 1
          },
          {
            "number": 0,
            "ticks": 2340,
            "time": 14.338203750000002,
            "value": 1
          },
          {
            "number": 0,
            "ticks": 9048,
            "time": 55.44105450000001,
            "value": 1
          },
          {
            "number": 0,
            "ticks": 9828,
            "time": 60.220455750000006,
            "value": 1
          }
        ],
        "1": [
          {
            "number": 1,
            "ticks": 9000,
            "time": 55.14693750000001,
            "value": 0
          }
        ],
        "5": [
          {
            "number": 5,
            "ticks": 9036,
            "time": 55.36752525000001,
            "value": 0
          }
        ],
        "6": [
          {
            "number": 6,
            "ticks": 660,
            "time": 4.04410875,
            "value": 0.5118110236220472
          },
          {
            "number": 6,
            "ticks": 1332,
            "time": 8.16174675,
            "value": 0.5118110236220472
          },
          {
            "number": 6,
            "ticks": 2004,
            "time": 12.27938475,
            "value": 0.5118110236220472
          },
          {
            "number": 6,
            "ticks": 2676,
            "time": 16.39702275,
            "value": 0.5118110236220472
          },
          {
            "number": 6,
            "ticks": 9492,
            "time": 58.16163675000001,
            "value": 0.5118110236220472
          }
        ],
        "7": [
          {
            "number": 7,
            "ticks": 996,
            "time": 6.102927750000001,
            "value": 0.8267716535433071
          },
          {
            "number": 7,
            "ticks": 1668,
            "time": 10.22056575,
            "value": 0.8267716535433071
          },
          {
            "number": 7,
            "ticks": 2340,
            "time": 14.338203750000002,
            "value": 0.8267716535433071
          },
          {
            "number": 7,
            "ticks": 8964,
            "time": 54.92634975000001,
            "value": 0.8267716535433071
          },
          {
            "number": 7,
            "ticks": 9540,
            "time": 58.45575375000001,
            "value": 0.4251968503937008
          },
          {
            "number": 7,
            "ticks": 9588,
            "time": 58.74987075000001,
            "value": 0.3779527559055118
          },
          {
            "number": 7,
            "ticks": 9636,
            "time": 59.04398775000001,
            "value": 0.33070866141732286
          },
          {
            "number": 7,
            "ticks": 9684,
            "time": 59.33810475000001,
            "value": 0.28346456692913385
          },
          {
            "number": 7,
            "ticks": 9732,
            "time": 59.63222175000001,
            "value": 0.23622047244094488
          },
          {
            "number": 7,
            "ticks": 9780,
            "time": 59.926338750000006,
            "value": 0.1889763779527559
          },
          {
            "number": 7,
            "ticks": 9828,
            "time": 60.220455750000006,
            "value": 0.14173228346456693
          },
          {
            "number": 7,
            "ticks": 9828,
            "time": 60.220455750000006,
            "value": 0.10236220472440945
          }
        ],
        "10": [
          {
            "number": 10,
            "ticks": 660,
            "time": 4.04410875,
            "value": 0.4409448818897638
          },
          {
            "number": 10,
            "ticks": 1332,
            "time": 8.16174675,
            "value": 0.4094488188976378
          },
          {
            "number": 10,
            "ticks": 2004,
            "time": 12.27938475,
            "value": 0.4409448818897638
          },
          {
            "number": 10,
            "ticks": 2676,
            "time": 16.39702275,
            "value": 0.4094488188976378
          },
          {
            "number": 10,
            "ticks": 8988,
            "time": 55.07340825000001,
            "value": 0.5669291338582677
          },
          {
            "number": 10,
            "ticks": 9492,
            "time": 58.16163675000001,
            "value": 0.4409448818897638
          }
        ],
        "11": [
          {
            "number": 11,
            "ticks": 8976,
            "time": 54.99987900000001,
            "value": 0.7086614173228346
          }
        ],
        "32": [
          {
            "number": 32,
            "ticks": 996,
            "time": 6.102927750000001,
            "value": 0.007874015748031496
          },
          {
            "number": 32,
            "ticks": 1668,
            "time": 10.22056575,
            "value": 0.007874015748031496
          },
          {
            "number": 32,
            "ticks": 2340,
            "time": 14.338203750000002,
            "value": 0.007874015748031496
          },
          {
            "number": 32,
            "ticks": 9060,
            "time": 55.51458375000001,
            "value": 0.007874015748031496
          },
          {
            "number": 32,
            "ticks": 9828,
            "time": 60.220455750000006,
            "value": 0.007874015748031496
          }
        ],
        "64": [
          {
            "number": 64,
            "ticks": 9012,
            "time": 55.22046675000001,
            "value": 0
          }
        ],
        "65": [
          {
            "number": 65,
            "ticks": 9024,
            "time": 55.29399600000001,
            "value": 0
          }
        ],
        "98": [
          {
            "number": 98,
            "ticks": 660,
            "time": 4.04410875,
            "value": 0.7795275590551181
          },
          {
            "number": 98,
            "ticks": 1332,
            "time": 8.16174675,
            "value": 0.7795275590551181
          },
          {
            "number": 98,
            "ticks": 2004,
            "time": 12.27938475,
            "value": 0.7795275590551181
          },
          {
            "number": 98,
            "ticks": 2676,
            "time": 16.39702275,
            "value": 0.7795275590551181
          },
          {
            "number": 98,
            "ticks": 9492,
            "time": 58.16163675000001,
            "value": 0.7795275590551181
          }
        ],
        "99": [
          {
            "number": 99,
            "ticks": 660,
            "time": 4.04410875,
            "value": 0.007874015748031496
          },
          {
            "number": 99,
            "ticks": 1332,
            "time": 8.16174675,
            "value": 0.007874015748031496
          },
          {
            "number": 99,
            "ticks": 2004,
            "time": 12.27938475,
            "value": 0.007874015748031496
          },
          {
            "number": 99,
            "ticks": 2676,
            "time": 16.39702275,
            "value": 0.007874015748031496
          },
          {
            "number": 99,
            "ticks": 9492,
            "time": 58.16163675000001,
            "value": 0.007874015748031496
          }
        ]
      },
      "pitchBends": [],
      "instrument": {
        "family": "guitar",
        "number": 29,
        "name": "overdriven guitar"
      },
      "name": "",
      "notes": [
        {
          "duration": 0.39215599999999995,
          "durationTicks": 64,
          "midi": 66,
          "name": "F#4",
          "ticks": 660,
          "time": 4.04410875,
          "velocity": 1
        },
        {
          "duration": 0.39215599999999995,
          "durationTicks": 64,
          "midi": 73,
          "name": "C#5",
          "ticks": 732,
          "time": 4.48528425,
          "velocity": 1
        },
        {
          "duration": 0.24509749999999908,
          "durationTicks": 40,
          "midi": 83,
          "name": "B5",
          "ticks": 804,
          "time": 4.926459750000001,
          "velocity": 1
        },
        {
          "duration": 0.24509749999999908,
          "durationTicks": 40,
          "midi": 82,
          "name": "A#5",
          "ticks": 852,
          "time": 5.220576750000001,
          "velocity": 1
        },
        {
          "duration": 0.24509749999999908,
          "durationTicks": 40,
          "midi": 78,
          "name": "F#5",
          "ticks": 900,
          "time": 5.514693750000001,
          "velocity": 1
        },
        {
          "duration": 0.24509749999999997,
          "durationTicks": 40,
          "midi": 80,
          "name": "G#5",
          "ticks": 948,
          "time": 5.808810750000001,
          "velocity": 1
        },
        {
          "duration": 0.39215599999999995,
          "durationTicks": 64,
          "midi": 66,
          "name": "F#4",
          "ticks": 1332,
          "time": 8.16174675,
          "velocity": 1
        },
        {
          "duration": 0.39215599999999995,
          "durationTicks": 64,
          "midi": 73,
          "name": "C#5",
          "ticks": 1404,
          "time": 8.60292225,
          "velocity": 1
        },
        {
          "duration": 0.24509749999999997,
          "durationTicks": 40,
          "midi": 83,
          "name": "B5",
          "ticks": 1476,
          "time": 9.04409775,
          "velocity": 1
        },
        {
          "duration": 0.24509749999999997,
          "durationTicks": 40,
          "midi": 82,
          "name": "A#5",
          "ticks": 1524,
          "time": 9.33821475,
          "velocity": 1
        },
        {
          "duration": 0.24509749999999997,
          "durationTicks": 40,
          "midi": 78,
          "name": "F#5",
          "ticks": 1572,
          "time": 9.63233175,
          "velocity": 1
        },
        {
          "duration": 0.24509749999999997,
          "durationTicks": 40,
          "midi": 80,
          "name": "G#5",
          "ticks": 1620,
          "time": 9.92644875,
          "velocity": 1
        },
        {
          "duration": 0.39215599999999995,
          "durationTicks": 64,
          "midi": 66,
          "name": "F#4",
          "ticks": 2004,
          "time": 12.27938475,
          "velocity": 1
        },
        {
          "duration": 0.3921559999999982,
          "durationTicks": 64,
          "midi": 73,
          "name": "C#5",
          "ticks": 2076,
          "time": 12.720560250000002,
          "velocity": 1
        },
        {
          "duration": 0.2450974999999982,
          "durationTicks": 40,
          "midi": 83,
          "name": "B5",
          "ticks": 2148,
          "time": 13.161735750000002,
          "velocity": 1
        },
        {
          "duration": 0.2450974999999982,
          "durationTicks": 40,
          "midi": 82,
          "name": "A#5",
          "ticks": 2196,
          "time": 13.455852750000002,
          "velocity": 1
        },
        {
          "duration": 0.2450974999999982,
          "durationTicks": 40,
          "midi": 78,
          "name": "F#5",
          "ticks": 2244,
          "time": 13.749969750000002,
          "velocity": 1
        },
        {
          "duration": 0.2450974999999982,
          "durationTicks": 40,
          "midi": 80,
          "name": "G#5",
          "ticks": 2292,
          "time": 14.044086750000002,
          "velocity": 1
        },
        {
          "duration": 0.39215599999999995,
          "durationTicks": 64,
          "midi": 66,
          "name": "F#4",
          "ticks": 2676,
          "time": 16.39702275,
          "velocity": 1
        },
        {
          "duration": 0.39215599999999995,
          "durationTicks": 64,
          "midi": 73,
          "name": "C#5",
          "ticks": 2748,
          "time": 16.83819825,
          "velocity": 1
        },
        {
          "duration": 0.24509749999999997,
          "durationTicks": 40,
          "midi": 83,
          "name": "B5",
          "ticks": 2820,
          "time": 17.27937375,
          "velocity": 1
        },
        {
          "duration": 0.24509749999999997,
          "durationTicks": 40,
          "midi": 82,
          "name": "A#5",
          "ticks": 2868,
          "time": 17.57349075,
          "velocity": 1
        },
        {
          "duration": 0.24509749999999997,
          "durationTicks": 40,
          "midi": 78,
          "name": "F#5",
          "ticks": 2916,
          "time": 17.86760775,
          "velocity": 1
        },
        {
          "duration": 0.24509749999999997,
          "durationTicks": 40,
          "midi": 80,
          "name": "G#5",
          "ticks": 2964,
          "time": 18.16172475,
          "velocity": 1
        },
        {
          "duration": 0.39215599999999284,
          "durationTicks": 64,
          "midi": 66,
          "name": "F#4",
          "ticks": 9492,
          "time": 58.16163675000001,
          "velocity": 1
        },
        {
          "duration": 0.39215599999999284,
          "durationTicks": 64,
          "midi": 73,
          "name": "C#5",
          "ticks": 9564,
          "time": 58.60281225000001,
          "velocity": 1
        },
        {
          "duration": 0.24509749999999286,
          "durationTicks": 40,
          "midi": 83,
          "name": "B5",
          "ticks": 9636,
          "time": 59.04398775000001,
          "velocity": 1
        },
        {
          "duration": 0.24509749999999286,
          "durationTicks": 40,
          "midi": 82,
          "name": "A#5",
          "ticks": 9684,
          "time": 59.33810475000001,
          "velocity": 1
        },
        {
          "duration": 0.24509749999999286,
          "durationTicks": 40,
          "midi": 78,
          "name": "F#5",
          "ticks": 9732,
          "time": 59.63222175000001,
          "velocity": 1
        },
        {
          "duration": 0.24509749999999286,
          "durationTicks": 40,
          "midi": 80,
          "name": "G#5",
          "ticks": 9780,
          "time": 59.926338750000006,
          "velocity": 1
        }
      ]
    },
    {
      "channel": 0,
      "controlChanges": {},
      "pitchBends": [],
      "instrument": {
        "family": "piano",
        "number": 0,
        "name": "acoustic grand piano"
      },
      "name": "\u0000",
      "notes": [],
      "endOfTrackTicks": 0
    }
  ]
}