{
    "header": {
      "keySignatures": [
        {
          "key": "C",
          "scale": "major",
          "ticks": 0
        }
      ],
      "meta": [],
      "name": "STREET FIGHTER EX wé÷JiÙ­Æ STAGEjx\u0000",
      "ppq": 48,
      "tempos": [
        {
          "bpm": 136.0001450668214,
          "ticks": 0
        }
      ],
      "timeSignatures": [
        {
          "ticks": 0,
          "timeSignature": [
            4,
            4
          ],
          "measures": 0
        }
      ]
    },
    "tracks": [
      {
        "channel": 0,
        "controlChanges": {},
        "pitchBends": [],
        "instrument": {
          "family": "piano",
          "number": 0,
          "name": "acoustic grand piano"
        },
        "name": "\u0000",
        "notes": [],
        "endOfTrackTicks": 144
      },
      {
        "channel": 0,
        "controlChanges": {
          "0": [
            {
              "number": 0,
              "ticks": 240,
              "time": 2.20588,
              "value": 0
            }
          ],
          "32": [
            {
              "number": 32,
              "ticks": 248,
              "time": 2.2794093333333336,
              "value": 0.015748031496062992
            }
          ]
        },
        "pitchBends": [],
        "instrument": {
          "family": "piano",
          "number": 0,
          "name": "acoustic grand piano"
        },
        "name": "h\u0000",
        "notes": [],
        "endOfTrackTicks": 8928
      },
      {
        "channel": 9,
        "controlChanges": {
          "1": [
            {
              "number": 1,
              "ticks": 296,
              "time": 2.7205853333333336,
              "value": 0
            }
          ],
          "7": [
            {
              "number": 7,
              "ticks": 264,
              "time": 2.426468,
              "value": 0.9448818897637795
            },
            {
              "number": 7,
              "ticks": 8208,
              "time": 75.441096,
              "value": 0.9448818897637795
            },
            {
              "number": 7,
              "ticks": 8256,
              "time": 75.882272,
              "value": 0.8818897637795275
            },
            {
              "number": 7,
              "ticks": 8304,
              "time": 76.323448,
              "value": 0.8267716535433071
            },
            {
              "number": 7,
              "ticks": 8352,
              "time": 76.764624,
              "value": 0.7637795275590551
            },
            {
              "number": 7,
              "ticks": 8400,
              "time": 77.2058,
              "value": 0.7086614173228346
            },
            {
              "number": 7,
              "ticks": 8448,
              "time": 77.646976,
              "value": 0.6456692913385826
            },
            {
              "number": 7,
              "ticks": 8496,
              "time": 78.08815200000001,
              "value": 0.5905511811023622
            },
            {
              "number": 7,
              "ticks": 8544,
              "time": 78.529328,
              "value": 0.5275590551181102
            },
            {
              "number": 7,
              "ticks": 8592,
              "time": 78.970504,
              "value": 0.47244094488188976
            },
            {
              "number": 7,
              "ticks": 8640,
              "time": 79.41168,
              "value": 0.4094488188976378
            },
            {
              "number": 7,
              "ticks": 8688,
              "time": 79.852856,
              "value": 0.3543307086614173
            },
            {
              "number": 7,
              "ticks": 8736,
              "time": 80.294032,
              "value": 0.29133858267716534
            },
            {
              "number": 7,
              "ticks": 8784,
              "time": 80.735208,
              "value": 0.23622047244094488
            },
            {
              "number": 7,
              "ticks": 8832,
              "time": 81.176384,
              "value": 0.1732283464566929
            },
            {
              "number": 7,
              "ticks": 8880,
              "time": 81.61756,
              "value": 0.11811023622047244
            },
            {
              "number": 7,
              "ticks": 8928,
              "time": 82.058736,
              "value": 0.05511811023622047
            }
          ],
          "10": [
            {
              "number": 10,
              "ticks": 280,
              "time": 2.5735266666666665,
              "value": 0.5039370078740157
            }
          ],
          "11": [
            {
              "number": 11,
              "ticks": 272,
              "time": 2.4999973333333334,
              "value": 1
            }
          ],
          "91": [
            {
              "number": 91,
              "ticks": 304,
              "time": 2.7941146666666667,
              "value": 0.7874015748031497
            }
          ],
          "93": [
            {
              "number": 93,
              "ticks": 312,
              "time": 2.8676440000000003,
              "value": 0.07874015748031496
            }
          ],
          "94": [
            {
              "number": 94,
              "ticks": 320,
              "time": 2.9411733333333334,
              "value": 0
            }
          ]
        },
        "pitchBends": [
          {
            "ticks": 288,
            "time": 2.647056,
            "value": 0
          }
        ],
        "instrument": {
          "family": "drums",
          "number": 50
        },
        "name": "",
        "notes": [
          {
            "duration": 0.00919116666666664,
            "durationTicks": 1,
            "midi": 71,
            "name": "B4",
            "ticks": 444,
            "time": 4.080878,
            "velocity": 0.7244094488188977
          },
          {
            "duration": 0.009191166666667527,
            "durationTicks": 1,
            "midi": 43,
            "name": "G2",
            "ticks": 456,
            "time": 4.191172,
            "velocity": 0.8346456692913385
          },
          {
            "duration": 0.00919116666666664,
            "durationTicks": 1,
            "midi": 43,
            "name": "G2",
            "ticks": 480,
            "time": 4.41176,
            "velocity": 0.8346456692913385
          },
          {
            "duration": 0.00919116666666664,
            "durationTicks": 1,
            "midi": 43,
            "name": "G2",
            "ticks": 516,
            "time": 4.742642,
            "velocity": 0.8346456692913385
          },
          {
            "duration": 0.009191166666667527,
            "durationTicks": 1,
            "midi": 71,
            "name": "B4",
            "ticks": 528,
            "time": 4.852936,
            "velocity": 0.7244094488188977
          },
          {
            "duration": 0.00919116666666664,
            "durationTicks": 1,
            "midi": 43,
            "name": "G2",
            "ticks": 600,
            "time": 5.5147,
            "velocity": 0.8346456692913385
          },
          {
            "duration": 0.00919116666666664,
            "durationTicks": 1,
            "midi": 71,
            "name": "B4",
            "ticks": 624,
            "time": 5.735288000000001,
            "velocity": 0.7244094488188977
          },
          {
            "duration": 0.00919116666666664,
            "durationTicks": 1,
            "midi": 43,
            "name": "G2",
            "ticks": 636,
            "time": 5.845582,
            "velocity": 0.8346456692913385
          },
          {
            "duration": 0.00919116666666664,
            "durationTicks": 1,
            "midi": 43,
            "name": "G2",
            "ticks": 672,
            "time": 6.176464,
            "velocity": 0.8346456692913385
          },
          {
            "duration": 0.00919116666666664,
            "durationTicks": 1,
            "midi": 43,
            "name": "G2",
            "ticks": 708,
            "time": 6.507346,
            "velocity": 0.8346456692913385
          },
          {
            "duration": 0.009191166666667527,
            "durationTicks": 1,
            "midi": 71,
            "name": "B4",
            "ticks": 720,
            "time": 6.61764,
            "velocity": 0.7244094488188977
          },
          {
            "duration": 0.009191166666665751,
            "durationTicks": 1,
            "midi": 43,
            "name": "G2",
            "ticks": 768,
            "time": 7.058816,
            "velocity": 0.8346456692913385
          },
          {
            "duration": 0.009191166666665751,
            "durationTicks": 1,
            "midi": 43,
            "name": "G2",
            "ticks": 792,
            "time": 7.279404,
            "velocity": 0.8346456692913385
          },
          {
            "duration": 0.009191166666665751,
            "durationTicks": 1,
            "midi": 71,
            "name": "B4",
            "ticks": 816,
            "time": 7.499992000000001,
            "velocity": 0.7244094488188977
          },
          {
            "duration": 0.009191166666665751,
            "durationTicks": 1,
            "midi": 43,
            "name": "G2",
            "ticks": 828,
            "time": 7.610286,
            "velocity": 0.8346456692913385
          },
          {
            "duration": 0.009191166666665751,
            "durationTicks": 1,
            "midi": 43,
            "name": "G2",
            "ticks": 864,
            "time": 7.941168,
            "velocity": 0.8346456692913385
          },
          {
            "duration": 0.009191166666665751,
            "durationTicks": 1,
            "midi": 43,
            "name": "G2",
            "ticks": 900,
            "time": 8.27205,
            "velocity": 0.8346456692913385
          },
          {
            "duration": 0.009191166666665751,
            "durationTicks": 1,
            "midi": 71,
            "name": "B4",
            "ticks": 912,
            "time": 8.382344,
            "velocity": 0.7244094488188977
          },
          {
            "duration": 0.009191166666667527,
            "durationTicks": 1,
            "midi": 43,
            "name": "G2",
            "ticks": 984,
            "time": 9.044108,
            "velocity": 0.8346456692913385
          },
          {
            "duration": 0.009191166666665751,
            "durationTicks": 1,
            "midi": 71,
            "name": "B4",
            "ticks": 1008,
            "time": 9.264696,
            "velocity": 0.7244094488188977
          },
          {
            "duration": 0.009191166666665751,
            "durationTicks": 1,
            "midi": 43,
            "name": "G2",
            "ticks": 1020,
            "time": 9.37499,
            "velocity": 0.8346456692913385
          },
          {
            "duration": 0.009191166666667527,
            "durationTicks": 1,
            "midi": 43,
            "name": "G2",
            "ticks": 1056,
            "time": 9.705872,
            "velocity": 0.8346456692913385
          },
          {
            "duration": 0.009191166666665751,
            "durationTicks": 1,
            "midi": 43,
            "name": "G2",
            "ticks": 1092,
            "time": 10.036754,
            "velocity": 0.8346456692913385
          },
          {
            "duration": 0.009191166666665751,
            "durationTicks": 1,
            "midi": 71,
            "name": "B4",
            "ticks": 1104,
            "time": 10.147048,
            "velocity": 0.7244094488188977
          },
          {
            "duration": 0.009191166666665751,
            "durationTicks": 1,
            "midi": 71,
            "name": "B4",
            "ticks": 1128,
            "time": 10.367636000000001,
            "velocity": 0.7244094488188977
          },
          {
            "duration": 0.009191166666665751,
            "durationTicks": 1,
            "midi": 43,
            "name": "G2",
            "ticks": 1152,
            "time": 10.588224,
            "velocity": 0.8346456692913385
          },
          {
            "duration": 0.009191166666667527,
            "durationTicks": 1,
            "midi": 43,
            "name": "G2",
            "ticks": 1176,
            "time": 10.808812,
            "velocity": 0.8346456692913385
          },
          {
            "duration": 0.009191166666665751,
            "durationTicks": 1,
            "midi": 71,
            "name": "B4",
            "ticks": 1200,
            "time": 11.0294,
            "velocity": 0.7244094488188977
          },
          {
            "duration": 0.009191166666665751,
            "durationTicks": 1,
            "midi": 43,
            "name": "G2",
            "ticks": 1212,
            "time": 11.139694,
            "velocity": 0.8346456692913385
          },
          {
            "duration": 0.009191166666665751,
            "durationTicks": 1,
            "midi": 43,
            "name": "G2",
            "ticks": 1248,
            "time": 11.470576000000001,
            "velocity": 0.8346456692913385
          },
          {
            "duration": 0.009191166666665751,
            "durationTicks": 1,
            "midi": 43,
            "name": "G2",
            "ticks": 1284,
            "time": 11.801458,
            "velocity": 0.8346456692913385
          },
          {
            "duration": 0.009191166666665751,
            "durationTicks": 1,
            "midi": 71,
            "name": "B4",
            "ticks": 1296,
            "time": 11.911752,
            "velocity": 0.7244094488188977
          },
          {
            "duration": 0.009191166666667527,
            "durationTicks": 1,
            "midi": 43,
            "name": "G2",
            "ticks": 1368,
            "time": 12.573516,
            "velocity": 0.8346456692913385
          },
          {
            "duration": 0.009191166666665751,
            "durationTicks": 1,
            "midi": 71,
            "name": "B4",
            "ticks": 1392,
            "time": 12.794104,
            "velocity": 0.7244094488188977
          },
          {
            "duration": 0.009191166666665751,
            "durationTicks": 1,
            "midi": 43,
            "name": "G2",
            "ticks": 1404,
            "time": 12.904398,
            "velocity": 0.8346456692913385
          },
          {
            "duration": 0.009191166666667527,
            "durationTicks": 1,
            "midi": 43,
            "name": "G2",
            "ticks": 1440,
            "time": 13.23528,
            "velocity": 0.8346456692913385
          },
          {
            "duration": 0.009191166666665751,
            "durationTicks": 1,
            "midi": 43,
            "name": "G2",
            "ticks": 1476,
            "time": 13.566162,
            "velocity": 0.8346456692913385
          },
          {
            "duration": 0.009191166666665751,
            "durationTicks": 1,
            "midi": 71,
            "name": "B4",
            "ticks": 1488,
            "time": 13.676456,
            "velocity": 0.7244094488188977
          },
          {
            "duration": 0.009191166666667527,
            "durationTicks": 1,
            "midi": 43,
            "name": "G2",
            "ticks": 1536,
            "time": 14.117632,
            "velocity": 0.8346456692913385
          },
          {
            "duration": 0.009191166666667527,
            "durationTicks": 1,
            "midi": 43,
            "name": "G2",
            "ticks": 1560,
            "time": 14.33822,
            "velocity": 0.8346456692913385
          },
          {
            "duration": 0.009191166666667527,
            "durationTicks": 1,
            "midi": 71,
            "name": "B4",
            "ticks": 1584,
            "time": 14.558808,
            "velocity": 0.7244094488188977
          },
          {
            "duration": 0.009191166666667527,
            "durationTicks": 1,
            "midi": 43,
            "name": "G2",
            "ticks": 1596,
            "time": 14.669102,
            "velocity": 0.8346456692913385
          },
          {
            "duration": 0.009191166666667527,
            "durationTicks": 1,
            "midi": 43,
            "name": "G2",
            "ticks": 1632,
            "time": 14.999984000000001,
            "velocity": 0.8346456692913385
          },
          {
            "duration": 0.009191166666667527,
            "durationTicks": 1,
            "midi": 43,
            "name": "G2",
            "ticks": 1668,
            "time": 15.330866,
            "velocity": 0.8346456692913385
          },
          {
            "duration": 0.009191166666667527,
            "durationTicks": 1,
            "midi": 71,
            "name": "B4",
            "ticks": 1680,
            "time": 15.44116,
            "velocity": 0.7244094488188977
          },
          {
            "duration": 0.009191166666667527,
            "durationTicks": 1,
            "midi": 43,
            "name": "G2",
            "ticks": 1752,
            "time": 16.102924,
            "velocity": 0.8346456692913385
          },
          {
            "duration": 0.009191166666667527,
            "durationTicks": 1,
            "midi": 71,
            "name": "B4",
            "ticks": 1776,
            "time": 16.323512,
            "velocity": 0.7244094488188977
          },
          {
            "duration": 0.009191166666667527,
            "durationTicks": 1,
            "midi": 43,
            "name": "G2",
            "ticks": 1788,
            "time": 16.433806,
            "velocity": 0.8346456692913385
          },
          {
            "duration": 0.009191166666667527,
            "durationTicks": 1,
            "midi": 43,
            "name": "G2",
            "ticks": 1824,
            "time": 16.764688,
            "velocity": 0.8346456692913385
          },
          {
            "duration": 0.009191166666667527,
            "durationTicks": 1,
            "midi": 43,
            "name": "G2",
            "ticks": 1860,
            "time": 17.095570000000002,
            "velocity": 0.8346456692913385
          },
          {
            "duration": 0.009191166666667527,
            "durationTicks": 1,
            "midi": 71,
            "name": "B4",
            "ticks": 1872,
            "time": 17.205864000000002,
            "velocity": 0.7244094488188977
          },
          {
            "duration": 0.009191166666667527,
            "durationTicks": 1,
            "midi": 71,
            "name": "B4",
            "ticks": 1896,
            "time": 17.426452,
            "velocity": 0.7244094488188977
          },
          {
            "duration": 0.009191166666667527,
            "durationTicks": 1,
            "midi": 43,
            "name": "G2",
            "ticks": 1920,
            "time": 17.64704,
            "velocity": 0.8346456692913385
          },
          {
            "duration": 0.009191166666667527,
            "durationTicks": 1,
            "midi": 43,
            "name": "G2",
            "ticks": 1944,
            "time": 17.867628,
            "velocity": 0.8346456692913385
          },
          {
            "duration": 0.009191166666667527,
            "durationTicks": 1,
            "midi": 71,
            "name": "B4",
            "ticks": 1968,
            "time": 18.088216,
            "velocity": 0.7244094488188977
          },
          {
            "duration": 0.00919116666667108,
            "durationTicks": 1,
            "midi": 43,
            "name": "G2",
            "ticks": 1980,
            "time": 18.19851,
            "velocity": 0.8346456692913385
          },
          {
            "duration": 0.009191166666667527,
            "durationTicks": 1,
            "midi": 43,
            "name": "G2",
            "ticks": 2016,
            "time": 18.529392,
            "velocity": 0.8346456692913385
          },
          {
            "duration": 0.009191166666667527,
            "durationTicks": 1,
            "midi": 43,
            "name": "G2",
            "ticks": 2052,
            "time": 18.860274,
            "velocity": 0.8346456692913385
          },
          {
            "duration": 0.009191166666667527,
            "durationTicks": 1,
            "midi": 71,
            "name": "B4",
            "ticks": 2064,
            "time": 18.970568,
            "velocity": 0.7244094488188977
          },
          {
            "duration": 0.009191166666667527,
            "durationTicks": 1,
            "midi": 43,
            "name": "G2",
            "ticks": 2136,
            "time": 19.632332,
            "velocity": 0.8346456692913385
          },
          {
            "duration": 0.009191166666667527,
            "durationTicks": 1,
            "midi": 71,
            "name": "B4",
            "ticks": 2160,
            "time": 19.85292,
            "velocity": 0.7244094488188977
          },
          {
            "duration": 0.009191166666667527,
            "durationTicks": 1,
            "midi": 43,
            "name": "G2",
            "ticks": 2172,
            "time": 19.963214,
            "velocity": 0.8346456692913385
          },
          {
            "duration": 0.009191166666667527,
            "durationTicks": 1,
            "midi": 43,
            "name": "G2",
            "ticks": 2208,
            "time": 20.294096,
            "velocity": 0.8346456692913385
          },
          {
            "duration": 0.009191166666667527,
            "durationTicks": 1,
            "midi": 43,
            "name": "G2",
            "ticks": 2244,
            "time": 20.624978000000002,
            "velocity": 0.8346456692913385
          },
          {
            "duration": 0.009191166666667527,
            "durationTicks": 1,
            "midi": 71,
            "name": "B4",
            "ticks": 2256,
            "time": 20.735272000000002,
            "velocity": 0.7244094488188977
          },
          {
            "duration": 0.009191166666667527,
            "durationTicks": 1,
            "midi": 43,
            "name": "G2",
            "ticks": 2328,
            "time": 21.397036,
            "velocity": 0.8346456692913385
          },
          {
            "duration": 0.009191166666667527,
            "durationTicks": 1,
            "midi": 71,
            "name": "B4",
            "ticks": 2352,
            "time": 21.617624,
            "velocity": 0.7244094488188977
          },
          {
            "duration": 0.00919116666667108,
            "durationTicks": 1,
            "midi": 43,
            "name": "G2",
            "ticks": 2364,
            "time": 21.727918,
            "velocity": 0.8346456692913385
          },
          {
            "duration": 0.009191166666667527,
            "durationTicks": 1,
            "midi": 43,
            "name": "G2",
            "ticks": 2400,
            "time": 22.0588,
            "velocity": 0.8346456692913385
          },
          {
            "duration": 0.009191166666667527,
            "durationTicks": 1,
            "midi": 43,
            "name": "G2",
            "ticks": 2436,
            "time": 22.389682,
            "velocity": 0.8346456692913385
          },
          {
            "duration": 0.009191166666667527,
            "durationTicks": 1,
            "midi": 71,
            "name": "B4",
            "ticks": 2448,
            "time": 22.499976,
            "velocity": 0.7244094488188977
          },
          {
            "duration": 0.009191166666667527,
            "durationTicks": 1,
            "midi": 43,
            "name": "G2",
            "ticks": 2520,
            "time": 23.16174,
            "velocity": 0.8346456692913385
          },
          {
            "duration": 0.009191166666667527,
            "durationTicks": 1,
            "midi": 71,
            "name": "B4",
            "ticks": 2544,
            "time": 23.382328,
            "velocity": 0.7244094488188977
          },
          {
            "duration": 0.009191166666667527,
            "durationTicks": 1,
            "midi": 43,
            "name": "G2",
            "ticks": 2556,
            "time": 23.492622,
            "velocity": 0.8346456692913385
          },
          {
            "duration": 0.009191166666667527,
            "durationTicks": 1,
            "midi": 43,
            "name": "G2",
            "ticks": 2592,
            "time": 23.823504,
            "velocity": 0.8346456692913385
          },
          {
            "duration": 0.009191166666667527,
            "durationTicks": 1,
            "midi": 43,
            "name": "G2",
            "ticks": 2628,
            "time": 24.154386000000002,
            "velocity": 0.8346456692913385
          },
          {
            "duration": 0.009191166666667527,
            "durationTicks": 1,
            "midi": 71,
            "name": "B4",
            "ticks": 2640,
            "time": 24.264680000000002,
            "velocity": 0.7244094488188977
          },
          {
            "duration": 0.009191166666667527,
            "durationTicks": 1,
            "midi": 71,
            "name": "B4",
            "ticks": 2676,
            "time": 24.595562,
            "velocity": 0.7244094488188977
          },
          {
            "duration": 0.009191166666667527,
            "durationTicks": 1,
            "midi": 71,
            "name": "B4",
            "ticks": 2688,
            "time": 24.705856,
            "velocity": 0.7244094488188977
          },
          {
            "duration": 0.009191166666667527,
            "durationTicks": 1,
            "midi": 71,
            "name": "B4",
            "ticks": 2700,
            "time": 24.81615,
            "velocity": 0.7244094488188977
          },
          {
            "duration": 0.009191166666667527,
            "durationTicks": 1,
            "midi": 43,
            "name": "G2",
            "ticks": 2712,
            "time": 24.926444,
            "velocity": 0.8346456692913385
          },
          {
            "duration": 0.009191166666667527,
            "durationTicks": 1,
            "midi": 71,
            "name": "B4",
            "ticks": 2724,
            "time": 25.036738,
            "velocity": 0.7244094488188977
          },
          {
            "duration": 0.009191166666667527,
            "durationTicks": 1,
            "midi": 71,
            "name": "B4",
            "ticks": 2736,
            "time": 25.147032,
            "velocity": 0.7244094488188977
          },
          {
            "duration": 0.00919116666667108,
            "durationTicks": 1,
            "midi": 43,
            "name": "G2",
            "ticks": 2748,
            "time": 25.257326,
            "velocity": 0.8346456692913385
          },
          {
            "duration": 0.00919116666667108,
            "durationTicks": 1,
            "midi": 71,
            "name": "B4",
            "ticks": 2748,
            "time": 25.257326,
            "velocity": 0.7244094488188977
          },
          {
            "duration": 0.009191166666667527,
            "durationTicks": 1,
            "midi": 43,
            "name": "G2",
            "ticks": 2784,
            "time": 25.588208,
            "velocity": 0.8346456692913385
          },
          {
            "duration": 0.009191166666667527,
            "durationTicks": 1,
            "midi": 43,
            "name": "G2",
            "ticks": 2820,
            "time": 25.91909,
            "velocity": 0.8346456692913385
          },
          {
            "duration": 0.009191166666667527,
            "durationTicks": 1,
            "midi": 71,
            "name": "B4",
            "ticks": 2832,
            "time": 26.029384,
            "velocity": 0.7244094488188977
          },
          {
            "duration": 0.009191166666667527,
            "durationTicks": 1,
            "midi": 43,
            "name": "G2",
            "ticks": 2904,
            "time": 26.691148000000002,
            "velocity": 0.8346456692913385
          },
          {
            "duration": 0.009191166666667527,
            "durationTicks": 1,
            "midi": 71,
            "name": "B4",
            "ticks": 2928,
            "time": 26.911736,
            "velocity": 0.7244094488188977
          },
          {
            "duration": 0.009191166666667527,
            "durationTicks": 1,
            "midi": 43,
            "name": "G2",
            "ticks": 2940,
            "time": 27.02203,
            "velocity": 0.8346456692913385
          },
          {
            "duration": 0.009191166666667527,
            "durationTicks": 1,
            "midi": 43,
            "name": "G2",
            "ticks": 2976,
            "time": 27.352912,
            "velocity": 0.8346456692913385
          },
          {
            "duration": 0.009191166666667527,
            "durationTicks": 1,
            "midi": 43,
            "name": "G2",
            "ticks": 3012,
            "time": 27.683794000000002,
            "velocity": 0.8346456692913385
          },
          {
            "duration": 0.009191166666667527,
            "durationTicks": 1,
            "midi": 71,
            "name": "B4",
            "ticks": 3024,
            "time": 27.794088000000002,
            "velocity": 0.7244094488188977
          },
          {
            "duration": 0.009191166666663975,
            "durationTicks": 1,
            "midi": 43,
            "name": "G2",
            "ticks": 3072,
            "time": 28.235264,
            "velocity": 0.8346456692913385
          },
          {
            "duration": 0.009191166666663975,
            "durationTicks": 1,
            "midi": 43,
            "name": "G2",
            "ticks": 3096,
            "time": 28.455852,
            "velocity": 0.8346456692913385
          },
          {
            "duration": 0.009191166666667527,
            "durationTicks": 1,
            "midi": 71,
            "name": "B4",
            "ticks": 3120,
            "time": 28.67644,
            "velocity": 0.7244094488188977
          },
          {
            "duration": 0.009191166666667527,
            "durationTicks": 1,
            "midi": 43,
            "name": "G2",
            "ticks": 3132,
            "time": 28.786734,
            "velocity": 0.8346456692913385
          },
          {
            "duration": 0.009191166666663975,
            "durationTicks": 1,
            "midi": 43,
            "name": "G2",
            "ticks": 3168,
            "time": 29.117616,
            "velocity": 0.8346456692913385
          },
          {
            "duration": 0.009191166666663975,
            "durationTicks": 1,
            "midi": 43,
            "name": "G2",
            "ticks": 3204,
            "time": 29.448498,
            "velocity": 0.8346456692913385
          },
          {
            "duration": 0.009191166666663975,
            "durationTicks": 1,
            "midi": 71,
            "name": "B4",
            "ticks": 3216,
            "time": 29.558792,
            "velocity": 0.7244094488188977
          },
          {
            "duration": 0.009191166666663975,
            "durationTicks": 1,
            "midi": 43,
            "name": "G2",
            "ticks": 3288,
            "time": 30.220556000000002,
            "velocity": 0.8346456692913385
          },
          {
            "duration": 0.009191166666663975,
            "durationTicks": 1,
            "midi": 71,
            "name": "B4",
            "ticks": 3312,
            "time": 30.441144,
            "velocity": 0.7244094488188977
          },
          {
            "duration": 0.009191166666663975,
            "durationTicks": 1,
            "midi": 43,
            "name": "G2",
            "ticks": 3324,
            "time": 30.551438,
            "velocity": 0.8346456692913385
          },
          {
            "duration": 0.009191166666663975,
            "durationTicks": 1,
            "midi": 43,
            "name": "G2",
            "ticks": 3360,
            "time": 30.88232,
            "velocity": 0.8346456692913385
          },
          {
            "duration": 0.009191166666663975,
            "durationTicks": 1,
            "midi": 43,
            "name": "G2",
            "ticks": 3396,
            "time": 31.213202000000003,
            "velocity": 0.8346456692913385
          },
          {
            "duration": 0.009191166666663975,
            "durationTicks": 1,
            "midi": 71,
            "name": "B4",
            "ticks": 3408,
            "time": 31.323496000000002,
            "velocity": 0.7244094488188977
          },
          {
            "duration": 0.009191166666663975,
            "durationTicks": 1,
            "midi": 71,
            "name": "B4",
            "ticks": 3432,
            "time": 31.544084,
            "velocity": 0.7244094488188977
          },
          {
            "duration": 0.009191166666663975,
            "durationTicks": 1,
            "midi": 43,
            "name": "G2",
            "ticks": 3456,
            "time": 31.764672,
            "velocity": 0.8346456692913385
          },
          {
            "duration": 0.009191166666663975,
            "durationTicks": 1,
            "midi": 43,
            "name": "G2",
            "ticks": 3480,
            "time": 31.98526,
            "velocity": 0.8346456692913385
          },
          {
            "duration": 0.009191166666660422,
            "durationTicks": 1,
            "midi": 71,
            "name": "B4",
            "ticks": 3504,
            "time": 32.205848,
            "velocity": 0.7244094488188977
          },
          {
            "duration": 0.009191166666667527,
            "durationTicks": 1,
            "midi": 43,
            "name": "G2",
            "ticks": 3516,
            "time": 32.316142,
            "velocity": 0.8346456692913385
          },
          {
            "duration": 0.009191166666660422,
            "durationTicks": 1,
            "midi": 43,
            "name": "G2",
            "ticks": 3552,
            "time": 32.647024,
            "velocity": 0.8346456692913385
          },
          {
            "duration": 0.009191166666660422,
            "durationTicks": 1,
            "midi": 43,
            "name": "G2",
            "ticks": 3588,
            "time": 32.977906000000004,
            "velocity": 0.8346456692913385
          },
          {
            "duration": 0.009191166666667527,
            "durationTicks": 1,
            "midi": 71,
            "name": "B4",
            "ticks": 3600,
            "time": 33.0882,
            "velocity": 0.7244094488188977
          },
          {
            "duration": 0.009191166666667527,
            "durationTicks": 1,
            "midi": 43,
            "name": "G2",
            "ticks": 3672,
            "time": 33.749964,
            "velocity": 0.8346456692913385
          },
          {
            "duration": 0.009191166666667527,
            "durationTicks": 1,
            "midi": 71,
            "name": "B4",
            "ticks": 3696,
            "time": 33.970552,
            "velocity": 0.7244094488188977
          },
          {
            "duration": 0.009191166666667527,
            "durationTicks": 1,
            "midi": 43,
            "name": "G2",
            "ticks": 3708,
            "time": 34.080846,
            "velocity": 0.8346456692913385
          },
          {
            "duration": 0.009191166666660422,
            "durationTicks": 1,
            "midi": 43,
            "name": "G2",
            "ticks": 3744,
            "time": 34.411728000000004,
            "velocity": 0.8346456692913385
          },
          {
            "duration": 0.009191166666667527,
            "durationTicks": 1,
            "midi": 43,
            "name": "G2",
            "ticks": 3780,
            "time": 34.74261,
            "velocity": 0.8346456692913385
          },
          {
            "duration": 0.009191166666660422,
            "durationTicks": 1,
            "midi": 71,
            "name": "B4",
            "ticks": 3792,
            "time": 34.852904,
            "velocity": 0.7244094488188977
          },
          {
            "duration": 0.009191166666667527,
            "durationTicks": 1,
            "midi": 43,
            "name": "G2",
            "ticks": 3840,
            "time": 35.29408,
            "velocity": 0.8346456692913385
          },
          {
            "duration": 0.009191166666667527,
            "durationTicks": 1,
            "midi": 43,
            "name": "G2",
            "ticks": 3864,
            "time": 35.514668,
            "velocity": 0.8346456692913385
          },
          {
            "duration": 0.009191166666667527,
            "durationTicks": 1,
            "midi": 71,
            "name": "B4",
            "ticks": 3888,
            "time": 35.735256,
            "velocity": 0.7244094488188977
          },
          {
            "duration": 0.009191166666660422,
            "durationTicks": 1,
            "midi": 43,
            "name": "G2",
            "ticks": 3900,
            "time": 35.84555,
            "velocity": 0.8346456692913385
          },
          {
            "duration": 0.009191166666667527,
            "durationTicks": 1,
            "midi": 43,
            "name": "G2",
            "ticks": 3936,
            "time": 36.176432,
            "velocity": 0.8346456692913385
          },
          {
            "duration": 0.009191166666667527,
            "durationTicks": 1,
            "midi": 43,
            "name": "G2",
            "ticks": 3972,
            "time": 36.507314,
            "velocity": 0.8346456692913385
          },
          {
            "duration": 0.009191166666660422,
            "durationTicks": 1,
            "midi": 71,
            "name": "B4",
            "ticks": 3984,
            "time": 36.617608000000004,
            "velocity": 0.7244094488188977
          },
          {
            "duration": 0.009191166666660422,
            "durationTicks": 1,
            "midi": 43,
            "name": "G2",
            "ticks": 4056,
            "time": 37.279372,
            "velocity": 0.8346456692913385
          },
          {
            "duration": 0.009191166666667527,
            "durationTicks": 1,
            "midi": 71,
            "name": "B4",
            "ticks": 4080,
            "time": 37.49996,
            "velocity": 0.7244094488188977
          },
          {
            "duration": 0.009191166666667527,
            "durationTicks": 1,
            "midi": 43,
            "name": "G2",
            "ticks": 4092,
            "time": 37.610254,
            "velocity": 0.8346456692913385
          },
          {
            "duration": 0.009191166666667527,
            "durationTicks": 1,
            "midi": 43,
            "name": "G2",
            "ticks": 4128,
            "time": 37.941136,
            "velocity": 0.8346456692913385
          },
          {
            "duration": 0.009191166666660422,
            "durationTicks": 1,
            "midi": 43,
            "name": "G2",
            "ticks": 4164,
            "time": 38.272018,
            "velocity": 0.8346456692913385
          },
          {
            "duration": 0.009191166666667527,
            "durationTicks": 1,
            "midi": 71,
            "name": "B4",
            "ticks": 4176,
            "time": 38.382312,
            "velocity": 0.7244094488188977
          },
          {
            "duration": 0.009191166666667527,
            "durationTicks": 1,
            "midi": 71,
            "name": "B4",
            "ticks": 4200,
            "time": 38.6029,
            "velocity": 0.7244094488188977
          },
          {
            "duration": 0.009191166666667527,
            "durationTicks": 1,
            "midi": 43,
            "name": "G2",
            "ticks": 4224,
            "time": 38.823488,
            "velocity": 0.8346456692913385
          },
          {
            "duration": 0.009191166666660422,
            "durationTicks": 1,
            "midi": 43,
            "name": "G2",
            "ticks": 4248,
            "time": 39.044076000000004,
            "velocity": 0.8346456692913385
          },
          {
            "duration": 0.009191166666660422,
            "durationTicks": 1,
            "midi": 71,
            "name": "B4",
            "ticks": 4272,
            "time": 39.264664,
            "velocity": 0.7244094488188977
          },
          {
            "duration": 0.009191166666667527,
            "durationTicks": 1,
            "midi": 43,
            "name": "G2",
            "ticks": 4284,
            "time": 39.374958,
            "velocity": 0.8346456692913385
          },
          {
            "duration": 0.009191166666660422,
            "durationTicks": 1,
            "midi": 43,
            "name": "G2",
            "ticks": 4320,
            "time": 39.70584,
            "velocity": 0.8346456692913385
          },
          {
            "duration": 0.009191166666660422,
            "durationTicks": 1,
            "midi": 43,
            "name": "G2",
            "ticks": 4356,
            "time": 40.036722000000005,
            "velocity": 0.8346456692913385
          },
          {
            "duration": 0.009191166666667527,
            "durationTicks": 1,
            "midi": 71,
            "name": "B4",
            "ticks": 4368,
            "time": 40.147016,
            "velocity": 0.7244094488188977
          },
          {
            "duration": 0.009191166666667527,
            "durationTicks": 1,
            "midi": 43,
            "name": "G2",
            "ticks": 4440,
            "time": 40.80878,
            "velocity": 0.8346456692913385
          },
          {
            "duration": 0.009191166666667527,
            "durationTicks": 1,
            "midi": 71,
            "name": "B4",
            "ticks": 4464,
            "time": 41.029368,
            "velocity": 0.7244094488188977
          },
          {
            "duration": 0.009191166666667527,
            "durationTicks": 1,
            "midi": 43,
            "name": "G2",
            "ticks": 4476,
            "time": 41.139662,
            "velocity": 0.8346456692913385
          },
          {
            "duration": 0.009191166666660422,
            "durationTicks": 1,
            "midi": 43,
            "name": "G2",
            "ticks": 4512,
            "time": 41.470544000000004,
            "velocity": 0.8346456692913385
          },
          {
            "duration": 0.009191166666667527,
            "durationTicks": 1,
            "midi": 43,
            "name": "G2",
            "ticks": 4548,
            "time": 41.801426,
            "velocity": 0.8346456692913385
          },
          {
            "duration": 0.009191166666660422,
            "durationTicks": 1,
            "midi": 71,
            "name": "B4",
            "ticks": 4560,
            "time": 41.91172,
            "velocity": 0.7244094488188977
          },
          {
            "duration": 0.009191166666667527,
            "durationTicks": 1,
            "midi": 43,
            "name": "G2",
            "ticks": 4632,
            "time": 42.573484,
            "velocity": 0.8346456692913385
          },
          {
            "duration": 0.009191166666667527,
            "durationTicks": 1,
            "midi": 71,
            "name": "B4",
            "ticks": 4656,
            "time": 42.794072,
            "velocity": 0.7244094488188977
          },
          {
            "duration": 0.009191166666660422,
            "durationTicks": 1,
            "midi": 43,
            "name": "G2",
            "ticks": 4668,
            "time": 42.904366,
            "velocity": 0.8346456692913385
          },
          {
            "duration": 0.009191166666667527,
            "durationTicks": 1,
            "midi": 43,
            "name": "G2",
            "ticks": 4704,
            "time": 43.235248,
            "velocity": 0.8346456692913385
          },
          {
            "duration": 0.009191166666667527,
            "durationTicks": 1,
            "midi": 43,
            "name": "G2",
            "ticks": 4740,
            "time": 43.56613,
            "velocity": 0.8346456692913385
          },
          {
            "duration": 0.009191166666660422,
            "durationTicks": 1,
            "midi": 71,
            "name": "B4",
            "ticks": 4752,
            "time": 43.676424000000004,
            "velocity": 0.7244094488188977
          },
          {
            "duration": 0.009191166666660422,
            "durationTicks": 1,
            "midi": 43,
            "name": "G2",
            "ticks": 4824,
            "time": 44.338188,
            "velocity": 0.8346456692913385
          },
          {
            "duration": 0.009191166666667527,
            "durationTicks": 1,
            "midi": 71,
            "name": "B4",
            "ticks": 4848,
            "time": 44.558776,
            "velocity": 0.7244094488188977
          },
          {
            "duration": 0.009191166666667527,
            "durationTicks": 1,
            "midi": 43,
            "name": "G2",
            "ticks": 4860,
            "time": 44.66907,
            "velocity": 0.8346456692913385
          },
          {
            "duration": 0.009191166666667527,
            "durationTicks": 1,
            "midi": 43,
            "name": "G2",
            "ticks": 4896,
            "time": 44.999952,
            "velocity": 0.8346456692913385
          },
          {
            "duration": 0.009191166666660422,
            "durationTicks": 1,
            "midi": 43,
            "name": "G2",
            "ticks": 4932,
            "time": 45.330834,
            "velocity": 0.8346456692913385
          },
          {
            "duration": 0.009191166666667527,
            "durationTicks": 1,
            "midi": 71,
            "name": "B4",
            "ticks": 4944,
            "time": 45.441128,
            "velocity": 0.7244094488188977
          },
          {
            "duration": 0.009191166666667527,
            "durationTicks": 1,
            "midi": 71,
            "name": "B4",
            "ticks": 5004,
            "time": 45.992598,
            "velocity": 0.7244094488188977
          },
          {
            "duration": 0.009191166666660422,
            "durationTicks": 1,
            "midi": 43,
            "name": "G2",
            "ticks": 5016,
            "time": 46.102892000000004,
            "velocity": 0.8346456692913385
          },
          {
            "duration": 0.009191166666667527,
            "durationTicks": 1,
            "midi": 71,
            "name": "B4",
            "ticks": 5028,
            "time": 46.213186,
            "velocity": 0.7244094488188977
          },
          {
            "duration": 0.009191166666660422,
            "durationTicks": 1,
            "midi": 71,
            "name": "B4",
            "ticks": 5040,
            "time": 46.32348,
            "velocity": 0.7244094488188977
          },
          {
            "duration": 0.009191166666667527,
            "durationTicks": 1,
            "midi": 43,
            "name": "G2",
            "ticks": 5052,
            "time": 46.433774,
            "velocity": 0.8346456692913385
          },
          {
            "duration": 0.009191166666660422,
            "durationTicks": 1,
            "midi": 43,
            "name": "G2",
            "ticks": 5088,
            "time": 46.764656,
            "velocity": 0.8346456692913385
          },
          {
            "duration": 0.009191166666660422,
            "durationTicks": 1,
            "midi": 43,
            "name": "G2",
            "ticks": 5124,
            "time": 47.095538000000005,
            "velocity": 0.8346456692913385
          },
          {
            "duration": 0.009191166666667527,
            "durationTicks": 1,
            "midi": 71,
            "name": "B4",
            "ticks": 5136,
            "time": 47.205832,
            "velocity": 0.7244094488188977
          },
          {
            "duration": 0.009191166666667527,
            "durationTicks": 1,
            "midi": 43,
            "name": "G2",
            "ticks": 5208,
            "time": 47.867596,
            "velocity": 0.8346456692913385
          },
          {
            "duration": 0.009191166666667527,
            "durationTicks": 1,
            "midi": 71,
            "name": "B4",
            "ticks": 5232,
            "time": 48.088184,
            "velocity": 0.7244094488188977
          },
          {
            "duration": 0.009191166666667527,
            "durationTicks": 1,
            "midi": 43,
            "name": "G2",
            "ticks": 5244,
            "time": 48.198478,
            "velocity": 0.8346456692913385
          },
          {
            "duration": 0.009191166666660422,
            "durationTicks": 1,
            "midi": 43,
            "name": "G2",
            "ticks": 5280,
            "time": 48.529360000000004,
            "velocity": 0.8346456692913385
          },
          {
            "duration": 0.009191166666667527,
            "durationTicks": 1,
            "midi": 43,
            "name": "G2",
            "ticks": 5316,
            "time": 48.860242,
            "velocity": 0.8346456692913385
          },
          {
            "duration": 0.009191166666660422,
            "durationTicks": 1,
            "midi": 71,
            "name": "B4",
            "ticks": 5328,
            "time": 48.970536,
            "velocity": 0.7244094488188977
          },
          {
            "duration": 0.009191166666667527,
            "durationTicks": 1,
            "midi": 43,
            "name": "G2",
            "ticks": 5400,
            "time": 49.6323,
            "velocity": 0.8346456692913385
          },
          {
            "duration": 0.009191166666667527,
            "durationTicks": 1,
            "midi": 71,
            "name": "B4",
            "ticks": 5424,
            "time": 49.852888,
            "velocity": 0.7244094488188977
          },
          {
            "duration": 0.009191166666660422,
            "durationTicks": 1,
            "midi": 43,
            "name": "G2",
            "ticks": 5436,
            "time": 49.963182,
            "velocity": 0.8346456692913385
          },
          {
            "duration": 0.009191166666667527,
            "durationTicks": 1,
            "midi": 43,
            "name": "G2",
            "ticks": 5472,
            "time": 50.294064,
            "velocity": 0.8346456692913385
          },
          {
            "duration": 0.009191166666667527,
            "durationTicks": 1,
            "midi": 43,
            "name": "G2",
            "ticks": 5508,
            "time": 50.624946,
            "velocity": 0.8346456692913385
          },
          {
            "duration": 0.009191166666660422,
            "durationTicks": 1,
            "midi": 71,
            "name": "B4",
            "ticks": 5520,
            "time": 50.735240000000005,
            "velocity": 0.7244094488188977
          },
          {
            "duration": 0.009191166666660422,
            "durationTicks": 1,
            "midi": 43,
            "name": "G2",
            "ticks": 5592,
            "time": 51.397004,
            "velocity": 0.8346456692913385
          },
          {
            "duration": 0.009191166666667527,
            "durationTicks": 1,
            "midi": 71,
            "name": "B4",
            "ticks": 5616,
            "time": 51.617592,
            "velocity": 0.7244094488188977
          },
          {
            "duration": 0.009191166666667527,
            "durationTicks": 1,
            "midi": 43,
            "name": "G2",
            "ticks": 5628,
            "time": 51.727886,
            "velocity": 0.8346456692913385
          },
          {
            "duration": 0.009191166666667527,
            "durationTicks": 1,
            "midi": 43,
            "name": "G2",
            "ticks": 5664,
            "time": 52.058768,
            "velocity": 0.8346456692913385
          },
          {
            "duration": 0.009191166666660422,
            "durationTicks": 1,
            "midi": 43,
            "name": "G2",
            "ticks": 5700,
            "time": 52.38965,
            "velocity": 0.8346456692913385
          },
          {
            "duration": 0.009191166666667527,
            "durationTicks": 1,
            "midi": 71,
            "name": "B4",
            "ticks": 5712,
            "time": 52.499944,
            "velocity": 0.7244094488188977
          },
          {
            "duration": 0.009191166666667527,
            "durationTicks": 1,
            "midi": 71,
            "name": "B4",
            "ticks": 5748,
            "time": 52.830826,
            "velocity": 0.7244094488188977
          },
          {
            "duration": 0.009191166666660422,
            "durationTicks": 1,
            "midi": 43,
            "name": "G2",
            "ticks": 5784,
            "time": 53.161708000000004,
            "velocity": 0.8346456692913385
          },
          {
            "duration": 0.009191166666660422,
            "durationTicks": 1,
            "midi": 71,
            "name": "B4",
            "ticks": 5808,
            "time": 53.382296000000004,
            "velocity": 0.7244094488188977
          },
          {
            "duration": 0.009191166666667527,
            "durationTicks": 1,
            "midi": 43,
            "name": "G2",
            "ticks": 5820,
            "time": 53.49259,
            "velocity": 0.8346456692913385
          },
          {
            "duration": 0.009191166666660422,
            "durationTicks": 1,
            "midi": 43,
            "name": "G2",
            "ticks": 5856,
            "time": 53.823472,
            "velocity": 0.8346456692913385
          },
          {
            "duration": 0.009191166666660422,
            "durationTicks": 1,
            "midi": 43,
            "name": "G2",
            "ticks": 5892,
            "time": 54.154354000000005,
            "velocity": 0.8346456692913385
          },
          {
            "duration": 0.009191166666667527,
            "durationTicks": 1,
            "midi": 71,
            "name": "B4",
            "ticks": 5904,
            "time": 54.264648,
            "velocity": 0.7244094488188977
          },
          {
            "duration": 0.009191166666667527,
            "durationTicks": 1,
            "midi": 43,
            "name": "G2",
            "ticks": 5976,
            "time": 54.926412,
            "velocity": 0.8346456692913385
          },
          {
            "duration": 0.009191166666667527,
            "durationTicks": 1,
            "midi": 71,
            "name": "B4",
            "ticks": 6000,
            "time": 55.147,
            "velocity": 0.7244094488188977
          },
          {
            "duration": 0.009191166666667527,
            "durationTicks": 1,
            "midi": 43,
            "name": "G2",
            "ticks": 6012,
            "time": 55.257294,
            "velocity": 0.8346456692913385
          },
          {
            "duration": 0.009191166666660422,
            "durationTicks": 1,
            "midi": 43,
            "name": "G2",
            "ticks": 6048,
            "time": 55.588176000000004,
            "velocity": 0.8346456692913385
          },
          {
            "duration": 0.009191166666667527,
            "durationTicks": 1,
            "midi": 43,
            "name": "G2",
            "ticks": 6084,
            "time": 55.919058,
            "velocity": 0.8346456692913385
          },
          {
            "duration": 0.009191166666660422,
            "durationTicks": 1,
            "midi": 71,
            "name": "B4",
            "ticks": 6096,
            "time": 56.029352,
            "velocity": 0.7244094488188977
          },
          {
            "duration": 0.009191166666674633,
            "durationTicks": 1,
            "midi": 43,
            "name": "G2",
            "ticks": 6168,
            "time": 56.691116,
            "velocity": 0.8346456692913385
          },
          {
            "duration": 0.009191166666674633,
            "durationTicks": 1,
            "midi": 71,
            "name": "B4",
            "ticks": 6192,
            "time": 56.911704,
            "velocity": 0.7244094488188977
          },
          {
            "duration": 0.009191166666667527,
            "durationTicks": 1,
            "midi": 43,
            "name": "G2",
            "ticks": 6204,
            "time": 57.021998,
            "velocity": 0.8346456692913385
          },
          {
            "duration": 0.009191166666674633,
            "durationTicks": 1,
            "midi": 43,
            "name": "G2",
            "ticks": 6240,
            "time": 57.35288,
            "velocity": 0.8346456692913385
          },
          {
            "duration": 0.009191166666667527,
            "durationTicks": 1,
            "midi": 43,
            "name": "G2",
            "ticks": 6276,
            "time": 57.683762,
            "velocity": 0.8346456692913385
          },
          {
            "duration": 0.009191166666667527,
            "durationTicks": 1,
            "midi": 71,
            "name": "B4",
            "ticks": 6288,
            "time": 57.794056000000005,
            "velocity": 0.7244094488188977
          },
          {
            "duration": 0.009191166666667527,
            "durationTicks": 1,
            "midi": 43,
            "name": "G2",
            "ticks": 6360,
            "time": 58.45582,
            "velocity": 0.8346456692913385
          },
          {
            "duration": 0.009191166666667527,
            "durationTicks": 1,
            "midi": 71,
            "name": "B4",
            "ticks": 6384,
            "time": 58.676408,
            "velocity": 0.7244094488188977
          },
          {
            "duration": 0.009191166666674633,
            "durationTicks": 1,
            "midi": 43,
            "name": "G2",
            "ticks": 6396,
            "time": 58.786702,
            "velocity": 0.8346456692913385
          },
          {
            "duration": 0.009191166666674633,
            "durationTicks": 1,
            "midi": 43,
            "name": "G2",
            "ticks": 6432,
            "time": 59.117584,
            "velocity": 0.8346456692913385
          },
          {
            "duration": 0.009191166666667527,
            "durationTicks": 1,
            "midi": 43,
            "name": "G2",
            "ticks": 6468,
            "time": 59.448466,
            "velocity": 0.8346456692913385
          },
          {
            "duration": 0.009191166666674633,
            "durationTicks": 1,
            "midi": 71,
            "name": "B4",
            "ticks": 6480,
            "time": 59.55876,
            "velocity": 0.7244094488188977
          },
          {
            "duration": 0.009191166666667527,
            "durationTicks": 1,
            "midi": 71,
            "name": "B4",
            "ticks": 6492,
            "time": 59.669054,
            "velocity": 0.7244094488188977
          },
          {
            "duration": 0.009191166666667527,
            "durationTicks": 1,
            "midi": 43,
            "name": "G2",
            "ticks": 6552,
            "time": 60.220524000000005,
            "velocity": 0.8346456692913385
          },
          {
            "duration": 0.009191166666667527,
            "durationTicks": 1,
            "midi": 71,
            "name": "B4",
            "ticks": 6576,
            "time": 60.441112000000004,
            "velocity": 0.7244094488188977
          },
          {
            "duration": 0.009191166666674633,
            "durationTicks": 1,
            "midi": 43,
            "name": "G2",
            "ticks": 6588,
            "time": 60.551406,
            "velocity": 0.8346456692913385
          },
          {
            "duration": 0.009191166666667527,
            "durationTicks": 1,
            "midi": 43,
            "name": "G2",
            "ticks": 6624,
            "time": 60.882288,
            "velocity": 0.8346456692913385
          },
          {
            "duration": 0.009191166666667527,
            "durationTicks": 1,
            "midi": 43,
            "name": "G2",
            "ticks": 6660,
            "time": 61.213170000000005,
            "velocity": 0.8346456692913385
          },
          {
            "duration": 0.009191166666674633,
            "durationTicks": 1,
            "midi": 71,
            "name": "B4",
            "ticks": 6672,
            "time": 61.323464,
            "velocity": 0.7244094488188977
          },
          {
            "duration": 0.009191166666674633,
            "durationTicks": 1,
            "midi": 43,
            "name": "G2",
            "ticks": 6744,
            "time": 61.985228,
            "velocity": 0.8346456692913385
          },
          {
            "duration": 0.009191166666674633,
            "durationTicks": 1,
            "midi": 71,
            "name": "B4",
            "ticks": 6768,
            "time": 62.205816,
            "velocity": 0.7244094488188977
          },
          {
            "duration": 0.009191166666667527,
            "durationTicks": 1,
            "midi": 43,
            "name": "G2",
            "ticks": 6780,
            "time": 62.31611,
            "velocity": 0.8346456692913385
          },
          {
            "duration": 0.009191166666674633,
            "durationTicks": 1,
            "midi": 43,
            "name": "G2",
            "ticks": 6804,
            "time": 62.536698,
            "velocity": 0.8346456692913385
          },
          {
            "duration": 0.009191166666674633,
            "durationTicks": 1,
            "midi": 43,
            "name": "G2",
            "ticks": 6852,
            "time": 62.977874,
            "velocity": 0.8346456692913385
          },
          {
            "duration": 0.009191166666667527,
            "durationTicks": 1,
            "midi": 71,
            "name": "B4",
            "ticks": 6864,
            "time": 63.088168,
            "velocity": 0.7244094488188977
          },
          {
            "duration": 0.009191166666674633,
            "durationTicks": 1,
            "midi": 43,
            "name": "G2",
            "ticks": 6936,
            "time": 63.749932,
            "velocity": 0.8346456692913385
          },
          {
            "duration": 0.009191166666674633,
            "durationTicks": 1,
            "midi": 71,
            "name": "B4",
            "ticks": 6960,
            "time": 63.97052,
            "velocity": 0.7244094488188977
          },
          {
            "duration": 0.009191166666667527,
            "durationTicks": 1,
            "midi": 43,
            "name": "G2",
            "ticks": 6972,
            "time": 64.080814,
            "velocity": 0.8346456692913385
          },
          {
            "duration": 0.009191166666667527,
            "durationTicks": 1,
            "midi": 43,
            "name": "G2",
            "ticks": 7008,
            "time": 64.411696,
            "velocity": 0.8346456692913385
          },
          {
            "duration": 0.009191166666667527,
            "durationTicks": 1,
            "midi": 43,
            "name": "G2",
            "ticks": 7044,
            "time": 64.74257800000001,
            "velocity": 0.8346456692913385
          },
          {
            "duration": 0.009191166666667527,
            "durationTicks": 1,
            "midi": 71,
            "name": "B4",
            "ticks": 7056,
            "time": 64.852872,
            "velocity": 0.7244094488188977
          },
          {
            "duration": 0.009191166666681738,
            "durationTicks": 1,
            "midi": 43,
            "name": "G2",
            "ticks": 7128,
            "time": 65.514636,
            "velocity": 0.8346456692913385
          },
          {
            "duration": 0.009191166666667527,
            "durationTicks": 1,
            "midi": 71,
            "name": "B4",
            "ticks": 7152,
            "time": 65.735224,
            "velocity": 0.7244094488188977
          },
          {
            "duration": 0.009191166666667527,
            "durationTicks": 1,
            "midi": 43,
            "name": "G2",
            "ticks": 7164,
            "time": 65.845518,
            "velocity": 0.8346456692913385
          },
          {
            "duration": 0.009191166666667527,
            "durationTicks": 1,
            "midi": 43,
            "name": "G2",
            "ticks": 7188,
            "time": 66.066106,
            "velocity": 0.8346456692913385
          },
          {
            "duration": 0.009191166666667527,
            "durationTicks": 1,
            "midi": 43,
            "name": "G2",
            "ticks": 7236,
            "time": 66.507282,
            "velocity": 0.8346456692913385
          },
          {
            "duration": 0.009191166666667527,
            "durationTicks": 1,
            "midi": 71,
            "name": "B4",
            "ticks": 7248,
            "time": 66.617576,
            "velocity": 0.7244094488188977
          },
          {
            "duration": 0.009191166666667527,
            "durationTicks": 1,
            "midi": 71,
            "name": "B4",
            "ticks": 7272,
            "time": 66.838164,
            "velocity": 0.7244094488188977
          },
          {
            "duration": 0.009191166666667527,
            "durationTicks": 1,
            "midi": 43,
            "name": "G2",
            "ticks": 7320,
            "time": 67.27934,
            "velocity": 0.8346456692913385
          },
          {
            "duration": 0.009191166666681738,
            "durationTicks": 1,
            "midi": 71,
            "name": "B4",
            "ticks": 7344,
            "time": 67.499928,
            "velocity": 0.7244094488188977
          },
          {
            "duration": 0.009191166666667527,
            "durationTicks": 1,
            "midi": 43,
            "name": "G2",
            "ticks": 7356,
            "time": 67.61022200000001,
            "velocity": 0.8346456692913385
          },
          {
            "duration": 0.009191166666681738,
            "durationTicks": 1,
            "midi": 43,
            "name": "G2",
            "ticks": 7392,
            "time": 67.941104,
            "velocity": 0.8346456692913385
          },
          {
            "duration": 0.009191166666667527,
            "durationTicks": 1,
            "midi": 43,
            "name": "G2",
            "ticks": 7428,
            "time": 68.271986,
            "velocity": 0.8346456692913385
          },
          {
            "duration": 0.009191166666667527,
            "durationTicks": 1,
            "midi": 71,
            "name": "B4",
            "ticks": 7440,
            "time": 68.38228000000001,
            "velocity": 0.7244094488188977
          },
          {
            "duration": 0.009191166666667527,
            "durationTicks": 1,
            "midi": 43,
            "name": "G2",
            "ticks": 7512,
            "time": 69.044044,
            "velocity": 0.8346456692913385
          },
          {
            "duration": 0.009191166666667527,
            "durationTicks": 1,
            "midi": 71,
            "name": "B4",
            "ticks": 7536,
            "time": 69.264632,
            "velocity": 0.7244094488188977
          },
          {
            "duration": 0.009191166666667527,
            "durationTicks": 1,
            "midi": 43,
            "name": "G2",
            "ticks": 7548,
            "time": 69.374926,
            "velocity": 0.8346456692913385
          },
          {
            "duration": 0.009191166666667527,
            "durationTicks": 1,
            "midi": 43,
            "name": "G2",
            "ticks": 7572,
            "time": 69.59551400000001,
            "velocity": 0.8346456692913385
          },
          {
            "duration": 0.009191166666667527,
            "durationTicks": 1,
            "midi": 43,
            "name": "G2",
            "ticks": 7620,
            "time": 70.03669000000001,
            "velocity": 0.8346456692913385
          },
          {
            "duration": 0.009191166666667527,
            "durationTicks": 1,
            "midi": 71,
            "name": "B4",
            "ticks": 7632,
            "time": 70.146984,
            "velocity": 0.7244094488188977
          },
          {
            "duration": 0.009191166666667527,
            "durationTicks": 1,
            "midi": 43,
            "name": "G2",
            "ticks": 7704,
            "time": 70.80874800000001,
            "velocity": 0.8346456692913385
          },
          {
            "duration": 0.009191166666667527,
            "durationTicks": 1,
            "midi": 71,
            "name": "B4",
            "ticks": 7728,
            "time": 71.029336,
            "velocity": 0.7244094488188977
          },
          {
            "duration": 0.009191166666681738,
            "durationTicks": 1,
            "midi": 43,
            "name": "G2",
            "ticks": 7740,
            "time": 71.13963,
            "velocity": 0.8346456692913385
          },
          {
            "duration": 0.009191166666667527,
            "durationTicks": 1,
            "midi": 43,
            "name": "G2",
            "ticks": 7776,
            "time": 71.470512,
            "velocity": 0.8346456692913385
          },
          {
            "duration": 0.009191166666667527,
            "durationTicks": 1,
            "midi": 43,
            "name": "G2",
            "ticks": 7812,
            "time": 71.801394,
            "velocity": 0.8346456692913385
          },
          {
            "duration": 0.009191166666681738,
            "durationTicks": 1,
            "midi": 71,
            "name": "B4",
            "ticks": 7824,
            "time": 71.911688,
            "velocity": 0.7244094488188977
          },
          {
            "duration": 0.009191166666667527,
            "durationTicks": 1,
            "midi": 43,
            "name": "G2",
            "ticks": 7896,
            "time": 72.573452,
            "velocity": 0.8346456692913385
          },
          {
            "duration": 0.009191166666681738,
            "durationTicks": 1,
            "midi": 71,
            "name": "B4",
            "ticks": 7920,
            "time": 72.79404,
            "velocity": 0.7244094488188977
          },
          {
            "duration": 0.009191166666667527,
            "durationTicks": 1,
            "midi": 43,
            "name": "G2",
            "ticks": 7932,
            "time": 72.904334,
            "velocity": 0.8346456692913385
          },
          {
            "duration": 0.009191166666681738,
            "durationTicks": 1,
            "midi": 43,
            "name": "G2",
            "ticks": 7956,
            "time": 73.124922,
            "velocity": 0.8346456692913385
          },
          {
            "duration": 0.009191166666681738,
            "durationTicks": 1,
            "midi": 43,
            "name": "G2",
            "ticks": 8004,
            "time": 73.566098,
            "velocity": 0.8346456692913385
          },
          {
            "duration": 0.009191166666667527,
            "durationTicks": 1,
            "midi": 71,
            "name": "B4",
            "ticks": 8016,
            "time": 73.676392,
            "velocity": 0.7244094488188977
          },
          {
            "duration": 0.009191166666667527,
            "durationTicks": 1,
            "midi": 71,
            "name": "B4",
            "ticks": 8028,
            "time": 73.786686,
            "velocity": 0.7244094488188977
          },
          {
            "duration": 0.009191166666681738,
            "durationTicks": 1,
            "midi": 43,
            "name": "G2",
            "ticks": 8088,
            "time": 74.338156,
            "velocity": 0.8346456692913385
          },
          {
            "duration": 0.009191166666667527,
            "durationTicks": 1,
            "midi": 71,
            "name": "B4",
            "ticks": 8112,
            "time": 74.558744,
            "velocity": 0.7244094488188977
          },
          {
            "duration": 0.009191166666667527,
            "durationTicks": 1,
            "midi": 43,
            "name": "G2",
            "ticks": 8124,
            "time": 74.669038,
            "velocity": 0.8346456692913385
          },
          {
            "duration": 0.009191166666667527,
            "durationTicks": 1,
            "midi": 43,
            "name": "G2",
            "ticks": 8160,
            "time": 74.99992,
            "velocity": 0.8346456692913385
          },
          {
            "duration": 0.009191166666667527,
            "durationTicks": 1,
            "midi": 43,
            "name": "G2",
            "ticks": 8196,
            "time": 75.330802,
            "velocity": 0.8346456692913385
          },
          {
            "duration": 0.009191166666667527,
            "durationTicks": 1,
            "midi": 71,
            "name": "B4",
            "ticks": 8208,
            "time": 75.441096,
            "velocity": 0.7244094488188977
          },
          {
            "duration": 0.009191166666667527,
            "durationTicks": 1,
            "midi": 43,
            "name": "G2",
            "ticks": 8280,
            "time": 76.10286,
            "velocity": 0.8346456692913385
          },
          {
            "duration": 0.009191166666667527,
            "durationTicks": 1,
            "midi": 71,
            "name": "B4",
            "ticks": 8304,
            "time": 76.323448,
            "velocity": 0.7244094488188977
          },
          {
            "duration": 0.009191166666681738,
            "durationTicks": 1,
            "midi": 43,
            "name": "G2",
            "ticks": 8316,
            "time": 76.433742,
            "velocity": 0.8346456692913385
          },
          {
            "duration": 0.009191166666681738,
            "durationTicks": 1,
            "midi": 43,
            "name": "G2",
            "ticks": 8352,
            "time": 76.764624,
            "velocity": 0.8346456692913385
          },
          {
            "duration": 0.009191166666667527,
            "durationTicks": 1,
            "midi": 43,
            "name": "G2",
            "ticks": 8388,
            "time": 77.095506,
            "velocity": 0.8346456692913385
          },
          {
            "duration": 0.009191166666681738,
            "durationTicks": 1,
            "midi": 71,
            "name": "B4",
            "ticks": 8400,
            "time": 77.2058,
            "velocity": 0.7244094488188977
          },
          {
            "duration": 0.009191166666681738,
            "durationTicks": 1,
            "midi": 43,
            "name": "G2",
            "ticks": 8448,
            "time": 77.646976,
            "velocity": 0.8346456692913385
          },
          {
            "duration": 0.009191166666667527,
            "durationTicks": 1,
            "midi": 43,
            "name": "G2",
            "ticks": 8472,
            "time": 77.867564,
            "velocity": 0.8346456692913385
          },
          {
            "duration": 0.009191166666667527,
            "durationTicks": 1,
            "midi": 71,
            "name": "B4",
            "ticks": 8496,
            "time": 78.08815200000001,
            "velocity": 0.7244094488188977
          },
          {
            "duration": 0.009191166666667527,
            "durationTicks": 1,
            "midi": 43,
            "name": "G2",
            "ticks": 8508,
            "time": 78.198446,
            "velocity": 0.8346456692913385
          },
          {
            "duration": 0.009191166666667527,
            "durationTicks": 1,
            "midi": 43,
            "name": "G2",
            "ticks": 8544,
            "time": 78.529328,
            "velocity": 0.8346456692913385
          },
          {
            "duration": 0.009191166666667527,
            "durationTicks": 1,
            "midi": 43,
            "name": "G2",
            "ticks": 8580,
            "time": 78.86021000000001,
            "velocity": 0.8346456692913385
          },
          {
            "duration": 0.009191166666667527,
            "durationTicks": 1,
            "midi": 71,
            "name": "B4",
            "ticks": 8592,
            "time": 78.970504,
            "velocity": 0.7244094488188977
          },
          {
            "duration": 0.009191166666681738,
            "durationTicks": 1,
            "midi": 43,
            "name": "G2",
            "ticks": 8664,
            "time": 79.632268,
            "velocity": 0.8346456692913385
          },
          {
            "duration": 0.009191166666667527,
            "durationTicks": 1,
            "midi": 71,
            "name": "B4",
            "ticks": 8688,
            "time": 79.852856,
            "velocity": 0.7244094488188977
          },
          {
            "duration": 0.009191166666667527,
            "durationTicks": 1,
            "midi": 43,
            "name": "G2",
            "ticks": 8700,
            "time": 79.96315,
            "velocity": 0.8346456692913385
          },
          {
            "duration": 0.009191166666667527,
            "durationTicks": 1,
            "midi": 43,
            "name": "G2",
            "ticks": 8736,
            "time": 80.294032,
            "velocity": 0.8346456692913385
          },
          {
            "duration": 0.009191166666667527,
            "durationTicks": 1,
            "midi": 43,
            "name": "G2",
            "ticks": 8772,
            "time": 80.624914,
            "velocity": 0.8346456692913385
          },
          {
            "duration": 0.009191166666667527,
            "durationTicks": 1,
            "midi": 71,
            "name": "B4",
            "ticks": 8784,
            "time": 80.735208,
            "velocity": 0.7244094488188977
          },
          {
            "duration": 0.009191166666667527,
            "durationTicks": 1,
            "midi": 71,
            "name": "B4",
            "ticks": 8808,
            "time": 80.955796,
            "velocity": 0.7244094488188977
          },
          {
            "duration": 0.009191166666667527,
            "durationTicks": 1,
            "midi": 43,
            "name": "G2",
            "ticks": 8832,
            "time": 81.176384,
            "velocity": 0.8346456692913385
          },
          {
            "duration": 0.009191166666667527,
            "durationTicks": 1,
            "midi": 43,
            "name": "G2",
            "ticks": 8856,
            "time": 81.396972,
            "velocity": 0.8346456692913385
          },
          {
            "duration": 0.009191166666681738,
            "durationTicks": 1,
            "midi": 71,
            "name": "B4",
            "ticks": 8880,
            "time": 81.61756,
            "velocity": 0.7244094488188977
          },
          {
            "duration": 0.009191166666667527,
            "durationTicks": 1,
            "midi": 43,
            "name": "G2",
            "ticks": 8892,
            "time": 81.72785400000001,
            "velocity": 0.8346456692913385
          }
        ]
      },
      {
        "channel": 0,
        "controlChanges": {
          "0": [
            {
              "number": 0,
              "ticks": 240,
              "time": 2.20588,
              "value": 0
            }
          ],
          "32": [
            {
              "number": 32,
              "ticks": 248,
              "time": 2.2794093333333336,
              "value": 0.015748031496062992
            }
          ]
        },
        "pitchBends": [],
        "instrument": {
          "family": "piano",
          "number": 0,
          "name": "acoustic grand piano"
        },
        "name": "h\u0000",
        "notes": [],
        "endOfTrackTicks": 8928
      },
      {
        "channel": 8,
        "controlChanges": {
          "1": [
            {
              "number": 1,
              "ticks": 296,
              "time": 2.7205853333333336,
              "value": 0
            }
          ],
          "6": [
            {
              "number": 6,
              "ticks": 382,
              "time": 3.511025666666667,
              "value": 0.6062992125984252
            },
            {
              "number": 6,
              "ticks": 383,
              "time": 3.5202168333333335,
              "value": 0.6062992125984252
            }
          ],
          "7": [
            {
              "number": 7,
              "ticks": 264,
              "time": 2.426468,
              "value": 0.8661417322834646
            },
            {
              "number": 7,
              "ticks": 8208,
              "time": 75.441096,
              "value": 0.8661417322834646
            },
            {
              "number": 7,
              "ticks": 8256,
              "time": 75.882272,
              "value": 0.8110236220472441
            },
            {
              "number": 7,
              "ticks": 8304,
              "time": 76.323448,
              "value": 0.7559055118110236
            },
            {
              "number": 7,
              "ticks": 8352,
              "time": 76.764624,
              "value": 0.7007874015748031
            },
            {
              "number": 7,
              "ticks": 8400,
              "time": 77.2058,
              "value": 0.6456692913385826
            },
            {
              "number": 7,
              "ticks": 8448,
              "time": 77.646976,
              "value": 0.5905511811023622
            },
            {
              "number": 7,
              "ticks": 8496,
              "time": 78.08815200000001,
              "value": 0.5354330708661418
            },
            {
              "number": 7,
              "ticks": 8544,
              "time": 78.529328,
              "value": 0.48031496062992124
            },
            {
              "number": 7,
              "ticks": 8592,
              "time": 78.970504,
              "value": 0.4330708661417323
            },
            {
              "number": 7,
              "ticks": 8640,
              "time": 79.41168,
              "value": 0.3779527559055118
            },
            {
              "number": 7,
              "ticks": 8688,
              "time": 79.852856,
              "value": 0.3228346456692913
            },
            {
              "number": 7,
              "ticks": 8736,
              "time": 80.294032,
              "value": 0.2677165354330709
            },
            {
              "number": 7,
              "ticks": 8784,
              "time": 80.735208,
              "value": 0.2125984251968504
            },
            {
              "number": 7,
              "ticks": 8832,
              "time": 81.176384,
              "value": 0.15748031496062992
            },
            {
              "number": 7,
              "ticks": 8880,
              "time": 81.61756,
              "value": 0.10236220472440945
            },
            {
              "number": 7,
              "ticks": 8928,
              "time": 82.058736,
              "value": 0.047244094488188976
            }
          ],
          "10": [
            {
              "number": 10,
              "ticks": 280,
              "time": 2.5735266666666665,
              "value": 0.5039370078740157
            }
          ],
          "11": [
            {
              "number": 11,
              "ticks": 272,
              "time": 2.4999973333333334,
              "value": 1
            }
          ],
          "91": [
            {
              "number": 91,
              "ticks": 304,
              "time": 2.7941146666666667,
              "value": 1
            }
          ],
          "93": [
            {
              "number": 93,
              "ticks": 312,
              "time": 2.8676440000000003,
              "value": 0
            }
          ],
          "94": [
            {
              "number": 94,
              "ticks": 320,
              "time": 2.9411733333333334,
              "value": 0
            }
          ],
          "98": [
            {
              "number": 98,
              "ticks": 382,
              "time": 3.511025666666667,
              "value": 0.3779527559055118
            },
            {
              "number": 98,
              "ticks": 383,
              "time": 3.5202168333333335,
              "value": 0.3543307086614173
            }
          ],
          "99": [
            {
              "number": 99,
              "ticks": 382,
              "time": 3.511025666666667,
              "value": 0.1889763779527559
            }
          ]
        },
        "pitchBends": [
          {
            "ticks": 288,
            "time": 2.647056,
            "value": 0
          }
        ],
        "instrument": {
          "family": "piano",
          "number": 1,
          "name": "bright acoustic piano"
        },
        "name": "",
        "notes": [
          {
            "duration": 0.009191166666667083,
            "durationTicks": 1,
            "midi": 42,
            "name": "F#2",
            "ticks": 384,
            "time": 3.529408,
            "velocity": 0.8346456692913385
          },
          {
            "duration": 0.009191166666667083,
            "durationTicks": 1,
            "midi": 42,
            "name": "F#2",
            "ticks": 392,
            "time": 3.602937333333333,
            "velocity": 0.6141732283464567
          },
          {
            "duration": 0.009191166666665751,
            "durationTicks": 1,
            "midi": 42,
            "name": "F#2",
            "ticks": 400,
            "time": 3.676466666666667,
            "velocity": 0.7244094488188977
          },
          {
            "duration": 0.00919116666666664,
            "durationTicks": 1,
            "midi": 42,
            "name": "F#2",
            "ticks": 408,
            "time": 3.7499960000000003,
            "velocity": 0.7244094488188977
          },
          {
            "duration": 0.009191166666667083,
            "durationTicks": 1,
            "midi": 42,
            "name": "F#2",
            "ticks": 420,
            "time": 3.86029,
            "velocity": 0.6141732283464567
          },
          {
            "duration": 0.009191166666667083,
            "durationTicks": 1,
            "midi": 42,
            "name": "F#2",
            "ticks": 432,
            "time": 3.970584,
            "velocity": 0.8346456692913385
          },
          {
            "duration": 0.00919116666666664,
            "durationTicks": 1,
            "midi": 42,
            "name": "F#2",
            "ticks": 444,
            "time": 4.080878,
            "velocity": 0.6141732283464567
          },
          {
            "duration": 0.009191166666667527,
            "durationTicks": 1,
            "midi": 46,
            "name": "A#2",
            "ticks": 456,
            "time": 4.191172,
            "velocity": 0.7244094488188977
          },
          {
            "duration": 0.00919116666666664,
            "durationTicks": 1,
            "midi": 42,
            "name": "F#2",
            "ticks": 480,
            "time": 4.41176,
            "velocity": 0.8346456692913385
          },
          {
            "duration": 0.00919116666666664,
            "durationTicks": 1,
            "midi": 42,
            "name": "F#2",
            "ticks": 504,
            "time": 4.632348,
            "velocity": 0.7244094488188977
          },
          {
            "duration": 0.00919116666666664,
            "durationTicks": 1,
            "midi": 42,
            "name": "F#2",
            "ticks": 516,
            "time": 4.742642,
            "velocity": 0.6141732283464567
          },
          {
            "duration": 0.009191166666667527,
            "durationTicks": 1,
            "midi": 42,
            "name": "F#2",
            "ticks": 528,
            "time": 4.852936,
            "velocity": 0.8346456692913385
          },
          {
            "duration": 0.00919116666666664,
            "durationTicks": 1,
            "midi": 42,
            "name": "F#2",
            "ticks": 540,
            "time": 4.96323,
            "velocity": 0.6141732283464567
          },
          {
            "duration": 0.009191166666667527,
            "durationTicks": 1,
            "midi": 46,
            "name": "A#2",
            "ticks": 552,
            "time": 5.073524,
            "velocity": 0.7244094488188977
          },
          {
            "duration": 0.00919116666666664,
            "durationTicks": 1,
            "midi": 46,
            "name": "A#2",
            "ticks": 576,
            "time": 5.294112,
            "velocity": 0.7244094488188977
          },
          {
            "duration": 0.009191166666667527,
            "durationTicks": 1,
            "midi": 42,
            "name": "F#2",
            "ticks": 588,
            "time": 5.404406,
            "velocity": 0.6141732283464567
          },
          {
            "duration": 0.00919116666666664,
            "durationTicks": 1,
            "midi": 42,
            "name": "F#2",
            "ticks": 600,
            "time": 5.5147,
            "velocity": 0.7244094488188977
          },
          {
            "duration": 0.00919116666666664,
            "durationTicks": 1,
            "midi": 42,
            "name": "F#2",
            "ticks": 624,
            "time": 5.735288000000001,
            "velocity": 0.8346456692913385
          },
          {
            "duration": 0.00919116666666664,
            "durationTicks": 1,
            "midi": 46,
            "name": "A#2",
            "ticks": 636,
            "time": 5.845582,
            "velocity": 0.7244094488188977
          },
          {
            "duration": 0.009191166666667527,
            "durationTicks": 1,
            "midi": 42,
            "name": "F#2",
            "ticks": 648,
            "time": 5.955876,
            "velocity": 0.7244094488188977
          },
          {
            "duration": 0.00919116666666664,
            "durationTicks": 1,
            "midi": 42,
            "name": "F#2",
            "ticks": 672,
            "time": 6.176464,
            "velocity": 0.8346456692913385
          },
          {
            "duration": 0.00919116666666664,
            "durationTicks": 1,
            "midi": 42,
            "name": "F#2",
            "ticks": 696,
            "time": 6.397052,
            "velocity": 0.7244094488188977
          },
          {
            "duration": 0.00919116666666664,
            "durationTicks": 1,
            "midi": 42,
            "name": "F#2",
            "ticks": 708,
            "time": 6.507346,
            "velocity": 0.6141732283464567
          },
          {
            "duration": 0.009191166666667527,
            "durationTicks": 1,
            "midi": 42,
            "name": "F#2",
            "ticks": 720,
            "time": 6.61764,
            "velocity": 0.8346456692913385
          },
          {
            "duration": 0.00919116666666664,
            "durationTicks": 1,
            "midi": 42,
            "name": "F#2",
            "ticks": 732,
            "time": 6.727934,
            "velocity": 0.6141732283464567
          },
          {
            "duration": 0.009191166666667527,
            "durationTicks": 1,
            "midi": 46,
            "name": "A#2",
            "ticks": 744,
            "time": 6.838228,
            "velocity": 0.7244094488188977
          },
          {
            "duration": 0.009191166666665751,
            "durationTicks": 1,
            "midi": 46,
            "name": "A#2",
            "ticks": 768,
            "time": 7.058816,
            "velocity": 0.7244094488188977
          },
          {
            "duration": 0.00919116666666664,
            "durationTicks": 1,
            "midi": 42,
            "name": "F#2",
            "ticks": 780,
            "time": 7.16911,
            "velocity": 0.6141732283464567
          },
          {
            "duration": 0.009191166666665751,
            "durationTicks": 1,
            "midi": 42,
            "name": "F#2",
            "ticks": 792,
            "time": 7.279404,
            "velocity": 0.7244094488188977
          },
          {
            "duration": 0.009191166666665751,
            "durationTicks": 1,
            "midi": 42,
            "name": "F#2",
            "ticks": 816,
            "time": 7.499992000000001,
            "velocity": 0.8346456692913385
          },
          {
            "duration": 0.009191166666665751,
            "durationTicks": 1,
            "midi": 46,
            "name": "A#2",
            "ticks": 828,
            "time": 7.610286,
            "velocity": 0.7244094488188977
          },
          {
            "duration": 0.009191166666665751,
            "durationTicks": 1,
            "midi": 42,
            "name": "F#2",
            "ticks": 864,
            "time": 7.941168,
            "velocity": 0.8346456692913385
          },
          {
            "duration": 0.009191166666665751,
            "durationTicks": 1,
            "midi": 42,
            "name": "F#2",
            "ticks": 888,
            "time": 8.161756,
            "velocity": 0.7244094488188977
          },
          {
            "duration": 0.009191166666665751,
            "durationTicks": 1,
            "midi": 42,
            "name": "F#2",
            "ticks": 900,
            "time": 8.27205,
            "velocity": 0.6141732283464567
          },
          {
            "duration": 0.009191166666665751,
            "durationTicks": 1,
            "midi": 42,
            "name": "F#2",
            "ticks": 912,
            "time": 8.382344,
            "velocity": 0.8346456692913385
          },
          {
            "duration": 0.009191166666667527,
            "durationTicks": 1,
            "midi": 42,
            "name": "F#2",
            "ticks": 924,
            "time": 8.492638,
            "velocity": 0.6141732283464567
          },
          {
            "duration": 0.009191166666665751,
            "durationTicks": 1,
            "midi": 46,
            "name": "A#2",
            "ticks": 936,
            "time": 8.602932000000001,
            "velocity": 0.7244094488188977
          },
          {
            "duration": 0.009191166666665751,
            "durationTicks": 1,
            "midi": 46,
            "name": "A#2",
            "ticks": 960,
            "time": 8.82352,
            "velocity": 0.7244094488188977
          },
          {
            "duration": 0.009191166666665751,
            "durationTicks": 1,
            "midi": 42,
            "name": "F#2",
            "ticks": 972,
            "time": 8.933814,
            "velocity": 0.6141732283464567
          },
          {
            "duration": 0.009191166666667527,
            "durationTicks": 1,
            "midi": 42,
            "name": "F#2",
            "ticks": 984,
            "time": 9.044108,
            "velocity": 0.7244094488188977
          },
          {
            "duration": 0.009191166666665751,
            "durationTicks": 1,
            "midi": 42,
            "name": "F#2",
            "ticks": 1008,
            "time": 9.264696,
            "velocity": 0.8346456692913385
          },
          {
            "duration": 0.009191166666665751,
            "durationTicks": 1,
            "midi": 46,
            "name": "A#2",
            "ticks": 1020,
            "time": 9.37499,
            "velocity": 0.7244094488188977
          },
          {
            "duration": 0.009191166666665751,
            "durationTicks": 1,
            "midi": 42,
            "name": "F#2",
            "ticks": 1032,
            "time": 9.485284,
            "velocity": 0.7244094488188977
          },
          {
            "duration": 0.009191166666667527,
            "durationTicks": 1,
            "midi": 42,
            "name": "F#2",
            "ticks": 1056,
            "time": 9.705872,
            "velocity": 0.8346456692913385
          },
          {
            "duration": 0.009191166666665751,
            "durationTicks": 1,
            "midi": 42,
            "name": "F#2",
            "ticks": 1080,
            "time": 9.92646,
            "velocity": 0.7244094488188977
          },
          {
            "duration": 0.009191166666665751,
            "durationTicks": 1,
            "midi": 42,
            "name": "F#2",
            "ticks": 1092,
            "time": 10.036754,
            "velocity": 0.6141732283464567
          },
          {
            "duration": 0.009191166666665751,
            "durationTicks": 1,
            "midi": 42,
            "name": "F#2",
            "ticks": 1104,
            "time": 10.147048,
            "velocity": 0.8346456692913385
          },
          {
            "duration": 0.009191166666667527,
            "durationTicks": 1,
            "midi": 42,
            "name": "F#2",
            "ticks": 1116,
            "time": 10.257342,
            "velocity": 0.6141732283464567
          },
          {
            "duration": 0.009191166666665751,
            "durationTicks": 1,
            "midi": 46,
            "name": "A#2",
            "ticks": 1128,
            "time": 10.367636000000001,
            "velocity": 0.7244094488188977
          },
          {
            "duration": 0.009191166666665751,
            "durationTicks": 1,
            "midi": 42,
            "name": "F#2",
            "ticks": 1152,
            "time": 10.588224,
            "velocity": 0.8346456692913385
          },
          {
            "duration": 0.009191166666667527,
            "durationTicks": 1,
            "midi": 42,
            "name": "F#2",
            "ticks": 1160,
            "time": 10.661753333333333,
            "velocity": 0.6141732283464567
          },
          {
            "duration": 0.009191166666667527,
            "durationTicks": 1,
            "midi": 42,
            "name": "F#2",
            "ticks": 1168,
            "time": 10.735282666666667,
            "velocity": 0.7244094488188977
          },
          {
            "duration": 0.009191166666667527,
            "durationTicks": 1,
            "midi": 42,
            "name": "F#2",
            "ticks": 1176,
            "time": 10.808812,
            "velocity": 0.8346456692913385
          },
          {
            "duration": 0.009191166666665751,
            "durationTicks": 1,
            "midi": 42,
            "name": "F#2",
            "ticks": 1184,
            "time": 10.882341333333335,
            "velocity": 0.6141732283464567
          },
          {
            "duration": 0.009191166666667527,
            "durationTicks": 1,
            "midi": 42,
            "name": "F#2",
            "ticks": 1192,
            "time": 10.955870666666666,
            "velocity": 0.7244094488188977
          },
          {
            "duration": 0.009191166666665751,
            "durationTicks": 1,
            "midi": 42,
            "name": "F#2",
            "ticks": 1200,
            "time": 11.0294,
            "velocity": 0.8346456692913385
          },
          {
            "duration": 0.009191166666665751,
            "durationTicks": 1,
            "midi": 42,
            "name": "F#2",
            "ticks": 1212,
            "time": 11.139694,
            "velocity": 0.6141732283464567
          },
          {
            "duration": 0.009191166666665751,
            "durationTicks": 1,
            "midi": 46,
            "name": "A#2",
            "ticks": 1224,
            "time": 11.249988,
            "velocity": 0.7244094488188977
          },
          {
            "duration": 0.009191166666665751,
            "durationTicks": 1,
            "midi": 42,
            "name": "F#2",
            "ticks": 1248,
            "time": 11.470576000000001,
            "velocity": 0.8346456692913385
          },
          {
            "duration": 0.009191166666665751,
            "durationTicks": 1,
            "midi": 42,
            "name": "F#2",
            "ticks": 1272,
            "time": 11.691164,
            "velocity": 0.7244094488188977
          },
          {
            "duration": 0.009191166666665751,
            "durationTicks": 1,
            "midi": 42,
            "name": "F#2",
            "ticks": 1284,
            "time": 11.801458,
            "velocity": 0.6141732283464567
          },
          {
            "duration": 0.009191166666665751,
            "durationTicks": 1,
            "midi": 42,
            "name": "F#2",
            "ticks": 1296,
            "time": 11.911752,
            "velocity": 0.8346456692913385
          },
          {
            "duration": 0.009191166666667527,
            "durationTicks": 1,
            "midi": 42,
            "name": "F#2",
            "ticks": 1308,
            "time": 12.022046,
            "velocity": 0.6141732283464567
          },
          {
            "duration": 0.009191166666665751,
            "durationTicks": 1,
            "midi": 46,
            "name": "A#2",
            "ticks": 1320,
            "time": 12.132340000000001,
            "velocity": 0.7244094488188977
          },
          {
            "duration": 0.009191166666665751,
            "durationTicks": 1,
            "midi": 46,
            "name": "A#2",
            "ticks": 1344,
            "time": 12.352928,
            "velocity": 0.7244094488188977
          },
          {
            "duration": 0.009191166666665751,
            "durationTicks": 1,
            "midi": 42,
            "name": "F#2",
            "ticks": 1356,
            "time": 12.463222,
            "velocity": 0.6141732283464567
          },
          {
            "duration": 0.009191166666667527,
            "durationTicks": 1,
            "midi": 42,
            "name": "F#2",
            "ticks": 1368,
            "time": 12.573516,
            "velocity": 0.7244094488188977
          },
          {
            "duration": 0.009191166666665751,
            "durationTicks": 1,
            "midi": 42,
            "name": "F#2",
            "ticks": 1392,
            "time": 12.794104,
            "velocity": 0.8346456692913385
          },
          {
            "duration": 0.009191166666665751,
            "durationTicks": 1,
            "midi": 46,
            "name": "A#2",
            "ticks": 1404,
            "time": 12.904398,
            "velocity": 0.7244094488188977
          },
          {
            "duration": 0.009191166666665751,
            "durationTicks": 1,
            "midi": 42,
            "name": "F#2",
            "ticks": 1416,
            "time": 13.014692,
            "velocity": 0.7244094488188977
          },
          {
            "duration": 0.009191166666667527,
            "durationTicks": 1,
            "midi": 42,
            "name": "F#2",
            "ticks": 1440,
            "time": 13.23528,
            "velocity": 0.8346456692913385
          },
          {
            "duration": 0.009191166666665751,
            "durationTicks": 1,
            "midi": 42,
            "name": "F#2",
            "ticks": 1464,
            "time": 13.455868,
            "velocity": 0.7244094488188977
          },
          {
            "duration": 0.009191166666665751,
            "durationTicks": 1,
            "midi": 42,
            "name": "F#2",
            "ticks": 1476,
            "time": 13.566162,
            "velocity": 0.6141732283464567
          },
          {
            "duration": 0.009191166666665751,
            "durationTicks": 1,
            "midi": 42,
            "name": "F#2",
            "ticks": 1488,
            "time": 13.676456,
            "velocity": 0.8346456692913385
          },
          {
            "duration": 0.009191166666667527,
            "durationTicks": 1,
            "midi": 42,
            "name": "F#2",
            "ticks": 1500,
            "time": 13.78675,
            "velocity": 0.6141732283464567
          },
          {
            "duration": 0.009191166666665751,
            "durationTicks": 1,
            "midi": 46,
            "name": "A#2",
            "ticks": 1512,
            "time": 13.897044000000001,
            "velocity": 0.7244094488188977
          },
          {
            "duration": 0.009191166666667527,
            "durationTicks": 1,
            "midi": 46,
            "name": "A#2",
            "ticks": 1536,
            "time": 14.117632,
            "velocity": 0.7244094488188977
          },
          {
            "duration": 0.009191166666667527,
            "durationTicks": 1,
            "midi": 42,
            "name": "F#2",
            "ticks": 1548,
            "time": 14.227926,
            "velocity": 0.6141732283464567
          },
          {
            "duration": 0.009191166666667527,
            "durationTicks": 1,
            "midi": 42,
            "name": "F#2",
            "ticks": 1560,
            "time": 14.33822,
            "velocity": 0.7244094488188977
          },
          {
            "duration": 0.009191166666667527,
            "durationTicks": 1,
            "midi": 42,
            "name": "F#2",
            "ticks": 1584,
            "time": 14.558808,
            "velocity": 0.8346456692913385
          },
          {
            "duration": 0.009191166666667527,
            "durationTicks": 1,
            "midi": 46,
            "name": "A#2",
            "ticks": 1596,
            "time": 14.669102,
            "velocity": 0.7244094488188977
          },
          {
            "duration": 0.009191166666667527,
            "durationTicks": 1,
            "midi": 42,
            "name": "F#2",
            "ticks": 1632,
            "time": 14.999984000000001,
            "velocity": 0.8346456692913385
          },
          {
            "duration": 0.009191166666667527,
            "durationTicks": 1,
            "midi": 42,
            "name": "F#2",
            "ticks": 1656,
            "time": 15.220572,
            "velocity": 0.7244094488188977
          },
          {
            "duration": 0.009191166666667527,
            "durationTicks": 1,
            "midi": 42,
            "name": "F#2",
            "ticks": 1668,
            "time": 15.330866,
            "velocity": 0.6141732283464567
          },
          {
            "duration": 0.009191166666667527,
            "durationTicks": 1,
            "midi": 42,
            "name": "F#2",
            "ticks": 1680,
            "time": 15.44116,
            "velocity": 0.8346456692913385
          },
          {
            "duration": 0.009191166666669304,
            "durationTicks": 1,
            "midi": 42,
            "name": "F#2",
            "ticks": 1692,
            "time": 15.551454,
            "velocity": 0.6141732283464567
          },
          {
            "duration": 0.009191166666667527,
            "durationTicks": 1,
            "midi": 46,
            "name": "A#2",
            "ticks": 1704,
            "time": 15.661748000000001,
            "velocity": 0.7244094488188977
          },
          {
            "duration": 0.009191166666667527,
            "durationTicks": 1,
            "midi": 46,
            "name": "A#2",
            "ticks": 1728,
            "time": 15.882336,
            "velocity": 0.7244094488188977
          },
          {
            "duration": 0.009191166666669304,
            "durationTicks": 1,
            "midi": 42,
            "name": "F#2",
            "ticks": 1740,
            "time": 15.99263,
            "velocity": 0.6141732283464567
          },
          {
            "duration": 0.009191166666667527,
            "durationTicks": 1,
            "midi": 42,
            "name": "F#2",
            "ticks": 1752,
            "time": 16.102924,
            "velocity": 0.7244094488188977
          },
          {
            "duration": 0.009191166666667527,
            "durationTicks": 1,
            "midi": 42,
            "name": "F#2",
            "ticks": 1776,
            "time": 16.323512,
            "velocity": 0.8346456692913385
          },
          {
            "duration": 0.009191166666667527,
            "durationTicks": 1,
            "midi": 46,
            "name": "A#2",
            "ticks": 1788,
            "time": 16.433806,
            "velocity": 0.7244094488188977
          },
          {
            "duration": 0.009191166666667527,
            "durationTicks": 1,
            "midi": 42,
            "name": "F#2",
            "ticks": 1800,
            "time": 16.5441,
            "velocity": 0.7244094488188977
          },
          {
            "duration": 0.009191166666667527,
            "durationTicks": 1,
            "midi": 42,
            "name": "F#2",
            "ticks": 1824,
            "time": 16.764688,
            "velocity": 0.8346456692913385
          },
          {
            "duration": 0.009191166666667527,
            "durationTicks": 1,
            "midi": 42,
            "name": "F#2",
            "ticks": 1848,
            "time": 16.985276,
            "velocity": 0.7244094488188977
          },
          {
            "duration": 0.009191166666667527,
            "durationTicks": 1,
            "midi": 42,
            "name": "F#2",
            "ticks": 1860,
            "time": 17.095570000000002,
            "velocity": 0.6141732283464567
          },
          {
            "duration": 0.009191166666667527,
            "durationTicks": 1,
            "midi": 42,
            "name": "F#2",
            "ticks": 1872,
            "time": 17.205864000000002,
            "velocity": 0.8346456692913385
          },
          {
            "duration": 0.009191166666667527,
            "durationTicks": 1,
            "midi": 42,
            "name": "F#2",
            "ticks": 1884,
            "time": 17.316158,
            "velocity": 0.6141732283464567
          },
          {
            "duration": 0.009191166666667527,
            "durationTicks": 1,
            "midi": 46,
            "name": "A#2",
            "ticks": 1896,
            "time": 17.426452,
            "velocity": 0.7244094488188977
          },
          {
            "duration": 0.009191166666667527,
            "durationTicks": 1,
            "midi": 42,
            "name": "F#2",
            "ticks": 1920,
            "time": 17.64704,
            "velocity": 0.8346456692913385
          },
          {
            "duration": 0.009191166666667527,
            "durationTicks": 1,
            "midi": 42,
            "name": "F#2",
            "ticks": 1928,
            "time": 17.720569333333334,
            "velocity": 0.6141732283464567
          },
          {
            "duration": 0.009191166666667527,
            "durationTicks": 1,
            "midi": 42,
            "name": "F#2",
            "ticks": 1936,
            "time": 17.794098666666667,
            "velocity": 0.7244094488188977
          },
          {
            "duration": 0.009191166666667527,
            "durationTicks": 1,
            "midi": 42,
            "name": "F#2",
            "ticks": 1944,
            "time": 17.867628,
            "velocity": 0.8346456692913385
          },
          {
            "duration": 0.009191166666667527,
            "durationTicks": 1,
            "midi": 42,
            "name": "F#2",
            "ticks": 1952,
            "time": 17.941157333333333,
            "velocity": 0.6141732283464567
          },
          {
            "duration": 0.009191166666663975,
            "durationTicks": 1,
            "midi": 42,
            "name": "F#2",
            "ticks": 1960,
            "time": 18.01468666666667,
            "velocity": 0.7244094488188977
          },
          {
            "duration": 0.009191166666667527,
            "durationTicks": 1,
            "midi": 42,
            "name": "F#2",
            "ticks": 1968,
            "time": 18.088216,
            "velocity": 0.8346456692913385
          },
          {
            "duration": 0.00919116666667108,
            "durationTicks": 1,
            "midi": 42,
            "name": "F#2",
            "ticks": 1980,
            "time": 18.19851,
            "velocity": 0.6141732283464567
          },
          {
            "duration": 0.009191166666667527,
            "durationTicks": 1,
            "midi": 46,
            "name": "A#2",
            "ticks": 1992,
            "time": 18.308804000000002,
            "velocity": 0.7244094488188977
          },
          {
            "duration": 0.009191166666667527,
            "durationTicks": 1,
            "midi": 42,
            "name": "F#2",
            "ticks": 2016,
            "time": 18.529392,
            "velocity": 0.8346456692913385
          },
          {
            "duration": 0.009191166666667527,
            "durationTicks": 1,
            "midi": 49,
            "name": "C#3",
            "ticks": 2016,
            "time": 18.529392,
            "velocity": 0.8346456692913385
          },
          {
            "duration": 0.009191166666667527,
            "durationTicks": 1,
            "midi": 45,
            "name": "A2",
            "ticks": 2016,
            "time": 18.529392,
            "velocity": 0.5039370078740157
          },
          {
            "duration": 0.009191166666667527,
            "durationTicks": 1,
            "midi": 48,
            "name": "C3",
            "ticks": 2028,
            "time": 18.639686,
            "velocity": 0.5039370078740157
          },
          {
            "duration": 0.009191166666667527,
            "durationTicks": 1,
            "midi": 42,
            "name": "F#2",
            "ticks": 2040,
            "time": 18.74998,
            "velocity": 0.7244094488188977
          },
          {
            "duration": 0.009191166666667527,
            "durationTicks": 1,
            "midi": 45,
            "name": "A2",
            "ticks": 2040,
            "time": 18.74998,
            "velocity": 0.5039370078740157
          },
          {
            "duration": 0.009191166666667527,
            "durationTicks": 1,
            "midi": 42,
            "name": "F#2",
            "ticks": 2052,
            "time": 18.860274,
            "velocity": 0.6141732283464567
          },
          {
            "duration": 0.009191166666667527,
            "durationTicks": 1,
            "midi": 48,
            "name": "C3",
            "ticks": 2052,
            "time": 18.860274,
            "velocity": 0.5039370078740157
          },
          {
            "duration": 0.009191166666667527,
            "durationTicks": 1,
            "midi": 42,
            "name": "F#2",
            "ticks": 2064,
            "time": 18.970568,
            "velocity": 0.8346456692913385
          },
          {
            "duration": 0.009191166666667527,
            "durationTicks": 1,
            "midi": 45,
            "name": "A2",
            "ticks": 2064,
            "time": 18.970568,
            "velocity": 0.5039370078740157
          },
          {
            "duration": 0.009191166666667527,
            "durationTicks": 1,
            "midi": 42,
            "name": "F#2",
            "ticks": 2076,
            "time": 19.080862,
            "velocity": 0.6141732283464567
          },
          {
            "duration": 0.009191166666667527,
            "durationTicks": 1,
            "midi": 46,
            "name": "A#2",
            "ticks": 2088,
            "time": 19.191156,
            "velocity": 0.7244094488188977
          },
          {
            "duration": 0.00919116666667108,
            "durationTicks": 1,
            "midi": 42,
            "name": "F#2",
            "ticks": 2112,
            "time": 19.411744,
            "velocity": 0.8346456692913385
          },
          {
            "duration": 0.009191166666667527,
            "durationTicks": 1,
            "midi": 42,
            "name": "F#2",
            "ticks": 2120,
            "time": 19.485273333333332,
            "velocity": 0.6141732283464567
          },
          {
            "duration": 0.009191166666663975,
            "durationTicks": 1,
            "midi": 42,
            "name": "F#2",
            "ticks": 2128,
            "time": 19.55880266666667,
            "velocity": 0.7244094488188977
          },
          {
            "duration": 0.009191166666667527,
            "durationTicks": 1,
            "midi": 42,
            "name": "F#2",
            "ticks": 2136,
            "time": 19.632332,
            "velocity": 0.8346456692913385
          },
          {
            "duration": 0.00919116666667108,
            "durationTicks": 1,
            "midi": 42,
            "name": "F#2",
            "ticks": 2144,
            "time": 19.70586133333333,
            "velocity": 0.6141732283464567
          },
          {
            "duration": 0.009191166666663975,
            "durationTicks": 1,
            "midi": 42,
            "name": "F#2",
            "ticks": 2152,
            "time": 19.779390666666668,
            "velocity": 0.7244094488188977
          },
          {
            "duration": 0.009191166666667527,
            "durationTicks": 1,
            "midi": 42,
            "name": "F#2",
            "ticks": 2160,
            "time": 19.85292,
            "velocity": 0.8346456692913385
          },
          {
            "duration": 0.009191166666667527,
            "durationTicks": 1,
            "midi": 42,
            "name": "F#2",
            "ticks": 2172,
            "time": 19.963214,
            "velocity": 0.6141732283464567
          },
          {
            "duration": 0.009191166666667527,
            "durationTicks": 1,
            "midi": 46,
            "name": "A#2",
            "ticks": 2184,
            "time": 20.073508,
            "velocity": 0.7244094488188977
          },
          {
            "duration": 0.009191166666667527,
            "durationTicks": 1,
            "midi": 42,
            "name": "F#2",
            "ticks": 2208,
            "time": 20.294096,
            "velocity": 0.8346456692913385
          },
          {
            "duration": 0.009191166666667527,
            "durationTicks": 1,
            "midi": 45,
            "name": "A2",
            "ticks": 2208,
            "time": 20.294096,
            "velocity": 0.5039370078740157
          },
          {
            "duration": 0.009191166666667527,
            "durationTicks": 1,
            "midi": 48,
            "name": "C3",
            "ticks": 2220,
            "time": 20.40439,
            "velocity": 0.5039370078740157
          },
          {
            "duration": 0.009191166666667527,
            "durationTicks": 1,
            "midi": 42,
            "name": "F#2",
            "ticks": 2232,
            "time": 20.514684,
            "velocity": 0.7244094488188977
          },
          {
            "duration": 0.009191166666667527,
            "durationTicks": 1,
            "midi": 45,
            "name": "A2",
            "ticks": 2232,
            "time": 20.514684,
            "velocity": 0.5039370078740157
          },
          {
            "duration": 0.009191166666667527,
            "durationTicks": 1,
            "midi": 42,
            "name": "F#2",
            "ticks": 2244,
            "time": 20.624978000000002,
            "velocity": 0.6141732283464567
          },
          {
            "duration": 0.009191166666667527,
            "durationTicks": 1,
            "midi": 48,
            "name": "C3",
            "ticks": 2244,
            "time": 20.624978000000002,
            "velocity": 0.5039370078740157
          },
          {
            "duration": 0.009191166666667527,
            "durationTicks": 1,
            "midi": 42,
            "name": "F#2",
            "ticks": 2256,
            "time": 20.735272000000002,
            "velocity": 0.8346456692913385
          },
          {
            "duration": 0.009191166666667527,
            "durationTicks": 1,
            "midi": 45,
            "name": "A2",
            "ticks": 2256,
            "time": 20.735272000000002,
            "velocity": 0.5039370078740157
          },
          {
            "duration": 0.009191166666667527,
            "durationTicks": 1,
            "midi": 42,
            "name": "F#2",
            "ticks": 2268,
            "time": 20.845566,
            "velocity": 0.6141732283464567
          },
          {
            "duration": 0.009191166666667527,
            "durationTicks": 1,
            "midi": 46,
            "name": "A#2",
            "ticks": 2280,
            "time": 20.95586,
            "velocity": 0.7244094488188977
          },
          {
            "duration": 0.009191166666667527,
            "durationTicks": 1,
            "midi": 46,
            "name": "A#2",
            "ticks": 2304,
            "time": 21.176448,
            "velocity": 0.7244094488188977
          },
          {
            "duration": 0.009191166666667527,
            "durationTicks": 1,
            "midi": 42,
            "name": "F#2",
            "ticks": 2328,
            "time": 21.397036,
            "velocity": 0.7244094488188977
          },
          {
            "duration": 0.009191166666667527,
            "durationTicks": 1,
            "midi": 46,
            "name": "A#2",
            "ticks": 2340,
            "time": 21.50733,
            "velocity": 0.7244094488188977
          },
          {
            "duration": 0.00919116666667108,
            "durationTicks": 1,
            "midi": 42,
            "name": "F#2",
            "ticks": 2364,
            "time": 21.727918,
            "velocity": 0.6141732283464567
          },
          {
            "duration": 0.009191166666667527,
            "durationTicks": 1,
            "midi": 46,
            "name": "A#2",
            "ticks": 2376,
            "time": 21.838212000000002,
            "velocity": 0.7244094488188977
          },
          {
            "duration": 0.009191166666667527,
            "durationTicks": 1,
            "midi": 42,
            "name": "F#2",
            "ticks": 2400,
            "time": 22.0588,
            "velocity": 0.8346456692913385
          },
          {
            "duration": 0.009191166666667527,
            "durationTicks": 1,
            "midi": 49,
            "name": "C#3",
            "ticks": 2400,
            "time": 22.0588,
            "velocity": 0.8346456692913385
          },
          {
            "duration": 0.009191166666667527,
            "durationTicks": 1,
            "midi": 45,
            "name": "A2",
            "ticks": 2400,
            "time": 22.0588,
            "velocity": 0.5039370078740157
          },
          {
            "duration": 0.009191166666667527,
            "durationTicks": 1,
            "midi": 48,
            "name": "C3",
            "ticks": 2412,
            "time": 22.169094,
            "velocity": 0.5039370078740157
          },
          {
            "duration": 0.009191166666667527,
            "durationTicks": 1,
            "midi": 42,
            "name": "F#2",
            "ticks": 2424,
            "time": 22.279388,
            "velocity": 0.7244094488188977
          },
          {
            "duration": 0.009191166666667527,
            "durationTicks": 1,
            "midi": 45,
            "name": "A2",
            "ticks": 2424,
            "time": 22.279388,
            "velocity": 0.5039370078740157
          },
          {
            "duration": 0.009191166666667527,
            "durationTicks": 1,
            "midi": 42,
            "name": "F#2",
            "ticks": 2436,
            "time": 22.389682,
            "velocity": 0.6141732283464567
          },
          {
            "duration": 0.009191166666667527,
            "durationTicks": 1,
            "midi": 48,
            "name": "C3",
            "ticks": 2436,
            "time": 22.389682,
            "velocity": 0.5039370078740157
          },
          {
            "duration": 0.009191166666667527,
            "durationTicks": 1,
            "midi": 42,
            "name": "F#2",
            "ticks": 2448,
            "time": 22.499976,
            "velocity": 0.8346456692913385
          },
          {
            "duration": 0.009191166666667527,
            "durationTicks": 1,
            "midi": 45,
            "name": "A2",
            "ticks": 2448,
            "time": 22.499976,
            "velocity": 0.5039370078740157
          },
          {
            "duration": 0.009191166666667527,
            "durationTicks": 1,
            "midi": 42,
            "name": "F#2",
            "ticks": 2460,
            "time": 22.61027,
            "velocity": 0.6141732283464567
          },
          {
            "duration": 0.009191166666667527,
            "durationTicks": 1,
            "midi": 46,
            "name": "A#2",
            "ticks": 2472,
            "time": 22.720564,
            "velocity": 0.7244094488188977
          },
          {
            "duration": 0.009191166666667527,
            "durationTicks": 1,
            "midi": 42,
            "name": "F#2",
            "ticks": 2496,
            "time": 22.941152000000002,
            "velocity": 0.8346456692913385
          },
          {
            "duration": 0.009191166666667527,
            "durationTicks": 1,
            "midi": 42,
            "name": "F#2",
            "ticks": 2504,
            "time": 23.014681333333332,
            "velocity": 0.6141732283464567
          },
          {
            "duration": 0.009191166666663975,
            "durationTicks": 1,
            "midi": 42,
            "name": "F#2",
            "ticks": 2512,
            "time": 23.08821066666667,
            "velocity": 0.7244094488188977
          },
          {
            "duration": 0.009191166666667527,
            "durationTicks": 1,
            "midi": 42,
            "name": "F#2",
            "ticks": 2520,
            "time": 23.16174,
            "velocity": 0.8346456692913385
          },
          {
            "duration": 0.00919116666667108,
            "durationTicks": 1,
            "midi": 42,
            "name": "F#2",
            "ticks": 2528,
            "time": 23.23526933333333,
            "velocity": 0.6141732283464567
          },
          {
            "duration": 0.009191166666663975,
            "durationTicks": 1,
            "midi": 42,
            "name": "F#2",
            "ticks": 2536,
            "time": 23.308798666666668,
            "velocity": 0.7244094488188977
          },
          {
            "duration": 0.009191166666667527,
            "durationTicks": 1,
            "midi": 42,
            "name": "F#2",
            "ticks": 2544,
            "time": 23.382328,
            "velocity": 0.8346456692913385
          },
          {
            "duration": 0.009191166666667527,
            "durationTicks": 1,
            "midi": 42,
            "name": "F#2",
            "ticks": 2556,
            "time": 23.492622,
            "velocity": 0.6141732283464567
          },
          {
            "duration": 0.009191166666667527,
            "durationTicks": 1,
            "midi": 46,
            "name": "A#2",
            "ticks": 2568,
            "time": 23.602916,
            "velocity": 0.7244094488188977
          },
          {
            "duration": 0.009191166666667527,
            "durationTicks": 1,
            "midi": 42,
            "name": "F#2",
            "ticks": 2592,
            "time": 23.823504,
            "velocity": 0.8346456692913385
          },
          {
            "duration": 0.009191166666667527,
            "durationTicks": 1,
            "midi": 45,
            "name": "A2",
            "ticks": 2592,
            "time": 23.823504,
            "velocity": 0.5039370078740157
          },
          {
            "duration": 0.009191166666667527,
            "durationTicks": 1,
            "midi": 48,
            "name": "C3",
            "ticks": 2604,
            "time": 23.933798,
            "velocity": 0.5039370078740157
          },
          {
            "duration": 0.009191166666667527,
            "durationTicks": 1,
            "midi": 42,
            "name": "F#2",
            "ticks": 2616,
            "time": 24.044092,
            "velocity": 0.7244094488188977
          },
          {
            "duration": 0.009191166666667527,
            "durationTicks": 1,
            "midi": 45,
            "name": "A2",
            "ticks": 2616,
            "time": 24.044092,
            "velocity": 0.5039370078740157
          },
          {
            "duration": 0.009191166666667527,
            "durationTicks": 1,
            "midi": 42,
            "name": "F#2",
            "ticks": 2628,
            "time": 24.154386000000002,
            "velocity": 0.6141732283464567
          },
          {
            "duration": 0.009191166666667527,
            "durationTicks": 1,
            "midi": 48,
            "name": "C3",
            "ticks": 2628,
            "time": 24.154386000000002,
            "velocity": 0.5039370078740157
          },
          {
            "duration": 0.009191166666667527,
            "durationTicks": 1,
            "midi": 42,
            "name": "F#2",
            "ticks": 2640,
            "time": 24.264680000000002,
            "velocity": 0.8346456692913385
          },
          {
            "duration": 0.009191166666667527,
            "durationTicks": 1,
            "midi": 45,
            "name": "A2",
            "ticks": 2640,
            "time": 24.264680000000002,
            "velocity": 0.5039370078740157
          },
          {
            "duration": 0.009191166666667527,
            "durationTicks": 1,
            "midi": 42,
            "name": "F#2",
            "ticks": 2652,
            "time": 24.374974,
            "velocity": 0.6141732283464567
          },
          {
            "duration": 0.009191166666667527,
            "durationTicks": 1,
            "midi": 46,
            "name": "A#2",
            "ticks": 2664,
            "time": 24.485268,
            "velocity": 0.7244094488188977
          },
          {
            "duration": 0.009191166666667527,
            "durationTicks": 1,
            "midi": 46,
            "name": "A#2",
            "ticks": 2688,
            "time": 24.705856,
            "velocity": 0.7244094488188977
          },
          {
            "duration": 0.009191166666667527,
            "durationTicks": 1,
            "midi": 42,
            "name": "F#2",
            "ticks": 2712,
            "time": 24.926444,
            "velocity": 0.7244094488188977
          },
          {
            "duration": 0.009191166666667527,
            "durationTicks": 1,
            "midi": 46,
            "name": "A#2",
            "ticks": 2724,
            "time": 25.036738,
            "velocity": 0.7244094488188977
          },
          {
            "duration": 0.00919116666667108,
            "durationTicks": 1,
            "midi": 42,
            "name": "F#2",
            "ticks": 2748,
            "time": 25.257326,
            "velocity": 0.6141732283464567
          },
          {
            "duration": 0.009191166666667527,
            "durationTicks": 1,
            "midi": 46,
            "name": "A#2",
            "ticks": 2760,
            "time": 25.367620000000002,
            "velocity": 0.7244094488188977
          },
          {
            "duration": 0.009191166666667527,
            "durationTicks": 1,
            "midi": 42,
            "name": "F#2",
            "ticks": 2784,
            "time": 25.588208,
            "velocity": 0.8346456692913385
          },
          {
            "duration": 0.009191166666667527,
            "durationTicks": 1,
            "midi": 42,
            "name": "F#2",
            "ticks": 2808,
            "time": 25.808796,
            "velocity": 0.7244094488188977
          },
          {
            "duration": 0.009191166666667527,
            "durationTicks": 1,
            "midi": 42,
            "name": "F#2",
            "ticks": 2820,
            "time": 25.91909,
            "velocity": 0.6141732283464567
          },
          {
            "duration": 0.009191166666667527,
            "durationTicks": 1,
            "midi": 42,
            "name": "F#2",
            "ticks": 2832,
            "time": 26.029384,
            "velocity": 0.8346456692913385
          },
          {
            "duration": 0.009191166666667527,
            "durationTicks": 1,
            "midi": 42,
            "name": "F#2",
            "ticks": 2844,
            "time": 26.139678,
            "velocity": 0.6141732283464567
          },
          {
            "duration": 0.009191166666667527,
            "durationTicks": 1,
            "midi": 46,
            "name": "A#2",
            "ticks": 2856,
            "time": 26.249972,
            "velocity": 0.7244094488188977
          },
          {
            "duration": 0.00919116666667108,
            "durationTicks": 1,
            "midi": 46,
            "name": "A#2",
            "ticks": 2880,
            "time": 26.47056,
            "velocity": 0.7244094488188977
          },
          {
            "duration": 0.009191166666667527,
            "durationTicks": 1,
            "midi": 42,
            "name": "F#2",
            "ticks": 2892,
            "time": 26.580854000000002,
            "velocity": 0.6141732283464567
          },
          {
            "duration": 0.009191166666667527,
            "durationTicks": 1,
            "midi": 42,
            "name": "F#2",
            "ticks": 2904,
            "time": 26.691148000000002,
            "velocity": 0.7244094488188977
          },
          {
            "duration": 0.009191166666667527,
            "durationTicks": 1,
            "midi": 42,
            "name": "F#2",
            "ticks": 2928,
            "time": 26.911736,
            "velocity": 0.8346456692913385
          },
          {
            "duration": 0.009191166666667527,
            "durationTicks": 1,
            "midi": 46,
            "name": "A#2",
            "ticks": 2940,
            "time": 27.02203,
            "velocity": 0.7244094488188977
          },
          {
            "duration": 0.009191166666667527,
            "durationTicks": 1,
            "midi": 42,
            "name": "F#2",
            "ticks": 2952,
            "time": 27.132324,
            "velocity": 0.7244094488188977
          },
          {
            "duration": 0.009191166666667527,
            "durationTicks": 1,
            "midi": 42,
            "name": "F#2",
            "ticks": 2976,
            "time": 27.352912,
            "velocity": 0.8346456692913385
          },
          {
            "duration": 0.009191166666667527,
            "durationTicks": 1,
            "midi": 42,
            "name": "F#2",
            "ticks": 3000,
            "time": 27.5735,
            "velocity": 0.7244094488188977
          },
          {
            "duration": 0.009191166666667527,
            "durationTicks": 1,
            "midi": 42,
            "name": "F#2",
            "ticks": 3012,
            "time": 27.683794000000002,
            "velocity": 0.6141732283464567
          },
          {
            "duration": 0.009191166666667527,
            "durationTicks": 1,
            "midi": 42,
            "name": "F#2",
            "ticks": 3024,
            "time": 27.794088000000002,
            "velocity": 0.8346456692913385
          },
          {
            "duration": 0.009191166666667527,
            "durationTicks": 1,
            "midi": 42,
            "name": "F#2",
            "ticks": 3036,
            "time": 27.904382000000002,
            "velocity": 0.6141732283464567
          },
          {
            "duration": 0.009191166666667527,
            "durationTicks": 1,
            "midi": 46,
            "name": "A#2",
            "ticks": 3048,
            "time": 28.014676,
            "velocity": 0.7244094488188977
          },
          {
            "duration": 0.009191166666663975,
            "durationTicks": 1,
            "midi": 46,
            "name": "A#2",
            "ticks": 3072,
            "time": 28.235264,
            "velocity": 0.7244094488188977
          },
          {
            "duration": 0.009191166666663975,
            "durationTicks": 1,
            "midi": 42,
            "name": "F#2",
            "ticks": 3084,
            "time": 28.345558,
            "velocity": 0.6141732283464567
          },
          {
            "duration": 0.009191166666663975,
            "durationTicks": 1,
            "midi": 42,
            "name": "F#2",
            "ticks": 3096,
            "time": 28.455852,
            "velocity": 0.7244094488188977
          },
          {
            "duration": 0.009191166666667527,
            "durationTicks": 1,
            "midi": 42,
            "name": "F#2",
            "ticks": 3120,
            "time": 28.67644,
            "velocity": 0.8346456692913385
          },
          {
            "duration": 0.009191166666667527,
            "durationTicks": 1,
            "midi": 46,
            "name": "A#2",
            "ticks": 3132,
            "time": 28.786734,
            "velocity": 0.7244094488188977
          },
          {
            "duration": 0.009191166666663975,
            "durationTicks": 1,
            "midi": 42,
            "name": "F#2",
            "ticks": 3168,
            "time": 29.117616,
            "velocity": 0.8346456692913385
          },
          {
            "duration": 0.009191166666663975,
            "durationTicks": 1,
            "midi": 42,
            "name": "F#2",
            "ticks": 3192,
            "time": 29.338204,
            "velocity": 0.7244094488188977
          },
          {
            "duration": 0.009191166666663975,
            "durationTicks": 1,
            "midi": 42,
            "name": "F#2",
            "ticks": 3204,
            "time": 29.448498,
            "velocity": 0.6141732283464567
          },
          {
            "duration": 0.009191166666663975,
            "durationTicks": 1,
            "midi": 42,
            "name": "F#2",
            "ticks": 3216,
            "time": 29.558792,
            "velocity": 0.8346456692913385
          },
          {
            "duration": 0.009191166666663975,
            "durationTicks": 1,
            "midi": 42,
            "name": "F#2",
            "ticks": 3228,
            "time": 29.669086,
            "velocity": 0.6141732283464567
          },
          {
            "duration": 0.009191166666663975,
            "durationTicks": 1,
            "midi": 46,
            "name": "A#2",
            "ticks": 3240,
            "time": 29.77938,
            "velocity": 0.7244094488188977
          },
          {
            "duration": 0.009191166666663975,
            "durationTicks": 1,
            "midi": 46,
            "name": "A#2",
            "ticks": 3264,
            "time": 29.999968000000003,
            "velocity": 0.7244094488188977
          },
          {
            "duration": 0.009191166666663975,
            "durationTicks": 1,
            "midi": 42,
            "name": "F#2",
            "ticks": 3276,
            "time": 30.110262000000002,
            "velocity": 0.6141732283464567
          },
          {
            "duration": 0.009191166666663975,
            "durationTicks": 1,
            "midi": 42,
            "name": "F#2",
            "ticks": 3288,
            "time": 30.220556000000002,
            "velocity": 0.7244094488188977
          },
          {
            "duration": 0.009191166666663975,
            "durationTicks": 1,
            "midi": 42,
            "name": "F#2",
            "ticks": 3312,
            "time": 30.441144,
            "velocity": 0.8346456692913385
          },
          {
            "duration": 0.009191166666663975,
            "durationTicks": 1,
            "midi": 46,
            "name": "A#2",
            "ticks": 3324,
            "time": 30.551438,
            "velocity": 0.7244094488188977
          },
          {
            "duration": 0.009191166666663975,
            "durationTicks": 1,
            "midi": 42,
            "name": "F#2",
            "ticks": 3336,
            "time": 30.661732,
            "velocity": 0.7244094488188977
          },
          {
            "duration": 0.009191166666663975,
            "durationTicks": 1,
            "midi": 42,
            "name": "F#2",
            "ticks": 3360,
            "time": 30.88232,
            "velocity": 0.8346456692913385
          },
          {
            "duration": 0.009191166666667527,
            "durationTicks": 1,
            "midi": 42,
            "name": "F#2",
            "ticks": 3384,
            "time": 31.102908,
            "velocity": 0.7244094488188977
          },
          {
            "duration": 0.009191166666663975,
            "durationTicks": 1,
            "midi": 42,
            "name": "F#2",
            "ticks": 3396,
            "time": 31.213202000000003,
            "velocity": 0.6141732283464567
          },
          {
            "duration": 0.009191166666663975,
            "durationTicks": 1,
            "midi": 42,
            "name": "F#2",
            "ticks": 3408,
            "time": 31.323496000000002,
            "velocity": 0.8346456692913385
          },
          {
            "duration": 0.009191166666663975,
            "durationTicks": 1,
            "midi": 42,
            "name": "F#2",
            "ticks": 3420,
            "time": 31.433790000000002,
            "velocity": 0.6141732283464567
          },
          {
            "duration": 0.009191166666663975,
            "durationTicks": 1,
            "midi": 46,
            "name": "A#2",
            "ticks": 3432,
            "time": 31.544084,
            "velocity": 0.7244094488188977
          },
          {
            "duration": 0.009191166666663975,
            "durationTicks": 1,
            "midi": 42,
            "name": "F#2",
            "ticks": 3456,
            "time": 31.764672,
            "velocity": 0.8346456692913385
          },
          {
            "duration": 0.009191166666663975,
            "durationTicks": 1,
            "midi": 42,
            "name": "F#2",
            "ticks": 3464,
            "time": 31.838201333333338,
            "velocity": 0.6141732283464567
          },
          {
            "duration": 0.009191166666667527,
            "durationTicks": 1,
            "midi": 42,
            "name": "F#2",
            "ticks": 3472,
            "time": 31.911730666666667,
            "velocity": 0.7244094488188977
          },
          {
            "duration": 0.009191166666663975,
            "durationTicks": 1,
            "midi": 42,
            "name": "F#2",
            "ticks": 3480,
            "time": 31.98526,
            "velocity": 0.8346456692913385
          },
          {
            "duration": 0.009191166666667527,
            "durationTicks": 1,
            "midi": 42,
            "name": "F#2",
            "ticks": 3488,
            "time": 32.05878933333334,
            "velocity": 0.6141732283464567
          },
          {
            "duration": 0.009191166666674633,
            "durationTicks": 1,
            "midi": 42,
            "name": "F#2",
            "ticks": 3496,
            "time": 32.13231866666666,
            "velocity": 0.7244094488188977
          },
          {
            "duration": 0.009191166666660422,
            "durationTicks": 1,
            "midi": 42,
            "name": "F#2",
            "ticks": 3504,
            "time": 32.205848,
            "velocity": 0.8346456692913385
          },
          {
            "duration": 0.009191166666667527,
            "durationTicks": 1,
            "midi": 42,
            "name": "F#2",
            "ticks": 3516,
            "time": 32.316142,
            "velocity": 0.6141732283464567
          },
          {
            "duration": 0.009191166666660422,
            "durationTicks": 1,
            "midi": 46,
            "name": "A#2",
            "ticks": 3528,
            "time": 32.426436,
            "velocity": 0.7244094488188977
          },
          {
            "duration": 0.009191166666660422,
            "durationTicks": 1,
            "midi": 42,
            "name": "F#2",
            "ticks": 3552,
            "time": 32.647024,
            "velocity": 0.8346456692913385
          },
          {
            "duration": 0.009191166666667527,
            "durationTicks": 1,
            "midi": 42,
            "name": "F#2",
            "ticks": 3576,
            "time": 32.867612,
            "velocity": 0.7244094488188977
          },
          {
            "duration": 0.009191166666660422,
            "durationTicks": 1,
            "midi": 42,
            "name": "F#2",
            "ticks": 3588,
            "time": 32.977906000000004,
            "velocity": 0.6141732283464567
          },
          {
            "duration": 0.009191166666667527,
            "durationTicks": 1,
            "midi": 42,
            "name": "F#2",
            "ticks": 3600,
            "time": 33.0882,
            "velocity": 0.8346456692913385
          },
          {
            "duration": 0.009191166666660422,
            "durationTicks": 1,
            "midi": 42,
            "name": "F#2",
            "ticks": 3612,
            "time": 33.198494000000004,
            "velocity": 0.6141732283464567
          },
          {
            "duration": 0.009191166666667527,
            "durationTicks": 1,
            "midi": 46,
            "name": "A#2",
            "ticks": 3624,
            "time": 33.308788,
            "velocity": 0.7244094488188977
          },
          {
            "duration": 0.009191166666667527,
            "durationTicks": 1,
            "midi": 46,
            "name": "A#2",
            "ticks": 3648,
            "time": 33.529376,
            "velocity": 0.7244094488188977
          },
          {
            "duration": 0.009191166666660422,
            "durationTicks": 1,
            "midi": 42,
            "name": "F#2",
            "ticks": 3660,
            "time": 33.63967,
            "velocity": 0.6141732283464567
          },
          {
            "duration": 0.009191166666667527,
            "durationTicks": 1,
            "midi": 42,
            "name": "F#2",
            "ticks": 3672,
            "time": 33.749964,
            "velocity": 0.7244094488188977
          },
          {
            "duration": 0.009191166666667527,
            "durationTicks": 1,
            "midi": 42,
            "name": "F#2",
            "ticks": 3696,
            "time": 33.970552,
            "velocity": 0.8346456692913385
          },
          {
            "duration": 0.009191166666667527,
            "durationTicks": 1,
            "midi": 46,
            "name": "A#2",
            "ticks": 3708,
            "time": 34.080846,
            "velocity": 0.7244094488188977
          },
          {
            "duration": 0.009191166666660422,
            "durationTicks": 1,
            "midi": 42,
            "name": "F#2",
            "ticks": 3720,
            "time": 34.191140000000004,
            "velocity": 0.7244094488188977
          },
          {
            "duration": 0.009191166666660422,
            "durationTicks": 1,
            "midi": 42,
            "name": "F#2",
            "ticks": 3744,
            "time": 34.411728000000004,
            "velocity": 0.8346456692913385
          },
          {
            "duration": 0.009191166666660422,
            "durationTicks": 1,
            "midi": 42,
            "name": "F#2",
            "ticks": 3768,
            "time": 34.632316,
            "velocity": 0.7244094488188977
          },
          {
            "duration": 0.009191166666667527,
            "durationTicks": 1,
            "midi": 42,
            "name": "F#2",
            "ticks": 3780,
            "time": 34.74261,
            "velocity": 0.6141732283464567
          },
          {
            "duration": 0.009191166666660422,
            "durationTicks": 1,
            "midi": 42,
            "name": "F#2",
            "ticks": 3792,
            "time": 34.852904,
            "velocity": 0.8346456692913385
          },
          {
            "duration": 0.009191166666667527,
            "durationTicks": 1,
            "midi": 42,
            "name": "F#2",
            "ticks": 3804,
            "time": 34.963198,
            "velocity": 0.6141732283464567
          },
          {
            "duration": 0.009191166666660422,
            "durationTicks": 1,
            "midi": 46,
            "name": "A#2",
            "ticks": 3816,
            "time": 35.073492,
            "velocity": 0.7244094488188977
          },
          {
            "duration": 0.009191166666667527,
            "durationTicks": 1,
            "midi": 46,
            "name": "A#2",
            "ticks": 3840,
            "time": 35.29408,
            "velocity": 0.7244094488188977
          },
          {
            "duration": 0.009191166666660422,
            "durationTicks": 1,
            "midi": 42,
            "name": "F#2",
            "ticks": 3852,
            "time": 35.404374000000004,
            "velocity": 0.6141732283464567
          },
          {
            "duration": 0.009191166666667527,
            "durationTicks": 1,
            "midi": 42,
            "name": "F#2",
            "ticks": 3864,
            "time": 35.514668,
            "velocity": 0.7244094488188977
          },
          {
            "duration": 0.009191166666667527,
            "durationTicks": 1,
            "midi": 42,
            "name": "F#2",
            "ticks": 3888,
            "time": 35.735256,
            "velocity": 0.8346456692913385
          },
          {
            "duration": 0.009191166666660422,
            "durationTicks": 1,
            "midi": 46,
            "name": "A#2",
            "ticks": 3900,
            "time": 35.84555,
            "velocity": 0.7244094488188977
          },
          {
            "duration": 0.009191166666667527,
            "durationTicks": 1,
            "midi": 42,
            "name": "F#2",
            "ticks": 3936,
            "time": 36.176432,
            "velocity": 0.8346456692913385
          },
          {
            "duration": 0.009191166666667527,
            "durationTicks": 1,
            "midi": 42,
            "name": "F#2",
            "ticks": 3960,
            "time": 36.39702,
            "velocity": 0.7244094488188977
          },
          {
            "duration": 0.009191166666667527,
            "durationTicks": 1,
            "midi": 42,
            "name": "F#2",
            "ticks": 3972,
            "time": 36.507314,
            "velocity": 0.6141732283464567
          },
          {
            "duration": 0.009191166666660422,
            "durationTicks": 1,
            "midi": 42,
            "name": "F#2",
            "ticks": 3984,
            "time": 36.617608000000004,
            "velocity": 0.8346456692913385
          },
          {
            "duration": 0.009191166666667527,
            "durationTicks": 1,
            "midi": 42,
            "name": "F#2",
            "ticks": 3996,
            "time": 36.727902,
            "velocity": 0.6141732283464567
          },
          {
            "duration": 0.009191166666660422,
            "durationTicks": 1,
            "midi": 46,
            "name": "A#2",
            "ticks": 4008,
            "time": 36.838196,
            "velocity": 0.7244094488188977
          },
          {
            "duration": 0.009191166666660422,
            "durationTicks": 1,
            "midi": 46,
            "name": "A#2",
            "ticks": 4032,
            "time": 37.058784,
            "velocity": 0.7244094488188977
          },
          {
            "duration": 0.009191166666667527,
            "durationTicks": 1,
            "midi": 42,
            "name": "F#2",
            "ticks": 4044,
            "time": 37.169078,
            "velocity": 0.6141732283464567
          },
          {
            "duration": 0.009191166666660422,
            "durationTicks": 1,
            "midi": 42,
            "name": "F#2",
            "ticks": 4056,
            "time": 37.279372,
            "velocity": 0.7244094488188977
          },
          {
            "duration": 0.009191166666667527,
            "durationTicks": 1,
            "midi": 42,
            "name": "F#2",
            "ticks": 4080,
            "time": 37.49996,
            "velocity": 0.8346456692913385
          },
          {
            "duration": 0.009191166666667527,
            "durationTicks": 1,
            "midi": 46,
            "name": "A#2",
            "ticks": 4092,
            "time": 37.610254,
            "velocity": 0.7244094488188977
          },
          {
            "duration": 0.009191166666667527,
            "durationTicks": 1,
            "midi": 42,
            "name": "F#2",
            "ticks": 4104,
            "time": 37.720548,
            "velocity": 0.7244094488188977
          },
          {
            "duration": 0.009191166666667527,
            "durationTicks": 1,
            "midi": 42,
            "name": "F#2",
            "ticks": 4128,
            "time": 37.941136,
            "velocity": 0.8346456692913385
          },
          {
            "duration": 0.009191166666667527,
            "durationTicks": 1,
            "midi": 42,
            "name": "F#2",
            "ticks": 4152,
            "time": 38.161724,
            "velocity": 0.7244094488188977
          },
          {
            "duration": 0.009191166666660422,
            "durationTicks": 1,
            "midi": 42,
            "name": "F#2",
            "ticks": 4164,
            "time": 38.272018,
            "velocity": 0.6141732283464567
          },
          {
            "duration": 0.009191166666667527,
            "durationTicks": 1,
            "midi": 42,
            "name": "F#2",
            "ticks": 4176,
            "time": 38.382312,
            "velocity": 0.8346456692913385
          },
          {
            "duration": 0.009191166666660422,
            "durationTicks": 1,
            "midi": 42,
            "name": "F#2",
            "ticks": 4188,
            "time": 38.492606,
            "velocity": 0.6141732283464567
          },
          {
            "duration": 0.009191166666667527,
            "durationTicks": 1,
            "midi": 46,
            "name": "A#2",
            "ticks": 4200,
            "time": 38.6029,
            "velocity": 0.7244094488188977
          },
          {
            "duration": 0.009191166666667527,
            "durationTicks": 1,
            "midi": 42,
            "name": "F#2",
            "ticks": 4224,
            "time": 38.823488,
            "velocity": 0.8346456692913385
          },
          {
            "duration": 0.009191166666660422,
            "durationTicks": 1,
            "midi": 42,
            "name": "F#2",
            "ticks": 4232,
            "time": 38.89701733333334,
            "velocity": 0.6141732283464567
          },
          {
            "duration": 0.009191166666674633,
            "durationTicks": 1,
            "midi": 42,
            "name": "F#2",
            "ticks": 4240,
            "time": 38.970546666666664,
            "velocity": 0.7244094488188977
          },
          {
            "duration": 0.009191166666660422,
            "durationTicks": 1,
            "midi": 42,
            "name": "F#2",
            "ticks": 4248,
            "time": 39.044076000000004,
            "velocity": 0.8346456692913385
          },
          {
            "duration": 0.009191166666667527,
            "durationTicks": 1,
            "midi": 42,
            "name": "F#2",
            "ticks": 4256,
            "time": 39.11760533333334,
            "velocity": 0.6141732283464567
          },
          {
            "duration": 0.009191166666674633,
            "durationTicks": 1,
            "midi": 42,
            "name": "F#2",
            "ticks": 4264,
            "time": 39.19113466666666,
            "velocity": 0.7244094488188977
          },
          {
            "duration": 0.009191166666660422,
            "durationTicks": 1,
            "midi": 42,
            "name": "F#2",
            "ticks": 4272,
            "time": 39.264664,
            "velocity": 0.8346456692913385
          },
          {
            "duration": 0.009191166666667527,
            "durationTicks": 1,
            "midi": 42,
            "name": "F#2",
            "ticks": 4284,
            "time": 39.374958,
            "velocity": 0.6141732283464567
          },
          {
            "duration": 0.009191166666660422,
            "durationTicks": 1,
            "midi": 46,
            "name": "A#2",
            "ticks": 4296,
            "time": 39.485252,
            "velocity": 0.7244094488188977
          },
          {
            "duration": 0.009191166666660422,
            "durationTicks": 1,
            "midi": 42,
            "name": "F#2",
            "ticks": 4320,
            "time": 39.70584,
            "velocity": 0.8346456692913385
          },
          {
            "duration": 0.009191166666660422,
            "durationTicks": 1,
            "midi": 49,
            "name": "C#3",
            "ticks": 4320,
            "time": 39.70584,
            "velocity": 0.8346456692913385
          },
          {
            "duration": 0.009191166666660422,
            "durationTicks": 1,
            "midi": 45,
            "name": "A2",
            "ticks": 4320,
            "time": 39.70584,
            "velocity": 0.5039370078740157
          },
          {
            "duration": 0.009191166666667527,
            "durationTicks": 1,
            "midi": 48,
            "name": "C3",
            "ticks": 4332,
            "time": 39.816134,
            "velocity": 0.5039370078740157
          },
          {
            "duration": 0.009191166666667527,
            "durationTicks": 1,
            "midi": 42,
            "name": "F#2",
            "ticks": 4344,
            "time": 39.926428,
            "velocity": 0.7244094488188977
          },
          {
            "duration": 0.009191166666667527,
            "durationTicks": 1,
            "midi": 45,
            "name": "A2",
            "ticks": 4344,
            "time": 39.926428,
            "velocity": 0.5039370078740157
          },
          {
            "duration": 0.009191166666660422,
            "durationTicks": 1,
            "midi": 42,
            "name": "F#2",
            "ticks": 4356,
            "time": 40.036722000000005,
            "velocity": 0.6141732283464567
          },
          {
            "duration": 0.009191166666660422,
            "durationTicks": 1,
            "midi": 48,
            "name": "C3",
            "ticks": 4356,
            "time": 40.036722000000005,
            "velocity": 0.5039370078740157
          },
          {
            "duration": 0.009191166666667527,
            "durationTicks": 1,
            "midi": 42,
            "name": "F#2",
            "ticks": 4368,
            "time": 40.147016,
            "velocity": 0.8346456692913385
          },
          {
            "duration": 0.009191166666667527,
            "durationTicks": 1,
            "midi": 45,
            "name": "A2",
            "ticks": 4368,
            "time": 40.147016,
            "velocity": 0.5039370078740157
          },
          {
            "duration": 0.009191166666660422,
            "durationTicks": 1,
            "midi": 42,
            "name": "F#2",
            "ticks": 4380,
            "time": 40.257310000000004,
            "velocity": 0.6141732283464567
          },
          {
            "duration": 0.009191166666667527,
            "durationTicks": 1,
            "midi": 46,
            "name": "A#2",
            "ticks": 4392,
            "time": 40.367604,
            "velocity": 0.7244094488188977
          },
          {
            "duration": 0.009191166666667527,
            "durationTicks": 1,
            "midi": 42,
            "name": "F#2",
            "ticks": 4416,
            "time": 40.588192,
            "velocity": 0.8346456692913385
          },
          {
            "duration": 0.009191166666660422,
            "durationTicks": 1,
            "midi": 42,
            "name": "F#2",
            "ticks": 4424,
            "time": 40.66172133333334,
            "velocity": 0.6141732283464567
          },
          {
            "duration": 0.009191166666667527,
            "durationTicks": 1,
            "midi": 42,
            "name": "F#2",
            "ticks": 4432,
            "time": 40.735250666666666,
            "velocity": 0.7244094488188977
          },
          {
            "duration": 0.009191166666667527,
            "durationTicks": 1,
            "midi": 42,
            "name": "F#2",
            "ticks": 4440,
            "time": 40.80878,
            "velocity": 0.8346456692913385
          },
          {
            "duration": 0.009191166666660422,
            "durationTicks": 1,
            "midi": 42,
            "name": "F#2",
            "ticks": 4448,
            "time": 40.88230933333334,
            "velocity": 0.6141732283464567
          },
          {
            "duration": 0.009191166666674633,
            "durationTicks": 1,
            "midi": 42,
            "name": "F#2",
            "ticks": 4456,
            "time": 40.955838666666665,
            "velocity": 0.7244094488188977
          },
          {
            "duration": 0.009191166666667527,
            "durationTicks": 1,
            "midi": 42,
            "name": "F#2",
            "ticks": 4464,
            "time": 41.029368,
            "velocity": 0.8346456692913385
          },
          {
            "duration": 0.009191166666667527,
            "durationTicks": 1,
            "midi": 42,
            "name": "F#2",
            "ticks": 4476,
            "time": 41.139662,
            "velocity": 0.6141732283464567
          },
          {
            "duration": 0.009191166666660422,
            "durationTicks": 1,
            "midi": 46,
            "name": "A#2",
            "ticks": 4488,
            "time": 41.249956000000005,
            "velocity": 0.7244094488188977
          },
          {
            "duration": 0.009191166666660422,
            "durationTicks": 1,
            "midi": 42,
            "name": "F#2",
            "ticks": 4512,
            "time": 41.470544000000004,
            "velocity": 0.8346456692913385
          },
          {
            "duration": 0.009191166666660422,
            "durationTicks": 1,
            "midi": 45,
            "name": "A2",
            "ticks": 4512,
            "time": 41.470544000000004,
            "velocity": 0.5039370078740157
          },
          {
            "duration": 0.009191166666667527,
            "durationTicks": 1,
            "midi": 48,
            "name": "C3",
            "ticks": 4524,
            "time": 41.580838,
            "velocity": 0.5039370078740157
          },
          {
            "duration": 0.009191166666660422,
            "durationTicks": 1,
            "midi": 42,
            "name": "F#2",
            "ticks": 4536,
            "time": 41.691132,
            "velocity": 0.7244094488188977
          },
          {
            "duration": 0.009191166666660422,
            "durationTicks": 1,
            "midi": 45,
            "name": "A2",
            "ticks": 4536,
            "time": 41.691132,
            "velocity": 0.5039370078740157
          },
          {
            "duration": 0.009191166666667527,
            "durationTicks": 1,
            "midi": 42,
            "name": "F#2",
            "ticks": 4548,
            "time": 41.801426,
            "velocity": 0.6141732283464567
          },
          {
            "duration": 0.009191166666667527,
            "durationTicks": 1,
            "midi": 48,
            "name": "C3",
            "ticks": 4548,
            "time": 41.801426,
            "velocity": 0.5039370078740157
          },
          {
            "duration": 0.009191166666660422,
            "durationTicks": 1,
            "midi": 42,
            "name": "F#2",
            "ticks": 4560,
            "time": 41.91172,
            "velocity": 0.8346456692913385
          },
          {
            "duration": 0.009191166666660422,
            "durationTicks": 1,
            "midi": 45,
            "name": "A2",
            "ticks": 4560,
            "time": 41.91172,
            "velocity": 0.5039370078740157
          },
          {
            "duration": 0.009191166666667527,
            "durationTicks": 1,
            "midi": 42,
            "name": "F#2",
            "ticks": 4572,
            "time": 42.022014,
            "velocity": 0.6141732283464567
          },
          {
            "duration": 0.009191166666660422,
            "durationTicks": 1,
            "midi": 46,
            "name": "A#2",
            "ticks": 4584,
            "time": 42.132308,
            "velocity": 0.7244094488188977
          },
          {
            "duration": 0.009191166666667527,
            "durationTicks": 1,
            "midi": 46,
            "name": "A#2",
            "ticks": 4608,
            "time": 42.352896,
            "velocity": 0.7244094488188977
          },
          {
            "duration": 0.009191166666667527,
            "durationTicks": 1,
            "midi": 42,
            "name": "F#2",
            "ticks": 4632,
            "time": 42.573484,
            "velocity": 0.7244094488188977
          },
          {
            "duration": 0.009191166666660422,
            "durationTicks": 1,
            "midi": 46,
            "name": "A#2",
            "ticks": 4644,
            "time": 42.683778000000004,
            "velocity": 0.7244094488188977
          },
          {
            "duration": 0.009191166666660422,
            "durationTicks": 1,
            "midi": 42,
            "name": "F#2",
            "ticks": 4668,
            "time": 42.904366,
            "velocity": 0.6141732283464567
          },
          {
            "duration": 0.009191166666667527,
            "durationTicks": 1,
            "midi": 46,
            "name": "A#2",
            "ticks": 4680,
            "time": 43.01466,
            "velocity": 0.7244094488188977
          },
          {
            "duration": 0.009191166666667527,
            "durationTicks": 1,
            "midi": 42,
            "name": "F#2",
            "ticks": 4704,
            "time": 43.235248,
            "velocity": 0.8346456692913385
          },
          {
            "duration": 0.009191166666667527,
            "durationTicks": 1,
            "midi": 49,
            "name": "C#3",
            "ticks": 4704,
            "time": 43.235248,
            "velocity": 0.8346456692913385
          },
          {
            "duration": 0.009191166666667527,
            "durationTicks": 1,
            "midi": 45,
            "name": "A2",
            "ticks": 4704,
            "time": 43.235248,
            "velocity": 0.5039370078740157
          },
          {
            "duration": 0.009191166666667527,
            "durationTicks": 1,
            "midi": 48,
            "name": "C3",
            "ticks": 4716,
            "time": 43.345542,
            "velocity": 0.5039370078740157
          },
          {
            "duration": 0.009191166666667527,
            "durationTicks": 1,
            "midi": 42,
            "name": "F#2",
            "ticks": 4728,
            "time": 43.455836,
            "velocity": 0.7244094488188977
          },
          {
            "duration": 0.009191166666667527,
            "durationTicks": 1,
            "midi": 45,
            "name": "A2",
            "ticks": 4728,
            "time": 43.455836,
            "velocity": 0.5039370078740157
          },
          {
            "duration": 0.009191166666667527,
            "durationTicks": 1,
            "midi": 42,
            "name": "F#2",
            "ticks": 4740,
            "time": 43.56613,
            "velocity": 0.6141732283464567
          },
          {
            "duration": 0.009191166666667527,
            "durationTicks": 1,
            "midi": 48,
            "name": "C3",
            "ticks": 4740,
            "time": 43.56613,
            "velocity": 0.5039370078740157
          },
          {
            "duration": 0.009191166666660422,
            "durationTicks": 1,
            "midi": 42,
            "name": "F#2",
            "ticks": 4752,
            "time": 43.676424000000004,
            "velocity": 0.8346456692913385
          },
          {
            "duration": 0.009191166666660422,
            "durationTicks": 1,
            "midi": 45,
            "name": "A2",
            "ticks": 4752,
            "time": 43.676424000000004,
            "velocity": 0.5039370078740157
          },
          {
            "duration": 0.009191166666667527,
            "durationTicks": 1,
            "midi": 42,
            "name": "F#2",
            "ticks": 4764,
            "time": 43.786718,
            "velocity": 0.6141732283464567
          },
          {
            "duration": 0.009191166666660422,
            "durationTicks": 1,
            "midi": 46,
            "name": "A#2",
            "ticks": 4776,
            "time": 43.897012000000004,
            "velocity": 0.7244094488188977
          },
          {
            "duration": 0.009191166666660422,
            "durationTicks": 1,
            "midi": 42,
            "name": "F#2",
            "ticks": 4800,
            "time": 44.1176,
            "velocity": 0.8346456692913385
          },
          {
            "duration": 0.009191166666667527,
            "durationTicks": 1,
            "midi": 42,
            "name": "F#2",
            "ticks": 4808,
            "time": 44.191129333333336,
            "velocity": 0.6141732283464567
          },
          {
            "duration": 0.009191166666667527,
            "durationTicks": 1,
            "midi": 42,
            "name": "F#2",
            "ticks": 4816,
            "time": 44.26465866666667,
            "velocity": 0.7244094488188977
          },
          {
            "duration": 0.009191166666660422,
            "durationTicks": 1,
            "midi": 42,
            "name": "F#2",
            "ticks": 4824,
            "time": 44.338188,
            "velocity": 0.8346456692913385
          },
          {
            "duration": 0.009191166666667527,
            "durationTicks": 1,
            "midi": 42,
            "name": "F#2",
            "ticks": 4832,
            "time": 44.411717333333335,
            "velocity": 0.6141732283464567
          },
          {
            "duration": 0.009191166666667527,
            "durationTicks": 1,
            "midi": 42,
            "name": "F#2",
            "ticks": 4840,
            "time": 44.48524666666667,
            "velocity": 0.7244094488188977
          },
          {
            "duration": 0.009191166666667527,
            "durationTicks": 1,
            "midi": 42,
            "name": "F#2",
            "ticks": 4848,
            "time": 44.558776,
            "velocity": 0.8346456692913385
          },
          {
            "duration": 0.009191166666667527,
            "durationTicks": 1,
            "midi": 42,
            "name": "F#2",
            "ticks": 4860,
            "time": 44.66907,
            "velocity": 0.6141732283464567
          },
          {
            "duration": 0.009191166666667527,
            "durationTicks": 1,
            "midi": 46,
            "name": "A#2",
            "ticks": 4872,
            "time": 44.779364,
            "velocity": 0.7244094488188977
          },
          {
            "duration": 0.009191166666667527,
            "durationTicks": 1,
            "midi": 42,
            "name": "F#2",
            "ticks": 4896,
            "time": 44.999952,
            "velocity": 0.8346456692913385
          },
          {
            "duration": 0.009191166666667527,
            "durationTicks": 1,
            "midi": 45,
            "name": "A2",
            "ticks": 4896,
            "time": 44.999952,
            "velocity": 0.5039370078740157
          },
          {
            "duration": 0.009191166666660422,
            "durationTicks": 1,
            "midi": 48,
            "name": "C3",
            "ticks": 4908,
            "time": 45.110246000000004,
            "velocity": 0.5039370078740157
          },
          {
            "duration": 0.009191166666667527,
            "durationTicks": 1,
            "midi": 42,
            "name": "F#2",
            "ticks": 4920,
            "time": 45.22054,
            "velocity": 0.7244094488188977
          },
          {
            "duration": 0.009191166666667527,
            "durationTicks": 1,
            "midi": 45,
            "name": "A2",
            "ticks": 4920,
            "time": 45.22054,
            "velocity": 0.5039370078740157
          },
          {
            "duration": 0.009191166666660422,
            "durationTicks": 1,
            "midi": 42,
            "name": "F#2",
            "ticks": 4932,
            "time": 45.330834,
            "velocity": 0.6141732283464567
          },
          {
            "duration": 0.009191166666660422,
            "durationTicks": 1,
            "midi": 48,
            "name": "C3",
            "ticks": 4932,
            "time": 45.330834,
            "velocity": 0.5039370078740157
          },
          {
            "duration": 0.009191166666667527,
            "durationTicks": 1,
            "midi": 42,
            "name": "F#2",
            "ticks": 4944,
            "time": 45.441128,
            "velocity": 0.8346456692913385
          },
          {
            "duration": 0.009191166666667527,
            "durationTicks": 1,
            "midi": 45,
            "name": "A2",
            "ticks": 4944,
            "time": 45.441128,
            "velocity": 0.5039370078740157
          },
          {
            "duration": 0.009191166666660422,
            "durationTicks": 1,
            "midi": 42,
            "name": "F#2",
            "ticks": 4956,
            "time": 45.551422,
            "velocity": 0.6141732283464567
          },
          {
            "duration": 0.009191166666667527,
            "durationTicks": 1,
            "midi": 46,
            "name": "A#2",
            "ticks": 4968,
            "time": 45.661716,
            "velocity": 0.7244094488188977
          },
          {
            "duration": 0.009191166666660422,
            "durationTicks": 1,
            "midi": 42,
            "name": "F#2",
            "ticks": 4992,
            "time": 45.882304000000005,
            "velocity": 0.8346456692913385
          },
          {
            "duration": 0.009191166666667527,
            "durationTicks": 1,
            "midi": 42,
            "name": "F#2",
            "ticks": 5004,
            "time": 45.992598,
            "velocity": 0.6141732283464567
          },
          {
            "duration": 0.009191166666660422,
            "durationTicks": 1,
            "midi": 46,
            "name": "A#2",
            "ticks": 5016,
            "time": 46.102892000000004,
            "velocity": 0.7244094488188977
          },
          {
            "duration": 0.009191166666660422,
            "durationTicks": 1,
            "midi": 42,
            "name": "F#2",
            "ticks": 5040,
            "time": 46.32348,
            "velocity": 0.8346456692913385
          },
          {
            "duration": 0.009191166666660422,
            "durationTicks": 1,
            "midi": 46,
            "name": "A#2",
            "ticks": 5088,
            "time": 46.764656,
            "velocity": 0.7244094488188977
          },
          {
            "duration": 0.009191166666667527,
            "durationTicks": 1,
            "midi": 42,
            "name": "F#2",
            "ticks": 5112,
            "time": 46.985244,
            "velocity": 0.7244094488188977
          },
          {
            "duration": 0.009191166666660422,
            "durationTicks": 1,
            "midi": 42,
            "name": "F#2",
            "ticks": 5124,
            "time": 47.095538000000005,
            "velocity": 0.6141732283464567
          },
          {
            "duration": 0.009191166666667527,
            "durationTicks": 1,
            "midi": 42,
            "name": "F#2",
            "ticks": 5160,
            "time": 47.42642,
            "velocity": 0.7244094488188977
          },
          {
            "duration": 0.009191166666660422,
            "durationTicks": 1,
            "midi": 42,
            "name": "F#2",
            "ticks": 5172,
            "time": 47.536714,
            "velocity": 0.6141732283464567
          },
          {
            "duration": 0.009191166666667527,
            "durationTicks": 1,
            "midi": 42,
            "name": "F#2",
            "ticks": 5184,
            "time": 47.647008,
            "velocity": 0.8346456692913385
          },
          {
            "duration": 0.009191166666660422,
            "durationTicks": 1,
            "midi": 42,
            "name": "F#2",
            "ticks": 5196,
            "time": 47.757302,
            "velocity": 0.6141732283464567
          },
          {
            "duration": 0.009191166666667527,
            "durationTicks": 1,
            "midi": 46,
            "name": "A#2",
            "ticks": 5208,
            "time": 47.867596,
            "velocity": 0.7244094488188977
          },
          {
            "duration": 0.009191166666667527,
            "durationTicks": 1,
            "midi": 42,
            "name": "F#2",
            "ticks": 5232,
            "time": 48.088184,
            "velocity": 0.8346456692913385
          },
          {
            "duration": 0.009191166666660422,
            "durationTicks": 1,
            "midi": 42,
            "name": "F#2",
            "ticks": 5256,
            "time": 48.308772000000005,
            "velocity": 0.7244094488188977
          },
          {
            "duration": 0.009191166666667527,
            "durationTicks": 1,
            "midi": 46,
            "name": "A#2",
            "ticks": 5268,
            "time": 48.419066,
            "velocity": 0.7244094488188977
          },
          {
            "duration": 0.009191166666660422,
            "durationTicks": 1,
            "midi": 42,
            "name": "F#2",
            "ticks": 5304,
            "time": 48.749948,
            "velocity": 0.7244094488188977
          },
          {
            "duration": 0.009191166666667527,
            "durationTicks": 1,
            "midi": 42,
            "name": "F#2",
            "ticks": 5316,
            "time": 48.860242,
            "velocity": 0.6141732283464567
          },
          {
            "duration": 0.009191166666660422,
            "durationTicks": 1,
            "midi": 42,
            "name": "F#2",
            "ticks": 5328,
            "time": 48.970536,
            "velocity": 0.8346456692913385
          },
          {
            "duration": 0.009191166666667527,
            "durationTicks": 1,
            "midi": 42,
            "name": "F#2",
            "ticks": 5340,
            "time": 49.08083,
            "velocity": 0.6141732283464567
          },
          {
            "duration": 0.009191166666660422,
            "durationTicks": 1,
            "midi": 42,
            "name": "F#2",
            "ticks": 5352,
            "time": 49.191124,
            "velocity": 0.7244094488188977
          },
          {
            "duration": 0.009191166666667527,
            "durationTicks": 1,
            "midi": 42,
            "name": "F#2",
            "ticks": 5360,
            "time": 49.264653333333335,
            "velocity": 0.6141732283464567
          },
          {
            "duration": 0.009191166666667527,
            "durationTicks": 1,
            "midi": 42,
            "name": "F#2",
            "ticks": 5368,
            "time": 49.33818266666667,
            "velocity": 0.6141732283464567
          },
          {
            "duration": 0.009191166666667527,
            "durationTicks": 1,
            "midi": 42,
            "name": "F#2",
            "ticks": 5376,
            "time": 49.411712,
            "velocity": 0.8346456692913385
          },
          {
            "duration": 0.009191166666660422,
            "durationTicks": 1,
            "midi": 46,
            "name": "A#2",
            "ticks": 5388,
            "time": 49.522006000000005,
            "velocity": 0.7244094488188977
          },
          {
            "duration": 0.009191166666667527,
            "durationTicks": 1,
            "midi": 42,
            "name": "F#2",
            "ticks": 5424,
            "time": 49.852888,
            "velocity": 0.8346456692913385
          },
          {
            "duration": 0.009191166666667527,
            "durationTicks": 1,
            "midi": 42,
            "name": "F#2",
            "ticks": 5448,
            "time": 50.073476,
            "velocity": 0.7244094488188977
          },
          {
            "duration": 0.009191166666660422,
            "durationTicks": 1,
            "midi": 42,
            "name": "F#2",
            "ticks": 5456,
            "time": 50.14700533333334,
            "velocity": 0.6141732283464567
          },
          {
            "duration": 0.009191166666674633,
            "durationTicks": 1,
            "midi": 42,
            "name": "F#2",
            "ticks": 5464,
            "time": 50.220534666666666,
            "velocity": 0.6141732283464567
          },
          {
            "duration": 0.009191166666667527,
            "durationTicks": 1,
            "midi": 46,
            "name": "A#2",
            "ticks": 5472,
            "time": 50.294064,
            "velocity": 0.7244094488188977
          },
          {
            "duration": 0.009191166666667527,
            "durationTicks": 1,
            "midi": 42,
            "name": "F#2",
            "ticks": 5496,
            "time": 50.514652,
            "velocity": 0.7244094488188977
          },
          {
            "duration": 0.009191166666667527,
            "durationTicks": 1,
            "midi": 42,
            "name": "F#2",
            "ticks": 5508,
            "time": 50.624946,
            "velocity": 0.6141732283464567
          },
          {
            "duration": 0.009191166666660422,
            "durationTicks": 1,
            "midi": 42,
            "name": "F#2",
            "ticks": 5544,
            "time": 50.955828000000004,
            "velocity": 0.7244094488188977
          },
          {
            "duration": 0.009191166666667527,
            "durationTicks": 1,
            "midi": 42,
            "name": "F#2",
            "ticks": 5556,
            "time": 51.066122,
            "velocity": 0.6141732283464567
          },
          {
            "duration": 0.009191166666660422,
            "durationTicks": 1,
            "midi": 42,
            "name": "F#2",
            "ticks": 5568,
            "time": 51.176416,
            "velocity": 0.8346456692913385
          },
          {
            "duration": 0.009191166666667527,
            "durationTicks": 1,
            "midi": 42,
            "name": "F#2",
            "ticks": 5580,
            "time": 51.28671,
            "velocity": 0.6141732283464567
          },
          {
            "duration": 0.009191166666660422,
            "durationTicks": 1,
            "midi": 46,
            "name": "A#2",
            "ticks": 5592,
            "time": 51.397004,
            "velocity": 0.7244094488188977
          },
          {
            "duration": 0.009191166666667527,
            "durationTicks": 1,
            "midi": 42,
            "name": "F#2",
            "ticks": 5616,
            "time": 51.617592,
            "velocity": 0.8346456692913385
          },
          {
            "duration": 0.009191166666667527,
            "durationTicks": 1,
            "midi": 42,
            "name": "F#2",
            "ticks": 5640,
            "time": 51.83818,
            "velocity": 0.7244094488188977
          },
          {
            "duration": 0.009191166666660422,
            "durationTicks": 1,
            "midi": 46,
            "name": "A#2",
            "ticks": 5652,
            "time": 51.948474000000004,
            "velocity": 0.7244094488188977
          },
          {
            "duration": 0.009191166666667527,
            "durationTicks": 1,
            "midi": 42,
            "name": "F#2",
            "ticks": 5688,
            "time": 52.279356,
            "velocity": 0.7244094488188977
          },
          {
            "duration": 0.009191166666660422,
            "durationTicks": 1,
            "midi": 42,
            "name": "F#2",
            "ticks": 5700,
            "time": 52.38965,
            "velocity": 0.6141732283464567
          },
          {
            "duration": 0.009191166666667527,
            "durationTicks": 1,
            "midi": 42,
            "name": "F#2",
            "ticks": 5712,
            "time": 52.499944,
            "velocity": 0.8346456692913385
          },
          {
            "duration": 0.009191166666660422,
            "durationTicks": 1,
            "midi": 42,
            "name": "F#2",
            "ticks": 5724,
            "time": 52.610238,
            "velocity": 0.6141732283464567
          },
          {
            "duration": 0.009191166666667527,
            "durationTicks": 1,
            "midi": 42,
            "name": "F#2",
            "ticks": 5736,
            "time": 52.720532,
            "velocity": 0.7244094488188977
          },
          {
            "duration": 0.009191166666660422,
            "durationTicks": 1,
            "midi": 42,
            "name": "F#2",
            "ticks": 5744,
            "time": 52.79406133333334,
            "velocity": 0.6141732283464567
          },
          {
            "duration": 0.009191166666674633,
            "durationTicks": 1,
            "midi": 42,
            "name": "F#2",
            "ticks": 5752,
            "time": 52.867590666666665,
            "velocity": 0.6141732283464567
          },
          {
            "duration": 0.009191166666667527,
            "durationTicks": 1,
            "midi": 42,
            "name": "F#2",
            "ticks": 5760,
            "time": 52.94112,
            "velocity": 0.8346456692913385
          },
          {
            "duration": 0.009191166666667527,
            "durationTicks": 1,
            "midi": 46,
            "name": "A#2",
            "ticks": 5772,
            "time": 53.051414,
            "velocity": 0.7244094488188977
          },
          {
            "duration": 0.009191166666660422,
            "durationTicks": 1,
            "midi": 42,
            "name": "F#2",
            "ticks": 5808,
            "time": 53.382296000000004,
            "velocity": 0.8346456692913385
          },
          {
            "duration": 0.009191166666660422,
            "durationTicks": 1,
            "midi": 42,
            "name": "F#2",
            "ticks": 5832,
            "time": 53.602884,
            "velocity": 0.7244094488188977
          },
          {
            "duration": 0.009191166666667527,
            "durationTicks": 1,
            "midi": 42,
            "name": "F#2",
            "ticks": 5840,
            "time": 53.676413333333336,
            "velocity": 0.6141732283464567
          },
          {
            "duration": 0.009191166666667527,
            "durationTicks": 1,
            "midi": 42,
            "name": "F#2",
            "ticks": 5848,
            "time": 53.74994266666667,
            "velocity": 0.6141732283464567
          },
          {
            "duration": 0.009191166666660422,
            "durationTicks": 1,
            "midi": 46,
            "name": "A#2",
            "ticks": 5856,
            "time": 53.823472,
            "velocity": 0.7244094488188977
          },
          {
            "duration": 0.009191166666667527,
            "durationTicks": 1,
            "midi": 42,
            "name": "F#2",
            "ticks": 5880,
            "time": 54.04406,
            "velocity": 0.7244094488188977
          },
          {
            "duration": 0.009191166666660422,
            "durationTicks": 1,
            "midi": 42,
            "name": "F#2",
            "ticks": 5892,
            "time": 54.154354000000005,
            "velocity": 0.6141732283464567
          },
          {
            "duration": 0.009191166666667527,
            "durationTicks": 1,
            "midi": 42,
            "name": "F#2",
            "ticks": 5928,
            "time": 54.485236,
            "velocity": 0.7244094488188977
          },
          {
            "duration": 0.009191166666660422,
            "durationTicks": 1,
            "midi": 42,
            "name": "F#2",
            "ticks": 5940,
            "time": 54.595530000000004,
            "velocity": 0.6141732283464567
          },
          {
            "duration": 0.009191166666667527,
            "durationTicks": 1,
            "midi": 42,
            "name": "F#2",
            "ticks": 5952,
            "time": 54.705824,
            "velocity": 0.8346456692913385
          },
          {
            "duration": 0.009191166666660422,
            "durationTicks": 1,
            "midi": 42,
            "name": "F#2",
            "ticks": 5964,
            "time": 54.816118,
            "velocity": 0.6141732283464567
          },
          {
            "duration": 0.009191166666667527,
            "durationTicks": 1,
            "midi": 46,
            "name": "A#2",
            "ticks": 5976,
            "time": 54.926412,
            "velocity": 0.7244094488188977
          },
          {
            "duration": 0.009191166666667527,
            "durationTicks": 1,
            "midi": 42,
            "name": "F#2",
            "ticks": 6000,
            "time": 55.147,
            "velocity": 0.8346456692913385
          },
          {
            "duration": 0.009191166666660422,
            "durationTicks": 1,
            "midi": 42,
            "name": "F#2",
            "ticks": 6024,
            "time": 55.367588000000005,
            "velocity": 0.7244094488188977
          },
          {
            "duration": 0.009191166666667527,
            "durationTicks": 1,
            "midi": 46,
            "name": "A#2",
            "ticks": 6036,
            "time": 55.477882,
            "velocity": 0.7244094488188977
          },
          {
            "duration": 0.009191166666660422,
            "durationTicks": 1,
            "midi": 42,
            "name": "F#2",
            "ticks": 6072,
            "time": 55.808764000000004,
            "velocity": 0.7244094488188977
          },
          {
            "duration": 0.009191166666667527,
            "durationTicks": 1,
            "midi": 42,
            "name": "F#2",
            "ticks": 6084,
            "time": 55.919058,
            "velocity": 0.6141732283464567
          },
          {
            "duration": 0.009191166666660422,
            "durationTicks": 1,
            "midi": 42,
            "name": "F#2",
            "ticks": 6096,
            "time": 56.029352,
            "velocity": 0.8346456692913385
          },
          {
            "duration": 0.009191166666667527,
            "durationTicks": 1,
            "midi": 42,
            "name": "F#2",
            "ticks": 6108,
            "time": 56.139646,
            "velocity": 0.6141732283464567
          },
          {
            "duration": 0.009191166666660422,
            "durationTicks": 1,
            "midi": 42,
            "name": "F#2",
            "ticks": 6120,
            "time": 56.24994,
            "velocity": 0.7244094488188977
          },
          {
            "duration": 0.009191166666667527,
            "durationTicks": 1,
            "midi": 42,
            "name": "F#2",
            "ticks": 6128,
            "time": 56.323469333333335,
            "velocity": 0.6141732283464567
          },
          {
            "duration": 0.009191166666667527,
            "durationTicks": 1,
            "midi": 42,
            "name": "F#2",
            "ticks": 6136,
            "time": 56.39699866666667,
            "velocity": 0.6141732283464567
          },
          {
            "duration": 0.009191166666667527,
            "durationTicks": 1,
            "midi": 42,
            "name": "F#2",
            "ticks": 6144,
            "time": 56.470528,
            "velocity": 0.8346456692913385
          },
          {
            "duration": 0.009191166666667527,
            "durationTicks": 1,
            "midi": 46,
            "name": "A#2",
            "ticks": 6156,
            "time": 56.580822000000005,
            "velocity": 0.7244094488188977
          },
          {
            "duration": 0.009191166666674633,
            "durationTicks": 1,
            "midi": 42,
            "name": "F#2",
            "ticks": 6192,
            "time": 56.911704,
            "velocity": 0.8346456692913385
          },
          {
            "duration": 0.009191166666674633,
            "durationTicks": 1,
            "midi": 42,
            "name": "F#2",
            "ticks": 6216,
            "time": 57.132292,
            "velocity": 0.7244094488188977
          },
          {
            "duration": 0.009191166666667527,
            "durationTicks": 1,
            "midi": 42,
            "name": "F#2",
            "ticks": 6224,
            "time": 57.20582133333333,
            "velocity": 0.6141732283464567
          },
          {
            "duration": 0.009191166666660422,
            "durationTicks": 1,
            "midi": 42,
            "name": "F#2",
            "ticks": 6232,
            "time": 57.27935066666667,
            "velocity": 0.6141732283464567
          },
          {
            "duration": 0.009191166666674633,
            "durationTicks": 1,
            "midi": 46,
            "name": "A#2",
            "ticks": 6240,
            "time": 57.35288,
            "velocity": 0.7244094488188977
          },
          {
            "duration": 0.009191166666674633,
            "durationTicks": 1,
            "midi": 42,
            "name": "F#2",
            "ticks": 6264,
            "time": 57.573468,
            "velocity": 0.7244094488188977
          },
          {
            "duration": 0.009191166666667527,
            "durationTicks": 1,
            "midi": 42,
            "name": "F#2",
            "ticks": 6276,
            "time": 57.683762,
            "velocity": 0.6141732283464567
          },
          {
            "duration": 0.009191166666667527,
            "durationTicks": 1,
            "midi": 42,
            "name": "F#2",
            "ticks": 6312,
            "time": 58.014644000000004,
            "velocity": 0.7244094488188977
          },
          {
            "duration": 0.009191166666674633,
            "durationTicks": 1,
            "midi": 42,
            "name": "F#2",
            "ticks": 6324,
            "time": 58.124938,
            "velocity": 0.6141732283464567
          },
          {
            "duration": 0.009191166666667527,
            "durationTicks": 1,
            "midi": 42,
            "name": "F#2",
            "ticks": 6336,
            "time": 58.235232,
            "velocity": 0.8346456692913385
          },
          {
            "duration": 0.009191166666674633,
            "durationTicks": 1,
            "midi": 42,
            "name": "F#2",
            "ticks": 6348,
            "time": 58.345526,
            "velocity": 0.6141732283464567
          },
          {
            "duration": 0.009191166666667527,
            "durationTicks": 1,
            "midi": 46,
            "name": "A#2",
            "ticks": 6360,
            "time": 58.45582,
            "velocity": 0.7244094488188977
          },
          {
            "duration": 0.009191166666667527,
            "durationTicks": 1,
            "midi": 42,
            "name": "F#2",
            "ticks": 6384,
            "time": 58.676408,
            "velocity": 0.8346456692913385
          },
          {
            "duration": 0.009191166666667527,
            "durationTicks": 1,
            "midi": 42,
            "name": "F#2",
            "ticks": 6408,
            "time": 58.896996,
            "velocity": 0.7244094488188977
          },
          {
            "duration": 0.009191166666667527,
            "durationTicks": 1,
            "midi": 46,
            "name": "A#2",
            "ticks": 6420,
            "time": 59.007290000000005,
            "velocity": 0.7244094488188977
          },
          {
            "duration": 0.009191166666674633,
            "durationTicks": 1,
            "midi": 42,
            "name": "F#2",
            "ticks": 6456,
            "time": 59.338172,
            "velocity": 0.7244094488188977
          },
          {
            "duration": 0.009191166666667527,
            "durationTicks": 1,
            "midi": 42,
            "name": "F#2",
            "ticks": 6468,
            "time": 59.448466,
            "velocity": 0.6141732283464567
          },
          {
            "duration": 0.009191166666674633,
            "durationTicks": 1,
            "midi": 42,
            "name": "F#2",
            "ticks": 6480,
            "time": 59.55876,
            "velocity": 0.8346456692913385
          },
          {
            "duration": 0.009191166666667527,
            "durationTicks": 1,
            "midi": 42,
            "name": "F#2",
            "ticks": 6492,
            "time": 59.669054,
            "velocity": 0.6141732283464567
          },
          {
            "duration": 0.009191166666674633,
            "durationTicks": 1,
            "midi": 42,
            "name": "F#2",
            "ticks": 6504,
            "time": 59.779348,
            "velocity": 0.7244094488188977
          },
          {
            "duration": 0.009191166666667527,
            "durationTicks": 1,
            "midi": 42,
            "name": "F#2",
            "ticks": 6512,
            "time": 59.85287733333333,
            "velocity": 0.6141732283464567
          },
          {
            "duration": 0.009191166666660422,
            "durationTicks": 1,
            "midi": 42,
            "name": "F#2",
            "ticks": 6520,
            "time": 59.92640666666667,
            "velocity": 0.6141732283464567
          },
          {
            "duration": 0.009191166666667527,
            "durationTicks": 1,
            "midi": 42,
            "name": "F#2",
            "ticks": 6528,
            "time": 59.999936000000005,
            "velocity": 0.8346456692913385
          },
          {
            "duration": 0.009191166666674633,
            "durationTicks": 1,
            "midi": 46,
            "name": "A#2",
            "ticks": 6540,
            "time": 60.11023,
            "velocity": 0.7244094488188977
          },
          {
            "duration": 0.009191166666667527,
            "durationTicks": 1,
            "midi": 42,
            "name": "F#2",
            "ticks": 6576,
            "time": 60.441112000000004,
            "velocity": 0.8346456692913385
          },
          {
            "duration": 0.009191166666667527,
            "durationTicks": 1,
            "midi": 42,
            "name": "F#2",
            "ticks": 6600,
            "time": 60.6617,
            "velocity": 0.7244094488188977
          },
          {
            "duration": 0.009191166666674633,
            "durationTicks": 1,
            "midi": 42,
            "name": "F#2",
            "ticks": 6608,
            "time": 60.73522933333333,
            "velocity": 0.6141732283464567
          },
          {
            "duration": 0.009191166666660422,
            "durationTicks": 1,
            "midi": 42,
            "name": "F#2",
            "ticks": 6616,
            "time": 60.80875866666667,
            "velocity": 0.6141732283464567
          },
          {
            "duration": 0.009191166666667527,
            "durationTicks": 1,
            "midi": 46,
            "name": "A#2",
            "ticks": 6624,
            "time": 60.882288,
            "velocity": 0.7244094488188977
          },
          {
            "duration": 0.009191166666667527,
            "durationTicks": 1,
            "midi": 42,
            "name": "F#2",
            "ticks": 6660,
            "time": 61.213170000000005,
            "velocity": 0.6141732283464567
          },
          {
            "duration": 0.009191166666674633,
            "durationTicks": 1,
            "midi": 42,
            "name": "F#2",
            "ticks": 6696,
            "time": 61.544052,
            "velocity": 0.7244094488188977
          },
          {
            "duration": 0.009191166666667527,
            "durationTicks": 1,
            "midi": 42,
            "name": "F#2",
            "ticks": 6708,
            "time": 61.654346000000004,
            "velocity": 0.6141732283464567
          },
          {
            "duration": 0.009191166666674633,
            "durationTicks": 1,
            "midi": 42,
            "name": "F#2",
            "ticks": 6720,
            "time": 61.76464,
            "velocity": 0.8346456692913385
          },
          {
            "duration": 0.009191166666667527,
            "durationTicks": 1,
            "midi": 42,
            "name": "F#2",
            "ticks": 6732,
            "time": 61.874934,
            "velocity": 0.6141732283464567
          },
          {
            "duration": 0.009191166666674633,
            "durationTicks": 1,
            "midi": 46,
            "name": "A#2",
            "ticks": 6744,
            "time": 61.985228,
            "velocity": 0.7244094488188977
          },
          {
            "duration": 0.009191166666674633,
            "durationTicks": 1,
            "midi": 42,
            "name": "F#2",
            "ticks": 6768,
            "time": 62.205816,
            "velocity": 0.8346456692913385
          },
          {
            "duration": 0.009191166666667527,
            "durationTicks": 1,
            "midi": 46,
            "name": "A#2",
            "ticks": 6780,
            "time": 62.31611,
            "velocity": 0.7244094488188977
          },
          {
            "duration": 0.009191166666667527,
            "durationTicks": 1,
            "midi": 42,
            "name": "F#2",
            "ticks": 6840,
            "time": 62.867580000000004,
            "velocity": 0.7244094488188977
          },
          {
            "duration": 0.009191166666674633,
            "durationTicks": 1,
            "midi": 42,
            "name": "F#2",
            "ticks": 6852,
            "time": 62.977874,
            "velocity": 0.6141732283464567
          },
          {
            "duration": 0.009191166666667527,
            "durationTicks": 1,
            "midi": 42,
            "name": "F#2",
            "ticks": 6888,
            "time": 63.308756,
            "velocity": 0.7244094488188977
          },
          {
            "duration": 0.009191166666674633,
            "durationTicks": 1,
            "midi": 42,
            "name": "F#2",
            "ticks": 6896,
            "time": 63.38228533333333,
            "velocity": 0.6141732283464567
          },
          {
            "duration": 0.009191166666653316,
            "durationTicks": 1,
            "midi": 42,
            "name": "F#2",
            "ticks": 6904,
            "time": 63.455814666666676,
            "velocity": 0.6141732283464567
          },
          {
            "duration": 0.009191166666667527,
            "durationTicks": 1,
            "midi": 42,
            "name": "F#2",
            "ticks": 6912,
            "time": 63.529344,
            "velocity": 0.8346456692913385
          },
          {
            "duration": 0.009191166666667527,
            "durationTicks": 1,
            "midi": 46,
            "name": "A#2",
            "ticks": 6924,
            "time": 63.639638000000005,
            "velocity": 0.7244094488188977
          },
          {
            "duration": 0.009191166666674633,
            "durationTicks": 1,
            "midi": 42,
            "name": "F#2",
            "ticks": 6960,
            "time": 63.97052,
            "velocity": 0.8346456692913385
          },
          {
            "duration": 0.009191166666667527,
            "durationTicks": 1,
            "midi": 42,
            "name": "F#2",
            "ticks": 6984,
            "time": 64.191108,
            "velocity": 0.7244094488188977
          },
          {
            "duration": 0.009191166666681738,
            "durationTicks": 1,
            "midi": 42,
            "name": "F#2",
            "ticks": 6992,
            "time": 64.26463733333333,
            "velocity": 0.6141732283464567
          },
          {
            "duration": 0.009191166666667527,
            "durationTicks": 1,
            "midi": 42,
            "name": "F#2",
            "ticks": 7000,
            "time": 64.33816666666667,
            "velocity": 0.6141732283464567
          },
          {
            "duration": 0.009191166666667527,
            "durationTicks": 1,
            "midi": 46,
            "name": "A#2",
            "ticks": 7008,
            "time": 64.411696,
            "velocity": 0.7244094488188977
          },
          {
            "duration": 0.009191166666667527,
            "durationTicks": 1,
            "midi": 42,
            "name": "F#2",
            "ticks": 7032,
            "time": 64.632284,
            "velocity": 0.7244094488188977
          },
          {
            "duration": 0.009191166666667527,
            "durationTicks": 1,
            "midi": 42,
            "name": "F#2",
            "ticks": 7044,
            "time": 64.74257800000001,
            "velocity": 0.6141732283464567
          },
          {
            "duration": 0.009191166666681738,
            "durationTicks": 1,
            "midi": 42,
            "name": "F#2",
            "ticks": 7080,
            "time": 65.07346,
            "velocity": 0.7244094488188977
          },
          {
            "duration": 0.009191166666667527,
            "durationTicks": 1,
            "midi": 42,
            "name": "F#2",
            "ticks": 7092,
            "time": 65.18375400000001,
            "velocity": 0.6141732283464567
          },
          {
            "duration": 0.009191166666667527,
            "durationTicks": 1,
            "midi": 42,
            "name": "F#2",
            "ticks": 7104,
            "time": 65.294048,
            "velocity": 0.8346456692913385
          },
          {
            "duration": 0.009191166666667527,
            "durationTicks": 1,
            "midi": 42,
            "name": "F#2",
            "ticks": 7116,
            "time": 65.404342,
            "velocity": 0.6141732283464567
          },
          {
            "duration": 0.009191166666681738,
            "durationTicks": 1,
            "midi": 46,
            "name": "A#2",
            "ticks": 7128,
            "time": 65.514636,
            "velocity": 0.7244094488188977
          },
          {
            "duration": 0.009191166666667527,
            "durationTicks": 1,
            "midi": 42,
            "name": "F#2",
            "ticks": 7152,
            "time": 65.735224,
            "velocity": 0.7244094488188977
          },
          {
            "duration": 0.009191166666667527,
            "durationTicks": 1,
            "midi": 46,
            "name": "A#2",
            "ticks": 7164,
            "time": 65.845518,
            "velocity": 0.7244094488188977
          },
          {
            "duration": 0.009191166666667527,
            "durationTicks": 1,
            "midi": 46,
            "name": "A#2",
            "ticks": 7188,
            "time": 66.066106,
            "velocity": 0.7244094488188977
          },
          {
            "duration": 0.009191166666667527,
            "durationTicks": 1,
            "midi": 42,
            "name": "F#2",
            "ticks": 7224,
            "time": 66.39698800000001,
            "velocity": 0.7244094488188977
          },
          {
            "duration": 0.009191166666667527,
            "durationTicks": 1,
            "midi": 42,
            "name": "F#2",
            "ticks": 7236,
            "time": 66.507282,
            "velocity": 0.6141732283464567
          },
          {
            "duration": 0.009191166666667527,
            "durationTicks": 1,
            "midi": 42,
            "name": "F#2",
            "ticks": 7272,
            "time": 66.838164,
            "velocity": 0.7244094488188977
          },
          {
            "duration": 0.009191166666667527,
            "durationTicks": 1,
            "midi": 42,
            "name": "F#2",
            "ticks": 7280,
            "time": 66.91169333333333,
            "velocity": 0.6141732283464567
          },
          {
            "duration": 0.009191166666653316,
            "durationTicks": 1,
            "midi": 42,
            "name": "F#2",
            "ticks": 7288,
            "time": 66.98522266666667,
            "velocity": 0.6141732283464567
          },
          {
            "duration": 0.009191166666667527,
            "durationTicks": 1,
            "midi": 42,
            "name": "F#2",
            "ticks": 7296,
            "time": 67.058752,
            "velocity": 0.8346456692913385
          },
          {
            "duration": 0.009191166666667527,
            "durationTicks": 1,
            "midi": 46,
            "name": "A#2",
            "ticks": 7308,
            "time": 67.16904600000001,
            "velocity": 0.7244094488188977
          },
          {
            "duration": 0.009191166666667527,
            "durationTicks": 1,
            "midi": 42,
            "name": "F#2",
            "ticks": 7320,
            "time": 67.27934,
            "velocity": 0.7244094488188977
          },
          {
            "duration": 0.009191166666667527,
            "durationTicks": 1,
            "midi": 42,
            "name": "F#2",
            "ticks": 7328,
            "time": 67.35286933333333,
            "velocity": 0.6141732283464567
          },
          {
            "duration": 0.009191166666653316,
            "durationTicks": 1,
            "midi": 42,
            "name": "F#2",
            "ticks": 7336,
            "time": 67.42639866666667,
            "velocity": 0.6141732283464567
          },
          {
            "duration": 0.009191166666681738,
            "durationTicks": 1,
            "midi": 42,
            "name": "F#2",
            "ticks": 7344,
            "time": 67.499928,
            "velocity": 0.7244094488188977
          },
          {
            "duration": 0.009191166666667527,
            "durationTicks": 1,
            "midi": 42,
            "name": "F#2",
            "ticks": 7352,
            "time": 67.57345733333334,
            "velocity": 0.6141732283464567
          },
          {
            "duration": 0.009191166666653316,
            "durationTicks": 1,
            "midi": 42,
            "name": "F#2",
            "ticks": 7360,
            "time": 67.64698666666668,
            "velocity": 0.6141732283464567
          },
          {
            "duration": 0.009191166666667527,
            "durationTicks": 1,
            "midi": 42,
            "name": "F#2",
            "ticks": 7368,
            "time": 67.720516,
            "velocity": 0.7244094488188977
          },
          {
            "duration": 0.009191166666667527,
            "durationTicks": 1,
            "midi": 42,
            "name": "F#2",
            "ticks": 7376,
            "time": 67.79404533333333,
            "velocity": 0.6141732283464567
          },
          {
            "duration": 0.009191166666667527,
            "durationTicks": 1,
            "midi": 42,
            "name": "F#2",
            "ticks": 7384,
            "time": 67.86757466666667,
            "velocity": 0.6141732283464567
          },
          {
            "duration": 0.009191166666681738,
            "durationTicks": 1,
            "midi": 46,
            "name": "A#2",
            "ticks": 7392,
            "time": 67.941104,
            "velocity": 0.7244094488188977
          },
          {
            "duration": 0.009191166666667527,
            "durationTicks": 1,
            "midi": 42,
            "name": "F#2",
            "ticks": 7428,
            "time": 68.271986,
            "velocity": 0.6141732283464567
          },
          {
            "duration": 0.009191166666667527,
            "durationTicks": 1,
            "midi": 42,
            "name": "F#2",
            "ticks": 7464,
            "time": 68.602868,
            "velocity": 0.7244094488188977
          },
          {
            "duration": 0.009191166666681738,
            "durationTicks": 1,
            "midi": 42,
            "name": "F#2",
            "ticks": 7476,
            "time": 68.713162,
            "velocity": 0.6141732283464567
          },
          {
            "duration": 0.009191166666667527,
            "durationTicks": 1,
            "midi": 42,
            "name": "F#2",
            "ticks": 7488,
            "time": 68.82345600000001,
            "velocity": 0.8346456692913385
          },
          {
            "duration": 0.009191166666667527,
            "durationTicks": 1,
            "midi": 42,
            "name": "F#2",
            "ticks": 7500,
            "time": 68.93375,
            "velocity": 0.6141732283464567
          },
          {
            "duration": 0.009191166666667527,
            "durationTicks": 1,
            "midi": 46,
            "name": "A#2",
            "ticks": 7512,
            "time": 69.044044,
            "velocity": 0.7244094488188977
          },
          {
            "duration": 0.009191166666667527,
            "durationTicks": 1,
            "midi": 42,
            "name": "F#2",
            "ticks": 7536,
            "time": 69.264632,
            "velocity": 0.8346456692913385
          },
          {
            "duration": 0.009191166666667527,
            "durationTicks": 1,
            "midi": 46,
            "name": "A#2",
            "ticks": 7548,
            "time": 69.374926,
            "velocity": 0.7244094488188977
          },
          {
            "duration": 0.009191166666681738,
            "durationTicks": 1,
            "midi": 42,
            "name": "F#2",
            "ticks": 7608,
            "time": 69.926396,
            "velocity": 0.7244094488188977
          },
          {
            "duration": 0.009191166666667527,
            "durationTicks": 1,
            "midi": 42,
            "name": "F#2",
            "ticks": 7620,
            "time": 70.03669000000001,
            "velocity": 0.6141732283464567
          },
          {
            "duration": 0.009191166666681738,
            "durationTicks": 1,
            "midi": 42,
            "name": "F#2",
            "ticks": 7656,
            "time": 70.367572,
            "velocity": 0.7244094488188977
          },
          {
            "duration": 0.009191166666667527,
            "durationTicks": 1,
            "midi": 42,
            "name": "F#2",
            "ticks": 7664,
            "time": 70.44110133333334,
            "velocity": 0.6141732283464567
          },
          {
            "duration": 0.009191166666653316,
            "durationTicks": 1,
            "midi": 42,
            "name": "F#2",
            "ticks": 7672,
            "time": 70.51463066666668,
            "velocity": 0.6141732283464567
          },
          {
            "duration": 0.009191166666667527,
            "durationTicks": 1,
            "midi": 42,
            "name": "F#2",
            "ticks": 7680,
            "time": 70.58816,
            "velocity": 0.8346456692913385
          },
          {
            "duration": 0.009191166666681738,
            "durationTicks": 1,
            "midi": 46,
            "name": "A#2",
            "ticks": 7692,
            "time": 70.698454,
            "velocity": 0.7244094488188977
          },
          {
            "duration": 0.009191166666667527,
            "durationTicks": 1,
            "midi": 42,
            "name": "F#2",
            "ticks": 7728,
            "time": 71.029336,
            "velocity": 0.8346456692913385
          },
          {
            "duration": 0.009191166666667527,
            "durationTicks": 1,
            "midi": 42,
            "name": "F#2",
            "ticks": 7752,
            "time": 71.24992400000001,
            "velocity": 0.7244094488188977
          },
          {
            "duration": 0.009191166666667527,
            "durationTicks": 1,
            "midi": 42,
            "name": "F#2",
            "ticks": 7760,
            "time": 71.32345333333333,
            "velocity": 0.6141732283464567
          },
          {
            "duration": 0.009191166666653316,
            "durationTicks": 1,
            "midi": 42,
            "name": "F#2",
            "ticks": 7768,
            "time": 71.39698266666667,
            "velocity": 0.6141732283464567
          },
          {
            "duration": 0.009191166666667527,
            "durationTicks": 1,
            "midi": 46,
            "name": "A#2",
            "ticks": 7776,
            "time": 71.470512,
            "velocity": 0.7244094488188977
          },
          {
            "duration": 0.009191166666667527,
            "durationTicks": 1,
            "midi": 42,
            "name": "F#2",
            "ticks": 7812,
            "time": 71.801394,
            "velocity": 0.6141732283464567
          },
          {
            "duration": 0.009191166666667527,
            "durationTicks": 1,
            "midi": 42,
            "name": "F#2",
            "ticks": 7848,
            "time": 72.132276,
            "velocity": 0.7244094488188977
          },
          {
            "duration": 0.009191166666667527,
            "durationTicks": 1,
            "midi": 42,
            "name": "F#2",
            "ticks": 7860,
            "time": 72.24257,
            "velocity": 0.6141732283464567
          },
          {
            "duration": 0.009191166666681738,
            "durationTicks": 1,
            "midi": 42,
            "name": "F#2",
            "ticks": 7872,
            "time": 72.352864,
            "velocity": 0.8346456692913385
          },
          {
            "duration": 0.009191166666667527,
            "durationTicks": 1,
            "midi": 42,
            "name": "F#2",
            "ticks": 7884,
            "time": 72.463158,
            "velocity": 0.6141732283464567
          },
          {
            "duration": 0.009191166666667527,
            "durationTicks": 1,
            "midi": 46,
            "name": "A#2",
            "ticks": 7896,
            "time": 72.573452,
            "velocity": 0.7244094488188977
          },
          {
            "duration": 0.009191166666681738,
            "durationTicks": 1,
            "midi": 42,
            "name": "F#2",
            "ticks": 7920,
            "time": 72.79404,
            "velocity": 0.8346456692913385
          },
          {
            "duration": 0.009191166666667527,
            "durationTicks": 1,
            "midi": 46,
            "name": "A#2",
            "ticks": 7932,
            "time": 72.904334,
            "velocity": 0.7244094488188977
          },
          {
            "duration": 0.009191166666667527,
            "durationTicks": 1,
            "midi": 42,
            "name": "F#2",
            "ticks": 7992,
            "time": 73.455804,
            "velocity": 0.7244094488188977
          },
          {
            "duration": 0.009191166666681738,
            "durationTicks": 1,
            "midi": 42,
            "name": "F#2",
            "ticks": 8004,
            "time": 73.566098,
            "velocity": 0.6141732283464567
          },
          {
            "duration": 0.009191166666667527,
            "durationTicks": 1,
            "midi": 42,
            "name": "F#2",
            "ticks": 8040,
            "time": 73.89698,
            "velocity": 0.7244094488188977
          },
          {
            "duration": 0.009191166666681738,
            "durationTicks": 1,
            "midi": 42,
            "name": "F#2",
            "ticks": 8048,
            "time": 73.97050933333333,
            "velocity": 0.6141732283464567
          },
          {
            "duration": 0.009191166666653316,
            "durationTicks": 1,
            "midi": 42,
            "name": "F#2",
            "ticks": 8056,
            "time": 74.04403866666668,
            "velocity": 0.6141732283464567
          },
          {
            "duration": 0.009191166666667527,
            "durationTicks": 1,
            "midi": 42,
            "name": "F#2",
            "ticks": 8064,
            "time": 74.117568,
            "velocity": 0.8346456692913385
          },
          {
            "duration": 0.009191166666667527,
            "durationTicks": 1,
            "midi": 46,
            "name": "A#2",
            "ticks": 8076,
            "time": 74.227862,
            "velocity": 0.7244094488188977
          },
          {
            "duration": 0.009191166666681738,
            "durationTicks": 1,
            "midi": 42,
            "name": "F#2",
            "ticks": 8088,
            "time": 74.338156,
            "velocity": 0.7244094488188977
          },
          {
            "duration": 0.009191166666667527,
            "durationTicks": 1,
            "midi": 42,
            "name": "F#2",
            "ticks": 8096,
            "time": 74.41168533333334,
            "velocity": 0.6141732283464567
          },
          {
            "duration": 0.009191166666653316,
            "durationTicks": 1,
            "midi": 42,
            "name": "F#2",
            "ticks": 8104,
            "time": 74.48521466666668,
            "velocity": 0.6141732283464567
          },
          {
            "duration": 0.009191166666667527,
            "durationTicks": 1,
            "midi": 42,
            "name": "F#2",
            "ticks": 8112,
            "time": 74.558744,
            "velocity": 0.7244094488188977
          },
          {
            "duration": 0.009191166666667527,
            "durationTicks": 1,
            "midi": 42,
            "name": "F#2",
            "ticks": 8120,
            "time": 74.63227333333333,
            "velocity": 0.6141732283464567
          },
          {
            "duration": 0.009191166666667527,
            "durationTicks": 1,
            "midi": 42,
            "name": "F#2",
            "ticks": 8128,
            "time": 74.70580266666667,
            "velocity": 0.6141732283464567
          },
          {
            "duration": 0.009191166666681738,
            "durationTicks": 1,
            "midi": 42,
            "name": "F#2",
            "ticks": 8136,
            "time": 74.779332,
            "velocity": 0.7244094488188977
          },
          {
            "duration": 0.009191166666667527,
            "durationTicks": 1,
            "midi": 42,
            "name": "F#2",
            "ticks": 8144,
            "time": 74.85286133333334,
            "velocity": 0.6141732283464567
          },
          {
            "duration": 0.009191166666653316,
            "durationTicks": 1,
            "midi": 42,
            "name": "F#2",
            "ticks": 8152,
            "time": 74.92639066666668,
            "velocity": 0.6141732283464567
          },
          {
            "duration": 0.009191166666667527,
            "durationTicks": 1,
            "midi": 42,
            "name": "F#2",
            "ticks": 8160,
            "time": 74.99992,
            "velocity": 0.8346456692913385
          },
          {
            "duration": 0.009191166666681738,
            "durationTicks": 1,
            "midi": 42,
            "name": "F#2",
            "ticks": 8184,
            "time": 75.220508,
            "velocity": 0.7244094488188977
          },
          {
            "duration": 0.009191166666667527,
            "durationTicks": 1,
            "midi": 42,
            "name": "F#2",
            "ticks": 8196,
            "time": 75.330802,
            "velocity": 0.6141732283464567
          },
          {
            "duration": 0.009191166666667527,
            "durationTicks": 1,
            "midi": 42,
            "name": "F#2",
            "ticks": 8208,
            "time": 75.441096,
            "velocity": 0.8346456692913385
          },
          {
            "duration": 0.009191166666681738,
            "durationTicks": 1,
            "midi": 42,
            "name": "F#2",
            "ticks": 8220,
            "time": 75.55139,
            "velocity": 0.6141732283464567
          },
          {
            "duration": 0.009191166666667527,
            "durationTicks": 1,
            "midi": 46,
            "name": "A#2",
            "ticks": 8232,
            "time": 75.66168400000001,
            "velocity": 0.7244094488188977
          },
          {
            "duration": 0.009191166666667527,
            "durationTicks": 1,
            "midi": 46,
            "name": "A#2",
            "ticks": 8256,
            "time": 75.882272,
            "velocity": 0.7244094488188977
          },
          {
            "duration": 0.009191166666681738,
            "durationTicks": 1,
            "midi": 42,
            "name": "F#2",
            "ticks": 8268,
            "time": 75.992566,
            "velocity": 0.6141732283464567
          },
          {
            "duration": 0.009191166666667527,
            "durationTicks": 1,
            "midi": 42,
            "name": "F#2",
            "ticks": 8280,
            "time": 76.10286,
            "velocity": 0.7244094488188977
          },
          {
            "duration": 0.009191166666667527,
            "durationTicks": 1,
            "midi": 42,
            "name": "F#2",
            "ticks": 8304,
            "time": 76.323448,
            "velocity": 0.8346456692913385
          },
          {
            "duration": 0.009191166666681738,
            "durationTicks": 1,
            "midi": 46,
            "name": "A#2",
            "ticks": 8316,
            "time": 76.433742,
            "velocity": 0.7244094488188977
          },
          {
            "duration": 0.009191166666667527,
            "durationTicks": 1,
            "midi": 42,
            "name": "F#2",
            "ticks": 8328,
            "time": 76.544036,
            "velocity": 0.7244094488188977
          },
          {
            "duration": 0.009191166666681738,
            "durationTicks": 1,
            "midi": 42,
            "name": "F#2",
            "ticks": 8352,
            "time": 76.764624,
            "velocity": 0.8346456692913385
          },
          {
            "duration": 0.009191166666667527,
            "durationTicks": 1,
            "midi": 42,
            "name": "F#2",
            "ticks": 8376,
            "time": 76.985212,
            "velocity": 0.7244094488188977
          },
          {
            "duration": 0.009191166666667527,
            "durationTicks": 1,
            "midi": 42,
            "name": "F#2",
            "ticks": 8388,
            "time": 77.095506,
            "velocity": 0.6141732283464567
          },
          {
            "duration": 0.009191166666681738,
            "durationTicks": 1,
            "midi": 42,
            "name": "F#2",
            "ticks": 8400,
            "time": 77.2058,
            "velocity": 0.8346456692913385
          },
          {
            "duration": 0.009191166666667527,
            "durationTicks": 1,
            "midi": 42,
            "name": "F#2",
            "ticks": 8412,
            "time": 77.316094,
            "velocity": 0.6141732283464567
          },
          {
            "duration": 0.009191166666667527,
            "durationTicks": 1,
            "midi": 46,
            "name": "A#2",
            "ticks": 8424,
            "time": 77.426388,
            "velocity": 0.7244094488188977
          },
          {
            "duration": 0.009191166666681738,
            "durationTicks": 1,
            "midi": 46,
            "name": "A#2",
            "ticks": 8448,
            "time": 77.646976,
            "velocity": 0.7244094488188977
          },
          {
            "duration": 0.009191166666667527,
            "durationTicks": 1,
            "midi": 42,
            "name": "F#2",
            "ticks": 8460,
            "time": 77.75727,
            "velocity": 0.6141732283464567
          },
          {
            "duration": 0.009191166666667527,
            "durationTicks": 1,
            "midi": 42,
            "name": "F#2",
            "ticks": 8472,
            "time": 77.867564,
            "velocity": 0.7244094488188977
          },
          {
            "duration": 0.009191166666667527,
            "durationTicks": 1,
            "midi": 42,
            "name": "F#2",
            "ticks": 8496,
            "time": 78.08815200000001,
            "velocity": 0.8346456692913385
          },
          {
            "duration": 0.009191166666667527,
            "durationTicks": 1,
            "midi": 46,
            "name": "A#2",
            "ticks": 8508,
            "time": 78.198446,
            "velocity": 0.7244094488188977
          },
          {
            "duration": 0.009191166666667527,
            "durationTicks": 1,
            "midi": 42,
            "name": "F#2",
            "ticks": 8544,
            "time": 78.529328,
            "velocity": 0.8346456692913385
          },
          {
            "duration": 0.009191166666667527,
            "durationTicks": 1,
            "midi": 42,
            "name": "F#2",
            "ticks": 8568,
            "time": 78.749916,
            "velocity": 0.7244094488188977
          },
          {
            "duration": 0.009191166666667527,
            "durationTicks": 1,
            "midi": 42,
            "name": "F#2",
            "ticks": 8580,
            "time": 78.86021000000001,
            "velocity": 0.6141732283464567
          },
          {
            "duration": 0.009191166666667527,
            "durationTicks": 1,
            "midi": 42,
            "name": "F#2",
            "ticks": 8592,
            "time": 78.970504,
            "velocity": 0.8346456692913385
          },
          {
            "duration": 0.009191166666667527,
            "durationTicks": 1,
            "midi": 42,
            "name": "F#2",
            "ticks": 8604,
            "time": 79.080798,
            "velocity": 0.6141732283464567
          },
          {
            "duration": 0.009191166666681738,
            "durationTicks": 1,
            "midi": 46,
            "name": "A#2",
            "ticks": 8616,
            "time": 79.191092,
            "velocity": 0.7244094488188977
          },
          {
            "duration": 0.009191166666667527,
            "durationTicks": 1,
            "midi": 46,
            "name": "A#2",
            "ticks": 8640,
            "time": 79.41168,
            "velocity": 0.7244094488188977
          },
          {
            "duration": 0.009191166666667527,
            "durationTicks": 1,
            "midi": 42,
            "name": "F#2",
            "ticks": 8652,
            "time": 79.521974,
            "velocity": 0.6141732283464567
          },
          {
            "duration": 0.009191166666681738,
            "durationTicks": 1,
            "midi": 42,
            "name": "F#2",
            "ticks": 8664,
            "time": 79.632268,
            "velocity": 0.7244094488188977
          },
          {
            "duration": 0.009191166666667527,
            "durationTicks": 1,
            "midi": 42,
            "name": "F#2",
            "ticks": 8688,
            "time": 79.852856,
            "velocity": 0.8346456692913385
          },
          {
            "duration": 0.009191166666667527,
            "durationTicks": 1,
            "midi": 46,
            "name": "A#2",
            "ticks": 8700,
            "time": 79.96315,
            "velocity": 0.7244094488188977
          },
          {
            "duration": 0.009191166666667527,
            "durationTicks": 1,
            "midi": 42,
            "name": "F#2",
            "ticks": 8712,
            "time": 80.07344400000001,
            "velocity": 0.7244094488188977
          },
          {
            "duration": 0.009191166666667527,
            "durationTicks": 1,
            "midi": 42,
            "name": "F#2",
            "ticks": 8736,
            "time": 80.294032,
            "velocity": 0.8346456692913385
          },
          {
            "duration": 0.009191166666667527,
            "durationTicks": 1,
            "midi": 42,
            "name": "F#2",
            "ticks": 8760,
            "time": 80.51462000000001,
            "velocity": 0.7244094488188977
          },
          {
            "duration": 0.009191166666667527,
            "durationTicks": 1,
            "midi": 42,
            "name": "F#2",
            "ticks": 8772,
            "time": 80.624914,
            "velocity": 0.6141732283464567
          },
          {
            "duration": 0.009191166666667527,
            "durationTicks": 1,
            "midi": 42,
            "name": "F#2",
            "ticks": 8784,
            "time": 80.735208,
            "velocity": 0.8346456692913385
          },
          {
            "duration": 0.009191166666681738,
            "durationTicks": 1,
            "midi": 42,
            "name": "F#2",
            "ticks": 8796,
            "time": 80.845502,
            "velocity": 0.6141732283464567
          },
          {
            "duration": 0.009191166666667527,
            "durationTicks": 1,
            "midi": 46,
            "name": "A#2",
            "ticks": 8808,
            "time": 80.955796,
            "velocity": 0.7244094488188977
          },
          {
            "duration": 0.009191166666667527,
            "durationTicks": 1,
            "midi": 42,
            "name": "F#2",
            "ticks": 8832,
            "time": 81.176384,
            "velocity": 0.8346456692913385
          },
          {
            "duration": 0.009191166666681738,
            "durationTicks": 1,
            "midi": 42,
            "name": "F#2",
            "ticks": 8840,
            "time": 81.24991333333332,
            "velocity": 0.6141732283464567
          },
          {
            "duration": 0.009191166666653316,
            "durationTicks": 1,
            "midi": 42,
            "name": "F#2",
            "ticks": 8848,
            "time": 81.32344266666668,
            "velocity": 0.7244094488188977
          },
          {
            "duration": 0.009191166666667527,
            "durationTicks": 1,
            "midi": 42,
            "name": "F#2",
            "ticks": 8856,
            "time": 81.396972,
            "velocity": 0.8346456692913385
          },
          {
            "duration": 0.009191166666667527,
            "durationTicks": 1,
            "midi": 42,
            "name": "F#2",
            "ticks": 8864,
            "time": 81.47050133333333,
            "velocity": 0.6141732283464567
          },
          {
            "duration": 0.009191166666653316,
            "durationTicks": 1,
            "midi": 42,
            "name": "F#2",
            "ticks": 8872,
            "time": 81.54403066666667,
            "velocity": 0.7244094488188977
          },
          {
            "duration": 0.009191166666681738,
            "durationTicks": 1,
            "midi": 42,
            "name": "F#2",
            "ticks": 8880,
            "time": 81.61756,
            "velocity": 0.8346456692913385
          },
          {
            "duration": 0.009191166666667527,
            "durationTicks": 1,
            "midi": 42,
            "name": "F#2",
            "ticks": 8892,
            "time": 81.72785400000001,
            "velocity": 0.6141732283464567
          },
          {
            "duration": 0.009191166666667527,
            "durationTicks": 1,
            "midi": 46,
            "name": "A#2",
            "ticks": 8904,
            "time": 81.838148,
            "velocity": 0.7244094488188977
          }
        ]
      },
      {
        "channel": 0,
        "controlChanges": {
          "0": [
            {
              "number": 0,
              "ticks": 202,
              "time": 1.8566156666666667,
              "value": 0
            }
          ],
          "32": [
            {
              "number": 32,
              "ticks": 203,
              "time": 1.8658068333333335,
              "value": 0.015748031496062992
            }
          ]
        },
        "pitchBends": [],
        "instrument": {
          "family": "piano",
          "number": 0,
          "name": "acoustic grand piano"
        },
        "name": "x[X\u0000",
        "notes": [],
        "endOfTrackTicks": 8928
      },
      {
        "channel": 1,
        "controlChanges": {
          "1": [
            {
              "number": 1,
              "ticks": 214,
              "time": 1.9669096666666666,
              "value": 0
            }
          ],
          "5": [
            {
              "number": 5,
              "ticks": 218,
              "time": 2.0036743333333336,
              "value": 0
            }
          ],
          "6": [
            {
              "number": 6,
              "ticks": 210,
              "time": 1.930145,
              "value": 0.09448818897637795
            },
            {
              "number": 6,
              "ticks": 219,
              "time": 2.0128655,
              "value": 0.5039370078740157
            },
            {
              "number": 6,
              "ticks": 220,
              "time": 2.0220566666666664,
              "value": 0.5039370078740157
            },
            {
              "number": 6,
              "ticks": 221,
              "time": 2.0312478333333335,
              "value": 0.5039370078740157
            },
            {
              "number": 6,
              "ticks": 222,
              "time": 2.040439,
              "value": 0.5039370078740157
            },
            {
              "number": 6,
              "ticks": 223,
              "time": 2.0496301666666668,
              "value": 0.5039370078740157
            },
            {
              "number": 6,
              "ticks": 224,
              "time": 2.0588213333333334,
              "value": 0.5039370078740157
            },
            {
              "number": 6,
              "ticks": 225,
              "time": 2.0680125,
              "value": 0.5039370078740157
            },
            {
              "number": 6,
              "ticks": 226,
              "time": 2.0772036666666667,
              "value": 0.5039370078740157
            }
          ],
          "7": [
            {
              "number": 7,
              "ticks": 211,
              "time": 1.9393361666666666,
              "value": 0.8661417322834646
            },
            {
              "number": 7,
              "ticks": 8208,
              "time": 75.441096,
              "value": 0.8661417322834646
            },
            {
              "number": 7,
              "ticks": 8256,
              "time": 75.882272,
              "value": 0.8110236220472441
            },
            {
              "number": 7,
              "ticks": 8304,
              "time": 76.323448,
              "value": 0.7559055118110236
            },
            {
              "number": 7,
              "ticks": 8352,
              "time": 76.764624,
              "value": 0.7007874015748031
            },
            {
              "number": 7,
              "ticks": 8400,
              "time": 77.2058,
              "value": 0.6456692913385826
            },
            {
              "number": 7,
              "ticks": 8448,
              "time": 77.646976,
              "value": 0.5905511811023622
            },
            {
              "number": 7,
              "ticks": 8496,
              "time": 78.08815200000001,
              "value": 0.5354330708661418
            },
            {
              "number": 7,
              "ticks": 8544,
              "time": 78.529328,
              "value": 0.48031496062992124
            },
            {
              "number": 7,
              "ticks": 8592,
              "time": 78.970504,
              "value": 0.4330708661417323
            },
            {
              "number": 7,
              "ticks": 8640,
              "time": 79.41168,
              "value": 0.3779527559055118
            },
            {
              "number": 7,
              "ticks": 8688,
              "time": 79.852856,
              "value": 0.3228346456692913
            },
            {
              "number": 7,
              "ticks": 8736,
              "time": 80.294032,
              "value": 0.2677165354330709
            },
            {
              "number": 7,
              "ticks": 8784,
              "time": 80.735208,
              "value": 0.2125984251968504
            },
            {
              "number": 7,
              "ticks": 8832,
              "time": 81.176384,
              "value": 0.15748031496062992
            },
            {
              "number": 7,
              "ticks": 8880,
              "time": 81.61756,
              "value": 0.10236220472440945
            },
            {
              "number": 7,
              "ticks": 8928,
              "time": 82.058736,
              "value": 0.047244094488188976
            }
          ],
          "10": [
            {
              "number": 10,
              "ticks": 213,
              "time": 1.9577185000000001,
              "value": 0.5039370078740157
            }
          ],
          "11": [
            {
              "number": 11,
              "ticks": 212,
              "time": 1.9485273333333335,
              "value": 1
            }
          ],
          "64": [
            {
              "number": 64,
              "ticks": 216,
              "time": 1.985292,
              "value": 0
            }
          ],
          "65": [
            {
              "number": 65,
              "ticks": 217,
              "time": 1.9944831666666667,
              "value": 0
            }
          ],
          "91": [
            {
              "number": 91,
              "ticks": 205,
              "time": 1.8841891666666666,
              "value": 0.6299212598425197
            }
          ],
          "93": [
            {
              "number": 93,
              "ticks": 206,
              "time": 1.8933803333333334,
              "value": 0.15748031496062992
            }
          ],
          "94": [
            {
              "number": 94,
              "ticks": 207,
              "time": 1.9025715,
              "value": 0
            }
          ],
          "98": [
            {
              "number": 98,
              "ticks": 219,
              "time": 2.0128655,
              "value": 0.25196850393700787
            },
            {
              "number": 98,
              "ticks": 220,
              "time": 2.0220566666666664,
              "value": 0.25984251968503935
            },
            {
              "number": 98,
              "ticks": 221,
              "time": 2.0312478333333335,
              "value": 0.7795275590551181
            },
            {
              "number": 98,
              "ticks": 222,
              "time": 2.040439,
              "value": 0.7874015748031497
            },
            {
              "number": 98,
              "ticks": 223,
              "time": 2.0496301666666668,
              "value": 0.8031496062992126
            },
            {
              "number": 98,
              "ticks": 224,
              "time": 2.0588213333333334,
              "value": 0.06299212598425197
            },
            {
              "number": 98,
              "ticks": 225,
              "time": 2.0680125,
              "value": 0.07086614173228346
            },
            {
              "number": 98,
              "ticks": 226,
              "time": 2.0772036666666667,
              "value": 0.07874015748031496
            }
          ],
          "99": [
            {
              "number": 99,
              "ticks": 219,
              "time": 2.0128655,
              "value": 0.007874015748031496
            }
          ],
          "100": [
            {
              "number": 100,
              "ticks": 209,
              "time": 1.9209538333333336,
              "value": 0
            },
            {
              "number": 100,
              "ticks": 233,
              "time": 2.1415418333333336,
              "value": 1
            }
          ],
          "101": [
            {
              "number": 101,
              "ticks": 208,
              "time": 1.9117626666666665,
              "value": 0
            },
            {
              "number": 101,
              "ticks": 232,
              "time": 2.1323506666666665,
              "value": 1
            }
          ]
        },
        "pitchBends": [
          {
            "ticks": 215,
            "time": 1.9761008333333334,
            "value": 0
          },
          {
            "ticks": 5256,
            "time": 48.308772000000005,
            "value": -0.25
          },
          {
            "ticks": 5257,
            "time": 48.317963166666665,
            "value": -0.234375
          },
          {
            "ticks": 5258,
            "time": 48.32715433333334,
            "value": -0.21875
          },
          {
            "ticks": 5259,
            "time": 48.3363455,
            "value": -0.1875
          },
          {
            "ticks": 5260,
            "time": 48.34553666666667,
            "value": -0.171875
          },
          {
            "ticks": 5261,
            "time": 48.354727833333335,
            "value": -0.15625
          },
          {
            "ticks": 5262,
            "time": 48.363919,
            "value": -0.125
          },
          {
            "ticks": 5263,
            "time": 48.37311016666666,
            "value": -0.109375
          },
          {
            "ticks": 5264,
            "time": 48.38230133333334,
            "value": -0.09375
          },
          {
            "ticks": 5265,
            "time": 48.3914925,
            "value": -0.0625
          },
          {
            "ticks": 5266,
            "time": 48.400683666666666,
            "value": -0.046875
          },
          {
            "ticks": 5267,
            "time": 48.40987483333333,
            "value": -0.03125
          },
          {
            "ticks": 5268,
            "time": 48.419066,
            "value": 0
          },
          {
            "ticks": 5388,
            "time": 49.522006000000005,
            "value": -0.25
          },
          {
            "ticks": 5389,
            "time": 49.531197166666665,
            "value": -0.234375
          },
          {
            "ticks": 5390,
            "time": 49.54038833333334,
            "value": -0.21875
          },
          {
            "ticks": 5391,
            "time": 49.5495795,
            "value": -0.1875
          },
          {
            "ticks": 5392,
            "time": 49.55877066666667,
            "value": -0.171875
          },
          {
            "ticks": 5393,
            "time": 49.567961833333335,
            "value": -0.15625
          },
          {
            "ticks": 5394,
            "time": 49.577153,
            "value": -0.125
          },
          {
            "ticks": 5395,
            "time": 49.58634416666666,
            "value": -0.109375
          },
          {
            "ticks": 5396,
            "time": 49.59553533333334,
            "value": -0.09375
          },
          {
            "ticks": 5397,
            "time": 49.6047265,
            "value": -0.0625
          },
          {
            "ticks": 5398,
            "time": 49.613917666666666,
            "value": -0.046875
          },
          {
            "ticks": 5399,
            "time": 49.62310883333334,
            "value": -0.03125
          },
          {
            "ticks": 5400,
            "time": 49.6323,
            "value": 0
          },
          {
            "ticks": 5640,
            "time": 51.83818,
            "value": -0.25
          },
          {
            "ticks": 5641,
            "time": 51.84737116666667,
            "value": -0.234375
          },
          {
            "ticks": 5642,
            "time": 51.856562333333336,
            "value": -0.21875
          },
          {
            "ticks": 5643,
            "time": 51.865753500000004,
            "value": -0.1875
          },
          {
            "ticks": 5644,
            "time": 51.874944666666664,
            "value": -0.171875
          },
          {
            "ticks": 5645,
            "time": 51.88413583333334,
            "value": -0.15625
          },
          {
            "ticks": 5646,
            "time": 51.893327,
            "value": -0.125
          },
          {
            "ticks": 5647,
            "time": 51.90251816666667,
            "value": -0.109375
          },
          {
            "ticks": 5648,
            "time": 51.911709333333334,
            "value": -0.09375
          },
          {
            "ticks": 5649,
            "time": 51.9209005,
            "value": -0.0625
          },
          {
            "ticks": 5650,
            "time": 51.93009166666667,
            "value": -0.046875
          },
          {
            "ticks": 5651,
            "time": 51.93928283333334,
            "value": -0.03125
          },
          {
            "ticks": 5652,
            "time": 51.948474000000004,
            "value": 0
          },
          {
            "ticks": 5748,
            "time": 52.830826,
            "value": -0.25
          },
          {
            "ticks": 5749,
            "time": 52.84001716666667,
            "value": -0.234375
          },
          {
            "ticks": 5750,
            "time": 52.84920833333334,
            "value": -0.21875
          },
          {
            "ticks": 5751,
            "time": 52.858399500000004,
            "value": -0.1875
          },
          {
            "ticks": 5752,
            "time": 52.867590666666665,
            "value": -0.171875
          },
          {
            "ticks": 5753,
            "time": 52.87678183333334,
            "value": -0.15625
          },
          {
            "ticks": 5754,
            "time": 52.885973,
            "value": -0.125
          },
          {
            "ticks": 5755,
            "time": 52.89516416666667,
            "value": -0.109375
          },
          {
            "ticks": 5756,
            "time": 52.904355333333335,
            "value": -0.09375
          },
          {
            "ticks": 5757,
            "time": 52.9135465,
            "value": -0.0625
          },
          {
            "ticks": 5758,
            "time": 52.92273766666666,
            "value": -0.046875
          },
          {
            "ticks": 5759,
            "time": 52.93192883333334,
            "value": -0.03125
          },
          {
            "ticks": 5760,
            "time": 52.94112,
            "value": 0
          },
          {
            "ticks": 5808,
            "time": 53.382296000000004,
            "value": 0
          },
          {
            "ticks": 5833,
            "time": 53.61207516666666,
            "value": -0.03125
          },
          {
            "ticks": 5834,
            "time": 53.62126633333334,
            "value": -0.0625
          },
          {
            "ticks": 5835,
            "time": 53.6304575,
            "value": -0.09375
          },
          {
            "ticks": 5836,
            "time": 53.639648666666666,
            "value": -0.125
          },
          {
            "ticks": 5837,
            "time": 53.648839833333334,
            "value": -0.15625
          },
          {
            "ticks": 5838,
            "time": 53.658031,
            "value": -0.1875
          },
          {
            "ticks": 5839,
            "time": 53.66722216666667,
            "value": -0.21875
          },
          {
            "ticks": 5840,
            "time": 53.676413333333336,
            "value": -0.25
          },
          {
            "ticks": 5841,
            "time": 53.685604500000004,
            "value": -0.28125
          },
          {
            "ticks": 5842,
            "time": 53.694795666666664,
            "value": -0.3125
          },
          {
            "ticks": 5843,
            "time": 53.70398683333334,
            "value": -0.34375
          },
          {
            "ticks": 5844,
            "time": 53.713178,
            "value": -0.390625
          },
          {
            "ticks": 5845,
            "time": 53.72236916666667,
            "value": -0.421875
          },
          {
            "ticks": 5846,
            "time": 53.731560333333334,
            "value": -0.453125
          },
          {
            "ticks": 5847,
            "time": 53.7407515,
            "value": -0.484375
          },
          {
            "ticks": 5848,
            "time": 53.74994266666667,
            "value": -0.515625
          },
          {
            "ticks": 5849,
            "time": 53.75913383333334,
            "value": -0.546875
          },
          {
            "ticks": 5850,
            "time": 53.768325000000004,
            "value": -0.578125
          },
          {
            "ticks": 5851,
            "time": 53.777516166666665,
            "value": -0.609375
          },
          {
            "ticks": 5852,
            "time": 53.78670733333334,
            "value": -0.640625
          },
          {
            "ticks": 5853,
            "time": 53.7958985,
            "value": -0.671875
          },
          {
            "ticks": 5854,
            "time": 53.80508966666667,
            "value": -0.703125
          },
          {
            "ticks": 5855,
            "time": 53.814280833333335,
            "value": -0.75
          },
          {
            "ticks": 5856,
            "time": 53.823472,
            "value": 0
          },
          {
            "ticks": 6024,
            "time": 55.367588000000005,
            "value": -0.25
          },
          {
            "ticks": 6025,
            "time": 55.376779166666665,
            "value": -0.234375
          },
          {
            "ticks": 6026,
            "time": 55.38597033333334,
            "value": -0.21875
          },
          {
            "ticks": 6027,
            "time": 55.3951615,
            "value": -0.1875
          },
          {
            "ticks": 6028,
            "time": 55.40435266666667,
            "value": -0.171875
          },
          {
            "ticks": 6029,
            "time": 55.413543833333335,
            "value": -0.15625
          },
          {
            "ticks": 6030,
            "time": 55.422735,
            "value": -0.125
          },
          {
            "ticks": 6031,
            "time": 55.43192616666666,
            "value": -0.109375
          },
          {
            "ticks": 6032,
            "time": 55.44111733333334,
            "value": -0.09375
          },
          {
            "ticks": 6033,
            "time": 55.4503085,
            "value": -0.0625
          },
          {
            "ticks": 6034,
            "time": 55.459499666666666,
            "value": -0.046875
          },
          {
            "ticks": 6035,
            "time": 55.46869083333333,
            "value": -0.03125
          },
          {
            "ticks": 6036,
            "time": 55.477882,
            "value": 0
          },
          {
            "ticks": 6156,
            "time": 56.580822000000005,
            "value": -0.25
          },
          {
            "ticks": 6157,
            "time": 56.59001316666667,
            "value": -0.234375
          },
          {
            "ticks": 6158,
            "time": 56.59920433333333,
            "value": -0.21875
          },
          {
            "ticks": 6159,
            "time": 56.6083955,
            "value": -0.1875
          },
          {
            "ticks": 6160,
            "time": 56.617586666666675,
            "value": -0.171875
          },
          {
            "ticks": 6161,
            "time": 56.62677783333333,
            "value": -0.15625
          },
          {
            "ticks": 6162,
            "time": 56.635969,
            "value": -0.125
          },
          {
            "ticks": 6163,
            "time": 56.64516016666667,
            "value": -0.109375
          },
          {
            "ticks": 6164,
            "time": 56.65435133333333,
            "value": -0.09375
          },
          {
            "ticks": 6165,
            "time": 56.6635425,
            "value": -0.0625
          },
          {
            "ticks": 6166,
            "time": 56.67273366666667,
            "value": -0.046875
          },
          {
            "ticks": 6167,
            "time": 56.68192483333333,
            "value": -0.03125
          },
          {
            "ticks": 6168,
            "time": 56.691116,
            "value": 0
          },
          {
            "ticks": 6192,
            "time": 56.911704,
            "value": 0
          },
          {
            "ticks": 6217,
            "time": 57.141483166666674,
            "value": -0.03125
          },
          {
            "ticks": 6218,
            "time": 57.15067433333333,
            "value": -0.0625
          },
          {
            "ticks": 6219,
            "time": 57.1598655,
            "value": -0.109375
          },
          {
            "ticks": 6220,
            "time": 57.16905666666667,
            "value": -0.140625
          },
          {
            "ticks": 6221,
            "time": 57.17824783333333,
            "value": -0.1875
          },
          {
            "ticks": 6222,
            "time": 57.187439000000005,
            "value": -0.21875
          },
          {
            "ticks": 6223,
            "time": 57.19663016666667,
            "value": -0.265625
          },
          {
            "ticks": 6224,
            "time": 57.20582133333333,
            "value": -0.296875
          },
          {
            "ticks": 6225,
            "time": 57.2150125,
            "value": -0.328125
          },
          {
            "ticks": 6226,
            "time": 57.224203666666675,
            "value": -0.375
          },
          {
            "ticks": 6227,
            "time": 57.23339483333333,
            "value": -0.40625
          },
          {
            "ticks": 6228,
            "time": 57.242586,
            "value": -0.453125
          },
          {
            "ticks": 6229,
            "time": 57.25177716666667,
            "value": -0.484375
          },
          {
            "ticks": 6230,
            "time": 57.26096833333333,
            "value": -0.53125
          },
          {
            "ticks": 6231,
            "time": 57.2701595,
            "value": -0.5625
          },
          {
            "ticks": 6232,
            "time": 57.27935066666667,
            "value": -0.59375
          },
          {
            "ticks": 6233,
            "time": 57.28854183333333,
            "value": -0.640625
          },
          {
            "ticks": 6234,
            "time": 57.297733,
            "value": -0.671875
          },
          {
            "ticks": 6235,
            "time": 57.306924166666676,
            "value": -0.71875
          },
          {
            "ticks": 6236,
            "time": 57.31611533333333,
            "value": -0.75
          },
          {
            "ticks": 6237,
            "time": 57.3253065,
            "value": -0.796875
          },
          {
            "ticks": 6238,
            "time": 57.33449766666667,
            "value": -0.828125
          },
          {
            "ticks": 6239,
            "time": 57.34368883333333,
            "value": -0.875
          },
          {
            "ticks": 6240,
            "time": 57.35288,
            "value": 0
          },
          {
            "ticks": 6408,
            "time": 58.896996,
            "value": -0.25
          },
          {
            "ticks": 6409,
            "time": 58.90618716666667,
            "value": -0.234375
          },
          {
            "ticks": 6410,
            "time": 58.91537833333333,
            "value": -0.21875
          },
          {
            "ticks": 6411,
            "time": 58.924569500000004,
            "value": -0.1875
          },
          {
            "ticks": 6412,
            "time": 58.93376066666667,
            "value": -0.171875
          },
          {
            "ticks": 6413,
            "time": 58.94295183333333,
            "value": -0.15625
          },
          {
            "ticks": 6414,
            "time": 58.952143,
            "value": -0.125
          },
          {
            "ticks": 6415,
            "time": 58.961334166666674,
            "value": -0.109375
          },
          {
            "ticks": 6416,
            "time": 58.97052533333333,
            "value": -0.09375
          },
          {
            "ticks": 6417,
            "time": 58.9797165,
            "value": -0.0625
          },
          {
            "ticks": 6418,
            "time": 58.98890766666667,
            "value": -0.046875
          },
          {
            "ticks": 6419,
            "time": 58.99809883333333,
            "value": -0.03125
          },
          {
            "ticks": 6420,
            "time": 59.007290000000005,
            "value": 0
          },
          {
            "ticks": 6504,
            "time": 59.779348,
            "value": -0.25
          },
          {
            "ticks": 6505,
            "time": 59.78853916666667,
            "value": -0.234375
          },
          {
            "ticks": 6506,
            "time": 59.797730333333334,
            "value": -0.21875
          },
          {
            "ticks": 6507,
            "time": 59.8069215,
            "value": -0.1875
          },
          {
            "ticks": 6508,
            "time": 59.816112666666676,
            "value": -0.171875
          },
          {
            "ticks": 6509,
            "time": 59.82530383333333,
            "value": -0.140625
          },
          {
            "ticks": 6510,
            "time": 59.834495000000004,
            "value": -0.125
          },
          {
            "ticks": 6511,
            "time": 59.84368616666667,
            "value": -0.09375
          },
          {
            "ticks": 6512,
            "time": 59.85287733333333,
            "value": -0.078125
          },
          {
            "ticks": 6513,
            "time": 59.8620685,
            "value": -0.046875
          },
          {
            "ticks": 6514,
            "time": 59.871259666666674,
            "value": -0.03125
          },
          {
            "ticks": 6515,
            "time": 59.88045083333333,
            "value": 0
          },
          {
            "ticks": 6516,
            "time": 59.889642,
            "value": 0
          },
          {
            "ticks": 6600,
            "time": 60.6617,
            "value": -0.03125
          },
          {
            "ticks": 6601,
            "time": 60.67089116666667,
            "value": -0.0625
          },
          {
            "ticks": 6602,
            "time": 60.68008233333333,
            "value": -0.109375
          },
          {
            "ticks": 6603,
            "time": 60.6892735,
            "value": -0.140625
          },
          {
            "ticks": 6604,
            "time": 60.69846466666667,
            "value": -0.171875
          },
          {
            "ticks": 6605,
            "time": 60.707655833333334,
            "value": -0.21875
          },
          {
            "ticks": 6606,
            "time": 60.716847,
            "value": -0.25
          },
          {
            "ticks": 6607,
            "time": 60.726038166666676,
            "value": -0.28125
          },
          {
            "ticks": 6608,
            "time": 60.73522933333333,
            "value": -0.328125
          },
          {
            "ticks": 6609,
            "time": 60.744420500000004,
            "value": -0.359375
          },
          {
            "ticks": 6610,
            "time": 60.75361166666667,
            "value": -0.390625
          },
          {
            "ticks": 6611,
            "time": 60.76280283333333,
            "value": -0.4375
          },
          {
            "ticks": 6612,
            "time": 60.771994,
            "value": -0.46875
          },
          {
            "ticks": 6613,
            "time": 60.781185166666674,
            "value": -0.5
          },
          {
            "ticks": 6614,
            "time": 60.79037633333333,
            "value": -0.546875
          },
          {
            "ticks": 6615,
            "time": 60.7995675,
            "value": -0.578125
          },
          {
            "ticks": 6616,
            "time": 60.80875866666667,
            "value": -0.609375
          },
          {
            "ticks": 6617,
            "time": 60.81794983333333,
            "value": -0.65625
          },
          {
            "ticks": 6618,
            "time": 60.827141000000005,
            "value": -0.6875
          },
          {
            "ticks": 6619,
            "time": 60.83633216666667,
            "value": -0.71875
          },
          {
            "ticks": 6620,
            "time": 60.84552333333333,
            "value": -0.765625
          },
          {
            "ticks": 6621,
            "time": 60.8547145,
            "value": -0.796875
          },
          {
            "ticks": 6622,
            "time": 60.863905666666675,
            "value": -0.828125
          },
          {
            "ticks": 6623,
            "time": 60.87309683333333,
            "value": -0.875
          },
          {
            "ticks": 6624,
            "time": 60.882288,
            "value": 0
          },
          {
            "ticks": 7320,
            "time": 67.27934,
            "value": -0.25
          },
          {
            "ticks": 7321,
            "time": 67.28853116666667,
            "value": -0.234375
          },
          {
            "ticks": 7322,
            "time": 67.29772233333333,
            "value": -0.21875
          },
          {
            "ticks": 7323,
            "time": 67.30691350000001,
            "value": -0.1875
          },
          {
            "ticks": 7324,
            "time": 67.31610466666667,
            "value": -0.171875
          },
          {
            "ticks": 7325,
            "time": 67.32529583333333,
            "value": -0.15625
          },
          {
            "ticks": 7326,
            "time": 67.334487,
            "value": -0.125
          },
          {
            "ticks": 7327,
            "time": 67.34367816666668,
            "value": -0.109375
          },
          {
            "ticks": 7328,
            "time": 67.35286933333333,
            "value": -0.09375
          },
          {
            "ticks": 7329,
            "time": 67.3620605,
            "value": -0.0625
          },
          {
            "ticks": 7330,
            "time": 67.37125166666667,
            "value": -0.046875
          },
          {
            "ticks": 7331,
            "time": 67.38044283333333,
            "value": -0.03125
          },
          {
            "ticks": 7332,
            "time": 67.389634,
            "value": 0
          },
          {
            "ticks": 7344,
            "time": 67.499928,
            "value": 0
          },
          {
            "ticks": 7369,
            "time": 67.72970716666667,
            "value": -0.03125
          },
          {
            "ticks": 7370,
            "time": 67.73889833333332,
            "value": -0.0625
          },
          {
            "ticks": 7371,
            "time": 67.7480895,
            "value": -0.09375
          },
          {
            "ticks": 7372,
            "time": 67.75728066666667,
            "value": -0.125
          },
          {
            "ticks": 7373,
            "time": 67.76647183333333,
            "value": -0.15625
          },
          {
            "ticks": 7374,
            "time": 67.77566300000001,
            "value": -0.1875
          },
          {
            "ticks": 7375,
            "time": 67.78485416666668,
            "value": -0.21875
          },
          {
            "ticks": 7376,
            "time": 67.79404533333333,
            "value": -0.25
          },
          {
            "ticks": 7377,
            "time": 67.8032365,
            "value": -0.28125
          },
          {
            "ticks": 7378,
            "time": 67.81242766666668,
            "value": -0.3125
          },
          {
            "ticks": 7379,
            "time": 67.82161883333333,
            "value": -0.34375
          },
          {
            "ticks": 7380,
            "time": 67.83081,
            "value": -0.390625
          },
          {
            "ticks": 7381,
            "time": 67.84000116666667,
            "value": -0.421875
          },
          {
            "ticks": 7382,
            "time": 67.84919233333333,
            "value": -0.453125
          },
          {
            "ticks": 7383,
            "time": 67.8583835,
            "value": -0.484375
          },
          {
            "ticks": 7384,
            "time": 67.86757466666667,
            "value": -0.515625
          },
          {
            "ticks": 7385,
            "time": 67.87676583333334,
            "value": -0.546875
          },
          {
            "ticks": 7386,
            "time": 67.885957,
            "value": -0.578125
          },
          {
            "ticks": 7387,
            "time": 67.89514816666667,
            "value": -0.609375
          },
          {
            "ticks": 7388,
            "time": 67.90433933333333,
            "value": -0.640625
          },
          {
            "ticks": 7389,
            "time": 67.91353050000001,
            "value": -0.671875
          },
          {
            "ticks": 7390,
            "time": 67.92272166666667,
            "value": -0.703125
          },
          {
            "ticks": 7391,
            "time": 67.93191283333333,
            "value": -0.75
          },
          {
            "ticks": 7392,
            "time": 67.941104,
            "value": 0
          }
        ],
        "instrument": {
          "family": "bass",
          "number": 36,
          "name": "slap bass 1"
        },
        "name": "",
        "notes": [
          {
            "duration": 0.09191166666666684,
            "durationTicks": 10,
            "midi": 51,
            "name": "D#3",
            "ticks": 408,
            "time": 3.7499960000000003,
            "velocity": 0.8661417322834646
          },
          {
            "duration": 0.09191166666666684,
            "durationTicks": 10,
            "midi": 49,
            "name": "C#3",
            "ticks": 420,
            "time": 3.86029,
            "velocity": 0.8661417322834646
          },
          {
            "duration": 0.09191166666666684,
            "durationTicks": 10,
            "midi": 46,
            "name": "A#2",
            "ticks": 432,
            "time": 3.970584,
            "velocity": 0.8661417322834646
          },
          {
            "duration": 0.09191166666666639,
            "durationTicks": 10,
            "midi": 44,
            "name": "G#2",
            "ticks": 444,
            "time": 4.080878,
            "velocity": 0.8661417322834646
          },
          {
            "duration": 0.09191166666666728,
            "durationTicks": 10,
            "midi": 42,
            "name": "F#2",
            "ticks": 456,
            "time": 4.191172,
            "velocity": 0.8661417322834646
          },
          {
            "duration": 0.09191166666666639,
            "durationTicks": 10,
            "midi": 39,
            "name": "D#2",
            "ticks": 468,
            "time": 4.3014660000000005,
            "velocity": 0.8661417322834646
          },
          {
            "duration": 0.20220566666666695,
            "durationTicks": 22,
            "midi": 33,
            "name": "A1",
            "ticks": 480,
            "time": 4.41176,
            "velocity": 0.7874015748031497
          },
          {
            "duration": 0.20220566666666695,
            "durationTicks": 22,
            "midi": 28,
            "name": "E1",
            "ticks": 504,
            "time": 4.632348,
            "velocity": 0.7874015748031497
          },
          {
            "duration": 0.20220566666666695,
            "durationTicks": 22,
            "midi": 33,
            "name": "A1",
            "ticks": 528,
            "time": 4.852936,
            "velocity": 0.7874015748031497
          },
          {
            "duration": 0.09191166666666728,
            "durationTicks": 10,
            "midi": 28,
            "name": "E1",
            "ticks": 552,
            "time": 5.073524,
            "velocity": 0.7874015748031497
          },
          {
            "duration": 0.20220566666666695,
            "durationTicks": 22,
            "midi": 34,
            "name": "A#1",
            "ticks": 564,
            "time": 5.1838180000000005,
            "velocity": 0.7874015748031497
          },
          {
            "duration": 0.09191166666666728,
            "durationTicks": 10,
            "midi": 34,
            "name": "A#1",
            "ticks": 588,
            "time": 5.404406,
            "velocity": 0.7874015748031497
          },
          {
            "duration": 0.20220566666666695,
            "durationTicks": 22,
            "midi": 29,
            "name": "F1",
            "ticks": 600,
            "time": 5.5147,
            "velocity": 0.7874015748031497
          },
          {
            "duration": 0.20220566666666606,
            "durationTicks": 22,
            "midi": 34,
            "name": "A#1",
            "ticks": 624,
            "time": 5.735288000000001,
            "velocity": 0.7874015748031497
          },
          {
            "duration": 0.20220566666666695,
            "durationTicks": 22,
            "midi": 29,
            "name": "F1",
            "ticks": 648,
            "time": 5.955876,
            "velocity": 0.7874015748031497
          },
          {
            "duration": 0.20220566666666695,
            "durationTicks": 22,
            "midi": 33,
            "name": "A1",
            "ticks": 672,
            "time": 6.176464,
            "velocity": 0.7874015748031497
          },
          {
            "duration": 0.20220566666666695,
            "durationTicks": 22,
            "midi": 28,
            "name": "E1",
            "ticks": 696,
            "time": 6.397052,
            "velocity": 0.7874015748031497
          },
          {
            "duration": 0.20220566666666695,
            "durationTicks": 22,
            "midi": 33,
            "name": "A1",
            "ticks": 720,
            "time": 6.61764,
            "velocity": 0.7874015748031497
          },
          {
            "duration": 0.09191166666666728,
            "durationTicks": 10,
            "midi": 28,
            "name": "E1",
            "ticks": 744,
            "time": 6.838228,
            "velocity": 0.7874015748031497
          },
          {
            "duration": 0.20220566666666606,
            "durationTicks": 22,
            "midi": 36,
            "name": "C2",
            "ticks": 756,
            "time": 6.9485220000000005,
            "velocity": 0.7874015748031497
          },
          {
            "duration": 0.09191166666666639,
            "durationTicks": 10,
            "midi": 36,
            "name": "C2",
            "ticks": 780,
            "time": 7.16911,
            "velocity": 0.7874015748031497
          },
          {
            "duration": 0.20220566666666606,
            "durationTicks": 22,
            "midi": 31,
            "name": "G1",
            "ticks": 792,
            "time": 7.279404,
            "velocity": 0.7874015748031497
          },
          {
            "duration": 0.20220566666666606,
            "durationTicks": 22,
            "midi": 36,
            "name": "C2",
            "ticks": 816,
            "time": 7.499992000000001,
            "velocity": 0.7874015748031497
          },
          {
            "duration": 0.20220566666666606,
            "durationTicks": 22,
            "midi": 31,
            "name": "G1",
            "ticks": 840,
            "time": 7.72058,
            "velocity": 0.7874015748031497
          },
          {
            "duration": 0.20220566666666695,
            "durationTicks": 22,
            "midi": 33,
            "name": "A1",
            "ticks": 864,
            "time": 7.941168,
            "velocity": 0.7874015748031497
          },
          {
            "duration": 0.20220566666666606,
            "durationTicks": 22,
            "midi": 28,
            "name": "E1",
            "ticks": 888,
            "time": 8.161756,
            "velocity": 0.7874015748031497
          },
          {
            "duration": 0.20220566666666606,
            "durationTicks": 22,
            "midi": 33,
            "name": "A1",
            "ticks": 912,
            "time": 8.382344,
            "velocity": 0.7874015748031497
          },
          {
            "duration": 0.09191166666666462,
            "durationTicks": 10,
            "midi": 28,
            "name": "E1",
            "ticks": 936,
            "time": 8.602932000000001,
            "velocity": 0.7874015748031497
          },
          {
            "duration": 0.20220566666666606,
            "durationTicks": 22,
            "midi": 34,
            "name": "A#1",
            "ticks": 948,
            "time": 8.713226,
            "velocity": 0.7874015748031497
          },
          {
            "duration": 0.09191166666666639,
            "durationTicks": 10,
            "midi": 34,
            "name": "A#1",
            "ticks": 972,
            "time": 8.933814,
            "velocity": 0.7874015748031497
          },
          {
            "duration": 0.20220566666666606,
            "durationTicks": 22,
            "midi": 29,
            "name": "F1",
            "ticks": 984,
            "time": 9.044108,
            "velocity": 0.7874015748031497
          },
          {
            "duration": 0.20220566666666606,
            "durationTicks": 22,
            "midi": 34,
            "name": "A#1",
            "ticks": 1008,
            "time": 9.264696,
            "velocity": 0.7874015748031497
          },
          {
            "duration": 0.20220566666666606,
            "durationTicks": 22,
            "midi": 29,
            "name": "F1",
            "ticks": 1032,
            "time": 9.485284,
            "velocity": 0.7874015748031497
          },
          {
            "duration": 0.20220566666666784,
            "durationTicks": 22,
            "midi": 33,
            "name": "A1",
            "ticks": 1056,
            "time": 9.705872,
            "velocity": 0.7874015748031497
          },
          {
            "duration": 0.20220566666666606,
            "durationTicks": 22,
            "midi": 28,
            "name": "E1",
            "ticks": 1080,
            "time": 9.92646,
            "velocity": 0.7874015748031497
          },
          {
            "duration": 0.20220566666666606,
            "durationTicks": 22,
            "midi": 33,
            "name": "A1",
            "ticks": 1104,
            "time": 10.147048,
            "velocity": 0.7874015748031497
          },
          {
            "duration": 0.09191166666666462,
            "durationTicks": 10,
            "midi": 28,
            "name": "E1",
            "ticks": 1128,
            "time": 10.367636000000001,
            "velocity": 0.7874015748031497
          },
          {
            "duration": 0.20220566666666606,
            "durationTicks": 22,
            "midi": 40,
            "name": "E2",
            "ticks": 1140,
            "time": 10.47793,
            "velocity": 0.7874015748031497
          },
          {
            "duration": 0.09191166666666639,
            "durationTicks": 10,
            "midi": 38,
            "name": "D2",
            "ticks": 1164,
            "time": 10.698518,
            "velocity": 0.7874015748031497
          },
          {
            "duration": 0.20220566666666606,
            "durationTicks": 22,
            "midi": 37,
            "name": "C#2",
            "ticks": 1176,
            "time": 10.808812,
            "velocity": 0.7874015748031497
          },
          {
            "duration": 0.20220566666666606,
            "durationTicks": 22,
            "midi": 34,
            "name": "A#1",
            "ticks": 1200,
            "time": 11.0294,
            "velocity": 0.7874015748031497
          },
          {
            "duration": 0.20220566666666606,
            "durationTicks": 22,
            "midi": 29,
            "name": "F1",
            "ticks": 1224,
            "time": 11.249988,
            "velocity": 0.7874015748031497
          },
          {
            "duration": 0.20220566666666606,
            "durationTicks": 22,
            "midi": 33,
            "name": "A1",
            "ticks": 1248,
            "time": 11.470576000000001,
            "velocity": 0.7874015748031497
          },
          {
            "duration": 0.20220566666666606,
            "durationTicks": 22,
            "midi": 28,
            "name": "E1",
            "ticks": 1272,
            "time": 11.691164,
            "velocity": 0.7874015748031497
          },
          {
            "duration": 0.20220566666666606,
            "durationTicks": 22,
            "midi": 33,
            "name": "A1",
            "ticks": 1296,
            "time": 11.911752,
            "velocity": 0.7874015748031497
          },
          {
            "duration": 0.09191166666666462,
            "durationTicks": 10,
            "midi": 28,
            "name": "E1",
            "ticks": 1320,
            "time": 12.132340000000001,
            "velocity": 0.7874015748031497
          },
          {
            "duration": 0.20220566666666606,
            "durationTicks": 22,
            "midi": 34,
            "name": "A#1",
            "ticks": 1332,
            "time": 12.242634,
            "velocity": 0.7874015748031497
          },
          {
            "duration": 0.09191166666666639,
            "durationTicks": 10,
            "midi": 34,
            "name": "A#1",
            "ticks": 1356,
            "time": 12.463222,
            "velocity": 0.7874015748031497
          },
          {
            "duration": 0.20220566666666606,
            "durationTicks": 22,
            "midi": 29,
            "name": "F1",
            "ticks": 1368,
            "time": 12.573516,
            "velocity": 0.7874015748031497
          },
          {
            "duration": 0.20220566666666606,
            "durationTicks": 22,
            "midi": 34,
            "name": "A#1",
            "ticks": 1392,
            "time": 12.794104,
            "velocity": 0.7874015748031497
          },
          {
            "duration": 0.20220566666666606,
            "durationTicks": 22,
            "midi": 29,
            "name": "F1",
            "ticks": 1416,
            "time": 13.014692,
            "velocity": 0.7874015748031497
          },
          {
            "duration": 0.20220566666666784,
            "durationTicks": 22,
            "midi": 33,
            "name": "A1",
            "ticks": 1440,
            "time": 13.23528,
            "velocity": 0.7874015748031497
          },
          {
            "duration": 0.20220566666666606,
            "durationTicks": 22,
            "midi": 28,
            "name": "E1",
            "ticks": 1464,
            "time": 13.455868,
            "velocity": 0.7874015748031497
          },
          {
            "duration": 0.20220566666666606,
            "durationTicks": 22,
            "midi": 33,
            "name": "A1",
            "ticks": 1488,
            "time": 13.676456,
            "velocity": 0.7874015748031497
          },
          {
            "duration": 0.09191166666666462,
            "durationTicks": 10,
            "midi": 28,
            "name": "E1",
            "ticks": 1512,
            "time": 13.897044000000001,
            "velocity": 0.7874015748031497
          },
          {
            "duration": 0.20220566666666784,
            "durationTicks": 22,
            "midi": 36,
            "name": "C2",
            "ticks": 1524,
            "time": 14.007338,
            "velocity": 0.7874015748031497
          },
          {
            "duration": 0.09191166666666817,
            "durationTicks": 10,
            "midi": 36,
            "name": "C2",
            "ticks": 1548,
            "time": 14.227926,
            "velocity": 0.7874015748031497
          },
          {
            "duration": 0.20220566666666784,
            "durationTicks": 22,
            "midi": 31,
            "name": "G1",
            "ticks": 1560,
            "time": 14.33822,
            "velocity": 0.7874015748031497
          },
          {
            "duration": 0.20220566666666784,
            "durationTicks": 22,
            "midi": 36,
            "name": "C2",
            "ticks": 1584,
            "time": 14.558808,
            "velocity": 0.7874015748031497
          },
          {
            "duration": 0.20220566666666784,
            "durationTicks": 22,
            "midi": 31,
            "name": "G1",
            "ticks": 1608,
            "time": 14.779396,
            "velocity": 0.7874015748031497
          },
          {
            "duration": 0.20220566666666606,
            "durationTicks": 22,
            "midi": 33,
            "name": "A1",
            "ticks": 1632,
            "time": 14.999984000000001,
            "velocity": 0.7874015748031497
          },
          {
            "duration": 0.20220566666666784,
            "durationTicks": 22,
            "midi": 28,
            "name": "E1",
            "ticks": 1656,
            "time": 15.220572,
            "velocity": 0.7874015748031497
          },
          {
            "duration": 0.20220566666666784,
            "durationTicks": 22,
            "midi": 33,
            "name": "A1",
            "ticks": 1680,
            "time": 15.44116,
            "velocity": 0.7874015748031497
          },
          {
            "duration": 0.09191166666666639,
            "durationTicks": 10,
            "midi": 28,
            "name": "E1",
            "ticks": 1704,
            "time": 15.661748000000001,
            "velocity": 0.7874015748031497
          },
          {
            "duration": 0.20220566666666784,
            "durationTicks": 22,
            "midi": 34,
            "name": "A#1",
            "ticks": 1716,
            "time": 15.772042,
            "velocity": 0.7874015748031497
          },
          {
            "duration": 0.09191166666666639,
            "durationTicks": 10,
            "midi": 34,
            "name": "A#1",
            "ticks": 1740,
            "time": 15.99263,
            "velocity": 0.7874015748031497
          },
          {
            "duration": 0.20220566666666784,
            "durationTicks": 22,
            "midi": 29,
            "name": "F1",
            "ticks": 1752,
            "time": 16.102924,
            "velocity": 0.7874015748031497
          },
          {
            "duration": 0.20220566666666784,
            "durationTicks": 22,
            "midi": 34,
            "name": "A#1",
            "ticks": 1776,
            "time": 16.323512,
            "velocity": 0.7874015748031497
          },
          {
            "duration": 0.20220566666666784,
            "durationTicks": 22,
            "midi": 29,
            "name": "F1",
            "ticks": 1800,
            "time": 16.5441,
            "velocity": 0.7874015748031497
          },
          {
            "duration": 0.20220566666666784,
            "durationTicks": 22,
            "midi": 33,
            "name": "A1",
            "ticks": 1824,
            "time": 16.764688,
            "velocity": 0.7874015748031497
          },
          {
            "duration": 0.20220566666666784,
            "durationTicks": 22,
            "midi": 28,
            "name": "E1",
            "ticks": 1848,
            "time": 16.985276,
            "velocity": 0.7874015748031497
          },
          {
            "duration": 0.20220566666666784,
            "durationTicks": 22,
            "midi": 33,
            "name": "A1",
            "ticks": 1872,
            "time": 17.205864000000002,
            "velocity": 0.7874015748031497
          },
          {
            "duration": 0.09191166666666817,
            "durationTicks": 10,
            "midi": 28,
            "name": "E1",
            "ticks": 1896,
            "time": 17.426452,
            "velocity": 0.7874015748031497
          },
          {
            "duration": 0.20220566666666784,
            "durationTicks": 22,
            "midi": 40,
            "name": "E2",
            "ticks": 1908,
            "time": 17.536746,
            "velocity": 0.7874015748031497
          },
          {
            "duration": 0.09191166666666817,
            "durationTicks": 10,
            "midi": 38,
            "name": "D2",
            "ticks": 1932,
            "time": 17.757334,
            "velocity": 0.7874015748031497
          },
          {
            "duration": 0.20220566666666784,
            "durationTicks": 22,
            "midi": 37,
            "name": "C#2",
            "ticks": 1944,
            "time": 17.867628,
            "velocity": 0.7874015748031497
          },
          {
            "duration": 0.20220566666666784,
            "durationTicks": 22,
            "midi": 34,
            "name": "A#1",
            "ticks": 1968,
            "time": 18.088216,
            "velocity": 0.7874015748031497
          },
          {
            "duration": 0.20220566666666784,
            "durationTicks": 22,
            "midi": 29,
            "name": "F1",
            "ticks": 1992,
            "time": 18.308804000000002,
            "velocity": 0.7874015748031497
          },
          {
            "duration": 0.20220566666666784,
            "durationTicks": 22,
            "midi": 33,
            "name": "A1",
            "ticks": 2016,
            "time": 18.529392,
            "velocity": 0.7874015748031497
          },
          {
            "duration": 0.20220566666666784,
            "durationTicks": 22,
            "midi": 28,
            "name": "E1",
            "ticks": 2040,
            "time": 18.74998,
            "velocity": 0.7874015748031497
          },
          {
            "duration": 0.20220566666666784,
            "durationTicks": 22,
            "midi": 33,
            "name": "A1",
            "ticks": 2064,
            "time": 18.970568,
            "velocity": 0.7874015748031497
          },
          {
            "duration": 0.09191166666666817,
            "durationTicks": 10,
            "midi": 28,
            "name": "E1",
            "ticks": 2088,
            "time": 19.191156,
            "velocity": 0.7874015748031497
          },
          {
            "duration": 0.20220566666666784,
            "durationTicks": 22,
            "midi": 34,
            "name": "A#1",
            "ticks": 2100,
            "time": 19.30145,
            "velocity": 0.7874015748031497
          },
          {
            "duration": 0.09191166666666462,
            "durationTicks": 10,
            "midi": 34,
            "name": "A#1",
            "ticks": 2124,
            "time": 19.522038000000002,
            "velocity": 0.7874015748031497
          },
          {
            "duration": 0.20220566666666784,
            "durationTicks": 22,
            "midi": 29,
            "name": "F1",
            "ticks": 2136,
            "time": 19.632332,
            "velocity": 0.7874015748031497
          },
          {
            "duration": 0.20220566666666784,
            "durationTicks": 22,
            "midi": 34,
            "name": "A#1",
            "ticks": 2160,
            "time": 19.85292,
            "velocity": 0.7874015748031497
          },
          {
            "duration": 0.20220566666666784,
            "durationTicks": 22,
            "midi": 29,
            "name": "F1",
            "ticks": 2184,
            "time": 20.073508,
            "velocity": 0.7874015748031497
          },
          {
            "duration": 0.20220566666666784,
            "durationTicks": 22,
            "midi": 33,
            "name": "A1",
            "ticks": 2208,
            "time": 20.294096,
            "velocity": 0.7874015748031497
          },
          {
            "duration": 0.20220566666666784,
            "durationTicks": 22,
            "midi": 28,
            "name": "E1",
            "ticks": 2232,
            "time": 20.514684,
            "velocity": 0.7874015748031497
          },
          {
            "duration": 0.20220566666666784,
            "durationTicks": 22,
            "midi": 33,
            "name": "A1",
            "ticks": 2256,
            "time": 20.735272000000002,
            "velocity": 0.7874015748031497
          },
          {
            "duration": 0.09191166666666817,
            "durationTicks": 10,
            "midi": 28,
            "name": "E1",
            "ticks": 2280,
            "time": 20.95586,
            "velocity": 0.7874015748031497
          },
          {
            "duration": 0.20220566666666784,
            "durationTicks": 22,
            "midi": 36,
            "name": "C2",
            "ticks": 2292,
            "time": 21.066154,
            "velocity": 0.7874015748031497
          },
          {
            "duration": 0.09191166666666817,
            "durationTicks": 10,
            "midi": 36,
            "name": "C2",
            "ticks": 2316,
            "time": 21.286742,
            "velocity": 0.7874015748031497
          },
          {
            "duration": 0.20220566666666784,
            "durationTicks": 22,
            "midi": 31,
            "name": "G1",
            "ticks": 2328,
            "time": 21.397036,
            "velocity": 0.7874015748031497
          },
          {
            "duration": 0.20220566666666784,
            "durationTicks": 22,
            "midi": 36,
            "name": "C2",
            "ticks": 2352,
            "time": 21.617624,
            "velocity": 0.7874015748031497
          },
          {
            "duration": 0.20220566666666784,
            "durationTicks": 22,
            "midi": 31,
            "name": "G1",
            "ticks": 2376,
            "time": 21.838212000000002,
            "velocity": 0.7874015748031497
          },
          {
            "duration": 0.20220566666666784,
            "durationTicks": 22,
            "midi": 33,
            "name": "A1",
            "ticks": 2400,
            "time": 22.0588,
            "velocity": 0.7874015748031497
          },
          {
            "duration": 0.20220566666666784,
            "durationTicks": 22,
            "midi": 28,
            "name": "E1",
            "ticks": 2424,
            "time": 22.279388,
            "velocity": 0.7874015748031497
          },
          {
            "duration": 0.20220566666666784,
            "durationTicks": 22,
            "midi": 33,
            "name": "A1",
            "ticks": 2448,
            "time": 22.499976,
            "velocity": 0.7874015748031497
          },
          {
            "duration": 0.09191166666666817,
            "durationTicks": 10,
            "midi": 28,
            "name": "E1",
            "ticks": 2472,
            "time": 22.720564,
            "velocity": 0.7874015748031497
          },
          {
            "duration": 0.20220566666666784,
            "durationTicks": 22,
            "midi": 34,
            "name": "A#1",
            "ticks": 2484,
            "time": 22.830858,
            "velocity": 0.7874015748031497
          },
          {
            "duration": 0.09191166666666462,
            "durationTicks": 10,
            "midi": 34,
            "name": "A#1",
            "ticks": 2508,
            "time": 23.051446000000002,
            "velocity": 0.7874015748031497
          },
          {
            "duration": 0.20220566666666784,
            "durationTicks": 22,
            "midi": 29,
            "name": "F1",
            "ticks": 2520,
            "time": 23.16174,
            "velocity": 0.7874015748031497
          },
          {
            "duration": 0.20220566666666784,
            "durationTicks": 22,
            "midi": 34,
            "name": "A#1",
            "ticks": 2544,
            "time": 23.382328,
            "velocity": 0.7874015748031497
          },
          {
            "duration": 0.20220566666666784,
            "durationTicks": 22,
            "midi": 29,
            "name": "F1",
            "ticks": 2568,
            "time": 23.602916,
            "velocity": 0.7874015748031497
          },
          {
            "duration": 0.20220566666666784,
            "durationTicks": 22,
            "midi": 33,
            "name": "A1",
            "ticks": 2592,
            "time": 23.823504,
            "velocity": 0.7874015748031497
          },
          {
            "duration": 0.20220566666666784,
            "durationTicks": 22,
            "midi": 28,
            "name": "E1",
            "ticks": 2616,
            "time": 24.044092,
            "velocity": 0.7874015748031497
          },
          {
            "duration": 0.20220566666666784,
            "durationTicks": 22,
            "midi": 33,
            "name": "A1",
            "ticks": 2640,
            "time": 24.264680000000002,
            "velocity": 0.7874015748031497
          },
          {
            "duration": 0.09191166666666817,
            "durationTicks": 10,
            "midi": 28,
            "name": "E1",
            "ticks": 2664,
            "time": 24.485268,
            "velocity": 0.7874015748031497
          },
          {
            "duration": 0.20220566666666784,
            "durationTicks": 22,
            "midi": 40,
            "name": "E2",
            "ticks": 2676,
            "time": 24.595562,
            "velocity": 0.7874015748031497
          },
          {
            "duration": 0.09191166666666817,
            "durationTicks": 10,
            "midi": 38,
            "name": "D2",
            "ticks": 2700,
            "time": 24.81615,
            "velocity": 0.7874015748031497
          },
          {
            "duration": 0.20220566666666784,
            "durationTicks": 22,
            "midi": 37,
            "name": "C#2",
            "ticks": 2712,
            "time": 24.926444,
            "velocity": 0.7874015748031497
          },
          {
            "duration": 0.20220566666666784,
            "durationTicks": 22,
            "midi": 34,
            "name": "A#1",
            "ticks": 2736,
            "time": 25.147032,
            "velocity": 0.7874015748031497
          },
          {
            "duration": 0.20220566666666784,
            "durationTicks": 22,
            "midi": 29,
            "name": "F1",
            "ticks": 2760,
            "time": 25.367620000000002,
            "velocity": 0.7874015748031497
          },
          {
            "duration": 0.20220566666666784,
            "durationTicks": 22,
            "midi": 33,
            "name": "A1",
            "ticks": 2784,
            "time": 25.588208,
            "velocity": 0.7874015748031497
          },
          {
            "duration": 0.20220566666666784,
            "durationTicks": 22,
            "midi": 28,
            "name": "E1",
            "ticks": 2808,
            "time": 25.808796,
            "velocity": 0.7874015748031497
          },
          {
            "duration": 0.20220566666666784,
            "durationTicks": 22,
            "midi": 33,
            "name": "A1",
            "ticks": 2832,
            "time": 26.029384,
            "velocity": 0.7874015748031497
          },
          {
            "duration": 0.09191166666666817,
            "durationTicks": 10,
            "midi": 28,
            "name": "E1",
            "ticks": 2856,
            "time": 26.249972,
            "velocity": 0.7874015748031497
          },
          {
            "duration": 0.20220566666666784,
            "durationTicks": 22,
            "midi": 34,
            "name": "A#1",
            "ticks": 2868,
            "time": 26.360266,
            "velocity": 0.7874015748031497
          },
          {
            "duration": 0.09191166666666462,
            "durationTicks": 10,
            "midi": 34,
            "name": "A#1",
            "ticks": 2892,
            "time": 26.580854000000002,
            "velocity": 0.7874015748031497
          },
          {
            "duration": 0.20220566666666784,
            "durationTicks": 22,
            "midi": 29,
            "name": "F1",
            "ticks": 2904,
            "time": 26.691148000000002,
            "velocity": 0.7874015748031497
          },
          {
            "duration": 0.20220566666666784,
            "durationTicks": 22,
            "midi": 34,
            "name": "A#1",
            "ticks": 2928,
            "time": 26.911736,
            "velocity": 0.7874015748031497
          },
          {
            "duration": 0.20220566666666784,
            "durationTicks": 22,
            "midi": 29,
            "name": "F1",
            "ticks": 2952,
            "time": 27.132324,
            "velocity": 0.7874015748031497
          },
          {
            "duration": 0.20220566666666784,
            "durationTicks": 22,
            "midi": 33,
            "name": "A1",
            "ticks": 2976,
            "time": 27.352912,
            "velocity": 0.7874015748031497
          },
          {
            "duration": 0.20220566666666784,
            "durationTicks": 22,
            "midi": 28,
            "name": "E1",
            "ticks": 3000,
            "time": 27.5735,
            "velocity": 0.7874015748031497
          },
          {
            "duration": 0.20220566666666784,
            "durationTicks": 22,
            "midi": 33,
            "name": "A1",
            "ticks": 3024,
            "time": 27.794088000000002,
            "velocity": 0.7874015748031497
          },
          {
            "duration": 0.09191166666666817,
            "durationTicks": 10,
            "midi": 28,
            "name": "E1",
            "ticks": 3048,
            "time": 28.014676,
            "velocity": 0.7874015748031497
          },
          {
            "duration": 0.20220566666666429,
            "durationTicks": 22,
            "midi": 36,
            "name": "C2",
            "ticks": 3060,
            "time": 28.12497,
            "velocity": 0.7874015748031497
          },
          {
            "duration": 0.09191166666666462,
            "durationTicks": 10,
            "midi": 36,
            "name": "C2",
            "ticks": 3084,
            "time": 28.345558,
            "velocity": 0.7874015748031497
          },
          {
            "duration": 0.20220566666666429,
            "durationTicks": 22,
            "midi": 31,
            "name": "G1",
            "ticks": 3096,
            "time": 28.455852,
            "velocity": 0.7874015748031497
          },
          {
            "duration": 0.20220566666666429,
            "durationTicks": 22,
            "midi": 36,
            "name": "C2",
            "ticks": 3120,
            "time": 28.67644,
            "velocity": 0.7874015748031497
          },
          {
            "duration": 0.20220566666666429,
            "durationTicks": 22,
            "midi": 31,
            "name": "G1",
            "ticks": 3144,
            "time": 28.897028000000002,
            "velocity": 0.7874015748031497
          },
          {
            "duration": 0.20220566666666429,
            "durationTicks": 22,
            "midi": 33,
            "name": "A1",
            "ticks": 3168,
            "time": 29.117616,
            "velocity": 0.7874015748031497
          },
          {
            "duration": 0.20220566666666429,
            "durationTicks": 22,
            "midi": 28,
            "name": "E1",
            "ticks": 3192,
            "time": 29.338204,
            "velocity": 0.7874015748031497
          },
          {
            "duration": 0.20220566666666429,
            "durationTicks": 22,
            "midi": 33,
            "name": "A1",
            "ticks": 3216,
            "time": 29.558792,
            "velocity": 0.7874015748031497
          },
          {
            "duration": 0.09191166666666462,
            "durationTicks": 10,
            "midi": 28,
            "name": "E1",
            "ticks": 3240,
            "time": 29.77938,
            "velocity": 0.7874015748031497
          },
          {
            "duration": 0.20220566666666429,
            "durationTicks": 22,
            "midi": 34,
            "name": "A#1",
            "ticks": 3252,
            "time": 29.889674,
            "velocity": 0.7874015748031497
          },
          {
            "duration": 0.09191166666666462,
            "durationTicks": 10,
            "midi": 34,
            "name": "A#1",
            "ticks": 3276,
            "time": 30.110262000000002,
            "velocity": 0.7874015748031497
          },
          {
            "duration": 0.20220566666666429,
            "durationTicks": 22,
            "midi": 29,
            "name": "F1",
            "ticks": 3288,
            "time": 30.220556000000002,
            "velocity": 0.7874015748031497
          },
          {
            "duration": 0.20220566666666429,
            "durationTicks": 22,
            "midi": 34,
            "name": "A#1",
            "ticks": 3312,
            "time": 30.441144,
            "velocity": 0.7874015748031497
          },
          {
            "duration": 0.20220566666666429,
            "durationTicks": 22,
            "midi": 29,
            "name": "F1",
            "ticks": 3336,
            "time": 30.661732,
            "velocity": 0.7874015748031497
          },
          {
            "duration": 0.20220566666666429,
            "durationTicks": 22,
            "midi": 33,
            "name": "A1",
            "ticks": 3360,
            "time": 30.88232,
            "velocity": 0.7874015748031497
          },
          {
            "duration": 0.20220566666666784,
            "durationTicks": 22,
            "midi": 28,
            "name": "E1",
            "ticks": 3384,
            "time": 31.102908,
            "velocity": 0.7874015748031497
          },
          {
            "duration": 0.20220566666666429,
            "durationTicks": 22,
            "midi": 33,
            "name": "A1",
            "ticks": 3408,
            "time": 31.323496000000002,
            "velocity": 0.7874015748031497
          },
          {
            "duration": 0.09191166666666462,
            "durationTicks": 10,
            "midi": 28,
            "name": "E1",
            "ticks": 3432,
            "time": 31.544084,
            "velocity": 0.7874015748031497
          },
          {
            "duration": 0.20220566666666429,
            "durationTicks": 22,
            "midi": 40,
            "name": "E2",
            "ticks": 3444,
            "time": 31.654378,
            "velocity": 0.7874015748031497
          },
          {
            "duration": 0.09191166666666462,
            "durationTicks": 10,
            "midi": 38,
            "name": "D2",
            "ticks": 3468,
            "time": 31.874966,
            "velocity": 0.7874015748031497
          },
          {
            "duration": 0.20220566666666784,
            "durationTicks": 22,
            "midi": 37,
            "name": "C#2",
            "ticks": 3480,
            "time": 31.98526,
            "velocity": 0.7874015748031497
          },
          {
            "duration": 0.20220566666666429,
            "durationTicks": 22,
            "midi": 34,
            "name": "A#1",
            "ticks": 3504,
            "time": 32.205848,
            "velocity": 0.7874015748031497
          },
          {
            "duration": 0.20220566666666429,
            "durationTicks": 22,
            "midi": 29,
            "name": "F1",
            "ticks": 3528,
            "time": 32.426436,
            "velocity": 0.7874015748031497
          },
          {
            "duration": 0.20220566666666429,
            "durationTicks": 22,
            "midi": 33,
            "name": "A1",
            "ticks": 3552,
            "time": 32.647024,
            "velocity": 0.7874015748031497
          },
          {
            "duration": 0.20220566666666429,
            "durationTicks": 22,
            "midi": 28,
            "name": "E1",
            "ticks": 3576,
            "time": 32.867612,
            "velocity": 0.7874015748031497
          },
          {
            "duration": 0.20220566666666429,
            "durationTicks": 22,
            "midi": 33,
            "name": "A1",
            "ticks": 3600,
            "time": 33.0882,
            "velocity": 0.7874015748031497
          },
          {
            "duration": 0.09191166666666817,
            "durationTicks": 10,
            "midi": 28,
            "name": "E1",
            "ticks": 3624,
            "time": 33.308788,
            "velocity": 0.7874015748031497
          },
          {
            "duration": 0.20220566666666429,
            "durationTicks": 22,
            "midi": 34,
            "name": "A#1",
            "ticks": 3636,
            "time": 33.419082,
            "velocity": 0.7874015748031497
          },
          {
            "duration": 0.09191166666666106,
            "durationTicks": 10,
            "midi": 34,
            "name": "A#1",
            "ticks": 3660,
            "time": 33.63967,
            "velocity": 0.7874015748031497
          },
          {
            "duration": 0.20220566666666429,
            "durationTicks": 22,
            "midi": 29,
            "name": "F1",
            "ticks": 3672,
            "time": 33.749964,
            "velocity": 0.7874015748031497
          },
          {
            "duration": 0.20220566666666429,
            "durationTicks": 22,
            "midi": 34,
            "name": "A#1",
            "ticks": 3696,
            "time": 33.970552,
            "velocity": 0.7874015748031497
          },
          {
            "duration": 0.20220566666666429,
            "durationTicks": 22,
            "midi": 29,
            "name": "F1",
            "ticks": 3720,
            "time": 34.191140000000004,
            "velocity": 0.7874015748031497
          },
          {
            "duration": 0.20220566666666429,
            "durationTicks": 22,
            "midi": 33,
            "name": "A1",
            "ticks": 3744,
            "time": 34.411728000000004,
            "velocity": 0.7874015748031497
          },
          {
            "duration": 0.20220566666666429,
            "durationTicks": 22,
            "midi": 28,
            "name": "E1",
            "ticks": 3768,
            "time": 34.632316,
            "velocity": 0.7874015748031497
          },
          {
            "duration": 0.20220566666666429,
            "durationTicks": 22,
            "midi": 33,
            "name": "A1",
            "ticks": 3792,
            "time": 34.852904,
            "velocity": 0.7874015748031497
          },
          {
            "duration": 0.09191166666666106,
            "durationTicks": 10,
            "midi": 28,
            "name": "E1",
            "ticks": 3816,
            "time": 35.073492,
            "velocity": 0.7874015748031497
          },
          {
            "duration": 0.20220566666666429,
            "durationTicks": 22,
            "midi": 36,
            "name": "C2",
            "ticks": 3828,
            "time": 35.183786,
            "velocity": 0.7874015748031497
          },
          {
            "duration": 0.09191166666666106,
            "durationTicks": 10,
            "midi": 36,
            "name": "C2",
            "ticks": 3852,
            "time": 35.404374000000004,
            "velocity": 0.7874015748031497
          },
          {
            "duration": 0.20220566666666429,
            "durationTicks": 22,
            "midi": 31,
            "name": "G1",
            "ticks": 3864,
            "time": 35.514668,
            "velocity": 0.7874015748031497
          },
          {
            "duration": 0.20220566666666429,
            "durationTicks": 22,
            "midi": 36,
            "name": "C2",
            "ticks": 3888,
            "time": 35.735256,
            "velocity": 0.7874015748031497
          },
          {
            "duration": 0.20220566666666429,
            "durationTicks": 22,
            "midi": 31,
            "name": "G1",
            "ticks": 3912,
            "time": 35.955844,
            "velocity": 0.7874015748031497
          },
          {
            "duration": 0.20220566666666429,
            "durationTicks": 22,
            "midi": 33,
            "name": "A1",
            "ticks": 3936,
            "time": 36.176432,
            "velocity": 0.7874015748031497
          },
          {
            "duration": 0.2022056666666714,
            "durationTicks": 22,
            "midi": 28,
            "name": "E1",
            "ticks": 3960,
            "time": 36.39702,
            "velocity": 0.7874015748031497
          },
          {
            "duration": 0.20220566666666429,
            "durationTicks": 22,
            "midi": 33,
            "name": "A1",
            "ticks": 3984,
            "time": 36.617608000000004,
            "velocity": 0.7874015748031497
          },
          {
            "duration": 0.09191166666666106,
            "durationTicks": 10,
            "midi": 28,
            "name": "E1",
            "ticks": 4008,
            "time": 36.838196,
            "velocity": 0.7874015748031497
          },
          {
            "duration": 0.20220566666666429,
            "durationTicks": 22,
            "midi": 34,
            "name": "A#1",
            "ticks": 4020,
            "time": 36.94849,
            "velocity": 0.7874015748031497
          },
          {
            "duration": 0.09191166666666817,
            "durationTicks": 10,
            "midi": 34,
            "name": "A#1",
            "ticks": 4044,
            "time": 37.169078,
            "velocity": 0.7874015748031497
          },
          {
            "duration": 0.20220566666666429,
            "durationTicks": 22,
            "midi": 29,
            "name": "F1",
            "ticks": 4056,
            "time": 37.279372,
            "velocity": 0.7874015748031497
          },
          {
            "duration": 0.20220566666666429,
            "durationTicks": 22,
            "midi": 34,
            "name": "A#1",
            "ticks": 4080,
            "time": 37.49996,
            "velocity": 0.7874015748031497
          },
          {
            "duration": 0.20220566666666429,
            "durationTicks": 22,
            "midi": 29,
            "name": "F1",
            "ticks": 4104,
            "time": 37.720548,
            "velocity": 0.7874015748031497
          },
          {
            "duration": 0.20220566666666429,
            "durationTicks": 22,
            "midi": 33,
            "name": "A1",
            "ticks": 4128,
            "time": 37.941136,
            "velocity": 0.7874015748031497
          },
          {
            "duration": 0.20220566666666429,
            "durationTicks": 22,
            "midi": 28,
            "name": "E1",
            "ticks": 4152,
            "time": 38.161724,
            "velocity": 0.7874015748031497
          },
          {
            "duration": 0.20220566666666429,
            "durationTicks": 22,
            "midi": 33,
            "name": "A1",
            "ticks": 4176,
            "time": 38.382312,
            "velocity": 0.7874015748031497
          },
          {
            "duration": 0.09191166666666817,
            "durationTicks": 10,
            "midi": 28,
            "name": "E1",
            "ticks": 4200,
            "time": 38.6029,
            "velocity": 0.7874015748031497
          },
          {
            "duration": 0.20220566666666429,
            "durationTicks": 22,
            "midi": 40,
            "name": "E2",
            "ticks": 4212,
            "time": 38.713194,
            "velocity": 0.7874015748031497
          },
          {
            "duration": 0.09191166666666817,
            "durationTicks": 10,
            "midi": 38,
            "name": "D2",
            "ticks": 4236,
            "time": 38.933782,
            "velocity": 0.7874015748031497
          },
          {
            "duration": 0.20220566666666429,
            "durationTicks": 22,
            "midi": 37,
            "name": "C#2",
            "ticks": 4248,
            "time": 39.044076000000004,
            "velocity": 0.7874015748031497
          },
          {
            "duration": 0.20220566666666429,
            "durationTicks": 22,
            "midi": 34,
            "name": "A#1",
            "ticks": 4272,
            "time": 39.264664,
            "velocity": 0.7874015748031497
          },
          {
            "duration": 0.20220566666666429,
            "durationTicks": 22,
            "midi": 29,
            "name": "F1",
            "ticks": 4296,
            "time": 39.485252,
            "velocity": 0.7874015748031497
          },
          {
            "duration": 0.20220566666666429,
            "durationTicks": 22,
            "midi": 33,
            "name": "A1",
            "ticks": 4320,
            "time": 39.70584,
            "velocity": 0.7874015748031497
          },
          {
            "duration": 0.20220566666666429,
            "durationTicks": 22,
            "midi": 28,
            "name": "E1",
            "ticks": 4344,
            "time": 39.926428,
            "velocity": 0.7874015748031497
          },
          {
            "duration": 0.20220566666666429,
            "durationTicks": 22,
            "midi": 33,
            "name": "A1",
            "ticks": 4368,
            "time": 40.147016,
            "velocity": 0.7874015748031497
          },
          {
            "duration": 0.09191166666666817,
            "durationTicks": 10,
            "midi": 28,
            "name": "E1",
            "ticks": 4392,
            "time": 40.367604,
            "velocity": 0.7874015748031497
          },
          {
            "duration": 0.20220566666666429,
            "durationTicks": 22,
            "midi": 34,
            "name": "A#1",
            "ticks": 4404,
            "time": 40.477898,
            "velocity": 0.7874015748031497
          },
          {
            "duration": 0.09191166666666106,
            "durationTicks": 10,
            "midi": 34,
            "name": "A#1",
            "ticks": 4428,
            "time": 40.698486,
            "velocity": 0.7874015748031497
          },
          {
            "duration": 0.20220566666666429,
            "durationTicks": 22,
            "midi": 29,
            "name": "F1",
            "ticks": 4440,
            "time": 40.80878,
            "velocity": 0.7874015748031497
          },
          {
            "duration": 0.20220566666666429,
            "durationTicks": 22,
            "midi": 34,
            "name": "A#1",
            "ticks": 4464,
            "time": 41.029368,
            "velocity": 0.7874015748031497
          },
          {
            "duration": 0.20220566666666429,
            "durationTicks": 22,
            "midi": 29,
            "name": "F1",
            "ticks": 4488,
            "time": 41.249956000000005,
            "velocity": 0.7874015748031497
          },
          {
            "duration": 0.20220566666666429,
            "durationTicks": 22,
            "midi": 33,
            "name": "A1",
            "ticks": 4512,
            "time": 41.470544000000004,
            "velocity": 0.7874015748031497
          },
          {
            "duration": 0.20220566666666429,
            "durationTicks": 22,
            "midi": 28,
            "name": "E1",
            "ticks": 4536,
            "time": 41.691132,
            "velocity": 0.7874015748031497
          },
          {
            "duration": 0.20220566666666429,
            "durationTicks": 22,
            "midi": 33,
            "name": "A1",
            "ticks": 4560,
            "time": 41.91172,
            "velocity": 0.7874015748031497
          },
          {
            "duration": 0.09191166666666106,
            "durationTicks": 10,
            "midi": 28,
            "name": "E1",
            "ticks": 4584,
            "time": 42.132308,
            "velocity": 0.7874015748031497
          },
          {
            "duration": 0.20220566666666429,
            "durationTicks": 22,
            "midi": 36,
            "name": "C2",
            "ticks": 4596,
            "time": 42.242602,
            "velocity": 0.7874015748031497
          },
          {
            "duration": 0.09191166666666106,
            "durationTicks": 10,
            "midi": 36,
            "name": "C2",
            "ticks": 4620,
            "time": 42.463190000000004,
            "velocity": 0.7874015748031497
          },
          {
            "duration": 0.20220566666666429,
            "durationTicks": 22,
            "midi": 31,
            "name": "G1",
            "ticks": 4632,
            "time": 42.573484,
            "velocity": 0.7874015748031497
          },
          {
            "duration": 0.20220566666666429,
            "durationTicks": 22,
            "midi": 36,
            "name": "C2",
            "ticks": 4656,
            "time": 42.794072,
            "velocity": 0.7874015748031497
          },
          {
            "duration": 0.20220566666666429,
            "durationTicks": 22,
            "midi": 31,
            "name": "G1",
            "ticks": 4680,
            "time": 43.01466,
            "velocity": 0.7874015748031497
          },
          {
            "duration": 0.20220566666666429,
            "durationTicks": 22,
            "midi": 33,
            "name": "A1",
            "ticks": 4704,
            "time": 43.235248,
            "velocity": 0.7874015748031497
          },
          {
            "duration": 0.2022056666666714,
            "durationTicks": 22,
            "midi": 28,
            "name": "E1",
            "ticks": 4728,
            "time": 43.455836,
            "velocity": 0.7874015748031497
          },
          {
            "duration": 0.20220566666666429,
            "durationTicks": 22,
            "midi": 33,
            "name": "A1",
            "ticks": 4752,
            "time": 43.676424000000004,
            "velocity": 0.7874015748031497
          },
          {
            "duration": 0.09191166666666106,
            "durationTicks": 10,
            "midi": 28,
            "name": "E1",
            "ticks": 4776,
            "time": 43.897012000000004,
            "velocity": 0.7874015748031497
          },
          {
            "duration": 0.20220566666666429,
            "durationTicks": 22,
            "midi": 34,
            "name": "A#1",
            "ticks": 4788,
            "time": 44.007306,
            "velocity": 0.7874015748031497
          },
          {
            "duration": 0.09191166666666817,
            "durationTicks": 10,
            "midi": 34,
            "name": "A#1",
            "ticks": 4812,
            "time": 44.227894,
            "velocity": 0.7874015748031497
          },
          {
            "duration": 0.20220566666666429,
            "durationTicks": 22,
            "midi": 29,
            "name": "F1",
            "ticks": 4824,
            "time": 44.338188,
            "velocity": 0.7874015748031497
          },
          {
            "duration": 0.20220566666666429,
            "durationTicks": 22,
            "midi": 34,
            "name": "A#1",
            "ticks": 4848,
            "time": 44.558776,
            "velocity": 0.7874015748031497
          },
          {
            "duration": 0.20220566666666429,
            "durationTicks": 22,
            "midi": 29,
            "name": "F1",
            "ticks": 4872,
            "time": 44.779364,
            "velocity": 0.7874015748031497
          },
          {
            "duration": 0.20220566666666429,
            "durationTicks": 22,
            "midi": 33,
            "name": "A1",
            "ticks": 4896,
            "time": 44.999952,
            "velocity": 0.7874015748031497
          },
          {
            "duration": 0.20220566666666429,
            "durationTicks": 22,
            "midi": 28,
            "name": "E1",
            "ticks": 4920,
            "time": 45.22054,
            "velocity": 0.7874015748031497
          },
          {
            "duration": 0.20220566666666429,
            "durationTicks": 22,
            "midi": 33,
            "name": "A1",
            "ticks": 4944,
            "time": 45.441128,
            "velocity": 0.7874015748031497
          },
          {
            "duration": 0.09191166666666817,
            "durationTicks": 10,
            "midi": 28,
            "name": "E1",
            "ticks": 4968,
            "time": 45.661716,
            "velocity": 0.7874015748031497
          },
          {
            "duration": 0.20220566666666429,
            "durationTicks": 22,
            "midi": 40,
            "name": "E2",
            "ticks": 4980,
            "time": 45.77201,
            "velocity": 0.7874015748031497
          },
          {
            "duration": 0.09191166666666817,
            "durationTicks": 10,
            "midi": 38,
            "name": "D2",
            "ticks": 5004,
            "time": 45.992598,
            "velocity": 0.7874015748031497
          },
          {
            "duration": 0.20220566666666429,
            "durationTicks": 22,
            "midi": 37,
            "name": "C#2",
            "ticks": 5016,
            "time": 46.102892000000004,
            "velocity": 0.7874015748031497
          },
          {
            "duration": 0.09191166666666106,
            "durationTicks": 10,
            "midi": 35,
            "name": "B1",
            "ticks": 5040,
            "time": 46.32348,
            "velocity": 0.7874015748031497
          },
          {
            "duration": 0.3124996666666604,
            "durationTicks": 34,
            "midi": 29,
            "name": "F1",
            "ticks": 5088,
            "time": 46.764656,
            "velocity": 0.984251968503937
          },
          {
            "duration": 0.09191166666666106,
            "durationTicks": 10,
            "midi": 29,
            "name": "F1",
            "ticks": 5124,
            "time": 47.095538000000005,
            "velocity": 0.984251968503937
          },
          {
            "duration": 0.4227936666666636,
            "durationTicks": 46,
            "midi": 36,
            "name": "C2",
            "ticks": 5256,
            "time": 48.308772000000005,
            "velocity": 0.984251968503937
          },
          {
            "duration": 0.09191166666666106,
            "durationTicks": 10,
            "midi": 36,
            "name": "C2",
            "ticks": 5304,
            "time": 48.749948,
            "velocity": 0.984251968503937
          },
          {
            "duration": 0.09191166666666106,
            "durationTicks": 10,
            "midi": 39,
            "name": "D#2",
            "ticks": 5328,
            "time": 48.970536,
            "velocity": 0.984251968503937
          },
          {
            "duration": 0.20220566666666429,
            "durationTicks": 22,
            "midi": 43,
            "name": "G2",
            "ticks": 5340,
            "time": 49.08083,
            "velocity": 0.984251968503937
          },
          {
            "duration": 0.09191166666666817,
            "durationTicks": 10,
            "midi": 48,
            "name": "C3",
            "ticks": 5364,
            "time": 49.301418,
            "velocity": 0.984251968503937
          },
          {
            "duration": 0.3124996666666604,
            "durationTicks": 34,
            "midi": 50,
            "name": "D3",
            "ticks": 5388,
            "time": 49.522006000000005,
            "velocity": 0.984251968503937
          },
          {
            "duration": 0.09191166666666817,
            "durationTicks": 10,
            "midi": 46,
            "name": "A#2",
            "ticks": 5424,
            "time": 49.852888,
            "velocity": 0.984251968503937
          },
          {
            "duration": 0.3124996666666675,
            "durationTicks": 34,
            "midi": 31,
            "name": "G1",
            "ticks": 5472,
            "time": 50.294064,
            "velocity": 0.984251968503937
          },
          {
            "duration": 0.09191166666666817,
            "durationTicks": 10,
            "midi": 31,
            "name": "G1",
            "ticks": 5508,
            "time": 50.624946,
            "velocity": 0.984251968503937
          },
          {
            "duration": 0.4227936666666636,
            "durationTicks": 46,
            "midi": 38,
            "name": "D2",
            "ticks": 5640,
            "time": 51.83818,
            "velocity": 0.984251968503937
          },
          {
            "duration": 0.09191166666666817,
            "durationTicks": 10,
            "midi": 38,
            "name": "D2",
            "ticks": 5688,
            "time": 52.279356,
            "velocity": 0.984251968503937
          },
          {
            "duration": 0.09191166666666817,
            "durationTicks": 10,
            "midi": 45,
            "name": "A2",
            "ticks": 5712,
            "time": 52.499944,
            "velocity": 0.984251968503937
          },
          {
            "duration": 0.09191166666666106,
            "durationTicks": 10,
            "midi": 48,
            "name": "C3",
            "ticks": 5724,
            "time": 52.610238,
            "velocity": 0.984251968503937
          },
          {
            "duration": 0.20220566666666429,
            "durationTicks": 22,
            "midi": 52,
            "name": "E3",
            "ticks": 5748,
            "time": 52.830826,
            "velocity": 0.984251968503937
          },
          {
            "duration": 0.09191166666666817,
            "durationTicks": 10,
            "midi": 48,
            "name": "C3",
            "ticks": 5772,
            "time": 53.051414,
            "velocity": 0.984251968503937
          },
          {
            "duration": 0.20220566666666429,
            "durationTicks": 22,
            "midi": 45,
            "name": "A2",
            "ticks": 5784,
            "time": 53.161708000000004,
            "velocity": 0.984251968503937
          },
          {
            "duration": 0.4136024999999961,
            "durationTicks": 45,
            "midi": 38,
            "name": "D2",
            "ticks": 5808,
            "time": 53.382296000000004,
            "velocity": 0.984251968503937
          },
          {
            "duration": 0.3124996666666604,
            "durationTicks": 34,
            "midi": 32,
            "name": "G#1",
            "ticks": 5856,
            "time": 53.823472,
            "velocity": 0.984251968503937
          },
          {
            "duration": 0.09191166666666106,
            "durationTicks": 10,
            "midi": 32,
            "name": "G#1",
            "ticks": 5892,
            "time": 54.154354000000005,
            "velocity": 0.984251968503937
          },
          {
            "duration": 0.4227936666666636,
            "durationTicks": 46,
            "midi": 39,
            "name": "D#2",
            "ticks": 6024,
            "time": 55.367588000000005,
            "velocity": 0.984251968503937
          },
          {
            "duration": 0.09191166666666106,
            "durationTicks": 10,
            "midi": 39,
            "name": "D#2",
            "ticks": 6072,
            "time": 55.808764000000004,
            "velocity": 0.984251968503937
          },
          {
            "duration": 0.09191166666666106,
            "durationTicks": 10,
            "midi": 42,
            "name": "F#2",
            "ticks": 6096,
            "time": 56.029352,
            "velocity": 0.984251968503937
          },
          {
            "duration": 0.20220566666666429,
            "durationTicks": 22,
            "midi": 46,
            "name": "A#2",
            "ticks": 6108,
            "time": 56.139646,
            "velocity": 0.984251968503937
          },
          {
            "duration": 0.09191166666666817,
            "durationTicks": 10,
            "midi": 48,
            "name": "C3",
            "ticks": 6132,
            "time": 56.360234,
            "velocity": 0.984251968503937
          },
          {
            "duration": 0.3124996666666675,
            "durationTicks": 34,
            "midi": 50,
            "name": "D3",
            "ticks": 6156,
            "time": 56.580822000000005,
            "velocity": 0.984251968503937
          },
          {
            "duration": 0.4136025000000032,
            "durationTicks": 45,
            "midi": 46,
            "name": "A#2",
            "ticks": 6192,
            "time": 56.911704,
            "velocity": 0.984251968503937
          },
          {
            "duration": 0.3124996666666746,
            "durationTicks": 34,
            "midi": 29,
            "name": "F1",
            "ticks": 6240,
            "time": 57.35288,
            "velocity": 0.984251968503937
          },
          {
            "duration": 0.09191166666666817,
            "durationTicks": 10,
            "midi": 29,
            "name": "F1",
            "ticks": 6276,
            "time": 57.683762,
            "velocity": 0.984251968503937
          },
          {
            "duration": 0.8455873333333273,
            "durationTicks": 92,
            "midi": 34,
            "name": "A#1",
            "ticks": 6408,
            "time": 58.896996,
            "velocity": 0.984251968503937
          },
          {
            "duration": 1.0845576666666759,
            "durationTicks": 118,
            "midi": 46,
            "name": "A#2",
            "ticks": 6504,
            "time": 59.779348,
            "velocity": 0.984251968503937
          },
          {
            "duration": 0.3124996666666675,
            "durationTicks": 34,
            "midi": 33,
            "name": "A1",
            "ticks": 6624,
            "time": 60.882288,
            "velocity": 0.984251968503937
          },
          {
            "duration": 0.09191166666666817,
            "durationTicks": 10,
            "midi": 33,
            "name": "A1",
            "ticks": 6660,
            "time": 61.213170000000005,
            "velocity": 0.984251968503937
          },
          {
            "duration": 0.3124996666666675,
            "durationTicks": 34,
            "midi": 33,
            "name": "A1",
            "ticks": 7008,
            "time": 64.411696,
            "velocity": 0.984251968503937
          },
          {
            "duration": 0.09191166666666106,
            "durationTicks": 10,
            "midi": 33,
            "name": "A1",
            "ticks": 7044,
            "time": 64.74257800000001,
            "velocity": 0.984251968503937
          },
          {
            "duration": 0.6341905000000025,
            "durationTicks": 69,
            "midi": 46,
            "name": "A#2",
            "ticks": 7320,
            "time": 67.27934,
            "velocity": 0.984251968503937
          },
          {
            "duration": 0.3124996666666817,
            "durationTicks": 34,
            "midi": 33,
            "name": "A1",
            "ticks": 7392,
            "time": 67.941104,
            "velocity": 0.984251968503937
          },
          {
            "duration": 0.09191166666667527,
            "durationTicks": 10,
            "midi": 33,
            "name": "A1",
            "ticks": 7428,
            "time": 68.271986,
            "velocity": 0.984251968503937
          },
          {
            "duration": 0.3124996666666675,
            "durationTicks": 34,
            "midi": 33,
            "name": "A1",
            "ticks": 7776,
            "time": 71.470512,
            "velocity": 0.984251968503937
          },
          {
            "duration": 0.09191166666667527,
            "durationTicks": 10,
            "midi": 33,
            "name": "A1",
            "ticks": 7812,
            "time": 71.801394,
            "velocity": 0.984251968503937
          },
          {
            "duration": 0.09191166666667527,
            "durationTicks": 10,
            "midi": 51,
            "name": "D#3",
            "ticks": 8088,
            "time": 74.338156,
            "velocity": 0.8661417322834646
          },
          {
            "duration": 0.09191166666666106,
            "durationTicks": 10,
            "midi": 49,
            "name": "C#3",
            "ticks": 8100,
            "time": 74.44845000000001,
            "velocity": 0.8661417322834646
          },
          {
            "duration": 0.09191166666667527,
            "durationTicks": 10,
            "midi": 46,
            "name": "A#2",
            "ticks": 8112,
            "time": 74.558744,
            "velocity": 0.8661417322834646
          },
          {
            "duration": 0.09191166666667527,
            "durationTicks": 10,
            "midi": 44,
            "name": "G#2",
            "ticks": 8124,
            "time": 74.669038,
            "velocity": 0.8661417322834646
          },
          {
            "duration": 0.09191166666667527,
            "durationTicks": 10,
            "midi": 42,
            "name": "F#2",
            "ticks": 8136,
            "time": 74.779332,
            "velocity": 0.8661417322834646
          },
          {
            "duration": 0.09191166666666106,
            "durationTicks": 10,
            "midi": 39,
            "name": "D#2",
            "ticks": 8148,
            "time": 74.889626,
            "velocity": 0.8661417322834646
          },
          {
            "duration": 0.2022056666666714,
            "durationTicks": 22,
            "midi": 33,
            "name": "A1",
            "ticks": 8160,
            "time": 74.99992,
            "velocity": 0.7874015748031497
          },
          {
            "duration": 0.2022056666666714,
            "durationTicks": 22,
            "midi": 28,
            "name": "E1",
            "ticks": 8184,
            "time": 75.220508,
            "velocity": 0.7874015748031497
          },
          {
            "duration": 0.2022056666666714,
            "durationTicks": 22,
            "midi": 33,
            "name": "A1",
            "ticks": 8208,
            "time": 75.441096,
            "velocity": 0.7874015748031497
          },
          {
            "duration": 0.09191166666666106,
            "durationTicks": 10,
            "midi": 28,
            "name": "E1",
            "ticks": 8232,
            "time": 75.66168400000001,
            "velocity": 0.7874015748031497
          },
          {
            "duration": 0.2022056666666714,
            "durationTicks": 22,
            "midi": 34,
            "name": "A#1",
            "ticks": 8244,
            "time": 75.771978,
            "velocity": 0.7874015748031497
          },
          {
            "duration": 0.09191166666667527,
            "durationTicks": 10,
            "midi": 34,
            "name": "A#1",
            "ticks": 8268,
            "time": 75.992566,
            "velocity": 0.7874015748031497
          },
          {
            "duration": 0.2022056666666714,
            "durationTicks": 22,
            "midi": 29,
            "name": "F1",
            "ticks": 8280,
            "time": 76.10286,
            "velocity": 0.7874015748031497
          },
          {
            "duration": 0.2022056666666714,
            "durationTicks": 22,
            "midi": 34,
            "name": "A#1",
            "ticks": 8304,
            "time": 76.323448,
            "velocity": 0.7874015748031497
          },
          {
            "duration": 0.2022056666666714,
            "durationTicks": 22,
            "midi": 29,
            "name": "F1",
            "ticks": 8328,
            "time": 76.544036,
            "velocity": 0.7874015748031497
          },
          {
            "duration": 0.2022056666666714,
            "durationTicks": 22,
            "midi": 33,
            "name": "A1",
            "ticks": 8352,
            "time": 76.764624,
            "velocity": 0.7874015748031497
          },
          {
            "duration": 0.2022056666666714,
            "durationTicks": 22,
            "midi": 28,
            "name": "E1",
            "ticks": 8376,
            "time": 76.985212,
            "velocity": 0.7874015748031497
          },
          {
            "duration": 0.2022056666666714,
            "durationTicks": 22,
            "midi": 33,
            "name": "A1",
            "ticks": 8400,
            "time": 77.2058,
            "velocity": 0.7874015748031497
          },
          {
            "duration": 0.09191166666667527,
            "durationTicks": 10,
            "midi": 28,
            "name": "E1",
            "ticks": 8424,
            "time": 77.426388,
            "velocity": 0.7874015748031497
          },
          {
            "duration": 0.2022056666666714,
            "durationTicks": 22,
            "midi": 36,
            "name": "C2",
            "ticks": 8436,
            "time": 77.536682,
            "velocity": 0.7874015748031497
          },
          {
            "duration": 0.09191166666666106,
            "durationTicks": 10,
            "midi": 36,
            "name": "C2",
            "ticks": 8460,
            "time": 77.75727,
            "velocity": 0.7874015748031497
          },
          {
            "duration": 0.2022056666666714,
            "durationTicks": 22,
            "midi": 31,
            "name": "G1",
            "ticks": 8472,
            "time": 77.867564,
            "velocity": 0.7874015748031497
          },
          {
            "duration": 0.2022056666666714,
            "durationTicks": 22,
            "midi": 36,
            "name": "C2",
            "ticks": 8496,
            "time": 78.08815200000001,
            "velocity": 0.7874015748031497
          },
          {
            "duration": 0.2022056666666714,
            "durationTicks": 22,
            "midi": 31,
            "name": "G1",
            "ticks": 8520,
            "time": 78.30874,
            "velocity": 0.7874015748031497
          },
          {
            "duration": 0.2022056666666714,
            "durationTicks": 22,
            "midi": 33,
            "name": "A1",
            "ticks": 8544,
            "time": 78.529328,
            "velocity": 0.7874015748031497
          },
          {
            "duration": 0.2022056666666714,
            "durationTicks": 22,
            "midi": 28,
            "name": "E1",
            "ticks": 8568,
            "time": 78.749916,
            "velocity": 0.7874015748031497
          },
          {
            "duration": 0.2022056666666714,
            "durationTicks": 22,
            "midi": 33,
            "name": "A1",
            "ticks": 8592,
            "time": 78.970504,
            "velocity": 0.7874015748031497
          },
          {
            "duration": 0.09191166666667527,
            "durationTicks": 10,
            "midi": 28,
            "name": "E1",
            "ticks": 8616,
            "time": 79.191092,
            "velocity": 0.7874015748031497
          },
          {
            "duration": 0.2022056666666714,
            "durationTicks": 22,
            "midi": 34,
            "name": "A#1",
            "ticks": 8628,
            "time": 79.30138600000001,
            "velocity": 0.7874015748031497
          },
          {
            "duration": 0.09191166666667527,
            "durationTicks": 10,
            "midi": 34,
            "name": "A#1",
            "ticks": 8652,
            "time": 79.521974,
            "velocity": 0.7874015748031497
          },
          {
            "duration": 0.2022056666666714,
            "durationTicks": 22,
            "midi": 29,
            "name": "F1",
            "ticks": 8664,
            "time": 79.632268,
            "velocity": 0.7874015748031497
          },
          {
            "duration": 0.2022056666666714,
            "durationTicks": 22,
            "midi": 34,
            "name": "A#1",
            "ticks": 8688,
            "time": 79.852856,
            "velocity": 0.7874015748031497
          },
          {
            "duration": 0.20220566666665718,
            "durationTicks": 22,
            "midi": 29,
            "name": "F1",
            "ticks": 8712,
            "time": 80.07344400000001,
            "velocity": 0.7874015748031497
          },
          {
            "duration": 0.2022056666666714,
            "durationTicks": 22,
            "midi": 33,
            "name": "A1",
            "ticks": 8736,
            "time": 80.294032,
            "velocity": 0.7874015748031497
          },
          {
            "duration": 0.2022056666666714,
            "durationTicks": 22,
            "midi": 28,
            "name": "E1",
            "ticks": 8760,
            "time": 80.51462000000001,
            "velocity": 0.7874015748031497
          },
          {
            "duration": 0.2022056666666714,
            "durationTicks": 22,
            "midi": 33,
            "name": "A1",
            "ticks": 8784,
            "time": 80.735208,
            "velocity": 0.7874015748031497
          },
          {
            "duration": 0.09191166666666106,
            "durationTicks": 10,
            "midi": 28,
            "name": "E1",
            "ticks": 8808,
            "time": 80.955796,
            "velocity": 0.7874015748031497
          },
          {
            "duration": 0.2022056666666714,
            "durationTicks": 22,
            "midi": 40,
            "name": "E2",
            "ticks": 8820,
            "time": 81.06609,
            "velocity": 0.7874015748031497
          },
          {
            "duration": 0.09191166666666106,
            "durationTicks": 10,
            "midi": 38,
            "name": "D2",
            "ticks": 8844,
            "time": 81.28667800000001,
            "velocity": 0.7874015748031497
          },
          {
            "duration": 0.2022056666666714,
            "durationTicks": 22,
            "midi": 37,
            "name": "C#2",
            "ticks": 8856,
            "time": 81.396972,
            "velocity": 0.7874015748031497
          },
          {
            "duration": 0.2022056666666714,
            "durationTicks": 22,
            "midi": 34,
            "name": "A#1",
            "ticks": 8880,
            "time": 81.61756,
            "velocity": 0.7874015748031497
          },
          {
            "duration": 0.2022056666666714,
            "durationTicks": 22,
            "midi": 29,
            "name": "F1",
            "ticks": 8904,
            "time": 81.838148,
            "velocity": 0.7874015748031497
          }
        ]
      },
      {
        "channel": 0,
        "controlChanges": {
          "0": [
            {
              "number": 0,
              "ticks": 202,
              "time": 1.8566156666666667,
              "value": 0.06299212598425197
            }
          ],
          "32": [
            {
              "number": 32,
              "ticks": 203,
              "time": 1.8658068333333335,
              "value": 0.015748031496062992
            }
          ]
        },
        "pitchBends": [],
        "instrument": {
          "family": "piano",
          "number": 0,
          "name": "acoustic grand piano"
        },
        "name": "x[X\u0000",
        "notes": [],
        "endOfTrackTicks": 8928
      },
      {
        "channel": 2,
        "controlChanges": {
          "1": [
            {
              "number": 1,
              "ticks": 214,
              "time": 1.9669096666666666,
              "value": 0
            }
          ],
          "5": [
            {
              "number": 5,
              "ticks": 218,
              "time": 2.0036743333333336,
              "value": 0
            }
          ],
          "6": [
            {
              "number": 6,
              "ticks": 210,
              "time": 1.930145,
              "value": 0.015748031496062992
            },
            {
              "number": 6,
              "ticks": 219,
              "time": 2.0128655,
              "value": 0.5039370078740157
            },
            {
              "number": 6,
              "ticks": 220,
              "time": 2.0220566666666664,
              "value": 0.5039370078740157
            },
            {
              "number": 6,
              "ticks": 221,
              "time": 2.0312478333333335,
              "value": 0.5039370078740157
            },
            {
              "number": 6,
              "ticks": 222,
              "time": 2.040439,
              "value": 0.5039370078740157
            },
            {
              "number": 6,
              "ticks": 223,
              "time": 2.0496301666666668,
              "value": 0.5039370078740157
            },
            {
              "number": 6,
              "ticks": 224,
              "time": 2.0588213333333334,
              "value": 0.5039370078740157
            },
            {
              "number": 6,
              "ticks": 225,
              "time": 2.0680125,
              "value": 0.5039370078740157
            },
            {
              "number": 6,
              "ticks": 226,
              "time": 2.0772036666666667,
              "value": 0.5039370078740157
            }
          ],
          "7": [
            {
              "number": 7,
              "ticks": 211,
              "time": 1.9393361666666666,
              "value": 0.7952755905511811
            },
            {
              "number": 7,
              "ticks": 8208,
              "time": 75.441096,
              "value": 0.7952755905511811
            },
            {
              "number": 7,
              "ticks": 8256,
              "time": 75.882272,
              "value": 0.7401574803149606
            },
            {
              "number": 7,
              "ticks": 8304,
              "time": 76.323448,
              "value": 0.6929133858267716
            },
            {
              "number": 7,
              "ticks": 8352,
              "time": 76.764624,
              "value": 0.6456692913385826
            },
            {
              "number": 7,
              "ticks": 8400,
              "time": 77.2058,
              "value": 0.5905511811023622
            },
            {
              "number": 7,
              "ticks": 8448,
              "time": 77.646976,
              "value": 0.5433070866141733
            },
            {
              "number": 7,
              "ticks": 8496,
              "time": 78.08815200000001,
              "value": 0.49606299212598426
            },
            {
              "number": 7,
              "ticks": 8544,
              "time": 78.529328,
              "value": 0.4409448818897638
            },
            {
              "number": 7,
              "ticks": 8592,
              "time": 78.970504,
              "value": 0.3937007874015748
            },
            {
              "number": 7,
              "ticks": 8640,
              "time": 79.41168,
              "value": 0.3464566929133858
            },
            {
              "number": 7,
              "ticks": 8688,
              "time": 79.852856,
              "value": 0.29133858267716534
            },
            {
              "number": 7,
              "ticks": 8736,
              "time": 80.294032,
              "value": 0.2440944881889764
            },
            {
              "number": 7,
              "ticks": 8784,
              "time": 80.735208,
              "value": 0.1968503937007874
            },
            {
              "number": 7,
              "ticks": 8832,
              "time": 81.176384,
              "value": 0.14173228346456693
            },
            {
              "number": 7,
              "ticks": 8880,
              "time": 81.61756,
              "value": 0.09448818897637795
            },
            {
              "number": 7,
              "ticks": 8928,
              "time": 82.058736,
              "value": 0.047244094488188976
            }
          ],
          "10": [
            {
              "number": 10,
              "ticks": 213,
              "time": 1.9577185000000001,
              "value": 0.5039370078740157
            }
          ],
          "11": [
            {
              "number": 11,
              "ticks": 212,
              "time": 1.9485273333333335,
              "value": 1
            }
          ],
          "64": [
            {
              "number": 64,
              "ticks": 216,
              "time": 1.985292,
              "value": 0
            }
          ],
          "65": [
            {
              "number": 65,
              "ticks": 217,
              "time": 1.9944831666666667,
              "value": 0
            }
          ],
          "91": [
            {
              "number": 91,
              "ticks": 205,
              "time": 1.8841891666666666,
              "value": 0.6299212598425197
            }
          ],
          "93": [
            {
              "number": 93,
              "ticks": 206,
              "time": 1.8933803333333334,
              "value": 0.15748031496062992
            }
          ],
          "94": [
            {
              "number": 94,
              "ticks": 207,
              "time": 1.9025715,
              "value": 0
            }
          ],
          "98": [
            {
              "number": 98,
              "ticks": 219,
              "time": 2.0128655,
              "value": 0.25196850393700787
            },
            {
              "number": 98,
              "ticks": 220,
              "time": 2.0220566666666664,
              "value": 0.25984251968503935
            },
            {
              "number": 98,
              "ticks": 221,
              "time": 2.0312478333333335,
              "value": 0.7795275590551181
            },
            {
              "number": 98,
              "ticks": 222,
              "time": 2.040439,
              "value": 0.7874015748031497
            },
            {
              "number": 98,
              "ticks": 223,
              "time": 2.0496301666666668,
              "value": 0.8031496062992126
            },
            {
              "number": 98,
              "ticks": 224,
              "time": 2.0588213333333334,
              "value": 0.06299212598425197
            },
            {
              "number": 98,
              "ticks": 225,
              "time": 2.0680125,
              "value": 0.07086614173228346
            },
            {
              "number": 98,
              "ticks": 226,
              "time": 2.0772036666666667,
              "value": 0.07874015748031496
            }
          ],
          "99": [
            {
              "number": 99,
              "ticks": 219,
              "time": 2.0128655,
              "value": 0.007874015748031496
            }
          ],
          "100": [
            {
              "number": 100,
              "ticks": 209,
              "time": 1.9209538333333336,
              "value": 0
            },
            {
              "number": 100,
              "ticks": 233,
              "time": 2.1415418333333336,
              "value": 1
            }
          ],
          "101": [
            {
              "number": 101,
              "ticks": 208,
              "time": 1.9117626666666665,
              "value": 0
            },
            {
              "number": 101,
              "ticks": 232,
              "time": 2.1323506666666665,
              "value": 1
            }
          ]
        },
        "pitchBends": [
          {
            "ticks": 215,
            "time": 1.9761008333333334,
            "value": 0
          }
        ],
        "instrument": {
          "family": "guitar",
          "number": 28,
          "name": "electric guitar (muted)"
        },
        "name": "",
        "notes": [
          {
            "duration": 0.09191166666666728,
            "durationTicks": 10,
            "midi": 33,
            "name": "A1",
            "ticks": 480,
            "time": 4.41176,
            "velocity": 0.8267716535433071
          },
          {
            "duration": 0.09191166666666639,
            "durationTicks": 10,
            "midi": 33,
            "name": "A1",
            "ticks": 504,
            "time": 4.632348,
            "velocity": 0.8267716535433071
          },
          {
            "duration": 0.09191166666666728,
            "durationTicks": 10,
            "midi": 45,
            "name": "A2",
            "ticks": 516,
            "time": 4.742642,
            "velocity": 0.8267716535433071
          },
          {
            "duration": 0.09191166666666728,
            "durationTicks": 10,
            "midi": 33,
            "name": "A1",
            "ticks": 672,
            "time": 6.176464,
            "velocity": 0.8267716535433071
          },
          {
            "duration": 0.09191166666666639,
            "durationTicks": 10,
            "midi": 33,
            "name": "A1",
            "ticks": 696,
            "time": 6.397052,
            "velocity": 0.8267716535433071
          },
          {
            "duration": 0.09191166666666728,
            "durationTicks": 10,
            "midi": 45,
            "name": "A2",
            "ticks": 708,
            "time": 6.507346,
            "velocity": 0.8267716535433071
          },
          {
            "duration": 0.09191166666666639,
            "durationTicks": 10,
            "midi": 36,
            "name": "C2",
            "ticks": 768,
            "time": 7.058816,
            "velocity": 0.8267716535433071
          },
          {
            "duration": 0.0919116666666655,
            "durationTicks": 10,
            "midi": 36,
            "name": "C2",
            "ticks": 792,
            "time": 7.279404,
            "velocity": 0.8267716535433071
          },
          {
            "duration": 0.0919116666666655,
            "durationTicks": 10,
            "midi": 48,
            "name": "C3",
            "ticks": 816,
            "time": 7.499992000000001,
            "velocity": 0.8267716535433071
          },
          {
            "duration": 0.20220566666666606,
            "durationTicks": 22,
            "midi": 36,
            "name": "C2",
            "ticks": 828,
            "time": 7.610286,
            "velocity": 0.8267716535433071
          },
          {
            "duration": 0.0919116666666655,
            "durationTicks": 10,
            "midi": 33,
            "name": "A1",
            "ticks": 852,
            "time": 7.830874000000001,
            "velocity": 0.8267716535433071
          },
          {
            "duration": 0.0919116666666655,
            "durationTicks": 10,
            "midi": 33,
            "name": "A1",
            "ticks": 864,
            "time": 7.941168,
            "velocity": 0.8267716535433071
          },
          {
            "duration": 0.09191166666666639,
            "durationTicks": 10,
            "midi": 33,
            "name": "A1",
            "ticks": 888,
            "time": 8.161756,
            "velocity": 0.8267716535433071
          },
          {
            "duration": 0.09191166666666639,
            "durationTicks": 10,
            "midi": 45,
            "name": "A2",
            "ticks": 900,
            "time": 8.27205,
            "velocity": 0.8267716535433071
          },
          {
            "duration": 0.09191166666666639,
            "durationTicks": 10,
            "midi": 33,
            "name": "A1",
            "ticks": 1056,
            "time": 9.705872,
            "velocity": 0.8267716535433071
          },
          {
            "duration": 0.09191166666666639,
            "durationTicks": 10,
            "midi": 33,
            "name": "A1",
            "ticks": 1080,
            "time": 9.92646,
            "velocity": 0.8267716535433071
          },
          {
            "duration": 0.09191166666666639,
            "durationTicks": 10,
            "midi": 45,
            "name": "A2",
            "ticks": 1092,
            "time": 10.036754,
            "velocity": 0.8267716535433071
          },
          {
            "duration": 0.09191166666666639,
            "durationTicks": 10,
            "midi": 31,
            "name": "G1",
            "ticks": 1176,
            "time": 10.808812,
            "velocity": 0.8267716535433071
          },
          {
            "duration": 0.09191166666666639,
            "durationTicks": 10,
            "midi": 43,
            "name": "G2",
            "ticks": 1200,
            "time": 11.0294,
            "velocity": 0.8267716535433071
          },
          {
            "duration": 0.31249966666666573,
            "durationTicks": 34,
            "midi": 31,
            "name": "G1",
            "ticks": 1212,
            "time": 11.139694,
            "velocity": 0.8267716535433071
          },
          {
            "duration": 0.09191166666666462,
            "durationTicks": 10,
            "midi": 33,
            "name": "A1",
            "ticks": 1248,
            "time": 11.470576000000001,
            "velocity": 0.8267716535433071
          },
          {
            "duration": 0.09191166666666639,
            "durationTicks": 10,
            "midi": 33,
            "name": "A1",
            "ticks": 1272,
            "time": 11.691164,
            "velocity": 0.8267716535433071
          },
          {
            "duration": 0.09191166666666639,
            "durationTicks": 10,
            "midi": 45,
            "name": "A2",
            "ticks": 1284,
            "time": 11.801458,
            "velocity": 0.8267716535433071
          },
          {
            "duration": 0.09191166666666639,
            "durationTicks": 10,
            "midi": 33,
            "name": "A1",
            "ticks": 1440,
            "time": 13.23528,
            "velocity": 0.8267716535433071
          },
          {
            "duration": 0.09191166666666639,
            "durationTicks": 10,
            "midi": 33,
            "name": "A1",
            "ticks": 1464,
            "time": 13.455868,
            "velocity": 0.8267716535433071
          },
          {
            "duration": 0.09191166666666639,
            "durationTicks": 10,
            "midi": 45,
            "name": "A2",
            "ticks": 1476,
            "time": 13.566162,
            "velocity": 0.8267716535433071
          },
          {
            "duration": 0.09191166666666817,
            "durationTicks": 10,
            "midi": 36,
            "name": "C2",
            "ticks": 1536,
            "time": 14.117632,
            "velocity": 0.8267716535433071
          },
          {
            "duration": 0.09191166666666817,
            "durationTicks": 10,
            "midi": 36,
            "name": "C2",
            "ticks": 1560,
            "time": 14.33822,
            "velocity": 0.8267716535433071
          },
          {
            "duration": 0.09191166666666639,
            "durationTicks": 10,
            "midi": 48,
            "name": "C3",
            "ticks": 1584,
            "time": 14.558808,
            "velocity": 0.8267716535433071
          },
          {
            "duration": 0.20220566666666784,
            "durationTicks": 22,
            "midi": 36,
            "name": "C2",
            "ticks": 1596,
            "time": 14.669102,
            "velocity": 0.8267716535433071
          },
          {
            "duration": 0.09191166666666817,
            "durationTicks": 10,
            "midi": 33,
            "name": "A1",
            "ticks": 1620,
            "time": 14.88969,
            "velocity": 0.8267716535433071
          },
          {
            "duration": 0.09191166666666639,
            "durationTicks": 10,
            "midi": 33,
            "name": "A1",
            "ticks": 1632,
            "time": 14.999984000000001,
            "velocity": 0.8267716535433071
          },
          {
            "duration": 0.09191166666666817,
            "durationTicks": 10,
            "midi": 33,
            "name": "A1",
            "ticks": 1656,
            "time": 15.220572,
            "velocity": 0.8267716535433071
          },
          {
            "duration": 0.09191166666666817,
            "durationTicks": 10,
            "midi": 45,
            "name": "A2",
            "ticks": 1668,
            "time": 15.330866,
            "velocity": 0.8267716535433071
          },
          {
            "duration": 0.09191166666666817,
            "durationTicks": 10,
            "midi": 33,
            "name": "A1",
            "ticks": 1824,
            "time": 16.764688,
            "velocity": 0.8267716535433071
          },
          {
            "duration": 0.09191166666666817,
            "durationTicks": 10,
            "midi": 33,
            "name": "A1",
            "ticks": 1848,
            "time": 16.985276,
            "velocity": 0.8267716535433071
          },
          {
            "duration": 0.09191166666666462,
            "durationTicks": 10,
            "midi": 45,
            "name": "A2",
            "ticks": 1860,
            "time": 17.095570000000002,
            "velocity": 0.8267716535433071
          },
          {
            "duration": 0.09191166666666817,
            "durationTicks": 10,
            "midi": 31,
            "name": "G1",
            "ticks": 1944,
            "time": 17.867628,
            "velocity": 0.8267716535433071
          },
          {
            "duration": 0.09191166666666817,
            "durationTicks": 10,
            "midi": 43,
            "name": "G2",
            "ticks": 1968,
            "time": 18.088216,
            "velocity": 0.8267716535433071
          },
          {
            "duration": 0.31249966666667106,
            "durationTicks": 34,
            "midi": 31,
            "name": "G1",
            "ticks": 1980,
            "time": 18.19851,
            "velocity": 0.8267716535433071
          },
          {
            "duration": 0.09191166666666817,
            "durationTicks": 10,
            "midi": 36,
            "name": "C2",
            "ticks": 2688,
            "time": 24.705856,
            "velocity": 0.8267716535433071
          },
          {
            "duration": 0.09191166666666817,
            "durationTicks": 10,
            "midi": 36,
            "name": "C2",
            "ticks": 2712,
            "time": 24.926444,
            "velocity": 0.8267716535433071
          },
          {
            "duration": 0.09191166666666817,
            "durationTicks": 10,
            "midi": 48,
            "name": "C3",
            "ticks": 2736,
            "time": 25.147032,
            "velocity": 0.8267716535433071
          },
          {
            "duration": 0.31249966666667106,
            "durationTicks": 34,
            "midi": 36,
            "name": "C2",
            "ticks": 2748,
            "time": 25.257326,
            "velocity": 0.8267716535433071
          },
          {
            "duration": 0.09191166666666817,
            "durationTicks": 10,
            "midi": 33,
            "name": "A1",
            "ticks": 2784,
            "time": 25.588208,
            "velocity": 0.8267716535433071
          },
          {
            "duration": 0.09191166666666817,
            "durationTicks": 10,
            "midi": 33,
            "name": "A1",
            "ticks": 2808,
            "time": 25.808796,
            "velocity": 0.8267716535433071
          },
          {
            "duration": 0.09191166666666817,
            "durationTicks": 10,
            "midi": 45,
            "name": "A2",
            "ticks": 2820,
            "time": 25.91909,
            "velocity": 0.8267716535433071
          },
          {
            "duration": 0.09191166666666817,
            "durationTicks": 10,
            "midi": 33,
            "name": "A1",
            "ticks": 2976,
            "time": 27.352912,
            "velocity": 0.8267716535433071
          },
          {
            "duration": 0.09191166666666817,
            "durationTicks": 10,
            "midi": 33,
            "name": "A1",
            "ticks": 3000,
            "time": 27.5735,
            "velocity": 0.8267716535433071
          },
          {
            "duration": 0.09191166666666462,
            "durationTicks": 10,
            "midi": 45,
            "name": "A2",
            "ticks": 3012,
            "time": 27.683794000000002,
            "velocity": 0.8267716535433071
          },
          {
            "duration": 0.09191166666666462,
            "durationTicks": 10,
            "midi": 36,
            "name": "C2",
            "ticks": 3072,
            "time": 28.235264,
            "velocity": 0.8267716535433071
          },
          {
            "duration": 0.09191166666666462,
            "durationTicks": 10,
            "midi": 36,
            "name": "C2",
            "ticks": 3096,
            "time": 28.455852,
            "velocity": 0.8267716535433071
          },
          {
            "duration": 0.09191166666666462,
            "durationTicks": 10,
            "midi": 48,
            "name": "C3",
            "ticks": 3120,
            "time": 28.67644,
            "velocity": 0.8267716535433071
          },
          {
            "duration": 0.20220566666666784,
            "durationTicks": 22,
            "midi": 36,
            "name": "C2",
            "ticks": 3132,
            "time": 28.786734,
            "velocity": 0.8267716535433071
          },
          {
            "duration": 0.09191166666666462,
            "durationTicks": 10,
            "midi": 33,
            "name": "A1",
            "ticks": 3156,
            "time": 29.007322000000002,
            "velocity": 0.8267716535433071
          },
          {
            "duration": 0.09191166666666462,
            "durationTicks": 10,
            "midi": 33,
            "name": "A1",
            "ticks": 3168,
            "time": 29.117616,
            "velocity": 0.8267716535433071
          },
          {
            "duration": 0.09191166666666462,
            "durationTicks": 10,
            "midi": 33,
            "name": "A1",
            "ticks": 3192,
            "time": 29.338204,
            "velocity": 0.8267716535433071
          },
          {
            "duration": 0.09191166666666462,
            "durationTicks": 10,
            "midi": 45,
            "name": "A2",
            "ticks": 3204,
            "time": 29.448498,
            "velocity": 0.8267716535433071
          },
          {
            "duration": 0.09191166666666462,
            "durationTicks": 10,
            "midi": 33,
            "name": "A1",
            "ticks": 3360,
            "time": 30.88232,
            "velocity": 0.8267716535433071
          },
          {
            "duration": 0.09191166666666462,
            "durationTicks": 10,
            "midi": 33,
            "name": "A1",
            "ticks": 3384,
            "time": 31.102908,
            "velocity": 0.8267716535433071
          },
          {
            "duration": 0.09191166666666462,
            "durationTicks": 10,
            "midi": 45,
            "name": "A2",
            "ticks": 3396,
            "time": 31.213202000000003,
            "velocity": 0.8267716535433071
          },
          {
            "duration": 0.09191166666666462,
            "durationTicks": 10,
            "midi": 31,
            "name": "G1",
            "ticks": 3480,
            "time": 31.98526,
            "velocity": 0.8267716535433071
          },
          {
            "duration": 0.09191166666666106,
            "durationTicks": 10,
            "midi": 43,
            "name": "G2",
            "ticks": 3504,
            "time": 32.205848,
            "velocity": 0.8267716535433071
          },
          {
            "duration": 0.3124996666666675,
            "durationTicks": 34,
            "midi": 31,
            "name": "G1",
            "ticks": 3516,
            "time": 32.316142,
            "velocity": 0.8267716535433071
          },
          {
            "duration": 0.09191166666666106,
            "durationTicks": 10,
            "midi": 33,
            "name": "A1",
            "ticks": 3552,
            "time": 32.647024,
            "velocity": 0.8267716535433071
          },
          {
            "duration": 0.09191166666666106,
            "durationTicks": 10,
            "midi": 33,
            "name": "A1",
            "ticks": 3576,
            "time": 32.867612,
            "velocity": 0.8267716535433071
          },
          {
            "duration": 0.09191166666666106,
            "durationTicks": 10,
            "midi": 45,
            "name": "A2",
            "ticks": 3588,
            "time": 32.977906000000004,
            "velocity": 0.8267716535433071
          },
          {
            "duration": 0.09191166666666106,
            "durationTicks": 10,
            "midi": 33,
            "name": "A1",
            "ticks": 3744,
            "time": 34.411728000000004,
            "velocity": 0.8267716535433071
          },
          {
            "duration": 0.09191166666666106,
            "durationTicks": 10,
            "midi": 33,
            "name": "A1",
            "ticks": 3768,
            "time": 34.632316,
            "velocity": 0.8267716535433071
          },
          {
            "duration": 0.09191166666666817,
            "durationTicks": 10,
            "midi": 45,
            "name": "A2",
            "ticks": 3780,
            "time": 34.74261,
            "velocity": 0.8267716535433071
          },
          {
            "duration": 0.09191166666666106,
            "durationTicks": 10,
            "midi": 36,
            "name": "C2",
            "ticks": 3840,
            "time": 35.29408,
            "velocity": 0.8267716535433071
          },
          {
            "duration": 0.09191166666666817,
            "durationTicks": 10,
            "midi": 36,
            "name": "C2",
            "ticks": 3864,
            "time": 35.514668,
            "velocity": 0.8267716535433071
          },
          {
            "duration": 0.09191166666666817,
            "durationTicks": 10,
            "midi": 48,
            "name": "C3",
            "ticks": 3888,
            "time": 35.735256,
            "velocity": 0.8267716535433071
          },
          {
            "duration": 0.20220566666666429,
            "durationTicks": 22,
            "midi": 36,
            "name": "C2",
            "ticks": 3900,
            "time": 35.84555,
            "velocity": 0.8267716535433071
          },
          {
            "duration": 0.09191166666666106,
            "durationTicks": 10,
            "midi": 33,
            "name": "A1",
            "ticks": 3924,
            "time": 36.066138,
            "velocity": 0.8267716535433071
          },
          {
            "duration": 0.09191166666666817,
            "durationTicks": 10,
            "midi": 33,
            "name": "A1",
            "ticks": 3936,
            "time": 36.176432,
            "velocity": 0.8267716535433071
          },
          {
            "duration": 0.09191166666666817,
            "durationTicks": 10,
            "midi": 33,
            "name": "A1",
            "ticks": 3960,
            "time": 36.39702,
            "velocity": 0.8267716535433071
          },
          {
            "duration": 0.09191166666666817,
            "durationTicks": 10,
            "midi": 45,
            "name": "A2",
            "ticks": 3972,
            "time": 36.507314,
            "velocity": 0.8267716535433071
          },
          {
            "duration": 0.09191166666666817,
            "durationTicks": 10,
            "midi": 33,
            "name": "A1",
            "ticks": 4128,
            "time": 37.941136,
            "velocity": 0.8267716535433071
          },
          {
            "duration": 0.09191166666666817,
            "durationTicks": 10,
            "midi": 33,
            "name": "A1",
            "ticks": 4152,
            "time": 38.161724,
            "velocity": 0.8267716535433071
          },
          {
            "duration": 0.09191166666666106,
            "durationTicks": 10,
            "midi": 45,
            "name": "A2",
            "ticks": 4164,
            "time": 38.272018,
            "velocity": 0.8267716535433071
          },
          {
            "duration": 0.09191166666666106,
            "durationTicks": 10,
            "midi": 31,
            "name": "G1",
            "ticks": 4248,
            "time": 39.044076000000004,
            "velocity": 0.8267716535433071
          },
          {
            "duration": 0.09191166666666106,
            "durationTicks": 10,
            "midi": 43,
            "name": "G2",
            "ticks": 4272,
            "time": 39.264664,
            "velocity": 0.8267716535433071
          },
          {
            "duration": 0.3124996666666675,
            "durationTicks": 34,
            "midi": 31,
            "name": "G1",
            "ticks": 4284,
            "time": 39.374958,
            "velocity": 0.8267716535433071
          },
          {
            "duration": 0.09191166666667527,
            "durationTicks": 10,
            "midi": 33,
            "name": "A1",
            "ticks": 8160,
            "time": 74.99992,
            "velocity": 0.8267716535433071
          },
          {
            "duration": 0.09191166666667527,
            "durationTicks": 10,
            "midi": 33,
            "name": "A1",
            "ticks": 8184,
            "time": 75.220508,
            "velocity": 0.8267716535433071
          },
          {
            "duration": 0.09191166666666106,
            "durationTicks": 10,
            "midi": 45,
            "name": "A2",
            "ticks": 8196,
            "time": 75.330802,
            "velocity": 0.8267716535433071
          },
          {
            "duration": 0.09191166666667527,
            "durationTicks": 10,
            "midi": 33,
            "name": "A1",
            "ticks": 8352,
            "time": 76.764624,
            "velocity": 0.8267716535433071
          },
          {
            "duration": 0.09191166666667527,
            "durationTicks": 10,
            "midi": 33,
            "name": "A1",
            "ticks": 8376,
            "time": 76.985212,
            "velocity": 0.8267716535433071
          },
          {
            "duration": 0.09191166666667527,
            "durationTicks": 10,
            "midi": 45,
            "name": "A2",
            "ticks": 8388,
            "time": 77.095506,
            "velocity": 0.8267716535433071
          },
          {
            "duration": 0.09191166666667527,
            "durationTicks": 10,
            "midi": 36,
            "name": "C2",
            "ticks": 8448,
            "time": 77.646976,
            "velocity": 0.8267716535433071
          },
          {
            "duration": 0.09191166666667527,
            "durationTicks": 10,
            "midi": 36,
            "name": "C2",
            "ticks": 8472,
            "time": 77.867564,
            "velocity": 0.8267716535433071
          },
          {
            "duration": 0.09191166666666106,
            "durationTicks": 10,
            "midi": 48,
            "name": "C3",
            "ticks": 8496,
            "time": 78.08815200000001,
            "velocity": 0.8267716535433071
          },
          {
            "duration": 0.2022056666666714,
            "durationTicks": 22,
            "midi": 36,
            "name": "C2",
            "ticks": 8508,
            "time": 78.198446,
            "velocity": 0.8267716535433071
          },
          {
            "duration": 0.09191166666667527,
            "durationTicks": 10,
            "midi": 33,
            "name": "A1",
            "ticks": 8532,
            "time": 78.419034,
            "velocity": 0.8267716535433071
          },
          {
            "duration": 0.09191166666666106,
            "durationTicks": 10,
            "midi": 33,
            "name": "A1",
            "ticks": 8544,
            "time": 78.529328,
            "velocity": 0.8267716535433071
          },
          {
            "duration": 0.09191166666667527,
            "durationTicks": 10,
            "midi": 33,
            "name": "A1",
            "ticks": 8568,
            "time": 78.749916,
            "velocity": 0.8267716535433071
          },
          {
            "duration": 0.09191166666666106,
            "durationTicks": 10,
            "midi": 45,
            "name": "A2",
            "ticks": 8580,
            "time": 78.86021000000001,
            "velocity": 0.8267716535433071
          },
          {
            "duration": 0.09191166666667527,
            "durationTicks": 10,
            "midi": 33,
            "name": "A1",
            "ticks": 8736,
            "time": 80.294032,
            "velocity": 0.8267716535433071
          },
          {
            "duration": 0.09191166666666106,
            "durationTicks": 10,
            "midi": 33,
            "name": "A1",
            "ticks": 8760,
            "time": 80.51462000000001,
            "velocity": 0.8267716535433071
          },
          {
            "duration": 0.09191166666667527,
            "durationTicks": 10,
            "midi": 45,
            "name": "A2",
            "ticks": 8772,
            "time": 80.624914,
            "velocity": 0.8267716535433071
          },
          {
            "duration": 0.09191166666666106,
            "durationTicks": 10,
            "midi": 31,
            "name": "G1",
            "ticks": 8856,
            "time": 81.396972,
            "velocity": 0.8267716535433071
          },
          {
            "duration": 0.09191166666667527,
            "durationTicks": 10,
            "midi": 43,
            "name": "G2",
            "ticks": 8880,
            "time": 81.61756,
            "velocity": 0.8267716535433071
          },
          {
            "duration": 0.3124996666666675,
            "durationTicks": 34,
            "midi": 31,
            "name": "G1",
            "ticks": 8892,
            "time": 81.72785400000001,
            "velocity": 0.8267716535433071
          }
        ]
      },
      {
        "channel": 0,
        "controlChanges": {
          "0": [
            {
              "number": 0,
              "ticks": 202,
              "time": 1.8566156666666667,
              "value": 0
            }
          ],
          "32": [
            {
              "number": 32,
              "ticks": 203,
              "time": 1.8658068333333335,
              "value": 0.015748031496062992
            }
          ]
        },
        "pitchBends": [],
        "instrument": {
          "family": "piano",
          "number": 0,
          "name": "acoustic grand piano"
        },
        "name": "Úª\u0000",
        "notes": [],
        "endOfTrackTicks": 8928
      },
      {
        "channel": 3,
        "controlChanges": {
          "1": [
            {
              "number": 1,
              "ticks": 214,
              "time": 1.9669096666666666,
              "value": 0
            }
          ],
          "5": [
            {
              "number": 5,
              "ticks": 218,
              "time": 2.0036743333333336,
              "value": 0
            }
          ],
          "6": [
            {
              "number": 6,
              "ticks": 210,
              "time": 1.930145,
              "value": 0.015748031496062992
            },
            {
              "number": 6,
              "ticks": 219,
              "time": 2.0128655,
              "value": 0.5039370078740157
            },
            {
              "number": 6,
              "ticks": 220,
              "time": 2.0220566666666664,
              "value": 0.5039370078740157
            },
            {
              "number": 6,
              "ticks": 221,
              "time": 2.0312478333333335,
              "value": 0.5039370078740157
            },
            {
              "number": 6,
              "ticks": 222,
              "time": 2.040439,
              "value": 0.5039370078740157
            },
            {
              "number": 6,
              "ticks": 223,
              "time": 2.0496301666666668,
              "value": 0.5039370078740157
            },
            {
              "number": 6,
              "ticks": 224,
              "time": 2.0588213333333334,
              "value": 0.5039370078740157
            },
            {
              "number": 6,
              "ticks": 225,
              "time": 2.0680125,
              "value": 0.5039370078740157
            },
            {
              "number": 6,
              "ticks": 226,
              "time": 2.0772036666666667,
              "value": 0.5039370078740157
            }
          ],
          "7": [
            {
              "number": 7,
              "ticks": 211,
              "time": 1.9393361666666666,
              "value": 0.9448818897637795
            },
            {
              "number": 7,
              "ticks": 8208,
              "time": 75.441096,
              "value": 0.9448818897637795
            },
            {
              "number": 7,
              "ticks": 8256,
              "time": 75.882272,
              "value": 0.8818897637795275
            },
            {
              "number": 7,
              "ticks": 8304,
              "time": 76.323448,
              "value": 0.8267716535433071
            },
            {
              "number": 7,
              "ticks": 8352,
              "time": 76.764624,
              "value": 0.7637795275590551
            },
            {
              "number": 7,
              "ticks": 8400,
              "time": 77.2058,
              "value": 0.7086614173228346
            },
            {
              "number": 7,
              "ticks": 8448,
              "time": 77.646976,
              "value": 0.6456692913385826
            },
            {
              "number": 7,
              "ticks": 8496,
              "time": 78.08815200000001,
              "value": 0.5905511811023622
            },
            {
              "number": 7,
              "ticks": 8544,
              "time": 78.529328,
              "value": 0.5275590551181102
            },
            {
              "number": 7,
              "ticks": 8592,
              "time": 78.970504,
              "value": 0.47244094488188976
            },
            {
              "number": 7,
              "ticks": 8640,
              "time": 79.41168,
              "value": 0.4094488188976378
            },
            {
              "number": 7,
              "ticks": 8688,
              "time": 79.852856,
              "value": 0.3543307086614173
            },
            {
              "number": 7,
              "ticks": 8736,
              "time": 80.294032,
              "value": 0.29133858267716534
            },
            {
              "number": 7,
              "ticks": 8784,
              "time": 80.735208,
              "value": 0.23622047244094488
            },
            {
              "number": 7,
              "ticks": 8832,
              "time": 81.176384,
              "value": 0.1732283464566929
            },
            {
              "number": 7,
              "ticks": 8880,
              "time": 81.61756,
              "value": 0.11811023622047244
            },
            {
              "number": 7,
              "ticks": 8928,
              "time": 82.058736,
              "value": 0.05511811023622047
            }
          ],
          "10": [
            {
              "number": 10,
              "ticks": 213,
              "time": 1.9577185000000001,
              "value": 0.5039370078740157
            }
          ],
          "11": [
            {
              "number": 11,
              "ticks": 212,
              "time": 1.9485273333333335,
              "value": 1
            },
            {
              "number": 11,
              "ticks": 2016,
              "time": 18.529392,
              "value": 1
            },
            {
              "number": 11,
              "ticks": 2020,
              "time": 18.566156666666668,
              "value": 0.9921259842519685
            },
            {
              "number": 11,
              "ticks": 2023,
              "time": 18.593730166666667,
              "value": 0.984251968503937
            },
            {
              "number": 11,
              "ticks": 2026,
              "time": 18.62130366666667,
              "value": 0.9763779527559056
            },
            {
              "number": 11,
              "ticks": 2029,
              "time": 18.64887716666667,
              "value": 0.968503937007874
            },
            {
              "number": 11,
              "ticks": 2032,
              "time": 18.676450666666668,
              "value": 0.9606299212598425
            },
            {
              "number": 11,
              "ticks": 2035,
              "time": 18.704024166666667,
              "value": 0.952755905511811
            },
            {
              "number": 11,
              "ticks": 2038,
              "time": 18.73159766666667,
              "value": 0.9448818897637795
            },
            {
              "number": 11,
              "ticks": 2041,
              "time": 18.75917116666667,
              "value": 0.937007874015748
            },
            {
              "number": 11,
              "ticks": 2044,
              "time": 18.786744666666667,
              "value": 0.9291338582677166
            },
            {
              "number": 11,
              "ticks": 2047,
              "time": 18.81431816666667,
              "value": 0.9212598425196851
            },
            {
              "number": 11,
              "ticks": 2050,
              "time": 18.84189166666667,
              "value": 0.9133858267716536
            },
            {
              "number": 11,
              "ticks": 2053,
              "time": 18.869465166666668,
              "value": 0.905511811023622
            },
            {
              "number": 11,
              "ticks": 2056,
              "time": 18.897038666666667,
              "value": 0.8976377952755905
            },
            {
              "number": 11,
              "ticks": 2059,
              "time": 18.92461216666667,
              "value": 0.889763779527559
            },
            {
              "number": 11,
              "ticks": 2062,
              "time": 18.95218566666667,
              "value": 0.8818897637795275
            },
            {
              "number": 11,
              "ticks": 2065,
              "time": 18.979759166666668,
              "value": 0.8740157480314961
            },
            {
              "number": 11,
              "ticks": 2068,
              "time": 19.007332666666667,
              "value": 0.8661417322834646
            },
            {
              "number": 11,
              "ticks": 2071,
              "time": 19.03490616666667,
              "value": 0.8582677165354331
            },
            {
              "number": 11,
              "ticks": 2074,
              "time": 19.06247966666667,
              "value": 0.8503937007874016
            },
            {
              "number": 11,
              "ticks": 2077,
              "time": 19.090053166666667,
              "value": 0.84251968503937
            },
            {
              "number": 11,
              "ticks": 2080,
              "time": 19.11762666666667,
              "value": 0.8346456692913385
            },
            {
              "number": 11,
              "ticks": 2083,
              "time": 19.14520016666667,
              "value": 0.8267716535433071
            },
            {
              "number": 11,
              "ticks": 2086,
              "time": 19.172773666666668,
              "value": 0.8188976377952756
            },
            {
              "number": 11,
              "ticks": 2089,
              "time": 19.200347166666667,
              "value": 0.8110236220472441
            },
            {
              "number": 11,
              "ticks": 2092,
              "time": 19.22792066666667,
              "value": 0.8031496062992126
            },
            {
              "number": 11,
              "ticks": 2095,
              "time": 19.25549416666667,
              "value": 0.7952755905511811
            },
            {
              "number": 11,
              "ticks": 2098,
              "time": 19.283067666666668,
              "value": 0.7874015748031497
            },
            {
              "number": 11,
              "ticks": 2101,
              "time": 19.310641166666667,
              "value": 0.7795275590551181
            },
            {
              "number": 11,
              "ticks": 2104,
              "time": 19.33821466666667,
              "value": 0.7716535433070866
            },
            {
              "number": 11,
              "ticks": 2107,
              "time": 19.36578816666667,
              "value": 0.7637795275590551
            },
            {
              "number": 11,
              "ticks": 2110,
              "time": 19.393361666666667,
              "value": 0.7559055118110236
            },
            {
              "number": 11,
              "ticks": 2113,
              "time": 19.42093516666667,
              "value": 0.7480314960629921
            },
            {
              "number": 11,
              "ticks": 2116,
              "time": 19.44850866666667,
              "value": 0.7401574803149606
            },
            {
              "number": 11,
              "ticks": 2119,
              "time": 19.476082166666668,
              "value": 0.7322834645669292
            },
            {
              "number": 11,
              "ticks": 2122,
              "time": 19.503655666666667,
              "value": 0.7244094488188977
            },
            {
              "number": 11,
              "ticks": 2125,
              "time": 19.53122916666667,
              "value": 0.7165354330708661
            },
            {
              "number": 11,
              "ticks": 2128,
              "time": 19.55880266666667,
              "value": 0.7086614173228346
            },
            {
              "number": 11,
              "ticks": 2131,
              "time": 19.586376166666668,
              "value": 0.7007874015748031
            },
            {
              "number": 11,
              "ticks": 2134,
              "time": 19.613949666666667,
              "value": 0.6929133858267716
            },
            {
              "number": 11,
              "ticks": 2137,
              "time": 19.64152316666667,
              "value": 0.6850393700787402
            },
            {
              "number": 11,
              "ticks": 2140,
              "time": 19.66909666666667,
              "value": 0.6771653543307087
            },
            {
              "number": 11,
              "ticks": 2143,
              "time": 19.696670166666667,
              "value": 0.6692913385826772
            },
            {
              "number": 11,
              "ticks": 2146,
              "time": 19.72424366666667,
              "value": 0.6614173228346457
            },
            {
              "number": 11,
              "ticks": 2149,
              "time": 19.75181716666667,
              "value": 0.6535433070866141
            },
            {
              "number": 11,
              "ticks": 2152,
              "time": 19.779390666666668,
              "value": 0.6456692913385826
            },
            {
              "number": 11,
              "ticks": 2155,
              "time": 19.806964166666667,
              "value": 0.6377952755905512
            },
            {
              "number": 11,
              "ticks": 2158,
              "time": 19.83453766666667,
              "value": 0.6299212598425197
            },
            {
              "number": 11,
              "ticks": 2161,
              "time": 19.86211116666667,
              "value": 0.6220472440944882
            },
            {
              "number": 11,
              "ticks": 2164,
              "time": 19.889684666666668,
              "value": 0.6141732283464567
            },
            {
              "number": 11,
              "ticks": 2167,
              "time": 19.917258166666667,
              "value": 0.6062992125984252
            },
            {
              "number": 11,
              "ticks": 2170,
              "time": 19.94483166666667,
              "value": 0.5984251968503937
            },
            {
              "number": 11,
              "ticks": 2173,
              "time": 19.972405166666668,
              "value": 0.5905511811023622
            },
            {
              "number": 11,
              "ticks": 2176,
              "time": 19.999978666666667,
              "value": 0.5826771653543307
            },
            {
              "number": 11,
              "ticks": 2179,
              "time": 20.02755216666667,
              "value": 0.5748031496062992
            },
            {
              "number": 11,
              "ticks": 2182,
              "time": 20.05512566666667,
              "value": 0.5669291338582677
            },
            {
              "number": 11,
              "ticks": 2185,
              "time": 20.082699166666668,
              "value": 0.5590551181102362
            },
            {
              "number": 11,
              "ticks": 2188,
              "time": 20.110272666666667,
              "value": 0.5511811023622047
            },
            {
              "number": 11,
              "ticks": 2191,
              "time": 20.13784616666667,
              "value": 0.5433070866141733
            },
            {
              "number": 11,
              "ticks": 2194,
              "time": 20.16541966666667,
              "value": 0.5354330708661418
            },
            {
              "number": 11,
              "ticks": 2197,
              "time": 20.192993166666668,
              "value": 0.5275590551181102
            },
            {
              "number": 11,
              "ticks": 2200,
              "time": 20.220566666666667,
              "value": 0.5196850393700787
            },
            {
              "number": 11,
              "ticks": 2203,
              "time": 20.24814016666667,
              "value": 0.5118110236220472
            },
            {
              "number": 11,
              "ticks": 2206,
              "time": 20.275713666666668,
              "value": 0.5039370078740157
            },
            {
              "number": 11,
              "ticks": 2210,
              "time": 20.31247833333333,
              "value": 0.49606299212598426
            },
            {
              "number": 11,
              "ticks": 2213,
              "time": 20.340051833333334,
              "value": 0.4881889763779528
            },
            {
              "number": 11,
              "ticks": 2216,
              "time": 20.367625333333333,
              "value": 0.48031496062992124
            },
            {
              "number": 11,
              "ticks": 2219,
              "time": 20.395198833333332,
              "value": 0.47244094488188976
            },
            {
              "number": 11,
              "ticks": 2222,
              "time": 20.422772333333334,
              "value": 0.4645669291338583
            },
            {
              "number": 11,
              "ticks": 2225,
              "time": 20.450345833333333,
              "value": 0.4566929133858268
            },
            {
              "number": 11,
              "ticks": 2228,
              "time": 20.477919333333332,
              "value": 0.44881889763779526
            },
            {
              "number": 11,
              "ticks": 2231,
              "time": 20.50549283333333,
              "value": 0.4409448818897638
            },
            {
              "number": 11,
              "ticks": 2234,
              "time": 20.533066333333334,
              "value": 0.4330708661417323
            },
            {
              "number": 11,
              "ticks": 2237,
              "time": 20.560639833333333,
              "value": 0.4251968503937008
            },
            {
              "number": 11,
              "ticks": 2240,
              "time": 20.588213333333332,
              "value": 0.41732283464566927
            },
            {
              "number": 11,
              "ticks": 2243,
              "time": 20.61578683333333,
              "value": 0.4094488188976378
            },
            {
              "number": 11,
              "ticks": 2246,
              "time": 20.643360333333334,
              "value": 0.4015748031496063
            },
            {
              "number": 11,
              "ticks": 2249,
              "time": 20.670933833333333,
              "value": 0.3937007874015748
            },
            {
              "number": 11,
              "ticks": 2252,
              "time": 20.698507333333332,
              "value": 0.3858267716535433
            },
            {
              "number": 11,
              "ticks": 2255,
              "time": 20.726080833333334,
              "value": 0.3779527559055118
            },
            {
              "number": 11,
              "ticks": 2258,
              "time": 20.753654333333333,
              "value": 0.3700787401574803
            },
            {
              "number": 11,
              "ticks": 2261,
              "time": 20.781227833333332,
              "value": 0.36220472440944884
            },
            {
              "number": 11,
              "ticks": 2264,
              "time": 20.80880133333333,
              "value": 0.3543307086614173
            },
            {
              "number": 11,
              "ticks": 2267,
              "time": 20.836374833333334,
              "value": 0.3464566929133858
            },
            {
              "number": 11,
              "ticks": 2270,
              "time": 20.863948333333333,
              "value": 0.33858267716535434
            },
            {
              "number": 11,
              "ticks": 2273,
              "time": 20.891521833333332,
              "value": 0.33070866141732286
            },
            {
              "number": 11,
              "ticks": 2276,
              "time": 20.91909533333333,
              "value": 0.3228346456692913
            },
            {
              "number": 11,
              "ticks": 2279,
              "time": 20.946668833333334,
              "value": 0.31496062992125984
            },
            {
              "number": 11,
              "ticks": 2282,
              "time": 20.974242333333333,
              "value": 0.30708661417322836
            },
            {
              "number": 11,
              "ticks": 2285,
              "time": 21.001815833333332,
              "value": 0.2992125984251969
            },
            {
              "number": 11,
              "ticks": 2288,
              "time": 21.029389333333334,
              "value": 0.29133858267716534
            },
            {
              "number": 11,
              "ticks": 2291,
              "time": 21.056962833333333,
              "value": 0.28346456692913385
            },
            {
              "number": 11,
              "ticks": 2294,
              "time": 21.084536333333332,
              "value": 0.2755905511811024
            },
            {
              "number": 11,
              "ticks": 2297,
              "time": 21.11210983333333,
              "value": 0.2677165354330709
            },
            {
              "number": 11,
              "ticks": 2300,
              "time": 21.139683333333334,
              "value": 0.25984251968503935
            },
            {
              "number": 11,
              "ticks": 2303,
              "time": 21.167256833333333,
              "value": 0.25196850393700787
            },
            {
              "number": 11,
              "ticks": 2306,
              "time": 21.194830333333332,
              "value": 0.2440944881889764
            },
            {
              "number": 11,
              "ticks": 2309,
              "time": 21.22240383333333,
              "value": 0.23622047244094488
            },
            {
              "number": 11,
              "ticks": 2312,
              "time": 21.249977333333334,
              "value": 0.2283464566929134
            },
            {
              "number": 11,
              "ticks": 2315,
              "time": 21.277550833333333,
              "value": 0.2204724409448819
            },
            {
              "number": 11,
              "ticks": 2318,
              "time": 21.305124333333332,
              "value": 0.2125984251968504
            },
            {
              "number": 11,
              "ticks": 2321,
              "time": 21.332697833333334,
              "value": 0.2047244094488189
            },
            {
              "number": 11,
              "ticks": 2324,
              "time": 21.360271333333333,
              "value": 0.1968503937007874
            },
            {
              "number": 11,
              "ticks": 2327,
              "time": 21.387844833333332,
              "value": 0.1889763779527559
            },
            {
              "number": 11,
              "ticks": 2330,
              "time": 21.41541833333333,
              "value": 0.18110236220472442
            },
            {
              "number": 11,
              "ticks": 2333,
              "time": 21.442991833333334,
              "value": 0.1732283464566929
            },
            {
              "number": 11,
              "ticks": 2336,
              "time": 21.470565333333333,
              "value": 0.16535433070866143
            },
            {
              "number": 11,
              "ticks": 2339,
              "time": 21.498138833333332,
              "value": 0.15748031496062992
            },
            {
              "number": 11,
              "ticks": 2342,
              "time": 21.525712333333335,
              "value": 0.14960629921259844
            },
            {
              "number": 11,
              "ticks": 2345,
              "time": 21.553285833333334,
              "value": 0.14173228346456693
            },
            {
              "number": 11,
              "ticks": 2348,
              "time": 21.580859333333333,
              "value": 0.13385826771653545
            },
            {
              "number": 11,
              "ticks": 2351,
              "time": 21.60843283333333,
              "value": 0.12598425196850394
            },
            {
              "number": 11,
              "ticks": 2354,
              "time": 21.636006333333334,
              "value": 0.11811023622047244
            },
            {
              "number": 11,
              "ticks": 2357,
              "time": 21.663579833333333,
              "value": 0.11023622047244094
            },
            {
              "number": 11,
              "ticks": 2360,
              "time": 21.691153333333332,
              "value": 0.10236220472440945
            },
            {
              "number": 11,
              "ticks": 2363,
              "time": 21.71872683333333,
              "value": 0.09448818897637795
            },
            {
              "number": 11,
              "ticks": 2366,
              "time": 21.746300333333334,
              "value": 0.08661417322834646
            },
            {
              "number": 11,
              "ticks": 2369,
              "time": 21.773873833333333,
              "value": 0.07874015748031496
            },
            {
              "number": 11,
              "ticks": 2372,
              "time": 21.801447333333332,
              "value": 0.07086614173228346
            },
            {
              "number": 11,
              "ticks": 2375,
              "time": 21.829020833333335,
              "value": 0.06299212598425197
            },
            {
              "number": 11,
              "ticks": 2378,
              "time": 21.856594333333334,
              "value": 0.05511811023622047
            },
            {
              "number": 11,
              "ticks": 2381,
              "time": 21.884167833333333,
              "value": 0.047244094488188976
            },
            {
              "number": 11,
              "ticks": 2384,
              "time": 21.91174133333333,
              "value": 0.03937007874015748
            },
            {
              "number": 11,
              "ticks": 2387,
              "time": 21.939314833333334,
              "value": 0.031496062992125984
            },
            {
              "number": 11,
              "ticks": 2390,
              "time": 21.966888333333333,
              "value": 0.023622047244094488
            },
            {
              "number": 11,
              "ticks": 2393,
              "time": 21.994461833333332,
              "value": 0.015748031496062992
            },
            {
              "number": 11,
              "ticks": 2396,
              "time": 22.02203533333333,
              "value": 0.007874015748031496
            },
            {
              "number": 11,
              "ticks": 2399,
              "time": 22.049608833333334,
              "value": 0
            },
            {
              "number": 11,
              "ticks": 2784,
              "time": 25.588208,
              "value": 1
            },
            {
              "number": 11,
              "ticks": 4320,
              "time": 39.70584,
              "value": 1
            },
            {
              "number": 11,
              "ticks": 4324,
              "time": 39.742604666666665,
              "value": 0.9921259842519685
            },
            {
              "number": 11,
              "ticks": 4327,
              "time": 39.77017816666667,
              "value": 0.984251968503937
            },
            {
              "number": 11,
              "ticks": 4330,
              "time": 39.79775166666666,
              "value": 0.9763779527559056
            },
            {
              "number": 11,
              "ticks": 4333,
              "time": 39.825325166666666,
              "value": 0.968503937007874
            },
            {
              "number": 11,
              "ticks": 4336,
              "time": 39.85289866666667,
              "value": 0.9606299212598425
            },
            {
              "number": 11,
              "ticks": 4339,
              "time": 39.880472166666664,
              "value": 0.952755905511811
            },
            {
              "number": 11,
              "ticks": 4342,
              "time": 39.908045666666666,
              "value": 0.9448818897637795
            },
            {
              "number": 11,
              "ticks": 4345,
              "time": 39.93561916666667,
              "value": 0.937007874015748
            },
            {
              "number": 11,
              "ticks": 4348,
              "time": 39.963192666666664,
              "value": 0.9291338582677166
            },
            {
              "number": 11,
              "ticks": 4351,
              "time": 39.99076616666667,
              "value": 0.9212598425196851
            },
            {
              "number": 11,
              "ticks": 4354,
              "time": 40.01833966666666,
              "value": 0.9133858267716536
            },
            {
              "number": 11,
              "ticks": 4357,
              "time": 40.045913166666665,
              "value": 0.905511811023622
            },
            {
              "number": 11,
              "ticks": 4360,
              "time": 40.07348666666667,
              "value": 0.8976377952755905
            },
            {
              "number": 11,
              "ticks": 4363,
              "time": 40.10106016666666,
              "value": 0.889763779527559
            },
            {
              "number": 11,
              "ticks": 4366,
              "time": 40.128633666666666,
              "value": 0.8818897637795275
            },
            {
              "number": 11,
              "ticks": 4369,
              "time": 40.15620716666667,
              "value": 0.8740157480314961
            },
            {
              "number": 11,
              "ticks": 4372,
              "time": 40.183780666666664,
              "value": 0.8661417322834646
            },
            {
              "number": 11,
              "ticks": 4375,
              "time": 40.211354166666666,
              "value": 0.8582677165354331
            },
            {
              "number": 11,
              "ticks": 4378,
              "time": 40.23892766666667,
              "value": 0.8503937007874016
            },
            {
              "number": 11,
              "ticks": 4381,
              "time": 40.266501166666664,
              "value": 0.84251968503937
            },
            {
              "number": 11,
              "ticks": 4384,
              "time": 40.29407466666667,
              "value": 0.8346456692913385
            },
            {
              "number": 11,
              "ticks": 4387,
              "time": 40.32164816666666,
              "value": 0.8267716535433071
            },
            {
              "number": 11,
              "ticks": 4390,
              "time": 40.349221666666665,
              "value": 0.8188976377952756
            },
            {
              "number": 11,
              "ticks": 4393,
              "time": 40.37679516666667,
              "value": 0.8110236220472441
            },
            {
              "number": 11,
              "ticks": 4396,
              "time": 40.40436866666666,
              "value": 0.8031496062992126
            },
            {
              "number": 11,
              "ticks": 4399,
              "time": 40.431942166666666,
              "value": 0.7952755905511811
            },
            {
              "number": 11,
              "ticks": 4402,
              "time": 40.45951566666667,
              "value": 0.7874015748031497
            },
            {
              "number": 11,
              "ticks": 4405,
              "time": 40.487089166666664,
              "value": 0.7795275590551181
            },
            {
              "number": 11,
              "ticks": 4408,
              "time": 40.514662666666666,
              "value": 0.7716535433070866
            },
            {
              "number": 11,
              "ticks": 4411,
              "time": 40.54223616666667,
              "value": 0.7637795275590551
            },
            {
              "number": 11,
              "ticks": 4414,
              "time": 40.569809666666664,
              "value": 0.7559055118110236
            },
            {
              "number": 11,
              "ticks": 4417,
              "time": 40.59738316666667,
              "value": 0.7480314960629921
            },
            {
              "number": 11,
              "ticks": 4420,
              "time": 40.62495666666666,
              "value": 0.7401574803149606
            },
            {
              "number": 11,
              "ticks": 4423,
              "time": 40.652530166666665,
              "value": 0.7322834645669292
            },
            {
              "number": 11,
              "ticks": 4426,
              "time": 40.68010366666667,
              "value": 0.7244094488188977
            },
            {
              "number": 11,
              "ticks": 4429,
              "time": 40.70767716666666,
              "value": 0.7165354330708661
            },
            {
              "number": 11,
              "ticks": 4432,
              "time": 40.735250666666666,
              "value": 0.7086614173228346
            },
            {
              "number": 11,
              "ticks": 4435,
              "time": 40.76282416666667,
              "value": 0.7007874015748031
            },
            {
              "number": 11,
              "ticks": 4438,
              "time": 40.790397666666664,
              "value": 0.6929133858267716
            },
            {
              "number": 11,
              "ticks": 4441,
              "time": 40.817971166666666,
              "value": 0.6850393700787402
            },
            {
              "number": 11,
              "ticks": 4444,
              "time": 40.84554466666667,
              "value": 0.6771653543307087
            },
            {
              "number": 11,
              "ticks": 4447,
              "time": 40.873118166666664,
              "value": 0.6692913385826772
            },
            {
              "number": 11,
              "ticks": 4450,
              "time": 40.90069166666667,
              "value": 0.6614173228346457
            },
            {
              "number": 11,
              "ticks": 4453,
              "time": 40.92826516666666,
              "value": 0.6535433070866141
            },
            {
              "number": 11,
              "ticks": 4456,
              "time": 40.955838666666665,
              "value": 0.6456692913385826
            },
            {
              "number": 11,
              "ticks": 4459,
              "time": 40.98341216666667,
              "value": 0.6377952755905512
            },
            {
              "number": 11,
              "ticks": 4462,
              "time": 41.01098566666666,
              "value": 0.6299212598425197
            },
            {
              "number": 11,
              "ticks": 4465,
              "time": 41.038559166666666,
              "value": 0.6220472440944882
            },
            {
              "number": 11,
              "ticks": 4468,
              "time": 41.06613266666667,
              "value": 0.6141732283464567
            },
            {
              "number": 11,
              "ticks": 4471,
              "time": 41.093706166666664,
              "value": 0.6062992125984252
            },
            {
              "number": 11,
              "ticks": 4474,
              "time": 41.121279666666666,
              "value": 0.5984251968503937
            },
            {
              "number": 11,
              "ticks": 4477,
              "time": 41.14885316666667,
              "value": 0.5905511811023622
            },
            {
              "number": 11,
              "ticks": 4480,
              "time": 41.176426666666664,
              "value": 0.5826771653543307
            },
            {
              "number": 11,
              "ticks": 4483,
              "time": 41.20400016666667,
              "value": 0.5748031496062992
            },
            {
              "number": 11,
              "ticks": 4486,
              "time": 41.23157366666666,
              "value": 0.5669291338582677
            },
            {
              "number": 11,
              "ticks": 4489,
              "time": 41.259147166666665,
              "value": 0.5590551181102362
            },
            {
              "number": 11,
              "ticks": 4492,
              "time": 41.28672066666667,
              "value": 0.5511811023622047
            },
            {
              "number": 11,
              "ticks": 4495,
              "time": 41.31429416666666,
              "value": 0.5433070866141733
            },
            {
              "number": 11,
              "ticks": 4498,
              "time": 41.341867666666666,
              "value": 0.5354330708661418
            },
            {
              "number": 11,
              "ticks": 4501,
              "time": 41.36944116666667,
              "value": 0.5275590551181102
            },
            {
              "number": 11,
              "ticks": 4504,
              "time": 41.397014666666664,
              "value": 0.5196850393700787
            },
            {
              "number": 11,
              "ticks": 4507,
              "time": 41.424588166666666,
              "value": 0.5118110236220472
            },
            {
              "number": 11,
              "ticks": 4510,
              "time": 41.45216166666667,
              "value": 0.5039370078740157
            },
            {
              "number": 11,
              "ticks": 4514,
              "time": 41.48892633333334,
              "value": 0.49606299212598426
            },
            {
              "number": 11,
              "ticks": 4517,
              "time": 41.516499833333334,
              "value": 0.4881889763779528
            },
            {
              "number": 11,
              "ticks": 4520,
              "time": 41.54407333333334,
              "value": 0.48031496062992124
            },
            {
              "number": 11,
              "ticks": 4523,
              "time": 41.57164683333334,
              "value": 0.47244094488188976
            },
            {
              "number": 11,
              "ticks": 4526,
              "time": 41.599220333333335,
              "value": 0.4645669291338583
            },
            {
              "number": 11,
              "ticks": 4529,
              "time": 41.62679383333334,
              "value": 0.4566929133858268
            },
            {
              "number": 11,
              "ticks": 4532,
              "time": 41.65436733333333,
              "value": 0.44881889763779526
            },
            {
              "number": 11,
              "ticks": 4535,
              "time": 41.681940833333336,
              "value": 0.4409448818897638
            },
            {
              "number": 11,
              "ticks": 4538,
              "time": 41.70951433333334,
              "value": 0.4330708661417323
            },
            {
              "number": 11,
              "ticks": 4541,
              "time": 41.737087833333334,
              "value": 0.4251968503937008
            },
            {
              "number": 11,
              "ticks": 4544,
              "time": 41.764661333333336,
              "value": 0.41732283464566927
            },
            {
              "number": 11,
              "ticks": 4547,
              "time": 41.79223483333334,
              "value": 0.4094488188976378
            },
            {
              "number": 11,
              "ticks": 4550,
              "time": 41.819808333333334,
              "value": 0.4015748031496063
            },
            {
              "number": 11,
              "ticks": 4553,
              "time": 41.84738183333334,
              "value": 0.3937007874015748
            },
            {
              "number": 11,
              "ticks": 4556,
              "time": 41.87495533333334,
              "value": 0.3858267716535433
            },
            {
              "number": 11,
              "ticks": 4559,
              "time": 41.902528833333335,
              "value": 0.3779527559055118
            },
            {
              "number": 11,
              "ticks": 4562,
              "time": 41.93010233333334,
              "value": 0.3700787401574803
            },
            {
              "number": 11,
              "ticks": 4565,
              "time": 41.95767583333334,
              "value": 0.36220472440944884
            },
            {
              "number": 11,
              "ticks": 4568,
              "time": 41.985249333333336,
              "value": 0.3543307086614173
            },
            {
              "number": 11,
              "ticks": 4571,
              "time": 42.01282283333334,
              "value": 0.3464566929133858
            },
            {
              "number": 11,
              "ticks": 4574,
              "time": 42.040396333333334,
              "value": 0.33858267716535434
            },
            {
              "number": 11,
              "ticks": 4577,
              "time": 42.067969833333336,
              "value": 0.33070866141732286
            },
            {
              "number": 11,
              "ticks": 4580,
              "time": 42.09554333333334,
              "value": 0.3228346456692913
            },
            {
              "number": 11,
              "ticks": 4583,
              "time": 42.123116833333334,
              "value": 0.31496062992125984
            },
            {
              "number": 11,
              "ticks": 4586,
              "time": 42.15069033333334,
              "value": 0.30708661417322836
            },
            {
              "number": 11,
              "ticks": 4589,
              "time": 42.17826383333334,
              "value": 0.2992125984251969
            },
            {
              "number": 11,
              "ticks": 4592,
              "time": 42.205837333333335,
              "value": 0.29133858267716534
            },
            {
              "number": 11,
              "ticks": 4595,
              "time": 42.23341083333334,
              "value": 0.28346456692913385
            },
            {
              "number": 11,
              "ticks": 4598,
              "time": 42.26098433333334,
              "value": 0.2755905511811024
            },
            {
              "number": 11,
              "ticks": 4601,
              "time": 42.288557833333336,
              "value": 0.2677165354330709
            },
            {
              "number": 11,
              "ticks": 4604,
              "time": 42.31613133333334,
              "value": 0.25984251968503935
            },
            {
              "number": 11,
              "ticks": 4607,
              "time": 42.343704833333334,
              "value": 0.25196850393700787
            },
            {
              "number": 11,
              "ticks": 4610,
              "time": 42.371278333333336,
              "value": 0.2440944881889764
            },
            {
              "number": 11,
              "ticks": 4613,
              "time": 42.39885183333334,
              "value": 0.23622047244094488
            },
            {
              "number": 11,
              "ticks": 4616,
              "time": 42.426425333333334,
              "value": 0.2283464566929134
            },
            {
              "number": 11,
              "ticks": 4619,
              "time": 42.45399883333334,
              "value": 0.2204724409448819
            },
            {
              "number": 11,
              "ticks": 4622,
              "time": 42.48157233333334,
              "value": 0.2125984251968504
            },
            {
              "number": 11,
              "ticks": 4625,
              "time": 42.509145833333335,
              "value": 0.2047244094488189
            },
            {
              "number": 11,
              "ticks": 4628,
              "time": 42.53671933333334,
              "value": 0.1968503937007874
            },
            {
              "number": 11,
              "ticks": 4631,
              "time": 42.56429283333334,
              "value": 0.1889763779527559
            },
            {
              "number": 11,
              "ticks": 4634,
              "time": 42.591866333333336,
              "value": 0.18110236220472442
            },
            {
              "number": 11,
              "ticks": 4637,
              "time": 42.61943983333334,
              "value": 0.1732283464566929
            },
            {
              "number": 11,
              "ticks": 4640,
              "time": 42.647013333333334,
              "value": 0.16535433070866143
            },
            {
              "number": 11,
              "ticks": 4643,
              "time": 42.674586833333336,
              "value": 0.15748031496062992
            },
            {
              "number": 11,
              "ticks": 4646,
              "time": 42.70216033333334,
              "value": 0.14960629921259844
            },
            {
              "number": 11,
              "ticks": 4649,
              "time": 42.729733833333334,
              "value": 0.14173228346456693
            },
            {
              "number": 11,
              "ticks": 4652,
              "time": 42.75730733333334,
              "value": 0.13385826771653545
            },
            {
              "number": 11,
              "ticks": 4655,
              "time": 42.78488083333334,
              "value": 0.12598425196850394
            },
            {
              "number": 11,
              "ticks": 4658,
              "time": 42.812454333333335,
              "value": 0.11811023622047244
            },
            {
              "number": 11,
              "ticks": 4661,
              "time": 42.84002783333334,
              "value": 0.11023622047244094
            },
            {
              "number": 11,
              "ticks": 4664,
              "time": 42.86760133333334,
              "value": 0.10236220472440945
            },
            {
              "number": 11,
              "ticks": 4667,
              "time": 42.895174833333336,
              "value": 0.09448818897637795
            },
            {
              "number": 11,
              "ticks": 4670,
              "time": 42.92274833333334,
              "value": 0.08661417322834646
            },
            {
              "number": 11,
              "ticks": 4673,
              "time": 42.950321833333334,
              "value": 0.07874015748031496
            },
            {
              "number": 11,
              "ticks": 4676,
              "time": 42.977895333333336,
              "value": 0.07086614173228346
            },
            {
              "number": 11,
              "ticks": 4679,
              "time": 43.00546883333334,
              "value": 0.06299212598425197
            },
            {
              "number": 11,
              "ticks": 4682,
              "time": 43.033042333333334,
              "value": 0.05511811023622047
            },
            {
              "number": 11,
              "ticks": 4685,
              "time": 43.06061583333334,
              "value": 0.047244094488188976
            },
            {
              "number": 11,
              "ticks": 4688,
              "time": 43.08818933333334,
              "value": 0.03937007874015748
            },
            {
              "number": 11,
              "ticks": 4691,
              "time": 43.115762833333335,
              "value": 0.031496062992125984
            },
            {
              "number": 11,
              "ticks": 4694,
              "time": 43.14333633333334,
              "value": 0.023622047244094488
            },
            {
              "number": 11,
              "ticks": 4697,
              "time": 43.17090983333334,
              "value": 0.015748031496062992
            },
            {
              "number": 11,
              "ticks": 4700,
              "time": 43.198483333333336,
              "value": 0.007874015748031496
            },
            {
              "number": 11,
              "ticks": 4703,
              "time": 43.22605683333334,
              "value": 0
            },
            {
              "number": 11,
              "ticks": 5088,
              "time": 46.764656,
              "value": 1
            }
          ],
          "64": [
            {
              "number": 64,
              "ticks": 216,
              "time": 1.985292,
              "value": 0
            }
          ],
          "65": [
            {
              "number": 65,
              "ticks": 217,
              "time": 1.9944831666666667,
              "value": 0
            }
          ],
          "91": [
            {
              "number": 91,
              "ticks": 205,
              "time": 1.8841891666666666,
              "value": 0.6299212598425197
            }
          ],
          "93": [
            {
              "number": 93,
              "ticks": 206,
              "time": 1.8933803333333334,
              "value": 0.15748031496062992
            }
          ],
          "94": [
            {
              "number": 94,
              "ticks": 207,
              "time": 1.9025715,
              "value": 0.28346456692913385
            }
          ],
          "98": [
            {
              "number": 98,
              "ticks": 219,
              "time": 2.0128655,
              "value": 0.25196850393700787
            },
            {
              "number": 98,
              "ticks": 220,
              "time": 2.0220566666666664,
              "value": 0.25984251968503935
            },
            {
              "number": 98,
              "ticks": 221,
              "time": 2.0312478333333335,
              "value": 0.7795275590551181
            },
            {
              "number": 98,
              "ticks": 222,
              "time": 2.040439,
              "value": 0.7874015748031497
            },
            {
              "number": 98,
              "ticks": 223,
              "time": 2.0496301666666668,
              "value": 0.8031496062992126
            },
            {
              "number": 98,
              "ticks": 224,
              "time": 2.0588213333333334,
              "value": 0.06299212598425197
            },
            {
              "number": 98,
              "ticks": 225,
              "time": 2.0680125,
              "value": 0.07086614173228346
            },
            {
              "number": 98,
              "ticks": 226,
              "time": 2.0772036666666667,
              "value": 0.07874015748031496
            }
          ],
          "99": [
            {
              "number": 99,
              "ticks": 219,
              "time": 2.0128655,
              "value": 0.007874015748031496
            }
          ],
          "100": [
            {
              "number": 100,
              "ticks": 209,
              "time": 1.9209538333333336,
              "value": 0
            },
            {
              "number": 100,
              "ticks": 233,
              "time": 2.1415418333333336,
              "value": 1
            }
          ],
          "101": [
            {
              "number": 101,
              "ticks": 208,
              "time": 1.9117626666666665,
              "value": 0
            },
            {
              "number": 101,
              "ticks": 232,
              "time": 2.1323506666666665,
              "value": 1
            }
          ]
        },
        "pitchBends": [
          {
            "ticks": 215,
            "time": 1.9761008333333334,
            "value": 0
          }
        ],
        "instrument": {
          "family": "pipe",
          "number": 77,
          "name": "shakuhachi"
        },
        "name": "",
        "notes": [
          {
            "duration": 0.11029399999999967,
            "durationTicks": 12,
            "midi": 81,
            "name": "A5",
            "ticks": 480,
            "time": 4.41176,
            "velocity": 0.905511811023622
          },
          {
            "duration": 0.09191166666666639,
            "durationTicks": 10,
            "midi": 88,
            "name": "E6",
            "ticks": 504,
            "time": 4.632348,
            "velocity": 0.905511811023622
          },
          {
            "duration": 0.09191166666666728,
            "durationTicks": 10,
            "midi": 86,
            "name": "D6",
            "ticks": 516,
            "time": 4.742642,
            "velocity": 0.905511811023622
          },
          {
            "duration": 1.084557666666667,
            "durationTicks": 118,
            "midi": 88,
            "name": "E6",
            "ticks": 528,
            "time": 4.852936,
            "velocity": 0.905511811023622
          },
          {
            "duration": 0.09191166666666728,
            "durationTicks": 10,
            "midi": 86,
            "name": "D6",
            "ticks": 648,
            "time": 5.955876,
            "velocity": 0.905511811023622
          },
          {
            "duration": 0.09191166666666639,
            "durationTicks": 10,
            "midi": 88,
            "name": "E6",
            "ticks": 660,
            "time": 6.0661700000000005,
            "velocity": 0.905511811023622
          },
          {
            "duration": 0.8455873333333335,
            "durationTicks": 92,
            "midi": 91,
            "name": "G6",
            "ticks": 672,
            "time": 6.176464,
            "velocity": 0.905511811023622
          },
          {
            "duration": 0.11029399999999967,
            "durationTicks": 12,
            "midi": 93,
            "name": "A6",
            "ticks": 768,
            "time": 7.058816,
            "velocity": 0.905511811023622
          },
          {
            "duration": 0.045955833333333196,
            "durationTicks": 5,
            "midi": 91,
            "name": "G6",
            "ticks": 792,
            "time": 7.279404,
            "velocity": 0.905511811023622
          },
          {
            "duration": 0.045955833333334084,
            "durationTicks": 5,
            "midi": 93,
            "name": "A6",
            "ticks": 798,
            "time": 7.334551,
            "velocity": 0.905511811023622
          },
          {
            "duration": 0.09191166666666639,
            "durationTicks": 10,
            "midi": 91,
            "name": "G6",
            "ticks": 804,
            "time": 7.389698,
            "velocity": 0.905511811023622
          },
          {
            "duration": 0.20220566666666606,
            "durationTicks": 22,
            "midi": 88,
            "name": "E6",
            "ticks": 816,
            "time": 7.499992000000001,
            "velocity": 0.905511811023622
          },
          {
            "duration": 0.20220566666666606,
            "durationTicks": 22,
            "midi": 86,
            "name": "D6",
            "ticks": 840,
            "time": 7.72058,
            "velocity": 0.905511811023622
          },
          {
            "duration": 0.6249993333333341,
            "durationTicks": 68,
            "midi": 88,
            "name": "E6",
            "ticks": 864,
            "time": 7.941168,
            "velocity": 0.905511811023622
          },
          {
            "duration": 0.20220566666666606,
            "durationTicks": 22,
            "midi": 86,
            "name": "D6",
            "ticks": 936,
            "time": 8.602932000000001,
            "velocity": 0.905511811023622
          },
          {
            "duration": 0.6249993333333332,
            "durationTicks": 68,
            "midi": 81,
            "name": "A5",
            "ticks": 960,
            "time": 8.82352,
            "velocity": 0.905511811023622
          },
          {
            "duration": 0.20220566666666606,
            "durationTicks": 22,
            "midi": 86,
            "name": "D6",
            "ticks": 1032,
            "time": 9.485284,
            "velocity": 0.905511811023622
          },
          {
            "duration": 1.7463216666666668,
            "durationTicks": 190,
            "midi": 79,
            "name": "G5",
            "ticks": 1056,
            "time": 9.705872,
            "velocity": 0.905511811023622
          },
          {
            "duration": 0.11029399999999967,
            "durationTicks": 12,
            "midi": 81,
            "name": "A5",
            "ticks": 1248,
            "time": 11.470576000000001,
            "velocity": 0.905511811023622
          },
          {
            "duration": 0.09191166666666639,
            "durationTicks": 10,
            "midi": 88,
            "name": "E6",
            "ticks": 1272,
            "time": 11.691164,
            "velocity": 0.905511811023622
          },
          {
            "duration": 0.09191166666666639,
            "durationTicks": 10,
            "midi": 86,
            "name": "D6",
            "ticks": 1284,
            "time": 11.801458,
            "velocity": 0.905511811023622
          },
          {
            "duration": 1.084557666666667,
            "durationTicks": 118,
            "midi": 88,
            "name": "E6",
            "ticks": 1296,
            "time": 11.911752,
            "velocity": 0.905511811023622
          },
          {
            "duration": 0.09191166666666639,
            "durationTicks": 10,
            "midi": 86,
            "name": "D6",
            "ticks": 1416,
            "time": 13.014692,
            "velocity": 0.905511811023622
          },
          {
            "duration": 0.09191166666666639,
            "durationTicks": 10,
            "midi": 88,
            "name": "E6",
            "ticks": 1428,
            "time": 13.124986,
            "velocity": 0.905511811023622
          },
          {
            "duration": 0.8455873333333344,
            "durationTicks": 92,
            "midi": 91,
            "name": "G6",
            "ticks": 1440,
            "time": 13.23528,
            "velocity": 0.905511811023622
          },
          {
            "duration": 0.11029399999999967,
            "durationTicks": 12,
            "midi": 93,
            "name": "A6",
            "ticks": 1536,
            "time": 14.117632,
            "velocity": 0.905511811023622
          },
          {
            "duration": 0.04595583333333231,
            "durationTicks": 5,
            "midi": 91,
            "name": "G6",
            "ticks": 1560,
            "time": 14.33822,
            "velocity": 0.905511811023622
          },
          {
            "duration": 0.04595583333333231,
            "durationTicks": 5,
            "midi": 93,
            "name": "A6",
            "ticks": 1566,
            "time": 14.393367,
            "velocity": 0.905511811023622
          },
          {
            "duration": 0.09191166666666639,
            "durationTicks": 10,
            "midi": 91,
            "name": "G6",
            "ticks": 1572,
            "time": 14.448514000000001,
            "velocity": 0.905511811023622
          },
          {
            "duration": 0.20220566666666784,
            "durationTicks": 22,
            "midi": 88,
            "name": "E6",
            "ticks": 1584,
            "time": 14.558808,
            "velocity": 0.905511811023622
          },
          {
            "duration": 0.20220566666666784,
            "durationTicks": 22,
            "midi": 86,
            "name": "D6",
            "ticks": 1608,
            "time": 14.779396,
            "velocity": 0.905511811023622
          },
          {
            "duration": 0.6249993333333315,
            "durationTicks": 68,
            "midi": 88,
            "name": "E6",
            "ticks": 1632,
            "time": 14.999984000000001,
            "velocity": 0.905511811023622
          },
          {
            "duration": 0.20220566666666784,
            "durationTicks": 22,
            "midi": 86,
            "name": "D6",
            "ticks": 1704,
            "time": 15.661748000000001,
            "velocity": 0.905511811023622
          },
          {
            "duration": 0.6249993333333332,
            "durationTicks": 68,
            "midi": 81,
            "name": "A5",
            "ticks": 1728,
            "time": 15.882336,
            "velocity": 0.905511811023622
          },
          {
            "duration": 0.20220566666666784,
            "durationTicks": 22,
            "midi": 86,
            "name": "D6",
            "ticks": 1800,
            "time": 16.5441,
            "velocity": 0.905511811023622
          },
          {
            "duration": 5.27572966666667,
            "durationTicks": 574,
            "midi": 81,
            "name": "A5",
            "ticks": 1824,
            "time": 16.764688,
            "velocity": 0.905511811023622
          },
          {
            "duration": 0.11029399999999967,
            "durationTicks": 12,
            "midi": 81,
            "name": "A5",
            "ticks": 2784,
            "time": 25.588208,
            "velocity": 0.905511811023622
          },
          {
            "duration": 0.09191166666666817,
            "durationTicks": 10,
            "midi": 88,
            "name": "E6",
            "ticks": 2808,
            "time": 25.808796,
            "velocity": 0.905511811023622
          },
          {
            "duration": 0.09191166666666817,
            "durationTicks": 10,
            "midi": 86,
            "name": "D6",
            "ticks": 2820,
            "time": 25.91909,
            "velocity": 0.905511811023622
          },
          {
            "duration": 1.0845576666666688,
            "durationTicks": 118,
            "midi": 88,
            "name": "E6",
            "ticks": 2832,
            "time": 26.029384,
            "velocity": 0.905511811023622
          },
          {
            "duration": 0.09191166666666817,
            "durationTicks": 10,
            "midi": 86,
            "name": "D6",
            "ticks": 2952,
            "time": 27.132324,
            "velocity": 0.905511811023622
          },
          {
            "duration": 0.09191166666666817,
            "durationTicks": 10,
            "midi": 88,
            "name": "E6",
            "ticks": 2964,
            "time": 27.242618,
            "velocity": 0.905511811023622
          },
          {
            "duration": 0.8455873333333344,
            "durationTicks": 92,
            "midi": 91,
            "name": "G6",
            "ticks": 2976,
            "time": 27.352912,
            "velocity": 0.905511811023622
          },
          {
            "duration": 0.11029399999999967,
            "durationTicks": 12,
            "midi": 93,
            "name": "A6",
            "ticks": 3072,
            "time": 28.235264,
            "velocity": 0.905511811023622
          },
          {
            "duration": 0.04595583333333764,
            "durationTicks": 5,
            "midi": 91,
            "name": "G6",
            "ticks": 3096,
            "time": 28.455852,
            "velocity": 0.905511811023622
          },
          {
            "duration": 0.045955833333334084,
            "durationTicks": 5,
            "midi": 93,
            "name": "A6",
            "ticks": 3102,
            "time": 28.510999,
            "velocity": 0.905511811023622
          },
          {
            "duration": 0.09191166666666462,
            "durationTicks": 10,
            "midi": 91,
            "name": "G6",
            "ticks": 3108,
            "time": 28.566146,
            "velocity": 0.905511811023622
          },
          {
            "duration": 0.20220566666666429,
            "durationTicks": 22,
            "midi": 88,
            "name": "E6",
            "ticks": 3120,
            "time": 28.67644,
            "velocity": 0.905511811023622
          },
          {
            "duration": 0.20220566666666429,
            "durationTicks": 22,
            "midi": 86,
            "name": "D6",
            "ticks": 3144,
            "time": 28.897028000000002,
            "velocity": 0.905511811023622
          },
          {
            "duration": 0.624999333333335,
            "durationTicks": 68,
            "midi": 88,
            "name": "E6",
            "ticks": 3168,
            "time": 29.117616,
            "velocity": 0.905511811023622
          },
          {
            "duration": 0.20220566666666429,
            "durationTicks": 22,
            "midi": 86,
            "name": "D6",
            "ticks": 3240,
            "time": 29.77938,
            "velocity": 0.905511811023622
          },
          {
            "duration": 0.624999333333335,
            "durationTicks": 68,
            "midi": 81,
            "name": "A5",
            "ticks": 3264,
            "time": 29.999968000000003,
            "velocity": 0.905511811023622
          },
          {
            "duration": 0.20220566666666429,
            "durationTicks": 22,
            "midi": 86,
            "name": "D6",
            "ticks": 3336,
            "time": 30.661732,
            "velocity": 0.905511811023622
          },
          {
            "duration": 1.7463216666666668,
            "durationTicks": 190,
            "midi": 79,
            "name": "G5",
            "ticks": 3360,
            "time": 30.88232,
            "velocity": 0.905511811023622
          },
          {
            "duration": 0.11029399999999612,
            "durationTicks": 12,
            "midi": 81,
            "name": "A5",
            "ticks": 3552,
            "time": 32.647024,
            "velocity": 0.905511811023622
          },
          {
            "duration": 0.09191166666666106,
            "durationTicks": 10,
            "midi": 88,
            "name": "E6",
            "ticks": 3576,
            "time": 32.867612,
            "velocity": 0.905511811023622
          },
          {
            "duration": 0.09191166666666106,
            "durationTicks": 10,
            "midi": 86,
            "name": "D6",
            "ticks": 3588,
            "time": 32.977906000000004,
            "velocity": 0.905511811023622
          },
          {
            "duration": 1.0845576666666616,
            "durationTicks": 118,
            "midi": 88,
            "name": "E6",
            "ticks": 3600,
            "time": 33.0882,
            "velocity": 0.905511811023622
          },
          {
            "duration": 0.09191166666666106,
            "durationTicks": 10,
            "midi": 86,
            "name": "D6",
            "ticks": 3720,
            "time": 34.191140000000004,
            "velocity": 0.905511811023622
          },
          {
            "duration": 0.09191166666666817,
            "durationTicks": 10,
            "midi": 88,
            "name": "E6",
            "ticks": 3732,
            "time": 34.301434,
            "velocity": 0.905511811023622
          },
          {
            "duration": 0.8455873333333344,
            "durationTicks": 92,
            "midi": 91,
            "name": "G6",
            "ticks": 3744,
            "time": 34.411728000000004,
            "velocity": 0.905511811023622
          },
          {
            "duration": 0.11029400000000322,
            "durationTicks": 12,
            "midi": 93,
            "name": "A6",
            "ticks": 3840,
            "time": 35.29408,
            "velocity": 0.905511811023622
          },
          {
            "duration": 0.04595583333333764,
            "durationTicks": 5,
            "midi": 91,
            "name": "G6",
            "ticks": 3864,
            "time": 35.514668,
            "velocity": 0.905511811023622
          },
          {
            "duration": 0.04595583333333764,
            "durationTicks": 5,
            "midi": 93,
            "name": "A6",
            "ticks": 3870,
            "time": 35.569815,
            "velocity": 0.905511811023622
          },
          {
            "duration": 0.09191166666666106,
            "durationTicks": 10,
            "midi": 91,
            "name": "G6",
            "ticks": 3876,
            "time": 35.624962000000004,
            "velocity": 0.905511811023622
          },
          {
            "duration": 0.20220566666666429,
            "durationTicks": 22,
            "midi": 88,
            "name": "E6",
            "ticks": 3888,
            "time": 35.735256,
            "velocity": 0.905511811023622
          },
          {
            "duration": 0.20220566666666429,
            "durationTicks": 22,
            "midi": 86,
            "name": "D6",
            "ticks": 3912,
            "time": 35.955844,
            "velocity": 0.905511811023622
          },
          {
            "duration": 0.624999333333335,
            "durationTicks": 68,
            "midi": 88,
            "name": "E6",
            "ticks": 3936,
            "time": 36.176432,
            "velocity": 0.905511811023622
          },
          {
            "duration": 0.20220566666666429,
            "durationTicks": 22,
            "midi": 86,
            "name": "D6",
            "ticks": 4008,
            "time": 36.838196,
            "velocity": 0.905511811023622
          },
          {
            "duration": 0.624999333333335,
            "durationTicks": 68,
            "midi": 81,
            "name": "A5",
            "ticks": 4032,
            "time": 37.058784,
            "velocity": 0.905511811023622
          },
          {
            "duration": 0.20220566666666429,
            "durationTicks": 22,
            "midi": 86,
            "name": "D6",
            "ticks": 4104,
            "time": 37.720548,
            "velocity": 0.905511811023622
          },
          {
            "duration": 5.275729666666663,
            "durationTicks": 574,
            "midi": 81,
            "name": "A5",
            "ticks": 4128,
            "time": 37.941136,
            "velocity": 0.905511811023622
          },
          {
            "duration": 0.11029399999999612,
            "durationTicks": 12,
            "midi": 81,
            "name": "A5",
            "ticks": 8160,
            "time": 74.99992,
            "velocity": 0.905511811023622
          },
          {
            "duration": 0.09191166666667527,
            "durationTicks": 10,
            "midi": 88,
            "name": "E6",
            "ticks": 8184,
            "time": 75.220508,
            "velocity": 0.905511811023622
          },
          {
            "duration": 0.09191166666666106,
            "durationTicks": 10,
            "midi": 86,
            "name": "D6",
            "ticks": 8196,
            "time": 75.330802,
            "velocity": 0.905511811023622
          },
          {
            "duration": 1.0845576666666688,
            "durationTicks": 118,
            "midi": 88,
            "name": "E6",
            "ticks": 8208,
            "time": 75.441096,
            "velocity": 0.905511811023622
          },
          {
            "duration": 0.09191166666666106,
            "durationTicks": 10,
            "midi": 86,
            "name": "D6",
            "ticks": 8328,
            "time": 76.544036,
            "velocity": 0.905511811023622
          },
          {
            "duration": 0.09191166666667527,
            "durationTicks": 10,
            "midi": 88,
            "name": "E6",
            "ticks": 8340,
            "time": 76.65433,
            "velocity": 0.905511811023622
          },
          {
            "duration": 0.8455873333333273,
            "durationTicks": 92,
            "midi": 91,
            "name": "G6",
            "ticks": 8352,
            "time": 76.764624,
            "velocity": 0.905511811023622
          },
          {
            "duration": 0.11029400000001033,
            "durationTicks": 12,
            "midi": 93,
            "name": "A6",
            "ticks": 8448,
            "time": 77.646976,
            "velocity": 0.905511811023622
          },
          {
            "duration": 0.045955833333323426,
            "durationTicks": 5,
            "midi": 91,
            "name": "G6",
            "ticks": 8472,
            "time": 77.867564,
            "velocity": 0.905511811023622
          },
          {
            "duration": 0.045955833333323426,
            "durationTicks": 5,
            "midi": 93,
            "name": "A6",
            "ticks": 8478,
            "time": 77.922711,
            "velocity": 0.905511811023622
          },
          {
            "duration": 0.09191166666667527,
            "durationTicks": 10,
            "midi": 91,
            "name": "G6",
            "ticks": 8484,
            "time": 77.977858,
            "velocity": 0.905511811023622
          },
          {
            "duration": 0.2022056666666714,
            "durationTicks": 22,
            "midi": 88,
            "name": "E6",
            "ticks": 8496,
            "time": 78.08815200000001,
            "velocity": 0.905511811023622
          },
          {
            "duration": 0.2022056666666714,
            "durationTicks": 22,
            "midi": 86,
            "name": "D6",
            "ticks": 8520,
            "time": 78.30874,
            "velocity": 0.905511811023622
          },
          {
            "duration": 0.6249993333333208,
            "durationTicks": 68,
            "midi": 88,
            "name": "E6",
            "ticks": 8544,
            "time": 78.529328,
            "velocity": 0.905511811023622
          },
          {
            "duration": 0.2022056666666714,
            "durationTicks": 22,
            "midi": 86,
            "name": "D6",
            "ticks": 8616,
            "time": 79.191092,
            "velocity": 0.905511811023622
          },
          {
            "duration": 0.6249993333333208,
            "durationTicks": 68,
            "midi": 81,
            "name": "A5",
            "ticks": 8640,
            "time": 79.41168,
            "velocity": 0.905511811023622
          },
          {
            "duration": 0.20220566666665718,
            "durationTicks": 22,
            "midi": 86,
            "name": "D6",
            "ticks": 8712,
            "time": 80.07344400000001,
            "velocity": 0.905511811023622
          },
          {
            "duration": 1.7463216666666739,
            "durationTicks": 190,
            "midi": 79,
            "name": "G5",
            "ticks": 8736,
            "time": 80.294032,
            "velocity": 0.905511811023622
          }
        ]
      },
      {
        "channel": 0,
        "controlChanges": {
          "0": [
            {
              "number": 0,
              "ticks": 202,
              "time": 1.8566156666666667,
              "value": 0
            }
          ],
          "32": [
            {
              "number": 32,
              "ticks": 203,
              "time": 1.8658068333333335,
              "value": 0.015748031496062992
            }
          ]
        },
        "pitchBends": [],
        "instrument": {
          "family": "piano",
          "number": 0,
          "name": "acoustic grand piano"
        },
        "name": "Õ\u0000",
        "notes": [],
        "endOfTrackTicks": 8928
      },
      {
        "channel": 4,
        "controlChanges": {
          "1": [
            {
              "number": 1,
              "ticks": 214,
              "time": 1.9669096666666666,
              "value": 0
            }
          ],
          "5": [
            {
              "number": 5,
              "ticks": 218,
              "time": 2.0036743333333336,
              "value": 0
            }
          ],
          "6": [
            {
              "number": 6,
              "ticks": 210,
              "time": 1.930145,
              "value": 0.015748031496062992
            },
            {
              "number": 6,
              "ticks": 219,
              "time": 2.0128655,
              "value": 0.5039370078740157
            },
            {
              "number": 6,
              "ticks": 220,
              "time": 2.0220566666666664,
              "value": 0.5039370078740157
            },
            {
              "number": 6,
              "ticks": 221,
              "time": 2.0312478333333335,
              "value": 0.5039370078740157
            },
            {
              "number": 6,
              "ticks": 222,
              "time": 2.040439,
              "value": 0.4881889763779528
            },
            {
              "number": 6,
              "ticks": 223,
              "time": 2.0496301666666668,
              "value": 0.47244094488188976
            },
            {
              "number": 6,
              "ticks": 224,
              "time": 2.0588213333333334,
              "value": 0.5039370078740157
            },
            {
              "number": 6,
              "ticks": 225,
              "time": 2.0680125,
              "value": 0.5039370078740157
            },
            {
              "number": 6,
              "ticks": 226,
              "time": 2.0772036666666667,
              "value": 0.5039370078740157
            }
          ],
          "7": [
            {
              "number": 7,
              "ticks": 211,
              "time": 1.9393361666666666,
              "value": 0.8661417322834646
            },
            {
              "number": 7,
              "ticks": 8208,
              "time": 75.441096,
              "value": 0.8661417322834646
            },
            {
              "number": 7,
              "ticks": 8256,
              "time": 75.882272,
              "value": 0.8110236220472441
            },
            {
              "number": 7,
              "ticks": 8304,
              "time": 76.323448,
              "value": 0.7559055118110236
            },
            {
              "number": 7,
              "ticks": 8352,
              "time": 76.764624,
              "value": 0.7007874015748031
            },
            {
              "number": 7,
              "ticks": 8400,
              "time": 77.2058,
              "value": 0.6456692913385826
            },
            {
              "number": 7,
              "ticks": 8448,
              "time": 77.646976,
              "value": 0.5905511811023622
            },
            {
              "number": 7,
              "ticks": 8496,
              "time": 78.08815200000001,
              "value": 0.5354330708661418
            },
            {
              "number": 7,
              "ticks": 8544,
              "time": 78.529328,
              "value": 0.48031496062992124
            },
            {
              "number": 7,
              "ticks": 8592,
              "time": 78.970504,
              "value": 0.4330708661417323
            },
            {
              "number": 7,
              "ticks": 8640,
              "time": 79.41168,
              "value": 0.3779527559055118
            },
            {
              "number": 7,
              "ticks": 8688,
              "time": 79.852856,
              "value": 0.3228346456692913
            },
            {
              "number": 7,
              "ticks": 8736,
              "time": 80.294032,
              "value": 0.2677165354330709
            },
            {
              "number": 7,
              "ticks": 8784,
              "time": 80.735208,
              "value": 0.2125984251968504
            },
            {
              "number": 7,
              "ticks": 8832,
              "time": 81.176384,
              "value": 0.15748031496062992
            },
            {
              "number": 7,
              "ticks": 8880,
              "time": 81.61756,
              "value": 0.10236220472440945
            },
            {
              "number": 7,
              "ticks": 8928,
              "time": 82.058736,
              "value": 0.047244094488188976
            }
          ],
          "10": [
            {
              "number": 10,
              "ticks": 213,
              "time": 1.9577185000000001,
              "value": 0.5039370078740157
            }
          ],
          "11": [
            {
              "number": 11,
              "ticks": 212,
              "time": 1.9485273333333335,
              "value": 1
            }
          ],
          "64": [
            {
              "number": 64,
              "ticks": 216,
              "time": 1.985292,
              "value": 0
            }
          ],
          "65": [
            {
              "number": 65,
              "ticks": 217,
              "time": 1.9944831666666667,
              "value": 0
            }
          ],
          "91": [
            {
              "number": 91,
              "ticks": 205,
              "time": 1.8841891666666666,
              "value": 0.6299212598425197
            }
          ],
          "93": [
            {
              "number": 93,
              "ticks": 206,
              "time": 1.8933803333333334,
              "value": 0.15748031496062992
            }
          ],
          "94": [
            {
              "number": 94,
              "ticks": 207,
              "time": 1.9025715,
              "value": 0
            }
          ],
          "98": [
            {
              "number": 98,
              "ticks": 219,
              "time": 2.0128655,
              "value": 0.25196850393700787
            },
            {
              "number": 98,
              "ticks": 220,
              "time": 2.0220566666666664,
              "value": 0.25984251968503935
            },
            {
              "number": 98,
              "ticks": 221,
              "time": 2.0312478333333335,
              "value": 0.7795275590551181
            },
            {
              "number": 98,
              "ticks": 222,
              "time": 2.040439,
              "value": 0.7874015748031497
            },
            {
              "number": 98,
              "ticks": 223,
              "time": 2.0496301666666668,
              "value": 0.8031496062992126
            },
            {
              "number": 98,
              "ticks": 224,
              "time": 2.0588213333333334,
              "value": 0.06299212598425197
            },
            {
              "number": 98,
              "ticks": 225,
              "time": 2.0680125,
              "value": 0.07086614173228346
            },
            {
              "number": 98,
              "ticks": 226,
              "time": 2.0772036666666667,
              "value": 0.07874015748031496
            }
          ],
          "99": [
            {
              "number": 99,
              "ticks": 219,
              "time": 2.0128655,
              "value": 0.007874015748031496
            }
          ],
          "100": [
            {
              "number": 100,
              "ticks": 209,
              "time": 1.9209538333333336,
              "value": 0
            },
            {
              "number": 100,
              "ticks": 233,
              "time": 2.1415418333333336,
              "value": 1
            }
          ],
          "101": [
            {
              "number": 101,
              "ticks": 208,
              "time": 1.9117626666666665,
              "value": 0
            },
            {
              "number": 101,
              "ticks": 232,
              "time": 2.1323506666666665,
              "value": 1
            }
          ]
        },
        "pitchBends": [
          {
            "ticks": 215,
            "time": 1.9761008333333334,
            "value": 0
          }
        ],
        "instrument": {
          "family": "world",
          "number": 107,
          "name": "koto"
        },
        "name": "",
        "notes": [
          {
            "duration": 0.09191166666666728,
            "durationTicks": 10,
            "midi": 69,
            "name": "A4",
            "ticks": 480,
            "time": 4.41176,
            "velocity": 0.5905511811023622
          },
          {
            "duration": 0.09191166666666728,
            "durationTicks": 10,
            "midi": 64,
            "name": "E4",
            "ticks": 480,
            "time": 4.41176,
            "velocity": 0.5905511811023622
          },
          {
            "duration": 0.09191166666666728,
            "durationTicks": 10,
            "midi": 62,
            "name": "D4",
            "ticks": 480,
            "time": 4.41176,
            "velocity": 0.5905511811023622
          },
          {
            "duration": 0.09191166666666728,
            "durationTicks": 10,
            "midi": 60,
            "name": "C4",
            "ticks": 480,
            "time": 4.41176,
            "velocity": 0.5905511811023622
          },
          {
            "duration": 0.09191166666666639,
            "durationTicks": 10,
            "midi": 57,
            "name": "A3",
            "ticks": 504,
            "time": 4.632348,
            "velocity": 0.6692913385826772
          },
          {
            "duration": 0.20220566666666695,
            "durationTicks": 22,
            "midi": 69,
            "name": "A4",
            "ticks": 516,
            "time": 4.742642,
            "velocity": 0.5905511811023622
          },
          {
            "duration": 0.20220566666666695,
            "durationTicks": 22,
            "midi": 64,
            "name": "E4",
            "ticks": 516,
            "time": 4.742642,
            "velocity": 0.5905511811023622
          },
          {
            "duration": 0.20220566666666695,
            "durationTicks": 22,
            "midi": 62,
            "name": "D4",
            "ticks": 516,
            "time": 4.742642,
            "velocity": 0.5905511811023622
          },
          {
            "duration": 0.20220566666666695,
            "durationTicks": 22,
            "midi": 60,
            "name": "C4",
            "ticks": 516,
            "time": 4.742642,
            "velocity": 0.5905511811023622
          },
          {
            "duration": 0.09191166666666639,
            "durationTicks": 10,
            "midi": 57,
            "name": "A3",
            "ticks": 540,
            "time": 4.96323,
            "velocity": 0.6692913385826772
          },
          {
            "duration": 0.09191166666666728,
            "durationTicks": 10,
            "midi": 60,
            "name": "C4",
            "ticks": 552,
            "time": 5.073524,
            "velocity": 0.6692913385826772
          },
          {
            "duration": 0.09191166666666639,
            "durationTicks": 10,
            "midi": 62,
            "name": "D4",
            "ticks": 564,
            "time": 5.1838180000000005,
            "velocity": 0.6692913385826772
          },
          {
            "duration": 0.20220566666666695,
            "durationTicks": 22,
            "midi": 64,
            "name": "E4",
            "ticks": 576,
            "time": 5.294112,
            "velocity": 0.6692913385826772
          },
          {
            "duration": 0.20220566666666695,
            "durationTicks": 22,
            "midi": 58,
            "name": "A#3",
            "ticks": 576,
            "time": 5.294112,
            "velocity": 0.6692913385826772
          },
          {
            "duration": 0.09191166666666639,
            "durationTicks": 10,
            "midi": 70,
            "name": "A#4",
            "ticks": 600,
            "time": 5.5147,
            "velocity": 0.5905511811023622
          },
          {
            "duration": 0.09191166666666639,
            "durationTicks": 10,
            "midi": 67,
            "name": "G4",
            "ticks": 600,
            "time": 5.5147,
            "velocity": 0.5905511811023622
          },
          {
            "duration": 0.09191166666666639,
            "durationTicks": 10,
            "midi": 63,
            "name": "D#4",
            "ticks": 600,
            "time": 5.5147,
            "velocity": 0.5905511811023622
          },
          {
            "duration": 0.09191166666666639,
            "durationTicks": 10,
            "midi": 60,
            "name": "C4",
            "ticks": 600,
            "time": 5.5147,
            "velocity": 0.5905511811023622
          },
          {
            "duration": 0.09191166666666639,
            "durationTicks": 10,
            "midi": 58,
            "name": "A#3",
            "ticks": 624,
            "time": 5.735288000000001,
            "velocity": 0.6692913385826772
          },
          {
            "duration": 0.20220566666666695,
            "durationTicks": 22,
            "midi": 70,
            "name": "A#4",
            "ticks": 636,
            "time": 5.845582,
            "velocity": 0.5905511811023622
          },
          {
            "duration": 0.20220566666666695,
            "durationTicks": 22,
            "midi": 67,
            "name": "G4",
            "ticks": 636,
            "time": 5.845582,
            "velocity": 0.5905511811023622
          },
          {
            "duration": 0.20220566666666695,
            "durationTicks": 22,
            "midi": 63,
            "name": "D#4",
            "ticks": 636,
            "time": 5.845582,
            "velocity": 0.5905511811023622
          },
          {
            "duration": 0.20220566666666695,
            "durationTicks": 22,
            "midi": 60,
            "name": "C4",
            "ticks": 636,
            "time": 5.845582,
            "velocity": 0.5905511811023622
          },
          {
            "duration": 0.09191166666666639,
            "durationTicks": 10,
            "midi": 58,
            "name": "A#3",
            "ticks": 660,
            "time": 6.0661700000000005,
            "velocity": 0.6692913385826772
          },
          {
            "duration": 0.09191166666666728,
            "durationTicks": 10,
            "midi": 69,
            "name": "A4",
            "ticks": 672,
            "time": 6.176464,
            "velocity": 0.5905511811023622
          },
          {
            "duration": 0.09191166666666728,
            "durationTicks": 10,
            "midi": 64,
            "name": "E4",
            "ticks": 672,
            "time": 6.176464,
            "velocity": 0.5905511811023622
          },
          {
            "duration": 0.09191166666666728,
            "durationTicks": 10,
            "midi": 62,
            "name": "D4",
            "ticks": 672,
            "time": 6.176464,
            "velocity": 0.5905511811023622
          },
          {
            "duration": 0.09191166666666728,
            "durationTicks": 10,
            "midi": 60,
            "name": "C4",
            "ticks": 672,
            "time": 6.176464,
            "velocity": 0.5905511811023622
          },
          {
            "duration": 0.09191166666666639,
            "durationTicks": 10,
            "midi": 57,
            "name": "A3",
            "ticks": 696,
            "time": 6.397052,
            "velocity": 0.6692913385826772
          },
          {
            "duration": 0.20220566666666695,
            "durationTicks": 22,
            "midi": 69,
            "name": "A4",
            "ticks": 708,
            "time": 6.507346,
            "velocity": 0.5905511811023622
          },
          {
            "duration": 0.20220566666666695,
            "durationTicks": 22,
            "midi": 64,
            "name": "E4",
            "ticks": 708,
            "time": 6.507346,
            "velocity": 0.5905511811023622
          },
          {
            "duration": 0.20220566666666695,
            "durationTicks": 22,
            "midi": 62,
            "name": "D4",
            "ticks": 708,
            "time": 6.507346,
            "velocity": 0.5905511811023622
          },
          {
            "duration": 0.20220566666666695,
            "durationTicks": 22,
            "midi": 60,
            "name": "C4",
            "ticks": 708,
            "time": 6.507346,
            "velocity": 0.5905511811023622
          },
          {
            "duration": 0.09191166666666639,
            "durationTicks": 10,
            "midi": 57,
            "name": "A3",
            "ticks": 732,
            "time": 6.727934,
            "velocity": 0.6692913385826772
          },
          {
            "duration": 0.09191166666666728,
            "durationTicks": 10,
            "midi": 60,
            "name": "C4",
            "ticks": 744,
            "time": 6.838228,
            "velocity": 0.6692913385826772
          },
          {
            "duration": 0.09191166666666639,
            "durationTicks": 10,
            "midi": 62,
            "name": "D4",
            "ticks": 756,
            "time": 6.9485220000000005,
            "velocity": 0.6692913385826772
          },
          {
            "duration": 0.20220566666666606,
            "durationTicks": 22,
            "midi": 64,
            "name": "E4",
            "ticks": 768,
            "time": 7.058816,
            "velocity": 0.6692913385826772
          },
          {
            "duration": 0.20220566666666606,
            "durationTicks": 22,
            "midi": 48,
            "name": "C3",
            "ticks": 768,
            "time": 7.058816,
            "velocity": 0.6692913385826772
          },
          {
            "duration": 0.0919116666666655,
            "durationTicks": 10,
            "midi": 74,
            "name": "D5",
            "ticks": 792,
            "time": 7.279404,
            "velocity": 0.5905511811023622
          },
          {
            "duration": 0.0919116666666655,
            "durationTicks": 10,
            "midi": 67,
            "name": "G4",
            "ticks": 792,
            "time": 7.279404,
            "velocity": 0.5905511811023622
          },
          {
            "duration": 0.0919116666666655,
            "durationTicks": 10,
            "midi": 63,
            "name": "D#4",
            "ticks": 792,
            "time": 7.279404,
            "velocity": 0.5905511811023622
          },
          {
            "duration": 0.0919116666666655,
            "durationTicks": 10,
            "midi": 60,
            "name": "C4",
            "ticks": 792,
            "time": 7.279404,
            "velocity": 0.5905511811023622
          },
          {
            "duration": 0.0919116666666655,
            "durationTicks": 10,
            "midi": 48,
            "name": "C3",
            "ticks": 816,
            "time": 7.499992000000001,
            "velocity": 0.6692913385826772
          },
          {
            "duration": 0.20220566666666606,
            "durationTicks": 22,
            "midi": 74,
            "name": "D5",
            "ticks": 828,
            "time": 7.610286,
            "velocity": 0.5905511811023622
          },
          {
            "duration": 0.20220566666666606,
            "durationTicks": 22,
            "midi": 67,
            "name": "G4",
            "ticks": 828,
            "time": 7.610286,
            "velocity": 0.5905511811023622
          },
          {
            "duration": 0.20220566666666606,
            "durationTicks": 22,
            "midi": 63,
            "name": "D#4",
            "ticks": 828,
            "time": 7.610286,
            "velocity": 0.5905511811023622
          },
          {
            "duration": 0.20220566666666606,
            "durationTicks": 22,
            "midi": 60,
            "name": "C4",
            "ticks": 828,
            "time": 7.610286,
            "velocity": 0.5905511811023622
          },
          {
            "duration": 0.0919116666666655,
            "durationTicks": 10,
            "midi": 48,
            "name": "C3",
            "ticks": 852,
            "time": 7.830874000000001,
            "velocity": 0.6692913385826772
          },
          {
            "duration": 0.0919116666666655,
            "durationTicks": 10,
            "midi": 69,
            "name": "A4",
            "ticks": 864,
            "time": 7.941168,
            "velocity": 0.5905511811023622
          },
          {
            "duration": 0.0919116666666655,
            "durationTicks": 10,
            "midi": 64,
            "name": "E4",
            "ticks": 864,
            "time": 7.941168,
            "velocity": 0.5905511811023622
          },
          {
            "duration": 0.0919116666666655,
            "durationTicks": 10,
            "midi": 62,
            "name": "D4",
            "ticks": 864,
            "time": 7.941168,
            "velocity": 0.5905511811023622
          },
          {
            "duration": 0.0919116666666655,
            "durationTicks": 10,
            "midi": 60,
            "name": "C4",
            "ticks": 864,
            "time": 7.941168,
            "velocity": 0.5905511811023622
          },
          {
            "duration": 0.09191166666666639,
            "durationTicks": 10,
            "midi": 57,
            "name": "A3",
            "ticks": 888,
            "time": 8.161756,
            "velocity": 0.6692913385826772
          },
          {
            "duration": 0.20220566666666606,
            "durationTicks": 22,
            "midi": 69,
            "name": "A4",
            "ticks": 900,
            "time": 8.27205,
            "velocity": 0.5905511811023622
          },
          {
            "duration": 0.20220566666666606,
            "durationTicks": 22,
            "midi": 64,
            "name": "E4",
            "ticks": 900,
            "time": 8.27205,
            "velocity": 0.5905511811023622
          },
          {
            "duration": 0.20220566666666606,
            "durationTicks": 22,
            "midi": 62,
            "name": "D4",
            "ticks": 900,
            "time": 8.27205,
            "velocity": 0.5905511811023622
          },
          {
            "duration": 0.20220566666666606,
            "durationTicks": 22,
            "midi": 60,
            "name": "C4",
            "ticks": 900,
            "time": 8.27205,
            "velocity": 0.5905511811023622
          },
          {
            "duration": 0.09191166666666639,
            "durationTicks": 10,
            "midi": 57,
            "name": "A3",
            "ticks": 924,
            "time": 8.492638,
            "velocity": 0.6692913385826772
          },
          {
            "duration": 0.09191166666666462,
            "durationTicks": 10,
            "midi": 60,
            "name": "C4",
            "ticks": 936,
            "time": 8.602932000000001,
            "velocity": 0.6692913385826772
          },
          {
            "duration": 0.09191166666666639,
            "durationTicks": 10,
            "midi": 62,
            "name": "D4",
            "ticks": 948,
            "time": 8.713226,
            "velocity": 0.6692913385826772
          },
          {
            "duration": 0.20220566666666606,
            "durationTicks": 22,
            "midi": 64,
            "name": "E4",
            "ticks": 960,
            "time": 8.82352,
            "velocity": 0.6692913385826772
          },
          {
            "duration": 0.20220566666666606,
            "durationTicks": 22,
            "midi": 58,
            "name": "A#3",
            "ticks": 960,
            "time": 8.82352,
            "velocity": 0.6692913385826772
          },
          {
            "duration": 0.09191166666666639,
            "durationTicks": 10,
            "midi": 70,
            "name": "A#4",
            "ticks": 984,
            "time": 9.044108,
            "velocity": 0.5905511811023622
          },
          {
            "duration": 0.09191166666666639,
            "durationTicks": 10,
            "midi": 67,
            "name": "G4",
            "ticks": 984,
            "time": 9.044108,
            "velocity": 0.5905511811023622
          },
          {
            "duration": 0.09191166666666639,
            "durationTicks": 10,
            "midi": 63,
            "name": "D#4",
            "ticks": 984,
            "time": 9.044108,
            "velocity": 0.5905511811023622
          },
          {
            "duration": 0.09191166666666639,
            "durationTicks": 10,
            "midi": 60,
            "name": "C4",
            "ticks": 984,
            "time": 9.044108,
            "velocity": 0.5905511811023622
          },
          {
            "duration": 0.09191166666666639,
            "durationTicks": 10,
            "midi": 58,
            "name": "A#3",
            "ticks": 1008,
            "time": 9.264696,
            "velocity": 0.6692913385826772
          },
          {
            "duration": 0.20220566666666606,
            "durationTicks": 22,
            "midi": 70,
            "name": "A#4",
            "ticks": 1020,
            "time": 9.37499,
            "velocity": 0.5905511811023622
          },
          {
            "duration": 0.20220566666666606,
            "durationTicks": 22,
            "midi": 67,
            "name": "G4",
            "ticks": 1020,
            "time": 9.37499,
            "velocity": 0.5905511811023622
          },
          {
            "duration": 0.20220566666666606,
            "durationTicks": 22,
            "midi": 63,
            "name": "D#4",
            "ticks": 1020,
            "time": 9.37499,
            "velocity": 0.5905511811023622
          },
          {
            "duration": 0.20220566666666606,
            "durationTicks": 22,
            "midi": 60,
            "name": "C4",
            "ticks": 1020,
            "time": 9.37499,
            "velocity": 0.5905511811023622
          },
          {
            "duration": 0.09191166666666639,
            "durationTicks": 10,
            "midi": 58,
            "name": "A#3",
            "ticks": 1044,
            "time": 9.595578,
            "velocity": 0.6692913385826772
          },
          {
            "duration": 0.09191166666666639,
            "durationTicks": 10,
            "midi": 69,
            "name": "A4",
            "ticks": 1056,
            "time": 9.705872,
            "velocity": 0.5905511811023622
          },
          {
            "duration": 0.09191166666666639,
            "durationTicks": 10,
            "midi": 64,
            "name": "E4",
            "ticks": 1056,
            "time": 9.705872,
            "velocity": 0.5905511811023622
          },
          {
            "duration": 0.09191166666666639,
            "durationTicks": 10,
            "midi": 62,
            "name": "D4",
            "ticks": 1056,
            "time": 9.705872,
            "velocity": 0.5905511811023622
          },
          {
            "duration": 0.09191166666666639,
            "durationTicks": 10,
            "midi": 60,
            "name": "C4",
            "ticks": 1056,
            "time": 9.705872,
            "velocity": 0.5905511811023622
          },
          {
            "duration": 0.09191166666666639,
            "durationTicks": 10,
            "midi": 57,
            "name": "A3",
            "ticks": 1080,
            "time": 9.92646,
            "velocity": 0.6692913385826772
          },
          {
            "duration": 0.20220566666666606,
            "durationTicks": 22,
            "midi": 69,
            "name": "A4",
            "ticks": 1092,
            "time": 10.036754,
            "velocity": 0.5905511811023622
          },
          {
            "duration": 0.20220566666666606,
            "durationTicks": 22,
            "midi": 64,
            "name": "E4",
            "ticks": 1092,
            "time": 10.036754,
            "velocity": 0.5905511811023622
          },
          {
            "duration": 0.20220566666666606,
            "durationTicks": 22,
            "midi": 62,
            "name": "D4",
            "ticks": 1092,
            "time": 10.036754,
            "velocity": 0.5905511811023622
          },
          {
            "duration": 0.20220566666666606,
            "durationTicks": 22,
            "midi": 60,
            "name": "C4",
            "ticks": 1092,
            "time": 10.036754,
            "velocity": 0.5905511811023622
          },
          {
            "duration": 0.09191166666666639,
            "durationTicks": 10,
            "midi": 57,
            "name": "A3",
            "ticks": 1116,
            "time": 10.257342,
            "velocity": 0.6692913385826772
          },
          {
            "duration": 0.09191166666666462,
            "durationTicks": 10,
            "midi": 60,
            "name": "C4",
            "ticks": 1128,
            "time": 10.367636000000001,
            "velocity": 0.6692913385826772
          },
          {
            "duration": 0.09191166666666639,
            "durationTicks": 10,
            "midi": 62,
            "name": "D4",
            "ticks": 1140,
            "time": 10.47793,
            "velocity": 0.6692913385826772
          },
          {
            "duration": 0.20220566666666606,
            "durationTicks": 22,
            "midi": 64,
            "name": "E4",
            "ticks": 1152,
            "time": 10.588224,
            "velocity": 0.6692913385826772
          },
          {
            "duration": 0.20220566666666606,
            "durationTicks": 22,
            "midi": 48,
            "name": "C3",
            "ticks": 1152,
            "time": 10.588224,
            "velocity": 0.6692913385826772
          },
          {
            "duration": 0.09191166666666639,
            "durationTicks": 10,
            "midi": 74,
            "name": "D5",
            "ticks": 1176,
            "time": 10.808812,
            "velocity": 0.5905511811023622
          },
          {
            "duration": 0.09191166666666639,
            "durationTicks": 10,
            "midi": 67,
            "name": "G4",
            "ticks": 1176,
            "time": 10.808812,
            "velocity": 0.5905511811023622
          },
          {
            "duration": 0.09191166666666639,
            "durationTicks": 10,
            "midi": 63,
            "name": "D#4",
            "ticks": 1176,
            "time": 10.808812,
            "velocity": 0.5905511811023622
          },
          {
            "duration": 0.09191166666666639,
            "durationTicks": 10,
            "midi": 60,
            "name": "C4",
            "ticks": 1176,
            "time": 10.808812,
            "velocity": 0.5905511811023622
          },
          {
            "duration": 0.09191166666666639,
            "durationTicks": 10,
            "midi": 48,
            "name": "C3",
            "ticks": 1200,
            "time": 11.0294,
            "velocity": 0.6692913385826772
          },
          {
            "duration": 0.20220566666666606,
            "durationTicks": 22,
            "midi": 74,
            "name": "D5",
            "ticks": 1212,
            "time": 11.139694,
            "velocity": 0.5905511811023622
          },
          {
            "duration": 0.20220566666666606,
            "durationTicks": 22,
            "midi": 67,
            "name": "G4",
            "ticks": 1212,
            "time": 11.139694,
            "velocity": 0.5905511811023622
          },
          {
            "duration": 0.20220566666666606,
            "durationTicks": 22,
            "midi": 63,
            "name": "D#4",
            "ticks": 1212,
            "time": 11.139694,
            "velocity": 0.5905511811023622
          },
          {
            "duration": 0.20220566666666606,
            "durationTicks": 22,
            "midi": 60,
            "name": "C4",
            "ticks": 1212,
            "time": 11.139694,
            "velocity": 0.5905511811023622
          },
          {
            "duration": 0.09191166666666639,
            "durationTicks": 10,
            "midi": 48,
            "name": "C3",
            "ticks": 1236,
            "time": 11.360282,
            "velocity": 0.6692913385826772
          },
          {
            "duration": 0.09191166666666462,
            "durationTicks": 10,
            "midi": 69,
            "name": "A4",
            "ticks": 1248,
            "time": 11.470576000000001,
            "velocity": 0.5905511811023622
          },
          {
            "duration": 0.09191166666666462,
            "durationTicks": 10,
            "midi": 64,
            "name": "E4",
            "ticks": 1248,
            "time": 11.470576000000001,
            "velocity": 0.5905511811023622
          },
          {
            "duration": 0.09191166666666462,
            "durationTicks": 10,
            "midi": 62,
            "name": "D4",
            "ticks": 1248,
            "time": 11.470576000000001,
            "velocity": 0.5905511811023622
          },
          {
            "duration": 0.09191166666666462,
            "durationTicks": 10,
            "midi": 60,
            "name": "C4",
            "ticks": 1248,
            "time": 11.470576000000001,
            "velocity": 0.5905511811023622
          },
          {
            "duration": 0.09191166666666639,
            "durationTicks": 10,
            "midi": 57,
            "name": "A3",
            "ticks": 1272,
            "time": 11.691164,
            "velocity": 0.6692913385826772
          },
          {
            "duration": 0.20220566666666606,
            "durationTicks": 22,
            "midi": 69,
            "name": "A4",
            "ticks": 1284,
            "time": 11.801458,
            "velocity": 0.5905511811023622
          },
          {
            "duration": 0.20220566666666606,
            "durationTicks": 22,
            "midi": 64,
            "name": "E4",
            "ticks": 1284,
            "time": 11.801458,
            "velocity": 0.5905511811023622
          },
          {
            "duration": 0.20220566666666606,
            "durationTicks": 22,
            "midi": 62,
            "name": "D4",
            "ticks": 1284,
            "time": 11.801458,
            "velocity": 0.5905511811023622
          },
          {
            "duration": 0.20220566666666606,
            "durationTicks": 22,
            "midi": 60,
            "name": "C4",
            "ticks": 1284,
            "time": 11.801458,
            "velocity": 0.5905511811023622
          },
          {
            "duration": 0.09191166666666639,
            "durationTicks": 10,
            "midi": 57,
            "name": "A3",
            "ticks": 1308,
            "time": 12.022046,
            "velocity": 0.6692913385826772
          },
          {
            "duration": 0.09191166666666462,
            "durationTicks": 10,
            "midi": 60,
            "name": "C4",
            "ticks": 1320,
            "time": 12.132340000000001,
            "velocity": 0.6692913385826772
          },
          {
            "duration": 0.09191166666666639,
            "durationTicks": 10,
            "midi": 62,
            "name": "D4",
            "ticks": 1332,
            "time": 12.242634,
            "velocity": 0.6692913385826772
          },
          {
            "duration": 0.20220566666666606,
            "durationTicks": 22,
            "midi": 64,
            "name": "E4",
            "ticks": 1344,
            "time": 12.352928,
            "velocity": 0.6692913385826772
          },
          {
            "duration": 0.20220566666666606,
            "durationTicks": 22,
            "midi": 58,
            "name": "A#3",
            "ticks": 1344,
            "time": 12.352928,
            "velocity": 0.6692913385826772
          },
          {
            "duration": 0.09191166666666639,
            "durationTicks": 10,
            "midi": 70,
            "name": "A#4",
            "ticks": 1368,
            "time": 12.573516,
            "velocity": 0.5905511811023622
          },
          {
            "duration": 0.09191166666666639,
            "durationTicks": 10,
            "midi": 67,
            "name": "G4",
            "ticks": 1368,
            "time": 12.573516,
            "velocity": 0.5905511811023622
          },
          {
            "duration": 0.09191166666666639,
            "durationTicks": 10,
            "midi": 63,
            "name": "D#4",
            "ticks": 1368,
            "time": 12.573516,
            "velocity": 0.5905511811023622
          },
          {
            "duration": 0.09191166666666639,
            "durationTicks": 10,
            "midi": 60,
            "name": "C4",
            "ticks": 1368,
            "time": 12.573516,
            "velocity": 0.5905511811023622
          },
          {
            "duration": 0.09191166666666639,
            "durationTicks": 10,
            "midi": 58,
            "name": "A#3",
            "ticks": 1392,
            "time": 12.794104,
            "velocity": 0.6692913385826772
          },
          {
            "duration": 0.20220566666666606,
            "durationTicks": 22,
            "midi": 70,
            "name": "A#4",
            "ticks": 1404,
            "time": 12.904398,
            "velocity": 0.5905511811023622
          },
          {
            "duration": 0.20220566666666606,
            "durationTicks": 22,
            "midi": 67,
            "name": "G4",
            "ticks": 1404,
            "time": 12.904398,
            "velocity": 0.5905511811023622
          },
          {
            "duration": 0.20220566666666606,
            "durationTicks": 22,
            "midi": 63,
            "name": "D#4",
            "ticks": 1404,
            "time": 12.904398,
            "velocity": 0.5905511811023622
          },
          {
            "duration": 0.20220566666666606,
            "durationTicks": 22,
            "midi": 60,
            "name": "C4",
            "ticks": 1404,
            "time": 12.904398,
            "velocity": 0.5905511811023622
          },
          {
            "duration": 0.09191166666666639,
            "durationTicks": 10,
            "midi": 58,
            "name": "A#3",
            "ticks": 1428,
            "time": 13.124986,
            "velocity": 0.6692913385826772
          },
          {
            "duration": 0.09191166666666639,
            "durationTicks": 10,
            "midi": 69,
            "name": "A4",
            "ticks": 1440,
            "time": 13.23528,
            "velocity": 0.5905511811023622
          },
          {
            "duration": 0.09191166666666639,
            "durationTicks": 10,
            "midi": 64,
            "name": "E4",
            "ticks": 1440,
            "time": 13.23528,
            "velocity": 0.5905511811023622
          },
          {
            "duration": 0.09191166666666639,
            "durationTicks": 10,
            "midi": 62,
            "name": "D4",
            "ticks": 1440,
            "time": 13.23528,
            "velocity": 0.5905511811023622
          },
          {
            "duration": 0.09191166666666639,
            "durationTicks": 10,
            "midi": 60,
            "name": "C4",
            "ticks": 1440,
            "time": 13.23528,
            "velocity": 0.5905511811023622
          },
          {
            "duration": 0.09191166666666639,
            "durationTicks": 10,
            "midi": 57,
            "name": "A3",
            "ticks": 1464,
            "time": 13.455868,
            "velocity": 0.6692913385826772
          },
          {
            "duration": 0.20220566666666606,
            "durationTicks": 22,
            "midi": 69,
            "name": "A4",
            "ticks": 1476,
            "time": 13.566162,
            "velocity": 0.5905511811023622
          },
          {
            "duration": 0.20220566666666606,
            "durationTicks": 22,
            "midi": 64,
            "name": "E4",
            "ticks": 1476,
            "time": 13.566162,
            "velocity": 0.5905511811023622
          },
          {
            "duration": 0.20220566666666606,
            "durationTicks": 22,
            "midi": 62,
            "name": "D4",
            "ticks": 1476,
            "time": 13.566162,
            "velocity": 0.5905511811023622
          },
          {
            "duration": 0.20220566666666606,
            "durationTicks": 22,
            "midi": 60,
            "name": "C4",
            "ticks": 1476,
            "time": 13.566162,
            "velocity": 0.5905511811023622
          },
          {
            "duration": 0.09191166666666639,
            "durationTicks": 10,
            "midi": 57,
            "name": "A3",
            "ticks": 1500,
            "time": 13.78675,
            "velocity": 0.6692913385826772
          },
          {
            "duration": 0.09191166666666462,
            "durationTicks": 10,
            "midi": 60,
            "name": "C4",
            "ticks": 1512,
            "time": 13.897044000000001,
            "velocity": 0.6692913385826772
          },
          {
            "duration": 0.09191166666666639,
            "durationTicks": 10,
            "midi": 62,
            "name": "D4",
            "ticks": 1524,
            "time": 14.007338,
            "velocity": 0.6692913385826772
          },
          {
            "duration": 0.20220566666666784,
            "durationTicks": 22,
            "midi": 64,
            "name": "E4",
            "ticks": 1536,
            "time": 14.117632,
            "velocity": 0.6692913385826772
          },
          {
            "duration": 0.20220566666666784,
            "durationTicks": 22,
            "midi": 48,
            "name": "C3",
            "ticks": 1536,
            "time": 14.117632,
            "velocity": 0.6692913385826772
          },
          {
            "duration": 0.09191166666666817,
            "durationTicks": 10,
            "midi": 74,
            "name": "D5",
            "ticks": 1560,
            "time": 14.33822,
            "velocity": 0.5905511811023622
          },
          {
            "duration": 0.09191166666666817,
            "durationTicks": 10,
            "midi": 67,
            "name": "G4",
            "ticks": 1560,
            "time": 14.33822,
            "velocity": 0.5905511811023622
          },
          {
            "duration": 0.09191166666666817,
            "durationTicks": 10,
            "midi": 63,
            "name": "D#4",
            "ticks": 1560,
            "time": 14.33822,
            "velocity": 0.5905511811023622
          },
          {
            "duration": 0.09191166666666817,
            "durationTicks": 10,
            "midi": 60,
            "name": "C4",
            "ticks": 1560,
            "time": 14.33822,
            "velocity": 0.5905511811023622
          },
          {
            "duration": 0.09191166666666639,
            "durationTicks": 10,
            "midi": 48,
            "name": "C3",
            "ticks": 1584,
            "time": 14.558808,
            "velocity": 0.6692913385826772
          },
          {
            "duration": 0.20220566666666784,
            "durationTicks": 22,
            "midi": 74,
            "name": "D5",
            "ticks": 1596,
            "time": 14.669102,
            "velocity": 0.5905511811023622
          },
          {
            "duration": 0.20220566666666784,
            "durationTicks": 22,
            "midi": 67,
            "name": "G4",
            "ticks": 1596,
            "time": 14.669102,
            "velocity": 0.5905511811023622
          },
          {
            "duration": 0.20220566666666784,
            "durationTicks": 22,
            "midi": 63,
            "name": "D#4",
            "ticks": 1596,
            "time": 14.669102,
            "velocity": 0.5905511811023622
          },
          {
            "duration": 0.20220566666666784,
            "durationTicks": 22,
            "midi": 60,
            "name": "C4",
            "ticks": 1596,
            "time": 14.669102,
            "velocity": 0.5905511811023622
          },
          {
            "duration": 0.09191166666666817,
            "durationTicks": 10,
            "midi": 48,
            "name": "C3",
            "ticks": 1620,
            "time": 14.88969,
            "velocity": 0.6692913385826772
          },
          {
            "duration": 0.09191166666666639,
            "durationTicks": 10,
            "midi": 69,
            "name": "A4",
            "ticks": 1632,
            "time": 14.999984000000001,
            "velocity": 0.5905511811023622
          },
          {
            "duration": 0.09191166666666639,
            "durationTicks": 10,
            "midi": 64,
            "name": "E4",
            "ticks": 1632,
            "time": 14.999984000000001,
            "velocity": 0.5905511811023622
          },
          {
            "duration": 0.09191166666666639,
            "durationTicks": 10,
            "midi": 62,
            "name": "D4",
            "ticks": 1632,
            "time": 14.999984000000001,
            "velocity": 0.5905511811023622
          },
          {
            "duration": 0.09191166666666639,
            "durationTicks": 10,
            "midi": 60,
            "name": "C4",
            "ticks": 1632,
            "time": 14.999984000000001,
            "velocity": 0.5905511811023622
          },
          {
            "duration": 0.09191166666666817,
            "durationTicks": 10,
            "midi": 57,
            "name": "A3",
            "ticks": 1656,
            "time": 15.220572,
            "velocity": 0.6692913385826772
          },
          {
            "duration": 0.20220566666666784,
            "durationTicks": 22,
            "midi": 69,
            "name": "A4",
            "ticks": 1668,
            "time": 15.330866,
            "velocity": 0.5905511811023622
          },
          {
            "duration": 0.20220566666666784,
            "durationTicks": 22,
            "midi": 64,
            "name": "E4",
            "ticks": 1668,
            "time": 15.330866,
            "velocity": 0.5905511811023622
          },
          {
            "duration": 0.20220566666666784,
            "durationTicks": 22,
            "midi": 62,
            "name": "D4",
            "ticks": 1668,
            "time": 15.330866,
            "velocity": 0.5905511811023622
          },
          {
            "duration": 0.20220566666666784,
            "durationTicks": 22,
            "midi": 60,
            "name": "C4",
            "ticks": 1668,
            "time": 15.330866,
            "velocity": 0.5905511811023622
          },
          {
            "duration": 0.09191166666666817,
            "durationTicks": 10,
            "midi": 57,
            "name": "A3",
            "ticks": 1692,
            "time": 15.551454,
            "velocity": 0.6692913385826772
          },
          {
            "duration": 0.09191166666666639,
            "durationTicks": 10,
            "midi": 60,
            "name": "C4",
            "ticks": 1704,
            "time": 15.661748000000001,
            "velocity": 0.6692913385826772
          },
          {
            "duration": 0.09191166666666817,
            "durationTicks": 10,
            "midi": 62,
            "name": "D4",
            "ticks": 1716,
            "time": 15.772042,
            "velocity": 0.6692913385826772
          },
          {
            "duration": 0.20220566666666606,
            "durationTicks": 22,
            "midi": 64,
            "name": "E4",
            "ticks": 1728,
            "time": 15.882336,
            "velocity": 0.6692913385826772
          },
          {
            "duration": 0.20220566666666606,
            "durationTicks": 22,
            "midi": 58,
            "name": "A#3",
            "ticks": 1728,
            "time": 15.882336,
            "velocity": 0.6692913385826772
          },
          {
            "duration": 0.09191166666666817,
            "durationTicks": 10,
            "midi": 70,
            "name": "A#4",
            "ticks": 1752,
            "time": 16.102924,
            "velocity": 0.5905511811023622
          },
          {
            "duration": 0.09191166666666817,
            "durationTicks": 10,
            "midi": 67,
            "name": "G4",
            "ticks": 1752,
            "time": 16.102924,
            "velocity": 0.5905511811023622
          },
          {
            "duration": 0.09191166666666817,
            "durationTicks": 10,
            "midi": 63,
            "name": "D#4",
            "ticks": 1752,
            "time": 16.102924,
            "velocity": 0.5905511811023622
          },
          {
            "duration": 0.09191166666666817,
            "durationTicks": 10,
            "midi": 60,
            "name": "C4",
            "ticks": 1752,
            "time": 16.102924,
            "velocity": 0.5905511811023622
          },
          {
            "duration": 0.09191166666666817,
            "durationTicks": 10,
            "midi": 58,
            "name": "A#3",
            "ticks": 1776,
            "time": 16.323512,
            "velocity": 0.6692913385826772
          },
          {
            "duration": 0.20220566666666784,
            "durationTicks": 22,
            "midi": 70,
            "name": "A#4",
            "ticks": 1788,
            "time": 16.433806,
            "velocity": 0.5905511811023622
          },
          {
            "duration": 0.20220566666666784,
            "durationTicks": 22,
            "midi": 67,
            "name": "G4",
            "ticks": 1788,
            "time": 16.433806,
            "velocity": 0.5905511811023622
          },
          {
            "duration": 0.20220566666666784,
            "durationTicks": 22,
            "midi": 63,
            "name": "D#4",
            "ticks": 1788,
            "time": 16.433806,
            "velocity": 0.5905511811023622
          },
          {
            "duration": 0.20220566666666784,
            "durationTicks": 22,
            "midi": 60,
            "name": "C4",
            "ticks": 1788,
            "time": 16.433806,
            "velocity": 0.5905511811023622
          },
          {
            "duration": 0.09191166666666817,
            "durationTicks": 10,
            "midi": 58,
            "name": "A#3",
            "ticks": 1812,
            "time": 16.654394,
            "velocity": 0.6692913385826772
          },
          {
            "duration": 0.09191166666666817,
            "durationTicks": 10,
            "midi": 69,
            "name": "A4",
            "ticks": 1824,
            "time": 16.764688,
            "velocity": 0.5905511811023622
          },
          {
            "duration": 0.09191166666666817,
            "durationTicks": 10,
            "midi": 64,
            "name": "E4",
            "ticks": 1824,
            "time": 16.764688,
            "velocity": 0.5905511811023622
          },
          {
            "duration": 0.09191166666666817,
            "durationTicks": 10,
            "midi": 62,
            "name": "D4",
            "ticks": 1824,
            "time": 16.764688,
            "velocity": 0.5905511811023622
          },
          {
            "duration": 0.09191166666666817,
            "durationTicks": 10,
            "midi": 60,
            "name": "C4",
            "ticks": 1824,
            "time": 16.764688,
            "velocity": 0.5905511811023622
          },
          {
            "duration": 0.09191166666666817,
            "durationTicks": 10,
            "midi": 57,
            "name": "A3",
            "ticks": 1848,
            "time": 16.985276,
            "velocity": 0.6692913385826772
          },
          {
            "duration": 0.20220566666666429,
            "durationTicks": 22,
            "midi": 69,
            "name": "A4",
            "ticks": 1860,
            "time": 17.095570000000002,
            "velocity": 0.5905511811023622
          },
          {
            "duration": 0.20220566666666429,
            "durationTicks": 22,
            "midi": 64,
            "name": "E4",
            "ticks": 1860,
            "time": 17.095570000000002,
            "velocity": 0.5905511811023622
          },
          {
            "duration": 0.20220566666666429,
            "durationTicks": 22,
            "midi": 62,
            "name": "D4",
            "ticks": 1860,
            "time": 17.095570000000002,
            "velocity": 0.5905511811023622
          },
          {
            "duration": 0.20220566666666429,
            "durationTicks": 22,
            "midi": 60,
            "name": "C4",
            "ticks": 1860,
            "time": 17.095570000000002,
            "velocity": 0.5905511811023622
          },
          {
            "duration": 0.09191166666666817,
            "durationTicks": 10,
            "midi": 57,
            "name": "A3",
            "ticks": 1884,
            "time": 17.316158,
            "velocity": 0.6692913385826772
          },
          {
            "duration": 0.09191166666666817,
            "durationTicks": 10,
            "midi": 60,
            "name": "C4",
            "ticks": 1896,
            "time": 17.426452,
            "velocity": 0.6692913385826772
          },
          {
            "duration": 0.09191166666666817,
            "durationTicks": 10,
            "midi": 62,
            "name": "D4",
            "ticks": 1908,
            "time": 17.536746,
            "velocity": 0.6692913385826772
          },
          {
            "duration": 0.20220566666666784,
            "durationTicks": 22,
            "midi": 64,
            "name": "E4",
            "ticks": 1920,
            "time": 17.64704,
            "velocity": 0.6692913385826772
          },
          {
            "duration": 0.20220566666666784,
            "durationTicks": 22,
            "midi": 48,
            "name": "C3",
            "ticks": 1920,
            "time": 17.64704,
            "velocity": 0.6692913385826772
          },
          {
            "duration": 0.09191166666666817,
            "durationTicks": 10,
            "midi": 74,
            "name": "D5",
            "ticks": 1944,
            "time": 17.867628,
            "velocity": 0.5905511811023622
          },
          {
            "duration": 0.09191166666666817,
            "durationTicks": 10,
            "midi": 67,
            "name": "G4",
            "ticks": 1944,
            "time": 17.867628,
            "velocity": 0.5905511811023622
          },
          {
            "duration": 0.09191166666666817,
            "durationTicks": 10,
            "midi": 63,
            "name": "D#4",
            "ticks": 1944,
            "time": 17.867628,
            "velocity": 0.5905511811023622
          },
          {
            "duration": 0.09191166666666817,
            "durationTicks": 10,
            "midi": 60,
            "name": "C4",
            "ticks": 1944,
            "time": 17.867628,
            "velocity": 0.5905511811023622
          },
          {
            "duration": 0.09191166666666817,
            "durationTicks": 10,
            "midi": 48,
            "name": "C3",
            "ticks": 1968,
            "time": 18.088216,
            "velocity": 0.6692913385826772
          },
          {
            "duration": 0.20220566666666784,
            "durationTicks": 22,
            "midi": 74,
            "name": "D5",
            "ticks": 1980,
            "time": 18.19851,
            "velocity": 0.5905511811023622
          },
          {
            "duration": 0.20220566666666784,
            "durationTicks": 22,
            "midi": 67,
            "name": "G4",
            "ticks": 1980,
            "time": 18.19851,
            "velocity": 0.5905511811023622
          },
          {
            "duration": 0.20220566666666784,
            "durationTicks": 22,
            "midi": 63,
            "name": "D#4",
            "ticks": 1980,
            "time": 18.19851,
            "velocity": 0.5905511811023622
          },
          {
            "duration": 0.20220566666666784,
            "durationTicks": 22,
            "midi": 60,
            "name": "C4",
            "ticks": 1980,
            "time": 18.19851,
            "velocity": 0.5905511811023622
          },
          {
            "duration": 0.09191166666666817,
            "durationTicks": 10,
            "midi": 48,
            "name": "C3",
            "ticks": 2004,
            "time": 18.419098,
            "velocity": 0.6692913385826772
          },
          {
            "duration": 0.09191166666666817,
            "durationTicks": 10,
            "midi": 69,
            "name": "A4",
            "ticks": 2016,
            "time": 18.529392,
            "velocity": 0.5905511811023622
          },
          {
            "duration": 0.09191166666666817,
            "durationTicks": 10,
            "midi": 64,
            "name": "E4",
            "ticks": 2016,
            "time": 18.529392,
            "velocity": 0.5905511811023622
          },
          {
            "duration": 0.09191166666666817,
            "durationTicks": 10,
            "midi": 62,
            "name": "D4",
            "ticks": 2016,
            "time": 18.529392,
            "velocity": 0.5905511811023622
          },
          {
            "duration": 0.09191166666666817,
            "durationTicks": 10,
            "midi": 60,
            "name": "C4",
            "ticks": 2016,
            "time": 18.529392,
            "velocity": 0.5905511811023622
          },
          {
            "duration": 0.09191166666666817,
            "durationTicks": 10,
            "midi": 57,
            "name": "A3",
            "ticks": 2040,
            "time": 18.74998,
            "velocity": 0.6692913385826772
          },
          {
            "duration": 0.20220566666666784,
            "durationTicks": 22,
            "midi": 69,
            "name": "A4",
            "ticks": 2052,
            "time": 18.860274,
            "velocity": 0.5905511811023622
          },
          {
            "duration": 0.20220566666666784,
            "durationTicks": 22,
            "midi": 64,
            "name": "E4",
            "ticks": 2052,
            "time": 18.860274,
            "velocity": 0.5905511811023622
          },
          {
            "duration": 0.20220566666666784,
            "durationTicks": 22,
            "midi": 62,
            "name": "D4",
            "ticks": 2052,
            "time": 18.860274,
            "velocity": 0.5905511811023622
          },
          {
            "duration": 0.20220566666666784,
            "durationTicks": 22,
            "midi": 60,
            "name": "C4",
            "ticks": 2052,
            "time": 18.860274,
            "velocity": 0.5905511811023622
          },
          {
            "duration": 0.09191166666666817,
            "durationTicks": 10,
            "midi": 57,
            "name": "A3",
            "ticks": 2076,
            "time": 19.080862,
            "velocity": 0.6692913385826772
          },
          {
            "duration": 0.09191166666666817,
            "durationTicks": 10,
            "midi": 60,
            "name": "C4",
            "ticks": 2088,
            "time": 19.191156,
            "velocity": 0.6692913385826772
          },
          {
            "duration": 0.09191166666666817,
            "durationTicks": 10,
            "midi": 62,
            "name": "D4",
            "ticks": 2100,
            "time": 19.30145,
            "velocity": 0.6692913385826772
          },
          {
            "duration": 0.20220566666666784,
            "durationTicks": 22,
            "midi": 64,
            "name": "E4",
            "ticks": 2112,
            "time": 19.411744,
            "velocity": 0.6692913385826772
          },
          {
            "duration": 0.20220566666666784,
            "durationTicks": 22,
            "midi": 58,
            "name": "A#3",
            "ticks": 2112,
            "time": 19.411744,
            "velocity": 0.6692913385826772
          },
          {
            "duration": 0.09191166666666817,
            "durationTicks": 10,
            "midi": 70,
            "name": "A#4",
            "ticks": 2136,
            "time": 19.632332,
            "velocity": 0.5905511811023622
          },
          {
            "duration": 0.09191166666666817,
            "durationTicks": 10,
            "midi": 67,
            "name": "G4",
            "ticks": 2136,
            "time": 19.632332,
            "velocity": 0.5905511811023622
          },
          {
            "duration": 0.09191166666666817,
            "durationTicks": 10,
            "midi": 63,
            "name": "D#4",
            "ticks": 2136,
            "time": 19.632332,
            "velocity": 0.5905511811023622
          },
          {
            "duration": 0.09191166666666817,
            "durationTicks": 10,
            "midi": 60,
            "name": "C4",
            "ticks": 2136,
            "time": 19.632332,
            "velocity": 0.5905511811023622
          },
          {
            "duration": 0.09191166666666817,
            "durationTicks": 10,
            "midi": 58,
            "name": "A#3",
            "ticks": 2160,
            "time": 19.85292,
            "velocity": 0.6692913385826772
          },
          {
            "duration": 0.20220566666666784,
            "durationTicks": 22,
            "midi": 70,
            "name": "A#4",
            "ticks": 2172,
            "time": 19.963214,
            "velocity": 0.5905511811023622
          },
          {
            "duration": 0.20220566666666784,
            "durationTicks": 22,
            "midi": 67,
            "name": "G4",
            "ticks": 2172,
            "time": 19.963214,
            "velocity": 0.5905511811023622
          },
          {
            "duration": 0.20220566666666784,
            "durationTicks": 22,
            "midi": 63,
            "name": "D#4",
            "ticks": 2172,
            "time": 19.963214,
            "velocity": 0.5905511811023622
          },
          {
            "duration": 0.20220566666666784,
            "durationTicks": 22,
            "midi": 60,
            "name": "C4",
            "ticks": 2172,
            "time": 19.963214,
            "velocity": 0.5905511811023622
          },
          {
            "duration": 0.09191166666666817,
            "durationTicks": 10,
            "midi": 58,
            "name": "A#3",
            "ticks": 2196,
            "time": 20.183802,
            "velocity": 0.6692913385826772
          },
          {
            "duration": 0.09191166666666817,
            "durationTicks": 10,
            "midi": 69,
            "name": "A4",
            "ticks": 2208,
            "time": 20.294096,
            "velocity": 0.5905511811023622
          },
          {
            "duration": 0.09191166666666817,
            "durationTicks": 10,
            "midi": 64,
            "name": "E4",
            "ticks": 2208,
            "time": 20.294096,
            "velocity": 0.5905511811023622
          },
          {
            "duration": 0.09191166666666817,
            "durationTicks": 10,
            "midi": 62,
            "name": "D4",
            "ticks": 2208,
            "time": 20.294096,
            "velocity": 0.5905511811023622
          },
          {
            "duration": 0.09191166666666817,
            "durationTicks": 10,
            "midi": 60,
            "name": "C4",
            "ticks": 2208,
            "time": 20.294096,
            "velocity": 0.5905511811023622
          },
          {
            "duration": 0.09191166666666817,
            "durationTicks": 10,
            "midi": 57,
            "name": "A3",
            "ticks": 2232,
            "time": 20.514684,
            "velocity": 0.6692913385826772
          },
          {
            "duration": 0.20220566666666429,
            "durationTicks": 22,
            "midi": 69,
            "name": "A4",
            "ticks": 2244,
            "time": 20.624978000000002,
            "velocity": 0.5905511811023622
          },
          {
            "duration": 0.20220566666666429,
            "durationTicks": 22,
            "midi": 64,
            "name": "E4",
            "ticks": 2244,
            "time": 20.624978000000002,
            "velocity": 0.5905511811023622
          },
          {
            "duration": 0.20220566666666429,
            "durationTicks": 22,
            "midi": 62,
            "name": "D4",
            "ticks": 2244,
            "time": 20.624978000000002,
            "velocity": 0.5905511811023622
          },
          {
            "duration": 0.20220566666666429,
            "durationTicks": 22,
            "midi": 60,
            "name": "C4",
            "ticks": 2244,
            "time": 20.624978000000002,
            "velocity": 0.5905511811023622
          },
          {
            "duration": 0.09191166666666817,
            "durationTicks": 10,
            "midi": 57,
            "name": "A3",
            "ticks": 2268,
            "time": 20.845566,
            "velocity": 0.6692913385826772
          },
          {
            "duration": 0.09191166666666817,
            "durationTicks": 10,
            "midi": 60,
            "name": "C4",
            "ticks": 2280,
            "time": 20.95586,
            "velocity": 0.6692913385826772
          },
          {
            "duration": 0.09191166666666817,
            "durationTicks": 10,
            "midi": 62,
            "name": "D4",
            "ticks": 2292,
            "time": 21.066154,
            "velocity": 0.6692913385826772
          },
          {
            "duration": 0.20220566666666784,
            "durationTicks": 22,
            "midi": 64,
            "name": "E4",
            "ticks": 2304,
            "time": 21.176448,
            "velocity": 0.6692913385826772
          },
          {
            "duration": 0.20220566666666784,
            "durationTicks": 22,
            "midi": 48,
            "name": "C3",
            "ticks": 2304,
            "time": 21.176448,
            "velocity": 0.6692913385826772
          },
          {
            "duration": 0.09191166666666817,
            "durationTicks": 10,
            "midi": 74,
            "name": "D5",
            "ticks": 2328,
            "time": 21.397036,
            "velocity": 0.5905511811023622
          },
          {
            "duration": 0.09191166666666817,
            "durationTicks": 10,
            "midi": 67,
            "name": "G4",
            "ticks": 2328,
            "time": 21.397036,
            "velocity": 0.5905511811023622
          },
          {
            "duration": 0.09191166666666817,
            "durationTicks": 10,
            "midi": 63,
            "name": "D#4",
            "ticks": 2328,
            "time": 21.397036,
            "velocity": 0.5905511811023622
          },
          {
            "duration": 0.09191166666666817,
            "durationTicks": 10,
            "midi": 60,
            "name": "C4",
            "ticks": 2328,
            "time": 21.397036,
            "velocity": 0.5905511811023622
          },
          {
            "duration": 0.09191166666666817,
            "durationTicks": 10,
            "midi": 48,
            "name": "C3",
            "ticks": 2352,
            "time": 21.617624,
            "velocity": 0.6692913385826772
          },
          {
            "duration": 0.20220566666666784,
            "durationTicks": 22,
            "midi": 74,
            "name": "D5",
            "ticks": 2364,
            "time": 21.727918,
            "velocity": 0.5905511811023622
          },
          {
            "duration": 0.20220566666666784,
            "durationTicks": 22,
            "midi": 67,
            "name": "G4",
            "ticks": 2364,
            "time": 21.727918,
            "velocity": 0.5905511811023622
          },
          {
            "duration": 0.20220566666666784,
            "durationTicks": 22,
            "midi": 63,
            "name": "D#4",
            "ticks": 2364,
            "time": 21.727918,
            "velocity": 0.5905511811023622
          },
          {
            "duration": 0.20220566666666784,
            "durationTicks": 22,
            "midi": 60,
            "name": "C4",
            "ticks": 2364,
            "time": 21.727918,
            "velocity": 0.5905511811023622
          },
          {
            "duration": 0.09191166666666817,
            "durationTicks": 10,
            "midi": 48,
            "name": "C3",
            "ticks": 2388,
            "time": 21.948506000000002,
            "velocity": 0.6692913385826772
          },
          {
            "duration": 0.09191166666666817,
            "durationTicks": 10,
            "midi": 69,
            "name": "A4",
            "ticks": 2400,
            "time": 22.0588,
            "velocity": 0.5905511811023622
          },
          {
            "duration": 0.09191166666666817,
            "durationTicks": 10,
            "midi": 64,
            "name": "E4",
            "ticks": 2400,
            "time": 22.0588,
            "velocity": 0.5905511811023622
          },
          {
            "duration": 0.09191166666666817,
            "durationTicks": 10,
            "midi": 62,
            "name": "D4",
            "ticks": 2400,
            "time": 22.0588,
            "velocity": 0.5905511811023622
          },
          {
            "duration": 0.09191166666666817,
            "durationTicks": 10,
            "midi": 60,
            "name": "C4",
            "ticks": 2400,
            "time": 22.0588,
            "velocity": 0.5905511811023622
          },
          {
            "duration": 0.09191166666666817,
            "durationTicks": 10,
            "midi": 57,
            "name": "A3",
            "ticks": 2424,
            "time": 22.279388,
            "velocity": 0.6692913385826772
          },
          {
            "duration": 0.20220566666666784,
            "durationTicks": 22,
            "midi": 69,
            "name": "A4",
            "ticks": 2436,
            "time": 22.389682,
            "velocity": 0.5905511811023622
          },
          {
            "duration": 0.20220566666666784,
            "durationTicks": 22,
            "midi": 64,
            "name": "E4",
            "ticks": 2436,
            "time": 22.389682,
            "velocity": 0.5905511811023622
          },
          {
            "duration": 0.20220566666666784,
            "durationTicks": 22,
            "midi": 62,
            "name": "D4",
            "ticks": 2436,
            "time": 22.389682,
            "velocity": 0.5905511811023622
          },
          {
            "duration": 0.20220566666666784,
            "durationTicks": 22,
            "midi": 60,
            "name": "C4",
            "ticks": 2436,
            "time": 22.389682,
            "velocity": 0.5905511811023622
          },
          {
            "duration": 0.09191166666666817,
            "durationTicks": 10,
            "midi": 57,
            "name": "A3",
            "ticks": 2460,
            "time": 22.61027,
            "velocity": 0.6692913385826772
          },
          {
            "duration": 0.09191166666666817,
            "durationTicks": 10,
            "midi": 60,
            "name": "C4",
            "ticks": 2472,
            "time": 22.720564,
            "velocity": 0.6692913385826772
          },
          {
            "duration": 0.09191166666666817,
            "durationTicks": 10,
            "midi": 62,
            "name": "D4",
            "ticks": 2484,
            "time": 22.830858,
            "velocity": 0.6692913385826772
          },
          {
            "duration": 0.20220566666666429,
            "durationTicks": 22,
            "midi": 64,
            "name": "E4",
            "ticks": 2496,
            "time": 22.941152000000002,
            "velocity": 0.6692913385826772
          },
          {
            "duration": 0.20220566666666429,
            "durationTicks": 22,
            "midi": 58,
            "name": "A#3",
            "ticks": 2496,
            "time": 22.941152000000002,
            "velocity": 0.6692913385826772
          },
          {
            "duration": 0.09191166666666817,
            "durationTicks": 10,
            "midi": 70,
            "name": "A#4",
            "ticks": 2520,
            "time": 23.16174,
            "velocity": 0.5905511811023622
          },
          {
            "duration": 0.09191166666666817,
            "durationTicks": 10,
            "midi": 67,
            "name": "G4",
            "ticks": 2520,
            "time": 23.16174,
            "velocity": 0.5905511811023622
          },
          {
            "duration": 0.09191166666666817,
            "durationTicks": 10,
            "midi": 63,
            "name": "D#4",
            "ticks": 2520,
            "time": 23.16174,
            "velocity": 0.5905511811023622
          },
          {
            "duration": 0.09191166666666817,
            "durationTicks": 10,
            "midi": 60,
            "name": "C4",
            "ticks": 2520,
            "time": 23.16174,
            "velocity": 0.5905511811023622
          },
          {
            "duration": 0.09191166666666817,
            "durationTicks": 10,
            "midi": 58,
            "name": "A#3",
            "ticks": 2544,
            "time": 23.382328,
            "velocity": 0.6692913385826772
          },
          {
            "duration": 0.20220566666666784,
            "durationTicks": 22,
            "midi": 70,
            "name": "A#4",
            "ticks": 2556,
            "time": 23.492622,
            "velocity": 0.5905511811023622
          },
          {
            "duration": 0.20220566666666784,
            "durationTicks": 22,
            "midi": 67,
            "name": "G4",
            "ticks": 2556,
            "time": 23.492622,
            "velocity": 0.5905511811023622
          },
          {
            "duration": 0.20220566666666784,
            "durationTicks": 22,
            "midi": 63,
            "name": "D#4",
            "ticks": 2556,
            "time": 23.492622,
            "velocity": 0.5905511811023622
          },
          {
            "duration": 0.20220566666666784,
            "durationTicks": 22,
            "midi": 60,
            "name": "C4",
            "ticks": 2556,
            "time": 23.492622,
            "velocity": 0.5905511811023622
          },
          {
            "duration": 0.09191166666666817,
            "durationTicks": 10,
            "midi": 58,
            "name": "A#3",
            "ticks": 2580,
            "time": 23.71321,
            "velocity": 0.6692913385826772
          },
          {
            "duration": 0.09191166666666817,
            "durationTicks": 10,
            "midi": 69,
            "name": "A4",
            "ticks": 2592,
            "time": 23.823504,
            "velocity": 0.5905511811023622
          },
          {
            "duration": 0.09191166666666817,
            "durationTicks": 10,
            "midi": 64,
            "name": "E4",
            "ticks": 2592,
            "time": 23.823504,
            "velocity": 0.5905511811023622
          },
          {
            "duration": 0.09191166666666817,
            "durationTicks": 10,
            "midi": 62,
            "name": "D4",
            "ticks": 2592,
            "time": 23.823504,
            "velocity": 0.5905511811023622
          },
          {
            "duration": 0.09191166666666817,
            "durationTicks": 10,
            "midi": 60,
            "name": "C4",
            "ticks": 2592,
            "time": 23.823504,
            "velocity": 0.5905511811023622
          },
          {
            "duration": 0.09191166666666817,
            "durationTicks": 10,
            "midi": 57,
            "name": "A3",
            "ticks": 2616,
            "time": 24.044092,
            "velocity": 0.6692913385826772
          },
          {
            "duration": 0.20220566666666429,
            "durationTicks": 22,
            "midi": 69,
            "name": "A4",
            "ticks": 2628,
            "time": 24.154386000000002,
            "velocity": 0.5905511811023622
          },
          {
            "duration": 0.20220566666666429,
            "durationTicks": 22,
            "midi": 64,
            "name": "E4",
            "ticks": 2628,
            "time": 24.154386000000002,
            "velocity": 0.5905511811023622
          },
          {
            "duration": 0.20220566666666429,
            "durationTicks": 22,
            "midi": 62,
            "name": "D4",
            "ticks": 2628,
            "time": 24.154386000000002,
            "velocity": 0.5905511811023622
          },
          {
            "duration": 0.20220566666666429,
            "durationTicks": 22,
            "midi": 60,
            "name": "C4",
            "ticks": 2628,
            "time": 24.154386000000002,
            "velocity": 0.5905511811023622
          },
          {
            "duration": 0.09191166666666817,
            "durationTicks": 10,
            "midi": 57,
            "name": "A3",
            "ticks": 2652,
            "time": 24.374974,
            "velocity": 0.6692913385826772
          },
          {
            "duration": 0.09191166666666817,
            "durationTicks": 10,
            "midi": 60,
            "name": "C4",
            "ticks": 2664,
            "time": 24.485268,
            "velocity": 0.6692913385826772
          },
          {
            "duration": 0.09191166666666817,
            "durationTicks": 10,
            "midi": 62,
            "name": "D4",
            "ticks": 2676,
            "time": 24.595562,
            "velocity": 0.6692913385826772
          },
          {
            "duration": 0.20220566666666784,
            "durationTicks": 22,
            "midi": 64,
            "name": "E4",
            "ticks": 2688,
            "time": 24.705856,
            "velocity": 0.6692913385826772
          },
          {
            "duration": 0.20220566666666784,
            "durationTicks": 22,
            "midi": 48,
            "name": "C3",
            "ticks": 2688,
            "time": 24.705856,
            "velocity": 0.6692913385826772
          },
          {
            "duration": 0.09191166666666817,
            "durationTicks": 10,
            "midi": 74,
            "name": "D5",
            "ticks": 2712,
            "time": 24.926444,
            "velocity": 0.5905511811023622
          },
          {
            "duration": 0.09191166666666817,
            "durationTicks": 10,
            "midi": 67,
            "name": "G4",
            "ticks": 2712,
            "time": 24.926444,
            "velocity": 0.5905511811023622
          },
          {
            "duration": 0.09191166666666817,
            "durationTicks": 10,
            "midi": 63,
            "name": "D#4",
            "ticks": 2712,
            "time": 24.926444,
            "velocity": 0.5905511811023622
          },
          {
            "duration": 0.09191166666666817,
            "durationTicks": 10,
            "midi": 60,
            "name": "C4",
            "ticks": 2712,
            "time": 24.926444,
            "velocity": 0.5905511811023622
          },
          {
            "duration": 0.09191166666666817,
            "durationTicks": 10,
            "midi": 48,
            "name": "C3",
            "ticks": 2736,
            "time": 25.147032,
            "velocity": 0.6692913385826772
          },
          {
            "duration": 0.20220566666666784,
            "durationTicks": 22,
            "midi": 74,
            "name": "D5",
            "ticks": 2748,
            "time": 25.257326,
            "velocity": 0.5905511811023622
          },
          {
            "duration": 0.20220566666666784,
            "durationTicks": 22,
            "midi": 67,
            "name": "G4",
            "ticks": 2748,
            "time": 25.257326,
            "velocity": 0.5905511811023622
          },
          {
            "duration": 0.20220566666666784,
            "durationTicks": 22,
            "midi": 63,
            "name": "D#4",
            "ticks": 2748,
            "time": 25.257326,
            "velocity": 0.5905511811023622
          },
          {
            "duration": 0.20220566666666784,
            "durationTicks": 22,
            "midi": 60,
            "name": "C4",
            "ticks": 2748,
            "time": 25.257326,
            "velocity": 0.5905511811023622
          },
          {
            "duration": 0.09191166666666817,
            "durationTicks": 10,
            "midi": 48,
            "name": "C3",
            "ticks": 2772,
            "time": 25.477914000000002,
            "velocity": 0.6692913385826772
          },
          {
            "duration": 0.09191166666666817,
            "durationTicks": 10,
            "midi": 69,
            "name": "A4",
            "ticks": 2784,
            "time": 25.588208,
            "velocity": 0.5905511811023622
          },
          {
            "duration": 0.09191166666666817,
            "durationTicks": 10,
            "midi": 64,
            "name": "E4",
            "ticks": 2784,
            "time": 25.588208,
            "velocity": 0.5905511811023622
          },
          {
            "duration": 0.09191166666666817,
            "durationTicks": 10,
            "midi": 62,
            "name": "D4",
            "ticks": 2784,
            "time": 25.588208,
            "velocity": 0.5905511811023622
          },
          {
            "duration": 0.09191166666666817,
            "durationTicks": 10,
            "midi": 60,
            "name": "C4",
            "ticks": 2784,
            "time": 25.588208,
            "velocity": 0.5905511811023622
          },
          {
            "duration": 0.09191166666666817,
            "durationTicks": 10,
            "midi": 57,
            "name": "A3",
            "ticks": 2808,
            "time": 25.808796,
            "velocity": 0.6692913385826772
          },
          {
            "duration": 0.20220566666666784,
            "durationTicks": 22,
            "midi": 69,
            "name": "A4",
            "ticks": 2820,
            "time": 25.91909,
            "velocity": 0.5905511811023622
          },
          {
            "duration": 0.20220566666666784,
            "durationTicks": 22,
            "midi": 64,
            "name": "E4",
            "ticks": 2820,
            "time": 25.91909,
            "velocity": 0.5905511811023622
          },
          {
            "duration": 0.20220566666666784,
            "durationTicks": 22,
            "midi": 62,
            "name": "D4",
            "ticks": 2820,
            "time": 25.91909,
            "velocity": 0.5905511811023622
          },
          {
            "duration": 0.20220566666666784,
            "durationTicks": 22,
            "midi": 60,
            "name": "C4",
            "ticks": 2820,
            "time": 25.91909,
            "velocity": 0.5905511811023622
          },
          {
            "duration": 0.09191166666666817,
            "durationTicks": 10,
            "midi": 57,
            "name": "A3",
            "ticks": 2844,
            "time": 26.139678,
            "velocity": 0.6692913385826772
          },
          {
            "duration": 0.09191166666666817,
            "durationTicks": 10,
            "midi": 60,
            "name": "C4",
            "ticks": 2856,
            "time": 26.249972,
            "velocity": 0.6692913385826772
          },
          {
            "duration": 0.09191166666666817,
            "durationTicks": 10,
            "midi": 62,
            "name": "D4",
            "ticks": 2868,
            "time": 26.360266,
            "velocity": 0.6692913385826772
          },
          {
            "duration": 0.20220566666666784,
            "durationTicks": 22,
            "midi": 64,
            "name": "E4",
            "ticks": 2880,
            "time": 26.47056,
            "velocity": 0.6692913385826772
          },
          {
            "duration": 0.20220566666666784,
            "durationTicks": 22,
            "midi": 58,
            "name": "A#3",
            "ticks": 2880,
            "time": 26.47056,
            "velocity": 0.6692913385826772
          },
          {
            "duration": 0.09191166666666817,
            "durationTicks": 10,
            "midi": 70,
            "name": "A#4",
            "ticks": 2904,
            "time": 26.691148000000002,
            "velocity": 0.5905511811023622
          },
          {
            "duration": 0.09191166666666817,
            "durationTicks": 10,
            "midi": 67,
            "name": "G4",
            "ticks": 2904,
            "time": 26.691148000000002,
            "velocity": 0.5905511811023622
          },
          {
            "duration": 0.09191166666666817,
            "durationTicks": 10,
            "midi": 63,
            "name": "D#4",
            "ticks": 2904,
            "time": 26.691148000000002,
            "velocity": 0.5905511811023622
          },
          {
            "duration": 0.09191166666666817,
            "durationTicks": 10,
            "midi": 60,
            "name": "C4",
            "ticks": 2904,
            "time": 26.691148000000002,
            "velocity": 0.5905511811023622
          },
          {
            "duration": 0.09191166666666817,
            "durationTicks": 10,
            "midi": 58,
            "name": "A#3",
            "ticks": 2928,
            "time": 26.911736,
            "velocity": 0.6692913385826772
          },
          {
            "duration": 0.20220566666666784,
            "durationTicks": 22,
            "midi": 70,
            "name": "A#4",
            "ticks": 2940,
            "time": 27.02203,
            "velocity": 0.5905511811023622
          },
          {
            "duration": 0.20220566666666784,
            "durationTicks": 22,
            "midi": 67,
            "name": "G4",
            "ticks": 2940,
            "time": 27.02203,
            "velocity": 0.5905511811023622
          },
          {
            "duration": 0.20220566666666784,
            "durationTicks": 22,
            "midi": 63,
            "name": "D#4",
            "ticks": 2940,
            "time": 27.02203,
            "velocity": 0.5905511811023622
          },
          {
            "duration": 0.20220566666666784,
            "durationTicks": 22,
            "midi": 60,
            "name": "C4",
            "ticks": 2940,
            "time": 27.02203,
            "velocity": 0.5905511811023622
          },
          {
            "duration": 0.09191166666666817,
            "durationTicks": 10,
            "midi": 58,
            "name": "A#3",
            "ticks": 2964,
            "time": 27.242618,
            "velocity": 0.6692913385826772
          },
          {
            "duration": 0.09191166666666817,
            "durationTicks": 10,
            "midi": 69,
            "name": "A4",
            "ticks": 2976,
            "time": 27.352912,
            "velocity": 0.5905511811023622
          },
          {
            "duration": 0.09191166666666817,
            "durationTicks": 10,
            "midi": 64,
            "name": "E4",
            "ticks": 2976,
            "time": 27.352912,
            "velocity": 0.5905511811023622
          },
          {
            "duration": 0.09191166666666817,
            "durationTicks": 10,
            "midi": 62,
            "name": "D4",
            "ticks": 2976,
            "time": 27.352912,
            "velocity": 0.5905511811023622
          },
          {
            "duration": 0.09191166666666817,
            "durationTicks": 10,
            "midi": 60,
            "name": "C4",
            "ticks": 2976,
            "time": 27.352912,
            "velocity": 0.5905511811023622
          },
          {
            "duration": 0.09191166666666817,
            "durationTicks": 10,
            "midi": 57,
            "name": "A3",
            "ticks": 3000,
            "time": 27.5735,
            "velocity": 0.6692913385826772
          },
          {
            "duration": 0.20220566666666429,
            "durationTicks": 22,
            "midi": 69,
            "name": "A4",
            "ticks": 3012,
            "time": 27.683794000000002,
            "velocity": 0.5905511811023622
          },
          {
            "duration": 0.20220566666666429,
            "durationTicks": 22,
            "midi": 64,
            "name": "E4",
            "ticks": 3012,
            "time": 27.683794000000002,
            "velocity": 0.5905511811023622
          },
          {
            "duration": 0.20220566666666429,
            "durationTicks": 22,
            "midi": 62,
            "name": "D4",
            "ticks": 3012,
            "time": 27.683794000000002,
            "velocity": 0.5905511811023622
          },
          {
            "duration": 0.20220566666666429,
            "durationTicks": 22,
            "midi": 60,
            "name": "C4",
            "ticks": 3012,
            "time": 27.683794000000002,
            "velocity": 0.5905511811023622
          },
          {
            "duration": 0.09191166666666817,
            "durationTicks": 10,
            "midi": 57,
            "name": "A3",
            "ticks": 3036,
            "time": 27.904382000000002,
            "velocity": 0.6692913385826772
          },
          {
            "duration": 0.09191166666666817,
            "durationTicks": 10,
            "midi": 60,
            "name": "C4",
            "ticks": 3048,
            "time": 28.014676,
            "velocity": 0.6692913385826772
          },
          {
            "duration": 0.09191166666666817,
            "durationTicks": 10,
            "midi": 62,
            "name": "D4",
            "ticks": 3060,
            "time": 28.12497,
            "velocity": 0.6692913385826772
          },
          {
            "duration": 0.20220566666666429,
            "durationTicks": 22,
            "midi": 64,
            "name": "E4",
            "ticks": 3072,
            "time": 28.235264,
            "velocity": 0.6692913385826772
          },
          {
            "duration": 0.20220566666666429,
            "durationTicks": 22,
            "midi": 48,
            "name": "C3",
            "ticks": 3072,
            "time": 28.235264,
            "velocity": 0.6692913385826772
          },
          {
            "duration": 0.09191166666666462,
            "durationTicks": 10,
            "midi": 74,
            "name": "D5",
            "ticks": 3096,
            "time": 28.455852,
            "velocity": 0.5905511811023622
          },
          {
            "duration": 0.09191166666666462,
            "durationTicks": 10,
            "midi": 67,
            "name": "G4",
            "ticks": 3096,
            "time": 28.455852,
            "velocity": 0.5905511811023622
          },
          {
            "duration": 0.09191166666666462,
            "durationTicks": 10,
            "midi": 63,
            "name": "D#4",
            "ticks": 3096,
            "time": 28.455852,
            "velocity": 0.5905511811023622
          },
          {
            "duration": 0.09191166666666462,
            "durationTicks": 10,
            "midi": 60,
            "name": "C4",
            "ticks": 3096,
            "time": 28.455852,
            "velocity": 0.5905511811023622
          },
          {
            "duration": 0.09191166666666462,
            "durationTicks": 10,
            "midi": 48,
            "name": "C3",
            "ticks": 3120,
            "time": 28.67644,
            "velocity": 0.6692913385826772
          },
          {
            "duration": 0.20220566666666784,
            "durationTicks": 22,
            "midi": 74,
            "name": "D5",
            "ticks": 3132,
            "time": 28.786734,
            "velocity": 0.5905511811023622
          },
          {
            "duration": 0.20220566666666784,
            "durationTicks": 22,
            "midi": 67,
            "name": "G4",
            "ticks": 3132,
            "time": 28.786734,
            "velocity": 0.5905511811023622
          },
          {
            "duration": 0.20220566666666784,
            "durationTicks": 22,
            "midi": 63,
            "name": "D#4",
            "ticks": 3132,
            "time": 28.786734,
            "velocity": 0.5905511811023622
          },
          {
            "duration": 0.20220566666666784,
            "durationTicks": 22,
            "midi": 60,
            "name": "C4",
            "ticks": 3132,
            "time": 28.786734,
            "velocity": 0.5905511811023622
          },
          {
            "duration": 0.09191166666666462,
            "durationTicks": 10,
            "midi": 48,
            "name": "C3",
            "ticks": 3156,
            "time": 29.007322000000002,
            "velocity": 0.6692913385826772
          },
          {
            "duration": 0.09191166666666462,
            "durationTicks": 10,
            "midi": 69,
            "name": "A4",
            "ticks": 3168,
            "time": 29.117616,
            "velocity": 0.5905511811023622
          },
          {
            "duration": 0.09191166666666462,
            "durationTicks": 10,
            "midi": 64,
            "name": "E4",
            "ticks": 3168,
            "time": 29.117616,
            "velocity": 0.5905511811023622
          },
          {
            "duration": 0.09191166666666462,
            "durationTicks": 10,
            "midi": 62,
            "name": "D4",
            "ticks": 3168,
            "time": 29.117616,
            "velocity": 0.5905511811023622
          },
          {
            "duration": 0.09191166666666462,
            "durationTicks": 10,
            "midi": 60,
            "name": "C4",
            "ticks": 3168,
            "time": 29.117616,
            "velocity": 0.5905511811023622
          },
          {
            "duration": 0.09191166666666462,
            "durationTicks": 10,
            "midi": 57,
            "name": "A3",
            "ticks": 3192,
            "time": 29.338204,
            "velocity": 0.6692913385826772
          },
          {
            "duration": 0.20220566666666429,
            "durationTicks": 22,
            "midi": 69,
            "name": "A4",
            "ticks": 3204,
            "time": 29.448498,
            "velocity": 0.5905511811023622
          },
          {
            "duration": 0.20220566666666429,
            "durationTicks": 22,
            "midi": 64,
            "name": "E4",
            "ticks": 3204,
            "time": 29.448498,
            "velocity": 0.5905511811023622
          },
          {
            "duration": 0.20220566666666429,
            "durationTicks": 22,
            "midi": 62,
            "name": "D4",
            "ticks": 3204,
            "time": 29.448498,
            "velocity": 0.5905511811023622
          },
          {
            "duration": 0.20220566666666429,
            "durationTicks": 22,
            "midi": 60,
            "name": "C4",
            "ticks": 3204,
            "time": 29.448498,
            "velocity": 0.5905511811023622
          },
          {
            "duration": 0.09191166666666462,
            "durationTicks": 10,
            "midi": 57,
            "name": "A3",
            "ticks": 3228,
            "time": 29.669086,
            "velocity": 0.6692913385826772
          },
          {
            "duration": 0.09191166666666462,
            "durationTicks": 10,
            "midi": 60,
            "name": "C4",
            "ticks": 3240,
            "time": 29.77938,
            "velocity": 0.6692913385826772
          },
          {
            "duration": 0.09191166666666462,
            "durationTicks": 10,
            "midi": 62,
            "name": "D4",
            "ticks": 3252,
            "time": 29.889674,
            "velocity": 0.6692913385826772
          },
          {
            "duration": 0.20220566666666429,
            "durationTicks": 22,
            "midi": 64,
            "name": "E4",
            "ticks": 3264,
            "time": 29.999968000000003,
            "velocity": 0.6692913385826772
          },
          {
            "duration": 0.20220566666666429,
            "durationTicks": 22,
            "midi": 58,
            "name": "A#3",
            "ticks": 3264,
            "time": 29.999968000000003,
            "velocity": 0.6692913385826772
          },
          {
            "duration": 0.09191166666666462,
            "durationTicks": 10,
            "midi": 70,
            "name": "A#4",
            "ticks": 3288,
            "time": 30.220556000000002,
            "velocity": 0.5905511811023622
          },
          {
            "duration": 0.09191166666666462,
            "durationTicks": 10,
            "midi": 67,
            "name": "G4",
            "ticks": 3288,
            "time": 30.220556000000002,
            "velocity": 0.5905511811023622
          },
          {
            "duration": 0.09191166666666462,
            "durationTicks": 10,
            "midi": 63,
            "name": "D#4",
            "ticks": 3288,
            "time": 30.220556000000002,
            "velocity": 0.5905511811023622
          },
          {
            "duration": 0.09191166666666462,
            "durationTicks": 10,
            "midi": 60,
            "name": "C4",
            "ticks": 3288,
            "time": 30.220556000000002,
            "velocity": 0.5905511811023622
          },
          {
            "duration": 0.09191166666666462,
            "durationTicks": 10,
            "midi": 58,
            "name": "A#3",
            "ticks": 3312,
            "time": 30.441144,
            "velocity": 0.6692913385826772
          },
          {
            "duration": 0.20220566666666429,
            "durationTicks": 22,
            "midi": 70,
            "name": "A#4",
            "ticks": 3324,
            "time": 30.551438,
            "velocity": 0.5905511811023622
          },
          {
            "duration": 0.20220566666666429,
            "durationTicks": 22,
            "midi": 67,
            "name": "G4",
            "ticks": 3324,
            "time": 30.551438,
            "velocity": 0.5905511811023622
          },
          {
            "duration": 0.20220566666666429,
            "durationTicks": 22,
            "midi": 63,
            "name": "D#4",
            "ticks": 3324,
            "time": 30.551438,
            "velocity": 0.5905511811023622
          },
          {
            "duration": 0.20220566666666429,
            "durationTicks": 22,
            "midi": 60,
            "name": "C4",
            "ticks": 3324,
            "time": 30.551438,
            "velocity": 0.5905511811023622
          },
          {
            "duration": 0.09191166666666462,
            "durationTicks": 10,
            "midi": 58,
            "name": "A#3",
            "ticks": 3348,
            "time": 30.772026,
            "velocity": 0.6692913385826772
          },
          {
            "duration": 0.09191166666666462,
            "durationTicks": 10,
            "midi": 69,
            "name": "A4",
            "ticks": 3360,
            "time": 30.88232,
            "velocity": 0.5905511811023622
          },
          {
            "duration": 0.09191166666666462,
            "durationTicks": 10,
            "midi": 64,
            "name": "E4",
            "ticks": 3360,
            "time": 30.88232,
            "velocity": 0.5905511811023622
          },
          {
            "duration": 0.09191166666666462,
            "durationTicks": 10,
            "midi": 62,
            "name": "D4",
            "ticks": 3360,
            "time": 30.88232,
            "velocity": 0.5905511811023622
          },
          {
            "duration": 0.09191166666666462,
            "durationTicks": 10,
            "midi": 60,
            "name": "C4",
            "ticks": 3360,
            "time": 30.88232,
            "velocity": 0.5905511811023622
          },
          {
            "duration": 0.09191166666666462,
            "durationTicks": 10,
            "midi": 57,
            "name": "A3",
            "ticks": 3384,
            "time": 31.102908,
            "velocity": 0.6692913385826772
          },
          {
            "duration": 0.20220566666666429,
            "durationTicks": 22,
            "midi": 69,
            "name": "A4",
            "ticks": 3396,
            "time": 31.213202000000003,
            "velocity": 0.5905511811023622
          },
          {
            "duration": 0.20220566666666429,
            "durationTicks": 22,
            "midi": 64,
            "name": "E4",
            "ticks": 3396,
            "time": 31.213202000000003,
            "velocity": 0.5905511811023622
          },
          {
            "duration": 0.20220566666666429,
            "durationTicks": 22,
            "midi": 62,
            "name": "D4",
            "ticks": 3396,
            "time": 31.213202000000003,
            "velocity": 0.5905511811023622
          },
          {
            "duration": 0.20220566666666429,
            "durationTicks": 22,
            "midi": 60,
            "name": "C4",
            "ticks": 3396,
            "time": 31.213202000000003,
            "velocity": 0.5905511811023622
          },
          {
            "duration": 0.09191166666666462,
            "durationTicks": 10,
            "midi": 57,
            "name": "A3",
            "ticks": 3420,
            "time": 31.433790000000002,
            "velocity": 0.6692913385826772
          },
          {
            "duration": 0.09191166666666462,
            "durationTicks": 10,
            "midi": 60,
            "name": "C4",
            "ticks": 3432,
            "time": 31.544084,
            "velocity": 0.6692913385826772
          },
          {
            "duration": 0.09191166666666462,
            "durationTicks": 10,
            "midi": 62,
            "name": "D4",
            "ticks": 3444,
            "time": 31.654378,
            "velocity": 0.6692913385826772
          },
          {
            "duration": 0.20220566666666429,
            "durationTicks": 22,
            "midi": 64,
            "name": "E4",
            "ticks": 3456,
            "time": 31.764672,
            "velocity": 0.6692913385826772
          },
          {
            "duration": 0.20220566666666429,
            "durationTicks": 22,
            "midi": 48,
            "name": "C3",
            "ticks": 3456,
            "time": 31.764672,
            "velocity": 0.6692913385826772
          },
          {
            "duration": 0.09191166666666462,
            "durationTicks": 10,
            "midi": 74,
            "name": "D5",
            "ticks": 3480,
            "time": 31.98526,
            "velocity": 0.5905511811023622
          },
          {
            "duration": 0.09191166666666462,
            "durationTicks": 10,
            "midi": 67,
            "name": "G4",
            "ticks": 3480,
            "time": 31.98526,
            "velocity": 0.5905511811023622
          },
          {
            "duration": 0.09191166666666462,
            "durationTicks": 10,
            "midi": 63,
            "name": "D#4",
            "ticks": 3480,
            "time": 31.98526,
            "velocity": 0.5905511811023622
          },
          {
            "duration": 0.09191166666666462,
            "durationTicks": 10,
            "midi": 60,
            "name": "C4",
            "ticks": 3480,
            "time": 31.98526,
            "velocity": 0.5905511811023622
          },
          {
            "duration": 0.09191166666666106,
            "durationTicks": 10,
            "midi": 48,
            "name": "C3",
            "ticks": 3504,
            "time": 32.205848,
            "velocity": 0.6692913385826772
          },
          {
            "duration": 0.20220566666666429,
            "durationTicks": 22,
            "midi": 74,
            "name": "D5",
            "ticks": 3516,
            "time": 32.316142,
            "velocity": 0.5905511811023622
          },
          {
            "duration": 0.20220566666666429,
            "durationTicks": 22,
            "midi": 67,
            "name": "G4",
            "ticks": 3516,
            "time": 32.316142,
            "velocity": 0.5905511811023622
          },
          {
            "duration": 0.20220566666666429,
            "durationTicks": 22,
            "midi": 63,
            "name": "D#4",
            "ticks": 3516,
            "time": 32.316142,
            "velocity": 0.5905511811023622
          },
          {
            "duration": 0.20220566666666429,
            "durationTicks": 22,
            "midi": 60,
            "name": "C4",
            "ticks": 3516,
            "time": 32.316142,
            "velocity": 0.5905511811023622
          },
          {
            "duration": 0.09191166666666817,
            "durationTicks": 10,
            "midi": 48,
            "name": "C3",
            "ticks": 3540,
            "time": 32.53673,
            "velocity": 0.6692913385826772
          },
          {
            "duration": 0.09191166666666106,
            "durationTicks": 10,
            "midi": 69,
            "name": "A4",
            "ticks": 3552,
            "time": 32.647024,
            "velocity": 0.5905511811023622
          },
          {
            "duration": 0.09191166666666106,
            "durationTicks": 10,
            "midi": 64,
            "name": "E4",
            "ticks": 3552,
            "time": 32.647024,
            "velocity": 0.5905511811023622
          },
          {
            "duration": 0.09191166666666106,
            "durationTicks": 10,
            "midi": 62,
            "name": "D4",
            "ticks": 3552,
            "time": 32.647024,
            "velocity": 0.5905511811023622
          },
          {
            "duration": 0.09191166666666106,
            "durationTicks": 10,
            "midi": 60,
            "name": "C4",
            "ticks": 3552,
            "time": 32.647024,
            "velocity": 0.5905511811023622
          },
          {
            "duration": 0.09191166666666106,
            "durationTicks": 10,
            "midi": 57,
            "name": "A3",
            "ticks": 3576,
            "time": 32.867612,
            "velocity": 0.6692913385826772
          },
          {
            "duration": 0.20220566666666429,
            "durationTicks": 22,
            "midi": 69,
            "name": "A4",
            "ticks": 3588,
            "time": 32.977906000000004,
            "velocity": 0.5905511811023622
          },
          {
            "duration": 0.20220566666666429,
            "durationTicks": 22,
            "midi": 64,
            "name": "E4",
            "ticks": 3588,
            "time": 32.977906000000004,
            "velocity": 0.5905511811023622
          },
          {
            "duration": 0.20220566666666429,
            "durationTicks": 22,
            "midi": 62,
            "name": "D4",
            "ticks": 3588,
            "time": 32.977906000000004,
            "velocity": 0.5905511811023622
          },
          {
            "duration": 0.20220566666666429,
            "durationTicks": 22,
            "midi": 60,
            "name": "C4",
            "ticks": 3588,
            "time": 32.977906000000004,
            "velocity": 0.5905511811023622
          },
          {
            "duration": 0.09191166666666106,
            "durationTicks": 10,
            "midi": 57,
            "name": "A3",
            "ticks": 3612,
            "time": 33.198494000000004,
            "velocity": 0.6692913385826772
          },
          {
            "duration": 0.09191166666666817,
            "durationTicks": 10,
            "midi": 60,
            "name": "C4",
            "ticks": 3624,
            "time": 33.308788,
            "velocity": 0.6692913385826772
          },
          {
            "duration": 0.09191166666666106,
            "durationTicks": 10,
            "midi": 62,
            "name": "D4",
            "ticks": 3636,
            "time": 33.419082,
            "velocity": 0.6692913385826772
          },
          {
            "duration": 0.20220566666666429,
            "durationTicks": 22,
            "midi": 64,
            "name": "E4",
            "ticks": 3648,
            "time": 33.529376,
            "velocity": 0.6692913385826772
          },
          {
            "duration": 0.20220566666666429,
            "durationTicks": 22,
            "midi": 58,
            "name": "A#3",
            "ticks": 3648,
            "time": 33.529376,
            "velocity": 0.6692913385826772
          },
          {
            "duration": 0.09191166666666817,
            "durationTicks": 10,
            "midi": 70,
            "name": "A#4",
            "ticks": 3672,
            "time": 33.749964,
            "velocity": 0.5905511811023622
          },
          {
            "duration": 0.09191166666666817,
            "durationTicks": 10,
            "midi": 67,
            "name": "G4",
            "ticks": 3672,
            "time": 33.749964,
            "velocity": 0.5905511811023622
          },
          {
            "duration": 0.09191166666666817,
            "durationTicks": 10,
            "midi": 63,
            "name": "D#4",
            "ticks": 3672,
            "time": 33.749964,
            "velocity": 0.5905511811023622
          },
          {
            "duration": 0.09191166666666817,
            "durationTicks": 10,
            "midi": 60,
            "name": "C4",
            "ticks": 3672,
            "time": 33.749964,
            "velocity": 0.5905511811023622
          },
          {
            "duration": 0.09191166666666817,
            "durationTicks": 10,
            "midi": 58,
            "name": "A#3",
            "ticks": 3696,
            "time": 33.970552,
            "velocity": 0.6692913385826772
          },
          {
            "duration": 0.20220566666666429,
            "durationTicks": 22,
            "midi": 70,
            "name": "A#4",
            "ticks": 3708,
            "time": 34.080846,
            "velocity": 0.5905511811023622
          },
          {
            "duration": 0.20220566666666429,
            "durationTicks": 22,
            "midi": 67,
            "name": "G4",
            "ticks": 3708,
            "time": 34.080846,
            "velocity": 0.5905511811023622
          },
          {
            "duration": 0.20220566666666429,
            "durationTicks": 22,
            "midi": 63,
            "name": "D#4",
            "ticks": 3708,
            "time": 34.080846,
            "velocity": 0.5905511811023622
          },
          {
            "duration": 0.20220566666666429,
            "durationTicks": 22,
            "midi": 60,
            "name": "C4",
            "ticks": 3708,
            "time": 34.080846,
            "velocity": 0.5905511811023622
          },
          {
            "duration": 0.09191166666666817,
            "durationTicks": 10,
            "midi": 58,
            "name": "A#3",
            "ticks": 3732,
            "time": 34.301434,
            "velocity": 0.6692913385826772
          },
          {
            "duration": 0.09191166666666106,
            "durationTicks": 10,
            "midi": 69,
            "name": "A4",
            "ticks": 3744,
            "time": 34.411728000000004,
            "velocity": 0.5905511811023622
          },
          {
            "duration": 0.09191166666666106,
            "durationTicks": 10,
            "midi": 64,
            "name": "E4",
            "ticks": 3744,
            "time": 34.411728000000004,
            "velocity": 0.5905511811023622
          },
          {
            "duration": 0.09191166666666106,
            "durationTicks": 10,
            "midi": 62,
            "name": "D4",
            "ticks": 3744,
            "time": 34.411728000000004,
            "velocity": 0.5905511811023622
          },
          {
            "duration": 0.09191166666666106,
            "durationTicks": 10,
            "midi": 60,
            "name": "C4",
            "ticks": 3744,
            "time": 34.411728000000004,
            "velocity": 0.5905511811023622
          },
          {
            "duration": 0.09191166666666106,
            "durationTicks": 10,
            "midi": 57,
            "name": "A3",
            "ticks": 3768,
            "time": 34.632316,
            "velocity": 0.6692913385826772
          },
          {
            "duration": 0.20220566666666429,
            "durationTicks": 22,
            "midi": 69,
            "name": "A4",
            "ticks": 3780,
            "time": 34.74261,
            "velocity": 0.5905511811023622
          },
          {
            "duration": 0.20220566666666429,
            "durationTicks": 22,
            "midi": 64,
            "name": "E4",
            "ticks": 3780,
            "time": 34.74261,
            "velocity": 0.5905511811023622
          },
          {
            "duration": 0.20220566666666429,
            "durationTicks": 22,
            "midi": 62,
            "name": "D4",
            "ticks": 3780,
            "time": 34.74261,
            "velocity": 0.5905511811023622
          },
          {
            "duration": 0.20220566666666429,
            "durationTicks": 22,
            "midi": 60,
            "name": "C4",
            "ticks": 3780,
            "time": 34.74261,
            "velocity": 0.5905511811023622
          },
          {
            "duration": 0.09191166666666817,
            "durationTicks": 10,
            "midi": 57,
            "name": "A3",
            "ticks": 3804,
            "time": 34.963198,
            "velocity": 0.6692913385826772
          },
          {
            "duration": 0.09191166666666106,
            "durationTicks": 10,
            "midi": 60,
            "name": "C4",
            "ticks": 3816,
            "time": 35.073492,
            "velocity": 0.6692913385826772
          },
          {
            "duration": 0.09191166666666817,
            "durationTicks": 10,
            "midi": 62,
            "name": "D4",
            "ticks": 3828,
            "time": 35.183786,
            "velocity": 0.6692913385826772
          },
          {
            "duration": 0.20220566666666429,
            "durationTicks": 22,
            "midi": 64,
            "name": "E4",
            "ticks": 3840,
            "time": 35.29408,
            "velocity": 0.6692913385826772
          },
          {
            "duration": 0.20220566666666429,
            "durationTicks": 22,
            "midi": 48,
            "name": "C3",
            "ticks": 3840,
            "time": 35.29408,
            "velocity": 0.6692913385826772
          },
          {
            "duration": 0.09191166666666817,
            "durationTicks": 10,
            "midi": 74,
            "name": "D5",
            "ticks": 3864,
            "time": 35.514668,
            "velocity": 0.5905511811023622
          },
          {
            "duration": 0.09191166666666817,
            "durationTicks": 10,
            "midi": 67,
            "name": "G4",
            "ticks": 3864,
            "time": 35.514668,
            "velocity": 0.5905511811023622
          },
          {
            "duration": 0.09191166666666817,
            "durationTicks": 10,
            "midi": 63,
            "name": "D#4",
            "ticks": 3864,
            "time": 35.514668,
            "velocity": 0.5905511811023622
          },
          {
            "duration": 0.09191166666666817,
            "durationTicks": 10,
            "midi": 60,
            "name": "C4",
            "ticks": 3864,
            "time": 35.514668,
            "velocity": 0.5905511811023622
          },
          {
            "duration": 0.09191166666666817,
            "durationTicks": 10,
            "midi": 48,
            "name": "C3",
            "ticks": 3888,
            "time": 35.735256,
            "velocity": 0.6692913385826772
          },
          {
            "duration": 0.20220566666666429,
            "durationTicks": 22,
            "midi": 74,
            "name": "D5",
            "ticks": 3900,
            "time": 35.84555,
            "velocity": 0.5905511811023622
          },
          {
            "duration": 0.20220566666666429,
            "durationTicks": 22,
            "midi": 67,
            "name": "G4",
            "ticks": 3900,
            "time": 35.84555,
            "velocity": 0.5905511811023622
          },
          {
            "duration": 0.20220566666666429,
            "durationTicks": 22,
            "midi": 63,
            "name": "D#4",
            "ticks": 3900,
            "time": 35.84555,
            "velocity": 0.5905511811023622
          },
          {
            "duration": 0.20220566666666429,
            "durationTicks": 22,
            "midi": 60,
            "name": "C4",
            "ticks": 3900,
            "time": 35.84555,
            "velocity": 0.5905511811023622
          },
          {
            "duration": 0.09191166666666106,
            "durationTicks": 10,
            "midi": 48,
            "name": "C3",
            "ticks": 3924,
            "time": 36.066138,
            "velocity": 0.6692913385826772
          },
          {
            "duration": 0.09191166666666817,
            "durationTicks": 10,
            "midi": 69,
            "name": "A4",
            "ticks": 3936,
            "time": 36.176432,
            "velocity": 0.5905511811023622
          },
          {
            "duration": 0.09191166666666817,
            "durationTicks": 10,
            "midi": 64,
            "name": "E4",
            "ticks": 3936,
            "time": 36.176432,
            "velocity": 0.5905511811023622
          },
          {
            "duration": 0.09191166666666817,
            "durationTicks": 10,
            "midi": 62,
            "name": "D4",
            "ticks": 3936,
            "time": 36.176432,
            "velocity": 0.5905511811023622
          },
          {
            "duration": 0.09191166666666817,
            "durationTicks": 10,
            "midi": 60,
            "name": "C4",
            "ticks": 3936,
            "time": 36.176432,
            "velocity": 0.5905511811023622
          },
          {
            "duration": 0.09191166666666817,
            "durationTicks": 10,
            "midi": 57,
            "name": "A3",
            "ticks": 3960,
            "time": 36.39702,
            "velocity": 0.6692913385826772
          },
          {
            "duration": 0.20220566666666429,
            "durationTicks": 22,
            "midi": 69,
            "name": "A4",
            "ticks": 3972,
            "time": 36.507314,
            "velocity": 0.5905511811023622
          },
          {
            "duration": 0.20220566666666429,
            "durationTicks": 22,
            "midi": 64,
            "name": "E4",
            "ticks": 3972,
            "time": 36.507314,
            "velocity": 0.5905511811023622
          },
          {
            "duration": 0.20220566666666429,
            "durationTicks": 22,
            "midi": 62,
            "name": "D4",
            "ticks": 3972,
            "time": 36.507314,
            "velocity": 0.5905511811023622
          },
          {
            "duration": 0.20220566666666429,
            "durationTicks": 22,
            "midi": 60,
            "name": "C4",
            "ticks": 3972,
            "time": 36.507314,
            "velocity": 0.5905511811023622
          },
          {
            "duration": 0.09191166666666817,
            "durationTicks": 10,
            "midi": 57,
            "name": "A3",
            "ticks": 3996,
            "time": 36.727902,
            "velocity": 0.6692913385826772
          },
          {
            "duration": 0.09191166666666106,
            "durationTicks": 10,
            "midi": 60,
            "name": "C4",
            "ticks": 4008,
            "time": 36.838196,
            "velocity": 0.6692913385826772
          },
          {
            "duration": 0.09191166666666817,
            "durationTicks": 10,
            "midi": 62,
            "name": "D4",
            "ticks": 4020,
            "time": 36.94849,
            "velocity": 0.6692913385826772
          },
          {
            "duration": 0.20220566666666429,
            "durationTicks": 22,
            "midi": 64,
            "name": "E4",
            "ticks": 4032,
            "time": 37.058784,
            "velocity": 0.6692913385826772
          },
          {
            "duration": 0.20220566666666429,
            "durationTicks": 22,
            "midi": 58,
            "name": "A#3",
            "ticks": 4032,
            "time": 37.058784,
            "velocity": 0.6692913385826772
          },
          {
            "duration": 0.09191166666666106,
            "durationTicks": 10,
            "midi": 70,
            "name": "A#4",
            "ticks": 4056,
            "time": 37.279372,
            "velocity": 0.5905511811023622
          },
          {
            "duration": 0.09191166666666106,
            "durationTicks": 10,
            "midi": 67,
            "name": "G4",
            "ticks": 4056,
            "time": 37.279372,
            "velocity": 0.5905511811023622
          },
          {
            "duration": 0.09191166666666106,
            "durationTicks": 10,
            "midi": 63,
            "name": "D#4",
            "ticks": 4056,
            "time": 37.279372,
            "velocity": 0.5905511811023622
          },
          {
            "duration": 0.09191166666666106,
            "durationTicks": 10,
            "midi": 60,
            "name": "C4",
            "ticks": 4056,
            "time": 37.279372,
            "velocity": 0.5905511811023622
          },
          {
            "duration": 0.09191166666666106,
            "durationTicks": 10,
            "midi": 58,
            "name": "A#3",
            "ticks": 4080,
            "time": 37.49996,
            "velocity": 0.6692913385826772
          },
          {
            "duration": 0.2022056666666714,
            "durationTicks": 22,
            "midi": 70,
            "name": "A#4",
            "ticks": 4092,
            "time": 37.610254,
            "velocity": 0.5905511811023622
          },
          {
            "duration": 0.2022056666666714,
            "durationTicks": 22,
            "midi": 67,
            "name": "G4",
            "ticks": 4092,
            "time": 37.610254,
            "velocity": 0.5905511811023622
          },
          {
            "duration": 0.2022056666666714,
            "durationTicks": 22,
            "midi": 63,
            "name": "D#4",
            "ticks": 4092,
            "time": 37.610254,
            "velocity": 0.5905511811023622
          },
          {
            "duration": 0.2022056666666714,
            "durationTicks": 22,
            "midi": 60,
            "name": "C4",
            "ticks": 4092,
            "time": 37.610254,
            "velocity": 0.5905511811023622
          },
          {
            "duration": 0.09191166666666106,
            "durationTicks": 10,
            "midi": 58,
            "name": "A#3",
            "ticks": 4116,
            "time": 37.830842000000004,
            "velocity": 0.6692913385826772
          },
          {
            "duration": 0.09191166666666817,
            "durationTicks": 10,
            "midi": 69,
            "name": "A4",
            "ticks": 4128,
            "time": 37.941136,
            "velocity": 0.5905511811023622
          },
          {
            "duration": 0.09191166666666817,
            "durationTicks": 10,
            "midi": 64,
            "name": "E4",
            "ticks": 4128,
            "time": 37.941136,
            "velocity": 0.5905511811023622
          },
          {
            "duration": 0.09191166666666817,
            "durationTicks": 10,
            "midi": 62,
            "name": "D4",
            "ticks": 4128,
            "time": 37.941136,
            "velocity": 0.5905511811023622
          },
          {
            "duration": 0.09191166666666817,
            "durationTicks": 10,
            "midi": 60,
            "name": "C4",
            "ticks": 4128,
            "time": 37.941136,
            "velocity": 0.5905511811023622
          },
          {
            "duration": 0.09191166666666817,
            "durationTicks": 10,
            "midi": 57,
            "name": "A3",
            "ticks": 4152,
            "time": 38.161724,
            "velocity": 0.6692913385826772
          },
          {
            "duration": 0.20220566666666429,
            "durationTicks": 22,
            "midi": 69,
            "name": "A4",
            "ticks": 4164,
            "time": 38.272018,
            "velocity": 0.5905511811023622
          },
          {
            "duration": 0.20220566666666429,
            "durationTicks": 22,
            "midi": 64,
            "name": "E4",
            "ticks": 4164,
            "time": 38.272018,
            "velocity": 0.5905511811023622
          },
          {
            "duration": 0.20220566666666429,
            "durationTicks": 22,
            "midi": 62,
            "name": "D4",
            "ticks": 4164,
            "time": 38.272018,
            "velocity": 0.5905511811023622
          },
          {
            "duration": 0.20220566666666429,
            "durationTicks": 22,
            "midi": 60,
            "name": "C4",
            "ticks": 4164,
            "time": 38.272018,
            "velocity": 0.5905511811023622
          },
          {
            "duration": 0.09191166666666106,
            "durationTicks": 10,
            "midi": 57,
            "name": "A3",
            "ticks": 4188,
            "time": 38.492606,
            "velocity": 0.6692913385826772
          },
          {
            "duration": 0.09191166666666817,
            "durationTicks": 10,
            "midi": 60,
            "name": "C4",
            "ticks": 4200,
            "time": 38.6029,
            "velocity": 0.6692913385826772
          },
          {
            "duration": 0.09191166666666106,
            "durationTicks": 10,
            "midi": 62,
            "name": "D4",
            "ticks": 4212,
            "time": 38.713194,
            "velocity": 0.6692913385826772
          },
          {
            "duration": 0.2022056666666714,
            "durationTicks": 22,
            "midi": 64,
            "name": "E4",
            "ticks": 4224,
            "time": 38.823488,
            "velocity": 0.6692913385826772
          },
          {
            "duration": 0.2022056666666714,
            "durationTicks": 22,
            "midi": 48,
            "name": "C3",
            "ticks": 4224,
            "time": 38.823488,
            "velocity": 0.6692913385826772
          },
          {
            "duration": 0.09191166666666106,
            "durationTicks": 10,
            "midi": 74,
            "name": "D5",
            "ticks": 4248,
            "time": 39.044076000000004,
            "velocity": 0.5905511811023622
          },
          {
            "duration": 0.09191166666666106,
            "durationTicks": 10,
            "midi": 67,
            "name": "G4",
            "ticks": 4248,
            "time": 39.044076000000004,
            "velocity": 0.5905511811023622
          },
          {
            "duration": 0.09191166666666106,
            "durationTicks": 10,
            "midi": 63,
            "name": "D#4",
            "ticks": 4248,
            "time": 39.044076000000004,
            "velocity": 0.5905511811023622
          },
          {
            "duration": 0.09191166666666106,
            "durationTicks": 10,
            "midi": 60,
            "name": "C4",
            "ticks": 4248,
            "time": 39.044076000000004,
            "velocity": 0.5905511811023622
          },
          {
            "duration": 0.09191166666666106,
            "durationTicks": 10,
            "midi": 48,
            "name": "C3",
            "ticks": 4272,
            "time": 39.264664,
            "velocity": 0.6692913385826772
          },
          {
            "duration": 0.20220566666666429,
            "durationTicks": 22,
            "midi": 74,
            "name": "D5",
            "ticks": 4284,
            "time": 39.374958,
            "velocity": 0.5905511811023622
          },
          {
            "duration": 0.20220566666666429,
            "durationTicks": 22,
            "midi": 67,
            "name": "G4",
            "ticks": 4284,
            "time": 39.374958,
            "velocity": 0.5905511811023622
          },
          {
            "duration": 0.20220566666666429,
            "durationTicks": 22,
            "midi": 63,
            "name": "D#4",
            "ticks": 4284,
            "time": 39.374958,
            "velocity": 0.5905511811023622
          },
          {
            "duration": 0.20220566666666429,
            "durationTicks": 22,
            "midi": 60,
            "name": "C4",
            "ticks": 4284,
            "time": 39.374958,
            "velocity": 0.5905511811023622
          },
          {
            "duration": 0.09191166666666817,
            "durationTicks": 10,
            "midi": 48,
            "name": "C3",
            "ticks": 4308,
            "time": 39.595546,
            "velocity": 0.6692913385826772
          },
          {
            "duration": 0.09191166666666106,
            "durationTicks": 10,
            "midi": 69,
            "name": "A4",
            "ticks": 4320,
            "time": 39.70584,
            "velocity": 0.5905511811023622
          },
          {
            "duration": 0.09191166666666106,
            "durationTicks": 10,
            "midi": 64,
            "name": "E4",
            "ticks": 4320,
            "time": 39.70584,
            "velocity": 0.5905511811023622
          },
          {
            "duration": 0.09191166666666106,
            "durationTicks": 10,
            "midi": 62,
            "name": "D4",
            "ticks": 4320,
            "time": 39.70584,
            "velocity": 0.5905511811023622
          },
          {
            "duration": 0.09191166666666106,
            "durationTicks": 10,
            "midi": 60,
            "name": "C4",
            "ticks": 4320,
            "time": 39.70584,
            "velocity": 0.5905511811023622
          },
          {
            "duration": 0.09191166666666106,
            "durationTicks": 10,
            "midi": 57,
            "name": "A3",
            "ticks": 4344,
            "time": 39.926428,
            "velocity": 0.6692913385826772
          },
          {
            "duration": 0.20220566666666429,
            "durationTicks": 22,
            "midi": 69,
            "name": "A4",
            "ticks": 4356,
            "time": 40.036722000000005,
            "velocity": 0.5905511811023622
          },
          {
            "duration": 0.20220566666666429,
            "durationTicks": 22,
            "midi": 64,
            "name": "E4",
            "ticks": 4356,
            "time": 40.036722000000005,
            "velocity": 0.5905511811023622
          },
          {
            "duration": 0.20220566666666429,
            "durationTicks": 22,
            "midi": 62,
            "name": "D4",
            "ticks": 4356,
            "time": 40.036722000000005,
            "velocity": 0.5905511811023622
          },
          {
            "duration": 0.20220566666666429,
            "durationTicks": 22,
            "midi": 60,
            "name": "C4",
            "ticks": 4356,
            "time": 40.036722000000005,
            "velocity": 0.5905511811023622
          },
          {
            "duration": 0.09191166666666106,
            "durationTicks": 10,
            "midi": 57,
            "name": "A3",
            "ticks": 4380,
            "time": 40.257310000000004,
            "velocity": 0.6692913385826772
          },
          {
            "duration": 0.09191166666666817,
            "durationTicks": 10,
            "midi": 60,
            "name": "C4",
            "ticks": 4392,
            "time": 40.367604,
            "velocity": 0.6692913385826772
          },
          {
            "duration": 0.09191166666666106,
            "durationTicks": 10,
            "midi": 62,
            "name": "D4",
            "ticks": 4404,
            "time": 40.477898,
            "velocity": 0.6692913385826772
          },
          {
            "duration": 0.20220566666666429,
            "durationTicks": 22,
            "midi": 64,
            "name": "E4",
            "ticks": 4416,
            "time": 40.588192,
            "velocity": 0.6692913385826772
          },
          {
            "duration": 0.20220566666666429,
            "durationTicks": 22,
            "midi": 58,
            "name": "A#3",
            "ticks": 4416,
            "time": 40.588192,
            "velocity": 0.6692913385826772
          },
          {
            "duration": 0.09191166666666817,
            "durationTicks": 10,
            "midi": 70,
            "name": "A#4",
            "ticks": 4440,
            "time": 40.80878,
            "velocity": 0.5905511811023622
          },
          {
            "duration": 0.09191166666666817,
            "durationTicks": 10,
            "midi": 67,
            "name": "G4",
            "ticks": 4440,
            "time": 40.80878,
            "velocity": 0.5905511811023622
          },
          {
            "duration": 0.09191166666666817,
            "durationTicks": 10,
            "midi": 63,
            "name": "D#4",
            "ticks": 4440,
            "time": 40.80878,
            "velocity": 0.5905511811023622
          },
          {
            "duration": 0.09191166666666817,
            "durationTicks": 10,
            "midi": 60,
            "name": "C4",
            "ticks": 4440,
            "time": 40.80878,
            "velocity": 0.5905511811023622
          },
          {
            "duration": 0.09191166666666817,
            "durationTicks": 10,
            "midi": 58,
            "name": "A#3",
            "ticks": 4464,
            "time": 41.029368,
            "velocity": 0.6692913385826772
          },
          {
            "duration": 0.20220566666666429,
            "durationTicks": 22,
            "midi": 70,
            "name": "A#4",
            "ticks": 4476,
            "time": 41.139662,
            "velocity": 0.5905511811023622
          },
          {
            "duration": 0.20220566666666429,
            "durationTicks": 22,
            "midi": 67,
            "name": "G4",
            "ticks": 4476,
            "time": 41.139662,
            "velocity": 0.5905511811023622
          },
          {
            "duration": 0.20220566666666429,
            "durationTicks": 22,
            "midi": 63,
            "name": "D#4",
            "ticks": 4476,
            "time": 41.139662,
            "velocity": 0.5905511811023622
          },
          {
            "duration": 0.20220566666666429,
            "durationTicks": 22,
            "midi": 60,
            "name": "C4",
            "ticks": 4476,
            "time": 41.139662,
            "velocity": 0.5905511811023622
          },
          {
            "duration": 0.09191166666666817,
            "durationTicks": 10,
            "midi": 58,
            "name": "A#3",
            "ticks": 4500,
            "time": 41.36025,
            "velocity": 0.6692913385826772
          },
          {
            "duration": 0.09191166666666106,
            "durationTicks": 10,
            "midi": 69,
            "name": "A4",
            "ticks": 4512,
            "time": 41.470544000000004,
            "velocity": 0.5905511811023622
          },
          {
            "duration": 0.09191166666666106,
            "durationTicks": 10,
            "midi": 64,
            "name": "E4",
            "ticks": 4512,
            "time": 41.470544000000004,
            "velocity": 0.5905511811023622
          },
          {
            "duration": 0.09191166666666106,
            "durationTicks": 10,
            "midi": 62,
            "name": "D4",
            "ticks": 4512,
            "time": 41.470544000000004,
            "velocity": 0.5905511811023622
          },
          {
            "duration": 0.09191166666666106,
            "durationTicks": 10,
            "midi": 60,
            "name": "C4",
            "ticks": 4512,
            "time": 41.470544000000004,
            "velocity": 0.5905511811023622
          },
          {
            "duration": 0.09191166666666106,
            "durationTicks": 10,
            "midi": 57,
            "name": "A3",
            "ticks": 4536,
            "time": 41.691132,
            "velocity": 0.6692913385826772
          },
          {
            "duration": 0.20220566666666429,
            "durationTicks": 22,
            "midi": 69,
            "name": "A4",
            "ticks": 4548,
            "time": 41.801426,
            "velocity": 0.5905511811023622
          },
          {
            "duration": 0.20220566666666429,
            "durationTicks": 22,
            "midi": 64,
            "name": "E4",
            "ticks": 4548,
            "time": 41.801426,
            "velocity": 0.5905511811023622
          },
          {
            "duration": 0.20220566666666429,
            "durationTicks": 22,
            "midi": 62,
            "name": "D4",
            "ticks": 4548,
            "time": 41.801426,
            "velocity": 0.5905511811023622
          },
          {
            "duration": 0.20220566666666429,
            "durationTicks": 22,
            "midi": 60,
            "name": "C4",
            "ticks": 4548,
            "time": 41.801426,
            "velocity": 0.5905511811023622
          },
          {
            "duration": 0.09191166666666817,
            "durationTicks": 10,
            "midi": 57,
            "name": "A3",
            "ticks": 4572,
            "time": 42.022014,
            "velocity": 0.6692913385826772
          },
          {
            "duration": 0.09191166666666106,
            "durationTicks": 10,
            "midi": 60,
            "name": "C4",
            "ticks": 4584,
            "time": 42.132308,
            "velocity": 0.6692913385826772
          },
          {
            "duration": 0.09191166666666817,
            "durationTicks": 10,
            "midi": 62,
            "name": "D4",
            "ticks": 4596,
            "time": 42.242602,
            "velocity": 0.6692913385826772
          },
          {
            "duration": 0.20220566666666429,
            "durationTicks": 22,
            "midi": 64,
            "name": "E4",
            "ticks": 4608,
            "time": 42.352896,
            "velocity": 0.6692913385826772
          },
          {
            "duration": 0.20220566666666429,
            "durationTicks": 22,
            "midi": 48,
            "name": "C3",
            "ticks": 4608,
            "time": 42.352896,
            "velocity": 0.6692913385826772
          },
          {
            "duration": 0.09191166666666817,
            "durationTicks": 10,
            "midi": 74,
            "name": "D5",
            "ticks": 4632,
            "time": 42.573484,
            "velocity": 0.5905511811023622
          },
          {
            "duration": 0.09191166666666817,
            "durationTicks": 10,
            "midi": 67,
            "name": "G4",
            "ticks": 4632,
            "time": 42.573484,
            "velocity": 0.5905511811023622
          },
          {
            "duration": 0.09191166666666817,
            "durationTicks": 10,
            "midi": 63,
            "name": "D#4",
            "ticks": 4632,
            "time": 42.573484,
            "velocity": 0.5905511811023622
          },
          {
            "duration": 0.09191166666666817,
            "durationTicks": 10,
            "midi": 60,
            "name": "C4",
            "ticks": 4632,
            "time": 42.573484,
            "velocity": 0.5905511811023622
          },
          {
            "duration": 0.09191166666666817,
            "durationTicks": 10,
            "midi": 48,
            "name": "C3",
            "ticks": 4656,
            "time": 42.794072,
            "velocity": 0.6692913385826772
          },
          {
            "duration": 0.20220566666666429,
            "durationTicks": 22,
            "midi": 74,
            "name": "D5",
            "ticks": 4668,
            "time": 42.904366,
            "velocity": 0.5905511811023622
          },
          {
            "duration": 0.20220566666666429,
            "durationTicks": 22,
            "midi": 67,
            "name": "G4",
            "ticks": 4668,
            "time": 42.904366,
            "velocity": 0.5905511811023622
          },
          {
            "duration": 0.20220566666666429,
            "durationTicks": 22,
            "midi": 63,
            "name": "D#4",
            "ticks": 4668,
            "time": 42.904366,
            "velocity": 0.5905511811023622
          },
          {
            "duration": 0.20220566666666429,
            "durationTicks": 22,
            "midi": 60,
            "name": "C4",
            "ticks": 4668,
            "time": 42.904366,
            "velocity": 0.5905511811023622
          },
          {
            "duration": 0.09191166666666106,
            "durationTicks": 10,
            "midi": 48,
            "name": "C3",
            "ticks": 4692,
            "time": 43.124954,
            "velocity": 0.6692913385826772
          },
          {
            "duration": 0.09191166666666817,
            "durationTicks": 10,
            "midi": 69,
            "name": "A4",
            "ticks": 4704,
            "time": 43.235248,
            "velocity": 0.5905511811023622
          },
          {
            "duration": 0.09191166666666817,
            "durationTicks": 10,
            "midi": 64,
            "name": "E4",
            "ticks": 4704,
            "time": 43.235248,
            "velocity": 0.5905511811023622
          },
          {
            "duration": 0.09191166666666817,
            "durationTicks": 10,
            "midi": 62,
            "name": "D4",
            "ticks": 4704,
            "time": 43.235248,
            "velocity": 0.5905511811023622
          },
          {
            "duration": 0.09191166666666817,
            "durationTicks": 10,
            "midi": 60,
            "name": "C4",
            "ticks": 4704,
            "time": 43.235248,
            "velocity": 0.5905511811023622
          },
          {
            "duration": 0.09191166666666817,
            "durationTicks": 10,
            "midi": 57,
            "name": "A3",
            "ticks": 4728,
            "time": 43.455836,
            "velocity": 0.6692913385826772
          },
          {
            "duration": 0.20220566666666429,
            "durationTicks": 22,
            "midi": 69,
            "name": "A4",
            "ticks": 4740,
            "time": 43.56613,
            "velocity": 0.5905511811023622
          },
          {
            "duration": 0.20220566666666429,
            "durationTicks": 22,
            "midi": 64,
            "name": "E4",
            "ticks": 4740,
            "time": 43.56613,
            "velocity": 0.5905511811023622
          },
          {
            "duration": 0.20220566666666429,
            "durationTicks": 22,
            "midi": 62,
            "name": "D4",
            "ticks": 4740,
            "time": 43.56613,
            "velocity": 0.5905511811023622
          },
          {
            "duration": 0.20220566666666429,
            "durationTicks": 22,
            "midi": 60,
            "name": "C4",
            "ticks": 4740,
            "time": 43.56613,
            "velocity": 0.5905511811023622
          },
          {
            "duration": 0.09191166666666817,
            "durationTicks": 10,
            "midi": 57,
            "name": "A3",
            "ticks": 4764,
            "time": 43.786718,
            "velocity": 0.6692913385826772
          },
          {
            "duration": 0.09191166666666106,
            "durationTicks": 10,
            "midi": 60,
            "name": "C4",
            "ticks": 4776,
            "time": 43.897012000000004,
            "velocity": 0.6692913385826772
          },
          {
            "duration": 0.09191166666666817,
            "durationTicks": 10,
            "midi": 62,
            "name": "D4",
            "ticks": 4788,
            "time": 44.007306,
            "velocity": 0.6692913385826772
          },
          {
            "duration": 0.20220566666666429,
            "durationTicks": 22,
            "midi": 64,
            "name": "E4",
            "ticks": 4800,
            "time": 44.1176,
            "velocity": 0.6692913385826772
          },
          {
            "duration": 0.20220566666666429,
            "durationTicks": 22,
            "midi": 58,
            "name": "A#3",
            "ticks": 4800,
            "time": 44.1176,
            "velocity": 0.6692913385826772
          },
          {
            "duration": 0.09191166666666106,
            "durationTicks": 10,
            "midi": 70,
            "name": "A#4",
            "ticks": 4824,
            "time": 44.338188,
            "velocity": 0.5905511811023622
          },
          {
            "duration": 0.09191166666666106,
            "durationTicks": 10,
            "midi": 67,
            "name": "G4",
            "ticks": 4824,
            "time": 44.338188,
            "velocity": 0.5905511811023622
          },
          {
            "duration": 0.09191166666666106,
            "durationTicks": 10,
            "midi": 63,
            "name": "D#4",
            "ticks": 4824,
            "time": 44.338188,
            "velocity": 0.5905511811023622
          },
          {
            "duration": 0.09191166666666106,
            "durationTicks": 10,
            "midi": 60,
            "name": "C4",
            "ticks": 4824,
            "time": 44.338188,
            "velocity": 0.5905511811023622
          },
          {
            "duration": 0.09191166666666106,
            "durationTicks": 10,
            "midi": 58,
            "name": "A#3",
            "ticks": 4848,
            "time": 44.558776,
            "velocity": 0.6692913385826772
          },
          {
            "duration": 0.2022056666666714,
            "durationTicks": 22,
            "midi": 70,
            "name": "A#4",
            "ticks": 4860,
            "time": 44.66907,
            "velocity": 0.5905511811023622
          },
          {
            "duration": 0.2022056666666714,
            "durationTicks": 22,
            "midi": 67,
            "name": "G4",
            "ticks": 4860,
            "time": 44.66907,
            "velocity": 0.5905511811023622
          },
          {
            "duration": 0.2022056666666714,
            "durationTicks": 22,
            "midi": 63,
            "name": "D#4",
            "ticks": 4860,
            "time": 44.66907,
            "velocity": 0.5905511811023622
          },
          {
            "duration": 0.2022056666666714,
            "durationTicks": 22,
            "midi": 60,
            "name": "C4",
            "ticks": 4860,
            "time": 44.66907,
            "velocity": 0.5905511811023622
          },
          {
            "duration": 0.09191166666666106,
            "durationTicks": 10,
            "midi": 58,
            "name": "A#3",
            "ticks": 4884,
            "time": 44.889658000000004,
            "velocity": 0.6692913385826772
          },
          {
            "duration": 0.09191166666666817,
            "durationTicks": 10,
            "midi": 69,
            "name": "A4",
            "ticks": 4896,
            "time": 44.999952,
            "velocity": 0.5905511811023622
          },
          {
            "duration": 0.09191166666666817,
            "durationTicks": 10,
            "midi": 64,
            "name": "E4",
            "ticks": 4896,
            "time": 44.999952,
            "velocity": 0.5905511811023622
          },
          {
            "duration": 0.09191166666666817,
            "durationTicks": 10,
            "midi": 62,
            "name": "D4",
            "ticks": 4896,
            "time": 44.999952,
            "velocity": 0.5905511811023622
          },
          {
            "duration": 0.09191166666666817,
            "durationTicks": 10,
            "midi": 60,
            "name": "C4",
            "ticks": 4896,
            "time": 44.999952,
            "velocity": 0.5905511811023622
          },
          {
            "duration": 0.09191166666666817,
            "durationTicks": 10,
            "midi": 57,
            "name": "A3",
            "ticks": 4920,
            "time": 45.22054,
            "velocity": 0.6692913385826772
          },
          {
            "duration": 0.20220566666666429,
            "durationTicks": 22,
            "midi": 69,
            "name": "A4",
            "ticks": 4932,
            "time": 45.330834,
            "velocity": 0.5905511811023622
          },
          {
            "duration": 0.20220566666666429,
            "durationTicks": 22,
            "midi": 64,
            "name": "E4",
            "ticks": 4932,
            "time": 45.330834,
            "velocity": 0.5905511811023622
          },
          {
            "duration": 0.20220566666666429,
            "durationTicks": 22,
            "midi": 62,
            "name": "D4",
            "ticks": 4932,
            "time": 45.330834,
            "velocity": 0.5905511811023622
          },
          {
            "duration": 0.20220566666666429,
            "durationTicks": 22,
            "midi": 60,
            "name": "C4",
            "ticks": 4932,
            "time": 45.330834,
            "velocity": 0.5905511811023622
          },
          {
            "duration": 0.09191166666666106,
            "durationTicks": 10,
            "midi": 57,
            "name": "A3",
            "ticks": 4956,
            "time": 45.551422,
            "velocity": 0.6692913385826772
          },
          {
            "duration": 0.09191166666666817,
            "durationTicks": 10,
            "midi": 60,
            "name": "C4",
            "ticks": 4968,
            "time": 45.661716,
            "velocity": 0.6692913385826772
          },
          {
            "duration": 0.09191166666666106,
            "durationTicks": 10,
            "midi": 62,
            "name": "D4",
            "ticks": 4980,
            "time": 45.77201,
            "velocity": 0.6692913385826772
          },
          {
            "duration": 0.20220566666666429,
            "durationTicks": 22,
            "midi": 64,
            "name": "E4",
            "ticks": 4992,
            "time": 45.882304000000005,
            "velocity": 0.6692913385826772
          },
          {
            "duration": 0.20220566666666429,
            "durationTicks": 22,
            "midi": 48,
            "name": "C3",
            "ticks": 4992,
            "time": 45.882304000000005,
            "velocity": 0.6692913385826772
          },
          {
            "duration": 0.09191166666666106,
            "durationTicks": 10,
            "midi": 74,
            "name": "D5",
            "ticks": 5016,
            "time": 46.102892000000004,
            "velocity": 0.5905511811023622
          },
          {
            "duration": 0.09191166666666106,
            "durationTicks": 10,
            "midi": 67,
            "name": "G4",
            "ticks": 5016,
            "time": 46.102892000000004,
            "velocity": 0.5905511811023622
          },
          {
            "duration": 0.09191166666666106,
            "durationTicks": 10,
            "midi": 63,
            "name": "D#4",
            "ticks": 5016,
            "time": 46.102892000000004,
            "velocity": 0.5905511811023622
          },
          {
            "duration": 0.09191166666666106,
            "durationTicks": 10,
            "midi": 60,
            "name": "C4",
            "ticks": 5016,
            "time": 46.102892000000004,
            "velocity": 0.5905511811023622
          },
          {
            "duration": 0.09191166666666817,
            "durationTicks": 10,
            "midi": 72,
            "name": "C5",
            "ticks": 5052,
            "time": 46.433774,
            "velocity": 0.5905511811023622
          },
          {
            "duration": 0.09191166666666817,
            "durationTicks": 10,
            "midi": 67,
            "name": "G4",
            "ticks": 5052,
            "time": 46.433774,
            "velocity": 0.5905511811023622
          },
          {
            "duration": 0.09191166666666817,
            "durationTicks": 10,
            "midi": 63,
            "name": "D#4",
            "ticks": 5052,
            "time": 46.433774,
            "velocity": 0.5905511811023622
          },
          {
            "duration": 0.09191166666666817,
            "durationTicks": 10,
            "midi": 58,
            "name": "A#3",
            "ticks": 5052,
            "time": 46.433774,
            "velocity": 0.5905511811023622
          },
          {
            "duration": 0.3124996666666604,
            "durationTicks": 34,
            "midi": 67,
            "name": "G4",
            "ticks": 5088,
            "time": 46.764656,
            "velocity": 0.5905511811023622
          },
          {
            "duration": 0.3124996666666604,
            "durationTicks": 34,
            "midi": 63,
            "name": "D#4",
            "ticks": 5088,
            "time": 46.764656,
            "velocity": 0.5905511811023622
          },
          {
            "duration": 0.3124996666666604,
            "durationTicks": 34,
            "midi": 60,
            "name": "C4",
            "ticks": 5088,
            "time": 46.764656,
            "velocity": 0.5905511811023622
          },
          {
            "duration": 0.3124996666666604,
            "durationTicks": 34,
            "midi": 56,
            "name": "G#3",
            "ticks": 5088,
            "time": 46.764656,
            "velocity": 0.5905511811023622
          },
          {
            "duration": 0.09191166666666106,
            "durationTicks": 10,
            "midi": 67,
            "name": "G4",
            "ticks": 5124,
            "time": 47.095538000000005,
            "velocity": 0.5905511811023622
          },
          {
            "duration": 0.09191166666666106,
            "durationTicks": 10,
            "midi": 63,
            "name": "D#4",
            "ticks": 5124,
            "time": 47.095538000000005,
            "velocity": 0.5905511811023622
          },
          {
            "duration": 0.09191166666666106,
            "durationTicks": 10,
            "midi": 60,
            "name": "C4",
            "ticks": 5124,
            "time": 47.095538000000005,
            "velocity": 0.5905511811023622
          },
          {
            "duration": 0.09191166666666106,
            "durationTicks": 10,
            "midi": 56,
            "name": "G#3",
            "ticks": 5124,
            "time": 47.095538000000005,
            "velocity": 0.5905511811023622
          },
          {
            "duration": 1.7647039999999947,
            "durationTicks": 192,
            "midi": 62,
            "name": "D4",
            "ticks": 5256,
            "time": 48.308772000000005,
            "velocity": 0.5905511811023622
          },
          {
            "duration": 1.7647039999999947,
            "durationTicks": 192,
            "midi": 58,
            "name": "A#3",
            "ticks": 5256,
            "time": 48.308772000000005,
            "velocity": 0.5905511811023622
          },
          {
            "duration": 1.7647039999999947,
            "durationTicks": 192,
            "midi": 55,
            "name": "G3",
            "ticks": 5256,
            "time": 48.308772000000005,
            "velocity": 0.5905511811023622
          },
          {
            "duration": 1.7647039999999947,
            "durationTicks": 192,
            "midi": 51,
            "name": "D#3",
            "ticks": 5256,
            "time": 48.308772000000005,
            "velocity": 0.5905511811023622
          },
          {
            "duration": 0.3124996666666675,
            "durationTicks": 34,
            "midi": 69,
            "name": "A4",
            "ticks": 5472,
            "time": 50.294064,
            "velocity": 0.5905511811023622
          },
          {
            "duration": 0.3124996666666675,
            "durationTicks": 34,
            "midi": 65,
            "name": "F4",
            "ticks": 5472,
            "time": 50.294064,
            "velocity": 0.5905511811023622
          },
          {
            "duration": 0.3124996666666675,
            "durationTicks": 34,
            "midi": 62,
            "name": "D4",
            "ticks": 5472,
            "time": 50.294064,
            "velocity": 0.5905511811023622
          },
          {
            "duration": 0.3124996666666675,
            "durationTicks": 34,
            "midi": 58,
            "name": "A#3",
            "ticks": 5472,
            "time": 50.294064,
            "velocity": 0.5905511811023622
          },
          {
            "duration": 0.09191166666666817,
            "durationTicks": 10,
            "midi": 69,
            "name": "A4",
            "ticks": 5508,
            "time": 50.624946,
            "velocity": 0.5905511811023622
          },
          {
            "duration": 0.09191166666666817,
            "durationTicks": 10,
            "midi": 65,
            "name": "F4",
            "ticks": 5508,
            "time": 50.624946,
            "velocity": 0.5905511811023622
          },
          {
            "duration": 0.09191166666666817,
            "durationTicks": 10,
            "midi": 62,
            "name": "D4",
            "ticks": 5508,
            "time": 50.624946,
            "velocity": 0.5905511811023622
          },
          {
            "duration": 0.09191166666666817,
            "durationTicks": 10,
            "midi": 58,
            "name": "A#3",
            "ticks": 5508,
            "time": 50.624946,
            "velocity": 0.5905511811023622
          },
          {
            "duration": 1.7647040000000018,
            "durationTicks": 192,
            "midi": 64,
            "name": "E4",
            "ticks": 5640,
            "time": 51.83818,
            "velocity": 0.5905511811023622
          },
          {
            "duration": 1.7647040000000018,
            "durationTicks": 192,
            "midi": 60,
            "name": "C4",
            "ticks": 5640,
            "time": 51.83818,
            "velocity": 0.5905511811023622
          },
          {
            "duration": 1.7647040000000018,
            "durationTicks": 192,
            "midi": 57,
            "name": "A3",
            "ticks": 5640,
            "time": 51.83818,
            "velocity": 0.5905511811023622
          },
          {
            "duration": 1.7647040000000018,
            "durationTicks": 192,
            "midi": 53,
            "name": "F3",
            "ticks": 5640,
            "time": 51.83818,
            "velocity": 0.5905511811023622
          },
          {
            "duration": 0.3124996666666604,
            "durationTicks": 34,
            "midi": 70,
            "name": "A#4",
            "ticks": 5856,
            "time": 53.823472,
            "velocity": 0.5905511811023622
          },
          {
            "duration": 0.3124996666666604,
            "durationTicks": 34,
            "midi": 67,
            "name": "G4",
            "ticks": 5856,
            "time": 53.823472,
            "velocity": 0.5905511811023622
          },
          {
            "duration": 0.3124996666666604,
            "durationTicks": 34,
            "midi": 63,
            "name": "D#4",
            "ticks": 5856,
            "time": 53.823472,
            "velocity": 0.5905511811023622
          },
          {
            "duration": 0.3124996666666604,
            "durationTicks": 34,
            "midi": 60,
            "name": "C4",
            "ticks": 5856,
            "time": 53.823472,
            "velocity": 0.5905511811023622
          },
          {
            "duration": 0.09191166666666106,
            "durationTicks": 10,
            "midi": 70,
            "name": "A#4",
            "ticks": 5892,
            "time": 54.154354000000005,
            "velocity": 0.5905511811023622
          },
          {
            "duration": 0.09191166666666106,
            "durationTicks": 10,
            "midi": 67,
            "name": "G4",
            "ticks": 5892,
            "time": 54.154354000000005,
            "velocity": 0.5905511811023622
          },
          {
            "duration": 0.09191166666666106,
            "durationTicks": 10,
            "midi": 63,
            "name": "D#4",
            "ticks": 5892,
            "time": 54.154354000000005,
            "velocity": 0.5905511811023622
          },
          {
            "duration": 0.09191166666666106,
            "durationTicks": 10,
            "midi": 60,
            "name": "C4",
            "ticks": 5892,
            "time": 54.154354000000005,
            "velocity": 0.5905511811023622
          },
          {
            "duration": 1.7647039999999947,
            "durationTicks": 192,
            "midi": 65,
            "name": "F4",
            "ticks": 6024,
            "time": 55.367588000000005,
            "velocity": 0.5905511811023622
          },
          {
            "duration": 1.7647039999999947,
            "durationTicks": 192,
            "midi": 62,
            "name": "D4",
            "ticks": 6024,
            "time": 55.367588000000005,
            "velocity": 0.5905511811023622
          },
          {
            "duration": 1.7647039999999947,
            "durationTicks": 192,
            "midi": 58,
            "name": "A#3",
            "ticks": 6024,
            "time": 55.367588000000005,
            "velocity": 0.5905511811023622
          },
          {
            "duration": 1.7647039999999947,
            "durationTicks": 192,
            "midi": 55,
            "name": "G3",
            "ticks": 6024,
            "time": 55.367588000000005,
            "velocity": 0.5905511811023622
          },
          {
            "duration": 0.3124996666666746,
            "durationTicks": 34,
            "midi": 67,
            "name": "G4",
            "ticks": 6240,
            "time": 57.35288,
            "velocity": 0.5905511811023622
          },
          {
            "duration": 0.3124996666666746,
            "durationTicks": 34,
            "midi": 63,
            "name": "D#4",
            "ticks": 6240,
            "time": 57.35288,
            "velocity": 0.5905511811023622
          },
          {
            "duration": 0.3124996666666746,
            "durationTicks": 34,
            "midi": 60,
            "name": "C4",
            "ticks": 6240,
            "time": 57.35288,
            "velocity": 0.5905511811023622
          },
          {
            "duration": 0.3124996666666746,
            "durationTicks": 34,
            "midi": 56,
            "name": "G#3",
            "ticks": 6240,
            "time": 57.35288,
            "velocity": 0.5905511811023622
          },
          {
            "duration": 0.09191166666666817,
            "durationTicks": 10,
            "midi": 67,
            "name": "G4",
            "ticks": 6276,
            "time": 57.683762,
            "velocity": 0.5905511811023622
          },
          {
            "duration": 0.09191166666666817,
            "durationTicks": 10,
            "midi": 63,
            "name": "D#4",
            "ticks": 6276,
            "time": 57.683762,
            "velocity": 0.5905511811023622
          },
          {
            "duration": 0.09191166666666817,
            "durationTicks": 10,
            "midi": 60,
            "name": "C4",
            "ticks": 6276,
            "time": 57.683762,
            "velocity": 0.5905511811023622
          },
          {
            "duration": 0.09191166666666817,
            "durationTicks": 10,
            "midi": 56,
            "name": "G#3",
            "ticks": 6276,
            "time": 57.683762,
            "velocity": 0.5905511811023622
          },
          {
            "duration": 1.7647040000000018,
            "durationTicks": 192,
            "midi": 65,
            "name": "F4",
            "ticks": 6408,
            "time": 58.896996,
            "velocity": 0.5905511811023622
          },
          {
            "duration": 1.7647040000000018,
            "durationTicks": 192,
            "midi": 63,
            "name": "D#4",
            "ticks": 6408,
            "time": 58.896996,
            "velocity": 0.5905511811023622
          },
          {
            "duration": 1.7647040000000018,
            "durationTicks": 192,
            "midi": 60,
            "name": "C4",
            "ticks": 6408,
            "time": 58.896996,
            "velocity": 0.5905511811023622
          },
          {
            "duration": 1.7647040000000018,
            "durationTicks": 192,
            "midi": 56,
            "name": "G#3",
            "ticks": 6408,
            "time": 58.896996,
            "velocity": 0.5905511811023622
          },
          {
            "duration": 0.09191166666666817,
            "durationTicks": 10,
            "midi": 69,
            "name": "A4",
            "ticks": 6624,
            "time": 60.882288,
            "velocity": 0.6299212598425197
          },
          {
            "duration": 0.09191166666666817,
            "durationTicks": 10,
            "midi": 72,
            "name": "C5",
            "ticks": 6648,
            "time": 61.102876,
            "velocity": 0.6299212598425197
          },
          {
            "duration": 0.09191166666666817,
            "durationTicks": 10,
            "midi": 79,
            "name": "G5",
            "ticks": 6660,
            "time": 61.213170000000005,
            "velocity": 0.6299212598425197
          },
          {
            "duration": 0.09191166666667527,
            "durationTicks": 10,
            "midi": 76,
            "name": "E5",
            "ticks": 6696,
            "time": 61.544052,
            "velocity": 0.6299212598425197
          },
          {
            "duration": 0.09191166666667527,
            "durationTicks": 10,
            "midi": 69,
            "name": "A4",
            "ticks": 6720,
            "time": 61.76464,
            "velocity": 0.6299212598425197
          },
          {
            "duration": 0.09191166666667527,
            "durationTicks": 10,
            "midi": 72,
            "name": "C5",
            "ticks": 6744,
            "time": 61.985228,
            "velocity": 0.6299212598425197
          },
          {
            "duration": 0.09191166666667527,
            "durationTicks": 10,
            "midi": 79,
            "name": "G5",
            "ticks": 6768,
            "time": 62.205816,
            "velocity": 0.6299212598425197
          },
          {
            "duration": 0.09191166666666817,
            "durationTicks": 10,
            "midi": 76,
            "name": "E5",
            "ticks": 6780,
            "time": 62.31611,
            "velocity": 0.6299212598425197
          },
          {
            "duration": 0.09191166666666817,
            "durationTicks": 10,
            "midi": 66,
            "name": "F#4",
            "ticks": 6804,
            "time": 62.536698,
            "velocity": 0.6299212598425197
          },
          {
            "duration": 0.09191166666666817,
            "durationTicks": 10,
            "midi": 70,
            "name": "A#4",
            "ticks": 6840,
            "time": 62.867580000000004,
            "velocity": 0.6299212598425197
          },
          {
            "duration": 0.09191166666667527,
            "durationTicks": 10,
            "midi": 77,
            "name": "F5",
            "ticks": 6852,
            "time": 62.977874,
            "velocity": 0.6299212598425197
          },
          {
            "duration": 0.09191166666666817,
            "durationTicks": 10,
            "midi": 73,
            "name": "C#5",
            "ticks": 6888,
            "time": 63.308756,
            "velocity": 0.6299212598425197
          },
          {
            "duration": 0.09191166666666817,
            "durationTicks": 10,
            "midi": 66,
            "name": "F#4",
            "ticks": 6912,
            "time": 63.529344,
            "velocity": 0.6299212598425197
          },
          {
            "duration": 0.09191166666666817,
            "durationTicks": 10,
            "midi": 70,
            "name": "A#4",
            "ticks": 6936,
            "time": 63.749932,
            "velocity": 0.6299212598425197
          },
          {
            "duration": 0.09191166666666817,
            "durationTicks": 10,
            "midi": 77,
            "name": "F5",
            "ticks": 6960,
            "time": 63.97052,
            "velocity": 0.6299212598425197
          },
          {
            "duration": 0.09191166666667527,
            "durationTicks": 10,
            "midi": 73,
            "name": "C#5",
            "ticks": 6972,
            "time": 64.080814,
            "velocity": 0.6299212598425197
          },
          {
            "duration": 0.09191166666666106,
            "durationTicks": 10,
            "midi": 69,
            "name": "A4",
            "ticks": 7008,
            "time": 64.411696,
            "velocity": 0.6299212598425197
          },
          {
            "duration": 0.09191166666667527,
            "durationTicks": 10,
            "midi": 72,
            "name": "C5",
            "ticks": 7032,
            "time": 64.632284,
            "velocity": 0.6299212598425197
          },
          {
            "duration": 0.09191166666666106,
            "durationTicks": 10,
            "midi": 79,
            "name": "G5",
            "ticks": 7044,
            "time": 64.74257800000001,
            "velocity": 0.6299212598425197
          },
          {
            "duration": 0.09191166666667527,
            "durationTicks": 10,
            "midi": 76,
            "name": "E5",
            "ticks": 7080,
            "time": 65.07346,
            "velocity": 0.6299212598425197
          },
          {
            "duration": 0.09191166666667527,
            "durationTicks": 10,
            "midi": 69,
            "name": "A4",
            "ticks": 7104,
            "time": 65.294048,
            "velocity": 0.6299212598425197
          },
          {
            "duration": 0.09191166666667527,
            "durationTicks": 10,
            "midi": 72,
            "name": "C5",
            "ticks": 7128,
            "time": 65.514636,
            "velocity": 0.6299212598425197
          },
          {
            "duration": 0.09191166666667527,
            "durationTicks": 10,
            "midi": 79,
            "name": "G5",
            "ticks": 7152,
            "time": 65.735224,
            "velocity": 0.6299212598425197
          },
          {
            "duration": 0.09191166666667527,
            "durationTicks": 10,
            "midi": 76,
            "name": "E5",
            "ticks": 7164,
            "time": 65.845518,
            "velocity": 0.6299212598425197
          },
          {
            "duration": 0.09191166666666106,
            "durationTicks": 10,
            "midi": 66,
            "name": "F#4",
            "ticks": 7188,
            "time": 66.066106,
            "velocity": 0.6299212598425197
          },
          {
            "duration": 0.09191166666666106,
            "durationTicks": 10,
            "midi": 70,
            "name": "A#4",
            "ticks": 7224,
            "time": 66.39698800000001,
            "velocity": 0.6299212598425197
          },
          {
            "duration": 0.09191166666667527,
            "durationTicks": 10,
            "midi": 77,
            "name": "F5",
            "ticks": 7236,
            "time": 66.507282,
            "velocity": 0.6299212598425197
          },
          {
            "duration": 0.09191166666666106,
            "durationTicks": 10,
            "midi": 73,
            "name": "C#5",
            "ticks": 7272,
            "time": 66.838164,
            "velocity": 0.6299212598425197
          },
          {
            "duration": 0.09191166666667527,
            "durationTicks": 10,
            "midi": 66,
            "name": "F#4",
            "ticks": 7296,
            "time": 67.058752,
            "velocity": 0.6299212598425197
          },
          {
            "duration": 0.09191166666666106,
            "durationTicks": 10,
            "midi": 70,
            "name": "A#4",
            "ticks": 7320,
            "time": 67.27934,
            "velocity": 0.6299212598425197
          },
          {
            "duration": 0.09191166666667527,
            "durationTicks": 10,
            "midi": 77,
            "name": "F5",
            "ticks": 7344,
            "time": 67.499928,
            "velocity": 0.6299212598425197
          },
          {
            "duration": 0.09191166666666106,
            "durationTicks": 10,
            "midi": 73,
            "name": "C#5",
            "ticks": 7356,
            "time": 67.61022200000001,
            "velocity": 0.6299212598425197
          },
          {
            "duration": 0.09191166666667527,
            "durationTicks": 10,
            "midi": 69,
            "name": "A4",
            "ticks": 7392,
            "time": 67.941104,
            "velocity": 0.6299212598425197
          },
          {
            "duration": 0.09191166666667527,
            "durationTicks": 10,
            "midi": 72,
            "name": "C5",
            "ticks": 7416,
            "time": 68.161692,
            "velocity": 0.6299212598425197
          },
          {
            "duration": 0.09191166666667527,
            "durationTicks": 10,
            "midi": 79,
            "name": "G5",
            "ticks": 7428,
            "time": 68.271986,
            "velocity": 0.6299212598425197
          },
          {
            "duration": 0.09191166666667527,
            "durationTicks": 10,
            "midi": 76,
            "name": "E5",
            "ticks": 7464,
            "time": 68.602868,
            "velocity": 0.6299212598425197
          },
          {
            "duration": 0.09191166666666106,
            "durationTicks": 10,
            "midi": 69,
            "name": "A4",
            "ticks": 7488,
            "time": 68.82345600000001,
            "velocity": 0.6299212598425197
          },
          {
            "duration": 0.09191166666667527,
            "durationTicks": 10,
            "midi": 72,
            "name": "C5",
            "ticks": 7512,
            "time": 69.044044,
            "velocity": 0.6299212598425197
          },
          {
            "duration": 0.09191166666666106,
            "durationTicks": 10,
            "midi": 79,
            "name": "G5",
            "ticks": 7536,
            "time": 69.264632,
            "velocity": 0.6299212598425197
          },
          {
            "duration": 0.09191166666667527,
            "durationTicks": 10,
            "midi": 76,
            "name": "E5",
            "ticks": 7548,
            "time": 69.374926,
            "velocity": 0.6299212598425197
          },
          {
            "duration": 0.09191166666666106,
            "durationTicks": 10,
            "midi": 66,
            "name": "F#4",
            "ticks": 7572,
            "time": 69.59551400000001,
            "velocity": 0.6299212598425197
          },
          {
            "duration": 0.09191166666667527,
            "durationTicks": 10,
            "midi": 70,
            "name": "A#4",
            "ticks": 7608,
            "time": 69.926396,
            "velocity": 0.6299212598425197
          },
          {
            "duration": 0.09191166666666106,
            "durationTicks": 10,
            "midi": 77,
            "name": "F5",
            "ticks": 7620,
            "time": 70.03669000000001,
            "velocity": 0.6299212598425197
          },
          {
            "duration": 0.09191166666667527,
            "durationTicks": 10,
            "midi": 73,
            "name": "C#5",
            "ticks": 7656,
            "time": 70.367572,
            "velocity": 0.6299212598425197
          },
          {
            "duration": 0.09191166666667527,
            "durationTicks": 10,
            "midi": 66,
            "name": "F#4",
            "ticks": 7680,
            "time": 70.58816,
            "velocity": 0.6299212598425197
          },
          {
            "duration": 0.09191166666666106,
            "durationTicks": 10,
            "midi": 70,
            "name": "A#4",
            "ticks": 7704,
            "time": 70.80874800000001,
            "velocity": 0.6299212598425197
          },
          {
            "duration": 0.09191166666667527,
            "durationTicks": 10,
            "midi": 77,
            "name": "F5",
            "ticks": 7728,
            "time": 71.029336,
            "velocity": 0.6299212598425197
          },
          {
            "duration": 0.09191166666667527,
            "durationTicks": 10,
            "midi": 73,
            "name": "C#5",
            "ticks": 7740,
            "time": 71.13963,
            "velocity": 0.6299212598425197
          },
          {
            "duration": 0.09191166666667527,
            "durationTicks": 10,
            "midi": 69,
            "name": "A4",
            "ticks": 7776,
            "time": 71.470512,
            "velocity": 0.6299212598425197
          },
          {
            "duration": 0.09191166666666106,
            "durationTicks": 10,
            "midi": 72,
            "name": "C5",
            "ticks": 7800,
            "time": 71.6911,
            "velocity": 0.6299212598425197
          },
          {
            "duration": 0.09191166666667527,
            "durationTicks": 10,
            "midi": 79,
            "name": "G5",
            "ticks": 7812,
            "time": 71.801394,
            "velocity": 0.6299212598425197
          },
          {
            "duration": 0.09191166666667527,
            "durationTicks": 10,
            "midi": 76,
            "name": "E5",
            "ticks": 7848,
            "time": 72.132276,
            "velocity": 0.6299212598425197
          },
          {
            "duration": 0.09191166666667527,
            "durationTicks": 10,
            "midi": 69,
            "name": "A4",
            "ticks": 7872,
            "time": 72.352864,
            "velocity": 0.6299212598425197
          },
          {
            "duration": 0.09191166666667527,
            "durationTicks": 10,
            "midi": 72,
            "name": "C5",
            "ticks": 7896,
            "time": 72.573452,
            "velocity": 0.6299212598425197
          },
          {
            "duration": 0.09191166666667527,
            "durationTicks": 10,
            "midi": 79,
            "name": "G5",
            "ticks": 7920,
            "time": 72.79404,
            "velocity": 0.6299212598425197
          },
          {
            "duration": 0.09191166666666106,
            "durationTicks": 10,
            "midi": 76,
            "name": "E5",
            "ticks": 7932,
            "time": 72.904334,
            "velocity": 0.6299212598425197
          },
          {
            "duration": 0.09191166666667527,
            "durationTicks": 10,
            "midi": 66,
            "name": "F#4",
            "ticks": 7956,
            "time": 73.124922,
            "velocity": 0.6299212598425197
          },
          {
            "duration": 0.09191166666667527,
            "durationTicks": 10,
            "midi": 70,
            "name": "A#4",
            "ticks": 7992,
            "time": 73.455804,
            "velocity": 0.6299212598425197
          },
          {
            "duration": 0.09191166666667527,
            "durationTicks": 10,
            "midi": 77,
            "name": "F5",
            "ticks": 8004,
            "time": 73.566098,
            "velocity": 0.6299212598425197
          },
          {
            "duration": 0.09191166666667527,
            "durationTicks": 10,
            "midi": 73,
            "name": "C#5",
            "ticks": 8040,
            "time": 73.89698,
            "velocity": 0.6299212598425197
          },
          {
            "duration": 0.09191166666666106,
            "durationTicks": 10,
            "midi": 66,
            "name": "F#4",
            "ticks": 8064,
            "time": 74.117568,
            "velocity": 0.6299212598425197
          },
          {
            "duration": 0.09191166666667527,
            "durationTicks": 10,
            "midi": 70,
            "name": "A#4",
            "ticks": 8088,
            "time": 74.338156,
            "velocity": 0.6299212598425197
          },
          {
            "duration": 0.09191166666667527,
            "durationTicks": 10,
            "midi": 77,
            "name": "F5",
            "ticks": 8112,
            "time": 74.558744,
            "velocity": 0.6299212598425197
          },
          {
            "duration": 0.09191166666667527,
            "durationTicks": 10,
            "midi": 73,
            "name": "C#5",
            "ticks": 8124,
            "time": 74.669038,
            "velocity": 0.6299212598425197
          },
          {
            "duration": 0.09191166666667527,
            "durationTicks": 10,
            "midi": 69,
            "name": "A4",
            "ticks": 8160,
            "time": 74.99992,
            "velocity": 0.5905511811023622
          },
          {
            "duration": 0.09191166666667527,
            "durationTicks": 10,
            "midi": 64,
            "name": "E4",
            "ticks": 8160,
            "time": 74.99992,
            "velocity": 0.5905511811023622
          },
          {
            "duration": 0.09191166666667527,
            "durationTicks": 10,
            "midi": 62,
            "name": "D4",
            "ticks": 8160,
            "time": 74.99992,
            "velocity": 0.5905511811023622
          },
          {
            "duration": 0.09191166666667527,
            "durationTicks": 10,
            "midi": 60,
            "name": "C4",
            "ticks": 8160,
            "time": 74.99992,
            "velocity": 0.5905511811023622
          },
          {
            "duration": 0.09191166666667527,
            "durationTicks": 10,
            "midi": 57,
            "name": "A3",
            "ticks": 8184,
            "time": 75.220508,
            "velocity": 0.6692913385826772
          },
          {
            "duration": 0.2022056666666714,
            "durationTicks": 22,
            "midi": 69,
            "name": "A4",
            "ticks": 8196,
            "time": 75.330802,
            "velocity": 0.5905511811023622
          },
          {
            "duration": 0.2022056666666714,
            "durationTicks": 22,
            "midi": 64,
            "name": "E4",
            "ticks": 8196,
            "time": 75.330802,
            "velocity": 0.5905511811023622
          },
          {
            "duration": 0.2022056666666714,
            "durationTicks": 22,
            "midi": 62,
            "name": "D4",
            "ticks": 8196,
            "time": 75.330802,
            "velocity": 0.5905511811023622
          },
          {
            "duration": 0.2022056666666714,
            "durationTicks": 22,
            "midi": 60,
            "name": "C4",
            "ticks": 8196,
            "time": 75.330802,
            "velocity": 0.5905511811023622
          },
          {
            "duration": 0.09191166666667527,
            "durationTicks": 10,
            "midi": 57,
            "name": "A3",
            "ticks": 8220,
            "time": 75.55139,
            "velocity": 0.6692913385826772
          },
          {
            "duration": 0.09191166666666106,
            "durationTicks": 10,
            "midi": 60,
            "name": "C4",
            "ticks": 8232,
            "time": 75.66168400000001,
            "velocity": 0.6692913385826772
          },
          {
            "duration": 0.09191166666667527,
            "durationTicks": 10,
            "midi": 62,
            "name": "D4",
            "ticks": 8244,
            "time": 75.771978,
            "velocity": 0.6692913385826772
          },
          {
            "duration": 0.2022056666666714,
            "durationTicks": 22,
            "midi": 64,
            "name": "E4",
            "ticks": 8256,
            "time": 75.882272,
            "velocity": 0.6692913385826772
          },
          {
            "duration": 0.2022056666666714,
            "durationTicks": 22,
            "midi": 58,
            "name": "A#3",
            "ticks": 8256,
            "time": 75.882272,
            "velocity": 0.6692913385826772
          },
          {
            "duration": 0.09191166666666106,
            "durationTicks": 10,
            "midi": 70,
            "name": "A#4",
            "ticks": 8280,
            "time": 76.10286,
            "velocity": 0.5905511811023622
          },
          {
            "duration": 0.09191166666666106,
            "durationTicks": 10,
            "midi": 67,
            "name": "G4",
            "ticks": 8280,
            "time": 76.10286,
            "velocity": 0.5905511811023622
          },
          {
            "duration": 0.09191166666666106,
            "durationTicks": 10,
            "midi": 63,
            "name": "D#4",
            "ticks": 8280,
            "time": 76.10286,
            "velocity": 0.5905511811023622
          },
          {
            "duration": 0.09191166666666106,
            "durationTicks": 10,
            "midi": 60,
            "name": "C4",
            "ticks": 8280,
            "time": 76.10286,
            "velocity": 0.5905511811023622
          },
          {
            "duration": 0.09191166666667527,
            "durationTicks": 10,
            "midi": 58,
            "name": "A#3",
            "ticks": 8304,
            "time": 76.323448,
            "velocity": 0.6692913385826772
          },
          {
            "duration": 0.2022056666666714,
            "durationTicks": 22,
            "midi": 70,
            "name": "A#4",
            "ticks": 8316,
            "time": 76.433742,
            "velocity": 0.5905511811023622
          },
          {
            "duration": 0.2022056666666714,
            "durationTicks": 22,
            "midi": 67,
            "name": "G4",
            "ticks": 8316,
            "time": 76.433742,
            "velocity": 0.5905511811023622
          },
          {
            "duration": 0.2022056666666714,
            "durationTicks": 22,
            "midi": 63,
            "name": "D#4",
            "ticks": 8316,
            "time": 76.433742,
            "velocity": 0.5905511811023622
          },
          {
            "duration": 0.2022056666666714,
            "durationTicks": 22,
            "midi": 60,
            "name": "C4",
            "ticks": 8316,
            "time": 76.433742,
            "velocity": 0.5905511811023622
          },
          {
            "duration": 0.09191166666667527,
            "durationTicks": 10,
            "midi": 58,
            "name": "A#3",
            "ticks": 8340,
            "time": 76.65433,
            "velocity": 0.6692913385826772
          },
          {
            "duration": 0.09191166666667527,
            "durationTicks": 10,
            "midi": 69,
            "name": "A4",
            "ticks": 8352,
            "time": 76.764624,
            "velocity": 0.5905511811023622
          },
          {
            "duration": 0.09191166666667527,
            "durationTicks": 10,
            "midi": 64,
            "name": "E4",
            "ticks": 8352,
            "time": 76.764624,
            "velocity": 0.5905511811023622
          },
          {
            "duration": 0.09191166666667527,
            "durationTicks": 10,
            "midi": 62,
            "name": "D4",
            "ticks": 8352,
            "time": 76.764624,
            "velocity": 0.5905511811023622
          },
          {
            "duration": 0.09191166666667527,
            "durationTicks": 10,
            "midi": 60,
            "name": "C4",
            "ticks": 8352,
            "time": 76.764624,
            "velocity": 0.5905511811023622
          },
          {
            "duration": 0.09191166666667527,
            "durationTicks": 10,
            "midi": 57,
            "name": "A3",
            "ticks": 8376,
            "time": 76.985212,
            "velocity": 0.6692913385826772
          },
          {
            "duration": 0.2022056666666714,
            "durationTicks": 22,
            "midi": 69,
            "name": "A4",
            "ticks": 8388,
            "time": 77.095506,
            "velocity": 0.5905511811023622
          },
          {
            "duration": 0.2022056666666714,
            "durationTicks": 22,
            "midi": 64,
            "name": "E4",
            "ticks": 8388,
            "time": 77.095506,
            "velocity": 0.5905511811023622
          },
          {
            "duration": 0.2022056666666714,
            "durationTicks": 22,
            "midi": 62,
            "name": "D4",
            "ticks": 8388,
            "time": 77.095506,
            "velocity": 0.5905511811023622
          },
          {
            "duration": 0.2022056666666714,
            "durationTicks": 22,
            "midi": 60,
            "name": "C4",
            "ticks": 8388,
            "time": 77.095506,
            "velocity": 0.5905511811023622
          },
          {
            "duration": 0.09191166666666106,
            "durationTicks": 10,
            "midi": 57,
            "name": "A3",
            "ticks": 8412,
            "time": 77.316094,
            "velocity": 0.6692913385826772
          },
          {
            "duration": 0.09191166666667527,
            "durationTicks": 10,
            "midi": 60,
            "name": "C4",
            "ticks": 8424,
            "time": 77.426388,
            "velocity": 0.6692913385826772
          },
          {
            "duration": 0.09191166666667527,
            "durationTicks": 10,
            "midi": 62,
            "name": "D4",
            "ticks": 8436,
            "time": 77.536682,
            "velocity": 0.6692913385826772
          },
          {
            "duration": 0.2022056666666714,
            "durationTicks": 22,
            "midi": 64,
            "name": "E4",
            "ticks": 8448,
            "time": 77.646976,
            "velocity": 0.6692913385826772
          },
          {
            "duration": 0.2022056666666714,
            "durationTicks": 22,
            "midi": 48,
            "name": "C3",
            "ticks": 8448,
            "time": 77.646976,
            "velocity": 0.6692913385826772
          },
          {
            "duration": 0.09191166666667527,
            "durationTicks": 10,
            "midi": 74,
            "name": "D5",
            "ticks": 8472,
            "time": 77.867564,
            "velocity": 0.5905511811023622
          },
          {
            "duration": 0.09191166666667527,
            "durationTicks": 10,
            "midi": 67,
            "name": "G4",
            "ticks": 8472,
            "time": 77.867564,
            "velocity": 0.5905511811023622
          },
          {
            "duration": 0.09191166666667527,
            "durationTicks": 10,
            "midi": 63,
            "name": "D#4",
            "ticks": 8472,
            "time": 77.867564,
            "velocity": 0.5905511811023622
          },
          {
            "duration": 0.09191166666667527,
            "durationTicks": 10,
            "midi": 60,
            "name": "C4",
            "ticks": 8472,
            "time": 77.867564,
            "velocity": 0.5905511811023622
          },
          {
            "duration": 0.09191166666666106,
            "durationTicks": 10,
            "midi": 48,
            "name": "C3",
            "ticks": 8496,
            "time": 78.08815200000001,
            "velocity": 0.6692913385826772
          },
          {
            "duration": 0.2022056666666714,
            "durationTicks": 22,
            "midi": 74,
            "name": "D5",
            "ticks": 8508,
            "time": 78.198446,
            "velocity": 0.5905511811023622
          },
          {
            "duration": 0.2022056666666714,
            "durationTicks": 22,
            "midi": 67,
            "name": "G4",
            "ticks": 8508,
            "time": 78.198446,
            "velocity": 0.5905511811023622
          },
          {
            "duration": 0.2022056666666714,
            "durationTicks": 22,
            "midi": 63,
            "name": "D#4",
            "ticks": 8508,
            "time": 78.198446,
            "velocity": 0.5905511811023622
          },
          {
            "duration": 0.2022056666666714,
            "durationTicks": 22,
            "midi": 60,
            "name": "C4",
            "ticks": 8508,
            "time": 78.198446,
            "velocity": 0.5905511811023622
          },
          {
            "duration": 0.09191166666667527,
            "durationTicks": 10,
            "midi": 48,
            "name": "C3",
            "ticks": 8532,
            "time": 78.419034,
            "velocity": 0.6692913385826772
          },
          {
            "duration": 0.09191166666666106,
            "durationTicks": 10,
            "midi": 69,
            "name": "A4",
            "ticks": 8544,
            "time": 78.529328,
            "velocity": 0.5905511811023622
          },
          {
            "duration": 0.09191166666666106,
            "durationTicks": 10,
            "midi": 64,
            "name": "E4",
            "ticks": 8544,
            "time": 78.529328,
            "velocity": 0.5905511811023622
          },
          {
            "duration": 0.09191166666666106,
            "durationTicks": 10,
            "midi": 62,
            "name": "D4",
            "ticks": 8544,
            "time": 78.529328,
            "velocity": 0.5905511811023622
          },
          {
            "duration": 0.09191166666666106,
            "durationTicks": 10,
            "midi": 60,
            "name": "C4",
            "ticks": 8544,
            "time": 78.529328,
            "velocity": 0.5905511811023622
          },
          {
            "duration": 0.09191166666667527,
            "durationTicks": 10,
            "midi": 57,
            "name": "A3",
            "ticks": 8568,
            "time": 78.749916,
            "velocity": 0.6692913385826772
          },
          {
            "duration": 0.20220566666665718,
            "durationTicks": 22,
            "midi": 69,
            "name": "A4",
            "ticks": 8580,
            "time": 78.86021000000001,
            "velocity": 0.5905511811023622
          },
          {
            "duration": 0.20220566666665718,
            "durationTicks": 22,
            "midi": 64,
            "name": "E4",
            "ticks": 8580,
            "time": 78.86021000000001,
            "velocity": 0.5905511811023622
          },
          {
            "duration": 0.20220566666665718,
            "durationTicks": 22,
            "midi": 62,
            "name": "D4",
            "ticks": 8580,
            "time": 78.86021000000001,
            "velocity": 0.5905511811023622
          },
          {
            "duration": 0.20220566666665718,
            "durationTicks": 22,
            "midi": 60,
            "name": "C4",
            "ticks": 8580,
            "time": 78.86021000000001,
            "velocity": 0.5905511811023622
          },
          {
            "duration": 0.09191166666667527,
            "durationTicks": 10,
            "midi": 57,
            "name": "A3",
            "ticks": 8604,
            "time": 79.080798,
            "velocity": 0.6692913385826772
          },
          {
            "duration": 0.09191166666667527,
            "durationTicks": 10,
            "midi": 60,
            "name": "C4",
            "ticks": 8616,
            "time": 79.191092,
            "velocity": 0.6692913385826772
          },
          {
            "duration": 0.09191166666666106,
            "durationTicks": 10,
            "midi": 62,
            "name": "D4",
            "ticks": 8628,
            "time": 79.30138600000001,
            "velocity": 0.6692913385826772
          },
          {
            "duration": 0.2022056666666714,
            "durationTicks": 22,
            "midi": 64,
            "name": "E4",
            "ticks": 8640,
            "time": 79.41168,
            "velocity": 0.6692913385826772
          },
          {
            "duration": 0.2022056666666714,
            "durationTicks": 22,
            "midi": 58,
            "name": "A#3",
            "ticks": 8640,
            "time": 79.41168,
            "velocity": 0.6692913385826772
          },
          {
            "duration": 0.09191166666667527,
            "durationTicks": 10,
            "midi": 70,
            "name": "A#4",
            "ticks": 8664,
            "time": 79.632268,
            "velocity": 0.5905511811023622
          },
          {
            "duration": 0.09191166666667527,
            "durationTicks": 10,
            "midi": 67,
            "name": "G4",
            "ticks": 8664,
            "time": 79.632268,
            "velocity": 0.5905511811023622
          },
          {
            "duration": 0.09191166666667527,
            "durationTicks": 10,
            "midi": 63,
            "name": "D#4",
            "ticks": 8664,
            "time": 79.632268,
            "velocity": 0.5905511811023622
          },
          {
            "duration": 0.09191166666667527,
            "durationTicks": 10,
            "midi": 60,
            "name": "C4",
            "ticks": 8664,
            "time": 79.632268,
            "velocity": 0.5905511811023622
          },
          {
            "duration": 0.09191166666667527,
            "durationTicks": 10,
            "midi": 58,
            "name": "A#3",
            "ticks": 8688,
            "time": 79.852856,
            "velocity": 0.6692913385826772
          },
          {
            "duration": 0.2022056666666714,
            "durationTicks": 22,
            "midi": 70,
            "name": "A#4",
            "ticks": 8700,
            "time": 79.96315,
            "velocity": 0.5905511811023622
          },
          {
            "duration": 0.2022056666666714,
            "durationTicks": 22,
            "midi": 67,
            "name": "G4",
            "ticks": 8700,
            "time": 79.96315,
            "velocity": 0.5905511811023622
          },
          {
            "duration": 0.2022056666666714,
            "durationTicks": 22,
            "midi": 63,
            "name": "D#4",
            "ticks": 8700,
            "time": 79.96315,
            "velocity": 0.5905511811023622
          },
          {
            "duration": 0.2022056666666714,
            "durationTicks": 22,
            "midi": 60,
            "name": "C4",
            "ticks": 8700,
            "time": 79.96315,
            "velocity": 0.5905511811023622
          },
          {
            "duration": 0.09191166666666106,
            "durationTicks": 10,
            "midi": 58,
            "name": "A#3",
            "ticks": 8724,
            "time": 80.183738,
            "velocity": 0.6692913385826772
          },
          {
            "duration": 0.09191166666667527,
            "durationTicks": 10,
            "midi": 69,
            "name": "A4",
            "ticks": 8736,
            "time": 80.294032,
            "velocity": 0.5905511811023622
          },
          {
            "duration": 0.09191166666667527,
            "durationTicks": 10,
            "midi": 64,
            "name": "E4",
            "ticks": 8736,
            "time": 80.294032,
            "velocity": 0.5905511811023622
          },
          {
            "duration": 0.09191166666667527,
            "durationTicks": 10,
            "midi": 62,
            "name": "D4",
            "ticks": 8736,
            "time": 80.294032,
            "velocity": 0.5905511811023622
          },
          {
            "duration": 0.09191166666667527,
            "durationTicks": 10,
            "midi": 60,
            "name": "C4",
            "ticks": 8736,
            "time": 80.294032,
            "velocity": 0.5905511811023622
          },
          {
            "duration": 0.09191166666666106,
            "durationTicks": 10,
            "midi": 57,
            "name": "A3",
            "ticks": 8760,
            "time": 80.51462000000001,
            "velocity": 0.6692913385826772
          },
          {
            "duration": 0.2022056666666714,
            "durationTicks": 22,
            "midi": 69,
            "name": "A4",
            "ticks": 8772,
            "time": 80.624914,
            "velocity": 0.5905511811023622
          },
          {
            "duration": 0.2022056666666714,
            "durationTicks": 22,
            "midi": 64,
            "name": "E4",
            "ticks": 8772,
            "time": 80.624914,
            "velocity": 0.5905511811023622
          },
          {
            "duration": 0.2022056666666714,
            "durationTicks": 22,
            "midi": 62,
            "name": "D4",
            "ticks": 8772,
            "time": 80.624914,
            "velocity": 0.5905511811023622
          },
          {
            "duration": 0.2022056666666714,
            "durationTicks": 22,
            "midi": 60,
            "name": "C4",
            "ticks": 8772,
            "time": 80.624914,
            "velocity": 0.5905511811023622
          },
          {
            "duration": 0.09191166666667527,
            "durationTicks": 10,
            "midi": 57,
            "name": "A3",
            "ticks": 8796,
            "time": 80.845502,
            "velocity": 0.6692913385826772
          },
          {
            "duration": 0.09191166666666106,
            "durationTicks": 10,
            "midi": 60,
            "name": "C4",
            "ticks": 8808,
            "time": 80.955796,
            "velocity": 0.6692913385826772
          },
          {
            "duration": 0.09191166666667527,
            "durationTicks": 10,
            "midi": 62,
            "name": "D4",
            "ticks": 8820,
            "time": 81.06609,
            "velocity": 0.6692913385826772
          },
          {
            "duration": 0.2022056666666714,
            "durationTicks": 22,
            "midi": 64,
            "name": "E4",
            "ticks": 8832,
            "time": 81.176384,
            "velocity": 0.6692913385826772
          },
          {
            "duration": 0.2022056666666714,
            "durationTicks": 22,
            "midi": 48,
            "name": "C3",
            "ticks": 8832,
            "time": 81.176384,
            "velocity": 0.6692913385826772
          },
          {
            "duration": 0.09191166666666106,
            "durationTicks": 10,
            "midi": 74,
            "name": "D5",
            "ticks": 8856,
            "time": 81.396972,
            "velocity": 0.5905511811023622
          },
          {
            "duration": 0.09191166666666106,
            "durationTicks": 10,
            "midi": 67,
            "name": "G4",
            "ticks": 8856,
            "time": 81.396972,
            "velocity": 0.5905511811023622
          },
          {
            "duration": 0.09191166666666106,
            "durationTicks": 10,
            "midi": 63,
            "name": "D#4",
            "ticks": 8856,
            "time": 81.396972,
            "velocity": 0.5905511811023622
          },
          {
            "duration": 0.09191166666666106,
            "durationTicks": 10,
            "midi": 60,
            "name": "C4",
            "ticks": 8856,
            "time": 81.396972,
            "velocity": 0.5905511811023622
          },
          {
            "duration": 0.09191166666667527,
            "durationTicks": 10,
            "midi": 48,
            "name": "C3",
            "ticks": 8880,
            "time": 81.61756,
            "velocity": 0.6692913385826772
          },
          {
            "duration": 0.2022056666666714,
            "durationTicks": 22,
            "midi": 74,
            "name": "D5",
            "ticks": 8892,
            "time": 81.72785400000001,
            "velocity": 0.5905511811023622
          },
          {
            "duration": 0.2022056666666714,
            "durationTicks": 22,
            "midi": 67,
            "name": "G4",
            "ticks": 8892,
            "time": 81.72785400000001,
            "velocity": 0.5905511811023622
          },
          {
            "duration": 0.2022056666666714,
            "durationTicks": 22,
            "midi": 63,
            "name": "D#4",
            "ticks": 8892,
            "time": 81.72785400000001,
            "velocity": 0.5905511811023622
          },
          {
            "duration": 0.2022056666666714,
            "durationTicks": 22,
            "midi": 60,
            "name": "C4",
            "ticks": 8892,
            "time": 81.72785400000001,
            "velocity": 0.5905511811023622
          },
          {
            "duration": 0.09191166666667527,
            "durationTicks": 10,
            "midi": 48,
            "name": "C3",
            "ticks": 8916,
            "time": 81.948442,
            "velocity": 0.6692913385826772
          }
        ]
      },
      {
        "channel": 0,
        "controlChanges": {
          "0": [
            {
              "number": 0,
              "ticks": 202,
              "time": 1.8566156666666667,
              "value": 0
            }
          ],
          "32": [
            {
              "number": 32,
              "ticks": 203,
              "time": 1.8658068333333335,
              "value": 0.015748031496062992
            }
          ]
        },
        "pitchBends": [],
        "instrument": {
          "family": "piano",
          "number": 0,
          "name": "acoustic grand piano"
        },
        "name": "VZuX\u0000",
        "notes": [],
        "endOfTrackTicks": 8928
      },
      {
        "channel": 5,
        "controlChanges": {
          "1": [
            {
              "number": 1,
              "ticks": 214,
              "time": 1.9669096666666666,
              "value": 0
            }
          ],
          "5": [
            {
              "number": 5,
              "ticks": 218,
              "time": 2.0036743333333336,
              "value": 0
            }
          ],
          "6": [
            {
              "number": 6,
              "ticks": 210,
              "time": 1.930145,
              "value": 0.015748031496062992
            },
            {
              "number": 6,
              "ticks": 219,
              "time": 2.0128655,
              "value": 0.5039370078740157
            },
            {
              "number": 6,
              "ticks": 220,
              "time": 2.0220566666666664,
              "value": 0.5039370078740157
            },
            {
              "number": 6,
              "ticks": 221,
              "time": 2.0312478333333335,
              "value": 0.5039370078740157
            },
            {
              "number": 6,
              "ticks": 222,
              "time": 2.040439,
              "value": 0.5039370078740157
            },
            {
              "number": 6,
              "ticks": 223,
              "time": 2.0496301666666668,
              "value": 0.5039370078740157
            },
            {
              "number": 6,
              "ticks": 224,
              "time": 2.0588213333333334,
              "value": 0.5039370078740157
            },
            {
              "number": 6,
              "ticks": 225,
              "time": 2.0680125,
              "value": 0.5039370078740157
            },
            {
              "number": 6,
              "ticks": 226,
              "time": 2.0772036666666667,
              "value": 0.5039370078740157
            }
          ],
          "7": [
            {
              "number": 7,
              "ticks": 211,
              "time": 1.9393361666666666,
              "value": 0.8661417322834646
            },
            {
              "number": 7,
              "ticks": 8208,
              "time": 75.441096,
              "value": 0.8661417322834646
            },
            {
              "number": 7,
              "ticks": 8256,
              "time": 75.882272,
              "value": 0.8110236220472441
            },
            {
              "number": 7,
              "ticks": 8304,
              "time": 76.323448,
              "value": 0.7559055118110236
            },
            {
              "number": 7,
              "ticks": 8352,
              "time": 76.764624,
              "value": 0.7007874015748031
            },
            {
              "number": 7,
              "ticks": 8400,
              "time": 77.2058,
              "value": 0.6456692913385826
            },
            {
              "number": 7,
              "ticks": 8448,
              "time": 77.646976,
              "value": 0.5905511811023622
            },
            {
              "number": 7,
              "ticks": 8496,
              "time": 78.08815200000001,
              "value": 0.5354330708661418
            },
            {
              "number": 7,
              "ticks": 8544,
              "time": 78.529328,
              "value": 0.48031496062992124
            },
            {
              "number": 7,
              "ticks": 8592,
              "time": 78.970504,
              "value": 0.4330708661417323
            },
            {
              "number": 7,
              "ticks": 8640,
              "time": 79.41168,
              "value": 0.3779527559055118
            },
            {
              "number": 7,
              "ticks": 8688,
              "time": 79.852856,
              "value": 0.3228346456692913
            },
            {
              "number": 7,
              "ticks": 8736,
              "time": 80.294032,
              "value": 0.2677165354330709
            },
            {
              "number": 7,
              "ticks": 8784,
              "time": 80.735208,
              "value": 0.2125984251968504
            },
            {
              "number": 7,
              "ticks": 8832,
              "time": 81.176384,
              "value": 0.15748031496062992
            },
            {
              "number": 7,
              "ticks": 8880,
              "time": 81.61756,
              "value": 0.10236220472440945
            },
            {
              "number": 7,
              "ticks": 8928,
              "time": 82.058736,
              "value": 0.047244094488188976
            }
          ],
          "10": [
            {
              "number": 10,
              "ticks": 213,
              "time": 1.9577185000000001,
              "value": 0.5039370078740157
            }
          ],
          "11": [
            {
              "number": 11,
              "ticks": 212,
              "time": 1.9485273333333335,
              "value": 1
            }
          ],
          "64": [
            {
              "number": 64,
              "ticks": 216,
              "time": 1.985292,
              "value": 0
            }
          ],
          "65": [
            {
              "number": 65,
              "ticks": 217,
              "time": 1.9944831666666667,
              "value": 0
            }
          ],
          "91": [
            {
              "number": 91,
              "ticks": 205,
              "time": 1.8841891666666666,
              "value": 0.6299212598425197
            }
          ],
          "93": [
            {
              "number": 93,
              "ticks": 206,
              "time": 1.8933803333333334,
              "value": 0.6299212598425197
            }
          ],
          "94": [
            {
              "number": 94,
              "ticks": 207,
              "time": 1.9025715,
              "value": 0
            }
          ],
          "98": [
            {
              "number": 98,
              "ticks": 219,
              "time": 2.0128655,
              "value": 0.25196850393700787
            },
            {
              "number": 98,
              "ticks": 220,
              "time": 2.0220566666666664,
              "value": 0.25984251968503935
            },
            {
              "number": 98,
              "ticks": 221,
              "time": 2.0312478333333335,
              "value": 0.7795275590551181
            },
            {
              "number": 98,
              "ticks": 222,
              "time": 2.040439,
              "value": 0.7874015748031497
            },
            {
              "number": 98,
              "ticks": 223,
              "time": 2.0496301666666668,
              "value": 0.8031496062992126
            },
            {
              "number": 98,
              "ticks": 224,
              "time": 2.0588213333333334,
              "value": 0.06299212598425197
            },
            {
              "number": 98,
              "ticks": 225,
              "time": 2.0680125,
              "value": 0.07086614173228346
            },
            {
              "number": 98,
              "ticks": 226,
              "time": 2.0772036666666667,
              "value": 0.07874015748031496
            }
          ],
          "99": [
            {
              "number": 99,
              "ticks": 219,
              "time": 2.0128655,
              "value": 0.007874015748031496
            }
          ],
          "100": [
            {
              "number": 100,
              "ticks": 209,
              "time": 1.9209538333333336,
              "value": 0
            },
            {
              "number": 100,
              "ticks": 232,
              "time": 2.1323506666666665,
              "value": 1
            }
          ],
          "101": [
            {
              "number": 101,
              "ticks": 208,
              "time": 1.9117626666666665,
              "value": 0
            },
            {
              "number": 101,
              "ticks": 231,
              "time": 2.1231595,
              "value": 1
            }
          ]
        },
        "pitchBends": [
          {
            "ticks": 215,
            "time": 1.9761008333333334,
            "value": 0
          }
        ],
        "instrument": {
          "family": "synth lead",
          "number": 81,
          "name": "lead 2 (sawtooth)"
        },
        "name": "",
        "notes": [
          {
            "duration": 0.2573526666666668,
            "durationTicks": 28,
            "midi": 69,
            "name": "A4",
            "ticks": 480,
            "time": 4.41176,
            "velocity": 0.5118110236220472
          },
          {
            "duration": 0.2573526666666668,
            "durationTicks": 28,
            "midi": 65,
            "name": "F4",
            "ticks": 480,
            "time": 4.41176,
            "velocity": 0.5118110236220472
          },
          {
            "duration": 0.2573526666666668,
            "durationTicks": 28,
            "midi": 62,
            "name": "D4",
            "ticks": 480,
            "time": 4.41176,
            "velocity": 0.5118110236220472
          },
          {
            "duration": 0.2573526666666668,
            "durationTicks": 28,
            "midi": 60,
            "name": "C4",
            "ticks": 480,
            "time": 4.41176,
            "velocity": 0.5118110236220472
          },
          {
            "duration": 0.09191166666666728,
            "durationTicks": 10,
            "midi": 69,
            "name": "A4",
            "ticks": 516,
            "time": 4.742642,
            "velocity": 0.5118110236220472
          },
          {
            "duration": 0.09191166666666728,
            "durationTicks": 10,
            "midi": 65,
            "name": "F4",
            "ticks": 516,
            "time": 4.742642,
            "velocity": 0.5118110236220472
          },
          {
            "duration": 0.09191166666666728,
            "durationTicks": 10,
            "midi": 62,
            "name": "D4",
            "ticks": 516,
            "time": 4.742642,
            "velocity": 0.5118110236220472
          },
          {
            "duration": 0.09191166666666728,
            "durationTicks": 10,
            "midi": 60,
            "name": "C4",
            "ticks": 516,
            "time": 4.742642,
            "velocity": 0.5118110236220472
          },
          {
            "duration": 0.2573526666666668,
            "durationTicks": 28,
            "midi": 70,
            "name": "A#4",
            "ticks": 600,
            "time": 5.5147,
            "velocity": 0.5118110236220472
          },
          {
            "duration": 0.2573526666666668,
            "durationTicks": 28,
            "midi": 67,
            "name": "G4",
            "ticks": 600,
            "time": 5.5147,
            "velocity": 0.5118110236220472
          },
          {
            "duration": 0.2573526666666668,
            "durationTicks": 28,
            "midi": 63,
            "name": "D#4",
            "ticks": 600,
            "time": 5.5147,
            "velocity": 0.5118110236220472
          },
          {
            "duration": 0.2573526666666668,
            "durationTicks": 28,
            "midi": 60,
            "name": "C4",
            "ticks": 600,
            "time": 5.5147,
            "velocity": 0.5118110236220472
          },
          {
            "duration": 0.09191166666666639,
            "durationTicks": 10,
            "midi": 70,
            "name": "A#4",
            "ticks": 636,
            "time": 5.845582,
            "velocity": 0.5118110236220472
          },
          {
            "duration": 0.09191166666666639,
            "durationTicks": 10,
            "midi": 67,
            "name": "G4",
            "ticks": 636,
            "time": 5.845582,
            "velocity": 0.5118110236220472
          },
          {
            "duration": 0.09191166666666639,
            "durationTicks": 10,
            "midi": 63,
            "name": "D#4",
            "ticks": 636,
            "time": 5.845582,
            "velocity": 0.5118110236220472
          },
          {
            "duration": 0.09191166666666639,
            "durationTicks": 10,
            "midi": 60,
            "name": "C4",
            "ticks": 636,
            "time": 5.845582,
            "velocity": 0.5118110236220472
          },
          {
            "duration": 0.2573526666666668,
            "durationTicks": 28,
            "midi": 69,
            "name": "A4",
            "ticks": 672,
            "time": 6.176464,
            "velocity": 0.5118110236220472
          },
          {
            "duration": 0.2573526666666668,
            "durationTicks": 28,
            "midi": 65,
            "name": "F4",
            "ticks": 672,
            "time": 6.176464,
            "velocity": 0.5118110236220472
          },
          {
            "duration": 0.2573526666666668,
            "durationTicks": 28,
            "midi": 62,
            "name": "D4",
            "ticks": 672,
            "time": 6.176464,
            "velocity": 0.5118110236220472
          },
          {
            "duration": 0.2573526666666668,
            "durationTicks": 28,
            "midi": 60,
            "name": "C4",
            "ticks": 672,
            "time": 6.176464,
            "velocity": 0.5118110236220472
          },
          {
            "duration": 0.09191166666666728,
            "durationTicks": 10,
            "midi": 69,
            "name": "A4",
            "ticks": 708,
            "time": 6.507346,
            "velocity": 0.5118110236220472
          },
          {
            "duration": 0.09191166666666728,
            "durationTicks": 10,
            "midi": 65,
            "name": "F4",
            "ticks": 708,
            "time": 6.507346,
            "velocity": 0.5118110236220472
          },
          {
            "duration": 0.09191166666666728,
            "durationTicks": 10,
            "midi": 62,
            "name": "D4",
            "ticks": 708,
            "time": 6.507346,
            "velocity": 0.5118110236220472
          },
          {
            "duration": 0.09191166666666728,
            "durationTicks": 10,
            "midi": 60,
            "name": "C4",
            "ticks": 708,
            "time": 6.507346,
            "velocity": 0.5118110236220472
          },
          {
            "duration": 0.2573526666666659,
            "durationTicks": 28,
            "midi": 67,
            "name": "G4",
            "ticks": 792,
            "time": 7.279404,
            "velocity": 0.5118110236220472
          },
          {
            "duration": 0.2573526666666659,
            "durationTicks": 28,
            "midi": 63,
            "name": "D#4",
            "ticks": 792,
            "time": 7.279404,
            "velocity": 0.5118110236220472
          },
          {
            "duration": 0.2573526666666659,
            "durationTicks": 28,
            "midi": 60,
            "name": "C4",
            "ticks": 792,
            "time": 7.279404,
            "velocity": 0.5118110236220472
          },
          {
            "duration": 0.2573526666666659,
            "durationTicks": 28,
            "midi": 58,
            "name": "A#3",
            "ticks": 792,
            "time": 7.279404,
            "velocity": 0.5118110236220472
          },
          {
            "duration": 0.09191166666666639,
            "durationTicks": 10,
            "midi": 67,
            "name": "G4",
            "ticks": 828,
            "time": 7.610286,
            "velocity": 0.5118110236220472
          },
          {
            "duration": 0.09191166666666639,
            "durationTicks": 10,
            "midi": 63,
            "name": "D#4",
            "ticks": 828,
            "time": 7.610286,
            "velocity": 0.5118110236220472
          },
          {
            "duration": 0.09191166666666639,
            "durationTicks": 10,
            "midi": 60,
            "name": "C4",
            "ticks": 828,
            "time": 7.610286,
            "velocity": 0.5118110236220472
          },
          {
            "duration": 0.09191166666666639,
            "durationTicks": 10,
            "midi": 58,
            "name": "A#3",
            "ticks": 828,
            "time": 7.610286,
            "velocity": 0.5118110236220472
          },
          {
            "duration": 0.2573526666666668,
            "durationTicks": 28,
            "midi": 69,
            "name": "A4",
            "ticks": 864,
            "time": 7.941168,
            "velocity": 0.5118110236220472
          },
          {
            "duration": 0.2573526666666668,
            "durationTicks": 28,
            "midi": 65,
            "name": "F4",
            "ticks": 864,
            "time": 7.941168,
            "velocity": 0.5118110236220472
          },
          {
            "duration": 0.2573526666666668,
            "durationTicks": 28,
            "midi": 62,
            "name": "D4",
            "ticks": 864,
            "time": 7.941168,
            "velocity": 0.5118110236220472
          },
          {
            "duration": 0.2573526666666668,
            "durationTicks": 28,
            "midi": 60,
            "name": "C4",
            "ticks": 864,
            "time": 7.941168,
            "velocity": 0.5118110236220472
          },
          {
            "duration": 0.09191166666666639,
            "durationTicks": 10,
            "midi": 69,
            "name": "A4",
            "ticks": 900,
            "time": 8.27205,
            "velocity": 0.5118110236220472
          },
          {
            "duration": 0.09191166666666639,
            "durationTicks": 10,
            "midi": 65,
            "name": "F4",
            "ticks": 900,
            "time": 8.27205,
            "velocity": 0.5118110236220472
          },
          {
            "duration": 0.09191166666666639,
            "durationTicks": 10,
            "midi": 62,
            "name": "D4",
            "ticks": 900,
            "time": 8.27205,
            "velocity": 0.5118110236220472
          },
          {
            "duration": 0.09191166666666639,
            "durationTicks": 10,
            "midi": 60,
            "name": "C4",
            "ticks": 900,
            "time": 8.27205,
            "velocity": 0.5118110236220472
          },
          {
            "duration": 0.2573526666666677,
            "durationTicks": 28,
            "midi": 70,
            "name": "A#4",
            "ticks": 984,
            "time": 9.044108,
            "velocity": 0.5118110236220472
          },
          {
            "duration": 0.2573526666666677,
            "durationTicks": 28,
            "midi": 67,
            "name": "G4",
            "ticks": 984,
            "time": 9.044108,
            "velocity": 0.5118110236220472
          },
          {
            "duration": 0.2573526666666677,
            "durationTicks": 28,
            "midi": 63,
            "name": "D#4",
            "ticks": 984,
            "time": 9.044108,
            "velocity": 0.5118110236220472
          },
          {
            "duration": 0.2573526666666677,
            "durationTicks": 28,
            "midi": 60,
            "name": "C4",
            "ticks": 984,
            "time": 9.044108,
            "velocity": 0.5118110236220472
          },
          {
            "duration": 0.09191166666666639,
            "durationTicks": 10,
            "midi": 70,
            "name": "A#4",
            "ticks": 1020,
            "time": 9.37499,
            "velocity": 0.5118110236220472
          },
          {
            "duration": 0.09191166666666639,
            "durationTicks": 10,
            "midi": 67,
            "name": "G4",
            "ticks": 1020,
            "time": 9.37499,
            "velocity": 0.5118110236220472
          },
          {
            "duration": 0.09191166666666639,
            "durationTicks": 10,
            "midi": 63,
            "name": "D#4",
            "ticks": 1020,
            "time": 9.37499,
            "velocity": 0.5118110236220472
          },
          {
            "duration": 0.09191166666666639,
            "durationTicks": 10,
            "midi": 60,
            "name": "C4",
            "ticks": 1020,
            "time": 9.37499,
            "velocity": 0.5118110236220472
          },
          {
            "duration": 0.2573526666666677,
            "durationTicks": 28,
            "midi": 69,
            "name": "A4",
            "ticks": 1056,
            "time": 9.705872,
            "velocity": 0.5118110236220472
          },
          {
            "duration": 0.2573526666666677,
            "durationTicks": 28,
            "midi": 65,
            "name": "F4",
            "ticks": 1056,
            "time": 9.705872,
            "velocity": 0.5118110236220472
          },
          {
            "duration": 0.2573526666666677,
            "durationTicks": 28,
            "midi": 62,
            "name": "D4",
            "ticks": 1056,
            "time": 9.705872,
            "velocity": 0.5118110236220472
          },
          {
            "duration": 0.2573526666666677,
            "durationTicks": 28,
            "midi": 60,
            "name": "C4",
            "ticks": 1056,
            "time": 9.705872,
            "velocity": 0.5118110236220472
          },
          {
            "duration": 0.09191166666666639,
            "durationTicks": 10,
            "midi": 69,
            "name": "A4",
            "ticks": 1092,
            "time": 10.036754,
            "velocity": 0.5118110236220472
          },
          {
            "duration": 0.09191166666666639,
            "durationTicks": 10,
            "midi": 65,
            "name": "F4",
            "ticks": 1092,
            "time": 10.036754,
            "velocity": 0.5118110236220472
          },
          {
            "duration": 0.09191166666666639,
            "durationTicks": 10,
            "midi": 62,
            "name": "D4",
            "ticks": 1092,
            "time": 10.036754,
            "velocity": 0.5118110236220472
          },
          {
            "duration": 0.09191166666666639,
            "durationTicks": 10,
            "midi": 60,
            "name": "C4",
            "ticks": 1092,
            "time": 10.036754,
            "velocity": 0.5118110236220472
          },
          {
            "duration": 0.11029400000000145,
            "durationTicks": 12,
            "midi": 70,
            "name": "A#4",
            "ticks": 1176,
            "time": 10.808812,
            "velocity": 0.5118110236220472
          },
          {
            "duration": 0.11029400000000145,
            "durationTicks": 12,
            "midi": 67,
            "name": "G4",
            "ticks": 1176,
            "time": 10.808812,
            "velocity": 0.5118110236220472
          },
          {
            "duration": 0.11029400000000145,
            "durationTicks": 12,
            "midi": 63,
            "name": "D#4",
            "ticks": 1176,
            "time": 10.808812,
            "velocity": 0.5118110236220472
          },
          {
            "duration": 0.11029400000000145,
            "durationTicks": 12,
            "midi": 62,
            "name": "D4",
            "ticks": 1176,
            "time": 10.808812,
            "velocity": 0.5118110236220472
          },
          {
            "duration": 0.31249966666666573,
            "durationTicks": 34,
            "midi": 70,
            "name": "A#4",
            "ticks": 1212,
            "time": 11.139694,
            "velocity": 0.5118110236220472
          },
          {
            "duration": 0.31249966666666573,
            "durationTicks": 34,
            "midi": 67,
            "name": "G4",
            "ticks": 1212,
            "time": 11.139694,
            "velocity": 0.5118110236220472
          },
          {
            "duration": 0.31249966666666573,
            "durationTicks": 34,
            "midi": 63,
            "name": "D#4",
            "ticks": 1212,
            "time": 11.139694,
            "velocity": 0.5118110236220472
          },
          {
            "duration": 0.31249966666666573,
            "durationTicks": 34,
            "midi": 60,
            "name": "C4",
            "ticks": 1212,
            "time": 11.139694,
            "velocity": 0.5118110236220472
          },
          {
            "duration": 0.2573526666666659,
            "durationTicks": 28,
            "midi": 69,
            "name": "A4",
            "ticks": 1248,
            "time": 11.470576000000001,
            "velocity": 0.5118110236220472
          },
          {
            "duration": 0.2573526666666659,
            "durationTicks": 28,
            "midi": 65,
            "name": "F4",
            "ticks": 1248,
            "time": 11.470576000000001,
            "velocity": 0.5118110236220472
          },
          {
            "duration": 0.2573526666666659,
            "durationTicks": 28,
            "midi": 62,
            "name": "D4",
            "ticks": 1248,
            "time": 11.470576000000001,
            "velocity": 0.5118110236220472
          },
          {
            "duration": 0.2573526666666659,
            "durationTicks": 28,
            "midi": 60,
            "name": "C4",
            "ticks": 1248,
            "time": 11.470576000000001,
            "velocity": 0.5118110236220472
          },
          {
            "duration": 0.09191166666666639,
            "durationTicks": 10,
            "midi": 69,
            "name": "A4",
            "ticks": 1284,
            "time": 11.801458,
            "velocity": 0.5118110236220472
          },
          {
            "duration": 0.09191166666666639,
            "durationTicks": 10,
            "midi": 65,
            "name": "F4",
            "ticks": 1284,
            "time": 11.801458,
            "velocity": 0.5118110236220472
          },
          {
            "duration": 0.09191166666666639,
            "durationTicks": 10,
            "midi": 62,
            "name": "D4",
            "ticks": 1284,
            "time": 11.801458,
            "velocity": 0.5118110236220472
          },
          {
            "duration": 0.09191166666666639,
            "durationTicks": 10,
            "midi": 60,
            "name": "C4",
            "ticks": 1284,
            "time": 11.801458,
            "velocity": 0.5118110236220472
          },
          {
            "duration": 0.2573526666666677,
            "durationTicks": 28,
            "midi": 70,
            "name": "A#4",
            "ticks": 1368,
            "time": 12.573516,
            "velocity": 0.5118110236220472
          },
          {
            "duration": 0.2573526666666677,
            "durationTicks": 28,
            "midi": 67,
            "name": "G4",
            "ticks": 1368,
            "time": 12.573516,
            "velocity": 0.5118110236220472
          },
          {
            "duration": 0.2573526666666677,
            "durationTicks": 28,
            "midi": 63,
            "name": "D#4",
            "ticks": 1368,
            "time": 12.573516,
            "velocity": 0.5118110236220472
          },
          {
            "duration": 0.2573526666666677,
            "durationTicks": 28,
            "midi": 60,
            "name": "C4",
            "ticks": 1368,
            "time": 12.573516,
            "velocity": 0.5118110236220472
          },
          {
            "duration": 0.09191166666666639,
            "durationTicks": 10,
            "midi": 70,
            "name": "A#4",
            "ticks": 1404,
            "time": 12.904398,
            "velocity": 0.5118110236220472
          },
          {
            "duration": 0.09191166666666639,
            "durationTicks": 10,
            "midi": 67,
            "name": "G4",
            "ticks": 1404,
            "time": 12.904398,
            "velocity": 0.5118110236220472
          },
          {
            "duration": 0.09191166666666639,
            "durationTicks": 10,
            "midi": 63,
            "name": "D#4",
            "ticks": 1404,
            "time": 12.904398,
            "velocity": 0.5118110236220472
          },
          {
            "duration": 0.09191166666666639,
            "durationTicks": 10,
            "midi": 60,
            "name": "C4",
            "ticks": 1404,
            "time": 12.904398,
            "velocity": 0.5118110236220472
          },
          {
            "duration": 0.2573526666666677,
            "durationTicks": 28,
            "midi": 69,
            "name": "A4",
            "ticks": 1440,
            "time": 13.23528,
            "velocity": 0.5118110236220472
          },
          {
            "duration": 0.2573526666666677,
            "durationTicks": 28,
            "midi": 65,
            "name": "F4",
            "ticks": 1440,
            "time": 13.23528,
            "velocity": 0.5118110236220472
          },
          {
            "duration": 0.2573526666666677,
            "durationTicks": 28,
            "midi": 62,
            "name": "D4",
            "ticks": 1440,
            "time": 13.23528,
            "velocity": 0.5118110236220472
          },
          {
            "duration": 0.2573526666666677,
            "durationTicks": 28,
            "midi": 60,
            "name": "C4",
            "ticks": 1440,
            "time": 13.23528,
            "velocity": 0.5118110236220472
          },
          {
            "duration": 0.09191166666666639,
            "durationTicks": 10,
            "midi": 69,
            "name": "A4",
            "ticks": 1476,
            "time": 13.566162,
            "velocity": 0.5118110236220472
          },
          {
            "duration": 0.09191166666666639,
            "durationTicks": 10,
            "midi": 65,
            "name": "F4",
            "ticks": 1476,
            "time": 13.566162,
            "velocity": 0.5118110236220472
          },
          {
            "duration": 0.09191166666666639,
            "durationTicks": 10,
            "midi": 62,
            "name": "D4",
            "ticks": 1476,
            "time": 13.566162,
            "velocity": 0.5118110236220472
          },
          {
            "duration": 0.09191166666666639,
            "durationTicks": 10,
            "midi": 60,
            "name": "C4",
            "ticks": 1476,
            "time": 13.566162,
            "velocity": 0.5118110236220472
          },
          {
            "duration": 0.2573526666666677,
            "durationTicks": 28,
            "midi": 67,
            "name": "G4",
            "ticks": 1560,
            "time": 14.33822,
            "velocity": 0.5118110236220472
          },
          {
            "duration": 0.2573526666666677,
            "durationTicks": 28,
            "midi": 63,
            "name": "D#4",
            "ticks": 1560,
            "time": 14.33822,
            "velocity": 0.5118110236220472
          },
          {
            "duration": 0.2573526666666677,
            "durationTicks": 28,
            "midi": 60,
            "name": "C4",
            "ticks": 1560,
            "time": 14.33822,
            "velocity": 0.5118110236220472
          },
          {
            "duration": 0.2573526666666677,
            "durationTicks": 28,
            "midi": 58,
            "name": "A#3",
            "ticks": 1560,
            "time": 14.33822,
            "velocity": 0.5118110236220472
          },
          {
            "duration": 0.09191166666666817,
            "durationTicks": 10,
            "midi": 67,
            "name": "G4",
            "ticks": 1596,
            "time": 14.669102,
            "velocity": 0.5118110236220472
          },
          {
            "duration": 0.09191166666666817,
            "durationTicks": 10,
            "midi": 63,
            "name": "D#4",
            "ticks": 1596,
            "time": 14.669102,
            "velocity": 0.5118110236220472
          },
          {
            "duration": 0.09191166666666817,
            "durationTicks": 10,
            "midi": 60,
            "name": "C4",
            "ticks": 1596,
            "time": 14.669102,
            "velocity": 0.5118110236220472
          },
          {
            "duration": 0.09191166666666817,
            "durationTicks": 10,
            "midi": 58,
            "name": "A#3",
            "ticks": 1596,
            "time": 14.669102,
            "velocity": 0.5118110236220472
          },
          {
            "duration": 0.2573526666666677,
            "durationTicks": 28,
            "midi": 69,
            "name": "A4",
            "ticks": 1632,
            "time": 14.999984000000001,
            "velocity": 0.5118110236220472
          },
          {
            "duration": 0.2573526666666677,
            "durationTicks": 28,
            "midi": 65,
            "name": "F4",
            "ticks": 1632,
            "time": 14.999984000000001,
            "velocity": 0.5118110236220472
          },
          {
            "duration": 0.2573526666666677,
            "durationTicks": 28,
            "midi": 62,
            "name": "D4",
            "ticks": 1632,
            "time": 14.999984000000001,
            "velocity": 0.5118110236220472
          },
          {
            "duration": 0.2573526666666677,
            "durationTicks": 28,
            "midi": 60,
            "name": "C4",
            "ticks": 1632,
            "time": 14.999984000000001,
            "velocity": 0.5118110236220472
          },
          {
            "duration": 0.09191166666666817,
            "durationTicks": 10,
            "midi": 69,
            "name": "A4",
            "ticks": 1668,
            "time": 15.330866,
            "velocity": 0.5118110236220472
          },
          {
            "duration": 0.09191166666666817,
            "durationTicks": 10,
            "midi": 65,
            "name": "F4",
            "ticks": 1668,
            "time": 15.330866,
            "velocity": 0.5118110236220472
          },
          {
            "duration": 0.09191166666666817,
            "durationTicks": 10,
            "midi": 62,
            "name": "D4",
            "ticks": 1668,
            "time": 15.330866,
            "velocity": 0.5118110236220472
          },
          {
            "duration": 0.09191166666666817,
            "durationTicks": 10,
            "midi": 60,
            "name": "C4",
            "ticks": 1668,
            "time": 15.330866,
            "velocity": 0.5118110236220472
          },
          {
            "duration": 0.2573526666666659,
            "durationTicks": 28,
            "midi": 70,
            "name": "A#4",
            "ticks": 1752,
            "time": 16.102924,
            "velocity": 0.5118110236220472
          },
          {
            "duration": 0.2573526666666659,
            "durationTicks": 28,
            "midi": 67,
            "name": "G4",
            "ticks": 1752,
            "time": 16.102924,
            "velocity": 0.5118110236220472
          },
          {
            "duration": 0.2573526666666659,
            "durationTicks": 28,
            "midi": 63,
            "name": "D#4",
            "ticks": 1752,
            "time": 16.102924,
            "velocity": 0.5118110236220472
          },
          {
            "duration": 0.2573526666666659,
            "durationTicks": 28,
            "midi": 60,
            "name": "C4",
            "ticks": 1752,
            "time": 16.102924,
            "velocity": 0.5118110236220472
          },
          {
            "duration": 0.09191166666666817,
            "durationTicks": 10,
            "midi": 70,
            "name": "A#4",
            "ticks": 1788,
            "time": 16.433806,
            "velocity": 0.5118110236220472
          },
          {
            "duration": 0.09191166666666817,
            "durationTicks": 10,
            "midi": 67,
            "name": "G4",
            "ticks": 1788,
            "time": 16.433806,
            "velocity": 0.5118110236220472
          },
          {
            "duration": 0.09191166666666817,
            "durationTicks": 10,
            "midi": 63,
            "name": "D#4",
            "ticks": 1788,
            "time": 16.433806,
            "velocity": 0.5118110236220472
          },
          {
            "duration": 0.09191166666666817,
            "durationTicks": 10,
            "midi": 60,
            "name": "C4",
            "ticks": 1788,
            "time": 16.433806,
            "velocity": 0.5118110236220472
          },
          {
            "duration": 0.25735266666666945,
            "durationTicks": 28,
            "midi": 69,
            "name": "A4",
            "ticks": 1824,
            "time": 16.764688,
            "velocity": 0.5118110236220472
          },
          {
            "duration": 0.25735266666666945,
            "durationTicks": 28,
            "midi": 65,
            "name": "F4",
            "ticks": 1824,
            "time": 16.764688,
            "velocity": 0.5118110236220472
          },
          {
            "duration": 0.25735266666666945,
            "durationTicks": 28,
            "midi": 62,
            "name": "D4",
            "ticks": 1824,
            "time": 16.764688,
            "velocity": 0.5118110236220472
          },
          {
            "duration": 0.25735266666666945,
            "durationTicks": 28,
            "midi": 60,
            "name": "C4",
            "ticks": 1824,
            "time": 16.764688,
            "velocity": 0.5118110236220472
          },
          {
            "duration": 0.09191166666666462,
            "durationTicks": 10,
            "midi": 69,
            "name": "A4",
            "ticks": 1860,
            "time": 17.095570000000002,
            "velocity": 0.5118110236220472
          },
          {
            "duration": 0.09191166666666462,
            "durationTicks": 10,
            "midi": 65,
            "name": "F4",
            "ticks": 1860,
            "time": 17.095570000000002,
            "velocity": 0.5118110236220472
          },
          {
            "duration": 0.09191166666666462,
            "durationTicks": 10,
            "midi": 62,
            "name": "D4",
            "ticks": 1860,
            "time": 17.095570000000002,
            "velocity": 0.5118110236220472
          },
          {
            "duration": 0.09191166666666462,
            "durationTicks": 10,
            "midi": 60,
            "name": "C4",
            "ticks": 1860,
            "time": 17.095570000000002,
            "velocity": 0.5118110236220472
          },
          {
            "duration": 0.11029399999999967,
            "durationTicks": 12,
            "midi": 70,
            "name": "A#4",
            "ticks": 1944,
            "time": 17.867628,
            "velocity": 0.5118110236220472
          },
          {
            "duration": 0.11029399999999967,
            "durationTicks": 12,
            "midi": 67,
            "name": "G4",
            "ticks": 1944,
            "time": 17.867628,
            "velocity": 0.5118110236220472
          },
          {
            "duration": 0.11029399999999967,
            "durationTicks": 12,
            "midi": 63,
            "name": "D#4",
            "ticks": 1944,
            "time": 17.867628,
            "velocity": 0.5118110236220472
          },
          {
            "duration": 0.11029399999999967,
            "durationTicks": 12,
            "midi": 62,
            "name": "D4",
            "ticks": 1944,
            "time": 17.867628,
            "velocity": 0.5118110236220472
          },
          {
            "duration": 0.31249966666667106,
            "durationTicks": 34,
            "midi": 70,
            "name": "A#4",
            "ticks": 1980,
            "time": 18.19851,
            "velocity": 0.5118110236220472
          },
          {
            "duration": 0.31249966666667106,
            "durationTicks": 34,
            "midi": 67,
            "name": "G4",
            "ticks": 1980,
            "time": 18.19851,
            "velocity": 0.5118110236220472
          },
          {
            "duration": 0.31249966666667106,
            "durationTicks": 34,
            "midi": 63,
            "name": "D#4",
            "ticks": 1980,
            "time": 18.19851,
            "velocity": 0.5118110236220472
          },
          {
            "duration": 0.31249966666667106,
            "durationTicks": 34,
            "midi": 60,
            "name": "C4",
            "ticks": 1980,
            "time": 18.19851,
            "velocity": 0.5118110236220472
          },
          {
            "duration": 0.2573526666666659,
            "durationTicks": 28,
            "midi": 81,
            "name": "A5",
            "ticks": 2784,
            "time": 25.588208,
            "velocity": 0.5433070866141733
          },
          {
            "duration": 0.2573526666666659,
            "durationTicks": 28,
            "midi": 77,
            "name": "F5",
            "ticks": 2784,
            "time": 25.588208,
            "velocity": 0.5433070866141733
          },
          {
            "duration": 0.2573526666666659,
            "durationTicks": 28,
            "midi": 74,
            "name": "D5",
            "ticks": 2784,
            "time": 25.588208,
            "velocity": 0.5433070866141733
          },
          {
            "duration": 0.2573526666666659,
            "durationTicks": 28,
            "midi": 72,
            "name": "C5",
            "ticks": 2784,
            "time": 25.588208,
            "velocity": 0.5433070866141733
          },
          {
            "duration": 0.09191166666666817,
            "durationTicks": 10,
            "midi": 81,
            "name": "A5",
            "ticks": 2820,
            "time": 25.91909,
            "velocity": 0.5433070866141733
          },
          {
            "duration": 0.09191166666666817,
            "durationTicks": 10,
            "midi": 77,
            "name": "F5",
            "ticks": 2820,
            "time": 25.91909,
            "velocity": 0.5433070866141733
          },
          {
            "duration": 0.09191166666666817,
            "durationTicks": 10,
            "midi": 74,
            "name": "D5",
            "ticks": 2820,
            "time": 25.91909,
            "velocity": 0.5433070866141733
          },
          {
            "duration": 0.09191166666666817,
            "durationTicks": 10,
            "midi": 72,
            "name": "C5",
            "ticks": 2820,
            "time": 25.91909,
            "velocity": 0.5433070866141733
          },
          {
            "duration": 0.2573526666666659,
            "durationTicks": 28,
            "midi": 82,
            "name": "A#5",
            "ticks": 2904,
            "time": 26.691148000000002,
            "velocity": 0.5433070866141733
          },
          {
            "duration": 0.2573526666666659,
            "durationTicks": 28,
            "midi": 79,
            "name": "G5",
            "ticks": 2904,
            "time": 26.691148000000002,
            "velocity": 0.5433070866141733
          },
          {
            "duration": 0.2573526666666659,
            "durationTicks": 28,
            "midi": 75,
            "name": "D#5",
            "ticks": 2904,
            "time": 26.691148000000002,
            "velocity": 0.5433070866141733
          },
          {
            "duration": 0.2573526666666659,
            "durationTicks": 28,
            "midi": 72,
            "name": "C5",
            "ticks": 2904,
            "time": 26.691148000000002,
            "velocity": 0.5433070866141733
          },
          {
            "duration": 0.09191166666666817,
            "durationTicks": 10,
            "midi": 82,
            "name": "A#5",
            "ticks": 2940,
            "time": 27.02203,
            "velocity": 0.5433070866141733
          },
          {
            "duration": 0.09191166666666817,
            "durationTicks": 10,
            "midi": 79,
            "name": "G5",
            "ticks": 2940,
            "time": 27.02203,
            "velocity": 0.5433070866141733
          },
          {
            "duration": 0.09191166666666817,
            "durationTicks": 10,
            "midi": 75,
            "name": "D#5",
            "ticks": 2940,
            "time": 27.02203,
            "velocity": 0.5433070866141733
          },
          {
            "duration": 0.09191166666666817,
            "durationTicks": 10,
            "midi": 72,
            "name": "C5",
            "ticks": 2940,
            "time": 27.02203,
            "velocity": 0.5433070866141733
          },
          {
            "duration": 0.25735266666666945,
            "durationTicks": 28,
            "midi": 81,
            "name": "A5",
            "ticks": 2976,
            "time": 27.352912,
            "velocity": 0.5433070866141733
          },
          {
            "duration": 0.25735266666666945,
            "durationTicks": 28,
            "midi": 77,
            "name": "F5",
            "ticks": 2976,
            "time": 27.352912,
            "velocity": 0.5433070866141733
          },
          {
            "duration": 0.25735266666666945,
            "durationTicks": 28,
            "midi": 74,
            "name": "D5",
            "ticks": 2976,
            "time": 27.352912,
            "velocity": 0.5433070866141733
          },
          {
            "duration": 0.25735266666666945,
            "durationTicks": 28,
            "midi": 72,
            "name": "C5",
            "ticks": 2976,
            "time": 27.352912,
            "velocity": 0.5433070866141733
          },
          {
            "duration": 0.09191166666666462,
            "durationTicks": 10,
            "midi": 81,
            "name": "A5",
            "ticks": 3012,
            "time": 27.683794000000002,
            "velocity": 0.5433070866141733
          },
          {
            "duration": 0.09191166666666462,
            "durationTicks": 10,
            "midi": 77,
            "name": "F5",
            "ticks": 3012,
            "time": 27.683794000000002,
            "velocity": 0.5433070866141733
          },
          {
            "duration": 0.09191166666666462,
            "durationTicks": 10,
            "midi": 74,
            "name": "D5",
            "ticks": 3012,
            "time": 27.683794000000002,
            "velocity": 0.5433070866141733
          },
          {
            "duration": 0.09191166666666462,
            "durationTicks": 10,
            "midi": 72,
            "name": "C5",
            "ticks": 3012,
            "time": 27.683794000000002,
            "velocity": 0.5433070866141733
          },
          {
            "duration": 0.2573526666666659,
            "durationTicks": 28,
            "midi": 79,
            "name": "G5",
            "ticks": 3096,
            "time": 28.455852,
            "velocity": 0.5433070866141733
          },
          {
            "duration": 0.2573526666666659,
            "durationTicks": 28,
            "midi": 75,
            "name": "D#5",
            "ticks": 3096,
            "time": 28.455852,
            "velocity": 0.5433070866141733
          },
          {
            "duration": 0.2573526666666659,
            "durationTicks": 28,
            "midi": 72,
            "name": "C5",
            "ticks": 3096,
            "time": 28.455852,
            "velocity": 0.5433070866141733
          },
          {
            "duration": 0.2573526666666659,
            "durationTicks": 28,
            "midi": 70,
            "name": "A#4",
            "ticks": 3096,
            "time": 28.455852,
            "velocity": 0.5433070866141733
          },
          {
            "duration": 0.09191166666666462,
            "durationTicks": 10,
            "midi": 79,
            "name": "G5",
            "ticks": 3132,
            "time": 28.786734,
            "velocity": 0.5433070866141733
          },
          {
            "duration": 0.09191166666666462,
            "durationTicks": 10,
            "midi": 75,
            "name": "D#5",
            "ticks": 3132,
            "time": 28.786734,
            "velocity": 0.5433070866141733
          },
          {
            "duration": 0.09191166666666462,
            "durationTicks": 10,
            "midi": 72,
            "name": "C5",
            "ticks": 3132,
            "time": 28.786734,
            "velocity": 0.5433070866141733
          },
          {
            "duration": 0.09191166666666462,
            "durationTicks": 10,
            "midi": 70,
            "name": "A#4",
            "ticks": 3132,
            "time": 28.786734,
            "velocity": 0.5433070866141733
          },
          {
            "duration": 0.25735266666666234,
            "durationTicks": 28,
            "midi": 81,
            "name": "A5",
            "ticks": 3168,
            "time": 29.117616,
            "velocity": 0.5433070866141733
          },
          {
            "duration": 0.25735266666666234,
            "durationTicks": 28,
            "midi": 77,
            "name": "F5",
            "ticks": 3168,
            "time": 29.117616,
            "velocity": 0.5433070866141733
          },
          {
            "duration": 0.25735266666666234,
            "durationTicks": 28,
            "midi": 74,
            "name": "D5",
            "ticks": 3168,
            "time": 29.117616,
            "velocity": 0.5433070866141733
          },
          {
            "duration": 0.25735266666666234,
            "durationTicks": 28,
            "midi": 72,
            "name": "C5",
            "ticks": 3168,
            "time": 29.117616,
            "velocity": 0.5433070866141733
          },
          {
            "duration": 0.09191166666666462,
            "durationTicks": 10,
            "midi": 81,
            "name": "A5",
            "ticks": 3204,
            "time": 29.448498,
            "velocity": 0.5433070866141733
          },
          {
            "duration": 0.09191166666666462,
            "durationTicks": 10,
            "midi": 77,
            "name": "F5",
            "ticks": 3204,
            "time": 29.448498,
            "velocity": 0.5433070866141733
          },
          {
            "duration": 0.09191166666666462,
            "durationTicks": 10,
            "midi": 74,
            "name": "D5",
            "ticks": 3204,
            "time": 29.448498,
            "velocity": 0.5433070866141733
          },
          {
            "duration": 0.09191166666666462,
            "durationTicks": 10,
            "midi": 72,
            "name": "C5",
            "ticks": 3204,
            "time": 29.448498,
            "velocity": 0.5433070866141733
          },
          {
            "duration": 0.25735266666666234,
            "durationTicks": 28,
            "midi": 82,
            "name": "A#5",
            "ticks": 3288,
            "time": 30.220556000000002,
            "velocity": 0.5433070866141733
          },
          {
            "duration": 0.25735266666666234,
            "durationTicks": 28,
            "midi": 79,
            "name": "G5",
            "ticks": 3288,
            "time": 30.220556000000002,
            "velocity": 0.5433070866141733
          },
          {
            "duration": 0.25735266666666234,
            "durationTicks": 28,
            "midi": 75,
            "name": "D#5",
            "ticks": 3288,
            "time": 30.220556000000002,
            "velocity": 0.5433070866141733
          },
          {
            "duration": 0.25735266666666234,
            "durationTicks": 28,
            "midi": 72,
            "name": "C5",
            "ticks": 3288,
            "time": 30.220556000000002,
            "velocity": 0.5433070866141733
          },
          {
            "duration": 0.09191166666666462,
            "durationTicks": 10,
            "midi": 82,
            "name": "A#5",
            "ticks": 3324,
            "time": 30.551438,
            "velocity": 0.5433070866141733
          },
          {
            "duration": 0.09191166666666462,
            "durationTicks": 10,
            "midi": 79,
            "name": "G5",
            "ticks": 3324,
            "time": 30.551438,
            "velocity": 0.5433070866141733
          },
          {
            "duration": 0.09191166666666462,
            "durationTicks": 10,
            "midi": 75,
            "name": "D#5",
            "ticks": 3324,
            "time": 30.551438,
            "velocity": 0.5433070866141733
          },
          {
            "duration": 0.09191166666666462,
            "durationTicks": 10,
            "midi": 72,
            "name": "C5",
            "ticks": 3324,
            "time": 30.551438,
            "velocity": 0.5433070866141733
          },
          {
            "duration": 0.2573526666666659,
            "durationTicks": 28,
            "midi": 81,
            "name": "A5",
            "ticks": 3360,
            "time": 30.88232,
            "velocity": 0.5433070866141733
          },
          {
            "duration": 0.2573526666666659,
            "durationTicks": 28,
            "midi": 77,
            "name": "F5",
            "ticks": 3360,
            "time": 30.88232,
            "velocity": 0.5433070866141733
          },
          {
            "duration": 0.2573526666666659,
            "durationTicks": 28,
            "midi": 74,
            "name": "D5",
            "ticks": 3360,
            "time": 30.88232,
            "velocity": 0.5433070866141733
          },
          {
            "duration": 0.2573526666666659,
            "durationTicks": 28,
            "midi": 72,
            "name": "C5",
            "ticks": 3360,
            "time": 30.88232,
            "velocity": 0.5433070866141733
          },
          {
            "duration": 0.09191166666666462,
            "durationTicks": 10,
            "midi": 81,
            "name": "A5",
            "ticks": 3396,
            "time": 31.213202000000003,
            "velocity": 0.5433070866141733
          },
          {
            "duration": 0.09191166666666462,
            "durationTicks": 10,
            "midi": 77,
            "name": "F5",
            "ticks": 3396,
            "time": 31.213202000000003,
            "velocity": 0.5433070866141733
          },
          {
            "duration": 0.09191166666666462,
            "durationTicks": 10,
            "midi": 74,
            "name": "D5",
            "ticks": 3396,
            "time": 31.213202000000003,
            "velocity": 0.5433070866141733
          },
          {
            "duration": 0.09191166666666462,
            "durationTicks": 10,
            "midi": 72,
            "name": "C5",
            "ticks": 3396,
            "time": 31.213202000000003,
            "velocity": 0.5433070866141733
          },
          {
            "duration": 0.11029399999999967,
            "durationTicks": 12,
            "midi": 82,
            "name": "A#5",
            "ticks": 3480,
            "time": 31.98526,
            "velocity": 0.5433070866141733
          },
          {
            "duration": 0.11029399999999967,
            "durationTicks": 12,
            "midi": 79,
            "name": "G5",
            "ticks": 3480,
            "time": 31.98526,
            "velocity": 0.5433070866141733
          },
          {
            "duration": 0.11029399999999967,
            "durationTicks": 12,
            "midi": 75,
            "name": "D#5",
            "ticks": 3480,
            "time": 31.98526,
            "velocity": 0.5433070866141733
          },
          {
            "duration": 0.11029399999999967,
            "durationTicks": 12,
            "midi": 74,
            "name": "D5",
            "ticks": 3480,
            "time": 31.98526,
            "velocity": 0.5433070866141733
          },
          {
            "duration": 0.3124996666666675,
            "durationTicks": 34,
            "midi": 82,
            "name": "A#5",
            "ticks": 3516,
            "time": 32.316142,
            "velocity": 0.5433070866141733
          },
          {
            "duration": 0.3124996666666675,
            "durationTicks": 34,
            "midi": 79,
            "name": "G5",
            "ticks": 3516,
            "time": 32.316142,
            "velocity": 0.5433070866141733
          },
          {
            "duration": 0.3124996666666675,
            "durationTicks": 34,
            "midi": 75,
            "name": "D#5",
            "ticks": 3516,
            "time": 32.316142,
            "velocity": 0.5433070866141733
          },
          {
            "duration": 0.3124996666666675,
            "durationTicks": 34,
            "midi": 72,
            "name": "C5",
            "ticks": 3516,
            "time": 32.316142,
            "velocity": 0.5433070866141733
          },
          {
            "duration": 0.25735266666666234,
            "durationTicks": 28,
            "midi": 81,
            "name": "A5",
            "ticks": 3552,
            "time": 32.647024,
            "velocity": 0.5433070866141733
          },
          {
            "duration": 0.25735266666666234,
            "durationTicks": 28,
            "midi": 77,
            "name": "F5",
            "ticks": 3552,
            "time": 32.647024,
            "velocity": 0.5433070866141733
          },
          {
            "duration": 0.25735266666666234,
            "durationTicks": 28,
            "midi": 74,
            "name": "D5",
            "ticks": 3552,
            "time": 32.647024,
            "velocity": 0.5433070866141733
          },
          {
            "duration": 0.25735266666666234,
            "durationTicks": 28,
            "midi": 72,
            "name": "C5",
            "ticks": 3552,
            "time": 32.647024,
            "velocity": 0.5433070866141733
          },
          {
            "duration": 0.09191166666666106,
            "durationTicks": 10,
            "midi": 81,
            "name": "A5",
            "ticks": 3588,
            "time": 32.977906000000004,
            "velocity": 0.5433070866141733
          },
          {
            "duration": 0.09191166666666106,
            "durationTicks": 10,
            "midi": 77,
            "name": "F5",
            "ticks": 3588,
            "time": 32.977906000000004,
            "velocity": 0.5433070866141733
          },
          {
            "duration": 0.09191166666666106,
            "durationTicks": 10,
            "midi": 74,
            "name": "D5",
            "ticks": 3588,
            "time": 32.977906000000004,
            "velocity": 0.5433070866141733
          },
          {
            "duration": 0.09191166666666106,
            "durationTicks": 10,
            "midi": 72,
            "name": "C5",
            "ticks": 3588,
            "time": 32.977906000000004,
            "velocity": 0.5433070866141733
          },
          {
            "duration": 0.25735266666666945,
            "durationTicks": 28,
            "midi": 82,
            "name": "A#5",
            "ticks": 3672,
            "time": 33.749964,
            "velocity": 0.5433070866141733
          },
          {
            "duration": 0.25735266666666945,
            "durationTicks": 28,
            "midi": 79,
            "name": "G5",
            "ticks": 3672,
            "time": 33.749964,
            "velocity": 0.5433070866141733
          },
          {
            "duration": 0.25735266666666945,
            "durationTicks": 28,
            "midi": 75,
            "name": "D#5",
            "ticks": 3672,
            "time": 33.749964,
            "velocity": 0.5433070866141733
          },
          {
            "duration": 0.25735266666666945,
            "durationTicks": 28,
            "midi": 72,
            "name": "C5",
            "ticks": 3672,
            "time": 33.749964,
            "velocity": 0.5433070866141733
          },
          {
            "duration": 0.09191166666666106,
            "durationTicks": 10,
            "midi": 82,
            "name": "A#5",
            "ticks": 3708,
            "time": 34.080846,
            "velocity": 0.5433070866141733
          },
          {
            "duration": 0.09191166666666106,
            "durationTicks": 10,
            "midi": 79,
            "name": "G5",
            "ticks": 3708,
            "time": 34.080846,
            "velocity": 0.5433070866141733
          },
          {
            "duration": 0.09191166666666106,
            "durationTicks": 10,
            "midi": 75,
            "name": "D#5",
            "ticks": 3708,
            "time": 34.080846,
            "velocity": 0.5433070866141733
          },
          {
            "duration": 0.09191166666666106,
            "durationTicks": 10,
            "midi": 72,
            "name": "C5",
            "ticks": 3708,
            "time": 34.080846,
            "velocity": 0.5433070866141733
          },
          {
            "duration": 0.25735266666666234,
            "durationTicks": 28,
            "midi": 81,
            "name": "A5",
            "ticks": 3744,
            "time": 34.411728000000004,
            "velocity": 0.5433070866141733
          },
          {
            "duration": 0.25735266666666234,
            "durationTicks": 28,
            "midi": 77,
            "name": "F5",
            "ticks": 3744,
            "time": 34.411728000000004,
            "velocity": 0.5433070866141733
          },
          {
            "duration": 0.25735266666666234,
            "durationTicks": 28,
            "midi": 74,
            "name": "D5",
            "ticks": 3744,
            "time": 34.411728000000004,
            "velocity": 0.5433070866141733
          },
          {
            "duration": 0.25735266666666234,
            "durationTicks": 28,
            "midi": 72,
            "name": "C5",
            "ticks": 3744,
            "time": 34.411728000000004,
            "velocity": 0.5433070866141733
          },
          {
            "duration": 0.09191166666666817,
            "durationTicks": 10,
            "midi": 81,
            "name": "A5",
            "ticks": 3780,
            "time": 34.74261,
            "velocity": 0.5433070866141733
          },
          {
            "duration": 0.09191166666666817,
            "durationTicks": 10,
            "midi": 77,
            "name": "F5",
            "ticks": 3780,
            "time": 34.74261,
            "velocity": 0.5433070866141733
          },
          {
            "duration": 0.09191166666666817,
            "durationTicks": 10,
            "midi": 74,
            "name": "D5",
            "ticks": 3780,
            "time": 34.74261,
            "velocity": 0.5433070866141733
          },
          {
            "duration": 0.09191166666666817,
            "durationTicks": 10,
            "midi": 72,
            "name": "C5",
            "ticks": 3780,
            "time": 34.74261,
            "velocity": 0.5433070866141733
          },
          {
            "duration": 0.25735266666666234,
            "durationTicks": 28,
            "midi": 79,
            "name": "G5",
            "ticks": 3864,
            "time": 35.514668,
            "velocity": 0.5433070866141733
          },
          {
            "duration": 0.25735266666666234,
            "durationTicks": 28,
            "midi": 75,
            "name": "D#5",
            "ticks": 3864,
            "time": 35.514668,
            "velocity": 0.5433070866141733
          },
          {
            "duration": 0.25735266666666234,
            "durationTicks": 28,
            "midi": 72,
            "name": "C5",
            "ticks": 3864,
            "time": 35.514668,
            "velocity": 0.5433070866141733
          },
          {
            "duration": 0.25735266666666234,
            "durationTicks": 28,
            "midi": 70,
            "name": "A#4",
            "ticks": 3864,
            "time": 35.514668,
            "velocity": 0.5433070866141733
          },
          {
            "duration": 0.09191166666666106,
            "durationTicks": 10,
            "midi": 79,
            "name": "G5",
            "ticks": 3900,
            "time": 35.84555,
            "velocity": 0.5433070866141733
          },
          {
            "duration": 0.09191166666666106,
            "durationTicks": 10,
            "midi": 75,
            "name": "D#5",
            "ticks": 3900,
            "time": 35.84555,
            "velocity": 0.5433070866141733
          },
          {
            "duration": 0.09191166666666106,
            "durationTicks": 10,
            "midi": 72,
            "name": "C5",
            "ticks": 3900,
            "time": 35.84555,
            "velocity": 0.5433070866141733
          },
          {
            "duration": 0.09191166666666106,
            "durationTicks": 10,
            "midi": 70,
            "name": "A#4",
            "ticks": 3900,
            "time": 35.84555,
            "velocity": 0.5433070866141733
          },
          {
            "duration": 0.25735266666666945,
            "durationTicks": 28,
            "midi": 81,
            "name": "A5",
            "ticks": 3936,
            "time": 36.176432,
            "velocity": 0.5433070866141733
          },
          {
            "duration": 0.25735266666666945,
            "durationTicks": 28,
            "midi": 77,
            "name": "F5",
            "ticks": 3936,
            "time": 36.176432,
            "velocity": 0.5433070866141733
          },
          {
            "duration": 0.25735266666666945,
            "durationTicks": 28,
            "midi": 74,
            "name": "D5",
            "ticks": 3936,
            "time": 36.176432,
            "velocity": 0.5433070866141733
          },
          {
            "duration": 0.25735266666666945,
            "durationTicks": 28,
            "midi": 72,
            "name": "C5",
            "ticks": 3936,
            "time": 36.176432,
            "velocity": 0.5433070866141733
          },
          {
            "duration": 0.09191166666666817,
            "durationTicks": 10,
            "midi": 81,
            "name": "A5",
            "ticks": 3972,
            "time": 36.507314,
            "velocity": 0.5433070866141733
          },
          {
            "duration": 0.09191166666666817,
            "durationTicks": 10,
            "midi": 77,
            "name": "F5",
            "ticks": 3972,
            "time": 36.507314,
            "velocity": 0.5433070866141733
          },
          {
            "duration": 0.09191166666666817,
            "durationTicks": 10,
            "midi": 74,
            "name": "D5",
            "ticks": 3972,
            "time": 36.507314,
            "velocity": 0.5433070866141733
          },
          {
            "duration": 0.09191166666666817,
            "durationTicks": 10,
            "midi": 72,
            "name": "C5",
            "ticks": 3972,
            "time": 36.507314,
            "velocity": 0.5433070866141733
          },
          {
            "duration": 0.25735266666666234,
            "durationTicks": 28,
            "midi": 82,
            "name": "A#5",
            "ticks": 4056,
            "time": 37.279372,
            "velocity": 0.5433070866141733
          },
          {
            "duration": 0.25735266666666234,
            "durationTicks": 28,
            "midi": 79,
            "name": "G5",
            "ticks": 4056,
            "time": 37.279372,
            "velocity": 0.5433070866141733
          },
          {
            "duration": 0.25735266666666234,
            "durationTicks": 28,
            "midi": 75,
            "name": "D#5",
            "ticks": 4056,
            "time": 37.279372,
            "velocity": 0.5433070866141733
          },
          {
            "duration": 0.25735266666666234,
            "durationTicks": 28,
            "midi": 72,
            "name": "C5",
            "ticks": 4056,
            "time": 37.279372,
            "velocity": 0.5433070866141733
          },
          {
            "duration": 0.09191166666666817,
            "durationTicks": 10,
            "midi": 82,
            "name": "A#5",
            "ticks": 4092,
            "time": 37.610254,
            "velocity": 0.5433070866141733
          },
          {
            "duration": 0.09191166666666817,
            "durationTicks": 10,
            "midi": 79,
            "name": "G5",
            "ticks": 4092,
            "time": 37.610254,
            "velocity": 0.5433070866141733
          },
          {
            "duration": 0.09191166666666817,
            "durationTicks": 10,
            "midi": 75,
            "name": "D#5",
            "ticks": 4092,
            "time": 37.610254,
            "velocity": 0.5433070866141733
          },
          {
            "duration": 0.09191166666666817,
            "durationTicks": 10,
            "midi": 72,
            "name": "C5",
            "ticks": 4092,
            "time": 37.610254,
            "velocity": 0.5433070866141733
          },
          {
            "duration": 0.25735266666666234,
            "durationTicks": 28,
            "midi": 81,
            "name": "A5",
            "ticks": 4128,
            "time": 37.941136,
            "velocity": 0.5433070866141733
          },
          {
            "duration": 0.25735266666666234,
            "durationTicks": 28,
            "midi": 77,
            "name": "F5",
            "ticks": 4128,
            "time": 37.941136,
            "velocity": 0.5433070866141733
          },
          {
            "duration": 0.25735266666666234,
            "durationTicks": 28,
            "midi": 74,
            "name": "D5",
            "ticks": 4128,
            "time": 37.941136,
            "velocity": 0.5433070866141733
          },
          {
            "duration": 0.25735266666666234,
            "durationTicks": 28,
            "midi": 72,
            "name": "C5",
            "ticks": 4128,
            "time": 37.941136,
            "velocity": 0.5433070866141733
          },
          {
            "duration": 0.09191166666666106,
            "durationTicks": 10,
            "midi": 81,
            "name": "A5",
            "ticks": 4164,
            "time": 38.272018,
            "velocity": 0.5433070866141733
          },
          {
            "duration": 0.09191166666666106,
            "durationTicks": 10,
            "midi": 77,
            "name": "F5",
            "ticks": 4164,
            "time": 38.272018,
            "velocity": 0.5433070866141733
          },
          {
            "duration": 0.09191166666666106,
            "durationTicks": 10,
            "midi": 74,
            "name": "D5",
            "ticks": 4164,
            "time": 38.272018,
            "velocity": 0.5433070866141733
          },
          {
            "duration": 0.09191166666666106,
            "durationTicks": 10,
            "midi": 72,
            "name": "C5",
            "ticks": 4164,
            "time": 38.272018,
            "velocity": 0.5433070866141733
          },
          {
            "duration": 0.11029399999999612,
            "durationTicks": 12,
            "midi": 82,
            "name": "A#5",
            "ticks": 4248,
            "time": 39.044076000000004,
            "velocity": 0.5433070866141733
          },
          {
            "duration": 0.11029399999999612,
            "durationTicks": 12,
            "midi": 79,
            "name": "G5",
            "ticks": 4248,
            "time": 39.044076000000004,
            "velocity": 0.5433070866141733
          },
          {
            "duration": 0.11029399999999612,
            "durationTicks": 12,
            "midi": 75,
            "name": "D#5",
            "ticks": 4248,
            "time": 39.044076000000004,
            "velocity": 0.5433070866141733
          },
          {
            "duration": 0.11029399999999612,
            "durationTicks": 12,
            "midi": 74,
            "name": "D5",
            "ticks": 4248,
            "time": 39.044076000000004,
            "velocity": 0.5433070866141733
          },
          {
            "duration": 0.3124996666666675,
            "durationTicks": 34,
            "midi": 82,
            "name": "A#5",
            "ticks": 4284,
            "time": 39.374958,
            "velocity": 0.5433070866141733
          },
          {
            "duration": 0.3124996666666675,
            "durationTicks": 34,
            "midi": 79,
            "name": "G5",
            "ticks": 4284,
            "time": 39.374958,
            "velocity": 0.5433070866141733
          },
          {
            "duration": 0.3124996666666675,
            "durationTicks": 34,
            "midi": 75,
            "name": "D#5",
            "ticks": 4284,
            "time": 39.374958,
            "velocity": 0.5433070866141733
          },
          {
            "duration": 0.3124996666666675,
            "durationTicks": 34,
            "midi": 72,
            "name": "C5",
            "ticks": 4284,
            "time": 39.374958,
            "velocity": 0.5433070866141733
          },
          {
            "duration": 0.8455873333333344,
            "durationTicks": 92,
            "midi": 75,
            "name": "D#5",
            "ticks": 5088,
            "time": 46.764656,
            "velocity": 0.5511811023622047
          },
          {
            "duration": 0.8455873333333344,
            "durationTicks": 92,
            "midi": 72,
            "name": "C5",
            "ticks": 5088,
            "time": 46.764656,
            "velocity": 0.5511811023622047
          },
          {
            "duration": 0.8455873333333344,
            "durationTicks": 92,
            "midi": 68,
            "name": "G#4",
            "ticks": 5088,
            "time": 46.764656,
            "velocity": 0.5511811023622047
          },
          {
            "duration": 0.8455873333333344,
            "durationTicks": 92,
            "midi": 67,
            "name": "G4",
            "ticks": 5088,
            "time": 46.764656,
            "velocity": 0.5511811023622047
          },
          {
            "duration": 0.4136025000000032,
            "durationTicks": 45,
            "midi": 74,
            "name": "D5",
            "ticks": 5184,
            "time": 47.647008,
            "velocity": 0.5511811023622047
          },
          {
            "duration": 0.4136025000000032,
            "durationTicks": 45,
            "midi": 70,
            "name": "A#4",
            "ticks": 5184,
            "time": 47.647008,
            "velocity": 0.5511811023622047
          },
          {
            "duration": 0.4136025000000032,
            "durationTicks": 45,
            "midi": 67,
            "name": "G4",
            "ticks": 5184,
            "time": 47.647008,
            "velocity": 0.5511811023622047
          },
          {
            "duration": 0.4136025000000032,
            "durationTicks": 45,
            "midi": 65,
            "name": "F4",
            "ticks": 5184,
            "time": 47.647008,
            "velocity": 0.5511811023622047
          },
          {
            "duration": 0.4136025000000032,
            "durationTicks": 45,
            "midi": 75,
            "name": "D#5",
            "ticks": 5232,
            "time": 48.088184,
            "velocity": 0.5511811023622047
          },
          {
            "duration": 0.4136025000000032,
            "durationTicks": 45,
            "midi": 72,
            "name": "C5",
            "ticks": 5232,
            "time": 48.088184,
            "velocity": 0.5511811023622047
          },
          {
            "duration": 0.4136025000000032,
            "durationTicks": 45,
            "midi": 68,
            "name": "G#4",
            "ticks": 5232,
            "time": 48.088184,
            "velocity": 0.5511811023622047
          },
          {
            "duration": 0.4136025000000032,
            "durationTicks": 45,
            "midi": 67,
            "name": "G4",
            "ticks": 5232,
            "time": 48.088184,
            "velocity": 0.5511811023622047
          },
          {
            "duration": 0.8455873333333344,
            "durationTicks": 92,
            "midi": 74,
            "name": "D5",
            "ticks": 5280,
            "time": 48.529360000000004,
            "velocity": 0.5511811023622047
          },
          {
            "duration": 0.8455873333333344,
            "durationTicks": 92,
            "midi": 70,
            "name": "A#4",
            "ticks": 5280,
            "time": 48.529360000000004,
            "velocity": 0.5511811023622047
          },
          {
            "duration": 0.8455873333333344,
            "durationTicks": 92,
            "midi": 67,
            "name": "G4",
            "ticks": 5280,
            "time": 48.529360000000004,
            "velocity": 0.5511811023622047
          },
          {
            "duration": 0.8455873333333344,
            "durationTicks": 92,
            "midi": 63,
            "name": "D#4",
            "ticks": 5280,
            "time": 48.529360000000004,
            "velocity": 0.5511811023622047
          },
          {
            "duration": 0.8455873333333344,
            "durationTicks": 92,
            "midi": 72,
            "name": "C5",
            "ticks": 5376,
            "time": 49.411712,
            "velocity": 0.5511811023622047
          },
          {
            "duration": 0.8455873333333344,
            "durationTicks": 92,
            "midi": 70,
            "name": "A#4",
            "ticks": 5376,
            "time": 49.411712,
            "velocity": 0.5511811023622047
          },
          {
            "duration": 0.8455873333333344,
            "durationTicks": 92,
            "midi": 67,
            "name": "G4",
            "ticks": 5376,
            "time": 49.411712,
            "velocity": 0.5511811023622047
          },
          {
            "duration": 0.8455873333333344,
            "durationTicks": 92,
            "midi": 63,
            "name": "D#4",
            "ticks": 5376,
            "time": 49.411712,
            "velocity": 0.5511811023622047
          },
          {
            "duration": 0.8455873333333415,
            "durationTicks": 92,
            "midi": 70,
            "name": "A#4",
            "ticks": 5472,
            "time": 50.294064,
            "velocity": 0.5511811023622047
          },
          {
            "duration": 0.8455873333333415,
            "durationTicks": 92,
            "midi": 67,
            "name": "G4",
            "ticks": 5472,
            "time": 50.294064,
            "velocity": 0.5511811023622047
          },
          {
            "duration": 0.8455873333333415,
            "durationTicks": 92,
            "midi": 63,
            "name": "D#4",
            "ticks": 5472,
            "time": 50.294064,
            "velocity": 0.5511811023622047
          },
          {
            "duration": 0.8455873333333415,
            "durationTicks": 92,
            "midi": 62,
            "name": "D4",
            "ticks": 5472,
            "time": 50.294064,
            "velocity": 0.5511811023622047
          },
          {
            "duration": 0.4136024999999961,
            "durationTicks": 45,
            "midi": 69,
            "name": "A4",
            "ticks": 5568,
            "time": 51.176416,
            "velocity": 0.5511811023622047
          },
          {
            "duration": 0.4136024999999961,
            "durationTicks": 45,
            "midi": 67,
            "name": "G4",
            "ticks": 5568,
            "time": 51.176416,
            "velocity": 0.5511811023622047
          },
          {
            "duration": 0.4136024999999961,
            "durationTicks": 45,
            "midi": 63,
            "name": "D#4",
            "ticks": 5568,
            "time": 51.176416,
            "velocity": 0.5511811023622047
          },
          {
            "duration": 0.4136024999999961,
            "durationTicks": 45,
            "midi": 60,
            "name": "C4",
            "ticks": 5568,
            "time": 51.176416,
            "velocity": 0.5511811023622047
          },
          {
            "duration": 0.4136024999999961,
            "durationTicks": 45,
            "midi": 70,
            "name": "A#4",
            "ticks": 5616,
            "time": 51.617592,
            "velocity": 0.5511811023622047
          },
          {
            "duration": 0.4136024999999961,
            "durationTicks": 45,
            "midi": 67,
            "name": "G4",
            "ticks": 5616,
            "time": 51.617592,
            "velocity": 0.5511811023622047
          },
          {
            "duration": 0.4136024999999961,
            "durationTicks": 45,
            "midi": 63,
            "name": "D#4",
            "ticks": 5616,
            "time": 51.617592,
            "velocity": 0.5511811023622047
          },
          {
            "duration": 0.4136024999999961,
            "durationTicks": 45,
            "midi": 62,
            "name": "D4",
            "ticks": 5616,
            "time": 51.617592,
            "velocity": 0.5511811023622047
          },
          {
            "duration": 0.8455873333333344,
            "durationTicks": 92,
            "midi": 72,
            "name": "C5",
            "ticks": 5664,
            "time": 52.058768,
            "velocity": 0.5511811023622047
          },
          {
            "duration": 0.8455873333333344,
            "durationTicks": 92,
            "midi": 69,
            "name": "A4",
            "ticks": 5664,
            "time": 52.058768,
            "velocity": 0.5511811023622047
          },
          {
            "duration": 0.8455873333333344,
            "durationTicks": 92,
            "midi": 65,
            "name": "F4",
            "ticks": 5664,
            "time": 52.058768,
            "velocity": 0.5511811023622047
          },
          {
            "duration": 0.8455873333333344,
            "durationTicks": 92,
            "midi": 62,
            "name": "D4",
            "ticks": 5664,
            "time": 52.058768,
            "velocity": 0.5511811023622047
          },
          {
            "duration": 0.4136025000000032,
            "durationTicks": 45,
            "midi": 70,
            "name": "A#4",
            "ticks": 5760,
            "time": 52.94112,
            "velocity": 0.5511811023622047
          },
          {
            "duration": 0.4136025000000032,
            "durationTicks": 45,
            "midi": 67,
            "name": "G4",
            "ticks": 5760,
            "time": 52.94112,
            "velocity": 0.5511811023622047
          },
          {
            "duration": 0.4136025000000032,
            "durationTicks": 45,
            "midi": 65,
            "name": "F4",
            "ticks": 5760,
            "time": 52.94112,
            "velocity": 0.5511811023622047
          },
          {
            "duration": 0.4136025000000032,
            "durationTicks": 45,
            "midi": 62,
            "name": "D4",
            "ticks": 5760,
            "time": 52.94112,
            "velocity": 0.5511811023622047
          },
          {
            "duration": 0.4136024999999961,
            "durationTicks": 45,
            "midi": 72,
            "name": "C5",
            "ticks": 5808,
            "time": 53.382296000000004,
            "velocity": 0.5511811023622047
          },
          {
            "duration": 0.4136024999999961,
            "durationTicks": 45,
            "midi": 69,
            "name": "A4",
            "ticks": 5808,
            "time": 53.382296000000004,
            "velocity": 0.5511811023622047
          },
          {
            "duration": 0.4136024999999961,
            "durationTicks": 45,
            "midi": 65,
            "name": "F4",
            "ticks": 5808,
            "time": 53.382296000000004,
            "velocity": 0.5511811023622047
          },
          {
            "duration": 0.4136024999999961,
            "durationTicks": 45,
            "midi": 62,
            "name": "D4",
            "ticks": 5808,
            "time": 53.382296000000004,
            "velocity": 0.5511811023622047
          },
          {
            "duration": 0.8455873333333344,
            "durationTicks": 92,
            "midi": 75,
            "name": "D#5",
            "ticks": 5856,
            "time": 53.823472,
            "velocity": 0.5511811023622047
          },
          {
            "duration": 0.8455873333333344,
            "durationTicks": 92,
            "midi": 72,
            "name": "C5",
            "ticks": 5856,
            "time": 53.823472,
            "velocity": 0.5511811023622047
          },
          {
            "duration": 0.8455873333333344,
            "durationTicks": 92,
            "midi": 68,
            "name": "G#4",
            "ticks": 5856,
            "time": 53.823472,
            "velocity": 0.5511811023622047
          },
          {
            "duration": 0.8455873333333344,
            "durationTicks": 92,
            "midi": 67,
            "name": "G4",
            "ticks": 5856,
            "time": 53.823472,
            "velocity": 0.5511811023622047
          },
          {
            "duration": 0.4136025000000032,
            "durationTicks": 45,
            "midi": 74,
            "name": "D5",
            "ticks": 5952,
            "time": 54.705824,
            "velocity": 0.5511811023622047
          },
          {
            "duration": 0.4136025000000032,
            "durationTicks": 45,
            "midi": 70,
            "name": "A#4",
            "ticks": 5952,
            "time": 54.705824,
            "velocity": 0.5511811023622047
          },
          {
            "duration": 0.4136025000000032,
            "durationTicks": 45,
            "midi": 67,
            "name": "G4",
            "ticks": 5952,
            "time": 54.705824,
            "velocity": 0.5511811023622047
          },
          {
            "duration": 0.4136025000000032,
            "durationTicks": 45,
            "midi": 65,
            "name": "F4",
            "ticks": 5952,
            "time": 54.705824,
            "velocity": 0.5511811023622047
          },
          {
            "duration": 0.4136025000000032,
            "durationTicks": 45,
            "midi": 75,
            "name": "D#5",
            "ticks": 6000,
            "time": 55.147,
            "velocity": 0.5511811023622047
          },
          {
            "duration": 0.4136025000000032,
            "durationTicks": 45,
            "midi": 72,
            "name": "C5",
            "ticks": 6000,
            "time": 55.147,
            "velocity": 0.5511811023622047
          },
          {
            "duration": 0.4136025000000032,
            "durationTicks": 45,
            "midi": 68,
            "name": "G#4",
            "ticks": 6000,
            "time": 55.147,
            "velocity": 0.5511811023622047
          },
          {
            "duration": 0.4136025000000032,
            "durationTicks": 45,
            "midi": 67,
            "name": "G4",
            "ticks": 6000,
            "time": 55.147,
            "velocity": 0.5511811023622047
          },
          {
            "duration": 0.8455873333333344,
            "durationTicks": 92,
            "midi": 77,
            "name": "F5",
            "ticks": 6048,
            "time": 55.588176000000004,
            "velocity": 0.5511811023622047
          },
          {
            "duration": 0.8455873333333344,
            "durationTicks": 92,
            "midi": 74,
            "name": "D5",
            "ticks": 6048,
            "time": 55.588176000000004,
            "velocity": 0.5511811023622047
          },
          {
            "duration": 0.8455873333333344,
            "durationTicks": 92,
            "midi": 70,
            "name": "A#4",
            "ticks": 6048,
            "time": 55.588176000000004,
            "velocity": 0.5511811023622047
          },
          {
            "duration": 0.8455873333333344,
            "durationTicks": 92,
            "midi": 67,
            "name": "G4",
            "ticks": 6048,
            "time": 55.588176000000004,
            "velocity": 0.5511811023622047
          },
          {
            "duration": 0.8455873333333273,
            "durationTicks": 92,
            "midi": 70,
            "name": "A#4",
            "ticks": 6144,
            "time": 56.470528,
            "velocity": 0.5511811023622047
          },
          {
            "duration": 0.8455873333333273,
            "durationTicks": 92,
            "midi": 67,
            "name": "G4",
            "ticks": 6144,
            "time": 56.470528,
            "velocity": 0.5511811023622047
          },
          {
            "duration": 0.8455873333333273,
            "durationTicks": 92,
            "midi": 65,
            "name": "F4",
            "ticks": 6144,
            "time": 56.470528,
            "velocity": 0.5511811023622047
          },
          {
            "duration": 0.8455873333333273,
            "durationTicks": 92,
            "midi": 62,
            "name": "D4",
            "ticks": 6144,
            "time": 56.470528,
            "velocity": 0.5511811023622047
          },
          {
            "duration": 0.8455873333333344,
            "durationTicks": 92,
            "midi": 72,
            "name": "C5",
            "ticks": 6240,
            "time": 57.35288,
            "velocity": 0.5511811023622047
          },
          {
            "duration": 0.8455873333333344,
            "durationTicks": 92,
            "midi": 68,
            "name": "G#4",
            "ticks": 6240,
            "time": 57.35288,
            "velocity": 0.5511811023622047
          },
          {
            "duration": 0.8455873333333344,
            "durationTicks": 92,
            "midi": 67,
            "name": "G4",
            "ticks": 6240,
            "time": 57.35288,
            "velocity": 0.5511811023622047
          },
          {
            "duration": 0.8455873333333344,
            "durationTicks": 92,
            "midi": 63,
            "name": "D#4",
            "ticks": 6240,
            "time": 57.35288,
            "velocity": 0.5511811023622047
          },
          {
            "duration": 0.4136024999999961,
            "durationTicks": 45,
            "midi": 72,
            "name": "C5",
            "ticks": 6336,
            "time": 58.235232,
            "velocity": 0.5511811023622047
          },
          {
            "duration": 0.4136024999999961,
            "durationTicks": 45,
            "midi": 68,
            "name": "G#4",
            "ticks": 6336,
            "time": 58.235232,
            "velocity": 0.5511811023622047
          },
          {
            "duration": 0.4136024999999961,
            "durationTicks": 45,
            "midi": 65,
            "name": "F4",
            "ticks": 6336,
            "time": 58.235232,
            "velocity": 0.5511811023622047
          },
          {
            "duration": 0.4136024999999961,
            "durationTicks": 45,
            "midi": 62,
            "name": "D4",
            "ticks": 6336,
            "time": 58.235232,
            "velocity": 0.5511811023622047
          },
          {
            "duration": 0.4136024999999961,
            "durationTicks": 45,
            "midi": 72,
            "name": "C5",
            "ticks": 6384,
            "time": 58.676408,
            "velocity": 0.5511811023622047
          },
          {
            "duration": 0.4136024999999961,
            "durationTicks": 45,
            "midi": 68,
            "name": "G#4",
            "ticks": 6384,
            "time": 58.676408,
            "velocity": 0.5511811023622047
          },
          {
            "duration": 0.4136024999999961,
            "durationTicks": 45,
            "midi": 67,
            "name": "G4",
            "ticks": 6384,
            "time": 58.676408,
            "velocity": 0.5511811023622047
          },
          {
            "duration": 0.4136024999999961,
            "durationTicks": 45,
            "midi": 63,
            "name": "D#4",
            "ticks": 6384,
            "time": 58.676408,
            "velocity": 0.5511811023622047
          },
          {
            "duration": 1.7463216666666739,
            "durationTicks": 190,
            "midi": 77,
            "name": "F5",
            "ticks": 6432,
            "time": 59.117584,
            "velocity": 0.5511811023622047
          },
          {
            "duration": 1.7463216666666739,
            "durationTicks": 190,
            "midi": 72,
            "name": "C5",
            "ticks": 6432,
            "time": 59.117584,
            "velocity": 0.5511811023622047
          },
          {
            "duration": 1.7463216666666739,
            "durationTicks": 190,
            "midi": 68,
            "name": "G#4",
            "ticks": 6432,
            "time": 59.117584,
            "velocity": 0.5511811023622047
          },
          {
            "duration": 1.3786750000000012,
            "durationTicks": 150,
            "midi": 67,
            "name": "G4",
            "ticks": 6624,
            "time": 60.882288,
            "velocity": 0.5511811023622047
          },
          {
            "duration": 1.3786750000000012,
            "durationTicks": 150,
            "midi": 64,
            "name": "E4",
            "ticks": 6624,
            "time": 60.882288,
            "velocity": 0.5511811023622047
          },
          {
            "duration": 1.3786750000000012,
            "durationTicks": 150,
            "midi": 60,
            "name": "C4",
            "ticks": 6624,
            "time": 60.882288,
            "velocity": 0.5511811023622047
          },
          {
            "duration": 1.3786750000000012,
            "durationTicks": 150,
            "midi": 57,
            "name": "A3",
            "ticks": 6624,
            "time": 60.882288,
            "velocity": 0.5511811023622047
          },
          {
            "duration": 0.09191166666666817,
            "durationTicks": 10,
            "midi": 67,
            "name": "G4",
            "ticks": 6780,
            "time": 62.31611,
            "velocity": 0.5511811023622047
          },
          {
            "duration": 0.09191166666666817,
            "durationTicks": 10,
            "midi": 64,
            "name": "E4",
            "ticks": 6780,
            "time": 62.31611,
            "velocity": 0.5511811023622047
          },
          {
            "duration": 0.09191166666666817,
            "durationTicks": 10,
            "midi": 60,
            "name": "C4",
            "ticks": 6780,
            "time": 62.31611,
            "velocity": 0.5511811023622047
          },
          {
            "duration": 0.09191166666666817,
            "durationTicks": 10,
            "midi": 57,
            "name": "A3",
            "ticks": 6780,
            "time": 62.31611,
            "velocity": 0.5511811023622047
          },
          {
            "duration": 1.7647039999999947,
            "durationTicks": 192,
            "midi": 65,
            "name": "F4",
            "ticks": 6804,
            "time": 62.536698,
            "velocity": 0.5511811023622047
          },
          {
            "duration": 1.7647039999999947,
            "durationTicks": 192,
            "midi": 61,
            "name": "C#4",
            "ticks": 6804,
            "time": 62.536698,
            "velocity": 0.5511811023622047
          },
          {
            "duration": 1.7647039999999947,
            "durationTicks": 192,
            "midi": 58,
            "name": "A#3",
            "ticks": 6804,
            "time": 62.536698,
            "velocity": 0.5511811023622047
          },
          {
            "duration": 1.7647039999999947,
            "durationTicks": 192,
            "midi": 54,
            "name": "F#3",
            "ticks": 6804,
            "time": 62.536698,
            "velocity": 0.5511811023622047
          },
          {
            "duration": 1.3786750000000012,
            "durationTicks": 150,
            "midi": 67,
            "name": "G4",
            "ticks": 7008,
            "time": 64.411696,
            "velocity": 0.5511811023622047
          },
          {
            "duration": 1.3786750000000012,
            "durationTicks": 150,
            "midi": 64,
            "name": "E4",
            "ticks": 7008,
            "time": 64.411696,
            "velocity": 0.5511811023622047
          },
          {
            "duration": 1.3786750000000012,
            "durationTicks": 150,
            "midi": 60,
            "name": "C4",
            "ticks": 7008,
            "time": 64.411696,
            "velocity": 0.5511811023622047
          },
          {
            "duration": 1.3786750000000012,
            "durationTicks": 150,
            "midi": 57,
            "name": "A3",
            "ticks": 7008,
            "time": 64.411696,
            "velocity": 0.5511811023622047
          },
          {
            "duration": 0.09191166666667527,
            "durationTicks": 10,
            "midi": 67,
            "name": "G4",
            "ticks": 7164,
            "time": 65.845518,
            "velocity": 0.5511811023622047
          },
          {
            "duration": 0.09191166666667527,
            "durationTicks": 10,
            "midi": 64,
            "name": "E4",
            "ticks": 7164,
            "time": 65.845518,
            "velocity": 0.5511811023622047
          },
          {
            "duration": 0.09191166666667527,
            "durationTicks": 10,
            "midi": 60,
            "name": "C4",
            "ticks": 7164,
            "time": 65.845518,
            "velocity": 0.5511811023622047
          },
          {
            "duration": 0.09191166666667527,
            "durationTicks": 10,
            "midi": 57,
            "name": "A3",
            "ticks": 7164,
            "time": 65.845518,
            "velocity": 0.5511811023622047
          },
          {
            "duration": 1.7647039999999947,
            "durationTicks": 192,
            "midi": 65,
            "name": "F4",
            "ticks": 7188,
            "time": 66.066106,
            "velocity": 0.5511811023622047
          },
          {
            "duration": 1.7647039999999947,
            "durationTicks": 192,
            "midi": 61,
            "name": "C#4",
            "ticks": 7188,
            "time": 66.066106,
            "velocity": 0.5511811023622047
          },
          {
            "duration": 1.7647039999999947,
            "durationTicks": 192,
            "midi": 58,
            "name": "A#3",
            "ticks": 7188,
            "time": 66.066106,
            "velocity": 0.5511811023622047
          },
          {
            "duration": 1.7647039999999947,
            "durationTicks": 192,
            "midi": 54,
            "name": "F#3",
            "ticks": 7188,
            "time": 66.066106,
            "velocity": 0.5511811023622047
          },
          {
            "duration": 1.3786750000000012,
            "durationTicks": 150,
            "midi": 67,
            "name": "G4",
            "ticks": 7392,
            "time": 67.941104,
            "velocity": 0.5511811023622047
          },
          {
            "duration": 1.3786750000000012,
            "durationTicks": 150,
            "midi": 64,
            "name": "E4",
            "ticks": 7392,
            "time": 67.941104,
            "velocity": 0.5511811023622047
          },
          {
            "duration": 1.3786750000000012,
            "durationTicks": 150,
            "midi": 60,
            "name": "C4",
            "ticks": 7392,
            "time": 67.941104,
            "velocity": 0.5511811023622047
          },
          {
            "duration": 1.3786750000000012,
            "durationTicks": 150,
            "midi": 57,
            "name": "A3",
            "ticks": 7392,
            "time": 67.941104,
            "velocity": 0.5511811023622047
          },
          {
            "duration": 0.09191166666667527,
            "durationTicks": 10,
            "midi": 67,
            "name": "G4",
            "ticks": 7548,
            "time": 69.374926,
            "velocity": 0.5511811023622047
          },
          {
            "duration": 0.09191166666667527,
            "durationTicks": 10,
            "midi": 64,
            "name": "E4",
            "ticks": 7548,
            "time": 69.374926,
            "velocity": 0.5511811023622047
          },
          {
            "duration": 0.09191166666667527,
            "durationTicks": 10,
            "midi": 60,
            "name": "C4",
            "ticks": 7548,
            "time": 69.374926,
            "velocity": 0.5511811023622047
          },
          {
            "duration": 0.09191166666667527,
            "durationTicks": 10,
            "midi": 57,
            "name": "A3",
            "ticks": 7548,
            "time": 69.374926,
            "velocity": 0.5511811023622047
          },
          {
            "duration": 1.7647039999999947,
            "durationTicks": 192,
            "midi": 65,
            "name": "F4",
            "ticks": 7572,
            "time": 69.59551400000001,
            "velocity": 0.5511811023622047
          },
          {
            "duration": 1.7647039999999947,
            "durationTicks": 192,
            "midi": 61,
            "name": "C#4",
            "ticks": 7572,
            "time": 69.59551400000001,
            "velocity": 0.5511811023622047
          },
          {
            "duration": 1.7647039999999947,
            "durationTicks": 192,
            "midi": 58,
            "name": "A#3",
            "ticks": 7572,
            "time": 69.59551400000001,
            "velocity": 0.5511811023622047
          },
          {
            "duration": 1.7647039999999947,
            "durationTicks": 192,
            "midi": 54,
            "name": "F#3",
            "ticks": 7572,
            "time": 69.59551400000001,
            "velocity": 0.5511811023622047
          },
          {
            "duration": 1.3786750000000012,
            "durationTicks": 150,
            "midi": 67,
            "name": "G4",
            "ticks": 7776,
            "time": 71.470512,
            "velocity": 0.5511811023622047
          },
          {
            "duration": 1.3786750000000012,
            "durationTicks": 150,
            "midi": 64,
            "name": "E4",
            "ticks": 7776,
            "time": 71.470512,
            "velocity": 0.5511811023622047
          },
          {
            "duration": 1.3786750000000012,
            "durationTicks": 150,
            "midi": 60,
            "name": "C4",
            "ticks": 7776,
            "time": 71.470512,
            "velocity": 0.5511811023622047
          },
          {
            "duration": 1.3786750000000012,
            "durationTicks": 150,
            "midi": 57,
            "name": "A3",
            "ticks": 7776,
            "time": 71.470512,
            "velocity": 0.5511811023622047
          },
          {
            "duration": 0.09191166666666106,
            "durationTicks": 10,
            "midi": 67,
            "name": "G4",
            "ticks": 7932,
            "time": 72.904334,
            "velocity": 0.5511811023622047
          },
          {
            "duration": 0.09191166666666106,
            "durationTicks": 10,
            "midi": 64,
            "name": "E4",
            "ticks": 7932,
            "time": 72.904334,
            "velocity": 0.5511811023622047
          },
          {
            "duration": 0.09191166666666106,
            "durationTicks": 10,
            "midi": 60,
            "name": "C4",
            "ticks": 7932,
            "time": 72.904334,
            "velocity": 0.5511811023622047
          },
          {
            "duration": 0.09191166666666106,
            "durationTicks": 10,
            "midi": 57,
            "name": "A3",
            "ticks": 7932,
            "time": 72.904334,
            "velocity": 0.5511811023622047
          },
          {
            "duration": 1.764704000000009,
            "durationTicks": 192,
            "midi": 65,
            "name": "F4",
            "ticks": 7956,
            "time": 73.124922,
            "velocity": 0.5511811023622047
          },
          {
            "duration": 1.764704000000009,
            "durationTicks": 192,
            "midi": 61,
            "name": "C#4",
            "ticks": 7956,
            "time": 73.124922,
            "velocity": 0.5511811023622047
          },
          {
            "duration": 1.764704000000009,
            "durationTicks": 192,
            "midi": 58,
            "name": "A#3",
            "ticks": 7956,
            "time": 73.124922,
            "velocity": 0.5511811023622047
          },
          {
            "duration": 1.764704000000009,
            "durationTicks": 192,
            "midi": 54,
            "name": "F#3",
            "ticks": 7956,
            "time": 73.124922,
            "velocity": 0.5511811023622047
          },
          {
            "duration": 0.25735266666667655,
            "durationTicks": 28,
            "midi": 69,
            "name": "A4",
            "ticks": 8160,
            "time": 74.99992,
            "velocity": 0.5118110236220472
          },
          {
            "duration": 0.25735266666667655,
            "durationTicks": 28,
            "midi": 65,
            "name": "F4",
            "ticks": 8160,
            "time": 74.99992,
            "velocity": 0.5118110236220472
          },
          {
            "duration": 0.25735266666667655,
            "durationTicks": 28,
            "midi": 62,
            "name": "D4",
            "ticks": 8160,
            "time": 74.99992,
            "velocity": 0.5118110236220472
          },
          {
            "duration": 0.25735266666667655,
            "durationTicks": 28,
            "midi": 60,
            "name": "C4",
            "ticks": 8160,
            "time": 74.99992,
            "velocity": 0.5118110236220472
          },
          {
            "duration": 0.09191166666666106,
            "durationTicks": 10,
            "midi": 69,
            "name": "A4",
            "ticks": 8196,
            "time": 75.330802,
            "velocity": 0.5118110236220472
          },
          {
            "duration": 0.09191166666666106,
            "durationTicks": 10,
            "midi": 65,
            "name": "F4",
            "ticks": 8196,
            "time": 75.330802,
            "velocity": 0.5118110236220472
          },
          {
            "duration": 0.09191166666666106,
            "durationTicks": 10,
            "midi": 62,
            "name": "D4",
            "ticks": 8196,
            "time": 75.330802,
            "velocity": 0.5118110236220472
          },
          {
            "duration": 0.09191166666666106,
            "durationTicks": 10,
            "midi": 60,
            "name": "C4",
            "ticks": 8196,
            "time": 75.330802,
            "velocity": 0.5118110236220472
          },
          {
            "duration": 0.25735266666666234,
            "durationTicks": 28,
            "midi": 70,
            "name": "A#4",
            "ticks": 8280,
            "time": 76.10286,
            "velocity": 0.5118110236220472
          },
          {
            "duration": 0.25735266666666234,
            "durationTicks": 28,
            "midi": 67,
            "name": "G4",
            "ticks": 8280,
            "time": 76.10286,
            "velocity": 0.5118110236220472
          },
          {
            "duration": 0.25735266666666234,
            "durationTicks": 28,
            "midi": 63,
            "name": "D#4",
            "ticks": 8280,
            "time": 76.10286,
            "velocity": 0.5118110236220472
          },
          {
            "duration": 0.25735266666666234,
            "durationTicks": 28,
            "midi": 60,
            "name": "C4",
            "ticks": 8280,
            "time": 76.10286,
            "velocity": 0.5118110236220472
          },
          {
            "duration": 0.09191166666667527,
            "durationTicks": 10,
            "midi": 70,
            "name": "A#4",
            "ticks": 8316,
            "time": 76.433742,
            "velocity": 0.5118110236220472
          },
          {
            "duration": 0.09191166666667527,
            "durationTicks": 10,
            "midi": 67,
            "name": "G4",
            "ticks": 8316,
            "time": 76.433742,
            "velocity": 0.5118110236220472
          },
          {
            "duration": 0.09191166666667527,
            "durationTicks": 10,
            "midi": 63,
            "name": "D#4",
            "ticks": 8316,
            "time": 76.433742,
            "velocity": 0.5118110236220472
          },
          {
            "duration": 0.09191166666667527,
            "durationTicks": 10,
            "midi": 60,
            "name": "C4",
            "ticks": 8316,
            "time": 76.433742,
            "velocity": 0.5118110236220472
          },
          {
            "duration": 0.25735266666667655,
            "durationTicks": 28,
            "midi": 69,
            "name": "A4",
            "ticks": 8352,
            "time": 76.764624,
            "velocity": 0.5118110236220472
          },
          {
            "duration": 0.25735266666667655,
            "durationTicks": 28,
            "midi": 65,
            "name": "F4",
            "ticks": 8352,
            "time": 76.764624,
            "velocity": 0.5118110236220472
          },
          {
            "duration": 0.25735266666667655,
            "durationTicks": 28,
            "midi": 62,
            "name": "D4",
            "ticks": 8352,
            "time": 76.764624,
            "velocity": 0.5118110236220472
          },
          {
            "duration": 0.25735266666667655,
            "durationTicks": 28,
            "midi": 60,
            "name": "C4",
            "ticks": 8352,
            "time": 76.764624,
            "velocity": 0.5118110236220472
          },
          {
            "duration": 0.09191166666667527,
            "durationTicks": 10,
            "midi": 69,
            "name": "A4",
            "ticks": 8388,
            "time": 77.095506,
            "velocity": 0.5118110236220472
          },
          {
            "duration": 0.09191166666667527,
            "durationTicks": 10,
            "midi": 65,
            "name": "F4",
            "ticks": 8388,
            "time": 77.095506,
            "velocity": 0.5118110236220472
          },
          {
            "duration": 0.09191166666667527,
            "durationTicks": 10,
            "midi": 62,
            "name": "D4",
            "ticks": 8388,
            "time": 77.095506,
            "velocity": 0.5118110236220472
          },
          {
            "duration": 0.09191166666667527,
            "durationTicks": 10,
            "midi": 60,
            "name": "C4",
            "ticks": 8388,
            "time": 77.095506,
            "velocity": 0.5118110236220472
          },
          {
            "duration": 0.25735266666667655,
            "durationTicks": 28,
            "midi": 67,
            "name": "G4",
            "ticks": 8472,
            "time": 77.867564,
            "velocity": 0.5118110236220472
          },
          {
            "duration": 0.25735266666667655,
            "durationTicks": 28,
            "midi": 63,
            "name": "D#4",
            "ticks": 8472,
            "time": 77.867564,
            "velocity": 0.5118110236220472
          },
          {
            "duration": 0.25735266666667655,
            "durationTicks": 28,
            "midi": 60,
            "name": "C4",
            "ticks": 8472,
            "time": 77.867564,
            "velocity": 0.5118110236220472
          },
          {
            "duration": 0.25735266666667655,
            "durationTicks": 28,
            "midi": 58,
            "name": "A#3",
            "ticks": 8472,
            "time": 77.867564,
            "velocity": 0.5118110236220472
          },
          {
            "duration": 0.09191166666667527,
            "durationTicks": 10,
            "midi": 67,
            "name": "G4",
            "ticks": 8508,
            "time": 78.198446,
            "velocity": 0.5118110236220472
          },
          {
            "duration": 0.09191166666667527,
            "durationTicks": 10,
            "midi": 63,
            "name": "D#4",
            "ticks": 8508,
            "time": 78.198446,
            "velocity": 0.5118110236220472
          },
          {
            "duration": 0.09191166666667527,
            "durationTicks": 10,
            "midi": 60,
            "name": "C4",
            "ticks": 8508,
            "time": 78.198446,
            "velocity": 0.5118110236220472
          },
          {
            "duration": 0.09191166666667527,
            "durationTicks": 10,
            "midi": 58,
            "name": "A#3",
            "ticks": 8508,
            "time": 78.198446,
            "velocity": 0.5118110236220472
          },
          {
            "duration": 0.25735266666666234,
            "durationTicks": 28,
            "midi": 69,
            "name": "A4",
            "ticks": 8544,
            "time": 78.529328,
            "velocity": 0.5118110236220472
          },
          {
            "duration": 0.25735266666666234,
            "durationTicks": 28,
            "midi": 65,
            "name": "F4",
            "ticks": 8544,
            "time": 78.529328,
            "velocity": 0.5118110236220472
          },
          {
            "duration": 0.25735266666666234,
            "durationTicks": 28,
            "midi": 62,
            "name": "D4",
            "ticks": 8544,
            "time": 78.529328,
            "velocity": 0.5118110236220472
          },
          {
            "duration": 0.25735266666666234,
            "durationTicks": 28,
            "midi": 60,
            "name": "C4",
            "ticks": 8544,
            "time": 78.529328,
            "velocity": 0.5118110236220472
          },
          {
            "duration": 0.09191166666666106,
            "durationTicks": 10,
            "midi": 69,
            "name": "A4",
            "ticks": 8580,
            "time": 78.86021000000001,
            "velocity": 0.5118110236220472
          },
          {
            "duration": 0.09191166666666106,
            "durationTicks": 10,
            "midi": 65,
            "name": "F4",
            "ticks": 8580,
            "time": 78.86021000000001,
            "velocity": 0.5118110236220472
          },
          {
            "duration": 0.09191166666666106,
            "durationTicks": 10,
            "midi": 62,
            "name": "D4",
            "ticks": 8580,
            "time": 78.86021000000001,
            "velocity": 0.5118110236220472
          },
          {
            "duration": 0.09191166666666106,
            "durationTicks": 10,
            "midi": 60,
            "name": "C4",
            "ticks": 8580,
            "time": 78.86021000000001,
            "velocity": 0.5118110236220472
          },
          {
            "duration": 0.25735266666667655,
            "durationTicks": 28,
            "midi": 70,
            "name": "A#4",
            "ticks": 8664,
            "time": 79.632268,
            "velocity": 0.5118110236220472
          },
          {
            "duration": 0.25735266666667655,
            "durationTicks": 28,
            "midi": 67,
            "name": "G4",
            "ticks": 8664,
            "time": 79.632268,
            "velocity": 0.5118110236220472
          },
          {
            "duration": 0.25735266666667655,
            "durationTicks": 28,
            "midi": 63,
            "name": "D#4",
            "ticks": 8664,
            "time": 79.632268,
            "velocity": 0.5118110236220472
          },
          {
            "duration": 0.25735266666667655,
            "durationTicks": 28,
            "midi": 60,
            "name": "C4",
            "ticks": 8664,
            "time": 79.632268,
            "velocity": 0.5118110236220472
          },
          {
            "duration": 0.09191166666667527,
            "durationTicks": 10,
            "midi": 70,
            "name": "A#4",
            "ticks": 8700,
            "time": 79.96315,
            "velocity": 0.5118110236220472
          },
          {
            "duration": 0.09191166666667527,
            "durationTicks": 10,
            "midi": 67,
            "name": "G4",
            "ticks": 8700,
            "time": 79.96315,
            "velocity": 0.5118110236220472
          },
          {
            "duration": 0.09191166666667527,
            "durationTicks": 10,
            "midi": 63,
            "name": "D#4",
            "ticks": 8700,
            "time": 79.96315,
            "velocity": 0.5118110236220472
          },
          {
            "duration": 0.09191166666667527,
            "durationTicks": 10,
            "midi": 60,
            "name": "C4",
            "ticks": 8700,
            "time": 79.96315,
            "velocity": 0.5118110236220472
          },
          {
            "duration": 0.25735266666667655,
            "durationTicks": 28,
            "midi": 69,
            "name": "A4",
            "ticks": 8736,
            "time": 80.294032,
            "velocity": 0.5118110236220472
          },
          {
            "duration": 0.25735266666667655,
            "durationTicks": 28,
            "midi": 65,
            "name": "F4",
            "ticks": 8736,
            "time": 80.294032,
            "velocity": 0.5118110236220472
          },
          {
            "duration": 0.25735266666667655,
            "durationTicks": 28,
            "midi": 62,
            "name": "D4",
            "ticks": 8736,
            "time": 80.294032,
            "velocity": 0.5118110236220472
          },
          {
            "duration": 0.25735266666667655,
            "durationTicks": 28,
            "midi": 60,
            "name": "C4",
            "ticks": 8736,
            "time": 80.294032,
            "velocity": 0.5118110236220472
          },
          {
            "duration": 0.09191166666667527,
            "durationTicks": 10,
            "midi": 69,
            "name": "A4",
            "ticks": 8772,
            "time": 80.624914,
            "velocity": 0.5118110236220472
          },
          {
            "duration": 0.09191166666667527,
            "durationTicks": 10,
            "midi": 65,
            "name": "F4",
            "ticks": 8772,
            "time": 80.624914,
            "velocity": 0.5118110236220472
          },
          {
            "duration": 0.09191166666667527,
            "durationTicks": 10,
            "midi": 62,
            "name": "D4",
            "ticks": 8772,
            "time": 80.624914,
            "velocity": 0.5118110236220472
          },
          {
            "duration": 0.09191166666667527,
            "durationTicks": 10,
            "midi": 60,
            "name": "C4",
            "ticks": 8772,
            "time": 80.624914,
            "velocity": 0.5118110236220472
          },
          {
            "duration": 0.11029399999999612,
            "durationTicks": 12,
            "midi": 70,
            "name": "A#4",
            "ticks": 8856,
            "time": 81.396972,
            "velocity": 0.5118110236220472
          },
          {
            "duration": 0.11029399999999612,
            "durationTicks": 12,
            "midi": 67,
            "name": "G4",
            "ticks": 8856,
            "time": 81.396972,
            "velocity": 0.5118110236220472
          },
          {
            "duration": 0.11029399999999612,
            "durationTicks": 12,
            "midi": 63,
            "name": "D#4",
            "ticks": 8856,
            "time": 81.396972,
            "velocity": 0.5118110236220472
          },
          {
            "duration": 0.11029399999999612,
            "durationTicks": 12,
            "midi": 62,
            "name": "D4",
            "ticks": 8856,
            "time": 81.396972,
            "velocity": 0.5118110236220472
          },
          {
            "duration": 0.3124996666666675,
            "durationTicks": 34,
            "midi": 70,
            "name": "A#4",
            "ticks": 8892,
            "time": 81.72785400000001,
            "velocity": 0.5118110236220472
          },
          {
            "duration": 0.3124996666666675,
            "durationTicks": 34,
            "midi": 67,
            "name": "G4",
            "ticks": 8892,
            "time": 81.72785400000001,
            "velocity": 0.5118110236220472
          },
          {
            "duration": 0.3124996666666675,
            "durationTicks": 34,
            "midi": 63,
            "name": "D#4",
            "ticks": 8892,
            "time": 81.72785400000001,
            "velocity": 0.5118110236220472
          },
          {
            "duration": 0.3124996666666675,
            "durationTicks": 34,
            "midi": 60,
            "name": "C4",
            "ticks": 8892,
            "time": 81.72785400000001,
            "velocity": 0.5118110236220472
          }
        ]
      },
      {
        "channel": 0,
        "controlChanges": {
          "0": [
            {
              "number": 0,
              "ticks": 202,
              "time": 1.8566156666666667,
              "value": 0
            }
          ],
          "32": [
            {
              "number": 32,
              "ticks": 203,
              "time": 1.8658068333333335,
              "value": 0.015748031496062992
            }
          ]
        },
        "pitchBends": [],
        "instrument": {
          "family": "piano",
          "number": 0,
          "name": "acoustic grand piano"
        },
        "name": "p[JbV\u0000",
        "notes": [],
        "endOfTrackTicks": 8928
      },
      {
        "channel": 6,
        "controlChanges": {
          "1": [
            {
              "number": 1,
              "ticks": 214,
              "time": 1.9669096666666666,
              "value": 0
            }
          ],
          "5": [
            {
              "number": 5,
              "ticks": 218,
              "time": 2.0036743333333336,
              "value": 0
            }
          ],
          "6": [
            {
              "number": 6,
              "ticks": 210,
              "time": 1.930145,
              "value": 0.015748031496062992
            },
            {
              "number": 6,
              "ticks": 219,
              "time": 2.0128655,
              "value": 0.5039370078740157
            },
            {
              "number": 6,
              "ticks": 220,
              "time": 2.0220566666666664,
              "value": 0.5039370078740157
            },
            {
              "number": 6,
              "ticks": 221,
              "time": 2.0312478333333335,
              "value": 0.5039370078740157
            },
            {
              "number": 6,
              "ticks": 222,
              "time": 2.040439,
              "value": 0.5039370078740157
            },
            {
              "number": 6,
              "ticks": 223,
              "time": 2.0496301666666668,
              "value": 0.5039370078740157
            },
            {
              "number": 6,
              "ticks": 224,
              "time": 2.0588213333333334,
              "value": 0.5039370078740157
            },
            {
              "number": 6,
              "ticks": 225,
              "time": 2.0680125,
              "value": 0.5039370078740157
            },
            {
              "number": 6,
              "ticks": 226,
              "time": 2.0772036666666667,
              "value": 0.5039370078740157
            }
          ],
          "7": [
            {
              "number": 7,
              "ticks": 211,
              "time": 1.9393361666666666,
              "value": 1
            },
            {
              "number": 7,
              "ticks": 8208,
              "time": 75.441096,
              "value": 1
            },
            {
              "number": 7,
              "ticks": 8256,
              "time": 75.882272,
              "value": 0.937007874015748
            },
            {
              "number": 7,
              "ticks": 8304,
              "time": 76.323448,
              "value": 0.8740157480314961
            },
            {
              "number": 7,
              "ticks": 8352,
              "time": 76.764624,
              "value": 0.8110236220472441
            },
            {
              "number": 7,
              "ticks": 8400,
              "time": 77.2058,
              "value": 0.7480314960629921
            },
            {
              "number": 7,
              "ticks": 8448,
              "time": 77.646976,
              "value": 0.6850393700787402
            },
            {
              "number": 7,
              "ticks": 8496,
              "time": 78.08815200000001,
              "value": 0.6220472440944882
            },
            {
              "number": 7,
              "ticks": 8544,
              "time": 78.529328,
              "value": 0.5590551181102362
            },
            {
              "number": 7,
              "ticks": 8592,
              "time": 78.970504,
              "value": 0.49606299212598426
            },
            {
              "number": 7,
              "ticks": 8640,
              "time": 79.41168,
              "value": 0.4330708661417323
            },
            {
              "number": 7,
              "ticks": 8688,
              "time": 79.852856,
              "value": 0.3700787401574803
            },
            {
              "number": 7,
              "ticks": 8736,
              "time": 80.294032,
              "value": 0.30708661417322836
            },
            {
              "number": 7,
              "ticks": 8784,
              "time": 80.735208,
              "value": 0.2440944881889764
            },
            {
              "number": 7,
              "ticks": 8832,
              "time": 81.176384,
              "value": 0.18110236220472442
            },
            {
              "number": 7,
              "ticks": 8880,
              "time": 81.61756,
              "value": 0.11811023622047244
            },
            {
              "number": 7,
              "ticks": 8928,
              "time": 82.058736,
              "value": 0.05511811023622047
            }
          ],
          "10": [
            {
              "number": 10,
              "ticks": 213,
              "time": 1.9577185000000001,
              "value": 0.5039370078740157
            }
          ],
          "11": [
            {
              "number": 11,
              "ticks": 212,
              "time": 1.9485273333333335,
              "value": 1
            }
          ],
          "64": [
            {
              "number": 64,
              "ticks": 216,
              "time": 1.985292,
              "value": 0
            }
          ],
          "65": [
            {
              "number": 65,
              "ticks": 217,
              "time": 1.9944831666666667,
              "value": 0
            }
          ],
          "91": [
            {
              "number": 91,
              "ticks": 205,
              "time": 1.8841891666666666,
              "value": 0.6299212598425197
            }
          ],
          "93": [
            {
              "number": 93,
              "ticks": 206,
              "time": 1.8933803333333334,
              "value": 0.31496062992125984
            }
          ],
          "94": [
            {
              "number": 94,
              "ticks": 207,
              "time": 1.9025715,
              "value": 0
            }
          ],
          "98": [
            {
              "number": 98,
              "ticks": 219,
              "time": 2.0128655,
              "value": 0.25196850393700787
            },
            {
              "number": 98,
              "ticks": 220,
              "time": 2.0220566666666664,
              "value": 0.25984251968503935
            },
            {
              "number": 98,
              "ticks": 221,
              "time": 2.0312478333333335,
              "value": 0.7795275590551181
            },
            {
              "number": 98,
              "ticks": 222,
              "time": 2.040439,
              "value": 0.7874015748031497
            },
            {
              "number": 98,
              "ticks": 223,
              "time": 2.0496301666666668,
              "value": 0.8031496062992126
            },
            {
              "number": 98,
              "ticks": 224,
              "time": 2.0588213333333334,
              "value": 0.06299212598425197
            },
            {
              "number": 98,
              "ticks": 225,
              "time": 2.0680125,
              "value": 0.07086614173228346
            },
            {
              "number": 98,
              "ticks": 226,
              "time": 2.0772036666666667,
              "value": 0.07874015748031496
            }
          ],
          "99": [
            {
              "number": 99,
              "ticks": 219,
              "time": 2.0128655,
              "value": 0.007874015748031496
            }
          ],
          "100": [
            {
              "number": 100,
              "ticks": 209,
              "time": 1.9209538333333336,
              "value": 0
            },
            {
              "number": 100,
              "ticks": 233,
              "time": 2.1415418333333336,
              "value": 1
            }
          ],
          "101": [
            {
              "number": 101,
              "ticks": 208,
              "time": 1.9117626666666665,
              "value": 0
            },
            {
              "number": 101,
              "ticks": 232,
              "time": 2.1323506666666665,
              "value": 1
            }
          ]
        },
        "pitchBends": [
          {
            "ticks": 215,
            "time": 1.9761008333333334,
            "value": 0
          }
        ],
        "instrument": {
          "family": "percussive",
          "number": 119,
          "name": "reverse cymbal"
        },
        "name": "",
        "notes": [
          {
            "duration": 1.6176453333333356,
            "durationTicks": 176,
            "midi": 60,
            "name": "C4",
            "ticks": 4908,
            "time": 45.110246000000004,
            "velocity": 1
          }
        ]
      },
      {
        "channel": 0,
        "controlChanges": {
          "0": [
            {
              "number": 0,
              "ticks": 202,
              "time": 1.8566156666666667,
              "value": 0
            }
          ],
          "32": [
            {
              "number": 32,
              "ticks": 203,
              "time": 1.8658068333333335,
              "value": 0.015748031496062992
            }
          ]
        },
        "pitchBends": [],
        "instrument": {
          "family": "piano",
          "number": 0,
          "name": "acoustic grand piano"
        },
        "name": "Q\u0000",
        "notes": [],
        "endOfTrackTicks": 8928
      },
      {
        "channel": 7,
        "controlChanges": {
          "1": [
            {
              "number": 1,
              "ticks": 214,
              "time": 1.9669096666666666,
              "value": 0
            }
          ],
          "5": [
            {
              "number": 5,
              "ticks": 218,
              "time": 2.0036743333333336,
              "value": 0
            }
          ],
          "6": [
            {
              "number": 6,
              "ticks": 210,
              "time": 1.930145,
              "value": 0.015748031496062992
            },
            {
              "number": 6,
              "ticks": 219,
              "time": 2.0128655,
              "value": 0.5039370078740157
            },
            {
              "number": 6,
              "ticks": 220,
              "time": 2.0220566666666664,
              "value": 0.5039370078740157
            },
            {
              "number": 6,
              "ticks": 221,
              "time": 2.0312478333333335,
              "value": 0.5039370078740157
            },
            {
              "number": 6,
              "ticks": 222,
              "time": 2.040439,
              "value": 0.5039370078740157
            },
            {
              "number": 6,
              "ticks": 223,
              "time": 2.0496301666666668,
              "value": 0.5039370078740157
            },
            {
              "number": 6,
              "ticks": 224,
              "time": 2.0588213333333334,
              "value": 0.5039370078740157
            },
            {
              "number": 6,
              "ticks": 225,
              "time": 2.0680125,
              "value": 0.5039370078740157
            },
            {
              "number": 6,
              "ticks": 226,
              "time": 2.0772036666666667,
              "value": 0.5039370078740157
            }
          ],
          "7": [
            {
              "number": 7,
              "ticks": 211,
              "time": 1.9393361666666666,
              "value": 0.8661417322834646
            },
            {
              "number": 7,
              "ticks": 8208,
              "time": 75.441096,
              "value": 0.8661417322834646
            },
            {
              "number": 7,
              "ticks": 8256,
              "time": 75.882272,
              "value": 0.8110236220472441
            },
            {
              "number": 7,
              "ticks": 8304,
              "time": 76.323448,
              "value": 0.7559055118110236
            },
            {
              "number": 7,
              "ticks": 8352,
              "time": 76.764624,
              "value": 0.7007874015748031
            },
            {
              "number": 7,
              "ticks": 8400,
              "time": 77.2058,
              "value": 0.6456692913385826
            },
            {
              "number": 7,
              "ticks": 8448,
              "time": 77.646976,
              "value": 0.5905511811023622
            },
            {
              "number": 7,
              "ticks": 8496,
              "time": 78.08815200000001,
              "value": 0.5354330708661418
            },
            {
              "number": 7,
              "ticks": 8544,
              "time": 78.529328,
              "value": 0.48031496062992124
            },
            {
              "number": 7,
              "ticks": 8592,
              "time": 78.970504,
              "value": 0.4330708661417323
            },
            {
              "number": 7,
              "ticks": 8640,
              "time": 79.41168,
              "value": 0.3779527559055118
            },
            {
              "number": 7,
              "ticks": 8688,
              "time": 79.852856,
              "value": 0.3228346456692913
            },
            {
              "number": 7,
              "ticks": 8736,
              "time": 80.294032,
              "value": 0.2677165354330709
            },
            {
              "number": 7,
              "ticks": 8784,
              "time": 80.735208,
              "value": 0.2125984251968504
            },
            {
              "number": 7,
              "ticks": 8832,
              "time": 81.176384,
              "value": 0.15748031496062992
            },
            {
              "number": 7,
              "ticks": 8880,
              "time": 81.61756,
              "value": 0.10236220472440945
            },
            {
              "number": 7,
              "ticks": 8928,
              "time": 82.058736,
              "value": 0.047244094488188976
            }
          ],
          "10": [
            {
              "number": 10,
              "ticks": 213,
              "time": 1.9577185000000001,
              "value": 0.5039370078740157
            }
          ],
          "11": [
            {
              "number": 11,
              "ticks": 212,
              "time": 1.9485273333333335,
              "value": 1
            }
          ],
          "64": [
            {
              "number": 64,
              "ticks": 216,
              "time": 1.985292,
              "value": 0
            }
          ],
          "65": [
            {
              "number": 65,
              "ticks": 217,
              "time": 1.9944831666666667,
              "value": 0
            }
          ],
          "91": [
            {
              "number": 91,
              "ticks": 205,
              "time": 1.8841891666666666,
              "value": 0.6299212598425197
            }
          ],
          "93": [
            {
              "number": 93,
              "ticks": 206,
              "time": 1.8933803333333334,
              "value": 0.31496062992125984
            }
          ],
          "94": [
            {
              "number": 94,
              "ticks": 207,
              "time": 1.9025715,
              "value": 0
            }
          ],
          "98": [
            {
              "number": 98,
              "ticks": 219,
              "time": 2.0128655,
              "value": 0.25196850393700787
            },
            {
              "number": 98,
              "ticks": 220,
              "time": 2.0220566666666664,
              "value": 0.25984251968503935
            },
            {
              "number": 98,
              "ticks": 221,
              "time": 2.0312478333333335,
              "value": 0.7795275590551181
            },
            {
              "number": 98,
              "ticks": 222,
              "time": 2.040439,
              "value": 0.7874015748031497
            },
            {
              "number": 98,
              "ticks": 223,
              "time": 2.0496301666666668,
              "value": 0.8031496062992126
            },
            {
              "number": 98,
              "ticks": 224,
              "time": 2.0588213333333334,
              "value": 0.06299212598425197
            },
            {
              "number": 98,
              "ticks": 225,
              "time": 2.0680125,
              "value": 0.07086614173228346
            },
            {
              "number": 98,
              "ticks": 226,
              "time": 2.0772036666666667,
              "value": 0.07874015748031496
            }
          ],
          "99": [
            {
              "number": 99,
              "ticks": 219,
              "time": 2.0128655,
              "value": 0.007874015748031496
            }
          ],
          "100": [
            {
              "number": 100,
              "ticks": 209,
              "time": 1.9209538333333336,
              "value": 0
            },
            {
              "number": 100,
              "ticks": 233,
              "time": 2.1415418333333336,
              "value": 1
            }
          ],
          "101": [
            {
              "number": 101,
              "ticks": 208,
              "time": 1.9117626666666665,
              "value": 0
            },
            {
              "number": 101,
              "ticks": 232,
              "time": 2.1323506666666665,
              "value": 1
            }
          ]
        },
        "pitchBends": [
          {
            "ticks": 215,
            "time": 1.9761008333333334,
            "value": 0
          }
        ],
        "instrument": {
          "family": "synth lead",
          "number": 82,
          "name": "lead 3 (calliope)"
        },
        "name": "",
        "notes": [
          {
            "duration": 0.8455873333333344,
            "durationTicks": 92,
            "midi": 79,
            "name": "G5",
            "ticks": 5088,
            "time": 46.764656,
            "velocity": 0.7480314960629921
          },
          {
            "duration": 0.4136025000000032,
            "durationTicks": 45,
            "midi": 77,
            "name": "F5",
            "ticks": 5184,
            "time": 47.647008,
            "velocity": 0.7480314960629921
          },
          {
            "duration": 0.4136025000000032,
            "durationTicks": 45,
            "midi": 79,
            "name": "G5",
            "ticks": 5232,
            "time": 48.088184,
            "velocity": 0.7480314960629921
          },
          {
            "duration": 0.624999333333335,
            "durationTicks": 68,
            "midi": 74,
            "name": "D5",
            "ticks": 5280,
            "time": 48.529360000000004,
            "velocity": 0.7480314960629921
          },
          {
            "duration": 0.09191166666666106,
            "durationTicks": 10,
            "midi": 77,
            "name": "F5",
            "ticks": 5352,
            "time": 49.191124,
            "velocity": 0.7480314960629921
          },
          {
            "duration": 0.09191166666666817,
            "durationTicks": 10,
            "midi": 74,
            "name": "D5",
            "ticks": 5364,
            "time": 49.301418,
            "velocity": 0.7480314960629921
          },
          {
            "duration": 0.4136025000000032,
            "durationTicks": 45,
            "midi": 72,
            "name": "C5",
            "ticks": 5376,
            "time": 49.411712,
            "velocity": 0.7480314960629921
          },
          {
            "duration": 0.4136025000000032,
            "durationTicks": 45,
            "midi": 70,
            "name": "A#4",
            "ticks": 5424,
            "time": 49.852888,
            "velocity": 0.7480314960629921
          },
          {
            "duration": 0.8455873333333415,
            "durationTicks": 92,
            "midi": 67,
            "name": "G4",
            "ticks": 5472,
            "time": 50.294064,
            "velocity": 0.7480314960629921
          },
          {
            "duration": 0.4136024999999961,
            "durationTicks": 45,
            "midi": 65,
            "name": "F4",
            "ticks": 5568,
            "time": 51.176416,
            "velocity": 0.7480314960629921
          },
          {
            "duration": 0.4136024999999961,
            "durationTicks": 45,
            "midi": 67,
            "name": "G4",
            "ticks": 5616,
            "time": 51.617592,
            "velocity": 0.7480314960629921
          },
          {
            "duration": 0.624999333333335,
            "durationTicks": 68,
            "midi": 72,
            "name": "C5",
            "ticks": 5664,
            "time": 52.058768,
            "velocity": 0.7480314960629921
          },
          {
            "duration": 0.09191166666666817,
            "durationTicks": 10,
            "midi": 74,
            "name": "D5",
            "ticks": 5736,
            "time": 52.720532,
            "velocity": 0.7480314960629921
          },
          {
            "duration": 0.09191166666666106,
            "durationTicks": 10,
            "midi": 72,
            "name": "C5",
            "ticks": 5748,
            "time": 52.830826,
            "velocity": 0.7480314960629921
          },
          {
            "duration": 0.4136025000000032,
            "durationTicks": 45,
            "midi": 70,
            "name": "A#4",
            "ticks": 5760,
            "time": 52.94112,
            "velocity": 0.7480314960629921
          },
          {
            "duration": 0.4136024999999961,
            "durationTicks": 45,
            "midi": 72,
            "name": "C5",
            "ticks": 5808,
            "time": 53.382296000000004,
            "velocity": 0.7480314960629921
          },
          {
            "duration": 0.8455873333333344,
            "durationTicks": 92,
            "midi": 79,
            "name": "G5",
            "ticks": 5856,
            "time": 53.823472,
            "velocity": 0.7480314960629921
          },
          {
            "duration": 0.4136025000000032,
            "durationTicks": 45,
            "midi": 77,
            "name": "F5",
            "ticks": 5952,
            "time": 54.705824,
            "velocity": 0.7480314960629921
          },
          {
            "duration": 0.4136025000000032,
            "durationTicks": 45,
            "midi": 79,
            "name": "G5",
            "ticks": 6000,
            "time": 55.147,
            "velocity": 0.7480314960629921
          },
          {
            "duration": 0.8455873333333344,
            "durationTicks": 92,
            "midi": 82,
            "name": "A#5",
            "ticks": 6048,
            "time": 55.588176000000004,
            "velocity": 0.7480314960629921
          },
          {
            "duration": 0.8455873333333273,
            "durationTicks": 92,
            "midi": 74,
            "name": "D5",
            "ticks": 6144,
            "time": 56.470528,
            "velocity": 0.7480314960629921
          },
          {
            "duration": 0.8455873333333344,
            "durationTicks": 92,
            "midi": 75,
            "name": "D#5",
            "ticks": 6240,
            "time": 57.35288,
            "velocity": 0.7480314960629921
          },
          {
            "duration": 0.4136024999999961,
            "durationTicks": 45,
            "midi": 74,
            "name": "D5",
            "ticks": 6336,
            "time": 58.235232,
            "velocity": 0.7480314960629921
          },
          {
            "duration": 0.4136024999999961,
            "durationTicks": 45,
            "midi": 75,
            "name": "D#5",
            "ticks": 6384,
            "time": 58.676408,
            "velocity": 0.7480314960629921
          },
          {
            "duration": 1.7463216666666739,
            "durationTicks": 190,
            "midi": 77,
            "name": "F5",
            "ticks": 6432,
            "time": 59.117584,
            "velocity": 0.7480314960629921
          }
        ]
      },
      {
        "channel": 0,
        "controlChanges": {},
        "pitchBends": [],
        "instrument": {
          "family": "piano",
          "number": 0,
          "name": "acoustic grand piano"
        },
        "name": "\u0000",
        "notes": [],
        "endOfTrackTicks": 0
      },
      {
        "channel": 0,
        "controlChanges": {},
        "pitchBends": [],
        "instrument": {
          "family": "piano",
          "number": 0,
          "name": "acoustic grand piano"
        },
        "name": "\u0000",
        "notes": [],
        "endOfTrackTicks": 0
      },
      {
        "channel": 0,
        "controlChanges": {},
        "pitchBends": [],
        "instrument": {
          "family": "piano",
          "number": 0,
          "name": "acoustic grand piano"
        },
        "name": "\u0000",
        "notes": [],
        "endOfTrackTicks": 0
      },
      {
        "channel": 0,
        "controlChanges": {},
        "pitchBends": [],
        "instrument": {
          "family": "piano",
          "number": 0,
          "name": "acoustic grand piano"
        },
        "name": "\u0000",
        "notes": [],
        "endOfTrackTicks": 0
      },
      {
        "channel": 0,
        "controlChanges": {},
        "pitchBends": [],
        "instrument": {
          "family": "piano",
          "number": 0,
          "name": "acoustic grand piano"
        },
        "name": "\u0000",
        "notes": [],
        "endOfTrackTicks": 0
      },
      {
        "channel": 0,
        "controlChanges": {},
        "pitchBends": [],
        "instrument": {
          "family": "piano",
          "number": 0,
          "name": "acoustic grand piano"
        },
        "name": "\u0000",
        "notes": [],
        "endOfTrackTicks": 0
      },
      {
        "channel": 0,
        "controlChanges": {},
        "pitchBends": [],
        "instrument": {
          "family": "piano",
          "number": 0,
          "name": "acoustic grand piano"
        },
        "name": "\u0000",
        "notes": [],
        "endOfTrackTicks": 0
      },
      {
        "channel": 0,
        "controlChanges": {},
        "pitchBends": [],
        "instrument": {
          "family": "piano",
          "number": 0,
          "name": "acoustic grand piano"
        },
        "name": "\u0000",
        "notes": [],
        "endOfTrackTicks": 0
      }
    ]
  }