{
    "header": {
      "keySignatures": [
        {
          "key": "D",
          "scale": "major",
          "ticks": 0
        },
        {
          "key": "E",
          "scale": "major",
          "ticks": 8160
        },
        {
          "key": "D",
          "scale": "major",
          "ticks": 31200
        },
        {
          "key": "E",
          "scale": "major",
          "ticks": 35040
        }
      ],
      "meta": [
        {
          "text": "Swear by Casiopea seq. by Iman Tjahjono",
          "ticks": 0,
          "type": "marker"
        }
      ],
      "name": "[Casiopea] Swear",
      "ppq": 120,
      "tempos": [
        {
          "bpm": 85.00004250002125,
          "ticks": 0
        }
      ],
      "timeSignatures": [
        {
          "ticks": 0,
          "timeSignature": [
            4,
            4
          ],
          "measures": 0
        }
      ]
    },
    "tracks": [
      {
        "channel": 0,
        "controlChanges": {
          "0": [
            {
              "number": 0,
              "ticks": 0,
              "time": 0,
              "value": 0
            }
          ],
          "32": [
            {
              "number": 32,
              "ticks": 0,
              "time": 0,
              "value": 0
            }
          ]
        },
        "pitchBends": [],
        "instrument": {
          "family": "piano",
          "number": 0,
          "name": "acoustic grand piano"
        },
        "name": "Rythm Guitar",
        "notes": [],
        "endOfTrackTicks": 38850
      },
      {
        "channel": 0,
        "controlChanges": {
          "7": [
            {
              "number": 7,
              "ticks": 0,
              "time": 0,
              "value": 0.6535433070866141
            }
          ],
          "10": [
            {
              "number": 10,
              "ticks": 0,
              "time": 0,
              "value": 0.6299212598425197
            }
          ],
          "91": [
            {
              "number": 91,
              "ticks": 40,
              "time": 0.235294,
              "value": 0.47244094488188976
            }
          ],
          "93": [
            {
              "number": 93,
              "ticks": 50,
              "time": 0.29411750000000003,
              "value": 0.15748031496062992
            }
          ],
          "121": [
            {
              "number": 121,
              "ticks": 5,
              "time": 0.02941175,
              "value": 0
            }
          ]
        },
        "pitchBends": [],
        "instrument": {
          "family": "guitar",
          "number": 26,
          "name": "electric guitar (jazz)"
        },
        "name": "",
        "notes": [
          {
            "duration": 0.35294099999999995,
            "durationTicks": 60,
            "midi": 69,
            "name": "A4",
            "ticks": 480,
            "time": 2.823528,
            "velocity": 0.6299212598425197
          },
          {
            "duration": 0.35294099999999995,
            "durationTicks": 60,
            "midi": 66,
            "name": "F#4",
            "ticks": 480,
            "time": 2.823528,
            "velocity": 0.6299212598425197
          },
          {
            "duration": 0.35294099999999995,
            "durationTicks": 60,
            "midi": 57,
            "name": "A3",
            "ticks": 480,
            "time": 2.823528,
            "velocity": 0.6299212598425197
          },
          {
            "duration": 0.35294099999999995,
            "durationTicks": 60,
            "midi": 61,
            "name": "C#4",
            "ticks": 480,
            "time": 2.823528,
            "velocity": 0.6299212598425197
          },
          {
            "duration": 0.17647049999999975,
            "durationTicks": 30,
            "midi": 66,
            "name": "F#4",
            "ticks": 570,
            "time": 3.3529395,
            "velocity": 0.6299212598425197
          },
          {
            "duration": 0.17647049999999975,
            "durationTicks": 30,
            "midi": 57,
            "name": "A3",
            "ticks": 570,
            "time": 3.3529395,
            "velocity": 0.6299212598425197
          },
          {
            "duration": 0.17647049999999975,
            "durationTicks": 30,
            "midi": 61,
            "name": "C#4",
            "ticks": 570,
            "time": 3.3529395,
            "velocity": 0.6299212598425197
          },
          {
            "duration": 0.1705881499999995,
            "durationTicks": 29,
            "midi": 61,
            "name": "C#4",
            "ticks": 630,
            "time": 3.7058805,
            "velocity": 0.6299212598425197
          },
          {
            "duration": 0.1705881499999995,
            "durationTicks": 29,
            "midi": 66,
            "name": "F#4",
            "ticks": 630,
            "time": 3.7058805,
            "velocity": 0.6299212598425197
          },
          {
            "duration": 0.1705881499999995,
            "durationTicks": 29,
            "midi": 57,
            "name": "A3",
            "ticks": 630,
            "time": 3.7058805,
            "velocity": 0.6299212598425197
          },
          {
            "duration": 0.3529410000000004,
            "durationTicks": 60,
            "midi": 69,
            "name": "A4",
            "ticks": 660,
            "time": 3.882351,
            "velocity": 0.6299212598425197
          },
          {
            "duration": 0.3529410000000004,
            "durationTicks": 60,
            "midi": 57,
            "name": "A3",
            "ticks": 660,
            "time": 3.882351,
            "velocity": 0.6299212598425197
          },
          {
            "duration": 0.3529410000000004,
            "durationTicks": 60,
            "midi": 61,
            "name": "C#4",
            "ticks": 660,
            "time": 3.882351,
            "velocity": 0.6299212598425197
          },
          {
            "duration": 0.3529410000000004,
            "durationTicks": 60,
            "midi": 64,
            "name": "E4",
            "ticks": 660,
            "time": 3.882351,
            "velocity": 0.6299212598425197
          },
          {
            "duration": 0.3529409999999995,
            "durationTicks": 60,
            "midi": 57,
            "name": "A3",
            "ticks": 720,
            "time": 4.235292,
            "velocity": 0.6299212598425197
          },
          {
            "duration": 0.3529409999999995,
            "durationTicks": 60,
            "midi": 61,
            "name": "C#4",
            "ticks": 720,
            "time": 4.235292,
            "velocity": 0.6299212598425197
          },
          {
            "duration": 0.3529409999999995,
            "durationTicks": 60,
            "midi": 66,
            "name": "F#4",
            "ticks": 720,
            "time": 4.235292,
            "velocity": 0.6299212598425197
          },
          {
            "duration": 0.3529410000000004,
            "durationTicks": 60,
            "midi": 69,
            "name": "A4",
            "ticks": 780,
            "time": 4.588233,
            "velocity": 0.6299212598425197
          },
          {
            "duration": 0.3529410000000004,
            "durationTicks": 60,
            "midi": 57,
            "name": "A3",
            "ticks": 780,
            "time": 4.588233,
            "velocity": 0.6299212598425197
          },
          {
            "duration": 0.3529410000000004,
            "durationTicks": 60,
            "midi": 64,
            "name": "E4",
            "ticks": 780,
            "time": 4.588233,
            "velocity": 0.6299212598425197
          },
          {
            "duration": 0.3529410000000004,
            "durationTicks": 60,
            "midi": 61,
            "name": "C#4",
            "ticks": 780,
            "time": 4.588233,
            "velocity": 0.6299212598425197
          },
          {
            "duration": 0.34705864999999925,
            "durationTicks": 59,
            "midi": 57,
            "name": "A3",
            "ticks": 840,
            "time": 4.941174,
            "velocity": 0.6299212598425197
          },
          {
            "duration": 0.34705864999999925,
            "durationTicks": 59,
            "midi": 61,
            "name": "C#4",
            "ticks": 840,
            "time": 4.941174,
            "velocity": 0.6299212598425197
          },
          {
            "duration": 0.34705864999999925,
            "durationTicks": 59,
            "midi": 66,
            "name": "F#4",
            "ticks": 840,
            "time": 4.941174,
            "velocity": 0.6299212598425197
          },
          {
            "duration": 0.17647050000000064,
            "durationTicks": 30,
            "midi": 58,
            "name": "A#3",
            "ticks": 990,
            "time": 5.8235265,
            "velocity": 0.6299212598425197
          },
          {
            "duration": 0.17647050000000064,
            "durationTicks": 30,
            "midi": 65,
            "name": "F4",
            "ticks": 990,
            "time": 5.8235265,
            "velocity": 0.6299212598425197
          },
          {
            "duration": 0.17647050000000064,
            "durationTicks": 30,
            "midi": 67,
            "name": "G4",
            "ticks": 990,
            "time": 5.8235265,
            "velocity": 0.6299212598425197
          },
          {
            "duration": 0.17647050000000064,
            "durationTicks": 30,
            "midi": 62,
            "name": "D4",
            "ticks": 990,
            "time": 5.8235265,
            "velocity": 0.6299212598425197
          },
          {
            "duration": 0.34705865000000014,
            "durationTicks": 59,
            "midi": 67,
            "name": "G4",
            "ticks": 1080,
            "time": 6.352938,
            "velocity": 0.6299212598425197
          },
          {
            "duration": 0.34705865000000014,
            "durationTicks": 59,
            "midi": 65,
            "name": "F4",
            "ticks": 1080,
            "time": 6.352938,
            "velocity": 0.6299212598425197
          },
          {
            "duration": 0.34705865000000014,
            "durationTicks": 59,
            "midi": 62,
            "name": "D4",
            "ticks": 1080,
            "time": 6.352938,
            "velocity": 0.6299212598425197
          },
          {
            "duration": 0.34705865000000014,
            "durationTicks": 59,
            "midi": 58,
            "name": "A#3",
            "ticks": 1080,
            "time": 6.352938,
            "velocity": 0.6299212598425197
          },
          {
            "duration": 0.17647049999999975,
            "durationTicks": 30,
            "midi": 67,
            "name": "G4",
            "ticks": 1230,
            "time": 7.2352905000000005,
            "velocity": 0.6299212598425197
          },
          {
            "duration": 0.17647049999999975,
            "durationTicks": 30,
            "midi": 64,
            "name": "E4",
            "ticks": 1230,
            "time": 7.2352905000000005,
            "velocity": 0.6299212598425197
          },
          {
            "duration": 0.17647049999999975,
            "durationTicks": 30,
            "midi": 62,
            "name": "D4",
            "ticks": 1230,
            "time": 7.2352905000000005,
            "velocity": 0.6299212598425197
          },
          {
            "duration": 0.17647049999999975,
            "durationTicks": 30,
            "midi": 58,
            "name": "A#3",
            "ticks": 1230,
            "time": 7.2352905000000005,
            "velocity": 0.6299212598425197
          },
          {
            "duration": 0.34705865000000014,
            "durationTicks": 59,
            "midi": 67,
            "name": "G4",
            "ticks": 1260,
            "time": 7.411761,
            "velocity": 0.6299212598425197
          },
          {
            "duration": 0.34705865000000014,
            "durationTicks": 59,
            "midi": 58,
            "name": "A#3",
            "ticks": 1260,
            "time": 7.411761,
            "velocity": 0.6299212598425197
          },
          {
            "duration": 0.34705865000000014,
            "durationTicks": 59,
            "midi": 62,
            "name": "D4",
            "ticks": 1260,
            "time": 7.411761,
            "velocity": 0.6299212598425197
          },
          {
            "duration": 0.34705865000000014,
            "durationTicks": 59,
            "midi": 64,
            "name": "E4",
            "ticks": 1260,
            "time": 7.411761,
            "velocity": 0.6299212598425197
          },
          {
            "duration": 0.5235291499999999,
            "durationTicks": 89,
            "midi": 67,
            "name": "G4",
            "ticks": 1350,
            "time": 7.9411725,
            "velocity": 0.6299212598425197
          },
          {
            "duration": 0.5235291499999999,
            "durationTicks": 89,
            "midi": 62,
            "name": "D4",
            "ticks": 1350,
            "time": 7.9411725,
            "velocity": 0.6299212598425197
          },
          {
            "duration": 0.5235291499999999,
            "durationTicks": 89,
            "midi": 59,
            "name": "B3",
            "ticks": 1350,
            "time": 7.9411725,
            "velocity": 0.6299212598425197
          },
          {
            "duration": 0.3529409999999995,
            "durationTicks": 60,
            "midi": 69,
            "name": "A4",
            "ticks": 1440,
            "time": 8.470584,
            "velocity": 0.6299212598425197
          },
          {
            "duration": 0.3529409999999995,
            "durationTicks": 60,
            "midi": 61,
            "name": "C#4",
            "ticks": 1440,
            "time": 8.470584,
            "velocity": 0.6299212598425197
          },
          {
            "duration": 0.3529409999999995,
            "durationTicks": 60,
            "midi": 66,
            "name": "F#4",
            "ticks": 1440,
            "time": 8.470584,
            "velocity": 0.6299212598425197
          },
          {
            "duration": 0.3529409999999995,
            "durationTicks": 60,
            "midi": 57,
            "name": "A3",
            "ticks": 1440,
            "time": 8.470584,
            "velocity": 0.6299212598425197
          },
          {
            "duration": 0.17647049999999886,
            "durationTicks": 30,
            "midi": 57,
            "name": "A3",
            "ticks": 1530,
            "time": 8.9999955,
            "velocity": 0.6299212598425197
          },
          {
            "duration": 0.17647049999999886,
            "durationTicks": 30,
            "midi": 61,
            "name": "C#4",
            "ticks": 1530,
            "time": 8.9999955,
            "velocity": 0.6299212598425197
          },
          {
            "duration": 0.17647049999999886,
            "durationTicks": 30,
            "midi": 66,
            "name": "F#4",
            "ticks": 1530,
            "time": 8.9999955,
            "velocity": 0.6299212598425197
          },
          {
            "duration": 0.17647050000000064,
            "durationTicks": 30,
            "midi": 61,
            "name": "C#4",
            "ticks": 1590,
            "time": 9.3529365,
            "velocity": 0.6299212598425197
          },
          {
            "duration": 0.17647050000000064,
            "durationTicks": 30,
            "midi": 66,
            "name": "F#4",
            "ticks": 1590,
            "time": 9.3529365,
            "velocity": 0.6299212598425197
          },
          {
            "duration": 0.17647050000000064,
            "durationTicks": 30,
            "midi": 57,
            "name": "A3",
            "ticks": 1590,
            "time": 9.3529365,
            "velocity": 0.6299212598425197
          },
          {
            "duration": 0.3529409999999995,
            "durationTicks": 60,
            "midi": 69,
            "name": "A4",
            "ticks": 1620,
            "time": 9.529407,
            "velocity": 0.6299212598425197
          },
          {
            "duration": 0.3529409999999995,
            "durationTicks": 60,
            "midi": 57,
            "name": "A3",
            "ticks": 1620,
            "time": 9.529407,
            "velocity": 0.6299212598425197
          },
          {
            "duration": 0.3529409999999995,
            "durationTicks": 60,
            "midi": 61,
            "name": "C#4",
            "ticks": 1620,
            "time": 9.529407,
            "velocity": 0.6299212598425197
          },
          {
            "duration": 0.3529409999999995,
            "durationTicks": 60,
            "midi": 64,
            "name": "E4",
            "ticks": 1620,
            "time": 9.529407,
            "velocity": 0.6299212598425197
          },
          {
            "duration": 0.3529409999999995,
            "durationTicks": 60,
            "midi": 57,
            "name": "A3",
            "ticks": 1680,
            "time": 9.882348,
            "velocity": 0.6299212598425197
          },
          {
            "duration": 0.3529409999999995,
            "durationTicks": 60,
            "midi": 61,
            "name": "C#4",
            "ticks": 1680,
            "time": 9.882348,
            "velocity": 0.6299212598425197
          },
          {
            "duration": 0.3529409999999995,
            "durationTicks": 60,
            "midi": 66,
            "name": "F#4",
            "ticks": 1680,
            "time": 9.882348,
            "velocity": 0.6299212598425197
          },
          {
            "duration": 0.3529409999999995,
            "durationTicks": 60,
            "midi": 69,
            "name": "A4",
            "ticks": 1740,
            "time": 10.235289,
            "velocity": 0.6299212598425197
          },
          {
            "duration": 0.3529409999999995,
            "durationTicks": 60,
            "midi": 57,
            "name": "A3",
            "ticks": 1740,
            "time": 10.235289,
            "velocity": 0.6299212598425197
          },
          {
            "duration": 0.3529409999999995,
            "durationTicks": 60,
            "midi": 64,
            "name": "E4",
            "ticks": 1740,
            "time": 10.235289,
            "velocity": 0.6299212598425197
          },
          {
            "duration": 0.3529409999999995,
            "durationTicks": 60,
            "midi": 61,
            "name": "C#4",
            "ticks": 1740,
            "time": 10.235289,
            "velocity": 0.6299212598425197
          },
          {
            "duration": 0.3529410000000013,
            "durationTicks": 60,
            "midi": 57,
            "name": "A3",
            "ticks": 1800,
            "time": 10.58823,
            "velocity": 0.6299212598425197
          },
          {
            "duration": 0.3529410000000013,
            "durationTicks": 60,
            "midi": 61,
            "name": "C#4",
            "ticks": 1800,
            "time": 10.58823,
            "velocity": 0.6299212598425197
          },
          {
            "duration": 0.3529410000000013,
            "durationTicks": 60,
            "midi": 66,
            "name": "F#4",
            "ticks": 1800,
            "time": 10.58823,
            "velocity": 0.6299212598425197
          },
          {
            "duration": 0.17647049999999886,
            "durationTicks": 30,
            "midi": 58,
            "name": "A#3",
            "ticks": 1950,
            "time": 11.4705825,
            "velocity": 0.6299212598425197
          },
          {
            "duration": 0.17647049999999886,
            "durationTicks": 30,
            "midi": 65,
            "name": "F4",
            "ticks": 1950,
            "time": 11.4705825,
            "velocity": 0.6299212598425197
          },
          {
            "duration": 0.17647049999999886,
            "durationTicks": 30,
            "midi": 67,
            "name": "G4",
            "ticks": 1950,
            "time": 11.4705825,
            "velocity": 0.6299212598425197
          },
          {
            "duration": 0.17647049999999886,
            "durationTicks": 30,
            "midi": 62,
            "name": "D4",
            "ticks": 1950,
            "time": 11.4705825,
            "velocity": 0.6299212598425197
          },
          {
            "duration": 0.3529409999999995,
            "durationTicks": 60,
            "midi": 58,
            "name": "A#3",
            "ticks": 2040,
            "time": 11.999994000000001,
            "velocity": 0.6299212598425197
          },
          {
            "duration": 0.3529409999999995,
            "durationTicks": 60,
            "midi": 62,
            "name": "D4",
            "ticks": 2040,
            "time": 11.999994000000001,
            "velocity": 0.6299212598425197
          },
          {
            "duration": 0.3529409999999995,
            "durationTicks": 60,
            "midi": 65,
            "name": "F4",
            "ticks": 2040,
            "time": 11.999994000000001,
            "velocity": 0.6299212598425197
          },
          {
            "duration": 0.3529409999999995,
            "durationTicks": 60,
            "midi": 67,
            "name": "G4",
            "ticks": 2040,
            "time": 11.999994000000001,
            "velocity": 0.6299212598425197
          },
          {
            "duration": 0.17647049999999886,
            "durationTicks": 30,
            "midi": 67,
            "name": "G4",
            "ticks": 2190,
            "time": 12.8823465,
            "velocity": 0.6299212598425197
          },
          {
            "duration": 0.17647049999999886,
            "durationTicks": 30,
            "midi": 64,
            "name": "E4",
            "ticks": 2190,
            "time": 12.8823465,
            "velocity": 0.6299212598425197
          },
          {
            "duration": 0.17647049999999886,
            "durationTicks": 30,
            "midi": 62,
            "name": "D4",
            "ticks": 2190,
            "time": 12.8823465,
            "velocity": 0.6299212598425197
          },
          {
            "duration": 0.17647049999999886,
            "durationTicks": 30,
            "midi": 58,
            "name": "A#3",
            "ticks": 2190,
            "time": 12.8823465,
            "velocity": 0.6299212598425197
          },
          {
            "duration": 0.3529410000000013,
            "durationTicks": 60,
            "midi": 67,
            "name": "G4",
            "ticks": 2220,
            "time": 13.058817,
            "velocity": 0.6299212598425197
          },
          {
            "duration": 0.3529410000000013,
            "durationTicks": 60,
            "midi": 58,
            "name": "A#3",
            "ticks": 2220,
            "time": 13.058817,
            "velocity": 0.6299212598425197
          },
          {
            "duration": 0.3529410000000013,
            "durationTicks": 60,
            "midi": 62,
            "name": "D4",
            "ticks": 2220,
            "time": 13.058817,
            "velocity": 0.6299212598425197
          },
          {
            "duration": 0.3529410000000013,
            "durationTicks": 60,
            "midi": 64,
            "name": "E4",
            "ticks": 2220,
            "time": 13.058817,
            "velocity": 0.6299212598425197
          },
          {
            "duration": 0.5235291500000017,
            "durationTicks": 89,
            "midi": 67,
            "name": "G4",
            "ticks": 2310,
            "time": 13.5882285,
            "velocity": 0.6299212598425197
          },
          {
            "duration": 0.5235291500000017,
            "durationTicks": 89,
            "midi": 62,
            "name": "D4",
            "ticks": 2310,
            "time": 13.5882285,
            "velocity": 0.6299212598425197
          },
          {
            "duration": 0.5235291500000017,
            "durationTicks": 89,
            "midi": 59,
            "name": "B3",
            "ticks": 2310,
            "time": 13.5882285,
            "velocity": 0.6299212598425197
          },
          {
            "duration": 0.3529410000000013,
            "durationTicks": 60,
            "midi": 69,
            "name": "A4",
            "ticks": 2400,
            "time": 14.11764,
            "velocity": 0.6299212598425197
          },
          {
            "duration": 0.3529410000000013,
            "durationTicks": 60,
            "midi": 66,
            "name": "F#4",
            "ticks": 2400,
            "time": 14.11764,
            "velocity": 0.6299212598425197
          },
          {
            "duration": 0.3529410000000013,
            "durationTicks": 60,
            "midi": 61,
            "name": "C#4",
            "ticks": 2400,
            "time": 14.11764,
            "velocity": 0.6299212598425197
          },
          {
            "duration": 0.3529410000000013,
            "durationTicks": 60,
            "midi": 57,
            "name": "A3",
            "ticks": 2400,
            "time": 14.11764,
            "velocity": 0.6299212598425197
          },
          {
            "duration": 0.17647050000000064,
            "durationTicks": 30,
            "midi": 57,
            "name": "A3",
            "ticks": 2490,
            "time": 14.6470515,
            "velocity": 0.6299212598425197
          },
          {
            "duration": 0.17647050000000064,
            "durationTicks": 30,
            "midi": 61,
            "name": "C#4",
            "ticks": 2490,
            "time": 14.6470515,
            "velocity": 0.6299212598425197
          },
          {
            "duration": 0.17647050000000064,
            "durationTicks": 30,
            "midi": 66,
            "name": "F#4",
            "ticks": 2490,
            "time": 14.6470515,
            "velocity": 0.6299212598425197
          },
          {
            "duration": 0.17647050000000064,
            "durationTicks": 30,
            "midi": 61,
            "name": "C#4",
            "ticks": 2550,
            "time": 14.9999925,
            "velocity": 0.6299212598425197
          },
          {
            "duration": 0.17647050000000064,
            "durationTicks": 30,
            "midi": 66,
            "name": "F#4",
            "ticks": 2550,
            "time": 14.9999925,
            "velocity": 0.6299212598425197
          },
          {
            "duration": 0.17647050000000064,
            "durationTicks": 30,
            "midi": 57,
            "name": "A3",
            "ticks": 2550,
            "time": 14.9999925,
            "velocity": 0.6299212598425197
          },
          {
            "duration": 0.3529409999999995,
            "durationTicks": 60,
            "midi": 69,
            "name": "A4",
            "ticks": 2580,
            "time": 15.176463,
            "velocity": 0.6299212598425197
          },
          {
            "duration": 0.3529409999999995,
            "durationTicks": 60,
            "midi": 57,
            "name": "A3",
            "ticks": 2580,
            "time": 15.176463,
            "velocity": 0.6299212598425197
          },
          {
            "duration": 0.3529409999999995,
            "durationTicks": 60,
            "midi": 61,
            "name": "C#4",
            "ticks": 2580,
            "time": 15.176463,
            "velocity": 0.6299212598425197
          },
          {
            "duration": 0.3529409999999995,
            "durationTicks": 60,
            "midi": 64,
            "name": "E4",
            "ticks": 2580,
            "time": 15.176463,
            "velocity": 0.6299212598425197
          },
          {
            "duration": 0.3529410000000013,
            "durationTicks": 60,
            "midi": 57,
            "name": "A3",
            "ticks": 2640,
            "time": 15.529404,
            "velocity": 0.6299212598425197
          },
          {
            "duration": 0.3529410000000013,
            "durationTicks": 60,
            "midi": 61,
            "name": "C#4",
            "ticks": 2640,
            "time": 15.529404,
            "velocity": 0.6299212598425197
          },
          {
            "duration": 0.3529410000000013,
            "durationTicks": 60,
            "midi": 66,
            "name": "F#4",
            "ticks": 2640,
            "time": 15.529404,
            "velocity": 0.6299212598425197
          },
          {
            "duration": 0.35294099999999773,
            "durationTicks": 60,
            "midi": 69,
            "name": "A4",
            "ticks": 2700,
            "time": 15.882345,
            "velocity": 0.6299212598425197
          },
          {
            "duration": 0.35294099999999773,
            "durationTicks": 60,
            "midi": 57,
            "name": "A3",
            "ticks": 2700,
            "time": 15.882345,
            "velocity": 0.6299212598425197
          },
          {
            "duration": 0.35294099999999773,
            "durationTicks": 60,
            "midi": 64,
            "name": "E4",
            "ticks": 2700,
            "time": 15.882345,
            "velocity": 0.6299212598425197
          },
          {
            "duration": 0.35294099999999773,
            "durationTicks": 60,
            "midi": 61,
            "name": "C#4",
            "ticks": 2700,
            "time": 15.882345,
            "velocity": 0.6299212598425197
          },
          {
            "duration": 0.3529410000000013,
            "durationTicks": 60,
            "midi": 57,
            "name": "A3",
            "ticks": 2760,
            "time": 16.235286,
            "velocity": 0.6299212598425197
          },
          {
            "duration": 0.3529410000000013,
            "durationTicks": 60,
            "midi": 61,
            "name": "C#4",
            "ticks": 2760,
            "time": 16.235286,
            "velocity": 0.6299212598425197
          },
          {
            "duration": 0.3529410000000013,
            "durationTicks": 60,
            "midi": 66,
            "name": "F#4",
            "ticks": 2760,
            "time": 16.235286,
            "velocity": 0.6299212598425197
          },
          {
            "duration": 0.1764704999999971,
            "durationTicks": 30,
            "midi": 58,
            "name": "A#3",
            "ticks": 2910,
            "time": 17.1176385,
            "velocity": 0.6299212598425197
          },
          {
            "duration": 0.1764704999999971,
            "durationTicks": 30,
            "midi": 65,
            "name": "F4",
            "ticks": 2910,
            "time": 17.1176385,
            "velocity": 0.6299212598425197
          },
          {
            "duration": 0.1764704999999971,
            "durationTicks": 30,
            "midi": 67,
            "name": "G4",
            "ticks": 2910,
            "time": 17.1176385,
            "velocity": 0.6299212598425197
          },
          {
            "duration": 0.1764704999999971,
            "durationTicks": 30,
            "midi": 62,
            "name": "D4",
            "ticks": 2910,
            "time": 17.1176385,
            "velocity": 0.6299212598425197
          },
          {
            "duration": 0.3529410000000013,
            "durationTicks": 60,
            "midi": 58,
            "name": "A#3",
            "ticks": 3000,
            "time": 17.64705,
            "velocity": 0.6299212598425197
          },
          {
            "duration": 0.3529410000000013,
            "durationTicks": 60,
            "midi": 62,
            "name": "D4",
            "ticks": 3000,
            "time": 17.64705,
            "velocity": 0.6299212598425197
          },
          {
            "duration": 0.3529410000000013,
            "durationTicks": 60,
            "midi": 65,
            "name": "F4",
            "ticks": 3000,
            "time": 17.64705,
            "velocity": 0.6299212598425197
          },
          {
            "duration": 0.3529410000000013,
            "durationTicks": 60,
            "midi": 67,
            "name": "G4",
            "ticks": 3000,
            "time": 17.64705,
            "velocity": 0.6299212598425197
          },
          {
            "duration": 0.17647050000000064,
            "durationTicks": 30,
            "midi": 67,
            "name": "G4",
            "ticks": 3150,
            "time": 18.5294025,
            "velocity": 0.6299212598425197
          },
          {
            "duration": 0.17647050000000064,
            "durationTicks": 30,
            "midi": 64,
            "name": "E4",
            "ticks": 3150,
            "time": 18.5294025,
            "velocity": 0.6299212598425197
          },
          {
            "duration": 0.17647050000000064,
            "durationTicks": 30,
            "midi": 62,
            "name": "D4",
            "ticks": 3150,
            "time": 18.5294025,
            "velocity": 0.6299212598425197
          },
          {
            "duration": 0.17647050000000064,
            "durationTicks": 30,
            "midi": 58,
            "name": "A#3",
            "ticks": 3150,
            "time": 18.5294025,
            "velocity": 0.6299212598425197
          },
          {
            "duration": 0.3529410000000013,
            "durationTicks": 60,
            "midi": 67,
            "name": "G4",
            "ticks": 3180,
            "time": 18.705873,
            "velocity": 0.6299212598425197
          },
          {
            "duration": 0.3529410000000013,
            "durationTicks": 60,
            "midi": 58,
            "name": "A#3",
            "ticks": 3180,
            "time": 18.705873,
            "velocity": 0.6299212598425197
          },
          {
            "duration": 0.3529410000000013,
            "durationTicks": 60,
            "midi": 62,
            "name": "D4",
            "ticks": 3180,
            "time": 18.705873,
            "velocity": 0.6299212598425197
          },
          {
            "duration": 0.3529410000000013,
            "durationTicks": 60,
            "midi": 64,
            "name": "E4",
            "ticks": 3180,
            "time": 18.705873,
            "velocity": 0.6299212598425197
          },
          {
            "duration": 0.5235291500000017,
            "durationTicks": 89,
            "midi": 67,
            "name": "G4",
            "ticks": 3270,
            "time": 19.2352845,
            "velocity": 0.6299212598425197
          },
          {
            "duration": 0.5235291500000017,
            "durationTicks": 89,
            "midi": 62,
            "name": "D4",
            "ticks": 3270,
            "time": 19.2352845,
            "velocity": 0.6299212598425197
          },
          {
            "duration": 0.5235291500000017,
            "durationTicks": 89,
            "midi": 59,
            "name": "B3",
            "ticks": 3270,
            "time": 19.2352845,
            "velocity": 0.6299212598425197
          },
          {
            "duration": 0.3529410000000013,
            "durationTicks": 60,
            "midi": 69,
            "name": "A4",
            "ticks": 3360,
            "time": 19.764696,
            "velocity": 0.6299212598425197
          },
          {
            "duration": 0.3529410000000013,
            "durationTicks": 60,
            "midi": 66,
            "name": "F#4",
            "ticks": 3360,
            "time": 19.764696,
            "velocity": 0.6299212598425197
          },
          {
            "duration": 0.3529410000000013,
            "durationTicks": 60,
            "midi": 61,
            "name": "C#4",
            "ticks": 3360,
            "time": 19.764696,
            "velocity": 0.6299212598425197
          },
          {
            "duration": 0.3529410000000013,
            "durationTicks": 60,
            "midi": 57,
            "name": "A3",
            "ticks": 3360,
            "time": 19.764696,
            "velocity": 0.6299212598425197
          },
          {
            "duration": 0.17647050000000064,
            "durationTicks": 30,
            "midi": 57,
            "name": "A3",
            "ticks": 3450,
            "time": 20.2941075,
            "velocity": 0.6299212598425197
          },
          {
            "duration": 0.17647050000000064,
            "durationTicks": 30,
            "midi": 61,
            "name": "C#4",
            "ticks": 3450,
            "time": 20.2941075,
            "velocity": 0.6299212598425197
          },
          {
            "duration": 0.17647050000000064,
            "durationTicks": 30,
            "midi": 66,
            "name": "F#4",
            "ticks": 3450,
            "time": 20.2941075,
            "velocity": 0.6299212598425197
          },
          {
            "duration": 0.17647050000000064,
            "durationTicks": 30,
            "midi": 61,
            "name": "C#4",
            "ticks": 3510,
            "time": 20.6470485,
            "velocity": 0.6299212598425197
          },
          {
            "duration": 0.17647050000000064,
            "durationTicks": 30,
            "midi": 66,
            "name": "F#4",
            "ticks": 3510,
            "time": 20.6470485,
            "velocity": 0.6299212598425197
          },
          {
            "duration": 0.17647050000000064,
            "durationTicks": 30,
            "midi": 57,
            "name": "A3",
            "ticks": 3510,
            "time": 20.6470485,
            "velocity": 0.6299212598425197
          },
          {
            "duration": 0.35294099999999773,
            "durationTicks": 60,
            "midi": 69,
            "name": "A4",
            "ticks": 3540,
            "time": 20.823519,
            "velocity": 0.6299212598425197
          },
          {
            "duration": 0.35294099999999773,
            "durationTicks": 60,
            "midi": 57,
            "name": "A3",
            "ticks": 3540,
            "time": 20.823519,
            "velocity": 0.6299212598425197
          },
          {
            "duration": 0.35294099999999773,
            "durationTicks": 60,
            "midi": 61,
            "name": "C#4",
            "ticks": 3540,
            "time": 20.823519,
            "velocity": 0.6299212598425197
          },
          {
            "duration": 0.35294099999999773,
            "durationTicks": 60,
            "midi": 64,
            "name": "E4",
            "ticks": 3540,
            "time": 20.823519,
            "velocity": 0.6299212598425197
          },
          {
            "duration": 0.3529410000000013,
            "durationTicks": 60,
            "midi": 57,
            "name": "A3",
            "ticks": 3600,
            "time": 21.17646,
            "velocity": 0.6299212598425197
          },
          {
            "duration": 0.3529410000000013,
            "durationTicks": 60,
            "midi": 61,
            "name": "C#4",
            "ticks": 3600,
            "time": 21.17646,
            "velocity": 0.6299212598425197
          },
          {
            "duration": 0.3529410000000013,
            "durationTicks": 60,
            "midi": 66,
            "name": "F#4",
            "ticks": 3600,
            "time": 21.17646,
            "velocity": 0.6299212598425197
          },
          {
            "duration": 0.3529410000000013,
            "durationTicks": 60,
            "midi": 69,
            "name": "A4",
            "ticks": 3660,
            "time": 21.529401,
            "velocity": 0.6299212598425197
          },
          {
            "duration": 0.3529410000000013,
            "durationTicks": 60,
            "midi": 57,
            "name": "A3",
            "ticks": 3660,
            "time": 21.529401,
            "velocity": 0.6299212598425197
          },
          {
            "duration": 0.3529410000000013,
            "durationTicks": 60,
            "midi": 64,
            "name": "E4",
            "ticks": 3660,
            "time": 21.529401,
            "velocity": 0.6299212598425197
          },
          {
            "duration": 0.3529410000000013,
            "durationTicks": 60,
            "midi": 61,
            "name": "C#4",
            "ticks": 3660,
            "time": 21.529401,
            "velocity": 0.6299212598425197
          },
          {
            "duration": 0.35294099999999773,
            "durationTicks": 60,
            "midi": 57,
            "name": "A3",
            "ticks": 3720,
            "time": 21.882342,
            "velocity": 0.6299212598425197
          },
          {
            "duration": 0.35294099999999773,
            "durationTicks": 60,
            "midi": 61,
            "name": "C#4",
            "ticks": 3720,
            "time": 21.882342,
            "velocity": 0.6299212598425197
          },
          {
            "duration": 0.35294099999999773,
            "durationTicks": 60,
            "midi": 66,
            "name": "F#4",
            "ticks": 3720,
            "time": 21.882342,
            "velocity": 0.6299212598425197
          },
          {
            "duration": 0.17647050000000064,
            "durationTicks": 30,
            "midi": 58,
            "name": "A#3",
            "ticks": 3870,
            "time": 22.7646945,
            "velocity": 0.6299212598425197
          },
          {
            "duration": 0.17647050000000064,
            "durationTicks": 30,
            "midi": 65,
            "name": "F4",
            "ticks": 3870,
            "time": 22.7646945,
            "velocity": 0.6299212598425197
          },
          {
            "duration": 0.17647050000000064,
            "durationTicks": 30,
            "midi": 67,
            "name": "G4",
            "ticks": 3870,
            "time": 22.7646945,
            "velocity": 0.6299212598425197
          },
          {
            "duration": 0.17647050000000064,
            "durationTicks": 30,
            "midi": 62,
            "name": "D4",
            "ticks": 3870,
            "time": 22.7646945,
            "velocity": 0.6299212598425197
          },
          {
            "duration": 0.3529410000000013,
            "durationTicks": 60,
            "midi": 58,
            "name": "A#3",
            "ticks": 3960,
            "time": 23.294106,
            "velocity": 0.6299212598425197
          },
          {
            "duration": 0.3529410000000013,
            "durationTicks": 60,
            "midi": 62,
            "name": "D4",
            "ticks": 3960,
            "time": 23.294106,
            "velocity": 0.6299212598425197
          },
          {
            "duration": 0.3529410000000013,
            "durationTicks": 60,
            "midi": 65,
            "name": "F4",
            "ticks": 3960,
            "time": 23.294106,
            "velocity": 0.6299212598425197
          },
          {
            "duration": 0.3529410000000013,
            "durationTicks": 60,
            "midi": 67,
            "name": "G4",
            "ticks": 3960,
            "time": 23.294106,
            "velocity": 0.6299212598425197
          },
          {
            "duration": 0.5294115000000019,
            "durationTicks": 90,
            "midi": 58,
            "name": "A#3",
            "ticks": 4110,
            "time": 24.1764585,
            "velocity": 0.6299212598425197
          },
          {
            "duration": 0.5294115000000019,
            "durationTicks": 90,
            "midi": 62,
            "name": "D4",
            "ticks": 4110,
            "time": 24.1764585,
            "velocity": 0.6299212598425197
          },
          {
            "duration": 0.5294115000000019,
            "durationTicks": 90,
            "midi": 64,
            "name": "E4",
            "ticks": 4110,
            "time": 24.1764585,
            "velocity": 0.6299212598425197
          },
          {
            "duration": 0.5294115000000019,
            "durationTicks": 90,
            "midi": 67,
            "name": "G4",
            "ticks": 4110,
            "time": 24.1764585,
            "velocity": 0.6299212598425197
          },
          {
            "duration": 0.5235291499999981,
            "durationTicks": 89,
            "midi": 67,
            "name": "G4",
            "ticks": 4230,
            "time": 24.8823405,
            "velocity": 0.6299212598425197
          },
          {
            "duration": 0.5235291499999981,
            "durationTicks": 89,
            "midi": 62,
            "name": "D4",
            "ticks": 4230,
            "time": 24.8823405,
            "velocity": 0.6299212598425197
          },
          {
            "duration": 0.5235291499999981,
            "durationTicks": 89,
            "midi": 59,
            "name": "B3",
            "ticks": 4230,
            "time": 24.8823405,
            "velocity": 0.6299212598425197
          },
          {
            "duration": 0.3529410000000013,
            "durationTicks": 60,
            "midi": 61,
            "name": "C#4",
            "ticks": 4320,
            "time": 25.411752,
            "velocity": 0.6299212598425197
          },
          {
            "duration": 0.3529410000000013,
            "durationTicks": 60,
            "midi": 66,
            "name": "F#4",
            "ticks": 4320,
            "time": 25.411752,
            "velocity": 0.6299212598425197
          },
          {
            "duration": 0.3529410000000013,
            "durationTicks": 60,
            "midi": 57,
            "name": "A3",
            "ticks": 4320,
            "time": 25.411752,
            "velocity": 0.6299212598425197
          },
          {
            "duration": 0.1764704999999971,
            "durationTicks": 30,
            "midi": 57,
            "name": "A3",
            "ticks": 4410,
            "time": 25.941163500000002,
            "velocity": 0.6299212598425197
          },
          {
            "duration": 0.1764704999999971,
            "durationTicks": 30,
            "midi": 61,
            "name": "C#4",
            "ticks": 4410,
            "time": 25.941163500000002,
            "velocity": 0.6299212598425197
          },
          {
            "duration": 0.1764704999999971,
            "durationTicks": 30,
            "midi": 66,
            "name": "F#4",
            "ticks": 4410,
            "time": 25.941163500000002,
            "velocity": 0.6299212598425197
          },
          {
            "duration": 0.17647050000000064,
            "durationTicks": 30,
            "midi": 61,
            "name": "C#4",
            "ticks": 4470,
            "time": 26.2941045,
            "velocity": 0.6299212598425197
          },
          {
            "duration": 0.17647050000000064,
            "durationTicks": 30,
            "midi": 66,
            "name": "F#4",
            "ticks": 4470,
            "time": 26.2941045,
            "velocity": 0.6299212598425197
          },
          {
            "duration": 0.17647050000000064,
            "durationTicks": 30,
            "midi": 57,
            "name": "A3",
            "ticks": 4470,
            "time": 26.2941045,
            "velocity": 0.6299212598425197
          },
          {
            "duration": 0.3529410000000013,
            "durationTicks": 60,
            "midi": 57,
            "name": "A3",
            "ticks": 4500,
            "time": 26.470575,
            "velocity": 0.6299212598425197
          },
          {
            "duration": 0.3529410000000013,
            "durationTicks": 60,
            "midi": 61,
            "name": "C#4",
            "ticks": 4500,
            "time": 26.470575,
            "velocity": 0.6299212598425197
          },
          {
            "duration": 0.3529410000000013,
            "durationTicks": 60,
            "midi": 64,
            "name": "E4",
            "ticks": 4500,
            "time": 26.470575,
            "velocity": 0.6299212598425197
          },
          {
            "duration": 0.35294099999999773,
            "durationTicks": 60,
            "midi": 57,
            "name": "A3",
            "ticks": 4560,
            "time": 26.823516,
            "velocity": 0.6299212598425197
          },
          {
            "duration": 0.35294099999999773,
            "durationTicks": 60,
            "midi": 61,
            "name": "C#4",
            "ticks": 4560,
            "time": 26.823516,
            "velocity": 0.6299212598425197
          },
          {
            "duration": 0.35294099999999773,
            "durationTicks": 60,
            "midi": 66,
            "name": "F#4",
            "ticks": 4560,
            "time": 26.823516,
            "velocity": 0.6299212598425197
          },
          {
            "duration": 0.3529410000000013,
            "durationTicks": 60,
            "midi": 57,
            "name": "A3",
            "ticks": 4620,
            "time": 27.176457,
            "velocity": 0.6299212598425197
          },
          {
            "duration": 0.3529410000000013,
            "durationTicks": 60,
            "midi": 64,
            "name": "E4",
            "ticks": 4620,
            "time": 27.176457,
            "velocity": 0.6299212598425197
          },
          {
            "duration": 0.3529410000000013,
            "durationTicks": 60,
            "midi": 61,
            "name": "C#4",
            "ticks": 4620,
            "time": 27.176457,
            "velocity": 0.6299212598425197
          },
          {
            "duration": 0.3529410000000013,
            "durationTicks": 60,
            "midi": 57,
            "name": "A3",
            "ticks": 4680,
            "time": 27.529398,
            "velocity": 0.6299212598425197
          },
          {
            "duration": 0.3529410000000013,
            "durationTicks": 60,
            "midi": 61,
            "name": "C#4",
            "ticks": 4680,
            "time": 27.529398,
            "velocity": 0.6299212598425197
          },
          {
            "duration": 0.3529410000000013,
            "durationTicks": 60,
            "midi": 66,
            "name": "F#4",
            "ticks": 4680,
            "time": 27.529398,
            "velocity": 0.6299212598425197
          },
          {
            "duration": 0.3529410000000013,
            "durationTicks": 60,
            "midi": 65,
            "name": "F4",
            "ticks": 4800,
            "time": 28.23528,
            "velocity": 0.6299212598425197
          },
          {
            "duration": 0.3529410000000013,
            "durationTicks": 60,
            "midi": 61,
            "name": "C#4",
            "ticks": 4800,
            "time": 28.23528,
            "velocity": 0.6299212598425197
          },
          {
            "duration": 0.3529410000000013,
            "durationTicks": 60,
            "midi": 59,
            "name": "B3",
            "ticks": 4800,
            "time": 28.23528,
            "velocity": 0.6299212598425197
          },
          {
            "duration": 0.17647050000000064,
            "durationTicks": 30,
            "midi": 65,
            "name": "F4",
            "ticks": 4890,
            "time": 28.7646915,
            "velocity": 0.6299212598425197
          },
          {
            "duration": 0.17647050000000064,
            "durationTicks": 30,
            "midi": 61,
            "name": "C#4",
            "ticks": 4890,
            "time": 28.7646915,
            "velocity": 0.6299212598425197
          },
          {
            "duration": 0.17647050000000064,
            "durationTicks": 30,
            "midi": 59,
            "name": "B3",
            "ticks": 4890,
            "time": 28.7646915,
            "velocity": 0.6299212598425197
          },
          {
            "duration": 0.17647050000000064,
            "durationTicks": 30,
            "midi": 65,
            "name": "F4",
            "ticks": 4950,
            "time": 29.1176325,
            "velocity": 0.6299212598425197
          },
          {
            "duration": 0.17647050000000064,
            "durationTicks": 30,
            "midi": 61,
            "name": "C#4",
            "ticks": 4950,
            "time": 29.1176325,
            "velocity": 0.6299212598425197
          },
          {
            "duration": 0.17647050000000064,
            "durationTicks": 30,
            "midi": 59,
            "name": "B3",
            "ticks": 4950,
            "time": 29.1176325,
            "velocity": 0.6299212598425197
          },
          {
            "duration": 0.3529410000000013,
            "durationTicks": 60,
            "midi": 66,
            "name": "F#4",
            "ticks": 5010,
            "time": 29.4705735,
            "velocity": 0.6299212598425197
          },
          {
            "duration": 0.3529410000000013,
            "durationTicks": 60,
            "midi": 59,
            "name": "B3",
            "ticks": 5010,
            "time": 29.4705735,
            "velocity": 0.6299212598425197
          },
          {
            "duration": 0.3529410000000013,
            "durationTicks": 60,
            "midi": 61,
            "name": "C#4",
            "ticks": 5010,
            "time": 29.4705735,
            "velocity": 0.6299212598425197
          },
          {
            "duration": 0.1764704999999971,
            "durationTicks": 30,
            "midi": 66,
            "name": "F#4",
            "ticks": 5070,
            "time": 29.8235145,
            "velocity": 0.6299212598425197
          },
          {
            "duration": 0.1764704999999971,
            "durationTicks": 30,
            "midi": 61,
            "name": "C#4",
            "ticks": 5070,
            "time": 29.8235145,
            "velocity": 0.6299212598425197
          },
          {
            "duration": 0.1764704999999971,
            "durationTicks": 30,
            "midi": 59,
            "name": "B3",
            "ticks": 5070,
            "time": 29.8235145,
            "velocity": 0.6299212598425197
          },
          {
            "duration": 0.3529410000000013,
            "durationTicks": 60,
            "midi": 66,
            "name": "F#4",
            "ticks": 5100,
            "time": 29.999985,
            "velocity": 0.6299212598425197
          },
          {
            "duration": 0.3529410000000013,
            "durationTicks": 60,
            "midi": 61,
            "name": "C#4",
            "ticks": 5100,
            "time": 29.999985,
            "velocity": 0.6299212598425197
          },
          {
            "duration": 0.3529410000000013,
            "durationTicks": 60,
            "midi": 59,
            "name": "B3",
            "ticks": 5100,
            "time": 29.999985,
            "velocity": 0.6299212598425197
          },
          {
            "duration": 0.705881999999999,
            "durationTicks": 120,
            "midi": 65,
            "name": "F4",
            "ticks": 5160,
            "time": 30.352926,
            "velocity": 0.6299212598425197
          },
          {
            "duration": 0.705881999999999,
            "durationTicks": 120,
            "midi": 61,
            "name": "C#4",
            "ticks": 5160,
            "time": 30.352926,
            "velocity": 0.6299212598425197
          },
          {
            "duration": 0.705881999999999,
            "durationTicks": 120,
            "midi": 59,
            "name": "B3",
            "ticks": 5160,
            "time": 30.352926,
            "velocity": 0.6299212598425197
          },
          {
            "duration": 0.3529410000000013,
            "durationTicks": 60,
            "midi": 60,
            "name": "C4",
            "ticks": 5280,
            "time": 31.058808,
            "velocity": 0.6299212598425197
          },
          {
            "duration": 0.3529410000000013,
            "durationTicks": 60,
            "midi": 57,
            "name": "A3",
            "ticks": 5280,
            "time": 31.058808,
            "velocity": 0.6299212598425197
          },
          {
            "duration": 0.3529410000000013,
            "durationTicks": 60,
            "midi": 52,
            "name": "E3",
            "ticks": 5280,
            "time": 31.058808,
            "velocity": 0.6299212598425197
          },
          {
            "duration": 0.17647050000000064,
            "durationTicks": 30,
            "midi": 60,
            "name": "C4",
            "ticks": 5370,
            "time": 31.5882195,
            "velocity": 0.6299212598425197
          },
          {
            "duration": 0.17647050000000064,
            "durationTicks": 30,
            "midi": 57,
            "name": "A3",
            "ticks": 5370,
            "time": 31.5882195,
            "velocity": 0.6299212598425197
          },
          {
            "duration": 0.17647050000000064,
            "durationTicks": 30,
            "midi": 52,
            "name": "E3",
            "ticks": 5370,
            "time": 31.5882195,
            "velocity": 0.6299212598425197
          },
          {
            "duration": 0.1764705000000042,
            "durationTicks": 30,
            "midi": 60,
            "name": "C4",
            "ticks": 5430,
            "time": 31.9411605,
            "velocity": 0.6299212598425197
          },
          {
            "duration": 0.1764705000000042,
            "durationTicks": 30,
            "midi": 57,
            "name": "A3",
            "ticks": 5430,
            "time": 31.9411605,
            "velocity": 0.6299212598425197
          },
          {
            "duration": 0.1764705000000042,
            "durationTicks": 30,
            "midi": 52,
            "name": "E3",
            "ticks": 5430,
            "time": 31.9411605,
            "velocity": 0.6299212598425197
          },
          {
            "duration": 0.3529409999999942,
            "durationTicks": 60,
            "midi": 59,
            "name": "B3",
            "ticks": 5460,
            "time": 32.117631,
            "velocity": 0.6299212598425197
          },
          {
            "duration": 0.3529409999999942,
            "durationTicks": 60,
            "midi": 57,
            "name": "A3",
            "ticks": 5460,
            "time": 32.117631,
            "velocity": 0.6299212598425197
          },
          {
            "duration": 0.3529409999999942,
            "durationTicks": 60,
            "midi": 52,
            "name": "E3",
            "ticks": 5460,
            "time": 32.117631,
            "velocity": 0.6299212598425197
          },
          {
            "duration": 0.3529410000000013,
            "durationTicks": 60,
            "midi": 52,
            "name": "E3",
            "ticks": 5520,
            "time": 32.470572,
            "velocity": 0.6299212598425197
          },
          {
            "duration": 0.3529410000000013,
            "durationTicks": 60,
            "midi": 60,
            "name": "C4",
            "ticks": 5520,
            "time": 32.470572,
            "velocity": 0.6299212598425197
          },
          {
            "duration": 0.3529410000000013,
            "durationTicks": 60,
            "midi": 57,
            "name": "A3",
            "ticks": 5520,
            "time": 32.470572,
            "velocity": 0.6299212598425197
          },
          {
            "duration": 0.3529410000000013,
            "durationTicks": 60,
            "midi": 52,
            "name": "E3",
            "ticks": 5580,
            "time": 32.823513,
            "velocity": 0.6299212598425197
          },
          {
            "duration": 0.3529410000000013,
            "durationTicks": 60,
            "midi": 59,
            "name": "B3",
            "ticks": 5580,
            "time": 32.823513,
            "velocity": 0.6299212598425197
          },
          {
            "duration": 0.3529410000000013,
            "durationTicks": 60,
            "midi": 57,
            "name": "A3",
            "ticks": 5580,
            "time": 32.823513,
            "velocity": 0.6299212598425197
          },
          {
            "duration": 0.3529410000000013,
            "durationTicks": 60,
            "midi": 60,
            "name": "C4",
            "ticks": 5640,
            "time": 33.176454,
            "velocity": 0.6299212598425197
          },
          {
            "duration": 0.3529410000000013,
            "durationTicks": 60,
            "midi": 57,
            "name": "A3",
            "ticks": 5640,
            "time": 33.176454,
            "velocity": 0.6299212598425197
          },
          {
            "duration": 0.3529410000000013,
            "durationTicks": 60,
            "midi": 52,
            "name": "E3",
            "ticks": 5640,
            "time": 33.176454,
            "velocity": 0.6299212598425197
          },
          {
            "duration": 0.3529410000000013,
            "durationTicks": 60,
            "midi": 51,
            "name": "D#3",
            "ticks": 5760,
            "time": 33.882336,
            "velocity": 0.6299212598425197
          },
          {
            "duration": 0.3529410000000013,
            "durationTicks": 60,
            "midi": 62,
            "name": "D4",
            "ticks": 5760,
            "time": 33.882336,
            "velocity": 0.6299212598425197
          },
          {
            "duration": 0.3529410000000013,
            "durationTicks": 60,
            "midi": 57,
            "name": "A3",
            "ticks": 5760,
            "time": 33.882336,
            "velocity": 0.6299212598425197
          },
          {
            "duration": 0.3529410000000013,
            "durationTicks": 60,
            "midi": 55,
            "name": "G3",
            "ticks": 5760,
            "time": 33.882336,
            "velocity": 0.6299212598425197
          },
          {
            "duration": 0.17647050000000064,
            "durationTicks": 30,
            "midi": 51,
            "name": "D#3",
            "ticks": 5850,
            "time": 34.4117475,
            "velocity": 0.6299212598425197
          },
          {
            "duration": 0.17647050000000064,
            "durationTicks": 30,
            "midi": 62,
            "name": "D4",
            "ticks": 5850,
            "time": 34.4117475,
            "velocity": 0.6299212598425197
          },
          {
            "duration": 0.17647050000000064,
            "durationTicks": 30,
            "midi": 55,
            "name": "G3",
            "ticks": 5850,
            "time": 34.4117475,
            "velocity": 0.6299212598425197
          },
          {
            "duration": 0.17647050000000064,
            "durationTicks": 30,
            "midi": 57,
            "name": "A3",
            "ticks": 5850,
            "time": 34.4117475,
            "velocity": 0.6299212598425197
          },
          {
            "duration": 0.17647050000000064,
            "durationTicks": 30,
            "midi": 62,
            "name": "D4",
            "ticks": 5910,
            "time": 34.7646885,
            "velocity": 0.6299212598425197
          },
          {
            "duration": 0.17647050000000064,
            "durationTicks": 30,
            "midi": 55,
            "name": "G3",
            "ticks": 5910,
            "time": 34.7646885,
            "velocity": 0.6299212598425197
          },
          {
            "duration": 0.17647050000000064,
            "durationTicks": 30,
            "midi": 57,
            "name": "A3",
            "ticks": 5910,
            "time": 34.7646885,
            "velocity": 0.6299212598425197
          },
          {
            "duration": 0.17647050000000064,
            "durationTicks": 30,
            "midi": 51,
            "name": "D#3",
            "ticks": 5910,
            "time": 34.7646885,
            "velocity": 0.6299212598425197
          },
          {
            "duration": 0.3529410000000013,
            "durationTicks": 60,
            "midi": 51,
            "name": "D#3",
            "ticks": 5970,
            "time": 35.1176295,
            "velocity": 0.6299212598425197
          },
          {
            "duration": 0.3529410000000013,
            "durationTicks": 60,
            "midi": 55,
            "name": "G3",
            "ticks": 5970,
            "time": 35.1176295,
            "velocity": 0.6299212598425197
          },
          {
            "duration": 0.3529410000000013,
            "durationTicks": 60,
            "midi": 57,
            "name": "A3",
            "ticks": 5970,
            "time": 35.1176295,
            "velocity": 0.6299212598425197
          },
          {
            "duration": 0.3529410000000013,
            "durationTicks": 60,
            "midi": 60,
            "name": "C4",
            "ticks": 5970,
            "time": 35.1176295,
            "velocity": 0.6299212598425197
          },
          {
            "duration": 0.17647050000000064,
            "durationTicks": 30,
            "midi": 51,
            "name": "D#3",
            "ticks": 6030,
            "time": 35.4705705,
            "velocity": 0.6299212598425197
          },
          {
            "duration": 0.17647050000000064,
            "durationTicks": 30,
            "midi": 60,
            "name": "C4",
            "ticks": 6030,
            "time": 35.4705705,
            "velocity": 0.6299212598425197
          },
          {
            "duration": 0.17647050000000064,
            "durationTicks": 30,
            "midi": 57,
            "name": "A3",
            "ticks": 6030,
            "time": 35.4705705,
            "velocity": 0.6299212598425197
          },
          {
            "duration": 0.17647050000000064,
            "durationTicks": 30,
            "midi": 55,
            "name": "G3",
            "ticks": 6030,
            "time": 35.4705705,
            "velocity": 0.6299212598425197
          },
          {
            "duration": 0.3529410000000013,
            "durationTicks": 60,
            "midi": 60,
            "name": "C4",
            "ticks": 6060,
            "time": 35.647041,
            "velocity": 0.6299212598425197
          },
          {
            "duration": 0.3529410000000013,
            "durationTicks": 60,
            "midi": 57,
            "name": "A3",
            "ticks": 6060,
            "time": 35.647041,
            "velocity": 0.6299212598425197
          },
          {
            "duration": 0.3529410000000013,
            "durationTicks": 60,
            "midi": 55,
            "name": "G3",
            "ticks": 6060,
            "time": 35.647041,
            "velocity": 0.6299212598425197
          },
          {
            "duration": 0.3529410000000013,
            "durationTicks": 60,
            "midi": 51,
            "name": "D#3",
            "ticks": 6060,
            "time": 35.647041,
            "velocity": 0.6299212598425197
          },
          {
            "duration": 0.7058819999999955,
            "durationTicks": 120,
            "midi": 60,
            "name": "C4",
            "ticks": 6120,
            "time": 35.999982,
            "velocity": 0.6299212598425197
          },
          {
            "duration": 0.7058819999999955,
            "durationTicks": 120,
            "midi": 55,
            "name": "G3",
            "ticks": 6120,
            "time": 35.999982,
            "velocity": 0.6299212598425197
          },
          {
            "duration": 0.7058819999999955,
            "durationTicks": 120,
            "midi": 57,
            "name": "A3",
            "ticks": 6120,
            "time": 35.999982,
            "velocity": 0.6299212598425197
          },
          {
            "duration": 0.7058819999999955,
            "durationTicks": 120,
            "midi": 51,
            "name": "D#3",
            "ticks": 6120,
            "time": 35.999982,
            "velocity": 0.6299212598425197
          },
          {
            "duration": 0.3529410000000013,
            "durationTicks": 60,
            "midi": 66,
            "name": "F#4",
            "ticks": 6240,
            "time": 36.705864,
            "velocity": 0.6299212598425197
          },
          {
            "duration": 0.3529410000000013,
            "durationTicks": 60,
            "midi": 62,
            "name": "D4",
            "ticks": 6240,
            "time": 36.705864,
            "velocity": 0.6299212598425197
          },
          {
            "duration": 0.3529410000000013,
            "durationTicks": 60,
            "midi": 59,
            "name": "B3",
            "ticks": 6240,
            "time": 36.705864,
            "velocity": 0.6299212598425197
          },
          {
            "duration": 0.3529410000000013,
            "durationTicks": 60,
            "midi": 55,
            "name": "G3",
            "ticks": 6240,
            "time": 36.705864,
            "velocity": 0.6299212598425197
          },
          {
            "duration": 0.17647050000000064,
            "durationTicks": 30,
            "midi": 62,
            "name": "D4",
            "ticks": 6330,
            "time": 37.2352755,
            "velocity": 0.6299212598425197
          },
          {
            "duration": 0.17647050000000064,
            "durationTicks": 30,
            "midi": 59,
            "name": "B3",
            "ticks": 6330,
            "time": 37.2352755,
            "velocity": 0.6299212598425197
          },
          {
            "duration": 0.17647050000000064,
            "durationTicks": 30,
            "midi": 55,
            "name": "G3",
            "ticks": 6330,
            "time": 37.2352755,
            "velocity": 0.6299212598425197
          },
          {
            "duration": 0.17647050000000064,
            "durationTicks": 30,
            "midi": 66,
            "name": "F#4",
            "ticks": 6330,
            "time": 37.2352755,
            "velocity": 0.6299212598425197
          },
          {
            "duration": 0.17647050000000064,
            "durationTicks": 30,
            "midi": 62,
            "name": "D4",
            "ticks": 6390,
            "time": 37.5882165,
            "velocity": 0.6299212598425197
          },
          {
            "duration": 0.17647050000000064,
            "durationTicks": 30,
            "midi": 59,
            "name": "B3",
            "ticks": 6390,
            "time": 37.5882165,
            "velocity": 0.6299212598425197
          },
          {
            "duration": 0.17647050000000064,
            "durationTicks": 30,
            "midi": 55,
            "name": "G3",
            "ticks": 6390,
            "time": 37.5882165,
            "velocity": 0.6299212598425197
          },
          {
            "duration": 0.17647050000000064,
            "durationTicks": 30,
            "midi": 66,
            "name": "F#4",
            "ticks": 6390,
            "time": 37.5882165,
            "velocity": 0.6299212598425197
          },
          {
            "duration": 0.3529410000000013,
            "durationTicks": 60,
            "midi": 62,
            "name": "D4",
            "ticks": 6420,
            "time": 37.764687,
            "velocity": 0.6299212598425197
          },
          {
            "duration": 0.3529410000000013,
            "durationTicks": 60,
            "midi": 59,
            "name": "B3",
            "ticks": 6420,
            "time": 37.764687,
            "velocity": 0.6299212598425197
          },
          {
            "duration": 0.3529410000000013,
            "durationTicks": 60,
            "midi": 55,
            "name": "G3",
            "ticks": 6420,
            "time": 37.764687,
            "velocity": 0.6299212598425197
          },
          {
            "duration": 0.3529410000000013,
            "durationTicks": 60,
            "midi": 64,
            "name": "E4",
            "ticks": 6420,
            "time": 37.764687,
            "velocity": 0.6299212598425197
          },
          {
            "duration": 0.3529409999999942,
            "durationTicks": 60,
            "midi": 62,
            "name": "D4",
            "ticks": 6480,
            "time": 38.117628,
            "velocity": 0.6299212598425197
          },
          {
            "duration": 0.3529409999999942,
            "durationTicks": 60,
            "midi": 59,
            "name": "B3",
            "ticks": 6480,
            "time": 38.117628,
            "velocity": 0.6299212598425197
          },
          {
            "duration": 0.3529409999999942,
            "durationTicks": 60,
            "midi": 55,
            "name": "G3",
            "ticks": 6480,
            "time": 38.117628,
            "velocity": 0.6299212598425197
          },
          {
            "duration": 0.3529409999999942,
            "durationTicks": 60,
            "midi": 66,
            "name": "F#4",
            "ticks": 6480,
            "time": 38.117628,
            "velocity": 0.6299212598425197
          },
          {
            "duration": 0.3529410000000013,
            "durationTicks": 60,
            "midi": 62,
            "name": "D4",
            "ticks": 6540,
            "time": 38.470569,
            "velocity": 0.6299212598425197
          },
          {
            "duration": 0.3529410000000013,
            "durationTicks": 60,
            "midi": 59,
            "name": "B3",
            "ticks": 6540,
            "time": 38.470569,
            "velocity": 0.6299212598425197
          },
          {
            "duration": 0.3529410000000013,
            "durationTicks": 60,
            "midi": 55,
            "name": "G3",
            "ticks": 6540,
            "time": 38.470569,
            "velocity": 0.6299212598425197
          },
          {
            "duration": 0.3529410000000013,
            "durationTicks": 60,
            "midi": 64,
            "name": "E4",
            "ticks": 6540,
            "time": 38.470569,
            "velocity": 0.6299212598425197
          },
          {
            "duration": 0.3529410000000013,
            "durationTicks": 60,
            "midi": 62,
            "name": "D4",
            "ticks": 6600,
            "time": 38.82351,
            "velocity": 0.6299212598425197
          },
          {
            "duration": 0.3529410000000013,
            "durationTicks": 60,
            "midi": 59,
            "name": "B3",
            "ticks": 6600,
            "time": 38.82351,
            "velocity": 0.6299212598425197
          },
          {
            "duration": 0.3529410000000013,
            "durationTicks": 60,
            "midi": 55,
            "name": "G3",
            "ticks": 6600,
            "time": 38.82351,
            "velocity": 0.6299212598425197
          },
          {
            "duration": 0.3529410000000013,
            "durationTicks": 60,
            "midi": 66,
            "name": "F#4",
            "ticks": 6600,
            "time": 38.82351,
            "velocity": 0.6299212598425197
          },
          {
            "duration": 0.3529410000000013,
            "durationTicks": 60,
            "midi": 66,
            "name": "F#4",
            "ticks": 6720,
            "time": 39.529392,
            "velocity": 0.6299212598425197
          },
          {
            "duration": 0.3529410000000013,
            "durationTicks": 60,
            "midi": 62,
            "name": "D4",
            "ticks": 6720,
            "time": 39.529392,
            "velocity": 0.6299212598425197
          },
          {
            "duration": 0.3529410000000013,
            "durationTicks": 60,
            "midi": 57,
            "name": "A3",
            "ticks": 6720,
            "time": 39.529392,
            "velocity": 0.6299212598425197
          },
          {
            "duration": 0.5294114999999948,
            "durationTicks": 90,
            "midi": 57,
            "name": "A3",
            "ticks": 6810,
            "time": 40.0588035,
            "velocity": 0.6299212598425197
          },
          {
            "duration": 0.5294114999999948,
            "durationTicks": 90,
            "midi": 62,
            "name": "D4",
            "ticks": 6810,
            "time": 40.0588035,
            "velocity": 0.6299212598425197
          },
          {
            "duration": 0.5294114999999948,
            "durationTicks": 90,
            "midi": 66,
            "name": "F#4",
            "ticks": 6810,
            "time": 40.0588035,
            "velocity": 0.6299212598425197
          },
          {
            "duration": 0.17647050000000064,
            "durationTicks": 30,
            "midi": 56,
            "name": "G#3",
            "ticks": 6960,
            "time": 40.941156,
            "velocity": 0.6299212598425197
          },
          {
            "duration": 0.17647050000000064,
            "durationTicks": 30,
            "midi": 60,
            "name": "C4",
            "ticks": 6960,
            "time": 40.941156,
            "velocity": 0.6299212598425197
          },
          {
            "duration": 0.17647050000000064,
            "durationTicks": 30,
            "midi": 65,
            "name": "F4",
            "ticks": 6960,
            "time": 40.941156,
            "velocity": 0.6299212598425197
          },
          {
            "duration": 0.17647050000000064,
            "durationTicks": 30,
            "midi": 62,
            "name": "D4",
            "ticks": 6960,
            "time": 40.941156,
            "velocity": 0.6299212598425197
          },
          {
            "duration": 0.17647050000000064,
            "durationTicks": 30,
            "midi": 56,
            "name": "G#3",
            "ticks": 6990,
            "time": 41.1176265,
            "velocity": 0.6299212598425197
          },
          {
            "duration": 0.17647050000000064,
            "durationTicks": 30,
            "midi": 60,
            "name": "C4",
            "ticks": 6990,
            "time": 41.1176265,
            "velocity": 0.6299212598425197
          },
          {
            "duration": 0.17647050000000064,
            "durationTicks": 30,
            "midi": 65,
            "name": "F4",
            "ticks": 6990,
            "time": 41.1176265,
            "velocity": 0.6299212598425197
          },
          {
            "duration": 0.17647050000000064,
            "durationTicks": 30,
            "midi": 62,
            "name": "D4",
            "ticks": 6990,
            "time": 41.1176265,
            "velocity": 0.6299212598425197
          },
          {
            "duration": 0.3529410000000013,
            "durationTicks": 60,
            "midi": 56,
            "name": "G#3",
            "ticks": 7020,
            "time": 41.294097,
            "velocity": 0.6299212598425197
          },
          {
            "duration": 0.3529410000000013,
            "durationTicks": 60,
            "midi": 60,
            "name": "C4",
            "ticks": 7020,
            "time": 41.294097,
            "velocity": 0.6299212598425197
          },
          {
            "duration": 0.3529410000000013,
            "durationTicks": 60,
            "midi": 65,
            "name": "F4",
            "ticks": 7020,
            "time": 41.294097,
            "velocity": 0.6299212598425197
          },
          {
            "duration": 0.3529410000000013,
            "durationTicks": 60,
            "midi": 62,
            "name": "D4",
            "ticks": 7020,
            "time": 41.294097,
            "velocity": 0.6299212598425197
          },
          {
            "duration": 0.7058819999999955,
            "durationTicks": 120,
            "midi": 56,
            "name": "G#3",
            "ticks": 7080,
            "time": 41.647038,
            "velocity": 0.6299212598425197
          },
          {
            "duration": 0.7058819999999955,
            "durationTicks": 120,
            "midi": 60,
            "name": "C4",
            "ticks": 7080,
            "time": 41.647038,
            "velocity": 0.6299212598425197
          },
          {
            "duration": 0.7058819999999955,
            "durationTicks": 120,
            "midi": 65,
            "name": "F4",
            "ticks": 7080,
            "time": 41.647038,
            "velocity": 0.6299212598425197
          },
          {
            "duration": 0.7058819999999955,
            "durationTicks": 120,
            "midi": 62,
            "name": "D4",
            "ticks": 7080,
            "time": 41.647038,
            "velocity": 0.6299212598425197
          },
          {
            "duration": 0.3529410000000013,
            "durationTicks": 60,
            "midi": 64,
            "name": "E4",
            "ticks": 7200,
            "time": 42.35292,
            "velocity": 0.6299212598425197
          },
          {
            "duration": 0.3529410000000013,
            "durationTicks": 60,
            "midi": 60,
            "name": "C4",
            "ticks": 7200,
            "time": 42.35292,
            "velocity": 0.6299212598425197
          },
          {
            "duration": 0.3529410000000013,
            "durationTicks": 60,
            "midi": 55,
            "name": "G3",
            "ticks": 7200,
            "time": 42.35292,
            "velocity": 0.6299212598425197
          },
          {
            "duration": 0.17647050000000064,
            "durationTicks": 30,
            "midi": 64,
            "name": "E4",
            "ticks": 7290,
            "time": 42.8823315,
            "velocity": 0.6299212598425197
          },
          {
            "duration": 0.17647050000000064,
            "durationTicks": 30,
            "midi": 60,
            "name": "C4",
            "ticks": 7290,
            "time": 42.8823315,
            "velocity": 0.6299212598425197
          },
          {
            "duration": 0.17647050000000064,
            "durationTicks": 30,
            "midi": 55,
            "name": "G3",
            "ticks": 7290,
            "time": 42.8823315,
            "velocity": 0.6299212598425197
          },
          {
            "duration": 0.17647050000000064,
            "durationTicks": 30,
            "midi": 60,
            "name": "C4",
            "ticks": 7350,
            "time": 43.2352725,
            "velocity": 0.6299212598425197
          },
          {
            "duration": 0.17647050000000064,
            "durationTicks": 30,
            "midi": 64,
            "name": "E4",
            "ticks": 7350,
            "time": 43.2352725,
            "velocity": 0.6299212598425197
          },
          {
            "duration": 0.17647050000000064,
            "durationTicks": 30,
            "midi": 55,
            "name": "G3",
            "ticks": 7350,
            "time": 43.2352725,
            "velocity": 0.6299212598425197
          },
          {
            "duration": 0.3529410000000013,
            "durationTicks": 60,
            "midi": 64,
            "name": "E4",
            "ticks": 7380,
            "time": 43.411743,
            "velocity": 0.6299212598425197
          },
          {
            "duration": 0.3529410000000013,
            "durationTicks": 60,
            "midi": 59,
            "name": "B3",
            "ticks": 7380,
            "time": 43.411743,
            "velocity": 0.6299212598425197
          },
          {
            "duration": 0.3529410000000013,
            "durationTicks": 60,
            "midi": 55,
            "name": "G3",
            "ticks": 7380,
            "time": 43.411743,
            "velocity": 0.6299212598425197
          },
          {
            "duration": 0.3529410000000013,
            "durationTicks": 60,
            "midi": 64,
            "name": "E4",
            "ticks": 7440,
            "time": 43.764684,
            "velocity": 0.6299212598425197
          },
          {
            "duration": 0.3529410000000013,
            "durationTicks": 60,
            "midi": 60,
            "name": "C4",
            "ticks": 7440,
            "time": 43.764684,
            "velocity": 0.6299212598425197
          },
          {
            "duration": 0.3529410000000013,
            "durationTicks": 60,
            "midi": 55,
            "name": "G3",
            "ticks": 7440,
            "time": 43.764684,
            "velocity": 0.6299212598425197
          },
          {
            "duration": 0.3529409999999942,
            "durationTicks": 60,
            "midi": 64,
            "name": "E4",
            "ticks": 7500,
            "time": 44.117625000000004,
            "velocity": 0.6299212598425197
          },
          {
            "duration": 0.3529409999999942,
            "durationTicks": 60,
            "midi": 59,
            "name": "B3",
            "ticks": 7500,
            "time": 44.117625000000004,
            "velocity": 0.6299212598425197
          },
          {
            "duration": 0.3529409999999942,
            "durationTicks": 60,
            "midi": 55,
            "name": "G3",
            "ticks": 7500,
            "time": 44.117625000000004,
            "velocity": 0.6299212598425197
          },
          {
            "duration": 0.3529410000000013,
            "durationTicks": 60,
            "midi": 64,
            "name": "E4",
            "ticks": 7560,
            "time": 44.470566,
            "velocity": 0.6299212598425197
          },
          {
            "duration": 0.3529410000000013,
            "durationTicks": 60,
            "midi": 60,
            "name": "C4",
            "ticks": 7560,
            "time": 44.470566,
            "velocity": 0.6299212598425197
          },
          {
            "duration": 0.3529410000000013,
            "durationTicks": 60,
            "midi": 55,
            "name": "G3",
            "ticks": 7560,
            "time": 44.470566,
            "velocity": 0.6299212598425197
          },
          {
            "duration": 1.411763999999998,
            "durationTicks": 240,
            "midi": 57,
            "name": "A3",
            "ticks": 7650,
            "time": 44.9999775,
            "velocity": 0.6299212598425197
          },
          {
            "duration": 1.411763999999998,
            "durationTicks": 240,
            "midi": 61,
            "name": "C#4",
            "ticks": 7650,
            "time": 44.9999775,
            "velocity": 0.6299212598425197
          },
          {
            "duration": 1.411763999999998,
            "durationTicks": 240,
            "midi": 64,
            "name": "E4",
            "ticks": 7650,
            "time": 44.9999775,
            "velocity": 0.6299212598425197
          },
          {
            "duration": 0.7058820000000026,
            "durationTicks": 120,
            "midi": 68,
            "name": "G#4",
            "ticks": 7890,
            "time": 46.4117415,
            "velocity": 0.6299212598425197
          },
          {
            "duration": 0.7058820000000026,
            "durationTicks": 120,
            "midi": 64,
            "name": "E4",
            "ticks": 7890,
            "time": 46.4117415,
            "velocity": 0.6299212598425197
          },
          {
            "duration": 0.7058820000000026,
            "durationTicks": 120,
            "midi": 61,
            "name": "C#4",
            "ticks": 7890,
            "time": 46.4117415,
            "velocity": 0.6299212598425197
          },
          {
            "duration": 0.7058820000000026,
            "durationTicks": 120,
            "midi": 57,
            "name": "A3",
            "ticks": 7890,
            "time": 46.4117415,
            "velocity": 0.6299212598425197
          },
          {
            "duration": 0.3529410000000013,
            "durationTicks": 60,
            "midi": 57,
            "name": "A3",
            "ticks": 8070,
            "time": 47.4705645,
            "velocity": 0.6299212598425197
          },
          {
            "duration": 0.3529410000000013,
            "durationTicks": 60,
            "midi": 61,
            "name": "C#4",
            "ticks": 8070,
            "time": 47.4705645,
            "velocity": 0.6299212598425197
          },
          {
            "duration": 0.3470586499999939,
            "durationTicks": 59,
            "midi": 64,
            "name": "E4",
            "ticks": 8070,
            "time": 47.4705645,
            "velocity": 0.6299212598425197
          },
          {
            "duration": 0.3470586499999939,
            "durationTicks": 59,
            "midi": 68,
            "name": "G#4",
            "ticks": 8070,
            "time": 47.4705645,
            "velocity": 0.6299212598425197
          },
          {
            "duration": 0.3529409999999942,
            "durationTicks": 60,
            "midi": 68,
            "name": "G#4",
            "ticks": 8160,
            "time": 47.999976000000004,
            "velocity": 0.6299212598425197
          },
          {
            "duration": 0.3529409999999942,
            "durationTicks": 60,
            "midi": 63,
            "name": "D#4",
            "ticks": 8160,
            "time": 47.999976000000004,
            "velocity": 0.6299212598425197
          },
          {
            "duration": 0.3529409999999942,
            "durationTicks": 60,
            "midi": 59,
            "name": "B3",
            "ticks": 8160,
            "time": 47.999976000000004,
            "velocity": 0.6299212598425197
          },
          {
            "duration": 0.17647050000000064,
            "durationTicks": 30,
            "midi": 68,
            "name": "G#4",
            "ticks": 8250,
            "time": 48.5293875,
            "velocity": 0.6299212598425197
          },
          {
            "duration": 0.17647050000000064,
            "durationTicks": 30,
            "midi": 63,
            "name": "D#4",
            "ticks": 8250,
            "time": 48.5293875,
            "velocity": 0.6299212598425197
          },
          {
            "duration": 0.17647050000000064,
            "durationTicks": 30,
            "midi": 59,
            "name": "B3",
            "ticks": 8250,
            "time": 48.5293875,
            "velocity": 0.6299212598425197
          },
          {
            "duration": 0.17647050000000064,
            "durationTicks": 30,
            "midi": 68,
            "name": "G#4",
            "ticks": 8310,
            "time": 48.8823285,
            "velocity": 0.6299212598425197
          },
          {
            "duration": 0.17647050000000064,
            "durationTicks": 30,
            "midi": 63,
            "name": "D#4",
            "ticks": 8310,
            "time": 48.8823285,
            "velocity": 0.6299212598425197
          },
          {
            "duration": 0.17647050000000064,
            "durationTicks": 30,
            "midi": 59,
            "name": "B3",
            "ticks": 8310,
            "time": 48.8823285,
            "velocity": 0.6299212598425197
          },
          {
            "duration": 0.3529410000000013,
            "durationTicks": 60,
            "midi": 66,
            "name": "F#4",
            "ticks": 8340,
            "time": 49.058799,
            "velocity": 0.6299212598425197
          },
          {
            "duration": 0.3529410000000013,
            "durationTicks": 60,
            "midi": 63,
            "name": "D#4",
            "ticks": 8340,
            "time": 49.058799,
            "velocity": 0.6299212598425197
          },
          {
            "duration": 0.3529410000000013,
            "durationTicks": 60,
            "midi": 59,
            "name": "B3",
            "ticks": 8340,
            "time": 49.058799,
            "velocity": 0.6299212598425197
          },
          {
            "duration": 0.3529410000000013,
            "durationTicks": 60,
            "midi": 59,
            "name": "B3",
            "ticks": 8400,
            "time": 49.41174,
            "velocity": 0.6299212598425197
          },
          {
            "duration": 0.3529410000000013,
            "durationTicks": 60,
            "midi": 68,
            "name": "G#4",
            "ticks": 8400,
            "time": 49.41174,
            "velocity": 0.6299212598425197
          },
          {
            "duration": 0.3529410000000013,
            "durationTicks": 60,
            "midi": 63,
            "name": "D#4",
            "ticks": 8400,
            "time": 49.41174,
            "velocity": 0.6299212598425197
          },
          {
            "duration": 0.3529409999999942,
            "durationTicks": 60,
            "midi": 66,
            "name": "F#4",
            "ticks": 8460,
            "time": 49.764681,
            "velocity": 0.6299212598425197
          },
          {
            "duration": 0.3529409999999942,
            "durationTicks": 60,
            "midi": 63,
            "name": "D#4",
            "ticks": 8460,
            "time": 49.764681,
            "velocity": 0.6299212598425197
          },
          {
            "duration": 0.3529409999999942,
            "durationTicks": 60,
            "midi": 59,
            "name": "B3",
            "ticks": 8460,
            "time": 49.764681,
            "velocity": 0.6299212598425197
          },
          {
            "duration": 0.3529410000000013,
            "durationTicks": 60,
            "midi": 68,
            "name": "G#4",
            "ticks": 8520,
            "time": 50.117622,
            "velocity": 0.6299212598425197
          },
          {
            "duration": 0.3529410000000013,
            "durationTicks": 60,
            "midi": 63,
            "name": "D#4",
            "ticks": 8520,
            "time": 50.117622,
            "velocity": 0.6299212598425197
          },
          {
            "duration": 0.3529410000000013,
            "durationTicks": 60,
            "midi": 59,
            "name": "B3",
            "ticks": 8520,
            "time": 50.117622,
            "velocity": 0.6299212598425197
          },
          {
            "duration": 0.3529410000000013,
            "durationTicks": 60,
            "midi": 67,
            "name": "G4",
            "ticks": 8640,
            "time": 50.823504,
            "velocity": 0.6299212598425197
          },
          {
            "duration": 0.3529410000000013,
            "durationTicks": 60,
            "midi": 63,
            "name": "D#4",
            "ticks": 8640,
            "time": 50.823504,
            "velocity": 0.6299212598425197
          },
          {
            "duration": 0.3529410000000013,
            "durationTicks": 60,
            "midi": 61,
            "name": "C#4",
            "ticks": 8640,
            "time": 50.823504,
            "velocity": 0.6299212598425197
          },
          {
            "duration": 0.17647050000000064,
            "durationTicks": 30,
            "midi": 67,
            "name": "G4",
            "ticks": 8730,
            "time": 51.3529155,
            "velocity": 0.6299212598425197
          },
          {
            "duration": 0.17647050000000064,
            "durationTicks": 30,
            "midi": 63,
            "name": "D#4",
            "ticks": 8730,
            "time": 51.3529155,
            "velocity": 0.6299212598425197
          },
          {
            "duration": 0.17647050000000064,
            "durationTicks": 30,
            "midi": 61,
            "name": "C#4",
            "ticks": 8730,
            "time": 51.3529155,
            "velocity": 0.6299212598425197
          },
          {
            "duration": 0.17647050000000064,
            "durationTicks": 30,
            "midi": 67,
            "name": "G4",
            "ticks": 8790,
            "time": 51.7058565,
            "velocity": 0.6299212598425197
          },
          {
            "duration": 0.17647050000000064,
            "durationTicks": 30,
            "midi": 61,
            "name": "C#4",
            "ticks": 8790,
            "time": 51.7058565,
            "velocity": 0.6299212598425197
          },
          {
            "duration": 0.17647050000000064,
            "durationTicks": 30,
            "midi": 63,
            "name": "D#4",
            "ticks": 8790,
            "time": 51.7058565,
            "velocity": 0.6299212598425197
          },
          {
            "duration": 0.3529410000000013,
            "durationTicks": 60,
            "midi": 68,
            "name": "G#4",
            "ticks": 8850,
            "time": 52.0587975,
            "velocity": 0.6299212598425197
          },
          {
            "duration": 0.3529410000000013,
            "durationTicks": 60,
            "midi": 63,
            "name": "D#4",
            "ticks": 8850,
            "time": 52.0587975,
            "velocity": 0.6299212598425197
          },
          {
            "duration": 0.3529410000000013,
            "durationTicks": 60,
            "midi": 61,
            "name": "C#4",
            "ticks": 8850,
            "time": 52.0587975,
            "velocity": 0.6299212598425197
          },
          {
            "duration": 0.17647050000000064,
            "durationTicks": 30,
            "midi": 68,
            "name": "G#4",
            "ticks": 8910,
            "time": 52.4117385,
            "velocity": 0.6299212598425197
          },
          {
            "duration": 0.17647050000000064,
            "durationTicks": 30,
            "midi": 63,
            "name": "D#4",
            "ticks": 8910,
            "time": 52.4117385,
            "velocity": 0.6299212598425197
          },
          {
            "duration": 0.17647050000000064,
            "durationTicks": 30,
            "midi": 61,
            "name": "C#4",
            "ticks": 8910,
            "time": 52.4117385,
            "velocity": 0.6299212598425197
          },
          {
            "duration": 0.3529410000000013,
            "durationTicks": 60,
            "midi": 68,
            "name": "G#4",
            "ticks": 8940,
            "time": 52.588209,
            "velocity": 0.6299212598425197
          },
          {
            "duration": 0.3529410000000013,
            "durationTicks": 60,
            "midi": 63,
            "name": "D#4",
            "ticks": 8940,
            "time": 52.588209,
            "velocity": 0.6299212598425197
          },
          {
            "duration": 0.3529410000000013,
            "durationTicks": 60,
            "midi": 61,
            "name": "C#4",
            "ticks": 8940,
            "time": 52.588209,
            "velocity": 0.6299212598425197
          },
          {
            "duration": 0.7058820000000026,
            "durationTicks": 120,
            "midi": 67,
            "name": "G4",
            "ticks": 9000,
            "time": 52.94115,
            "velocity": 0.6299212598425197
          },
          {
            "duration": 0.7058820000000026,
            "durationTicks": 120,
            "midi": 63,
            "name": "D#4",
            "ticks": 9000,
            "time": 52.94115,
            "velocity": 0.6299212598425197
          },
          {
            "duration": 0.7058820000000026,
            "durationTicks": 120,
            "midi": 61,
            "name": "C#4",
            "ticks": 9000,
            "time": 52.94115,
            "velocity": 0.6299212598425197
          },
          {
            "duration": 0.3529410000000013,
            "durationTicks": 60,
            "midi": 62,
            "name": "D4",
            "ticks": 9120,
            "time": 53.647032,
            "velocity": 0.6299212598425197
          },
          {
            "duration": 0.3529410000000013,
            "durationTicks": 60,
            "midi": 59,
            "name": "B3",
            "ticks": 9120,
            "time": 53.647032,
            "velocity": 0.6299212598425197
          },
          {
            "duration": 0.3529410000000013,
            "durationTicks": 60,
            "midi": 54,
            "name": "F#3",
            "ticks": 9120,
            "time": 53.647032,
            "velocity": 0.6299212598425197
          },
          {
            "duration": 0.17647050000000064,
            "durationTicks": 30,
            "midi": 62,
            "name": "D4",
            "ticks": 9210,
            "time": 54.1764435,
            "velocity": 0.6299212598425197
          },
          {
            "duration": 0.17647050000000064,
            "durationTicks": 30,
            "midi": 59,
            "name": "B3",
            "ticks": 9210,
            "time": 54.1764435,
            "velocity": 0.6299212598425197
          },
          {
            "duration": 0.17647050000000064,
            "durationTicks": 30,
            "midi": 54,
            "name": "F#3",
            "ticks": 9210,
            "time": 54.1764435,
            "velocity": 0.6299212598425197
          },
          {
            "duration": 0.17647050000000064,
            "durationTicks": 30,
            "midi": 62,
            "name": "D4",
            "ticks": 9270,
            "time": 54.5293845,
            "velocity": 0.6299212598425197
          },
          {
            "duration": 0.17647050000000064,
            "durationTicks": 30,
            "midi": 59,
            "name": "B3",
            "ticks": 9270,
            "time": 54.5293845,
            "velocity": 0.6299212598425197
          },
          {
            "duration": 0.17647050000000064,
            "durationTicks": 30,
            "midi": 54,
            "name": "F#3",
            "ticks": 9270,
            "time": 54.5293845,
            "velocity": 0.6299212598425197
          },
          {
            "duration": 0.3529410000000013,
            "durationTicks": 60,
            "midi": 59,
            "name": "B3",
            "ticks": 9300,
            "time": 54.705855,
            "velocity": 0.6299212598425197
          },
          {
            "duration": 0.3529410000000013,
            "durationTicks": 60,
            "midi": 54,
            "name": "F#3",
            "ticks": 9300,
            "time": 54.705855,
            "velocity": 0.6299212598425197
          },
          {
            "duration": 0.3529410000000013,
            "durationTicks": 60,
            "midi": 61,
            "name": "C#4",
            "ticks": 9300,
            "time": 54.705855,
            "velocity": 0.6299212598425197
          },
          {
            "duration": 0.3529410000000013,
            "durationTicks": 60,
            "midi": 62,
            "name": "D4",
            "ticks": 9360,
            "time": 55.058796,
            "velocity": 0.6299212598425197
          },
          {
            "duration": 0.3529410000000013,
            "durationTicks": 60,
            "midi": 59,
            "name": "B3",
            "ticks": 9360,
            "time": 55.058796,
            "velocity": 0.6299212598425197
          },
          {
            "duration": 0.3529410000000013,
            "durationTicks": 60,
            "midi": 54,
            "name": "F#3",
            "ticks": 9360,
            "time": 55.058796,
            "velocity": 0.6299212598425197
          },
          {
            "duration": 0.3529410000000013,
            "durationTicks": 60,
            "midi": 59,
            "name": "B3",
            "ticks": 9420,
            "time": 55.411737,
            "velocity": 0.6299212598425197
          },
          {
            "duration": 0.3529410000000013,
            "durationTicks": 60,
            "midi": 54,
            "name": "F#3",
            "ticks": 9420,
            "time": 55.411737,
            "velocity": 0.6299212598425197
          },
          {
            "duration": 0.3529410000000013,
            "durationTicks": 60,
            "midi": 61,
            "name": "C#4",
            "ticks": 9420,
            "time": 55.411737,
            "velocity": 0.6299212598425197
          },
          {
            "duration": 0.3529409999999942,
            "durationTicks": 60,
            "midi": 62,
            "name": "D4",
            "ticks": 9480,
            "time": 55.764678,
            "velocity": 0.6299212598425197
          },
          {
            "duration": 0.3529409999999942,
            "durationTicks": 60,
            "midi": 59,
            "name": "B3",
            "ticks": 9480,
            "time": 55.764678,
            "velocity": 0.6299212598425197
          },
          {
            "duration": 0.3529409999999942,
            "durationTicks": 60,
            "midi": 54,
            "name": "F#3",
            "ticks": 9480,
            "time": 55.764678,
            "velocity": 0.6299212598425197
          },
          {
            "duration": 0.3529410000000013,
            "durationTicks": 60,
            "midi": 64,
            "name": "E4",
            "ticks": 9600,
            "time": 56.47056,
            "velocity": 0.6299212598425197
          },
          {
            "duration": 0.3529410000000013,
            "durationTicks": 60,
            "midi": 59,
            "name": "B3",
            "ticks": 9600,
            "time": 56.47056,
            "velocity": 0.6299212598425197
          },
          {
            "duration": 0.3529410000000013,
            "durationTicks": 60,
            "midi": 57,
            "name": "A3",
            "ticks": 9600,
            "time": 56.47056,
            "velocity": 0.6299212598425197
          },
          {
            "duration": 0.3529410000000013,
            "durationTicks": 60,
            "midi": 53,
            "name": "F3",
            "ticks": 9600,
            "time": 56.47056,
            "velocity": 0.6299212598425197
          },
          {
            "duration": 0.17647050000000064,
            "durationTicks": 30,
            "midi": 59,
            "name": "B3",
            "ticks": 9690,
            "time": 56.9999715,
            "velocity": 0.6299212598425197
          },
          {
            "duration": 0.17647050000000064,
            "durationTicks": 30,
            "midi": 57,
            "name": "A3",
            "ticks": 9690,
            "time": 56.9999715,
            "velocity": 0.6299212598425197
          },
          {
            "duration": 0.17647050000000064,
            "durationTicks": 30,
            "midi": 64,
            "name": "E4",
            "ticks": 9690,
            "time": 56.9999715,
            "velocity": 0.6299212598425197
          },
          {
            "duration": 0.17647050000000064,
            "durationTicks": 30,
            "midi": 53,
            "name": "F3",
            "ticks": 9690,
            "time": 56.9999715,
            "velocity": 0.6299212598425197
          },
          {
            "duration": 0.17647050000000064,
            "durationTicks": 30,
            "midi": 59,
            "name": "B3",
            "ticks": 9750,
            "time": 57.3529125,
            "velocity": 0.6299212598425197
          },
          {
            "duration": 0.17647050000000064,
            "durationTicks": 30,
            "midi": 57,
            "name": "A3",
            "ticks": 9750,
            "time": 57.3529125,
            "velocity": 0.6299212598425197
          },
          {
            "duration": 0.17647050000000064,
            "durationTicks": 30,
            "midi": 64,
            "name": "E4",
            "ticks": 9750,
            "time": 57.3529125,
            "velocity": 0.6299212598425197
          },
          {
            "duration": 0.17647050000000064,
            "durationTicks": 30,
            "midi": 53,
            "name": "F3",
            "ticks": 9750,
            "time": 57.3529125,
            "velocity": 0.6299212598425197
          },
          {
            "duration": 0.3529409999999942,
            "durationTicks": 60,
            "midi": 59,
            "name": "B3",
            "ticks": 9810,
            "time": 57.7058535,
            "velocity": 0.6299212598425197
          },
          {
            "duration": 0.3529409999999942,
            "durationTicks": 60,
            "midi": 62,
            "name": "D4",
            "ticks": 9810,
            "time": 57.7058535,
            "velocity": 0.6299212598425197
          },
          {
            "duration": 0.3529409999999942,
            "durationTicks": 60,
            "midi": 57,
            "name": "A3",
            "ticks": 9810,
            "time": 57.7058535,
            "velocity": 0.6299212598425197
          },
          {
            "duration": 0.3529409999999942,
            "durationTicks": 60,
            "midi": 53,
            "name": "F3",
            "ticks": 9810,
            "time": 57.7058535,
            "velocity": 0.6299212598425197
          },
          {
            "duration": 0.17647050000000064,
            "durationTicks": 30,
            "midi": 59,
            "name": "B3",
            "ticks": 9870,
            "time": 58.0587945,
            "velocity": 0.6299212598425197
          },
          {
            "duration": 0.17647050000000064,
            "durationTicks": 30,
            "midi": 62,
            "name": "D4",
            "ticks": 9870,
            "time": 58.0587945,
            "velocity": 0.6299212598425197
          },
          {
            "duration": 0.17647050000000064,
            "durationTicks": 30,
            "midi": 57,
            "name": "A3",
            "ticks": 9870,
            "time": 58.0587945,
            "velocity": 0.6299212598425197
          },
          {
            "duration": 0.17647050000000064,
            "durationTicks": 30,
            "midi": 53,
            "name": "F3",
            "ticks": 9870,
            "time": 58.0587945,
            "velocity": 0.6299212598425197
          },
          {
            "duration": 0.3529410000000013,
            "durationTicks": 60,
            "midi": 62,
            "name": "D4",
            "ticks": 9900,
            "time": 58.235265,
            "velocity": 0.6299212598425197
          },
          {
            "duration": 0.3529410000000013,
            "durationTicks": 60,
            "midi": 59,
            "name": "B3",
            "ticks": 9900,
            "time": 58.235265,
            "velocity": 0.6299212598425197
          },
          {
            "duration": 0.3529410000000013,
            "durationTicks": 60,
            "midi": 57,
            "name": "A3",
            "ticks": 9900,
            "time": 58.235265,
            "velocity": 0.6299212598425197
          },
          {
            "duration": 0.3529410000000013,
            "durationTicks": 60,
            "midi": 53,
            "name": "F3",
            "ticks": 9900,
            "time": 58.235265,
            "velocity": 0.6299212598425197
          },
          {
            "duration": 0.7058820000000026,
            "durationTicks": 120,
            "midi": 62,
            "name": "D4",
            "ticks": 9960,
            "time": 58.588206,
            "velocity": 0.6299212598425197
          },
          {
            "duration": 0.7058820000000026,
            "durationTicks": 120,
            "midi": 59,
            "name": "B3",
            "ticks": 9960,
            "time": 58.588206,
            "velocity": 0.6299212598425197
          },
          {
            "duration": 0.7058820000000026,
            "durationTicks": 120,
            "midi": 57,
            "name": "A3",
            "ticks": 9960,
            "time": 58.588206,
            "velocity": 0.6299212598425197
          },
          {
            "duration": 0.7058820000000026,
            "durationTicks": 120,
            "midi": 53,
            "name": "F3",
            "ticks": 9960,
            "time": 58.588206,
            "velocity": 0.6299212598425197
          },
          {
            "duration": 0.3529410000000013,
            "durationTicks": 60,
            "midi": 64,
            "name": "E4",
            "ticks": 10080,
            "time": 59.294088,
            "velocity": 0.6299212598425197
          },
          {
            "duration": 0.3529410000000013,
            "durationTicks": 60,
            "midi": 61,
            "name": "C#4",
            "ticks": 10080,
            "time": 59.294088,
            "velocity": 0.6299212598425197
          },
          {
            "duration": 0.3529410000000013,
            "durationTicks": 60,
            "midi": 68,
            "name": "G#4",
            "ticks": 10080,
            "time": 59.294088,
            "velocity": 0.6299212598425197
          },
          {
            "duration": 0.3529410000000013,
            "durationTicks": 60,
            "midi": 57,
            "name": "A3",
            "ticks": 10080,
            "time": 59.294088,
            "velocity": 0.6299212598425197
          },
          {
            "duration": 0.17647049999999354,
            "durationTicks": 30,
            "midi": 68,
            "name": "G#4",
            "ticks": 10170,
            "time": 59.823499500000004,
            "velocity": 0.6299212598425197
          },
          {
            "duration": 0.17647049999999354,
            "durationTicks": 30,
            "midi": 64,
            "name": "E4",
            "ticks": 10170,
            "time": 59.823499500000004,
            "velocity": 0.6299212598425197
          },
          {
            "duration": 0.17647049999999354,
            "durationTicks": 30,
            "midi": 61,
            "name": "C#4",
            "ticks": 10170,
            "time": 59.823499500000004,
            "velocity": 0.6299212598425197
          },
          {
            "duration": 0.17647049999999354,
            "durationTicks": 30,
            "midi": 57,
            "name": "A3",
            "ticks": 10170,
            "time": 59.823499500000004,
            "velocity": 0.6299212598425197
          },
          {
            "duration": 0.17647050000000064,
            "durationTicks": 30,
            "midi": 68,
            "name": "G#4",
            "ticks": 10230,
            "time": 60.1764405,
            "velocity": 0.6299212598425197
          },
          {
            "duration": 0.17647050000000064,
            "durationTicks": 30,
            "midi": 64,
            "name": "E4",
            "ticks": 10230,
            "time": 60.1764405,
            "velocity": 0.6299212598425197
          },
          {
            "duration": 0.17647050000000064,
            "durationTicks": 30,
            "midi": 61,
            "name": "C#4",
            "ticks": 10230,
            "time": 60.1764405,
            "velocity": 0.6299212598425197
          },
          {
            "duration": 0.17647050000000064,
            "durationTicks": 30,
            "midi": 57,
            "name": "A3",
            "ticks": 10230,
            "time": 60.1764405,
            "velocity": 0.6299212598425197
          },
          {
            "duration": 0.3529410000000013,
            "durationTicks": 60,
            "midi": 66,
            "name": "F#4",
            "ticks": 10260,
            "time": 60.352911,
            "velocity": 0.6299212598425197
          },
          {
            "duration": 0.3529410000000013,
            "durationTicks": 60,
            "midi": 64,
            "name": "E4",
            "ticks": 10260,
            "time": 60.352911,
            "velocity": 0.6299212598425197
          },
          {
            "duration": 0.3529410000000013,
            "durationTicks": 60,
            "midi": 57,
            "name": "A3",
            "ticks": 10260,
            "time": 60.352911,
            "velocity": 0.6299212598425197
          },
          {
            "duration": 0.3529410000000013,
            "durationTicks": 60,
            "midi": 61,
            "name": "C#4",
            "ticks": 10260,
            "time": 60.352911,
            "velocity": 0.6299212598425197
          },
          {
            "duration": 0.3529410000000013,
            "durationTicks": 60,
            "midi": 68,
            "name": "G#4",
            "ticks": 10320,
            "time": 60.705852,
            "velocity": 0.6299212598425197
          },
          {
            "duration": 0.3529410000000013,
            "durationTicks": 60,
            "midi": 61,
            "name": "C#4",
            "ticks": 10320,
            "time": 60.705852,
            "velocity": 0.6299212598425197
          },
          {
            "duration": 0.3529410000000013,
            "durationTicks": 60,
            "midi": 57,
            "name": "A3",
            "ticks": 10320,
            "time": 60.705852,
            "velocity": 0.6299212598425197
          },
          {
            "duration": 0.3529410000000013,
            "durationTicks": 60,
            "midi": 64,
            "name": "E4",
            "ticks": 10320,
            "time": 60.705852,
            "velocity": 0.6299212598425197
          },
          {
            "duration": 0.3529410000000013,
            "durationTicks": 60,
            "midi": 66,
            "name": "F#4",
            "ticks": 10380,
            "time": 61.058793,
            "velocity": 0.6299212598425197
          },
          {
            "duration": 0.3529410000000013,
            "durationTicks": 60,
            "midi": 64,
            "name": "E4",
            "ticks": 10380,
            "time": 61.058793,
            "velocity": 0.6299212598425197
          },
          {
            "duration": 0.3529410000000013,
            "durationTicks": 60,
            "midi": 61,
            "name": "C#4",
            "ticks": 10380,
            "time": 61.058793,
            "velocity": 0.6299212598425197
          },
          {
            "duration": 0.3529410000000013,
            "durationTicks": 60,
            "midi": 57,
            "name": "A3",
            "ticks": 10380,
            "time": 61.058793,
            "velocity": 0.6299212598425197
          },
          {
            "duration": 0.3529410000000013,
            "durationTicks": 60,
            "midi": 61,
            "name": "C#4",
            "ticks": 10440,
            "time": 61.411734,
            "velocity": 0.6299212598425197
          },
          {
            "duration": 0.3529410000000013,
            "durationTicks": 60,
            "midi": 57,
            "name": "A3",
            "ticks": 10440,
            "time": 61.411734,
            "velocity": 0.6299212598425197
          },
          {
            "duration": 0.3529410000000013,
            "durationTicks": 60,
            "midi": 64,
            "name": "E4",
            "ticks": 10440,
            "time": 61.411734,
            "velocity": 0.6299212598425197
          },
          {
            "duration": 0.3529410000000013,
            "durationTicks": 60,
            "midi": 68,
            "name": "G#4",
            "ticks": 10440,
            "time": 61.411734,
            "velocity": 0.6299212598425197
          },
          {
            "duration": 0.3529410000000013,
            "durationTicks": 60,
            "midi": 68,
            "name": "G#4",
            "ticks": 10560,
            "time": 62.117616,
            "velocity": 0.6299212598425197
          },
          {
            "duration": 0.3529410000000013,
            "durationTicks": 60,
            "midi": 64,
            "name": "E4",
            "ticks": 10560,
            "time": 62.117616,
            "velocity": 0.6299212598425197
          },
          {
            "duration": 0.3529410000000013,
            "durationTicks": 60,
            "midi": 59,
            "name": "B3",
            "ticks": 10560,
            "time": 62.117616,
            "velocity": 0.6299212598425197
          },
          {
            "duration": 0.5294115000000019,
            "durationTicks": 90,
            "midi": 59,
            "name": "B3",
            "ticks": 10650,
            "time": 62.6470275,
            "velocity": 0.6299212598425197
          },
          {
            "duration": 0.5294115000000019,
            "durationTicks": 90,
            "midi": 64,
            "name": "E4",
            "ticks": 10650,
            "time": 62.6470275,
            "velocity": 0.6299212598425197
          },
          {
            "duration": 0.5294115000000019,
            "durationTicks": 90,
            "midi": 68,
            "name": "G#4",
            "ticks": 10650,
            "time": 62.6470275,
            "velocity": 0.6299212598425197
          },
          {
            "duration": 0.17647050000000064,
            "durationTicks": 30,
            "midi": 58,
            "name": "A#3",
            "ticks": 10800,
            "time": 63.52938,
            "velocity": 0.6299212598425197
          },
          {
            "duration": 0.17647050000000064,
            "durationTicks": 30,
            "midi": 62,
            "name": "D4",
            "ticks": 10800,
            "time": 63.52938,
            "velocity": 0.6299212598425197
          },
          {
            "duration": 0.17647050000000064,
            "durationTicks": 30,
            "midi": 67,
            "name": "G4",
            "ticks": 10800,
            "time": 63.52938,
            "velocity": 0.6299212598425197
          },
          {
            "duration": 0.17647050000000064,
            "durationTicks": 30,
            "midi": 64,
            "name": "E4",
            "ticks": 10800,
            "time": 63.52938,
            "velocity": 0.6299212598425197
          },
          {
            "duration": 0.17647049999999354,
            "durationTicks": 30,
            "midi": 58,
            "name": "A#3",
            "ticks": 10830,
            "time": 63.705850500000004,
            "velocity": 0.6299212598425197
          },
          {
            "duration": 0.17647049999999354,
            "durationTicks": 30,
            "midi": 62,
            "name": "D4",
            "ticks": 10830,
            "time": 63.705850500000004,
            "velocity": 0.6299212598425197
          },
          {
            "duration": 0.17647049999999354,
            "durationTicks": 30,
            "midi": 67,
            "name": "G4",
            "ticks": 10830,
            "time": 63.705850500000004,
            "velocity": 0.6299212598425197
          },
          {
            "duration": 0.17647049999999354,
            "durationTicks": 30,
            "midi": 64,
            "name": "E4",
            "ticks": 10830,
            "time": 63.705850500000004,
            "velocity": 0.6299212598425197
          },
          {
            "duration": 0.3529410000000084,
            "durationTicks": 60,
            "midi": 58,
            "name": "A#3",
            "ticks": 10860,
            "time": 63.882321,
            "velocity": 0.6299212598425197
          },
          {
            "duration": 0.3529410000000084,
            "durationTicks": 60,
            "midi": 62,
            "name": "D4",
            "ticks": 10860,
            "time": 63.882321,
            "velocity": 0.6299212598425197
          },
          {
            "duration": 0.3529410000000084,
            "durationTicks": 60,
            "midi": 67,
            "name": "G4",
            "ticks": 10860,
            "time": 63.882321,
            "velocity": 0.6299212598425197
          },
          {
            "duration": 0.3529410000000084,
            "durationTicks": 60,
            "midi": 64,
            "name": "E4",
            "ticks": 10860,
            "time": 63.882321,
            "velocity": 0.6299212598425197
          },
          {
            "duration": 0.7058819999999884,
            "durationTicks": 120,
            "midi": 58,
            "name": "A#3",
            "ticks": 10920,
            "time": 64.235262,
            "velocity": 0.6299212598425197
          },
          {
            "duration": 0.7058819999999884,
            "durationTicks": 120,
            "midi": 62,
            "name": "D4",
            "ticks": 10920,
            "time": 64.235262,
            "velocity": 0.6299212598425197
          },
          {
            "duration": 0.7058819999999884,
            "durationTicks": 120,
            "midi": 67,
            "name": "G4",
            "ticks": 10920,
            "time": 64.235262,
            "velocity": 0.6299212598425197
          },
          {
            "duration": 0.7058819999999884,
            "durationTicks": 120,
            "midi": 64,
            "name": "E4",
            "ticks": 10920,
            "time": 64.235262,
            "velocity": 0.6299212598425197
          },
          {
            "duration": 0.3529410000000013,
            "durationTicks": 60,
            "midi": 62,
            "name": "D4",
            "ticks": 11040,
            "time": 64.941144,
            "velocity": 0.6299212598425197
          },
          {
            "duration": 0.3529410000000013,
            "durationTicks": 60,
            "midi": 66,
            "name": "F#4",
            "ticks": 11040,
            "time": 64.941144,
            "velocity": 0.6299212598425197
          },
          {
            "duration": 0.3529410000000013,
            "durationTicks": 60,
            "midi": 57,
            "name": "A3",
            "ticks": 11040,
            "time": 64.941144,
            "velocity": 0.6299212598425197
          },
          {
            "duration": 0.17647049999999354,
            "durationTicks": 30,
            "midi": 62,
            "name": "D4",
            "ticks": 11130,
            "time": 65.4705555,
            "velocity": 0.6299212598425197
          },
          {
            "duration": 0.17647049999999354,
            "durationTicks": 30,
            "midi": 66,
            "name": "F#4",
            "ticks": 11130,
            "time": 65.4705555,
            "velocity": 0.6299212598425197
          },
          {
            "duration": 0.17647049999999354,
            "durationTicks": 30,
            "midi": 57,
            "name": "A3",
            "ticks": 11130,
            "time": 65.4705555,
            "velocity": 0.6299212598425197
          },
          {
            "duration": 0.17647049999999354,
            "durationTicks": 30,
            "midi": 62,
            "name": "D4",
            "ticks": 11190,
            "time": 65.8234965,
            "velocity": 0.6299212598425197
          },
          {
            "duration": 0.17647049999999354,
            "durationTicks": 30,
            "midi": 66,
            "name": "F#4",
            "ticks": 11190,
            "time": 65.8234965,
            "velocity": 0.6299212598425197
          },
          {
            "duration": 0.17647049999999354,
            "durationTicks": 30,
            "midi": 57,
            "name": "A3",
            "ticks": 11190,
            "time": 65.8234965,
            "velocity": 0.6299212598425197
          },
          {
            "duration": 0.3529410000000013,
            "durationTicks": 60,
            "midi": 66,
            "name": "F#4",
            "ticks": 11220,
            "time": 65.999967,
            "velocity": 0.6299212598425197
          },
          {
            "duration": 0.3529410000000013,
            "durationTicks": 60,
            "midi": 61,
            "name": "C#4",
            "ticks": 11220,
            "time": 65.999967,
            "velocity": 0.6299212598425197
          },
          {
            "duration": 0.3529410000000013,
            "durationTicks": 60,
            "midi": 57,
            "name": "A3",
            "ticks": 11220,
            "time": 65.999967,
            "velocity": 0.6299212598425197
          },
          {
            "duration": 0.3529410000000013,
            "durationTicks": 60,
            "midi": 62,
            "name": "D4",
            "ticks": 11280,
            "time": 66.352908,
            "velocity": 0.6299212598425197
          },
          {
            "duration": 0.3529410000000013,
            "durationTicks": 60,
            "midi": 66,
            "name": "F#4",
            "ticks": 11280,
            "time": 66.352908,
            "velocity": 0.6299212598425197
          },
          {
            "duration": 0.3529410000000013,
            "durationTicks": 60,
            "midi": 57,
            "name": "A3",
            "ticks": 11280,
            "time": 66.352908,
            "velocity": 0.6299212598425197
          },
          {
            "duration": 0.3529410000000013,
            "durationTicks": 60,
            "midi": 66,
            "name": "F#4",
            "ticks": 11340,
            "time": 66.705849,
            "velocity": 0.6299212598425197
          },
          {
            "duration": 0.3529410000000013,
            "durationTicks": 60,
            "midi": 61,
            "name": "C#4",
            "ticks": 11340,
            "time": 66.705849,
            "velocity": 0.6299212598425197
          },
          {
            "duration": 0.3529410000000013,
            "durationTicks": 60,
            "midi": 57,
            "name": "A3",
            "ticks": 11340,
            "time": 66.705849,
            "velocity": 0.6299212598425197
          },
          {
            "duration": 0.3529410000000013,
            "durationTicks": 60,
            "midi": 62,
            "name": "D4",
            "ticks": 11400,
            "time": 67.05879,
            "velocity": 0.6299212598425197
          },
          {
            "duration": 0.3529410000000013,
            "durationTicks": 60,
            "midi": 66,
            "name": "F#4",
            "ticks": 11400,
            "time": 67.05879,
            "velocity": 0.6299212598425197
          },
          {
            "duration": 0.3529410000000013,
            "durationTicks": 60,
            "midi": 57,
            "name": "A3",
            "ticks": 11400,
            "time": 67.05879,
            "velocity": 0.6299212598425197
          },
          {
            "duration": 1.4117640000000051,
            "durationTicks": 240,
            "midi": 59,
            "name": "B3",
            "ticks": 11490,
            "time": 67.5882015,
            "velocity": 0.6299212598425197
          },
          {
            "duration": 1.4117640000000051,
            "durationTicks": 240,
            "midi": 63,
            "name": "D#4",
            "ticks": 11490,
            "time": 67.5882015,
            "velocity": 0.6299212598425197
          },
          {
            "duration": 1.4117640000000051,
            "durationTicks": 240,
            "midi": 66,
            "name": "F#4",
            "ticks": 11490,
            "time": 67.5882015,
            "velocity": 0.6299212598425197
          },
          {
            "duration": 0.7058820000000026,
            "durationTicks": 120,
            "midi": 70,
            "name": "A#4",
            "ticks": 11730,
            "time": 68.9999655,
            "velocity": 0.6299212598425197
          },
          {
            "duration": 0.7058820000000026,
            "durationTicks": 120,
            "midi": 66,
            "name": "F#4",
            "ticks": 11730,
            "time": 68.9999655,
            "velocity": 0.6299212598425197
          },
          {
            "duration": 0.7058820000000026,
            "durationTicks": 120,
            "midi": 63,
            "name": "D#4",
            "ticks": 11730,
            "time": 68.9999655,
            "velocity": 0.6299212598425197
          },
          {
            "duration": 0.7058820000000026,
            "durationTicks": 120,
            "midi": 59,
            "name": "B3",
            "ticks": 11730,
            "time": 68.9999655,
            "velocity": 0.6299212598425197
          },
          {
            "duration": 0.3529410000000013,
            "durationTicks": 60,
            "midi": 59,
            "name": "B3",
            "ticks": 11910,
            "time": 70.0587885,
            "velocity": 0.6299212598425197
          },
          {
            "duration": 0.3529410000000013,
            "durationTicks": 60,
            "midi": 63,
            "name": "D#4",
            "ticks": 11910,
            "time": 70.0587885,
            "velocity": 0.6299212598425197
          },
          {
            "duration": 0.3470586499999939,
            "durationTicks": 59,
            "midi": 66,
            "name": "F#4",
            "ticks": 11910,
            "time": 70.0587885,
            "velocity": 0.6299212598425197
          },
          {
            "duration": 0.3470586499999939,
            "durationTicks": 59,
            "midi": 70,
            "name": "A#4",
            "ticks": 11910,
            "time": 70.0587885,
            "velocity": 0.6299212598425197
          },
          {
            "duration": 0.6999996499999952,
            "durationTicks": 119,
            "midi": 68,
            "name": "G#4",
            "ticks": 12000,
            "time": 70.5882,
            "velocity": 0.6299212598425197
          },
          {
            "duration": 0.6999996499999952,
            "durationTicks": 119,
            "midi": 65,
            "name": "F4",
            "ticks": 12000,
            "time": 70.5882,
            "velocity": 0.6299212598425197
          },
          {
            "duration": 0.6999996499999952,
            "durationTicks": 119,
            "midi": 61,
            "name": "C#4",
            "ticks": 12000,
            "time": 70.5882,
            "velocity": 0.6299212598425197
          },
          {
            "duration": 0.6999996499999952,
            "durationTicks": 119,
            "midi": 58,
            "name": "A#3",
            "ticks": 12000,
            "time": 70.5882,
            "velocity": 0.6299212598425197
          },
          {
            "duration": 0.35294099999998707,
            "durationTicks": 60,
            "midi": 61,
            "name": "C#4",
            "ticks": 31200,
            "time": 183.52932,
            "velocity": 0.6299212598425197
          },
          {
            "duration": 0.35294099999998707,
            "durationTicks": 60,
            "midi": 66,
            "name": "F#4",
            "ticks": 31200,
            "time": 183.52932,
            "velocity": 0.6299212598425197
          },
          {
            "duration": 0.35294099999998707,
            "durationTicks": 60,
            "midi": 57,
            "name": "A3",
            "ticks": 31200,
            "time": 183.52932,
            "velocity": 0.6299212598425197
          },
          {
            "duration": 0.17647050000002196,
            "durationTicks": 30,
            "midi": 57,
            "name": "A3",
            "ticks": 31290,
            "time": 184.0587315,
            "velocity": 0.6299212598425197
          },
          {
            "duration": 0.17647050000002196,
            "durationTicks": 30,
            "midi": 61,
            "name": "C#4",
            "ticks": 31290,
            "time": 184.0587315,
            "velocity": 0.6299212598425197
          },
          {
            "duration": 0.17647050000002196,
            "durationTicks": 30,
            "midi": 66,
            "name": "F#4",
            "ticks": 31290,
            "time": 184.0587315,
            "velocity": 0.6299212598425197
          },
          {
            "duration": 0.17647049999999354,
            "durationTicks": 30,
            "midi": 61,
            "name": "C#4",
            "ticks": 31350,
            "time": 184.4116725,
            "velocity": 0.6299212598425197
          },
          {
            "duration": 0.17647049999999354,
            "durationTicks": 30,
            "midi": 66,
            "name": "F#4",
            "ticks": 31350,
            "time": 184.4116725,
            "velocity": 0.6299212598425197
          },
          {
            "duration": 0.17647049999999354,
            "durationTicks": 30,
            "midi": 57,
            "name": "A3",
            "ticks": 31350,
            "time": 184.4116725,
            "velocity": 0.6299212598425197
          },
          {
            "duration": 0.35294099999998707,
            "durationTicks": 60,
            "midi": 57,
            "name": "A3",
            "ticks": 31380,
            "time": 184.588143,
            "velocity": 0.6299212598425197
          },
          {
            "duration": 0.35294099999998707,
            "durationTicks": 60,
            "midi": 61,
            "name": "C#4",
            "ticks": 31380,
            "time": 184.588143,
            "velocity": 0.6299212598425197
          },
          {
            "duration": 0.35294099999998707,
            "durationTicks": 60,
            "midi": 64,
            "name": "E4",
            "ticks": 31380,
            "time": 184.588143,
            "velocity": 0.6299212598425197
          },
          {
            "duration": 0.3529410000000155,
            "durationTicks": 60,
            "midi": 57,
            "name": "A3",
            "ticks": 31440,
            "time": 184.941084,
            "velocity": 0.6299212598425197
          },
          {
            "duration": 0.3529410000000155,
            "durationTicks": 60,
            "midi": 61,
            "name": "C#4",
            "ticks": 31440,
            "time": 184.941084,
            "velocity": 0.6299212598425197
          },
          {
            "duration": 0.3529410000000155,
            "durationTicks": 60,
            "midi": 66,
            "name": "F#4",
            "ticks": 31440,
            "time": 184.941084,
            "velocity": 0.6299212598425197
          },
          {
            "duration": 0.35294099999998707,
            "durationTicks": 60,
            "midi": 57,
            "name": "A3",
            "ticks": 31500,
            "time": 185.294025,
            "velocity": 0.6299212598425197
          },
          {
            "duration": 0.35294099999998707,
            "durationTicks": 60,
            "midi": 64,
            "name": "E4",
            "ticks": 31500,
            "time": 185.294025,
            "velocity": 0.6299212598425197
          },
          {
            "duration": 0.35294099999998707,
            "durationTicks": 60,
            "midi": 61,
            "name": "C#4",
            "ticks": 31500,
            "time": 185.294025,
            "velocity": 0.6299212598425197
          },
          {
            "duration": 0.3529410000000155,
            "durationTicks": 60,
            "midi": 57,
            "name": "A3",
            "ticks": 31560,
            "time": 185.646966,
            "velocity": 0.6299212598425197
          },
          {
            "duration": 0.3529410000000155,
            "durationTicks": 60,
            "midi": 61,
            "name": "C#4",
            "ticks": 31560,
            "time": 185.646966,
            "velocity": 0.6299212598425197
          },
          {
            "duration": 0.3529410000000155,
            "durationTicks": 60,
            "midi": 66,
            "name": "F#4",
            "ticks": 31560,
            "time": 185.646966,
            "velocity": 0.6299212598425197
          },
          {
            "duration": 0.3529410000000155,
            "durationTicks": 60,
            "midi": 65,
            "name": "F4",
            "ticks": 31680,
            "time": 186.352848,
            "velocity": 0.6299212598425197
          },
          {
            "duration": 0.3529410000000155,
            "durationTicks": 60,
            "midi": 61,
            "name": "C#4",
            "ticks": 31680,
            "time": 186.352848,
            "velocity": 0.6299212598425197
          },
          {
            "duration": 0.3529410000000155,
            "durationTicks": 60,
            "midi": 59,
            "name": "B3",
            "ticks": 31680,
            "time": 186.352848,
            "velocity": 0.6299212598425197
          },
          {
            "duration": 0.17647049999999354,
            "durationTicks": 30,
            "midi": 65,
            "name": "F4",
            "ticks": 31770,
            "time": 186.8822595,
            "velocity": 0.6299212598425197
          },
          {
            "duration": 0.17647049999999354,
            "durationTicks": 30,
            "midi": 61,
            "name": "C#4",
            "ticks": 31770,
            "time": 186.8822595,
            "velocity": 0.6299212598425197
          },
          {
            "duration": 0.17647049999999354,
            "durationTicks": 30,
            "midi": 59,
            "name": "B3",
            "ticks": 31770,
            "time": 186.8822595,
            "velocity": 0.6299212598425197
          },
          {
            "duration": 0.17647050000002196,
            "durationTicks": 30,
            "midi": 65,
            "name": "F4",
            "ticks": 31830,
            "time": 187.2352005,
            "velocity": 0.6299212598425197
          },
          {
            "duration": 0.17647050000002196,
            "durationTicks": 30,
            "midi": 61,
            "name": "C#4",
            "ticks": 31830,
            "time": 187.2352005,
            "velocity": 0.6299212598425197
          },
          {
            "duration": 0.17647050000002196,
            "durationTicks": 30,
            "midi": 59,
            "name": "B3",
            "ticks": 31830,
            "time": 187.2352005,
            "velocity": 0.6299212598425197
          },
          {
            "duration": 0.35294099999998707,
            "durationTicks": 60,
            "midi": 66,
            "name": "F#4",
            "ticks": 31890,
            "time": 187.5881415,
            "velocity": 0.6299212598425197
          },
          {
            "duration": 0.35294099999998707,
            "durationTicks": 60,
            "midi": 59,
            "name": "B3",
            "ticks": 31890,
            "time": 187.5881415,
            "velocity": 0.6299212598425197
          },
          {
            "duration": 0.35294099999998707,
            "durationTicks": 60,
            "midi": 61,
            "name": "C#4",
            "ticks": 31890,
            "time": 187.5881415,
            "velocity": 0.6299212598425197
          },
          {
            "duration": 0.17647050000002196,
            "durationTicks": 30,
            "midi": 66,
            "name": "F#4",
            "ticks": 31950,
            "time": 187.9410825,
            "velocity": 0.6299212598425197
          },
          {
            "duration": 0.17647050000002196,
            "durationTicks": 30,
            "midi": 61,
            "name": "C#4",
            "ticks": 31950,
            "time": 187.9410825,
            "velocity": 0.6299212598425197
          },
          {
            "duration": 0.17647050000002196,
            "durationTicks": 30,
            "midi": 59,
            "name": "B3",
            "ticks": 31950,
            "time": 187.9410825,
            "velocity": 0.6299212598425197
          },
          {
            "duration": 0.35294099999998707,
            "durationTicks": 60,
            "midi": 66,
            "name": "F#4",
            "ticks": 31980,
            "time": 188.11755300000002,
            "velocity": 0.6299212598425197
          },
          {
            "duration": 0.35294099999998707,
            "durationTicks": 60,
            "midi": 61,
            "name": "C#4",
            "ticks": 31980,
            "time": 188.11755300000002,
            "velocity": 0.6299212598425197
          },
          {
            "duration": 0.35294099999998707,
            "durationTicks": 60,
            "midi": 59,
            "name": "B3",
            "ticks": 31980,
            "time": 188.11755300000002,
            "velocity": 0.6299212598425197
          },
          {
            "duration": 0.7058820000000026,
            "durationTicks": 120,
            "midi": 65,
            "name": "F4",
            "ticks": 32040,
            "time": 188.470494,
            "velocity": 0.6299212598425197
          },
          {
            "duration": 0.7058820000000026,
            "durationTicks": 120,
            "midi": 61,
            "name": "C#4",
            "ticks": 32040,
            "time": 188.470494,
            "velocity": 0.6299212598425197
          },
          {
            "duration": 0.7058820000000026,
            "durationTicks": 120,
            "midi": 59,
            "name": "B3",
            "ticks": 32040,
            "time": 188.470494,
            "velocity": 0.6299212598425197
          },
          {
            "duration": 0.35294099999998707,
            "durationTicks": 60,
            "midi": 60,
            "name": "C4",
            "ticks": 32160,
            "time": 189.176376,
            "velocity": 0.6299212598425197
          },
          {
            "duration": 0.35294099999998707,
            "durationTicks": 60,
            "midi": 57,
            "name": "A3",
            "ticks": 32160,
            "time": 189.176376,
            "velocity": 0.6299212598425197
          },
          {
            "duration": 0.35294099999998707,
            "durationTicks": 60,
            "midi": 52,
            "name": "E3",
            "ticks": 32160,
            "time": 189.176376,
            "velocity": 0.6299212598425197
          },
          {
            "duration": 0.17647049999999354,
            "durationTicks": 30,
            "midi": 60,
            "name": "C4",
            "ticks": 32250,
            "time": 189.7057875,
            "velocity": 0.6299212598425197
          },
          {
            "duration": 0.17647049999999354,
            "durationTicks": 30,
            "midi": 57,
            "name": "A3",
            "ticks": 32250,
            "time": 189.7057875,
            "velocity": 0.6299212598425197
          },
          {
            "duration": 0.17647049999999354,
            "durationTicks": 30,
            "midi": 52,
            "name": "E3",
            "ticks": 32250,
            "time": 189.7057875,
            "velocity": 0.6299212598425197
          },
          {
            "duration": 0.17647049999999354,
            "durationTicks": 30,
            "midi": 60,
            "name": "C4",
            "ticks": 32310,
            "time": 190.0587285,
            "velocity": 0.6299212598425197
          },
          {
            "duration": 0.17647049999999354,
            "durationTicks": 30,
            "midi": 57,
            "name": "A3",
            "ticks": 32310,
            "time": 190.0587285,
            "velocity": 0.6299212598425197
          },
          {
            "duration": 0.17647049999999354,
            "durationTicks": 30,
            "midi": 52,
            "name": "E3",
            "ticks": 32310,
            "time": 190.0587285,
            "velocity": 0.6299212598425197
          },
          {
            "duration": 0.3529410000000155,
            "durationTicks": 60,
            "midi": 59,
            "name": "B3",
            "ticks": 32340,
            "time": 190.235199,
            "velocity": 0.6299212598425197
          },
          {
            "duration": 0.3529410000000155,
            "durationTicks": 60,
            "midi": 57,
            "name": "A3",
            "ticks": 32340,
            "time": 190.235199,
            "velocity": 0.6299212598425197
          },
          {
            "duration": 0.3529410000000155,
            "durationTicks": 60,
            "midi": 52,
            "name": "E3",
            "ticks": 32340,
            "time": 190.235199,
            "velocity": 0.6299212598425197
          },
          {
            "duration": 0.35294099999998707,
            "durationTicks": 60,
            "midi": 52,
            "name": "E3",
            "ticks": 32400,
            "time": 190.58814,
            "velocity": 0.6299212598425197
          },
          {
            "duration": 0.35294099999998707,
            "durationTicks": 60,
            "midi": 60,
            "name": "C4",
            "ticks": 32400,
            "time": 190.58814,
            "velocity": 0.6299212598425197
          },
          {
            "duration": 0.35294099999998707,
            "durationTicks": 60,
            "midi": 57,
            "name": "A3",
            "ticks": 32400,
            "time": 190.58814,
            "velocity": 0.6299212598425197
          },
          {
            "duration": 0.3529410000000155,
            "durationTicks": 60,
            "midi": 52,
            "name": "E3",
            "ticks": 32460,
            "time": 190.941081,
            "velocity": 0.6299212598425197
          },
          {
            "duration": 0.3529410000000155,
            "durationTicks": 60,
            "midi": 59,
            "name": "B3",
            "ticks": 32460,
            "time": 190.941081,
            "velocity": 0.6299212598425197
          },
          {
            "duration": 0.3529410000000155,
            "durationTicks": 60,
            "midi": 57,
            "name": "A3",
            "ticks": 32460,
            "time": 190.941081,
            "velocity": 0.6299212598425197
          },
          {
            "duration": 0.35294099999998707,
            "durationTicks": 60,
            "midi": 60,
            "name": "C4",
            "ticks": 32520,
            "time": 191.294022,
            "velocity": 0.6299212598425197
          },
          {
            "duration": 0.35294099999998707,
            "durationTicks": 60,
            "midi": 57,
            "name": "A3",
            "ticks": 32520,
            "time": 191.294022,
            "velocity": 0.6299212598425197
          },
          {
            "duration": 0.35294099999998707,
            "durationTicks": 60,
            "midi": 52,
            "name": "E3",
            "ticks": 32520,
            "time": 191.294022,
            "velocity": 0.6299212598425197
          },
          {
            "duration": 0.35294099999998707,
            "durationTicks": 60,
            "midi": 51,
            "name": "D#3",
            "ticks": 32640,
            "time": 191.99990400000002,
            "velocity": 0.6299212598425197
          },
          {
            "duration": 0.35294099999998707,
            "durationTicks": 60,
            "midi": 62,
            "name": "D4",
            "ticks": 32640,
            "time": 191.99990400000002,
            "velocity": 0.6299212598425197
          },
          {
            "duration": 0.35294099999998707,
            "durationTicks": 60,
            "midi": 57,
            "name": "A3",
            "ticks": 32640,
            "time": 191.99990400000002,
            "velocity": 0.6299212598425197
          },
          {
            "duration": 0.35294099999998707,
            "durationTicks": 60,
            "midi": 55,
            "name": "G3",
            "ticks": 32640,
            "time": 191.99990400000002,
            "velocity": 0.6299212598425197
          },
          {
            "duration": 0.17647049999999354,
            "durationTicks": 30,
            "midi": 51,
            "name": "D#3",
            "ticks": 32730,
            "time": 192.5293155,
            "velocity": 0.6299212598425197
          },
          {
            "duration": 0.17647049999999354,
            "durationTicks": 30,
            "midi": 62,
            "name": "D4",
            "ticks": 32730,
            "time": 192.5293155,
            "velocity": 0.6299212598425197
          },
          {
            "duration": 0.17647049999999354,
            "durationTicks": 30,
            "midi": 55,
            "name": "G3",
            "ticks": 32730,
            "time": 192.5293155,
            "velocity": 0.6299212598425197
          },
          {
            "duration": 0.17647049999999354,
            "durationTicks": 30,
            "midi": 57,
            "name": "A3",
            "ticks": 32730,
            "time": 192.5293155,
            "velocity": 0.6299212598425197
          },
          {
            "duration": 0.17647049999999354,
            "durationTicks": 30,
            "midi": 62,
            "name": "D4",
            "ticks": 32790,
            "time": 192.8822565,
            "velocity": 0.6299212598425197
          },
          {
            "duration": 0.17647049999999354,
            "durationTicks": 30,
            "midi": 55,
            "name": "G3",
            "ticks": 32790,
            "time": 192.8822565,
            "velocity": 0.6299212598425197
          },
          {
            "duration": 0.17647049999999354,
            "durationTicks": 30,
            "midi": 57,
            "name": "A3",
            "ticks": 32790,
            "time": 192.8822565,
            "velocity": 0.6299212598425197
          },
          {
            "duration": 0.17647049999999354,
            "durationTicks": 30,
            "midi": 51,
            "name": "D#3",
            "ticks": 32790,
            "time": 192.8822565,
            "velocity": 0.6299212598425197
          },
          {
            "duration": 0.3529410000000155,
            "durationTicks": 60,
            "midi": 51,
            "name": "D#3",
            "ticks": 32850,
            "time": 193.2351975,
            "velocity": 0.6299212598425197
          },
          {
            "duration": 0.3529410000000155,
            "durationTicks": 60,
            "midi": 55,
            "name": "G3",
            "ticks": 32850,
            "time": 193.2351975,
            "velocity": 0.6299212598425197
          },
          {
            "duration": 0.3529410000000155,
            "durationTicks": 60,
            "midi": 57,
            "name": "A3",
            "ticks": 32850,
            "time": 193.2351975,
            "velocity": 0.6299212598425197
          },
          {
            "duration": 0.3529410000000155,
            "durationTicks": 60,
            "midi": 60,
            "name": "C4",
            "ticks": 32850,
            "time": 193.2351975,
            "velocity": 0.6299212598425197
          },
          {
            "duration": 0.17647049999999354,
            "durationTicks": 30,
            "midi": 51,
            "name": "D#3",
            "ticks": 32910,
            "time": 193.5881385,
            "velocity": 0.6299212598425197
          },
          {
            "duration": 0.17647049999999354,
            "durationTicks": 30,
            "midi": 60,
            "name": "C4",
            "ticks": 32910,
            "time": 193.5881385,
            "velocity": 0.6299212598425197
          },
          {
            "duration": 0.17647049999999354,
            "durationTicks": 30,
            "midi": 57,
            "name": "A3",
            "ticks": 32910,
            "time": 193.5881385,
            "velocity": 0.6299212598425197
          },
          {
            "duration": 0.17647049999999354,
            "durationTicks": 30,
            "midi": 55,
            "name": "G3",
            "ticks": 32910,
            "time": 193.5881385,
            "velocity": 0.6299212598425197
          },
          {
            "duration": 0.35294099999998707,
            "durationTicks": 60,
            "midi": 60,
            "name": "C4",
            "ticks": 32940,
            "time": 193.764609,
            "velocity": 0.6299212598425197
          },
          {
            "duration": 0.35294099999998707,
            "durationTicks": 60,
            "midi": 57,
            "name": "A3",
            "ticks": 32940,
            "time": 193.764609,
            "velocity": 0.6299212598425197
          },
          {
            "duration": 0.35294099999998707,
            "durationTicks": 60,
            "midi": 55,
            "name": "G3",
            "ticks": 32940,
            "time": 193.764609,
            "velocity": 0.6299212598425197
          },
          {
            "duration": 0.35294099999998707,
            "durationTicks": 60,
            "midi": 51,
            "name": "D#3",
            "ticks": 32940,
            "time": 193.764609,
            "velocity": 0.6299212598425197
          },
          {
            "duration": 0.7058820000000026,
            "durationTicks": 120,
            "midi": 60,
            "name": "C4",
            "ticks": 33000,
            "time": 194.11755,
            "velocity": 0.6299212598425197
          },
          {
            "duration": 0.7058820000000026,
            "durationTicks": 120,
            "midi": 55,
            "name": "G3",
            "ticks": 33000,
            "time": 194.11755,
            "velocity": 0.6299212598425197
          },
          {
            "duration": 0.7058820000000026,
            "durationTicks": 120,
            "midi": 57,
            "name": "A3",
            "ticks": 33000,
            "time": 194.11755,
            "velocity": 0.6299212598425197
          },
          {
            "duration": 0.7058820000000026,
            "durationTicks": 120,
            "midi": 51,
            "name": "D#3",
            "ticks": 33000,
            "time": 194.11755,
            "velocity": 0.6299212598425197
          },
          {
            "duration": 0.3529410000000155,
            "durationTicks": 60,
            "midi": 66,
            "name": "F#4",
            "ticks": 33120,
            "time": 194.823432,
            "velocity": 0.6299212598425197
          },
          {
            "duration": 0.3529410000000155,
            "durationTicks": 60,
            "midi": 62,
            "name": "D4",
            "ticks": 33120,
            "time": 194.823432,
            "velocity": 0.6299212598425197
          },
          {
            "duration": 0.3529410000000155,
            "durationTicks": 60,
            "midi": 59,
            "name": "B3",
            "ticks": 33120,
            "time": 194.823432,
            "velocity": 0.6299212598425197
          },
          {
            "duration": 0.3529410000000155,
            "durationTicks": 60,
            "midi": 55,
            "name": "G3",
            "ticks": 33120,
            "time": 194.823432,
            "velocity": 0.6299212598425197
          },
          {
            "duration": 0.17647049999999354,
            "durationTicks": 30,
            "midi": 62,
            "name": "D4",
            "ticks": 33210,
            "time": 195.3528435,
            "velocity": 0.6299212598425197
          },
          {
            "duration": 0.17647049999999354,
            "durationTicks": 30,
            "midi": 59,
            "name": "B3",
            "ticks": 33210,
            "time": 195.3528435,
            "velocity": 0.6299212598425197
          },
          {
            "duration": 0.17647049999999354,
            "durationTicks": 30,
            "midi": 55,
            "name": "G3",
            "ticks": 33210,
            "time": 195.3528435,
            "velocity": 0.6299212598425197
          },
          {
            "duration": 0.17647049999999354,
            "durationTicks": 30,
            "midi": 66,
            "name": "F#4",
            "ticks": 33210,
            "time": 195.3528435,
            "velocity": 0.6299212598425197
          },
          {
            "duration": 0.17647050000002196,
            "durationTicks": 30,
            "midi": 62,
            "name": "D4",
            "ticks": 33270,
            "time": 195.7057845,
            "velocity": 0.6299212598425197
          },
          {
            "duration": 0.17647050000002196,
            "durationTicks": 30,
            "midi": 59,
            "name": "B3",
            "ticks": 33270,
            "time": 195.7057845,
            "velocity": 0.6299212598425197
          },
          {
            "duration": 0.17647050000002196,
            "durationTicks": 30,
            "midi": 55,
            "name": "G3",
            "ticks": 33270,
            "time": 195.7057845,
            "velocity": 0.6299212598425197
          },
          {
            "duration": 0.17647050000002196,
            "durationTicks": 30,
            "midi": 66,
            "name": "F#4",
            "ticks": 33270,
            "time": 195.7057845,
            "velocity": 0.6299212598425197
          },
          {
            "duration": 0.35294099999998707,
            "durationTicks": 60,
            "midi": 62,
            "name": "D4",
            "ticks": 33300,
            "time": 195.88225500000001,
            "velocity": 0.6299212598425197
          },
          {
            "duration": 0.35294099999998707,
            "durationTicks": 60,
            "midi": 59,
            "name": "B3",
            "ticks": 33300,
            "time": 195.88225500000001,
            "velocity": 0.6299212598425197
          },
          {
            "duration": 0.35294099999998707,
            "durationTicks": 60,
            "midi": 55,
            "name": "G3",
            "ticks": 33300,
            "time": 195.88225500000001,
            "velocity": 0.6299212598425197
          },
          {
            "duration": 0.35294099999998707,
            "durationTicks": 60,
            "midi": 64,
            "name": "E4",
            "ticks": 33300,
            "time": 195.88225500000001,
            "velocity": 0.6299212598425197
          },
          {
            "duration": 0.35294099999998707,
            "durationTicks": 60,
            "midi": 62,
            "name": "D4",
            "ticks": 33360,
            "time": 196.235196,
            "velocity": 0.6299212598425197
          },
          {
            "duration": 0.35294099999998707,
            "durationTicks": 60,
            "midi": 59,
            "name": "B3",
            "ticks": 33360,
            "time": 196.235196,
            "velocity": 0.6299212598425197
          },
          {
            "duration": 0.35294099999998707,
            "durationTicks": 60,
            "midi": 55,
            "name": "G3",
            "ticks": 33360,
            "time": 196.235196,
            "velocity": 0.6299212598425197
          },
          {
            "duration": 0.35294099999998707,
            "durationTicks": 60,
            "midi": 66,
            "name": "F#4",
            "ticks": 33360,
            "time": 196.235196,
            "velocity": 0.6299212598425197
          },
          {
            "duration": 0.3529410000000155,
            "durationTicks": 60,
            "midi": 62,
            "name": "D4",
            "ticks": 33420,
            "time": 196.588137,
            "velocity": 0.6299212598425197
          },
          {
            "duration": 0.3529410000000155,
            "durationTicks": 60,
            "midi": 59,
            "name": "B3",
            "ticks": 33420,
            "time": 196.588137,
            "velocity": 0.6299212598425197
          },
          {
            "duration": 0.3529410000000155,
            "durationTicks": 60,
            "midi": 55,
            "name": "G3",
            "ticks": 33420,
            "time": 196.588137,
            "velocity": 0.6299212598425197
          },
          {
            "duration": 0.3529410000000155,
            "durationTicks": 60,
            "midi": 64,
            "name": "E4",
            "ticks": 33420,
            "time": 196.588137,
            "velocity": 0.6299212598425197
          },
          {
            "duration": 0.35294099999998707,
            "durationTicks": 60,
            "midi": 62,
            "name": "D4",
            "ticks": 33480,
            "time": 196.941078,
            "velocity": 0.6299212598425197
          },
          {
            "duration": 0.35294099999998707,
            "durationTicks": 60,
            "midi": 59,
            "name": "B3",
            "ticks": 33480,
            "time": 196.941078,
            "velocity": 0.6299212598425197
          },
          {
            "duration": 0.35294099999998707,
            "durationTicks": 60,
            "midi": 55,
            "name": "G3",
            "ticks": 33480,
            "time": 196.941078,
            "velocity": 0.6299212598425197
          },
          {
            "duration": 0.35294099999998707,
            "durationTicks": 60,
            "midi": 66,
            "name": "F#4",
            "ticks": 33480,
            "time": 196.941078,
            "velocity": 0.6299212598425197
          },
          {
            "duration": 0.35294099999998707,
            "durationTicks": 60,
            "midi": 66,
            "name": "F#4",
            "ticks": 33600,
            "time": 197.64696,
            "velocity": 0.6299212598425197
          },
          {
            "duration": 0.35294099999998707,
            "durationTicks": 60,
            "midi": 62,
            "name": "D4",
            "ticks": 33600,
            "time": 197.64696,
            "velocity": 0.6299212598425197
          },
          {
            "duration": 0.35294099999998707,
            "durationTicks": 60,
            "midi": 57,
            "name": "A3",
            "ticks": 33600,
            "time": 197.64696,
            "velocity": 0.6299212598425197
          },
          {
            "duration": 0.5294114999999806,
            "durationTicks": 90,
            "midi": 57,
            "name": "A3",
            "ticks": 33690,
            "time": 198.17637150000002,
            "velocity": 0.6299212598425197
          },
          {
            "duration": 0.5294114999999806,
            "durationTicks": 90,
            "midi": 62,
            "name": "D4",
            "ticks": 33690,
            "time": 198.17637150000002,
            "velocity": 0.6299212598425197
          },
          {
            "duration": 0.5294114999999806,
            "durationTicks": 90,
            "midi": 66,
            "name": "F#4",
            "ticks": 33690,
            "time": 198.17637150000002,
            "velocity": 0.6299212598425197
          },
          {
            "duration": 0.17647049999999354,
            "durationTicks": 30,
            "midi": 56,
            "name": "G#3",
            "ticks": 33840,
            "time": 199.058724,
            "velocity": 0.6299212598425197
          },
          {
            "duration": 0.17647049999999354,
            "durationTicks": 30,
            "midi": 60,
            "name": "C4",
            "ticks": 33840,
            "time": 199.058724,
            "velocity": 0.6299212598425197
          },
          {
            "duration": 0.17647049999999354,
            "durationTicks": 30,
            "midi": 65,
            "name": "F4",
            "ticks": 33840,
            "time": 199.058724,
            "velocity": 0.6299212598425197
          },
          {
            "duration": 0.17647049999999354,
            "durationTicks": 30,
            "midi": 62,
            "name": "D4",
            "ticks": 33840,
            "time": 199.058724,
            "velocity": 0.6299212598425197
          },
          {
            "duration": 0.17647049999999354,
            "durationTicks": 30,
            "midi": 56,
            "name": "G#3",
            "ticks": 33870,
            "time": 199.2351945,
            "velocity": 0.6299212598425197
          },
          {
            "duration": 0.17647049999999354,
            "durationTicks": 30,
            "midi": 60,
            "name": "C4",
            "ticks": 33870,
            "time": 199.2351945,
            "velocity": 0.6299212598425197
          },
          {
            "duration": 0.17647049999999354,
            "durationTicks": 30,
            "midi": 65,
            "name": "F4",
            "ticks": 33870,
            "time": 199.2351945,
            "velocity": 0.6299212598425197
          },
          {
            "duration": 0.17647049999999354,
            "durationTicks": 30,
            "midi": 62,
            "name": "D4",
            "ticks": 33870,
            "time": 199.2351945,
            "velocity": 0.6299212598425197
          },
          {
            "duration": 0.3529410000000155,
            "durationTicks": 60,
            "midi": 56,
            "name": "G#3",
            "ticks": 33900,
            "time": 199.411665,
            "velocity": 0.6299212598425197
          },
          {
            "duration": 0.3529410000000155,
            "durationTicks": 60,
            "midi": 60,
            "name": "C4",
            "ticks": 33900,
            "time": 199.411665,
            "velocity": 0.6299212598425197
          },
          {
            "duration": 0.3529410000000155,
            "durationTicks": 60,
            "midi": 65,
            "name": "F4",
            "ticks": 33900,
            "time": 199.411665,
            "velocity": 0.6299212598425197
          },
          {
            "duration": 0.3529410000000155,
            "durationTicks": 60,
            "midi": 62,
            "name": "D4",
            "ticks": 33900,
            "time": 199.411665,
            "velocity": 0.6299212598425197
          },
          {
            "duration": 0.7058819999999741,
            "durationTicks": 120,
            "midi": 56,
            "name": "G#3",
            "ticks": 33960,
            "time": 199.76460600000001,
            "velocity": 0.6299212598425197
          },
          {
            "duration": 0.7058819999999741,
            "durationTicks": 120,
            "midi": 60,
            "name": "C4",
            "ticks": 33960,
            "time": 199.76460600000001,
            "velocity": 0.6299212598425197
          },
          {
            "duration": 0.7058819999999741,
            "durationTicks": 120,
            "midi": 65,
            "name": "F4",
            "ticks": 33960,
            "time": 199.76460600000001,
            "velocity": 0.6299212598425197
          },
          {
            "duration": 0.7058819999999741,
            "durationTicks": 120,
            "midi": 62,
            "name": "D4",
            "ticks": 33960,
            "time": 199.76460600000001,
            "velocity": 0.6299212598425197
          },
          {
            "duration": 0.3529410000000155,
            "durationTicks": 60,
            "midi": 60,
            "name": "C4",
            "ticks": 34080,
            "time": 200.470488,
            "velocity": 0.6299212598425197
          },
          {
            "duration": 0.3529410000000155,
            "durationTicks": 60,
            "midi": 64,
            "name": "E4",
            "ticks": 34080,
            "time": 200.470488,
            "velocity": 0.6299212598425197
          },
          {
            "duration": 0.3529410000000155,
            "durationTicks": 60,
            "midi": 55,
            "name": "G3",
            "ticks": 34080,
            "time": 200.470488,
            "velocity": 0.6299212598425197
          },
          {
            "duration": 0.17647049999999354,
            "durationTicks": 30,
            "midi": 60,
            "name": "C4",
            "ticks": 34170,
            "time": 200.9998995,
            "velocity": 0.6299212598425197
          },
          {
            "duration": 0.17647049999999354,
            "durationTicks": 30,
            "midi": 64,
            "name": "E4",
            "ticks": 34170,
            "time": 200.9998995,
            "velocity": 0.6299212598425197
          },
          {
            "duration": 0.17647049999999354,
            "durationTicks": 30,
            "midi": 55,
            "name": "G3",
            "ticks": 34170,
            "time": 200.9998995,
            "velocity": 0.6299212598425197
          },
          {
            "duration": 0.17647049999999354,
            "durationTicks": 30,
            "midi": 60,
            "name": "C4",
            "ticks": 34230,
            "time": 201.3528405,
            "velocity": 0.6299212598425197
          },
          {
            "duration": 0.17647049999999354,
            "durationTicks": 30,
            "midi": 64,
            "name": "E4",
            "ticks": 34230,
            "time": 201.3528405,
            "velocity": 0.6299212598425197
          },
          {
            "duration": 0.17647049999999354,
            "durationTicks": 30,
            "midi": 55,
            "name": "G3",
            "ticks": 34230,
            "time": 201.3528405,
            "velocity": 0.6299212598425197
          },
          {
            "duration": 0.35294099999998707,
            "durationTicks": 60,
            "midi": 64,
            "name": "E4",
            "ticks": 34260,
            "time": 201.529311,
            "velocity": 0.6299212598425197
          },
          {
            "duration": 0.35294099999998707,
            "durationTicks": 60,
            "midi": 59,
            "name": "B3",
            "ticks": 34260,
            "time": 201.529311,
            "velocity": 0.6299212598425197
          },
          {
            "duration": 0.35294099999998707,
            "durationTicks": 60,
            "midi": 55,
            "name": "G3",
            "ticks": 34260,
            "time": 201.529311,
            "velocity": 0.6299212598425197
          },
          {
            "duration": 0.3529410000000155,
            "durationTicks": 60,
            "midi": 60,
            "name": "C4",
            "ticks": 34320,
            "time": 201.882252,
            "velocity": 0.6299212598425197
          },
          {
            "duration": 0.3529410000000155,
            "durationTicks": 60,
            "midi": 64,
            "name": "E4",
            "ticks": 34320,
            "time": 201.882252,
            "velocity": 0.6299212598425197
          },
          {
            "duration": 0.3529410000000155,
            "durationTicks": 60,
            "midi": 55,
            "name": "G3",
            "ticks": 34320,
            "time": 201.882252,
            "velocity": 0.6299212598425197
          },
          {
            "duration": 0.35294099999998707,
            "durationTicks": 60,
            "midi": 64,
            "name": "E4",
            "ticks": 34380,
            "time": 202.235193,
            "velocity": 0.6299212598425197
          },
          {
            "duration": 0.35294099999998707,
            "durationTicks": 60,
            "midi": 59,
            "name": "B3",
            "ticks": 34380,
            "time": 202.235193,
            "velocity": 0.6299212598425197
          },
          {
            "duration": 0.35294099999998707,
            "durationTicks": 60,
            "midi": 55,
            "name": "G3",
            "ticks": 34380,
            "time": 202.235193,
            "velocity": 0.6299212598425197
          },
          {
            "duration": 0.3529410000000155,
            "durationTicks": 60,
            "midi": 60,
            "name": "C4",
            "ticks": 34440,
            "time": 202.588134,
            "velocity": 0.6299212598425197
          },
          {
            "duration": 0.3529410000000155,
            "durationTicks": 60,
            "midi": 55,
            "name": "G3",
            "ticks": 34440,
            "time": 202.588134,
            "velocity": 0.6299212598425197
          },
          {
            "duration": 0.3529410000000155,
            "durationTicks": 60,
            "midi": 64,
            "name": "E4",
            "ticks": 34440,
            "time": 202.588134,
            "velocity": 0.6299212598425197
          },
          {
            "duration": 1.4117640000000051,
            "durationTicks": 240,
            "midi": 57,
            "name": "A3",
            "ticks": 34530,
            "time": 203.1175455,
            "velocity": 0.6299212598425197
          },
          {
            "duration": 1.4117640000000051,
            "durationTicks": 240,
            "midi": 61,
            "name": "C#4",
            "ticks": 34530,
            "time": 203.1175455,
            "velocity": 0.6299212598425197
          },
          {
            "duration": 1.4117640000000051,
            "durationTicks": 240,
            "midi": 64,
            "name": "E4",
            "ticks": 34530,
            "time": 203.1175455,
            "velocity": 0.6299212598425197
          },
          {
            "duration": 0.7058820000000026,
            "durationTicks": 120,
            "midi": 68,
            "name": "G#4",
            "ticks": 34770,
            "time": 204.5293095,
            "velocity": 0.6299212598425197
          },
          {
            "duration": 0.7058820000000026,
            "durationTicks": 120,
            "midi": 64,
            "name": "E4",
            "ticks": 34770,
            "time": 204.5293095,
            "velocity": 0.6299212598425197
          },
          {
            "duration": 0.7058820000000026,
            "durationTicks": 120,
            "midi": 61,
            "name": "C#4",
            "ticks": 34770,
            "time": 204.5293095,
            "velocity": 0.6299212598425197
          },
          {
            "duration": 0.7058820000000026,
            "durationTicks": 120,
            "midi": 57,
            "name": "A3",
            "ticks": 34770,
            "time": 204.5293095,
            "velocity": 0.6299212598425197
          },
          {
            "duration": 0.3529410000000155,
            "durationTicks": 60,
            "midi": 57,
            "name": "A3",
            "ticks": 34950,
            "time": 205.5881325,
            "velocity": 0.6299212598425197
          },
          {
            "duration": 0.3529410000000155,
            "durationTicks": 60,
            "midi": 61,
            "name": "C#4",
            "ticks": 34950,
            "time": 205.5881325,
            "velocity": 0.6299212598425197
          },
          {
            "duration": 0.34705865000000813,
            "durationTicks": 59,
            "midi": 64,
            "name": "E4",
            "ticks": 34950,
            "time": 205.5881325,
            "velocity": 0.6299212598425197
          },
          {
            "duration": 0.34705865000000813,
            "durationTicks": 59,
            "midi": 68,
            "name": "G#4",
            "ticks": 34950,
            "time": 205.5881325,
            "velocity": 0.6299212598425197
          },
          {
            "duration": 0.35294099999998707,
            "durationTicks": 60,
            "midi": 68,
            "name": "G#4",
            "ticks": 35040,
            "time": 206.117544,
            "velocity": 0.6299212598425197
          },
          {
            "duration": 0.35294099999998707,
            "durationTicks": 60,
            "midi": 63,
            "name": "D#4",
            "ticks": 35040,
            "time": 206.117544,
            "velocity": 0.6299212598425197
          },
          {
            "duration": 0.35294099999998707,
            "durationTicks": 60,
            "midi": 59,
            "name": "B3",
            "ticks": 35040,
            "time": 206.117544,
            "velocity": 0.6299212598425197
          },
          {
            "duration": 0.17647050000002196,
            "durationTicks": 30,
            "midi": 68,
            "name": "G#4",
            "ticks": 35130,
            "time": 206.6469555,
            "velocity": 0.6299212598425197
          },
          {
            "duration": 0.17647050000002196,
            "durationTicks": 30,
            "midi": 63,
            "name": "D#4",
            "ticks": 35130,
            "time": 206.6469555,
            "velocity": 0.6299212598425197
          },
          {
            "duration": 0.17647050000002196,
            "durationTicks": 30,
            "midi": 59,
            "name": "B3",
            "ticks": 35130,
            "time": 206.6469555,
            "velocity": 0.6299212598425197
          },
          {
            "duration": 0.17647049999999354,
            "durationTicks": 30,
            "midi": 68,
            "name": "G#4",
            "ticks": 35190,
            "time": 206.9998965,
            "velocity": 0.6299212598425197
          },
          {
            "duration": 0.17647049999999354,
            "durationTicks": 30,
            "midi": 63,
            "name": "D#4",
            "ticks": 35190,
            "time": 206.9998965,
            "velocity": 0.6299212598425197
          },
          {
            "duration": 0.17647049999999354,
            "durationTicks": 30,
            "midi": 59,
            "name": "B3",
            "ticks": 35190,
            "time": 206.9998965,
            "velocity": 0.6299212598425197
          },
          {
            "duration": 0.3529410000000155,
            "durationTicks": 60,
            "midi": 66,
            "name": "F#4",
            "ticks": 35220,
            "time": 207.176367,
            "velocity": 0.6299212598425197
          },
          {
            "duration": 0.3529410000000155,
            "durationTicks": 60,
            "midi": 63,
            "name": "D#4",
            "ticks": 35220,
            "time": 207.176367,
            "velocity": 0.6299212598425197
          },
          {
            "duration": 0.3529410000000155,
            "durationTicks": 60,
            "midi": 59,
            "name": "B3",
            "ticks": 35220,
            "time": 207.176367,
            "velocity": 0.6299212598425197
          },
          {
            "duration": 0.35294099999998707,
            "durationTicks": 60,
            "midi": 59,
            "name": "B3",
            "ticks": 35280,
            "time": 207.52930800000001,
            "velocity": 0.6299212598425197
          },
          {
            "duration": 0.35294099999998707,
            "durationTicks": 60,
            "midi": 68,
            "name": "G#4",
            "ticks": 35280,
            "time": 207.52930800000001,
            "velocity": 0.6299212598425197
          },
          {
            "duration": 0.35294099999998707,
            "durationTicks": 60,
            "midi": 63,
            "name": "D#4",
            "ticks": 35280,
            "time": 207.52930800000001,
            "velocity": 0.6299212598425197
          },
          {
            "duration": 0.35294099999998707,
            "durationTicks": 60,
            "midi": 66,
            "name": "F#4",
            "ticks": 35340,
            "time": 207.882249,
            "velocity": 0.6299212598425197
          },
          {
            "duration": 0.35294099999998707,
            "durationTicks": 60,
            "midi": 63,
            "name": "D#4",
            "ticks": 35340,
            "time": 207.882249,
            "velocity": 0.6299212598425197
          },
          {
            "duration": 0.35294099999998707,
            "durationTicks": 60,
            "midi": 59,
            "name": "B3",
            "ticks": 35340,
            "time": 207.882249,
            "velocity": 0.6299212598425197
          },
          {
            "duration": 0.3529410000000155,
            "durationTicks": 60,
            "midi": 68,
            "name": "G#4",
            "ticks": 35400,
            "time": 208.23519,
            "velocity": 0.6299212598425197
          },
          {
            "duration": 0.3529410000000155,
            "durationTicks": 60,
            "midi": 63,
            "name": "D#4",
            "ticks": 35400,
            "time": 208.23519,
            "velocity": 0.6299212598425197
          },
          {
            "duration": 0.3529410000000155,
            "durationTicks": 60,
            "midi": 59,
            "name": "B3",
            "ticks": 35400,
            "time": 208.23519,
            "velocity": 0.6299212598425197
          },
          {
            "duration": 0.3529410000000155,
            "durationTicks": 60,
            "midi": 67,
            "name": "G4",
            "ticks": 35520,
            "time": 208.941072,
            "velocity": 0.6299212598425197
          },
          {
            "duration": 0.3529410000000155,
            "durationTicks": 60,
            "midi": 63,
            "name": "D#4",
            "ticks": 35520,
            "time": 208.941072,
            "velocity": 0.6299212598425197
          },
          {
            "duration": 0.3529410000000155,
            "durationTicks": 60,
            "midi": 61,
            "name": "C#4",
            "ticks": 35520,
            "time": 208.941072,
            "velocity": 0.6299212598425197
          },
          {
            "duration": 0.17647049999999354,
            "durationTicks": 30,
            "midi": 67,
            "name": "G4",
            "ticks": 35610,
            "time": 209.4704835,
            "velocity": 0.6299212598425197
          },
          {
            "duration": 0.17647049999999354,
            "durationTicks": 30,
            "midi": 63,
            "name": "D#4",
            "ticks": 35610,
            "time": 209.4704835,
            "velocity": 0.6299212598425197
          },
          {
            "duration": 0.17647049999999354,
            "durationTicks": 30,
            "midi": 61,
            "name": "C#4",
            "ticks": 35610,
            "time": 209.4704835,
            "velocity": 0.6299212598425197
          },
          {
            "duration": 0.17647049999999354,
            "durationTicks": 30,
            "midi": 67,
            "name": "G4",
            "ticks": 35670,
            "time": 209.82342450000002,
            "velocity": 0.6299212598425197
          },
          {
            "duration": 0.17647049999999354,
            "durationTicks": 30,
            "midi": 61,
            "name": "C#4",
            "ticks": 35670,
            "time": 209.82342450000002,
            "velocity": 0.6299212598425197
          },
          {
            "duration": 0.17647049999999354,
            "durationTicks": 30,
            "midi": 63,
            "name": "D#4",
            "ticks": 35670,
            "time": 209.82342450000002,
            "velocity": 0.6299212598425197
          },
          {
            "duration": 0.35294099999998707,
            "durationTicks": 60,
            "midi": 68,
            "name": "G#4",
            "ticks": 35730,
            "time": 210.1763655,
            "velocity": 0.6299212598425197
          },
          {
            "duration": 0.35294099999998707,
            "durationTicks": 60,
            "midi": 63,
            "name": "D#4",
            "ticks": 35730,
            "time": 210.1763655,
            "velocity": 0.6299212598425197
          },
          {
            "duration": 0.35294099999998707,
            "durationTicks": 60,
            "midi": 61,
            "name": "C#4",
            "ticks": 35730,
            "time": 210.1763655,
            "velocity": 0.6299212598425197
          },
          {
            "duration": 0.17647050000002196,
            "durationTicks": 30,
            "midi": 68,
            "name": "G#4",
            "ticks": 35790,
            "time": 210.5293065,
            "velocity": 0.6299212598425197
          },
          {
            "duration": 0.17647050000002196,
            "durationTicks": 30,
            "midi": 63,
            "name": "D#4",
            "ticks": 35790,
            "time": 210.5293065,
            "velocity": 0.6299212598425197
          },
          {
            "duration": 0.17647050000002196,
            "durationTicks": 30,
            "midi": 61,
            "name": "C#4",
            "ticks": 35790,
            "time": 210.5293065,
            "velocity": 0.6299212598425197
          },
          {
            "duration": 0.35294099999998707,
            "durationTicks": 60,
            "midi": 68,
            "name": "G#4",
            "ticks": 35820,
            "time": 210.705777,
            "velocity": 0.6299212598425197
          },
          {
            "duration": 0.35294099999998707,
            "durationTicks": 60,
            "midi": 63,
            "name": "D#4",
            "ticks": 35820,
            "time": 210.705777,
            "velocity": 0.6299212598425197
          },
          {
            "duration": 0.35294099999998707,
            "durationTicks": 60,
            "midi": 61,
            "name": "C#4",
            "ticks": 35820,
            "time": 210.705777,
            "velocity": 0.6299212598425197
          },
          {
            "duration": 0.7058820000000026,
            "durationTicks": 120,
            "midi": 67,
            "name": "G4",
            "ticks": 35880,
            "time": 211.058718,
            "velocity": 0.6299212598425197
          },
          {
            "duration": 0.7058820000000026,
            "durationTicks": 120,
            "midi": 63,
            "name": "D#4",
            "ticks": 35880,
            "time": 211.058718,
            "velocity": 0.6299212598425197
          },
          {
            "duration": 0.7058820000000026,
            "durationTicks": 120,
            "midi": 61,
            "name": "C#4",
            "ticks": 35880,
            "time": 211.058718,
            "velocity": 0.6299212598425197
          },
          {
            "duration": 0.3529410000000155,
            "durationTicks": 60,
            "midi": 62,
            "name": "D4",
            "ticks": 36000,
            "time": 211.7646,
            "velocity": 0.6299212598425197
          },
          {
            "duration": 0.3529410000000155,
            "durationTicks": 60,
            "midi": 59,
            "name": "B3",
            "ticks": 36000,
            "time": 211.7646,
            "velocity": 0.6299212598425197
          },
          {
            "duration": 0.3529410000000155,
            "durationTicks": 60,
            "midi": 54,
            "name": "F#3",
            "ticks": 36000,
            "time": 211.7646,
            "velocity": 0.6299212598425197
          },
          {
            "duration": 0.17647049999999354,
            "durationTicks": 30,
            "midi": 62,
            "name": "D4",
            "ticks": 36090,
            "time": 212.2940115,
            "velocity": 0.6299212598425197
          },
          {
            "duration": 0.17647049999999354,
            "durationTicks": 30,
            "midi": 59,
            "name": "B3",
            "ticks": 36090,
            "time": 212.2940115,
            "velocity": 0.6299212598425197
          },
          {
            "duration": 0.17647049999999354,
            "durationTicks": 30,
            "midi": 54,
            "name": "F#3",
            "ticks": 36090,
            "time": 212.2940115,
            "velocity": 0.6299212598425197
          },
          {
            "duration": 0.17647049999999354,
            "durationTicks": 30,
            "midi": 62,
            "name": "D4",
            "ticks": 36150,
            "time": 212.6469525,
            "velocity": 0.6299212598425197
          },
          {
            "duration": 0.17647049999999354,
            "durationTicks": 30,
            "midi": 59,
            "name": "B3",
            "ticks": 36150,
            "time": 212.6469525,
            "velocity": 0.6299212598425197
          },
          {
            "duration": 0.17647049999999354,
            "durationTicks": 30,
            "midi": 54,
            "name": "F#3",
            "ticks": 36150,
            "time": 212.6469525,
            "velocity": 0.6299212598425197
          },
          {
            "duration": 0.3529410000000155,
            "durationTicks": 60,
            "midi": 59,
            "name": "B3",
            "ticks": 36180,
            "time": 212.823423,
            "velocity": 0.6299212598425197
          },
          {
            "duration": 0.3529410000000155,
            "durationTicks": 60,
            "midi": 54,
            "name": "F#3",
            "ticks": 36180,
            "time": 212.823423,
            "velocity": 0.6299212598425197
          },
          {
            "duration": 0.3529410000000155,
            "durationTicks": 60,
            "midi": 61,
            "name": "C#4",
            "ticks": 36180,
            "time": 212.823423,
            "velocity": 0.6299212598425197
          },
          {
            "duration": 0.35294099999998707,
            "durationTicks": 60,
            "midi": 62,
            "name": "D4",
            "ticks": 36240,
            "time": 213.176364,
            "velocity": 0.6299212598425197
          },
          {
            "duration": 0.35294099999998707,
            "durationTicks": 60,
            "midi": 59,
            "name": "B3",
            "ticks": 36240,
            "time": 213.176364,
            "velocity": 0.6299212598425197
          },
          {
            "duration": 0.35294099999998707,
            "durationTicks": 60,
            "midi": 54,
            "name": "F#3",
            "ticks": 36240,
            "time": 213.176364,
            "velocity": 0.6299212598425197
          },
          {
            "duration": 0.3529410000000155,
            "durationTicks": 60,
            "midi": 59,
            "name": "B3",
            "ticks": 36300,
            "time": 213.529305,
            "velocity": 0.6299212598425197
          },
          {
            "duration": 0.3529410000000155,
            "durationTicks": 60,
            "midi": 54,
            "name": "F#3",
            "ticks": 36300,
            "time": 213.529305,
            "velocity": 0.6299212598425197
          },
          {
            "duration": 0.3529410000000155,
            "durationTicks": 60,
            "midi": 61,
            "name": "C#4",
            "ticks": 36300,
            "time": 213.529305,
            "velocity": 0.6299212598425197
          },
          {
            "duration": 0.35294099999998707,
            "durationTicks": 60,
            "midi": 62,
            "name": "D4",
            "ticks": 36360,
            "time": 213.882246,
            "velocity": 0.6299212598425197
          },
          {
            "duration": 0.35294099999998707,
            "durationTicks": 60,
            "midi": 59,
            "name": "B3",
            "ticks": 36360,
            "time": 213.882246,
            "velocity": 0.6299212598425197
          },
          {
            "duration": 0.35294099999998707,
            "durationTicks": 60,
            "midi": 54,
            "name": "F#3",
            "ticks": 36360,
            "time": 213.882246,
            "velocity": 0.6299212598425197
          },
          {
            "duration": 0.35294099999998707,
            "durationTicks": 60,
            "midi": 64,
            "name": "E4",
            "ticks": 36480,
            "time": 214.588128,
            "velocity": 0.6299212598425197
          },
          {
            "duration": 0.35294099999998707,
            "durationTicks": 60,
            "midi": 59,
            "name": "B3",
            "ticks": 36480,
            "time": 214.588128,
            "velocity": 0.6299212598425197
          },
          {
            "duration": 0.35294099999998707,
            "durationTicks": 60,
            "midi": 57,
            "name": "A3",
            "ticks": 36480,
            "time": 214.588128,
            "velocity": 0.6299212598425197
          },
          {
            "duration": 0.35294099999998707,
            "durationTicks": 60,
            "midi": 53,
            "name": "F3",
            "ticks": 36480,
            "time": 214.588128,
            "velocity": 0.6299212598425197
          },
          {
            "duration": 0.17647050000002196,
            "durationTicks": 30,
            "midi": 59,
            "name": "B3",
            "ticks": 36570,
            "time": 215.1175395,
            "velocity": 0.6299212598425197
          },
          {
            "duration": 0.17647050000002196,
            "durationTicks": 30,
            "midi": 57,
            "name": "A3",
            "ticks": 36570,
            "time": 215.1175395,
            "velocity": 0.6299212598425197
          },
          {
            "duration": 0.17647050000002196,
            "durationTicks": 30,
            "midi": 64,
            "name": "E4",
            "ticks": 36570,
            "time": 215.1175395,
            "velocity": 0.6299212598425197
          },
          {
            "duration": 0.17647050000002196,
            "durationTicks": 30,
            "midi": 53,
            "name": "F3",
            "ticks": 36570,
            "time": 215.1175395,
            "velocity": 0.6299212598425197
          },
          {
            "duration": 0.17647049999999354,
            "durationTicks": 30,
            "midi": 59,
            "name": "B3",
            "ticks": 36630,
            "time": 215.4704805,
            "velocity": 0.6299212598425197
          },
          {
            "duration": 0.17647049999999354,
            "durationTicks": 30,
            "midi": 57,
            "name": "A3",
            "ticks": 36630,
            "time": 215.4704805,
            "velocity": 0.6299212598425197
          },
          {
            "duration": 0.17647049999999354,
            "durationTicks": 30,
            "midi": 64,
            "name": "E4",
            "ticks": 36630,
            "time": 215.4704805,
            "velocity": 0.6299212598425197
          },
          {
            "duration": 0.17647049999999354,
            "durationTicks": 30,
            "midi": 53,
            "name": "F3",
            "ticks": 36630,
            "time": 215.4704805,
            "velocity": 0.6299212598425197
          },
          {
            "duration": 0.3529410000000155,
            "durationTicks": 60,
            "midi": 59,
            "name": "B3",
            "ticks": 36690,
            "time": 215.8234215,
            "velocity": 0.6299212598425197
          },
          {
            "duration": 0.3529410000000155,
            "durationTicks": 60,
            "midi": 62,
            "name": "D4",
            "ticks": 36690,
            "time": 215.8234215,
            "velocity": 0.6299212598425197
          },
          {
            "duration": 0.3529410000000155,
            "durationTicks": 60,
            "midi": 57,
            "name": "A3",
            "ticks": 36690,
            "time": 215.8234215,
            "velocity": 0.6299212598425197
          },
          {
            "duration": 0.3529410000000155,
            "durationTicks": 60,
            "midi": 53,
            "name": "F3",
            "ticks": 36690,
            "time": 215.8234215,
            "velocity": 0.6299212598425197
          },
          {
            "duration": 0.17647049999999354,
            "durationTicks": 30,
            "midi": 59,
            "name": "B3",
            "ticks": 36750,
            "time": 216.1763625,
            "velocity": 0.6299212598425197
          },
          {
            "duration": 0.17647049999999354,
            "durationTicks": 30,
            "midi": 62,
            "name": "D4",
            "ticks": 36750,
            "time": 216.1763625,
            "velocity": 0.6299212598425197
          },
          {
            "duration": 0.17647049999999354,
            "durationTicks": 30,
            "midi": 57,
            "name": "A3",
            "ticks": 36750,
            "time": 216.1763625,
            "velocity": 0.6299212598425197
          },
          {
            "duration": 0.17647049999999354,
            "durationTicks": 30,
            "midi": 53,
            "name": "F3",
            "ticks": 36750,
            "time": 216.1763625,
            "velocity": 0.6299212598425197
          },
          {
            "duration": 0.35294099999998707,
            "durationTicks": 60,
            "midi": 62,
            "name": "D4",
            "ticks": 36780,
            "time": 216.352833,
            "velocity": 0.6299212598425197
          },
          {
            "duration": 0.35294099999998707,
            "durationTicks": 60,
            "midi": 59,
            "name": "B3",
            "ticks": 36780,
            "time": 216.352833,
            "velocity": 0.6299212598425197
          },
          {
            "duration": 0.35294099999998707,
            "durationTicks": 60,
            "midi": 57,
            "name": "A3",
            "ticks": 36780,
            "time": 216.352833,
            "velocity": 0.6299212598425197
          },
          {
            "duration": 0.35294099999998707,
            "durationTicks": 60,
            "midi": 53,
            "name": "F3",
            "ticks": 36780,
            "time": 216.352833,
            "velocity": 0.6299212598425197
          },
          {
            "duration": 0.7058820000000026,
            "durationTicks": 120,
            "midi": 62,
            "name": "D4",
            "ticks": 36840,
            "time": 216.705774,
            "velocity": 0.6299212598425197
          },
          {
            "duration": 0.7058820000000026,
            "durationTicks": 120,
            "midi": 59,
            "name": "B3",
            "ticks": 36840,
            "time": 216.705774,
            "velocity": 0.6299212598425197
          },
          {
            "duration": 0.7058820000000026,
            "durationTicks": 120,
            "midi": 57,
            "name": "A3",
            "ticks": 36840,
            "time": 216.705774,
            "velocity": 0.6299212598425197
          },
          {
            "duration": 0.7058820000000026,
            "durationTicks": 120,
            "midi": 53,
            "name": "F3",
            "ticks": 36840,
            "time": 216.705774,
            "velocity": 0.6299212598425197
          },
          {
            "duration": 0.3529410000000155,
            "durationTicks": 60,
            "midi": 64,
            "name": "E4",
            "ticks": 36960,
            "time": 217.411656,
            "velocity": 0.6299212598425197
          },
          {
            "duration": 0.3529410000000155,
            "durationTicks": 60,
            "midi": 61,
            "name": "C#4",
            "ticks": 36960,
            "time": 217.411656,
            "velocity": 0.6299212598425197
          },
          {
            "duration": 0.3529410000000155,
            "durationTicks": 60,
            "midi": 68,
            "name": "G#4",
            "ticks": 36960,
            "time": 217.411656,
            "velocity": 0.6299212598425197
          },
          {
            "duration": 0.3529410000000155,
            "durationTicks": 60,
            "midi": 57,
            "name": "A3",
            "ticks": 36960,
            "time": 217.411656,
            "velocity": 0.6299212598425197
          },
          {
            "duration": 0.17647049999999354,
            "durationTicks": 30,
            "midi": 68,
            "name": "G#4",
            "ticks": 37050,
            "time": 217.9410675,
            "velocity": 0.6299212598425197
          },
          {
            "duration": 0.17647049999999354,
            "durationTicks": 30,
            "midi": 64,
            "name": "E4",
            "ticks": 37050,
            "time": 217.9410675,
            "velocity": 0.6299212598425197
          },
          {
            "duration": 0.17647049999999354,
            "durationTicks": 30,
            "midi": 61,
            "name": "C#4",
            "ticks": 37050,
            "time": 217.9410675,
            "velocity": 0.6299212598425197
          },
          {
            "duration": 0.17647049999999354,
            "durationTicks": 30,
            "midi": 57,
            "name": "A3",
            "ticks": 37050,
            "time": 217.9410675,
            "velocity": 0.6299212598425197
          },
          {
            "duration": 0.17647050000002196,
            "durationTicks": 30,
            "midi": 68,
            "name": "G#4",
            "ticks": 37110,
            "time": 218.2940085,
            "velocity": 0.6299212598425197
          },
          {
            "duration": 0.17647050000002196,
            "durationTicks": 30,
            "midi": 64,
            "name": "E4",
            "ticks": 37110,
            "time": 218.2940085,
            "velocity": 0.6299212598425197
          },
          {
            "duration": 0.17647050000002196,
            "durationTicks": 30,
            "midi": 61,
            "name": "C#4",
            "ticks": 37110,
            "time": 218.2940085,
            "velocity": 0.6299212598425197
          },
          {
            "duration": 0.17647050000002196,
            "durationTicks": 30,
            "midi": 57,
            "name": "A3",
            "ticks": 37110,
            "time": 218.2940085,
            "velocity": 0.6299212598425197
          },
          {
            "duration": 0.35294099999998707,
            "durationTicks": 60,
            "midi": 66,
            "name": "F#4",
            "ticks": 37140,
            "time": 218.470479,
            "velocity": 0.6299212598425197
          },
          {
            "duration": 0.35294099999998707,
            "durationTicks": 60,
            "midi": 64,
            "name": "E4",
            "ticks": 37140,
            "time": 218.470479,
            "velocity": 0.6299212598425197
          },
          {
            "duration": 0.35294099999998707,
            "durationTicks": 60,
            "midi": 57,
            "name": "A3",
            "ticks": 37140,
            "time": 218.470479,
            "velocity": 0.6299212598425197
          },
          {
            "duration": 0.35294099999998707,
            "durationTicks": 60,
            "midi": 61,
            "name": "C#4",
            "ticks": 37140,
            "time": 218.470479,
            "velocity": 0.6299212598425197
          },
          {
            "duration": 0.3529410000000155,
            "durationTicks": 60,
            "midi": 68,
            "name": "G#4",
            "ticks": 37200,
            "time": 218.82342,
            "velocity": 0.6299212598425197
          },
          {
            "duration": 0.3529410000000155,
            "durationTicks": 60,
            "midi": 61,
            "name": "C#4",
            "ticks": 37200,
            "time": 218.82342,
            "velocity": 0.6299212598425197
          },
          {
            "duration": 0.3529410000000155,
            "durationTicks": 60,
            "midi": 57,
            "name": "A3",
            "ticks": 37200,
            "time": 218.82342,
            "velocity": 0.6299212598425197
          },
          {
            "duration": 0.3529410000000155,
            "durationTicks": 60,
            "midi": 64,
            "name": "E4",
            "ticks": 37200,
            "time": 218.82342,
            "velocity": 0.6299212598425197
          },
          {
            "duration": 0.35294099999998707,
            "durationTicks": 60,
            "midi": 66,
            "name": "F#4",
            "ticks": 37260,
            "time": 219.176361,
            "velocity": 0.6299212598425197
          },
          {
            "duration": 0.35294099999998707,
            "durationTicks": 60,
            "midi": 64,
            "name": "E4",
            "ticks": 37260,
            "time": 219.176361,
            "velocity": 0.6299212598425197
          },
          {
            "duration": 0.35294099999998707,
            "durationTicks": 60,
            "midi": 61,
            "name": "C#4",
            "ticks": 37260,
            "time": 219.176361,
            "velocity": 0.6299212598425197
          },
          {
            "duration": 0.35294099999998707,
            "durationTicks": 60,
            "midi": 57,
            "name": "A3",
            "ticks": 37260,
            "time": 219.176361,
            "velocity": 0.6299212598425197
          },
          {
            "duration": 0.3529410000000155,
            "durationTicks": 60,
            "midi": 61,
            "name": "C#4",
            "ticks": 37320,
            "time": 219.529302,
            "velocity": 0.6299212598425197
          },
          {
            "duration": 0.3529410000000155,
            "durationTicks": 60,
            "midi": 57,
            "name": "A3",
            "ticks": 37320,
            "time": 219.529302,
            "velocity": 0.6299212598425197
          },
          {
            "duration": 0.3529410000000155,
            "durationTicks": 60,
            "midi": 64,
            "name": "E4",
            "ticks": 37320,
            "time": 219.529302,
            "velocity": 0.6299212598425197
          },
          {
            "duration": 0.3529410000000155,
            "durationTicks": 60,
            "midi": 68,
            "name": "G#4",
            "ticks": 37320,
            "time": 219.529302,
            "velocity": 0.6299212598425197
          },
          {
            "duration": 0.35294099999998707,
            "durationTicks": 60,
            "midi": 68,
            "name": "G#4",
            "ticks": 37440,
            "time": 220.235184,
            "velocity": 0.6299212598425197
          },
          {
            "duration": 0.35294099999998707,
            "durationTicks": 60,
            "midi": 64,
            "name": "E4",
            "ticks": 37440,
            "time": 220.235184,
            "velocity": 0.6299212598425197
          },
          {
            "duration": 0.35294099999998707,
            "durationTicks": 60,
            "midi": 59,
            "name": "B3",
            "ticks": 37440,
            "time": 220.235184,
            "velocity": 0.6299212598425197
          },
          {
            "duration": 0.5294114999999806,
            "durationTicks": 90,
            "midi": 59,
            "name": "B3",
            "ticks": 37530,
            "time": 220.7645955,
            "velocity": 0.6299212598425197
          },
          {
            "duration": 0.5294114999999806,
            "durationTicks": 90,
            "midi": 64,
            "name": "E4",
            "ticks": 37530,
            "time": 220.7645955,
            "velocity": 0.6299212598425197
          },
          {
            "duration": 0.5294114999999806,
            "durationTicks": 90,
            "midi": 68,
            "name": "G#4",
            "ticks": 37530,
            "time": 220.7645955,
            "velocity": 0.6299212598425197
          },
          {
            "duration": 0.17647049999999354,
            "durationTicks": 30,
            "midi": 58,
            "name": "A#3",
            "ticks": 37680,
            "time": 221.646948,
            "velocity": 0.6299212598425197
          },
          {
            "duration": 0.17647049999999354,
            "durationTicks": 30,
            "midi": 62,
            "name": "D4",
            "ticks": 37680,
            "time": 221.646948,
            "velocity": 0.6299212598425197
          },
          {
            "duration": 0.17647049999999354,
            "durationTicks": 30,
            "midi": 67,
            "name": "G4",
            "ticks": 37680,
            "time": 221.646948,
            "velocity": 0.6299212598425197
          },
          {
            "duration": 0.17647049999999354,
            "durationTicks": 30,
            "midi": 64,
            "name": "E4",
            "ticks": 37680,
            "time": 221.646948,
            "velocity": 0.6299212598425197
          },
          {
            "duration": 0.17647049999999354,
            "durationTicks": 30,
            "midi": 58,
            "name": "A#3",
            "ticks": 37710,
            "time": 221.8234185,
            "velocity": 0.6299212598425197
          },
          {
            "duration": 0.17647049999999354,
            "durationTicks": 30,
            "midi": 62,
            "name": "D4",
            "ticks": 37710,
            "time": 221.8234185,
            "velocity": 0.6299212598425197
          },
          {
            "duration": 0.17647049999999354,
            "durationTicks": 30,
            "midi": 67,
            "name": "G4",
            "ticks": 37710,
            "time": 221.8234185,
            "velocity": 0.6299212598425197
          },
          {
            "duration": 0.17647049999999354,
            "durationTicks": 30,
            "midi": 64,
            "name": "E4",
            "ticks": 37710,
            "time": 221.8234185,
            "velocity": 0.6299212598425197
          },
          {
            "duration": 0.3529410000000155,
            "durationTicks": 60,
            "midi": 58,
            "name": "A#3",
            "ticks": 37740,
            "time": 221.999889,
            "velocity": 0.6299212598425197
          },
          {
            "duration": 0.3529410000000155,
            "durationTicks": 60,
            "midi": 62,
            "name": "D4",
            "ticks": 37740,
            "time": 221.999889,
            "velocity": 0.6299212598425197
          },
          {
            "duration": 0.3529410000000155,
            "durationTicks": 60,
            "midi": 67,
            "name": "G4",
            "ticks": 37740,
            "time": 221.999889,
            "velocity": 0.6299212598425197
          },
          {
            "duration": 0.3529410000000155,
            "durationTicks": 60,
            "midi": 64,
            "name": "E4",
            "ticks": 37740,
            "time": 221.999889,
            "velocity": 0.6299212598425197
          },
          {
            "duration": 0.7058820000000026,
            "durationTicks": 120,
            "midi": 58,
            "name": "A#3",
            "ticks": 37800,
            "time": 222.35283,
            "velocity": 0.6299212598425197
          },
          {
            "duration": 0.7058820000000026,
            "durationTicks": 120,
            "midi": 62,
            "name": "D4",
            "ticks": 37800,
            "time": 222.35283,
            "velocity": 0.6299212598425197
          },
          {
            "duration": 0.7058820000000026,
            "durationTicks": 120,
            "midi": 67,
            "name": "G4",
            "ticks": 37800,
            "time": 222.35283,
            "velocity": 0.6299212598425197
          },
          {
            "duration": 0.7058820000000026,
            "durationTicks": 120,
            "midi": 64,
            "name": "E4",
            "ticks": 37800,
            "time": 222.35283,
            "velocity": 0.6299212598425197
          },
          {
            "duration": 0.35294099999998707,
            "durationTicks": 60,
            "midi": 62,
            "name": "D4",
            "ticks": 37920,
            "time": 223.058712,
            "velocity": 0.6299212598425197
          },
          {
            "duration": 0.35294099999998707,
            "durationTicks": 60,
            "midi": 66,
            "name": "F#4",
            "ticks": 37920,
            "time": 223.058712,
            "velocity": 0.6299212598425197
          },
          {
            "duration": 0.35294099999998707,
            "durationTicks": 60,
            "midi": 57,
            "name": "A3",
            "ticks": 37920,
            "time": 223.058712,
            "velocity": 0.6299212598425197
          },
          {
            "duration": 0.17647050000002196,
            "durationTicks": 30,
            "midi": 62,
            "name": "D4",
            "ticks": 38010,
            "time": 223.5881235,
            "velocity": 0.6299212598425197
          },
          {
            "duration": 0.17647050000002196,
            "durationTicks": 30,
            "midi": 66,
            "name": "F#4",
            "ticks": 38010,
            "time": 223.5881235,
            "velocity": 0.6299212598425197
          },
          {
            "duration": 0.17647050000002196,
            "durationTicks": 30,
            "midi": 57,
            "name": "A3",
            "ticks": 38010,
            "time": 223.5881235,
            "velocity": 0.6299212598425197
          },
          {
            "duration": 0.17647049999999354,
            "durationTicks": 30,
            "midi": 66,
            "name": "F#4",
            "ticks": 38070,
            "time": 223.9410645,
            "velocity": 0.6299212598425197
          },
          {
            "duration": 0.17647049999999354,
            "durationTicks": 30,
            "midi": 62,
            "name": "D4",
            "ticks": 38070,
            "time": 223.9410645,
            "velocity": 0.6299212598425197
          },
          {
            "duration": 0.17647049999999354,
            "durationTicks": 30,
            "midi": 57,
            "name": "A3",
            "ticks": 38070,
            "time": 223.9410645,
            "velocity": 0.6299212598425197
          },
          {
            "duration": 0.35294099999998707,
            "durationTicks": 60,
            "midi": 66,
            "name": "F#4",
            "ticks": 38100,
            "time": 224.117535,
            "velocity": 0.6299212598425197
          },
          {
            "duration": 0.35294099999998707,
            "durationTicks": 60,
            "midi": 61,
            "name": "C#4",
            "ticks": 38100,
            "time": 224.117535,
            "velocity": 0.6299212598425197
          },
          {
            "duration": 0.35294099999998707,
            "durationTicks": 60,
            "midi": 57,
            "name": "A3",
            "ticks": 38100,
            "time": 224.117535,
            "velocity": 0.6299212598425197
          },
          {
            "duration": 0.3529410000000155,
            "durationTicks": 60,
            "midi": 66,
            "name": "F#4",
            "ticks": 38160,
            "time": 224.470476,
            "velocity": 0.6299212598425197
          },
          {
            "duration": 0.3529410000000155,
            "durationTicks": 60,
            "midi": 62,
            "name": "D4",
            "ticks": 38160,
            "time": 224.470476,
            "velocity": 0.6299212598425197
          },
          {
            "duration": 0.3529410000000155,
            "durationTicks": 60,
            "midi": 57,
            "name": "A3",
            "ticks": 38160,
            "time": 224.470476,
            "velocity": 0.6299212598425197
          },
          {
            "duration": 0.35294099999998707,
            "durationTicks": 60,
            "midi": 66,
            "name": "F#4",
            "ticks": 38220,
            "time": 224.823417,
            "velocity": 0.6299212598425197
          },
          {
            "duration": 0.35294099999998707,
            "durationTicks": 60,
            "midi": 61,
            "name": "C#4",
            "ticks": 38220,
            "time": 224.823417,
            "velocity": 0.6299212598425197
          },
          {
            "duration": 0.35294099999998707,
            "durationTicks": 60,
            "midi": 57,
            "name": "A3",
            "ticks": 38220,
            "time": 224.823417,
            "velocity": 0.6299212598425197
          },
          {
            "duration": 0.3529410000000155,
            "durationTicks": 60,
            "midi": 62,
            "name": "D4",
            "ticks": 38280,
            "time": 225.176358,
            "velocity": 0.6299212598425197
          },
          {
            "duration": 0.3529410000000155,
            "durationTicks": 60,
            "midi": 66,
            "name": "F#4",
            "ticks": 38280,
            "time": 225.176358,
            "velocity": 0.6299212598425197
          },
          {
            "duration": 0.3529410000000155,
            "durationTicks": 60,
            "midi": 57,
            "name": "A3",
            "ticks": 38280,
            "time": 225.176358,
            "velocity": 0.6299212598425197
          },
          {
            "duration": 1.4117640000000051,
            "durationTicks": 240,
            "midi": 59,
            "name": "B3",
            "ticks": 38370,
            "time": 225.7057695,
            "velocity": 0.6299212598425197
          },
          {
            "duration": 1.4117640000000051,
            "durationTicks": 240,
            "midi": 63,
            "name": "D#4",
            "ticks": 38370,
            "time": 225.7057695,
            "velocity": 0.6299212598425197
          },
          {
            "duration": 1.4117640000000051,
            "durationTicks": 240,
            "midi": 66,
            "name": "F#4",
            "ticks": 38370,
            "time": 225.7057695,
            "velocity": 0.6299212598425197
          },
          {
            "duration": 0.7058820000000026,
            "durationTicks": 120,
            "midi": 70,
            "name": "A#4",
            "ticks": 38610,
            "time": 227.1175335,
            "velocity": 0.6299212598425197
          },
          {
            "duration": 0.7058820000000026,
            "durationTicks": 120,
            "midi": 66,
            "name": "F#4",
            "ticks": 38610,
            "time": 227.1175335,
            "velocity": 0.6299212598425197
          },
          {
            "duration": 0.7058820000000026,
            "durationTicks": 120,
            "midi": 63,
            "name": "D#4",
            "ticks": 38610,
            "time": 227.1175335,
            "velocity": 0.6299212598425197
          },
          {
            "duration": 0.7058820000000026,
            "durationTicks": 120,
            "midi": 59,
            "name": "B3",
            "ticks": 38610,
            "time": 227.1175335,
            "velocity": 0.6299212598425197
          },
          {
            "duration": 0.3529410000000155,
            "durationTicks": 60,
            "midi": 59,
            "name": "B3",
            "ticks": 38790,
            "time": 228.1763565,
            "velocity": 0.6299212598425197
          },
          {
            "duration": 0.3529410000000155,
            "durationTicks": 60,
            "midi": 63,
            "name": "D#4",
            "ticks": 38790,
            "time": 228.1763565,
            "velocity": 0.6299212598425197
          },
          {
            "duration": 0.34705865000000813,
            "durationTicks": 59,
            "midi": 66,
            "name": "F#4",
            "ticks": 38790,
            "time": 228.1763565,
            "velocity": 0.6299212598425197
          },
          {
            "duration": 0.34705865000000813,
            "durationTicks": 59,
            "midi": 70,
            "name": "A#4",
            "ticks": 38790,
            "time": 228.1763565,
            "velocity": 0.6299212598425197
          }
        ]
      },
      {
        "channel": 0,
        "controlChanges": {
          "0": [
            {
              "number": 0,
              "ticks": 0,
              "time": 0,
              "value": 0
            }
          ],
          "32": [
            {
              "number": 32,
              "ticks": 0,
              "time": 0,
              "value": 0
            }
          ]
        },
        "pitchBends": [],
        "instrument": {
          "family": "piano",
          "number": 0,
          "name": "acoustic grand piano"
        },
        "name": "Fingered Bass",
        "notes": [],
        "endOfTrackTicks": 59329
      },
      {
        "channel": 1,
        "controlChanges": {
          "7": [
            {
              "number": 7,
              "ticks": 0,
              "time": 0,
              "value": 0.7874015748031497
            }
          ],
          "10": [
            {
              "number": 10,
              "ticks": 0,
              "time": 0,
              "value": 0.47244094488188976
            }
          ],
          "91": [
            {
              "number": 91,
              "ticks": 140,
              "time": 0.8235290000000001,
              "value": 0.31496062992125984
            }
          ],
          "93": [
            {
              "number": 93,
              "ticks": 145,
              "time": 0.8529407499999999,
              "value": 0.07874015748031496
            }
          ],
          "121": [
            {
              "number": 121,
              "ticks": 3,
              "time": 0.01764705,
              "value": 0
            }
          ]
        },
        "pitchBends": [
          {
            "ticks": 8070,
            "time": 47.4705645,
            "value": -1
          },
          {
            "ticks": 8075,
            "time": 47.49997625,
            "value": -0.75
          },
          {
            "ticks": 8080,
            "time": 47.529388,
            "value": -0.5
          },
          {
            "ticks": 8085,
            "time": 47.55879975,
            "value": -0.25
          },
          {
            "ticks": 8090,
            "time": 47.58821150000001,
            "value": 0
          },
          {
            "ticks": 12420,
            "time": 73.058787,
            "value": -1
          },
          {
            "ticks": 12425,
            "time": 73.08819875,
            "value": -0.75
          },
          {
            "ticks": 12430,
            "time": 73.1176105,
            "value": -0.5
          },
          {
            "ticks": 12435,
            "time": 73.14702225,
            "value": -0.25
          },
          {
            "ticks": 12440,
            "time": 73.176434,
            "value": 0
          },
          {
            "ticks": 13620,
            "time": 80.117607,
            "value": -1
          },
          {
            "ticks": 13625,
            "time": 80.14701875,
            "value": -0.75
          },
          {
            "ticks": 13630,
            "time": 80.1764305,
            "value": -0.5
          },
          {
            "ticks": 13635,
            "time": 80.20584225,
            "value": -0.25
          },
          {
            "ticks": 13640,
            "time": 80.235254,
            "value": 0
          },
          {
            "ticks": 15120,
            "time": 88.941132,
            "value": -1
          },
          {
            "ticks": 15125,
            "time": 88.97054375,
            "value": -0.75
          },
          {
            "ticks": 15130,
            "time": 88.9999555,
            "value": -0.5
          },
          {
            "ticks": 15135,
            "time": 89.02936725,
            "value": -0.25
          },
          {
            "ticks": 15140,
            "time": 89.058779,
            "value": 0
          },
          {
            "ticks": 18480,
            "time": 108.705828,
            "value": -1
          },
          {
            "ticks": 18485,
            "time": 108.73523974999999,
            "value": -0.75
          },
          {
            "ticks": 18490,
            "time": 108.76465150000001,
            "value": -0.5
          },
          {
            "ticks": 18495,
            "time": 108.79406325000001,
            "value": -0.25
          },
          {
            "ticks": 18500,
            "time": 108.82347499999999,
            "value": 0
          },
          {
            "ticks": 18540,
            "time": 109.058769,
            "value": -1
          },
          {
            "ticks": 18545,
            "time": 109.08818074999999,
            "value": -0.75
          },
          {
            "ticks": 18550,
            "time": 109.11759250000001,
            "value": -0.5
          },
          {
            "ticks": 18555,
            "time": 109.14700425,
            "value": -0.25
          },
          {
            "ticks": 18560,
            "time": 109.17641599999999,
            "value": 0
          },
          {
            "ticks": 19860,
            "time": 116.823471,
            "value": -1
          },
          {
            "ticks": 19865,
            "time": 116.85288274999999,
            "value": -0.75
          },
          {
            "ticks": 19870,
            "time": 116.88229450000001,
            "value": -0.5
          },
          {
            "ticks": 19875,
            "time": 116.91170625,
            "value": -0.25
          },
          {
            "ticks": 19880,
            "time": 116.94111799999999,
            "value": 0
          },
          {
            "ticks": 20310,
            "time": 119.4705285,
            "value": -1
          },
          {
            "ticks": 20315,
            "time": 119.49994025,
            "value": -0.75
          },
          {
            "ticks": 20320,
            "time": 119.529352,
            "value": -0.5
          },
          {
            "ticks": 20325,
            "time": 119.55876375,
            "value": -0.25
          },
          {
            "ticks": 20330,
            "time": 119.58817549999999,
            "value": 0
          },
          {
            "ticks": 22020,
            "time": 129.529347,
            "value": -1
          },
          {
            "ticks": 22025,
            "time": 129.55875874999998,
            "value": -0.75
          },
          {
            "ticks": 22030,
            "time": 129.58817050000002,
            "value": -0.5
          },
          {
            "ticks": 22035,
            "time": 129.61758225,
            "value": -0.25
          },
          {
            "ticks": 22040,
            "time": 129.646994,
            "value": 0
          },
          {
            "ticks": 22320,
            "time": 131.294052,
            "value": -1
          },
          {
            "ticks": 22325,
            "time": 131.32346375,
            "value": -0.75
          },
          {
            "ticks": 22330,
            "time": 131.3528755,
            "value": -0.5
          },
          {
            "ticks": 22335,
            "time": 131.38228725,
            "value": -0.25
          },
          {
            "ticks": 22340,
            "time": 131.411699,
            "value": 0
          },
          {
            "ticks": 22380,
            "time": 131.646993,
            "value": -1
          },
          {
            "ticks": 22385,
            "time": 131.67640475,
            "value": -0.75
          },
          {
            "ticks": 22390,
            "time": 131.7058165,
            "value": -0.5
          },
          {
            "ticks": 22395,
            "time": 131.73522825,
            "value": -0.25
          },
          {
            "ticks": 22400,
            "time": 131.76463999999999,
            "value": 0
          },
          {
            "ticks": 23580,
            "time": 138.705813,
            "value": -1
          },
          {
            "ticks": 23585,
            "time": 138.73522475,
            "value": -0.7999267578125
          },
          {
            "ticks": 23590,
            "time": 138.7646365,
            "value": -0.5999755859375
          },
          {
            "ticks": 23595,
            "time": 138.79404825,
            "value": -0.39990234375
          },
          {
            "ticks": 23600,
            "time": 138.82345999999998,
            "value": -0.199951171875
          },
          {
            "ticks": 23605,
            "time": 138.85287175000002,
            "value": 0
          },
          {
            "ticks": 23940,
            "time": 140.823459,
            "value": -1
          },
          {
            "ticks": 23945,
            "time": 140.85287075,
            "value": -0.7999267578125
          },
          {
            "ticks": 23950,
            "time": 140.8822825,
            "value": -0.5999755859375
          },
          {
            "ticks": 23955,
            "time": 140.91169425,
            "value": -0.39990234375
          },
          {
            "ticks": 23960,
            "time": 140.941106,
            "value": -0.199951171875
          },
          {
            "ticks": 23965,
            "time": 140.97051775,
            "value": 0
          },
          {
            "ticks": 24060,
            "time": 141.529341,
            "value": -1
          },
          {
            "ticks": 24065,
            "time": 141.55875275,
            "value": -0.7999267578125
          },
          {
            "ticks": 24070,
            "time": 141.5881645,
            "value": -0.5999755859375
          },
          {
            "ticks": 24075,
            "time": 141.61757625,
            "value": -0.39990234375
          },
          {
            "ticks": 24080,
            "time": 141.646988,
            "value": -0.199951171875
          },
          {
            "ticks": 24085,
            "time": 141.67639975,
            "value": 0
          },
          {
            "ticks": 24540,
            "time": 144.352869,
            "value": -1
          },
          {
            "ticks": 24545,
            "time": 144.38228075,
            "value": -0.7999267578125
          },
          {
            "ticks": 24550,
            "time": 144.41169250000002,
            "value": -0.5999755859375
          },
          {
            "ticks": 24555,
            "time": 144.44110425,
            "value": -0.39990234375
          },
          {
            "ticks": 24560,
            "time": 144.470516,
            "value": -0.199951171875
          },
          {
            "ticks": 24565,
            "time": 144.49992775,
            "value": 0
          },
          {
            "ticks": 24900,
            "time": 146.470515,
            "value": -1
          },
          {
            "ticks": 24905,
            "time": 146.49992675,
            "value": -0.7999267578125
          },
          {
            "ticks": 24910,
            "time": 146.52933850000002,
            "value": -0.5999755859375
          },
          {
            "ticks": 24915,
            "time": 146.55875025,
            "value": -0.39990234375
          },
          {
            "ticks": 24920,
            "time": 146.58816199999998,
            "value": -0.199951171875
          },
          {
            "ticks": 24925,
            "time": 146.61757375000002,
            "value": 0
          },
          {
            "ticks": 25020,
            "time": 147.176397,
            "value": -1
          },
          {
            "ticks": 25025,
            "time": 147.20580875,
            "value": -0.7999267578125
          },
          {
            "ticks": 25030,
            "time": 147.2352205,
            "value": -0.5999755859375
          },
          {
            "ticks": 25035,
            "time": 147.26463225,
            "value": -0.39990234375
          },
          {
            "ticks": 25040,
            "time": 147.29404399999999,
            "value": -0.199951171875
          },
          {
            "ticks": 25045,
            "time": 147.32345575000002,
            "value": 0
          },
          {
            "ticks": 25260,
            "time": 148.588161,
            "value": -1
          },
          {
            "ticks": 25265,
            "time": 148.61757275,
            "value": -0.7999267578125
          },
          {
            "ticks": 25270,
            "time": 148.6469845,
            "value": -0.5999755859375
          },
          {
            "ticks": 25275,
            "time": 148.67639625,
            "value": -0.39990234375
          },
          {
            "ticks": 25280,
            "time": 148.705808,
            "value": -0.199951171875
          },
          {
            "ticks": 25285,
            "time": 148.73521975,
            "value": 0
          },
          {
            "ticks": 25500,
            "time": 149.999925,
            "value": -1
          },
          {
            "ticks": 25505,
            "time": 150.02933675,
            "value": -0.7999267578125
          },
          {
            "ticks": 25510,
            "time": 150.0587485,
            "value": -0.5999755859375
          },
          {
            "ticks": 25515,
            "time": 150.08816025000002,
            "value": -0.39990234375
          },
          {
            "ticks": 25520,
            "time": 150.117572,
            "value": -0.199951171875
          },
          {
            "ticks": 25525,
            "time": 150.14698375,
            "value": 0
          },
          {
            "ticks": 25860,
            "time": 152.117571,
            "value": -1
          },
          {
            "ticks": 25865,
            "time": 152.14698275,
            "value": -0.7999267578125
          },
          {
            "ticks": 25870,
            "time": 152.17639450000001,
            "value": -0.5999755859375
          },
          {
            "ticks": 25875,
            "time": 152.20580625,
            "value": -0.39990234375
          },
          {
            "ticks": 25880,
            "time": 152.235218,
            "value": -0.199951171875
          },
          {
            "ticks": 25885,
            "time": 152.26462975,
            "value": 0
          },
          {
            "ticks": 25980,
            "time": 152.823453,
            "value": -1
          },
          {
            "ticks": 25985,
            "time": 152.85286475,
            "value": -0.7999267578125
          },
          {
            "ticks": 25990,
            "time": 152.88227650000002,
            "value": -0.5999755859375
          },
          {
            "ticks": 25995,
            "time": 152.91168825,
            "value": -0.39990234375
          },
          {
            "ticks": 26000,
            "time": 152.9411,
            "value": -0.199951171875
          },
          {
            "ticks": 26005,
            "time": 152.97051175000001,
            "value": 0
          },
          {
            "ticks": 26220,
            "time": 154.235217,
            "value": -1
          },
          {
            "ticks": 26225,
            "time": 154.26462874999999,
            "value": -0.7999267578125
          },
          {
            "ticks": 26230,
            "time": 154.29404050000002,
            "value": -0.5999755859375
          },
          {
            "ticks": 26235,
            "time": 154.32345225,
            "value": -0.39990234375
          },
          {
            "ticks": 26240,
            "time": 154.35286399999998,
            "value": -0.199951171875
          },
          {
            "ticks": 26245,
            "time": 154.38227575000002,
            "value": 0
          },
          {
            "ticks": 26460,
            "time": 155.646981,
            "value": -1
          },
          {
            "ticks": 26465,
            "time": 155.67639275,
            "value": -0.7999267578125
          },
          {
            "ticks": 26470,
            "time": 155.7058045,
            "value": -0.5999755859375
          },
          {
            "ticks": 26475,
            "time": 155.73521625,
            "value": -0.39990234375
          },
          {
            "ticks": 26480,
            "time": 155.764628,
            "value": -0.199951171875
          },
          {
            "ticks": 26485,
            "time": 155.79403975,
            "value": 0
          },
          {
            "ticks": 26820,
            "time": 157.764627,
            "value": -1
          },
          {
            "ticks": 26825,
            "time": 157.79403875,
            "value": -0.7999267578125
          },
          {
            "ticks": 26830,
            "time": 157.8234505,
            "value": -0.5999755859375
          },
          {
            "ticks": 26835,
            "time": 157.85286225000002,
            "value": -0.39990234375
          },
          {
            "ticks": 26840,
            "time": 157.882274,
            "value": -0.199951171875
          },
          {
            "ticks": 26845,
            "time": 157.91168575,
            "value": 0
          },
          {
            "ticks": 26940,
            "time": 158.470509,
            "value": -1
          },
          {
            "ticks": 26945,
            "time": 158.49992075,
            "value": -0.7999267578125
          },
          {
            "ticks": 26950,
            "time": 158.5293325,
            "value": -0.5999755859375
          },
          {
            "ticks": 26955,
            "time": 158.55874425,
            "value": -0.39990234375
          },
          {
            "ticks": 26960,
            "time": 158.588156,
            "value": -0.199951171875
          },
          {
            "ticks": 26965,
            "time": 158.61756775,
            "value": 0
          },
          {
            "ticks": 27420,
            "time": 161.294037,
            "value": -1
          },
          {
            "ticks": 27425,
            "time": 161.32344874999998,
            "value": -0.7999267578125
          },
          {
            "ticks": 27430,
            "time": 161.35286050000002,
            "value": -0.5999755859375
          },
          {
            "ticks": 27435,
            "time": 161.38227225,
            "value": -0.39990234375
          },
          {
            "ticks": 27440,
            "time": 161.411684,
            "value": -0.199951171875
          },
          {
            "ticks": 27445,
            "time": 161.44109575000002,
            "value": 0
          },
          {
            "ticks": 27780,
            "time": 163.411683,
            "value": -1
          },
          {
            "ticks": 27785,
            "time": 163.44109475,
            "value": -0.7999267578125
          },
          {
            "ticks": 27790,
            "time": 163.4705065,
            "value": -0.5999755859375
          },
          {
            "ticks": 27795,
            "time": 163.49991825,
            "value": -0.39990234375
          },
          {
            "ticks": 27800,
            "time": 163.52933,
            "value": -0.199951171875
          },
          {
            "ticks": 27805,
            "time": 163.55874175,
            "value": 0
          },
          {
            "ticks": 27900,
            "time": 164.117565,
            "value": -1
          },
          {
            "ticks": 27905,
            "time": 164.14697675,
            "value": -0.7999267578125
          },
          {
            "ticks": 27910,
            "time": 164.1763885,
            "value": -0.5999755859375
          },
          {
            "ticks": 27915,
            "time": 164.20580025,
            "value": -0.39990234375
          },
          {
            "ticks": 27920,
            "time": 164.235212,
            "value": -0.199951171875
          },
          {
            "ticks": 27925,
            "time": 164.26462375,
            "value": 0
          },
          {
            "ticks": 28140,
            "time": 165.529329,
            "value": -1
          },
          {
            "ticks": 28145,
            "time": 165.55874075,
            "value": -0.7999267578125
          },
          {
            "ticks": 28150,
            "time": 165.5881525,
            "value": -0.5999755859375
          },
          {
            "ticks": 28155,
            "time": 165.61756425000002,
            "value": -0.39990234375
          },
          {
            "ticks": 28160,
            "time": 165.646976,
            "value": -0.199951171875
          },
          {
            "ticks": 28165,
            "time": 165.67638775,
            "value": 0
          },
          {
            "ticks": 28380,
            "time": 166.941093,
            "value": -1
          },
          {
            "ticks": 28385,
            "time": 166.97050475,
            "value": -0.7999267578125
          },
          {
            "ticks": 28390,
            "time": 166.9999165,
            "value": -0.5999755859375
          },
          {
            "ticks": 28395,
            "time": 167.02932825,
            "value": -0.39990234375
          },
          {
            "ticks": 28400,
            "time": 167.05874,
            "value": -0.199951171875
          },
          {
            "ticks": 28405,
            "time": 167.08815175,
            "value": 0
          },
          {
            "ticks": 28620,
            "time": 168.352857,
            "value": -1
          },
          {
            "ticks": 28625,
            "time": 168.38226875,
            "value": -0.7999267578125
          },
          {
            "ticks": 28630,
            "time": 168.41168050000002,
            "value": -0.5999755859375
          },
          {
            "ticks": 28635,
            "time": 168.44109225,
            "value": -0.39990234375
          },
          {
            "ticks": 28640,
            "time": 168.470504,
            "value": -0.199951171875
          },
          {
            "ticks": 28645,
            "time": 168.49991575,
            "value": 0
          },
          {
            "ticks": 28860,
            "time": 169.764621,
            "value": -1
          },
          {
            "ticks": 28865,
            "time": 169.79403274999999,
            "value": -0.7999267578125
          },
          {
            "ticks": 28870,
            "time": 169.82344450000002,
            "value": -0.5999755859375
          },
          {
            "ticks": 28875,
            "time": 169.85285625,
            "value": -0.39990234375
          },
          {
            "ticks": 28880,
            "time": 169.88226799999998,
            "value": -0.199951171875
          },
          {
            "ticks": 28885,
            "time": 169.91167975000002,
            "value": 0
          },
          {
            "ticks": 29340,
            "time": 172.58814900000002,
            "value": -1
          },
          {
            "ticks": 29345,
            "time": 172.61756075,
            "value": -0.7999267578125
          },
          {
            "ticks": 29350,
            "time": 172.6469725,
            "value": -0.5999755859375
          },
          {
            "ticks": 29355,
            "time": 172.67638425,
            "value": -0.39990234375
          },
          {
            "ticks": 29360,
            "time": 172.705796,
            "value": -0.199951171875
          },
          {
            "ticks": 29365,
            "time": 172.73520775,
            "value": 0
          },
          {
            "ticks": 29700,
            "time": 174.705795,
            "value": -1
          },
          {
            "ticks": 29705,
            "time": 174.73520675,
            "value": -0.7999267578125
          },
          {
            "ticks": 29710,
            "time": 174.7646185,
            "value": -0.5999755859375
          },
          {
            "ticks": 29715,
            "time": 174.79403025,
            "value": -0.39990234375
          },
          {
            "ticks": 29720,
            "time": 174.823442,
            "value": -0.199951171875
          },
          {
            "ticks": 29725,
            "time": 174.85285375,
            "value": 0
          },
          {
            "ticks": 29820,
            "time": 175.411677,
            "value": -1
          },
          {
            "ticks": 29825,
            "time": 175.44108875,
            "value": -0.7999267578125
          },
          {
            "ticks": 29830,
            "time": 175.4705005,
            "value": -0.5999755859375
          },
          {
            "ticks": 29835,
            "time": 175.49991225,
            "value": -0.39990234375
          },
          {
            "ticks": 29840,
            "time": 175.529324,
            "value": -0.199951171875
          },
          {
            "ticks": 29845,
            "time": 175.55873575,
            "value": 0
          },
          {
            "ticks": 30060,
            "time": 176.823441,
            "value": -1
          },
          {
            "ticks": 30065,
            "time": 176.85285274999998,
            "value": -0.7999267578125
          },
          {
            "ticks": 30070,
            "time": 176.88226450000002,
            "value": -0.5999755859375
          },
          {
            "ticks": 30075,
            "time": 176.91167625,
            "value": -0.39990234375
          },
          {
            "ticks": 30080,
            "time": 176.941088,
            "value": -0.199951171875
          },
          {
            "ticks": 30085,
            "time": 176.97049975000002,
            "value": 0
          },
          {
            "ticks": 30300,
            "time": 178.235205,
            "value": -1
          },
          {
            "ticks": 30305,
            "time": 178.26461675,
            "value": -0.7999267578125
          },
          {
            "ticks": 30310,
            "time": 178.2940285,
            "value": -0.5999755859375
          },
          {
            "ticks": 30315,
            "time": 178.32344025,
            "value": -0.39990234375
          },
          {
            "ticks": 30320,
            "time": 178.35285199999998,
            "value": -0.199951171875
          },
          {
            "ticks": 30325,
            "time": 178.38226375000002,
            "value": 0
          },
          {
            "ticks": 30660,
            "time": 180.35285100000002,
            "value": -1
          },
          {
            "ticks": 30665,
            "time": 180.38226275,
            "value": -0.7999267578125
          },
          {
            "ticks": 30670,
            "time": 180.4116745,
            "value": -0.5999755859375
          },
          {
            "ticks": 30675,
            "time": 180.44108625,
            "value": -0.39990234375
          },
          {
            "ticks": 30680,
            "time": 180.470498,
            "value": -0.199951171875
          },
          {
            "ticks": 30685,
            "time": 180.49990975,
            "value": 0
          },
          {
            "ticks": 39300,
            "time": 231.176355,
            "value": -1
          },
          {
            "ticks": 39305,
            "time": 231.20576675,
            "value": -0.75
          },
          {
            "ticks": 39310,
            "time": 231.2351785,
            "value": -0.5
          },
          {
            "ticks": 39315,
            "time": 231.26459025,
            "value": -0.25
          },
          {
            "ticks": 39320,
            "time": 231.294002,
            "value": 0
          },
          {
            "ticks": 40500,
            "time": 238.235175,
            "value": -1
          },
          {
            "ticks": 40505,
            "time": 238.26458675,
            "value": -0.75
          },
          {
            "ticks": 40510,
            "time": 238.2939985,
            "value": -0.5
          },
          {
            "ticks": 40515,
            "time": 238.32341025,
            "value": -0.25
          },
          {
            "ticks": 40520,
            "time": 238.352822,
            "value": 0
          },
          {
            "ticks": 42000,
            "time": 247.05870000000002,
            "value": -1
          },
          {
            "ticks": 42005,
            "time": 247.08811175000002,
            "value": -0.75
          },
          {
            "ticks": 42010,
            "time": 247.11752349999998,
            "value": -0.5
          },
          {
            "ticks": 42015,
            "time": 247.14693525,
            "value": -0.25
          },
          {
            "ticks": 42020,
            "time": 247.17634700000002,
            "value": 0
          },
          {
            "ticks": 45360,
            "time": 266.823396,
            "value": -1
          },
          {
            "ticks": 45365,
            "time": 266.85280775,
            "value": -0.75
          },
          {
            "ticks": 45370,
            "time": 266.88221949999996,
            "value": -0.5
          },
          {
            "ticks": 45375,
            "time": 266.91163125,
            "value": -0.25
          },
          {
            "ticks": 45380,
            "time": 266.94104300000004,
            "value": 0
          },
          {
            "ticks": 45420,
            "time": 267.176337,
            "value": -1
          },
          {
            "ticks": 45425,
            "time": 267.20574875,
            "value": -0.75
          },
          {
            "ticks": 45430,
            "time": 267.2351605,
            "value": -0.5
          },
          {
            "ticks": 45435,
            "time": 267.26457225,
            "value": -0.25
          },
          {
            "ticks": 45440,
            "time": 267.293984,
            "value": 0
          },
          {
            "ticks": 46740,
            "time": 274.941039,
            "value": -1
          },
          {
            "ticks": 46745,
            "time": 274.97045075,
            "value": -0.75
          },
          {
            "ticks": 46750,
            "time": 274.9998625,
            "value": -0.5
          },
          {
            "ticks": 46755,
            "time": 275.02927425,
            "value": -0.25
          },
          {
            "ticks": 46760,
            "time": 275.058686,
            "value": 0
          },
          {
            "ticks": 47190,
            "time": 277.5880965,
            "value": -1
          },
          {
            "ticks": 47195,
            "time": 277.61750825,
            "value": -0.75
          },
          {
            "ticks": 47200,
            "time": 277.64691999999997,
            "value": -0.5
          },
          {
            "ticks": 47205,
            "time": 277.67633175000003,
            "value": -0.25
          },
          {
            "ticks": 47210,
            "time": 277.70574350000004,
            "value": 0
          },
          {
            "ticks": 48900,
            "time": 287.646915,
            "value": -1
          },
          {
            "ticks": 48905,
            "time": 287.67632675000004,
            "value": -0.75
          },
          {
            "ticks": 48910,
            "time": 287.7057385,
            "value": -0.5
          },
          {
            "ticks": 48915,
            "time": 287.73515025,
            "value": -0.25
          },
          {
            "ticks": 48920,
            "time": 287.764562,
            "value": 0
          },
          {
            "ticks": 49200,
            "time": 289.41162,
            "value": -1
          },
          {
            "ticks": 49205,
            "time": 289.44103175000004,
            "value": -0.75
          },
          {
            "ticks": 49210,
            "time": 289.4704435,
            "value": -0.5
          },
          {
            "ticks": 49215,
            "time": 289.49985525,
            "value": -0.25
          },
          {
            "ticks": 49220,
            "time": 289.529267,
            "value": 0
          },
          {
            "ticks": 49260,
            "time": 289.764561,
            "value": -1
          },
          {
            "ticks": 49265,
            "time": 289.79397275,
            "value": -0.75
          },
          {
            "ticks": 49270,
            "time": 289.8233845,
            "value": -0.5
          },
          {
            "ticks": 49275,
            "time": 289.85279625,
            "value": -0.25
          },
          {
            "ticks": 49280,
            "time": 289.882208,
            "value": 0
          },
          {
            "ticks": 50580,
            "time": 297.529263,
            "value": -1
          },
          {
            "ticks": 50585,
            "time": 297.55867475,
            "value": -0.75
          },
          {
            "ticks": 50590,
            "time": 297.5880865,
            "value": -0.5
          },
          {
            "ticks": 50595,
            "time": 297.61749825,
            "value": -0.25
          },
          {
            "ticks": 50600,
            "time": 297.64691,
            "value": 0
          },
          {
            "ticks": 51030,
            "time": 300.17632050000003,
            "value": -1
          },
          {
            "ticks": 51035,
            "time": 300.20573225000004,
            "value": -0.75
          },
          {
            "ticks": 51040,
            "time": 300.235144,
            "value": -0.5
          },
          {
            "ticks": 51045,
            "time": 300.26455575,
            "value": -0.25
          },
          {
            "ticks": 51050,
            "time": 300.2939675,
            "value": 0
          },
          {
            "ticks": 53040,
            "time": 311.999844,
            "value": -1
          },
          {
            "ticks": 53045,
            "time": 312.02925575,
            "value": -0.75
          },
          {
            "ticks": 53050,
            "time": 312.0586675,
            "value": -0.5
          },
          {
            "ticks": 53055,
            "time": 312.08807925,
            "value": -0.25
          },
          {
            "ticks": 53060,
            "time": 312.11749100000003,
            "value": 0
          },
          {
            "ticks": 53100,
            "time": 312.352785,
            "value": -1
          },
          {
            "ticks": 53105,
            "time": 312.38219675,
            "value": -0.75
          },
          {
            "ticks": 53110,
            "time": 312.4116085,
            "value": -0.5
          },
          {
            "ticks": 53115,
            "time": 312.44102025,
            "value": -0.25
          },
          {
            "ticks": 53120,
            "time": 312.470432,
            "value": 0
          },
          {
            "ticks": 56580,
            "time": 332.82336300000003,
            "value": -1
          },
          {
            "ticks": 56585,
            "time": 332.85277475000004,
            "value": -0.75
          },
          {
            "ticks": 56590,
            "time": 332.8821865,
            "value": -0.5
          },
          {
            "ticks": 56595,
            "time": 332.91159825,
            "value": -0.25
          },
          {
            "ticks": 56600,
            "time": 332.94101,
            "value": 0
          },
          {
            "ticks": 56880,
            "time": 334.588068,
            "value": -1
          },
          {
            "ticks": 56885,
            "time": 334.61747975000003,
            "value": -0.75
          },
          {
            "ticks": 56890,
            "time": 334.6468915,
            "value": -0.5
          },
          {
            "ticks": 56895,
            "time": 334.67630325,
            "value": -0.25
          },
          {
            "ticks": 56900,
            "time": 334.705715,
            "value": 0
          },
          {
            "ticks": 56940,
            "time": 334.941009,
            "value": -1
          },
          {
            "ticks": 56945,
            "time": 334.97042075,
            "value": -0.75
          },
          {
            "ticks": 56950,
            "time": 334.99983249999997,
            "value": -0.5
          },
          {
            "ticks": 56955,
            "time": 335.02924425,
            "value": -0.25
          },
          {
            "ticks": 56960,
            "time": 335.05865600000004,
            "value": 0
          }
        ],
        "instrument": {
          "family": "bass",
          "number": 33,
          "name": "electric bass (finger)"
        },
        "name": "",
        "notes": [
          {
            "duration": 0.35294099999999995,
            "durationTicks": 60,
            "midi": 38,
            "name": "D2",
            "ticks": 480,
            "time": 2.823528,
            "velocity": 0.7874015748031497
          },
          {
            "duration": 0.17647050000000064,
            "durationTicks": 30,
            "midi": 33,
            "name": "A1",
            "ticks": 690,
            "time": 4.0588215,
            "velocity": 0.7874015748031497
          },
          {
            "duration": 0.3529409999999995,
            "durationTicks": 60,
            "midi": 38,
            "name": "D2",
            "ticks": 720,
            "time": 4.235292,
            "velocity": 0.7874015748031497
          },
          {
            "duration": 0.17647049999999975,
            "durationTicks": 30,
            "midi": 33,
            "name": "A1",
            "ticks": 870,
            "time": 5.1176445,
            "velocity": 0.7874015748031497
          },
          {
            "duration": 0.17647050000000064,
            "durationTicks": 30,
            "midi": 32,
            "name": "G#1",
            "ticks": 900,
            "time": 5.294115,
            "velocity": 0.7874015748031497
          },
          {
            "duration": 0.2294116499999994,
            "durationTicks": 39,
            "midi": 31,
            "name": "G1",
            "ticks": 930,
            "time": 5.4705855,
            "velocity": 0.7874015748031497
          },
          {
            "duration": 0.17647049999999975,
            "durationTicks": 30,
            "midi": 31,
            "name": "G1",
            "ticks": 1080,
            "time": 6.352938,
            "velocity": 0.7874015748031497
          },
          {
            "duration": 0.17647050000000064,
            "durationTicks": 30,
            "midi": 34,
            "name": "A#1",
            "ticks": 1110,
            "time": 6.5294085,
            "velocity": 0.7874015748031497
          },
          {
            "duration": 0.17647049999999975,
            "durationTicks": 30,
            "midi": 35,
            "name": "B1",
            "ticks": 1140,
            "time": 6.705879,
            "velocity": 0.7874015748031497
          },
          {
            "duration": 0.2294116499999994,
            "durationTicks": 39,
            "midi": 36,
            "name": "C2",
            "ticks": 1170,
            "time": 6.8823495,
            "velocity": 0.7874015748031497
          },
          {
            "duration": 0.5294115000000001,
            "durationTicks": 90,
            "midi": 33,
            "name": "A1",
            "ticks": 1350,
            "time": 7.9411725,
            "velocity": 0.7874015748031497
          },
          {
            "duration": 0.3529409999999995,
            "durationTicks": 60,
            "midi": 38,
            "name": "D2",
            "ticks": 1440,
            "time": 8.470584,
            "velocity": 0.7874015748031497
          },
          {
            "duration": 0.17647050000000064,
            "durationTicks": 30,
            "midi": 33,
            "name": "A1",
            "ticks": 1650,
            "time": 9.7058775,
            "velocity": 0.7874015748031497
          },
          {
            "duration": 0.3529409999999995,
            "durationTicks": 60,
            "midi": 38,
            "name": "D2",
            "ticks": 1680,
            "time": 9.882348,
            "velocity": 0.7874015748031497
          },
          {
            "duration": 0.17647050000000064,
            "durationTicks": 30,
            "midi": 33,
            "name": "A1",
            "ticks": 1830,
            "time": 10.7647005,
            "velocity": 0.7874015748031497
          },
          {
            "duration": 0.17647049999999886,
            "durationTicks": 30,
            "midi": 32,
            "name": "G#1",
            "ticks": 1860,
            "time": 10.941171,
            "velocity": 0.7874015748031497
          },
          {
            "duration": 0.2294116499999994,
            "durationTicks": 39,
            "midi": 31,
            "name": "G1",
            "ticks": 1890,
            "time": 11.1176415,
            "velocity": 0.7874015748031497
          },
          {
            "duration": 0.17647049999999886,
            "durationTicks": 30,
            "midi": 31,
            "name": "G1",
            "ticks": 2040,
            "time": 11.999994000000001,
            "velocity": 0.7874015748031497
          },
          {
            "duration": 0.17647050000000064,
            "durationTicks": 30,
            "midi": 34,
            "name": "A#1",
            "ticks": 2070,
            "time": 12.1764645,
            "velocity": 0.7874015748031497
          },
          {
            "duration": 0.17647049999999886,
            "durationTicks": 30,
            "midi": 35,
            "name": "B1",
            "ticks": 2100,
            "time": 12.352935,
            "velocity": 0.7874015748031497
          },
          {
            "duration": 0.2294116500000012,
            "durationTicks": 39,
            "midi": 36,
            "name": "C2",
            "ticks": 2130,
            "time": 12.5294055,
            "velocity": 0.7874015748031497
          },
          {
            "duration": 0.5294115000000001,
            "durationTicks": 90,
            "midi": 33,
            "name": "A1",
            "ticks": 2310,
            "time": 13.5882285,
            "velocity": 0.7874015748031497
          },
          {
            "duration": 0.3529410000000013,
            "durationTicks": 60,
            "midi": 38,
            "name": "D2",
            "ticks": 2400,
            "time": 14.11764,
            "velocity": 0.7874015748031497
          },
          {
            "duration": 0.17647049999999886,
            "durationTicks": 30,
            "midi": 33,
            "name": "A1",
            "ticks": 2610,
            "time": 15.3529335,
            "velocity": 0.7874015748031497
          },
          {
            "duration": 0.3529410000000013,
            "durationTicks": 60,
            "midi": 38,
            "name": "D2",
            "ticks": 2640,
            "time": 15.529404,
            "velocity": 0.7874015748031497
          },
          {
            "duration": 0.17647050000000064,
            "durationTicks": 30,
            "midi": 33,
            "name": "A1",
            "ticks": 2790,
            "time": 16.4117565,
            "velocity": 0.7874015748031497
          },
          {
            "duration": 0.17647050000000064,
            "durationTicks": 30,
            "midi": 32,
            "name": "G#1",
            "ticks": 2820,
            "time": 16.588227,
            "velocity": 0.7874015748031497
          },
          {
            "duration": 0.2294116499999994,
            "durationTicks": 39,
            "midi": 31,
            "name": "G1",
            "ticks": 2850,
            "time": 16.7646975,
            "velocity": 0.7874015748031497
          },
          {
            "duration": 0.17647050000000064,
            "durationTicks": 30,
            "midi": 31,
            "name": "G1",
            "ticks": 3000,
            "time": 17.64705,
            "velocity": 0.7874015748031497
          },
          {
            "duration": 0.17647050000000064,
            "durationTicks": 30,
            "midi": 34,
            "name": "A#1",
            "ticks": 3030,
            "time": 17.8235205,
            "velocity": 0.7874015748031497
          },
          {
            "duration": 0.1764704999999971,
            "durationTicks": 30,
            "midi": 35,
            "name": "B1",
            "ticks": 3060,
            "time": 17.999991,
            "velocity": 0.7874015748031497
          },
          {
            "duration": 0.22941165000000296,
            "durationTicks": 39,
            "midi": 36,
            "name": "C2",
            "ticks": 3090,
            "time": 18.1764615,
            "velocity": 0.7874015748031497
          },
          {
            "duration": 0.5294115000000019,
            "durationTicks": 90,
            "midi": 33,
            "name": "A1",
            "ticks": 3270,
            "time": 19.2352845,
            "velocity": 0.7874015748031497
          },
          {
            "duration": 0.3529410000000013,
            "durationTicks": 60,
            "midi": 38,
            "name": "D2",
            "ticks": 3360,
            "time": 19.764696,
            "velocity": 0.7874015748031497
          },
          {
            "duration": 0.1764704999999971,
            "durationTicks": 30,
            "midi": 33,
            "name": "A1",
            "ticks": 3570,
            "time": 20.9999895,
            "velocity": 0.7874015748031497
          },
          {
            "duration": 0.3529410000000013,
            "durationTicks": 60,
            "midi": 38,
            "name": "D2",
            "ticks": 3600,
            "time": 21.17646,
            "velocity": 0.7874015748031497
          },
          {
            "duration": 0.1764704999999971,
            "durationTicks": 30,
            "midi": 33,
            "name": "A1",
            "ticks": 3750,
            "time": 22.058812500000002,
            "velocity": 0.7874015748031497
          },
          {
            "duration": 0.17647050000000064,
            "durationTicks": 30,
            "midi": 32,
            "name": "G#1",
            "ticks": 3780,
            "time": 22.235283,
            "velocity": 0.7874015748031497
          },
          {
            "duration": 0.22941165000000296,
            "durationTicks": 39,
            "midi": 31,
            "name": "G1",
            "ticks": 3810,
            "time": 22.4117535,
            "velocity": 0.7874015748031497
          },
          {
            "duration": 0.17647050000000064,
            "durationTicks": 30,
            "midi": 31,
            "name": "G1",
            "ticks": 3960,
            "time": 23.294106,
            "velocity": 0.7874015748031497
          },
          {
            "duration": 0.17647050000000064,
            "durationTicks": 30,
            "midi": 34,
            "name": "A#1",
            "ticks": 3990,
            "time": 23.4705765,
            "velocity": 0.7874015748031497
          },
          {
            "duration": 0.17647050000000064,
            "durationTicks": 30,
            "midi": 35,
            "name": "B1",
            "ticks": 4020,
            "time": 23.647047,
            "velocity": 0.7874015748031497
          },
          {
            "duration": 0.935293650000002,
            "durationTicks": 159,
            "midi": 36,
            "name": "C2",
            "ticks": 4050,
            "time": 23.8235175,
            "velocity": 0.7874015748031497
          },
          {
            "duration": 0.5294114999999984,
            "durationTicks": 90,
            "midi": 33,
            "name": "A1",
            "ticks": 4230,
            "time": 24.8823405,
            "velocity": 0.7874015748031497
          },
          {
            "duration": 0.3529410000000013,
            "durationTicks": 60,
            "midi": 38,
            "name": "D2",
            "ticks": 4320,
            "time": 25.411752,
            "velocity": 0.7874015748031497
          },
          {
            "duration": 0.17647050000000064,
            "durationTicks": 30,
            "midi": 33,
            "name": "A1",
            "ticks": 4530,
            "time": 26.6470455,
            "velocity": 0.7874015748031497
          },
          {
            "duration": 0.35294099999999773,
            "durationTicks": 60,
            "midi": 38,
            "name": "D2",
            "ticks": 4560,
            "time": 26.823516,
            "velocity": 0.7874015748031497
          },
          {
            "duration": 0.3529410000000013,
            "durationTicks": 60,
            "midi": 37,
            "name": "C#2",
            "ticks": 4800,
            "time": 28.23528,
            "velocity": 0.7874015748031497
          },
          {
            "duration": 0.17647050000000064,
            "durationTicks": 30,
            "midi": 32,
            "name": "G#1",
            "ticks": 5010,
            "time": 29.4705735,
            "velocity": 0.7874015748031497
          },
          {
            "duration": 0.35294099999999773,
            "durationTicks": 60,
            "midi": 37,
            "name": "C#2",
            "ticks": 5040,
            "time": 29.647044,
            "velocity": 0.7874015748031497
          },
          {
            "duration": 0.3529410000000013,
            "durationTicks": 60,
            "midi": 30,
            "name": "F#1",
            "ticks": 5280,
            "time": 31.058808,
            "velocity": 0.7874015748031497
          },
          {
            "duration": 0.17647049999999354,
            "durationTicks": 30,
            "midi": 37,
            "name": "C#2",
            "ticks": 5490,
            "time": 32.294101500000004,
            "velocity": 0.7874015748031497
          },
          {
            "duration": 0.3529410000000013,
            "durationTicks": 60,
            "midi": 42,
            "name": "F#2",
            "ticks": 5520,
            "time": 32.470572,
            "velocity": 0.7874015748031497
          },
          {
            "duration": 0.3529410000000013,
            "durationTicks": 60,
            "midi": 35,
            "name": "B1",
            "ticks": 5760,
            "time": 33.882336,
            "velocity": 0.7874015748031497
          },
          {
            "duration": 0.17647050000000064,
            "durationTicks": 30,
            "midi": 30,
            "name": "F#1",
            "ticks": 5970,
            "time": 35.1176295,
            "velocity": 0.7874015748031497
          },
          {
            "duration": 0.17058815000000038,
            "durationTicks": 29,
            "midi": 35,
            "name": "B1",
            "ticks": 6000,
            "time": 35.2941,
            "velocity": 0.7874015748031497
          },
          {
            "duration": 0.1117646499999978,
            "durationTicks": 19,
            "midi": 47,
            "name": "B2",
            "ticks": 6030,
            "time": 35.4705705,
            "velocity": 0.7874015748031497
          },
          {
            "duration": 0.1117646499999978,
            "durationTicks": 19,
            "midi": 47,
            "name": "B2",
            "ticks": 6090,
            "time": 35.8235115,
            "velocity": 0.7874015748031497
          },
          {
            "duration": 0.7058819999999955,
            "durationTicks": 120,
            "midi": 39,
            "name": "D#2",
            "ticks": 6120,
            "time": 35.999982,
            "velocity": 0.7874015748031497
          },
          {
            "duration": 0.3529410000000013,
            "durationTicks": 60,
            "midi": 40,
            "name": "E2",
            "ticks": 6240,
            "time": 36.705864,
            "velocity": 0.7874015748031497
          },
          {
            "duration": 0.17647050000000064,
            "durationTicks": 30,
            "midi": 35,
            "name": "B1",
            "ticks": 6450,
            "time": 37.9411575,
            "velocity": 0.7874015748031497
          },
          {
            "duration": 0.3529409999999942,
            "durationTicks": 60,
            "midi": 40,
            "name": "E2",
            "ticks": 6480,
            "time": 38.117628,
            "velocity": 0.7874015748031497
          },
          {
            "duration": 0.17647050000000064,
            "durationTicks": 30,
            "midi": 30,
            "name": "F#1",
            "ticks": 6630,
            "time": 38.9999805,
            "velocity": 0.7874015748031497
          },
          {
            "duration": 0.17647050000000064,
            "durationTicks": 30,
            "midi": 33,
            "name": "A1",
            "ticks": 6660,
            "time": 39.176451,
            "velocity": 0.7874015748031497
          },
          {
            "duration": 0.17647050000000064,
            "durationTicks": 30,
            "midi": 34,
            "name": "A#1",
            "ticks": 6690,
            "time": 39.3529215,
            "velocity": 0.7874015748031497
          },
          {
            "duration": 0.3529410000000013,
            "durationTicks": 60,
            "midi": 35,
            "name": "B1",
            "ticks": 6720,
            "time": 39.529392,
            "velocity": 0.7874015748031497
          },
          {
            "duration": 0.17647050000000064,
            "durationTicks": 30,
            "midi": 35,
            "name": "B1",
            "ticks": 6870,
            "time": 40.4117445,
            "velocity": 0.7874015748031497
          },
          {
            "duration": 0.17647050000000064,
            "durationTicks": 30,
            "midi": 38,
            "name": "D2",
            "ticks": 6900,
            "time": 40.588215,
            "velocity": 0.7874015748031497
          },
          {
            "duration": 0.17647050000000064,
            "durationTicks": 30,
            "midi": 39,
            "name": "D#2",
            "ticks": 6930,
            "time": 40.7646855,
            "velocity": 0.7874015748031497
          },
          {
            "duration": 0.17058815000000038,
            "durationTicks": 29,
            "midi": 40,
            "name": "E2",
            "ticks": 6960,
            "time": 40.941156,
            "velocity": 0.7874015748031497
          },
          {
            "duration": 0.17058815000000038,
            "durationTicks": 29,
            "midi": 35,
            "name": "B1",
            "ticks": 6990,
            "time": 41.1176265,
            "velocity": 0.7874015748031497
          },
          {
            "duration": 0.4058821500000036,
            "durationTicks": 69,
            "midi": 28,
            "name": "E1",
            "ticks": 7020,
            "time": 41.294097,
            "velocity": 0.7874015748031497
          },
          {
            "duration": 0.1117646499999978,
            "durationTicks": 19,
            "midi": 40,
            "name": "E2",
            "ticks": 7110,
            "time": 41.8235085,
            "velocity": 0.7874015748031497
          },
          {
            "duration": 0.17058815000000038,
            "durationTicks": 29,
            "midi": 31,
            "name": "G1",
            "ticks": 7140,
            "time": 41.999979,
            "velocity": 0.7874015748031497
          },
          {
            "duration": 0.17058815000000038,
            "durationTicks": 29,
            "midi": 32,
            "name": "G#1",
            "ticks": 7170,
            "time": 42.176449500000004,
            "velocity": 0.7874015748031497
          },
          {
            "duration": 0.347058650000001,
            "durationTicks": 59,
            "midi": 33,
            "name": "A1",
            "ticks": 7200,
            "time": 42.35292,
            "velocity": 0.7874015748031497
          },
          {
            "duration": 0.17647050000000064,
            "durationTicks": 30,
            "midi": 28,
            "name": "E1",
            "ticks": 7410,
            "time": 43.5882135,
            "velocity": 0.7874015748031497
          },
          {
            "duration": 0.347058650000001,
            "durationTicks": 59,
            "midi": 33,
            "name": "A1",
            "ticks": 7440,
            "time": 43.764684,
            "velocity": 0.7874015748031497
          },
          {
            "duration": 0.17058815000000038,
            "durationTicks": 29,
            "midi": 33,
            "name": "A1",
            "ticks": 7560,
            "time": 44.470566,
            "velocity": 0.7874015748031497
          },
          {
            "duration": 0.17058815000000038,
            "durationTicks": 29,
            "midi": 32,
            "name": "G#1",
            "ticks": 7590,
            "time": 44.6470365,
            "velocity": 0.7874015748031497
          },
          {
            "duration": 0.17058815000000038,
            "durationTicks": 29,
            "midi": 31,
            "name": "G1",
            "ticks": 7620,
            "time": 44.823507,
            "velocity": 0.7874015748031497
          },
          {
            "duration": 0.8176466500000004,
            "durationTicks": 139,
            "midi": 30,
            "name": "F#1",
            "ticks": 7650,
            "time": 44.9999775,
            "velocity": 0.7874015748031497
          },
          {
            "duration": 0.17058814999999328,
            "durationTicks": 29,
            "midi": 30,
            "name": "F#1",
            "ticks": 7800,
            "time": 45.88233,
            "velocity": 0.7874015748031497
          },
          {
            "duration": 0.17058814999999328,
            "durationTicks": 29,
            "midi": 37,
            "name": "C#2",
            "ticks": 7830,
            "time": 46.058800500000004,
            "velocity": 0.7874015748031497
          },
          {
            "duration": 0.17058815000000038,
            "durationTicks": 29,
            "midi": 36,
            "name": "C2",
            "ticks": 7860,
            "time": 46.235271,
            "velocity": 0.7874015748031497
          },
          {
            "duration": 0.9352936500000055,
            "durationTicks": 159,
            "midi": 35,
            "name": "B1",
            "ticks": 7890,
            "time": 46.4117415,
            "velocity": 0.7874015748031497
          },
          {
            "duration": 0.5294115000000019,
            "durationTicks": 90,
            "midi": 35,
            "name": "B1",
            "ticks": 8070,
            "time": 47.4705645,
            "velocity": 0.7874015748031497
          },
          {
            "duration": 0.3529409999999942,
            "durationTicks": 60,
            "midi": 40,
            "name": "E2",
            "ticks": 8160,
            "time": 47.999976000000004,
            "velocity": 0.7874015748031497
          },
          {
            "duration": 0.17647050000000064,
            "durationTicks": 30,
            "midi": 35,
            "name": "B1",
            "ticks": 8370,
            "time": 49.2352695,
            "velocity": 0.7874015748031497
          },
          {
            "duration": 0.3529410000000013,
            "durationTicks": 60,
            "midi": 40,
            "name": "E2",
            "ticks": 8400,
            "time": 49.41174,
            "velocity": 0.7874015748031497
          },
          {
            "duration": 0.3529410000000013,
            "durationTicks": 60,
            "midi": 39,
            "name": "D#2",
            "ticks": 8640,
            "time": 50.823504,
            "velocity": 0.7874015748031497
          },
          {
            "duration": 0.17647050000000064,
            "durationTicks": 30,
            "midi": 34,
            "name": "A#1",
            "ticks": 8850,
            "time": 52.0587975,
            "velocity": 0.7874015748031497
          },
          {
            "duration": 0.3529410000000013,
            "durationTicks": 60,
            "midi": 39,
            "name": "D#2",
            "ticks": 8880,
            "time": 52.235268,
            "velocity": 0.7874015748031497
          },
          {
            "duration": 0.3529410000000013,
            "durationTicks": 60,
            "midi": 32,
            "name": "G#1",
            "ticks": 9120,
            "time": 53.647032,
            "velocity": 0.7874015748031497
          },
          {
            "duration": 0.17647050000000064,
            "durationTicks": 30,
            "midi": 39,
            "name": "D#2",
            "ticks": 9330,
            "time": 54.8823255,
            "velocity": 0.7874015748031497
          },
          {
            "duration": 0.3529410000000013,
            "durationTicks": 60,
            "midi": 44,
            "name": "G#2",
            "ticks": 9360,
            "time": 55.058796,
            "velocity": 0.7874015748031497
          },
          {
            "duration": 0.3529410000000013,
            "durationTicks": 60,
            "midi": 37,
            "name": "C#2",
            "ticks": 9600,
            "time": 56.47056,
            "velocity": 0.7874015748031497
          },
          {
            "duration": 0.17058814999999328,
            "durationTicks": 29,
            "midi": 32,
            "name": "G#1",
            "ticks": 9810,
            "time": 57.7058535,
            "velocity": 0.7874015748031497
          },
          {
            "duration": 0.17058814999999328,
            "durationTicks": 29,
            "midi": 37,
            "name": "C#2",
            "ticks": 9840,
            "time": 57.882324000000004,
            "velocity": 0.7874015748031497
          },
          {
            "duration": 0.052941150000002324,
            "durationTicks": 9,
            "midi": 49,
            "name": "C#3",
            "ticks": 9870,
            "time": 58.0587945,
            "velocity": 0.7874015748031497
          },
          {
            "duration": 0.347058650000001,
            "durationTicks": 59,
            "midi": 37,
            "name": "C#2",
            "ticks": 9900,
            "time": 58.235265,
            "velocity": 0.7874015748031497
          },
          {
            "duration": 0.7058820000000026,
            "durationTicks": 120,
            "midi": 41,
            "name": "F2",
            "ticks": 9960,
            "time": 58.588206,
            "velocity": 0.7874015748031497
          },
          {
            "duration": 0.3529410000000013,
            "durationTicks": 60,
            "midi": 42,
            "name": "F#2",
            "ticks": 10080,
            "time": 59.294088,
            "velocity": 0.7874015748031497
          },
          {
            "duration": 0.17647050000000064,
            "durationTicks": 30,
            "midi": 37,
            "name": "C#2",
            "ticks": 10290,
            "time": 60.5293815,
            "velocity": 0.7874015748031497
          },
          {
            "duration": 0.3529410000000013,
            "durationTicks": 60,
            "midi": 42,
            "name": "F#2",
            "ticks": 10320,
            "time": 60.705852,
            "velocity": 0.7874015748031497
          },
          {
            "duration": 0.17647050000000064,
            "durationTicks": 30,
            "midi": 32,
            "name": "G#1",
            "ticks": 10470,
            "time": 61.5882045,
            "velocity": 0.7874015748031497
          },
          {
            "duration": 0.17647049999999354,
            "durationTicks": 30,
            "midi": 35,
            "name": "B1",
            "ticks": 10500,
            "time": 61.764675000000004,
            "velocity": 0.7874015748031497
          },
          {
            "duration": 0.17647050000000064,
            "durationTicks": 30,
            "midi": 36,
            "name": "C2",
            "ticks": 10530,
            "time": 61.9411455,
            "velocity": 0.7874015748031497
          },
          {
            "duration": 0.3529410000000013,
            "durationTicks": 60,
            "midi": 37,
            "name": "C#2",
            "ticks": 10560,
            "time": 62.117616,
            "velocity": 0.7874015748031497
          },
          {
            "duration": 0.17647050000000064,
            "durationTicks": 30,
            "midi": 37,
            "name": "C#2",
            "ticks": 10710,
            "time": 62.9999685,
            "velocity": 0.7874015748031497
          },
          {
            "duration": 0.17647050000000064,
            "durationTicks": 30,
            "midi": 40,
            "name": "E2",
            "ticks": 10740,
            "time": 63.176439,
            "velocity": 0.7874015748031497
          },
          {
            "duration": 0.17647050000000064,
            "durationTicks": 30,
            "midi": 41,
            "name": "F2",
            "ticks": 10770,
            "time": 63.3529095,
            "velocity": 0.7874015748031497
          },
          {
            "duration": 0.17058814999999328,
            "durationTicks": 29,
            "midi": 42,
            "name": "F#2",
            "ticks": 10800,
            "time": 63.52938,
            "velocity": 0.7874015748031497
          },
          {
            "duration": 0.17058814999999328,
            "durationTicks": 29,
            "midi": 37,
            "name": "C#2",
            "ticks": 10830,
            "time": 63.705850500000004,
            "velocity": 0.7874015748031497
          },
          {
            "duration": 0.4058821500000036,
            "durationTicks": 69,
            "midi": 30,
            "name": "F#1",
            "ticks": 10860,
            "time": 63.882321,
            "velocity": 0.7874015748031497
          },
          {
            "duration": 0.17058815000000038,
            "durationTicks": 29,
            "midi": 30,
            "name": "F#1",
            "ticks": 10950,
            "time": 64.4117325,
            "velocity": 0.7874015748031497
          },
          {
            "duration": 0.17058814999998617,
            "durationTicks": 29,
            "midi": 33,
            "name": "A1",
            "ticks": 10980,
            "time": 64.58820300000001,
            "velocity": 0.7874015748031497
          },
          {
            "duration": 0.17058815000000038,
            "durationTicks": 29,
            "midi": 34,
            "name": "A#1",
            "ticks": 11010,
            "time": 64.7646735,
            "velocity": 0.7874015748031497
          },
          {
            "duration": 0.3529410000000013,
            "durationTicks": 60,
            "midi": 35,
            "name": "B1",
            "ticks": 11040,
            "time": 64.941144,
            "velocity": 0.7874015748031497
          },
          {
            "duration": 0.1117646499999978,
            "durationTicks": 19,
            "midi": 47,
            "name": "B2",
            "ticks": 11190,
            "time": 65.8234965,
            "velocity": 0.7874015748031497
          },
          {
            "duration": 0.17647049999999354,
            "durationTicks": 30,
            "midi": 30,
            "name": "F#1",
            "ticks": 11250,
            "time": 66.1764375,
            "velocity": 0.7874015748031497
          },
          {
            "duration": 0.3529410000000013,
            "durationTicks": 60,
            "midi": 35,
            "name": "B1",
            "ticks": 11280,
            "time": 66.352908,
            "velocity": 0.7874015748031497
          },
          {
            "duration": 0.17647050000000775,
            "durationTicks": 30,
            "midi": 30,
            "name": "F#1",
            "ticks": 11430,
            "time": 67.2352605,
            "velocity": 0.7874015748031497
          },
          {
            "duration": 0.17647049999999354,
            "durationTicks": 30,
            "midi": 31,
            "name": "G1",
            "ticks": 11460,
            "time": 67.411731,
            "velocity": 0.7874015748031497
          },
          {
            "duration": 0.876470150000003,
            "durationTicks": 149,
            "midi": 32,
            "name": "G#1",
            "ticks": 11490,
            "time": 67.5882015,
            "velocity": 0.7874015748031497
          },
          {
            "duration": 0.1117646499999978,
            "durationTicks": 19,
            "midi": 44,
            "name": "G#2",
            "ticks": 11640,
            "time": 68.470554,
            "velocity": 0.7874015748031497
          },
          {
            "duration": 0.17647049999999354,
            "durationTicks": 30,
            "midi": 34,
            "name": "A#1",
            "ticks": 11670,
            "time": 68.6470245,
            "velocity": 0.7874015748031497
          },
          {
            "duration": 0.17647050000000775,
            "durationTicks": 30,
            "midi": 35,
            "name": "B1",
            "ticks": 11700,
            "time": 68.823495,
            "velocity": 0.7874015748031497
          },
          {
            "duration": 0.8764701499999887,
            "durationTicks": 149,
            "midi": 37,
            "name": "C#2",
            "ticks": 11730,
            "time": 68.9999655,
            "velocity": 0.7874015748031497
          },
          {
            "duration": 0.6999996499999952,
            "durationTicks": 119,
            "midi": 29,
            "name": "F1",
            "ticks": 11880,
            "time": 69.882318,
            "velocity": 0.7874015748031497
          },
          {
            "duration": 0.3470586499999939,
            "durationTicks": 59,
            "midi": 30,
            "name": "F#1",
            "ticks": 12000,
            "time": 70.5882,
            "velocity": 0.7874015748031497
          },
          {
            "duration": 0.029411750000008396,
            "durationTicks": 5,
            "midi": 30,
            "name": "F#1",
            "ticks": 12060,
            "time": 70.941141,
            "velocity": 0.7874015748031497
          },
          {
            "duration": 0.1117646499999978,
            "durationTicks": 19,
            "midi": 42,
            "name": "F#2",
            "ticks": 12090,
            "time": 71.1176115,
            "velocity": 0.7874015748031497
          },
          {
            "duration": 0.5823526500000042,
            "durationTicks": 99,
            "midi": 30,
            "name": "F#1",
            "ticks": 12120,
            "time": 71.294082,
            "velocity": 0.7874015748031497
          },
          {
            "duration": 0.3470586499999939,
            "durationTicks": 59,
            "midi": 30,
            "name": "F#1",
            "ticks": 12240,
            "time": 71.999964,
            "velocity": 0.7874015748031497
          },
          {
            "duration": 0.029411749999994186,
            "durationTicks": 5,
            "midi": 30,
            "name": "F#1",
            "ticks": 12300,
            "time": 72.352905,
            "velocity": 0.7874015748031497
          },
          {
            "duration": 0.1117646499999978,
            "durationTicks": 19,
            "midi": 42,
            "name": "F#2",
            "ticks": 12330,
            "time": 72.5293755,
            "velocity": 0.7874015748031497
          },
          {
            "duration": 0.34705865000000813,
            "durationTicks": 59,
            "midi": 30,
            "name": "F#1",
            "ticks": 12360,
            "time": 72.705846,
            "velocity": 0.7874015748031497
          },
          {
            "duration": 0.34705865000000813,
            "durationTicks": 59,
            "midi": 37,
            "name": "C#2",
            "ticks": 12420,
            "time": 73.058787,
            "velocity": 0.7874015748031497
          },
          {
            "duration": 0.3470586499999939,
            "durationTicks": 59,
            "midi": 35,
            "name": "B1",
            "ticks": 12480,
            "time": 73.411728,
            "velocity": 0.7874015748031497
          },
          {
            "duration": 0.029411750000008396,
            "durationTicks": 5,
            "midi": 35,
            "name": "B1",
            "ticks": 12540,
            "time": 73.764669,
            "velocity": 0.7874015748031497
          },
          {
            "duration": 0.1117646499999978,
            "durationTicks": 19,
            "midi": 47,
            "name": "B2",
            "ticks": 12570,
            "time": 73.9411395,
            "velocity": 0.7874015748031497
          },
          {
            "duration": 0.5823526500000042,
            "durationTicks": 99,
            "midi": 35,
            "name": "B1",
            "ticks": 12600,
            "time": 74.11761,
            "velocity": 0.7874015748031497
          },
          {
            "duration": 0.3470586499999939,
            "durationTicks": 59,
            "midi": 35,
            "name": "B1",
            "ticks": 12720,
            "time": 74.823492,
            "velocity": 0.7874015748031497
          },
          {
            "duration": 0.029411750000008396,
            "durationTicks": 5,
            "midi": 35,
            "name": "B1",
            "ticks": 12780,
            "time": 75.176433,
            "velocity": 0.7874015748031497
          },
          {
            "duration": 0.1117646499999978,
            "durationTicks": 19,
            "midi": 47,
            "name": "B2",
            "ticks": 12810,
            "time": 75.3529035,
            "velocity": 0.7874015748031497
          },
          {
            "duration": 0.3470586499999939,
            "durationTicks": 59,
            "midi": 30,
            "name": "F#1",
            "ticks": 12840,
            "time": 75.529374,
            "velocity": 0.7874015748031497
          },
          {
            "duration": 0.3470586499999939,
            "durationTicks": 59,
            "midi": 31,
            "name": "G1",
            "ticks": 12900,
            "time": 75.882315,
            "velocity": 0.7874015748031497
          },
          {
            "duration": 0.3470586499999939,
            "durationTicks": 59,
            "midi": 32,
            "name": "G#1",
            "ticks": 12960,
            "time": 76.235256,
            "velocity": 0.7874015748031497
          },
          {
            "duration": 0.029411749999994186,
            "durationTicks": 5,
            "midi": 32,
            "name": "G#1",
            "ticks": 13020,
            "time": 76.58819700000001,
            "velocity": 0.7874015748031497
          },
          {
            "duration": 0.1117646499999978,
            "durationTicks": 19,
            "midi": 44,
            "name": "G#2",
            "ticks": 13050,
            "time": 76.7646675,
            "velocity": 0.7874015748031497
          },
          {
            "duration": 0.5823526500000042,
            "durationTicks": 99,
            "midi": 32,
            "name": "G#1",
            "ticks": 13080,
            "time": 76.941138,
            "velocity": 0.7874015748031497
          },
          {
            "duration": 0.3470586499999939,
            "durationTicks": 59,
            "midi": 32,
            "name": "G#1",
            "ticks": 13200,
            "time": 77.64702,
            "velocity": 0.7874015748031497
          },
          {
            "duration": 0.029411750000008396,
            "durationTicks": 5,
            "midi": 32,
            "name": "G#1",
            "ticks": 13260,
            "time": 77.999961,
            "velocity": 0.7874015748031497
          },
          {
            "duration": 0.1117646499999978,
            "durationTicks": 19,
            "midi": 44,
            "name": "G#2",
            "ticks": 13290,
            "time": 78.1764315,
            "velocity": 0.7874015748031497
          },
          {
            "duration": 0.3470586499999939,
            "durationTicks": 59,
            "midi": 32,
            "name": "G#1",
            "ticks": 13320,
            "time": 78.352902,
            "velocity": 0.7874015748031497
          },
          {
            "duration": 0.3470586499999939,
            "durationTicks": 59,
            "midi": 30,
            "name": "F#1",
            "ticks": 13380,
            "time": 78.705843,
            "velocity": 0.7874015748031497
          },
          {
            "duration": 0.3470586499999939,
            "durationTicks": 59,
            "midi": 29,
            "name": "F1",
            "ticks": 13440,
            "time": 79.058784,
            "velocity": 0.7874015748031497
          },
          {
            "duration": 0.029411749999994186,
            "durationTicks": 5,
            "midi": 29,
            "name": "F1",
            "ticks": 13500,
            "time": 79.411725,
            "velocity": 0.7874015748031497
          },
          {
            "duration": 0.1117646499999978,
            "durationTicks": 19,
            "midi": 41,
            "name": "F2",
            "ticks": 13530,
            "time": 79.5881955,
            "velocity": 0.7874015748031497
          },
          {
            "duration": 0.3470586499999939,
            "durationTicks": 59,
            "midi": 29,
            "name": "F1",
            "ticks": 13560,
            "time": 79.764666,
            "velocity": 0.7874015748031497
          },
          {
            "duration": 0.3470586499999939,
            "durationTicks": 59,
            "midi": 35,
            "name": "B1",
            "ticks": 13620,
            "time": 80.117607,
            "velocity": 0.7874015748031497
          },
          {
            "duration": 0.3470586499999939,
            "durationTicks": 59,
            "midi": 34,
            "name": "A#1",
            "ticks": 13680,
            "time": 80.47054800000001,
            "velocity": 0.7874015748031497
          },
          {
            "duration": 0.029411750000008396,
            "durationTicks": 5,
            "midi": 34,
            "name": "A#1",
            "ticks": 13740,
            "time": 80.823489,
            "velocity": 0.7874015748031497
          },
          {
            "duration": 0.1117646499999978,
            "durationTicks": 19,
            "midi": 46,
            "name": "A#2",
            "ticks": 13770,
            "time": 80.9999595,
            "velocity": 0.7874015748031497
          },
          {
            "duration": 0.3470586499999939,
            "durationTicks": 59,
            "midi": 36,
            "name": "C2",
            "ticks": 13800,
            "time": 81.17643,
            "velocity": 0.7874015748031497
          },
          {
            "duration": 0.3470586499999939,
            "durationTicks": 59,
            "midi": 38,
            "name": "D2",
            "ticks": 13860,
            "time": 81.529371,
            "velocity": 0.7874015748031497
          },
          {
            "duration": 0.3470586499999939,
            "durationTicks": 59,
            "midi": 39,
            "name": "D#2",
            "ticks": 13920,
            "time": 81.882312,
            "velocity": 0.7874015748031497
          },
          {
            "duration": 0.029411750000008396,
            "durationTicks": 5,
            "midi": 39,
            "name": "D#2",
            "ticks": 13980,
            "time": 82.235253,
            "velocity": 0.7874015748031497
          },
          {
            "duration": 0.1117646499999978,
            "durationTicks": 19,
            "midi": 51,
            "name": "D#3",
            "ticks": 14010,
            "time": 82.41172350000001,
            "velocity": 0.7874015748031497
          },
          {
            "duration": 0.5823526500000042,
            "durationTicks": 99,
            "midi": 39,
            "name": "D#2",
            "ticks": 14040,
            "time": 82.588194,
            "velocity": 0.7874015748031497
          },
          {
            "duration": 0.3470586499999939,
            "durationTicks": 59,
            "midi": 39,
            "name": "D#2",
            "ticks": 14160,
            "time": 83.294076,
            "velocity": 0.7874015748031497
          },
          {
            "duration": 0.029411749999994186,
            "durationTicks": 5,
            "midi": 39,
            "name": "D#2",
            "ticks": 14220,
            "time": 83.647017,
            "velocity": 0.7874015748031497
          },
          {
            "duration": 0.1117646499999978,
            "durationTicks": 19,
            "midi": 51,
            "name": "D#3",
            "ticks": 14250,
            "time": 83.8234875,
            "velocity": 0.7874015748031497
          },
          {
            "duration": 0.3470586499999939,
            "durationTicks": 59,
            "midi": 41,
            "name": "F2",
            "ticks": 14280,
            "time": 83.999958,
            "velocity": 0.7874015748031497
          },
          {
            "duration": 0.3470586499999939,
            "durationTicks": 59,
            "midi": 43,
            "name": "G2",
            "ticks": 14340,
            "time": 84.35289900000001,
            "velocity": 0.7874015748031497
          },
          {
            "duration": 0.34705865000000813,
            "durationTicks": 59,
            "midi": 44,
            "name": "G#2",
            "ticks": 14400,
            "time": 84.70584,
            "velocity": 0.7874015748031497
          },
          {
            "duration": 0.029411750000008396,
            "durationTicks": 5,
            "midi": 44,
            "name": "G#2",
            "ticks": 14460,
            "time": 85.058781,
            "velocity": 0.7874015748031497
          },
          {
            "duration": 0.1117646499999978,
            "durationTicks": 19,
            "midi": 56,
            "name": "G#3",
            "ticks": 14490,
            "time": 85.2352515,
            "velocity": 0.7874015748031497
          },
          {
            "duration": 0.3470586499999939,
            "durationTicks": 59,
            "midi": 44,
            "name": "G#2",
            "ticks": 14520,
            "time": 85.411722,
            "velocity": 0.7874015748031497
          },
          {
            "duration": 0.3470586499999939,
            "durationTicks": 59,
            "midi": 39,
            "name": "D#2",
            "ticks": 14580,
            "time": 85.764663,
            "velocity": 0.7874015748031497
          },
          {
            "duration": 0.3470586499999939,
            "durationTicks": 59,
            "midi": 37,
            "name": "C#2",
            "ticks": 14640,
            "time": 86.117604,
            "velocity": 0.7874015748031497
          },
          {
            "duration": 0.029411750000008396,
            "durationTicks": 5,
            "midi": 37,
            "name": "C#2",
            "ticks": 14700,
            "time": 86.470545,
            "velocity": 0.7874015748031497
          },
          {
            "duration": 0.11176465000001201,
            "durationTicks": 19,
            "midi": 49,
            "name": "C#3",
            "ticks": 14730,
            "time": 86.6470155,
            "velocity": 0.7874015748031497
          },
          {
            "duration": 0.3470586499999939,
            "durationTicks": 59,
            "midi": 37,
            "name": "C#2",
            "ticks": 14760,
            "time": 86.823486,
            "velocity": 0.7874015748031497
          },
          {
            "duration": 0.3470586499999939,
            "durationTicks": 59,
            "midi": 41,
            "name": "F2",
            "ticks": 14820,
            "time": 87.176427,
            "velocity": 0.7874015748031497
          },
          {
            "duration": 0.3470586499999939,
            "durationTicks": 59,
            "midi": 42,
            "name": "F#2",
            "ticks": 14880,
            "time": 87.529368,
            "velocity": 0.7874015748031497
          },
          {
            "duration": 0.029411749999994186,
            "durationTicks": 5,
            "midi": 42,
            "name": "F#2",
            "ticks": 14940,
            "time": 87.882309,
            "velocity": 0.7874015748031497
          },
          {
            "duration": 0.1117646499999978,
            "durationTicks": 19,
            "midi": 54,
            "name": "F#3",
            "ticks": 14970,
            "time": 88.0587795,
            "velocity": 0.7874015748031497
          },
          {
            "duration": 0.7058819999999884,
            "durationTicks": 120,
            "midi": 42,
            "name": "F#2",
            "ticks": 15000,
            "time": 88.23525000000001,
            "velocity": 0.7874015748031497
          },
          {
            "duration": 0.3470586499999939,
            "durationTicks": 59,
            "midi": 37,
            "name": "C#2",
            "ticks": 15120,
            "time": 88.941132,
            "velocity": 0.7874015748031497
          },
          {
            "duration": 0.029411750000008396,
            "durationTicks": 5,
            "midi": 37,
            "name": "C#2",
            "ticks": 15180,
            "time": 89.294073,
            "velocity": 0.7874015748031497
          },
          {
            "duration": 0.1117646499999978,
            "durationTicks": 19,
            "midi": 49,
            "name": "C#3",
            "ticks": 15210,
            "time": 89.4705435,
            "velocity": 0.7874015748031497
          },
          {
            "duration": 0.6411761500000068,
            "durationTicks": 109,
            "midi": 30,
            "name": "F#1",
            "ticks": 15240,
            "time": 89.647014,
            "velocity": 0.7874015748031497
          },
          {
            "duration": 0.3529410000000013,
            "durationTicks": 60,
            "midi": 30,
            "name": "F#1",
            "ticks": 15360,
            "time": 90.352896,
            "velocity": 0.7874015748031497
          },
          {
            "duration": 0.3529410000000013,
            "durationTicks": 60,
            "midi": 32,
            "name": "G#1",
            "ticks": 15420,
            "time": 90.705837,
            "velocity": 0.7874015748031497
          },
          {
            "duration": 0.34705865000000813,
            "durationTicks": 59,
            "midi": 33,
            "name": "A1",
            "ticks": 15480,
            "time": 91.058778,
            "velocity": 0.7874015748031497
          },
          {
            "duration": 0.17058815000000038,
            "durationTicks": 29,
            "midi": 34,
            "name": "A#1",
            "ticks": 15540,
            "time": 91.411719,
            "velocity": 0.7874015748031497
          },
          {
            "duration": 1.5882344999999987,
            "durationTicks": 270,
            "midi": 35,
            "name": "B1",
            "ticks": 15570,
            "time": 91.5881895,
            "velocity": 0.7874015748031497
          },
          {
            "duration": 0.4058821499999965,
            "durationTicks": 69,
            "midi": 28,
            "name": "E1",
            "ticks": 15840,
            "time": 93.176424,
            "velocity": 0.7874015748031497
          },
          {
            "duration": 0.1117646499999978,
            "durationTicks": 19,
            "midi": 52,
            "name": "E3",
            "ticks": 15930,
            "time": 93.7058355,
            "velocity": 0.7874015748031497
          },
          {
            "duration": 0.34705865000000813,
            "durationTicks": 59,
            "midi": 35,
            "name": "B1",
            "ticks": 16020,
            "time": 94.235247,
            "velocity": 0.7874015748031497
          },
          {
            "duration": 0.3529410000000013,
            "durationTicks": 60,
            "midi": 28,
            "name": "E1",
            "ticks": 16080,
            "time": 94.588188,
            "velocity": 0.7874015748031497
          },
          {
            "duration": 0.3529410000000013,
            "durationTicks": 60,
            "midi": 30,
            "name": "F#1",
            "ticks": 16140,
            "time": 94.941129,
            "velocity": 0.7874015748031497
          },
          {
            "duration": 0.7058820000000026,
            "durationTicks": 120,
            "midi": 32,
            "name": "G#1",
            "ticks": 16200,
            "time": 95.29407,
            "velocity": 0.7874015748031497
          },
          {
            "duration": 0.4058821499999823,
            "durationTicks": 69,
            "midi": 33,
            "name": "A1",
            "ticks": 16320,
            "time": 95.99995200000001,
            "velocity": 0.7874015748031497
          },
          {
            "duration": 0.1117646499999978,
            "durationTicks": 19,
            "midi": 45,
            "name": "A2",
            "ticks": 16410,
            "time": 96.5293635,
            "velocity": 0.7874015748031497
          },
          {
            "duration": 0.17058815000000038,
            "durationTicks": 29,
            "midi": 33,
            "name": "A1",
            "ticks": 16470,
            "time": 96.8823045,
            "velocity": 0.7874015748031497
          },
          {
            "duration": 0.1705881500000146,
            "durationTicks": 29,
            "midi": 40,
            "name": "E2",
            "ticks": 16500,
            "time": 97.058775,
            "velocity": 0.7874015748031497
          },
          {
            "duration": 0.34705865000000813,
            "durationTicks": 59,
            "midi": 38,
            "name": "D2",
            "ticks": 16530,
            "time": 97.2352455,
            "velocity": 0.7874015748031497
          },
          {
            "duration": 0.05294114999998101,
            "durationTicks": 9,
            "midi": 50,
            "name": "D3",
            "ticks": 16590,
            "time": 97.5881865,
            "velocity": 0.7874015748031497
          },
          {
            "duration": 0.28823515000000555,
            "durationTicks": 49,
            "midi": 38,
            "name": "D2",
            "ticks": 16620,
            "time": 97.764657,
            "velocity": 0.7874015748031497
          },
          {
            "duration": 0.7058820000000026,
            "durationTicks": 120,
            "midi": 38,
            "name": "D2",
            "ticks": 16680,
            "time": 98.117598,
            "velocity": 0.7874015748031497
          },
          {
            "duration": 0.4058821499999965,
            "durationTicks": 69,
            "midi": 37,
            "name": "C#2",
            "ticks": 16800,
            "time": 98.82348,
            "velocity": 0.7874015748031497
          },
          {
            "duration": 0.1117646499999978,
            "durationTicks": 19,
            "midi": 49,
            "name": "C#3",
            "ticks": 16890,
            "time": 99.3528915,
            "velocity": 0.7874015748031497
          },
          {
            "duration": 0.3470586499999939,
            "durationTicks": 59,
            "midi": 32,
            "name": "G#1",
            "ticks": 16980,
            "time": 99.88230300000001,
            "velocity": 0.7874015748031497
          },
          {
            "duration": 0.3529410000000013,
            "durationTicks": 60,
            "midi": 28,
            "name": "E1",
            "ticks": 17040,
            "time": 100.235244,
            "velocity": 0.7874015748031497
          },
          {
            "duration": 0.3529410000000013,
            "durationTicks": 60,
            "midi": 30,
            "name": "F#1",
            "ticks": 17100,
            "time": 100.588185,
            "velocity": 0.7874015748031497
          },
          {
            "duration": 0.34705865000000813,
            "durationTicks": 59,
            "midi": 32,
            "name": "G#1",
            "ticks": 17160,
            "time": 100.941126,
            "velocity": 0.7874015748031497
          },
          {
            "duration": 0.34705865000000813,
            "durationTicks": 59,
            "midi": 37,
            "name": "C#2",
            "ticks": 17220,
            "time": 101.294067,
            "velocity": 0.7874015748031497
          },
          {
            "duration": 0.34705865000000813,
            "durationTicks": 59,
            "midi": 35,
            "name": "B1",
            "ticks": 17280,
            "time": 101.647008,
            "velocity": 0.7874015748031497
          },
          {
            "duration": 0.05294114999999522,
            "durationTicks": 9,
            "midi": 35,
            "name": "B1",
            "ticks": 17340,
            "time": 101.999949,
            "velocity": 0.7874015748031497
          },
          {
            "duration": 0.11176465000001201,
            "durationTicks": 19,
            "midi": 47,
            "name": "B2",
            "ticks": 17370,
            "time": 102.1764195,
            "velocity": 0.7874015748031497
          },
          {
            "duration": 0.1705881500000146,
            "durationTicks": 29,
            "midi": 42,
            "name": "F#2",
            "ticks": 17430,
            "time": 102.5293605,
            "velocity": 0.7874015748031497
          },
          {
            "duration": 0.17058815000000038,
            "durationTicks": 29,
            "midi": 41,
            "name": "F2",
            "ticks": 17460,
            "time": 102.705831,
            "velocity": 0.7874015748031497
          },
          {
            "duration": 0.5235291500000159,
            "durationTicks": 89,
            "midi": 40,
            "name": "E2",
            "ticks": 17490,
            "time": 102.8823015,
            "velocity": 0.7874015748031497
          },
          {
            "duration": 0.17647049999999354,
            "durationTicks": 30,
            "midi": 35,
            "name": "B1",
            "ticks": 17580,
            "time": 103.411713,
            "velocity": 0.7874015748031497
          },
          {
            "duration": 0.17647050000000775,
            "durationTicks": 30,
            "midi": 32,
            "name": "G#1",
            "ticks": 17610,
            "time": 103.5881835,
            "velocity": 0.7874015748031497
          },
          {
            "duration": 0.3470586499999939,
            "durationTicks": 59,
            "midi": 28,
            "name": "E1",
            "ticks": 17640,
            "time": 103.76465400000001,
            "velocity": 0.7874015748031497
          },
          {
            "duration": 0.34705865000000813,
            "durationTicks": 59,
            "midi": 32,
            "name": "G#1",
            "ticks": 17700,
            "time": 104.117595,
            "velocity": 0.7874015748031497
          },
          {
            "duration": 0.34705865000000813,
            "durationTicks": 59,
            "midi": 33,
            "name": "A1",
            "ticks": 17760,
            "time": 104.470536,
            "velocity": 0.7874015748031497
          },
          {
            "duration": 0.05294114999999522,
            "durationTicks": 9,
            "midi": 33,
            "name": "A1",
            "ticks": 17820,
            "time": 104.823477,
            "velocity": 0.7874015748031497
          },
          {
            "duration": 0.1117646499999978,
            "durationTicks": 19,
            "midi": 45,
            "name": "A2",
            "ticks": 17850,
            "time": 104.9999475,
            "velocity": 0.7874015748031497
          },
          {
            "duration": 0.34705865000000813,
            "durationTicks": 59,
            "midi": 28,
            "name": "E1",
            "ticks": 17940,
            "time": 105.529359,
            "velocity": 0.7874015748031497
          },
          {
            "duration": 0.34705865000000813,
            "durationTicks": 59,
            "midi": 30,
            "name": "F#1",
            "ticks": 18000,
            "time": 105.8823,
            "velocity": 0.7874015748031497
          },
          {
            "duration": 0.34705865000000813,
            "durationTicks": 59,
            "midi": 32,
            "name": "G#1",
            "ticks": 18060,
            "time": 106.235241,
            "velocity": 0.7874015748031497
          },
          {
            "duration": 0.34705865000000813,
            "durationTicks": 59,
            "midi": 33,
            "name": "A1",
            "ticks": 18120,
            "time": 106.588182,
            "velocity": 0.7874015748031497
          },
          {
            "duration": 0.34705865000000813,
            "durationTicks": 59,
            "midi": 37,
            "name": "C#2",
            "ticks": 18180,
            "time": 106.941123,
            "velocity": 0.7874015748031497
          },
          {
            "duration": 0.4058821499999823,
            "durationTicks": 69,
            "midi": 38,
            "name": "D2",
            "ticks": 18240,
            "time": 107.294064,
            "velocity": 0.7874015748031497
          },
          {
            "duration": 0.1117646499999978,
            "durationTicks": 19,
            "midi": 50,
            "name": "D3",
            "ticks": 18330,
            "time": 107.8234755,
            "velocity": 0.7874015748031497
          },
          {
            "duration": 0.34705865000000813,
            "durationTicks": 59,
            "midi": 33,
            "name": "A1",
            "ticks": 18420,
            "time": 108.352887,
            "velocity": 0.7874015748031497
          },
          {
            "duration": 0.34705865000000813,
            "durationTicks": 59,
            "midi": 40,
            "name": "E2",
            "ticks": 18480,
            "time": 108.705828,
            "velocity": 0.7874015748031497
          },
          {
            "duration": 0.34705865000000813,
            "durationTicks": 59,
            "midi": 40,
            "name": "E2",
            "ticks": 18540,
            "time": 109.058769,
            "velocity": 0.7874015748031497
          },
          {
            "duration": 0.34705865000000813,
            "durationTicks": 59,
            "midi": 38,
            "name": "D2",
            "ticks": 18600,
            "time": 109.41171,
            "velocity": 0.7874015748031497
          },
          {
            "duration": 0.34705865000000813,
            "durationTicks": 59,
            "midi": 38,
            "name": "D2",
            "ticks": 18660,
            "time": 109.764651,
            "velocity": 0.7874015748031497
          },
          {
            "duration": 0.4058821499999965,
            "durationTicks": 69,
            "midi": 37,
            "name": "C#2",
            "ticks": 18720,
            "time": 110.117592,
            "velocity": 0.7874015748031497
          },
          {
            "duration": 0.1117646499999978,
            "durationTicks": 19,
            "midi": 49,
            "name": "C#3",
            "ticks": 18810,
            "time": 110.6470035,
            "velocity": 0.7874015748031497
          },
          {
            "duration": 0.34705865000000813,
            "durationTicks": 59,
            "midi": 28,
            "name": "E1",
            "ticks": 18900,
            "time": 111.176415,
            "velocity": 0.7874015748031497
          },
          {
            "duration": 0.3470586499999939,
            "durationTicks": 59,
            "midi": 30,
            "name": "F#1",
            "ticks": 18960,
            "time": 111.529356,
            "velocity": 0.7874015748031497
          },
          {
            "duration": 0.3470586499999939,
            "durationTicks": 59,
            "midi": 30,
            "name": "F#1",
            "ticks": 19020,
            "time": 111.88229700000001,
            "velocity": 0.7874015748031497
          },
          {
            "duration": 0.34705865000000813,
            "durationTicks": 59,
            "midi": 32,
            "name": "G#1",
            "ticks": 19080,
            "time": 112.235238,
            "velocity": 0.7874015748031497
          },
          {
            "duration": 0.34705865000000813,
            "durationTicks": 59,
            "midi": 37,
            "name": "C#2",
            "ticks": 19140,
            "time": 112.588179,
            "velocity": 0.7874015748031497
          },
          {
            "duration": 0.34705865000000813,
            "durationTicks": 59,
            "midi": 35,
            "name": "B1",
            "ticks": 19200,
            "time": 112.94112,
            "velocity": 0.7874015748031497
          },
          {
            "duration": 0.05294114999999522,
            "durationTicks": 9,
            "midi": 47,
            "name": "B2",
            "ticks": 19260,
            "time": 113.294061,
            "velocity": 0.7874015748031497
          },
          {
            "duration": 0.1117646499999978,
            "durationTicks": 19,
            "midi": 47,
            "name": "B2",
            "ticks": 19290,
            "time": 113.4705315,
            "velocity": 0.7874015748031497
          },
          {
            "duration": 0.34705865000000813,
            "durationTicks": 59,
            "midi": 35,
            "name": "B1",
            "ticks": 19320,
            "time": 113.647002,
            "velocity": 0.7874015748031497
          },
          {
            "duration": 0.05294114999999522,
            "durationTicks": 9,
            "midi": 47,
            "name": "B2",
            "ticks": 19380,
            "time": 113.999943,
            "velocity": 0.7874015748031497
          },
          {
            "duration": 0.1117646499999978,
            "durationTicks": 19,
            "midi": 47,
            "name": "B2",
            "ticks": 19410,
            "time": 114.1764135,
            "velocity": 0.7874015748031497
          },
          {
            "duration": 0.34705865000000813,
            "durationTicks": 59,
            "midi": 35,
            "name": "B1",
            "ticks": 19500,
            "time": 114.705825,
            "velocity": 0.7874015748031497
          },
          {
            "duration": 0.7058820000000026,
            "durationTicks": 120,
            "midi": 29,
            "name": "F1",
            "ticks": 19560,
            "time": 115.058766,
            "velocity": 0.7874015748031497
          },
          {
            "duration": 0.4058821499999823,
            "durationTicks": 69,
            "midi": 28,
            "name": "E1",
            "ticks": 19680,
            "time": 115.76464800000001,
            "velocity": 0.7874015748031497
          },
          {
            "duration": 0.1117646499999978,
            "durationTicks": 19,
            "midi": 40,
            "name": "E2",
            "ticks": 19770,
            "time": 116.2940595,
            "velocity": 0.7874015748031497
          },
          {
            "duration": 0.34705865000000813,
            "durationTicks": 59,
            "midi": 35,
            "name": "B1",
            "ticks": 19860,
            "time": 116.823471,
            "velocity": 0.7874015748031497
          },
          {
            "duration": 0.3529410000000013,
            "durationTicks": 60,
            "midi": 28,
            "name": "E1",
            "ticks": 19920,
            "time": 117.176412,
            "velocity": 0.7874015748031497
          },
          {
            "duration": 0.3529410000000013,
            "durationTicks": 60,
            "midi": 30,
            "name": "F#1",
            "ticks": 19980,
            "time": 117.529353,
            "velocity": 0.7874015748031497
          },
          {
            "duration": 0.7058820000000026,
            "durationTicks": 120,
            "midi": 32,
            "name": "G#1",
            "ticks": 20040,
            "time": 117.882294,
            "velocity": 0.7874015748031497
          },
          {
            "duration": 0.4058821499999823,
            "durationTicks": 69,
            "midi": 33,
            "name": "A1",
            "ticks": 20160,
            "time": 118.588176,
            "velocity": 0.7874015748031497
          },
          {
            "duration": 0.1117646499999978,
            "durationTicks": 19,
            "midi": 45,
            "name": "A2",
            "ticks": 20250,
            "time": 119.1175875,
            "velocity": 0.7874015748031497
          },
          {
            "duration": 0.34705865000000813,
            "durationTicks": 59,
            "midi": 40,
            "name": "E2",
            "ticks": 20310,
            "time": 119.4705285,
            "velocity": 0.7874015748031497
          },
          {
            "duration": 0.34705865000000813,
            "durationTicks": 59,
            "midi": 38,
            "name": "D2",
            "ticks": 20370,
            "time": 119.8234695,
            "velocity": 0.7874015748031497
          },
          {
            "duration": 0.05294114999999522,
            "durationTicks": 9,
            "midi": 50,
            "name": "D3",
            "ticks": 20430,
            "time": 120.1764105,
            "velocity": 0.7874015748031497
          },
          {
            "duration": 0.34705865000000813,
            "durationTicks": 59,
            "midi": 38,
            "name": "D2",
            "ticks": 20460,
            "time": 120.352881,
            "velocity": 0.7874015748031497
          },
          {
            "duration": 0.7058820000000026,
            "durationTicks": 120,
            "midi": 38,
            "name": "D2",
            "ticks": 20520,
            "time": 120.705822,
            "velocity": 0.7874015748031497
          },
          {
            "duration": 0.4058821499999965,
            "durationTicks": 69,
            "midi": 37,
            "name": "C#2",
            "ticks": 20640,
            "time": 121.411704,
            "velocity": 0.7874015748031497
          },
          {
            "duration": 0.11176465000001201,
            "durationTicks": 19,
            "midi": 49,
            "name": "C#3",
            "ticks": 20730,
            "time": 121.9411155,
            "velocity": 0.7874015748031497
          },
          {
            "duration": 0.34705865000000813,
            "durationTicks": 59,
            "midi": 32,
            "name": "G#1",
            "ticks": 20820,
            "time": 122.470527,
            "velocity": 0.7874015748031497
          },
          {
            "duration": 0.3529410000000013,
            "durationTicks": 60,
            "midi": 28,
            "name": "E1",
            "ticks": 20880,
            "time": 122.823468,
            "velocity": 0.7874015748031497
          },
          {
            "duration": 0.3529410000000013,
            "durationTicks": 60,
            "midi": 30,
            "name": "F#1",
            "ticks": 20940,
            "time": 123.176409,
            "velocity": 0.7874015748031497
          },
          {
            "duration": 0.3470586499999939,
            "durationTicks": 59,
            "midi": 32,
            "name": "G#1",
            "ticks": 21000,
            "time": 123.52935000000001,
            "velocity": 0.7874015748031497
          },
          {
            "duration": 0.34705865000000813,
            "durationTicks": 59,
            "midi": 37,
            "name": "C#2",
            "ticks": 21060,
            "time": 123.882291,
            "velocity": 0.7874015748031497
          },
          {
            "duration": 0.4058821499999965,
            "durationTicks": 69,
            "midi": 35,
            "name": "B1",
            "ticks": 21120,
            "time": 124.235232,
            "velocity": 0.7874015748031497
          },
          {
            "duration": 0.1117646499999978,
            "durationTicks": 19,
            "midi": 47,
            "name": "B2",
            "ticks": 21210,
            "time": 124.7646435,
            "velocity": 0.7874015748031497
          },
          {
            "duration": 0.17058815000000038,
            "durationTicks": 29,
            "midi": 30,
            "name": "F#1",
            "ticks": 21270,
            "time": 125.1175845,
            "velocity": 0.7874015748031497
          },
          {
            "duration": 0.17058815000000038,
            "durationTicks": 29,
            "midi": 29,
            "name": "F1",
            "ticks": 21300,
            "time": 125.294055,
            "velocity": 0.7874015748031497
          },
          {
            "duration": 0.3470586499999939,
            "durationTicks": 59,
            "midi": 28,
            "name": "E1",
            "ticks": 21330,
            "time": 125.47052550000001,
            "velocity": 0.7874015748031497
          },
          {
            "duration": 0.1705881500000146,
            "durationTicks": 29,
            "midi": 28,
            "name": "E1",
            "ticks": 21390,
            "time": 125.8234665,
            "velocity": 0.7874015748031497
          },
          {
            "duration": 0.17058815000000038,
            "durationTicks": 29,
            "midi": 30,
            "name": "F#1",
            "ticks": 21420,
            "time": 125.999937,
            "velocity": 0.7874015748031497
          },
          {
            "duration": 0.17647050000000775,
            "durationTicks": 30,
            "midi": 30,
            "name": "F#1",
            "ticks": 21450,
            "time": 126.1764075,
            "velocity": 0.7874015748031497
          },
          {
            "duration": 0.34705865000000813,
            "durationTicks": 59,
            "midi": 32,
            "name": "G#1",
            "ticks": 21480,
            "time": 126.352878,
            "velocity": 0.7874015748031497
          },
          {
            "duration": 0.17058815000000038,
            "durationTicks": 29,
            "midi": 32,
            "name": "G#1",
            "ticks": 21540,
            "time": 126.705819,
            "velocity": 0.7874015748031497
          },
          {
            "duration": 0.1705881500000146,
            "durationTicks": 29,
            "midi": 32,
            "name": "G#1",
            "ticks": 21570,
            "time": 126.8822895,
            "velocity": 0.7874015748031497
          },
          {
            "duration": 0.4058821499999823,
            "durationTicks": 69,
            "midi": 33,
            "name": "A1",
            "ticks": 21600,
            "time": 127.05876,
            "velocity": 0.7874015748031497
          },
          {
            "duration": 0.1117646499999978,
            "durationTicks": 19,
            "midi": 45,
            "name": "A2",
            "ticks": 21690,
            "time": 127.5881715,
            "velocity": 0.7874015748031497
          },
          {
            "duration": 0.1705881500000146,
            "durationTicks": 29,
            "midi": 35,
            "name": "B1",
            "ticks": 21720,
            "time": 127.764642,
            "velocity": 0.7874015748031497
          },
          {
            "duration": 0.5235291500000017,
            "durationTicks": 89,
            "midi": 47,
            "name": "B2",
            "ticks": 21750,
            "time": 127.9411125,
            "velocity": 0.7874015748031497
          },
          {
            "duration": 0.34705865000000813,
            "durationTicks": 59,
            "midi": 37,
            "name": "C#2",
            "ticks": 21840,
            "time": 128.470524,
            "velocity": 0.7874015748031497
          },
          {
            "duration": 0.34705865000000813,
            "durationTicks": 59,
            "midi": 35,
            "name": "B1",
            "ticks": 21900,
            "time": 128.823465,
            "velocity": 0.7874015748031497
          },
          {
            "duration": 0.3470586499999797,
            "durationTicks": 59,
            "midi": 33,
            "name": "A1",
            "ticks": 21960,
            "time": 129.17640600000001,
            "velocity": 0.7874015748031497
          },
          {
            "duration": 0.34705865000000813,
            "durationTicks": 59,
            "midi": 40,
            "name": "E2",
            "ticks": 22020,
            "time": 129.529347,
            "velocity": 0.7874015748031497
          },
          {
            "duration": 0.4058821499999965,
            "durationTicks": 69,
            "midi": 38,
            "name": "D2",
            "ticks": 22080,
            "time": 129.882288,
            "velocity": 0.7874015748031497
          },
          {
            "duration": 0.1117646499999978,
            "durationTicks": 19,
            "midi": 50,
            "name": "D3",
            "ticks": 22170,
            "time": 130.4116995,
            "velocity": 0.7874015748031497
          },
          {
            "duration": 0.5235291500000017,
            "durationTicks": 89,
            "midi": 30,
            "name": "F#1",
            "ticks": 22230,
            "time": 130.7646405,
            "velocity": 0.7874015748031497
          },
          {
            "duration": 0.34705865000000813,
            "durationTicks": 59,
            "midi": 35,
            "name": "B1",
            "ticks": 22320,
            "time": 131.294052,
            "velocity": 0.7874015748031497
          },
          {
            "duration": 0.34705865000000813,
            "durationTicks": 59,
            "midi": 35,
            "name": "B1",
            "ticks": 22380,
            "time": 131.646993,
            "velocity": 0.7874015748031497
          },
          {
            "duration": 0.34705865000000813,
            "durationTicks": 59,
            "midi": 33,
            "name": "A1",
            "ticks": 22440,
            "time": 131.999934,
            "velocity": 0.7874015748031497
          },
          {
            "duration": 0.34705865000000813,
            "durationTicks": 59,
            "midi": 38,
            "name": "D2",
            "ticks": 22500,
            "time": 132.352875,
            "velocity": 0.7874015748031497
          },
          {
            "duration": 0.4058821499999965,
            "durationTicks": 69,
            "midi": 37,
            "name": "C#2",
            "ticks": 22560,
            "time": 132.705816,
            "velocity": 0.7874015748031497
          },
          {
            "duration": 0.1117646499999978,
            "durationTicks": 19,
            "midi": 49,
            "name": "C#3",
            "ticks": 22650,
            "time": 133.2352275,
            "velocity": 0.7874015748031497
          },
          {
            "duration": 0.1705881500000146,
            "durationTicks": 29,
            "midi": 39,
            "name": "D#2",
            "ticks": 22680,
            "time": 133.411698,
            "velocity": 0.7874015748031497
          },
          {
            "duration": 0.34705865000000813,
            "durationTicks": 59,
            "midi": 51,
            "name": "D#3",
            "ticks": 22710,
            "time": 133.5881685,
            "velocity": 0.7874015748031497
          },
          {
            "duration": 0.17058814999998617,
            "durationTicks": 29,
            "midi": 39,
            "name": "D#2",
            "ticks": 22770,
            "time": 133.9411095,
            "velocity": 0.7874015748031497
          },
          {
            "duration": 0.1705881500000146,
            "durationTicks": 29,
            "midi": 40,
            "name": "E2",
            "ticks": 22800,
            "time": 134.11758,
            "velocity": 0.7874015748031497
          },
          {
            "duration": 0.1117646499999978,
            "durationTicks": 19,
            "midi": 52,
            "name": "E3",
            "ticks": 22830,
            "time": 134.2940505,
            "velocity": 0.7874015748031497
          },
          {
            "duration": 0.34705865000000813,
            "durationTicks": 59,
            "midi": 39,
            "name": "D#2",
            "ticks": 22860,
            "time": 134.470521,
            "velocity": 0.7874015748031497
          },
          {
            "duration": 0.34705865000000813,
            "durationTicks": 59,
            "midi": 37,
            "name": "C#2",
            "ticks": 22920,
            "time": 134.823462,
            "velocity": 0.7874015748031497
          },
          {
            "duration": 0.34705865000000813,
            "durationTicks": 59,
            "midi": 36,
            "name": "C2",
            "ticks": 22980,
            "time": 135.176403,
            "velocity": 0.7874015748031497
          },
          {
            "duration": 0.4058821499999965,
            "durationTicks": 69,
            "midi": 35,
            "name": "B1",
            "ticks": 23040,
            "time": 135.529344,
            "velocity": 0.7874015748031497
          },
          {
            "duration": 0.1117646499999978,
            "durationTicks": 19,
            "midi": 47,
            "name": "B2",
            "ticks": 23130,
            "time": 136.0587555,
            "velocity": 0.7874015748031497
          },
          {
            "duration": 0.5235291500000017,
            "durationTicks": 89,
            "midi": 35,
            "name": "B1",
            "ticks": 23160,
            "time": 136.235226,
            "velocity": 0.7874015748031497
          },
          {
            "duration": 0.1117646499999978,
            "durationTicks": 19,
            "midi": 47,
            "name": "B2",
            "ticks": 23250,
            "time": 136.7646375,
            "velocity": 0.7874015748031497
          },
          {
            "duration": 0.17058814999998617,
            "durationTicks": 29,
            "midi": 35,
            "name": "B1",
            "ticks": 23310,
            "time": 137.1175785,
            "velocity": 0.7874015748031497
          },
          {
            "duration": 0.34705865000000813,
            "durationTicks": 59,
            "midi": 30,
            "name": "F#1",
            "ticks": 23340,
            "time": 137.294049,
            "velocity": 0.7874015748031497
          },
          {
            "duration": 0.7058820000000026,
            "durationTicks": 120,
            "midi": 29,
            "name": "F1",
            "ticks": 23400,
            "time": 137.64699,
            "velocity": 0.7874015748031497
          },
          {
            "duration": 0.3235292500000071,
            "durationTicks": 55,
            "midi": 30,
            "name": "F#1",
            "ticks": 23520,
            "time": 138.352872,
            "velocity": 0.7874015748031497
          },
          {
            "duration": 0.34705865000000813,
            "durationTicks": 59,
            "midi": 37,
            "name": "C#2",
            "ticks": 23580,
            "time": 138.705813,
            "velocity": 0.7874015748031497
          },
          {
            "duration": 0.4058821499999965,
            "durationTicks": 69,
            "midi": 30,
            "name": "F#1",
            "ticks": 23640,
            "time": 139.058754,
            "velocity": 0.7874015748031497
          },
          {
            "duration": 0.05294114999998101,
            "durationTicks": 9,
            "midi": 42,
            "name": "F#2",
            "ticks": 23730,
            "time": 139.5881655,
            "velocity": 0.7874015748031497
          },
          {
            "duration": 0.4058821499999965,
            "durationTicks": 69,
            "midi": 30,
            "name": "F#1",
            "ticks": 23760,
            "time": 139.764636,
            "velocity": 0.7874015748031497
          },
          {
            "duration": 0.05294114999998101,
            "durationTicks": 9,
            "midi": 42,
            "name": "F#2",
            "ticks": 23850,
            "time": 140.2940475,
            "velocity": 0.7874015748031497
          },
          {
            "duration": 0.3235292500000071,
            "durationTicks": 55,
            "midi": 30,
            "name": "F#1",
            "ticks": 23880,
            "time": 140.470518,
            "velocity": 0.7874015748031497
          },
          {
            "duration": 0.3470586499999797,
            "durationTicks": 59,
            "midi": 42,
            "name": "F#2",
            "ticks": 23940,
            "time": 140.823459,
            "velocity": 0.7874015748031497
          },
          {
            "duration": 0.3235292500000071,
            "durationTicks": 55,
            "midi": 30,
            "name": "F#1",
            "ticks": 24000,
            "time": 141.1764,
            "velocity": 0.7874015748031497
          },
          {
            "duration": 0.34705865000000813,
            "durationTicks": 59,
            "midi": 37,
            "name": "C#2",
            "ticks": 24060,
            "time": 141.529341,
            "velocity": 0.7874015748031497
          },
          {
            "duration": 0.4058821499999965,
            "durationTicks": 69,
            "midi": 30,
            "name": "F#1",
            "ticks": 24120,
            "time": 141.882282,
            "velocity": 0.7874015748031497
          },
          {
            "duration": 0.05294114999998101,
            "durationTicks": 9,
            "midi": 40,
            "name": "E2",
            "ticks": 24210,
            "time": 142.4116935,
            "velocity": 0.7874015748031497
          },
          {
            "duration": 0.4058821499999965,
            "durationTicks": 69,
            "midi": 30,
            "name": "F#1",
            "ticks": 24240,
            "time": 142.588164,
            "velocity": 0.7874015748031497
          },
          {
            "duration": 0.05294114999998101,
            "durationTicks": 9,
            "midi": 37,
            "name": "C#2",
            "ticks": 24330,
            "time": 143.11757550000002,
            "velocity": 0.7874015748031497
          },
          {
            "duration": 0.7058820000000026,
            "durationTicks": 120,
            "midi": 29,
            "name": "F1",
            "ticks": 24360,
            "time": 143.294046,
            "velocity": 0.7874015748031497
          },
          {
            "duration": 0.3235292500000071,
            "durationTicks": 55,
            "midi": 30,
            "name": "F#1",
            "ticks": 24480,
            "time": 143.999928,
            "velocity": 0.7874015748031497
          },
          {
            "duration": 0.34705865000000813,
            "durationTicks": 59,
            "midi": 37,
            "name": "C#2",
            "ticks": 24540,
            "time": 144.352869,
            "velocity": 0.7874015748031497
          },
          {
            "duration": 0.4058821499999681,
            "durationTicks": 69,
            "midi": 30,
            "name": "F#1",
            "ticks": 24600,
            "time": 144.70581,
            "velocity": 0.7874015748031497
          },
          {
            "duration": 0.05294115000000943,
            "durationTicks": 9,
            "midi": 42,
            "name": "F#2",
            "ticks": 24690,
            "time": 145.2352215,
            "velocity": 0.7874015748031497
          },
          {
            "duration": 0.34705865000000813,
            "durationTicks": 59,
            "midi": 30,
            "name": "F#1",
            "ticks": 24720,
            "time": 145.411692,
            "velocity": 0.7874015748031497
          },
          {
            "duration": 0.05294114999998101,
            "durationTicks": 9,
            "midi": 30,
            "name": "F#1",
            "ticks": 24780,
            "time": 145.764633,
            "velocity": 0.7874015748031497
          },
          {
            "duration": 0.05294115000000943,
            "durationTicks": 9,
            "midi": 40,
            "name": "E2",
            "ticks": 24810,
            "time": 145.9411035,
            "velocity": 0.7874015748031497
          },
          {
            "duration": 0.3235292500000071,
            "durationTicks": 55,
            "midi": 30,
            "name": "F#1",
            "ticks": 24840,
            "time": 146.117574,
            "velocity": 0.7874015748031497
          },
          {
            "duration": 0.34705865000000813,
            "durationTicks": 59,
            "midi": 42,
            "name": "F#2",
            "ticks": 24900,
            "time": 146.470515,
            "velocity": 0.7874015748031497
          },
          {
            "duration": 0.3235292500000071,
            "durationTicks": 55,
            "midi": 30,
            "name": "F#1",
            "ticks": 24960,
            "time": 146.823456,
            "velocity": 0.7874015748031497
          },
          {
            "duration": 0.34705865000000813,
            "durationTicks": 59,
            "midi": 37,
            "name": "C#2",
            "ticks": 25020,
            "time": 147.176397,
            "velocity": 0.7874015748031497
          },
          {
            "duration": 0.34705865000000813,
            "durationTicks": 59,
            "midi": 30,
            "name": "F#1",
            "ticks": 25080,
            "time": 147.529338,
            "velocity": 0.7874015748031497
          },
          {
            "duration": 0.05294114999998101,
            "durationTicks": 9,
            "midi": 30,
            "name": "F#1",
            "ticks": 25140,
            "time": 147.882279,
            "velocity": 0.7874015748031497
          },
          {
            "duration": 0.05294114999998101,
            "durationTicks": 9,
            "midi": 42,
            "name": "F#2",
            "ticks": 25170,
            "time": 148.0587495,
            "velocity": 0.7874015748031497
          },
          {
            "duration": 0.3235292500000071,
            "durationTicks": 55,
            "midi": 30,
            "name": "F#1",
            "ticks": 25200,
            "time": 148.23522,
            "velocity": 0.7874015748031497
          },
          {
            "duration": 0.3470586499999797,
            "durationTicks": 59,
            "midi": 37,
            "name": "C#2",
            "ticks": 25260,
            "time": 148.588161,
            "velocity": 0.7874015748031497
          },
          {
            "duration": 0.7058820000000026,
            "durationTicks": 120,
            "midi": 29,
            "name": "F1",
            "ticks": 25320,
            "time": 148.941102,
            "velocity": 0.7874015748031497
          },
          {
            "duration": 0.3235292500000071,
            "durationTicks": 55,
            "midi": 28,
            "name": "E1",
            "ticks": 25440,
            "time": 149.646984,
            "velocity": 0.7874015748031497
          },
          {
            "duration": 0.34705865000000813,
            "durationTicks": 59,
            "midi": 40,
            "name": "E2",
            "ticks": 25500,
            "time": 149.999925,
            "velocity": 0.7874015748031497
          },
          {
            "duration": 0.4058821499999965,
            "durationTicks": 69,
            "midi": 28,
            "name": "E1",
            "ticks": 25560,
            "time": 150.352866,
            "velocity": 0.7874015748031497
          },
          {
            "duration": 0.05294114999998101,
            "durationTicks": 9,
            "midi": 40,
            "name": "E2",
            "ticks": 25650,
            "time": 150.88227750000001,
            "velocity": 0.7874015748031497
          },
          {
            "duration": 0.4058821499999965,
            "durationTicks": 69,
            "midi": 28,
            "name": "E1",
            "ticks": 25680,
            "time": 151.058748,
            "velocity": 0.7874015748031497
          },
          {
            "duration": 0.05294115000000943,
            "durationTicks": 9,
            "midi": 40,
            "name": "E2",
            "ticks": 25770,
            "time": 151.5881595,
            "velocity": 0.7874015748031497
          },
          {
            "duration": 0.3235292500000071,
            "durationTicks": 55,
            "midi": 28,
            "name": "E1",
            "ticks": 25800,
            "time": 151.76463,
            "velocity": 0.7874015748031497
          },
          {
            "duration": 0.34705865000000813,
            "durationTicks": 59,
            "midi": 50,
            "name": "D3",
            "ticks": 25860,
            "time": 152.117571,
            "velocity": 0.7874015748031497
          },
          {
            "duration": 0.3235292500000071,
            "durationTicks": 55,
            "midi": 28,
            "name": "E1",
            "ticks": 25920,
            "time": 152.470512,
            "velocity": 0.7874015748031497
          },
          {
            "duration": 0.34705865000000813,
            "durationTicks": 59,
            "midi": 40,
            "name": "E2",
            "ticks": 25980,
            "time": 152.823453,
            "velocity": 0.7874015748031497
          },
          {
            "duration": 0.3470586499999797,
            "durationTicks": 59,
            "midi": 28,
            "name": "E1",
            "ticks": 26040,
            "time": 153.17639400000002,
            "velocity": 0.7874015748031497
          },
          {
            "duration": 0.05294114999998101,
            "durationTicks": 9,
            "midi": 28,
            "name": "E1",
            "ticks": 26100,
            "time": 153.529335,
            "velocity": 0.7874015748031497
          },
          {
            "duration": 0.05294115000000943,
            "durationTicks": 9,
            "midi": 40,
            "name": "E2",
            "ticks": 26130,
            "time": 153.7058055,
            "velocity": 0.7874015748031497
          },
          {
            "duration": 0.3235292500000071,
            "durationTicks": 55,
            "midi": 28,
            "name": "E1",
            "ticks": 26160,
            "time": 153.882276,
            "velocity": 0.7874015748031497
          },
          {
            "duration": 0.34705865000000813,
            "durationTicks": 59,
            "midi": 50,
            "name": "D3",
            "ticks": 26220,
            "time": 154.235217,
            "velocity": 0.7874015748031497
          },
          {
            "duration": 0.7058820000000026,
            "durationTicks": 120,
            "midi": 29,
            "name": "F1",
            "ticks": 26280,
            "time": 154.588158,
            "velocity": 0.7874015748031497
          },
          {
            "duration": 0.3235292500000071,
            "durationTicks": 55,
            "midi": 28,
            "name": "E1",
            "ticks": 26400,
            "time": 155.29404,
            "velocity": 0.7874015748031497
          },
          {
            "duration": 0.34705865000000813,
            "durationTicks": 59,
            "midi": 40,
            "name": "E2",
            "ticks": 26460,
            "time": 155.646981,
            "velocity": 0.7874015748031497
          },
          {
            "duration": 0.4058821499999965,
            "durationTicks": 69,
            "midi": 28,
            "name": "E1",
            "ticks": 26520,
            "time": 155.999922,
            "velocity": 0.7874015748031497
          },
          {
            "duration": 0.05294114999998101,
            "durationTicks": 9,
            "midi": 40,
            "name": "E2",
            "ticks": 26610,
            "time": 156.5293335,
            "velocity": 0.7874015748031497
          },
          {
            "duration": 0.4058821499999965,
            "durationTicks": 69,
            "midi": 28,
            "name": "E1",
            "ticks": 26640,
            "time": 156.705804,
            "velocity": 0.7874015748031497
          },
          {
            "duration": 0.05294114999998101,
            "durationTicks": 9,
            "midi": 40,
            "name": "E2",
            "ticks": 26730,
            "time": 157.2352155,
            "velocity": 0.7874015748031497
          },
          {
            "duration": 0.3235292500000071,
            "durationTicks": 55,
            "midi": 28,
            "name": "E1",
            "ticks": 26760,
            "time": 157.411686,
            "velocity": 0.7874015748031497
          },
          {
            "duration": 0.34705865000000813,
            "durationTicks": 59,
            "midi": 50,
            "name": "D3",
            "ticks": 26820,
            "time": 157.764627,
            "velocity": 0.7874015748031497
          },
          {
            "duration": 0.1705881500000146,
            "durationTicks": 29,
            "midi": 28,
            "name": "E1",
            "ticks": 26880,
            "time": 158.117568,
            "velocity": 0.7874015748031497
          },
          {
            "duration": 0.05294114999998101,
            "durationTicks": 9,
            "midi": 47,
            "name": "B2",
            "ticks": 26910,
            "time": 158.2940385,
            "velocity": 0.7874015748031497
          },
          {
            "duration": 0.34705865000000813,
            "durationTicks": 59,
            "midi": 40,
            "name": "E2",
            "ticks": 26940,
            "time": 158.470509,
            "velocity": 0.7874015748031497
          },
          {
            "duration": 0.4058821499999965,
            "durationTicks": 69,
            "midi": 28,
            "name": "E1",
            "ticks": 27000,
            "time": 158.82345,
            "velocity": 0.7874015748031497
          },
          {
            "duration": 0.05294115000000943,
            "durationTicks": 9,
            "midi": 50,
            "name": "D3",
            "ticks": 27090,
            "time": 159.3528615,
            "velocity": 0.7874015748031497
          },
          {
            "duration": 0.17058814999998617,
            "durationTicks": 29,
            "midi": 28,
            "name": "E1",
            "ticks": 27120,
            "time": 159.529332,
            "velocity": 0.7874015748031497
          },
          {
            "duration": 0.05294114999998101,
            "durationTicks": 9,
            "midi": 50,
            "name": "D3",
            "ticks": 27150,
            "time": 159.7058025,
            "velocity": 0.7874015748031497
          },
          {
            "duration": 0.34705865000000813,
            "durationTicks": 59,
            "midi": 28,
            "name": "E1",
            "ticks": 27180,
            "time": 159.882273,
            "velocity": 0.7874015748031497
          },
          {
            "duration": 0.7058820000000026,
            "durationTicks": 120,
            "midi": 29,
            "name": "F1",
            "ticks": 27240,
            "time": 160.235214,
            "velocity": 0.7874015748031497
          },
          {
            "duration": 0.3235292500000071,
            "durationTicks": 55,
            "midi": 30,
            "name": "F#1",
            "ticks": 27360,
            "time": 160.94109600000002,
            "velocity": 0.7874015748031497
          },
          {
            "duration": 0.34705865000000813,
            "durationTicks": 59,
            "midi": 37,
            "name": "C#2",
            "ticks": 27420,
            "time": 161.294037,
            "velocity": 0.7874015748031497
          },
          {
            "duration": 0.34705865000000813,
            "durationTicks": 59,
            "midi": 30,
            "name": "F#1",
            "ticks": 27480,
            "time": 161.646978,
            "velocity": 0.7874015748031497
          },
          {
            "duration": 0.05294114999998101,
            "durationTicks": 9,
            "midi": 30,
            "name": "F#1",
            "ticks": 27540,
            "time": 161.999919,
            "velocity": 0.7874015748031497
          },
          {
            "duration": 0.05294114999998101,
            "durationTicks": 9,
            "midi": 42,
            "name": "F#2",
            "ticks": 27570,
            "time": 162.1763895,
            "velocity": 0.7874015748031497
          },
          {
            "duration": 0.4058821499999965,
            "durationTicks": 69,
            "midi": 30,
            "name": "F#1",
            "ticks": 27600,
            "time": 162.35286,
            "velocity": 0.7874015748031497
          },
          {
            "duration": 0.05294114999998101,
            "durationTicks": 9,
            "midi": 42,
            "name": "F#2",
            "ticks": 27690,
            "time": 162.8822715,
            "velocity": 0.7874015748031497
          },
          {
            "duration": 0.3235292500000071,
            "durationTicks": 55,
            "midi": 30,
            "name": "F#1",
            "ticks": 27720,
            "time": 163.058742,
            "velocity": 0.7874015748031497
          },
          {
            "duration": 0.34705865000000813,
            "durationTicks": 59,
            "midi": 42,
            "name": "F#2",
            "ticks": 27780,
            "time": 163.411683,
            "velocity": 0.7874015748031497
          },
          {
            "duration": 0.3235292500000071,
            "durationTicks": 55,
            "midi": 30,
            "name": "F#1",
            "ticks": 27840,
            "time": 163.764624,
            "velocity": 0.7874015748031497
          },
          {
            "duration": 0.34705865000000813,
            "durationTicks": 59,
            "midi": 37,
            "name": "C#2",
            "ticks": 27900,
            "time": 164.117565,
            "velocity": 0.7874015748031497
          },
          {
            "duration": 0.34705865000000813,
            "durationTicks": 59,
            "midi": 30,
            "name": "F#1",
            "ticks": 27960,
            "time": 164.470506,
            "velocity": 0.7874015748031497
          },
          {
            "duration": 0.05294114999998101,
            "durationTicks": 9,
            "midi": 30,
            "name": "F#1",
            "ticks": 28020,
            "time": 164.82344700000002,
            "velocity": 0.7874015748031497
          },
          {
            "duration": 0.05294114999998101,
            "durationTicks": 9,
            "midi": 42,
            "name": "F#2",
            "ticks": 28050,
            "time": 164.9999175,
            "velocity": 0.7874015748031497
          },
          {
            "duration": 0.3235292500000071,
            "durationTicks": 55,
            "midi": 30,
            "name": "F#1",
            "ticks": 28080,
            "time": 165.176388,
            "velocity": 0.7874015748031497
          },
          {
            "duration": 0.34705865000000813,
            "durationTicks": 59,
            "midi": 42,
            "name": "F#2",
            "ticks": 28140,
            "time": 165.529329,
            "velocity": 0.7874015748031497
          },
          {
            "duration": 0.7058820000000026,
            "durationTicks": 120,
            "midi": 29,
            "name": "F1",
            "ticks": 28200,
            "time": 165.88227,
            "velocity": 0.7874015748031497
          },
          {
            "duration": 0.3235292500000071,
            "durationTicks": 55,
            "midi": 30,
            "name": "F#1",
            "ticks": 28320,
            "time": 166.588152,
            "velocity": 0.7874015748031497
          },
          {
            "duration": 0.34705865000000813,
            "durationTicks": 59,
            "midi": 37,
            "name": "C#2",
            "ticks": 28380,
            "time": 166.941093,
            "velocity": 0.7874015748031497
          },
          {
            "duration": 0.4058821499999965,
            "durationTicks": 69,
            "midi": 30,
            "name": "F#1",
            "ticks": 28440,
            "time": 167.294034,
            "velocity": 0.7874015748031497
          },
          {
            "duration": 0.05294115000000943,
            "durationTicks": 9,
            "midi": 42,
            "name": "F#2",
            "ticks": 28530,
            "time": 167.8234455,
            "velocity": 0.7874015748031497
          },
          {
            "duration": 0.05294114999998101,
            "durationTicks": 9,
            "midi": 30,
            "name": "F#1",
            "ticks": 28590,
            "time": 168.1763865,
            "velocity": 0.7874015748031497
          },
          {
            "duration": 0.34705865000000813,
            "durationTicks": 59,
            "midi": 42,
            "name": "F#2",
            "ticks": 28620,
            "time": 168.352857,
            "velocity": 0.7874015748031497
          },
          {
            "duration": 0.4058821499999681,
            "durationTicks": 69,
            "midi": 30,
            "name": "F#1",
            "ticks": 28680,
            "time": 168.70579800000002,
            "velocity": 0.7874015748031497
          },
          {
            "duration": 0.05294115000000943,
            "durationTicks": 9,
            "midi": 42,
            "name": "F#2",
            "ticks": 28770,
            "time": 169.2352095,
            "velocity": 0.7874015748031497
          },
          {
            "duration": 0.3235292500000071,
            "durationTicks": 55,
            "midi": 30,
            "name": "F#1",
            "ticks": 28800,
            "time": 169.41168,
            "velocity": 0.7874015748031497
          },
          {
            "duration": 0.34705865000000813,
            "durationTicks": 59,
            "midi": 37,
            "name": "C#2",
            "ticks": 28860,
            "time": 169.764621,
            "velocity": 0.7874015748031497
          },
          {
            "duration": 0.4058821499999965,
            "durationTicks": 69,
            "midi": 30,
            "name": "F#1",
            "ticks": 28920,
            "time": 170.117562,
            "velocity": 0.7874015748031497
          },
          {
            "duration": 0.05294114999998101,
            "durationTicks": 9,
            "midi": 42,
            "name": "F#2",
            "ticks": 29010,
            "time": 170.6469735,
            "velocity": 0.7874015748031497
          },
          {
            "duration": 0.4058821499999965,
            "durationTicks": 69,
            "midi": 30,
            "name": "F#1",
            "ticks": 29040,
            "time": 170.823444,
            "velocity": 0.7874015748031497
          },
          {
            "duration": 0.05294114999998101,
            "durationTicks": 9,
            "midi": 40,
            "name": "E2",
            "ticks": 29130,
            "time": 171.3528555,
            "velocity": 0.7874015748031497
          },
          {
            "duration": 0.7058820000000026,
            "durationTicks": 120,
            "midi": 29,
            "name": "F1",
            "ticks": 29160,
            "time": 171.529326,
            "velocity": 0.7874015748031497
          },
          {
            "duration": 0.3235292500000071,
            "durationTicks": 55,
            "midi": 28,
            "name": "E1",
            "ticks": 29280,
            "time": 172.235208,
            "velocity": 0.7874015748031497
          },
          {
            "duration": 0.3470586499999797,
            "durationTicks": 59,
            "midi": 40,
            "name": "E2",
            "ticks": 29340,
            "time": 172.58814900000002,
            "velocity": 0.7874015748031497
          },
          {
            "duration": 0.34705865000000813,
            "durationTicks": 59,
            "midi": 28,
            "name": "E1",
            "ticks": 29400,
            "time": 172.94109,
            "velocity": 0.7874015748031497
          },
          {
            "duration": 0.05294115000000943,
            "durationTicks": 9,
            "midi": 28,
            "name": "E1",
            "ticks": 29460,
            "time": 173.294031,
            "velocity": 0.7874015748031497
          },
          {
            "duration": 0.05294114999998101,
            "durationTicks": 9,
            "midi": 40,
            "name": "E2",
            "ticks": 29490,
            "time": 173.4705015,
            "velocity": 0.7874015748031497
          },
          {
            "duration": 0.34705865000000813,
            "durationTicks": 59,
            "midi": 28,
            "name": "E1",
            "ticks": 29520,
            "time": 173.646972,
            "velocity": 0.7874015748031497
          },
          {
            "duration": 0.05294115000000943,
            "durationTicks": 9,
            "midi": 28,
            "name": "E1",
            "ticks": 29580,
            "time": 173.999913,
            "velocity": 0.7874015748031497
          },
          {
            "duration": 0.05294114999998101,
            "durationTicks": 9,
            "midi": 47,
            "name": "B2",
            "ticks": 29610,
            "time": 174.17638350000001,
            "velocity": 0.7874015748031497
          },
          {
            "duration": 0.34705865000000813,
            "durationTicks": 59,
            "midi": 28,
            "name": "E1",
            "ticks": 29640,
            "time": 174.352854,
            "velocity": 0.7874015748031497
          },
          {
            "duration": 0.34705865000000813,
            "durationTicks": 59,
            "midi": 50,
            "name": "D3",
            "ticks": 29700,
            "time": 174.705795,
            "velocity": 0.7874015748031497
          },
          {
            "duration": 0.3235292500000071,
            "durationTicks": 55,
            "midi": 28,
            "name": "E1",
            "ticks": 29760,
            "time": 175.058736,
            "velocity": 0.7874015748031497
          },
          {
            "duration": 0.34705865000000813,
            "durationTicks": 59,
            "midi": 40,
            "name": "E2",
            "ticks": 29820,
            "time": 175.411677,
            "velocity": 0.7874015748031497
          },
          {
            "duration": 0.34705865000000813,
            "durationTicks": 59,
            "midi": 28,
            "name": "E1",
            "ticks": 29880,
            "time": 175.764618,
            "velocity": 0.7874015748031497
          },
          {
            "duration": 0.05294114999998101,
            "durationTicks": 9,
            "midi": 28,
            "name": "E1",
            "ticks": 29940,
            "time": 176.117559,
            "velocity": 0.7874015748031497
          },
          {
            "duration": 0.05294115000000943,
            "durationTicks": 9,
            "midi": 50,
            "name": "D3",
            "ticks": 29970,
            "time": 176.2940295,
            "velocity": 0.7874015748031497
          },
          {
            "duration": 0.3235292500000071,
            "durationTicks": 55,
            "midi": 28,
            "name": "E1",
            "ticks": 30000,
            "time": 176.47050000000002,
            "velocity": 0.7874015748031497
          },
          {
            "duration": 0.34705865000000813,
            "durationTicks": 59,
            "midi": 52,
            "name": "E3",
            "ticks": 30060,
            "time": 176.823441,
            "velocity": 0.7874015748031497
          },
          {
            "duration": 0.7058820000000026,
            "durationTicks": 120,
            "midi": 29,
            "name": "F1",
            "ticks": 30120,
            "time": 177.176382,
            "velocity": 0.7874015748031497
          },
          {
            "duration": 0.3235292500000071,
            "durationTicks": 55,
            "midi": 28,
            "name": "E1",
            "ticks": 30240,
            "time": 177.882264,
            "velocity": 0.7874015748031497
          },
          {
            "duration": 0.34705865000000813,
            "durationTicks": 59,
            "midi": 40,
            "name": "E2",
            "ticks": 30300,
            "time": 178.235205,
            "velocity": 0.7874015748031497
          },
          {
            "duration": 0.34705865000000813,
            "durationTicks": 59,
            "midi": 28,
            "name": "E1",
            "ticks": 30360,
            "time": 178.588146,
            "velocity": 0.7874015748031497
          },
          {
            "duration": 0.05294114999998101,
            "durationTicks": 9,
            "midi": 28,
            "name": "E1",
            "ticks": 30420,
            "time": 178.941087,
            "velocity": 0.7874015748031497
          },
          {
            "duration": 0.05294114999998101,
            "durationTicks": 9,
            "midi": 40,
            "name": "E2",
            "ticks": 30450,
            "time": 179.1175575,
            "velocity": 0.7874015748031497
          },
          {
            "duration": 0.34705865000000813,
            "durationTicks": 59,
            "midi": 28,
            "name": "E1",
            "ticks": 30480,
            "time": 179.294028,
            "velocity": 0.7874015748031497
          },
          {
            "duration": 0.05294114999998101,
            "durationTicks": 9,
            "midi": 28,
            "name": "E1",
            "ticks": 30540,
            "time": 179.646969,
            "velocity": 0.7874015748031497
          },
          {
            "duration": 0.05294114999998101,
            "durationTicks": 9,
            "midi": 47,
            "name": "B2",
            "ticks": 30570,
            "time": 179.8234395,
            "velocity": 0.7874015748031497
          },
          {
            "duration": 0.34705865000000813,
            "durationTicks": 59,
            "midi": 28,
            "name": "E1",
            "ticks": 30600,
            "time": 179.99991,
            "velocity": 0.7874015748031497
          },
          {
            "duration": 0.3470586499999797,
            "durationTicks": 59,
            "midi": 50,
            "name": "D3",
            "ticks": 30660,
            "time": 180.35285100000002,
            "velocity": 0.7874015748031497
          },
          {
            "duration": 0.34705865000000813,
            "durationTicks": 59,
            "midi": 28,
            "name": "E1",
            "ticks": 30720,
            "time": 180.705792,
            "velocity": 0.7874015748031497
          },
          {
            "duration": 0.05294115000000943,
            "durationTicks": 9,
            "midi": 28,
            "name": "E1",
            "ticks": 30780,
            "time": 181.058733,
            "velocity": 0.7874015748031497
          },
          {
            "duration": 0.05294114999998101,
            "durationTicks": 9,
            "midi": 50,
            "name": "D3",
            "ticks": 30810,
            "time": 181.2352035,
            "velocity": 0.7874015748031497
          },
          {
            "duration": 0.05294114999998101,
            "durationTicks": 9,
            "midi": 28,
            "name": "E1",
            "ticks": 30840,
            "time": 181.411674,
            "velocity": 0.7874015748031497
          },
          {
            "duration": 0.05294115000000943,
            "durationTicks": 9,
            "midi": 50,
            "name": "D3",
            "ticks": 30870,
            "time": 181.5881445,
            "velocity": 0.7874015748031497
          },
          {
            "duration": 0.1705881500000146,
            "durationTicks": 29,
            "midi": 28,
            "name": "E1",
            "ticks": 30900,
            "time": 181.764615,
            "velocity": 0.7874015748031497
          },
          {
            "duration": 0.9941171499999939,
            "durationTicks": 169,
            "midi": 39,
            "name": "D#2",
            "ticks": 30930,
            "time": 181.9410855,
            "velocity": 0.7874015748031497
          },
          {
            "duration": 0.5235291500000017,
            "durationTicks": 89,
            "midi": 33,
            "name": "A1",
            "ticks": 31110,
            "time": 182.9999085,
            "velocity": 0.7874015748031497
          },
          {
            "duration": 0.35294099999998707,
            "durationTicks": 60,
            "midi": 38,
            "name": "D2",
            "ticks": 31200,
            "time": 183.52932,
            "velocity": 0.7874015748031497
          },
          {
            "duration": 0.17647049999999354,
            "durationTicks": 30,
            "midi": 33,
            "name": "A1",
            "ticks": 31410,
            "time": 184.7646135,
            "velocity": 0.7874015748031497
          },
          {
            "duration": 0.3529410000000155,
            "durationTicks": 60,
            "midi": 38,
            "name": "D2",
            "ticks": 31440,
            "time": 184.941084,
            "velocity": 0.7874015748031497
          },
          {
            "duration": 0.3529410000000155,
            "durationTicks": 60,
            "midi": 37,
            "name": "C#2",
            "ticks": 31680,
            "time": 186.352848,
            "velocity": 0.7874015748031497
          },
          {
            "duration": 0.17647049999999354,
            "durationTicks": 30,
            "midi": 32,
            "name": "G#1",
            "ticks": 31890,
            "time": 187.5881415,
            "velocity": 0.7874015748031497
          },
          {
            "duration": 0.3529410000000155,
            "durationTicks": 60,
            "midi": 37,
            "name": "C#2",
            "ticks": 31920,
            "time": 187.764612,
            "velocity": 0.7874015748031497
          },
          {
            "duration": 0.35294099999998707,
            "durationTicks": 60,
            "midi": 30,
            "name": "F#1",
            "ticks": 32160,
            "time": 189.176376,
            "velocity": 0.7874015748031497
          },
          {
            "duration": 0.17647049999999354,
            "durationTicks": 30,
            "midi": 37,
            "name": "C#2",
            "ticks": 32370,
            "time": 190.41166950000002,
            "velocity": 0.7874015748031497
          },
          {
            "duration": 0.35294099999998707,
            "durationTicks": 60,
            "midi": 42,
            "name": "F#2",
            "ticks": 32400,
            "time": 190.58814,
            "velocity": 0.7874015748031497
          },
          {
            "duration": 0.35294099999998707,
            "durationTicks": 60,
            "midi": 35,
            "name": "B1",
            "ticks": 32640,
            "time": 191.99990400000002,
            "velocity": 0.7874015748031497
          },
          {
            "duration": 0.17647049999999354,
            "durationTicks": 30,
            "midi": 30,
            "name": "F#1",
            "ticks": 32850,
            "time": 193.2351975,
            "velocity": 0.7874015748031497
          },
          {
            "duration": 0.1705881500000146,
            "durationTicks": 29,
            "midi": 35,
            "name": "B1",
            "ticks": 32880,
            "time": 193.411668,
            "velocity": 0.7874015748031497
          },
          {
            "duration": 0.1117646499999978,
            "durationTicks": 19,
            "midi": 47,
            "name": "B2",
            "ticks": 32910,
            "time": 193.5881385,
            "velocity": 0.7874015748031497
          },
          {
            "duration": 0.11176465000002622,
            "durationTicks": 19,
            "midi": 47,
            "name": "B2",
            "ticks": 32970,
            "time": 193.9410795,
            "velocity": 0.7874015748031497
          },
          {
            "duration": 0.7058820000000026,
            "durationTicks": 120,
            "midi": 39,
            "name": "D#2",
            "ticks": 33000,
            "time": 194.11755,
            "velocity": 0.7874015748031497
          },
          {
            "duration": 0.3529410000000155,
            "durationTicks": 60,
            "midi": 40,
            "name": "E2",
            "ticks": 33120,
            "time": 194.823432,
            "velocity": 0.7874015748031497
          },
          {
            "duration": 0.17647049999999354,
            "durationTicks": 30,
            "midi": 35,
            "name": "B1",
            "ticks": 33330,
            "time": 196.0587255,
            "velocity": 0.7874015748031497
          },
          {
            "duration": 0.35294099999998707,
            "durationTicks": 60,
            "midi": 40,
            "name": "E2",
            "ticks": 33360,
            "time": 196.235196,
            "velocity": 0.7874015748031497
          },
          {
            "duration": 0.17647049999999354,
            "durationTicks": 30,
            "midi": 30,
            "name": "F#1",
            "ticks": 33510,
            "time": 197.1175485,
            "velocity": 0.7874015748031497
          },
          {
            "duration": 0.17647050000002196,
            "durationTicks": 30,
            "midi": 33,
            "name": "A1",
            "ticks": 33540,
            "time": 197.294019,
            "velocity": 0.7874015748031497
          },
          {
            "duration": 0.17647049999999354,
            "durationTicks": 30,
            "midi": 34,
            "name": "A#1",
            "ticks": 33570,
            "time": 197.4704895,
            "velocity": 0.7874015748031497
          },
          {
            "duration": 0.35294099999998707,
            "durationTicks": 60,
            "midi": 35,
            "name": "B1",
            "ticks": 33600,
            "time": 197.64696,
            "velocity": 0.7874015748031497
          },
          {
            "duration": 0.17647049999999354,
            "durationTicks": 30,
            "midi": 35,
            "name": "B1",
            "ticks": 33750,
            "time": 198.5293125,
            "velocity": 0.7874015748031497
          },
          {
            "duration": 0.17647049999999354,
            "durationTicks": 30,
            "midi": 38,
            "name": "D2",
            "ticks": 33780,
            "time": 198.705783,
            "velocity": 0.7874015748031497
          },
          {
            "duration": 0.17647050000002196,
            "durationTicks": 30,
            "midi": 39,
            "name": "D#2",
            "ticks": 33810,
            "time": 198.8822535,
            "velocity": 0.7874015748031497
          },
          {
            "duration": 0.17058814999998617,
            "durationTicks": 29,
            "midi": 40,
            "name": "E2",
            "ticks": 33840,
            "time": 199.058724,
            "velocity": 0.7874015748031497
          },
          {
            "duration": 0.1705881500000146,
            "durationTicks": 29,
            "midi": 35,
            "name": "B1",
            "ticks": 33870,
            "time": 199.2351945,
            "velocity": 0.7874015748031497
          },
          {
            "duration": 0.4058821499999965,
            "durationTicks": 69,
            "midi": 28,
            "name": "E1",
            "ticks": 33900,
            "time": 199.411665,
            "velocity": 0.7874015748031497
          },
          {
            "duration": 0.11176465000002622,
            "durationTicks": 19,
            "midi": 40,
            "name": "E2",
            "ticks": 33990,
            "time": 199.9410765,
            "velocity": 0.7874015748031497
          },
          {
            "duration": 0.1705881500000146,
            "durationTicks": 29,
            "midi": 31,
            "name": "G1",
            "ticks": 34020,
            "time": 200.117547,
            "velocity": 0.7874015748031497
          },
          {
            "duration": 0.1705881500000146,
            "durationTicks": 29,
            "midi": 32,
            "name": "G#1",
            "ticks": 34050,
            "time": 200.2940175,
            "velocity": 0.7874015748031497
          },
          {
            "duration": 0.34705865000000813,
            "durationTicks": 59,
            "midi": 33,
            "name": "A1",
            "ticks": 34080,
            "time": 200.470488,
            "velocity": 0.7874015748031497
          },
          {
            "duration": 0.17647049999999354,
            "durationTicks": 30,
            "midi": 28,
            "name": "E1",
            "ticks": 34290,
            "time": 201.7057815,
            "velocity": 0.7874015748031497
          },
          {
            "duration": 0.34705865000000813,
            "durationTicks": 59,
            "midi": 33,
            "name": "A1",
            "ticks": 34320,
            "time": 201.882252,
            "velocity": 0.7874015748031497
          },
          {
            "duration": 0.1705881500000146,
            "durationTicks": 29,
            "midi": 33,
            "name": "A1",
            "ticks": 34440,
            "time": 202.588134,
            "velocity": 0.7874015748031497
          },
          {
            "duration": 0.1705881500000146,
            "durationTicks": 29,
            "midi": 32,
            "name": "G#1",
            "ticks": 34470,
            "time": 202.7646045,
            "velocity": 0.7874015748031497
          },
          {
            "duration": 0.17058814999998617,
            "durationTicks": 29,
            "midi": 31,
            "name": "G1",
            "ticks": 34500,
            "time": 202.941075,
            "velocity": 0.7874015748031497
          },
          {
            "duration": 0.8176466500000288,
            "durationTicks": 139,
            "midi": 30,
            "name": "F#1",
            "ticks": 34530,
            "time": 203.1175455,
            "velocity": 0.7874015748031497
          },
          {
            "duration": 0.1705881500000146,
            "durationTicks": 29,
            "midi": 30,
            "name": "F#1",
            "ticks": 34680,
            "time": 203.999898,
            "velocity": 0.7874015748031497
          },
          {
            "duration": 0.1705881500000146,
            "durationTicks": 29,
            "midi": 37,
            "name": "C#2",
            "ticks": 34710,
            "time": 204.1763685,
            "velocity": 0.7874015748031497
          },
          {
            "duration": 0.1705881500000146,
            "durationTicks": 29,
            "midi": 36,
            "name": "C2",
            "ticks": 34740,
            "time": 204.352839,
            "velocity": 0.7874015748031497
          },
          {
            "duration": 0.9352936499999771,
            "durationTicks": 159,
            "midi": 35,
            "name": "B1",
            "ticks": 34770,
            "time": 204.5293095,
            "velocity": 0.7874015748031497
          },
          {
            "duration": 0.529411500000009,
            "durationTicks": 90,
            "midi": 35,
            "name": "B1",
            "ticks": 34950,
            "time": 205.5881325,
            "velocity": 0.7874015748031497
          },
          {
            "duration": 0.35294099999998707,
            "durationTicks": 60,
            "midi": 40,
            "name": "E2",
            "ticks": 35040,
            "time": 206.117544,
            "velocity": 0.7874015748031497
          },
          {
            "duration": 0.17647050000002196,
            "durationTicks": 30,
            "midi": 35,
            "name": "B1",
            "ticks": 35250,
            "time": 207.3528375,
            "velocity": 0.7874015748031497
          },
          {
            "duration": 0.35294099999998707,
            "durationTicks": 60,
            "midi": 40,
            "name": "E2",
            "ticks": 35280,
            "time": 207.52930800000001,
            "velocity": 0.7874015748031497
          },
          {
            "duration": 0.3529410000000155,
            "durationTicks": 60,
            "midi": 39,
            "name": "D#2",
            "ticks": 35520,
            "time": 208.941072,
            "velocity": 0.7874015748031497
          },
          {
            "duration": 0.17647049999999354,
            "durationTicks": 30,
            "midi": 34,
            "name": "A#1",
            "ticks": 35730,
            "time": 210.1763655,
            "velocity": 0.7874015748031497
          },
          {
            "duration": 0.3529410000000155,
            "durationTicks": 60,
            "midi": 39,
            "name": "D#2",
            "ticks": 35760,
            "time": 210.352836,
            "velocity": 0.7874015748031497
          },
          {
            "duration": 0.3529410000000155,
            "durationTicks": 60,
            "midi": 32,
            "name": "G#1",
            "ticks": 36000,
            "time": 211.7646,
            "velocity": 0.7874015748031497
          },
          {
            "duration": 0.17647049999999354,
            "durationTicks": 30,
            "midi": 39,
            "name": "D#2",
            "ticks": 36210,
            "time": 212.9998935,
            "velocity": 0.7874015748031497
          },
          {
            "duration": 0.35294099999998707,
            "durationTicks": 60,
            "midi": 44,
            "name": "G#2",
            "ticks": 36240,
            "time": 213.176364,
            "velocity": 0.7874015748031497
          },
          {
            "duration": 0.35294099999998707,
            "durationTicks": 60,
            "midi": 37,
            "name": "C#2",
            "ticks": 36480,
            "time": 214.588128,
            "velocity": 0.7874015748031497
          },
          {
            "duration": 0.11176465000002622,
            "durationTicks": 19,
            "midi": 44,
            "name": "G#2",
            "ticks": 36690,
            "time": 215.8234215,
            "velocity": 0.7874015748031497
          },
          {
            "duration": 0.05294114999998101,
            "durationTicks": 9,
            "midi": 49,
            "name": "C#3",
            "ticks": 36720,
            "time": 215.99989200000002,
            "velocity": 0.7874015748031497
          },
          {
            "duration": 0.5235291500000017,
            "durationTicks": 89,
            "midi": 37,
            "name": "C#2",
            "ticks": 36750,
            "time": 216.1763625,
            "velocity": 0.7874015748031497
          },
          {
            "duration": 0.7058820000000026,
            "durationTicks": 120,
            "midi": 41,
            "name": "F2",
            "ticks": 36840,
            "time": 216.705774,
            "velocity": 0.7874015748031497
          },
          {
            "duration": 0.3529410000000155,
            "durationTicks": 60,
            "midi": 42,
            "name": "F#2",
            "ticks": 36960,
            "time": 217.411656,
            "velocity": 0.7874015748031497
          },
          {
            "duration": 0.17647049999999354,
            "durationTicks": 30,
            "midi": 37,
            "name": "C#2",
            "ticks": 37170,
            "time": 218.6469495,
            "velocity": 0.7874015748031497
          },
          {
            "duration": 0.3529410000000155,
            "durationTicks": 60,
            "midi": 42,
            "name": "F#2",
            "ticks": 37200,
            "time": 218.82342,
            "velocity": 0.7874015748031497
          },
          {
            "duration": 0.17647050000002196,
            "durationTicks": 30,
            "midi": 32,
            "name": "G#1",
            "ticks": 37350,
            "time": 219.7057725,
            "velocity": 0.7874015748031497
          },
          {
            "duration": 0.17647049999999354,
            "durationTicks": 30,
            "midi": 35,
            "name": "B1",
            "ticks": 37380,
            "time": 219.88224300000002,
            "velocity": 0.7874015748031497
          },
          {
            "duration": 0.17647049999999354,
            "durationTicks": 30,
            "midi": 36,
            "name": "C2",
            "ticks": 37410,
            "time": 220.0587135,
            "velocity": 0.7874015748031497
          },
          {
            "duration": 0.35294099999998707,
            "durationTicks": 60,
            "midi": 37,
            "name": "C#2",
            "ticks": 37440,
            "time": 220.235184,
            "velocity": 0.7874015748031497
          },
          {
            "duration": 0.17647049999999354,
            "durationTicks": 30,
            "midi": 37,
            "name": "C#2",
            "ticks": 37590,
            "time": 221.1175365,
            "velocity": 0.7874015748031497
          },
          {
            "duration": 0.17647050000002196,
            "durationTicks": 30,
            "midi": 40,
            "name": "E2",
            "ticks": 37620,
            "time": 221.294007,
            "velocity": 0.7874015748031497
          },
          {
            "duration": 0.17647049999999354,
            "durationTicks": 30,
            "midi": 41,
            "name": "F2",
            "ticks": 37650,
            "time": 221.47047750000002,
            "velocity": 0.7874015748031497
          },
          {
            "duration": 0.17058814999998617,
            "durationTicks": 29,
            "midi": 42,
            "name": "F#2",
            "ticks": 37680,
            "time": 221.646948,
            "velocity": 0.7874015748031497
          },
          {
            "duration": 0.1705881500000146,
            "durationTicks": 29,
            "midi": 37,
            "name": "C#2",
            "ticks": 37710,
            "time": 221.8234185,
            "velocity": 0.7874015748031497
          },
          {
            "duration": 0.4058821499999965,
            "durationTicks": 69,
            "midi": 30,
            "name": "F#1",
            "ticks": 37740,
            "time": 221.999889,
            "velocity": 0.7874015748031497
          },
          {
            "duration": 0.1705881500000146,
            "durationTicks": 29,
            "midi": 30,
            "name": "F#1",
            "ticks": 37830,
            "time": 222.5293005,
            "velocity": 0.7874015748031497
          },
          {
            "duration": 0.1705881500000146,
            "durationTicks": 29,
            "midi": 33,
            "name": "A1",
            "ticks": 37860,
            "time": 222.705771,
            "velocity": 0.7874015748031497
          },
          {
            "duration": 0.1705881500000146,
            "durationTicks": 29,
            "midi": 34,
            "name": "A#1",
            "ticks": 37890,
            "time": 222.8822415,
            "velocity": 0.7874015748031497
          },
          {
            "duration": 0.35294099999998707,
            "durationTicks": 60,
            "midi": 35,
            "name": "B1",
            "ticks": 37920,
            "time": 223.058712,
            "velocity": 0.7874015748031497
          },
          {
            "duration": 0.17647049999999354,
            "durationTicks": 30,
            "midi": 30,
            "name": "F#1",
            "ticks": 38130,
            "time": 224.2940055,
            "velocity": 0.7874015748031497
          },
          {
            "duration": 0.3529410000000155,
            "durationTicks": 60,
            "midi": 35,
            "name": "B1",
            "ticks": 38160,
            "time": 224.470476,
            "velocity": 0.7874015748031497
          },
          {
            "duration": 0.17647049999999354,
            "durationTicks": 30,
            "midi": 30,
            "name": "F#1",
            "ticks": 38310,
            "time": 225.35282850000002,
            "velocity": 0.7874015748031497
          },
          {
            "duration": 0.17647049999999354,
            "durationTicks": 30,
            "midi": 31,
            "name": "G1",
            "ticks": 38340,
            "time": 225.529299,
            "velocity": 0.7874015748031497
          },
          {
            "duration": 0.8764701500000172,
            "durationTicks": 149,
            "midi": 32,
            "name": "G#1",
            "ticks": 38370,
            "time": 225.7057695,
            "velocity": 0.7874015748031497
          },
          {
            "duration": 0.11176465000002622,
            "durationTicks": 19,
            "midi": 44,
            "name": "G#2",
            "ticks": 38520,
            "time": 226.588122,
            "velocity": 0.7874015748031497
          },
          {
            "duration": 0.17647050000002196,
            "durationTicks": 30,
            "midi": 34,
            "name": "A#1",
            "ticks": 38550,
            "time": 226.7645925,
            "velocity": 0.7874015748031497
          },
          {
            "duration": 0.17647049999999354,
            "durationTicks": 30,
            "midi": 35,
            "name": "B1",
            "ticks": 38580,
            "time": 226.941063,
            "velocity": 0.7874015748031497
          },
          {
            "duration": 0.8764701499999887,
            "durationTicks": 149,
            "midi": 37,
            "name": "C#2",
            "ticks": 38610,
            "time": 227.1175335,
            "velocity": 0.7874015748031497
          },
          {
            "duration": 0.6999996499999952,
            "durationTicks": 119,
            "midi": 29,
            "name": "F1",
            "ticks": 38760,
            "time": 227.999886,
            "velocity": 0.7874015748031497
          },
          {
            "duration": 0.34705865000000813,
            "durationTicks": 59,
            "midi": 30,
            "name": "F#1",
            "ticks": 38880,
            "time": 228.705768,
            "velocity": 0.7874015748031497
          },
          {
            "duration": 0.029411750000036818,
            "durationTicks": 5,
            "midi": 30,
            "name": "F#1",
            "ticks": 38940,
            "time": 229.058709,
            "velocity": 0.7874015748031497
          },
          {
            "duration": 0.1117646499999978,
            "durationTicks": 19,
            "midi": 42,
            "name": "F#2",
            "ticks": 38970,
            "time": 229.23517950000002,
            "velocity": 0.7874015748031497
          },
          {
            "duration": 0.58235264999999,
            "durationTicks": 99,
            "midi": 30,
            "name": "F#1",
            "ticks": 39000,
            "time": 229.41165,
            "velocity": 0.7874015748031497
          },
          {
            "duration": 0.34705865000000813,
            "durationTicks": 59,
            "midi": 30,
            "name": "F#1",
            "ticks": 39120,
            "time": 230.117532,
            "velocity": 0.7874015748031497
          },
          {
            "duration": 0.029411750000008396,
            "durationTicks": 5,
            "midi": 30,
            "name": "F#1",
            "ticks": 39180,
            "time": 230.470473,
            "velocity": 0.7874015748031497
          },
          {
            "duration": 0.11176465000002622,
            "durationTicks": 19,
            "midi": 42,
            "name": "F#2",
            "ticks": 39210,
            "time": 230.6469435,
            "velocity": 0.7874015748031497
          },
          {
            "duration": 0.34705865000000813,
            "durationTicks": 59,
            "midi": 30,
            "name": "F#1",
            "ticks": 39240,
            "time": 230.823414,
            "velocity": 0.7874015748031497
          },
          {
            "duration": 0.34705865000000813,
            "durationTicks": 59,
            "midi": 37,
            "name": "C#2",
            "ticks": 39300,
            "time": 231.176355,
            "velocity": 0.7874015748031497
          },
          {
            "duration": 0.3470586499999797,
            "durationTicks": 59,
            "midi": 35,
            "name": "B1",
            "ticks": 39360,
            "time": 231.52929600000002,
            "velocity": 0.7874015748031497
          },
          {
            "duration": 0.029411750000008396,
            "durationTicks": 5,
            "midi": 35,
            "name": "B1",
            "ticks": 39420,
            "time": 231.882237,
            "velocity": 0.7874015748031497
          },
          {
            "duration": 0.11176465000002622,
            "durationTicks": 19,
            "midi": 47,
            "name": "B2",
            "ticks": 39450,
            "time": 232.0587075,
            "velocity": 0.7874015748031497
          },
          {
            "duration": 0.5823526500000185,
            "durationTicks": 99,
            "midi": 35,
            "name": "B1",
            "ticks": 39480,
            "time": 232.235178,
            "velocity": 0.7874015748031497
          },
          {
            "duration": 0.34705865000000813,
            "durationTicks": 59,
            "midi": 35,
            "name": "B1",
            "ticks": 39600,
            "time": 232.94106,
            "velocity": 0.7874015748031497
          },
          {
            "duration": 0.029411750000008396,
            "durationTicks": 5,
            "midi": 35,
            "name": "B1",
            "ticks": 39660,
            "time": 233.294001,
            "velocity": 0.7874015748031497
          },
          {
            "duration": 0.11176465000002622,
            "durationTicks": 19,
            "midi": 47,
            "name": "B2",
            "ticks": 39690,
            "time": 233.4704715,
            "velocity": 0.7874015748031497
          },
          {
            "duration": 0.34705865000000813,
            "durationTicks": 59,
            "midi": 30,
            "name": "F#1",
            "ticks": 39720,
            "time": 233.646942,
            "velocity": 0.7874015748031497
          },
          {
            "duration": 0.34705865000000813,
            "durationTicks": 59,
            "midi": 31,
            "name": "G1",
            "ticks": 39780,
            "time": 233.999883,
            "velocity": 0.7874015748031497
          },
          {
            "duration": 0.34705865000000813,
            "durationTicks": 59,
            "midi": 32,
            "name": "G#1",
            "ticks": 39840,
            "time": 234.352824,
            "velocity": 0.7874015748031497
          },
          {
            "duration": 0.029411750000008396,
            "durationTicks": 5,
            "midi": 32,
            "name": "G#1",
            "ticks": 39900,
            "time": 234.705765,
            "velocity": 0.7874015748031497
          },
          {
            "duration": 0.11176465000002622,
            "durationTicks": 19,
            "midi": 44,
            "name": "G#2",
            "ticks": 39930,
            "time": 234.8822355,
            "velocity": 0.7874015748031497
          },
          {
            "duration": 0.58235264999999,
            "durationTicks": 99,
            "midi": 32,
            "name": "G#1",
            "ticks": 39960,
            "time": 235.058706,
            "velocity": 0.7874015748031497
          },
          {
            "duration": 0.34705865000000813,
            "durationTicks": 59,
            "midi": 32,
            "name": "G#1",
            "ticks": 40080,
            "time": 235.764588,
            "velocity": 0.7874015748031497
          },
          {
            "duration": 0.029411750000036818,
            "durationTicks": 5,
            "midi": 32,
            "name": "G#1",
            "ticks": 40140,
            "time": 236.117529,
            "velocity": 0.7874015748031497
          },
          {
            "duration": 0.1117646499999978,
            "durationTicks": 19,
            "midi": 44,
            "name": "G#2",
            "ticks": 40170,
            "time": 236.2939995,
            "velocity": 0.7874015748031497
          },
          {
            "duration": 0.34705865000000813,
            "durationTicks": 59,
            "midi": 32,
            "name": "G#1",
            "ticks": 40200,
            "time": 236.47047,
            "velocity": 0.7874015748031497
          },
          {
            "duration": 0.34705865000000813,
            "durationTicks": 59,
            "midi": 30,
            "name": "F#1",
            "ticks": 40260,
            "time": 236.823411,
            "velocity": 0.7874015748031497
          },
          {
            "duration": 0.34705865000000813,
            "durationTicks": 59,
            "midi": 29,
            "name": "F1",
            "ticks": 40320,
            "time": 237.176352,
            "velocity": 0.7874015748031497
          },
          {
            "duration": 0.029411750000008396,
            "durationTicks": 5,
            "midi": 29,
            "name": "F1",
            "ticks": 40380,
            "time": 237.529293,
            "velocity": 0.7874015748031497
          },
          {
            "duration": 0.11176465000002622,
            "durationTicks": 19,
            "midi": 41,
            "name": "F2",
            "ticks": 40410,
            "time": 237.7057635,
            "velocity": 0.7874015748031497
          },
          {
            "duration": 0.34705865000000813,
            "durationTicks": 59,
            "midi": 29,
            "name": "F1",
            "ticks": 40440,
            "time": 237.882234,
            "velocity": 0.7874015748031497
          },
          {
            "duration": 0.34705865000000813,
            "durationTicks": 59,
            "midi": 35,
            "name": "B1",
            "ticks": 40500,
            "time": 238.235175,
            "velocity": 0.7874015748031497
          },
          {
            "duration": 0.34705865000000813,
            "durationTicks": 59,
            "midi": 34,
            "name": "A#1",
            "ticks": 40560,
            "time": 238.588116,
            "velocity": 0.7874015748031497
          },
          {
            "duration": 0.029411750000008396,
            "durationTicks": 5,
            "midi": 34,
            "name": "A#1",
            "ticks": 40620,
            "time": 238.941057,
            "velocity": 0.7874015748031497
          },
          {
            "duration": 0.11176465000002622,
            "durationTicks": 19,
            "midi": 46,
            "name": "A#2",
            "ticks": 40650,
            "time": 239.1175275,
            "velocity": 0.7874015748031497
          },
          {
            "duration": 0.3470586499999797,
            "durationTicks": 59,
            "midi": 36,
            "name": "C2",
            "ticks": 40680,
            "time": 239.29399800000002,
            "velocity": 0.7874015748031497
          },
          {
            "duration": 0.34705865000000813,
            "durationTicks": 59,
            "midi": 38,
            "name": "D2",
            "ticks": 40740,
            "time": 239.646939,
            "velocity": 0.7874015748031497
          },
          {
            "duration": 0.34705865000000813,
            "durationTicks": 59,
            "midi": 39,
            "name": "D#2",
            "ticks": 40800,
            "time": 239.99988,
            "velocity": 0.7874015748031497
          },
          {
            "duration": 0.029411750000008396,
            "durationTicks": 5,
            "midi": 39,
            "name": "D#2",
            "ticks": 40860,
            "time": 240.352821,
            "velocity": 0.7874015748031497
          },
          {
            "duration": 0.11176465000002622,
            "durationTicks": 19,
            "midi": 51,
            "name": "D#3",
            "ticks": 40890,
            "time": 240.5292915,
            "velocity": 0.7874015748031497
          },
          {
            "duration": 0.58235264999999,
            "durationTicks": 99,
            "midi": 39,
            "name": "D#2",
            "ticks": 40920,
            "time": 240.705762,
            "velocity": 0.7874015748031497
          },
          {
            "duration": 0.34705865000000813,
            "durationTicks": 59,
            "midi": 39,
            "name": "D#2",
            "ticks": 41040,
            "time": 241.411644,
            "velocity": 0.7874015748031497
          },
          {
            "duration": 0.029411750000008396,
            "durationTicks": 5,
            "midi": 39,
            "name": "D#2",
            "ticks": 41100,
            "time": 241.764585,
            "velocity": 0.7874015748031497
          },
          {
            "duration": 0.11176465000002622,
            "durationTicks": 19,
            "midi": 51,
            "name": "D#3",
            "ticks": 41130,
            "time": 241.9410555,
            "velocity": 0.7874015748031497
          },
          {
            "duration": 0.34705865000000813,
            "durationTicks": 59,
            "midi": 41,
            "name": "F2",
            "ticks": 41160,
            "time": 242.117526,
            "velocity": 0.7874015748031497
          },
          {
            "duration": 0.34705865000000813,
            "durationTicks": 59,
            "midi": 43,
            "name": "G2",
            "ticks": 41220,
            "time": 242.470467,
            "velocity": 0.7874015748031497
          },
          {
            "duration": 0.34705865000000813,
            "durationTicks": 59,
            "midi": 44,
            "name": "G#2",
            "ticks": 41280,
            "time": 242.823408,
            "velocity": 0.7874015748031497
          },
          {
            "duration": 0.029411750000008396,
            "durationTicks": 5,
            "midi": 44,
            "name": "G#2",
            "ticks": 41340,
            "time": 243.17634900000002,
            "velocity": 0.7874015748031497
          },
          {
            "duration": 0.11176465000002622,
            "durationTicks": 19,
            "midi": 56,
            "name": "G#3",
            "ticks": 41370,
            "time": 243.3528195,
            "velocity": 0.7874015748031497
          },
          {
            "duration": 0.34705865000000813,
            "durationTicks": 59,
            "midi": 44,
            "name": "G#2",
            "ticks": 41400,
            "time": 243.52929,
            "velocity": 0.7874015748031497
          },
          {
            "duration": 0.34705865000000813,
            "durationTicks": 59,
            "midi": 39,
            "name": "D#2",
            "ticks": 41460,
            "time": 243.882231,
            "velocity": 0.7874015748031497
          },
          {
            "duration": 0.34705865000000813,
            "durationTicks": 59,
            "midi": 37,
            "name": "C#2",
            "ticks": 41520,
            "time": 244.235172,
            "velocity": 0.7874015748031497
          },
          {
            "duration": 0.029411750000036818,
            "durationTicks": 5,
            "midi": 37,
            "name": "C#2",
            "ticks": 41580,
            "time": 244.588113,
            "velocity": 0.7874015748031497
          },
          {
            "duration": 0.1117646499999978,
            "durationTicks": 19,
            "midi": 49,
            "name": "C#3",
            "ticks": 41610,
            "time": 244.76458350000001,
            "velocity": 0.7874015748031497
          },
          {
            "duration": 0.34705865000000813,
            "durationTicks": 59,
            "midi": 37,
            "name": "C#2",
            "ticks": 41640,
            "time": 244.941054,
            "velocity": 0.7874015748031497
          },
          {
            "duration": 0.34705865000000813,
            "durationTicks": 59,
            "midi": 41,
            "name": "F2",
            "ticks": 41700,
            "time": 245.293995,
            "velocity": 0.7874015748031497
          },
          {
            "duration": 0.34705865000000813,
            "durationTicks": 59,
            "midi": 42,
            "name": "F#2",
            "ticks": 41760,
            "time": 245.646936,
            "velocity": 0.7874015748031497
          },
          {
            "duration": 0.029411750000008396,
            "durationTicks": 5,
            "midi": 42,
            "name": "F#2",
            "ticks": 41820,
            "time": 245.999877,
            "velocity": 0.7874015748031497
          },
          {
            "duration": 0.11176465000002622,
            "durationTicks": 19,
            "midi": 54,
            "name": "F#3",
            "ticks": 41850,
            "time": 246.1763475,
            "velocity": 0.7874015748031497
          },
          {
            "duration": 0.7058820000000026,
            "durationTicks": 120,
            "midi": 42,
            "name": "F#2",
            "ticks": 41880,
            "time": 246.352818,
            "velocity": 0.7874015748031497
          },
          {
            "duration": 0.3470586499999797,
            "durationTicks": 59,
            "midi": 37,
            "name": "C#2",
            "ticks": 42000,
            "time": 247.05870000000002,
            "velocity": 0.7874015748031497
          },
          {
            "duration": 0.029411750000008396,
            "durationTicks": 5,
            "midi": 37,
            "name": "C#2",
            "ticks": 42060,
            "time": 247.411641,
            "velocity": 0.7874015748031497
          },
          {
            "duration": 0.11176465000002622,
            "durationTicks": 19,
            "midi": 49,
            "name": "C#3",
            "ticks": 42090,
            "time": 247.5881115,
            "velocity": 0.7874015748031497
          },
          {
            "duration": 0.6411761500000352,
            "durationTicks": 109,
            "midi": 30,
            "name": "F#1",
            "ticks": 42120,
            "time": 247.764582,
            "velocity": 0.7874015748031497
          },
          {
            "duration": 0.3529410000000155,
            "durationTicks": 60,
            "midi": 30,
            "name": "F#1",
            "ticks": 42240,
            "time": 248.470464,
            "velocity": 0.7874015748031497
          },
          {
            "duration": 0.35294099999998707,
            "durationTicks": 60,
            "midi": 32,
            "name": "G#1",
            "ticks": 42300,
            "time": 248.823405,
            "velocity": 0.7874015748031497
          },
          {
            "duration": 0.34705865000000813,
            "durationTicks": 59,
            "midi": 33,
            "name": "A1",
            "ticks": 42360,
            "time": 249.176346,
            "velocity": 0.7874015748031497
          },
          {
            "duration": 0.17058814999998617,
            "durationTicks": 29,
            "midi": 34,
            "name": "A#1",
            "ticks": 42420,
            "time": 249.529287,
            "velocity": 0.7874015748031497
          },
          {
            "duration": 1.5882344999999987,
            "durationTicks": 270,
            "midi": 35,
            "name": "B1",
            "ticks": 42450,
            "time": 249.7057575,
            "velocity": 0.7874015748031497
          },
          {
            "duration": 0.4058821499999965,
            "durationTicks": 69,
            "midi": 28,
            "name": "E1",
            "ticks": 42720,
            "time": 251.293992,
            "velocity": 0.7874015748031497
          },
          {
            "duration": 0.1117646499999978,
            "durationTicks": 19,
            "midi": 52,
            "name": "E3",
            "ticks": 42810,
            "time": 251.8234035,
            "velocity": 0.7874015748031497
          },
          {
            "duration": 0.34705865000000813,
            "durationTicks": 59,
            "midi": 35,
            "name": "B1",
            "ticks": 42900,
            "time": 252.352815,
            "velocity": 0.7874015748031497
          },
          {
            "duration": 0.35294099999998707,
            "durationTicks": 60,
            "midi": 28,
            "name": "E1",
            "ticks": 42960,
            "time": 252.705756,
            "velocity": 0.7874015748031497
          },
          {
            "duration": 0.3529410000000155,
            "durationTicks": 60,
            "midi": 30,
            "name": "F#1",
            "ticks": 43020,
            "time": 253.058697,
            "velocity": 0.7874015748031497
          },
          {
            "duration": 0.7058820000000026,
            "durationTicks": 120,
            "midi": 32,
            "name": "G#1",
            "ticks": 43080,
            "time": 253.411638,
            "velocity": 0.7874015748031497
          },
          {
            "duration": 0.4058821499999681,
            "durationTicks": 69,
            "midi": 33,
            "name": "A1",
            "ticks": 43200,
            "time": 254.11752,
            "velocity": 0.7874015748031497
          },
          {
            "duration": 0.11176465000002622,
            "durationTicks": 19,
            "midi": 45,
            "name": "A2",
            "ticks": 43290,
            "time": 254.6469315,
            "velocity": 0.7874015748031497
          },
          {
            "duration": 0.17058814999998617,
            "durationTicks": 29,
            "midi": 33,
            "name": "A1",
            "ticks": 43350,
            "time": 254.9998725,
            "velocity": 0.7874015748031497
          },
          {
            "duration": 0.1705881500000146,
            "durationTicks": 29,
            "midi": 40,
            "name": "E2",
            "ticks": 43380,
            "time": 255.176343,
            "velocity": 0.7874015748031497
          },
          {
            "duration": 0.34705865000000813,
            "durationTicks": 59,
            "midi": 38,
            "name": "D2",
            "ticks": 43410,
            "time": 255.3528135,
            "velocity": 0.7874015748031497
          },
          {
            "duration": 0.1117646499999978,
            "durationTicks": 19,
            "midi": 50,
            "name": "D3",
            "ticks": 43470,
            "time": 255.7057545,
            "velocity": 0.7874015748031497
          },
          {
            "duration": 0.28823514999999134,
            "durationTicks": 49,
            "midi": 38,
            "name": "D2",
            "ticks": 43500,
            "time": 255.882225,
            "velocity": 0.7874015748031497
          },
          {
            "duration": 0.705882000000031,
            "durationTicks": 120,
            "midi": 38,
            "name": "D2",
            "ticks": 43560,
            "time": 256.235166,
            "velocity": 0.7874015748031497
          },
          {
            "duration": 0.4058821499999681,
            "durationTicks": 69,
            "midi": 37,
            "name": "C#2",
            "ticks": 43680,
            "time": 256.941048,
            "velocity": 0.7874015748031497
          },
          {
            "duration": 0.1117646499999978,
            "durationTicks": 19,
            "midi": 49,
            "name": "C#3",
            "ticks": 43770,
            "time": 257.4704595,
            "velocity": 0.7874015748031497
          },
          {
            "duration": 0.34705865000000813,
            "durationTicks": 59,
            "midi": 32,
            "name": "G#1",
            "ticks": 43860,
            "time": 257.999871,
            "velocity": 0.7874015748031497
          },
          {
            "duration": 0.35294099999998707,
            "durationTicks": 60,
            "midi": 28,
            "name": "E1",
            "ticks": 43920,
            "time": 258.35281200000003,
            "velocity": 0.7874015748031497
          },
          {
            "duration": 0.35294099999998707,
            "durationTicks": 60,
            "midi": 30,
            "name": "F#1",
            "ticks": 43980,
            "time": 258.705753,
            "velocity": 0.7874015748031497
          },
          {
            "duration": 0.34705865000000813,
            "durationTicks": 59,
            "midi": 32,
            "name": "G#1",
            "ticks": 44040,
            "time": 259.058694,
            "velocity": 0.7874015748031497
          },
          {
            "duration": 0.34705865000000813,
            "durationTicks": 59,
            "midi": 37,
            "name": "C#2",
            "ticks": 44100,
            "time": 259.411635,
            "velocity": 0.7874015748031497
          },
          {
            "duration": 0.4058821500000249,
            "durationTicks": 69,
            "midi": 35,
            "name": "B1",
            "ticks": 44160,
            "time": 259.764576,
            "velocity": 0.7874015748031497
          },
          {
            "duration": 0.1117646499999978,
            "durationTicks": 19,
            "midi": 47,
            "name": "B2",
            "ticks": 44250,
            "time": 260.2939875,
            "velocity": 0.7874015748031497
          },
          {
            "duration": 0.1705881500000146,
            "durationTicks": 29,
            "midi": 42,
            "name": "F#2",
            "ticks": 44310,
            "time": 260.6469285,
            "velocity": 0.7874015748031497
          },
          {
            "duration": 0.1705881500000146,
            "durationTicks": 29,
            "midi": 41,
            "name": "F2",
            "ticks": 44340,
            "time": 260.823399,
            "velocity": 0.7874015748031497
          },
          {
            "duration": 0.5235291500000017,
            "durationTicks": 89,
            "midi": 40,
            "name": "E2",
            "ticks": 44370,
            "time": 260.9998695,
            "velocity": 0.7874015748031497
          },
          {
            "duration": 0.17647049999999354,
            "durationTicks": 30,
            "midi": 35,
            "name": "B1",
            "ticks": 44460,
            "time": 261.529281,
            "velocity": 0.7874015748031497
          },
          {
            "duration": 0.17647049999999354,
            "durationTicks": 30,
            "midi": 32,
            "name": "G#1",
            "ticks": 44490,
            "time": 261.7057515,
            "velocity": 0.7874015748031497
          },
          {
            "duration": 0.34705865000000813,
            "durationTicks": 59,
            "midi": 28,
            "name": "E1",
            "ticks": 44520,
            "time": 261.882222,
            "velocity": 0.7874015748031497
          },
          {
            "duration": 0.34705865000000813,
            "durationTicks": 59,
            "midi": 32,
            "name": "G#1",
            "ticks": 44580,
            "time": 262.235163,
            "velocity": 0.7874015748031497
          },
          {
            "duration": 0.4058821500000249,
            "durationTicks": 69,
            "midi": 33,
            "name": "A1",
            "ticks": 44640,
            "time": 262.588104,
            "velocity": 0.7874015748031497
          },
          {
            "duration": 0.1117646499999978,
            "durationTicks": 19,
            "midi": 45,
            "name": "A2",
            "ticks": 44730,
            "time": 263.1175155,
            "velocity": 0.7874015748031497
          },
          {
            "duration": 0.34705865000000813,
            "durationTicks": 59,
            "midi": 28,
            "name": "E1",
            "ticks": 44820,
            "time": 263.646927,
            "velocity": 0.7874015748031497
          },
          {
            "duration": 0.34705865000000813,
            "durationTicks": 59,
            "midi": 30,
            "name": "F#1",
            "ticks": 44880,
            "time": 263.999868,
            "velocity": 0.7874015748031497
          },
          {
            "duration": 0.34705865000000813,
            "durationTicks": 59,
            "midi": 32,
            "name": "G#1",
            "ticks": 44940,
            "time": 264.352809,
            "velocity": 0.7874015748031497
          },
          {
            "duration": 0.34705865000000813,
            "durationTicks": 59,
            "midi": 33,
            "name": "A1",
            "ticks": 45000,
            "time": 264.70575,
            "velocity": 0.7874015748031497
          },
          {
            "duration": 0.34705865000000813,
            "durationTicks": 59,
            "midi": 37,
            "name": "C#2",
            "ticks": 45060,
            "time": 265.058691,
            "velocity": 0.7874015748031497
          },
          {
            "duration": 0.4058821500000249,
            "durationTicks": 69,
            "midi": 38,
            "name": "D2",
            "ticks": 45120,
            "time": 265.411632,
            "velocity": 0.7874015748031497
          },
          {
            "duration": 0.11176465000005464,
            "durationTicks": 19,
            "midi": 50,
            "name": "D3",
            "ticks": 45210,
            "time": 265.9410435,
            "velocity": 0.7874015748031497
          },
          {
            "duration": 0.34705865000000813,
            "durationTicks": 59,
            "midi": 33,
            "name": "A1",
            "ticks": 45300,
            "time": 266.470455,
            "velocity": 0.7874015748031497
          },
          {
            "duration": 0.34705865000000813,
            "durationTicks": 59,
            "midi": 40,
            "name": "E2",
            "ticks": 45360,
            "time": 266.823396,
            "velocity": 0.7874015748031497
          },
          {
            "duration": 0.34705865000000813,
            "durationTicks": 59,
            "midi": 40,
            "name": "E2",
            "ticks": 45420,
            "time": 267.176337,
            "velocity": 0.7874015748031497
          },
          {
            "duration": 0.34705865000000813,
            "durationTicks": 59,
            "midi": 38,
            "name": "D2",
            "ticks": 45480,
            "time": 267.529278,
            "velocity": 0.7874015748031497
          },
          {
            "duration": 0.34705865000000813,
            "durationTicks": 59,
            "midi": 38,
            "name": "D2",
            "ticks": 45540,
            "time": 267.882219,
            "velocity": 0.7874015748031497
          },
          {
            "duration": 0.4058821499999681,
            "durationTicks": 69,
            "midi": 37,
            "name": "C#2",
            "ticks": 45600,
            "time": 268.23516,
            "velocity": 0.7874015748031497
          },
          {
            "duration": 0.11176465000005464,
            "durationTicks": 19,
            "midi": 49,
            "name": "C#3",
            "ticks": 45690,
            "time": 268.7645715,
            "velocity": 0.7874015748031497
          },
          {
            "duration": 0.34705865000000813,
            "durationTicks": 59,
            "midi": 28,
            "name": "E1",
            "ticks": 45780,
            "time": 269.293983,
            "velocity": 0.7874015748031497
          },
          {
            "duration": 0.34705865000000813,
            "durationTicks": 59,
            "midi": 30,
            "name": "F#1",
            "ticks": 45840,
            "time": 269.646924,
            "velocity": 0.7874015748031497
          },
          {
            "duration": 0.34705865000000813,
            "durationTicks": 59,
            "midi": 30,
            "name": "F#1",
            "ticks": 45900,
            "time": 269.999865,
            "velocity": 0.7874015748031497
          },
          {
            "duration": 0.34705865000000813,
            "durationTicks": 59,
            "midi": 32,
            "name": "G#1",
            "ticks": 45960,
            "time": 270.352806,
            "velocity": 0.7874015748031497
          },
          {
            "duration": 0.3470586499999513,
            "durationTicks": 59,
            "midi": 37,
            "name": "C#2",
            "ticks": 46020,
            "time": 270.70574700000003,
            "velocity": 0.7874015748031497
          },
          {
            "duration": 0.34705865000000813,
            "durationTicks": 59,
            "midi": 35,
            "name": "B1",
            "ticks": 46080,
            "time": 271.058688,
            "velocity": 0.7874015748031497
          },
          {
            "duration": 0.05294114999998101,
            "durationTicks": 9,
            "midi": 47,
            "name": "B2",
            "ticks": 46140,
            "time": 271.411629,
            "velocity": 0.7874015748031497
          },
          {
            "duration": 0.1117646499999978,
            "durationTicks": 19,
            "midi": 47,
            "name": "B2",
            "ticks": 46170,
            "time": 271.5880995,
            "velocity": 0.7874015748031497
          },
          {
            "duration": 0.34705865000000813,
            "durationTicks": 59,
            "midi": 35,
            "name": "B1",
            "ticks": 46200,
            "time": 271.76457,
            "velocity": 0.7874015748031497
          },
          {
            "duration": 0.05294115000003785,
            "durationTicks": 9,
            "midi": 47,
            "name": "B2",
            "ticks": 46260,
            "time": 272.117511,
            "velocity": 0.7874015748031497
          },
          {
            "duration": 0.1117646499999978,
            "durationTicks": 19,
            "midi": 47,
            "name": "B2",
            "ticks": 46290,
            "time": 272.29398150000003,
            "velocity": 0.7874015748031497
          },
          {
            "duration": 0.34705865000000813,
            "durationTicks": 59,
            "midi": 35,
            "name": "B1",
            "ticks": 46380,
            "time": 272.823393,
            "velocity": 0.7874015748031497
          },
          {
            "duration": 0.705882000000031,
            "durationTicks": 120,
            "midi": 29,
            "name": "F1",
            "ticks": 46440,
            "time": 273.176334,
            "velocity": 0.7874015748031497
          },
          {
            "duration": 0.4058821499999681,
            "durationTicks": 69,
            "midi": 28,
            "name": "E1",
            "ticks": 46560,
            "time": 273.882216,
            "velocity": 0.7874015748031497
          },
          {
            "duration": 0.1117646499999978,
            "durationTicks": 19,
            "midi": 40,
            "name": "E2",
            "ticks": 46650,
            "time": 274.4116275,
            "velocity": 0.7874015748031497
          },
          {
            "duration": 0.34705865000000813,
            "durationTicks": 59,
            "midi": 35,
            "name": "B1",
            "ticks": 46740,
            "time": 274.941039,
            "velocity": 0.7874015748031497
          },
          {
            "duration": 0.3529410000000439,
            "durationTicks": 60,
            "midi": 28,
            "name": "E1",
            "ticks": 46800,
            "time": 275.29398,
            "velocity": 0.7874015748031497
          },
          {
            "duration": 0.35294099999998707,
            "durationTicks": 60,
            "midi": 30,
            "name": "F#1",
            "ticks": 46860,
            "time": 275.646921,
            "velocity": 0.7874015748031497
          },
          {
            "duration": 0.7058819999999741,
            "durationTicks": 120,
            "midi": 32,
            "name": "G#1",
            "ticks": 46920,
            "time": 275.999862,
            "velocity": 0.7874015748031497
          },
          {
            "duration": 0.4058821500000249,
            "durationTicks": 69,
            "midi": 33,
            "name": "A1",
            "ticks": 47040,
            "time": 276.705744,
            "velocity": 0.7874015748031497
          },
          {
            "duration": 0.1117646499999978,
            "durationTicks": 19,
            "midi": 45,
            "name": "A2",
            "ticks": 47130,
            "time": 277.2351555,
            "velocity": 0.7874015748031497
          },
          {
            "duration": 0.34705865000000813,
            "durationTicks": 59,
            "midi": 40,
            "name": "E2",
            "ticks": 47190,
            "time": 277.5880965,
            "velocity": 0.7874015748031497
          },
          {
            "duration": 0.34705865000000813,
            "durationTicks": 59,
            "midi": 38,
            "name": "D2",
            "ticks": 47250,
            "time": 277.9410375,
            "velocity": 0.7874015748031497
          },
          {
            "duration": 0.05294115000003785,
            "durationTicks": 9,
            "midi": 50,
            "name": "D3",
            "ticks": 47310,
            "time": 278.2939785,
            "velocity": 0.7874015748031497
          },
          {
            "duration": 0.3470586499999513,
            "durationTicks": 59,
            "midi": 38,
            "name": "D2",
            "ticks": 47340,
            "time": 278.47044900000003,
            "velocity": 0.7874015748031497
          },
          {
            "duration": 0.7058819999999741,
            "durationTicks": 120,
            "midi": 38,
            "name": "D2",
            "ticks": 47400,
            "time": 278.82339,
            "velocity": 0.7874015748031497
          },
          {
            "duration": 0.4058821500000249,
            "durationTicks": 69,
            "midi": 37,
            "name": "C#2",
            "ticks": 47520,
            "time": 279.529272,
            "velocity": 0.7874015748031497
          },
          {
            "duration": 0.1117646499999978,
            "durationTicks": 19,
            "midi": 49,
            "name": "C#3",
            "ticks": 47610,
            "time": 280.05868350000003,
            "velocity": 0.7874015748031497
          },
          {
            "duration": 0.34705865000000813,
            "durationTicks": 59,
            "midi": 32,
            "name": "G#1",
            "ticks": 47700,
            "time": 280.588095,
            "velocity": 0.7874015748031497
          },
          {
            "duration": 0.35294099999998707,
            "durationTicks": 60,
            "midi": 28,
            "name": "E1",
            "ticks": 47760,
            "time": 280.941036,
            "velocity": 0.7874015748031497
          },
          {
            "duration": 0.3529410000000439,
            "durationTicks": 60,
            "midi": 30,
            "name": "F#1",
            "ticks": 47820,
            "time": 281.293977,
            "velocity": 0.7874015748031497
          },
          {
            "duration": 0.34705865000000813,
            "durationTicks": 59,
            "midi": 32,
            "name": "G#1",
            "ticks": 47880,
            "time": 281.646918,
            "velocity": 0.7874015748031497
          },
          {
            "duration": 0.34705865000000813,
            "durationTicks": 59,
            "midi": 37,
            "name": "C#2",
            "ticks": 47940,
            "time": 281.999859,
            "velocity": 0.7874015748031497
          },
          {
            "duration": 0.4058821499999681,
            "durationTicks": 69,
            "midi": 35,
            "name": "B1",
            "ticks": 48000,
            "time": 282.3528,
            "velocity": 0.7874015748031497
          },
          {
            "duration": 0.11176465000005464,
            "durationTicks": 19,
            "midi": 47,
            "name": "B2",
            "ticks": 48090,
            "time": 282.8822115,
            "velocity": 0.7874015748031497
          },
          {
            "duration": 0.17058814999995775,
            "durationTicks": 29,
            "midi": 30,
            "name": "F#1",
            "ticks": 48150,
            "time": 283.2351525,
            "velocity": 0.7874015748031497
          },
          {
            "duration": 0.1705881500000146,
            "durationTicks": 29,
            "midi": 29,
            "name": "F1",
            "ticks": 48180,
            "time": 283.411623,
            "velocity": 0.7874015748031497
          },
          {
            "duration": 0.34705865000000813,
            "durationTicks": 59,
            "midi": 28,
            "name": "E1",
            "ticks": 48210,
            "time": 283.5880935,
            "velocity": 0.7874015748031497
          },
          {
            "duration": 0.1705881500000146,
            "durationTicks": 29,
            "midi": 28,
            "name": "E1",
            "ticks": 48270,
            "time": 283.9410345,
            "velocity": 0.7874015748031497
          },
          {
            "duration": 0.1705881500000146,
            "durationTicks": 29,
            "midi": 30,
            "name": "F#1",
            "ticks": 48300,
            "time": 284.117505,
            "velocity": 0.7874015748031497
          },
          {
            "duration": 0.17647049999999354,
            "durationTicks": 30,
            "midi": 30,
            "name": "F#1",
            "ticks": 48330,
            "time": 284.2939755,
            "velocity": 0.7874015748031497
          },
          {
            "duration": 0.34705865000000813,
            "durationTicks": 59,
            "midi": 32,
            "name": "G#1",
            "ticks": 48360,
            "time": 284.470446,
            "velocity": 0.7874015748031497
          },
          {
            "duration": 0.17058814999995775,
            "durationTicks": 29,
            "midi": 32,
            "name": "G#1",
            "ticks": 48420,
            "time": 284.823387,
            "velocity": 0.7874015748031497
          },
          {
            "duration": 0.1705881500000146,
            "durationTicks": 29,
            "midi": 32,
            "name": "G#1",
            "ticks": 48450,
            "time": 284.9998575,
            "velocity": 0.7874015748031497
          },
          {
            "duration": 0.4058821499999681,
            "durationTicks": 69,
            "midi": 33,
            "name": "A1",
            "ticks": 48480,
            "time": 285.176328,
            "velocity": 0.7874015748031497
          },
          {
            "duration": 0.11176465000005464,
            "durationTicks": 19,
            "midi": 45,
            "name": "A2",
            "ticks": 48570,
            "time": 285.7057395,
            "velocity": 0.7874015748031497
          },
          {
            "duration": 0.1705881500000146,
            "durationTicks": 29,
            "midi": 35,
            "name": "B1",
            "ticks": 48600,
            "time": 285.88221,
            "velocity": 0.7874015748031497
          },
          {
            "duration": 0.5235291500000017,
            "durationTicks": 89,
            "midi": 47,
            "name": "B2",
            "ticks": 48630,
            "time": 286.0586805,
            "velocity": 0.7874015748031497
          },
          {
            "duration": 0.34705865000000813,
            "durationTicks": 59,
            "midi": 37,
            "name": "C#2",
            "ticks": 48720,
            "time": 286.588092,
            "velocity": 0.7874015748031497
          },
          {
            "duration": 0.34705865000000813,
            "durationTicks": 59,
            "midi": 35,
            "name": "B1",
            "ticks": 48780,
            "time": 286.941033,
            "velocity": 0.7874015748031497
          },
          {
            "duration": 0.34705865000000813,
            "durationTicks": 59,
            "midi": 33,
            "name": "A1",
            "ticks": 48840,
            "time": 287.293974,
            "velocity": 0.7874015748031497
          },
          {
            "duration": 0.34705865000000813,
            "durationTicks": 59,
            "midi": 40,
            "name": "E2",
            "ticks": 48900,
            "time": 287.646915,
            "velocity": 0.7874015748031497
          },
          {
            "duration": 0.4058821499999681,
            "durationTicks": 69,
            "midi": 38,
            "name": "D2",
            "ticks": 48960,
            "time": 287.999856,
            "velocity": 0.7874015748031497
          },
          {
            "duration": 0.1117646499999978,
            "durationTicks": 19,
            "midi": 50,
            "name": "D3",
            "ticks": 49050,
            "time": 288.5292675,
            "velocity": 0.7874015748031497
          },
          {
            "duration": 0.5235291500000017,
            "durationTicks": 89,
            "midi": 30,
            "name": "F#1",
            "ticks": 49110,
            "time": 288.8822085,
            "velocity": 0.7874015748031497
          },
          {
            "duration": 0.34705865000000813,
            "durationTicks": 59,
            "midi": 35,
            "name": "B1",
            "ticks": 49200,
            "time": 289.41162,
            "velocity": 0.7874015748031497
          },
          {
            "duration": 0.34705865000000813,
            "durationTicks": 59,
            "midi": 35,
            "name": "B1",
            "ticks": 49260,
            "time": 289.764561,
            "velocity": 0.7874015748031497
          },
          {
            "duration": 0.34705865000000813,
            "durationTicks": 59,
            "midi": 33,
            "name": "A1",
            "ticks": 49320,
            "time": 290.117502,
            "velocity": 0.7874015748031497
          },
          {
            "duration": 0.34705865000000813,
            "durationTicks": 59,
            "midi": 38,
            "name": "D2",
            "ticks": 49380,
            "time": 290.470443,
            "velocity": 0.7874015748031497
          },
          {
            "duration": 0.4058821500000249,
            "durationTicks": 69,
            "midi": 37,
            "name": "C#2",
            "ticks": 49440,
            "time": 290.823384,
            "velocity": 0.7874015748031497
          },
          {
            "duration": 0.1117646499999978,
            "durationTicks": 19,
            "midi": 49,
            "name": "C#3",
            "ticks": 49530,
            "time": 291.3527955,
            "velocity": 0.7874015748031497
          },
          {
            "duration": 0.1705881500000146,
            "durationTicks": 29,
            "midi": 39,
            "name": "D#2",
            "ticks": 49560,
            "time": 291.529266,
            "velocity": 0.7874015748031497
          },
          {
            "duration": 0.34705865000000813,
            "durationTicks": 59,
            "midi": 51,
            "name": "D#3",
            "ticks": 49590,
            "time": 291.7057365,
            "velocity": 0.7874015748031497
          },
          {
            "duration": 0.1705881500000146,
            "durationTicks": 29,
            "midi": 39,
            "name": "D#2",
            "ticks": 49650,
            "time": 292.0586775,
            "velocity": 0.7874015748031497
          },
          {
            "duration": 0.1705881500000146,
            "durationTicks": 29,
            "midi": 40,
            "name": "E2",
            "ticks": 49680,
            "time": 292.235148,
            "velocity": 0.7874015748031497
          },
          {
            "duration": 0.1117646499999978,
            "durationTicks": 19,
            "midi": 52,
            "name": "E3",
            "ticks": 49710,
            "time": 292.41161850000003,
            "velocity": 0.7874015748031497
          },
          {
            "duration": 0.34705865000000813,
            "durationTicks": 59,
            "midi": 39,
            "name": "D#2",
            "ticks": 49740,
            "time": 292.588089,
            "velocity": 0.7874015748031497
          },
          {
            "duration": 0.34705865000000813,
            "durationTicks": 59,
            "midi": 37,
            "name": "C#2",
            "ticks": 49800,
            "time": 292.94103,
            "velocity": 0.7874015748031497
          },
          {
            "duration": 0.34705865000000813,
            "durationTicks": 59,
            "midi": 36,
            "name": "C2",
            "ticks": 49860,
            "time": 293.293971,
            "velocity": 0.7874015748031497
          },
          {
            "duration": 0.4058821500000249,
            "durationTicks": 69,
            "midi": 35,
            "name": "B1",
            "ticks": 49920,
            "time": 293.646912,
            "velocity": 0.7874015748031497
          },
          {
            "duration": 0.1117646499999978,
            "durationTicks": 19,
            "midi": 47,
            "name": "B2",
            "ticks": 50010,
            "time": 294.1763235,
            "velocity": 0.7874015748031497
          },
          {
            "duration": 0.5235291500000017,
            "durationTicks": 89,
            "midi": 35,
            "name": "B1",
            "ticks": 50040,
            "time": 294.352794,
            "velocity": 0.7874015748031497
          },
          {
            "duration": 0.1117646499999978,
            "durationTicks": 19,
            "midi": 47,
            "name": "B2",
            "ticks": 50130,
            "time": 294.8822055,
            "velocity": 0.7874015748031497
          },
          {
            "duration": 0.1705881500000146,
            "durationTicks": 29,
            "midi": 35,
            "name": "B1",
            "ticks": 50190,
            "time": 295.2351465,
            "velocity": 0.7874015748031497
          },
          {
            "duration": 0.34705865000000813,
            "durationTicks": 59,
            "midi": 30,
            "name": "F#1",
            "ticks": 50220,
            "time": 295.411617,
            "velocity": 0.7874015748031497
          },
          {
            "duration": 0.7058819999999741,
            "durationTicks": 120,
            "midi": 29,
            "name": "F1",
            "ticks": 50280,
            "time": 295.764558,
            "velocity": 0.7874015748031497
          },
          {
            "duration": 0.4058821500000249,
            "durationTicks": 69,
            "midi": 28,
            "name": "E1",
            "ticks": 50400,
            "time": 296.47044,
            "velocity": 0.7874015748031497
          },
          {
            "duration": 0.11176465000005464,
            "durationTicks": 19,
            "midi": 40,
            "name": "E2",
            "ticks": 50490,
            "time": 296.9998515,
            "velocity": 0.7874015748031497
          },
          {
            "duration": 0.34705865000000813,
            "durationTicks": 59,
            "midi": 35,
            "name": "B1",
            "ticks": 50580,
            "time": 297.529263,
            "velocity": 0.7874015748031497
          },
          {
            "duration": 0.35294099999998707,
            "durationTicks": 60,
            "midi": 28,
            "name": "E1",
            "ticks": 50640,
            "time": 297.882204,
            "velocity": 0.7874015748031497
          },
          {
            "duration": 0.35294099999998707,
            "durationTicks": 60,
            "midi": 30,
            "name": "F#1",
            "ticks": 50700,
            "time": 298.235145,
            "velocity": 0.7874015748031497
          },
          {
            "duration": 0.705882000000031,
            "durationTicks": 120,
            "midi": 32,
            "name": "G#1",
            "ticks": 50760,
            "time": 298.588086,
            "velocity": 0.7874015748031497
          },
          {
            "duration": 0.4058821499999681,
            "durationTicks": 69,
            "midi": 33,
            "name": "A1",
            "ticks": 50880,
            "time": 299.293968,
            "velocity": 0.7874015748031497
          },
          {
            "duration": 0.11176465000005464,
            "durationTicks": 19,
            "midi": 45,
            "name": "A2",
            "ticks": 50970,
            "time": 299.8233795,
            "velocity": 0.7874015748031497
          },
          {
            "duration": 0.3470586499999513,
            "durationTicks": 59,
            "midi": 40,
            "name": "E2",
            "ticks": 51030,
            "time": 300.17632050000003,
            "velocity": 0.7874015748031497
          },
          {
            "duration": 0.34705865000000813,
            "durationTicks": 59,
            "midi": 38,
            "name": "D2",
            "ticks": 51090,
            "time": 300.5292615,
            "velocity": 0.7874015748031497
          },
          {
            "duration": 0.1117646499999978,
            "durationTicks": 19,
            "midi": 50,
            "name": "D3",
            "ticks": 51150,
            "time": 300.8822025,
            "velocity": 0.7874015748031497
          },
          {
            "duration": 0.34705865000000813,
            "durationTicks": 59,
            "midi": 38,
            "name": "D2",
            "ticks": 51180,
            "time": 301.058673,
            "velocity": 0.7874015748031497
          },
          {
            "duration": 0.705882000000031,
            "durationTicks": 120,
            "midi": 38,
            "name": "D2",
            "ticks": 51240,
            "time": 301.411614,
            "velocity": 0.7874015748031497
          },
          {
            "duration": 0.4058821499999681,
            "durationTicks": 69,
            "midi": 37,
            "name": "C#2",
            "ticks": 51360,
            "time": 302.117496,
            "velocity": 0.7874015748031497
          },
          {
            "duration": 0.1117646499999978,
            "durationTicks": 19,
            "midi": 49,
            "name": "C#3",
            "ticks": 51450,
            "time": 302.6469075,
            "velocity": 0.7874015748031497
          },
          {
            "duration": 0.34705865000000813,
            "durationTicks": 59,
            "midi": 32,
            "name": "G#1",
            "ticks": 51540,
            "time": 303.176319,
            "velocity": 0.7874015748031497
          },
          {
            "duration": 0.35294099999998707,
            "durationTicks": 60,
            "midi": 28,
            "name": "E1",
            "ticks": 51600,
            "time": 303.52926,
            "velocity": 0.7874015748031497
          },
          {
            "duration": 0.35294099999998707,
            "durationTicks": 60,
            "midi": 30,
            "name": "F#1",
            "ticks": 51660,
            "time": 303.882201,
            "velocity": 0.7874015748031497
          },
          {
            "duration": 0.34705865000000813,
            "durationTicks": 59,
            "midi": 32,
            "name": "G#1",
            "ticks": 51720,
            "time": 304.235142,
            "velocity": 0.7874015748031497
          },
          {
            "duration": 0.34705865000000813,
            "durationTicks": 59,
            "midi": 37,
            "name": "C#2",
            "ticks": 51780,
            "time": 304.588083,
            "velocity": 0.7874015748031497
          },
          {
            "duration": 0.4058821499999681,
            "durationTicks": 69,
            "midi": 35,
            "name": "B1",
            "ticks": 51840,
            "time": 304.941024,
            "velocity": 0.7874015748031497
          },
          {
            "duration": 0.1117646499999978,
            "durationTicks": 19,
            "midi": 47,
            "name": "B2",
            "ticks": 51930,
            "time": 305.4704355,
            "velocity": 0.7874015748031497
          },
          {
            "duration": 0.1705881500000146,
            "durationTicks": 29,
            "midi": 30,
            "name": "F#1",
            "ticks": 51990,
            "time": 305.8233765,
            "velocity": 0.7874015748031497
          },
          {
            "duration": 0.1705881500000146,
            "durationTicks": 29,
            "midi": 29,
            "name": "F1",
            "ticks": 52020,
            "time": 305.999847,
            "velocity": 0.7874015748031497
          },
          {
            "duration": 0.34705865000000813,
            "durationTicks": 59,
            "midi": 28,
            "name": "E1",
            "ticks": 52050,
            "time": 306.1763175,
            "velocity": 0.7874015748031497
          },
          {
            "duration": 0.17058814999995775,
            "durationTicks": 29,
            "midi": 28,
            "name": "E1",
            "ticks": 52110,
            "time": 306.5292585,
            "velocity": 0.7874015748031497
          },
          {
            "duration": 0.1705881500000146,
            "durationTicks": 29,
            "midi": 30,
            "name": "F#1",
            "ticks": 52140,
            "time": 306.705729,
            "velocity": 0.7874015748031497
          },
          {
            "duration": 0.17647049999999354,
            "durationTicks": 30,
            "midi": 30,
            "name": "F#1",
            "ticks": 52170,
            "time": 306.8821995,
            "velocity": 0.7874015748031497
          },
          {
            "duration": 0.34705865000000813,
            "durationTicks": 59,
            "midi": 32,
            "name": "G#1",
            "ticks": 52200,
            "time": 307.05867,
            "velocity": 0.7874015748031497
          },
          {
            "duration": 0.1705881500000146,
            "durationTicks": 29,
            "midi": 32,
            "name": "G#1",
            "ticks": 52260,
            "time": 307.411611,
            "velocity": 0.7874015748031497
          },
          {
            "duration": 0.1705881500000146,
            "durationTicks": 29,
            "midi": 32,
            "name": "G#1",
            "ticks": 52290,
            "time": 307.5880815,
            "velocity": 0.7874015748031497
          },
          {
            "duration": 0.4058821500000249,
            "durationTicks": 69,
            "midi": 33,
            "name": "A1",
            "ticks": 52320,
            "time": 307.764552,
            "velocity": 0.7874015748031497
          },
          {
            "duration": 0.1117646499999978,
            "durationTicks": 19,
            "midi": 45,
            "name": "A2",
            "ticks": 52410,
            "time": 308.2939635,
            "velocity": 0.7874015748031497
          },
          {
            "duration": 0.34705865000000813,
            "durationTicks": 59,
            "midi": 28,
            "name": "E1",
            "ticks": 52500,
            "time": 308.823375,
            "velocity": 0.7874015748031497
          },
          {
            "duration": 0.34705865000000813,
            "durationTicks": 59,
            "midi": 30,
            "name": "F#1",
            "ticks": 52560,
            "time": 309.176316,
            "velocity": 0.7874015748031497
          },
          {
            "duration": 0.34705865000000813,
            "durationTicks": 59,
            "midi": 32,
            "name": "G#1",
            "ticks": 52620,
            "time": 309.52925700000003,
            "velocity": 0.7874015748031497
          },
          {
            "duration": 0.34705865000000813,
            "durationTicks": 59,
            "midi": 33,
            "name": "A1",
            "ticks": 52680,
            "time": 309.882198,
            "velocity": 0.7874015748031497
          },
          {
            "duration": 0.34705865000000813,
            "durationTicks": 59,
            "midi": 37,
            "name": "C#2",
            "ticks": 52740,
            "time": 310.235139,
            "velocity": 0.7874015748031497
          },
          {
            "duration": 0.4058821500000249,
            "durationTicks": 69,
            "midi": 38,
            "name": "D2",
            "ticks": 52800,
            "time": 310.58808,
            "velocity": 0.7874015748031497
          },
          {
            "duration": 0.1117646499999978,
            "durationTicks": 19,
            "midi": 50,
            "name": "D3",
            "ticks": 52890,
            "time": 311.1174915,
            "velocity": 0.7874015748031497
          },
          {
            "duration": 0.34705865000000813,
            "durationTicks": 59,
            "midi": 33,
            "name": "A1",
            "ticks": 52980,
            "time": 311.646903,
            "velocity": 0.7874015748031497
          },
          {
            "duration": 0.34705865000000813,
            "durationTicks": 59,
            "midi": 40,
            "name": "E2",
            "ticks": 53040,
            "time": 311.999844,
            "velocity": 0.7874015748031497
          },
          {
            "duration": 0.34705865000000813,
            "durationTicks": 59,
            "midi": 40,
            "name": "E2",
            "ticks": 53100,
            "time": 312.352785,
            "velocity": 0.7874015748031497
          },
          {
            "duration": 0.34705865000000813,
            "durationTicks": 59,
            "midi": 38,
            "name": "D2",
            "ticks": 53160,
            "time": 312.705726,
            "velocity": 0.7874015748031497
          },
          {
            "duration": 0.34705865000000813,
            "durationTicks": 59,
            "midi": 38,
            "name": "D2",
            "ticks": 53220,
            "time": 313.058667,
            "velocity": 0.7874015748031497
          },
          {
            "duration": 0.4058821499999681,
            "durationTicks": 69,
            "midi": 37,
            "name": "C#2",
            "ticks": 53280,
            "time": 313.411608,
            "velocity": 0.7874015748031497
          },
          {
            "duration": 0.11176465000005464,
            "durationTicks": 19,
            "midi": 49,
            "name": "C#3",
            "ticks": 53370,
            "time": 313.9410195,
            "velocity": 0.7874015748031497
          },
          {
            "duration": 0.34705865000000813,
            "durationTicks": 59,
            "midi": 28,
            "name": "E1",
            "ticks": 53460,
            "time": 314.470431,
            "velocity": 0.7874015748031497
          },
          {
            "duration": 0.34705865000000813,
            "durationTicks": 59,
            "midi": 30,
            "name": "F#1",
            "ticks": 53520,
            "time": 314.823372,
            "velocity": 0.7874015748031497
          },
          {
            "duration": 0.34705865000000813,
            "durationTicks": 59,
            "midi": 30,
            "name": "F#1",
            "ticks": 53580,
            "time": 315.176313,
            "velocity": 0.7874015748031497
          },
          {
            "duration": 0.34705865000000813,
            "durationTicks": 59,
            "midi": 32,
            "name": "G#1",
            "ticks": 53640,
            "time": 315.529254,
            "velocity": 0.7874015748031497
          },
          {
            "duration": 0.34705865000000813,
            "durationTicks": 59,
            "midi": 37,
            "name": "C#2",
            "ticks": 53700,
            "time": 315.882195,
            "velocity": 0.7874015748031497
          },
          {
            "duration": 0.34705865000000813,
            "durationTicks": 59,
            "midi": 35,
            "name": "B1",
            "ticks": 53760,
            "time": 316.235136,
            "velocity": 0.7874015748031497
          },
          {
            "duration": 0.05294114999998101,
            "durationTicks": 9,
            "midi": 47,
            "name": "B2",
            "ticks": 53820,
            "time": 316.588077,
            "velocity": 0.7874015748031497
          },
          {
            "duration": 0.11176465000005464,
            "durationTicks": 19,
            "midi": 47,
            "name": "B2",
            "ticks": 53850,
            "time": 316.7645475,
            "velocity": 0.7874015748031497
          },
          {
            "duration": 0.34705865000000813,
            "durationTicks": 59,
            "midi": 35,
            "name": "B1",
            "ticks": 53880,
            "time": 316.941018,
            "velocity": 0.7874015748031497
          },
          {
            "duration": 0.05294114999998101,
            "durationTicks": 9,
            "midi": 47,
            "name": "B2",
            "ticks": 53940,
            "time": 317.29395900000003,
            "velocity": 0.7874015748031497
          },
          {
            "duration": 0.1117646499999978,
            "durationTicks": 19,
            "midi": 47,
            "name": "B2",
            "ticks": 53970,
            "time": 317.4704295,
            "velocity": 0.7874015748031497
          },
          {
            "duration": 0.34705865000000813,
            "durationTicks": 59,
            "midi": 35,
            "name": "B1",
            "ticks": 54060,
            "time": 317.999841,
            "velocity": 0.7874015748031497
          },
          {
            "duration": 0.705882000000031,
            "durationTicks": 120,
            "midi": 29,
            "name": "F1",
            "ticks": 54120,
            "time": 318.352782,
            "velocity": 0.7874015748031497
          },
          {
            "duration": 0.22941164999997454,
            "durationTicks": 39,
            "midi": 28,
            "name": "E1",
            "ticks": 54240,
            "time": 319.058664,
            "velocity": 0.7874015748031497
          },
          {
            "duration": 0.3470586499999513,
            "durationTicks": 59,
            "midi": 33,
            "name": "A1",
            "ticks": 54720,
            "time": 321.88219200000003,
            "velocity": 0.7874015748031497
          },
          {
            "duration": 0.1117646499999978,
            "durationTicks": 19,
            "midi": 45,
            "name": "A2",
            "ticks": 54810,
            "time": 322.4116035,
            "velocity": 0.7874015748031497
          },
          {
            "duration": 0.1705881500000146,
            "durationTicks": 29,
            "midi": 33,
            "name": "A1",
            "ticks": 54870,
            "time": 322.7645445,
            "velocity": 0.7874015748031497
          },
          {
            "duration": 0.1705881500000146,
            "durationTicks": 29,
            "midi": 40,
            "name": "E2",
            "ticks": 54900,
            "time": 322.941015,
            "velocity": 0.7874015748031497
          },
          {
            "duration": 0.34705865000000813,
            "durationTicks": 59,
            "midi": 38,
            "name": "D2",
            "ticks": 54930,
            "time": 323.1174855,
            "velocity": 0.7874015748031497
          },
          {
            "duration": 0.1117646499999978,
            "durationTicks": 19,
            "midi": 50,
            "name": "D3",
            "ticks": 54990,
            "time": 323.47042650000003,
            "velocity": 0.7874015748031497
          },
          {
            "duration": 0.28823514999999134,
            "durationTicks": 49,
            "midi": 38,
            "name": "D2",
            "ticks": 55020,
            "time": 323.646897,
            "velocity": 0.7874015748031497
          },
          {
            "duration": 0.7058819999999741,
            "durationTicks": 120,
            "midi": 38,
            "name": "D2",
            "ticks": 55080,
            "time": 323.999838,
            "velocity": 0.7874015748031497
          },
          {
            "duration": 0.2294116500000314,
            "durationTicks": 39,
            "midi": 37,
            "name": "C#2",
            "ticks": 55200,
            "time": 324.70572,
            "velocity": 0.7874015748031497
          },
          {
            "duration": 0.4058821500000249,
            "durationTicks": 69,
            "midi": 35,
            "name": "B1",
            "ticks": 55680,
            "time": 327.529248,
            "velocity": 0.7874015748031497
          },
          {
            "duration": 0.11176465000005464,
            "durationTicks": 19,
            "midi": 47,
            "name": "B2",
            "ticks": 55770,
            "time": 328.0586595,
            "velocity": 0.7874015748031497
          },
          {
            "duration": 0.1705881500000146,
            "durationTicks": 29,
            "midi": 42,
            "name": "F#2",
            "ticks": 55830,
            "time": 328.4116005,
            "velocity": 0.7874015748031497
          },
          {
            "duration": 0.1705881500000146,
            "durationTicks": 29,
            "midi": 41,
            "name": "F2",
            "ticks": 55860,
            "time": 328.588071,
            "velocity": 0.7874015748031497
          },
          {
            "duration": 0.5235291500000017,
            "durationTicks": 89,
            "midi": 40,
            "name": "E2",
            "ticks": 55890,
            "time": 328.7645415,
            "velocity": 0.7874015748031497
          },
          {
            "duration": 0.17647049999999354,
            "durationTicks": 30,
            "midi": 35,
            "name": "B1",
            "ticks": 55980,
            "time": 329.293953,
            "velocity": 0.7874015748031497
          },
          {
            "duration": 0.17647050000005038,
            "durationTicks": 30,
            "midi": 32,
            "name": "G#1",
            "ticks": 56010,
            "time": 329.4704235,
            "velocity": 0.7874015748031497
          },
          {
            "duration": 0.3470586499999513,
            "durationTicks": 59,
            "midi": 28,
            "name": "E1",
            "ticks": 56040,
            "time": 329.64689400000003,
            "velocity": 0.7874015748031497
          },
          {
            "duration": 0.34705865000000813,
            "durationTicks": 59,
            "midi": 32,
            "name": "G#1",
            "ticks": 56100,
            "time": 329.999835,
            "velocity": 0.7874015748031497
          },
          {
            "duration": 0.4058821499999681,
            "durationTicks": 69,
            "midi": 33,
            "name": "A1",
            "ticks": 56160,
            "time": 330.352776,
            "velocity": 0.7874015748031497
          },
          {
            "duration": 0.11176465000005464,
            "durationTicks": 19,
            "midi": 45,
            "name": "A2",
            "ticks": 56250,
            "time": 330.8821875,
            "velocity": 0.7874015748031497
          },
          {
            "duration": 0.1705881500000146,
            "durationTicks": 29,
            "midi": 35,
            "name": "B1",
            "ticks": 56280,
            "time": 331.058658,
            "velocity": 0.7874015748031497
          },
          {
            "duration": 0.5235291500000017,
            "durationTicks": 89,
            "midi": 47,
            "name": "B2",
            "ticks": 56310,
            "time": 331.23512850000003,
            "velocity": 0.7874015748031497
          },
          {
            "duration": 0.34705865000000813,
            "durationTicks": 59,
            "midi": 37,
            "name": "C#2",
            "ticks": 56400,
            "time": 331.76454,
            "velocity": 0.7874015748031497
          },
          {
            "duration": 0.34705865000000813,
            "durationTicks": 59,
            "midi": 35,
            "name": "B1",
            "ticks": 56460,
            "time": 332.117481,
            "velocity": 0.7874015748031497
          },
          {
            "duration": 0.34705865000000813,
            "durationTicks": 59,
            "midi": 33,
            "name": "A1",
            "ticks": 56520,
            "time": 332.470422,
            "velocity": 0.7874015748031497
          },
          {
            "duration": 0.34705865000000813,
            "durationTicks": 59,
            "midi": 40,
            "name": "E2",
            "ticks": 56580,
            "time": 332.82336300000003,
            "velocity": 0.7874015748031497
          },
          {
            "duration": 0.4058821499999681,
            "durationTicks": 69,
            "midi": 38,
            "name": "D2",
            "ticks": 56640,
            "time": 333.176304,
            "velocity": 0.7874015748031497
          },
          {
            "duration": 0.11176465000005464,
            "durationTicks": 19,
            "midi": 50,
            "name": "D3",
            "ticks": 56730,
            "time": 333.7057155,
            "velocity": 0.7874015748031497
          },
          {
            "duration": 0.5235291500000017,
            "durationTicks": 89,
            "midi": 30,
            "name": "F#1",
            "ticks": 56790,
            "time": 334.0586565,
            "velocity": 0.7874015748031497
          },
          {
            "duration": 0.34705865000000813,
            "durationTicks": 59,
            "midi": 35,
            "name": "B1",
            "ticks": 56880,
            "time": 334.588068,
            "velocity": 0.7874015748031497
          },
          {
            "duration": 0.34705865000000813,
            "durationTicks": 59,
            "midi": 35,
            "name": "B1",
            "ticks": 56940,
            "time": 334.941009,
            "velocity": 0.7874015748031497
          },
          {
            "duration": 0.34705865000000813,
            "durationTicks": 59,
            "midi": 33,
            "name": "A1",
            "ticks": 57000,
            "time": 335.29395,
            "velocity": 0.7874015748031497
          },
          {
            "duration": 0.34705865000000813,
            "durationTicks": 59,
            "midi": 38,
            "name": "D2",
            "ticks": 57060,
            "time": 335.646891,
            "velocity": 0.7874015748031497
          },
          {
            "duration": 0.17058814999995775,
            "durationTicks": 29,
            "midi": 37,
            "name": "C#2",
            "ticks": 57120,
            "time": 335.999832,
            "velocity": 0.7874015748031497
          },
          {
            "duration": 0.1705881500000146,
            "durationTicks": 29,
            "midi": 49,
            "name": "C#3",
            "ticks": 57150,
            "time": 336.1763025,
            "velocity": 0.7874015748031497
          },
          {
            "duration": 0.1705881500000146,
            "durationTicks": 29,
            "midi": 39,
            "name": "D#2",
            "ticks": 57180,
            "time": 336.352773,
            "velocity": 0.7874015748031497
          },
          {
            "duration": 0.1705881500000146,
            "durationTicks": 29,
            "midi": 51,
            "name": "D#3",
            "ticks": 57210,
            "time": 336.5292435,
            "velocity": 0.7874015748031497
          },
          {
            "duration": 0.1705881500000146,
            "durationTicks": 29,
            "midi": 40,
            "name": "E2",
            "ticks": 57240,
            "time": 336.705714,
            "velocity": 0.7874015748031497
          },
          {
            "duration": 0.1705881500000146,
            "durationTicks": 29,
            "midi": 52,
            "name": "E3",
            "ticks": 57270,
            "time": 336.8821845,
            "velocity": 0.7874015748031497
          },
          {
            "duration": 0.1705881500000146,
            "durationTicks": 29,
            "midi": 42,
            "name": "F#2",
            "ticks": 57300,
            "time": 337.058655,
            "velocity": 0.7874015748031497
          },
          {
            "duration": 0.1705881500000146,
            "durationTicks": 29,
            "midi": 54,
            "name": "F#3",
            "ticks": 57330,
            "time": 337.2351255,
            "velocity": 0.7874015748031497
          },
          {
            "duration": 0.17058814999995775,
            "durationTicks": 29,
            "midi": 37,
            "name": "C#2",
            "ticks": 57360,
            "time": 337.41159600000003,
            "velocity": 0.7874015748031497
          },
          {
            "duration": 0.17058814999995775,
            "durationTicks": 29,
            "midi": 49,
            "name": "C#3",
            "ticks": 57390,
            "time": 337.5880665,
            "velocity": 0.7874015748031497
          },
          {
            "duration": 0.1705881500000146,
            "durationTicks": 29,
            "midi": 39,
            "name": "D#2",
            "ticks": 57420,
            "time": 337.764537,
            "velocity": 0.7874015748031497
          },
          {
            "duration": 0.1705881500000146,
            "durationTicks": 29,
            "midi": 51,
            "name": "D#3",
            "ticks": 57450,
            "time": 337.9410075,
            "velocity": 0.7874015748031497
          },
          {
            "duration": 0.1705881500000146,
            "durationTicks": 29,
            "midi": 40,
            "name": "E2",
            "ticks": 57480,
            "time": 338.117478,
            "velocity": 0.7874015748031497
          },
          {
            "duration": 0.1705881500000146,
            "durationTicks": 29,
            "midi": 52,
            "name": "E3",
            "ticks": 57510,
            "time": 338.2939485,
            "velocity": 0.7874015748031497
          },
          {
            "duration": 0.1705881500000146,
            "durationTicks": 29,
            "midi": 42,
            "name": "F#2",
            "ticks": 57540,
            "time": 338.470419,
            "velocity": 0.7874015748031497
          },
          {
            "duration": 0.1705881500000146,
            "durationTicks": 29,
            "midi": 54,
            "name": "F#3",
            "ticks": 57570,
            "time": 338.6468895,
            "velocity": 0.7874015748031497
          },
          {
            "duration": 0.4058821500000249,
            "durationTicks": 69,
            "midi": 35,
            "name": "B1",
            "ticks": 57600,
            "time": 338.82336,
            "velocity": 0.7874015748031497
          },
          {
            "duration": 0.1117646499999978,
            "durationTicks": 19,
            "midi": 47,
            "name": "B2",
            "ticks": 57690,
            "time": 339.3527715,
            "velocity": 0.7874015748031497
          },
          {
            "duration": 0.1705881500000146,
            "durationTicks": 29,
            "midi": 35,
            "name": "B1",
            "ticks": 57720,
            "time": 339.529242,
            "velocity": 0.7874015748031497
          },
          {
            "duration": 0.22941164999997454,
            "durationTicks": 39,
            "midi": 47,
            "name": "B2",
            "ticks": 57750,
            "time": 339.7057125,
            "velocity": 0.7874015748031497
          },
          {
            "duration": 0.5235291500000017,
            "durationTicks": 89,
            "midi": 38,
            "name": "D2",
            "ticks": 57810,
            "time": 340.0586535,
            "velocity": 0.7874015748031497
          },
          {
            "duration": 0.34705865000000813,
            "durationTicks": 59,
            "midi": 50,
            "name": "D3",
            "ticks": 57900,
            "time": 340.58806500000003,
            "velocity": 0.7874015748031497
          },
          {
            "duration": 0.34705865000000813,
            "durationTicks": 59,
            "midi": 38,
            "name": "D2",
            "ticks": 57960,
            "time": 340.941006,
            "velocity": 0.7874015748031497
          },
          {
            "duration": 0.34705865000000813,
            "durationTicks": 59,
            "midi": 50,
            "name": "D3",
            "ticks": 58020,
            "time": 341.293947,
            "velocity": 0.7874015748031497
          },
          {
            "duration": 0.34705865000000813,
            "durationTicks": 59,
            "midi": 38,
            "name": "D2",
            "ticks": 58080,
            "time": 341.646888,
            "velocity": 0.7874015748031497
          },
          {
            "duration": 0.11176465000005464,
            "durationTicks": 19,
            "midi": 50,
            "name": "D3",
            "ticks": 58140,
            "time": 341.999829,
            "velocity": 0.7874015748031497
          },
          {
            "duration": 0.34705865000000813,
            "durationTicks": 59,
            "midi": 38,
            "name": "D2",
            "ticks": 58170,
            "time": 342.1762995,
            "velocity": 0.7874015748031497
          },
          {
            "duration": 0.22941164999997454,
            "durationTicks": 39,
            "midi": 40,
            "name": "E2",
            "ticks": 58230,
            "time": 342.5292405,
            "velocity": 0.7874015748031497
          },
          {
            "duration": 0.5235291500000017,
            "durationTicks": 89,
            "midi": 41,
            "name": "F2",
            "ticks": 58290,
            "time": 342.8821815,
            "velocity": 0.7874015748031497
          },
          {
            "duration": 0.34705865000000813,
            "durationTicks": 59,
            "midi": 53,
            "name": "F3",
            "ticks": 58380,
            "time": 343.411593,
            "velocity": 0.7874015748031497
          },
          {
            "duration": 0.34705865000000813,
            "durationTicks": 59,
            "midi": 41,
            "name": "F2",
            "ticks": 58440,
            "time": 343.764534,
            "velocity": 0.7874015748031497
          },
          {
            "duration": 0.1117646499999978,
            "durationTicks": 19,
            "midi": 53,
            "name": "F3",
            "ticks": 58500,
            "time": 344.117475,
            "velocity": 0.7874015748031497
          },
          {
            "duration": 1.4058816500000262,
            "durationTicks": 239,
            "midi": 44,
            "name": "G#2",
            "ticks": 58530,
            "time": 344.2939455,
            "velocity": 0.7874015748031497
          },
          {
            "duration": 3.288233649999995,
            "durationTicks": 559,
            "midi": 38,
            "name": "D2",
            "ticks": 58770,
            "time": 345.7057095,
            "velocity": 0.7874015748031497
          }
        ]
      },
      {
        "channel": 0,
        "controlChanges": {
          "0": [
            {
              "number": 0,
              "ticks": 0,
              "time": 0,
              "value": 0
            }
          ],
          "32": [
            {
              "number": 32,
              "ticks": 0,
              "time": 0,
              "value": 0
            }
          ]
        },
        "pitchBends": [],
        "instrument": {
          "family": "piano",
          "number": 0,
          "name": "acoustic grand piano"
        },
        "name": "Synvox",
        "notes": [],
        "endOfTrackTicks": 42720
      },
      {
        "channel": 2,
        "controlChanges": {
          "7": [
            {
              "number": 7,
              "ticks": 0,
              "time": 0,
              "value": 0.8267716535433071
            }
          ],
          "10": [
            {
              "number": 10,
              "ticks": 0,
              "time": 0,
              "value": 0.3937007874015748
            }
          ],
          "91": [
            {
              "number": 91,
              "ticks": 40,
              "time": 0.235294,
              "value": 0.47244094488188976
            }
          ],
          "93": [
            {
              "number": 93,
              "ticks": 50,
              "time": 0.29411750000000003,
              "value": 0.15748031496062992
            }
          ],
          "121": [
            {
              "number": 121,
              "ticks": 5,
              "time": 0.02941175,
              "value": 0
            }
          ]
        },
        "pitchBends": [],
        "instrument": {
          "family": "ensemble",
          "number": 54,
          "name": "synth voice"
        },
        "name": "",
        "notes": [
          {
            "duration": 0.1764704999999971,
            "durationTicks": 30,
            "midi": 57,
            "name": "A3",
            "ticks": 2730,
            "time": 16.0588155,
            "velocity": 0.8267716535433071
          },
          {
            "duration": 0.17647050000000064,
            "durationTicks": 30,
            "midi": 69,
            "name": "A4",
            "ticks": 2760,
            "time": 16.235286,
            "velocity": 0.8267716535433071
          },
          {
            "duration": 0.347058650000001,
            "durationTicks": 59,
            "midi": 66,
            "name": "F#4",
            "ticks": 2790,
            "time": 16.4117565,
            "velocity": 0.8267716535433071
          },
          {
            "duration": 0.8823524999999997,
            "durationTicks": 150,
            "midi": 67,
            "name": "G4",
            "ticks": 2850,
            "time": 16.7646975,
            "velocity": 0.8267716535433071
          },
          {
            "duration": 0.17647050000000064,
            "durationTicks": 30,
            "midi": 69,
            "name": "A4",
            "ticks": 3000,
            "time": 17.64705,
            "velocity": 0.8267716535433071
          },
          {
            "duration": 0.17647050000000064,
            "durationTicks": 30,
            "midi": 70,
            "name": "A#4",
            "ticks": 3030,
            "time": 17.8235205,
            "velocity": 0.8267716535433071
          },
          {
            "duration": 0.1764704999999971,
            "durationTicks": 30,
            "midi": 77,
            "name": "F5",
            "ticks": 3060,
            "time": 17.999991,
            "velocity": 0.8267716535433071
          },
          {
            "duration": 0.1764704999999971,
            "durationTicks": 30,
            "midi": 81,
            "name": "A5",
            "ticks": 3060,
            "time": 17.999991,
            "velocity": 0.8267716535433071
          },
          {
            "duration": 0.1764704999999971,
            "durationTicks": 30,
            "midi": 74,
            "name": "D5",
            "ticks": 3060,
            "time": 17.999991,
            "velocity": 0.8267716535433071
          },
          {
            "duration": 0.8823525000000032,
            "durationTicks": 150,
            "midi": 72,
            "name": "C5",
            "ticks": 3090,
            "time": 18.1764615,
            "velocity": 0.8267716535433071
          },
          {
            "duration": 0.8823525000000032,
            "durationTicks": 150,
            "midi": 76,
            "name": "E5",
            "ticks": 3090,
            "time": 18.1764615,
            "velocity": 0.8267716535433071
          },
          {
            "duration": 0.8823525000000032,
            "durationTicks": 150,
            "midi": 79,
            "name": "G5",
            "ticks": 3090,
            "time": 18.1764615,
            "velocity": 0.8267716535433071
          },
          {
            "duration": 0.17647050000000064,
            "durationTicks": 30,
            "midi": 57,
            "name": "A3",
            "ticks": 3690,
            "time": 21.7058715,
            "velocity": 0.8267716535433071
          },
          {
            "duration": 0.17647050000000064,
            "durationTicks": 30,
            "midi": 69,
            "name": "A4",
            "ticks": 3720,
            "time": 21.882342,
            "velocity": 0.8267716535433071
          },
          {
            "duration": 0.17058815000000038,
            "durationTicks": 29,
            "midi": 66,
            "name": "F#4",
            "ticks": 3750,
            "time": 22.058812500000002,
            "velocity": 0.8267716535433071
          },
          {
            "duration": 0.17058815000000038,
            "durationTicks": 29,
            "midi": 69,
            "name": "A4",
            "ticks": 3780,
            "time": 22.235283,
            "velocity": 0.8267716535433071
          },
          {
            "duration": 0.8823524999999997,
            "durationTicks": 150,
            "midi": 67,
            "name": "G4",
            "ticks": 3810,
            "time": 22.4117535,
            "velocity": 0.8267716535433071
          },
          {
            "duration": 0.17647050000000064,
            "durationTicks": 30,
            "midi": 69,
            "name": "A4",
            "ticks": 3960,
            "time": 23.294106,
            "velocity": 0.8267716535433071
          },
          {
            "duration": 0.17647050000000064,
            "durationTicks": 30,
            "midi": 70,
            "name": "A#4",
            "ticks": 3990,
            "time": 23.4705765,
            "velocity": 0.8267716535433071
          },
          {
            "duration": 0.17647050000000064,
            "durationTicks": 30,
            "midi": 77,
            "name": "F5",
            "ticks": 4020,
            "time": 23.647047,
            "velocity": 0.8267716535433071
          },
          {
            "duration": 0.17647050000000064,
            "durationTicks": 30,
            "midi": 81,
            "name": "A5",
            "ticks": 4020,
            "time": 23.647047,
            "velocity": 0.8267716535433071
          },
          {
            "duration": 0.17647050000000064,
            "durationTicks": 30,
            "midi": 74,
            "name": "D5",
            "ticks": 4020,
            "time": 23.647047,
            "velocity": 0.8267716535433071
          },
          {
            "duration": 0.8823524999999997,
            "durationTicks": 150,
            "midi": 72,
            "name": "C5",
            "ticks": 4050,
            "time": 23.8235175,
            "velocity": 0.8267716535433071
          },
          {
            "duration": 0.8823524999999997,
            "durationTicks": 150,
            "midi": 76,
            "name": "E5",
            "ticks": 4050,
            "time": 23.8235175,
            "velocity": 0.8267716535433071
          },
          {
            "duration": 0.8823524999999997,
            "durationTicks": 150,
            "midi": 79,
            "name": "G5",
            "ticks": 4050,
            "time": 23.8235175,
            "velocity": 0.8267716535433071
          },
          {
            "duration": 0.6999996499999988,
            "durationTicks": 119,
            "midi": 71,
            "name": "B4",
            "ticks": 4230,
            "time": 24.8823405,
            "velocity": 0.8267716535433071
          },
          {
            "duration": 0.6999996499999988,
            "durationTicks": 119,
            "midi": 74,
            "name": "D5",
            "ticks": 4230,
            "time": 24.8823405,
            "velocity": 0.8267716535433071
          },
          {
            "duration": 0.6999996499999988,
            "durationTicks": 119,
            "midi": 79,
            "name": "G5",
            "ticks": 4230,
            "time": 24.8823405,
            "velocity": 0.8267716535433071
          },
          {
            "duration": 0.6999996499999988,
            "durationTicks": 119,
            "midi": 83,
            "name": "B5",
            "ticks": 4230,
            "time": 24.8823405,
            "velocity": 0.8267716535433071
          },
          {
            "duration": 0.3529410000000013,
            "durationTicks": 60,
            "midi": 57,
            "name": "A3",
            "ticks": 12720,
            "time": 74.823492,
            "velocity": 0.8267716535433071
          },
          {
            "duration": 0.3529410000000013,
            "durationTicks": 60,
            "midi": 61,
            "name": "C#4",
            "ticks": 12720,
            "time": 74.823492,
            "velocity": 0.8267716535433071
          },
          {
            "duration": 0.3529410000000013,
            "durationTicks": 60,
            "midi": 66,
            "name": "F#4",
            "ticks": 12780,
            "time": 75.176433,
            "velocity": 0.8267716535433071
          },
          {
            "duration": 0.3529410000000013,
            "durationTicks": 60,
            "midi": 61,
            "name": "C#4",
            "ticks": 12780,
            "time": 75.176433,
            "velocity": 0.8267716535433071
          },
          {
            "duration": 0.3529410000000013,
            "durationTicks": 60,
            "midi": 69,
            "name": "A4",
            "ticks": 12840,
            "time": 75.529374,
            "velocity": 0.8267716535433071
          },
          {
            "duration": 0.3529410000000013,
            "durationTicks": 60,
            "midi": 66,
            "name": "F#4",
            "ticks": 12840,
            "time": 75.529374,
            "velocity": 0.8267716535433071
          },
          {
            "duration": 2.4705869999999948,
            "durationTicks": 420,
            "midi": 68,
            "name": "G#4",
            "ticks": 12900,
            "time": 75.882315,
            "velocity": 0.8267716535433071
          },
          {
            "duration": 2.4705869999999948,
            "durationTicks": 420,
            "midi": 71,
            "name": "B4",
            "ticks": 12900,
            "time": 75.882315,
            "velocity": 0.8267716535433071
          },
          {
            "duration": 1.7647050000000064,
            "durationTicks": 300,
            "midi": 75,
            "name": "D#5",
            "ticks": 13380,
            "time": 78.705843,
            "velocity": 0.8267716535433071
          },
          {
            "duration": 1.7647050000000064,
            "durationTicks": 300,
            "midi": 71,
            "name": "B4",
            "ticks": 13380,
            "time": 78.705843,
            "velocity": 0.8267716535433071
          },
          {
            "duration": 0.35294099999998707,
            "durationTicks": 60,
            "midi": 65,
            "name": "F4",
            "ticks": 13680,
            "time": 80.47054800000001,
            "velocity": 0.8267716535433071
          },
          {
            "duration": 0.35294099999998707,
            "durationTicks": 60,
            "midi": 74,
            "name": "D5",
            "ticks": 13680,
            "time": 80.47054800000001,
            "velocity": 0.8267716535433071
          },
          {
            "duration": 0.3529410000000013,
            "durationTicks": 60,
            "midi": 67,
            "name": "G4",
            "ticks": 13740,
            "time": 80.823489,
            "velocity": 0.8267716535433071
          },
          {
            "duration": 0.3529410000000013,
            "durationTicks": 60,
            "midi": 75,
            "name": "D#5",
            "ticks": 13740,
            "time": 80.823489,
            "velocity": 0.8267716535433071
          },
          {
            "duration": 0.3529410000000013,
            "durationTicks": 60,
            "midi": 68,
            "name": "G#4",
            "ticks": 13800,
            "time": 81.17643,
            "velocity": 0.8267716535433071
          },
          {
            "duration": 0.3529410000000013,
            "durationTicks": 60,
            "midi": 77,
            "name": "F5",
            "ticks": 13800,
            "time": 81.17643,
            "velocity": 0.8267716535433071
          },
          {
            "duration": 1.7647050000000064,
            "durationTicks": 300,
            "midi": 70,
            "name": "A#4",
            "ticks": 13860,
            "time": 81.529371,
            "velocity": 0.8267716535433071
          },
          {
            "duration": 1.7647050000000064,
            "durationTicks": 300,
            "midi": 79,
            "name": "G5",
            "ticks": 13860,
            "time": 81.529371,
            "velocity": 0.8267716535433071
          },
          {
            "duration": 0.3529410000000013,
            "durationTicks": 60,
            "midi": 79,
            "name": "G5",
            "ticks": 14160,
            "time": 83.294076,
            "velocity": 0.8267716535433071
          },
          {
            "duration": 0.3529410000000013,
            "durationTicks": 60,
            "midi": 75,
            "name": "D#5",
            "ticks": 14160,
            "time": 83.294076,
            "velocity": 0.8267716535433071
          },
          {
            "duration": 0.3529410000000013,
            "durationTicks": 60,
            "midi": 70,
            "name": "A#4",
            "ticks": 14160,
            "time": 83.294076,
            "velocity": 0.8267716535433071
          },
          {
            "duration": 0.3529410000000013,
            "durationTicks": 60,
            "midi": 80,
            "name": "G#5",
            "ticks": 14220,
            "time": 83.647017,
            "velocity": 0.8267716535433071
          },
          {
            "duration": 0.3529410000000013,
            "durationTicks": 60,
            "midi": 72,
            "name": "C5",
            "ticks": 14220,
            "time": 83.647017,
            "velocity": 0.8267716535433071
          },
          {
            "duration": 0.3529410000000013,
            "durationTicks": 60,
            "midi": 77,
            "name": "F5",
            "ticks": 14220,
            "time": 83.647017,
            "velocity": 0.8267716535433071
          },
          {
            "duration": 0.3529410000000013,
            "durationTicks": 60,
            "midi": 82,
            "name": "A#5",
            "ticks": 14280,
            "time": 83.999958,
            "velocity": 0.8267716535433071
          },
          {
            "duration": 0.3529410000000013,
            "durationTicks": 60,
            "midi": 79,
            "name": "G5",
            "ticks": 14280,
            "time": 83.999958,
            "velocity": 0.8267716535433071
          },
          {
            "duration": 0.3529410000000013,
            "durationTicks": 60,
            "midi": 74,
            "name": "D5",
            "ticks": 14280,
            "time": 83.999958,
            "velocity": 0.8267716535433071
          },
          {
            "duration": 1.7647049999999922,
            "durationTicks": 300,
            "midi": 80,
            "name": "G#5",
            "ticks": 14340,
            "time": 84.35289900000001,
            "velocity": 0.8267716535433071
          },
          {
            "duration": 1.7647049999999922,
            "durationTicks": 300,
            "midi": 83,
            "name": "B5",
            "ticks": 14340,
            "time": 84.35289900000001,
            "velocity": 0.8267716535433071
          },
          {
            "duration": 1.7647049999999922,
            "durationTicks": 300,
            "midi": 75,
            "name": "D#5",
            "ticks": 14340,
            "time": 84.35289900000001,
            "velocity": 0.8267716535433071
          },
          {
            "duration": 0.5294114999999948,
            "durationTicks": 90,
            "midi": 75,
            "name": "D#5",
            "ticks": 14640,
            "time": 86.117604,
            "velocity": 0.8267716535433071
          },
          {
            "duration": 0.5294114999999948,
            "durationTicks": 90,
            "midi": 77,
            "name": "F5",
            "ticks": 14640,
            "time": 86.117604,
            "velocity": 0.8267716535433071
          },
          {
            "duration": 0.5294114999999948,
            "durationTicks": 90,
            "midi": 82,
            "name": "A#5",
            "ticks": 14640,
            "time": 86.117604,
            "velocity": 0.8267716535433071
          },
          {
            "duration": 0.529411500000009,
            "durationTicks": 90,
            "midi": 71,
            "name": "B4",
            "ticks": 14730,
            "time": 86.6470155,
            "velocity": 0.8267716535433071
          },
          {
            "duration": 0.529411500000009,
            "durationTicks": 90,
            "midi": 75,
            "name": "D#5",
            "ticks": 14730,
            "time": 86.6470155,
            "velocity": 0.8267716535433071
          },
          {
            "duration": 0.529411500000009,
            "durationTicks": 90,
            "midi": 80,
            "name": "G#5",
            "ticks": 14730,
            "time": 86.6470155,
            "velocity": 0.8267716535433071
          },
          {
            "duration": 2.4705869999999948,
            "durationTicks": 420,
            "midi": 65,
            "name": "F4",
            "ticks": 14820,
            "time": 87.176427,
            "velocity": 0.8267716535433071
          },
          {
            "duration": 2.4705869999999948,
            "durationTicks": 420,
            "midi": 70,
            "name": "A#4",
            "ticks": 14820,
            "time": 87.176427,
            "velocity": 0.8267716535433071
          },
          {
            "duration": 2.4647046499999874,
            "durationTicks": 419,
            "midi": 73,
            "name": "C#5",
            "ticks": 14820,
            "time": 87.176427,
            "velocity": 0.8267716535433071
          },
          {
            "duration": 0.3529410000000013,
            "durationTicks": 60,
            "midi": 73,
            "name": "C#5",
            "ticks": 15360,
            "time": 90.352896,
            "velocity": 0.8267716535433071
          },
          {
            "duration": 0.3529410000000013,
            "durationTicks": 60,
            "midi": 69,
            "name": "A4",
            "ticks": 15360,
            "time": 90.352896,
            "velocity": 0.8267716535433071
          },
          {
            "duration": 0.3529410000000013,
            "durationTicks": 60,
            "midi": 75,
            "name": "D#5",
            "ticks": 15420,
            "time": 90.705837,
            "velocity": 0.8267716535433071
          },
          {
            "duration": 0.3529410000000013,
            "durationTicks": 60,
            "midi": 71,
            "name": "B4",
            "ticks": 15420,
            "time": 90.705837,
            "velocity": 0.8267716535433071
          },
          {
            "duration": 0.3529410000000013,
            "durationTicks": 60,
            "midi": 76,
            "name": "E5",
            "ticks": 15480,
            "time": 91.058778,
            "velocity": 0.8267716535433071
          },
          {
            "duration": 0.3529410000000013,
            "durationTicks": 60,
            "midi": 73,
            "name": "C#5",
            "ticks": 15480,
            "time": 91.058778,
            "velocity": 0.8267716535433071
          },
          {
            "duration": 0.17647049999999354,
            "durationTicks": 30,
            "midi": 78,
            "name": "F#5",
            "ticks": 15540,
            "time": 91.411719,
            "velocity": 0.8267716535433071
          },
          {
            "duration": 0.17647049999999354,
            "durationTicks": 30,
            "midi": 73,
            "name": "C#5",
            "ticks": 15540,
            "time": 91.411719,
            "velocity": 0.8267716535433071
          },
          {
            "duration": 1.5882344999999987,
            "durationTicks": 270,
            "midi": 75,
            "name": "D#5",
            "ticks": 15570,
            "time": 91.5881895,
            "velocity": 0.8267716535433071
          },
          {
            "duration": 1.5882344999999987,
            "durationTicks": 270,
            "midi": 79,
            "name": "G5",
            "ticks": 15570,
            "time": 91.5881895,
            "velocity": 0.8267716535433071
          },
          {
            "duration": 1.5882344999999987,
            "durationTicks": 270,
            "midi": 69,
            "name": "A4",
            "ticks": 15570,
            "time": 91.5881895,
            "velocity": 0.8267716535433071
          },
          {
            "duration": 0.3529410000000155,
            "durationTicks": 60,
            "midi": 57,
            "name": "A3",
            "ticks": 39600,
            "time": 232.94106,
            "velocity": 0.8267716535433071
          },
          {
            "duration": 0.3529410000000155,
            "durationTicks": 60,
            "midi": 61,
            "name": "C#4",
            "ticks": 39600,
            "time": 232.94106,
            "velocity": 0.8267716535433071
          },
          {
            "duration": 0.35294099999998707,
            "durationTicks": 60,
            "midi": 66,
            "name": "F#4",
            "ticks": 39660,
            "time": 233.294001,
            "velocity": 0.8267716535433071
          },
          {
            "duration": 0.35294099999998707,
            "durationTicks": 60,
            "midi": 61,
            "name": "C#4",
            "ticks": 39660,
            "time": 233.294001,
            "velocity": 0.8267716535433071
          },
          {
            "duration": 0.3529410000000155,
            "durationTicks": 60,
            "midi": 69,
            "name": "A4",
            "ticks": 39720,
            "time": 233.646942,
            "velocity": 0.8267716535433071
          },
          {
            "duration": 0.3529410000000155,
            "durationTicks": 60,
            "midi": 66,
            "name": "F#4",
            "ticks": 39720,
            "time": 233.646942,
            "velocity": 0.8267716535433071
          },
          {
            "duration": 2.4705869999999948,
            "durationTicks": 420,
            "midi": 68,
            "name": "G#4",
            "ticks": 39780,
            "time": 233.999883,
            "velocity": 0.8267716535433071
          },
          {
            "duration": 2.4705869999999948,
            "durationTicks": 420,
            "midi": 71,
            "name": "B4",
            "ticks": 39780,
            "time": 233.999883,
            "velocity": 0.8267716535433071
          },
          {
            "duration": 1.7647050000000206,
            "durationTicks": 300,
            "midi": 75,
            "name": "D#5",
            "ticks": 40260,
            "time": 236.823411,
            "velocity": 0.8267716535433071
          },
          {
            "duration": 1.7647050000000206,
            "durationTicks": 300,
            "midi": 71,
            "name": "B4",
            "ticks": 40260,
            "time": 236.823411,
            "velocity": 0.8267716535433071
          },
          {
            "duration": 0.35294099999998707,
            "durationTicks": 60,
            "midi": 65,
            "name": "F4",
            "ticks": 40560,
            "time": 238.588116,
            "velocity": 0.8267716535433071
          },
          {
            "duration": 0.35294099999998707,
            "durationTicks": 60,
            "midi": 74,
            "name": "D5",
            "ticks": 40560,
            "time": 238.588116,
            "velocity": 0.8267716535433071
          },
          {
            "duration": 0.3529410000000155,
            "durationTicks": 60,
            "midi": 67,
            "name": "G4",
            "ticks": 40620,
            "time": 238.941057,
            "velocity": 0.8267716535433071
          },
          {
            "duration": 0.3529410000000155,
            "durationTicks": 60,
            "midi": 75,
            "name": "D#5",
            "ticks": 40620,
            "time": 238.941057,
            "velocity": 0.8267716535433071
          },
          {
            "duration": 0.35294099999998707,
            "durationTicks": 60,
            "midi": 68,
            "name": "G#4",
            "ticks": 40680,
            "time": 239.29399800000002,
            "velocity": 0.8267716535433071
          },
          {
            "duration": 0.35294099999998707,
            "durationTicks": 60,
            "midi": 77,
            "name": "F5",
            "ticks": 40680,
            "time": 239.29399800000002,
            "velocity": 0.8267716535433071
          },
          {
            "duration": 1.7647049999999922,
            "durationTicks": 300,
            "midi": 70,
            "name": "A#4",
            "ticks": 40740,
            "time": 239.646939,
            "velocity": 0.8267716535433071
          },
          {
            "duration": 1.7647049999999922,
            "durationTicks": 300,
            "midi": 79,
            "name": "G5",
            "ticks": 40740,
            "time": 239.646939,
            "velocity": 0.8267716535433071
          },
          {
            "duration": 0.3529410000000155,
            "durationTicks": 60,
            "midi": 79,
            "name": "G5",
            "ticks": 41040,
            "time": 241.411644,
            "velocity": 0.8267716535433071
          },
          {
            "duration": 0.3529410000000155,
            "durationTicks": 60,
            "midi": 75,
            "name": "D#5",
            "ticks": 41040,
            "time": 241.411644,
            "velocity": 0.8267716535433071
          },
          {
            "duration": 0.3529410000000155,
            "durationTicks": 60,
            "midi": 70,
            "name": "A#4",
            "ticks": 41040,
            "time": 241.411644,
            "velocity": 0.8267716535433071
          },
          {
            "duration": 0.35294099999998707,
            "durationTicks": 60,
            "midi": 80,
            "name": "G#5",
            "ticks": 41100,
            "time": 241.764585,
            "velocity": 0.8267716535433071
          },
          {
            "duration": 0.35294099999998707,
            "durationTicks": 60,
            "midi": 72,
            "name": "C5",
            "ticks": 41100,
            "time": 241.764585,
            "velocity": 0.8267716535433071
          },
          {
            "duration": 0.35294099999998707,
            "durationTicks": 60,
            "midi": 77,
            "name": "F5",
            "ticks": 41100,
            "time": 241.764585,
            "velocity": 0.8267716535433071
          },
          {
            "duration": 0.3529410000000155,
            "durationTicks": 60,
            "midi": 82,
            "name": "A#5",
            "ticks": 41160,
            "time": 242.117526,
            "velocity": 0.8267716535433071
          },
          {
            "duration": 0.3529410000000155,
            "durationTicks": 60,
            "midi": 79,
            "name": "G5",
            "ticks": 41160,
            "time": 242.117526,
            "velocity": 0.8267716535433071
          },
          {
            "duration": 0.3529410000000155,
            "durationTicks": 60,
            "midi": 74,
            "name": "D5",
            "ticks": 41160,
            "time": 242.117526,
            "velocity": 0.8267716535433071
          },
          {
            "duration": 1.7647049999999922,
            "durationTicks": 300,
            "midi": 80,
            "name": "G#5",
            "ticks": 41220,
            "time": 242.470467,
            "velocity": 0.8267716535433071
          },
          {
            "duration": 1.7647049999999922,
            "durationTicks": 300,
            "midi": 83,
            "name": "B5",
            "ticks": 41220,
            "time": 242.470467,
            "velocity": 0.8267716535433071
          },
          {
            "duration": 1.7647049999999922,
            "durationTicks": 300,
            "midi": 75,
            "name": "D#5",
            "ticks": 41220,
            "time": 242.470467,
            "velocity": 0.8267716535433071
          },
          {
            "duration": 0.529411500000009,
            "durationTicks": 90,
            "midi": 75,
            "name": "D#5",
            "ticks": 41520,
            "time": 244.235172,
            "velocity": 0.8267716535433071
          },
          {
            "duration": 0.529411500000009,
            "durationTicks": 90,
            "midi": 77,
            "name": "F5",
            "ticks": 41520,
            "time": 244.235172,
            "velocity": 0.8267716535433071
          },
          {
            "duration": 0.529411500000009,
            "durationTicks": 90,
            "midi": 82,
            "name": "A#5",
            "ticks": 41520,
            "time": 244.235172,
            "velocity": 0.8267716535433071
          },
          {
            "duration": 0.5294114999999806,
            "durationTicks": 90,
            "midi": 71,
            "name": "B4",
            "ticks": 41610,
            "time": 244.76458350000001,
            "velocity": 0.8267716535433071
          },
          {
            "duration": 0.5294114999999806,
            "durationTicks": 90,
            "midi": 75,
            "name": "D#5",
            "ticks": 41610,
            "time": 244.76458350000001,
            "velocity": 0.8267716535433071
          },
          {
            "duration": 0.5294114999999806,
            "durationTicks": 90,
            "midi": 80,
            "name": "G#5",
            "ticks": 41610,
            "time": 244.76458350000001,
            "velocity": 0.8267716535433071
          },
          {
            "duration": 2.4705869999999948,
            "durationTicks": 420,
            "midi": 73,
            "name": "C#5",
            "ticks": 41700,
            "time": 245.293995,
            "velocity": 0.8267716535433071
          },
          {
            "duration": 2.4705869999999948,
            "durationTicks": 420,
            "midi": 65,
            "name": "F4",
            "ticks": 41700,
            "time": 245.293995,
            "velocity": 0.8267716535433071
          },
          {
            "duration": 2.4705869999999948,
            "durationTicks": 420,
            "midi": 70,
            "name": "A#4",
            "ticks": 41700,
            "time": 245.293995,
            "velocity": 0.8267716535433071
          },
          {
            "duration": 0.3529410000000155,
            "durationTicks": 60,
            "midi": 73,
            "name": "C#5",
            "ticks": 42240,
            "time": 248.470464,
            "velocity": 0.8267716535433071
          },
          {
            "duration": 0.3529410000000155,
            "durationTicks": 60,
            "midi": 69,
            "name": "A4",
            "ticks": 42240,
            "time": 248.470464,
            "velocity": 0.8267716535433071
          },
          {
            "duration": 0.35294099999998707,
            "durationTicks": 60,
            "midi": 75,
            "name": "D#5",
            "ticks": 42300,
            "time": 248.823405,
            "velocity": 0.8267716535433071
          },
          {
            "duration": 0.35294099999998707,
            "durationTicks": 60,
            "midi": 71,
            "name": "B4",
            "ticks": 42300,
            "time": 248.823405,
            "velocity": 0.8267716535433071
          },
          {
            "duration": 0.3529410000000155,
            "durationTicks": 60,
            "midi": 76,
            "name": "E5",
            "ticks": 42360,
            "time": 249.176346,
            "velocity": 0.8267716535433071
          },
          {
            "duration": 0.3529410000000155,
            "durationTicks": 60,
            "midi": 73,
            "name": "C#5",
            "ticks": 42360,
            "time": 249.176346,
            "velocity": 0.8267716535433071
          },
          {
            "duration": 0.17647049999999354,
            "durationTicks": 30,
            "midi": 78,
            "name": "F#5",
            "ticks": 42420,
            "time": 249.529287,
            "velocity": 0.8267716535433071
          },
          {
            "duration": 0.17647049999999354,
            "durationTicks": 30,
            "midi": 73,
            "name": "C#5",
            "ticks": 42420,
            "time": 249.529287,
            "velocity": 0.8267716535433071
          },
          {
            "duration": 1.5882344999999987,
            "durationTicks": 270,
            "midi": 75,
            "name": "D#5",
            "ticks": 42450,
            "time": 249.7057575,
            "velocity": 0.8267716535433071
          },
          {
            "duration": 1.5882344999999987,
            "durationTicks": 270,
            "midi": 79,
            "name": "G5",
            "ticks": 42450,
            "time": 249.7057575,
            "velocity": 0.8267716535433071
          },
          {
            "duration": 1.5882344999999987,
            "durationTicks": 270,
            "midi": 69,
            "name": "A4",
            "ticks": 42450,
            "time": 249.7057575,
            "velocity": 0.8267716535433071
          }
        ]
      },
      {
        "channel": 0,
        "controlChanges": {
          "0": [
            {
              "number": 0,
              "ticks": 0,
              "time": 0,
              "value": 0
            }
          ],
          "32": [
            {
              "number": 32,
              "ticks": 0,
              "time": 0,
              "value": 0
            }
          ]
        },
        "pitchBends": [],
        "instrument": {
          "family": "piano",
          "number": 0,
          "name": "acoustic grand piano"
        },
        "name": "Synth Brass",
        "notes": [],
        "endOfTrackTicks": 59329
      },
      {
        "channel": 3,
        "controlChanges": {
          "7": [
            {
              "number": 7,
              "ticks": 0,
              "time": 0,
              "value": 0.8267716535433071
            }
          ],
          "10": [
            {
              "number": 10,
              "ticks": 0,
              "time": 0,
              "value": 0.5039370078740157
            }
          ],
          "91": [
            {
              "number": 91,
              "ticks": 40,
              "time": 0.235294,
              "value": 0.31496062992125984
            }
          ],
          "93": [
            {
              "number": 93,
              "ticks": 50,
              "time": 0.29411750000000003,
              "value": 0.07874015748031496
            }
          ],
          "121": [
            {
              "number": 121,
              "ticks": 5,
              "time": 0.02941175,
              "value": 0
            }
          ]
        },
        "pitchBends": [],
        "instrument": {
          "family": "brass",
          "number": 62,
          "name": "synthbrass 1"
        },
        "name": "",
        "notes": [
          {
            "duration": 0.7058820000000026,
            "durationTicks": 120,
            "midi": 83,
            "name": "B5",
            "ticks": 15840,
            "time": 93.176424,
            "velocity": 0.7874015748031497
          },
          {
            "duration": 0.7058820000000026,
            "durationTicks": 120,
            "midi": 80,
            "name": "G#5",
            "ticks": 15840,
            "time": 93.176424,
            "velocity": 0.7874015748031497
          },
          {
            "duration": 0.7058820000000026,
            "durationTicks": 120,
            "midi": 71,
            "name": "B4",
            "ticks": 15840,
            "time": 93.176424,
            "velocity": 0.7874015748031497
          },
          {
            "duration": 0.7058820000000026,
            "durationTicks": 120,
            "midi": 75,
            "name": "D#5",
            "ticks": 15840,
            "time": 93.176424,
            "velocity": 0.7874015748031497
          },
          {
            "duration": 0.17647049999999354,
            "durationTicks": 30,
            "midi": 80,
            "name": "G#5",
            "ticks": 16080,
            "time": 94.588188,
            "velocity": 0.7874015748031497
          },
          {
            "duration": 0.17647049999999354,
            "durationTicks": 30,
            "midi": 75,
            "name": "D#5",
            "ticks": 16080,
            "time": 94.588188,
            "velocity": 0.7874015748031497
          },
          {
            "duration": 0.17647049999999354,
            "durationTicks": 30,
            "midi": 71,
            "name": "B4",
            "ticks": 16080,
            "time": 94.588188,
            "velocity": 0.7874015748031497
          },
          {
            "duration": 0.3529410000000013,
            "durationTicks": 60,
            "midi": 80,
            "name": "G#5",
            "ticks": 16110,
            "time": 94.7646585,
            "velocity": 0.7874015748031497
          },
          {
            "duration": 0.3529410000000013,
            "durationTicks": 60,
            "midi": 71,
            "name": "B4",
            "ticks": 16110,
            "time": 94.7646585,
            "velocity": 0.7874015748031497
          },
          {
            "duration": 0.3529410000000013,
            "durationTicks": 60,
            "midi": 75,
            "name": "D#5",
            "ticks": 16110,
            "time": 94.7646585,
            "velocity": 0.7874015748031497
          },
          {
            "duration": 0.17647050000000775,
            "durationTicks": 30,
            "midi": 81,
            "name": "A5",
            "ticks": 16170,
            "time": 95.1175995,
            "velocity": 0.7874015748031497
          },
          {
            "duration": 0.17647050000000775,
            "durationTicks": 30,
            "midi": 75,
            "name": "D#5",
            "ticks": 16170,
            "time": 95.1175995,
            "velocity": 0.7874015748031497
          },
          {
            "duration": 0.17647050000000775,
            "durationTicks": 30,
            "midi": 71,
            "name": "B4",
            "ticks": 16170,
            "time": 95.1175995,
            "velocity": 0.7874015748031497
          },
          {
            "duration": 0.17647050000000775,
            "durationTicks": 30,
            "midi": 83,
            "name": "B5",
            "ticks": 16230,
            "time": 95.4705405,
            "velocity": 0.7874015748031497
          },
          {
            "duration": 0.17647050000000775,
            "durationTicks": 30,
            "midi": 80,
            "name": "G#5",
            "ticks": 16230,
            "time": 95.4705405,
            "velocity": 0.7874015748031497
          },
          {
            "duration": 0.17647050000000775,
            "durationTicks": 30,
            "midi": 75,
            "name": "D#5",
            "ticks": 16230,
            "time": 95.4705405,
            "velocity": 0.7874015748031497
          },
          {
            "duration": 1.0588230000000038,
            "durationTicks": 180,
            "midi": 67,
            "name": "G4",
            "ticks": 16290,
            "time": 95.8234815,
            "velocity": 0.7874015748031497
          },
          {
            "duration": 1.0588230000000038,
            "durationTicks": 180,
            "midi": 72,
            "name": "C5",
            "ticks": 16290,
            "time": 95.8234815,
            "velocity": 0.7874015748031497
          },
          {
            "duration": 1.0588230000000038,
            "durationTicks": 180,
            "midi": 76,
            "name": "E5",
            "ticks": 16290,
            "time": 95.8234815,
            "velocity": 0.7874015748031497
          },
          {
            "duration": 0.3529410000000013,
            "durationTicks": 60,
            "midi": 76,
            "name": "E5",
            "ticks": 16470,
            "time": 96.8823045,
            "velocity": 0.7874015748031497
          },
          {
            "duration": 0.3529410000000013,
            "durationTicks": 60,
            "midi": 72,
            "name": "C5",
            "ticks": 16470,
            "time": 96.8823045,
            "velocity": 0.7874015748031497
          },
          {
            "duration": 0.3529410000000013,
            "durationTicks": 60,
            "midi": 83,
            "name": "B5",
            "ticks": 16470,
            "time": 96.8823045,
            "velocity": 0.7874015748031497
          },
          {
            "duration": 0.8823524999999961,
            "durationTicks": 150,
            "midi": 72,
            "name": "C5",
            "ticks": 16530,
            "time": 97.2352455,
            "velocity": 0.7874015748031497
          },
          {
            "duration": 0.8823524999999961,
            "durationTicks": 150,
            "midi": 76,
            "name": "E5",
            "ticks": 16530,
            "time": 97.2352455,
            "velocity": 0.7874015748031497
          },
          {
            "duration": 0.8823524999999961,
            "durationTicks": 150,
            "midi": 78,
            "name": "F#5",
            "ticks": 16530,
            "time": 97.2352455,
            "velocity": 0.7874015748031497
          },
          {
            "duration": 0.8823524999999961,
            "durationTicks": 150,
            "midi": 81,
            "name": "A5",
            "ticks": 16530,
            "time": 97.2352455,
            "velocity": 0.7874015748031497
          },
          {
            "duration": 0.17647050000000775,
            "durationTicks": 30,
            "midi": 76,
            "name": "E5",
            "ticks": 16710,
            "time": 98.2940685,
            "velocity": 0.7874015748031497
          },
          {
            "duration": 0.17647050000000775,
            "durationTicks": 30,
            "midi": 69,
            "name": "A4",
            "ticks": 16710,
            "time": 98.2940685,
            "velocity": 0.7874015748031497
          },
          {
            "duration": 0.17647050000000775,
            "durationTicks": 30,
            "midi": 66,
            "name": "F#4",
            "ticks": 16710,
            "time": 98.2940685,
            "velocity": 0.7874015748031497
          },
          {
            "duration": 0.17647050000000775,
            "durationTicks": 30,
            "midi": 69,
            "name": "A4",
            "ticks": 16770,
            "time": 98.6470095,
            "velocity": 0.7874015748031497
          },
          {
            "duration": 0.17647050000000775,
            "durationTicks": 30,
            "midi": 74,
            "name": "D5",
            "ticks": 16770,
            "time": 98.6470095,
            "velocity": 0.7874015748031497
          },
          {
            "duration": 0.17647050000000775,
            "durationTicks": 30,
            "midi": 78,
            "name": "F#5",
            "ticks": 16770,
            "time": 98.6470095,
            "velocity": 0.7874015748031497
          },
          {
            "duration": 0.7058820000000026,
            "durationTicks": 120,
            "midi": 80,
            "name": "G#5",
            "ticks": 16800,
            "time": 98.82348,
            "velocity": 0.7874015748031497
          },
          {
            "duration": 0.7058820000000026,
            "durationTicks": 120,
            "midi": 76,
            "name": "E5",
            "ticks": 16800,
            "time": 98.82348,
            "velocity": 0.7874015748031497
          },
          {
            "duration": 0.7058820000000026,
            "durationTicks": 120,
            "midi": 71,
            "name": "B4",
            "ticks": 16800,
            "time": 98.82348,
            "velocity": 0.7874015748031497
          },
          {
            "duration": 0.7058820000000026,
            "durationTicks": 120,
            "midi": 68,
            "name": "G#4",
            "ticks": 16800,
            "time": 98.82348,
            "velocity": 0.7874015748031497
          },
          {
            "duration": 0.17647050000000775,
            "durationTicks": 30,
            "midi": 76,
            "name": "E5",
            "ticks": 17040,
            "time": 100.235244,
            "velocity": 0.7874015748031497
          },
          {
            "duration": 0.17647050000000775,
            "durationTicks": 30,
            "midi": 71,
            "name": "B4",
            "ticks": 17040,
            "time": 100.235244,
            "velocity": 0.7874015748031497
          },
          {
            "duration": 0.17647050000000775,
            "durationTicks": 30,
            "midi": 68,
            "name": "G#4",
            "ticks": 17040,
            "time": 100.235244,
            "velocity": 0.7874015748031497
          },
          {
            "duration": 0.3529410000000013,
            "durationTicks": 60,
            "midi": 76,
            "name": "E5",
            "ticks": 17070,
            "time": 100.4117145,
            "velocity": 0.7874015748031497
          },
          {
            "duration": 0.3529410000000013,
            "durationTicks": 60,
            "midi": 71,
            "name": "B4",
            "ticks": 17070,
            "time": 100.4117145,
            "velocity": 0.7874015748031497
          },
          {
            "duration": 0.3529410000000013,
            "durationTicks": 60,
            "midi": 68,
            "name": "G#4",
            "ticks": 17070,
            "time": 100.4117145,
            "velocity": 0.7874015748031497
          },
          {
            "duration": 0.17647049999999354,
            "durationTicks": 30,
            "midi": 78,
            "name": "F#5",
            "ticks": 17130,
            "time": 100.7646555,
            "velocity": 0.7874015748031497
          },
          {
            "duration": 0.17647049999999354,
            "durationTicks": 30,
            "midi": 71,
            "name": "B4",
            "ticks": 17130,
            "time": 100.7646555,
            "velocity": 0.7874015748031497
          },
          {
            "duration": 0.17647049999999354,
            "durationTicks": 30,
            "midi": 68,
            "name": "G#4",
            "ticks": 17130,
            "time": 100.7646555,
            "velocity": 0.7874015748031497
          },
          {
            "duration": 0.17647049999999354,
            "durationTicks": 30,
            "midi": 80,
            "name": "G#5",
            "ticks": 17190,
            "time": 101.1175965,
            "velocity": 0.7874015748031497
          },
          {
            "duration": 0.17647049999999354,
            "durationTicks": 30,
            "midi": 76,
            "name": "E5",
            "ticks": 17190,
            "time": 101.1175965,
            "velocity": 0.7874015748031497
          },
          {
            "duration": 0.17647049999999354,
            "durationTicks": 30,
            "midi": 71,
            "name": "B4",
            "ticks": 17190,
            "time": 101.1175965,
            "velocity": 0.7874015748031497
          },
          {
            "duration": 1.0588229999999896,
            "durationTicks": 180,
            "midi": 62,
            "name": "D4",
            "ticks": 17250,
            "time": 101.4705375,
            "velocity": 0.7874015748031497
          },
          {
            "duration": 1.0588229999999896,
            "durationTicks": 180,
            "midi": 66,
            "name": "F#4",
            "ticks": 17250,
            "time": 101.4705375,
            "velocity": 0.7874015748031497
          },
          {
            "duration": 1.0588229999999896,
            "durationTicks": 180,
            "midi": 71,
            "name": "B4",
            "ticks": 17250,
            "time": 101.4705375,
            "velocity": 0.7874015748031497
          },
          {
            "duration": 0.3529410000000013,
            "durationTicks": 60,
            "midi": 78,
            "name": "F#5",
            "ticks": 17430,
            "time": 102.5293605,
            "velocity": 0.7874015748031497
          },
          {
            "duration": 0.3529410000000013,
            "durationTicks": 60,
            "midi": 71,
            "name": "B4",
            "ticks": 17430,
            "time": 102.5293605,
            "velocity": 0.7874015748031497
          },
          {
            "duration": 0.3529410000000013,
            "durationTicks": 60,
            "midi": 74,
            "name": "D5",
            "ticks": 17430,
            "time": 102.5293605,
            "velocity": 0.7874015748031497
          },
          {
            "duration": 1.0588230000000038,
            "durationTicks": 180,
            "midi": 72,
            "name": "C5",
            "ticks": 17490,
            "time": 102.8823015,
            "velocity": 0.7874015748031497
          },
          {
            "duration": 1.0588230000000038,
            "durationTicks": 180,
            "midi": 64,
            "name": "E4",
            "ticks": 17490,
            "time": 102.8823015,
            "velocity": 0.7874015748031497
          },
          {
            "duration": 1.0588230000000038,
            "durationTicks": 180,
            "midi": 68,
            "name": "G#4",
            "ticks": 17490,
            "time": 102.8823015,
            "velocity": 0.7874015748031497
          },
          {
            "duration": 0.3529410000000013,
            "durationTicks": 60,
            "midi": 72,
            "name": "C5",
            "ticks": 17670,
            "time": 103.9411245,
            "velocity": 0.7874015748031497
          },
          {
            "duration": 0.3529410000000013,
            "durationTicks": 60,
            "midi": 76,
            "name": "E5",
            "ticks": 17670,
            "time": 103.9411245,
            "velocity": 0.7874015748031497
          },
          {
            "duration": 0.3529410000000013,
            "durationTicks": 60,
            "midi": 68,
            "name": "G#4",
            "ticks": 17670,
            "time": 103.9411245,
            "velocity": 0.7874015748031497
          },
          {
            "duration": 1.5882344999999987,
            "durationTicks": 270,
            "midi": 73,
            "name": "C#5",
            "ticks": 17730,
            "time": 104.2940655,
            "velocity": 0.7874015748031497
          },
          {
            "duration": 1.5882344999999987,
            "durationTicks": 270,
            "midi": 69,
            "name": "A4",
            "ticks": 17730,
            "time": 104.2940655,
            "velocity": 0.7874015748031497
          },
          {
            "duration": 1.5882344999999987,
            "durationTicks": 270,
            "midi": 64,
            "name": "E4",
            "ticks": 17730,
            "time": 104.2940655,
            "velocity": 0.7874015748031497
          },
          {
            "duration": 0.3529410000000013,
            "durationTicks": 60,
            "midi": 73,
            "name": "C#5",
            "ticks": 18000,
            "time": 105.8823,
            "velocity": 0.7874015748031497
          },
          {
            "duration": 0.17647049999999354,
            "durationTicks": 30,
            "midi": 76,
            "name": "E5",
            "ticks": 18060,
            "time": 106.235241,
            "velocity": 0.7874015748031497
          },
          {
            "duration": 0.17647050000000775,
            "durationTicks": 30,
            "midi": 80,
            "name": "G#5",
            "ticks": 18090,
            "time": 106.4117115,
            "velocity": 0.7874015748031497
          },
          {
            "duration": 0.17647050000000775,
            "durationTicks": 30,
            "midi": 88,
            "name": "E6",
            "ticks": 18150,
            "time": 106.7646525,
            "velocity": 0.7874015748031497
          },
          {
            "duration": 2.2941165000000012,
            "durationTicks": 390,
            "midi": 72,
            "name": "C5",
            "ticks": 18210,
            "time": 107.1175935,
            "velocity": 0.7874015748031497
          },
          {
            "duration": 2.2941165000000012,
            "durationTicks": 390,
            "midi": 76,
            "name": "E5",
            "ticks": 18210,
            "time": 107.1175935,
            "velocity": 0.7874015748031497
          },
          {
            "duration": 2.2941165000000012,
            "durationTicks": 390,
            "midi": 80,
            "name": "G#5",
            "ticks": 18210,
            "time": 107.1175935,
            "velocity": 0.7874015748031497
          },
          {
            "duration": 2.2941165000000012,
            "durationTicks": 390,
            "midi": 84,
            "name": "C6",
            "ticks": 18210,
            "time": 107.1175935,
            "velocity": 0.7874015748031497
          },
          {
            "duration": 0.3529410000000013,
            "durationTicks": 60,
            "midi": 76,
            "name": "E5",
            "ticks": 18600,
            "time": 109.41171,
            "velocity": 0.7874015748031497
          },
          {
            "duration": 0.3529410000000013,
            "durationTicks": 60,
            "midi": 78,
            "name": "F#5",
            "ticks": 18660,
            "time": 109.764651,
            "velocity": 0.7874015748031497
          },
          {
            "duration": 0.3529410000000013,
            "durationTicks": 60,
            "midi": 71,
            "name": "B4",
            "ticks": 18720,
            "time": 110.117592,
            "velocity": 0.7874015748031497
          },
          {
            "duration": 0.3529410000000013,
            "durationTicks": 60,
            "midi": 76,
            "name": "E5",
            "ticks": 18720,
            "time": 110.117592,
            "velocity": 0.7874015748031497
          },
          {
            "duration": 0.3529410000000013,
            "durationTicks": 60,
            "midi": 80,
            "name": "G#5",
            "ticks": 18720,
            "time": 110.117592,
            "velocity": 0.7874015748031497
          },
          {
            "duration": 0.17647049999999354,
            "durationTicks": 30,
            "midi": 80,
            "name": "G#5",
            "ticks": 18780,
            "time": 110.470533,
            "velocity": 0.7874015748031497
          },
          {
            "duration": 0.17647049999999354,
            "durationTicks": 30,
            "midi": 76,
            "name": "E5",
            "ticks": 18780,
            "time": 110.470533,
            "velocity": 0.7874015748031497
          },
          {
            "duration": 0.17647049999999354,
            "durationTicks": 30,
            "midi": 71,
            "name": "B4",
            "ticks": 18780,
            "time": 110.470533,
            "velocity": 0.7874015748031497
          },
          {
            "duration": 0.17647050000000775,
            "durationTicks": 30,
            "midi": 80,
            "name": "G#5",
            "ticks": 18810,
            "time": 110.6470035,
            "velocity": 0.7874015748031497
          },
          {
            "duration": 0.17647050000000775,
            "durationTicks": 30,
            "midi": 76,
            "name": "E5",
            "ticks": 18810,
            "time": 110.6470035,
            "velocity": 0.7874015748031497
          },
          {
            "duration": 0.17647050000000775,
            "durationTicks": 30,
            "midi": 71,
            "name": "B4",
            "ticks": 18810,
            "time": 110.6470035,
            "velocity": 0.7874015748031497
          },
          {
            "duration": 0.17647050000000775,
            "durationTicks": 30,
            "midi": 76,
            "name": "E5",
            "ticks": 18870,
            "time": 110.9999445,
            "velocity": 0.7874015748031497
          },
          {
            "duration": 0.17647050000000775,
            "durationTicks": 30,
            "midi": 78,
            "name": "F#5",
            "ticks": 18930,
            "time": 111.3528855,
            "velocity": 0.7874015748031497
          },
          {
            "duration": 0.3529410000000013,
            "durationTicks": 60,
            "midi": 71,
            "name": "B4",
            "ticks": 18960,
            "time": 111.529356,
            "velocity": 0.7874015748031497
          },
          {
            "duration": 0.3529410000000013,
            "durationTicks": 60,
            "midi": 76,
            "name": "E5",
            "ticks": 18960,
            "time": 111.529356,
            "velocity": 0.7874015748031497
          },
          {
            "duration": 0.3529410000000013,
            "durationTicks": 60,
            "midi": 80,
            "name": "G#5",
            "ticks": 18960,
            "time": 111.529356,
            "velocity": 0.7874015748031497
          },
          {
            "duration": 0.17647049999999354,
            "durationTicks": 30,
            "midi": 71,
            "name": "B4",
            "ticks": 19020,
            "time": 111.88229700000001,
            "velocity": 0.7874015748031497
          },
          {
            "duration": 0.17647049999999354,
            "durationTicks": 30,
            "midi": 76,
            "name": "E5",
            "ticks": 19020,
            "time": 111.88229700000001,
            "velocity": 0.7874015748031497
          },
          {
            "duration": 0.17647049999999354,
            "durationTicks": 30,
            "midi": 80,
            "name": "G#5",
            "ticks": 19020,
            "time": 111.88229700000001,
            "velocity": 0.7874015748031497
          },
          {
            "duration": 0.17647049999999354,
            "durationTicks": 30,
            "midi": 76,
            "name": "E5",
            "ticks": 19050,
            "time": 112.0587675,
            "velocity": 0.7874015748031497
          },
          {
            "duration": 0.17647049999999354,
            "durationTicks": 30,
            "midi": 71,
            "name": "B4",
            "ticks": 19050,
            "time": 112.0587675,
            "velocity": 0.7874015748031497
          },
          {
            "duration": 0.17647049999999354,
            "durationTicks": 30,
            "midi": 80,
            "name": "G#5",
            "ticks": 19050,
            "time": 112.0587675,
            "velocity": 0.7874015748031497
          },
          {
            "duration": 0.17647049999999354,
            "durationTicks": 30,
            "midi": 76,
            "name": "E5",
            "ticks": 19110,
            "time": 112.4117085,
            "velocity": 0.7874015748031497
          },
          {
            "duration": 0.17647049999999354,
            "durationTicks": 30,
            "midi": 78,
            "name": "F#5",
            "ticks": 19170,
            "time": 112.7646495,
            "velocity": 0.7874015748031497
          },
          {
            "duration": 0.3529410000000013,
            "durationTicks": 60,
            "midi": 73,
            "name": "C#5",
            "ticks": 19200,
            "time": 112.94112,
            "velocity": 0.7874015748031497
          },
          {
            "duration": 0.3529410000000013,
            "durationTicks": 60,
            "midi": 76,
            "name": "E5",
            "ticks": 19200,
            "time": 112.94112,
            "velocity": 0.7874015748031497
          },
          {
            "duration": 0.3529410000000013,
            "durationTicks": 60,
            "midi": 80,
            "name": "G#5",
            "ticks": 19200,
            "time": 112.94112,
            "velocity": 0.7874015748031497
          },
          {
            "duration": 0.17647050000000775,
            "durationTicks": 30,
            "midi": 73,
            "name": "C#5",
            "ticks": 19260,
            "time": 113.294061,
            "velocity": 0.7874015748031497
          },
          {
            "duration": 0.17647050000000775,
            "durationTicks": 30,
            "midi": 76,
            "name": "E5",
            "ticks": 19260,
            "time": 113.294061,
            "velocity": 0.7874015748031497
          },
          {
            "duration": 0.17647050000000775,
            "durationTicks": 30,
            "midi": 80,
            "name": "G#5",
            "ticks": 19260,
            "time": 113.294061,
            "velocity": 0.7874015748031497
          },
          {
            "duration": 0.17647049999999354,
            "durationTicks": 30,
            "midi": 73,
            "name": "C#5",
            "ticks": 19290,
            "time": 113.4705315,
            "velocity": 0.7874015748031497
          },
          {
            "duration": 0.17647049999999354,
            "durationTicks": 30,
            "midi": 76,
            "name": "E5",
            "ticks": 19290,
            "time": 113.4705315,
            "velocity": 0.7874015748031497
          },
          {
            "duration": 0.17647049999999354,
            "durationTicks": 30,
            "midi": 80,
            "name": "G#5",
            "ticks": 19290,
            "time": 113.4705315,
            "velocity": 0.7874015748031497
          },
          {
            "duration": 0.17647049999999354,
            "durationTicks": 30,
            "midi": 81,
            "name": "A5",
            "ticks": 19350,
            "time": 113.82347250000001,
            "velocity": 0.7874015748031497
          },
          {
            "duration": 0.17647049999999354,
            "durationTicks": 30,
            "midi": 76,
            "name": "E5",
            "ticks": 19350,
            "time": 113.82347250000001,
            "velocity": 0.7874015748031497
          },
          {
            "duration": 0.17647049999999354,
            "durationTicks": 30,
            "midi": 73,
            "name": "C#5",
            "ticks": 19350,
            "time": 113.82347250000001,
            "velocity": 0.7874015748031497
          },
          {
            "duration": 0.8823525000000103,
            "durationTicks": 150,
            "midi": 73,
            "name": "C#5",
            "ticks": 19410,
            "time": 114.1764135,
            "velocity": 0.7874015748031497
          },
          {
            "duration": 0.8823525000000103,
            "durationTicks": 150,
            "midi": 76,
            "name": "E5",
            "ticks": 19410,
            "time": 114.1764135,
            "velocity": 0.7874015748031497
          },
          {
            "duration": 0.8823525000000103,
            "durationTicks": 150,
            "midi": 83,
            "name": "B5",
            "ticks": 19410,
            "time": 114.1764135,
            "velocity": 0.7874015748031497
          },
          {
            "duration": 0.7058820000000026,
            "durationTicks": 120,
            "midi": 84,
            "name": "C6",
            "ticks": 19560,
            "time": 115.058766,
            "velocity": 0.7874015748031497
          },
          {
            "duration": 0.7058820000000026,
            "durationTicks": 120,
            "midi": 84,
            "name": "C6",
            "ticks": 19560,
            "time": 115.058766,
            "velocity": 0.7874015748031497
          },
          {
            "duration": 0.7058820000000026,
            "durationTicks": 120,
            "midi": 81,
            "name": "A5",
            "ticks": 19560,
            "time": 115.058766,
            "velocity": 0.7874015748031497
          },
          {
            "duration": 0.7058820000000026,
            "durationTicks": 120,
            "midi": 79,
            "name": "G5",
            "ticks": 19560,
            "time": 115.058766,
            "velocity": 0.7874015748031497
          },
          {
            "duration": 0.7058820000000026,
            "durationTicks": 120,
            "midi": 75,
            "name": "D#5",
            "ticks": 19560,
            "time": 115.058766,
            "velocity": 0.7874015748031497
          },
          {
            "duration": 0.7058819999999884,
            "durationTicks": 120,
            "midi": 71,
            "name": "B4",
            "ticks": 19680,
            "time": 115.76464800000001,
            "velocity": 0.7874015748031497
          },
          {
            "duration": 0.7058819999999884,
            "durationTicks": 120,
            "midi": 75,
            "name": "D#5",
            "ticks": 19680,
            "time": 115.76464800000001,
            "velocity": 0.7874015748031497
          },
          {
            "duration": 0.7058819999999884,
            "durationTicks": 120,
            "midi": 80,
            "name": "G#5",
            "ticks": 19680,
            "time": 115.76464800000001,
            "velocity": 0.7874015748031497
          },
          {
            "duration": 0.7058819999999884,
            "durationTicks": 120,
            "midi": 83,
            "name": "B5",
            "ticks": 19680,
            "time": 115.76464800000001,
            "velocity": 0.7874015748031497
          },
          {
            "duration": 0.17647050000000775,
            "durationTicks": 30,
            "midi": 80,
            "name": "G#5",
            "ticks": 19920,
            "time": 117.176412,
            "velocity": 0.7874015748031497
          },
          {
            "duration": 0.17647050000000775,
            "durationTicks": 30,
            "midi": 75,
            "name": "D#5",
            "ticks": 19920,
            "time": 117.176412,
            "velocity": 0.7874015748031497
          },
          {
            "duration": 0.17647050000000775,
            "durationTicks": 30,
            "midi": 71,
            "name": "B4",
            "ticks": 19920,
            "time": 117.176412,
            "velocity": 0.7874015748031497
          },
          {
            "duration": 0.3529410000000013,
            "durationTicks": 60,
            "midi": 80,
            "name": "G#5",
            "ticks": 19950,
            "time": 117.3528825,
            "velocity": 0.7874015748031497
          },
          {
            "duration": 0.3529410000000013,
            "durationTicks": 60,
            "midi": 71,
            "name": "B4",
            "ticks": 19950,
            "time": 117.3528825,
            "velocity": 0.7874015748031497
          },
          {
            "duration": 0.3529410000000013,
            "durationTicks": 60,
            "midi": 75,
            "name": "D#5",
            "ticks": 19950,
            "time": 117.3528825,
            "velocity": 0.7874015748031497
          },
          {
            "duration": 0.17647049999999354,
            "durationTicks": 30,
            "midi": 81,
            "name": "A5",
            "ticks": 20010,
            "time": 117.70582350000001,
            "velocity": 0.7874015748031497
          },
          {
            "duration": 0.17647049999999354,
            "durationTicks": 30,
            "midi": 75,
            "name": "D#5",
            "ticks": 20010,
            "time": 117.70582350000001,
            "velocity": 0.7874015748031497
          },
          {
            "duration": 0.17647049999999354,
            "durationTicks": 30,
            "midi": 71,
            "name": "B4",
            "ticks": 20010,
            "time": 117.70582350000001,
            "velocity": 0.7874015748031497
          },
          {
            "duration": 0.17647050000000775,
            "durationTicks": 30,
            "midi": 83,
            "name": "B5",
            "ticks": 20070,
            "time": 118.0587645,
            "velocity": 0.7874015748031497
          },
          {
            "duration": 0.17647050000000775,
            "durationTicks": 30,
            "midi": 80,
            "name": "G#5",
            "ticks": 20070,
            "time": 118.0587645,
            "velocity": 0.7874015748031497
          },
          {
            "duration": 0.17647050000000775,
            "durationTicks": 30,
            "midi": 75,
            "name": "D#5",
            "ticks": 20070,
            "time": 118.0587645,
            "velocity": 0.7874015748031497
          },
          {
            "duration": 1.0588230000000038,
            "durationTicks": 180,
            "midi": 67,
            "name": "G4",
            "ticks": 20130,
            "time": 118.4117055,
            "velocity": 0.7874015748031497
          },
          {
            "duration": 1.0588230000000038,
            "durationTicks": 180,
            "midi": 72,
            "name": "C5",
            "ticks": 20130,
            "time": 118.4117055,
            "velocity": 0.7874015748031497
          },
          {
            "duration": 1.0588230000000038,
            "durationTicks": 180,
            "midi": 76,
            "name": "E5",
            "ticks": 20130,
            "time": 118.4117055,
            "velocity": 0.7874015748031497
          },
          {
            "duration": 0.3529410000000013,
            "durationTicks": 60,
            "midi": 76,
            "name": "E5",
            "ticks": 20310,
            "time": 119.4705285,
            "velocity": 0.7874015748031497
          },
          {
            "duration": 0.3529410000000013,
            "durationTicks": 60,
            "midi": 72,
            "name": "C5",
            "ticks": 20310,
            "time": 119.4705285,
            "velocity": 0.7874015748031497
          },
          {
            "duration": 0.3529410000000013,
            "durationTicks": 60,
            "midi": 83,
            "name": "B5",
            "ticks": 20310,
            "time": 119.4705285,
            "velocity": 0.7874015748031497
          },
          {
            "duration": 0.8823524999999961,
            "durationTicks": 150,
            "midi": 72,
            "name": "C5",
            "ticks": 20370,
            "time": 119.8234695,
            "velocity": 0.7874015748031497
          },
          {
            "duration": 0.8823524999999961,
            "durationTicks": 150,
            "midi": 76,
            "name": "E5",
            "ticks": 20370,
            "time": 119.8234695,
            "velocity": 0.7874015748031497
          },
          {
            "duration": 0.8823524999999961,
            "durationTicks": 150,
            "midi": 78,
            "name": "F#5",
            "ticks": 20370,
            "time": 119.8234695,
            "velocity": 0.7874015748031497
          },
          {
            "duration": 0.8823524999999961,
            "durationTicks": 150,
            "midi": 81,
            "name": "A5",
            "ticks": 20370,
            "time": 119.8234695,
            "velocity": 0.7874015748031497
          },
          {
            "duration": 0.17647049999999354,
            "durationTicks": 30,
            "midi": 76,
            "name": "E5",
            "ticks": 20550,
            "time": 120.8822925,
            "velocity": 0.7874015748031497
          },
          {
            "duration": 0.17647049999999354,
            "durationTicks": 30,
            "midi": 69,
            "name": "A4",
            "ticks": 20550,
            "time": 120.8822925,
            "velocity": 0.7874015748031497
          },
          {
            "duration": 0.17647049999999354,
            "durationTicks": 30,
            "midi": 66,
            "name": "F#4",
            "ticks": 20550,
            "time": 120.8822925,
            "velocity": 0.7874015748031497
          },
          {
            "duration": 0.17647049999999354,
            "durationTicks": 30,
            "midi": 69,
            "name": "A4",
            "ticks": 20610,
            "time": 121.2352335,
            "velocity": 0.7874015748031497
          },
          {
            "duration": 0.17647049999999354,
            "durationTicks": 30,
            "midi": 74,
            "name": "D5",
            "ticks": 20610,
            "time": 121.2352335,
            "velocity": 0.7874015748031497
          },
          {
            "duration": 0.17647049999999354,
            "durationTicks": 30,
            "midi": 78,
            "name": "F#5",
            "ticks": 20610,
            "time": 121.2352335,
            "velocity": 0.7874015748031497
          },
          {
            "duration": 0.7058820000000026,
            "durationTicks": 120,
            "midi": 80,
            "name": "G#5",
            "ticks": 20640,
            "time": 121.411704,
            "velocity": 0.7874015748031497
          },
          {
            "duration": 0.7058820000000026,
            "durationTicks": 120,
            "midi": 76,
            "name": "E5",
            "ticks": 20640,
            "time": 121.411704,
            "velocity": 0.7874015748031497
          },
          {
            "duration": 0.7058820000000026,
            "durationTicks": 120,
            "midi": 71,
            "name": "B4",
            "ticks": 20640,
            "time": 121.411704,
            "velocity": 0.7874015748031497
          },
          {
            "duration": 0.7058820000000026,
            "durationTicks": 120,
            "midi": 68,
            "name": "G#4",
            "ticks": 20640,
            "time": 121.411704,
            "velocity": 0.7874015748031497
          },
          {
            "duration": 0.17647049999999354,
            "durationTicks": 30,
            "midi": 76,
            "name": "E5",
            "ticks": 20880,
            "time": 122.823468,
            "velocity": 0.7874015748031497
          },
          {
            "duration": 0.17647049999999354,
            "durationTicks": 30,
            "midi": 71,
            "name": "B4",
            "ticks": 20880,
            "time": 122.823468,
            "velocity": 0.7874015748031497
          },
          {
            "duration": 0.17647049999999354,
            "durationTicks": 30,
            "midi": 68,
            "name": "G#4",
            "ticks": 20880,
            "time": 122.823468,
            "velocity": 0.7874015748031497
          },
          {
            "duration": 0.3529410000000013,
            "durationTicks": 60,
            "midi": 76,
            "name": "E5",
            "ticks": 20910,
            "time": 122.9999385,
            "velocity": 0.7874015748031497
          },
          {
            "duration": 0.3529410000000013,
            "durationTicks": 60,
            "midi": 71,
            "name": "B4",
            "ticks": 20910,
            "time": 122.9999385,
            "velocity": 0.7874015748031497
          },
          {
            "duration": 0.3529410000000013,
            "durationTicks": 60,
            "midi": 68,
            "name": "G#4",
            "ticks": 20910,
            "time": 122.9999385,
            "velocity": 0.7874015748031497
          },
          {
            "duration": 0.17647050000000775,
            "durationTicks": 30,
            "midi": 78,
            "name": "F#5",
            "ticks": 20970,
            "time": 123.3528795,
            "velocity": 0.7874015748031497
          },
          {
            "duration": 0.17647050000000775,
            "durationTicks": 30,
            "midi": 71,
            "name": "B4",
            "ticks": 20970,
            "time": 123.3528795,
            "velocity": 0.7874015748031497
          },
          {
            "duration": 0.17647050000000775,
            "durationTicks": 30,
            "midi": 68,
            "name": "G#4",
            "ticks": 20970,
            "time": 123.3528795,
            "velocity": 0.7874015748031497
          },
          {
            "duration": 0.17647049999999354,
            "durationTicks": 30,
            "midi": 80,
            "name": "G#5",
            "ticks": 21030,
            "time": 123.7058205,
            "velocity": 0.7874015748031497
          },
          {
            "duration": 0.17647049999999354,
            "durationTicks": 30,
            "midi": 76,
            "name": "E5",
            "ticks": 21030,
            "time": 123.7058205,
            "velocity": 0.7874015748031497
          },
          {
            "duration": 0.17647049999999354,
            "durationTicks": 30,
            "midi": 71,
            "name": "B4",
            "ticks": 21030,
            "time": 123.7058205,
            "velocity": 0.7874015748031497
          },
          {
            "duration": 1.0588230000000038,
            "durationTicks": 180,
            "midi": 62,
            "name": "D4",
            "ticks": 21090,
            "time": 124.0587615,
            "velocity": 0.7874015748031497
          },
          {
            "duration": 1.0588230000000038,
            "durationTicks": 180,
            "midi": 66,
            "name": "F#4",
            "ticks": 21090,
            "time": 124.0587615,
            "velocity": 0.7874015748031497
          },
          {
            "duration": 1.0588230000000038,
            "durationTicks": 180,
            "midi": 71,
            "name": "B4",
            "ticks": 21090,
            "time": 124.0587615,
            "velocity": 0.7874015748031497
          },
          {
            "duration": 0.3529410000000013,
            "durationTicks": 60,
            "midi": 78,
            "name": "F#5",
            "ticks": 21270,
            "time": 125.1175845,
            "velocity": 0.7874015748031497
          },
          {
            "duration": 0.3529410000000013,
            "durationTicks": 60,
            "midi": 71,
            "name": "B4",
            "ticks": 21270,
            "time": 125.1175845,
            "velocity": 0.7874015748031497
          },
          {
            "duration": 0.3529410000000013,
            "durationTicks": 60,
            "midi": 74,
            "name": "D5",
            "ticks": 21270,
            "time": 125.1175845,
            "velocity": 0.7874015748031497
          },
          {
            "duration": 1.0588229999999896,
            "durationTicks": 180,
            "midi": 72,
            "name": "C5",
            "ticks": 21330,
            "time": 125.47052550000001,
            "velocity": 0.7874015748031497
          },
          {
            "duration": 1.0588229999999896,
            "durationTicks": 180,
            "midi": 64,
            "name": "E4",
            "ticks": 21330,
            "time": 125.47052550000001,
            "velocity": 0.7874015748031497
          },
          {
            "duration": 1.0588229999999896,
            "durationTicks": 180,
            "midi": 68,
            "name": "G#4",
            "ticks": 21330,
            "time": 125.47052550000001,
            "velocity": 0.7874015748031497
          },
          {
            "duration": 0.3529410000000013,
            "durationTicks": 60,
            "midi": 72,
            "name": "C5",
            "ticks": 21510,
            "time": 126.5293485,
            "velocity": 0.7874015748031497
          },
          {
            "duration": 0.3529410000000013,
            "durationTicks": 60,
            "midi": 76,
            "name": "E5",
            "ticks": 21510,
            "time": 126.5293485,
            "velocity": 0.7874015748031497
          },
          {
            "duration": 0.3529410000000013,
            "durationTicks": 60,
            "midi": 68,
            "name": "G#4",
            "ticks": 21510,
            "time": 126.5293485,
            "velocity": 0.7874015748031497
          },
          {
            "duration": 1.5882345000000129,
            "durationTicks": 270,
            "midi": 73,
            "name": "C#5",
            "ticks": 21570,
            "time": 126.8822895,
            "velocity": 0.7874015748031497
          },
          {
            "duration": 1.5882345000000129,
            "durationTicks": 270,
            "midi": 69,
            "name": "A4",
            "ticks": 21570,
            "time": 126.8822895,
            "velocity": 0.7874015748031497
          },
          {
            "duration": 1.5882345000000129,
            "durationTicks": 270,
            "midi": 64,
            "name": "E4",
            "ticks": 21570,
            "time": 126.8822895,
            "velocity": 0.7874015748031497
          },
          {
            "duration": 0.35294099999998707,
            "durationTicks": 60,
            "midi": 73,
            "name": "C#5",
            "ticks": 21840,
            "time": 128.470524,
            "velocity": 0.7874015748031497
          },
          {
            "duration": 0.17647049999999354,
            "durationTicks": 30,
            "midi": 76,
            "name": "E5",
            "ticks": 21900,
            "time": 128.823465,
            "velocity": 0.7874015748031497
          },
          {
            "duration": 0.17647050000002196,
            "durationTicks": 30,
            "midi": 80,
            "name": "G#5",
            "ticks": 21930,
            "time": 128.9999355,
            "velocity": 0.7874015748031497
          },
          {
            "duration": 0.17647049999999354,
            "durationTicks": 30,
            "midi": 88,
            "name": "E6",
            "ticks": 21990,
            "time": 129.3528765,
            "velocity": 0.7874015748031497
          },
          {
            "duration": 2.2941165000000012,
            "durationTicks": 390,
            "midi": 72,
            "name": "C5",
            "ticks": 22050,
            "time": 129.7058175,
            "velocity": 0.7874015748031497
          },
          {
            "duration": 2.2941165000000012,
            "durationTicks": 390,
            "midi": 76,
            "name": "E5",
            "ticks": 22050,
            "time": 129.7058175,
            "velocity": 0.7874015748031497
          },
          {
            "duration": 2.2941165000000012,
            "durationTicks": 390,
            "midi": 80,
            "name": "G#5",
            "ticks": 22050,
            "time": 129.7058175,
            "velocity": 0.7874015748031497
          },
          {
            "duration": 2.2941165000000012,
            "durationTicks": 390,
            "midi": 84,
            "name": "C6",
            "ticks": 22050,
            "time": 129.7058175,
            "velocity": 0.7874015748031497
          },
          {
            "duration": 0.3529410000000155,
            "durationTicks": 60,
            "midi": 76,
            "name": "E5",
            "ticks": 22440,
            "time": 131.999934,
            "velocity": 0.7874015748031497
          },
          {
            "duration": 0.35294099999998707,
            "durationTicks": 60,
            "midi": 78,
            "name": "F#5",
            "ticks": 22500,
            "time": 132.352875,
            "velocity": 0.7874015748031497
          },
          {
            "duration": 0.3529410000000155,
            "durationTicks": 60,
            "midi": 71,
            "name": "B4",
            "ticks": 22560,
            "time": 132.705816,
            "velocity": 0.7874015748031497
          },
          {
            "duration": 0.3529410000000155,
            "durationTicks": 60,
            "midi": 76,
            "name": "E5",
            "ticks": 22560,
            "time": 132.705816,
            "velocity": 0.7874015748031497
          },
          {
            "duration": 0.17647049999999354,
            "durationTicks": 30,
            "midi": 80,
            "name": "G#5",
            "ticks": 22620,
            "time": 133.058757,
            "velocity": 0.7874015748031497
          },
          {
            "duration": 0.17647049999999354,
            "durationTicks": 30,
            "midi": 76,
            "name": "E5",
            "ticks": 22620,
            "time": 133.058757,
            "velocity": 0.7874015748031497
          },
          {
            "duration": 0.17647049999999354,
            "durationTicks": 30,
            "midi": 71,
            "name": "B4",
            "ticks": 22620,
            "time": 133.058757,
            "velocity": 0.7874015748031497
          },
          {
            "duration": 0.17647049999999354,
            "durationTicks": 30,
            "midi": 80,
            "name": "G#5",
            "ticks": 22650,
            "time": 133.2352275,
            "velocity": 0.7874015748031497
          },
          {
            "duration": 0.17647049999999354,
            "durationTicks": 30,
            "midi": 76,
            "name": "E5",
            "ticks": 22650,
            "time": 133.2352275,
            "velocity": 0.7874015748031497
          },
          {
            "duration": 0.17647049999999354,
            "durationTicks": 30,
            "midi": 71,
            "name": "B4",
            "ticks": 22650,
            "time": 133.2352275,
            "velocity": 0.7874015748031497
          },
          {
            "duration": 0.17647049999999354,
            "durationTicks": 30,
            "midi": 76,
            "name": "E5",
            "ticks": 22710,
            "time": 133.5881685,
            "velocity": 0.7874015748031497
          },
          {
            "duration": 0.17647049999999354,
            "durationTicks": 30,
            "midi": 78,
            "name": "F#5",
            "ticks": 22770,
            "time": 133.9411095,
            "velocity": 0.7874015748031497
          },
          {
            "duration": 0.35294099999998707,
            "durationTicks": 60,
            "midi": 76,
            "name": "E5",
            "ticks": 22800,
            "time": 134.11758,
            "velocity": 0.7874015748031497
          },
          {
            "duration": 0.35294099999998707,
            "durationTicks": 60,
            "midi": 71,
            "name": "B4",
            "ticks": 22800,
            "time": 134.11758,
            "velocity": 0.7874015748031497
          },
          {
            "duration": 0.35294099999998707,
            "durationTicks": 60,
            "midi": 80,
            "name": "G#5",
            "ticks": 22800,
            "time": 134.11758,
            "velocity": 0.7874015748031497
          },
          {
            "duration": 0.17647050000002196,
            "durationTicks": 30,
            "midi": 71,
            "name": "B4",
            "ticks": 22860,
            "time": 134.470521,
            "velocity": 0.7874015748031497
          },
          {
            "duration": 0.17647050000002196,
            "durationTicks": 30,
            "midi": 76,
            "name": "E5",
            "ticks": 22860,
            "time": 134.470521,
            "velocity": 0.7874015748031497
          },
          {
            "duration": 0.17647050000002196,
            "durationTicks": 30,
            "midi": 80,
            "name": "G#5",
            "ticks": 22860,
            "time": 134.470521,
            "velocity": 0.7874015748031497
          },
          {
            "duration": 0.17647049999999354,
            "durationTicks": 30,
            "midi": 76,
            "name": "E5",
            "ticks": 22890,
            "time": 134.6469915,
            "velocity": 0.7874015748031497
          },
          {
            "duration": 0.17647049999999354,
            "durationTicks": 30,
            "midi": 71,
            "name": "B4",
            "ticks": 22890,
            "time": 134.6469915,
            "velocity": 0.7874015748031497
          },
          {
            "duration": 0.17647049999999354,
            "durationTicks": 30,
            "midi": 80,
            "name": "G#5",
            "ticks": 22890,
            "time": 134.6469915,
            "velocity": 0.7874015748031497
          },
          {
            "duration": 0.17647049999999354,
            "durationTicks": 30,
            "midi": 76,
            "name": "E5",
            "ticks": 22950,
            "time": 134.9999325,
            "velocity": 0.7874015748031497
          },
          {
            "duration": 0.17647049999999354,
            "durationTicks": 30,
            "midi": 78,
            "name": "F#5",
            "ticks": 23010,
            "time": 135.35287350000002,
            "velocity": 0.7874015748031497
          },
          {
            "duration": 0.35294099999998707,
            "durationTicks": 60,
            "midi": 73,
            "name": "C#5",
            "ticks": 23040,
            "time": 135.529344,
            "velocity": 0.7874015748031497
          },
          {
            "duration": 0.35294099999998707,
            "durationTicks": 60,
            "midi": 76,
            "name": "E5",
            "ticks": 23040,
            "time": 135.529344,
            "velocity": 0.7874015748031497
          },
          {
            "duration": 0.35294099999998707,
            "durationTicks": 60,
            "midi": 80,
            "name": "G#5",
            "ticks": 23040,
            "time": 135.529344,
            "velocity": 0.7874015748031497
          },
          {
            "duration": 0.17647049999999354,
            "durationTicks": 30,
            "midi": 73,
            "name": "C#5",
            "ticks": 23100,
            "time": 135.882285,
            "velocity": 0.7874015748031497
          },
          {
            "duration": 0.17647049999999354,
            "durationTicks": 30,
            "midi": 76,
            "name": "E5",
            "ticks": 23100,
            "time": 135.882285,
            "velocity": 0.7874015748031497
          },
          {
            "duration": 0.17647049999999354,
            "durationTicks": 30,
            "midi": 80,
            "name": "G#5",
            "ticks": 23100,
            "time": 135.882285,
            "velocity": 0.7874015748031497
          },
          {
            "duration": 0.17647050000002196,
            "durationTicks": 30,
            "midi": 73,
            "name": "C#5",
            "ticks": 23130,
            "time": 136.0587555,
            "velocity": 0.7874015748031497
          },
          {
            "duration": 0.17647050000002196,
            "durationTicks": 30,
            "midi": 76,
            "name": "E5",
            "ticks": 23130,
            "time": 136.0587555,
            "velocity": 0.7874015748031497
          },
          {
            "duration": 0.17647050000002196,
            "durationTicks": 30,
            "midi": 80,
            "name": "G#5",
            "ticks": 23130,
            "time": 136.0587555,
            "velocity": 0.7874015748031497
          },
          {
            "duration": 0.17647049999999354,
            "durationTicks": 30,
            "midi": 81,
            "name": "A5",
            "ticks": 23190,
            "time": 136.4116965,
            "velocity": 0.7874015748031497
          },
          {
            "duration": 0.17647049999999354,
            "durationTicks": 30,
            "midi": 76,
            "name": "E5",
            "ticks": 23190,
            "time": 136.4116965,
            "velocity": 0.7874015748031497
          },
          {
            "duration": 0.17647049999999354,
            "durationTicks": 30,
            "midi": 73,
            "name": "C#5",
            "ticks": 23190,
            "time": 136.4116965,
            "velocity": 0.7874015748031497
          },
          {
            "duration": 0.8823524999999961,
            "durationTicks": 150,
            "midi": 73,
            "name": "C#5",
            "ticks": 23250,
            "time": 136.7646375,
            "velocity": 0.7874015748031497
          },
          {
            "duration": 0.8823524999999961,
            "durationTicks": 150,
            "midi": 76,
            "name": "E5",
            "ticks": 23250,
            "time": 136.7646375,
            "velocity": 0.7874015748031497
          },
          {
            "duration": 0.8823524999999961,
            "durationTicks": 150,
            "midi": 83,
            "name": "B5",
            "ticks": 23250,
            "time": 136.7646375,
            "velocity": 0.7874015748031497
          },
          {
            "duration": 0.7058820000000026,
            "durationTicks": 120,
            "midi": 79,
            "name": "G5",
            "ticks": 23400,
            "time": 137.64699,
            "velocity": 0.7874015748031497
          },
          {
            "duration": 0.7058820000000026,
            "durationTicks": 120,
            "midi": 81,
            "name": "A5",
            "ticks": 23400,
            "time": 137.64699,
            "velocity": 0.7874015748031497
          },
          {
            "duration": 0.7058820000000026,
            "durationTicks": 120,
            "midi": 75,
            "name": "D#5",
            "ticks": 23400,
            "time": 137.64699,
            "velocity": 0.7874015748031497
          },
          {
            "duration": 0.7058820000000026,
            "durationTicks": 120,
            "midi": 84,
            "name": "C6",
            "ticks": 23400,
            "time": 137.64699,
            "velocity": 0.7874015748031497
          },
          {
            "duration": 0.7058820000000026,
            "durationTicks": 120,
            "midi": 83,
            "name": "B5",
            "ticks": 23520,
            "time": 138.352872,
            "velocity": 0.7874015748031497
          },
          {
            "duration": 0.7058820000000026,
            "durationTicks": 120,
            "midi": 80,
            "name": "G#5",
            "ticks": 23520,
            "time": 138.352872,
            "velocity": 0.7874015748031497
          },
          {
            "duration": 0.7058820000000026,
            "durationTicks": 120,
            "midi": 76,
            "name": "E5",
            "ticks": 23520,
            "time": 138.352872,
            "velocity": 0.7874015748031497
          },
          {
            "duration": 0.7058820000000026,
            "durationTicks": 120,
            "midi": 73,
            "name": "C#5",
            "ticks": 23520,
            "time": 138.352872,
            "velocity": 0.7874015748031497
          },
          {
            "duration": 0.7058820000000026,
            "durationTicks": 120,
            "midi": 83,
            "name": "B5",
            "ticks": 42720,
            "time": 251.293992,
            "velocity": 0.7874015748031497
          },
          {
            "duration": 0.7058820000000026,
            "durationTicks": 120,
            "midi": 80,
            "name": "G#5",
            "ticks": 42720,
            "time": 251.293992,
            "velocity": 0.7874015748031497
          },
          {
            "duration": 0.7058820000000026,
            "durationTicks": 120,
            "midi": 71,
            "name": "B4",
            "ticks": 42720,
            "time": 251.293992,
            "velocity": 0.7874015748031497
          },
          {
            "duration": 0.7058820000000026,
            "durationTicks": 120,
            "midi": 75,
            "name": "D#5",
            "ticks": 42720,
            "time": 251.293992,
            "velocity": 0.7874015748031497
          },
          {
            "duration": 0.17647049999999354,
            "durationTicks": 30,
            "midi": 80,
            "name": "G#5",
            "ticks": 42960,
            "time": 252.705756,
            "velocity": 0.7874015748031497
          },
          {
            "duration": 0.17647049999999354,
            "durationTicks": 30,
            "midi": 75,
            "name": "D#5",
            "ticks": 42960,
            "time": 252.705756,
            "velocity": 0.7874015748031497
          },
          {
            "duration": 0.17647049999999354,
            "durationTicks": 30,
            "midi": 71,
            "name": "B4",
            "ticks": 42960,
            "time": 252.705756,
            "velocity": 0.7874015748031497
          },
          {
            "duration": 0.3529410000000155,
            "durationTicks": 60,
            "midi": 80,
            "name": "G#5",
            "ticks": 42990,
            "time": 252.8822265,
            "velocity": 0.7874015748031497
          },
          {
            "duration": 0.3529410000000155,
            "durationTicks": 60,
            "midi": 71,
            "name": "B4",
            "ticks": 42990,
            "time": 252.8822265,
            "velocity": 0.7874015748031497
          },
          {
            "duration": 0.3529410000000155,
            "durationTicks": 60,
            "midi": 75,
            "name": "D#5",
            "ticks": 42990,
            "time": 252.8822265,
            "velocity": 0.7874015748031497
          },
          {
            "duration": 0.17647049999999354,
            "durationTicks": 30,
            "midi": 81,
            "name": "A5",
            "ticks": 43050,
            "time": 253.23516750000002,
            "velocity": 0.7874015748031497
          },
          {
            "duration": 0.17647049999999354,
            "durationTicks": 30,
            "midi": 75,
            "name": "D#5",
            "ticks": 43050,
            "time": 253.23516750000002,
            "velocity": 0.7874015748031497
          },
          {
            "duration": 0.17647049999999354,
            "durationTicks": 30,
            "midi": 71,
            "name": "B4",
            "ticks": 43050,
            "time": 253.23516750000002,
            "velocity": 0.7874015748031497
          },
          {
            "duration": 0.17647049999999354,
            "durationTicks": 30,
            "midi": 83,
            "name": "B5",
            "ticks": 43110,
            "time": 253.5881085,
            "velocity": 0.7874015748031497
          },
          {
            "duration": 0.17647049999999354,
            "durationTicks": 30,
            "midi": 80,
            "name": "G#5",
            "ticks": 43110,
            "time": 253.5881085,
            "velocity": 0.7874015748031497
          },
          {
            "duration": 0.17647049999999354,
            "durationTicks": 30,
            "midi": 75,
            "name": "D#5",
            "ticks": 43110,
            "time": 253.5881085,
            "velocity": 0.7874015748031497
          },
          {
            "duration": 1.058823000000018,
            "durationTicks": 180,
            "midi": 67,
            "name": "G4",
            "ticks": 43170,
            "time": 253.9410495,
            "velocity": 0.7874015748031497
          },
          {
            "duration": 1.058823000000018,
            "durationTicks": 180,
            "midi": 72,
            "name": "C5",
            "ticks": 43170,
            "time": 253.9410495,
            "velocity": 0.7874015748031497
          },
          {
            "duration": 1.058823000000018,
            "durationTicks": 180,
            "midi": 76,
            "name": "E5",
            "ticks": 43170,
            "time": 253.9410495,
            "velocity": 0.7874015748031497
          },
          {
            "duration": 0.35294099999998707,
            "durationTicks": 60,
            "midi": 76,
            "name": "E5",
            "ticks": 43350,
            "time": 254.9998725,
            "velocity": 0.7874015748031497
          },
          {
            "duration": 0.35294099999998707,
            "durationTicks": 60,
            "midi": 72,
            "name": "C5",
            "ticks": 43350,
            "time": 254.9998725,
            "velocity": 0.7874015748031497
          },
          {
            "duration": 0.35294099999998707,
            "durationTicks": 60,
            "midi": 83,
            "name": "B5",
            "ticks": 43350,
            "time": 254.9998725,
            "velocity": 0.7874015748031497
          },
          {
            "duration": 0.8823524999999961,
            "durationTicks": 150,
            "midi": 72,
            "name": "C5",
            "ticks": 43410,
            "time": 255.3528135,
            "velocity": 0.7874015748031497
          },
          {
            "duration": 0.8823524999999961,
            "durationTicks": 150,
            "midi": 76,
            "name": "E5",
            "ticks": 43410,
            "time": 255.3528135,
            "velocity": 0.7874015748031497
          },
          {
            "duration": 0.8823524999999961,
            "durationTicks": 150,
            "midi": 78,
            "name": "F#5",
            "ticks": 43410,
            "time": 255.3528135,
            "velocity": 0.7874015748031497
          },
          {
            "duration": 0.8823524999999961,
            "durationTicks": 150,
            "midi": 81,
            "name": "A5",
            "ticks": 43410,
            "time": 255.3528135,
            "velocity": 0.7874015748031497
          },
          {
            "duration": 0.17647049999999354,
            "durationTicks": 30,
            "midi": 76,
            "name": "E5",
            "ticks": 43590,
            "time": 256.4116365,
            "velocity": 0.7874015748031497
          },
          {
            "duration": 0.17647049999999354,
            "durationTicks": 30,
            "midi": 69,
            "name": "A4",
            "ticks": 43590,
            "time": 256.4116365,
            "velocity": 0.7874015748031497
          },
          {
            "duration": 0.17647049999999354,
            "durationTicks": 30,
            "midi": 66,
            "name": "F#4",
            "ticks": 43590,
            "time": 256.4116365,
            "velocity": 0.7874015748031497
          },
          {
            "duration": 0.17647049999999354,
            "durationTicks": 30,
            "midi": 69,
            "name": "A4",
            "ticks": 43650,
            "time": 256.76457750000003,
            "velocity": 0.7874015748031497
          },
          {
            "duration": 0.17647049999999354,
            "durationTicks": 30,
            "midi": 74,
            "name": "D5",
            "ticks": 43650,
            "time": 256.76457750000003,
            "velocity": 0.7874015748031497
          },
          {
            "duration": 0.17647049999999354,
            "durationTicks": 30,
            "midi": 78,
            "name": "F#5",
            "ticks": 43650,
            "time": 256.76457750000003,
            "velocity": 0.7874015748031497
          },
          {
            "duration": 0.7058819999999741,
            "durationTicks": 120,
            "midi": 80,
            "name": "G#5",
            "ticks": 43680,
            "time": 256.941048,
            "velocity": 0.7874015748031497
          },
          {
            "duration": 0.7058819999999741,
            "durationTicks": 120,
            "midi": 76,
            "name": "E5",
            "ticks": 43680,
            "time": 256.941048,
            "velocity": 0.7874015748031497
          },
          {
            "duration": 0.7058819999999741,
            "durationTicks": 120,
            "midi": 71,
            "name": "B4",
            "ticks": 43680,
            "time": 256.941048,
            "velocity": 0.7874015748031497
          },
          {
            "duration": 0.7058819999999741,
            "durationTicks": 120,
            "midi": 68,
            "name": "G#4",
            "ticks": 43680,
            "time": 256.941048,
            "velocity": 0.7874015748031497
          },
          {
            "duration": 0.17647049999999354,
            "durationTicks": 30,
            "midi": 76,
            "name": "E5",
            "ticks": 43920,
            "time": 258.35281200000003,
            "velocity": 0.7874015748031497
          },
          {
            "duration": 0.17647049999999354,
            "durationTicks": 30,
            "midi": 71,
            "name": "B4",
            "ticks": 43920,
            "time": 258.35281200000003,
            "velocity": 0.7874015748031497
          },
          {
            "duration": 0.17647049999999354,
            "durationTicks": 30,
            "midi": 68,
            "name": "G#4",
            "ticks": 43920,
            "time": 258.35281200000003,
            "velocity": 0.7874015748031497
          },
          {
            "duration": 0.35294099999998707,
            "durationTicks": 60,
            "midi": 76,
            "name": "E5",
            "ticks": 43950,
            "time": 258.5292825,
            "velocity": 0.7874015748031497
          },
          {
            "duration": 0.35294099999998707,
            "durationTicks": 60,
            "midi": 71,
            "name": "B4",
            "ticks": 43950,
            "time": 258.5292825,
            "velocity": 0.7874015748031497
          },
          {
            "duration": 0.35294099999998707,
            "durationTicks": 60,
            "midi": 68,
            "name": "G#4",
            "ticks": 43950,
            "time": 258.5292825,
            "velocity": 0.7874015748031497
          },
          {
            "duration": 0.17647049999999354,
            "durationTicks": 30,
            "midi": 78,
            "name": "F#5",
            "ticks": 44010,
            "time": 258.8822235,
            "velocity": 0.7874015748031497
          },
          {
            "duration": 0.17647049999999354,
            "durationTicks": 30,
            "midi": 71,
            "name": "B4",
            "ticks": 44010,
            "time": 258.8822235,
            "velocity": 0.7874015748031497
          },
          {
            "duration": 0.17647049999999354,
            "durationTicks": 30,
            "midi": 68,
            "name": "G#4",
            "ticks": 44010,
            "time": 258.8822235,
            "velocity": 0.7874015748031497
          },
          {
            "duration": 0.17647049999999354,
            "durationTicks": 30,
            "midi": 80,
            "name": "G#5",
            "ticks": 44070,
            "time": 259.2351645,
            "velocity": 0.7874015748031497
          },
          {
            "duration": 0.17647049999999354,
            "durationTicks": 30,
            "midi": 76,
            "name": "E5",
            "ticks": 44070,
            "time": 259.2351645,
            "velocity": 0.7874015748031497
          },
          {
            "duration": 0.17647049999999354,
            "durationTicks": 30,
            "midi": 71,
            "name": "B4",
            "ticks": 44070,
            "time": 259.2351645,
            "velocity": 0.7874015748031497
          },
          {
            "duration": 1.058823000000018,
            "durationTicks": 180,
            "midi": 62,
            "name": "D4",
            "ticks": 44130,
            "time": 259.5881055,
            "velocity": 0.7874015748031497
          },
          {
            "duration": 1.058823000000018,
            "durationTicks": 180,
            "midi": 66,
            "name": "F#4",
            "ticks": 44130,
            "time": 259.5881055,
            "velocity": 0.7874015748031497
          },
          {
            "duration": 1.058823000000018,
            "durationTicks": 180,
            "midi": 71,
            "name": "B4",
            "ticks": 44130,
            "time": 259.5881055,
            "velocity": 0.7874015748031497
          },
          {
            "duration": 0.35294099999998707,
            "durationTicks": 60,
            "midi": 78,
            "name": "F#5",
            "ticks": 44310,
            "time": 260.6469285,
            "velocity": 0.7874015748031497
          },
          {
            "duration": 0.35294099999998707,
            "durationTicks": 60,
            "midi": 71,
            "name": "B4",
            "ticks": 44310,
            "time": 260.6469285,
            "velocity": 0.7874015748031497
          },
          {
            "duration": 0.35294099999998707,
            "durationTicks": 60,
            "midi": 74,
            "name": "D5",
            "ticks": 44310,
            "time": 260.6469285,
            "velocity": 0.7874015748031497
          },
          {
            "duration": 1.058823000000018,
            "durationTicks": 180,
            "midi": 72,
            "name": "C5",
            "ticks": 44370,
            "time": 260.9998695,
            "velocity": 0.7874015748031497
          },
          {
            "duration": 1.058823000000018,
            "durationTicks": 180,
            "midi": 64,
            "name": "E4",
            "ticks": 44370,
            "time": 260.9998695,
            "velocity": 0.7874015748031497
          },
          {
            "duration": 1.058823000000018,
            "durationTicks": 180,
            "midi": 68,
            "name": "G#4",
            "ticks": 44370,
            "time": 260.9998695,
            "velocity": 0.7874015748031497
          },
          {
            "duration": 0.35294099999998707,
            "durationTicks": 60,
            "midi": 72,
            "name": "C5",
            "ticks": 44550,
            "time": 262.0586925,
            "velocity": 0.7874015748031497
          },
          {
            "duration": 0.35294099999998707,
            "durationTicks": 60,
            "midi": 76,
            "name": "E5",
            "ticks": 44550,
            "time": 262.0586925,
            "velocity": 0.7874015748031497
          },
          {
            "duration": 0.35294099999998707,
            "durationTicks": 60,
            "midi": 68,
            "name": "G#4",
            "ticks": 44550,
            "time": 262.0586925,
            "velocity": 0.7874015748031497
          },
          {
            "duration": 1.5882344999999987,
            "durationTicks": 270,
            "midi": 73,
            "name": "C#5",
            "ticks": 44610,
            "time": 262.4116335,
            "velocity": 0.7874015748031497
          },
          {
            "duration": 1.5882344999999987,
            "durationTicks": 270,
            "midi": 69,
            "name": "A4",
            "ticks": 44610,
            "time": 262.4116335,
            "velocity": 0.7874015748031497
          },
          {
            "duration": 1.5882344999999987,
            "durationTicks": 270,
            "midi": 64,
            "name": "E4",
            "ticks": 44610,
            "time": 262.4116335,
            "velocity": 0.7874015748031497
          },
          {
            "duration": 0.35294099999998707,
            "durationTicks": 60,
            "midi": 73,
            "name": "C#5",
            "ticks": 44880,
            "time": 263.999868,
            "velocity": 0.7874015748031497
          },
          {
            "duration": 0.17647050000005038,
            "durationTicks": 30,
            "midi": 76,
            "name": "E5",
            "ticks": 44940,
            "time": 264.352809,
            "velocity": 0.7874015748031497
          },
          {
            "duration": 0.17647049999999354,
            "durationTicks": 30,
            "midi": 80,
            "name": "G#5",
            "ticks": 44970,
            "time": 264.52927950000003,
            "velocity": 0.7874015748031497
          },
          {
            "duration": 0.17647049999999354,
            "durationTicks": 30,
            "midi": 88,
            "name": "E6",
            "ticks": 45030,
            "time": 264.8822205,
            "velocity": 0.7874015748031497
          },
          {
            "duration": 2.294116499999973,
            "durationTicks": 390,
            "midi": 72,
            "name": "C5",
            "ticks": 45090,
            "time": 265.2351615,
            "velocity": 0.7874015748031497
          },
          {
            "duration": 2.294116499999973,
            "durationTicks": 390,
            "midi": 76,
            "name": "E5",
            "ticks": 45090,
            "time": 265.2351615,
            "velocity": 0.7874015748031497
          },
          {
            "duration": 2.294116499999973,
            "durationTicks": 390,
            "midi": 80,
            "name": "G#5",
            "ticks": 45090,
            "time": 265.2351615,
            "velocity": 0.7874015748031497
          },
          {
            "duration": 2.294116499999973,
            "durationTicks": 390,
            "midi": 84,
            "name": "C6",
            "ticks": 45090,
            "time": 265.2351615,
            "velocity": 0.7874015748031497
          },
          {
            "duration": 0.3529410000000439,
            "durationTicks": 60,
            "midi": 76,
            "name": "E5",
            "ticks": 45480,
            "time": 267.529278,
            "velocity": 0.7874015748031497
          },
          {
            "duration": 0.35294099999998707,
            "durationTicks": 60,
            "midi": 78,
            "name": "F#5",
            "ticks": 45540,
            "time": 267.882219,
            "velocity": 0.7874015748031497
          },
          {
            "duration": 0.35294099999998707,
            "durationTicks": 60,
            "midi": 71,
            "name": "B4",
            "ticks": 45600,
            "time": 268.23516,
            "velocity": 0.7874015748031497
          },
          {
            "duration": 0.35294099999998707,
            "durationTicks": 60,
            "midi": 76,
            "name": "E5",
            "ticks": 45600,
            "time": 268.23516,
            "velocity": 0.7874015748031497
          },
          {
            "duration": 0.35294099999998707,
            "durationTicks": 60,
            "midi": 80,
            "name": "G#5",
            "ticks": 45600,
            "time": 268.23516,
            "velocity": 0.7874015748031497
          },
          {
            "duration": 0.17647049999999354,
            "durationTicks": 30,
            "midi": 80,
            "name": "G#5",
            "ticks": 45660,
            "time": 268.588101,
            "velocity": 0.7874015748031497
          },
          {
            "duration": 0.17647049999999354,
            "durationTicks": 30,
            "midi": 76,
            "name": "E5",
            "ticks": 45660,
            "time": 268.588101,
            "velocity": 0.7874015748031497
          },
          {
            "duration": 0.17647049999999354,
            "durationTicks": 30,
            "midi": 71,
            "name": "B4",
            "ticks": 45660,
            "time": 268.588101,
            "velocity": 0.7874015748031497
          },
          {
            "duration": 0.17647049999999354,
            "durationTicks": 30,
            "midi": 80,
            "name": "G#5",
            "ticks": 45690,
            "time": 268.7645715,
            "velocity": 0.7874015748031497
          },
          {
            "duration": 0.17647049999999354,
            "durationTicks": 30,
            "midi": 76,
            "name": "E5",
            "ticks": 45690,
            "time": 268.7645715,
            "velocity": 0.7874015748031497
          },
          {
            "duration": 0.17647049999999354,
            "durationTicks": 30,
            "midi": 71,
            "name": "B4",
            "ticks": 45690,
            "time": 268.7645715,
            "velocity": 0.7874015748031497
          },
          {
            "duration": 0.17647050000005038,
            "durationTicks": 30,
            "midi": 76,
            "name": "E5",
            "ticks": 45750,
            "time": 269.1175125,
            "velocity": 0.7874015748031497
          },
          {
            "duration": 0.17647049999999354,
            "durationTicks": 30,
            "midi": 78,
            "name": "F#5",
            "ticks": 45810,
            "time": 269.4704535,
            "velocity": 0.7874015748031497
          },
          {
            "duration": 0.35294099999998707,
            "durationTicks": 60,
            "midi": 71,
            "name": "B4",
            "ticks": 45840,
            "time": 269.646924,
            "velocity": 0.7874015748031497
          },
          {
            "duration": 0.35294099999998707,
            "durationTicks": 60,
            "midi": 76,
            "name": "E5",
            "ticks": 45840,
            "time": 269.646924,
            "velocity": 0.7874015748031497
          },
          {
            "duration": 0.35294099999998707,
            "durationTicks": 60,
            "midi": 80,
            "name": "G#5",
            "ticks": 45840,
            "time": 269.646924,
            "velocity": 0.7874015748031497
          },
          {
            "duration": 0.17647049999999354,
            "durationTicks": 30,
            "midi": 71,
            "name": "B4",
            "ticks": 45900,
            "time": 269.999865,
            "velocity": 0.7874015748031497
          },
          {
            "duration": 0.17647049999999354,
            "durationTicks": 30,
            "midi": 76,
            "name": "E5",
            "ticks": 45900,
            "time": 269.999865,
            "velocity": 0.7874015748031497
          },
          {
            "duration": 0.17647049999999354,
            "durationTicks": 30,
            "midi": 80,
            "name": "G#5",
            "ticks": 45900,
            "time": 269.999865,
            "velocity": 0.7874015748031497
          },
          {
            "duration": 0.17647049999999354,
            "durationTicks": 30,
            "midi": 76,
            "name": "E5",
            "ticks": 45930,
            "time": 270.1763355,
            "velocity": 0.7874015748031497
          },
          {
            "duration": 0.17647049999999354,
            "durationTicks": 30,
            "midi": 71,
            "name": "B4",
            "ticks": 45930,
            "time": 270.1763355,
            "velocity": 0.7874015748031497
          },
          {
            "duration": 0.17647049999999354,
            "durationTicks": 30,
            "midi": 80,
            "name": "G#5",
            "ticks": 45930,
            "time": 270.1763355,
            "velocity": 0.7874015748031497
          },
          {
            "duration": 0.17647050000005038,
            "durationTicks": 30,
            "midi": 76,
            "name": "E5",
            "ticks": 45990,
            "time": 270.5292765,
            "velocity": 0.7874015748031497
          },
          {
            "duration": 0.17647049999999354,
            "durationTicks": 30,
            "midi": 78,
            "name": "F#5",
            "ticks": 46050,
            "time": 270.8822175,
            "velocity": 0.7874015748031497
          },
          {
            "duration": 0.35294099999998707,
            "durationTicks": 60,
            "midi": 73,
            "name": "C#5",
            "ticks": 46080,
            "time": 271.058688,
            "velocity": 0.7874015748031497
          },
          {
            "duration": 0.35294099999998707,
            "durationTicks": 60,
            "midi": 76,
            "name": "E5",
            "ticks": 46080,
            "time": 271.058688,
            "velocity": 0.7874015748031497
          },
          {
            "duration": 0.35294099999998707,
            "durationTicks": 60,
            "midi": 80,
            "name": "G#5",
            "ticks": 46080,
            "time": 271.058688,
            "velocity": 0.7874015748031497
          },
          {
            "duration": 0.17647049999999354,
            "durationTicks": 30,
            "midi": 73,
            "name": "C#5",
            "ticks": 46140,
            "time": 271.411629,
            "velocity": 0.7874015748031497
          },
          {
            "duration": 0.17647049999999354,
            "durationTicks": 30,
            "midi": 76,
            "name": "E5",
            "ticks": 46140,
            "time": 271.411629,
            "velocity": 0.7874015748031497
          },
          {
            "duration": 0.17647049999999354,
            "durationTicks": 30,
            "midi": 80,
            "name": "G#5",
            "ticks": 46140,
            "time": 271.411629,
            "velocity": 0.7874015748031497
          },
          {
            "duration": 0.17647049999999354,
            "durationTicks": 30,
            "midi": 73,
            "name": "C#5",
            "ticks": 46170,
            "time": 271.5880995,
            "velocity": 0.7874015748031497
          },
          {
            "duration": 0.17647049999999354,
            "durationTicks": 30,
            "midi": 76,
            "name": "E5",
            "ticks": 46170,
            "time": 271.5880995,
            "velocity": 0.7874015748031497
          },
          {
            "duration": 0.17647049999999354,
            "durationTicks": 30,
            "midi": 80,
            "name": "G#5",
            "ticks": 46170,
            "time": 271.5880995,
            "velocity": 0.7874015748031497
          },
          {
            "duration": 0.17647049999999354,
            "durationTicks": 30,
            "midi": 81,
            "name": "A5",
            "ticks": 46230,
            "time": 271.9410405,
            "velocity": 0.7874015748031497
          },
          {
            "duration": 0.17647049999999354,
            "durationTicks": 30,
            "midi": 76,
            "name": "E5",
            "ticks": 46230,
            "time": 271.9410405,
            "velocity": 0.7874015748031497
          },
          {
            "duration": 0.17647049999999354,
            "durationTicks": 30,
            "midi": 73,
            "name": "C#5",
            "ticks": 46230,
            "time": 271.9410405,
            "velocity": 0.7874015748031497
          },
          {
            "duration": 0.8823524999999677,
            "durationTicks": 150,
            "midi": 73,
            "name": "C#5",
            "ticks": 46290,
            "time": 272.29398150000003,
            "velocity": 0.7874015748031497
          },
          {
            "duration": 0.8823524999999677,
            "durationTicks": 150,
            "midi": 76,
            "name": "E5",
            "ticks": 46290,
            "time": 272.29398150000003,
            "velocity": 0.7874015748031497
          },
          {
            "duration": 0.8823524999999677,
            "durationTicks": 150,
            "midi": 83,
            "name": "B5",
            "ticks": 46290,
            "time": 272.29398150000003,
            "velocity": 0.7874015748031497
          },
          {
            "duration": 0.705882000000031,
            "durationTicks": 120,
            "midi": 84,
            "name": "C6",
            "ticks": 46440,
            "time": 273.176334,
            "velocity": 0.7874015748031497
          },
          {
            "duration": 0.705882000000031,
            "durationTicks": 120,
            "midi": 84,
            "name": "C6",
            "ticks": 46440,
            "time": 273.176334,
            "velocity": 0.7874015748031497
          },
          {
            "duration": 0.705882000000031,
            "durationTicks": 120,
            "midi": 81,
            "name": "A5",
            "ticks": 46440,
            "time": 273.176334,
            "velocity": 0.7874015748031497
          },
          {
            "duration": 0.705882000000031,
            "durationTicks": 120,
            "midi": 79,
            "name": "G5",
            "ticks": 46440,
            "time": 273.176334,
            "velocity": 0.7874015748031497
          },
          {
            "duration": 0.705882000000031,
            "durationTicks": 120,
            "midi": 75,
            "name": "D#5",
            "ticks": 46440,
            "time": 273.176334,
            "velocity": 0.7874015748031497
          },
          {
            "duration": 0.7058819999999741,
            "durationTicks": 120,
            "midi": 71,
            "name": "B4",
            "ticks": 46560,
            "time": 273.882216,
            "velocity": 0.7874015748031497
          },
          {
            "duration": 0.7058819999999741,
            "durationTicks": 120,
            "midi": 75,
            "name": "D#5",
            "ticks": 46560,
            "time": 273.882216,
            "velocity": 0.7874015748031497
          },
          {
            "duration": 0.7058819999999741,
            "durationTicks": 120,
            "midi": 80,
            "name": "G#5",
            "ticks": 46560,
            "time": 273.882216,
            "velocity": 0.7874015748031497
          },
          {
            "duration": 0.7058819999999741,
            "durationTicks": 120,
            "midi": 83,
            "name": "B5",
            "ticks": 46560,
            "time": 273.882216,
            "velocity": 0.7874015748031497
          },
          {
            "duration": 0.17647050000005038,
            "durationTicks": 30,
            "midi": 80,
            "name": "G#5",
            "ticks": 46800,
            "time": 275.29398,
            "velocity": 0.7874015748031497
          },
          {
            "duration": 0.17647050000005038,
            "durationTicks": 30,
            "midi": 75,
            "name": "D#5",
            "ticks": 46800,
            "time": 275.29398,
            "velocity": 0.7874015748031497
          },
          {
            "duration": 0.17647050000005038,
            "durationTicks": 30,
            "midi": 71,
            "name": "B4",
            "ticks": 46800,
            "time": 275.29398,
            "velocity": 0.7874015748031497
          },
          {
            "duration": 0.35294099999998707,
            "durationTicks": 60,
            "midi": 80,
            "name": "G#5",
            "ticks": 46830,
            "time": 275.4704505,
            "velocity": 0.7874015748031497
          },
          {
            "duration": 0.35294099999998707,
            "durationTicks": 60,
            "midi": 71,
            "name": "B4",
            "ticks": 46830,
            "time": 275.4704505,
            "velocity": 0.7874015748031497
          },
          {
            "duration": 0.35294099999998707,
            "durationTicks": 60,
            "midi": 75,
            "name": "D#5",
            "ticks": 46830,
            "time": 275.4704505,
            "velocity": 0.7874015748031497
          },
          {
            "duration": 0.17647049999999354,
            "durationTicks": 30,
            "midi": 81,
            "name": "A5",
            "ticks": 46890,
            "time": 275.8233915,
            "velocity": 0.7874015748031497
          },
          {
            "duration": 0.17647049999999354,
            "durationTicks": 30,
            "midi": 75,
            "name": "D#5",
            "ticks": 46890,
            "time": 275.8233915,
            "velocity": 0.7874015748031497
          },
          {
            "duration": 0.17647049999999354,
            "durationTicks": 30,
            "midi": 71,
            "name": "B4",
            "ticks": 46890,
            "time": 275.8233915,
            "velocity": 0.7874015748031497
          },
          {
            "duration": 0.17647049999999354,
            "durationTicks": 30,
            "midi": 83,
            "name": "B5",
            "ticks": 46950,
            "time": 276.1763325,
            "velocity": 0.7874015748031497
          },
          {
            "duration": 0.17647049999999354,
            "durationTicks": 30,
            "midi": 80,
            "name": "G#5",
            "ticks": 46950,
            "time": 276.1763325,
            "velocity": 0.7874015748031497
          },
          {
            "duration": 0.17647049999999354,
            "durationTicks": 30,
            "midi": 75,
            "name": "D#5",
            "ticks": 46950,
            "time": 276.1763325,
            "velocity": 0.7874015748031497
          },
          {
            "duration": 1.058823000000018,
            "durationTicks": 180,
            "midi": 67,
            "name": "G4",
            "ticks": 47010,
            "time": 276.5292735,
            "velocity": 0.7874015748031497
          },
          {
            "duration": 1.058823000000018,
            "durationTicks": 180,
            "midi": 72,
            "name": "C5",
            "ticks": 47010,
            "time": 276.5292735,
            "velocity": 0.7874015748031497
          },
          {
            "duration": 1.058823000000018,
            "durationTicks": 180,
            "midi": 76,
            "name": "E5",
            "ticks": 47010,
            "time": 276.5292735,
            "velocity": 0.7874015748031497
          },
          {
            "duration": 0.35294099999998707,
            "durationTicks": 60,
            "midi": 76,
            "name": "E5",
            "ticks": 47190,
            "time": 277.5880965,
            "velocity": 0.7874015748031497
          },
          {
            "duration": 0.35294099999998707,
            "durationTicks": 60,
            "midi": 72,
            "name": "C5",
            "ticks": 47190,
            "time": 277.5880965,
            "velocity": 0.7874015748031497
          },
          {
            "duration": 0.35294099999998707,
            "durationTicks": 60,
            "midi": 83,
            "name": "B5",
            "ticks": 47190,
            "time": 277.5880965,
            "velocity": 0.7874015748031497
          },
          {
            "duration": 0.8823525000000245,
            "durationTicks": 150,
            "midi": 72,
            "name": "C5",
            "ticks": 47250,
            "time": 277.9410375,
            "velocity": 0.7874015748031497
          },
          {
            "duration": 0.8823525000000245,
            "durationTicks": 150,
            "midi": 76,
            "name": "E5",
            "ticks": 47250,
            "time": 277.9410375,
            "velocity": 0.7874015748031497
          },
          {
            "duration": 0.8823525000000245,
            "durationTicks": 150,
            "midi": 78,
            "name": "F#5",
            "ticks": 47250,
            "time": 277.9410375,
            "velocity": 0.7874015748031497
          },
          {
            "duration": 0.8823525000000245,
            "durationTicks": 150,
            "midi": 81,
            "name": "A5",
            "ticks": 47250,
            "time": 277.9410375,
            "velocity": 0.7874015748031497
          },
          {
            "duration": 0.17647049999999354,
            "durationTicks": 30,
            "midi": 76,
            "name": "E5",
            "ticks": 47430,
            "time": 278.9998605,
            "velocity": 0.7874015748031497
          },
          {
            "duration": 0.17647049999999354,
            "durationTicks": 30,
            "midi": 69,
            "name": "A4",
            "ticks": 47430,
            "time": 278.9998605,
            "velocity": 0.7874015748031497
          },
          {
            "duration": 0.17647049999999354,
            "durationTicks": 30,
            "midi": 66,
            "name": "F#4",
            "ticks": 47430,
            "time": 278.9998605,
            "velocity": 0.7874015748031497
          },
          {
            "duration": 0.17647049999999354,
            "durationTicks": 30,
            "midi": 69,
            "name": "A4",
            "ticks": 47490,
            "time": 279.3528015,
            "velocity": 0.7874015748031497
          },
          {
            "duration": 0.17647049999999354,
            "durationTicks": 30,
            "midi": 74,
            "name": "D5",
            "ticks": 47490,
            "time": 279.3528015,
            "velocity": 0.7874015748031497
          },
          {
            "duration": 0.17647049999999354,
            "durationTicks": 30,
            "midi": 78,
            "name": "F#5",
            "ticks": 47490,
            "time": 279.3528015,
            "velocity": 0.7874015748031497
          },
          {
            "duration": 0.705882000000031,
            "durationTicks": 120,
            "midi": 80,
            "name": "G#5",
            "ticks": 47520,
            "time": 279.529272,
            "velocity": 0.7874015748031497
          },
          {
            "duration": 0.705882000000031,
            "durationTicks": 120,
            "midi": 76,
            "name": "E5",
            "ticks": 47520,
            "time": 279.529272,
            "velocity": 0.7874015748031497
          },
          {
            "duration": 0.705882000000031,
            "durationTicks": 120,
            "midi": 71,
            "name": "B4",
            "ticks": 47520,
            "time": 279.529272,
            "velocity": 0.7874015748031497
          },
          {
            "duration": 0.705882000000031,
            "durationTicks": 120,
            "midi": 68,
            "name": "G#4",
            "ticks": 47520,
            "time": 279.529272,
            "velocity": 0.7874015748031497
          },
          {
            "duration": 0.17647049999999354,
            "durationTicks": 30,
            "midi": 76,
            "name": "E5",
            "ticks": 47760,
            "time": 280.941036,
            "velocity": 0.7874015748031497
          },
          {
            "duration": 0.17647049999999354,
            "durationTicks": 30,
            "midi": 71,
            "name": "B4",
            "ticks": 47760,
            "time": 280.941036,
            "velocity": 0.7874015748031497
          },
          {
            "duration": 0.17647049999999354,
            "durationTicks": 30,
            "midi": 68,
            "name": "G#4",
            "ticks": 47760,
            "time": 280.941036,
            "velocity": 0.7874015748031497
          },
          {
            "duration": 0.35294099999998707,
            "durationTicks": 60,
            "midi": 76,
            "name": "E5",
            "ticks": 47790,
            "time": 281.1175065,
            "velocity": 0.7874015748031497
          },
          {
            "duration": 0.35294099999998707,
            "durationTicks": 60,
            "midi": 71,
            "name": "B4",
            "ticks": 47790,
            "time": 281.1175065,
            "velocity": 0.7874015748031497
          },
          {
            "duration": 0.35294099999998707,
            "durationTicks": 60,
            "midi": 68,
            "name": "G#4",
            "ticks": 47790,
            "time": 281.1175065,
            "velocity": 0.7874015748031497
          },
          {
            "duration": 0.17647050000005038,
            "durationTicks": 30,
            "midi": 78,
            "name": "F#5",
            "ticks": 47850,
            "time": 281.4704475,
            "velocity": 0.7874015748031497
          },
          {
            "duration": 0.17647050000005038,
            "durationTicks": 30,
            "midi": 71,
            "name": "B4",
            "ticks": 47850,
            "time": 281.4704475,
            "velocity": 0.7874015748031497
          },
          {
            "duration": 0.17647050000005038,
            "durationTicks": 30,
            "midi": 68,
            "name": "G#4",
            "ticks": 47850,
            "time": 281.4704475,
            "velocity": 0.7874015748031497
          },
          {
            "duration": 0.17647049999999354,
            "durationTicks": 30,
            "midi": 80,
            "name": "G#5",
            "ticks": 47910,
            "time": 281.8233885,
            "velocity": 0.7874015748031497
          },
          {
            "duration": 0.17647049999999354,
            "durationTicks": 30,
            "midi": 76,
            "name": "E5",
            "ticks": 47910,
            "time": 281.8233885,
            "velocity": 0.7874015748031497
          },
          {
            "duration": 0.17647049999999354,
            "durationTicks": 30,
            "midi": 71,
            "name": "B4",
            "ticks": 47910,
            "time": 281.8233885,
            "velocity": 0.7874015748031497
          },
          {
            "duration": 1.058823000000018,
            "durationTicks": 180,
            "midi": 62,
            "name": "D4",
            "ticks": 47970,
            "time": 282.1763295,
            "velocity": 0.7874015748031497
          },
          {
            "duration": 1.058823000000018,
            "durationTicks": 180,
            "midi": 66,
            "name": "F#4",
            "ticks": 47970,
            "time": 282.1763295,
            "velocity": 0.7874015748031497
          },
          {
            "duration": 1.058823000000018,
            "durationTicks": 180,
            "midi": 71,
            "name": "B4",
            "ticks": 47970,
            "time": 282.1763295,
            "velocity": 0.7874015748031497
          },
          {
            "duration": 0.35294099999998707,
            "durationTicks": 60,
            "midi": 78,
            "name": "F#5",
            "ticks": 48150,
            "time": 283.2351525,
            "velocity": 0.7874015748031497
          },
          {
            "duration": 0.35294099999998707,
            "durationTicks": 60,
            "midi": 71,
            "name": "B4",
            "ticks": 48150,
            "time": 283.2351525,
            "velocity": 0.7874015748031497
          },
          {
            "duration": 0.35294099999998707,
            "durationTicks": 60,
            "midi": 74,
            "name": "D5",
            "ticks": 48150,
            "time": 283.2351525,
            "velocity": 0.7874015748031497
          },
          {
            "duration": 1.058823000000018,
            "durationTicks": 180,
            "midi": 72,
            "name": "C5",
            "ticks": 48210,
            "time": 283.5880935,
            "velocity": 0.7874015748031497
          },
          {
            "duration": 1.058823000000018,
            "durationTicks": 180,
            "midi": 64,
            "name": "E4",
            "ticks": 48210,
            "time": 283.5880935,
            "velocity": 0.7874015748031497
          },
          {
            "duration": 1.058823000000018,
            "durationTicks": 180,
            "midi": 68,
            "name": "G#4",
            "ticks": 48210,
            "time": 283.5880935,
            "velocity": 0.7874015748031497
          },
          {
            "duration": 0.35294099999998707,
            "durationTicks": 60,
            "midi": 72,
            "name": "C5",
            "ticks": 48390,
            "time": 284.64691650000003,
            "velocity": 0.7874015748031497
          },
          {
            "duration": 0.35294099999998707,
            "durationTicks": 60,
            "midi": 76,
            "name": "E5",
            "ticks": 48390,
            "time": 284.64691650000003,
            "velocity": 0.7874015748031497
          },
          {
            "duration": 0.35294099999998707,
            "durationTicks": 60,
            "midi": 68,
            "name": "G#4",
            "ticks": 48390,
            "time": 284.64691650000003,
            "velocity": 0.7874015748031497
          },
          {
            "duration": 1.5882344999999987,
            "durationTicks": 270,
            "midi": 73,
            "name": "C#5",
            "ticks": 48450,
            "time": 284.9998575,
            "velocity": 0.7874015748031497
          },
          {
            "duration": 1.5882344999999987,
            "durationTicks": 270,
            "midi": 69,
            "name": "A4",
            "ticks": 48450,
            "time": 284.9998575,
            "velocity": 0.7874015748031497
          },
          {
            "duration": 1.5882344999999987,
            "durationTicks": 270,
            "midi": 64,
            "name": "E4",
            "ticks": 48450,
            "time": 284.9998575,
            "velocity": 0.7874015748031497
          },
          {
            "duration": 0.35294099999998707,
            "durationTicks": 60,
            "midi": 73,
            "name": "C#5",
            "ticks": 48720,
            "time": 286.588092,
            "velocity": 0.7874015748031497
          },
          {
            "duration": 0.17647049999999354,
            "durationTicks": 30,
            "midi": 76,
            "name": "E5",
            "ticks": 48780,
            "time": 286.941033,
            "velocity": 0.7874015748031497
          },
          {
            "duration": 0.17647049999999354,
            "durationTicks": 30,
            "midi": 80,
            "name": "G#5",
            "ticks": 48810,
            "time": 287.1175035,
            "velocity": 0.7874015748031497
          },
          {
            "duration": 0.17647049999999354,
            "durationTicks": 30,
            "midi": 88,
            "name": "E6",
            "ticks": 48870,
            "time": 287.4704445,
            "velocity": 0.7874015748031497
          },
          {
            "duration": 2.294116499999973,
            "durationTicks": 390,
            "midi": 72,
            "name": "C5",
            "ticks": 48930,
            "time": 287.82338550000003,
            "velocity": 0.7874015748031497
          },
          {
            "duration": 2.294116499999973,
            "durationTicks": 390,
            "midi": 76,
            "name": "E5",
            "ticks": 48930,
            "time": 287.82338550000003,
            "velocity": 0.7874015748031497
          },
          {
            "duration": 2.294116499999973,
            "durationTicks": 390,
            "midi": 80,
            "name": "G#5",
            "ticks": 48930,
            "time": 287.82338550000003,
            "velocity": 0.7874015748031497
          },
          {
            "duration": 2.294116499999973,
            "durationTicks": 390,
            "midi": 84,
            "name": "C6",
            "ticks": 48930,
            "time": 287.82338550000003,
            "velocity": 0.7874015748031497
          },
          {
            "duration": 0.35294099999998707,
            "durationTicks": 60,
            "midi": 76,
            "name": "E5",
            "ticks": 49320,
            "time": 290.117502,
            "velocity": 0.7874015748031497
          },
          {
            "duration": 0.35294099999998707,
            "durationTicks": 60,
            "midi": 78,
            "name": "F#5",
            "ticks": 49380,
            "time": 290.470443,
            "velocity": 0.7874015748031497
          },
          {
            "duration": 0.3529410000000439,
            "durationTicks": 60,
            "midi": 71,
            "name": "B4",
            "ticks": 49440,
            "time": 290.823384,
            "velocity": 0.7874015748031497
          },
          {
            "duration": 0.3529410000000439,
            "durationTicks": 60,
            "midi": 76,
            "name": "E5",
            "ticks": 49440,
            "time": 290.823384,
            "velocity": 0.7874015748031497
          },
          {
            "duration": 0.17647049999999354,
            "durationTicks": 30,
            "midi": 80,
            "name": "G#5",
            "ticks": 49500,
            "time": 291.176325,
            "velocity": 0.7874015748031497
          },
          {
            "duration": 0.17647049999999354,
            "durationTicks": 30,
            "midi": 76,
            "name": "E5",
            "ticks": 49500,
            "time": 291.176325,
            "velocity": 0.7874015748031497
          },
          {
            "duration": 0.17647049999999354,
            "durationTicks": 30,
            "midi": 71,
            "name": "B4",
            "ticks": 49500,
            "time": 291.176325,
            "velocity": 0.7874015748031497
          },
          {
            "duration": 0.17647049999999354,
            "durationTicks": 30,
            "midi": 80,
            "name": "G#5",
            "ticks": 49530,
            "time": 291.3527955,
            "velocity": 0.7874015748031497
          },
          {
            "duration": 0.17647049999999354,
            "durationTicks": 30,
            "midi": 76,
            "name": "E5",
            "ticks": 49530,
            "time": 291.3527955,
            "velocity": 0.7874015748031497
          },
          {
            "duration": 0.17647049999999354,
            "durationTicks": 30,
            "midi": 71,
            "name": "B4",
            "ticks": 49530,
            "time": 291.3527955,
            "velocity": 0.7874015748031497
          },
          {
            "duration": 0.17647049999999354,
            "durationTicks": 30,
            "midi": 76,
            "name": "E5",
            "ticks": 49590,
            "time": 291.7057365,
            "velocity": 0.7874015748031497
          },
          {
            "duration": 0.17647049999999354,
            "durationTicks": 30,
            "midi": 78,
            "name": "F#5",
            "ticks": 49650,
            "time": 292.0586775,
            "velocity": 0.7874015748031497
          },
          {
            "duration": 0.3529410000000439,
            "durationTicks": 60,
            "midi": 76,
            "name": "E5",
            "ticks": 49680,
            "time": 292.235148,
            "velocity": 0.7874015748031497
          },
          {
            "duration": 0.3529410000000439,
            "durationTicks": 60,
            "midi": 71,
            "name": "B4",
            "ticks": 49680,
            "time": 292.235148,
            "velocity": 0.7874015748031497
          },
          {
            "duration": 0.3529410000000439,
            "durationTicks": 60,
            "midi": 80,
            "name": "G#5",
            "ticks": 49680,
            "time": 292.235148,
            "velocity": 0.7874015748031497
          },
          {
            "duration": 0.17647049999999354,
            "durationTicks": 30,
            "midi": 71,
            "name": "B4",
            "ticks": 49740,
            "time": 292.588089,
            "velocity": 0.7874015748031497
          },
          {
            "duration": 0.17647049999999354,
            "durationTicks": 30,
            "midi": 76,
            "name": "E5",
            "ticks": 49740,
            "time": 292.588089,
            "velocity": 0.7874015748031497
          },
          {
            "duration": 0.17647049999999354,
            "durationTicks": 30,
            "midi": 80,
            "name": "G#5",
            "ticks": 49740,
            "time": 292.588089,
            "velocity": 0.7874015748031497
          },
          {
            "duration": 0.17647049999999354,
            "durationTicks": 30,
            "midi": 76,
            "name": "E5",
            "ticks": 49770,
            "time": 292.7645595,
            "velocity": 0.7874015748031497
          },
          {
            "duration": 0.17647049999999354,
            "durationTicks": 30,
            "midi": 71,
            "name": "B4",
            "ticks": 49770,
            "time": 292.7645595,
            "velocity": 0.7874015748031497
          },
          {
            "duration": 0.17647049999999354,
            "durationTicks": 30,
            "midi": 80,
            "name": "G#5",
            "ticks": 49770,
            "time": 292.7645595,
            "velocity": 0.7874015748031497
          },
          {
            "duration": 0.17647049999999354,
            "durationTicks": 30,
            "midi": 76,
            "name": "E5",
            "ticks": 49830,
            "time": 293.1175005,
            "velocity": 0.7874015748031497
          },
          {
            "duration": 0.17647049999999354,
            "durationTicks": 30,
            "midi": 78,
            "name": "F#5",
            "ticks": 49890,
            "time": 293.4704415,
            "velocity": 0.7874015748031497
          },
          {
            "duration": 0.3529410000000439,
            "durationTicks": 60,
            "midi": 73,
            "name": "C#5",
            "ticks": 49920,
            "time": 293.646912,
            "velocity": 0.7874015748031497
          },
          {
            "duration": 0.3529410000000439,
            "durationTicks": 60,
            "midi": 76,
            "name": "E5",
            "ticks": 49920,
            "time": 293.646912,
            "velocity": 0.7874015748031497
          },
          {
            "duration": 0.3529410000000439,
            "durationTicks": 60,
            "midi": 80,
            "name": "G#5",
            "ticks": 49920,
            "time": 293.646912,
            "velocity": 0.7874015748031497
          },
          {
            "duration": 0.17647049999999354,
            "durationTicks": 30,
            "midi": 73,
            "name": "C#5",
            "ticks": 49980,
            "time": 293.99985300000003,
            "velocity": 0.7874015748031497
          },
          {
            "duration": 0.17647049999999354,
            "durationTicks": 30,
            "midi": 76,
            "name": "E5",
            "ticks": 49980,
            "time": 293.99985300000003,
            "velocity": 0.7874015748031497
          },
          {
            "duration": 0.17647049999999354,
            "durationTicks": 30,
            "midi": 80,
            "name": "G#5",
            "ticks": 49980,
            "time": 293.99985300000003,
            "velocity": 0.7874015748031497
          },
          {
            "duration": 0.17647049999999354,
            "durationTicks": 30,
            "midi": 73,
            "name": "C#5",
            "ticks": 50010,
            "time": 294.1763235,
            "velocity": 0.7874015748031497
          },
          {
            "duration": 0.17647049999999354,
            "durationTicks": 30,
            "midi": 76,
            "name": "E5",
            "ticks": 50010,
            "time": 294.1763235,
            "velocity": 0.7874015748031497
          },
          {
            "duration": 0.17647049999999354,
            "durationTicks": 30,
            "midi": 80,
            "name": "G#5",
            "ticks": 50010,
            "time": 294.1763235,
            "velocity": 0.7874015748031497
          },
          {
            "duration": 0.17647049999999354,
            "durationTicks": 30,
            "midi": 81,
            "name": "A5",
            "ticks": 50070,
            "time": 294.5292645,
            "velocity": 0.7874015748031497
          },
          {
            "duration": 0.17647049999999354,
            "durationTicks": 30,
            "midi": 76,
            "name": "E5",
            "ticks": 50070,
            "time": 294.5292645,
            "velocity": 0.7874015748031497
          },
          {
            "duration": 0.17647049999999354,
            "durationTicks": 30,
            "midi": 73,
            "name": "C#5",
            "ticks": 50070,
            "time": 294.5292645,
            "velocity": 0.7874015748031497
          },
          {
            "duration": 0.8823525000000245,
            "durationTicks": 150,
            "midi": 73,
            "name": "C#5",
            "ticks": 50130,
            "time": 294.8822055,
            "velocity": 0.7874015748031497
          },
          {
            "duration": 0.8823525000000245,
            "durationTicks": 150,
            "midi": 76,
            "name": "E5",
            "ticks": 50130,
            "time": 294.8822055,
            "velocity": 0.7874015748031497
          },
          {
            "duration": 0.8823525000000245,
            "durationTicks": 150,
            "midi": 83,
            "name": "B5",
            "ticks": 50130,
            "time": 294.8822055,
            "velocity": 0.7874015748031497
          },
          {
            "duration": 0.7058819999999741,
            "durationTicks": 120,
            "midi": 79,
            "name": "G5",
            "ticks": 50280,
            "time": 295.764558,
            "velocity": 0.7874015748031497
          },
          {
            "duration": 0.7058819999999741,
            "durationTicks": 120,
            "midi": 81,
            "name": "A5",
            "ticks": 50280,
            "time": 295.764558,
            "velocity": 0.7874015748031497
          },
          {
            "duration": 0.7058819999999741,
            "durationTicks": 120,
            "midi": 75,
            "name": "D#5",
            "ticks": 50280,
            "time": 295.764558,
            "velocity": 0.7874015748031497
          },
          {
            "duration": 0.7058819999999741,
            "durationTicks": 120,
            "midi": 84,
            "name": "C6",
            "ticks": 50280,
            "time": 295.764558,
            "velocity": 0.7874015748031497
          },
          {
            "duration": 0.705882000000031,
            "durationTicks": 120,
            "midi": 71,
            "name": "B4",
            "ticks": 50400,
            "time": 296.47044,
            "velocity": 0.7874015748031497
          },
          {
            "duration": 0.705882000000031,
            "durationTicks": 120,
            "midi": 75,
            "name": "D#5",
            "ticks": 50400,
            "time": 296.47044,
            "velocity": 0.7874015748031497
          },
          {
            "duration": 0.705882000000031,
            "durationTicks": 120,
            "midi": 80,
            "name": "G#5",
            "ticks": 50400,
            "time": 296.47044,
            "velocity": 0.7874015748031497
          },
          {
            "duration": 0.705882000000031,
            "durationTicks": 120,
            "midi": 83,
            "name": "B5",
            "ticks": 50400,
            "time": 296.47044,
            "velocity": 0.7874015748031497
          },
          {
            "duration": 0.17647049999999354,
            "durationTicks": 30,
            "midi": 80,
            "name": "G#5",
            "ticks": 50640,
            "time": 297.882204,
            "velocity": 0.7874015748031497
          },
          {
            "duration": 0.17647049999999354,
            "durationTicks": 30,
            "midi": 75,
            "name": "D#5",
            "ticks": 50640,
            "time": 297.882204,
            "velocity": 0.7874015748031497
          },
          {
            "duration": 0.17647049999999354,
            "durationTicks": 30,
            "midi": 71,
            "name": "B4",
            "ticks": 50640,
            "time": 297.882204,
            "velocity": 0.7874015748031497
          },
          {
            "duration": 0.35294099999998707,
            "durationTicks": 60,
            "midi": 80,
            "name": "G#5",
            "ticks": 50670,
            "time": 298.0586745,
            "velocity": 0.7874015748031497
          },
          {
            "duration": 0.35294099999998707,
            "durationTicks": 60,
            "midi": 71,
            "name": "B4",
            "ticks": 50670,
            "time": 298.0586745,
            "velocity": 0.7874015748031497
          },
          {
            "duration": 0.35294099999998707,
            "durationTicks": 60,
            "midi": 75,
            "name": "D#5",
            "ticks": 50670,
            "time": 298.0586745,
            "velocity": 0.7874015748031497
          },
          {
            "duration": 0.17647049999999354,
            "durationTicks": 30,
            "midi": 81,
            "name": "A5",
            "ticks": 50730,
            "time": 298.4116155,
            "velocity": 0.7874015748031497
          },
          {
            "duration": 0.17647049999999354,
            "durationTicks": 30,
            "midi": 75,
            "name": "D#5",
            "ticks": 50730,
            "time": 298.4116155,
            "velocity": 0.7874015748031497
          },
          {
            "duration": 0.17647049999999354,
            "durationTicks": 30,
            "midi": 71,
            "name": "B4",
            "ticks": 50730,
            "time": 298.4116155,
            "velocity": 0.7874015748031497
          },
          {
            "duration": 0.17647049999999354,
            "durationTicks": 30,
            "midi": 83,
            "name": "B5",
            "ticks": 50790,
            "time": 298.7645565,
            "velocity": 0.7874015748031497
          },
          {
            "duration": 0.17647049999999354,
            "durationTicks": 30,
            "midi": 80,
            "name": "G#5",
            "ticks": 50790,
            "time": 298.7645565,
            "velocity": 0.7874015748031497
          },
          {
            "duration": 0.17647049999999354,
            "durationTicks": 30,
            "midi": 75,
            "name": "D#5",
            "ticks": 50790,
            "time": 298.7645565,
            "velocity": 0.7874015748031497
          },
          {
            "duration": 1.058823000000018,
            "durationTicks": 180,
            "midi": 67,
            "name": "G4",
            "ticks": 50850,
            "time": 299.1174975,
            "velocity": 0.7874015748031497
          },
          {
            "duration": 1.058823000000018,
            "durationTicks": 180,
            "midi": 72,
            "name": "C5",
            "ticks": 50850,
            "time": 299.1174975,
            "velocity": 0.7874015748031497
          },
          {
            "duration": 1.058823000000018,
            "durationTicks": 180,
            "midi": 76,
            "name": "E5",
            "ticks": 50850,
            "time": 299.1174975,
            "velocity": 0.7874015748031497
          },
          {
            "duration": 0.35294099999998707,
            "durationTicks": 60,
            "midi": 76,
            "name": "E5",
            "ticks": 51030,
            "time": 300.17632050000003,
            "velocity": 0.7874015748031497
          },
          {
            "duration": 0.35294099999998707,
            "durationTicks": 60,
            "midi": 72,
            "name": "C5",
            "ticks": 51030,
            "time": 300.17632050000003,
            "velocity": 0.7874015748031497
          },
          {
            "duration": 0.35294099999998707,
            "durationTicks": 60,
            "midi": 83,
            "name": "B5",
            "ticks": 51030,
            "time": 300.17632050000003,
            "velocity": 0.7874015748031497
          },
          {
            "duration": 0.8823524999999677,
            "durationTicks": 150,
            "midi": 72,
            "name": "C5",
            "ticks": 51090,
            "time": 300.5292615,
            "velocity": 0.7874015748031497
          },
          {
            "duration": 0.8823524999999677,
            "durationTicks": 150,
            "midi": 76,
            "name": "E5",
            "ticks": 51090,
            "time": 300.5292615,
            "velocity": 0.7874015748031497
          },
          {
            "duration": 0.8823524999999677,
            "durationTicks": 150,
            "midi": 78,
            "name": "F#5",
            "ticks": 51090,
            "time": 300.5292615,
            "velocity": 0.7874015748031497
          },
          {
            "duration": 0.8823524999999677,
            "durationTicks": 150,
            "midi": 81,
            "name": "A5",
            "ticks": 51090,
            "time": 300.5292615,
            "velocity": 0.7874015748031497
          },
          {
            "duration": 0.17647050000005038,
            "durationTicks": 30,
            "midi": 76,
            "name": "E5",
            "ticks": 51270,
            "time": 301.5880845,
            "velocity": 0.7874015748031497
          },
          {
            "duration": 0.17647050000005038,
            "durationTicks": 30,
            "midi": 69,
            "name": "A4",
            "ticks": 51270,
            "time": 301.5880845,
            "velocity": 0.7874015748031497
          },
          {
            "duration": 0.17647050000005038,
            "durationTicks": 30,
            "midi": 66,
            "name": "F#4",
            "ticks": 51270,
            "time": 301.5880845,
            "velocity": 0.7874015748031497
          },
          {
            "duration": 0.17647049999999354,
            "durationTicks": 30,
            "midi": 69,
            "name": "A4",
            "ticks": 51330,
            "time": 301.9410255,
            "velocity": 0.7874015748031497
          },
          {
            "duration": 0.17647049999999354,
            "durationTicks": 30,
            "midi": 74,
            "name": "D5",
            "ticks": 51330,
            "time": 301.9410255,
            "velocity": 0.7874015748031497
          },
          {
            "duration": 0.17647049999999354,
            "durationTicks": 30,
            "midi": 78,
            "name": "F#5",
            "ticks": 51330,
            "time": 301.9410255,
            "velocity": 0.7874015748031497
          },
          {
            "duration": 0.7058819999999741,
            "durationTicks": 120,
            "midi": 80,
            "name": "G#5",
            "ticks": 51360,
            "time": 302.117496,
            "velocity": 0.7874015748031497
          },
          {
            "duration": 0.7058819999999741,
            "durationTicks": 120,
            "midi": 76,
            "name": "E5",
            "ticks": 51360,
            "time": 302.117496,
            "velocity": 0.7874015748031497
          },
          {
            "duration": 0.7058819999999741,
            "durationTicks": 120,
            "midi": 71,
            "name": "B4",
            "ticks": 51360,
            "time": 302.117496,
            "velocity": 0.7874015748031497
          },
          {
            "duration": 0.7058819999999741,
            "durationTicks": 120,
            "midi": 68,
            "name": "G#4",
            "ticks": 51360,
            "time": 302.117496,
            "velocity": 0.7874015748031497
          },
          {
            "duration": 0.17647049999999354,
            "durationTicks": 30,
            "midi": 76,
            "name": "E5",
            "ticks": 51600,
            "time": 303.52926,
            "velocity": 0.7874015748031497
          },
          {
            "duration": 0.17647049999999354,
            "durationTicks": 30,
            "midi": 71,
            "name": "B4",
            "ticks": 51600,
            "time": 303.52926,
            "velocity": 0.7874015748031497
          },
          {
            "duration": 0.17647049999999354,
            "durationTicks": 30,
            "midi": 68,
            "name": "G#4",
            "ticks": 51600,
            "time": 303.52926,
            "velocity": 0.7874015748031497
          },
          {
            "duration": 0.35294099999998707,
            "durationTicks": 60,
            "midi": 76,
            "name": "E5",
            "ticks": 51630,
            "time": 303.7057305,
            "velocity": 0.7874015748031497
          },
          {
            "duration": 0.35294099999998707,
            "durationTicks": 60,
            "midi": 71,
            "name": "B4",
            "ticks": 51630,
            "time": 303.7057305,
            "velocity": 0.7874015748031497
          },
          {
            "duration": 0.35294099999998707,
            "durationTicks": 60,
            "midi": 68,
            "name": "G#4",
            "ticks": 51630,
            "time": 303.7057305,
            "velocity": 0.7874015748031497
          },
          {
            "duration": 0.17647049999999354,
            "durationTicks": 30,
            "midi": 78,
            "name": "F#5",
            "ticks": 51690,
            "time": 304.0586715,
            "velocity": 0.7874015748031497
          },
          {
            "duration": 0.17647049999999354,
            "durationTicks": 30,
            "midi": 71,
            "name": "B4",
            "ticks": 51690,
            "time": 304.0586715,
            "velocity": 0.7874015748031497
          },
          {
            "duration": 0.17647049999999354,
            "durationTicks": 30,
            "midi": 68,
            "name": "G#4",
            "ticks": 51690,
            "time": 304.0586715,
            "velocity": 0.7874015748031497
          },
          {
            "duration": 0.17647049999999354,
            "durationTicks": 30,
            "midi": 80,
            "name": "G#5",
            "ticks": 51750,
            "time": 304.4116125,
            "velocity": 0.7874015748031497
          },
          {
            "duration": 0.17647049999999354,
            "durationTicks": 30,
            "midi": 76,
            "name": "E5",
            "ticks": 51750,
            "time": 304.4116125,
            "velocity": 0.7874015748031497
          },
          {
            "duration": 0.17647049999999354,
            "durationTicks": 30,
            "midi": 71,
            "name": "B4",
            "ticks": 51750,
            "time": 304.4116125,
            "velocity": 0.7874015748031497
          },
          {
            "duration": 1.058823000000018,
            "durationTicks": 180,
            "midi": 62,
            "name": "D4",
            "ticks": 51810,
            "time": 304.7645535,
            "velocity": 0.7874015748031497
          },
          {
            "duration": 1.058823000000018,
            "durationTicks": 180,
            "midi": 66,
            "name": "F#4",
            "ticks": 51810,
            "time": 304.7645535,
            "velocity": 0.7874015748031497
          },
          {
            "duration": 1.058823000000018,
            "durationTicks": 180,
            "midi": 71,
            "name": "B4",
            "ticks": 51810,
            "time": 304.7645535,
            "velocity": 0.7874015748031497
          },
          {
            "duration": 0.35294099999998707,
            "durationTicks": 60,
            "midi": 78,
            "name": "F#5",
            "ticks": 51990,
            "time": 305.8233765,
            "velocity": 0.7874015748031497
          },
          {
            "duration": 0.35294099999998707,
            "durationTicks": 60,
            "midi": 71,
            "name": "B4",
            "ticks": 51990,
            "time": 305.8233765,
            "velocity": 0.7874015748031497
          },
          {
            "duration": 0.35294099999998707,
            "durationTicks": 60,
            "midi": 74,
            "name": "D5",
            "ticks": 51990,
            "time": 305.8233765,
            "velocity": 0.7874015748031497
          },
          {
            "duration": 1.058823000000018,
            "durationTicks": 180,
            "midi": 72,
            "name": "C5",
            "ticks": 52050,
            "time": 306.1763175,
            "velocity": 0.7874015748031497
          },
          {
            "duration": 1.058823000000018,
            "durationTicks": 180,
            "midi": 64,
            "name": "E4",
            "ticks": 52050,
            "time": 306.1763175,
            "velocity": 0.7874015748031497
          },
          {
            "duration": 1.058823000000018,
            "durationTicks": 180,
            "midi": 68,
            "name": "G#4",
            "ticks": 52050,
            "time": 306.1763175,
            "velocity": 0.7874015748031497
          },
          {
            "duration": 0.35294099999998707,
            "durationTicks": 60,
            "midi": 72,
            "name": "C5",
            "ticks": 52230,
            "time": 307.2351405,
            "velocity": 0.7874015748031497
          },
          {
            "duration": 0.35294099999998707,
            "durationTicks": 60,
            "midi": 76,
            "name": "E5",
            "ticks": 52230,
            "time": 307.2351405,
            "velocity": 0.7874015748031497
          },
          {
            "duration": 0.35294099999998707,
            "durationTicks": 60,
            "midi": 68,
            "name": "G#4",
            "ticks": 52230,
            "time": 307.2351405,
            "velocity": 0.7874015748031497
          },
          {
            "duration": 1.5882344999999987,
            "durationTicks": 270,
            "midi": 73,
            "name": "C#5",
            "ticks": 52290,
            "time": 307.5880815,
            "velocity": 0.7874015748031497
          },
          {
            "duration": 1.5882344999999987,
            "durationTicks": 270,
            "midi": 69,
            "name": "A4",
            "ticks": 52290,
            "time": 307.5880815,
            "velocity": 0.7874015748031497
          },
          {
            "duration": 1.5882344999999987,
            "durationTicks": 270,
            "midi": 64,
            "name": "E4",
            "ticks": 52290,
            "time": 307.5880815,
            "velocity": 0.7874015748031497
          },
          {
            "duration": 0.3529410000000439,
            "durationTicks": 60,
            "midi": 73,
            "name": "C#5",
            "ticks": 52560,
            "time": 309.176316,
            "velocity": 0.7874015748031497
          },
          {
            "duration": 0.17647049999999354,
            "durationTicks": 30,
            "midi": 76,
            "name": "E5",
            "ticks": 52620,
            "time": 309.52925700000003,
            "velocity": 0.7874015748031497
          },
          {
            "duration": 0.17647049999999354,
            "durationTicks": 30,
            "midi": 80,
            "name": "G#5",
            "ticks": 52650,
            "time": 309.7057275,
            "velocity": 0.7874015748031497
          },
          {
            "duration": 0.17647049999999354,
            "durationTicks": 30,
            "midi": 88,
            "name": "E6",
            "ticks": 52710,
            "time": 310.0586685,
            "velocity": 0.7874015748031497
          },
          {
            "duration": 2.2941165000000296,
            "durationTicks": 390,
            "midi": 72,
            "name": "C5",
            "ticks": 52770,
            "time": 310.4116095,
            "velocity": 0.7874015748031497
          },
          {
            "duration": 2.2941165000000296,
            "durationTicks": 390,
            "midi": 76,
            "name": "E5",
            "ticks": 52770,
            "time": 310.4116095,
            "velocity": 0.7874015748031497
          },
          {
            "duration": 2.2941165000000296,
            "durationTicks": 390,
            "midi": 80,
            "name": "G#5",
            "ticks": 52770,
            "time": 310.4116095,
            "velocity": 0.7874015748031497
          },
          {
            "duration": 2.2941165000000296,
            "durationTicks": 390,
            "midi": 84,
            "name": "C6",
            "ticks": 52770,
            "time": 310.4116095,
            "velocity": 0.7874015748031497
          },
          {
            "duration": 0.35294099999998707,
            "durationTicks": 60,
            "midi": 76,
            "name": "E5",
            "ticks": 53160,
            "time": 312.705726,
            "velocity": 0.7874015748031497
          },
          {
            "duration": 0.35294099999998707,
            "durationTicks": 60,
            "midi": 78,
            "name": "F#5",
            "ticks": 53220,
            "time": 313.058667,
            "velocity": 0.7874015748031497
          },
          {
            "duration": 0.35294099999998707,
            "durationTicks": 60,
            "midi": 71,
            "name": "B4",
            "ticks": 53280,
            "time": 313.411608,
            "velocity": 0.7874015748031497
          },
          {
            "duration": 0.35294099999998707,
            "durationTicks": 60,
            "midi": 76,
            "name": "E5",
            "ticks": 53280,
            "time": 313.411608,
            "velocity": 0.7874015748031497
          },
          {
            "duration": 0.35294099999998707,
            "durationTicks": 60,
            "midi": 80,
            "name": "G#5",
            "ticks": 53280,
            "time": 313.411608,
            "velocity": 0.7874015748031497
          },
          {
            "duration": 0.17647049999999354,
            "durationTicks": 30,
            "midi": 80,
            "name": "G#5",
            "ticks": 53340,
            "time": 313.764549,
            "velocity": 0.7874015748031497
          },
          {
            "duration": 0.17647049999999354,
            "durationTicks": 30,
            "midi": 76,
            "name": "E5",
            "ticks": 53340,
            "time": 313.764549,
            "velocity": 0.7874015748031497
          },
          {
            "duration": 0.17647049999999354,
            "durationTicks": 30,
            "midi": 71,
            "name": "B4",
            "ticks": 53340,
            "time": 313.764549,
            "velocity": 0.7874015748031497
          },
          {
            "duration": 0.17647050000005038,
            "durationTicks": 30,
            "midi": 80,
            "name": "G#5",
            "ticks": 53370,
            "time": 313.9410195,
            "velocity": 0.7874015748031497
          },
          {
            "duration": 0.17647050000005038,
            "durationTicks": 30,
            "midi": 76,
            "name": "E5",
            "ticks": 53370,
            "time": 313.9410195,
            "velocity": 0.7874015748031497
          },
          {
            "duration": 0.17647050000005038,
            "durationTicks": 30,
            "midi": 71,
            "name": "B4",
            "ticks": 53370,
            "time": 313.9410195,
            "velocity": 0.7874015748031497
          },
          {
            "duration": 0.17647049999999354,
            "durationTicks": 30,
            "midi": 76,
            "name": "E5",
            "ticks": 53430,
            "time": 314.2939605,
            "velocity": 0.7874015748031497
          },
          {
            "duration": 0.17647049999999354,
            "durationTicks": 30,
            "midi": 78,
            "name": "F#5",
            "ticks": 53490,
            "time": 314.6469015,
            "velocity": 0.7874015748031497
          },
          {
            "duration": 0.35294099999998707,
            "durationTicks": 60,
            "midi": 71,
            "name": "B4",
            "ticks": 53520,
            "time": 314.823372,
            "velocity": 0.7874015748031497
          },
          {
            "duration": 0.35294099999998707,
            "durationTicks": 60,
            "midi": 76,
            "name": "E5",
            "ticks": 53520,
            "time": 314.823372,
            "velocity": 0.7874015748031497
          },
          {
            "duration": 0.35294099999998707,
            "durationTicks": 60,
            "midi": 80,
            "name": "G#5",
            "ticks": 53520,
            "time": 314.823372,
            "velocity": 0.7874015748031497
          },
          {
            "duration": 0.17647049999999354,
            "durationTicks": 30,
            "midi": 71,
            "name": "B4",
            "ticks": 53580,
            "time": 315.176313,
            "velocity": 0.7874015748031497
          },
          {
            "duration": 0.17647049999999354,
            "durationTicks": 30,
            "midi": 76,
            "name": "E5",
            "ticks": 53580,
            "time": 315.176313,
            "velocity": 0.7874015748031497
          },
          {
            "duration": 0.17647049999999354,
            "durationTicks": 30,
            "midi": 80,
            "name": "G#5",
            "ticks": 53580,
            "time": 315.176313,
            "velocity": 0.7874015748031497
          },
          {
            "duration": 0.17647049999999354,
            "durationTicks": 30,
            "midi": 76,
            "name": "E5",
            "ticks": 53610,
            "time": 315.3527835,
            "velocity": 0.7874015748031497
          },
          {
            "duration": 0.17647049999999354,
            "durationTicks": 30,
            "midi": 71,
            "name": "B4",
            "ticks": 53610,
            "time": 315.3527835,
            "velocity": 0.7874015748031497
          },
          {
            "duration": 0.17647049999999354,
            "durationTicks": 30,
            "midi": 80,
            "name": "G#5",
            "ticks": 53610,
            "time": 315.3527835,
            "velocity": 0.7874015748031497
          },
          {
            "duration": 0.17647049999999354,
            "durationTicks": 30,
            "midi": 76,
            "name": "E5",
            "ticks": 53670,
            "time": 315.70572450000003,
            "velocity": 0.7874015748031497
          },
          {
            "duration": 0.17647049999999354,
            "durationTicks": 30,
            "midi": 78,
            "name": "F#5",
            "ticks": 53730,
            "time": 316.0586655,
            "velocity": 0.7874015748031497
          },
          {
            "duration": 0.35294099999998707,
            "durationTicks": 60,
            "midi": 73,
            "name": "C#5",
            "ticks": 53760,
            "time": 316.235136,
            "velocity": 0.7874015748031497
          },
          {
            "duration": 0.35294099999998707,
            "durationTicks": 60,
            "midi": 76,
            "name": "E5",
            "ticks": 53760,
            "time": 316.235136,
            "velocity": 0.7874015748031497
          },
          {
            "duration": 0.35294099999998707,
            "durationTicks": 60,
            "midi": 80,
            "name": "G#5",
            "ticks": 53760,
            "time": 316.235136,
            "velocity": 0.7874015748031497
          },
          {
            "duration": 0.17647049999999354,
            "durationTicks": 30,
            "midi": 73,
            "name": "C#5",
            "ticks": 53820,
            "time": 316.588077,
            "velocity": 0.7874015748031497
          },
          {
            "duration": 0.17647049999999354,
            "durationTicks": 30,
            "midi": 76,
            "name": "E5",
            "ticks": 53820,
            "time": 316.588077,
            "velocity": 0.7874015748031497
          },
          {
            "duration": 0.17647049999999354,
            "durationTicks": 30,
            "midi": 80,
            "name": "G#5",
            "ticks": 53820,
            "time": 316.588077,
            "velocity": 0.7874015748031497
          },
          {
            "duration": 0.17647049999999354,
            "durationTicks": 30,
            "midi": 73,
            "name": "C#5",
            "ticks": 53850,
            "time": 316.7645475,
            "velocity": 0.7874015748031497
          },
          {
            "duration": 0.17647049999999354,
            "durationTicks": 30,
            "midi": 76,
            "name": "E5",
            "ticks": 53850,
            "time": 316.7645475,
            "velocity": 0.7874015748031497
          },
          {
            "duration": 0.17647049999999354,
            "durationTicks": 30,
            "midi": 80,
            "name": "G#5",
            "ticks": 53850,
            "time": 316.7645475,
            "velocity": 0.7874015748031497
          },
          {
            "duration": 0.17647050000005038,
            "durationTicks": 30,
            "midi": 81,
            "name": "A5",
            "ticks": 53910,
            "time": 317.1174885,
            "velocity": 0.7874015748031497
          },
          {
            "duration": 0.17647050000005038,
            "durationTicks": 30,
            "midi": 76,
            "name": "E5",
            "ticks": 53910,
            "time": 317.1174885,
            "velocity": 0.7874015748031497
          },
          {
            "duration": 0.17647050000005038,
            "durationTicks": 30,
            "midi": 73,
            "name": "C#5",
            "ticks": 53910,
            "time": 317.1174885,
            "velocity": 0.7874015748031497
          },
          {
            "duration": 0.8823524999999677,
            "durationTicks": 150,
            "midi": 73,
            "name": "C#5",
            "ticks": 53970,
            "time": 317.4704295,
            "velocity": 0.7874015748031497
          },
          {
            "duration": 0.8823524999999677,
            "durationTicks": 150,
            "midi": 76,
            "name": "E5",
            "ticks": 53970,
            "time": 317.4704295,
            "velocity": 0.7874015748031497
          },
          {
            "duration": 0.8823524999999677,
            "durationTicks": 150,
            "midi": 83,
            "name": "B5",
            "ticks": 53970,
            "time": 317.4704295,
            "velocity": 0.7874015748031497
          },
          {
            "duration": 0.705882000000031,
            "durationTicks": 120,
            "midi": 84,
            "name": "C6",
            "ticks": 54120,
            "time": 318.352782,
            "velocity": 0.7874015748031497
          },
          {
            "duration": 0.705882000000031,
            "durationTicks": 120,
            "midi": 84,
            "name": "C6",
            "ticks": 54120,
            "time": 318.352782,
            "velocity": 0.7874015748031497
          },
          {
            "duration": 0.705882000000031,
            "durationTicks": 120,
            "midi": 81,
            "name": "A5",
            "ticks": 54120,
            "time": 318.352782,
            "velocity": 0.7874015748031497
          },
          {
            "duration": 0.705882000000031,
            "durationTicks": 120,
            "midi": 79,
            "name": "G5",
            "ticks": 54120,
            "time": 318.352782,
            "velocity": 0.7874015748031497
          },
          {
            "duration": 0.705882000000031,
            "durationTicks": 120,
            "midi": 75,
            "name": "D#5",
            "ticks": 54120,
            "time": 318.352782,
            "velocity": 0.7874015748031497
          },
          {
            "duration": 0.28823514999999134,
            "durationTicks": 49,
            "midi": 83,
            "name": "B5",
            "ticks": 54240,
            "time": 319.058664,
            "velocity": 0.7874015748031497
          },
          {
            "duration": 0.28823514999999134,
            "durationTicks": 49,
            "midi": 80,
            "name": "G#5",
            "ticks": 54240,
            "time": 319.058664,
            "velocity": 0.7874015748031497
          },
          {
            "duration": 0.28823514999999134,
            "durationTicks": 49,
            "midi": 71,
            "name": "B4",
            "ticks": 54240,
            "time": 319.058664,
            "velocity": 0.7874015748031497
          },
          {
            "duration": 0.28823514999999134,
            "durationTicks": 49,
            "midi": 75,
            "name": "D#5",
            "ticks": 54240,
            "time": 319.058664,
            "velocity": 0.7874015748031497
          },
          {
            "duration": 1.058823000000018,
            "durationTicks": 180,
            "midi": 67,
            "name": "G4",
            "ticks": 54690,
            "time": 321.7057215,
            "velocity": 0.7874015748031497
          },
          {
            "duration": 1.058823000000018,
            "durationTicks": 180,
            "midi": 72,
            "name": "C5",
            "ticks": 54690,
            "time": 321.7057215,
            "velocity": 0.7874015748031497
          },
          {
            "duration": 1.058823000000018,
            "durationTicks": 180,
            "midi": 76,
            "name": "E5",
            "ticks": 54690,
            "time": 321.7057215,
            "velocity": 0.7874015748031497
          },
          {
            "duration": 0.35294099999998707,
            "durationTicks": 60,
            "midi": 76,
            "name": "E5",
            "ticks": 54870,
            "time": 322.7645445,
            "velocity": 0.7874015748031497
          },
          {
            "duration": 0.35294099999998707,
            "durationTicks": 60,
            "midi": 72,
            "name": "C5",
            "ticks": 54870,
            "time": 322.7645445,
            "velocity": 0.7874015748031497
          },
          {
            "duration": 0.35294099999998707,
            "durationTicks": 60,
            "midi": 83,
            "name": "B5",
            "ticks": 54870,
            "time": 322.7645445,
            "velocity": 0.7874015748031497
          },
          {
            "duration": 0.8823525000000245,
            "durationTicks": 150,
            "midi": 72,
            "name": "C5",
            "ticks": 54930,
            "time": 323.1174855,
            "velocity": 0.7874015748031497
          },
          {
            "duration": 0.8823525000000245,
            "durationTicks": 150,
            "midi": 76,
            "name": "E5",
            "ticks": 54930,
            "time": 323.1174855,
            "velocity": 0.7874015748031497
          },
          {
            "duration": 0.8823525000000245,
            "durationTicks": 150,
            "midi": 78,
            "name": "F#5",
            "ticks": 54930,
            "time": 323.1174855,
            "velocity": 0.7874015748031497
          },
          {
            "duration": 0.8823525000000245,
            "durationTicks": 150,
            "midi": 81,
            "name": "A5",
            "ticks": 54930,
            "time": 323.1174855,
            "velocity": 0.7874015748031497
          },
          {
            "duration": 0.17647049999999354,
            "durationTicks": 30,
            "midi": 76,
            "name": "E5",
            "ticks": 55110,
            "time": 324.1763085,
            "velocity": 0.7874015748031497
          },
          {
            "duration": 0.17647049999999354,
            "durationTicks": 30,
            "midi": 69,
            "name": "A4",
            "ticks": 55110,
            "time": 324.1763085,
            "velocity": 0.7874015748031497
          },
          {
            "duration": 0.17647049999999354,
            "durationTicks": 30,
            "midi": 66,
            "name": "F#4",
            "ticks": 55110,
            "time": 324.1763085,
            "velocity": 0.7874015748031497
          },
          {
            "duration": 0.17647049999999354,
            "durationTicks": 30,
            "midi": 69,
            "name": "A4",
            "ticks": 55170,
            "time": 324.5292495,
            "velocity": 0.7874015748031497
          },
          {
            "duration": 0.17647049999999354,
            "durationTicks": 30,
            "midi": 74,
            "name": "D5",
            "ticks": 55170,
            "time": 324.5292495,
            "velocity": 0.7874015748031497
          },
          {
            "duration": 0.17647049999999354,
            "durationTicks": 30,
            "midi": 78,
            "name": "F#5",
            "ticks": 55170,
            "time": 324.5292495,
            "velocity": 0.7874015748031497
          },
          {
            "duration": 0.2882351500000482,
            "durationTicks": 49,
            "midi": 80,
            "name": "G#5",
            "ticks": 55200,
            "time": 324.70572,
            "velocity": 0.7874015748031497
          },
          {
            "duration": 0.2882351500000482,
            "durationTicks": 49,
            "midi": 76,
            "name": "E5",
            "ticks": 55200,
            "time": 324.70572,
            "velocity": 0.7874015748031497
          },
          {
            "duration": 0.2882351500000482,
            "durationTicks": 49,
            "midi": 71,
            "name": "B4",
            "ticks": 55200,
            "time": 324.70572,
            "velocity": 0.7874015748031497
          },
          {
            "duration": 0.2882351500000482,
            "durationTicks": 49,
            "midi": 68,
            "name": "G#4",
            "ticks": 55200,
            "time": 324.70572,
            "velocity": 0.7874015748031497
          },
          {
            "duration": 1.058823000000018,
            "durationTicks": 180,
            "midi": 62,
            "name": "D4",
            "ticks": 55650,
            "time": 327.3527775,
            "velocity": 0.7874015748031497
          },
          {
            "duration": 1.058823000000018,
            "durationTicks": 180,
            "midi": 66,
            "name": "F#4",
            "ticks": 55650,
            "time": 327.3527775,
            "velocity": 0.7874015748031497
          },
          {
            "duration": 1.058823000000018,
            "durationTicks": 180,
            "midi": 71,
            "name": "B4",
            "ticks": 55650,
            "time": 327.3527775,
            "velocity": 0.7874015748031497
          },
          {
            "duration": 0.35294099999998707,
            "durationTicks": 60,
            "midi": 78,
            "name": "F#5",
            "ticks": 55830,
            "time": 328.4116005,
            "velocity": 0.7874015748031497
          },
          {
            "duration": 0.35294099999998707,
            "durationTicks": 60,
            "midi": 71,
            "name": "B4",
            "ticks": 55830,
            "time": 328.4116005,
            "velocity": 0.7874015748031497
          },
          {
            "duration": 0.35294099999998707,
            "durationTicks": 60,
            "midi": 74,
            "name": "D5",
            "ticks": 55830,
            "time": 328.4116005,
            "velocity": 0.7874015748031497
          },
          {
            "duration": 1.058823000000018,
            "durationTicks": 180,
            "midi": 72,
            "name": "C5",
            "ticks": 55890,
            "time": 328.7645415,
            "velocity": 0.7874015748031497
          },
          {
            "duration": 1.058823000000018,
            "durationTicks": 180,
            "midi": 64,
            "name": "E4",
            "ticks": 55890,
            "time": 328.7645415,
            "velocity": 0.7874015748031497
          },
          {
            "duration": 1.058823000000018,
            "durationTicks": 180,
            "midi": 68,
            "name": "G#4",
            "ticks": 55890,
            "time": 328.7645415,
            "velocity": 0.7874015748031497
          },
          {
            "duration": 0.35294099999998707,
            "durationTicks": 60,
            "midi": 72,
            "name": "C5",
            "ticks": 56070,
            "time": 329.8233645,
            "velocity": 0.7874015748031497
          },
          {
            "duration": 0.35294099999998707,
            "durationTicks": 60,
            "midi": 76,
            "name": "E5",
            "ticks": 56070,
            "time": 329.8233645,
            "velocity": 0.7874015748031497
          },
          {
            "duration": 0.35294099999998707,
            "durationTicks": 60,
            "midi": 68,
            "name": "G#4",
            "ticks": 56070,
            "time": 329.8233645,
            "velocity": 0.7874015748031497
          },
          {
            "duration": 1.5882344999999987,
            "durationTicks": 270,
            "midi": 73,
            "name": "C#5",
            "ticks": 56130,
            "time": 330.1763055,
            "velocity": 0.7874015748031497
          },
          {
            "duration": 1.5882344999999987,
            "durationTicks": 270,
            "midi": 69,
            "name": "A4",
            "ticks": 56130,
            "time": 330.1763055,
            "velocity": 0.7874015748031497
          },
          {
            "duration": 1.5882344999999987,
            "durationTicks": 270,
            "midi": 64,
            "name": "E4",
            "ticks": 56130,
            "time": 330.1763055,
            "velocity": 0.7874015748031497
          },
          {
            "duration": 0.35294099999998707,
            "durationTicks": 60,
            "midi": 73,
            "name": "C#5",
            "ticks": 56400,
            "time": 331.76454,
            "velocity": 0.7874015748031497
          },
          {
            "duration": 0.17647049999999354,
            "durationTicks": 30,
            "midi": 76,
            "name": "E5",
            "ticks": 56460,
            "time": 332.117481,
            "velocity": 0.7874015748031497
          },
          {
            "duration": 0.17647049999999354,
            "durationTicks": 30,
            "midi": 80,
            "name": "G#5",
            "ticks": 56490,
            "time": 332.2939515,
            "velocity": 0.7874015748031497
          },
          {
            "duration": 0.17647050000005038,
            "durationTicks": 30,
            "midi": 88,
            "name": "E6",
            "ticks": 56550,
            "time": 332.6468925,
            "velocity": 0.7874015748031497
          },
          {
            "duration": 2.294116499999973,
            "durationTicks": 390,
            "midi": 72,
            "name": "C5",
            "ticks": 56610,
            "time": 332.9998335,
            "velocity": 0.7874015748031497
          },
          {
            "duration": 2.294116499999973,
            "durationTicks": 390,
            "midi": 76,
            "name": "E5",
            "ticks": 56610,
            "time": 332.9998335,
            "velocity": 0.7874015748031497
          },
          {
            "duration": 2.294116499999973,
            "durationTicks": 390,
            "midi": 80,
            "name": "G#5",
            "ticks": 56610,
            "time": 332.9998335,
            "velocity": 0.7874015748031497
          },
          {
            "duration": 2.294116499999973,
            "durationTicks": 390,
            "midi": 84,
            "name": "C6",
            "ticks": 56610,
            "time": 332.9998335,
            "velocity": 0.7874015748031497
          },
          {
            "duration": 0.35294099999998707,
            "durationTicks": 60,
            "midi": 76,
            "name": "E5",
            "ticks": 57000,
            "time": 335.29395,
            "velocity": 0.7874015748031497
          },
          {
            "duration": 0.3529410000000439,
            "durationTicks": 60,
            "midi": 78,
            "name": "F#5",
            "ticks": 57060,
            "time": 335.646891,
            "velocity": 0.7874015748031497
          },
          {
            "duration": 0.35294099999998707,
            "durationTicks": 60,
            "midi": 71,
            "name": "B4",
            "ticks": 57120,
            "time": 335.999832,
            "velocity": 0.7874015748031497
          },
          {
            "duration": 0.35294099999998707,
            "durationTicks": 60,
            "midi": 76,
            "name": "E5",
            "ticks": 57120,
            "time": 335.999832,
            "velocity": 0.7874015748031497
          },
          {
            "duration": 0.17647049999999354,
            "durationTicks": 30,
            "midi": 80,
            "name": "G#5",
            "ticks": 57180,
            "time": 336.352773,
            "velocity": 0.7874015748031497
          },
          {
            "duration": 0.17647049999999354,
            "durationTicks": 30,
            "midi": 76,
            "name": "E5",
            "ticks": 57180,
            "time": 336.352773,
            "velocity": 0.7874015748031497
          },
          {
            "duration": 0.17647049999999354,
            "durationTicks": 30,
            "midi": 71,
            "name": "B4",
            "ticks": 57180,
            "time": 336.352773,
            "velocity": 0.7874015748031497
          },
          {
            "duration": 0.17647049999999354,
            "durationTicks": 30,
            "midi": 80,
            "name": "G#5",
            "ticks": 57210,
            "time": 336.5292435,
            "velocity": 0.7874015748031497
          },
          {
            "duration": 0.17647049999999354,
            "durationTicks": 30,
            "midi": 76,
            "name": "E5",
            "ticks": 57210,
            "time": 336.5292435,
            "velocity": 0.7874015748031497
          },
          {
            "duration": 0.17647049999999354,
            "durationTicks": 30,
            "midi": 71,
            "name": "B4",
            "ticks": 57210,
            "time": 336.5292435,
            "velocity": 0.7874015748031497
          },
          {
            "duration": 0.17647049999999354,
            "durationTicks": 30,
            "midi": 76,
            "name": "E5",
            "ticks": 57270,
            "time": 336.8821845,
            "velocity": 0.7874015748031497
          },
          {
            "duration": 0.17647050000005038,
            "durationTicks": 30,
            "midi": 78,
            "name": "F#5",
            "ticks": 57330,
            "time": 337.2351255,
            "velocity": 0.7874015748031497
          },
          {
            "duration": 0.35294099999998707,
            "durationTicks": 60,
            "midi": 76,
            "name": "E5",
            "ticks": 57360,
            "time": 337.41159600000003,
            "velocity": 0.7874015748031497
          },
          {
            "duration": 0.35294099999998707,
            "durationTicks": 60,
            "midi": 71,
            "name": "B4",
            "ticks": 57360,
            "time": 337.41159600000003,
            "velocity": 0.7874015748031497
          },
          {
            "duration": 0.35294099999998707,
            "durationTicks": 60,
            "midi": 80,
            "name": "G#5",
            "ticks": 57360,
            "time": 337.41159600000003,
            "velocity": 0.7874015748031497
          },
          {
            "duration": 0.17647049999999354,
            "durationTicks": 30,
            "midi": 71,
            "name": "B4",
            "ticks": 57420,
            "time": 337.764537,
            "velocity": 0.7874015748031497
          },
          {
            "duration": 0.17647049999999354,
            "durationTicks": 30,
            "midi": 76,
            "name": "E5",
            "ticks": 57420,
            "time": 337.764537,
            "velocity": 0.7874015748031497
          },
          {
            "duration": 0.17647049999999354,
            "durationTicks": 30,
            "midi": 80,
            "name": "G#5",
            "ticks": 57420,
            "time": 337.764537,
            "velocity": 0.7874015748031497
          },
          {
            "duration": 0.17647049999999354,
            "durationTicks": 30,
            "midi": 76,
            "name": "E5",
            "ticks": 57450,
            "time": 337.9410075,
            "velocity": 0.7874015748031497
          },
          {
            "duration": 0.17647049999999354,
            "durationTicks": 30,
            "midi": 71,
            "name": "B4",
            "ticks": 57450,
            "time": 337.9410075,
            "velocity": 0.7874015748031497
          },
          {
            "duration": 0.17647049999999354,
            "durationTicks": 30,
            "midi": 80,
            "name": "G#5",
            "ticks": 57450,
            "time": 337.9410075,
            "velocity": 0.7874015748031497
          },
          {
            "duration": 0.17647049999999354,
            "durationTicks": 30,
            "midi": 76,
            "name": "E5",
            "ticks": 57510,
            "time": 338.2939485,
            "velocity": 0.7874015748031497
          },
          {
            "duration": 0.17647049999999354,
            "durationTicks": 30,
            "midi": 78,
            "name": "F#5",
            "ticks": 57570,
            "time": 338.6468895,
            "velocity": 0.7874015748031497
          },
          {
            "duration": 0.3529410000000439,
            "durationTicks": 60,
            "midi": 73,
            "name": "C#5",
            "ticks": 57600,
            "time": 338.82336,
            "velocity": 0.7874015748031497
          },
          {
            "duration": 0.3529410000000439,
            "durationTicks": 60,
            "midi": 76,
            "name": "E5",
            "ticks": 57600,
            "time": 338.82336,
            "velocity": 0.7874015748031497
          },
          {
            "duration": 0.3529410000000439,
            "durationTicks": 60,
            "midi": 80,
            "name": "G#5",
            "ticks": 57600,
            "time": 338.82336,
            "velocity": 0.7874015748031497
          },
          {
            "duration": 0.17647049999999354,
            "durationTicks": 30,
            "midi": 73,
            "name": "C#5",
            "ticks": 57660,
            "time": 339.176301,
            "velocity": 0.7874015748031497
          },
          {
            "duration": 0.17647049999999354,
            "durationTicks": 30,
            "midi": 76,
            "name": "E5",
            "ticks": 57660,
            "time": 339.176301,
            "velocity": 0.7874015748031497
          },
          {
            "duration": 0.17647049999999354,
            "durationTicks": 30,
            "midi": 80,
            "name": "G#5",
            "ticks": 57660,
            "time": 339.176301,
            "velocity": 0.7874015748031497
          },
          {
            "duration": 0.17647049999999354,
            "durationTicks": 30,
            "midi": 73,
            "name": "C#5",
            "ticks": 57690,
            "time": 339.3527715,
            "velocity": 0.7874015748031497
          },
          {
            "duration": 0.17647049999999354,
            "durationTicks": 30,
            "midi": 76,
            "name": "E5",
            "ticks": 57690,
            "time": 339.3527715,
            "velocity": 0.7874015748031497
          },
          {
            "duration": 0.17647049999999354,
            "durationTicks": 30,
            "midi": 80,
            "name": "G#5",
            "ticks": 57690,
            "time": 339.3527715,
            "velocity": 0.7874015748031497
          },
          {
            "duration": 0.17647049999999354,
            "durationTicks": 30,
            "midi": 73,
            "name": "C#5",
            "ticks": 57750,
            "time": 339.7057125,
            "velocity": 0.7874015748031497
          },
          {
            "duration": 0.17647049999999354,
            "durationTicks": 30,
            "midi": 81,
            "name": "A5",
            "ticks": 57750,
            "time": 339.7057125,
            "velocity": 0.7874015748031497
          },
          {
            "duration": 0.17647049999999354,
            "durationTicks": 30,
            "midi": 76,
            "name": "E5",
            "ticks": 57750,
            "time": 339.7057125,
            "velocity": 0.7874015748031497
          },
          {
            "duration": 1.0529406500000391,
            "durationTicks": 179,
            "midi": 72,
            "name": "C5",
            "ticks": 57810,
            "time": 340.0586535,
            "velocity": 0.7874015748031497
          },
          {
            "duration": 1.5882344999999987,
            "durationTicks": 270,
            "midi": 76,
            "name": "E5",
            "ticks": 57810,
            "time": 340.0586535,
            "velocity": 0.7874015748031497
          },
          {
            "duration": 1.5882344999999987,
            "durationTicks": 270,
            "midi": 83,
            "name": "B5",
            "ticks": 57810,
            "time": 340.0586535,
            "velocity": 0.7874015748031497
          },
          {
            "duration": 0.34705865000000813,
            "durationTicks": 59,
            "midi": 71,
            "name": "B4",
            "ticks": 57840,
            "time": 340.235124,
            "velocity": 0.7874015748031497
          },
          {
            "duration": 0.17058814999995775,
            "durationTicks": 29,
            "midi": 71,
            "name": "B4",
            "ticks": 57900,
            "time": 340.58806500000003,
            "velocity": 0.7874015748031497
          },
          {
            "duration": 0.17647049999999354,
            "durationTicks": 30,
            "midi": 71,
            "name": "B4",
            "ticks": 57930,
            "time": 340.7645355,
            "velocity": 0.7874015748031497
          },
          {
            "duration": 0.22941164999997454,
            "durationTicks": 39,
            "midi": 72,
            "name": "C5",
            "ticks": 57990,
            "time": 341.1174765,
            "velocity": 0.7874015748031497
          },
          {
            "duration": 1.5882344999999987,
            "durationTicks": 270,
            "midi": 74,
            "name": "D5",
            "ticks": 58050,
            "time": 341.4704175,
            "velocity": 0.7874015748031497
          },
          {
            "duration": 0.34705865000000813,
            "durationTicks": 59,
            "midi": 72,
            "name": "C5",
            "ticks": 58080,
            "time": 341.646888,
            "velocity": 0.7874015748031497
          },
          {
            "duration": 0.35294099999998707,
            "durationTicks": 60,
            "midi": 83,
            "name": "B5",
            "ticks": 58080,
            "time": 341.646888,
            "velocity": 0.7874015748031497
          },
          {
            "duration": 0.35294099999998707,
            "durationTicks": 60,
            "midi": 76,
            "name": "E5",
            "ticks": 58080,
            "time": 341.646888,
            "velocity": 0.7874015748031497
          },
          {
            "duration": 0.1705881500000146,
            "durationTicks": 29,
            "midi": 72,
            "name": "C5",
            "ticks": 58140,
            "time": 341.999829,
            "velocity": 0.7874015748031497
          },
          {
            "duration": 0.17647050000005038,
            "durationTicks": 30,
            "midi": 83,
            "name": "B5",
            "ticks": 58140,
            "time": 341.999829,
            "velocity": 0.7874015748031497
          },
          {
            "duration": 0.17647050000005038,
            "durationTicks": 30,
            "midi": 76,
            "name": "E5",
            "ticks": 58140,
            "time": 341.999829,
            "velocity": 0.7874015748031497
          },
          {
            "duration": 0.17647049999999354,
            "durationTicks": 30,
            "midi": 72,
            "name": "C5",
            "ticks": 58170,
            "time": 342.1762995,
            "velocity": 0.7874015748031497
          },
          {
            "duration": 0.17647049999999354,
            "durationTicks": 30,
            "midi": 83,
            "name": "B5",
            "ticks": 58170,
            "time": 342.1762995,
            "velocity": 0.7874015748031497
          },
          {
            "duration": 0.17647049999999354,
            "durationTicks": 30,
            "midi": 76,
            "name": "E5",
            "ticks": 58170,
            "time": 342.1762995,
            "velocity": 0.7874015748031497
          },
          {
            "duration": 0.17647049999999354,
            "durationTicks": 30,
            "midi": 84,
            "name": "C6",
            "ticks": 58230,
            "time": 342.5292405,
            "velocity": 0.7874015748031497
          },
          {
            "duration": 0.17647049999999354,
            "durationTicks": 30,
            "midi": 76,
            "name": "E5",
            "ticks": 58230,
            "time": 342.5292405,
            "velocity": 0.7874015748031497
          },
          {
            "duration": 0.17647049999999354,
            "durationTicks": 30,
            "midi": 79,
            "name": "G5",
            "ticks": 58230,
            "time": 342.5292405,
            "velocity": 0.7874015748031497
          },
          {
            "duration": 1.4117640000000051,
            "durationTicks": 240,
            "midi": 86,
            "name": "D6",
            "ticks": 58290,
            "time": 342.8821815,
            "velocity": 0.7874015748031497
          },
          {
            "duration": 1.4117640000000051,
            "durationTicks": 240,
            "midi": 82,
            "name": "A#5",
            "ticks": 58290,
            "time": 342.8821815,
            "velocity": 0.7874015748031497
          },
          {
            "duration": 1.4117640000000051,
            "durationTicks": 240,
            "midi": 79,
            "name": "G5",
            "ticks": 58290,
            "time": 342.8821815,
            "velocity": 0.7874015748031497
          },
          {
            "duration": 1.0529406499999823,
            "durationTicks": 179,
            "midi": 75,
            "name": "D#5",
            "ticks": 58290,
            "time": 342.8821815,
            "velocity": 0.7874015748031497
          },
          {
            "duration": 0.34705865000000813,
            "durationTicks": 59,
            "midi": 74,
            "name": "D5",
            "ticks": 58320,
            "time": 343.058652,
            "velocity": 0.7874015748031497
          },
          {
            "duration": 0.1705881500000146,
            "durationTicks": 29,
            "midi": 74,
            "name": "D5",
            "ticks": 58380,
            "time": 343.411593,
            "velocity": 0.7874015748031497
          },
          {
            "duration": 0.17058814999995775,
            "durationTicks": 29,
            "midi": 74,
            "name": "D5",
            "ticks": 58410,
            "time": 343.58806350000003,
            "velocity": 0.7874015748031497
          },
          {
            "duration": 0.22941164999997454,
            "durationTicks": 39,
            "midi": 75,
            "name": "D#5",
            "ticks": 58470,
            "time": 343.9410045,
            "velocity": 0.7874015748031497
          },
          {
            "duration": 1.4058816500000262,
            "durationTicks": 239,
            "midi": 77,
            "name": "F5",
            "ticks": 58530,
            "time": 344.2939455,
            "velocity": 0.7874015748031497
          },
          {
            "duration": 1.4117640000000051,
            "durationTicks": 240,
            "midi": 89,
            "name": "F6",
            "ticks": 58530,
            "time": 344.2939455,
            "velocity": 0.7874015748031497
          },
          {
            "duration": 1.4117640000000051,
            "durationTicks": 240,
            "midi": 85,
            "name": "C#6",
            "ticks": 58530,
            "time": 344.2939455,
            "velocity": 0.7874015748031497
          },
          {
            "duration": 1.4117640000000051,
            "durationTicks": 240,
            "midi": 82,
            "name": "A#5",
            "ticks": 58530,
            "time": 344.2939455,
            "velocity": 0.7874015748031497
          },
          {
            "duration": 1.4117640000000051,
            "durationTicks": 240,
            "midi": 78,
            "name": "F#5",
            "ticks": 58530,
            "time": 344.2939455,
            "velocity": 0.7874015748031497
          },
          {
            "duration": 3.288233649999995,
            "durationTicks": 559,
            "midi": 76,
            "name": "E5",
            "ticks": 58770,
            "time": 345.7057095,
            "velocity": 0.7874015748031497
          },
          {
            "duration": 3.288233649999995,
            "durationTicks": 559,
            "midi": 72,
            "name": "C5",
            "ticks": 58770,
            "time": 345.7057095,
            "velocity": 0.7874015748031497
          },
          {
            "duration": 3.288233649999995,
            "durationTicks": 559,
            "midi": 67,
            "name": "G4",
            "ticks": 58770,
            "time": 345.7057095,
            "velocity": 0.7874015748031497
          },
          {
            "duration": 3.288233649999995,
            "durationTicks": 559,
            "midi": 88,
            "name": "E6",
            "ticks": 58770,
            "time": 345.7057095,
            "velocity": 0.7874015748031497
          },
          {
            "duration": 3.288233649999995,
            "durationTicks": 559,
            "midi": 84,
            "name": "C6",
            "ticks": 58770,
            "time": 345.7057095,
            "velocity": 0.7874015748031497
          },
          {
            "duration": 3.288233649999995,
            "durationTicks": 559,
            "midi": 79,
            "name": "G5",
            "ticks": 58770,
            "time": 345.7057095,
            "velocity": 0.7874015748031497
          },
          {
            "duration": 3.288233649999995,
            "durationTicks": 559,
            "midi": 91,
            "name": "G6",
            "ticks": 58770,
            "time": 345.7057095,
            "velocity": 0.7874015748031497
          }
        ]
      },
      {
        "channel": 4,
        "controlChanges": {},
        "pitchBends": [],
        "instrument": {
          "family": "piano",
          "number": 1,
          "name": "bright acoustic piano"
        },
        "name": "Piano L.H.",
        "notes": [
          {
            "duration": 2.58235165,
            "durationTicks": 439,
            "midi": 61,
            "name": "C#4",
            "ticks": 480,
            "time": 2.823528,
            "velocity": 0.7874015748031497
          },
          {
            "duration": 2.17058715,
            "durationTicks": 369,
            "midi": 69,
            "name": "A4",
            "ticks": 480,
            "time": 2.823528,
            "velocity": 0.7874015748031497
          },
          {
            "duration": 1.99411665,
            "durationTicks": 339,
            "midi": 66,
            "name": "F#4",
            "ticks": 480,
            "time": 2.823528,
            "velocity": 0.7874015748031497
          },
          {
            "duration": 2.58235165,
            "durationTicks": 439,
            "midi": 62,
            "name": "D4",
            "ticks": 480,
            "time": 2.823528,
            "velocity": 0.7874015748031497
          },
          {
            "duration": 0.46470564999999997,
            "durationTicks": 79,
            "midi": 66,
            "name": "F#4",
            "ticks": 840,
            "time": 4.941174,
            "velocity": 0.7874015748031497
          },
          {
            "duration": 0.2882351500000002,
            "durationTicks": 49,
            "midi": 69,
            "name": "A4",
            "ticks": 870,
            "time": 5.1176445,
            "velocity": 0.7874015748031497
          },
          {
            "duration": 0.9352936499999993,
            "durationTicks": 159,
            "midi": 67,
            "name": "G4",
            "ticks": 930,
            "time": 5.4705855,
            "velocity": 0.7874015748031497
          },
          {
            "duration": 0.7588231499999996,
            "durationTicks": 129,
            "midi": 65,
            "name": "F4",
            "ticks": 930,
            "time": 5.4705855,
            "velocity": 0.7874015748031497
          },
          {
            "duration": 1.2882346499999997,
            "durationTicks": 219,
            "midi": 62,
            "name": "D4",
            "ticks": 930,
            "time": 5.4705855,
            "velocity": 0.7874015748031497
          },
          {
            "duration": 1.2882346499999997,
            "durationTicks": 219,
            "midi": 58,
            "name": "A#3",
            "ticks": 930,
            "time": 5.4705855,
            "velocity": 0.7874015748031497
          },
          {
            "duration": 0.17647049999999975,
            "durationTicks": 30,
            "midi": 65,
            "name": "F4",
            "ticks": 1080,
            "time": 6.352938,
            "velocity": 0.7874015748031497
          },
          {
            "duration": 0.17647050000000064,
            "durationTicks": 30,
            "midi": 67,
            "name": "G4",
            "ticks": 1110,
            "time": 6.5294085,
            "velocity": 0.7874015748031497
          },
          {
            "duration": 0.17647049999999975,
            "durationTicks": 30,
            "midi": 65,
            "name": "F4",
            "ticks": 1140,
            "time": 6.705879,
            "velocity": 0.7874015748031497
          },
          {
            "duration": 0.8823524999999997,
            "durationTicks": 150,
            "midi": 64,
            "name": "E4",
            "ticks": 1170,
            "time": 6.8823495,
            "velocity": 0.7874015748031497
          },
          {
            "duration": 0.8823524999999997,
            "durationTicks": 150,
            "midi": 67,
            "name": "G4",
            "ticks": 1170,
            "time": 6.8823495,
            "velocity": 0.7874015748031497
          },
          {
            "duration": 0.8823524999999997,
            "durationTicks": 150,
            "midi": 62,
            "name": "D4",
            "ticks": 1170,
            "time": 6.8823495,
            "velocity": 0.7874015748031497
          },
          {
            "duration": 0.8823524999999997,
            "durationTicks": 150,
            "midi": 58,
            "name": "A#3",
            "ticks": 1170,
            "time": 6.8823495,
            "velocity": 0.7874015748031497
          },
          {
            "duration": 0.4647056499999991,
            "durationTicks": 79,
            "midi": 62,
            "name": "D4",
            "ticks": 1350,
            "time": 7.9411725,
            "velocity": 0.7874015748031497
          },
          {
            "duration": 0.4647056499999991,
            "durationTicks": 79,
            "midi": 67,
            "name": "G4",
            "ticks": 1350,
            "time": 7.9411725,
            "velocity": 0.7874015748031497
          },
          {
            "duration": 0.4647056499999991,
            "durationTicks": 79,
            "midi": 59,
            "name": "B3",
            "ticks": 1350,
            "time": 7.9411725,
            "velocity": 0.7874015748031497
          },
          {
            "duration": 0.4647056499999991,
            "durationTicks": 79,
            "midi": 71,
            "name": "B4",
            "ticks": 1350,
            "time": 7.9411725,
            "velocity": 0.7874015748031497
          },
          {
            "duration": 1.9411755,
            "durationTicks": 330,
            "midi": 69,
            "name": "A4",
            "ticks": 1440,
            "time": 8.470584,
            "velocity": 0.7874015748031497
          },
          {
            "duration": 1.9411755,
            "durationTicks": 330,
            "midi": 66,
            "name": "F#4",
            "ticks": 1440,
            "time": 8.470584,
            "velocity": 0.7874015748031497
          },
          {
            "duration": 1.8176461499999998,
            "durationTicks": 309,
            "midi": 61,
            "name": "C#4",
            "ticks": 1440,
            "time": 8.470584,
            "velocity": 0.7874015748031497
          },
          {
            "duration": 1.9411755,
            "durationTicks": 330,
            "midi": 62,
            "name": "D4",
            "ticks": 1440,
            "time": 8.470584,
            "velocity": 0.7874015748031497
          },
          {
            "duration": 0.5823526499999989,
            "durationTicks": 99,
            "midi": 61,
            "name": "C#4",
            "ticks": 1770,
            "time": 10.4117595,
            "velocity": 0.7874015748031497
          },
          {
            "duration": 0.40588215000000005,
            "durationTicks": 69,
            "midi": 62,
            "name": "D4",
            "ticks": 1800,
            "time": 10.58823,
            "velocity": 0.7874015748031497
          },
          {
            "duration": 0.17647050000000064,
            "durationTicks": 30,
            "midi": 69,
            "name": "A4",
            "ticks": 1830,
            "time": 10.7647005,
            "velocity": 0.7874015748031497
          },
          {
            "duration": 0.17647049999999886,
            "durationTicks": 30,
            "midi": 66,
            "name": "F#4",
            "ticks": 1860,
            "time": 10.941171,
            "velocity": 0.7874015748031497
          },
          {
            "duration": 0.8823525000000014,
            "durationTicks": 150,
            "midi": 67,
            "name": "G4",
            "ticks": 1890,
            "time": 11.1176415,
            "velocity": 0.7874015748031497
          },
          {
            "duration": 0.8823525000000014,
            "durationTicks": 150,
            "midi": 62,
            "name": "D4",
            "ticks": 1890,
            "time": 11.1176415,
            "velocity": 0.7874015748031497
          },
          {
            "duration": 1.235293500000001,
            "durationTicks": 210,
            "midi": 58,
            "name": "A#3",
            "ticks": 1890,
            "time": 11.1176415,
            "velocity": 0.7874015748031497
          },
          {
            "duration": 0.17647049999999886,
            "durationTicks": 30,
            "midi": 65,
            "name": "F4",
            "ticks": 2040,
            "time": 11.999994000000001,
            "velocity": 0.7874015748031497
          },
          {
            "duration": 0.17647050000000064,
            "durationTicks": 30,
            "midi": 67,
            "name": "G4",
            "ticks": 2070,
            "time": 12.1764645,
            "velocity": 0.7874015748031497
          },
          {
            "duration": 0.17647049999999886,
            "durationTicks": 30,
            "midi": 65,
            "name": "F4",
            "ticks": 2100,
            "time": 12.352935,
            "velocity": 0.7874015748031497
          },
          {
            "duration": 0.8823525000000014,
            "durationTicks": 150,
            "midi": 64,
            "name": "E4",
            "ticks": 2130,
            "time": 12.5294055,
            "velocity": 0.7874015748031497
          },
          {
            "duration": 0.8823525000000014,
            "durationTicks": 150,
            "midi": 67,
            "name": "G4",
            "ticks": 2130,
            "time": 12.5294055,
            "velocity": 0.7874015748031497
          },
          {
            "duration": 0.8823525000000014,
            "durationTicks": 150,
            "midi": 58,
            "name": "A#3",
            "ticks": 2130,
            "time": 12.5294055,
            "velocity": 0.7874015748031497
          },
          {
            "duration": 0.8823525000000014,
            "durationTicks": 150,
            "midi": 62,
            "name": "D4",
            "ticks": 2130,
            "time": 12.5294055,
            "velocity": 0.7874015748031497
          },
          {
            "duration": 0.46470565000000263,
            "durationTicks": 79,
            "midi": 62,
            "name": "D4",
            "ticks": 2310,
            "time": 13.5882285,
            "velocity": 0.7874015748031497
          },
          {
            "duration": 0.46470565000000263,
            "durationTicks": 79,
            "midi": 67,
            "name": "G4",
            "ticks": 2310,
            "time": 13.5882285,
            "velocity": 0.7874015748031497
          },
          {
            "duration": 0.46470565000000263,
            "durationTicks": 79,
            "midi": 59,
            "name": "B3",
            "ticks": 2310,
            "time": 13.5882285,
            "velocity": 0.7874015748031497
          },
          {
            "duration": 0.46470565000000263,
            "durationTicks": 79,
            "midi": 71,
            "name": "B4",
            "ticks": 2310,
            "time": 13.5882285,
            "velocity": 0.7874015748031497
          },
          {
            "duration": 2.523528149999999,
            "durationTicks": 429,
            "midi": 61,
            "name": "C#4",
            "ticks": 2400,
            "time": 14.11764,
            "velocity": 0.7874015748031497
          },
          {
            "duration": 2.170587150000001,
            "durationTicks": 369,
            "midi": 69,
            "name": "A4",
            "ticks": 2400,
            "time": 14.11764,
            "velocity": 0.7874015748031497
          },
          {
            "duration": 1.9941166500000005,
            "durationTicks": 339,
            "midi": 66,
            "name": "F#4",
            "ticks": 2400,
            "time": 14.11764,
            "velocity": 0.7874015748031497
          },
          {
            "duration": 2.523528149999999,
            "durationTicks": 429,
            "midi": 62,
            "name": "D4",
            "ticks": 2400,
            "time": 14.11764,
            "velocity": 0.7874015748031497
          },
          {
            "duration": 0.17647050000000064,
            "durationTicks": 30,
            "midi": 66,
            "name": "F#4",
            "ticks": 2760,
            "time": 16.235286,
            "velocity": 0.7874015748031497
          },
          {
            "duration": 0.17647050000000064,
            "durationTicks": 30,
            "midi": 69,
            "name": "A4",
            "ticks": 2790,
            "time": 16.4117565,
            "velocity": 0.7874015748031497
          },
          {
            "duration": 0.17647050000000064,
            "durationTicks": 30,
            "midi": 66,
            "name": "F#4",
            "ticks": 2820,
            "time": 16.588227,
            "velocity": 0.7874015748031497
          },
          {
            "duration": 0.7588231499999978,
            "durationTicks": 129,
            "midi": 65,
            "name": "F4",
            "ticks": 2850,
            "time": 16.7646975,
            "velocity": 0.7874015748031497
          },
          {
            "duration": 0.9352936499999984,
            "durationTicks": 159,
            "midi": 67,
            "name": "G4",
            "ticks": 2850,
            "time": 16.7646975,
            "velocity": 0.7874015748031497
          },
          {
            "duration": 1.3470581500000023,
            "durationTicks": 229,
            "midi": 62,
            "name": "D4",
            "ticks": 2850,
            "time": 16.7646975,
            "velocity": 0.7874015748031497
          },
          {
            "duration": 1.3470581500000023,
            "durationTicks": 229,
            "midi": 58,
            "name": "A#3",
            "ticks": 2850,
            "time": 16.7646975,
            "velocity": 0.7874015748031497
          },
          {
            "duration": 0.17647050000000064,
            "durationTicks": 30,
            "midi": 65,
            "name": "F4",
            "ticks": 3000,
            "time": 17.64705,
            "velocity": 0.7874015748031497
          },
          {
            "duration": 0.17647050000000064,
            "durationTicks": 30,
            "midi": 67,
            "name": "G4",
            "ticks": 3030,
            "time": 17.8235205,
            "velocity": 0.7874015748031497
          },
          {
            "duration": 0.1764704999999971,
            "durationTicks": 30,
            "midi": 65,
            "name": "F4",
            "ticks": 3060,
            "time": 17.999991,
            "velocity": 0.7874015748031497
          },
          {
            "duration": 0.8823525000000032,
            "durationTicks": 150,
            "midi": 64,
            "name": "E4",
            "ticks": 3090,
            "time": 18.1764615,
            "velocity": 0.7874015748031497
          },
          {
            "duration": 0.8823525000000032,
            "durationTicks": 150,
            "midi": 62,
            "name": "D4",
            "ticks": 3090,
            "time": 18.1764615,
            "velocity": 0.7874015748031497
          },
          {
            "duration": 0.8823525000000032,
            "durationTicks": 150,
            "midi": 58,
            "name": "A#3",
            "ticks": 3090,
            "time": 18.1764615,
            "velocity": 0.7874015748031497
          },
          {
            "duration": 0.8823525000000032,
            "durationTicks": 150,
            "midi": 67,
            "name": "G4",
            "ticks": 3090,
            "time": 18.1764615,
            "velocity": 0.7874015748031497
          },
          {
            "duration": 0.46470565000000263,
            "durationTicks": 79,
            "midi": 62,
            "name": "D4",
            "ticks": 3270,
            "time": 19.2352845,
            "velocity": 0.7874015748031497
          },
          {
            "duration": 0.46470565000000263,
            "durationTicks": 79,
            "midi": 67,
            "name": "G4",
            "ticks": 3270,
            "time": 19.2352845,
            "velocity": 0.7874015748031497
          },
          {
            "duration": 0.46470565000000263,
            "durationTicks": 79,
            "midi": 59,
            "name": "B3",
            "ticks": 3270,
            "time": 19.2352845,
            "velocity": 0.7874015748031497
          },
          {
            "duration": 0.46470565000000263,
            "durationTicks": 79,
            "midi": 71,
            "name": "B4",
            "ticks": 3270,
            "time": 19.2352845,
            "velocity": 0.7874015748031497
          },
          {
            "duration": 2.1705871499999994,
            "durationTicks": 369,
            "midi": 69,
            "name": "A4",
            "ticks": 3360,
            "time": 19.764696,
            "velocity": 0.7874015748031497
          },
          {
            "duration": 2.5235281500000006,
            "durationTicks": 429,
            "midi": 62,
            "name": "D4",
            "ticks": 3360,
            "time": 19.764696,
            "velocity": 0.7874015748031497
          },
          {
            "duration": 1.9941166499999987,
            "durationTicks": 339,
            "midi": 66,
            "name": "F#4",
            "ticks": 3360,
            "time": 19.764696,
            "velocity": 0.7874015748031497
          },
          {
            "duration": 2.5235281500000006,
            "durationTicks": 429,
            "midi": 61,
            "name": "C#4",
            "ticks": 3360,
            "time": 19.764696,
            "velocity": 0.7874015748031497
          },
          {
            "duration": 0.40588215000000005,
            "durationTicks": 69,
            "midi": 66,
            "name": "F#4",
            "ticks": 3720,
            "time": 21.882342,
            "velocity": 0.7874015748031497
          },
          {
            "duration": 0.35294099999999773,
            "durationTicks": 60,
            "midi": 69,
            "name": "A4",
            "ticks": 3750,
            "time": 22.058812500000002,
            "velocity": 0.7874015748031497
          },
          {
            "duration": 0.935293650000002,
            "durationTicks": 159,
            "midi": 67,
            "name": "G4",
            "ticks": 3810,
            "time": 22.4117535,
            "velocity": 0.7874015748031497
          },
          {
            "duration": 0.7588231500000013,
            "durationTicks": 129,
            "midi": 65,
            "name": "F4",
            "ticks": 3810,
            "time": 22.4117535,
            "velocity": 0.7874015748031497
          },
          {
            "duration": 1.3470581499999987,
            "durationTicks": 229,
            "midi": 62,
            "name": "D4",
            "ticks": 3810,
            "time": 22.4117535,
            "velocity": 0.7874015748031497
          },
          {
            "duration": 1.2882346500000033,
            "durationTicks": 219,
            "midi": 58,
            "name": "A#3",
            "ticks": 3810,
            "time": 22.4117535,
            "velocity": 0.7874015748031497
          },
          {
            "duration": 0.17647050000000064,
            "durationTicks": 30,
            "midi": 65,
            "name": "F4",
            "ticks": 3960,
            "time": 23.294106,
            "velocity": 0.7874015748031497
          },
          {
            "duration": 0.17647050000000064,
            "durationTicks": 30,
            "midi": 67,
            "name": "G4",
            "ticks": 3990,
            "time": 23.4705765,
            "velocity": 0.7874015748031497
          },
          {
            "duration": 0.17647050000000064,
            "durationTicks": 30,
            "midi": 65,
            "name": "F4",
            "ticks": 4020,
            "time": 23.647047,
            "velocity": 0.7874015748031497
          },
          {
            "duration": 0.8823524999999997,
            "durationTicks": 150,
            "midi": 64,
            "name": "E4",
            "ticks": 4050,
            "time": 23.8235175,
            "velocity": 0.7874015748031497
          },
          {
            "duration": 0.8823524999999997,
            "durationTicks": 150,
            "midi": 62,
            "name": "D4",
            "ticks": 4050,
            "time": 23.8235175,
            "velocity": 0.7874015748031497
          },
          {
            "duration": 0.8823524999999997,
            "durationTicks": 150,
            "midi": 67,
            "name": "G4",
            "ticks": 4050,
            "time": 23.8235175,
            "velocity": 0.7874015748031497
          },
          {
            "duration": 0.8823524999999997,
            "durationTicks": 150,
            "midi": 58,
            "name": "A#3",
            "ticks": 4050,
            "time": 23.8235175,
            "velocity": 0.7874015748031497
          },
          {
            "duration": 0.4647056499999991,
            "durationTicks": 79,
            "midi": 62,
            "name": "D4",
            "ticks": 4230,
            "time": 24.8823405,
            "velocity": 0.7874015748031497
          },
          {
            "duration": 0.4647056499999991,
            "durationTicks": 79,
            "midi": 67,
            "name": "G4",
            "ticks": 4230,
            "time": 24.8823405,
            "velocity": 0.7874015748031497
          },
          {
            "duration": 0.4647056499999991,
            "durationTicks": 79,
            "midi": 59,
            "name": "B3",
            "ticks": 4230,
            "time": 24.8823405,
            "velocity": 0.7874015748031497
          },
          {
            "duration": 0.4647056499999991,
            "durationTicks": 79,
            "midi": 71,
            "name": "B4",
            "ticks": 4230,
            "time": 24.8823405,
            "velocity": 0.7874015748031497
          },
          {
            "duration": 1.4117640000000016,
            "durationTicks": 240,
            "midi": 62,
            "name": "D4",
            "ticks": 4320,
            "time": 25.411752,
            "velocity": 0.7874015748031497
          },
          {
            "duration": 1.4117640000000016,
            "durationTicks": 240,
            "midi": 69,
            "name": "A4",
            "ticks": 4320,
            "time": 25.411752,
            "velocity": 0.7874015748031497
          },
          {
            "duration": 1.4117640000000016,
            "durationTicks": 240,
            "midi": 66,
            "name": "F#4",
            "ticks": 4320,
            "time": 25.411752,
            "velocity": 0.7874015748031497
          },
          {
            "duration": 1.4117640000000016,
            "durationTicks": 240,
            "midi": 61,
            "name": "C#4",
            "ticks": 4320,
            "time": 25.411752,
            "velocity": 0.7874015748031497
          },
          {
            "duration": 0.3529410000000013,
            "durationTicks": 60,
            "midi": 59,
            "name": "B3",
            "ticks": 11910,
            "time": 70.0587885,
            "velocity": 0.7874015748031497
          },
          {
            "duration": 0.3529410000000013,
            "durationTicks": 60,
            "midi": 63,
            "name": "D#4",
            "ticks": 11910,
            "time": 70.0587885,
            "velocity": 0.7874015748031497
          },
          {
            "duration": 0.3470586499999939,
            "durationTicks": 59,
            "midi": 66,
            "name": "F#4",
            "ticks": 11910,
            "time": 70.0587885,
            "velocity": 0.7874015748031497
          },
          {
            "duration": 0.3470586499999939,
            "durationTicks": 59,
            "midi": 70,
            "name": "A#4",
            "ticks": 11910,
            "time": 70.0587885,
            "velocity": 0.7874015748031497
          },
          {
            "duration": 2.823527999999996,
            "durationTicks": 480,
            "midi": 68,
            "name": "G#4",
            "ticks": 12000,
            "time": 70.5882,
            "velocity": 0.7874015748031497
          },
          {
            "duration": 2.823527999999996,
            "durationTicks": 480,
            "midi": 58,
            "name": "A#3",
            "ticks": 12000,
            "time": 70.5882,
            "velocity": 0.7874015748031497
          },
          {
            "duration": 2.823527999999996,
            "durationTicks": 480,
            "midi": 65,
            "name": "F4",
            "ticks": 12000,
            "time": 70.5882,
            "velocity": 0.7874015748031497
          },
          {
            "duration": 2.823527999999996,
            "durationTicks": 480,
            "midi": 61,
            "name": "C#4",
            "ticks": 12000,
            "time": 70.5882,
            "velocity": 0.7874015748031497
          },
          {
            "duration": 2.8235280000000103,
            "durationTicks": 480,
            "midi": 59,
            "name": "B3",
            "ticks": 12480,
            "time": 73.411728,
            "velocity": 0.7874015748031497
          },
          {
            "duration": 2.8235280000000103,
            "durationTicks": 480,
            "midi": 69,
            "name": "A4",
            "ticks": 12480,
            "time": 73.411728,
            "velocity": 0.7874015748031497
          },
          {
            "duration": 2.8235280000000103,
            "durationTicks": 480,
            "midi": 62,
            "name": "D4",
            "ticks": 12480,
            "time": 73.411728,
            "velocity": 0.7874015748031497
          },
          {
            "duration": 2.8235280000000103,
            "durationTicks": 480,
            "midi": 66,
            "name": "F#4",
            "ticks": 12480,
            "time": 73.411728,
            "velocity": 0.7874015748031497
          },
          {
            "duration": 2.823527999999996,
            "durationTicks": 480,
            "midi": 68,
            "name": "G#4",
            "ticks": 12960,
            "time": 76.235256,
            "velocity": 0.7874015748031497
          },
          {
            "duration": 2.823527999999996,
            "durationTicks": 480,
            "midi": 66,
            "name": "F#4",
            "ticks": 12960,
            "time": 76.235256,
            "velocity": 0.7874015748031497
          },
          {
            "duration": 2.823527999999996,
            "durationTicks": 480,
            "midi": 63,
            "name": "D#4",
            "ticks": 12960,
            "time": 76.235256,
            "velocity": 0.7874015748031497
          },
          {
            "duration": 2.823527999999996,
            "durationTicks": 480,
            "midi": 59,
            "name": "B3",
            "ticks": 12960,
            "time": 76.235256,
            "velocity": 0.7874015748031497
          },
          {
            "duration": 1.4117640000000051,
            "durationTicks": 240,
            "midi": 65,
            "name": "F4",
            "ticks": 13440,
            "time": 79.058784,
            "velocity": 0.7874015748031497
          },
          {
            "duration": 1.4117640000000051,
            "durationTicks": 240,
            "midi": 68,
            "name": "G#4",
            "ticks": 13440,
            "time": 79.058784,
            "velocity": 0.7874015748031497
          },
          {
            "duration": 1.4117640000000051,
            "durationTicks": 240,
            "midi": 63,
            "name": "D#4",
            "ticks": 13440,
            "time": 79.058784,
            "velocity": 0.7874015748031497
          },
          {
            "duration": 1.4117640000000051,
            "durationTicks": 240,
            "midi": 59,
            "name": "B3",
            "ticks": 13440,
            "time": 79.058784,
            "velocity": 0.7874015748031497
          },
          {
            "duration": 1.411763999999991,
            "durationTicks": 240,
            "midi": 68,
            "name": "G#4",
            "ticks": 13680,
            "time": 80.47054800000001,
            "velocity": 0.7874015748031497
          },
          {
            "duration": 1.411763999999991,
            "durationTicks": 240,
            "midi": 65,
            "name": "F4",
            "ticks": 13680,
            "time": 80.47054800000001,
            "velocity": 0.7874015748031497
          },
          {
            "duration": 1.411763999999991,
            "durationTicks": 240,
            "midi": 62,
            "name": "D4",
            "ticks": 13680,
            "time": 80.47054800000001,
            "velocity": 0.7874015748031497
          },
          {
            "duration": 1.411763999999991,
            "durationTicks": 240,
            "midi": 58,
            "name": "A#3",
            "ticks": 13680,
            "time": 80.47054800000001,
            "velocity": 0.7874015748031497
          },
          {
            "duration": 2.823527999999996,
            "durationTicks": 480,
            "midi": 63,
            "name": "D#4",
            "ticks": 13920,
            "time": 81.882312,
            "velocity": 0.7874015748031497
          },
          {
            "duration": 2.823527999999996,
            "durationTicks": 480,
            "midi": 62,
            "name": "D4",
            "ticks": 13920,
            "time": 81.882312,
            "velocity": 0.7874015748031497
          },
          {
            "duration": 2.823527999999996,
            "durationTicks": 480,
            "midi": 67,
            "name": "G4",
            "ticks": 13920,
            "time": 81.882312,
            "velocity": 0.7874015748031497
          },
          {
            "duration": 2.823527999999996,
            "durationTicks": 480,
            "midi": 58,
            "name": "A#3",
            "ticks": 13920,
            "time": 81.882312,
            "velocity": 0.7874015748031497
          },
          {
            "duration": 1.4117640000000051,
            "durationTicks": 240,
            "midi": 66,
            "name": "F#4",
            "ticks": 14400,
            "time": 84.70584,
            "velocity": 0.7874015748031497
          },
          {
            "duration": 1.4117640000000051,
            "durationTicks": 240,
            "midi": 63,
            "name": "D#4",
            "ticks": 14400,
            "time": 84.70584,
            "velocity": 0.7874015748031497
          },
          {
            "duration": 1.4117640000000051,
            "durationTicks": 240,
            "midi": 59,
            "name": "B3",
            "ticks": 14400,
            "time": 84.70584,
            "velocity": 0.7874015748031497
          },
          {
            "duration": 1.4117640000000051,
            "durationTicks": 240,
            "midi": 56,
            "name": "G#3",
            "ticks": 14400,
            "time": 84.70584,
            "velocity": 0.7874015748031497
          },
          {
            "duration": 1.4117640000000051,
            "durationTicks": 240,
            "midi": 65,
            "name": "F4",
            "ticks": 14640,
            "time": 86.117604,
            "velocity": 0.7874015748031497
          },
          {
            "duration": 1.4117640000000051,
            "durationTicks": 240,
            "midi": 61,
            "name": "C#4",
            "ticks": 14640,
            "time": 86.117604,
            "velocity": 0.7874015748031497
          },
          {
            "duration": 1.4117640000000051,
            "durationTicks": 240,
            "midi": 59,
            "name": "B3",
            "ticks": 14640,
            "time": 86.117604,
            "velocity": 0.7874015748031497
          },
          {
            "duration": 1.4117640000000051,
            "durationTicks": 240,
            "midi": 56,
            "name": "G#3",
            "ticks": 14640,
            "time": 86.117604,
            "velocity": 0.7874015748031497
          },
          {
            "duration": 2.823527999999996,
            "durationTicks": 480,
            "midi": 58,
            "name": "A#3",
            "ticks": 14880,
            "time": 87.529368,
            "velocity": 0.7874015748031497
          },
          {
            "duration": 2.823527999999996,
            "durationTicks": 480,
            "midi": 65,
            "name": "F4",
            "ticks": 14880,
            "time": 87.529368,
            "velocity": 0.7874015748031497
          },
          {
            "duration": 2.823527999999996,
            "durationTicks": 480,
            "midi": 61,
            "name": "C#4",
            "ticks": 14880,
            "time": 87.529368,
            "velocity": 0.7874015748031497
          },
          {
            "duration": 2.823527999999996,
            "durationTicks": 480,
            "midi": 54,
            "name": "F#3",
            "ticks": 14880,
            "time": 87.529368,
            "velocity": 0.7874015748031497
          },
          {
            "duration": 1.2294111500000042,
            "durationTicks": 209,
            "midi": 64,
            "name": "E4",
            "ticks": 15360,
            "time": 90.352896,
            "velocity": 0.7874015748031497
          },
          {
            "duration": 1.2294111500000042,
            "durationTicks": 209,
            "midi": 61,
            "name": "C#4",
            "ticks": 15360,
            "time": 90.352896,
            "velocity": 0.7874015748031497
          },
          {
            "duration": 1.2294111500000042,
            "durationTicks": 209,
            "midi": 57,
            "name": "A3",
            "ticks": 15360,
            "time": 90.352896,
            "velocity": 0.7874015748031497
          },
          {
            "duration": 1.2294111500000042,
            "durationTicks": 209,
            "midi": 54,
            "name": "F#3",
            "ticks": 15360,
            "time": 90.352896,
            "velocity": 0.7874015748031497
          },
          {
            "duration": 1.5823521500000055,
            "durationTicks": 269,
            "midi": 57,
            "name": "A3",
            "ticks": 15570,
            "time": 91.5881895,
            "velocity": 0.7874015748031497
          },
          {
            "duration": 1.5823521500000055,
            "durationTicks": 269,
            "midi": 60,
            "name": "C4",
            "ticks": 15570,
            "time": 91.5881895,
            "velocity": 0.7874015748031497
          },
          {
            "duration": 1.5823521500000055,
            "durationTicks": 269,
            "midi": 63,
            "name": "D#4",
            "ticks": 15570,
            "time": 91.5881895,
            "velocity": 0.7874015748031497
          },
          {
            "duration": 1.5823521500000055,
            "durationTicks": 269,
            "midi": 67,
            "name": "G4",
            "ticks": 15570,
            "time": 91.5881895,
            "velocity": 0.7874015748031497
          },
          {
            "duration": 0.529411500000009,
            "durationTicks": 90,
            "midi": 66,
            "name": "F#4",
            "ticks": 15840,
            "time": 93.176424,
            "velocity": 0.7874015748031497
          },
          {
            "duration": 0.529411500000009,
            "durationTicks": 90,
            "midi": 63,
            "name": "D#4",
            "ticks": 15840,
            "time": 93.176424,
            "velocity": 0.7874015748031497
          },
          {
            "duration": 0.529411500000009,
            "durationTicks": 90,
            "midi": 59,
            "name": "B3",
            "ticks": 15840,
            "time": 93.176424,
            "velocity": 0.7874015748031497
          },
          {
            "duration": 0.529411500000009,
            "durationTicks": 90,
            "midi": 56,
            "name": "G#3",
            "ticks": 15840,
            "time": 93.176424,
            "velocity": 0.7874015748031497
          },
          {
            "duration": 0.17647049999999354,
            "durationTicks": 30,
            "midi": 63,
            "name": "D#4",
            "ticks": 15930,
            "time": 93.7058355,
            "velocity": 0.7874015748031497
          },
          {
            "duration": 0.17647049999999354,
            "durationTicks": 30,
            "midi": 66,
            "name": "F#4",
            "ticks": 15930,
            "time": 93.7058355,
            "velocity": 0.7874015748031497
          },
          {
            "duration": 0.17647049999999354,
            "durationTicks": 30,
            "midi": 59,
            "name": "B3",
            "ticks": 15930,
            "time": 93.7058355,
            "velocity": 0.7874015748031497
          },
          {
            "duration": 0.17647049999999354,
            "durationTicks": 30,
            "midi": 56,
            "name": "G#3",
            "ticks": 15930,
            "time": 93.7058355,
            "velocity": 0.7874015748031497
          },
          {
            "duration": 1.4117640000000051,
            "durationTicks": 240,
            "midi": 66,
            "name": "F#4",
            "ticks": 16080,
            "time": 94.588188,
            "velocity": 0.7874015748031497
          },
          {
            "duration": 1.4117640000000051,
            "durationTicks": 240,
            "midi": 63,
            "name": "D#4",
            "ticks": 16080,
            "time": 94.588188,
            "velocity": 0.7874015748031497
          },
          {
            "duration": 1.4117640000000051,
            "durationTicks": 240,
            "midi": 59,
            "name": "B3",
            "ticks": 16080,
            "time": 94.588188,
            "velocity": 0.7874015748031497
          },
          {
            "duration": 1.4117640000000051,
            "durationTicks": 240,
            "midi": 56,
            "name": "G#3",
            "ticks": 16080,
            "time": 94.588188,
            "velocity": 0.7874015748031497
          },
          {
            "duration": 0.5294114999999948,
            "durationTicks": 90,
            "midi": 60,
            "name": "C4",
            "ticks": 16320,
            "time": 95.99995200000001,
            "velocity": 0.7874015748031497
          },
          {
            "duration": 0.5294114999999948,
            "durationTicks": 90,
            "midi": 64,
            "name": "E4",
            "ticks": 16320,
            "time": 95.99995200000001,
            "velocity": 0.7874015748031497
          },
          {
            "duration": 0.5294114999999948,
            "durationTicks": 90,
            "midi": 55,
            "name": "G3",
            "ticks": 16320,
            "time": 95.99995200000001,
            "velocity": 0.7874015748031497
          },
          {
            "duration": 0.17647049999999354,
            "durationTicks": 30,
            "midi": 64,
            "name": "E4",
            "ticks": 16410,
            "time": 96.5293635,
            "velocity": 0.7874015748031497
          },
          {
            "duration": 0.17647049999999354,
            "durationTicks": 30,
            "midi": 60,
            "name": "C4",
            "ticks": 16410,
            "time": 96.5293635,
            "velocity": 0.7874015748031497
          },
          {
            "duration": 0.17647049999999354,
            "durationTicks": 30,
            "midi": 55,
            "name": "G3",
            "ticks": 16410,
            "time": 96.5293635,
            "velocity": 0.7874015748031497
          },
          {
            "duration": 1.4117640000000051,
            "durationTicks": 240,
            "midi": 64,
            "name": "E4",
            "ticks": 16560,
            "time": 97.411716,
            "velocity": 0.7874015748031497
          },
          {
            "duration": 1.4117640000000051,
            "durationTicks": 240,
            "midi": 60,
            "name": "C4",
            "ticks": 16560,
            "time": 97.411716,
            "velocity": 0.7874015748031497
          },
          {
            "duration": 1.4117640000000051,
            "durationTicks": 240,
            "midi": 57,
            "name": "A3",
            "ticks": 16560,
            "time": 97.411716,
            "velocity": 0.7874015748031497
          },
          {
            "duration": 1.4117640000000051,
            "durationTicks": 240,
            "midi": 54,
            "name": "F#3",
            "ticks": 16560,
            "time": 97.411716,
            "velocity": 0.7874015748031497
          },
          {
            "duration": 0.5294114999999948,
            "durationTicks": 90,
            "midi": 56,
            "name": "G#3",
            "ticks": 16800,
            "time": 98.82348,
            "velocity": 0.7874015748031497
          },
          {
            "duration": 0.5294114999999948,
            "durationTicks": 90,
            "midi": 64,
            "name": "E4",
            "ticks": 16800,
            "time": 98.82348,
            "velocity": 0.7874015748031497
          },
          {
            "duration": 0.5294114999999948,
            "durationTicks": 90,
            "midi": 59,
            "name": "B3",
            "ticks": 16800,
            "time": 98.82348,
            "velocity": 0.7874015748031497
          },
          {
            "duration": 0.17647050000000775,
            "durationTicks": 30,
            "midi": 64,
            "name": "E4",
            "ticks": 16890,
            "time": 99.3528915,
            "velocity": 0.7874015748031497
          },
          {
            "duration": 0.17647050000000775,
            "durationTicks": 30,
            "midi": 59,
            "name": "B3",
            "ticks": 16890,
            "time": 99.3528915,
            "velocity": 0.7874015748031497
          },
          {
            "duration": 0.17647050000000775,
            "durationTicks": 30,
            "midi": 56,
            "name": "G#3",
            "ticks": 16890,
            "time": 99.3528915,
            "velocity": 0.7874015748031497
          },
          {
            "duration": 1.4117640000000051,
            "durationTicks": 240,
            "midi": 64,
            "name": "E4",
            "ticks": 17040,
            "time": 100.235244,
            "velocity": 0.7874015748031497
          },
          {
            "duration": 1.4117640000000051,
            "durationTicks": 240,
            "midi": 59,
            "name": "B3",
            "ticks": 17040,
            "time": 100.235244,
            "velocity": 0.7874015748031497
          },
          {
            "duration": 1.4117640000000051,
            "durationTicks": 240,
            "midi": 56,
            "name": "G#3",
            "ticks": 17040,
            "time": 100.235244,
            "velocity": 0.7874015748031497
          },
          {
            "duration": 0.5294114999999948,
            "durationTicks": 90,
            "midi": 66,
            "name": "F#4",
            "ticks": 17280,
            "time": 101.647008,
            "velocity": 0.7874015748031497
          },
          {
            "duration": 0.5294114999999948,
            "durationTicks": 90,
            "midi": 62,
            "name": "D4",
            "ticks": 17280,
            "time": 101.647008,
            "velocity": 0.7874015748031497
          },
          {
            "duration": 0.5294114999999948,
            "durationTicks": 90,
            "midi": 57,
            "name": "A3",
            "ticks": 17280,
            "time": 101.647008,
            "velocity": 0.7874015748031497
          },
          {
            "duration": 0.17647050000000775,
            "durationTicks": 30,
            "midi": 62,
            "name": "D4",
            "ticks": 17370,
            "time": 102.1764195,
            "velocity": 0.7874015748031497
          },
          {
            "duration": 0.17647050000000775,
            "durationTicks": 30,
            "midi": 66,
            "name": "F#4",
            "ticks": 17370,
            "time": 102.1764195,
            "velocity": 0.7874015748031497
          },
          {
            "duration": 0.17647050000000775,
            "durationTicks": 30,
            "midi": 57,
            "name": "A3",
            "ticks": 17370,
            "time": 102.1764195,
            "velocity": 0.7874015748031497
          },
          {
            "duration": 1.5882344999999987,
            "durationTicks": 270,
            "midi": 56,
            "name": "G#3",
            "ticks": 17490,
            "time": 102.8823015,
            "velocity": 0.7874015748031497
          },
          {
            "duration": 1.5882344999999987,
            "durationTicks": 270,
            "midi": 60,
            "name": "C4",
            "ticks": 17490,
            "time": 102.8823015,
            "velocity": 0.7874015748031497
          },
          {
            "duration": 1.5882344999999987,
            "durationTicks": 270,
            "midi": 64,
            "name": "E4",
            "ticks": 17490,
            "time": 102.8823015,
            "velocity": 0.7874015748031497
          },
          {
            "duration": 2.8235280000000103,
            "durationTicks": 480,
            "midi": 64,
            "name": "E4",
            "ticks": 17760,
            "time": 104.470536,
            "velocity": 0.7874015748031497
          },
          {
            "duration": 2.8235280000000103,
            "durationTicks": 480,
            "midi": 61,
            "name": "C#4",
            "ticks": 17760,
            "time": 104.470536,
            "velocity": 0.7874015748031497
          },
          {
            "duration": 2.8235280000000103,
            "durationTicks": 480,
            "midi": 56,
            "name": "G#3",
            "ticks": 17760,
            "time": 104.470536,
            "velocity": 0.7874015748031497
          },
          {
            "duration": 2.823527999999996,
            "durationTicks": 480,
            "midi": 64,
            "name": "E4",
            "ticks": 18240,
            "time": 107.294064,
            "velocity": 0.7874015748031497
          },
          {
            "duration": 2.823527999999996,
            "durationTicks": 480,
            "midi": 60,
            "name": "C4",
            "ticks": 18240,
            "time": 107.294064,
            "velocity": 0.7874015748031497
          },
          {
            "duration": 2.823527999999996,
            "durationTicks": 480,
            "midi": 56,
            "name": "G#3",
            "ticks": 18240,
            "time": 107.294064,
            "velocity": 0.7874015748031497
          },
          {
            "duration": 2.823527999999996,
            "durationTicks": 480,
            "midi": 64,
            "name": "E4",
            "ticks": 18720,
            "time": 110.117592,
            "velocity": 0.7874015748031497
          },
          {
            "duration": 2.823527999999996,
            "durationTicks": 480,
            "midi": 59,
            "name": "B3",
            "ticks": 18720,
            "time": 110.117592,
            "velocity": 0.7874015748031497
          },
          {
            "duration": 2.823527999999996,
            "durationTicks": 480,
            "midi": 56,
            "name": "G#3",
            "ticks": 18720,
            "time": 110.117592,
            "velocity": 0.7874015748031497
          },
          {
            "duration": 2.1176460000000077,
            "durationTicks": 360,
            "midi": 57,
            "name": "A3",
            "ticks": 19200,
            "time": 112.94112,
            "velocity": 0.7874015748031497
          },
          {
            "duration": 2.1176460000000077,
            "durationTicks": 360,
            "midi": 61,
            "name": "C#4",
            "ticks": 19200,
            "time": 112.94112,
            "velocity": 0.7874015748031497
          },
          {
            "duration": 2.1176460000000077,
            "durationTicks": 360,
            "midi": 64,
            "name": "E4",
            "ticks": 19200,
            "time": 112.94112,
            "velocity": 0.7874015748031497
          },
          {
            "duration": 0.7058820000000026,
            "durationTicks": 120,
            "midi": 63,
            "name": "D#4",
            "ticks": 19560,
            "time": 115.058766,
            "velocity": 0.7874015748031497
          },
          {
            "duration": 0.7058820000000026,
            "durationTicks": 120,
            "midi": 67,
            "name": "G4",
            "ticks": 19560,
            "time": 115.058766,
            "velocity": 0.7874015748031497
          },
          {
            "duration": 0.7058820000000026,
            "durationTicks": 120,
            "midi": 57,
            "name": "A3",
            "ticks": 19560,
            "time": 115.058766,
            "velocity": 0.7874015748031497
          },
          {
            "duration": 0.5294114999999948,
            "durationTicks": 90,
            "midi": 66,
            "name": "F#4",
            "ticks": 19680,
            "time": 115.76464800000001,
            "velocity": 0.7874015748031497
          },
          {
            "duration": 0.5294114999999948,
            "durationTicks": 90,
            "midi": 63,
            "name": "D#4",
            "ticks": 19680,
            "time": 115.76464800000001,
            "velocity": 0.7874015748031497
          },
          {
            "duration": 0.5294114999999948,
            "durationTicks": 90,
            "midi": 59,
            "name": "B3",
            "ticks": 19680,
            "time": 115.76464800000001,
            "velocity": 0.7874015748031497
          },
          {
            "duration": 0.5294114999999948,
            "durationTicks": 90,
            "midi": 56,
            "name": "G#3",
            "ticks": 19680,
            "time": 115.76464800000001,
            "velocity": 0.7874015748031497
          },
          {
            "duration": 0.17647049999999354,
            "durationTicks": 30,
            "midi": 63,
            "name": "D#4",
            "ticks": 19770,
            "time": 116.2940595,
            "velocity": 0.7874015748031497
          },
          {
            "duration": 0.17647049999999354,
            "durationTicks": 30,
            "midi": 66,
            "name": "F#4",
            "ticks": 19770,
            "time": 116.2940595,
            "velocity": 0.7874015748031497
          },
          {
            "duration": 0.17647049999999354,
            "durationTicks": 30,
            "midi": 59,
            "name": "B3",
            "ticks": 19770,
            "time": 116.2940595,
            "velocity": 0.7874015748031497
          },
          {
            "duration": 0.17647049999999354,
            "durationTicks": 30,
            "midi": 56,
            "name": "G#3",
            "ticks": 19770,
            "time": 116.2940595,
            "velocity": 0.7874015748031497
          },
          {
            "duration": 1.4117640000000051,
            "durationTicks": 240,
            "midi": 66,
            "name": "F#4",
            "ticks": 19920,
            "time": 117.176412,
            "velocity": 0.7874015748031497
          },
          {
            "duration": 1.4117640000000051,
            "durationTicks": 240,
            "midi": 63,
            "name": "D#4",
            "ticks": 19920,
            "time": 117.176412,
            "velocity": 0.7874015748031497
          },
          {
            "duration": 1.4117640000000051,
            "durationTicks": 240,
            "midi": 59,
            "name": "B3",
            "ticks": 19920,
            "time": 117.176412,
            "velocity": 0.7874015748031497
          },
          {
            "duration": 1.4117640000000051,
            "durationTicks": 240,
            "midi": 56,
            "name": "G#3",
            "ticks": 19920,
            "time": 117.176412,
            "velocity": 0.7874015748031497
          },
          {
            "duration": 0.5294114999999948,
            "durationTicks": 90,
            "midi": 60,
            "name": "C4",
            "ticks": 20160,
            "time": 118.588176,
            "velocity": 0.7874015748031497
          },
          {
            "duration": 0.5294114999999948,
            "durationTicks": 90,
            "midi": 64,
            "name": "E4",
            "ticks": 20160,
            "time": 118.588176,
            "velocity": 0.7874015748031497
          },
          {
            "duration": 0.5294114999999948,
            "durationTicks": 90,
            "midi": 55,
            "name": "G3",
            "ticks": 20160,
            "time": 118.588176,
            "velocity": 0.7874015748031497
          },
          {
            "duration": 0.17647050000000775,
            "durationTicks": 30,
            "midi": 64,
            "name": "E4",
            "ticks": 20250,
            "time": 119.1175875,
            "velocity": 0.7874015748031497
          },
          {
            "duration": 0.17647050000000775,
            "durationTicks": 30,
            "midi": 60,
            "name": "C4",
            "ticks": 20250,
            "time": 119.1175875,
            "velocity": 0.7874015748031497
          },
          {
            "duration": 0.17647050000000775,
            "durationTicks": 30,
            "midi": 55,
            "name": "G3",
            "ticks": 20250,
            "time": 119.1175875,
            "velocity": 0.7874015748031497
          },
          {
            "duration": 1.4117640000000051,
            "durationTicks": 240,
            "midi": 64,
            "name": "E4",
            "ticks": 20400,
            "time": 119.99994,
            "velocity": 0.7874015748031497
          },
          {
            "duration": 1.4117640000000051,
            "durationTicks": 240,
            "midi": 60,
            "name": "C4",
            "ticks": 20400,
            "time": 119.99994,
            "velocity": 0.7874015748031497
          },
          {
            "duration": 1.4117640000000051,
            "durationTicks": 240,
            "midi": 57,
            "name": "A3",
            "ticks": 20400,
            "time": 119.99994,
            "velocity": 0.7874015748031497
          },
          {
            "duration": 1.4117640000000051,
            "durationTicks": 240,
            "midi": 54,
            "name": "F#3",
            "ticks": 20400,
            "time": 119.99994,
            "velocity": 0.7874015748031497
          },
          {
            "duration": 0.5294114999999948,
            "durationTicks": 90,
            "midi": 56,
            "name": "G#3",
            "ticks": 20640,
            "time": 121.411704,
            "velocity": 0.7874015748031497
          },
          {
            "duration": 0.5294114999999948,
            "durationTicks": 90,
            "midi": 64,
            "name": "E4",
            "ticks": 20640,
            "time": 121.411704,
            "velocity": 0.7874015748031497
          },
          {
            "duration": 0.5294114999999948,
            "durationTicks": 90,
            "midi": 59,
            "name": "B3",
            "ticks": 20640,
            "time": 121.411704,
            "velocity": 0.7874015748031497
          },
          {
            "duration": 0.17647050000000775,
            "durationTicks": 30,
            "midi": 64,
            "name": "E4",
            "ticks": 20730,
            "time": 121.9411155,
            "velocity": 0.7874015748031497
          },
          {
            "duration": 0.17647050000000775,
            "durationTicks": 30,
            "midi": 59,
            "name": "B3",
            "ticks": 20730,
            "time": 121.9411155,
            "velocity": 0.7874015748031497
          },
          {
            "duration": 0.17647050000000775,
            "durationTicks": 30,
            "midi": 56,
            "name": "G#3",
            "ticks": 20730,
            "time": 121.9411155,
            "velocity": 0.7874015748031497
          },
          {
            "duration": 1.411763999999991,
            "durationTicks": 240,
            "midi": 64,
            "name": "E4",
            "ticks": 20880,
            "time": 122.823468,
            "velocity": 0.7874015748031497
          },
          {
            "duration": 1.411763999999991,
            "durationTicks": 240,
            "midi": 59,
            "name": "B3",
            "ticks": 20880,
            "time": 122.823468,
            "velocity": 0.7874015748031497
          },
          {
            "duration": 1.411763999999991,
            "durationTicks": 240,
            "midi": 56,
            "name": "G#3",
            "ticks": 20880,
            "time": 122.823468,
            "velocity": 0.7874015748031497
          },
          {
            "duration": 0.529411500000009,
            "durationTicks": 90,
            "midi": 66,
            "name": "F#4",
            "ticks": 21120,
            "time": 124.235232,
            "velocity": 0.7874015748031497
          },
          {
            "duration": 0.529411500000009,
            "durationTicks": 90,
            "midi": 62,
            "name": "D4",
            "ticks": 21120,
            "time": 124.235232,
            "velocity": 0.7874015748031497
          },
          {
            "duration": 0.529411500000009,
            "durationTicks": 90,
            "midi": 57,
            "name": "A3",
            "ticks": 21120,
            "time": 124.235232,
            "velocity": 0.7874015748031497
          },
          {
            "duration": 0.17647049999999354,
            "durationTicks": 30,
            "midi": 62,
            "name": "D4",
            "ticks": 21210,
            "time": 124.7646435,
            "velocity": 0.7874015748031497
          },
          {
            "duration": 0.17647049999999354,
            "durationTicks": 30,
            "midi": 66,
            "name": "F#4",
            "ticks": 21210,
            "time": 124.7646435,
            "velocity": 0.7874015748031497
          },
          {
            "duration": 0.17647049999999354,
            "durationTicks": 30,
            "midi": 57,
            "name": "A3",
            "ticks": 21210,
            "time": 124.7646435,
            "velocity": 0.7874015748031497
          },
          {
            "duration": 1.5882344999999987,
            "durationTicks": 270,
            "midi": 56,
            "name": "G#3",
            "ticks": 21330,
            "time": 125.47052550000001,
            "velocity": 0.7874015748031497
          },
          {
            "duration": 1.5882344999999987,
            "durationTicks": 270,
            "midi": 60,
            "name": "C4",
            "ticks": 21330,
            "time": 125.47052550000001,
            "velocity": 0.7874015748031497
          },
          {
            "duration": 1.5882344999999987,
            "durationTicks": 270,
            "midi": 64,
            "name": "E4",
            "ticks": 21330,
            "time": 125.47052550000001,
            "velocity": 0.7874015748031497
          },
          {
            "duration": 2.823527999999982,
            "durationTicks": 480,
            "midi": 64,
            "name": "E4",
            "ticks": 21600,
            "time": 127.05876,
            "velocity": 0.7874015748031497
          },
          {
            "duration": 2.823527999999982,
            "durationTicks": 480,
            "midi": 61,
            "name": "C#4",
            "ticks": 21600,
            "time": 127.05876,
            "velocity": 0.7874015748031497
          },
          {
            "duration": 2.823527999999982,
            "durationTicks": 480,
            "midi": 56,
            "name": "G#3",
            "ticks": 21600,
            "time": 127.05876,
            "velocity": 0.7874015748031497
          },
          {
            "duration": 2.8235280000000103,
            "durationTicks": 480,
            "midi": 60,
            "name": "C4",
            "ticks": 22080,
            "time": 129.882288,
            "velocity": 0.7874015748031497
          },
          {
            "duration": 2.8235280000000103,
            "durationTicks": 480,
            "midi": 64,
            "name": "E4",
            "ticks": 22080,
            "time": 129.882288,
            "velocity": 0.7874015748031497
          },
          {
            "duration": 2.8235280000000103,
            "durationTicks": 480,
            "midi": 56,
            "name": "G#3",
            "ticks": 22080,
            "time": 129.882288,
            "velocity": 0.7874015748031497
          },
          {
            "duration": 2.8235280000000103,
            "durationTicks": 480,
            "midi": 64,
            "name": "E4",
            "ticks": 22560,
            "time": 132.705816,
            "velocity": 0.7874015748031497
          },
          {
            "duration": 2.8235280000000103,
            "durationTicks": 480,
            "midi": 59,
            "name": "B3",
            "ticks": 22560,
            "time": 132.705816,
            "velocity": 0.7874015748031497
          },
          {
            "duration": 2.8235280000000103,
            "durationTicks": 480,
            "midi": 56,
            "name": "G#3",
            "ticks": 22560,
            "time": 132.705816,
            "velocity": 0.7874015748031497
          },
          {
            "duration": 2.1176459999999793,
            "durationTicks": 360,
            "midi": 57,
            "name": "A3",
            "ticks": 23040,
            "time": 135.529344,
            "velocity": 0.7874015748031497
          },
          {
            "duration": 2.1176459999999793,
            "durationTicks": 360,
            "midi": 61,
            "name": "C#4",
            "ticks": 23040,
            "time": 135.529344,
            "velocity": 0.7874015748031497
          },
          {
            "duration": 2.1176459999999793,
            "durationTicks": 360,
            "midi": 64,
            "name": "E4",
            "ticks": 23040,
            "time": 135.529344,
            "velocity": 0.7874015748031497
          },
          {
            "duration": 0.7058820000000026,
            "durationTicks": 120,
            "midi": 63,
            "name": "D#4",
            "ticks": 23400,
            "time": 137.64699,
            "velocity": 0.7874015748031497
          },
          {
            "duration": 0.7058820000000026,
            "durationTicks": 120,
            "midi": 67,
            "name": "G4",
            "ticks": 23400,
            "time": 137.64699,
            "velocity": 0.7874015748031497
          },
          {
            "duration": 0.7058820000000026,
            "durationTicks": 120,
            "midi": 57,
            "name": "A3",
            "ticks": 23400,
            "time": 137.64699,
            "velocity": 0.7874015748031497
          },
          {
            "duration": 4.941174000000018,
            "durationTicks": 840,
            "midi": 59,
            "name": "B3",
            "ticks": 23520,
            "time": 138.352872,
            "velocity": 0.7874015748031497
          },
          {
            "duration": 4.941174000000018,
            "durationTicks": 840,
            "midi": 61,
            "name": "C#4",
            "ticks": 23520,
            "time": 138.352872,
            "velocity": 0.7874015748031497
          },
          {
            "duration": 4.941174000000018,
            "durationTicks": 840,
            "midi": 64,
            "name": "E4",
            "ticks": 23520,
            "time": 138.352872,
            "velocity": 0.7874015748031497
          },
          {
            "duration": 4.941174000000018,
            "durationTicks": 840,
            "midi": 68,
            "name": "G#4",
            "ticks": 23520,
            "time": 138.352872,
            "velocity": 0.7874015748031497
          },
          {
            "duration": 4.941174000000018,
            "durationTicks": 840,
            "midi": 59,
            "name": "B3",
            "ticks": 23520,
            "time": 138.352872,
            "velocity": 0.7874015748031497
          },
          {
            "duration": 4.941174000000018,
            "durationTicks": 840,
            "midi": 61,
            "name": "C#4",
            "ticks": 23520,
            "time": 138.352872,
            "velocity": 0.7874015748031497
          },
          {
            "duration": 4.941174000000018,
            "durationTicks": 840,
            "midi": 64,
            "name": "E4",
            "ticks": 23520,
            "time": 138.352872,
            "velocity": 0.7874015748031497
          },
          {
            "duration": 4.941174000000018,
            "durationTicks": 840,
            "midi": 68,
            "name": "G#4",
            "ticks": 23520,
            "time": 138.352872,
            "velocity": 0.7874015748031497
          },
          {
            "duration": 0.7058820000000026,
            "durationTicks": 120,
            "midi": 67,
            "name": "G4",
            "ticks": 24360,
            "time": 143.294046,
            "velocity": 0.7874015748031497
          },
          {
            "duration": 0.7058820000000026,
            "durationTicks": 120,
            "midi": 63,
            "name": "D#4",
            "ticks": 24360,
            "time": 143.294046,
            "velocity": 0.7874015748031497
          },
          {
            "duration": 0.7058820000000026,
            "durationTicks": 120,
            "midi": 57,
            "name": "A3",
            "ticks": 24360,
            "time": 143.294046,
            "velocity": 0.7874015748031497
          },
          {
            "duration": 4.9411739999999895,
            "durationTicks": 840,
            "midi": 68,
            "name": "G#4",
            "ticks": 24480,
            "time": 143.999928,
            "velocity": 0.7874015748031497
          },
          {
            "duration": 4.9411739999999895,
            "durationTicks": 840,
            "midi": 64,
            "name": "E4",
            "ticks": 24480,
            "time": 143.999928,
            "velocity": 0.7874015748031497
          },
          {
            "duration": 4.9411739999999895,
            "durationTicks": 840,
            "midi": 61,
            "name": "C#4",
            "ticks": 24480,
            "time": 143.999928,
            "velocity": 0.7874015748031497
          },
          {
            "duration": 4.9411739999999895,
            "durationTicks": 840,
            "midi": 59,
            "name": "B3",
            "ticks": 24480,
            "time": 143.999928,
            "velocity": 0.7874015748031497
          },
          {
            "duration": 0.7058820000000026,
            "durationTicks": 120,
            "midi": 67,
            "name": "G4",
            "ticks": 25320,
            "time": 148.941102,
            "velocity": 0.7874015748031497
          },
          {
            "duration": 0.7058820000000026,
            "durationTicks": 120,
            "midi": 63,
            "name": "D#4",
            "ticks": 25320,
            "time": 148.941102,
            "velocity": 0.7874015748031497
          },
          {
            "duration": 0.7058820000000026,
            "durationTicks": 120,
            "midi": 62,
            "name": "D4",
            "ticks": 25320,
            "time": 148.941102,
            "velocity": 0.7874015748031497
          },
          {
            "duration": 0.7058820000000026,
            "durationTicks": 120,
            "midi": 59,
            "name": "B3",
            "ticks": 25320,
            "time": 148.941102,
            "velocity": 0.7874015748031497
          },
          {
            "duration": 4.9411739999999895,
            "durationTicks": 840,
            "midi": 66,
            "name": "F#4",
            "ticks": 25440,
            "time": 149.646984,
            "velocity": 0.7874015748031497
          },
          {
            "duration": 4.9411739999999895,
            "durationTicks": 840,
            "midi": 55,
            "name": "G3",
            "ticks": 25440,
            "time": 149.646984,
            "velocity": 0.7874015748031497
          },
          {
            "duration": 4.9411739999999895,
            "durationTicks": 840,
            "midi": 59,
            "name": "B3",
            "ticks": 25440,
            "time": 149.646984,
            "velocity": 0.7874015748031497
          },
          {
            "duration": 4.9411739999999895,
            "durationTicks": 840,
            "midi": 62,
            "name": "D4",
            "ticks": 25440,
            "time": 149.646984,
            "velocity": 0.7874015748031497
          },
          {
            "duration": 0.7058820000000026,
            "durationTicks": 120,
            "midi": 67,
            "name": "G4",
            "ticks": 26280,
            "time": 154.588158,
            "velocity": 0.7874015748031497
          },
          {
            "duration": 0.7058820000000026,
            "durationTicks": 120,
            "midi": 63,
            "name": "D#4",
            "ticks": 26280,
            "time": 154.588158,
            "velocity": 0.7874015748031497
          },
          {
            "duration": 0.7058820000000026,
            "durationTicks": 120,
            "midi": 62,
            "name": "D4",
            "ticks": 26280,
            "time": 154.588158,
            "velocity": 0.7874015748031497
          },
          {
            "duration": 0.7058820000000026,
            "durationTicks": 120,
            "midi": 59,
            "name": "B3",
            "ticks": 26280,
            "time": 154.588158,
            "velocity": 0.7874015748031497
          },
          {
            "duration": 4.941174000000018,
            "durationTicks": 840,
            "midi": 66,
            "name": "F#4",
            "ticks": 26400,
            "time": 155.29404,
            "velocity": 0.7874015748031497
          },
          {
            "duration": 4.941174000000018,
            "durationTicks": 840,
            "midi": 55,
            "name": "G3",
            "ticks": 26400,
            "time": 155.29404,
            "velocity": 0.7874015748031497
          },
          {
            "duration": 4.941174000000018,
            "durationTicks": 840,
            "midi": 59,
            "name": "B3",
            "ticks": 26400,
            "time": 155.29404,
            "velocity": 0.7874015748031497
          },
          {
            "duration": 4.941174000000018,
            "durationTicks": 840,
            "midi": 62,
            "name": "D4",
            "ticks": 26400,
            "time": 155.29404,
            "velocity": 0.7874015748031497
          },
          {
            "duration": 0.7058820000000026,
            "durationTicks": 120,
            "midi": 67,
            "name": "G4",
            "ticks": 27240,
            "time": 160.235214,
            "velocity": 0.7874015748031497
          },
          {
            "duration": 0.7058820000000026,
            "durationTicks": 120,
            "midi": 63,
            "name": "D#4",
            "ticks": 27240,
            "time": 160.235214,
            "velocity": 0.7874015748031497
          },
          {
            "duration": 0.7058820000000026,
            "durationTicks": 120,
            "midi": 57,
            "name": "A3",
            "ticks": 27240,
            "time": 160.235214,
            "velocity": 0.7874015748031497
          },
          {
            "duration": 4.9411739999999895,
            "durationTicks": 840,
            "midi": 68,
            "name": "G#4",
            "ticks": 27360,
            "time": 160.94109600000002,
            "velocity": 0.7874015748031497
          },
          {
            "duration": 4.9411739999999895,
            "durationTicks": 840,
            "midi": 64,
            "name": "E4",
            "ticks": 27360,
            "time": 160.94109600000002,
            "velocity": 0.7874015748031497
          },
          {
            "duration": 4.9411739999999895,
            "durationTicks": 840,
            "midi": 61,
            "name": "C#4",
            "ticks": 27360,
            "time": 160.94109600000002,
            "velocity": 0.7874015748031497
          },
          {
            "duration": 4.9411739999999895,
            "durationTicks": 840,
            "midi": 59,
            "name": "B3",
            "ticks": 27360,
            "time": 160.94109600000002,
            "velocity": 0.7874015748031497
          },
          {
            "duration": 0.7058820000000026,
            "durationTicks": 120,
            "midi": 67,
            "name": "G4",
            "ticks": 28200,
            "time": 165.88227,
            "velocity": 0.7874015748031497
          },
          {
            "duration": 0.7058820000000026,
            "durationTicks": 120,
            "midi": 63,
            "name": "D#4",
            "ticks": 28200,
            "time": 165.88227,
            "velocity": 0.7874015748031497
          },
          {
            "duration": 0.7058820000000026,
            "durationTicks": 120,
            "midi": 57,
            "name": "A3",
            "ticks": 28200,
            "time": 165.88227,
            "velocity": 0.7874015748031497
          },
          {
            "duration": 4.9411739999999895,
            "durationTicks": 840,
            "midi": 68,
            "name": "G#4",
            "ticks": 28320,
            "time": 166.588152,
            "velocity": 0.7874015748031497
          },
          {
            "duration": 4.9411739999999895,
            "durationTicks": 840,
            "midi": 64,
            "name": "E4",
            "ticks": 28320,
            "time": 166.588152,
            "velocity": 0.7874015748031497
          },
          {
            "duration": 4.9411739999999895,
            "durationTicks": 840,
            "midi": 61,
            "name": "C#4",
            "ticks": 28320,
            "time": 166.588152,
            "velocity": 0.7874015748031497
          },
          {
            "duration": 4.9411739999999895,
            "durationTicks": 840,
            "midi": 59,
            "name": "B3",
            "ticks": 28320,
            "time": 166.588152,
            "velocity": 0.7874015748031497
          },
          {
            "duration": 0.7058820000000026,
            "durationTicks": 120,
            "midi": 67,
            "name": "G4",
            "ticks": 29160,
            "time": 171.529326,
            "velocity": 0.7874015748031497
          },
          {
            "duration": 0.7058820000000026,
            "durationTicks": 120,
            "midi": 63,
            "name": "D#4",
            "ticks": 29160,
            "time": 171.529326,
            "velocity": 0.7874015748031497
          },
          {
            "duration": 0.7058820000000026,
            "durationTicks": 120,
            "midi": 62,
            "name": "D4",
            "ticks": 29160,
            "time": 171.529326,
            "velocity": 0.7874015748031497
          },
          {
            "duration": 0.7058820000000026,
            "durationTicks": 120,
            "midi": 59,
            "name": "B3",
            "ticks": 29160,
            "time": 171.529326,
            "velocity": 0.7874015748031497
          },
          {
            "duration": 2.8235280000000103,
            "durationTicks": 480,
            "midi": 66,
            "name": "F#4",
            "ticks": 29280,
            "time": 172.235208,
            "velocity": 0.7874015748031497
          },
          {
            "duration": 2.8235280000000103,
            "durationTicks": 480,
            "midi": 62,
            "name": "D4",
            "ticks": 29280,
            "time": 172.235208,
            "velocity": 0.7874015748031497
          },
          {
            "duration": 2.8235280000000103,
            "durationTicks": 480,
            "midi": 59,
            "name": "B3",
            "ticks": 29280,
            "time": 172.235208,
            "velocity": 0.7874015748031497
          },
          {
            "duration": 2.8235280000000103,
            "durationTicks": 480,
            "midi": 55,
            "name": "G3",
            "ticks": 29280,
            "time": 172.235208,
            "velocity": 0.7874015748031497
          },
          {
            "duration": 2.1176459999999793,
            "durationTicks": 360,
            "midi": 55,
            "name": "G3",
            "ticks": 29760,
            "time": 175.058736,
            "velocity": 0.7874015748031497
          },
          {
            "duration": 2.1176459999999793,
            "durationTicks": 360,
            "midi": 59,
            "name": "B3",
            "ticks": 29760,
            "time": 175.058736,
            "velocity": 0.7874015748031497
          },
          {
            "duration": 2.1176459999999793,
            "durationTicks": 360,
            "midi": 62,
            "name": "D4",
            "ticks": 29760,
            "time": 175.058736,
            "velocity": 0.7874015748031497
          },
          {
            "duration": 2.1176459999999793,
            "durationTicks": 360,
            "midi": 66,
            "name": "F#4",
            "ticks": 29760,
            "time": 175.058736,
            "velocity": 0.7874015748031497
          },
          {
            "duration": 0.7058820000000026,
            "durationTicks": 120,
            "midi": 67,
            "name": "G4",
            "ticks": 30120,
            "time": 177.176382,
            "velocity": 0.7874015748031497
          },
          {
            "duration": 0.7058820000000026,
            "durationTicks": 120,
            "midi": 63,
            "name": "D#4",
            "ticks": 30120,
            "time": 177.176382,
            "velocity": 0.7874015748031497
          },
          {
            "duration": 0.7058820000000026,
            "durationTicks": 120,
            "midi": 62,
            "name": "D4",
            "ticks": 30120,
            "time": 177.176382,
            "velocity": 0.7874015748031497
          },
          {
            "duration": 0.7058820000000026,
            "durationTicks": 120,
            "midi": 59,
            "name": "B3",
            "ticks": 30120,
            "time": 177.176382,
            "velocity": 0.7874015748031497
          },
          {
            "duration": 2.8235280000000103,
            "durationTicks": 480,
            "midi": 66,
            "name": "F#4",
            "ticks": 30240,
            "time": 177.882264,
            "velocity": 0.7874015748031497
          },
          {
            "duration": 2.8235280000000103,
            "durationTicks": 480,
            "midi": 62,
            "name": "D4",
            "ticks": 30240,
            "time": 177.882264,
            "velocity": 0.7874015748031497
          },
          {
            "duration": 2.8235280000000103,
            "durationTicks": 480,
            "midi": 59,
            "name": "B3",
            "ticks": 30240,
            "time": 177.882264,
            "velocity": 0.7874015748031497
          },
          {
            "duration": 2.8235280000000103,
            "durationTicks": 480,
            "midi": 55,
            "name": "G3",
            "ticks": 30240,
            "time": 177.882264,
            "velocity": 0.7874015748031497
          },
          {
            "duration": 1.2352935000000116,
            "durationTicks": 210,
            "midi": 66,
            "name": "F#4",
            "ticks": 30720,
            "time": 180.705792,
            "velocity": 0.7874015748031497
          },
          {
            "duration": 1.2352935000000116,
            "durationTicks": 210,
            "midi": 62,
            "name": "D4",
            "ticks": 30720,
            "time": 180.705792,
            "velocity": 0.7874015748031497
          },
          {
            "duration": 1.2352935000000116,
            "durationTicks": 210,
            "midi": 59,
            "name": "B3",
            "ticks": 30720,
            "time": 180.705792,
            "velocity": 0.7874015748031497
          },
          {
            "duration": 1.2352935000000116,
            "durationTicks": 210,
            "midi": 55,
            "name": "G3",
            "ticks": 30720,
            "time": 180.705792,
            "velocity": 0.7874015748031497
          },
          {
            "duration": 0.8823524999999961,
            "durationTicks": 150,
            "midi": 61,
            "name": "C#4",
            "ticks": 30930,
            "time": 181.9410855,
            "velocity": 0.7874015748031497
          },
          {
            "duration": 0.8823524999999961,
            "durationTicks": 150,
            "midi": 58,
            "name": "A#3",
            "ticks": 30930,
            "time": 181.9410855,
            "velocity": 0.7874015748031497
          },
          {
            "duration": 0.8823524999999961,
            "durationTicks": 150,
            "midi": 65,
            "name": "F4",
            "ticks": 30930,
            "time": 181.9410855,
            "velocity": 0.7874015748031497
          },
          {
            "duration": 0.8823524999999961,
            "durationTicks": 150,
            "midi": 55,
            "name": "G3",
            "ticks": 30930,
            "time": 181.9410855,
            "velocity": 0.7874015748031497
          },
          {
            "duration": 0.529411500000009,
            "durationTicks": 90,
            "midi": 70,
            "name": "A#4",
            "ticks": 31110,
            "time": 182.9999085,
            "velocity": 0.7874015748031497
          },
          {
            "duration": 0.529411500000009,
            "durationTicks": 90,
            "midi": 67,
            "name": "G4",
            "ticks": 31110,
            "time": 182.9999085,
            "velocity": 0.7874015748031497
          },
          {
            "duration": 0.529411500000009,
            "durationTicks": 90,
            "midi": 65,
            "name": "F4",
            "ticks": 31110,
            "time": 182.9999085,
            "velocity": 0.7874015748031497
          },
          {
            "duration": 0.529411500000009,
            "durationTicks": 90,
            "midi": 61,
            "name": "C#4",
            "ticks": 31110,
            "time": 182.9999085,
            "velocity": 0.7874015748031497
          },
          {
            "duration": 1.0529406499999823,
            "durationTicks": 179,
            "midi": 66,
            "name": "F#4",
            "ticks": 31200,
            "time": 183.52932,
            "velocity": 0.7874015748031497
          },
          {
            "duration": 1.0529406499999823,
            "durationTicks": 179,
            "midi": 61,
            "name": "C#4",
            "ticks": 31200,
            "time": 183.52932,
            "velocity": 0.7874015748031497
          },
          {
            "duration": 1.0529406499999823,
            "durationTicks": 179,
            "midi": 57,
            "name": "A3",
            "ticks": 31200,
            "time": 183.52932,
            "velocity": 0.7874015748031497
          },
          {
            "duration": 1.0529406499999823,
            "durationTicks": 179,
            "midi": 69,
            "name": "A4",
            "ticks": 31200,
            "time": 183.52932,
            "velocity": 0.7874015748031497
          },
          {
            "duration": 0.3529410000000155,
            "durationTicks": 60,
            "midi": 59,
            "name": "B3",
            "ticks": 38790,
            "time": 228.1763565,
            "velocity": 0.7874015748031497
          },
          {
            "duration": 0.3529410000000155,
            "durationTicks": 60,
            "midi": 63,
            "name": "D#4",
            "ticks": 38790,
            "time": 228.1763565,
            "velocity": 0.7874015748031497
          },
          {
            "duration": 0.34705865000000813,
            "durationTicks": 59,
            "midi": 66,
            "name": "F#4",
            "ticks": 38790,
            "time": 228.1763565,
            "velocity": 0.7874015748031497
          },
          {
            "duration": 0.34705865000000813,
            "durationTicks": 59,
            "midi": 70,
            "name": "A#4",
            "ticks": 38790,
            "time": 228.1763565,
            "velocity": 0.7874015748031497
          },
          {
            "duration": 2.8235280000000103,
            "durationTicks": 480,
            "midi": 68,
            "name": "G#4",
            "ticks": 38880,
            "time": 228.705768,
            "velocity": 0.7874015748031497
          },
          {
            "duration": 2.8235280000000103,
            "durationTicks": 480,
            "midi": 58,
            "name": "A#3",
            "ticks": 38880,
            "time": 228.705768,
            "velocity": 0.7874015748031497
          },
          {
            "duration": 2.8235280000000103,
            "durationTicks": 480,
            "midi": 65,
            "name": "F4",
            "ticks": 38880,
            "time": 228.705768,
            "velocity": 0.7874015748031497
          },
          {
            "duration": 2.8235280000000103,
            "durationTicks": 480,
            "midi": 61,
            "name": "C#4",
            "ticks": 38880,
            "time": 228.705768,
            "velocity": 0.7874015748031497
          },
          {
            "duration": 2.823527999999982,
            "durationTicks": 480,
            "midi": 59,
            "name": "B3",
            "ticks": 39360,
            "time": 231.52929600000002,
            "velocity": 0.7874015748031497
          },
          {
            "duration": 2.823527999999982,
            "durationTicks": 480,
            "midi": 69,
            "name": "A4",
            "ticks": 39360,
            "time": 231.52929600000002,
            "velocity": 0.7874015748031497
          },
          {
            "duration": 2.823527999999982,
            "durationTicks": 480,
            "midi": 62,
            "name": "D4",
            "ticks": 39360,
            "time": 231.52929600000002,
            "velocity": 0.7874015748031497
          },
          {
            "duration": 2.823527999999982,
            "durationTicks": 480,
            "midi": 66,
            "name": "F#4",
            "ticks": 39360,
            "time": 231.52929600000002,
            "velocity": 0.7874015748031497
          },
          {
            "duration": 2.8235280000000103,
            "durationTicks": 480,
            "midi": 68,
            "name": "G#4",
            "ticks": 39840,
            "time": 234.352824,
            "velocity": 0.7874015748031497
          },
          {
            "duration": 2.8235280000000103,
            "durationTicks": 480,
            "midi": 66,
            "name": "F#4",
            "ticks": 39840,
            "time": 234.352824,
            "velocity": 0.7874015748031497
          },
          {
            "duration": 2.8235280000000103,
            "durationTicks": 480,
            "midi": 63,
            "name": "D#4",
            "ticks": 39840,
            "time": 234.352824,
            "velocity": 0.7874015748031497
          },
          {
            "duration": 2.8235280000000103,
            "durationTicks": 480,
            "midi": 59,
            "name": "B3",
            "ticks": 39840,
            "time": 234.352824,
            "velocity": 0.7874015748031497
          },
          {
            "duration": 1.4117640000000051,
            "durationTicks": 240,
            "midi": 65,
            "name": "F4",
            "ticks": 40320,
            "time": 237.176352,
            "velocity": 0.7874015748031497
          },
          {
            "duration": 1.4117640000000051,
            "durationTicks": 240,
            "midi": 68,
            "name": "G#4",
            "ticks": 40320,
            "time": 237.176352,
            "velocity": 0.7874015748031497
          },
          {
            "duration": 1.4117640000000051,
            "durationTicks": 240,
            "midi": 63,
            "name": "D#4",
            "ticks": 40320,
            "time": 237.176352,
            "velocity": 0.7874015748031497
          },
          {
            "duration": 1.4117640000000051,
            "durationTicks": 240,
            "midi": 59,
            "name": "B3",
            "ticks": 40320,
            "time": 237.176352,
            "velocity": 0.7874015748031497
          },
          {
            "duration": 1.4117639999999767,
            "durationTicks": 240,
            "midi": 68,
            "name": "G#4",
            "ticks": 40560,
            "time": 238.588116,
            "velocity": 0.7874015748031497
          },
          {
            "duration": 1.4117639999999767,
            "durationTicks": 240,
            "midi": 65,
            "name": "F4",
            "ticks": 40560,
            "time": 238.588116,
            "velocity": 0.7874015748031497
          },
          {
            "duration": 1.4117639999999767,
            "durationTicks": 240,
            "midi": 62,
            "name": "D4",
            "ticks": 40560,
            "time": 238.588116,
            "velocity": 0.7874015748031497
          },
          {
            "duration": 1.4117639999999767,
            "durationTicks": 240,
            "midi": 58,
            "name": "A#3",
            "ticks": 40560,
            "time": 238.588116,
            "velocity": 0.7874015748031497
          },
          {
            "duration": 2.8235280000000103,
            "durationTicks": 480,
            "midi": 63,
            "name": "D#4",
            "ticks": 40800,
            "time": 239.99988,
            "velocity": 0.7874015748031497
          },
          {
            "duration": 2.8235280000000103,
            "durationTicks": 480,
            "midi": 62,
            "name": "D4",
            "ticks": 40800,
            "time": 239.99988,
            "velocity": 0.7874015748031497
          },
          {
            "duration": 2.8235280000000103,
            "durationTicks": 480,
            "midi": 67,
            "name": "G4",
            "ticks": 40800,
            "time": 239.99988,
            "velocity": 0.7874015748031497
          },
          {
            "duration": 2.8235280000000103,
            "durationTicks": 480,
            "midi": 58,
            "name": "A#3",
            "ticks": 40800,
            "time": 239.99988,
            "velocity": 0.7874015748031497
          },
          {
            "duration": 1.4117640000000051,
            "durationTicks": 240,
            "midi": 66,
            "name": "F#4",
            "ticks": 41280,
            "time": 242.823408,
            "velocity": 0.7874015748031497
          },
          {
            "duration": 1.4117640000000051,
            "durationTicks": 240,
            "midi": 63,
            "name": "D#4",
            "ticks": 41280,
            "time": 242.823408,
            "velocity": 0.7874015748031497
          },
          {
            "duration": 1.4117640000000051,
            "durationTicks": 240,
            "midi": 59,
            "name": "B3",
            "ticks": 41280,
            "time": 242.823408,
            "velocity": 0.7874015748031497
          },
          {
            "duration": 1.4117640000000051,
            "durationTicks": 240,
            "midi": 56,
            "name": "G#3",
            "ticks": 41280,
            "time": 242.823408,
            "velocity": 0.7874015748031497
          },
          {
            "duration": 1.4117640000000051,
            "durationTicks": 240,
            "midi": 65,
            "name": "F4",
            "ticks": 41520,
            "time": 244.235172,
            "velocity": 0.7874015748031497
          },
          {
            "duration": 1.4117640000000051,
            "durationTicks": 240,
            "midi": 61,
            "name": "C#4",
            "ticks": 41520,
            "time": 244.235172,
            "velocity": 0.7874015748031497
          },
          {
            "duration": 1.4117640000000051,
            "durationTicks": 240,
            "midi": 59,
            "name": "B3",
            "ticks": 41520,
            "time": 244.235172,
            "velocity": 0.7874015748031497
          },
          {
            "duration": 1.4117640000000051,
            "durationTicks": 240,
            "midi": 56,
            "name": "G#3",
            "ticks": 41520,
            "time": 244.235172,
            "velocity": 0.7874015748031497
          },
          {
            "duration": 2.823527999999982,
            "durationTicks": 480,
            "midi": 58,
            "name": "A#3",
            "ticks": 41760,
            "time": 245.646936,
            "velocity": 0.7874015748031497
          },
          {
            "duration": 2.823527999999982,
            "durationTicks": 480,
            "midi": 65,
            "name": "F4",
            "ticks": 41760,
            "time": 245.646936,
            "velocity": 0.7874015748031497
          },
          {
            "duration": 2.823527999999982,
            "durationTicks": 480,
            "midi": 61,
            "name": "C#4",
            "ticks": 41760,
            "time": 245.646936,
            "velocity": 0.7874015748031497
          },
          {
            "duration": 2.823527999999982,
            "durationTicks": 480,
            "midi": 54,
            "name": "F#3",
            "ticks": 41760,
            "time": 245.646936,
            "velocity": 0.7874015748031497
          },
          {
            "duration": 1.2294111500000042,
            "durationTicks": 209,
            "midi": 64,
            "name": "E4",
            "ticks": 42240,
            "time": 248.470464,
            "velocity": 0.7874015748031497
          },
          {
            "duration": 1.2294111500000042,
            "durationTicks": 209,
            "midi": 61,
            "name": "C#4",
            "ticks": 42240,
            "time": 248.470464,
            "velocity": 0.7874015748031497
          },
          {
            "duration": 1.2294111500000042,
            "durationTicks": 209,
            "midi": 57,
            "name": "A3",
            "ticks": 42240,
            "time": 248.470464,
            "velocity": 0.7874015748031497
          },
          {
            "duration": 1.2294111500000042,
            "durationTicks": 209,
            "midi": 54,
            "name": "F#3",
            "ticks": 42240,
            "time": 248.470464,
            "velocity": 0.7874015748031497
          },
          {
            "duration": 1.5823521499999913,
            "durationTicks": 269,
            "midi": 57,
            "name": "A3",
            "ticks": 42450,
            "time": 249.7057575,
            "velocity": 0.7874015748031497
          },
          {
            "duration": 1.5823521499999913,
            "durationTicks": 269,
            "midi": 60,
            "name": "C4",
            "ticks": 42450,
            "time": 249.7057575,
            "velocity": 0.7874015748031497
          },
          {
            "duration": 1.5823521499999913,
            "durationTicks": 269,
            "midi": 63,
            "name": "D#4",
            "ticks": 42450,
            "time": 249.7057575,
            "velocity": 0.7874015748031497
          },
          {
            "duration": 1.5823521499999913,
            "durationTicks": 269,
            "midi": 67,
            "name": "G4",
            "ticks": 42450,
            "time": 249.7057575,
            "velocity": 0.7874015748031497
          },
          {
            "duration": 0.529411500000009,
            "durationTicks": 90,
            "midi": 66,
            "name": "F#4",
            "ticks": 42720,
            "time": 251.293992,
            "velocity": 0.7874015748031497
          },
          {
            "duration": 0.529411500000009,
            "durationTicks": 90,
            "midi": 63,
            "name": "D#4",
            "ticks": 42720,
            "time": 251.293992,
            "velocity": 0.7874015748031497
          },
          {
            "duration": 0.529411500000009,
            "durationTicks": 90,
            "midi": 59,
            "name": "B3",
            "ticks": 42720,
            "time": 251.293992,
            "velocity": 0.7874015748031497
          },
          {
            "duration": 0.529411500000009,
            "durationTicks": 90,
            "midi": 56,
            "name": "G#3",
            "ticks": 42720,
            "time": 251.293992,
            "velocity": 0.7874015748031497
          },
          {
            "duration": 0.17647049999999354,
            "durationTicks": 30,
            "midi": 63,
            "name": "D#4",
            "ticks": 42810,
            "time": 251.8234035,
            "velocity": 0.7874015748031497
          },
          {
            "duration": 0.17647049999999354,
            "durationTicks": 30,
            "midi": 66,
            "name": "F#4",
            "ticks": 42810,
            "time": 251.8234035,
            "velocity": 0.7874015748031497
          },
          {
            "duration": 0.17647049999999354,
            "durationTicks": 30,
            "midi": 59,
            "name": "B3",
            "ticks": 42810,
            "time": 251.8234035,
            "velocity": 0.7874015748031497
          },
          {
            "duration": 0.17647049999999354,
            "durationTicks": 30,
            "midi": 56,
            "name": "G#3",
            "ticks": 42810,
            "time": 251.8234035,
            "velocity": 0.7874015748031497
          },
          {
            "duration": 1.4117640000000051,
            "durationTicks": 240,
            "midi": 66,
            "name": "F#4",
            "ticks": 42960,
            "time": 252.705756,
            "velocity": 0.7874015748031497
          },
          {
            "duration": 1.4117640000000051,
            "durationTicks": 240,
            "midi": 63,
            "name": "D#4",
            "ticks": 42960,
            "time": 252.705756,
            "velocity": 0.7874015748031497
          },
          {
            "duration": 1.4117640000000051,
            "durationTicks": 240,
            "midi": 59,
            "name": "B3",
            "ticks": 42960,
            "time": 252.705756,
            "velocity": 0.7874015748031497
          },
          {
            "duration": 1.4117640000000051,
            "durationTicks": 240,
            "midi": 56,
            "name": "G#3",
            "ticks": 42960,
            "time": 252.705756,
            "velocity": 0.7874015748031497
          },
          {
            "duration": 0.5294114999999806,
            "durationTicks": 90,
            "midi": 60,
            "name": "C4",
            "ticks": 43200,
            "time": 254.11752,
            "velocity": 0.7874015748031497
          },
          {
            "duration": 0.5294114999999806,
            "durationTicks": 90,
            "midi": 64,
            "name": "E4",
            "ticks": 43200,
            "time": 254.11752,
            "velocity": 0.7874015748031497
          },
          {
            "duration": 0.5294114999999806,
            "durationTicks": 90,
            "midi": 55,
            "name": "G3",
            "ticks": 43200,
            "time": 254.11752,
            "velocity": 0.7874015748031497
          },
          {
            "duration": 0.17647050000002196,
            "durationTicks": 30,
            "midi": 64,
            "name": "E4",
            "ticks": 43290,
            "time": 254.6469315,
            "velocity": 0.7874015748031497
          },
          {
            "duration": 0.17647050000002196,
            "durationTicks": 30,
            "midi": 60,
            "name": "C4",
            "ticks": 43290,
            "time": 254.6469315,
            "velocity": 0.7874015748031497
          },
          {
            "duration": 0.17647050000002196,
            "durationTicks": 30,
            "midi": 55,
            "name": "G3",
            "ticks": 43290,
            "time": 254.6469315,
            "velocity": 0.7874015748031497
          },
          {
            "duration": 1.4117640000000335,
            "durationTicks": 240,
            "midi": 64,
            "name": "E4",
            "ticks": 43440,
            "time": 255.529284,
            "velocity": 0.7874015748031497
          },
          {
            "duration": 1.4117640000000335,
            "durationTicks": 240,
            "midi": 60,
            "name": "C4",
            "ticks": 43440,
            "time": 255.529284,
            "velocity": 0.7874015748031497
          },
          {
            "duration": 1.4117640000000335,
            "durationTicks": 240,
            "midi": 57,
            "name": "A3",
            "ticks": 43440,
            "time": 255.529284,
            "velocity": 0.7874015748031497
          },
          {
            "duration": 1.4117640000000335,
            "durationTicks": 240,
            "midi": 54,
            "name": "F#3",
            "ticks": 43440,
            "time": 255.529284,
            "velocity": 0.7874015748031497
          },
          {
            "duration": 0.5294114999999806,
            "durationTicks": 90,
            "midi": 56,
            "name": "G#3",
            "ticks": 43680,
            "time": 256.941048,
            "velocity": 0.7874015748031497
          },
          {
            "duration": 0.5294114999999806,
            "durationTicks": 90,
            "midi": 64,
            "name": "E4",
            "ticks": 43680,
            "time": 256.941048,
            "velocity": 0.7874015748031497
          },
          {
            "duration": 0.5294114999999806,
            "durationTicks": 90,
            "midi": 59,
            "name": "B3",
            "ticks": 43680,
            "time": 256.941048,
            "velocity": 0.7874015748031497
          },
          {
            "duration": 0.17647049999999354,
            "durationTicks": 30,
            "midi": 64,
            "name": "E4",
            "ticks": 43770,
            "time": 257.4704595,
            "velocity": 0.7874015748031497
          },
          {
            "duration": 0.17647049999999354,
            "durationTicks": 30,
            "midi": 59,
            "name": "B3",
            "ticks": 43770,
            "time": 257.4704595,
            "velocity": 0.7874015748031497
          },
          {
            "duration": 0.17647049999999354,
            "durationTicks": 30,
            "midi": 56,
            "name": "G#3",
            "ticks": 43770,
            "time": 257.4704595,
            "velocity": 0.7874015748031497
          },
          {
            "duration": 1.4117639999999483,
            "durationTicks": 240,
            "midi": 64,
            "name": "E4",
            "ticks": 43920,
            "time": 258.35281200000003,
            "velocity": 0.7874015748031497
          },
          {
            "duration": 1.4117639999999483,
            "durationTicks": 240,
            "midi": 59,
            "name": "B3",
            "ticks": 43920,
            "time": 258.35281200000003,
            "velocity": 0.7874015748031497
          },
          {
            "duration": 1.4117639999999483,
            "durationTicks": 240,
            "midi": 56,
            "name": "G#3",
            "ticks": 43920,
            "time": 258.35281200000003,
            "velocity": 0.7874015748031497
          },
          {
            "duration": 0.5294115000000374,
            "durationTicks": 90,
            "midi": 66,
            "name": "F#4",
            "ticks": 44160,
            "time": 259.764576,
            "velocity": 0.7874015748031497
          },
          {
            "duration": 0.5294115000000374,
            "durationTicks": 90,
            "midi": 62,
            "name": "D4",
            "ticks": 44160,
            "time": 259.764576,
            "velocity": 0.7874015748031497
          },
          {
            "duration": 0.5294115000000374,
            "durationTicks": 90,
            "midi": 57,
            "name": "A3",
            "ticks": 44160,
            "time": 259.764576,
            "velocity": 0.7874015748031497
          },
          {
            "duration": 0.17647049999999354,
            "durationTicks": 30,
            "midi": 62,
            "name": "D4",
            "ticks": 44250,
            "time": 260.2939875,
            "velocity": 0.7874015748031497
          },
          {
            "duration": 0.17647049999999354,
            "durationTicks": 30,
            "midi": 66,
            "name": "F#4",
            "ticks": 44250,
            "time": 260.2939875,
            "velocity": 0.7874015748031497
          },
          {
            "duration": 0.17647049999999354,
            "durationTicks": 30,
            "midi": 57,
            "name": "A3",
            "ticks": 44250,
            "time": 260.2939875,
            "velocity": 0.7874015748031497
          },
          {
            "duration": 1.5882344999999987,
            "durationTicks": 270,
            "midi": 56,
            "name": "G#3",
            "ticks": 44370,
            "time": 260.9998695,
            "velocity": 0.7874015748031497
          },
          {
            "duration": 1.5882344999999987,
            "durationTicks": 270,
            "midi": 60,
            "name": "C4",
            "ticks": 44370,
            "time": 260.9998695,
            "velocity": 0.7874015748031497
          },
          {
            "duration": 1.5882344999999987,
            "durationTicks": 270,
            "midi": 64,
            "name": "E4",
            "ticks": 44370,
            "time": 260.9998695,
            "velocity": 0.7874015748031497
          },
          {
            "duration": 2.8235280000000103,
            "durationTicks": 480,
            "midi": 64,
            "name": "E4",
            "ticks": 44640,
            "time": 262.588104,
            "velocity": 0.7874015748031497
          },
          {
            "duration": 2.8235280000000103,
            "durationTicks": 480,
            "midi": 61,
            "name": "C#4",
            "ticks": 44640,
            "time": 262.588104,
            "velocity": 0.7874015748031497
          },
          {
            "duration": 2.8235280000000103,
            "durationTicks": 480,
            "midi": 56,
            "name": "G#3",
            "ticks": 44640,
            "time": 262.588104,
            "velocity": 0.7874015748031497
          },
          {
            "duration": 2.8235280000000103,
            "durationTicks": 480,
            "midi": 60,
            "name": "C4",
            "ticks": 45120,
            "time": 265.411632,
            "velocity": 0.7874015748031497
          },
          {
            "duration": 2.8235280000000103,
            "durationTicks": 480,
            "midi": 64,
            "name": "E4",
            "ticks": 45120,
            "time": 265.411632,
            "velocity": 0.7874015748031497
          },
          {
            "duration": 2.8235280000000103,
            "durationTicks": 480,
            "midi": 56,
            "name": "G#3",
            "ticks": 45120,
            "time": 265.411632,
            "velocity": 0.7874015748031497
          },
          {
            "duration": 2.8235280000000103,
            "durationTicks": 480,
            "midi": 64,
            "name": "E4",
            "ticks": 45600,
            "time": 268.23516,
            "velocity": 0.7874015748031497
          },
          {
            "duration": 2.8235280000000103,
            "durationTicks": 480,
            "midi": 59,
            "name": "B3",
            "ticks": 45600,
            "time": 268.23516,
            "velocity": 0.7874015748031497
          },
          {
            "duration": 2.8235280000000103,
            "durationTicks": 480,
            "midi": 56,
            "name": "G#3",
            "ticks": 45600,
            "time": 268.23516,
            "velocity": 0.7874015748031497
          },
          {
            "duration": 2.1176459999999793,
            "durationTicks": 360,
            "midi": 57,
            "name": "A3",
            "ticks": 46080,
            "time": 271.058688,
            "velocity": 0.7874015748031497
          },
          {
            "duration": 2.1176459999999793,
            "durationTicks": 360,
            "midi": 61,
            "name": "C#4",
            "ticks": 46080,
            "time": 271.058688,
            "velocity": 0.7874015748031497
          },
          {
            "duration": 2.1176459999999793,
            "durationTicks": 360,
            "midi": 64,
            "name": "E4",
            "ticks": 46080,
            "time": 271.058688,
            "velocity": 0.7874015748031497
          },
          {
            "duration": 0.705882000000031,
            "durationTicks": 120,
            "midi": 63,
            "name": "D#4",
            "ticks": 46440,
            "time": 273.176334,
            "velocity": 0.7874015748031497
          },
          {
            "duration": 0.705882000000031,
            "durationTicks": 120,
            "midi": 67,
            "name": "G4",
            "ticks": 46440,
            "time": 273.176334,
            "velocity": 0.7874015748031497
          },
          {
            "duration": 0.705882000000031,
            "durationTicks": 120,
            "midi": 57,
            "name": "A3",
            "ticks": 46440,
            "time": 273.176334,
            "velocity": 0.7874015748031497
          },
          {
            "duration": 0.5294114999999806,
            "durationTicks": 90,
            "midi": 66,
            "name": "F#4",
            "ticks": 46560,
            "time": 273.882216,
            "velocity": 0.7874015748031497
          },
          {
            "duration": 0.5294114999999806,
            "durationTicks": 90,
            "midi": 63,
            "name": "D#4",
            "ticks": 46560,
            "time": 273.882216,
            "velocity": 0.7874015748031497
          },
          {
            "duration": 0.5294114999999806,
            "durationTicks": 90,
            "midi": 59,
            "name": "B3",
            "ticks": 46560,
            "time": 273.882216,
            "velocity": 0.7874015748031497
          },
          {
            "duration": 0.5294114999999806,
            "durationTicks": 90,
            "midi": 56,
            "name": "G#3",
            "ticks": 46560,
            "time": 273.882216,
            "velocity": 0.7874015748031497
          },
          {
            "duration": 0.17647049999999354,
            "durationTicks": 30,
            "midi": 63,
            "name": "D#4",
            "ticks": 46650,
            "time": 274.4116275,
            "velocity": 0.7874015748031497
          },
          {
            "duration": 0.17647049999999354,
            "durationTicks": 30,
            "midi": 66,
            "name": "F#4",
            "ticks": 46650,
            "time": 274.4116275,
            "velocity": 0.7874015748031497
          },
          {
            "duration": 0.17647049999999354,
            "durationTicks": 30,
            "midi": 59,
            "name": "B3",
            "ticks": 46650,
            "time": 274.4116275,
            "velocity": 0.7874015748031497
          },
          {
            "duration": 0.17647049999999354,
            "durationTicks": 30,
            "midi": 56,
            "name": "G#3",
            "ticks": 46650,
            "time": 274.4116275,
            "velocity": 0.7874015748031497
          },
          {
            "duration": 1.4117640000000051,
            "durationTicks": 240,
            "midi": 66,
            "name": "F#4",
            "ticks": 46800,
            "time": 275.29398,
            "velocity": 0.7874015748031497
          },
          {
            "duration": 1.4117640000000051,
            "durationTicks": 240,
            "midi": 63,
            "name": "D#4",
            "ticks": 46800,
            "time": 275.29398,
            "velocity": 0.7874015748031497
          },
          {
            "duration": 1.4117640000000051,
            "durationTicks": 240,
            "midi": 59,
            "name": "B3",
            "ticks": 46800,
            "time": 275.29398,
            "velocity": 0.7874015748031497
          },
          {
            "duration": 1.4117640000000051,
            "durationTicks": 240,
            "midi": 56,
            "name": "G#3",
            "ticks": 46800,
            "time": 275.29398,
            "velocity": 0.7874015748031497
          },
          {
            "duration": 0.5294115000000374,
            "durationTicks": 90,
            "midi": 60,
            "name": "C4",
            "ticks": 47040,
            "time": 276.705744,
            "velocity": 0.7874015748031497
          },
          {
            "duration": 0.5294115000000374,
            "durationTicks": 90,
            "midi": 64,
            "name": "E4",
            "ticks": 47040,
            "time": 276.705744,
            "velocity": 0.7874015748031497
          },
          {
            "duration": 0.5294115000000374,
            "durationTicks": 90,
            "midi": 55,
            "name": "G3",
            "ticks": 47040,
            "time": 276.705744,
            "velocity": 0.7874015748031497
          },
          {
            "duration": 0.17647049999999354,
            "durationTicks": 30,
            "midi": 64,
            "name": "E4",
            "ticks": 47130,
            "time": 277.2351555,
            "velocity": 0.7874015748031497
          },
          {
            "duration": 0.17647049999999354,
            "durationTicks": 30,
            "midi": 60,
            "name": "C4",
            "ticks": 47130,
            "time": 277.2351555,
            "velocity": 0.7874015748031497
          },
          {
            "duration": 0.17647049999999354,
            "durationTicks": 30,
            "midi": 55,
            "name": "G3",
            "ticks": 47130,
            "time": 277.2351555,
            "velocity": 0.7874015748031497
          },
          {
            "duration": 1.4117640000000051,
            "durationTicks": 240,
            "midi": 64,
            "name": "E4",
            "ticks": 47280,
            "time": 278.117508,
            "velocity": 0.7874015748031497
          },
          {
            "duration": 1.4117640000000051,
            "durationTicks": 240,
            "midi": 60,
            "name": "C4",
            "ticks": 47280,
            "time": 278.117508,
            "velocity": 0.7874015748031497
          },
          {
            "duration": 1.4117640000000051,
            "durationTicks": 240,
            "midi": 57,
            "name": "A3",
            "ticks": 47280,
            "time": 278.117508,
            "velocity": 0.7874015748031497
          },
          {
            "duration": 1.4117640000000051,
            "durationTicks": 240,
            "midi": 54,
            "name": "F#3",
            "ticks": 47280,
            "time": 278.117508,
            "velocity": 0.7874015748031497
          },
          {
            "duration": 0.5294115000000374,
            "durationTicks": 90,
            "midi": 56,
            "name": "G#3",
            "ticks": 47520,
            "time": 279.529272,
            "velocity": 0.7874015748031497
          },
          {
            "duration": 0.5294115000000374,
            "durationTicks": 90,
            "midi": 64,
            "name": "E4",
            "ticks": 47520,
            "time": 279.529272,
            "velocity": 0.7874015748031497
          },
          {
            "duration": 0.5294115000000374,
            "durationTicks": 90,
            "midi": 59,
            "name": "B3",
            "ticks": 47520,
            "time": 279.529272,
            "velocity": 0.7874015748031497
          },
          {
            "duration": 0.17647049999999354,
            "durationTicks": 30,
            "midi": 64,
            "name": "E4",
            "ticks": 47610,
            "time": 280.05868350000003,
            "velocity": 0.7874015748031497
          },
          {
            "duration": 0.17647049999999354,
            "durationTicks": 30,
            "midi": 59,
            "name": "B3",
            "ticks": 47610,
            "time": 280.05868350000003,
            "velocity": 0.7874015748031497
          },
          {
            "duration": 0.17647049999999354,
            "durationTicks": 30,
            "midi": 56,
            "name": "G#3",
            "ticks": 47610,
            "time": 280.05868350000003,
            "velocity": 0.7874015748031497
          },
          {
            "duration": 1.4117640000000051,
            "durationTicks": 240,
            "midi": 64,
            "name": "E4",
            "ticks": 47760,
            "time": 280.941036,
            "velocity": 0.7874015748031497
          },
          {
            "duration": 1.4117640000000051,
            "durationTicks": 240,
            "midi": 59,
            "name": "B3",
            "ticks": 47760,
            "time": 280.941036,
            "velocity": 0.7874015748031497
          },
          {
            "duration": 1.4117640000000051,
            "durationTicks": 240,
            "midi": 56,
            "name": "G#3",
            "ticks": 47760,
            "time": 280.941036,
            "velocity": 0.7874015748031497
          },
          {
            "duration": 0.5294114999999806,
            "durationTicks": 90,
            "midi": 66,
            "name": "F#4",
            "ticks": 48000,
            "time": 282.3528,
            "velocity": 0.7874015748031497
          },
          {
            "duration": 0.5294114999999806,
            "durationTicks": 90,
            "midi": 62,
            "name": "D4",
            "ticks": 48000,
            "time": 282.3528,
            "velocity": 0.7874015748031497
          },
          {
            "duration": 0.5294114999999806,
            "durationTicks": 90,
            "midi": 57,
            "name": "A3",
            "ticks": 48000,
            "time": 282.3528,
            "velocity": 0.7874015748031497
          },
          {
            "duration": 0.17647049999999354,
            "durationTicks": 30,
            "midi": 62,
            "name": "D4",
            "ticks": 48090,
            "time": 282.8822115,
            "velocity": 0.7874015748031497
          },
          {
            "duration": 0.17647049999999354,
            "durationTicks": 30,
            "midi": 66,
            "name": "F#4",
            "ticks": 48090,
            "time": 282.8822115,
            "velocity": 0.7874015748031497
          },
          {
            "duration": 0.17647049999999354,
            "durationTicks": 30,
            "midi": 57,
            "name": "A3",
            "ticks": 48090,
            "time": 282.8822115,
            "velocity": 0.7874015748031497
          },
          {
            "duration": 1.5882344999999987,
            "durationTicks": 270,
            "midi": 56,
            "name": "G#3",
            "ticks": 48210,
            "time": 283.5880935,
            "velocity": 0.7874015748031497
          },
          {
            "duration": 1.5882344999999987,
            "durationTicks": 270,
            "midi": 60,
            "name": "C4",
            "ticks": 48210,
            "time": 283.5880935,
            "velocity": 0.7874015748031497
          },
          {
            "duration": 1.5882344999999987,
            "durationTicks": 270,
            "midi": 64,
            "name": "E4",
            "ticks": 48210,
            "time": 283.5880935,
            "velocity": 0.7874015748031497
          },
          {
            "duration": 2.8235280000000103,
            "durationTicks": 480,
            "midi": 64,
            "name": "E4",
            "ticks": 48480,
            "time": 285.176328,
            "velocity": 0.7874015748031497
          },
          {
            "duration": 2.8235280000000103,
            "durationTicks": 480,
            "midi": 61,
            "name": "C#4",
            "ticks": 48480,
            "time": 285.176328,
            "velocity": 0.7874015748031497
          },
          {
            "duration": 2.8235280000000103,
            "durationTicks": 480,
            "midi": 56,
            "name": "G#3",
            "ticks": 48480,
            "time": 285.176328,
            "velocity": 0.7874015748031497
          },
          {
            "duration": 2.8235279999999534,
            "durationTicks": 480,
            "midi": 60,
            "name": "C4",
            "ticks": 48960,
            "time": 287.999856,
            "velocity": 0.7874015748031497
          },
          {
            "duration": 2.8235279999999534,
            "durationTicks": 480,
            "midi": 64,
            "name": "E4",
            "ticks": 48960,
            "time": 287.999856,
            "velocity": 0.7874015748031497
          },
          {
            "duration": 2.8235279999999534,
            "durationTicks": 480,
            "midi": 56,
            "name": "G#3",
            "ticks": 48960,
            "time": 287.999856,
            "velocity": 0.7874015748031497
          },
          {
            "duration": 2.8235280000000103,
            "durationTicks": 480,
            "midi": 64,
            "name": "E4",
            "ticks": 49440,
            "time": 290.823384,
            "velocity": 0.7874015748031497
          },
          {
            "duration": 2.8235280000000103,
            "durationTicks": 480,
            "midi": 59,
            "name": "B3",
            "ticks": 49440,
            "time": 290.823384,
            "velocity": 0.7874015748031497
          },
          {
            "duration": 2.8235280000000103,
            "durationTicks": 480,
            "midi": 56,
            "name": "G#3",
            "ticks": 49440,
            "time": 290.823384,
            "velocity": 0.7874015748031497
          },
          {
            "duration": 2.117646000000036,
            "durationTicks": 360,
            "midi": 57,
            "name": "A3",
            "ticks": 49920,
            "time": 293.646912,
            "velocity": 0.7874015748031497
          },
          {
            "duration": 2.117646000000036,
            "durationTicks": 360,
            "midi": 61,
            "name": "C#4",
            "ticks": 49920,
            "time": 293.646912,
            "velocity": 0.7874015748031497
          },
          {
            "duration": 2.117646000000036,
            "durationTicks": 360,
            "midi": 64,
            "name": "E4",
            "ticks": 49920,
            "time": 293.646912,
            "velocity": 0.7874015748031497
          },
          {
            "duration": 0.7058819999999741,
            "durationTicks": 120,
            "midi": 63,
            "name": "D#4",
            "ticks": 50280,
            "time": 295.764558,
            "velocity": 0.7874015748031497
          },
          {
            "duration": 0.7058819999999741,
            "durationTicks": 120,
            "midi": 67,
            "name": "G4",
            "ticks": 50280,
            "time": 295.764558,
            "velocity": 0.7874015748031497
          },
          {
            "duration": 0.7058819999999741,
            "durationTicks": 120,
            "midi": 57,
            "name": "A3",
            "ticks": 50280,
            "time": 295.764558,
            "velocity": 0.7874015748031497
          },
          {
            "duration": 0.5294114999999806,
            "durationTicks": 90,
            "midi": 66,
            "name": "F#4",
            "ticks": 50400,
            "time": 296.47044,
            "velocity": 0.7874015748031497
          },
          {
            "duration": 0.5294114999999806,
            "durationTicks": 90,
            "midi": 63,
            "name": "D#4",
            "ticks": 50400,
            "time": 296.47044,
            "velocity": 0.7874015748031497
          },
          {
            "duration": 0.5294114999999806,
            "durationTicks": 90,
            "midi": 59,
            "name": "B3",
            "ticks": 50400,
            "time": 296.47044,
            "velocity": 0.7874015748031497
          },
          {
            "duration": 0.5294114999999806,
            "durationTicks": 90,
            "midi": 56,
            "name": "G#3",
            "ticks": 50400,
            "time": 296.47044,
            "velocity": 0.7874015748031497
          },
          {
            "duration": 0.17647050000005038,
            "durationTicks": 30,
            "midi": 63,
            "name": "D#4",
            "ticks": 50490,
            "time": 296.9998515,
            "velocity": 0.7874015748031497
          },
          {
            "duration": 0.17647050000005038,
            "durationTicks": 30,
            "midi": 66,
            "name": "F#4",
            "ticks": 50490,
            "time": 296.9998515,
            "velocity": 0.7874015748031497
          },
          {
            "duration": 0.17647050000005038,
            "durationTicks": 30,
            "midi": 59,
            "name": "B3",
            "ticks": 50490,
            "time": 296.9998515,
            "velocity": 0.7874015748031497
          },
          {
            "duration": 0.17647050000005038,
            "durationTicks": 30,
            "midi": 56,
            "name": "G#3",
            "ticks": 50490,
            "time": 296.9998515,
            "velocity": 0.7874015748031497
          },
          {
            "duration": 1.4117640000000051,
            "durationTicks": 240,
            "midi": 66,
            "name": "F#4",
            "ticks": 50640,
            "time": 297.882204,
            "velocity": 0.7874015748031497
          },
          {
            "duration": 1.4117640000000051,
            "durationTicks": 240,
            "midi": 63,
            "name": "D#4",
            "ticks": 50640,
            "time": 297.882204,
            "velocity": 0.7874015748031497
          },
          {
            "duration": 1.4117640000000051,
            "durationTicks": 240,
            "midi": 59,
            "name": "B3",
            "ticks": 50640,
            "time": 297.882204,
            "velocity": 0.7874015748031497
          },
          {
            "duration": 1.4117640000000051,
            "durationTicks": 240,
            "midi": 56,
            "name": "G#3",
            "ticks": 50640,
            "time": 297.882204,
            "velocity": 0.7874015748031497
          },
          {
            "duration": 0.5294114999999806,
            "durationTicks": 90,
            "midi": 60,
            "name": "C4",
            "ticks": 50880,
            "time": 299.293968,
            "velocity": 0.7874015748031497
          },
          {
            "duration": 0.5294114999999806,
            "durationTicks": 90,
            "midi": 64,
            "name": "E4",
            "ticks": 50880,
            "time": 299.293968,
            "velocity": 0.7874015748031497
          },
          {
            "duration": 0.5294114999999806,
            "durationTicks": 90,
            "midi": 55,
            "name": "G3",
            "ticks": 50880,
            "time": 299.293968,
            "velocity": 0.7874015748031497
          },
          {
            "duration": 0.17647049999999354,
            "durationTicks": 30,
            "midi": 64,
            "name": "E4",
            "ticks": 50970,
            "time": 299.8233795,
            "velocity": 0.7874015748031497
          },
          {
            "duration": 0.17647049999999354,
            "durationTicks": 30,
            "midi": 60,
            "name": "C4",
            "ticks": 50970,
            "time": 299.8233795,
            "velocity": 0.7874015748031497
          },
          {
            "duration": 0.17647049999999354,
            "durationTicks": 30,
            "midi": 55,
            "name": "G3",
            "ticks": 50970,
            "time": 299.8233795,
            "velocity": 0.7874015748031497
          },
          {
            "duration": 1.4117640000000051,
            "durationTicks": 240,
            "midi": 64,
            "name": "E4",
            "ticks": 51120,
            "time": 300.705732,
            "velocity": 0.7874015748031497
          },
          {
            "duration": 1.4117640000000051,
            "durationTicks": 240,
            "midi": 60,
            "name": "C4",
            "ticks": 51120,
            "time": 300.705732,
            "velocity": 0.7874015748031497
          },
          {
            "duration": 1.4117640000000051,
            "durationTicks": 240,
            "midi": 57,
            "name": "A3",
            "ticks": 51120,
            "time": 300.705732,
            "velocity": 0.7874015748031497
          },
          {
            "duration": 1.4117640000000051,
            "durationTicks": 240,
            "midi": 54,
            "name": "F#3",
            "ticks": 51120,
            "time": 300.705732,
            "velocity": 0.7874015748031497
          },
          {
            "duration": 0.5294114999999806,
            "durationTicks": 90,
            "midi": 56,
            "name": "G#3",
            "ticks": 51360,
            "time": 302.117496,
            "velocity": 0.7874015748031497
          },
          {
            "duration": 0.5294114999999806,
            "durationTicks": 90,
            "midi": 64,
            "name": "E4",
            "ticks": 51360,
            "time": 302.117496,
            "velocity": 0.7874015748031497
          },
          {
            "duration": 0.5294114999999806,
            "durationTicks": 90,
            "midi": 59,
            "name": "B3",
            "ticks": 51360,
            "time": 302.117496,
            "velocity": 0.7874015748031497
          },
          {
            "duration": 0.17647049999999354,
            "durationTicks": 30,
            "midi": 64,
            "name": "E4",
            "ticks": 51450,
            "time": 302.6469075,
            "velocity": 0.7874015748031497
          },
          {
            "duration": 0.17647049999999354,
            "durationTicks": 30,
            "midi": 59,
            "name": "B3",
            "ticks": 51450,
            "time": 302.6469075,
            "velocity": 0.7874015748031497
          },
          {
            "duration": 0.17647049999999354,
            "durationTicks": 30,
            "midi": 56,
            "name": "G#3",
            "ticks": 51450,
            "time": 302.6469075,
            "velocity": 0.7874015748031497
          },
          {
            "duration": 1.4117640000000051,
            "durationTicks": 240,
            "midi": 64,
            "name": "E4",
            "ticks": 51600,
            "time": 303.52926,
            "velocity": 0.7874015748031497
          },
          {
            "duration": 1.4117640000000051,
            "durationTicks": 240,
            "midi": 59,
            "name": "B3",
            "ticks": 51600,
            "time": 303.52926,
            "velocity": 0.7874015748031497
          },
          {
            "duration": 1.4117640000000051,
            "durationTicks": 240,
            "midi": 56,
            "name": "G#3",
            "ticks": 51600,
            "time": 303.52926,
            "velocity": 0.7874015748031497
          },
          {
            "duration": 0.5294114999999806,
            "durationTicks": 90,
            "midi": 66,
            "name": "F#4",
            "ticks": 51840,
            "time": 304.941024,
            "velocity": 0.7874015748031497
          },
          {
            "duration": 0.5294114999999806,
            "durationTicks": 90,
            "midi": 62,
            "name": "D4",
            "ticks": 51840,
            "time": 304.941024,
            "velocity": 0.7874015748031497
          },
          {
            "duration": 0.5294114999999806,
            "durationTicks": 90,
            "midi": 57,
            "name": "A3",
            "ticks": 51840,
            "time": 304.941024,
            "velocity": 0.7874015748031497
          },
          {
            "duration": 0.17647049999999354,
            "durationTicks": 30,
            "midi": 62,
            "name": "D4",
            "ticks": 51930,
            "time": 305.4704355,
            "velocity": 0.7874015748031497
          },
          {
            "duration": 0.17647049999999354,
            "durationTicks": 30,
            "midi": 66,
            "name": "F#4",
            "ticks": 51930,
            "time": 305.4704355,
            "velocity": 0.7874015748031497
          },
          {
            "duration": 0.17647049999999354,
            "durationTicks": 30,
            "midi": 57,
            "name": "A3",
            "ticks": 51930,
            "time": 305.4704355,
            "velocity": 0.7874015748031497
          },
          {
            "duration": 1.5882344999999987,
            "durationTicks": 270,
            "midi": 56,
            "name": "G#3",
            "ticks": 52050,
            "time": 306.1763175,
            "velocity": 0.7874015748031497
          },
          {
            "duration": 1.5882344999999987,
            "durationTicks": 270,
            "midi": 60,
            "name": "C4",
            "ticks": 52050,
            "time": 306.1763175,
            "velocity": 0.7874015748031497
          },
          {
            "duration": 1.5882344999999987,
            "durationTicks": 270,
            "midi": 64,
            "name": "E4",
            "ticks": 52050,
            "time": 306.1763175,
            "velocity": 0.7874015748031497
          },
          {
            "duration": 2.8235280000000103,
            "durationTicks": 480,
            "midi": 64,
            "name": "E4",
            "ticks": 52320,
            "time": 307.764552,
            "velocity": 0.7874015748031497
          },
          {
            "duration": 2.8235280000000103,
            "durationTicks": 480,
            "midi": 61,
            "name": "C#4",
            "ticks": 52320,
            "time": 307.764552,
            "velocity": 0.7874015748031497
          },
          {
            "duration": 2.8235280000000103,
            "durationTicks": 480,
            "midi": 56,
            "name": "G#3",
            "ticks": 52320,
            "time": 307.764552,
            "velocity": 0.7874015748031497
          },
          {
            "duration": 2.8235280000000103,
            "durationTicks": 480,
            "midi": 60,
            "name": "C4",
            "ticks": 52800,
            "time": 310.58808,
            "velocity": 0.7874015748031497
          },
          {
            "duration": 2.8235280000000103,
            "durationTicks": 480,
            "midi": 64,
            "name": "E4",
            "ticks": 52800,
            "time": 310.58808,
            "velocity": 0.7874015748031497
          },
          {
            "duration": 2.8235280000000103,
            "durationTicks": 480,
            "midi": 56,
            "name": "G#3",
            "ticks": 52800,
            "time": 310.58808,
            "velocity": 0.7874015748031497
          },
          {
            "duration": 2.8235280000000103,
            "durationTicks": 480,
            "midi": 64,
            "name": "E4",
            "ticks": 53280,
            "time": 313.411608,
            "velocity": 0.7874015748031497
          },
          {
            "duration": 2.8235280000000103,
            "durationTicks": 480,
            "midi": 59,
            "name": "B3",
            "ticks": 53280,
            "time": 313.411608,
            "velocity": 0.7874015748031497
          },
          {
            "duration": 2.8235280000000103,
            "durationTicks": 480,
            "midi": 56,
            "name": "G#3",
            "ticks": 53280,
            "time": 313.411608,
            "velocity": 0.7874015748031497
          },
          {
            "duration": 2.1176459999999793,
            "durationTicks": 360,
            "midi": 57,
            "name": "A3",
            "ticks": 53760,
            "time": 316.235136,
            "velocity": 0.7874015748031497
          },
          {
            "duration": 2.1176459999999793,
            "durationTicks": 360,
            "midi": 61,
            "name": "C#4",
            "ticks": 53760,
            "time": 316.235136,
            "velocity": 0.7874015748031497
          },
          {
            "duration": 2.1176459999999793,
            "durationTicks": 360,
            "midi": 64,
            "name": "E4",
            "ticks": 53760,
            "time": 316.235136,
            "velocity": 0.7874015748031497
          },
          {
            "duration": 0.705882000000031,
            "durationTicks": 120,
            "midi": 63,
            "name": "D#4",
            "ticks": 54120,
            "time": 318.352782,
            "velocity": 0.7874015748031497
          },
          {
            "duration": 0.705882000000031,
            "durationTicks": 120,
            "midi": 67,
            "name": "G4",
            "ticks": 54120,
            "time": 318.352782,
            "velocity": 0.7874015748031497
          },
          {
            "duration": 0.705882000000031,
            "durationTicks": 120,
            "midi": 57,
            "name": "A3",
            "ticks": 54120,
            "time": 318.352782,
            "velocity": 0.7874015748031497
          },
          {
            "duration": 0.28823514999999134,
            "durationTicks": 49,
            "midi": 66,
            "name": "F#4",
            "ticks": 54240,
            "time": 319.058664,
            "velocity": 0.7874015748031497
          },
          {
            "duration": 0.28823514999999134,
            "durationTicks": 49,
            "midi": 63,
            "name": "D#4",
            "ticks": 54240,
            "time": 319.058664,
            "velocity": 0.7874015748031497
          },
          {
            "duration": 0.28823514999999134,
            "durationTicks": 49,
            "midi": 59,
            "name": "B3",
            "ticks": 54240,
            "time": 319.058664,
            "velocity": 0.7874015748031497
          },
          {
            "duration": 0.28823514999999134,
            "durationTicks": 49,
            "midi": 56,
            "name": "G#3",
            "ticks": 54240,
            "time": 319.058664,
            "velocity": 0.7874015748031497
          },
          {
            "duration": 0.5294114999999806,
            "durationTicks": 90,
            "midi": 60,
            "name": "C4",
            "ticks": 54720,
            "time": 321.88219200000003,
            "velocity": 0.7874015748031497
          },
          {
            "duration": 0.5294114999999806,
            "durationTicks": 90,
            "midi": 64,
            "name": "E4",
            "ticks": 54720,
            "time": 321.88219200000003,
            "velocity": 0.7874015748031497
          },
          {
            "duration": 0.5294114999999806,
            "durationTicks": 90,
            "midi": 55,
            "name": "G3",
            "ticks": 54720,
            "time": 321.88219200000003,
            "velocity": 0.7874015748031497
          },
          {
            "duration": 0.17647049999999354,
            "durationTicks": 30,
            "midi": 64,
            "name": "E4",
            "ticks": 54810,
            "time": 322.4116035,
            "velocity": 0.7874015748031497
          },
          {
            "duration": 0.17647049999999354,
            "durationTicks": 30,
            "midi": 60,
            "name": "C4",
            "ticks": 54810,
            "time": 322.4116035,
            "velocity": 0.7874015748031497
          },
          {
            "duration": 0.17647049999999354,
            "durationTicks": 30,
            "midi": 55,
            "name": "G3",
            "ticks": 54810,
            "time": 322.4116035,
            "velocity": 0.7874015748031497
          },
          {
            "duration": 1.4117640000000051,
            "durationTicks": 240,
            "midi": 64,
            "name": "E4",
            "ticks": 54960,
            "time": 323.293956,
            "velocity": 0.7874015748031497
          },
          {
            "duration": 1.4117640000000051,
            "durationTicks": 240,
            "midi": 60,
            "name": "C4",
            "ticks": 54960,
            "time": 323.293956,
            "velocity": 0.7874015748031497
          },
          {
            "duration": 1.4117640000000051,
            "durationTicks": 240,
            "midi": 57,
            "name": "A3",
            "ticks": 54960,
            "time": 323.293956,
            "velocity": 0.7874015748031497
          },
          {
            "duration": 1.4117640000000051,
            "durationTicks": 240,
            "midi": 54,
            "name": "F#3",
            "ticks": 54960,
            "time": 323.293956,
            "velocity": 0.7874015748031497
          },
          {
            "duration": 0.2882351500000482,
            "durationTicks": 49,
            "midi": 56,
            "name": "G#3",
            "ticks": 55200,
            "time": 324.70572,
            "velocity": 0.7874015748031497
          },
          {
            "duration": 0.2882351500000482,
            "durationTicks": 49,
            "midi": 64,
            "name": "E4",
            "ticks": 55200,
            "time": 324.70572,
            "velocity": 0.7874015748031497
          },
          {
            "duration": 0.2882351500000482,
            "durationTicks": 49,
            "midi": 59,
            "name": "B3",
            "ticks": 55200,
            "time": 324.70572,
            "velocity": 0.7874015748031497
          },
          {
            "duration": 0.5294114999999806,
            "durationTicks": 90,
            "midi": 66,
            "name": "F#4",
            "ticks": 55680,
            "time": 327.529248,
            "velocity": 0.7874015748031497
          },
          {
            "duration": 0.5294114999999806,
            "durationTicks": 90,
            "midi": 62,
            "name": "D4",
            "ticks": 55680,
            "time": 327.529248,
            "velocity": 0.7874015748031497
          },
          {
            "duration": 0.5294114999999806,
            "durationTicks": 90,
            "midi": 57,
            "name": "A3",
            "ticks": 55680,
            "time": 327.529248,
            "velocity": 0.7874015748031497
          },
          {
            "duration": 0.17647050000005038,
            "durationTicks": 30,
            "midi": 62,
            "name": "D4",
            "ticks": 55770,
            "time": 328.0586595,
            "velocity": 0.7874015748031497
          },
          {
            "duration": 0.17647050000005038,
            "durationTicks": 30,
            "midi": 66,
            "name": "F#4",
            "ticks": 55770,
            "time": 328.0586595,
            "velocity": 0.7874015748031497
          },
          {
            "duration": 0.17647050000005038,
            "durationTicks": 30,
            "midi": 57,
            "name": "A3",
            "ticks": 55770,
            "time": 328.0586595,
            "velocity": 0.7874015748031497
          },
          {
            "duration": 1.5882344999999987,
            "durationTicks": 270,
            "midi": 56,
            "name": "G#3",
            "ticks": 55890,
            "time": 328.7645415,
            "velocity": 0.7874015748031497
          },
          {
            "duration": 1.5882344999999987,
            "durationTicks": 270,
            "midi": 60,
            "name": "C4",
            "ticks": 55890,
            "time": 328.7645415,
            "velocity": 0.7874015748031497
          },
          {
            "duration": 1.5882344999999987,
            "durationTicks": 270,
            "midi": 64,
            "name": "E4",
            "ticks": 55890,
            "time": 328.7645415,
            "velocity": 0.7874015748031497
          },
          {
            "duration": 2.8235280000000103,
            "durationTicks": 480,
            "midi": 64,
            "name": "E4",
            "ticks": 56160,
            "time": 330.352776,
            "velocity": 0.7874015748031497
          },
          {
            "duration": 2.8235280000000103,
            "durationTicks": 480,
            "midi": 61,
            "name": "C#4",
            "ticks": 56160,
            "time": 330.352776,
            "velocity": 0.7874015748031497
          },
          {
            "duration": 2.8235280000000103,
            "durationTicks": 480,
            "midi": 56,
            "name": "G#3",
            "ticks": 56160,
            "time": 330.352776,
            "velocity": 0.7874015748031497
          },
          {
            "duration": 2.8235280000000103,
            "durationTicks": 480,
            "midi": 60,
            "name": "C4",
            "ticks": 56640,
            "time": 333.176304,
            "velocity": 0.7874015748031497
          },
          {
            "duration": 2.8235280000000103,
            "durationTicks": 480,
            "midi": 64,
            "name": "E4",
            "ticks": 56640,
            "time": 333.176304,
            "velocity": 0.7874015748031497
          },
          {
            "duration": 2.8235280000000103,
            "durationTicks": 480,
            "midi": 56,
            "name": "G#3",
            "ticks": 56640,
            "time": 333.176304,
            "velocity": 0.7874015748031497
          },
          {
            "duration": 2.8235279999999534,
            "durationTicks": 480,
            "midi": 64,
            "name": "E4",
            "ticks": 57120,
            "time": 335.999832,
            "velocity": 0.7874015748031497
          },
          {
            "duration": 2.8235279999999534,
            "durationTicks": 480,
            "midi": 59,
            "name": "B3",
            "ticks": 57120,
            "time": 335.999832,
            "velocity": 0.7874015748031497
          },
          {
            "duration": 2.8235279999999534,
            "durationTicks": 480,
            "midi": 56,
            "name": "G#3",
            "ticks": 57120,
            "time": 335.999832,
            "velocity": 0.7874015748031497
          },
          {
            "duration": 1.2294111500000326,
            "durationTicks": 209,
            "midi": 64,
            "name": "E4",
            "ticks": 57600,
            "time": 338.82336,
            "velocity": 0.7874015748031497
          },
          {
            "duration": 1.2294111500000326,
            "durationTicks": 209,
            "midi": 61,
            "name": "C#4",
            "ticks": 57600,
            "time": 338.82336,
            "velocity": 0.7874015748031497
          },
          {
            "duration": 1.2294111500000326,
            "durationTicks": 209,
            "midi": 57,
            "name": "A3",
            "ticks": 57600,
            "time": 338.82336,
            "velocity": 0.7874015748031497
          },
          {
            "duration": 1.5823521500000197,
            "durationTicks": 269,
            "midi": 60,
            "name": "C4",
            "ticks": 57810,
            "time": 340.0586535,
            "velocity": 0.7874015748031497
          },
          {
            "duration": 1.5823521500000197,
            "durationTicks": 269,
            "midi": 64,
            "name": "E4",
            "ticks": 57810,
            "time": 340.0586535,
            "velocity": 0.7874015748031497
          },
          {
            "duration": 1.5823521500000197,
            "durationTicks": 269,
            "midi": 67,
            "name": "G4",
            "ticks": 57810,
            "time": 340.0586535,
            "velocity": 0.7874015748031497
          },
          {
            "duration": 1.2294111500000326,
            "durationTicks": 209,
            "midi": 60,
            "name": "C4",
            "ticks": 58080,
            "time": 341.646888,
            "velocity": 0.7874015748031497
          },
          {
            "duration": 1.2294111500000326,
            "durationTicks": 209,
            "midi": 64,
            "name": "E4",
            "ticks": 58080,
            "time": 341.646888,
            "velocity": 0.7874015748031497
          },
          {
            "duration": 1.2294111500000326,
            "durationTicks": 209,
            "midi": 67,
            "name": "G4",
            "ticks": 58080,
            "time": 341.646888,
            "velocity": 0.7874015748031497
          },
          {
            "duration": 1.4058816500000262,
            "durationTicks": 239,
            "midi": 70,
            "name": "A#4",
            "ticks": 58290,
            "time": 342.8821815,
            "velocity": 0.7874015748031497
          },
          {
            "duration": 1.4058816500000262,
            "durationTicks": 239,
            "midi": 67,
            "name": "G4",
            "ticks": 58290,
            "time": 342.8821815,
            "velocity": 0.7874015748031497
          },
          {
            "duration": 1.4058816500000262,
            "durationTicks": 239,
            "midi": 63,
            "name": "D#4",
            "ticks": 58290,
            "time": 342.8821815,
            "velocity": 0.7874015748031497
          },
          {
            "duration": 1.4058816500000262,
            "durationTicks": 239,
            "midi": 73,
            "name": "C#5",
            "ticks": 58530,
            "time": 344.2939455,
            "velocity": 0.7874015748031497
          },
          {
            "duration": 1.4058816500000262,
            "durationTicks": 239,
            "midi": 70,
            "name": "A#4",
            "ticks": 58530,
            "time": 344.2939455,
            "velocity": 0.7874015748031497
          },
          {
            "duration": 1.4058816500000262,
            "durationTicks": 239,
            "midi": 66,
            "name": "F#4",
            "ticks": 58530,
            "time": 344.2939455,
            "velocity": 0.7874015748031497
          },
          {
            "duration": 2.994116150000025,
            "durationTicks": 509,
            "midi": 76,
            "name": "E5",
            "ticks": 58770,
            "time": 345.7057095,
            "velocity": 0.7874015748031497
          },
          {
            "duration": 2.994116150000025,
            "durationTicks": 509,
            "midi": 72,
            "name": "C5",
            "ticks": 58770,
            "time": 345.7057095,
            "velocity": 0.7874015748031497
          },
          {
            "duration": 2.994116150000025,
            "durationTicks": 509,
            "midi": 67,
            "name": "G4",
            "ticks": 58770,
            "time": 345.7057095,
            "velocity": 0.7874015748031497
          }
        ],
        "endOfTrackTicks": 59279
      },
      {
        "channel": 0,
        "controlChanges": {
          "0": [
            {
              "number": 0,
              "ticks": 0,
              "time": 0,
              "value": 0
            }
          ],
          "32": [
            {
              "number": 32,
              "ticks": 0,
              "time": 0,
              "value": 0
            }
          ]
        },
        "pitchBends": [],
        "instrument": {
          "family": "piano",
          "number": 0,
          "name": "acoustic grand piano"
        },
        "name": "Piano R.H.",
        "notes": [],
        "endOfTrackTicks": 31200
      },
      {
        "channel": 4,
        "controlChanges": {
          "7": [
            {
              "number": 7,
              "ticks": 0,
              "time": 0,
              "value": 0.7874015748031497
            }
          ],
          "10": [
            {
              "number": 10,
              "ticks": 0,
              "time": 0,
              "value": 0.3543307086614173
            }
          ],
          "91": [
            {
              "number": 91,
              "ticks": 40,
              "time": 0.235294,
              "value": 0.3937007874015748
            }
          ],
          "93": [
            {
              "number": 93,
              "ticks": 50,
              "time": 0.29411750000000003,
              "value": 0.15748031496062992
            }
          ],
          "121": [
            {
              "number": 121,
              "ticks": 5,
              "time": 0.02941175,
              "value": 0
            }
          ]
        },
        "pitchBends": [],
        "instrument": {
          "family": "piano",
          "number": 1,
          "name": "bright acoustic piano"
        },
        "name": "",
        "notes": [
          {
            "duration": 0.17647049999999354,
            "durationTicks": 30,
            "midi": 71,
            "name": "B4",
            "ticks": 23730,
            "time": 139.5881655,
            "velocity": 0.905511811023622
          },
          {
            "duration": 0.3529410000000155,
            "durationTicks": 60,
            "midi": 83,
            "name": "B5",
            "ticks": 23760,
            "time": 139.764636,
            "velocity": 0.905511811023622
          },
          {
            "duration": 0.35294099999998707,
            "durationTicks": 60,
            "midi": 81,
            "name": "A5",
            "ticks": 23820,
            "time": 140.117577,
            "velocity": 0.905511811023622
          },
          {
            "duration": 0.3529410000000155,
            "durationTicks": 60,
            "midi": 80,
            "name": "G#5",
            "ticks": 23880,
            "time": 140.470518,
            "velocity": 0.905511811023622
          },
          {
            "duration": 0.17647049999999354,
            "durationTicks": 30,
            "midi": 81,
            "name": "A5",
            "ticks": 23940,
            "time": 140.823459,
            "velocity": 0.905511811023622
          },
          {
            "duration": 0.35294099999998707,
            "durationTicks": 60,
            "midi": 83,
            "name": "B5",
            "ticks": 23970,
            "time": 140.9999295,
            "velocity": 0.905511811023622
          },
          {
            "duration": 0.17647049999999354,
            "durationTicks": 30,
            "midi": 80,
            "name": "G#5",
            "ticks": 24030,
            "time": 141.3528705,
            "velocity": 0.905511811023622
          },
          {
            "duration": 0.17647050000002196,
            "durationTicks": 30,
            "midi": 76,
            "name": "E5",
            "ticks": 24060,
            "time": 141.529341,
            "velocity": 0.905511811023622
          },
          {
            "duration": 1.1705876499999874,
            "durationTicks": 199,
            "midi": 71,
            "name": "B4",
            "ticks": 24090,
            "time": 141.7058115,
            "velocity": 0.905511811023622
          },
          {
            "duration": 0.17647050000002196,
            "durationTicks": 30,
            "midi": 71,
            "name": "B4",
            "ticks": 24300,
            "time": 142.941105,
            "velocity": 0.905511811023622
          },
          {
            "duration": 0.17647049999999354,
            "durationTicks": 30,
            "midi": 73,
            "name": "C#5",
            "ticks": 24330,
            "time": 143.11757550000002,
            "velocity": 0.905511811023622
          },
          {
            "duration": 0.17647049999999354,
            "durationTicks": 30,
            "midi": 76,
            "name": "E5",
            "ticks": 24360,
            "time": 143.294046,
            "velocity": 0.905511811023622
          },
          {
            "duration": 0.28823514999999134,
            "durationTicks": 49,
            "midi": 83,
            "name": "B5",
            "ticks": 24390,
            "time": 143.4705165,
            "velocity": 0.905511811023622
          },
          {
            "duration": 0.05294115000000943,
            "durationTicks": 9,
            "midi": 83,
            "name": "B5",
            "ticks": 24440,
            "time": 143.764634,
            "velocity": 0.905511811023622
          },
          {
            "duration": 0.05294115000000943,
            "durationTicks": 9,
            "midi": 82,
            "name": "A#5",
            "ticks": 24450,
            "time": 143.8234575,
            "velocity": 0.905511811023622
          },
          {
            "duration": 0.05294114999998101,
            "durationTicks": 9,
            "midi": 81,
            "name": "A5",
            "ticks": 24460,
            "time": 143.882281,
            "velocity": 0.905511811023622
          },
          {
            "duration": 0.1117646499999978,
            "durationTicks": 19,
            "midi": 83,
            "name": "B5",
            "ticks": 24480,
            "time": 143.999928,
            "velocity": 0.905511811023622
          },
          {
            "duration": 0.17647049999999354,
            "durationTicks": 30,
            "midi": 83,
            "name": "B5",
            "ticks": 24510,
            "time": 144.1763985,
            "velocity": 0.905511811023622
          },
          {
            "duration": 0.3529410000000155,
            "durationTicks": 60,
            "midi": 81,
            "name": "A5",
            "ticks": 24540,
            "time": 144.352869,
            "velocity": 0.905511811023622
          },
          {
            "duration": 0.35294099999998707,
            "durationTicks": 60,
            "midi": 80,
            "name": "G#5",
            "ticks": 24600,
            "time": 144.70581,
            "velocity": 0.905511811023622
          },
          {
            "duration": 0.17647049999999354,
            "durationTicks": 30,
            "midi": 81,
            "name": "A5",
            "ticks": 24660,
            "time": 145.058751,
            "velocity": 0.905511811023622
          },
          {
            "duration": 0.17647049999999354,
            "durationTicks": 30,
            "midi": 83,
            "name": "B5",
            "ticks": 24690,
            "time": 145.2352215,
            "velocity": 0.905511811023622
          },
          {
            "duration": 0.05294114999998101,
            "durationTicks": 9,
            "midi": 87,
            "name": "D#6",
            "ticks": 24735,
            "time": 145.49992725,
            "velocity": 0.905511811023622
          },
          {
            "duration": 0.08823524999999677,
            "durationTicks": 15,
            "midi": 88,
            "name": "E6",
            "ticks": 24750,
            "time": 145.5881625,
            "velocity": 0.905511811023622
          },
          {
            "duration": 0.08823524999999677,
            "durationTicks": 15,
            "midi": 76,
            "name": "E5",
            "ticks": 24765,
            "time": 145.67639775,
            "velocity": 0.905511811023622
          },
          {
            "duration": 0.08823524999999677,
            "durationTicks": 15,
            "midi": 88,
            "name": "E6",
            "ticks": 24780,
            "time": 145.764633,
            "velocity": 0.905511811023622
          },
          {
            "duration": 0.08823524999999677,
            "durationTicks": 15,
            "midi": 76,
            "name": "E5",
            "ticks": 24795,
            "time": 145.85286825,
            "velocity": 0.905511811023622
          },
          {
            "duration": 0.08823524999999677,
            "durationTicks": 15,
            "midi": 88,
            "name": "E6",
            "ticks": 24810,
            "time": 145.9411035,
            "velocity": 0.905511811023622
          },
          {
            "duration": 0.08823524999999677,
            "durationTicks": 15,
            "midi": 76,
            "name": "E5",
            "ticks": 24825,
            "time": 146.02933875,
            "velocity": 0.905511811023622
          },
          {
            "duration": 0.08823525000002519,
            "durationTicks": 15,
            "midi": 88,
            "name": "E6",
            "ticks": 24840,
            "time": 146.117574,
            "velocity": 0.905511811023622
          },
          {
            "duration": 0.08823524999999677,
            "durationTicks": 15,
            "midi": 76,
            "name": "E5",
            "ticks": 24855,
            "time": 146.20580925000002,
            "velocity": 0.905511811023622
          },
          {
            "duration": 0.08823524999999677,
            "durationTicks": 15,
            "midi": 88,
            "name": "E6",
            "ticks": 24870,
            "time": 146.2940445,
            "velocity": 0.905511811023622
          },
          {
            "duration": 0.08823524999999677,
            "durationTicks": 15,
            "midi": 76,
            "name": "E5",
            "ticks": 24885,
            "time": 146.38227975,
            "velocity": 0.905511811023622
          },
          {
            "duration": 0.08823524999999677,
            "durationTicks": 15,
            "midi": 88,
            "name": "E6",
            "ticks": 24900,
            "time": 146.470515,
            "velocity": 0.905511811023622
          },
          {
            "duration": 0.05294114999998101,
            "durationTicks": 9,
            "midi": 76,
            "name": "E5",
            "ticks": 24915,
            "time": 146.55875025,
            "velocity": 0.905511811023622
          },
          {
            "duration": 0.05294114999998101,
            "durationTicks": 9,
            "midi": 88,
            "name": "E6",
            "ticks": 24930,
            "time": 146.6469855,
            "velocity": 0.905511811023622
          },
          {
            "duration": 0.1705881500000146,
            "durationTicks": 29,
            "midi": 76,
            "name": "E5",
            "ticks": 24945,
            "time": 146.73522075,
            "velocity": 0.905511811023622
          },
          {
            "duration": 0.35294099999998707,
            "durationTicks": 60,
            "midi": 85,
            "name": "C#6",
            "ticks": 24990,
            "time": 146.99992650000002,
            "velocity": 0.905511811023622
          },
          {
            "duration": 0.17647049999999354,
            "durationTicks": 30,
            "midi": 88,
            "name": "E6",
            "ticks": 25050,
            "time": 147.3528675,
            "velocity": 0.905511811023622
          },
          {
            "duration": 0.17647049999999354,
            "durationTicks": 30,
            "midi": 83,
            "name": "B5",
            "ticks": 25080,
            "time": 147.529338,
            "velocity": 0.905511811023622
          },
          {
            "duration": 0.17647050000002196,
            "durationTicks": 30,
            "midi": 81,
            "name": "A5",
            "ticks": 25110,
            "time": 147.7058085,
            "velocity": 0.905511811023622
          },
          {
            "duration": 0.1117646499999978,
            "durationTicks": 19,
            "midi": 80,
            "name": "G#5",
            "ticks": 25140,
            "time": 147.882279,
            "velocity": 0.905511811023622
          },
          {
            "duration": 0.35294099999998707,
            "durationTicks": 60,
            "midi": 80,
            "name": "G#5",
            "ticks": 25170,
            "time": 148.0587495,
            "velocity": 0.905511811023622
          },
          {
            "duration": 0.17647050000002196,
            "durationTicks": 30,
            "midi": 81,
            "name": "A5",
            "ticks": 25230,
            "time": 148.4116905,
            "velocity": 0.905511811023622
          },
          {
            "duration": 0.17647049999999354,
            "durationTicks": 30,
            "midi": 83,
            "name": "B5",
            "ticks": 25260,
            "time": 148.588161,
            "velocity": 0.905511811023622
          },
          {
            "duration": 0.17647049999999354,
            "durationTicks": 30,
            "midi": 79,
            "name": "G5",
            "ticks": 25290,
            "time": 148.7646315,
            "velocity": 0.905511811023622
          },
          {
            "duration": 0.17647049999999354,
            "durationTicks": 30,
            "midi": 75,
            "name": "D#5",
            "ticks": 25320,
            "time": 148.941102,
            "velocity": 0.905511811023622
          },
          {
            "duration": 0.17647049999999354,
            "durationTicks": 30,
            "midi": 72,
            "name": "C5",
            "ticks": 25350,
            "time": 149.1175725,
            "velocity": 0.905511811023622
          },
          {
            "duration": 0.17647050000002196,
            "durationTicks": 30,
            "midi": 71,
            "name": "B4",
            "ticks": 25380,
            "time": 149.294043,
            "velocity": 0.905511811023622
          },
          {
            "duration": 0.17647049999999354,
            "durationTicks": 30,
            "midi": 69,
            "name": "A4",
            "ticks": 25410,
            "time": 149.4705135,
            "velocity": 0.905511811023622
          },
          {
            "duration": 1.0529406500000107,
            "durationTicks": 179,
            "midi": 67,
            "name": "G4",
            "ticks": 25440,
            "time": 149.646984,
            "velocity": 0.905511811023622
          },
          {
            "duration": 0.35294099999998707,
            "durationTicks": 60,
            "midi": 69,
            "name": "A4",
            "ticks": 25710,
            "time": 151.2352185,
            "velocity": 0.905511811023622
          },
          {
            "duration": 0.3529410000000155,
            "durationTicks": 60,
            "midi": 71,
            "name": "B4",
            "ticks": 25770,
            "time": 151.5881595,
            "velocity": 0.905511811023622
          },
          {
            "duration": 0.35294099999998707,
            "durationTicks": 60,
            "midi": 74,
            "name": "D5",
            "ticks": 25830,
            "time": 151.9411005,
            "velocity": 0.905511811023622
          },
          {
            "duration": 0.34705865000000813,
            "durationTicks": 59,
            "midi": 76,
            "name": "E5",
            "ticks": 25890,
            "time": 152.2940415,
            "velocity": 0.905511811023622
          },
          {
            "duration": 0.17058814999998617,
            "durationTicks": 29,
            "midi": 78,
            "name": "F#5",
            "ticks": 25950,
            "time": 152.6469825,
            "velocity": 0.905511811023622
          },
          {
            "duration": 0.1705881500000146,
            "durationTicks": 29,
            "midi": 79,
            "name": "G5",
            "ticks": 25980,
            "time": 152.823453,
            "velocity": 0.905511811023622
          },
          {
            "duration": 0.1705881500000146,
            "durationTicks": 29,
            "midi": 81,
            "name": "A5",
            "ticks": 26010,
            "time": 152.9999235,
            "velocity": 0.905511811023622
          },
          {
            "duration": 0.05294114999998101,
            "durationTicks": 9,
            "midi": 77,
            "name": "F5",
            "ticks": 26035,
            "time": 153.14698225,
            "velocity": 0.905511811023622
          },
          {
            "duration": 0.17058814999998617,
            "durationTicks": 29,
            "midi": 78,
            "name": "F#5",
            "ticks": 26040,
            "time": 153.17639400000002,
            "velocity": 0.905511811023622
          },
          {
            "duration": 0.22941164999997454,
            "durationTicks": 39,
            "midi": 74,
            "name": "D5",
            "ticks": 26070,
            "time": 153.3528645,
            "velocity": 0.905511811023622
          },
          {
            "duration": 0.5235291500000017,
            "durationTicks": 89,
            "midi": 74,
            "name": "D5",
            "ticks": 26130,
            "time": 153.7058055,
            "velocity": 0.905511811023622
          },
          {
            "duration": 0.17647049999999354,
            "durationTicks": 30,
            "midi": 75,
            "name": "D#5",
            "ticks": 26220,
            "time": 154.235217,
            "velocity": 0.905511811023622
          },
          {
            "duration": 0.17647049999999354,
            "durationTicks": 30,
            "midi": 79,
            "name": "G5",
            "ticks": 26250,
            "time": 154.4116875,
            "velocity": 0.905511811023622
          },
          {
            "duration": 0.17647050000002196,
            "durationTicks": 30,
            "midi": 83,
            "name": "B5",
            "ticks": 26280,
            "time": 154.588158,
            "velocity": 0.905511811023622
          },
          {
            "duration": 0.28823514999999134,
            "durationTicks": 49,
            "midi": 86,
            "name": "D6",
            "ticks": 26310,
            "time": 154.76462850000001,
            "velocity": 0.905511811023622
          },
          {
            "duration": 0.08823524999999677,
            "durationTicks": 15,
            "midi": 86,
            "name": "D6",
            "ticks": 26360,
            "time": 155.05874599999999,
            "velocity": 0.905511811023622
          },
          {
            "duration": 0.08823524999999677,
            "durationTicks": 15,
            "midi": 85,
            "name": "C#6",
            "ticks": 26370,
            "time": 155.1175695,
            "velocity": 0.905511811023622
          },
          {
            "duration": 0.05294115000000943,
            "durationTicks": 9,
            "midi": 84,
            "name": "C6",
            "ticks": 26385,
            "time": 155.20580475,
            "velocity": 0.905511811023622
          },
          {
            "duration": 0.17647049999999354,
            "durationTicks": 30,
            "midi": 83,
            "name": "B5",
            "ticks": 26400,
            "time": 155.29404,
            "velocity": 0.905511811023622
          },
          {
            "duration": 0.17647050000002196,
            "durationTicks": 30,
            "midi": 81,
            "name": "A5",
            "ticks": 26430,
            "time": 155.4705105,
            "velocity": 0.905511811023622
          },
          {
            "duration": 0.17647049999999354,
            "durationTicks": 30,
            "midi": 79,
            "name": "G5",
            "ticks": 26460,
            "time": 155.646981,
            "velocity": 0.905511811023622
          },
          {
            "duration": 0.17647049999999354,
            "durationTicks": 30,
            "midi": 78,
            "name": "F#5",
            "ticks": 26490,
            "time": 155.8234515,
            "velocity": 0.905511811023622
          },
          {
            "duration": 0.17647049999999354,
            "durationTicks": 30,
            "midi": 79,
            "name": "G5",
            "ticks": 26520,
            "time": 155.999922,
            "velocity": 0.905511811023622
          },
          {
            "duration": 0.17647050000002196,
            "durationTicks": 30,
            "midi": 80,
            "name": "G#5",
            "ticks": 26550,
            "time": 156.1763925,
            "velocity": 0.905511811023622
          },
          {
            "duration": 0.17647049999999354,
            "durationTicks": 30,
            "midi": 81,
            "name": "A5",
            "ticks": 26580,
            "time": 156.352863,
            "velocity": 0.905511811023622
          },
          {
            "duration": 0.05294115000000943,
            "durationTicks": 9,
            "midi": 76,
            "name": "E5",
            "ticks": 26605,
            "time": 156.49992175,
            "velocity": 0.905511811023622
          },
          {
            "duration": 0.35294099999998707,
            "durationTicks": 60,
            "midi": 78,
            "name": "F#5",
            "ticks": 26610,
            "time": 156.5293335,
            "velocity": 0.905511811023622
          },
          {
            "duration": 0.17647050000002196,
            "durationTicks": 30,
            "midi": 81,
            "name": "A5",
            "ticks": 26670,
            "time": 156.8822745,
            "velocity": 0.905511811023622
          },
          {
            "duration": 0.8823524999999961,
            "durationTicks": 150,
            "midi": 74,
            "name": "D5",
            "ticks": 26700,
            "time": 157.05874500000002,
            "velocity": 0.905511811023622
          },
          {
            "duration": 0.17647049999999354,
            "durationTicks": 30,
            "midi": 76,
            "name": "E5",
            "ticks": 26850,
            "time": 157.9410975,
            "velocity": 0.905511811023622
          },
          {
            "duration": 0.17647049999999354,
            "durationTicks": 30,
            "midi": 78,
            "name": "F#5",
            "ticks": 26880,
            "time": 158.117568,
            "velocity": 0.905511811023622
          },
          {
            "duration": 0.22941165000000296,
            "durationTicks": 39,
            "midi": 69,
            "name": "A4",
            "ticks": 26910,
            "time": 158.2940385,
            "velocity": 0.905511811023622
          },
          {
            "duration": 0.5294114999999806,
            "durationTicks": 90,
            "midi": 69,
            "name": "A4",
            "ticks": 26970,
            "time": 158.64697950000001,
            "velocity": 0.905511811023622
          },
          {
            "duration": 0.17647049999999354,
            "durationTicks": 30,
            "midi": 71,
            "name": "B4",
            "ticks": 27060,
            "time": 159.176391,
            "velocity": 0.905511811023622
          },
          {
            "duration": 0.17647050000002196,
            "durationTicks": 30,
            "midi": 74,
            "name": "D5",
            "ticks": 27090,
            "time": 159.3528615,
            "velocity": 0.905511811023622
          },
          {
            "duration": 0.17647049999999354,
            "durationTicks": 30,
            "midi": 74,
            "name": "D5",
            "ticks": 27150,
            "time": 159.7058025,
            "velocity": 0.905511811023622
          },
          {
            "duration": 0.17647049999999354,
            "durationTicks": 30,
            "midi": 86,
            "name": "D6",
            "ticks": 27180,
            "time": 159.882273,
            "velocity": 0.905511811023622
          },
          {
            "duration": 0.17647050000002196,
            "durationTicks": 30,
            "midi": 84,
            "name": "C6",
            "ticks": 27210,
            "time": 160.0587435,
            "velocity": 0.905511811023622
          },
          {
            "duration": 0.17647049999999354,
            "durationTicks": 30,
            "midi": 83,
            "name": "B5",
            "ticks": 27240,
            "time": 160.235214,
            "velocity": 0.905511811023622
          },
          {
            "duration": 0.17647049999999354,
            "durationTicks": 30,
            "midi": 79,
            "name": "G5",
            "ticks": 27270,
            "time": 160.4116845,
            "velocity": 0.905511811023622
          },
          {
            "duration": 0.17647049999999354,
            "durationTicks": 30,
            "midi": 74,
            "name": "D5",
            "ticks": 27300,
            "time": 160.588155,
            "velocity": 0.905511811023622
          },
          {
            "duration": 0.17647050000002196,
            "durationTicks": 30,
            "midi": 72,
            "name": "C5",
            "ticks": 27330,
            "time": 160.7646255,
            "velocity": 0.905511811023622
          },
          {
            "duration": 0.35294099999998707,
            "durationTicks": 60,
            "midi": 71,
            "name": "B4",
            "ticks": 27360,
            "time": 160.94109600000002,
            "velocity": 0.905511811023622
          },
          {
            "duration": 0.17647049999999354,
            "durationTicks": 30,
            "midi": 73,
            "name": "C#5",
            "ticks": 27420,
            "time": 161.294037,
            "velocity": 0.905511811023622
          },
          {
            "duration": 0.22941165000000296,
            "durationTicks": 39,
            "midi": 76,
            "name": "E5",
            "ticks": 27450,
            "time": 161.4705075,
            "velocity": 0.905511811023622
          },
          {
            "duration": 0.35294099999998707,
            "durationTicks": 60,
            "midi": 80,
            "name": "G#5",
            "ticks": 27510,
            "time": 161.8234485,
            "velocity": 0.905511811023622
          },
          {
            "duration": 0.17647049999999354,
            "durationTicks": 30,
            "midi": 81,
            "name": "A5",
            "ticks": 27570,
            "time": 162.1763895,
            "velocity": 0.905511811023622
          },
          {
            "duration": 0.3529410000000155,
            "durationTicks": 60,
            "midi": 83,
            "name": "B5",
            "ticks": 27600,
            "time": 162.35286,
            "velocity": 0.905511811023622
          },
          {
            "duration": 0.17647049999999354,
            "durationTicks": 30,
            "midi": 80,
            "name": "G#5",
            "ticks": 27660,
            "time": 162.705801,
            "velocity": 0.905511811023622
          },
          {
            "duration": 0.22941165000000296,
            "durationTicks": 39,
            "midi": 76,
            "name": "E5",
            "ticks": 27690,
            "time": 162.8822715,
            "velocity": 0.905511811023622
          },
          {
            "duration": 0.05294115000000943,
            "durationTicks": 9,
            "midi": 87,
            "name": "D#6",
            "ticks": 27750,
            "time": 163.2352125,
            "velocity": 0.905511811023622
          },
          {
            "duration": 0.05294114999998101,
            "durationTicks": 9,
            "midi": 88,
            "name": "E6",
            "ticks": 27765,
            "time": 163.32344775,
            "velocity": 0.905511811023622
          },
          {
            "duration": 0.08823524999999677,
            "durationTicks": 15,
            "midi": 76,
            "name": "E5",
            "ticks": 27780,
            "time": 163.411683,
            "velocity": 0.905511811023622
          },
          {
            "duration": 0.08823524999999677,
            "durationTicks": 15,
            "midi": 88,
            "name": "E6",
            "ticks": 27795,
            "time": 163.49991825,
            "velocity": 0.905511811023622
          },
          {
            "duration": 0.08823524999999677,
            "durationTicks": 15,
            "midi": 76,
            "name": "E5",
            "ticks": 27810,
            "time": 163.5881535,
            "velocity": 0.905511811023622
          },
          {
            "duration": 0.08823524999999677,
            "durationTicks": 15,
            "midi": 88,
            "name": "E6",
            "ticks": 27825,
            "time": 163.67638875,
            "velocity": 0.905511811023622
          },
          {
            "duration": 0.1705881500000146,
            "durationTicks": 29,
            "midi": 76,
            "name": "E5",
            "ticks": 27840,
            "time": 163.764624,
            "velocity": 0.905511811023622
          },
          {
            "duration": 0.22941165000000296,
            "durationTicks": 39,
            "midi": 85,
            "name": "C#6",
            "ticks": 27870,
            "time": 163.9410945,
            "velocity": 0.905511811023622
          },
          {
            "duration": 0.17647049999999354,
            "durationTicks": 30,
            "midi": 88,
            "name": "E6",
            "ticks": 27930,
            "time": 164.2940355,
            "velocity": 0.905511811023622
          },
          {
            "duration": 0.08823524999999677,
            "durationTicks": 15,
            "midi": 82,
            "name": "A#5",
            "ticks": 27955,
            "time": 164.44109425000002,
            "velocity": 0.905511811023622
          },
          {
            "duration": 0.17647049999999354,
            "durationTicks": 30,
            "midi": 83,
            "name": "B5",
            "ticks": 27960,
            "time": 164.470506,
            "velocity": 0.905511811023622
          },
          {
            "duration": 0.17647050000002196,
            "durationTicks": 30,
            "midi": 81,
            "name": "A5",
            "ticks": 27990,
            "time": 164.6469765,
            "velocity": 0.905511811023622
          },
          {
            "duration": 0.1117646499999978,
            "durationTicks": 19,
            "midi": 80,
            "name": "G#5",
            "ticks": 28020,
            "time": 164.82344700000002,
            "velocity": 0.905511811023622
          },
          {
            "duration": 0.22941164999997454,
            "durationTicks": 39,
            "midi": 80,
            "name": "G#5",
            "ticks": 28050,
            "time": 164.9999175,
            "velocity": 0.905511811023622
          },
          {
            "duration": 0.17647049999999354,
            "durationTicks": 30,
            "midi": 81,
            "name": "A5",
            "ticks": 28110,
            "time": 165.3528585,
            "velocity": 0.905511811023622
          },
          {
            "duration": 0.17647050000002196,
            "durationTicks": 30,
            "midi": 82,
            "name": "A#5",
            "ticks": 28140,
            "time": 165.529329,
            "velocity": 0.905511811023622
          },
          {
            "duration": 0.17647049999999354,
            "durationTicks": 30,
            "midi": 83,
            "name": "B5",
            "ticks": 28170,
            "time": 165.7057995,
            "velocity": 0.905511811023622
          },
          {
            "duration": 0.17647049999999354,
            "durationTicks": 30,
            "midi": 80,
            "name": "G#5",
            "ticks": 28200,
            "time": 165.88227,
            "velocity": 0.905511811023622
          },
          {
            "duration": 0.17647049999999354,
            "durationTicks": 30,
            "midi": 76,
            "name": "E5",
            "ticks": 28230,
            "time": 166.0587405,
            "velocity": 0.905511811023622
          },
          {
            "duration": 0.17647050000002196,
            "durationTicks": 30,
            "midi": 71,
            "name": "B4",
            "ticks": 28260,
            "time": 166.235211,
            "velocity": 0.905511811023622
          },
          {
            "duration": 0.17647049999999354,
            "durationTicks": 30,
            "midi": 73,
            "name": "C#5",
            "ticks": 28290,
            "time": 166.41168150000001,
            "velocity": 0.905511811023622
          },
          {
            "duration": 0.17058814999998617,
            "durationTicks": 29,
            "midi": 76,
            "name": "E5",
            "ticks": 28320,
            "time": 166.588152,
            "velocity": 0.905511811023622
          },
          {
            "duration": 0.17647049999999354,
            "durationTicks": 30,
            "midi": 81,
            "name": "A5",
            "ticks": 28350,
            "time": 166.7646225,
            "velocity": 0.905511811023622
          },
          {
            "duration": 0.17647049999999354,
            "durationTicks": 30,
            "midi": 82,
            "name": "A#5",
            "ticks": 28380,
            "time": 166.941093,
            "velocity": 0.905511811023622
          },
          {
            "duration": 0.17647050000002196,
            "durationTicks": 30,
            "midi": 83,
            "name": "B5",
            "ticks": 28410,
            "time": 167.1175635,
            "velocity": 0.905511811023622
          },
          {
            "duration": 0.17058814999998617,
            "durationTicks": 29,
            "midi": 95,
            "name": "B6",
            "ticks": 28440,
            "time": 167.294034,
            "velocity": 0.905511811023622
          },
          {
            "duration": 0.34705865000000813,
            "durationTicks": 59,
            "midi": 93,
            "name": "A6",
            "ticks": 28470,
            "time": 167.4705045,
            "velocity": 0.905511811023622
          },
          {
            "duration": 0.34705865000000813,
            "durationTicks": 59,
            "midi": 92,
            "name": "G#6",
            "ticks": 28530,
            "time": 167.8234455,
            "velocity": 0.905511811023622
          },
          {
            "duration": 0.34705865000000813,
            "durationTicks": 59,
            "midi": 93,
            "name": "A6",
            "ticks": 28590,
            "time": 168.1763865,
            "velocity": 0.905511811023622
          },
          {
            "duration": 0.1705881500000146,
            "durationTicks": 29,
            "midi": 95,
            "name": "B6",
            "ticks": 28650,
            "time": 168.5293275,
            "velocity": 0.905511811023622
          },
          {
            "duration": 0.05294114999998101,
            "durationTicks": 9,
            "midi": 91,
            "name": "G6",
            "ticks": 28675,
            "time": 168.67638625,
            "velocity": 0.905511811023622
          },
          {
            "duration": 0.17058814999998617,
            "durationTicks": 29,
            "midi": 92,
            "name": "G#6",
            "ticks": 28680,
            "time": 168.70579800000002,
            "velocity": 0.905511811023622
          },
          {
            "duration": 0.17058814999998617,
            "durationTicks": 29,
            "midi": 88,
            "name": "E6",
            "ticks": 28710,
            "time": 168.8822685,
            "velocity": 0.905511811023622
          },
          {
            "duration": 0.4647056500000133,
            "durationTicks": 79,
            "midi": 88,
            "name": "E6",
            "ticks": 28770,
            "time": 169.2352095,
            "velocity": 0.905511811023622
          },
          {
            "duration": 0.1705881500000146,
            "durationTicks": 29,
            "midi": 90,
            "name": "F#6",
            "ticks": 28860,
            "time": 169.764621,
            "velocity": 0.905511811023622
          },
          {
            "duration": 0.34705865000000813,
            "durationTicks": 59,
            "midi": 92,
            "name": "G#6",
            "ticks": 28890,
            "time": 169.9410915,
            "velocity": 0.905511811023622
          },
          {
            "duration": 0.17058814999998617,
            "durationTicks": 29,
            "midi": 83,
            "name": "B5",
            "ticks": 28950,
            "time": 170.29403250000001,
            "velocity": 0.905511811023622
          },
          {
            "duration": 0.4058821499999965,
            "durationTicks": 69,
            "midi": 83,
            "name": "B5",
            "ticks": 29010,
            "time": 170.6469735,
            "velocity": 0.905511811023622
          },
          {
            "duration": 0.17647049999999354,
            "durationTicks": 30,
            "midi": 85,
            "name": "C#6",
            "ticks": 29100,
            "time": 171.176385,
            "velocity": 0.905511811023622
          },
          {
            "duration": 0.17647049999999354,
            "durationTicks": 30,
            "midi": 88,
            "name": "E6",
            "ticks": 29130,
            "time": 171.3528555,
            "velocity": 0.905511811023622
          },
          {
            "duration": 0.17647049999999354,
            "durationTicks": 30,
            "midi": 86,
            "name": "D6",
            "ticks": 29160,
            "time": 171.529326,
            "velocity": 0.905511811023622
          },
          {
            "duration": 0.17647050000002196,
            "durationTicks": 30,
            "midi": 88,
            "name": "E6",
            "ticks": 29190,
            "time": 171.7057965,
            "velocity": 0.905511811023622
          },
          {
            "duration": 0.17647049999999354,
            "durationTicks": 30,
            "midi": 90,
            "name": "F#6",
            "ticks": 29220,
            "time": 171.882267,
            "velocity": 0.905511811023622
          },
          {
            "duration": 0.17647049999999354,
            "durationTicks": 30,
            "midi": 91,
            "name": "G6",
            "ticks": 29250,
            "time": 172.0587375,
            "velocity": 0.905511811023622
          },
          {
            "duration": 0.1705881500000146,
            "durationTicks": 29,
            "midi": 93,
            "name": "A6",
            "ticks": 29280,
            "time": 172.235208,
            "velocity": 0.905511811023622
          },
          {
            "duration": 0.05294114999998101,
            "durationTicks": 9,
            "midi": 89,
            "name": "F6",
            "ticks": 29320,
            "time": 172.470502,
            "velocity": 0.905511811023622
          },
          {
            "duration": 0.1705881500000146,
            "durationTicks": 29,
            "midi": 90,
            "name": "F#6",
            "ticks": 29330,
            "time": 172.5293255,
            "velocity": 0.905511811023622
          },
          {
            "duration": 0.05294115000000943,
            "durationTicks": 9,
            "midi": 89,
            "name": "F6",
            "ticks": 29365,
            "time": 172.73520775,
            "velocity": 0.905511811023622
          },
          {
            "duration": 0.17058814999998617,
            "durationTicks": 29,
            "midi": 90,
            "name": "F#6",
            "ticks": 29370,
            "time": 172.7646195,
            "velocity": 0.905511811023622
          },
          {
            "duration": 0.05294115000003785,
            "durationTicks": 9,
            "midi": 89,
            "name": "F6",
            "ticks": 29405,
            "time": 172.97050174999998,
            "velocity": 0.905511811023622
          },
          {
            "duration": 0.28823514999999134,
            "durationTicks": 49,
            "midi": 90,
            "name": "F#6",
            "ticks": 29410,
            "time": 172.99991350000002,
            "velocity": 0.905511811023622
          },
          {
            "duration": 0.17647050000002196,
            "durationTicks": 30,
            "midi": 93,
            "name": "A6",
            "ticks": 29460,
            "time": 173.294031,
            "velocity": 0.905511811023622
          },
          {
            "duration": 0.28823514999999134,
            "durationTicks": 49,
            "midi": 86,
            "name": "D6",
            "ticks": 29490,
            "time": 173.4705015,
            "velocity": 0.905511811023622
          },
          {
            "duration": 0.05294115000000943,
            "durationTicks": 9,
            "midi": 77,
            "name": "F5",
            "ticks": 29555,
            "time": 173.85285425,
            "velocity": 0.905511811023622
          },
          {
            "duration": 0.22941164999997454,
            "durationTicks": 39,
            "midi": 78,
            "name": "F#5",
            "ticks": 29560,
            "time": 173.88226600000002,
            "velocity": 0.905511811023622
          },
          {
            "duration": 0.05294114999998101,
            "durationTicks": 9,
            "midi": 77,
            "name": "F5",
            "ticks": 29605,
            "time": 174.14697175,
            "velocity": 0.905511811023622
          },
          {
            "duration": 0.17058814999998617,
            "durationTicks": 29,
            "midi": 78,
            "name": "F#5",
            "ticks": 29610,
            "time": 174.17638350000001,
            "velocity": 0.905511811023622
          },
          {
            "duration": 0.05294115000000943,
            "durationTicks": 9,
            "midi": 77,
            "name": "F5",
            "ticks": 29645,
            "time": 174.38226575,
            "velocity": 0.905511811023622
          },
          {
            "duration": 0.28823515000001976,
            "durationTicks": 49,
            "midi": 78,
            "name": "F#5",
            "ticks": 29650,
            "time": 174.4116775,
            "velocity": 0.905511811023622
          },
          {
            "duration": 0.17647049999999354,
            "durationTicks": 30,
            "midi": 81,
            "name": "A5",
            "ticks": 29700,
            "time": 174.705795,
            "velocity": 0.905511811023622
          },
          {
            "duration": 0.28823515000001976,
            "durationTicks": 49,
            "midi": 74,
            "name": "D5",
            "ticks": 29730,
            "time": 174.8822655,
            "velocity": 0.905511811023622
          },
          {
            "duration": 0.17647049999999354,
            "durationTicks": 30,
            "midi": 71,
            "name": "B4",
            "ticks": 29820,
            "time": 175.411677,
            "velocity": 0.905511811023622
          },
          {
            "duration": 0.17647050000002196,
            "durationTicks": 30,
            "midi": 74,
            "name": "D5",
            "ticks": 29850,
            "time": 175.5881475,
            "velocity": 0.905511811023622
          },
          {
            "duration": 0.17647049999999354,
            "durationTicks": 30,
            "midi": 78,
            "name": "F#5",
            "ticks": 29880,
            "time": 175.764618,
            "velocity": 0.905511811023622
          },
          {
            "duration": 0.17647049999999354,
            "durationTicks": 30,
            "midi": 81,
            "name": "A5",
            "ticks": 29910,
            "time": 175.9410885,
            "velocity": 0.905511811023622
          },
          {
            "duration": 0.17647049999999354,
            "durationTicks": 30,
            "midi": 78,
            "name": "F#5",
            "ticks": 29940,
            "time": 176.117559,
            "velocity": 0.905511811023622
          },
          {
            "duration": 0.17647050000002196,
            "durationTicks": 30,
            "midi": 79,
            "name": "G5",
            "ticks": 29970,
            "time": 176.2940295,
            "velocity": 0.905511811023622
          },
          {
            "duration": 0.35294099999998707,
            "durationTicks": 60,
            "midi": 81,
            "name": "A5",
            "ticks": 30000,
            "time": 176.47050000000002,
            "velocity": 0.905511811023622
          },
          {
            "duration": 0.17647049999999354,
            "durationTicks": 30,
            "midi": 83,
            "name": "B5",
            "ticks": 30090,
            "time": 176.9999115,
            "velocity": 0.905511811023622
          },
          {
            "duration": 0.34705865000000813,
            "durationTicks": 59,
            "midi": 85,
            "name": "C#6",
            "ticks": 30150,
            "time": 177.3528525,
            "velocity": 0.905511811023622
          },
          {
            "duration": 0.17647049999999354,
            "durationTicks": 30,
            "midi": 86,
            "name": "D6",
            "ticks": 30210,
            "time": 177.7057935,
            "velocity": 0.905511811023622
          },
          {
            "duration": 0.3529410000000155,
            "durationTicks": 60,
            "midi": 81,
            "name": "A5",
            "ticks": 30240,
            "time": 177.882264,
            "velocity": 0.905511811023622
          },
          {
            "duration": 0.11764699999997674,
            "durationTicks": 20,
            "midi": 69,
            "name": "A4",
            "ticks": 30300,
            "time": 178.235205,
            "velocity": 0.905511811023622
          },
          {
            "duration": 0.11764700000003359,
            "durationTicks": 20,
            "midi": 66,
            "name": "F#4",
            "ticks": 30320,
            "time": 178.35285199999998,
            "velocity": 0.905511811023622
          },
          {
            "duration": 0.11764699999997674,
            "durationTicks": 20,
            "midi": 67,
            "name": "G4",
            "ticks": 30340,
            "time": 178.47049900000002,
            "velocity": 0.905511811023622
          },
          {
            "duration": 0.11764700000000516,
            "durationTicks": 20,
            "midi": 69,
            "name": "A4",
            "ticks": 30360,
            "time": 178.588146,
            "velocity": 0.905511811023622
          },
          {
            "duration": 0.11764700000000516,
            "durationTicks": 20,
            "midi": 71,
            "name": "B4",
            "ticks": 30380,
            "time": 178.705793,
            "velocity": 0.905511811023622
          },
          {
            "duration": 0.11764700000000516,
            "durationTicks": 20,
            "midi": 73,
            "name": "C#5",
            "ticks": 30400,
            "time": 178.82344,
            "velocity": 0.905511811023622
          },
          {
            "duration": 0.11764699999997674,
            "durationTicks": 20,
            "midi": 74,
            "name": "D5",
            "ticks": 30420,
            "time": 178.941087,
            "velocity": 0.905511811023622
          },
          {
            "duration": 0.11764700000003359,
            "durationTicks": 20,
            "midi": 76,
            "name": "E5",
            "ticks": 30440,
            "time": 179.058734,
            "velocity": 0.905511811023622
          },
          {
            "duration": 0.11764699999997674,
            "durationTicks": 20,
            "midi": 78,
            "name": "F#5",
            "ticks": 30460,
            "time": 179.17638100000002,
            "velocity": 0.905511811023622
          },
          {
            "duration": 0.11764700000000516,
            "durationTicks": 20,
            "midi": 81,
            "name": "A5",
            "ticks": 30480,
            "time": 179.294028,
            "velocity": 0.905511811023622
          },
          {
            "duration": 0.11764700000000516,
            "durationTicks": 20,
            "midi": 78,
            "name": "F#5",
            "ticks": 30500,
            "time": 179.411675,
            "velocity": 0.905511811023622
          },
          {
            "duration": 0.11764700000000516,
            "durationTicks": 20,
            "midi": 79,
            "name": "G5",
            "ticks": 30520,
            "time": 179.529322,
            "velocity": 0.905511811023622
          },
          {
            "duration": 0.11764699999997674,
            "durationTicks": 20,
            "midi": 81,
            "name": "A5",
            "ticks": 30540,
            "time": 179.646969,
            "velocity": 0.905511811023622
          },
          {
            "duration": 0.11764700000003359,
            "durationTicks": 20,
            "midi": 83,
            "name": "B5",
            "ticks": 30560,
            "time": 179.764616,
            "velocity": 0.905511811023622
          },
          {
            "duration": 0.11764699999997674,
            "durationTicks": 20,
            "midi": 85,
            "name": "C#6",
            "ticks": 30580,
            "time": 179.88226300000002,
            "velocity": 0.905511811023622
          },
          {
            "duration": 0.11764700000000516,
            "durationTicks": 20,
            "midi": 86,
            "name": "D6",
            "ticks": 30600,
            "time": 179.99991,
            "velocity": 0.905511811023622
          },
          {
            "duration": 0.11764700000000516,
            "durationTicks": 20,
            "midi": 88,
            "name": "E6",
            "ticks": 30620,
            "time": 180.117557,
            "velocity": 0.905511811023622
          },
          {
            "duration": 0.11764700000000516,
            "durationTicks": 20,
            "midi": 90,
            "name": "F#6",
            "ticks": 30640,
            "time": 180.235204,
            "velocity": 0.905511811023622
          },
          {
            "duration": 0.11764699999997674,
            "durationTicks": 20,
            "midi": 93,
            "name": "A6",
            "ticks": 30660,
            "time": 180.35285100000002,
            "velocity": 0.905511811023622
          },
          {
            "duration": 0.11764700000000516,
            "durationTicks": 20,
            "midi": 92,
            "name": "G#6",
            "ticks": 30680,
            "time": 180.470498,
            "velocity": 0.905511811023622
          },
          {
            "duration": 0.11764700000000516,
            "durationTicks": 20,
            "midi": 91,
            "name": "G6",
            "ticks": 30700,
            "time": 180.588145,
            "velocity": 0.905511811023622
          },
          {
            "duration": 0.17647049999999354,
            "durationTicks": 30,
            "midi": 90,
            "name": "F#6",
            "ticks": 30720,
            "time": 180.705792,
            "velocity": 0.905511811023622
          },
          {
            "duration": 0.17647049999999354,
            "durationTicks": 30,
            "midi": 88,
            "name": "E6",
            "ticks": 30750,
            "time": 180.8822625,
            "velocity": 0.905511811023622
          },
          {
            "duration": 0.17647050000002196,
            "durationTicks": 30,
            "midi": 86,
            "name": "D6",
            "ticks": 30780,
            "time": 181.058733,
            "velocity": 0.905511811023622
          },
          {
            "duration": 0.17647049999999354,
            "durationTicks": 30,
            "midi": 83,
            "name": "B5",
            "ticks": 30810,
            "time": 181.2352035,
            "velocity": 0.905511811023622
          },
          {
            "duration": 0.17647049999999354,
            "durationTicks": 30,
            "midi": 93,
            "name": "A6",
            "ticks": 30840,
            "time": 181.411674,
            "velocity": 0.905511811023622
          },
          {
            "duration": 0.17647049999999354,
            "durationTicks": 30,
            "midi": 91,
            "name": "G6",
            "ticks": 30870,
            "time": 181.5881445,
            "velocity": 0.905511811023622
          },
          {
            "duration": 0.17647050000002196,
            "durationTicks": 30,
            "midi": 90,
            "name": "F#6",
            "ticks": 30900,
            "time": 181.764615,
            "velocity": 0.905511811023622
          },
          {
            "duration": 1.5882344999999987,
            "durationTicks": 270,
            "midi": 89,
            "name": "F6",
            "ticks": 30930,
            "time": 181.9410855,
            "velocity": 0.905511811023622
          }
        ]
      },
      {
        "channel": 0,
        "controlChanges": {
          "0": [
            {
              "number": 0,
              "ticks": 0,
              "time": 0,
              "value": 0
            }
          ],
          "32": [
            {
              "number": 32,
              "ticks": 0,
              "time": 0,
              "value": 0
            }
          ]
        },
        "pitchBends": [],
        "instrument": {
          "family": "piano",
          "number": 0,
          "name": "acoustic grand piano"
        },
        "name": "Vibraphone",
        "notes": [],
        "endOfTrackTicks": 38760
      },
      {
        "channel": 5,
        "controlChanges": {
          "7": [
            {
              "number": 7,
              "ticks": 0,
              "time": 0,
              "value": 0.7480314960629921
            }
          ],
          "10": [
            {
              "number": 10,
              "ticks": 0,
              "time": 0,
              "value": 0.4330708661417323
            }
          ],
          "91": [
            {
              "number": 91,
              "ticks": 40,
              "time": 0.235294,
              "value": 0.23622047244094488
            }
          ],
          "93": [
            {
              "number": 93,
              "ticks": 50,
              "time": 0.29411750000000003,
              "value": 0.07874015748031496
            }
          ],
          "121": [
            {
              "number": 121,
              "ticks": 5,
              "time": 0.02941175,
              "value": 0
            }
          ]
        },
        "pitchBends": [],
        "instrument": {
          "family": "chromatic percussion",
          "number": 11,
          "name": "vibraphone"
        },
        "name": "",
        "notes": [
          {
            "duration": 0.17647050000000064,
            "durationTicks": 30,
            "midi": 54,
            "name": "F#3",
            "ticks": 4560,
            "time": 26.823516,
            "velocity": 0.7874015748031497
          },
          {
            "duration": 0.17647050000000064,
            "durationTicks": 30,
            "midi": 66,
            "name": "F#4",
            "ticks": 4560,
            "time": 26.823516,
            "velocity": 0.7874015748031497
          },
          {
            "duration": 0.1764704999999971,
            "durationTicks": 30,
            "midi": 50,
            "name": "D3",
            "ticks": 4590,
            "time": 26.999986500000002,
            "velocity": 0.7874015748031497
          },
          {
            "duration": 0.1764704999999971,
            "durationTicks": 30,
            "midi": 62,
            "name": "D4",
            "ticks": 4590,
            "time": 26.999986500000002,
            "velocity": 0.7874015748031497
          },
          {
            "duration": 0.17647050000000064,
            "durationTicks": 30,
            "midi": 52,
            "name": "E3",
            "ticks": 4620,
            "time": 27.176457,
            "velocity": 0.7874015748031497
          },
          {
            "duration": 0.17647050000000064,
            "durationTicks": 30,
            "midi": 64,
            "name": "E4",
            "ticks": 4620,
            "time": 27.176457,
            "velocity": 0.7874015748031497
          },
          {
            "duration": 0.17647050000000064,
            "durationTicks": 30,
            "midi": 54,
            "name": "F#3",
            "ticks": 4650,
            "time": 27.3529275,
            "velocity": 0.7874015748031497
          },
          {
            "duration": 0.17647050000000064,
            "durationTicks": 30,
            "midi": 66,
            "name": "F#4",
            "ticks": 4650,
            "time": 27.3529275,
            "velocity": 0.7874015748031497
          },
          {
            "duration": 0.17647050000000064,
            "durationTicks": 30,
            "midi": 61,
            "name": "C#4",
            "ticks": 4710,
            "time": 27.7058685,
            "velocity": 0.7874015748031497
          },
          {
            "duration": 0.17647050000000064,
            "durationTicks": 30,
            "midi": 73,
            "name": "C#5",
            "ticks": 4710,
            "time": 27.7058685,
            "velocity": 0.7874015748031497
          },
          {
            "duration": 0.22941165000000296,
            "durationTicks": 39,
            "midi": 59,
            "name": "B3",
            "ticks": 4770,
            "time": 28.0588095,
            "velocity": 0.7874015748031497
          },
          {
            "duration": 0.22941165000000296,
            "durationTicks": 39,
            "midi": 65,
            "name": "F4",
            "ticks": 4770,
            "time": 28.0588095,
            "velocity": 0.7874015748031497
          },
          {
            "duration": 0.22941165000000296,
            "durationTicks": 39,
            "midi": 68,
            "name": "G#4",
            "ticks": 4770,
            "time": 28.0588095,
            "velocity": 0.7874015748031497
          },
          {
            "duration": 0.22941165000000296,
            "durationTicks": 39,
            "midi": 71,
            "name": "B4",
            "ticks": 4770,
            "time": 28.0588095,
            "velocity": 0.7874015748031497
          },
          {
            "duration": 0.17647050000000064,
            "durationTicks": 30,
            "midi": 56,
            "name": "G#3",
            "ticks": 5040,
            "time": 29.647044,
            "velocity": 0.7874015748031497
          },
          {
            "duration": 0.17647050000000064,
            "durationTicks": 30,
            "midi": 68,
            "name": "G#4",
            "ticks": 5040,
            "time": 29.647044,
            "velocity": 0.7874015748031497
          },
          {
            "duration": 0.1764704999999971,
            "durationTicks": 30,
            "midi": 56,
            "name": "G#3",
            "ticks": 5070,
            "time": 29.8235145,
            "velocity": 0.7874015748031497
          },
          {
            "duration": 0.1764704999999971,
            "durationTicks": 30,
            "midi": 68,
            "name": "G#4",
            "ticks": 5070,
            "time": 29.8235145,
            "velocity": 0.7874015748031497
          },
          {
            "duration": 0.17647050000000064,
            "durationTicks": 30,
            "midi": 57,
            "name": "A3",
            "ticks": 5130,
            "time": 30.1764555,
            "velocity": 0.7874015748031497
          },
          {
            "duration": 0.17647050000000064,
            "durationTicks": 30,
            "midi": 66,
            "name": "F#4",
            "ticks": 5130,
            "time": 30.1764555,
            "velocity": 0.7874015748031497
          },
          {
            "duration": 0.17647050000000064,
            "durationTicks": 30,
            "midi": 69,
            "name": "A4",
            "ticks": 5130,
            "time": 30.1764555,
            "velocity": 0.7874015748031497
          },
          {
            "duration": 0.17647050000000064,
            "durationTicks": 30,
            "midi": 59,
            "name": "B3",
            "ticks": 5190,
            "time": 30.5293965,
            "velocity": 0.7874015748031497
          },
          {
            "duration": 0.17647050000000064,
            "durationTicks": 30,
            "midi": 71,
            "name": "B4",
            "ticks": 5190,
            "time": 30.5293965,
            "velocity": 0.7874015748031497
          },
          {
            "duration": 0.17647050000000064,
            "durationTicks": 30,
            "midi": 65,
            "name": "F4",
            "ticks": 5190,
            "time": 30.5293965,
            "velocity": 0.7874015748031497
          },
          {
            "duration": 1.588234499999995,
            "durationTicks": 270,
            "midi": 54,
            "name": "F#3",
            "ticks": 5250,
            "time": 30.882337500000002,
            "velocity": 0.7874015748031497
          },
          {
            "duration": 1.588234499999995,
            "durationTicks": 270,
            "midi": 60,
            "name": "C4",
            "ticks": 5250,
            "time": 30.882337500000002,
            "velocity": 0.7874015748031497
          },
          {
            "duration": 1.588234499999995,
            "durationTicks": 270,
            "midi": 72,
            "name": "C5",
            "ticks": 5250,
            "time": 30.882337500000002,
            "velocity": 0.7874015748031497
          },
          {
            "duration": 1.588234499999995,
            "durationTicks": 270,
            "midi": 69,
            "name": "A4",
            "ticks": 5250,
            "time": 30.882337500000002,
            "velocity": 0.7874015748031497
          },
          {
            "duration": 1.588234499999995,
            "durationTicks": 270,
            "midi": 64,
            "name": "E4",
            "ticks": 5250,
            "time": 30.882337500000002,
            "velocity": 0.7874015748031497
          },
          {
            "duration": 0.05294114999999522,
            "durationTicks": 9,
            "midi": 57,
            "name": "A3",
            "ticks": 5620,
            "time": 33.058807,
            "velocity": 0.7874015748031497
          },
          {
            "duration": 0.052941150000002324,
            "durationTicks": 9,
            "midi": 69,
            "name": "A4",
            "ticks": 5625,
            "time": 33.08821875,
            "velocity": 0.7874015748031497
          },
          {
            "duration": 0.052941150000002324,
            "durationTicks": 9,
            "midi": 58,
            "name": "A#3",
            "ticks": 5630,
            "time": 33.1176305,
            "velocity": 0.7874015748031497
          },
          {
            "duration": 0.05294114999999522,
            "durationTicks": 9,
            "midi": 70,
            "name": "A#4",
            "ticks": 5635,
            "time": 33.147042250000005,
            "velocity": 0.7874015748031497
          },
          {
            "duration": 0.17647050000000064,
            "durationTicks": 30,
            "midi": 59,
            "name": "B3",
            "ticks": 5640,
            "time": 33.176454,
            "velocity": 0.7874015748031497
          },
          {
            "duration": 0.17647050000000064,
            "durationTicks": 30,
            "midi": 71,
            "name": "B4",
            "ticks": 5640,
            "time": 33.176454,
            "velocity": 0.7874015748031497
          },
          {
            "duration": 0.17647050000000064,
            "durationTicks": 30,
            "midi": 57,
            "name": "A3",
            "ticks": 5670,
            "time": 33.3529245,
            "velocity": 0.7874015748031497
          },
          {
            "duration": 0.17647050000000064,
            "durationTicks": 30,
            "midi": 69,
            "name": "A4",
            "ticks": 5670,
            "time": 33.3529245,
            "velocity": 0.7874015748031497
          },
          {
            "duration": 0.17647050000000064,
            "durationTicks": 30,
            "midi": 57,
            "name": "A3",
            "ticks": 5730,
            "time": 33.7058655,
            "velocity": 0.7874015748031497
          },
          {
            "duration": 0.17647050000000064,
            "durationTicks": 30,
            "midi": 69,
            "name": "A4",
            "ticks": 5730,
            "time": 33.7058655,
            "velocity": 0.7874015748031497
          },
          {
            "duration": 0.17647050000000064,
            "durationTicks": 30,
            "midi": 55,
            "name": "G3",
            "ticks": 5790,
            "time": 34.0588065,
            "velocity": 0.7874015748031497
          },
          {
            "duration": 0.17647050000000064,
            "durationTicks": 30,
            "midi": 67,
            "name": "G4",
            "ticks": 5790,
            "time": 34.0588065,
            "velocity": 0.7874015748031497
          },
          {
            "duration": 0.17647050000000064,
            "durationTicks": 30,
            "midi": 54,
            "name": "F#3",
            "ticks": 5850,
            "time": 34.4117475,
            "velocity": 0.7874015748031497
          },
          {
            "duration": 0.17647050000000064,
            "durationTicks": 30,
            "midi": 66,
            "name": "F#4",
            "ticks": 5850,
            "time": 34.4117475,
            "velocity": 0.7874015748031497
          },
          {
            "duration": 0.17647050000000064,
            "durationTicks": 30,
            "midi": 59,
            "name": "B3",
            "ticks": 5910,
            "time": 34.7646885,
            "velocity": 0.7874015748031497
          },
          {
            "duration": 0.17647050000000064,
            "durationTicks": 30,
            "midi": 71,
            "name": "B4",
            "ticks": 5910,
            "time": 34.7646885,
            "velocity": 0.7874015748031497
          },
          {
            "duration": 0.17647050000000064,
            "durationTicks": 30,
            "midi": 57,
            "name": "A3",
            "ticks": 5940,
            "time": 34.941159,
            "velocity": 0.7874015748031497
          },
          {
            "duration": 0.17647050000000064,
            "durationTicks": 30,
            "midi": 69,
            "name": "A4",
            "ticks": 5940,
            "time": 34.941159,
            "velocity": 0.7874015748031497
          },
          {
            "duration": 0.6999996499999952,
            "durationTicks": 119,
            "midi": 74,
            "name": "D5",
            "ticks": 6120,
            "time": 35.999982,
            "velocity": 0.7874015748031497
          },
          {
            "duration": 0.6999996499999952,
            "durationTicks": 119,
            "midi": 69,
            "name": "A4",
            "ticks": 6120,
            "time": 35.999982,
            "velocity": 0.7874015748031497
          },
          {
            "duration": 0.6999996499999952,
            "durationTicks": 119,
            "midi": 66,
            "name": "F#4",
            "ticks": 6120,
            "time": 35.999982,
            "velocity": 0.7874015748031497
          },
          {
            "duration": 1.0529406500000036,
            "durationTicks": 179,
            "midi": 71,
            "name": "B4",
            "ticks": 6240,
            "time": 36.705864,
            "velocity": 0.7874015748031497
          },
          {
            "duration": 1.0529406500000036,
            "durationTicks": 179,
            "midi": 67,
            "name": "G4",
            "ticks": 6240,
            "time": 36.705864,
            "velocity": 0.7874015748031497
          },
          {
            "duration": 1.0529406500000036,
            "durationTicks": 179,
            "midi": 62,
            "name": "D4",
            "ticks": 6240,
            "time": 36.705864,
            "velocity": 0.7874015748031497
          },
          {
            "duration": 0.17647050000000064,
            "durationTicks": 30,
            "midi": 55,
            "name": "G3",
            "ticks": 6480,
            "time": 38.117628,
            "velocity": 0.7874015748031497
          },
          {
            "duration": 0.17647050000000064,
            "durationTicks": 30,
            "midi": 67,
            "name": "G4",
            "ticks": 6480,
            "time": 38.117628,
            "velocity": 0.7874015748031497
          },
          {
            "duration": 0.17647049999999354,
            "durationTicks": 30,
            "midi": 52,
            "name": "E3",
            "ticks": 6510,
            "time": 38.294098500000004,
            "velocity": 0.7874015748031497
          },
          {
            "duration": 0.17647049999999354,
            "durationTicks": 30,
            "midi": 64,
            "name": "E4",
            "ticks": 6510,
            "time": 38.294098500000004,
            "velocity": 0.7874015748031497
          },
          {
            "duration": 0.17647050000000064,
            "durationTicks": 30,
            "midi": 54,
            "name": "F#3",
            "ticks": 6540,
            "time": 38.470569,
            "velocity": 0.7874015748031497
          },
          {
            "duration": 0.17647050000000064,
            "durationTicks": 30,
            "midi": 66,
            "name": "F#4",
            "ticks": 6540,
            "time": 38.470569,
            "velocity": 0.7874015748031497
          },
          {
            "duration": 0.17647050000000064,
            "durationTicks": 30,
            "midi": 55,
            "name": "G3",
            "ticks": 6570,
            "time": 38.6470395,
            "velocity": 0.7874015748031497
          },
          {
            "duration": 0.17647050000000064,
            "durationTicks": 30,
            "midi": 67,
            "name": "G4",
            "ticks": 6570,
            "time": 38.6470395,
            "velocity": 0.7874015748031497
          },
          {
            "duration": 0.17647050000000064,
            "durationTicks": 30,
            "midi": 64,
            "name": "E4",
            "ticks": 6630,
            "time": 38.9999805,
            "velocity": 0.7874015748031497
          },
          {
            "duration": 0.17647050000000064,
            "durationTicks": 30,
            "midi": 76,
            "name": "E5",
            "ticks": 6630,
            "time": 38.9999805,
            "velocity": 0.7874015748031497
          },
          {
            "duration": 0.22941165000000296,
            "durationTicks": 39,
            "midi": 62,
            "name": "D4",
            "ticks": 6690,
            "time": 39.3529215,
            "velocity": 0.7874015748031497
          },
          {
            "duration": 0.22941165000000296,
            "durationTicks": 39,
            "midi": 66,
            "name": "F#4",
            "ticks": 6690,
            "time": 39.3529215,
            "velocity": 0.7874015748031497
          },
          {
            "duration": 0.22941165000000296,
            "durationTicks": 39,
            "midi": 71,
            "name": "B4",
            "ticks": 6690,
            "time": 39.3529215,
            "velocity": 0.7874015748031497
          },
          {
            "duration": 0.22941165000000296,
            "durationTicks": 39,
            "midi": 74,
            "name": "D5",
            "ticks": 6690,
            "time": 39.3529215,
            "velocity": 0.7874015748031497
          },
          {
            "duration": 0.17647050000000064,
            "durationTicks": 30,
            "midi": 59,
            "name": "B3",
            "ticks": 6960,
            "time": 40.941156,
            "velocity": 0.7874015748031497
          },
          {
            "duration": 0.17647050000000064,
            "durationTicks": 30,
            "midi": 71,
            "name": "B4",
            "ticks": 6960,
            "time": 40.941156,
            "velocity": 0.7874015748031497
          },
          {
            "duration": 0.17647050000000064,
            "durationTicks": 30,
            "midi": 60,
            "name": "C4",
            "ticks": 6990,
            "time": 41.1176265,
            "velocity": 0.7874015748031497
          },
          {
            "duration": 0.17647050000000064,
            "durationTicks": 30,
            "midi": 72,
            "name": "C5",
            "ticks": 6990,
            "time": 41.1176265,
            "velocity": 0.7874015748031497
          },
          {
            "duration": 0.17647050000000064,
            "durationTicks": 30,
            "midi": 62,
            "name": "D4",
            "ticks": 7020,
            "time": 41.294097,
            "velocity": 0.7874015748031497
          },
          {
            "duration": 0.17647050000000064,
            "durationTicks": 30,
            "midi": 74,
            "name": "D5",
            "ticks": 7020,
            "time": 41.294097,
            "velocity": 0.7874015748031497
          },
          {
            "duration": 0.3529410000000013,
            "durationTicks": 60,
            "midi": 52,
            "name": "E3",
            "ticks": 7050,
            "time": 41.4705675,
            "velocity": 0.7874015748031497
          },
          {
            "duration": 0.3529410000000013,
            "durationTicks": 60,
            "midi": 64,
            "name": "E4",
            "ticks": 7050,
            "time": 41.4705675,
            "velocity": 0.7874015748031497
          },
          {
            "duration": 0.17647050000000064,
            "durationTicks": 30,
            "midi": 56,
            "name": "G#3",
            "ticks": 7110,
            "time": 41.8235085,
            "velocity": 0.7874015748031497
          },
          {
            "duration": 0.17647050000000064,
            "durationTicks": 30,
            "midi": 68,
            "name": "G#4",
            "ticks": 7110,
            "time": 41.8235085,
            "velocity": 0.7874015748031497
          },
          {
            "duration": 0.17647050000000064,
            "durationTicks": 30,
            "midi": 59,
            "name": "B3",
            "ticks": 7140,
            "time": 41.999979,
            "velocity": 0.7874015748031497
          },
          {
            "duration": 0.17647050000000064,
            "durationTicks": 30,
            "midi": 71,
            "name": "B4",
            "ticks": 7140,
            "time": 41.999979,
            "velocity": 0.7874015748031497
          },
          {
            "duration": 0.17647049999999354,
            "durationTicks": 30,
            "midi": 60,
            "name": "C4",
            "ticks": 7170,
            "time": 42.176449500000004,
            "velocity": 0.7874015748031497
          },
          {
            "duration": 0.17647049999999354,
            "durationTicks": 30,
            "midi": 72,
            "name": "C5",
            "ticks": 7170,
            "time": 42.176449500000004,
            "velocity": 0.7874015748031497
          },
          {
            "duration": 0.17647050000000064,
            "durationTicks": 30,
            "midi": 52,
            "name": "E3",
            "ticks": 7230,
            "time": 42.5293905,
            "velocity": 0.7874015748031497
          },
          {
            "duration": 0.17647050000000064,
            "durationTicks": 30,
            "midi": 64,
            "name": "E4",
            "ticks": 7230,
            "time": 42.5293905,
            "velocity": 0.7874015748031497
          },
          {
            "duration": 0.17647050000000064,
            "durationTicks": 30,
            "midi": 55,
            "name": "G3",
            "ticks": 7260,
            "time": 42.705861,
            "velocity": 0.7874015748031497
          },
          {
            "duration": 0.17647050000000064,
            "durationTicks": 30,
            "midi": 67,
            "name": "G4",
            "ticks": 7260,
            "time": 42.705861,
            "velocity": 0.7874015748031497
          },
          {
            "duration": 0.17647050000000064,
            "durationTicks": 30,
            "midi": 52,
            "name": "E3",
            "ticks": 7560,
            "time": 44.470566,
            "velocity": 0.7874015748031497
          },
          {
            "duration": 0.17647050000000064,
            "durationTicks": 30,
            "midi": 64,
            "name": "E4",
            "ticks": 7560,
            "time": 44.470566,
            "velocity": 0.7874015748031497
          },
          {
            "duration": 0.17647050000000064,
            "durationTicks": 30,
            "midi": 55,
            "name": "G3",
            "ticks": 7590,
            "time": 44.6470365,
            "velocity": 0.7874015748031497
          },
          {
            "duration": 0.17647050000000064,
            "durationTicks": 30,
            "midi": 67,
            "name": "G4",
            "ticks": 7590,
            "time": 44.6470365,
            "velocity": 0.7874015748031497
          },
          {
            "duration": 0.17647050000000064,
            "durationTicks": 30,
            "midi": 52,
            "name": "E3",
            "ticks": 7620,
            "time": 44.823507,
            "velocity": 0.7874015748031497
          },
          {
            "duration": 0.17647050000000064,
            "durationTicks": 30,
            "midi": 64,
            "name": "E4",
            "ticks": 7620,
            "time": 44.823507,
            "velocity": 0.7874015748031497
          },
          {
            "duration": 0.8823525000000032,
            "durationTicks": 150,
            "midi": 57,
            "name": "A3",
            "ticks": 7650,
            "time": 44.9999775,
            "velocity": 0.7874015748031497
          },
          {
            "duration": 0.8823525000000032,
            "durationTicks": 150,
            "midi": 61,
            "name": "C#4",
            "ticks": 7650,
            "time": 44.9999775,
            "velocity": 0.7874015748031497
          },
          {
            "duration": 0.8823525000000032,
            "durationTicks": 150,
            "midi": 64,
            "name": "E4",
            "ticks": 7650,
            "time": 44.9999775,
            "velocity": 0.7874015748031497
          },
          {
            "duration": 0.8823525000000032,
            "durationTicks": 150,
            "midi": 66,
            "name": "F#4",
            "ticks": 7650,
            "time": 44.9999775,
            "velocity": 0.7874015748031497
          },
          {
            "duration": 0.8823525000000032,
            "durationTicks": 150,
            "midi": 69,
            "name": "A4",
            "ticks": 7650,
            "time": 44.9999775,
            "velocity": 0.7874015748031497
          },
          {
            "duration": 0.17647050000000064,
            "durationTicks": 30,
            "midi": 61,
            "name": "C#4",
            "ticks": 7800,
            "time": 45.88233,
            "velocity": 0.7874015748031497
          },
          {
            "duration": 0.17647050000000064,
            "durationTicks": 30,
            "midi": 69,
            "name": "A4",
            "ticks": 7800,
            "time": 45.88233,
            "velocity": 0.7874015748031497
          },
          {
            "duration": 0.17647050000000064,
            "durationTicks": 30,
            "midi": 73,
            "name": "C#5",
            "ticks": 7800,
            "time": 45.88233,
            "velocity": 0.7874015748031497
          },
          {
            "duration": 0.17647049999999354,
            "durationTicks": 30,
            "midi": 64,
            "name": "E4",
            "ticks": 7830,
            "time": 46.058800500000004,
            "velocity": 0.7874015748031497
          },
          {
            "duration": 0.17647049999999354,
            "durationTicks": 30,
            "midi": 73,
            "name": "C#5",
            "ticks": 7830,
            "time": 46.058800500000004,
            "velocity": 0.7874015748031497
          },
          {
            "duration": 0.17647049999999354,
            "durationTicks": 30,
            "midi": 76,
            "name": "E5",
            "ticks": 7830,
            "time": 46.058800500000004,
            "velocity": 0.7874015748031497
          },
          {
            "duration": 0.17647050000000064,
            "durationTicks": 30,
            "midi": 61,
            "name": "C#4",
            "ticks": 7860,
            "time": 46.235271,
            "velocity": 0.7874015748031497
          },
          {
            "duration": 0.17647050000000064,
            "durationTicks": 30,
            "midi": 69,
            "name": "A4",
            "ticks": 7860,
            "time": 46.235271,
            "velocity": 0.7874015748031497
          },
          {
            "duration": 0.17647050000000064,
            "durationTicks": 30,
            "midi": 73,
            "name": "C#5",
            "ticks": 7860,
            "time": 46.235271,
            "velocity": 0.7874015748031497
          },
          {
            "duration": 0.8823525000000032,
            "durationTicks": 150,
            "midi": 68,
            "name": "G#4",
            "ticks": 7890,
            "time": 46.4117415,
            "velocity": 0.7874015748031497
          },
          {
            "duration": 0.8823525000000032,
            "durationTicks": 150,
            "midi": 64,
            "name": "E4",
            "ticks": 7890,
            "time": 46.4117415,
            "velocity": 0.7874015748031497
          },
          {
            "duration": 0.8823525000000032,
            "durationTicks": 150,
            "midi": 61,
            "name": "C#4",
            "ticks": 7890,
            "time": 46.4117415,
            "velocity": 0.7874015748031497
          },
          {
            "duration": 0.8823525000000032,
            "durationTicks": 150,
            "midi": 57,
            "name": "A3",
            "ticks": 7890,
            "time": 46.4117415,
            "velocity": 0.7874015748031497
          },
          {
            "duration": 0.8823525000000032,
            "durationTicks": 150,
            "midi": 80,
            "name": "G#5",
            "ticks": 7890,
            "time": 46.4117415,
            "velocity": 0.7874015748031497
          },
          {
            "duration": 0.8823525000000032,
            "durationTicks": 150,
            "midi": 76,
            "name": "E5",
            "ticks": 7890,
            "time": 46.4117415,
            "velocity": 0.7874015748031497
          },
          {
            "duration": 0.8823525000000032,
            "durationTicks": 150,
            "midi": 73,
            "name": "C#5",
            "ticks": 7890,
            "time": 46.4117415,
            "velocity": 0.7874015748031497
          },
          {
            "duration": 0.8823525000000032,
            "durationTicks": 150,
            "midi": 69,
            "name": "A4",
            "ticks": 7890,
            "time": 46.4117415,
            "velocity": 0.7874015748031497
          },
          {
            "duration": 0.5235291499999946,
            "durationTicks": 89,
            "midi": 71,
            "name": "B4",
            "ticks": 8070,
            "time": 47.4705645,
            "velocity": 0.7874015748031497
          },
          {
            "duration": 0.5235291499999946,
            "durationTicks": 89,
            "midi": 83,
            "name": "B5",
            "ticks": 8070,
            "time": 47.4705645,
            "velocity": 0.7874015748031497
          },
          {
            "duration": 0.6999996499999952,
            "durationTicks": 119,
            "midi": 80,
            "name": "G#5",
            "ticks": 8160,
            "time": 47.999976000000004,
            "velocity": 0.7874015748031497
          },
          {
            "duration": 0.6999996499999952,
            "durationTicks": 119,
            "midi": 75,
            "name": "D#5",
            "ticks": 8160,
            "time": 47.999976000000004,
            "velocity": 0.7874015748031497
          },
          {
            "duration": 0.6999996499999952,
            "durationTicks": 119,
            "midi": 71,
            "name": "B4",
            "ticks": 8160,
            "time": 47.999976000000004,
            "velocity": 0.7874015748031497
          },
          {
            "duration": 0.17647050000000064,
            "durationTicks": 30,
            "midi": 56,
            "name": "G#3",
            "ticks": 8400,
            "time": 49.41174,
            "velocity": 0.7874015748031497
          },
          {
            "duration": 0.17647050000000064,
            "durationTicks": 30,
            "midi": 68,
            "name": "G#4",
            "ticks": 8400,
            "time": 49.41174,
            "velocity": 0.7874015748031497
          },
          {
            "duration": 0.17647050000000064,
            "durationTicks": 30,
            "midi": 52,
            "name": "E3",
            "ticks": 8430,
            "time": 49.5882105,
            "velocity": 0.7874015748031497
          },
          {
            "duration": 0.17647050000000064,
            "durationTicks": 30,
            "midi": 64,
            "name": "E4",
            "ticks": 8430,
            "time": 49.5882105,
            "velocity": 0.7874015748031497
          },
          {
            "duration": 0.17647050000000064,
            "durationTicks": 30,
            "midi": 54,
            "name": "F#3",
            "ticks": 8460,
            "time": 49.764681,
            "velocity": 0.7874015748031497
          },
          {
            "duration": 0.17647050000000064,
            "durationTicks": 30,
            "midi": 66,
            "name": "F#4",
            "ticks": 8460,
            "time": 49.764681,
            "velocity": 0.7874015748031497
          },
          {
            "duration": 0.17647049999999354,
            "durationTicks": 30,
            "midi": 56,
            "name": "G#3",
            "ticks": 8490,
            "time": 49.941151500000004,
            "velocity": 0.7874015748031497
          },
          {
            "duration": 0.17647049999999354,
            "durationTicks": 30,
            "midi": 68,
            "name": "G#4",
            "ticks": 8490,
            "time": 49.941151500000004,
            "velocity": 0.7874015748031497
          },
          {
            "duration": 0.17647050000000064,
            "durationTicks": 30,
            "midi": 63,
            "name": "D#4",
            "ticks": 8550,
            "time": 50.2940925,
            "velocity": 0.7874015748031497
          },
          {
            "duration": 0.17647050000000064,
            "durationTicks": 30,
            "midi": 75,
            "name": "D#5",
            "ticks": 8550,
            "time": 50.2940925,
            "velocity": 0.7874015748031497
          },
          {
            "duration": 0.22941165000000296,
            "durationTicks": 39,
            "midi": 61,
            "name": "C#4",
            "ticks": 8610,
            "time": 50.6470335,
            "velocity": 0.7874015748031497
          },
          {
            "duration": 0.22941165000000296,
            "durationTicks": 39,
            "midi": 67,
            "name": "G4",
            "ticks": 8610,
            "time": 50.6470335,
            "velocity": 0.7874015748031497
          },
          {
            "duration": 0.22941165000000296,
            "durationTicks": 39,
            "midi": 70,
            "name": "A#4",
            "ticks": 8610,
            "time": 50.6470335,
            "velocity": 0.7874015748031497
          },
          {
            "duration": 0.22941165000000296,
            "durationTicks": 39,
            "midi": 73,
            "name": "C#5",
            "ticks": 8610,
            "time": 50.6470335,
            "velocity": 0.7874015748031497
          },
          {
            "duration": 0.17647050000000064,
            "durationTicks": 30,
            "midi": 58,
            "name": "A#3",
            "ticks": 8880,
            "time": 52.235268,
            "velocity": 0.7874015748031497
          },
          {
            "duration": 0.17647050000000064,
            "durationTicks": 30,
            "midi": 70,
            "name": "A#4",
            "ticks": 8880,
            "time": 52.235268,
            "velocity": 0.7874015748031497
          },
          {
            "duration": 0.17647050000000064,
            "durationTicks": 30,
            "midi": 58,
            "name": "A#3",
            "ticks": 8910,
            "time": 52.4117385,
            "velocity": 0.7874015748031497
          },
          {
            "duration": 0.17647050000000064,
            "durationTicks": 30,
            "midi": 70,
            "name": "A#4",
            "ticks": 8910,
            "time": 52.4117385,
            "velocity": 0.7874015748031497
          },
          {
            "duration": 0.17647050000000064,
            "durationTicks": 30,
            "midi": 59,
            "name": "B3",
            "ticks": 8970,
            "time": 52.7646795,
            "velocity": 0.7874015748031497
          },
          {
            "duration": 0.17647050000000064,
            "durationTicks": 30,
            "midi": 68,
            "name": "G#4",
            "ticks": 8970,
            "time": 52.7646795,
            "velocity": 0.7874015748031497
          },
          {
            "duration": 0.17647050000000064,
            "durationTicks": 30,
            "midi": 71,
            "name": "B4",
            "ticks": 8970,
            "time": 52.7646795,
            "velocity": 0.7874015748031497
          },
          {
            "duration": 0.17647050000000064,
            "durationTicks": 30,
            "midi": 61,
            "name": "C#4",
            "ticks": 9030,
            "time": 53.1176205,
            "velocity": 0.7874015748031497
          },
          {
            "duration": 0.17647050000000064,
            "durationTicks": 30,
            "midi": 73,
            "name": "C#5",
            "ticks": 9030,
            "time": 53.1176205,
            "velocity": 0.7874015748031497
          },
          {
            "duration": 0.17647050000000064,
            "durationTicks": 30,
            "midi": 67,
            "name": "G4",
            "ticks": 9030,
            "time": 53.1176205,
            "velocity": 0.7874015748031497
          },
          {
            "duration": 1.5882344999999987,
            "durationTicks": 270,
            "midi": 62,
            "name": "D4",
            "ticks": 9090,
            "time": 53.4705615,
            "velocity": 0.7874015748031497
          },
          {
            "duration": 1.5882344999999987,
            "durationTicks": 270,
            "midi": 56,
            "name": "G#3",
            "ticks": 9090,
            "time": 53.4705615,
            "velocity": 0.7874015748031497
          },
          {
            "duration": 1.5882344999999987,
            "durationTicks": 270,
            "midi": 74,
            "name": "D5",
            "ticks": 9090,
            "time": 53.4705615,
            "velocity": 0.7874015748031497
          },
          {
            "duration": 1.5882344999999987,
            "durationTicks": 270,
            "midi": 71,
            "name": "B4",
            "ticks": 9090,
            "time": 53.4705615,
            "velocity": 0.7874015748031497
          },
          {
            "duration": 1.5882344999999987,
            "durationTicks": 270,
            "midi": 66,
            "name": "F#4",
            "ticks": 9090,
            "time": 53.4705615,
            "velocity": 0.7874015748031497
          },
          {
            "duration": 0.052941150000002324,
            "durationTicks": 9,
            "midi": 59,
            "name": "B3",
            "ticks": 9465,
            "time": 55.67644275,
            "velocity": 0.7874015748031497
          },
          {
            "duration": 0.052941150000002324,
            "durationTicks": 9,
            "midi": 71,
            "name": "B4",
            "ticks": 9465,
            "time": 55.67644275,
            "velocity": 0.7874015748031497
          },
          {
            "duration": 0.052941150000002324,
            "durationTicks": 9,
            "midi": 60,
            "name": "C4",
            "ticks": 9475,
            "time": 55.735266249999995,
            "velocity": 0.7874015748031497
          },
          {
            "duration": 0.052941150000002324,
            "durationTicks": 9,
            "midi": 72,
            "name": "C5",
            "ticks": 9475,
            "time": 55.735266249999995,
            "velocity": 0.7874015748031497
          },
          {
            "duration": 0.17647050000000064,
            "durationTicks": 30,
            "midi": 61,
            "name": "C#4",
            "ticks": 9480,
            "time": 55.764678,
            "velocity": 0.7874015748031497
          },
          {
            "duration": 0.17647050000000064,
            "durationTicks": 30,
            "midi": 73,
            "name": "C#5",
            "ticks": 9480,
            "time": 55.764678,
            "velocity": 0.7874015748031497
          },
          {
            "duration": 0.17647049999999354,
            "durationTicks": 30,
            "midi": 59,
            "name": "B3",
            "ticks": 9510,
            "time": 55.941148500000004,
            "velocity": 0.7874015748031497
          },
          {
            "duration": 0.17647049999999354,
            "durationTicks": 30,
            "midi": 71,
            "name": "B4",
            "ticks": 9510,
            "time": 55.941148500000004,
            "velocity": 0.7874015748031497
          },
          {
            "duration": 0.17647050000000064,
            "durationTicks": 30,
            "midi": 59,
            "name": "B3",
            "ticks": 9570,
            "time": 56.2940895,
            "velocity": 0.7874015748031497
          },
          {
            "duration": 0.17647050000000064,
            "durationTicks": 30,
            "midi": 71,
            "name": "B4",
            "ticks": 9570,
            "time": 56.2940895,
            "velocity": 0.7874015748031497
          },
          {
            "duration": 0.17647050000000064,
            "durationTicks": 30,
            "midi": 57,
            "name": "A3",
            "ticks": 9630,
            "time": 56.6470305,
            "velocity": 0.7874015748031497
          },
          {
            "duration": 0.17647050000000064,
            "durationTicks": 30,
            "midi": 69,
            "name": "A4",
            "ticks": 9630,
            "time": 56.6470305,
            "velocity": 0.7874015748031497
          },
          {
            "duration": 0.17647050000000064,
            "durationTicks": 30,
            "midi": 56,
            "name": "G#3",
            "ticks": 9690,
            "time": 56.9999715,
            "velocity": 0.7874015748031497
          },
          {
            "duration": 0.17647050000000064,
            "durationTicks": 30,
            "midi": 68,
            "name": "G#4",
            "ticks": 9690,
            "time": 56.9999715,
            "velocity": 0.7874015748031497
          },
          {
            "duration": 0.17647050000000064,
            "durationTicks": 30,
            "midi": 61,
            "name": "C#4",
            "ticks": 9750,
            "time": 57.3529125,
            "velocity": 0.7874015748031497
          },
          {
            "duration": 0.17647050000000064,
            "durationTicks": 30,
            "midi": 73,
            "name": "C#5",
            "ticks": 9750,
            "time": 57.3529125,
            "velocity": 0.7874015748031497
          },
          {
            "duration": 0.17647050000000064,
            "durationTicks": 30,
            "midi": 59,
            "name": "B3",
            "ticks": 9780,
            "time": 57.529383,
            "velocity": 0.7874015748031497
          },
          {
            "duration": 0.17647050000000064,
            "durationTicks": 30,
            "midi": 71,
            "name": "B4",
            "ticks": 9780,
            "time": 57.529383,
            "velocity": 0.7874015748031497
          },
          {
            "duration": 0.17647050000000064,
            "durationTicks": 30,
            "midi": 57,
            "name": "A3",
            "ticks": 10320,
            "time": 60.705852,
            "velocity": 0.7874015748031497
          },
          {
            "duration": 0.17647050000000064,
            "durationTicks": 30,
            "midi": 69,
            "name": "A4",
            "ticks": 10320,
            "time": 60.705852,
            "velocity": 0.7874015748031497
          },
          {
            "duration": 0.17647050000000064,
            "durationTicks": 30,
            "midi": 54,
            "name": "F#3",
            "ticks": 10350,
            "time": 60.8823225,
            "velocity": 0.7874015748031497
          },
          {
            "duration": 0.17647050000000064,
            "durationTicks": 30,
            "midi": 66,
            "name": "F#4",
            "ticks": 10350,
            "time": 60.8823225,
            "velocity": 0.7874015748031497
          },
          {
            "duration": 0.17647050000000064,
            "durationTicks": 30,
            "midi": 56,
            "name": "G#3",
            "ticks": 10380,
            "time": 61.058793,
            "velocity": 0.7874015748031497
          },
          {
            "duration": 0.17647050000000064,
            "durationTicks": 30,
            "midi": 68,
            "name": "G#4",
            "ticks": 10380,
            "time": 61.058793,
            "velocity": 0.7874015748031497
          },
          {
            "duration": 0.17647050000000064,
            "durationTicks": 30,
            "midi": 57,
            "name": "A3",
            "ticks": 10410,
            "time": 61.2352635,
            "velocity": 0.7874015748031497
          },
          {
            "duration": 0.17647050000000064,
            "durationTicks": 30,
            "midi": 69,
            "name": "A4",
            "ticks": 10410,
            "time": 61.2352635,
            "velocity": 0.7874015748031497
          },
          {
            "duration": 0.17647050000000064,
            "durationTicks": 30,
            "midi": 66,
            "name": "F#4",
            "ticks": 10470,
            "time": 61.5882045,
            "velocity": 0.7874015748031497
          },
          {
            "duration": 0.17647050000000064,
            "durationTicks": 30,
            "midi": 78,
            "name": "F#5",
            "ticks": 10470,
            "time": 61.5882045,
            "velocity": 0.7874015748031497
          },
          {
            "duration": 0.22941165000000296,
            "durationTicks": 39,
            "midi": 64,
            "name": "E4",
            "ticks": 10530,
            "time": 61.9411455,
            "velocity": 0.7874015748031497
          },
          {
            "duration": 0.22941165000000296,
            "durationTicks": 39,
            "midi": 68,
            "name": "G#4",
            "ticks": 10530,
            "time": 61.9411455,
            "velocity": 0.7874015748031497
          },
          {
            "duration": 0.22941165000000296,
            "durationTicks": 39,
            "midi": 71,
            "name": "B4",
            "ticks": 10530,
            "time": 61.9411455,
            "velocity": 0.7874015748031497
          },
          {
            "duration": 0.22941165000000296,
            "durationTicks": 39,
            "midi": 73,
            "name": "C#5",
            "ticks": 10530,
            "time": 61.9411455,
            "velocity": 0.7874015748031497
          },
          {
            "duration": 0.22941165000000296,
            "durationTicks": 39,
            "midi": 76,
            "name": "E5",
            "ticks": 10530,
            "time": 61.9411455,
            "velocity": 0.7874015748031497
          },
          {
            "duration": 0.17647050000000064,
            "durationTicks": 30,
            "midi": 61,
            "name": "C#4",
            "ticks": 10800,
            "time": 63.52938,
            "velocity": 0.7874015748031497
          },
          {
            "duration": 0.17647050000000064,
            "durationTicks": 30,
            "midi": 66,
            "name": "F#4",
            "ticks": 10800,
            "time": 63.52938,
            "velocity": 0.7874015748031497
          },
          {
            "duration": 0.17647050000000064,
            "durationTicks": 30,
            "midi": 70,
            "name": "A#4",
            "ticks": 10800,
            "time": 63.52938,
            "velocity": 0.7874015748031497
          },
          {
            "duration": 0.17647050000000064,
            "durationTicks": 30,
            "midi": 73,
            "name": "C#5",
            "ticks": 10800,
            "time": 63.52938,
            "velocity": 0.7874015748031497
          },
          {
            "duration": 0.17647049999999354,
            "durationTicks": 30,
            "midi": 62,
            "name": "D4",
            "ticks": 10830,
            "time": 63.705850500000004,
            "velocity": 0.7874015748031497
          },
          {
            "duration": 0.17647049999999354,
            "durationTicks": 30,
            "midi": 74,
            "name": "D5",
            "ticks": 10830,
            "time": 63.705850500000004,
            "velocity": 0.7874015748031497
          },
          {
            "duration": 0.17647050000000064,
            "durationTicks": 30,
            "midi": 64,
            "name": "E4",
            "ticks": 10860,
            "time": 63.882321,
            "velocity": 0.7874015748031497
          },
          {
            "duration": 0.17647050000000064,
            "durationTicks": 30,
            "midi": 76,
            "name": "E5",
            "ticks": 10860,
            "time": 63.882321,
            "velocity": 0.7874015748031497
          },
          {
            "duration": 0.17647050000000775,
            "durationTicks": 30,
            "midi": 69,
            "name": "A4",
            "ticks": 10890,
            "time": 64.0587915,
            "velocity": 0.7874015748031497
          },
          {
            "duration": 0.17647050000000775,
            "durationTicks": 30,
            "midi": 81,
            "name": "A5",
            "ticks": 10890,
            "time": 64.0587915,
            "velocity": 0.7874015748031497
          },
          {
            "duration": 0.17647050000000775,
            "durationTicks": 30,
            "midi": 66,
            "name": "F#4",
            "ticks": 10950,
            "time": 64.4117325,
            "velocity": 0.7874015748031497
          },
          {
            "duration": 0.17647050000000775,
            "durationTicks": 30,
            "midi": 78,
            "name": "F#5",
            "ticks": 10950,
            "time": 64.4117325,
            "velocity": 0.7874015748031497
          },
          {
            "duration": 0.17647049999999354,
            "durationTicks": 30,
            "midi": 61,
            "name": "C#4",
            "ticks": 11010,
            "time": 64.7646735,
            "velocity": 0.7874015748031497
          },
          {
            "duration": 0.17647049999999354,
            "durationTicks": 30,
            "midi": 73,
            "name": "C#5",
            "ticks": 11010,
            "time": 64.7646735,
            "velocity": 0.7874015748031497
          },
          {
            "duration": 0.17647049999999354,
            "durationTicks": 30,
            "midi": 64,
            "name": "E4",
            "ticks": 11070,
            "time": 65.1176145,
            "velocity": 0.7874015748031497
          },
          {
            "duration": 0.17647049999999354,
            "durationTicks": 30,
            "midi": 76,
            "name": "E5",
            "ticks": 11070,
            "time": 65.1176145,
            "velocity": 0.7874015748031497
          },
          {
            "duration": 0.17647050000000775,
            "durationTicks": 30,
            "midi": 62,
            "name": "D4",
            "ticks": 11100,
            "time": 65.294085,
            "velocity": 0.7874015748031497
          },
          {
            "duration": 0.17058815000000038,
            "durationTicks": 29,
            "midi": 74,
            "name": "D5",
            "ticks": 11100,
            "time": 65.294085,
            "velocity": 0.7874015748031497
          },
          {
            "duration": 0.17647050000000775,
            "durationTicks": 30,
            "midi": 50,
            "name": "D3",
            "ticks": 11370,
            "time": 66.8823195,
            "velocity": 0.7874015748031497
          },
          {
            "duration": 0.17647050000000775,
            "durationTicks": 30,
            "midi": 62,
            "name": "D4",
            "ticks": 11370,
            "time": 66.8823195,
            "velocity": 0.7874015748031497
          },
          {
            "duration": 0.17647049999999354,
            "durationTicks": 30,
            "midi": 54,
            "name": "F#3",
            "ticks": 11400,
            "time": 67.05879,
            "velocity": 0.7874015748031497
          },
          {
            "duration": 0.17647049999999354,
            "durationTicks": 30,
            "midi": 66,
            "name": "F#4",
            "ticks": 11400,
            "time": 67.05879,
            "velocity": 0.7874015748031497
          },
          {
            "duration": 0.17647050000000775,
            "durationTicks": 30,
            "midi": 57,
            "name": "A3",
            "ticks": 11430,
            "time": 67.2352605,
            "velocity": 0.7874015748031497
          },
          {
            "duration": 0.17647050000000775,
            "durationTicks": 30,
            "midi": 69,
            "name": "A4",
            "ticks": 11430,
            "time": 67.2352605,
            "velocity": 0.7874015748031497
          },
          {
            "duration": 0.17647049999999354,
            "durationTicks": 30,
            "midi": 54,
            "name": "F#3",
            "ticks": 11460,
            "time": 67.411731,
            "velocity": 0.7874015748031497
          },
          {
            "duration": 0.17647049999999354,
            "durationTicks": 30,
            "midi": 66,
            "name": "F#4",
            "ticks": 11460,
            "time": 67.411731,
            "velocity": 0.7874015748031497
          },
          {
            "duration": 0.8823525000000103,
            "durationTicks": 150,
            "midi": 59,
            "name": "B3",
            "ticks": 11490,
            "time": 67.5882015,
            "velocity": 0.7874015748031497
          },
          {
            "duration": 0.8823525000000103,
            "durationTicks": 150,
            "midi": 63,
            "name": "D#4",
            "ticks": 11490,
            "time": 67.5882015,
            "velocity": 0.7874015748031497
          },
          {
            "duration": 0.8823525000000103,
            "durationTicks": 150,
            "midi": 66,
            "name": "F#4",
            "ticks": 11490,
            "time": 67.5882015,
            "velocity": 0.7874015748031497
          },
          {
            "duration": 0.8823525000000103,
            "durationTicks": 150,
            "midi": 68,
            "name": "G#4",
            "ticks": 11490,
            "time": 67.5882015,
            "velocity": 0.7874015748031497
          },
          {
            "duration": 0.8823525000000103,
            "durationTicks": 150,
            "midi": 71,
            "name": "B4",
            "ticks": 11490,
            "time": 67.5882015,
            "velocity": 0.7874015748031497
          },
          {
            "duration": 0.17647049999999354,
            "durationTicks": 30,
            "midi": 63,
            "name": "D#4",
            "ticks": 11640,
            "time": 68.470554,
            "velocity": 0.7874015748031497
          },
          {
            "duration": 0.17647049999999354,
            "durationTicks": 30,
            "midi": 75,
            "name": "D#5",
            "ticks": 11640,
            "time": 68.470554,
            "velocity": 0.7874015748031497
          },
          {
            "duration": 0.17647049999999354,
            "durationTicks": 30,
            "midi": 71,
            "name": "B4",
            "ticks": 11640,
            "time": 68.470554,
            "velocity": 0.7874015748031497
          },
          {
            "duration": 0.17647049999999354,
            "durationTicks": 30,
            "midi": 66,
            "name": "F#4",
            "ticks": 11670,
            "time": 68.6470245,
            "velocity": 0.7874015748031497
          },
          {
            "duration": 0.17647049999999354,
            "durationTicks": 30,
            "midi": 78,
            "name": "F#5",
            "ticks": 11670,
            "time": 68.6470245,
            "velocity": 0.7874015748031497
          },
          {
            "duration": 0.17647049999999354,
            "durationTicks": 30,
            "midi": 75,
            "name": "D#5",
            "ticks": 11670,
            "time": 68.6470245,
            "velocity": 0.7874015748031497
          },
          {
            "duration": 0.17647050000000775,
            "durationTicks": 30,
            "midi": 63,
            "name": "D#4",
            "ticks": 11700,
            "time": 68.823495,
            "velocity": 0.7874015748031497
          },
          {
            "duration": 0.17647050000000775,
            "durationTicks": 30,
            "midi": 71,
            "name": "B4",
            "ticks": 11700,
            "time": 68.823495,
            "velocity": 0.7874015748031497
          },
          {
            "duration": 0.17647050000000775,
            "durationTicks": 30,
            "midi": 75,
            "name": "D#5",
            "ticks": 11700,
            "time": 68.823495,
            "velocity": 0.7874015748031497
          },
          {
            "duration": 0.8823524999999961,
            "durationTicks": 150,
            "midi": 59,
            "name": "B3",
            "ticks": 11730,
            "time": 68.9999655,
            "velocity": 0.7874015748031497
          },
          {
            "duration": 0.8823524999999961,
            "durationTicks": 150,
            "midi": 70,
            "name": "A#4",
            "ticks": 11730,
            "time": 68.9999655,
            "velocity": 0.7874015748031497
          },
          {
            "duration": 0.8823524999999961,
            "durationTicks": 150,
            "midi": 66,
            "name": "F#4",
            "ticks": 11730,
            "time": 68.9999655,
            "velocity": 0.7874015748031497
          },
          {
            "duration": 0.8823524999999961,
            "durationTicks": 150,
            "midi": 63,
            "name": "D#4",
            "ticks": 11730,
            "time": 68.9999655,
            "velocity": 0.7874015748031497
          },
          {
            "duration": 0.8823524999999961,
            "durationTicks": 150,
            "midi": 82,
            "name": "A#5",
            "ticks": 11730,
            "time": 68.9999655,
            "velocity": 0.7874015748031497
          },
          {
            "duration": 0.8823524999999961,
            "durationTicks": 150,
            "midi": 78,
            "name": "F#5",
            "ticks": 11730,
            "time": 68.9999655,
            "velocity": 0.7874015748031497
          },
          {
            "duration": 0.8823524999999961,
            "durationTicks": 150,
            "midi": 75,
            "name": "D#5",
            "ticks": 11730,
            "time": 68.9999655,
            "velocity": 0.7874015748031497
          },
          {
            "duration": 0.8823524999999961,
            "durationTicks": 150,
            "midi": 71,
            "name": "B4",
            "ticks": 11730,
            "time": 68.9999655,
            "velocity": 0.7874015748031497
          },
          {
            "duration": 0.17647050000002196,
            "durationTicks": 30,
            "midi": 54,
            "name": "F#3",
            "ticks": 31440,
            "time": 184.941084,
            "velocity": 0.7874015748031497
          },
          {
            "duration": 0.17647050000002196,
            "durationTicks": 30,
            "midi": 66,
            "name": "F#4",
            "ticks": 31440,
            "time": 184.941084,
            "velocity": 0.7874015748031497
          },
          {
            "duration": 0.17647049999999354,
            "durationTicks": 30,
            "midi": 50,
            "name": "D3",
            "ticks": 31470,
            "time": 185.1175545,
            "velocity": 0.7874015748031497
          },
          {
            "duration": 0.17647049999999354,
            "durationTicks": 30,
            "midi": 62,
            "name": "D4",
            "ticks": 31470,
            "time": 185.1175545,
            "velocity": 0.7874015748031497
          },
          {
            "duration": 0.17647049999999354,
            "durationTicks": 30,
            "midi": 52,
            "name": "E3",
            "ticks": 31500,
            "time": 185.294025,
            "velocity": 0.7874015748031497
          },
          {
            "duration": 0.17647049999999354,
            "durationTicks": 30,
            "midi": 64,
            "name": "E4",
            "ticks": 31500,
            "time": 185.294025,
            "velocity": 0.7874015748031497
          },
          {
            "duration": 0.17647049999999354,
            "durationTicks": 30,
            "midi": 54,
            "name": "F#3",
            "ticks": 31530,
            "time": 185.4704955,
            "velocity": 0.7874015748031497
          },
          {
            "duration": 0.17647049999999354,
            "durationTicks": 30,
            "midi": 66,
            "name": "F#4",
            "ticks": 31530,
            "time": 185.4704955,
            "velocity": 0.7874015748031497
          },
          {
            "duration": 0.17647049999999354,
            "durationTicks": 30,
            "midi": 61,
            "name": "C#4",
            "ticks": 31590,
            "time": 185.8234365,
            "velocity": 0.7874015748031497
          },
          {
            "duration": 0.17647049999999354,
            "durationTicks": 30,
            "midi": 73,
            "name": "C#5",
            "ticks": 31590,
            "time": 185.8234365,
            "velocity": 0.7874015748031497
          },
          {
            "duration": 0.22941165000000296,
            "durationTicks": 39,
            "midi": 59,
            "name": "B3",
            "ticks": 31650,
            "time": 186.1763775,
            "velocity": 0.7874015748031497
          },
          {
            "duration": 0.22941165000000296,
            "durationTicks": 39,
            "midi": 65,
            "name": "F4",
            "ticks": 31650,
            "time": 186.1763775,
            "velocity": 0.7874015748031497
          },
          {
            "duration": 0.22941165000000296,
            "durationTicks": 39,
            "midi": 68,
            "name": "G#4",
            "ticks": 31650,
            "time": 186.1763775,
            "velocity": 0.7874015748031497
          },
          {
            "duration": 0.22941165000000296,
            "durationTicks": 39,
            "midi": 71,
            "name": "B4",
            "ticks": 31650,
            "time": 186.1763775,
            "velocity": 0.7874015748031497
          },
          {
            "duration": 0.17647049999999354,
            "durationTicks": 30,
            "midi": 56,
            "name": "G#3",
            "ticks": 31920,
            "time": 187.764612,
            "velocity": 0.7874015748031497
          },
          {
            "duration": 0.17647049999999354,
            "durationTicks": 30,
            "midi": 68,
            "name": "G#4",
            "ticks": 31920,
            "time": 187.764612,
            "velocity": 0.7874015748031497
          },
          {
            "duration": 0.17647050000002196,
            "durationTicks": 30,
            "midi": 56,
            "name": "G#3",
            "ticks": 31950,
            "time": 187.9410825,
            "velocity": 0.7874015748031497
          },
          {
            "duration": 0.17647050000002196,
            "durationTicks": 30,
            "midi": 68,
            "name": "G#4",
            "ticks": 31950,
            "time": 187.9410825,
            "velocity": 0.7874015748031497
          },
          {
            "duration": 0.17647049999999354,
            "durationTicks": 30,
            "midi": 57,
            "name": "A3",
            "ticks": 32010,
            "time": 188.2940235,
            "velocity": 0.7874015748031497
          },
          {
            "duration": 0.17647049999999354,
            "durationTicks": 30,
            "midi": 66,
            "name": "F#4",
            "ticks": 32010,
            "time": 188.2940235,
            "velocity": 0.7874015748031497
          },
          {
            "duration": 0.17647049999999354,
            "durationTicks": 30,
            "midi": 69,
            "name": "A4",
            "ticks": 32010,
            "time": 188.2940235,
            "velocity": 0.7874015748031497
          },
          {
            "duration": 0.17647049999999354,
            "durationTicks": 30,
            "midi": 59,
            "name": "B3",
            "ticks": 32070,
            "time": 188.6469645,
            "velocity": 0.7874015748031497
          },
          {
            "duration": 0.17647049999999354,
            "durationTicks": 30,
            "midi": 71,
            "name": "B4",
            "ticks": 32070,
            "time": 188.6469645,
            "velocity": 0.7874015748031497
          },
          {
            "duration": 0.17647049999999354,
            "durationTicks": 30,
            "midi": 65,
            "name": "F4",
            "ticks": 32070,
            "time": 188.6469645,
            "velocity": 0.7874015748031497
          },
          {
            "duration": 1.5882344999999987,
            "durationTicks": 270,
            "midi": 54,
            "name": "F#3",
            "ticks": 32130,
            "time": 188.9999055,
            "velocity": 0.7874015748031497
          },
          {
            "duration": 1.5882344999999987,
            "durationTicks": 270,
            "midi": 60,
            "name": "C4",
            "ticks": 32130,
            "time": 188.9999055,
            "velocity": 0.7874015748031497
          },
          {
            "duration": 1.5882344999999987,
            "durationTicks": 270,
            "midi": 72,
            "name": "C5",
            "ticks": 32130,
            "time": 188.9999055,
            "velocity": 0.7874015748031497
          },
          {
            "duration": 1.5882344999999987,
            "durationTicks": 270,
            "midi": 69,
            "name": "A4",
            "ticks": 32130,
            "time": 188.9999055,
            "velocity": 0.7874015748031497
          },
          {
            "duration": 1.5882344999999987,
            "durationTicks": 270,
            "midi": 64,
            "name": "E4",
            "ticks": 32130,
            "time": 188.9999055,
            "velocity": 0.7874015748031497
          },
          {
            "duration": 0.05294115000003785,
            "durationTicks": 9,
            "midi": 57,
            "name": "A3",
            "ticks": 32500,
            "time": 191.17637499999998,
            "velocity": 0.7874015748031497
          },
          {
            "duration": 0.05294114999998101,
            "durationTicks": 9,
            "midi": 69,
            "name": "A4",
            "ticks": 32505,
            "time": 191.20578675000002,
            "velocity": 0.7874015748031497
          },
          {
            "duration": 0.05294114999998101,
            "durationTicks": 9,
            "midi": 58,
            "name": "A#3",
            "ticks": 32510,
            "time": 191.23519850000002,
            "velocity": 0.7874015748031497
          },
          {
            "duration": 0.05294115000003785,
            "durationTicks": 9,
            "midi": 70,
            "name": "A#4",
            "ticks": 32515,
            "time": 191.26461024999998,
            "velocity": 0.7874015748031497
          },
          {
            "duration": 0.17647049999999354,
            "durationTicks": 30,
            "midi": 59,
            "name": "B3",
            "ticks": 32520,
            "time": 191.294022,
            "velocity": 0.7874015748031497
          },
          {
            "duration": 0.17647049999999354,
            "durationTicks": 30,
            "midi": 71,
            "name": "B4",
            "ticks": 32520,
            "time": 191.294022,
            "velocity": 0.7874015748031497
          },
          {
            "duration": 0.17647049999999354,
            "durationTicks": 30,
            "midi": 57,
            "name": "A3",
            "ticks": 32550,
            "time": 191.4704925,
            "velocity": 0.7874015748031497
          },
          {
            "duration": 0.17647049999999354,
            "durationTicks": 30,
            "midi": 69,
            "name": "A4",
            "ticks": 32550,
            "time": 191.4704925,
            "velocity": 0.7874015748031497
          },
          {
            "duration": 0.17647050000002196,
            "durationTicks": 30,
            "midi": 57,
            "name": "A3",
            "ticks": 32610,
            "time": 191.8234335,
            "velocity": 0.7874015748031497
          },
          {
            "duration": 0.17647050000002196,
            "durationTicks": 30,
            "midi": 69,
            "name": "A4",
            "ticks": 32610,
            "time": 191.8234335,
            "velocity": 0.7874015748031497
          },
          {
            "duration": 0.17647049999999354,
            "durationTicks": 30,
            "midi": 55,
            "name": "G3",
            "ticks": 32670,
            "time": 192.1763745,
            "velocity": 0.7874015748031497
          },
          {
            "duration": 0.17647049999999354,
            "durationTicks": 30,
            "midi": 67,
            "name": "G4",
            "ticks": 32670,
            "time": 192.1763745,
            "velocity": 0.7874015748031497
          },
          {
            "duration": 0.17647049999999354,
            "durationTicks": 30,
            "midi": 54,
            "name": "F#3",
            "ticks": 32730,
            "time": 192.5293155,
            "velocity": 0.7874015748031497
          },
          {
            "duration": 0.17647049999999354,
            "durationTicks": 30,
            "midi": 66,
            "name": "F#4",
            "ticks": 32730,
            "time": 192.5293155,
            "velocity": 0.7874015748031497
          },
          {
            "duration": 0.17647049999999354,
            "durationTicks": 30,
            "midi": 59,
            "name": "B3",
            "ticks": 32790,
            "time": 192.8822565,
            "velocity": 0.7874015748031497
          },
          {
            "duration": 0.17647049999999354,
            "durationTicks": 30,
            "midi": 71,
            "name": "B4",
            "ticks": 32790,
            "time": 192.8822565,
            "velocity": 0.7874015748031497
          },
          {
            "duration": 0.17647049999999354,
            "durationTicks": 30,
            "midi": 57,
            "name": "A3",
            "ticks": 32820,
            "time": 193.058727,
            "velocity": 0.7874015748031497
          },
          {
            "duration": 0.17647049999999354,
            "durationTicks": 30,
            "midi": 69,
            "name": "A4",
            "ticks": 32820,
            "time": 193.058727,
            "velocity": 0.7874015748031497
          },
          {
            "duration": 0.6999996500000236,
            "durationTicks": 119,
            "midi": 74,
            "name": "D5",
            "ticks": 33000,
            "time": 194.11755,
            "velocity": 0.7874015748031497
          },
          {
            "duration": 0.6999996500000236,
            "durationTicks": 119,
            "midi": 69,
            "name": "A4",
            "ticks": 33000,
            "time": 194.11755,
            "velocity": 0.7874015748031497
          },
          {
            "duration": 0.6999996500000236,
            "durationTicks": 119,
            "midi": 66,
            "name": "F#4",
            "ticks": 33000,
            "time": 194.11755,
            "velocity": 0.7874015748031497
          },
          {
            "duration": 1.0529406500000107,
            "durationTicks": 179,
            "midi": 71,
            "name": "B4",
            "ticks": 33120,
            "time": 194.823432,
            "velocity": 0.7874015748031497
          },
          {
            "duration": 1.0529406500000107,
            "durationTicks": 179,
            "midi": 67,
            "name": "G4",
            "ticks": 33120,
            "time": 194.823432,
            "velocity": 0.7874015748031497
          },
          {
            "duration": 1.0529406500000107,
            "durationTicks": 179,
            "midi": 62,
            "name": "D4",
            "ticks": 33120,
            "time": 194.823432,
            "velocity": 0.7874015748031497
          },
          {
            "duration": 0.17647049999999354,
            "durationTicks": 30,
            "midi": 55,
            "name": "G3",
            "ticks": 33360,
            "time": 196.235196,
            "velocity": 0.7874015748031497
          },
          {
            "duration": 0.17647049999999354,
            "durationTicks": 30,
            "midi": 67,
            "name": "G4",
            "ticks": 33360,
            "time": 196.235196,
            "velocity": 0.7874015748031497
          },
          {
            "duration": 0.17647049999999354,
            "durationTicks": 30,
            "midi": 52,
            "name": "E3",
            "ticks": 33390,
            "time": 196.4116665,
            "velocity": 0.7874015748031497
          },
          {
            "duration": 0.17647049999999354,
            "durationTicks": 30,
            "midi": 64,
            "name": "E4",
            "ticks": 33390,
            "time": 196.4116665,
            "velocity": 0.7874015748031497
          },
          {
            "duration": 0.17647050000002196,
            "durationTicks": 30,
            "midi": 54,
            "name": "F#3",
            "ticks": 33420,
            "time": 196.588137,
            "velocity": 0.7874015748031497
          },
          {
            "duration": 0.17647050000002196,
            "durationTicks": 30,
            "midi": 66,
            "name": "F#4",
            "ticks": 33420,
            "time": 196.588137,
            "velocity": 0.7874015748031497
          },
          {
            "duration": 0.17647049999999354,
            "durationTicks": 30,
            "midi": 55,
            "name": "G3",
            "ticks": 33450,
            "time": 196.7646075,
            "velocity": 0.7874015748031497
          },
          {
            "duration": 0.17647049999999354,
            "durationTicks": 30,
            "midi": 67,
            "name": "G4",
            "ticks": 33450,
            "time": 196.7646075,
            "velocity": 0.7874015748031497
          },
          {
            "duration": 0.17647049999999354,
            "durationTicks": 30,
            "midi": 64,
            "name": "E4",
            "ticks": 33510,
            "time": 197.1175485,
            "velocity": 0.7874015748031497
          },
          {
            "duration": 0.17647049999999354,
            "durationTicks": 30,
            "midi": 76,
            "name": "E5",
            "ticks": 33510,
            "time": 197.1175485,
            "velocity": 0.7874015748031497
          },
          {
            "duration": 0.22941164999997454,
            "durationTicks": 39,
            "midi": 62,
            "name": "D4",
            "ticks": 33570,
            "time": 197.4704895,
            "velocity": 0.7874015748031497
          },
          {
            "duration": 0.22941164999997454,
            "durationTicks": 39,
            "midi": 66,
            "name": "F#4",
            "ticks": 33570,
            "time": 197.4704895,
            "velocity": 0.7874015748031497
          },
          {
            "duration": 0.22941164999997454,
            "durationTicks": 39,
            "midi": 71,
            "name": "B4",
            "ticks": 33570,
            "time": 197.4704895,
            "velocity": 0.7874015748031497
          },
          {
            "duration": 0.22941164999997454,
            "durationTicks": 39,
            "midi": 74,
            "name": "D5",
            "ticks": 33570,
            "time": 197.4704895,
            "velocity": 0.7874015748031497
          },
          {
            "duration": 0.17647049999999354,
            "durationTicks": 30,
            "midi": 59,
            "name": "B3",
            "ticks": 33840,
            "time": 199.058724,
            "velocity": 0.7874015748031497
          },
          {
            "duration": 0.17647049999999354,
            "durationTicks": 30,
            "midi": 71,
            "name": "B4",
            "ticks": 33840,
            "time": 199.058724,
            "velocity": 0.7874015748031497
          },
          {
            "duration": 0.17647049999999354,
            "durationTicks": 30,
            "midi": 60,
            "name": "C4",
            "ticks": 33870,
            "time": 199.2351945,
            "velocity": 0.7874015748031497
          },
          {
            "duration": 0.17647049999999354,
            "durationTicks": 30,
            "midi": 72,
            "name": "C5",
            "ticks": 33870,
            "time": 199.2351945,
            "velocity": 0.7874015748031497
          },
          {
            "duration": 0.17647049999999354,
            "durationTicks": 30,
            "midi": 62,
            "name": "D4",
            "ticks": 33900,
            "time": 199.411665,
            "velocity": 0.7874015748031497
          },
          {
            "duration": 0.17647049999999354,
            "durationTicks": 30,
            "midi": 74,
            "name": "D5",
            "ticks": 33900,
            "time": 199.411665,
            "velocity": 0.7874015748031497
          },
          {
            "duration": 0.3529410000000155,
            "durationTicks": 60,
            "midi": 52,
            "name": "E3",
            "ticks": 33930,
            "time": 199.5881355,
            "velocity": 0.7874015748031497
          },
          {
            "duration": 0.3529410000000155,
            "durationTicks": 60,
            "midi": 64,
            "name": "E4",
            "ticks": 33930,
            "time": 199.5881355,
            "velocity": 0.7874015748031497
          },
          {
            "duration": 0.17647049999999354,
            "durationTicks": 30,
            "midi": 56,
            "name": "G#3",
            "ticks": 33990,
            "time": 199.9410765,
            "velocity": 0.7874015748031497
          },
          {
            "duration": 0.17647049999999354,
            "durationTicks": 30,
            "midi": 68,
            "name": "G#4",
            "ticks": 33990,
            "time": 199.9410765,
            "velocity": 0.7874015748031497
          },
          {
            "duration": 0.17647049999999354,
            "durationTicks": 30,
            "midi": 59,
            "name": "B3",
            "ticks": 34020,
            "time": 200.117547,
            "velocity": 0.7874015748031497
          },
          {
            "duration": 0.17647049999999354,
            "durationTicks": 30,
            "midi": 71,
            "name": "B4",
            "ticks": 34020,
            "time": 200.117547,
            "velocity": 0.7874015748031497
          },
          {
            "duration": 0.17647049999999354,
            "durationTicks": 30,
            "midi": 60,
            "name": "C4",
            "ticks": 34050,
            "time": 200.2940175,
            "velocity": 0.7874015748031497
          },
          {
            "duration": 0.17647049999999354,
            "durationTicks": 30,
            "midi": 72,
            "name": "C5",
            "ticks": 34050,
            "time": 200.2940175,
            "velocity": 0.7874015748031497
          },
          {
            "duration": 0.17647049999999354,
            "durationTicks": 30,
            "midi": 52,
            "name": "E3",
            "ticks": 34110,
            "time": 200.6469585,
            "velocity": 0.7874015748031497
          },
          {
            "duration": 0.17647049999999354,
            "durationTicks": 30,
            "midi": 64,
            "name": "E4",
            "ticks": 34110,
            "time": 200.6469585,
            "velocity": 0.7874015748031497
          },
          {
            "duration": 0.17647049999999354,
            "durationTicks": 30,
            "midi": 55,
            "name": "G3",
            "ticks": 34140,
            "time": 200.823429,
            "velocity": 0.7874015748031497
          },
          {
            "duration": 0.17647049999999354,
            "durationTicks": 30,
            "midi": 67,
            "name": "G4",
            "ticks": 34140,
            "time": 200.823429,
            "velocity": 0.7874015748031497
          },
          {
            "duration": 0.17647049999999354,
            "durationTicks": 30,
            "midi": 52,
            "name": "E3",
            "ticks": 34440,
            "time": 202.588134,
            "velocity": 0.7874015748031497
          },
          {
            "duration": 0.17647049999999354,
            "durationTicks": 30,
            "midi": 64,
            "name": "E4",
            "ticks": 34440,
            "time": 202.588134,
            "velocity": 0.7874015748031497
          },
          {
            "duration": 0.17647050000002196,
            "durationTicks": 30,
            "midi": 55,
            "name": "G3",
            "ticks": 34470,
            "time": 202.7646045,
            "velocity": 0.7874015748031497
          },
          {
            "duration": 0.17647050000002196,
            "durationTicks": 30,
            "midi": 67,
            "name": "G4",
            "ticks": 34470,
            "time": 202.7646045,
            "velocity": 0.7874015748031497
          },
          {
            "duration": 0.17647049999999354,
            "durationTicks": 30,
            "midi": 52,
            "name": "E3",
            "ticks": 34500,
            "time": 202.941075,
            "velocity": 0.7874015748031497
          },
          {
            "duration": 0.17647049999999354,
            "durationTicks": 30,
            "midi": 64,
            "name": "E4",
            "ticks": 34500,
            "time": 202.941075,
            "velocity": 0.7874015748031497
          },
          {
            "duration": 0.8823524999999961,
            "durationTicks": 150,
            "midi": 57,
            "name": "A3",
            "ticks": 34530,
            "time": 203.1175455,
            "velocity": 0.7874015748031497
          },
          {
            "duration": 0.8823524999999961,
            "durationTicks": 150,
            "midi": 61,
            "name": "C#4",
            "ticks": 34530,
            "time": 203.1175455,
            "velocity": 0.7874015748031497
          },
          {
            "duration": 0.8823524999999961,
            "durationTicks": 150,
            "midi": 64,
            "name": "E4",
            "ticks": 34530,
            "time": 203.1175455,
            "velocity": 0.7874015748031497
          },
          {
            "duration": 0.8823524999999961,
            "durationTicks": 150,
            "midi": 66,
            "name": "F#4",
            "ticks": 34530,
            "time": 203.1175455,
            "velocity": 0.7874015748031497
          },
          {
            "duration": 0.8823524999999961,
            "durationTicks": 150,
            "midi": 69,
            "name": "A4",
            "ticks": 34530,
            "time": 203.1175455,
            "velocity": 0.7874015748031497
          },
          {
            "duration": 0.17647049999999354,
            "durationTicks": 30,
            "midi": 61,
            "name": "C#4",
            "ticks": 34680,
            "time": 203.999898,
            "velocity": 0.7874015748031497
          },
          {
            "duration": 0.17647049999999354,
            "durationTicks": 30,
            "midi": 69,
            "name": "A4",
            "ticks": 34680,
            "time": 203.999898,
            "velocity": 0.7874015748031497
          },
          {
            "duration": 0.17647049999999354,
            "durationTicks": 30,
            "midi": 73,
            "name": "C#5",
            "ticks": 34680,
            "time": 203.999898,
            "velocity": 0.7874015748031497
          },
          {
            "duration": 0.17647049999999354,
            "durationTicks": 30,
            "midi": 64,
            "name": "E4",
            "ticks": 34710,
            "time": 204.1763685,
            "velocity": 0.7874015748031497
          },
          {
            "duration": 0.17647049999999354,
            "durationTicks": 30,
            "midi": 73,
            "name": "C#5",
            "ticks": 34710,
            "time": 204.1763685,
            "velocity": 0.7874015748031497
          },
          {
            "duration": 0.17647049999999354,
            "durationTicks": 30,
            "midi": 76,
            "name": "E5",
            "ticks": 34710,
            "time": 204.1763685,
            "velocity": 0.7874015748031497
          },
          {
            "duration": 0.17647050000002196,
            "durationTicks": 30,
            "midi": 61,
            "name": "C#4",
            "ticks": 34740,
            "time": 204.352839,
            "velocity": 0.7874015748031497
          },
          {
            "duration": 0.17647050000002196,
            "durationTicks": 30,
            "midi": 69,
            "name": "A4",
            "ticks": 34740,
            "time": 204.352839,
            "velocity": 0.7874015748031497
          },
          {
            "duration": 0.17647050000002196,
            "durationTicks": 30,
            "midi": 73,
            "name": "C#5",
            "ticks": 34740,
            "time": 204.352839,
            "velocity": 0.7874015748031497
          },
          {
            "duration": 0.8823524999999961,
            "durationTicks": 150,
            "midi": 68,
            "name": "G#4",
            "ticks": 34770,
            "time": 204.5293095,
            "velocity": 0.7874015748031497
          },
          {
            "duration": 0.8823524999999961,
            "durationTicks": 150,
            "midi": 64,
            "name": "E4",
            "ticks": 34770,
            "time": 204.5293095,
            "velocity": 0.7874015748031497
          },
          {
            "duration": 0.8823524999999961,
            "durationTicks": 150,
            "midi": 61,
            "name": "C#4",
            "ticks": 34770,
            "time": 204.5293095,
            "velocity": 0.7874015748031497
          },
          {
            "duration": 0.8823524999999961,
            "durationTicks": 150,
            "midi": 57,
            "name": "A3",
            "ticks": 34770,
            "time": 204.5293095,
            "velocity": 0.7874015748031497
          },
          {
            "duration": 0.8823524999999961,
            "durationTicks": 150,
            "midi": 80,
            "name": "G#5",
            "ticks": 34770,
            "time": 204.5293095,
            "velocity": 0.7874015748031497
          },
          {
            "duration": 0.8823524999999961,
            "durationTicks": 150,
            "midi": 76,
            "name": "E5",
            "ticks": 34770,
            "time": 204.5293095,
            "velocity": 0.7874015748031497
          },
          {
            "duration": 0.8823524999999961,
            "durationTicks": 150,
            "midi": 73,
            "name": "C#5",
            "ticks": 34770,
            "time": 204.5293095,
            "velocity": 0.7874015748031497
          },
          {
            "duration": 0.8823524999999961,
            "durationTicks": 150,
            "midi": 69,
            "name": "A4",
            "ticks": 34770,
            "time": 204.5293095,
            "velocity": 0.7874015748031497
          },
          {
            "duration": 0.5235291500000017,
            "durationTicks": 89,
            "midi": 71,
            "name": "B4",
            "ticks": 34950,
            "time": 205.5881325,
            "velocity": 0.7874015748031497
          },
          {
            "duration": 0.5235291500000017,
            "durationTicks": 89,
            "midi": 83,
            "name": "B5",
            "ticks": 34950,
            "time": 205.5881325,
            "velocity": 0.7874015748031497
          },
          {
            "duration": 0.6999996499999952,
            "durationTicks": 119,
            "midi": 80,
            "name": "G#5",
            "ticks": 35040,
            "time": 206.117544,
            "velocity": 0.7874015748031497
          },
          {
            "duration": 0.6999996499999952,
            "durationTicks": 119,
            "midi": 75,
            "name": "D#5",
            "ticks": 35040,
            "time": 206.117544,
            "velocity": 0.7874015748031497
          },
          {
            "duration": 0.6999996499999952,
            "durationTicks": 119,
            "midi": 71,
            "name": "B4",
            "ticks": 35040,
            "time": 206.117544,
            "velocity": 0.7874015748031497
          },
          {
            "duration": 0.17647049999999354,
            "durationTicks": 30,
            "midi": 56,
            "name": "G#3",
            "ticks": 35280,
            "time": 207.52930800000001,
            "velocity": 0.7874015748031497
          },
          {
            "duration": 0.17647049999999354,
            "durationTicks": 30,
            "midi": 68,
            "name": "G#4",
            "ticks": 35280,
            "time": 207.52930800000001,
            "velocity": 0.7874015748031497
          },
          {
            "duration": 0.17647049999999354,
            "durationTicks": 30,
            "midi": 52,
            "name": "E3",
            "ticks": 35310,
            "time": 207.7057785,
            "velocity": 0.7874015748031497
          },
          {
            "duration": 0.17647049999999354,
            "durationTicks": 30,
            "midi": 64,
            "name": "E4",
            "ticks": 35310,
            "time": 207.7057785,
            "velocity": 0.7874015748031497
          },
          {
            "duration": 0.17647049999999354,
            "durationTicks": 30,
            "midi": 54,
            "name": "F#3",
            "ticks": 35340,
            "time": 207.882249,
            "velocity": 0.7874015748031497
          },
          {
            "duration": 0.17647049999999354,
            "durationTicks": 30,
            "midi": 66,
            "name": "F#4",
            "ticks": 35340,
            "time": 207.882249,
            "velocity": 0.7874015748031497
          },
          {
            "duration": 0.17647049999999354,
            "durationTicks": 30,
            "midi": 56,
            "name": "G#3",
            "ticks": 35370,
            "time": 208.0587195,
            "velocity": 0.7874015748031497
          },
          {
            "duration": 0.17647049999999354,
            "durationTicks": 30,
            "midi": 68,
            "name": "G#4",
            "ticks": 35370,
            "time": 208.0587195,
            "velocity": 0.7874015748031497
          },
          {
            "duration": 0.17647049999999354,
            "durationTicks": 30,
            "midi": 63,
            "name": "D#4",
            "ticks": 35430,
            "time": 208.4116605,
            "velocity": 0.7874015748031497
          },
          {
            "duration": 0.17647049999999354,
            "durationTicks": 30,
            "midi": 75,
            "name": "D#5",
            "ticks": 35430,
            "time": 208.4116605,
            "velocity": 0.7874015748031497
          },
          {
            "duration": 0.22941165000000296,
            "durationTicks": 39,
            "midi": 61,
            "name": "C#4",
            "ticks": 35490,
            "time": 208.7646015,
            "velocity": 0.7874015748031497
          },
          {
            "duration": 0.22941165000000296,
            "durationTicks": 39,
            "midi": 67,
            "name": "G4",
            "ticks": 35490,
            "time": 208.7646015,
            "velocity": 0.7874015748031497
          },
          {
            "duration": 0.22941165000000296,
            "durationTicks": 39,
            "midi": 70,
            "name": "A#4",
            "ticks": 35490,
            "time": 208.7646015,
            "velocity": 0.7874015748031497
          },
          {
            "duration": 0.22941165000000296,
            "durationTicks": 39,
            "midi": 73,
            "name": "C#5",
            "ticks": 35490,
            "time": 208.7646015,
            "velocity": 0.7874015748031497
          },
          {
            "duration": 0.17647049999999354,
            "durationTicks": 30,
            "midi": 58,
            "name": "A#3",
            "ticks": 35760,
            "time": 210.352836,
            "velocity": 0.7874015748031497
          },
          {
            "duration": 0.17647049999999354,
            "durationTicks": 30,
            "midi": 70,
            "name": "A#4",
            "ticks": 35760,
            "time": 210.352836,
            "velocity": 0.7874015748031497
          },
          {
            "duration": 0.17647050000002196,
            "durationTicks": 30,
            "midi": 58,
            "name": "A#3",
            "ticks": 35790,
            "time": 210.5293065,
            "velocity": 0.7874015748031497
          },
          {
            "duration": 0.17647050000002196,
            "durationTicks": 30,
            "midi": 70,
            "name": "A#4",
            "ticks": 35790,
            "time": 210.5293065,
            "velocity": 0.7874015748031497
          },
          {
            "duration": 0.17647049999999354,
            "durationTicks": 30,
            "midi": 59,
            "name": "B3",
            "ticks": 35850,
            "time": 210.8822475,
            "velocity": 0.7874015748031497
          },
          {
            "duration": 0.17647049999999354,
            "durationTicks": 30,
            "midi": 68,
            "name": "G#4",
            "ticks": 35850,
            "time": 210.8822475,
            "velocity": 0.7874015748031497
          },
          {
            "duration": 0.17647049999999354,
            "durationTicks": 30,
            "midi": 71,
            "name": "B4",
            "ticks": 35850,
            "time": 210.8822475,
            "velocity": 0.7874015748031497
          },
          {
            "duration": 0.17647050000002196,
            "durationTicks": 30,
            "midi": 61,
            "name": "C#4",
            "ticks": 35910,
            "time": 211.2351885,
            "velocity": 0.7874015748031497
          },
          {
            "duration": 0.17647050000002196,
            "durationTicks": 30,
            "midi": 73,
            "name": "C#5",
            "ticks": 35910,
            "time": 211.2351885,
            "velocity": 0.7874015748031497
          },
          {
            "duration": 0.17647050000002196,
            "durationTicks": 30,
            "midi": 67,
            "name": "G4",
            "ticks": 35910,
            "time": 211.2351885,
            "velocity": 0.7874015748031497
          },
          {
            "duration": 1.5882344999999987,
            "durationTicks": 270,
            "midi": 62,
            "name": "D4",
            "ticks": 35970,
            "time": 211.5881295,
            "velocity": 0.7874015748031497
          },
          {
            "duration": 1.5882344999999987,
            "durationTicks": 270,
            "midi": 56,
            "name": "G#3",
            "ticks": 35970,
            "time": 211.5881295,
            "velocity": 0.7874015748031497
          },
          {
            "duration": 1.5882344999999987,
            "durationTicks": 270,
            "midi": 74,
            "name": "D5",
            "ticks": 35970,
            "time": 211.5881295,
            "velocity": 0.7874015748031497
          },
          {
            "duration": 1.5882344999999987,
            "durationTicks": 270,
            "midi": 71,
            "name": "B4",
            "ticks": 35970,
            "time": 211.5881295,
            "velocity": 0.7874015748031497
          },
          {
            "duration": 1.5882344999999987,
            "durationTicks": 270,
            "midi": 66,
            "name": "F#4",
            "ticks": 35970,
            "time": 211.5881295,
            "velocity": 0.7874015748031497
          },
          {
            "duration": 0.05294114999998101,
            "durationTicks": 9,
            "midi": 59,
            "name": "B3",
            "ticks": 36345,
            "time": 213.79401075,
            "velocity": 0.7874015748031497
          },
          {
            "duration": 0.05294114999998101,
            "durationTicks": 9,
            "midi": 71,
            "name": "B4",
            "ticks": 36345,
            "time": 213.79401075,
            "velocity": 0.7874015748031497
          },
          {
            "duration": 0.05294115000000943,
            "durationTicks": 9,
            "midi": 60,
            "name": "C4",
            "ticks": 36355,
            "time": 213.85283425,
            "velocity": 0.7874015748031497
          },
          {
            "duration": 0.05294115000000943,
            "durationTicks": 9,
            "midi": 72,
            "name": "C5",
            "ticks": 36355,
            "time": 213.85283425,
            "velocity": 0.7874015748031497
          },
          {
            "duration": 0.17647049999999354,
            "durationTicks": 30,
            "midi": 61,
            "name": "C#4",
            "ticks": 36360,
            "time": 213.882246,
            "velocity": 0.7874015748031497
          },
          {
            "duration": 0.17647049999999354,
            "durationTicks": 30,
            "midi": 73,
            "name": "C#5",
            "ticks": 36360,
            "time": 213.882246,
            "velocity": 0.7874015748031497
          },
          {
            "duration": 0.17647049999999354,
            "durationTicks": 30,
            "midi": 59,
            "name": "B3",
            "ticks": 36390,
            "time": 214.0587165,
            "velocity": 0.7874015748031497
          },
          {
            "duration": 0.17647049999999354,
            "durationTicks": 30,
            "midi": 71,
            "name": "B4",
            "ticks": 36390,
            "time": 214.0587165,
            "velocity": 0.7874015748031497
          },
          {
            "duration": 0.17647050000002196,
            "durationTicks": 30,
            "midi": 59,
            "name": "B3",
            "ticks": 36450,
            "time": 214.4116575,
            "velocity": 0.7874015748031497
          },
          {
            "duration": 0.17647050000002196,
            "durationTicks": 30,
            "midi": 71,
            "name": "B4",
            "ticks": 36450,
            "time": 214.4116575,
            "velocity": 0.7874015748031497
          },
          {
            "duration": 0.17647049999999354,
            "durationTicks": 30,
            "midi": 57,
            "name": "A3",
            "ticks": 36510,
            "time": 214.7645985,
            "velocity": 0.7874015748031497
          },
          {
            "duration": 0.17647049999999354,
            "durationTicks": 30,
            "midi": 69,
            "name": "A4",
            "ticks": 36510,
            "time": 214.7645985,
            "velocity": 0.7874015748031497
          },
          {
            "duration": 0.17647050000002196,
            "durationTicks": 30,
            "midi": 56,
            "name": "G#3",
            "ticks": 36570,
            "time": 215.1175395,
            "velocity": 0.7874015748031497
          },
          {
            "duration": 0.17647050000002196,
            "durationTicks": 30,
            "midi": 68,
            "name": "G#4",
            "ticks": 36570,
            "time": 215.1175395,
            "velocity": 0.7874015748031497
          },
          {
            "duration": 0.17647049999999354,
            "durationTicks": 30,
            "midi": 61,
            "name": "C#4",
            "ticks": 36630,
            "time": 215.4704805,
            "velocity": 0.7874015748031497
          },
          {
            "duration": 0.17647049999999354,
            "durationTicks": 30,
            "midi": 73,
            "name": "C#5",
            "ticks": 36630,
            "time": 215.4704805,
            "velocity": 0.7874015748031497
          },
          {
            "duration": 0.17647049999999354,
            "durationTicks": 30,
            "midi": 59,
            "name": "B3",
            "ticks": 36660,
            "time": 215.646951,
            "velocity": 0.7874015748031497
          },
          {
            "duration": 0.17647049999999354,
            "durationTicks": 30,
            "midi": 71,
            "name": "B4",
            "ticks": 36660,
            "time": 215.646951,
            "velocity": 0.7874015748031497
          },
          {
            "duration": 0.17647049999999354,
            "durationTicks": 30,
            "midi": 57,
            "name": "A3",
            "ticks": 37200,
            "time": 218.82342,
            "velocity": 0.7874015748031497
          },
          {
            "duration": 0.17647049999999354,
            "durationTicks": 30,
            "midi": 69,
            "name": "A4",
            "ticks": 37200,
            "time": 218.82342,
            "velocity": 0.7874015748031497
          },
          {
            "duration": 0.17647050000002196,
            "durationTicks": 30,
            "midi": 54,
            "name": "F#3",
            "ticks": 37230,
            "time": 218.9998905,
            "velocity": 0.7874015748031497
          },
          {
            "duration": 0.17647050000002196,
            "durationTicks": 30,
            "midi": 66,
            "name": "F#4",
            "ticks": 37230,
            "time": 218.9998905,
            "velocity": 0.7874015748031497
          },
          {
            "duration": 0.17647049999999354,
            "durationTicks": 30,
            "midi": 56,
            "name": "G#3",
            "ticks": 37260,
            "time": 219.176361,
            "velocity": 0.7874015748031497
          },
          {
            "duration": 0.17647049999999354,
            "durationTicks": 30,
            "midi": 68,
            "name": "G#4",
            "ticks": 37260,
            "time": 219.176361,
            "velocity": 0.7874015748031497
          },
          {
            "duration": 0.17647049999999354,
            "durationTicks": 30,
            "midi": 57,
            "name": "A3",
            "ticks": 37290,
            "time": 219.3528315,
            "velocity": 0.7874015748031497
          },
          {
            "duration": 0.17647049999999354,
            "durationTicks": 30,
            "midi": 69,
            "name": "A4",
            "ticks": 37290,
            "time": 219.3528315,
            "velocity": 0.7874015748031497
          },
          {
            "duration": 0.17647050000002196,
            "durationTicks": 30,
            "midi": 66,
            "name": "F#4",
            "ticks": 37350,
            "time": 219.7057725,
            "velocity": 0.7874015748031497
          },
          {
            "duration": 0.17647050000002196,
            "durationTicks": 30,
            "midi": 78,
            "name": "F#5",
            "ticks": 37350,
            "time": 219.7057725,
            "velocity": 0.7874015748031497
          },
          {
            "duration": 0.22941164999997454,
            "durationTicks": 39,
            "midi": 64,
            "name": "E4",
            "ticks": 37410,
            "time": 220.0587135,
            "velocity": 0.7874015748031497
          },
          {
            "duration": 0.22941164999997454,
            "durationTicks": 39,
            "midi": 68,
            "name": "G#4",
            "ticks": 37410,
            "time": 220.0587135,
            "velocity": 0.7874015748031497
          },
          {
            "duration": 0.22941164999997454,
            "durationTicks": 39,
            "midi": 71,
            "name": "B4",
            "ticks": 37410,
            "time": 220.0587135,
            "velocity": 0.7874015748031497
          },
          {
            "duration": 0.22941164999997454,
            "durationTicks": 39,
            "midi": 73,
            "name": "C#5",
            "ticks": 37410,
            "time": 220.0587135,
            "velocity": 0.7874015748031497
          },
          {
            "duration": 0.22941164999997454,
            "durationTicks": 39,
            "midi": 76,
            "name": "E5",
            "ticks": 37410,
            "time": 220.0587135,
            "velocity": 0.7874015748031497
          },
          {
            "duration": 0.17647049999999354,
            "durationTicks": 30,
            "midi": 61,
            "name": "C#4",
            "ticks": 37680,
            "time": 221.646948,
            "velocity": 0.7874015748031497
          },
          {
            "duration": 0.17647049999999354,
            "durationTicks": 30,
            "midi": 66,
            "name": "F#4",
            "ticks": 37680,
            "time": 221.646948,
            "velocity": 0.7874015748031497
          },
          {
            "duration": 0.17647049999999354,
            "durationTicks": 30,
            "midi": 70,
            "name": "A#4",
            "ticks": 37680,
            "time": 221.646948,
            "velocity": 0.7874015748031497
          },
          {
            "duration": 0.17647049999999354,
            "durationTicks": 30,
            "midi": 73,
            "name": "C#5",
            "ticks": 37680,
            "time": 221.646948,
            "velocity": 0.7874015748031497
          },
          {
            "duration": 0.17647049999999354,
            "durationTicks": 30,
            "midi": 62,
            "name": "D4",
            "ticks": 37710,
            "time": 221.8234185,
            "velocity": 0.7874015748031497
          },
          {
            "duration": 0.17647049999999354,
            "durationTicks": 30,
            "midi": 74,
            "name": "D5",
            "ticks": 37710,
            "time": 221.8234185,
            "velocity": 0.7874015748031497
          },
          {
            "duration": 0.17647049999999354,
            "durationTicks": 30,
            "midi": 64,
            "name": "E4",
            "ticks": 37740,
            "time": 221.999889,
            "velocity": 0.7874015748031497
          },
          {
            "duration": 0.17647049999999354,
            "durationTicks": 30,
            "midi": 76,
            "name": "E5",
            "ticks": 37740,
            "time": 221.999889,
            "velocity": 0.7874015748031497
          },
          {
            "duration": 0.17647050000002196,
            "durationTicks": 30,
            "midi": 69,
            "name": "A4",
            "ticks": 37770,
            "time": 222.1763595,
            "velocity": 0.7874015748031497
          },
          {
            "duration": 0.17647050000002196,
            "durationTicks": 30,
            "midi": 81,
            "name": "A5",
            "ticks": 37770,
            "time": 222.1763595,
            "velocity": 0.7874015748031497
          },
          {
            "duration": 0.17647049999999354,
            "durationTicks": 30,
            "midi": 66,
            "name": "F#4",
            "ticks": 37830,
            "time": 222.5293005,
            "velocity": 0.7874015748031497
          },
          {
            "duration": 0.17647049999999354,
            "durationTicks": 30,
            "midi": 78,
            "name": "F#5",
            "ticks": 37830,
            "time": 222.5293005,
            "velocity": 0.7874015748031497
          },
          {
            "duration": 0.17647050000002196,
            "durationTicks": 30,
            "midi": 61,
            "name": "C#4",
            "ticks": 37890,
            "time": 222.8822415,
            "velocity": 0.7874015748031497
          },
          {
            "duration": 0.17647050000002196,
            "durationTicks": 30,
            "midi": 73,
            "name": "C#5",
            "ticks": 37890,
            "time": 222.8822415,
            "velocity": 0.7874015748031497
          },
          {
            "duration": 0.17647049999999354,
            "durationTicks": 30,
            "midi": 64,
            "name": "E4",
            "ticks": 37950,
            "time": 223.2351825,
            "velocity": 0.7874015748031497
          },
          {
            "duration": 0.17647049999999354,
            "durationTicks": 30,
            "midi": 76,
            "name": "E5",
            "ticks": 37950,
            "time": 223.2351825,
            "velocity": 0.7874015748031497
          },
          {
            "duration": 0.17647049999999354,
            "durationTicks": 30,
            "midi": 62,
            "name": "D4",
            "ticks": 37980,
            "time": 223.411653,
            "velocity": 0.7874015748031497
          },
          {
            "duration": 0.1705881500000146,
            "durationTicks": 29,
            "midi": 74,
            "name": "D5",
            "ticks": 37980,
            "time": 223.411653,
            "velocity": 0.7874015748031497
          },
          {
            "duration": 0.17647049999999354,
            "durationTicks": 30,
            "midi": 50,
            "name": "D3",
            "ticks": 38250,
            "time": 224.9998875,
            "velocity": 0.7874015748031497
          },
          {
            "duration": 0.17647049999999354,
            "durationTicks": 30,
            "midi": 62,
            "name": "D4",
            "ticks": 38250,
            "time": 224.9998875,
            "velocity": 0.7874015748031497
          },
          {
            "duration": 0.17647050000002196,
            "durationTicks": 30,
            "midi": 54,
            "name": "F#3",
            "ticks": 38280,
            "time": 225.176358,
            "velocity": 0.7874015748031497
          },
          {
            "duration": 0.17647050000002196,
            "durationTicks": 30,
            "midi": 66,
            "name": "F#4",
            "ticks": 38280,
            "time": 225.176358,
            "velocity": 0.7874015748031497
          },
          {
            "duration": 0.17647049999999354,
            "durationTicks": 30,
            "midi": 57,
            "name": "A3",
            "ticks": 38310,
            "time": 225.35282850000002,
            "velocity": 0.7874015748031497
          },
          {
            "duration": 0.17647049999999354,
            "durationTicks": 30,
            "midi": 69,
            "name": "A4",
            "ticks": 38310,
            "time": 225.35282850000002,
            "velocity": 0.7874015748031497
          },
          {
            "duration": 0.17647049999999354,
            "durationTicks": 30,
            "midi": 54,
            "name": "F#3",
            "ticks": 38340,
            "time": 225.529299,
            "velocity": 0.7874015748031497
          },
          {
            "duration": 0.17647049999999354,
            "durationTicks": 30,
            "midi": 66,
            "name": "F#4",
            "ticks": 38340,
            "time": 225.529299,
            "velocity": 0.7874015748031497
          },
          {
            "duration": 0.8823524999999961,
            "durationTicks": 150,
            "midi": 59,
            "name": "B3",
            "ticks": 38370,
            "time": 225.7057695,
            "velocity": 0.7874015748031497
          },
          {
            "duration": 0.8823524999999961,
            "durationTicks": 150,
            "midi": 63,
            "name": "D#4",
            "ticks": 38370,
            "time": 225.7057695,
            "velocity": 0.7874015748031497
          },
          {
            "duration": 0.8823524999999961,
            "durationTicks": 150,
            "midi": 66,
            "name": "F#4",
            "ticks": 38370,
            "time": 225.7057695,
            "velocity": 0.7874015748031497
          },
          {
            "duration": 0.8823524999999961,
            "durationTicks": 150,
            "midi": 68,
            "name": "G#4",
            "ticks": 38370,
            "time": 225.7057695,
            "velocity": 0.7874015748031497
          },
          {
            "duration": 0.8823524999999961,
            "durationTicks": 150,
            "midi": 71,
            "name": "B4",
            "ticks": 38370,
            "time": 225.7057695,
            "velocity": 0.7874015748031497
          },
          {
            "duration": 0.17647049999999354,
            "durationTicks": 30,
            "midi": 63,
            "name": "D#4",
            "ticks": 38520,
            "time": 226.588122,
            "velocity": 0.7874015748031497
          },
          {
            "duration": 0.17647049999999354,
            "durationTicks": 30,
            "midi": 75,
            "name": "D#5",
            "ticks": 38520,
            "time": 226.588122,
            "velocity": 0.7874015748031497
          },
          {
            "duration": 0.17647049999999354,
            "durationTicks": 30,
            "midi": 71,
            "name": "B4",
            "ticks": 38520,
            "time": 226.588122,
            "velocity": 0.7874015748031497
          },
          {
            "duration": 0.17647050000002196,
            "durationTicks": 30,
            "midi": 66,
            "name": "F#4",
            "ticks": 38550,
            "time": 226.7645925,
            "velocity": 0.7874015748031497
          },
          {
            "duration": 0.17647050000002196,
            "durationTicks": 30,
            "midi": 78,
            "name": "F#5",
            "ticks": 38550,
            "time": 226.7645925,
            "velocity": 0.7874015748031497
          },
          {
            "duration": 0.17647050000002196,
            "durationTicks": 30,
            "midi": 75,
            "name": "D#5",
            "ticks": 38550,
            "time": 226.7645925,
            "velocity": 0.7874015748031497
          },
          {
            "duration": 0.17647049999999354,
            "durationTicks": 30,
            "midi": 63,
            "name": "D#4",
            "ticks": 38580,
            "time": 226.941063,
            "velocity": 0.7874015748031497
          },
          {
            "duration": 0.17647049999999354,
            "durationTicks": 30,
            "midi": 71,
            "name": "B4",
            "ticks": 38580,
            "time": 226.941063,
            "velocity": 0.7874015748031497
          },
          {
            "duration": 0.17647049999999354,
            "durationTicks": 30,
            "midi": 75,
            "name": "D#5",
            "ticks": 38580,
            "time": 226.941063,
            "velocity": 0.7874015748031497
          },
          {
            "duration": 0.8823524999999961,
            "durationTicks": 150,
            "midi": 70,
            "name": "A#4",
            "ticks": 38610,
            "time": 227.1175335,
            "velocity": 0.7874015748031497
          },
          {
            "duration": 0.8823524999999961,
            "durationTicks": 150,
            "midi": 66,
            "name": "F#4",
            "ticks": 38610,
            "time": 227.1175335,
            "velocity": 0.7874015748031497
          },
          {
            "duration": 0.8823524999999961,
            "durationTicks": 150,
            "midi": 63,
            "name": "D#4",
            "ticks": 38610,
            "time": 227.1175335,
            "velocity": 0.7874015748031497
          },
          {
            "duration": 0.8823524999999961,
            "durationTicks": 150,
            "midi": 59,
            "name": "B3",
            "ticks": 38610,
            "time": 227.1175335,
            "velocity": 0.7874015748031497
          },
          {
            "duration": 0.8823524999999961,
            "durationTicks": 150,
            "midi": 82,
            "name": "A#5",
            "ticks": 38610,
            "time": 227.1175335,
            "velocity": 0.7874015748031497
          },
          {
            "duration": 0.8823524999999961,
            "durationTicks": 150,
            "midi": 78,
            "name": "F#5",
            "ticks": 38610,
            "time": 227.1175335,
            "velocity": 0.7874015748031497
          },
          {
            "duration": 0.8823524999999961,
            "durationTicks": 150,
            "midi": 75,
            "name": "D#5",
            "ticks": 38610,
            "time": 227.1175335,
            "velocity": 0.7874015748031497
          },
          {
            "duration": 0.8823524999999961,
            "durationTicks": 150,
            "midi": 71,
            "name": "B4",
            "ticks": 38610,
            "time": 227.1175335,
            "velocity": 0.7874015748031497
          }
        ]
      },
      {
        "channel": 0,
        "controlChanges": {
          "0": [
            {
              "number": 0,
              "ticks": 0,
              "time": 0,
              "value": 0
            }
          ],
          "32": [
            {
              "number": 32,
              "ticks": 0,
              "time": 0,
              "value": 0
            }
          ]
        },
        "pitchBends": [],
        "instrument": {
          "family": "piano",
          "number": 0,
          "name": "acoustic grand piano"
        },
        "name": "Marimba",
        "notes": [],
        "endOfTrackTicks": 38760
      },
      {
        "channel": 6,
        "controlChanges": {
          "7": [
            {
              "number": 7,
              "ticks": 0,
              "time": 0,
              "value": 0.6692913385826772
            }
          ],
          "10": [
            {
              "number": 10,
              "ticks": 0,
              "time": 0,
              "value": 0.5905511811023622
            }
          ],
          "91": [
            {
              "number": 91,
              "ticks": 40,
              "time": 0.235294,
              "value": 0.31496062992125984
            }
          ],
          "93": [
            {
              "number": 93,
              "ticks": 50,
              "time": 0.29411750000000003,
              "value": 0.07874015748031496
            }
          ],
          "121": [
            {
              "number": 121,
              "ticks": 5,
              "time": 0.02941175,
              "value": 0
            }
          ]
        },
        "pitchBends": [],
        "instrument": {
          "family": "chromatic percussion",
          "number": 12,
          "name": "marimba"
        },
        "name": "",
        "notes": [
          {
            "duration": 0.17647050000000064,
            "durationTicks": 30,
            "midi": 66,
            "name": "F#4",
            "ticks": 4560,
            "time": 26.823516,
            "velocity": 0.7086614173228346
          },
          {
            "duration": 0.17647050000000064,
            "durationTicks": 30,
            "midi": 78,
            "name": "F#5",
            "ticks": 4560,
            "time": 26.823516,
            "velocity": 0.7086614173228346
          },
          {
            "duration": 0.1764704999999971,
            "durationTicks": 30,
            "midi": 62,
            "name": "D4",
            "ticks": 4590,
            "time": 26.999986500000002,
            "velocity": 0.7086614173228346
          },
          {
            "duration": 0.1764704999999971,
            "durationTicks": 30,
            "midi": 74,
            "name": "D5",
            "ticks": 4590,
            "time": 26.999986500000002,
            "velocity": 0.7086614173228346
          },
          {
            "duration": 0.17647050000000064,
            "durationTicks": 30,
            "midi": 64,
            "name": "E4",
            "ticks": 4620,
            "time": 27.176457,
            "velocity": 0.7086614173228346
          },
          {
            "duration": 0.17647050000000064,
            "durationTicks": 30,
            "midi": 76,
            "name": "E5",
            "ticks": 4620,
            "time": 27.176457,
            "velocity": 0.7086614173228346
          },
          {
            "duration": 0.17647050000000064,
            "durationTicks": 30,
            "midi": 66,
            "name": "F#4",
            "ticks": 4650,
            "time": 27.3529275,
            "velocity": 0.7086614173228346
          },
          {
            "duration": 0.17647050000000064,
            "durationTicks": 30,
            "midi": 78,
            "name": "F#5",
            "ticks": 4650,
            "time": 27.3529275,
            "velocity": 0.7086614173228346
          },
          {
            "duration": 0.17647050000000064,
            "durationTicks": 30,
            "midi": 73,
            "name": "C#5",
            "ticks": 4710,
            "time": 27.7058685,
            "velocity": 0.7086614173228346
          },
          {
            "duration": 0.17647050000000064,
            "durationTicks": 30,
            "midi": 85,
            "name": "C#6",
            "ticks": 4710,
            "time": 27.7058685,
            "velocity": 0.7086614173228346
          },
          {
            "duration": 0.22941165000000296,
            "durationTicks": 39,
            "midi": 71,
            "name": "B4",
            "ticks": 4770,
            "time": 28.0588095,
            "velocity": 0.7086614173228346
          },
          {
            "duration": 0.22941165000000296,
            "durationTicks": 39,
            "midi": 77,
            "name": "F5",
            "ticks": 4770,
            "time": 28.0588095,
            "velocity": 0.7086614173228346
          },
          {
            "duration": 0.22941165000000296,
            "durationTicks": 39,
            "midi": 80,
            "name": "G#5",
            "ticks": 4770,
            "time": 28.0588095,
            "velocity": 0.7086614173228346
          },
          {
            "duration": 0.22941165000000296,
            "durationTicks": 39,
            "midi": 83,
            "name": "B5",
            "ticks": 4770,
            "time": 28.0588095,
            "velocity": 0.7086614173228346
          },
          {
            "duration": 0.17647050000000064,
            "durationTicks": 30,
            "midi": 68,
            "name": "G#4",
            "ticks": 5040,
            "time": 29.647044,
            "velocity": 0.7086614173228346
          },
          {
            "duration": 0.17647050000000064,
            "durationTicks": 30,
            "midi": 80,
            "name": "G#5",
            "ticks": 5040,
            "time": 29.647044,
            "velocity": 0.7086614173228346
          },
          {
            "duration": 0.1764704999999971,
            "durationTicks": 30,
            "midi": 68,
            "name": "G#4",
            "ticks": 5070,
            "time": 29.8235145,
            "velocity": 0.7086614173228346
          },
          {
            "duration": 0.1764704999999971,
            "durationTicks": 30,
            "midi": 80,
            "name": "G#5",
            "ticks": 5070,
            "time": 29.8235145,
            "velocity": 0.7086614173228346
          },
          {
            "duration": 0.17647050000000064,
            "durationTicks": 30,
            "midi": 69,
            "name": "A4",
            "ticks": 5130,
            "time": 30.1764555,
            "velocity": 0.7086614173228346
          },
          {
            "duration": 0.17647050000000064,
            "durationTicks": 30,
            "midi": 78,
            "name": "F#5",
            "ticks": 5130,
            "time": 30.1764555,
            "velocity": 0.7086614173228346
          },
          {
            "duration": 0.17647050000000064,
            "durationTicks": 30,
            "midi": 81,
            "name": "A5",
            "ticks": 5130,
            "time": 30.1764555,
            "velocity": 0.7086614173228346
          },
          {
            "duration": 0.17647050000000064,
            "durationTicks": 30,
            "midi": 71,
            "name": "B4",
            "ticks": 5190,
            "time": 30.5293965,
            "velocity": 0.7086614173228346
          },
          {
            "duration": 0.17647050000000064,
            "durationTicks": 30,
            "midi": 83,
            "name": "B5",
            "ticks": 5190,
            "time": 30.5293965,
            "velocity": 0.7086614173228346
          },
          {
            "duration": 0.17647050000000064,
            "durationTicks": 30,
            "midi": 77,
            "name": "F5",
            "ticks": 5190,
            "time": 30.5293965,
            "velocity": 0.7086614173228346
          },
          {
            "duration": 1.588234499999995,
            "durationTicks": 270,
            "midi": 66,
            "name": "F#4",
            "ticks": 5250,
            "time": 30.882337500000002,
            "velocity": 0.7086614173228346
          },
          {
            "duration": 1.588234499999995,
            "durationTicks": 270,
            "midi": 72,
            "name": "C5",
            "ticks": 5250,
            "time": 30.882337500000002,
            "velocity": 0.7086614173228346
          },
          {
            "duration": 1.588234499999995,
            "durationTicks": 270,
            "midi": 84,
            "name": "C6",
            "ticks": 5250,
            "time": 30.882337500000002,
            "velocity": 0.7086614173228346
          },
          {
            "duration": 1.588234499999995,
            "durationTicks": 270,
            "midi": 81,
            "name": "A5",
            "ticks": 5250,
            "time": 30.882337500000002,
            "velocity": 0.7086614173228346
          },
          {
            "duration": 1.588234499999995,
            "durationTicks": 270,
            "midi": 76,
            "name": "E5",
            "ticks": 5250,
            "time": 30.882337500000002,
            "velocity": 0.7086614173228346
          },
          {
            "duration": 0.05294114999999522,
            "durationTicks": 9,
            "midi": 69,
            "name": "A4",
            "ticks": 5620,
            "time": 33.058807,
            "velocity": 0.7086614173228346
          },
          {
            "duration": 0.052941150000002324,
            "durationTicks": 9,
            "midi": 81,
            "name": "A5",
            "ticks": 5625,
            "time": 33.08821875,
            "velocity": 0.7086614173228346
          },
          {
            "duration": 0.052941150000002324,
            "durationTicks": 9,
            "midi": 70,
            "name": "A#4",
            "ticks": 5630,
            "time": 33.1176305,
            "velocity": 0.7086614173228346
          },
          {
            "duration": 0.05294114999999522,
            "durationTicks": 9,
            "midi": 82,
            "name": "A#5",
            "ticks": 5635,
            "time": 33.147042250000005,
            "velocity": 0.7086614173228346
          },
          {
            "duration": 0.17647050000000064,
            "durationTicks": 30,
            "midi": 71,
            "name": "B4",
            "ticks": 5640,
            "time": 33.176454,
            "velocity": 0.7086614173228346
          },
          {
            "duration": 0.17647050000000064,
            "durationTicks": 30,
            "midi": 83,
            "name": "B5",
            "ticks": 5640,
            "time": 33.176454,
            "velocity": 0.7086614173228346
          },
          {
            "duration": 0.17647050000000064,
            "durationTicks": 30,
            "midi": 69,
            "name": "A4",
            "ticks": 5670,
            "time": 33.3529245,
            "velocity": 0.7086614173228346
          },
          {
            "duration": 0.17647050000000064,
            "durationTicks": 30,
            "midi": 81,
            "name": "A5",
            "ticks": 5670,
            "time": 33.3529245,
            "velocity": 0.7086614173228346
          },
          {
            "duration": 0.17647050000000064,
            "durationTicks": 30,
            "midi": 69,
            "name": "A4",
            "ticks": 5730,
            "time": 33.7058655,
            "velocity": 0.7086614173228346
          },
          {
            "duration": 0.17647050000000064,
            "durationTicks": 30,
            "midi": 81,
            "name": "A5",
            "ticks": 5730,
            "time": 33.7058655,
            "velocity": 0.7086614173228346
          },
          {
            "duration": 0.17647050000000064,
            "durationTicks": 30,
            "midi": 67,
            "name": "G4",
            "ticks": 5790,
            "time": 34.0588065,
            "velocity": 0.7086614173228346
          },
          {
            "duration": 0.17647050000000064,
            "durationTicks": 30,
            "midi": 79,
            "name": "G5",
            "ticks": 5790,
            "time": 34.0588065,
            "velocity": 0.7086614173228346
          },
          {
            "duration": 0.17647050000000064,
            "durationTicks": 30,
            "midi": 66,
            "name": "F#4",
            "ticks": 5850,
            "time": 34.4117475,
            "velocity": 0.7086614173228346
          },
          {
            "duration": 0.17647050000000064,
            "durationTicks": 30,
            "midi": 78,
            "name": "F#5",
            "ticks": 5850,
            "time": 34.4117475,
            "velocity": 0.7086614173228346
          },
          {
            "duration": 0.17647050000000064,
            "durationTicks": 30,
            "midi": 71,
            "name": "B4",
            "ticks": 5910,
            "time": 34.7646885,
            "velocity": 0.7086614173228346
          },
          {
            "duration": 0.17647050000000064,
            "durationTicks": 30,
            "midi": 83,
            "name": "B5",
            "ticks": 5910,
            "time": 34.7646885,
            "velocity": 0.7086614173228346
          },
          {
            "duration": 0.17647050000000064,
            "durationTicks": 30,
            "midi": 69,
            "name": "A4",
            "ticks": 5940,
            "time": 34.941159,
            "velocity": 0.7086614173228346
          },
          {
            "duration": 0.17647050000000064,
            "durationTicks": 30,
            "midi": 81,
            "name": "A5",
            "ticks": 5940,
            "time": 34.941159,
            "velocity": 0.7086614173228346
          },
          {
            "duration": 0.6999996499999952,
            "durationTicks": 119,
            "midi": 78,
            "name": "F#5",
            "ticks": 6120,
            "time": 35.999982,
            "velocity": 0.7086614173228346
          },
          {
            "duration": 0.6999996499999952,
            "durationTicks": 119,
            "midi": 81,
            "name": "A5",
            "ticks": 6120,
            "time": 35.999982,
            "velocity": 0.7086614173228346
          },
          {
            "duration": 0.6999996499999952,
            "durationTicks": 119,
            "midi": 86,
            "name": "D6",
            "ticks": 6120,
            "time": 35.999982,
            "velocity": 0.7086614173228346
          },
          {
            "duration": 1.0529406500000036,
            "durationTicks": 179,
            "midi": 74,
            "name": "D5",
            "ticks": 6240,
            "time": 36.705864,
            "velocity": 0.7086614173228346
          },
          {
            "duration": 1.0529406500000036,
            "durationTicks": 179,
            "midi": 79,
            "name": "G5",
            "ticks": 6240,
            "time": 36.705864,
            "velocity": 0.7086614173228346
          },
          {
            "duration": 1.0529406500000036,
            "durationTicks": 179,
            "midi": 83,
            "name": "B5",
            "ticks": 6240,
            "time": 36.705864,
            "velocity": 0.7086614173228346
          },
          {
            "duration": 0.17647050000000064,
            "durationTicks": 30,
            "midi": 67,
            "name": "G4",
            "ticks": 6480,
            "time": 38.117628,
            "velocity": 0.7086614173228346
          },
          {
            "duration": 0.17647050000000064,
            "durationTicks": 30,
            "midi": 79,
            "name": "G5",
            "ticks": 6480,
            "time": 38.117628,
            "velocity": 0.7086614173228346
          },
          {
            "duration": 0.17647049999999354,
            "durationTicks": 30,
            "midi": 64,
            "name": "E4",
            "ticks": 6510,
            "time": 38.294098500000004,
            "velocity": 0.7086614173228346
          },
          {
            "duration": 0.17647049999999354,
            "durationTicks": 30,
            "midi": 76,
            "name": "E5",
            "ticks": 6510,
            "time": 38.294098500000004,
            "velocity": 0.7086614173228346
          },
          {
            "duration": 0.17647050000000064,
            "durationTicks": 30,
            "midi": 66,
            "name": "F#4",
            "ticks": 6540,
            "time": 38.470569,
            "velocity": 0.7086614173228346
          },
          {
            "duration": 0.17647050000000064,
            "durationTicks": 30,
            "midi": 78,
            "name": "F#5",
            "ticks": 6540,
            "time": 38.470569,
            "velocity": 0.7086614173228346
          },
          {
            "duration": 0.17647050000000064,
            "durationTicks": 30,
            "midi": 67,
            "name": "G4",
            "ticks": 6570,
            "time": 38.6470395,
            "velocity": 0.7086614173228346
          },
          {
            "duration": 0.17647050000000064,
            "durationTicks": 30,
            "midi": 79,
            "name": "G5",
            "ticks": 6570,
            "time": 38.6470395,
            "velocity": 0.7086614173228346
          },
          {
            "duration": 0.17647050000000064,
            "durationTicks": 30,
            "midi": 76,
            "name": "E5",
            "ticks": 6630,
            "time": 38.9999805,
            "velocity": 0.7086614173228346
          },
          {
            "duration": 0.17647050000000064,
            "durationTicks": 30,
            "midi": 88,
            "name": "E6",
            "ticks": 6630,
            "time": 38.9999805,
            "velocity": 0.7086614173228346
          },
          {
            "duration": 0.22941165000000296,
            "durationTicks": 39,
            "midi": 74,
            "name": "D5",
            "ticks": 6690,
            "time": 39.3529215,
            "velocity": 0.7086614173228346
          },
          {
            "duration": 0.22941165000000296,
            "durationTicks": 39,
            "midi": 78,
            "name": "F#5",
            "ticks": 6690,
            "time": 39.3529215,
            "velocity": 0.7086614173228346
          },
          {
            "duration": 0.22941165000000296,
            "durationTicks": 39,
            "midi": 83,
            "name": "B5",
            "ticks": 6690,
            "time": 39.3529215,
            "velocity": 0.7086614173228346
          },
          {
            "duration": 0.22941165000000296,
            "durationTicks": 39,
            "midi": 86,
            "name": "D6",
            "ticks": 6690,
            "time": 39.3529215,
            "velocity": 0.7086614173228346
          },
          {
            "duration": 0.17647050000000064,
            "durationTicks": 30,
            "midi": 71,
            "name": "B4",
            "ticks": 6960,
            "time": 40.941156,
            "velocity": 0.7086614173228346
          },
          {
            "duration": 0.17647050000000064,
            "durationTicks": 30,
            "midi": 83,
            "name": "B5",
            "ticks": 6960,
            "time": 40.941156,
            "velocity": 0.7086614173228346
          },
          {
            "duration": 0.17647050000000064,
            "durationTicks": 30,
            "midi": 72,
            "name": "C5",
            "ticks": 6990,
            "time": 41.1176265,
            "velocity": 0.7086614173228346
          },
          {
            "duration": 0.17647050000000064,
            "durationTicks": 30,
            "midi": 84,
            "name": "C6",
            "ticks": 6990,
            "time": 41.1176265,
            "velocity": 0.7086614173228346
          },
          {
            "duration": 0.17647050000000064,
            "durationTicks": 30,
            "midi": 74,
            "name": "D5",
            "ticks": 7020,
            "time": 41.294097,
            "velocity": 0.7086614173228346
          },
          {
            "duration": 0.17647050000000064,
            "durationTicks": 30,
            "midi": 86,
            "name": "D6",
            "ticks": 7020,
            "time": 41.294097,
            "velocity": 0.7086614173228346
          },
          {
            "duration": 0.3529410000000013,
            "durationTicks": 60,
            "midi": 64,
            "name": "E4",
            "ticks": 7050,
            "time": 41.4705675,
            "velocity": 0.7086614173228346
          },
          {
            "duration": 0.3529410000000013,
            "durationTicks": 60,
            "midi": 76,
            "name": "E5",
            "ticks": 7050,
            "time": 41.4705675,
            "velocity": 0.7086614173228346
          },
          {
            "duration": 0.17647050000000064,
            "durationTicks": 30,
            "midi": 68,
            "name": "G#4",
            "ticks": 7110,
            "time": 41.8235085,
            "velocity": 0.7086614173228346
          },
          {
            "duration": 0.17647050000000064,
            "durationTicks": 30,
            "midi": 80,
            "name": "G#5",
            "ticks": 7110,
            "time": 41.8235085,
            "velocity": 0.7086614173228346
          },
          {
            "duration": 0.17647050000000064,
            "durationTicks": 30,
            "midi": 71,
            "name": "B4",
            "ticks": 7140,
            "time": 41.999979,
            "velocity": 0.7086614173228346
          },
          {
            "duration": 0.17647050000000064,
            "durationTicks": 30,
            "midi": 83,
            "name": "B5",
            "ticks": 7140,
            "time": 41.999979,
            "velocity": 0.7086614173228346
          },
          {
            "duration": 0.17647049999999354,
            "durationTicks": 30,
            "midi": 72,
            "name": "C5",
            "ticks": 7170,
            "time": 42.176449500000004,
            "velocity": 0.7086614173228346
          },
          {
            "duration": 0.17647049999999354,
            "durationTicks": 30,
            "midi": 84,
            "name": "C6",
            "ticks": 7170,
            "time": 42.176449500000004,
            "velocity": 0.7086614173228346
          },
          {
            "duration": 0.17647050000000064,
            "durationTicks": 30,
            "midi": 64,
            "name": "E4",
            "ticks": 7230,
            "time": 42.5293905,
            "velocity": 0.7086614173228346
          },
          {
            "duration": 0.17647050000000064,
            "durationTicks": 30,
            "midi": 76,
            "name": "E5",
            "ticks": 7230,
            "time": 42.5293905,
            "velocity": 0.7086614173228346
          },
          {
            "duration": 0.17647050000000064,
            "durationTicks": 30,
            "midi": 67,
            "name": "G4",
            "ticks": 7260,
            "time": 42.705861,
            "velocity": 0.7086614173228346
          },
          {
            "duration": 0.17647050000000064,
            "durationTicks": 30,
            "midi": 79,
            "name": "G5",
            "ticks": 7260,
            "time": 42.705861,
            "velocity": 0.7086614173228346
          },
          {
            "duration": 0.17647050000000064,
            "durationTicks": 30,
            "midi": 64,
            "name": "E4",
            "ticks": 7560,
            "time": 44.470566,
            "velocity": 0.7086614173228346
          },
          {
            "duration": 0.17647050000000064,
            "durationTicks": 30,
            "midi": 76,
            "name": "E5",
            "ticks": 7560,
            "time": 44.470566,
            "velocity": 0.7086614173228346
          },
          {
            "duration": 0.17647050000000064,
            "durationTicks": 30,
            "midi": 67,
            "name": "G4",
            "ticks": 7590,
            "time": 44.6470365,
            "velocity": 0.7086614173228346
          },
          {
            "duration": 0.17647050000000064,
            "durationTicks": 30,
            "midi": 79,
            "name": "G5",
            "ticks": 7590,
            "time": 44.6470365,
            "velocity": 0.7086614173228346
          },
          {
            "duration": 0.17647050000000064,
            "durationTicks": 30,
            "midi": 64,
            "name": "E4",
            "ticks": 7620,
            "time": 44.823507,
            "velocity": 0.7086614173228346
          },
          {
            "duration": 0.17647050000000064,
            "durationTicks": 30,
            "midi": 76,
            "name": "E5",
            "ticks": 7620,
            "time": 44.823507,
            "velocity": 0.7086614173228346
          },
          {
            "duration": 0.8823525000000032,
            "durationTicks": 150,
            "midi": 69,
            "name": "A4",
            "ticks": 7650,
            "time": 44.9999775,
            "velocity": 0.7086614173228346
          },
          {
            "duration": 0.8823525000000032,
            "durationTicks": 150,
            "midi": 73,
            "name": "C#5",
            "ticks": 7650,
            "time": 44.9999775,
            "velocity": 0.7086614173228346
          },
          {
            "duration": 0.8823525000000032,
            "durationTicks": 150,
            "midi": 76,
            "name": "E5",
            "ticks": 7650,
            "time": 44.9999775,
            "velocity": 0.7086614173228346
          },
          {
            "duration": 0.8823525000000032,
            "durationTicks": 150,
            "midi": 78,
            "name": "F#5",
            "ticks": 7650,
            "time": 44.9999775,
            "velocity": 0.7086614173228346
          },
          {
            "duration": 0.8823525000000032,
            "durationTicks": 150,
            "midi": 81,
            "name": "A5",
            "ticks": 7650,
            "time": 44.9999775,
            "velocity": 0.7086614173228346
          },
          {
            "duration": 0.17647050000000064,
            "durationTicks": 30,
            "midi": 73,
            "name": "C#5",
            "ticks": 7800,
            "time": 45.88233,
            "velocity": 0.7086614173228346
          },
          {
            "duration": 0.17647050000000064,
            "durationTicks": 30,
            "midi": 81,
            "name": "A5",
            "ticks": 7800,
            "time": 45.88233,
            "velocity": 0.7086614173228346
          },
          {
            "duration": 0.17647050000000064,
            "durationTicks": 30,
            "midi": 85,
            "name": "C#6",
            "ticks": 7800,
            "time": 45.88233,
            "velocity": 0.7086614173228346
          },
          {
            "duration": 0.17647049999999354,
            "durationTicks": 30,
            "midi": 76,
            "name": "E5",
            "ticks": 7830,
            "time": 46.058800500000004,
            "velocity": 0.7086614173228346
          },
          {
            "duration": 0.17647049999999354,
            "durationTicks": 30,
            "midi": 85,
            "name": "C#6",
            "ticks": 7830,
            "time": 46.058800500000004,
            "velocity": 0.7086614173228346
          },
          {
            "duration": 0.17647049999999354,
            "durationTicks": 30,
            "midi": 88,
            "name": "E6",
            "ticks": 7830,
            "time": 46.058800500000004,
            "velocity": 0.7086614173228346
          },
          {
            "duration": 0.17647050000000064,
            "durationTicks": 30,
            "midi": 73,
            "name": "C#5",
            "ticks": 7860,
            "time": 46.235271,
            "velocity": 0.7086614173228346
          },
          {
            "duration": 0.17647050000000064,
            "durationTicks": 30,
            "midi": 81,
            "name": "A5",
            "ticks": 7860,
            "time": 46.235271,
            "velocity": 0.7086614173228346
          },
          {
            "duration": 0.17647050000000064,
            "durationTicks": 30,
            "midi": 85,
            "name": "C#6",
            "ticks": 7860,
            "time": 46.235271,
            "velocity": 0.7086614173228346
          },
          {
            "duration": 0.8823525000000032,
            "durationTicks": 150,
            "midi": 80,
            "name": "G#5",
            "ticks": 7890,
            "time": 46.4117415,
            "velocity": 0.7086614173228346
          },
          {
            "duration": 0.8823525000000032,
            "durationTicks": 150,
            "midi": 76,
            "name": "E5",
            "ticks": 7890,
            "time": 46.4117415,
            "velocity": 0.7086614173228346
          },
          {
            "duration": 0.8823525000000032,
            "durationTicks": 150,
            "midi": 73,
            "name": "C#5",
            "ticks": 7890,
            "time": 46.4117415,
            "velocity": 0.7086614173228346
          },
          {
            "duration": 0.8823525000000032,
            "durationTicks": 150,
            "midi": 69,
            "name": "A4",
            "ticks": 7890,
            "time": 46.4117415,
            "velocity": 0.7086614173228346
          },
          {
            "duration": 0.8823525000000032,
            "durationTicks": 150,
            "midi": 81,
            "name": "A5",
            "ticks": 7890,
            "time": 46.4117415,
            "velocity": 0.7086614173228346
          },
          {
            "duration": 0.8823525000000032,
            "durationTicks": 150,
            "midi": 92,
            "name": "G#6",
            "ticks": 7890,
            "time": 46.4117415,
            "velocity": 0.7086614173228346
          },
          {
            "duration": 0.8823525000000032,
            "durationTicks": 150,
            "midi": 88,
            "name": "E6",
            "ticks": 7890,
            "time": 46.4117415,
            "velocity": 0.7086614173228346
          },
          {
            "duration": 0.8823525000000032,
            "durationTicks": 150,
            "midi": 85,
            "name": "C#6",
            "ticks": 7890,
            "time": 46.4117415,
            "velocity": 0.7086614173228346
          },
          {
            "duration": 0.5235291499999946,
            "durationTicks": 89,
            "midi": 83,
            "name": "B5",
            "ticks": 8070,
            "time": 47.4705645,
            "velocity": 0.7086614173228346
          },
          {
            "duration": 0.5235291499999946,
            "durationTicks": 89,
            "midi": 95,
            "name": "B6",
            "ticks": 8070,
            "time": 47.4705645,
            "velocity": 0.7086614173228346
          },
          {
            "duration": 0.6999996499999952,
            "durationTicks": 119,
            "midi": 92,
            "name": "G#6",
            "ticks": 8160,
            "time": 47.999976000000004,
            "velocity": 0.7086614173228346
          },
          {
            "duration": 0.6999996499999952,
            "durationTicks": 119,
            "midi": 87,
            "name": "D#6",
            "ticks": 8160,
            "time": 47.999976000000004,
            "velocity": 0.7086614173228346
          },
          {
            "duration": 0.6999996499999952,
            "durationTicks": 119,
            "midi": 83,
            "name": "B5",
            "ticks": 8160,
            "time": 47.999976000000004,
            "velocity": 0.7086614173228346
          },
          {
            "duration": 0.17647050000000064,
            "durationTicks": 30,
            "midi": 68,
            "name": "G#4",
            "ticks": 8400,
            "time": 49.41174,
            "velocity": 0.7086614173228346
          },
          {
            "duration": 0.17647050000000064,
            "durationTicks": 30,
            "midi": 80,
            "name": "G#5",
            "ticks": 8400,
            "time": 49.41174,
            "velocity": 0.7086614173228346
          },
          {
            "duration": 0.17647050000000064,
            "durationTicks": 30,
            "midi": 64,
            "name": "E4",
            "ticks": 8430,
            "time": 49.5882105,
            "velocity": 0.7086614173228346
          },
          {
            "duration": 0.17647050000000064,
            "durationTicks": 30,
            "midi": 76,
            "name": "E5",
            "ticks": 8430,
            "time": 49.5882105,
            "velocity": 0.7086614173228346
          },
          {
            "duration": 0.17647050000000064,
            "durationTicks": 30,
            "midi": 66,
            "name": "F#4",
            "ticks": 8460,
            "time": 49.764681,
            "velocity": 0.7086614173228346
          },
          {
            "duration": 0.17647050000000064,
            "durationTicks": 30,
            "midi": 78,
            "name": "F#5",
            "ticks": 8460,
            "time": 49.764681,
            "velocity": 0.7086614173228346
          },
          {
            "duration": 0.17647049999999354,
            "durationTicks": 30,
            "midi": 68,
            "name": "G#4",
            "ticks": 8490,
            "time": 49.941151500000004,
            "velocity": 0.7086614173228346
          },
          {
            "duration": 0.17647049999999354,
            "durationTicks": 30,
            "midi": 80,
            "name": "G#5",
            "ticks": 8490,
            "time": 49.941151500000004,
            "velocity": 0.7086614173228346
          },
          {
            "duration": 0.17647050000000064,
            "durationTicks": 30,
            "midi": 75,
            "name": "D#5",
            "ticks": 8550,
            "time": 50.2940925,
            "velocity": 0.7086614173228346
          },
          {
            "duration": 0.17647050000000064,
            "durationTicks": 30,
            "midi": 87,
            "name": "D#6",
            "ticks": 8550,
            "time": 50.2940925,
            "velocity": 0.7086614173228346
          },
          {
            "duration": 0.22941165000000296,
            "durationTicks": 39,
            "midi": 73,
            "name": "C#5",
            "ticks": 8610,
            "time": 50.6470335,
            "velocity": 0.7086614173228346
          },
          {
            "duration": 0.22941165000000296,
            "durationTicks": 39,
            "midi": 79,
            "name": "G5",
            "ticks": 8610,
            "time": 50.6470335,
            "velocity": 0.7086614173228346
          },
          {
            "duration": 0.22941165000000296,
            "durationTicks": 39,
            "midi": 82,
            "name": "A#5",
            "ticks": 8610,
            "time": 50.6470335,
            "velocity": 0.7086614173228346
          },
          {
            "duration": 0.22941165000000296,
            "durationTicks": 39,
            "midi": 85,
            "name": "C#6",
            "ticks": 8610,
            "time": 50.6470335,
            "velocity": 0.7086614173228346
          },
          {
            "duration": 0.17647050000000064,
            "durationTicks": 30,
            "midi": 70,
            "name": "A#4",
            "ticks": 8880,
            "time": 52.235268,
            "velocity": 0.7086614173228346
          },
          {
            "duration": 0.17647050000000064,
            "durationTicks": 30,
            "midi": 82,
            "name": "A#5",
            "ticks": 8880,
            "time": 52.235268,
            "velocity": 0.7086614173228346
          },
          {
            "duration": 0.17647050000000064,
            "durationTicks": 30,
            "midi": 70,
            "name": "A#4",
            "ticks": 8910,
            "time": 52.4117385,
            "velocity": 0.7086614173228346
          },
          {
            "duration": 0.17647050000000064,
            "durationTicks": 30,
            "midi": 82,
            "name": "A#5",
            "ticks": 8910,
            "time": 52.4117385,
            "velocity": 0.7086614173228346
          },
          {
            "duration": 0.17647050000000064,
            "durationTicks": 30,
            "midi": 71,
            "name": "B4",
            "ticks": 8970,
            "time": 52.7646795,
            "velocity": 0.7086614173228346
          },
          {
            "duration": 0.17647050000000064,
            "durationTicks": 30,
            "midi": 80,
            "name": "G#5",
            "ticks": 8970,
            "time": 52.7646795,
            "velocity": 0.7086614173228346
          },
          {
            "duration": 0.17647050000000064,
            "durationTicks": 30,
            "midi": 83,
            "name": "B5",
            "ticks": 8970,
            "time": 52.7646795,
            "velocity": 0.7086614173228346
          },
          {
            "duration": 0.17647050000000064,
            "durationTicks": 30,
            "midi": 73,
            "name": "C#5",
            "ticks": 9030,
            "time": 53.1176205,
            "velocity": 0.7086614173228346
          },
          {
            "duration": 0.17647050000000064,
            "durationTicks": 30,
            "midi": 85,
            "name": "C#6",
            "ticks": 9030,
            "time": 53.1176205,
            "velocity": 0.7086614173228346
          },
          {
            "duration": 0.17647050000000064,
            "durationTicks": 30,
            "midi": 79,
            "name": "G5",
            "ticks": 9030,
            "time": 53.1176205,
            "velocity": 0.7086614173228346
          },
          {
            "duration": 1.5882344999999987,
            "durationTicks": 270,
            "midi": 74,
            "name": "D5",
            "ticks": 9090,
            "time": 53.4705615,
            "velocity": 0.7086614173228346
          },
          {
            "duration": 1.5882344999999987,
            "durationTicks": 270,
            "midi": 68,
            "name": "G#4",
            "ticks": 9090,
            "time": 53.4705615,
            "velocity": 0.7086614173228346
          },
          {
            "duration": 1.5882344999999987,
            "durationTicks": 270,
            "midi": 86,
            "name": "D6",
            "ticks": 9090,
            "time": 53.4705615,
            "velocity": 0.7086614173228346
          },
          {
            "duration": 1.5882344999999987,
            "durationTicks": 270,
            "midi": 83,
            "name": "B5",
            "ticks": 9090,
            "time": 53.4705615,
            "velocity": 0.7086614173228346
          },
          {
            "duration": 1.5882344999999987,
            "durationTicks": 270,
            "midi": 78,
            "name": "F#5",
            "ticks": 9090,
            "time": 53.4705615,
            "velocity": 0.7086614173228346
          },
          {
            "duration": 0.052941150000002324,
            "durationTicks": 9,
            "midi": 71,
            "name": "B4",
            "ticks": 9465,
            "time": 55.67644275,
            "velocity": 0.7086614173228346
          },
          {
            "duration": 0.052941150000002324,
            "durationTicks": 9,
            "midi": 83,
            "name": "B5",
            "ticks": 9465,
            "time": 55.67644275,
            "velocity": 0.7086614173228346
          },
          {
            "duration": 0.052941150000002324,
            "durationTicks": 9,
            "midi": 72,
            "name": "C5",
            "ticks": 9475,
            "time": 55.735266249999995,
            "velocity": 0.7086614173228346
          },
          {
            "duration": 0.052941150000002324,
            "durationTicks": 9,
            "midi": 84,
            "name": "C6",
            "ticks": 9475,
            "time": 55.735266249999995,
            "velocity": 0.7086614173228346
          },
          {
            "duration": 0.17647050000000064,
            "durationTicks": 30,
            "midi": 73,
            "name": "C#5",
            "ticks": 9480,
            "time": 55.764678,
            "velocity": 0.7086614173228346
          },
          {
            "duration": 0.17647050000000064,
            "durationTicks": 30,
            "midi": 85,
            "name": "C#6",
            "ticks": 9480,
            "time": 55.764678,
            "velocity": 0.7086614173228346
          },
          {
            "duration": 0.17647049999999354,
            "durationTicks": 30,
            "midi": 71,
            "name": "B4",
            "ticks": 9510,
            "time": 55.941148500000004,
            "velocity": 0.7086614173228346
          },
          {
            "duration": 0.17647049999999354,
            "durationTicks": 30,
            "midi": 83,
            "name": "B5",
            "ticks": 9510,
            "time": 55.941148500000004,
            "velocity": 0.7086614173228346
          },
          {
            "duration": 0.17647050000000064,
            "durationTicks": 30,
            "midi": 71,
            "name": "B4",
            "ticks": 9570,
            "time": 56.2940895,
            "velocity": 0.7086614173228346
          },
          {
            "duration": 0.17647050000000064,
            "durationTicks": 30,
            "midi": 83,
            "name": "B5",
            "ticks": 9570,
            "time": 56.2940895,
            "velocity": 0.7086614173228346
          },
          {
            "duration": 0.17647050000000064,
            "durationTicks": 30,
            "midi": 69,
            "name": "A4",
            "ticks": 9630,
            "time": 56.6470305,
            "velocity": 0.7086614173228346
          },
          {
            "duration": 0.17647050000000064,
            "durationTicks": 30,
            "midi": 81,
            "name": "A5",
            "ticks": 9630,
            "time": 56.6470305,
            "velocity": 0.7086614173228346
          },
          {
            "duration": 0.17647050000000064,
            "durationTicks": 30,
            "midi": 68,
            "name": "G#4",
            "ticks": 9690,
            "time": 56.9999715,
            "velocity": 0.7086614173228346
          },
          {
            "duration": 0.17647050000000064,
            "durationTicks": 30,
            "midi": 80,
            "name": "G#5",
            "ticks": 9690,
            "time": 56.9999715,
            "velocity": 0.7086614173228346
          },
          {
            "duration": 0.17647050000000064,
            "durationTicks": 30,
            "midi": 73,
            "name": "C#5",
            "ticks": 9750,
            "time": 57.3529125,
            "velocity": 0.7086614173228346
          },
          {
            "duration": 0.17647050000000064,
            "durationTicks": 30,
            "midi": 85,
            "name": "C#6",
            "ticks": 9750,
            "time": 57.3529125,
            "velocity": 0.7086614173228346
          },
          {
            "duration": 0.17647050000000064,
            "durationTicks": 30,
            "midi": 71,
            "name": "B4",
            "ticks": 9780,
            "time": 57.529383,
            "velocity": 0.7086614173228346
          },
          {
            "duration": 0.17647050000000064,
            "durationTicks": 30,
            "midi": 83,
            "name": "B5",
            "ticks": 9780,
            "time": 57.529383,
            "velocity": 0.7086614173228346
          },
          {
            "duration": 0.17647050000000064,
            "durationTicks": 30,
            "midi": 69,
            "name": "A4",
            "ticks": 10320,
            "time": 60.705852,
            "velocity": 0.7086614173228346
          },
          {
            "duration": 0.17647050000000064,
            "durationTicks": 30,
            "midi": 81,
            "name": "A5",
            "ticks": 10320,
            "time": 60.705852,
            "velocity": 0.7086614173228346
          },
          {
            "duration": 0.17647050000000064,
            "durationTicks": 30,
            "midi": 66,
            "name": "F#4",
            "ticks": 10350,
            "time": 60.8823225,
            "velocity": 0.7086614173228346
          },
          {
            "duration": 0.17647050000000064,
            "durationTicks": 30,
            "midi": 78,
            "name": "F#5",
            "ticks": 10350,
            "time": 60.8823225,
            "velocity": 0.7086614173228346
          },
          {
            "duration": 0.17647050000000064,
            "durationTicks": 30,
            "midi": 68,
            "name": "G#4",
            "ticks": 10380,
            "time": 61.058793,
            "velocity": 0.7086614173228346
          },
          {
            "duration": 0.17647050000000064,
            "durationTicks": 30,
            "midi": 80,
            "name": "G#5",
            "ticks": 10380,
            "time": 61.058793,
            "velocity": 0.7086614173228346
          },
          {
            "duration": 0.17647050000000064,
            "durationTicks": 30,
            "midi": 69,
            "name": "A4",
            "ticks": 10410,
            "time": 61.2352635,
            "velocity": 0.7086614173228346
          },
          {
            "duration": 0.17647050000000064,
            "durationTicks": 30,
            "midi": 81,
            "name": "A5",
            "ticks": 10410,
            "time": 61.2352635,
            "velocity": 0.7086614173228346
          },
          {
            "duration": 0.17647050000000064,
            "durationTicks": 30,
            "midi": 78,
            "name": "F#5",
            "ticks": 10470,
            "time": 61.5882045,
            "velocity": 0.7086614173228346
          },
          {
            "duration": 0.17647050000000064,
            "durationTicks": 30,
            "midi": 90,
            "name": "F#6",
            "ticks": 10470,
            "time": 61.5882045,
            "velocity": 0.7086614173228346
          },
          {
            "duration": 0.22941165000000296,
            "durationTicks": 39,
            "midi": 76,
            "name": "E5",
            "ticks": 10530,
            "time": 61.9411455,
            "velocity": 0.7086614173228346
          },
          {
            "duration": 0.22941165000000296,
            "durationTicks": 39,
            "midi": 80,
            "name": "G#5",
            "ticks": 10530,
            "time": 61.9411455,
            "velocity": 0.7086614173228346
          },
          {
            "duration": 0.22941165000000296,
            "durationTicks": 39,
            "midi": 83,
            "name": "B5",
            "ticks": 10530,
            "time": 61.9411455,
            "velocity": 0.7086614173228346
          },
          {
            "duration": 0.22941165000000296,
            "durationTicks": 39,
            "midi": 85,
            "name": "C#6",
            "ticks": 10530,
            "time": 61.9411455,
            "velocity": 0.7086614173228346
          },
          {
            "duration": 0.22941165000000296,
            "durationTicks": 39,
            "midi": 88,
            "name": "E6",
            "ticks": 10530,
            "time": 61.9411455,
            "velocity": 0.7086614173228346
          },
          {
            "duration": 0.17647050000000064,
            "durationTicks": 30,
            "midi": 73,
            "name": "C#5",
            "ticks": 10800,
            "time": 63.52938,
            "velocity": 0.7086614173228346
          },
          {
            "duration": 0.17647050000000064,
            "durationTicks": 30,
            "midi": 78,
            "name": "F#5",
            "ticks": 10800,
            "time": 63.52938,
            "velocity": 0.7086614173228346
          },
          {
            "duration": 0.17647050000000064,
            "durationTicks": 30,
            "midi": 82,
            "name": "A#5",
            "ticks": 10800,
            "time": 63.52938,
            "velocity": 0.7086614173228346
          },
          {
            "duration": 0.17647050000000064,
            "durationTicks": 30,
            "midi": 85,
            "name": "C#6",
            "ticks": 10800,
            "time": 63.52938,
            "velocity": 0.7086614173228346
          },
          {
            "duration": 0.17647049999999354,
            "durationTicks": 30,
            "midi": 74,
            "name": "D5",
            "ticks": 10830,
            "time": 63.705850500000004,
            "velocity": 0.7086614173228346
          },
          {
            "duration": 0.17647049999999354,
            "durationTicks": 30,
            "midi": 86,
            "name": "D6",
            "ticks": 10830,
            "time": 63.705850500000004,
            "velocity": 0.7086614173228346
          },
          {
            "duration": 0.17647050000000064,
            "durationTicks": 30,
            "midi": 76,
            "name": "E5",
            "ticks": 10860,
            "time": 63.882321,
            "velocity": 0.7086614173228346
          },
          {
            "duration": 0.17647050000000064,
            "durationTicks": 30,
            "midi": 88,
            "name": "E6",
            "ticks": 10860,
            "time": 63.882321,
            "velocity": 0.7086614173228346
          },
          {
            "duration": 0.17647050000000775,
            "durationTicks": 30,
            "midi": 81,
            "name": "A5",
            "ticks": 10890,
            "time": 64.0587915,
            "velocity": 0.7086614173228346
          },
          {
            "duration": 0.17647050000000775,
            "durationTicks": 30,
            "midi": 93,
            "name": "A6",
            "ticks": 10890,
            "time": 64.0587915,
            "velocity": 0.7086614173228346
          },
          {
            "duration": 0.17647050000000775,
            "durationTicks": 30,
            "midi": 78,
            "name": "F#5",
            "ticks": 10950,
            "time": 64.4117325,
            "velocity": 0.7086614173228346
          },
          {
            "duration": 0.17647050000000775,
            "durationTicks": 30,
            "midi": 90,
            "name": "F#6",
            "ticks": 10950,
            "time": 64.4117325,
            "velocity": 0.7086614173228346
          },
          {
            "duration": 0.17647049999999354,
            "durationTicks": 30,
            "midi": 73,
            "name": "C#5",
            "ticks": 11010,
            "time": 64.7646735,
            "velocity": 0.7086614173228346
          },
          {
            "duration": 0.17647049999999354,
            "durationTicks": 30,
            "midi": 85,
            "name": "C#6",
            "ticks": 11010,
            "time": 64.7646735,
            "velocity": 0.7086614173228346
          },
          {
            "duration": 0.17647049999999354,
            "durationTicks": 30,
            "midi": 76,
            "name": "E5",
            "ticks": 11070,
            "time": 65.1176145,
            "velocity": 0.7086614173228346
          },
          {
            "duration": 0.17647049999999354,
            "durationTicks": 30,
            "midi": 88,
            "name": "E6",
            "ticks": 11070,
            "time": 65.1176145,
            "velocity": 0.7086614173228346
          },
          {
            "duration": 0.17647050000000775,
            "durationTicks": 30,
            "midi": 74,
            "name": "D5",
            "ticks": 11100,
            "time": 65.294085,
            "velocity": 0.7086614173228346
          },
          {
            "duration": 0.17058815000000038,
            "durationTicks": 29,
            "midi": 86,
            "name": "D6",
            "ticks": 11100,
            "time": 65.294085,
            "velocity": 0.7086614173228346
          },
          {
            "duration": 0.17647050000000775,
            "durationTicks": 30,
            "midi": 62,
            "name": "D4",
            "ticks": 11370,
            "time": 66.8823195,
            "velocity": 0.7086614173228346
          },
          {
            "duration": 0.17647050000000775,
            "durationTicks": 30,
            "midi": 74,
            "name": "D5",
            "ticks": 11370,
            "time": 66.8823195,
            "velocity": 0.7086614173228346
          },
          {
            "duration": 0.17647049999999354,
            "durationTicks": 30,
            "midi": 66,
            "name": "F#4",
            "ticks": 11400,
            "time": 67.05879,
            "velocity": 0.7086614173228346
          },
          {
            "duration": 0.17647049999999354,
            "durationTicks": 30,
            "midi": 78,
            "name": "F#5",
            "ticks": 11400,
            "time": 67.05879,
            "velocity": 0.7086614173228346
          },
          {
            "duration": 0.17647050000000775,
            "durationTicks": 30,
            "midi": 69,
            "name": "A4",
            "ticks": 11430,
            "time": 67.2352605,
            "velocity": 0.7086614173228346
          },
          {
            "duration": 0.17647050000000775,
            "durationTicks": 30,
            "midi": 81,
            "name": "A5",
            "ticks": 11430,
            "time": 67.2352605,
            "velocity": 0.7086614173228346
          },
          {
            "duration": 0.17647049999999354,
            "durationTicks": 30,
            "midi": 66,
            "name": "F#4",
            "ticks": 11460,
            "time": 67.411731,
            "velocity": 0.7086614173228346
          },
          {
            "duration": 0.17647049999999354,
            "durationTicks": 30,
            "midi": 78,
            "name": "F#5",
            "ticks": 11460,
            "time": 67.411731,
            "velocity": 0.7086614173228346
          },
          {
            "duration": 0.8823525000000103,
            "durationTicks": 150,
            "midi": 71,
            "name": "B4",
            "ticks": 11490,
            "time": 67.5882015,
            "velocity": 0.7086614173228346
          },
          {
            "duration": 0.8823525000000103,
            "durationTicks": 150,
            "midi": 75,
            "name": "D#5",
            "ticks": 11490,
            "time": 67.5882015,
            "velocity": 0.7086614173228346
          },
          {
            "duration": 0.8823525000000103,
            "durationTicks": 150,
            "midi": 78,
            "name": "F#5",
            "ticks": 11490,
            "time": 67.5882015,
            "velocity": 0.7086614173228346
          },
          {
            "duration": 0.8823525000000103,
            "durationTicks": 150,
            "midi": 80,
            "name": "G#5",
            "ticks": 11490,
            "time": 67.5882015,
            "velocity": 0.7086614173228346
          },
          {
            "duration": 0.8823525000000103,
            "durationTicks": 150,
            "midi": 83,
            "name": "B5",
            "ticks": 11490,
            "time": 67.5882015,
            "velocity": 0.7086614173228346
          },
          {
            "duration": 0.17647049999999354,
            "durationTicks": 30,
            "midi": 75,
            "name": "D#5",
            "ticks": 11640,
            "time": 68.470554,
            "velocity": 0.7086614173228346
          },
          {
            "duration": 0.17647049999999354,
            "durationTicks": 30,
            "midi": 87,
            "name": "D#6",
            "ticks": 11640,
            "time": 68.470554,
            "velocity": 0.7086614173228346
          },
          {
            "duration": 0.17647049999999354,
            "durationTicks": 30,
            "midi": 83,
            "name": "B5",
            "ticks": 11640,
            "time": 68.470554,
            "velocity": 0.7086614173228346
          },
          {
            "duration": 0.17647049999999354,
            "durationTicks": 30,
            "midi": 78,
            "name": "F#5",
            "ticks": 11670,
            "time": 68.6470245,
            "velocity": 0.7086614173228346
          },
          {
            "duration": 0.17647049999999354,
            "durationTicks": 30,
            "midi": 90,
            "name": "F#6",
            "ticks": 11670,
            "time": 68.6470245,
            "velocity": 0.7086614173228346
          },
          {
            "duration": 0.17647049999999354,
            "durationTicks": 30,
            "midi": 87,
            "name": "D#6",
            "ticks": 11670,
            "time": 68.6470245,
            "velocity": 0.7086614173228346
          },
          {
            "duration": 0.17647050000000775,
            "durationTicks": 30,
            "midi": 75,
            "name": "D#5",
            "ticks": 11700,
            "time": 68.823495,
            "velocity": 0.7086614173228346
          },
          {
            "duration": 0.17647050000000775,
            "durationTicks": 30,
            "midi": 83,
            "name": "B5",
            "ticks": 11700,
            "time": 68.823495,
            "velocity": 0.7086614173228346
          },
          {
            "duration": 0.17647050000000775,
            "durationTicks": 30,
            "midi": 87,
            "name": "D#6",
            "ticks": 11700,
            "time": 68.823495,
            "velocity": 0.7086614173228346
          },
          {
            "duration": 0.8823524999999961,
            "durationTicks": 150,
            "midi": 82,
            "name": "A#5",
            "ticks": 11730,
            "time": 68.9999655,
            "velocity": 0.7086614173228346
          },
          {
            "duration": 0.8823524999999961,
            "durationTicks": 150,
            "midi": 78,
            "name": "F#5",
            "ticks": 11730,
            "time": 68.9999655,
            "velocity": 0.7086614173228346
          },
          {
            "duration": 0.8823524999999961,
            "durationTicks": 150,
            "midi": 75,
            "name": "D#5",
            "ticks": 11730,
            "time": 68.9999655,
            "velocity": 0.7086614173228346
          },
          {
            "duration": 0.8823524999999961,
            "durationTicks": 150,
            "midi": 71,
            "name": "B4",
            "ticks": 11730,
            "time": 68.9999655,
            "velocity": 0.7086614173228346
          },
          {
            "duration": 0.8823524999999961,
            "durationTicks": 150,
            "midi": 94,
            "name": "A#6",
            "ticks": 11730,
            "time": 68.9999655,
            "velocity": 0.7086614173228346
          },
          {
            "duration": 0.8823524999999961,
            "durationTicks": 150,
            "midi": 90,
            "name": "F#6",
            "ticks": 11730,
            "time": 68.9999655,
            "velocity": 0.7086614173228346
          },
          {
            "duration": 0.8823524999999961,
            "durationTicks": 150,
            "midi": 87,
            "name": "D#6",
            "ticks": 11730,
            "time": 68.9999655,
            "velocity": 0.7086614173228346
          },
          {
            "duration": 0.8823524999999961,
            "durationTicks": 150,
            "midi": 83,
            "name": "B5",
            "ticks": 11730,
            "time": 68.9999655,
            "velocity": 0.7086614173228346
          },
          {
            "duration": 0.17647050000002196,
            "durationTicks": 30,
            "midi": 66,
            "name": "F#4",
            "ticks": 31440,
            "time": 184.941084,
            "velocity": 0.7086614173228346
          },
          {
            "duration": 0.17647050000002196,
            "durationTicks": 30,
            "midi": 78,
            "name": "F#5",
            "ticks": 31440,
            "time": 184.941084,
            "velocity": 0.7086614173228346
          },
          {
            "duration": 0.17647049999999354,
            "durationTicks": 30,
            "midi": 62,
            "name": "D4",
            "ticks": 31470,
            "time": 185.1175545,
            "velocity": 0.7086614173228346
          },
          {
            "duration": 0.17647049999999354,
            "durationTicks": 30,
            "midi": 74,
            "name": "D5",
            "ticks": 31470,
            "time": 185.1175545,
            "velocity": 0.7086614173228346
          },
          {
            "duration": 0.17647049999999354,
            "durationTicks": 30,
            "midi": 64,
            "name": "E4",
            "ticks": 31500,
            "time": 185.294025,
            "velocity": 0.7086614173228346
          },
          {
            "duration": 0.17647049999999354,
            "durationTicks": 30,
            "midi": 76,
            "name": "E5",
            "ticks": 31500,
            "time": 185.294025,
            "velocity": 0.7086614173228346
          },
          {
            "duration": 0.17647049999999354,
            "durationTicks": 30,
            "midi": 66,
            "name": "F#4",
            "ticks": 31530,
            "time": 185.4704955,
            "velocity": 0.7086614173228346
          },
          {
            "duration": 0.17647049999999354,
            "durationTicks": 30,
            "midi": 78,
            "name": "F#5",
            "ticks": 31530,
            "time": 185.4704955,
            "velocity": 0.7086614173228346
          },
          {
            "duration": 0.17647049999999354,
            "durationTicks": 30,
            "midi": 73,
            "name": "C#5",
            "ticks": 31590,
            "time": 185.8234365,
            "velocity": 0.7086614173228346
          },
          {
            "duration": 0.17647049999999354,
            "durationTicks": 30,
            "midi": 85,
            "name": "C#6",
            "ticks": 31590,
            "time": 185.8234365,
            "velocity": 0.7086614173228346
          },
          {
            "duration": 0.22941165000000296,
            "durationTicks": 39,
            "midi": 71,
            "name": "B4",
            "ticks": 31650,
            "time": 186.1763775,
            "velocity": 0.7086614173228346
          },
          {
            "duration": 0.22941165000000296,
            "durationTicks": 39,
            "midi": 77,
            "name": "F5",
            "ticks": 31650,
            "time": 186.1763775,
            "velocity": 0.7086614173228346
          },
          {
            "duration": 0.22941165000000296,
            "durationTicks": 39,
            "midi": 80,
            "name": "G#5",
            "ticks": 31650,
            "time": 186.1763775,
            "velocity": 0.7086614173228346
          },
          {
            "duration": 0.22941165000000296,
            "durationTicks": 39,
            "midi": 83,
            "name": "B5",
            "ticks": 31650,
            "time": 186.1763775,
            "velocity": 0.7086614173228346
          },
          {
            "duration": 0.17647049999999354,
            "durationTicks": 30,
            "midi": 68,
            "name": "G#4",
            "ticks": 31920,
            "time": 187.764612,
            "velocity": 0.7086614173228346
          },
          {
            "duration": 0.17647049999999354,
            "durationTicks": 30,
            "midi": 80,
            "name": "G#5",
            "ticks": 31920,
            "time": 187.764612,
            "velocity": 0.7086614173228346
          },
          {
            "duration": 0.17647050000002196,
            "durationTicks": 30,
            "midi": 68,
            "name": "G#4",
            "ticks": 31950,
            "time": 187.9410825,
            "velocity": 0.7086614173228346
          },
          {
            "duration": 0.17647050000002196,
            "durationTicks": 30,
            "midi": 80,
            "name": "G#5",
            "ticks": 31950,
            "time": 187.9410825,
            "velocity": 0.7086614173228346
          },
          {
            "duration": 0.17647049999999354,
            "durationTicks": 30,
            "midi": 69,
            "name": "A4",
            "ticks": 32010,
            "time": 188.2940235,
            "velocity": 0.7086614173228346
          },
          {
            "duration": 0.17647049999999354,
            "durationTicks": 30,
            "midi": 78,
            "name": "F#5",
            "ticks": 32010,
            "time": 188.2940235,
            "velocity": 0.7086614173228346
          },
          {
            "duration": 0.17647049999999354,
            "durationTicks": 30,
            "midi": 81,
            "name": "A5",
            "ticks": 32010,
            "time": 188.2940235,
            "velocity": 0.7086614173228346
          },
          {
            "duration": 0.17647049999999354,
            "durationTicks": 30,
            "midi": 71,
            "name": "B4",
            "ticks": 32070,
            "time": 188.6469645,
            "velocity": 0.7086614173228346
          },
          {
            "duration": 0.17647049999999354,
            "durationTicks": 30,
            "midi": 83,
            "name": "B5",
            "ticks": 32070,
            "time": 188.6469645,
            "velocity": 0.7086614173228346
          },
          {
            "duration": 0.17647049999999354,
            "durationTicks": 30,
            "midi": 77,
            "name": "F5",
            "ticks": 32070,
            "time": 188.6469645,
            "velocity": 0.7086614173228346
          },
          {
            "duration": 1.5882344999999987,
            "durationTicks": 270,
            "midi": 66,
            "name": "F#4",
            "ticks": 32130,
            "time": 188.9999055,
            "velocity": 0.7086614173228346
          },
          {
            "duration": 1.5882344999999987,
            "durationTicks": 270,
            "midi": 72,
            "name": "C5",
            "ticks": 32130,
            "time": 188.9999055,
            "velocity": 0.7086614173228346
          },
          {
            "duration": 1.5882344999999987,
            "durationTicks": 270,
            "midi": 84,
            "name": "C6",
            "ticks": 32130,
            "time": 188.9999055,
            "velocity": 0.7086614173228346
          },
          {
            "duration": 1.5882344999999987,
            "durationTicks": 270,
            "midi": 81,
            "name": "A5",
            "ticks": 32130,
            "time": 188.9999055,
            "velocity": 0.7086614173228346
          },
          {
            "duration": 1.5882344999999987,
            "durationTicks": 270,
            "midi": 76,
            "name": "E5",
            "ticks": 32130,
            "time": 188.9999055,
            "velocity": 0.7086614173228346
          },
          {
            "duration": 0.05294115000003785,
            "durationTicks": 9,
            "midi": 69,
            "name": "A4",
            "ticks": 32500,
            "time": 191.17637499999998,
            "velocity": 0.7086614173228346
          },
          {
            "duration": 0.05294114999998101,
            "durationTicks": 9,
            "midi": 81,
            "name": "A5",
            "ticks": 32505,
            "time": 191.20578675000002,
            "velocity": 0.7086614173228346
          },
          {
            "duration": 0.05294114999998101,
            "durationTicks": 9,
            "midi": 70,
            "name": "A#4",
            "ticks": 32510,
            "time": 191.23519850000002,
            "velocity": 0.7086614173228346
          },
          {
            "duration": 0.05294115000003785,
            "durationTicks": 9,
            "midi": 82,
            "name": "A#5",
            "ticks": 32515,
            "time": 191.26461024999998,
            "velocity": 0.7086614173228346
          },
          {
            "duration": 0.17647049999999354,
            "durationTicks": 30,
            "midi": 71,
            "name": "B4",
            "ticks": 32520,
            "time": 191.294022,
            "velocity": 0.7086614173228346
          },
          {
            "duration": 0.17647049999999354,
            "durationTicks": 30,
            "midi": 83,
            "name": "B5",
            "ticks": 32520,
            "time": 191.294022,
            "velocity": 0.7086614173228346
          },
          {
            "duration": 0.17647049999999354,
            "durationTicks": 30,
            "midi": 69,
            "name": "A4",
            "ticks": 32550,
            "time": 191.4704925,
            "velocity": 0.7086614173228346
          },
          {
            "duration": 0.17647049999999354,
            "durationTicks": 30,
            "midi": 81,
            "name": "A5",
            "ticks": 32550,
            "time": 191.4704925,
            "velocity": 0.7086614173228346
          },
          {
            "duration": 0.17647050000002196,
            "durationTicks": 30,
            "midi": 69,
            "name": "A4",
            "ticks": 32610,
            "time": 191.8234335,
            "velocity": 0.7086614173228346
          },
          {
            "duration": 0.17647050000002196,
            "durationTicks": 30,
            "midi": 81,
            "name": "A5",
            "ticks": 32610,
            "time": 191.8234335,
            "velocity": 0.7086614173228346
          },
          {
            "duration": 0.17647049999999354,
            "durationTicks": 30,
            "midi": 67,
            "name": "G4",
            "ticks": 32670,
            "time": 192.1763745,
            "velocity": 0.7086614173228346
          },
          {
            "duration": 0.17647049999999354,
            "durationTicks": 30,
            "midi": 79,
            "name": "G5",
            "ticks": 32670,
            "time": 192.1763745,
            "velocity": 0.7086614173228346
          },
          {
            "duration": 0.17647049999999354,
            "durationTicks": 30,
            "midi": 66,
            "name": "F#4",
            "ticks": 32730,
            "time": 192.5293155,
            "velocity": 0.7086614173228346
          },
          {
            "duration": 0.17647049999999354,
            "durationTicks": 30,
            "midi": 78,
            "name": "F#5",
            "ticks": 32730,
            "time": 192.5293155,
            "velocity": 0.7086614173228346
          },
          {
            "duration": 0.17647049999999354,
            "durationTicks": 30,
            "midi": 71,
            "name": "B4",
            "ticks": 32790,
            "time": 192.8822565,
            "velocity": 0.7086614173228346
          },
          {
            "duration": 0.17647049999999354,
            "durationTicks": 30,
            "midi": 83,
            "name": "B5",
            "ticks": 32790,
            "time": 192.8822565,
            "velocity": 0.7086614173228346
          },
          {
            "duration": 0.17647049999999354,
            "durationTicks": 30,
            "midi": 69,
            "name": "A4",
            "ticks": 32820,
            "time": 193.058727,
            "velocity": 0.7086614173228346
          },
          {
            "duration": 0.17647049999999354,
            "durationTicks": 30,
            "midi": 81,
            "name": "A5",
            "ticks": 32820,
            "time": 193.058727,
            "velocity": 0.7086614173228346
          },
          {
            "duration": 0.6999996500000236,
            "durationTicks": 119,
            "midi": 78,
            "name": "F#5",
            "ticks": 33000,
            "time": 194.11755,
            "velocity": 0.7086614173228346
          },
          {
            "duration": 0.6999996500000236,
            "durationTicks": 119,
            "midi": 81,
            "name": "A5",
            "ticks": 33000,
            "time": 194.11755,
            "velocity": 0.7086614173228346
          },
          {
            "duration": 0.6999996500000236,
            "durationTicks": 119,
            "midi": 86,
            "name": "D6",
            "ticks": 33000,
            "time": 194.11755,
            "velocity": 0.7086614173228346
          },
          {
            "duration": 1.0529406500000107,
            "durationTicks": 179,
            "midi": 74,
            "name": "D5",
            "ticks": 33120,
            "time": 194.823432,
            "velocity": 0.7086614173228346
          },
          {
            "duration": 1.0529406500000107,
            "durationTicks": 179,
            "midi": 79,
            "name": "G5",
            "ticks": 33120,
            "time": 194.823432,
            "velocity": 0.7086614173228346
          },
          {
            "duration": 1.0529406500000107,
            "durationTicks": 179,
            "midi": 83,
            "name": "B5",
            "ticks": 33120,
            "time": 194.823432,
            "velocity": 0.7086614173228346
          },
          {
            "duration": 0.17647049999999354,
            "durationTicks": 30,
            "midi": 67,
            "name": "G4",
            "ticks": 33360,
            "time": 196.235196,
            "velocity": 0.7086614173228346
          },
          {
            "duration": 0.17647049999999354,
            "durationTicks": 30,
            "midi": 79,
            "name": "G5",
            "ticks": 33360,
            "time": 196.235196,
            "velocity": 0.7086614173228346
          },
          {
            "duration": 0.17647049999999354,
            "durationTicks": 30,
            "midi": 64,
            "name": "E4",
            "ticks": 33390,
            "time": 196.4116665,
            "velocity": 0.7086614173228346
          },
          {
            "duration": 0.17647049999999354,
            "durationTicks": 30,
            "midi": 76,
            "name": "E5",
            "ticks": 33390,
            "time": 196.4116665,
            "velocity": 0.7086614173228346
          },
          {
            "duration": 0.17647050000002196,
            "durationTicks": 30,
            "midi": 66,
            "name": "F#4",
            "ticks": 33420,
            "time": 196.588137,
            "velocity": 0.7086614173228346
          },
          {
            "duration": 0.17647050000002196,
            "durationTicks": 30,
            "midi": 78,
            "name": "F#5",
            "ticks": 33420,
            "time": 196.588137,
            "velocity": 0.7086614173228346
          },
          {
            "duration": 0.17647049999999354,
            "durationTicks": 30,
            "midi": 67,
            "name": "G4",
            "ticks": 33450,
            "time": 196.7646075,
            "velocity": 0.7086614173228346
          },
          {
            "duration": 0.17647049999999354,
            "durationTicks": 30,
            "midi": 79,
            "name": "G5",
            "ticks": 33450,
            "time": 196.7646075,
            "velocity": 0.7086614173228346
          },
          {
            "duration": 0.17647049999999354,
            "durationTicks": 30,
            "midi": 76,
            "name": "E5",
            "ticks": 33510,
            "time": 197.1175485,
            "velocity": 0.7086614173228346
          },
          {
            "duration": 0.17647049999999354,
            "durationTicks": 30,
            "midi": 88,
            "name": "E6",
            "ticks": 33510,
            "time": 197.1175485,
            "velocity": 0.7086614173228346
          },
          {
            "duration": 0.22941164999997454,
            "durationTicks": 39,
            "midi": 74,
            "name": "D5",
            "ticks": 33570,
            "time": 197.4704895,
            "velocity": 0.7086614173228346
          },
          {
            "duration": 0.22941164999997454,
            "durationTicks": 39,
            "midi": 78,
            "name": "F#5",
            "ticks": 33570,
            "time": 197.4704895,
            "velocity": 0.7086614173228346
          },
          {
            "duration": 0.22941164999997454,
            "durationTicks": 39,
            "midi": 83,
            "name": "B5",
            "ticks": 33570,
            "time": 197.4704895,
            "velocity": 0.7086614173228346
          },
          {
            "duration": 0.22941164999997454,
            "durationTicks": 39,
            "midi": 86,
            "name": "D6",
            "ticks": 33570,
            "time": 197.4704895,
            "velocity": 0.7086614173228346
          },
          {
            "duration": 0.17647049999999354,
            "durationTicks": 30,
            "midi": 71,
            "name": "B4",
            "ticks": 33840,
            "time": 199.058724,
            "velocity": 0.7086614173228346
          },
          {
            "duration": 0.17647049999999354,
            "durationTicks": 30,
            "midi": 83,
            "name": "B5",
            "ticks": 33840,
            "time": 199.058724,
            "velocity": 0.7086614173228346
          },
          {
            "duration": 0.17647049999999354,
            "durationTicks": 30,
            "midi": 72,
            "name": "C5",
            "ticks": 33870,
            "time": 199.2351945,
            "velocity": 0.7086614173228346
          },
          {
            "duration": 0.17647049999999354,
            "durationTicks": 30,
            "midi": 84,
            "name": "C6",
            "ticks": 33870,
            "time": 199.2351945,
            "velocity": 0.7086614173228346
          },
          {
            "duration": 0.17647049999999354,
            "durationTicks": 30,
            "midi": 74,
            "name": "D5",
            "ticks": 33900,
            "time": 199.411665,
            "velocity": 0.7086614173228346
          },
          {
            "duration": 0.17647049999999354,
            "durationTicks": 30,
            "midi": 86,
            "name": "D6",
            "ticks": 33900,
            "time": 199.411665,
            "velocity": 0.7086614173228346
          },
          {
            "duration": 0.3529410000000155,
            "durationTicks": 60,
            "midi": 64,
            "name": "E4",
            "ticks": 33930,
            "time": 199.5881355,
            "velocity": 0.7086614173228346
          },
          {
            "duration": 0.3529410000000155,
            "durationTicks": 60,
            "midi": 76,
            "name": "E5",
            "ticks": 33930,
            "time": 199.5881355,
            "velocity": 0.7086614173228346
          },
          {
            "duration": 0.17647049999999354,
            "durationTicks": 30,
            "midi": 68,
            "name": "G#4",
            "ticks": 33990,
            "time": 199.9410765,
            "velocity": 0.7086614173228346
          },
          {
            "duration": 0.17647049999999354,
            "durationTicks": 30,
            "midi": 80,
            "name": "G#5",
            "ticks": 33990,
            "time": 199.9410765,
            "velocity": 0.7086614173228346
          },
          {
            "duration": 0.17647049999999354,
            "durationTicks": 30,
            "midi": 71,
            "name": "B4",
            "ticks": 34020,
            "time": 200.117547,
            "velocity": 0.7086614173228346
          },
          {
            "duration": 0.17647049999999354,
            "durationTicks": 30,
            "midi": 83,
            "name": "B5",
            "ticks": 34020,
            "time": 200.117547,
            "velocity": 0.7086614173228346
          },
          {
            "duration": 0.17647049999999354,
            "durationTicks": 30,
            "midi": 72,
            "name": "C5",
            "ticks": 34050,
            "time": 200.2940175,
            "velocity": 0.7086614173228346
          },
          {
            "duration": 0.17647049999999354,
            "durationTicks": 30,
            "midi": 84,
            "name": "C6",
            "ticks": 34050,
            "time": 200.2940175,
            "velocity": 0.7086614173228346
          },
          {
            "duration": 0.17647049999999354,
            "durationTicks": 30,
            "midi": 64,
            "name": "E4",
            "ticks": 34110,
            "time": 200.6469585,
            "velocity": 0.7086614173228346
          },
          {
            "duration": 0.17647049999999354,
            "durationTicks": 30,
            "midi": 76,
            "name": "E5",
            "ticks": 34110,
            "time": 200.6469585,
            "velocity": 0.7086614173228346
          },
          {
            "duration": 0.17647049999999354,
            "durationTicks": 30,
            "midi": 67,
            "name": "G4",
            "ticks": 34140,
            "time": 200.823429,
            "velocity": 0.7086614173228346
          },
          {
            "duration": 0.17647049999999354,
            "durationTicks": 30,
            "midi": 79,
            "name": "G5",
            "ticks": 34140,
            "time": 200.823429,
            "velocity": 0.7086614173228346
          },
          {
            "duration": 0.17647049999999354,
            "durationTicks": 30,
            "midi": 64,
            "name": "E4",
            "ticks": 34440,
            "time": 202.588134,
            "velocity": 0.7086614173228346
          },
          {
            "duration": 0.17647049999999354,
            "durationTicks": 30,
            "midi": 76,
            "name": "E5",
            "ticks": 34440,
            "time": 202.588134,
            "velocity": 0.7086614173228346
          },
          {
            "duration": 0.17647050000002196,
            "durationTicks": 30,
            "midi": 67,
            "name": "G4",
            "ticks": 34470,
            "time": 202.7646045,
            "velocity": 0.7086614173228346
          },
          {
            "duration": 0.17647050000002196,
            "durationTicks": 30,
            "midi": 79,
            "name": "G5",
            "ticks": 34470,
            "time": 202.7646045,
            "velocity": 0.7086614173228346
          },
          {
            "duration": 0.17647049999999354,
            "durationTicks": 30,
            "midi": 64,
            "name": "E4",
            "ticks": 34500,
            "time": 202.941075,
            "velocity": 0.7086614173228346
          },
          {
            "duration": 0.17647049999999354,
            "durationTicks": 30,
            "midi": 76,
            "name": "E5",
            "ticks": 34500,
            "time": 202.941075,
            "velocity": 0.7086614173228346
          },
          {
            "duration": 0.8823524999999961,
            "durationTicks": 150,
            "midi": 69,
            "name": "A4",
            "ticks": 34530,
            "time": 203.1175455,
            "velocity": 0.7086614173228346
          },
          {
            "duration": 0.8823524999999961,
            "durationTicks": 150,
            "midi": 73,
            "name": "C#5",
            "ticks": 34530,
            "time": 203.1175455,
            "velocity": 0.7086614173228346
          },
          {
            "duration": 0.8823524999999961,
            "durationTicks": 150,
            "midi": 76,
            "name": "E5",
            "ticks": 34530,
            "time": 203.1175455,
            "velocity": 0.7086614173228346
          },
          {
            "duration": 0.8823524999999961,
            "durationTicks": 150,
            "midi": 78,
            "name": "F#5",
            "ticks": 34530,
            "time": 203.1175455,
            "velocity": 0.7086614173228346
          },
          {
            "duration": 0.8823524999999961,
            "durationTicks": 150,
            "midi": 81,
            "name": "A5",
            "ticks": 34530,
            "time": 203.1175455,
            "velocity": 0.7086614173228346
          },
          {
            "duration": 0.17647049999999354,
            "durationTicks": 30,
            "midi": 73,
            "name": "C#5",
            "ticks": 34680,
            "time": 203.999898,
            "velocity": 0.7086614173228346
          },
          {
            "duration": 0.17647049999999354,
            "durationTicks": 30,
            "midi": 81,
            "name": "A5",
            "ticks": 34680,
            "time": 203.999898,
            "velocity": 0.7086614173228346
          },
          {
            "duration": 0.17647049999999354,
            "durationTicks": 30,
            "midi": 85,
            "name": "C#6",
            "ticks": 34680,
            "time": 203.999898,
            "velocity": 0.7086614173228346
          },
          {
            "duration": 0.17647049999999354,
            "durationTicks": 30,
            "midi": 76,
            "name": "E5",
            "ticks": 34710,
            "time": 204.1763685,
            "velocity": 0.7086614173228346
          },
          {
            "duration": 0.17647049999999354,
            "durationTicks": 30,
            "midi": 85,
            "name": "C#6",
            "ticks": 34710,
            "time": 204.1763685,
            "velocity": 0.7086614173228346
          },
          {
            "duration": 0.17647049999999354,
            "durationTicks": 30,
            "midi": 88,
            "name": "E6",
            "ticks": 34710,
            "time": 204.1763685,
            "velocity": 0.7086614173228346
          },
          {
            "duration": 0.17647050000002196,
            "durationTicks": 30,
            "midi": 73,
            "name": "C#5",
            "ticks": 34740,
            "time": 204.352839,
            "velocity": 0.7086614173228346
          },
          {
            "duration": 0.17647050000002196,
            "durationTicks": 30,
            "midi": 81,
            "name": "A5",
            "ticks": 34740,
            "time": 204.352839,
            "velocity": 0.7086614173228346
          },
          {
            "duration": 0.17647050000002196,
            "durationTicks": 30,
            "midi": 85,
            "name": "C#6",
            "ticks": 34740,
            "time": 204.352839,
            "velocity": 0.7086614173228346
          },
          {
            "duration": 0.8823524999999961,
            "durationTicks": 150,
            "midi": 80,
            "name": "G#5",
            "ticks": 34770,
            "time": 204.5293095,
            "velocity": 0.7086614173228346
          },
          {
            "duration": 0.8823524999999961,
            "durationTicks": 150,
            "midi": 76,
            "name": "E5",
            "ticks": 34770,
            "time": 204.5293095,
            "velocity": 0.7086614173228346
          },
          {
            "duration": 0.8823524999999961,
            "durationTicks": 150,
            "midi": 73,
            "name": "C#5",
            "ticks": 34770,
            "time": 204.5293095,
            "velocity": 0.7086614173228346
          },
          {
            "duration": 0.8823524999999961,
            "durationTicks": 150,
            "midi": 69,
            "name": "A4",
            "ticks": 34770,
            "time": 204.5293095,
            "velocity": 0.7086614173228346
          },
          {
            "duration": 0.8823524999999961,
            "durationTicks": 150,
            "midi": 81,
            "name": "A5",
            "ticks": 34770,
            "time": 204.5293095,
            "velocity": 0.7086614173228346
          },
          {
            "duration": 0.8823524999999961,
            "durationTicks": 150,
            "midi": 92,
            "name": "G#6",
            "ticks": 34770,
            "time": 204.5293095,
            "velocity": 0.7086614173228346
          },
          {
            "duration": 0.8823524999999961,
            "durationTicks": 150,
            "midi": 88,
            "name": "E6",
            "ticks": 34770,
            "time": 204.5293095,
            "velocity": 0.7086614173228346
          },
          {
            "duration": 0.8823524999999961,
            "durationTicks": 150,
            "midi": 85,
            "name": "C#6",
            "ticks": 34770,
            "time": 204.5293095,
            "velocity": 0.7086614173228346
          },
          {
            "duration": 0.5235291500000017,
            "durationTicks": 89,
            "midi": 83,
            "name": "B5",
            "ticks": 34950,
            "time": 205.5881325,
            "velocity": 0.7086614173228346
          },
          {
            "duration": 0.5235291500000017,
            "durationTicks": 89,
            "midi": 95,
            "name": "B6",
            "ticks": 34950,
            "time": 205.5881325,
            "velocity": 0.7086614173228346
          },
          {
            "duration": 0.6999996499999952,
            "durationTicks": 119,
            "midi": 92,
            "name": "G#6",
            "ticks": 35040,
            "time": 206.117544,
            "velocity": 0.7086614173228346
          },
          {
            "duration": 0.6999996499999952,
            "durationTicks": 119,
            "midi": 87,
            "name": "D#6",
            "ticks": 35040,
            "time": 206.117544,
            "velocity": 0.7086614173228346
          },
          {
            "duration": 0.6999996499999952,
            "durationTicks": 119,
            "midi": 83,
            "name": "B5",
            "ticks": 35040,
            "time": 206.117544,
            "velocity": 0.7086614173228346
          },
          {
            "duration": 0.17647049999999354,
            "durationTicks": 30,
            "midi": 68,
            "name": "G#4",
            "ticks": 35280,
            "time": 207.52930800000001,
            "velocity": 0.7086614173228346
          },
          {
            "duration": 0.17647049999999354,
            "durationTicks": 30,
            "midi": 80,
            "name": "G#5",
            "ticks": 35280,
            "time": 207.52930800000001,
            "velocity": 0.7086614173228346
          },
          {
            "duration": 0.17647049999999354,
            "durationTicks": 30,
            "midi": 64,
            "name": "E4",
            "ticks": 35310,
            "time": 207.7057785,
            "velocity": 0.7086614173228346
          },
          {
            "duration": 0.17647049999999354,
            "durationTicks": 30,
            "midi": 76,
            "name": "E5",
            "ticks": 35310,
            "time": 207.7057785,
            "velocity": 0.7086614173228346
          },
          {
            "duration": 0.17647049999999354,
            "durationTicks": 30,
            "midi": 66,
            "name": "F#4",
            "ticks": 35340,
            "time": 207.882249,
            "velocity": 0.7086614173228346
          },
          {
            "duration": 0.17647049999999354,
            "durationTicks": 30,
            "midi": 78,
            "name": "F#5",
            "ticks": 35340,
            "time": 207.882249,
            "velocity": 0.7086614173228346
          },
          {
            "duration": 0.17647049999999354,
            "durationTicks": 30,
            "midi": 68,
            "name": "G#4",
            "ticks": 35370,
            "time": 208.0587195,
            "velocity": 0.7086614173228346
          },
          {
            "duration": 0.17647049999999354,
            "durationTicks": 30,
            "midi": 80,
            "name": "G#5",
            "ticks": 35370,
            "time": 208.0587195,
            "velocity": 0.7086614173228346
          },
          {
            "duration": 0.17647049999999354,
            "durationTicks": 30,
            "midi": 75,
            "name": "D#5",
            "ticks": 35430,
            "time": 208.4116605,
            "velocity": 0.7086614173228346
          },
          {
            "duration": 0.17647049999999354,
            "durationTicks": 30,
            "midi": 87,
            "name": "D#6",
            "ticks": 35430,
            "time": 208.4116605,
            "velocity": 0.7086614173228346
          },
          {
            "duration": 0.22941165000000296,
            "durationTicks": 39,
            "midi": 73,
            "name": "C#5",
            "ticks": 35490,
            "time": 208.7646015,
            "velocity": 0.7086614173228346
          },
          {
            "duration": 0.22941165000000296,
            "durationTicks": 39,
            "midi": 79,
            "name": "G5",
            "ticks": 35490,
            "time": 208.7646015,
            "velocity": 0.7086614173228346
          },
          {
            "duration": 0.22941165000000296,
            "durationTicks": 39,
            "midi": 82,
            "name": "A#5",
            "ticks": 35490,
            "time": 208.7646015,
            "velocity": 0.7086614173228346
          },
          {
            "duration": 0.22941165000000296,
            "durationTicks": 39,
            "midi": 85,
            "name": "C#6",
            "ticks": 35490,
            "time": 208.7646015,
            "velocity": 0.7086614173228346
          },
          {
            "duration": 0.17647049999999354,
            "durationTicks": 30,
            "midi": 70,
            "name": "A#4",
            "ticks": 35760,
            "time": 210.352836,
            "velocity": 0.7086614173228346
          },
          {
            "duration": 0.17647049999999354,
            "durationTicks": 30,
            "midi": 82,
            "name": "A#5",
            "ticks": 35760,
            "time": 210.352836,
            "velocity": 0.7086614173228346
          },
          {
            "duration": 0.17647050000002196,
            "durationTicks": 30,
            "midi": 70,
            "name": "A#4",
            "ticks": 35790,
            "time": 210.5293065,
            "velocity": 0.7086614173228346
          },
          {
            "duration": 0.17647050000002196,
            "durationTicks": 30,
            "midi": 82,
            "name": "A#5",
            "ticks": 35790,
            "time": 210.5293065,
            "velocity": 0.7086614173228346
          },
          {
            "duration": 0.17647049999999354,
            "durationTicks": 30,
            "midi": 71,
            "name": "B4",
            "ticks": 35850,
            "time": 210.8822475,
            "velocity": 0.7086614173228346
          },
          {
            "duration": 0.17647049999999354,
            "durationTicks": 30,
            "midi": 80,
            "name": "G#5",
            "ticks": 35850,
            "time": 210.8822475,
            "velocity": 0.7086614173228346
          },
          {
            "duration": 0.17647049999999354,
            "durationTicks": 30,
            "midi": 83,
            "name": "B5",
            "ticks": 35850,
            "time": 210.8822475,
            "velocity": 0.7086614173228346
          },
          {
            "duration": 0.17647050000002196,
            "durationTicks": 30,
            "midi": 73,
            "name": "C#5",
            "ticks": 35910,
            "time": 211.2351885,
            "velocity": 0.7086614173228346
          },
          {
            "duration": 0.17647050000002196,
            "durationTicks": 30,
            "midi": 85,
            "name": "C#6",
            "ticks": 35910,
            "time": 211.2351885,
            "velocity": 0.7086614173228346
          },
          {
            "duration": 0.17647050000002196,
            "durationTicks": 30,
            "midi": 79,
            "name": "G5",
            "ticks": 35910,
            "time": 211.2351885,
            "velocity": 0.7086614173228346
          },
          {
            "duration": 1.5882344999999987,
            "durationTicks": 270,
            "midi": 74,
            "name": "D5",
            "ticks": 35970,
            "time": 211.5881295,
            "velocity": 0.7086614173228346
          },
          {
            "duration": 1.5882344999999987,
            "durationTicks": 270,
            "midi": 68,
            "name": "G#4",
            "ticks": 35970,
            "time": 211.5881295,
            "velocity": 0.7086614173228346
          },
          {
            "duration": 1.5882344999999987,
            "durationTicks": 270,
            "midi": 86,
            "name": "D6",
            "ticks": 35970,
            "time": 211.5881295,
            "velocity": 0.7086614173228346
          },
          {
            "duration": 1.5882344999999987,
            "durationTicks": 270,
            "midi": 83,
            "name": "B5",
            "ticks": 35970,
            "time": 211.5881295,
            "velocity": 0.7086614173228346
          },
          {
            "duration": 1.5882344999999987,
            "durationTicks": 270,
            "midi": 78,
            "name": "F#5",
            "ticks": 35970,
            "time": 211.5881295,
            "velocity": 0.7086614173228346
          },
          {
            "duration": 0.05294114999998101,
            "durationTicks": 9,
            "midi": 71,
            "name": "B4",
            "ticks": 36345,
            "time": 213.79401075,
            "velocity": 0.7086614173228346
          },
          {
            "duration": 0.05294114999998101,
            "durationTicks": 9,
            "midi": 83,
            "name": "B5",
            "ticks": 36345,
            "time": 213.79401075,
            "velocity": 0.7086614173228346
          },
          {
            "duration": 0.05294115000000943,
            "durationTicks": 9,
            "midi": 72,
            "name": "C5",
            "ticks": 36355,
            "time": 213.85283425,
            "velocity": 0.7086614173228346
          },
          {
            "duration": 0.05294115000000943,
            "durationTicks": 9,
            "midi": 84,
            "name": "C6",
            "ticks": 36355,
            "time": 213.85283425,
            "velocity": 0.7086614173228346
          },
          {
            "duration": 0.17647049999999354,
            "durationTicks": 30,
            "midi": 73,
            "name": "C#5",
            "ticks": 36360,
            "time": 213.882246,
            "velocity": 0.7086614173228346
          },
          {
            "duration": 0.17647049999999354,
            "durationTicks": 30,
            "midi": 85,
            "name": "C#6",
            "ticks": 36360,
            "time": 213.882246,
            "velocity": 0.7086614173228346
          },
          {
            "duration": 0.17647049999999354,
            "durationTicks": 30,
            "midi": 71,
            "name": "B4",
            "ticks": 36390,
            "time": 214.0587165,
            "velocity": 0.7086614173228346
          },
          {
            "duration": 0.17647049999999354,
            "durationTicks": 30,
            "midi": 83,
            "name": "B5",
            "ticks": 36390,
            "time": 214.0587165,
            "velocity": 0.7086614173228346
          },
          {
            "duration": 0.17647050000002196,
            "durationTicks": 30,
            "midi": 71,
            "name": "B4",
            "ticks": 36450,
            "time": 214.4116575,
            "velocity": 0.7086614173228346
          },
          {
            "duration": 0.17647050000002196,
            "durationTicks": 30,
            "midi": 83,
            "name": "B5",
            "ticks": 36450,
            "time": 214.4116575,
            "velocity": 0.7086614173228346
          },
          {
            "duration": 0.17647049999999354,
            "durationTicks": 30,
            "midi": 69,
            "name": "A4",
            "ticks": 36510,
            "time": 214.7645985,
            "velocity": 0.7086614173228346
          },
          {
            "duration": 0.17647049999999354,
            "durationTicks": 30,
            "midi": 81,
            "name": "A5",
            "ticks": 36510,
            "time": 214.7645985,
            "velocity": 0.7086614173228346
          },
          {
            "duration": 0.17647050000002196,
            "durationTicks": 30,
            "midi": 68,
            "name": "G#4",
            "ticks": 36570,
            "time": 215.1175395,
            "velocity": 0.7086614173228346
          },
          {
            "duration": 0.17647050000002196,
            "durationTicks": 30,
            "midi": 80,
            "name": "G#5",
            "ticks": 36570,
            "time": 215.1175395,
            "velocity": 0.7086614173228346
          },
          {
            "duration": 0.17647049999999354,
            "durationTicks": 30,
            "midi": 73,
            "name": "C#5",
            "ticks": 36630,
            "time": 215.4704805,
            "velocity": 0.7086614173228346
          },
          {
            "duration": 0.17647049999999354,
            "durationTicks": 30,
            "midi": 85,
            "name": "C#6",
            "ticks": 36630,
            "time": 215.4704805,
            "velocity": 0.7086614173228346
          },
          {
            "duration": 0.17647049999999354,
            "durationTicks": 30,
            "midi": 71,
            "name": "B4",
            "ticks": 36660,
            "time": 215.646951,
            "velocity": 0.7086614173228346
          },
          {
            "duration": 0.17647049999999354,
            "durationTicks": 30,
            "midi": 83,
            "name": "B5",
            "ticks": 36660,
            "time": 215.646951,
            "velocity": 0.7086614173228346
          },
          {
            "duration": 0.17647049999999354,
            "durationTicks": 30,
            "midi": 69,
            "name": "A4",
            "ticks": 37200,
            "time": 218.82342,
            "velocity": 0.7086614173228346
          },
          {
            "duration": 0.17647049999999354,
            "durationTicks": 30,
            "midi": 81,
            "name": "A5",
            "ticks": 37200,
            "time": 218.82342,
            "velocity": 0.7086614173228346
          },
          {
            "duration": 0.17647050000002196,
            "durationTicks": 30,
            "midi": 66,
            "name": "F#4",
            "ticks": 37230,
            "time": 218.9998905,
            "velocity": 0.7086614173228346
          },
          {
            "duration": 0.17647050000002196,
            "durationTicks": 30,
            "midi": 78,
            "name": "F#5",
            "ticks": 37230,
            "time": 218.9998905,
            "velocity": 0.7086614173228346
          },
          {
            "duration": 0.17647049999999354,
            "durationTicks": 30,
            "midi": 68,
            "name": "G#4",
            "ticks": 37260,
            "time": 219.176361,
            "velocity": 0.7086614173228346
          },
          {
            "duration": 0.17647049999999354,
            "durationTicks": 30,
            "midi": 80,
            "name": "G#5",
            "ticks": 37260,
            "time": 219.176361,
            "velocity": 0.7086614173228346
          },
          {
            "duration": 0.17647049999999354,
            "durationTicks": 30,
            "midi": 69,
            "name": "A4",
            "ticks": 37290,
            "time": 219.3528315,
            "velocity": 0.7086614173228346
          },
          {
            "duration": 0.17647049999999354,
            "durationTicks": 30,
            "midi": 81,
            "name": "A5",
            "ticks": 37290,
            "time": 219.3528315,
            "velocity": 0.7086614173228346
          },
          {
            "duration": 0.17647050000002196,
            "durationTicks": 30,
            "midi": 78,
            "name": "F#5",
            "ticks": 37350,
            "time": 219.7057725,
            "velocity": 0.7086614173228346
          },
          {
            "duration": 0.17647050000002196,
            "durationTicks": 30,
            "midi": 90,
            "name": "F#6",
            "ticks": 37350,
            "time": 219.7057725,
            "velocity": 0.7086614173228346
          },
          {
            "duration": 0.22941164999997454,
            "durationTicks": 39,
            "midi": 76,
            "name": "E5",
            "ticks": 37410,
            "time": 220.0587135,
            "velocity": 0.7086614173228346
          },
          {
            "duration": 0.22941164999997454,
            "durationTicks": 39,
            "midi": 80,
            "name": "G#5",
            "ticks": 37410,
            "time": 220.0587135,
            "velocity": 0.7086614173228346
          },
          {
            "duration": 0.22941164999997454,
            "durationTicks": 39,
            "midi": 83,
            "name": "B5",
            "ticks": 37410,
            "time": 220.0587135,
            "velocity": 0.7086614173228346
          },
          {
            "duration": 0.22941164999997454,
            "durationTicks": 39,
            "midi": 85,
            "name": "C#6",
            "ticks": 37410,
            "time": 220.0587135,
            "velocity": 0.7086614173228346
          },
          {
            "duration": 0.22941164999997454,
            "durationTicks": 39,
            "midi": 88,
            "name": "E6",
            "ticks": 37410,
            "time": 220.0587135,
            "velocity": 0.7086614173228346
          },
          {
            "duration": 0.17647049999999354,
            "durationTicks": 30,
            "midi": 73,
            "name": "C#5",
            "ticks": 37680,
            "time": 221.646948,
            "velocity": 0.7086614173228346
          },
          {
            "duration": 0.17647049999999354,
            "durationTicks": 30,
            "midi": 78,
            "name": "F#5",
            "ticks": 37680,
            "time": 221.646948,
            "velocity": 0.7086614173228346
          },
          {
            "duration": 0.17647049999999354,
            "durationTicks": 30,
            "midi": 82,
            "name": "A#5",
            "ticks": 37680,
            "time": 221.646948,
            "velocity": 0.7086614173228346
          },
          {
            "duration": 0.17647049999999354,
            "durationTicks": 30,
            "midi": 85,
            "name": "C#6",
            "ticks": 37680,
            "time": 221.646948,
            "velocity": 0.7086614173228346
          },
          {
            "duration": 0.17647049999999354,
            "durationTicks": 30,
            "midi": 74,
            "name": "D5",
            "ticks": 37710,
            "time": 221.8234185,
            "velocity": 0.7086614173228346
          },
          {
            "duration": 0.17647049999999354,
            "durationTicks": 30,
            "midi": 86,
            "name": "D6",
            "ticks": 37710,
            "time": 221.8234185,
            "velocity": 0.7086614173228346
          },
          {
            "duration": 0.17647049999999354,
            "durationTicks": 30,
            "midi": 76,
            "name": "E5",
            "ticks": 37740,
            "time": 221.999889,
            "velocity": 0.7086614173228346
          },
          {
            "duration": 0.17647049999999354,
            "durationTicks": 30,
            "midi": 88,
            "name": "E6",
            "ticks": 37740,
            "time": 221.999889,
            "velocity": 0.7086614173228346
          },
          {
            "duration": 0.17647050000002196,
            "durationTicks": 30,
            "midi": 81,
            "name": "A5",
            "ticks": 37770,
            "time": 222.1763595,
            "velocity": 0.7086614173228346
          },
          {
            "duration": 0.17647050000002196,
            "durationTicks": 30,
            "midi": 93,
            "name": "A6",
            "ticks": 37770,
            "time": 222.1763595,
            "velocity": 0.7086614173228346
          },
          {
            "duration": 0.17647049999999354,
            "durationTicks": 30,
            "midi": 78,
            "name": "F#5",
            "ticks": 37830,
            "time": 222.5293005,
            "velocity": 0.7086614173228346
          },
          {
            "duration": 0.17647049999999354,
            "durationTicks": 30,
            "midi": 90,
            "name": "F#6",
            "ticks": 37830,
            "time": 222.5293005,
            "velocity": 0.7086614173228346
          },
          {
            "duration": 0.17647050000002196,
            "durationTicks": 30,
            "midi": 73,
            "name": "C#5",
            "ticks": 37890,
            "time": 222.8822415,
            "velocity": 0.7086614173228346
          },
          {
            "duration": 0.17647050000002196,
            "durationTicks": 30,
            "midi": 85,
            "name": "C#6",
            "ticks": 37890,
            "time": 222.8822415,
            "velocity": 0.7086614173228346
          },
          {
            "duration": 0.17647049999999354,
            "durationTicks": 30,
            "midi": 76,
            "name": "E5",
            "ticks": 37950,
            "time": 223.2351825,
            "velocity": 0.7086614173228346
          },
          {
            "duration": 0.17647049999999354,
            "durationTicks": 30,
            "midi": 88,
            "name": "E6",
            "ticks": 37950,
            "time": 223.2351825,
            "velocity": 0.7086614173228346
          },
          {
            "duration": 0.17647049999999354,
            "durationTicks": 30,
            "midi": 74,
            "name": "D5",
            "ticks": 37980,
            "time": 223.411653,
            "velocity": 0.7086614173228346
          },
          {
            "duration": 0.1705881500000146,
            "durationTicks": 29,
            "midi": 86,
            "name": "D6",
            "ticks": 37980,
            "time": 223.411653,
            "velocity": 0.7086614173228346
          },
          {
            "duration": 0.17647049999999354,
            "durationTicks": 30,
            "midi": 62,
            "name": "D4",
            "ticks": 38250,
            "time": 224.9998875,
            "velocity": 0.7086614173228346
          },
          {
            "duration": 0.17647049999999354,
            "durationTicks": 30,
            "midi": 74,
            "name": "D5",
            "ticks": 38250,
            "time": 224.9998875,
            "velocity": 0.7086614173228346
          },
          {
            "duration": 0.17647050000002196,
            "durationTicks": 30,
            "midi": 66,
            "name": "F#4",
            "ticks": 38280,
            "time": 225.176358,
            "velocity": 0.7086614173228346
          },
          {
            "duration": 0.17647050000002196,
            "durationTicks": 30,
            "midi": 78,
            "name": "F#5",
            "ticks": 38280,
            "time": 225.176358,
            "velocity": 0.7086614173228346
          },
          {
            "duration": 0.17647049999999354,
            "durationTicks": 30,
            "midi": 69,
            "name": "A4",
            "ticks": 38310,
            "time": 225.35282850000002,
            "velocity": 0.7086614173228346
          },
          {
            "duration": 0.17647049999999354,
            "durationTicks": 30,
            "midi": 81,
            "name": "A5",
            "ticks": 38310,
            "time": 225.35282850000002,
            "velocity": 0.7086614173228346
          },
          {
            "duration": 0.17647049999999354,
            "durationTicks": 30,
            "midi": 66,
            "name": "F#4",
            "ticks": 38340,
            "time": 225.529299,
            "velocity": 0.7086614173228346
          },
          {
            "duration": 0.17647049999999354,
            "durationTicks": 30,
            "midi": 78,
            "name": "F#5",
            "ticks": 38340,
            "time": 225.529299,
            "velocity": 0.7086614173228346
          },
          {
            "duration": 0.8823524999999961,
            "durationTicks": 150,
            "midi": 71,
            "name": "B4",
            "ticks": 38370,
            "time": 225.7057695,
            "velocity": 0.7086614173228346
          },
          {
            "duration": 0.8823524999999961,
            "durationTicks": 150,
            "midi": 75,
            "name": "D#5",
            "ticks": 38370,
            "time": 225.7057695,
            "velocity": 0.7086614173228346
          },
          {
            "duration": 0.8823524999999961,
            "durationTicks": 150,
            "midi": 78,
            "name": "F#5",
            "ticks": 38370,
            "time": 225.7057695,
            "velocity": 0.7086614173228346
          },
          {
            "duration": 0.8823524999999961,
            "durationTicks": 150,
            "midi": 80,
            "name": "G#5",
            "ticks": 38370,
            "time": 225.7057695,
            "velocity": 0.7086614173228346
          },
          {
            "duration": 0.8823524999999961,
            "durationTicks": 150,
            "midi": 83,
            "name": "B5",
            "ticks": 38370,
            "time": 225.7057695,
            "velocity": 0.7086614173228346
          },
          {
            "duration": 0.17647049999999354,
            "durationTicks": 30,
            "midi": 75,
            "name": "D#5",
            "ticks": 38520,
            "time": 226.588122,
            "velocity": 0.7086614173228346
          },
          {
            "duration": 0.17647049999999354,
            "durationTicks": 30,
            "midi": 87,
            "name": "D#6",
            "ticks": 38520,
            "time": 226.588122,
            "velocity": 0.7086614173228346
          },
          {
            "duration": 0.17647049999999354,
            "durationTicks": 30,
            "midi": 83,
            "name": "B5",
            "ticks": 38520,
            "time": 226.588122,
            "velocity": 0.7086614173228346
          },
          {
            "duration": 0.17647050000002196,
            "durationTicks": 30,
            "midi": 78,
            "name": "F#5",
            "ticks": 38550,
            "time": 226.7645925,
            "velocity": 0.7086614173228346
          },
          {
            "duration": 0.17647050000002196,
            "durationTicks": 30,
            "midi": 90,
            "name": "F#6",
            "ticks": 38550,
            "time": 226.7645925,
            "velocity": 0.7086614173228346
          },
          {
            "duration": 0.17647050000002196,
            "durationTicks": 30,
            "midi": 87,
            "name": "D#6",
            "ticks": 38550,
            "time": 226.7645925,
            "velocity": 0.7086614173228346
          },
          {
            "duration": 0.17647049999999354,
            "durationTicks": 30,
            "midi": 75,
            "name": "D#5",
            "ticks": 38580,
            "time": 226.941063,
            "velocity": 0.7086614173228346
          },
          {
            "duration": 0.17647049999999354,
            "durationTicks": 30,
            "midi": 83,
            "name": "B5",
            "ticks": 38580,
            "time": 226.941063,
            "velocity": 0.7086614173228346
          },
          {
            "duration": 0.17647049999999354,
            "durationTicks": 30,
            "midi": 87,
            "name": "D#6",
            "ticks": 38580,
            "time": 226.941063,
            "velocity": 0.7086614173228346
          },
          {
            "duration": 0.8823524999999961,
            "durationTicks": 150,
            "midi": 82,
            "name": "A#5",
            "ticks": 38610,
            "time": 227.1175335,
            "velocity": 0.7086614173228346
          },
          {
            "duration": 0.8823524999999961,
            "durationTicks": 150,
            "midi": 78,
            "name": "F#5",
            "ticks": 38610,
            "time": 227.1175335,
            "velocity": 0.7086614173228346
          },
          {
            "duration": 0.8823524999999961,
            "durationTicks": 150,
            "midi": 75,
            "name": "D#5",
            "ticks": 38610,
            "time": 227.1175335,
            "velocity": 0.7086614173228346
          },
          {
            "duration": 0.8823524999999961,
            "durationTicks": 150,
            "midi": 71,
            "name": "B4",
            "ticks": 38610,
            "time": 227.1175335,
            "velocity": 0.7086614173228346
          },
          {
            "duration": 0.8823524999999961,
            "durationTicks": 150,
            "midi": 94,
            "name": "A#6",
            "ticks": 38610,
            "time": 227.1175335,
            "velocity": 0.7086614173228346
          },
          {
            "duration": 0.8823524999999961,
            "durationTicks": 150,
            "midi": 90,
            "name": "F#6",
            "ticks": 38610,
            "time": 227.1175335,
            "velocity": 0.7086614173228346
          },
          {
            "duration": 0.8823524999999961,
            "durationTicks": 150,
            "midi": 87,
            "name": "D#6",
            "ticks": 38610,
            "time": 227.1175335,
            "velocity": 0.7086614173228346
          },
          {
            "duration": 0.8823524999999961,
            "durationTicks": 150,
            "midi": 83,
            "name": "B5",
            "ticks": 38610,
            "time": 227.1175335,
            "velocity": 0.7086614173228346
          }
        ]
      },
      {
        "channel": 0,
        "controlChanges": {
          "0": [
            {
              "number": 0,
              "ticks": 0,
              "time": 0,
              "value": 0
            }
          ],
          "32": [
            {
              "number": 32,
              "ticks": 0,
              "time": 0,
              "value": 0
            }
          ]
        },
        "pitchBends": [],
        "instrument": {
          "family": "piano",
          "number": 0,
          "name": "acoustic grand piano"
        },
        "name": "Solo Guitar",
        "notes": [],
        "endOfTrackTicks": 59319
      },
      {
        "channel": 7,
        "controlChanges": {
          "7": [
            {
              "number": 7,
              "ticks": 0,
              "time": 0,
              "value": 0.8267716535433071
            }
          ],
          "10": [
            {
              "number": 10,
              "ticks": 0,
              "time": 0,
              "value": 0.6299212598425197
            }
          ],
          "91": [
            {
              "number": 91,
              "ticks": 40,
              "time": 0.235294,
              "value": 0.15748031496062992
            }
          ],
          "93": [
            {
              "number": 93,
              "ticks": 50,
              "time": 0.29411750000000003,
              "value": 0
            }
          ],
          "121": [
            {
              "number": 121,
              "ticks": 5,
              "time": 0.02941175,
              "value": 0
            }
          ]
        },
        "pitchBends": [
          {
            "ticks": 17820,
            "time": 104.823477,
            "value": -0.999755859375
          },
          {
            "ticks": 17822,
            "time": 104.83524170000001,
            "value": -0.8331298828125
          },
          {
            "ticks": 17824,
            "time": 104.8470064,
            "value": -0.66650390625
          },
          {
            "ticks": 17826,
            "time": 104.85877110000001,
            "value": -0.4998779296875
          },
          {
            "ticks": 17828,
            "time": 104.8705358,
            "value": -0.333251953125
          },
          {
            "ticks": 17830,
            "time": 104.88230050000001,
            "value": -0.1666259765625
          },
          {
            "ticks": 17832,
            "time": 104.8940652,
            "value": 0
          },
          {
            "ticks": 18720,
            "time": 110.117592,
            "value": -0.999755859375
          },
          {
            "ticks": 18722,
            "time": 110.12935670000002,
            "value": -0.7998046875
          },
          {
            "ticks": 18724,
            "time": 110.1411214,
            "value": -0.599853515625
          },
          {
            "ticks": 18726,
            "time": 110.1528861,
            "value": -0.39990234375
          },
          {
            "ticks": 18728,
            "time": 110.1646508,
            "value": -0.199951171875
          },
          {
            "ticks": 18730,
            "time": 110.1764155,
            "value": 0
          },
          {
            "ticks": 18960,
            "time": 111.529356,
            "value": -0.999755859375
          },
          {
            "ticks": 18962,
            "time": 111.54112070000001,
            "value": -0.7998046875
          },
          {
            "ticks": 18964,
            "time": 111.5528854,
            "value": -0.599853515625
          },
          {
            "ticks": 18966,
            "time": 111.56465010000001,
            "value": -0.39990234375
          },
          {
            "ticks": 18968,
            "time": 111.5764148,
            "value": -0.199951171875
          },
          {
            "ticks": 18970,
            "time": 111.58817950000001,
            "value": 0
          },
          {
            "ticks": 19200,
            "time": 112.94112,
            "value": -0.999755859375
          },
          {
            "ticks": 19202,
            "time": 112.95288470000001,
            "value": -0.7998046875
          },
          {
            "ticks": 19204,
            "time": 112.9646494,
            "value": -0.599853515625
          },
          {
            "ticks": 19206,
            "time": 112.97641410000001,
            "value": -0.39990234375
          },
          {
            "ticks": 19208,
            "time": 112.9881788,
            "value": -0.199951171875
          },
          {
            "ticks": 19210,
            "time": 112.99994350000001,
            "value": 0
          },
          {
            "ticks": 22560,
            "time": 132.705816,
            "value": -0.999755859375
          },
          {
            "ticks": 22562,
            "time": 132.7175807,
            "value": -0.7998046875
          },
          {
            "ticks": 22564,
            "time": 132.7293454,
            "value": -0.599853515625
          },
          {
            "ticks": 22566,
            "time": 132.74111010000001,
            "value": -0.39990234375
          },
          {
            "ticks": 22568,
            "time": 132.7528748,
            "value": -0.199951171875
          },
          {
            "ticks": 22570,
            "time": 132.76463950000002,
            "value": 0
          },
          {
            "ticks": 22800,
            "time": 134.11758,
            "value": -0.999755859375
          },
          {
            "ticks": 22802,
            "time": 134.12934470000002,
            "value": -0.7998046875
          },
          {
            "ticks": 22804,
            "time": 134.1411094,
            "value": -0.599853515625
          },
          {
            "ticks": 22806,
            "time": 134.15287410000002,
            "value": -0.39990234375
          },
          {
            "ticks": 22808,
            "time": 134.1646388,
            "value": -0.199951171875
          },
          {
            "ticks": 22810,
            "time": 134.17640350000002,
            "value": 0
          },
          {
            "ticks": 23040,
            "time": 135.529344,
            "value": -0.999755859375
          },
          {
            "ticks": 23042,
            "time": 135.54110870000002,
            "value": -0.7998046875
          },
          {
            "ticks": 23044,
            "time": 135.5528734,
            "value": -0.599853515625
          },
          {
            "ticks": 23046,
            "time": 135.5646381,
            "value": -0.39990234375
          },
          {
            "ticks": 23048,
            "time": 135.5764028,
            "value": -0.199951171875
          },
          {
            "ticks": 23050,
            "time": 135.5881675,
            "value": 0
          },
          {
            "ticks": 44700,
            "time": 262.94104500000003,
            "value": -0.999755859375
          },
          {
            "ticks": 44702,
            "time": 262.9528097,
            "value": -0.8331298828125
          },
          {
            "ticks": 44704,
            "time": 262.9645744,
            "value": -0.66650390625
          },
          {
            "ticks": 44706,
            "time": 262.9763391,
            "value": -0.4998779296875
          },
          {
            "ticks": 44708,
            "time": 262.9881038,
            "value": -0.333251953125
          },
          {
            "ticks": 44710,
            "time": 262.9998685,
            "value": -0.1666259765625
          },
          {
            "ticks": 44712,
            "time": 263.0116332,
            "value": 0
          },
          {
            "ticks": 45090,
            "time": 265.2351615,
            "value": -0.999755859375
          },
          {
            "ticks": 45095,
            "time": 265.26457325,
            "value": -0.7998046875
          },
          {
            "ticks": 45100,
            "time": 265.29398499999996,
            "value": -0.599853515625
          },
          {
            "ticks": 45105,
            "time": 265.32339675000003,
            "value": -0.39990234375
          },
          {
            "ticks": 45110,
            "time": 265.35280850000004,
            "value": -0.199951171875
          },
          {
            "ticks": 45115,
            "time": 265.38222025,
            "value": 0
          },
          {
            "ticks": 45600,
            "time": 268.23516,
            "value": -0.999755859375
          },
          {
            "ticks": 45602,
            "time": 268.24692469999997,
            "value": -0.7998046875
          },
          {
            "ticks": 45604,
            "time": 268.25868940000004,
            "value": -0.599853515625
          },
          {
            "ticks": 45606,
            "time": 268.2704541,
            "value": -0.39990234375
          },
          {
            "ticks": 45608,
            "time": 268.2822188,
            "value": -0.199951171875
          },
          {
            "ticks": 45610,
            "time": 268.29398349999997,
            "value": 0
          },
          {
            "ticks": 45840,
            "time": 269.646924,
            "value": -0.999755859375
          },
          {
            "ticks": 45842,
            "time": 269.65868869999997,
            "value": -0.7998046875
          },
          {
            "ticks": 45844,
            "time": 269.67045340000004,
            "value": -0.599853515625
          },
          {
            "ticks": 45846,
            "time": 269.6822181,
            "value": -0.39990234375
          },
          {
            "ticks": 45848,
            "time": 269.6939828,
            "value": -0.199951171875
          },
          {
            "ticks": 45850,
            "time": 269.7057475,
            "value": 0
          },
          {
            "ticks": 46080,
            "time": 271.058688,
            "value": -0.999755859375
          },
          {
            "ticks": 46082,
            "time": 271.0704527,
            "value": -0.7998046875
          },
          {
            "ticks": 46084,
            "time": 271.08221740000005,
            "value": -0.599853515625
          },
          {
            "ticks": 46086,
            "time": 271.0939821,
            "value": -0.39990234375
          },
          {
            "ticks": 46088,
            "time": 271.1057468,
            "value": -0.199951171875
          },
          {
            "ticks": 46090,
            "time": 271.1175115,
            "value": 0
          },
          {
            "ticks": 46650,
            "time": 274.4116275,
            "value": -0.999755859375
          },
          {
            "ticks": 46655,
            "time": 274.44103925,
            "value": -0.66650390625
          },
          {
            "ticks": 46660,
            "time": 274.47045099999997,
            "value": -0.333251953125
          },
          {
            "ticks": 46665,
            "time": 274.49986275,
            "value": 0
          },
          {
            "ticks": 46980,
            "time": 276.352803,
            "value": -0.4998779296875
          },
          {
            "ticks": 46985,
            "time": 276.38221475,
            "value": -0.3743896484375
          },
          {
            "ticks": 46990,
            "time": 276.4116265,
            "value": -0.2496337890625
          },
          {
            "ticks": 46995,
            "time": 276.44103825,
            "value": -0.124755859375
          },
          {
            "ticks": 47000,
            "time": 276.47045,
            "value": 0
          },
          {
            "ticks": 47160,
            "time": 277.411626,
            "value": -0.4998779296875
          },
          {
            "ticks": 47165,
            "time": 277.44103775,
            "value": -0.3743896484375
          },
          {
            "ticks": 47170,
            "time": 277.4704495,
            "value": -0.2496337890625
          },
          {
            "ticks": 47175,
            "time": 277.49986125,
            "value": -0.124755859375
          },
          {
            "ticks": 47180,
            "time": 277.529273,
            "value": 0
          },
          {
            "ticks": 48930,
            "time": 287.82338550000003,
            "value": 0.4998779296875
          },
          {
            "ticks": 48934,
            "time": 287.8469149,
            "value": 0.3994140625
          },
          {
            "ticks": 48938,
            "time": 287.8704443,
            "value": 0.299560546875
          },
          {
            "ticks": 48942,
            "time": 287.8939737,
            "value": 0.19970703125
          },
          {
            "ticks": 48946,
            "time": 287.9175031,
            "value": 0.099853515625
          },
          {
            "ticks": 48950,
            "time": 287.9410325,
            "value": 0
          },
          {
            "ticks": 49410,
            "time": 290.6469135,
            "value": -0.999755859375
          },
          {
            "ticks": 49415,
            "time": 290.67632525,
            "value": -0.749755859375
          },
          {
            "ticks": 49420,
            "time": 290.705737,
            "value": -0.4998779296875
          },
          {
            "ticks": 49425,
            "time": 290.73514875,
            "value": -0.2498779296875
          },
          {
            "ticks": 49430,
            "time": 290.7645605,
            "value": 0
          },
          {
            "ticks": 49890,
            "time": 293.4704415,
            "value": -0.4998779296875
          },
          {
            "ticks": 49894,
            "time": 293.4939709,
            "value": -0.3994140625
          },
          {
            "ticks": 49898,
            "time": 293.5175003,
            "value": -0.299560546875
          },
          {
            "ticks": 49902,
            "time": 293.5410297,
            "value": -0.19970703125
          },
          {
            "ticks": 49906,
            "time": 293.5645591,
            "value": -0.099853515625
          },
          {
            "ticks": 49910,
            "time": 293.5880885,
            "value": 0
          },
          {
            "ticks": 49950,
            "time": 293.8233825,
            "value": -0.4998779296875
          },
          {
            "ticks": 49954,
            "time": 293.8469119,
            "value": -0.3994140625
          },
          {
            "ticks": 49958,
            "time": 293.8704413,
            "value": -0.299560546875
          },
          {
            "ticks": 49962,
            "time": 293.8939707,
            "value": -0.19970703125
          },
          {
            "ticks": 49966,
            "time": 293.9175001,
            "value": -0.099853515625
          },
          {
            "ticks": 49970,
            "time": 293.9410295,
            "value": 0
          },
          {
            "ticks": 50010,
            "time": 294.1763235,
            "value": -0.4998779296875
          },
          {
            "ticks": 50014,
            "time": 294.1998529,
            "value": -0.3994140625
          },
          {
            "ticks": 50018,
            "time": 294.2233823,
            "value": -0.299560546875
          },
          {
            "ticks": 50022,
            "time": 294.2469117,
            "value": -0.19970703125
          },
          {
            "ticks": 50026,
            "time": 294.27044109999997,
            "value": -0.099853515625
          },
          {
            "ticks": 50030,
            "time": 294.2939705,
            "value": 0
          },
          {
            "ticks": 50070,
            "time": 294.5292645,
            "value": 0.4998779296875
          },
          {
            "ticks": 50075,
            "time": 294.55867625,
            "value": 0.3994140625
          },
          {
            "ticks": 50080,
            "time": 294.58808799999997,
            "value": 0.299560546875
          },
          {
            "ticks": 50085,
            "time": 294.61749975,
            "value": 0.19970703125
          },
          {
            "ticks": 50090,
            "time": 294.64691150000004,
            "value": 0.099853515625
          },
          {
            "ticks": 50095,
            "time": 294.67632325,
            "value": 0
          },
          {
            "ticks": 50850,
            "time": 299.1174975,
            "value": 0.4998779296875
          },
          {
            "ticks": 50855,
            "time": 299.14690925,
            "value": 0.3743896484375
          },
          {
            "ticks": 50860,
            "time": 299.176321,
            "value": 0.2496337890625
          },
          {
            "ticks": 50865,
            "time": 299.20573275,
            "value": 0.124755859375
          },
          {
            "ticks": 50870,
            "time": 299.2351445,
            "value": 0
          },
          {
            "ticks": 51330,
            "time": 301.9410255,
            "value": -0.4998779296875
          },
          {
            "ticks": 51335,
            "time": 301.97043725000003,
            "value": -0.3994140625
          },
          {
            "ticks": 51340,
            "time": 301.999849,
            "value": -0.299560546875
          },
          {
            "ticks": 51345,
            "time": 302.02926075,
            "value": -0.19970703125
          },
          {
            "ticks": 51350,
            "time": 302.0586725,
            "value": -0.099853515625
          },
          {
            "ticks": 51355,
            "time": 302.08808425,
            "value": 0
          },
          {
            "ticks": 53280,
            "time": 313.411608,
            "value": -0.499267578125
          },
          {
            "ticks": 53285,
            "time": 313.44101975,
            "value": -0.3743896484375
          },
          {
            "ticks": 53290,
            "time": 313.4704315,
            "value": -0.2496337890625
          },
          {
            "ticks": 53295,
            "time": 313.49984325,
            "value": -0.124755859375
          },
          {
            "ticks": 53300,
            "time": 313.52925500000003,
            "value": 0
          },
          {
            "ticks": 54690,
            "time": 321.7057215,
            "value": -0.4998779296875
          },
          {
            "ticks": 54695,
            "time": 321.73513325,
            "value": -0.3743896484375
          },
          {
            "ticks": 54700,
            "time": 321.764545,
            "value": -0.2496337890625
          },
          {
            "ticks": 54705,
            "time": 321.79395675,
            "value": -0.124755859375
          },
          {
            "ticks": 54710,
            "time": 321.8233685,
            "value": 0
          },
          {
            "ticks": 54810,
            "time": 322.4116035,
            "value": -0.4998779296875
          },
          {
            "ticks": 54815,
            "time": 322.44101525,
            "value": -0.3748779296875
          },
          {
            "ticks": 54820,
            "time": 322.470427,
            "value": -0.2498779296875
          },
          {
            "ticks": 54825,
            "time": 322.49983875,
            "value": -0.1248779296875
          },
          {
            "ticks": 54830,
            "time": 322.52925050000005,
            "value": 0
          },
          {
            "ticks": 56130,
            "time": 330.1763055,
            "value": -0.499267578125
          },
          {
            "ticks": 56135,
            "time": 330.20571725,
            "value": -0.3743896484375
          },
          {
            "ticks": 56140,
            "time": 330.235129,
            "value": -0.2496337890625
          },
          {
            "ticks": 56145,
            "time": 330.26454075,
            "value": -0.124755859375
          },
          {
            "ticks": 56150,
            "time": 330.29395250000005,
            "value": 0
          },
          {
            "ticks": 56370,
            "time": 331.5880695,
            "value": -0.4998779296875
          },
          {
            "ticks": 56372,
            "time": 331.5998342,
            "value": -0.39990234375
          },
          {
            "ticks": 56374,
            "time": 331.61159890000005,
            "value": -0.2999267578125
          },
          {
            "ticks": 56376,
            "time": 331.6233636,
            "value": -0.199951171875
          },
          {
            "ticks": 56378,
            "time": 331.6351283,
            "value": -0.0999755859375
          },
          {
            "ticks": 56380,
            "time": 331.646893,
            "value": 0
          },
          {
            "ticks": 56730,
            "time": 333.7057155,
            "value": -0.4998779296875
          },
          {
            "ticks": 56735,
            "time": 333.73512725,
            "value": -0.3743896484375
          },
          {
            "ticks": 56740,
            "time": 333.764539,
            "value": -0.2496337890625
          },
          {
            "ticks": 56745,
            "time": 333.79395075,
            "value": -0.124755859375
          },
          {
            "ticks": 56750,
            "time": 333.82336250000003,
            "value": 0
          },
          {
            "ticks": 57120,
            "time": 335.999832,
            "value": -0.999755859375
          },
          {
            "ticks": 57122,
            "time": 336.0115967,
            "value": -0.7998046875
          },
          {
            "ticks": 57124,
            "time": 336.0233614,
            "value": -0.599853515625
          },
          {
            "ticks": 57126,
            "time": 336.0351261,
            "value": -0.39990234375
          },
          {
            "ticks": 57128,
            "time": 336.0468908,
            "value": -0.199951171875
          },
          {
            "ticks": 57130,
            "time": 336.0586555,
            "value": 0
          },
          {
            "ticks": 57360,
            "time": 337.41159600000003,
            "value": -0.999755859375
          },
          {
            "ticks": 57362,
            "time": 337.4233607,
            "value": -0.7998046875
          },
          {
            "ticks": 57364,
            "time": 337.4351254,
            "value": -0.599853515625
          },
          {
            "ticks": 57366,
            "time": 337.4468901,
            "value": -0.39990234375
          },
          {
            "ticks": 57368,
            "time": 337.4586548,
            "value": -0.199951171875
          },
          {
            "ticks": 57370,
            "time": 337.4704195,
            "value": 0
          },
          {
            "ticks": 57600,
            "time": 338.82336,
            "value": -0.999755859375
          },
          {
            "ticks": 57602,
            "time": 338.8351247,
            "value": -0.7998046875
          },
          {
            "ticks": 57604,
            "time": 338.8468894,
            "value": -0.599853515625
          },
          {
            "ticks": 57606,
            "time": 338.8586541,
            "value": -0.39990234375
          },
          {
            "ticks": 57608,
            "time": 338.8704188,
            "value": -0.199951171875
          },
          {
            "ticks": 57610,
            "time": 338.8821835,
            "value": 0
          }
        ],
        "instrument": {
          "family": "guitar",
          "number": 26,
          "name": "electric guitar (jazz)"
        },
        "name": "",
        "notes": [
          {
            "duration": 0.3529410000000013,
            "durationTicks": 60,
            "midi": 61,
            "name": "C#4",
            "ticks": 12240,
            "time": 71.999964,
            "velocity": 0.8267716535433071
          },
          {
            "duration": 0.3529410000000013,
            "durationTicks": 60,
            "midi": 73,
            "name": "C#5",
            "ticks": 12240,
            "time": 71.999964,
            "velocity": 0.8267716535433071
          },
          {
            "duration": 0.35294099999998707,
            "durationTicks": 60,
            "midi": 63,
            "name": "D#4",
            "ticks": 12300,
            "time": 72.352905,
            "velocity": 0.8267716535433071
          },
          {
            "duration": 0.35294099999998707,
            "durationTicks": 60,
            "midi": 75,
            "name": "D#5",
            "ticks": 12300,
            "time": 72.352905,
            "velocity": 0.8267716535433071
          },
          {
            "duration": 0.3529410000000013,
            "durationTicks": 60,
            "midi": 65,
            "name": "F4",
            "ticks": 12360,
            "time": 72.705846,
            "velocity": 0.8267716535433071
          },
          {
            "duration": 0.3529410000000013,
            "durationTicks": 60,
            "midi": 77,
            "name": "F5",
            "ticks": 12360,
            "time": 72.705846,
            "velocity": 0.8267716535433071
          },
          {
            "duration": 1.0588230000000038,
            "durationTicks": 180,
            "midi": 66,
            "name": "F#4",
            "ticks": 12420,
            "time": 73.058787,
            "velocity": 0.8267716535433071
          },
          {
            "duration": 1.0588230000000038,
            "durationTicks": 180,
            "midi": 78,
            "name": "F#5",
            "ticks": 12420,
            "time": 73.058787,
            "velocity": 0.8267716535433071
          },
          {
            "duration": 0.3529410000000013,
            "durationTicks": 60,
            "midi": 59,
            "name": "B3",
            "ticks": 12600,
            "time": 74.11761,
            "velocity": 0.8267716535433071
          },
          {
            "duration": 0.3529410000000013,
            "durationTicks": 60,
            "midi": 71,
            "name": "B4",
            "ticks": 12600,
            "time": 74.11761,
            "velocity": 0.8267716535433071
          },
          {
            "duration": 1.7647050000000064,
            "durationTicks": 300,
            "midi": 57,
            "name": "A3",
            "ticks": 12660,
            "time": 74.470551,
            "velocity": 0.8267716535433071
          },
          {
            "duration": 1.7647050000000064,
            "durationTicks": 300,
            "midi": 69,
            "name": "A4",
            "ticks": 12660,
            "time": 74.470551,
            "velocity": 0.8267716535433071
          },
          {
            "duration": 0.3529410000000013,
            "durationTicks": 60,
            "midi": 63,
            "name": "D#4",
            "ticks": 13200,
            "time": 77.64702,
            "velocity": 0.8267716535433071
          },
          {
            "duration": 0.3529410000000013,
            "durationTicks": 60,
            "midi": 75,
            "name": "D#5",
            "ticks": 13200,
            "time": 77.64702,
            "velocity": 0.8267716535433071
          },
          {
            "duration": 0.3529410000000013,
            "durationTicks": 60,
            "midi": 65,
            "name": "F4",
            "ticks": 13260,
            "time": 77.999961,
            "velocity": 0.8267716535433071
          },
          {
            "duration": 0.3529410000000013,
            "durationTicks": 60,
            "midi": 77,
            "name": "F5",
            "ticks": 13260,
            "time": 77.999961,
            "velocity": 0.8267716535433071
          },
          {
            "duration": 0.3529410000000013,
            "durationTicks": 60,
            "midi": 66,
            "name": "F#4",
            "ticks": 13320,
            "time": 78.352902,
            "velocity": 0.8267716535433071
          },
          {
            "duration": 0.3529410000000013,
            "durationTicks": 60,
            "midi": 78,
            "name": "F#5",
            "ticks": 13320,
            "time": 78.352902,
            "velocity": 0.8267716535433071
          },
          {
            "duration": 1.0588230000000038,
            "durationTicks": 180,
            "midi": 68,
            "name": "G#4",
            "ticks": 13380,
            "time": 78.705843,
            "velocity": 0.8267716535433071
          },
          {
            "duration": 1.0588230000000038,
            "durationTicks": 180,
            "midi": 80,
            "name": "G#5",
            "ticks": 13380,
            "time": 78.705843,
            "velocity": 0.8267716535433071
          },
          {
            "duration": 0.3529410000000013,
            "durationTicks": 60,
            "midi": 63,
            "name": "D#4",
            "ticks": 13560,
            "time": 79.764666,
            "velocity": 0.8267716535433071
          },
          {
            "duration": 0.3529410000000013,
            "durationTicks": 60,
            "midi": 75,
            "name": "D#5",
            "ticks": 13560,
            "time": 79.764666,
            "velocity": 0.8267716535433071
          },
          {
            "duration": 1.7647049999999922,
            "durationTicks": 300,
            "midi": 62,
            "name": "D4",
            "ticks": 13620,
            "time": 80.117607,
            "velocity": 0.8267716535433071
          },
          {
            "duration": 1.7647049999999922,
            "durationTicks": 300,
            "midi": 74,
            "name": "D5",
            "ticks": 13620,
            "time": 80.117607,
            "velocity": 0.8267716535433071
          },
          {
            "duration": 0.3529410000000013,
            "durationTicks": 60,
            "midi": 67,
            "name": "G4",
            "ticks": 14160,
            "time": 83.294076,
            "velocity": 0.8267716535433071
          },
          {
            "duration": 0.3529410000000013,
            "durationTicks": 60,
            "midi": 79,
            "name": "G5",
            "ticks": 14160,
            "time": 83.294076,
            "velocity": 0.8267716535433071
          },
          {
            "duration": 0.3529410000000013,
            "durationTicks": 60,
            "midi": 68,
            "name": "G#4",
            "ticks": 14220,
            "time": 83.647017,
            "velocity": 0.8267716535433071
          },
          {
            "duration": 0.3529410000000013,
            "durationTicks": 60,
            "midi": 80,
            "name": "G#5",
            "ticks": 14220,
            "time": 83.647017,
            "velocity": 0.8267716535433071
          },
          {
            "duration": 0.3529410000000013,
            "durationTicks": 60,
            "midi": 70,
            "name": "A#4",
            "ticks": 14280,
            "time": 83.999958,
            "velocity": 0.8267716535433071
          },
          {
            "duration": 0.3529410000000013,
            "durationTicks": 60,
            "midi": 82,
            "name": "A#5",
            "ticks": 14280,
            "time": 83.999958,
            "velocity": 0.8267716535433071
          },
          {
            "duration": 1.7647049999999922,
            "durationTicks": 300,
            "midi": 71,
            "name": "B4",
            "ticks": 14340,
            "time": 84.35289900000001,
            "velocity": 0.8267716535433071
          },
          {
            "duration": 1.7647049999999922,
            "durationTicks": 300,
            "midi": 83,
            "name": "B5",
            "ticks": 14340,
            "time": 84.35289900000001,
            "velocity": 0.8267716535433071
          },
          {
            "duration": 0.5294114999999948,
            "durationTicks": 90,
            "midi": 70,
            "name": "A#4",
            "ticks": 14640,
            "time": 86.117604,
            "velocity": 0.8267716535433071
          },
          {
            "duration": 0.5294114999999948,
            "durationTicks": 90,
            "midi": 82,
            "name": "A#5",
            "ticks": 14640,
            "time": 86.117604,
            "velocity": 0.8267716535433071
          },
          {
            "duration": 0.529411500000009,
            "durationTicks": 90,
            "midi": 68,
            "name": "G#4",
            "ticks": 14730,
            "time": 86.6470155,
            "velocity": 0.8267716535433071
          },
          {
            "duration": 0.529411500000009,
            "durationTicks": 90,
            "midi": 80,
            "name": "G#5",
            "ticks": 14730,
            "time": 86.6470155,
            "velocity": 0.8267716535433071
          },
          {
            "duration": 1.7647049999999922,
            "durationTicks": 300,
            "midi": 61,
            "name": "C#4",
            "ticks": 14820,
            "time": 87.176427,
            "velocity": 0.8267716535433071
          },
          {
            "duration": 1.7647049999999922,
            "durationTicks": 300,
            "midi": 73,
            "name": "C#5",
            "ticks": 14820,
            "time": 87.176427,
            "velocity": 0.8267716535433071
          },
          {
            "duration": 0.3529410000000013,
            "durationTicks": 60,
            "midi": 63,
            "name": "D#4",
            "ticks": 15120,
            "time": 88.941132,
            "velocity": 0.8267716535433071
          },
          {
            "duration": 0.3529410000000013,
            "durationTicks": 60,
            "midi": 75,
            "name": "D#5",
            "ticks": 15120,
            "time": 88.941132,
            "velocity": 0.8267716535433071
          },
          {
            "duration": 0.3529410000000013,
            "durationTicks": 60,
            "midi": 65,
            "name": "F4",
            "ticks": 15180,
            "time": 89.294073,
            "velocity": 0.8267716535433071
          },
          {
            "duration": 0.3529410000000013,
            "durationTicks": 60,
            "midi": 77,
            "name": "F5",
            "ticks": 15180,
            "time": 89.294073,
            "velocity": 0.8267716535433071
          },
          {
            "duration": 0.3529410000000013,
            "durationTicks": 60,
            "midi": 66,
            "name": "F#4",
            "ticks": 15240,
            "time": 89.647014,
            "velocity": 0.8267716535433071
          },
          {
            "duration": 0.3529410000000013,
            "durationTicks": 60,
            "midi": 78,
            "name": "F#5",
            "ticks": 15240,
            "time": 89.647014,
            "velocity": 0.8267716535433071
          },
          {
            "duration": 1.0588230000000038,
            "durationTicks": 180,
            "midi": 68,
            "name": "G#4",
            "ticks": 15300,
            "time": 89.999955,
            "velocity": 0.8267716535433071
          },
          {
            "duration": 1.0588230000000038,
            "durationTicks": 180,
            "midi": 80,
            "name": "G#5",
            "ticks": 15300,
            "time": 89.999955,
            "velocity": 0.8267716535433071
          },
          {
            "duration": 0.3529410000000013,
            "durationTicks": 60,
            "midi": 69,
            "name": "A4",
            "ticks": 15480,
            "time": 91.058778,
            "velocity": 0.8267716535433071
          },
          {
            "duration": 0.3529410000000013,
            "durationTicks": 60,
            "midi": 81,
            "name": "A5",
            "ticks": 15480,
            "time": 91.058778,
            "velocity": 0.8267716535433071
          },
          {
            "duration": 0.17647049999999354,
            "durationTicks": 30,
            "midi": 71,
            "name": "B4",
            "ticks": 15540,
            "time": 91.411719,
            "velocity": 0.8267716535433071
          },
          {
            "duration": 0.17647049999999354,
            "durationTicks": 30,
            "midi": 83,
            "name": "B5",
            "ticks": 15540,
            "time": 91.411719,
            "velocity": 0.8267716535433071
          },
          {
            "duration": 1.5882344999999987,
            "durationTicks": 270,
            "midi": 72,
            "name": "C5",
            "ticks": 15570,
            "time": 91.5881895,
            "velocity": 0.8267716535433071
          },
          {
            "duration": 1.5882344999999987,
            "durationTicks": 270,
            "midi": 84,
            "name": "C6",
            "ticks": 15570,
            "time": 91.5881895,
            "velocity": 0.8267716535433071
          },
          {
            "duration": 0.7058820000000026,
            "durationTicks": 120,
            "midi": 71,
            "name": "B4",
            "ticks": 15840,
            "time": 93.176424,
            "velocity": 0.8267716535433071
          },
          {
            "duration": 0.7058820000000026,
            "durationTicks": 120,
            "midi": 83,
            "name": "B5",
            "ticks": 15840,
            "time": 93.176424,
            "velocity": 0.8267716535433071
          },
          {
            "duration": 0.17058815000000038,
            "durationTicks": 29,
            "midi": 68,
            "name": "G#4",
            "ticks": 16080,
            "time": 94.588188,
            "velocity": 0.8267716535433071
          },
          {
            "duration": 0.17058815000000038,
            "durationTicks": 29,
            "midi": 80,
            "name": "G#5",
            "ticks": 16080,
            "time": 94.588188,
            "velocity": 0.8267716535433071
          },
          {
            "duration": 0.34705865000000813,
            "durationTicks": 59,
            "midi": 80,
            "name": "G#5",
            "ticks": 16110,
            "time": 94.7646585,
            "velocity": 0.8267716535433071
          },
          {
            "duration": 0.34705865000000813,
            "durationTicks": 59,
            "midi": 68,
            "name": "G#4",
            "ticks": 16110,
            "time": 94.7646585,
            "velocity": 0.8267716535433071
          },
          {
            "duration": 0.1705881500000146,
            "durationTicks": 29,
            "midi": 69,
            "name": "A4",
            "ticks": 16170,
            "time": 95.1175995,
            "velocity": 0.8267716535433071
          },
          {
            "duration": 0.1705881500000146,
            "durationTicks": 29,
            "midi": 81,
            "name": "A5",
            "ticks": 16170,
            "time": 95.1175995,
            "velocity": 0.8267716535433071
          },
          {
            "duration": 0.1705881500000146,
            "durationTicks": 29,
            "midi": 71,
            "name": "B4",
            "ticks": 16230,
            "time": 95.4705405,
            "velocity": 0.8267716535433071
          },
          {
            "duration": 0.1705881500000146,
            "durationTicks": 29,
            "midi": 83,
            "name": "B5",
            "ticks": 16230,
            "time": 95.4705405,
            "velocity": 0.8267716535433071
          },
          {
            "duration": 0.6411761500000068,
            "durationTicks": 109,
            "midi": 64,
            "name": "E4",
            "ticks": 16290,
            "time": 95.8234815,
            "velocity": 0.8267716535433071
          },
          {
            "duration": 0.6411761500000068,
            "durationTicks": 109,
            "midi": 76,
            "name": "E5",
            "ticks": 16290,
            "time": 95.8234815,
            "velocity": 0.8267716535433071
          },
          {
            "duration": 0.17058815000000038,
            "durationTicks": 29,
            "midi": 72,
            "name": "C5",
            "ticks": 16410,
            "time": 96.5293635,
            "velocity": 0.8267716535433071
          },
          {
            "duration": 0.17058815000000038,
            "durationTicks": 29,
            "midi": 60,
            "name": "C4",
            "ticks": 16410,
            "time": 96.5293635,
            "velocity": 0.8267716535433071
          },
          {
            "duration": 0.1705881500000146,
            "durationTicks": 29,
            "midi": 76,
            "name": "E5",
            "ticks": 16440,
            "time": 96.705834,
            "velocity": 0.8267716535433071
          },
          {
            "duration": 0.1705881500000146,
            "durationTicks": 29,
            "midi": 64,
            "name": "E4",
            "ticks": 16440,
            "time": 96.705834,
            "velocity": 0.8267716535433071
          },
          {
            "duration": 0.3529410000000013,
            "durationTicks": 60,
            "midi": 71,
            "name": "B4",
            "ticks": 16470,
            "time": 96.8823045,
            "velocity": 0.8267716535433071
          },
          {
            "duration": 0.3529410000000013,
            "durationTicks": 60,
            "midi": 83,
            "name": "B5",
            "ticks": 16470,
            "time": 96.8823045,
            "velocity": 0.8267716535433071
          },
          {
            "duration": 0.05294114999999522,
            "durationTicks": 9,
            "midi": 81,
            "name": "A5",
            "ticks": 16530,
            "time": 97.2352455,
            "velocity": 0.8267716535433071
          },
          {
            "duration": 0.05294114999999522,
            "durationTicks": 9,
            "midi": 69,
            "name": "A4",
            "ticks": 16530,
            "time": 97.2352455,
            "velocity": 0.8267716535433071
          },
          {
            "duration": 0.05294114999999522,
            "durationTicks": 9,
            "midi": 83,
            "name": "B5",
            "ticks": 16545,
            "time": 97.32348075,
            "velocity": 0.8267716535433071
          },
          {
            "duration": 0.05294114999999522,
            "durationTicks": 9,
            "midi": 71,
            "name": "B4",
            "ticks": 16545,
            "time": 97.32348075,
            "velocity": 0.8267716535433071
          },
          {
            "duration": 0.6999996500000094,
            "durationTicks": 119,
            "midi": 81,
            "name": "A5",
            "ticks": 16560,
            "time": 97.411716,
            "velocity": 0.8267716535433071
          },
          {
            "duration": 0.6999996500000094,
            "durationTicks": 119,
            "midi": 69,
            "name": "A4",
            "ticks": 16560,
            "time": 97.411716,
            "velocity": 0.8267716535433071
          },
          {
            "duration": 0.17647050000000775,
            "durationTicks": 30,
            "midi": 64,
            "name": "E4",
            "ticks": 16710,
            "time": 98.2940685,
            "velocity": 0.8267716535433071
          },
          {
            "duration": 0.17647050000000775,
            "durationTicks": 30,
            "midi": 76,
            "name": "E5",
            "ticks": 16710,
            "time": 98.2940685,
            "velocity": 0.8267716535433071
          },
          {
            "duration": 0.17647050000000775,
            "durationTicks": 30,
            "midi": 66,
            "name": "F#4",
            "ticks": 16770,
            "time": 98.6470095,
            "velocity": 0.8267716535433071
          },
          {
            "duration": 0.17647050000000775,
            "durationTicks": 30,
            "midi": 78,
            "name": "F#5",
            "ticks": 16770,
            "time": 98.6470095,
            "velocity": 0.8267716535433071
          },
          {
            "duration": 0.7058820000000026,
            "durationTicks": 120,
            "midi": 68,
            "name": "G#4",
            "ticks": 16800,
            "time": 98.82348,
            "velocity": 0.8267716535433071
          },
          {
            "duration": 0.7058820000000026,
            "durationTicks": 120,
            "midi": 80,
            "name": "G#5",
            "ticks": 16800,
            "time": 98.82348,
            "velocity": 0.8267716535433071
          },
          {
            "duration": 0.17647050000000775,
            "durationTicks": 30,
            "midi": 64,
            "name": "E4",
            "ticks": 17040,
            "time": 100.235244,
            "velocity": 0.8267716535433071
          },
          {
            "duration": 0.17647050000000775,
            "durationTicks": 30,
            "midi": 76,
            "name": "E5",
            "ticks": 17040,
            "time": 100.235244,
            "velocity": 0.8267716535433071
          },
          {
            "duration": 0.34705865000000813,
            "durationTicks": 59,
            "midi": 64,
            "name": "E4",
            "ticks": 17070,
            "time": 100.4117145,
            "velocity": 0.8267716535433071
          },
          {
            "duration": 0.34705865000000813,
            "durationTicks": 59,
            "midi": 76,
            "name": "E5",
            "ticks": 17070,
            "time": 100.4117145,
            "velocity": 0.8267716535433071
          },
          {
            "duration": 0.17058815000000038,
            "durationTicks": 29,
            "midi": 66,
            "name": "F#4",
            "ticks": 17130,
            "time": 100.7646555,
            "velocity": 0.8267716535433071
          },
          {
            "duration": 0.17058815000000038,
            "durationTicks": 29,
            "midi": 78,
            "name": "F#5",
            "ticks": 17130,
            "time": 100.7646555,
            "velocity": 0.8267716535433071
          },
          {
            "duration": 0.17058815000000038,
            "durationTicks": 29,
            "midi": 68,
            "name": "G#4",
            "ticks": 17190,
            "time": 101.1175965,
            "velocity": 0.8267716535433071
          },
          {
            "duration": 0.17058815000000038,
            "durationTicks": 29,
            "midi": 80,
            "name": "G#5",
            "ticks": 17190,
            "time": 101.1175965,
            "velocity": 0.8267716535433071
          },
          {
            "duration": 1.0588229999999896,
            "durationTicks": 180,
            "midi": 59,
            "name": "B3",
            "ticks": 17250,
            "time": 101.4705375,
            "velocity": 0.8267716535433071
          },
          {
            "duration": 1.0588229999999896,
            "durationTicks": 180,
            "midi": 71,
            "name": "B4",
            "ticks": 17250,
            "time": 101.4705375,
            "velocity": 0.8267716535433071
          },
          {
            "duration": 0.3529410000000013,
            "durationTicks": 60,
            "midi": 66,
            "name": "F#4",
            "ticks": 17430,
            "time": 102.5293605,
            "velocity": 0.8267716535433071
          },
          {
            "duration": 0.3529410000000013,
            "durationTicks": 60,
            "midi": 78,
            "name": "F#5",
            "ticks": 17430,
            "time": 102.5293605,
            "velocity": 0.8267716535433071
          },
          {
            "duration": 1.0588230000000038,
            "durationTicks": 180,
            "midi": 60,
            "name": "C4",
            "ticks": 17490,
            "time": 102.8823015,
            "velocity": 0.8267716535433071
          },
          {
            "duration": 1.0588230000000038,
            "durationTicks": 180,
            "midi": 72,
            "name": "C5",
            "ticks": 17490,
            "time": 102.8823015,
            "velocity": 0.8267716535433071
          },
          {
            "duration": 0.3529410000000013,
            "durationTicks": 60,
            "midi": 76,
            "name": "E5",
            "ticks": 17670,
            "time": 103.9411245,
            "velocity": 0.8267716535433071
          },
          {
            "duration": 0.3529410000000013,
            "durationTicks": 60,
            "midi": 64,
            "name": "E4",
            "ticks": 17672,
            "time": 103.95288920000002,
            "velocity": 0.8267716535433071
          },
          {
            "duration": 0.17058815000000038,
            "durationTicks": 29,
            "midi": 61,
            "name": "C#4",
            "ticks": 17730,
            "time": 104.2940655,
            "velocity": 0.8267716535433071
          },
          {
            "duration": 1.5823521500000055,
            "durationTicks": 269,
            "midi": 73,
            "name": "C#5",
            "ticks": 17730,
            "time": 104.2940655,
            "velocity": 0.8267716535433071
          },
          {
            "duration": 0.17647050000000775,
            "durationTicks": 30,
            "midi": 54,
            "name": "F#3",
            "ticks": 17760,
            "time": 104.470536,
            "velocity": 0.8267716535433071
          },
          {
            "duration": 0.17647049999999354,
            "durationTicks": 30,
            "midi": 52,
            "name": "E3",
            "ticks": 17790,
            "time": 104.6470065,
            "velocity": 0.8267716535433071
          },
          {
            "duration": 0.1705881500000146,
            "durationTicks": 29,
            "midi": 56,
            "name": "G#3",
            "ticks": 17820,
            "time": 104.823477,
            "velocity": 0.8267716535433071
          },
          {
            "duration": 0.17647049999999354,
            "durationTicks": 30,
            "midi": 59,
            "name": "B3",
            "ticks": 17850,
            "time": 104.9999475,
            "velocity": 0.8267716535433071
          },
          {
            "duration": 0.17647050000000775,
            "durationTicks": 30,
            "midi": 61,
            "name": "C#4",
            "ticks": 17880,
            "time": 105.176418,
            "velocity": 0.8267716535433071
          },
          {
            "duration": 0.17058815000000038,
            "durationTicks": 29,
            "midi": 63,
            "name": "D#4",
            "ticks": 17910,
            "time": 105.3528885,
            "velocity": 0.8267716535433071
          },
          {
            "duration": 0.17058815000000038,
            "durationTicks": 29,
            "midi": 64,
            "name": "E4",
            "ticks": 17940,
            "time": 105.529359,
            "velocity": 0.8267716535433071
          },
          {
            "duration": 0.17058815000000038,
            "durationTicks": 29,
            "midi": 66,
            "name": "F#4",
            "ticks": 17970,
            "time": 105.70582950000001,
            "velocity": 0.8267716535433071
          },
          {
            "duration": 0.3529410000000013,
            "durationTicks": 60,
            "midi": 61,
            "name": "C#4",
            "ticks": 18000,
            "time": 105.8823,
            "velocity": 0.8267716535433071
          },
          {
            "duration": 0.3529410000000013,
            "durationTicks": 60,
            "midi": 73,
            "name": "C#5",
            "ticks": 18000,
            "time": 105.8823,
            "velocity": 0.8267716535433071
          },
          {
            "duration": 0.17647049999999354,
            "durationTicks": 30,
            "midi": 64,
            "name": "E4",
            "ticks": 18060,
            "time": 106.235241,
            "velocity": 0.8267716535433071
          },
          {
            "duration": 0.17647049999999354,
            "durationTicks": 30,
            "midi": 76,
            "name": "E5",
            "ticks": 18060,
            "time": 106.235241,
            "velocity": 0.8267716535433071
          },
          {
            "duration": 0.17647050000000775,
            "durationTicks": 30,
            "midi": 80,
            "name": "G#5",
            "ticks": 18090,
            "time": 106.4117115,
            "velocity": 0.8267716535433071
          },
          {
            "duration": 0.17647050000000775,
            "durationTicks": 30,
            "midi": 68,
            "name": "G#4",
            "ticks": 18090,
            "time": 106.4117115,
            "velocity": 0.8267716535433071
          },
          {
            "duration": 0.17647050000000775,
            "durationTicks": 30,
            "midi": 76,
            "name": "E5",
            "ticks": 18150,
            "time": 106.7646525,
            "velocity": 0.8267716535433071
          },
          {
            "duration": 0.17647050000000775,
            "durationTicks": 30,
            "midi": 88,
            "name": "E6",
            "ticks": 18150,
            "time": 106.7646525,
            "velocity": 0.8267716535433071
          },
          {
            "duration": 2.1705871499999887,
            "durationTicks": 369,
            "midi": 84,
            "name": "C6",
            "ticks": 18210,
            "time": 107.1175935,
            "velocity": 0.8267716535433071
          },
          {
            "duration": 0.5235291500000017,
            "durationTicks": 89,
            "midi": 72,
            "name": "C5",
            "ticks": 18210,
            "time": 107.1175935,
            "velocity": 0.8267716535433071
          },
          {
            "duration": 0.17647049999999354,
            "durationTicks": 30,
            "midi": 69,
            "name": "A4",
            "ticks": 18300,
            "time": 107.64700500000001,
            "velocity": 0.8267716535433071
          },
          {
            "duration": 0.17647050000000775,
            "durationTicks": 30,
            "midi": 66,
            "name": "F#4",
            "ticks": 18330,
            "time": 107.8234755,
            "velocity": 0.8267716535433071
          },
          {
            "duration": 0.17647049999999354,
            "durationTicks": 30,
            "midi": 64,
            "name": "E4",
            "ticks": 18360,
            "time": 107.99994600000001,
            "velocity": 0.8267716535433071
          },
          {
            "duration": 0.17647049999999354,
            "durationTicks": 30,
            "midi": 60,
            "name": "C4",
            "ticks": 18390,
            "time": 108.1764165,
            "velocity": 0.8267716535433071
          },
          {
            "duration": 0.17647050000000775,
            "durationTicks": 30,
            "midi": 57,
            "name": "A3",
            "ticks": 18420,
            "time": 108.352887,
            "velocity": 0.8267716535433071
          },
          {
            "duration": 0.4647056499999991,
            "durationTicks": 79,
            "midi": 54,
            "name": "F#3",
            "ticks": 18450,
            "time": 108.5293575,
            "velocity": 0.8267716535433071
          },
          {
            "duration": 0.22941164999998875,
            "durationTicks": 39,
            "midi": 54,
            "name": "F#3",
            "ticks": 18540,
            "time": 109.058769,
            "velocity": 0.8267716535433071
          },
          {
            "duration": 0.3529410000000013,
            "durationTicks": 60,
            "midi": 64,
            "name": "E4",
            "ticks": 18600,
            "time": 109.41171,
            "velocity": 0.8267716535433071
          },
          {
            "duration": 0.3529410000000013,
            "durationTicks": 60,
            "midi": 76,
            "name": "E5",
            "ticks": 18600,
            "time": 109.41171,
            "velocity": 0.8267716535433071
          },
          {
            "duration": 0.3529410000000013,
            "durationTicks": 60,
            "midi": 66,
            "name": "F#4",
            "ticks": 18660,
            "time": 109.764651,
            "velocity": 0.8267716535433071
          },
          {
            "duration": 0.3529410000000013,
            "durationTicks": 60,
            "midi": 78,
            "name": "F#5",
            "ticks": 18660,
            "time": 109.764651,
            "velocity": 0.8267716535433071
          },
          {
            "duration": 0.3529410000000013,
            "durationTicks": 60,
            "midi": 68,
            "name": "G#4",
            "ticks": 18720,
            "time": 110.117592,
            "velocity": 0.8267716535433071
          },
          {
            "duration": 0.3529410000000013,
            "durationTicks": 60,
            "midi": 80,
            "name": "G#5",
            "ticks": 18720,
            "time": 110.117592,
            "velocity": 0.8267716535433071
          },
          {
            "duration": 0.17647049999999354,
            "durationTicks": 30,
            "midi": 68,
            "name": "G#4",
            "ticks": 18780,
            "time": 110.470533,
            "velocity": 0.8267716535433071
          },
          {
            "duration": 0.17647049999999354,
            "durationTicks": 30,
            "midi": 80,
            "name": "G#5",
            "ticks": 18780,
            "time": 110.470533,
            "velocity": 0.8267716535433071
          },
          {
            "duration": 0.17647050000000775,
            "durationTicks": 30,
            "midi": 68,
            "name": "G#4",
            "ticks": 18810,
            "time": 110.6470035,
            "velocity": 0.8267716535433071
          },
          {
            "duration": 0.17647050000000775,
            "durationTicks": 30,
            "midi": 80,
            "name": "G#5",
            "ticks": 18810,
            "time": 110.6470035,
            "velocity": 0.8267716535433071
          },
          {
            "duration": 0.17647050000000775,
            "durationTicks": 30,
            "midi": 64,
            "name": "E4",
            "ticks": 18870,
            "time": 110.9999445,
            "velocity": 0.8267716535433071
          },
          {
            "duration": 0.17647050000000775,
            "durationTicks": 30,
            "midi": 76,
            "name": "E5",
            "ticks": 18870,
            "time": 110.9999445,
            "velocity": 0.8267716535433071
          },
          {
            "duration": 0.17647050000000775,
            "durationTicks": 30,
            "midi": 66,
            "name": "F#4",
            "ticks": 18930,
            "time": 111.3528855,
            "velocity": 0.8267716535433071
          },
          {
            "duration": 0.17647050000000775,
            "durationTicks": 30,
            "midi": 78,
            "name": "F#5",
            "ticks": 18930,
            "time": 111.3528855,
            "velocity": 0.8267716535433071
          },
          {
            "duration": 0.3529410000000013,
            "durationTicks": 60,
            "midi": 68,
            "name": "G#4",
            "ticks": 18960,
            "time": 111.529356,
            "velocity": 0.8267716535433071
          },
          {
            "duration": 0.3529410000000013,
            "durationTicks": 60,
            "midi": 80,
            "name": "G#5",
            "ticks": 18960,
            "time": 111.529356,
            "velocity": 0.8267716535433071
          },
          {
            "duration": 0.17647049999999354,
            "durationTicks": 30,
            "midi": 68,
            "name": "G#4",
            "ticks": 19020,
            "time": 111.88229700000001,
            "velocity": 0.8267716535433071
          },
          {
            "duration": 0.17647049999999354,
            "durationTicks": 30,
            "midi": 80,
            "name": "G#5",
            "ticks": 19020,
            "time": 111.88229700000001,
            "velocity": 0.8267716535433071
          },
          {
            "duration": 0.17647049999999354,
            "durationTicks": 30,
            "midi": 68,
            "name": "G#4",
            "ticks": 19050,
            "time": 112.0587675,
            "velocity": 0.8267716535433071
          },
          {
            "duration": 0.17647049999999354,
            "durationTicks": 30,
            "midi": 80,
            "name": "G#5",
            "ticks": 19050,
            "time": 112.0587675,
            "velocity": 0.8267716535433071
          },
          {
            "duration": 0.17647049999999354,
            "durationTicks": 30,
            "midi": 64,
            "name": "E4",
            "ticks": 19110,
            "time": 112.4117085,
            "velocity": 0.8267716535433071
          },
          {
            "duration": 0.17647049999999354,
            "durationTicks": 30,
            "midi": 76,
            "name": "E5",
            "ticks": 19110,
            "time": 112.4117085,
            "velocity": 0.8267716535433071
          },
          {
            "duration": 0.17647049999999354,
            "durationTicks": 30,
            "midi": 66,
            "name": "F#4",
            "ticks": 19170,
            "time": 112.7646495,
            "velocity": 0.8267716535433071
          },
          {
            "duration": 0.17647049999999354,
            "durationTicks": 30,
            "midi": 78,
            "name": "F#5",
            "ticks": 19170,
            "time": 112.7646495,
            "velocity": 0.8267716535433071
          },
          {
            "duration": 0.3529410000000013,
            "durationTicks": 60,
            "midi": 68,
            "name": "G#4",
            "ticks": 19200,
            "time": 112.94112,
            "velocity": 0.8267716535433071
          },
          {
            "duration": 0.3529410000000013,
            "durationTicks": 60,
            "midi": 80,
            "name": "G#5",
            "ticks": 19200,
            "time": 112.94112,
            "velocity": 0.8267716535433071
          },
          {
            "duration": 0.17647050000000775,
            "durationTicks": 30,
            "midi": 68,
            "name": "G#4",
            "ticks": 19260,
            "time": 113.294061,
            "velocity": 0.8267716535433071
          },
          {
            "duration": 0.17647050000000775,
            "durationTicks": 30,
            "midi": 80,
            "name": "G#5",
            "ticks": 19260,
            "time": 113.294061,
            "velocity": 0.8267716535433071
          },
          {
            "duration": 0.17647049999999354,
            "durationTicks": 30,
            "midi": 68,
            "name": "G#4",
            "ticks": 19290,
            "time": 113.4705315,
            "velocity": 0.8267716535433071
          },
          {
            "duration": 0.17647049999999354,
            "durationTicks": 30,
            "midi": 80,
            "name": "G#5",
            "ticks": 19290,
            "time": 113.4705315,
            "velocity": 0.8267716535433071
          },
          {
            "duration": 0.17647049999999354,
            "durationTicks": 30,
            "midi": 69,
            "name": "A4",
            "ticks": 19350,
            "time": 113.82347250000001,
            "velocity": 0.8267716535433071
          },
          {
            "duration": 0.17647049999999354,
            "durationTicks": 30,
            "midi": 81,
            "name": "A5",
            "ticks": 19350,
            "time": 113.82347250000001,
            "velocity": 0.8267716535433071
          },
          {
            "duration": 0.8823525000000103,
            "durationTicks": 150,
            "midi": 71,
            "name": "B4",
            "ticks": 19410,
            "time": 114.1764135,
            "velocity": 0.8267716535433071
          },
          {
            "duration": 0.8823525000000103,
            "durationTicks": 150,
            "midi": 83,
            "name": "B5",
            "ticks": 19410,
            "time": 114.1764135,
            "velocity": 0.8267716535433071
          },
          {
            "duration": 0.7058820000000026,
            "durationTicks": 120,
            "midi": 84,
            "name": "C6",
            "ticks": 19560,
            "time": 115.058766,
            "velocity": 0.8267716535433071
          },
          {
            "duration": 0.7058820000000026,
            "durationTicks": 120,
            "midi": 72,
            "name": "C5",
            "ticks": 19560,
            "time": 115.058766,
            "velocity": 0.8267716535433071
          },
          {
            "duration": 0.7058819999999884,
            "durationTicks": 120,
            "midi": 83,
            "name": "B5",
            "ticks": 19680,
            "time": 115.76464800000001,
            "velocity": 0.8267716535433071
          },
          {
            "duration": 0.7058819999999884,
            "durationTicks": 120,
            "midi": 71,
            "name": "B4",
            "ticks": 19680,
            "time": 115.76464800000001,
            "velocity": 0.8267716535433071
          },
          {
            "duration": 0.17647050000000775,
            "durationTicks": 30,
            "midi": 68,
            "name": "G#4",
            "ticks": 19920,
            "time": 117.176412,
            "velocity": 0.8267716535433071
          },
          {
            "duration": 0.17647050000000775,
            "durationTicks": 30,
            "midi": 80,
            "name": "G#5",
            "ticks": 19920,
            "time": 117.176412,
            "velocity": 0.8267716535433071
          },
          {
            "duration": 0.3470586499999939,
            "durationTicks": 59,
            "midi": 68,
            "name": "G#4",
            "ticks": 19950,
            "time": 117.3528825,
            "velocity": 0.8267716535433071
          },
          {
            "duration": 0.3470586499999939,
            "durationTicks": 59,
            "midi": 80,
            "name": "G#5",
            "ticks": 19950,
            "time": 117.3528825,
            "velocity": 0.8267716535433071
          },
          {
            "duration": 0.17058815000000038,
            "durationTicks": 29,
            "midi": 69,
            "name": "A4",
            "ticks": 20010,
            "time": 117.70582350000001,
            "velocity": 0.8267716535433071
          },
          {
            "duration": 0.17058815000000038,
            "durationTicks": 29,
            "midi": 81,
            "name": "A5",
            "ticks": 20010,
            "time": 117.70582350000001,
            "velocity": 0.8267716535433071
          },
          {
            "duration": 0.1705881500000146,
            "durationTicks": 29,
            "midi": 71,
            "name": "B4",
            "ticks": 20070,
            "time": 118.0587645,
            "velocity": 0.8267716535433071
          },
          {
            "duration": 0.1705881500000146,
            "durationTicks": 29,
            "midi": 83,
            "name": "B5",
            "ticks": 20070,
            "time": 118.0587645,
            "velocity": 0.8267716535433071
          },
          {
            "duration": 1.0588230000000038,
            "durationTicks": 180,
            "midi": 76,
            "name": "E5",
            "ticks": 20130,
            "time": 118.4117055,
            "velocity": 0.8267716535433071
          },
          {
            "duration": 1.0588230000000038,
            "durationTicks": 180,
            "midi": 64,
            "name": "E4",
            "ticks": 20130,
            "time": 118.4117055,
            "velocity": 0.8267716535433071
          },
          {
            "duration": 0.3529410000000013,
            "durationTicks": 60,
            "midi": 71,
            "name": "B4",
            "ticks": 20310,
            "time": 119.4705285,
            "velocity": 0.8267716535433071
          },
          {
            "duration": 0.3529410000000013,
            "durationTicks": 60,
            "midi": 83,
            "name": "B5",
            "ticks": 20310,
            "time": 119.4705285,
            "velocity": 0.8267716535433071
          },
          {
            "duration": 0.8823524999999961,
            "durationTicks": 150,
            "midi": 69,
            "name": "A4",
            "ticks": 20370,
            "time": 119.8234695,
            "velocity": 0.8267716535433071
          },
          {
            "duration": 0.8823524999999961,
            "durationTicks": 150,
            "midi": 81,
            "name": "A5",
            "ticks": 20370,
            "time": 119.8234695,
            "velocity": 0.8267716535433071
          },
          {
            "duration": 0.17647049999999354,
            "durationTicks": 30,
            "midi": 64,
            "name": "E4",
            "ticks": 20550,
            "time": 120.8822925,
            "velocity": 0.8267716535433071
          },
          {
            "duration": 0.17647049999999354,
            "durationTicks": 30,
            "midi": 76,
            "name": "E5",
            "ticks": 20550,
            "time": 120.8822925,
            "velocity": 0.8267716535433071
          },
          {
            "duration": 0.17647049999999354,
            "durationTicks": 30,
            "midi": 66,
            "name": "F#4",
            "ticks": 20610,
            "time": 121.2352335,
            "velocity": 0.8267716535433071
          },
          {
            "duration": 0.17647049999999354,
            "durationTicks": 30,
            "midi": 78,
            "name": "F#5",
            "ticks": 20610,
            "time": 121.2352335,
            "velocity": 0.8267716535433071
          },
          {
            "duration": 0.7058820000000026,
            "durationTicks": 120,
            "midi": 68,
            "name": "G#4",
            "ticks": 20640,
            "time": 121.411704,
            "velocity": 0.8267716535433071
          },
          {
            "duration": 0.7058820000000026,
            "durationTicks": 120,
            "midi": 80,
            "name": "G#5",
            "ticks": 20640,
            "time": 121.411704,
            "velocity": 0.8267716535433071
          },
          {
            "duration": 0.17647049999999354,
            "durationTicks": 30,
            "midi": 64,
            "name": "E4",
            "ticks": 20880,
            "time": 122.823468,
            "velocity": 0.8267716535433071
          },
          {
            "duration": 0.17647049999999354,
            "durationTicks": 30,
            "midi": 76,
            "name": "E5",
            "ticks": 20880,
            "time": 122.823468,
            "velocity": 0.8267716535433071
          },
          {
            "duration": 0.34705865000000813,
            "durationTicks": 59,
            "midi": 64,
            "name": "E4",
            "ticks": 20910,
            "time": 122.9999385,
            "velocity": 0.8267716535433071
          },
          {
            "duration": 0.34705865000000813,
            "durationTicks": 59,
            "midi": 76,
            "name": "E5",
            "ticks": 20910,
            "time": 122.9999385,
            "velocity": 0.8267716535433071
          },
          {
            "duration": 0.17058815000000038,
            "durationTicks": 29,
            "midi": 66,
            "name": "F#4",
            "ticks": 20970,
            "time": 123.3528795,
            "velocity": 0.8267716535433071
          },
          {
            "duration": 0.17058815000000038,
            "durationTicks": 29,
            "midi": 78,
            "name": "F#5",
            "ticks": 20970,
            "time": 123.3528795,
            "velocity": 0.8267716535433071
          },
          {
            "duration": 0.17058815000000038,
            "durationTicks": 29,
            "midi": 68,
            "name": "G#4",
            "ticks": 21030,
            "time": 123.7058205,
            "velocity": 0.8267716535433071
          },
          {
            "duration": 0.17058815000000038,
            "durationTicks": 29,
            "midi": 80,
            "name": "G#5",
            "ticks": 21030,
            "time": 123.7058205,
            "velocity": 0.8267716535433071
          },
          {
            "duration": 1.0588230000000038,
            "durationTicks": 180,
            "midi": 59,
            "name": "B3",
            "ticks": 21090,
            "time": 124.0587615,
            "velocity": 0.8267716535433071
          },
          {
            "duration": 1.0588230000000038,
            "durationTicks": 180,
            "midi": 71,
            "name": "B4",
            "ticks": 21090,
            "time": 124.0587615,
            "velocity": 0.8267716535433071
          },
          {
            "duration": 0.3529410000000013,
            "durationTicks": 60,
            "midi": 66,
            "name": "F#4",
            "ticks": 21270,
            "time": 125.1175845,
            "velocity": 0.8267716535433071
          },
          {
            "duration": 0.3529410000000013,
            "durationTicks": 60,
            "midi": 78,
            "name": "F#5",
            "ticks": 21270,
            "time": 125.1175845,
            "velocity": 0.8267716535433071
          },
          {
            "duration": 1.0588229999999896,
            "durationTicks": 180,
            "midi": 60,
            "name": "C4",
            "ticks": 21330,
            "time": 125.47052550000001,
            "velocity": 0.8267716535433071
          },
          {
            "duration": 1.0588229999999896,
            "durationTicks": 180,
            "midi": 72,
            "name": "C5",
            "ticks": 21330,
            "time": 125.47052550000001,
            "velocity": 0.8267716535433071
          },
          {
            "duration": 0.3529410000000013,
            "durationTicks": 60,
            "midi": 76,
            "name": "E5",
            "ticks": 21510,
            "time": 126.5293485,
            "velocity": 0.8267716535433071
          },
          {
            "duration": 0.3529410000000013,
            "durationTicks": 60,
            "midi": 64,
            "name": "E4",
            "ticks": 21512,
            "time": 126.54111320000001,
            "velocity": 0.8267716535433071
          },
          {
            "duration": 1.5882345000000129,
            "durationTicks": 270,
            "midi": 61,
            "name": "C#4",
            "ticks": 21570,
            "time": 126.8822895,
            "velocity": 0.8267716535433071
          },
          {
            "duration": 1.5882345000000129,
            "durationTicks": 270,
            "midi": 73,
            "name": "C#5",
            "ticks": 21570,
            "time": 126.8822895,
            "velocity": 0.8267716535433071
          },
          {
            "duration": 0.35294099999998707,
            "durationTicks": 60,
            "midi": 61,
            "name": "C#4",
            "ticks": 21840,
            "time": 128.470524,
            "velocity": 0.8267716535433071
          },
          {
            "duration": 0.35294099999998707,
            "durationTicks": 60,
            "midi": 73,
            "name": "C#5",
            "ticks": 21840,
            "time": 128.470524,
            "velocity": 0.8267716535433071
          },
          {
            "duration": 0.17647049999999354,
            "durationTicks": 30,
            "midi": 64,
            "name": "E4",
            "ticks": 21900,
            "time": 128.823465,
            "velocity": 0.8267716535433071
          },
          {
            "duration": 0.17647049999999354,
            "durationTicks": 30,
            "midi": 76,
            "name": "E5",
            "ticks": 21900,
            "time": 128.823465,
            "velocity": 0.8267716535433071
          },
          {
            "duration": 0.17647050000002196,
            "durationTicks": 30,
            "midi": 68,
            "name": "G#4",
            "ticks": 21930,
            "time": 128.9999355,
            "velocity": 0.8267716535433071
          },
          {
            "duration": 0.17647050000002196,
            "durationTicks": 30,
            "midi": 80,
            "name": "G#5",
            "ticks": 21930,
            "time": 128.9999355,
            "velocity": 0.8267716535433071
          },
          {
            "duration": 0.17647049999999354,
            "durationTicks": 30,
            "midi": 76,
            "name": "E5",
            "ticks": 21990,
            "time": 129.3528765,
            "velocity": 0.8267716535433071
          },
          {
            "duration": 0.17647049999999354,
            "durationTicks": 30,
            "midi": 88,
            "name": "E6",
            "ticks": 21990,
            "time": 129.3528765,
            "velocity": 0.8267716535433071
          },
          {
            "duration": 2.2941165000000012,
            "durationTicks": 390,
            "midi": 72,
            "name": "C5",
            "ticks": 22050,
            "time": 129.7058175,
            "velocity": 0.8267716535433071
          },
          {
            "duration": 2.2941165000000012,
            "durationTicks": 390,
            "midi": 84,
            "name": "C6",
            "ticks": 22050,
            "time": 129.7058175,
            "velocity": 0.8267716535433071
          },
          {
            "duration": 0.3529410000000155,
            "durationTicks": 60,
            "midi": 64,
            "name": "E4",
            "ticks": 22440,
            "time": 131.999934,
            "velocity": 0.8267716535433071
          },
          {
            "duration": 0.3529410000000155,
            "durationTicks": 60,
            "midi": 76,
            "name": "E5",
            "ticks": 22440,
            "time": 131.999934,
            "velocity": 0.8267716535433071
          },
          {
            "duration": 0.35294099999998707,
            "durationTicks": 60,
            "midi": 66,
            "name": "F#4",
            "ticks": 22500,
            "time": 132.352875,
            "velocity": 0.8267716535433071
          },
          {
            "duration": 0.35294099999998707,
            "durationTicks": 60,
            "midi": 78,
            "name": "F#5",
            "ticks": 22500,
            "time": 132.352875,
            "velocity": 0.8267716535433071
          },
          {
            "duration": 0.3529410000000155,
            "durationTicks": 60,
            "midi": 68,
            "name": "G#4",
            "ticks": 22560,
            "time": 132.705816,
            "velocity": 0.8267716535433071
          },
          {
            "duration": 0.3529410000000155,
            "durationTicks": 60,
            "midi": 80,
            "name": "G#5",
            "ticks": 22560,
            "time": 132.705816,
            "velocity": 0.8267716535433071
          },
          {
            "duration": 0.17647049999999354,
            "durationTicks": 30,
            "midi": 68,
            "name": "G#4",
            "ticks": 22620,
            "time": 133.058757,
            "velocity": 0.8267716535433071
          },
          {
            "duration": 0.17647049999999354,
            "durationTicks": 30,
            "midi": 80,
            "name": "G#5",
            "ticks": 22620,
            "time": 133.058757,
            "velocity": 0.8267716535433071
          },
          {
            "duration": 0.17647049999999354,
            "durationTicks": 30,
            "midi": 68,
            "name": "G#4",
            "ticks": 22650,
            "time": 133.2352275,
            "velocity": 0.8267716535433071
          },
          {
            "duration": 0.17647049999999354,
            "durationTicks": 30,
            "midi": 80,
            "name": "G#5",
            "ticks": 22650,
            "time": 133.2352275,
            "velocity": 0.8267716535433071
          },
          {
            "duration": 0.17647049999999354,
            "durationTicks": 30,
            "midi": 64,
            "name": "E4",
            "ticks": 22710,
            "time": 133.5881685,
            "velocity": 0.8267716535433071
          },
          {
            "duration": 0.17647049999999354,
            "durationTicks": 30,
            "midi": 76,
            "name": "E5",
            "ticks": 22710,
            "time": 133.5881685,
            "velocity": 0.8267716535433071
          },
          {
            "duration": 0.17647049999999354,
            "durationTicks": 30,
            "midi": 66,
            "name": "F#4",
            "ticks": 22770,
            "time": 133.9411095,
            "velocity": 0.8267716535433071
          },
          {
            "duration": 0.17647049999999354,
            "durationTicks": 30,
            "midi": 78,
            "name": "F#5",
            "ticks": 22770,
            "time": 133.9411095,
            "velocity": 0.8267716535433071
          },
          {
            "duration": 0.35294099999998707,
            "durationTicks": 60,
            "midi": 68,
            "name": "G#4",
            "ticks": 22800,
            "time": 134.11758,
            "velocity": 0.8267716535433071
          },
          {
            "duration": 0.35294099999998707,
            "durationTicks": 60,
            "midi": 80,
            "name": "G#5",
            "ticks": 22800,
            "time": 134.11758,
            "velocity": 0.8267716535433071
          },
          {
            "duration": 0.17647050000002196,
            "durationTicks": 30,
            "midi": 68,
            "name": "G#4",
            "ticks": 22860,
            "time": 134.470521,
            "velocity": 0.8267716535433071
          },
          {
            "duration": 0.17647050000002196,
            "durationTicks": 30,
            "midi": 80,
            "name": "G#5",
            "ticks": 22860,
            "time": 134.470521,
            "velocity": 0.8267716535433071
          },
          {
            "duration": 0.17647049999999354,
            "durationTicks": 30,
            "midi": 68,
            "name": "G#4",
            "ticks": 22890,
            "time": 134.6469915,
            "velocity": 0.8267716535433071
          },
          {
            "duration": 0.17647049999999354,
            "durationTicks": 30,
            "midi": 80,
            "name": "G#5",
            "ticks": 22890,
            "time": 134.6469915,
            "velocity": 0.8267716535433071
          },
          {
            "duration": 0.17647049999999354,
            "durationTicks": 30,
            "midi": 64,
            "name": "E4",
            "ticks": 22950,
            "time": 134.9999325,
            "velocity": 0.8267716535433071
          },
          {
            "duration": 0.17647049999999354,
            "durationTicks": 30,
            "midi": 76,
            "name": "E5",
            "ticks": 22950,
            "time": 134.9999325,
            "velocity": 0.8267716535433071
          },
          {
            "duration": 0.17647049999999354,
            "durationTicks": 30,
            "midi": 66,
            "name": "F#4",
            "ticks": 23010,
            "time": 135.35287350000002,
            "velocity": 0.8267716535433071
          },
          {
            "duration": 0.17647049999999354,
            "durationTicks": 30,
            "midi": 78,
            "name": "F#5",
            "ticks": 23010,
            "time": 135.35287350000002,
            "velocity": 0.8267716535433071
          },
          {
            "duration": 0.35294099999998707,
            "durationTicks": 60,
            "midi": 68,
            "name": "G#4",
            "ticks": 23040,
            "time": 135.529344,
            "velocity": 0.8267716535433071
          },
          {
            "duration": 0.35294099999998707,
            "durationTicks": 60,
            "midi": 80,
            "name": "G#5",
            "ticks": 23040,
            "time": 135.529344,
            "velocity": 0.8267716535433071
          },
          {
            "duration": 0.17647049999999354,
            "durationTicks": 30,
            "midi": 68,
            "name": "G#4",
            "ticks": 23100,
            "time": 135.882285,
            "velocity": 0.8267716535433071
          },
          {
            "duration": 0.17647049999999354,
            "durationTicks": 30,
            "midi": 80,
            "name": "G#5",
            "ticks": 23100,
            "time": 135.882285,
            "velocity": 0.8267716535433071
          },
          {
            "duration": 0.17647050000002196,
            "durationTicks": 30,
            "midi": 68,
            "name": "G#4",
            "ticks": 23130,
            "time": 136.0587555,
            "velocity": 0.8267716535433071
          },
          {
            "duration": 0.17647050000002196,
            "durationTicks": 30,
            "midi": 80,
            "name": "G#5",
            "ticks": 23130,
            "time": 136.0587555,
            "velocity": 0.8267716535433071
          },
          {
            "duration": 0.17647049999999354,
            "durationTicks": 30,
            "midi": 69,
            "name": "A4",
            "ticks": 23190,
            "time": 136.4116965,
            "velocity": 0.8267716535433071
          },
          {
            "duration": 0.17647049999999354,
            "durationTicks": 30,
            "midi": 81,
            "name": "A5",
            "ticks": 23190,
            "time": 136.4116965,
            "velocity": 0.8267716535433071
          },
          {
            "duration": 0.8823524999999961,
            "durationTicks": 150,
            "midi": 71,
            "name": "B4",
            "ticks": 23250,
            "time": 136.7646375,
            "velocity": 0.8267716535433071
          },
          {
            "duration": 0.8823524999999961,
            "durationTicks": 150,
            "midi": 83,
            "name": "B5",
            "ticks": 23250,
            "time": 136.7646375,
            "velocity": 0.8267716535433071
          },
          {
            "duration": 0.7058820000000026,
            "durationTicks": 120,
            "midi": 84,
            "name": "C6",
            "ticks": 23400,
            "time": 137.64699,
            "velocity": 0.8267716535433071
          },
          {
            "duration": 0.7058820000000026,
            "durationTicks": 120,
            "midi": 72,
            "name": "C5",
            "ticks": 23400,
            "time": 137.64699,
            "velocity": 0.8267716535433071
          },
          {
            "duration": 0.7058820000000026,
            "durationTicks": 120,
            "midi": 71,
            "name": "B4",
            "ticks": 23520,
            "time": 138.352872,
            "velocity": 0.8267716535433071
          },
          {
            "duration": 0.7058820000000026,
            "durationTicks": 120,
            "midi": 83,
            "name": "B5",
            "ticks": 23520,
            "time": 138.352872,
            "velocity": 0.8267716535433071
          },
          {
            "duration": 0.35294099999998707,
            "durationTicks": 60,
            "midi": 61,
            "name": "C#4",
            "ticks": 39120,
            "time": 230.117532,
            "velocity": 0.8267716535433071
          },
          {
            "duration": 0.35294099999998707,
            "durationTicks": 60,
            "midi": 73,
            "name": "C#5",
            "ticks": 39120,
            "time": 230.117532,
            "velocity": 0.8267716535433071
          },
          {
            "duration": 0.3529410000000155,
            "durationTicks": 60,
            "midi": 63,
            "name": "D#4",
            "ticks": 39180,
            "time": 230.470473,
            "velocity": 0.8267716535433071
          },
          {
            "duration": 0.3529410000000155,
            "durationTicks": 60,
            "midi": 75,
            "name": "D#5",
            "ticks": 39180,
            "time": 230.470473,
            "velocity": 0.8267716535433071
          },
          {
            "duration": 0.35294099999998707,
            "durationTicks": 60,
            "midi": 65,
            "name": "F4",
            "ticks": 39240,
            "time": 230.823414,
            "velocity": 0.8267716535433071
          },
          {
            "duration": 0.35294099999998707,
            "durationTicks": 60,
            "midi": 77,
            "name": "F5",
            "ticks": 39240,
            "time": 230.823414,
            "velocity": 0.8267716535433071
          },
          {
            "duration": 1.0588229999999896,
            "durationTicks": 180,
            "midi": 66,
            "name": "F#4",
            "ticks": 39300,
            "time": 231.176355,
            "velocity": 0.8267716535433071
          },
          {
            "duration": 1.0588229999999896,
            "durationTicks": 180,
            "midi": 78,
            "name": "F#5",
            "ticks": 39300,
            "time": 231.176355,
            "velocity": 0.8267716535433071
          },
          {
            "duration": 0.3529410000000155,
            "durationTicks": 60,
            "midi": 59,
            "name": "B3",
            "ticks": 39480,
            "time": 232.235178,
            "velocity": 0.8267716535433071
          },
          {
            "duration": 0.3529410000000155,
            "durationTicks": 60,
            "midi": 71,
            "name": "B4",
            "ticks": 39480,
            "time": 232.235178,
            "velocity": 0.8267716535433071
          },
          {
            "duration": 1.7647049999999922,
            "durationTicks": 300,
            "midi": 57,
            "name": "A3",
            "ticks": 39540,
            "time": 232.588119,
            "velocity": 0.8267716535433071
          },
          {
            "duration": 1.7647049999999922,
            "durationTicks": 300,
            "midi": 69,
            "name": "A4",
            "ticks": 39540,
            "time": 232.588119,
            "velocity": 0.8267716535433071
          },
          {
            "duration": 0.35294099999998707,
            "durationTicks": 60,
            "midi": 63,
            "name": "D#4",
            "ticks": 40080,
            "time": 235.764588,
            "velocity": 0.8267716535433071
          },
          {
            "duration": 0.35294099999998707,
            "durationTicks": 60,
            "midi": 75,
            "name": "D#5",
            "ticks": 40080,
            "time": 235.764588,
            "velocity": 0.8267716535433071
          },
          {
            "duration": 0.3529410000000155,
            "durationTicks": 60,
            "midi": 65,
            "name": "F4",
            "ticks": 40140,
            "time": 236.117529,
            "velocity": 0.8267716535433071
          },
          {
            "duration": 0.3529410000000155,
            "durationTicks": 60,
            "midi": 77,
            "name": "F5",
            "ticks": 40140,
            "time": 236.117529,
            "velocity": 0.8267716535433071
          },
          {
            "duration": 0.35294099999998707,
            "durationTicks": 60,
            "midi": 66,
            "name": "F#4",
            "ticks": 40200,
            "time": 236.47047,
            "velocity": 0.8267716535433071
          },
          {
            "duration": 0.35294099999998707,
            "durationTicks": 60,
            "midi": 78,
            "name": "F#5",
            "ticks": 40200,
            "time": 236.47047,
            "velocity": 0.8267716535433071
          },
          {
            "duration": 1.058823000000018,
            "durationTicks": 180,
            "midi": 68,
            "name": "G#4",
            "ticks": 40260,
            "time": 236.823411,
            "velocity": 0.8267716535433071
          },
          {
            "duration": 1.058823000000018,
            "durationTicks": 180,
            "midi": 80,
            "name": "G#5",
            "ticks": 40260,
            "time": 236.823411,
            "velocity": 0.8267716535433071
          },
          {
            "duration": 0.35294099999998707,
            "durationTicks": 60,
            "midi": 63,
            "name": "D#4",
            "ticks": 40440,
            "time": 237.882234,
            "velocity": 0.8267716535433071
          },
          {
            "duration": 0.35294099999998707,
            "durationTicks": 60,
            "midi": 75,
            "name": "D#5",
            "ticks": 40440,
            "time": 237.882234,
            "velocity": 0.8267716535433071
          },
          {
            "duration": 1.7647049999999922,
            "durationTicks": 300,
            "midi": 62,
            "name": "D4",
            "ticks": 40500,
            "time": 238.235175,
            "velocity": 0.8267716535433071
          },
          {
            "duration": 1.7647049999999922,
            "durationTicks": 300,
            "midi": 74,
            "name": "D5",
            "ticks": 40500,
            "time": 238.235175,
            "velocity": 0.8267716535433071
          },
          {
            "duration": 0.3529410000000155,
            "durationTicks": 60,
            "midi": 67,
            "name": "G4",
            "ticks": 41040,
            "time": 241.411644,
            "velocity": 0.8267716535433071
          },
          {
            "duration": 0.3529410000000155,
            "durationTicks": 60,
            "midi": 79,
            "name": "G5",
            "ticks": 41040,
            "time": 241.411644,
            "velocity": 0.8267716535433071
          },
          {
            "duration": 0.35294099999998707,
            "durationTicks": 60,
            "midi": 68,
            "name": "G#4",
            "ticks": 41100,
            "time": 241.764585,
            "velocity": 0.8267716535433071
          },
          {
            "duration": 0.35294099999998707,
            "durationTicks": 60,
            "midi": 80,
            "name": "G#5",
            "ticks": 41100,
            "time": 241.764585,
            "velocity": 0.8267716535433071
          },
          {
            "duration": 0.3529410000000155,
            "durationTicks": 60,
            "midi": 70,
            "name": "A#4",
            "ticks": 41160,
            "time": 242.117526,
            "velocity": 0.8267716535433071
          },
          {
            "duration": 0.3529410000000155,
            "durationTicks": 60,
            "midi": 82,
            "name": "A#5",
            "ticks": 41160,
            "time": 242.117526,
            "velocity": 0.8267716535433071
          },
          {
            "duration": 1.7647049999999922,
            "durationTicks": 300,
            "midi": 71,
            "name": "B4",
            "ticks": 41220,
            "time": 242.470467,
            "velocity": 0.8267716535433071
          },
          {
            "duration": 1.7647049999999922,
            "durationTicks": 300,
            "midi": 83,
            "name": "B5",
            "ticks": 41220,
            "time": 242.470467,
            "velocity": 0.8267716535433071
          },
          {
            "duration": 0.529411500000009,
            "durationTicks": 90,
            "midi": 70,
            "name": "A#4",
            "ticks": 41520,
            "time": 244.235172,
            "velocity": 0.8267716535433071
          },
          {
            "duration": 0.529411500000009,
            "durationTicks": 90,
            "midi": 82,
            "name": "A#5",
            "ticks": 41520,
            "time": 244.235172,
            "velocity": 0.8267716535433071
          },
          {
            "duration": 0.5294114999999806,
            "durationTicks": 90,
            "midi": 68,
            "name": "G#4",
            "ticks": 41610,
            "time": 244.76458350000001,
            "velocity": 0.8267716535433071
          },
          {
            "duration": 0.5294114999999806,
            "durationTicks": 90,
            "midi": 80,
            "name": "G#5",
            "ticks": 41610,
            "time": 244.76458350000001,
            "velocity": 0.8267716535433071
          },
          {
            "duration": 1.7647050000000206,
            "durationTicks": 300,
            "midi": 61,
            "name": "C#4",
            "ticks": 41700,
            "time": 245.293995,
            "velocity": 0.8267716535433071
          },
          {
            "duration": 1.7647050000000206,
            "durationTicks": 300,
            "midi": 73,
            "name": "C#5",
            "ticks": 41700,
            "time": 245.293995,
            "velocity": 0.8267716535433071
          },
          {
            "duration": 0.35294099999998707,
            "durationTicks": 60,
            "midi": 63,
            "name": "D#4",
            "ticks": 42000,
            "time": 247.05870000000002,
            "velocity": 0.8267716535433071
          },
          {
            "duration": 0.35294099999998707,
            "durationTicks": 60,
            "midi": 75,
            "name": "D#5",
            "ticks": 42000,
            "time": 247.05870000000002,
            "velocity": 0.8267716535433071
          },
          {
            "duration": 0.35294099999998707,
            "durationTicks": 60,
            "midi": 65,
            "name": "F4",
            "ticks": 42060,
            "time": 247.411641,
            "velocity": 0.8267716535433071
          },
          {
            "duration": 0.35294099999998707,
            "durationTicks": 60,
            "midi": 77,
            "name": "F5",
            "ticks": 42060,
            "time": 247.411641,
            "velocity": 0.8267716535433071
          },
          {
            "duration": 0.3529410000000155,
            "durationTicks": 60,
            "midi": 66,
            "name": "F#4",
            "ticks": 42120,
            "time": 247.764582,
            "velocity": 0.8267716535433071
          },
          {
            "duration": 0.3529410000000155,
            "durationTicks": 60,
            "midi": 78,
            "name": "F#5",
            "ticks": 42120,
            "time": 247.764582,
            "velocity": 0.8267716535433071
          },
          {
            "duration": 1.0588229999999896,
            "durationTicks": 180,
            "midi": 68,
            "name": "G#4",
            "ticks": 42180,
            "time": 248.117523,
            "velocity": 0.8267716535433071
          },
          {
            "duration": 1.0588229999999896,
            "durationTicks": 180,
            "midi": 80,
            "name": "G#5",
            "ticks": 42180,
            "time": 248.117523,
            "velocity": 0.8267716535433071
          },
          {
            "duration": 0.3529410000000155,
            "durationTicks": 60,
            "midi": 69,
            "name": "A4",
            "ticks": 42360,
            "time": 249.176346,
            "velocity": 0.8267716535433071
          },
          {
            "duration": 0.3529410000000155,
            "durationTicks": 60,
            "midi": 81,
            "name": "A5",
            "ticks": 42360,
            "time": 249.176346,
            "velocity": 0.8267716535433071
          },
          {
            "duration": 0.17647049999999354,
            "durationTicks": 30,
            "midi": 71,
            "name": "B4",
            "ticks": 42420,
            "time": 249.529287,
            "velocity": 0.8267716535433071
          },
          {
            "duration": 0.17647049999999354,
            "durationTicks": 30,
            "midi": 83,
            "name": "B5",
            "ticks": 42420,
            "time": 249.529287,
            "velocity": 0.8267716535433071
          },
          {
            "duration": 1.5882344999999987,
            "durationTicks": 270,
            "midi": 72,
            "name": "C5",
            "ticks": 42450,
            "time": 249.7057575,
            "velocity": 0.8267716535433071
          },
          {
            "duration": 1.5882344999999987,
            "durationTicks": 270,
            "midi": 84,
            "name": "C6",
            "ticks": 42450,
            "time": 249.7057575,
            "velocity": 0.8267716535433071
          },
          {
            "duration": 0.7058820000000026,
            "durationTicks": 120,
            "midi": 71,
            "name": "B4",
            "ticks": 42720,
            "time": 251.293992,
            "velocity": 0.8267716535433071
          },
          {
            "duration": 0.7058820000000026,
            "durationTicks": 120,
            "midi": 83,
            "name": "B5",
            "ticks": 42720,
            "time": 251.293992,
            "velocity": 0.8267716535433071
          },
          {
            "duration": 0.1705881500000146,
            "durationTicks": 29,
            "midi": 68,
            "name": "G#4",
            "ticks": 42960,
            "time": 252.705756,
            "velocity": 0.8267716535433071
          },
          {
            "duration": 0.1705881500000146,
            "durationTicks": 29,
            "midi": 80,
            "name": "G#5",
            "ticks": 42960,
            "time": 252.705756,
            "velocity": 0.8267716535433071
          },
          {
            "duration": 0.34705865000000813,
            "durationTicks": 59,
            "midi": 80,
            "name": "G#5",
            "ticks": 42990,
            "time": 252.8822265,
            "velocity": 0.8267716535433071
          },
          {
            "duration": 0.34705865000000813,
            "durationTicks": 59,
            "midi": 68,
            "name": "G#4",
            "ticks": 42990,
            "time": 252.8822265,
            "velocity": 0.8267716535433071
          },
          {
            "duration": 0.17058814999998617,
            "durationTicks": 29,
            "midi": 69,
            "name": "A4",
            "ticks": 43050,
            "time": 253.23516750000002,
            "velocity": 0.8267716535433071
          },
          {
            "duration": 0.17058814999998617,
            "durationTicks": 29,
            "midi": 81,
            "name": "A5",
            "ticks": 43050,
            "time": 253.23516750000002,
            "velocity": 0.8267716535433071
          },
          {
            "duration": 0.1705881500000146,
            "durationTicks": 29,
            "midi": 71,
            "name": "B4",
            "ticks": 43110,
            "time": 253.5881085,
            "velocity": 0.8267716535433071
          },
          {
            "duration": 0.1705881500000146,
            "durationTicks": 29,
            "midi": 83,
            "name": "B5",
            "ticks": 43110,
            "time": 253.5881085,
            "velocity": 0.8267716535433071
          },
          {
            "duration": 0.6411761500000352,
            "durationTicks": 109,
            "midi": 64,
            "name": "E4",
            "ticks": 43170,
            "time": 253.9410495,
            "velocity": 0.8267716535433071
          },
          {
            "duration": 0.6411761500000352,
            "durationTicks": 109,
            "midi": 76,
            "name": "E5",
            "ticks": 43170,
            "time": 253.9410495,
            "velocity": 0.8267716535433071
          },
          {
            "duration": 0.1705881500000146,
            "durationTicks": 29,
            "midi": 72,
            "name": "C5",
            "ticks": 43290,
            "time": 254.6469315,
            "velocity": 0.8267716535433071
          },
          {
            "duration": 0.1705881500000146,
            "durationTicks": 29,
            "midi": 60,
            "name": "C4",
            "ticks": 43290,
            "time": 254.6469315,
            "velocity": 0.8267716535433071
          },
          {
            "duration": 0.17058814999998617,
            "durationTicks": 29,
            "midi": 76,
            "name": "E5",
            "ticks": 43320,
            "time": 254.82340200000002,
            "velocity": 0.8267716535433071
          },
          {
            "duration": 0.17058814999998617,
            "durationTicks": 29,
            "midi": 64,
            "name": "E4",
            "ticks": 43320,
            "time": 254.82340200000002,
            "velocity": 0.8267716535433071
          },
          {
            "duration": 0.35294099999998707,
            "durationTicks": 60,
            "midi": 71,
            "name": "B4",
            "ticks": 43350,
            "time": 254.9998725,
            "velocity": 0.8267716535433071
          },
          {
            "duration": 0.35294099999998707,
            "durationTicks": 60,
            "midi": 83,
            "name": "B5",
            "ticks": 43350,
            "time": 254.9998725,
            "velocity": 0.8267716535433071
          },
          {
            "duration": 0.8764701500000172,
            "durationTicks": 149,
            "midi": 69,
            "name": "A4",
            "ticks": 43410,
            "time": 255.3528135,
            "velocity": 0.8267716535433071
          },
          {
            "duration": 0.8764701500000172,
            "durationTicks": 149,
            "midi": 81,
            "name": "A5",
            "ticks": 43410,
            "time": 255.3528135,
            "velocity": 0.8267716535433071
          },
          {
            "duration": 0.17647049999999354,
            "durationTicks": 30,
            "midi": 64,
            "name": "E4",
            "ticks": 43590,
            "time": 256.4116365,
            "velocity": 0.8267716535433071
          },
          {
            "duration": 0.17647049999999354,
            "durationTicks": 30,
            "midi": 76,
            "name": "E5",
            "ticks": 43590,
            "time": 256.4116365,
            "velocity": 0.8267716535433071
          },
          {
            "duration": 0.17647049999999354,
            "durationTicks": 30,
            "midi": 66,
            "name": "F#4",
            "ticks": 43650,
            "time": 256.76457750000003,
            "velocity": 0.8267716535433071
          },
          {
            "duration": 0.17647049999999354,
            "durationTicks": 30,
            "midi": 78,
            "name": "F#5",
            "ticks": 43650,
            "time": 256.76457750000003,
            "velocity": 0.8267716535433071
          },
          {
            "duration": 0.7058819999999741,
            "durationTicks": 120,
            "midi": 68,
            "name": "G#4",
            "ticks": 43680,
            "time": 256.941048,
            "velocity": 0.8267716535433071
          },
          {
            "duration": 0.7058819999999741,
            "durationTicks": 120,
            "midi": 80,
            "name": "G#5",
            "ticks": 43680,
            "time": 256.941048,
            "velocity": 0.8267716535433071
          },
          {
            "duration": 0.17647049999999354,
            "durationTicks": 30,
            "midi": 64,
            "name": "E4",
            "ticks": 43920,
            "time": 258.35281200000003,
            "velocity": 0.8267716535433071
          },
          {
            "duration": 0.17647049999999354,
            "durationTicks": 30,
            "midi": 76,
            "name": "E5",
            "ticks": 43920,
            "time": 258.35281200000003,
            "velocity": 0.8267716535433071
          },
          {
            "duration": 0.34705865000000813,
            "durationTicks": 59,
            "midi": 64,
            "name": "E4",
            "ticks": 43950,
            "time": 258.5292825,
            "velocity": 0.8267716535433071
          },
          {
            "duration": 0.34705865000000813,
            "durationTicks": 59,
            "midi": 76,
            "name": "E5",
            "ticks": 43950,
            "time": 258.5292825,
            "velocity": 0.8267716535433071
          },
          {
            "duration": 0.1705881500000146,
            "durationTicks": 29,
            "midi": 66,
            "name": "F#4",
            "ticks": 44010,
            "time": 258.8822235,
            "velocity": 0.8267716535433071
          },
          {
            "duration": 0.1705881500000146,
            "durationTicks": 29,
            "midi": 78,
            "name": "F#5",
            "ticks": 44010,
            "time": 258.8822235,
            "velocity": 0.8267716535433071
          },
          {
            "duration": 0.1705881500000146,
            "durationTicks": 29,
            "midi": 68,
            "name": "G#4",
            "ticks": 44070,
            "time": 259.2351645,
            "velocity": 0.8267716535433071
          },
          {
            "duration": 0.1705881500000146,
            "durationTicks": 29,
            "midi": 80,
            "name": "G#5",
            "ticks": 44070,
            "time": 259.2351645,
            "velocity": 0.8267716535433071
          },
          {
            "duration": 1.058823000000018,
            "durationTicks": 180,
            "midi": 59,
            "name": "B3",
            "ticks": 44130,
            "time": 259.5881055,
            "velocity": 0.8267716535433071
          },
          {
            "duration": 1.058823000000018,
            "durationTicks": 180,
            "midi": 71,
            "name": "B4",
            "ticks": 44130,
            "time": 259.5881055,
            "velocity": 0.8267716535433071
          },
          {
            "duration": 0.35294099999998707,
            "durationTicks": 60,
            "midi": 66,
            "name": "F#4",
            "ticks": 44310,
            "time": 260.6469285,
            "velocity": 0.8267716535433071
          },
          {
            "duration": 0.35294099999998707,
            "durationTicks": 60,
            "midi": 78,
            "name": "F#5",
            "ticks": 44310,
            "time": 260.6469285,
            "velocity": 0.8267716535433071
          },
          {
            "duration": 1.058823000000018,
            "durationTicks": 180,
            "midi": 60,
            "name": "C4",
            "ticks": 44370,
            "time": 260.9998695,
            "velocity": 0.8267716535433071
          },
          {
            "duration": 1.058823000000018,
            "durationTicks": 180,
            "midi": 72,
            "name": "C5",
            "ticks": 44370,
            "time": 260.9998695,
            "velocity": 0.8267716535433071
          },
          {
            "duration": 0.35294099999998707,
            "durationTicks": 60,
            "midi": 76,
            "name": "E5",
            "ticks": 44550,
            "time": 262.0586925,
            "velocity": 0.8267716535433071
          },
          {
            "duration": 0.35294099999998707,
            "durationTicks": 60,
            "midi": 64,
            "name": "E4",
            "ticks": 44552,
            "time": 262.0704572,
            "velocity": 0.8267716535433071
          },
          {
            "duration": 0.1705881500000146,
            "durationTicks": 29,
            "midi": 61,
            "name": "C#4",
            "ticks": 44610,
            "time": 262.4116335,
            "velocity": 0.8267716535433071
          },
          {
            "duration": 1.5823521500000197,
            "durationTicks": 269,
            "midi": 73,
            "name": "C#5",
            "ticks": 44610,
            "time": 262.4116335,
            "velocity": 0.8267716535433071
          },
          {
            "duration": 0.17647049999999354,
            "durationTicks": 30,
            "midi": 54,
            "name": "F#3",
            "ticks": 44640,
            "time": 262.588104,
            "velocity": 0.8267716535433071
          },
          {
            "duration": 0.17647050000005038,
            "durationTicks": 30,
            "midi": 52,
            "name": "E3",
            "ticks": 44670,
            "time": 262.7645745,
            "velocity": 0.8267716535433071
          },
          {
            "duration": 0.17058814999995775,
            "durationTicks": 29,
            "midi": 56,
            "name": "G#3",
            "ticks": 44700,
            "time": 262.94104500000003,
            "velocity": 0.8267716535433071
          },
          {
            "duration": 0.17647049999999354,
            "durationTicks": 30,
            "midi": 59,
            "name": "B3",
            "ticks": 44730,
            "time": 263.1175155,
            "velocity": 0.8267716535433071
          },
          {
            "duration": 0.17647049999999354,
            "durationTicks": 30,
            "midi": 61,
            "name": "C#4",
            "ticks": 44760,
            "time": 263.293986,
            "velocity": 0.8267716535433071
          },
          {
            "duration": 0.1705881500000146,
            "durationTicks": 29,
            "midi": 63,
            "name": "D#4",
            "ticks": 44790,
            "time": 263.4704565,
            "velocity": 0.8267716535433071
          },
          {
            "duration": 0.1705881500000146,
            "durationTicks": 29,
            "midi": 64,
            "name": "E4",
            "ticks": 44820,
            "time": 263.646927,
            "velocity": 0.8267716535433071
          },
          {
            "duration": 0.1705881500000146,
            "durationTicks": 29,
            "midi": 66,
            "name": "F#4",
            "ticks": 44850,
            "time": 263.8233975,
            "velocity": 0.8267716535433071
          },
          {
            "duration": 0.35294099999998707,
            "durationTicks": 60,
            "midi": 61,
            "name": "C#4",
            "ticks": 44880,
            "time": 263.999868,
            "velocity": 0.8267716535433071
          },
          {
            "duration": 0.35294099999998707,
            "durationTicks": 60,
            "midi": 73,
            "name": "C#5",
            "ticks": 44880,
            "time": 263.999868,
            "velocity": 0.8267716535433071
          },
          {
            "duration": 0.17647050000005038,
            "durationTicks": 30,
            "midi": 64,
            "name": "E4",
            "ticks": 44940,
            "time": 264.352809,
            "velocity": 0.8267716535433071
          },
          {
            "duration": 0.17647050000005038,
            "durationTicks": 30,
            "midi": 76,
            "name": "E5",
            "ticks": 44940,
            "time": 264.352809,
            "velocity": 0.8267716535433071
          },
          {
            "duration": 0.17647049999999354,
            "durationTicks": 30,
            "midi": 68,
            "name": "G#4",
            "ticks": 44970,
            "time": 264.52927950000003,
            "velocity": 0.8267716535433071
          },
          {
            "duration": 0.17647049999999354,
            "durationTicks": 30,
            "midi": 80,
            "name": "G#5",
            "ticks": 44970,
            "time": 264.52927950000003,
            "velocity": 0.8267716535433071
          },
          {
            "duration": 0.17647049999999354,
            "durationTicks": 30,
            "midi": 76,
            "name": "E5",
            "ticks": 45030,
            "time": 264.8822205,
            "velocity": 0.8267716535433071
          },
          {
            "duration": 0.17647049999999354,
            "durationTicks": 30,
            "midi": 88,
            "name": "E6",
            "ticks": 45030,
            "time": 264.8822205,
            "velocity": 0.8267716535433071
          },
          {
            "duration": 0.5235291500000017,
            "durationTicks": 89,
            "midi": 90,
            "name": "F#6",
            "ticks": 45090,
            "time": 265.2351615,
            "velocity": 0.8267716535433071
          },
          {
            "duration": 0.5235291500000017,
            "durationTicks": 89,
            "midi": 78,
            "name": "F#5",
            "ticks": 45090,
            "time": 265.2351615,
            "velocity": 0.8267716535433071
          },
          {
            "duration": 0.11176465000005464,
            "durationTicks": 19,
            "midi": 76,
            "name": "E5",
            "ticks": 45180,
            "time": 265.764573,
            "velocity": 0.8267716535433071
          },
          {
            "duration": 0.1117646499999978,
            "durationTicks": 19,
            "midi": 72,
            "name": "C5",
            "ticks": 45200,
            "time": 265.88222,
            "velocity": 0.8267716535433071
          },
          {
            "duration": 0.1117646499999978,
            "durationTicks": 19,
            "midi": 71,
            "name": "B4",
            "ticks": 45220,
            "time": 265.999867,
            "velocity": 0.8267716535433071
          },
          {
            "duration": 0.1117646499999978,
            "durationTicks": 19,
            "midi": 69,
            "name": "A4",
            "ticks": 45240,
            "time": 266.117514,
            "velocity": 0.8267716535433071
          },
          {
            "duration": 0.1117646499999978,
            "durationTicks": 19,
            "midi": 66,
            "name": "F#4",
            "ticks": 45260,
            "time": 266.235161,
            "velocity": 0.8267716535433071
          },
          {
            "duration": 0.11176465000005464,
            "durationTicks": 19,
            "midi": 64,
            "name": "E4",
            "ticks": 45280,
            "time": 266.352808,
            "velocity": 0.8267716535433071
          },
          {
            "duration": 0.1117646499999978,
            "durationTicks": 19,
            "midi": 60,
            "name": "C4",
            "ticks": 45300,
            "time": 266.470455,
            "velocity": 0.8267716535433071
          },
          {
            "duration": 0.1117646499999978,
            "durationTicks": 19,
            "midi": 59,
            "name": "B3",
            "ticks": 45320,
            "time": 266.588102,
            "velocity": 0.8267716535433071
          },
          {
            "duration": 0.11176465000005464,
            "durationTicks": 19,
            "midi": 57,
            "name": "A3",
            "ticks": 45340,
            "time": 266.70574899999997,
            "velocity": 0.8267716535433071
          },
          {
            "duration": 0.34705865000000813,
            "durationTicks": 59,
            "midi": 54,
            "name": "F#3",
            "ticks": 45360,
            "time": 266.823396,
            "velocity": 0.8267716535433071
          },
          {
            "duration": 0.3529410000000439,
            "durationTicks": 60,
            "midi": 64,
            "name": "E4",
            "ticks": 45480,
            "time": 267.529278,
            "velocity": 0.8267716535433071
          },
          {
            "duration": 0.3529410000000439,
            "durationTicks": 60,
            "midi": 76,
            "name": "E5",
            "ticks": 45480,
            "time": 267.529278,
            "velocity": 0.8267716535433071
          },
          {
            "duration": 0.35294099999998707,
            "durationTicks": 60,
            "midi": 66,
            "name": "F#4",
            "ticks": 45540,
            "time": 267.882219,
            "velocity": 0.8267716535433071
          },
          {
            "duration": 0.35294099999998707,
            "durationTicks": 60,
            "midi": 78,
            "name": "F#5",
            "ticks": 45540,
            "time": 267.882219,
            "velocity": 0.8267716535433071
          },
          {
            "duration": 0.35294099999998707,
            "durationTicks": 60,
            "midi": 68,
            "name": "G#4",
            "ticks": 45600,
            "time": 268.23516,
            "velocity": 0.8267716535433071
          },
          {
            "duration": 0.35294099999998707,
            "durationTicks": 60,
            "midi": 80,
            "name": "G#5",
            "ticks": 45600,
            "time": 268.23516,
            "velocity": 0.8267716535433071
          },
          {
            "duration": 0.17647049999999354,
            "durationTicks": 30,
            "midi": 68,
            "name": "G#4",
            "ticks": 45660,
            "time": 268.588101,
            "velocity": 0.8267716535433071
          },
          {
            "duration": 0.17647049999999354,
            "durationTicks": 30,
            "midi": 80,
            "name": "G#5",
            "ticks": 45660,
            "time": 268.588101,
            "velocity": 0.8267716535433071
          },
          {
            "duration": 0.17647049999999354,
            "durationTicks": 30,
            "midi": 68,
            "name": "G#4",
            "ticks": 45690,
            "time": 268.7645715,
            "velocity": 0.8267716535433071
          },
          {
            "duration": 0.17647049999999354,
            "durationTicks": 30,
            "midi": 80,
            "name": "G#5",
            "ticks": 45690,
            "time": 268.7645715,
            "velocity": 0.8267716535433071
          },
          {
            "duration": 0.17647050000005038,
            "durationTicks": 30,
            "midi": 64,
            "name": "E4",
            "ticks": 45750,
            "time": 269.1175125,
            "velocity": 0.8267716535433071
          },
          {
            "duration": 0.17647050000005038,
            "durationTicks": 30,
            "midi": 76,
            "name": "E5",
            "ticks": 45750,
            "time": 269.1175125,
            "velocity": 0.8267716535433071
          },
          {
            "duration": 0.17647049999999354,
            "durationTicks": 30,
            "midi": 66,
            "name": "F#4",
            "ticks": 45810,
            "time": 269.4704535,
            "velocity": 0.8267716535433071
          },
          {
            "duration": 0.17647049999999354,
            "durationTicks": 30,
            "midi": 78,
            "name": "F#5",
            "ticks": 45810,
            "time": 269.4704535,
            "velocity": 0.8267716535433071
          },
          {
            "duration": 0.35294099999998707,
            "durationTicks": 60,
            "midi": 68,
            "name": "G#4",
            "ticks": 45840,
            "time": 269.646924,
            "velocity": 0.8267716535433071
          },
          {
            "duration": 0.35294099999998707,
            "durationTicks": 60,
            "midi": 80,
            "name": "G#5",
            "ticks": 45840,
            "time": 269.646924,
            "velocity": 0.8267716535433071
          },
          {
            "duration": 0.17647049999999354,
            "durationTicks": 30,
            "midi": 68,
            "name": "G#4",
            "ticks": 45900,
            "time": 269.999865,
            "velocity": 0.8267716535433071
          },
          {
            "duration": 0.17647049999999354,
            "durationTicks": 30,
            "midi": 80,
            "name": "G#5",
            "ticks": 45900,
            "time": 269.999865,
            "velocity": 0.8267716535433071
          },
          {
            "duration": 0.17647049999999354,
            "durationTicks": 30,
            "midi": 68,
            "name": "G#4",
            "ticks": 45930,
            "time": 270.1763355,
            "velocity": 0.8267716535433071
          },
          {
            "duration": 0.17647049999999354,
            "durationTicks": 30,
            "midi": 80,
            "name": "G#5",
            "ticks": 45930,
            "time": 270.1763355,
            "velocity": 0.8267716535433071
          },
          {
            "duration": 0.17647050000005038,
            "durationTicks": 30,
            "midi": 64,
            "name": "E4",
            "ticks": 45990,
            "time": 270.5292765,
            "velocity": 0.8267716535433071
          },
          {
            "duration": 0.17647050000005038,
            "durationTicks": 30,
            "midi": 76,
            "name": "E5",
            "ticks": 45990,
            "time": 270.5292765,
            "velocity": 0.8267716535433071
          },
          {
            "duration": 0.17647049999999354,
            "durationTicks": 30,
            "midi": 66,
            "name": "F#4",
            "ticks": 46050,
            "time": 270.8822175,
            "velocity": 0.8267716535433071
          },
          {
            "duration": 0.17647049999999354,
            "durationTicks": 30,
            "midi": 78,
            "name": "F#5",
            "ticks": 46050,
            "time": 270.8822175,
            "velocity": 0.8267716535433071
          },
          {
            "duration": 0.35294099999998707,
            "durationTicks": 60,
            "midi": 68,
            "name": "G#4",
            "ticks": 46080,
            "time": 271.058688,
            "velocity": 0.8267716535433071
          },
          {
            "duration": 0.35294099999998707,
            "durationTicks": 60,
            "midi": 80,
            "name": "G#5",
            "ticks": 46080,
            "time": 271.058688,
            "velocity": 0.8267716535433071
          },
          {
            "duration": 0.17647049999999354,
            "durationTicks": 30,
            "midi": 68,
            "name": "G#4",
            "ticks": 46140,
            "time": 271.411629,
            "velocity": 0.8267716535433071
          },
          {
            "duration": 0.17647049999999354,
            "durationTicks": 30,
            "midi": 80,
            "name": "G#5",
            "ticks": 46140,
            "time": 271.411629,
            "velocity": 0.8267716535433071
          },
          {
            "duration": 0.17647049999999354,
            "durationTicks": 30,
            "midi": 68,
            "name": "G#4",
            "ticks": 46170,
            "time": 271.5880995,
            "velocity": 0.8267716535433071
          },
          {
            "duration": 0.17647049999999354,
            "durationTicks": 30,
            "midi": 80,
            "name": "G#5",
            "ticks": 46170,
            "time": 271.5880995,
            "velocity": 0.8267716535433071
          },
          {
            "duration": 0.17647049999999354,
            "durationTicks": 30,
            "midi": 69,
            "name": "A4",
            "ticks": 46230,
            "time": 271.9410405,
            "velocity": 0.8267716535433071
          },
          {
            "duration": 0.17647049999999354,
            "durationTicks": 30,
            "midi": 81,
            "name": "A5",
            "ticks": 46230,
            "time": 271.9410405,
            "velocity": 0.8267716535433071
          },
          {
            "duration": 0.8823524999999677,
            "durationTicks": 150,
            "midi": 71,
            "name": "B4",
            "ticks": 46290,
            "time": 272.29398150000003,
            "velocity": 0.8267716535433071
          },
          {
            "duration": 0.8823524999999677,
            "durationTicks": 150,
            "midi": 83,
            "name": "B5",
            "ticks": 46290,
            "time": 272.29398150000003,
            "velocity": 0.8267716535433071
          },
          {
            "duration": 0.705882000000031,
            "durationTicks": 120,
            "midi": 84,
            "name": "C6",
            "ticks": 46440,
            "time": 273.176334,
            "velocity": 0.8267716535433071
          },
          {
            "duration": 0.705882000000031,
            "durationTicks": 120,
            "midi": 72,
            "name": "C5",
            "ticks": 46440,
            "time": 273.176334,
            "velocity": 0.8267716535433071
          },
          {
            "duration": 0.17647049999999354,
            "durationTicks": 30,
            "midi": 71,
            "name": "B4",
            "ticks": 46560,
            "time": 273.882216,
            "velocity": 0.8661417322834646
          },
          {
            "duration": 0.17647049999999354,
            "durationTicks": 30,
            "midi": 73,
            "name": "C#5",
            "ticks": 46590,
            "time": 274.0586865,
            "velocity": 0.8661417322834646
          },
          {
            "duration": 0.17647049999999354,
            "durationTicks": 30,
            "midi": 76,
            "name": "E5",
            "ticks": 46620,
            "time": 274.235157,
            "velocity": 0.8661417322834646
          },
          {
            "duration": 0.22941164999997454,
            "durationTicks": 39,
            "midi": 80,
            "name": "G#5",
            "ticks": 46650,
            "time": 274.4116275,
            "velocity": 0.8661417322834646
          },
          {
            "duration": 0.1705881500000146,
            "durationTicks": 29,
            "midi": 80,
            "name": "G#5",
            "ticks": 46710,
            "time": 274.7645685,
            "velocity": 0.8661417322834646
          },
          {
            "duration": 0.1705881500000146,
            "durationTicks": 29,
            "midi": 76,
            "name": "E5",
            "ticks": 46740,
            "time": 274.941039,
            "velocity": 0.8661417322834646
          },
          {
            "duration": 0.1705881500000146,
            "durationTicks": 29,
            "midi": 73,
            "name": "C#5",
            "ticks": 46770,
            "time": 275.1175095,
            "velocity": 0.8661417322834646
          },
          {
            "duration": 0.2882351500000482,
            "durationTicks": 49,
            "midi": 76,
            "name": "E5",
            "ticks": 46800,
            "time": 275.29398,
            "velocity": 0.8661417322834646
          },
          {
            "duration": 0.22941164999997454,
            "durationTicks": 39,
            "midi": 78,
            "name": "F#5",
            "ticks": 46860,
            "time": 275.646921,
            "velocity": 0.8661417322834646
          },
          {
            "duration": 0.22941164999997454,
            "durationTicks": 39,
            "midi": 76,
            "name": "E5",
            "ticks": 46920,
            "time": 275.999862,
            "velocity": 0.8661417322834646
          },
          {
            "duration": 0.34705865000000813,
            "durationTicks": 59,
            "midi": 79,
            "name": "G5",
            "ticks": 46980,
            "time": 276.352803,
            "velocity": 0.8661417322834646
          },
          {
            "duration": 0.34705865000000813,
            "durationTicks": 59,
            "midi": 78,
            "name": "F#5",
            "ticks": 47040,
            "time": 276.705744,
            "velocity": 0.8661417322834646
          },
          {
            "duration": 0.1117646499999978,
            "durationTicks": 19,
            "midi": 76,
            "name": "E5",
            "ticks": 47100,
            "time": 277.058685,
            "velocity": 0.8661417322834646
          },
          {
            "duration": 0.1117646499999978,
            "durationTicks": 19,
            "midi": 74,
            "name": "D5",
            "ticks": 47120,
            "time": 277.176332,
            "velocity": 0.8661417322834646
          },
          {
            "duration": 0.11176465000005464,
            "durationTicks": 19,
            "midi": 71,
            "name": "B4",
            "ticks": 47140,
            "time": 277.293979,
            "velocity": 0.8661417322834646
          },
          {
            "duration": 0.14705874999998514,
            "durationTicks": 25,
            "midi": 69,
            "name": "A4",
            "ticks": 47160,
            "time": 277.411626,
            "velocity": 0.8661417322834646
          },
          {
            "duration": 0.1705881500000146,
            "durationTicks": 29,
            "midi": 69,
            "name": "A4",
            "ticks": 47190,
            "time": 277.5880965,
            "velocity": 0.8661417322834646
          },
          {
            "duration": 0.1705881500000146,
            "durationTicks": 29,
            "midi": 67,
            "name": "G4",
            "ticks": 47220,
            "time": 277.764567,
            "velocity": 0.8661417322834646
          },
          {
            "duration": 0.1705881500000146,
            "durationTicks": 29,
            "midi": 64,
            "name": "E4",
            "ticks": 47250,
            "time": 277.9410375,
            "velocity": 0.8661417322834646
          },
          {
            "duration": 0.1705881500000146,
            "durationTicks": 29,
            "midi": 69,
            "name": "A4",
            "ticks": 47280,
            "time": 278.117508,
            "velocity": 0.8661417322834646
          },
          {
            "duration": 0.1705881500000146,
            "durationTicks": 29,
            "midi": 64,
            "name": "E4",
            "ticks": 47310,
            "time": 278.2939785,
            "velocity": 0.8661417322834646
          },
          {
            "duration": 0.17058814999995775,
            "durationTicks": 29,
            "midi": 67,
            "name": "G4",
            "ticks": 47340,
            "time": 278.47044900000003,
            "velocity": 0.8661417322834646
          },
          {
            "duration": 0.28823514999999134,
            "durationTicks": 49,
            "midi": 69,
            "name": "A4",
            "ticks": 47370,
            "time": 278.6469195,
            "velocity": 0.8661417322834646
          },
          {
            "duration": 0.1705881500000146,
            "durationTicks": 29,
            "midi": 68,
            "name": "G#4",
            "ticks": 47430,
            "time": 278.9998605,
            "velocity": 0.8661417322834646
          },
          {
            "duration": 0.1705881500000146,
            "durationTicks": 29,
            "midi": 71,
            "name": "B4",
            "ticks": 47460,
            "time": 279.176331,
            "velocity": 0.8661417322834646
          },
          {
            "duration": 0.1705881500000146,
            "durationTicks": 29,
            "midi": 73,
            "name": "C#5",
            "ticks": 47490,
            "time": 279.3528015,
            "velocity": 0.8661417322834646
          },
          {
            "duration": 0.1705881500000146,
            "durationTicks": 29,
            "midi": 75,
            "name": "D#5",
            "ticks": 47520,
            "time": 279.529272,
            "velocity": 0.8661417322834646
          },
          {
            "duration": 0.1705881500000146,
            "durationTicks": 29,
            "midi": 76,
            "name": "E5",
            "ticks": 47550,
            "time": 279.7057425,
            "velocity": 0.8661417322834646
          },
          {
            "duration": 0.1705881500000146,
            "durationTicks": 29,
            "midi": 77,
            "name": "F5",
            "ticks": 47580,
            "time": 279.882213,
            "velocity": 0.8661417322834646
          },
          {
            "duration": 0.17058814999995775,
            "durationTicks": 29,
            "midi": 78,
            "name": "F#5",
            "ticks": 47610,
            "time": 280.05868350000003,
            "velocity": 0.8661417322834646
          },
          {
            "duration": 0.1705881500000146,
            "durationTicks": 29,
            "midi": 75,
            "name": "D#5",
            "ticks": 47640,
            "time": 280.235154,
            "velocity": 0.8661417322834646
          },
          {
            "duration": 0.1705881500000146,
            "durationTicks": 29,
            "midi": 71,
            "name": "B4",
            "ticks": 47670,
            "time": 280.4116245,
            "velocity": 0.8661417322834646
          },
          {
            "duration": 0.1705881500000146,
            "durationTicks": 29,
            "midi": 68,
            "name": "G#4",
            "ticks": 47700,
            "time": 280.588095,
            "velocity": 0.8661417322834646
          },
          {
            "duration": 0.1705881500000146,
            "durationTicks": 29,
            "midi": 64,
            "name": "E4",
            "ticks": 47730,
            "time": 280.7645655,
            "velocity": 0.8661417322834646
          },
          {
            "duration": 0.1705881500000146,
            "durationTicks": 29,
            "midi": 63,
            "name": "D#4",
            "ticks": 47760,
            "time": 280.941036,
            "velocity": 0.8661417322834646
          },
          {
            "duration": 0.1705881500000146,
            "durationTicks": 29,
            "midi": 61,
            "name": "C#4",
            "ticks": 47790,
            "time": 281.1175065,
            "velocity": 0.8661417322834646
          },
          {
            "duration": 0.1705881500000146,
            "durationTicks": 29,
            "midi": 63,
            "name": "D#4",
            "ticks": 47820,
            "time": 281.293977,
            "velocity": 0.8661417322834646
          },
          {
            "duration": 0.1705881500000146,
            "durationTicks": 29,
            "midi": 59,
            "name": "B3",
            "ticks": 47850,
            "time": 281.4704475,
            "velocity": 0.8661417322834646
          },
          {
            "duration": 0.17058814999995775,
            "durationTicks": 29,
            "midi": 61,
            "name": "C#4",
            "ticks": 47880,
            "time": 281.646918,
            "velocity": 0.8661417322834646
          },
          {
            "duration": 0.1705881500000146,
            "durationTicks": 29,
            "midi": 63,
            "name": "D#4",
            "ticks": 47910,
            "time": 281.8233885,
            "velocity": 0.8661417322834646
          },
          {
            "duration": 0.1705881500000146,
            "durationTicks": 29,
            "midi": 64,
            "name": "E4",
            "ticks": 47940,
            "time": 281.999859,
            "velocity": 0.8661417322834646
          },
          {
            "duration": 0.22941164999997454,
            "durationTicks": 39,
            "midi": 66,
            "name": "F#4",
            "ticks": 47970,
            "time": 282.1763295,
            "velocity": 0.8661417322834646
          },
          {
            "duration": 0.1705881500000146,
            "durationTicks": 29,
            "midi": 68,
            "name": "G#4",
            "ticks": 48030,
            "time": 282.5292705,
            "velocity": 0.8661417322834646
          },
          {
            "duration": 0.1705881500000146,
            "durationTicks": 29,
            "midi": 69,
            "name": "A4",
            "ticks": 48060,
            "time": 282.705741,
            "velocity": 0.8661417322834646
          },
          {
            "duration": 0.1705881500000146,
            "durationTicks": 29,
            "midi": 66,
            "name": "F#4",
            "ticks": 48090,
            "time": 282.8822115,
            "velocity": 0.8661417322834646
          },
          {
            "duration": 0.1705881500000146,
            "durationTicks": 29,
            "midi": 71,
            "name": "B4",
            "ticks": 48120,
            "time": 283.058682,
            "velocity": 0.8661417322834646
          },
          {
            "duration": 0.17058814999995775,
            "durationTicks": 29,
            "midi": 73,
            "name": "C#5",
            "ticks": 48150,
            "time": 283.2351525,
            "velocity": 0.8661417322834646
          },
          {
            "duration": 0.1705881500000146,
            "durationTicks": 29,
            "midi": 74,
            "name": "D5",
            "ticks": 48180,
            "time": 283.411623,
            "velocity": 0.8661417322834646
          },
          {
            "duration": 0.1705881500000146,
            "durationTicks": 29,
            "midi": 71,
            "name": "B4",
            "ticks": 48210,
            "time": 283.5880935,
            "velocity": 0.8661417322834646
          },
          {
            "duration": 0.1705881500000146,
            "durationTicks": 29,
            "midi": 72,
            "name": "C5",
            "ticks": 48240,
            "time": 283.764564,
            "velocity": 0.8661417322834646
          },
          {
            "duration": 0.1705881500000146,
            "durationTicks": 29,
            "midi": 68,
            "name": "G#4",
            "ticks": 48270,
            "time": 283.9410345,
            "velocity": 0.8661417322834646
          },
          {
            "duration": 0.1705881500000146,
            "durationTicks": 29,
            "midi": 64,
            "name": "E4",
            "ticks": 48300,
            "time": 284.117505,
            "velocity": 0.8661417322834646
          },
          {
            "duration": 0.1705881500000146,
            "durationTicks": 29,
            "midi": 60,
            "name": "C4",
            "ticks": 48330,
            "time": 284.2939755,
            "velocity": 0.8661417322834646
          },
          {
            "duration": 0.1705881500000146,
            "durationTicks": 29,
            "midi": 56,
            "name": "G#3",
            "ticks": 48360,
            "time": 284.470446,
            "velocity": 0.8661417322834646
          },
          {
            "duration": 0.17058814999995775,
            "durationTicks": 29,
            "midi": 52,
            "name": "E3",
            "ticks": 48390,
            "time": 284.64691650000003,
            "velocity": 0.8661417322834646
          },
          {
            "duration": 0.17058814999995775,
            "durationTicks": 29,
            "midi": 54,
            "name": "F#3",
            "ticks": 48420,
            "time": 284.823387,
            "velocity": 0.8661417322834646
          },
          {
            "duration": 0.1705881500000146,
            "durationTicks": 29,
            "midi": 56,
            "name": "G#3",
            "ticks": 48450,
            "time": 284.9998575,
            "velocity": 0.8661417322834646
          },
          {
            "duration": 0.1705881500000146,
            "durationTicks": 29,
            "midi": 57,
            "name": "A3",
            "ticks": 48480,
            "time": 285.176328,
            "velocity": 0.8661417322834646
          },
          {
            "duration": 0.1705881500000146,
            "durationTicks": 29,
            "midi": 61,
            "name": "C#4",
            "ticks": 48510,
            "time": 285.3527985,
            "velocity": 0.8661417322834646
          },
          {
            "duration": 0.1705881500000146,
            "durationTicks": 29,
            "midi": 64,
            "name": "E4",
            "ticks": 48540,
            "time": 285.529269,
            "velocity": 0.8661417322834646
          },
          {
            "duration": 0.1705881500000146,
            "durationTicks": 29,
            "midi": 68,
            "name": "G#4",
            "ticks": 48570,
            "time": 285.7057395,
            "velocity": 0.8661417322834646
          },
          {
            "duration": 0.2294116500000314,
            "durationTicks": 39,
            "midi": 71,
            "name": "B4",
            "ticks": 48600,
            "time": 285.88221,
            "velocity": 0.8661417322834646
          },
          {
            "duration": 0.17058814999995775,
            "durationTicks": 29,
            "midi": 71,
            "name": "B4",
            "ticks": 48660,
            "time": 286.23515100000003,
            "velocity": 0.8661417322834646
          },
          {
            "duration": 0.17058814999995775,
            "durationTicks": 29,
            "midi": 68,
            "name": "G#4",
            "ticks": 48690,
            "time": 286.4116215,
            "velocity": 0.8661417322834646
          },
          {
            "duration": 0.22941164999997454,
            "durationTicks": 39,
            "midi": 71,
            "name": "B4",
            "ticks": 48720,
            "time": 286.588092,
            "velocity": 0.8661417322834646
          },
          {
            "duration": 0.1705881500000146,
            "durationTicks": 29,
            "midi": 73,
            "name": "C#5",
            "ticks": 48780,
            "time": 286.941033,
            "velocity": 0.8661417322834646
          },
          {
            "duration": 0.22941164999997454,
            "durationTicks": 39,
            "midi": 76,
            "name": "E5",
            "ticks": 48810,
            "time": 287.1175035,
            "velocity": 0.8661417322834646
          },
          {
            "duration": 0.2294116500000314,
            "durationTicks": 39,
            "midi": 73,
            "name": "C#5",
            "ticks": 48870,
            "time": 287.4704445,
            "velocity": 0.8661417322834646
          },
          {
            "duration": 0.34705865000000813,
            "durationTicks": 59,
            "midi": 78,
            "name": "F#5",
            "ticks": 48930,
            "time": 287.82338550000003,
            "velocity": 0.8661417322834646
          },
          {
            "duration": 0.1705881500000146,
            "durationTicks": 29,
            "midi": 76,
            "name": "E5",
            "ticks": 48990,
            "time": 288.1763265,
            "velocity": 0.8661417322834646
          },
          {
            "duration": 0.1705881500000146,
            "durationTicks": 29,
            "midi": 78,
            "name": "F#5",
            "ticks": 49020,
            "time": 288.352797,
            "velocity": 0.8661417322834646
          },
          {
            "duration": 0.1705881500000146,
            "durationTicks": 29,
            "midi": 72,
            "name": "C5",
            "ticks": 49050,
            "time": 288.5292675,
            "velocity": 0.8661417322834646
          },
          {
            "duration": 0.22941164999997454,
            "durationTicks": 39,
            "midi": 76,
            "name": "E5",
            "ticks": 49080,
            "time": 288.705738,
            "velocity": 0.8661417322834646
          },
          {
            "duration": 0.1705881500000146,
            "durationTicks": 29,
            "midi": 76,
            "name": "E5",
            "ticks": 49140,
            "time": 289.058679,
            "velocity": 0.8661417322834646
          },
          {
            "duration": 0.1705881500000146,
            "durationTicks": 29,
            "midi": 72,
            "name": "C5",
            "ticks": 49170,
            "time": 289.2351495,
            "velocity": 0.8661417322834646
          },
          {
            "duration": 0.22941164999997454,
            "durationTicks": 39,
            "midi": 76,
            "name": "E5",
            "ticks": 49200,
            "time": 289.41162,
            "velocity": 0.8661417322834646
          },
          {
            "duration": 0.1705881500000146,
            "durationTicks": 29,
            "midi": 78,
            "name": "F#5",
            "ticks": 49260,
            "time": 289.764561,
            "velocity": 0.8661417322834646
          },
          {
            "duration": 0.1705881500000146,
            "durationTicks": 29,
            "midi": 76,
            "name": "E5",
            "ticks": 49290,
            "time": 289.9410315,
            "velocity": 0.8661417322834646
          },
          {
            "duration": 0.1705881500000146,
            "durationTicks": 29,
            "midi": 79,
            "name": "G5",
            "ticks": 49320,
            "time": 290.117502,
            "velocity": 0.8661417322834646
          },
          {
            "duration": 0.1705881500000146,
            "durationTicks": 29,
            "midi": 78,
            "name": "F#5",
            "ticks": 49350,
            "time": 290.2939725,
            "velocity": 0.8661417322834646
          },
          {
            "duration": 0.1705881500000146,
            "durationTicks": 29,
            "midi": 76,
            "name": "E5",
            "ticks": 49380,
            "time": 290.470443,
            "velocity": 0.8661417322834646
          },
          {
            "duration": 0.2882351500000482,
            "durationTicks": 49,
            "midi": 80,
            "name": "G#5",
            "ticks": 49410,
            "time": 290.6469135,
            "velocity": 0.8661417322834646
          },
          {
            "duration": 0.17058814999995775,
            "durationTicks": 29,
            "midi": 79,
            "name": "G5",
            "ticks": 49470,
            "time": 290.9998545,
            "velocity": 0.8661417322834646
          },
          {
            "duration": 0.1705881500000146,
            "durationTicks": 29,
            "midi": 78,
            "name": "F#5",
            "ticks": 49500,
            "time": 291.176325,
            "velocity": 0.8661417322834646
          },
          {
            "duration": 0.1705881500000146,
            "durationTicks": 29,
            "midi": 76,
            "name": "E5",
            "ticks": 49530,
            "time": 291.3527955,
            "velocity": 0.8661417322834646
          },
          {
            "duration": 0.1705881500000146,
            "durationTicks": 29,
            "midi": 78,
            "name": "F#5",
            "ticks": 49560,
            "time": 291.529266,
            "velocity": 0.8661417322834646
          },
          {
            "duration": 0.1705881500000146,
            "durationTicks": 29,
            "midi": 73,
            "name": "C#5",
            "ticks": 49590,
            "time": 291.7057365,
            "velocity": 0.7874015748031497
          },
          {
            "duration": 0.1705881500000146,
            "durationTicks": 29,
            "midi": 76,
            "name": "E5",
            "ticks": 49620,
            "time": 291.882207,
            "velocity": 0.8661417322834646
          },
          {
            "duration": 0.1705881500000146,
            "durationTicks": 29,
            "midi": 73,
            "name": "C#5",
            "ticks": 49650,
            "time": 292.0586775,
            "velocity": 0.7874015748031497
          },
          {
            "duration": 0.2294116500000314,
            "durationTicks": 39,
            "midi": 76,
            "name": "E5",
            "ticks": 49680,
            "time": 292.235148,
            "velocity": 0.8661417322834646
          },
          {
            "duration": 0.17058814999995775,
            "durationTicks": 29,
            "midi": 78,
            "name": "F#5",
            "ticks": 49740,
            "time": 292.588089,
            "velocity": 0.8661417322834646
          },
          {
            "duration": 0.1705881500000146,
            "durationTicks": 29,
            "midi": 73,
            "name": "C#5",
            "ticks": 49770,
            "time": 292.7645595,
            "velocity": 0.8661417322834646
          },
          {
            "duration": 0.1705881500000146,
            "durationTicks": 29,
            "midi": 76,
            "name": "E5",
            "ticks": 49800,
            "time": 292.94103,
            "velocity": 0.8661417322834646
          },
          {
            "duration": 0.1705881500000146,
            "durationTicks": 29,
            "midi": 78,
            "name": "F#5",
            "ticks": 49830,
            "time": 293.1175005,
            "velocity": 0.8661417322834646
          },
          {
            "duration": 0.1705881500000146,
            "durationTicks": 29,
            "midi": 76,
            "name": "E5",
            "ticks": 49860,
            "time": 293.293971,
            "velocity": 0.8661417322834646
          },
          {
            "duration": 0.2294116500000314,
            "durationTicks": 39,
            "midi": 83,
            "name": "B5",
            "ticks": 49890,
            "time": 293.4704415,
            "velocity": 0.8661417322834646
          },
          {
            "duration": 0.2294116500000314,
            "durationTicks": 39,
            "midi": 83,
            "name": "B5",
            "ticks": 49950,
            "time": 293.8233825,
            "velocity": 0.8661417322834646
          },
          {
            "duration": 0.22941164999997454,
            "durationTicks": 39,
            "midi": 83,
            "name": "B5",
            "ticks": 50010,
            "time": 294.1763235,
            "velocity": 0.8661417322834646
          },
          {
            "duration": 0.4058821499999681,
            "durationTicks": 69,
            "midi": 81,
            "name": "A5",
            "ticks": 50070,
            "time": 294.5292645,
            "velocity": 0.8661417322834646
          },
          {
            "duration": 0.1705881500000146,
            "durationTicks": 29,
            "midi": 79,
            "name": "G5",
            "ticks": 50160,
            "time": 295.058676,
            "velocity": 0.8661417322834646
          },
          {
            "duration": 0.1705881500000146,
            "durationTicks": 29,
            "midi": 80,
            "name": "G#5",
            "ticks": 50190,
            "time": 295.2351465,
            "velocity": 0.8661417322834646
          },
          {
            "duration": 0.1705881500000146,
            "durationTicks": 29,
            "midi": 81,
            "name": "A5",
            "ticks": 50220,
            "time": 295.411617,
            "velocity": 0.8661417322834646
          },
          {
            "duration": 0.17058814999995775,
            "durationTicks": 29,
            "midi": 82,
            "name": "A#5",
            "ticks": 50250,
            "time": 295.58808750000003,
            "velocity": 0.8661417322834646
          },
          {
            "duration": 0.1705881500000146,
            "durationTicks": 29,
            "midi": 83,
            "name": "B5",
            "ticks": 50280,
            "time": 295.764558,
            "velocity": 0.8661417322834646
          },
          {
            "duration": 0.1705881500000146,
            "durationTicks": 29,
            "midi": 80,
            "name": "G#5",
            "ticks": 50310,
            "time": 295.9410285,
            "velocity": 0.8661417322834646
          },
          {
            "duration": 0.1705881500000146,
            "durationTicks": 29,
            "midi": 76,
            "name": "E5",
            "ticks": 50340,
            "time": 296.117499,
            "velocity": 0.8661417322834646
          },
          {
            "duration": 0.1705881500000146,
            "durationTicks": 29,
            "midi": 71,
            "name": "B4",
            "ticks": 50370,
            "time": 296.2939695,
            "velocity": 0.8661417322834646
          },
          {
            "duration": 0.1705881500000146,
            "durationTicks": 29,
            "midi": 69,
            "name": "A4",
            "ticks": 50400,
            "time": 296.47044,
            "velocity": 0.8661417322834646
          },
          {
            "duration": 0.1705881500000146,
            "durationTicks": 29,
            "midi": 76,
            "name": "E5",
            "ticks": 50430,
            "time": 296.6469105,
            "velocity": 0.8661417322834646
          },
          {
            "duration": 0.1705881500000146,
            "durationTicks": 29,
            "midi": 69,
            "name": "A4",
            "ticks": 50460,
            "time": 296.823381,
            "velocity": 0.8661417322834646
          },
          {
            "duration": 0.1705881500000146,
            "durationTicks": 29,
            "midi": 67,
            "name": "G4",
            "ticks": 50490,
            "time": 296.9998515,
            "velocity": 0.8661417322834646
          },
          {
            "duration": 0.17058814999995775,
            "durationTicks": 29,
            "midi": 68,
            "name": "G#4",
            "ticks": 50520,
            "time": 297.176322,
            "velocity": 0.8661417322834646
          },
          {
            "duration": 0.34705865000000813,
            "durationTicks": 59,
            "midi": 76,
            "name": "E5",
            "ticks": 50550,
            "time": 297.3527925,
            "velocity": 0.8661417322834646
          },
          {
            "duration": 0.34705865000000813,
            "durationTicks": 59,
            "midi": 76,
            "name": "E5",
            "ticks": 50640,
            "time": 297.882204,
            "velocity": 0.8661417322834646
          },
          {
            "duration": 0.1705881500000146,
            "durationTicks": 29,
            "midi": 78,
            "name": "F#5",
            "ticks": 50700,
            "time": 298.235145,
            "velocity": 0.8661417322834646
          },
          {
            "duration": 0.1705881500000146,
            "durationTicks": 29,
            "midi": 73,
            "name": "C#5",
            "ticks": 50730,
            "time": 298.4116155,
            "velocity": 0.8661417322834646
          },
          {
            "duration": 0.1705881500000146,
            "durationTicks": 29,
            "midi": 76,
            "name": "E5",
            "ticks": 50760,
            "time": 298.588086,
            "velocity": 0.8661417322834646
          },
          {
            "duration": 0.17058814999995775,
            "durationTicks": 29,
            "midi": 78,
            "name": "F#5",
            "ticks": 50790,
            "time": 298.7645565,
            "velocity": 0.8661417322834646
          },
          {
            "duration": 0.1705881500000146,
            "durationTicks": 29,
            "midi": 76,
            "name": "E5",
            "ticks": 50820,
            "time": 298.941027,
            "velocity": 0.8661417322834646
          },
          {
            "duration": 0.34705865000000813,
            "durationTicks": 59,
            "midi": 78,
            "name": "F#5",
            "ticks": 50850,
            "time": 299.1174975,
            "velocity": 0.8661417322834646
          },
          {
            "duration": 0.05294114999998101,
            "durationTicks": 9,
            "midi": 76,
            "name": "E5",
            "ticks": 50910,
            "time": 299.4704385,
            "velocity": 0.8661417322834646
          },
          {
            "duration": 0.05294114999998101,
            "durationTicks": 9,
            "midi": 74,
            "name": "D5",
            "ticks": 50925,
            "time": 299.55867375,
            "velocity": 0.8661417322834646
          },
          {
            "duration": 0.05294114999998101,
            "durationTicks": 9,
            "midi": 71,
            "name": "B4",
            "ticks": 50940,
            "time": 299.646909,
            "velocity": 0.8661417322834646
          },
          {
            "duration": 0.05294114999998101,
            "durationTicks": 9,
            "midi": 69,
            "name": "A4",
            "ticks": 50955,
            "time": 299.73514425,
            "velocity": 0.8661417322834646
          },
          {
            "duration": 0.05294114999998101,
            "durationTicks": 9,
            "midi": 67,
            "name": "G4",
            "ticks": 50970,
            "time": 299.8233795,
            "velocity": 0.8661417322834646
          },
          {
            "duration": 0.05294114999998101,
            "durationTicks": 9,
            "midi": 64,
            "name": "E4",
            "ticks": 50985,
            "time": 299.91161475,
            "velocity": 0.8661417322834646
          },
          {
            "duration": 0.05294115000003785,
            "durationTicks": 9,
            "midi": 60,
            "name": "C4",
            "ticks": 51000,
            "time": 299.99985,
            "velocity": 0.8661417322834646
          },
          {
            "duration": 0.05294114999998101,
            "durationTicks": 9,
            "midi": 59,
            "name": "B3",
            "ticks": 51015,
            "time": 300.08808525,
            "velocity": 0.8661417322834646
          },
          {
            "duration": 0.05294114999998101,
            "durationTicks": 9,
            "midi": 57,
            "name": "A3",
            "ticks": 51030,
            "time": 300.17632050000003,
            "velocity": 0.8661417322834646
          },
          {
            "duration": 0.05294114999998101,
            "durationTicks": 9,
            "midi": 55,
            "name": "G3",
            "ticks": 51045,
            "time": 300.26455575,
            "velocity": 0.8661417322834646
          },
          {
            "duration": 0.05294114999998101,
            "durationTicks": 9,
            "midi": 52,
            "name": "E3",
            "ticks": 51060,
            "time": 300.352791,
            "velocity": 0.8661417322834646
          },
          {
            "duration": 0.05294114999998101,
            "durationTicks": 9,
            "midi": 54,
            "name": "F#3",
            "ticks": 51075,
            "time": 300.44102625,
            "velocity": 0.8661417322834646
          },
          {
            "duration": 0.05294114999998101,
            "durationTicks": 9,
            "midi": 55,
            "name": "G3",
            "ticks": 51090,
            "time": 300.5292615,
            "velocity": 0.8661417322834646
          },
          {
            "duration": 0.05294114999998101,
            "durationTicks": 9,
            "midi": 52,
            "name": "E3",
            "ticks": 51105,
            "time": 300.61749675,
            "velocity": 0.8661417322834646
          },
          {
            "duration": 0.05294114999998101,
            "durationTicks": 9,
            "midi": 54,
            "name": "F#3",
            "ticks": 51120,
            "time": 300.705732,
            "velocity": 0.8661417322834646
          },
          {
            "duration": 0.05294115000003785,
            "durationTicks": 9,
            "midi": 50,
            "name": "D3",
            "ticks": 51135,
            "time": 300.79396725,
            "velocity": 0.8661417322834646
          },
          {
            "duration": 0.05294114999998101,
            "durationTicks": 9,
            "midi": 52,
            "name": "E3",
            "ticks": 51150,
            "time": 300.8822025,
            "velocity": 0.8661417322834646
          },
          {
            "duration": 0.05294114999998101,
            "durationTicks": 9,
            "midi": 54,
            "name": "F#3",
            "ticks": 51165,
            "time": 300.97043775000003,
            "velocity": 0.8661417322834646
          },
          {
            "duration": 0.05294114999998101,
            "durationTicks": 9,
            "midi": 55,
            "name": "G3",
            "ticks": 51180,
            "time": 301.058673,
            "velocity": 0.8661417322834646
          },
          {
            "duration": 0.05294114999998101,
            "durationTicks": 9,
            "midi": 57,
            "name": "A3",
            "ticks": 51195,
            "time": 301.14690825,
            "velocity": 0.8661417322834646
          },
          {
            "duration": 0.05294114999998101,
            "durationTicks": 9,
            "midi": 59,
            "name": "B3",
            "ticks": 51210,
            "time": 301.2351435,
            "velocity": 0.8661417322834646
          },
          {
            "duration": 0.05294114999998101,
            "durationTicks": 9,
            "midi": 60,
            "name": "C4",
            "ticks": 51225,
            "time": 301.32337875,
            "velocity": 0.8661417322834646
          },
          {
            "duration": 0.1705881500000146,
            "durationTicks": 29,
            "midi": 62,
            "name": "D4",
            "ticks": 51240,
            "time": 301.411614,
            "velocity": 0.8661417322834646
          },
          {
            "duration": 0.1705881500000146,
            "durationTicks": 29,
            "midi": 76,
            "name": "E5",
            "ticks": 51270,
            "time": 301.5880845,
            "velocity": 0.8661417322834646
          },
          {
            "duration": 0.17058814999995775,
            "durationTicks": 29,
            "midi": 78,
            "name": "F#5",
            "ticks": 51300,
            "time": 301.76455500000003,
            "velocity": 0.8661417322834646
          },
          {
            "duration": 0.34705865000000813,
            "durationTicks": 59,
            "midi": 80,
            "name": "G#5",
            "ticks": 51330,
            "time": 301.9410255,
            "velocity": 0.8661417322834646
          },
          {
            "duration": 0.1705881500000146,
            "durationTicks": 29,
            "midi": 76,
            "name": "E5",
            "ticks": 51390,
            "time": 302.2939665,
            "velocity": 0.8661417322834646
          },
          {
            "duration": 0.1705881500000146,
            "durationTicks": 29,
            "midi": 71,
            "name": "B4",
            "ticks": 51420,
            "time": 302.470437,
            "velocity": 0.8661417322834646
          },
          {
            "duration": 0.1705881500000146,
            "durationTicks": 29,
            "midi": 69,
            "name": "A4",
            "ticks": 51450,
            "time": 302.6469075,
            "velocity": 0.8661417322834646
          },
          {
            "duration": 0.1705881500000146,
            "durationTicks": 29,
            "midi": 68,
            "name": "G#4",
            "ticks": 51480,
            "time": 302.823378,
            "velocity": 0.8661417322834646
          },
          {
            "duration": 0.1705881500000146,
            "durationTicks": 29,
            "midi": 71,
            "name": "B4",
            "ticks": 51510,
            "time": 302.9998485,
            "velocity": 0.8661417322834646
          },
          {
            "duration": 0.1705881500000146,
            "durationTicks": 29,
            "midi": 66,
            "name": "F#4",
            "ticks": 51540,
            "time": 303.176319,
            "velocity": 0.8661417322834646
          },
          {
            "duration": 0.17058814999995775,
            "durationTicks": 29,
            "midi": 67,
            "name": "G4",
            "ticks": 51570,
            "time": 303.35278950000003,
            "velocity": 0.8661417322834646
          },
          {
            "duration": 0.22941164999997454,
            "durationTicks": 39,
            "midi": 68,
            "name": "G#4",
            "ticks": 51600,
            "time": 303.52926,
            "velocity": 0.8661417322834646
          },
          {
            "duration": 0.22941164999997454,
            "durationTicks": 39,
            "midi": 73,
            "name": "C#5",
            "ticks": 51660,
            "time": 303.882201,
            "velocity": 0.8661417322834646
          },
          {
            "duration": 0.1705881500000146,
            "durationTicks": 29,
            "midi": 76,
            "name": "E5",
            "ticks": 51720,
            "time": 304.235142,
            "velocity": 0.8661417322834646
          },
          {
            "duration": 0.1705881500000146,
            "durationTicks": 29,
            "midi": 73,
            "name": "C#5",
            "ticks": 51750,
            "time": 304.4116125,
            "velocity": 0.8661417322834646
          },
          {
            "duration": 0.2294116500000314,
            "durationTicks": 39,
            "midi": 76,
            "name": "E5",
            "ticks": 51780,
            "time": 304.588083,
            "velocity": 0.8661417322834646
          },
          {
            "duration": 0.22941164999997454,
            "durationTicks": 39,
            "midi": 74,
            "name": "D5",
            "ticks": 51840,
            "time": 304.941024,
            "velocity": 0.8661417322834646
          },
          {
            "duration": 0.1705881500000146,
            "durationTicks": 29,
            "midi": 73,
            "name": "C#5",
            "ticks": 51900,
            "time": 305.293965,
            "velocity": 0.8661417322834646
          },
          {
            "duration": 0.05294114999998101,
            "durationTicks": 9,
            "midi": 74,
            "name": "D5",
            "ticks": 51930,
            "time": 305.4704355,
            "velocity": 0.8661417322834646
          },
          {
            "duration": 0.05294115000003785,
            "durationTicks": 9,
            "midi": 73,
            "name": "C#5",
            "ticks": 51945,
            "time": 305.55867075,
            "velocity": 0.8661417322834646
          },
          {
            "duration": 0.1705881500000146,
            "durationTicks": 29,
            "midi": 71,
            "name": "B4",
            "ticks": 51960,
            "time": 305.646906,
            "velocity": 0.8661417322834646
          },
          {
            "duration": 0.1705881500000146,
            "durationTicks": 29,
            "midi": 73,
            "name": "C#5",
            "ticks": 51990,
            "time": 305.8233765,
            "velocity": 0.8661417322834646
          },
          {
            "duration": 0.1705881500000146,
            "durationTicks": 29,
            "midi": 69,
            "name": "A4",
            "ticks": 52020,
            "time": 305.999847,
            "velocity": 0.8661417322834646
          },
          {
            "duration": 0.1705881500000146,
            "durationTicks": 29,
            "midi": 66,
            "name": "F#4",
            "ticks": 52050,
            "time": 306.1763175,
            "velocity": 0.8661417322834646
          },
          {
            "duration": 0.17058814999995775,
            "durationTicks": 29,
            "midi": 72,
            "name": "C5",
            "ticks": 52080,
            "time": 306.35278800000003,
            "velocity": 0.8661417322834646
          },
          {
            "duration": 0.17058814999995775,
            "durationTicks": 29,
            "midi": 68,
            "name": "G#4",
            "ticks": 52110,
            "time": 306.5292585,
            "velocity": 0.8661417322834646
          },
          {
            "duration": 0.1705881500000146,
            "durationTicks": 29,
            "midi": 64,
            "name": "E4",
            "ticks": 52140,
            "time": 306.705729,
            "velocity": 0.8661417322834646
          },
          {
            "duration": 0.1705881500000146,
            "durationTicks": 29,
            "midi": 60,
            "name": "C4",
            "ticks": 52170,
            "time": 306.8821995,
            "velocity": 0.8661417322834646
          },
          {
            "duration": 0.1705881500000146,
            "durationTicks": 29,
            "midi": 56,
            "name": "G#3",
            "ticks": 52200,
            "time": 307.05867,
            "velocity": 0.8661417322834646
          },
          {
            "duration": 0.1705881500000146,
            "durationTicks": 29,
            "midi": 60,
            "name": "C4",
            "ticks": 52230,
            "time": 307.2351405,
            "velocity": 0.8661417322834646
          },
          {
            "duration": 0.1705881500000146,
            "durationTicks": 29,
            "midi": 64,
            "name": "E4",
            "ticks": 52260,
            "time": 307.411611,
            "velocity": 0.8661417322834646
          },
          {
            "duration": 0.1705881500000146,
            "durationTicks": 29,
            "midi": 66,
            "name": "F#4",
            "ticks": 52290,
            "time": 307.5880815,
            "velocity": 0.8661417322834646
          },
          {
            "duration": 0.2882351500000482,
            "durationTicks": 49,
            "midi": 68,
            "name": "G#4",
            "ticks": 52320,
            "time": 307.764552,
            "velocity": 0.8661417322834646
          },
          {
            "duration": 0.17058814999995775,
            "durationTicks": 29,
            "midi": 71,
            "name": "B4",
            "ticks": 52380,
            "time": 308.117493,
            "velocity": 0.8661417322834646
          },
          {
            "duration": 0.1705881500000146,
            "durationTicks": 29,
            "midi": 68,
            "name": "G#4",
            "ticks": 52410,
            "time": 308.2939635,
            "velocity": 0.8661417322834646
          },
          {
            "duration": 0.34705865000000813,
            "durationTicks": 59,
            "midi": 71,
            "name": "B4",
            "ticks": 52440,
            "time": 308.470434,
            "velocity": 0.8661417322834646
          },
          {
            "duration": 0.22941164999997454,
            "durationTicks": 39,
            "midi": 73,
            "name": "C#5",
            "ticks": 52500,
            "time": 308.823375,
            "velocity": 0.8661417322834646
          },
          {
            "duration": 0.2294116500000314,
            "durationTicks": 39,
            "midi": 76,
            "name": "E5",
            "ticks": 52560,
            "time": 309.176316,
            "velocity": 0.8661417322834646
          },
          {
            "duration": 0.17058814999995775,
            "durationTicks": 29,
            "midi": 76,
            "name": "E5",
            "ticks": 52620,
            "time": 309.52925700000003,
            "velocity": 0.8661417322834646
          },
          {
            "duration": 0.22941164999997454,
            "durationTicks": 39,
            "midi": 76,
            "name": "E5",
            "ticks": 52650,
            "time": 309.7057275,
            "velocity": 0.8661417322834646
          },
          {
            "duration": 0.22941164999997454,
            "durationTicks": 39,
            "midi": 73,
            "name": "C#5",
            "ticks": 52710,
            "time": 310.0586685,
            "velocity": 0.8661417322834646
          },
          {
            "duration": 0.1705881500000146,
            "durationTicks": 29,
            "midi": 59,
            "name": "B3",
            "ticks": 52770,
            "time": 310.4116095,
            "velocity": 0.8661417322834646
          },
          {
            "duration": 0.1705881500000146,
            "durationTicks": 29,
            "midi": 60,
            "name": "C4",
            "ticks": 52800,
            "time": 310.58808,
            "velocity": 0.8661417322834646
          },
          {
            "duration": 0.1705881500000146,
            "durationTicks": 29,
            "midi": 64,
            "name": "E4",
            "ticks": 52830,
            "time": 310.7645505,
            "velocity": 0.8661417322834646
          },
          {
            "duration": 0.1705881500000146,
            "durationTicks": 29,
            "midi": 68,
            "name": "G#4",
            "ticks": 52860,
            "time": 310.941021,
            "velocity": 0.8661417322834646
          },
          {
            "duration": 0.17058814999995775,
            "durationTicks": 29,
            "midi": 71,
            "name": "B4",
            "ticks": 52890,
            "time": 311.1174915,
            "velocity": 0.8661417322834646
          },
          {
            "duration": 0.1705881500000146,
            "durationTicks": 29,
            "midi": 68,
            "name": "G#4",
            "ticks": 52920,
            "time": 311.293962,
            "velocity": 0.8661417322834646
          },
          {
            "duration": 0.1705881500000146,
            "durationTicks": 29,
            "midi": 69,
            "name": "A4",
            "ticks": 52950,
            "time": 311.4704325,
            "velocity": 0.8661417322834646
          },
          {
            "duration": 0.1705881500000146,
            "durationTicks": 29,
            "midi": 71,
            "name": "B4",
            "ticks": 52980,
            "time": 311.646903,
            "velocity": 0.8661417322834646
          },
          {
            "duration": 0.1705881500000146,
            "durationTicks": 29,
            "midi": 72,
            "name": "C5",
            "ticks": 53010,
            "time": 311.8233735,
            "velocity": 0.8661417322834646
          },
          {
            "duration": 0.1705881500000146,
            "durationTicks": 29,
            "midi": 76,
            "name": "E5",
            "ticks": 53040,
            "time": 311.999844,
            "velocity": 0.8661417322834646
          },
          {
            "duration": 0.1705881500000146,
            "durationTicks": 29,
            "midi": 80,
            "name": "G#5",
            "ticks": 53070,
            "time": 312.1763145,
            "velocity": 0.8661417322834646
          },
          {
            "duration": 0.1705881500000146,
            "durationTicks": 29,
            "midi": 83,
            "name": "B5",
            "ticks": 53100,
            "time": 312.352785,
            "velocity": 0.8661417322834646
          },
          {
            "duration": 0.2882351500000482,
            "durationTicks": 49,
            "midi": 83,
            "name": "B5",
            "ticks": 53130,
            "time": 312.5292555,
            "velocity": 0.8661417322834646
          },
          {
            "duration": 0.22941164999997454,
            "durationTicks": 39,
            "midi": 81,
            "name": "A5",
            "ticks": 53190,
            "time": 312.8821965,
            "velocity": 0.8661417322834646
          },
          {
            "duration": 0.1705881500000146,
            "durationTicks": 29,
            "midi": 83,
            "name": "B5",
            "ticks": 53250,
            "time": 313.2351375,
            "velocity": 0.8661417322834646
          },
          {
            "duration": 0.2882351500000482,
            "durationTicks": 49,
            "midi": 80,
            "name": "G#5",
            "ticks": 53280,
            "time": 313.411608,
            "velocity": 0.8661417322834646
          },
          {
            "duration": 0.1705881500000146,
            "durationTicks": 29,
            "midi": 76,
            "name": "E5",
            "ticks": 53340,
            "time": 313.764549,
            "velocity": 0.8661417322834646
          },
          {
            "duration": 0.2882351500000482,
            "durationTicks": 49,
            "midi": 76,
            "name": "E5",
            "ticks": 53370,
            "time": 313.9410195,
            "velocity": 0.8661417322834646
          },
          {
            "duration": 0.17058814999995775,
            "durationTicks": 29,
            "midi": 73,
            "name": "C#5",
            "ticks": 53430,
            "time": 314.2939605,
            "velocity": 0.8661417322834646
          },
          {
            "duration": 0.1705881500000146,
            "durationTicks": 29,
            "midi": 76,
            "name": "E5",
            "ticks": 53460,
            "time": 314.470431,
            "velocity": 0.8661417322834646
          },
          {
            "duration": 0.1705881500000146,
            "durationTicks": 29,
            "midi": 73,
            "name": "C#5",
            "ticks": 53490,
            "time": 314.6469015,
            "velocity": 0.8661417322834646
          },
          {
            "duration": 0.28823514999999134,
            "durationTicks": 49,
            "midi": 76,
            "name": "E5",
            "ticks": 53520,
            "time": 314.823372,
            "velocity": 0.8661417322834646
          },
          {
            "duration": 0.1705881500000146,
            "durationTicks": 29,
            "midi": 78,
            "name": "F#5",
            "ticks": 53580,
            "time": 315.176313,
            "velocity": 0.8661417322834646
          },
          {
            "duration": 0.2294116500000314,
            "durationTicks": 39,
            "midi": 80,
            "name": "G#5",
            "ticks": 53610,
            "time": 315.3527835,
            "velocity": 0.8661417322834646
          },
          {
            "duration": 0.22941164999997454,
            "durationTicks": 39,
            "midi": 76,
            "name": "E5",
            "ticks": 53670,
            "time": 315.70572450000003,
            "velocity": 0.8661417322834646
          },
          {
            "duration": 0.1705881500000146,
            "durationTicks": 29,
            "midi": 78,
            "name": "F#5",
            "ticks": 53730,
            "time": 316.0586655,
            "velocity": 0.8661417322834646
          },
          {
            "duration": 0.28823514999999134,
            "durationTicks": 49,
            "midi": 80,
            "name": "G#5",
            "ticks": 53760,
            "time": 316.235136,
            "velocity": 0.8661417322834646
          },
          {
            "duration": 0.1705881500000146,
            "durationTicks": 29,
            "midi": 80,
            "name": "G#5",
            "ticks": 53820,
            "time": 316.588077,
            "velocity": 0.8661417322834646
          },
          {
            "duration": 0.2294116500000314,
            "durationTicks": 39,
            "midi": 80,
            "name": "G#5",
            "ticks": 53850,
            "time": 316.7645475,
            "velocity": 0.8661417322834646
          },
          {
            "duration": 0.2294116500000314,
            "durationTicks": 39,
            "midi": 81,
            "name": "A5",
            "ticks": 53910,
            "time": 317.1174885,
            "velocity": 0.8661417322834646
          },
          {
            "duration": 0.34705865000000813,
            "durationTicks": 59,
            "midi": 83,
            "name": "B5",
            "ticks": 53970,
            "time": 317.4704295,
            "velocity": 0.8661417322834646
          },
          {
            "duration": 0.28823514999999134,
            "durationTicks": 49,
            "midi": 71,
            "name": "B4",
            "ticks": 54060,
            "time": 317.999841,
            "velocity": 0.8661417322834646
          },
          {
            "duration": 0.6999996499999952,
            "durationTicks": 119,
            "midi": 72,
            "name": "C5",
            "ticks": 54120,
            "time": 318.352782,
            "velocity": 0.8661417322834646
          },
          {
            "duration": 0.1705881500000146,
            "durationTicks": 29,
            "midi": 71,
            "name": "B4",
            "ticks": 54240,
            "time": 319.058664,
            "velocity": 0.8661417322834646
          },
          {
            "duration": 0.1705881500000146,
            "durationTicks": 29,
            "midi": 76,
            "name": "E5",
            "ticks": 54240,
            "time": 319.058664,
            "velocity": 0.8661417322834646
          },
          {
            "duration": 0.22941164999997454,
            "durationTicks": 39,
            "midi": 73,
            "name": "C#5",
            "ticks": 54270,
            "time": 319.2351345,
            "velocity": 0.8661417322834646
          },
          {
            "duration": 0.1705881500000146,
            "durationTicks": 29,
            "midi": 71,
            "name": "B4",
            "ticks": 54330,
            "time": 319.5880755,
            "velocity": 0.8661417322834646
          },
          {
            "duration": 0.1705881500000146,
            "durationTicks": 29,
            "midi": 76,
            "name": "E5",
            "ticks": 54330,
            "time": 319.5880755,
            "velocity": 0.8661417322834646
          },
          {
            "duration": 0.1705881500000146,
            "durationTicks": 29,
            "midi": 71,
            "name": "B4",
            "ticks": 54390,
            "time": 319.9410165,
            "velocity": 0.8661417322834646
          },
          {
            "duration": 0.1705881500000146,
            "durationTicks": 29,
            "midi": 76,
            "name": "E5",
            "ticks": 54390,
            "time": 319.9410165,
            "velocity": 0.8661417322834646
          },
          {
            "duration": 0.1705881500000146,
            "durationTicks": 29,
            "midi": 68,
            "name": "G#4",
            "ticks": 54420,
            "time": 320.117487,
            "velocity": 0.8661417322834646
          },
          {
            "duration": 0.1705881500000146,
            "durationTicks": 29,
            "midi": 71,
            "name": "B4",
            "ticks": 54450,
            "time": 320.2939575,
            "velocity": 0.8661417322834646
          },
          {
            "duration": 0.1705881500000146,
            "durationTicks": 29,
            "midi": 76,
            "name": "E5",
            "ticks": 54450,
            "time": 320.2939575,
            "velocity": 0.8661417322834646
          },
          {
            "duration": 0.17058814999995775,
            "durationTicks": 29,
            "midi": 73,
            "name": "C#5",
            "ticks": 54480,
            "time": 320.470428,
            "velocity": 0.8661417322834646
          },
          {
            "duration": 0.1705881500000146,
            "durationTicks": 29,
            "midi": 68,
            "name": "G#4",
            "ticks": 54510,
            "time": 320.6468985,
            "velocity": 0.8661417322834646
          },
          {
            "duration": 0.1705881500000146,
            "durationTicks": 29,
            "midi": 76,
            "name": "E5",
            "ticks": 54540,
            "time": 320.823369,
            "velocity": 0.8661417322834646
          },
          {
            "duration": 0.1705881500000146,
            "durationTicks": 29,
            "midi": 71,
            "name": "B4",
            "ticks": 54540,
            "time": 320.823369,
            "velocity": 0.8661417322834646
          },
          {
            "duration": 0.1705881500000146,
            "durationTicks": 29,
            "midi": 68,
            "name": "G#4",
            "ticks": 54570,
            "time": 320.9998395,
            "velocity": 0.8661417322834646
          },
          {
            "duration": 0.1705881500000146,
            "durationTicks": 29,
            "midi": 76,
            "name": "E5",
            "ticks": 54600,
            "time": 321.17631,
            "velocity": 0.8661417322834646
          },
          {
            "duration": 0.1705881500000146,
            "durationTicks": 29,
            "midi": 71,
            "name": "B4",
            "ticks": 54600,
            "time": 321.17631,
            "velocity": 0.8661417322834646
          },
          {
            "duration": 0.1705881500000146,
            "durationTicks": 29,
            "midi": 73,
            "name": "C#5",
            "ticks": 54630,
            "time": 321.3527805,
            "velocity": 0.8661417322834646
          },
          {
            "duration": 0.1705881500000146,
            "durationTicks": 29,
            "midi": 76,
            "name": "E5",
            "ticks": 54660,
            "time": 321.529251,
            "velocity": 0.8661417322834646
          },
          {
            "duration": 0.5235291500000017,
            "durationTicks": 89,
            "midi": 79,
            "name": "G5",
            "ticks": 54690,
            "time": 321.7057215,
            "velocity": 0.8661417322834646
          },
          {
            "duration": 0.22941164999997454,
            "durationTicks": 39,
            "midi": 83,
            "name": "B5",
            "ticks": 54810,
            "time": 322.4116035,
            "velocity": 0.8661417322834646
          },
          {
            "duration": 0.1705881500000146,
            "durationTicks": 29,
            "midi": 83,
            "name": "B5",
            "ticks": 54870,
            "time": 322.7645445,
            "velocity": 0.8661417322834646
          },
          {
            "duration": 0.1705881500000146,
            "durationTicks": 29,
            "midi": 81,
            "name": "A5",
            "ticks": 54900,
            "time": 322.941015,
            "velocity": 0.8661417322834646
          },
          {
            "duration": 0.1705881500000146,
            "durationTicks": 29,
            "midi": 79,
            "name": "G5",
            "ticks": 54930,
            "time": 323.1174855,
            "velocity": 0.8661417322834646
          },
          {
            "duration": 0.1705881500000146,
            "durationTicks": 29,
            "midi": 81,
            "name": "A5",
            "ticks": 54960,
            "time": 323.293956,
            "velocity": 0.8661417322834646
          },
          {
            "duration": 0.17058814999995775,
            "durationTicks": 29,
            "midi": 76,
            "name": "E5",
            "ticks": 54990,
            "time": 323.47042650000003,
            "velocity": 0.8661417322834646
          },
          {
            "duration": 0.17058814999995775,
            "durationTicks": 29,
            "midi": 79,
            "name": "G5",
            "ticks": 55020,
            "time": 323.646897,
            "velocity": 0.8661417322834646
          },
          {
            "duration": 0.34705865000000813,
            "durationTicks": 59,
            "midi": 81,
            "name": "A5",
            "ticks": 55050,
            "time": 323.8233675,
            "velocity": 0.8661417322834646
          },
          {
            "duration": 0.28823514999999134,
            "durationTicks": 49,
            "midi": 80,
            "name": "G#5",
            "ticks": 55110,
            "time": 324.1763085,
            "velocity": 0.8661417322834646
          },
          {
            "duration": 0.1705881500000146,
            "durationTicks": 29,
            "midi": 78,
            "name": "F#5",
            "ticks": 55170,
            "time": 324.5292495,
            "velocity": 0.8661417322834646
          },
          {
            "duration": 0.1705881500000146,
            "durationTicks": 29,
            "midi": 76,
            "name": "E5",
            "ticks": 55230,
            "time": 324.8821905,
            "velocity": 0.8661417322834646
          },
          {
            "duration": 0.1705881500000146,
            "durationTicks": 29,
            "midi": 75,
            "name": "D#5",
            "ticks": 55290,
            "time": 325.2351315,
            "velocity": 0.8661417322834646
          },
          {
            "duration": 0.1705881500000146,
            "durationTicks": 29,
            "midi": 71,
            "name": "B4",
            "ticks": 55350,
            "time": 325.5880725,
            "velocity": 0.8661417322834646
          },
          {
            "duration": 0.1705881500000146,
            "durationTicks": 29,
            "midi": 66,
            "name": "F#4",
            "ticks": 55410,
            "time": 325.9410135,
            "velocity": 0.8661417322834646
          },
          {
            "duration": 0.1705881500000146,
            "durationTicks": 29,
            "midi": 64,
            "name": "E4",
            "ticks": 55470,
            "time": 326.2939545,
            "velocity": 0.8661417322834646
          },
          {
            "duration": 0.17058814999995775,
            "durationTicks": 29,
            "midi": 63,
            "name": "D#4",
            "ticks": 55530,
            "time": 326.6468955,
            "velocity": 0.8661417322834646
          },
          {
            "duration": 0.1705881500000146,
            "durationTicks": 29,
            "midi": 61,
            "name": "C#4",
            "ticks": 55590,
            "time": 326.9998365,
            "velocity": 0.8661417322834646
          },
          {
            "duration": 0.22941164999997454,
            "durationTicks": 39,
            "midi": 59,
            "name": "B3",
            "ticks": 55650,
            "time": 327.3527775,
            "velocity": 0.8661417322834646
          },
          {
            "duration": 0.05294114999998101,
            "durationTicks": 9,
            "midi": 66,
            "name": "F#4",
            "ticks": 55710,
            "time": 327.7057185,
            "velocity": 0.8661417322834646
          },
          {
            "duration": 0.05294114999998101,
            "durationTicks": 9,
            "midi": 73,
            "name": "C#5",
            "ticks": 55725,
            "time": 327.79395375,
            "velocity": 0.8661417322834646
          },
          {
            "duration": 0.1705881500000146,
            "durationTicks": 29,
            "midi": 74,
            "name": "D5",
            "ticks": 55740,
            "time": 327.882189,
            "velocity": 0.8661417322834646
          },
          {
            "duration": 0.1705881500000146,
            "durationTicks": 29,
            "midi": 73,
            "name": "C#5",
            "ticks": 55770,
            "time": 328.0586595,
            "velocity": 0.8661417322834646
          },
          {
            "duration": 0.17058814999995775,
            "durationTicks": 29,
            "midi": 74,
            "name": "D5",
            "ticks": 55800,
            "time": 328.23513,
            "velocity": 0.8661417322834646
          },
          {
            "duration": 0.1705881500000146,
            "durationTicks": 29,
            "midi": 75,
            "name": "D#5",
            "ticks": 55830,
            "time": 328.4116005,
            "velocity": 0.8661417322834646
          },
          {
            "duration": 0.1705881500000146,
            "durationTicks": 29,
            "midi": 76,
            "name": "E5",
            "ticks": 55860,
            "time": 328.588071,
            "velocity": 0.8661417322834646
          },
          {
            "duration": 0.1705881500000146,
            "durationTicks": 29,
            "midi": 72,
            "name": "C5",
            "ticks": 55890,
            "time": 328.7645415,
            "velocity": 0.8661417322834646
          },
          {
            "duration": 0.1705881500000146,
            "durationTicks": 29,
            "midi": 68,
            "name": "G#4",
            "ticks": 55920,
            "time": 328.941012,
            "velocity": 0.8661417322834646
          },
          {
            "duration": 0.1705881500000146,
            "durationTicks": 29,
            "midi": 64,
            "name": "E4",
            "ticks": 55950,
            "time": 329.1174825,
            "velocity": 0.8661417322834646
          },
          {
            "duration": 0.1705881500000146,
            "durationTicks": 29,
            "midi": 66,
            "name": "F#4",
            "ticks": 55980,
            "time": 329.293953,
            "velocity": 0.8661417322834646
          },
          {
            "duration": 0.1705881500000146,
            "durationTicks": 29,
            "midi": 68,
            "name": "G#4",
            "ticks": 56010,
            "time": 329.4704235,
            "velocity": 0.8661417322834646
          },
          {
            "duration": 0.17058814999995775,
            "durationTicks": 29,
            "midi": 69,
            "name": "A4",
            "ticks": 56040,
            "time": 329.64689400000003,
            "velocity": 0.8661417322834646
          },
          {
            "duration": 0.17058814999995775,
            "durationTicks": 29,
            "midi": 71,
            "name": "B4",
            "ticks": 56070,
            "time": 329.8233645,
            "velocity": 0.8661417322834646
          },
          {
            "duration": 0.1705881500000146,
            "durationTicks": 29,
            "midi": 69,
            "name": "A4",
            "ticks": 56100,
            "time": 329.999835,
            "velocity": 0.8661417322834646
          },
          {
            "duration": 0.4058821499999681,
            "durationTicks": 69,
            "midi": 73,
            "name": "C#5",
            "ticks": 56130,
            "time": 330.1763055,
            "velocity": 0.8661417322834646
          },
          {
            "duration": 0.1705881500000146,
            "durationTicks": 29,
            "midi": 71,
            "name": "B4",
            "ticks": 56220,
            "time": 330.705717,
            "velocity": 0.8661417322834646
          },
          {
            "duration": 0.1705881500000146,
            "durationTicks": 29,
            "midi": 68,
            "name": "G#4",
            "ticks": 56250,
            "time": 330.8821875,
            "velocity": 0.8661417322834646
          },
          {
            "duration": 0.1705881500000146,
            "durationTicks": 29,
            "midi": 71,
            "name": "B4",
            "ticks": 56280,
            "time": 331.058658,
            "velocity": 0.8661417322834646
          },
          {
            "duration": 0.17058814999995775,
            "durationTicks": 29,
            "midi": 71,
            "name": "B4",
            "ticks": 56310,
            "time": 331.23512850000003,
            "velocity": 0.8661417322834646
          },
          {
            "duration": 0.17058814999995775,
            "durationTicks": 29,
            "midi": 68,
            "name": "G#4",
            "ticks": 56340,
            "time": 331.411599,
            "velocity": 0.8661417322834646
          },
          {
            "duration": 0.1705881500000146,
            "durationTicks": 29,
            "midi": 68,
            "name": "G#4",
            "ticks": 56370,
            "time": 331.5880695,
            "velocity": 0.8661417322834646
          },
          {
            "duration": 0.1705881500000146,
            "durationTicks": 29,
            "midi": 66,
            "name": "F#4",
            "ticks": 56400,
            "time": 331.76454,
            "velocity": 0.8661417322834646
          },
          {
            "duration": 0.1705881500000146,
            "durationTicks": 29,
            "midi": 64,
            "name": "E4",
            "ticks": 56430,
            "time": 331.9410105,
            "velocity": 0.8661417322834646
          },
          {
            "duration": 0.1705881500000146,
            "durationTicks": 29,
            "midi": 66,
            "name": "F#4",
            "ticks": 56460,
            "time": 332.117481,
            "velocity": 0.8661417322834646
          },
          {
            "duration": 0.1705881500000146,
            "durationTicks": 29,
            "midi": 68,
            "name": "G#4",
            "ticks": 56490,
            "time": 332.2939515,
            "velocity": 0.8661417322834646
          },
          {
            "duration": 0.1705881500000146,
            "durationTicks": 29,
            "midi": 64,
            "name": "E4",
            "ticks": 56520,
            "time": 332.470422,
            "velocity": 0.8661417322834646
          },
          {
            "duration": 0.1705881500000146,
            "durationTicks": 29,
            "midi": 60,
            "name": "C4",
            "ticks": 56550,
            "time": 332.6468925,
            "velocity": 0.8661417322834646
          },
          {
            "duration": 0.17058814999995775,
            "durationTicks": 29,
            "midi": 62,
            "name": "D4",
            "ticks": 56580,
            "time": 332.82336300000003,
            "velocity": 0.8661417322834646
          },
          {
            "duration": 0.22941164999997454,
            "durationTicks": 39,
            "midi": 64,
            "name": "E4",
            "ticks": 56610,
            "time": 332.9998335,
            "velocity": 0.8661417322834646
          },
          {
            "duration": 0.1705881500000146,
            "durationTicks": 29,
            "midi": 60,
            "name": "C4",
            "ticks": 56670,
            "time": 333.3527745,
            "velocity": 0.8661417322834646
          },
          {
            "duration": 0.1705881500000146,
            "durationTicks": 29,
            "midi": 64,
            "name": "E4",
            "ticks": 56700,
            "time": 333.529245,
            "velocity": 0.8661417322834646
          },
          {
            "duration": 0.4058821500000249,
            "durationTicks": 69,
            "midi": 66,
            "name": "F#4",
            "ticks": 56730,
            "time": 333.7057155,
            "velocity": 0.8267716535433071
          },
          {
            "duration": 0.4058821500000249,
            "durationTicks": 69,
            "midi": 78,
            "name": "F#5",
            "ticks": 56730,
            "time": 333.7057155,
            "velocity": 0.8267716535433071
          },
          {
            "duration": 0.1705881500000146,
            "durationTicks": 29,
            "midi": 64,
            "name": "E4",
            "ticks": 56820,
            "time": 334.235127,
            "velocity": 0.8267716535433071
          },
          {
            "duration": 0.1705881500000146,
            "durationTicks": 29,
            "midi": 76,
            "name": "E5",
            "ticks": 56820,
            "time": 334.235127,
            "velocity": 0.8267716535433071
          },
          {
            "duration": 0.17058814999995775,
            "durationTicks": 29,
            "midi": 60,
            "name": "C4",
            "ticks": 56850,
            "time": 334.4115975,
            "velocity": 0.8267716535433071
          },
          {
            "duration": 0.17058814999995775,
            "durationTicks": 29,
            "midi": 72,
            "name": "C5",
            "ticks": 56850,
            "time": 334.4115975,
            "velocity": 0.8267716535433071
          },
          {
            "duration": 0.1705881500000146,
            "durationTicks": 29,
            "midi": 59,
            "name": "B3",
            "ticks": 56880,
            "time": 334.588068,
            "velocity": 0.8267716535433071
          },
          {
            "duration": 0.1705881500000146,
            "durationTicks": 29,
            "midi": 71,
            "name": "B4",
            "ticks": 56880,
            "time": 334.588068,
            "velocity": 0.8267716535433071
          },
          {
            "duration": 0.34705865000000813,
            "durationTicks": 59,
            "midi": 57,
            "name": "A3",
            "ticks": 56910,
            "time": 334.7645385,
            "velocity": 0.8267716535433071
          },
          {
            "duration": 0.34705865000000813,
            "durationTicks": 59,
            "midi": 69,
            "name": "A4",
            "ticks": 56910,
            "time": 334.7645385,
            "velocity": 0.8267716535433071
          },
          {
            "duration": 0.35294099999998707,
            "durationTicks": 60,
            "midi": 64,
            "name": "E4",
            "ticks": 57000,
            "time": 335.29395,
            "velocity": 0.8267716535433071
          },
          {
            "duration": 0.35294099999998707,
            "durationTicks": 60,
            "midi": 76,
            "name": "E5",
            "ticks": 57000,
            "time": 335.29395,
            "velocity": 0.8267716535433071
          },
          {
            "duration": 0.3529410000000439,
            "durationTicks": 60,
            "midi": 66,
            "name": "F#4",
            "ticks": 57060,
            "time": 335.646891,
            "velocity": 0.8267716535433071
          },
          {
            "duration": 0.3529410000000439,
            "durationTicks": 60,
            "midi": 78,
            "name": "F#5",
            "ticks": 57060,
            "time": 335.646891,
            "velocity": 0.8267716535433071
          },
          {
            "duration": 0.35294099999998707,
            "durationTicks": 60,
            "midi": 68,
            "name": "G#4",
            "ticks": 57120,
            "time": 335.999832,
            "velocity": 0.8267716535433071
          },
          {
            "duration": 0.35294099999998707,
            "durationTicks": 60,
            "midi": 80,
            "name": "G#5",
            "ticks": 57120,
            "time": 335.999832,
            "velocity": 0.8267716535433071
          },
          {
            "duration": 0.17647049999999354,
            "durationTicks": 30,
            "midi": 68,
            "name": "G#4",
            "ticks": 57180,
            "time": 336.352773,
            "velocity": 0.8267716535433071
          },
          {
            "duration": 0.17647049999999354,
            "durationTicks": 30,
            "midi": 80,
            "name": "G#5",
            "ticks": 57180,
            "time": 336.352773,
            "velocity": 0.8267716535433071
          },
          {
            "duration": 0.17647049999999354,
            "durationTicks": 30,
            "midi": 68,
            "name": "G#4",
            "ticks": 57210,
            "time": 336.5292435,
            "velocity": 0.8267716535433071
          },
          {
            "duration": 0.17647049999999354,
            "durationTicks": 30,
            "midi": 80,
            "name": "G#5",
            "ticks": 57210,
            "time": 336.5292435,
            "velocity": 0.8267716535433071
          },
          {
            "duration": 0.17647049999999354,
            "durationTicks": 30,
            "midi": 64,
            "name": "E4",
            "ticks": 57270,
            "time": 336.8821845,
            "velocity": 0.8267716535433071
          },
          {
            "duration": 0.17647049999999354,
            "durationTicks": 30,
            "midi": 76,
            "name": "E5",
            "ticks": 57270,
            "time": 336.8821845,
            "velocity": 0.8267716535433071
          },
          {
            "duration": 0.17647050000005038,
            "durationTicks": 30,
            "midi": 66,
            "name": "F#4",
            "ticks": 57330,
            "time": 337.2351255,
            "velocity": 0.8267716535433071
          },
          {
            "duration": 0.17647050000005038,
            "durationTicks": 30,
            "midi": 78,
            "name": "F#5",
            "ticks": 57330,
            "time": 337.2351255,
            "velocity": 0.8267716535433071
          },
          {
            "duration": 0.35294099999998707,
            "durationTicks": 60,
            "midi": 68,
            "name": "G#4",
            "ticks": 57360,
            "time": 337.41159600000003,
            "velocity": 0.8267716535433071
          },
          {
            "duration": 0.35294099999998707,
            "durationTicks": 60,
            "midi": 80,
            "name": "G#5",
            "ticks": 57360,
            "time": 337.41159600000003,
            "velocity": 0.8267716535433071
          },
          {
            "duration": 0.17647049999999354,
            "durationTicks": 30,
            "midi": 68,
            "name": "G#4",
            "ticks": 57420,
            "time": 337.764537,
            "velocity": 0.8267716535433071
          },
          {
            "duration": 0.17647049999999354,
            "durationTicks": 30,
            "midi": 80,
            "name": "G#5",
            "ticks": 57420,
            "time": 337.764537,
            "velocity": 0.8267716535433071
          },
          {
            "duration": 0.17647049999999354,
            "durationTicks": 30,
            "midi": 68,
            "name": "G#4",
            "ticks": 57450,
            "time": 337.9410075,
            "velocity": 0.8267716535433071
          },
          {
            "duration": 0.17647049999999354,
            "durationTicks": 30,
            "midi": 80,
            "name": "G#5",
            "ticks": 57450,
            "time": 337.9410075,
            "velocity": 0.8267716535433071
          },
          {
            "duration": 0.17647049999999354,
            "durationTicks": 30,
            "midi": 64,
            "name": "E4",
            "ticks": 57510,
            "time": 338.2939485,
            "velocity": 0.8267716535433071
          },
          {
            "duration": 0.17647049999999354,
            "durationTicks": 30,
            "midi": 76,
            "name": "E5",
            "ticks": 57510,
            "time": 338.2939485,
            "velocity": 0.8267716535433071
          },
          {
            "duration": 0.17647049999999354,
            "durationTicks": 30,
            "midi": 66,
            "name": "F#4",
            "ticks": 57570,
            "time": 338.6468895,
            "velocity": 0.8267716535433071
          },
          {
            "duration": 0.17647049999999354,
            "durationTicks": 30,
            "midi": 78,
            "name": "F#5",
            "ticks": 57570,
            "time": 338.6468895,
            "velocity": 0.8267716535433071
          },
          {
            "duration": 0.3529410000000439,
            "durationTicks": 60,
            "midi": 68,
            "name": "G#4",
            "ticks": 57600,
            "time": 338.82336,
            "velocity": 0.8267716535433071
          },
          {
            "duration": 0.3529410000000439,
            "durationTicks": 60,
            "midi": 80,
            "name": "G#5",
            "ticks": 57600,
            "time": 338.82336,
            "velocity": 0.8267716535433071
          },
          {
            "duration": 0.17647049999999354,
            "durationTicks": 30,
            "midi": 68,
            "name": "G#4",
            "ticks": 57660,
            "time": 339.176301,
            "velocity": 0.8267716535433071
          },
          {
            "duration": 0.17647049999999354,
            "durationTicks": 30,
            "midi": 80,
            "name": "G#5",
            "ticks": 57660,
            "time": 339.176301,
            "velocity": 0.8267716535433071
          },
          {
            "duration": 0.17647049999999354,
            "durationTicks": 30,
            "midi": 68,
            "name": "G#4",
            "ticks": 57690,
            "time": 339.3527715,
            "velocity": 0.8267716535433071
          },
          {
            "duration": 0.17647049999999354,
            "durationTicks": 30,
            "midi": 80,
            "name": "G#5",
            "ticks": 57690,
            "time": 339.3527715,
            "velocity": 0.8267716535433071
          },
          {
            "duration": 0.17647049999999354,
            "durationTicks": 30,
            "midi": 69,
            "name": "A4",
            "ticks": 57750,
            "time": 339.7057125,
            "velocity": 0.8267716535433071
          },
          {
            "duration": 0.17647049999999354,
            "durationTicks": 30,
            "midi": 81,
            "name": "A5",
            "ticks": 57750,
            "time": 339.7057125,
            "velocity": 0.8267716535433071
          },
          {
            "duration": 1.4058816500000262,
            "durationTicks": 239,
            "midi": 71,
            "name": "B4",
            "ticks": 57810,
            "time": 340.0586535,
            "velocity": 0.8267716535433071
          },
          {
            "duration": 1.4058816500000262,
            "durationTicks": 239,
            "midi": 83,
            "name": "B5",
            "ticks": 57810,
            "time": 340.0586535,
            "velocity": 0.8267716535433071
          },
          {
            "duration": 0.35294099999998707,
            "durationTicks": 60,
            "midi": 83,
            "name": "B5",
            "ticks": 58080,
            "time": 341.646888,
            "velocity": 0.8267716535433071
          },
          {
            "duration": 0.35294099999998707,
            "durationTicks": 60,
            "midi": 71,
            "name": "B4",
            "ticks": 58080,
            "time": 341.646888,
            "velocity": 0.8267716535433071
          },
          {
            "duration": 0.17647050000005038,
            "durationTicks": 30,
            "midi": 71,
            "name": "B4",
            "ticks": 58140,
            "time": 341.999829,
            "velocity": 0.8267716535433071
          },
          {
            "duration": 0.17647050000005038,
            "durationTicks": 30,
            "midi": 83,
            "name": "B5",
            "ticks": 58140,
            "time": 341.999829,
            "velocity": 0.8267716535433071
          },
          {
            "duration": 0.17647049999999354,
            "durationTicks": 30,
            "midi": 71,
            "name": "B4",
            "ticks": 58170,
            "time": 342.1762995,
            "velocity": 0.8267716535433071
          },
          {
            "duration": 0.17647049999999354,
            "durationTicks": 30,
            "midi": 83,
            "name": "B5",
            "ticks": 58170,
            "time": 342.1762995,
            "velocity": 0.8267716535433071
          },
          {
            "duration": 0.17647049999999354,
            "durationTicks": 30,
            "midi": 72,
            "name": "C5",
            "ticks": 58230,
            "time": 342.5292405,
            "velocity": 0.8267716535433071
          },
          {
            "duration": 0.17647049999999354,
            "durationTicks": 30,
            "midi": 84,
            "name": "C6",
            "ticks": 58230,
            "time": 342.5292405,
            "velocity": 0.8267716535433071
          },
          {
            "duration": 1.4058816500000262,
            "durationTicks": 239,
            "midi": 86,
            "name": "D6",
            "ticks": 58290,
            "time": 342.8821815,
            "velocity": 0.8267716535433071
          },
          {
            "duration": 1.4058816500000262,
            "durationTicks": 239,
            "midi": 74,
            "name": "D5",
            "ticks": 58290,
            "time": 342.8821815,
            "velocity": 0.8267716535433071
          },
          {
            "duration": 1.4058816500000262,
            "durationTicks": 239,
            "midi": 77,
            "name": "F5",
            "ticks": 58530,
            "time": 344.2939455,
            "velocity": 0.8267716535433071
          },
          {
            "duration": 1.4058816500000262,
            "durationTicks": 239,
            "midi": 89,
            "name": "F6",
            "ticks": 58530,
            "time": 344.2939455,
            "velocity": 0.8267716535433071
          },
          {
            "duration": 3.2294101499999783,
            "durationTicks": 549,
            "midi": 79,
            "name": "G5",
            "ticks": 58770,
            "time": 345.7057095,
            "velocity": 0.8267716535433071
          },
          {
            "duration": 3.2294101499999783,
            "durationTicks": 549,
            "midi": 91,
            "name": "G6",
            "ticks": 58770,
            "time": 345.7057095,
            "velocity": 0.8267716535433071
          }
        ]
      },
      {
        "channel": 0,
        "controlChanges": {
          "0": [
            {
              "number": 0,
              "ticks": 0,
              "time": 0,
              "value": 0
            }
          ],
          "32": [
            {
              "number": 32,
              "ticks": 0,
              "time": 0,
              "value": 0
            }
          ]
        },
        "pitchBends": [],
        "instrument": {
          "family": "piano",
          "number": 0,
          "name": "acoustic grand piano"
        },
        "name": "Muted Guitar",
        "notes": [],
        "endOfTrackTicks": 31109
      },
      {
        "channel": 8,
        "controlChanges": {
          "7": [
            {
              "number": 7,
              "ticks": 0,
              "time": 0,
              "value": 0.7480314960629921
            }
          ],
          "10": [
            {
              "number": 10,
              "ticks": 0,
              "time": 0,
              "value": 0.6299212598425197
            }
          ],
          "91": [
            {
              "number": 91,
              "ticks": 40,
              "time": 0.235294,
              "value": 0.23622047244094488
            }
          ],
          "93": [
            {
              "number": 93,
              "ticks": 50,
              "time": 0.29411750000000003,
              "value": 0.07874015748031496
            }
          ],
          "121": [
            {
              "number": 121,
              "ticks": 5,
              "time": 0.02941175,
              "value": 0
            }
          ]
        },
        "pitchBends": [],
        "instrument": {
          "family": "guitar",
          "number": 28,
          "name": "electric guitar (muted)"
        },
        "name": "",
        "notes": [
          {
            "duration": 0.08823524999999677,
            "durationTicks": 15,
            "midi": 61,
            "name": "C#4",
            "ticks": 23580,
            "time": 138.705813,
            "velocity": 0.7086614173228346
          },
          {
            "duration": 0.08823524999999677,
            "durationTicks": 15,
            "midi": 68,
            "name": "G#4",
            "ticks": 23610,
            "time": 138.8822835,
            "velocity": 0.7086614173228346
          },
          {
            "duration": 0.08823524999999677,
            "durationTicks": 15,
            "midi": 64,
            "name": "E4",
            "ticks": 23610,
            "time": 138.8822835,
            "velocity": 0.7086614173228346
          },
          {
            "duration": 0.08823524999999677,
            "durationTicks": 15,
            "midi": 64,
            "name": "E4",
            "ticks": 23670,
            "time": 139.23522450000002,
            "velocity": 0.7086614173228346
          },
          {
            "duration": 0.08823524999999677,
            "durationTicks": 15,
            "midi": 68,
            "name": "G#4",
            "ticks": 23670,
            "time": 139.23522450000002,
            "velocity": 0.7086614173228346
          },
          {
            "duration": 0.08823524999999677,
            "durationTicks": 15,
            "midi": 68,
            "name": "G#4",
            "ticks": 23730,
            "time": 139.5881655,
            "velocity": 0.7086614173228346
          },
          {
            "duration": 0.08823524999999677,
            "durationTicks": 15,
            "midi": 64,
            "name": "E4",
            "ticks": 23730,
            "time": 139.5881655,
            "velocity": 0.7086614173228346
          },
          {
            "duration": 0.08823525000002519,
            "durationTicks": 15,
            "midi": 64,
            "name": "E4",
            "ticks": 23790,
            "time": 139.9411065,
            "velocity": 0.7086614173228346
          },
          {
            "duration": 0.08823525000002519,
            "durationTicks": 15,
            "midi": 68,
            "name": "G#4",
            "ticks": 23790,
            "time": 139.9411065,
            "velocity": 0.7086614173228346
          },
          {
            "duration": 0.08823524999999677,
            "durationTicks": 15,
            "midi": 61,
            "name": "C#4",
            "ticks": 23850,
            "time": 140.2940475,
            "velocity": 0.7086614173228346
          },
          {
            "duration": 0.08823524999999677,
            "durationTicks": 15,
            "midi": 68,
            "name": "G#4",
            "ticks": 23880,
            "time": 140.470518,
            "velocity": 0.7086614173228346
          },
          {
            "duration": 0.08823524999999677,
            "durationTicks": 15,
            "midi": 64,
            "name": "E4",
            "ticks": 23880,
            "time": 140.470518,
            "velocity": 0.7086614173228346
          },
          {
            "duration": 0.08823524999999677,
            "durationTicks": 15,
            "midi": 59,
            "name": "B3",
            "ticks": 23940,
            "time": 140.823459,
            "velocity": 0.7086614173228346
          },
          {
            "duration": 0.08823524999999677,
            "durationTicks": 15,
            "midi": 61,
            "name": "C#4",
            "ticks": 23970,
            "time": 140.9999295,
            "velocity": 0.7086614173228346
          },
          {
            "duration": 0.08823524999999677,
            "durationTicks": 15,
            "midi": 68,
            "name": "G#4",
            "ticks": 24000,
            "time": 141.1764,
            "velocity": 0.7086614173228346
          },
          {
            "duration": 0.08823524999999677,
            "durationTicks": 15,
            "midi": 64,
            "name": "E4",
            "ticks": 24000,
            "time": 141.1764,
            "velocity": 0.7086614173228346
          },
          {
            "duration": 0.08823524999999677,
            "durationTicks": 15,
            "midi": 68,
            "name": "G#4",
            "ticks": 24030,
            "time": 141.3528705,
            "velocity": 0.7086614173228346
          },
          {
            "duration": 0.08823524999999677,
            "durationTicks": 15,
            "midi": 64,
            "name": "E4",
            "ticks": 24030,
            "time": 141.3528705,
            "velocity": 0.7086614173228346
          },
          {
            "duration": 0.08823525000002519,
            "durationTicks": 15,
            "midi": 61,
            "name": "C#4",
            "ticks": 24060,
            "time": 141.529341,
            "velocity": 0.7086614173228346
          },
          {
            "duration": 0.08823524999999677,
            "durationTicks": 15,
            "midi": 68,
            "name": "G#4",
            "ticks": 24090,
            "time": 141.7058115,
            "velocity": 0.7086614173228346
          },
          {
            "duration": 0.08823524999999677,
            "durationTicks": 15,
            "midi": 64,
            "name": "E4",
            "ticks": 24090,
            "time": 141.7058115,
            "velocity": 0.7086614173228346
          },
          {
            "duration": 0.08823524999999677,
            "durationTicks": 15,
            "midi": 68,
            "name": "G#4",
            "ticks": 24150,
            "time": 142.0587525,
            "velocity": 0.7086614173228346
          },
          {
            "duration": 0.08823524999999677,
            "durationTicks": 15,
            "midi": 64,
            "name": "E4",
            "ticks": 24150,
            "time": 142.0587525,
            "velocity": 0.7086614173228346
          },
          {
            "duration": 0.08823524999999677,
            "durationTicks": 15,
            "midi": 68,
            "name": "G#4",
            "ticks": 24210,
            "time": 142.4116935,
            "velocity": 0.7086614173228346
          },
          {
            "duration": 0.08823524999999677,
            "durationTicks": 15,
            "midi": 64,
            "name": "E4",
            "ticks": 24210,
            "time": 142.4116935,
            "velocity": 0.7086614173228346
          },
          {
            "duration": 0.08823524999999677,
            "durationTicks": 15,
            "midi": 68,
            "name": "G#4",
            "ticks": 24270,
            "time": 142.7646345,
            "velocity": 0.7086614173228346
          },
          {
            "duration": 0.08823524999999677,
            "durationTicks": 15,
            "midi": 64,
            "name": "E4",
            "ticks": 24270,
            "time": 142.7646345,
            "velocity": 0.7086614173228346
          },
          {
            "duration": 0.5235291500000017,
            "durationTicks": 89,
            "midi": 60,
            "name": "C4",
            "ticks": 24360,
            "time": 143.294046,
            "velocity": 0.7086614173228346
          },
          {
            "duration": 0.5235291500000017,
            "durationTicks": 89,
            "midi": 63,
            "name": "D#4",
            "ticks": 24360,
            "time": 143.294046,
            "velocity": 0.7086614173228346
          },
          {
            "duration": 0.5235291500000017,
            "durationTicks": 89,
            "midi": 67,
            "name": "G4",
            "ticks": 24360,
            "time": 143.294046,
            "velocity": 0.7086614173228346
          },
          {
            "duration": 0.08823524999999677,
            "durationTicks": 15,
            "midi": 64,
            "name": "E4",
            "ticks": 24480,
            "time": 143.999928,
            "velocity": 0.7086614173228346
          },
          {
            "duration": 0.08823524999999677,
            "durationTicks": 15,
            "midi": 68,
            "name": "G#4",
            "ticks": 24480,
            "time": 143.999928,
            "velocity": 0.7086614173228346
          },
          {
            "duration": 0.08823524999999677,
            "durationTicks": 15,
            "midi": 61,
            "name": "C#4",
            "ticks": 24540,
            "time": 144.352869,
            "velocity": 0.7086614173228346
          },
          {
            "duration": 0.08823524999999677,
            "durationTicks": 15,
            "midi": 68,
            "name": "G#4",
            "ticks": 24570,
            "time": 144.5293395,
            "velocity": 0.7086614173228346
          },
          {
            "duration": 0.08823524999999677,
            "durationTicks": 15,
            "midi": 64,
            "name": "E4",
            "ticks": 24570,
            "time": 144.5293395,
            "velocity": 0.7086614173228346
          },
          {
            "duration": 0.08823524999999677,
            "durationTicks": 15,
            "midi": 68,
            "name": "G#4",
            "ticks": 24630,
            "time": 144.8822805,
            "velocity": 0.7086614173228346
          },
          {
            "duration": 0.08823524999999677,
            "durationTicks": 15,
            "midi": 64,
            "name": "E4",
            "ticks": 24630,
            "time": 144.8822805,
            "velocity": 0.7086614173228346
          },
          {
            "duration": 0.08823524999999677,
            "durationTicks": 15,
            "midi": 68,
            "name": "G#4",
            "ticks": 24690,
            "time": 145.2352215,
            "velocity": 0.7086614173228346
          },
          {
            "duration": 0.08823524999999677,
            "durationTicks": 15,
            "midi": 64,
            "name": "E4",
            "ticks": 24690,
            "time": 145.2352215,
            "velocity": 0.7086614173228346
          },
          {
            "duration": 0.08823524999999677,
            "durationTicks": 15,
            "midi": 64,
            "name": "E4",
            "ticks": 24750,
            "time": 145.5881625,
            "velocity": 0.7086614173228346
          },
          {
            "duration": 0.08823524999999677,
            "durationTicks": 15,
            "midi": 68,
            "name": "G#4",
            "ticks": 24750,
            "time": 145.5881625,
            "velocity": 0.7086614173228346
          },
          {
            "duration": 0.08823524999999677,
            "durationTicks": 15,
            "midi": 61,
            "name": "C#4",
            "ticks": 24810,
            "time": 145.9411035,
            "velocity": 0.7086614173228346
          },
          {
            "duration": 0.08823525000002519,
            "durationTicks": 15,
            "midi": 64,
            "name": "E4",
            "ticks": 24840,
            "time": 146.117574,
            "velocity": 0.7086614173228346
          },
          {
            "duration": 0.08823525000002519,
            "durationTicks": 15,
            "midi": 68,
            "name": "G#4",
            "ticks": 24840,
            "time": 146.117574,
            "velocity": 0.7086614173228346
          },
          {
            "duration": 0.08823524999999677,
            "durationTicks": 15,
            "midi": 59,
            "name": "B3",
            "ticks": 24900,
            "time": 146.470515,
            "velocity": 0.7086614173228346
          },
          {
            "duration": 0.08823524999999677,
            "durationTicks": 15,
            "midi": 61,
            "name": "C#4",
            "ticks": 24930,
            "time": 146.6469855,
            "velocity": 0.7086614173228346
          },
          {
            "duration": 0.08823524999999677,
            "durationTicks": 15,
            "midi": 68,
            "name": "G#4",
            "ticks": 24960,
            "time": 146.823456,
            "velocity": 0.7086614173228346
          },
          {
            "duration": 0.08823524999999677,
            "durationTicks": 15,
            "midi": 64,
            "name": "E4",
            "ticks": 24960,
            "time": 146.823456,
            "velocity": 0.7086614173228346
          },
          {
            "duration": 0.08823524999999677,
            "durationTicks": 15,
            "midi": 64,
            "name": "E4",
            "ticks": 24990,
            "time": 146.99992650000002,
            "velocity": 0.7086614173228346
          },
          {
            "duration": 0.08823524999999677,
            "durationTicks": 15,
            "midi": 68,
            "name": "G#4",
            "ticks": 24990,
            "time": 146.99992650000002,
            "velocity": 0.7086614173228346
          },
          {
            "duration": 0.08823524999999677,
            "durationTicks": 15,
            "midi": 61,
            "name": "C#4",
            "ticks": 25020,
            "time": 147.176397,
            "velocity": 0.7086614173228346
          },
          {
            "duration": 0.08823524999999677,
            "durationTicks": 15,
            "midi": 68,
            "name": "G#4",
            "ticks": 25050,
            "time": 147.3528675,
            "velocity": 0.7086614173228346
          },
          {
            "duration": 0.08823524999999677,
            "durationTicks": 15,
            "midi": 64,
            "name": "E4",
            "ticks": 25050,
            "time": 147.3528675,
            "velocity": 0.7086614173228346
          },
          {
            "duration": 0.08823525000002519,
            "durationTicks": 15,
            "midi": 68,
            "name": "G#4",
            "ticks": 25110,
            "time": 147.7058085,
            "velocity": 0.7086614173228346
          },
          {
            "duration": 0.08823525000002519,
            "durationTicks": 15,
            "midi": 64,
            "name": "E4",
            "ticks": 25110,
            "time": 147.7058085,
            "velocity": 0.7086614173228346
          },
          {
            "duration": 0.08823524999999677,
            "durationTicks": 15,
            "midi": 64,
            "name": "E4",
            "ticks": 25170,
            "time": 148.0587495,
            "velocity": 0.7086614173228346
          },
          {
            "duration": 0.08823524999999677,
            "durationTicks": 15,
            "midi": 68,
            "name": "G#4",
            "ticks": 25170,
            "time": 148.0587495,
            "velocity": 0.7086614173228346
          },
          {
            "duration": 0.08823524999999677,
            "durationTicks": 15,
            "midi": 64,
            "name": "E4",
            "ticks": 25230,
            "time": 148.4116905,
            "velocity": 0.7086614173228346
          },
          {
            "duration": 0.08823524999999677,
            "durationTicks": 15,
            "midi": 68,
            "name": "G#4",
            "ticks": 25230,
            "time": 148.4116905,
            "velocity": 0.7086614173228346
          },
          {
            "duration": 0.5235291500000017,
            "durationTicks": 89,
            "midi": 60,
            "name": "C4",
            "ticks": 25320,
            "time": 148.941102,
            "velocity": 0.7086614173228346
          },
          {
            "duration": 0.5235291500000017,
            "durationTicks": 89,
            "midi": 63,
            "name": "D#4",
            "ticks": 25320,
            "time": 148.941102,
            "velocity": 0.7086614173228346
          },
          {
            "duration": 0.5235291500000017,
            "durationTicks": 89,
            "midi": 67,
            "name": "G4",
            "ticks": 25320,
            "time": 148.941102,
            "velocity": 0.7086614173228346
          },
          {
            "duration": 0.08823524999999677,
            "durationTicks": 15,
            "midi": 66,
            "name": "F#4",
            "ticks": 25440,
            "time": 149.646984,
            "velocity": 0.7086614173228346
          },
          {
            "duration": 0.08823524999999677,
            "durationTicks": 15,
            "midi": 62,
            "name": "D4",
            "ticks": 25440,
            "time": 149.646984,
            "velocity": 0.7086614173228346
          },
          {
            "duration": 0.08823525000002519,
            "durationTicks": 15,
            "midi": 59,
            "name": "B3",
            "ticks": 25500,
            "time": 149.999925,
            "velocity": 0.7086614173228346
          },
          {
            "duration": 0.05294114999998101,
            "durationTicks": 9,
            "midi": 66,
            "name": "F#4",
            "ticks": 25530,
            "time": 150.1763955,
            "velocity": 0.7086614173228346
          },
          {
            "duration": 0.08823524999999677,
            "durationTicks": 15,
            "midi": 62,
            "name": "D4",
            "ticks": 25530,
            "time": 150.1763955,
            "velocity": 0.7086614173228346
          },
          {
            "duration": 0.08823524999999677,
            "durationTicks": 15,
            "midi": 66,
            "name": "F#4",
            "ticks": 25590,
            "time": 150.5293365,
            "velocity": 0.7086614173228346
          },
          {
            "duration": 0.08823524999999677,
            "durationTicks": 15,
            "midi": 62,
            "name": "D4",
            "ticks": 25590,
            "time": 150.5293365,
            "velocity": 0.7086614173228346
          },
          {
            "duration": 0.08823524999999677,
            "durationTicks": 15,
            "midi": 62,
            "name": "D4",
            "ticks": 25650,
            "time": 150.88227750000001,
            "velocity": 0.7086614173228346
          },
          {
            "duration": 0.08823524999999677,
            "durationTicks": 15,
            "midi": 66,
            "name": "F#4",
            "ticks": 25650,
            "time": 150.88227750000001,
            "velocity": 0.7086614173228346
          },
          {
            "duration": 0.08823524999999677,
            "durationTicks": 15,
            "midi": 62,
            "name": "D4",
            "ticks": 25710,
            "time": 151.2352185,
            "velocity": 0.7086614173228346
          },
          {
            "duration": 0.08823524999999677,
            "durationTicks": 15,
            "midi": 66,
            "name": "F#4",
            "ticks": 25710,
            "time": 151.2352185,
            "velocity": 0.7086614173228346
          },
          {
            "duration": 0.08823525000002519,
            "durationTicks": 15,
            "midi": 59,
            "name": "B3",
            "ticks": 25770,
            "time": 151.5881595,
            "velocity": 0.7086614173228346
          },
          {
            "duration": 0.08823524999999677,
            "durationTicks": 15,
            "midi": 66,
            "name": "F#4",
            "ticks": 25800,
            "time": 151.76463,
            "velocity": 0.7086614173228346
          },
          {
            "duration": 0.08823524999999677,
            "durationTicks": 15,
            "midi": 62,
            "name": "D4",
            "ticks": 25800,
            "time": 151.76463,
            "velocity": 0.7086614173228346
          },
          {
            "duration": 0.08823524999999677,
            "durationTicks": 15,
            "midi": 57,
            "name": "A3",
            "ticks": 25860,
            "time": 152.117571,
            "velocity": 0.7086614173228346
          },
          {
            "duration": 0.08823524999999677,
            "durationTicks": 15,
            "midi": 59,
            "name": "B3",
            "ticks": 25890,
            "time": 152.2940415,
            "velocity": 0.7086614173228346
          },
          {
            "duration": 0.08823524999999677,
            "durationTicks": 15,
            "midi": 66,
            "name": "F#4",
            "ticks": 25920,
            "time": 152.470512,
            "velocity": 0.7086614173228346
          },
          {
            "duration": 0.08823524999999677,
            "durationTicks": 15,
            "midi": 62,
            "name": "D4",
            "ticks": 25920,
            "time": 152.470512,
            "velocity": 0.7086614173228346
          },
          {
            "duration": 0.08823524999999677,
            "durationTicks": 15,
            "midi": 66,
            "name": "F#4",
            "ticks": 25950,
            "time": 152.6469825,
            "velocity": 0.7086614173228346
          },
          {
            "duration": 0.08823524999999677,
            "durationTicks": 15,
            "midi": 62,
            "name": "D4",
            "ticks": 25950,
            "time": 152.6469825,
            "velocity": 0.7086614173228346
          },
          {
            "duration": 0.08823524999999677,
            "durationTicks": 15,
            "midi": 59,
            "name": "B3",
            "ticks": 25980,
            "time": 152.823453,
            "velocity": 0.7086614173228346
          },
          {
            "duration": 0.08823524999999677,
            "durationTicks": 15,
            "midi": 66,
            "name": "F#4",
            "ticks": 26010,
            "time": 152.9999235,
            "velocity": 0.7086614173228346
          },
          {
            "duration": 0.08823524999999677,
            "durationTicks": 15,
            "midi": 62,
            "name": "D4",
            "ticks": 26010,
            "time": 152.9999235,
            "velocity": 0.7086614173228346
          },
          {
            "duration": 0.08823524999999677,
            "durationTicks": 15,
            "midi": 66,
            "name": "F#4",
            "ticks": 26070,
            "time": 153.3528645,
            "velocity": 0.7086614173228346
          },
          {
            "duration": 0.08823524999999677,
            "durationTicks": 15,
            "midi": 62,
            "name": "D4",
            "ticks": 26070,
            "time": 153.3528645,
            "velocity": 0.7086614173228346
          },
          {
            "duration": 0.08823524999999677,
            "durationTicks": 15,
            "midi": 62,
            "name": "D4",
            "ticks": 26130,
            "time": 153.7058055,
            "velocity": 0.7086614173228346
          },
          {
            "duration": 0.08823524999999677,
            "durationTicks": 15,
            "midi": 66,
            "name": "F#4",
            "ticks": 26130,
            "time": 153.7058055,
            "velocity": 0.7086614173228346
          },
          {
            "duration": 0.08823524999999677,
            "durationTicks": 15,
            "midi": 62,
            "name": "D4",
            "ticks": 26190,
            "time": 154.0587465,
            "velocity": 0.7086614173228346
          },
          {
            "duration": 0.08823524999999677,
            "durationTicks": 15,
            "midi": 66,
            "name": "F#4",
            "ticks": 26190,
            "time": 154.0587465,
            "velocity": 0.7086614173228346
          },
          {
            "duration": 0.529411500000009,
            "durationTicks": 90,
            "midi": 60,
            "name": "C4",
            "ticks": 26280,
            "time": 154.588158,
            "velocity": 0.7086614173228346
          },
          {
            "duration": 0.529411500000009,
            "durationTicks": 90,
            "midi": 63,
            "name": "D#4",
            "ticks": 26280,
            "time": 154.588158,
            "velocity": 0.7086614173228346
          },
          {
            "duration": 0.529411500000009,
            "durationTicks": 90,
            "midi": 67,
            "name": "G4",
            "ticks": 26280,
            "time": 154.588158,
            "velocity": 0.7086614173228346
          },
          {
            "duration": 0.08823524999999677,
            "durationTicks": 15,
            "midi": 62,
            "name": "D4",
            "ticks": 26400,
            "time": 155.29404,
            "velocity": 0.7086614173228346
          },
          {
            "duration": 0.08823524999999677,
            "durationTicks": 15,
            "midi": 66,
            "name": "F#4",
            "ticks": 26400,
            "time": 155.29404,
            "velocity": 0.7086614173228346
          },
          {
            "duration": 0.08823524999999677,
            "durationTicks": 15,
            "midi": 59,
            "name": "B3",
            "ticks": 26460,
            "time": 155.646981,
            "velocity": 0.7086614173228346
          },
          {
            "duration": 0.08823524999999677,
            "durationTicks": 15,
            "midi": 62,
            "name": "D4",
            "ticks": 26490,
            "time": 155.8234515,
            "velocity": 0.7086614173228346
          },
          {
            "duration": 0.08823524999999677,
            "durationTicks": 15,
            "midi": 66,
            "name": "F#4",
            "ticks": 26490,
            "time": 155.8234515,
            "velocity": 0.7086614173228346
          },
          {
            "duration": 0.05294115000000943,
            "durationTicks": 9,
            "midi": 62,
            "name": "D4",
            "ticks": 26550,
            "time": 156.1763925,
            "velocity": 0.7086614173228346
          },
          {
            "duration": 0.08823524999999677,
            "durationTicks": 15,
            "midi": 66,
            "name": "F#4",
            "ticks": 26550,
            "time": 156.1763925,
            "velocity": 0.7086614173228346
          },
          {
            "duration": 0.08823524999999677,
            "durationTicks": 15,
            "midi": 66,
            "name": "F#4",
            "ticks": 26610,
            "time": 156.5293335,
            "velocity": 0.7086614173228346
          },
          {
            "duration": 0.08823524999999677,
            "durationTicks": 15,
            "midi": 62,
            "name": "D4",
            "ticks": 26610,
            "time": 156.5293335,
            "velocity": 0.7086614173228346
          },
          {
            "duration": 0.08823524999999677,
            "durationTicks": 15,
            "midi": 66,
            "name": "F#4",
            "ticks": 26670,
            "time": 156.8822745,
            "velocity": 0.7086614173228346
          },
          {
            "duration": 0.08823524999999677,
            "durationTicks": 15,
            "midi": 62,
            "name": "D4",
            "ticks": 26670,
            "time": 156.8822745,
            "velocity": 0.7086614173228346
          },
          {
            "duration": 0.08823524999999677,
            "durationTicks": 15,
            "midi": 59,
            "name": "B3",
            "ticks": 26730,
            "time": 157.2352155,
            "velocity": 0.7086614173228346
          },
          {
            "duration": 0.08823524999999677,
            "durationTicks": 15,
            "midi": 66,
            "name": "F#4",
            "ticks": 26760,
            "time": 157.411686,
            "velocity": 0.7086614173228346
          },
          {
            "duration": 0.08823524999999677,
            "durationTicks": 15,
            "midi": 62,
            "name": "D4",
            "ticks": 26760,
            "time": 157.411686,
            "velocity": 0.7086614173228346
          },
          {
            "duration": 0.08823525000002519,
            "durationTicks": 15,
            "midi": 57,
            "name": "A3",
            "ticks": 26820,
            "time": 157.764627,
            "velocity": 0.7086614173228346
          },
          {
            "duration": 0.08823524999999677,
            "durationTicks": 15,
            "midi": 59,
            "name": "B3",
            "ticks": 26850,
            "time": 157.9410975,
            "velocity": 0.7086614173228346
          },
          {
            "duration": 0.08823524999999677,
            "durationTicks": 15,
            "midi": 66,
            "name": "F#4",
            "ticks": 26880,
            "time": 158.117568,
            "velocity": 0.7086614173228346
          },
          {
            "duration": 0.08823524999999677,
            "durationTicks": 15,
            "midi": 62,
            "name": "D4",
            "ticks": 26880,
            "time": 158.117568,
            "velocity": 0.7086614173228346
          },
          {
            "duration": 0.08823524999999677,
            "durationTicks": 15,
            "midi": 66,
            "name": "F#4",
            "ticks": 26910,
            "time": 158.2940385,
            "velocity": 0.7086614173228346
          },
          {
            "duration": 0.08823524999999677,
            "durationTicks": 15,
            "midi": 62,
            "name": "D4",
            "ticks": 26910,
            "time": 158.2940385,
            "velocity": 0.7086614173228346
          },
          {
            "duration": 0.08823524999999677,
            "durationTicks": 15,
            "midi": 59,
            "name": "B3",
            "ticks": 26940,
            "time": 158.470509,
            "velocity": 0.7086614173228346
          },
          {
            "duration": 0.08823524999999677,
            "durationTicks": 15,
            "midi": 66,
            "name": "F#4",
            "ticks": 26970,
            "time": 158.64697950000001,
            "velocity": 0.7086614173228346
          },
          {
            "duration": 0.08823524999999677,
            "durationTicks": 15,
            "midi": 62,
            "name": "D4",
            "ticks": 26970,
            "time": 158.64697950000001,
            "velocity": 0.7086614173228346
          },
          {
            "duration": 0.08823524999999677,
            "durationTicks": 15,
            "midi": 62,
            "name": "D4",
            "ticks": 27030,
            "time": 158.9999205,
            "velocity": 0.7086614173228346
          },
          {
            "duration": 0.08823524999999677,
            "durationTicks": 15,
            "midi": 66,
            "name": "F#4",
            "ticks": 27030,
            "time": 158.9999205,
            "velocity": 0.7086614173228346
          },
          {
            "duration": 0.08823525000002519,
            "durationTicks": 15,
            "midi": 62,
            "name": "D4",
            "ticks": 27090,
            "time": 159.3528615,
            "velocity": 0.7086614173228346
          },
          {
            "duration": 0.08823525000002519,
            "durationTicks": 15,
            "midi": 66,
            "name": "F#4",
            "ticks": 27090,
            "time": 159.3528615,
            "velocity": 0.7086614173228346
          },
          {
            "duration": 0.08823524999999677,
            "durationTicks": 15,
            "midi": 62,
            "name": "D4",
            "ticks": 27150,
            "time": 159.7058025,
            "velocity": 0.7086614173228346
          },
          {
            "duration": 0.08823524999999677,
            "durationTicks": 15,
            "midi": 66,
            "name": "F#4",
            "ticks": 27150,
            "time": 159.7058025,
            "velocity": 0.7086614173228346
          },
          {
            "duration": 0.5294114999999806,
            "durationTicks": 90,
            "midi": 60,
            "name": "C4",
            "ticks": 27240,
            "time": 160.235214,
            "velocity": 0.7086614173228346
          },
          {
            "duration": 0.5294114999999806,
            "durationTicks": 90,
            "midi": 67,
            "name": "G4",
            "ticks": 27240,
            "time": 160.235214,
            "velocity": 0.7086614173228346
          },
          {
            "duration": 0.5294114999999806,
            "durationTicks": 90,
            "midi": 63,
            "name": "D#4",
            "ticks": 27240,
            "time": 160.235214,
            "velocity": 0.7086614173228346
          },
          {
            "duration": 0.08823524999999677,
            "durationTicks": 15,
            "midi": 68,
            "name": "G#4",
            "ticks": 27360,
            "time": 160.94109600000002,
            "velocity": 0.7086614173228346
          },
          {
            "duration": 0.08823524999999677,
            "durationTicks": 15,
            "midi": 64,
            "name": "E4",
            "ticks": 27360,
            "time": 160.94109600000002,
            "velocity": 0.7086614173228346
          },
          {
            "duration": 0.08823524999999677,
            "durationTicks": 15,
            "midi": 61,
            "name": "C#4",
            "ticks": 27420,
            "time": 161.294037,
            "velocity": 0.7086614173228346
          },
          {
            "duration": 0.08823524999999677,
            "durationTicks": 15,
            "midi": 68,
            "name": "G#4",
            "ticks": 27450,
            "time": 161.4705075,
            "velocity": 0.7086614173228346
          },
          {
            "duration": 0.08823524999999677,
            "durationTicks": 15,
            "midi": 64,
            "name": "E4",
            "ticks": 27450,
            "time": 161.4705075,
            "velocity": 0.7086614173228346
          },
          {
            "duration": 0.08823524999999677,
            "durationTicks": 15,
            "midi": 64,
            "name": "E4",
            "ticks": 27510,
            "time": 161.8234485,
            "velocity": 0.7086614173228346
          },
          {
            "duration": 0.08823524999999677,
            "durationTicks": 15,
            "midi": 68,
            "name": "G#4",
            "ticks": 27510,
            "time": 161.8234485,
            "velocity": 0.7086614173228346
          },
          {
            "duration": 0.08823524999999677,
            "durationTicks": 15,
            "midi": 68,
            "name": "G#4",
            "ticks": 27570,
            "time": 162.1763895,
            "velocity": 0.7086614173228346
          },
          {
            "duration": 0.08823524999999677,
            "durationTicks": 15,
            "midi": 64,
            "name": "E4",
            "ticks": 27570,
            "time": 162.1763895,
            "velocity": 0.7086614173228346
          },
          {
            "duration": 0.08823524999999677,
            "durationTicks": 15,
            "midi": 68,
            "name": "G#4",
            "ticks": 27630,
            "time": 162.52933050000001,
            "velocity": 0.7086614173228346
          },
          {
            "duration": 0.08823524999999677,
            "durationTicks": 15,
            "midi": 64,
            "name": "E4",
            "ticks": 27630,
            "time": 162.52933050000001,
            "velocity": 0.7086614173228346
          },
          {
            "duration": 0.08823524999999677,
            "durationTicks": 15,
            "midi": 61,
            "name": "C#4",
            "ticks": 27690,
            "time": 162.8822715,
            "velocity": 0.7086614173228346
          },
          {
            "duration": 0.08823524999999677,
            "durationTicks": 15,
            "midi": 68,
            "name": "G#4",
            "ticks": 27720,
            "time": 163.058742,
            "velocity": 0.7086614173228346
          },
          {
            "duration": 0.08823524999999677,
            "durationTicks": 15,
            "midi": 64,
            "name": "E4",
            "ticks": 27720,
            "time": 163.058742,
            "velocity": 0.7086614173228346
          },
          {
            "duration": 0.08823524999999677,
            "durationTicks": 15,
            "midi": 59,
            "name": "B3",
            "ticks": 27780,
            "time": 163.411683,
            "velocity": 0.7086614173228346
          },
          {
            "duration": 0.08823524999999677,
            "durationTicks": 15,
            "midi": 61,
            "name": "C#4",
            "ticks": 27810,
            "time": 163.5881535,
            "velocity": 0.7086614173228346
          },
          {
            "duration": 0.08823524999999677,
            "durationTicks": 15,
            "midi": 68,
            "name": "G#4",
            "ticks": 27840,
            "time": 163.764624,
            "velocity": 0.7086614173228346
          },
          {
            "duration": 0.08823524999999677,
            "durationTicks": 15,
            "midi": 64,
            "name": "E4",
            "ticks": 27840,
            "time": 163.764624,
            "velocity": 0.7086614173228346
          },
          {
            "duration": 0.08823524999999677,
            "durationTicks": 15,
            "midi": 68,
            "name": "G#4",
            "ticks": 27870,
            "time": 163.9410945,
            "velocity": 0.7086614173228346
          },
          {
            "duration": 0.08823524999999677,
            "durationTicks": 15,
            "midi": 64,
            "name": "E4",
            "ticks": 27870,
            "time": 163.9410945,
            "velocity": 0.7086614173228346
          },
          {
            "duration": 0.08823524999999677,
            "durationTicks": 15,
            "midi": 61,
            "name": "C#4",
            "ticks": 27900,
            "time": 164.117565,
            "velocity": 0.7086614173228346
          },
          {
            "duration": 0.08823524999999677,
            "durationTicks": 15,
            "midi": 68,
            "name": "G#4",
            "ticks": 27930,
            "time": 164.2940355,
            "velocity": 0.7086614173228346
          },
          {
            "duration": 0.08823524999999677,
            "durationTicks": 15,
            "midi": 64,
            "name": "E4",
            "ticks": 27930,
            "time": 164.2940355,
            "velocity": 0.7086614173228346
          },
          {
            "duration": 0.08823524999999677,
            "durationTicks": 15,
            "midi": 68,
            "name": "G#4",
            "ticks": 27990,
            "time": 164.6469765,
            "velocity": 0.7086614173228346
          },
          {
            "duration": 0.08823524999999677,
            "durationTicks": 15,
            "midi": 64,
            "name": "E4",
            "ticks": 27990,
            "time": 164.6469765,
            "velocity": 0.7086614173228346
          },
          {
            "duration": 0.08823524999999677,
            "durationTicks": 15,
            "midi": 68,
            "name": "G#4",
            "ticks": 28050,
            "time": 164.9999175,
            "velocity": 0.7086614173228346
          },
          {
            "duration": 0.08823524999999677,
            "durationTicks": 15,
            "midi": 64,
            "name": "E4",
            "ticks": 28050,
            "time": 164.9999175,
            "velocity": 0.7086614173228346
          },
          {
            "duration": 0.08823524999999677,
            "durationTicks": 15,
            "midi": 68,
            "name": "G#4",
            "ticks": 28110,
            "time": 165.3528585,
            "velocity": 0.7086614173228346
          },
          {
            "duration": 0.08823524999999677,
            "durationTicks": 15,
            "midi": 64,
            "name": "E4",
            "ticks": 28110,
            "time": 165.3528585,
            "velocity": 0.7086614173228346
          },
          {
            "duration": 0.5235291500000017,
            "durationTicks": 89,
            "midi": 60,
            "name": "C4",
            "ticks": 28200,
            "time": 165.88227,
            "velocity": 0.7086614173228346
          },
          {
            "duration": 0.5235291500000017,
            "durationTicks": 89,
            "midi": 63,
            "name": "D#4",
            "ticks": 28200,
            "time": 165.88227,
            "velocity": 0.7086614173228346
          },
          {
            "duration": 0.5235291500000017,
            "durationTicks": 89,
            "midi": 67,
            "name": "G4",
            "ticks": 28200,
            "time": 165.88227,
            "velocity": 0.7086614173228346
          },
          {
            "duration": 0.05294114999998101,
            "durationTicks": 9,
            "midi": 64,
            "name": "E4",
            "ticks": 28320,
            "time": 166.588152,
            "velocity": 0.7086614173228346
          },
          {
            "duration": 0.08823524999999677,
            "durationTicks": 15,
            "midi": 68,
            "name": "G#4",
            "ticks": 28320,
            "time": 166.588152,
            "velocity": 0.7086614173228346
          },
          {
            "duration": 0.08823524999999677,
            "durationTicks": 15,
            "midi": 61,
            "name": "C#4",
            "ticks": 28380,
            "time": 166.941093,
            "velocity": 0.7086614173228346
          },
          {
            "duration": 0.08823525000002519,
            "durationTicks": 15,
            "midi": 68,
            "name": "G#4",
            "ticks": 28410,
            "time": 167.1175635,
            "velocity": 0.7086614173228346
          },
          {
            "duration": 0.08823525000002519,
            "durationTicks": 15,
            "midi": 64,
            "name": "E4",
            "ticks": 28410,
            "time": 167.1175635,
            "velocity": 0.7086614173228346
          },
          {
            "duration": 0.08823524999999677,
            "durationTicks": 15,
            "midi": 68,
            "name": "G#4",
            "ticks": 28470,
            "time": 167.4705045,
            "velocity": 0.7086614173228346
          },
          {
            "duration": 0.08823524999999677,
            "durationTicks": 15,
            "midi": 64,
            "name": "E4",
            "ticks": 28470,
            "time": 167.4705045,
            "velocity": 0.7086614173228346
          },
          {
            "duration": 0.08823525000002519,
            "durationTicks": 15,
            "midi": 68,
            "name": "G#4",
            "ticks": 28530,
            "time": 167.8234455,
            "velocity": 0.7086614173228346
          },
          {
            "duration": 0.08823525000002519,
            "durationTicks": 15,
            "midi": 64,
            "name": "E4",
            "ticks": 28530,
            "time": 167.8234455,
            "velocity": 0.7086614173228346
          },
          {
            "duration": 0.08823524999999677,
            "durationTicks": 15,
            "midi": 68,
            "name": "G#4",
            "ticks": 28590,
            "time": 168.1763865,
            "velocity": 0.7086614173228346
          },
          {
            "duration": 0.08823524999999677,
            "durationTicks": 15,
            "midi": 64,
            "name": "E4",
            "ticks": 28590,
            "time": 168.1763865,
            "velocity": 0.7086614173228346
          },
          {
            "duration": 0.08823524999999677,
            "durationTicks": 15,
            "midi": 61,
            "name": "C#4",
            "ticks": 28650,
            "time": 168.5293275,
            "velocity": 0.7086614173228346
          },
          {
            "duration": 0.08823524999999677,
            "durationTicks": 15,
            "midi": 68,
            "name": "G#4",
            "ticks": 28680,
            "time": 168.70579800000002,
            "velocity": 0.7086614173228346
          },
          {
            "duration": 0.08823524999999677,
            "durationTicks": 15,
            "midi": 64,
            "name": "E4",
            "ticks": 28680,
            "time": 168.70579800000002,
            "velocity": 0.7086614173228346
          },
          {
            "duration": 0.08823524999999677,
            "durationTicks": 15,
            "midi": 59,
            "name": "B3",
            "ticks": 28740,
            "time": 169.058739,
            "velocity": 0.7086614173228346
          },
          {
            "duration": 0.08823524999999677,
            "durationTicks": 15,
            "midi": 61,
            "name": "C#4",
            "ticks": 28770,
            "time": 169.2352095,
            "velocity": 0.7086614173228346
          },
          {
            "duration": 0.08823525000002519,
            "durationTicks": 15,
            "midi": 68,
            "name": "G#4",
            "ticks": 28800,
            "time": 169.41168,
            "velocity": 0.7086614173228346
          },
          {
            "duration": 0.08823525000002519,
            "durationTicks": 15,
            "midi": 64,
            "name": "E4",
            "ticks": 28800,
            "time": 169.41168,
            "velocity": 0.7086614173228346
          },
          {
            "duration": 0.08823524999999677,
            "durationTicks": 15,
            "midi": 68,
            "name": "G#4",
            "ticks": 28830,
            "time": 169.5881505,
            "velocity": 0.7086614173228346
          },
          {
            "duration": 0.08823524999999677,
            "durationTicks": 15,
            "midi": 64,
            "name": "E4",
            "ticks": 28830,
            "time": 169.5881505,
            "velocity": 0.7086614173228346
          },
          {
            "duration": 0.08823524999999677,
            "durationTicks": 15,
            "midi": 61,
            "name": "C#4",
            "ticks": 28860,
            "time": 169.764621,
            "velocity": 0.7086614173228346
          },
          {
            "duration": 0.08823524999999677,
            "durationTicks": 15,
            "midi": 68,
            "name": "G#4",
            "ticks": 28890,
            "time": 169.9410915,
            "velocity": 0.7086614173228346
          },
          {
            "duration": 0.08823524999999677,
            "durationTicks": 15,
            "midi": 64,
            "name": "E4",
            "ticks": 28890,
            "time": 169.9410915,
            "velocity": 0.7086614173228346
          },
          {
            "duration": 0.08823524999999677,
            "durationTicks": 15,
            "midi": 68,
            "name": "G#4",
            "ticks": 28950,
            "time": 170.29403250000001,
            "velocity": 0.7086614173228346
          },
          {
            "duration": 0.08823524999999677,
            "durationTicks": 15,
            "midi": 64,
            "name": "E4",
            "ticks": 28950,
            "time": 170.29403250000001,
            "velocity": 0.7086614173228346
          },
          {
            "duration": 0.08823524999999677,
            "durationTicks": 15,
            "midi": 68,
            "name": "G#4",
            "ticks": 29010,
            "time": 170.6469735,
            "velocity": 0.7086614173228346
          },
          {
            "duration": 0.08823524999999677,
            "durationTicks": 15,
            "midi": 64,
            "name": "E4",
            "ticks": 29010,
            "time": 170.6469735,
            "velocity": 0.7086614173228346
          },
          {
            "duration": 0.08823525000002519,
            "durationTicks": 15,
            "midi": 64,
            "name": "E4",
            "ticks": 29070,
            "time": 170.9999145,
            "velocity": 0.7086614173228346
          },
          {
            "duration": 0.08823525000002519,
            "durationTicks": 15,
            "midi": 68,
            "name": "G#4",
            "ticks": 29070,
            "time": 170.9999145,
            "velocity": 0.7086614173228346
          },
          {
            "duration": 0.529411500000009,
            "durationTicks": 90,
            "midi": 60,
            "name": "C4",
            "ticks": 29160,
            "time": 171.529326,
            "velocity": 0.7086614173228346
          },
          {
            "duration": 0.529411500000009,
            "durationTicks": 90,
            "midi": 67,
            "name": "G4",
            "ticks": 29160,
            "time": 171.529326,
            "velocity": 0.7086614173228346
          },
          {
            "duration": 0.529411500000009,
            "durationTicks": 90,
            "midi": 63,
            "name": "D#4",
            "ticks": 29160,
            "time": 171.529326,
            "velocity": 0.7086614173228346
          },
          {
            "duration": 0.05294114999998101,
            "durationTicks": 9,
            "midi": 66,
            "name": "F#4",
            "ticks": 29280,
            "time": 172.235208,
            "velocity": 0.7086614173228346
          },
          {
            "duration": 0.05294114999998101,
            "durationTicks": 9,
            "midi": 62,
            "name": "D4",
            "ticks": 29280,
            "time": 172.235208,
            "velocity": 0.7086614173228346
          },
          {
            "duration": 0.08823524999999677,
            "durationTicks": 15,
            "midi": 59,
            "name": "B3",
            "ticks": 29340,
            "time": 172.58814900000002,
            "velocity": 0.7086614173228346
          },
          {
            "duration": 0.08823524999999677,
            "durationTicks": 15,
            "midi": 66,
            "name": "F#4",
            "ticks": 29370,
            "time": 172.7646195,
            "velocity": 0.7086614173228346
          },
          {
            "duration": 0.08823524999999677,
            "durationTicks": 15,
            "midi": 62,
            "name": "D4",
            "ticks": 29370,
            "time": 172.7646195,
            "velocity": 0.7086614173228346
          },
          {
            "duration": 0.08823524999999677,
            "durationTicks": 15,
            "midi": 62,
            "name": "D4",
            "ticks": 29430,
            "time": 173.1175605,
            "velocity": 0.7086614173228346
          },
          {
            "duration": 0.08823524999999677,
            "durationTicks": 15,
            "midi": 66,
            "name": "F#4",
            "ticks": 29430,
            "time": 173.1175605,
            "velocity": 0.7086614173228346
          },
          {
            "duration": 0.08823524999999677,
            "durationTicks": 15,
            "midi": 66,
            "name": "F#4",
            "ticks": 29490,
            "time": 173.4705015,
            "velocity": 0.7086614173228346
          },
          {
            "duration": 0.08823524999999677,
            "durationTicks": 15,
            "midi": 62,
            "name": "D4",
            "ticks": 29490,
            "time": 173.4705015,
            "velocity": 0.7086614173228346
          },
          {
            "duration": 0.08823524999999677,
            "durationTicks": 15,
            "midi": 66,
            "name": "F#4",
            "ticks": 29550,
            "time": 173.8234425,
            "velocity": 0.7086614173228346
          },
          {
            "duration": 0.08823524999999677,
            "durationTicks": 15,
            "midi": 62,
            "name": "D4",
            "ticks": 29550,
            "time": 173.8234425,
            "velocity": 0.7086614173228346
          },
          {
            "duration": 0.08823524999999677,
            "durationTicks": 15,
            "midi": 59,
            "name": "B3",
            "ticks": 29610,
            "time": 174.17638350000001,
            "velocity": 0.7086614173228346
          },
          {
            "duration": 0.08823524999999677,
            "durationTicks": 15,
            "midi": 66,
            "name": "F#4",
            "ticks": 29640,
            "time": 174.352854,
            "velocity": 0.7086614173228346
          },
          {
            "duration": 0.08823524999999677,
            "durationTicks": 15,
            "midi": 62,
            "name": "D4",
            "ticks": 29640,
            "time": 174.352854,
            "velocity": 0.7086614173228346
          },
          {
            "duration": 0.08823524999999677,
            "durationTicks": 15,
            "midi": 57,
            "name": "A3",
            "ticks": 29700,
            "time": 174.705795,
            "velocity": 0.7086614173228346
          },
          {
            "duration": 0.08823525000002519,
            "durationTicks": 15,
            "midi": 59,
            "name": "B3",
            "ticks": 29730,
            "time": 174.8822655,
            "velocity": 0.7086614173228346
          },
          {
            "duration": 0.08823524999999677,
            "durationTicks": 15,
            "midi": 66,
            "name": "F#4",
            "ticks": 29760,
            "time": 175.058736,
            "velocity": 0.7086614173228346
          },
          {
            "duration": 0.08823524999999677,
            "durationTicks": 15,
            "midi": 62,
            "name": "D4",
            "ticks": 29760,
            "time": 175.058736,
            "velocity": 0.7086614173228346
          },
          {
            "duration": 0.08823524999999677,
            "durationTicks": 15,
            "midi": 66,
            "name": "F#4",
            "ticks": 29790,
            "time": 175.2352065,
            "velocity": 0.7086614173228346
          },
          {
            "duration": 0.08823524999999677,
            "durationTicks": 15,
            "midi": 62,
            "name": "D4",
            "ticks": 29790,
            "time": 175.2352065,
            "velocity": 0.7086614173228346
          },
          {
            "duration": 0.08823524999999677,
            "durationTicks": 15,
            "midi": 59,
            "name": "B3",
            "ticks": 29820,
            "time": 175.411677,
            "velocity": 0.7086614173228346
          },
          {
            "duration": 0.08823525000002519,
            "durationTicks": 15,
            "midi": 62,
            "name": "D4",
            "ticks": 29850,
            "time": 175.5881475,
            "velocity": 0.7086614173228346
          },
          {
            "duration": 0.08823525000002519,
            "durationTicks": 15,
            "midi": 66,
            "name": "F#4",
            "ticks": 29850,
            "time": 175.5881475,
            "velocity": 0.7086614173228346
          },
          {
            "duration": 0.08823524999999677,
            "durationTicks": 15,
            "midi": 62,
            "name": "D4",
            "ticks": 29910,
            "time": 175.9410885,
            "velocity": 0.7086614173228346
          },
          {
            "duration": 0.08823524999999677,
            "durationTicks": 15,
            "midi": 66,
            "name": "F#4",
            "ticks": 29910,
            "time": 175.9410885,
            "velocity": 0.7086614173228346
          },
          {
            "duration": 0.08823524999999677,
            "durationTicks": 15,
            "midi": 66,
            "name": "F#4",
            "ticks": 29970,
            "time": 176.2940295,
            "velocity": 0.7086614173228346
          },
          {
            "duration": 0.08823524999999677,
            "durationTicks": 15,
            "midi": 62,
            "name": "D4",
            "ticks": 29970,
            "time": 176.2940295,
            "velocity": 0.7086614173228346
          },
          {
            "duration": 0.08823524999999677,
            "durationTicks": 15,
            "midi": 62,
            "name": "D4",
            "ticks": 30030,
            "time": 176.6469705,
            "velocity": 0.7086614173228346
          },
          {
            "duration": 0.08823524999999677,
            "durationTicks": 15,
            "midi": 66,
            "name": "F#4",
            "ticks": 30030,
            "time": 176.6469705,
            "velocity": 0.7086614173228346
          },
          {
            "duration": 0.5235291500000301,
            "durationTicks": 89,
            "midi": 60,
            "name": "C4",
            "ticks": 30120,
            "time": 177.176382,
            "velocity": 0.7086614173228346
          },
          {
            "duration": 0.529411500000009,
            "durationTicks": 90,
            "midi": 67,
            "name": "G4",
            "ticks": 30120,
            "time": 177.176382,
            "velocity": 0.7086614173228346
          },
          {
            "duration": 0.5235291500000301,
            "durationTicks": 89,
            "midi": 63,
            "name": "D#4",
            "ticks": 30120,
            "time": 177.176382,
            "velocity": 0.7086614173228346
          },
          {
            "duration": 0.05294115000000943,
            "durationTicks": 9,
            "midi": 66,
            "name": "F#4",
            "ticks": 30240,
            "time": 177.882264,
            "velocity": 0.7086614173228346
          },
          {
            "duration": 0.05294115000000943,
            "durationTicks": 9,
            "midi": 62,
            "name": "D4",
            "ticks": 30240,
            "time": 177.882264,
            "velocity": 0.7086614173228346
          },
          {
            "duration": 0.05294114999998101,
            "durationTicks": 9,
            "midi": 59,
            "name": "B3",
            "ticks": 30300,
            "time": 178.235205,
            "velocity": 0.7086614173228346
          },
          {
            "duration": 0.05294114999998101,
            "durationTicks": 9,
            "midi": 66,
            "name": "F#4",
            "ticks": 30330,
            "time": 178.4116755,
            "velocity": 0.7086614173228346
          },
          {
            "duration": 0.05294114999998101,
            "durationTicks": 9,
            "midi": 62,
            "name": "D4",
            "ticks": 30330,
            "time": 178.4116755,
            "velocity": 0.7086614173228346
          },
          {
            "duration": 0.08823525000002519,
            "durationTicks": 15,
            "midi": 62,
            "name": "D4",
            "ticks": 30390,
            "time": 178.7646165,
            "velocity": 0.7086614173228346
          },
          {
            "duration": 0.08823525000002519,
            "durationTicks": 15,
            "midi": 66,
            "name": "F#4",
            "ticks": 30390,
            "time": 178.7646165,
            "velocity": 0.7086614173228346
          },
          {
            "duration": 0.05294114999998101,
            "durationTicks": 9,
            "midi": 66,
            "name": "F#4",
            "ticks": 30450,
            "time": 179.1175575,
            "velocity": 0.7086614173228346
          },
          {
            "duration": 0.05294114999998101,
            "durationTicks": 9,
            "midi": 62,
            "name": "D4",
            "ticks": 30450,
            "time": 179.1175575,
            "velocity": 0.7086614173228346
          },
          {
            "duration": 0.08823525000002519,
            "durationTicks": 15,
            "midi": 66,
            "name": "F#4",
            "ticks": 30510,
            "time": 179.4704985,
            "velocity": 0.7086614173228346
          },
          {
            "duration": 0.08823525000002519,
            "durationTicks": 15,
            "midi": 62,
            "name": "D4",
            "ticks": 30510,
            "time": 179.4704985,
            "velocity": 0.7086614173228346
          },
          {
            "duration": 0.05294114999998101,
            "durationTicks": 9,
            "midi": 59,
            "name": "B3",
            "ticks": 30570,
            "time": 179.8234395,
            "velocity": 0.7086614173228346
          },
          {
            "duration": 0.08823524999999677,
            "durationTicks": 15,
            "midi": 66,
            "name": "F#4",
            "ticks": 30600,
            "time": 179.99991,
            "velocity": 0.7086614173228346
          },
          {
            "duration": 0.08823524999999677,
            "durationTicks": 15,
            "midi": 62,
            "name": "D4",
            "ticks": 30600,
            "time": 179.99991,
            "velocity": 0.7086614173228346
          },
          {
            "duration": 0.05294114999998101,
            "durationTicks": 9,
            "midi": 57,
            "name": "A3",
            "ticks": 30660,
            "time": 180.35285100000002,
            "velocity": 0.7086614173228346
          },
          {
            "duration": 0.05294114999998101,
            "durationTicks": 9,
            "midi": 59,
            "name": "B3",
            "ticks": 30690,
            "time": 180.5293215,
            "velocity": 0.7086614173228346
          },
          {
            "duration": 0.08823524999999677,
            "durationTicks": 15,
            "midi": 66,
            "name": "F#4",
            "ticks": 30720,
            "time": 180.705792,
            "velocity": 0.7086614173228346
          },
          {
            "duration": 0.08823524999999677,
            "durationTicks": 15,
            "midi": 62,
            "name": "D4",
            "ticks": 30720,
            "time": 180.705792,
            "velocity": 0.7086614173228346
          },
          {
            "duration": 0.05294115000000943,
            "durationTicks": 9,
            "midi": 66,
            "name": "F#4",
            "ticks": 30750,
            "time": 180.8822625,
            "velocity": 0.7086614173228346
          },
          {
            "duration": 0.05294115000000943,
            "durationTicks": 9,
            "midi": 62,
            "name": "D4",
            "ticks": 30750,
            "time": 180.8822625,
            "velocity": 0.7086614173228346
          },
          {
            "duration": 0.05294115000000943,
            "durationTicks": 9,
            "midi": 59,
            "name": "B3",
            "ticks": 30780,
            "time": 181.058733,
            "velocity": 0.7086614173228346
          },
          {
            "duration": 0.08823524999999677,
            "durationTicks": 15,
            "midi": 66,
            "name": "F#4",
            "ticks": 30810,
            "time": 181.2352035,
            "velocity": 0.7086614173228346
          },
          {
            "duration": 0.08823524999999677,
            "durationTicks": 15,
            "midi": 62,
            "name": "D4",
            "ticks": 30810,
            "time": 181.2352035,
            "velocity": 0.7086614173228346
          },
          {
            "duration": 0.08823524999999677,
            "durationTicks": 15,
            "midi": 66,
            "name": "F#4",
            "ticks": 30870,
            "time": 181.5881445,
            "velocity": 0.7086614173228346
          },
          {
            "duration": 0.08823524999999677,
            "durationTicks": 15,
            "midi": 62,
            "name": "D4",
            "ticks": 30870,
            "time": 181.5881445,
            "velocity": 0.7086614173228346
          },
          {
            "duration": 1.0529406499999823,
            "durationTicks": 179,
            "midi": 58,
            "name": "A#3",
            "ticks": 30930,
            "time": 181.9410855,
            "velocity": 0.7086614173228346
          },
          {
            "duration": 1.0529406499999823,
            "durationTicks": 179,
            "midi": 61,
            "name": "C#4",
            "ticks": 30930,
            "time": 181.9410855,
            "velocity": 0.7086614173228346
          },
          {
            "duration": 1.0529406499999823,
            "durationTicks": 179,
            "midi": 65,
            "name": "F4",
            "ticks": 30930,
            "time": 181.9410855,
            "velocity": 0.7086614173228346
          }
        ]
      },
      {
        "channel": 9,
        "controlChanges": {},
        "pitchBends": [],
        "instrument": {
          "family": "drums",
          "number": 0,
          "name": "standard kit"
        },
        "name": "Cymbals",
        "notes": [
          {
            "duration": 0.08235289999999962,
            "durationTicks": 14,
            "midi": 49,
            "name": "C#3",
            "ticks": 480,
            "time": 2.823528,
            "velocity": 0.8267716535433071
          },
          {
            "duration": 0.08235289999999962,
            "durationTicks": 14,
            "midi": 42,
            "name": "F#2",
            "ticks": 540,
            "time": 3.176469,
            "velocity": 0.8267716535433071
          },
          {
            "duration": 0.08235289999999962,
            "durationTicks": 14,
            "midi": 44,
            "name": "G#2",
            "ticks": 570,
            "time": 3.3529395,
            "velocity": 0.8267716535433071
          },
          {
            "duration": 0.08235289999999962,
            "durationTicks": 14,
            "midi": 46,
            "name": "A#2",
            "ticks": 600,
            "time": 3.52941,
            "velocity": 0.8267716535433071
          },
          {
            "duration": 0.08235290000000006,
            "durationTicks": 14,
            "midi": 42,
            "name": "F#2",
            "ticks": 660,
            "time": 3.882351,
            "velocity": 0.8267716535433071
          },
          {
            "duration": 0.08235290000000006,
            "durationTicks": 14,
            "midi": 44,
            "name": "G#2",
            "ticks": 690,
            "time": 4.0588215,
            "velocity": 0.8267716535433071
          },
          {
            "duration": 0.08235289999999917,
            "durationTicks": 14,
            "midi": 42,
            "name": "F#2",
            "ticks": 720,
            "time": 4.235292,
            "velocity": 0.8267716535433071
          },
          {
            "duration": 0.08235290000000006,
            "durationTicks": 14,
            "midi": 42,
            "name": "F#2",
            "ticks": 780,
            "time": 4.588233,
            "velocity": 0.8267716535433071
          },
          {
            "duration": 0.08235289999999917,
            "durationTicks": 14,
            "midi": 44,
            "name": "G#2",
            "ticks": 810,
            "time": 4.7647035,
            "velocity": 0.8267716535433071
          },
          {
            "duration": 0.08235289999999917,
            "durationTicks": 14,
            "midi": 42,
            "name": "F#2",
            "ticks": 840,
            "time": 4.941174,
            "velocity": 0.8267716535433071
          },
          {
            "duration": 0.08235290000000006,
            "durationTicks": 14,
            "midi": 42,
            "name": "F#2",
            "ticks": 900,
            "time": 5.294115,
            "velocity": 0.8267716535433071
          },
          {
            "duration": 0.08235289999999917,
            "durationTicks": 14,
            "midi": 44,
            "name": "G#2",
            "ticks": 930,
            "time": 5.4705855,
            "velocity": 0.8267716535433071
          },
          {
            "duration": 0.08235290000000006,
            "durationTicks": 14,
            "midi": 42,
            "name": "F#2",
            "ticks": 960,
            "time": 5.647056,
            "velocity": 0.8267716535433071
          },
          {
            "duration": 0.08235290000000006,
            "durationTicks": 14,
            "midi": 42,
            "name": "F#2",
            "ticks": 1020,
            "time": 5.9999970000000005,
            "velocity": 0.8267716535433071
          },
          {
            "duration": 0.08235290000000006,
            "durationTicks": 14,
            "midi": 44,
            "name": "G#2",
            "ticks": 1050,
            "time": 6.1764675,
            "velocity": 0.8267716535433071
          },
          {
            "duration": 0.08235290000000006,
            "durationTicks": 14,
            "midi": 42,
            "name": "F#2",
            "ticks": 1080,
            "time": 6.352938,
            "velocity": 0.8267716535433071
          },
          {
            "duration": 0.08235290000000006,
            "durationTicks": 14,
            "midi": 42,
            "name": "F#2",
            "ticks": 1140,
            "time": 6.705879,
            "velocity": 0.8267716535433071
          },
          {
            "duration": 0.08235290000000006,
            "durationTicks": 14,
            "midi": 44,
            "name": "G#2",
            "ticks": 1170,
            "time": 6.8823495,
            "velocity": 0.8267716535433071
          },
          {
            "duration": 0.08235290000000095,
            "durationTicks": 14,
            "midi": 42,
            "name": "F#2",
            "ticks": 1200,
            "time": 7.05882,
            "velocity": 0.8267716535433071
          },
          {
            "duration": 0.08235290000000006,
            "durationTicks": 14,
            "midi": 42,
            "name": "F#2",
            "ticks": 1260,
            "time": 7.411761,
            "velocity": 0.8267716535433071
          },
          {
            "duration": 0.08235290000000006,
            "durationTicks": 14,
            "midi": 44,
            "name": "G#2",
            "ticks": 1290,
            "time": 7.5882315,
            "velocity": 0.8267716535433071
          },
          {
            "duration": 0.08235290000000095,
            "durationTicks": 14,
            "midi": 42,
            "name": "F#2",
            "ticks": 1320,
            "time": 7.764702,
            "velocity": 0.8267716535433071
          },
          {
            "duration": 0.08235290000000006,
            "durationTicks": 14,
            "midi": 46,
            "name": "A#2",
            "ticks": 1350,
            "time": 7.9411725,
            "velocity": 0.8267716535433071
          },
          {
            "duration": 0.08235290000000184,
            "durationTicks": 14,
            "midi": 42,
            "name": "F#2",
            "ticks": 1380,
            "time": 8.117643,
            "velocity": 0.8267716535433071
          },
          {
            "duration": 0.08235290000000006,
            "durationTicks": 14,
            "midi": 49,
            "name": "C#3",
            "ticks": 1440,
            "time": 8.470584,
            "velocity": 0.8267716535433071
          },
          {
            "duration": 0.08235290000000006,
            "durationTicks": 14,
            "midi": 42,
            "name": "F#2",
            "ticks": 1500,
            "time": 8.823525,
            "velocity": 0.8267716535433071
          },
          {
            "duration": 0.08235290000000006,
            "durationTicks": 14,
            "midi": 44,
            "name": "G#2",
            "ticks": 1530,
            "time": 8.9999955,
            "velocity": 0.8267716535433071
          },
          {
            "duration": 0.08235290000000006,
            "durationTicks": 14,
            "midi": 46,
            "name": "A#2",
            "ticks": 1560,
            "time": 9.176466,
            "velocity": 0.8267716535433071
          },
          {
            "duration": 0.08235290000000006,
            "durationTicks": 14,
            "midi": 42,
            "name": "F#2",
            "ticks": 1620,
            "time": 9.529407,
            "velocity": 0.8267716535433071
          },
          {
            "duration": 0.08235290000000006,
            "durationTicks": 14,
            "midi": 44,
            "name": "G#2",
            "ticks": 1650,
            "time": 9.7058775,
            "velocity": 0.8267716535433071
          },
          {
            "duration": 0.08235290000000006,
            "durationTicks": 14,
            "midi": 42,
            "name": "F#2",
            "ticks": 1680,
            "time": 9.882348,
            "velocity": 0.8267716535433071
          },
          {
            "duration": 0.08235290000000006,
            "durationTicks": 14,
            "midi": 42,
            "name": "F#2",
            "ticks": 1740,
            "time": 10.235289,
            "velocity": 0.8267716535433071
          },
          {
            "duration": 0.08235290000000006,
            "durationTicks": 14,
            "midi": 44,
            "name": "G#2",
            "ticks": 1770,
            "time": 10.4117595,
            "velocity": 0.8267716535433071
          },
          {
            "duration": 0.08235290000000184,
            "durationTicks": 14,
            "midi": 42,
            "name": "F#2",
            "ticks": 1800,
            "time": 10.58823,
            "velocity": 0.8267716535433071
          },
          {
            "duration": 0.08235290000000006,
            "durationTicks": 14,
            "midi": 42,
            "name": "F#2",
            "ticks": 1860,
            "time": 10.941171,
            "velocity": 0.8267716535433071
          },
          {
            "duration": 0.08235290000000184,
            "durationTicks": 14,
            "midi": 44,
            "name": "G#2",
            "ticks": 1890,
            "time": 11.1176415,
            "velocity": 0.8267716535433071
          },
          {
            "duration": 0.08235290000000006,
            "durationTicks": 14,
            "midi": 42,
            "name": "F#2",
            "ticks": 1920,
            "time": 11.294112,
            "velocity": 0.8267716535433071
          },
          {
            "duration": 0.08235290000000006,
            "durationTicks": 14,
            "midi": 42,
            "name": "F#2",
            "ticks": 1980,
            "time": 11.647053,
            "velocity": 0.8267716535433071
          },
          {
            "duration": 0.08235290000000006,
            "durationTicks": 14,
            "midi": 44,
            "name": "G#2",
            "ticks": 2010,
            "time": 11.8235235,
            "velocity": 0.8267716535433071
          },
          {
            "duration": 0.08235290000000006,
            "durationTicks": 14,
            "midi": 42,
            "name": "F#2",
            "ticks": 2040,
            "time": 11.999994000000001,
            "velocity": 0.8267716535433071
          },
          {
            "duration": 0.08235290000000006,
            "durationTicks": 14,
            "midi": 42,
            "name": "F#2",
            "ticks": 2100,
            "time": 12.352935,
            "velocity": 0.8267716535433071
          },
          {
            "duration": 0.08235290000000184,
            "durationTicks": 14,
            "midi": 44,
            "name": "G#2",
            "ticks": 2130,
            "time": 12.5294055,
            "velocity": 0.8267716535433071
          },
          {
            "duration": 0.08235290000000006,
            "durationTicks": 14,
            "midi": 42,
            "name": "F#2",
            "ticks": 2160,
            "time": 12.705876,
            "velocity": 0.8267716535433071
          },
          {
            "duration": 0.08235290000000184,
            "durationTicks": 14,
            "midi": 42,
            "name": "F#2",
            "ticks": 2220,
            "time": 13.058817,
            "velocity": 0.8267716535433071
          },
          {
            "duration": 0.08235290000000006,
            "durationTicks": 14,
            "midi": 44,
            "name": "G#2",
            "ticks": 2250,
            "time": 13.2352875,
            "velocity": 0.8267716535433071
          },
          {
            "duration": 0.08235290000000006,
            "durationTicks": 14,
            "midi": 42,
            "name": "F#2",
            "ticks": 2280,
            "time": 13.411758,
            "velocity": 0.8267716535433071
          },
          {
            "duration": 0.08235290000000006,
            "durationTicks": 14,
            "midi": 46,
            "name": "A#2",
            "ticks": 2310,
            "time": 13.5882285,
            "velocity": 0.8267716535433071
          },
          {
            "duration": 0.08235290000000006,
            "durationTicks": 14,
            "midi": 42,
            "name": "F#2",
            "ticks": 2340,
            "time": 13.764699,
            "velocity": 0.8267716535433071
          },
          {
            "duration": 0.08235290000000006,
            "durationTicks": 14,
            "midi": 49,
            "name": "C#3",
            "ticks": 2400,
            "time": 14.11764,
            "velocity": 0.8267716535433071
          },
          {
            "duration": 0.08235290000000006,
            "durationTicks": 14,
            "midi": 42,
            "name": "F#2",
            "ticks": 2460,
            "time": 14.470581000000001,
            "velocity": 0.8267716535433071
          },
          {
            "duration": 0.08235290000000006,
            "durationTicks": 14,
            "midi": 44,
            "name": "G#2",
            "ticks": 2490,
            "time": 14.6470515,
            "velocity": 0.8267716535433071
          },
          {
            "duration": 0.08235290000000006,
            "durationTicks": 14,
            "midi": 46,
            "name": "A#2",
            "ticks": 2520,
            "time": 14.823522,
            "velocity": 0.8267716535433071
          },
          {
            "duration": 0.08235290000000006,
            "durationTicks": 14,
            "midi": 42,
            "name": "F#2",
            "ticks": 2580,
            "time": 15.176463,
            "velocity": 0.8267716535433071
          },
          {
            "duration": 0.08235290000000006,
            "durationTicks": 14,
            "midi": 44,
            "name": "G#2",
            "ticks": 2610,
            "time": 15.3529335,
            "velocity": 0.8267716535433071
          },
          {
            "duration": 0.08235290000000184,
            "durationTicks": 14,
            "midi": 42,
            "name": "F#2",
            "ticks": 2640,
            "time": 15.529404,
            "velocity": 0.8267716535433071
          },
          {
            "duration": 0.08235290000000006,
            "durationTicks": 14,
            "midi": 42,
            "name": "F#2",
            "ticks": 2700,
            "time": 15.882345,
            "velocity": 0.8267716535433071
          },
          {
            "duration": 0.08235290000000006,
            "durationTicks": 14,
            "midi": 44,
            "name": "G#2",
            "ticks": 2730,
            "time": 16.0588155,
            "velocity": 0.8267716535433071
          },
          {
            "duration": 0.08235290000000361,
            "durationTicks": 14,
            "midi": 42,
            "name": "F#2",
            "ticks": 2760,
            "time": 16.235286,
            "velocity": 0.8267716535433071
          },
          {
            "duration": 0.08235290000000006,
            "durationTicks": 14,
            "midi": 42,
            "name": "F#2",
            "ticks": 2820,
            "time": 16.588227,
            "velocity": 0.8267716535433071
          },
          {
            "duration": 0.08235290000000006,
            "durationTicks": 14,
            "midi": 44,
            "name": "G#2",
            "ticks": 2850,
            "time": 16.7646975,
            "velocity": 0.8267716535433071
          },
          {
            "duration": 0.08235290000000006,
            "durationTicks": 14,
            "midi": 42,
            "name": "F#2",
            "ticks": 2880,
            "time": 16.941168,
            "velocity": 0.8267716535433071
          },
          {
            "duration": 0.08235290000000006,
            "durationTicks": 14,
            "midi": 42,
            "name": "F#2",
            "ticks": 2940,
            "time": 17.294109,
            "velocity": 0.8267716535433071
          },
          {
            "duration": 0.08235290000000006,
            "durationTicks": 14,
            "midi": 44,
            "name": "G#2",
            "ticks": 2970,
            "time": 17.4705795,
            "velocity": 0.8267716535433071
          },
          {
            "duration": 0.08235290000000006,
            "durationTicks": 14,
            "midi": 42,
            "name": "F#2",
            "ticks": 3000,
            "time": 17.64705,
            "velocity": 0.8267716535433071
          },
          {
            "duration": 0.08235290000000006,
            "durationTicks": 14,
            "midi": 42,
            "name": "F#2",
            "ticks": 3060,
            "time": 17.999991,
            "velocity": 0.8267716535433071
          },
          {
            "duration": 0.08235290000000361,
            "durationTicks": 14,
            "midi": 44,
            "name": "G#2",
            "ticks": 3090,
            "time": 18.1764615,
            "velocity": 0.8267716535433071
          },
          {
            "duration": 0.08235290000000006,
            "durationTicks": 14,
            "midi": 42,
            "name": "F#2",
            "ticks": 3120,
            "time": 18.352932,
            "velocity": 0.8267716535433071
          },
          {
            "duration": 0.08235290000000006,
            "durationTicks": 14,
            "midi": 42,
            "name": "F#2",
            "ticks": 3180,
            "time": 18.705873,
            "velocity": 0.8267716535433071
          },
          {
            "duration": 0.08235290000000006,
            "durationTicks": 14,
            "midi": 44,
            "name": "G#2",
            "ticks": 3210,
            "time": 18.8823435,
            "velocity": 0.8267716535433071
          },
          {
            "duration": 0.08235290000000006,
            "durationTicks": 14,
            "midi": 42,
            "name": "F#2",
            "ticks": 3240,
            "time": 19.058814,
            "velocity": 0.8267716535433071
          },
          {
            "duration": 0.08235290000000006,
            "durationTicks": 14,
            "midi": 46,
            "name": "A#2",
            "ticks": 3270,
            "time": 19.2352845,
            "velocity": 0.8267716535433071
          },
          {
            "duration": 0.08235290000000006,
            "durationTicks": 14,
            "midi": 42,
            "name": "F#2",
            "ticks": 3300,
            "time": 19.411755,
            "velocity": 0.8267716535433071
          },
          {
            "duration": 0.08235290000000006,
            "durationTicks": 14,
            "midi": 49,
            "name": "C#3",
            "ticks": 3360,
            "time": 19.764696,
            "velocity": 0.8267716535433071
          },
          {
            "duration": 0.08235290000000006,
            "durationTicks": 14,
            "midi": 42,
            "name": "F#2",
            "ticks": 3420,
            "time": 20.117637000000002,
            "velocity": 0.8267716535433071
          },
          {
            "duration": 0.08235290000000006,
            "durationTicks": 14,
            "midi": 44,
            "name": "G#2",
            "ticks": 3450,
            "time": 20.2941075,
            "velocity": 0.8267716535433071
          },
          {
            "duration": 0.08235290000000006,
            "durationTicks": 14,
            "midi": 46,
            "name": "A#2",
            "ticks": 3480,
            "time": 20.470578,
            "velocity": 0.8267716535433071
          },
          {
            "duration": 0.08235290000000006,
            "durationTicks": 14,
            "midi": 42,
            "name": "F#2",
            "ticks": 3540,
            "time": 20.823519,
            "velocity": 0.8267716535433071
          },
          {
            "duration": 0.08235290000000006,
            "durationTicks": 14,
            "midi": 44,
            "name": "G#2",
            "ticks": 3570,
            "time": 20.9999895,
            "velocity": 0.8267716535433071
          },
          {
            "duration": 0.08235290000000361,
            "durationTicks": 14,
            "midi": 42,
            "name": "F#2",
            "ticks": 3600,
            "time": 21.17646,
            "velocity": 0.8267716535433071
          },
          {
            "duration": 0.08235290000000006,
            "durationTicks": 14,
            "midi": 42,
            "name": "F#2",
            "ticks": 3660,
            "time": 21.529401,
            "velocity": 0.8267716535433071
          },
          {
            "duration": 0.08235290000000006,
            "durationTicks": 14,
            "midi": 44,
            "name": "G#2",
            "ticks": 3690,
            "time": 21.7058715,
            "velocity": 0.8267716535433071
          },
          {
            "duration": 0.08235290000000006,
            "durationTicks": 14,
            "midi": 42,
            "name": "F#2",
            "ticks": 3720,
            "time": 21.882342,
            "velocity": 0.8267716535433071
          },
          {
            "duration": 0.08235290000000006,
            "durationTicks": 14,
            "midi": 42,
            "name": "F#2",
            "ticks": 3780,
            "time": 22.235283,
            "velocity": 0.8267716535433071
          },
          {
            "duration": 0.08235290000000006,
            "durationTicks": 14,
            "midi": 44,
            "name": "G#2",
            "ticks": 3810,
            "time": 22.4117535,
            "velocity": 0.8267716535433071
          },
          {
            "duration": 0.08235290000000006,
            "durationTicks": 14,
            "midi": 42,
            "name": "F#2",
            "ticks": 3840,
            "time": 22.588224,
            "velocity": 0.8267716535433071
          },
          {
            "duration": 0.08235290000000006,
            "durationTicks": 14,
            "midi": 42,
            "name": "F#2",
            "ticks": 3900,
            "time": 22.941165,
            "velocity": 0.8267716535433071
          },
          {
            "duration": 0.08235290000000361,
            "durationTicks": 14,
            "midi": 44,
            "name": "G#2",
            "ticks": 3930,
            "time": 23.1176355,
            "velocity": 0.8267716535433071
          },
          {
            "duration": 0.08235290000000006,
            "durationTicks": 14,
            "midi": 42,
            "name": "F#2",
            "ticks": 3960,
            "time": 23.294106,
            "velocity": 0.8267716535433071
          },
          {
            "duration": 0.08235290000000006,
            "durationTicks": 14,
            "midi": 42,
            "name": "F#2",
            "ticks": 4020,
            "time": 23.647047,
            "velocity": 0.8267716535433071
          },
          {
            "duration": 0.08235290000000006,
            "durationTicks": 14,
            "midi": 55,
            "name": "G3",
            "ticks": 4050,
            "time": 23.8235175,
            "velocity": 0.8267716535433071
          },
          {
            "duration": 0.08235290000000006,
            "durationTicks": 14,
            "midi": 44,
            "name": "G#2",
            "ticks": 4050,
            "time": 23.8235175,
            "velocity": 0.8267716535433071
          },
          {
            "duration": 0.08235290000000006,
            "durationTicks": 14,
            "midi": 42,
            "name": "F#2",
            "ticks": 4080,
            "time": 23.999988000000002,
            "velocity": 0.8267716535433071
          },
          {
            "duration": 0.08235290000000006,
            "durationTicks": 14,
            "midi": 42,
            "name": "F#2",
            "ticks": 4140,
            "time": 24.352929,
            "velocity": 0.8267716535433071
          },
          {
            "duration": 0.08235290000000006,
            "durationTicks": 14,
            "midi": 46,
            "name": "A#2",
            "ticks": 4170,
            "time": 24.5293995,
            "velocity": 0.8267716535433071
          },
          {
            "duration": 0.08235290000000006,
            "durationTicks": 14,
            "midi": 42,
            "name": "F#2",
            "ticks": 4200,
            "time": 24.70587,
            "velocity": 0.8267716535433071
          },
          {
            "duration": 0.08235290000000006,
            "durationTicks": 14,
            "midi": 49,
            "name": "C#3",
            "ticks": 4230,
            "time": 24.8823405,
            "velocity": 0.8267716535433071
          },
          {
            "duration": 0.08235290000000006,
            "durationTicks": 14,
            "midi": 46,
            "name": "A#2",
            "ticks": 4320,
            "time": 25.411752,
            "velocity": 0.8267716535433071
          },
          {
            "duration": 0.08235290000000006,
            "durationTicks": 14,
            "midi": 42,
            "name": "F#2",
            "ticks": 4380,
            "time": 25.764693,
            "velocity": 0.8267716535433071
          },
          {
            "duration": 0.08235290000000006,
            "durationTicks": 14,
            "midi": 44,
            "name": "G#2",
            "ticks": 4410,
            "time": 25.941163500000002,
            "velocity": 0.8267716535433071
          },
          {
            "duration": 0.08235290000000006,
            "durationTicks": 14,
            "midi": 46,
            "name": "A#2",
            "ticks": 4440,
            "time": 26.117634,
            "velocity": 0.8267716535433071
          },
          {
            "duration": 0.08235290000000006,
            "durationTicks": 14,
            "midi": 42,
            "name": "F#2",
            "ticks": 4500,
            "time": 26.470575,
            "velocity": 0.8267716535433071
          },
          {
            "duration": 0.08235290000000006,
            "durationTicks": 14,
            "midi": 44,
            "name": "G#2",
            "ticks": 4530,
            "time": 26.6470455,
            "velocity": 0.8267716535433071
          },
          {
            "duration": 0.08235290000000006,
            "durationTicks": 14,
            "midi": 42,
            "name": "F#2",
            "ticks": 4560,
            "time": 26.823516,
            "velocity": 0.8267716535433071
          },
          {
            "duration": 0.08235290000000006,
            "durationTicks": 14,
            "midi": 42,
            "name": "F#2",
            "ticks": 4620,
            "time": 27.176457,
            "velocity": 0.8267716535433071
          },
          {
            "duration": 0.08235290000000006,
            "durationTicks": 14,
            "midi": 44,
            "name": "G#2",
            "ticks": 4650,
            "time": 27.3529275,
            "velocity": 0.8267716535433071
          },
          {
            "duration": 0.08235290000000006,
            "durationTicks": 14,
            "midi": 42,
            "name": "F#2",
            "ticks": 4680,
            "time": 27.529398,
            "velocity": 0.8267716535433071
          },
          {
            "duration": 0.08235290000000006,
            "durationTicks": 14,
            "midi": 42,
            "name": "F#2",
            "ticks": 4740,
            "time": 27.882339,
            "velocity": 0.8267716535433071
          },
          {
            "duration": 0.08235290000000361,
            "durationTicks": 14,
            "midi": 44,
            "name": "G#2",
            "ticks": 4770,
            "time": 28.0588095,
            "velocity": 0.8267716535433071
          },
          {
            "duration": 0.08235290000000006,
            "durationTicks": 14,
            "midi": 42,
            "name": "F#2",
            "ticks": 4800,
            "time": 28.23528,
            "velocity": 0.8267716535433071
          },
          {
            "duration": 0.08235290000000006,
            "durationTicks": 14,
            "midi": 42,
            "name": "F#2",
            "ticks": 4860,
            "time": 28.588221,
            "velocity": 0.8267716535433071
          },
          {
            "duration": 0.08235290000000006,
            "durationTicks": 14,
            "midi": 44,
            "name": "G#2",
            "ticks": 4890,
            "time": 28.7646915,
            "velocity": 0.8267716535433071
          },
          {
            "duration": 0.08235290000000006,
            "durationTicks": 14,
            "midi": 46,
            "name": "A#2",
            "ticks": 4920,
            "time": 28.941162000000002,
            "velocity": 0.8267716535433071
          },
          {
            "duration": 0.08235290000000006,
            "durationTicks": 14,
            "midi": 42,
            "name": "F#2",
            "ticks": 4980,
            "time": 29.294103,
            "velocity": 0.8267716535433071
          },
          {
            "duration": 0.08235290000000006,
            "durationTicks": 14,
            "midi": 44,
            "name": "G#2",
            "ticks": 5010,
            "time": 29.4705735,
            "velocity": 0.8267716535433071
          },
          {
            "duration": 0.08235290000000006,
            "durationTicks": 14,
            "midi": 42,
            "name": "F#2",
            "ticks": 5040,
            "time": 29.647044,
            "velocity": 0.8267716535433071
          },
          {
            "duration": 0.08235290000000361,
            "durationTicks": 14,
            "midi": 42,
            "name": "F#2",
            "ticks": 5100,
            "time": 29.999985,
            "velocity": 0.8267716535433071
          },
          {
            "duration": 0.08235290000000006,
            "durationTicks": 14,
            "midi": 44,
            "name": "G#2",
            "ticks": 5130,
            "time": 30.1764555,
            "velocity": 0.8267716535433071
          },
          {
            "duration": 0.08235290000000006,
            "durationTicks": 14,
            "midi": 42,
            "name": "F#2",
            "ticks": 5160,
            "time": 30.352926,
            "velocity": 0.8267716535433071
          },
          {
            "duration": 0.08235290000000006,
            "durationTicks": 14,
            "midi": 42,
            "name": "F#2",
            "ticks": 5220,
            "time": 30.705867,
            "velocity": 0.8267716535433071
          },
          {
            "duration": 0.08235290000000006,
            "durationTicks": 14,
            "midi": 44,
            "name": "G#2",
            "ticks": 5250,
            "time": 30.882337500000002,
            "velocity": 0.8267716535433071
          },
          {
            "duration": 0.08235290000000006,
            "durationTicks": 14,
            "midi": 42,
            "name": "F#2",
            "ticks": 5280,
            "time": 31.058808,
            "velocity": 0.8267716535433071
          },
          {
            "duration": 0.08235290000000006,
            "durationTicks": 14,
            "midi": 42,
            "name": "F#2",
            "ticks": 5340,
            "time": 31.411749,
            "velocity": 0.8267716535433071
          },
          {
            "duration": 0.08235290000000006,
            "durationTicks": 14,
            "midi": 44,
            "name": "G#2",
            "ticks": 5370,
            "time": 31.5882195,
            "velocity": 0.8267716535433071
          },
          {
            "duration": 0.08235290000000006,
            "durationTicks": 14,
            "midi": 46,
            "name": "A#2",
            "ticks": 5400,
            "time": 31.76469,
            "velocity": 0.8267716535433071
          },
          {
            "duration": 0.08235289999999651,
            "durationTicks": 14,
            "midi": 42,
            "name": "F#2",
            "ticks": 5460,
            "time": 32.117631,
            "velocity": 0.8267716535433071
          },
          {
            "duration": 0.08235289999999651,
            "durationTicks": 14,
            "midi": 44,
            "name": "G#2",
            "ticks": 5490,
            "time": 32.294101500000004,
            "velocity": 0.8267716535433071
          },
          {
            "duration": 0.08235290000000361,
            "durationTicks": 14,
            "midi": 42,
            "name": "F#2",
            "ticks": 5520,
            "time": 32.470572,
            "velocity": 0.8267716535433071
          },
          {
            "duration": 0.08235290000000361,
            "durationTicks": 14,
            "midi": 42,
            "name": "F#2",
            "ticks": 5580,
            "time": 32.823513,
            "velocity": 0.8267716535433071
          },
          {
            "duration": 0.08235290000000361,
            "durationTicks": 14,
            "midi": 44,
            "name": "G#2",
            "ticks": 5610,
            "time": 32.9999835,
            "velocity": 0.8267716535433071
          },
          {
            "duration": 0.08235290000000361,
            "durationTicks": 14,
            "midi": 42,
            "name": "F#2",
            "ticks": 5640,
            "time": 33.176454,
            "velocity": 0.8267716535433071
          },
          {
            "duration": 0.08235289999999651,
            "durationTicks": 14,
            "midi": 42,
            "name": "F#2",
            "ticks": 5700,
            "time": 33.529395,
            "velocity": 0.8267716535433071
          },
          {
            "duration": 0.08235289999999651,
            "durationTicks": 14,
            "midi": 44,
            "name": "G#2",
            "ticks": 5730,
            "time": 33.7058655,
            "velocity": 0.8267716535433071
          },
          {
            "duration": 0.08235289999999651,
            "durationTicks": 14,
            "midi": 42,
            "name": "F#2",
            "ticks": 5760,
            "time": 33.882336,
            "velocity": 0.8267716535433071
          },
          {
            "duration": 0.08235289999999651,
            "durationTicks": 14,
            "midi": 42,
            "name": "F#2",
            "ticks": 5820,
            "time": 34.235277,
            "velocity": 0.8267716535433071
          },
          {
            "duration": 0.08235290000000361,
            "durationTicks": 14,
            "midi": 44,
            "name": "G#2",
            "ticks": 5850,
            "time": 34.4117475,
            "velocity": 0.8267716535433071
          },
          {
            "duration": 0.08235290000000361,
            "durationTicks": 14,
            "midi": 46,
            "name": "A#2",
            "ticks": 5880,
            "time": 34.588218,
            "velocity": 0.8267716535433071
          },
          {
            "duration": 0.08235290000000361,
            "durationTicks": 14,
            "midi": 42,
            "name": "F#2",
            "ticks": 5940,
            "time": 34.941159,
            "velocity": 0.8267716535433071
          },
          {
            "duration": 0.08235290000000361,
            "durationTicks": 14,
            "midi": 44,
            "name": "G#2",
            "ticks": 5970,
            "time": 35.1176295,
            "velocity": 0.8267716535433071
          },
          {
            "duration": 0.08235290000000361,
            "durationTicks": 14,
            "midi": 42,
            "name": "F#2",
            "ticks": 6000,
            "time": 35.2941,
            "velocity": 0.8267716535433071
          },
          {
            "duration": 0.08235289999999651,
            "durationTicks": 14,
            "midi": 42,
            "name": "F#2",
            "ticks": 6060,
            "time": 35.647041,
            "velocity": 0.8267716535433071
          },
          {
            "duration": 0.08235289999999651,
            "durationTicks": 14,
            "midi": 44,
            "name": "G#2",
            "ticks": 6090,
            "time": 35.8235115,
            "velocity": 0.8267716535433071
          },
          {
            "duration": 0.08235289999999651,
            "durationTicks": 14,
            "midi": 42,
            "name": "F#2",
            "ticks": 6120,
            "time": 35.999982,
            "velocity": 0.8267716535433071
          },
          {
            "duration": 0.08235290000000361,
            "durationTicks": 14,
            "midi": 42,
            "name": "F#2",
            "ticks": 6180,
            "time": 36.352923,
            "velocity": 0.8267716535433071
          },
          {
            "duration": 0.08235290000000361,
            "durationTicks": 14,
            "midi": 44,
            "name": "G#2",
            "ticks": 6210,
            "time": 36.5293935,
            "velocity": 0.8267716535433071
          },
          {
            "duration": 0.08235290000000361,
            "durationTicks": 14,
            "midi": 42,
            "name": "F#2",
            "ticks": 6240,
            "time": 36.705864,
            "velocity": 0.8267716535433071
          },
          {
            "duration": 0.08235290000000361,
            "durationTicks": 14,
            "midi": 42,
            "name": "F#2",
            "ticks": 6300,
            "time": 37.058805,
            "velocity": 0.8267716535433071
          },
          {
            "duration": 0.08235290000000361,
            "durationTicks": 14,
            "midi": 44,
            "name": "G#2",
            "ticks": 6330,
            "time": 37.2352755,
            "velocity": 0.8267716535433071
          },
          {
            "duration": 0.08235289999999651,
            "durationTicks": 14,
            "midi": 46,
            "name": "A#2",
            "ticks": 6360,
            "time": 37.411746,
            "velocity": 0.8267716535433071
          },
          {
            "duration": 0.08235289999999651,
            "durationTicks": 14,
            "midi": 42,
            "name": "F#2",
            "ticks": 6420,
            "time": 37.764687,
            "velocity": 0.8267716535433071
          },
          {
            "duration": 0.08235289999999651,
            "durationTicks": 14,
            "midi": 44,
            "name": "G#2",
            "ticks": 6450,
            "time": 37.9411575,
            "velocity": 0.8267716535433071
          },
          {
            "duration": 0.08235289999999651,
            "durationTicks": 14,
            "midi": 42,
            "name": "F#2",
            "ticks": 6480,
            "time": 38.117628,
            "velocity": 0.8267716535433071
          },
          {
            "duration": 0.08235290000000361,
            "durationTicks": 14,
            "midi": 42,
            "name": "F#2",
            "ticks": 6540,
            "time": 38.470569,
            "velocity": 0.8267716535433071
          },
          {
            "duration": 0.08235290000000361,
            "durationTicks": 14,
            "midi": 44,
            "name": "G#2",
            "ticks": 6570,
            "time": 38.6470395,
            "velocity": 0.8267716535433071
          },
          {
            "duration": 0.08235290000000361,
            "durationTicks": 14,
            "midi": 42,
            "name": "F#2",
            "ticks": 6600,
            "time": 38.82351,
            "velocity": 0.8267716535433071
          },
          {
            "duration": 0.08235290000000361,
            "durationTicks": 14,
            "midi": 42,
            "name": "F#2",
            "ticks": 6660,
            "time": 39.176451,
            "velocity": 0.8267716535433071
          },
          {
            "duration": 0.08235290000000361,
            "durationTicks": 14,
            "midi": 44,
            "name": "G#2",
            "ticks": 6690,
            "time": 39.3529215,
            "velocity": 0.8267716535433071
          },
          {
            "duration": 0.08235289999999651,
            "durationTicks": 14,
            "midi": 42,
            "name": "F#2",
            "ticks": 6720,
            "time": 39.529392,
            "velocity": 0.8267716535433071
          },
          {
            "duration": 0.08235289999999651,
            "durationTicks": 14,
            "midi": 42,
            "name": "F#2",
            "ticks": 6780,
            "time": 39.882333,
            "velocity": 0.8267716535433071
          },
          {
            "duration": 0.08235289999999651,
            "durationTicks": 14,
            "midi": 44,
            "name": "G#2",
            "ticks": 6810,
            "time": 40.0588035,
            "velocity": 0.8267716535433071
          },
          {
            "duration": 0.08235289999999651,
            "durationTicks": 14,
            "midi": 46,
            "name": "A#2",
            "ticks": 6840,
            "time": 40.235274000000004,
            "velocity": 0.8267716535433071
          },
          {
            "duration": 0.08235290000000361,
            "durationTicks": 14,
            "midi": 42,
            "name": "F#2",
            "ticks": 6900,
            "time": 40.588215,
            "velocity": 0.8267716535433071
          },
          {
            "duration": 0.08235290000000361,
            "durationTicks": 14,
            "midi": 44,
            "name": "G#2",
            "ticks": 6930,
            "time": 40.7646855,
            "velocity": 0.8267716535433071
          },
          {
            "duration": 0.08235290000000361,
            "durationTicks": 14,
            "midi": 42,
            "name": "F#2",
            "ticks": 6960,
            "time": 40.941156,
            "velocity": 0.8267716535433071
          },
          {
            "duration": 0.08235290000000361,
            "durationTicks": 14,
            "midi": 42,
            "name": "F#2",
            "ticks": 7020,
            "time": 41.294097,
            "velocity": 0.8267716535433071
          },
          {
            "duration": 0.08235289999999651,
            "durationTicks": 14,
            "midi": 44,
            "name": "G#2",
            "ticks": 7050,
            "time": 41.4705675,
            "velocity": 0.8267716535433071
          },
          {
            "duration": 0.08235289999999651,
            "durationTicks": 14,
            "midi": 42,
            "name": "F#2",
            "ticks": 7080,
            "time": 41.647038,
            "velocity": 0.8267716535433071
          },
          {
            "duration": 0.08235289999999651,
            "durationTicks": 14,
            "midi": 42,
            "name": "F#2",
            "ticks": 7140,
            "time": 41.999979,
            "velocity": 0.8267716535433071
          },
          {
            "duration": 0.08235289999999651,
            "durationTicks": 14,
            "midi": 44,
            "name": "G#2",
            "ticks": 7170,
            "time": 42.176449500000004,
            "velocity": 0.8267716535433071
          },
          {
            "duration": 0.08235290000000361,
            "durationTicks": 14,
            "midi": 42,
            "name": "F#2",
            "ticks": 7200,
            "time": 42.35292,
            "velocity": 0.8267716535433071
          },
          {
            "duration": 0.08235290000000361,
            "durationTicks": 14,
            "midi": 42,
            "name": "F#2",
            "ticks": 7260,
            "time": 42.705861,
            "velocity": 0.8267716535433071
          },
          {
            "duration": 0.08235290000000361,
            "durationTicks": 14,
            "midi": 44,
            "name": "G#2",
            "ticks": 7290,
            "time": 42.8823315,
            "velocity": 0.8267716535433071
          },
          {
            "duration": 0.08235290000000361,
            "durationTicks": 14,
            "midi": 46,
            "name": "A#2",
            "ticks": 7320,
            "time": 43.058802,
            "velocity": 0.8267716535433071
          },
          {
            "duration": 0.08235289999999651,
            "durationTicks": 14,
            "midi": 42,
            "name": "F#2",
            "ticks": 7380,
            "time": 43.411743,
            "velocity": 0.8267716535433071
          },
          {
            "duration": 0.08235289999999651,
            "durationTicks": 14,
            "midi": 44,
            "name": "G#2",
            "ticks": 7410,
            "time": 43.5882135,
            "velocity": 0.8267716535433071
          },
          {
            "duration": 0.08235289999999651,
            "durationTicks": 14,
            "midi": 42,
            "name": "F#2",
            "ticks": 7440,
            "time": 43.764684,
            "velocity": 0.8267716535433071
          },
          {
            "duration": 0.08235289999999651,
            "durationTicks": 14,
            "midi": 42,
            "name": "F#2",
            "ticks": 7500,
            "time": 44.117625000000004,
            "velocity": 0.8267716535433071
          },
          {
            "duration": 0.08235290000000361,
            "durationTicks": 14,
            "midi": 44,
            "name": "G#2",
            "ticks": 7530,
            "time": 44.2940955,
            "velocity": 0.8267716535433071
          },
          {
            "duration": 0.08235290000000361,
            "durationTicks": 14,
            "midi": 42,
            "name": "F#2",
            "ticks": 7560,
            "time": 44.470566,
            "velocity": 0.8267716535433071
          },
          {
            "duration": 0.08235290000000361,
            "durationTicks": 14,
            "midi": 42,
            "name": "F#2",
            "ticks": 7620,
            "time": 44.823507,
            "velocity": 0.8267716535433071
          },
          {
            "duration": 0.08235290000000361,
            "durationTicks": 14,
            "midi": 44,
            "name": "G#2",
            "ticks": 7650,
            "time": 44.9999775,
            "velocity": 0.8267716535433071
          },
          {
            "duration": 0.08235289999999651,
            "durationTicks": 14,
            "midi": 42,
            "name": "F#2",
            "ticks": 7680,
            "time": 45.176448,
            "velocity": 0.8267716535433071
          },
          {
            "duration": 0.08235289999999651,
            "durationTicks": 14,
            "midi": 42,
            "name": "F#2",
            "ticks": 7740,
            "time": 45.529389,
            "velocity": 0.8267716535433071
          },
          {
            "duration": 0.08235289999999651,
            "durationTicks": 14,
            "midi": 44,
            "name": "G#2",
            "ticks": 7770,
            "time": 45.7058595,
            "velocity": 0.8267716535433071
          },
          {
            "duration": 0.0823528999999894,
            "durationTicks": 14,
            "midi": 42,
            "name": "F#2",
            "ticks": 7800,
            "time": 45.88233,
            "velocity": 0.8267716535433071
          },
          {
            "duration": 0.08235289999999651,
            "durationTicks": 14,
            "midi": 42,
            "name": "F#2",
            "ticks": 7860,
            "time": 46.235271,
            "velocity": 0.8267716535433071
          },
          {
            "duration": 0.08235289999999651,
            "durationTicks": 14,
            "midi": 44,
            "name": "G#2",
            "ticks": 7890,
            "time": 46.4117415,
            "velocity": 0.8267716535433071
          },
          {
            "duration": 0.08235289999999651,
            "durationTicks": 14,
            "midi": 42,
            "name": "F#2",
            "ticks": 7920,
            "time": 46.588212,
            "velocity": 0.8267716535433071
          },
          {
            "duration": 0.08235289999999651,
            "durationTicks": 14,
            "midi": 42,
            "name": "F#2",
            "ticks": 7980,
            "time": 46.941153,
            "velocity": 0.8267716535433071
          },
          {
            "duration": 0.08235289999999651,
            "durationTicks": 14,
            "midi": 46,
            "name": "A#2",
            "ticks": 8010,
            "time": 47.1176235,
            "velocity": 0.8267716535433071
          },
          {
            "duration": 0.08235289999999651,
            "durationTicks": 14,
            "midi": 42,
            "name": "F#2",
            "ticks": 8040,
            "time": 47.294094,
            "velocity": 0.8267716535433071
          },
          {
            "duration": 0.08235289999999651,
            "durationTicks": 14,
            "midi": 49,
            "name": "C#3",
            "ticks": 8070,
            "time": 47.4705645,
            "velocity": 0.8267716535433071
          },
          {
            "duration": 0.0823528999999894,
            "durationTicks": 14,
            "midi": 46,
            "name": "A#2",
            "ticks": 8160,
            "time": 47.999976000000004,
            "velocity": 0.8267716535433071
          },
          {
            "duration": 0.08235289999999651,
            "durationTicks": 14,
            "midi": 42,
            "name": "F#2",
            "ticks": 8220,
            "time": 48.352917,
            "velocity": 0.8267716535433071
          },
          {
            "duration": 0.08235289999999651,
            "durationTicks": 14,
            "midi": 44,
            "name": "G#2",
            "ticks": 8250,
            "time": 48.5293875,
            "velocity": 0.8267716535433071
          },
          {
            "duration": 0.08235289999999651,
            "durationTicks": 14,
            "midi": 46,
            "name": "A#2",
            "ticks": 8280,
            "time": 48.705858,
            "velocity": 0.8267716535433071
          },
          {
            "duration": 0.08235289999999651,
            "durationTicks": 14,
            "midi": 42,
            "name": "F#2",
            "ticks": 8340,
            "time": 49.058799,
            "velocity": 0.8267716535433071
          },
          {
            "duration": 0.08235289999999651,
            "durationTicks": 14,
            "midi": 44,
            "name": "G#2",
            "ticks": 8370,
            "time": 49.2352695,
            "velocity": 0.8267716535433071
          },
          {
            "duration": 0.08235289999999651,
            "durationTicks": 14,
            "midi": 42,
            "name": "F#2",
            "ticks": 8400,
            "time": 49.41174,
            "velocity": 0.8267716535433071
          },
          {
            "duration": 0.0823528999999894,
            "durationTicks": 14,
            "midi": 42,
            "name": "F#2",
            "ticks": 8460,
            "time": 49.764681,
            "velocity": 0.8267716535433071
          },
          {
            "duration": 0.0823528999999894,
            "durationTicks": 14,
            "midi": 44,
            "name": "G#2",
            "ticks": 8490,
            "time": 49.941151500000004,
            "velocity": 0.8267716535433071
          },
          {
            "duration": 0.08235289999999651,
            "durationTicks": 14,
            "midi": 42,
            "name": "F#2",
            "ticks": 8520,
            "time": 50.117622,
            "velocity": 0.8267716535433071
          },
          {
            "duration": 0.08235289999999651,
            "durationTicks": 14,
            "midi": 42,
            "name": "F#2",
            "ticks": 8580,
            "time": 50.470563,
            "velocity": 0.8267716535433071
          },
          {
            "duration": 0.08235289999999651,
            "durationTicks": 14,
            "midi": 44,
            "name": "G#2",
            "ticks": 8610,
            "time": 50.6470335,
            "velocity": 0.8267716535433071
          },
          {
            "duration": 0.08235289999999651,
            "durationTicks": 14,
            "midi": 42,
            "name": "F#2",
            "ticks": 8640,
            "time": 50.823504,
            "velocity": 0.8267716535433071
          },
          {
            "duration": 0.08235289999999651,
            "durationTicks": 14,
            "midi": 42,
            "name": "F#2",
            "ticks": 8700,
            "time": 51.176445,
            "velocity": 0.8267716535433071
          },
          {
            "duration": 0.08235289999999651,
            "durationTicks": 14,
            "midi": 44,
            "name": "G#2",
            "ticks": 8730,
            "time": 51.3529155,
            "velocity": 0.8267716535433071
          },
          {
            "duration": 0.08235289999999651,
            "durationTicks": 14,
            "midi": 46,
            "name": "A#2",
            "ticks": 8760,
            "time": 51.529386,
            "velocity": 0.8267716535433071
          },
          {
            "duration": 0.0823528999999894,
            "durationTicks": 14,
            "midi": 42,
            "name": "F#2",
            "ticks": 8820,
            "time": 51.882327000000004,
            "velocity": 0.8267716535433071
          },
          {
            "duration": 0.08235289999999651,
            "durationTicks": 14,
            "midi": 44,
            "name": "G#2",
            "ticks": 8850,
            "time": 52.0587975,
            "velocity": 0.8267716535433071
          },
          {
            "duration": 0.08235289999999651,
            "durationTicks": 14,
            "midi": 42,
            "name": "F#2",
            "ticks": 8880,
            "time": 52.235268,
            "velocity": 0.8267716535433071
          },
          {
            "duration": 0.08235289999999651,
            "durationTicks": 14,
            "midi": 42,
            "name": "F#2",
            "ticks": 8940,
            "time": 52.588209,
            "velocity": 0.8267716535433071
          },
          {
            "duration": 0.08235289999999651,
            "durationTicks": 14,
            "midi": 44,
            "name": "G#2",
            "ticks": 8970,
            "time": 52.7646795,
            "velocity": 0.8267716535433071
          },
          {
            "duration": 0.08235289999999651,
            "durationTicks": 14,
            "midi": 42,
            "name": "F#2",
            "ticks": 9000,
            "time": 52.94115,
            "velocity": 0.8267716535433071
          },
          {
            "duration": 0.08235289999999651,
            "durationTicks": 14,
            "midi": 42,
            "name": "F#2",
            "ticks": 9060,
            "time": 53.294091,
            "velocity": 0.8267716535433071
          },
          {
            "duration": 0.08235289999999651,
            "durationTicks": 14,
            "midi": 44,
            "name": "G#2",
            "ticks": 9090,
            "time": 53.4705615,
            "velocity": 0.8267716535433071
          },
          {
            "duration": 0.08235289999999651,
            "durationTicks": 14,
            "midi": 42,
            "name": "F#2",
            "ticks": 9120,
            "time": 53.647032,
            "velocity": 0.8267716535433071
          },
          {
            "duration": 0.0823528999999894,
            "durationTicks": 14,
            "midi": 42,
            "name": "F#2",
            "ticks": 9180,
            "time": 53.999973000000004,
            "velocity": 0.8267716535433071
          },
          {
            "duration": 0.08235289999999651,
            "durationTicks": 14,
            "midi": 44,
            "name": "G#2",
            "ticks": 9210,
            "time": 54.1764435,
            "velocity": 0.8267716535433071
          },
          {
            "duration": 0.08235289999999651,
            "durationTicks": 14,
            "midi": 46,
            "name": "A#2",
            "ticks": 9240,
            "time": 54.352914,
            "velocity": 0.8267716535433071
          },
          {
            "duration": 0.08235289999999651,
            "durationTicks": 14,
            "midi": 42,
            "name": "F#2",
            "ticks": 9300,
            "time": 54.705855,
            "velocity": 0.8267716535433071
          },
          {
            "duration": 0.08235289999999651,
            "durationTicks": 14,
            "midi": 44,
            "name": "G#2",
            "ticks": 9330,
            "time": 54.8823255,
            "velocity": 0.8267716535433071
          },
          {
            "duration": 0.08235289999999651,
            "durationTicks": 14,
            "midi": 42,
            "name": "F#2",
            "ticks": 9360,
            "time": 55.058796,
            "velocity": 0.8267716535433071
          },
          {
            "duration": 0.08235289999999651,
            "durationTicks": 14,
            "midi": 42,
            "name": "F#2",
            "ticks": 9420,
            "time": 55.411737,
            "velocity": 0.8267716535433071
          },
          {
            "duration": 0.08235289999999651,
            "durationTicks": 14,
            "midi": 44,
            "name": "G#2",
            "ticks": 9450,
            "time": 55.5882075,
            "velocity": 0.8267716535433071
          },
          {
            "duration": 0.0823528999999894,
            "durationTicks": 14,
            "midi": 42,
            "name": "F#2",
            "ticks": 9480,
            "time": 55.764678,
            "velocity": 0.8267716535433071
          },
          {
            "duration": 0.08235289999999651,
            "durationTicks": 14,
            "midi": 42,
            "name": "F#2",
            "ticks": 9540,
            "time": 56.117619,
            "velocity": 0.8267716535433071
          },
          {
            "duration": 0.08235289999999651,
            "durationTicks": 14,
            "midi": 44,
            "name": "G#2",
            "ticks": 9570,
            "time": 56.2940895,
            "velocity": 0.8267716535433071
          },
          {
            "duration": 0.08235289999999651,
            "durationTicks": 14,
            "midi": 42,
            "name": "F#2",
            "ticks": 9600,
            "time": 56.47056,
            "velocity": 0.8267716535433071
          },
          {
            "duration": 0.08235289999999651,
            "durationTicks": 14,
            "midi": 42,
            "name": "F#2",
            "ticks": 9660,
            "time": 56.823501,
            "velocity": 0.8267716535433071
          },
          {
            "duration": 0.08235289999999651,
            "durationTicks": 14,
            "midi": 44,
            "name": "G#2",
            "ticks": 9690,
            "time": 56.9999715,
            "velocity": 0.8267716535433071
          },
          {
            "duration": 0.08235289999999651,
            "durationTicks": 14,
            "midi": 46,
            "name": "A#2",
            "ticks": 9720,
            "time": 57.176442,
            "velocity": 0.8267716535433071
          },
          {
            "duration": 0.08235289999999651,
            "durationTicks": 14,
            "midi": 42,
            "name": "F#2",
            "ticks": 9780,
            "time": 57.529383,
            "velocity": 0.8267716535433071
          },
          {
            "duration": 0.0823528999999894,
            "durationTicks": 14,
            "midi": 44,
            "name": "G#2",
            "ticks": 9810,
            "time": 57.7058535,
            "velocity": 0.8267716535433071
          },
          {
            "duration": 0.0823528999999894,
            "durationTicks": 14,
            "midi": 42,
            "name": "F#2",
            "ticks": 9840,
            "time": 57.882324000000004,
            "velocity": 0.8267716535433071
          },
          {
            "duration": 0.08235289999999651,
            "durationTicks": 14,
            "midi": 42,
            "name": "F#2",
            "ticks": 9900,
            "time": 58.235265,
            "velocity": 0.8267716535433071
          },
          {
            "duration": 0.08235289999999651,
            "durationTicks": 14,
            "midi": 44,
            "name": "G#2",
            "ticks": 9930,
            "time": 58.4117355,
            "velocity": 0.8267716535433071
          },
          {
            "duration": 0.08235289999999651,
            "durationTicks": 14,
            "midi": 42,
            "name": "F#2",
            "ticks": 9960,
            "time": 58.588206,
            "velocity": 0.8267716535433071
          },
          {
            "duration": 0.08235289999999651,
            "durationTicks": 14,
            "midi": 42,
            "name": "F#2",
            "ticks": 10020,
            "time": 58.941147,
            "velocity": 0.8267716535433071
          },
          {
            "duration": 0.08235289999999651,
            "durationTicks": 14,
            "midi": 44,
            "name": "G#2",
            "ticks": 10050,
            "time": 59.1176175,
            "velocity": 0.8267716535433071
          },
          {
            "duration": 0.08235289999999651,
            "durationTicks": 14,
            "midi": 42,
            "name": "F#2",
            "ticks": 10080,
            "time": 59.294088,
            "velocity": 0.8267716535433071
          },
          {
            "duration": 0.0823528999999894,
            "durationTicks": 14,
            "midi": 42,
            "name": "F#2",
            "ticks": 10140,
            "time": 59.647029,
            "velocity": 0.8267716535433071
          },
          {
            "duration": 0.0823528999999894,
            "durationTicks": 14,
            "midi": 44,
            "name": "G#2",
            "ticks": 10170,
            "time": 59.823499500000004,
            "velocity": 0.8267716535433071
          },
          {
            "duration": 0.08235289999999651,
            "durationTicks": 14,
            "midi": 46,
            "name": "A#2",
            "ticks": 10200,
            "time": 59.99997,
            "velocity": 0.8267716535433071
          },
          {
            "duration": 0.08235289999999651,
            "durationTicks": 14,
            "midi": 42,
            "name": "F#2",
            "ticks": 10260,
            "time": 60.352911,
            "velocity": 0.8267716535433071
          },
          {
            "duration": 0.08235289999999651,
            "durationTicks": 14,
            "midi": 44,
            "name": "G#2",
            "ticks": 10290,
            "time": 60.5293815,
            "velocity": 0.8267716535433071
          },
          {
            "duration": 0.08235289999999651,
            "durationTicks": 14,
            "midi": 42,
            "name": "F#2",
            "ticks": 10320,
            "time": 60.705852,
            "velocity": 0.8267716535433071
          },
          {
            "duration": 0.08235289999999651,
            "durationTicks": 14,
            "midi": 42,
            "name": "F#2",
            "ticks": 10380,
            "time": 61.058793,
            "velocity": 0.8267716535433071
          },
          {
            "duration": 0.08235289999999651,
            "durationTicks": 14,
            "midi": 44,
            "name": "G#2",
            "ticks": 10410,
            "time": 61.2352635,
            "velocity": 0.8267716535433071
          },
          {
            "duration": 0.08235289999999651,
            "durationTicks": 14,
            "midi": 42,
            "name": "F#2",
            "ticks": 10440,
            "time": 61.411734,
            "velocity": 0.8267716535433071
          },
          {
            "duration": 0.0823528999999894,
            "durationTicks": 14,
            "midi": 42,
            "name": "F#2",
            "ticks": 10500,
            "time": 61.764675000000004,
            "velocity": 0.8267716535433071
          },
          {
            "duration": 0.08235289999999651,
            "durationTicks": 14,
            "midi": 44,
            "name": "G#2",
            "ticks": 10530,
            "time": 61.9411455,
            "velocity": 0.8267716535433071
          },
          {
            "duration": 0.08235289999999651,
            "durationTicks": 14,
            "midi": 42,
            "name": "F#2",
            "ticks": 10560,
            "time": 62.117616,
            "velocity": 0.8267716535433071
          },
          {
            "duration": 0.08235289999999651,
            "durationTicks": 14,
            "midi": 42,
            "name": "F#2",
            "ticks": 10620,
            "time": 62.470557,
            "velocity": 0.8267716535433071
          },
          {
            "duration": 0.08235289999999651,
            "durationTicks": 14,
            "midi": 44,
            "name": "G#2",
            "ticks": 10650,
            "time": 62.6470275,
            "velocity": 0.8267716535433071
          },
          {
            "duration": 0.08235289999999651,
            "durationTicks": 14,
            "midi": 46,
            "name": "A#2",
            "ticks": 10680,
            "time": 62.823498,
            "velocity": 0.8267716535433071
          },
          {
            "duration": 0.08235289999999651,
            "durationTicks": 14,
            "midi": 42,
            "name": "F#2",
            "ticks": 10740,
            "time": 63.176439,
            "velocity": 0.8267716535433071
          },
          {
            "duration": 0.08235289999999651,
            "durationTicks": 14,
            "midi": 44,
            "name": "G#2",
            "ticks": 10770,
            "time": 63.3529095,
            "velocity": 0.8267716535433071
          },
          {
            "duration": 0.0823528999999894,
            "durationTicks": 14,
            "midi": 42,
            "name": "F#2",
            "ticks": 10800,
            "time": 63.52938,
            "velocity": 0.8267716535433071
          },
          {
            "duration": 0.08235289999999651,
            "durationTicks": 14,
            "midi": 42,
            "name": "F#2",
            "ticks": 10860,
            "time": 63.882321,
            "velocity": 0.8267716535433071
          },
          {
            "duration": 0.08235290000000361,
            "durationTicks": 14,
            "midi": 44,
            "name": "G#2",
            "ticks": 10890,
            "time": 64.0587915,
            "velocity": 0.8267716535433071
          },
          {
            "duration": 0.0823528999999894,
            "durationTicks": 14,
            "midi": 42,
            "name": "F#2",
            "ticks": 10920,
            "time": 64.235262,
            "velocity": 0.8267716535433071
          },
          {
            "duration": 0.0823528999999894,
            "durationTicks": 14,
            "midi": 42,
            "name": "F#2",
            "ticks": 10980,
            "time": 64.58820300000001,
            "velocity": 0.8267716535433071
          },
          {
            "duration": 0.0823528999999894,
            "durationTicks": 14,
            "midi": 44,
            "name": "G#2",
            "ticks": 11010,
            "time": 64.7646735,
            "velocity": 0.8267716535433071
          },
          {
            "duration": 0.08235290000000361,
            "durationTicks": 14,
            "midi": 42,
            "name": "F#2",
            "ticks": 11040,
            "time": 64.941144,
            "velocity": 0.8267716535433071
          },
          {
            "duration": 0.08235290000000361,
            "durationTicks": 14,
            "midi": 42,
            "name": "F#2",
            "ticks": 11100,
            "time": 65.294085,
            "velocity": 0.8267716535433071
          },
          {
            "duration": 0.0823528999999894,
            "durationTicks": 14,
            "midi": 44,
            "name": "G#2",
            "ticks": 11130,
            "time": 65.4705555,
            "velocity": 0.8267716535433071
          },
          {
            "duration": 0.08235290000000361,
            "durationTicks": 14,
            "midi": 46,
            "name": "A#2",
            "ticks": 11160,
            "time": 65.647026,
            "velocity": 0.8267716535433071
          },
          {
            "duration": 0.08235290000000361,
            "durationTicks": 14,
            "midi": 42,
            "name": "F#2",
            "ticks": 11220,
            "time": 65.999967,
            "velocity": 0.8267716535433071
          },
          {
            "duration": 0.0823528999999894,
            "durationTicks": 14,
            "midi": 44,
            "name": "G#2",
            "ticks": 11250,
            "time": 66.1764375,
            "velocity": 0.8267716535433071
          },
          {
            "duration": 0.08235290000000361,
            "durationTicks": 14,
            "midi": 42,
            "name": "F#2",
            "ticks": 11280,
            "time": 66.352908,
            "velocity": 0.8267716535433071
          },
          {
            "duration": 0.0823528999999894,
            "durationTicks": 14,
            "midi": 42,
            "name": "F#2",
            "ticks": 11340,
            "time": 66.705849,
            "velocity": 0.8267716535433071
          },
          {
            "duration": 0.08235290000000361,
            "durationTicks": 14,
            "midi": 44,
            "name": "G#2",
            "ticks": 11370,
            "time": 66.8823195,
            "velocity": 0.8267716535433071
          },
          {
            "duration": 0.0823528999999894,
            "durationTicks": 14,
            "midi": 42,
            "name": "F#2",
            "ticks": 11400,
            "time": 67.05879,
            "velocity": 0.8267716535433071
          },
          {
            "duration": 0.0823528999999894,
            "durationTicks": 14,
            "midi": 42,
            "name": "F#2",
            "ticks": 11460,
            "time": 67.411731,
            "velocity": 0.8267716535433071
          },
          {
            "duration": 0.08235290000000361,
            "durationTicks": 14,
            "midi": 44,
            "name": "G#2",
            "ticks": 11490,
            "time": 67.5882015,
            "velocity": 0.8267716535433071
          },
          {
            "duration": 0.0823528999999894,
            "durationTicks": 14,
            "midi": 42,
            "name": "F#2",
            "ticks": 11520,
            "time": 67.764672,
            "velocity": 0.8267716535433071
          },
          {
            "duration": 0.0823528999999894,
            "durationTicks": 14,
            "midi": 42,
            "name": "F#2",
            "ticks": 11580,
            "time": 68.117613,
            "velocity": 0.8267716535433071
          },
          {
            "duration": 0.08235290000000361,
            "durationTicks": 14,
            "midi": 44,
            "name": "G#2",
            "ticks": 11610,
            "time": 68.2940835,
            "velocity": 0.8267716535433071
          },
          {
            "duration": 0.0823528999999894,
            "durationTicks": 14,
            "midi": 42,
            "name": "F#2",
            "ticks": 11640,
            "time": 68.470554,
            "velocity": 0.8267716535433071
          },
          {
            "duration": 0.08235290000000361,
            "durationTicks": 14,
            "midi": 42,
            "name": "F#2",
            "ticks": 11700,
            "time": 68.823495,
            "velocity": 0.8267716535433071
          },
          {
            "duration": 0.0823528999999894,
            "durationTicks": 14,
            "midi": 44,
            "name": "G#2",
            "ticks": 11730,
            "time": 68.9999655,
            "velocity": 0.8267716535433071
          },
          {
            "duration": 0.08235290000000361,
            "durationTicks": 14,
            "midi": 42,
            "name": "F#2",
            "ticks": 11760,
            "time": 69.176436,
            "velocity": 0.8267716535433071
          },
          {
            "duration": 0.08235290000000361,
            "durationTicks": 14,
            "midi": 46,
            "name": "A#2",
            "ticks": 11820,
            "time": 69.529377,
            "velocity": 0.8267716535433071
          },
          {
            "duration": 0.08235290000000361,
            "durationTicks": 14,
            "midi": 42,
            "name": "F#2",
            "ticks": 11880,
            "time": 69.882318,
            "velocity": 0.8267716535433071
          },
          {
            "duration": 0.08235290000000361,
            "durationTicks": 14,
            "midi": 44,
            "name": "G#2",
            "ticks": 11940,
            "time": 70.235259,
            "velocity": 0.8267716535433071
          },
          {
            "duration": 0.0823528999999894,
            "durationTicks": 14,
            "midi": 57,
            "name": "A3",
            "ticks": 12000,
            "time": 70.5882,
            "velocity": 0.8267716535433071
          },
          {
            "duration": 0.0823528999999894,
            "durationTicks": 14,
            "midi": 42,
            "name": "F#2",
            "ticks": 12060,
            "time": 70.941141,
            "velocity": 0.8267716535433071
          },
          {
            "duration": 0.08235290000000361,
            "durationTicks": 14,
            "midi": 42,
            "name": "F#2",
            "ticks": 12090,
            "time": 71.1176115,
            "velocity": 0.8267716535433071
          },
          {
            "duration": 0.0823528999999894,
            "durationTicks": 14,
            "midi": 46,
            "name": "A#2",
            "ticks": 12120,
            "time": 71.294082,
            "velocity": 0.8267716535433071
          },
          {
            "duration": 0.0823528999999894,
            "durationTicks": 14,
            "midi": 42,
            "name": "F#2",
            "ticks": 12180,
            "time": 71.647023,
            "velocity": 0.8267716535433071
          },
          {
            "duration": 0.08235290000000361,
            "durationTicks": 14,
            "midi": 42,
            "name": "F#2",
            "ticks": 12210,
            "time": 71.8234935,
            "velocity": 0.8267716535433071
          },
          {
            "duration": 0.0823528999999894,
            "durationTicks": 14,
            "midi": 46,
            "name": "A#2",
            "ticks": 12240,
            "time": 71.999964,
            "velocity": 0.8267716535433071
          },
          {
            "duration": 0.0823528999999894,
            "durationTicks": 14,
            "midi": 42,
            "name": "F#2",
            "ticks": 12300,
            "time": 72.352905,
            "velocity": 0.8267716535433071
          },
          {
            "duration": 0.0823528999999894,
            "durationTicks": 14,
            "midi": 42,
            "name": "F#2",
            "ticks": 12330,
            "time": 72.5293755,
            "velocity": 0.8267716535433071
          },
          {
            "duration": 0.08235290000000361,
            "durationTicks": 14,
            "midi": 46,
            "name": "A#2",
            "ticks": 12360,
            "time": 72.705846,
            "velocity": 0.8267716535433071
          },
          {
            "duration": 0.08235290000000361,
            "durationTicks": 14,
            "midi": 42,
            "name": "F#2",
            "ticks": 12420,
            "time": 73.058787,
            "velocity": 0.8267716535433071
          },
          {
            "duration": 0.0823528999999894,
            "durationTicks": 14,
            "midi": 42,
            "name": "F#2",
            "ticks": 12450,
            "time": 73.2352575,
            "velocity": 0.8267716535433071
          },
          {
            "duration": 0.08235290000000361,
            "durationTicks": 14,
            "midi": 46,
            "name": "A#2",
            "ticks": 12480,
            "time": 73.411728,
            "velocity": 0.8267716535433071
          },
          {
            "duration": 0.08235290000000361,
            "durationTicks": 14,
            "midi": 42,
            "name": "F#2",
            "ticks": 12540,
            "time": 73.764669,
            "velocity": 0.8267716535433071
          },
          {
            "duration": 0.0823528999999894,
            "durationTicks": 14,
            "midi": 42,
            "name": "F#2",
            "ticks": 12570,
            "time": 73.9411395,
            "velocity": 0.8267716535433071
          },
          {
            "duration": 0.08235290000000361,
            "durationTicks": 14,
            "midi": 46,
            "name": "A#2",
            "ticks": 12600,
            "time": 74.11761,
            "velocity": 0.8267716535433071
          },
          {
            "duration": 0.0823528999999894,
            "durationTicks": 14,
            "midi": 42,
            "name": "F#2",
            "ticks": 12660,
            "time": 74.470551,
            "velocity": 0.8267716535433071
          },
          {
            "duration": 0.08235290000000361,
            "durationTicks": 14,
            "midi": 42,
            "name": "F#2",
            "ticks": 12690,
            "time": 74.6470215,
            "velocity": 0.8267716535433071
          },
          {
            "duration": 0.0823528999999894,
            "durationTicks": 14,
            "midi": 46,
            "name": "A#2",
            "ticks": 12720,
            "time": 74.823492,
            "velocity": 0.8267716535433071
          },
          {
            "duration": 0.0823528999999894,
            "durationTicks": 14,
            "midi": 42,
            "name": "F#2",
            "ticks": 12780,
            "time": 75.176433,
            "velocity": 0.8267716535433071
          },
          {
            "duration": 0.08235290000000361,
            "durationTicks": 14,
            "midi": 42,
            "name": "F#2",
            "ticks": 12810,
            "time": 75.3529035,
            "velocity": 0.8267716535433071
          },
          {
            "duration": 0.0823528999999894,
            "durationTicks": 14,
            "midi": 46,
            "name": "A#2",
            "ticks": 12840,
            "time": 75.529374,
            "velocity": 0.8267716535433071
          },
          {
            "duration": 0.0823528999999894,
            "durationTicks": 14,
            "midi": 42,
            "name": "F#2",
            "ticks": 12900,
            "time": 75.882315,
            "velocity": 0.8267716535433071
          },
          {
            "duration": 0.08235290000000361,
            "durationTicks": 14,
            "midi": 42,
            "name": "F#2",
            "ticks": 12930,
            "time": 76.0587855,
            "velocity": 0.8267716535433071
          },
          {
            "duration": 0.0823528999999894,
            "durationTicks": 14,
            "midi": 46,
            "name": "A#2",
            "ticks": 12960,
            "time": 76.235256,
            "velocity": 0.8267716535433071
          },
          {
            "duration": 0.0823528999999894,
            "durationTicks": 14,
            "midi": 42,
            "name": "F#2",
            "ticks": 13020,
            "time": 76.58819700000001,
            "velocity": 0.8267716535433071
          },
          {
            "duration": 0.0823528999999894,
            "durationTicks": 14,
            "midi": 42,
            "name": "F#2",
            "ticks": 13050,
            "time": 76.7646675,
            "velocity": 0.8267716535433071
          },
          {
            "duration": 0.08235290000000361,
            "durationTicks": 14,
            "midi": 46,
            "name": "A#2",
            "ticks": 13080,
            "time": 76.941138,
            "velocity": 0.8267716535433071
          },
          {
            "duration": 0.08235290000000361,
            "durationTicks": 14,
            "midi": 42,
            "name": "F#2",
            "ticks": 13140,
            "time": 77.294079,
            "velocity": 0.8267716535433071
          },
          {
            "duration": 0.0823528999999894,
            "durationTicks": 14,
            "midi": 42,
            "name": "F#2",
            "ticks": 13170,
            "time": 77.4705495,
            "velocity": 0.8267716535433071
          },
          {
            "duration": 0.08235290000000361,
            "durationTicks": 14,
            "midi": 46,
            "name": "A#2",
            "ticks": 13200,
            "time": 77.64702,
            "velocity": 0.8267716535433071
          },
          {
            "duration": 0.08235290000000361,
            "durationTicks": 14,
            "midi": 42,
            "name": "F#2",
            "ticks": 13260,
            "time": 77.999961,
            "velocity": 0.8267716535433071
          },
          {
            "duration": 0.0823528999999894,
            "durationTicks": 14,
            "midi": 42,
            "name": "F#2",
            "ticks": 13290,
            "time": 78.1764315,
            "velocity": 0.8267716535433071
          },
          {
            "duration": 0.0823528999999894,
            "durationTicks": 14,
            "midi": 46,
            "name": "A#2",
            "ticks": 13320,
            "time": 78.352902,
            "velocity": 0.8267716535433071
          },
          {
            "duration": 0.0823528999999894,
            "durationTicks": 14,
            "midi": 42,
            "name": "F#2",
            "ticks": 13380,
            "time": 78.705843,
            "velocity": 0.8267716535433071
          },
          {
            "duration": 0.08235290000000361,
            "durationTicks": 14,
            "midi": 42,
            "name": "F#2",
            "ticks": 13410,
            "time": 78.8823135,
            "velocity": 0.8267716535433071
          },
          {
            "duration": 0.0823528999999894,
            "durationTicks": 14,
            "midi": 46,
            "name": "A#2",
            "ticks": 13440,
            "time": 79.058784,
            "velocity": 0.8267716535433071
          },
          {
            "duration": 0.0823528999999894,
            "durationTicks": 14,
            "midi": 42,
            "name": "F#2",
            "ticks": 13500,
            "time": 79.411725,
            "velocity": 0.8267716535433071
          },
          {
            "duration": 0.08235290000000361,
            "durationTicks": 14,
            "midi": 42,
            "name": "F#2",
            "ticks": 13530,
            "time": 79.5881955,
            "velocity": 0.8267716535433071
          },
          {
            "duration": 0.0823528999999894,
            "durationTicks": 14,
            "midi": 46,
            "name": "A#2",
            "ticks": 13560,
            "time": 79.764666,
            "velocity": 0.8267716535433071
          },
          {
            "duration": 0.0823528999999894,
            "durationTicks": 14,
            "midi": 42,
            "name": "F#2",
            "ticks": 13620,
            "time": 80.117607,
            "velocity": 0.8267716535433071
          },
          {
            "duration": 0.0823528999999894,
            "durationTicks": 14,
            "midi": 42,
            "name": "F#2",
            "ticks": 13650,
            "time": 80.2940775,
            "velocity": 0.8267716535433071
          },
          {
            "duration": 0.0823528999999894,
            "durationTicks": 14,
            "midi": 46,
            "name": "A#2",
            "ticks": 13680,
            "time": 80.47054800000001,
            "velocity": 0.8267716535433071
          },
          {
            "duration": 0.08235290000000361,
            "durationTicks": 14,
            "midi": 42,
            "name": "F#2",
            "ticks": 13740,
            "time": 80.823489,
            "velocity": 0.8267716535433071
          },
          {
            "duration": 0.0823528999999894,
            "durationTicks": 14,
            "midi": 42,
            "name": "F#2",
            "ticks": 13770,
            "time": 80.9999595,
            "velocity": 0.8267716535433071
          },
          {
            "duration": 0.08235290000000361,
            "durationTicks": 14,
            "midi": 46,
            "name": "A#2",
            "ticks": 13800,
            "time": 81.17643,
            "velocity": 0.8267716535433071
          },
          {
            "duration": 0.08235290000000361,
            "durationTicks": 14,
            "midi": 42,
            "name": "F#2",
            "ticks": 13860,
            "time": 81.529371,
            "velocity": 0.8267716535433071
          },
          {
            "duration": 0.0823528999999894,
            "durationTicks": 14,
            "midi": 42,
            "name": "F#2",
            "ticks": 13890,
            "time": 81.7058415,
            "velocity": 0.8267716535433071
          },
          {
            "duration": 0.08235290000000361,
            "durationTicks": 14,
            "midi": 46,
            "name": "A#2",
            "ticks": 13920,
            "time": 81.882312,
            "velocity": 0.8267716535433071
          },
          {
            "duration": 0.0823528999999894,
            "durationTicks": 14,
            "midi": 42,
            "name": "F#2",
            "ticks": 13980,
            "time": 82.235253,
            "velocity": 0.8267716535433071
          },
          {
            "duration": 0.0823528999999894,
            "durationTicks": 14,
            "midi": 42,
            "name": "F#2",
            "ticks": 14010,
            "time": 82.41172350000001,
            "velocity": 0.8267716535433071
          },
          {
            "duration": 0.0823528999999894,
            "durationTicks": 14,
            "midi": 46,
            "name": "A#2",
            "ticks": 14040,
            "time": 82.588194,
            "velocity": 0.8267716535433071
          },
          {
            "duration": 0.0823528999999894,
            "durationTicks": 14,
            "midi": 42,
            "name": "F#2",
            "ticks": 14100,
            "time": 82.941135,
            "velocity": 0.8267716535433071
          },
          {
            "duration": 0.08235290000000361,
            "durationTicks": 14,
            "midi": 42,
            "name": "F#2",
            "ticks": 14130,
            "time": 83.1176055,
            "velocity": 0.8267716535433071
          },
          {
            "duration": 0.0823528999999894,
            "durationTicks": 14,
            "midi": 46,
            "name": "A#2",
            "ticks": 14160,
            "time": 83.294076,
            "velocity": 0.8267716535433071
          },
          {
            "duration": 0.0823528999999894,
            "durationTicks": 14,
            "midi": 42,
            "name": "F#2",
            "ticks": 14220,
            "time": 83.647017,
            "velocity": 0.8267716535433071
          },
          {
            "duration": 0.08235290000000361,
            "durationTicks": 14,
            "midi": 42,
            "name": "F#2",
            "ticks": 14250,
            "time": 83.8234875,
            "velocity": 0.8267716535433071
          },
          {
            "duration": 0.0823528999999894,
            "durationTicks": 14,
            "midi": 46,
            "name": "A#2",
            "ticks": 14280,
            "time": 83.999958,
            "velocity": 0.8267716535433071
          },
          {
            "duration": 0.0823528999999894,
            "durationTicks": 14,
            "midi": 42,
            "name": "F#2",
            "ticks": 14340,
            "time": 84.35289900000001,
            "velocity": 0.8267716535433071
          },
          {
            "duration": 0.0823528999999894,
            "durationTicks": 14,
            "midi": 42,
            "name": "F#2",
            "ticks": 14370,
            "time": 84.5293695,
            "velocity": 0.8267716535433071
          },
          {
            "duration": 0.08235290000000361,
            "durationTicks": 14,
            "midi": 46,
            "name": "A#2",
            "ticks": 14400,
            "time": 84.70584,
            "velocity": 0.8267716535433071
          },
          {
            "duration": 0.08235290000000361,
            "durationTicks": 14,
            "midi": 42,
            "name": "F#2",
            "ticks": 14460,
            "time": 85.058781,
            "velocity": 0.8267716535433071
          },
          {
            "duration": 0.0823528999999894,
            "durationTicks": 14,
            "midi": 42,
            "name": "F#2",
            "ticks": 14490,
            "time": 85.2352515,
            "velocity": 0.8267716535433071
          },
          {
            "duration": 0.08235290000000361,
            "durationTicks": 14,
            "midi": 46,
            "name": "A#2",
            "ticks": 14520,
            "time": 85.411722,
            "velocity": 0.8267716535433071
          },
          {
            "duration": 0.08235290000000361,
            "durationTicks": 14,
            "midi": 42,
            "name": "F#2",
            "ticks": 14580,
            "time": 85.764663,
            "velocity": 0.8267716535433071
          },
          {
            "duration": 0.0823528999999894,
            "durationTicks": 14,
            "midi": 42,
            "name": "F#2",
            "ticks": 14610,
            "time": 85.9411335,
            "velocity": 0.8267716535433071
          },
          {
            "duration": 0.0823528999999894,
            "durationTicks": 14,
            "midi": 46,
            "name": "A#2",
            "ticks": 14640,
            "time": 86.117604,
            "velocity": 0.8267716535433071
          },
          {
            "duration": 0.0823528999999894,
            "durationTicks": 14,
            "midi": 42,
            "name": "F#2",
            "ticks": 14700,
            "time": 86.470545,
            "velocity": 0.8267716535433071
          },
          {
            "duration": 0.08235290000000361,
            "durationTicks": 14,
            "midi": 42,
            "name": "F#2",
            "ticks": 14730,
            "time": 86.6470155,
            "velocity": 0.8267716535433071
          },
          {
            "duration": 0.0823528999999894,
            "durationTicks": 14,
            "midi": 46,
            "name": "A#2",
            "ticks": 14760,
            "time": 86.823486,
            "velocity": 0.8267716535433071
          },
          {
            "duration": 0.0823528999999894,
            "durationTicks": 14,
            "midi": 42,
            "name": "F#2",
            "ticks": 14820,
            "time": 87.176427,
            "velocity": 0.8267716535433071
          },
          {
            "duration": 0.08235290000000361,
            "durationTicks": 14,
            "midi": 42,
            "name": "F#2",
            "ticks": 14850,
            "time": 87.3528975,
            "velocity": 0.8267716535433071
          },
          {
            "duration": 0.0823528999999894,
            "durationTicks": 14,
            "midi": 46,
            "name": "A#2",
            "ticks": 14880,
            "time": 87.529368,
            "velocity": 0.8267716535433071
          },
          {
            "duration": 0.0823528999999894,
            "durationTicks": 14,
            "midi": 42,
            "name": "F#2",
            "ticks": 14940,
            "time": 87.882309,
            "velocity": 0.8267716535433071
          },
          {
            "duration": 0.08235290000000361,
            "durationTicks": 14,
            "midi": 42,
            "name": "F#2",
            "ticks": 14970,
            "time": 88.0587795,
            "velocity": 0.8267716535433071
          },
          {
            "duration": 0.0823528999999894,
            "durationTicks": 14,
            "midi": 46,
            "name": "A#2",
            "ticks": 15000,
            "time": 88.23525000000001,
            "velocity": 0.8267716535433071
          },
          {
            "duration": 0.08235290000000361,
            "durationTicks": 14,
            "midi": 42,
            "name": "F#2",
            "ticks": 15060,
            "time": 88.588191,
            "velocity": 0.8267716535433071
          },
          {
            "duration": 0.0823528999999894,
            "durationTicks": 14,
            "midi": 42,
            "name": "F#2",
            "ticks": 15090,
            "time": 88.7646615,
            "velocity": 0.8267716535433071
          },
          {
            "duration": 0.08235290000000361,
            "durationTicks": 14,
            "midi": 46,
            "name": "A#2",
            "ticks": 15120,
            "time": 88.941132,
            "velocity": 0.8267716535433071
          },
          {
            "duration": 0.08235290000000361,
            "durationTicks": 14,
            "midi": 42,
            "name": "F#2",
            "ticks": 15180,
            "time": 89.294073,
            "velocity": 0.8267716535433071
          },
          {
            "duration": 0.0823528999999894,
            "durationTicks": 14,
            "midi": 42,
            "name": "F#2",
            "ticks": 15210,
            "time": 89.4705435,
            "velocity": 0.8267716535433071
          },
          {
            "duration": 0.08235290000000361,
            "durationTicks": 14,
            "midi": 46,
            "name": "A#2",
            "ticks": 15240,
            "time": 89.647014,
            "velocity": 0.8267716535433071
          },
          {
            "duration": 0.08235290000000361,
            "durationTicks": 14,
            "midi": 52,
            "name": "E3",
            "ticks": 15300,
            "time": 89.999955,
            "velocity": 0.8267716535433071
          },
          {
            "duration": 0.08235290000000361,
            "durationTicks": 14,
            "midi": 42,
            "name": "F#2",
            "ticks": 15360,
            "time": 90.352896,
            "velocity": 0.8267716535433071
          },
          {
            "duration": 0.08235290000000361,
            "durationTicks": 14,
            "midi": 42,
            "name": "F#2",
            "ticks": 15420,
            "time": 90.705837,
            "velocity": 0.8267716535433071
          },
          {
            "duration": 0.08235290000000361,
            "durationTicks": 14,
            "midi": 42,
            "name": "F#2",
            "ticks": 15480,
            "time": 91.058778,
            "velocity": 0.8267716535433071
          },
          {
            "duration": 0.08235290000000361,
            "durationTicks": 14,
            "midi": 42,
            "name": "F#2",
            "ticks": 15540,
            "time": 91.411719,
            "velocity": 0.8267716535433071
          },
          {
            "duration": 0.08235290000000361,
            "durationTicks": 14,
            "midi": 49,
            "name": "C#3",
            "ticks": 15570,
            "time": 91.5881895,
            "velocity": 0.8267716535433071
          },
          {
            "duration": 0.08235290000000361,
            "durationTicks": 14,
            "midi": 42,
            "name": "F#2",
            "ticks": 15600,
            "time": 91.76466,
            "velocity": 0.8267716535433071
          },
          {
            "duration": 0.08235290000000361,
            "durationTicks": 14,
            "midi": 42,
            "name": "F#2",
            "ticks": 15660,
            "time": 92.11760100000001,
            "velocity": 0.8267716535433071
          },
          {
            "duration": 0.08235290000001783,
            "durationTicks": 14,
            "midi": 42,
            "name": "F#2",
            "ticks": 15720,
            "time": 92.470542,
            "velocity": 0.8267716535433071
          },
          {
            "duration": 0.08235290000000361,
            "durationTicks": 14,
            "midi": 42,
            "name": "F#2",
            "ticks": 15780,
            "time": 92.823483,
            "velocity": 0.8267716535433071
          },
          {
            "duration": 0.08235290000000361,
            "durationTicks": 14,
            "midi": 57,
            "name": "A3",
            "ticks": 15840,
            "time": 93.176424,
            "velocity": 0.8267716535433071
          },
          {
            "duration": 0.08235290000000361,
            "durationTicks": 14,
            "midi": 42,
            "name": "F#2",
            "ticks": 15840,
            "time": 93.176424,
            "velocity": 0.8267716535433071
          },
          {
            "duration": 0.08235290000000361,
            "durationTicks": 14,
            "midi": 42,
            "name": "F#2",
            "ticks": 15900,
            "time": 93.529365,
            "velocity": 0.8267716535433071
          },
          {
            "duration": 0.08235290000000361,
            "durationTicks": 14,
            "midi": 44,
            "name": "G#2",
            "ticks": 15930,
            "time": 93.7058355,
            "velocity": 0.8267716535433071
          },
          {
            "duration": 0.08235290000000361,
            "durationTicks": 14,
            "midi": 53,
            "name": "F3",
            "ticks": 15960,
            "time": 93.882306,
            "velocity": 0.8267716535433071
          },
          {
            "duration": 0.08235290000000361,
            "durationTicks": 14,
            "midi": 42,
            "name": "F#2",
            "ticks": 15960,
            "time": 93.882306,
            "velocity": 0.8267716535433071
          },
          {
            "duration": 0.08235290000000361,
            "durationTicks": 14,
            "midi": 42,
            "name": "F#2",
            "ticks": 16020,
            "time": 94.235247,
            "velocity": 0.8267716535433071
          },
          {
            "duration": 0.08235290000001783,
            "durationTicks": 14,
            "midi": 44,
            "name": "G#2",
            "ticks": 16050,
            "time": 94.4117175,
            "velocity": 0.8267716535433071
          },
          {
            "duration": 0.08235290000000361,
            "durationTicks": 14,
            "midi": 53,
            "name": "F3",
            "ticks": 16080,
            "time": 94.588188,
            "velocity": 0.8267716535433071
          },
          {
            "duration": 0.08235290000000361,
            "durationTicks": 14,
            "midi": 42,
            "name": "F#2",
            "ticks": 16080,
            "time": 94.588188,
            "velocity": 0.8267716535433071
          },
          {
            "duration": 0.08235290000000361,
            "durationTicks": 14,
            "midi": 42,
            "name": "F#2",
            "ticks": 16140,
            "time": 94.941129,
            "velocity": 0.8267716535433071
          },
          {
            "duration": 0.08235290000000361,
            "durationTicks": 14,
            "midi": 44,
            "name": "G#2",
            "ticks": 16170,
            "time": 95.1175995,
            "velocity": 0.8267716535433071
          },
          {
            "duration": 0.08235290000000361,
            "durationTicks": 14,
            "midi": 55,
            "name": "G3",
            "ticks": 16200,
            "time": 95.29407,
            "velocity": 0.8267716535433071
          },
          {
            "duration": 0.08235290000000361,
            "durationTicks": 14,
            "midi": 53,
            "name": "F3",
            "ticks": 16200,
            "time": 95.29407,
            "velocity": 0.8267716535433071
          },
          {
            "duration": 0.08235290000000361,
            "durationTicks": 14,
            "midi": 42,
            "name": "F#2",
            "ticks": 16200,
            "time": 95.29407,
            "velocity": 0.8267716535433071
          },
          {
            "duration": 0.08235290000000361,
            "durationTicks": 14,
            "midi": 42,
            "name": "F#2",
            "ticks": 16260,
            "time": 95.647011,
            "velocity": 0.8267716535433071
          },
          {
            "duration": 0.08235290000000361,
            "durationTicks": 14,
            "midi": 44,
            "name": "G#2",
            "ticks": 16290,
            "time": 95.8234815,
            "velocity": 0.8267716535433071
          },
          {
            "duration": 0.08235290000000361,
            "durationTicks": 14,
            "midi": 53,
            "name": "F3",
            "ticks": 16320,
            "time": 95.99995200000001,
            "velocity": 0.8267716535433071
          },
          {
            "duration": 0.08235290000000361,
            "durationTicks": 14,
            "midi": 42,
            "name": "F#2",
            "ticks": 16320,
            "time": 95.99995200000001,
            "velocity": 0.8267716535433071
          },
          {
            "duration": 0.08235290000001783,
            "durationTicks": 14,
            "midi": 42,
            "name": "F#2",
            "ticks": 16380,
            "time": 96.352893,
            "velocity": 0.8267716535433071
          },
          {
            "duration": 0.08235290000000361,
            "durationTicks": 14,
            "midi": 44,
            "name": "G#2",
            "ticks": 16410,
            "time": 96.5293635,
            "velocity": 0.8267716535433071
          },
          {
            "duration": 0.08235290000001783,
            "durationTicks": 14,
            "midi": 42,
            "name": "F#2",
            "ticks": 16440,
            "time": 96.705834,
            "velocity": 0.8267716535433071
          },
          {
            "duration": 0.08235290000001783,
            "durationTicks": 14,
            "midi": 53,
            "name": "F3",
            "ticks": 16440,
            "time": 96.705834,
            "velocity": 0.8267716535433071
          },
          {
            "duration": 0.08235290000000361,
            "durationTicks": 14,
            "midi": 42,
            "name": "F#2",
            "ticks": 16500,
            "time": 97.058775,
            "velocity": 0.8267716535433071
          },
          {
            "duration": 0.08235290000000361,
            "durationTicks": 14,
            "midi": 44,
            "name": "G#2",
            "ticks": 16530,
            "time": 97.2352455,
            "velocity": 0.8267716535433071
          },
          {
            "duration": 0.08235290000000361,
            "durationTicks": 14,
            "midi": 42,
            "name": "F#2",
            "ticks": 16560,
            "time": 97.411716,
            "velocity": 0.8267716535433071
          },
          {
            "duration": 0.08235290000000361,
            "durationTicks": 14,
            "midi": 53,
            "name": "F3",
            "ticks": 16560,
            "time": 97.411716,
            "velocity": 0.8267716535433071
          },
          {
            "duration": 0.08235290000000361,
            "durationTicks": 14,
            "midi": 42,
            "name": "F#2",
            "ticks": 16620,
            "time": 97.764657,
            "velocity": 0.8267716535433071
          },
          {
            "duration": 0.08235290000000361,
            "durationTicks": 14,
            "midi": 44,
            "name": "G#2",
            "ticks": 16650,
            "time": 97.94112750000001,
            "velocity": 0.8267716535433071
          },
          {
            "duration": 0.08235290000000361,
            "durationTicks": 14,
            "midi": 53,
            "name": "F3",
            "ticks": 16680,
            "time": 98.117598,
            "velocity": 0.8267716535433071
          },
          {
            "duration": 0.08235290000000361,
            "durationTicks": 14,
            "midi": 55,
            "name": "G3",
            "ticks": 16680,
            "time": 98.117598,
            "velocity": 0.8267716535433071
          },
          {
            "duration": 0.08235290000000361,
            "durationTicks": 14,
            "midi": 42,
            "name": "F#2",
            "ticks": 16680,
            "time": 98.117598,
            "velocity": 0.8267716535433071
          },
          {
            "duration": 0.08235290000000361,
            "durationTicks": 14,
            "midi": 42,
            "name": "F#2",
            "ticks": 16740,
            "time": 98.470539,
            "velocity": 0.8267716535433071
          },
          {
            "duration": 0.08235290000001783,
            "durationTicks": 14,
            "midi": 44,
            "name": "G#2",
            "ticks": 16770,
            "time": 98.6470095,
            "velocity": 0.8267716535433071
          },
          {
            "duration": 0.08235290000000361,
            "durationTicks": 14,
            "midi": 53,
            "name": "F3",
            "ticks": 16800,
            "time": 98.82348,
            "velocity": 0.8267716535433071
          },
          {
            "duration": 0.08235290000000361,
            "durationTicks": 14,
            "midi": 42,
            "name": "F#2",
            "ticks": 16800,
            "time": 98.82348,
            "velocity": 0.8267716535433071
          },
          {
            "duration": 0.08235290000000361,
            "durationTicks": 14,
            "midi": 42,
            "name": "F#2",
            "ticks": 16860,
            "time": 99.176421,
            "velocity": 0.8267716535433071
          },
          {
            "duration": 0.08235290000000361,
            "durationTicks": 14,
            "midi": 44,
            "name": "G#2",
            "ticks": 16890,
            "time": 99.3528915,
            "velocity": 0.8267716535433071
          },
          {
            "duration": 0.08235290000000361,
            "durationTicks": 14,
            "midi": 53,
            "name": "F3",
            "ticks": 16920,
            "time": 99.529362,
            "velocity": 0.8267716535433071
          },
          {
            "duration": 0.08235290000000361,
            "durationTicks": 14,
            "midi": 42,
            "name": "F#2",
            "ticks": 16920,
            "time": 99.529362,
            "velocity": 0.8267716535433071
          },
          {
            "duration": 0.08235290000000361,
            "durationTicks": 14,
            "midi": 42,
            "name": "F#2",
            "ticks": 16980,
            "time": 99.88230300000001,
            "velocity": 0.8267716535433071
          },
          {
            "duration": 0.08235290000000361,
            "durationTicks": 14,
            "midi": 44,
            "name": "G#2",
            "ticks": 17010,
            "time": 100.0587735,
            "velocity": 0.8267716535433071
          },
          {
            "duration": 0.08235290000001783,
            "durationTicks": 14,
            "midi": 53,
            "name": "F3",
            "ticks": 17040,
            "time": 100.235244,
            "velocity": 0.8267716535433071
          },
          {
            "duration": 0.08235290000001783,
            "durationTicks": 14,
            "midi": 42,
            "name": "F#2",
            "ticks": 17040,
            "time": 100.235244,
            "velocity": 0.8267716535433071
          },
          {
            "duration": 0.08235290000001783,
            "durationTicks": 14,
            "midi": 42,
            "name": "F#2",
            "ticks": 17100,
            "time": 100.588185,
            "velocity": 0.8267716535433071
          },
          {
            "duration": 0.08235290000000361,
            "durationTicks": 14,
            "midi": 44,
            "name": "G#2",
            "ticks": 17130,
            "time": 100.7646555,
            "velocity": 0.8267716535433071
          },
          {
            "duration": 0.08235290000000361,
            "durationTicks": 14,
            "midi": 55,
            "name": "G3",
            "ticks": 17160,
            "time": 100.941126,
            "velocity": 0.8267716535433071
          },
          {
            "duration": 0.08235290000000361,
            "durationTicks": 14,
            "midi": 53,
            "name": "F3",
            "ticks": 17160,
            "time": 100.941126,
            "velocity": 0.8267716535433071
          },
          {
            "duration": 0.08235290000000361,
            "durationTicks": 14,
            "midi": 42,
            "name": "F#2",
            "ticks": 17160,
            "time": 100.941126,
            "velocity": 0.8267716535433071
          },
          {
            "duration": 0.08235290000000361,
            "durationTicks": 14,
            "midi": 42,
            "name": "F#2",
            "ticks": 17220,
            "time": 101.294067,
            "velocity": 0.8267716535433071
          },
          {
            "duration": 0.08235290000000361,
            "durationTicks": 14,
            "midi": 44,
            "name": "G#2",
            "ticks": 17250,
            "time": 101.4705375,
            "velocity": 0.8267716535433071
          },
          {
            "duration": 0.08235290000000361,
            "durationTicks": 14,
            "midi": 53,
            "name": "F3",
            "ticks": 17280,
            "time": 101.647008,
            "velocity": 0.8267716535433071
          },
          {
            "duration": 0.08235290000000361,
            "durationTicks": 14,
            "midi": 42,
            "name": "F#2",
            "ticks": 17280,
            "time": 101.647008,
            "velocity": 0.8267716535433071
          },
          {
            "duration": 0.08235290000000361,
            "durationTicks": 14,
            "midi": 42,
            "name": "F#2",
            "ticks": 17340,
            "time": 101.999949,
            "velocity": 0.8267716535433071
          },
          {
            "duration": 0.08235290000001783,
            "durationTicks": 14,
            "midi": 44,
            "name": "G#2",
            "ticks": 17370,
            "time": 102.1764195,
            "velocity": 0.8267716535433071
          },
          {
            "duration": 0.08235290000000361,
            "durationTicks": 14,
            "midi": 53,
            "name": "F3",
            "ticks": 17400,
            "time": 102.35289,
            "velocity": 0.8267716535433071
          },
          {
            "duration": 0.08235290000000361,
            "durationTicks": 14,
            "midi": 42,
            "name": "F#2",
            "ticks": 17400,
            "time": 102.35289,
            "velocity": 0.8267716535433071
          },
          {
            "duration": 0.08235290000000361,
            "durationTicks": 14,
            "midi": 42,
            "name": "F#2",
            "ticks": 17460,
            "time": 102.705831,
            "velocity": 0.8267716535433071
          },
          {
            "duration": 0.08235290000000361,
            "durationTicks": 14,
            "midi": 44,
            "name": "G#2",
            "ticks": 17490,
            "time": 102.8823015,
            "velocity": 0.8267716535433071
          },
          {
            "duration": 0.08235290000000361,
            "durationTicks": 14,
            "midi": 53,
            "name": "F3",
            "ticks": 17520,
            "time": 103.058772,
            "velocity": 0.8267716535433071
          },
          {
            "duration": 0.08235290000000361,
            "durationTicks": 14,
            "midi": 42,
            "name": "F#2",
            "ticks": 17520,
            "time": 103.058772,
            "velocity": 0.8267716535433071
          },
          {
            "duration": 0.08235290000000361,
            "durationTicks": 14,
            "midi": 42,
            "name": "F#2",
            "ticks": 17580,
            "time": 103.411713,
            "velocity": 0.8267716535433071
          },
          {
            "duration": 0.08235290000000361,
            "durationTicks": 14,
            "midi": 44,
            "name": "G#2",
            "ticks": 17610,
            "time": 103.5881835,
            "velocity": 0.8267716535433071
          },
          {
            "duration": 0.08235290000000361,
            "durationTicks": 14,
            "midi": 55,
            "name": "G3",
            "ticks": 17640,
            "time": 103.76465400000001,
            "velocity": 0.8267716535433071
          },
          {
            "duration": 0.08235290000000361,
            "durationTicks": 14,
            "midi": 53,
            "name": "F3",
            "ticks": 17640,
            "time": 103.76465400000001,
            "velocity": 0.8267716535433071
          },
          {
            "duration": 0.08235290000000361,
            "durationTicks": 14,
            "midi": 42,
            "name": "F#2",
            "ticks": 17640,
            "time": 103.76465400000001,
            "velocity": 0.8267716535433071
          },
          {
            "duration": 0.08235290000001783,
            "durationTicks": 14,
            "midi": 42,
            "name": "F#2",
            "ticks": 17700,
            "time": 104.117595,
            "velocity": 0.8267716535433071
          },
          {
            "duration": 0.08235290000000361,
            "durationTicks": 14,
            "midi": 52,
            "name": "E3",
            "ticks": 17730,
            "time": 104.2940655,
            "velocity": 0.8267716535433071
          },
          {
            "duration": 0.08235290000000361,
            "durationTicks": 14,
            "midi": 44,
            "name": "G#2",
            "ticks": 17730,
            "time": 104.2940655,
            "velocity": 0.8267716535433071
          },
          {
            "duration": 0.08235290000001783,
            "durationTicks": 14,
            "midi": 53,
            "name": "F3",
            "ticks": 17760,
            "time": 104.470536,
            "velocity": 0.8267716535433071
          },
          {
            "duration": 0.08235290000001783,
            "durationTicks": 14,
            "midi": 42,
            "name": "F#2",
            "ticks": 17760,
            "time": 104.470536,
            "velocity": 0.8267716535433071
          },
          {
            "duration": 0.08235290000000361,
            "durationTicks": 14,
            "midi": 42,
            "name": "F#2",
            "ticks": 17820,
            "time": 104.823477,
            "velocity": 0.8267716535433071
          },
          {
            "duration": 0.08235290000000361,
            "durationTicks": 14,
            "midi": 44,
            "name": "G#2",
            "ticks": 17850,
            "time": 104.9999475,
            "velocity": 0.8267716535433071
          },
          {
            "duration": 0.08235290000000361,
            "durationTicks": 14,
            "midi": 53,
            "name": "F3",
            "ticks": 17880,
            "time": 105.176418,
            "velocity": 0.8267716535433071
          },
          {
            "duration": 0.08235290000000361,
            "durationTicks": 14,
            "midi": 42,
            "name": "F#2",
            "ticks": 17880,
            "time": 105.176418,
            "velocity": 0.8267716535433071
          },
          {
            "duration": 0.08235290000000361,
            "durationTicks": 14,
            "midi": 42,
            "name": "F#2",
            "ticks": 17940,
            "time": 105.529359,
            "velocity": 0.8267716535433071
          },
          {
            "duration": 0.08235290000000361,
            "durationTicks": 14,
            "midi": 44,
            "name": "G#2",
            "ticks": 17970,
            "time": 105.70582950000001,
            "velocity": 0.8267716535433071
          },
          {
            "duration": 0.08235290000000361,
            "durationTicks": 14,
            "midi": 53,
            "name": "F3",
            "ticks": 18000,
            "time": 105.8823,
            "velocity": 0.8267716535433071
          },
          {
            "duration": 0.08235290000000361,
            "durationTicks": 14,
            "midi": 42,
            "name": "F#2",
            "ticks": 18000,
            "time": 105.8823,
            "velocity": 0.8267716535433071
          },
          {
            "duration": 0.08235290000000361,
            "durationTicks": 14,
            "midi": 42,
            "name": "F#2",
            "ticks": 18060,
            "time": 106.235241,
            "velocity": 0.8267716535433071
          },
          {
            "duration": 0.08235290000001783,
            "durationTicks": 14,
            "midi": 44,
            "name": "G#2",
            "ticks": 18090,
            "time": 106.4117115,
            "velocity": 0.8267716535433071
          },
          {
            "duration": 0.08235290000000361,
            "durationTicks": 14,
            "midi": 55,
            "name": "G3",
            "ticks": 18120,
            "time": 106.588182,
            "velocity": 0.8267716535433071
          },
          {
            "duration": 0.08235290000000361,
            "durationTicks": 14,
            "midi": 53,
            "name": "F3",
            "ticks": 18120,
            "time": 106.588182,
            "velocity": 0.8267716535433071
          },
          {
            "duration": 0.08235290000000361,
            "durationTicks": 14,
            "midi": 42,
            "name": "F#2",
            "ticks": 18120,
            "time": 106.588182,
            "velocity": 0.8267716535433071
          },
          {
            "duration": 0.08235290000000361,
            "durationTicks": 14,
            "midi": 42,
            "name": "F#2",
            "ticks": 18180,
            "time": 106.941123,
            "velocity": 0.8267716535433071
          },
          {
            "duration": 0.08235290000000361,
            "durationTicks": 14,
            "midi": 44,
            "name": "G#2",
            "ticks": 18210,
            "time": 107.1175935,
            "velocity": 0.8267716535433071
          },
          {
            "duration": 0.08235290000000361,
            "durationTicks": 14,
            "midi": 53,
            "name": "F3",
            "ticks": 18240,
            "time": 107.294064,
            "velocity": 0.8267716535433071
          },
          {
            "duration": 0.08235290000000361,
            "durationTicks": 14,
            "midi": 42,
            "name": "F#2",
            "ticks": 18240,
            "time": 107.294064,
            "velocity": 0.8267716535433071
          },
          {
            "duration": 0.08235290000000361,
            "durationTicks": 14,
            "midi": 42,
            "name": "F#2",
            "ticks": 18300,
            "time": 107.64700500000001,
            "velocity": 0.8267716535433071
          },
          {
            "duration": 0.08235290000000361,
            "durationTicks": 14,
            "midi": 44,
            "name": "G#2",
            "ticks": 18330,
            "time": 107.8234755,
            "velocity": 0.8267716535433071
          },
          {
            "duration": 0.08235290000000361,
            "durationTicks": 14,
            "midi": 53,
            "name": "F3",
            "ticks": 18360,
            "time": 107.99994600000001,
            "velocity": 0.8267716535433071
          },
          {
            "duration": 0.08235290000000361,
            "durationTicks": 14,
            "midi": 42,
            "name": "F#2",
            "ticks": 18360,
            "time": 107.99994600000001,
            "velocity": 0.8267716535433071
          },
          {
            "duration": 0.08235290000001783,
            "durationTicks": 14,
            "midi": 42,
            "name": "F#2",
            "ticks": 18420,
            "time": 108.352887,
            "velocity": 0.8267716535433071
          },
          {
            "duration": 0.08235290000000361,
            "durationTicks": 14,
            "midi": 44,
            "name": "G#2",
            "ticks": 18450,
            "time": 108.5293575,
            "velocity": 0.8267716535433071
          },
          {
            "duration": 0.08235290000000361,
            "durationTicks": 14,
            "midi": 53,
            "name": "F3",
            "ticks": 18480,
            "time": 108.705828,
            "velocity": 0.8267716535433071
          },
          {
            "duration": 0.08235290000000361,
            "durationTicks": 14,
            "midi": 42,
            "name": "F#2",
            "ticks": 18480,
            "time": 108.705828,
            "velocity": 0.8267716535433071
          },
          {
            "duration": 0.08235290000000361,
            "durationTicks": 14,
            "midi": 42,
            "name": "F#2",
            "ticks": 18540,
            "time": 109.058769,
            "velocity": 0.8267716535433071
          },
          {
            "duration": 0.08235290000000361,
            "durationTicks": 14,
            "midi": 44,
            "name": "G#2",
            "ticks": 18570,
            "time": 109.2352395,
            "velocity": 0.8267716535433071
          },
          {
            "duration": 0.08235290000000361,
            "durationTicks": 14,
            "midi": 55,
            "name": "G3",
            "ticks": 18600,
            "time": 109.41171,
            "velocity": 0.8267716535433071
          },
          {
            "duration": 0.08235290000000361,
            "durationTicks": 14,
            "midi": 53,
            "name": "F3",
            "ticks": 18600,
            "time": 109.41171,
            "velocity": 0.8267716535433071
          },
          {
            "duration": 0.08235290000000361,
            "durationTicks": 14,
            "midi": 42,
            "name": "F#2",
            "ticks": 18600,
            "time": 109.41171,
            "velocity": 0.8267716535433071
          },
          {
            "duration": 0.08235290000000361,
            "durationTicks": 14,
            "midi": 42,
            "name": "F#2",
            "ticks": 18660,
            "time": 109.764651,
            "velocity": 0.8267716535433071
          },
          {
            "duration": 0.08235290000000361,
            "durationTicks": 14,
            "midi": 44,
            "name": "G#2",
            "ticks": 18690,
            "time": 109.94112150000001,
            "velocity": 0.8267716535433071
          },
          {
            "duration": 0.08235290000000361,
            "durationTicks": 14,
            "midi": 53,
            "name": "F3",
            "ticks": 18720,
            "time": 110.117592,
            "velocity": 0.8267716535433071
          },
          {
            "duration": 0.08235290000000361,
            "durationTicks": 14,
            "midi": 42,
            "name": "F#2",
            "ticks": 18720,
            "time": 110.117592,
            "velocity": 0.8267716535433071
          },
          {
            "duration": 0.08235290000000361,
            "durationTicks": 14,
            "midi": 42,
            "name": "F#2",
            "ticks": 18780,
            "time": 110.470533,
            "velocity": 0.8267716535433071
          },
          {
            "duration": 0.08235290000000361,
            "durationTicks": 14,
            "midi": 44,
            "name": "G#2",
            "ticks": 18810,
            "time": 110.6470035,
            "velocity": 0.8267716535433071
          },
          {
            "duration": 0.08235290000000361,
            "durationTicks": 14,
            "midi": 53,
            "name": "F3",
            "ticks": 18840,
            "time": 110.823474,
            "velocity": 0.8267716535433071
          },
          {
            "duration": 0.08235290000000361,
            "durationTicks": 14,
            "midi": 42,
            "name": "F#2",
            "ticks": 18840,
            "time": 110.823474,
            "velocity": 0.8267716535433071
          },
          {
            "duration": 0.08235290000000361,
            "durationTicks": 14,
            "midi": 42,
            "name": "F#2",
            "ticks": 18900,
            "time": 111.176415,
            "velocity": 0.8267716535433071
          },
          {
            "duration": 0.08235290000000361,
            "durationTicks": 14,
            "midi": 44,
            "name": "G#2",
            "ticks": 18930,
            "time": 111.3528855,
            "velocity": 0.8267716535433071
          },
          {
            "duration": 0.08235290000000361,
            "durationTicks": 14,
            "midi": 53,
            "name": "F3",
            "ticks": 18960,
            "time": 111.529356,
            "velocity": 0.8267716535433071
          },
          {
            "duration": 0.08235290000000361,
            "durationTicks": 14,
            "midi": 42,
            "name": "F#2",
            "ticks": 18960,
            "time": 111.529356,
            "velocity": 0.8267716535433071
          },
          {
            "duration": 0.08235290000000361,
            "durationTicks": 14,
            "midi": 42,
            "name": "F#2",
            "ticks": 19020,
            "time": 111.88229700000001,
            "velocity": 0.8267716535433071
          },
          {
            "duration": 0.08235290000000361,
            "durationTicks": 14,
            "midi": 44,
            "name": "G#2",
            "ticks": 19050,
            "time": 112.0587675,
            "velocity": 0.8267716535433071
          },
          {
            "duration": 0.08235290000001783,
            "durationTicks": 14,
            "midi": 55,
            "name": "G3",
            "ticks": 19080,
            "time": 112.235238,
            "velocity": 0.8267716535433071
          },
          {
            "duration": 0.08235290000001783,
            "durationTicks": 14,
            "midi": 53,
            "name": "F3",
            "ticks": 19080,
            "time": 112.235238,
            "velocity": 0.8267716535433071
          },
          {
            "duration": 0.08235290000001783,
            "durationTicks": 14,
            "midi": 42,
            "name": "F#2",
            "ticks": 19080,
            "time": 112.235238,
            "velocity": 0.8267716535433071
          },
          {
            "duration": 0.08235290000000361,
            "durationTicks": 14,
            "midi": 42,
            "name": "F#2",
            "ticks": 19140,
            "time": 112.588179,
            "velocity": 0.8267716535433071
          },
          {
            "duration": 0.08235290000000361,
            "durationTicks": 14,
            "midi": 44,
            "name": "G#2",
            "ticks": 19170,
            "time": 112.7646495,
            "velocity": 0.8267716535433071
          },
          {
            "duration": 0.08235290000000361,
            "durationTicks": 14,
            "midi": 53,
            "name": "F3",
            "ticks": 19200,
            "time": 112.94112,
            "velocity": 0.8267716535433071
          },
          {
            "duration": 0.08235290000000361,
            "durationTicks": 14,
            "midi": 42,
            "name": "F#2",
            "ticks": 19260,
            "time": 113.294061,
            "velocity": 0.8267716535433071
          },
          {
            "duration": 0.08235290000000361,
            "durationTicks": 14,
            "midi": 44,
            "name": "G#2",
            "ticks": 19290,
            "time": 113.4705315,
            "velocity": 0.8267716535433071
          },
          {
            "duration": 0.08235290000000361,
            "durationTicks": 14,
            "midi": 53,
            "name": "F3",
            "ticks": 19320,
            "time": 113.647002,
            "velocity": 0.8267716535433071
          },
          {
            "duration": 0.08235290000000361,
            "durationTicks": 14,
            "midi": 42,
            "name": "F#2",
            "ticks": 19320,
            "time": 113.647002,
            "velocity": 0.8267716535433071
          },
          {
            "duration": 0.08235290000000361,
            "durationTicks": 14,
            "midi": 42,
            "name": "F#2",
            "ticks": 19380,
            "time": 113.999943,
            "velocity": 0.8267716535433071
          },
          {
            "duration": 0.08235290000001783,
            "durationTicks": 14,
            "midi": 44,
            "name": "G#2",
            "ticks": 19410,
            "time": 114.1764135,
            "velocity": 0.8267716535433071
          },
          {
            "duration": 0.08235290000000361,
            "durationTicks": 14,
            "midi": 53,
            "name": "F3",
            "ticks": 19440,
            "time": 114.352884,
            "velocity": 0.8267716535433071
          },
          {
            "duration": 0.08235290000000361,
            "durationTicks": 14,
            "midi": 42,
            "name": "F#2",
            "ticks": 19440,
            "time": 114.352884,
            "velocity": 0.8267716535433071
          },
          {
            "duration": 0.08235290000000361,
            "durationTicks": 14,
            "midi": 44,
            "name": "G#2",
            "ticks": 19500,
            "time": 114.705825,
            "velocity": 0.8267716535433071
          },
          {
            "duration": 0.08235290000000361,
            "durationTicks": 14,
            "midi": 49,
            "name": "C#3",
            "ticks": 19560,
            "time": 115.058766,
            "velocity": 0.8267716535433071
          },
          {
            "duration": 0.08235290000000361,
            "durationTicks": 14,
            "midi": 44,
            "name": "G#2",
            "ticks": 19560,
            "time": 115.058766,
            "velocity": 0.8267716535433071
          },
          {
            "duration": 0.08235290000000361,
            "durationTicks": 14,
            "midi": 44,
            "name": "G#2",
            "ticks": 19620,
            "time": 115.411707,
            "velocity": 0.8267716535433071
          },
          {
            "duration": 0.08235290000000361,
            "durationTicks": 14,
            "midi": 57,
            "name": "A3",
            "ticks": 19680,
            "time": 115.76464800000001,
            "velocity": 0.8267716535433071
          },
          {
            "duration": 0.08235290000000361,
            "durationTicks": 14,
            "midi": 42,
            "name": "F#2",
            "ticks": 19680,
            "time": 115.76464800000001,
            "velocity": 0.8267716535433071
          },
          {
            "duration": 0.08235290000001783,
            "durationTicks": 14,
            "midi": 42,
            "name": "F#2",
            "ticks": 19740,
            "time": 116.117589,
            "velocity": 0.8267716535433071
          },
          {
            "duration": 0.08235290000000361,
            "durationTicks": 14,
            "midi": 44,
            "name": "G#2",
            "ticks": 19770,
            "time": 116.2940595,
            "velocity": 0.8267716535433071
          },
          {
            "duration": 0.08235290000000361,
            "durationTicks": 14,
            "midi": 53,
            "name": "F3",
            "ticks": 19800,
            "time": 116.47053,
            "velocity": 0.8267716535433071
          },
          {
            "duration": 0.08235290000000361,
            "durationTicks": 14,
            "midi": 42,
            "name": "F#2",
            "ticks": 19800,
            "time": 116.47053,
            "velocity": 0.8267716535433071
          },
          {
            "duration": 0.08235290000000361,
            "durationTicks": 14,
            "midi": 42,
            "name": "F#2",
            "ticks": 19860,
            "time": 116.823471,
            "velocity": 0.8267716535433071
          },
          {
            "duration": 0.08235290000000361,
            "durationTicks": 14,
            "midi": 44,
            "name": "G#2",
            "ticks": 19890,
            "time": 116.9999415,
            "velocity": 0.8267716535433071
          },
          {
            "duration": 0.08235290000000361,
            "durationTicks": 14,
            "midi": 53,
            "name": "F3",
            "ticks": 19920,
            "time": 117.176412,
            "velocity": 0.8267716535433071
          },
          {
            "duration": 0.08235290000000361,
            "durationTicks": 14,
            "midi": 42,
            "name": "F#2",
            "ticks": 19920,
            "time": 117.176412,
            "velocity": 0.8267716535433071
          },
          {
            "duration": 0.08235290000000361,
            "durationTicks": 14,
            "midi": 42,
            "name": "F#2",
            "ticks": 19980,
            "time": 117.529353,
            "velocity": 0.8267716535433071
          },
          {
            "duration": 0.08235290000000361,
            "durationTicks": 14,
            "midi": 44,
            "name": "G#2",
            "ticks": 20010,
            "time": 117.70582350000001,
            "velocity": 0.8267716535433071
          },
          {
            "duration": 0.08235290000000361,
            "durationTicks": 14,
            "midi": 55,
            "name": "G3",
            "ticks": 20040,
            "time": 117.882294,
            "velocity": 0.8267716535433071
          },
          {
            "duration": 0.08235290000000361,
            "durationTicks": 14,
            "midi": 53,
            "name": "F3",
            "ticks": 20040,
            "time": 117.882294,
            "velocity": 0.8267716535433071
          },
          {
            "duration": 0.08235290000000361,
            "durationTicks": 14,
            "midi": 42,
            "name": "F#2",
            "ticks": 20040,
            "time": 117.882294,
            "velocity": 0.8267716535433071
          },
          {
            "duration": 0.08235290000000361,
            "durationTicks": 14,
            "midi": 42,
            "name": "F#2",
            "ticks": 20100,
            "time": 118.235235,
            "velocity": 0.8267716535433071
          },
          {
            "duration": 0.08235290000000361,
            "durationTicks": 14,
            "midi": 44,
            "name": "G#2",
            "ticks": 20130,
            "time": 118.4117055,
            "velocity": 0.8267716535433071
          },
          {
            "duration": 0.08235290000000361,
            "durationTicks": 14,
            "midi": 53,
            "name": "F3",
            "ticks": 20160,
            "time": 118.588176,
            "velocity": 0.8267716535433071
          },
          {
            "duration": 0.08235290000000361,
            "durationTicks": 14,
            "midi": 42,
            "name": "F#2",
            "ticks": 20160,
            "time": 118.588176,
            "velocity": 0.8267716535433071
          },
          {
            "duration": 0.08235290000000361,
            "durationTicks": 14,
            "midi": 42,
            "name": "F#2",
            "ticks": 20220,
            "time": 118.941117,
            "velocity": 0.8267716535433071
          },
          {
            "duration": 0.08235290000000361,
            "durationTicks": 14,
            "midi": 44,
            "name": "G#2",
            "ticks": 20250,
            "time": 119.1175875,
            "velocity": 0.8267716535433071
          },
          {
            "duration": 0.08235290000000361,
            "durationTicks": 14,
            "midi": 42,
            "name": "F#2",
            "ticks": 20280,
            "time": 119.294058,
            "velocity": 0.8267716535433071
          },
          {
            "duration": 0.08235290000000361,
            "durationTicks": 14,
            "midi": 53,
            "name": "F3",
            "ticks": 20280,
            "time": 119.294058,
            "velocity": 0.8267716535433071
          },
          {
            "duration": 0.08235290000000361,
            "durationTicks": 14,
            "midi": 42,
            "name": "F#2",
            "ticks": 20340,
            "time": 119.64699900000001,
            "velocity": 0.8267716535433071
          },
          {
            "duration": 0.08235290000000361,
            "durationTicks": 14,
            "midi": 44,
            "name": "G#2",
            "ticks": 20370,
            "time": 119.8234695,
            "velocity": 0.8267716535433071
          },
          {
            "duration": 0.08235290000001783,
            "durationTicks": 14,
            "midi": 42,
            "name": "F#2",
            "ticks": 20400,
            "time": 119.99994,
            "velocity": 0.8267716535433071
          },
          {
            "duration": 0.08235290000001783,
            "durationTicks": 14,
            "midi": 53,
            "name": "F3",
            "ticks": 20400,
            "time": 119.99994,
            "velocity": 0.8267716535433071
          },
          {
            "duration": 0.08235290000000361,
            "durationTicks": 14,
            "midi": 42,
            "name": "F#2",
            "ticks": 20460,
            "time": 120.352881,
            "velocity": 0.8267716535433071
          },
          {
            "duration": 0.08235290000000361,
            "durationTicks": 14,
            "midi": 44,
            "name": "G#2",
            "ticks": 20490,
            "time": 120.5293515,
            "velocity": 0.8267716535433071
          },
          {
            "duration": 0.08235290000000361,
            "durationTicks": 14,
            "midi": 53,
            "name": "F3",
            "ticks": 20520,
            "time": 120.705822,
            "velocity": 0.8267716535433071
          },
          {
            "duration": 0.08235290000000361,
            "durationTicks": 14,
            "midi": 55,
            "name": "G3",
            "ticks": 20520,
            "time": 120.705822,
            "velocity": 0.8267716535433071
          },
          {
            "duration": 0.08235290000000361,
            "durationTicks": 14,
            "midi": 42,
            "name": "F#2",
            "ticks": 20520,
            "time": 120.705822,
            "velocity": 0.8267716535433071
          },
          {
            "duration": 0.08235290000000361,
            "durationTicks": 14,
            "midi": 42,
            "name": "F#2",
            "ticks": 20580,
            "time": 121.058763,
            "velocity": 0.8267716535433071
          },
          {
            "duration": 0.08235290000000361,
            "durationTicks": 14,
            "midi": 44,
            "name": "G#2",
            "ticks": 20610,
            "time": 121.2352335,
            "velocity": 0.8267716535433071
          },
          {
            "duration": 0.08235290000000361,
            "durationTicks": 14,
            "midi": 53,
            "name": "F3",
            "ticks": 20640,
            "time": 121.411704,
            "velocity": 0.8267716535433071
          },
          {
            "duration": 0.08235290000000361,
            "durationTicks": 14,
            "midi": 42,
            "name": "F#2",
            "ticks": 20640,
            "time": 121.411704,
            "velocity": 0.8267716535433071
          },
          {
            "duration": 0.08235290000000361,
            "durationTicks": 14,
            "midi": 42,
            "name": "F#2",
            "ticks": 20700,
            "time": 121.764645,
            "velocity": 0.8267716535433071
          },
          {
            "duration": 0.08235290000001783,
            "durationTicks": 14,
            "midi": 44,
            "name": "G#2",
            "ticks": 20730,
            "time": 121.9411155,
            "velocity": 0.8267716535433071
          },
          {
            "duration": 0.08235290000000361,
            "durationTicks": 14,
            "midi": 53,
            "name": "F3",
            "ticks": 20760,
            "time": 122.117586,
            "velocity": 0.8267716535433071
          },
          {
            "duration": 0.08235290000000361,
            "durationTicks": 14,
            "midi": 42,
            "name": "F#2",
            "ticks": 20760,
            "time": 122.117586,
            "velocity": 0.8267716535433071
          },
          {
            "duration": 0.08235290000000361,
            "durationTicks": 14,
            "midi": 42,
            "name": "F#2",
            "ticks": 20820,
            "time": 122.470527,
            "velocity": 0.8267716535433071
          },
          {
            "duration": 0.08235290000000361,
            "durationTicks": 14,
            "midi": 44,
            "name": "G#2",
            "ticks": 20850,
            "time": 122.6469975,
            "velocity": 0.8267716535433071
          },
          {
            "duration": 0.08235290000000361,
            "durationTicks": 14,
            "midi": 53,
            "name": "F3",
            "ticks": 20880,
            "time": 122.823468,
            "velocity": 0.8267716535433071
          },
          {
            "duration": 0.08235290000000361,
            "durationTicks": 14,
            "midi": 42,
            "name": "F#2",
            "ticks": 20880,
            "time": 122.823468,
            "velocity": 0.8267716535433071
          },
          {
            "duration": 0.08235290000000361,
            "durationTicks": 14,
            "midi": 42,
            "name": "F#2",
            "ticks": 20940,
            "time": 123.176409,
            "velocity": 0.8267716535433071
          },
          {
            "duration": 0.08235290000000361,
            "durationTicks": 14,
            "midi": 44,
            "name": "G#2",
            "ticks": 20970,
            "time": 123.3528795,
            "velocity": 0.8267716535433071
          },
          {
            "duration": 0.08235290000000361,
            "durationTicks": 14,
            "midi": 55,
            "name": "G3",
            "ticks": 21000,
            "time": 123.52935000000001,
            "velocity": 0.8267716535433071
          },
          {
            "duration": 0.08235290000000361,
            "durationTicks": 14,
            "midi": 53,
            "name": "F3",
            "ticks": 21000,
            "time": 123.52935000000001,
            "velocity": 0.8267716535433071
          },
          {
            "duration": 0.08235290000000361,
            "durationTicks": 14,
            "midi": 42,
            "name": "F#2",
            "ticks": 21000,
            "time": 123.52935000000001,
            "velocity": 0.8267716535433071
          },
          {
            "duration": 0.08235290000001783,
            "durationTicks": 14,
            "midi": 42,
            "name": "F#2",
            "ticks": 21060,
            "time": 123.882291,
            "velocity": 0.8267716535433071
          },
          {
            "duration": 0.08235290000000361,
            "durationTicks": 14,
            "midi": 44,
            "name": "G#2",
            "ticks": 21090,
            "time": 124.0587615,
            "velocity": 0.8267716535433071
          },
          {
            "duration": 0.08235290000000361,
            "durationTicks": 14,
            "midi": 53,
            "name": "F3",
            "ticks": 21120,
            "time": 124.235232,
            "velocity": 0.8267716535433071
          },
          {
            "duration": 0.08235290000000361,
            "durationTicks": 14,
            "midi": 42,
            "name": "F#2",
            "ticks": 21120,
            "time": 124.235232,
            "velocity": 0.8267716535433071
          },
          {
            "duration": 0.08235290000000361,
            "durationTicks": 14,
            "midi": 42,
            "name": "F#2",
            "ticks": 21180,
            "time": 124.588173,
            "velocity": 0.8267716535433071
          },
          {
            "duration": 0.08235290000000361,
            "durationTicks": 14,
            "midi": 44,
            "name": "G#2",
            "ticks": 21210,
            "time": 124.7646435,
            "velocity": 0.8267716535433071
          },
          {
            "duration": 0.08235290000000361,
            "durationTicks": 14,
            "midi": 53,
            "name": "F3",
            "ticks": 21240,
            "time": 124.941114,
            "velocity": 0.8267716535433071
          },
          {
            "duration": 0.08235290000000361,
            "durationTicks": 14,
            "midi": 42,
            "name": "F#2",
            "ticks": 21240,
            "time": 124.941114,
            "velocity": 0.8267716535433071
          },
          {
            "duration": 0.08235290000000361,
            "durationTicks": 14,
            "midi": 42,
            "name": "F#2",
            "ticks": 21300,
            "time": 125.294055,
            "velocity": 0.8267716535433071
          },
          {
            "duration": 0.08235290000000361,
            "durationTicks": 14,
            "midi": 44,
            "name": "G#2",
            "ticks": 21330,
            "time": 125.47052550000001,
            "velocity": 0.8267716535433071
          },
          {
            "duration": 0.08235290000000361,
            "durationTicks": 14,
            "midi": 53,
            "name": "F3",
            "ticks": 21360,
            "time": 125.646996,
            "velocity": 0.8267716535433071
          },
          {
            "duration": 0.08235290000000361,
            "durationTicks": 14,
            "midi": 42,
            "name": "F#2",
            "ticks": 21360,
            "time": 125.646996,
            "velocity": 0.8267716535433071
          },
          {
            "duration": 0.08235290000000361,
            "durationTicks": 14,
            "midi": 42,
            "name": "F#2",
            "ticks": 21420,
            "time": 125.999937,
            "velocity": 0.8267716535433071
          },
          {
            "duration": 0.08235290000001783,
            "durationTicks": 14,
            "midi": 44,
            "name": "G#2",
            "ticks": 21450,
            "time": 126.1764075,
            "velocity": 0.8267716535433071
          },
          {
            "duration": 0.08235290000000361,
            "durationTicks": 14,
            "midi": 55,
            "name": "G3",
            "ticks": 21480,
            "time": 126.352878,
            "velocity": 0.8267716535433071
          },
          {
            "duration": 0.08235290000000361,
            "durationTicks": 14,
            "midi": 53,
            "name": "F3",
            "ticks": 21480,
            "time": 126.352878,
            "velocity": 0.8267716535433071
          },
          {
            "duration": 0.08235290000000361,
            "durationTicks": 14,
            "midi": 42,
            "name": "F#2",
            "ticks": 21480,
            "time": 126.352878,
            "velocity": 0.8267716535433071
          },
          {
            "duration": 0.08235290000000361,
            "durationTicks": 14,
            "midi": 42,
            "name": "F#2",
            "ticks": 21540,
            "time": 126.705819,
            "velocity": 0.8267716535433071
          },
          {
            "duration": 0.08235290000000361,
            "durationTicks": 14,
            "midi": 44,
            "name": "G#2",
            "ticks": 21570,
            "time": 126.8822895,
            "velocity": 0.8267716535433071
          },
          {
            "duration": 0.08235290000000361,
            "durationTicks": 14,
            "midi": 53,
            "name": "F3",
            "ticks": 21600,
            "time": 127.05876,
            "velocity": 0.8267716535433071
          },
          {
            "duration": 0.08235290000000361,
            "durationTicks": 14,
            "midi": 42,
            "name": "F#2",
            "ticks": 21600,
            "time": 127.05876,
            "velocity": 0.8267716535433071
          },
          {
            "duration": 0.08235290000000361,
            "durationTicks": 14,
            "midi": 42,
            "name": "F#2",
            "ticks": 21660,
            "time": 127.41170100000001,
            "velocity": 0.8267716535433071
          },
          {
            "duration": 0.08235290000000361,
            "durationTicks": 14,
            "midi": 44,
            "name": "G#2",
            "ticks": 21690,
            "time": 127.5881715,
            "velocity": 0.8267716535433071
          },
          {
            "duration": 0.08235290000001783,
            "durationTicks": 14,
            "midi": 53,
            "name": "F3",
            "ticks": 21720,
            "time": 127.764642,
            "velocity": 0.8267716535433071
          },
          {
            "duration": 0.08235290000001783,
            "durationTicks": 14,
            "midi": 42,
            "name": "F#2",
            "ticks": 21720,
            "time": 127.764642,
            "velocity": 0.8267716535433071
          },
          {
            "duration": 0.08235290000001783,
            "durationTicks": 14,
            "midi": 42,
            "name": "F#2",
            "ticks": 21780,
            "time": 128.117583,
            "velocity": 0.8267716535433071
          },
          {
            "duration": 0.08235290000001783,
            "durationTicks": 14,
            "midi": 44,
            "name": "G#2",
            "ticks": 21810,
            "time": 128.2940535,
            "velocity": 0.8267716535433071
          },
          {
            "duration": 0.0823528999999894,
            "durationTicks": 14,
            "midi": 53,
            "name": "F3",
            "ticks": 21840,
            "time": 128.470524,
            "velocity": 0.8267716535433071
          },
          {
            "duration": 0.0823528999999894,
            "durationTicks": 14,
            "midi": 42,
            "name": "F#2",
            "ticks": 21840,
            "time": 128.470524,
            "velocity": 0.8267716535433071
          },
          {
            "duration": 0.08235290000001783,
            "durationTicks": 14,
            "midi": 42,
            "name": "F#2",
            "ticks": 21900,
            "time": 128.823465,
            "velocity": 0.8267716535433071
          },
          {
            "duration": 0.08235290000001783,
            "durationTicks": 14,
            "midi": 44,
            "name": "G#2",
            "ticks": 21930,
            "time": 128.9999355,
            "velocity": 0.8267716535433071
          },
          {
            "duration": 0.0823528999999894,
            "durationTicks": 14,
            "midi": 55,
            "name": "G3",
            "ticks": 21960,
            "time": 129.17640600000001,
            "velocity": 0.8267716535433071
          },
          {
            "duration": 0.0823528999999894,
            "durationTicks": 14,
            "midi": 53,
            "name": "F3",
            "ticks": 21960,
            "time": 129.17640600000001,
            "velocity": 0.8267716535433071
          },
          {
            "duration": 0.0823528999999894,
            "durationTicks": 14,
            "midi": 42,
            "name": "F#2",
            "ticks": 21960,
            "time": 129.17640600000001,
            "velocity": 0.8267716535433071
          },
          {
            "duration": 0.08235290000001783,
            "durationTicks": 14,
            "midi": 42,
            "name": "F#2",
            "ticks": 22020,
            "time": 129.529347,
            "velocity": 0.8267716535433071
          },
          {
            "duration": 0.08235290000001783,
            "durationTicks": 14,
            "midi": 44,
            "name": "G#2",
            "ticks": 22050,
            "time": 129.7058175,
            "velocity": 0.8267716535433071
          },
          {
            "duration": 0.08235290000001783,
            "durationTicks": 14,
            "midi": 53,
            "name": "F3",
            "ticks": 22080,
            "time": 129.882288,
            "velocity": 0.8267716535433071
          },
          {
            "duration": 0.08235290000001783,
            "durationTicks": 14,
            "midi": 42,
            "name": "F#2",
            "ticks": 22080,
            "time": 129.882288,
            "velocity": 0.8267716535433071
          },
          {
            "duration": 0.0823528999999894,
            "durationTicks": 14,
            "midi": 42,
            "name": "F#2",
            "ticks": 22140,
            "time": 130.235229,
            "velocity": 0.8267716535433071
          },
          {
            "duration": 0.08235290000001783,
            "durationTicks": 14,
            "midi": 44,
            "name": "G#2",
            "ticks": 22170,
            "time": 130.4116995,
            "velocity": 0.8267716535433071
          },
          {
            "duration": 0.08235290000001783,
            "durationTicks": 14,
            "midi": 53,
            "name": "F3",
            "ticks": 22200,
            "time": 130.58817,
            "velocity": 0.8267716535433071
          },
          {
            "duration": 0.08235290000001783,
            "durationTicks": 14,
            "midi": 42,
            "name": "F#2",
            "ticks": 22200,
            "time": 130.58817,
            "velocity": 0.8267716535433071
          },
          {
            "duration": 0.0823528999999894,
            "durationTicks": 14,
            "midi": 42,
            "name": "F#2",
            "ticks": 22260,
            "time": 130.941111,
            "velocity": 0.8267716535433071
          },
          {
            "duration": 0.08235290000001783,
            "durationTicks": 14,
            "midi": 44,
            "name": "G#2",
            "ticks": 22290,
            "time": 131.1175815,
            "velocity": 0.8267716535433071
          },
          {
            "duration": 0.08235290000001783,
            "durationTicks": 14,
            "midi": 53,
            "name": "F3",
            "ticks": 22320,
            "time": 131.294052,
            "velocity": 0.8267716535433071
          },
          {
            "duration": 0.08235290000001783,
            "durationTicks": 14,
            "midi": 42,
            "name": "F#2",
            "ticks": 22320,
            "time": 131.294052,
            "velocity": 0.8267716535433071
          },
          {
            "duration": 0.0823528999999894,
            "durationTicks": 14,
            "midi": 42,
            "name": "F#2",
            "ticks": 22380,
            "time": 131.646993,
            "velocity": 0.8267716535433071
          },
          {
            "duration": 0.08235290000001783,
            "durationTicks": 14,
            "midi": 44,
            "name": "G#2",
            "ticks": 22410,
            "time": 131.8234635,
            "velocity": 0.8267716535433071
          },
          {
            "duration": 0.08235290000001783,
            "durationTicks": 14,
            "midi": 55,
            "name": "G3",
            "ticks": 22440,
            "time": 131.999934,
            "velocity": 0.8267716535433071
          },
          {
            "duration": 0.08235290000001783,
            "durationTicks": 14,
            "midi": 53,
            "name": "F3",
            "ticks": 22440,
            "time": 131.999934,
            "velocity": 0.8267716535433071
          },
          {
            "duration": 0.08235290000001783,
            "durationTicks": 14,
            "midi": 42,
            "name": "F#2",
            "ticks": 22440,
            "time": 131.999934,
            "velocity": 0.8267716535433071
          },
          {
            "duration": 0.0823528999999894,
            "durationTicks": 14,
            "midi": 42,
            "name": "F#2",
            "ticks": 22500,
            "time": 132.352875,
            "velocity": 0.8267716535433071
          },
          {
            "duration": 0.0823528999999894,
            "durationTicks": 14,
            "midi": 44,
            "name": "G#2",
            "ticks": 22530,
            "time": 132.5293455,
            "velocity": 0.8267716535433071
          },
          {
            "duration": 0.08235290000001783,
            "durationTicks": 14,
            "midi": 53,
            "name": "F3",
            "ticks": 22560,
            "time": 132.705816,
            "velocity": 0.8267716535433071
          },
          {
            "duration": 0.08235290000001783,
            "durationTicks": 14,
            "midi": 42,
            "name": "F#2",
            "ticks": 22560,
            "time": 132.705816,
            "velocity": 0.8267716535433071
          },
          {
            "duration": 0.0823528999999894,
            "durationTicks": 14,
            "midi": 42,
            "name": "F#2",
            "ticks": 22620,
            "time": 133.058757,
            "velocity": 0.8267716535433071
          },
          {
            "duration": 0.0823528999999894,
            "durationTicks": 14,
            "midi": 44,
            "name": "G#2",
            "ticks": 22650,
            "time": 133.2352275,
            "velocity": 0.8267716535433071
          },
          {
            "duration": 0.08235290000001783,
            "durationTicks": 14,
            "midi": 53,
            "name": "F3",
            "ticks": 22680,
            "time": 133.411698,
            "velocity": 0.8267716535433071
          },
          {
            "duration": 0.08235290000001783,
            "durationTicks": 14,
            "midi": 42,
            "name": "F#2",
            "ticks": 22680,
            "time": 133.411698,
            "velocity": 0.8267716535433071
          },
          {
            "duration": 0.08235290000001783,
            "durationTicks": 14,
            "midi": 42,
            "name": "F#2",
            "ticks": 22740,
            "time": 133.764639,
            "velocity": 0.8267716535433071
          },
          {
            "duration": 0.0823528999999894,
            "durationTicks": 14,
            "midi": 44,
            "name": "G#2",
            "ticks": 22770,
            "time": 133.9411095,
            "velocity": 0.8267716535433071
          },
          {
            "duration": 0.0823528999999894,
            "durationTicks": 14,
            "midi": 53,
            "name": "F3",
            "ticks": 22800,
            "time": 134.11758,
            "velocity": 0.8267716535433071
          },
          {
            "duration": 0.0823528999999894,
            "durationTicks": 14,
            "midi": 42,
            "name": "F#2",
            "ticks": 22800,
            "time": 134.11758,
            "velocity": 0.8267716535433071
          },
          {
            "duration": 0.08235290000001783,
            "durationTicks": 14,
            "midi": 42,
            "name": "F#2",
            "ticks": 22860,
            "time": 134.470521,
            "velocity": 0.8267716535433071
          },
          {
            "duration": 0.0823528999999894,
            "durationTicks": 14,
            "midi": 44,
            "name": "G#2",
            "ticks": 22890,
            "time": 134.6469915,
            "velocity": 0.8267716535433071
          },
          {
            "duration": 0.0823528999999894,
            "durationTicks": 14,
            "midi": 55,
            "name": "G3",
            "ticks": 22920,
            "time": 134.823462,
            "velocity": 0.8267716535433071
          },
          {
            "duration": 0.0823528999999894,
            "durationTicks": 14,
            "midi": 53,
            "name": "F3",
            "ticks": 22920,
            "time": 134.823462,
            "velocity": 0.8267716535433071
          },
          {
            "duration": 0.0823528999999894,
            "durationTicks": 14,
            "midi": 42,
            "name": "F#2",
            "ticks": 22920,
            "time": 134.823462,
            "velocity": 0.8267716535433071
          },
          {
            "duration": 0.08235290000001783,
            "durationTicks": 14,
            "midi": 42,
            "name": "F#2",
            "ticks": 22980,
            "time": 135.176403,
            "velocity": 0.8267716535433071
          },
          {
            "duration": 0.0823528999999894,
            "durationTicks": 14,
            "midi": 44,
            "name": "G#2",
            "ticks": 23010,
            "time": 135.35287350000002,
            "velocity": 0.8267716535433071
          },
          {
            "duration": 0.0823528999999894,
            "durationTicks": 14,
            "midi": 53,
            "name": "F3",
            "ticks": 23040,
            "time": 135.529344,
            "velocity": 0.8267716535433071
          },
          {
            "duration": 0.08235290000001783,
            "durationTicks": 14,
            "midi": 42,
            "name": "F#2",
            "ticks": 23100,
            "time": 135.882285,
            "velocity": 0.8267716535433071
          },
          {
            "duration": 0.08235290000001783,
            "durationTicks": 14,
            "midi": 44,
            "name": "G#2",
            "ticks": 23130,
            "time": 136.0587555,
            "velocity": 0.8267716535433071
          },
          {
            "duration": 0.0823528999999894,
            "durationTicks": 14,
            "midi": 53,
            "name": "F3",
            "ticks": 23160,
            "time": 136.235226,
            "velocity": 0.8267716535433071
          },
          {
            "duration": 0.0823528999999894,
            "durationTicks": 14,
            "midi": 42,
            "name": "F#2",
            "ticks": 23160,
            "time": 136.235226,
            "velocity": 0.8267716535433071
          },
          {
            "duration": 0.08235290000001783,
            "durationTicks": 14,
            "midi": 42,
            "name": "F#2",
            "ticks": 23220,
            "time": 136.588167,
            "velocity": 0.8267716535433071
          },
          {
            "duration": 0.08235290000001783,
            "durationTicks": 14,
            "midi": 44,
            "name": "G#2",
            "ticks": 23250,
            "time": 136.7646375,
            "velocity": 0.8267716535433071
          },
          {
            "duration": 0.0823528999999894,
            "durationTicks": 14,
            "midi": 53,
            "name": "F3",
            "ticks": 23280,
            "time": 136.941108,
            "velocity": 0.8267716535433071
          },
          {
            "duration": 0.0823528999999894,
            "durationTicks": 14,
            "midi": 42,
            "name": "F#2",
            "ticks": 23280,
            "time": 136.941108,
            "velocity": 0.8267716535433071
          },
          {
            "duration": 0.08235290000001783,
            "durationTicks": 14,
            "midi": 44,
            "name": "G#2",
            "ticks": 23340,
            "time": 137.294049,
            "velocity": 0.8267716535433071
          },
          {
            "duration": 0.08235290000001783,
            "durationTicks": 14,
            "midi": 49,
            "name": "C#3",
            "ticks": 23400,
            "time": 137.64699,
            "velocity": 0.8267716535433071
          },
          {
            "duration": 0.08235290000001783,
            "durationTicks": 14,
            "midi": 44,
            "name": "G#2",
            "ticks": 23400,
            "time": 137.64699,
            "velocity": 0.8267716535433071
          },
          {
            "duration": 0.0823528999999894,
            "durationTicks": 14,
            "midi": 44,
            "name": "G#2",
            "ticks": 23460,
            "time": 137.999931,
            "velocity": 0.8267716535433071
          },
          {
            "duration": 0.08235290000001783,
            "durationTicks": 14,
            "midi": 57,
            "name": "A3",
            "ticks": 23520,
            "time": 138.352872,
            "velocity": 0.8267716535433071
          },
          {
            "duration": 0.08235290000001783,
            "durationTicks": 14,
            "midi": 42,
            "name": "F#2",
            "ticks": 23520,
            "time": 138.352872,
            "velocity": 0.8267716535433071
          },
          {
            "duration": 0.0823528999999894,
            "durationTicks": 14,
            "midi": 42,
            "name": "F#2",
            "ticks": 23580,
            "time": 138.705813,
            "velocity": 0.8267716535433071
          },
          {
            "duration": 0.08235290000001783,
            "durationTicks": 14,
            "midi": 44,
            "name": "G#2",
            "ticks": 23610,
            "time": 138.8822835,
            "velocity": 0.8267716535433071
          },
          {
            "duration": 0.08235290000001783,
            "durationTicks": 14,
            "midi": 42,
            "name": "F#2",
            "ticks": 23640,
            "time": 139.058754,
            "velocity": 0.8267716535433071
          },
          {
            "duration": 0.0823528999999894,
            "durationTicks": 14,
            "midi": 42,
            "name": "F#2",
            "ticks": 23700,
            "time": 139.411695,
            "velocity": 0.8267716535433071
          },
          {
            "duration": 0.08235290000001783,
            "durationTicks": 14,
            "midi": 44,
            "name": "G#2",
            "ticks": 23730,
            "time": 139.5881655,
            "velocity": 0.8267716535433071
          },
          {
            "duration": 0.08235290000001783,
            "durationTicks": 14,
            "midi": 42,
            "name": "F#2",
            "ticks": 23760,
            "time": 139.764636,
            "velocity": 0.8267716535433071
          },
          {
            "duration": 0.0823528999999894,
            "durationTicks": 14,
            "midi": 42,
            "name": "F#2",
            "ticks": 23820,
            "time": 140.117577,
            "velocity": 0.8267716535433071
          },
          {
            "duration": 0.0823528999999894,
            "durationTicks": 14,
            "midi": 44,
            "name": "G#2",
            "ticks": 23850,
            "time": 140.2940475,
            "velocity": 0.8267716535433071
          },
          {
            "duration": 0.08235290000001783,
            "durationTicks": 14,
            "midi": 42,
            "name": "F#2",
            "ticks": 23880,
            "time": 140.470518,
            "velocity": 0.8267716535433071
          },
          {
            "duration": 0.0823528999999894,
            "durationTicks": 14,
            "midi": 42,
            "name": "F#2",
            "ticks": 23940,
            "time": 140.823459,
            "velocity": 0.8267716535433071
          },
          {
            "duration": 0.0823528999999894,
            "durationTicks": 14,
            "midi": 44,
            "name": "G#2",
            "ticks": 23970,
            "time": 140.9999295,
            "velocity": 0.8267716535433071
          },
          {
            "duration": 0.08235290000001783,
            "durationTicks": 14,
            "midi": 42,
            "name": "F#2",
            "ticks": 24000,
            "time": 141.1764,
            "velocity": 0.8267716535433071
          },
          {
            "duration": 0.08235290000001783,
            "durationTicks": 14,
            "midi": 42,
            "name": "F#2",
            "ticks": 24060,
            "time": 141.529341,
            "velocity": 0.8267716535433071
          },
          {
            "duration": 0.0823528999999894,
            "durationTicks": 14,
            "midi": 44,
            "name": "G#2",
            "ticks": 24090,
            "time": 141.7058115,
            "velocity": 0.8267716535433071
          },
          {
            "duration": 0.08235290000001783,
            "durationTicks": 14,
            "midi": 42,
            "name": "F#2",
            "ticks": 24120,
            "time": 141.882282,
            "velocity": 0.8267716535433071
          },
          {
            "duration": 0.08235290000001783,
            "durationTicks": 14,
            "midi": 42,
            "name": "F#2",
            "ticks": 24180,
            "time": 142.235223,
            "velocity": 0.8267716535433071
          },
          {
            "duration": 0.0823528999999894,
            "durationTicks": 14,
            "midi": 44,
            "name": "G#2",
            "ticks": 24210,
            "time": 142.4116935,
            "velocity": 0.8267716535433071
          },
          {
            "duration": 0.0823528999999894,
            "durationTicks": 14,
            "midi": 42,
            "name": "F#2",
            "ticks": 24240,
            "time": 142.588164,
            "velocity": 0.8267716535433071
          },
          {
            "duration": 0.08235290000001783,
            "durationTicks": 14,
            "midi": 42,
            "name": "F#2",
            "ticks": 24300,
            "time": 142.941105,
            "velocity": 0.8267716535433071
          },
          {
            "duration": 0.0823528999999894,
            "durationTicks": 14,
            "midi": 44,
            "name": "G#2",
            "ticks": 24330,
            "time": 143.11757550000002,
            "velocity": 0.8267716535433071
          },
          {
            "duration": 0.0823528999999894,
            "durationTicks": 14,
            "midi": 49,
            "name": "C#3",
            "ticks": 24360,
            "time": 143.294046,
            "velocity": 0.8267716535433071
          },
          {
            "duration": 0.0823528999999894,
            "durationTicks": 14,
            "midi": 42,
            "name": "F#2",
            "ticks": 24360,
            "time": 143.294046,
            "velocity": 0.8267716535433071
          },
          {
            "duration": 0.08235290000001783,
            "durationTicks": 14,
            "midi": 42,
            "name": "F#2",
            "ticks": 24420,
            "time": 143.646987,
            "velocity": 0.8267716535433071
          },
          {
            "duration": 0.08235290000001783,
            "durationTicks": 14,
            "midi": 44,
            "name": "G#2",
            "ticks": 24450,
            "time": 143.8234575,
            "velocity": 0.8267716535433071
          },
          {
            "duration": 0.0823528999999894,
            "durationTicks": 14,
            "midi": 57,
            "name": "A3",
            "ticks": 24480,
            "time": 143.999928,
            "velocity": 0.8267716535433071
          },
          {
            "duration": 0.0823528999999894,
            "durationTicks": 14,
            "midi": 42,
            "name": "F#2",
            "ticks": 24480,
            "time": 143.999928,
            "velocity": 0.8267716535433071
          },
          {
            "duration": 0.08235290000001783,
            "durationTicks": 14,
            "midi": 42,
            "name": "F#2",
            "ticks": 24540,
            "time": 144.352869,
            "velocity": 0.8267716535433071
          },
          {
            "duration": 0.08235290000001783,
            "durationTicks": 14,
            "midi": 44,
            "name": "G#2",
            "ticks": 24570,
            "time": 144.5293395,
            "velocity": 0.8267716535433071
          },
          {
            "duration": 0.0823528999999894,
            "durationTicks": 14,
            "midi": 42,
            "name": "F#2",
            "ticks": 24600,
            "time": 144.70581,
            "velocity": 0.8267716535433071
          },
          {
            "duration": 0.08235290000001783,
            "durationTicks": 14,
            "midi": 42,
            "name": "F#2",
            "ticks": 24660,
            "time": 145.058751,
            "velocity": 0.8267716535433071
          },
          {
            "duration": 0.08235290000001783,
            "durationTicks": 14,
            "midi": 44,
            "name": "G#2",
            "ticks": 24690,
            "time": 145.2352215,
            "velocity": 0.8267716535433071
          },
          {
            "duration": 0.08235290000001783,
            "durationTicks": 14,
            "midi": 42,
            "name": "F#2",
            "ticks": 24720,
            "time": 145.411692,
            "velocity": 0.8267716535433071
          },
          {
            "duration": 0.08235290000001783,
            "durationTicks": 14,
            "midi": 42,
            "name": "F#2",
            "ticks": 24780,
            "time": 145.764633,
            "velocity": 0.8267716535433071
          },
          {
            "duration": 0.08235290000001783,
            "durationTicks": 14,
            "midi": 44,
            "name": "G#2",
            "ticks": 24810,
            "time": 145.9411035,
            "velocity": 0.8267716535433071
          },
          {
            "duration": 0.08235290000001783,
            "durationTicks": 14,
            "midi": 42,
            "name": "F#2",
            "ticks": 24840,
            "time": 146.117574,
            "velocity": 0.8267716535433071
          },
          {
            "duration": 0.0823528999999894,
            "durationTicks": 14,
            "midi": 42,
            "name": "F#2",
            "ticks": 24900,
            "time": 146.470515,
            "velocity": 0.8267716535433071
          },
          {
            "duration": 0.08235290000001783,
            "durationTicks": 14,
            "midi": 44,
            "name": "G#2",
            "ticks": 24930,
            "time": 146.6469855,
            "velocity": 0.8267716535433071
          },
          {
            "duration": 0.08235290000001783,
            "durationTicks": 14,
            "midi": 42,
            "name": "F#2",
            "ticks": 24960,
            "time": 146.823456,
            "velocity": 0.8267716535433071
          },
          {
            "duration": 0.0823528999999894,
            "durationTicks": 14,
            "midi": 42,
            "name": "F#2",
            "ticks": 25020,
            "time": 147.176397,
            "velocity": 0.8267716535433071
          },
          {
            "duration": 0.08235290000001783,
            "durationTicks": 14,
            "midi": 44,
            "name": "G#2",
            "ticks": 25050,
            "time": 147.3528675,
            "velocity": 0.8267716535433071
          },
          {
            "duration": 0.08235290000001783,
            "durationTicks": 14,
            "midi": 42,
            "name": "F#2",
            "ticks": 25080,
            "time": 147.529338,
            "velocity": 0.8267716535433071
          },
          {
            "duration": 0.0823528999999894,
            "durationTicks": 14,
            "midi": 42,
            "name": "F#2",
            "ticks": 25140,
            "time": 147.882279,
            "velocity": 0.8267716535433071
          },
          {
            "duration": 0.0823528999999894,
            "durationTicks": 14,
            "midi": 44,
            "name": "G#2",
            "ticks": 25170,
            "time": 148.0587495,
            "velocity": 0.8267716535433071
          },
          {
            "duration": 0.08235290000001783,
            "durationTicks": 14,
            "midi": 42,
            "name": "F#2",
            "ticks": 25200,
            "time": 148.23522,
            "velocity": 0.8267716535433071
          },
          {
            "duration": 0.0823528999999894,
            "durationTicks": 14,
            "midi": 42,
            "name": "F#2",
            "ticks": 25260,
            "time": 148.588161,
            "velocity": 0.8267716535433071
          },
          {
            "duration": 0.0823528999999894,
            "durationTicks": 14,
            "midi": 44,
            "name": "G#2",
            "ticks": 25290,
            "time": 148.7646315,
            "velocity": 0.8267716535433071
          },
          {
            "duration": 0.08235290000001783,
            "durationTicks": 14,
            "midi": 49,
            "name": "C#3",
            "ticks": 25320,
            "time": 148.941102,
            "velocity": 0.8267716535433071
          },
          {
            "duration": 0.08235290000001783,
            "durationTicks": 14,
            "midi": 42,
            "name": "F#2",
            "ticks": 25320,
            "time": 148.941102,
            "velocity": 0.8267716535433071
          },
          {
            "duration": 0.08235290000001783,
            "durationTicks": 14,
            "midi": 42,
            "name": "F#2",
            "ticks": 25380,
            "time": 149.294043,
            "velocity": 0.8267716535433071
          },
          {
            "duration": 0.0823528999999894,
            "durationTicks": 14,
            "midi": 44,
            "name": "G#2",
            "ticks": 25410,
            "time": 149.4705135,
            "velocity": 0.8267716535433071
          },
          {
            "duration": 0.08235290000001783,
            "durationTicks": 14,
            "midi": 57,
            "name": "A3",
            "ticks": 25440,
            "time": 149.646984,
            "velocity": 0.8267716535433071
          },
          {
            "duration": 0.08235290000001783,
            "durationTicks": 14,
            "midi": 42,
            "name": "F#2",
            "ticks": 25440,
            "time": 149.646984,
            "velocity": 0.8267716535433071
          },
          {
            "duration": 0.08235290000001783,
            "durationTicks": 14,
            "midi": 42,
            "name": "F#2",
            "ticks": 25500,
            "time": 149.999925,
            "velocity": 0.8267716535433071
          },
          {
            "duration": 0.0823528999999894,
            "durationTicks": 14,
            "midi": 44,
            "name": "G#2",
            "ticks": 25530,
            "time": 150.1763955,
            "velocity": 0.8267716535433071
          },
          {
            "duration": 0.0823528999999894,
            "durationTicks": 14,
            "midi": 42,
            "name": "F#2",
            "ticks": 25560,
            "time": 150.352866,
            "velocity": 0.8267716535433071
          },
          {
            "duration": 0.08235290000001783,
            "durationTicks": 14,
            "midi": 42,
            "name": "F#2",
            "ticks": 25620,
            "time": 150.705807,
            "velocity": 0.8267716535433071
          },
          {
            "duration": 0.0823528999999894,
            "durationTicks": 14,
            "midi": 44,
            "name": "G#2",
            "ticks": 25650,
            "time": 150.88227750000001,
            "velocity": 0.8267716535433071
          },
          {
            "duration": 0.0823528999999894,
            "durationTicks": 14,
            "midi": 42,
            "name": "F#2",
            "ticks": 25680,
            "time": 151.058748,
            "velocity": 0.8267716535433071
          },
          {
            "duration": 0.08235290000001783,
            "durationTicks": 14,
            "midi": 42,
            "name": "F#2",
            "ticks": 25740,
            "time": 151.411689,
            "velocity": 0.8267716535433071
          },
          {
            "duration": 0.08235290000001783,
            "durationTicks": 14,
            "midi": 44,
            "name": "G#2",
            "ticks": 25770,
            "time": 151.5881595,
            "velocity": 0.8267716535433071
          },
          {
            "duration": 0.0823528999999894,
            "durationTicks": 14,
            "midi": 42,
            "name": "F#2",
            "ticks": 25800,
            "time": 151.76463,
            "velocity": 0.8267716535433071
          },
          {
            "duration": 0.08235290000001783,
            "durationTicks": 14,
            "midi": 42,
            "name": "F#2",
            "ticks": 25860,
            "time": 152.117571,
            "velocity": 0.8267716535433071
          },
          {
            "duration": 0.08235290000001783,
            "durationTicks": 14,
            "midi": 44,
            "name": "G#2",
            "ticks": 25890,
            "time": 152.2940415,
            "velocity": 0.8267716535433071
          },
          {
            "duration": 0.0823528999999894,
            "durationTicks": 14,
            "midi": 42,
            "name": "F#2",
            "ticks": 25920,
            "time": 152.470512,
            "velocity": 0.8267716535433071
          },
          {
            "duration": 0.08235290000001783,
            "durationTicks": 14,
            "midi": 42,
            "name": "F#2",
            "ticks": 25980,
            "time": 152.823453,
            "velocity": 0.8267716535433071
          },
          {
            "duration": 0.08235290000001783,
            "durationTicks": 14,
            "midi": 44,
            "name": "G#2",
            "ticks": 26010,
            "time": 152.9999235,
            "velocity": 0.8267716535433071
          },
          {
            "duration": 0.0823528999999894,
            "durationTicks": 14,
            "midi": 42,
            "name": "F#2",
            "ticks": 26040,
            "time": 153.17639400000002,
            "velocity": 0.8267716535433071
          },
          {
            "duration": 0.08235290000001783,
            "durationTicks": 14,
            "midi": 42,
            "name": "F#2",
            "ticks": 26100,
            "time": 153.529335,
            "velocity": 0.8267716535433071
          },
          {
            "duration": 0.08235290000001783,
            "durationTicks": 14,
            "midi": 44,
            "name": "G#2",
            "ticks": 26130,
            "time": 153.7058055,
            "velocity": 0.8267716535433071
          },
          {
            "duration": 0.08235290000001783,
            "durationTicks": 14,
            "midi": 42,
            "name": "F#2",
            "ticks": 26160,
            "time": 153.882276,
            "velocity": 0.8267716535433071
          },
          {
            "duration": 0.0823528999999894,
            "durationTicks": 14,
            "midi": 42,
            "name": "F#2",
            "ticks": 26220,
            "time": 154.235217,
            "velocity": 0.8267716535433071
          },
          {
            "duration": 0.08235290000001783,
            "durationTicks": 14,
            "midi": 44,
            "name": "G#2",
            "ticks": 26250,
            "time": 154.4116875,
            "velocity": 0.8267716535433071
          },
          {
            "duration": 0.08235290000001783,
            "durationTicks": 14,
            "midi": 49,
            "name": "C#3",
            "ticks": 26280,
            "time": 154.588158,
            "velocity": 0.8267716535433071
          },
          {
            "duration": 0.08235290000001783,
            "durationTicks": 14,
            "midi": 42,
            "name": "F#2",
            "ticks": 26280,
            "time": 154.588158,
            "velocity": 0.8267716535433071
          },
          {
            "duration": 0.0823528999999894,
            "durationTicks": 14,
            "midi": 42,
            "name": "F#2",
            "ticks": 26340,
            "time": 154.941099,
            "velocity": 0.8267716535433071
          },
          {
            "duration": 0.08235290000001783,
            "durationTicks": 14,
            "midi": 44,
            "name": "G#2",
            "ticks": 26370,
            "time": 155.1175695,
            "velocity": 0.8267716535433071
          },
          {
            "duration": 0.08235290000001783,
            "durationTicks": 14,
            "midi": 57,
            "name": "A3",
            "ticks": 26400,
            "time": 155.29404,
            "velocity": 0.8267716535433071
          },
          {
            "duration": 0.08235290000001783,
            "durationTicks": 14,
            "midi": 42,
            "name": "F#2",
            "ticks": 26400,
            "time": 155.29404,
            "velocity": 0.8267716535433071
          },
          {
            "duration": 0.0823528999999894,
            "durationTicks": 14,
            "midi": 42,
            "name": "F#2",
            "ticks": 26460,
            "time": 155.646981,
            "velocity": 0.8267716535433071
          },
          {
            "duration": 0.0823528999999894,
            "durationTicks": 14,
            "midi": 44,
            "name": "G#2",
            "ticks": 26490,
            "time": 155.8234515,
            "velocity": 0.8267716535433071
          },
          {
            "duration": 0.08235290000001783,
            "durationTicks": 14,
            "midi": 42,
            "name": "F#2",
            "ticks": 26520,
            "time": 155.999922,
            "velocity": 0.8267716535433071
          },
          {
            "duration": 0.0823528999999894,
            "durationTicks": 14,
            "midi": 42,
            "name": "F#2",
            "ticks": 26580,
            "time": 156.352863,
            "velocity": 0.8267716535433071
          },
          {
            "duration": 0.0823528999999894,
            "durationTicks": 14,
            "midi": 44,
            "name": "G#2",
            "ticks": 26610,
            "time": 156.5293335,
            "velocity": 0.8267716535433071
          },
          {
            "duration": 0.08235290000001783,
            "durationTicks": 14,
            "midi": 42,
            "name": "F#2",
            "ticks": 26640,
            "time": 156.705804,
            "velocity": 0.8267716535433071
          },
          {
            "duration": 0.0823528999999894,
            "durationTicks": 14,
            "midi": 42,
            "name": "F#2",
            "ticks": 26700,
            "time": 157.05874500000002,
            "velocity": 0.8267716535433071
          },
          {
            "duration": 0.0823528999999894,
            "durationTicks": 14,
            "midi": 44,
            "name": "G#2",
            "ticks": 26730,
            "time": 157.2352155,
            "velocity": 0.8267716535433071
          },
          {
            "duration": 0.08235290000001783,
            "durationTicks": 14,
            "midi": 42,
            "name": "F#2",
            "ticks": 26760,
            "time": 157.411686,
            "velocity": 0.8267716535433071
          },
          {
            "duration": 0.08235290000001783,
            "durationTicks": 14,
            "midi": 42,
            "name": "F#2",
            "ticks": 26820,
            "time": 157.764627,
            "velocity": 0.8267716535433071
          },
          {
            "duration": 0.0823528999999894,
            "durationTicks": 14,
            "midi": 44,
            "name": "G#2",
            "ticks": 26850,
            "time": 157.9410975,
            "velocity": 0.8267716535433071
          },
          {
            "duration": 0.0823528999999894,
            "durationTicks": 14,
            "midi": 42,
            "name": "F#2",
            "ticks": 26880,
            "time": 158.117568,
            "velocity": 0.8267716535433071
          },
          {
            "duration": 0.08235290000001783,
            "durationTicks": 14,
            "midi": 42,
            "name": "F#2",
            "ticks": 26940,
            "time": 158.470509,
            "velocity": 0.8267716535433071
          },
          {
            "duration": 0.0823528999999894,
            "durationTicks": 14,
            "midi": 44,
            "name": "G#2",
            "ticks": 26970,
            "time": 158.64697950000001,
            "velocity": 0.8267716535433071
          },
          {
            "duration": 0.0823528999999894,
            "durationTicks": 14,
            "midi": 42,
            "name": "F#2",
            "ticks": 27000,
            "time": 158.82345,
            "velocity": 0.8267716535433071
          },
          {
            "duration": 0.08235290000001783,
            "durationTicks": 14,
            "midi": 42,
            "name": "F#2",
            "ticks": 27060,
            "time": 159.176391,
            "velocity": 0.8267716535433071
          },
          {
            "duration": 0.08235290000001783,
            "durationTicks": 14,
            "midi": 44,
            "name": "G#2",
            "ticks": 27090,
            "time": 159.3528615,
            "velocity": 0.8267716535433071
          },
          {
            "duration": 0.0823528999999894,
            "durationTicks": 14,
            "midi": 42,
            "name": "F#2",
            "ticks": 27120,
            "time": 159.529332,
            "velocity": 0.8267716535433071
          },
          {
            "duration": 0.08235290000001783,
            "durationTicks": 14,
            "midi": 42,
            "name": "F#2",
            "ticks": 27180,
            "time": 159.882273,
            "velocity": 0.8267716535433071
          },
          {
            "duration": 0.08235290000001783,
            "durationTicks": 14,
            "midi": 44,
            "name": "G#2",
            "ticks": 27210,
            "time": 160.0587435,
            "velocity": 0.8267716535433071
          },
          {
            "duration": 0.0823528999999894,
            "durationTicks": 14,
            "midi": 49,
            "name": "C#3",
            "ticks": 27240,
            "time": 160.235214,
            "velocity": 0.8267716535433071
          },
          {
            "duration": 0.0823528999999894,
            "durationTicks": 14,
            "midi": 42,
            "name": "F#2",
            "ticks": 27240,
            "time": 160.235214,
            "velocity": 0.8267716535433071
          },
          {
            "duration": 0.08235290000001783,
            "durationTicks": 14,
            "midi": 42,
            "name": "F#2",
            "ticks": 27300,
            "time": 160.588155,
            "velocity": 0.8267716535433071
          },
          {
            "duration": 0.08235290000001783,
            "durationTicks": 14,
            "midi": 44,
            "name": "G#2",
            "ticks": 27330,
            "time": 160.7646255,
            "velocity": 0.8267716535433071
          },
          {
            "duration": 0.0823528999999894,
            "durationTicks": 14,
            "midi": 57,
            "name": "A3",
            "ticks": 27360,
            "time": 160.94109600000002,
            "velocity": 0.8267716535433071
          },
          {
            "duration": 0.0823528999999894,
            "durationTicks": 14,
            "midi": 42,
            "name": "F#2",
            "ticks": 27360,
            "time": 160.94109600000002,
            "velocity": 0.8267716535433071
          },
          {
            "duration": 0.08235290000001783,
            "durationTicks": 14,
            "midi": 42,
            "name": "F#2",
            "ticks": 27420,
            "time": 161.294037,
            "velocity": 0.8267716535433071
          },
          {
            "duration": 0.08235290000001783,
            "durationTicks": 14,
            "midi": 44,
            "name": "G#2",
            "ticks": 27450,
            "time": 161.4705075,
            "velocity": 0.8267716535433071
          },
          {
            "duration": 0.08235290000001783,
            "durationTicks": 14,
            "midi": 53,
            "name": "F3",
            "ticks": 27480,
            "time": 161.646978,
            "velocity": 0.8267716535433071
          },
          {
            "duration": 0.08235290000001783,
            "durationTicks": 14,
            "midi": 42,
            "name": "F#2",
            "ticks": 27480,
            "time": 161.646978,
            "velocity": 0.8267716535433071
          },
          {
            "duration": 0.0823528999999894,
            "durationTicks": 14,
            "midi": 42,
            "name": "F#2",
            "ticks": 27540,
            "time": 161.999919,
            "velocity": 0.8267716535433071
          },
          {
            "duration": 0.08235290000001783,
            "durationTicks": 14,
            "midi": 44,
            "name": "G#2",
            "ticks": 27570,
            "time": 162.1763895,
            "velocity": 0.8267716535433071
          },
          {
            "duration": 0.08235290000001783,
            "durationTicks": 14,
            "midi": 53,
            "name": "F3",
            "ticks": 27600,
            "time": 162.35286,
            "velocity": 0.8267716535433071
          },
          {
            "duration": 0.08235290000001783,
            "durationTicks": 14,
            "midi": 42,
            "name": "F#2",
            "ticks": 27600,
            "time": 162.35286,
            "velocity": 0.8267716535433071
          },
          {
            "duration": 0.0823528999999894,
            "durationTicks": 14,
            "midi": 42,
            "name": "F#2",
            "ticks": 27660,
            "time": 162.705801,
            "velocity": 0.8267716535433071
          },
          {
            "duration": 0.08235290000001783,
            "durationTicks": 14,
            "midi": 44,
            "name": "G#2",
            "ticks": 27690,
            "time": 162.8822715,
            "velocity": 0.8267716535433071
          },
          {
            "duration": 0.08235290000001783,
            "durationTicks": 14,
            "midi": 53,
            "name": "F3",
            "ticks": 27720,
            "time": 163.058742,
            "velocity": 0.8267716535433071
          },
          {
            "duration": 0.08235290000001783,
            "durationTicks": 14,
            "midi": 42,
            "name": "F#2",
            "ticks": 27720,
            "time": 163.058742,
            "velocity": 0.8267716535433071
          },
          {
            "duration": 0.0823528999999894,
            "durationTicks": 14,
            "midi": 42,
            "name": "F#2",
            "ticks": 27780,
            "time": 163.411683,
            "velocity": 0.8267716535433071
          },
          {
            "duration": 0.0823528999999894,
            "durationTicks": 14,
            "midi": 44,
            "name": "G#2",
            "ticks": 27810,
            "time": 163.5881535,
            "velocity": 0.8267716535433071
          },
          {
            "duration": 0.08235290000001783,
            "durationTicks": 14,
            "midi": 53,
            "name": "F3",
            "ticks": 27840,
            "time": 163.764624,
            "velocity": 0.8267716535433071
          },
          {
            "duration": 0.08235290000001783,
            "durationTicks": 14,
            "midi": 42,
            "name": "F#2",
            "ticks": 27840,
            "time": 163.764624,
            "velocity": 0.8267716535433071
          },
          {
            "duration": 0.0823528999999894,
            "durationTicks": 14,
            "midi": 42,
            "name": "F#2",
            "ticks": 27900,
            "time": 164.117565,
            "velocity": 0.8267716535433071
          },
          {
            "duration": 0.0823528999999894,
            "durationTicks": 14,
            "midi": 44,
            "name": "G#2",
            "ticks": 27930,
            "time": 164.2940355,
            "velocity": 0.8267716535433071
          },
          {
            "duration": 0.08235290000001783,
            "durationTicks": 14,
            "midi": 53,
            "name": "F3",
            "ticks": 27960,
            "time": 164.470506,
            "velocity": 0.8267716535433071
          },
          {
            "duration": 0.08235290000001783,
            "durationTicks": 14,
            "midi": 42,
            "name": "F#2",
            "ticks": 27960,
            "time": 164.470506,
            "velocity": 0.8267716535433071
          },
          {
            "duration": 0.0823528999999894,
            "durationTicks": 14,
            "midi": 42,
            "name": "F#2",
            "ticks": 28020,
            "time": 164.82344700000002,
            "velocity": 0.8267716535433071
          },
          {
            "duration": 0.0823528999999894,
            "durationTicks": 14,
            "midi": 44,
            "name": "G#2",
            "ticks": 28050,
            "time": 164.9999175,
            "velocity": 0.8267716535433071
          },
          {
            "duration": 0.08235290000001783,
            "durationTicks": 14,
            "midi": 53,
            "name": "F3",
            "ticks": 28080,
            "time": 165.176388,
            "velocity": 0.8267716535433071
          },
          {
            "duration": 0.08235290000001783,
            "durationTicks": 14,
            "midi": 42,
            "name": "F#2",
            "ticks": 28080,
            "time": 165.176388,
            "velocity": 0.8267716535433071
          },
          {
            "duration": 0.08235290000001783,
            "durationTicks": 14,
            "midi": 42,
            "name": "F#2",
            "ticks": 28140,
            "time": 165.529329,
            "velocity": 0.8267716535433071
          },
          {
            "duration": 0.0823528999999894,
            "durationTicks": 14,
            "midi": 44,
            "name": "G#2",
            "ticks": 28170,
            "time": 165.7057995,
            "velocity": 0.8267716535433071
          },
          {
            "duration": 0.0823528999999894,
            "durationTicks": 14,
            "midi": 49,
            "name": "C#3",
            "ticks": 28200,
            "time": 165.88227,
            "velocity": 0.8267716535433071
          },
          {
            "duration": 0.0823528999999894,
            "durationTicks": 14,
            "midi": 42,
            "name": "F#2",
            "ticks": 28200,
            "time": 165.88227,
            "velocity": 0.8267716535433071
          },
          {
            "duration": 0.08235290000001783,
            "durationTicks": 14,
            "midi": 42,
            "name": "F#2",
            "ticks": 28260,
            "time": 166.235211,
            "velocity": 0.8267716535433071
          },
          {
            "duration": 0.0823528999999894,
            "durationTicks": 14,
            "midi": 44,
            "name": "G#2",
            "ticks": 28290,
            "time": 166.41168150000001,
            "velocity": 0.8267716535433071
          },
          {
            "duration": 0.0823528999999894,
            "durationTicks": 14,
            "midi": 57,
            "name": "A3",
            "ticks": 28320,
            "time": 166.588152,
            "velocity": 0.8267716535433071
          },
          {
            "duration": 0.0823528999999894,
            "durationTicks": 14,
            "midi": 42,
            "name": "F#2",
            "ticks": 28320,
            "time": 166.588152,
            "velocity": 0.8267716535433071
          },
          {
            "duration": 0.08235290000001783,
            "durationTicks": 14,
            "midi": 42,
            "name": "F#2",
            "ticks": 28380,
            "time": 166.941093,
            "velocity": 0.8267716535433071
          },
          {
            "duration": 0.08235290000001783,
            "durationTicks": 14,
            "midi": 44,
            "name": "G#2",
            "ticks": 28410,
            "time": 167.1175635,
            "velocity": 0.8267716535433071
          },
          {
            "duration": 0.0823528999999894,
            "durationTicks": 14,
            "midi": 53,
            "name": "F3",
            "ticks": 28440,
            "time": 167.294034,
            "velocity": 0.8267716535433071
          },
          {
            "duration": 0.0823528999999894,
            "durationTicks": 14,
            "midi": 42,
            "name": "F#2",
            "ticks": 28440,
            "time": 167.294034,
            "velocity": 0.8267716535433071
          },
          {
            "duration": 0.08235290000001783,
            "durationTicks": 14,
            "midi": 42,
            "name": "F#2",
            "ticks": 28500,
            "time": 167.646975,
            "velocity": 0.8267716535433071
          },
          {
            "duration": 0.08235290000001783,
            "durationTicks": 14,
            "midi": 44,
            "name": "G#2",
            "ticks": 28530,
            "time": 167.8234455,
            "velocity": 0.8267716535433071
          },
          {
            "duration": 0.0823528999999894,
            "durationTicks": 14,
            "midi": 53,
            "name": "F3",
            "ticks": 28560,
            "time": 167.999916,
            "velocity": 0.8267716535433071
          },
          {
            "duration": 0.0823528999999894,
            "durationTicks": 14,
            "midi": 42,
            "name": "F#2",
            "ticks": 28560,
            "time": 167.999916,
            "velocity": 0.8267716535433071
          },
          {
            "duration": 0.08235290000001783,
            "durationTicks": 14,
            "midi": 42,
            "name": "F#2",
            "ticks": 28620,
            "time": 168.352857,
            "velocity": 0.8267716535433071
          },
          {
            "duration": 0.08235290000001783,
            "durationTicks": 14,
            "midi": 44,
            "name": "G#2",
            "ticks": 28650,
            "time": 168.5293275,
            "velocity": 0.8267716535433071
          },
          {
            "duration": 0.0823528999999894,
            "durationTicks": 14,
            "midi": 53,
            "name": "F3",
            "ticks": 28680,
            "time": 168.70579800000002,
            "velocity": 0.8267716535433071
          },
          {
            "duration": 0.0823528999999894,
            "durationTicks": 14,
            "midi": 42,
            "name": "F#2",
            "ticks": 28680,
            "time": 168.70579800000002,
            "velocity": 0.8267716535433071
          },
          {
            "duration": 0.08235290000001783,
            "durationTicks": 14,
            "midi": 42,
            "name": "F#2",
            "ticks": 28740,
            "time": 169.058739,
            "velocity": 0.8267716535433071
          },
          {
            "duration": 0.08235290000001783,
            "durationTicks": 14,
            "midi": 44,
            "name": "G#2",
            "ticks": 28770,
            "time": 169.2352095,
            "velocity": 0.8267716535433071
          },
          {
            "duration": 0.08235290000001783,
            "durationTicks": 14,
            "midi": 53,
            "name": "F3",
            "ticks": 28800,
            "time": 169.41168,
            "velocity": 0.8267716535433071
          },
          {
            "duration": 0.08235290000001783,
            "durationTicks": 14,
            "midi": 42,
            "name": "F#2",
            "ticks": 28800,
            "time": 169.41168,
            "velocity": 0.8267716535433071
          },
          {
            "duration": 0.0823528999999894,
            "durationTicks": 14,
            "midi": 42,
            "name": "F#2",
            "ticks": 28860,
            "time": 169.764621,
            "velocity": 0.8267716535433071
          },
          {
            "duration": 0.08235290000001783,
            "durationTicks": 14,
            "midi": 44,
            "name": "G#2",
            "ticks": 28890,
            "time": 169.9410915,
            "velocity": 0.8267716535433071
          },
          {
            "duration": 0.08235290000001783,
            "durationTicks": 14,
            "midi": 53,
            "name": "F3",
            "ticks": 28920,
            "time": 170.117562,
            "velocity": 0.8267716535433071
          },
          {
            "duration": 0.08235290000001783,
            "durationTicks": 14,
            "midi": 42,
            "name": "F#2",
            "ticks": 28920,
            "time": 170.117562,
            "velocity": 0.8267716535433071
          },
          {
            "duration": 0.0823528999999894,
            "durationTicks": 14,
            "midi": 42,
            "name": "F#2",
            "ticks": 28980,
            "time": 170.470503,
            "velocity": 0.8267716535433071
          },
          {
            "duration": 0.08235290000001783,
            "durationTicks": 14,
            "midi": 44,
            "name": "G#2",
            "ticks": 29010,
            "time": 170.6469735,
            "velocity": 0.8267716535433071
          },
          {
            "duration": 0.08235290000001783,
            "durationTicks": 14,
            "midi": 53,
            "name": "F3",
            "ticks": 29040,
            "time": 170.823444,
            "velocity": 0.8267716535433071
          },
          {
            "duration": 0.08235290000001783,
            "durationTicks": 14,
            "midi": 42,
            "name": "F#2",
            "ticks": 29040,
            "time": 170.823444,
            "velocity": 0.8267716535433071
          },
          {
            "duration": 0.0823528999999894,
            "durationTicks": 14,
            "midi": 42,
            "name": "F#2",
            "ticks": 29100,
            "time": 171.176385,
            "velocity": 0.8267716535433071
          },
          {
            "duration": 0.08235290000001783,
            "durationTicks": 14,
            "midi": 44,
            "name": "G#2",
            "ticks": 29130,
            "time": 171.3528555,
            "velocity": 0.8267716535433071
          },
          {
            "duration": 0.08235290000001783,
            "durationTicks": 14,
            "midi": 49,
            "name": "C#3",
            "ticks": 29160,
            "time": 171.529326,
            "velocity": 0.8267716535433071
          },
          {
            "duration": 0.08235290000001783,
            "durationTicks": 14,
            "midi": 42,
            "name": "F#2",
            "ticks": 29160,
            "time": 171.529326,
            "velocity": 0.8267716535433071
          },
          {
            "duration": 0.0823528999999894,
            "durationTicks": 14,
            "midi": 42,
            "name": "F#2",
            "ticks": 29220,
            "time": 171.882267,
            "velocity": 0.8267716535433071
          },
          {
            "duration": 0.0823528999999894,
            "durationTicks": 14,
            "midi": 44,
            "name": "G#2",
            "ticks": 29250,
            "time": 172.0587375,
            "velocity": 0.8267716535433071
          },
          {
            "duration": 0.08235290000001783,
            "durationTicks": 14,
            "midi": 57,
            "name": "A3",
            "ticks": 29280,
            "time": 172.235208,
            "velocity": 0.8267716535433071
          },
          {
            "duration": 0.08235290000001783,
            "durationTicks": 14,
            "midi": 42,
            "name": "F#2",
            "ticks": 29280,
            "time": 172.235208,
            "velocity": 0.8267716535433071
          },
          {
            "duration": 0.0823528999999894,
            "durationTicks": 14,
            "midi": 42,
            "name": "F#2",
            "ticks": 29340,
            "time": 172.58814900000002,
            "velocity": 0.8267716535433071
          },
          {
            "duration": 0.0823528999999894,
            "durationTicks": 14,
            "midi": 44,
            "name": "G#2",
            "ticks": 29370,
            "time": 172.7646195,
            "velocity": 0.8267716535433071
          },
          {
            "duration": 0.08235290000001783,
            "durationTicks": 14,
            "midi": 53,
            "name": "F3",
            "ticks": 29400,
            "time": 172.94109,
            "velocity": 0.8267716535433071
          },
          {
            "duration": 0.08235290000001783,
            "durationTicks": 14,
            "midi": 42,
            "name": "F#2",
            "ticks": 29400,
            "time": 172.94109,
            "velocity": 0.8267716535433071
          },
          {
            "duration": 0.08235290000001783,
            "durationTicks": 14,
            "midi": 42,
            "name": "F#2",
            "ticks": 29460,
            "time": 173.294031,
            "velocity": 0.8267716535433071
          },
          {
            "duration": 0.0823528999999894,
            "durationTicks": 14,
            "midi": 44,
            "name": "G#2",
            "ticks": 29490,
            "time": 173.4705015,
            "velocity": 0.8267716535433071
          },
          {
            "duration": 0.0823528999999894,
            "durationTicks": 14,
            "midi": 53,
            "name": "F3",
            "ticks": 29520,
            "time": 173.646972,
            "velocity": 0.8267716535433071
          },
          {
            "duration": 0.0823528999999894,
            "durationTicks": 14,
            "midi": 42,
            "name": "F#2",
            "ticks": 29520,
            "time": 173.646972,
            "velocity": 0.8267716535433071
          },
          {
            "duration": 0.08235290000001783,
            "durationTicks": 14,
            "midi": 42,
            "name": "F#2",
            "ticks": 29580,
            "time": 173.999913,
            "velocity": 0.8267716535433071
          },
          {
            "duration": 0.0823528999999894,
            "durationTicks": 14,
            "midi": 44,
            "name": "G#2",
            "ticks": 29610,
            "time": 174.17638350000001,
            "velocity": 0.8267716535433071
          },
          {
            "duration": 0.0823528999999894,
            "durationTicks": 14,
            "midi": 53,
            "name": "F3",
            "ticks": 29640,
            "time": 174.352854,
            "velocity": 0.8267716535433071
          },
          {
            "duration": 0.0823528999999894,
            "durationTicks": 14,
            "midi": 42,
            "name": "F#2",
            "ticks": 29640,
            "time": 174.352854,
            "velocity": 0.8267716535433071
          },
          {
            "duration": 0.08235290000001783,
            "durationTicks": 14,
            "midi": 42,
            "name": "F#2",
            "ticks": 29700,
            "time": 174.705795,
            "velocity": 0.8267716535433071
          },
          {
            "duration": 0.08235290000001783,
            "durationTicks": 14,
            "midi": 44,
            "name": "G#2",
            "ticks": 29730,
            "time": 174.8822655,
            "velocity": 0.8267716535433071
          },
          {
            "duration": 0.0823528999999894,
            "durationTicks": 14,
            "midi": 53,
            "name": "F3",
            "ticks": 29760,
            "time": 175.058736,
            "velocity": 0.8267716535433071
          },
          {
            "duration": 0.0823528999999894,
            "durationTicks": 14,
            "midi": 42,
            "name": "F#2",
            "ticks": 29760,
            "time": 175.058736,
            "velocity": 0.8267716535433071
          },
          {
            "duration": 0.08235290000001783,
            "durationTicks": 14,
            "midi": 42,
            "name": "F#2",
            "ticks": 29820,
            "time": 175.411677,
            "velocity": 0.8267716535433071
          },
          {
            "duration": 0.08235290000001783,
            "durationTicks": 14,
            "midi": 44,
            "name": "G#2",
            "ticks": 29850,
            "time": 175.5881475,
            "velocity": 0.8267716535433071
          },
          {
            "duration": 0.0823528999999894,
            "durationTicks": 14,
            "midi": 53,
            "name": "F3",
            "ticks": 29880,
            "time": 175.764618,
            "velocity": 0.8267716535433071
          },
          {
            "duration": 0.0823528999999894,
            "durationTicks": 14,
            "midi": 42,
            "name": "F#2",
            "ticks": 29880,
            "time": 175.764618,
            "velocity": 0.8267716535433071
          },
          {
            "duration": 0.08235290000001783,
            "durationTicks": 14,
            "midi": 42,
            "name": "F#2",
            "ticks": 29940,
            "time": 176.117559,
            "velocity": 0.8267716535433071
          },
          {
            "duration": 0.08235290000001783,
            "durationTicks": 14,
            "midi": 44,
            "name": "G#2",
            "ticks": 29970,
            "time": 176.2940295,
            "velocity": 0.8267716535433071
          },
          {
            "duration": 0.0823528999999894,
            "durationTicks": 14,
            "midi": 53,
            "name": "F3",
            "ticks": 30000,
            "time": 176.47050000000002,
            "velocity": 0.8267716535433071
          },
          {
            "duration": 0.0823528999999894,
            "durationTicks": 14,
            "midi": 42,
            "name": "F#2",
            "ticks": 30000,
            "time": 176.47050000000002,
            "velocity": 0.8267716535433071
          },
          {
            "duration": 0.08235290000001783,
            "durationTicks": 14,
            "midi": 42,
            "name": "F#2",
            "ticks": 30060,
            "time": 176.823441,
            "velocity": 0.8267716535433071
          },
          {
            "duration": 0.08235290000001783,
            "durationTicks": 14,
            "midi": 44,
            "name": "G#2",
            "ticks": 30090,
            "time": 176.9999115,
            "velocity": 0.8267716535433071
          },
          {
            "duration": 0.08235290000001783,
            "durationTicks": 14,
            "midi": 49,
            "name": "C#3",
            "ticks": 30120,
            "time": 177.176382,
            "velocity": 0.8267716535433071
          },
          {
            "duration": 0.08235290000001783,
            "durationTicks": 14,
            "midi": 42,
            "name": "F#2",
            "ticks": 30120,
            "time": 177.176382,
            "velocity": 0.8267716535433071
          },
          {
            "duration": 0.0823528999999894,
            "durationTicks": 14,
            "midi": 42,
            "name": "F#2",
            "ticks": 30180,
            "time": 177.529323,
            "velocity": 0.8267716535433071
          },
          {
            "duration": 0.08235290000001783,
            "durationTicks": 14,
            "midi": 44,
            "name": "G#2",
            "ticks": 30210,
            "time": 177.7057935,
            "velocity": 0.8267716535433071
          },
          {
            "duration": 0.08235290000001783,
            "durationTicks": 14,
            "midi": 57,
            "name": "A3",
            "ticks": 30240,
            "time": 177.882264,
            "velocity": 0.8267716535433071
          },
          {
            "duration": 0.08235290000001783,
            "durationTicks": 14,
            "midi": 42,
            "name": "F#2",
            "ticks": 30240,
            "time": 177.882264,
            "velocity": 0.8267716535433071
          },
          {
            "duration": 0.0823528999999894,
            "durationTicks": 14,
            "midi": 42,
            "name": "F#2",
            "ticks": 30300,
            "time": 178.235205,
            "velocity": 0.8267716535433071
          },
          {
            "duration": 0.08235290000001783,
            "durationTicks": 14,
            "midi": 44,
            "name": "G#2",
            "ticks": 30330,
            "time": 178.4116755,
            "velocity": 0.8267716535433071
          },
          {
            "duration": 0.08235290000001783,
            "durationTicks": 14,
            "midi": 53,
            "name": "F3",
            "ticks": 30360,
            "time": 178.588146,
            "velocity": 0.8267716535433071
          },
          {
            "duration": 0.08235290000001783,
            "durationTicks": 14,
            "midi": 42,
            "name": "F#2",
            "ticks": 30360,
            "time": 178.588146,
            "velocity": 0.8267716535433071
          },
          {
            "duration": 0.0823528999999894,
            "durationTicks": 14,
            "midi": 42,
            "name": "F#2",
            "ticks": 30420,
            "time": 178.941087,
            "velocity": 0.8267716535433071
          },
          {
            "duration": 0.08235290000001783,
            "durationTicks": 14,
            "midi": 44,
            "name": "G#2",
            "ticks": 30450,
            "time": 179.1175575,
            "velocity": 0.8267716535433071
          },
          {
            "duration": 0.08235290000001783,
            "durationTicks": 14,
            "midi": 53,
            "name": "F3",
            "ticks": 30480,
            "time": 179.294028,
            "velocity": 0.8267716535433071
          },
          {
            "duration": 0.08235290000001783,
            "durationTicks": 14,
            "midi": 42,
            "name": "F#2",
            "ticks": 30480,
            "time": 179.294028,
            "velocity": 0.8267716535433071
          },
          {
            "duration": 0.0823528999999894,
            "durationTicks": 14,
            "midi": 42,
            "name": "F#2",
            "ticks": 30540,
            "time": 179.646969,
            "velocity": 0.8267716535433071
          },
          {
            "duration": 0.0823528999999894,
            "durationTicks": 14,
            "midi": 44,
            "name": "G#2",
            "ticks": 30570,
            "time": 179.8234395,
            "velocity": 0.8267716535433071
          },
          {
            "duration": 0.08235290000001783,
            "durationTicks": 14,
            "midi": 53,
            "name": "F3",
            "ticks": 30600,
            "time": 179.99991,
            "velocity": 0.8267716535433071
          },
          {
            "duration": 0.08235290000001783,
            "durationTicks": 14,
            "midi": 42,
            "name": "F#2",
            "ticks": 30600,
            "time": 179.99991,
            "velocity": 0.8267716535433071
          },
          {
            "duration": 0.0823528999999894,
            "durationTicks": 14,
            "midi": 42,
            "name": "F#2",
            "ticks": 30660,
            "time": 180.35285100000002,
            "velocity": 0.8267716535433071
          },
          {
            "duration": 0.0823528999999894,
            "durationTicks": 14,
            "midi": 44,
            "name": "G#2",
            "ticks": 30690,
            "time": 180.5293215,
            "velocity": 0.8267716535433071
          },
          {
            "duration": 0.08235290000001783,
            "durationTicks": 14,
            "midi": 57,
            "name": "A3",
            "ticks": 30720,
            "time": 180.705792,
            "velocity": 0.8267716535433071
          },
          {
            "duration": 0.08235290000001783,
            "durationTicks": 14,
            "midi": 42,
            "name": "F#2",
            "ticks": 30720,
            "time": 180.705792,
            "velocity": 0.8267716535433071
          },
          {
            "duration": 0.08235290000001783,
            "durationTicks": 14,
            "midi": 42,
            "name": "F#2",
            "ticks": 30780,
            "time": 181.058733,
            "velocity": 0.8267716535433071
          },
          {
            "duration": 0.0823528999999894,
            "durationTicks": 14,
            "midi": 42,
            "name": "F#2",
            "ticks": 30840,
            "time": 181.411674,
            "velocity": 0.8267716535433071
          },
          {
            "duration": 0.08235290000001783,
            "durationTicks": 14,
            "midi": 42,
            "name": "F#2",
            "ticks": 30900,
            "time": 181.764615,
            "velocity": 0.8267716535433071
          },
          {
            "duration": 0.0823528999999894,
            "durationTicks": 14,
            "midi": 49,
            "name": "C#3",
            "ticks": 30930,
            "time": 181.9410855,
            "velocity": 0.8267716535433071
          },
          {
            "duration": 0.0823528999999894,
            "durationTicks": 14,
            "midi": 42,
            "name": "F#2",
            "ticks": 30960,
            "time": 182.117556,
            "velocity": 0.8267716535433071
          },
          {
            "duration": 0.08235290000001783,
            "durationTicks": 14,
            "midi": 42,
            "name": "F#2",
            "ticks": 31020,
            "time": 182.470497,
            "velocity": 0.8267716535433071
          },
          {
            "duration": 0.0823528999999894,
            "durationTicks": 14,
            "midi": 42,
            "name": "F#2",
            "ticks": 31080,
            "time": 182.823438,
            "velocity": 0.8267716535433071
          },
          {
            "duration": 0.08235290000001783,
            "durationTicks": 14,
            "midi": 42,
            "name": "F#2",
            "ticks": 31140,
            "time": 183.176379,
            "velocity": 0.8267716535433071
          },
          {
            "duration": 0.0823528999999894,
            "durationTicks": 14,
            "midi": 42,
            "name": "F#2",
            "ticks": 31200,
            "time": 183.52932,
            "velocity": 0.8267716535433071
          },
          {
            "duration": 0.0823528999999894,
            "durationTicks": 14,
            "midi": 57,
            "name": "A3",
            "ticks": 31200,
            "time": 183.52932,
            "velocity": 0.8267716535433071
          },
          {
            "duration": 0.08235290000001783,
            "durationTicks": 14,
            "midi": 42,
            "name": "F#2",
            "ticks": 31260,
            "time": 183.882261,
            "velocity": 0.8267716535433071
          },
          {
            "duration": 0.08235290000001783,
            "durationTicks": 14,
            "midi": 44,
            "name": "G#2",
            "ticks": 31290,
            "time": 184.0587315,
            "velocity": 0.8267716535433071
          },
          {
            "duration": 0.0823528999999894,
            "durationTicks": 14,
            "midi": 46,
            "name": "A#2",
            "ticks": 31320,
            "time": 184.23520200000002,
            "velocity": 0.8267716535433071
          },
          {
            "duration": 0.08235290000001783,
            "durationTicks": 14,
            "midi": 42,
            "name": "F#2",
            "ticks": 31380,
            "time": 184.588143,
            "velocity": 0.8267716535433071
          },
          {
            "duration": 0.08235290000001783,
            "durationTicks": 14,
            "midi": 44,
            "name": "G#2",
            "ticks": 31410,
            "time": 184.7646135,
            "velocity": 0.8267716535433071
          },
          {
            "duration": 0.08235290000001783,
            "durationTicks": 14,
            "midi": 42,
            "name": "F#2",
            "ticks": 31440,
            "time": 184.941084,
            "velocity": 0.8267716535433071
          },
          {
            "duration": 0.0823528999999894,
            "durationTicks": 14,
            "midi": 42,
            "name": "F#2",
            "ticks": 31500,
            "time": 185.294025,
            "velocity": 0.8267716535433071
          },
          {
            "duration": 0.08235290000001783,
            "durationTicks": 14,
            "midi": 44,
            "name": "G#2",
            "ticks": 31530,
            "time": 185.4704955,
            "velocity": 0.8267716535433071
          },
          {
            "duration": 0.08235290000001783,
            "durationTicks": 14,
            "midi": 42,
            "name": "F#2",
            "ticks": 31560,
            "time": 185.646966,
            "velocity": 0.8267716535433071
          },
          {
            "duration": 0.0823528999999894,
            "durationTicks": 14,
            "midi": 42,
            "name": "F#2",
            "ticks": 31620,
            "time": 185.999907,
            "velocity": 0.8267716535433071
          },
          {
            "duration": 0.08235290000001783,
            "durationTicks": 14,
            "midi": 44,
            "name": "G#2",
            "ticks": 31650,
            "time": 186.1763775,
            "velocity": 0.8267716535433071
          },
          {
            "duration": 0.08235290000001783,
            "durationTicks": 14,
            "midi": 42,
            "name": "F#2",
            "ticks": 31680,
            "time": 186.352848,
            "velocity": 0.8267716535433071
          },
          {
            "duration": 0.0823528999999894,
            "durationTicks": 14,
            "midi": 42,
            "name": "F#2",
            "ticks": 31740,
            "time": 186.705789,
            "velocity": 0.8267716535433071
          },
          {
            "duration": 0.08235290000001783,
            "durationTicks": 14,
            "midi": 44,
            "name": "G#2",
            "ticks": 31770,
            "time": 186.8822595,
            "velocity": 0.8267716535433071
          },
          {
            "duration": 0.08235290000001783,
            "durationTicks": 14,
            "midi": 46,
            "name": "A#2",
            "ticks": 31800,
            "time": 187.05873,
            "velocity": 0.8267716535433071
          },
          {
            "duration": 0.0823528999999894,
            "durationTicks": 14,
            "midi": 42,
            "name": "F#2",
            "ticks": 31860,
            "time": 187.411671,
            "velocity": 0.8267716535433071
          },
          {
            "duration": 0.0823528999999894,
            "durationTicks": 14,
            "midi": 44,
            "name": "G#2",
            "ticks": 31890,
            "time": 187.5881415,
            "velocity": 0.8267716535433071
          },
          {
            "duration": 0.08235290000001783,
            "durationTicks": 14,
            "midi": 42,
            "name": "F#2",
            "ticks": 31920,
            "time": 187.764612,
            "velocity": 0.8267716535433071
          },
          {
            "duration": 0.0823528999999894,
            "durationTicks": 14,
            "midi": 42,
            "name": "F#2",
            "ticks": 31980,
            "time": 188.11755300000002,
            "velocity": 0.8267716535433071
          },
          {
            "duration": 0.0823528999999894,
            "durationTicks": 14,
            "midi": 44,
            "name": "G#2",
            "ticks": 32010,
            "time": 188.2940235,
            "velocity": 0.8267716535433071
          },
          {
            "duration": 0.08235290000001783,
            "durationTicks": 14,
            "midi": 42,
            "name": "F#2",
            "ticks": 32040,
            "time": 188.470494,
            "velocity": 0.8267716535433071
          },
          {
            "duration": 0.08235290000001783,
            "durationTicks": 14,
            "midi": 42,
            "name": "F#2",
            "ticks": 32100,
            "time": 188.823435,
            "velocity": 0.8267716535433071
          },
          {
            "duration": 0.0823528999999894,
            "durationTicks": 14,
            "midi": 44,
            "name": "G#2",
            "ticks": 32130,
            "time": 188.9999055,
            "velocity": 0.8267716535433071
          },
          {
            "duration": 0.0823528999999894,
            "durationTicks": 14,
            "midi": 42,
            "name": "F#2",
            "ticks": 32160,
            "time": 189.176376,
            "velocity": 0.8267716535433071
          },
          {
            "duration": 0.08235290000001783,
            "durationTicks": 14,
            "midi": 42,
            "name": "F#2",
            "ticks": 32220,
            "time": 189.529317,
            "velocity": 0.8267716535433071
          },
          {
            "duration": 0.0823528999999894,
            "durationTicks": 14,
            "midi": 44,
            "name": "G#2",
            "ticks": 32250,
            "time": 189.7057875,
            "velocity": 0.8267716535433071
          },
          {
            "duration": 0.0823528999999894,
            "durationTicks": 14,
            "midi": 46,
            "name": "A#2",
            "ticks": 32280,
            "time": 189.882258,
            "velocity": 0.8267716535433071
          },
          {
            "duration": 0.08235290000001783,
            "durationTicks": 14,
            "midi": 42,
            "name": "F#2",
            "ticks": 32340,
            "time": 190.235199,
            "velocity": 0.8267716535433071
          },
          {
            "duration": 0.0823528999999894,
            "durationTicks": 14,
            "midi": 44,
            "name": "G#2",
            "ticks": 32370,
            "time": 190.41166950000002,
            "velocity": 0.8267716535433071
          },
          {
            "duration": 0.0823528999999894,
            "durationTicks": 14,
            "midi": 42,
            "name": "F#2",
            "ticks": 32400,
            "time": 190.58814,
            "velocity": 0.8267716535433071
          },
          {
            "duration": 0.08235290000001783,
            "durationTicks": 14,
            "midi": 42,
            "name": "F#2",
            "ticks": 32460,
            "time": 190.941081,
            "velocity": 0.8267716535433071
          },
          {
            "duration": 0.08235290000001783,
            "durationTicks": 14,
            "midi": 44,
            "name": "G#2",
            "ticks": 32490,
            "time": 191.1175515,
            "velocity": 0.8267716535433071
          },
          {
            "duration": 0.0823528999999894,
            "durationTicks": 14,
            "midi": 42,
            "name": "F#2",
            "ticks": 32520,
            "time": 191.294022,
            "velocity": 0.8267716535433071
          },
          {
            "duration": 0.08235290000001783,
            "durationTicks": 14,
            "midi": 42,
            "name": "F#2",
            "ticks": 32580,
            "time": 191.646963,
            "velocity": 0.8267716535433071
          },
          {
            "duration": 0.08235290000001783,
            "durationTicks": 14,
            "midi": 44,
            "name": "G#2",
            "ticks": 32610,
            "time": 191.8234335,
            "velocity": 0.8267716535433071
          },
          {
            "duration": 0.0823528999999894,
            "durationTicks": 14,
            "midi": 42,
            "name": "F#2",
            "ticks": 32640,
            "time": 191.99990400000002,
            "velocity": 0.8267716535433071
          },
          {
            "duration": 0.08235290000001783,
            "durationTicks": 14,
            "midi": 42,
            "name": "F#2",
            "ticks": 32700,
            "time": 192.352845,
            "velocity": 0.8267716535433071
          },
          {
            "duration": 0.08235290000001783,
            "durationTicks": 14,
            "midi": 44,
            "name": "G#2",
            "ticks": 32730,
            "time": 192.5293155,
            "velocity": 0.8267716535433071
          },
          {
            "duration": 0.08235290000001783,
            "durationTicks": 14,
            "midi": 46,
            "name": "A#2",
            "ticks": 32760,
            "time": 192.705786,
            "velocity": 0.8267716535433071
          },
          {
            "duration": 0.0823528999999894,
            "durationTicks": 14,
            "midi": 42,
            "name": "F#2",
            "ticks": 32820,
            "time": 193.058727,
            "velocity": 0.8267716535433071
          },
          {
            "duration": 0.08235290000001783,
            "durationTicks": 14,
            "midi": 44,
            "name": "G#2",
            "ticks": 32850,
            "time": 193.2351975,
            "velocity": 0.8267716535433071
          },
          {
            "duration": 0.08235290000001783,
            "durationTicks": 14,
            "midi": 42,
            "name": "F#2",
            "ticks": 32880,
            "time": 193.411668,
            "velocity": 0.8267716535433071
          },
          {
            "duration": 0.0823528999999894,
            "durationTicks": 14,
            "midi": 42,
            "name": "F#2",
            "ticks": 32940,
            "time": 193.764609,
            "velocity": 0.8267716535433071
          },
          {
            "duration": 0.08235290000001783,
            "durationTicks": 14,
            "midi": 44,
            "name": "G#2",
            "ticks": 32970,
            "time": 193.9410795,
            "velocity": 0.8267716535433071
          },
          {
            "duration": 0.08235290000001783,
            "durationTicks": 14,
            "midi": 42,
            "name": "F#2",
            "ticks": 33000,
            "time": 194.11755,
            "velocity": 0.8267716535433071
          },
          {
            "duration": 0.0823528999999894,
            "durationTicks": 14,
            "midi": 42,
            "name": "F#2",
            "ticks": 33060,
            "time": 194.470491,
            "velocity": 0.8267716535433071
          },
          {
            "duration": 0.08235290000001783,
            "durationTicks": 14,
            "midi": 44,
            "name": "G#2",
            "ticks": 33090,
            "time": 194.6469615,
            "velocity": 0.8267716535433071
          },
          {
            "duration": 0.08235290000001783,
            "durationTicks": 14,
            "midi": 42,
            "name": "F#2",
            "ticks": 33120,
            "time": 194.823432,
            "velocity": 0.8267716535433071
          },
          {
            "duration": 0.0823528999999894,
            "durationTicks": 14,
            "midi": 42,
            "name": "F#2",
            "ticks": 33180,
            "time": 195.176373,
            "velocity": 0.8267716535433071
          },
          {
            "duration": 0.0823528999999894,
            "durationTicks": 14,
            "midi": 44,
            "name": "G#2",
            "ticks": 33210,
            "time": 195.3528435,
            "velocity": 0.8267716535433071
          },
          {
            "duration": 0.08235290000001783,
            "durationTicks": 14,
            "midi": 46,
            "name": "A#2",
            "ticks": 33240,
            "time": 195.529314,
            "velocity": 0.8267716535433071
          },
          {
            "duration": 0.0823528999999894,
            "durationTicks": 14,
            "midi": 42,
            "name": "F#2",
            "ticks": 33300,
            "time": 195.88225500000001,
            "velocity": 0.8267716535433071
          },
          {
            "duration": 0.0823528999999894,
            "durationTicks": 14,
            "midi": 44,
            "name": "G#2",
            "ticks": 33330,
            "time": 196.0587255,
            "velocity": 0.8267716535433071
          },
          {
            "duration": 0.08235290000001783,
            "durationTicks": 14,
            "midi": 42,
            "name": "F#2",
            "ticks": 33360,
            "time": 196.235196,
            "velocity": 0.8267716535433071
          },
          {
            "duration": 0.08235290000001783,
            "durationTicks": 14,
            "midi": 42,
            "name": "F#2",
            "ticks": 33420,
            "time": 196.588137,
            "velocity": 0.8267716535433071
          },
          {
            "duration": 0.0823528999999894,
            "durationTicks": 14,
            "midi": 44,
            "name": "G#2",
            "ticks": 33450,
            "time": 196.7646075,
            "velocity": 0.8267716535433071
          },
          {
            "duration": 0.0823528999999894,
            "durationTicks": 14,
            "midi": 42,
            "name": "F#2",
            "ticks": 33480,
            "time": 196.941078,
            "velocity": 0.8267716535433071
          },
          {
            "duration": 0.08235290000001783,
            "durationTicks": 14,
            "midi": 42,
            "name": "F#2",
            "ticks": 33540,
            "time": 197.294019,
            "velocity": 0.8267716535433071
          },
          {
            "duration": 0.0823528999999894,
            "durationTicks": 14,
            "midi": 44,
            "name": "G#2",
            "ticks": 33570,
            "time": 197.4704895,
            "velocity": 0.8267716535433071
          },
          {
            "duration": 0.0823528999999894,
            "durationTicks": 14,
            "midi": 42,
            "name": "F#2",
            "ticks": 33600,
            "time": 197.64696,
            "velocity": 0.8267716535433071
          },
          {
            "duration": 0.08235290000001783,
            "durationTicks": 14,
            "midi": 42,
            "name": "F#2",
            "ticks": 33660,
            "time": 197.999901,
            "velocity": 0.8267716535433071
          },
          {
            "duration": 0.0823528999999894,
            "durationTicks": 14,
            "midi": 44,
            "name": "G#2",
            "ticks": 33690,
            "time": 198.17637150000002,
            "velocity": 0.8267716535433071
          },
          {
            "duration": 0.0823528999999894,
            "durationTicks": 14,
            "midi": 46,
            "name": "A#2",
            "ticks": 33720,
            "time": 198.352842,
            "velocity": 0.8267716535433071
          },
          {
            "duration": 0.08235290000001783,
            "durationTicks": 14,
            "midi": 42,
            "name": "F#2",
            "ticks": 33780,
            "time": 198.705783,
            "velocity": 0.8267716535433071
          },
          {
            "duration": 0.08235290000001783,
            "durationTicks": 14,
            "midi": 44,
            "name": "G#2",
            "ticks": 33810,
            "time": 198.8822535,
            "velocity": 0.8267716535433071
          },
          {
            "duration": 0.0823528999999894,
            "durationTicks": 14,
            "midi": 42,
            "name": "F#2",
            "ticks": 33840,
            "time": 199.058724,
            "velocity": 0.8267716535433071
          },
          {
            "duration": 0.08235290000001783,
            "durationTicks": 14,
            "midi": 42,
            "name": "F#2",
            "ticks": 33900,
            "time": 199.411665,
            "velocity": 0.8267716535433071
          },
          {
            "duration": 0.08235290000001783,
            "durationTicks": 14,
            "midi": 44,
            "name": "G#2",
            "ticks": 33930,
            "time": 199.5881355,
            "velocity": 0.8267716535433071
          },
          {
            "duration": 0.0823528999999894,
            "durationTicks": 14,
            "midi": 42,
            "name": "F#2",
            "ticks": 33960,
            "time": 199.76460600000001,
            "velocity": 0.8267716535433071
          },
          {
            "duration": 0.08235290000001783,
            "durationTicks": 14,
            "midi": 42,
            "name": "F#2",
            "ticks": 34020,
            "time": 200.117547,
            "velocity": 0.8267716535433071
          },
          {
            "duration": 0.08235290000001783,
            "durationTicks": 14,
            "midi": 44,
            "name": "G#2",
            "ticks": 34050,
            "time": 200.2940175,
            "velocity": 0.8267716535433071
          },
          {
            "duration": 0.08235290000001783,
            "durationTicks": 14,
            "midi": 42,
            "name": "F#2",
            "ticks": 34080,
            "time": 200.470488,
            "velocity": 0.8267716535433071
          },
          {
            "duration": 0.08235290000001783,
            "durationTicks": 14,
            "midi": 42,
            "name": "F#2",
            "ticks": 34140,
            "time": 200.823429,
            "velocity": 0.8267716535433071
          },
          {
            "duration": 0.08235290000001783,
            "durationTicks": 14,
            "midi": 44,
            "name": "G#2",
            "ticks": 34170,
            "time": 200.9998995,
            "velocity": 0.8267716535433071
          },
          {
            "duration": 0.08235290000001783,
            "durationTicks": 14,
            "midi": 46,
            "name": "A#2",
            "ticks": 34200,
            "time": 201.17637,
            "velocity": 0.8267716535433071
          },
          {
            "duration": 0.0823528999999894,
            "durationTicks": 14,
            "midi": 42,
            "name": "F#2",
            "ticks": 34260,
            "time": 201.529311,
            "velocity": 0.8267716535433071
          },
          {
            "duration": 0.08235290000001783,
            "durationTicks": 14,
            "midi": 44,
            "name": "G#2",
            "ticks": 34290,
            "time": 201.7057815,
            "velocity": 0.8267716535433071
          },
          {
            "duration": 0.08235290000001783,
            "durationTicks": 14,
            "midi": 42,
            "name": "F#2",
            "ticks": 34320,
            "time": 201.882252,
            "velocity": 0.8267716535433071
          },
          {
            "duration": 0.0823528999999894,
            "durationTicks": 14,
            "midi": 42,
            "name": "F#2",
            "ticks": 34380,
            "time": 202.235193,
            "velocity": 0.8267716535433071
          },
          {
            "duration": 0.08235290000001783,
            "durationTicks": 14,
            "midi": 44,
            "name": "G#2",
            "ticks": 34410,
            "time": 202.4116635,
            "velocity": 0.8267716535433071
          },
          {
            "duration": 0.08235290000001783,
            "durationTicks": 14,
            "midi": 42,
            "name": "F#2",
            "ticks": 34440,
            "time": 202.588134,
            "velocity": 0.8267716535433071
          },
          {
            "duration": 0.0823528999999894,
            "durationTicks": 14,
            "midi": 42,
            "name": "F#2",
            "ticks": 34500,
            "time": 202.941075,
            "velocity": 0.8267716535433071
          },
          {
            "duration": 0.0823528999999894,
            "durationTicks": 14,
            "midi": 44,
            "name": "G#2",
            "ticks": 34530,
            "time": 203.1175455,
            "velocity": 0.8267716535433071
          },
          {
            "duration": 0.08235290000001783,
            "durationTicks": 14,
            "midi": 42,
            "name": "F#2",
            "ticks": 34560,
            "time": 203.294016,
            "velocity": 0.8267716535433071
          },
          {
            "duration": 0.0823528999999894,
            "durationTicks": 14,
            "midi": 42,
            "name": "F#2",
            "ticks": 34620,
            "time": 203.64695700000001,
            "velocity": 0.8267716535433071
          },
          {
            "duration": 0.0823528999999894,
            "durationTicks": 14,
            "midi": 44,
            "name": "G#2",
            "ticks": 34650,
            "time": 203.8234275,
            "velocity": 0.8267716535433071
          },
          {
            "duration": 0.08235290000001783,
            "durationTicks": 14,
            "midi": 42,
            "name": "F#2",
            "ticks": 34680,
            "time": 203.999898,
            "velocity": 0.8267716535433071
          },
          {
            "duration": 0.08235290000001783,
            "durationTicks": 14,
            "midi": 42,
            "name": "F#2",
            "ticks": 34740,
            "time": 204.352839,
            "velocity": 0.8267716535433071
          },
          {
            "duration": 0.0823528999999894,
            "durationTicks": 14,
            "midi": 44,
            "name": "G#2",
            "ticks": 34770,
            "time": 204.5293095,
            "velocity": 0.8267716535433071
          },
          {
            "duration": 0.08235290000001783,
            "durationTicks": 14,
            "midi": 42,
            "name": "F#2",
            "ticks": 34800,
            "time": 204.70578,
            "velocity": 0.8267716535433071
          },
          {
            "duration": 0.08235290000001783,
            "durationTicks": 14,
            "midi": 42,
            "name": "F#2",
            "ticks": 34860,
            "time": 205.058721,
            "velocity": 0.8267716535433071
          },
          {
            "duration": 0.0823528999999894,
            "durationTicks": 14,
            "midi": 46,
            "name": "A#2",
            "ticks": 34890,
            "time": 205.2351915,
            "velocity": 0.8267716535433071
          },
          {
            "duration": 0.0823528999999894,
            "durationTicks": 14,
            "midi": 42,
            "name": "F#2",
            "ticks": 34920,
            "time": 205.411662,
            "velocity": 0.8267716535433071
          },
          {
            "duration": 0.08235290000001783,
            "durationTicks": 14,
            "midi": 49,
            "name": "C#3",
            "ticks": 34950,
            "time": 205.5881325,
            "velocity": 0.8267716535433071
          },
          {
            "duration": 0.0823528999999894,
            "durationTicks": 14,
            "midi": 46,
            "name": "A#2",
            "ticks": 35040,
            "time": 206.117544,
            "velocity": 0.8267716535433071
          },
          {
            "duration": 0.08235290000001783,
            "durationTicks": 14,
            "midi": 42,
            "name": "F#2",
            "ticks": 35100,
            "time": 206.470485,
            "velocity": 0.8267716535433071
          },
          {
            "duration": 0.08235290000001783,
            "durationTicks": 14,
            "midi": 44,
            "name": "G#2",
            "ticks": 35130,
            "time": 206.6469555,
            "velocity": 0.8267716535433071
          },
          {
            "duration": 0.0823528999999894,
            "durationTicks": 14,
            "midi": 46,
            "name": "A#2",
            "ticks": 35160,
            "time": 206.823426,
            "velocity": 0.8267716535433071
          },
          {
            "duration": 0.08235290000001783,
            "durationTicks": 14,
            "midi": 42,
            "name": "F#2",
            "ticks": 35220,
            "time": 207.176367,
            "velocity": 0.8267716535433071
          },
          {
            "duration": 0.08235290000001783,
            "durationTicks": 14,
            "midi": 44,
            "name": "G#2",
            "ticks": 35250,
            "time": 207.3528375,
            "velocity": 0.8267716535433071
          },
          {
            "duration": 0.0823528999999894,
            "durationTicks": 14,
            "midi": 42,
            "name": "F#2",
            "ticks": 35280,
            "time": 207.52930800000001,
            "velocity": 0.8267716535433071
          },
          {
            "duration": 0.08235290000001783,
            "durationTicks": 14,
            "midi": 42,
            "name": "F#2",
            "ticks": 35340,
            "time": 207.882249,
            "velocity": 0.8267716535433071
          },
          {
            "duration": 0.08235290000001783,
            "durationTicks": 14,
            "midi": 44,
            "name": "G#2",
            "ticks": 35370,
            "time": 208.0587195,
            "velocity": 0.8267716535433071
          },
          {
            "duration": 0.08235290000001783,
            "durationTicks": 14,
            "midi": 42,
            "name": "F#2",
            "ticks": 35400,
            "time": 208.23519,
            "velocity": 0.8267716535433071
          },
          {
            "duration": 0.08235290000001783,
            "durationTicks": 14,
            "midi": 42,
            "name": "F#2",
            "ticks": 35460,
            "time": 208.588131,
            "velocity": 0.8267716535433071
          },
          {
            "duration": 0.08235290000001783,
            "durationTicks": 14,
            "midi": 44,
            "name": "G#2",
            "ticks": 35490,
            "time": 208.7646015,
            "velocity": 0.8267716535433071
          },
          {
            "duration": 0.08235290000001783,
            "durationTicks": 14,
            "midi": 42,
            "name": "F#2",
            "ticks": 35520,
            "time": 208.941072,
            "velocity": 0.8267716535433071
          },
          {
            "duration": 0.0823528999999894,
            "durationTicks": 14,
            "midi": 42,
            "name": "F#2",
            "ticks": 35580,
            "time": 209.294013,
            "velocity": 0.8267716535433071
          },
          {
            "duration": 0.08235290000001783,
            "durationTicks": 14,
            "midi": 44,
            "name": "G#2",
            "ticks": 35610,
            "time": 209.4704835,
            "velocity": 0.8267716535433071
          },
          {
            "duration": 0.08235290000001783,
            "durationTicks": 14,
            "midi": 46,
            "name": "A#2",
            "ticks": 35640,
            "time": 209.646954,
            "velocity": 0.8267716535433071
          },
          {
            "duration": 0.0823528999999894,
            "durationTicks": 14,
            "midi": 42,
            "name": "F#2",
            "ticks": 35700,
            "time": 209.999895,
            "velocity": 0.8267716535433071
          },
          {
            "duration": 0.08235290000001783,
            "durationTicks": 14,
            "midi": 44,
            "name": "G#2",
            "ticks": 35730,
            "time": 210.1763655,
            "velocity": 0.8267716535433071
          },
          {
            "duration": 0.08235290000001783,
            "durationTicks": 14,
            "midi": 42,
            "name": "F#2",
            "ticks": 35760,
            "time": 210.352836,
            "velocity": 0.8267716535433071
          },
          {
            "duration": 0.0823528999999894,
            "durationTicks": 14,
            "midi": 42,
            "name": "F#2",
            "ticks": 35820,
            "time": 210.705777,
            "velocity": 0.8267716535433071
          },
          {
            "duration": 0.0823528999999894,
            "durationTicks": 14,
            "midi": 44,
            "name": "G#2",
            "ticks": 35850,
            "time": 210.8822475,
            "velocity": 0.8267716535433071
          },
          {
            "duration": 0.08235290000001783,
            "durationTicks": 14,
            "midi": 42,
            "name": "F#2",
            "ticks": 35880,
            "time": 211.058718,
            "velocity": 0.8267716535433071
          },
          {
            "duration": 0.0823528999999894,
            "durationTicks": 14,
            "midi": 42,
            "name": "F#2",
            "ticks": 35940,
            "time": 211.41165900000001,
            "velocity": 0.8267716535433071
          },
          {
            "duration": 0.0823528999999894,
            "durationTicks": 14,
            "midi": 44,
            "name": "G#2",
            "ticks": 35970,
            "time": 211.5881295,
            "velocity": 0.8267716535433071
          },
          {
            "duration": 0.08235290000001783,
            "durationTicks": 14,
            "midi": 42,
            "name": "F#2",
            "ticks": 36000,
            "time": 211.7646,
            "velocity": 0.8267716535433071
          },
          {
            "duration": 0.0823528999999894,
            "durationTicks": 14,
            "midi": 42,
            "name": "F#2",
            "ticks": 36060,
            "time": 212.11754100000002,
            "velocity": 0.8267716535433071
          },
          {
            "duration": 0.0823528999999894,
            "durationTicks": 14,
            "midi": 44,
            "name": "G#2",
            "ticks": 36090,
            "time": 212.2940115,
            "velocity": 0.8267716535433071
          },
          {
            "duration": 0.08235290000001783,
            "durationTicks": 14,
            "midi": 46,
            "name": "A#2",
            "ticks": 36120,
            "time": 212.470482,
            "velocity": 0.8267716535433071
          },
          {
            "duration": 0.08235290000001783,
            "durationTicks": 14,
            "midi": 42,
            "name": "F#2",
            "ticks": 36180,
            "time": 212.823423,
            "velocity": 0.8267716535433071
          },
          {
            "duration": 0.0823528999999894,
            "durationTicks": 14,
            "midi": 44,
            "name": "G#2",
            "ticks": 36210,
            "time": 212.9998935,
            "velocity": 0.8267716535433071
          },
          {
            "duration": 0.0823528999999894,
            "durationTicks": 14,
            "midi": 42,
            "name": "F#2",
            "ticks": 36240,
            "time": 213.176364,
            "velocity": 0.8267716535433071
          },
          {
            "duration": 0.08235290000001783,
            "durationTicks": 14,
            "midi": 42,
            "name": "F#2",
            "ticks": 36300,
            "time": 213.529305,
            "velocity": 0.8267716535433071
          },
          {
            "duration": 0.0823528999999894,
            "durationTicks": 14,
            "midi": 44,
            "name": "G#2",
            "ticks": 36330,
            "time": 213.70577550000002,
            "velocity": 0.8267716535433071
          },
          {
            "duration": 0.0823528999999894,
            "durationTicks": 14,
            "midi": 42,
            "name": "F#2",
            "ticks": 36360,
            "time": 213.882246,
            "velocity": 0.8267716535433071
          },
          {
            "duration": 0.08235290000001783,
            "durationTicks": 14,
            "midi": 42,
            "name": "F#2",
            "ticks": 36420,
            "time": 214.235187,
            "velocity": 0.8267716535433071
          },
          {
            "duration": 0.08235290000001783,
            "durationTicks": 14,
            "midi": 44,
            "name": "G#2",
            "ticks": 36450,
            "time": 214.4116575,
            "velocity": 0.8267716535433071
          },
          {
            "duration": 0.0823528999999894,
            "durationTicks": 14,
            "midi": 42,
            "name": "F#2",
            "ticks": 36480,
            "time": 214.588128,
            "velocity": 0.8267716535433071
          },
          {
            "duration": 0.08235290000001783,
            "durationTicks": 14,
            "midi": 42,
            "name": "F#2",
            "ticks": 36540,
            "time": 214.941069,
            "velocity": 0.8267716535433071
          },
          {
            "duration": 0.08235290000001783,
            "durationTicks": 14,
            "midi": 44,
            "name": "G#2",
            "ticks": 36570,
            "time": 215.1175395,
            "velocity": 0.8267716535433071
          },
          {
            "duration": 0.0823528999999894,
            "durationTicks": 14,
            "midi": 46,
            "name": "A#2",
            "ticks": 36600,
            "time": 215.29401000000001,
            "velocity": 0.8267716535433071
          },
          {
            "duration": 0.08235290000001783,
            "durationTicks": 14,
            "midi": 42,
            "name": "F#2",
            "ticks": 36660,
            "time": 215.646951,
            "velocity": 0.8267716535433071
          },
          {
            "duration": 0.08235290000001783,
            "durationTicks": 14,
            "midi": 44,
            "name": "G#2",
            "ticks": 36690,
            "time": 215.8234215,
            "velocity": 0.8267716535433071
          },
          {
            "duration": 0.0823528999999894,
            "durationTicks": 14,
            "midi": 42,
            "name": "F#2",
            "ticks": 36720,
            "time": 215.99989200000002,
            "velocity": 0.8267716535433071
          },
          {
            "duration": 0.08235290000001783,
            "durationTicks": 14,
            "midi": 42,
            "name": "F#2",
            "ticks": 36780,
            "time": 216.352833,
            "velocity": 0.8267716535433071
          },
          {
            "duration": 0.08235290000001783,
            "durationTicks": 14,
            "midi": 44,
            "name": "G#2",
            "ticks": 36810,
            "time": 216.5293035,
            "velocity": 0.8267716535433071
          },
          {
            "duration": 0.08235290000001783,
            "durationTicks": 14,
            "midi": 42,
            "name": "F#2",
            "ticks": 36840,
            "time": 216.705774,
            "velocity": 0.8267716535433071
          },
          {
            "duration": 0.0823528999999894,
            "durationTicks": 14,
            "midi": 42,
            "name": "F#2",
            "ticks": 36900,
            "time": 217.058715,
            "velocity": 0.8267716535433071
          },
          {
            "duration": 0.08235290000001783,
            "durationTicks": 14,
            "midi": 44,
            "name": "G#2",
            "ticks": 36930,
            "time": 217.2351855,
            "velocity": 0.8267716535433071
          },
          {
            "duration": 0.08235290000001783,
            "durationTicks": 14,
            "midi": 42,
            "name": "F#2",
            "ticks": 36960,
            "time": 217.411656,
            "velocity": 0.8267716535433071
          },
          {
            "duration": 0.0823528999999894,
            "durationTicks": 14,
            "midi": 42,
            "name": "F#2",
            "ticks": 37020,
            "time": 217.764597,
            "velocity": 0.8267716535433071
          },
          {
            "duration": 0.08235290000001783,
            "durationTicks": 14,
            "midi": 44,
            "name": "G#2",
            "ticks": 37050,
            "time": 217.9410675,
            "velocity": 0.8267716535433071
          },
          {
            "duration": 0.08235290000001783,
            "durationTicks": 14,
            "midi": 46,
            "name": "A#2",
            "ticks": 37080,
            "time": 218.117538,
            "velocity": 0.8267716535433071
          },
          {
            "duration": 0.0823528999999894,
            "durationTicks": 14,
            "midi": 42,
            "name": "F#2",
            "ticks": 37140,
            "time": 218.470479,
            "velocity": 0.8267716535433071
          },
          {
            "duration": 0.0823528999999894,
            "durationTicks": 14,
            "midi": 44,
            "name": "G#2",
            "ticks": 37170,
            "time": 218.6469495,
            "velocity": 0.8267716535433071
          },
          {
            "duration": 0.08235290000001783,
            "durationTicks": 14,
            "midi": 42,
            "name": "F#2",
            "ticks": 37200,
            "time": 218.82342,
            "velocity": 0.8267716535433071
          },
          {
            "duration": 0.0823528999999894,
            "durationTicks": 14,
            "midi": 42,
            "name": "F#2",
            "ticks": 37260,
            "time": 219.176361,
            "velocity": 0.8267716535433071
          },
          {
            "duration": 0.0823528999999894,
            "durationTicks": 14,
            "midi": 44,
            "name": "G#2",
            "ticks": 37290,
            "time": 219.3528315,
            "velocity": 0.8267716535433071
          },
          {
            "duration": 0.08235290000001783,
            "durationTicks": 14,
            "midi": 42,
            "name": "F#2",
            "ticks": 37320,
            "time": 219.529302,
            "velocity": 0.8267716535433071
          },
          {
            "duration": 0.0823528999999894,
            "durationTicks": 14,
            "midi": 42,
            "name": "F#2",
            "ticks": 37380,
            "time": 219.88224300000002,
            "velocity": 0.8267716535433071
          },
          {
            "duration": 0.0823528999999894,
            "durationTicks": 14,
            "midi": 44,
            "name": "G#2",
            "ticks": 37410,
            "time": 220.0587135,
            "velocity": 0.8267716535433071
          },
          {
            "duration": 0.08235290000001783,
            "durationTicks": 14,
            "midi": 42,
            "name": "F#2",
            "ticks": 37440,
            "time": 220.235184,
            "velocity": 0.8267716535433071
          },
          {
            "duration": 0.08235290000001783,
            "durationTicks": 14,
            "midi": 42,
            "name": "F#2",
            "ticks": 37500,
            "time": 220.588125,
            "velocity": 0.8267716535433071
          },
          {
            "duration": 0.0823528999999894,
            "durationTicks": 14,
            "midi": 44,
            "name": "G#2",
            "ticks": 37530,
            "time": 220.7645955,
            "velocity": 0.8267716535433071
          },
          {
            "duration": 0.0823528999999894,
            "durationTicks": 14,
            "midi": 46,
            "name": "A#2",
            "ticks": 37560,
            "time": 220.941066,
            "velocity": 0.8267716535433071
          },
          {
            "duration": 0.08235290000001783,
            "durationTicks": 14,
            "midi": 42,
            "name": "F#2",
            "ticks": 37620,
            "time": 221.294007,
            "velocity": 0.8267716535433071
          },
          {
            "duration": 0.0823528999999894,
            "durationTicks": 14,
            "midi": 44,
            "name": "G#2",
            "ticks": 37650,
            "time": 221.47047750000002,
            "velocity": 0.8267716535433071
          },
          {
            "duration": 0.0823528999999894,
            "durationTicks": 14,
            "midi": 42,
            "name": "F#2",
            "ticks": 37680,
            "time": 221.646948,
            "velocity": 0.8267716535433071
          },
          {
            "duration": 0.08235290000001783,
            "durationTicks": 14,
            "midi": 42,
            "name": "F#2",
            "ticks": 37740,
            "time": 221.999889,
            "velocity": 0.8267716535433071
          },
          {
            "duration": 0.08235290000001783,
            "durationTicks": 14,
            "midi": 44,
            "name": "G#2",
            "ticks": 37770,
            "time": 222.1763595,
            "velocity": 0.8267716535433071
          },
          {
            "duration": 0.0823528999999894,
            "durationTicks": 14,
            "midi": 42,
            "name": "F#2",
            "ticks": 37800,
            "time": 222.35283,
            "velocity": 0.8267716535433071
          },
          {
            "duration": 0.08235290000001783,
            "durationTicks": 14,
            "midi": 42,
            "name": "F#2",
            "ticks": 37860,
            "time": 222.705771,
            "velocity": 0.8267716535433071
          },
          {
            "duration": 0.08235290000001783,
            "durationTicks": 14,
            "midi": 44,
            "name": "G#2",
            "ticks": 37890,
            "time": 222.8822415,
            "velocity": 0.8267716535433071
          },
          {
            "duration": 0.0823528999999894,
            "durationTicks": 14,
            "midi": 42,
            "name": "F#2",
            "ticks": 37920,
            "time": 223.058712,
            "velocity": 0.8267716535433071
          },
          {
            "duration": 0.08235290000001783,
            "durationTicks": 14,
            "midi": 42,
            "name": "F#2",
            "ticks": 37980,
            "time": 223.411653,
            "velocity": 0.8267716535433071
          },
          {
            "duration": 0.08235290000001783,
            "durationTicks": 14,
            "midi": 44,
            "name": "G#2",
            "ticks": 38010,
            "time": 223.5881235,
            "velocity": 0.8267716535433071
          },
          {
            "duration": 0.0823528999999894,
            "durationTicks": 14,
            "midi": 46,
            "name": "A#2",
            "ticks": 38040,
            "time": 223.76459400000002,
            "velocity": 0.8267716535433071
          },
          {
            "duration": 0.08235290000001783,
            "durationTicks": 14,
            "midi": 42,
            "name": "F#2",
            "ticks": 38100,
            "time": 224.117535,
            "velocity": 0.8267716535433071
          },
          {
            "duration": 0.08235290000001783,
            "durationTicks": 14,
            "midi": 44,
            "name": "G#2",
            "ticks": 38130,
            "time": 224.2940055,
            "velocity": 0.8267716535433071
          },
          {
            "duration": 0.08235290000001783,
            "durationTicks": 14,
            "midi": 42,
            "name": "F#2",
            "ticks": 38160,
            "time": 224.470476,
            "velocity": 0.8267716535433071
          },
          {
            "duration": 0.0823528999999894,
            "durationTicks": 14,
            "midi": 42,
            "name": "F#2",
            "ticks": 38220,
            "time": 224.823417,
            "velocity": 0.8267716535433071
          },
          {
            "duration": 0.08235290000001783,
            "durationTicks": 14,
            "midi": 44,
            "name": "G#2",
            "ticks": 38250,
            "time": 224.9998875,
            "velocity": 0.8267716535433071
          },
          {
            "duration": 0.08235290000001783,
            "durationTicks": 14,
            "midi": 42,
            "name": "F#2",
            "ticks": 38280,
            "time": 225.176358,
            "velocity": 0.8267716535433071
          },
          {
            "duration": 0.0823528999999894,
            "durationTicks": 14,
            "midi": 42,
            "name": "F#2",
            "ticks": 38340,
            "time": 225.529299,
            "velocity": 0.8267716535433071
          },
          {
            "duration": 0.08235290000001783,
            "durationTicks": 14,
            "midi": 44,
            "name": "G#2",
            "ticks": 38370,
            "time": 225.7057695,
            "velocity": 0.8267716535433071
          },
          {
            "duration": 0.08235290000001783,
            "durationTicks": 14,
            "midi": 42,
            "name": "F#2",
            "ticks": 38400,
            "time": 225.88224,
            "velocity": 0.8267716535433071
          },
          {
            "duration": 0.0823528999999894,
            "durationTicks": 14,
            "midi": 42,
            "name": "F#2",
            "ticks": 38460,
            "time": 226.235181,
            "velocity": 0.8267716535433071
          },
          {
            "duration": 0.0823528999999894,
            "durationTicks": 14,
            "midi": 44,
            "name": "G#2",
            "ticks": 38490,
            "time": 226.4116515,
            "velocity": 0.8267716535433071
          },
          {
            "duration": 0.08235290000001783,
            "durationTicks": 14,
            "midi": 42,
            "name": "F#2",
            "ticks": 38520,
            "time": 226.588122,
            "velocity": 0.8267716535433071
          },
          {
            "duration": 0.0823528999999894,
            "durationTicks": 14,
            "midi": 42,
            "name": "F#2",
            "ticks": 38580,
            "time": 226.941063,
            "velocity": 0.8267716535433071
          },
          {
            "duration": 0.0823528999999894,
            "durationTicks": 14,
            "midi": 44,
            "name": "G#2",
            "ticks": 38610,
            "time": 227.1175335,
            "velocity": 0.8267716535433071
          },
          {
            "duration": 0.08235290000001783,
            "durationTicks": 14,
            "midi": 42,
            "name": "F#2",
            "ticks": 38640,
            "time": 227.294004,
            "velocity": 0.8267716535433071
          },
          {
            "duration": 0.0823528999999894,
            "durationTicks": 14,
            "midi": 46,
            "name": "A#2",
            "ticks": 38700,
            "time": 227.64694500000002,
            "velocity": 0.8267716535433071
          },
          {
            "duration": 0.08235290000001783,
            "durationTicks": 14,
            "midi": 42,
            "name": "F#2",
            "ticks": 38760,
            "time": 227.999886,
            "velocity": 0.8267716535433071
          },
          {
            "duration": 0.08235290000001783,
            "durationTicks": 14,
            "midi": 44,
            "name": "G#2",
            "ticks": 38820,
            "time": 228.352827,
            "velocity": 0.8267716535433071
          },
          {
            "duration": 0.0823528999999894,
            "durationTicks": 14,
            "midi": 57,
            "name": "A3",
            "ticks": 38880,
            "time": 228.705768,
            "velocity": 0.8267716535433071
          },
          {
            "duration": 0.08235290000001783,
            "durationTicks": 14,
            "midi": 42,
            "name": "F#2",
            "ticks": 38940,
            "time": 229.058709,
            "velocity": 0.8267716535433071
          },
          {
            "duration": 0.0823528999999894,
            "durationTicks": 14,
            "midi": 42,
            "name": "F#2",
            "ticks": 38970,
            "time": 229.23517950000002,
            "velocity": 0.8267716535433071
          },
          {
            "duration": 0.0823528999999894,
            "durationTicks": 14,
            "midi": 46,
            "name": "A#2",
            "ticks": 39000,
            "time": 229.41165,
            "velocity": 0.8267716535433071
          },
          {
            "duration": 0.08235290000001783,
            "durationTicks": 14,
            "midi": 42,
            "name": "F#2",
            "ticks": 39060,
            "time": 229.764591,
            "velocity": 0.8267716535433071
          },
          {
            "duration": 0.08235290000001783,
            "durationTicks": 14,
            "midi": 42,
            "name": "F#2",
            "ticks": 39090,
            "time": 229.9410615,
            "velocity": 0.8267716535433071
          },
          {
            "duration": 0.0823528999999894,
            "durationTicks": 14,
            "midi": 46,
            "name": "A#2",
            "ticks": 39120,
            "time": 230.117532,
            "velocity": 0.8267716535433071
          },
          {
            "duration": 0.08235290000001783,
            "durationTicks": 14,
            "midi": 42,
            "name": "F#2",
            "ticks": 39180,
            "time": 230.470473,
            "velocity": 0.8267716535433071
          },
          {
            "duration": 0.08235290000001783,
            "durationTicks": 14,
            "midi": 42,
            "name": "F#2",
            "ticks": 39210,
            "time": 230.6469435,
            "velocity": 0.8267716535433071
          },
          {
            "duration": 0.0823528999999894,
            "durationTicks": 14,
            "midi": 46,
            "name": "A#2",
            "ticks": 39240,
            "time": 230.823414,
            "velocity": 0.8267716535433071
          },
          {
            "duration": 0.08235290000001783,
            "durationTicks": 14,
            "midi": 42,
            "name": "F#2",
            "ticks": 39300,
            "time": 231.176355,
            "velocity": 0.8267716535433071
          },
          {
            "duration": 0.08235290000001783,
            "durationTicks": 14,
            "midi": 42,
            "name": "F#2",
            "ticks": 39330,
            "time": 231.3528255,
            "velocity": 0.8267716535433071
          },
          {
            "duration": 0.0823528999999894,
            "durationTicks": 14,
            "midi": 46,
            "name": "A#2",
            "ticks": 39360,
            "time": 231.52929600000002,
            "velocity": 0.8267716535433071
          },
          {
            "duration": 0.08235290000001783,
            "durationTicks": 14,
            "midi": 42,
            "name": "F#2",
            "ticks": 39420,
            "time": 231.882237,
            "velocity": 0.8267716535433071
          },
          {
            "duration": 0.08235290000001783,
            "durationTicks": 14,
            "midi": 42,
            "name": "F#2",
            "ticks": 39450,
            "time": 232.0587075,
            "velocity": 0.8267716535433071
          },
          {
            "duration": 0.08235290000001783,
            "durationTicks": 14,
            "midi": 46,
            "name": "A#2",
            "ticks": 39480,
            "time": 232.235178,
            "velocity": 0.8267716535433071
          },
          {
            "duration": 0.0823528999999894,
            "durationTicks": 14,
            "midi": 42,
            "name": "F#2",
            "ticks": 39540,
            "time": 232.588119,
            "velocity": 0.8267716535433071
          },
          {
            "duration": 0.08235290000001783,
            "durationTicks": 14,
            "midi": 42,
            "name": "F#2",
            "ticks": 39570,
            "time": 232.7645895,
            "velocity": 0.8267716535433071
          },
          {
            "duration": 0.08235290000001783,
            "durationTicks": 14,
            "midi": 46,
            "name": "A#2",
            "ticks": 39600,
            "time": 232.94106,
            "velocity": 0.8267716535433071
          },
          {
            "duration": 0.0823528999999894,
            "durationTicks": 14,
            "midi": 42,
            "name": "F#2",
            "ticks": 39660,
            "time": 233.294001,
            "velocity": 0.8267716535433071
          },
          {
            "duration": 0.08235290000001783,
            "durationTicks": 14,
            "midi": 42,
            "name": "F#2",
            "ticks": 39690,
            "time": 233.4704715,
            "velocity": 0.8267716535433071
          },
          {
            "duration": 0.08235290000001783,
            "durationTicks": 14,
            "midi": 46,
            "name": "A#2",
            "ticks": 39720,
            "time": 233.646942,
            "velocity": 0.8267716535433071
          },
          {
            "duration": 0.0823528999999894,
            "durationTicks": 14,
            "midi": 42,
            "name": "F#2",
            "ticks": 39780,
            "time": 233.999883,
            "velocity": 0.8267716535433071
          },
          {
            "duration": 0.08235290000001783,
            "durationTicks": 14,
            "midi": 42,
            "name": "F#2",
            "ticks": 39810,
            "time": 234.1763535,
            "velocity": 0.8267716535433071
          },
          {
            "duration": 0.08235290000001783,
            "durationTicks": 14,
            "midi": 46,
            "name": "A#2",
            "ticks": 39840,
            "time": 234.352824,
            "velocity": 0.8267716535433071
          },
          {
            "duration": 0.0823528999999894,
            "durationTicks": 14,
            "midi": 42,
            "name": "F#2",
            "ticks": 39900,
            "time": 234.705765,
            "velocity": 0.8267716535433071
          },
          {
            "duration": 0.0823528999999894,
            "durationTicks": 14,
            "midi": 42,
            "name": "F#2",
            "ticks": 39930,
            "time": 234.8822355,
            "velocity": 0.8267716535433071
          },
          {
            "duration": 0.08235290000001783,
            "durationTicks": 14,
            "midi": 46,
            "name": "A#2",
            "ticks": 39960,
            "time": 235.058706,
            "velocity": 0.8267716535433071
          },
          {
            "duration": 0.0823528999999894,
            "durationTicks": 14,
            "midi": 42,
            "name": "F#2",
            "ticks": 40020,
            "time": 235.41164700000002,
            "velocity": 0.8267716535433071
          },
          {
            "duration": 0.0823528999999894,
            "durationTicks": 14,
            "midi": 42,
            "name": "F#2",
            "ticks": 40050,
            "time": 235.5881175,
            "velocity": 0.8267716535433071
          },
          {
            "duration": 0.08235290000001783,
            "durationTicks": 14,
            "midi": 46,
            "name": "A#2",
            "ticks": 40080,
            "time": 235.764588,
            "velocity": 0.8267716535433071
          },
          {
            "duration": 0.08235290000001783,
            "durationTicks": 14,
            "midi": 42,
            "name": "F#2",
            "ticks": 40140,
            "time": 236.117529,
            "velocity": 0.8267716535433071
          },
          {
            "duration": 0.0823528999999894,
            "durationTicks": 14,
            "midi": 42,
            "name": "F#2",
            "ticks": 40170,
            "time": 236.2939995,
            "velocity": 0.8267716535433071
          },
          {
            "duration": 0.0823528999999894,
            "durationTicks": 14,
            "midi": 46,
            "name": "A#2",
            "ticks": 40200,
            "time": 236.47047,
            "velocity": 0.8267716535433071
          },
          {
            "duration": 0.08235290000001783,
            "durationTicks": 14,
            "midi": 42,
            "name": "F#2",
            "ticks": 40260,
            "time": 236.823411,
            "velocity": 0.8267716535433071
          },
          {
            "duration": 0.0823528999999894,
            "durationTicks": 14,
            "midi": 42,
            "name": "F#2",
            "ticks": 40290,
            "time": 236.99988150000001,
            "velocity": 0.8267716535433071
          },
          {
            "duration": 0.0823528999999894,
            "durationTicks": 14,
            "midi": 46,
            "name": "A#2",
            "ticks": 40320,
            "time": 237.176352,
            "velocity": 0.8267716535433071
          },
          {
            "duration": 0.08235290000001783,
            "durationTicks": 14,
            "midi": 42,
            "name": "F#2",
            "ticks": 40380,
            "time": 237.529293,
            "velocity": 0.8267716535433071
          },
          {
            "duration": 0.08235290000001783,
            "durationTicks": 14,
            "midi": 42,
            "name": "F#2",
            "ticks": 40410,
            "time": 237.7057635,
            "velocity": 0.8267716535433071
          },
          {
            "duration": 0.0823528999999894,
            "durationTicks": 14,
            "midi": 46,
            "name": "A#2",
            "ticks": 40440,
            "time": 237.882234,
            "velocity": 0.8267716535433071
          },
          {
            "duration": 0.08235290000001783,
            "durationTicks": 14,
            "midi": 42,
            "name": "F#2",
            "ticks": 40500,
            "time": 238.235175,
            "velocity": 0.8267716535433071
          },
          {
            "duration": 0.08235290000001783,
            "durationTicks": 14,
            "midi": 42,
            "name": "F#2",
            "ticks": 40530,
            "time": 238.4116455,
            "velocity": 0.8267716535433071
          },
          {
            "duration": 0.0823528999999894,
            "durationTicks": 14,
            "midi": 46,
            "name": "A#2",
            "ticks": 40560,
            "time": 238.588116,
            "velocity": 0.8267716535433071
          },
          {
            "duration": 0.08235290000001783,
            "durationTicks": 14,
            "midi": 42,
            "name": "F#2",
            "ticks": 40620,
            "time": 238.941057,
            "velocity": 0.8267716535433071
          },
          {
            "duration": 0.08235290000001783,
            "durationTicks": 14,
            "midi": 42,
            "name": "F#2",
            "ticks": 40650,
            "time": 239.1175275,
            "velocity": 0.8267716535433071
          },
          {
            "duration": 0.0823528999999894,
            "durationTicks": 14,
            "midi": 46,
            "name": "A#2",
            "ticks": 40680,
            "time": 239.29399800000002,
            "velocity": 0.8267716535433071
          },
          {
            "duration": 0.08235290000001783,
            "durationTicks": 14,
            "midi": 42,
            "name": "F#2",
            "ticks": 40740,
            "time": 239.646939,
            "velocity": 0.8267716535433071
          },
          {
            "duration": 0.08235290000001783,
            "durationTicks": 14,
            "midi": 42,
            "name": "F#2",
            "ticks": 40770,
            "time": 239.8234095,
            "velocity": 0.8267716535433071
          },
          {
            "duration": 0.08235290000001783,
            "durationTicks": 14,
            "midi": 46,
            "name": "A#2",
            "ticks": 40800,
            "time": 239.99988,
            "velocity": 0.8267716535433071
          },
          {
            "duration": 0.0823528999999894,
            "durationTicks": 14,
            "midi": 42,
            "name": "F#2",
            "ticks": 40860,
            "time": 240.352821,
            "velocity": 0.8267716535433071
          },
          {
            "duration": 0.08235290000001783,
            "durationTicks": 14,
            "midi": 42,
            "name": "F#2",
            "ticks": 40890,
            "time": 240.5292915,
            "velocity": 0.8267716535433071
          },
          {
            "duration": 0.08235290000001783,
            "durationTicks": 14,
            "midi": 46,
            "name": "A#2",
            "ticks": 40920,
            "time": 240.705762,
            "velocity": 0.8267716535433071
          },
          {
            "duration": 0.0823528999999894,
            "durationTicks": 14,
            "midi": 42,
            "name": "F#2",
            "ticks": 40980,
            "time": 241.058703,
            "velocity": 0.8267716535433071
          },
          {
            "duration": 0.08235290000001783,
            "durationTicks": 14,
            "midi": 42,
            "name": "F#2",
            "ticks": 41010,
            "time": 241.2351735,
            "velocity": 0.8267716535433071
          },
          {
            "duration": 0.08235290000001783,
            "durationTicks": 14,
            "midi": 46,
            "name": "A#2",
            "ticks": 41040,
            "time": 241.411644,
            "velocity": 0.8267716535433071
          },
          {
            "duration": 0.0823528999999894,
            "durationTicks": 14,
            "midi": 42,
            "name": "F#2",
            "ticks": 41100,
            "time": 241.764585,
            "velocity": 0.8267716535433071
          },
          {
            "duration": 0.08235290000001783,
            "durationTicks": 14,
            "midi": 42,
            "name": "F#2",
            "ticks": 41130,
            "time": 241.9410555,
            "velocity": 0.8267716535433071
          },
          {
            "duration": 0.08235290000001783,
            "durationTicks": 14,
            "midi": 46,
            "name": "A#2",
            "ticks": 41160,
            "time": 242.117526,
            "velocity": 0.8267716535433071
          },
          {
            "duration": 0.0823528999999894,
            "durationTicks": 14,
            "midi": 42,
            "name": "F#2",
            "ticks": 41220,
            "time": 242.470467,
            "velocity": 0.8267716535433071
          },
          {
            "duration": 0.0823528999999894,
            "durationTicks": 14,
            "midi": 42,
            "name": "F#2",
            "ticks": 41250,
            "time": 242.6469375,
            "velocity": 0.8267716535433071
          },
          {
            "duration": 0.08235290000001783,
            "durationTicks": 14,
            "midi": 46,
            "name": "A#2",
            "ticks": 41280,
            "time": 242.823408,
            "velocity": 0.8267716535433071
          },
          {
            "duration": 0.0823528999999894,
            "durationTicks": 14,
            "midi": 42,
            "name": "F#2",
            "ticks": 41340,
            "time": 243.17634900000002,
            "velocity": 0.8267716535433071
          },
          {
            "duration": 0.0823528999999894,
            "durationTicks": 14,
            "midi": 42,
            "name": "F#2",
            "ticks": 41370,
            "time": 243.3528195,
            "velocity": 0.8267716535433071
          },
          {
            "duration": 0.08235290000001783,
            "durationTicks": 14,
            "midi": 46,
            "name": "A#2",
            "ticks": 41400,
            "time": 243.52929,
            "velocity": 0.8267716535433071
          },
          {
            "duration": 0.08235290000001783,
            "durationTicks": 14,
            "midi": 42,
            "name": "F#2",
            "ticks": 41460,
            "time": 243.882231,
            "velocity": 0.8267716535433071
          },
          {
            "duration": 0.0823528999999894,
            "durationTicks": 14,
            "midi": 42,
            "name": "F#2",
            "ticks": 41490,
            "time": 244.0587015,
            "velocity": 0.8267716535433071
          },
          {
            "duration": 0.0823528999999894,
            "durationTicks": 14,
            "midi": 46,
            "name": "A#2",
            "ticks": 41520,
            "time": 244.235172,
            "velocity": 0.8267716535433071
          },
          {
            "duration": 0.08235290000001783,
            "durationTicks": 14,
            "midi": 42,
            "name": "F#2",
            "ticks": 41580,
            "time": 244.588113,
            "velocity": 0.8267716535433071
          },
          {
            "duration": 0.0823528999999894,
            "durationTicks": 14,
            "midi": 42,
            "name": "F#2",
            "ticks": 41610,
            "time": 244.76458350000001,
            "velocity": 0.8267716535433071
          },
          {
            "duration": 0.0823528999999894,
            "durationTicks": 14,
            "midi": 46,
            "name": "A#2",
            "ticks": 41640,
            "time": 244.941054,
            "velocity": 0.8267716535433071
          },
          {
            "duration": 0.08235290000001783,
            "durationTicks": 14,
            "midi": 42,
            "name": "F#2",
            "ticks": 41700,
            "time": 245.293995,
            "velocity": 0.8267716535433071
          },
          {
            "duration": 0.0823528999999894,
            "durationTicks": 14,
            "midi": 42,
            "name": "F#2",
            "ticks": 41730,
            "time": 245.47046550000002,
            "velocity": 0.8267716535433071
          },
          {
            "duration": 0.0823528999999894,
            "durationTicks": 14,
            "midi": 46,
            "name": "A#2",
            "ticks": 41760,
            "time": 245.646936,
            "velocity": 0.8267716535433071
          },
          {
            "duration": 0.08235290000001783,
            "durationTicks": 14,
            "midi": 42,
            "name": "F#2",
            "ticks": 41820,
            "time": 245.999877,
            "velocity": 0.8267716535433071
          },
          {
            "duration": 0.08235290000001783,
            "durationTicks": 14,
            "midi": 42,
            "name": "F#2",
            "ticks": 41850,
            "time": 246.1763475,
            "velocity": 0.8267716535433071
          },
          {
            "duration": 0.0823528999999894,
            "durationTicks": 14,
            "midi": 46,
            "name": "A#2",
            "ticks": 41880,
            "time": 246.352818,
            "velocity": 0.8267716535433071
          },
          {
            "duration": 0.08235290000001783,
            "durationTicks": 14,
            "midi": 42,
            "name": "F#2",
            "ticks": 41940,
            "time": 246.705759,
            "velocity": 0.8267716535433071
          },
          {
            "duration": 0.08235290000001783,
            "durationTicks": 14,
            "midi": 42,
            "name": "F#2",
            "ticks": 41970,
            "time": 246.8822295,
            "velocity": 0.8267716535433071
          },
          {
            "duration": 0.0823528999999894,
            "durationTicks": 14,
            "midi": 46,
            "name": "A#2",
            "ticks": 42000,
            "time": 247.05870000000002,
            "velocity": 0.8267716535433071
          },
          {
            "duration": 0.08235290000001783,
            "durationTicks": 14,
            "midi": 42,
            "name": "F#2",
            "ticks": 42060,
            "time": 247.411641,
            "velocity": 0.8267716535433071
          },
          {
            "duration": 0.08235290000001783,
            "durationTicks": 14,
            "midi": 42,
            "name": "F#2",
            "ticks": 42090,
            "time": 247.5881115,
            "velocity": 0.8267716535433071
          },
          {
            "duration": 0.08235290000001783,
            "durationTicks": 14,
            "midi": 46,
            "name": "A#2",
            "ticks": 42120,
            "time": 247.764582,
            "velocity": 0.8267716535433071
          },
          {
            "duration": 0.0823528999999894,
            "durationTicks": 14,
            "midi": 52,
            "name": "E3",
            "ticks": 42180,
            "time": 248.117523,
            "velocity": 0.8267716535433071
          },
          {
            "duration": 0.08235290000001783,
            "durationTicks": 14,
            "midi": 42,
            "name": "F#2",
            "ticks": 42240,
            "time": 248.470464,
            "velocity": 0.8267716535433071
          },
          {
            "duration": 0.0823528999999894,
            "durationTicks": 14,
            "midi": 42,
            "name": "F#2",
            "ticks": 42300,
            "time": 248.823405,
            "velocity": 0.8267716535433071
          },
          {
            "duration": 0.08235290000001783,
            "durationTicks": 14,
            "midi": 42,
            "name": "F#2",
            "ticks": 42360,
            "time": 249.176346,
            "velocity": 0.8267716535433071
          },
          {
            "duration": 0.0823528999999894,
            "durationTicks": 14,
            "midi": 42,
            "name": "F#2",
            "ticks": 42420,
            "time": 249.529287,
            "velocity": 0.8267716535433071
          },
          {
            "duration": 0.08235290000001783,
            "durationTicks": 14,
            "midi": 49,
            "name": "C#3",
            "ticks": 42450,
            "time": 249.7057575,
            "velocity": 0.8267716535433071
          },
          {
            "duration": 0.08235290000001783,
            "durationTicks": 14,
            "midi": 42,
            "name": "F#2",
            "ticks": 42480,
            "time": 249.882228,
            "velocity": 0.8267716535433071
          },
          {
            "duration": 0.0823528999999894,
            "durationTicks": 14,
            "midi": 42,
            "name": "F#2",
            "ticks": 42540,
            "time": 250.235169,
            "velocity": 0.8267716535433071
          },
          {
            "duration": 0.08235290000001783,
            "durationTicks": 14,
            "midi": 42,
            "name": "F#2",
            "ticks": 42600,
            "time": 250.58811,
            "velocity": 0.8267716535433071
          },
          {
            "duration": 0.0823528999999894,
            "durationTicks": 14,
            "midi": 42,
            "name": "F#2",
            "ticks": 42660,
            "time": 250.94105100000002,
            "velocity": 0.8267716535433071
          },
          {
            "duration": 0.08235290000001783,
            "durationTicks": 14,
            "midi": 57,
            "name": "A3",
            "ticks": 42720,
            "time": 251.293992,
            "velocity": 0.8267716535433071
          },
          {
            "duration": 0.08235290000001783,
            "durationTicks": 14,
            "midi": 42,
            "name": "F#2",
            "ticks": 42720,
            "time": 251.293992,
            "velocity": 0.8267716535433071
          },
          {
            "duration": 0.08235290000001783,
            "durationTicks": 14,
            "midi": 42,
            "name": "F#2",
            "ticks": 42780,
            "time": 251.646933,
            "velocity": 0.8267716535433071
          },
          {
            "duration": 0.0823528999999894,
            "durationTicks": 14,
            "midi": 44,
            "name": "G#2",
            "ticks": 42810,
            "time": 251.8234035,
            "velocity": 0.8267716535433071
          },
          {
            "duration": 0.0823528999999894,
            "durationTicks": 14,
            "midi": 53,
            "name": "F3",
            "ticks": 42840,
            "time": 251.999874,
            "velocity": 0.8267716535433071
          },
          {
            "duration": 0.0823528999999894,
            "durationTicks": 14,
            "midi": 42,
            "name": "F#2",
            "ticks": 42840,
            "time": 251.999874,
            "velocity": 0.8267716535433071
          },
          {
            "duration": 0.08235290000001783,
            "durationTicks": 14,
            "midi": 42,
            "name": "F#2",
            "ticks": 42900,
            "time": 252.352815,
            "velocity": 0.8267716535433071
          },
          {
            "duration": 0.0823528999999894,
            "durationTicks": 14,
            "midi": 44,
            "name": "G#2",
            "ticks": 42930,
            "time": 252.52928550000001,
            "velocity": 0.8267716535433071
          },
          {
            "duration": 0.0823528999999894,
            "durationTicks": 14,
            "midi": 53,
            "name": "F3",
            "ticks": 42960,
            "time": 252.705756,
            "velocity": 0.8267716535433071
          },
          {
            "duration": 0.0823528999999894,
            "durationTicks": 14,
            "midi": 42,
            "name": "F#2",
            "ticks": 42960,
            "time": 252.705756,
            "velocity": 0.8267716535433071
          },
          {
            "duration": 0.08235290000001783,
            "durationTicks": 14,
            "midi": 42,
            "name": "F#2",
            "ticks": 43020,
            "time": 253.058697,
            "velocity": 0.8267716535433071
          },
          {
            "duration": 0.0823528999999894,
            "durationTicks": 14,
            "midi": 44,
            "name": "G#2",
            "ticks": 43050,
            "time": 253.23516750000002,
            "velocity": 0.8267716535433071
          },
          {
            "duration": 0.0823528999999894,
            "durationTicks": 14,
            "midi": 55,
            "name": "G3",
            "ticks": 43080,
            "time": 253.411638,
            "velocity": 0.8267716535433071
          },
          {
            "duration": 0.0823528999999894,
            "durationTicks": 14,
            "midi": 53,
            "name": "F3",
            "ticks": 43080,
            "time": 253.411638,
            "velocity": 0.8267716535433071
          },
          {
            "duration": 0.0823528999999894,
            "durationTicks": 14,
            "midi": 42,
            "name": "F#2",
            "ticks": 43080,
            "time": 253.411638,
            "velocity": 0.8267716535433071
          },
          {
            "duration": 0.08235290000001783,
            "durationTicks": 14,
            "midi": 42,
            "name": "F#2",
            "ticks": 43140,
            "time": 253.764579,
            "velocity": 0.8267716535433071
          },
          {
            "duration": 0.08235290000001783,
            "durationTicks": 14,
            "midi": 44,
            "name": "G#2",
            "ticks": 43170,
            "time": 253.9410495,
            "velocity": 0.8267716535433071
          },
          {
            "duration": 0.0823528999999894,
            "durationTicks": 14,
            "midi": 53,
            "name": "F3",
            "ticks": 43200,
            "time": 254.11752,
            "velocity": 0.8267716535433071
          },
          {
            "duration": 0.0823528999999894,
            "durationTicks": 14,
            "midi": 42,
            "name": "F#2",
            "ticks": 43200,
            "time": 254.11752,
            "velocity": 0.8267716535433071
          },
          {
            "duration": 0.08235290000001783,
            "durationTicks": 14,
            "midi": 42,
            "name": "F#2",
            "ticks": 43260,
            "time": 254.470461,
            "velocity": 0.8267716535433071
          },
          {
            "duration": 0.08235290000001783,
            "durationTicks": 14,
            "midi": 44,
            "name": "G#2",
            "ticks": 43290,
            "time": 254.6469315,
            "velocity": 0.8267716535433071
          },
          {
            "duration": 0.0823528999999894,
            "durationTicks": 14,
            "midi": 42,
            "name": "F#2",
            "ticks": 43320,
            "time": 254.82340200000002,
            "velocity": 0.8267716535433071
          },
          {
            "duration": 0.0823528999999894,
            "durationTicks": 14,
            "midi": 53,
            "name": "F3",
            "ticks": 43320,
            "time": 254.82340200000002,
            "velocity": 0.8267716535433071
          },
          {
            "duration": 0.08235290000001783,
            "durationTicks": 14,
            "midi": 42,
            "name": "F#2",
            "ticks": 43380,
            "time": 255.176343,
            "velocity": 0.8267716535433071
          },
          {
            "duration": 0.08235290000001783,
            "durationTicks": 14,
            "midi": 44,
            "name": "G#2",
            "ticks": 43410,
            "time": 255.3528135,
            "velocity": 0.8267716535433071
          },
          {
            "duration": 0.08235290000001783,
            "durationTicks": 14,
            "midi": 42,
            "name": "F#2",
            "ticks": 43440,
            "time": 255.529284,
            "velocity": 0.8267716535433071
          },
          {
            "duration": 0.08235290000001783,
            "durationTicks": 14,
            "midi": 53,
            "name": "F3",
            "ticks": 43440,
            "time": 255.529284,
            "velocity": 0.8267716535433071
          },
          {
            "duration": 0.0823528999999894,
            "durationTicks": 14,
            "midi": 42,
            "name": "F#2",
            "ticks": 43500,
            "time": 255.882225,
            "velocity": 0.8267716535433071
          },
          {
            "duration": 0.0823528999999894,
            "durationTicks": 14,
            "midi": 44,
            "name": "G#2",
            "ticks": 43530,
            "time": 256.0586955,
            "velocity": 0.8267716535433071
          },
          {
            "duration": 0.0823528999999894,
            "durationTicks": 14,
            "midi": 53,
            "name": "F3",
            "ticks": 43560,
            "time": 256.235166,
            "velocity": 0.8267716535433071
          },
          {
            "duration": 0.0823528999999894,
            "durationTicks": 14,
            "midi": 55,
            "name": "G3",
            "ticks": 43560,
            "time": 256.235166,
            "velocity": 0.8267716535433071
          },
          {
            "duration": 0.0823528999999894,
            "durationTicks": 14,
            "midi": 42,
            "name": "F#2",
            "ticks": 43560,
            "time": 256.235166,
            "velocity": 0.8267716535433071
          },
          {
            "duration": 0.08235290000004625,
            "durationTicks": 14,
            "midi": 42,
            "name": "F#2",
            "ticks": 43620,
            "time": 256.588107,
            "velocity": 0.8267716535433071
          },
          {
            "duration": 0.0823528999999894,
            "durationTicks": 14,
            "midi": 44,
            "name": "G#2",
            "ticks": 43650,
            "time": 256.76457750000003,
            "velocity": 0.8267716535433071
          },
          {
            "duration": 0.0823528999999894,
            "durationTicks": 14,
            "midi": 53,
            "name": "F3",
            "ticks": 43680,
            "time": 256.941048,
            "velocity": 0.8267716535433071
          },
          {
            "duration": 0.0823528999999894,
            "durationTicks": 14,
            "midi": 42,
            "name": "F#2",
            "ticks": 43680,
            "time": 256.941048,
            "velocity": 0.8267716535433071
          },
          {
            "duration": 0.0823528999999894,
            "durationTicks": 14,
            "midi": 42,
            "name": "F#2",
            "ticks": 43740,
            "time": 257.293989,
            "velocity": 0.8267716535433071
          },
          {
            "duration": 0.0823528999999894,
            "durationTicks": 14,
            "midi": 44,
            "name": "G#2",
            "ticks": 43770,
            "time": 257.4704595,
            "velocity": 0.8267716535433071
          },
          {
            "duration": 0.0823528999999894,
            "durationTicks": 14,
            "midi": 53,
            "name": "F3",
            "ticks": 43800,
            "time": 257.64693,
            "velocity": 0.8267716535433071
          },
          {
            "duration": 0.0823528999999894,
            "durationTicks": 14,
            "midi": 42,
            "name": "F#2",
            "ticks": 43800,
            "time": 257.64693,
            "velocity": 0.8267716535433071
          },
          {
            "duration": 0.08235290000004625,
            "durationTicks": 14,
            "midi": 42,
            "name": "F#2",
            "ticks": 43860,
            "time": 257.999871,
            "velocity": 0.8267716535433071
          },
          {
            "duration": 0.08235290000004625,
            "durationTicks": 14,
            "midi": 44,
            "name": "G#2",
            "ticks": 43890,
            "time": 258.1763415,
            "velocity": 0.8267716535433071
          },
          {
            "duration": 0.0823528999999894,
            "durationTicks": 14,
            "midi": 53,
            "name": "F3",
            "ticks": 43920,
            "time": 258.35281200000003,
            "velocity": 0.8267716535433071
          },
          {
            "duration": 0.0823528999999894,
            "durationTicks": 14,
            "midi": 42,
            "name": "F#2",
            "ticks": 43920,
            "time": 258.35281200000003,
            "velocity": 0.8267716535433071
          },
          {
            "duration": 0.0823528999999894,
            "durationTicks": 14,
            "midi": 42,
            "name": "F#2",
            "ticks": 43980,
            "time": 258.705753,
            "velocity": 0.8267716535433071
          },
          {
            "duration": 0.0823528999999894,
            "durationTicks": 14,
            "midi": 44,
            "name": "G#2",
            "ticks": 44010,
            "time": 258.8822235,
            "velocity": 0.8267716535433071
          },
          {
            "duration": 0.0823528999999894,
            "durationTicks": 14,
            "midi": 55,
            "name": "G3",
            "ticks": 44040,
            "time": 259.058694,
            "velocity": 0.8267716535433071
          },
          {
            "duration": 0.0823528999999894,
            "durationTicks": 14,
            "midi": 53,
            "name": "F3",
            "ticks": 44040,
            "time": 259.058694,
            "velocity": 0.8267716535433071
          },
          {
            "duration": 0.0823528999999894,
            "durationTicks": 14,
            "midi": 42,
            "name": "F#2",
            "ticks": 44040,
            "time": 259.058694,
            "velocity": 0.8267716535433071
          },
          {
            "duration": 0.08235290000004625,
            "durationTicks": 14,
            "midi": 42,
            "name": "F#2",
            "ticks": 44100,
            "time": 259.411635,
            "velocity": 0.8267716535433071
          },
          {
            "duration": 0.08235290000004625,
            "durationTicks": 14,
            "midi": 44,
            "name": "G#2",
            "ticks": 44130,
            "time": 259.5881055,
            "velocity": 0.8267716535433071
          },
          {
            "duration": 0.08235290000004625,
            "durationTicks": 14,
            "midi": 53,
            "name": "F3",
            "ticks": 44160,
            "time": 259.764576,
            "velocity": 0.8267716535433071
          },
          {
            "duration": 0.08235290000004625,
            "durationTicks": 14,
            "midi": 42,
            "name": "F#2",
            "ticks": 44160,
            "time": 259.764576,
            "velocity": 0.8267716535433071
          },
          {
            "duration": 0.0823528999999894,
            "durationTicks": 14,
            "midi": 42,
            "name": "F#2",
            "ticks": 44220,
            "time": 260.117517,
            "velocity": 0.8267716535433071
          },
          {
            "duration": 0.0823528999999894,
            "durationTicks": 14,
            "midi": 44,
            "name": "G#2",
            "ticks": 44250,
            "time": 260.2939875,
            "velocity": 0.8267716535433071
          },
          {
            "duration": 0.0823528999999894,
            "durationTicks": 14,
            "midi": 53,
            "name": "F3",
            "ticks": 44280,
            "time": 260.470458,
            "velocity": 0.8267716535433071
          },
          {
            "duration": 0.0823528999999894,
            "durationTicks": 14,
            "midi": 42,
            "name": "F#2",
            "ticks": 44280,
            "time": 260.470458,
            "velocity": 0.8267716535433071
          },
          {
            "duration": 0.0823528999999894,
            "durationTicks": 14,
            "midi": 42,
            "name": "F#2",
            "ticks": 44340,
            "time": 260.823399,
            "velocity": 0.8267716535433071
          },
          {
            "duration": 0.08235290000004625,
            "durationTicks": 14,
            "midi": 44,
            "name": "G#2",
            "ticks": 44370,
            "time": 260.9998695,
            "velocity": 0.8267716535433071
          },
          {
            "duration": 0.08235290000004625,
            "durationTicks": 14,
            "midi": 53,
            "name": "F3",
            "ticks": 44400,
            "time": 261.17634,
            "velocity": 0.8267716535433071
          },
          {
            "duration": 0.08235290000004625,
            "durationTicks": 14,
            "midi": 42,
            "name": "F#2",
            "ticks": 44400,
            "time": 261.17634,
            "velocity": 0.8267716535433071
          },
          {
            "duration": 0.0823528999999894,
            "durationTicks": 14,
            "midi": 42,
            "name": "F#2",
            "ticks": 44460,
            "time": 261.529281,
            "velocity": 0.8267716535433071
          },
          {
            "duration": 0.0823528999999894,
            "durationTicks": 14,
            "midi": 44,
            "name": "G#2",
            "ticks": 44490,
            "time": 261.7057515,
            "velocity": 0.8267716535433071
          },
          {
            "duration": 0.0823528999999894,
            "durationTicks": 14,
            "midi": 55,
            "name": "G3",
            "ticks": 44520,
            "time": 261.882222,
            "velocity": 0.8267716535433071
          },
          {
            "duration": 0.0823528999999894,
            "durationTicks": 14,
            "midi": 53,
            "name": "F3",
            "ticks": 44520,
            "time": 261.882222,
            "velocity": 0.8267716535433071
          },
          {
            "duration": 0.0823528999999894,
            "durationTicks": 14,
            "midi": 42,
            "name": "F#2",
            "ticks": 44520,
            "time": 261.882222,
            "velocity": 0.8267716535433071
          },
          {
            "duration": 0.0823528999999894,
            "durationTicks": 14,
            "midi": 42,
            "name": "F#2",
            "ticks": 44580,
            "time": 262.235163,
            "velocity": 0.8267716535433071
          },
          {
            "duration": 0.0823528999999894,
            "durationTicks": 14,
            "midi": 52,
            "name": "E3",
            "ticks": 44610,
            "time": 262.4116335,
            "velocity": 0.8267716535433071
          },
          {
            "duration": 0.0823528999999894,
            "durationTicks": 14,
            "midi": 44,
            "name": "G#2",
            "ticks": 44610,
            "time": 262.4116335,
            "velocity": 0.8267716535433071
          },
          {
            "duration": 0.08235290000004625,
            "durationTicks": 14,
            "midi": 53,
            "name": "F3",
            "ticks": 44640,
            "time": 262.588104,
            "velocity": 0.8267716535433071
          },
          {
            "duration": 0.08235290000004625,
            "durationTicks": 14,
            "midi": 42,
            "name": "F#2",
            "ticks": 44640,
            "time": 262.588104,
            "velocity": 0.8267716535433071
          },
          {
            "duration": 0.0823528999999894,
            "durationTicks": 14,
            "midi": 42,
            "name": "F#2",
            "ticks": 44700,
            "time": 262.94104500000003,
            "velocity": 0.8267716535433071
          },
          {
            "duration": 0.0823528999999894,
            "durationTicks": 14,
            "midi": 44,
            "name": "G#2",
            "ticks": 44730,
            "time": 263.1175155,
            "velocity": 0.8267716535433071
          },
          {
            "duration": 0.0823528999999894,
            "durationTicks": 14,
            "midi": 53,
            "name": "F3",
            "ticks": 44760,
            "time": 263.293986,
            "velocity": 0.8267716535433071
          },
          {
            "duration": 0.0823528999999894,
            "durationTicks": 14,
            "midi": 42,
            "name": "F#2",
            "ticks": 44760,
            "time": 263.293986,
            "velocity": 0.8267716535433071
          },
          {
            "duration": 0.0823528999999894,
            "durationTicks": 14,
            "midi": 42,
            "name": "F#2",
            "ticks": 44820,
            "time": 263.646927,
            "velocity": 0.8267716535433071
          },
          {
            "duration": 0.0823528999999894,
            "durationTicks": 14,
            "midi": 44,
            "name": "G#2",
            "ticks": 44850,
            "time": 263.8233975,
            "velocity": 0.8267716535433071
          },
          {
            "duration": 0.0823528999999894,
            "durationTicks": 14,
            "midi": 53,
            "name": "F3",
            "ticks": 44880,
            "time": 263.999868,
            "velocity": 0.8267716535433071
          },
          {
            "duration": 0.0823528999999894,
            "durationTicks": 14,
            "midi": 42,
            "name": "F#2",
            "ticks": 44880,
            "time": 263.999868,
            "velocity": 0.8267716535433071
          },
          {
            "duration": 0.08235290000004625,
            "durationTicks": 14,
            "midi": 42,
            "name": "F#2",
            "ticks": 44940,
            "time": 264.352809,
            "velocity": 0.8267716535433071
          },
          {
            "duration": 0.0823528999999894,
            "durationTicks": 14,
            "midi": 44,
            "name": "G#2",
            "ticks": 44970,
            "time": 264.52927950000003,
            "velocity": 0.8267716535433071
          },
          {
            "duration": 0.0823528999999894,
            "durationTicks": 14,
            "midi": 55,
            "name": "G3",
            "ticks": 45000,
            "time": 264.70575,
            "velocity": 0.8267716535433071
          },
          {
            "duration": 0.0823528999999894,
            "durationTicks": 14,
            "midi": 53,
            "name": "F3",
            "ticks": 45000,
            "time": 264.70575,
            "velocity": 0.8267716535433071
          },
          {
            "duration": 0.0823528999999894,
            "durationTicks": 14,
            "midi": 42,
            "name": "F#2",
            "ticks": 45000,
            "time": 264.70575,
            "velocity": 0.8267716535433071
          },
          {
            "duration": 0.0823528999999894,
            "durationTicks": 14,
            "midi": 42,
            "name": "F#2",
            "ticks": 45060,
            "time": 265.058691,
            "velocity": 0.8267716535433071
          },
          {
            "duration": 0.0823528999999894,
            "durationTicks": 14,
            "midi": 44,
            "name": "G#2",
            "ticks": 45090,
            "time": 265.2351615,
            "velocity": 0.8267716535433071
          },
          {
            "duration": 0.0823528999999894,
            "durationTicks": 14,
            "midi": 53,
            "name": "F3",
            "ticks": 45120,
            "time": 265.411632,
            "velocity": 0.8267716535433071
          },
          {
            "duration": 0.0823528999999894,
            "durationTicks": 14,
            "midi": 42,
            "name": "F#2",
            "ticks": 45120,
            "time": 265.411632,
            "velocity": 0.8267716535433071
          },
          {
            "duration": 0.08235290000004625,
            "durationTicks": 14,
            "midi": 42,
            "name": "F#2",
            "ticks": 45180,
            "time": 265.764573,
            "velocity": 0.8267716535433071
          },
          {
            "duration": 0.08235290000004625,
            "durationTicks": 14,
            "midi": 44,
            "name": "G#2",
            "ticks": 45210,
            "time": 265.9410435,
            "velocity": 0.8267716535433071
          },
          {
            "duration": 0.0823528999999894,
            "durationTicks": 14,
            "midi": 53,
            "name": "F3",
            "ticks": 45240,
            "time": 266.117514,
            "velocity": 0.8267716535433071
          },
          {
            "duration": 0.0823528999999894,
            "durationTicks": 14,
            "midi": 42,
            "name": "F#2",
            "ticks": 45240,
            "time": 266.117514,
            "velocity": 0.8267716535433071
          },
          {
            "duration": 0.0823528999999894,
            "durationTicks": 14,
            "midi": 42,
            "name": "F#2",
            "ticks": 45300,
            "time": 266.470455,
            "velocity": 0.8267716535433071
          },
          {
            "duration": 0.0823528999999894,
            "durationTicks": 14,
            "midi": 44,
            "name": "G#2",
            "ticks": 45330,
            "time": 266.6469255,
            "velocity": 0.8267716535433071
          },
          {
            "duration": 0.0823528999999894,
            "durationTicks": 14,
            "midi": 53,
            "name": "F3",
            "ticks": 45360,
            "time": 266.823396,
            "velocity": 0.8267716535433071
          },
          {
            "duration": 0.0823528999999894,
            "durationTicks": 14,
            "midi": 42,
            "name": "F#2",
            "ticks": 45360,
            "time": 266.823396,
            "velocity": 0.8267716535433071
          },
          {
            "duration": 0.08235290000004625,
            "durationTicks": 14,
            "midi": 42,
            "name": "F#2",
            "ticks": 45420,
            "time": 267.176337,
            "velocity": 0.8267716535433071
          },
          {
            "duration": 0.08235290000004625,
            "durationTicks": 14,
            "midi": 44,
            "name": "G#2",
            "ticks": 45450,
            "time": 267.3528075,
            "velocity": 0.8267716535433071
          },
          {
            "duration": 0.08235290000004625,
            "durationTicks": 14,
            "midi": 55,
            "name": "G3",
            "ticks": 45480,
            "time": 267.529278,
            "velocity": 0.8267716535433071
          },
          {
            "duration": 0.08235290000004625,
            "durationTicks": 14,
            "midi": 53,
            "name": "F3",
            "ticks": 45480,
            "time": 267.529278,
            "velocity": 0.8267716535433071
          },
          {
            "duration": 0.08235290000004625,
            "durationTicks": 14,
            "midi": 42,
            "name": "F#2",
            "ticks": 45480,
            "time": 267.529278,
            "velocity": 0.8267716535433071
          },
          {
            "duration": 0.0823528999999894,
            "durationTicks": 14,
            "midi": 42,
            "name": "F#2",
            "ticks": 45540,
            "time": 267.882219,
            "velocity": 0.8267716535433071
          },
          {
            "duration": 0.0823528999999894,
            "durationTicks": 14,
            "midi": 44,
            "name": "G#2",
            "ticks": 45570,
            "time": 268.0586895,
            "velocity": 0.8267716535433071
          },
          {
            "duration": 0.0823528999999894,
            "durationTicks": 14,
            "midi": 53,
            "name": "F3",
            "ticks": 45600,
            "time": 268.23516,
            "velocity": 0.8267716535433071
          },
          {
            "duration": 0.0823528999999894,
            "durationTicks": 14,
            "midi": 42,
            "name": "F#2",
            "ticks": 45600,
            "time": 268.23516,
            "velocity": 0.8267716535433071
          },
          {
            "duration": 0.0823528999999894,
            "durationTicks": 14,
            "midi": 42,
            "name": "F#2",
            "ticks": 45660,
            "time": 268.588101,
            "velocity": 0.8267716535433071
          },
          {
            "duration": 0.08235290000004625,
            "durationTicks": 14,
            "midi": 44,
            "name": "G#2",
            "ticks": 45690,
            "time": 268.7645715,
            "velocity": 0.8267716535433071
          },
          {
            "duration": 0.08235290000004625,
            "durationTicks": 14,
            "midi": 53,
            "name": "F3",
            "ticks": 45720,
            "time": 268.941042,
            "velocity": 0.8267716535433071
          },
          {
            "duration": 0.08235290000004625,
            "durationTicks": 14,
            "midi": 42,
            "name": "F#2",
            "ticks": 45720,
            "time": 268.941042,
            "velocity": 0.8267716535433071
          },
          {
            "duration": 0.0823528999999894,
            "durationTicks": 14,
            "midi": 42,
            "name": "F#2",
            "ticks": 45780,
            "time": 269.293983,
            "velocity": 0.8267716535433071
          },
          {
            "duration": 0.0823528999999894,
            "durationTicks": 14,
            "midi": 44,
            "name": "G#2",
            "ticks": 45810,
            "time": 269.4704535,
            "velocity": 0.8267716535433071
          },
          {
            "duration": 0.0823528999999894,
            "durationTicks": 14,
            "midi": 53,
            "name": "F3",
            "ticks": 45840,
            "time": 269.646924,
            "velocity": 0.8267716535433071
          },
          {
            "duration": 0.0823528999999894,
            "durationTicks": 14,
            "midi": 42,
            "name": "F#2",
            "ticks": 45840,
            "time": 269.646924,
            "velocity": 0.8267716535433071
          },
          {
            "duration": 0.0823528999999894,
            "durationTicks": 14,
            "midi": 42,
            "name": "F#2",
            "ticks": 45900,
            "time": 269.999865,
            "velocity": 0.8267716535433071
          },
          {
            "duration": 0.0823528999999894,
            "durationTicks": 14,
            "midi": 44,
            "name": "G#2",
            "ticks": 45930,
            "time": 270.1763355,
            "velocity": 0.8267716535433071
          },
          {
            "duration": 0.08235290000004625,
            "durationTicks": 14,
            "midi": 55,
            "name": "G3",
            "ticks": 45960,
            "time": 270.352806,
            "velocity": 0.8267716535433071
          },
          {
            "duration": 0.08235290000004625,
            "durationTicks": 14,
            "midi": 53,
            "name": "F3",
            "ticks": 45960,
            "time": 270.352806,
            "velocity": 0.8267716535433071
          },
          {
            "duration": 0.08235290000004625,
            "durationTicks": 14,
            "midi": 42,
            "name": "F#2",
            "ticks": 45960,
            "time": 270.352806,
            "velocity": 0.8267716535433071
          },
          {
            "duration": 0.0823528999999894,
            "durationTicks": 14,
            "midi": 42,
            "name": "F#2",
            "ticks": 46020,
            "time": 270.70574700000003,
            "velocity": 0.8267716535433071
          },
          {
            "duration": 0.0823528999999894,
            "durationTicks": 14,
            "midi": 44,
            "name": "G#2",
            "ticks": 46050,
            "time": 270.8822175,
            "velocity": 0.8267716535433071
          },
          {
            "duration": 0.0823528999999894,
            "durationTicks": 14,
            "midi": 53,
            "name": "F3",
            "ticks": 46080,
            "time": 271.058688,
            "velocity": 0.8267716535433071
          },
          {
            "duration": 0.0823528999999894,
            "durationTicks": 14,
            "midi": 42,
            "name": "F#2",
            "ticks": 46140,
            "time": 271.411629,
            "velocity": 0.8267716535433071
          },
          {
            "duration": 0.0823528999999894,
            "durationTicks": 14,
            "midi": 44,
            "name": "G#2",
            "ticks": 46170,
            "time": 271.5880995,
            "velocity": 0.8267716535433071
          },
          {
            "duration": 0.0823528999999894,
            "durationTicks": 14,
            "midi": 53,
            "name": "F3",
            "ticks": 46200,
            "time": 271.76457,
            "velocity": 0.8267716535433071
          },
          {
            "duration": 0.0823528999999894,
            "durationTicks": 14,
            "midi": 42,
            "name": "F#2",
            "ticks": 46200,
            "time": 271.76457,
            "velocity": 0.8267716535433071
          },
          {
            "duration": 0.08235290000004625,
            "durationTicks": 14,
            "midi": 42,
            "name": "F#2",
            "ticks": 46260,
            "time": 272.117511,
            "velocity": 0.8267716535433071
          },
          {
            "duration": 0.0823528999999894,
            "durationTicks": 14,
            "midi": 44,
            "name": "G#2",
            "ticks": 46290,
            "time": 272.29398150000003,
            "velocity": 0.8267716535433071
          },
          {
            "duration": 0.0823528999999894,
            "durationTicks": 14,
            "midi": 53,
            "name": "F3",
            "ticks": 46320,
            "time": 272.470452,
            "velocity": 0.8267716535433071
          },
          {
            "duration": 0.0823528999999894,
            "durationTicks": 14,
            "midi": 42,
            "name": "F#2",
            "ticks": 46320,
            "time": 272.470452,
            "velocity": 0.8267716535433071
          },
          {
            "duration": 0.0823528999999894,
            "durationTicks": 14,
            "midi": 44,
            "name": "G#2",
            "ticks": 46380,
            "time": 272.823393,
            "velocity": 0.8267716535433071
          },
          {
            "duration": 0.0823528999999894,
            "durationTicks": 14,
            "midi": 49,
            "name": "C#3",
            "ticks": 46440,
            "time": 273.176334,
            "velocity": 0.8267716535433071
          },
          {
            "duration": 0.0823528999999894,
            "durationTicks": 14,
            "midi": 44,
            "name": "G#2",
            "ticks": 46440,
            "time": 273.176334,
            "velocity": 0.8267716535433071
          },
          {
            "duration": 0.08235290000004625,
            "durationTicks": 14,
            "midi": 44,
            "name": "G#2",
            "ticks": 46500,
            "time": 273.529275,
            "velocity": 0.8267716535433071
          },
          {
            "duration": 0.0823528999999894,
            "durationTicks": 14,
            "midi": 57,
            "name": "A3",
            "ticks": 46560,
            "time": 273.882216,
            "velocity": 0.8267716535433071
          },
          {
            "duration": 0.0823528999999894,
            "durationTicks": 14,
            "midi": 42,
            "name": "F#2",
            "ticks": 46560,
            "time": 273.882216,
            "velocity": 0.8267716535433071
          },
          {
            "duration": 0.0823528999999894,
            "durationTicks": 14,
            "midi": 42,
            "name": "F#2",
            "ticks": 46620,
            "time": 274.235157,
            "velocity": 0.8267716535433071
          },
          {
            "duration": 0.0823528999999894,
            "durationTicks": 14,
            "midi": 44,
            "name": "G#2",
            "ticks": 46650,
            "time": 274.4116275,
            "velocity": 0.8267716535433071
          },
          {
            "duration": 0.0823528999999894,
            "durationTicks": 14,
            "midi": 53,
            "name": "F3",
            "ticks": 46680,
            "time": 274.588098,
            "velocity": 0.8267716535433071
          },
          {
            "duration": 0.0823528999999894,
            "durationTicks": 14,
            "midi": 42,
            "name": "F#2",
            "ticks": 46680,
            "time": 274.588098,
            "velocity": 0.8267716535433071
          },
          {
            "duration": 0.08235290000004625,
            "durationTicks": 14,
            "midi": 42,
            "name": "F#2",
            "ticks": 46740,
            "time": 274.941039,
            "velocity": 0.8267716535433071
          },
          {
            "duration": 0.08235290000004625,
            "durationTicks": 14,
            "midi": 44,
            "name": "G#2",
            "ticks": 46770,
            "time": 275.1175095,
            "velocity": 0.8267716535433071
          },
          {
            "duration": 0.08235290000004625,
            "durationTicks": 14,
            "midi": 53,
            "name": "F3",
            "ticks": 46800,
            "time": 275.29398,
            "velocity": 0.8267716535433071
          },
          {
            "duration": 0.08235290000004625,
            "durationTicks": 14,
            "midi": 42,
            "name": "F#2",
            "ticks": 46800,
            "time": 275.29398,
            "velocity": 0.8267716535433071
          },
          {
            "duration": 0.0823528999999894,
            "durationTicks": 14,
            "midi": 42,
            "name": "F#2",
            "ticks": 46860,
            "time": 275.646921,
            "velocity": 0.8267716535433071
          },
          {
            "duration": 0.0823528999999894,
            "durationTicks": 14,
            "midi": 44,
            "name": "G#2",
            "ticks": 46890,
            "time": 275.8233915,
            "velocity": 0.8267716535433071
          },
          {
            "duration": 0.0823528999999894,
            "durationTicks": 14,
            "midi": 55,
            "name": "G3",
            "ticks": 46920,
            "time": 275.999862,
            "velocity": 0.8267716535433071
          },
          {
            "duration": 0.0823528999999894,
            "durationTicks": 14,
            "midi": 53,
            "name": "F3",
            "ticks": 46920,
            "time": 275.999862,
            "velocity": 0.8267716535433071
          },
          {
            "duration": 0.0823528999999894,
            "durationTicks": 14,
            "midi": 42,
            "name": "F#2",
            "ticks": 46920,
            "time": 275.999862,
            "velocity": 0.8267716535433071
          },
          {
            "duration": 0.0823528999999894,
            "durationTicks": 14,
            "midi": 42,
            "name": "F#2",
            "ticks": 46980,
            "time": 276.352803,
            "velocity": 0.8267716535433071
          },
          {
            "duration": 0.08235290000004625,
            "durationTicks": 14,
            "midi": 44,
            "name": "G#2",
            "ticks": 47010,
            "time": 276.5292735,
            "velocity": 0.8267716535433071
          },
          {
            "duration": 0.08235290000004625,
            "durationTicks": 14,
            "midi": 53,
            "name": "F3",
            "ticks": 47040,
            "time": 276.705744,
            "velocity": 0.8267716535433071
          },
          {
            "duration": 0.08235290000004625,
            "durationTicks": 14,
            "midi": 42,
            "name": "F#2",
            "ticks": 47040,
            "time": 276.705744,
            "velocity": 0.8267716535433071
          },
          {
            "duration": 0.0823528999999894,
            "durationTicks": 14,
            "midi": 42,
            "name": "F#2",
            "ticks": 47100,
            "time": 277.058685,
            "velocity": 0.8267716535433071
          },
          {
            "duration": 0.0823528999999894,
            "durationTicks": 14,
            "midi": 44,
            "name": "G#2",
            "ticks": 47130,
            "time": 277.2351555,
            "velocity": 0.8267716535433071
          },
          {
            "duration": 0.0823528999999894,
            "durationTicks": 14,
            "midi": 42,
            "name": "F#2",
            "ticks": 47160,
            "time": 277.411626,
            "velocity": 0.8267716535433071
          },
          {
            "duration": 0.0823528999999894,
            "durationTicks": 14,
            "midi": 53,
            "name": "F3",
            "ticks": 47160,
            "time": 277.411626,
            "velocity": 0.8267716535433071
          },
          {
            "duration": 0.0823528999999894,
            "durationTicks": 14,
            "midi": 42,
            "name": "F#2",
            "ticks": 47220,
            "time": 277.764567,
            "velocity": 0.8267716535433071
          },
          {
            "duration": 0.0823528999999894,
            "durationTicks": 14,
            "midi": 44,
            "name": "G#2",
            "ticks": 47250,
            "time": 277.9410375,
            "velocity": 0.8267716535433071
          },
          {
            "duration": 0.08235290000004625,
            "durationTicks": 14,
            "midi": 42,
            "name": "F#2",
            "ticks": 47280,
            "time": 278.117508,
            "velocity": 0.8267716535433071
          },
          {
            "duration": 0.08235290000004625,
            "durationTicks": 14,
            "midi": 53,
            "name": "F3",
            "ticks": 47280,
            "time": 278.117508,
            "velocity": 0.8267716535433071
          },
          {
            "duration": 0.0823528999999894,
            "durationTicks": 14,
            "midi": 42,
            "name": "F#2",
            "ticks": 47340,
            "time": 278.47044900000003,
            "velocity": 0.8267716535433071
          },
          {
            "duration": 0.0823528999999894,
            "durationTicks": 14,
            "midi": 44,
            "name": "G#2",
            "ticks": 47370,
            "time": 278.6469195,
            "velocity": 0.8267716535433071
          },
          {
            "duration": 0.0823528999999894,
            "durationTicks": 14,
            "midi": 53,
            "name": "F3",
            "ticks": 47400,
            "time": 278.82339,
            "velocity": 0.8267716535433071
          },
          {
            "duration": 0.0823528999999894,
            "durationTicks": 14,
            "midi": 55,
            "name": "G3",
            "ticks": 47400,
            "time": 278.82339,
            "velocity": 0.8267716535433071
          },
          {
            "duration": 0.0823528999999894,
            "durationTicks": 14,
            "midi": 42,
            "name": "F#2",
            "ticks": 47400,
            "time": 278.82339,
            "velocity": 0.8267716535433071
          },
          {
            "duration": 0.0823528999999894,
            "durationTicks": 14,
            "midi": 42,
            "name": "F#2",
            "ticks": 47460,
            "time": 279.176331,
            "velocity": 0.8267716535433071
          },
          {
            "duration": 0.0823528999999894,
            "durationTicks": 14,
            "midi": 44,
            "name": "G#2",
            "ticks": 47490,
            "time": 279.3528015,
            "velocity": 0.8267716535433071
          },
          {
            "duration": 0.0823528999999894,
            "durationTicks": 14,
            "midi": 53,
            "name": "F3",
            "ticks": 47520,
            "time": 279.529272,
            "velocity": 0.8267716535433071
          },
          {
            "duration": 0.0823528999999894,
            "durationTicks": 14,
            "midi": 42,
            "name": "F#2",
            "ticks": 47520,
            "time": 279.529272,
            "velocity": 0.8267716535433071
          },
          {
            "duration": 0.08235290000004625,
            "durationTicks": 14,
            "midi": 42,
            "name": "F#2",
            "ticks": 47580,
            "time": 279.882213,
            "velocity": 0.8267716535433071
          },
          {
            "duration": 0.0823528999999894,
            "durationTicks": 14,
            "midi": 44,
            "name": "G#2",
            "ticks": 47610,
            "time": 280.05868350000003,
            "velocity": 0.8267716535433071
          },
          {
            "duration": 0.0823528999999894,
            "durationTicks": 14,
            "midi": 53,
            "name": "F3",
            "ticks": 47640,
            "time": 280.235154,
            "velocity": 0.8267716535433071
          },
          {
            "duration": 0.0823528999999894,
            "durationTicks": 14,
            "midi": 42,
            "name": "F#2",
            "ticks": 47640,
            "time": 280.235154,
            "velocity": 0.8267716535433071
          },
          {
            "duration": 0.0823528999999894,
            "durationTicks": 14,
            "midi": 42,
            "name": "F#2",
            "ticks": 47700,
            "time": 280.588095,
            "velocity": 0.8267716535433071
          },
          {
            "duration": 0.0823528999999894,
            "durationTicks": 14,
            "midi": 44,
            "name": "G#2",
            "ticks": 47730,
            "time": 280.7645655,
            "velocity": 0.8267716535433071
          },
          {
            "duration": 0.0823528999999894,
            "durationTicks": 14,
            "midi": 53,
            "name": "F3",
            "ticks": 47760,
            "time": 280.941036,
            "velocity": 0.8267716535433071
          },
          {
            "duration": 0.0823528999999894,
            "durationTicks": 14,
            "midi": 42,
            "name": "F#2",
            "ticks": 47760,
            "time": 280.941036,
            "velocity": 0.8267716535433071
          },
          {
            "duration": 0.08235290000004625,
            "durationTicks": 14,
            "midi": 42,
            "name": "F#2",
            "ticks": 47820,
            "time": 281.293977,
            "velocity": 0.8267716535433071
          },
          {
            "duration": 0.08235290000004625,
            "durationTicks": 14,
            "midi": 44,
            "name": "G#2",
            "ticks": 47850,
            "time": 281.4704475,
            "velocity": 0.8267716535433071
          },
          {
            "duration": 0.0823528999999894,
            "durationTicks": 14,
            "midi": 55,
            "name": "G3",
            "ticks": 47880,
            "time": 281.646918,
            "velocity": 0.8267716535433071
          },
          {
            "duration": 0.0823528999999894,
            "durationTicks": 14,
            "midi": 53,
            "name": "F3",
            "ticks": 47880,
            "time": 281.646918,
            "velocity": 0.8267716535433071
          },
          {
            "duration": 0.0823528999999894,
            "durationTicks": 14,
            "midi": 42,
            "name": "F#2",
            "ticks": 47880,
            "time": 281.646918,
            "velocity": 0.8267716535433071
          },
          {
            "duration": 0.0823528999999894,
            "durationTicks": 14,
            "midi": 42,
            "name": "F#2",
            "ticks": 47940,
            "time": 281.999859,
            "velocity": 0.8267716535433071
          },
          {
            "duration": 0.0823528999999894,
            "durationTicks": 14,
            "midi": 44,
            "name": "G#2",
            "ticks": 47970,
            "time": 282.1763295,
            "velocity": 0.8267716535433071
          },
          {
            "duration": 0.0823528999999894,
            "durationTicks": 14,
            "midi": 53,
            "name": "F3",
            "ticks": 48000,
            "time": 282.3528,
            "velocity": 0.8267716535433071
          },
          {
            "duration": 0.0823528999999894,
            "durationTicks": 14,
            "midi": 42,
            "name": "F#2",
            "ticks": 48000,
            "time": 282.3528,
            "velocity": 0.8267716535433071
          },
          {
            "duration": 0.08235290000004625,
            "durationTicks": 14,
            "midi": 42,
            "name": "F#2",
            "ticks": 48060,
            "time": 282.705741,
            "velocity": 0.8267716535433071
          },
          {
            "duration": 0.08235290000004625,
            "durationTicks": 14,
            "midi": 44,
            "name": "G#2",
            "ticks": 48090,
            "time": 282.8822115,
            "velocity": 0.8267716535433071
          },
          {
            "duration": 0.08235290000004625,
            "durationTicks": 14,
            "midi": 53,
            "name": "F3",
            "ticks": 48120,
            "time": 283.058682,
            "velocity": 0.8267716535433071
          },
          {
            "duration": 0.08235290000004625,
            "durationTicks": 14,
            "midi": 42,
            "name": "F#2",
            "ticks": 48120,
            "time": 283.058682,
            "velocity": 0.8267716535433071
          },
          {
            "duration": 0.0823528999999894,
            "durationTicks": 14,
            "midi": 42,
            "name": "F#2",
            "ticks": 48180,
            "time": 283.411623,
            "velocity": 0.8267716535433071
          },
          {
            "duration": 0.0823528999999894,
            "durationTicks": 14,
            "midi": 44,
            "name": "G#2",
            "ticks": 48210,
            "time": 283.5880935,
            "velocity": 0.8267716535433071
          },
          {
            "duration": 0.0823528999999894,
            "durationTicks": 14,
            "midi": 53,
            "name": "F3",
            "ticks": 48240,
            "time": 283.764564,
            "velocity": 0.8267716535433071
          },
          {
            "duration": 0.0823528999999894,
            "durationTicks": 14,
            "midi": 42,
            "name": "F#2",
            "ticks": 48240,
            "time": 283.764564,
            "velocity": 0.8267716535433071
          },
          {
            "duration": 0.0823528999999894,
            "durationTicks": 14,
            "midi": 42,
            "name": "F#2",
            "ticks": 48300,
            "time": 284.117505,
            "velocity": 0.8267716535433071
          },
          {
            "duration": 0.08235290000004625,
            "durationTicks": 14,
            "midi": 44,
            "name": "G#2",
            "ticks": 48330,
            "time": 284.2939755,
            "velocity": 0.8267716535433071
          },
          {
            "duration": 0.08235290000004625,
            "durationTicks": 14,
            "midi": 55,
            "name": "G3",
            "ticks": 48360,
            "time": 284.470446,
            "velocity": 0.8267716535433071
          },
          {
            "duration": 0.08235290000004625,
            "durationTicks": 14,
            "midi": 53,
            "name": "F3",
            "ticks": 48360,
            "time": 284.470446,
            "velocity": 0.8267716535433071
          },
          {
            "duration": 0.08235290000004625,
            "durationTicks": 14,
            "midi": 42,
            "name": "F#2",
            "ticks": 48360,
            "time": 284.470446,
            "velocity": 0.8267716535433071
          },
          {
            "duration": 0.0823528999999894,
            "durationTicks": 14,
            "midi": 42,
            "name": "F#2",
            "ticks": 48420,
            "time": 284.823387,
            "velocity": 0.8267716535433071
          },
          {
            "duration": 0.0823528999999894,
            "durationTicks": 14,
            "midi": 44,
            "name": "G#2",
            "ticks": 48450,
            "time": 284.9998575,
            "velocity": 0.8267716535433071
          },
          {
            "duration": 0.0823528999999894,
            "durationTicks": 14,
            "midi": 53,
            "name": "F3",
            "ticks": 48480,
            "time": 285.176328,
            "velocity": 0.8267716535433071
          },
          {
            "duration": 0.0823528999999894,
            "durationTicks": 14,
            "midi": 42,
            "name": "F#2",
            "ticks": 48480,
            "time": 285.176328,
            "velocity": 0.8267716535433071
          },
          {
            "duration": 0.0823528999999894,
            "durationTicks": 14,
            "midi": 42,
            "name": "F#2",
            "ticks": 48540,
            "time": 285.529269,
            "velocity": 0.8267716535433071
          },
          {
            "duration": 0.0823528999999894,
            "durationTicks": 14,
            "midi": 44,
            "name": "G#2",
            "ticks": 48570,
            "time": 285.7057395,
            "velocity": 0.8267716535433071
          },
          {
            "duration": 0.08235290000004625,
            "durationTicks": 14,
            "midi": 53,
            "name": "F3",
            "ticks": 48600,
            "time": 285.88221,
            "velocity": 0.8267716535433071
          },
          {
            "duration": 0.08235290000004625,
            "durationTicks": 14,
            "midi": 42,
            "name": "F#2",
            "ticks": 48600,
            "time": 285.88221,
            "velocity": 0.8267716535433071
          },
          {
            "duration": 0.0823528999999894,
            "durationTicks": 14,
            "midi": 42,
            "name": "F#2",
            "ticks": 48660,
            "time": 286.23515100000003,
            "velocity": 0.8267716535433071
          },
          {
            "duration": 0.0823528999999894,
            "durationTicks": 14,
            "midi": 44,
            "name": "G#2",
            "ticks": 48690,
            "time": 286.4116215,
            "velocity": 0.8267716535433071
          },
          {
            "duration": 0.0823528999999894,
            "durationTicks": 14,
            "midi": 53,
            "name": "F3",
            "ticks": 48720,
            "time": 286.588092,
            "velocity": 0.8267716535433071
          },
          {
            "duration": 0.0823528999999894,
            "durationTicks": 14,
            "midi": 42,
            "name": "F#2",
            "ticks": 48720,
            "time": 286.588092,
            "velocity": 0.8267716535433071
          },
          {
            "duration": 0.0823528999999894,
            "durationTicks": 14,
            "midi": 42,
            "name": "F#2",
            "ticks": 48780,
            "time": 286.941033,
            "velocity": 0.8267716535433071
          },
          {
            "duration": 0.0823528999999894,
            "durationTicks": 14,
            "midi": 44,
            "name": "G#2",
            "ticks": 48810,
            "time": 287.1175035,
            "velocity": 0.8267716535433071
          },
          {
            "duration": 0.0823528999999894,
            "durationTicks": 14,
            "midi": 55,
            "name": "G3",
            "ticks": 48840,
            "time": 287.293974,
            "velocity": 0.8267716535433071
          },
          {
            "duration": 0.0823528999999894,
            "durationTicks": 14,
            "midi": 53,
            "name": "F3",
            "ticks": 48840,
            "time": 287.293974,
            "velocity": 0.8267716535433071
          },
          {
            "duration": 0.0823528999999894,
            "durationTicks": 14,
            "midi": 42,
            "name": "F#2",
            "ticks": 48840,
            "time": 287.293974,
            "velocity": 0.8267716535433071
          },
          {
            "duration": 0.08235290000004625,
            "durationTicks": 14,
            "midi": 42,
            "name": "F#2",
            "ticks": 48900,
            "time": 287.646915,
            "velocity": 0.8267716535433071
          },
          {
            "duration": 0.0823528999999894,
            "durationTicks": 14,
            "midi": 44,
            "name": "G#2",
            "ticks": 48930,
            "time": 287.82338550000003,
            "velocity": 0.8267716535433071
          },
          {
            "duration": 0.0823528999999894,
            "durationTicks": 14,
            "midi": 53,
            "name": "F3",
            "ticks": 48960,
            "time": 287.999856,
            "velocity": 0.8267716535433071
          },
          {
            "duration": 0.0823528999999894,
            "durationTicks": 14,
            "midi": 42,
            "name": "F#2",
            "ticks": 48960,
            "time": 287.999856,
            "velocity": 0.8267716535433071
          },
          {
            "duration": 0.0823528999999894,
            "durationTicks": 14,
            "midi": 42,
            "name": "F#2",
            "ticks": 49020,
            "time": 288.352797,
            "velocity": 0.8267716535433071
          },
          {
            "duration": 0.0823528999999894,
            "durationTicks": 14,
            "midi": 44,
            "name": "G#2",
            "ticks": 49050,
            "time": 288.5292675,
            "velocity": 0.8267716535433071
          },
          {
            "duration": 0.0823528999999894,
            "durationTicks": 14,
            "midi": 53,
            "name": "F3",
            "ticks": 49080,
            "time": 288.705738,
            "velocity": 0.8267716535433071
          },
          {
            "duration": 0.0823528999999894,
            "durationTicks": 14,
            "midi": 42,
            "name": "F#2",
            "ticks": 49080,
            "time": 288.705738,
            "velocity": 0.8267716535433071
          },
          {
            "duration": 0.08235290000004625,
            "durationTicks": 14,
            "midi": 42,
            "name": "F#2",
            "ticks": 49140,
            "time": 289.058679,
            "velocity": 0.8267716535433071
          },
          {
            "duration": 0.08235290000004625,
            "durationTicks": 14,
            "midi": 44,
            "name": "G#2",
            "ticks": 49170,
            "time": 289.2351495,
            "velocity": 0.8267716535433071
          },
          {
            "duration": 0.0823528999999894,
            "durationTicks": 14,
            "midi": 53,
            "name": "F3",
            "ticks": 49200,
            "time": 289.41162,
            "velocity": 0.8267716535433071
          },
          {
            "duration": 0.0823528999999894,
            "durationTicks": 14,
            "midi": 42,
            "name": "F#2",
            "ticks": 49200,
            "time": 289.41162,
            "velocity": 0.8267716535433071
          },
          {
            "duration": 0.0823528999999894,
            "durationTicks": 14,
            "midi": 42,
            "name": "F#2",
            "ticks": 49260,
            "time": 289.764561,
            "velocity": 0.8267716535433071
          },
          {
            "duration": 0.0823528999999894,
            "durationTicks": 14,
            "midi": 44,
            "name": "G#2",
            "ticks": 49290,
            "time": 289.9410315,
            "velocity": 0.8267716535433071
          },
          {
            "duration": 0.0823528999999894,
            "durationTicks": 14,
            "midi": 55,
            "name": "G3",
            "ticks": 49320,
            "time": 290.117502,
            "velocity": 0.8267716535433071
          },
          {
            "duration": 0.0823528999999894,
            "durationTicks": 14,
            "midi": 53,
            "name": "F3",
            "ticks": 49320,
            "time": 290.117502,
            "velocity": 0.8267716535433071
          },
          {
            "duration": 0.0823528999999894,
            "durationTicks": 14,
            "midi": 42,
            "name": "F#2",
            "ticks": 49320,
            "time": 290.117502,
            "velocity": 0.8267716535433071
          },
          {
            "duration": 0.08235290000004625,
            "durationTicks": 14,
            "midi": 42,
            "name": "F#2",
            "ticks": 49380,
            "time": 290.470443,
            "velocity": 0.8267716535433071
          },
          {
            "duration": 0.08235290000004625,
            "durationTicks": 14,
            "midi": 44,
            "name": "G#2",
            "ticks": 49410,
            "time": 290.6469135,
            "velocity": 0.8267716535433071
          },
          {
            "duration": 0.08235290000004625,
            "durationTicks": 14,
            "midi": 53,
            "name": "F3",
            "ticks": 49440,
            "time": 290.823384,
            "velocity": 0.8267716535433071
          },
          {
            "duration": 0.08235290000004625,
            "durationTicks": 14,
            "midi": 42,
            "name": "F#2",
            "ticks": 49440,
            "time": 290.823384,
            "velocity": 0.8267716535433071
          },
          {
            "duration": 0.0823528999999894,
            "durationTicks": 14,
            "midi": 42,
            "name": "F#2",
            "ticks": 49500,
            "time": 291.176325,
            "velocity": 0.8267716535433071
          },
          {
            "duration": 0.0823528999999894,
            "durationTicks": 14,
            "midi": 44,
            "name": "G#2",
            "ticks": 49530,
            "time": 291.3527955,
            "velocity": 0.8267716535433071
          },
          {
            "duration": 0.0823528999999894,
            "durationTicks": 14,
            "midi": 53,
            "name": "F3",
            "ticks": 49560,
            "time": 291.529266,
            "velocity": 0.8267716535433071
          },
          {
            "duration": 0.0823528999999894,
            "durationTicks": 14,
            "midi": 42,
            "name": "F#2",
            "ticks": 49560,
            "time": 291.529266,
            "velocity": 0.8267716535433071
          },
          {
            "duration": 0.0823528999999894,
            "durationTicks": 14,
            "midi": 42,
            "name": "F#2",
            "ticks": 49620,
            "time": 291.882207,
            "velocity": 0.8267716535433071
          },
          {
            "duration": 0.08235290000004625,
            "durationTicks": 14,
            "midi": 44,
            "name": "G#2",
            "ticks": 49650,
            "time": 292.0586775,
            "velocity": 0.8267716535433071
          },
          {
            "duration": 0.08235290000004625,
            "durationTicks": 14,
            "midi": 53,
            "name": "F3",
            "ticks": 49680,
            "time": 292.235148,
            "velocity": 0.8267716535433071
          },
          {
            "duration": 0.08235290000004625,
            "durationTicks": 14,
            "midi": 42,
            "name": "F#2",
            "ticks": 49680,
            "time": 292.235148,
            "velocity": 0.8267716535433071
          },
          {
            "duration": 0.0823528999999894,
            "durationTicks": 14,
            "midi": 42,
            "name": "F#2",
            "ticks": 49740,
            "time": 292.588089,
            "velocity": 0.8267716535433071
          },
          {
            "duration": 0.0823528999999894,
            "durationTicks": 14,
            "midi": 44,
            "name": "G#2",
            "ticks": 49770,
            "time": 292.7645595,
            "velocity": 0.8267716535433071
          },
          {
            "duration": 0.0823528999999894,
            "durationTicks": 14,
            "midi": 55,
            "name": "G3",
            "ticks": 49800,
            "time": 292.94103,
            "velocity": 0.8267716535433071
          },
          {
            "duration": 0.0823528999999894,
            "durationTicks": 14,
            "midi": 53,
            "name": "F3",
            "ticks": 49800,
            "time": 292.94103,
            "velocity": 0.8267716535433071
          },
          {
            "duration": 0.0823528999999894,
            "durationTicks": 14,
            "midi": 42,
            "name": "F#2",
            "ticks": 49800,
            "time": 292.94103,
            "velocity": 0.8267716535433071
          },
          {
            "duration": 0.0823528999999894,
            "durationTicks": 14,
            "midi": 42,
            "name": "F#2",
            "ticks": 49860,
            "time": 293.293971,
            "velocity": 0.8267716535433071
          },
          {
            "duration": 0.0823528999999894,
            "durationTicks": 14,
            "midi": 44,
            "name": "G#2",
            "ticks": 49890,
            "time": 293.4704415,
            "velocity": 0.8267716535433071
          },
          {
            "duration": 0.08235290000004625,
            "durationTicks": 14,
            "midi": 53,
            "name": "F3",
            "ticks": 49920,
            "time": 293.646912,
            "velocity": 0.8267716535433071
          },
          {
            "duration": 0.0823528999999894,
            "durationTicks": 14,
            "midi": 42,
            "name": "F#2",
            "ticks": 49980,
            "time": 293.99985300000003,
            "velocity": 0.8267716535433071
          },
          {
            "duration": 0.0823528999999894,
            "durationTicks": 14,
            "midi": 44,
            "name": "G#2",
            "ticks": 50010,
            "time": 294.1763235,
            "velocity": 0.8267716535433071
          },
          {
            "duration": 0.0823528999999894,
            "durationTicks": 14,
            "midi": 53,
            "name": "F3",
            "ticks": 50040,
            "time": 294.352794,
            "velocity": 0.8267716535433071
          },
          {
            "duration": 0.0823528999999894,
            "durationTicks": 14,
            "midi": 42,
            "name": "F#2",
            "ticks": 50040,
            "time": 294.352794,
            "velocity": 0.8267716535433071
          },
          {
            "duration": 0.0823528999999894,
            "durationTicks": 14,
            "midi": 42,
            "name": "F#2",
            "ticks": 50100,
            "time": 294.705735,
            "velocity": 0.8267716535433071
          },
          {
            "duration": 0.0823528999999894,
            "durationTicks": 14,
            "midi": 44,
            "name": "G#2",
            "ticks": 50130,
            "time": 294.8822055,
            "velocity": 0.8267716535433071
          },
          {
            "duration": 0.08235290000004625,
            "durationTicks": 14,
            "midi": 53,
            "name": "F3",
            "ticks": 50160,
            "time": 295.058676,
            "velocity": 0.8267716535433071
          },
          {
            "duration": 0.08235290000004625,
            "durationTicks": 14,
            "midi": 42,
            "name": "F#2",
            "ticks": 50160,
            "time": 295.058676,
            "velocity": 0.8267716535433071
          },
          {
            "duration": 0.08235290000004625,
            "durationTicks": 14,
            "midi": 44,
            "name": "G#2",
            "ticks": 50220,
            "time": 295.411617,
            "velocity": 0.8267716535433071
          },
          {
            "duration": 0.0823528999999894,
            "durationTicks": 14,
            "midi": 49,
            "name": "C#3",
            "ticks": 50280,
            "time": 295.764558,
            "velocity": 0.8267716535433071
          },
          {
            "duration": 0.0823528999999894,
            "durationTicks": 14,
            "midi": 44,
            "name": "G#2",
            "ticks": 50280,
            "time": 295.764558,
            "velocity": 0.8267716535433071
          },
          {
            "duration": 0.0823528999999894,
            "durationTicks": 14,
            "midi": 44,
            "name": "G#2",
            "ticks": 50340,
            "time": 296.117499,
            "velocity": 0.8267716535433071
          },
          {
            "duration": 0.0823528999999894,
            "durationTicks": 14,
            "midi": 57,
            "name": "A3",
            "ticks": 50400,
            "time": 296.47044,
            "velocity": 0.8267716535433071
          },
          {
            "duration": 0.0823528999999894,
            "durationTicks": 14,
            "midi": 42,
            "name": "F#2",
            "ticks": 50400,
            "time": 296.47044,
            "velocity": 0.8267716535433071
          },
          {
            "duration": 0.08235290000004625,
            "durationTicks": 14,
            "midi": 42,
            "name": "F#2",
            "ticks": 50460,
            "time": 296.823381,
            "velocity": 0.8267716535433071
          },
          {
            "duration": 0.08235290000004625,
            "durationTicks": 14,
            "midi": 44,
            "name": "G#2",
            "ticks": 50490,
            "time": 296.9998515,
            "velocity": 0.8267716535433071
          },
          {
            "duration": 0.0823528999999894,
            "durationTicks": 14,
            "midi": 53,
            "name": "F3",
            "ticks": 50520,
            "time": 297.176322,
            "velocity": 0.8267716535433071
          },
          {
            "duration": 0.0823528999999894,
            "durationTicks": 14,
            "midi": 42,
            "name": "F#2",
            "ticks": 50520,
            "time": 297.176322,
            "velocity": 0.8267716535433071
          },
          {
            "duration": 0.0823528999999894,
            "durationTicks": 14,
            "midi": 42,
            "name": "F#2",
            "ticks": 50580,
            "time": 297.529263,
            "velocity": 0.8267716535433071
          },
          {
            "duration": 0.0823528999999894,
            "durationTicks": 14,
            "midi": 44,
            "name": "G#2",
            "ticks": 50610,
            "time": 297.7057335,
            "velocity": 0.8267716535433071
          },
          {
            "duration": 0.0823528999999894,
            "durationTicks": 14,
            "midi": 53,
            "name": "F3",
            "ticks": 50640,
            "time": 297.882204,
            "velocity": 0.8267716535433071
          },
          {
            "duration": 0.0823528999999894,
            "durationTicks": 14,
            "midi": 42,
            "name": "F#2",
            "ticks": 50640,
            "time": 297.882204,
            "velocity": 0.8267716535433071
          },
          {
            "duration": 0.08235290000004625,
            "durationTicks": 14,
            "midi": 42,
            "name": "F#2",
            "ticks": 50700,
            "time": 298.235145,
            "velocity": 0.8267716535433071
          },
          {
            "duration": 0.08235290000004625,
            "durationTicks": 14,
            "midi": 44,
            "name": "G#2",
            "ticks": 50730,
            "time": 298.4116155,
            "velocity": 0.8267716535433071
          },
          {
            "duration": 0.08235290000004625,
            "durationTicks": 14,
            "midi": 55,
            "name": "G3",
            "ticks": 50760,
            "time": 298.588086,
            "velocity": 0.8267716535433071
          },
          {
            "duration": 0.08235290000004625,
            "durationTicks": 14,
            "midi": 53,
            "name": "F3",
            "ticks": 50760,
            "time": 298.588086,
            "velocity": 0.8267716535433071
          },
          {
            "duration": 0.08235290000004625,
            "durationTicks": 14,
            "midi": 42,
            "name": "F#2",
            "ticks": 50760,
            "time": 298.588086,
            "velocity": 0.8267716535433071
          },
          {
            "duration": 0.0823528999999894,
            "durationTicks": 14,
            "midi": 42,
            "name": "F#2",
            "ticks": 50820,
            "time": 298.941027,
            "velocity": 0.8267716535433071
          },
          {
            "duration": 0.0823528999999894,
            "durationTicks": 14,
            "midi": 44,
            "name": "G#2",
            "ticks": 50850,
            "time": 299.1174975,
            "velocity": 0.8267716535433071
          },
          {
            "duration": 0.0823528999999894,
            "durationTicks": 14,
            "midi": 53,
            "name": "F3",
            "ticks": 50880,
            "time": 299.293968,
            "velocity": 0.8267716535433071
          },
          {
            "duration": 0.0823528999999894,
            "durationTicks": 14,
            "midi": 42,
            "name": "F#2",
            "ticks": 50880,
            "time": 299.293968,
            "velocity": 0.8267716535433071
          },
          {
            "duration": 0.0823528999999894,
            "durationTicks": 14,
            "midi": 42,
            "name": "F#2",
            "ticks": 50940,
            "time": 299.646909,
            "velocity": 0.8267716535433071
          },
          {
            "duration": 0.08235290000004625,
            "durationTicks": 14,
            "midi": 44,
            "name": "G#2",
            "ticks": 50970,
            "time": 299.8233795,
            "velocity": 0.8267716535433071
          },
          {
            "duration": 0.08235290000004625,
            "durationTicks": 14,
            "midi": 42,
            "name": "F#2",
            "ticks": 51000,
            "time": 299.99985,
            "velocity": 0.8267716535433071
          },
          {
            "duration": 0.08235290000004625,
            "durationTicks": 14,
            "midi": 53,
            "name": "F3",
            "ticks": 51000,
            "time": 299.99985,
            "velocity": 0.8267716535433071
          },
          {
            "duration": 0.0823528999999894,
            "durationTicks": 14,
            "midi": 42,
            "name": "F#2",
            "ticks": 51060,
            "time": 300.352791,
            "velocity": 0.8267716535433071
          },
          {
            "duration": 0.0823528999999894,
            "durationTicks": 14,
            "midi": 44,
            "name": "G#2",
            "ticks": 51090,
            "time": 300.5292615,
            "velocity": 0.8267716535433071
          },
          {
            "duration": 0.0823528999999894,
            "durationTicks": 14,
            "midi": 42,
            "name": "F#2",
            "ticks": 51120,
            "time": 300.705732,
            "velocity": 0.8267716535433071
          },
          {
            "duration": 0.0823528999999894,
            "durationTicks": 14,
            "midi": 53,
            "name": "F3",
            "ticks": 51120,
            "time": 300.705732,
            "velocity": 0.8267716535433071
          },
          {
            "duration": 0.0823528999999894,
            "durationTicks": 14,
            "midi": 42,
            "name": "F#2",
            "ticks": 51180,
            "time": 301.058673,
            "velocity": 0.8267716535433071
          },
          {
            "duration": 0.0823528999999894,
            "durationTicks": 14,
            "midi": 44,
            "name": "G#2",
            "ticks": 51210,
            "time": 301.2351435,
            "velocity": 0.8267716535433071
          },
          {
            "duration": 0.08235290000004625,
            "durationTicks": 14,
            "midi": 53,
            "name": "F3",
            "ticks": 51240,
            "time": 301.411614,
            "velocity": 0.8267716535433071
          },
          {
            "duration": 0.08235290000004625,
            "durationTicks": 14,
            "midi": 55,
            "name": "G3",
            "ticks": 51240,
            "time": 301.411614,
            "velocity": 0.8267716535433071
          },
          {
            "duration": 0.08235290000004625,
            "durationTicks": 14,
            "midi": 42,
            "name": "F#2",
            "ticks": 51240,
            "time": 301.411614,
            "velocity": 0.8267716535433071
          },
          {
            "duration": 0.0823528999999894,
            "durationTicks": 14,
            "midi": 42,
            "name": "F#2",
            "ticks": 51300,
            "time": 301.76455500000003,
            "velocity": 0.8267716535433071
          },
          {
            "duration": 0.0823528999999894,
            "durationTicks": 14,
            "midi": 44,
            "name": "G#2",
            "ticks": 51330,
            "time": 301.9410255,
            "velocity": 0.8267716535433071
          },
          {
            "duration": 0.0823528999999894,
            "durationTicks": 14,
            "midi": 53,
            "name": "F3",
            "ticks": 51360,
            "time": 302.117496,
            "velocity": 0.8267716535433071
          },
          {
            "duration": 0.0823528999999894,
            "durationTicks": 14,
            "midi": 42,
            "name": "F#2",
            "ticks": 51360,
            "time": 302.117496,
            "velocity": 0.8267716535433071
          },
          {
            "duration": 0.0823528999999894,
            "durationTicks": 14,
            "midi": 42,
            "name": "F#2",
            "ticks": 51420,
            "time": 302.470437,
            "velocity": 0.8267716535433071
          },
          {
            "duration": 0.0823528999999894,
            "durationTicks": 14,
            "midi": 44,
            "name": "G#2",
            "ticks": 51450,
            "time": 302.6469075,
            "velocity": 0.8267716535433071
          },
          {
            "duration": 0.08235290000004625,
            "durationTicks": 14,
            "midi": 53,
            "name": "F3",
            "ticks": 51480,
            "time": 302.823378,
            "velocity": 0.8267716535433071
          },
          {
            "duration": 0.08235290000004625,
            "durationTicks": 14,
            "midi": 42,
            "name": "F#2",
            "ticks": 51480,
            "time": 302.823378,
            "velocity": 0.8267716535433071
          },
          {
            "duration": 0.08235290000004625,
            "durationTicks": 14,
            "midi": 42,
            "name": "F#2",
            "ticks": 51540,
            "time": 303.176319,
            "velocity": 0.8267716535433071
          },
          {
            "duration": 0.0823528999999894,
            "durationTicks": 14,
            "midi": 44,
            "name": "G#2",
            "ticks": 51570,
            "time": 303.35278950000003,
            "velocity": 0.8267716535433071
          },
          {
            "duration": 0.0823528999999894,
            "durationTicks": 14,
            "midi": 53,
            "name": "F3",
            "ticks": 51600,
            "time": 303.52926,
            "velocity": 0.8267716535433071
          },
          {
            "duration": 0.0823528999999894,
            "durationTicks": 14,
            "midi": 42,
            "name": "F#2",
            "ticks": 51600,
            "time": 303.52926,
            "velocity": 0.8267716535433071
          },
          {
            "duration": 0.0823528999999894,
            "durationTicks": 14,
            "midi": 42,
            "name": "F#2",
            "ticks": 51660,
            "time": 303.882201,
            "velocity": 0.8267716535433071
          },
          {
            "duration": 0.0823528999999894,
            "durationTicks": 14,
            "midi": 44,
            "name": "G#2",
            "ticks": 51690,
            "time": 304.0586715,
            "velocity": 0.8267716535433071
          },
          {
            "duration": 0.0823528999999894,
            "durationTicks": 14,
            "midi": 55,
            "name": "G3",
            "ticks": 51720,
            "time": 304.235142,
            "velocity": 0.8267716535433071
          },
          {
            "duration": 0.0823528999999894,
            "durationTicks": 14,
            "midi": 53,
            "name": "F3",
            "ticks": 51720,
            "time": 304.235142,
            "velocity": 0.8267716535433071
          },
          {
            "duration": 0.0823528999999894,
            "durationTicks": 14,
            "midi": 42,
            "name": "F#2",
            "ticks": 51720,
            "time": 304.235142,
            "velocity": 0.8267716535433071
          },
          {
            "duration": 0.08235290000004625,
            "durationTicks": 14,
            "midi": 42,
            "name": "F#2",
            "ticks": 51780,
            "time": 304.588083,
            "velocity": 0.8267716535433071
          },
          {
            "duration": 0.08235290000004625,
            "durationTicks": 14,
            "midi": 44,
            "name": "G#2",
            "ticks": 51810,
            "time": 304.7645535,
            "velocity": 0.8267716535433071
          },
          {
            "duration": 0.0823528999999894,
            "durationTicks": 14,
            "midi": 53,
            "name": "F3",
            "ticks": 51840,
            "time": 304.941024,
            "velocity": 0.8267716535433071
          },
          {
            "duration": 0.0823528999999894,
            "durationTicks": 14,
            "midi": 42,
            "name": "F#2",
            "ticks": 51840,
            "time": 304.941024,
            "velocity": 0.8267716535433071
          },
          {
            "duration": 0.0823528999999894,
            "durationTicks": 14,
            "midi": 42,
            "name": "F#2",
            "ticks": 51900,
            "time": 305.293965,
            "velocity": 0.8267716535433071
          },
          {
            "duration": 0.0823528999999894,
            "durationTicks": 14,
            "midi": 44,
            "name": "G#2",
            "ticks": 51930,
            "time": 305.4704355,
            "velocity": 0.8267716535433071
          },
          {
            "duration": 0.0823528999999894,
            "durationTicks": 14,
            "midi": 53,
            "name": "F3",
            "ticks": 51960,
            "time": 305.646906,
            "velocity": 0.8267716535433071
          },
          {
            "duration": 0.0823528999999894,
            "durationTicks": 14,
            "midi": 42,
            "name": "F#2",
            "ticks": 51960,
            "time": 305.646906,
            "velocity": 0.8267716535433071
          },
          {
            "duration": 0.08235290000004625,
            "durationTicks": 14,
            "midi": 42,
            "name": "F#2",
            "ticks": 52020,
            "time": 305.999847,
            "velocity": 0.8267716535433071
          },
          {
            "duration": 0.08235290000004625,
            "durationTicks": 14,
            "midi": 44,
            "name": "G#2",
            "ticks": 52050,
            "time": 306.1763175,
            "velocity": 0.8267716535433071
          },
          {
            "duration": 0.0823528999999894,
            "durationTicks": 14,
            "midi": 53,
            "name": "F3",
            "ticks": 52080,
            "time": 306.35278800000003,
            "velocity": 0.8267716535433071
          },
          {
            "duration": 0.0823528999999894,
            "durationTicks": 14,
            "midi": 42,
            "name": "F#2",
            "ticks": 52080,
            "time": 306.35278800000003,
            "velocity": 0.8267716535433071
          },
          {
            "duration": 0.0823528999999894,
            "durationTicks": 14,
            "midi": 42,
            "name": "F#2",
            "ticks": 52140,
            "time": 306.705729,
            "velocity": 0.8267716535433071
          },
          {
            "duration": 0.0823528999999894,
            "durationTicks": 14,
            "midi": 44,
            "name": "G#2",
            "ticks": 52170,
            "time": 306.8821995,
            "velocity": 0.8267716535433071
          },
          {
            "duration": 0.0823528999999894,
            "durationTicks": 14,
            "midi": 55,
            "name": "G3",
            "ticks": 52200,
            "time": 307.05867,
            "velocity": 0.8267716535433071
          },
          {
            "duration": 0.0823528999999894,
            "durationTicks": 14,
            "midi": 53,
            "name": "F3",
            "ticks": 52200,
            "time": 307.05867,
            "velocity": 0.8267716535433071
          },
          {
            "duration": 0.0823528999999894,
            "durationTicks": 14,
            "midi": 42,
            "name": "F#2",
            "ticks": 52200,
            "time": 307.05867,
            "velocity": 0.8267716535433071
          },
          {
            "duration": 0.0823528999999894,
            "durationTicks": 14,
            "midi": 42,
            "name": "F#2",
            "ticks": 52260,
            "time": 307.411611,
            "velocity": 0.8267716535433071
          },
          {
            "duration": 0.08235290000004625,
            "durationTicks": 14,
            "midi": 44,
            "name": "G#2",
            "ticks": 52290,
            "time": 307.5880815,
            "velocity": 0.8267716535433071
          },
          {
            "duration": 0.08235290000004625,
            "durationTicks": 14,
            "midi": 53,
            "name": "F3",
            "ticks": 52320,
            "time": 307.764552,
            "velocity": 0.8267716535433071
          },
          {
            "duration": 0.08235290000004625,
            "durationTicks": 14,
            "midi": 42,
            "name": "F#2",
            "ticks": 52320,
            "time": 307.764552,
            "velocity": 0.8267716535433071
          },
          {
            "duration": 0.0823528999999894,
            "durationTicks": 14,
            "midi": 42,
            "name": "F#2",
            "ticks": 52380,
            "time": 308.117493,
            "velocity": 0.8267716535433071
          },
          {
            "duration": 0.0823528999999894,
            "durationTicks": 14,
            "midi": 44,
            "name": "G#2",
            "ticks": 52410,
            "time": 308.2939635,
            "velocity": 0.8267716535433071
          },
          {
            "duration": 0.0823528999999894,
            "durationTicks": 14,
            "midi": 53,
            "name": "F3",
            "ticks": 52440,
            "time": 308.470434,
            "velocity": 0.8267716535433071
          },
          {
            "duration": 0.0823528999999894,
            "durationTicks": 14,
            "midi": 42,
            "name": "F#2",
            "ticks": 52440,
            "time": 308.470434,
            "velocity": 0.8267716535433071
          },
          {
            "duration": 0.0823528999999894,
            "durationTicks": 14,
            "midi": 42,
            "name": "F#2",
            "ticks": 52500,
            "time": 308.823375,
            "velocity": 0.8267716535433071
          },
          {
            "duration": 0.0823528999999894,
            "durationTicks": 14,
            "midi": 44,
            "name": "G#2",
            "ticks": 52530,
            "time": 308.9998455,
            "velocity": 0.8267716535433071
          },
          {
            "duration": 0.08235290000004625,
            "durationTicks": 14,
            "midi": 53,
            "name": "F3",
            "ticks": 52560,
            "time": 309.176316,
            "velocity": 0.8267716535433071
          },
          {
            "duration": 0.08235290000004625,
            "durationTicks": 14,
            "midi": 42,
            "name": "F#2",
            "ticks": 52560,
            "time": 309.176316,
            "velocity": 0.8267716535433071
          },
          {
            "duration": 0.0823528999999894,
            "durationTicks": 14,
            "midi": 42,
            "name": "F#2",
            "ticks": 52620,
            "time": 309.52925700000003,
            "velocity": 0.8267716535433071
          },
          {
            "duration": 0.0823528999999894,
            "durationTicks": 14,
            "midi": 44,
            "name": "G#2",
            "ticks": 52650,
            "time": 309.7057275,
            "velocity": 0.8267716535433071
          },
          {
            "duration": 0.0823528999999894,
            "durationTicks": 14,
            "midi": 55,
            "name": "G3",
            "ticks": 52680,
            "time": 309.882198,
            "velocity": 0.8267716535433071
          },
          {
            "duration": 0.0823528999999894,
            "durationTicks": 14,
            "midi": 53,
            "name": "F3",
            "ticks": 52680,
            "time": 309.882198,
            "velocity": 0.8267716535433071
          },
          {
            "duration": 0.0823528999999894,
            "durationTicks": 14,
            "midi": 42,
            "name": "F#2",
            "ticks": 52680,
            "time": 309.882198,
            "velocity": 0.8267716535433071
          },
          {
            "duration": 0.0823528999999894,
            "durationTicks": 14,
            "midi": 42,
            "name": "F#2",
            "ticks": 52740,
            "time": 310.235139,
            "velocity": 0.8267716535433071
          },
          {
            "duration": 0.0823528999999894,
            "durationTicks": 14,
            "midi": 44,
            "name": "G#2",
            "ticks": 52770,
            "time": 310.4116095,
            "velocity": 0.8267716535433071
          },
          {
            "duration": 0.08235290000004625,
            "durationTicks": 14,
            "midi": 53,
            "name": "F3",
            "ticks": 52800,
            "time": 310.58808,
            "velocity": 0.8267716535433071
          },
          {
            "duration": 0.08235290000004625,
            "durationTicks": 14,
            "midi": 42,
            "name": "F#2",
            "ticks": 52800,
            "time": 310.58808,
            "velocity": 0.8267716535433071
          },
          {
            "duration": 0.08235290000004625,
            "durationTicks": 14,
            "midi": 42,
            "name": "F#2",
            "ticks": 52860,
            "time": 310.941021,
            "velocity": 0.8267716535433071
          },
          {
            "duration": 0.0823528999999894,
            "durationTicks": 14,
            "midi": 44,
            "name": "G#2",
            "ticks": 52890,
            "time": 311.1174915,
            "velocity": 0.8267716535433071
          },
          {
            "duration": 0.0823528999999894,
            "durationTicks": 14,
            "midi": 53,
            "name": "F3",
            "ticks": 52920,
            "time": 311.293962,
            "velocity": 0.8267716535433071
          },
          {
            "duration": 0.0823528999999894,
            "durationTicks": 14,
            "midi": 42,
            "name": "F#2",
            "ticks": 52920,
            "time": 311.293962,
            "velocity": 0.8267716535433071
          },
          {
            "duration": 0.0823528999999894,
            "durationTicks": 14,
            "midi": 42,
            "name": "F#2",
            "ticks": 52980,
            "time": 311.646903,
            "velocity": 0.8267716535433071
          },
          {
            "duration": 0.0823528999999894,
            "durationTicks": 14,
            "midi": 44,
            "name": "G#2",
            "ticks": 53010,
            "time": 311.8233735,
            "velocity": 0.8267716535433071
          },
          {
            "duration": 0.0823528999999894,
            "durationTicks": 14,
            "midi": 53,
            "name": "F3",
            "ticks": 53040,
            "time": 311.999844,
            "velocity": 0.8267716535433071
          },
          {
            "duration": 0.0823528999999894,
            "durationTicks": 14,
            "midi": 42,
            "name": "F#2",
            "ticks": 53040,
            "time": 311.999844,
            "velocity": 0.8267716535433071
          },
          {
            "duration": 0.08235290000004625,
            "durationTicks": 14,
            "midi": 42,
            "name": "F#2",
            "ticks": 53100,
            "time": 312.352785,
            "velocity": 0.8267716535433071
          },
          {
            "duration": 0.08235290000004625,
            "durationTicks": 14,
            "midi": 44,
            "name": "G#2",
            "ticks": 53130,
            "time": 312.5292555,
            "velocity": 0.8267716535433071
          },
          {
            "duration": 0.0823528999999894,
            "durationTicks": 14,
            "midi": 55,
            "name": "G3",
            "ticks": 53160,
            "time": 312.705726,
            "velocity": 0.8267716535433071
          },
          {
            "duration": 0.0823528999999894,
            "durationTicks": 14,
            "midi": 53,
            "name": "F3",
            "ticks": 53160,
            "time": 312.705726,
            "velocity": 0.8267716535433071
          },
          {
            "duration": 0.0823528999999894,
            "durationTicks": 14,
            "midi": 42,
            "name": "F#2",
            "ticks": 53160,
            "time": 312.705726,
            "velocity": 0.8267716535433071
          },
          {
            "duration": 0.0823528999999894,
            "durationTicks": 14,
            "midi": 42,
            "name": "F#2",
            "ticks": 53220,
            "time": 313.058667,
            "velocity": 0.8267716535433071
          },
          {
            "duration": 0.0823528999999894,
            "durationTicks": 14,
            "midi": 44,
            "name": "G#2",
            "ticks": 53250,
            "time": 313.2351375,
            "velocity": 0.8267716535433071
          },
          {
            "duration": 0.0823528999999894,
            "durationTicks": 14,
            "midi": 53,
            "name": "F3",
            "ticks": 53280,
            "time": 313.411608,
            "velocity": 0.8267716535433071
          },
          {
            "duration": 0.0823528999999894,
            "durationTicks": 14,
            "midi": 42,
            "name": "F#2",
            "ticks": 53280,
            "time": 313.411608,
            "velocity": 0.8267716535433071
          },
          {
            "duration": 0.08235290000004625,
            "durationTicks": 14,
            "midi": 42,
            "name": "F#2",
            "ticks": 53340,
            "time": 313.764549,
            "velocity": 0.8267716535433071
          },
          {
            "duration": 0.08235290000004625,
            "durationTicks": 14,
            "midi": 44,
            "name": "G#2",
            "ticks": 53370,
            "time": 313.9410195,
            "velocity": 0.8267716535433071
          },
          {
            "duration": 0.0823528999999894,
            "durationTicks": 14,
            "midi": 53,
            "name": "F3",
            "ticks": 53400,
            "time": 314.11749000000003,
            "velocity": 0.8267716535433071
          },
          {
            "duration": 0.0823528999999894,
            "durationTicks": 14,
            "midi": 42,
            "name": "F#2",
            "ticks": 53400,
            "time": 314.11749000000003,
            "velocity": 0.8267716535433071
          },
          {
            "duration": 0.0823528999999894,
            "durationTicks": 14,
            "midi": 42,
            "name": "F#2",
            "ticks": 53460,
            "time": 314.470431,
            "velocity": 0.8267716535433071
          },
          {
            "duration": 0.0823528999999894,
            "durationTicks": 14,
            "midi": 44,
            "name": "G#2",
            "ticks": 53490,
            "time": 314.6469015,
            "velocity": 0.8267716535433071
          },
          {
            "duration": 0.0823528999999894,
            "durationTicks": 14,
            "midi": 53,
            "name": "F3",
            "ticks": 53520,
            "time": 314.823372,
            "velocity": 0.8267716535433071
          },
          {
            "duration": 0.0823528999999894,
            "durationTicks": 14,
            "midi": 42,
            "name": "F#2",
            "ticks": 53520,
            "time": 314.823372,
            "velocity": 0.8267716535433071
          },
          {
            "duration": 0.0823528999999894,
            "durationTicks": 14,
            "midi": 42,
            "name": "F#2",
            "ticks": 53580,
            "time": 315.176313,
            "velocity": 0.8267716535433071
          },
          {
            "duration": 0.08235290000004625,
            "durationTicks": 14,
            "midi": 44,
            "name": "G#2",
            "ticks": 53610,
            "time": 315.3527835,
            "velocity": 0.8267716535433071
          },
          {
            "duration": 0.08235290000004625,
            "durationTicks": 14,
            "midi": 55,
            "name": "G3",
            "ticks": 53640,
            "time": 315.529254,
            "velocity": 0.8267716535433071
          },
          {
            "duration": 0.08235290000004625,
            "durationTicks": 14,
            "midi": 53,
            "name": "F3",
            "ticks": 53640,
            "time": 315.529254,
            "velocity": 0.8267716535433071
          },
          {
            "duration": 0.08235290000004625,
            "durationTicks": 14,
            "midi": 42,
            "name": "F#2",
            "ticks": 53640,
            "time": 315.529254,
            "velocity": 0.8267716535433071
          },
          {
            "duration": 0.0823528999999894,
            "durationTicks": 14,
            "midi": 42,
            "name": "F#2",
            "ticks": 53700,
            "time": 315.882195,
            "velocity": 0.8267716535433071
          },
          {
            "duration": 0.0823528999999894,
            "durationTicks": 14,
            "midi": 44,
            "name": "G#2",
            "ticks": 53730,
            "time": 316.0586655,
            "velocity": 0.8267716535433071
          },
          {
            "duration": 0.0823528999999894,
            "durationTicks": 14,
            "midi": 53,
            "name": "F3",
            "ticks": 53760,
            "time": 316.235136,
            "velocity": 0.8267716535433071
          },
          {
            "duration": 0.0823528999999894,
            "durationTicks": 14,
            "midi": 42,
            "name": "F#2",
            "ticks": 53820,
            "time": 316.588077,
            "velocity": 0.8267716535433071
          },
          {
            "duration": 0.0823528999999894,
            "durationTicks": 14,
            "midi": 44,
            "name": "G#2",
            "ticks": 53850,
            "time": 316.7645475,
            "velocity": 0.8267716535433071
          },
          {
            "duration": 0.08235290000004625,
            "durationTicks": 14,
            "midi": 53,
            "name": "F3",
            "ticks": 53880,
            "time": 316.941018,
            "velocity": 0.8267716535433071
          },
          {
            "duration": 0.08235290000004625,
            "durationTicks": 14,
            "midi": 42,
            "name": "F#2",
            "ticks": 53880,
            "time": 316.941018,
            "velocity": 0.8267716535433071
          },
          {
            "duration": 0.0823528999999894,
            "durationTicks": 14,
            "midi": 42,
            "name": "F#2",
            "ticks": 53940,
            "time": 317.29395900000003,
            "velocity": 0.8267716535433071
          },
          {
            "duration": 0.0823528999999894,
            "durationTicks": 14,
            "midi": 44,
            "name": "G#2",
            "ticks": 53970,
            "time": 317.4704295,
            "velocity": 0.8267716535433071
          },
          {
            "duration": 0.0823528999999894,
            "durationTicks": 14,
            "midi": 53,
            "name": "F3",
            "ticks": 54000,
            "time": 317.6469,
            "velocity": 0.8267716535433071
          },
          {
            "duration": 0.0823528999999894,
            "durationTicks": 14,
            "midi": 42,
            "name": "F#2",
            "ticks": 54000,
            "time": 317.6469,
            "velocity": 0.8267716535433071
          },
          {
            "duration": 0.0823528999999894,
            "durationTicks": 14,
            "midi": 44,
            "name": "G#2",
            "ticks": 54060,
            "time": 317.999841,
            "velocity": 0.8267716535433071
          },
          {
            "duration": 0.08235290000004625,
            "durationTicks": 14,
            "midi": 49,
            "name": "C#3",
            "ticks": 54120,
            "time": 318.352782,
            "velocity": 0.8267716535433071
          },
          {
            "duration": 0.08235290000004625,
            "durationTicks": 14,
            "midi": 44,
            "name": "G#2",
            "ticks": 54120,
            "time": 318.352782,
            "velocity": 0.8267716535433071
          },
          {
            "duration": 0.08235290000004625,
            "durationTicks": 14,
            "midi": 44,
            "name": "G#2",
            "ticks": 54180,
            "time": 318.705723,
            "velocity": 0.8267716535433071
          },
          {
            "duration": 0.0823528999999894,
            "durationTicks": 14,
            "midi": 57,
            "name": "A3",
            "ticks": 54240,
            "time": 319.058664,
            "velocity": 0.8267716535433071
          },
          {
            "duration": 0.0823528999999894,
            "durationTicks": 14,
            "midi": 42,
            "name": "F#2",
            "ticks": 54240,
            "time": 319.058664,
            "velocity": 0.8267716535433071
          },
          {
            "duration": 0.0823528999999894,
            "durationTicks": 14,
            "midi": 53,
            "name": "F3",
            "ticks": 54720,
            "time": 321.88219200000003,
            "velocity": 0.8267716535433071
          },
          {
            "duration": 0.0823528999999894,
            "durationTicks": 14,
            "midi": 42,
            "name": "F#2",
            "ticks": 54720,
            "time": 321.88219200000003,
            "velocity": 0.8267716535433071
          },
          {
            "duration": 0.0823528999999894,
            "durationTicks": 14,
            "midi": 42,
            "name": "F#2",
            "ticks": 54780,
            "time": 322.235133,
            "velocity": 0.8267716535433071
          },
          {
            "duration": 0.0823528999999894,
            "durationTicks": 14,
            "midi": 44,
            "name": "G#2",
            "ticks": 54810,
            "time": 322.4116035,
            "velocity": 0.8267716535433071
          },
          {
            "duration": 0.0823528999999894,
            "durationTicks": 14,
            "midi": 42,
            "name": "F#2",
            "ticks": 54840,
            "time": 322.588074,
            "velocity": 0.8267716535433071
          },
          {
            "duration": 0.0823528999999894,
            "durationTicks": 14,
            "midi": 53,
            "name": "F3",
            "ticks": 54840,
            "time": 322.588074,
            "velocity": 0.8267716535433071
          },
          {
            "duration": 0.0823528999999894,
            "durationTicks": 14,
            "midi": 42,
            "name": "F#2",
            "ticks": 54900,
            "time": 322.941015,
            "velocity": 0.8267716535433071
          },
          {
            "duration": 0.08235290000004625,
            "durationTicks": 14,
            "midi": 44,
            "name": "G#2",
            "ticks": 54930,
            "time": 323.1174855,
            "velocity": 0.8267716535433071
          },
          {
            "duration": 0.08235290000004625,
            "durationTicks": 14,
            "midi": 42,
            "name": "F#2",
            "ticks": 54960,
            "time": 323.293956,
            "velocity": 0.8267716535433071
          },
          {
            "duration": 0.08235290000004625,
            "durationTicks": 14,
            "midi": 53,
            "name": "F3",
            "ticks": 54960,
            "time": 323.293956,
            "velocity": 0.8267716535433071
          },
          {
            "duration": 0.0823528999999894,
            "durationTicks": 14,
            "midi": 42,
            "name": "F#2",
            "ticks": 55020,
            "time": 323.646897,
            "velocity": 0.8267716535433071
          },
          {
            "duration": 0.0823528999999894,
            "durationTicks": 14,
            "midi": 44,
            "name": "G#2",
            "ticks": 55050,
            "time": 323.8233675,
            "velocity": 0.8267716535433071
          },
          {
            "duration": 0.0823528999999894,
            "durationTicks": 14,
            "midi": 53,
            "name": "F3",
            "ticks": 55080,
            "time": 323.999838,
            "velocity": 0.8267716535433071
          },
          {
            "duration": 0.0823528999999894,
            "durationTicks": 14,
            "midi": 55,
            "name": "G3",
            "ticks": 55080,
            "time": 323.999838,
            "velocity": 0.8267716535433071
          },
          {
            "duration": 0.0823528999999894,
            "durationTicks": 14,
            "midi": 42,
            "name": "F#2",
            "ticks": 55080,
            "time": 323.999838,
            "velocity": 0.8267716535433071
          },
          {
            "duration": 0.0823528999999894,
            "durationTicks": 14,
            "midi": 42,
            "name": "F#2",
            "ticks": 55140,
            "time": 324.352779,
            "velocity": 0.8267716535433071
          },
          {
            "duration": 0.08235290000004625,
            "durationTicks": 14,
            "midi": 44,
            "name": "G#2",
            "ticks": 55170,
            "time": 324.5292495,
            "velocity": 0.8267716535433071
          },
          {
            "duration": 0.08235290000004625,
            "durationTicks": 14,
            "midi": 57,
            "name": "A3",
            "ticks": 55200,
            "time": 324.70572,
            "velocity": 0.8267716535433071
          },
          {
            "duration": 0.0823528999999894,
            "durationTicks": 14,
            "midi": 53,
            "name": "F3",
            "ticks": 55680,
            "time": 327.529248,
            "velocity": 0.8267716535433071
          },
          {
            "duration": 0.0823528999999894,
            "durationTicks": 14,
            "midi": 42,
            "name": "F#2",
            "ticks": 55680,
            "time": 327.529248,
            "velocity": 0.8267716535433071
          },
          {
            "duration": 0.08235290000004625,
            "durationTicks": 14,
            "midi": 42,
            "name": "F#2",
            "ticks": 55740,
            "time": 327.882189,
            "velocity": 0.8267716535433071
          },
          {
            "duration": 0.08235290000004625,
            "durationTicks": 14,
            "midi": 44,
            "name": "G#2",
            "ticks": 55770,
            "time": 328.0586595,
            "velocity": 0.8267716535433071
          },
          {
            "duration": 0.0823528999999894,
            "durationTicks": 14,
            "midi": 53,
            "name": "F3",
            "ticks": 55800,
            "time": 328.23513,
            "velocity": 0.8267716535433071
          },
          {
            "duration": 0.0823528999999894,
            "durationTicks": 14,
            "midi": 42,
            "name": "F#2",
            "ticks": 55800,
            "time": 328.23513,
            "velocity": 0.8267716535433071
          },
          {
            "duration": 0.0823528999999894,
            "durationTicks": 14,
            "midi": 42,
            "name": "F#2",
            "ticks": 55860,
            "time": 328.588071,
            "velocity": 0.8267716535433071
          },
          {
            "duration": 0.0823528999999894,
            "durationTicks": 14,
            "midi": 44,
            "name": "G#2",
            "ticks": 55890,
            "time": 328.7645415,
            "velocity": 0.8267716535433071
          },
          {
            "duration": 0.0823528999999894,
            "durationTicks": 14,
            "midi": 53,
            "name": "F3",
            "ticks": 55920,
            "time": 328.941012,
            "velocity": 0.8267716535433071
          },
          {
            "duration": 0.0823528999999894,
            "durationTicks": 14,
            "midi": 42,
            "name": "F#2",
            "ticks": 55920,
            "time": 328.941012,
            "velocity": 0.8267716535433071
          },
          {
            "duration": 0.08235290000004625,
            "durationTicks": 14,
            "midi": 42,
            "name": "F#2",
            "ticks": 55980,
            "time": 329.293953,
            "velocity": 0.8267716535433071
          },
          {
            "duration": 0.08235290000004625,
            "durationTicks": 14,
            "midi": 44,
            "name": "G#2",
            "ticks": 56010,
            "time": 329.4704235,
            "velocity": 0.8267716535433071
          },
          {
            "duration": 0.0823528999999894,
            "durationTicks": 14,
            "midi": 55,
            "name": "G3",
            "ticks": 56040,
            "time": 329.64689400000003,
            "velocity": 0.8267716535433071
          },
          {
            "duration": 0.0823528999999894,
            "durationTicks": 14,
            "midi": 53,
            "name": "F3",
            "ticks": 56040,
            "time": 329.64689400000003,
            "velocity": 0.8267716535433071
          },
          {
            "duration": 0.0823528999999894,
            "durationTicks": 14,
            "midi": 42,
            "name": "F#2",
            "ticks": 56040,
            "time": 329.64689400000003,
            "velocity": 0.8267716535433071
          },
          {
            "duration": 0.0823528999999894,
            "durationTicks": 14,
            "midi": 42,
            "name": "F#2",
            "ticks": 56100,
            "time": 329.999835,
            "velocity": 0.8267716535433071
          },
          {
            "duration": 0.0823528999999894,
            "durationTicks": 14,
            "midi": 52,
            "name": "E3",
            "ticks": 56130,
            "time": 330.1763055,
            "velocity": 0.8267716535433071
          },
          {
            "duration": 0.0823528999999894,
            "durationTicks": 14,
            "midi": 44,
            "name": "G#2",
            "ticks": 56130,
            "time": 330.1763055,
            "velocity": 0.8267716535433071
          },
          {
            "duration": 0.0823528999999894,
            "durationTicks": 14,
            "midi": 53,
            "name": "F3",
            "ticks": 56160,
            "time": 330.352776,
            "velocity": 0.8267716535433071
          },
          {
            "duration": 0.0823528999999894,
            "durationTicks": 14,
            "midi": 42,
            "name": "F#2",
            "ticks": 56160,
            "time": 330.352776,
            "velocity": 0.8267716535433071
          },
          {
            "duration": 0.0823528999999894,
            "durationTicks": 14,
            "midi": 42,
            "name": "F#2",
            "ticks": 56220,
            "time": 330.705717,
            "velocity": 0.8267716535433071
          },
          {
            "duration": 0.08235290000004625,
            "durationTicks": 14,
            "midi": 44,
            "name": "G#2",
            "ticks": 56250,
            "time": 330.8821875,
            "velocity": 0.8267716535433071
          },
          {
            "duration": 0.08235290000004625,
            "durationTicks": 14,
            "midi": 53,
            "name": "F3",
            "ticks": 56280,
            "time": 331.058658,
            "velocity": 0.8267716535433071
          },
          {
            "duration": 0.08235290000004625,
            "durationTicks": 14,
            "midi": 42,
            "name": "F#2",
            "ticks": 56280,
            "time": 331.058658,
            "velocity": 0.8267716535433071
          },
          {
            "duration": 0.0823528999999894,
            "durationTicks": 14,
            "midi": 42,
            "name": "F#2",
            "ticks": 56340,
            "time": 331.411599,
            "velocity": 0.8267716535433071
          },
          {
            "duration": 0.0823528999999894,
            "durationTicks": 14,
            "midi": 44,
            "name": "G#2",
            "ticks": 56370,
            "time": 331.5880695,
            "velocity": 0.8267716535433071
          },
          {
            "duration": 0.0823528999999894,
            "durationTicks": 14,
            "midi": 53,
            "name": "F3",
            "ticks": 56400,
            "time": 331.76454,
            "velocity": 0.8267716535433071
          },
          {
            "duration": 0.0823528999999894,
            "durationTicks": 14,
            "midi": 42,
            "name": "F#2",
            "ticks": 56400,
            "time": 331.76454,
            "velocity": 0.8267716535433071
          },
          {
            "duration": 0.0823528999999894,
            "durationTicks": 14,
            "midi": 42,
            "name": "F#2",
            "ticks": 56460,
            "time": 332.117481,
            "velocity": 0.8267716535433071
          },
          {
            "duration": 0.08235290000004625,
            "durationTicks": 14,
            "midi": 44,
            "name": "G#2",
            "ticks": 56490,
            "time": 332.2939515,
            "velocity": 0.8267716535433071
          },
          {
            "duration": 0.08235290000004625,
            "durationTicks": 14,
            "midi": 55,
            "name": "G3",
            "ticks": 56520,
            "time": 332.470422,
            "velocity": 0.8267716535433071
          },
          {
            "duration": 0.08235290000004625,
            "durationTicks": 14,
            "midi": 53,
            "name": "F3",
            "ticks": 56520,
            "time": 332.470422,
            "velocity": 0.8267716535433071
          },
          {
            "duration": 0.08235290000004625,
            "durationTicks": 14,
            "midi": 42,
            "name": "F#2",
            "ticks": 56520,
            "time": 332.470422,
            "velocity": 0.8267716535433071
          },
          {
            "duration": 0.0823528999999894,
            "durationTicks": 14,
            "midi": 42,
            "name": "F#2",
            "ticks": 56580,
            "time": 332.82336300000003,
            "velocity": 0.8267716535433071
          },
          {
            "duration": 0.0823528999999894,
            "durationTicks": 14,
            "midi": 44,
            "name": "G#2",
            "ticks": 56610,
            "time": 332.9998335,
            "velocity": 0.8267716535433071
          },
          {
            "duration": 0.0823528999999894,
            "durationTicks": 14,
            "midi": 53,
            "name": "F3",
            "ticks": 56640,
            "time": 333.176304,
            "velocity": 0.8267716535433071
          },
          {
            "duration": 0.0823528999999894,
            "durationTicks": 14,
            "midi": 42,
            "name": "F#2",
            "ticks": 56640,
            "time": 333.176304,
            "velocity": 0.8267716535433071
          },
          {
            "duration": 0.0823528999999894,
            "durationTicks": 14,
            "midi": 42,
            "name": "F#2",
            "ticks": 56700,
            "time": 333.529245,
            "velocity": 0.8267716535433071
          },
          {
            "duration": 0.0823528999999894,
            "durationTicks": 14,
            "midi": 44,
            "name": "G#2",
            "ticks": 56730,
            "time": 333.7057155,
            "velocity": 0.8267716535433071
          },
          {
            "duration": 0.08235290000004625,
            "durationTicks": 14,
            "midi": 53,
            "name": "F3",
            "ticks": 56760,
            "time": 333.882186,
            "velocity": 0.8267716535433071
          },
          {
            "duration": 0.08235290000004625,
            "durationTicks": 14,
            "midi": 42,
            "name": "F#2",
            "ticks": 56760,
            "time": 333.882186,
            "velocity": 0.8267716535433071
          },
          {
            "duration": 0.08235290000004625,
            "durationTicks": 14,
            "midi": 42,
            "name": "F#2",
            "ticks": 56820,
            "time": 334.235127,
            "velocity": 0.8267716535433071
          },
          {
            "duration": 0.0823528999999894,
            "durationTicks": 14,
            "midi": 44,
            "name": "G#2",
            "ticks": 56850,
            "time": 334.4115975,
            "velocity": 0.8267716535433071
          },
          {
            "duration": 0.0823528999999894,
            "durationTicks": 14,
            "midi": 53,
            "name": "F3",
            "ticks": 56880,
            "time": 334.588068,
            "velocity": 0.8267716535433071
          },
          {
            "duration": 0.0823528999999894,
            "durationTicks": 14,
            "midi": 42,
            "name": "F#2",
            "ticks": 56880,
            "time": 334.588068,
            "velocity": 0.8267716535433071
          },
          {
            "duration": 0.0823528999999894,
            "durationTicks": 14,
            "midi": 42,
            "name": "F#2",
            "ticks": 56940,
            "time": 334.941009,
            "velocity": 0.8267716535433071
          },
          {
            "duration": 0.0823528999999894,
            "durationTicks": 14,
            "midi": 44,
            "name": "G#2",
            "ticks": 56970,
            "time": 335.1174795,
            "velocity": 0.8267716535433071
          },
          {
            "duration": 0.0823528999999894,
            "durationTicks": 14,
            "midi": 57,
            "name": "A3",
            "ticks": 57000,
            "time": 335.29395,
            "velocity": 0.8267716535433071
          },
          {
            "duration": 0.0823528999999894,
            "durationTicks": 14,
            "midi": 42,
            "name": "F#2",
            "ticks": 57000,
            "time": 335.29395,
            "velocity": 0.8267716535433071
          },
          {
            "duration": 0.08235290000004625,
            "durationTicks": 14,
            "midi": 42,
            "name": "F#2",
            "ticks": 57060,
            "time": 335.646891,
            "velocity": 0.8267716535433071
          },
          {
            "duration": 0.0823528999999894,
            "durationTicks": 14,
            "midi": 44,
            "name": "G#2",
            "ticks": 57090,
            "time": 335.82336150000003,
            "velocity": 0.8267716535433071
          },
          {
            "duration": 0.0823528999999894,
            "durationTicks": 14,
            "midi": 49,
            "name": "C#3",
            "ticks": 57120,
            "time": 335.999832,
            "velocity": 0.8267716535433071
          },
          {
            "duration": 0.0823528999999894,
            "durationTicks": 14,
            "midi": 42,
            "name": "F#2",
            "ticks": 57120,
            "time": 335.999832,
            "velocity": 0.8267716535433071
          },
          {
            "duration": 0.0823528999999894,
            "durationTicks": 14,
            "midi": 42,
            "name": "F#2",
            "ticks": 57180,
            "time": 336.352773,
            "velocity": 0.8267716535433071
          },
          {
            "duration": 0.0823528999999894,
            "durationTicks": 14,
            "midi": 44,
            "name": "G#2",
            "ticks": 57210,
            "time": 336.5292435,
            "velocity": 0.8267716535433071
          },
          {
            "duration": 0.0823528999999894,
            "durationTicks": 14,
            "midi": 53,
            "name": "F3",
            "ticks": 57240,
            "time": 336.705714,
            "velocity": 0.8267716535433071
          },
          {
            "duration": 0.0823528999999894,
            "durationTicks": 14,
            "midi": 42,
            "name": "F#2",
            "ticks": 57240,
            "time": 336.705714,
            "velocity": 0.8267716535433071
          },
          {
            "duration": 0.08235290000004625,
            "durationTicks": 14,
            "midi": 42,
            "name": "F#2",
            "ticks": 57300,
            "time": 337.058655,
            "velocity": 0.8267716535433071
          },
          {
            "duration": 0.08235290000004625,
            "durationTicks": 14,
            "midi": 44,
            "name": "G#2",
            "ticks": 57330,
            "time": 337.2351255,
            "velocity": 0.8267716535433071
          },
          {
            "duration": 0.0823528999999894,
            "durationTicks": 14,
            "midi": 53,
            "name": "F3",
            "ticks": 57360,
            "time": 337.41159600000003,
            "velocity": 0.8267716535433071
          },
          {
            "duration": 0.0823528999999894,
            "durationTicks": 14,
            "midi": 42,
            "name": "F#2",
            "ticks": 57360,
            "time": 337.41159600000003,
            "velocity": 0.8267716535433071
          },
          {
            "duration": 0.0823528999999894,
            "durationTicks": 14,
            "midi": 42,
            "name": "F#2",
            "ticks": 57420,
            "time": 337.764537,
            "velocity": 0.8267716535433071
          },
          {
            "duration": 0.0823528999999894,
            "durationTicks": 14,
            "midi": 44,
            "name": "G#2",
            "ticks": 57450,
            "time": 337.9410075,
            "velocity": 0.8267716535433071
          },
          {
            "duration": 0.0823528999999894,
            "durationTicks": 14,
            "midi": 57,
            "name": "A3",
            "ticks": 57480,
            "time": 338.117478,
            "velocity": 0.8267716535433071
          },
          {
            "duration": 0.0823528999999894,
            "durationTicks": 14,
            "midi": 42,
            "name": "F#2",
            "ticks": 57480,
            "time": 338.117478,
            "velocity": 0.8267716535433071
          },
          {
            "duration": 0.0823528999999894,
            "durationTicks": 14,
            "midi": 42,
            "name": "F#2",
            "ticks": 57540,
            "time": 338.470419,
            "velocity": 0.8267716535433071
          },
          {
            "duration": 0.08235290000004625,
            "durationTicks": 14,
            "midi": 44,
            "name": "G#2",
            "ticks": 57570,
            "time": 338.6468895,
            "velocity": 0.8267716535433071
          },
          {
            "duration": 0.08235290000004625,
            "durationTicks": 14,
            "midi": 49,
            "name": "C#3",
            "ticks": 57600,
            "time": 338.82336,
            "velocity": 0.8267716535433071
          },
          {
            "duration": 0.08235290000004625,
            "durationTicks": 14,
            "midi": 42,
            "name": "F#2",
            "ticks": 57600,
            "time": 338.82336,
            "velocity": 0.8267716535433071
          },
          {
            "duration": 0.0823528999999894,
            "durationTicks": 14,
            "midi": 42,
            "name": "F#2",
            "ticks": 57660,
            "time": 339.176301,
            "velocity": 0.8267716535433071
          },
          {
            "duration": 0.0823528999999894,
            "durationTicks": 14,
            "midi": 52,
            "name": "E3",
            "ticks": 57720,
            "time": 339.529242,
            "velocity": 0.8267716535433071
          },
          {
            "duration": 0.0823528999999894,
            "durationTicks": 14,
            "midi": 42,
            "name": "F#2",
            "ticks": 57720,
            "time": 339.529242,
            "velocity": 0.8267716535433071
          },
          {
            "duration": 0.0823528999999894,
            "durationTicks": 14,
            "midi": 42,
            "name": "F#2",
            "ticks": 57780,
            "time": 339.882183,
            "velocity": 0.8267716535433071
          },
          {
            "duration": 0.08235290000004625,
            "durationTicks": 14,
            "midi": 57,
            "name": "A3",
            "ticks": 57810,
            "time": 340.0586535,
            "velocity": 0.8267716535433071
          },
          {
            "duration": 0.08235290000004625,
            "durationTicks": 14,
            "midi": 42,
            "name": "F#2",
            "ticks": 57840,
            "time": 340.235124,
            "velocity": 0.8267716535433071
          },
          {
            "duration": 0.0823528999999894,
            "durationTicks": 14,
            "midi": 52,
            "name": "E3",
            "ticks": 57900,
            "time": 340.58806500000003,
            "velocity": 0.8267716535433071
          },
          {
            "duration": 0.0823528999999894,
            "durationTicks": 14,
            "midi": 42,
            "name": "F#2",
            "ticks": 57900,
            "time": 340.58806500000003,
            "velocity": 0.8267716535433071
          },
          {
            "duration": 0.0823528999999894,
            "durationTicks": 14,
            "midi": 55,
            "name": "G3",
            "ticks": 57960,
            "time": 340.941006,
            "velocity": 0.8267716535433071
          },
          {
            "duration": 0.0823528999999894,
            "durationTicks": 14,
            "midi": 42,
            "name": "F#2",
            "ticks": 57960,
            "time": 340.941006,
            "velocity": 0.8267716535433071
          },
          {
            "duration": 0.0823528999999894,
            "durationTicks": 14,
            "midi": 57,
            "name": "A3",
            "ticks": 58020,
            "time": 341.293947,
            "velocity": 0.8267716535433071
          },
          {
            "duration": 0.0823528999999894,
            "durationTicks": 14,
            "midi": 42,
            "name": "F#2",
            "ticks": 58020,
            "time": 341.293947,
            "velocity": 0.8267716535433071
          },
          {
            "duration": 0.08235290000004625,
            "durationTicks": 14,
            "midi": 49,
            "name": "C#3",
            "ticks": 58080,
            "time": 341.646888,
            "velocity": 0.8267716535433071
          },
          {
            "duration": 0.08235290000004625,
            "durationTicks": 14,
            "midi": 42,
            "name": "F#2",
            "ticks": 58080,
            "time": 341.646888,
            "velocity": 0.8267716535433071
          },
          {
            "duration": 0.08235290000004625,
            "durationTicks": 14,
            "midi": 52,
            "name": "E3",
            "ticks": 58140,
            "time": 341.999829,
            "velocity": 0.8267716535433071
          },
          {
            "duration": 0.08235290000004625,
            "durationTicks": 14,
            "midi": 42,
            "name": "F#2",
            "ticks": 58140,
            "time": 341.999829,
            "velocity": 0.8267716535433071
          },
          {
            "duration": 0.0823528999999894,
            "durationTicks": 14,
            "midi": 55,
            "name": "G3",
            "ticks": 58200,
            "time": 342.35277,
            "velocity": 0.8267716535433071
          },
          {
            "duration": 0.0823528999999894,
            "durationTicks": 14,
            "midi": 42,
            "name": "F#2",
            "ticks": 58200,
            "time": 342.35277,
            "velocity": 0.8267716535433071
          },
          {
            "duration": 0.0823528999999894,
            "durationTicks": 14,
            "midi": 55,
            "name": "G3",
            "ticks": 58260,
            "time": 342.705711,
            "velocity": 0.8267716535433071
          },
          {
            "duration": 0.0823528999999894,
            "durationTicks": 14,
            "midi": 42,
            "name": "F#2",
            "ticks": 58260,
            "time": 342.705711,
            "velocity": 0.8267716535433071
          },
          {
            "duration": 0.0823528999999894,
            "durationTicks": 14,
            "midi": 57,
            "name": "A3",
            "ticks": 58290,
            "time": 342.8821815,
            "velocity": 0.8267716535433071
          },
          {
            "duration": 0.0823528999999894,
            "durationTicks": 14,
            "midi": 42,
            "name": "F#2",
            "ticks": 58320,
            "time": 343.058652,
            "velocity": 0.8267716535433071
          },
          {
            "duration": 0.08235290000004625,
            "durationTicks": 14,
            "midi": 55,
            "name": "G3",
            "ticks": 58380,
            "time": 343.411593,
            "velocity": 0.8267716535433071
          },
          {
            "duration": 0.08235290000004625,
            "durationTicks": 14,
            "midi": 42,
            "name": "F#2",
            "ticks": 58380,
            "time": 343.411593,
            "velocity": 0.8267716535433071
          },
          {
            "duration": 0.0823528999999894,
            "durationTicks": 14,
            "midi": 55,
            "name": "G3",
            "ticks": 58440,
            "time": 343.764534,
            "velocity": 0.8267716535433071
          },
          {
            "duration": 0.0823528999999894,
            "durationTicks": 14,
            "midi": 42,
            "name": "F#2",
            "ticks": 58440,
            "time": 343.764534,
            "velocity": 0.8267716535433071
          },
          {
            "duration": 0.0823528999999894,
            "durationTicks": 14,
            "midi": 55,
            "name": "G3",
            "ticks": 58500,
            "time": 344.117475,
            "velocity": 0.8267716535433071
          },
          {
            "duration": 0.0823528999999894,
            "durationTicks": 14,
            "midi": 42,
            "name": "F#2",
            "ticks": 58500,
            "time": 344.117475,
            "velocity": 0.8267716535433071
          },
          {
            "duration": 0.0823528999999894,
            "durationTicks": 14,
            "midi": 57,
            "name": "A3",
            "ticks": 58530,
            "time": 344.2939455,
            "velocity": 0.8267716535433071
          },
          {
            "duration": 0.0823528999999894,
            "durationTicks": 14,
            "midi": 42,
            "name": "F#2",
            "ticks": 58560,
            "time": 344.470416,
            "velocity": 0.8267716535433071
          },
          {
            "duration": 0.08235290000004625,
            "durationTicks": 14,
            "midi": 42,
            "name": "F#2",
            "ticks": 58620,
            "time": 344.823357,
            "velocity": 0.8267716535433071
          },
          {
            "duration": 0.0823528999999894,
            "durationTicks": 14,
            "midi": 42,
            "name": "F#2",
            "ticks": 58680,
            "time": 345.17629800000003,
            "velocity": 0.8267716535433071
          },
          {
            "duration": 0.0823528999999894,
            "durationTicks": 14,
            "midi": 42,
            "name": "F#2",
            "ticks": 58740,
            "time": 345.529239,
            "velocity": 0.8267716535433071
          },
          {
            "duration": 0.0823528999999894,
            "durationTicks": 14,
            "midi": 49,
            "name": "C#3",
            "ticks": 58770,
            "time": 345.7057095,
            "velocity": 0.8267716535433071
          }
        ],
        "endOfTrackTicks": 58784
      },
      {
        "channel": 9,
        "controlChanges": {},
        "pitchBends": [],
        "instrument": {
          "family": "drums",
          "number": 0,
          "name": "standard kit"
        },
        "name": "Snare",
        "notes": [
          {
            "duration": 0.08235290000000006,
            "durationTicks": 14,
            "midi": 40,
            "name": "E2",
            "ticks": 335,
            "time": 1.97058725,
            "velocity": 0.8267716535433071
          },
          {
            "duration": 0.08235290000000006,
            "durationTicks": 14,
            "midi": 40,
            "name": "E2",
            "ticks": 345,
            "time": 2.02941075,
            "velocity": 0.8267716535433071
          },
          {
            "duration": 0.08235290000000006,
            "durationTicks": 14,
            "midi": 40,
            "name": "E2",
            "ticks": 360,
            "time": 2.117646,
            "velocity": 0.8267716535433071
          },
          {
            "duration": 0.08235290000000006,
            "durationTicks": 14,
            "midi": 48,
            "name": "C3",
            "ticks": 390,
            "time": 2.2941165,
            "velocity": 0.8267716535433071
          },
          {
            "duration": 0.08235290000000006,
            "durationTicks": 14,
            "midi": 47,
            "name": "B2",
            "ticks": 420,
            "time": 2.470587,
            "velocity": 0.8267716535433071
          },
          {
            "duration": 0.08235290000000006,
            "durationTicks": 14,
            "midi": 40,
            "name": "E2",
            "ticks": 450,
            "time": 2.6470575,
            "velocity": 0.4330708661417323
          },
          {
            "duration": 0.08235290000000006,
            "durationTicks": 14,
            "midi": 40,
            "name": "E2",
            "ticks": 460,
            "time": 2.705881,
            "velocity": 0.4330708661417323
          },
          {
            "duration": 0.08235289999999917,
            "durationTicks": 14,
            "midi": 40,
            "name": "E2",
            "ticks": 840,
            "time": 4.941174,
            "velocity": 0.8267716535433071
          },
          {
            "duration": 0.08235289999999917,
            "durationTicks": 14,
            "midi": 40,
            "name": "E2",
            "ticks": 930,
            "time": 5.4705855,
            "velocity": 0.4330708661417323
          },
          {
            "duration": 0.08235290000000006,
            "durationTicks": 14,
            "midi": 40,
            "name": "E2",
            "ticks": 940,
            "time": 5.529409,
            "velocity": 0.4330708661417323
          },
          {
            "duration": 0.08235290000000095,
            "durationTicks": 14,
            "midi": 40,
            "name": "E2",
            "ticks": 1320,
            "time": 7.764702,
            "velocity": 0.8267716535433071
          },
          {
            "duration": 0.08235290000000006,
            "durationTicks": 14,
            "midi": 40,
            "name": "E2",
            "ticks": 1410,
            "time": 8.2941135,
            "velocity": 0.4330708661417323
          },
          {
            "duration": 0.08235289999999829,
            "durationTicks": 14,
            "midi": 40,
            "name": "E2",
            "ticks": 1420,
            "time": 8.352937,
            "velocity": 0.4330708661417323
          },
          {
            "duration": 0.08235290000000184,
            "durationTicks": 14,
            "midi": 40,
            "name": "E2",
            "ticks": 1800,
            "time": 10.58823,
            "velocity": 0.8267716535433071
          },
          {
            "duration": 0.08235290000000184,
            "durationTicks": 14,
            "midi": 40,
            "name": "E2",
            "ticks": 1890,
            "time": 11.1176415,
            "velocity": 0.4330708661417323
          },
          {
            "duration": 0.08235290000000006,
            "durationTicks": 14,
            "midi": 40,
            "name": "E2",
            "ticks": 1900,
            "time": 11.176465,
            "velocity": 0.4330708661417323
          },
          {
            "duration": 0.08235290000000006,
            "durationTicks": 14,
            "midi": 40,
            "name": "E2",
            "ticks": 2280,
            "time": 13.411758,
            "velocity": 0.8267716535433071
          },
          {
            "duration": 0.08235290000000006,
            "durationTicks": 14,
            "midi": 40,
            "name": "E2",
            "ticks": 2370,
            "time": 13.9411695,
            "velocity": 0.4330708661417323
          },
          {
            "duration": 0.08235290000000006,
            "durationTicks": 14,
            "midi": 40,
            "name": "E2",
            "ticks": 2380,
            "time": 13.999993,
            "velocity": 0.4330708661417323
          },
          {
            "duration": 0.08235290000000361,
            "durationTicks": 14,
            "midi": 40,
            "name": "E2",
            "ticks": 2760,
            "time": 16.235286,
            "velocity": 0.8267716535433071
          },
          {
            "duration": 0.08235290000000006,
            "durationTicks": 14,
            "midi": 40,
            "name": "E2",
            "ticks": 2850,
            "time": 16.7646975,
            "velocity": 0.4330708661417323
          },
          {
            "duration": 0.08235290000000006,
            "durationTicks": 14,
            "midi": 40,
            "name": "E2",
            "ticks": 2860,
            "time": 16.823521,
            "velocity": 0.4330708661417323
          },
          {
            "duration": 0.08235290000000006,
            "durationTicks": 14,
            "midi": 40,
            "name": "E2",
            "ticks": 3240,
            "time": 19.058814,
            "velocity": 0.8267716535433071
          },
          {
            "duration": 0.08235290000000006,
            "durationTicks": 14,
            "midi": 40,
            "name": "E2",
            "ticks": 3330,
            "time": 19.5882255,
            "velocity": 0.4330708661417323
          },
          {
            "duration": 0.08235290000000006,
            "durationTicks": 14,
            "midi": 40,
            "name": "E2",
            "ticks": 3340,
            "time": 19.647049,
            "velocity": 0.4330708661417323
          },
          {
            "duration": 0.08235290000000006,
            "durationTicks": 14,
            "midi": 40,
            "name": "E2",
            "ticks": 3720,
            "time": 21.882342,
            "velocity": 0.8267716535433071
          },
          {
            "duration": 0.08235290000000006,
            "durationTicks": 14,
            "midi": 40,
            "name": "E2",
            "ticks": 3810,
            "time": 22.4117535,
            "velocity": 0.4330708661417323
          },
          {
            "duration": 0.08235290000000006,
            "durationTicks": 14,
            "midi": 40,
            "name": "E2",
            "ticks": 3820,
            "time": 22.470577,
            "velocity": 0.4330708661417323
          },
          {
            "duration": 0.08235290000000006,
            "durationTicks": 14,
            "midi": 40,
            "name": "E2",
            "ticks": 3960,
            "time": 23.294106,
            "velocity": 0.8267716535433071
          },
          {
            "duration": 0.02352939999999748,
            "durationTicks": 4,
            "midi": 40,
            "name": "E2",
            "ticks": 4050,
            "time": 23.8235175,
            "velocity": 0.4330708661417323
          },
          {
            "duration": 0.023529400000001033,
            "durationTicks": 4,
            "midi": 40,
            "name": "E2",
            "ticks": 4060,
            "time": 23.882341,
            "velocity": 0.4330708661417323
          },
          {
            "duration": 0.08235290000000006,
            "durationTicks": 14,
            "midi": 40,
            "name": "E2",
            "ticks": 4200,
            "time": 24.70587,
            "velocity": 0.8267716535433071
          },
          {
            "duration": 0.023529400000001033,
            "durationTicks": 4,
            "midi": 40,
            "name": "E2",
            "ticks": 4290,
            "time": 25.2352815,
            "velocity": 0.4330708661417323
          },
          {
            "duration": 0.02352939999999748,
            "durationTicks": 4,
            "midi": 40,
            "name": "E2",
            "ticks": 4300,
            "time": 25.294105000000002,
            "velocity": 0.4330708661417323
          },
          {
            "duration": 0.08235290000000006,
            "durationTicks": 14,
            "midi": 40,
            "name": "E2",
            "ticks": 4680,
            "time": 27.529398,
            "velocity": 0.8267716535433071
          },
          {
            "duration": 0.08235290000000361,
            "durationTicks": 14,
            "midi": 40,
            "name": "E2",
            "ticks": 4770,
            "time": 28.0588095,
            "velocity": 0.4330708661417323
          },
          {
            "duration": 0.08235290000000006,
            "durationTicks": 14,
            "midi": 40,
            "name": "E2",
            "ticks": 4780,
            "time": 28.117633,
            "velocity": 0.4330708661417323
          },
          {
            "duration": 0.08235290000000006,
            "durationTicks": 14,
            "midi": 40,
            "name": "E2",
            "ticks": 5160,
            "time": 30.352926,
            "velocity": 0.8267716535433071
          },
          {
            "duration": 0.08235290000000006,
            "durationTicks": 14,
            "midi": 40,
            "name": "E2",
            "ticks": 5250,
            "time": 30.882337500000002,
            "velocity": 0.4330708661417323
          },
          {
            "duration": 0.08235290000000006,
            "durationTicks": 14,
            "midi": 40,
            "name": "E2",
            "ticks": 5260,
            "time": 30.941161,
            "velocity": 0.4330708661417323
          },
          {
            "duration": 0.08235290000000361,
            "durationTicks": 14,
            "midi": 40,
            "name": "E2",
            "ticks": 5640,
            "time": 33.176454,
            "velocity": 0.8267716535433071
          },
          {
            "duration": 0.08235289999999651,
            "durationTicks": 14,
            "midi": 40,
            "name": "E2",
            "ticks": 5730,
            "time": 33.7058655,
            "velocity": 0.4330708661417323
          },
          {
            "duration": 0.08235289999999651,
            "durationTicks": 14,
            "midi": 40,
            "name": "E2",
            "ticks": 5740,
            "time": 33.764689000000004,
            "velocity": 0.4330708661417323
          },
          {
            "duration": 0.08235289999999651,
            "durationTicks": 14,
            "midi": 40,
            "name": "E2",
            "ticks": 6120,
            "time": 35.999982,
            "velocity": 0.8267716535433071
          },
          {
            "duration": 0.08235290000000361,
            "durationTicks": 14,
            "midi": 40,
            "name": "E2",
            "ticks": 6210,
            "time": 36.5293935,
            "velocity": 0.4330708661417323
          },
          {
            "duration": 0.08235290000000361,
            "durationTicks": 14,
            "midi": 40,
            "name": "E2",
            "ticks": 6220,
            "time": 36.588217,
            "velocity": 0.4330708661417323
          },
          {
            "duration": 0.08235290000000361,
            "durationTicks": 14,
            "midi": 40,
            "name": "E2",
            "ticks": 6600,
            "time": 38.82351,
            "velocity": 0.8267716535433071
          },
          {
            "duration": 0.08235290000000361,
            "durationTicks": 14,
            "midi": 40,
            "name": "E2",
            "ticks": 6690,
            "time": 39.3529215,
            "velocity": 0.4330708661417323
          },
          {
            "duration": 0.08235289999999651,
            "durationTicks": 14,
            "midi": 40,
            "name": "E2",
            "ticks": 6700,
            "time": 39.411745,
            "velocity": 0.4330708661417323
          },
          {
            "duration": 0.08235289999999651,
            "durationTicks": 14,
            "midi": 40,
            "name": "E2",
            "ticks": 7080,
            "time": 41.647038,
            "velocity": 0.8267716535433071
          },
          {
            "duration": 0.08235289999999651,
            "durationTicks": 14,
            "midi": 40,
            "name": "E2",
            "ticks": 7170,
            "time": 42.176449500000004,
            "velocity": 0.4330708661417323
          },
          {
            "duration": 0.08235290000000361,
            "durationTicks": 14,
            "midi": 40,
            "name": "E2",
            "ticks": 7180,
            "time": 42.235273,
            "velocity": 0.4330708661417323
          },
          {
            "duration": 0.08235290000000361,
            "durationTicks": 14,
            "midi": 40,
            "name": "E2",
            "ticks": 7560,
            "time": 44.470566,
            "velocity": 0.8267716535433071
          },
          {
            "duration": 0.08235290000000361,
            "durationTicks": 14,
            "midi": 40,
            "name": "E2",
            "ticks": 7650,
            "time": 44.9999775,
            "velocity": 0.4330708661417323
          },
          {
            "duration": 0.08235290000000361,
            "durationTicks": 14,
            "midi": 40,
            "name": "E2",
            "ticks": 7660,
            "time": 45.058801,
            "velocity": 0.4330708661417323
          },
          {
            "duration": 0.0823528999999894,
            "durationTicks": 14,
            "midi": 40,
            "name": "E2",
            "ticks": 7800,
            "time": 45.88233,
            "velocity": 0.8267716535433071
          },
          {
            "duration": 0.023529400000001033,
            "durationTicks": 4,
            "midi": 40,
            "name": "E2",
            "ticks": 7890,
            "time": 46.4117415,
            "velocity": 0.4330708661417323
          },
          {
            "duration": 0.023529399999993927,
            "durationTicks": 4,
            "midi": 40,
            "name": "E2",
            "ticks": 7900,
            "time": 46.470565,
            "velocity": 0.4330708661417323
          },
          {
            "duration": 0.08235289999999651,
            "durationTicks": 14,
            "midi": 40,
            "name": "E2",
            "ticks": 8040,
            "time": 47.294094,
            "velocity": 0.8267716535433071
          },
          {
            "duration": 0.023529399999993927,
            "durationTicks": 4,
            "midi": 40,
            "name": "E2",
            "ticks": 8130,
            "time": 47.8235055,
            "velocity": 0.4330708661417323
          },
          {
            "duration": 0.023529399999993927,
            "durationTicks": 4,
            "midi": 40,
            "name": "E2",
            "ticks": 8140,
            "time": 47.882329,
            "velocity": 0.4330708661417323
          },
          {
            "duration": 0.08235289999999651,
            "durationTicks": 14,
            "midi": 40,
            "name": "E2",
            "ticks": 8520,
            "time": 50.117622,
            "velocity": 0.8267716535433071
          },
          {
            "duration": 0.08235289999999651,
            "durationTicks": 14,
            "midi": 40,
            "name": "E2",
            "ticks": 8610,
            "time": 50.6470335,
            "velocity": 0.4330708661417323
          },
          {
            "duration": 0.08235290000001072,
            "durationTicks": 14,
            "midi": 40,
            "name": "E2",
            "ticks": 8620,
            "time": 50.705856999999995,
            "velocity": 0.4330708661417323
          },
          {
            "duration": 0.08235289999999651,
            "durationTicks": 14,
            "midi": 40,
            "name": "E2",
            "ticks": 9000,
            "time": 52.94115,
            "velocity": 0.8267716535433071
          },
          {
            "duration": 0.08235289999999651,
            "durationTicks": 14,
            "midi": 40,
            "name": "E2",
            "ticks": 9090,
            "time": 53.4705615,
            "velocity": 0.4330708661417323
          },
          {
            "duration": 0.08235290000000361,
            "durationTicks": 14,
            "midi": 40,
            "name": "E2",
            "ticks": 9100,
            "time": 53.529385,
            "velocity": 0.4330708661417323
          },
          {
            "duration": 0.0823528999999894,
            "durationTicks": 14,
            "midi": 40,
            "name": "E2",
            "ticks": 9480,
            "time": 55.764678,
            "velocity": 0.8267716535433071
          },
          {
            "duration": 0.08235289999999651,
            "durationTicks": 14,
            "midi": 40,
            "name": "E2",
            "ticks": 9570,
            "time": 56.2940895,
            "velocity": 0.4330708661417323
          },
          {
            "duration": 0.08235290000000361,
            "durationTicks": 14,
            "midi": 40,
            "name": "E2",
            "ticks": 9580,
            "time": 56.352913,
            "velocity": 0.4330708661417323
          },
          {
            "duration": 0.08235289999999651,
            "durationTicks": 14,
            "midi": 40,
            "name": "E2",
            "ticks": 9960,
            "time": 58.588206,
            "velocity": 0.8267716535433071
          },
          {
            "duration": 0.08235289999999651,
            "durationTicks": 14,
            "midi": 40,
            "name": "E2",
            "ticks": 10050,
            "time": 59.1176175,
            "velocity": 0.4330708661417323
          },
          {
            "duration": 0.08235290000000361,
            "durationTicks": 14,
            "midi": 40,
            "name": "E2",
            "ticks": 10060,
            "time": 59.176441,
            "velocity": 0.4330708661417323
          },
          {
            "duration": 0.08235289999999651,
            "durationTicks": 14,
            "midi": 40,
            "name": "E2",
            "ticks": 10440,
            "time": 61.411734,
            "velocity": 0.8267716535433071
          },
          {
            "duration": 0.08235289999999651,
            "durationTicks": 14,
            "midi": 40,
            "name": "E2",
            "ticks": 10530,
            "time": 61.9411455,
            "velocity": 0.4330708661417323
          },
          {
            "duration": 0.08235290000000361,
            "durationTicks": 14,
            "midi": 40,
            "name": "E2",
            "ticks": 10540,
            "time": 61.999969,
            "velocity": 0.4330708661417323
          },
          {
            "duration": 0.0823528999999894,
            "durationTicks": 14,
            "midi": 40,
            "name": "E2",
            "ticks": 10920,
            "time": 64.235262,
            "velocity": 0.8267716535433071
          },
          {
            "duration": 0.0823528999999894,
            "durationTicks": 14,
            "midi": 40,
            "name": "E2",
            "ticks": 11010,
            "time": 64.7646735,
            "velocity": 0.4330708661417323
          },
          {
            "duration": 0.08235290000000361,
            "durationTicks": 14,
            "midi": 40,
            "name": "E2",
            "ticks": 11020,
            "time": 64.823497,
            "velocity": 0.4330708661417323
          },
          {
            "duration": 0.0823528999999894,
            "durationTicks": 14,
            "midi": 40,
            "name": "E2",
            "ticks": 11400,
            "time": 67.05879,
            "velocity": 0.8267716535433071
          },
          {
            "duration": 0.08235290000000361,
            "durationTicks": 14,
            "midi": 40,
            "name": "E2",
            "ticks": 11490,
            "time": 67.5882015,
            "velocity": 0.4330708661417323
          },
          {
            "duration": 0.08235290000000361,
            "durationTicks": 14,
            "midi": 40,
            "name": "E2",
            "ticks": 11500,
            "time": 67.647025,
            "velocity": 0.4330708661417323
          },
          {
            "duration": 0.0823528999999894,
            "durationTicks": 14,
            "midi": 40,
            "name": "E2",
            "ticks": 11640,
            "time": 68.470554,
            "velocity": 0.8267716535433071
          },
          {
            "duration": 0.023529400000001033,
            "durationTicks": 4,
            "midi": 40,
            "name": "E2",
            "ticks": 11730,
            "time": 68.9999655,
            "velocity": 0.4330708661417323
          },
          {
            "duration": 0.023529399999986822,
            "durationTicks": 4,
            "midi": 40,
            "name": "E2",
            "ticks": 11740,
            "time": 69.058789,
            "velocity": 0.4330708661417323
          },
          {
            "duration": 0.08235290000000361,
            "durationTicks": 14,
            "midi": 40,
            "name": "E2",
            "ticks": 11880,
            "time": 69.882318,
            "velocity": 0.8267716535433071
          },
          {
            "duration": 0.0823528999999894,
            "durationTicks": 14,
            "midi": 48,
            "name": "C3",
            "ticks": 11910,
            "time": 70.0587885,
            "velocity": 0.8267716535433071
          },
          {
            "duration": 0.08235290000000361,
            "durationTicks": 14,
            "midi": 47,
            "name": "B2",
            "ticks": 11940,
            "time": 70.235259,
            "velocity": 0.8267716535433071
          },
          {
            "duration": 0.0823528999999894,
            "durationTicks": 14,
            "midi": 40,
            "name": "E2",
            "ticks": 11970,
            "time": 70.4117295,
            "velocity": 0.4330708661417323
          },
          {
            "duration": 0.08235290000000361,
            "durationTicks": 14,
            "midi": 40,
            "name": "E2",
            "ticks": 11980,
            "time": 70.470553,
            "velocity": 0.4330708661417323
          },
          {
            "duration": 0.0823528999999894,
            "durationTicks": 14,
            "midi": 40,
            "name": "E2",
            "ticks": 12120,
            "time": 71.294082,
            "velocity": 0.8267716535433071
          },
          {
            "duration": 0.08235290000000361,
            "durationTicks": 14,
            "midi": 40,
            "name": "E2",
            "ticks": 12210,
            "time": 71.8234935,
            "velocity": 0.4330708661417323
          },
          {
            "duration": 0.08235290000000361,
            "durationTicks": 14,
            "midi": 40,
            "name": "E2",
            "ticks": 12220,
            "time": 71.882317,
            "velocity": 0.4330708661417323
          },
          {
            "duration": 0.08235290000000361,
            "durationTicks": 14,
            "midi": 40,
            "name": "E2",
            "ticks": 12360,
            "time": 72.705846,
            "velocity": 0.8267716535433071
          },
          {
            "duration": 0.08235290000000361,
            "durationTicks": 14,
            "midi": 47,
            "name": "B2",
            "ticks": 12420,
            "time": 73.058787,
            "velocity": 0.8267716535433071
          },
          {
            "duration": 0.08235290000000361,
            "durationTicks": 14,
            "midi": 40,
            "name": "E2",
            "ticks": 12600,
            "time": 74.11761,
            "velocity": 0.8267716535433071
          },
          {
            "duration": 0.08235290000000361,
            "durationTicks": 14,
            "midi": 40,
            "name": "E2",
            "ticks": 12690,
            "time": 74.6470215,
            "velocity": 0.4330708661417323
          },
          {
            "duration": 0.08235290000000361,
            "durationTicks": 14,
            "midi": 40,
            "name": "E2",
            "ticks": 12700,
            "time": 74.705845,
            "velocity": 0.4330708661417323
          },
          {
            "duration": 0.0823528999999894,
            "durationTicks": 14,
            "midi": 40,
            "name": "E2",
            "ticks": 12840,
            "time": 75.529374,
            "velocity": 0.8267716535433071
          },
          {
            "duration": 0.0823528999999894,
            "durationTicks": 14,
            "midi": 47,
            "name": "B2",
            "ticks": 12900,
            "time": 75.882315,
            "velocity": 0.8267716535433071
          },
          {
            "duration": 0.08235290000000361,
            "durationTicks": 14,
            "midi": 40,
            "name": "E2",
            "ticks": 13080,
            "time": 76.941138,
            "velocity": 0.8267716535433071
          },
          {
            "duration": 0.0823528999999894,
            "durationTicks": 14,
            "midi": 40,
            "name": "E2",
            "ticks": 13170,
            "time": 77.4705495,
            "velocity": 0.4330708661417323
          },
          {
            "duration": 0.08235290000000361,
            "durationTicks": 14,
            "midi": 40,
            "name": "E2",
            "ticks": 13180,
            "time": 77.52937299999999,
            "velocity": 0.4330708661417323
          },
          {
            "duration": 0.0823528999999894,
            "durationTicks": 14,
            "midi": 40,
            "name": "E2",
            "ticks": 13320,
            "time": 78.352902,
            "velocity": 0.8267716535433071
          },
          {
            "duration": 0.0823528999999894,
            "durationTicks": 14,
            "midi": 47,
            "name": "B2",
            "ticks": 13380,
            "time": 78.705843,
            "velocity": 0.8267716535433071
          },
          {
            "duration": 0.0823528999999894,
            "durationTicks": 14,
            "midi": 40,
            "name": "E2",
            "ticks": 13560,
            "time": 79.764666,
            "velocity": 0.8267716535433071
          },
          {
            "duration": 0.0823528999999894,
            "durationTicks": 14,
            "midi": 40,
            "name": "E2",
            "ticks": 13650,
            "time": 80.2940775,
            "velocity": 0.4330708661417323
          },
          {
            "duration": 0.08235290000000361,
            "durationTicks": 14,
            "midi": 40,
            "name": "E2",
            "ticks": 13660,
            "time": 80.352901,
            "velocity": 0.4330708661417323
          },
          {
            "duration": 0.08235290000000361,
            "durationTicks": 14,
            "midi": 40,
            "name": "E2",
            "ticks": 13800,
            "time": 81.17643,
            "velocity": 0.8267716535433071
          },
          {
            "duration": 0.08235290000000361,
            "durationTicks": 14,
            "midi": 47,
            "name": "B2",
            "ticks": 13860,
            "time": 81.529371,
            "velocity": 0.8267716535433071
          },
          {
            "duration": 0.0823528999999894,
            "durationTicks": 14,
            "midi": 40,
            "name": "E2",
            "ticks": 14040,
            "time": 82.588194,
            "velocity": 0.8267716535433071
          },
          {
            "duration": 0.08235290000000361,
            "durationTicks": 14,
            "midi": 40,
            "name": "E2",
            "ticks": 14130,
            "time": 83.1176055,
            "velocity": 0.4330708661417323
          },
          {
            "duration": 0.08235290000000361,
            "durationTicks": 14,
            "midi": 40,
            "name": "E2",
            "ticks": 14140,
            "time": 83.176429,
            "velocity": 0.4330708661417323
          },
          {
            "duration": 0.0823528999999894,
            "durationTicks": 14,
            "midi": 40,
            "name": "E2",
            "ticks": 14280,
            "time": 83.999958,
            "velocity": 0.8267716535433071
          },
          {
            "duration": 0.0823528999999894,
            "durationTicks": 14,
            "midi": 47,
            "name": "B2",
            "ticks": 14340,
            "time": 84.35289900000001,
            "velocity": 0.8267716535433071
          },
          {
            "duration": 0.08235290000000361,
            "durationTicks": 14,
            "midi": 40,
            "name": "E2",
            "ticks": 14520,
            "time": 85.411722,
            "velocity": 0.8267716535433071
          },
          {
            "duration": 0.0823528999999894,
            "durationTicks": 14,
            "midi": 40,
            "name": "E2",
            "ticks": 14610,
            "time": 85.9411335,
            "velocity": 0.4330708661417323
          },
          {
            "duration": 0.08235290000000361,
            "durationTicks": 14,
            "midi": 40,
            "name": "E2",
            "ticks": 14620,
            "time": 85.999957,
            "velocity": 0.4330708661417323
          },
          {
            "duration": 0.0823528999999894,
            "durationTicks": 14,
            "midi": 40,
            "name": "E2",
            "ticks": 14760,
            "time": 86.823486,
            "velocity": 0.8267716535433071
          },
          {
            "duration": 0.0823528999999894,
            "durationTicks": 14,
            "midi": 47,
            "name": "B2",
            "ticks": 14820,
            "time": 87.176427,
            "velocity": 0.8267716535433071
          },
          {
            "duration": 0.0823528999999894,
            "durationTicks": 14,
            "midi": 40,
            "name": "E2",
            "ticks": 15000,
            "time": 88.23525000000001,
            "velocity": 0.8267716535433071
          },
          {
            "duration": 0.0823528999999894,
            "durationTicks": 14,
            "midi": 40,
            "name": "E2",
            "ticks": 15090,
            "time": 88.7646615,
            "velocity": 0.4330708661417323
          },
          {
            "duration": 0.08235290000001783,
            "durationTicks": 14,
            "midi": 40,
            "name": "E2",
            "ticks": 15100,
            "time": 88.82348499999999,
            "velocity": 0.4330708661417323
          },
          {
            "duration": 0.08235290000000361,
            "durationTicks": 14,
            "midi": 40,
            "name": "E2",
            "ticks": 15240,
            "time": 89.647014,
            "velocity": 0.8267716535433071
          },
          {
            "duration": 0.08235290000000361,
            "durationTicks": 14,
            "midi": 47,
            "name": "B2",
            "ticks": 15300,
            "time": 89.999955,
            "velocity": 0.8267716535433071
          },
          {
            "duration": 0.08235290000000361,
            "durationTicks": 14,
            "midi": 48,
            "name": "C3",
            "ticks": 15420,
            "time": 90.705837,
            "velocity": 0.8267716535433071
          },
          {
            "duration": 0.0823528999999894,
            "durationTicks": 14,
            "midi": 47,
            "name": "B2",
            "ticks": 15475,
            "time": 91.02936625000001,
            "velocity": 0.8267716535433071
          },
          {
            "duration": 0.08235290000000361,
            "durationTicks": 14,
            "midi": 47,
            "name": "B2",
            "ticks": 15480,
            "time": 91.058778,
            "velocity": 0.8267716535433071
          },
          {
            "duration": 0.08235290000000361,
            "durationTicks": 14,
            "midi": 40,
            "name": "E2",
            "ticks": 15540,
            "time": 91.411719,
            "velocity": 0.8267716535433071
          },
          {
            "duration": 0.08235290000000361,
            "durationTicks": 14,
            "midi": 40,
            "name": "E2",
            "ticks": 15695,
            "time": 92.32348325,
            "velocity": 0.8267716535433071
          },
          {
            "duration": 0.08235290000000361,
            "durationTicks": 14,
            "midi": 40,
            "name": "E2",
            "ticks": 15705,
            "time": 92.38230675,
            "velocity": 0.8267716535433071
          },
          {
            "duration": 0.08235290000001783,
            "durationTicks": 14,
            "midi": 40,
            "name": "E2",
            "ticks": 15720,
            "time": 92.470542,
            "velocity": 0.8267716535433071
          },
          {
            "duration": 0.08235290000000361,
            "durationTicks": 14,
            "midi": 48,
            "name": "C3",
            "ticks": 15750,
            "time": 92.6470125,
            "velocity": 0.8267716535433071
          },
          {
            "duration": 0.08235290000000361,
            "durationTicks": 14,
            "midi": 47,
            "name": "B2",
            "ticks": 15780,
            "time": 92.823483,
            "velocity": 0.8267716535433071
          },
          {
            "duration": 0.08235290000000361,
            "durationTicks": 14,
            "midi": 40,
            "name": "E2",
            "ticks": 15810,
            "time": 92.9999535,
            "velocity": 0.4330708661417323
          },
          {
            "duration": 0.0823528999999894,
            "durationTicks": 14,
            "midi": 40,
            "name": "E2",
            "ticks": 15820,
            "time": 93.058777,
            "velocity": 0.4330708661417323
          },
          {
            "duration": 0.08235290000000361,
            "durationTicks": 14,
            "midi": 40,
            "name": "E2",
            "ticks": 15930,
            "time": 93.7058355,
            "velocity": 0.4330708661417323
          },
          {
            "duration": 0.0823528999999894,
            "durationTicks": 14,
            "midi": 40,
            "name": "E2",
            "ticks": 15940,
            "time": 93.76465900000001,
            "velocity": 0.4330708661417323
          },
          {
            "duration": 0.08235290000000361,
            "durationTicks": 14,
            "midi": 40,
            "name": "E2",
            "ticks": 15960,
            "time": 93.882306,
            "velocity": 0.4330708661417323
          },
          {
            "duration": 0.08235290000000361,
            "durationTicks": 14,
            "midi": 40,
            "name": "E2",
            "ticks": 15990,
            "time": 94.05877650000001,
            "velocity": 0.8267716535433071
          },
          {
            "duration": 0.08235290000000361,
            "durationTicks": 14,
            "midi": 43,
            "name": "G2",
            "ticks": 16200,
            "time": 95.29407,
            "velocity": 0.8267716535433071
          },
          {
            "duration": 0.08235290000000361,
            "durationTicks": 14,
            "midi": 40,
            "name": "E2",
            "ticks": 16410,
            "time": 96.5293635,
            "velocity": 0.4330708661417323
          },
          {
            "duration": 0.0823528999999894,
            "durationTicks": 14,
            "midi": 40,
            "name": "E2",
            "ticks": 16420,
            "time": 96.588187,
            "velocity": 0.4330708661417323
          },
          {
            "duration": 0.08235290000001783,
            "durationTicks": 14,
            "midi": 40,
            "name": "E2",
            "ticks": 16440,
            "time": 96.705834,
            "velocity": 0.4330708661417323
          },
          {
            "duration": 0.08235290000000361,
            "durationTicks": 14,
            "midi": 40,
            "name": "E2",
            "ticks": 16470,
            "time": 96.8823045,
            "velocity": 0.8267716535433071
          },
          {
            "duration": 0.08235290000000361,
            "durationTicks": 14,
            "midi": 43,
            "name": "G2",
            "ticks": 16680,
            "time": 98.117598,
            "velocity": 0.8267716535433071
          },
          {
            "duration": 0.08235290000000361,
            "durationTicks": 14,
            "midi": 40,
            "name": "E2",
            "ticks": 16890,
            "time": 99.3528915,
            "velocity": 0.4330708661417323
          },
          {
            "duration": 0.0823528999999894,
            "durationTicks": 14,
            "midi": 40,
            "name": "E2",
            "ticks": 16900,
            "time": 99.411715,
            "velocity": 0.4330708661417323
          },
          {
            "duration": 0.08235290000000361,
            "durationTicks": 14,
            "midi": 40,
            "name": "E2",
            "ticks": 16920,
            "time": 99.529362,
            "velocity": 0.4330708661417323
          },
          {
            "duration": 0.08235290000000361,
            "durationTicks": 14,
            "midi": 40,
            "name": "E2",
            "ticks": 16950,
            "time": 99.7058325,
            "velocity": 0.8267716535433071
          },
          {
            "duration": 0.08235290000000361,
            "durationTicks": 14,
            "midi": 43,
            "name": "G2",
            "ticks": 17160,
            "time": 100.941126,
            "velocity": 0.8267716535433071
          },
          {
            "duration": 0.08235290000001783,
            "durationTicks": 14,
            "midi": 40,
            "name": "E2",
            "ticks": 17370,
            "time": 102.1764195,
            "velocity": 0.4330708661417323
          },
          {
            "duration": 0.0823528999999752,
            "durationTicks": 14,
            "midi": 40,
            "name": "E2",
            "ticks": 17380,
            "time": 102.23524300000001,
            "velocity": 0.4330708661417323
          },
          {
            "duration": 0.08235290000000361,
            "durationTicks": 14,
            "midi": 40,
            "name": "E2",
            "ticks": 17400,
            "time": 102.35289,
            "velocity": 0.4330708661417323
          },
          {
            "duration": 0.08235290000001783,
            "durationTicks": 14,
            "midi": 40,
            "name": "E2",
            "ticks": 17430,
            "time": 102.5293605,
            "velocity": 0.8267716535433071
          },
          {
            "duration": 0.08235290000000361,
            "durationTicks": 14,
            "midi": 43,
            "name": "G2",
            "ticks": 17640,
            "time": 103.76465400000001,
            "velocity": 0.8267716535433071
          },
          {
            "duration": 0.08235290000000361,
            "durationTicks": 14,
            "midi": 40,
            "name": "E2",
            "ticks": 17850,
            "time": 104.9999475,
            "velocity": 0.4330708661417323
          },
          {
            "duration": 0.0823528999999894,
            "durationTicks": 14,
            "midi": 40,
            "name": "E2",
            "ticks": 17860,
            "time": 105.05877100000001,
            "velocity": 0.4330708661417323
          },
          {
            "duration": 0.08235290000000361,
            "durationTicks": 14,
            "midi": 40,
            "name": "E2",
            "ticks": 17880,
            "time": 105.176418,
            "velocity": 0.4330708661417323
          },
          {
            "duration": 0.08235290000000361,
            "durationTicks": 14,
            "midi": 40,
            "name": "E2",
            "ticks": 17910,
            "time": 105.3528885,
            "velocity": 0.8267716535433071
          },
          {
            "duration": 0.08235290000000361,
            "durationTicks": 14,
            "midi": 43,
            "name": "G2",
            "ticks": 18120,
            "time": 106.588182,
            "velocity": 0.8267716535433071
          },
          {
            "duration": 0.08235290000000361,
            "durationTicks": 14,
            "midi": 40,
            "name": "E2",
            "ticks": 18330,
            "time": 107.8234755,
            "velocity": 0.4330708661417323
          },
          {
            "duration": 0.0823528999999894,
            "durationTicks": 14,
            "midi": 40,
            "name": "E2",
            "ticks": 18340,
            "time": 107.882299,
            "velocity": 0.4330708661417323
          },
          {
            "duration": 0.08235290000000361,
            "durationTicks": 14,
            "midi": 40,
            "name": "E2",
            "ticks": 18360,
            "time": 107.99994600000001,
            "velocity": 0.4330708661417323
          },
          {
            "duration": 0.08235290000000361,
            "durationTicks": 14,
            "midi": 40,
            "name": "E2",
            "ticks": 18390,
            "time": 108.1764165,
            "velocity": 0.8267716535433071
          },
          {
            "duration": 0.08235290000000361,
            "durationTicks": 14,
            "midi": 43,
            "name": "G2",
            "ticks": 18600,
            "time": 109.41171,
            "velocity": 0.8267716535433071
          },
          {
            "duration": 0.08235290000000361,
            "durationTicks": 14,
            "midi": 40,
            "name": "E2",
            "ticks": 18810,
            "time": 110.6470035,
            "velocity": 0.4330708661417323
          },
          {
            "duration": 0.0823528999999752,
            "durationTicks": 14,
            "midi": 40,
            "name": "E2",
            "ticks": 18820,
            "time": 110.70582700000001,
            "velocity": 0.4330708661417323
          },
          {
            "duration": 0.08235290000000361,
            "durationTicks": 14,
            "midi": 40,
            "name": "E2",
            "ticks": 18840,
            "time": 110.823474,
            "velocity": 0.4330708661417323
          },
          {
            "duration": 0.08235290000000361,
            "durationTicks": 14,
            "midi": 40,
            "name": "E2",
            "ticks": 18870,
            "time": 110.9999445,
            "velocity": 0.8267716535433071
          },
          {
            "duration": 0.08235290000001783,
            "durationTicks": 14,
            "midi": 43,
            "name": "G2",
            "ticks": 19080,
            "time": 112.235238,
            "velocity": 0.8267716535433071
          },
          {
            "duration": 0.08235290000000361,
            "durationTicks": 14,
            "midi": 40,
            "name": "E2",
            "ticks": 19290,
            "time": 113.4705315,
            "velocity": 0.4330708661417323
          },
          {
            "duration": 0.0823528999999894,
            "durationTicks": 14,
            "midi": 40,
            "name": "E2",
            "ticks": 19300,
            "time": 113.52935500000001,
            "velocity": 0.4330708661417323
          },
          {
            "duration": 0.08235290000000361,
            "durationTicks": 14,
            "midi": 40,
            "name": "E2",
            "ticks": 19320,
            "time": 113.647002,
            "velocity": 0.4330708661417323
          },
          {
            "duration": 0.08235290000000361,
            "durationTicks": 14,
            "midi": 40,
            "name": "E2",
            "ticks": 19350,
            "time": 113.82347250000001,
            "velocity": 0.8267716535433071
          },
          {
            "duration": 0.08235290000000361,
            "durationTicks": 14,
            "midi": 40,
            "name": "E2",
            "ticks": 19415,
            "time": 114.20582524999999,
            "velocity": 0.8267716535433071
          },
          {
            "duration": 0.08235290000000361,
            "durationTicks": 14,
            "midi": 40,
            "name": "E2",
            "ticks": 19425,
            "time": 114.26464875,
            "velocity": 0.8267716535433071
          },
          {
            "duration": 0.08235290000000361,
            "durationTicks": 14,
            "midi": 40,
            "name": "E2",
            "ticks": 19440,
            "time": 114.352884,
            "velocity": 0.8267716535433071
          },
          {
            "duration": 0.08235290000000361,
            "durationTicks": 14,
            "midi": 47,
            "name": "B2",
            "ticks": 19470,
            "time": 114.5293545,
            "velocity": 0.8267716535433071
          },
          {
            "duration": 0.08235290000000361,
            "durationTicks": 14,
            "midi": 45,
            "name": "A2",
            "ticks": 19500,
            "time": 114.705825,
            "velocity": 0.8267716535433071
          },
          {
            "duration": 0.08235290000000361,
            "durationTicks": 14,
            "midi": 40,
            "name": "E2",
            "ticks": 19530,
            "time": 114.8822955,
            "velocity": 0.4330708661417323
          },
          {
            "duration": 0.0823528999999752,
            "durationTicks": 14,
            "midi": 40,
            "name": "E2",
            "ticks": 19540,
            "time": 114.94111900000001,
            "velocity": 0.4330708661417323
          },
          {
            "duration": 0.08235290000000361,
            "durationTicks": 14,
            "midi": 40,
            "name": "E2",
            "ticks": 19620,
            "time": 115.411707,
            "velocity": 0.4330708661417323
          },
          {
            "duration": 0.0823528999999894,
            "durationTicks": 14,
            "midi": 40,
            "name": "E2",
            "ticks": 19630,
            "time": 115.47053050000001,
            "velocity": 0.4330708661417323
          },
          {
            "duration": 0.08235290000000361,
            "durationTicks": 14,
            "midi": 40,
            "name": "E2",
            "ticks": 19640,
            "time": 115.529354,
            "velocity": 0.4330708661417323
          },
          {
            "duration": 0.08235290000000361,
            "durationTicks": 14,
            "midi": 40,
            "name": "E2",
            "ticks": 19650,
            "time": 115.5881775,
            "velocity": 0.4330708661417323
          },
          {
            "duration": 0.08235290000000361,
            "durationTicks": 14,
            "midi": 40,
            "name": "E2",
            "ticks": 19770,
            "time": 116.2940595,
            "velocity": 0.4330708661417323
          },
          {
            "duration": 0.0823528999999894,
            "durationTicks": 14,
            "midi": 40,
            "name": "E2",
            "ticks": 19780,
            "time": 116.352883,
            "velocity": 0.4330708661417323
          },
          {
            "duration": 0.08235290000000361,
            "durationTicks": 14,
            "midi": 40,
            "name": "E2",
            "ticks": 19800,
            "time": 116.47053,
            "velocity": 0.4330708661417323
          },
          {
            "duration": 0.08235290000000361,
            "durationTicks": 14,
            "midi": 40,
            "name": "E2",
            "ticks": 19830,
            "time": 116.6470005,
            "velocity": 0.8267716535433071
          },
          {
            "duration": 0.08235290000000361,
            "durationTicks": 14,
            "midi": 43,
            "name": "G2",
            "ticks": 20040,
            "time": 117.882294,
            "velocity": 0.8267716535433071
          },
          {
            "duration": 0.08235290000000361,
            "durationTicks": 14,
            "midi": 40,
            "name": "E2",
            "ticks": 20250,
            "time": 119.1175875,
            "velocity": 0.4330708661417323
          },
          {
            "duration": 0.0823528999999894,
            "durationTicks": 14,
            "midi": 40,
            "name": "E2",
            "ticks": 20260,
            "time": 119.176411,
            "velocity": 0.4330708661417323
          },
          {
            "duration": 0.08235290000000361,
            "durationTicks": 14,
            "midi": 40,
            "name": "E2",
            "ticks": 20280,
            "time": 119.294058,
            "velocity": 0.4330708661417323
          },
          {
            "duration": 0.08235290000000361,
            "durationTicks": 14,
            "midi": 40,
            "name": "E2",
            "ticks": 20310,
            "time": 119.4705285,
            "velocity": 0.8267716535433071
          },
          {
            "duration": 0.08235290000000361,
            "durationTicks": 14,
            "midi": 43,
            "name": "G2",
            "ticks": 20520,
            "time": 120.705822,
            "velocity": 0.8267716535433071
          },
          {
            "duration": 0.08235290000001783,
            "durationTicks": 14,
            "midi": 40,
            "name": "E2",
            "ticks": 20730,
            "time": 121.9411155,
            "velocity": 0.4330708661417323
          },
          {
            "duration": 0.0823528999999752,
            "durationTicks": 14,
            "midi": 40,
            "name": "E2",
            "ticks": 20740,
            "time": 121.99993900000001,
            "velocity": 0.4330708661417323
          },
          {
            "duration": 0.08235290000000361,
            "durationTicks": 14,
            "midi": 40,
            "name": "E2",
            "ticks": 20760,
            "time": 122.117586,
            "velocity": 0.4330708661417323
          },
          {
            "duration": 0.08235290000000361,
            "durationTicks": 14,
            "midi": 40,
            "name": "E2",
            "ticks": 20790,
            "time": 122.2940565,
            "velocity": 0.8267716535433071
          },
          {
            "duration": 0.08235290000000361,
            "durationTicks": 14,
            "midi": 43,
            "name": "G2",
            "ticks": 21000,
            "time": 123.52935000000001,
            "velocity": 0.8267716535433071
          },
          {
            "duration": 0.08235290000000361,
            "durationTicks": 14,
            "midi": 40,
            "name": "E2",
            "ticks": 21210,
            "time": 124.7646435,
            "velocity": 0.4330708661417323
          },
          {
            "duration": 0.0823528999999894,
            "durationTicks": 14,
            "midi": 40,
            "name": "E2",
            "ticks": 21220,
            "time": 124.82346700000001,
            "velocity": 0.4330708661417323
          },
          {
            "duration": 0.08235290000000361,
            "durationTicks": 14,
            "midi": 40,
            "name": "E2",
            "ticks": 21240,
            "time": 124.941114,
            "velocity": 0.4330708661417323
          },
          {
            "duration": 0.08235290000000361,
            "durationTicks": 14,
            "midi": 40,
            "name": "E2",
            "ticks": 21270,
            "time": 125.1175845,
            "velocity": 0.8267716535433071
          },
          {
            "duration": 0.08235290000000361,
            "durationTicks": 14,
            "midi": 43,
            "name": "G2",
            "ticks": 21480,
            "time": 126.352878,
            "velocity": 0.8267716535433071
          },
          {
            "duration": 0.08235290000000361,
            "durationTicks": 14,
            "midi": 40,
            "name": "E2",
            "ticks": 21690,
            "time": 127.5881715,
            "velocity": 0.4330708661417323
          },
          {
            "duration": 0.0823528999999894,
            "durationTicks": 14,
            "midi": 40,
            "name": "E2",
            "ticks": 21700,
            "time": 127.646995,
            "velocity": 0.4330708661417323
          },
          {
            "duration": 0.08235290000001783,
            "durationTicks": 14,
            "midi": 40,
            "name": "E2",
            "ticks": 21720,
            "time": 127.764642,
            "velocity": 0.4330708661417323
          },
          {
            "duration": 0.08235290000001783,
            "durationTicks": 14,
            "midi": 40,
            "name": "E2",
            "ticks": 21750,
            "time": 127.9411125,
            "velocity": 0.8267716535433071
          },
          {
            "duration": 0.0823528999999894,
            "durationTicks": 14,
            "midi": 43,
            "name": "G2",
            "ticks": 21960,
            "time": 129.17640600000001,
            "velocity": 0.8267716535433071
          },
          {
            "duration": 0.08235290000001783,
            "durationTicks": 14,
            "midi": 40,
            "name": "E2",
            "ticks": 22170,
            "time": 130.4116995,
            "velocity": 0.4330708661417323
          },
          {
            "duration": 0.0823528999999894,
            "durationTicks": 14,
            "midi": 40,
            "name": "E2",
            "ticks": 22180,
            "time": 130.47052300000001,
            "velocity": 0.4330708661417323
          },
          {
            "duration": 0.08235290000001783,
            "durationTicks": 14,
            "midi": 40,
            "name": "E2",
            "ticks": 22200,
            "time": 130.58817,
            "velocity": 0.4330708661417323
          },
          {
            "duration": 0.0823528999999894,
            "durationTicks": 14,
            "midi": 40,
            "name": "E2",
            "ticks": 22230,
            "time": 130.7646405,
            "velocity": 0.8267716535433071
          },
          {
            "duration": 0.08235290000001783,
            "durationTicks": 14,
            "midi": 43,
            "name": "G2",
            "ticks": 22440,
            "time": 131.999934,
            "velocity": 0.8267716535433071
          },
          {
            "duration": 0.0823528999999894,
            "durationTicks": 14,
            "midi": 40,
            "name": "E2",
            "ticks": 22650,
            "time": 133.2352275,
            "velocity": 0.4330708661417323
          },
          {
            "duration": 0.0823528999999894,
            "durationTicks": 14,
            "midi": 40,
            "name": "E2",
            "ticks": 22660,
            "time": 133.294051,
            "velocity": 0.4330708661417323
          },
          {
            "duration": 0.08235290000001783,
            "durationTicks": 14,
            "midi": 40,
            "name": "E2",
            "ticks": 22680,
            "time": 133.411698,
            "velocity": 0.4330708661417323
          },
          {
            "duration": 0.08235290000001783,
            "durationTicks": 14,
            "midi": 40,
            "name": "E2",
            "ticks": 22710,
            "time": 133.5881685,
            "velocity": 0.8267716535433071
          },
          {
            "duration": 0.0823528999999894,
            "durationTicks": 14,
            "midi": 43,
            "name": "G2",
            "ticks": 22920,
            "time": 134.823462,
            "velocity": 0.8267716535433071
          },
          {
            "duration": 0.08235290000001783,
            "durationTicks": 14,
            "midi": 40,
            "name": "E2",
            "ticks": 23130,
            "time": 136.0587555,
            "velocity": 0.4330708661417323
          },
          {
            "duration": 0.0823528999999894,
            "durationTicks": 14,
            "midi": 40,
            "name": "E2",
            "ticks": 23140,
            "time": 136.117579,
            "velocity": 0.4330708661417323
          },
          {
            "duration": 0.0823528999999894,
            "durationTicks": 14,
            "midi": 40,
            "name": "E2",
            "ticks": 23160,
            "time": 136.235226,
            "velocity": 0.4330708661417323
          },
          {
            "duration": 0.0823528999999894,
            "durationTicks": 14,
            "midi": 40,
            "name": "E2",
            "ticks": 23190,
            "time": 136.4116965,
            "velocity": 0.8267716535433071
          },
          {
            "duration": 0.0823528999999894,
            "durationTicks": 14,
            "midi": 40,
            "name": "E2",
            "ticks": 23255,
            "time": 136.79404925,
            "velocity": 0.8267716535433071
          },
          {
            "duration": 0.08235290000001783,
            "durationTicks": 14,
            "midi": 40,
            "name": "E2",
            "ticks": 23265,
            "time": 136.85287275,
            "velocity": 0.8267716535433071
          },
          {
            "duration": 0.0823528999999894,
            "durationTicks": 14,
            "midi": 40,
            "name": "E2",
            "ticks": 23280,
            "time": 136.941108,
            "velocity": 0.8267716535433071
          },
          {
            "duration": 0.0823528999999894,
            "durationTicks": 14,
            "midi": 47,
            "name": "B2",
            "ticks": 23310,
            "time": 137.1175785,
            "velocity": 0.8267716535433071
          },
          {
            "duration": 0.08235290000001783,
            "durationTicks": 14,
            "midi": 45,
            "name": "A2",
            "ticks": 23340,
            "time": 137.294049,
            "velocity": 0.8267716535433071
          },
          {
            "duration": 0.08235290000001783,
            "durationTicks": 14,
            "midi": 40,
            "name": "E2",
            "ticks": 23370,
            "time": 137.4705195,
            "velocity": 0.4330708661417323
          },
          {
            "duration": 0.0823528999999894,
            "durationTicks": 14,
            "midi": 40,
            "name": "E2",
            "ticks": 23380,
            "time": 137.529343,
            "velocity": 0.4330708661417323
          },
          {
            "duration": 0.0823528999999894,
            "durationTicks": 14,
            "midi": 40,
            "name": "E2",
            "ticks": 23460,
            "time": 137.999931,
            "velocity": 0.4330708661417323
          },
          {
            "duration": 0.08235289999996098,
            "durationTicks": 14,
            "midi": 40,
            "name": "E2",
            "ticks": 23470,
            "time": 138.05875450000002,
            "velocity": 0.4330708661417323
          },
          {
            "duration": 0.0823528999999894,
            "durationTicks": 14,
            "midi": 40,
            "name": "E2",
            "ticks": 23480,
            "time": 138.117578,
            "velocity": 0.4330708661417323
          },
          {
            "duration": 0.08235290000001783,
            "durationTicks": 14,
            "midi": 40,
            "name": "E2",
            "ticks": 23490,
            "time": 138.1764015,
            "velocity": 0.4330708661417323
          },
          {
            "duration": 0.08235290000001783,
            "durationTicks": 14,
            "midi": 40,
            "name": "E2",
            "ticks": 23640,
            "time": 139.058754,
            "velocity": 0.8267716535433071
          },
          {
            "duration": 0.08235290000001783,
            "durationTicks": 14,
            "midi": 40,
            "name": "E2",
            "ticks": 23730,
            "time": 139.5881655,
            "velocity": 0.4330708661417323
          },
          {
            "duration": 0.08235289999996098,
            "durationTicks": 14,
            "midi": 40,
            "name": "E2",
            "ticks": 23740,
            "time": 139.64698900000002,
            "velocity": 0.4330708661417323
          },
          {
            "duration": 0.08235290000001783,
            "durationTicks": 14,
            "midi": 40,
            "name": "E2",
            "ticks": 23880,
            "time": 140.470518,
            "velocity": 0.8267716535433071
          },
          {
            "duration": 0.0823528999999894,
            "durationTicks": 14,
            "midi": 40,
            "name": "E2",
            "ticks": 23970,
            "time": 140.9999295,
            "velocity": 0.4330708661417323
          },
          {
            "duration": 0.0823528999999894,
            "durationTicks": 14,
            "midi": 40,
            "name": "E2",
            "ticks": 23980,
            "time": 141.058753,
            "velocity": 0.4330708661417323
          },
          {
            "duration": 0.08235290000001783,
            "durationTicks": 14,
            "midi": 40,
            "name": "E2",
            "ticks": 24120,
            "time": 141.882282,
            "velocity": 0.8267716535433071
          },
          {
            "duration": 0.0823528999999894,
            "durationTicks": 14,
            "midi": 40,
            "name": "E2",
            "ticks": 24210,
            "time": 142.4116935,
            "velocity": 0.4330708661417323
          },
          {
            "duration": 0.0823528999999894,
            "durationTicks": 14,
            "midi": 40,
            "name": "E2",
            "ticks": 24220,
            "time": 142.470517,
            "velocity": 0.4330708661417323
          },
          {
            "duration": 0.0823528999999894,
            "durationTicks": 14,
            "midi": 40,
            "name": "E2",
            "ticks": 24360,
            "time": 143.294046,
            "velocity": 0.8267716535433071
          },
          {
            "duration": 0.08235290000001783,
            "durationTicks": 14,
            "midi": 40,
            "name": "E2",
            "ticks": 24420,
            "time": 143.646987,
            "velocity": 0.4330708661417323
          },
          {
            "duration": 0.0823528999999894,
            "durationTicks": 14,
            "midi": 40,
            "name": "E2",
            "ticks": 24430,
            "time": 143.7058105,
            "velocity": 0.4330708661417323
          },
          {
            "duration": 0.0823528999999894,
            "durationTicks": 14,
            "midi": 40,
            "name": "E2",
            "ticks": 24440,
            "time": 143.764634,
            "velocity": 0.4330708661417323
          },
          {
            "duration": 0.08235290000001783,
            "durationTicks": 14,
            "midi": 40,
            "name": "E2",
            "ticks": 24450,
            "time": 143.8234575,
            "velocity": 0.4330708661417323
          },
          {
            "duration": 0.0823528999999894,
            "durationTicks": 14,
            "midi": 40,
            "name": "E2",
            "ticks": 24600,
            "time": 144.70581,
            "velocity": 0.8267716535433071
          },
          {
            "duration": 0.08235290000001783,
            "durationTicks": 14,
            "midi": 40,
            "name": "E2",
            "ticks": 24690,
            "time": 145.2352215,
            "velocity": 0.4330708661417323
          },
          {
            "duration": 0.0823528999999894,
            "durationTicks": 14,
            "midi": 40,
            "name": "E2",
            "ticks": 24700,
            "time": 145.294045,
            "velocity": 0.4330708661417323
          },
          {
            "duration": 0.08235290000001783,
            "durationTicks": 14,
            "midi": 40,
            "name": "E2",
            "ticks": 24840,
            "time": 146.117574,
            "velocity": 0.8267716535433071
          },
          {
            "duration": 0.08235290000001783,
            "durationTicks": 14,
            "midi": 40,
            "name": "E2",
            "ticks": 24930,
            "time": 146.6469855,
            "velocity": 0.4330708661417323
          },
          {
            "duration": 0.0823528999999894,
            "durationTicks": 14,
            "midi": 40,
            "name": "E2",
            "ticks": 24940,
            "time": 146.70580900000002,
            "velocity": 0.4330708661417323
          },
          {
            "duration": 0.08235290000001783,
            "durationTicks": 14,
            "midi": 40,
            "name": "E2",
            "ticks": 25080,
            "time": 147.529338,
            "velocity": 0.8267716535433071
          },
          {
            "duration": 0.0823528999999894,
            "durationTicks": 14,
            "midi": 40,
            "name": "E2",
            "ticks": 25170,
            "time": 148.0587495,
            "velocity": 0.4330708661417323
          },
          {
            "duration": 0.08235289999996098,
            "durationTicks": 14,
            "midi": 40,
            "name": "E2",
            "ticks": 25180,
            "time": 148.11757300000002,
            "velocity": 0.4330708661417323
          },
          {
            "duration": 0.08235290000001783,
            "durationTicks": 14,
            "midi": 40,
            "name": "E2",
            "ticks": 25320,
            "time": 148.941102,
            "velocity": 0.8267716535433071
          },
          {
            "duration": 0.08235290000001783,
            "durationTicks": 14,
            "midi": 40,
            "name": "E2",
            "ticks": 25380,
            "time": 149.294043,
            "velocity": 0.4330708661417323
          },
          {
            "duration": 0.0823528999999894,
            "durationTicks": 14,
            "midi": 40,
            "name": "E2",
            "ticks": 25390,
            "time": 149.3528665,
            "velocity": 0.4330708661417323
          },
          {
            "duration": 0.08235290000001783,
            "durationTicks": 14,
            "midi": 40,
            "name": "E2",
            "ticks": 25400,
            "time": 149.41169,
            "velocity": 0.4330708661417323
          },
          {
            "duration": 0.0823528999999894,
            "durationTicks": 14,
            "midi": 40,
            "name": "E2",
            "ticks": 25410,
            "time": 149.4705135,
            "velocity": 0.4330708661417323
          },
          {
            "duration": 0.0823528999999894,
            "durationTicks": 14,
            "midi": 40,
            "name": "E2",
            "ticks": 25560,
            "time": 150.352866,
            "velocity": 0.8267716535433071
          },
          {
            "duration": 0.0823528999999894,
            "durationTicks": 14,
            "midi": 40,
            "name": "E2",
            "ticks": 25650,
            "time": 150.88227750000001,
            "velocity": 0.4330708661417323
          },
          {
            "duration": 0.0823528999999894,
            "durationTicks": 14,
            "midi": 40,
            "name": "E2",
            "ticks": 25660,
            "time": 150.941101,
            "velocity": 0.4330708661417323
          },
          {
            "duration": 0.0823528999999894,
            "durationTicks": 14,
            "midi": 40,
            "name": "E2",
            "ticks": 25800,
            "time": 151.76463,
            "velocity": 0.8267716535433071
          },
          {
            "duration": 0.08235290000001783,
            "durationTicks": 14,
            "midi": 40,
            "name": "E2",
            "ticks": 25890,
            "time": 152.2940415,
            "velocity": 0.4330708661417323
          },
          {
            "duration": 0.0823528999999894,
            "durationTicks": 14,
            "midi": 40,
            "name": "E2",
            "ticks": 25900,
            "time": 152.352865,
            "velocity": 0.4330708661417323
          },
          {
            "duration": 0.0823528999999894,
            "durationTicks": 14,
            "midi": 40,
            "name": "E2",
            "ticks": 26040,
            "time": 153.17639400000002,
            "velocity": 0.8267716535433071
          },
          {
            "duration": 0.08235290000001783,
            "durationTicks": 14,
            "midi": 40,
            "name": "E2",
            "ticks": 26130,
            "time": 153.7058055,
            "velocity": 0.4330708661417323
          },
          {
            "duration": 0.0823528999999894,
            "durationTicks": 14,
            "midi": 40,
            "name": "E2",
            "ticks": 26140,
            "time": 153.764629,
            "velocity": 0.4330708661417323
          },
          {
            "duration": 0.08235290000001783,
            "durationTicks": 14,
            "midi": 40,
            "name": "E2",
            "ticks": 26280,
            "time": 154.588158,
            "velocity": 0.8267716535433071
          },
          {
            "duration": 0.0823528999999894,
            "durationTicks": 14,
            "midi": 40,
            "name": "E2",
            "ticks": 26340,
            "time": 154.941099,
            "velocity": 0.4330708661417323
          },
          {
            "duration": 0.0823528999999894,
            "durationTicks": 14,
            "midi": 40,
            "name": "E2",
            "ticks": 26350,
            "time": 154.9999225,
            "velocity": 0.4330708661417323
          },
          {
            "duration": 0.08235290000001783,
            "durationTicks": 14,
            "midi": 40,
            "name": "E2",
            "ticks": 26360,
            "time": 155.05874599999999,
            "velocity": 0.4330708661417323
          },
          {
            "duration": 0.08235290000001783,
            "durationTicks": 14,
            "midi": 40,
            "name": "E2",
            "ticks": 26370,
            "time": 155.1175695,
            "velocity": 0.4330708661417323
          },
          {
            "duration": 0.08235290000001783,
            "durationTicks": 14,
            "midi": 40,
            "name": "E2",
            "ticks": 26520,
            "time": 155.999922,
            "velocity": 0.8267716535433071
          },
          {
            "duration": 0.0823528999999894,
            "durationTicks": 14,
            "midi": 40,
            "name": "E2",
            "ticks": 26610,
            "time": 156.5293335,
            "velocity": 0.4330708661417323
          },
          {
            "duration": 0.0823528999999894,
            "durationTicks": 14,
            "midi": 40,
            "name": "E2",
            "ticks": 26620,
            "time": 156.588157,
            "velocity": 0.4330708661417323
          },
          {
            "duration": 0.08235290000001783,
            "durationTicks": 14,
            "midi": 40,
            "name": "E2",
            "ticks": 26760,
            "time": 157.411686,
            "velocity": 0.8267716535433071
          },
          {
            "duration": 0.0823528999999894,
            "durationTicks": 14,
            "midi": 40,
            "name": "E2",
            "ticks": 26850,
            "time": 157.9410975,
            "velocity": 0.4330708661417323
          },
          {
            "duration": 0.0823528999999894,
            "durationTicks": 14,
            "midi": 40,
            "name": "E2",
            "ticks": 26860,
            "time": 157.999921,
            "velocity": 0.4330708661417323
          },
          {
            "duration": 0.0823528999999894,
            "durationTicks": 14,
            "midi": 40,
            "name": "E2",
            "ticks": 27000,
            "time": 158.82345,
            "velocity": 0.8267716535433071
          },
          {
            "duration": 0.08235290000001783,
            "durationTicks": 14,
            "midi": 40,
            "name": "E2",
            "ticks": 27090,
            "time": 159.3528615,
            "velocity": 0.4330708661417323
          },
          {
            "duration": 0.0823528999999894,
            "durationTicks": 14,
            "midi": 40,
            "name": "E2",
            "ticks": 27100,
            "time": 159.411685,
            "velocity": 0.4330708661417323
          },
          {
            "duration": 0.0823528999999894,
            "durationTicks": 14,
            "midi": 40,
            "name": "E2",
            "ticks": 27240,
            "time": 160.235214,
            "velocity": 0.8267716535433071
          },
          {
            "duration": 0.08235290000001783,
            "durationTicks": 14,
            "midi": 40,
            "name": "E2",
            "ticks": 27300,
            "time": 160.588155,
            "velocity": 0.4330708661417323
          },
          {
            "duration": 0.0823528999999894,
            "durationTicks": 14,
            "midi": 40,
            "name": "E2",
            "ticks": 27310,
            "time": 160.64697850000002,
            "velocity": 0.4330708661417323
          },
          {
            "duration": 0.0823528999999894,
            "durationTicks": 14,
            "midi": 40,
            "name": "E2",
            "ticks": 27320,
            "time": 160.705802,
            "velocity": 0.4330708661417323
          },
          {
            "duration": 0.08235290000001783,
            "durationTicks": 14,
            "midi": 40,
            "name": "E2",
            "ticks": 27330,
            "time": 160.7646255,
            "velocity": 0.4330708661417323
          },
          {
            "duration": 0.08235290000001783,
            "durationTicks": 14,
            "midi": 40,
            "name": "E2",
            "ticks": 27450,
            "time": 161.4705075,
            "velocity": 0.4330708661417323
          },
          {
            "duration": 0.0823528999999894,
            "durationTicks": 14,
            "midi": 40,
            "name": "E2",
            "ticks": 27460,
            "time": 161.529331,
            "velocity": 0.4330708661417323
          },
          {
            "duration": 0.08235290000001783,
            "durationTicks": 14,
            "midi": 40,
            "name": "E2",
            "ticks": 27480,
            "time": 161.646978,
            "velocity": 0.4330708661417323
          },
          {
            "duration": 0.0823528999999894,
            "durationTicks": 14,
            "midi": 40,
            "name": "E2",
            "ticks": 27510,
            "time": 161.8234485,
            "velocity": 0.8267716535433071
          },
          {
            "duration": 0.08235290000001783,
            "durationTicks": 14,
            "midi": 43,
            "name": "G2",
            "ticks": 27720,
            "time": 163.058742,
            "velocity": 0.8267716535433071
          },
          {
            "duration": 0.0823528999999894,
            "durationTicks": 14,
            "midi": 40,
            "name": "E2",
            "ticks": 27810,
            "time": 163.5881535,
            "velocity": 0.4330708661417323
          },
          {
            "duration": 0.08235289999996098,
            "durationTicks": 14,
            "midi": 40,
            "name": "E2",
            "ticks": 27820,
            "time": 163.64697700000002,
            "velocity": 0.4330708661417323
          },
          {
            "duration": 0.0823528999999894,
            "durationTicks": 14,
            "midi": 40,
            "name": "E2",
            "ticks": 27930,
            "time": 164.2940355,
            "velocity": 0.4330708661417323
          },
          {
            "duration": 0.0823528999999894,
            "durationTicks": 14,
            "midi": 40,
            "name": "E2",
            "ticks": 27940,
            "time": 164.352859,
            "velocity": 0.4330708661417323
          },
          {
            "duration": 0.08235290000001783,
            "durationTicks": 14,
            "midi": 40,
            "name": "E2",
            "ticks": 27960,
            "time": 164.470506,
            "velocity": 0.4330708661417323
          },
          {
            "duration": 0.08235290000001783,
            "durationTicks": 14,
            "midi": 40,
            "name": "E2",
            "ticks": 27990,
            "time": 164.6469765,
            "velocity": 0.8267716535433071
          },
          {
            "duration": 0.0823528999999894,
            "durationTicks": 14,
            "midi": 43,
            "name": "G2",
            "ticks": 28200,
            "time": 165.88227,
            "velocity": 0.8267716535433071
          },
          {
            "duration": 0.0823528999999894,
            "durationTicks": 14,
            "midi": 40,
            "name": "E2",
            "ticks": 28290,
            "time": 166.41168150000001,
            "velocity": 0.4330708661417323
          },
          {
            "duration": 0.0823528999999894,
            "durationTicks": 14,
            "midi": 40,
            "name": "E2",
            "ticks": 28300,
            "time": 166.470505,
            "velocity": 0.4330708661417323
          },
          {
            "duration": 0.08235290000001783,
            "durationTicks": 14,
            "midi": 40,
            "name": "E2",
            "ticks": 28410,
            "time": 167.1175635,
            "velocity": 0.4330708661417323
          },
          {
            "duration": 0.0823528999999894,
            "durationTicks": 14,
            "midi": 40,
            "name": "E2",
            "ticks": 28420,
            "time": 167.176387,
            "velocity": 0.4330708661417323
          },
          {
            "duration": 0.0823528999999894,
            "durationTicks": 14,
            "midi": 40,
            "name": "E2",
            "ticks": 28440,
            "time": 167.294034,
            "velocity": 0.4330708661417323
          },
          {
            "duration": 0.0823528999999894,
            "durationTicks": 14,
            "midi": 40,
            "name": "E2",
            "ticks": 28470,
            "time": 167.4705045,
            "velocity": 0.8267716535433071
          },
          {
            "duration": 0.0823528999999894,
            "durationTicks": 14,
            "midi": 43,
            "name": "G2",
            "ticks": 28680,
            "time": 168.70579800000002,
            "velocity": 0.8267716535433071
          },
          {
            "duration": 0.08235290000001783,
            "durationTicks": 14,
            "midi": 40,
            "name": "E2",
            "ticks": 28770,
            "time": 169.2352095,
            "velocity": 0.4330708661417323
          },
          {
            "duration": 0.0823528999999894,
            "durationTicks": 14,
            "midi": 40,
            "name": "E2",
            "ticks": 28780,
            "time": 169.294033,
            "velocity": 0.4330708661417323
          },
          {
            "duration": 0.08235290000001783,
            "durationTicks": 14,
            "midi": 40,
            "name": "E2",
            "ticks": 28890,
            "time": 169.9410915,
            "velocity": 0.4330708661417323
          },
          {
            "duration": 0.0823528999999894,
            "durationTicks": 14,
            "midi": 40,
            "name": "E2",
            "ticks": 28900,
            "time": 169.99991500000002,
            "velocity": 0.4330708661417323
          },
          {
            "duration": 0.08235290000001783,
            "durationTicks": 14,
            "midi": 40,
            "name": "E2",
            "ticks": 28920,
            "time": 170.117562,
            "velocity": 0.4330708661417323
          },
          {
            "duration": 0.0823528999999894,
            "durationTicks": 14,
            "midi": 40,
            "name": "E2",
            "ticks": 28950,
            "time": 170.29403250000001,
            "velocity": 0.8267716535433071
          },
          {
            "duration": 0.08235290000001783,
            "durationTicks": 14,
            "midi": 43,
            "name": "G2",
            "ticks": 29160,
            "time": 171.529326,
            "velocity": 0.8267716535433071
          },
          {
            "duration": 0.0823528999999894,
            "durationTicks": 14,
            "midi": 40,
            "name": "E2",
            "ticks": 29250,
            "time": 172.0587375,
            "velocity": 0.4330708661417323
          },
          {
            "duration": 0.0823528999999894,
            "durationTicks": 14,
            "midi": 40,
            "name": "E2",
            "ticks": 29260,
            "time": 172.117561,
            "velocity": 0.4330708661417323
          },
          {
            "duration": 0.0823528999999894,
            "durationTicks": 14,
            "midi": 40,
            "name": "E2",
            "ticks": 29370,
            "time": 172.7646195,
            "velocity": 0.4330708661417323
          },
          {
            "duration": 0.0823528999999894,
            "durationTicks": 14,
            "midi": 40,
            "name": "E2",
            "ticks": 29380,
            "time": 172.823443,
            "velocity": 0.4330708661417323
          },
          {
            "duration": 0.08235290000001783,
            "durationTicks": 14,
            "midi": 40,
            "name": "E2",
            "ticks": 29400,
            "time": 172.94109,
            "velocity": 0.4330708661417323
          },
          {
            "duration": 0.08235290000001783,
            "durationTicks": 14,
            "midi": 40,
            "name": "E2",
            "ticks": 29430,
            "time": 173.1175605,
            "velocity": 0.8267716535433071
          },
          {
            "duration": 0.0823528999999894,
            "durationTicks": 14,
            "midi": 43,
            "name": "G2",
            "ticks": 29640,
            "time": 174.352854,
            "velocity": 0.8267716535433071
          },
          {
            "duration": 0.08235290000001783,
            "durationTicks": 14,
            "midi": 40,
            "name": "E2",
            "ticks": 29730,
            "time": 174.8822655,
            "velocity": 0.4330708661417323
          },
          {
            "duration": 0.0823528999999894,
            "durationTicks": 14,
            "midi": 40,
            "name": "E2",
            "ticks": 29740,
            "time": 174.941089,
            "velocity": 0.4330708661417323
          },
          {
            "duration": 0.08235290000001783,
            "durationTicks": 14,
            "midi": 40,
            "name": "E2",
            "ticks": 29850,
            "time": 175.5881475,
            "velocity": 0.4330708661417323
          },
          {
            "duration": 0.0823528999999894,
            "durationTicks": 14,
            "midi": 40,
            "name": "E2",
            "ticks": 29860,
            "time": 175.646971,
            "velocity": 0.4330708661417323
          },
          {
            "duration": 0.0823528999999894,
            "durationTicks": 14,
            "midi": 40,
            "name": "E2",
            "ticks": 29880,
            "time": 175.764618,
            "velocity": 0.4330708661417323
          },
          {
            "duration": 0.0823528999999894,
            "durationTicks": 14,
            "midi": 40,
            "name": "E2",
            "ticks": 29910,
            "time": 175.9410885,
            "velocity": 0.8267716535433071
          },
          {
            "duration": 0.08235290000001783,
            "durationTicks": 14,
            "midi": 43,
            "name": "G2",
            "ticks": 30120,
            "time": 177.176382,
            "velocity": 0.8267716535433071
          },
          {
            "duration": 0.08235290000001783,
            "durationTicks": 14,
            "midi": 40,
            "name": "E2",
            "ticks": 30210,
            "time": 177.7057935,
            "velocity": 0.4330708661417323
          },
          {
            "duration": 0.0823528999999894,
            "durationTicks": 14,
            "midi": 40,
            "name": "E2",
            "ticks": 30220,
            "time": 177.76461700000002,
            "velocity": 0.4330708661417323
          },
          {
            "duration": 0.08235290000001783,
            "durationTicks": 14,
            "midi": 40,
            "name": "E2",
            "ticks": 30330,
            "time": 178.4116755,
            "velocity": 0.4330708661417323
          },
          {
            "duration": 0.0823528999999894,
            "durationTicks": 14,
            "midi": 40,
            "name": "E2",
            "ticks": 30340,
            "time": 178.47049900000002,
            "velocity": 0.4330708661417323
          },
          {
            "duration": 0.08235290000001783,
            "durationTicks": 14,
            "midi": 40,
            "name": "E2",
            "ticks": 30360,
            "time": 178.588146,
            "velocity": 0.4330708661417323
          },
          {
            "duration": 0.08235290000001783,
            "durationTicks": 14,
            "midi": 40,
            "name": "E2",
            "ticks": 30390,
            "time": 178.7646165,
            "velocity": 0.8267716535433071
          },
          {
            "duration": 0.08235290000001783,
            "durationTicks": 14,
            "midi": 43,
            "name": "G2",
            "ticks": 30600,
            "time": 179.99991,
            "velocity": 0.8267716535433071
          },
          {
            "duration": 0.0823528999999894,
            "durationTicks": 14,
            "midi": 40,
            "name": "E2",
            "ticks": 30690,
            "time": 180.5293215,
            "velocity": 0.4330708661417323
          },
          {
            "duration": 0.0823528999999894,
            "durationTicks": 14,
            "midi": 40,
            "name": "E2",
            "ticks": 30700,
            "time": 180.588145,
            "velocity": 0.4330708661417323
          },
          {
            "duration": 0.08235290000001783,
            "durationTicks": 14,
            "midi": 48,
            "name": "C3",
            "ticks": 30780,
            "time": 181.058733,
            "velocity": 0.8267716535433071
          },
          {
            "duration": 0.0823528999999894,
            "durationTicks": 14,
            "midi": 40,
            "name": "E2",
            "ticks": 30835,
            "time": 181.38226225,
            "velocity": 0.4330708661417323
          },
          {
            "duration": 0.0823528999999894,
            "durationTicks": 14,
            "midi": 40,
            "name": "E2",
            "ticks": 30840,
            "time": 181.411674,
            "velocity": 0.8267716535433071
          },
          {
            "duration": 0.0823528999999894,
            "durationTicks": 14,
            "midi": 40,
            "name": "E2",
            "ticks": 31055,
            "time": 182.67637925000002,
            "velocity": 0.8267716535433071
          },
          {
            "duration": 0.0823528999999894,
            "durationTicks": 14,
            "midi": 40,
            "name": "E2",
            "ticks": 31065,
            "time": 182.73520275,
            "velocity": 0.8267716535433071
          },
          {
            "duration": 0.0823528999999894,
            "durationTicks": 14,
            "midi": 40,
            "name": "E2",
            "ticks": 31080,
            "time": 182.823438,
            "velocity": 0.8267716535433071
          },
          {
            "duration": 0.08235290000001783,
            "durationTicks": 14,
            "midi": 47,
            "name": "B2",
            "ticks": 31110,
            "time": 182.9999085,
            "velocity": 0.8267716535433071
          },
          {
            "duration": 0.08235290000001783,
            "durationTicks": 14,
            "midi": 45,
            "name": "A2",
            "ticks": 31140,
            "time": 183.176379,
            "velocity": 0.8267716535433071
          },
          {
            "duration": 0.08235290000001783,
            "durationTicks": 14,
            "midi": 48,
            "name": "C3",
            "ticks": 31170,
            "time": 183.3528495,
            "velocity": 0.8267716535433071
          },
          {
            "duration": 0.08235290000001783,
            "durationTicks": 14,
            "midi": 40,
            "name": "E2",
            "ticks": 31560,
            "time": 185.646966,
            "velocity": 0.8267716535433071
          },
          {
            "duration": 0.08235290000001783,
            "durationTicks": 14,
            "midi": 40,
            "name": "E2",
            "ticks": 31650,
            "time": 186.1763775,
            "velocity": 0.4330708661417323
          },
          {
            "duration": 0.08235290000001783,
            "durationTicks": 14,
            "midi": 40,
            "name": "E2",
            "ticks": 31660,
            "time": 186.235201,
            "velocity": 0.4330708661417323
          },
          {
            "duration": 0.08235290000001783,
            "durationTicks": 14,
            "midi": 40,
            "name": "E2",
            "ticks": 32040,
            "time": 188.470494,
            "velocity": 0.8267716535433071
          },
          {
            "duration": 0.0823528999999894,
            "durationTicks": 14,
            "midi": 40,
            "name": "E2",
            "ticks": 32130,
            "time": 188.9999055,
            "velocity": 0.4330708661417323
          },
          {
            "duration": 0.0823528999999894,
            "durationTicks": 14,
            "midi": 40,
            "name": "E2",
            "ticks": 32140,
            "time": 189.058729,
            "velocity": 0.4330708661417323
          },
          {
            "duration": 0.0823528999999894,
            "durationTicks": 14,
            "midi": 40,
            "name": "E2",
            "ticks": 32520,
            "time": 191.294022,
            "velocity": 0.8267716535433071
          },
          {
            "duration": 0.08235290000001783,
            "durationTicks": 14,
            "midi": 40,
            "name": "E2",
            "ticks": 32610,
            "time": 191.8234335,
            "velocity": 0.4330708661417323
          },
          {
            "duration": 0.08235290000001783,
            "durationTicks": 14,
            "midi": 40,
            "name": "E2",
            "ticks": 32620,
            "time": 191.88225699999998,
            "velocity": 0.4330708661417323
          },
          {
            "duration": 0.08235290000001783,
            "durationTicks": 14,
            "midi": 40,
            "name": "E2",
            "ticks": 33000,
            "time": 194.11755,
            "velocity": 0.8267716535433071
          },
          {
            "duration": 0.08235290000001783,
            "durationTicks": 14,
            "midi": 40,
            "name": "E2",
            "ticks": 33090,
            "time": 194.6469615,
            "velocity": 0.4330708661417323
          },
          {
            "duration": 0.0823528999999894,
            "durationTicks": 14,
            "midi": 40,
            "name": "E2",
            "ticks": 33100,
            "time": 194.705785,
            "velocity": 0.4330708661417323
          },
          {
            "duration": 0.0823528999999894,
            "durationTicks": 14,
            "midi": 40,
            "name": "E2",
            "ticks": 33480,
            "time": 196.941078,
            "velocity": 0.8267716535433071
          },
          {
            "duration": 0.0823528999999894,
            "durationTicks": 14,
            "midi": 40,
            "name": "E2",
            "ticks": 33570,
            "time": 197.4704895,
            "velocity": 0.4330708661417323
          },
          {
            "duration": 0.0823528999999894,
            "durationTicks": 14,
            "midi": 40,
            "name": "E2",
            "ticks": 33580,
            "time": 197.529313,
            "velocity": 0.4330708661417323
          },
          {
            "duration": 0.0823528999999894,
            "durationTicks": 14,
            "midi": 40,
            "name": "E2",
            "ticks": 33960,
            "time": 199.76460600000001,
            "velocity": 0.8267716535433071
          },
          {
            "duration": 0.08235290000001783,
            "durationTicks": 14,
            "midi": 40,
            "name": "E2",
            "ticks": 34050,
            "time": 200.2940175,
            "velocity": 0.4330708661417323
          },
          {
            "duration": 0.08235290000001783,
            "durationTicks": 14,
            "midi": 40,
            "name": "E2",
            "ticks": 34060,
            "time": 200.35284099999998,
            "velocity": 0.4330708661417323
          },
          {
            "duration": 0.08235290000001783,
            "durationTicks": 14,
            "midi": 40,
            "name": "E2",
            "ticks": 34440,
            "time": 202.588134,
            "velocity": 0.8267716535433071
          },
          {
            "duration": 0.0823528999999894,
            "durationTicks": 14,
            "midi": 40,
            "name": "E2",
            "ticks": 34530,
            "time": 203.1175455,
            "velocity": 0.4330708661417323
          },
          {
            "duration": 0.0823528999999894,
            "durationTicks": 14,
            "midi": 40,
            "name": "E2",
            "ticks": 34540,
            "time": 203.176369,
            "velocity": 0.4330708661417323
          },
          {
            "duration": 0.08235290000001783,
            "durationTicks": 14,
            "midi": 40,
            "name": "E2",
            "ticks": 34680,
            "time": 203.999898,
            "velocity": 0.8267716535433071
          },
          {
            "duration": 0.023529400000001033,
            "durationTicks": 4,
            "midi": 40,
            "name": "E2",
            "ticks": 34770,
            "time": 204.5293095,
            "velocity": 0.4330708661417323
          },
          {
            "duration": 0.023529400000001033,
            "durationTicks": 4,
            "midi": 40,
            "name": "E2",
            "ticks": 34780,
            "time": 204.588133,
            "velocity": 0.4330708661417323
          },
          {
            "duration": 0.0823528999999894,
            "durationTicks": 14,
            "midi": 40,
            "name": "E2",
            "ticks": 34920,
            "time": 205.411662,
            "velocity": 0.8267716535433071
          },
          {
            "duration": 0.023529400000001033,
            "durationTicks": 4,
            "midi": 40,
            "name": "E2",
            "ticks": 35010,
            "time": 205.94107350000002,
            "velocity": 0.4330708661417323
          },
          {
            "duration": 0.023529400000029455,
            "durationTicks": 4,
            "midi": 40,
            "name": "E2",
            "ticks": 35020,
            "time": 205.99989699999998,
            "velocity": 0.4330708661417323
          },
          {
            "duration": 0.08235290000001783,
            "durationTicks": 14,
            "midi": 40,
            "name": "E2",
            "ticks": 35400,
            "time": 208.23519,
            "velocity": 0.8267716535433071
          },
          {
            "duration": 0.08235290000001783,
            "durationTicks": 14,
            "midi": 40,
            "name": "E2",
            "ticks": 35490,
            "time": 208.7646015,
            "velocity": 0.4330708661417323
          },
          {
            "duration": 0.08235290000001783,
            "durationTicks": 14,
            "midi": 40,
            "name": "E2",
            "ticks": 35500,
            "time": 208.823425,
            "velocity": 0.4330708661417323
          },
          {
            "duration": 0.08235290000001783,
            "durationTicks": 14,
            "midi": 40,
            "name": "E2",
            "ticks": 35880,
            "time": 211.058718,
            "velocity": 0.8267716535433071
          },
          {
            "duration": 0.0823528999999894,
            "durationTicks": 14,
            "midi": 40,
            "name": "E2",
            "ticks": 35970,
            "time": 211.5881295,
            "velocity": 0.4330708661417323
          },
          {
            "duration": 0.0823528999999894,
            "durationTicks": 14,
            "midi": 40,
            "name": "E2",
            "ticks": 35980,
            "time": 211.646953,
            "velocity": 0.4330708661417323
          },
          {
            "duration": 0.0823528999999894,
            "durationTicks": 14,
            "midi": 40,
            "name": "E2",
            "ticks": 36360,
            "time": 213.882246,
            "velocity": 0.8267716535433071
          },
          {
            "duration": 0.08235290000001783,
            "durationTicks": 14,
            "midi": 40,
            "name": "E2",
            "ticks": 36450,
            "time": 214.4116575,
            "velocity": 0.4330708661417323
          },
          {
            "duration": 0.08235290000001783,
            "durationTicks": 14,
            "midi": 40,
            "name": "E2",
            "ticks": 36460,
            "time": 214.47048099999998,
            "velocity": 0.4330708661417323
          },
          {
            "duration": 0.08235290000001783,
            "durationTicks": 14,
            "midi": 40,
            "name": "E2",
            "ticks": 36840,
            "time": 216.705774,
            "velocity": 0.8267716535433071
          },
          {
            "duration": 0.08235290000001783,
            "durationTicks": 14,
            "midi": 40,
            "name": "E2",
            "ticks": 36930,
            "time": 217.2351855,
            "velocity": 0.4330708661417323
          },
          {
            "duration": 0.08235290000001783,
            "durationTicks": 14,
            "midi": 40,
            "name": "E2",
            "ticks": 36940,
            "time": 217.294009,
            "velocity": 0.4330708661417323
          },
          {
            "duration": 0.08235290000001783,
            "durationTicks": 14,
            "midi": 40,
            "name": "E2",
            "ticks": 37320,
            "time": 219.529302,
            "velocity": 0.8267716535433071
          },
          {
            "duration": 0.0823528999999894,
            "durationTicks": 14,
            "midi": 40,
            "name": "E2",
            "ticks": 37410,
            "time": 220.0587135,
            "velocity": 0.4330708661417323
          },
          {
            "duration": 0.0823528999999894,
            "durationTicks": 14,
            "midi": 40,
            "name": "E2",
            "ticks": 37420,
            "time": 220.117537,
            "velocity": 0.4330708661417323
          },
          {
            "duration": 0.0823528999999894,
            "durationTicks": 14,
            "midi": 40,
            "name": "E2",
            "ticks": 37800,
            "time": 222.35283,
            "velocity": 0.8267716535433071
          },
          {
            "duration": 0.08235290000001783,
            "durationTicks": 14,
            "midi": 40,
            "name": "E2",
            "ticks": 37890,
            "time": 222.8822415,
            "velocity": 0.4330708661417323
          },
          {
            "duration": 0.08235290000001783,
            "durationTicks": 14,
            "midi": 40,
            "name": "E2",
            "ticks": 37900,
            "time": 222.94106499999998,
            "velocity": 0.4330708661417323
          },
          {
            "duration": 0.08235290000001783,
            "durationTicks": 14,
            "midi": 40,
            "name": "E2",
            "ticks": 38280,
            "time": 225.176358,
            "velocity": 0.8267716535433071
          },
          {
            "duration": 0.08235290000001783,
            "durationTicks": 14,
            "midi": 40,
            "name": "E2",
            "ticks": 38370,
            "time": 225.7057695,
            "velocity": 0.4330708661417323
          },
          {
            "duration": 0.08235290000001783,
            "durationTicks": 14,
            "midi": 40,
            "name": "E2",
            "ticks": 38380,
            "time": 225.764593,
            "velocity": 0.4330708661417323
          },
          {
            "duration": 0.08235290000001783,
            "durationTicks": 14,
            "midi": 40,
            "name": "E2",
            "ticks": 38520,
            "time": 226.588122,
            "velocity": 0.8267716535433071
          },
          {
            "duration": 0.023529400000001033,
            "durationTicks": 4,
            "midi": 40,
            "name": "E2",
            "ticks": 38610,
            "time": 227.1175335,
            "velocity": 0.4330708661417323
          },
          {
            "duration": 0.023529400000001033,
            "durationTicks": 4,
            "midi": 40,
            "name": "E2",
            "ticks": 38620,
            "time": 227.176357,
            "velocity": 0.4330708661417323
          },
          {
            "duration": 0.08235290000001783,
            "durationTicks": 14,
            "midi": 40,
            "name": "E2",
            "ticks": 38760,
            "time": 227.999886,
            "velocity": 0.8267716535433071
          },
          {
            "duration": 0.08235290000001783,
            "durationTicks": 14,
            "midi": 48,
            "name": "C3",
            "ticks": 38790,
            "time": 228.1763565,
            "velocity": 0.8267716535433071
          },
          {
            "duration": 0.08235290000001783,
            "durationTicks": 14,
            "midi": 47,
            "name": "B2",
            "ticks": 38820,
            "time": 228.352827,
            "velocity": 0.8267716535433071
          },
          {
            "duration": 0.0823528999999894,
            "durationTicks": 14,
            "midi": 40,
            "name": "E2",
            "ticks": 38850,
            "time": 228.5292975,
            "velocity": 0.4330708661417323
          },
          {
            "duration": 0.0823528999999894,
            "durationTicks": 14,
            "midi": 40,
            "name": "E2",
            "ticks": 38860,
            "time": 228.588121,
            "velocity": 0.4330708661417323
          },
          {
            "duration": 0.0823528999999894,
            "durationTicks": 14,
            "midi": 40,
            "name": "E2",
            "ticks": 39000,
            "time": 229.41165,
            "velocity": 0.8267716535433071
          },
          {
            "duration": 0.08235290000001783,
            "durationTicks": 14,
            "midi": 40,
            "name": "E2",
            "ticks": 39090,
            "time": 229.9410615,
            "velocity": 0.4330708661417323
          },
          {
            "duration": 0.08235290000001783,
            "durationTicks": 14,
            "midi": 40,
            "name": "E2",
            "ticks": 39100,
            "time": 229.99988499999998,
            "velocity": 0.4330708661417323
          },
          {
            "duration": 0.0823528999999894,
            "durationTicks": 14,
            "midi": 40,
            "name": "E2",
            "ticks": 39240,
            "time": 230.823414,
            "velocity": 0.8267716535433071
          },
          {
            "duration": 0.08235290000001783,
            "durationTicks": 14,
            "midi": 47,
            "name": "B2",
            "ticks": 39300,
            "time": 231.176355,
            "velocity": 0.8267716535433071
          },
          {
            "duration": 0.08235290000001783,
            "durationTicks": 14,
            "midi": 40,
            "name": "E2",
            "ticks": 39480,
            "time": 232.235178,
            "velocity": 0.8267716535433071
          },
          {
            "duration": 0.08235290000001783,
            "durationTicks": 14,
            "midi": 40,
            "name": "E2",
            "ticks": 39570,
            "time": 232.7645895,
            "velocity": 0.4330708661417323
          },
          {
            "duration": 0.08235290000001783,
            "durationTicks": 14,
            "midi": 40,
            "name": "E2",
            "ticks": 39580,
            "time": 232.823413,
            "velocity": 0.4330708661417323
          },
          {
            "duration": 0.08235290000001783,
            "durationTicks": 14,
            "midi": 40,
            "name": "E2",
            "ticks": 39720,
            "time": 233.646942,
            "velocity": 0.8267716535433071
          },
          {
            "duration": 0.0823528999999894,
            "durationTicks": 14,
            "midi": 47,
            "name": "B2",
            "ticks": 39780,
            "time": 233.999883,
            "velocity": 0.8267716535433071
          },
          {
            "duration": 0.08235290000001783,
            "durationTicks": 14,
            "midi": 40,
            "name": "E2",
            "ticks": 39960,
            "time": 235.058706,
            "velocity": 0.8267716535433071
          },
          {
            "duration": 0.0823528999999894,
            "durationTicks": 14,
            "midi": 40,
            "name": "E2",
            "ticks": 40050,
            "time": 235.5881175,
            "velocity": 0.4330708661417323
          },
          {
            "duration": 0.0823528999999894,
            "durationTicks": 14,
            "midi": 40,
            "name": "E2",
            "ticks": 40060,
            "time": 235.646941,
            "velocity": 0.4330708661417323
          },
          {
            "duration": 0.0823528999999894,
            "durationTicks": 14,
            "midi": 40,
            "name": "E2",
            "ticks": 40200,
            "time": 236.47047,
            "velocity": 0.8267716535433071
          },
          {
            "duration": 0.08235290000001783,
            "durationTicks": 14,
            "midi": 47,
            "name": "B2",
            "ticks": 40260,
            "time": 236.823411,
            "velocity": 0.8267716535433071
          },
          {
            "duration": 0.0823528999999894,
            "durationTicks": 14,
            "midi": 40,
            "name": "E2",
            "ticks": 40440,
            "time": 237.882234,
            "velocity": 0.8267716535433071
          },
          {
            "duration": 0.08235290000001783,
            "durationTicks": 14,
            "midi": 40,
            "name": "E2",
            "ticks": 40530,
            "time": 238.4116455,
            "velocity": 0.4330708661417323
          },
          {
            "duration": 0.08235290000001783,
            "durationTicks": 14,
            "midi": 40,
            "name": "E2",
            "ticks": 40540,
            "time": 238.47046899999998,
            "velocity": 0.4330708661417323
          },
          {
            "duration": 0.0823528999999894,
            "durationTicks": 14,
            "midi": 40,
            "name": "E2",
            "ticks": 40680,
            "time": 239.29399800000002,
            "velocity": 0.8267716535433071
          },
          {
            "duration": 0.08235290000001783,
            "durationTicks": 14,
            "midi": 47,
            "name": "B2",
            "ticks": 40740,
            "time": 239.646939,
            "velocity": 0.8267716535433071
          },
          {
            "duration": 0.08235290000001783,
            "durationTicks": 14,
            "midi": 40,
            "name": "E2",
            "ticks": 40920,
            "time": 240.705762,
            "velocity": 0.8267716535433071
          },
          {
            "duration": 0.08235290000001783,
            "durationTicks": 14,
            "midi": 40,
            "name": "E2",
            "ticks": 41010,
            "time": 241.2351735,
            "velocity": 0.4330708661417323
          },
          {
            "duration": 0.08235290000001783,
            "durationTicks": 14,
            "midi": 40,
            "name": "E2",
            "ticks": 41020,
            "time": 241.293997,
            "velocity": 0.4330708661417323
          },
          {
            "duration": 0.08235290000001783,
            "durationTicks": 14,
            "midi": 40,
            "name": "E2",
            "ticks": 41160,
            "time": 242.117526,
            "velocity": 0.8267716535433071
          },
          {
            "duration": 0.0823528999999894,
            "durationTicks": 14,
            "midi": 47,
            "name": "B2",
            "ticks": 41220,
            "time": 242.470467,
            "velocity": 0.8267716535433071
          },
          {
            "duration": 0.08235290000001783,
            "durationTicks": 14,
            "midi": 40,
            "name": "E2",
            "ticks": 41400,
            "time": 243.52929,
            "velocity": 0.8267716535433071
          },
          {
            "duration": 0.0823528999999894,
            "durationTicks": 14,
            "midi": 40,
            "name": "E2",
            "ticks": 41490,
            "time": 244.0587015,
            "velocity": 0.4330708661417323
          },
          {
            "duration": 0.0823528999999894,
            "durationTicks": 14,
            "midi": 40,
            "name": "E2",
            "ticks": 41500,
            "time": 244.117525,
            "velocity": 0.4330708661417323
          },
          {
            "duration": 0.0823528999999894,
            "durationTicks": 14,
            "midi": 40,
            "name": "E2",
            "ticks": 41640,
            "time": 244.941054,
            "velocity": 0.8267716535433071
          },
          {
            "duration": 0.08235290000001783,
            "durationTicks": 14,
            "midi": 47,
            "name": "B2",
            "ticks": 41700,
            "time": 245.293995,
            "velocity": 0.8267716535433071
          },
          {
            "duration": 0.0823528999999894,
            "durationTicks": 14,
            "midi": 40,
            "name": "E2",
            "ticks": 41880,
            "time": 246.352818,
            "velocity": 0.8267716535433071
          },
          {
            "duration": 0.08235290000001783,
            "durationTicks": 14,
            "midi": 40,
            "name": "E2",
            "ticks": 41970,
            "time": 246.8822295,
            "velocity": 0.4330708661417323
          },
          {
            "duration": 0.08235290000001783,
            "durationTicks": 14,
            "midi": 40,
            "name": "E2",
            "ticks": 41980,
            "time": 246.94105299999998,
            "velocity": 0.4330708661417323
          },
          {
            "duration": 0.08235290000001783,
            "durationTicks": 14,
            "midi": 40,
            "name": "E2",
            "ticks": 42120,
            "time": 247.764582,
            "velocity": 0.8267716535433071
          },
          {
            "duration": 0.0823528999999894,
            "durationTicks": 14,
            "midi": 47,
            "name": "B2",
            "ticks": 42180,
            "time": 248.117523,
            "velocity": 0.8267716535433071
          },
          {
            "duration": 0.0823528999999894,
            "durationTicks": 14,
            "midi": 48,
            "name": "C3",
            "ticks": 42300,
            "time": 248.823405,
            "velocity": 0.8267716535433071
          },
          {
            "duration": 0.08235290000001783,
            "durationTicks": 14,
            "midi": 47,
            "name": "B2",
            "ticks": 42355,
            "time": 249.14693425,
            "velocity": 0.8267716535433071
          },
          {
            "duration": 0.08235290000001783,
            "durationTicks": 14,
            "midi": 47,
            "name": "B2",
            "ticks": 42360,
            "time": 249.176346,
            "velocity": 0.8267716535433071
          },
          {
            "duration": 0.0823528999999894,
            "durationTicks": 14,
            "midi": 40,
            "name": "E2",
            "ticks": 42420,
            "time": 249.529287,
            "velocity": 0.8267716535433071
          },
          {
            "duration": 0.08235290000001783,
            "durationTicks": 14,
            "midi": 40,
            "name": "E2",
            "ticks": 42575,
            "time": 250.44105125000002,
            "velocity": 0.8267716535433071
          },
          {
            "duration": 0.08235290000001783,
            "durationTicks": 14,
            "midi": 40,
            "name": "E2",
            "ticks": 42585,
            "time": 250.49987475,
            "velocity": 0.8267716535433071
          },
          {
            "duration": 0.08235290000001783,
            "durationTicks": 14,
            "midi": 40,
            "name": "E2",
            "ticks": 42600,
            "time": 250.58811,
            "velocity": 0.8267716535433071
          },
          {
            "duration": 0.08235290000001783,
            "durationTicks": 14,
            "midi": 48,
            "name": "C3",
            "ticks": 42630,
            "time": 250.7645805,
            "velocity": 0.8267716535433071
          },
          {
            "duration": 0.0823528999999894,
            "durationTicks": 14,
            "midi": 47,
            "name": "B2",
            "ticks": 42660,
            "time": 250.94105100000002,
            "velocity": 0.8267716535433071
          },
          {
            "duration": 0.0823528999999894,
            "durationTicks": 14,
            "midi": 40,
            "name": "E2",
            "ticks": 42690,
            "time": 251.1175215,
            "velocity": 0.4330708661417323
          },
          {
            "duration": 0.0823528999999894,
            "durationTicks": 14,
            "midi": 40,
            "name": "E2",
            "ticks": 42700,
            "time": 251.176345,
            "velocity": 0.4330708661417323
          },
          {
            "duration": 0.0823528999999894,
            "durationTicks": 14,
            "midi": 40,
            "name": "E2",
            "ticks": 42810,
            "time": 251.8234035,
            "velocity": 0.4330708661417323
          },
          {
            "duration": 0.0823528999999894,
            "durationTicks": 14,
            "midi": 40,
            "name": "E2",
            "ticks": 42820,
            "time": 251.882227,
            "velocity": 0.4330708661417323
          },
          {
            "duration": 0.0823528999999894,
            "durationTicks": 14,
            "midi": 40,
            "name": "E2",
            "ticks": 42840,
            "time": 251.999874,
            "velocity": 0.4330708661417323
          },
          {
            "duration": 0.08235290000001783,
            "durationTicks": 14,
            "midi": 40,
            "name": "E2",
            "ticks": 42870,
            "time": 252.1763445,
            "velocity": 0.8267716535433071
          },
          {
            "duration": 0.0823528999999894,
            "durationTicks": 14,
            "midi": 43,
            "name": "G2",
            "ticks": 43080,
            "time": 253.411638,
            "velocity": 0.8267716535433071
          },
          {
            "duration": 0.08235290000001783,
            "durationTicks": 14,
            "midi": 40,
            "name": "E2",
            "ticks": 43290,
            "time": 254.6469315,
            "velocity": 0.4330708661417323
          },
          {
            "duration": 0.08235290000001783,
            "durationTicks": 14,
            "midi": 40,
            "name": "E2",
            "ticks": 43300,
            "time": 254.70575499999998,
            "velocity": 0.4330708661417323
          },
          {
            "duration": 0.0823528999999894,
            "durationTicks": 14,
            "midi": 40,
            "name": "E2",
            "ticks": 43320,
            "time": 254.82340200000002,
            "velocity": 0.4330708661417323
          },
          {
            "duration": 0.0823528999999894,
            "durationTicks": 14,
            "midi": 40,
            "name": "E2",
            "ticks": 43350,
            "time": 254.9998725,
            "velocity": 0.8267716535433071
          },
          {
            "duration": 0.0823528999999894,
            "durationTicks": 14,
            "midi": 43,
            "name": "G2",
            "ticks": 43560,
            "time": 256.235166,
            "velocity": 0.8267716535433071
          },
          {
            "duration": 0.0823528999999894,
            "durationTicks": 14,
            "midi": 40,
            "name": "E2",
            "ticks": 43770,
            "time": 257.4704595,
            "velocity": 0.4330708661417323
          },
          {
            "duration": 0.08235290000004625,
            "durationTicks": 14,
            "midi": 40,
            "name": "E2",
            "ticks": 43780,
            "time": 257.52928299999996,
            "velocity": 0.4330708661417323
          },
          {
            "duration": 0.0823528999999894,
            "durationTicks": 14,
            "midi": 40,
            "name": "E2",
            "ticks": 43800,
            "time": 257.64693,
            "velocity": 0.4330708661417323
          },
          {
            "duration": 0.0823528999999894,
            "durationTicks": 14,
            "midi": 40,
            "name": "E2",
            "ticks": 43830,
            "time": 257.8234005,
            "velocity": 0.8267716535433071
          },
          {
            "duration": 0.0823528999999894,
            "durationTicks": 14,
            "midi": 43,
            "name": "G2",
            "ticks": 44040,
            "time": 259.058694,
            "velocity": 0.8267716535433071
          },
          {
            "duration": 0.0823528999999894,
            "durationTicks": 14,
            "midi": 40,
            "name": "E2",
            "ticks": 44250,
            "time": 260.2939875,
            "velocity": 0.4330708661417323
          },
          {
            "duration": 0.08235290000004625,
            "durationTicks": 14,
            "midi": 40,
            "name": "E2",
            "ticks": 44260,
            "time": 260.352811,
            "velocity": 0.4330708661417323
          },
          {
            "duration": 0.0823528999999894,
            "durationTicks": 14,
            "midi": 40,
            "name": "E2",
            "ticks": 44280,
            "time": 260.470458,
            "velocity": 0.4330708661417323
          },
          {
            "duration": 0.0823528999999894,
            "durationTicks": 14,
            "midi": 40,
            "name": "E2",
            "ticks": 44310,
            "time": 260.6469285,
            "velocity": 0.8267716535433071
          },
          {
            "duration": 0.0823528999999894,
            "durationTicks": 14,
            "midi": 43,
            "name": "G2",
            "ticks": 44520,
            "time": 261.882222,
            "velocity": 0.8267716535433071
          },
          {
            "duration": 0.0823528999999894,
            "durationTicks": 14,
            "midi": 40,
            "name": "E2",
            "ticks": 44730,
            "time": 263.1175155,
            "velocity": 0.4330708661417323
          },
          {
            "duration": 0.0823528999999894,
            "durationTicks": 14,
            "midi": 40,
            "name": "E2",
            "ticks": 44740,
            "time": 263.176339,
            "velocity": 0.4330708661417323
          },
          {
            "duration": 0.0823528999999894,
            "durationTicks": 14,
            "midi": 40,
            "name": "E2",
            "ticks": 44760,
            "time": 263.293986,
            "velocity": 0.4330708661417323
          },
          {
            "duration": 0.0823528999999894,
            "durationTicks": 14,
            "midi": 40,
            "name": "E2",
            "ticks": 44790,
            "time": 263.4704565,
            "velocity": 0.8267716535433071
          },
          {
            "duration": 0.0823528999999894,
            "durationTicks": 14,
            "midi": 43,
            "name": "G2",
            "ticks": 45000,
            "time": 264.70575,
            "velocity": 0.8267716535433071
          },
          {
            "duration": 0.08235290000004625,
            "durationTicks": 14,
            "midi": 40,
            "name": "E2",
            "ticks": 45210,
            "time": 265.9410435,
            "velocity": 0.4330708661417323
          },
          {
            "duration": 0.0823528999999894,
            "durationTicks": 14,
            "midi": 40,
            "name": "E2",
            "ticks": 45220,
            "time": 265.999867,
            "velocity": 0.4330708661417323
          },
          {
            "duration": 0.0823528999999894,
            "durationTicks": 14,
            "midi": 40,
            "name": "E2",
            "ticks": 45240,
            "time": 266.117514,
            "velocity": 0.4330708661417323
          },
          {
            "duration": 0.0823528999999894,
            "durationTicks": 14,
            "midi": 40,
            "name": "E2",
            "ticks": 45270,
            "time": 266.2939845,
            "velocity": 0.8267716535433071
          },
          {
            "duration": 0.08235290000004625,
            "durationTicks": 14,
            "midi": 43,
            "name": "G2",
            "ticks": 45480,
            "time": 267.529278,
            "velocity": 0.8267716535433071
          },
          {
            "duration": 0.08235290000004625,
            "durationTicks": 14,
            "midi": 40,
            "name": "E2",
            "ticks": 45690,
            "time": 268.7645715,
            "velocity": 0.4330708661417323
          },
          {
            "duration": 0.0823528999999894,
            "durationTicks": 14,
            "midi": 40,
            "name": "E2",
            "ticks": 45700,
            "time": 268.823395,
            "velocity": 0.4330708661417323
          },
          {
            "duration": 0.08235290000004625,
            "durationTicks": 14,
            "midi": 40,
            "name": "E2",
            "ticks": 45720,
            "time": 268.941042,
            "velocity": 0.4330708661417323
          },
          {
            "duration": 0.08235290000004625,
            "durationTicks": 14,
            "midi": 40,
            "name": "E2",
            "ticks": 45750,
            "time": 269.1175125,
            "velocity": 0.8267716535433071
          },
          {
            "duration": 0.08235290000004625,
            "durationTicks": 14,
            "midi": 43,
            "name": "G2",
            "ticks": 45960,
            "time": 270.352806,
            "velocity": 0.8267716535433071
          },
          {
            "duration": 0.0823528999999894,
            "durationTicks": 14,
            "midi": 40,
            "name": "E2",
            "ticks": 46170,
            "time": 271.5880995,
            "velocity": 0.4330708661417323
          },
          {
            "duration": 0.0823528999999894,
            "durationTicks": 14,
            "midi": 40,
            "name": "E2",
            "ticks": 46180,
            "time": 271.646923,
            "velocity": 0.4330708661417323
          },
          {
            "duration": 0.0823528999999894,
            "durationTicks": 14,
            "midi": 40,
            "name": "E2",
            "ticks": 46200,
            "time": 271.76457,
            "velocity": 0.4330708661417323
          },
          {
            "duration": 0.08235290000004625,
            "durationTicks": 14,
            "midi": 40,
            "name": "E2",
            "ticks": 46230,
            "time": 271.9410405,
            "velocity": 0.8267716535433071
          },
          {
            "duration": 0.0823528999999894,
            "durationTicks": 14,
            "midi": 40,
            "name": "E2",
            "ticks": 46295,
            "time": 272.32339325000004,
            "velocity": 0.8267716535433071
          },
          {
            "duration": 0.0823528999999894,
            "durationTicks": 14,
            "midi": 40,
            "name": "E2",
            "ticks": 46305,
            "time": 272.38221675,
            "velocity": 0.8267716535433071
          },
          {
            "duration": 0.0823528999999894,
            "durationTicks": 14,
            "midi": 40,
            "name": "E2",
            "ticks": 46320,
            "time": 272.470452,
            "velocity": 0.8267716535433071
          },
          {
            "duration": 0.0823528999999894,
            "durationTicks": 14,
            "midi": 47,
            "name": "B2",
            "ticks": 46350,
            "time": 272.6469225,
            "velocity": 0.8267716535433071
          },
          {
            "duration": 0.0823528999999894,
            "durationTicks": 14,
            "midi": 45,
            "name": "A2",
            "ticks": 46380,
            "time": 272.823393,
            "velocity": 0.8267716535433071
          },
          {
            "duration": 0.0823528999999894,
            "durationTicks": 14,
            "midi": 40,
            "name": "E2",
            "ticks": 46410,
            "time": 272.9998635,
            "velocity": 0.4330708661417323
          },
          {
            "duration": 0.08235290000004625,
            "durationTicks": 14,
            "midi": 40,
            "name": "E2",
            "ticks": 46420,
            "time": 273.05868699999996,
            "velocity": 0.4330708661417323
          },
          {
            "duration": 0.08235290000004625,
            "durationTicks": 14,
            "midi": 40,
            "name": "E2",
            "ticks": 46500,
            "time": 273.529275,
            "velocity": 0.4330708661417323
          },
          {
            "duration": 0.0823528999999894,
            "durationTicks": 14,
            "midi": 40,
            "name": "E2",
            "ticks": 46510,
            "time": 273.5880985,
            "velocity": 0.4330708661417323
          },
          {
            "duration": 0.0823528999999894,
            "durationTicks": 14,
            "midi": 40,
            "name": "E2",
            "ticks": 46520,
            "time": 273.646922,
            "velocity": 0.4330708661417323
          },
          {
            "duration": 0.08235290000004625,
            "durationTicks": 14,
            "midi": 40,
            "name": "E2",
            "ticks": 46530,
            "time": 273.7057455,
            "velocity": 0.4330708661417323
          },
          {
            "duration": 0.0823528999999894,
            "durationTicks": 14,
            "midi": 40,
            "name": "E2",
            "ticks": 46650,
            "time": 274.4116275,
            "velocity": 0.4330708661417323
          },
          {
            "duration": 0.08235290000004625,
            "durationTicks": 14,
            "midi": 40,
            "name": "E2",
            "ticks": 46660,
            "time": 274.47045099999997,
            "velocity": 0.4330708661417323
          },
          {
            "duration": 0.0823528999999894,
            "durationTicks": 14,
            "midi": 40,
            "name": "E2",
            "ticks": 46680,
            "time": 274.588098,
            "velocity": 0.4330708661417323
          },
          {
            "duration": 0.0823528999999894,
            "durationTicks": 14,
            "midi": 40,
            "name": "E2",
            "ticks": 46710,
            "time": 274.7645685,
            "velocity": 0.8267716535433071
          },
          {
            "duration": 0.0823528999999894,
            "durationTicks": 14,
            "midi": 43,
            "name": "G2",
            "ticks": 46920,
            "time": 275.999862,
            "velocity": 0.8267716535433071
          },
          {
            "duration": 0.0823528999999894,
            "durationTicks": 14,
            "midi": 40,
            "name": "E2",
            "ticks": 47130,
            "time": 277.2351555,
            "velocity": 0.4330708661417323
          },
          {
            "duration": 0.0823528999999894,
            "durationTicks": 14,
            "midi": 40,
            "name": "E2",
            "ticks": 47140,
            "time": 277.293979,
            "velocity": 0.4330708661417323
          },
          {
            "duration": 0.0823528999999894,
            "durationTicks": 14,
            "midi": 40,
            "name": "E2",
            "ticks": 47160,
            "time": 277.411626,
            "velocity": 0.4330708661417323
          },
          {
            "duration": 0.0823528999999894,
            "durationTicks": 14,
            "midi": 40,
            "name": "E2",
            "ticks": 47190,
            "time": 277.5880965,
            "velocity": 0.8267716535433071
          },
          {
            "duration": 0.0823528999999894,
            "durationTicks": 14,
            "midi": 43,
            "name": "G2",
            "ticks": 47400,
            "time": 278.82339,
            "velocity": 0.8267716535433071
          },
          {
            "duration": 0.0823528999999894,
            "durationTicks": 14,
            "midi": 40,
            "name": "E2",
            "ticks": 47610,
            "time": 280.05868350000003,
            "velocity": 0.4330708661417323
          },
          {
            "duration": 0.0823528999999894,
            "durationTicks": 14,
            "midi": 40,
            "name": "E2",
            "ticks": 47620,
            "time": 280.117507,
            "velocity": 0.4330708661417323
          },
          {
            "duration": 0.0823528999999894,
            "durationTicks": 14,
            "midi": 40,
            "name": "E2",
            "ticks": 47640,
            "time": 280.235154,
            "velocity": 0.4330708661417323
          },
          {
            "duration": 0.0823528999999894,
            "durationTicks": 14,
            "midi": 40,
            "name": "E2",
            "ticks": 47670,
            "time": 280.4116245,
            "velocity": 0.8267716535433071
          },
          {
            "duration": 0.0823528999999894,
            "durationTicks": 14,
            "midi": 43,
            "name": "G2",
            "ticks": 47880,
            "time": 281.646918,
            "velocity": 0.8267716535433071
          },
          {
            "duration": 0.08235290000004625,
            "durationTicks": 14,
            "midi": 40,
            "name": "E2",
            "ticks": 48090,
            "time": 282.8822115,
            "velocity": 0.4330708661417323
          },
          {
            "duration": 0.0823528999999894,
            "durationTicks": 14,
            "midi": 40,
            "name": "E2",
            "ticks": 48100,
            "time": 282.941035,
            "velocity": 0.4330708661417323
          },
          {
            "duration": 0.08235290000004625,
            "durationTicks": 14,
            "midi": 40,
            "name": "E2",
            "ticks": 48120,
            "time": 283.058682,
            "velocity": 0.4330708661417323
          },
          {
            "duration": 0.0823528999999894,
            "durationTicks": 14,
            "midi": 40,
            "name": "E2",
            "ticks": 48150,
            "time": 283.2351525,
            "velocity": 0.8267716535433071
          },
          {
            "duration": 0.08235290000004625,
            "durationTicks": 14,
            "midi": 43,
            "name": "G2",
            "ticks": 48360,
            "time": 284.470446,
            "velocity": 0.8267716535433071
          },
          {
            "duration": 0.0823528999999894,
            "durationTicks": 14,
            "midi": 40,
            "name": "E2",
            "ticks": 48570,
            "time": 285.7057395,
            "velocity": 0.4330708661417323
          },
          {
            "duration": 0.0823528999999894,
            "durationTicks": 14,
            "midi": 40,
            "name": "E2",
            "ticks": 48580,
            "time": 285.764563,
            "velocity": 0.4330708661417323
          },
          {
            "duration": 0.08235290000004625,
            "durationTicks": 14,
            "midi": 40,
            "name": "E2",
            "ticks": 48600,
            "time": 285.88221,
            "velocity": 0.4330708661417323
          },
          {
            "duration": 0.08235290000004625,
            "durationTicks": 14,
            "midi": 40,
            "name": "E2",
            "ticks": 48630,
            "time": 286.0586805,
            "velocity": 0.8267716535433071
          },
          {
            "duration": 0.0823528999999894,
            "durationTicks": 14,
            "midi": 43,
            "name": "G2",
            "ticks": 48840,
            "time": 287.293974,
            "velocity": 0.8267716535433071
          },
          {
            "duration": 0.0823528999999894,
            "durationTicks": 14,
            "midi": 40,
            "name": "E2",
            "ticks": 49050,
            "time": 288.5292675,
            "velocity": 0.4330708661417323
          },
          {
            "duration": 0.08235290000004625,
            "durationTicks": 14,
            "midi": 40,
            "name": "E2",
            "ticks": 49060,
            "time": 288.58809099999996,
            "velocity": 0.4330708661417323
          },
          {
            "duration": 0.0823528999999894,
            "durationTicks": 14,
            "midi": 40,
            "name": "E2",
            "ticks": 49080,
            "time": 288.705738,
            "velocity": 0.4330708661417323
          },
          {
            "duration": 0.08235290000004625,
            "durationTicks": 14,
            "midi": 40,
            "name": "E2",
            "ticks": 49110,
            "time": 288.8822085,
            "velocity": 0.8267716535433071
          },
          {
            "duration": 0.0823528999999894,
            "durationTicks": 14,
            "midi": 43,
            "name": "G2",
            "ticks": 49320,
            "time": 290.117502,
            "velocity": 0.8267716535433071
          },
          {
            "duration": 0.0823528999999894,
            "durationTicks": 14,
            "midi": 40,
            "name": "E2",
            "ticks": 49530,
            "time": 291.3527955,
            "velocity": 0.4330708661417323
          },
          {
            "duration": 0.08235290000004625,
            "durationTicks": 14,
            "midi": 40,
            "name": "E2",
            "ticks": 49540,
            "time": 291.411619,
            "velocity": 0.4330708661417323
          },
          {
            "duration": 0.0823528999999894,
            "durationTicks": 14,
            "midi": 40,
            "name": "E2",
            "ticks": 49560,
            "time": 291.529266,
            "velocity": 0.4330708661417323
          },
          {
            "duration": 0.0823528999999894,
            "durationTicks": 14,
            "midi": 40,
            "name": "E2",
            "ticks": 49590,
            "time": 291.7057365,
            "velocity": 0.8267716535433071
          },
          {
            "duration": 0.0823528999999894,
            "durationTicks": 14,
            "midi": 43,
            "name": "G2",
            "ticks": 49800,
            "time": 292.94103,
            "velocity": 0.8267716535433071
          },
          {
            "duration": 0.0823528999999894,
            "durationTicks": 14,
            "midi": 40,
            "name": "E2",
            "ticks": 50010,
            "time": 294.1763235,
            "velocity": 0.4330708661417323
          },
          {
            "duration": 0.0823528999999894,
            "durationTicks": 14,
            "midi": 40,
            "name": "E2",
            "ticks": 50020,
            "time": 294.235147,
            "velocity": 0.4330708661417323
          },
          {
            "duration": 0.0823528999999894,
            "durationTicks": 14,
            "midi": 40,
            "name": "E2",
            "ticks": 50040,
            "time": 294.352794,
            "velocity": 0.4330708661417323
          },
          {
            "duration": 0.0823528999999894,
            "durationTicks": 14,
            "midi": 40,
            "name": "E2",
            "ticks": 50070,
            "time": 294.5292645,
            "velocity": 0.8267716535433071
          },
          {
            "duration": 0.0823528999999894,
            "durationTicks": 14,
            "midi": 40,
            "name": "E2",
            "ticks": 50135,
            "time": 294.91161725,
            "velocity": 0.8267716535433071
          },
          {
            "duration": 0.0823528999999894,
            "durationTicks": 14,
            "midi": 40,
            "name": "E2",
            "ticks": 50145,
            "time": 294.97044075,
            "velocity": 0.8267716535433071
          },
          {
            "duration": 0.08235290000004625,
            "durationTicks": 14,
            "midi": 40,
            "name": "E2",
            "ticks": 50160,
            "time": 295.058676,
            "velocity": 0.8267716535433071
          },
          {
            "duration": 0.08235290000004625,
            "durationTicks": 14,
            "midi": 47,
            "name": "B2",
            "ticks": 50190,
            "time": 295.2351465,
            "velocity": 0.8267716535433071
          },
          {
            "duration": 0.08235290000004625,
            "durationTicks": 14,
            "midi": 45,
            "name": "A2",
            "ticks": 50220,
            "time": 295.411617,
            "velocity": 0.8267716535433071
          },
          {
            "duration": 0.0823528999999894,
            "durationTicks": 14,
            "midi": 40,
            "name": "E2",
            "ticks": 50250,
            "time": 295.58808750000003,
            "velocity": 0.4330708661417323
          },
          {
            "duration": 0.0823528999999894,
            "durationTicks": 14,
            "midi": 40,
            "name": "E2",
            "ticks": 50260,
            "time": 295.646911,
            "velocity": 0.4330708661417323
          },
          {
            "duration": 0.0823528999999894,
            "durationTicks": 14,
            "midi": 40,
            "name": "E2",
            "ticks": 50340,
            "time": 296.117499,
            "velocity": 0.4330708661417323
          },
          {
            "duration": 0.08235290000004625,
            "durationTicks": 14,
            "midi": 40,
            "name": "E2",
            "ticks": 50350,
            "time": 296.17632249999997,
            "velocity": 0.4330708661417323
          },
          {
            "duration": 0.0823528999999894,
            "durationTicks": 14,
            "midi": 40,
            "name": "E2",
            "ticks": 50360,
            "time": 296.23514600000004,
            "velocity": 0.4330708661417323
          },
          {
            "duration": 0.0823528999999894,
            "durationTicks": 14,
            "midi": 40,
            "name": "E2",
            "ticks": 50370,
            "time": 296.2939695,
            "velocity": 0.4330708661417323
          },
          {
            "duration": 0.08235290000004625,
            "durationTicks": 14,
            "midi": 40,
            "name": "E2",
            "ticks": 50490,
            "time": 296.9998515,
            "velocity": 0.4330708661417323
          },
          {
            "duration": 0.0823528999999894,
            "durationTicks": 14,
            "midi": 40,
            "name": "E2",
            "ticks": 50500,
            "time": 297.058675,
            "velocity": 0.4330708661417323
          },
          {
            "duration": 0.0823528999999894,
            "durationTicks": 14,
            "midi": 40,
            "name": "E2",
            "ticks": 50520,
            "time": 297.176322,
            "velocity": 0.4330708661417323
          },
          {
            "duration": 0.0823528999999894,
            "durationTicks": 14,
            "midi": 40,
            "name": "E2",
            "ticks": 50550,
            "time": 297.3527925,
            "velocity": 0.8267716535433071
          },
          {
            "duration": 0.08235290000004625,
            "durationTicks": 14,
            "midi": 43,
            "name": "G2",
            "ticks": 50760,
            "time": 298.588086,
            "velocity": 0.8267716535433071
          },
          {
            "duration": 0.08235290000004625,
            "durationTicks": 14,
            "midi": 40,
            "name": "E2",
            "ticks": 50970,
            "time": 299.8233795,
            "velocity": 0.4330708661417323
          },
          {
            "duration": 0.0823528999999894,
            "durationTicks": 14,
            "midi": 40,
            "name": "E2",
            "ticks": 50980,
            "time": 299.882203,
            "velocity": 0.4330708661417323
          },
          {
            "duration": 0.08235290000004625,
            "durationTicks": 14,
            "midi": 40,
            "name": "E2",
            "ticks": 51000,
            "time": 299.99985,
            "velocity": 0.4330708661417323
          },
          {
            "duration": 0.0823528999999894,
            "durationTicks": 14,
            "midi": 40,
            "name": "E2",
            "ticks": 51030,
            "time": 300.17632050000003,
            "velocity": 0.8267716535433071
          },
          {
            "duration": 0.08235290000004625,
            "durationTicks": 14,
            "midi": 43,
            "name": "G2",
            "ticks": 51240,
            "time": 301.411614,
            "velocity": 0.8267716535433071
          },
          {
            "duration": 0.0823528999999894,
            "durationTicks": 14,
            "midi": 40,
            "name": "E2",
            "ticks": 51450,
            "time": 302.6469075,
            "velocity": 0.4330708661417323
          },
          {
            "duration": 0.0823528999999894,
            "durationTicks": 14,
            "midi": 40,
            "name": "E2",
            "ticks": 51460,
            "time": 302.705731,
            "velocity": 0.4330708661417323
          },
          {
            "duration": 0.08235290000004625,
            "durationTicks": 14,
            "midi": 40,
            "name": "E2",
            "ticks": 51480,
            "time": 302.823378,
            "velocity": 0.4330708661417323
          },
          {
            "duration": 0.08235290000004625,
            "durationTicks": 14,
            "midi": 40,
            "name": "E2",
            "ticks": 51510,
            "time": 302.9998485,
            "velocity": 0.8267716535433071
          },
          {
            "duration": 0.0823528999999894,
            "durationTicks": 14,
            "midi": 43,
            "name": "G2",
            "ticks": 51720,
            "time": 304.235142,
            "velocity": 0.8267716535433071
          },
          {
            "duration": 0.0823528999999894,
            "durationTicks": 14,
            "midi": 40,
            "name": "E2",
            "ticks": 51930,
            "time": 305.4704355,
            "velocity": 0.4330708661417323
          },
          {
            "duration": 0.08235290000004625,
            "durationTicks": 14,
            "midi": 40,
            "name": "E2",
            "ticks": 51940,
            "time": 305.52925899999997,
            "velocity": 0.4330708661417323
          },
          {
            "duration": 0.0823528999999894,
            "durationTicks": 14,
            "midi": 40,
            "name": "E2",
            "ticks": 51960,
            "time": 305.646906,
            "velocity": 0.4330708661417323
          },
          {
            "duration": 0.0823528999999894,
            "durationTicks": 14,
            "midi": 40,
            "name": "E2",
            "ticks": 51990,
            "time": 305.8233765,
            "velocity": 0.8267716535433071
          },
          {
            "duration": 0.0823528999999894,
            "durationTicks": 14,
            "midi": 43,
            "name": "G2",
            "ticks": 52200,
            "time": 307.05867,
            "velocity": 0.8267716535433071
          },
          {
            "duration": 0.0823528999999894,
            "durationTicks": 14,
            "midi": 40,
            "name": "E2",
            "ticks": 52410,
            "time": 308.2939635,
            "velocity": 0.4330708661417323
          },
          {
            "duration": 0.08235290000004625,
            "durationTicks": 14,
            "midi": 40,
            "name": "E2",
            "ticks": 52420,
            "time": 308.352787,
            "velocity": 0.4330708661417323
          },
          {
            "duration": 0.0823528999999894,
            "durationTicks": 14,
            "midi": 40,
            "name": "E2",
            "ticks": 52440,
            "time": 308.470434,
            "velocity": 0.4330708661417323
          },
          {
            "duration": 0.0823528999999894,
            "durationTicks": 14,
            "midi": 40,
            "name": "E2",
            "ticks": 52470,
            "time": 308.6469045,
            "velocity": 0.8267716535433071
          },
          {
            "duration": 0.0823528999999894,
            "durationTicks": 14,
            "midi": 43,
            "name": "G2",
            "ticks": 52680,
            "time": 309.882198,
            "velocity": 0.8267716535433071
          },
          {
            "duration": 0.0823528999999894,
            "durationTicks": 14,
            "midi": 40,
            "name": "E2",
            "ticks": 52890,
            "time": 311.1174915,
            "velocity": 0.4330708661417323
          },
          {
            "duration": 0.0823528999999894,
            "durationTicks": 14,
            "midi": 40,
            "name": "E2",
            "ticks": 52900,
            "time": 311.176315,
            "velocity": 0.4330708661417323
          },
          {
            "duration": 0.0823528999999894,
            "durationTicks": 14,
            "midi": 40,
            "name": "E2",
            "ticks": 52920,
            "time": 311.293962,
            "velocity": 0.4330708661417323
          },
          {
            "duration": 0.0823528999999894,
            "durationTicks": 14,
            "midi": 40,
            "name": "E2",
            "ticks": 52950,
            "time": 311.4704325,
            "velocity": 0.8267716535433071
          },
          {
            "duration": 0.0823528999999894,
            "durationTicks": 14,
            "midi": 43,
            "name": "G2",
            "ticks": 53160,
            "time": 312.705726,
            "velocity": 0.8267716535433071
          },
          {
            "duration": 0.08235290000004625,
            "durationTicks": 14,
            "midi": 40,
            "name": "E2",
            "ticks": 53370,
            "time": 313.9410195,
            "velocity": 0.4330708661417323
          },
          {
            "duration": 0.0823528999999894,
            "durationTicks": 14,
            "midi": 40,
            "name": "E2",
            "ticks": 53380,
            "time": 313.999843,
            "velocity": 0.4330708661417323
          },
          {
            "duration": 0.0823528999999894,
            "durationTicks": 14,
            "midi": 40,
            "name": "E2",
            "ticks": 53400,
            "time": 314.11749000000003,
            "velocity": 0.4330708661417323
          },
          {
            "duration": 0.0823528999999894,
            "durationTicks": 14,
            "midi": 40,
            "name": "E2",
            "ticks": 53430,
            "time": 314.2939605,
            "velocity": 0.8267716535433071
          },
          {
            "duration": 0.08235290000004625,
            "durationTicks": 14,
            "midi": 43,
            "name": "G2",
            "ticks": 53640,
            "time": 315.529254,
            "velocity": 0.8267716535433071
          },
          {
            "duration": 0.0823528999999894,
            "durationTicks": 14,
            "midi": 40,
            "name": "E2",
            "ticks": 53850,
            "time": 316.7645475,
            "velocity": 0.4330708661417323
          },
          {
            "duration": 0.0823528999999894,
            "durationTicks": 14,
            "midi": 40,
            "name": "E2",
            "ticks": 53860,
            "time": 316.823371,
            "velocity": 0.4330708661417323
          },
          {
            "duration": 0.08235290000004625,
            "durationTicks": 14,
            "midi": 40,
            "name": "E2",
            "ticks": 53880,
            "time": 316.941018,
            "velocity": 0.4330708661417323
          },
          {
            "duration": 0.08235290000004625,
            "durationTicks": 14,
            "midi": 40,
            "name": "E2",
            "ticks": 53910,
            "time": 317.1174885,
            "velocity": 0.8267716535433071
          },
          {
            "duration": 0.0823528999999894,
            "durationTicks": 14,
            "midi": 40,
            "name": "E2",
            "ticks": 53975,
            "time": 317.49984125000003,
            "velocity": 0.8267716535433071
          },
          {
            "duration": 0.08235290000004625,
            "durationTicks": 14,
            "midi": 40,
            "name": "E2",
            "ticks": 53985,
            "time": 317.55866475,
            "velocity": 0.8267716535433071
          },
          {
            "duration": 0.0823528999999894,
            "durationTicks": 14,
            "midi": 40,
            "name": "E2",
            "ticks": 54000,
            "time": 317.6469,
            "velocity": 0.8267716535433071
          },
          {
            "duration": 0.0823528999999894,
            "durationTicks": 14,
            "midi": 47,
            "name": "B2",
            "ticks": 54030,
            "time": 317.8233705,
            "velocity": 0.8267716535433071
          },
          {
            "duration": 0.0823528999999894,
            "durationTicks": 14,
            "midi": 45,
            "name": "A2",
            "ticks": 54060,
            "time": 317.999841,
            "velocity": 0.8267716535433071
          },
          {
            "duration": 0.0823528999999894,
            "durationTicks": 14,
            "midi": 40,
            "name": "E2",
            "ticks": 54090,
            "time": 318.1763115,
            "velocity": 0.4330708661417323
          },
          {
            "duration": 0.0823528999999894,
            "durationTicks": 14,
            "midi": 40,
            "name": "E2",
            "ticks": 54100,
            "time": 318.235135,
            "velocity": 0.4330708661417323
          },
          {
            "duration": 0.08235290000004625,
            "durationTicks": 14,
            "midi": 40,
            "name": "E2",
            "ticks": 54180,
            "time": 318.705723,
            "velocity": 0.4330708661417323
          },
          {
            "duration": 0.0823528999999894,
            "durationTicks": 14,
            "midi": 40,
            "name": "E2",
            "ticks": 54190,
            "time": 318.7645465,
            "velocity": 0.4330708661417323
          },
          {
            "duration": 0.0823528999999894,
            "durationTicks": 14,
            "midi": 40,
            "name": "E2",
            "ticks": 54200,
            "time": 318.82337,
            "velocity": 0.4330708661417323
          },
          {
            "duration": 0.0823528999999894,
            "durationTicks": 14,
            "midi": 40,
            "name": "E2",
            "ticks": 54210,
            "time": 318.8821935,
            "velocity": 0.4330708661417323
          },
          {
            "duration": 0.1117646499999978,
            "durationTicks": 19,
            "midi": 40,
            "name": "E2",
            "ticks": 54595,
            "time": 321.14689825,
            "velocity": 0.4330708661417323
          },
          {
            "duration": 0.1117646499999978,
            "durationTicks": 19,
            "midi": 40,
            "name": "E2",
            "ticks": 54600,
            "time": 321.17631,
            "velocity": 0.8267716535433071
          },
          {
            "duration": 0.0823528999999894,
            "durationTicks": 14,
            "midi": 45,
            "name": "A2",
            "ticks": 54630,
            "time": 321.3527805,
            "velocity": 0.8267716535433071
          },
          {
            "duration": 0.1411764000000062,
            "durationTicks": 24,
            "midi": 40,
            "name": "E2",
            "ticks": 54810,
            "time": 322.4116035,
            "velocity": 0.4330708661417323
          },
          {
            "duration": 0.14117640000006304,
            "durationTicks": 24,
            "midi": 40,
            "name": "E2",
            "ticks": 54820,
            "time": 322.470427,
            "velocity": 0.4330708661417323
          },
          {
            "duration": 0.1411764000000062,
            "durationTicks": 24,
            "midi": 40,
            "name": "E2",
            "ticks": 54840,
            "time": 322.588074,
            "velocity": 0.4330708661417323
          },
          {
            "duration": 0.0823528999999894,
            "durationTicks": 14,
            "midi": 40,
            "name": "E2",
            "ticks": 54870,
            "time": 322.7645445,
            "velocity": 0.8267716535433071
          },
          {
            "duration": 0.0823528999999894,
            "durationTicks": 14,
            "midi": 43,
            "name": "G2",
            "ticks": 55080,
            "time": 323.999838,
            "velocity": 0.8267716535433071
          },
          {
            "duration": 0.08235290000004625,
            "durationTicks": 14,
            "midi": 40,
            "name": "E2",
            "ticks": 55170,
            "time": 324.5292495,
            "velocity": 0.4330708661417323
          },
          {
            "duration": 0.0823528999999894,
            "durationTicks": 14,
            "midi": 40,
            "name": "E2",
            "ticks": 55180,
            "time": 324.588073,
            "velocity": 0.4330708661417323
          },
          {
            "duration": 0.1117646499999978,
            "durationTicks": 19,
            "midi": 47,
            "name": "B2",
            "ticks": 55555,
            "time": 326.79395425,
            "velocity": 0.4330708661417323
          },
          {
            "duration": 0.1117646499999978,
            "durationTicks": 19,
            "midi": 47,
            "name": "B2",
            "ticks": 55560,
            "time": 326.823366,
            "velocity": 0.8267716535433071
          },
          {
            "duration": 0.0823528999999894,
            "durationTicks": 14,
            "midi": 40,
            "name": "E2",
            "ticks": 55590,
            "time": 326.9998365,
            "velocity": 0.8267716535433071
          },
          {
            "duration": 0.08235290000004625,
            "durationTicks": 14,
            "midi": 40,
            "name": "E2",
            "ticks": 55770,
            "time": 328.0586595,
            "velocity": 0.4330708661417323
          },
          {
            "duration": 0.0823528999999894,
            "durationTicks": 14,
            "midi": 40,
            "name": "E2",
            "ticks": 55780,
            "time": 328.117483,
            "velocity": 0.4330708661417323
          },
          {
            "duration": 0.0823528999999894,
            "durationTicks": 14,
            "midi": 40,
            "name": "E2",
            "ticks": 55800,
            "time": 328.23513,
            "velocity": 0.4330708661417323
          },
          {
            "duration": 0.0823528999999894,
            "durationTicks": 14,
            "midi": 40,
            "name": "E2",
            "ticks": 55830,
            "time": 328.4116005,
            "velocity": 0.8267716535433071
          },
          {
            "duration": 0.0823528999999894,
            "durationTicks": 14,
            "midi": 43,
            "name": "G2",
            "ticks": 56040,
            "time": 329.64689400000003,
            "velocity": 0.8267716535433071
          },
          {
            "duration": 0.08235290000004625,
            "durationTicks": 14,
            "midi": 40,
            "name": "E2",
            "ticks": 56250,
            "time": 330.8821875,
            "velocity": 0.4330708661417323
          },
          {
            "duration": 0.0823528999999894,
            "durationTicks": 14,
            "midi": 40,
            "name": "E2",
            "ticks": 56260,
            "time": 330.941011,
            "velocity": 0.4330708661417323
          },
          {
            "duration": 0.08235290000004625,
            "durationTicks": 14,
            "midi": 40,
            "name": "E2",
            "ticks": 56280,
            "time": 331.058658,
            "velocity": 0.4330708661417323
          },
          {
            "duration": 0.0823528999999894,
            "durationTicks": 14,
            "midi": 40,
            "name": "E2",
            "ticks": 56310,
            "time": 331.23512850000003,
            "velocity": 0.8267716535433071
          },
          {
            "duration": 0.08235290000004625,
            "durationTicks": 14,
            "midi": 43,
            "name": "G2",
            "ticks": 56520,
            "time": 332.470422,
            "velocity": 0.8267716535433071
          },
          {
            "duration": 0.0823528999999894,
            "durationTicks": 14,
            "midi": 40,
            "name": "E2",
            "ticks": 56730,
            "time": 333.7057155,
            "velocity": 0.4330708661417323
          },
          {
            "duration": 0.0823528999999894,
            "durationTicks": 14,
            "midi": 40,
            "name": "E2",
            "ticks": 56740,
            "time": 333.764539,
            "velocity": 0.4330708661417323
          },
          {
            "duration": 0.08235290000004625,
            "durationTicks": 14,
            "midi": 40,
            "name": "E2",
            "ticks": 56760,
            "time": 333.882186,
            "velocity": 0.4330708661417323
          },
          {
            "duration": 0.08235290000004625,
            "durationTicks": 14,
            "midi": 40,
            "name": "E2",
            "ticks": 56790,
            "time": 334.0586565,
            "velocity": 0.8267716535433071
          },
          {
            "duration": 0.0823528999999894,
            "durationTicks": 14,
            "midi": 43,
            "name": "G2",
            "ticks": 57000,
            "time": 335.29395,
            "velocity": 0.8267716535433071
          },
          {
            "duration": 0.0823528999999894,
            "durationTicks": 14,
            "midi": 40,
            "name": "E2",
            "ticks": 57210,
            "time": 336.5292435,
            "velocity": 0.4330708661417323
          },
          {
            "duration": 0.08235290000004625,
            "durationTicks": 14,
            "midi": 40,
            "name": "E2",
            "ticks": 57220,
            "time": 336.58806699999997,
            "velocity": 0.4330708661417323
          },
          {
            "duration": 0.0823528999999894,
            "durationTicks": 14,
            "midi": 40,
            "name": "E2",
            "ticks": 57240,
            "time": 336.705714,
            "velocity": 0.4330708661417323
          },
          {
            "duration": 0.0823528999999894,
            "durationTicks": 14,
            "midi": 40,
            "name": "E2",
            "ticks": 57270,
            "time": 336.8821845,
            "velocity": 0.8267716535433071
          },
          {
            "duration": 0.0823528999999894,
            "durationTicks": 14,
            "midi": 43,
            "name": "G2",
            "ticks": 57480,
            "time": 338.117478,
            "velocity": 0.8267716535433071
          },
          {
            "duration": 0.0823528999999894,
            "durationTicks": 14,
            "midi": 50,
            "name": "D3",
            "ticks": 58590,
            "time": 344.6468865,
            "velocity": 0.8267716535433071
          },
          {
            "duration": 0.0823528999999894,
            "durationTicks": 14,
            "midi": 50,
            "name": "D3",
            "ticks": 58600,
            "time": 344.70571,
            "velocity": 0.8267716535433071
          },
          {
            "duration": 0.08235290000004625,
            "durationTicks": 14,
            "midi": 50,
            "name": "D3",
            "ticks": 58620,
            "time": 344.823357,
            "velocity": 0.8267716535433071
          },
          {
            "duration": 0.08235290000004625,
            "durationTicks": 14,
            "midi": 48,
            "name": "C3",
            "ticks": 58650,
            "time": 344.9998275,
            "velocity": 0.8267716535433071
          },
          {
            "duration": 0.0823528999999894,
            "durationTicks": 14,
            "midi": 48,
            "name": "C3",
            "ticks": 58660,
            "time": 345.058651,
            "velocity": 0.8267716535433071
          },
          {
            "duration": 0.0823528999999894,
            "durationTicks": 14,
            "midi": 48,
            "name": "C3",
            "ticks": 58680,
            "time": 345.17629800000003,
            "velocity": 0.8267716535433071
          },
          {
            "duration": 0.0823528999999894,
            "durationTicks": 14,
            "midi": 47,
            "name": "B2",
            "ticks": 58710,
            "time": 345.3527685,
            "velocity": 0.8267716535433071
          },
          {
            "duration": 0.0823528999999894,
            "durationTicks": 14,
            "midi": 47,
            "name": "B2",
            "ticks": 58720,
            "time": 345.411592,
            "velocity": 0.8267716535433071
          },
          {
            "duration": 0.0823528999999894,
            "durationTicks": 14,
            "midi": 47,
            "name": "B2",
            "ticks": 58740,
            "time": 345.529239,
            "velocity": 0.8267716535433071
          },
          {
            "duration": 0.0823528999999894,
            "durationTicks": 14,
            "midi": 45,
            "name": "A2",
            "ticks": 59280,
            "time": 348.705708,
            "velocity": 0.8267716535433071
          },
          {
            "duration": 0.08235290000004625,
            "durationTicks": 14,
            "midi": 43,
            "name": "G2",
            "ticks": 59290,
            "time": 348.7645315,
            "velocity": 0.8267716535433071
          }
        ],
        "endOfTrackTicks": 59304
      },
      {
        "channel": 9,
        "controlChanges": {
          "6": [
            {
              "number": 6,
              "ticks": 143,
              "time": 0.84117605,
              "value": 1
            },
            {
              "number": 6,
              "ticks": 145,
              "time": 0.8529407499999999,
              "value": 1
            }
          ],
          "7": [
            {
              "number": 7,
              "ticks": 0,
              "time": 0,
              "value": 0.8267716535433071
            }
          ],
          "10": [
            {
              "number": 10,
              "ticks": 0,
              "time": 0,
              "value": 0.5039370078740157
            }
          ],
          "91": [
            {
              "number": 91,
              "ticks": 34,
              "time": 0.1999999,
              "value": 0.3779527559055118
            }
          ],
          "93": [
            {
              "number": 93,
              "ticks": 35,
              "time": 0.20588225000000002,
              "value": 0.09448818897637795
            }
          ],
          "99": [
            {
              "number": 99,
              "ticks": 142,
              "time": 0.8352937,
              "value": 0.2283464566929134
            },
            {
              "number": 99,
              "ticks": 144,
              "time": 0.8470584,
              "value": 0.23622047244094488
            }
          ],
          "100": [
            {
              "number": 100,
              "ticks": 202,
              "time": 1.1882347,
              "value": 1
            }
          ],
          "101": [
            {
              "number": 101,
              "ticks": 201,
              "time": 1.18235235,
              "value": 1
            }
          ],
          "121": [
            {
              "number": 121,
              "ticks": 30,
              "time": 0.1764705,
              "value": 0
            }
          ]
        },
        "pitchBends": [],
        "instrument": {
          "family": "drums",
          "number": 32,
          "name": "jazz kit"
        },
        "name": "Kick drums",
        "notes": [
          {
            "duration": 0.1764705000000002,
            "durationTicks": 30,
            "midi": 36,
            "name": "C2",
            "ticks": 480,
            "time": 2.823528,
            "velocity": 0.7086614173228346
          },
          {
            "duration": 0.17647050000000064,
            "durationTicks": 30,
            "midi": 36,
            "name": "C2",
            "ticks": 690,
            "time": 4.0588215,
            "velocity": 0.7086614173228346
          },
          {
            "duration": 0.17647049999999975,
            "durationTicks": 30,
            "midi": 36,
            "name": "C2",
            "ticks": 720,
            "time": 4.235292,
            "velocity": 0.7086614173228346
          },
          {
            "duration": 0.17647049999999975,
            "durationTicks": 30,
            "midi": 36,
            "name": "C2",
            "ticks": 960,
            "time": 5.647056,
            "velocity": 0.7086614173228346
          },
          {
            "duration": 0.17647049999999975,
            "durationTicks": 30,
            "midi": 36,
            "name": "C2",
            "ticks": 1050,
            "time": 6.1764675,
            "velocity": 0.7086614173228346
          },
          {
            "duration": 0.17647049999999975,
            "durationTicks": 30,
            "midi": 36,
            "name": "C2",
            "ticks": 1140,
            "time": 6.705879,
            "velocity": 0.7086614173228346
          },
          {
            "duration": 0.17647050000000064,
            "durationTicks": 30,
            "midi": 36,
            "name": "C2",
            "ticks": 1200,
            "time": 7.05882,
            "velocity": 0.7086614173228346
          },
          {
            "duration": 0.17647049999999886,
            "durationTicks": 30,
            "midi": 36,
            "name": "C2",
            "ticks": 1350,
            "time": 7.9411725,
            "velocity": 0.7086614173228346
          },
          {
            "duration": 0.17647049999999886,
            "durationTicks": 30,
            "midi": 36,
            "name": "C2",
            "ticks": 1440,
            "time": 8.470584,
            "velocity": 0.7086614173228346
          },
          {
            "duration": 0.17647050000000064,
            "durationTicks": 30,
            "midi": 36,
            "name": "C2",
            "ticks": 1650,
            "time": 9.7058775,
            "velocity": 0.7086614173228346
          },
          {
            "duration": 0.17647050000000064,
            "durationTicks": 30,
            "midi": 36,
            "name": "C2",
            "ticks": 1680,
            "time": 9.882348,
            "velocity": 0.7086614173228346
          },
          {
            "duration": 0.17647050000000064,
            "durationTicks": 30,
            "midi": 36,
            "name": "C2",
            "ticks": 1920,
            "time": 11.294112,
            "velocity": 0.7086614173228346
          },
          {
            "duration": 0.17647050000000064,
            "durationTicks": 30,
            "midi": 36,
            "name": "C2",
            "ticks": 2010,
            "time": 11.8235235,
            "velocity": 0.7086614173228346
          },
          {
            "duration": 0.17647049999999886,
            "durationTicks": 30,
            "midi": 36,
            "name": "C2",
            "ticks": 2100,
            "time": 12.352935,
            "velocity": 0.7086614173228346
          },
          {
            "duration": 0.17647050000000064,
            "durationTicks": 30,
            "midi": 36,
            "name": "C2",
            "ticks": 2160,
            "time": 12.705876,
            "velocity": 0.7086614173228346
          },
          {
            "duration": 0.17647050000000064,
            "durationTicks": 30,
            "midi": 36,
            "name": "C2",
            "ticks": 2310,
            "time": 13.5882285,
            "velocity": 0.7086614173228346
          },
          {
            "duration": 0.17647050000000064,
            "durationTicks": 30,
            "midi": 36,
            "name": "C2",
            "ticks": 2400,
            "time": 14.11764,
            "velocity": 0.7086614173228346
          },
          {
            "duration": 0.17647049999999886,
            "durationTicks": 30,
            "midi": 36,
            "name": "C2",
            "ticks": 2610,
            "time": 15.3529335,
            "velocity": 0.7086614173228346
          },
          {
            "duration": 0.17647050000000064,
            "durationTicks": 30,
            "midi": 36,
            "name": "C2",
            "ticks": 2640,
            "time": 15.529404,
            "velocity": 0.7086614173228346
          },
          {
            "duration": 0.17647050000000064,
            "durationTicks": 30,
            "midi": 36,
            "name": "C2",
            "ticks": 2880,
            "time": 16.941168,
            "velocity": 0.7086614173228346
          },
          {
            "duration": 0.17647050000000064,
            "durationTicks": 30,
            "midi": 36,
            "name": "C2",
            "ticks": 2970,
            "time": 17.4705795,
            "velocity": 0.7086614173228346
          },
          {
            "duration": 0.1764704999999971,
            "durationTicks": 30,
            "midi": 36,
            "name": "C2",
            "ticks": 3060,
            "time": 17.999991,
            "velocity": 0.7086614173228346
          },
          {
            "duration": 0.17647050000000064,
            "durationTicks": 30,
            "midi": 36,
            "name": "C2",
            "ticks": 3120,
            "time": 18.352932,
            "velocity": 0.7086614173228346
          },
          {
            "duration": 0.17647050000000064,
            "durationTicks": 30,
            "midi": 36,
            "name": "C2",
            "ticks": 3270,
            "time": 19.2352845,
            "velocity": 0.7086614173228346
          },
          {
            "duration": 0.17647050000000064,
            "durationTicks": 30,
            "midi": 36,
            "name": "C2",
            "ticks": 3360,
            "time": 19.764696,
            "velocity": 0.7086614173228346
          },
          {
            "duration": 0.1764704999999971,
            "durationTicks": 30,
            "midi": 36,
            "name": "C2",
            "ticks": 3570,
            "time": 20.9999895,
            "velocity": 0.7086614173228346
          },
          {
            "duration": 0.17647050000000064,
            "durationTicks": 30,
            "midi": 36,
            "name": "C2",
            "ticks": 3600,
            "time": 21.17646,
            "velocity": 0.7086614173228346
          },
          {
            "duration": 0.17647050000000064,
            "durationTicks": 30,
            "midi": 36,
            "name": "C2",
            "ticks": 3840,
            "time": 22.588224,
            "velocity": 0.7086614173228346
          },
          {
            "duration": 0.17647050000000064,
            "durationTicks": 30,
            "midi": 36,
            "name": "C2",
            "ticks": 3960,
            "time": 23.294106,
            "velocity": 0.7086614173228346
          },
          {
            "duration": 0.1764704999999971,
            "durationTicks": 30,
            "midi": 36,
            "name": "C2",
            "ticks": 4080,
            "time": 23.999988000000002,
            "velocity": 0.7086614173228346
          },
          {
            "duration": 0.1764704999999971,
            "durationTicks": 30,
            "midi": 36,
            "name": "C2",
            "ticks": 4230,
            "time": 24.8823405,
            "velocity": 0.7086614173228346
          },
          {
            "duration": 0.17647050000000064,
            "durationTicks": 30,
            "midi": 36,
            "name": "C2",
            "ticks": 4320,
            "time": 25.411752,
            "velocity": 0.7086614173228346
          },
          {
            "duration": 0.17647050000000064,
            "durationTicks": 30,
            "midi": 36,
            "name": "C2",
            "ticks": 4530,
            "time": 26.6470455,
            "velocity": 0.7086614173228346
          },
          {
            "duration": 0.17647050000000064,
            "durationTicks": 30,
            "midi": 36,
            "name": "C2",
            "ticks": 4560,
            "time": 26.823516,
            "velocity": 0.7086614173228346
          },
          {
            "duration": 0.17647050000000064,
            "durationTicks": 30,
            "midi": 36,
            "name": "C2",
            "ticks": 4800,
            "time": 28.23528,
            "velocity": 0.7086614173228346
          },
          {
            "duration": 0.17647050000000064,
            "durationTicks": 30,
            "midi": 36,
            "name": "C2",
            "ticks": 5010,
            "time": 29.4705735,
            "velocity": 0.7086614173228346
          },
          {
            "duration": 0.17647050000000064,
            "durationTicks": 30,
            "midi": 36,
            "name": "C2",
            "ticks": 5040,
            "time": 29.647044,
            "velocity": 0.7086614173228346
          },
          {
            "duration": 0.17647050000000064,
            "durationTicks": 30,
            "midi": 36,
            "name": "C2",
            "ticks": 5280,
            "time": 31.058808,
            "velocity": 0.7086614173228346
          },
          {
            "duration": 0.17647049999999354,
            "durationTicks": 30,
            "midi": 36,
            "name": "C2",
            "ticks": 5490,
            "time": 32.294101500000004,
            "velocity": 0.7086614173228346
          },
          {
            "duration": 0.17647050000000064,
            "durationTicks": 30,
            "midi": 36,
            "name": "C2",
            "ticks": 5520,
            "time": 32.470572,
            "velocity": 0.7086614173228346
          },
          {
            "duration": 0.17647050000000064,
            "durationTicks": 30,
            "midi": 36,
            "name": "C2",
            "ticks": 5760,
            "time": 33.882336,
            "velocity": 0.7086614173228346
          },
          {
            "duration": 0.17647050000000064,
            "durationTicks": 30,
            "midi": 36,
            "name": "C2",
            "ticks": 5970,
            "time": 35.1176295,
            "velocity": 0.7086614173228346
          },
          {
            "duration": 0.17647050000000064,
            "durationTicks": 30,
            "midi": 36,
            "name": "C2",
            "ticks": 6000,
            "time": 35.2941,
            "velocity": 0.7086614173228346
          },
          {
            "duration": 0.17647050000000064,
            "durationTicks": 30,
            "midi": 36,
            "name": "C2",
            "ticks": 6240,
            "time": 36.705864,
            "velocity": 0.7086614173228346
          },
          {
            "duration": 0.17647050000000064,
            "durationTicks": 30,
            "midi": 36,
            "name": "C2",
            "ticks": 6450,
            "time": 37.9411575,
            "velocity": 0.7086614173228346
          },
          {
            "duration": 0.17647050000000064,
            "durationTicks": 30,
            "midi": 36,
            "name": "C2",
            "ticks": 6480,
            "time": 38.117628,
            "velocity": 0.7086614173228346
          },
          {
            "duration": 0.17647050000000064,
            "durationTicks": 30,
            "midi": 36,
            "name": "C2",
            "ticks": 6720,
            "time": 39.529392,
            "velocity": 0.7086614173228346
          },
          {
            "duration": 0.17647050000000064,
            "durationTicks": 30,
            "midi": 36,
            "name": "C2",
            "ticks": 6930,
            "time": 40.7646855,
            "velocity": 0.7086614173228346
          },
          {
            "duration": 0.17647050000000064,
            "durationTicks": 30,
            "midi": 36,
            "name": "C2",
            "ticks": 6960,
            "time": 40.941156,
            "velocity": 0.7086614173228346
          },
          {
            "duration": 0.17647050000000064,
            "durationTicks": 30,
            "midi": 36,
            "name": "C2",
            "ticks": 7200,
            "time": 42.35292,
            "velocity": 0.7086614173228346
          },
          {
            "duration": 0.17647050000000064,
            "durationTicks": 30,
            "midi": 36,
            "name": "C2",
            "ticks": 7410,
            "time": 43.5882135,
            "velocity": 0.7086614173228346
          },
          {
            "duration": 0.17647050000000064,
            "durationTicks": 30,
            "midi": 36,
            "name": "C2",
            "ticks": 7440,
            "time": 43.764684,
            "velocity": 0.7086614173228346
          },
          {
            "duration": 0.17647050000000064,
            "durationTicks": 30,
            "midi": 36,
            "name": "C2",
            "ticks": 7680,
            "time": 45.176448,
            "velocity": 0.7086614173228346
          },
          {
            "duration": 0.17647050000000064,
            "durationTicks": 30,
            "midi": 36,
            "name": "C2",
            "ticks": 7920,
            "time": 46.588212,
            "velocity": 0.7086614173228346
          },
          {
            "duration": 0.17647050000000064,
            "durationTicks": 30,
            "midi": 36,
            "name": "C2",
            "ticks": 8070,
            "time": 47.4705645,
            "velocity": 0.7086614173228346
          },
          {
            "duration": 0.17647049999999354,
            "durationTicks": 30,
            "midi": 36,
            "name": "C2",
            "ticks": 8160,
            "time": 47.999976000000004,
            "velocity": 0.7086614173228346
          },
          {
            "duration": 0.17647050000000064,
            "durationTicks": 30,
            "midi": 36,
            "name": "C2",
            "ticks": 8370,
            "time": 49.2352695,
            "velocity": 0.7086614173228346
          },
          {
            "duration": 0.17647050000000064,
            "durationTicks": 30,
            "midi": 36,
            "name": "C2",
            "ticks": 8400,
            "time": 49.41174,
            "velocity": 0.7086614173228346
          },
          {
            "duration": 0.17647050000000064,
            "durationTicks": 30,
            "midi": 36,
            "name": "C2",
            "ticks": 8640,
            "time": 50.823504,
            "velocity": 0.7086614173228346
          },
          {
            "duration": 0.17647050000000064,
            "durationTicks": 30,
            "midi": 36,
            "name": "C2",
            "ticks": 8850,
            "time": 52.0587975,
            "velocity": 0.7086614173228346
          },
          {
            "duration": 0.17647050000000064,
            "durationTicks": 30,
            "midi": 36,
            "name": "C2",
            "ticks": 8880,
            "time": 52.235268,
            "velocity": 0.7086614173228346
          },
          {
            "duration": 0.17647050000000064,
            "durationTicks": 30,
            "midi": 36,
            "name": "C2",
            "ticks": 9120,
            "time": 53.647032,
            "velocity": 0.7086614173228346
          },
          {
            "duration": 0.17647050000000064,
            "durationTicks": 30,
            "midi": 36,
            "name": "C2",
            "ticks": 9330,
            "time": 54.8823255,
            "velocity": 0.7086614173228346
          },
          {
            "duration": 0.17647050000000064,
            "durationTicks": 30,
            "midi": 36,
            "name": "C2",
            "ticks": 9360,
            "time": 55.058796,
            "velocity": 0.7086614173228346
          },
          {
            "duration": 0.17647050000000064,
            "durationTicks": 30,
            "midi": 36,
            "name": "C2",
            "ticks": 9600,
            "time": 56.47056,
            "velocity": 0.7086614173228346
          },
          {
            "duration": 0.17647050000000064,
            "durationTicks": 30,
            "midi": 36,
            "name": "C2",
            "ticks": 9810,
            "time": 57.7058535,
            "velocity": 0.7086614173228346
          },
          {
            "duration": 0.17647049999999354,
            "durationTicks": 30,
            "midi": 36,
            "name": "C2",
            "ticks": 9840,
            "time": 57.882324000000004,
            "velocity": 0.7086614173228346
          },
          {
            "duration": 0.17647050000000064,
            "durationTicks": 30,
            "midi": 36,
            "name": "C2",
            "ticks": 10080,
            "time": 59.294088,
            "velocity": 0.7086614173228346
          },
          {
            "duration": 0.17647050000000064,
            "durationTicks": 30,
            "midi": 36,
            "name": "C2",
            "ticks": 10290,
            "time": 60.5293815,
            "velocity": 0.7086614173228346
          },
          {
            "duration": 0.17647050000000064,
            "durationTicks": 30,
            "midi": 36,
            "name": "C2",
            "ticks": 10320,
            "time": 60.705852,
            "velocity": 0.7086614173228346
          },
          {
            "duration": 0.17647050000000064,
            "durationTicks": 30,
            "midi": 36,
            "name": "C2",
            "ticks": 10560,
            "time": 62.117616,
            "velocity": 0.7086614173228346
          },
          {
            "duration": 0.17647050000000064,
            "durationTicks": 30,
            "midi": 36,
            "name": "C2",
            "ticks": 10770,
            "time": 63.3529095,
            "velocity": 0.7086614173228346
          },
          {
            "duration": 0.17647050000000064,
            "durationTicks": 30,
            "midi": 36,
            "name": "C2",
            "ticks": 10800,
            "time": 63.52938,
            "velocity": 0.7086614173228346
          },
          {
            "duration": 0.17647050000000775,
            "durationTicks": 30,
            "midi": 36,
            "name": "C2",
            "ticks": 11040,
            "time": 64.941144,
            "velocity": 0.7086614173228346
          },
          {
            "duration": 0.17647049999999354,
            "durationTicks": 30,
            "midi": 36,
            "name": "C2",
            "ticks": 11250,
            "time": 66.1764375,
            "velocity": 0.7086614173228346
          },
          {
            "duration": 0.17647050000000775,
            "durationTicks": 30,
            "midi": 36,
            "name": "C2",
            "ticks": 11280,
            "time": 66.352908,
            "velocity": 0.7086614173228346
          },
          {
            "duration": 0.17647049999999354,
            "durationTicks": 30,
            "midi": 36,
            "name": "C2",
            "ticks": 11520,
            "time": 67.764672,
            "velocity": 0.7086614173228346
          },
          {
            "duration": 0.17647050000000775,
            "durationTicks": 30,
            "midi": 36,
            "name": "C2",
            "ticks": 11760,
            "time": 69.176436,
            "velocity": 0.7086614173228346
          },
          {
            "duration": 0.17647049999999354,
            "durationTicks": 30,
            "midi": 36,
            "name": "C2",
            "ticks": 12000,
            "time": 70.5882,
            "velocity": 0.7086614173228346
          },
          {
            "duration": 0.17647049999999354,
            "durationTicks": 30,
            "midi": 36,
            "name": "C2",
            "ticks": 12240,
            "time": 71.999964,
            "velocity": 0.7086614173228346
          },
          {
            "duration": 0.17647050000000775,
            "durationTicks": 30,
            "midi": 36,
            "name": "C2",
            "ticks": 12480,
            "time": 73.411728,
            "velocity": 0.7086614173228346
          },
          {
            "duration": 0.17647049999999354,
            "durationTicks": 30,
            "midi": 36,
            "name": "C2",
            "ticks": 12720,
            "time": 74.823492,
            "velocity": 0.7086614173228346
          },
          {
            "duration": 0.17647049999999354,
            "durationTicks": 30,
            "midi": 36,
            "name": "C2",
            "ticks": 12960,
            "time": 76.235256,
            "velocity": 0.7086614173228346
          },
          {
            "duration": 0.17647050000000775,
            "durationTicks": 30,
            "midi": 36,
            "name": "C2",
            "ticks": 13200,
            "time": 77.64702,
            "velocity": 0.7086614173228346
          },
          {
            "duration": 0.17647049999999354,
            "durationTicks": 30,
            "midi": 36,
            "name": "C2",
            "ticks": 13440,
            "time": 79.058784,
            "velocity": 0.7086614173228346
          },
          {
            "duration": 0.17647049999999354,
            "durationTicks": 30,
            "midi": 36,
            "name": "C2",
            "ticks": 13680,
            "time": 80.47054800000001,
            "velocity": 0.7086614173228346
          },
          {
            "duration": 0.17647050000000775,
            "durationTicks": 30,
            "midi": 36,
            "name": "C2",
            "ticks": 13920,
            "time": 81.882312,
            "velocity": 0.7086614173228346
          },
          {
            "duration": 0.17647049999999354,
            "durationTicks": 30,
            "midi": 36,
            "name": "C2",
            "ticks": 14160,
            "time": 83.294076,
            "velocity": 0.7086614173228346
          },
          {
            "duration": 0.17647050000000775,
            "durationTicks": 30,
            "midi": 36,
            "name": "C2",
            "ticks": 14400,
            "time": 84.70584,
            "velocity": 0.7086614173228346
          },
          {
            "duration": 0.17647050000000775,
            "durationTicks": 30,
            "midi": 36,
            "name": "C2",
            "ticks": 14640,
            "time": 86.117604,
            "velocity": 0.7086614173228346
          },
          {
            "duration": 0.17647049999999354,
            "durationTicks": 30,
            "midi": 36,
            "name": "C2",
            "ticks": 14880,
            "time": 87.529368,
            "velocity": 0.7086614173228346
          },
          {
            "duration": 0.17647050000000775,
            "durationTicks": 30,
            "midi": 36,
            "name": "C2",
            "ticks": 15120,
            "time": 88.941132,
            "velocity": 0.7086614173228346
          },
          {
            "duration": 0.17647049999999354,
            "durationTicks": 30,
            "midi": 36,
            "name": "C2",
            "ticks": 15360,
            "time": 90.352896,
            "velocity": 0.7086614173228346
          },
          {
            "duration": 0.17647050000000775,
            "durationTicks": 30,
            "midi": 36,
            "name": "C2",
            "ticks": 15570,
            "time": 91.5881895,
            "velocity": 0.7086614173228346
          },
          {
            "duration": 0.17647050000000775,
            "durationTicks": 30,
            "midi": 36,
            "name": "C2",
            "ticks": 15840,
            "time": 93.176424,
            "velocity": 0.7086614173228346
          },
          {
            "duration": 0.17647050000000775,
            "durationTicks": 30,
            "midi": 36,
            "name": "C2",
            "ticks": 15960,
            "time": 93.882306,
            "velocity": 0.7086614173228346
          },
          {
            "duration": 0.17647049999999354,
            "durationTicks": 30,
            "midi": 36,
            "name": "C2",
            "ticks": 16080,
            "time": 94.588188,
            "velocity": 0.7086614173228346
          },
          {
            "duration": 0.17647049999999354,
            "durationTicks": 30,
            "midi": 36,
            "name": "C2",
            "ticks": 16140,
            "time": 94.941129,
            "velocity": 0.7086614173228346
          },
          {
            "duration": 0.17647049999999354,
            "durationTicks": 30,
            "midi": 36,
            "name": "C2",
            "ticks": 16200,
            "time": 95.29407,
            "velocity": 0.7086614173228346
          },
          {
            "duration": 0.17647049999999354,
            "durationTicks": 30,
            "midi": 36,
            "name": "C2",
            "ticks": 16320,
            "time": 95.99995200000001,
            "velocity": 0.7086614173228346
          },
          {
            "duration": 0.17647050000000775,
            "durationTicks": 30,
            "midi": 36,
            "name": "C2",
            "ticks": 16440,
            "time": 96.705834,
            "velocity": 0.7086614173228346
          },
          {
            "duration": 0.17647050000000775,
            "durationTicks": 30,
            "midi": 36,
            "name": "C2",
            "ticks": 16560,
            "time": 97.411716,
            "velocity": 0.7086614173228346
          },
          {
            "duration": 0.17647050000000775,
            "durationTicks": 30,
            "midi": 36,
            "name": "C2",
            "ticks": 16620,
            "time": 97.764657,
            "velocity": 0.7086614173228346
          },
          {
            "duration": 0.17647049999999354,
            "durationTicks": 30,
            "midi": 36,
            "name": "C2",
            "ticks": 16680,
            "time": 98.117598,
            "velocity": 0.7086614173228346
          },
          {
            "duration": 0.17647049999999354,
            "durationTicks": 30,
            "midi": 36,
            "name": "C2",
            "ticks": 16800,
            "time": 98.82348,
            "velocity": 0.7086614173228346
          },
          {
            "duration": 0.17647049999999354,
            "durationTicks": 30,
            "midi": 36,
            "name": "C2",
            "ticks": 16920,
            "time": 99.529362,
            "velocity": 0.7086614173228346
          },
          {
            "duration": 0.17647050000000775,
            "durationTicks": 30,
            "midi": 36,
            "name": "C2",
            "ticks": 17040,
            "time": 100.235244,
            "velocity": 0.7086614173228346
          },
          {
            "duration": 0.17647050000000775,
            "durationTicks": 30,
            "midi": 36,
            "name": "C2",
            "ticks": 17100,
            "time": 100.588185,
            "velocity": 0.7086614173228346
          },
          {
            "duration": 0.17647050000000775,
            "durationTicks": 30,
            "midi": 36,
            "name": "C2",
            "ticks": 17160,
            "time": 100.941126,
            "velocity": 0.7086614173228346
          },
          {
            "duration": 0.17647050000000775,
            "durationTicks": 30,
            "midi": 36,
            "name": "C2",
            "ticks": 17280,
            "time": 101.647008,
            "velocity": 0.7086614173228346
          },
          {
            "duration": 0.17647049999999354,
            "durationTicks": 30,
            "midi": 36,
            "name": "C2",
            "ticks": 17400,
            "time": 102.35289,
            "velocity": 0.7086614173228346
          },
          {
            "duration": 0.17647049999999354,
            "durationTicks": 30,
            "midi": 36,
            "name": "C2",
            "ticks": 17520,
            "time": 103.058772,
            "velocity": 0.7086614173228346
          },
          {
            "duration": 0.17647049999999354,
            "durationTicks": 30,
            "midi": 36,
            "name": "C2",
            "ticks": 17580,
            "time": 103.411713,
            "velocity": 0.7086614173228346
          },
          {
            "duration": 0.17647049999999354,
            "durationTicks": 30,
            "midi": 36,
            "name": "C2",
            "ticks": 17640,
            "time": 103.76465400000001,
            "velocity": 0.7086614173228346
          },
          {
            "duration": 0.17647050000000775,
            "durationTicks": 30,
            "midi": 36,
            "name": "C2",
            "ticks": 17760,
            "time": 104.470536,
            "velocity": 0.7086614173228346
          },
          {
            "duration": 0.17647050000000775,
            "durationTicks": 30,
            "midi": 36,
            "name": "C2",
            "ticks": 17880,
            "time": 105.176418,
            "velocity": 0.7086614173228346
          },
          {
            "duration": 0.17647050000000775,
            "durationTicks": 30,
            "midi": 36,
            "name": "C2",
            "ticks": 18000,
            "time": 105.8823,
            "velocity": 0.7086614173228346
          },
          {
            "duration": 0.17647049999999354,
            "durationTicks": 30,
            "midi": 36,
            "name": "C2",
            "ticks": 18060,
            "time": 106.235241,
            "velocity": 0.7086614173228346
          },
          {
            "duration": 0.17647049999999354,
            "durationTicks": 30,
            "midi": 36,
            "name": "C2",
            "ticks": 18120,
            "time": 106.588182,
            "velocity": 0.7086614173228346
          },
          {
            "duration": 0.17647049999999354,
            "durationTicks": 30,
            "midi": 36,
            "name": "C2",
            "ticks": 18240,
            "time": 107.294064,
            "velocity": 0.7086614173228346
          },
          {
            "duration": 0.17647049999999354,
            "durationTicks": 30,
            "midi": 36,
            "name": "C2",
            "ticks": 18360,
            "time": 107.99994600000001,
            "velocity": 0.7086614173228346
          },
          {
            "duration": 0.17647050000000775,
            "durationTicks": 30,
            "midi": 36,
            "name": "C2",
            "ticks": 18480,
            "time": 108.705828,
            "velocity": 0.7086614173228346
          },
          {
            "duration": 0.17647050000000775,
            "durationTicks": 30,
            "midi": 36,
            "name": "C2",
            "ticks": 18540,
            "time": 109.058769,
            "velocity": 0.7086614173228346
          },
          {
            "duration": 0.17647050000000775,
            "durationTicks": 30,
            "midi": 36,
            "name": "C2",
            "ticks": 18600,
            "time": 109.41171,
            "velocity": 0.7086614173228346
          },
          {
            "duration": 0.17647049999999354,
            "durationTicks": 30,
            "midi": 36,
            "name": "C2",
            "ticks": 18720,
            "time": 110.117592,
            "velocity": 0.7086614173228346
          },
          {
            "duration": 0.17647049999999354,
            "durationTicks": 30,
            "midi": 36,
            "name": "C2",
            "ticks": 18840,
            "time": 110.823474,
            "velocity": 0.7086614173228346
          },
          {
            "duration": 0.17647049999999354,
            "durationTicks": 30,
            "midi": 36,
            "name": "C2",
            "ticks": 18960,
            "time": 111.529356,
            "velocity": 0.7086614173228346
          },
          {
            "duration": 0.17647049999999354,
            "durationTicks": 30,
            "midi": 36,
            "name": "C2",
            "ticks": 19020,
            "time": 111.88229700000001,
            "velocity": 0.7086614173228346
          },
          {
            "duration": 0.17647050000000775,
            "durationTicks": 30,
            "midi": 36,
            "name": "C2",
            "ticks": 19080,
            "time": 112.235238,
            "velocity": 0.7086614173228346
          },
          {
            "duration": 0.17647050000000775,
            "durationTicks": 30,
            "midi": 36,
            "name": "C2",
            "ticks": 19200,
            "time": 112.94112,
            "velocity": 0.7086614173228346
          },
          {
            "duration": 0.17647050000000775,
            "durationTicks": 30,
            "midi": 36,
            "name": "C2",
            "ticks": 19320,
            "time": 113.647002,
            "velocity": 0.7086614173228346
          },
          {
            "duration": 0.08235290000000361,
            "durationTicks": 14,
            "midi": 36,
            "name": "C2",
            "ticks": 19500,
            "time": 114.705825,
            "velocity": 0.7086614173228346
          },
          {
            "duration": 0.17647049999999354,
            "durationTicks": 30,
            "midi": 36,
            "name": "C2",
            "ticks": 19560,
            "time": 115.058766,
            "velocity": 0.7086614173228346
          },
          {
            "duration": 0.17647049999999354,
            "durationTicks": 30,
            "midi": 36,
            "name": "C2",
            "ticks": 19680,
            "time": 115.76464800000001,
            "velocity": 0.7086614173228346
          },
          {
            "duration": 0.17647050000000775,
            "durationTicks": 30,
            "midi": 36,
            "name": "C2",
            "ticks": 19800,
            "time": 116.47053,
            "velocity": 0.7086614173228346
          },
          {
            "duration": 0.17647050000000775,
            "durationTicks": 30,
            "midi": 36,
            "name": "C2",
            "ticks": 19920,
            "time": 117.176412,
            "velocity": 0.7086614173228346
          },
          {
            "duration": 0.17647050000000775,
            "durationTicks": 30,
            "midi": 36,
            "name": "C2",
            "ticks": 19980,
            "time": 117.529353,
            "velocity": 0.7086614173228346
          },
          {
            "duration": 0.17647049999999354,
            "durationTicks": 30,
            "midi": 36,
            "name": "C2",
            "ticks": 20040,
            "time": 117.882294,
            "velocity": 0.7086614173228346
          },
          {
            "duration": 0.17647049999999354,
            "durationTicks": 30,
            "midi": 36,
            "name": "C2",
            "ticks": 20160,
            "time": 118.588176,
            "velocity": 0.7086614173228346
          },
          {
            "duration": 0.17647049999999354,
            "durationTicks": 30,
            "midi": 36,
            "name": "C2",
            "ticks": 20280,
            "time": 119.294058,
            "velocity": 0.7086614173228346
          },
          {
            "duration": 0.17647050000000775,
            "durationTicks": 30,
            "midi": 36,
            "name": "C2",
            "ticks": 20400,
            "time": 119.99994,
            "velocity": 0.7086614173228346
          },
          {
            "duration": 0.17647050000000775,
            "durationTicks": 30,
            "midi": 36,
            "name": "C2",
            "ticks": 20460,
            "time": 120.352881,
            "velocity": 0.7086614173228346
          },
          {
            "duration": 0.17647050000000775,
            "durationTicks": 30,
            "midi": 36,
            "name": "C2",
            "ticks": 20520,
            "time": 120.705822,
            "velocity": 0.7086614173228346
          },
          {
            "duration": 0.17647050000000775,
            "durationTicks": 30,
            "midi": 36,
            "name": "C2",
            "ticks": 20640,
            "time": 121.411704,
            "velocity": 0.7086614173228346
          },
          {
            "duration": 0.17647049999999354,
            "durationTicks": 30,
            "midi": 36,
            "name": "C2",
            "ticks": 20760,
            "time": 122.117586,
            "velocity": 0.7086614173228346
          },
          {
            "duration": 0.17647049999999354,
            "durationTicks": 30,
            "midi": 36,
            "name": "C2",
            "ticks": 20880,
            "time": 122.823468,
            "velocity": 0.7086614173228346
          },
          {
            "duration": 0.17647049999999354,
            "durationTicks": 30,
            "midi": 36,
            "name": "C2",
            "ticks": 20940,
            "time": 123.176409,
            "velocity": 0.7086614173228346
          },
          {
            "duration": 0.17647049999999354,
            "durationTicks": 30,
            "midi": 36,
            "name": "C2",
            "ticks": 21000,
            "time": 123.52935000000001,
            "velocity": 0.7086614173228346
          },
          {
            "duration": 0.17647050000000775,
            "durationTicks": 30,
            "midi": 36,
            "name": "C2",
            "ticks": 21120,
            "time": 124.235232,
            "velocity": 0.7086614173228346
          },
          {
            "duration": 0.17647050000000775,
            "durationTicks": 30,
            "midi": 36,
            "name": "C2",
            "ticks": 21240,
            "time": 124.941114,
            "velocity": 0.7086614173228346
          },
          {
            "duration": 0.17647049999999354,
            "durationTicks": 30,
            "midi": 36,
            "name": "C2",
            "ticks": 21360,
            "time": 125.646996,
            "velocity": 0.7086614173228346
          },
          {
            "duration": 0.17647049999999354,
            "durationTicks": 30,
            "midi": 36,
            "name": "C2",
            "ticks": 21420,
            "time": 125.999937,
            "velocity": 0.7086614173228346
          },
          {
            "duration": 0.17647049999999354,
            "durationTicks": 30,
            "midi": 36,
            "name": "C2",
            "ticks": 21480,
            "time": 126.352878,
            "velocity": 0.7086614173228346
          },
          {
            "duration": 0.17647049999999354,
            "durationTicks": 30,
            "midi": 36,
            "name": "C2",
            "ticks": 21600,
            "time": 127.05876,
            "velocity": 0.7086614173228346
          },
          {
            "duration": 0.17647050000000775,
            "durationTicks": 30,
            "midi": 36,
            "name": "C2",
            "ticks": 21720,
            "time": 127.764642,
            "velocity": 0.7086614173228346
          },
          {
            "duration": 0.17647049999999354,
            "durationTicks": 30,
            "midi": 36,
            "name": "C2",
            "ticks": 21840,
            "time": 128.470524,
            "velocity": 0.7086614173228346
          },
          {
            "duration": 0.17647049999999354,
            "durationTicks": 30,
            "midi": 36,
            "name": "C2",
            "ticks": 21900,
            "time": 128.823465,
            "velocity": 0.7086614173228346
          },
          {
            "duration": 0.17647049999999354,
            "durationTicks": 30,
            "midi": 36,
            "name": "C2",
            "ticks": 21960,
            "time": 129.17640600000001,
            "velocity": 0.7086614173228346
          },
          {
            "duration": 0.17647050000002196,
            "durationTicks": 30,
            "midi": 36,
            "name": "C2",
            "ticks": 22080,
            "time": 129.882288,
            "velocity": 0.7086614173228346
          },
          {
            "duration": 0.17647050000002196,
            "durationTicks": 30,
            "midi": 36,
            "name": "C2",
            "ticks": 22200,
            "time": 130.58817,
            "velocity": 0.7086614173228346
          },
          {
            "duration": 0.17647050000002196,
            "durationTicks": 30,
            "midi": 36,
            "name": "C2",
            "ticks": 22320,
            "time": 131.294052,
            "velocity": 0.7086614173228346
          },
          {
            "duration": 0.17647049999999354,
            "durationTicks": 30,
            "midi": 36,
            "name": "C2",
            "ticks": 22380,
            "time": 131.646993,
            "velocity": 0.7086614173228346
          },
          {
            "duration": 0.17647049999999354,
            "durationTicks": 30,
            "midi": 36,
            "name": "C2",
            "ticks": 22440,
            "time": 131.999934,
            "velocity": 0.7086614173228346
          },
          {
            "duration": 0.17647049999999354,
            "durationTicks": 30,
            "midi": 36,
            "name": "C2",
            "ticks": 22560,
            "time": 132.705816,
            "velocity": 0.7086614173228346
          },
          {
            "duration": 0.17647049999999354,
            "durationTicks": 30,
            "midi": 36,
            "name": "C2",
            "ticks": 22680,
            "time": 133.411698,
            "velocity": 0.7086614173228346
          },
          {
            "duration": 0.17647049999999354,
            "durationTicks": 30,
            "midi": 36,
            "name": "C2",
            "ticks": 22800,
            "time": 134.11758,
            "velocity": 0.7086614173228346
          },
          {
            "duration": 0.17647050000002196,
            "durationTicks": 30,
            "midi": 36,
            "name": "C2",
            "ticks": 22860,
            "time": 134.470521,
            "velocity": 0.7086614173228346
          },
          {
            "duration": 0.17647049999999354,
            "durationTicks": 30,
            "midi": 36,
            "name": "C2",
            "ticks": 22920,
            "time": 134.823462,
            "velocity": 0.7086614173228346
          },
          {
            "duration": 0.17647049999999354,
            "durationTicks": 30,
            "midi": 36,
            "name": "C2",
            "ticks": 23040,
            "time": 135.529344,
            "velocity": 0.7086614173228346
          },
          {
            "duration": 0.17647049999999354,
            "durationTicks": 30,
            "midi": 36,
            "name": "C2",
            "ticks": 23160,
            "time": 136.235226,
            "velocity": 0.7086614173228346
          },
          {
            "duration": 0.08235290000001783,
            "durationTicks": 14,
            "midi": 36,
            "name": "C2",
            "ticks": 23340,
            "time": 137.294049,
            "velocity": 0.7086614173228346
          },
          {
            "duration": 0.17647050000002196,
            "durationTicks": 30,
            "midi": 36,
            "name": "C2",
            "ticks": 23400,
            "time": 137.64699,
            "velocity": 0.7086614173228346
          },
          {
            "duration": 0.17647050000002196,
            "durationTicks": 30,
            "midi": 36,
            "name": "C2",
            "ticks": 23520,
            "time": 138.352872,
            "velocity": 0.7086614173228346
          },
          {
            "duration": 0.17647049999999354,
            "durationTicks": 30,
            "midi": 36,
            "name": "C2",
            "ticks": 23610,
            "time": 138.8822835,
            "velocity": 0.7086614173228346
          },
          {
            "duration": 0.17647049999999354,
            "durationTicks": 30,
            "midi": 36,
            "name": "C2",
            "ticks": 23760,
            "time": 139.764636,
            "velocity": 0.7086614173228346
          },
          {
            "duration": 0.17647049999999354,
            "durationTicks": 30,
            "midi": 36,
            "name": "C2",
            "ticks": 23850,
            "time": 140.2940475,
            "velocity": 0.7086614173228346
          },
          {
            "duration": 0.17647049999999354,
            "durationTicks": 30,
            "midi": 36,
            "name": "C2",
            "ticks": 24000,
            "time": 141.1764,
            "velocity": 0.7086614173228346
          },
          {
            "duration": 0.17647049999999354,
            "durationTicks": 30,
            "midi": 36,
            "name": "C2",
            "ticks": 24090,
            "time": 141.7058115,
            "velocity": 0.7086614173228346
          },
          {
            "duration": 0.17647049999999354,
            "durationTicks": 30,
            "midi": 36,
            "name": "C2",
            "ticks": 24240,
            "time": 142.588164,
            "velocity": 0.7086614173228346
          },
          {
            "duration": 0.17647049999999354,
            "durationTicks": 30,
            "midi": 36,
            "name": "C2",
            "ticks": 24330,
            "time": 143.11757550000002,
            "velocity": 0.7086614173228346
          },
          {
            "duration": 0.17647049999999354,
            "durationTicks": 30,
            "midi": 36,
            "name": "C2",
            "ticks": 24480,
            "time": 143.999928,
            "velocity": 0.7086614173228346
          },
          {
            "duration": 0.17647050000002196,
            "durationTicks": 30,
            "midi": 36,
            "name": "C2",
            "ticks": 24570,
            "time": 144.5293395,
            "velocity": 0.7086614173228346
          },
          {
            "duration": 0.17647050000002196,
            "durationTicks": 30,
            "midi": 36,
            "name": "C2",
            "ticks": 24720,
            "time": 145.411692,
            "velocity": 0.7086614173228346
          },
          {
            "duration": 0.17647049999999354,
            "durationTicks": 30,
            "midi": 36,
            "name": "C2",
            "ticks": 24810,
            "time": 145.9411035,
            "velocity": 0.7086614173228346
          },
          {
            "duration": 0.17647050000002196,
            "durationTicks": 30,
            "midi": 36,
            "name": "C2",
            "ticks": 24960,
            "time": 146.823456,
            "velocity": 0.7086614173228346
          },
          {
            "duration": 0.17647049999999354,
            "durationTicks": 30,
            "midi": 36,
            "name": "C2",
            "ticks": 25050,
            "time": 147.3528675,
            "velocity": 0.7086614173228346
          },
          {
            "duration": 0.17647049999999354,
            "durationTicks": 30,
            "midi": 36,
            "name": "C2",
            "ticks": 25200,
            "time": 148.23522,
            "velocity": 0.7086614173228346
          },
          {
            "duration": 0.17647049999999354,
            "durationTicks": 30,
            "midi": 36,
            "name": "C2",
            "ticks": 25290,
            "time": 148.7646315,
            "velocity": 0.7086614173228346
          },
          {
            "duration": 0.17647049999999354,
            "durationTicks": 30,
            "midi": 36,
            "name": "C2",
            "ticks": 25440,
            "time": 149.646984,
            "velocity": 0.7086614173228346
          },
          {
            "duration": 0.17647049999999354,
            "durationTicks": 30,
            "midi": 36,
            "name": "C2",
            "ticks": 25530,
            "time": 150.1763955,
            "velocity": 0.7086614173228346
          },
          {
            "duration": 0.17647049999999354,
            "durationTicks": 30,
            "midi": 36,
            "name": "C2",
            "ticks": 25680,
            "time": 151.058748,
            "velocity": 0.7086614173228346
          },
          {
            "duration": 0.17647050000002196,
            "durationTicks": 30,
            "midi": 36,
            "name": "C2",
            "ticks": 25770,
            "time": 151.5881595,
            "velocity": 0.7086614173228346
          },
          {
            "duration": 0.17647049999999354,
            "durationTicks": 30,
            "midi": 36,
            "name": "C2",
            "ticks": 25920,
            "time": 152.470512,
            "velocity": 0.7086614173228346
          },
          {
            "duration": 0.17647050000002196,
            "durationTicks": 30,
            "midi": 36,
            "name": "C2",
            "ticks": 26010,
            "time": 152.9999235,
            "velocity": 0.7086614173228346
          },
          {
            "duration": 0.17647050000002196,
            "durationTicks": 30,
            "midi": 36,
            "name": "C2",
            "ticks": 26160,
            "time": 153.882276,
            "velocity": 0.7086614173228346
          },
          {
            "duration": 0.17647049999999354,
            "durationTicks": 30,
            "midi": 36,
            "name": "C2",
            "ticks": 26250,
            "time": 154.4116875,
            "velocity": 0.7086614173228346
          },
          {
            "duration": 0.17647049999999354,
            "durationTicks": 30,
            "midi": 36,
            "name": "C2",
            "ticks": 26400,
            "time": 155.29404,
            "velocity": 0.7086614173228346
          },
          {
            "duration": 0.17647049999999354,
            "durationTicks": 30,
            "midi": 36,
            "name": "C2",
            "ticks": 26490,
            "time": 155.8234515,
            "velocity": 0.7086614173228346
          },
          {
            "duration": 0.17647049999999354,
            "durationTicks": 30,
            "midi": 36,
            "name": "C2",
            "ticks": 26640,
            "time": 156.705804,
            "velocity": 0.7086614173228346
          },
          {
            "duration": 0.17647049999999354,
            "durationTicks": 30,
            "midi": 36,
            "name": "C2",
            "ticks": 26730,
            "time": 157.2352155,
            "velocity": 0.7086614173228346
          },
          {
            "duration": 0.17647049999999354,
            "durationTicks": 30,
            "midi": 36,
            "name": "C2",
            "ticks": 26880,
            "time": 158.117568,
            "velocity": 0.7086614173228346
          },
          {
            "duration": 0.17647049999999354,
            "durationTicks": 30,
            "midi": 36,
            "name": "C2",
            "ticks": 26970,
            "time": 158.64697950000001,
            "velocity": 0.7086614173228346
          },
          {
            "duration": 0.17647049999999354,
            "durationTicks": 30,
            "midi": 36,
            "name": "C2",
            "ticks": 27120,
            "time": 159.529332,
            "velocity": 0.7086614173228346
          },
          {
            "duration": 0.17647050000002196,
            "durationTicks": 30,
            "midi": 36,
            "name": "C2",
            "ticks": 27210,
            "time": 160.0587435,
            "velocity": 0.7086614173228346
          },
          {
            "duration": 0.17647049999999354,
            "durationTicks": 30,
            "midi": 36,
            "name": "C2",
            "ticks": 27360,
            "time": 160.94109600000002,
            "velocity": 0.7086614173228346
          },
          {
            "duration": 0.17647050000002196,
            "durationTicks": 30,
            "midi": 36,
            "name": "C2",
            "ticks": 27480,
            "time": 161.646978,
            "velocity": 0.7086614173228346
          },
          {
            "duration": 0.17647050000002196,
            "durationTicks": 30,
            "midi": 36,
            "name": "C2",
            "ticks": 27600,
            "time": 162.35286,
            "velocity": 0.7086614173228346
          },
          {
            "duration": 0.17647049999999354,
            "durationTicks": 30,
            "midi": 36,
            "name": "C2",
            "ticks": 27660,
            "time": 162.705801,
            "velocity": 0.7086614173228346
          },
          {
            "duration": 0.17647049999999354,
            "durationTicks": 30,
            "midi": 36,
            "name": "C2",
            "ticks": 27720,
            "time": 163.058742,
            "velocity": 0.7086614173228346
          },
          {
            "duration": 0.17647049999999354,
            "durationTicks": 30,
            "midi": 36,
            "name": "C2",
            "ticks": 27840,
            "time": 163.764624,
            "velocity": 0.7086614173228346
          },
          {
            "duration": 0.17647049999999354,
            "durationTicks": 30,
            "midi": 36,
            "name": "C2",
            "ticks": 27960,
            "time": 164.470506,
            "velocity": 0.7086614173228346
          },
          {
            "duration": 0.17647049999999354,
            "durationTicks": 30,
            "midi": 36,
            "name": "C2",
            "ticks": 28080,
            "time": 165.176388,
            "velocity": 0.7086614173228346
          },
          {
            "duration": 0.17647050000002196,
            "durationTicks": 30,
            "midi": 36,
            "name": "C2",
            "ticks": 28140,
            "time": 165.529329,
            "velocity": 0.7086614173228346
          },
          {
            "duration": 0.17647049999999354,
            "durationTicks": 30,
            "midi": 36,
            "name": "C2",
            "ticks": 28200,
            "time": 165.88227,
            "velocity": 0.7086614173228346
          },
          {
            "duration": 0.17647049999999354,
            "durationTicks": 30,
            "midi": 36,
            "name": "C2",
            "ticks": 28320,
            "time": 166.588152,
            "velocity": 0.7086614173228346
          },
          {
            "duration": 0.17647049999999354,
            "durationTicks": 30,
            "midi": 36,
            "name": "C2",
            "ticks": 28440,
            "time": 167.294034,
            "velocity": 0.7086614173228346
          },
          {
            "duration": 0.17647049999999354,
            "durationTicks": 30,
            "midi": 36,
            "name": "C2",
            "ticks": 28560,
            "time": 167.999916,
            "velocity": 0.7086614173228346
          },
          {
            "duration": 0.17647049999999354,
            "durationTicks": 30,
            "midi": 36,
            "name": "C2",
            "ticks": 28620,
            "time": 168.352857,
            "velocity": 0.7086614173228346
          },
          {
            "duration": 0.17647049999999354,
            "durationTicks": 30,
            "midi": 36,
            "name": "C2",
            "ticks": 28680,
            "time": 168.70579800000002,
            "velocity": 0.7086614173228346
          },
          {
            "duration": 0.17647050000002196,
            "durationTicks": 30,
            "midi": 36,
            "name": "C2",
            "ticks": 28800,
            "time": 169.41168,
            "velocity": 0.7086614173228346
          },
          {
            "duration": 0.17647050000002196,
            "durationTicks": 30,
            "midi": 36,
            "name": "C2",
            "ticks": 28920,
            "time": 170.117562,
            "velocity": 0.7086614173228346
          },
          {
            "duration": 0.17647049999999354,
            "durationTicks": 30,
            "midi": 36,
            "name": "C2",
            "ticks": 29040,
            "time": 170.823444,
            "velocity": 0.7086614173228346
          },
          {
            "duration": 0.17647049999999354,
            "durationTicks": 30,
            "midi": 36,
            "name": "C2",
            "ticks": 29100,
            "time": 171.176385,
            "velocity": 0.7086614173228346
          },
          {
            "duration": 0.17647049999999354,
            "durationTicks": 30,
            "midi": 36,
            "name": "C2",
            "ticks": 29160,
            "time": 171.529326,
            "velocity": 0.7086614173228346
          },
          {
            "duration": 0.17647049999999354,
            "durationTicks": 30,
            "midi": 36,
            "name": "C2",
            "ticks": 29280,
            "time": 172.235208,
            "velocity": 0.7086614173228346
          },
          {
            "duration": 0.17647049999999354,
            "durationTicks": 30,
            "midi": 36,
            "name": "C2",
            "ticks": 29400,
            "time": 172.94109,
            "velocity": 0.7086614173228346
          },
          {
            "duration": 0.17647049999999354,
            "durationTicks": 30,
            "midi": 36,
            "name": "C2",
            "ticks": 29520,
            "time": 173.646972,
            "velocity": 0.7086614173228346
          },
          {
            "duration": 0.17647050000002196,
            "durationTicks": 30,
            "midi": 36,
            "name": "C2",
            "ticks": 29580,
            "time": 173.999913,
            "velocity": 0.7086614173228346
          },
          {
            "duration": 0.17647049999999354,
            "durationTicks": 30,
            "midi": 36,
            "name": "C2",
            "ticks": 29640,
            "time": 174.352854,
            "velocity": 0.7086614173228346
          },
          {
            "duration": 0.17647049999999354,
            "durationTicks": 30,
            "midi": 36,
            "name": "C2",
            "ticks": 29760,
            "time": 175.058736,
            "velocity": 0.7086614173228346
          },
          {
            "duration": 0.17647049999999354,
            "durationTicks": 30,
            "midi": 36,
            "name": "C2",
            "ticks": 29880,
            "time": 175.764618,
            "velocity": 0.7086614173228346
          },
          {
            "duration": 0.17647049999999354,
            "durationTicks": 30,
            "midi": 36,
            "name": "C2",
            "ticks": 30000,
            "time": 176.47050000000002,
            "velocity": 0.7086614173228346
          },
          {
            "duration": 0.17647049999999354,
            "durationTicks": 30,
            "midi": 36,
            "name": "C2",
            "ticks": 30060,
            "time": 176.823441,
            "velocity": 0.7086614173228346
          },
          {
            "duration": 0.17647050000002196,
            "durationTicks": 30,
            "midi": 36,
            "name": "C2",
            "ticks": 30120,
            "time": 177.176382,
            "velocity": 0.7086614173228346
          },
          {
            "duration": 0.17647050000002196,
            "durationTicks": 30,
            "midi": 36,
            "name": "C2",
            "ticks": 30240,
            "time": 177.882264,
            "velocity": 0.7086614173228346
          },
          {
            "duration": 0.17647049999999354,
            "durationTicks": 30,
            "midi": 36,
            "name": "C2",
            "ticks": 30360,
            "time": 178.588146,
            "velocity": 0.7086614173228346
          },
          {
            "duration": 0.17647049999999354,
            "durationTicks": 30,
            "midi": 36,
            "name": "C2",
            "ticks": 30480,
            "time": 179.294028,
            "velocity": 0.7086614173228346
          },
          {
            "duration": 0.17647049999999354,
            "durationTicks": 30,
            "midi": 36,
            "name": "C2",
            "ticks": 30540,
            "time": 179.646969,
            "velocity": 0.7086614173228346
          },
          {
            "duration": 0.17647049999999354,
            "durationTicks": 30,
            "midi": 36,
            "name": "C2",
            "ticks": 30600,
            "time": 179.99991,
            "velocity": 0.7086614173228346
          },
          {
            "duration": 0.17647049999999354,
            "durationTicks": 30,
            "midi": 36,
            "name": "C2",
            "ticks": 30720,
            "time": 180.705792,
            "velocity": 0.7086614173228346
          },
          {
            "duration": 0.17647049999999354,
            "durationTicks": 30,
            "midi": 36,
            "name": "C2",
            "ticks": 30930,
            "time": 181.9410855,
            "velocity": 0.7086614173228346
          },
          {
            "duration": 0.17647049999999354,
            "durationTicks": 30,
            "midi": 36,
            "name": "C2",
            "ticks": 31110,
            "time": 182.9999085,
            "velocity": 0.7086614173228346
          },
          {
            "duration": 0.17647049999999354,
            "durationTicks": 30,
            "midi": 36,
            "name": "C2",
            "ticks": 31200,
            "time": 183.52932,
            "velocity": 0.7086614173228346
          },
          {
            "duration": 0.17647049999999354,
            "durationTicks": 30,
            "midi": 36,
            "name": "C2",
            "ticks": 31410,
            "time": 184.7646135,
            "velocity": 0.7086614173228346
          },
          {
            "duration": 0.17647050000002196,
            "durationTicks": 30,
            "midi": 36,
            "name": "C2",
            "ticks": 31440,
            "time": 184.941084,
            "velocity": 0.7086614173228346
          },
          {
            "duration": 0.17647050000002196,
            "durationTicks": 30,
            "midi": 36,
            "name": "C2",
            "ticks": 31680,
            "time": 186.352848,
            "velocity": 0.7086614173228346
          },
          {
            "duration": 0.17647049999999354,
            "durationTicks": 30,
            "midi": 36,
            "name": "C2",
            "ticks": 31890,
            "time": 187.5881415,
            "velocity": 0.7086614173228346
          },
          {
            "duration": 0.17647049999999354,
            "durationTicks": 30,
            "midi": 36,
            "name": "C2",
            "ticks": 31920,
            "time": 187.764612,
            "velocity": 0.7086614173228346
          },
          {
            "duration": 0.17647049999999354,
            "durationTicks": 30,
            "midi": 36,
            "name": "C2",
            "ticks": 32160,
            "time": 189.176376,
            "velocity": 0.7086614173228346
          },
          {
            "duration": 0.17647049999999354,
            "durationTicks": 30,
            "midi": 36,
            "name": "C2",
            "ticks": 32370,
            "time": 190.41166950000002,
            "velocity": 0.7086614173228346
          },
          {
            "duration": 0.17647049999999354,
            "durationTicks": 30,
            "midi": 36,
            "name": "C2",
            "ticks": 32400,
            "time": 190.58814,
            "velocity": 0.7086614173228346
          },
          {
            "duration": 0.17647049999999354,
            "durationTicks": 30,
            "midi": 36,
            "name": "C2",
            "ticks": 32640,
            "time": 191.99990400000002,
            "velocity": 0.7086614173228346
          },
          {
            "duration": 0.17647049999999354,
            "durationTicks": 30,
            "midi": 36,
            "name": "C2",
            "ticks": 32850,
            "time": 193.2351975,
            "velocity": 0.7086614173228346
          },
          {
            "duration": 0.17647050000002196,
            "durationTicks": 30,
            "midi": 36,
            "name": "C2",
            "ticks": 32880,
            "time": 193.411668,
            "velocity": 0.7086614173228346
          },
          {
            "duration": 0.17647049999999354,
            "durationTicks": 30,
            "midi": 36,
            "name": "C2",
            "ticks": 33120,
            "time": 194.823432,
            "velocity": 0.7086614173228346
          },
          {
            "duration": 0.17647049999999354,
            "durationTicks": 30,
            "midi": 36,
            "name": "C2",
            "ticks": 33330,
            "time": 196.0587255,
            "velocity": 0.7086614173228346
          },
          {
            "duration": 0.17647049999999354,
            "durationTicks": 30,
            "midi": 36,
            "name": "C2",
            "ticks": 33360,
            "time": 196.235196,
            "velocity": 0.7086614173228346
          },
          {
            "duration": 0.17647049999999354,
            "durationTicks": 30,
            "midi": 36,
            "name": "C2",
            "ticks": 33600,
            "time": 197.64696,
            "velocity": 0.7086614173228346
          },
          {
            "duration": 0.17647050000002196,
            "durationTicks": 30,
            "midi": 36,
            "name": "C2",
            "ticks": 33810,
            "time": 198.8822535,
            "velocity": 0.7086614173228346
          },
          {
            "duration": 0.17647049999999354,
            "durationTicks": 30,
            "midi": 36,
            "name": "C2",
            "ticks": 33840,
            "time": 199.058724,
            "velocity": 0.7086614173228346
          },
          {
            "duration": 0.17647050000002196,
            "durationTicks": 30,
            "midi": 36,
            "name": "C2",
            "ticks": 34080,
            "time": 200.470488,
            "velocity": 0.7086614173228346
          },
          {
            "duration": 0.17647049999999354,
            "durationTicks": 30,
            "midi": 36,
            "name": "C2",
            "ticks": 34290,
            "time": 201.7057815,
            "velocity": 0.7086614173228346
          },
          {
            "duration": 0.17647050000002196,
            "durationTicks": 30,
            "midi": 36,
            "name": "C2",
            "ticks": 34320,
            "time": 201.882252,
            "velocity": 0.7086614173228346
          },
          {
            "duration": 0.17647049999999354,
            "durationTicks": 30,
            "midi": 36,
            "name": "C2",
            "ticks": 34560,
            "time": 203.294016,
            "velocity": 0.7086614173228346
          },
          {
            "duration": 0.17647049999999354,
            "durationTicks": 30,
            "midi": 36,
            "name": "C2",
            "ticks": 34800,
            "time": 204.70578,
            "velocity": 0.7086614173228346
          },
          {
            "duration": 0.17647049999999354,
            "durationTicks": 30,
            "midi": 36,
            "name": "C2",
            "ticks": 34950,
            "time": 205.5881325,
            "velocity": 0.7086614173228346
          },
          {
            "duration": 0.17647049999999354,
            "durationTicks": 30,
            "midi": 36,
            "name": "C2",
            "ticks": 35040,
            "time": 206.117544,
            "velocity": 0.7086614173228346
          },
          {
            "duration": 0.17647050000002196,
            "durationTicks": 30,
            "midi": 36,
            "name": "C2",
            "ticks": 35250,
            "time": 207.3528375,
            "velocity": 0.7086614173228346
          },
          {
            "duration": 0.17647049999999354,
            "durationTicks": 30,
            "midi": 36,
            "name": "C2",
            "ticks": 35280,
            "time": 207.52930800000001,
            "velocity": 0.7086614173228346
          },
          {
            "duration": 0.17647050000002196,
            "durationTicks": 30,
            "midi": 36,
            "name": "C2",
            "ticks": 35520,
            "time": 208.941072,
            "velocity": 0.7086614173228346
          },
          {
            "duration": 0.17647049999999354,
            "durationTicks": 30,
            "midi": 36,
            "name": "C2",
            "ticks": 35730,
            "time": 210.1763655,
            "velocity": 0.7086614173228346
          },
          {
            "duration": 0.17647049999999354,
            "durationTicks": 30,
            "midi": 36,
            "name": "C2",
            "ticks": 35760,
            "time": 210.352836,
            "velocity": 0.7086614173228346
          },
          {
            "duration": 0.17647049999999354,
            "durationTicks": 30,
            "midi": 36,
            "name": "C2",
            "ticks": 36000,
            "time": 211.7646,
            "velocity": 0.7086614173228346
          },
          {
            "duration": 0.17647049999999354,
            "durationTicks": 30,
            "midi": 36,
            "name": "C2",
            "ticks": 36210,
            "time": 212.9998935,
            "velocity": 0.7086614173228346
          },
          {
            "duration": 0.17647049999999354,
            "durationTicks": 30,
            "midi": 36,
            "name": "C2",
            "ticks": 36240,
            "time": 213.176364,
            "velocity": 0.7086614173228346
          },
          {
            "duration": 0.17647049999999354,
            "durationTicks": 30,
            "midi": 36,
            "name": "C2",
            "ticks": 36480,
            "time": 214.588128,
            "velocity": 0.7086614173228346
          },
          {
            "duration": 0.17647050000002196,
            "durationTicks": 30,
            "midi": 36,
            "name": "C2",
            "ticks": 36690,
            "time": 215.8234215,
            "velocity": 0.7086614173228346
          },
          {
            "duration": 0.17647049999999354,
            "durationTicks": 30,
            "midi": 36,
            "name": "C2",
            "ticks": 36720,
            "time": 215.99989200000002,
            "velocity": 0.7086614173228346
          },
          {
            "duration": 0.17647050000002196,
            "durationTicks": 30,
            "midi": 36,
            "name": "C2",
            "ticks": 36960,
            "time": 217.411656,
            "velocity": 0.7086614173228346
          },
          {
            "duration": 0.17647049999999354,
            "durationTicks": 30,
            "midi": 36,
            "name": "C2",
            "ticks": 37170,
            "time": 218.6469495,
            "velocity": 0.7086614173228346
          },
          {
            "duration": 0.17647049999999354,
            "durationTicks": 30,
            "midi": 36,
            "name": "C2",
            "ticks": 37200,
            "time": 218.82342,
            "velocity": 0.7086614173228346
          },
          {
            "duration": 0.17647049999999354,
            "durationTicks": 30,
            "midi": 36,
            "name": "C2",
            "ticks": 37440,
            "time": 220.235184,
            "velocity": 0.7086614173228346
          },
          {
            "duration": 0.17647049999999354,
            "durationTicks": 30,
            "midi": 36,
            "name": "C2",
            "ticks": 37650,
            "time": 221.47047750000002,
            "velocity": 0.7086614173228346
          },
          {
            "duration": 0.17647049999999354,
            "durationTicks": 30,
            "midi": 36,
            "name": "C2",
            "ticks": 37680,
            "time": 221.646948,
            "velocity": 0.7086614173228346
          },
          {
            "duration": 0.17647049999999354,
            "durationTicks": 30,
            "midi": 36,
            "name": "C2",
            "ticks": 37920,
            "time": 223.058712,
            "velocity": 0.7086614173228346
          },
          {
            "duration": 0.17647049999999354,
            "durationTicks": 30,
            "midi": 36,
            "name": "C2",
            "ticks": 38130,
            "time": 224.2940055,
            "velocity": 0.7086614173228346
          },
          {
            "duration": 0.17647050000002196,
            "durationTicks": 30,
            "midi": 36,
            "name": "C2",
            "ticks": 38160,
            "time": 224.470476,
            "velocity": 0.7086614173228346
          },
          {
            "duration": 0.17647049999999354,
            "durationTicks": 30,
            "midi": 36,
            "name": "C2",
            "ticks": 38400,
            "time": 225.88224,
            "velocity": 0.7086614173228346
          },
          {
            "duration": 0.17647049999999354,
            "durationTicks": 30,
            "midi": 36,
            "name": "C2",
            "ticks": 38640,
            "time": 227.294004,
            "velocity": 0.7086614173228346
          },
          {
            "duration": 0.17647049999999354,
            "durationTicks": 30,
            "midi": 36,
            "name": "C2",
            "ticks": 38880,
            "time": 228.705768,
            "velocity": 0.7086614173228346
          },
          {
            "duration": 0.17647049999999354,
            "durationTicks": 30,
            "midi": 36,
            "name": "C2",
            "ticks": 39120,
            "time": 230.117532,
            "velocity": 0.7086614173228346
          },
          {
            "duration": 0.17647049999999354,
            "durationTicks": 30,
            "midi": 36,
            "name": "C2",
            "ticks": 39360,
            "time": 231.52929600000002,
            "velocity": 0.7086614173228346
          },
          {
            "duration": 0.17647050000002196,
            "durationTicks": 30,
            "midi": 36,
            "name": "C2",
            "ticks": 39600,
            "time": 232.94106,
            "velocity": 0.7086614173228346
          },
          {
            "duration": 0.17647049999999354,
            "durationTicks": 30,
            "midi": 36,
            "name": "C2",
            "ticks": 39840,
            "time": 234.352824,
            "velocity": 0.7086614173228346
          },
          {
            "duration": 0.17647049999999354,
            "durationTicks": 30,
            "midi": 36,
            "name": "C2",
            "ticks": 40080,
            "time": 235.764588,
            "velocity": 0.7086614173228346
          },
          {
            "duration": 0.17647049999999354,
            "durationTicks": 30,
            "midi": 36,
            "name": "C2",
            "ticks": 40320,
            "time": 237.176352,
            "velocity": 0.7086614173228346
          },
          {
            "duration": 0.17647049999999354,
            "durationTicks": 30,
            "midi": 36,
            "name": "C2",
            "ticks": 40560,
            "time": 238.588116,
            "velocity": 0.7086614173228346
          },
          {
            "duration": 0.17647050000002196,
            "durationTicks": 30,
            "midi": 36,
            "name": "C2",
            "ticks": 40800,
            "time": 239.99988,
            "velocity": 0.7086614173228346
          },
          {
            "duration": 0.17647050000002196,
            "durationTicks": 30,
            "midi": 36,
            "name": "C2",
            "ticks": 41040,
            "time": 241.411644,
            "velocity": 0.7086614173228346
          },
          {
            "duration": 0.17647049999999354,
            "durationTicks": 30,
            "midi": 36,
            "name": "C2",
            "ticks": 41280,
            "time": 242.823408,
            "velocity": 0.7086614173228346
          },
          {
            "duration": 0.17647049999999354,
            "durationTicks": 30,
            "midi": 36,
            "name": "C2",
            "ticks": 41520,
            "time": 244.235172,
            "velocity": 0.7086614173228346
          },
          {
            "duration": 0.17647049999999354,
            "durationTicks": 30,
            "midi": 36,
            "name": "C2",
            "ticks": 41760,
            "time": 245.646936,
            "velocity": 0.7086614173228346
          },
          {
            "duration": 0.17647049999999354,
            "durationTicks": 30,
            "midi": 36,
            "name": "C2",
            "ticks": 42000,
            "time": 247.05870000000002,
            "velocity": 0.7086614173228346
          },
          {
            "duration": 0.17647050000002196,
            "durationTicks": 30,
            "midi": 36,
            "name": "C2",
            "ticks": 42240,
            "time": 248.470464,
            "velocity": 0.7086614173228346
          },
          {
            "duration": 0.17647049999999354,
            "durationTicks": 30,
            "midi": 36,
            "name": "C2",
            "ticks": 42450,
            "time": 249.7057575,
            "velocity": 0.7086614173228346
          },
          {
            "duration": 0.17647049999999354,
            "durationTicks": 30,
            "midi": 36,
            "name": "C2",
            "ticks": 42720,
            "time": 251.293992,
            "velocity": 0.7086614173228346
          },
          {
            "duration": 0.17647049999999354,
            "durationTicks": 30,
            "midi": 36,
            "name": "C2",
            "ticks": 42840,
            "time": 251.999874,
            "velocity": 0.7086614173228346
          },
          {
            "duration": 0.17647049999999354,
            "durationTicks": 30,
            "midi": 36,
            "name": "C2",
            "ticks": 42960,
            "time": 252.705756,
            "velocity": 0.7086614173228346
          },
          {
            "duration": 0.17647050000002196,
            "durationTicks": 30,
            "midi": 36,
            "name": "C2",
            "ticks": 43020,
            "time": 253.058697,
            "velocity": 0.7086614173228346
          },
          {
            "duration": 0.17647049999999354,
            "durationTicks": 30,
            "midi": 36,
            "name": "C2",
            "ticks": 43080,
            "time": 253.411638,
            "velocity": 0.7086614173228346
          },
          {
            "duration": 0.17647049999999354,
            "durationTicks": 30,
            "midi": 36,
            "name": "C2",
            "ticks": 43200,
            "time": 254.11752,
            "velocity": 0.7086614173228346
          },
          {
            "duration": 0.17647049999999354,
            "durationTicks": 30,
            "midi": 36,
            "name": "C2",
            "ticks": 43320,
            "time": 254.82340200000002,
            "velocity": 0.7086614173228346
          },
          {
            "duration": 0.17647050000002196,
            "durationTicks": 30,
            "midi": 36,
            "name": "C2",
            "ticks": 43440,
            "time": 255.529284,
            "velocity": 0.7086614173228346
          },
          {
            "duration": 0.17647049999999354,
            "durationTicks": 30,
            "midi": 36,
            "name": "C2",
            "ticks": 43500,
            "time": 255.882225,
            "velocity": 0.7086614173228346
          },
          {
            "duration": 0.17647049999999354,
            "durationTicks": 30,
            "midi": 36,
            "name": "C2",
            "ticks": 43560,
            "time": 256.235166,
            "velocity": 0.7086614173228346
          },
          {
            "duration": 0.17647049999999354,
            "durationTicks": 30,
            "midi": 36,
            "name": "C2",
            "ticks": 43680,
            "time": 256.941048,
            "velocity": 0.7086614173228346
          },
          {
            "duration": 0.17647049999999354,
            "durationTicks": 30,
            "midi": 36,
            "name": "C2",
            "ticks": 43800,
            "time": 257.64693,
            "velocity": 0.7086614173228346
          },
          {
            "duration": 0.17647049999999354,
            "durationTicks": 30,
            "midi": 36,
            "name": "C2",
            "ticks": 43920,
            "time": 258.35281200000003,
            "velocity": 0.7086614173228346
          },
          {
            "duration": 0.17647049999999354,
            "durationTicks": 30,
            "midi": 36,
            "name": "C2",
            "ticks": 43980,
            "time": 258.705753,
            "velocity": 0.7086614173228346
          },
          {
            "duration": 0.17647049999999354,
            "durationTicks": 30,
            "midi": 36,
            "name": "C2",
            "ticks": 44040,
            "time": 259.058694,
            "velocity": 0.7086614173228346
          },
          {
            "duration": 0.17647050000005038,
            "durationTicks": 30,
            "midi": 36,
            "name": "C2",
            "ticks": 44160,
            "time": 259.764576,
            "velocity": 0.7086614173228346
          },
          {
            "duration": 0.17647049999999354,
            "durationTicks": 30,
            "midi": 36,
            "name": "C2",
            "ticks": 44280,
            "time": 260.470458,
            "velocity": 0.7086614173228346
          },
          {
            "duration": 0.17647049999999354,
            "durationTicks": 30,
            "midi": 36,
            "name": "C2",
            "ticks": 44400,
            "time": 261.17634,
            "velocity": 0.7086614173228346
          },
          {
            "duration": 0.17647049999999354,
            "durationTicks": 30,
            "midi": 36,
            "name": "C2",
            "ticks": 44460,
            "time": 261.529281,
            "velocity": 0.7086614173228346
          },
          {
            "duration": 0.17647049999999354,
            "durationTicks": 30,
            "midi": 36,
            "name": "C2",
            "ticks": 44520,
            "time": 261.882222,
            "velocity": 0.7086614173228346
          },
          {
            "duration": 0.17647049999999354,
            "durationTicks": 30,
            "midi": 36,
            "name": "C2",
            "ticks": 44640,
            "time": 262.588104,
            "velocity": 0.7086614173228346
          },
          {
            "duration": 0.17647049999999354,
            "durationTicks": 30,
            "midi": 36,
            "name": "C2",
            "ticks": 44760,
            "time": 263.293986,
            "velocity": 0.7086614173228346
          },
          {
            "duration": 0.17647049999999354,
            "durationTicks": 30,
            "midi": 36,
            "name": "C2",
            "ticks": 44880,
            "time": 263.999868,
            "velocity": 0.7086614173228346
          },
          {
            "duration": 0.17647050000005038,
            "durationTicks": 30,
            "midi": 36,
            "name": "C2",
            "ticks": 44940,
            "time": 264.352809,
            "velocity": 0.7086614173228346
          },
          {
            "duration": 0.17647049999999354,
            "durationTicks": 30,
            "midi": 36,
            "name": "C2",
            "ticks": 45000,
            "time": 264.70575,
            "velocity": 0.7086614173228346
          },
          {
            "duration": 0.17647049999999354,
            "durationTicks": 30,
            "midi": 36,
            "name": "C2",
            "ticks": 45120,
            "time": 265.411632,
            "velocity": 0.7086614173228346
          },
          {
            "duration": 0.17647049999999354,
            "durationTicks": 30,
            "midi": 36,
            "name": "C2",
            "ticks": 45240,
            "time": 266.117514,
            "velocity": 0.7086614173228346
          },
          {
            "duration": 0.17647049999999354,
            "durationTicks": 30,
            "midi": 36,
            "name": "C2",
            "ticks": 45360,
            "time": 266.823396,
            "velocity": 0.7086614173228346
          },
          {
            "duration": 0.17647049999999354,
            "durationTicks": 30,
            "midi": 36,
            "name": "C2",
            "ticks": 45420,
            "time": 267.176337,
            "velocity": 0.7086614173228346
          },
          {
            "duration": 0.17647050000005038,
            "durationTicks": 30,
            "midi": 36,
            "name": "C2",
            "ticks": 45480,
            "time": 267.529278,
            "velocity": 0.7086614173228346
          },
          {
            "duration": 0.17647049999999354,
            "durationTicks": 30,
            "midi": 36,
            "name": "C2",
            "ticks": 45600,
            "time": 268.23516,
            "velocity": 0.7086614173228346
          },
          {
            "duration": 0.17647049999999354,
            "durationTicks": 30,
            "midi": 36,
            "name": "C2",
            "ticks": 45720,
            "time": 268.941042,
            "velocity": 0.7086614173228346
          },
          {
            "duration": 0.17647049999999354,
            "durationTicks": 30,
            "midi": 36,
            "name": "C2",
            "ticks": 45840,
            "time": 269.646924,
            "velocity": 0.7086614173228346
          },
          {
            "duration": 0.17647049999999354,
            "durationTicks": 30,
            "midi": 36,
            "name": "C2",
            "ticks": 45900,
            "time": 269.999865,
            "velocity": 0.7086614173228346
          },
          {
            "duration": 0.17647049999999354,
            "durationTicks": 30,
            "midi": 36,
            "name": "C2",
            "ticks": 45960,
            "time": 270.352806,
            "velocity": 0.7086614173228346
          },
          {
            "duration": 0.17647049999999354,
            "durationTicks": 30,
            "midi": 36,
            "name": "C2",
            "ticks": 46080,
            "time": 271.058688,
            "velocity": 0.7086614173228346
          },
          {
            "duration": 0.17647049999999354,
            "durationTicks": 30,
            "midi": 36,
            "name": "C2",
            "ticks": 46200,
            "time": 271.76457,
            "velocity": 0.7086614173228346
          },
          {
            "duration": 0.0823528999999894,
            "durationTicks": 14,
            "midi": 36,
            "name": "C2",
            "ticks": 46380,
            "time": 272.823393,
            "velocity": 0.7086614173228346
          },
          {
            "duration": 0.17647049999999354,
            "durationTicks": 30,
            "midi": 36,
            "name": "C2",
            "ticks": 46440,
            "time": 273.176334,
            "velocity": 0.7086614173228346
          },
          {
            "duration": 0.17647049999999354,
            "durationTicks": 30,
            "midi": 36,
            "name": "C2",
            "ticks": 46560,
            "time": 273.882216,
            "velocity": 0.7086614173228346
          },
          {
            "duration": 0.17647049999999354,
            "durationTicks": 30,
            "midi": 36,
            "name": "C2",
            "ticks": 46680,
            "time": 274.588098,
            "velocity": 0.7086614173228346
          },
          {
            "duration": 0.17647050000005038,
            "durationTicks": 30,
            "midi": 36,
            "name": "C2",
            "ticks": 46800,
            "time": 275.29398,
            "velocity": 0.7086614173228346
          },
          {
            "duration": 0.17647049999999354,
            "durationTicks": 30,
            "midi": 36,
            "name": "C2",
            "ticks": 46860,
            "time": 275.646921,
            "velocity": 0.7086614173228346
          },
          {
            "duration": 0.17647049999999354,
            "durationTicks": 30,
            "midi": 36,
            "name": "C2",
            "ticks": 46920,
            "time": 275.999862,
            "velocity": 0.7086614173228346
          },
          {
            "duration": 0.17647050000005038,
            "durationTicks": 30,
            "midi": 36,
            "name": "C2",
            "ticks": 47040,
            "time": 276.705744,
            "velocity": 0.7086614173228346
          },
          {
            "duration": 0.17647049999999354,
            "durationTicks": 30,
            "midi": 36,
            "name": "C2",
            "ticks": 47160,
            "time": 277.411626,
            "velocity": 0.7086614173228346
          },
          {
            "duration": 0.17647049999999354,
            "durationTicks": 30,
            "midi": 36,
            "name": "C2",
            "ticks": 47280,
            "time": 278.117508,
            "velocity": 0.7086614173228346
          },
          {
            "duration": 0.17647049999999354,
            "durationTicks": 30,
            "midi": 36,
            "name": "C2",
            "ticks": 47340,
            "time": 278.47044900000003,
            "velocity": 0.7086614173228346
          },
          {
            "duration": 0.17647049999999354,
            "durationTicks": 30,
            "midi": 36,
            "name": "C2",
            "ticks": 47400,
            "time": 278.82339,
            "velocity": 0.7086614173228346
          },
          {
            "duration": 0.17647049999999354,
            "durationTicks": 30,
            "midi": 36,
            "name": "C2",
            "ticks": 47520,
            "time": 279.529272,
            "velocity": 0.7086614173228346
          },
          {
            "duration": 0.17647049999999354,
            "durationTicks": 30,
            "midi": 36,
            "name": "C2",
            "ticks": 47640,
            "time": 280.235154,
            "velocity": 0.7086614173228346
          },
          {
            "duration": 0.17647049999999354,
            "durationTicks": 30,
            "midi": 36,
            "name": "C2",
            "ticks": 47760,
            "time": 280.941036,
            "velocity": 0.7086614173228346
          },
          {
            "duration": 0.17647049999999354,
            "durationTicks": 30,
            "midi": 36,
            "name": "C2",
            "ticks": 47820,
            "time": 281.293977,
            "velocity": 0.7086614173228346
          },
          {
            "duration": 0.17647049999999354,
            "durationTicks": 30,
            "midi": 36,
            "name": "C2",
            "ticks": 47880,
            "time": 281.646918,
            "velocity": 0.7086614173228346
          },
          {
            "duration": 0.17647049999999354,
            "durationTicks": 30,
            "midi": 36,
            "name": "C2",
            "ticks": 48000,
            "time": 282.3528,
            "velocity": 0.7086614173228346
          },
          {
            "duration": 0.17647050000005038,
            "durationTicks": 30,
            "midi": 36,
            "name": "C2",
            "ticks": 48120,
            "time": 283.058682,
            "velocity": 0.7086614173228346
          },
          {
            "duration": 0.17647049999999354,
            "durationTicks": 30,
            "midi": 36,
            "name": "C2",
            "ticks": 48240,
            "time": 283.764564,
            "velocity": 0.7086614173228346
          },
          {
            "duration": 0.17647049999999354,
            "durationTicks": 30,
            "midi": 36,
            "name": "C2",
            "ticks": 48300,
            "time": 284.117505,
            "velocity": 0.7086614173228346
          },
          {
            "duration": 0.17647050000005038,
            "durationTicks": 30,
            "midi": 36,
            "name": "C2",
            "ticks": 48360,
            "time": 284.470446,
            "velocity": 0.7086614173228346
          },
          {
            "duration": 0.17647049999999354,
            "durationTicks": 30,
            "midi": 36,
            "name": "C2",
            "ticks": 48480,
            "time": 285.176328,
            "velocity": 0.7086614173228346
          },
          {
            "duration": 0.17647049999999354,
            "durationTicks": 30,
            "midi": 36,
            "name": "C2",
            "ticks": 48600,
            "time": 285.88221,
            "velocity": 0.7086614173228346
          },
          {
            "duration": 0.17647049999999354,
            "durationTicks": 30,
            "midi": 36,
            "name": "C2",
            "ticks": 48720,
            "time": 286.588092,
            "velocity": 0.7086614173228346
          },
          {
            "duration": 0.17647049999999354,
            "durationTicks": 30,
            "midi": 36,
            "name": "C2",
            "ticks": 48780,
            "time": 286.941033,
            "velocity": 0.7086614173228346
          },
          {
            "duration": 0.17647049999999354,
            "durationTicks": 30,
            "midi": 36,
            "name": "C2",
            "ticks": 48840,
            "time": 287.293974,
            "velocity": 0.7086614173228346
          },
          {
            "duration": 0.17647049999999354,
            "durationTicks": 30,
            "midi": 36,
            "name": "C2",
            "ticks": 48960,
            "time": 287.999856,
            "velocity": 0.7086614173228346
          },
          {
            "duration": 0.17647049999999354,
            "durationTicks": 30,
            "midi": 36,
            "name": "C2",
            "ticks": 49080,
            "time": 288.705738,
            "velocity": 0.7086614173228346
          },
          {
            "duration": 0.17647049999999354,
            "durationTicks": 30,
            "midi": 36,
            "name": "C2",
            "ticks": 49200,
            "time": 289.41162,
            "velocity": 0.7086614173228346
          },
          {
            "duration": 0.17647049999999354,
            "durationTicks": 30,
            "midi": 36,
            "name": "C2",
            "ticks": 49260,
            "time": 289.764561,
            "velocity": 0.7086614173228346
          },
          {
            "duration": 0.17647049999999354,
            "durationTicks": 30,
            "midi": 36,
            "name": "C2",
            "ticks": 49320,
            "time": 290.117502,
            "velocity": 0.7086614173228346
          },
          {
            "duration": 0.17647050000005038,
            "durationTicks": 30,
            "midi": 36,
            "name": "C2",
            "ticks": 49440,
            "time": 290.823384,
            "velocity": 0.7086614173228346
          },
          {
            "duration": 0.17647049999999354,
            "durationTicks": 30,
            "midi": 36,
            "name": "C2",
            "ticks": 49560,
            "time": 291.529266,
            "velocity": 0.7086614173228346
          },
          {
            "duration": 0.17647050000005038,
            "durationTicks": 30,
            "midi": 36,
            "name": "C2",
            "ticks": 49680,
            "time": 292.235148,
            "velocity": 0.7086614173228346
          },
          {
            "duration": 0.17647049999999354,
            "durationTicks": 30,
            "midi": 36,
            "name": "C2",
            "ticks": 49740,
            "time": 292.588089,
            "velocity": 0.7086614173228346
          },
          {
            "duration": 0.17647049999999354,
            "durationTicks": 30,
            "midi": 36,
            "name": "C2",
            "ticks": 49800,
            "time": 292.94103,
            "velocity": 0.7086614173228346
          },
          {
            "duration": 0.17647049999999354,
            "durationTicks": 30,
            "midi": 36,
            "name": "C2",
            "ticks": 49920,
            "time": 293.646912,
            "velocity": 0.7086614173228346
          },
          {
            "duration": 0.17647049999999354,
            "durationTicks": 30,
            "midi": 36,
            "name": "C2",
            "ticks": 50040,
            "time": 294.352794,
            "velocity": 0.7086614173228346
          },
          {
            "duration": 0.08235290000004625,
            "durationTicks": 14,
            "midi": 36,
            "name": "C2",
            "ticks": 50220,
            "time": 295.411617,
            "velocity": 0.7086614173228346
          },
          {
            "duration": 0.17647049999999354,
            "durationTicks": 30,
            "midi": 36,
            "name": "C2",
            "ticks": 50280,
            "time": 295.764558,
            "velocity": 0.7086614173228346
          },
          {
            "duration": 0.17647049999999354,
            "durationTicks": 30,
            "midi": 36,
            "name": "C2",
            "ticks": 50400,
            "time": 296.47044,
            "velocity": 0.7086614173228346
          },
          {
            "duration": 0.17647049999999354,
            "durationTicks": 30,
            "midi": 36,
            "name": "C2",
            "ticks": 50520,
            "time": 297.176322,
            "velocity": 0.7086614173228346
          },
          {
            "duration": 0.17647049999999354,
            "durationTicks": 30,
            "midi": 36,
            "name": "C2",
            "ticks": 50640,
            "time": 297.882204,
            "velocity": 0.7086614173228346
          },
          {
            "duration": 0.17647049999999354,
            "durationTicks": 30,
            "midi": 36,
            "name": "C2",
            "ticks": 50700,
            "time": 298.235145,
            "velocity": 0.7086614173228346
          },
          {
            "duration": 0.17647050000005038,
            "durationTicks": 30,
            "midi": 36,
            "name": "C2",
            "ticks": 50760,
            "time": 298.588086,
            "velocity": 0.7086614173228346
          },
          {
            "duration": 0.17647049999999354,
            "durationTicks": 30,
            "midi": 36,
            "name": "C2",
            "ticks": 50880,
            "time": 299.293968,
            "velocity": 0.7086614173228346
          },
          {
            "duration": 0.17647050000005038,
            "durationTicks": 30,
            "midi": 36,
            "name": "C2",
            "ticks": 51000,
            "time": 299.99985,
            "velocity": 0.7086614173228346
          },
          {
            "duration": 0.17647049999999354,
            "durationTicks": 30,
            "midi": 36,
            "name": "C2",
            "ticks": 51120,
            "time": 300.705732,
            "velocity": 0.7086614173228346
          },
          {
            "duration": 0.17647049999999354,
            "durationTicks": 30,
            "midi": 36,
            "name": "C2",
            "ticks": 51180,
            "time": 301.058673,
            "velocity": 0.7086614173228346
          },
          {
            "duration": 0.17647049999999354,
            "durationTicks": 30,
            "midi": 36,
            "name": "C2",
            "ticks": 51240,
            "time": 301.411614,
            "velocity": 0.7086614173228346
          },
          {
            "duration": 0.17647049999999354,
            "durationTicks": 30,
            "midi": 36,
            "name": "C2",
            "ticks": 51360,
            "time": 302.117496,
            "velocity": 0.7086614173228346
          },
          {
            "duration": 0.17647049999999354,
            "durationTicks": 30,
            "midi": 36,
            "name": "C2",
            "ticks": 51480,
            "time": 302.823378,
            "velocity": 0.7086614173228346
          },
          {
            "duration": 0.17647049999999354,
            "durationTicks": 30,
            "midi": 36,
            "name": "C2",
            "ticks": 51600,
            "time": 303.52926,
            "velocity": 0.7086614173228346
          },
          {
            "duration": 0.17647049999999354,
            "durationTicks": 30,
            "midi": 36,
            "name": "C2",
            "ticks": 51660,
            "time": 303.882201,
            "velocity": 0.7086614173228346
          },
          {
            "duration": 0.17647049999999354,
            "durationTicks": 30,
            "midi": 36,
            "name": "C2",
            "ticks": 51720,
            "time": 304.235142,
            "velocity": 0.7086614173228346
          },
          {
            "duration": 0.17647049999999354,
            "durationTicks": 30,
            "midi": 36,
            "name": "C2",
            "ticks": 51840,
            "time": 304.941024,
            "velocity": 0.7086614173228346
          },
          {
            "duration": 0.17647049999999354,
            "durationTicks": 30,
            "midi": 36,
            "name": "C2",
            "ticks": 51960,
            "time": 305.646906,
            "velocity": 0.7086614173228346
          },
          {
            "duration": 0.17647049999999354,
            "durationTicks": 30,
            "midi": 36,
            "name": "C2",
            "ticks": 52080,
            "time": 306.35278800000003,
            "velocity": 0.7086614173228346
          },
          {
            "duration": 0.17647049999999354,
            "durationTicks": 30,
            "midi": 36,
            "name": "C2",
            "ticks": 52140,
            "time": 306.705729,
            "velocity": 0.7086614173228346
          },
          {
            "duration": 0.17647049999999354,
            "durationTicks": 30,
            "midi": 36,
            "name": "C2",
            "ticks": 52200,
            "time": 307.05867,
            "velocity": 0.7086614173228346
          },
          {
            "duration": 0.17647050000005038,
            "durationTicks": 30,
            "midi": 36,
            "name": "C2",
            "ticks": 52320,
            "time": 307.764552,
            "velocity": 0.7086614173228346
          },
          {
            "duration": 0.17647049999999354,
            "durationTicks": 30,
            "midi": 36,
            "name": "C2",
            "ticks": 52440,
            "time": 308.470434,
            "velocity": 0.7086614173228346
          },
          {
            "duration": 0.17647049999999354,
            "durationTicks": 30,
            "midi": 36,
            "name": "C2",
            "ticks": 52560,
            "time": 309.176316,
            "velocity": 0.7086614173228346
          },
          {
            "duration": 0.17647049999999354,
            "durationTicks": 30,
            "midi": 36,
            "name": "C2",
            "ticks": 52620,
            "time": 309.52925700000003,
            "velocity": 0.7086614173228346
          },
          {
            "duration": 0.17647049999999354,
            "durationTicks": 30,
            "midi": 36,
            "name": "C2",
            "ticks": 52680,
            "time": 309.882198,
            "velocity": 0.7086614173228346
          },
          {
            "duration": 0.17647049999999354,
            "durationTicks": 30,
            "midi": 36,
            "name": "C2",
            "ticks": 52800,
            "time": 310.58808,
            "velocity": 0.7086614173228346
          },
          {
            "duration": 0.17647049999999354,
            "durationTicks": 30,
            "midi": 36,
            "name": "C2",
            "ticks": 52920,
            "time": 311.293962,
            "velocity": 0.7086614173228346
          },
          {
            "duration": 0.17647049999999354,
            "durationTicks": 30,
            "midi": 36,
            "name": "C2",
            "ticks": 53040,
            "time": 311.999844,
            "velocity": 0.7086614173228346
          },
          {
            "duration": 0.17647049999999354,
            "durationTicks": 30,
            "midi": 36,
            "name": "C2",
            "ticks": 53100,
            "time": 312.352785,
            "velocity": 0.7086614173228346
          },
          {
            "duration": 0.17647049999999354,
            "durationTicks": 30,
            "midi": 36,
            "name": "C2",
            "ticks": 53160,
            "time": 312.705726,
            "velocity": 0.7086614173228346
          },
          {
            "duration": 0.17647049999999354,
            "durationTicks": 30,
            "midi": 36,
            "name": "C2",
            "ticks": 53280,
            "time": 313.411608,
            "velocity": 0.7086614173228346
          },
          {
            "duration": 0.17647049999999354,
            "durationTicks": 30,
            "midi": 36,
            "name": "C2",
            "ticks": 53400,
            "time": 314.11749000000003,
            "velocity": 0.7086614173228346
          },
          {
            "duration": 0.17647049999999354,
            "durationTicks": 30,
            "midi": 36,
            "name": "C2",
            "ticks": 53520,
            "time": 314.823372,
            "velocity": 0.7086614173228346
          },
          {
            "duration": 0.17647049999999354,
            "durationTicks": 30,
            "midi": 36,
            "name": "C2",
            "ticks": 53580,
            "time": 315.176313,
            "velocity": 0.7086614173228346
          },
          {
            "duration": 0.17647050000005038,
            "durationTicks": 30,
            "midi": 36,
            "name": "C2",
            "ticks": 53640,
            "time": 315.529254,
            "velocity": 0.7086614173228346
          },
          {
            "duration": 0.17647049999999354,
            "durationTicks": 30,
            "midi": 36,
            "name": "C2",
            "ticks": 53760,
            "time": 316.235136,
            "velocity": 0.7086614173228346
          },
          {
            "duration": 0.17647049999999354,
            "durationTicks": 30,
            "midi": 36,
            "name": "C2",
            "ticks": 53880,
            "time": 316.941018,
            "velocity": 0.7086614173228346
          },
          {
            "duration": 0.0823528999999894,
            "durationTicks": 14,
            "midi": 36,
            "name": "C2",
            "ticks": 54060,
            "time": 317.999841,
            "velocity": 0.7086614173228346
          },
          {
            "duration": 0.17647049999999354,
            "durationTicks": 30,
            "midi": 36,
            "name": "C2",
            "ticks": 54120,
            "time": 318.352782,
            "velocity": 0.7086614173228346
          },
          {
            "duration": 0.17647049999999354,
            "durationTicks": 30,
            "midi": 36,
            "name": "C2",
            "ticks": 54240,
            "time": 319.058664,
            "velocity": 0.7086614173228346
          },
          {
            "duration": 0.17647049999999354,
            "durationTicks": 30,
            "midi": 36,
            "name": "C2",
            "ticks": 54720,
            "time": 321.88219200000003,
            "velocity": 0.7086614173228346
          },
          {
            "duration": 0.17647049999999354,
            "durationTicks": 30,
            "midi": 36,
            "name": "C2",
            "ticks": 54840,
            "time": 322.588074,
            "velocity": 0.7086614173228346
          },
          {
            "duration": 0.17647050000005038,
            "durationTicks": 30,
            "midi": 36,
            "name": "C2",
            "ticks": 54960,
            "time": 323.293956,
            "velocity": 0.7086614173228346
          },
          {
            "duration": 0.17647049999999354,
            "durationTicks": 30,
            "midi": 36,
            "name": "C2",
            "ticks": 55020,
            "time": 323.646897,
            "velocity": 0.7086614173228346
          },
          {
            "duration": 0.17647049999999354,
            "durationTicks": 30,
            "midi": 36,
            "name": "C2",
            "ticks": 55080,
            "time": 323.999838,
            "velocity": 0.7086614173228346
          },
          {
            "duration": 0.17647049999999354,
            "durationTicks": 30,
            "midi": 36,
            "name": "C2",
            "ticks": 55200,
            "time": 324.70572,
            "velocity": 0.7086614173228346
          },
          {
            "duration": 0.17647049999999354,
            "durationTicks": 30,
            "midi": 36,
            "name": "C2",
            "ticks": 55680,
            "time": 327.529248,
            "velocity": 0.7086614173228346
          },
          {
            "duration": 0.17647049999999354,
            "durationTicks": 30,
            "midi": 36,
            "name": "C2",
            "ticks": 55800,
            "time": 328.23513,
            "velocity": 0.7086614173228346
          },
          {
            "duration": 0.17647049999999354,
            "durationTicks": 30,
            "midi": 36,
            "name": "C2",
            "ticks": 55920,
            "time": 328.941012,
            "velocity": 0.7086614173228346
          },
          {
            "duration": 0.17647049999999354,
            "durationTicks": 30,
            "midi": 36,
            "name": "C2",
            "ticks": 55980,
            "time": 329.293953,
            "velocity": 0.7086614173228346
          },
          {
            "duration": 0.17647049999999354,
            "durationTicks": 30,
            "midi": 36,
            "name": "C2",
            "ticks": 56040,
            "time": 329.64689400000003,
            "velocity": 0.7086614173228346
          },
          {
            "duration": 0.17647049999999354,
            "durationTicks": 30,
            "midi": 36,
            "name": "C2",
            "ticks": 56160,
            "time": 330.352776,
            "velocity": 0.7086614173228346
          },
          {
            "duration": 0.17647050000005038,
            "durationTicks": 30,
            "midi": 36,
            "name": "C2",
            "ticks": 56280,
            "time": 331.058658,
            "velocity": 0.7086614173228346
          },
          {
            "duration": 0.17647049999999354,
            "durationTicks": 30,
            "midi": 36,
            "name": "C2",
            "ticks": 56400,
            "time": 331.76454,
            "velocity": 0.7086614173228346
          },
          {
            "duration": 0.17647049999999354,
            "durationTicks": 30,
            "midi": 36,
            "name": "C2",
            "ticks": 56460,
            "time": 332.117481,
            "velocity": 0.7086614173228346
          },
          {
            "duration": 0.17647049999999354,
            "durationTicks": 30,
            "midi": 36,
            "name": "C2",
            "ticks": 56520,
            "time": 332.470422,
            "velocity": 0.7086614173228346
          },
          {
            "duration": 0.17647049999999354,
            "durationTicks": 30,
            "midi": 36,
            "name": "C2",
            "ticks": 56640,
            "time": 333.176304,
            "velocity": 0.7086614173228346
          },
          {
            "duration": 0.17647049999999354,
            "durationTicks": 30,
            "midi": 36,
            "name": "C2",
            "ticks": 56760,
            "time": 333.882186,
            "velocity": 0.7086614173228346
          },
          {
            "duration": 0.17647049999999354,
            "durationTicks": 30,
            "midi": 36,
            "name": "C2",
            "ticks": 56880,
            "time": 334.588068,
            "velocity": 0.7086614173228346
          },
          {
            "duration": 0.17647049999999354,
            "durationTicks": 30,
            "midi": 36,
            "name": "C2",
            "ticks": 56940,
            "time": 334.941009,
            "velocity": 0.7086614173228346
          },
          {
            "duration": 0.17647049999999354,
            "durationTicks": 30,
            "midi": 36,
            "name": "C2",
            "ticks": 57000,
            "time": 335.29395,
            "velocity": 0.7086614173228346
          },
          {
            "duration": 0.17647049999999354,
            "durationTicks": 30,
            "midi": 36,
            "name": "C2",
            "ticks": 57120,
            "time": 335.999832,
            "velocity": 0.7086614173228346
          },
          {
            "duration": 0.17647049999999354,
            "durationTicks": 30,
            "midi": 36,
            "name": "C2",
            "ticks": 57180,
            "time": 336.352773,
            "velocity": 0.7086614173228346
          },
          {
            "duration": 0.17647049999999354,
            "durationTicks": 30,
            "midi": 36,
            "name": "C2",
            "ticks": 57240,
            "time": 336.705714,
            "velocity": 0.7086614173228346
          },
          {
            "duration": 0.17647050000005038,
            "durationTicks": 30,
            "midi": 36,
            "name": "C2",
            "ticks": 57330,
            "time": 337.2351255,
            "velocity": 0.7086614173228346
          },
          {
            "duration": 0.17647049999999354,
            "durationTicks": 30,
            "midi": 36,
            "name": "C2",
            "ticks": 57360,
            "time": 337.41159600000003,
            "velocity": 0.7086614173228346
          },
          {
            "duration": 0.17647049999999354,
            "durationTicks": 30,
            "midi": 36,
            "name": "C2",
            "ticks": 57420,
            "time": 337.764537,
            "velocity": 0.7086614173228346
          },
          {
            "duration": 0.17647049999999354,
            "durationTicks": 30,
            "midi": 36,
            "name": "C2",
            "ticks": 57480,
            "time": 338.117478,
            "velocity": 0.7086614173228346
          },
          {
            "duration": 0.17647050000005038,
            "durationTicks": 30,
            "midi": 36,
            "name": "C2",
            "ticks": 57600,
            "time": 338.82336,
            "velocity": 0.7086614173228346
          },
          {
            "duration": 0.17647049999999354,
            "durationTicks": 30,
            "midi": 36,
            "name": "C2",
            "ticks": 57660,
            "time": 339.176301,
            "velocity": 0.7086614173228346
          },
          {
            "duration": 0.17647049999999354,
            "durationTicks": 30,
            "midi": 36,
            "name": "C2",
            "ticks": 57750,
            "time": 339.7057125,
            "velocity": 0.7086614173228346
          },
          {
            "duration": 0.08235290000004625,
            "durationTicks": 14,
            "midi": 36,
            "name": "C2",
            "ticks": 57810,
            "time": 340.0586535,
            "velocity": 0.7086614173228346
          },
          {
            "duration": 0.17647049999999354,
            "durationTicks": 30,
            "midi": 36,
            "name": "C2",
            "ticks": 57900,
            "time": 340.58806500000003,
            "velocity": 0.7086614173228346
          },
          {
            "duration": 0.17647049999999354,
            "durationTicks": 30,
            "midi": 36,
            "name": "C2",
            "ticks": 57960,
            "time": 340.941006,
            "velocity": 0.7086614173228346
          },
          {
            "duration": 0.17647049999999354,
            "durationTicks": 30,
            "midi": 36,
            "name": "C2",
            "ticks": 58080,
            "time": 341.646888,
            "velocity": 0.7086614173228346
          },
          {
            "duration": 0.17647050000005038,
            "durationTicks": 30,
            "midi": 36,
            "name": "C2",
            "ticks": 58140,
            "time": 341.999829,
            "velocity": 0.7086614173228346
          },
          {
            "duration": 0.17647049999999354,
            "durationTicks": 30,
            "midi": 36,
            "name": "C2",
            "ticks": 58230,
            "time": 342.5292405,
            "velocity": 0.7086614173228346
          },
          {
            "duration": 0.17647049999999354,
            "durationTicks": 30,
            "midi": 36,
            "name": "C2",
            "ticks": 58290,
            "time": 342.8821815,
            "velocity": 0.7086614173228346
          },
          {
            "duration": 0.17647050000005038,
            "durationTicks": 30,
            "midi": 36,
            "name": "C2",
            "ticks": 58380,
            "time": 343.411593,
            "velocity": 0.7086614173228346
          },
          {
            "duration": 0.17647049999999354,
            "durationTicks": 30,
            "midi": 36,
            "name": "C2",
            "ticks": 58440,
            "time": 343.764534,
            "velocity": 0.7086614173228346
          },
          {
            "duration": 0.17647049999999354,
            "durationTicks": 30,
            "midi": 36,
            "name": "C2",
            "ticks": 58530,
            "time": 344.2939455,
            "velocity": 0.7086614173228346
          },
          {
            "duration": 0.17647049999999354,
            "durationTicks": 30,
            "midi": 36,
            "name": "C2",
            "ticks": 58680,
            "time": 345.17629800000003,
            "velocity": 0.7086614173228346
          },
          {
            "duration": 0.17647049999999354,
            "durationTicks": 30,
            "midi": 36,
            "name": "C2",
            "ticks": 58770,
            "time": 345.7057095,
            "velocity": 0.7086614173228346
          },
          {
            "duration": 0.17647049999999354,
            "durationTicks": 30,
            "midi": 36,
            "name": "C2",
            "ticks": 59310,
            "time": 348.8821785,
            "velocity": 0.7086614173228346
          }
        ],
        "endOfTrackTicks": 59340
      },
      {
        "channel": 0,
        "controlChanges": {},
        "pitchBends": [],
        "instrument": {
          "family": "piano",
          "number": 0,
          "name": "acoustic grand piano"
        },
        "name": "\"SWEAR\"",
        "notes": [],
        "endOfTrackTicks": 0
      },
      {
        "channel": 0,
        "controlChanges": {},
        "pitchBends": [],
        "instrument": {
          "family": "piano",
          "number": 0,
          "name": "acoustic grand piano"
        },
        "name": "by Casiopea",
        "notes": [],
        "endOfTrackTicks": 0
      },
      {
        "channel": 0,
        "controlChanges": {},
        "pitchBends": [],
        "instrument": {
          "family": "piano",
          "number": 0,
          "name": "acoustic grand piano"
        },
        "name": "seq. by Iman Tjahjono",
        "notes": [],
        "endOfTrackTicks": 0
      },
      {
        "channel": 0,
        "controlChanges": {},
        "pitchBends": [],
        "instrument": {
          "family": "piano",
          "number": 0,
          "name": "acoustic grand piano"
        },
        "name": "comments:",
        "notes": [],
        "endOfTrackTicks": 0
      },
      {
        "channel": 0,
        "controlChanges": {},
        "pitchBends": [],
        "instrument": {
          "family": "piano",
          "number": 0,
          "name": "acoustic grand piano"
        },
        "name": "tjahjono@idcnet.com",
        "notes": [],
        "endOfTrackTicks": 0
      }
    ]
  }