{
  "header": {
    "keySignatures": [
      {
        "key": "C",
        "scale": "major",
        "ticks": 0
      }
    ],
    "meta": [],
    "name": "轨迹",
    "ppq": 480,
    "tempos": [
      {
        "bpm": 75.20003208534702,
        "ticks": 0
      }
    ],
    "timeSignatures": [
      {
        "ticks": 0,
        "timeSignature": [
          4,
          4
        ],
        "measures": 0
      }
    ]
  },
  "tracks": [
    {
      "channel": 0,
      "controlChanges": {},
      "pitchBends": [],
      "instrument": {
        "family": "piano",
        "number": 0,
        "name": "acoustic grand piano"
      },
      "name": "untitled",
      "notes": [],
      "endOfTrackTicks": 17280
    },
    {
      "channel": 0,
      "controlChanges": {
        "7": [
          {
            "number": 7,
            "ticks": 0,
            "time": 0,
            "value": 0.9448818897637795
          }
        ],
        "10": [
          {
            "number": 10,
            "ticks": 0,
            "time": 0,
            "value": 0.5039370078740157
          }
        ]
      },
      "pitchBends": [
        {
          "ticks": 244,
          "time": 0.40558493333333334,
          "value": -0.49169921875
        },
        {
          "ticks": 272,
          "time": 0.45212746666666664,
          "value": -0.3125
        },
        {
          "ticks": 300,
          "time": 0.49867,
          "value": -0.125
        },
        {
          "ticks": 328,
          "time": 0.5452125333333334,
          "value": 0
        },
        {
          "ticks": 2404,
          "time": 3.996008933333334,
          "value": -0.49169921875
        },
        {
          "ticks": 2432,
          "time": 4.042551466666667,
          "value": -0.3125
        },
        {
          "ticks": 2460,
          "time": 4.089094,
          "value": -0.125
        },
        {
          "ticks": 2488,
          "time": 4.135636533333334,
          "value": 0
        },
        {
          "ticks": 5284,
          "time": 8.783240933333333,
          "value": -0.49169921875
        },
        {
          "ticks": 5312,
          "time": 8.829783466666667,
          "value": -0.3125
        },
        {
          "ticks": 5340,
          "time": 8.876326,
          "value": -0.125
        },
        {
          "ticks": 5368,
          "time": 8.922868533333334,
          "value": 0
        },
        {
          "ticks": 5764,
          "time": 9.581112933333333,
          "value": -0.49169921875
        },
        {
          "ticks": 5792,
          "time": 9.627655466666667,
          "value": -0.3125
        },
        {
          "ticks": 5820,
          "time": 9.674198,
          "value": -0.125
        },
        {
          "ticks": 5848,
          "time": 9.720740533333334,
          "value": 0
        },
        {
          "ticks": 6244,
          "time": 10.378984933333333,
          "value": -0.49169921875
        },
        {
          "ticks": 6272,
          "time": 10.425527466666667,
          "value": -0.3125
        },
        {
          "ticks": 6300,
          "time": 10.47207,
          "value": -0.125
        },
        {
          "ticks": 6328,
          "time": 10.518612533333334,
          "value": 0
        },
        {
          "ticks": 7924,
          "time": 13.171536933333334,
          "value": -0.49169921875
        },
        {
          "ticks": 7952,
          "time": 13.218079466666667,
          "value": -0.3125
        },
        {
          "ticks": 7980,
          "time": 13.264622000000001,
          "value": -0.125
        },
        {
          "ticks": 8008,
          "time": 13.311164533333335,
          "value": 0
        },
        {
          "ticks": 8164,
          "time": 13.570472933333333,
          "value": -0.49169921875
        },
        {
          "ticks": 8192,
          "time": 13.617015466666667,
          "value": -0.3125
        },
        {
          "ticks": 8220,
          "time": 13.663558,
          "value": -0.125
        },
        {
          "ticks": 8248,
          "time": 13.710100533333334,
          "value": 0
        },
        {
          "ticks": 10084,
          "time": 16.761960933333334,
          "value": -0.49169921875
        },
        {
          "ticks": 10112,
          "time": 16.808503466666668,
          "value": -0.3125
        },
        {
          "ticks": 10140,
          "time": 16.855046,
          "value": -0.125
        },
        {
          "ticks": 10168,
          "time": 16.901588533333335,
          "value": 0
        },
        {
          "ticks": 12964,
          "time": 21.549192933333334,
          "value": -0.49169921875
        },
        {
          "ticks": 12992,
          "time": 21.595735466666667,
          "value": -0.3125
        },
        {
          "ticks": 13020,
          "time": 21.642278,
          "value": -0.125
        },
        {
          "ticks": 13048,
          "time": 21.688820533333335,
          "value": 0
        },
        {
          "ticks": 13924,
          "time": 23.144936933333334,
          "value": -0.49169921875
        },
        {
          "ticks": 13952,
          "time": 23.191479466666667,
          "value": -0.3125
        },
        {
          "ticks": 13980,
          "time": 23.238022,
          "value": -0.125
        },
        {
          "ticks": 14008,
          "time": 23.284564533333334,
          "value": 0
        }
      ],
      "instrument": {
        "family": "reed",
        "number": 64,
        "name": "soprano sax"
      },
      "name": "",
      "notes": [
        {
          "duration": 0.3789892,
          "durationTicks": 228,
          "midi": 64,
          "name": "E4",
          "ticks": 4,
          "time": 0.006648933333333333,
          "velocity": 1
        },
        {
          "duration": 0.3789892,
          "durationTicks": 228,
          "midi": 74,
          "name": "D5",
          "ticks": 244,
          "time": 0.40558493333333334,
          "velocity": 1
        },
        {
          "duration": 1.1369675999999997,
          "durationTicks": 684,
          "midi": 73,
          "name": "C#5",
          "ticks": 484,
          "time": 0.8045209333333333,
          "velocity": 1
        },
        {
          "duration": 0.37898920000000036,
          "durationTicks": 228,
          "midi": 73,
          "name": "C#5",
          "ticks": 1204,
          "time": 2.0013289333333333,
          "velocity": 1
        },
        {
          "duration": 0.19281906666666693,
          "durationTicks": 116,
          "midi": 73,
          "name": "C#5",
          "ticks": 1444,
          "time": 2.4002649333333332,
          "velocity": 1
        },
        {
          "duration": 0.3789891999999999,
          "durationTicks": 228,
          "midi": 73,
          "name": "C#5",
          "ticks": 1924,
          "time": 3.1981369333333336,
          "velocity": 1
        },
        {
          "duration": 0.37898919999999947,
          "durationTicks": 228,
          "midi": 74,
          "name": "D5",
          "ticks": 2164,
          "time": 3.597072933333334,
          "velocity": 1
        },
        {
          "duration": 1.1369675999999993,
          "durationTicks": 684,
          "midi": 73,
          "name": "C#5",
          "ticks": 2404,
          "time": 3.996008933333334,
          "velocity": 1
        },
        {
          "duration": 0.19281906666666604,
          "durationTicks": 116,
          "midi": 74,
          "name": "D5",
          "ticks": 3124,
          "time": 5.192816933333334,
          "velocity": 1
        },
        {
          "duration": 0.19281906666666604,
          "durationTicks": 116,
          "midi": 73,
          "name": "C#5",
          "ticks": 3244,
          "time": 5.392284933333334,
          "velocity": 1
        },
        {
          "duration": 0.5984040000000004,
          "durationTicks": 360,
          "midi": 71,
          "name": "B4",
          "ticks": 3364,
          "time": 5.591752933333334,
          "velocity": 1
        },
        {
          "duration": 0.37898920000000036,
          "durationTicks": 228,
          "midi": 71,
          "name": "B4",
          "ticks": 3844,
          "time": 6.389624933333333,
          "velocity": 1
        },
        {
          "duration": 0.37898920000000036,
          "durationTicks": 228,
          "midi": 73,
          "name": "C#5",
          "ticks": 4084,
          "time": 6.788560933333333,
          "velocity": 1
        },
        {
          "duration": 1.1369676000000002,
          "durationTicks": 684,
          "midi": 69,
          "name": "A4",
          "ticks": 4324,
          "time": 7.187496933333334,
          "velocity": 1
        },
        {
          "duration": 0.37898919999999947,
          "durationTicks": 228,
          "midi": 69,
          "name": "A4",
          "ticks": 5044,
          "time": 8.384304933333333,
          "velocity": 1
        },
        {
          "duration": 0.7579784000000007,
          "durationTicks": 456,
          "midi": 73,
          "name": "C#5",
          "ticks": 5284,
          "time": 8.783240933333333,
          "velocity": 1
        },
        {
          "duration": 0.7579784000000007,
          "durationTicks": 456,
          "midi": 76,
          "name": "E5",
          "ticks": 5764,
          "time": 9.581112933333333,
          "velocity": 1
        },
        {
          "duration": 1.5159567999999997,
          "durationTicks": 912,
          "midi": 76,
          "name": "E5",
          "ticks": 6244,
          "time": 10.378984933333333,
          "velocity": 1
        },
        {
          "duration": 0.37898920000000125,
          "durationTicks": 228,
          "midi": 69,
          "name": "A4",
          "ticks": 7684,
          "time": 12.772600933333333,
          "velocity": 1
        },
        {
          "duration": 0.37898920000000125,
          "durationTicks": 228,
          "midi": 76,
          "name": "E5",
          "ticks": 7924,
          "time": 13.171536933333334,
          "velocity": 1
        },
        {
          "duration": 0.7579784000000007,
          "durationTicks": 456,
          "midi": 76,
          "name": "E5",
          "ticks": 8164,
          "time": 13.570472933333333,
          "velocity": 1
        },
        {
          "duration": 0.37898920000000125,
          "durationTicks": 228,
          "midi": 74,
          "name": "D5",
          "ticks": 8644,
          "time": 14.368344933333333,
          "velocity": 1
        },
        {
          "duration": 0.37898920000000125,
          "durationTicks": 228,
          "midi": 74,
          "name": "D5",
          "ticks": 8884,
          "time": 14.767280933333334,
          "velocity": 1
        },
        {
          "duration": 0.37898920000000125,
          "durationTicks": 228,
          "midi": 74,
          "name": "D5",
          "ticks": 9124,
          "time": 15.166216933333333,
          "velocity": 1
        },
        {
          "duration": 0.378989200000003,
          "durationTicks": 228,
          "midi": 73,
          "name": "C#5",
          "ticks": 9604,
          "time": 15.964088933333333,
          "velocity": 1
        },
        {
          "duration": 0.378989200000003,
          "durationTicks": 228,
          "midi": 71,
          "name": "B4",
          "ticks": 9844,
          "time": 16.36302493333333,
          "velocity": 1
        },
        {
          "duration": 1.1369675999999984,
          "durationTicks": 684,
          "midi": 74,
          "name": "D5",
          "ticks": 10084,
          "time": 16.761960933333334,
          "velocity": 1
        },
        {
          "duration": 0.37898919999999947,
          "durationTicks": 228,
          "midi": 73,
          "name": "C#5",
          "ticks": 10804,
          "time": 17.958768933333335,
          "velocity": 1
        },
        {
          "duration": 0.19281906666666515,
          "durationTicks": 116,
          "midi": 71,
          "name": "B4",
          "ticks": 11044,
          "time": 18.357704933333334,
          "velocity": 1
        },
        {
          "duration": 0.5718082666666682,
          "durationTicks": 344,
          "midi": 69,
          "name": "A4",
          "ticks": 11164,
          "time": 18.557172933333334,
          "velocity": 1
        },
        {
          "duration": 0.37898919999999947,
          "durationTicks": 228,
          "midi": 69,
          "name": "A4",
          "ticks": 11764,
          "time": 19.554512933333335,
          "velocity": 1
        },
        {
          "duration": 1.1369675999999984,
          "durationTicks": 684,
          "midi": 69,
          "name": "A4",
          "ticks": 12004,
          "time": 19.953448933333334,
          "velocity": 1
        },
        {
          "duration": 0.37898919999999947,
          "durationTicks": 228,
          "midi": 71,
          "name": "B4",
          "ticks": 12724,
          "time": 21.150256933333335,
          "velocity": 1
        },
        {
          "duration": 0.5718082666666682,
          "durationTicks": 344,
          "midi": 72,
          "name": "C5",
          "ticks": 12964,
          "time": 21.549192933333334,
          "velocity": 1
        },
        {
          "duration": 0.378989200000003,
          "durationTicks": 228,
          "midi": 71,
          "name": "B4",
          "ticks": 13444,
          "time": 22.347064933333332,
          "velocity": 1
        },
        {
          "duration": 0.37898919999999947,
          "durationTicks": 228,
          "midi": 69,
          "name": "A4",
          "ticks": 13684,
          "time": 22.746000933333335,
          "velocity": 1
        },
        {
          "duration": 1.5159568000000014,
          "durationTicks": 912,
          "midi": 71,
          "name": "B4",
          "ticks": 13924,
          "time": 23.144936933333334,
          "velocity": 1
        }
      ]
    },
    {
      "channel": 0,
      "controlChanges": {},
      "pitchBends": [],
      "instrument": {
        "family": "piano",
        "number": 0,
        "name": "acoustic grand piano"
      },
      "name": "untitled",
      "notes": [],
      "endOfTrackTicks": 17280
    },
    {
      "channel": 1,
      "controlChanges": {
        "7": [
          {
            "number": 7,
            "ticks": 0,
            "time": 0,
            "value": 0.8661417322834646
          }
        ],
        "10": [
          {
            "number": 10,
            "ticks": 0,
            "time": 0,
            "value": 0.5039370078740157
          }
        ]
      },
      "pitchBends": [
        {
          "ticks": 14648,
          "time": 24.348393866666665,
          "value": -0.984375
        },
        {
          "ticks": 14672,
          "time": 24.388287466666668,
          "value": -0.6875
        },
        {
          "ticks": 14688,
          "time": 24.414883200000002,
          "value": -0.46875
        },
        {
          "ticks": 14720,
          "time": 24.46807466666667,
          "value": -0.265625
        },
        {
          "ticks": 14748,
          "time": 24.514617200000004,
          "value": -0.125
        },
        {
          "ticks": 14776,
          "time": 24.561159733333337,
          "value": 0
        }
      ],
      "instrument": {
        "family": "bass",
        "number": 33,
        "name": "electric bass (finger)"
      },
      "name": "",
      "notes": [
        {
          "duration": 0.7579783999999999,
          "durationTicks": 456,
          "midi": 45,
          "name": "A2",
          "ticks": 484,
          "time": 0.8045209333333333,
          "velocity": 1
        },
        {
          "duration": 0.09308506666666672,
          "durationTicks": 56,
          "midi": 45,
          "name": "A2",
          "ticks": 964,
          "time": 1.6023929333333333,
          "velocity": 1
        },
        {
          "duration": 0.37898920000000036,
          "durationTicks": 228,
          "midi": 45,
          "name": "A2",
          "ticks": 1204,
          "time": 2.0013289333333333,
          "velocity": 1
        },
        {
          "duration": 0.37898920000000036,
          "durationTicks": 228,
          "midi": 45,
          "name": "A2",
          "ticks": 1444,
          "time": 2.4002649333333332,
          "velocity": 1
        },
        {
          "duration": 0.3789891999999999,
          "durationTicks": 228,
          "midi": 49,
          "name": "C#3",
          "ticks": 1924,
          "time": 3.1981369333333336,
          "velocity": 1
        },
        {
          "duration": 0.37898919999999947,
          "durationTicks": 228,
          "midi": 50,
          "name": "D3",
          "ticks": 2164,
          "time": 3.597072933333334,
          "velocity": 1
        },
        {
          "duration": 0.7579783999999989,
          "durationTicks": 456,
          "midi": 52,
          "name": "E3",
          "ticks": 2404,
          "time": 3.996008933333334,
          "velocity": 1
        },
        {
          "duration": 0.37898919999999947,
          "durationTicks": 228,
          "midi": 52,
          "name": "E3",
          "ticks": 3124,
          "time": 5.192816933333334,
          "velocity": 1
        },
        {
          "duration": 0.7579783999999998,
          "durationTicks": 456,
          "midi": 52,
          "name": "E3",
          "ticks": 3364,
          "time": 5.591752933333334,
          "velocity": 1
        },
        {
          "duration": 0.7579784000000016,
          "durationTicks": 456,
          "midi": 53,
          "name": "F3",
          "ticks": 3844,
          "time": 6.389624933333333,
          "velocity": 1
        },
        {
          "duration": 0.7579784000000007,
          "durationTicks": 456,
          "midi": 54,
          "name": "F#3",
          "ticks": 4324,
          "time": 7.187496933333334,
          "velocity": 1
        },
        {
          "duration": 0.37898919999999947,
          "durationTicks": 228,
          "midi": 54,
          "name": "F#3",
          "ticks": 5044,
          "time": 8.384304933333333,
          "velocity": 1
        },
        {
          "duration": 1.5957439999999998,
          "durationTicks": 960,
          "midi": 54,
          "name": "F#3",
          "ticks": 5284,
          "time": 8.783240933333333,
          "velocity": 1
        },
        {
          "duration": 0.7579784000000007,
          "durationTicks": 456,
          "midi": 49,
          "name": "C#3",
          "ticks": 6244,
          "time": 10.378984933333333,
          "velocity": 1
        },
        {
          "duration": 0.37898919999999947,
          "durationTicks": 228,
          "midi": 49,
          "name": "C#3",
          "ticks": 6964,
          "time": 11.575792933333334,
          "velocity": 1
        },
        {
          "duration": 0.9574464000000003,
          "durationTicks": 576,
          "midi": 49,
          "name": "C#3",
          "ticks": 7204,
          "time": 11.974728933333333,
          "velocity": 1
        },
        {
          "duration": 0.19281906666666693,
          "durationTicks": 116,
          "midi": 45,
          "name": "A2",
          "ticks": 7924,
          "time": 13.171536933333334,
          "velocity": 1
        },
        {
          "duration": 0.7579784000000007,
          "durationTicks": 456,
          "midi": 50,
          "name": "D3",
          "ticks": 8164,
          "time": 13.570472933333333,
          "velocity": 1
        },
        {
          "duration": 0.37898920000000125,
          "durationTicks": 228,
          "midi": 50,
          "name": "D3",
          "ticks": 8884,
          "time": 14.767280933333334,
          "velocity": 1
        },
        {
          "duration": 1.1369676000000002,
          "durationTicks": 684,
          "midi": 50,
          "name": "D3",
          "ticks": 9124,
          "time": 15.166216933333333,
          "velocity": 1
        },
        {
          "duration": 0.7978719999999981,
          "durationTicks": 480,
          "midi": 44,
          "name": "G#2",
          "ticks": 10084,
          "time": 16.761960933333334,
          "velocity": 1
        },
        {
          "duration": 0.7978720000000017,
          "durationTicks": 480,
          "midi": 53,
          "name": "F3",
          "ticks": 10564,
          "time": 17.559832933333333,
          "velocity": 1
        },
        {
          "duration": 1.1369675999999984,
          "durationTicks": 684,
          "midi": 54,
          "name": "F#3",
          "ticks": 11044,
          "time": 18.357704933333334,
          "velocity": 1
        },
        {
          "duration": 0.7579783999999989,
          "durationTicks": 456,
          "midi": 53,
          "name": "F3",
          "ticks": 12004,
          "time": 19.953448933333334,
          "velocity": 1
        },
        {
          "duration": 0.37898919999999947,
          "durationTicks": 228,
          "midi": 53,
          "name": "F3",
          "ticks": 12724,
          "time": 21.150256933333335,
          "velocity": 1
        },
        {
          "duration": 1.3962760000000003,
          "durationTicks": 840,
          "midi": 53,
          "name": "F3",
          "ticks": 12964,
          "time": 21.549192933333334,
          "velocity": 1
        },
        {
          "duration": 0.7579783999999989,
          "durationTicks": 456,
          "midi": 52,
          "name": "E3",
          "ticks": 13924,
          "time": 23.144936933333334,
          "velocity": 1
        },
        {
          "duration": 0.37898919999999947,
          "durationTicks": 228,
          "midi": 47,
          "name": "B2",
          "ticks": 14644,
          "time": 24.341744933333334,
          "velocity": 1
        },
        {
          "duration": 0.7579783999999989,
          "durationTicks": 456,
          "midi": 52,
          "name": "E3",
          "ticks": 14884,
          "time": 24.740680933333334,
          "velocity": 1
        }
      ]
    },
    {
      "channel": 0,
      "controlChanges": {},
      "pitchBends": [],
      "instrument": {
        "family": "piano",
        "number": 0,
        "name": "acoustic grand piano"
      },
      "name": "untitled",
      "notes": [],
      "endOfTrackTicks": 17280
    },
    {
      "channel": 2,
      "controlChanges": {
        "7": [
          {
            "number": 7,
            "ticks": 0,
            "time": 0,
            "value": 0.6299212598425197
          }
        ],
        "10": [
          {
            "number": 10,
            "ticks": 0,
            "time": 0,
            "value": 0.5039370078740157
          }
        ]
      },
      "pitchBends": [],
      "instrument": {
        "family": "guitar",
        "number": 27,
        "name": "electric guitar (clean)"
      },
      "name": "",
      "notes": [
        {
          "duration": 0.797872,
          "durationTicks": 480,
          "midi": 45,
          "name": "A2",
          "ticks": 484,
          "time": 0.8045209333333333,
          "velocity": 1
        },
        {
          "duration": 0.7978719999999999,
          "durationTicks": 480,
          "midi": 61,
          "name": "C#4",
          "ticks": 724,
          "time": 1.2034569333333334,
          "velocity": 1
        },
        {
          "duration": 0.7978719999999999,
          "durationTicks": 480,
          "midi": 52,
          "name": "E3",
          "ticks": 1204,
          "time": 2.0013289333333333,
          "velocity": 1
        },
        {
          "duration": 0.7978720000000004,
          "durationTicks": 480,
          "midi": 62,
          "name": "D4",
          "ticks": 1444,
          "time": 2.4002649333333332,
          "velocity": 1
        },
        {
          "duration": 1.1968080000000008,
          "durationTicks": 720,
          "midi": 61,
          "name": "C#4",
          "ticks": 1684,
          "time": 2.799200933333333,
          "velocity": 1
        },
        {
          "duration": 0.5984039999999995,
          "durationTicks": 360,
          "midi": 40,
          "name": "E2",
          "ticks": 2404,
          "time": 3.996008933333334,
          "velocity": 1
        },
        {
          "duration": 0.7978719999999999,
          "durationTicks": 480,
          "midi": 59,
          "name": "B3",
          "ticks": 2644,
          "time": 4.394944933333334,
          "velocity": 1
        },
        {
          "duration": 0.7978719999999999,
          "durationTicks": 480,
          "midi": 52,
          "name": "E3",
          "ticks": 3124,
          "time": 5.192816933333334,
          "velocity": 1
        },
        {
          "duration": 0.797871999999999,
          "durationTicks": 480,
          "midi": 62,
          "name": "D4",
          "ticks": 3364,
          "time": 5.591752933333334,
          "velocity": 1
        },
        {
          "duration": 0.39893599999999907,
          "durationTicks": 240,
          "midi": 40,
          "name": "E2",
          "ticks": 3604,
          "time": 5.990688933333334,
          "velocity": 1
        },
        {
          "duration": 0.7978720000000008,
          "durationTicks": 480,
          "midi": 61,
          "name": "C#4",
          "ticks": 3844,
          "time": 6.389624933333333,
          "velocity": 1
        },
        {
          "duration": 0.39893600000000085,
          "durationTicks": 240,
          "midi": 41,
          "name": "F2",
          "ticks": 4084,
          "time": 6.788560933333333,
          "velocity": 1
        },
        {
          "duration": 0.7978719999999999,
          "durationTicks": 480,
          "midi": 42,
          "name": "F#2",
          "ticks": 4324,
          "time": 7.187496933333334,
          "velocity": 1
        },
        {
          "duration": 0.797871999999999,
          "durationTicks": 480,
          "midi": 61,
          "name": "C#4",
          "ticks": 4564,
          "time": 7.586432933333334,
          "velocity": 1
        },
        {
          "duration": 0.7978719999999999,
          "durationTicks": 480,
          "midi": 54,
          "name": "F#3",
          "ticks": 5044,
          "time": 8.384304933333333,
          "velocity": 1
        },
        {
          "duration": 0.7978719999999999,
          "durationTicks": 480,
          "midi": 62,
          "name": "D4",
          "ticks": 5284,
          "time": 8.783240933333333,
          "velocity": 1
        },
        {
          "duration": 0.7978719999999999,
          "durationTicks": 480,
          "midi": 61,
          "name": "C#4",
          "ticks": 5764,
          "time": 9.581112933333333,
          "velocity": 1
        },
        {
          "duration": 0.7978719999999999,
          "durationTicks": 480,
          "midi": 44,
          "name": "G#2",
          "ticks": 6244,
          "time": 10.378984933333333,
          "velocity": 1
        },
        {
          "duration": 0.7978719999999999,
          "durationTicks": 480,
          "midi": 52,
          "name": "E3",
          "ticks": 6484,
          "time": 10.777920933333334,
          "velocity": 1
        },
        {
          "duration": 0.7978719999999999,
          "durationTicks": 480,
          "midi": 78,
          "name": "F#5",
          "ticks": 6724,
          "time": 11.176856933333333,
          "velocity": 1
        },
        {
          "duration": 0.7978719999999999,
          "durationTicks": 480,
          "midi": 64,
          "name": "E4",
          "ticks": 6964,
          "time": 11.575792933333334,
          "velocity": 1
        },
        {
          "duration": 0.7978719999999999,
          "durationTicks": 480,
          "midi": 61,
          "name": "C#4",
          "ticks": 7204,
          "time": 11.974728933333333,
          "velocity": 1
        },
        {
          "duration": 0.7978719999999999,
          "durationTicks": 480,
          "midi": 64,
          "name": "E4",
          "ticks": 7444,
          "time": 12.373664933333334,
          "velocity": 1
        },
        {
          "duration": 0.7978719999999999,
          "durationTicks": 480,
          "midi": 57,
          "name": "A3",
          "ticks": 7684,
          "time": 12.772600933333333,
          "velocity": 1
        },
        {
          "duration": 0.39893599999999907,
          "durationTicks": 240,
          "midi": 52,
          "name": "E3",
          "ticks": 7924,
          "time": 13.171536933333334,
          "velocity": 1
        },
        {
          "duration": 0.7978719999999999,
          "durationTicks": 480,
          "midi": 38,
          "name": "D2",
          "ticks": 8164,
          "time": 13.570472933333333,
          "velocity": 1
        },
        {
          "duration": 0.7978719999999999,
          "durationTicks": 480,
          "midi": 57,
          "name": "A3",
          "ticks": 8404,
          "time": 13.969408933333334,
          "velocity": 1
        },
        {
          "duration": 0.7978719999999999,
          "durationTicks": 480,
          "midi": 54,
          "name": "F#3",
          "ticks": 8644,
          "time": 14.368344933333333,
          "velocity": 1
        },
        {
          "duration": 0.7978719999999999,
          "durationTicks": 480,
          "midi": 50,
          "name": "D3",
          "ticks": 9124,
          "time": 15.166216933333333,
          "velocity": 1
        },
        {
          "duration": 0.7978719999999981,
          "durationTicks": 480,
          "midi": 61,
          "name": "C#4",
          "ticks": 9364,
          "time": 15.565152933333334,
          "velocity": 1
        },
        {
          "duration": 0.7978720000000017,
          "durationTicks": 480,
          "midi": 81,
          "name": "A5",
          "ticks": 9604,
          "time": 15.964088933333333,
          "velocity": 1
        },
        {
          "duration": 0.3989360000000026,
          "durationTicks": 240,
          "midi": 62,
          "name": "D4",
          "ticks": 9844,
          "time": 16.36302493333333,
          "velocity": 1
        },
        {
          "duration": 0.7978719999999981,
          "durationTicks": 480,
          "midi": 44,
          "name": "G#2",
          "ticks": 10084,
          "time": 16.761960933333334,
          "velocity": 1
        },
        {
          "duration": 0.7978720000000017,
          "durationTicks": 480,
          "midi": 53,
          "name": "F3",
          "ticks": 10324,
          "time": 17.160896933333333,
          "velocity": 1
        },
        {
          "duration": 0.39893599999999907,
          "durationTicks": 240,
          "midi": 53,
          "name": "F3",
          "ticks": 10804,
          "time": 17.958768933333335,
          "velocity": 1
        },
        {
          "duration": 1.5957439999999998,
          "durationTicks": 960,
          "midi": 42,
          "name": "F#2",
          "ticks": 11044,
          "time": 18.357704933333334,
          "velocity": 1
        },
        {
          "duration": 0.7978719999999981,
          "durationTicks": 480,
          "midi": 54,
          "name": "F#3",
          "ticks": 11044,
          "time": 18.357704933333334,
          "velocity": 1
        },
        {
          "duration": 1.5957439999999998,
          "durationTicks": 960,
          "midi": 57,
          "name": "A3",
          "ticks": 11044,
          "time": 18.357704933333334,
          "velocity": 1
        },
        {
          "duration": 0.7978720000000017,
          "durationTicks": 480,
          "midi": 49,
          "name": "C#3",
          "ticks": 11524,
          "time": 19.155576933333332,
          "velocity": 1
        },
        {
          "duration": 0.7978719999999981,
          "durationTicks": 480,
          "midi": 41,
          "name": "F2",
          "ticks": 12004,
          "time": 19.953448933333334,
          "velocity": 1
        },
        {
          "duration": 0.7978720000000017,
          "durationTicks": 480,
          "midi": 64,
          "name": "E4",
          "ticks": 12244,
          "time": 20.352384933333333,
          "velocity": 1
        },
        {
          "duration": 0.7978720000000017,
          "durationTicks": 480,
          "midi": 60,
          "name": "C4",
          "ticks": 12484,
          "time": 20.751320933333332,
          "velocity": 1
        },
        {
          "duration": 0.7978719999999981,
          "durationTicks": 480,
          "midi": 41,
          "name": "F2",
          "ticks": 12724,
          "time": 21.150256933333335,
          "velocity": 1
        },
        {
          "duration": 0.7978719999999981,
          "durationTicks": 480,
          "midi": 64,
          "name": "E4",
          "ticks": 12964,
          "time": 21.549192933333334,
          "velocity": 1
        },
        {
          "duration": 0.7978720000000017,
          "durationTicks": 480,
          "midi": 60,
          "name": "C4",
          "ticks": 13204,
          "time": 21.948128933333333,
          "velocity": 1
        },
        {
          "duration": 0.7978720000000017,
          "durationTicks": 480,
          "midi": 57,
          "name": "A3",
          "ticks": 13444,
          "time": 22.347064933333332,
          "velocity": 1
        },
        {
          "duration": 0.7978719999999981,
          "durationTicks": 480,
          "midi": 60,
          "name": "C4",
          "ticks": 13684,
          "time": 22.746000933333335,
          "velocity": 1
        },
        {
          "duration": 0.7978720000000017,
          "durationTicks": 480,
          "midi": 59,
          "name": "B3",
          "ticks": 13924,
          "time": 23.144936933333334,
          "velocity": 1
        },
        {
          "duration": 0.7978719999999981,
          "durationTicks": 480,
          "midi": 57,
          "name": "A3",
          "ticks": 14404,
          "time": 23.942808933333335,
          "velocity": 1
        },
        {
          "duration": 0.7978719999999981,
          "durationTicks": 480,
          "midi": 52,
          "name": "E3",
          "ticks": 14644,
          "time": 24.341744933333334,
          "velocity": 1
        },
        {
          "duration": 0.7978720000000017,
          "durationTicks": 480,
          "midi": 56,
          "name": "G#3",
          "ticks": 14884,
          "time": 24.740680933333334,
          "velocity": 1
        }
      ]
    },
    {
      "channel": 0,
      "controlChanges": {},
      "pitchBends": [],
      "instrument": {
        "family": "piano",
        "number": 0,
        "name": "acoustic grand piano"
      },
      "name": "untitled",
      "notes": [],
      "endOfTrackTicks": 17280
    },
    {
      "channel": 3,
      "controlChanges": {
        "7": [
          {
            "number": 7,
            "ticks": 0,
            "time": 0,
            "value": 0.6299212598425197
          }
        ],
        "10": [
          {
            "number": 10,
            "ticks": 0,
            "time": 0,
            "value": 0.5039370078740157
          }
        ]
      },
      "pitchBends": [],
      "instrument": {
        "family": "ensemble",
        "number": 48,
        "name": "string ensemble 1"
      },
      "name": "",
      "notes": [
        {
          "duration": 0.7579784,
          "durationTicks": 456,
          "midi": 86,
          "name": "D6",
          "ticks": 4,
          "time": 0.006648933333333333,
          "velocity": 1
        },
        {
          "duration": 4.5478704,
          "durationTicks": 2736,
          "midi": 85,
          "name": "C#6",
          "ticks": 484,
          "time": 0.8045209333333333,
          "velocity": 1
        },
        {
          "duration": 0.37898919999999947,
          "durationTicks": 228,
          "midi": 86,
          "name": "D6",
          "ticks": 3364,
          "time": 5.591752933333334,
          "velocity": 1
        },
        {
          "duration": 0.37898919999999947,
          "durationTicks": 228,
          "midi": 85,
          "name": "C#6",
          "ticks": 3604,
          "time": 5.990688933333334,
          "velocity": 1
        },
        {
          "duration": 0.7579784000000016,
          "durationTicks": 456,
          "midi": 83,
          "name": "B5",
          "ticks": 3844,
          "time": 6.389624933333333,
          "velocity": 1
        },
        {
          "duration": 1.5159567999999997,
          "durationTicks": 912,
          "midi": 85,
          "name": "C#6",
          "ticks": 4324,
          "time": 7.187496933333334,
          "velocity": 1
        },
        {
          "duration": 0.7579784000000007,
          "durationTicks": 456,
          "midi": 85,
          "name": "C#6",
          "ticks": 5284,
          "time": 8.783240933333333,
          "velocity": 1
        },
        {
          "duration": 0.7579784000000007,
          "durationTicks": 456,
          "midi": 76,
          "name": "E5",
          "ticks": 5764,
          "time": 9.581112933333333,
          "velocity": 1
        },
        {
          "duration": 1.1369676000000002,
          "durationTicks": 684,
          "midi": 76,
          "name": "E5",
          "ticks": 6244,
          "time": 10.378984933333333,
          "velocity": 1
        },
        {
          "duration": 0.37898919999999947,
          "durationTicks": 228,
          "midi": 78,
          "name": "F#5",
          "ticks": 6964,
          "time": 11.575792933333334,
          "velocity": 1
        },
        {
          "duration": 0.7579784000000007,
          "durationTicks": 456,
          "midi": 80,
          "name": "G#5",
          "ticks": 7204,
          "time": 11.974728933333333,
          "velocity": 1
        },
        {
          "duration": 0.7579783999999989,
          "durationTicks": 456,
          "midi": 85,
          "name": "C#6",
          "ticks": 7684,
          "time": 12.772600933333333,
          "velocity": 1
        },
        {
          "duration": 1.5159568000000014,
          "durationTicks": 912,
          "midi": 81,
          "name": "A5",
          "ticks": 8164,
          "time": 13.570472933333333,
          "velocity": 1
        },
        {
          "duration": 1.5159568000000032,
          "durationTicks": 912,
          "midi": 83,
          "name": "B5",
          "ticks": 9124,
          "time": 15.166216933333333,
          "velocity": 1
        },
        {
          "duration": 0.7579783999999989,
          "durationTicks": 456,
          "midi": 83,
          "name": "B5",
          "ticks": 10084,
          "time": 16.761960933333334,
          "velocity": 1
        },
        {
          "duration": 0.7579783999999989,
          "durationTicks": 456,
          "midi": 80,
          "name": "G#5",
          "ticks": 10564,
          "time": 17.559832933333333,
          "velocity": 1
        },
        {
          "duration": 1.5159568000000014,
          "durationTicks": 912,
          "midi": 81,
          "name": "A5",
          "ticks": 11044,
          "time": 18.357704933333334,
          "velocity": 1
        },
        {
          "duration": 1.5159568000000014,
          "durationTicks": 912,
          "midi": 88,
          "name": "E6",
          "ticks": 12004,
          "time": 19.953448933333334,
          "velocity": 1
        },
        {
          "duration": 0.19281906666666515,
          "durationTicks": 116,
          "midi": 81,
          "name": "A5",
          "ticks": 12964,
          "time": 21.549192933333334,
          "velocity": 1
        },
        {
          "duration": 0.1928190666666687,
          "durationTicks": 116,
          "midi": 83,
          "name": "B5",
          "ticks": 13084,
          "time": 21.748660933333333,
          "velocity": 1
        },
        {
          "duration": 0.1928190666666687,
          "durationTicks": 116,
          "midi": 84,
          "name": "C6",
          "ticks": 13204,
          "time": 21.948128933333333,
          "velocity": 1
        },
        {
          "duration": 0.1928190666666687,
          "durationTicks": 116,
          "midi": 81,
          "name": "A5",
          "ticks": 13324,
          "time": 22.147596933333332,
          "velocity": 1
        },
        {
          "duration": 0.7579784000000025,
          "durationTicks": 456,
          "midi": 86,
          "name": "D6",
          "ticks": 13444,
          "time": 22.347064933333332,
          "velocity": 1
        },
        {
          "duration": 0.7579783999999989,
          "durationTicks": 456,
          "midi": 88,
          "name": "E6",
          "ticks": 13924,
          "time": 23.144936933333334,
          "velocity": 1
        },
        {
          "duration": 0.09308506666666716,
          "durationTicks": 56,
          "midi": 87,
          "name": "D#6",
          "ticks": 14404,
          "time": 23.942808933333335,
          "velocity": 1
        },
        {
          "duration": 0.09308506666666716,
          "durationTicks": 56,
          "midi": 86,
          "name": "D6",
          "ticks": 14464,
          "time": 24.042542933333333,
          "velocity": 1
        },
        {
          "duration": 0.09308506666666716,
          "durationTicks": 56,
          "midi": 84,
          "name": "C6",
          "ticks": 14524,
          "time": 24.142276933333335,
          "velocity": 1
        },
        {
          "duration": 0.09308506666666716,
          "durationTicks": 56,
          "midi": 83,
          "name": "B5",
          "ticks": 14584,
          "time": 24.242010933333333,
          "velocity": 1
        },
        {
          "duration": 0.09308506666666716,
          "durationTicks": 56,
          "midi": 81,
          "name": "A5",
          "ticks": 14644,
          "time": 24.341744933333334,
          "velocity": 1
        },
        {
          "duration": 0.09308506666666716,
          "durationTicks": 56,
          "midi": 80,
          "name": "G#5",
          "ticks": 14704,
          "time": 24.441478933333332,
          "velocity": 1
        },
        {
          "duration": 0.09308506666666716,
          "durationTicks": 56,
          "midi": 78,
          "name": "F#5",
          "ticks": 14764,
          "time": 24.541212933333334,
          "velocity": 1
        },
        {
          "duration": 0.8510634666666661,
          "durationTicks": 512,
          "midi": 76,
          "name": "E5",
          "ticks": 14824,
          "time": 24.640946933333336,
          "velocity": 1
        }
      ]
    },
    {
      "channel": 0,
      "controlChanges": {},
      "pitchBends": [],
      "instrument": {
        "family": "piano",
        "number": 0,
        "name": "acoustic grand piano"
      },
      "name": "untitled",
      "notes": [],
      "endOfTrackTicks": 17280
    },
    {
      "channel": 4,
      "controlChanges": {
        "7": [
          {
            "number": 7,
            "ticks": 0,
            "time": 0,
            "value": 0.6299212598425197
          }
        ],
        "10": [
          {
            "number": 10,
            "ticks": 0,
            "time": 0,
            "value": 0.5039370078740157
          }
        ]
      },
      "pitchBends": [],
      "instrument": {
        "family": "ensemble",
        "number": 48,
        "name": "string ensemble 1"
      },
      "name": "",
      "notes": [
        {
          "duration": 0.7579784,
          "durationTicks": 456,
          "midi": 62,
          "name": "D4",
          "ticks": 4,
          "time": 0.006648933333333333,
          "velocity": 1
        },
        {
          "duration": 4.5478704,
          "durationTicks": 2736,
          "midi": 64,
          "name": "E4",
          "ticks": 484,
          "time": 0.8045209333333333,
          "velocity": 1
        },
        {
          "duration": 0.37898919999999947,
          "durationTicks": 228,
          "midi": 74,
          "name": "D5",
          "ticks": 3364,
          "time": 5.591752933333334,
          "velocity": 1
        },
        {
          "duration": 0.37898919999999947,
          "durationTicks": 228,
          "midi": 73,
          "name": "C#5",
          "ticks": 3604,
          "time": 5.990688933333334,
          "velocity": 1
        },
        {
          "duration": 0.7579784000000016,
          "durationTicks": 456,
          "midi": 71,
          "name": "B4",
          "ticks": 3844,
          "time": 6.389624933333333,
          "velocity": 1
        },
        {
          "duration": 1.5159567999999997,
          "durationTicks": 912,
          "midi": 73,
          "name": "C#5",
          "ticks": 4324,
          "time": 7.187496933333334,
          "velocity": 1
        },
        {
          "duration": 0.7579784000000007,
          "durationTicks": 456,
          "midi": 73,
          "name": "C#5",
          "ticks": 5284,
          "time": 8.783240933333333,
          "velocity": 1
        },
        {
          "duration": 0.7579784000000007,
          "durationTicks": 456,
          "midi": 64,
          "name": "E4",
          "ticks": 5764,
          "time": 9.581112933333333,
          "velocity": 1
        },
        {
          "duration": 1.1369676000000002,
          "durationTicks": 684,
          "midi": 64,
          "name": "E4",
          "ticks": 6244,
          "time": 10.378984933333333,
          "velocity": 1
        },
        {
          "duration": 0.37898919999999947,
          "durationTicks": 228,
          "midi": 66,
          "name": "F#4",
          "ticks": 6964,
          "time": 11.575792933333334,
          "velocity": 1
        },
        {
          "duration": 0.7579784000000007,
          "durationTicks": 456,
          "midi": 68,
          "name": "G#4",
          "ticks": 7204,
          "time": 11.974728933333333,
          "velocity": 1
        },
        {
          "duration": 0.7579783999999989,
          "durationTicks": 456,
          "midi": 73,
          "name": "C#5",
          "ticks": 7684,
          "time": 12.772600933333333,
          "velocity": 1
        },
        {
          "duration": 1.5159568000000014,
          "durationTicks": 912,
          "midi": 69,
          "name": "A4",
          "ticks": 8164,
          "time": 13.570472933333333,
          "velocity": 1
        },
        {
          "duration": 1.5159568000000032,
          "durationTicks": 912,
          "midi": 71,
          "name": "B4",
          "ticks": 9124,
          "time": 15.166216933333333,
          "velocity": 1
        },
        {
          "duration": 0.7579783999999989,
          "durationTicks": 456,
          "midi": 71,
          "name": "B4",
          "ticks": 10084,
          "time": 16.761960933333334,
          "velocity": 1
        },
        {
          "duration": 0.7579783999999989,
          "durationTicks": 456,
          "midi": 68,
          "name": "G#4",
          "ticks": 10564,
          "time": 17.559832933333333,
          "velocity": 1
        },
        {
          "duration": 1.5159568000000014,
          "durationTicks": 912,
          "midi": 69,
          "name": "A4",
          "ticks": 11044,
          "time": 18.357704933333334,
          "velocity": 1
        },
        {
          "duration": 1.5159568000000014,
          "durationTicks": 912,
          "midi": 76,
          "name": "E5",
          "ticks": 12004,
          "time": 19.953448933333334,
          "velocity": 1
        },
        {
          "duration": 0.19281906666666515,
          "durationTicks": 116,
          "midi": 69,
          "name": "A4",
          "ticks": 12964,
          "time": 21.549192933333334,
          "velocity": 1
        },
        {
          "duration": 0.1928190666666687,
          "durationTicks": 116,
          "midi": 71,
          "name": "B4",
          "ticks": 13084,
          "time": 21.748660933333333,
          "velocity": 1
        },
        {
          "duration": 0.1928190666666687,
          "durationTicks": 116,
          "midi": 72,
          "name": "C5",
          "ticks": 13204,
          "time": 21.948128933333333,
          "velocity": 1
        },
        {
          "duration": 0.1928190666666687,
          "durationTicks": 116,
          "midi": 69,
          "name": "A4",
          "ticks": 13324,
          "time": 22.147596933333332,
          "velocity": 1
        },
        {
          "duration": 0.7579784000000025,
          "durationTicks": 456,
          "midi": 74,
          "name": "D5",
          "ticks": 13444,
          "time": 22.347064933333332,
          "velocity": 1
        },
        {
          "duration": 0.7579783999999989,
          "durationTicks": 456,
          "midi": 76,
          "name": "E5",
          "ticks": 13924,
          "time": 23.144936933333334,
          "velocity": 1
        },
        {
          "duration": 0.09308506666666716,
          "durationTicks": 56,
          "midi": 75,
          "name": "D#5",
          "ticks": 14404,
          "time": 23.942808933333335,
          "velocity": 1
        },
        {
          "duration": 0.09308506666666716,
          "durationTicks": 56,
          "midi": 74,
          "name": "D5",
          "ticks": 14464,
          "time": 24.042542933333333,
          "velocity": 1
        },
        {
          "duration": 0.09308506666666716,
          "durationTicks": 56,
          "midi": 72,
          "name": "C5",
          "ticks": 14524,
          "time": 24.142276933333335,
          "velocity": 1
        },
        {
          "duration": 0.09308506666666716,
          "durationTicks": 56,
          "midi": 71,
          "name": "B4",
          "ticks": 14584,
          "time": 24.242010933333333,
          "velocity": 1
        },
        {
          "duration": 0.09308506666666716,
          "durationTicks": 56,
          "midi": 69,
          "name": "A4",
          "ticks": 14644,
          "time": 24.341744933333334,
          "velocity": 1
        },
        {
          "duration": 0.09308506666666716,
          "durationTicks": 56,
          "midi": 68,
          "name": "G#4",
          "ticks": 14704,
          "time": 24.441478933333332,
          "velocity": 1
        },
        {
          "duration": 0.09308506666666716,
          "durationTicks": 56,
          "midi": 66,
          "name": "F#4",
          "ticks": 14764,
          "time": 24.541212933333334,
          "velocity": 1
        },
        {
          "duration": 0.8510634666666661,
          "durationTicks": 512,
          "midi": 64,
          "name": "E4",
          "ticks": 14824,
          "time": 24.640946933333336,
          "velocity": 1
        }
      ]
    },
    {
      "channel": 0,
      "controlChanges": {},
      "pitchBends": [],
      "instrument": {
        "family": "piano",
        "number": 0,
        "name": "acoustic grand piano"
      },
      "name": "untitled",
      "notes": [],
      "endOfTrackTicks": 17280
    },
    {
      "channel": 7,
      "controlChanges": {
        "7": [
          {
            "number": 7,
            "ticks": 0,
            "time": 0,
            "value": 0.47244094488188976
          }
        ],
        "10": [
          {
            "number": 10,
            "ticks": 0,
            "time": 0,
            "value": 0.5039370078740157
          }
        ]
      },
      "pitchBends": [],
      "instrument": {
        "family": "synth pad",
        "number": 89,
        "name": "pad 2 (warm)"
      },
      "name": "",
      "notes": [
        {
          "duration": 3.7898920000000005,
          "durationTicks": 2280,
          "midi": 52,
          "name": "E3",
          "ticks": 4,
          "time": 0.006648933333333333,
          "velocity": 1
        },
        {
          "duration": 0.7579784,
          "durationTicks": 456,
          "midi": 59,
          "name": "B3",
          "ticks": 4,
          "time": 0.006648933333333333,
          "velocity": 1
        },
        {
          "duration": 2.2739352,
          "durationTicks": 1368,
          "midi": 61,
          "name": "C#4",
          "ticks": 484,
          "time": 0.8045209333333333,
          "velocity": 1
        },
        {
          "duration": 0.3789891999999999,
          "durationTicks": 228,
          "midi": 61,
          "name": "C#4",
          "ticks": 1924,
          "time": 3.1981369333333336,
          "velocity": 1
        },
        {
          "duration": 0.37898919999999947,
          "durationTicks": 228,
          "midi": 62,
          "name": "D4",
          "ticks": 2164,
          "time": 3.597072933333334,
          "velocity": 1
        },
        {
          "duration": 2.2739351999999995,
          "durationTicks": 1368,
          "midi": 56,
          "name": "G#3",
          "ticks": 2404,
          "time": 3.996008933333334,
          "velocity": 1
        },
        {
          "duration": 2.2739351999999995,
          "durationTicks": 1368,
          "midi": 64,
          "name": "E4",
          "ticks": 2404,
          "time": 3.996008933333334,
          "velocity": 1
        },
        {
          "duration": 0.7579784000000016,
          "durationTicks": 456,
          "midi": 60,
          "name": "C4",
          "ticks": 3844,
          "time": 6.389624933333333,
          "velocity": 1
        },
        {
          "duration": 0.7579784000000016,
          "durationTicks": 456,
          "midi": 65,
          "name": "F4",
          "ticks": 3844,
          "time": 6.389624933333333,
          "velocity": 1
        },
        {
          "duration": 6.0638272,
          "durationTicks": 3648,
          "midi": 61,
          "name": "C#4",
          "ticks": 4324,
          "time": 7.187496933333334,
          "velocity": 1
        },
        {
          "duration": 3.031913600000001,
          "durationTicks": 1824,
          "midi": 66,
          "name": "F#4",
          "ticks": 4324,
          "time": 7.187496933333334,
          "velocity": 1
        },
        {
          "duration": 3.031913600000001,
          "durationTicks": 1824,
          "midi": 68,
          "name": "G#4",
          "ticks": 6244,
          "time": 10.378984933333333,
          "velocity": 1
        },
        {
          "duration": 3.031913600000001,
          "durationTicks": 1824,
          "midi": 57,
          "name": "A3",
          "ticks": 8164,
          "time": 13.570472933333333,
          "velocity": 1
        },
        {
          "duration": 3.031913600000001,
          "durationTicks": 1824,
          "midi": 66,
          "name": "F#4",
          "ticks": 8164,
          "time": 13.570472933333333,
          "velocity": 1
        },
        {
          "duration": 1.5159568000000014,
          "durationTicks": 912,
          "midi": 56,
          "name": "G#3",
          "ticks": 10084,
          "time": 16.761960933333334,
          "velocity": 1
        },
        {
          "duration": 1.5159568000000014,
          "durationTicks": 912,
          "midi": 65,
          "name": "F4",
          "ticks": 10084,
          "time": 16.761960933333334,
          "velocity": 1
        },
        {
          "duration": 1.5159568000000014,
          "durationTicks": 912,
          "midi": 54,
          "name": "F#3",
          "ticks": 11044,
          "time": 18.357704933333334,
          "velocity": 1
        },
        {
          "duration": 1.5159568000000014,
          "durationTicks": 912,
          "midi": 61,
          "name": "C#4",
          "ticks": 11044,
          "time": 18.357704933333334,
          "velocity": 1
        },
        {
          "duration": 3.0319135999999993,
          "durationTicks": 1824,
          "midi": 53,
          "name": "F3",
          "ticks": 12004,
          "time": 19.953448933333334,
          "velocity": 1
        },
        {
          "duration": 3.0319135999999993,
          "durationTicks": 1824,
          "midi": 60,
          "name": "C4",
          "ticks": 12004,
          "time": 19.953448933333334,
          "velocity": 1
        },
        {
          "duration": 2.2739352000000004,
          "durationTicks": 1368,
          "midi": 52,
          "name": "E3",
          "ticks": 13924,
          "time": 23.144936933333334,
          "velocity": 1
        },
        {
          "duration": 2.2739352000000004,
          "durationTicks": 1368,
          "midi": 59,
          "name": "B3",
          "ticks": 13924,
          "time": 23.144936933333334,
          "velocity": 1
        }
      ]
    }
  ]
}