{
    "header": {
      "keySignatures": [
        {
          "key": "D",
          "scale": "major",
          "ticks": 0
        }
      ],
      "meta": [],
      "name": "",
      "ppq": 480,
      "tempos": [
        {
          "bpm": 40,
          "ticks": 0
        },
        {
          "bpm": 38.99998830000351,
          "ticks": 67248
        },
        {
          "bpm": 38.000008866668736,
          "ticks": 67344
        },
        {
          "bpm": 36.99999136666868,
          "ticks": 67440
        },
        {
          "bpm": 35.99999280000144,
          "ticks": 67536
        },
        {
          "bpm": 34.99999416666764,
          "ticks": 67632
        },
        {
          "bpm": 33.99999773333349,
          "ticks": 67680
        },
        {
          "bpm": 32.99999670000033,
          "ticks": 67776
        },
        {
          "bpm": 32,
          "ticks": 67872
        },
        {
          "bpm": 30.99999793333347,
          "ticks": 67968
        },
        {
          "bpm": 30,
          "ticks": 68064
        },
        {
          "bpm": 28.999993233334912,
          "ticks": 68160
        },
        {
          "bpm": 28.000001866666793,
          "ticks": 68208
        },
        {
          "bpm": 27.00000270000027,
          "ticks": 68304
        },
        {
          "bpm": 26.000003466667128,
          "ticks": 68400
        },
        {
          "bpm": 25,
          "ticks": 68496
        },
        {
          "bpm": 24,
          "ticks": 68592
        },
        {
          "bpm": 22.999996933333744,
          "ticks": 68688
        },
        {
          "bpm": 21.99999780000022,
          "ticks": 68736
        },
        {
          "bpm": 20.99999895000005,
          "ticks": 68832
        },
        {
          "bpm": 20,
          "ticks": 68928
        },
        {
          "bpm": 18.9999984166668,
          "ticks": 69024
        },
        {
          "bpm": 18.00000180000018,
          "ticks": 69120
        },
        {
          "bpm": 16.999998866666743,
          "ticks": 69168
        }
      ],
      "timeSignatures": [
        {
          "ticks": 0,
          "timeSignature": [
            4,
            4
          ],
          "measures": 0
        }
      ]
    },
    "tracks": [
      {
        "channel": 0,
        "controlChanges": {},
        "pitchBends": [],
        "instrument": {
          "family": "piano",
          "number": 0,
          "name": "acoustic grand piano"
        },
        "name": "untitled",
        "notes": [],
        "endOfTrackTicks": 69120
      },
      {
        "channel": 0,
        "controlChanges": {
          "7": [
            {
              "number": 7,
              "ticks": 0,
              "time": 0,
              "value": 0.7480314960629921
            }
          ],
          "10": [
            {
              "number": 10,
              "ticks": 0,
              "time": 0,
              "value": 0.15748031496062992
            }
          ],
          "64": [
            {
              "number": 64,
              "ticks": 1180,
              "time": 3.6875,
              "value": 0
            },
            {
              "number": 64,
              "ticks": 12700,
              "time": 39.6875,
              "value": 0
            }
          ],
          "66": [
            {
              "number": 66,
              "ticks": 1176,
              "time": 3.6750000000000003,
              "value": 0
            },
            {
              "number": 66,
              "ticks": 12696,
              "time": 39.675,
              "value": 0
            }
          ]
        },
        "pitchBends": [],
        "instrument": {
          "family": "strings",
          "number": 43,
          "name": "contrabass"
        },
        "name": "",
        "notes": [
          {
            "duration": 0.5,
            "durationTicks": 160,
            "midi": 38,
            "name": "D2",
            "ticks": 0,
            "time": 0,
            "velocity": 0.33858267716535434
          },
          {
            "duration": 0.7749999999999999,
            "durationTicks": 248,
            "midi": 50,
            "name": "D3",
            "ticks": 240,
            "time": 0.75,
            "velocity": 0.36220472440944884
          },
          {
            "duration": 0.75,
            "durationTicks": 240,
            "midi": 49,
            "name": "C#3",
            "ticks": 480,
            "time": 1.5,
            "velocity": 0.4015748031496063
          },
          {
            "duration": 0.6625000000000001,
            "durationTicks": 212,
            "midi": 37,
            "name": "C#2",
            "ticks": 720,
            "time": 2.25,
            "velocity": 0.3543307086614173
          },
          {
            "duration": 0.5499999999999998,
            "durationTicks": 176,
            "midi": 35,
            "name": "B1",
            "ticks": 960,
            "time": 3,
            "velocity": 0.33070866141732286
          },
          {
            "duration": 0.75,
            "durationTicks": 240,
            "midi": 47,
            "name": "B2",
            "ticks": 1200,
            "time": 3.75,
            "velocity": 0.30708661417322836
          },
          {
            "duration": 0.7999999999999998,
            "durationTicks": 256,
            "midi": 45,
            "name": "A2",
            "ticks": 1440,
            "time": 4.5,
            "velocity": 0.41732283464566927
          },
          {
            "duration": 0.75,
            "durationTicks": 240,
            "midi": 33,
            "name": "A1",
            "ticks": 1680,
            "time": 5.25,
            "velocity": 0.47244094488188976
          },
          {
            "duration": 0.6500000000000004,
            "durationTicks": 208,
            "midi": 31,
            "name": "G1",
            "ticks": 1920,
            "time": 6,
            "velocity": 0.4251968503937008
          },
          {
            "duration": 0.7124999999999995,
            "durationTicks": 228,
            "midi": 43,
            "name": "G2",
            "ticks": 2160,
            "time": 6.75,
            "velocity": 0.31496062992125984
          },
          {
            "duration": 0.75,
            "durationTicks": 240,
            "midi": 44,
            "name": "G#2",
            "ticks": 2400,
            "time": 7.5,
            "velocity": 0.4251968503937008
          },
          {
            "duration": 0.7374999999999989,
            "durationTicks": 236,
            "midi": 32,
            "name": "G#1",
            "ticks": 2640,
            "time": 8.25,
            "velocity": 0.4251968503937008
          },
          {
            "duration": 0.4250000000000007,
            "durationTicks": 136,
            "midi": 33,
            "name": "A1",
            "ticks": 2880,
            "time": 9,
            "velocity": 0.4330708661417323
          },
          {
            "duration": 0.75,
            "durationTicks": 240,
            "midi": 45,
            "name": "A2",
            "ticks": 3120,
            "time": 9.75,
            "velocity": 0.3937007874015748
          },
          {
            "duration": 0.75,
            "durationTicks": 240,
            "midi": 43,
            "name": "G2",
            "ticks": 3360,
            "time": 10.5,
            "velocity": 0.4330708661417323
          },
          {
            "duration": 0.6875,
            "durationTicks": 220,
            "midi": 31,
            "name": "G1",
            "ticks": 3600,
            "time": 11.25,
            "velocity": 0.44881889763779526
          },
          {
            "duration": 0.6000000000000014,
            "durationTicks": 192,
            "midi": 30,
            "name": "F#1",
            "ticks": 3840,
            "time": 12,
            "velocity": 0.4015748031496063
          },
          {
            "duration": 0.7750000000000021,
            "durationTicks": 248,
            "midi": 42,
            "name": "F#2",
            "ticks": 4080,
            "time": 12.75,
            "velocity": 0.30708661417322836
          },
          {
            "duration": 0.7124999999999986,
            "durationTicks": 228,
            "midi": 40,
            "name": "E2",
            "ticks": 4320,
            "time": 13.5,
            "velocity": 0.5196850393700787
          },
          {
            "duration": 0.6749999999999989,
            "durationTicks": 216,
            "midi": 28,
            "name": "E1",
            "ticks": 4560,
            "time": 14.25,
            "velocity": 0.4566929133858268
          },
          {
            "duration": 0.5749999999999993,
            "durationTicks": 184,
            "midi": 27,
            "name": "D#1",
            "ticks": 4800,
            "time": 15,
            "velocity": 0.41732283464566927
          },
          {
            "duration": 0.7624999999999993,
            "durationTicks": 244,
            "midi": 39,
            "name": "D#2",
            "ticks": 5040,
            "time": 15.75,
            "velocity": 0.3543307086614173
          },
          {
            "duration": 0.5374999999999979,
            "durationTicks": 172,
            "midi": 35,
            "name": "B1",
            "ticks": 5280,
            "time": 16.5,
            "velocity": 0.2992125984251969
          },
          {
            "duration": 0.4250000000000007,
            "durationTicks": 136,
            "midi": 47,
            "name": "B2",
            "ticks": 5520,
            "time": 17.25,
            "velocity": 0.3464566929133858
          },
          {
            "duration": 0.6375000000000028,
            "durationTicks": 204,
            "midi": 28,
            "name": "E1",
            "ticks": 5760,
            "time": 18,
            "velocity": 0.4645669291338583
          },
          {
            "duration": 0.7875000000000014,
            "durationTicks": 252,
            "midi": 40,
            "name": "E2",
            "ticks": 6000,
            "time": 18.75,
            "velocity": 0.3543307086614173
          },
          {
            "duration": 0.7375000000000007,
            "durationTicks": 236,
            "midi": 38,
            "name": "D2",
            "ticks": 6240,
            "time": 19.5,
            "velocity": 0.4251968503937008
          },
          {
            "duration": 0.6875,
            "durationTicks": 220,
            "midi": 26,
            "name": "D1",
            "ticks": 6480,
            "time": 20.25,
            "velocity": 0.3779527559055118
          },
          {
            "duration": 0.5,
            "durationTicks": 160,
            "midi": 25,
            "name": "C#1",
            "ticks": 6720,
            "time": 21,
            "velocity": 0.4645669291338583
          },
          {
            "duration": 0.6999999999999993,
            "durationTicks": 224,
            "midi": 37,
            "name": "C#2",
            "ticks": 7020,
            "time": 21.9375,
            "velocity": 0.3543307086614173
          },
          {
            "duration": 0.7750000000000021,
            "durationTicks": 248,
            "midi": 33,
            "name": "A1",
            "ticks": 7200,
            "time": 22.5,
            "velocity": 0.41732283464566927
          },
          {
            "duration": 0.6625000000000014,
            "durationTicks": 212,
            "midi": 45,
            "name": "A2",
            "ticks": 7440,
            "time": 23.25,
            "velocity": 0.3543307086614173
          },
          {
            "duration": 0.4750000000000014,
            "durationTicks": 152,
            "midi": 38,
            "name": "D2",
            "ticks": 7680,
            "time": 24,
            "velocity": 0.4330708661417323
          },
          {
            "duration": 0.75,
            "durationTicks": 240,
            "midi": 50,
            "name": "D3",
            "ticks": 7920,
            "time": 24.75,
            "velocity": 0.3700787401574803
          },
          {
            "duration": 0.8000000000000043,
            "durationTicks": 256,
            "midi": 49,
            "name": "C#3",
            "ticks": 8160,
            "time": 25.5,
            "velocity": 0.4645669291338583
          },
          {
            "duration": 0.45000000000000284,
            "durationTicks": 144,
            "midi": 37,
            "name": "C#2",
            "ticks": 8400,
            "time": 26.25,
            "velocity": 0.44881889763779526
          },
          {
            "duration": 0.6499999999999986,
            "durationTicks": 208,
            "midi": 35,
            "name": "B1",
            "ticks": 8640,
            "time": 27,
            "velocity": 0.4094488188976378
          },
          {
            "duration": 0.7749999999999986,
            "durationTicks": 248,
            "midi": 47,
            "name": "B2",
            "ticks": 8880,
            "time": 27.75,
            "velocity": 0.33858267716535434
          },
          {
            "duration": 0.7375000000000007,
            "durationTicks": 236,
            "midi": 44,
            "name": "G#2",
            "ticks": 9120,
            "time": 28.5,
            "velocity": 0.4251968503937008
          },
          {
            "duration": 0.7624999999999993,
            "durationTicks": 244,
            "midi": 40,
            "name": "E2",
            "ticks": 9360,
            "time": 29.25,
            "velocity": 0.4645669291338583
          },
          {
            "duration": 0.7375000000000007,
            "durationTicks": 236,
            "midi": 45,
            "name": "A2",
            "ticks": 9600,
            "time": 30,
            "velocity": 0.3858267716535433
          },
          {
            "duration": 0.75,
            "durationTicks": 240,
            "midi": 38,
            "name": "D2",
            "ticks": 9840,
            "time": 30.75,
            "velocity": 0.4015748031496063
          },
          {
            "duration": 0.7874999999999943,
            "durationTicks": 252,
            "midi": 40,
            "name": "E2",
            "ticks": 10080,
            "time": 31.5,
            "velocity": 0.47244094488188976
          },
          {
            "duration": 0.4124999999999943,
            "durationTicks": 132,
            "midi": 28,
            "name": "E1",
            "ticks": 10320,
            "time": 32.25,
            "velocity": 0.48031496062992124
          },
          {
            "duration": 0.3125,
            "durationTicks": 100,
            "midi": 33,
            "name": "A1",
            "ticks": 10560,
            "time": 33,
            "velocity": 0.4566929133858268
          },
          {
            "duration": 0.3500000000000014,
            "durationTicks": 112,
            "midi": 35,
            "name": "B1",
            "ticks": 10680,
            "time": 33.375,
            "velocity": 0.4094488188976378
          },
          {
            "duration": 0.3125,
            "durationTicks": 100,
            "midi": 37,
            "name": "C#2",
            "ticks": 10800,
            "time": 33.75,
            "velocity": 0.44881889763779526
          },
          {
            "duration": 0.3500000000000014,
            "durationTicks": 112,
            "midi": 38,
            "name": "D2",
            "ticks": 10920,
            "time": 34.125,
            "velocity": 0.3700787401574803
          },
          {
            "duration": 0.4124999999999943,
            "durationTicks": 132,
            "midi": 40,
            "name": "E2",
            "ticks": 11040,
            "time": 34.5,
            "velocity": 0.48031496062992124
          },
          {
            "duration": 0.36249999999999716,
            "durationTicks": 116,
            "midi": 43,
            "name": "G2",
            "ticks": 11160,
            "time": 34.875,
            "velocity": 0.4251968503937008
          },
          {
            "duration": 0.3500000000000014,
            "durationTicks": 112,
            "midi": 42,
            "name": "F#2",
            "ticks": 11280,
            "time": 35.25,
            "velocity": 0.4330708661417323
          },
          {
            "duration": 0.3500000000000014,
            "durationTicks": 112,
            "midi": 40,
            "name": "E2",
            "ticks": 11400,
            "time": 35.625,
            "velocity": 0.4645669291338583
          },
          {
            "duration": 0.5,
            "durationTicks": 160,
            "midi": 38,
            "name": "D2",
            "ticks": 11520,
            "time": 36,
            "velocity": 0.33858267716535434
          },
          {
            "duration": 0.7749999999999986,
            "durationTicks": 248,
            "midi": 50,
            "name": "D3",
            "ticks": 11760,
            "time": 36.75,
            "velocity": 0.36220472440944884
          },
          {
            "duration": 0.75,
            "durationTicks": 240,
            "midi": 49,
            "name": "C#3",
            "ticks": 12000,
            "time": 37.5,
            "velocity": 0.4015748031496063
          },
          {
            "duration": 0.6625000000000014,
            "durationTicks": 212,
            "midi": 37,
            "name": "C#2",
            "ticks": 12240,
            "time": 38.25,
            "velocity": 0.3543307086614173
          },
          {
            "duration": 0.5499999999999972,
            "durationTicks": 176,
            "midi": 35,
            "name": "B1",
            "ticks": 12480,
            "time": 39,
            "velocity": 0.33070866141732286
          },
          {
            "duration": 0.75,
            "durationTicks": 240,
            "midi": 47,
            "name": "B2",
            "ticks": 12720,
            "time": 39.75,
            "velocity": 0.30708661417322836
          },
          {
            "duration": 0.8000000000000043,
            "durationTicks": 256,
            "midi": 45,
            "name": "A2",
            "ticks": 12960,
            "time": 40.5,
            "velocity": 0.41732283464566927
          },
          {
            "duration": 0.75,
            "durationTicks": 240,
            "midi": 33,
            "name": "A1",
            "ticks": 13200,
            "time": 41.25,
            "velocity": 0.47244094488188976
          },
          {
            "duration": 0.6499999999999986,
            "durationTicks": 208,
            "midi": 31,
            "name": "G1",
            "ticks": 13440,
            "time": 42,
            "velocity": 0.4251968503937008
          },
          {
            "duration": 0.7125000000000057,
            "durationTicks": 228,
            "midi": 43,
            "name": "G2",
            "ticks": 13680,
            "time": 42.75,
            "velocity": 0.31496062992125984
          },
          {
            "duration": 0.75,
            "durationTicks": 240,
            "midi": 44,
            "name": "G#2",
            "ticks": 13920,
            "time": 43.5,
            "velocity": 0.4251968503937008
          },
          {
            "duration": 0.7374999999999972,
            "durationTicks": 236,
            "midi": 32,
            "name": "G#1",
            "ticks": 14160,
            "time": 44.25,
            "velocity": 0.4251968503937008
          },
          {
            "duration": 0.42500000000000426,
            "durationTicks": 136,
            "midi": 33,
            "name": "A1",
            "ticks": 14400,
            "time": 45,
            "velocity": 0.4330708661417323
          },
          {
            "duration": 0.75,
            "durationTicks": 240,
            "midi": 45,
            "name": "A2",
            "ticks": 14640,
            "time": 45.75,
            "velocity": 0.3937007874015748
          },
          {
            "duration": 0.75,
            "durationTicks": 240,
            "midi": 43,
            "name": "G2",
            "ticks": 14880,
            "time": 46.5,
            "velocity": 0.4330708661417323
          },
          {
            "duration": 0.6875,
            "durationTicks": 220,
            "midi": 31,
            "name": "G1",
            "ticks": 15120,
            "time": 47.25,
            "velocity": 0.44881889763779526
          },
          {
            "duration": 0.5999999999999943,
            "durationTicks": 192,
            "midi": 30,
            "name": "F#1",
            "ticks": 15360,
            "time": 48,
            "velocity": 0.4015748031496063
          },
          {
            "duration": 0.7749999999999986,
            "durationTicks": 248,
            "midi": 42,
            "name": "F#2",
            "ticks": 15600,
            "time": 48.75,
            "velocity": 0.30708661417322836
          },
          {
            "duration": 0.7125000000000057,
            "durationTicks": 228,
            "midi": 40,
            "name": "E2",
            "ticks": 15840,
            "time": 49.5,
            "velocity": 0.5196850393700787
          },
          {
            "duration": 0.6750000000000043,
            "durationTicks": 216,
            "midi": 28,
            "name": "E1",
            "ticks": 16080,
            "time": 50.25,
            "velocity": 0.4566929133858268
          },
          {
            "duration": 0.5750000000000028,
            "durationTicks": 184,
            "midi": 27,
            "name": "D#1",
            "ticks": 16320,
            "time": 51,
            "velocity": 0.41732283464566927
          },
          {
            "duration": 0.7625000000000028,
            "durationTicks": 244,
            "midi": 39,
            "name": "D#2",
            "ticks": 16560,
            "time": 51.75,
            "velocity": 0.3543307086614173
          },
          {
            "duration": 0.5375000000000014,
            "durationTicks": 172,
            "midi": 35,
            "name": "B1",
            "ticks": 16800,
            "time": 52.5,
            "velocity": 0.2992125984251969
          },
          {
            "duration": 0.42499999999999716,
            "durationTicks": 136,
            "midi": 47,
            "name": "B2",
            "ticks": 17040,
            "time": 53.25,
            "velocity": 0.3464566929133858
          },
          {
            "duration": 0.6374999999999957,
            "durationTicks": 204,
            "midi": 28,
            "name": "E1",
            "ticks": 17280,
            "time": 54,
            "velocity": 0.4645669291338583
          },
          {
            "duration": 0.7874999999999943,
            "durationTicks": 252,
            "midi": 40,
            "name": "E2",
            "ticks": 17520,
            "time": 54.75,
            "velocity": 0.3543307086614173
          },
          {
            "duration": 0.7374999999999972,
            "durationTicks": 236,
            "midi": 38,
            "name": "D2",
            "ticks": 17760,
            "time": 55.5,
            "velocity": 0.4251968503937008
          },
          {
            "duration": 0.6875,
            "durationTicks": 220,
            "midi": 26,
            "name": "D1",
            "ticks": 18000,
            "time": 56.25,
            "velocity": 0.3779527559055118
          },
          {
            "duration": 0.5625,
            "durationTicks": 180,
            "midi": 25,
            "name": "C#1",
            "ticks": 18240,
            "time": 57,
            "velocity": 0.3543307086614173
          },
          {
            "duration": 0.7000000000000028,
            "durationTicks": 224,
            "midi": 37,
            "name": "C#2",
            "ticks": 18480,
            "time": 57.75,
            "velocity": 0.3543307086614173
          },
          {
            "duration": 0.7749999999999986,
            "durationTicks": 248,
            "midi": 33,
            "name": "A1",
            "ticks": 18720,
            "time": 58.5,
            "velocity": 0.41732283464566927
          },
          {
            "duration": 0.6625000000000085,
            "durationTicks": 212,
            "midi": 45,
            "name": "A2",
            "ticks": 18960,
            "time": 59.25,
            "velocity": 0.3543307086614173
          },
          {
            "duration": 0.4750000000000085,
            "durationTicks": 152,
            "midi": 38,
            "name": "D2",
            "ticks": 19200,
            "time": 60,
            "velocity": 0.4330708661417323
          },
          {
            "duration": 0.75,
            "durationTicks": 240,
            "midi": 50,
            "name": "D3",
            "ticks": 19440,
            "time": 60.75,
            "velocity": 0.3700787401574803
          },
          {
            "duration": 0.7999999999999972,
            "durationTicks": 256,
            "midi": 49,
            "name": "C#3",
            "ticks": 19680,
            "time": 61.5,
            "velocity": 0.4645669291338583
          },
          {
            "duration": 0.44999999999999574,
            "durationTicks": 144,
            "midi": 37,
            "name": "C#2",
            "ticks": 19920,
            "time": 62.25,
            "velocity": 0.44881889763779526
          },
          {
            "duration": 0.6499999999999915,
            "durationTicks": 208,
            "midi": 35,
            "name": "B1",
            "ticks": 20160,
            "time": 63,
            "velocity": 0.4094488188976378
          },
          {
            "duration": 0.7750000000000057,
            "durationTicks": 248,
            "midi": 47,
            "name": "B2",
            "ticks": 20400,
            "time": 63.75,
            "velocity": 0.33858267716535434
          },
          {
            "duration": 0.7374999999999972,
            "durationTicks": 236,
            "midi": 44,
            "name": "G#2",
            "ticks": 20640,
            "time": 64.5,
            "velocity": 0.4251968503937008
          },
          {
            "duration": 0.7625000000000028,
            "durationTicks": 244,
            "midi": 40,
            "name": "E2",
            "ticks": 20880,
            "time": 65.25,
            "velocity": 0.4645669291338583
          },
          {
            "duration": 0.7374999999999972,
            "durationTicks": 236,
            "midi": 45,
            "name": "A2",
            "ticks": 21120,
            "time": 66,
            "velocity": 0.3858267716535433
          },
          {
            "duration": 0.75,
            "durationTicks": 240,
            "midi": 38,
            "name": "D2",
            "ticks": 21360,
            "time": 66.75,
            "velocity": 0.4015748031496063
          },
          {
            "duration": 0.7874999999999943,
            "durationTicks": 252,
            "midi": 40,
            "name": "E2",
            "ticks": 21600,
            "time": 67.5,
            "velocity": 0.47244094488188976
          },
          {
            "duration": 0.4124999999999943,
            "durationTicks": 132,
            "midi": 28,
            "name": "E1",
            "ticks": 21840,
            "time": 68.25,
            "velocity": 0.48031496062992124
          },
          {
            "duration": 0.3125,
            "durationTicks": 100,
            "midi": 33,
            "name": "A1",
            "ticks": 22080,
            "time": 69,
            "velocity": 0.4566929133858268
          },
          {
            "duration": 0.3499999999999943,
            "durationTicks": 112,
            "midi": 35,
            "name": "B1",
            "ticks": 22200,
            "time": 69.375,
            "velocity": 0.4094488188976378
          },
          {
            "duration": 0.3125,
            "durationTicks": 100,
            "midi": 37,
            "name": "C#2",
            "ticks": 22320,
            "time": 69.75,
            "velocity": 0.44881889763779526
          },
          {
            "duration": 0.3499999999999943,
            "durationTicks": 112,
            "midi": 38,
            "name": "D2",
            "ticks": 22440,
            "time": 70.125,
            "velocity": 0.3700787401574803
          },
          {
            "duration": 0.4124999999999943,
            "durationTicks": 132,
            "midi": 40,
            "name": "E2",
            "ticks": 22560,
            "time": 70.5,
            "velocity": 0.48031496062992124
          },
          {
            "duration": 0.36249999999999716,
            "durationTicks": 116,
            "midi": 43,
            "name": "G2",
            "ticks": 22680,
            "time": 70.875,
            "velocity": 0.4251968503937008
          },
          {
            "duration": 0.3499999999999943,
            "durationTicks": 112,
            "midi": 42,
            "name": "F#2",
            "ticks": 22800,
            "time": 71.25,
            "velocity": 0.4330708661417323
          },
          {
            "duration": 0.3499999999999943,
            "durationTicks": 112,
            "midi": 40,
            "name": "E2",
            "ticks": 22920,
            "time": 71.625,
            "velocity": 0.4645669291338583
          },
          {
            "duration": 0.4124999999999943,
            "durationTicks": 132,
            "midi": 33,
            "name": "A1",
            "ticks": 23100,
            "time": 72.1875,
            "velocity": 0.4330708661417323
          },
          {
            "duration": 0.6750000000000114,
            "durationTicks": 216,
            "midi": 45,
            "name": "A2",
            "ticks": 23280,
            "time": 72.75,
            "velocity": 0.3543307086614173
          },
          {
            "duration": 0.7249999999999943,
            "durationTicks": 232,
            "midi": 43,
            "name": "G2",
            "ticks": 23520,
            "time": 73.5,
            "velocity": 0.3937007874015748
          },
          {
            "duration": 0.6875,
            "durationTicks": 220,
            "midi": 31,
            "name": "G1",
            "ticks": 23760,
            "time": 74.25,
            "velocity": 0.4330708661417323
          },
          {
            "duration": 0.5125000000000028,
            "durationTicks": 164,
            "midi": 30,
            "name": "F#1",
            "ticks": 24000,
            "time": 75,
            "velocity": 0.47244094488188976
          },
          {
            "duration": 0.7625000000000028,
            "durationTicks": 244,
            "midi": 42,
            "name": "F#2",
            "ticks": 24240,
            "time": 75.75,
            "velocity": 0.33858267716535434
          },
          {
            "duration": 0.7625000000000028,
            "durationTicks": 244,
            "midi": 40,
            "name": "E2",
            "ticks": 24480,
            "time": 76.5,
            "velocity": 0.4881889763779528
          },
          {
            "duration": 0.44999999999998863,
            "durationTicks": 144,
            "midi": 28,
            "name": "E1",
            "ticks": 24720,
            "time": 77.25,
            "velocity": 0.5118110236220472
          },
          {
            "duration": 0.6124999999999972,
            "durationTicks": 196,
            "midi": 27,
            "name": "D#1",
            "ticks": 24960,
            "time": 78,
            "velocity": 0.48031496062992124
          },
          {
            "duration": 0.7625000000000028,
            "durationTicks": 244,
            "midi": 39,
            "name": "D#2",
            "ticks": 25200,
            "time": 78.75,
            "velocity": 0.4251968503937008
          },
          {
            "duration": 0.8125,
            "durationTicks": 260,
            "midi": 42,
            "name": "F#2",
            "ticks": 25440,
            "time": 79.5,
            "velocity": 0.4094488188976378
          },
          {
            "duration": 0.7750000000000057,
            "durationTicks": 248,
            "midi": 35,
            "name": "B1",
            "ticks": 25680,
            "time": 80.25,
            "velocity": 0.4015748031496063
          },
          {
            "duration": 0.4375,
            "durationTicks": 140,
            "midi": 40,
            "name": "E2",
            "ticks": 25920,
            "time": 81,
            "velocity": 0.49606299212598426
          },
          {
            "duration": 0.7000000000000028,
            "durationTicks": 224,
            "midi": 52,
            "name": "E3",
            "ticks": 26160,
            "time": 81.75,
            "velocity": 0.4566929133858268
          },
          {
            "duration": 0.7750000000000057,
            "durationTicks": 248,
            "midi": 50,
            "name": "D3",
            "ticks": 26400,
            "time": 82.5,
            "velocity": 0.4251968503937008
          },
          {
            "duration": 0.7999999999999972,
            "durationTicks": 256,
            "midi": 38,
            "name": "D2",
            "ticks": 26640,
            "time": 83.25,
            "velocity": 0.48031496062992124
          },
          {
            "duration": 0.4750000000000085,
            "durationTicks": 152,
            "midi": 37,
            "name": "C#2",
            "ticks": 26880,
            "time": 84,
            "velocity": 0.3228346456692913
          },
          {
            "duration": 0.6625000000000085,
            "durationTicks": 212,
            "midi": 49,
            "name": "C#3",
            "ticks": 27120,
            "time": 84.75,
            "velocity": 0.3464566929133858
          },
          {
            "duration": 0.75,
            "durationTicks": 240,
            "midi": 47,
            "name": "B2",
            "ticks": 27300,
            "time": 85.3125,
            "velocity": 0.33858267716535434
          },
          {
            "duration": 0.5499999999999972,
            "durationTicks": 176,
            "midi": 35,
            "name": "B1",
            "ticks": 27540,
            "time": 86.0625,
            "velocity": 0.3937007874015748
          },
          {
            "duration": 0.7999999999999972,
            "durationTicks": 256,
            "midi": 34,
            "name": "A#1",
            "ticks": 27780,
            "time": 86.8125,
            "velocity": 0.4409448818897638
          },
          {
            "duration": 0.7374999999999972,
            "durationTicks": 236,
            "midi": 35,
            "name": "B1",
            "ticks": 28020,
            "time": 87.5625,
            "velocity": 0.4015748031496063
          },
          {
            "duration": 0.8249999999999886,
            "durationTicks": 264,
            "midi": 37,
            "name": "C#2",
            "ticks": 28260,
            "time": 88.3125,
            "velocity": 0.4566929133858268
          },
          {
            "duration": 0.42499999999999716,
            "durationTicks": 136,
            "midi": 34,
            "name": "A#1",
            "ticks": 28500,
            "time": 89.0625,
            "velocity": 0.5196850393700787
          },
          {
            "duration": 0.4624999999999915,
            "durationTicks": 148,
            "midi": 35,
            "name": "B1",
            "ticks": 28800,
            "time": 90,
            "velocity": 0.4330708661417323
          },
          {
            "duration": 0.7750000000000057,
            "durationTicks": 248,
            "midi": 43,
            "name": "G2",
            "ticks": 29040,
            "time": 90.75,
            "velocity": 0.4015748031496063
          },
          {
            "duration": 0.7750000000000057,
            "durationTicks": 248,
            "midi": 40,
            "name": "E2",
            "ticks": 29280,
            "time": 91.5,
            "velocity": 0.3937007874015748
          },
          {
            "duration": 0.5999999999999943,
            "durationTicks": 192,
            "midi": 42,
            "name": "F#2",
            "ticks": 29520,
            "time": 92.25,
            "velocity": 0.41732283464566927
          },
          {
            "duration": 0.7374999999999972,
            "durationTicks": 236,
            "midi": 35,
            "name": "B1",
            "ticks": 29760,
            "time": 93,
            "velocity": 0.4645669291338583
          },
          {
            "duration": 0.7374999999999972,
            "durationTicks": 236,
            "midi": 47,
            "name": "B2",
            "ticks": 30000,
            "time": 93.75,
            "velocity": 0.3464566929133858
          },
          {
            "duration": 0.7249999999999943,
            "durationTicks": 232,
            "midi": 45,
            "name": "A2",
            "ticks": 30240,
            "time": 94.5,
            "velocity": 0.4251968503937008
          },
          {
            "duration": 0.762500000000017,
            "durationTicks": 244,
            "midi": 33,
            "name": "A1",
            "ticks": 30480,
            "time": 95.25,
            "velocity": 0.41732283464566927
          },
          {
            "duration": 0.737499999999983,
            "durationTicks": 236,
            "midi": 32,
            "name": "G#1",
            "ticks": 30720,
            "time": 96,
            "velocity": 0.48031496062992124
          },
          {
            "duration": 0.7750000000000057,
            "durationTicks": 248,
            "midi": 44,
            "name": "G#2",
            "ticks": 30960,
            "time": 96.75,
            "velocity": 0.41732283464566927
          },
          {
            "duration": 0.8249999999999886,
            "durationTicks": 264,
            "midi": 42,
            "name": "F#2",
            "ticks": 31200,
            "time": 97.5,
            "velocity": 0.41732283464566927
          },
          {
            "duration": 0.6624999999999943,
            "durationTicks": 212,
            "midi": 30,
            "name": "F#1",
            "ticks": 31440,
            "time": 98.25,
            "velocity": 0.4645669291338583
          },
          {
            "duration": 0.625,
            "durationTicks": 200,
            "midi": 28,
            "name": "E1",
            "ticks": 31680,
            "time": 99,
            "velocity": 0.41732283464566927
          },
          {
            "duration": 0.75,
            "durationTicks": 240,
            "midi": 40,
            "name": "E2",
            "ticks": 31920,
            "time": 99.75,
            "velocity": 0.4881889763779528
          },
          {
            "duration": 0.7875000000000085,
            "durationTicks": 252,
            "midi": 38,
            "name": "D2",
            "ticks": 32160,
            "time": 100.5,
            "velocity": 0.4645669291338583
          },
          {
            "duration": 0.7124999999999915,
            "durationTicks": 228,
            "midi": 26,
            "name": "D1",
            "ticks": 32400,
            "time": 101.25,
            "velocity": 0.4251968503937008
          },
          {
            "duration": 0.4375,
            "durationTicks": 140,
            "midi": 25,
            "name": "C#1",
            "ticks": 32640,
            "time": 102,
            "velocity": 0.5039370078740157
          },
          {
            "duration": 0.75,
            "durationTicks": 240,
            "midi": 37,
            "name": "C#2",
            "ticks": 32880,
            "time": 102.75,
            "velocity": 0.36220472440944884
          },
          {
            "duration": 0.737499999999983,
            "durationTicks": 236,
            "midi": 38,
            "name": "D2",
            "ticks": 33120,
            "time": 103.5,
            "velocity": 0.48031496062992124
          },
          {
            "duration": 0.7249999999999943,
            "durationTicks": 232,
            "midi": 40,
            "name": "E2",
            "ticks": 33360,
            "time": 104.25,
            "velocity": 0.41732283464566927
          },
          {
            "duration": 0.5374999999999943,
            "durationTicks": 172,
            "midi": 33,
            "name": "A1",
            "ticks": 33600,
            "time": 105,
            "velocity": 0.44881889763779526
          },
          {
            "duration": 0.75,
            "durationTicks": 240,
            "midi": 45,
            "name": "A2",
            "ticks": 33840,
            "time": 105.75,
            "velocity": 0.4015748031496063
          },
          {
            "duration": 0.762500000000017,
            "durationTicks": 244,
            "midi": 43,
            "name": "G2",
            "ticks": 34080,
            "time": 106.5,
            "velocity": 0.3937007874015748
          },
          {
            "duration": 0.6875,
            "durationTicks": 220,
            "midi": 31,
            "name": "G1",
            "ticks": 34320,
            "time": 107.25,
            "velocity": 0.48031496062992124
          },
          {
            "duration": 0.6000000000000085,
            "durationTicks": 192,
            "midi": 30,
            "name": "F#1",
            "ticks": 34500,
            "time": 107.8125,
            "velocity": 0.4881889763779528
          },
          {
            "duration": 0.762500000000017,
            "durationTicks": 244,
            "midi": 42,
            "name": "F#2",
            "ticks": 34800,
            "time": 108.75,
            "velocity": 0.4251968503937008
          },
          {
            "duration": 0.762500000000017,
            "durationTicks": 244,
            "midi": 43,
            "name": "G2",
            "ticks": 35040,
            "time": 109.5,
            "velocity": 0.3858267716535433
          },
          {
            "duration": 0.4749999999999943,
            "durationTicks": 152,
            "midi": 31,
            "name": "G1",
            "ticks": 35280,
            "time": 110.25,
            "velocity": 0.36220472440944884
          },
          {
            "duration": 0.7875000000000085,
            "durationTicks": 252,
            "midi": 32,
            "name": "G#1",
            "ticks": 35520,
            "time": 111,
            "velocity": 0.4566929133858268
          },
          {
            "duration": 0.7000000000000028,
            "durationTicks": 224,
            "midi": 44,
            "name": "G#2",
            "ticks": 35760,
            "time": 111.75,
            "velocity": 0.47244094488188976
          },
          {
            "duration": 0.8249999999999886,
            "durationTicks": 264,
            "midi": 45,
            "name": "A2",
            "ticks": 36000,
            "time": 112.5,
            "velocity": 0.4015748031496063
          },
          {
            "duration": 0.575000000000017,
            "durationTicks": 184,
            "midi": 33,
            "name": "A1",
            "ticks": 36240,
            "time": 113.25,
            "velocity": 0.44881889763779526
          },
          {
            "duration": 0.8125,
            "durationTicks": 260,
            "midi": 34,
            "name": "A#1",
            "ticks": 36480,
            "time": 114,
            "velocity": 0.5118110236220472
          },
          {
            "duration": 0.737499999999983,
            "durationTicks": 236,
            "midi": 46,
            "name": "A#2",
            "ticks": 36720,
            "time": 114.75,
            "velocity": 0.47244094488188976
          },
          {
            "duration": 0.8125,
            "durationTicks": 260,
            "midi": 47,
            "name": "B2",
            "ticks": 36960,
            "time": 115.5,
            "velocity": 0.3937007874015748
          },
          {
            "duration": 0.44999999999998863,
            "durationTicks": 144,
            "midi": 35,
            "name": "B1",
            "ticks": 37200,
            "time": 116.25,
            "velocity": 0.4094488188976378
          },
          {
            "duration": 0.5625,
            "durationTicks": 180,
            "midi": 40,
            "name": "E2",
            "ticks": 37440,
            "time": 117,
            "velocity": 0.5196850393700787
          },
          {
            "duration": 0.75,
            "durationTicks": 240,
            "midi": 52,
            "name": "E3",
            "ticks": 37680,
            "time": 117.75,
            "velocity": 0.4251968503937008
          },
          {
            "duration": 0.7875000000000085,
            "durationTicks": 252,
            "midi": 50,
            "name": "D3",
            "ticks": 37920,
            "time": 118.5,
            "velocity": 0.4409448818897638
          },
          {
            "duration": 0.7124999999999915,
            "durationTicks": 228,
            "midi": 38,
            "name": "D2",
            "ticks": 38160,
            "time": 119.25,
            "velocity": 0.4645669291338583
          },
          {
            "duration": 0.5875000000000057,
            "durationTicks": 188,
            "midi": 37,
            "name": "C#2",
            "ticks": 38400,
            "time": 120,
            "velocity": 0.4566929133858268
          },
          {
            "duration": 0.75,
            "durationTicks": 240,
            "midi": 49,
            "name": "C#3",
            "ticks": 38640,
            "time": 120.75,
            "velocity": 0.4330708661417323
          },
          {
            "duration": 0.7750000000000057,
            "durationTicks": 248,
            "midi": 45,
            "name": "A2",
            "ticks": 38880,
            "time": 121.5,
            "velocity": 0.3543307086614173
          },
          {
            "duration": 0.762500000000017,
            "durationTicks": 244,
            "midi": 49,
            "name": "C#3",
            "ticks": 39120,
            "time": 122.25,
            "velocity": 0.3543307086614173
          },
          {
            "duration": 0.7000000000000028,
            "durationTicks": 224,
            "midi": 50,
            "name": "D3",
            "ticks": 39360,
            "time": 123,
            "velocity": 0.3700787401574803
          },
          {
            "duration": 0.6624999999999943,
            "durationTicks": 212,
            "midi": 38,
            "name": "D2",
            "ticks": 39600,
            "time": 123.75,
            "velocity": 0.4094488188976378
          },
          {
            "duration": 0.7875000000000085,
            "durationTicks": 252,
            "midi": 36,
            "name": "C2",
            "ticks": 39840,
            "time": 124.5,
            "velocity": 0.4409448818897638
          },
          {
            "duration": 0.737499999999983,
            "durationTicks": 236,
            "midi": 48,
            "name": "C3",
            "ticks": 40080,
            "time": 125.25,
            "velocity": 0.3464566929133858
          },
          {
            "duration": 0.7875000000000085,
            "durationTicks": 252,
            "midi": 47,
            "name": "B2",
            "ticks": 40320,
            "time": 126,
            "velocity": 0.41732283464566927
          },
          {
            "duration": 0.6500000000000057,
            "durationTicks": 208,
            "midi": 35,
            "name": "B1",
            "ticks": 40560,
            "time": 126.75,
            "velocity": 0.4330708661417323
          },
          {
            "duration": 0.7875000000000227,
            "durationTicks": 252,
            "midi": 33,
            "name": "A1",
            "ticks": 40800,
            "time": 127.5,
            "velocity": 0.41732283464566927
          },
          {
            "duration": 0.737499999999983,
            "durationTicks": 236,
            "midi": 45,
            "name": "A2",
            "ticks": 41040,
            "time": 128.25,
            "velocity": 0.3464566929133858
          },
          {
            "duration": 0.8000000000000114,
            "durationTicks": 256,
            "midi": 43,
            "name": "G2",
            "ticks": 41280,
            "time": 129,
            "velocity": 0.4251968503937008
          },
          {
            "duration": 0.5374999999999943,
            "durationTicks": 172,
            "midi": 31,
            "name": "G1",
            "ticks": 41580,
            "time": 129.9375,
            "velocity": 0.5275590551181102
          },
          {
            "duration": 0.6999999999999886,
            "durationTicks": 224,
            "midi": 30,
            "name": "F#1",
            "ticks": 41820,
            "time": 130.6875,
            "velocity": 0.36220472440944884
          },
          {
            "duration": 0.762500000000017,
            "durationTicks": 244,
            "midi": 42,
            "name": "F#2",
            "ticks": 42060,
            "time": 131.4375,
            "velocity": 0.4251968503937008
          },
          {
            "duration": 0.762500000000017,
            "durationTicks": 244,
            "midi": 40,
            "name": "E2",
            "ticks": 42300,
            "time": 132.1875,
            "velocity": 0.4251968503937008
          },
          {
            "duration": 0.38750000000001705,
            "durationTicks": 124,
            "midi": 28,
            "name": "E1",
            "ticks": 42540,
            "time": 132.9375,
            "velocity": 0.4566929133858268
          },
          {
            "duration": 0.737499999999983,
            "durationTicks": 236,
            "midi": 26,
            "name": "D1",
            "ticks": 42720,
            "time": 133.5,
            "velocity": 0.4566929133858268
          },
          {
            "duration": 0.575000000000017,
            "durationTicks": 184,
            "midi": 38,
            "name": "D2",
            "ticks": 42960,
            "time": 134.25,
            "velocity": 0.3937007874015748
          },
          {
            "duration": 0.6875,
            "durationTicks": 220,
            "midi": 37,
            "name": "C#2",
            "ticks": 43200,
            "time": 135,
            "velocity": 0.41732283464566927
          },
          {
            "duration": 0.762500000000017,
            "durationTicks": 244,
            "midi": 33,
            "name": "A1",
            "ticks": 43440,
            "time": 135.75,
            "velocity": 0.4330708661417323
          },
          {
            "duration": 0.762500000000017,
            "durationTicks": 244,
            "midi": 38,
            "name": "D2",
            "ticks": 43680,
            "time": 136.5,
            "velocity": 0.4251968503937008
          },
          {
            "duration": 0.762500000000017,
            "durationTicks": 244,
            "midi": 43,
            "name": "G2",
            "ticks": 43920,
            "time": 137.25,
            "velocity": 0.44881889763779526
          },
          {
            "duration": 0.8000000000000114,
            "durationTicks": 256,
            "midi": 45,
            "name": "A2",
            "ticks": 44160,
            "time": 138,
            "velocity": 0.4251968503937008
          },
          {
            "duration": 0.762500000000017,
            "durationTicks": 244,
            "midi": 43,
            "name": "G2",
            "ticks": 44400,
            "time": 138.75,
            "velocity": 0.4015748031496063
          },
          {
            "duration": 0.75,
            "durationTicks": 240,
            "midi": 45,
            "name": "A2",
            "ticks": 44640,
            "time": 139.5,
            "velocity": 0.31496062992125984
          },
          {
            "duration": 0.5625,
            "durationTicks": 180,
            "midi": 33,
            "name": "A1",
            "ticks": 44880,
            "time": 140.25,
            "velocity": 0.4566929133858268
          },
          {
            "duration": 2.4750000000000227,
            "durationTicks": 792,
            "midi": 26,
            "name": "D1",
            "ticks": 45120,
            "time": 141,
            "velocity": 0.48031496062992124
          },
          {
            "duration": 0.41250000000002274,
            "durationTicks": 132,
            "midi": 33,
            "name": "A1",
            "ticks": 46080,
            "time": 144,
            "velocity": 0.4330708661417323
          },
          {
            "duration": 0.6750000000000114,
            "durationTicks": 216,
            "midi": 45,
            "name": "A2",
            "ticks": 46320,
            "time": 144.75,
            "velocity": 0.3543307086614173
          },
          {
            "duration": 0.7249999999999943,
            "durationTicks": 232,
            "midi": 43,
            "name": "G2",
            "ticks": 46560,
            "time": 145.5,
            "velocity": 0.3937007874015748
          },
          {
            "duration": 0.6875,
            "durationTicks": 220,
            "midi": 31,
            "name": "G1",
            "ticks": 46800,
            "time": 146.25,
            "velocity": 0.4330708661417323
          },
          {
            "duration": 0.5124999999999886,
            "durationTicks": 164,
            "midi": 30,
            "name": "F#1",
            "ticks": 47040,
            "time": 147,
            "velocity": 0.47244094488188976
          },
          {
            "duration": 0.762500000000017,
            "durationTicks": 244,
            "midi": 42,
            "name": "F#2",
            "ticks": 47280,
            "time": 147.75,
            "velocity": 0.33858267716535434
          },
          {
            "duration": 0.762500000000017,
            "durationTicks": 244,
            "midi": 40,
            "name": "E2",
            "ticks": 47520,
            "time": 148.5,
            "velocity": 0.4881889763779528
          },
          {
            "duration": 0.44999999999998863,
            "durationTicks": 144,
            "midi": 28,
            "name": "E1",
            "ticks": 47760,
            "time": 149.25,
            "velocity": 0.5118110236220472
          },
          {
            "duration": 0.6125000000000114,
            "durationTicks": 196,
            "midi": 27,
            "name": "D#1",
            "ticks": 48000,
            "time": 150,
            "velocity": 0.48031496062992124
          },
          {
            "duration": 0.762500000000017,
            "durationTicks": 244,
            "midi": 39,
            "name": "D#2",
            "ticks": 48240,
            "time": 150.75,
            "velocity": 0.4251968503937008
          },
          {
            "duration": 0.8125,
            "durationTicks": 260,
            "midi": 42,
            "name": "F#2",
            "ticks": 48480,
            "time": 151.5,
            "velocity": 0.4094488188976378
          },
          {
            "duration": 0.7750000000000057,
            "durationTicks": 248,
            "midi": 35,
            "name": "B1",
            "ticks": 48720,
            "time": 152.25,
            "velocity": 0.4015748031496063
          },
          {
            "duration": 0.4375,
            "durationTicks": 140,
            "midi": 40,
            "name": "E2",
            "ticks": 48960,
            "time": 153,
            "velocity": 0.49606299212598426
          },
          {
            "duration": 0.6999999999999886,
            "durationTicks": 224,
            "midi": 52,
            "name": "E3",
            "ticks": 49200,
            "time": 153.75,
            "velocity": 0.4566929133858268
          },
          {
            "duration": 0.7750000000000057,
            "durationTicks": 248,
            "midi": 50,
            "name": "D3",
            "ticks": 49440,
            "time": 154.5,
            "velocity": 0.4251968503937008
          },
          {
            "duration": 0.8000000000000114,
            "durationTicks": 256,
            "midi": 38,
            "name": "D2",
            "ticks": 49680,
            "time": 155.25,
            "velocity": 0.48031496062992124
          },
          {
            "duration": 0.5124999999999886,
            "durationTicks": 164,
            "midi": 37,
            "name": "C#2",
            "ticks": 49980,
            "time": 156.1875,
            "velocity": 0.3779527559055118
          },
          {
            "duration": 0.6875,
            "durationTicks": 220,
            "midi": 49,
            "name": "C#3",
            "ticks": 50220,
            "time": 156.9375,
            "velocity": 0.3779527559055118
          },
          {
            "duration": 0.75,
            "durationTicks": 240,
            "midi": 47,
            "name": "B2",
            "ticks": 50400,
            "time": 157.5,
            "velocity": 0.3858267716535433
          },
          {
            "duration": 0.6500000000000057,
            "durationTicks": 208,
            "midi": 35,
            "name": "B1",
            "ticks": 50640,
            "time": 158.25,
            "velocity": 0.4015748031496063
          },
          {
            "duration": 0.6374999999999886,
            "durationTicks": 204,
            "midi": 34,
            "name": "A#1",
            "ticks": 50880,
            "time": 159,
            "velocity": 0.3700787401574803
          },
          {
            "duration": 0.6999999999999886,
            "durationTicks": 224,
            "midi": 35,
            "name": "B1",
            "ticks": 51120,
            "time": 159.75,
            "velocity": 0.3700787401574803
          },
          {
            "duration": 0.7750000000000057,
            "durationTicks": 248,
            "midi": 37,
            "name": "C#2",
            "ticks": 51360,
            "time": 160.5,
            "velocity": 0.4330708661417323
          },
          {
            "duration": 0.48750000000001137,
            "durationTicks": 156,
            "midi": 34,
            "name": "A#1",
            "ticks": 51600,
            "time": 161.25,
            "velocity": 0.4251968503937008
          },
          {
            "duration": 0.4625000000000057,
            "durationTicks": 148,
            "midi": 35,
            "name": "B1",
            "ticks": 51840,
            "time": 162,
            "velocity": 0.4330708661417323
          },
          {
            "duration": 0.7750000000000057,
            "durationTicks": 248,
            "midi": 43,
            "name": "G2",
            "ticks": 52080,
            "time": 162.75,
            "velocity": 0.4015748031496063
          },
          {
            "duration": 0.7750000000000057,
            "durationTicks": 248,
            "midi": 40,
            "name": "E2",
            "ticks": 52320,
            "time": 163.5,
            "velocity": 0.3937007874015748
          },
          {
            "duration": 0.6000000000000227,
            "durationTicks": 192,
            "midi": 42,
            "name": "F#2",
            "ticks": 52560,
            "time": 164.25,
            "velocity": 0.41732283464566927
          },
          {
            "duration": 0.737499999999983,
            "durationTicks": 236,
            "midi": 35,
            "name": "B1",
            "ticks": 52800,
            "time": 165,
            "velocity": 0.4645669291338583
          },
          {
            "duration": 0.737499999999983,
            "durationTicks": 236,
            "midi": 47,
            "name": "B2",
            "ticks": 53040,
            "time": 165.75,
            "velocity": 0.3464566929133858
          },
          {
            "duration": 0.7249999999999943,
            "durationTicks": 232,
            "midi": 45,
            "name": "A2",
            "ticks": 53280,
            "time": 166.5,
            "velocity": 0.4251968503937008
          },
          {
            "duration": 0.762500000000017,
            "durationTicks": 244,
            "midi": 33,
            "name": "A1",
            "ticks": 53520,
            "time": 167.25,
            "velocity": 0.41732283464566927
          },
          {
            "duration": 0.737499999999983,
            "durationTicks": 236,
            "midi": 32,
            "name": "G#1",
            "ticks": 53760,
            "time": 168,
            "velocity": 0.48031496062992124
          },
          {
            "duration": 0.7750000000000057,
            "durationTicks": 248,
            "midi": 44,
            "name": "G#2",
            "ticks": 54000,
            "time": 168.75,
            "velocity": 0.41732283464566927
          },
          {
            "duration": 0.8249999999999886,
            "durationTicks": 264,
            "midi": 42,
            "name": "F#2",
            "ticks": 54240,
            "time": 169.5,
            "velocity": 0.41732283464566927
          },
          {
            "duration": 0.6624999999999943,
            "durationTicks": 212,
            "midi": 30,
            "name": "F#1",
            "ticks": 54480,
            "time": 170.25,
            "velocity": 0.4645669291338583
          },
          {
            "duration": 0.625,
            "durationTicks": 200,
            "midi": 28,
            "name": "E1",
            "ticks": 54720,
            "time": 171,
            "velocity": 0.41732283464566927
          },
          {
            "duration": 0.75,
            "durationTicks": 240,
            "midi": 40,
            "name": "E2",
            "ticks": 54960,
            "time": 171.75,
            "velocity": 0.4881889763779528
          },
          {
            "duration": 0.7875000000000227,
            "durationTicks": 252,
            "midi": 38,
            "name": "D2",
            "ticks": 55200,
            "time": 172.5,
            "velocity": 0.4645669291338583
          },
          {
            "duration": 0.7124999999999773,
            "durationTicks": 228,
            "midi": 26,
            "name": "D1",
            "ticks": 55440,
            "time": 173.25,
            "velocity": 0.4251968503937008
          },
          {
            "duration": 0.4375,
            "durationTicks": 140,
            "midi": 25,
            "name": "C#1",
            "ticks": 55680,
            "time": 174,
            "velocity": 0.5039370078740157
          },
          {
            "duration": 0.75,
            "durationTicks": 240,
            "midi": 37,
            "name": "C#2",
            "ticks": 55920,
            "time": 174.75,
            "velocity": 0.36220472440944884
          },
          {
            "duration": 0.737499999999983,
            "durationTicks": 236,
            "midi": 38,
            "name": "D2",
            "ticks": 56160,
            "time": 175.5,
            "velocity": 0.48031496062992124
          },
          {
            "duration": 0.7249999999999943,
            "durationTicks": 232,
            "midi": 40,
            "name": "E2",
            "ticks": 56400,
            "time": 176.25,
            "velocity": 0.41732283464566927
          },
          {
            "duration": 0.5374999999999943,
            "durationTicks": 172,
            "midi": 33,
            "name": "A1",
            "ticks": 56640,
            "time": 177,
            "velocity": 0.44881889763779526
          },
          {
            "duration": 0.75,
            "durationTicks": 240,
            "midi": 45,
            "name": "A2",
            "ticks": 56880,
            "time": 177.75,
            "velocity": 0.4015748031496063
          },
          {
            "duration": 0.762500000000017,
            "durationTicks": 244,
            "midi": 43,
            "name": "G2",
            "ticks": 57120,
            "time": 178.5,
            "velocity": 0.3937007874015748
          },
          {
            "duration": 0.6875,
            "durationTicks": 220,
            "midi": 31,
            "name": "G1",
            "ticks": 57360,
            "time": 179.25,
            "velocity": 0.48031496062992124
          },
          {
            "duration": 0.6000000000000227,
            "durationTicks": 192,
            "midi": 30,
            "name": "F#1",
            "ticks": 57540,
            "time": 179.8125,
            "velocity": 0.4881889763779528
          },
          {
            "duration": 0.762500000000017,
            "durationTicks": 244,
            "midi": 42,
            "name": "F#2",
            "ticks": 57840,
            "time": 180.75,
            "velocity": 0.4251968503937008
          },
          {
            "duration": 0.762500000000017,
            "durationTicks": 244,
            "midi": 43,
            "name": "G2",
            "ticks": 58080,
            "time": 181.5,
            "velocity": 0.3858267716535433
          },
          {
            "duration": 0.4749999999999943,
            "durationTicks": 152,
            "midi": 31,
            "name": "G1",
            "ticks": 58320,
            "time": 182.25,
            "velocity": 0.36220472440944884
          },
          {
            "duration": 0.7875000000000227,
            "durationTicks": 252,
            "midi": 32,
            "name": "G#1",
            "ticks": 58560,
            "time": 183,
            "velocity": 0.4566929133858268
          },
          {
            "duration": 0.6999999999999886,
            "durationTicks": 224,
            "midi": 44,
            "name": "G#2",
            "ticks": 58800,
            "time": 183.75,
            "velocity": 0.47244094488188976
          },
          {
            "duration": 0.8249999999999886,
            "durationTicks": 264,
            "midi": 45,
            "name": "A2",
            "ticks": 59040,
            "time": 184.5,
            "velocity": 0.4015748031496063
          },
          {
            "duration": 0.575000000000017,
            "durationTicks": 184,
            "midi": 33,
            "name": "A1",
            "ticks": 59280,
            "time": 185.25,
            "velocity": 0.44881889763779526
          },
          {
            "duration": 0.8125,
            "durationTicks": 260,
            "midi": 34,
            "name": "A#1",
            "ticks": 59520,
            "time": 186,
            "velocity": 0.5118110236220472
          },
          {
            "duration": 0.737499999999983,
            "durationTicks": 236,
            "midi": 46,
            "name": "A#2",
            "ticks": 59760,
            "time": 186.75,
            "velocity": 0.47244094488188976
          },
          {
            "duration": 0.8125,
            "durationTicks": 260,
            "midi": 47,
            "name": "B2",
            "ticks": 60000,
            "time": 187.5,
            "velocity": 0.3937007874015748
          },
          {
            "duration": 0.44999999999998863,
            "durationTicks": 144,
            "midi": 35,
            "name": "B1",
            "ticks": 60240,
            "time": 188.25,
            "velocity": 0.4094488188976378
          },
          {
            "duration": 0.5625,
            "durationTicks": 180,
            "midi": 40,
            "name": "E2",
            "ticks": 60480,
            "time": 189,
            "velocity": 0.5196850393700787
          },
          {
            "duration": 0.75,
            "durationTicks": 240,
            "midi": 52,
            "name": "E3",
            "ticks": 60720,
            "time": 189.75,
            "velocity": 0.4251968503937008
          },
          {
            "duration": 0.7875000000000227,
            "durationTicks": 252,
            "midi": 50,
            "name": "D3",
            "ticks": 60960,
            "time": 190.5,
            "velocity": 0.4409448818897638
          },
          {
            "duration": 0.7124999999999773,
            "durationTicks": 228,
            "midi": 38,
            "name": "D2",
            "ticks": 61200,
            "time": 191.25,
            "velocity": 0.4645669291338583
          },
          {
            "duration": 0.5875000000000341,
            "durationTicks": 188,
            "midi": 37,
            "name": "C#2",
            "ticks": 61440,
            "time": 192,
            "velocity": 0.4566929133858268
          },
          {
            "duration": 0.75,
            "durationTicks": 240,
            "midi": 49,
            "name": "C#3",
            "ticks": 61680,
            "time": 192.75,
            "velocity": 0.4330708661417323
          },
          {
            "duration": 0.7750000000000341,
            "durationTicks": 248,
            "midi": 45,
            "name": "A2",
            "ticks": 61920,
            "time": 193.5,
            "velocity": 0.3543307086614173
          },
          {
            "duration": 0.7624999999999886,
            "durationTicks": 244,
            "midi": 49,
            "name": "C#3",
            "ticks": 62160,
            "time": 194.25,
            "velocity": 0.3543307086614173
          },
          {
            "duration": 0.6999999999999886,
            "durationTicks": 224,
            "midi": 50,
            "name": "D3",
            "ticks": 62400,
            "time": 195,
            "velocity": 0.3700787401574803
          },
          {
            "duration": 0.6624999999999943,
            "durationTicks": 212,
            "midi": 38,
            "name": "D2",
            "ticks": 62640,
            "time": 195.75,
            "velocity": 0.4094488188976378
          },
          {
            "duration": 0.7875000000000227,
            "durationTicks": 252,
            "midi": 36,
            "name": "C2",
            "ticks": 62880,
            "time": 196.5,
            "velocity": 0.4409448818897638
          },
          {
            "duration": 0.7375000000000114,
            "durationTicks": 236,
            "midi": 48,
            "name": "C3",
            "ticks": 63120,
            "time": 197.25,
            "velocity": 0.3464566929133858
          },
          {
            "duration": 0.7875000000000227,
            "durationTicks": 252,
            "midi": 47,
            "name": "B2",
            "ticks": 63360,
            "time": 198,
            "velocity": 0.41732283464566927
          },
          {
            "duration": 0.6500000000000057,
            "durationTicks": 208,
            "midi": 35,
            "name": "B1",
            "ticks": 63600,
            "time": 198.75,
            "velocity": 0.4330708661417323
          },
          {
            "duration": 0.7875000000000227,
            "durationTicks": 252,
            "midi": 33,
            "name": "A1",
            "ticks": 63840,
            "time": 199.5,
            "velocity": 0.41732283464566927
          },
          {
            "duration": 0.7375000000000114,
            "durationTicks": 236,
            "midi": 45,
            "name": "A2",
            "ticks": 64080,
            "time": 200.25,
            "velocity": 0.3464566929133858
          },
          {
            "duration": 0.8000000000000114,
            "durationTicks": 256,
            "midi": 43,
            "name": "G2",
            "ticks": 64320,
            "time": 201,
            "velocity": 0.4251968503937008
          },
          {
            "duration": 0.5374999999999659,
            "durationTicks": 172,
            "midi": 31,
            "name": "G1",
            "ticks": 64620,
            "time": 201.9375,
            "velocity": 0.5275590551181102
          },
          {
            "duration": 0.6999999999999886,
            "durationTicks": 224,
            "midi": 30,
            "name": "F#1",
            "ticks": 64860,
            "time": 202.6875,
            "velocity": 0.36220472440944884
          },
          {
            "duration": 0.7624999999999886,
            "durationTicks": 244,
            "midi": 42,
            "name": "F#2",
            "ticks": 65100,
            "time": 203.4375,
            "velocity": 0.4251968503937008
          },
          {
            "duration": 0.7624999999999886,
            "durationTicks": 244,
            "midi": 40,
            "name": "E2",
            "ticks": 65340,
            "time": 204.1875,
            "velocity": 0.4251968503937008
          },
          {
            "duration": 0.38749999999998863,
            "durationTicks": 124,
            "midi": 28,
            "name": "E1",
            "ticks": 65580,
            "time": 204.9375,
            "velocity": 0.4566929133858268
          },
          {
            "duration": 0.7375000000000114,
            "durationTicks": 236,
            "midi": 26,
            "name": "D1",
            "ticks": 65760,
            "time": 205.5,
            "velocity": 0.4566929133858268
          },
          {
            "duration": 0.5749999999999886,
            "durationTicks": 184,
            "midi": 38,
            "name": "D2",
            "ticks": 66000,
            "time": 206.25,
            "velocity": 0.3937007874015748
          },
          {
            "duration": 0.6875,
            "durationTicks": 220,
            "midi": 37,
            "name": "C#2",
            "ticks": 66240,
            "time": 207,
            "velocity": 0.41732283464566927
          },
          {
            "duration": 0.7624999999999886,
            "durationTicks": 244,
            "midi": 33,
            "name": "A1",
            "ticks": 66480,
            "time": 207.75,
            "velocity": 0.4330708661417323
          },
          {
            "duration": 0.7624999999999886,
            "durationTicks": 244,
            "midi": 38,
            "name": "D2",
            "ticks": 66720,
            "time": 208.5,
            "velocity": 0.4251968503937008
          },
          {
            "duration": 0.7624999999999886,
            "durationTicks": 244,
            "midi": 43,
            "name": "G2",
            "ticks": 66960,
            "time": 209.25,
            "velocity": 0.44881889763779526
          },
          {
            "duration": 0.8275358666666648,
            "durationTicks": 256,
            "midi": 45,
            "name": "A2",
            "ticks": 67200,
            "time": 210,
            "velocity": 0.4251968503937008
          },
          {
            "duration": 0.8437922833333289,
            "durationTicks": 244,
            "midi": 43,
            "name": "G2",
            "ticks": 67440,
            "time": 210.77348179999998,
            "velocity": 0.4015748031496063
          },
          {
            "duration": 0.9040775999999937,
            "durationTicks": 240,
            "midi": 45,
            "name": "A2",
            "ticks": 67680,
            "time": 211.60256819999998,
            "velocity": 0.31496062992125984
          },
          {
            "duration": 0.7245968000000005,
            "durationTicks": 180,
            "midi": 33,
            "name": "A1",
            "ticks": 67920,
            "time": 212.50664579999997,
            "velocity": 0.4566929133858268
          },
          {
            "duration": 4.0492035999999985,
            "durationTicks": 792,
            "midi": 26,
            "name": "D1",
            "ticks": 68160,
            "time": 213.48124259999994,
            "velocity": 0.48031496062992124
          }
        ]
      },
      {
        "channel": 0,
        "controlChanges": {},
        "pitchBends": [],
        "instrument": {
          "family": "piano",
          "number": 0,
          "name": "acoustic grand piano"
        },
        "name": "untitled",
        "notes": [],
        "endOfTrackTicks": 69120
      },
      {
        "channel": 1,
        "controlChanges": {
          "7": [
            {
              "number": 7,
              "ticks": 0,
              "time": 0,
              "value": 1
            },
            {
              "number": 7,
              "ticks": 0,
              "time": 0,
              "value": 1
            }
          ],
          "10": [
            {
              "number": 10,
              "ticks": 0,
              "time": 0,
              "value": 0.5905511811023622
            },
            {
              "number": 10,
              "ticks": 0,
              "time": 0,
              "value": 0.7086614173228346
            }
          ]
        },
        "pitchBends": [],
        "instrument": {
          "family": "ensemble",
          "number": 48,
          "name": "string ensemble 1"
        },
        "name": "",
        "notes": [
          {
            "duration": 7.1625000000000005,
            "durationTicks": 2292,
            "midi": 74,
            "name": "D5",
            "ticks": 0,
            "time": 0,
            "velocity": 0.49606299212598426
          },
          {
            "duration": 6.375,
            "durationTicks": 2040,
            "midi": 78,
            "name": "F#5",
            "ticks": 0,
            "time": 0,
            "velocity": 0.6299212598425197
          },
          {
            "duration": 0.47499999999999964,
            "durationTicks": 152,
            "midi": 83,
            "name": "B5",
            "ticks": 2160,
            "time": 6.75,
            "velocity": 0.44881889763779526
          },
          {
            "duration": 0.11250000000000071,
            "durationTicks": 36,
            "midi": 79,
            "name": "G5",
            "ticks": 2280,
            "time": 7.125,
            "velocity": 0.4094488188976378
          },
          {
            "duration": 1.512500000000001,
            "durationTicks": 484,
            "midi": 71,
            "name": "B4",
            "ticks": 2400,
            "time": 7.5,
            "velocity": 0.4330708661417323
          },
          {
            "duration": 0.3250000000000002,
            "durationTicks": 104,
            "midi": 76,
            "name": "E5",
            "ticks": 2400,
            "time": 7.5,
            "velocity": 0.49606299212598426
          },
          {
            "duration": 0.16249999999999964,
            "durationTicks": 52,
            "midi": 78,
            "name": "F#5",
            "ticks": 2400,
            "time": 7.5,
            "velocity": 0.4881889763779528
          },
          {
            "duration": 0.4499999999999993,
            "durationTicks": 144,
            "midi": 74,
            "name": "D5",
            "ticks": 2520,
            "time": 7.875,
            "velocity": 0.41732283464566927
          },
          {
            "duration": 0.375,
            "durationTicks": 120,
            "midi": 73,
            "name": "C#5",
            "ticks": 2640,
            "time": 8.25,
            "velocity": 0.3937007874015748
          },
          {
            "duration": 0.4125000000000014,
            "durationTicks": 132,
            "midi": 74,
            "name": "D5",
            "ticks": 2760,
            "time": 8.625,
            "velocity": 0.33858267716535434
          },
          {
            "duration": 2.8625000000000007,
            "durationTicks": 916,
            "midi": 69,
            "name": "A4",
            "ticks": 2880,
            "time": 9,
            "velocity": 0.47244094488188976
          },
          {
            "duration": 1.0874999999999986,
            "durationTicks": 348,
            "midi": 73,
            "name": "C#5",
            "ticks": 2880,
            "time": 9,
            "velocity": 0.4566929133858268
          },
          {
            "duration": 0.11250000000000071,
            "durationTicks": 36,
            "midi": 71,
            "name": "B4",
            "ticks": 3300,
            "time": 10.3125,
            "velocity": 0.4409448818897638
          },
          {
            "duration": 2.087500000000002,
            "durationTicks": 668,
            "midi": 69,
            "name": "A4",
            "ticks": 3360,
            "time": 10.5,
            "velocity": 0.36220472440944884
          },
          {
            "duration": 2.5625,
            "durationTicks": 820,
            "midi": 81,
            "name": "A5",
            "ticks": 3840,
            "time": 12,
            "velocity": 0.5275590551181102
          },
          {
            "duration": 0.375,
            "durationTicks": 120,
            "midi": 72,
            "name": "C5",
            "ticks": 4080,
            "time": 12.75,
            "velocity": 0.5196850393700787
          },
          {
            "duration": 0.40000000000000213,
            "durationTicks": 128,
            "midi": 71,
            "name": "B4",
            "ticks": 4200,
            "time": 13.125,
            "velocity": 0.41732283464566927
          },
          {
            "duration": 0.46250000000000036,
            "durationTicks": 148,
            "midi": 72,
            "name": "C5",
            "ticks": 4320,
            "time": 13.5,
            "velocity": 0.4881889763779528
          },
          {
            "duration": 0.8250000000000011,
            "durationTicks": 264,
            "midi": 81,
            "name": "A5",
            "ticks": 4560,
            "time": 14.25,
            "velocity": 0.4409448818897638
          },
          {
            "duration": 0.4375,
            "durationTicks": 140,
            "midi": 72,
            "name": "C5",
            "ticks": 4680,
            "time": 14.625,
            "velocity": 0.4566929133858268
          },
          {
            "duration": 0.875,
            "durationTicks": 280,
            "midi": 71,
            "name": "B4",
            "ticks": 4800,
            "time": 15,
            "velocity": 0.41732283464566927
          },
          {
            "duration": 0.375,
            "durationTicks": 120,
            "midi": 78,
            "name": "F#5",
            "ticks": 4920,
            "time": 15.375,
            "velocity": 0.4251968503937008
          },
          {
            "duration": 0.375,
            "durationTicks": 120,
            "midi": 72,
            "name": "C5",
            "ticks": 5040,
            "time": 15.75,
            "velocity": 0.4015748031496063
          },
          {
            "duration": 0.4250000000000007,
            "durationTicks": 136,
            "midi": 71,
            "name": "B4",
            "ticks": 5160,
            "time": 16.125,
            "velocity": 0.2992125984251969
          },
          {
            "duration": 0.34999999999999787,
            "durationTicks": 112,
            "midi": 76,
            "name": "E5",
            "ticks": 5280,
            "time": 16.5,
            "velocity": 0.5039370078740157
          },
          {
            "duration": 0.3874999999999993,
            "durationTicks": 124,
            "midi": 75,
            "name": "D#5",
            "ticks": 5400,
            "time": 16.875,
            "velocity": 0.4015748031496063
          },
          {
            "duration": 0.40000000000000213,
            "durationTicks": 128,
            "midi": 81,
            "name": "A5",
            "ticks": 5520,
            "time": 17.25,
            "velocity": 0.49606299212598426
          },
          {
            "duration": 0.3125,
            "durationTicks": 100,
            "midi": 79,
            "name": "G5",
            "ticks": 5640,
            "time": 17.625,
            "velocity": 0.41732283464566927
          },
          {
            "duration": 0.5500000000000007,
            "durationTicks": 176,
            "midi": 71,
            "name": "B4",
            "ticks": 5760,
            "time": 18,
            "velocity": 0.4645669291338583
          },
          {
            "duration": 2.6625000000000014,
            "durationTicks": 852,
            "midi": 79,
            "name": "G5",
            "ticks": 5760,
            "time": 18,
            "velocity": 0.49606299212598426
          },
          {
            "duration": 0.3249999999999993,
            "durationTicks": 104,
            "midi": 76,
            "name": "E5",
            "ticks": 6000,
            "time": 18.75,
            "velocity": 0.5590551181102362
          },
          {
            "duration": 0.4125000000000014,
            "durationTicks": 132,
            "midi": 74,
            "name": "D5",
            "ticks": 6120,
            "time": 19.125,
            "velocity": 0.4409448818897638
          },
          {
            "duration": 0.375,
            "durationTicks": 120,
            "midi": 76,
            "name": "E5",
            "ticks": 6240,
            "time": 19.5,
            "velocity": 0.5275590551181102
          },
          {
            "duration": 0.48749999999999716,
            "durationTicks": 156,
            "midi": 78,
            "name": "F#5",
            "ticks": 6360,
            "time": 19.875,
            "velocity": 0.4566929133858268
          },
          {
            "duration": 0.9875000000000007,
            "durationTicks": 316,
            "midi": 79,
            "name": "G5",
            "ticks": 6480,
            "time": 20.25,
            "velocity": 0.44881889763779526
          },
          {
            "duration": 0.4250000000000007,
            "durationTicks": 136,
            "midi": 76,
            "name": "E5",
            "ticks": 6600,
            "time": 20.625,
            "velocity": 0.41732283464566927
          },
          {
            "duration": 0.8000000000000007,
            "durationTicks": 256,
            "midi": 69,
            "name": "A4",
            "ticks": 6720,
            "time": 21,
            "velocity": 0.4015748031496063
          },
          {
            "duration": 0.3374999999999986,
            "durationTicks": 108,
            "midi": 76,
            "name": "E5",
            "ticks": 6840,
            "time": 21.375,
            "velocity": 0.44881889763779526
          },
          {
            "duration": 0.34999999999999787,
            "durationTicks": 112,
            "midi": 71,
            "name": "B4",
            "ticks": 6960,
            "time": 21.75,
            "velocity": 0.3464566929133858
          },
          {
            "duration": 0.40000000000000213,
            "durationTicks": 128,
            "midi": 69,
            "name": "A4",
            "ticks": 7080,
            "time": 22.125,
            "velocity": 0.3700787401574803
          },
          {
            "duration": 0.3625000000000007,
            "durationTicks": 116,
            "midi": 74,
            "name": "D5",
            "ticks": 7200,
            "time": 22.5,
            "velocity": 0.47244094488188976
          },
          {
            "duration": 0.375,
            "durationTicks": 120,
            "midi": 73,
            "name": "C#5",
            "ticks": 7320,
            "time": 22.875,
            "velocity": 0.4015748031496063
          },
          {
            "duration": 0.45000000000000284,
            "durationTicks": 144,
            "midi": 79,
            "name": "G5",
            "ticks": 7440,
            "time": 23.25,
            "velocity": 0.4881889763779528
          },
          {
            "duration": 0.2375000000000007,
            "durationTicks": 76,
            "midi": 78,
            "name": "F#5",
            "ticks": 7560,
            "time": 23.625,
            "velocity": 0.49606299212598426
          },
          {
            "duration": 3.5749999999999993,
            "durationTicks": 1144,
            "midi": 69,
            "name": "A4",
            "ticks": 7680,
            "time": 24,
            "velocity": 0.5275590551181102
          },
          {
            "duration": 2.3374999999999986,
            "durationTicks": 748,
            "midi": 78,
            "name": "F#5",
            "ticks": 7680,
            "time": 24,
            "velocity": 0.4645669291338583
          },
          {
            "duration": 0.3125,
            "durationTicks": 100,
            "midi": 80,
            "name": "G#5",
            "ticks": 8400,
            "time": 26.25,
            "velocity": 0.44881889763779526
          },
          {
            "duration": 0.4375,
            "durationTicks": 140,
            "midi": 81,
            "name": "A5",
            "ticks": 8520,
            "time": 26.625,
            "velocity": 0.41732283464566927
          },
          {
            "duration": 0.1750000000000007,
            "durationTicks": 56,
            "midi": 74,
            "name": "D5",
            "ticks": 8640,
            "time": 27,
            "velocity": 0.49606299212598426
          },
          {
            "duration": 0.16250000000000142,
            "durationTicks": 52,
            "midi": 74,
            "name": "D5",
            "ticks": 8760,
            "time": 27.375,
            "velocity": 0.49606299212598426
          },
          {
            "duration": 0.1875,
            "durationTicks": 60,
            "midi": 76,
            "name": "E5",
            "ticks": 8820,
            "time": 27.5625,
            "velocity": 0.5039370078740157
          },
          {
            "duration": 0.3625000000000007,
            "durationTicks": 116,
            "midi": 68,
            "name": "G#4",
            "ticks": 8880,
            "time": 27.75,
            "velocity": 0.5196850393700787
          },
          {
            "duration": 1.1000000000000014,
            "durationTicks": 352,
            "midi": 78,
            "name": "F#5",
            "ticks": 8880,
            "time": 27.75,
            "velocity": 0.47244094488188976
          },
          {
            "duration": 0.375,
            "durationTicks": 120,
            "midi": 69,
            "name": "A4",
            "ticks": 9000,
            "time": 28.125,
            "velocity": 0.4409448818897638
          },
          {
            "duration": 0.6125000000000043,
            "durationTicks": 196,
            "midi": 71,
            "name": "B4",
            "ticks": 9120,
            "time": 28.5,
            "velocity": 0.4094488188976378
          },
          {
            "duration": 0.21249999999999858,
            "durationTicks": 68,
            "midi": 76,
            "name": "E5",
            "ticks": 9240,
            "time": 28.875,
            "velocity": 0.4645669291338583
          },
          {
            "duration": 0.75,
            "durationTicks": 240,
            "midi": 68,
            "name": "G#4",
            "ticks": 9360,
            "time": 29.25,
            "velocity": 0.5196850393700787
          },
          {
            "duration": 0.32499999999999574,
            "durationTicks": 104,
            "midi": 76,
            "name": "E5",
            "ticks": 9360,
            "time": 29.25,
            "velocity": 0.4645669291338583
          },
          {
            "duration": 0.2875000000000014,
            "durationTicks": 92,
            "midi": 74,
            "name": "D5",
            "ticks": 9480,
            "time": 29.625,
            "velocity": 0.3858267716535433
          },
          {
            "duration": 0.5375000000000014,
            "durationTicks": 172,
            "midi": 69,
            "name": "A4",
            "ticks": 9600,
            "time": 30,
            "velocity": 0.4094488188976378
          },
          {
            "duration": 0.3874999999999993,
            "durationTicks": 124,
            "midi": 73,
            "name": "C#5",
            "ticks": 9600,
            "time": 30,
            "velocity": 0.48031496062992124
          },
          {
            "duration": 0.22499999999999787,
            "durationTicks": 72,
            "midi": 71,
            "name": "B4",
            "ticks": 9720,
            "time": 30.375,
            "velocity": 0.33858267716535434
          },
          {
            "duration": 1.4125000000000014,
            "durationTicks": 452,
            "midi": 69,
            "name": "A4",
            "ticks": 9840,
            "time": 30.75,
            "velocity": 0.5511811023622047
          },
          {
            "duration": 0.1875,
            "durationTicks": 60,
            "midi": 71,
            "name": "B4",
            "ticks": 9840,
            "time": 30.75,
            "velocity": 0.4566929133858268
          },
          {
            "duration": 0.1750000000000007,
            "durationTicks": 56,
            "midi": 73,
            "name": "C#5",
            "ticks": 9900,
            "time": 30.9375,
            "velocity": 0.47244094488188976
          },
          {
            "duration": 1.2875000000000014,
            "durationTicks": 412,
            "midi": 74,
            "name": "D5",
            "ticks": 9960,
            "time": 31.125,
            "velocity": 0.44881889763779526
          },
          {
            "duration": 0.7874999999999943,
            "durationTicks": 252,
            "midi": 68,
            "name": "G#4",
            "ticks": 10380,
            "time": 32.4375,
            "velocity": 0.5196850393700787
          },
          {
            "duration": 0.3500000000000014,
            "durationTicks": 112,
            "midi": 73,
            "name": "C#5",
            "ticks": 10380,
            "time": 32.4375,
            "velocity": 0.5039370078740157
          },
          {
            "duration": 0.2749999999999986,
            "durationTicks": 88,
            "midi": 71,
            "name": "B4",
            "ticks": 10440,
            "time": 32.625,
            "velocity": 0.3858267716535433
          },
          {
            "duration": 2.4875000000000043,
            "durationTicks": 796,
            "midi": 64,
            "name": "E4",
            "ticks": 10560,
            "time": 33,
            "velocity": 0.4645669291338583
          },
          {
            "duration": 2.8125,
            "durationTicks": 900,
            "midi": 69,
            "name": "A4",
            "ticks": 10560,
            "time": 33,
            "velocity": 0.4566929133858268
          },
          {
            "duration": 7.149999999999999,
            "durationTicks": 2288,
            "midi": 74,
            "name": "D5",
            "ticks": 11460,
            "time": 35.8125,
            "velocity": 0.5433070866141733
          },
          {
            "duration": 6.375,
            "durationTicks": 2040,
            "midi": 78,
            "name": "F#5",
            "ticks": 11520,
            "time": 36,
            "velocity": 0.6299212598425197
          },
          {
            "duration": 0.4750000000000014,
            "durationTicks": 152,
            "midi": 83,
            "name": "B5",
            "ticks": 13680,
            "time": 42.75,
            "velocity": 0.44881889763779526
          },
          {
            "duration": 0.11249999999999716,
            "durationTicks": 36,
            "midi": 79,
            "name": "G5",
            "ticks": 13800,
            "time": 43.125,
            "velocity": 0.4094488188976378
          },
          {
            "duration": 1.5625,
            "durationTicks": 500,
            "midi": 71,
            "name": "B4",
            "ticks": 13920,
            "time": 43.5,
            "velocity": 0.3700787401574803
          },
          {
            "duration": 0.32499999999999574,
            "durationTicks": 104,
            "midi": 76,
            "name": "E5",
            "ticks": 13920,
            "time": 43.5,
            "velocity": 0.49606299212598426
          },
          {
            "duration": 0.16250000000000142,
            "durationTicks": 52,
            "midi": 78,
            "name": "F#5",
            "ticks": 13920,
            "time": 43.5,
            "velocity": 0.4881889763779528
          },
          {
            "duration": 0.45000000000000284,
            "durationTicks": 144,
            "midi": 74,
            "name": "D5",
            "ticks": 14040,
            "time": 43.875,
            "velocity": 0.41732283464566927
          },
          {
            "duration": 0.375,
            "durationTicks": 120,
            "midi": 73,
            "name": "C#5",
            "ticks": 14160,
            "time": 44.25,
            "velocity": 0.3937007874015748
          },
          {
            "duration": 0.4124999999999943,
            "durationTicks": 132,
            "midi": 74,
            "name": "D5",
            "ticks": 14280,
            "time": 44.625,
            "velocity": 0.33858267716535434
          },
          {
            "duration": 2.8625000000000043,
            "durationTicks": 916,
            "midi": 69,
            "name": "A4",
            "ticks": 14400,
            "time": 45,
            "velocity": 0.4330708661417323
          },
          {
            "duration": 1.0875000000000057,
            "durationTicks": 348,
            "midi": 73,
            "name": "C#5",
            "ticks": 14400,
            "time": 45,
            "velocity": 0.4566929133858268
          },
          {
            "duration": 0.11249999999999716,
            "durationTicks": 36,
            "midi": 71,
            "name": "B4",
            "ticks": 14820,
            "time": 46.3125,
            "velocity": 0.4409448818897638
          },
          {
            "duration": 2.0874999999999986,
            "durationTicks": 668,
            "midi": 69,
            "name": "A4",
            "ticks": 14880,
            "time": 46.5,
            "velocity": 0.36220472440944884
          },
          {
            "duration": 2.575000000000003,
            "durationTicks": 824,
            "midi": 81,
            "name": "A5",
            "ticks": 15360,
            "time": 48,
            "velocity": 0.5275590551181102
          },
          {
            "duration": 0.3500000000000014,
            "durationTicks": 112,
            "midi": 72,
            "name": "C5",
            "ticks": 15600,
            "time": 48.75,
            "velocity": 0.5118110236220472
          },
          {
            "duration": 0.38750000000000284,
            "durationTicks": 124,
            "midi": 71,
            "name": "B4",
            "ticks": 15720,
            "time": 49.125,
            "velocity": 0.4094488188976378
          },
          {
            "duration": 0.5874999999999986,
            "durationTicks": 188,
            "midi": 72,
            "name": "C5",
            "ticks": 15840,
            "time": 49.5,
            "velocity": 0.4881889763779528
          },
          {
            "duration": 0.7999999999999972,
            "durationTicks": 256,
            "midi": 81,
            "name": "A5",
            "ticks": 16080,
            "time": 50.25,
            "velocity": 0.4645669291338583
          },
          {
            "duration": 0.38750000000000284,
            "durationTicks": 124,
            "midi": 72,
            "name": "C5",
            "ticks": 16200,
            "time": 50.625,
            "velocity": 0.4645669291338583
          },
          {
            "duration": 0.9500000000000028,
            "durationTicks": 304,
            "midi": 71,
            "name": "B4",
            "ticks": 16320,
            "time": 51,
            "velocity": 0.44881889763779526
          },
          {
            "duration": 0.375,
            "durationTicks": 120,
            "midi": 78,
            "name": "F#5",
            "ticks": 16440,
            "time": 51.375,
            "velocity": 0.4251968503937008
          },
          {
            "duration": 0.375,
            "durationTicks": 120,
            "midi": 72,
            "name": "C5",
            "ticks": 16560,
            "time": 51.75,
            "velocity": 0.4015748031496063
          },
          {
            "duration": 0.42499999999999716,
            "durationTicks": 136,
            "midi": 71,
            "name": "B4",
            "ticks": 16680,
            "time": 52.125,
            "velocity": 0.2992125984251969
          },
          {
            "duration": 0.3500000000000014,
            "durationTicks": 112,
            "midi": 76,
            "name": "E5",
            "ticks": 16800,
            "time": 52.5,
            "velocity": 0.5039370078740157
          },
          {
            "duration": 0.38750000000000284,
            "durationTicks": 124,
            "midi": 75,
            "name": "D#5",
            "ticks": 16920,
            "time": 52.875,
            "velocity": 0.4015748031496063
          },
          {
            "duration": 0.3999999999999986,
            "durationTicks": 128,
            "midi": 81,
            "name": "A5",
            "ticks": 17040,
            "time": 53.25,
            "velocity": 0.49606299212598426
          },
          {
            "duration": 0.3125,
            "durationTicks": 100,
            "midi": 79,
            "name": "G5",
            "ticks": 17160,
            "time": 53.625,
            "velocity": 0.41732283464566927
          },
          {
            "duration": 0.6499999999999915,
            "durationTicks": 208,
            "midi": 71,
            "name": "B4",
            "ticks": 17280,
            "time": 54,
            "velocity": 0.4566929133858268
          },
          {
            "duration": 2.637500000000003,
            "durationTicks": 844,
            "midi": 79,
            "name": "G5",
            "ticks": 17280,
            "time": 54,
            "velocity": 0.49606299212598426
          },
          {
            "duration": 0.32500000000000284,
            "durationTicks": 104,
            "midi": 76,
            "name": "E5",
            "ticks": 17520,
            "time": 54.75,
            "velocity": 0.5433070866141733
          },
          {
            "duration": 0.3999999999999986,
            "durationTicks": 128,
            "midi": 74,
            "name": "D5",
            "ticks": 17640,
            "time": 55.125,
            "velocity": 0.41732283464566927
          },
          {
            "duration": 0.42499999999999716,
            "durationTicks": 136,
            "midi": 76,
            "name": "E5",
            "ticks": 17760,
            "time": 55.5,
            "velocity": 0.5433070866141733
          },
          {
            "duration": 0.5,
            "durationTicks": 160,
            "midi": 78,
            "name": "F#5",
            "ticks": 17880,
            "time": 55.875,
            "velocity": 0.44881889763779526
          },
          {
            "duration": 0.9749999999999943,
            "durationTicks": 312,
            "midi": 79,
            "name": "G5",
            "ticks": 18000,
            "time": 56.25,
            "velocity": 0.4645669291338583
          },
          {
            "duration": 0.44999999999999574,
            "durationTicks": 144,
            "midi": 76,
            "name": "E5",
            "ticks": 18120,
            "time": 56.625,
            "velocity": 0.4251968503937008
          },
          {
            "duration": 0.6499999999999915,
            "durationTicks": 208,
            "midi": 69,
            "name": "A4",
            "ticks": 18240,
            "time": 57,
            "velocity": 0.4409448818897638
          },
          {
            "duration": 0.3375000000000057,
            "durationTicks": 108,
            "midi": 76,
            "name": "E5",
            "ticks": 18360,
            "time": 57.375,
            "velocity": 0.44881889763779526
          },
          {
            "duration": 0.3500000000000014,
            "durationTicks": 112,
            "midi": 71,
            "name": "B4",
            "ticks": 18480,
            "time": 57.75,
            "velocity": 0.3464566929133858
          },
          {
            "duration": 0.3999999999999986,
            "durationTicks": 128,
            "midi": 69,
            "name": "A4",
            "ticks": 18600,
            "time": 58.125,
            "velocity": 0.3700787401574803
          },
          {
            "duration": 0.36249999999999716,
            "durationTicks": 116,
            "midi": 74,
            "name": "D5",
            "ticks": 18720,
            "time": 58.5,
            "velocity": 0.47244094488188976
          },
          {
            "duration": 0.375,
            "durationTicks": 120,
            "midi": 73,
            "name": "C#5",
            "ticks": 18840,
            "time": 58.875,
            "velocity": 0.4015748031496063
          },
          {
            "duration": 0.44999999999999574,
            "durationTicks": 144,
            "midi": 79,
            "name": "G5",
            "ticks": 18960,
            "time": 59.25,
            "velocity": 0.4881889763779528
          },
          {
            "duration": 0.23749999999999716,
            "durationTicks": 76,
            "midi": 78,
            "name": "F#5",
            "ticks": 19080,
            "time": 59.625,
            "velocity": 0.49606299212598426
          },
          {
            "duration": 3.575000000000003,
            "durationTicks": 1144,
            "midi": 69,
            "name": "A4",
            "ticks": 19200,
            "time": 60,
            "velocity": 0.4881889763779528
          },
          {
            "duration": 2.3374999999999915,
            "durationTicks": 748,
            "midi": 78,
            "name": "F#5",
            "ticks": 19200,
            "time": 60,
            "velocity": 0.4645669291338583
          },
          {
            "duration": 0.3125,
            "durationTicks": 100,
            "midi": 80,
            "name": "G#5",
            "ticks": 19920,
            "time": 62.25,
            "velocity": 0.44881889763779526
          },
          {
            "duration": 0.4375,
            "durationTicks": 140,
            "midi": 81,
            "name": "A5",
            "ticks": 20040,
            "time": 62.625,
            "velocity": 0.41732283464566927
          },
          {
            "duration": 0.17499999999999716,
            "durationTicks": 56,
            "midi": 74,
            "name": "D5",
            "ticks": 20160,
            "time": 63,
            "velocity": 0.49606299212598426
          },
          {
            "duration": 0.16250000000000142,
            "durationTicks": 52,
            "midi": 74,
            "name": "D5",
            "ticks": 20280,
            "time": 63.375,
            "velocity": 0.49606299212598426
          },
          {
            "duration": 0.1875,
            "durationTicks": 60,
            "midi": 76,
            "name": "E5",
            "ticks": 20340,
            "time": 63.5625,
            "velocity": 0.5039370078740157
          },
          {
            "duration": 0.38750000000000284,
            "durationTicks": 124,
            "midi": 68,
            "name": "G#4",
            "ticks": 20400,
            "time": 63.75,
            "velocity": 0.5433070866141733
          },
          {
            "duration": 1.0999999999999943,
            "durationTicks": 352,
            "midi": 78,
            "name": "F#5",
            "ticks": 20400,
            "time": 63.75,
            "velocity": 0.47244094488188976
          },
          {
            "duration": 0.36249999999999716,
            "durationTicks": 116,
            "midi": 69,
            "name": "A4",
            "ticks": 20520,
            "time": 64.125,
            "velocity": 0.4409448818897638
          },
          {
            "duration": 0.7125000000000057,
            "durationTicks": 228,
            "midi": 71,
            "name": "B4",
            "ticks": 20640,
            "time": 64.5,
            "velocity": 0.4251968503937008
          },
          {
            "duration": 0.21250000000000568,
            "durationTicks": 68,
            "midi": 76,
            "name": "E5",
            "ticks": 20760,
            "time": 64.875,
            "velocity": 0.4645669291338583
          },
          {
            "duration": 0.75,
            "durationTicks": 240,
            "midi": 68,
            "name": "G#4",
            "ticks": 20880,
            "time": 65.25,
            "velocity": 0.5039370078740157
          },
          {
            "duration": 0.32500000000000284,
            "durationTicks": 104,
            "midi": 76,
            "name": "E5",
            "ticks": 20880,
            "time": 65.25,
            "velocity": 0.4645669291338583
          },
          {
            "duration": 0.2875000000000085,
            "durationTicks": 92,
            "midi": 74,
            "name": "D5",
            "ticks": 21000,
            "time": 65.625,
            "velocity": 0.3858267716535433
          },
          {
            "duration": 0.44999999999998863,
            "durationTicks": 144,
            "midi": 69,
            "name": "A4",
            "ticks": 21120,
            "time": 66,
            "velocity": 0.4094488188976378
          },
          {
            "duration": 0.38750000000000284,
            "durationTicks": 124,
            "midi": 73,
            "name": "C#5",
            "ticks": 21120,
            "time": 66,
            "velocity": 0.48031496062992124
          },
          {
            "duration": 0.22499999999999432,
            "durationTicks": 72,
            "midi": 71,
            "name": "B4",
            "ticks": 21240,
            "time": 66.375,
            "velocity": 0.33858267716535434
          },
          {
            "duration": 1.3999999999999915,
            "durationTicks": 448,
            "midi": 69,
            "name": "A4",
            "ticks": 21360,
            "time": 66.75,
            "velocity": 0.5196850393700787
          },
          {
            "duration": 0.1875,
            "durationTicks": 60,
            "midi": 71,
            "name": "B4",
            "ticks": 21360,
            "time": 66.75,
            "velocity": 0.4566929133858268
          },
          {
            "duration": 0.17499999999999716,
            "durationTicks": 56,
            "midi": 73,
            "name": "C#5",
            "ticks": 21420,
            "time": 66.9375,
            "velocity": 0.47244094488188976
          },
          {
            "duration": 1.2874999999999943,
            "durationTicks": 412,
            "midi": 74,
            "name": "D5",
            "ticks": 21480,
            "time": 67.125,
            "velocity": 0.44881889763779526
          },
          {
            "duration": 0.7374999999999972,
            "durationTicks": 236,
            "midi": 68,
            "name": "G#4",
            "ticks": 21900,
            "time": 68.4375,
            "velocity": 0.47244094488188976
          },
          {
            "duration": 0.3499999999999943,
            "durationTicks": 112,
            "midi": 73,
            "name": "C#5",
            "ticks": 21900,
            "time": 68.4375,
            "velocity": 0.5039370078740157
          },
          {
            "duration": 0.2749999999999915,
            "durationTicks": 88,
            "midi": 71,
            "name": "B4",
            "ticks": 21960,
            "time": 68.625,
            "velocity": 0.3858267716535433
          },
          {
            "duration": 2.575000000000003,
            "durationTicks": 824,
            "midi": 64,
            "name": "E4",
            "ticks": 22080,
            "time": 69,
            "velocity": 0.44881889763779526
          },
          {
            "duration": 2.8125,
            "durationTicks": 900,
            "midi": 69,
            "name": "A4",
            "ticks": 22080,
            "time": 69,
            "velocity": 0.4566929133858268
          },
          {
            "duration": 3.137500000000003,
            "durationTicks": 1004,
            "midi": 69,
            "name": "A4",
            "ticks": 22980,
            "time": 71.8125,
            "velocity": 0.4566929133858268
          },
          {
            "duration": 1.7749999999999915,
            "durationTicks": 568,
            "midi": 73,
            "name": "C#5",
            "ticks": 23040,
            "time": 72,
            "velocity": 0.6141732283464567
          },
          {
            "duration": 0.20000000000000284,
            "durationTicks": 64,
            "midi": 74,
            "name": "D5",
            "ticks": 23580,
            "time": 73.6875,
            "velocity": 0.4881889763779528
          },
          {
            "duration": 0.1875,
            "durationTicks": 60,
            "midi": 73,
            "name": "C#5",
            "ticks": 23640,
            "time": 73.875,
            "velocity": 0.4881889763779528
          },
          {
            "duration": 0.20000000000000284,
            "durationTicks": 64,
            "midi": 71,
            "name": "B4",
            "ticks": 23700,
            "time": 74.0625,
            "velocity": 0.4645669291338583
          },
          {
            "duration": 0.44999999999998863,
            "durationTicks": 144,
            "midi": 73,
            "name": "C#5",
            "ticks": 23760,
            "time": 74.25,
            "velocity": 0.49606299212598426
          },
          {
            "duration": 0.0625,
            "durationTicks": 20,
            "midi": 71,
            "name": "B4",
            "ticks": 23820,
            "time": 74.4375,
            "velocity": 0.25196850393700787
          },
          {
            "duration": 0.6374999999999886,
            "durationTicks": 204,
            "midi": 69,
            "name": "A4",
            "ticks": 23880,
            "time": 74.625,
            "velocity": 0.4881889763779528
          },
          {
            "duration": 2.1499999999999915,
            "durationTicks": 688,
            "midi": 81,
            "name": "A5",
            "ticks": 24000,
            "time": 75,
            "velocity": 0.5984251968503937
          },
          {
            "duration": 0.21250000000000568,
            "durationTicks": 68,
            "midi": 71,
            "name": "B4",
            "ticks": 24120,
            "time": 75.375,
            "velocity": 0.5196850393700787
          },
          {
            "duration": 1.1375000000000028,
            "durationTicks": 364,
            "midi": 72,
            "name": "C5",
            "ticks": 24240,
            "time": 75.75,
            "velocity": 0.4881889763779528
          },
          {
            "duration": 0.38750000000000284,
            "durationTicks": 124,
            "midi": 71,
            "name": "B4",
            "ticks": 24600,
            "time": 76.875,
            "velocity": 0.48031496062992124
          },
          {
            "duration": 0.36249999999999716,
            "durationTicks": 116,
            "midi": 69,
            "name": "A4",
            "ticks": 24720,
            "time": 77.25,
            "velocity": 0.4881889763779528
          },
          {
            "duration": 0.75,
            "durationTicks": 240,
            "midi": 72,
            "name": "C5",
            "ticks": 24720,
            "time": 77.25,
            "velocity": 0.41732283464566927
          },
          {
            "duration": 0.42499999999999716,
            "durationTicks": 136,
            "midi": 67,
            "name": "G4",
            "ticks": 24840,
            "time": 77.625,
            "velocity": 0.44881889763779526
          },
          {
            "duration": 1.9750000000000085,
            "durationTicks": 632,
            "midi": 66,
            "name": "F#4",
            "ticks": 24960,
            "time": 78,
            "velocity": 0.4566929133858268
          },
          {
            "duration": 0.4124999999999943,
            "durationTicks": 132,
            "midi": 71,
            "name": "B4",
            "ticks": 24960,
            "time": 78,
            "velocity": 0.4645669291338583
          },
          {
            "duration": 1.1500000000000057,
            "durationTicks": 368,
            "midi": 83,
            "name": "B5",
            "ticks": 25200,
            "time": 78.75,
            "velocity": 0.4566929133858268
          },
          {
            "duration": 0.4124999999999943,
            "durationTicks": 132,
            "midi": 81,
            "name": "A5",
            "ticks": 25560,
            "time": 79.875,
            "velocity": 0.4251968503937008
          },
          {
            "duration": 0.8374999999999915,
            "durationTicks": 268,
            "midi": 75,
            "name": "D#5",
            "ticks": 25680,
            "time": 80.25,
            "velocity": 0.5118110236220472
          },
          {
            "duration": 0.42499999999999716,
            "durationTicks": 136,
            "midi": 79,
            "name": "G5",
            "ticks": 25680,
            "time": 80.25,
            "velocity": 0.4094488188976378
          },
          {
            "duration": 0.4624999999999915,
            "durationTicks": 148,
            "midi": 78,
            "name": "F#5",
            "ticks": 25800,
            "time": 80.625,
            "velocity": 0.4330708661417323
          },
          {
            "duration": 2.0875000000000057,
            "durationTicks": 668,
            "midi": 76,
            "name": "E5",
            "ticks": 25920,
            "time": 81,
            "velocity": 0.5433070866141733
          },
          {
            "duration": 1.7374999999999972,
            "durationTicks": 556,
            "midi": 79,
            "name": "G5",
            "ticks": 25920,
            "time": 81,
            "velocity": 0.41732283464566927
          },
          {
            "duration": 0.21250000000000568,
            "durationTicks": 68,
            "midi": 78,
            "name": "F#5",
            "ticks": 26460,
            "time": 82.6875,
            "velocity": 0.5118110236220472
          },
          {
            "duration": 0.9749999999999943,
            "durationTicks": 312,
            "midi": 76,
            "name": "E5",
            "ticks": 26520,
            "time": 82.875,
            "velocity": 0.41732283464566927
          },
          {
            "duration": 0.22499999999999432,
            "durationTicks": 72,
            "midi": 74,
            "name": "D5",
            "ticks": 26580,
            "time": 83.0625,
            "velocity": 0.4094488188976378
          },
          {
            "duration": 0.36249999999999716,
            "durationTicks": 116,
            "midi": 73,
            "name": "C#5",
            "ticks": 26640,
            "time": 83.25,
            "velocity": 0.5039370078740157
          },
          {
            "duration": 0.375,
            "durationTicks": 120,
            "midi": 71,
            "name": "B4",
            "ticks": 26700,
            "time": 83.4375,
            "velocity": 0.41732283464566927
          },
          {
            "duration": 0.38750000000000284,
            "durationTicks": 124,
            "midi": 70,
            "name": "A#4",
            "ticks": 26820,
            "time": 83.8125,
            "velocity": 0.5039370078740157
          },
          {
            "duration": 3.1875,
            "durationTicks": 1020,
            "midi": 76,
            "name": "E5",
            "ticks": 26820,
            "time": 83.8125,
            "velocity": 0.5039370078740157
          },
          {
            "duration": 0.16249999999999432,
            "durationTicks": 52,
            "midi": 71,
            "name": "B4",
            "ticks": 26940,
            "time": 84.1875,
            "velocity": 0.3700787401574803
          },
          {
            "duration": 1.0500000000000114,
            "durationTicks": 336,
            "midi": 73,
            "name": "C#5",
            "ticks": 27060,
            "time": 84.5625,
            "velocity": 0.5511811023622047
          },
          {
            "duration": 0.13750000000000284,
            "durationTicks": 44,
            "midi": 74,
            "name": "D5",
            "ticks": 27420,
            "time": 85.6875,
            "velocity": 0.48031496062992124
          },
          {
            "duration": 1.0249999999999915,
            "durationTicks": 328,
            "midi": 76,
            "name": "E5",
            "ticks": 27540,
            "time": 86.0625,
            "velocity": 0.5354330708661418
          },
          {
            "duration": 0.38750000000000284,
            "durationTicks": 124,
            "midi": 74,
            "name": "D5",
            "ticks": 27900,
            "time": 87.1875,
            "velocity": 0.5275590551181102
          },
          {
            "duration": 0.22499999999999432,
            "durationTicks": 72,
            "midi": 78,
            "name": "F#5",
            "ticks": 27900,
            "time": 87.1875,
            "velocity": 0.4881889763779528
          },
          {
            "duration": 0.42499999999999716,
            "durationTicks": 136,
            "midi": 73,
            "name": "C#5",
            "ticks": 28020,
            "time": 87.5625,
            "velocity": 0.47244094488188976
          },
          {
            "duration": 1.375,
            "durationTicks": 440,
            "midi": 79,
            "name": "G5",
            "ticks": 28020,
            "time": 87.5625,
            "velocity": 0.44881889763779526
          },
          {
            "duration": 0.4124999999999943,
            "durationTicks": 132,
            "midi": 71,
            "name": "B4",
            "ticks": 28140,
            "time": 87.9375,
            "velocity": 0.4330708661417323
          },
          {
            "duration": 0.44999999999998863,
            "durationTicks": 144,
            "midi": 70,
            "name": "A#4",
            "ticks": 28260,
            "time": 88.3125,
            "velocity": 0.4645669291338583
          },
          {
            "duration": 0.4375,
            "durationTicks": 140,
            "midi": 71,
            "name": "B4",
            "ticks": 28380,
            "time": 88.6875,
            "velocity": 0.3464566929133858
          },
          {
            "duration": 0.75,
            "durationTicks": 240,
            "midi": 73,
            "name": "C#5",
            "ticks": 28500,
            "time": 89.0625,
            "velocity": 0.47244094488188976
          },
          {
            "duration": 0.6875,
            "durationTicks": 220,
            "midi": 78,
            "name": "F#5",
            "ticks": 28500,
            "time": 89.0625,
            "velocity": 0.5196850393700787
          },
          {
            "duration": 0.5,
            "durationTicks": 160,
            "midi": 71,
            "name": "B4",
            "ticks": 28740,
            "time": 89.8125,
            "velocity": 0.4566929133858268
          },
          {
            "duration": 0.4000000000000057,
            "durationTicks": 128,
            "midi": 76,
            "name": "E5",
            "ticks": 28740,
            "time": 89.8125,
            "velocity": 0.47244094488188976
          },
          {
            "duration": 0.42499999999999716,
            "durationTicks": 136,
            "midi": 74,
            "name": "D5",
            "ticks": 28860,
            "time": 90.1875,
            "velocity": 0.49606299212598426
          },
          {
            "duration": 0.5,
            "durationTicks": 160,
            "midi": 71,
            "name": "B4",
            "ticks": 28980,
            "time": 90.5625,
            "velocity": 0.41732283464566927
          },
          {
            "duration": 0.36249999999999716,
            "durationTicks": 116,
            "midi": 73,
            "name": "C#5",
            "ticks": 28980,
            "time": 90.5625,
            "velocity": 0.47244094488188976
          },
          {
            "duration": 0.44999999999998863,
            "durationTicks": 144,
            "midi": 71,
            "name": "B4",
            "ticks": 29100,
            "time": 90.9375,
            "velocity": 0.3700787401574803
          },
          {
            "duration": 0.8374999999999915,
            "durationTicks": 268,
            "midi": 71,
            "name": "B4",
            "ticks": 29220,
            "time": 91.3125,
            "velocity": 0.4645669291338583
          },
          {
            "duration": 0.4750000000000085,
            "durationTicks": 152,
            "midi": 73,
            "name": "C#5",
            "ticks": 29280,
            "time": 91.5,
            "velocity": 0.5590551181102362
          },
          {
            "duration": 0.11250000000001137,
            "durationTicks": 36,
            "midi": 74,
            "name": "D5",
            "ticks": 29400,
            "time": 91.875,
            "velocity": 0.48031496062992124
          },
          {
            "duration": 0.9000000000000057,
            "durationTicks": 288,
            "midi": 74,
            "name": "D5",
            "ticks": 29460,
            "time": 92.0625,
            "velocity": 0.4251968503937008
          },
          {
            "duration": 0.125,
            "durationTicks": 40,
            "midi": 76,
            "name": "E5",
            "ticks": 29460,
            "time": 92.0625,
            "velocity": 0.3937007874015748
          },
          {
            "duration": 0.7874999999999943,
            "durationTicks": 252,
            "midi": 70,
            "name": "A#4",
            "ticks": 29520,
            "time": 92.25,
            "velocity": 0.41732283464566927
          },
          {
            "duration": 2.674999999999997,
            "durationTicks": 856,
            "midi": 66,
            "name": "F#4",
            "ticks": 29760,
            "time": 93,
            "velocity": 0.4330708661417323
          },
          {
            "duration": 2.612499999999997,
            "durationTicks": 836,
            "midi": 71,
            "name": "B4",
            "ticks": 29760,
            "time": 93,
            "velocity": 0.33858267716535434
          },
          {
            "duration": 1.5375000000000085,
            "durationTicks": 492,
            "midi": 64,
            "name": "E4",
            "ticks": 30720,
            "time": 96,
            "velocity": 0.48031496062992124
          },
          {
            "duration": 1.875,
            "durationTicks": 600,
            "midi": 74,
            "name": "D5",
            "ticks": 30720,
            "time": 96,
            "velocity": 0.6141732283464567
          },
          {
            "duration": 1.3375000000000057,
            "durationTicks": 428,
            "midi": 66,
            "name": "F#4",
            "ticks": 31200,
            "time": 97.5,
            "velocity": 0.5039370078740157
          },
          {
            "duration": 0.38750000000001705,
            "durationTicks": 124,
            "midi": 78,
            "name": "F#5",
            "ticks": 31320,
            "time": 97.875,
            "velocity": 0.5433070866141733
          },
          {
            "duration": 0.375,
            "durationTicks": 120,
            "midi": 76,
            "name": "E5",
            "ticks": 31440,
            "time": 98.25,
            "velocity": 0.47244094488188976
          },
          {
            "duration": 0.44999999999998863,
            "durationTicks": 144,
            "midi": 74,
            "name": "D5",
            "ticks": 31560,
            "time": 98.625,
            "velocity": 0.4645669291338583
          },
          {
            "duration": 0.6750000000000114,
            "durationTicks": 216,
            "midi": 59,
            "name": "B3",
            "ticks": 31680,
            "time": 99,
            "velocity": 0.4645669291338583
          },
          {
            "duration": 2.2249999999999943,
            "durationTicks": 712,
            "midi": 83,
            "name": "B5",
            "ticks": 31680,
            "time": 99,
            "velocity": 0.4251968503937008
          },
          {
            "duration": 0.3499999999999943,
            "durationTicks": 112,
            "midi": 64,
            "name": "E4",
            "ticks": 31920,
            "time": 99.75,
            "velocity": 0.5354330708661418
          },
          {
            "duration": 0.4625000000000057,
            "durationTicks": 148,
            "midi": 66,
            "name": "F#4",
            "ticks": 32040,
            "time": 100.125,
            "velocity": 0.5118110236220472
          },
          {
            "duration": 0.42499999999999716,
            "durationTicks": 136,
            "midi": 68,
            "name": "G#4",
            "ticks": 32160,
            "time": 100.5,
            "velocity": 0.5433070866141733
          },
          {
            "duration": 0.13750000000000284,
            "durationTicks": 44,
            "midi": 69,
            "name": "A4",
            "ticks": 32280,
            "time": 100.875,
            "velocity": 0.5118110236220472
          },
          {
            "duration": 1.5375000000000085,
            "durationTicks": 492,
            "midi": 71,
            "name": "B4",
            "ticks": 32400,
            "time": 101.25,
            "velocity": 0.48031496062992124
          },
          {
            "duration": 0.38750000000001705,
            "durationTicks": 124,
            "midi": 81,
            "name": "A5",
            "ticks": 32400,
            "time": 101.25,
            "velocity": 0.44881889763779526
          },
          {
            "duration": 0.17499999999998295,
            "durationTicks": 56,
            "midi": 80,
            "name": "G#5",
            "ticks": 32520,
            "time": 101.625,
            "velocity": 0.4881889763779528
          },
          {
            "duration": 0.16249999999999432,
            "durationTicks": 52,
            "midi": 78,
            "name": "F#5",
            "ticks": 32640,
            "time": 102,
            "velocity": 0.3779527559055118
          },
          {
            "duration": 0.3125,
            "durationTicks": 100,
            "midi": 76,
            "name": "E5",
            "ticks": 32700,
            "time": 102.1875,
            "velocity": 0.2677165354330709
          },
          {
            "duration": 0.375,
            "durationTicks": 120,
            "midi": 81,
            "name": "A5",
            "ticks": 32760,
            "time": 102.375,
            "velocity": 0.4251968503937008
          },
          {
            "duration": 0.7750000000000057,
            "durationTicks": 248,
            "midi": 69,
            "name": "A4",
            "ticks": 32880,
            "time": 102.75,
            "velocity": 0.33858267716535434
          },
          {
            "duration": 1.487499999999983,
            "durationTicks": 476,
            "midi": 69,
            "name": "A4",
            "ticks": 32880,
            "time": 102.75,
            "velocity": 0.5275590551181102
          },
          {
            "duration": 0.11250000000001137,
            "durationTicks": 36,
            "midi": 71,
            "name": "B4",
            "ticks": 32880,
            "time": 102.75,
            "velocity": 0.3543307086614173
          },
          {
            "duration": 0.9625000000000057,
            "durationTicks": 308,
            "midi": 71,
            "name": "B4",
            "ticks": 33120,
            "time": 103.5,
            "velocity": 0.5039370078740157
          },
          {
            "duration": 0.75,
            "durationTicks": 240,
            "midi": 68,
            "name": "G#4",
            "ticks": 33360,
            "time": 104.25,
            "velocity": 0.5511811023622047
          },
          {
            "duration": 0.11250000000001137,
            "durationTicks": 36,
            "midi": 73,
            "name": "C#5",
            "ticks": 33420,
            "time": 104.4375,
            "velocity": 0.4330708661417323
          },
          {
            "duration": 0.1875,
            "durationTicks": 60,
            "midi": 74,
            "name": "D5",
            "ticks": 33480,
            "time": 104.625,
            "velocity": 0.41732283464566927
          },
          {
            "duration": 2.6999999999999886,
            "durationTicks": 864,
            "midi": 69,
            "name": "A4",
            "ticks": 33600,
            "time": 105,
            "velocity": 0.4881889763779528
          },
          {
            "duration": 1.0124999999999886,
            "durationTicks": 324,
            "midi": 73,
            "name": "C#5",
            "ticks": 33600,
            "time": 105,
            "velocity": 0.5039370078740157
          },
          {
            "duration": 0.17499999999998295,
            "durationTicks": 56,
            "midi": 71,
            "name": "B4",
            "ticks": 33960,
            "time": 106.125,
            "velocity": 0.3779527559055118
          },
          {
            "duration": 1.9125000000000085,
            "durationTicks": 612,
            "midi": 69,
            "name": "A4",
            "ticks": 34080,
            "time": 106.5,
            "velocity": 0.4881889763779528
          },
          {
            "duration": 2.200000000000003,
            "durationTicks": 704,
            "midi": 74,
            "name": "D5",
            "ticks": 34560,
            "time": 108,
            "velocity": 0.5511811023622047
          },
          {
            "duration": 0.375,
            "durationTicks": 120,
            "midi": 71,
            "name": "B4",
            "ticks": 34800,
            "time": 108.75,
            "velocity": 0.5354330708661418
          },
          {
            "duration": 0.22500000000000853,
            "durationTicks": 72,
            "midi": 72,
            "name": "C5",
            "ticks": 34920,
            "time": 109.125,
            "velocity": 0.4881889763779528
          },
          {
            "duration": 0.42499999999999716,
            "durationTicks": 136,
            "midi": 71,
            "name": "B4",
            "ticks": 35040,
            "time": 109.5,
            "velocity": 0.5275590551181102
          },
          {
            "duration": 0.26249999999998863,
            "durationTicks": 84,
            "midi": 73,
            "name": "C#5",
            "ticks": 35160,
            "time": 109.875,
            "velocity": 0.4645669291338583
          },
          {
            "duration": 1.2249999999999943,
            "durationTicks": 392,
            "midi": 74,
            "name": "D5",
            "ticks": 35280,
            "time": 110.25,
            "velocity": 0.5511811023622047
          },
          {
            "duration": 0.44999999999998863,
            "durationTicks": 144,
            "midi": 78,
            "name": "F#5",
            "ticks": 35280,
            "time": 110.25,
            "velocity": 0.5196850393700787
          },
          {
            "duration": 0.25,
            "durationTicks": 80,
            "midi": 76,
            "name": "E5",
            "ticks": 35400,
            "time": 110.625,
            "velocity": 0.4251968503937008
          },
          {
            "duration": 2.1500000000000057,
            "durationTicks": 688,
            "midi": 76,
            "name": "E5",
            "ticks": 35520,
            "time": 111,
            "velocity": 0.5433070866141733
          },
          {
            "duration": 0.3499999999999943,
            "durationTicks": 112,
            "midi": 73,
            "name": "C#5",
            "ticks": 35760,
            "time": 111.75,
            "velocity": 0.5511811023622047
          },
          {
            "duration": 0.4625000000000057,
            "durationTicks": 148,
            "midi": 71,
            "name": "B4",
            "ticks": 35880,
            "time": 112.125,
            "velocity": 0.4566929133858268
          },
          {
            "duration": 0.42499999999999716,
            "durationTicks": 136,
            "midi": 73,
            "name": "C#5",
            "ticks": 36000,
            "time": 112.5,
            "velocity": 0.5354330708661418
          },
          {
            "duration": 0.375,
            "durationTicks": 120,
            "midi": 75,
            "name": "D#5",
            "ticks": 36120,
            "time": 112.875,
            "velocity": 0.5196850393700787
          },
          {
            "duration": 1.4250000000000114,
            "durationTicks": 456,
            "midi": 76,
            "name": "E5",
            "ticks": 36240,
            "time": 113.25,
            "velocity": 0.5748031496062992
          },
          {
            "duration": 0.4125000000000085,
            "durationTicks": 132,
            "midi": 79,
            "name": "G5",
            "ticks": 36240,
            "time": 113.25,
            "velocity": 0.5039370078740157
          },
          {
            "duration": 0.23749999999999716,
            "durationTicks": 76,
            "midi": 78,
            "name": "F#5",
            "ticks": 36360,
            "time": 113.625,
            "velocity": 0.5275590551181102
          },
          {
            "duration": 2.112499999999997,
            "durationTicks": 676,
            "midi": 78,
            "name": "F#5",
            "ticks": 36480,
            "time": 114,
            "velocity": 0.5826771653543307
          },
          {
            "duration": 0.38750000000001705,
            "durationTicks": 124,
            "midi": 75,
            "name": "D#5",
            "ticks": 36720,
            "time": 114.75,
            "velocity": 0.5354330708661418
          },
          {
            "duration": 0.4375,
            "durationTicks": 140,
            "midi": 73,
            "name": "C#5",
            "ticks": 36840,
            "time": 115.125,
            "velocity": 0.4881889763779528
          },
          {
            "duration": 0.42499999999999716,
            "durationTicks": 136,
            "midi": 75,
            "name": "D#5",
            "ticks": 36960,
            "time": 115.5,
            "velocity": 0.5433070866141733
          },
          {
            "duration": 0.32500000000000284,
            "durationTicks": 104,
            "midi": 76,
            "name": "E5",
            "ticks": 37080,
            "time": 115.875,
            "velocity": 0.5039370078740157
          },
          {
            "duration": 1.1875,
            "durationTicks": 380,
            "midi": 78,
            "name": "F#5",
            "ticks": 37200,
            "time": 116.25,
            "velocity": 0.5905511811023622
          },
          {
            "duration": 0.4125000000000085,
            "durationTicks": 132,
            "midi": 81,
            "name": "A5",
            "ticks": 37200,
            "time": 116.25,
            "velocity": 0.5118110236220472
          },
          {
            "duration": 0.26249999999998863,
            "durationTicks": 84,
            "midi": 79,
            "name": "G5",
            "ticks": 37320,
            "time": 116.625,
            "velocity": 0.48031496062992124
          },
          {
            "duration": 2.7249999999999943,
            "durationTicks": 872,
            "midi": 79,
            "name": "G5",
            "ticks": 37440,
            "time": 117,
            "velocity": 0.5354330708661418
          },
          {
            "duration": 0.3499999999999943,
            "durationTicks": 112,
            "midi": 75,
            "name": "D#5",
            "ticks": 37560,
            "time": 117.375,
            "velocity": 0.47244094488188976
          },
          {
            "duration": 0.38750000000001705,
            "durationTicks": 124,
            "midi": 76,
            "name": "E5",
            "ticks": 37680,
            "time": 117.75,
            "velocity": 0.5039370078740157
          },
          {
            "duration": 0.4375,
            "durationTicks": 140,
            "midi": 71,
            "name": "B4",
            "ticks": 37800,
            "time": 118.125,
            "velocity": 0.4251968503937008
          },
          {
            "duration": 1.625,
            "durationTicks": 520,
            "midi": 64,
            "name": "E4",
            "ticks": 37920,
            "time": 118.5,
            "velocity": 0.5354330708661418
          },
          {
            "duration": 1.5375000000000085,
            "durationTicks": 492,
            "midi": 69,
            "name": "A4",
            "ticks": 38400,
            "time": 120,
            "velocity": 0.4881889763779528
          },
          {
            "duration": 0.4000000000000057,
            "durationTicks": 128,
            "midi": 61,
            "name": "C#4",
            "ticks": 38520,
            "time": 120.375,
            "velocity": 0.5433070866141733
          },
          {
            "duration": 0.4000000000000057,
            "durationTicks": 128,
            "midi": 64,
            "name": "E4",
            "ticks": 38640,
            "time": 120.75,
            "velocity": 0.4881889763779528
          },
          {
            "duration": 0.7124999999999915,
            "durationTicks": 228,
            "midi": 69,
            "name": "A4",
            "ticks": 38760,
            "time": 121.125,
            "velocity": 0.4881889763779528
          },
          {
            "duration": 0.7000000000000028,
            "durationTicks": 224,
            "midi": 73,
            "name": "C#5",
            "ticks": 38880,
            "time": 121.5,
            "velocity": 0.5433070866141733
          },
          {
            "duration": 0.4125000000000085,
            "durationTicks": 132,
            "midi": 73,
            "name": "C#5",
            "ticks": 39000,
            "time": 121.875,
            "velocity": 0.5118110236220472
          },
          {
            "duration": 1.299999999999983,
            "durationTicks": 416,
            "midi": 69,
            "name": "A4",
            "ticks": 39120,
            "time": 122.25,
            "velocity": 0.3937007874015748
          },
          {
            "duration": 0.3374999999999915,
            "durationTicks": 108,
            "midi": 76,
            "name": "E5",
            "ticks": 39120,
            "time": 122.25,
            "velocity": 0.4645669291338583
          },
          {
            "duration": 0.1875,
            "durationTicks": 60,
            "midi": 79,
            "name": "G5",
            "ticks": 39240,
            "time": 122.625,
            "velocity": 0.4645669291338583
          },
          {
            "duration": 0.38750000000001705,
            "durationTicks": 124,
            "midi": 79,
            "name": "G5",
            "ticks": 39360,
            "time": 123,
            "velocity": 0.5039370078740157
          },
          {
            "duration": 0.4125000000000085,
            "durationTicks": 132,
            "midi": 76,
            "name": "E5",
            "ticks": 39480,
            "time": 123.375,
            "velocity": 0.4645669291338583
          },
          {
            "duration": 0.375,
            "durationTicks": 120,
            "midi": 73,
            "name": "C#5",
            "ticks": 39600,
            "time": 123.75,
            "velocity": 0.5511811023622047
          },
          {
            "duration": 1.875,
            "durationTicks": 600,
            "midi": 78,
            "name": "F#5",
            "ticks": 39600,
            "time": 123.75,
            "velocity": 0.5039370078740157
          },
          {
            "duration": 0.3499999999999943,
            "durationTicks": 112,
            "midi": 74,
            "name": "D5",
            "ticks": 39720,
            "time": 124.125,
            "velocity": 0.44881889763779526
          },
          {
            "duration": 2.2124999999999915,
            "durationTicks": 708,
            "midi": 62,
            "name": "D4",
            "ticks": 39840,
            "time": 124.5,
            "velocity": 0.5118110236220472
          },
          {
            "duration": 0.13750000000000284,
            "durationTicks": 44,
            "midi": 79,
            "name": "G5",
            "ticks": 40200,
            "time": 125.625,
            "velocity": 0.3937007874015748
          },
          {
            "duration": 0.2750000000000057,
            "durationTicks": 88,
            "midi": 81,
            "name": "A5",
            "ticks": 40260,
            "time": 125.8125,
            "velocity": 0.4251968503937008
          },
          {
            "duration": 1.7250000000000085,
            "durationTicks": 552,
            "midi": 74,
            "name": "D5",
            "ticks": 40320,
            "time": 126,
            "velocity": 0.4566929133858268
          },
          {
            "duration": 0.6624999999999943,
            "durationTicks": 212,
            "midi": 64,
            "name": "E4",
            "ticks": 40560,
            "time": 126.75,
            "velocity": 0.5275590551181102
          },
          {
            "duration": 1.4000000000000057,
            "durationTicks": 448,
            "midi": 66,
            "name": "F#4",
            "ticks": 40800,
            "time": 127.5,
            "velocity": 0.5511811023622047
          },
          {
            "duration": 0.4375,
            "durationTicks": 140,
            "midi": 78,
            "name": "F#5",
            "ticks": 40920,
            "time": 127.875,
            "velocity": 0.5354330708661418
          },
          {
            "duration": 0.36249999999998295,
            "durationTicks": 116,
            "midi": 81,
            "name": "A5",
            "ticks": 41040,
            "time": 128.25,
            "velocity": 0.5118110236220472
          },
          {
            "duration": 0.4625000000000057,
            "durationTicks": 148,
            "midi": 84,
            "name": "C6",
            "ticks": 41160,
            "time": 128.625,
            "velocity": 0.3858267716535433
          },
          {
            "duration": 3.549999999999983,
            "durationTicks": 1136,
            "midi": 67,
            "name": "G4",
            "ticks": 41280,
            "time": 129,
            "velocity": 0.5669291338582677
          },
          {
            "duration": 1.9499999999999886,
            "durationTicks": 624,
            "midi": 83,
            "name": "B5",
            "ticks": 41280,
            "time": 129,
            "velocity": 0.47244094488188976
          },
          {
            "duration": 0.6624999999999943,
            "durationTicks": 212,
            "midi": 74,
            "name": "D5",
            "ticks": 42000,
            "time": 131.25,
            "velocity": 0.5196850393700787
          },
          {
            "duration": 0.36249999999998295,
            "durationTicks": 116,
            "midi": 73,
            "name": "C#5",
            "ticks": 42240,
            "time": 132,
            "velocity": 0.5590551181102362
          },
          {
            "duration": 0.33749999999997726,
            "durationTicks": 108,
            "midi": 76,
            "name": "E5",
            "ticks": 42360,
            "time": 132.375,
            "velocity": 0.47244094488188976
          },
          {
            "duration": 0.549999999999983,
            "durationTicks": 176,
            "midi": 71,
            "name": "B4",
            "ticks": 42480,
            "time": 132.75,
            "velocity": 0.5905511811023622
          },
          {
            "duration": 1.6374999999999886,
            "durationTicks": 524,
            "midi": 79,
            "name": "G5",
            "ticks": 42480,
            "time": 132.75,
            "velocity": 0.5118110236220472
          },
          {
            "duration": 1.7375000000000114,
            "durationTicks": 556,
            "midi": 76,
            "name": "E5",
            "ticks": 42720,
            "time": 133.5,
            "velocity": 0.5748031496062992
          },
          {
            "duration": 0.737499999999983,
            "durationTicks": 236,
            "midi": 71,
            "name": "B4",
            "ticks": 42960,
            "time": 134.25,
            "velocity": 0.5196850393700787
          },
          {
            "duration": 0.44999999999998863,
            "durationTicks": 144,
            "midi": 69,
            "name": "A4",
            "ticks": 43200,
            "time": 135,
            "velocity": 0.5590551181102362
          },
          {
            "duration": 0.38750000000001705,
            "durationTicks": 124,
            "midi": 74,
            "name": "D5",
            "ticks": 43320,
            "time": 135.375,
            "velocity": 0.5196850393700787
          },
          {
            "duration": 0.36249999999998295,
            "durationTicks": 116,
            "midi": 73,
            "name": "C#5",
            "ticks": 43440,
            "time": 135.75,
            "velocity": 0.5118110236220472
          },
          {
            "duration": 0.2750000000000057,
            "durationTicks": 88,
            "midi": 76,
            "name": "E5",
            "ticks": 43440,
            "time": 135.75,
            "velocity": 0.6692913385826772
          },
          {
            "duration": 0.38750000000001705,
            "durationTicks": 124,
            "midi": 71,
            "name": "B4",
            "ticks": 43560,
            "time": 136.125,
            "velocity": 0.4645669291338583
          },
          {
            "duration": 0.08750000000000568,
            "durationTicks": 28,
            "midi": 78,
            "name": "F#5",
            "ticks": 43620,
            "time": 136.3125,
            "velocity": 0.5433070866141733
          },
          {
            "duration": 0.5249999999999773,
            "durationTicks": 168,
            "midi": 79,
            "name": "G5",
            "ticks": 43620,
            "time": 136.3125,
            "velocity": 0.48031496062992124
          },
          {
            "duration": 0.6000000000000227,
            "durationTicks": 192,
            "midi": 69,
            "name": "A4",
            "ticks": 43680,
            "time": 136.5,
            "velocity": 0.4881889763779528
          },
          {
            "duration": 0.7249999999999943,
            "durationTicks": 232,
            "midi": 78,
            "name": "F#5",
            "ticks": 43800,
            "time": 136.875,
            "velocity": 0.6614173228346457
          },
          {
            "duration": 0.6125000000000114,
            "durationTicks": 196,
            "midi": 71,
            "name": "B4",
            "ticks": 43920,
            "time": 137.25,
            "velocity": 0.5118110236220472
          },
          {
            "duration": 0.30000000000001137,
            "durationTicks": 96,
            "midi": 76,
            "name": "E5",
            "ticks": 44040,
            "time": 137.625,
            "velocity": 0.5511811023622047
          },
          {
            "duration": 1.2125000000000057,
            "durationTicks": 388,
            "midi": 69,
            "name": "A4",
            "ticks": 44160,
            "time": 138,
            "velocity": 0.6535433070866141
          },
          {
            "duration": 0.125,
            "durationTicks": 40,
            "midi": 73,
            "name": "C#5",
            "ticks": 44160,
            "time": 138,
            "velocity": 0.5826771653543307
          },
          {
            "duration": 0.05000000000001137,
            "durationTicks": 16,
            "midi": 74,
            "name": "D5",
            "ticks": 44160,
            "time": 138,
            "velocity": 0.6614173228346457
          },
          {
            "duration": 0.875,
            "durationTicks": 280,
            "midi": 71,
            "name": "B4",
            "ticks": 44220,
            "time": 138.1875,
            "velocity": 0.5196850393700787
          },
          {
            "duration": 0.1875,
            "durationTicks": 60,
            "midi": 73,
            "name": "C#5",
            "ticks": 44460,
            "time": 138.9375,
            "velocity": 0.5511811023622047
          },
          {
            "duration": 0.09999999999999432,
            "durationTicks": 32,
            "midi": 74,
            "name": "D5",
            "ticks": 44580,
            "time": 139.3125,
            "velocity": 0.6614173228346457
          },
          {
            "duration": 0.32499999999998863,
            "durationTicks": 104,
            "midi": 67,
            "name": "G4",
            "ticks": 44640,
            "time": 139.5,
            "velocity": 0.7401574803149606
          },
          {
            "duration": 0.03750000000002274,
            "durationTicks": 12,
            "midi": 69,
            "name": "A4",
            "ticks": 44640,
            "time": 139.5,
            "velocity": 0.4094488188976378
          },
          {
            "duration": 0.6750000000000114,
            "durationTicks": 216,
            "midi": 74,
            "name": "D5",
            "ticks": 44640,
            "time": 139.5,
            "velocity": 0.49606299212598426
          },
          {
            "duration": 0.03750000000002274,
            "durationTicks": 12,
            "midi": 76,
            "name": "E5",
            "ticks": 44640,
            "time": 139.5,
            "velocity": 0.5590551181102362
          },
          {
            "duration": 0.16249999999999432,
            "durationTicks": 52,
            "midi": 69,
            "name": "A4",
            "ticks": 44700,
            "time": 139.6875,
            "velocity": 0.2283464566929134
          },
          {
            "duration": 0.0625,
            "durationTicks": 20,
            "midi": 76,
            "name": "E5",
            "ticks": 44700,
            "time": 139.6875,
            "velocity": 0.4881889763779528
          },
          {
            "duration": 0.14999999999997726,
            "durationTicks": 48,
            "midi": 67,
            "name": "G4",
            "ticks": 44760,
            "time": 139.875,
            "velocity": 0.2677165354330709
          },
          {
            "duration": 0.20000000000001705,
            "durationTicks": 64,
            "midi": 69,
            "name": "A4",
            "ticks": 44760,
            "time": 139.875,
            "velocity": 0.4094488188976378
          },
          {
            "duration": 0.08750000000000568,
            "durationTicks": 28,
            "midi": 76,
            "name": "E5",
            "ticks": 44760,
            "time": 139.875,
            "velocity": 0.5196850393700787
          },
          {
            "duration": 0.09999999999999432,
            "durationTicks": 32,
            "midi": 67,
            "name": "G4",
            "ticks": 44820,
            "time": 140.0625,
            "velocity": 0.2125984251968504
          },
          {
            "duration": 0.07499999999998863,
            "durationTicks": 24,
            "midi": 76,
            "name": "E5",
            "ticks": 44820,
            "time": 140.0625,
            "velocity": 0.4330708661417323
          },
          {
            "duration": 0.14999999999997726,
            "durationTicks": 48,
            "midi": 66,
            "name": "F#4",
            "ticks": 44880,
            "time": 140.25,
            "velocity": 0.47244094488188976
          },
          {
            "duration": 0.20000000000001705,
            "durationTicks": 64,
            "midi": 74,
            "name": "D5",
            "ticks": 44880,
            "time": 140.25,
            "velocity": 0.4094488188976378
          },
          {
            "duration": 0.13749999999998863,
            "durationTicks": 44,
            "midi": 76,
            "name": "E5",
            "ticks": 44880,
            "time": 140.25,
            "velocity": 0.4251968503937008
          },
          {
            "duration": 0.11250000000001137,
            "durationTicks": 36,
            "midi": 67,
            "name": "G4",
            "ticks": 45000,
            "time": 140.625,
            "velocity": 0.49606299212598426
          },
          {
            "duration": 0.125,
            "durationTicks": 40,
            "midi": 73,
            "name": "C#5",
            "ticks": 45000,
            "time": 140.625,
            "velocity": 0.4645669291338583
          },
          {
            "duration": 0.07499999999998863,
            "durationTicks": 24,
            "midi": 74,
            "name": "D5",
            "ticks": 45060,
            "time": 140.8125,
            "velocity": 0.5354330708661418
          },
          {
            "duration": 2.75,
            "durationTicks": 880,
            "midi": 66,
            "name": "F#4",
            "ticks": 45120,
            "time": 141,
            "velocity": 0.5118110236220472
          },
          {
            "duration": 2.7249999999999943,
            "durationTicks": 872,
            "midi": 74,
            "name": "D5",
            "ticks": 45120,
            "time": 141,
            "velocity": 0.6692913385826772
          },
          {
            "duration": 1.7750000000000057,
            "durationTicks": 568,
            "midi": 73,
            "name": "C#5",
            "ticks": 46080,
            "time": 144,
            "velocity": 0.6141732283464567
          },
          {
            "duration": 2.9250000000000114,
            "durationTicks": 936,
            "midi": 69,
            "name": "A4",
            "ticks": 46140,
            "time": 144.1875,
            "velocity": 0.5984251968503937
          },
          {
            "duration": 0.20000000000001705,
            "durationTicks": 64,
            "midi": 74,
            "name": "D5",
            "ticks": 46620,
            "time": 145.6875,
            "velocity": 0.4881889763779528
          },
          {
            "duration": 0.1875,
            "durationTicks": 60,
            "midi": 73,
            "name": "C#5",
            "ticks": 46680,
            "time": 145.875,
            "velocity": 0.4881889763779528
          },
          {
            "duration": 0.20000000000001705,
            "durationTicks": 64,
            "midi": 71,
            "name": "B4",
            "ticks": 46740,
            "time": 146.0625,
            "velocity": 0.4645669291338583
          },
          {
            "duration": 0.44999999999998863,
            "durationTicks": 144,
            "midi": 73,
            "name": "C#5",
            "ticks": 46800,
            "time": 146.25,
            "velocity": 0.49606299212598426
          },
          {
            "duration": 0.0625,
            "durationTicks": 20,
            "midi": 71,
            "name": "B4",
            "ticks": 46860,
            "time": 146.4375,
            "velocity": 0.25196850393700787
          },
          {
            "duration": 0.48750000000001137,
            "durationTicks": 156,
            "midi": 69,
            "name": "A4",
            "ticks": 46920,
            "time": 146.625,
            "velocity": 0.4881889763779528
          },
          {
            "duration": 2.1500000000000057,
            "durationTicks": 688,
            "midi": 81,
            "name": "A5",
            "ticks": 47040,
            "time": 147,
            "velocity": 0.5984251968503937
          },
          {
            "duration": 0.2750000000000057,
            "durationTicks": 88,
            "midi": 71,
            "name": "B4",
            "ticks": 47160,
            "time": 147.375,
            "velocity": 0.5196850393700787
          },
          {
            "duration": 1.1625000000000227,
            "durationTicks": 372,
            "midi": 72,
            "name": "C5",
            "ticks": 47280,
            "time": 147.75,
            "velocity": 0.5039370078740157
          },
          {
            "duration": 0.375,
            "durationTicks": 120,
            "midi": 71,
            "name": "B4",
            "ticks": 47640,
            "time": 148.875,
            "velocity": 0.4645669291338583
          },
          {
            "duration": 0.375,
            "durationTicks": 120,
            "midi": 69,
            "name": "A4",
            "ticks": 47760,
            "time": 149.25,
            "velocity": 0.4881889763779528
          },
          {
            "duration": 0.75,
            "durationTicks": 240,
            "midi": 72,
            "name": "C5",
            "ticks": 47760,
            "time": 149.25,
            "velocity": 0.41732283464566927
          },
          {
            "duration": 0.41250000000002274,
            "durationTicks": 132,
            "midi": 67,
            "name": "G4",
            "ticks": 47880,
            "time": 149.625,
            "velocity": 0.4409448818897638
          },
          {
            "duration": 1.9125000000000227,
            "durationTicks": 612,
            "midi": 66,
            "name": "F#4",
            "ticks": 48000,
            "time": 150,
            "velocity": 0.5118110236220472
          },
          {
            "duration": 0.41250000000002274,
            "durationTicks": 132,
            "midi": 71,
            "name": "B4",
            "ticks": 48000,
            "time": 150,
            "velocity": 0.4645669291338583
          },
          {
            "duration": 1.1500000000000057,
            "durationTicks": 368,
            "midi": 83,
            "name": "B5",
            "ticks": 48240,
            "time": 150.75,
            "velocity": 0.4566929133858268
          },
          {
            "duration": 0.41250000000002274,
            "durationTicks": 132,
            "midi": 81,
            "name": "A5",
            "ticks": 48600,
            "time": 151.875,
            "velocity": 0.4251968503937008
          },
          {
            "duration": 0.75,
            "durationTicks": 240,
            "midi": 75,
            "name": "D#5",
            "ticks": 48720,
            "time": 152.25,
            "velocity": 0.5433070866141733
          },
          {
            "duration": 0.42500000000001137,
            "durationTicks": 136,
            "midi": 79,
            "name": "G5",
            "ticks": 48720,
            "time": 152.25,
            "velocity": 0.4094488188976378
          },
          {
            "duration": 0.4625000000000057,
            "durationTicks": 148,
            "midi": 78,
            "name": "F#5",
            "ticks": 48840,
            "time": 152.625,
            "velocity": 0.4330708661417323
          },
          {
            "duration": 2.049999999999983,
            "durationTicks": 656,
            "midi": 76,
            "name": "E5",
            "ticks": 48960,
            "time": 153,
            "velocity": 0.5196850393700787
          },
          {
            "duration": 1.7375000000000114,
            "durationTicks": 556,
            "midi": 79,
            "name": "G5",
            "ticks": 48960,
            "time": 153,
            "velocity": 0.41732283464566927
          },
          {
            "duration": 0.21250000000000568,
            "durationTicks": 68,
            "midi": 78,
            "name": "F#5",
            "ticks": 49500,
            "time": 154.6875,
            "velocity": 0.5118110236220472
          },
          {
            "duration": 0.9124999999999943,
            "durationTicks": 292,
            "midi": 76,
            "name": "E5",
            "ticks": 49560,
            "time": 154.875,
            "velocity": 0.41732283464566927
          },
          {
            "duration": 0.22500000000002274,
            "durationTicks": 72,
            "midi": 74,
            "name": "D5",
            "ticks": 49620,
            "time": 155.0625,
            "velocity": 0.4094488188976378
          },
          {
            "duration": 0.36249999999998295,
            "durationTicks": 116,
            "midi": 73,
            "name": "C#5",
            "ticks": 49680,
            "time": 155.25,
            "velocity": 0.5039370078740157
          },
          {
            "duration": 0.375,
            "durationTicks": 120,
            "midi": 71,
            "name": "B4",
            "ticks": 49740,
            "time": 155.4375,
            "velocity": 0.41732283464566927
          },
          {
            "duration": 0.38750000000001705,
            "durationTicks": 124,
            "midi": 70,
            "name": "A#4",
            "ticks": 49860,
            "time": 155.8125,
            "velocity": 0.5039370078740157
          },
          {
            "duration": 3.174999999999983,
            "durationTicks": 1016,
            "midi": 76,
            "name": "E5",
            "ticks": 49860,
            "time": 155.8125,
            "velocity": 0.5433070866141733
          },
          {
            "duration": 0.16249999999999432,
            "durationTicks": 52,
            "midi": 71,
            "name": "B4",
            "ticks": 49980,
            "time": 156.1875,
            "velocity": 0.3700787401574803
          },
          {
            "duration": 1.0500000000000114,
            "durationTicks": 336,
            "midi": 73,
            "name": "C#5",
            "ticks": 50100,
            "time": 156.5625,
            "velocity": 0.5511811023622047
          },
          {
            "duration": 0.13749999999998863,
            "durationTicks": 44,
            "midi": 74,
            "name": "D5",
            "ticks": 50460,
            "time": 157.6875,
            "velocity": 0.48031496062992124
          },
          {
            "duration": 1.1875,
            "durationTicks": 380,
            "midi": 76,
            "name": "E5",
            "ticks": 50580,
            "time": 158.0625,
            "velocity": 0.5354330708661418
          },
          {
            "duration": 0.22500000000002274,
            "durationTicks": 72,
            "midi": 78,
            "name": "F#5",
            "ticks": 50940,
            "time": 159.1875,
            "velocity": 0.4881889763779528
          },
          {
            "duration": 0.4000000000000057,
            "durationTicks": 128,
            "midi": 74,
            "name": "D5",
            "ticks": 51000,
            "time": 159.375,
            "velocity": 0.5433070866141733
          },
          {
            "duration": 1.375,
            "durationTicks": 440,
            "midi": 79,
            "name": "G5",
            "ticks": 51060,
            "time": 159.5625,
            "velocity": 0.44881889763779526
          },
          {
            "duration": 0.375,
            "durationTicks": 120,
            "midi": 73,
            "name": "C#5",
            "ticks": 51120,
            "time": 159.75,
            "velocity": 0.5118110236220472
          },
          {
            "duration": 0.38750000000001705,
            "durationTicks": 124,
            "midi": 71,
            "name": "B4",
            "ticks": 51240,
            "time": 160.125,
            "velocity": 0.3700787401574803
          },
          {
            "duration": 0.42500000000001137,
            "durationTicks": 136,
            "midi": 70,
            "name": "A#4",
            "ticks": 51360,
            "time": 160.5,
            "velocity": 0.5275590551181102
          },
          {
            "duration": 0.41250000000002274,
            "durationTicks": 132,
            "midi": 71,
            "name": "B4",
            "ticks": 51480,
            "time": 160.875,
            "velocity": 0.4409448818897638
          },
          {
            "duration": 0.8125,
            "durationTicks": 260,
            "midi": 73,
            "name": "C#5",
            "ticks": 51600,
            "time": 161.25,
            "velocity": 0.5118110236220472
          },
          {
            "duration": 0.6875,
            "durationTicks": 220,
            "midi": 78,
            "name": "F#5",
            "ticks": 51600,
            "time": 161.25,
            "velocity": 0.5196850393700787
          },
          {
            "duration": 0.6000000000000227,
            "durationTicks": 192,
            "midi": 71,
            "name": "B4",
            "ticks": 51840,
            "time": 162,
            "velocity": 0.4645669291338583
          },
          {
            "duration": 0.4000000000000057,
            "durationTicks": 128,
            "midi": 76,
            "name": "E5",
            "ticks": 51840,
            "time": 162,
            "velocity": 0.47244094488188976
          },
          {
            "duration": 0.42500000000001137,
            "durationTicks": 136,
            "midi": 74,
            "name": "D5",
            "ticks": 51960,
            "time": 162.375,
            "velocity": 0.49606299212598426
          },
          {
            "duration": 0.6000000000000227,
            "durationTicks": 192,
            "midi": 71,
            "name": "B4",
            "ticks": 52080,
            "time": 162.75,
            "velocity": 0.5118110236220472
          },
          {
            "duration": 0.36249999999998295,
            "durationTicks": 116,
            "midi": 73,
            "name": "C#5",
            "ticks": 52080,
            "time": 162.75,
            "velocity": 0.47244094488188976
          },
          {
            "duration": 0.44999999999998863,
            "durationTicks": 144,
            "midi": 71,
            "name": "B4",
            "ticks": 52200,
            "time": 163.125,
            "velocity": 0.3700787401574803
          },
          {
            "duration": 0.7875000000000227,
            "durationTicks": 252,
            "midi": 71,
            "name": "B4",
            "ticks": 52320,
            "time": 163.5,
            "velocity": 0.5039370078740157
          },
          {
            "duration": 0.4749999999999943,
            "durationTicks": 152,
            "midi": 73,
            "name": "C#5",
            "ticks": 52320,
            "time": 163.5,
            "velocity": 0.5590551181102362
          },
          {
            "duration": 0.11250000000001137,
            "durationTicks": 36,
            "midi": 74,
            "name": "D5",
            "ticks": 52440,
            "time": 163.875,
            "velocity": 0.48031496062992124
          },
          {
            "duration": 0.8999999999999773,
            "durationTicks": 288,
            "midi": 74,
            "name": "D5",
            "ticks": 52500,
            "time": 164.0625,
            "velocity": 0.4251968503937008
          },
          {
            "duration": 0.125,
            "durationTicks": 40,
            "midi": 76,
            "name": "E5",
            "ticks": 52500,
            "time": 164.0625,
            "velocity": 0.3937007874015748
          },
          {
            "duration": 0.7875000000000227,
            "durationTicks": 252,
            "midi": 70,
            "name": "A#4",
            "ticks": 52560,
            "time": 164.25,
            "velocity": 0.5905511811023622
          },
          {
            "duration": 2.637500000000017,
            "durationTicks": 844,
            "midi": 66,
            "name": "F#4",
            "ticks": 52800,
            "time": 165,
            "velocity": 0.48031496062992124
          },
          {
            "duration": 2.612499999999983,
            "durationTicks": 836,
            "midi": 71,
            "name": "B4",
            "ticks": 52800,
            "time": 165,
            "velocity": 0.33858267716535434
          },
          {
            "duration": 1.5,
            "durationTicks": 480,
            "midi": 64,
            "name": "E4",
            "ticks": 53760,
            "time": 168,
            "velocity": 0.5511811023622047
          },
          {
            "duration": 1.875,
            "durationTicks": 600,
            "midi": 74,
            "name": "D5",
            "ticks": 53760,
            "time": 168,
            "velocity": 0.6141732283464567
          },
          {
            "duration": 1.2375000000000114,
            "durationTicks": 396,
            "midi": 66,
            "name": "F#4",
            "ticks": 54240,
            "time": 169.5,
            "velocity": 0.5511811023622047
          },
          {
            "duration": 0.38750000000001705,
            "durationTicks": 124,
            "midi": 78,
            "name": "F#5",
            "ticks": 54360,
            "time": 169.875,
            "velocity": 0.5433070866141733
          },
          {
            "duration": 0.375,
            "durationTicks": 120,
            "midi": 76,
            "name": "E5",
            "ticks": 54480,
            "time": 170.25,
            "velocity": 0.47244094488188976
          },
          {
            "duration": 0.44999999999998863,
            "durationTicks": 144,
            "midi": 74,
            "name": "D5",
            "ticks": 54600,
            "time": 170.625,
            "velocity": 0.4645669291338583
          },
          {
            "duration": 0.8125,
            "durationTicks": 260,
            "midi": 59,
            "name": "B3",
            "ticks": 54720,
            "time": 171,
            "velocity": 0.49606299212598426
          },
          {
            "duration": 2.2249999999999943,
            "durationTicks": 712,
            "midi": 83,
            "name": "B5",
            "ticks": 54720,
            "time": 171,
            "velocity": 0.4251968503937008
          },
          {
            "duration": 0.41250000000002274,
            "durationTicks": 132,
            "midi": 64,
            "name": "E4",
            "ticks": 54960,
            "time": 171.75,
            "velocity": 0.5039370078740157
          },
          {
            "duration": 0.44999999999998863,
            "durationTicks": 144,
            "midi": 66,
            "name": "F#4",
            "ticks": 55080,
            "time": 172.125,
            "velocity": 0.5433070866141733
          },
          {
            "duration": 0.3499999999999943,
            "durationTicks": 112,
            "midi": 68,
            "name": "G#4",
            "ticks": 55200,
            "time": 172.5,
            "velocity": 0.5433070866141733
          },
          {
            "duration": 0.42500000000001137,
            "durationTicks": 136,
            "midi": 69,
            "name": "A4",
            "ticks": 55320,
            "time": 172.875,
            "velocity": 0.47244094488188976
          },
          {
            "duration": 1.375,
            "durationTicks": 440,
            "midi": 71,
            "name": "B4",
            "ticks": 55440,
            "time": 173.25,
            "velocity": 0.49606299212598426
          },
          {
            "duration": 0.38750000000001705,
            "durationTicks": 124,
            "midi": 81,
            "name": "A5",
            "ticks": 55440,
            "time": 173.25,
            "velocity": 0.44881889763779526
          },
          {
            "duration": 0.17499999999998295,
            "durationTicks": 56,
            "midi": 80,
            "name": "G#5",
            "ticks": 55560,
            "time": 173.625,
            "velocity": 0.4881889763779528
          },
          {
            "duration": 0.16249999999999432,
            "durationTicks": 52,
            "midi": 78,
            "name": "F#5",
            "ticks": 55680,
            "time": 174,
            "velocity": 0.3779527559055118
          },
          {
            "duration": 0.3125,
            "durationTicks": 100,
            "midi": 76,
            "name": "E5",
            "ticks": 55740,
            "time": 174.1875,
            "velocity": 0.2677165354330709
          },
          {
            "duration": 0.375,
            "durationTicks": 120,
            "midi": 81,
            "name": "A5",
            "ticks": 55800,
            "time": 174.375,
            "velocity": 0.4251968503937008
          },
          {
            "duration": 0.8000000000000114,
            "durationTicks": 256,
            "midi": 69,
            "name": "A4",
            "ticks": 55920,
            "time": 174.75,
            "velocity": 0.5511811023622047
          },
          {
            "duration": 1.487499999999983,
            "durationTicks": 476,
            "midi": 69,
            "name": "A4",
            "ticks": 55920,
            "time": 174.75,
            "velocity": 0.33858267716535434
          },
          {
            "duration": 0.03750000000002274,
            "durationTicks": 12,
            "midi": 71,
            "name": "B4",
            "ticks": 55920,
            "time": 174.75,
            "velocity": 0.3543307086614173
          },
          {
            "duration": 0.9625000000000057,
            "durationTicks": 308,
            "midi": 71,
            "name": "B4",
            "ticks": 56160,
            "time": 175.5,
            "velocity": 0.5039370078740157
          },
          {
            "duration": 0.7750000000000057,
            "durationTicks": 248,
            "midi": 68,
            "name": "G#4",
            "ticks": 56400,
            "time": 176.25,
            "velocity": 0.5669291338582677
          },
          {
            "duration": 0.11250000000001137,
            "durationTicks": 36,
            "midi": 73,
            "name": "C#5",
            "ticks": 56460,
            "time": 176.4375,
            "velocity": 0.4330708661417323
          },
          {
            "duration": 0.1875,
            "durationTicks": 60,
            "midi": 74,
            "name": "D5",
            "ticks": 56520,
            "time": 176.625,
            "velocity": 0.41732283464566927
          },
          {
            "duration": 2.7249999999999943,
            "durationTicks": 872,
            "midi": 69,
            "name": "A4",
            "ticks": 56640,
            "time": 177,
            "velocity": 0.4881889763779528
          },
          {
            "duration": 1.0124999999999886,
            "durationTicks": 324,
            "midi": 73,
            "name": "C#5",
            "ticks": 56640,
            "time": 177,
            "velocity": 0.5039370078740157
          },
          {
            "duration": 0.17499999999998295,
            "durationTicks": 56,
            "midi": 71,
            "name": "B4",
            "ticks": 57000,
            "time": 178.125,
            "velocity": 0.3779527559055118
          },
          {
            "duration": 1.9749999999999943,
            "durationTicks": 632,
            "midi": 69,
            "name": "A4",
            "ticks": 57120,
            "time": 178.5,
            "velocity": 0.4881889763779528
          },
          {
            "duration": 2.1999999999999886,
            "durationTicks": 704,
            "midi": 74,
            "name": "D5",
            "ticks": 57600,
            "time": 180,
            "velocity": 0.5511811023622047
          },
          {
            "duration": 0.38750000000001705,
            "durationTicks": 124,
            "midi": 71,
            "name": "B4",
            "ticks": 57840,
            "time": 180.75,
            "velocity": 0.5196850393700787
          },
          {
            "duration": 0.26249999999998863,
            "durationTicks": 84,
            "midi": 72,
            "name": "C5",
            "ticks": 57960,
            "time": 181.125,
            "velocity": 0.5039370078740157
          },
          {
            "duration": 0.4375,
            "durationTicks": 140,
            "midi": 71,
            "name": "B4",
            "ticks": 58080,
            "time": 181.5,
            "velocity": 0.4645669291338583
          },
          {
            "duration": 0.4000000000000057,
            "durationTicks": 128,
            "midi": 73,
            "name": "C#5",
            "ticks": 58200,
            "time": 181.875,
            "velocity": 0.5039370078740157
          },
          {
            "duration": 1.25,
            "durationTicks": 400,
            "midi": 74,
            "name": "D5",
            "ticks": 58320,
            "time": 182.25,
            "velocity": 0.5196850393700787
          },
          {
            "duration": 0.44999999999998863,
            "durationTicks": 144,
            "midi": 78,
            "name": "F#5",
            "ticks": 58320,
            "time": 182.25,
            "velocity": 0.5196850393700787
          },
          {
            "duration": 0.25,
            "durationTicks": 80,
            "midi": 76,
            "name": "E5",
            "ticks": 58440,
            "time": 182.625,
            "velocity": 0.4251968503937008
          },
          {
            "duration": 2.1500000000000057,
            "durationTicks": 688,
            "midi": 76,
            "name": "E5",
            "ticks": 58560,
            "time": 183,
            "velocity": 0.5433070866141733
          },
          {
            "duration": 0.36249999999998295,
            "durationTicks": 116,
            "midi": 73,
            "name": "C#5",
            "ticks": 58800,
            "time": 183.75,
            "velocity": 0.5433070866141733
          },
          {
            "duration": 0.4749999999999943,
            "durationTicks": 152,
            "midi": 71,
            "name": "B4",
            "ticks": 58920,
            "time": 184.125,
            "velocity": 0.44881889763779526
          },
          {
            "duration": 0.44999999999998863,
            "durationTicks": 144,
            "midi": 73,
            "name": "C#5",
            "ticks": 59040,
            "time": 184.5,
            "velocity": 0.5275590551181102
          },
          {
            "duration": 0.30000000000001137,
            "durationTicks": 96,
            "midi": 75,
            "name": "D#5",
            "ticks": 59160,
            "time": 184.875,
            "velocity": 0.5118110236220472
          },
          {
            "duration": 1.4000000000000057,
            "durationTicks": 448,
            "midi": 76,
            "name": "E5",
            "ticks": 59280,
            "time": 185.25,
            "velocity": 0.5905511811023622
          },
          {
            "duration": 0.41250000000002274,
            "durationTicks": 132,
            "midi": 79,
            "name": "G5",
            "ticks": 59280,
            "time": 185.25,
            "velocity": 0.5039370078740157
          },
          {
            "duration": 0.23750000000001137,
            "durationTicks": 76,
            "midi": 78,
            "name": "F#5",
            "ticks": 59400,
            "time": 185.625,
            "velocity": 0.5275590551181102
          },
          {
            "duration": 2.1125000000000114,
            "durationTicks": 676,
            "midi": 78,
            "name": "F#5",
            "ticks": 59520,
            "time": 186,
            "velocity": 0.5826771653543307
          },
          {
            "duration": 0.38750000000001705,
            "durationTicks": 124,
            "midi": 75,
            "name": "D#5",
            "ticks": 59760,
            "time": 186.75,
            "velocity": 0.5748031496062992
          },
          {
            "duration": 0.44999999999998863,
            "durationTicks": 144,
            "midi": 73,
            "name": "C#5",
            "ticks": 59880,
            "time": 187.125,
            "velocity": 0.5039370078740157
          },
          {
            "duration": 0.3499999999999943,
            "durationTicks": 112,
            "midi": 75,
            "name": "D#5",
            "ticks": 60000,
            "time": 187.5,
            "velocity": 0.5039370078740157
          },
          {
            "duration": 0.32499999999998863,
            "durationTicks": 104,
            "midi": 76,
            "name": "E5",
            "ticks": 60120,
            "time": 187.875,
            "velocity": 0.5039370078740157
          },
          {
            "duration": 1.125,
            "durationTicks": 360,
            "midi": 78,
            "name": "F#5",
            "ticks": 60240,
            "time": 188.25,
            "velocity": 0.5905511811023622
          },
          {
            "duration": 0.41250000000002274,
            "durationTicks": 132,
            "midi": 81,
            "name": "A5",
            "ticks": 60240,
            "time": 188.25,
            "velocity": 0.5118110236220472
          },
          {
            "duration": 0.26249999999998863,
            "durationTicks": 84,
            "midi": 79,
            "name": "G5",
            "ticks": 60360,
            "time": 188.625,
            "velocity": 0.48031496062992124
          },
          {
            "duration": 2.7249999999999943,
            "durationTicks": 872,
            "midi": 79,
            "name": "G5",
            "ticks": 60480,
            "time": 189,
            "velocity": 0.5354330708661418
          },
          {
            "duration": 0.36249999999998295,
            "durationTicks": 116,
            "midi": 75,
            "name": "D#5",
            "ticks": 60600,
            "time": 189.375,
            "velocity": 0.4645669291338583
          },
          {
            "duration": 0.375,
            "durationTicks": 120,
            "midi": 76,
            "name": "E5",
            "ticks": 60720,
            "time": 189.75,
            "velocity": 0.4881889763779528
          },
          {
            "duration": 0.4000000000000057,
            "durationTicks": 128,
            "midi": 71,
            "name": "B4",
            "ticks": 60840,
            "time": 190.125,
            "velocity": 0.44881889763779526
          },
          {
            "duration": 1.5500000000000114,
            "durationTicks": 496,
            "midi": 64,
            "name": "E4",
            "ticks": 60960,
            "time": 190.5,
            "velocity": 0.5275590551181102
          },
          {
            "duration": 1.474999999999966,
            "durationTicks": 472,
            "midi": 69,
            "name": "A4",
            "ticks": 61440,
            "time": 192,
            "velocity": 0.4881889763779528
          },
          {
            "duration": 0.41250000000002274,
            "durationTicks": 132,
            "midi": 61,
            "name": "C#4",
            "ticks": 61560,
            "time": 192.375,
            "velocity": 0.5590551181102362
          },
          {
            "duration": 0.3499999999999659,
            "durationTicks": 112,
            "midi": 64,
            "name": "E4",
            "ticks": 61680,
            "time": 192.75,
            "velocity": 0.48031496062992124
          },
          {
            "duration": 0.7124999999999773,
            "durationTicks": 228,
            "midi": 69,
            "name": "A4",
            "ticks": 61800,
            "time": 193.125,
            "velocity": 0.4566929133858268
          },
          {
            "duration": 0.4375,
            "durationTicks": 140,
            "midi": 73,
            "name": "C#5",
            "ticks": 61920,
            "time": 193.5,
            "velocity": 0.5039370078740157
          },
          {
            "duration": 1.8874999999999886,
            "durationTicks": 604,
            "midi": 69,
            "name": "A4",
            "ticks": 62040,
            "time": 193.875,
            "velocity": 0.47244094488188976
          },
          {
            "duration": 0.41250000000002274,
            "durationTicks": 132,
            "midi": 73,
            "name": "C#5",
            "ticks": 62040,
            "time": 193.875,
            "velocity": 0.5118110236220472
          },
          {
            "duration": 0.33749999999997726,
            "durationTicks": 108,
            "midi": 76,
            "name": "E5",
            "ticks": 62160,
            "time": 194.25,
            "velocity": 0.4645669291338583
          },
          {
            "duration": 0.1875,
            "durationTicks": 60,
            "midi": 79,
            "name": "G5",
            "ticks": 62280,
            "time": 194.625,
            "velocity": 0.4645669291338583
          },
          {
            "duration": 0.38749999999998863,
            "durationTicks": 124,
            "midi": 79,
            "name": "G5",
            "ticks": 62400,
            "time": 195,
            "velocity": 0.5039370078740157
          },
          {
            "duration": 0.41250000000002274,
            "durationTicks": 132,
            "midi": 76,
            "name": "E5",
            "ticks": 62520,
            "time": 195.375,
            "velocity": 0.4645669291338583
          },
          {
            "duration": 0.33749999999997726,
            "durationTicks": 108,
            "midi": 73,
            "name": "C#5",
            "ticks": 62640,
            "time": 195.75,
            "velocity": 0.5590551181102362
          },
          {
            "duration": 1.875,
            "durationTicks": 600,
            "midi": 78,
            "name": "F#5",
            "ticks": 62640,
            "time": 195.75,
            "velocity": 0.5039370078740157
          },
          {
            "duration": 0.4375,
            "durationTicks": 140,
            "midi": 74,
            "name": "D5",
            "ticks": 62760,
            "time": 196.125,
            "velocity": 0.4645669291338583
          },
          {
            "duration": 2.1000000000000227,
            "durationTicks": 672,
            "midi": 62,
            "name": "D4",
            "ticks": 62880,
            "time": 196.5,
            "velocity": 0.5354330708661418
          },
          {
            "duration": 0.13749999999998863,
            "durationTicks": 44,
            "midi": 79,
            "name": "G5",
            "ticks": 63240,
            "time": 197.625,
            "velocity": 0.3937007874015748
          },
          {
            "duration": 0.2750000000000057,
            "durationTicks": 88,
            "midi": 81,
            "name": "A5",
            "ticks": 63300,
            "time": 197.8125,
            "velocity": 0.4251968503937008
          },
          {
            "duration": 1.7250000000000227,
            "durationTicks": 552,
            "midi": 74,
            "name": "D5",
            "ticks": 63360,
            "time": 198,
            "velocity": 0.4566929133858268
          },
          {
            "duration": 0.825000000000017,
            "durationTicks": 264,
            "midi": 64,
            "name": "E4",
            "ticks": 63600,
            "time": 198.75,
            "velocity": 0.5511811023622047
          },
          {
            "duration": 1.3249999999999886,
            "durationTicks": 424,
            "midi": 66,
            "name": "F#4",
            "ticks": 63840,
            "time": 199.5,
            "velocity": 0.5590551181102362
          },
          {
            "duration": 0.4375,
            "durationTicks": 140,
            "midi": 78,
            "name": "F#5",
            "ticks": 63960,
            "time": 199.875,
            "velocity": 0.5354330708661418
          },
          {
            "duration": 0.36250000000001137,
            "durationTicks": 116,
            "midi": 81,
            "name": "A5",
            "ticks": 64080,
            "time": 200.25,
            "velocity": 0.5118110236220472
          },
          {
            "duration": 0.4625000000000057,
            "durationTicks": 148,
            "midi": 84,
            "name": "C6",
            "ticks": 64200,
            "time": 200.625,
            "velocity": 0.3858267716535433
          },
          {
            "duration": 3.5,
            "durationTicks": 1120,
            "midi": 67,
            "name": "G4",
            "ticks": 64320,
            "time": 201,
            "velocity": 0.5354330708661418
          },
          {
            "duration": 1.950000000000017,
            "durationTicks": 624,
            "midi": 83,
            "name": "B5",
            "ticks": 64320,
            "time": 201,
            "velocity": 0.47244094488188976
          },
          {
            "duration": 0.6624999999999943,
            "durationTicks": 212,
            "midi": 74,
            "name": "D5",
            "ticks": 65040,
            "time": 203.25,
            "velocity": 0.5196850393700787
          },
          {
            "duration": 0.36250000000001137,
            "durationTicks": 116,
            "midi": 73,
            "name": "C#5",
            "ticks": 65280,
            "time": 204,
            "velocity": 0.5590551181102362
          },
          {
            "duration": 0.33749999999997726,
            "durationTicks": 108,
            "midi": 76,
            "name": "E5",
            "ticks": 65400,
            "time": 204.375,
            "velocity": 0.47244094488188976
          },
          {
            "duration": 1.6374999999999886,
            "durationTicks": 524,
            "midi": 79,
            "name": "G5",
            "ticks": 65520,
            "time": 204.75,
            "velocity": 0.5118110236220472
          },
          {
            "duration": 0.625,
            "durationTicks": 200,
            "midi": 71,
            "name": "B4",
            "ticks": 65580,
            "time": 204.9375,
            "velocity": 0.5354330708661418
          },
          {
            "duration": 1.8625000000000114,
            "durationTicks": 596,
            "midi": 76,
            "name": "E5",
            "ticks": 65820,
            "time": 205.6875,
            "velocity": 0.5905511811023622
          },
          {
            "duration": 0.7375000000000114,
            "durationTicks": 236,
            "midi": 71,
            "name": "B4",
            "ticks": 66060,
            "time": 206.4375,
            "velocity": 0.5196850393700787
          },
          {
            "duration": 0.45000000000001705,
            "durationTicks": 144,
            "midi": 69,
            "name": "A4",
            "ticks": 66300,
            "time": 207.1875,
            "velocity": 0.5590551181102362
          },
          {
            "duration": 0.41250000000002274,
            "durationTicks": 132,
            "midi": 74,
            "name": "D5",
            "ticks": 66360,
            "time": 207.375,
            "velocity": 0.5118110236220472
          },
          {
            "duration": 0.41250000000002274,
            "durationTicks": 132,
            "midi": 73,
            "name": "C#5",
            "ticks": 66480,
            "time": 207.75,
            "velocity": 0.5118110236220472
          },
          {
            "duration": 0.2750000000000057,
            "durationTicks": 88,
            "midi": 76,
            "name": "E5",
            "ticks": 66480,
            "time": 207.75,
            "velocity": 0.6692913385826772
          },
          {
            "duration": 0.41250000000002274,
            "durationTicks": 132,
            "midi": 71,
            "name": "B4",
            "ticks": 66600,
            "time": 208.125,
            "velocity": 0.44881889763779526
          },
          {
            "duration": 0.08750000000000568,
            "durationTicks": 28,
            "midi": 78,
            "name": "F#5",
            "ticks": 66600,
            "time": 208.125,
            "velocity": 0.5433070866141733
          },
          {
            "duration": 0.5249999999999773,
            "durationTicks": 168,
            "midi": 79,
            "name": "G5",
            "ticks": 66660,
            "time": 208.3125,
            "velocity": 0.48031496062992124
          },
          {
            "duration": 0.625,
            "durationTicks": 200,
            "midi": 69,
            "name": "A4",
            "ticks": 66720,
            "time": 208.5,
            "velocity": 0.4881889763779528
          },
          {
            "duration": 0.7249999999999659,
            "durationTicks": 232,
            "midi": 78,
            "name": "F#5",
            "ticks": 66840,
            "time": 208.875,
            "velocity": 0.6614173228346457
          },
          {
            "duration": 0.8125,
            "durationTicks": 260,
            "midi": 71,
            "name": "B4",
            "ticks": 66960,
            "time": 209.25,
            "velocity": 0.5511811023622047
          },
          {
            "duration": 0.29999999999998295,
            "durationTicks": 96,
            "midi": 76,
            "name": "E5",
            "ticks": 67080,
            "time": 209.625,
            "velocity": 0.5511811023622047
          },
          {
            "duration": 1.3339173583333093,
            "durationTicks": 404,
            "midi": 69,
            "name": "A4",
            "ticks": 67200,
            "time": 210,
            "velocity": 0.7244094488188977
          },
          {
            "duration": 0.125,
            "durationTicks": 40,
            "midi": 73,
            "name": "C#5",
            "ticks": 67200,
            "time": 210,
            "velocity": 0.5826771653543307
          },
          {
            "duration": 0.05000000000001137,
            "durationTicks": 16,
            "midi": 74,
            "name": "D5",
            "ticks": 67200,
            "time": 210,
            "velocity": 0.6614173228346457
          },
          {
            "duration": 0.9232335416666615,
            "durationTicks": 280,
            "midi": 71,
            "name": "B4",
            "ticks": 67260,
            "time": 210.18846154999997,
            "velocity": 0.5196850393700787
          },
          {
            "duration": 0.20495500000001243,
            "durationTicks": 60,
            "midi": 73,
            "name": "C#5",
            "ticks": 67500,
            "time": 210.97618454999997,
            "velocity": 0.5511811023622047
          },
          {
            "duration": 0.11309525833334533,
            "durationTicks": 32,
            "midi": 74,
            "name": "D5",
            "ticks": 67620,
            "time": 211.38947292499998,
            "velocity": 0.6614173228346457
          },
          {
            "duration": 0.3529411999999752,
            "durationTicks": 96,
            "midi": 67,
            "name": "G4",
            "ticks": 67680,
            "time": 211.60256819999998,
            "velocity": 0.8110236220472441
          },
          {
            "duration": 0.8103275999999937,
            "durationTicks": 216,
            "midi": 74,
            "name": "D5",
            "ticks": 67680,
            "time": 211.60256819999998,
            "velocity": 0.49606299212598426
          },
          {
            "duration": 0.044117650000004005,
            "durationTicks": 12,
            "midi": 76,
            "name": "E5",
            "ticks": 67680,
            "time": 211.60256819999998,
            "velocity": 0.5590551181102362
          },
          {
            "duration": 0.10294118333334268,
            "durationTicks": 28,
            "midi": 69,
            "name": "A4",
            "ticks": 67740,
            "time": 211.82315644999997,
            "velocity": 0.6535433070866141
          },
          {
            "duration": 0.07352941666667334,
            "durationTicks": 20,
            "midi": 76,
            "name": "E5",
            "ticks": 67740,
            "time": 211.82315644999997,
            "velocity": 0.4881889763779528
          },
          {
            "duration": 0.3977273000000139,
            "durationTicks": 104,
            "midi": 67,
            "name": "G4",
            "ticks": 67800,
            "time": 212.04641849999996,
            "velocity": 0.4645669291338583
          },
          {
            "duration": 0.15151516666665543,
            "durationTicks": 40,
            "midi": 69,
            "name": "A4",
            "ticks": 67800,
            "time": 212.04641849999996,
            "velocity": 0.5590551181102362
          },
          {
            "duration": 0.10606061666666733,
            "durationTicks": 28,
            "midi": 76,
            "name": "E5",
            "ticks": 67800,
            "time": 212.04641849999996,
            "velocity": 0.5196850393700787
          },
          {
            "duration": 0.09232955000001652,
            "durationTicks": 24,
            "midi": 76,
            "name": "E5",
            "ticks": 67860,
            "time": 212.27369124999996,
            "velocity": 0.4330708661417323
          },
          {
            "duration": 0.23588709999998514,
            "durationTicks": 60,
            "midi": 66,
            "name": "F#4",
            "ticks": 67920,
            "time": 212.50664579999997,
            "velocity": 0.6141732283464567
          },
          {
            "duration": 0.2520161333333135,
            "durationTicks": 64,
            "midi": 74,
            "name": "D5",
            "ticks": 67920,
            "time": 212.50664579999997,
            "velocity": 0.4094488188976378
          },
          {
            "duration": 0.171875,
            "durationTicks": 44,
            "midi": 76,
            "name": "E5",
            "ticks": 67920,
            "time": 212.50664579999997,
            "velocity": 0.4251968503937008
          },
          {
            "duration": 0.16129033333331222,
            "durationTicks": 40,
            "midi": 73,
            "name": "C#5",
            "ticks": 67980,
            "time": 212.74253289999996,
            "velocity": 0.4645669291338583
          },
          {
            "duration": 0.19677420000002144,
            "durationTicks": 48,
            "midi": 67,
            "name": "G4",
            "ticks": 68040,
            "time": 212.98446839999994,
            "velocity": 0.5826771653543307
          },
          {
            "duration": 0.09677420000002712,
            "durationTicks": 24,
            "midi": 74,
            "name": "D5",
            "ticks": 68040,
            "time": 212.98446839999994,
            "velocity": 0.5354330708661418
          },
          {
            "duration": 4.42420359999997,
            "durationTicks": 872,
            "midi": 74,
            "name": "D5",
            "ticks": 68100,
            "time": 213.23124259999997,
            "velocity": 0.6692913385826772
          },
          {
            "duration": 4.399203599999993,
            "durationTicks": 848,
            "midi": 66,
            "name": "F#4",
            "ticks": 68160,
            "time": 213.48124259999994,
            "velocity": 0.5590551181102362
          }
        ]
      },
      {
        "channel": 0,
        "controlChanges": {},
        "pitchBends": [],
        "instrument": {
          "family": "piano",
          "number": 0,
          "name": "acoustic grand piano"
        },
        "name": "untitled",
        "notes": [],
        "endOfTrackTicks": 69120
      },
      {
        "channel": 2,
        "controlChanges": {
          "7": [
            {
              "number": 7,
              "ticks": 0,
              "time": 0,
              "value": 0.9448818897637795
            }
          ],
          "10": [
            {
              "number": 10,
              "ticks": 0,
              "time": 0,
              "value": 0.3543307086614173
            }
          ]
        },
        "pitchBends": [],
        "instrument": {
          "family": "ensemble",
          "number": 49,
          "name": "string ensemble 2"
        },
        "name": "",
        "notes": [
          {
            "duration": 3.125,
            "durationTicks": 1000,
            "midi": 69,
            "name": "A4",
            "ticks": 0,
            "time": 0,
            "velocity": 0.47244094488188976
          },
          {
            "duration": 2.6999999999999993,
            "durationTicks": 864,
            "midi": 71,
            "name": "B4",
            "ticks": 1020,
            "time": 3.1875,
            "velocity": 0.3937007874015748
          },
          {
            "duration": 1.6125000000000007,
            "durationTicks": 516,
            "midi": 59,
            "name": "B3",
            "ticks": 1920,
            "time": 6,
            "velocity": 0.3779527559055118
          },
          {
            "duration": 1.2874999999999996,
            "durationTicks": 412,
            "midi": 64,
            "name": "E4",
            "ticks": 2400,
            "time": 7.5,
            "velocity": 0.5354330708661418
          },
          {
            "duration": 3.450000000000001,
            "durationTicks": 1104,
            "midi": 64,
            "name": "E4",
            "ticks": 2880,
            "time": 9,
            "velocity": 0.5354330708661418
          },
          {
            "duration": 0.5749999999999993,
            "durationTicks": 184,
            "midi": 63,
            "name": "D#4",
            "ticks": 4080,
            "time": 12.75,
            "velocity": 0.5196850393700787
          },
          {
            "duration": 0.7875000000000014,
            "durationTicks": 252,
            "midi": 63,
            "name": "D#4",
            "ticks": 4320,
            "time": 13.5,
            "velocity": 0.47244094488188976
          },
          {
            "duration": 0.7375000000000007,
            "durationTicks": 236,
            "midi": 64,
            "name": "E4",
            "ticks": 4560,
            "time": 14.25,
            "velocity": 0.5511811023622047
          },
          {
            "duration": 0.8999999999999986,
            "durationTicks": 288,
            "midi": 66,
            "name": "F#4",
            "ticks": 4800,
            "time": 15,
            "velocity": 0.4881889763779528
          },
          {
            "duration": 0.8000000000000007,
            "durationTicks": 256,
            "midi": 64,
            "name": "E4",
            "ticks": 5760,
            "time": 18,
            "velocity": 0.5511811023622047
          },
          {
            "duration": 1.5375000000000014,
            "durationTicks": 492,
            "midi": 59,
            "name": "B3",
            "ticks": 6000,
            "time": 18.75,
            "velocity": 0.5039370078740157
          },
          {
            "duration": 0.5500000000000007,
            "durationTicks": 176,
            "midi": 64,
            "name": "E4",
            "ticks": 6480,
            "time": 20.25,
            "velocity": 0.5118110236220472
          },
          {
            "duration": 0.9875000000000007,
            "durationTicks": 316,
            "midi": 64,
            "name": "E4",
            "ticks": 6720,
            "time": 21,
            "velocity": 0.5590551181102362
          },
          {
            "duration": 2.325000000000003,
            "durationTicks": 744,
            "midi": 62,
            "name": "D4",
            "ticks": 7680,
            "time": 24,
            "velocity": 0.5118110236220472
          },
          {
            "duration": 0.75,
            "durationTicks": 240,
            "midi": 64,
            "name": "E4",
            "ticks": 8400,
            "time": 26.25,
            "velocity": 0.4094488188976378
          },
          {
            "duration": 0.7125000000000021,
            "durationTicks": 228,
            "midi": 66,
            "name": "F#4",
            "ticks": 8640,
            "time": 27,
            "velocity": 0.5118110236220472
          },
          {
            "duration": 0.7125000000000021,
            "durationTicks": 228,
            "midi": 62,
            "name": "D4",
            "ticks": 8880,
            "time": 27.75,
            "velocity": 0.49606299212598426
          },
          {
            "duration": 0.7375000000000007,
            "durationTicks": 236,
            "midi": 59,
            "name": "B3",
            "ticks": 9120,
            "time": 28.5,
            "velocity": 0.4251968503937008
          },
          {
            "duration": 1.4875000000000007,
            "durationTicks": 476,
            "midi": 64,
            "name": "E4",
            "ticks": 9360,
            "time": 29.25,
            "velocity": 0.5669291338582677
          },
          {
            "duration": 0.7250000000000014,
            "durationTicks": 232,
            "midi": 66,
            "name": "F#4",
            "ticks": 9840,
            "time": 30.75,
            "velocity": 0.5118110236220472
          },
          {
            "duration": 0.8374999999999986,
            "durationTicks": 268,
            "midi": 59,
            "name": "B3",
            "ticks": 10080,
            "time": 31.5,
            "velocity": 0.4251968503937008
          },
          {
            "duration": 0.5499999999999972,
            "durationTicks": 176,
            "midi": 64,
            "name": "E4",
            "ticks": 10320,
            "time": 32.25,
            "velocity": 0.5039370078740157
          },
          {
            "duration": 2.7250000000000014,
            "durationTicks": 872,
            "midi": 61,
            "name": "C#4",
            "ticks": 10560,
            "time": 33,
            "velocity": 0.5354330708661418
          },
          {
            "duration": 3.125,
            "durationTicks": 1000,
            "midi": 69,
            "name": "A4",
            "ticks": 11520,
            "time": 36,
            "velocity": 0.47244094488188976
          },
          {
            "duration": 2.700000000000003,
            "durationTicks": 864,
            "midi": 71,
            "name": "B4",
            "ticks": 12540,
            "time": 39.1875,
            "velocity": 0.3937007874015748
          },
          {
            "duration": 1.6124999999999972,
            "durationTicks": 516,
            "midi": 59,
            "name": "B3",
            "ticks": 13440,
            "time": 42,
            "velocity": 0.3779527559055118
          },
          {
            "duration": 1.2875000000000014,
            "durationTicks": 412,
            "midi": 64,
            "name": "E4",
            "ticks": 13920,
            "time": 43.5,
            "velocity": 0.5354330708661418
          },
          {
            "duration": 3.4499999999999957,
            "durationTicks": 1104,
            "midi": 64,
            "name": "E4",
            "ticks": 14400,
            "time": 45,
            "velocity": 0.5354330708661418
          },
          {
            "duration": 0.5750000000000028,
            "durationTicks": 184,
            "midi": 63,
            "name": "D#4",
            "ticks": 15600,
            "time": 48.75,
            "velocity": 0.5196850393700787
          },
          {
            "duration": 0.7874999999999943,
            "durationTicks": 252,
            "midi": 63,
            "name": "D#4",
            "ticks": 15840,
            "time": 49.5,
            "velocity": 0.47244094488188976
          },
          {
            "duration": 0.7374999999999972,
            "durationTicks": 236,
            "midi": 64,
            "name": "E4",
            "ticks": 16080,
            "time": 50.25,
            "velocity": 0.5511811023622047
          },
          {
            "duration": 0.9000000000000057,
            "durationTicks": 288,
            "midi": 66,
            "name": "F#4",
            "ticks": 16320,
            "time": 51,
            "velocity": 0.4881889763779528
          },
          {
            "duration": 0.7999999999999972,
            "durationTicks": 256,
            "midi": 64,
            "name": "E4",
            "ticks": 17280,
            "time": 54,
            "velocity": 0.5511811023622047
          },
          {
            "duration": 1.5374999999999943,
            "durationTicks": 492,
            "midi": 59,
            "name": "B3",
            "ticks": 17520,
            "time": 54.75,
            "velocity": 0.5039370078740157
          },
          {
            "duration": 0.5499999999999972,
            "durationTicks": 176,
            "midi": 64,
            "name": "E4",
            "ticks": 18000,
            "time": 56.25,
            "velocity": 0.5118110236220472
          },
          {
            "duration": 0.9874999999999972,
            "durationTicks": 316,
            "midi": 64,
            "name": "E4",
            "ticks": 18240,
            "time": 57,
            "velocity": 0.5590551181102362
          },
          {
            "duration": 2.3249999999999957,
            "durationTicks": 744,
            "midi": 62,
            "name": "D4",
            "ticks": 19200,
            "time": 60,
            "velocity": 0.5118110236220472
          },
          {
            "duration": 0.75,
            "durationTicks": 240,
            "midi": 64,
            "name": "E4",
            "ticks": 19920,
            "time": 62.25,
            "velocity": 0.4094488188976378
          },
          {
            "duration": 0.7125000000000057,
            "durationTicks": 228,
            "midi": 66,
            "name": "F#4",
            "ticks": 20160,
            "time": 63,
            "velocity": 0.5118110236220472
          },
          {
            "duration": 0.7125000000000057,
            "durationTicks": 228,
            "midi": 62,
            "name": "D4",
            "ticks": 20400,
            "time": 63.75,
            "velocity": 0.49606299212598426
          },
          {
            "duration": 0.7374999999999972,
            "durationTicks": 236,
            "midi": 59,
            "name": "B3",
            "ticks": 20640,
            "time": 64.5,
            "velocity": 0.4251968503937008
          },
          {
            "duration": 1.4874999999999972,
            "durationTicks": 476,
            "midi": 64,
            "name": "E4",
            "ticks": 20880,
            "time": 65.25,
            "velocity": 0.5669291338582677
          },
          {
            "duration": 0.7249999999999943,
            "durationTicks": 232,
            "midi": 66,
            "name": "F#4",
            "ticks": 21360,
            "time": 66.75,
            "velocity": 0.5118110236220472
          },
          {
            "duration": 0.8374999999999915,
            "durationTicks": 268,
            "midi": 59,
            "name": "B3",
            "ticks": 21600,
            "time": 67.5,
            "velocity": 0.4251968503937008
          },
          {
            "duration": 0.5499999999999972,
            "durationTicks": 176,
            "midi": 64,
            "name": "E4",
            "ticks": 21840,
            "time": 68.25,
            "velocity": 0.5039370078740157
          },
          {
            "duration": 2.7250000000000085,
            "durationTicks": 872,
            "midi": 61,
            "name": "C#4",
            "ticks": 22080,
            "time": 69,
            "velocity": 0.5354330708661418
          },
          {
            "duration": 3.4124999999999943,
            "durationTicks": 1092,
            "midi": 64,
            "name": "E4",
            "ticks": 23040,
            "time": 72,
            "velocity": 0.5748031496062992
          },
          {
            "duration": 0.32500000000000284,
            "durationTicks": 104,
            "midi": 63,
            "name": "D#4",
            "ticks": 24240,
            "time": 75.75,
            "velocity": 0.5748031496062992
          },
          {
            "duration": 0.38750000000000284,
            "durationTicks": 124,
            "midi": 64,
            "name": "E4",
            "ticks": 24360,
            "time": 76.125,
            "velocity": 0.4409448818897638
          },
          {
            "duration": 1.7749999999999915,
            "durationTicks": 568,
            "midi": 66,
            "name": "F#4",
            "ticks": 24480,
            "time": 76.5,
            "velocity": 0.5118110236220472
          },
          {
            "duration": 0.2749999999999915,
            "durationTicks": 88,
            "midi": 67,
            "name": "G4",
            "ticks": 25080,
            "time": 78.375,
            "velocity": 0.44881889763779526
          },
          {
            "duration": 0.4000000000000057,
            "durationTicks": 128,
            "midi": 69,
            "name": "A4",
            "ticks": 25200,
            "time": 78.75,
            "velocity": 0.4566929133858268
          },
          {
            "duration": 0.36249999999999716,
            "durationTicks": 116,
            "midi": 66,
            "name": "F#4",
            "ticks": 25320,
            "time": 79.125,
            "velocity": 0.4251968503937008
          },
          {
            "duration": 0.7374999999999972,
            "durationTicks": 236,
            "midi": 63,
            "name": "D#4",
            "ticks": 25440,
            "time": 79.5,
            "velocity": 0.44881889763779526
          },
          {
            "duration": 0.5625,
            "durationTicks": 180,
            "midi": 71,
            "name": "B4",
            "ticks": 25680,
            "time": 80.25,
            "velocity": 0.5275590551181102
          },
          {
            "duration": 1.4749999999999943,
            "durationTicks": 472,
            "midi": 71,
            "name": "B4",
            "ticks": 25920,
            "time": 81,
            "velocity": 0.5669291338582677
          },
          {
            "duration": 1.3250000000000028,
            "durationTicks": 424,
            "midi": 59,
            "name": "B3",
            "ticks": 26400,
            "time": 82.5,
            "velocity": 0.4881889763779528
          },
          {
            "duration": 0.3499999999999943,
            "durationTicks": 112,
            "midi": 61,
            "name": "C#4",
            "ticks": 26880,
            "time": 84,
            "velocity": 0.5590551181102362
          },
          {
            "duration": 0.375,
            "durationTicks": 120,
            "midi": 62,
            "name": "D4",
            "ticks": 27000,
            "time": 84.375,
            "velocity": 0.3779527559055118
          },
          {
            "duration": 0.04999999999999716,
            "durationTicks": 16,
            "midi": 64,
            "name": "E4",
            "ticks": 27000,
            "time": 84.375,
            "velocity": 0.14173228346456693
          },
          {
            "duration": 0.3499999999999943,
            "durationTicks": 112,
            "midi": 64,
            "name": "E4",
            "ticks": 27120,
            "time": 84.75,
            "velocity": 0.4645669291338583
          },
          {
            "duration": 0.30000000000001137,
            "durationTicks": 96,
            "midi": 66,
            "name": "F#4",
            "ticks": 27240,
            "time": 85.125,
            "velocity": 0.5118110236220472
          },
          {
            "duration": 0.3375000000000057,
            "durationTicks": 108,
            "midi": 67,
            "name": "G4",
            "ticks": 27300,
            "time": 85.3125,
            "velocity": 0.4094488188976378
          },
          {
            "duration": 0.3499999999999943,
            "durationTicks": 112,
            "midi": 66,
            "name": "F#4",
            "ticks": 27420,
            "time": 85.6875,
            "velocity": 0.3937007874015748
          },
          {
            "duration": 0.3499999999999943,
            "durationTicks": 112,
            "midi": 67,
            "name": "G4",
            "ticks": 27540,
            "time": 86.0625,
            "velocity": 0.41732283464566927
          },
          {
            "duration": 0.44999999999998863,
            "durationTicks": 144,
            "midi": 64,
            "name": "E4",
            "ticks": 27660,
            "time": 86.4375,
            "velocity": 0.4409448818897638
          },
          {
            "duration": 0.875,
            "durationTicks": 280,
            "midi": 66,
            "name": "F#4",
            "ticks": 27780,
            "time": 86.8125,
            "velocity": 0.5275590551181102
          },
          {
            "duration": 0.2875000000000085,
            "durationTicks": 92,
            "midi": 64,
            "name": "E4",
            "ticks": 28020,
            "time": 87.5625,
            "velocity": 0.5039370078740157
          },
          {
            "duration": 0.48750000000001137,
            "durationTicks": 156,
            "midi": 62,
            "name": "D4",
            "ticks": 28140,
            "time": 87.9375,
            "velocity": 0.48031496062992124
          },
          {
            "duration": 0.5125000000000028,
            "durationTicks": 164,
            "midi": 61,
            "name": "C#4",
            "ticks": 28260,
            "time": 88.3125,
            "velocity": 0.48031496062992124
          },
          {
            "duration": 0.6625000000000085,
            "durationTicks": 212,
            "midi": 66,
            "name": "F#4",
            "ticks": 28500,
            "time": 89.0625,
            "velocity": 0.5511811023622047
          },
          {
            "duration": 0.7625000000000028,
            "durationTicks": 244,
            "midi": 66,
            "name": "F#4",
            "ticks": 28800,
            "time": 90,
            "velocity": 0.6456692913385826
          },
          {
            "duration": 0.3499999999999943,
            "durationTicks": 112,
            "midi": 64,
            "name": "E4",
            "ticks": 29040,
            "time": 90.75,
            "velocity": 0.4645669291338583
          },
          {
            "duration": 0.16249999999999432,
            "durationTicks": 52,
            "midi": 62,
            "name": "D4",
            "ticks": 29160,
            "time": 91.125,
            "velocity": 0.41732283464566927
          },
          {
            "duration": 0.7874999999999943,
            "durationTicks": 252,
            "midi": 67,
            "name": "G4",
            "ticks": 29280,
            "time": 91.5,
            "velocity": 0.5275590551181102
          },
          {
            "duration": 0.4000000000000057,
            "durationTicks": 128,
            "midi": 66,
            "name": "F#4",
            "ticks": 29520,
            "time": 92.25,
            "velocity": 0.5118110236220472
          },
          {
            "duration": 0.4624999999999915,
            "durationTicks": 148,
            "midi": 64,
            "name": "E4",
            "ticks": 29640,
            "time": 92.625,
            "velocity": 0.4251968503937008
          },
          {
            "duration": 2.637500000000003,
            "durationTicks": 844,
            "midi": 62,
            "name": "D4",
            "ticks": 29760,
            "time": 93,
            "velocity": 0.5118110236220472
          },
          {
            "duration": 0.5125000000000028,
            "durationTicks": 164,
            "midi": 59,
            "name": "B3",
            "ticks": 30780,
            "time": 96.1875,
            "velocity": 0.5275590551181102
          },
          {
            "duration": 0.549999999999983,
            "durationTicks": 176,
            "midi": 71,
            "name": "B4",
            "ticks": 31020,
            "time": 96.9375,
            "velocity": 0.5196850393700787
          },
          {
            "duration": 0.32500000000000284,
            "durationTicks": 104,
            "midi": 69,
            "name": "A4",
            "ticks": 31260,
            "time": 97.6875,
            "velocity": 0.4881889763779528
          },
          {
            "duration": 0.375,
            "durationTicks": 120,
            "midi": 68,
            "name": "G#4",
            "ticks": 31380,
            "time": 98.0625,
            "velocity": 0.47244094488188976
          },
          {
            "duration": 0.8125,
            "durationTicks": 260,
            "midi": 69,
            "name": "A4",
            "ticks": 31500,
            "time": 98.4375,
            "velocity": 0.41732283464566927
          },
          {
            "duration": 1.0250000000000057,
            "durationTicks": 328,
            "midi": 68,
            "name": "G#4",
            "ticks": 31740,
            "time": 99.1875,
            "velocity": 0.5590551181102362
          },
          {
            "duration": 0.42499999999999716,
            "durationTicks": 136,
            "midi": 66,
            "name": "F#4",
            "ticks": 32100,
            "time": 100.3125,
            "velocity": 0.5275590551181102
          },
          {
            "duration": 1.7125000000000057,
            "durationTicks": 548,
            "midi": 64,
            "name": "E4",
            "ticks": 32220,
            "time": 100.6875,
            "velocity": 0.5511811023622047
          },
          {
            "duration": 0.7750000000000057,
            "durationTicks": 248,
            "midi": 64,
            "name": "E4",
            "ticks": 32940,
            "time": 102.9375,
            "velocity": 0.5669291338582677
          },
          {
            "duration": 0.75,
            "durationTicks": 240,
            "midi": 66,
            "name": "F#4",
            "ticks": 33180,
            "time": 103.6875,
            "velocity": 0.5590551181102362
          },
          {
            "duration": 0.6374999999999886,
            "durationTicks": 204,
            "midi": 64,
            "name": "E4",
            "ticks": 33360,
            "time": 104.25,
            "velocity": 0.49606299212598426
          },
          {
            "duration": 0.9124999999999943,
            "durationTicks": 292,
            "midi": 64,
            "name": "E4",
            "ticks": 33600,
            "time": 105,
            "velocity": 0.5826771653543307
          },
          {
            "duration": 0.36249999999998295,
            "durationTicks": 116,
            "midi": 62,
            "name": "D4",
            "ticks": 33960,
            "time": 106.125,
            "velocity": 0.5984251968503937
          },
          {
            "duration": 0.36249999999998295,
            "durationTicks": 116,
            "midi": 61,
            "name": "C#4",
            "ticks": 34080,
            "time": 106.5,
            "velocity": 0.5118110236220472
          },
          {
            "duration": 0.375,
            "durationTicks": 120,
            "midi": 62,
            "name": "D4",
            "ticks": 34200,
            "time": 106.875,
            "velocity": 0.44881889763779526
          },
          {
            "duration": 0.4000000000000057,
            "durationTicks": 128,
            "midi": 64,
            "name": "E4",
            "ticks": 34320,
            "time": 107.25,
            "velocity": 0.5196850393700787
          },
          {
            "duration": 0.4375,
            "durationTicks": 140,
            "midi": 61,
            "name": "C#4",
            "ticks": 34440,
            "time": 107.625,
            "velocity": 0.5118110236220472
          },
          {
            "duration": 0.4125000000000085,
            "durationTicks": 132,
            "midi": 57,
            "name": "A3",
            "ticks": 34560,
            "time": 108,
            "velocity": 0.48031496062992124
          },
          {
            "duration": 1.2125000000000057,
            "durationTicks": 388,
            "midi": 62,
            "name": "D4",
            "ticks": 34800,
            "time": 108.75,
            "velocity": 0.5590551181102362
          },
          {
            "duration": 1.2125000000000057,
            "durationTicks": 388,
            "midi": 59,
            "name": "B3",
            "ticks": 35280,
            "time": 110.25,
            "velocity": 0.5118110236220472
          },
          {
            "duration": 1.2874999999999943,
            "durationTicks": 412,
            "midi": 64,
            "name": "E4",
            "ticks": 35760,
            "time": 111.75,
            "velocity": 0.5826771653543307
          },
          {
            "duration": 1.25,
            "durationTicks": 400,
            "midi": 61,
            "name": "C#4",
            "ticks": 36240,
            "time": 113.25,
            "velocity": 0.5669291338582677
          },
          {
            "duration": 1.299999999999983,
            "durationTicks": 416,
            "midi": 66,
            "name": "F#4",
            "ticks": 36720,
            "time": 114.75,
            "velocity": 0.5669291338582677
          },
          {
            "duration": 0.7999999999999972,
            "durationTicks": 256,
            "midi": 63,
            "name": "D#4",
            "ticks": 37200,
            "time": 116.25,
            "velocity": 0.5826771653543307
          },
          {
            "duration": 1.5749999999999886,
            "durationTicks": 504,
            "midi": 59,
            "name": "B3",
            "ticks": 37440,
            "time": 117,
            "velocity": 0.5039370078740157
          },
          {
            "duration": 0.4625000000000057,
            "durationTicks": 148,
            "midi": 71,
            "name": "B4",
            "ticks": 38040,
            "time": 118.875,
            "velocity": 0.5354330708661418
          },
          {
            "duration": 0.375,
            "durationTicks": 120,
            "midi": 67,
            "name": "G4",
            "ticks": 38160,
            "time": 119.25,
            "velocity": 0.4645669291338583
          },
          {
            "duration": 0.36249999999998295,
            "durationTicks": 116,
            "midi": 64,
            "name": "E4",
            "ticks": 38280,
            "time": 119.625,
            "velocity": 0.4645669291338583
          },
          {
            "duration": 0.7124999999999915,
            "durationTicks": 228,
            "midi": 69,
            "name": "A4",
            "ticks": 38400,
            "time": 120,
            "velocity": 0.3937007874015748
          },
          {
            "duration": 0.7124999999999915,
            "durationTicks": 228,
            "midi": 67,
            "name": "G4",
            "ticks": 38640,
            "time": 120.75,
            "velocity": 0.5354330708661418
          },
          {
            "duration": 0.8125,
            "durationTicks": 260,
            "midi": 66,
            "name": "F#4",
            "ticks": 38880,
            "time": 121.5,
            "velocity": 0.5433070866141733
          },
          {
            "duration": 0.7750000000000057,
            "durationTicks": 248,
            "midi": 64,
            "name": "E4",
            "ticks": 39120,
            "time": 122.25,
            "velocity": 0.5354330708661418
          },
          {
            "duration": 1.3500000000000085,
            "durationTicks": 432,
            "midi": 62,
            "name": "D4",
            "ticks": 39360,
            "time": 123,
            "velocity": 0.5354330708661418
          },
          {
            "duration": 2.1374999999999886,
            "durationTicks": 684,
            "midi": 69,
            "name": "A4",
            "ticks": 39840,
            "time": 124.5,
            "velocity": 0.6220472440944882
          },
          {
            "duration": 0.737499999999983,
            "durationTicks": 236,
            "midi": 67,
            "name": "G4",
            "ticks": 40560,
            "time": 126.75,
            "velocity": 0.5354330708661418
          },
          {
            "duration": 1.299999999999983,
            "durationTicks": 416,
            "midi": 69,
            "name": "A4",
            "ticks": 40800,
            "time": 127.5,
            "velocity": 0.5433070866141733
          },
          {
            "duration": 2.625,
            "durationTicks": 840,
            "midi": 62,
            "name": "D4",
            "ticks": 41280,
            "time": 129,
            "velocity": 0.5590551181102362
          },
          {
            "duration": 0.4000000000000057,
            "durationTicks": 128,
            "midi": 64,
            "name": "E4",
            "ticks": 42300,
            "time": 132.1875,
            "velocity": 0.6220472440944882
          },
          {
            "duration": 0.38750000000001705,
            "durationTicks": 124,
            "midi": 59,
            "name": "B3",
            "ticks": 42420,
            "time": 132.5625,
            "velocity": 0.3937007874015748
          },
          {
            "duration": 0.4000000000000057,
            "durationTicks": 128,
            "midi": 64,
            "name": "E4",
            "ticks": 42540,
            "time": 132.9375,
            "velocity": 0.5905511811023622
          },
          {
            "duration": 0.13749999999998863,
            "durationTicks": 44,
            "midi": 67,
            "name": "G4",
            "ticks": 42600,
            "time": 133.125,
            "velocity": 0.5118110236220472
          },
          {
            "duration": 0.4000000000000057,
            "durationTicks": 128,
            "midi": 71,
            "name": "B4",
            "ticks": 42720,
            "time": 133.5,
            "velocity": 0.5118110236220472
          },
          {
            "duration": 0.4375,
            "durationTicks": 140,
            "midi": 69,
            "name": "A4",
            "ticks": 42840,
            "time": 133.875,
            "velocity": 0.47244094488188976
          },
          {
            "duration": 0.4000000000000057,
            "durationTicks": 128,
            "midi": 67,
            "name": "G4",
            "ticks": 42960,
            "time": 134.25,
            "velocity": 0.5118110236220472
          },
          {
            "duration": 0.38750000000001705,
            "durationTicks": 124,
            "midi": 66,
            "name": "F#4",
            "ticks": 43080,
            "time": 134.625,
            "velocity": 0.49606299212598426
          },
          {
            "duration": 0.5625,
            "durationTicks": 180,
            "midi": 64,
            "name": "E4",
            "ticks": 43200,
            "time": 135,
            "velocity": 0.48031496062992124
          },
          {
            "duration": 1.325000000000017,
            "durationTicks": 424,
            "midi": 69,
            "name": "A4",
            "ticks": 43440,
            "time": 135.75,
            "velocity": 0.5590551181102362
          },
          {
            "duration": 0.7750000000000057,
            "durationTicks": 248,
            "midi": 67,
            "name": "G4",
            "ticks": 43920,
            "time": 137.25,
            "velocity": 0.5354330708661418
          },
          {
            "duration": 1.5625,
            "durationTicks": 500,
            "midi": 66,
            "name": "F#4",
            "ticks": 44160,
            "time": 138,
            "velocity": 0.5590551181102362
          },
          {
            "duration": 0.7875000000000227,
            "durationTicks": 252,
            "midi": 64,
            "name": "E4",
            "ticks": 44640,
            "time": 139.5,
            "velocity": 0.5354330708661418
          },
          {
            "duration": 0.5,
            "durationTicks": 160,
            "midi": 57,
            "name": "A3",
            "ticks": 44880,
            "time": 140.25,
            "velocity": 0.5433070866141733
          },
          {
            "duration": 2.8375000000000057,
            "durationTicks": 908,
            "midi": 57,
            "name": "A3",
            "ticks": 45120,
            "time": 141,
            "velocity": 0.5984251968503937
          },
          {
            "duration": 3.4125000000000227,
            "durationTicks": 1092,
            "midi": 64,
            "name": "E4",
            "ticks": 46140,
            "time": 144.1875,
            "velocity": 0.5748031496062992
          },
          {
            "duration": 0.32499999999998863,
            "durationTicks": 104,
            "midi": 63,
            "name": "D#4",
            "ticks": 47280,
            "time": 147.75,
            "velocity": 0.5748031496062992
          },
          {
            "duration": 0.38750000000001705,
            "durationTicks": 124,
            "midi": 64,
            "name": "E4",
            "ticks": 47400,
            "time": 148.125,
            "velocity": 0.4409448818897638
          },
          {
            "duration": 1.7750000000000057,
            "durationTicks": 568,
            "midi": 66,
            "name": "F#4",
            "ticks": 47520,
            "time": 148.5,
            "velocity": 0.5118110236220472
          },
          {
            "duration": 0.2750000000000057,
            "durationTicks": 88,
            "midi": 67,
            "name": "G4",
            "ticks": 48120,
            "time": 150.375,
            "velocity": 0.44881889763779526
          },
          {
            "duration": 0.4000000000000057,
            "durationTicks": 128,
            "midi": 69,
            "name": "A4",
            "ticks": 48240,
            "time": 150.75,
            "velocity": 0.4566929133858268
          },
          {
            "duration": 0.36249999999998295,
            "durationTicks": 116,
            "midi": 66,
            "name": "F#4",
            "ticks": 48360,
            "time": 151.125,
            "velocity": 0.4251968503937008
          },
          {
            "duration": 0.737499999999983,
            "durationTicks": 236,
            "midi": 63,
            "name": "D#4",
            "ticks": 48480,
            "time": 151.5,
            "velocity": 0.44881889763779526
          },
          {
            "duration": 0.5625,
            "durationTicks": 180,
            "midi": 71,
            "name": "B4",
            "ticks": 48720,
            "time": 152.25,
            "velocity": 0.5275590551181102
          },
          {
            "duration": 1.4749999999999943,
            "durationTicks": 472,
            "midi": 71,
            "name": "B4",
            "ticks": 48960,
            "time": 153,
            "velocity": 0.5669291338582677
          },
          {
            "duration": 1.325000000000017,
            "durationTicks": 424,
            "midi": 59,
            "name": "B3",
            "ticks": 49440,
            "time": 154.5,
            "velocity": 0.4881889763779528
          },
          {
            "duration": 0.3499999999999943,
            "durationTicks": 112,
            "midi": 61,
            "name": "C#4",
            "ticks": 49920,
            "time": 156,
            "velocity": 0.5590551181102362
          },
          {
            "duration": 0.375,
            "durationTicks": 120,
            "midi": 62,
            "name": "D4",
            "ticks": 50040,
            "time": 156.375,
            "velocity": 0.3779527559055118
          },
          {
            "duration": 0.05000000000001137,
            "durationTicks": 16,
            "midi": 64,
            "name": "E4",
            "ticks": 50040,
            "time": 156.375,
            "velocity": 0.14173228346456693
          },
          {
            "duration": 0.3499999999999943,
            "durationTicks": 112,
            "midi": 64,
            "name": "E4",
            "ticks": 50160,
            "time": 156.75,
            "velocity": 0.4645669291338583
          },
          {
            "duration": 0.30000000000001137,
            "durationTicks": 96,
            "midi": 66,
            "name": "F#4",
            "ticks": 50280,
            "time": 157.125,
            "velocity": 0.5118110236220472
          },
          {
            "duration": 0.33749999999997726,
            "durationTicks": 108,
            "midi": 67,
            "name": "G4",
            "ticks": 50340,
            "time": 157.3125,
            "velocity": 0.4094488188976378
          },
          {
            "duration": 0.3499999999999943,
            "durationTicks": 112,
            "midi": 66,
            "name": "F#4",
            "ticks": 50460,
            "time": 157.6875,
            "velocity": 0.3937007874015748
          },
          {
            "duration": 0.3499999999999943,
            "durationTicks": 112,
            "midi": 67,
            "name": "G4",
            "ticks": 50580,
            "time": 158.0625,
            "velocity": 0.41732283464566927
          },
          {
            "duration": 0.44999999999998863,
            "durationTicks": 144,
            "midi": 64,
            "name": "E4",
            "ticks": 50700,
            "time": 158.4375,
            "velocity": 0.4409448818897638
          },
          {
            "duration": 0.875,
            "durationTicks": 280,
            "midi": 66,
            "name": "F#4",
            "ticks": 50820,
            "time": 158.8125,
            "velocity": 0.5275590551181102
          },
          {
            "duration": 0.2874999999999943,
            "durationTicks": 92,
            "midi": 64,
            "name": "E4",
            "ticks": 51060,
            "time": 159.5625,
            "velocity": 0.5039370078740157
          },
          {
            "duration": 0.48750000000001137,
            "durationTicks": 156,
            "midi": 62,
            "name": "D4",
            "ticks": 51180,
            "time": 159.9375,
            "velocity": 0.48031496062992124
          },
          {
            "duration": 0.5124999999999886,
            "durationTicks": 164,
            "midi": 61,
            "name": "C#4",
            "ticks": 51300,
            "time": 160.3125,
            "velocity": 0.48031496062992124
          },
          {
            "duration": 0.6624999999999943,
            "durationTicks": 212,
            "midi": 66,
            "name": "F#4",
            "ticks": 51540,
            "time": 161.0625,
            "velocity": 0.5511811023622047
          },
          {
            "duration": 0.762500000000017,
            "durationTicks": 244,
            "midi": 66,
            "name": "F#4",
            "ticks": 51840,
            "time": 162,
            "velocity": 0.6456692913385826
          },
          {
            "duration": 0.3499999999999943,
            "durationTicks": 112,
            "midi": 64,
            "name": "E4",
            "ticks": 52080,
            "time": 162.75,
            "velocity": 0.4645669291338583
          },
          {
            "duration": 0.16249999999999432,
            "durationTicks": 52,
            "midi": 62,
            "name": "D4",
            "ticks": 52200,
            "time": 163.125,
            "velocity": 0.41732283464566927
          },
          {
            "duration": 0.7875000000000227,
            "durationTicks": 252,
            "midi": 67,
            "name": "G4",
            "ticks": 52320,
            "time": 163.5,
            "velocity": 0.5275590551181102
          },
          {
            "duration": 0.4000000000000057,
            "durationTicks": 128,
            "midi": 66,
            "name": "F#4",
            "ticks": 52560,
            "time": 164.25,
            "velocity": 0.5118110236220472
          },
          {
            "duration": 0.4625000000000057,
            "durationTicks": 148,
            "midi": 64,
            "name": "E4",
            "ticks": 52680,
            "time": 164.625,
            "velocity": 0.4251968503937008
          },
          {
            "duration": 2.637500000000017,
            "durationTicks": 844,
            "midi": 62,
            "name": "D4",
            "ticks": 52800,
            "time": 165,
            "velocity": 0.5118110236220472
          },
          {
            "duration": 0.5124999999999886,
            "durationTicks": 164,
            "midi": 59,
            "name": "B3",
            "ticks": 53820,
            "time": 168.1875,
            "velocity": 0.5275590551181102
          },
          {
            "duration": 0.549999999999983,
            "durationTicks": 176,
            "midi": 71,
            "name": "B4",
            "ticks": 54060,
            "time": 168.9375,
            "velocity": 0.5196850393700787
          },
          {
            "duration": 0.32499999999998863,
            "durationTicks": 104,
            "midi": 69,
            "name": "A4",
            "ticks": 54300,
            "time": 169.6875,
            "velocity": 0.4881889763779528
          },
          {
            "duration": 0.375,
            "durationTicks": 120,
            "midi": 68,
            "name": "G#4",
            "ticks": 54420,
            "time": 170.0625,
            "velocity": 0.47244094488188976
          },
          {
            "duration": 0.8125,
            "durationTicks": 260,
            "midi": 69,
            "name": "A4",
            "ticks": 54540,
            "time": 170.4375,
            "velocity": 0.41732283464566927
          },
          {
            "duration": 1.0250000000000057,
            "durationTicks": 328,
            "midi": 68,
            "name": "G#4",
            "ticks": 54780,
            "time": 171.1875,
            "velocity": 0.5590551181102362
          },
          {
            "duration": 0.42500000000001137,
            "durationTicks": 136,
            "midi": 66,
            "name": "F#4",
            "ticks": 55140,
            "time": 172.3125,
            "velocity": 0.5275590551181102
          },
          {
            "duration": 1.7125000000000057,
            "durationTicks": 548,
            "midi": 64,
            "name": "E4",
            "ticks": 55260,
            "time": 172.6875,
            "velocity": 0.5511811023622047
          },
          {
            "duration": 0.7750000000000057,
            "durationTicks": 248,
            "midi": 64,
            "name": "E4",
            "ticks": 55980,
            "time": 174.9375,
            "velocity": 0.5669291338582677
          },
          {
            "duration": 0.75,
            "durationTicks": 240,
            "midi": 66,
            "name": "F#4",
            "ticks": 56220,
            "time": 175.6875,
            "velocity": 0.5590551181102362
          },
          {
            "duration": 0.6374999999999886,
            "durationTicks": 204,
            "midi": 64,
            "name": "E4",
            "ticks": 56400,
            "time": 176.25,
            "velocity": 0.49606299212598426
          },
          {
            "duration": 0.9124999999999943,
            "durationTicks": 292,
            "midi": 64,
            "name": "E4",
            "ticks": 56640,
            "time": 177,
            "velocity": 0.5826771653543307
          },
          {
            "duration": 0.36249999999998295,
            "durationTicks": 116,
            "midi": 62,
            "name": "D4",
            "ticks": 57000,
            "time": 178.125,
            "velocity": 0.5984251968503937
          },
          {
            "duration": 0.36249999999998295,
            "durationTicks": 116,
            "midi": 61,
            "name": "C#4",
            "ticks": 57120,
            "time": 178.5,
            "velocity": 0.5118110236220472
          },
          {
            "duration": 0.375,
            "durationTicks": 120,
            "midi": 62,
            "name": "D4",
            "ticks": 57240,
            "time": 178.875,
            "velocity": 0.44881889763779526
          },
          {
            "duration": 0.4000000000000057,
            "durationTicks": 128,
            "midi": 64,
            "name": "E4",
            "ticks": 57360,
            "time": 179.25,
            "velocity": 0.5196850393700787
          },
          {
            "duration": 0.4375,
            "durationTicks": 140,
            "midi": 61,
            "name": "C#4",
            "ticks": 57480,
            "time": 179.625,
            "velocity": 0.5118110236220472
          },
          {
            "duration": 0.41250000000002274,
            "durationTicks": 132,
            "midi": 57,
            "name": "A3",
            "ticks": 57600,
            "time": 180,
            "velocity": 0.48031496062992124
          },
          {
            "duration": 1.2125000000000057,
            "durationTicks": 388,
            "midi": 62,
            "name": "D4",
            "ticks": 57840,
            "time": 180.75,
            "velocity": 0.5590551181102362
          },
          {
            "duration": 1.2125000000000057,
            "durationTicks": 388,
            "midi": 59,
            "name": "B3",
            "ticks": 58320,
            "time": 182.25,
            "velocity": 0.5118110236220472
          },
          {
            "duration": 1.2874999999999943,
            "durationTicks": 412,
            "midi": 64,
            "name": "E4",
            "ticks": 58800,
            "time": 183.75,
            "velocity": 0.5826771653543307
          },
          {
            "duration": 1.25,
            "durationTicks": 400,
            "midi": 61,
            "name": "C#4",
            "ticks": 59280,
            "time": 185.25,
            "velocity": 0.5669291338582677
          },
          {
            "duration": 1.299999999999983,
            "durationTicks": 416,
            "midi": 66,
            "name": "F#4",
            "ticks": 59760,
            "time": 186.75,
            "velocity": 0.5669291338582677
          },
          {
            "duration": 0.8000000000000114,
            "durationTicks": 256,
            "midi": 63,
            "name": "D#4",
            "ticks": 60240,
            "time": 188.25,
            "velocity": 0.5826771653543307
          },
          {
            "duration": 1.5749999999999886,
            "durationTicks": 504,
            "midi": 59,
            "name": "B3",
            "ticks": 60480,
            "time": 189,
            "velocity": 0.5039370078740157
          },
          {
            "duration": 0.4625000000000057,
            "durationTicks": 148,
            "midi": 71,
            "name": "B4",
            "ticks": 61080,
            "time": 190.875,
            "velocity": 0.5354330708661418
          },
          {
            "duration": 0.375,
            "durationTicks": 120,
            "midi": 67,
            "name": "G4",
            "ticks": 61200,
            "time": 191.25,
            "velocity": 0.4645669291338583
          },
          {
            "duration": 0.36249999999998295,
            "durationTicks": 116,
            "midi": 64,
            "name": "E4",
            "ticks": 61320,
            "time": 191.625,
            "velocity": 0.4645669291338583
          },
          {
            "duration": 0.7124999999999773,
            "durationTicks": 228,
            "midi": 69,
            "name": "A4",
            "ticks": 61440,
            "time": 192,
            "velocity": 0.3937007874015748
          },
          {
            "duration": 0.7124999999999773,
            "durationTicks": 228,
            "midi": 67,
            "name": "G4",
            "ticks": 61680,
            "time": 192.75,
            "velocity": 0.5354330708661418
          },
          {
            "duration": 0.8125,
            "durationTicks": 260,
            "midi": 66,
            "name": "F#4",
            "ticks": 61920,
            "time": 193.5,
            "velocity": 0.5433070866141733
          },
          {
            "duration": 0.7750000000000341,
            "durationTicks": 248,
            "midi": 64,
            "name": "E4",
            "ticks": 62160,
            "time": 194.25,
            "velocity": 0.5354330708661418
          },
          {
            "duration": 1.3500000000000227,
            "durationTicks": 432,
            "midi": 62,
            "name": "D4",
            "ticks": 62400,
            "time": 195,
            "velocity": 0.5354330708661418
          },
          {
            "duration": 2.137500000000017,
            "durationTicks": 684,
            "midi": 69,
            "name": "A4",
            "ticks": 62880,
            "time": 196.5,
            "velocity": 0.6220472440944882
          },
          {
            "duration": 0.7375000000000114,
            "durationTicks": 236,
            "midi": 67,
            "name": "G4",
            "ticks": 63600,
            "time": 198.75,
            "velocity": 0.5354330708661418
          },
          {
            "duration": 1.3000000000000114,
            "durationTicks": 416,
            "midi": 69,
            "name": "A4",
            "ticks": 63840,
            "time": 199.5,
            "velocity": 0.5433070866141733
          },
          {
            "duration": 2.625,
            "durationTicks": 840,
            "midi": 62,
            "name": "D4",
            "ticks": 64320,
            "time": 201,
            "velocity": 0.5590551181102362
          },
          {
            "duration": 0.4000000000000341,
            "durationTicks": 128,
            "midi": 64,
            "name": "E4",
            "ticks": 65340,
            "time": 204.1875,
            "velocity": 0.6220472440944882
          },
          {
            "duration": 0.38749999999998863,
            "durationTicks": 124,
            "midi": 59,
            "name": "B3",
            "ticks": 65460,
            "time": 204.5625,
            "velocity": 0.3937007874015748
          },
          {
            "duration": 0.4000000000000341,
            "durationTicks": 128,
            "midi": 64,
            "name": "E4",
            "ticks": 65580,
            "time": 204.9375,
            "velocity": 0.5905511811023622
          },
          {
            "duration": 0.13749999999998863,
            "durationTicks": 44,
            "midi": 67,
            "name": "G4",
            "ticks": 65640,
            "time": 205.125,
            "velocity": 0.5118110236220472
          },
          {
            "duration": 0.4000000000000341,
            "durationTicks": 128,
            "midi": 71,
            "name": "B4",
            "ticks": 65760,
            "time": 205.5,
            "velocity": 0.5118110236220472
          },
          {
            "duration": 0.4375,
            "durationTicks": 140,
            "midi": 69,
            "name": "A4",
            "ticks": 65880,
            "time": 205.875,
            "velocity": 0.47244094488188976
          },
          {
            "duration": 0.4000000000000341,
            "durationTicks": 128,
            "midi": 67,
            "name": "G4",
            "ticks": 66000,
            "time": 206.25,
            "velocity": 0.5118110236220472
          },
          {
            "duration": 0.38749999999998863,
            "durationTicks": 124,
            "midi": 66,
            "name": "F#4",
            "ticks": 66120,
            "time": 206.625,
            "velocity": 0.49606299212598426
          },
          {
            "duration": 0.5625,
            "durationTicks": 180,
            "midi": 64,
            "name": "E4",
            "ticks": 66240,
            "time": 207,
            "velocity": 0.48031496062992124
          },
          {
            "duration": 1.3249999999999886,
            "durationTicks": 424,
            "midi": 69,
            "name": "A4",
            "ticks": 66480,
            "time": 207.75,
            "velocity": 0.5590551181102362
          },
          {
            "duration": 0.7750000000000341,
            "durationTicks": 248,
            "midi": 67,
            "name": "G4",
            "ticks": 66960,
            "time": 209.25,
            "velocity": 0.5354330708661418
          },
          {
            "duration": 1.6760976166666524,
            "durationTicks": 500,
            "midi": 66,
            "name": "F#4",
            "ticks": 67200,
            "time": 210,
            "velocity": 0.5590551181102362
          },
          {
            "duration": 0.9509525999999937,
            "durationTicks": 252,
            "midi": 64,
            "name": "E4",
            "ticks": 67680,
            "time": 211.60256819999998,
            "velocity": 0.5354330708661418
          },
          {
            "duration": 0.6412634666666577,
            "durationTicks": 160,
            "midi": 57,
            "name": "A3",
            "ticks": 67920,
            "time": 212.50664579999997,
            "velocity": 0.5433070866141733
          },
          {
            "duration": 4.7886773083333765,
            "durationTicks": 908,
            "midi": 57,
            "name": "A3",
            "ticks": 68160,
            "time": 213.48124259999994,
            "velocity": 0.5984251968503937
          }
        ]
      }
    ]
  }