{
  "header": {
    "keySignatures": [
      {
        "key": "F",
        "scale": "major",
        "ticks": 0
      }
    ],
    "meta": [],
    "name": "Happy 41th birthday, Zhao Shu! &nbsp;🎂🎉 &nbsp;&nbsp;&nbsp;👇Touch Me👇",
    "ppq": 480,
    "tempos": [
      {
        "bpm": 80,
        "ticks": 0
      },
      {
        "bpm": 40,
        "ticks": 25440
      },
      {
        "bpm": 61.000406669377796,
        "ticks": 25920
      }
    ],
    "timeSignatures": [
      {
        "ticks": 0,
        "timeSignature": [
          3,
          4
        ],
        "measures": 0
      }
    ]
  },
  "tracks": [
    {
      "channel": 0,
      "controlChanges": {},
      "pitchBends": [],
      "instrument": {
        "family": "piano",
        "number": 0,
        "name": "acoustic grand piano"
      },
      "name": "Bright Acoustic Piano",
      "notes": [],
      "endOfTrackTicks": 30240
    },
    {
      "channel": 0,
      "controlChanges": {
        "7": [
          {
            "number": 7,
            "ticks": 495,
            "time": 0.7734375,
            "value": 0.7086614173228346
          }
        ],
        "10": [
          {
            "number": 10,
            "ticks": 495,
            "time": 0.7734375,
            "value": 0.5039370078740157
          }
        ],
        "11": [
          {
            "number": 11,
            "ticks": 495,
            "time": 0.7734375,
            "value": 1
          }
        ],
        "64": [
          {
            "number": 64,
            "ticks": 3735,
            "time": 5.8359375,
            "value": 1
          },
          {
            "number": 64,
            "ticks": 4285,
            "time": 6.6953125,
            "value": 0
          },
          {
            "number": 64,
            "ticks": 4420,
            "time": 6.90625,
            "value": 1
          },
          {
            "number": 64,
            "ticks": 5710,
            "time": 8.921875,
            "value": 0
          },
          {
            "number": 64,
            "ticks": 5935,
            "time": 9.2734375,
            "value": 1
          },
          {
            "number": 64,
            "ticks": 7220,
            "time": 11.28125,
            "value": 0
          },
          {
            "number": 64,
            "ticks": 7370,
            "time": 11.515625,
            "value": 1
          },
          {
            "number": 64,
            "ticks": 8610,
            "time": 13.453125,
            "value": 0
          },
          {
            "number": 64,
            "ticks": 8840,
            "time": 13.8125,
            "value": 1
          },
          {
            "number": 64,
            "ticks": 11415,
            "time": 17.8359375,
            "value": 0
          },
          {
            "number": 64,
            "ticks": 11520,
            "time": 18,
            "value": 1
          },
          {
            "number": 64,
            "ticks": 11955,
            "time": 18.6796875,
            "value": 0
          },
          {
            "number": 64,
            "ticks": 12055,
            "time": 18.8359375,
            "value": 1
          },
          {
            "number": 64,
            "ticks": 12920,
            "time": 20.1875,
            "value": 0
          },
          {
            "number": 64,
            "ticks": 13020,
            "time": 20.34375,
            "value": 1
          },
          {
            "number": 64,
            "ticks": 13865,
            "time": 21.6640625,
            "value": 0
          },
          {
            "number": 64,
            "ticks": 14105,
            "time": 22.0390625,
            "value": 1
          },
          {
            "number": 64,
            "ticks": 14360,
            "time": 22.4375,
            "value": 0
          },
          {
            "number": 64,
            "ticks": 15940,
            "time": 24.90625,
            "value": 1
          },
          {
            "number": 64,
            "ticks": 17230,
            "time": 26.921875,
            "value": 0
          },
          {
            "number": 64,
            "ticks": 17455,
            "time": 27.2734375,
            "value": 1
          },
          {
            "number": 64,
            "ticks": 18740,
            "time": 29.28125,
            "value": 0
          },
          {
            "number": 64,
            "ticks": 18890,
            "time": 29.515625,
            "value": 1
          },
          {
            "number": 64,
            "ticks": 20130,
            "time": 31.453125,
            "value": 0
          },
          {
            "number": 64,
            "ticks": 20360,
            "time": 31.8125,
            "value": 1
          },
          {
            "number": 64,
            "ticks": 22935,
            "time": 35.8359375,
            "value": 0
          }
        ],
        "91": [
          {
            "number": 91,
            "ticks": 500,
            "time": 0.78125,
            "value": 0.5196850393700787
          }
        ],
        "93": [
          {
            "number": 93,
            "ticks": 500,
            "time": 0.78125,
            "value": 0
          }
        ]
      },
      "pitchBends": [],
      "instrument": {
        "family": "piano",
        "number": 1,
        "name": "bright acoustic piano"
      },
      "name": "",
      "notes": [
        {
          "duration": 0.15625,
          "durationTicks": 100,
          "midi": 60,
          "name": "C4",
          "ticks": 3840,
          "time": 6,
          "velocity": 0.6141732283464567
        },
        {
          "duration": 0.0859375,
          "durationTicks": 55,
          "midi": 60,
          "name": "C4",
          "ticks": 4160,
          "time": 6.5,
          "velocity": 0.6614173228346457
        },
        {
          "duration": 0.4140625,
          "durationTicks": 265,
          "midi": 57,
          "name": "A3",
          "ticks": 4320,
          "time": 6.75,
          "velocity": 0.6771653543307087
        },
        {
          "duration": 0.375,
          "durationTicks": 240,
          "midi": 62,
          "name": "D4",
          "ticks": 4320,
          "time": 6.75,
          "velocity": 0.7165354330708661
        },
        {
          "duration": 0.1328125,
          "durationTicks": 85,
          "midi": 60,
          "name": "C4",
          "ticks": 4800,
          "time": 7.5,
          "velocity": 0.6929133858267716
        },
        {
          "duration": 0.15625,
          "durationTicks": 100,
          "midi": 57,
          "name": "A3",
          "ticks": 5280,
          "time": 8.25,
          "velocity": 0.7165354330708661
        },
        {
          "duration": 0.140625,
          "durationTicks": 90,
          "midi": 65,
          "name": "F4",
          "ticks": 5280,
          "time": 8.25,
          "velocity": 0.7165354330708661
        },
        {
          "duration": 0.6796875,
          "durationTicks": 435,
          "midi": 58,
          "name": "A#3",
          "ticks": 5760,
          "time": 9,
          "velocity": 0.6929133858267716
        },
        {
          "duration": 0.65625,
          "durationTicks": 420,
          "midi": 64,
          "name": "E4",
          "ticks": 5760,
          "time": 9,
          "velocity": 0.7480314960629921
        },
        {
          "duration": 0.15625,
          "durationTicks": 100,
          "midi": 60,
          "name": "C4",
          "ticks": 6720,
          "time": 10.5,
          "velocity": 0.7637795275590551
        },
        {
          "duration": 0.109375,
          "durationTicks": 70,
          "midi": 60,
          "name": "C4",
          "ticks": 7040,
          "time": 11,
          "velocity": 0.6299212598425197
        },
        {
          "duration": 0.546875,
          "durationTicks": 350,
          "midi": 58,
          "name": "A#3",
          "ticks": 7200,
          "time": 11.25,
          "velocity": 0.6771653543307087
        },
        {
          "duration": 0.4921875,
          "durationTicks": 315,
          "midi": 62,
          "name": "D4",
          "ticks": 7200,
          "time": 11.25,
          "velocity": 0.7480314960629921
        },
        {
          "duration": 0.1328125,
          "durationTicks": 85,
          "midi": 60,
          "name": "C4",
          "ticks": 7680,
          "time": 12,
          "velocity": 0.7637795275590551
        },
        {
          "duration": 0.15625,
          "durationTicks": 100,
          "midi": 67,
          "name": "G4",
          "ticks": 8160,
          "time": 12.75,
          "velocity": 0.7559055118110236
        },
        {
          "duration": 0.6875,
          "durationTicks": 440,
          "midi": 57,
          "name": "A3",
          "ticks": 8640,
          "time": 13.5,
          "velocity": 0.7559055118110236
        },
        {
          "duration": 0.7578125,
          "durationTicks": 485,
          "midi": 65,
          "name": "F4",
          "ticks": 8640,
          "time": 13.5,
          "velocity": 0.7165354330708661
        },
        {
          "duration": 0.1640625,
          "durationTicks": 105,
          "midi": 60,
          "name": "C4",
          "ticks": 9600,
          "time": 15,
          "velocity": 0.7322834645669292
        },
        {
          "duration": 0.109375,
          "durationTicks": 70,
          "midi": 60,
          "name": "C4",
          "ticks": 9920,
          "time": 15.5,
          "velocity": 0.6692913385826772
        },
        {
          "duration": 0.1875,
          "durationTicks": 120,
          "midi": 69,
          "name": "A4",
          "ticks": 10080,
          "time": 15.75,
          "velocity": 0.7007874015748031
        },
        {
          "duration": 0.203125,
          "durationTicks": 130,
          "midi": 72,
          "name": "C5",
          "ticks": 10080,
          "time": 15.75,
          "velocity": 0.7480314960629921
        },
        {
          "duration": 0.1484375,
          "durationTicks": 95,
          "midi": 65,
          "name": "F4",
          "ticks": 10560,
          "time": 16.5,
          "velocity": 0.6614173228346457
        },
        {
          "duration": 0.125,
          "durationTicks": 80,
          "midi": 69,
          "name": "A4",
          "ticks": 10560,
          "time": 16.5,
          "velocity": 0.7165354330708661
        },
        {
          "duration": 0.1640625,
          "durationTicks": 105,
          "midi": 60,
          "name": "C4",
          "ticks": 11040,
          "time": 17.25,
          "velocity": 0.6692913385826772
        },
        {
          "duration": 0.1015625,
          "durationTicks": 65,
          "midi": 65,
          "name": "F4",
          "ticks": 11040,
          "time": 17.25,
          "velocity": 0.6929133858267716
        },
        {
          "duration": 0.2578125,
          "durationTicks": 165,
          "midi": 60,
          "name": "C4",
          "ticks": 11520,
          "time": 18,
          "velocity": 0.7244094488188977
        },
        {
          "duration": 0.2890625,
          "durationTicks": 185,
          "midi": 64,
          "name": "E4",
          "ticks": 11520,
          "time": 18,
          "velocity": 0.7165354330708661
        },
        {
          "duration": 0.1640625,
          "durationTicks": 105,
          "midi": 58,
          "name": "A#3",
          "ticks": 12000,
          "time": 18.75,
          "velocity": 0.6535433070866141
        },
        {
          "duration": 0.1796875,
          "durationTicks": 115,
          "midi": 62,
          "name": "D4",
          "ticks": 12000,
          "time": 18.75,
          "velocity": 0.6929133858267716
        },
        {
          "duration": 0.15625,
          "durationTicks": 100,
          "midi": 62,
          "name": "D4",
          "ticks": 12480,
          "time": 19.5,
          "velocity": 0.6929133858267716
        },
        {
          "duration": 0.1328125,
          "durationTicks": 85,
          "midi": 70,
          "name": "A#4",
          "ticks": 12480,
          "time": 19.5,
          "velocity": 0.7086614173228346
        },
        {
          "duration": 0.109375,
          "durationTicks": 70,
          "midi": 62,
          "name": "D4",
          "ticks": 12800,
          "time": 20,
          "velocity": 0.6299212598425197
        },
        {
          "duration": 0.09375,
          "durationTicks": 60,
          "midi": 70,
          "name": "A#4",
          "ticks": 12800,
          "time": 20,
          "velocity": 0.6220472440944882
        },
        {
          "duration": 0.2578125,
          "durationTicks": 165,
          "midi": 60,
          "name": "C4",
          "ticks": 12960,
          "time": 20.25,
          "velocity": 0.7559055118110236
        },
        {
          "duration": 0.203125,
          "durationTicks": 130,
          "midi": 69,
          "name": "A4",
          "ticks": 12960,
          "time": 20.25,
          "velocity": 0.7480314960629921
        },
        {
          "duration": 0.1953125,
          "durationTicks": 125,
          "midi": 57,
          "name": "A3",
          "ticks": 13440,
          "time": 21,
          "velocity": 0.6141732283464567
        },
        {
          "duration": 0.1484375,
          "durationTicks": 95,
          "midi": 65,
          "name": "F4",
          "ticks": 13440,
          "time": 21,
          "velocity": 0.7165354330708661
        },
        {
          "duration": 0.5703125,
          "durationTicks": 365,
          "midi": 58,
          "name": "A#3",
          "ticks": 13920,
          "time": 21.75,
          "velocity": 0.7007874015748031
        },
        {
          "duration": 0.578125,
          "durationTicks": 370,
          "midi": 64,
          "name": "E4",
          "ticks": 13920,
          "time": 21.75,
          "velocity": 0.6850393700787402
        },
        {
          "duration": 1.375,
          "durationTicks": 880,
          "midi": 57,
          "name": "A3",
          "ticks": 14400,
          "time": 22.5,
          "velocity": 0.7795275590551181
        },
        {
          "duration": 1.3984375,
          "durationTicks": 895,
          "midi": 65,
          "name": "F4",
          "ticks": 14400,
          "time": 22.5,
          "velocity": 0.8346456692913385
        },
        {
          "duration": 0.375,
          "durationTicks": 240,
          "midi": 60,
          "name": "C4",
          "ticks": 15360,
          "time": 24,
          "velocity": 0.7007874015748031
        },
        {
          "duration": 0.140625,
          "durationTicks": 90,
          "midi": 60,
          "name": "C4",
          "ticks": 15680,
          "time": 24.5,
          "velocity": 0.7086614173228346
        },
        {
          "duration": 0.4140625,
          "durationTicks": 265,
          "midi": 57,
          "name": "A3",
          "ticks": 15840,
          "time": 24.75,
          "velocity": 0.6771653543307087
        },
        {
          "duration": 0.375,
          "durationTicks": 240,
          "midi": 62,
          "name": "D4",
          "ticks": 15840,
          "time": 24.75,
          "velocity": 0.7165354330708661
        },
        {
          "duration": 0.1328125,
          "durationTicks": 85,
          "midi": 60,
          "name": "C4",
          "ticks": 16320,
          "time": 25.5,
          "velocity": 0.6929133858267716
        },
        {
          "duration": 0.15625,
          "durationTicks": 100,
          "midi": 57,
          "name": "A3",
          "ticks": 16800,
          "time": 26.25,
          "velocity": 0.7165354330708661
        },
        {
          "duration": 0.140625,
          "durationTicks": 90,
          "midi": 65,
          "name": "F4",
          "ticks": 16800,
          "time": 26.25,
          "velocity": 0.7165354330708661
        },
        {
          "duration": 0.6796875,
          "durationTicks": 435,
          "midi": 58,
          "name": "A#3",
          "ticks": 17280,
          "time": 27,
          "velocity": 0.6929133858267716
        },
        {
          "duration": 0.65625,
          "durationTicks": 420,
          "midi": 64,
          "name": "E4",
          "ticks": 17280,
          "time": 27,
          "velocity": 0.7480314960629921
        },
        {
          "duration": 0.15625,
          "durationTicks": 100,
          "midi": 60,
          "name": "C4",
          "ticks": 18240,
          "time": 28.5,
          "velocity": 0.7637795275590551
        },
        {
          "duration": 0.109375,
          "durationTicks": 70,
          "midi": 60,
          "name": "C4",
          "ticks": 18560,
          "time": 29,
          "velocity": 0.6299212598425197
        },
        {
          "duration": 0.546875,
          "durationTicks": 350,
          "midi": 58,
          "name": "A#3",
          "ticks": 18720,
          "time": 29.25,
          "velocity": 0.6771653543307087
        },
        {
          "duration": 0.4921875,
          "durationTicks": 315,
          "midi": 62,
          "name": "D4",
          "ticks": 18720,
          "time": 29.25,
          "velocity": 0.7480314960629921
        },
        {
          "duration": 0.1328125,
          "durationTicks": 85,
          "midi": 60,
          "name": "C4",
          "ticks": 19200,
          "time": 30,
          "velocity": 0.7637795275590551
        },
        {
          "duration": 0.15625,
          "durationTicks": 100,
          "midi": 67,
          "name": "G4",
          "ticks": 19680,
          "time": 30.75,
          "velocity": 0.7559055118110236
        },
        {
          "duration": 0.6875,
          "durationTicks": 440,
          "midi": 57,
          "name": "A3",
          "ticks": 20160,
          "time": 31.5,
          "velocity": 0.7559055118110236
        },
        {
          "duration": 0.7578125,
          "durationTicks": 485,
          "midi": 65,
          "name": "F4",
          "ticks": 20160,
          "time": 31.5,
          "velocity": 0.7165354330708661
        },
        {
          "duration": 0.1640625,
          "durationTicks": 105,
          "midi": 60,
          "name": "C4",
          "ticks": 21120,
          "time": 33,
          "velocity": 0.7322834645669292
        },
        {
          "duration": 0.109375,
          "durationTicks": 70,
          "midi": 60,
          "name": "C4",
          "ticks": 21440,
          "time": 33.5,
          "velocity": 0.6692913385826772
        },
        {
          "duration": 0.1875,
          "durationTicks": 120,
          "midi": 69,
          "name": "A4",
          "ticks": 21600,
          "time": 33.75,
          "velocity": 0.7007874015748031
        },
        {
          "duration": 0.203125,
          "durationTicks": 130,
          "midi": 72,
          "name": "C5",
          "ticks": 21600,
          "time": 33.75,
          "velocity": 0.7480314960629921
        },
        {
          "duration": 0.1484375,
          "durationTicks": 95,
          "midi": 65,
          "name": "F4",
          "ticks": 22080,
          "time": 34.5,
          "velocity": 0.6614173228346457
        },
        {
          "duration": 0.125,
          "durationTicks": 80,
          "midi": 69,
          "name": "A4",
          "ticks": 22080,
          "time": 34.5,
          "velocity": 0.7165354330708661
        },
        {
          "duration": 0.1640625,
          "durationTicks": 105,
          "midi": 60,
          "name": "C4",
          "ticks": 22560,
          "time": 35.25,
          "velocity": 0.6692913385826772
        },
        {
          "duration": 0.1015625,
          "durationTicks": 65,
          "midi": 65,
          "name": "F4",
          "ticks": 22560,
          "time": 35.25,
          "velocity": 0.6929133858267716
        },
        {
          "duration": 0.75,
          "durationTicks": 480,
          "midi": 60,
          "name": "C4",
          "ticks": 23040,
          "time": 36,
          "velocity": 0.7244094488188977
        },
        {
          "duration": 0.75,
          "durationTicks": 480,
          "midi": 64,
          "name": "E4",
          "ticks": 23040,
          "time": 36,
          "velocity": 0.7165354330708661
        },
        {
          "duration": 3,
          "durationTicks": 1920,
          "midi": 58,
          "name": "A#3",
          "ticks": 23520,
          "time": 36.75,
          "velocity": 0.6535433070866141
        },
        {
          "duration": 3,
          "durationTicks": 1920,
          "midi": 62,
          "name": "D4",
          "ticks": 23520,
          "time": 36.75,
          "velocity": 0.6929133858267716
        },
        {
          "duration": 0.3125,
          "durationTicks": 100,
          "midi": 62,
          "name": "D4",
          "ticks": 25440,
          "time": 39.75,
          "velocity": 0.6929133858267716
        },
        {
          "duration": 0.265625,
          "durationTicks": 85,
          "midi": 70,
          "name": "A#4",
          "ticks": 25440,
          "time": 39.75,
          "velocity": 0.7086614173228346
        },
        {
          "duration": 0.21875,
          "durationTicks": 70,
          "midi": 62,
          "name": "D4",
          "ticks": 25760,
          "time": 40.75,
          "velocity": 0.6299212598425197
        },
        {
          "duration": 0.1875,
          "durationTicks": 60,
          "midi": 70,
          "name": "A#4",
          "ticks": 25760,
          "time": 40.75,
          "velocity": 0.6220472440944882
        },
        {
          "duration": 0.9836000000000027,
          "durationTicks": 480,
          "midi": 60,
          "name": "C4",
          "ticks": 25920,
          "time": 41.25,
          "velocity": 0.7559055118110236
        },
        {
          "duration": 0.9836000000000027,
          "durationTicks": 480,
          "midi": 69,
          "name": "A4",
          "ticks": 25920,
          "time": 41.25,
          "velocity": 0.7480314960629921
        },
        {
          "duration": 0.9835999999999956,
          "durationTicks": 480,
          "midi": 57,
          "name": "A3",
          "ticks": 26400,
          "time": 42.2336,
          "velocity": 0.6141732283464567
        },
        {
          "duration": 0.9835999999999956,
          "durationTicks": 480,
          "midi": 65,
          "name": "F4",
          "ticks": 26400,
          "time": 42.2336,
          "velocity": 0.7165354330708661
        },
        {
          "duration": 0.9836000000000027,
          "durationTicks": 480,
          "midi": 58,
          "name": "A#3",
          "ticks": 26880,
          "time": 43.2172,
          "velocity": 0.7007874015748031
        },
        {
          "duration": 0.9836000000000027,
          "durationTicks": 480,
          "midi": 64,
          "name": "E4",
          "ticks": 26880,
          "time": 43.2172,
          "velocity": 0.6850393700787402
        },
        {
          "duration": 5.901600000000002,
          "durationTicks": 2880,
          "midi": 57,
          "name": "A3",
          "ticks": 27360,
          "time": 44.2008,
          "velocity": 0.7795275590551181
        },
        {
          "duration": 5.901600000000002,
          "durationTicks": 2880,
          "midi": 65,
          "name": "F4",
          "ticks": 27360,
          "time": 44.2008,
          "velocity": 0.8346456692913385
        }
      ]
    },
    {
      "channel": 0,
      "controlChanges": {},
      "pitchBends": [],
      "instrument": {
        "family": "piano",
        "number": 0,
        "name": "acoustic grand piano"
      },
      "name": "Acoustic Bass",
      "notes": [],
      "endOfTrackTicks": 28800
    },
    {
      "channel": 1,
      "controlChanges": {
        "7": [
          {
            "number": 7,
            "ticks": 520,
            "time": 0.8125,
            "value": 0.6299212598425197
          }
        ],
        "10": [
          {
            "number": 10,
            "ticks": 520,
            "time": 0.8125,
            "value": 0.5039370078740157
          }
        ],
        "11": [
          {
            "number": 11,
            "ticks": 520,
            "time": 0.8125,
            "value": 1
          }
        ],
        "91": [
          {
            "number": 91,
            "ticks": 525,
            "time": 0.8203125,
            "value": 0
          }
        ],
        "93": [
          {
            "number": 93,
            "ticks": 525,
            "time": 0.8203125,
            "value": 0
          }
        ]
      },
      "pitchBends": [],
      "instrument": {
        "family": "bass",
        "number": 32,
        "name": "acoustic bass"
      },
      "name": "",
      "notes": [
        {
          "duration": 2.1875,
          "durationTicks": 1400,
          "midi": 41,
          "name": "F2",
          "ticks": 15840,
          "time": 24.75,
          "velocity": 0.7165354330708661
        },
        {
          "duration": 2.2265625,
          "durationTicks": 1425,
          "midi": 36,
          "name": "C2",
          "ticks": 17280,
          "time": 27,
          "velocity": 0.7559055118110236
        },
        {
          "duration": 0.71875,
          "durationTicks": 460,
          "midi": 38,
          "name": "D2",
          "ticks": 18720,
          "time": 29.25,
          "velocity": 0.7716535433070866
        },
        {
          "duration": 0.6640625,
          "durationTicks": 425,
          "midi": 40,
          "name": "E2",
          "ticks": 19200,
          "time": 30,
          "velocity": 0.6850393700787402
        },
        {
          "duration": 0.6796875,
          "durationTicks": 435,
          "midi": 36,
          "name": "C2",
          "ticks": 19680,
          "time": 30.75,
          "velocity": 0.7480314960629921
        },
        {
          "duration": 1.9921875,
          "durationTicks": 1275,
          "midi": 41,
          "name": "F2",
          "ticks": 20160,
          "time": 31.5,
          "velocity": 0.7244094488188977
        },
        {
          "duration": 0.15625,
          "durationTicks": 100,
          "midi": 36,
          "name": "C2",
          "ticks": 21440,
          "time": 33.5,
          "velocity": 0.6062992125984252
        },
        {
          "duration": 1.4609375,
          "durationTicks": 935,
          "midi": 33,
          "name": "A1",
          "ticks": 21600,
          "time": 33.75,
          "velocity": 0.8346456692913385
        },
        {
          "duration": 0.671875,
          "durationTicks": 430,
          "midi": 33,
          "name": "A1",
          "ticks": 22560,
          "time": 35.25,
          "velocity": 0.6692913385826772
        },
        {
          "duration": 0.75,
          "durationTicks": 480,
          "midi": 34,
          "name": "A#1",
          "ticks": 23040,
          "time": 36,
          "velocity": 0.6456692913385826
        },
        {
          "duration": 4.21875,
          "durationTicks": 2310,
          "midi": 31,
          "name": "G1",
          "ticks": 23520,
          "time": 36.75,
          "velocity": 0.8582677165354331
        },
        {
          "duration": 1.5,
          "durationTicks": 480,
          "midi": 31,
          "name": "G1",
          "ticks": 25440,
          "time": 39.75,
          "velocity": 0.7716535433070866
        },
        {
          "duration": 1.7930208333333368,
          "durationTicks": 875,
          "midi": 36,
          "name": "C2",
          "ticks": 25920,
          "time": 41.25,
          "velocity": 0.7874015748031497
        },
        {
          "duration": 0.942616666666666,
          "durationTicks": 460,
          "midi": 36,
          "name": "C2",
          "ticks": 26880,
          "time": 43.2172,
          "velocity": 0.7795275590551181
        },
        {
          "duration": 2.68440833333333,
          "durationTicks": 1310,
          "midi": 29,
          "name": "F1",
          "ticks": 27360,
          "time": 44.2008,
          "velocity": 0.8031496062992126
        }
      ]
    },
    {
      "channel": 0,
      "controlChanges": {},
      "pitchBends": [],
      "instrument": {
        "family": "piano",
        "number": 0,
        "name": "acoustic grand piano"
      },
      "name": "Electric Piano 2",
      "notes": [],
      "endOfTrackTicks": 30240
    },
    {
      "channel": 2,
      "controlChanges": {
        "7": [
          {
            "number": 7,
            "ticks": 545,
            "time": 0.8515625,
            "value": 0.6299212598425197
          }
        ],
        "10": [
          {
            "number": 10,
            "ticks": 545,
            "time": 0.8515625,
            "value": 0.5039370078740157
          }
        ],
        "11": [
          {
            "number": 11,
            "ticks": 545,
            "time": 0.8515625,
            "value": 1
          }
        ],
        "64": [
          {
            "number": 64,
            "ticks": 4335,
            "time": 6.7734375,
            "value": 1
          },
          {
            "number": 64,
            "ticks": 5740,
            "time": 8.96875,
            "value": 0
          },
          {
            "number": 64,
            "ticks": 6085,
            "time": 9.5078125,
            "value": 1
          },
          {
            "number": 64,
            "ticks": 7220,
            "time": 11.28125,
            "value": 0
          },
          {
            "number": 64,
            "ticks": 7340,
            "time": 11.46875,
            "value": 1
          },
          {
            "number": 64,
            "ticks": 7685,
            "time": 12.0078125,
            "value": 0
          },
          {
            "number": 64,
            "ticks": 7790,
            "time": 12.171875,
            "value": 1
          },
          {
            "number": 64,
            "ticks": 8620,
            "time": 13.46875,
            "value": 0
          },
          {
            "number": 64,
            "ticks": 8920,
            "time": 13.9375,
            "value": 1
          },
          {
            "number": 64,
            "ticks": 10075,
            "time": 15.7421875,
            "value": 0
          },
          {
            "number": 64,
            "ticks": 10310,
            "time": 16.109375,
            "value": 1
          },
          {
            "number": 64,
            "ticks": 11525,
            "time": 18.0078125,
            "value": 0
          },
          {
            "number": 64,
            "ticks": 11635,
            "time": 18.1796875,
            "value": 1
          },
          {
            "number": 64,
            "ticks": 12495,
            "time": 19.5234375,
            "value": 0
          },
          {
            "number": 64,
            "ticks": 12620,
            "time": 19.71875,
            "value": 1
          },
          {
            "number": 64,
            "ticks": 12945,
            "time": 20.2265625,
            "value": 0
          },
          {
            "number": 64,
            "ticks": 13180,
            "time": 20.59375,
            "value": 1
          },
          {
            "number": 64,
            "ticks": 13910,
            "time": 21.734375,
            "value": 0
          },
          {
            "number": 64,
            "ticks": 14075,
            "time": 21.9921875,
            "value": 1
          },
          {
            "number": 64,
            "ticks": 14380,
            "time": 22.46875,
            "value": 0
          },
          {
            "number": 64,
            "ticks": 15855,
            "time": 24.7734375,
            "value": 1
          },
          {
            "number": 64,
            "ticks": 17260,
            "time": 26.96875,
            "value": 0
          },
          {
            "number": 64,
            "ticks": 17605,
            "time": 27.5078125,
            "value": 1
          },
          {
            "number": 64,
            "ticks": 18740,
            "time": 29.28125,
            "value": 0
          },
          {
            "number": 64,
            "ticks": 18860,
            "time": 29.46875,
            "value": 1
          },
          {
            "number": 64,
            "ticks": 19205,
            "time": 30.0078125,
            "value": 0
          },
          {
            "number": 64,
            "ticks": 19310,
            "time": 30.171875,
            "value": 1
          },
          {
            "number": 64,
            "ticks": 20140,
            "time": 31.46875,
            "value": 0
          },
          {
            "number": 64,
            "ticks": 20440,
            "time": 31.9375,
            "value": 1
          },
          {
            "number": 64,
            "ticks": 21595,
            "time": 33.7421875,
            "value": 0
          },
          {
            "number": 64,
            "ticks": 21830,
            "time": 34.109375,
            "value": 1
          },
          {
            "number": 64,
            "ticks": 23045,
            "time": 36.0078125,
            "value": 0
          }
        ],
        "91": [
          {
            "number": 91,
            "ticks": 550,
            "time": 0.859375,
            "value": 0.4251968503937008
          }
        ],
        "93": [
          {
            "number": 93,
            "ticks": 550,
            "time": 0.859375,
            "value": 0.36220472440944884
          }
        ]
      },
      "pitchBends": [],
      "instrument": {
        "family": "piano",
        "number": 5,
        "name": "electric piano 2"
      },
      "name": "",
      "notes": [
        {
          "duration": 0.890625,
          "durationTicks": 570,
          "midi": 41,
          "name": "F2",
          "ticks": 4320,
          "time": 6.75,
          "velocity": 0.6771653543307087
        },
        {
          "duration": 0.5234375,
          "durationTicks": 335,
          "midi": 57,
          "name": "A3",
          "ticks": 4320,
          "time": 6.75,
          "velocity": 0.6299212598425197
        },
        {
          "duration": 0.8359375,
          "durationTicks": 535,
          "midi": 60,
          "name": "C4",
          "ticks": 4320,
          "time": 6.75,
          "velocity": 0.5826771653543307
        },
        {
          "duration": 0.25,
          "durationTicks": 160,
          "midi": 53,
          "name": "F3",
          "ticks": 4800,
          "time": 7.5,
          "velocity": 0.5905511811023622
        },
        {
          "duration": 0.125,
          "durationTicks": 80,
          "midi": 60,
          "name": "C4",
          "ticks": 5280,
          "time": 8.25,
          "velocity": 0.6220472440944882
        },
        {
          "duration": 1.1171875,
          "durationTicks": 715,
          "midi": 48,
          "name": "C3",
          "ticks": 5760,
          "time": 9,
          "velocity": 0.7637795275590551
        },
        {
          "duration": 0.7421875,
          "durationTicks": 475,
          "midi": 52,
          "name": "E3",
          "ticks": 5760,
          "time": 9,
          "velocity": 0.6220472440944882
        },
        {
          "duration": 0.96875,
          "durationTicks": 620,
          "midi": 58,
          "name": "A#3",
          "ticks": 5760,
          "time": 9,
          "velocity": 0.5748031496062992
        },
        {
          "duration": 0.9921875,
          "durationTicks": 635,
          "midi": 60,
          "name": "C4",
          "ticks": 5760,
          "time": 9,
          "velocity": 0.5905511811023622
        },
        {
          "duration": 0.3359375,
          "durationTicks": 215,
          "midi": 52,
          "name": "E3",
          "ticks": 6240,
          "time": 9.75,
          "velocity": 0.5669291338582677
        },
        {
          "duration": 0.1796875,
          "durationTicks": 115,
          "midi": 58,
          "name": "A#3",
          "ticks": 6720,
          "time": 10.5,
          "velocity": 0.5984251968503937
        },
        {
          "duration": 1.453125,
          "durationTicks": 930,
          "midi": 48,
          "name": "C3",
          "ticks": 7200,
          "time": 11.25,
          "velocity": 0.7165354330708661
        },
        {
          "duration": 0.4453125,
          "durationTicks": 285,
          "midi": 53,
          "name": "F3",
          "ticks": 7200,
          "time": 11.25,
          "velocity": 0.6377952755905512
        },
        {
          "duration": 0.421875,
          "durationTicks": 270,
          "midi": 62,
          "name": "D4",
          "ticks": 7200,
          "time": 11.25,
          "velocity": 0.6929133858267716
        },
        {
          "duration": 0.2890625,
          "durationTicks": 185,
          "midi": 58,
          "name": "A#3",
          "ticks": 7360,
          "time": 11.5,
          "velocity": 0.4094488188976378
        },
        {
          "duration": 0.5390625,
          "durationTicks": 345,
          "midi": 52,
          "name": "E3",
          "ticks": 7680,
          "time": 12,
          "velocity": 0.6220472440944882
        },
        {
          "duration": 0.4921875,
          "durationTicks": 315,
          "midi": 58,
          "name": "A#3",
          "ticks": 7680,
          "time": 12,
          "velocity": 0.6220472440944882
        },
        {
          "duration": 0.515625,
          "durationTicks": 330,
          "midi": 60,
          "name": "C4",
          "ticks": 7680,
          "time": 12,
          "velocity": 0.6614173228346457
        },
        {
          "duration": 0.140625,
          "durationTicks": 90,
          "midi": 58,
          "name": "A#3",
          "ticks": 8160,
          "time": 12.75,
          "velocity": 0.6850393700787402
        },
        {
          "duration": 1.421875,
          "durationTicks": 910,
          "midi": 41,
          "name": "F2",
          "ticks": 8640,
          "time": 13.5,
          "velocity": 0.6456692913385826
        },
        {
          "duration": 1.359375,
          "durationTicks": 870,
          "midi": 48,
          "name": "C3",
          "ticks": 8640,
          "time": 13.5,
          "velocity": 0.5748031496062992
        },
        {
          "duration": 0.71875,
          "durationTicks": 460,
          "midi": 53,
          "name": "F3",
          "ticks": 8640,
          "time": 13.5,
          "velocity": 0.5984251968503937
        },
        {
          "duration": 0.703125,
          "durationTicks": 450,
          "midi": 55,
          "name": "G3",
          "ticks": 8640,
          "time": 13.5,
          "velocity": 0.6141732283464567
        },
        {
          "duration": 0.796875,
          "durationTicks": 510,
          "midi": 57,
          "name": "A3",
          "ticks": 8640,
          "time": 13.5,
          "velocity": 0.6535433070866141
        },
        {
          "duration": 0.984375,
          "durationTicks": 630,
          "midi": 60,
          "name": "C4",
          "ticks": 8640,
          "time": 13.5,
          "velocity": 0.5984251968503937
        },
        {
          "duration": 0.3671875,
          "durationTicks": 235,
          "midi": 53,
          "name": "F3",
          "ticks": 9120,
          "time": 14.25,
          "velocity": 0.5984251968503937
        },
        {
          "duration": 0.0703125,
          "durationTicks": 45,
          "midi": 57,
          "name": "A3",
          "ticks": 9600,
          "time": 15,
          "velocity": 0.47244094488188976
        },
        {
          "duration": 1.2265625,
          "durationTicks": 785,
          "midi": 45,
          "name": "A2",
          "ticks": 10080,
          "time": 15.75,
          "velocity": 0.8110236220472441
        },
        {
          "duration": 0.4921875,
          "durationTicks": 315,
          "midi": 53,
          "name": "F3",
          "ticks": 10080,
          "time": 15.75,
          "velocity": 0.6062992125984252
        },
        {
          "duration": 0.734375,
          "durationTicks": 470,
          "midi": 60,
          "name": "C4",
          "ticks": 10080,
          "time": 15.75,
          "velocity": 0.7007874015748031
        },
        {
          "duration": 0.78125,
          "durationTicks": 500,
          "midi": 65,
          "name": "F4",
          "ticks": 10080,
          "time": 15.75,
          "velocity": 0.7007874015748031
        },
        {
          "duration": 0.2421875,
          "durationTicks": 155,
          "midi": 53,
          "name": "F3",
          "ticks": 10560,
          "time": 16.5,
          "velocity": 0.6299212598425197
        },
        {
          "duration": 0.140625,
          "durationTicks": 90,
          "midi": 60,
          "name": "C4",
          "ticks": 11040,
          "time": 17.25,
          "velocity": 0.7165354330708661
        },
        {
          "duration": 0.5625,
          "durationTicks": 360,
          "midi": 46,
          "name": "A#2",
          "ticks": 11520,
          "time": 18,
          "velocity": 0.7244094488188977
        },
        {
          "duration": 0.3984375,
          "durationTicks": 255,
          "midi": 53,
          "name": "F3",
          "ticks": 11520,
          "time": 18,
          "velocity": 0.5590551181102362
        },
        {
          "duration": 0.3515625,
          "durationTicks": 225,
          "midi": 60,
          "name": "C4",
          "ticks": 11520,
          "time": 18,
          "velocity": 0.6535433070866141
        },
        {
          "duration": 0.3203125,
          "durationTicks": 205,
          "midi": 64,
          "name": "E4",
          "ticks": 11520,
          "time": 18,
          "velocity": 0.5905511811023622
        },
        {
          "duration": 0.2421875,
          "durationTicks": 155,
          "midi": 53,
          "name": "F3",
          "ticks": 12000,
          "time": 18.75,
          "velocity": 0.5748031496062992
        },
        {
          "duration": 0.2265625,
          "durationTicks": 145,
          "midi": 58,
          "name": "A#3",
          "ticks": 12000,
          "time": 18.75,
          "velocity": 0.6141732283464567
        },
        {
          "duration": 0.2265625,
          "durationTicks": 145,
          "midi": 62,
          "name": "D4",
          "ticks": 12000,
          "time": 18.75,
          "velocity": 0.6377952755905512
        },
        {
          "duration": 0.40625,
          "durationTicks": 260,
          "midi": 43,
          "name": "G2",
          "ticks": 12480,
          "time": 19.5,
          "velocity": 0.6929133858267716
        },
        {
          "duration": 0.3828125,
          "durationTicks": 245,
          "midi": 50,
          "name": "D3",
          "ticks": 12480,
          "time": 19.5,
          "velocity": 0.6299212598425197
        },
        {
          "duration": 0.4296875,
          "durationTicks": 275,
          "midi": 53,
          "name": "F3",
          "ticks": 12480,
          "time": 19.5,
          "velocity": 0.6062992125984252
        },
        {
          "duration": 0.3984375,
          "durationTicks": 255,
          "midi": 58,
          "name": "A#3",
          "ticks": 12480,
          "time": 19.5,
          "velocity": 0.6535433070866141
        },
        {
          "duration": 0.3984375,
          "durationTicks": 255,
          "midi": 62,
          "name": "D4",
          "ticks": 12480,
          "time": 19.5,
          "velocity": 0.6456692913385826
        },
        {
          "duration": 1.1640625,
          "durationTicks": 745,
          "midi": 48,
          "name": "C3",
          "ticks": 12960,
          "time": 20.25,
          "velocity": 0.7322834645669292
        },
        {
          "duration": 0.59375,
          "durationTicks": 380,
          "midi": 53,
          "name": "F3",
          "ticks": 12960,
          "time": 20.25,
          "velocity": 0.6141732283464567
        },
        {
          "duration": 0.5859375,
          "durationTicks": 375,
          "midi": 55,
          "name": "G3",
          "ticks": 12960,
          "time": 20.25,
          "velocity": 0.6141732283464567
        },
        {
          "duration": 0.6171875,
          "durationTicks": 395,
          "midi": 57,
          "name": "A3",
          "ticks": 12960,
          "time": 20.25,
          "velocity": 0.6850393700787402
        },
        {
          "duration": 0.6484375,
          "durationTicks": 415,
          "midi": 60,
          "name": "C4",
          "ticks": 12960,
          "time": 20.25,
          "velocity": 0.6692913385826772
        },
        {
          "duration": 0.28125,
          "durationTicks": 180,
          "midi": 53,
          "name": "F3",
          "ticks": 13440,
          "time": 21,
          "velocity": 0.7165354330708661
        },
        {
          "duration": 0.5546875,
          "durationTicks": 355,
          "midi": 48,
          "name": "C3",
          "ticks": 13920,
          "time": 21.75,
          "velocity": 0.7007874015748031
        },
        {
          "duration": 0.4140625,
          "durationTicks": 265,
          "midi": 55,
          "name": "G3",
          "ticks": 13920,
          "time": 21.75,
          "velocity": 0.6614173228346457
        },
        {
          "duration": 0.390625,
          "durationTicks": 250,
          "midi": 58,
          "name": "A#3",
          "ticks": 13920,
          "time": 21.75,
          "velocity": 0.6771653543307087
        },
        {
          "duration": 0.4921875,
          "durationTicks": 315,
          "midi": 60,
          "name": "C4",
          "ticks": 13920,
          "time": 21.75,
          "velocity": 0.6456692913385826
        },
        {
          "duration": 2.171875,
          "durationTicks": 1390,
          "midi": 41,
          "name": "F2",
          "ticks": 14400,
          "time": 22.5,
          "velocity": 0.7165354330708661
        },
        {
          "duration": 2.140625,
          "durationTicks": 1370,
          "midi": 53,
          "name": "F3",
          "ticks": 14400,
          "time": 22.5,
          "velocity": 0.6771653543307087
        },
        {
          "duration": 2.140625,
          "durationTicks": 1370,
          "midi": 57,
          "name": "A3",
          "ticks": 14400,
          "time": 22.5,
          "velocity": 0.7165354330708661
        },
        {
          "duration": 1.484375,
          "durationTicks": 950,
          "midi": 60,
          "name": "C4",
          "ticks": 14400,
          "time": 22.5,
          "velocity": 0.7007874015748031
        },
        {
          "duration": 0.609375,
          "durationTicks": 390,
          "midi": 60,
          "name": "C4",
          "ticks": 15360,
          "time": 24,
          "velocity": 0.7007874015748031
        },
        {
          "duration": 0.890625,
          "durationTicks": 570,
          "midi": 41,
          "name": "F2",
          "ticks": 15840,
          "time": 24.75,
          "velocity": 0.6771653543307087
        },
        {
          "duration": 0.5234375,
          "durationTicks": 335,
          "midi": 57,
          "name": "A3",
          "ticks": 15840,
          "time": 24.75,
          "velocity": 0.6299212598425197
        },
        {
          "duration": 0.8359375,
          "durationTicks": 535,
          "midi": 60,
          "name": "C4",
          "ticks": 15840,
          "time": 24.75,
          "velocity": 0.5826771653543307
        },
        {
          "duration": 0.25,
          "durationTicks": 160,
          "midi": 53,
          "name": "F3",
          "ticks": 16320,
          "time": 25.5,
          "velocity": 0.5905511811023622
        },
        {
          "duration": 0.125,
          "durationTicks": 80,
          "midi": 60,
          "name": "C4",
          "ticks": 16800,
          "time": 26.25,
          "velocity": 0.6220472440944882
        },
        {
          "duration": 1.1171875,
          "durationTicks": 715,
          "midi": 48,
          "name": "C3",
          "ticks": 17280,
          "time": 27,
          "velocity": 0.7637795275590551
        },
        {
          "duration": 0.7421875,
          "durationTicks": 475,
          "midi": 52,
          "name": "E3",
          "ticks": 17280,
          "time": 27,
          "velocity": 0.6220472440944882
        },
        {
          "duration": 0.96875,
          "durationTicks": 620,
          "midi": 58,
          "name": "A#3",
          "ticks": 17280,
          "time": 27,
          "velocity": 0.5748031496062992
        },
        {
          "duration": 0.9921875,
          "durationTicks": 635,
          "midi": 60,
          "name": "C4",
          "ticks": 17280,
          "time": 27,
          "velocity": 0.5905511811023622
        },
        {
          "duration": 0.3359375,
          "durationTicks": 215,
          "midi": 52,
          "name": "E3",
          "ticks": 17760,
          "time": 27.75,
          "velocity": 0.5669291338582677
        },
        {
          "duration": 0.1796875,
          "durationTicks": 115,
          "midi": 58,
          "name": "A#3",
          "ticks": 18240,
          "time": 28.5,
          "velocity": 0.5984251968503937
        },
        {
          "duration": 0.75,
          "durationTicks": 480,
          "midi": 50,
          "name": "D3",
          "ticks": 18720,
          "time": 29.25,
          "velocity": 0.7165354330708661
        },
        {
          "duration": 0.4453125,
          "durationTicks": 285,
          "midi": 53,
          "name": "F3",
          "ticks": 18720,
          "time": 29.25,
          "velocity": 0.6377952755905512
        },
        {
          "duration": 0.421875,
          "durationTicks": 270,
          "midi": 62,
          "name": "D4",
          "ticks": 18720,
          "time": 29.25,
          "velocity": 0.6929133858267716
        },
        {
          "duration": 0.2890625,
          "durationTicks": 185,
          "midi": 58,
          "name": "A#3",
          "ticks": 18880,
          "time": 29.5,
          "velocity": 0.4094488188976378
        },
        {
          "duration": 0.875,
          "durationTicks": 560,
          "midi": 48,
          "name": "C3",
          "ticks": 19200,
          "time": 30,
          "velocity": 0.7165354330708661
        },
        {
          "duration": 0.5390625,
          "durationTicks": 345,
          "midi": 52,
          "name": "E3",
          "ticks": 19200,
          "time": 30,
          "velocity": 0.6220472440944882
        },
        {
          "duration": 0.4921875,
          "durationTicks": 315,
          "midi": 58,
          "name": "A#3",
          "ticks": 19200,
          "time": 30,
          "velocity": 0.6220472440944882
        },
        {
          "duration": 0.515625,
          "durationTicks": 330,
          "midi": 60,
          "name": "C4",
          "ticks": 19200,
          "time": 30,
          "velocity": 0.6614173228346457
        },
        {
          "duration": 0.140625,
          "durationTicks": 90,
          "midi": 58,
          "name": "A#3",
          "ticks": 19680,
          "time": 30.75,
          "velocity": 0.6850393700787402
        },
        {
          "duration": 1.421875,
          "durationTicks": 910,
          "midi": 41,
          "name": "F2",
          "ticks": 20160,
          "time": 31.5,
          "velocity": 0.6456692913385826
        },
        {
          "duration": 1.359375,
          "durationTicks": 870,
          "midi": 48,
          "name": "C3",
          "ticks": 20160,
          "time": 31.5,
          "velocity": 0.5748031496062992
        },
        {
          "duration": 0.71875,
          "durationTicks": 460,
          "midi": 53,
          "name": "F3",
          "ticks": 20160,
          "time": 31.5,
          "velocity": 0.5984251968503937
        },
        {
          "duration": 0.703125,
          "durationTicks": 450,
          "midi": 55,
          "name": "G3",
          "ticks": 20160,
          "time": 31.5,
          "velocity": 0.6141732283464567
        },
        {
          "duration": 0.796875,
          "durationTicks": 510,
          "midi": 57,
          "name": "A3",
          "ticks": 20160,
          "time": 31.5,
          "velocity": 0.6535433070866141
        },
        {
          "duration": 0.984375,
          "durationTicks": 630,
          "midi": 60,
          "name": "C4",
          "ticks": 20160,
          "time": 31.5,
          "velocity": 0.5984251968503937
        },
        {
          "duration": 0.3671875,
          "durationTicks": 235,
          "midi": 53,
          "name": "F3",
          "ticks": 20640,
          "time": 32.25,
          "velocity": 0.5984251968503937
        },
        {
          "duration": 0.0703125,
          "durationTicks": 45,
          "midi": 57,
          "name": "A3",
          "ticks": 21120,
          "time": 33,
          "velocity": 0.47244094488188976
        },
        {
          "duration": 1.2265625,
          "durationTicks": 785,
          "midi": 45,
          "name": "A2",
          "ticks": 21600,
          "time": 33.75,
          "velocity": 0.8110236220472441
        },
        {
          "duration": 0.4921875,
          "durationTicks": 315,
          "midi": 53,
          "name": "F3",
          "ticks": 21600,
          "time": 33.75,
          "velocity": 0.6062992125984252
        },
        {
          "duration": 0.734375,
          "durationTicks": 470,
          "midi": 60,
          "name": "C4",
          "ticks": 21600,
          "time": 33.75,
          "velocity": 0.7007874015748031
        },
        {
          "duration": 0.78125,
          "durationTicks": 500,
          "midi": 65,
          "name": "F4",
          "ticks": 21600,
          "time": 33.75,
          "velocity": 0.7007874015748031
        },
        {
          "duration": 0.2421875,
          "durationTicks": 155,
          "midi": 53,
          "name": "F3",
          "ticks": 22080,
          "time": 34.5,
          "velocity": 0.6299212598425197
        },
        {
          "duration": 0.140625,
          "durationTicks": 90,
          "midi": 60,
          "name": "C4",
          "ticks": 22560,
          "time": 35.25,
          "velocity": 0.7165354330708661
        },
        {
          "duration": 0.5625,
          "durationTicks": 360,
          "midi": 46,
          "name": "A#2",
          "ticks": 23040,
          "time": 36,
          "velocity": 0.7244094488188977
        },
        {
          "duration": 0.3984375,
          "durationTicks": 255,
          "midi": 53,
          "name": "F3",
          "ticks": 23040,
          "time": 36,
          "velocity": 0.5590551181102362
        },
        {
          "duration": 0.3515625,
          "durationTicks": 225,
          "midi": 60,
          "name": "C4",
          "ticks": 23040,
          "time": 36,
          "velocity": 0.6535433070866141
        },
        {
          "duration": 0.3203125,
          "durationTicks": 205,
          "midi": 64,
          "name": "E4",
          "ticks": 23040,
          "time": 36,
          "velocity": 0.5905511811023622
        },
        {
          "duration": 3,
          "durationTicks": 1920,
          "midi": 53,
          "name": "F3",
          "ticks": 23520,
          "time": 36.75,
          "velocity": 0.5748031496062992
        },
        {
          "duration": 3,
          "durationTicks": 1920,
          "midi": 58,
          "name": "A#3",
          "ticks": 23520,
          "time": 36.75,
          "velocity": 0.6141732283464567
        },
        {
          "duration": 3,
          "durationTicks": 1920,
          "midi": 62,
          "name": "D4",
          "ticks": 23520,
          "time": 36.75,
          "velocity": 0.6377952755905512
        },
        {
          "duration": 1.5,
          "durationTicks": 480,
          "midi": 43,
          "name": "G2",
          "ticks": 25440,
          "time": 39.75,
          "velocity": 0.6929133858267716
        },
        {
          "duration": 1.5,
          "durationTicks": 480,
          "midi": 50,
          "name": "D3",
          "ticks": 25440,
          "time": 39.75,
          "velocity": 0.6299212598425197
        },
        {
          "duration": 1.5,
          "durationTicks": 480,
          "midi": 53,
          "name": "F3",
          "ticks": 25440,
          "time": 39.75,
          "velocity": 0.6062992125984252
        },
        {
          "duration": 1.5,
          "durationTicks": 480,
          "midi": 58,
          "name": "A#3",
          "ticks": 25440,
          "time": 39.75,
          "velocity": 0.6535433070866141
        },
        {
          "duration": 1.5,
          "durationTicks": 480,
          "midi": 62,
          "name": "D4",
          "ticks": 25440,
          "time": 39.75,
          "velocity": 0.6456692913385826
        },
        {
          "duration": 1.526629166666666,
          "durationTicks": 745,
          "midi": 48,
          "name": "C3",
          "ticks": 25920,
          "time": 41.25,
          "velocity": 0.7322834645669292
        },
        {
          "duration": 0.7786833333333334,
          "durationTicks": 380,
          "midi": 53,
          "name": "F3",
          "ticks": 25920,
          "time": 41.25,
          "velocity": 0.6141732283464567
        },
        {
          "duration": 0.7684374999999974,
          "durationTicks": 375,
          "midi": 55,
          "name": "G3",
          "ticks": 25920,
          "time": 41.25,
          "velocity": 0.6141732283464567
        },
        {
          "duration": 0.8094208333333341,
          "durationTicks": 395,
          "midi": 57,
          "name": "A3",
          "ticks": 25920,
          "time": 41.25,
          "velocity": 0.6850393700787402
        },
        {
          "duration": 0.8504041666666637,
          "durationTicks": 415,
          "midi": 60,
          "name": "C4",
          "ticks": 25920,
          "time": 41.25,
          "velocity": 0.6692913385826772
        },
        {
          "duration": 0.9835999999999956,
          "durationTicks": 480,
          "midi": 53,
          "name": "F3",
          "ticks": 26400,
          "time": 42.2336,
          "velocity": 0.7165354330708661
        },
        {
          "duration": 0.9836000000000027,
          "durationTicks": 480,
          "midi": 48,
          "name": "C3",
          "ticks": 26880,
          "time": 43.2172,
          "velocity": 0.7007874015748031
        },
        {
          "duration": 0.9836000000000027,
          "durationTicks": 480,
          "midi": 55,
          "name": "G3",
          "ticks": 26880,
          "time": 43.2172,
          "velocity": 0.6614173228346457
        },
        {
          "duration": 0.9836000000000027,
          "durationTicks": 480,
          "midi": 58,
          "name": "A#3",
          "ticks": 26880,
          "time": 43.2172,
          "velocity": 0.6771653543307087
        },
        {
          "duration": 0.9836000000000027,
          "durationTicks": 480,
          "midi": 60,
          "name": "C4",
          "ticks": 26880,
          "time": 43.2172,
          "velocity": 0.6456692913385826
        },
        {
          "duration": 5.901600000000002,
          "durationTicks": 2880,
          "midi": 41,
          "name": "F2",
          "ticks": 27360,
          "time": 44.2008,
          "velocity": 0.7165354330708661
        },
        {
          "duration": 5.901600000000002,
          "durationTicks": 2880,
          "midi": 53,
          "name": "F3",
          "ticks": 27360,
          "time": 44.2008,
          "velocity": 0.6771653543307087
        },
        {
          "duration": 5.901600000000002,
          "durationTicks": 2880,
          "midi": 57,
          "name": "A3",
          "ticks": 27360,
          "time": 44.2008,
          "velocity": 0.7165354330708661
        },
        {
          "duration": 5.901600000000002,
          "durationTicks": 2880,
          "midi": 60,
          "name": "C4",
          "ticks": 27360,
          "time": 44.2008,
          "velocity": 0.7007874015748031
        }
      ]
    },
    {
      "channel": 0,
      "controlChanges": {},
      "pitchBends": [],
      "instrument": {
        "family": "piano",
        "number": 0,
        "name": "acoustic grand piano"
      },
      "name": "Tenor Sax",
      "notes": [],
      "endOfTrackTicks": 30240
    },
    {
      "channel": 3,
      "controlChanges": {
        "1": [
          {
            "number": 1,
            "ticks": 4845,
            "time": 7.5703125,
            "value": 0.023622047244094488
          },
          {
            "number": 1,
            "ticks": 4860,
            "time": 7.59375,
            "value": 0.03937007874015748
          },
          {
            "number": 1,
            "ticks": 4885,
            "time": 7.6328125,
            "value": 0.06299212598425197
          },
          {
            "number": 1,
            "ticks": 4910,
            "time": 7.671875,
            "value": 0.07874015748031496
          },
          {
            "number": 1,
            "ticks": 4925,
            "time": 7.6953125,
            "value": 0.11023622047244094
          },
          {
            "number": 1,
            "ticks": 4950,
            "time": 7.734375,
            "value": 0.12598425196850394
          },
          {
            "number": 1,
            "ticks": 4985,
            "time": 7.7890625,
            "value": 0.13385826771653545
          },
          {
            "number": 1,
            "ticks": 5000,
            "time": 7.8125,
            "value": 0.14960629921259844
          },
          {
            "number": 1,
            "ticks": 5020,
            "time": 7.84375,
            "value": 0.16535433070866143
          },
          {
            "number": 1,
            "ticks": 5045,
            "time": 7.8828125,
            "value": 0.1889763779527559
          },
          {
            "number": 1,
            "ticks": 5065,
            "time": 7.9140625,
            "value": 0.2125984251968504
          },
          {
            "number": 1,
            "ticks": 5100,
            "time": 7.96875,
            "value": 0.2204724409448819
          },
          {
            "number": 1,
            "ticks": 5110,
            "time": 7.984375,
            "value": 0.2125984251968504
          },
          {
            "number": 1,
            "ticks": 5130,
            "time": 8.015625,
            "value": 0.14173228346456693
          },
          {
            "number": 1,
            "ticks": 5150,
            "time": 8.046875,
            "value": 0.03937007874015748
          },
          {
            "number": 1,
            "ticks": 5175,
            "time": 8.0859375,
            "value": 0
          },
          {
            "number": 1,
            "ticks": 5335,
            "time": 8.3359375,
            "value": 0.031496062992125984
          },
          {
            "number": 1,
            "ticks": 5365,
            "time": 8.3828125,
            "value": 0.047244094488188976
          },
          {
            "number": 1,
            "ticks": 5440,
            "time": 8.5,
            "value": 0.05511811023622047
          },
          {
            "number": 1,
            "ticks": 5450,
            "time": 8.515625,
            "value": 0.06299212598425197
          },
          {
            "number": 1,
            "ticks": 5475,
            "time": 8.5546875,
            "value": 0.07086614173228346
          },
          {
            "number": 1,
            "ticks": 5495,
            "time": 8.5859375,
            "value": 0.07874015748031496
          },
          {
            "number": 1,
            "ticks": 5510,
            "time": 8.609375,
            "value": 0.10236220472440945
          },
          {
            "number": 1,
            "ticks": 5545,
            "time": 8.6640625,
            "value": 0.09448818897637795
          },
          {
            "number": 1,
            "ticks": 5575,
            "time": 8.7109375,
            "value": 0.10236220472440945
          },
          {
            "number": 1,
            "ticks": 5600,
            "time": 8.75,
            "value": 0.11023622047244094
          },
          {
            "number": 1,
            "ticks": 5635,
            "time": 8.8046875,
            "value": 0.12598425196850394
          },
          {
            "number": 1,
            "ticks": 5650,
            "time": 8.828125,
            "value": 0.14173228346456693
          },
          {
            "number": 1,
            "ticks": 5685,
            "time": 8.8828125,
            "value": 0.13385826771653545
          },
          {
            "number": 1,
            "ticks": 5695,
            "time": 8.8984375,
            "value": 0.10236220472440945
          },
          {
            "number": 1,
            "ticks": 5715,
            "time": 8.9296875,
            "value": 0.07874015748031496
          },
          {
            "number": 1,
            "ticks": 5765,
            "time": 9.0078125,
            "value": 0.05511811023622047
          },
          {
            "number": 1,
            "ticks": 5785,
            "time": 9.0390625,
            "value": 0.031496062992125984
          },
          {
            "number": 1,
            "ticks": 5835,
            "time": 9.1171875,
            "value": 0.047244094488188976
          },
          {
            "number": 1,
            "ticks": 5860,
            "time": 9.15625,
            "value": 0.06299212598425197
          },
          {
            "number": 1,
            "ticks": 5880,
            "time": 9.1875,
            "value": 0.07086614173228346
          },
          {
            "number": 1,
            "ticks": 5895,
            "time": 9.2109375,
            "value": 0.09448818897637795
          },
          {
            "number": 1,
            "ticks": 5925,
            "time": 9.2578125,
            "value": 0.11023622047244094
          },
          {
            "number": 1,
            "ticks": 5950,
            "time": 9.296875,
            "value": 0.12598425196850394
          },
          {
            "number": 1,
            "ticks": 5965,
            "time": 9.3203125,
            "value": 0.14173228346456693
          },
          {
            "number": 1,
            "ticks": 6015,
            "time": 9.3984375,
            "value": 0.16535433070866143
          },
          {
            "number": 1,
            "ticks": 6030,
            "time": 9.421875,
            "value": 0.1889763779527559
          },
          {
            "number": 1,
            "ticks": 6055,
            "time": 9.4609375,
            "value": 0.2047244094488189
          },
          {
            "number": 1,
            "ticks": 6075,
            "time": 9.4921875,
            "value": 0.2283464566929134
          },
          {
            "number": 1,
            "ticks": 6100,
            "time": 9.53125,
            "value": 0.2440944881889764
          },
          {
            "number": 1,
            "ticks": 6150,
            "time": 9.609375,
            "value": 0.25984251968503935
          },
          {
            "number": 1,
            "ticks": 6165,
            "time": 9.6328125,
            "value": 0.2677165354330709
          },
          {
            "number": 1,
            "ticks": 6205,
            "time": 9.6953125,
            "value": 0.25984251968503935
          },
          {
            "number": 1,
            "ticks": 6210,
            "time": 9.703125,
            "value": 0.2125984251968504
          },
          {
            "number": 1,
            "ticks": 6230,
            "time": 9.734375,
            "value": 0.10236220472440945
          },
          {
            "number": 1,
            "ticks": 6255,
            "time": 9.7734375,
            "value": 0
          },
          {
            "number": 1,
            "ticks": 7700,
            "time": 12.03125,
            "value": 0.031496062992125984
          },
          {
            "number": 1,
            "ticks": 7720,
            "time": 12.0625,
            "value": 0.08661417322834646
          },
          {
            "number": 1,
            "ticks": 7745,
            "time": 12.1015625,
            "value": 0.13385826771653545
          },
          {
            "number": 1,
            "ticks": 7765,
            "time": 12.1328125,
            "value": 0.1732283464566929
          },
          {
            "number": 1,
            "ticks": 7795,
            "time": 12.1796875,
            "value": 0.1889763779527559
          },
          {
            "number": 1,
            "ticks": 7835,
            "time": 12.2421875,
            "value": 0.1968503937007874
          },
          {
            "number": 1,
            "ticks": 7850,
            "time": 12.265625,
            "value": 0.2204724409448819
          },
          {
            "number": 1,
            "ticks": 7875,
            "time": 12.3046875,
            "value": 0.2440944881889764
          },
          {
            "number": 1,
            "ticks": 7900,
            "time": 12.34375,
            "value": 0.25196850393700787
          },
          {
            "number": 1,
            "ticks": 7925,
            "time": 12.3828125,
            "value": 0.2677165354330709
          },
          {
            "number": 1,
            "ticks": 7955,
            "time": 12.4296875,
            "value": 0.2755905511811024
          },
          {
            "number": 1,
            "ticks": 7970,
            "time": 12.453125,
            "value": 0.2283464566929134
          },
          {
            "number": 1,
            "ticks": 7985,
            "time": 12.4765625,
            "value": 0.10236220472440945
          },
          {
            "number": 1,
            "ticks": 8010,
            "time": 12.515625,
            "value": 0.015748031496062992
          },
          {
            "number": 1,
            "ticks": 8030,
            "time": 12.546875,
            "value": 0
          },
          {
            "number": 1,
            "ticks": 8455,
            "time": 13.2109375,
            "value": 0.007874015748031496
          },
          {
            "number": 1,
            "ticks": 8470,
            "time": 13.234375,
            "value": 0
          },
          {
            "number": 1,
            "ticks": 8760,
            "time": 13.6875,
            "value": 0.015748031496062992
          },
          {
            "number": 1,
            "ticks": 8775,
            "time": 13.7109375,
            "value": 0.03937007874015748
          },
          {
            "number": 1,
            "ticks": 8795,
            "time": 13.7421875,
            "value": 0.07086614173228346
          },
          {
            "number": 1,
            "ticks": 8825,
            "time": 13.7890625,
            "value": 0.08661417322834646
          },
          {
            "number": 1,
            "ticks": 8840,
            "time": 13.8125,
            "value": 0.10236220472440945
          },
          {
            "number": 1,
            "ticks": 8865,
            "time": 13.8515625,
            "value": 0.12598425196850394
          },
          {
            "number": 1,
            "ticks": 8885,
            "time": 13.8828125,
            "value": 0.14173228346456693
          },
          {
            "number": 1,
            "ticks": 8920,
            "time": 13.9375,
            "value": 0.14960629921259844
          },
          {
            "number": 1,
            "ticks": 8960,
            "time": 14,
            "value": 0.15748031496062992
          },
          {
            "number": 1,
            "ticks": 8975,
            "time": 14.0234375,
            "value": 0.18110236220472442
          },
          {
            "number": 1,
            "ticks": 9010,
            "time": 14.078125,
            "value": 0.1889763779527559
          },
          {
            "number": 1,
            "ticks": 9020,
            "time": 14.09375,
            "value": 0.2125984251968504
          },
          {
            "number": 1,
            "ticks": 9050,
            "time": 14.140625,
            "value": 0.2283464566929134
          },
          {
            "number": 1,
            "ticks": 9065,
            "time": 14.1640625,
            "value": 0.2440944881889764
          },
          {
            "number": 1,
            "ticks": 9090,
            "time": 14.203125,
            "value": 0.25984251968503935
          },
          {
            "number": 1,
            "ticks": 9125,
            "time": 14.2578125,
            "value": 0.2677165354330709
          },
          {
            "number": 1,
            "ticks": 9135,
            "time": 14.2734375,
            "value": 0.29133858267716534
          },
          {
            "number": 1,
            "ticks": 9160,
            "time": 14.3125,
            "value": 0.23622047244094488
          },
          {
            "number": 1,
            "ticks": 9180,
            "time": 14.34375,
            "value": 0.13385826771653545
          },
          {
            "number": 1,
            "ticks": 9205,
            "time": 14.3828125,
            "value": 0.047244094488188976
          },
          {
            "number": 1,
            "ticks": 9225,
            "time": 14.4140625,
            "value": 0
          },
          {
            "number": 1,
            "ticks": 10305,
            "time": 16.1015625,
            "value": 0.031496062992125984
          },
          {
            "number": 1,
            "ticks": 10325,
            "time": 16.1328125,
            "value": 0.07086614173228346
          },
          {
            "number": 1,
            "ticks": 10350,
            "time": 16.171875,
            "value": 0.12598425196850394
          },
          {
            "number": 1,
            "ticks": 10370,
            "time": 16.203125,
            "value": 0.1968503937007874
          },
          {
            "number": 1,
            "ticks": 10395,
            "time": 16.2421875,
            "value": 0.2283464566929134
          },
          {
            "number": 1,
            "ticks": 10415,
            "time": 16.2734375,
            "value": 0.25984251968503935
          },
          {
            "number": 1,
            "ticks": 10440,
            "time": 16.3125,
            "value": 0.2755905511811024
          },
          {
            "number": 1,
            "ticks": 10460,
            "time": 16.34375,
            "value": 0.2125984251968504
          },
          {
            "number": 1,
            "ticks": 10485,
            "time": 16.3828125,
            "value": 0.1732283464566929
          },
          {
            "number": 1,
            "ticks": 10510,
            "time": 16.421875,
            "value": 0.14960629921259844
          },
          {
            "number": 1,
            "ticks": 10535,
            "time": 16.4609375,
            "value": 0.15748031496062992
          },
          {
            "number": 1,
            "ticks": 10555,
            "time": 16.4921875,
            "value": 0.1968503937007874
          },
          {
            "number": 1,
            "ticks": 10575,
            "time": 16.5234375,
            "value": 0.23622047244094488
          },
          {
            "number": 1,
            "ticks": 10630,
            "time": 16.609375,
            "value": 0.25196850393700787
          },
          {
            "number": 1,
            "ticks": 10705,
            "time": 16.7265625,
            "value": 0.25984251968503935
          },
          {
            "number": 1,
            "ticks": 10710,
            "time": 16.734375,
            "value": 0.2755905511811024
          },
          {
            "number": 1,
            "ticks": 10730,
            "time": 16.765625,
            "value": 0.29133858267716534
          },
          {
            "number": 1,
            "ticks": 10755,
            "time": 16.8046875,
            "value": 0.31496062992125984
          },
          {
            "number": 1,
            "ticks": 10780,
            "time": 16.84375,
            "value": 0.2440944881889764
          },
          {
            "number": 1,
            "ticks": 10805,
            "time": 16.8828125,
            "value": 0.13385826771653545
          },
          {
            "number": 1,
            "ticks": 10820,
            "time": 16.90625,
            "value": 0.03937007874015748
          },
          {
            "number": 1,
            "ticks": 10845,
            "time": 16.9453125,
            "value": 0.007874015748031496
          },
          {
            "number": 1,
            "ticks": 10870,
            "time": 16.984375,
            "value": 0
          },
          {
            "number": 1,
            "ticks": 11245,
            "time": 17.5703125,
            "value": 0.023622047244094488
          },
          {
            "number": 1,
            "ticks": 11250,
            "time": 17.578125,
            "value": 0.11023622047244094
          },
          {
            "number": 1,
            "ticks": 11270,
            "time": 17.609375,
            "value": 0.14173228346456693
          },
          {
            "number": 1,
            "ticks": 11295,
            "time": 17.6484375,
            "value": 0.14960629921259844
          },
          {
            "number": 1,
            "ticks": 11330,
            "time": 17.703125,
            "value": 0.15748031496062992
          },
          {
            "number": 1,
            "ticks": 11340,
            "time": 17.71875,
            "value": 0.16535433070866143
          },
          {
            "number": 1,
            "ticks": 11395,
            "time": 17.8046875,
            "value": 0.14173228346456693
          },
          {
            "number": 1,
            "ticks": 11405,
            "time": 17.8203125,
            "value": 0.06299212598425197
          },
          {
            "number": 1,
            "ticks": 11430,
            "time": 17.859375,
            "value": 0.023622047244094488
          },
          {
            "number": 1,
            "ticks": 11455,
            "time": 17.8984375,
            "value": 0
          },
          {
            "number": 1,
            "ticks": 11800,
            "time": 18.4375,
            "value": 0
          },
          {
            "number": 1,
            "ticks": 12045,
            "time": 18.8203125,
            "value": 0.031496062992125984
          },
          {
            "number": 1,
            "ticks": 12060,
            "time": 18.84375,
            "value": 0.11811023622047244
          },
          {
            "number": 1,
            "ticks": 12085,
            "time": 18.8828125,
            "value": 0.1889763779527559
          },
          {
            "number": 1,
            "ticks": 12105,
            "time": 18.9140625,
            "value": 0.28346456692913385
          },
          {
            "number": 1,
            "ticks": 12130,
            "time": 18.953125,
            "value": 0.3543307086614173
          },
          {
            "number": 1,
            "ticks": 12150,
            "time": 18.984375,
            "value": 0.41732283464566927
          },
          {
            "number": 1,
            "ticks": 12170,
            "time": 19.015625,
            "value": 0.4409448818897638
          },
          {
            "number": 1,
            "ticks": 12195,
            "time": 19.0546875,
            "value": 0.4645669291338583
          },
          {
            "number": 1,
            "ticks": 12225,
            "time": 19.1015625,
            "value": 0.3858267716535433
          },
          {
            "number": 1,
            "ticks": 12240,
            "time": 19.125,
            "value": 0.2440944881889764
          },
          {
            "number": 1,
            "ticks": 12265,
            "time": 19.1640625,
            "value": 0.11811023622047244
          },
          {
            "number": 1,
            "ticks": 12285,
            "time": 19.1953125,
            "value": 0.031496062992125984
          },
          {
            "number": 1,
            "ticks": 12305,
            "time": 19.2265625,
            "value": 0
          },
          {
            "number": 1,
            "ticks": 12765,
            "time": 19.9453125,
            "value": 0.015748031496062992
          },
          {
            "number": 1,
            "ticks": 12790,
            "time": 19.984375,
            "value": 0.03937007874015748
          },
          {
            "number": 1,
            "ticks": 12810,
            "time": 20.015625,
            "value": 0.047244094488188976
          },
          {
            "number": 1,
            "ticks": 12825,
            "time": 20.0390625,
            "value": 0.06299212598425197
          },
          {
            "number": 1,
            "ticks": 12850,
            "time": 20.078125,
            "value": 0.047244094488188976
          },
          {
            "number": 1,
            "ticks": 12875,
            "time": 20.1171875,
            "value": 0.015748031496062992
          },
          {
            "number": 1,
            "ticks": 12890,
            "time": 20.140625,
            "value": 0
          },
          {
            "number": 1,
            "ticks": 13350,
            "time": 20.859375,
            "value": 0.007874015748031496
          },
          {
            "number": 1,
            "ticks": 13400,
            "time": 20.9375,
            "value": 0
          },
          {
            "number": 1,
            "ticks": 13470,
            "time": 21.046875,
            "value": 0.015748031496062992
          },
          {
            "number": 1,
            "ticks": 13475,
            "time": 21.0546875,
            "value": 0.08661417322834646
          },
          {
            "number": 1,
            "ticks": 13500,
            "time": 21.09375,
            "value": 0.2204724409448819
          },
          {
            "number": 1,
            "ticks": 13520,
            "time": 21.125,
            "value": 0.28346456692913385
          },
          {
            "number": 1,
            "ticks": 13545,
            "time": 21.1640625,
            "value": 0.2992125984251969
          },
          {
            "number": 1,
            "ticks": 13570,
            "time": 21.203125,
            "value": 0.3228346456692913
          },
          {
            "number": 1,
            "ticks": 13590,
            "time": 21.234375,
            "value": 0.33858267716535434
          },
          {
            "number": 1,
            "ticks": 13610,
            "time": 21.265625,
            "value": 0.3464566929133858
          },
          {
            "number": 1,
            "ticks": 13635,
            "time": 21.3046875,
            "value": 0.3779527559055118
          },
          {
            "number": 1,
            "ticks": 13665,
            "time": 21.3515625,
            "value": 0.3858267716535433
          },
          {
            "number": 1,
            "ticks": 13690,
            "time": 21.390625,
            "value": 0.3779527559055118
          },
          {
            "number": 1,
            "ticks": 13705,
            "time": 21.4140625,
            "value": 0.33070866141732286
          },
          {
            "number": 1,
            "ticks": 13725,
            "time": 21.4453125,
            "value": 0.2283464566929134
          },
          {
            "number": 1,
            "ticks": 13750,
            "time": 21.484375,
            "value": 0.14960629921259844
          },
          {
            "number": 1,
            "ticks": 13770,
            "time": 21.515625,
            "value": 0.06299212598425197
          },
          {
            "number": 1,
            "ticks": 13795,
            "time": 21.5546875,
            "value": 0.023622047244094488
          },
          {
            "number": 1,
            "ticks": 13815,
            "time": 21.5859375,
            "value": 0
          },
          {
            "number": 1,
            "ticks": 13870,
            "time": 21.671875,
            "value": 0.015748031496062992
          },
          {
            "number": 1,
            "ticks": 13885,
            "time": 21.6953125,
            "value": 0.03937007874015748
          },
          {
            "number": 1,
            "ticks": 13910,
            "time": 21.734375,
            "value": 0.06299212598425197
          },
          {
            "number": 1,
            "ticks": 13955,
            "time": 21.8046875,
            "value": 0.03937007874015748
          },
          {
            "number": 1,
            "ticks": 13990,
            "time": 21.859375,
            "value": 0.047244094488188976
          },
          {
            "number": 1,
            "ticks": 13995,
            "time": 21.8671875,
            "value": 0.07086614173228346
          },
          {
            "number": 1,
            "ticks": 14045,
            "time": 21.9453125,
            "value": 0.08661417322834646
          },
          {
            "number": 1,
            "ticks": 14065,
            "time": 21.9765625,
            "value": 0.11811023622047244
          },
          {
            "number": 1,
            "ticks": 14085,
            "time": 22.0078125,
            "value": 0.14173228346456693
          },
          {
            "number": 1,
            "ticks": 14110,
            "time": 22.046875,
            "value": 0.1732283464566929
          },
          {
            "number": 1,
            "ticks": 14130,
            "time": 22.078125,
            "value": 0.2125984251968504
          },
          {
            "number": 1,
            "ticks": 14150,
            "time": 22.109375,
            "value": 0.23622047244094488
          },
          {
            "number": 1,
            "ticks": 14175,
            "time": 22.1484375,
            "value": 0.25984251968503935
          },
          {
            "number": 1,
            "ticks": 14210,
            "time": 22.203125,
            "value": 0.23622047244094488
          },
          {
            "number": 1,
            "ticks": 14225,
            "time": 22.2265625,
            "value": 0.1968503937007874
          },
          {
            "number": 1,
            "ticks": 14240,
            "time": 22.25,
            "value": 0.13385826771653545
          },
          {
            "number": 1,
            "ticks": 14265,
            "time": 22.2890625,
            "value": 0.09448818897637795
          },
          {
            "number": 1,
            "ticks": 14290,
            "time": 22.328125,
            "value": 0.05511811023622047
          },
          {
            "number": 1,
            "ticks": 14310,
            "time": 22.359375,
            "value": 0.015748031496062992
          },
          {
            "number": 1,
            "ticks": 14330,
            "time": 22.390625,
            "value": 0
          },
          {
            "number": 1,
            "ticks": 14695,
            "time": 22.9609375,
            "value": 0.031496062992125984
          },
          {
            "number": 1,
            "ticks": 14715,
            "time": 22.9921875,
            "value": 0.06299212598425197
          },
          {
            "number": 1,
            "ticks": 14735,
            "time": 23.0234375,
            "value": 0.10236220472440945
          },
          {
            "number": 1,
            "ticks": 14760,
            "time": 23.0625,
            "value": 0.14960629921259844
          },
          {
            "number": 1,
            "ticks": 14780,
            "time": 23.09375,
            "value": 0.1889763779527559
          },
          {
            "number": 1,
            "ticks": 14805,
            "time": 23.1328125,
            "value": 0.2047244094488189
          },
          {
            "number": 1,
            "ticks": 14830,
            "time": 23.171875,
            "value": 0.2283464566929134
          },
          {
            "number": 1,
            "ticks": 14855,
            "time": 23.2109375,
            "value": 0.2204724409448819
          },
          {
            "number": 1,
            "ticks": 14875,
            "time": 23.2421875,
            "value": 0.16535433070866143
          },
          {
            "number": 1,
            "ticks": 14895,
            "time": 23.2734375,
            "value": 0.03937007874015748
          },
          {
            "number": 1,
            "ticks": 14920,
            "time": 23.3125,
            "value": 0
          },
          {
            "number": 1,
            "ticks": 16390,
            "time": 25.609375,
            "value": 0.015748031496062992
          },
          {
            "number": 1,
            "ticks": 16400,
            "time": 25.625,
            "value": 0.06299212598425197
          },
          {
            "number": 1,
            "ticks": 16425,
            "time": 25.6640625,
            "value": 0.10236220472440945
          },
          {
            "number": 1,
            "ticks": 16450,
            "time": 25.703125,
            "value": 0.13385826771653545
          },
          {
            "number": 1,
            "ticks": 16475,
            "time": 25.7421875,
            "value": 0.14960629921259844
          },
          {
            "number": 1,
            "ticks": 16500,
            "time": 25.78125,
            "value": 0.16535433070866143
          },
          {
            "number": 1,
            "ticks": 16515,
            "time": 25.8046875,
            "value": 0.18110236220472442
          },
          {
            "number": 1,
            "ticks": 16560,
            "time": 25.875,
            "value": 0.2047244094488189
          },
          {
            "number": 1,
            "ticks": 16655,
            "time": 26.0234375,
            "value": 0.2125984251968504
          },
          {
            "number": 1,
            "ticks": 16670,
            "time": 26.046875,
            "value": 0.23622047244094488
          },
          {
            "number": 1,
            "ticks": 16695,
            "time": 26.0859375,
            "value": 0.18110236220472442
          },
          {
            "number": 1,
            "ticks": 16715,
            "time": 26.1171875,
            "value": 0.12598425196850394
          },
          {
            "number": 1,
            "ticks": 16740,
            "time": 26.15625,
            "value": 0.047244094488188976
          },
          {
            "number": 1,
            "ticks": 16760,
            "time": 26.1875,
            "value": 0
          },
          {
            "number": 1,
            "ticks": 16965,
            "time": 26.5078125,
            "value": 0.007874015748031496
          },
          {
            "number": 1,
            "ticks": 17000,
            "time": 26.5625,
            "value": 0.015748031496062992
          },
          {
            "number": 1,
            "ticks": 17020,
            "time": 26.59375,
            "value": 0.023622047244094488
          },
          {
            "number": 1,
            "ticks": 17035,
            "time": 26.6171875,
            "value": 0.047244094488188976
          },
          {
            "number": 1,
            "ticks": 17070,
            "time": 26.671875,
            "value": 0.05511811023622047
          },
          {
            "number": 1,
            "ticks": 17080,
            "time": 26.6875,
            "value": 0.06299212598425197
          },
          {
            "number": 1,
            "ticks": 17105,
            "time": 26.7265625,
            "value": 0.047244094488188976
          },
          {
            "number": 1,
            "ticks": 17130,
            "time": 26.765625,
            "value": 0.03937007874015748
          },
          {
            "number": 1,
            "ticks": 17160,
            "time": 26.8125,
            "value": 0.031496062992125984
          },
          {
            "number": 1,
            "ticks": 17165,
            "time": 26.8203125,
            "value": 0.007874015748031496
          },
          {
            "number": 1,
            "ticks": 17195,
            "time": 26.8671875,
            "value": 0.023622047244094488
          },
          {
            "number": 1,
            "ticks": 17225,
            "time": 26.9140625,
            "value": 0.031496062992125984
          },
          {
            "number": 1,
            "ticks": 17235,
            "time": 26.9296875,
            "value": 0.047244094488188976
          },
          {
            "number": 1,
            "ticks": 17260,
            "time": 26.96875,
            "value": 0.07086614173228346
          },
          {
            "number": 1,
            "ticks": 17285,
            "time": 27.0078125,
            "value": 0.08661417322834646
          },
          {
            "number": 1,
            "ticks": 17325,
            "time": 27.0703125,
            "value": 0.10236220472440945
          },
          {
            "number": 1,
            "ticks": 17355,
            "time": 27.1171875,
            "value": 0.11811023622047244
          },
          {
            "number": 1,
            "ticks": 17370,
            "time": 27.140625,
            "value": 0.13385826771653545
          },
          {
            "number": 1,
            "ticks": 17395,
            "time": 27.1796875,
            "value": 0.14960629921259844
          },
          {
            "number": 1,
            "ticks": 17425,
            "time": 27.2265625,
            "value": 0.15748031496062992
          },
          {
            "number": 1,
            "ticks": 17435,
            "time": 27.2421875,
            "value": 0.16535433070866143
          },
          {
            "number": 1,
            "ticks": 17470,
            "time": 27.296875,
            "value": 0.1732283464566929
          },
          {
            "number": 1,
            "ticks": 17490,
            "time": 27.328125,
            "value": 0.1889763779527559
          },
          {
            "number": 1,
            "ticks": 17510,
            "time": 27.359375,
            "value": 0.2047244094488189
          },
          {
            "number": 1,
            "ticks": 17575,
            "time": 27.4609375,
            "value": 0.1889763779527559
          },
          {
            "number": 1,
            "ticks": 17635,
            "time": 27.5546875,
            "value": 0.1968503937007874
          },
          {
            "number": 1,
            "ticks": 17660,
            "time": 27.59375,
            "value": 0.2047244094488189
          },
          {
            "number": 1,
            "ticks": 17665,
            "time": 27.6015625,
            "value": 0.2440944881889764
          },
          {
            "number": 1,
            "ticks": 17695,
            "time": 27.6484375,
            "value": 0.2283464566929134
          },
          {
            "number": 1,
            "ticks": 17705,
            "time": 27.6640625,
            "value": 0.15748031496062992
          },
          {
            "number": 1,
            "ticks": 17730,
            "time": 27.703125,
            "value": 0.07086614173228346
          },
          {
            "number": 1,
            "ticks": 17750,
            "time": 27.734375,
            "value": 0.015748031496062992
          },
          {
            "number": 1,
            "ticks": 17775,
            "time": 27.7734375,
            "value": 0
          },
          {
            "number": 1,
            "ticks": 18405,
            "time": 28.7578125,
            "value": 0.031496062992125984
          },
          {
            "number": 1,
            "ticks": 18430,
            "time": 28.796875,
            "value": 0.05511811023622047
          },
          {
            "number": 1,
            "ticks": 18450,
            "time": 28.828125,
            "value": 0.07874015748031496
          },
          {
            "number": 1,
            "ticks": 18485,
            "time": 28.8828125,
            "value": 0.08661417322834646
          },
          {
            "number": 1,
            "ticks": 18515,
            "time": 28.9296875,
            "value": 0.09448818897637795
          },
          {
            "number": 1,
            "ticks": 18545,
            "time": 28.9765625,
            "value": 0.06299212598425197
          },
          {
            "number": 1,
            "ticks": 18565,
            "time": 29.0078125,
            "value": 0.015748031496062992
          },
          {
            "number": 1,
            "ticks": 18585,
            "time": 29.0390625,
            "value": 0
          },
          {
            "number": 1,
            "ticks": 19160,
            "time": 29.9375,
            "value": 0.007874015748031496
          },
          {
            "number": 1,
            "ticks": 19170,
            "time": 29.953125,
            "value": 0.03937007874015748
          },
          {
            "number": 1,
            "ticks": 19190,
            "time": 29.984375,
            "value": 0.07874015748031496
          },
          {
            "number": 1,
            "ticks": 19220,
            "time": 30.03125,
            "value": 0.10236220472440945
          },
          {
            "number": 1,
            "ticks": 19235,
            "time": 30.0546875,
            "value": 0.13385826771653545
          },
          {
            "number": 1,
            "ticks": 19265,
            "time": 30.1015625,
            "value": 0.14173228346456693
          },
          {
            "number": 1,
            "ticks": 19280,
            "time": 30.125,
            "value": 0.16535433070866143
          },
          {
            "number": 1,
            "ticks": 19310,
            "time": 30.171875,
            "value": 0.18110236220472442
          },
          {
            "number": 1,
            "ticks": 19325,
            "time": 30.1953125,
            "value": 0.2047244094488189
          },
          {
            "number": 1,
            "ticks": 19350,
            "time": 30.234375,
            "value": 0.2125984251968504
          },
          {
            "number": 1,
            "ticks": 19385,
            "time": 30.2890625,
            "value": 0.2283464566929134
          },
          {
            "number": 1,
            "ticks": 19405,
            "time": 30.3203125,
            "value": 0.23622047244094488
          },
          {
            "number": 1,
            "ticks": 19425,
            "time": 30.3515625,
            "value": 0.23622047244094488
          },
          {
            "number": 1,
            "ticks": 19440,
            "time": 30.375,
            "value": 0.16535433070866143
          },
          {
            "number": 1,
            "ticks": 19465,
            "time": 30.4140625,
            "value": 0.09448818897637795
          },
          {
            "number": 1,
            "ticks": 19485,
            "time": 30.4453125,
            "value": 0
          },
          {
            "number": 1,
            "ticks": 19905,
            "time": 31.1015625,
            "value": 0.015748031496062992
          },
          {
            "number": 1,
            "ticks": 19910,
            "time": 31.109375,
            "value": 0.08661417322834646
          },
          {
            "number": 1,
            "ticks": 19935,
            "time": 31.1484375,
            "value": 0.11811023622047244
          },
          {
            "number": 1,
            "ticks": 19970,
            "time": 31.203125,
            "value": 0.09448818897637795
          },
          {
            "number": 1,
            "ticks": 19980,
            "time": 31.21875,
            "value": 0.031496062992125984
          },
          {
            "number": 1,
            "ticks": 20005,
            "time": 31.2578125,
            "value": 0
          },
          {
            "number": 1,
            "ticks": 20200,
            "time": 31.5625,
            "value": 0.015748031496062992
          },
          {
            "number": 1,
            "ticks": 20205,
            "time": 31.5703125,
            "value": 0.07086614173228346
          },
          {
            "number": 1,
            "ticks": 20230,
            "time": 31.609375,
            "value": 0.11811023622047244
          },
          {
            "number": 1,
            "ticks": 20250,
            "time": 31.640625,
            "value": 0.1732283464566929
          },
          {
            "number": 1,
            "ticks": 20270,
            "time": 31.671875,
            "value": 0.2125984251968504
          },
          {
            "number": 1,
            "ticks": 20295,
            "time": 31.7109375,
            "value": 0.2440944881889764
          },
          {
            "number": 1,
            "ticks": 20315,
            "time": 31.7421875,
            "value": 0.2677165354330709
          },
          {
            "number": 1,
            "ticks": 20340,
            "time": 31.78125,
            "value": 0.28346456692913385
          },
          {
            "number": 1,
            "ticks": 20365,
            "time": 31.8203125,
            "value": 0.2677165354330709
          },
          {
            "number": 1,
            "ticks": 20420,
            "time": 31.90625,
            "value": 0.2755905511811024
          },
          {
            "number": 1,
            "ticks": 20435,
            "time": 31.9296875,
            "value": 0.28346456692913385
          },
          {
            "number": 1,
            "ticks": 20460,
            "time": 31.96875,
            "value": 0.2992125984251969
          },
          {
            "number": 1,
            "ticks": 20475,
            "time": 31.9921875,
            "value": 0.31496062992125984
          },
          {
            "number": 1,
            "ticks": 20510,
            "time": 32.046875,
            "value": 0.3228346456692913
          },
          {
            "number": 1,
            "ticks": 20520,
            "time": 32.0625,
            "value": 0.33070866141732286
          },
          {
            "number": 1,
            "ticks": 20565,
            "time": 32.1328125,
            "value": 0.3464566929133858
          },
          {
            "number": 1,
            "ticks": 20590,
            "time": 32.171875,
            "value": 0.29133858267716534
          },
          {
            "number": 1,
            "ticks": 20610,
            "time": 32.203125,
            "value": 0.1889763779527559
          },
          {
            "number": 1,
            "ticks": 20635,
            "time": 32.2421875,
            "value": 0.06299212598425197
          },
          {
            "number": 1,
            "ticks": 20655,
            "time": 32.2734375,
            "value": 0
          },
          {
            "number": 1,
            "ticks": 21900,
            "time": 34.21875,
            "value": 0.015748031496062992
          },
          {
            "number": 1,
            "ticks": 21925,
            "time": 34.2578125,
            "value": 0.023622047244094488
          },
          {
            "number": 1,
            "ticks": 21935,
            "time": 34.2734375,
            "value": 0.03937007874015748
          },
          {
            "number": 1,
            "ticks": 21990,
            "time": 34.359375,
            "value": 0.015748031496062992
          },
          {
            "number": 1,
            "ticks": 22010,
            "time": 34.390625,
            "value": 0
          },
          {
            "number": 1,
            "ticks": 22150,
            "time": 34.609375,
            "value": 0.015748031496062992
          },
          {
            "number": 1,
            "ticks": 22160,
            "time": 34.625,
            "value": 0.07874015748031496
          },
          {
            "number": 1,
            "ticks": 22185,
            "time": 34.6640625,
            "value": 0.12598425196850394
          },
          {
            "number": 1,
            "ticks": 22205,
            "time": 34.6953125,
            "value": 0.1732283464566929
          },
          {
            "number": 1,
            "ticks": 22230,
            "time": 34.734375,
            "value": 0.2047244094488189
          },
          {
            "number": 1,
            "ticks": 22250,
            "time": 34.765625,
            "value": 0.2204724409448819
          },
          {
            "number": 1,
            "ticks": 22275,
            "time": 34.8046875,
            "value": 0.2047244094488189
          },
          {
            "number": 1,
            "ticks": 22300,
            "time": 34.84375,
            "value": 0.1732283464566929
          },
          {
            "number": 1,
            "ticks": 22320,
            "time": 34.875,
            "value": 0.14173228346456693
          },
          {
            "number": 1,
            "ticks": 22350,
            "time": 34.921875,
            "value": 0.12598425196850394
          },
          {
            "number": 1,
            "ticks": 22365,
            "time": 34.9453125,
            "value": 0.10236220472440945
          },
          {
            "number": 1,
            "ticks": 22390,
            "time": 34.984375,
            "value": 0.11023622047244094
          },
          {
            "number": 1,
            "ticks": 22410,
            "time": 35.015625,
            "value": 0.14960629921259844
          },
          {
            "number": 1,
            "ticks": 22440,
            "time": 35.0625,
            "value": 0.16535433070866143
          },
          {
            "number": 1,
            "ticks": 22460,
            "time": 35.09375,
            "value": 0.1889763779527559
          },
          {
            "number": 1,
            "ticks": 22485,
            "time": 35.1328125,
            "value": 0.1968503937007874
          },
          {
            "number": 1,
            "ticks": 22505,
            "time": 35.1640625,
            "value": 0.14960629921259844
          },
          {
            "number": 1,
            "ticks": 22525,
            "time": 35.1953125,
            "value": 0.10236220472440945
          },
          {
            "number": 1,
            "ticks": 22545,
            "time": 35.2265625,
            "value": 0.05511811023622047
          },
          {
            "number": 1,
            "ticks": 22570,
            "time": 35.265625,
            "value": 0.023622047244094488
          },
          {
            "number": 1,
            "ticks": 22595,
            "time": 35.3046875,
            "value": 0.015748031496062992
          },
          {
            "number": 1,
            "ticks": 22655,
            "time": 35.3984375,
            "value": 0.023622047244094488
          },
          {
            "number": 1,
            "ticks": 22665,
            "time": 35.4140625,
            "value": 0.03937007874015748
          },
          {
            "number": 1,
            "ticks": 22685,
            "time": 35.4453125,
            "value": 0.047244094488188976
          },
          {
            "number": 1,
            "ticks": 22705,
            "time": 35.4765625,
            "value": 0.07086614173228346
          },
          {
            "number": 1,
            "ticks": 22735,
            "time": 35.5234375,
            "value": 0.07874015748031496
          },
          {
            "number": 1,
            "ticks": 22755,
            "time": 35.5546875,
            "value": 0.08661417322834646
          },
          {
            "number": 1,
            "ticks": 22775,
            "time": 35.5859375,
            "value": 0.11023622047244094
          },
          {
            "number": 1,
            "ticks": 22800,
            "time": 35.625,
            "value": 0.14173228346456693
          },
          {
            "number": 1,
            "ticks": 22815,
            "time": 35.6484375,
            "value": 0.18110236220472442
          },
          {
            "number": 1,
            "ticks": 22835,
            "time": 35.6796875,
            "value": 0.2204724409448819
          },
          {
            "number": 1,
            "ticks": 22860,
            "time": 35.71875,
            "value": 0.2440944881889764
          },
          {
            "number": 1,
            "ticks": 22885,
            "time": 35.7578125,
            "value": 0.2677165354330709
          },
          {
            "number": 1,
            "ticks": 22925,
            "time": 35.8203125,
            "value": 0.14960629921259844
          },
          {
            "number": 1,
            "ticks": 22950,
            "time": 35.859375,
            "value": 0
          },
          {
            "number": 1,
            "ticks": 23635,
            "time": 36.9296875,
            "value": 0.007874015748031496
          },
          {
            "number": 1,
            "ticks": 23650,
            "time": 36.953125,
            "value": 0.031496062992125984
          },
          {
            "number": 1,
            "ticks": 23675,
            "time": 36.9921875,
            "value": 0.05511811023622047
          },
          {
            "number": 1,
            "ticks": 23695,
            "time": 37.0234375,
            "value": 0.08661417322834646
          },
          {
            "number": 1,
            "ticks": 23720,
            "time": 37.0625,
            "value": 0.11023622047244094
          },
          {
            "number": 1,
            "ticks": 23745,
            "time": 37.1015625,
            "value": 0.12598425196850394
          },
          {
            "number": 1,
            "ticks": 23765,
            "time": 37.1328125,
            "value": 0.14173228346456693
          },
          {
            "number": 1,
            "ticks": 23800,
            "time": 37.1875,
            "value": 0.14960629921259844
          },
          {
            "number": 1,
            "ticks": 23855,
            "time": 37.2734375,
            "value": 0.15748031496062992
          },
          {
            "number": 1,
            "ticks": 23920,
            "time": 37.375,
            "value": 0.18110236220472442
          },
          {
            "number": 1,
            "ticks": 23955,
            "time": 37.4296875,
            "value": 0.1732283464566929
          },
          {
            "number": 1,
            "ticks": 23960,
            "time": 37.4375,
            "value": 0.11023622047244094
          },
          {
            "number": 1,
            "ticks": 23985,
            "time": 37.4765625,
            "value": 0.05511811023622047
          },
          {
            "number": 1,
            "ticks": 24005,
            "time": 37.5078125,
            "value": 0.007874015748031496
          },
          {
            "number": 1,
            "ticks": 24030,
            "time": 37.546875,
            "value": 0
          },
          {
            "number": 1,
            "ticks": 25995,
            "time": 41.4036875,
            "value": 0.05511811023622047
          },
          {
            "number": 1,
            "ticks": 26010,
            "time": 41.434425,
            "value": 0.14173228346456693
          },
          {
            "number": 1,
            "ticks": 26035,
            "time": 41.48565416666667,
            "value": 0.1889763779527559
          },
          {
            "number": 1,
            "ticks": 26055,
            "time": 41.5266375,
            "value": 0.2677165354330709
          },
          {
            "number": 1,
            "ticks": 26080,
            "time": 41.577866666666665,
            "value": 0.31496062992125984
          },
          {
            "number": 1,
            "ticks": 26100,
            "time": 41.61885,
            "value": 0.3543307086614173
          },
          {
            "number": 1,
            "ticks": 26145,
            "time": 41.7110625,
            "value": 0.29133858267716534
          },
          {
            "number": 1,
            "ticks": 26170,
            "time": 41.76229166666667,
            "value": 0.18110236220472442
          },
          {
            "number": 1,
            "ticks": 26190,
            "time": 41.803275,
            "value": 0.08661417322834646
          },
          {
            "number": 1,
            "ticks": 26215,
            "time": 41.854504166666665,
            "value": 0.05511811023622047
          },
          {
            "number": 1,
            "ticks": 26235,
            "time": 41.8954875,
            "value": 0.015748031496062992
          },
          {
            "number": 1,
            "ticks": 26260,
            "time": 41.94671666666667,
            "value": 0.007874015748031496
          },
          {
            "number": 1,
            "ticks": 26295,
            "time": 42.0184375,
            "value": 0
          },
          {
            "number": 1,
            "ticks": 26410,
            "time": 42.25409166666667,
            "value": 0.007874015748031496
          },
          {
            "number": 1,
            "ticks": 26420,
            "time": 42.27458333333333,
            "value": 0.015748031496062992
          },
          {
            "number": 1,
            "ticks": 26445,
            "time": 42.3258125,
            "value": 0.023622047244094488
          },
          {
            "number": 1,
            "ticks": 26460,
            "time": 42.35655,
            "value": 0.031496062992125984
          },
          {
            "number": 1,
            "ticks": 26480,
            "time": 42.397533333333335,
            "value": 0.047244094488188976
          },
          {
            "number": 1,
            "ticks": 26505,
            "time": 42.4487625,
            "value": 0.07086614173228346
          },
          {
            "number": 1,
            "ticks": 26525,
            "time": 42.48974583333333,
            "value": 0.11023622047244094
          },
          {
            "number": 1,
            "ticks": 26555,
            "time": 42.55122083333333,
            "value": 0.13385826771653545
          },
          {
            "number": 1,
            "ticks": 26575,
            "time": 42.59220416666667,
            "value": 0.15748031496062992
          },
          {
            "number": 1,
            "ticks": 26595,
            "time": 42.6331875,
            "value": 0.1889763779527559
          },
          {
            "number": 1,
            "ticks": 26615,
            "time": 42.674170833333335,
            "value": 0.2125984251968504
          },
          {
            "number": 1,
            "ticks": 26640,
            "time": 42.7254,
            "value": 0.2283464566929134
          },
          {
            "number": 1,
            "ticks": 26665,
            "time": 42.776629166666666,
            "value": 0.18110236220472442
          },
          {
            "number": 1,
            "ticks": 26685,
            "time": 42.8176125,
            "value": 0.13385826771653545
          },
          {
            "number": 1,
            "ticks": 26705,
            "time": 42.85859583333333,
            "value": 0.07086614173228346
          },
          {
            "number": 1,
            "ticks": 26730,
            "time": 42.909825,
            "value": 0.007874015748031496
          },
          {
            "number": 1,
            "ticks": 26755,
            "time": 42.96105416666666,
            "value": 0
          },
          {
            "number": 1,
            "ticks": 27465,
            "time": 44.4159625,
            "value": 0.007874015748031496
          },
          {
            "number": 1,
            "ticks": 27470,
            "time": 44.426208333333335,
            "value": 0.05511811023622047
          },
          {
            "number": 1,
            "ticks": 27495,
            "time": 44.4774375,
            "value": 0.08661417322834646
          },
          {
            "number": 1,
            "ticks": 27515,
            "time": 44.51842083333333,
            "value": 0.11811023622047244
          },
          {
            "number": 1,
            "ticks": 27540,
            "time": 44.56965,
            "value": 0.14173228346456693
          },
          {
            "number": 1,
            "ticks": 27565,
            "time": 44.62087916666667,
            "value": 0.14960629921259844
          },
          {
            "number": 1,
            "ticks": 27590,
            "time": 44.672108333333334,
            "value": 0.16535433070866143
          },
          {
            "number": 1,
            "ticks": 27610,
            "time": 44.71309166666667,
            "value": 0.18110236220472442
          },
          {
            "number": 1,
            "ticks": 27640,
            "time": 44.774566666666665,
            "value": 0.1968503937007874
          },
          {
            "number": 1,
            "ticks": 27655,
            "time": 44.805304166666666,
            "value": 0.2125984251968504
          },
          {
            "number": 1,
            "ticks": 27700,
            "time": 44.89751666666667,
            "value": 0.2204724409448819
          },
          {
            "number": 1,
            "ticks": 27720,
            "time": 44.9385,
            "value": 0.23622047244094488
          },
          {
            "number": 1,
            "ticks": 27760,
            "time": 45.020466666666664,
            "value": 0.2440944881889764
          },
          {
            "number": 1,
            "ticks": 27790,
            "time": 45.081941666666665,
            "value": 0.2204724409448819
          },
          {
            "number": 1,
            "ticks": 27810,
            "time": 45.122925,
            "value": 0.23622047244094488
          },
          {
            "number": 1,
            "ticks": 27835,
            "time": 45.17415416666667,
            "value": 0.2440944881889764
          },
          {
            "number": 1,
            "ticks": 27885,
            "time": 45.2766125,
            "value": 0.25196850393700787
          },
          {
            "number": 1,
            "ticks": 27900,
            "time": 45.30735,
            "value": 0.2047244094488189
          },
          {
            "number": 1,
            "ticks": 27920,
            "time": 45.348333333333336,
            "value": 0.13385826771653545
          },
          {
            "number": 1,
            "ticks": 27945,
            "time": 45.3995625,
            "value": 0.10236220472440945
          },
          {
            "number": 1,
            "ticks": 27965,
            "time": 45.44054583333333,
            "value": 0.08661417322834646
          },
          {
            "number": 1,
            "ticks": 27990,
            "time": 45.491775000000004,
            "value": 0.06299212598425197
          },
          {
            "number": 1,
            "ticks": 28010,
            "time": 45.532758333333334,
            "value": 0.023622047244094488
          },
          {
            "number": 1,
            "ticks": 28045,
            "time": 45.604479166666664,
            "value": 0.015748031496062992
          },
          {
            "number": 1,
            "ticks": 28055,
            "time": 45.624970833333336,
            "value": 0
          }
        ],
        "7": [
          {
            "number": 7,
            "ticks": 570,
            "time": 0.890625,
            "value": 0.6299212598425197
          }
        ],
        "10": [
          {
            "number": 10,
            "ticks": 570,
            "time": 0.890625,
            "value": 0.5039370078740157
          }
        ],
        "11": [
          {
            "number": 11,
            "ticks": 570,
            "time": 0.890625,
            "value": 1
          }
        ],
        "91": [
          {
            "number": 91,
            "ticks": 575,
            "time": 0.8984375,
            "value": 0.7086614173228346
          }
        ],
        "93": [
          {
            "number": 93,
            "ticks": 575,
            "time": 0.8984375,
            "value": 0
          }
        ]
      },
      "pitchBends": [
        {
          "ticks": 4310,
          "time": 6.734375,
          "value": -0.109375
        },
        {
          "ticks": 4320,
          "time": 6.75,
          "value": -0.59375
        },
        {
          "ticks": 4340,
          "time": 6.78125,
          "value": -0.9765625
        },
        {
          "ticks": 4355,
          "time": 6.8046875,
          "value": -1
        },
        {
          "ticks": 4380,
          "time": 6.84375,
          "value": -0.875
        },
        {
          "ticks": 4390,
          "time": 6.859375,
          "value": -0.390625
        },
        {
          "ticks": 4410,
          "time": 6.890625,
          "value": -0.109375
        },
        {
          "ticks": 4425,
          "time": 6.9140625,
          "value": -0.015625
        },
        {
          "ticks": 4435,
          "time": 6.9296875,
          "value": 0
        },
        {
          "ticks": 7175,
          "time": 11.2109375,
          "value": -0.3671875
        },
        {
          "ticks": 7190,
          "time": 11.234375,
          "value": -1
        },
        {
          "ticks": 7240,
          "time": 11.3125,
          "value": -0.98046875
        },
        {
          "ticks": 7245,
          "time": 11.3203125,
          "value": -0.578125
        },
        {
          "ticks": 7260,
          "time": 11.34375,
          "value": -0.06640625
        },
        {
          "ticks": 7280,
          "time": 11.375,
          "value": -0.01171875
        },
        {
          "ticks": 7285,
          "time": 11.3828125,
          "value": 0
        },
        {
          "ticks": 8115,
          "time": 12.6796875,
          "value": -0.00390625
        },
        {
          "ticks": 8120,
          "time": 12.6875,
          "value": -0.46875
        },
        {
          "ticks": 8140,
          "time": 12.71875,
          "value": -1
        },
        {
          "ticks": 8190,
          "time": 12.796875,
          "value": -0.66015625
        },
        {
          "ticks": 8205,
          "time": 12.8203125,
          "value": -0.04296875
        },
        {
          "ticks": 8225,
          "time": 12.8515625,
          "value": -0.00390625
        },
        {
          "ticks": 8230,
          "time": 12.859375,
          "value": 0
        },
        {
          "ticks": 10030,
          "time": 15.671875,
          "value": -0.19140625
        },
        {
          "ticks": 10045,
          "time": 15.6953125,
          "value": -0.75390625
        },
        {
          "ticks": 10060,
          "time": 15.71875,
          "value": -0.9609375
        },
        {
          "ticks": 10080,
          "time": 15.75,
          "value": -0.828125
        },
        {
          "ticks": 10100,
          "time": 15.78125,
          "value": -0.4609375
        },
        {
          "ticks": 10115,
          "time": 15.8046875,
          "value": -0.01171875
        },
        {
          "ticks": 10135,
          "time": 15.8359375,
          "value": 0
        },
        {
          "ticks": 10990,
          "time": 17.171875,
          "value": -0.24609375
        },
        {
          "ticks": 11010,
          "time": 17.203125,
          "value": -0.4375
        },
        {
          "ticks": 11025,
          "time": 17.2265625,
          "value": -0.38671875
        },
        {
          "ticks": 11045,
          "time": 17.2578125,
          "value": -0.21875
        },
        {
          "ticks": 11060,
          "time": 17.28125,
          "value": -0.01171875
        },
        {
          "ticks": 11080,
          "time": 17.3125,
          "value": 0
        },
        {
          "ticks": 11520,
          "time": 18,
          "value": -0.5859375
        },
        {
          "ticks": 11535,
          "time": 18.0234375,
          "value": -0.74609375
        },
        {
          "ticks": 11550,
          "time": 18.046875,
          "value": -0.5546875
        },
        {
          "ticks": 11570,
          "time": 18.078125,
          "value": -0.2734375
        },
        {
          "ticks": 11585,
          "time": 18.1015625,
          "value": -0.00390625
        },
        {
          "ticks": 11605,
          "time": 18.1328125,
          "value": 0
        },
        {
          "ticks": 12420,
          "time": 19.40625,
          "value": -0.0390625
        },
        {
          "ticks": 12425,
          "time": 19.4140625,
          "value": -0.3046875
        },
        {
          "ticks": 12440,
          "time": 19.4375,
          "value": -0.6015625
        },
        {
          "ticks": 12460,
          "time": 19.46875,
          "value": -0.5859375
        },
        {
          "ticks": 12475,
          "time": 19.4921875,
          "value": -0.3671875
        },
        {
          "ticks": 12495,
          "time": 19.5234375,
          "value": -0.18359375
        },
        {
          "ticks": 12510,
          "time": 19.546875,
          "value": -0.01953125
        },
        {
          "ticks": 12530,
          "time": 19.578125,
          "value": -0.00390625
        },
        {
          "ticks": 12535,
          "time": 19.5859375,
          "value": 0
        },
        {
          "ticks": 12930,
          "time": 20.203125,
          "value": -0.453125
        },
        {
          "ticks": 12950,
          "time": 20.234375,
          "value": -0.85546875
        },
        {
          "ticks": 12965,
          "time": 20.2578125,
          "value": -1
        },
        {
          "ticks": 12990,
          "time": 20.296875,
          "value": -0.90234375
        },
        {
          "ticks": 13000,
          "time": 20.3125,
          "value": -0.56640625
        },
        {
          "ticks": 13020,
          "time": 20.34375,
          "value": -0.30078125
        },
        {
          "ticks": 13035,
          "time": 20.3671875,
          "value": -0.01171875
        },
        {
          "ticks": 13055,
          "time": 20.3984375,
          "value": 0
        },
        {
          "ticks": 15840,
          "time": 24.75,
          "value": -0.11328125
        },
        {
          "ticks": 15855,
          "time": 24.7734375,
          "value": -0.61328125
        },
        {
          "ticks": 15875,
          "time": 24.8046875,
          "value": -1
        },
        {
          "ticks": 15915,
          "time": 24.8671875,
          "value": -0.80078125
        },
        {
          "ticks": 15930,
          "time": 24.890625,
          "value": -0.43359375
        },
        {
          "ticks": 15945,
          "time": 24.9140625,
          "value": -0.11328125
        },
        {
          "ticks": 15960,
          "time": 24.9375,
          "value": -0.01171875
        },
        {
          "ticks": 15970,
          "time": 24.953125,
          "value": 0
        },
        {
          "ticks": 18680,
          "time": 29.1875,
          "value": -0.09765625
        },
        {
          "ticks": 18690,
          "time": 29.203125,
          "value": -0.47265625
        },
        {
          "ticks": 18705,
          "time": 29.2265625,
          "value": -0.83984375
        },
        {
          "ticks": 18725,
          "time": 29.2578125,
          "value": -0.85546875
        },
        {
          "ticks": 18740,
          "time": 29.28125,
          "value": -0.6015625
        },
        {
          "ticks": 18760,
          "time": 29.3125,
          "value": -0.2734375
        },
        {
          "ticks": 18775,
          "time": 29.3359375,
          "value": -0.01171875
        },
        {
          "ticks": 18795,
          "time": 29.3671875,
          "value": 0
        },
        {
          "ticks": 19635,
          "time": 30.6796875,
          "value": -0.1328125
        },
        {
          "ticks": 19650,
          "time": 30.703125,
          "value": -0.74609375
        },
        {
          "ticks": 19670,
          "time": 30.734375,
          "value": -1
        },
        {
          "ticks": 19700,
          "time": 30.78125,
          "value": -0.98828125
        },
        {
          "ticks": 19705,
          "time": 30.7890625,
          "value": -0.74609375
        },
        {
          "ticks": 19720,
          "time": 30.8125,
          "value": -0.30078125
        },
        {
          "ticks": 19740,
          "time": 30.84375,
          "value": -0.05078125
        },
        {
          "ticks": 19755,
          "time": 30.8671875,
          "value": -0.01171875
        },
        {
          "ticks": 19760,
          "time": 30.875,
          "value": 0
        },
        {
          "ticks": 21545,
          "time": 33.6640625,
          "value": -0.16015625
        },
        {
          "ticks": 21560,
          "time": 33.6875,
          "value": -0.6015625
        },
        {
          "ticks": 21575,
          "time": 33.7109375,
          "value": -0.98828125
        },
        {
          "ticks": 21595,
          "time": 33.7421875,
          "value": -1
        },
        {
          "ticks": 21620,
          "time": 33.78125,
          "value": -0.84765625
        },
        {
          "ticks": 21630,
          "time": 33.796875,
          "value": -0.5078125
        },
        {
          "ticks": 21645,
          "time": 33.8203125,
          "value": -0.125
        },
        {
          "ticks": 21665,
          "time": 33.8515625,
          "value": -0.0234375
        },
        {
          "ticks": 21675,
          "time": 33.8671875,
          "value": 0
        },
        {
          "ticks": 23025,
          "time": 35.9765625,
          "value": -0.03125
        },
        {
          "ticks": 23030,
          "time": 35.984375,
          "value": -0.46484375
        },
        {
          "ticks": 23050,
          "time": 36.015625,
          "value": -0.69140625
        },
        {
          "ticks": 23065,
          "time": 36.0390625,
          "value": -0.671875
        },
        {
          "ticks": 23085,
          "time": 36.0703125,
          "value": -0.48046875
        },
        {
          "ticks": 23100,
          "time": 36.09375,
          "value": -0.14453125
        },
        {
          "ticks": 23120,
          "time": 36.125,
          "value": -0.00390625
        },
        {
          "ticks": 23135,
          "time": 36.1484375,
          "value": 0
        },
        {
          "ticks": 25445,
          "time": 39.765625,
          "value": -0.125
        },
        {
          "ticks": 25460,
          "time": 39.8125,
          "value": -0.484375
        },
        {
          "ticks": 25480,
          "time": 39.875,
          "value": -0.5859375
        },
        {
          "ticks": 25495,
          "time": 39.921875,
          "value": -0.453125
        },
        {
          "ticks": 25515,
          "time": 39.984375,
          "value": -0.25390625
        },
        {
          "ticks": 25530,
          "time": 40.03125,
          "value": -0.0390625
        },
        {
          "ticks": 25550,
          "time": 40.09375,
          "value": -0.01171875
        },
        {
          "ticks": 25555,
          "time": 40.109375,
          "value": 0
        },
        {
          "ticks": 26825,
          "time": 43.10449583333333,
          "value": -0.2578125
        },
        {
          "ticks": 26845,
          "time": 43.14547916666667,
          "value": -0.625
        },
        {
          "ticks": 26860,
          "time": 43.17621666666667,
          "value": -0.90234375
        },
        {
          "ticks": 26880,
          "time": 43.2172,
          "value": -0.921875
        },
        {
          "ticks": 26895,
          "time": 43.2479375,
          "value": -0.80078125
        },
        {
          "ticks": 26915,
          "time": 43.288920833333336,
          "value": -0.625
        },
        {
          "ticks": 26930,
          "time": 43.31965833333334,
          "value": -0.33203125
        },
        {
          "ticks": 26950,
          "time": 43.360641666666666,
          "value": -0.0859375
        },
        {
          "ticks": 26965,
          "time": 43.39137916666667,
          "value": -0.00390625
        },
        {
          "ticks": 26975,
          "time": 43.41187083333333,
          "value": 0
        }
      ],
      "instrument": {
        "family": "reed",
        "number": 66,
        "name": "tenor sax"
      },
      "name": "",
      "notes": [
        {
          "duration": 0.484375,
          "durationTicks": 310,
          "midi": 60,
          "name": "C4",
          "ticks": 3840,
          "time": 6,
          "velocity": 0.6692913385826772
        },
        {
          "duration": 0.171875,
          "durationTicks": 110,
          "midi": 60,
          "name": "C4",
          "ticks": 4160,
          "time": 6.5,
          "velocity": 0.7165354330708661
        },
        {
          "duration": 0.609375,
          "durationTicks": 390,
          "midi": 62,
          "name": "D4",
          "ticks": 4320,
          "time": 6.75,
          "velocity": 0.7401574803149606
        },
        {
          "duration": 0.7578125,
          "durationTicks": 485,
          "midi": 60,
          "name": "C4",
          "ticks": 4800,
          "time": 7.5,
          "velocity": 0.7165354330708661
        },
        {
          "duration": 0.7265625,
          "durationTicks": 465,
          "midi": 65,
          "name": "F4",
          "ticks": 5280,
          "time": 8.25,
          "velocity": 0.7165354330708661
        },
        {
          "duration": 0.8671875,
          "durationTicks": 555,
          "midi": 64,
          "name": "E4",
          "ticks": 5760,
          "time": 9,
          "velocity": 0.6062992125984252
        },
        {
          "duration": 0.421875,
          "durationTicks": 270,
          "midi": 60,
          "name": "C4",
          "ticks": 6720,
          "time": 10.5,
          "velocity": 0.6929133858267716
        },
        {
          "duration": 0.171875,
          "durationTicks": 110,
          "midi": 60,
          "name": "C4",
          "ticks": 7040,
          "time": 11,
          "velocity": 0.6850393700787402
        },
        {
          "duration": 0.6875,
          "durationTicks": 440,
          "midi": 62,
          "name": "D4",
          "ticks": 7200,
          "time": 11.25,
          "velocity": 0.7165354330708661
        },
        {
          "duration": 0.671875,
          "durationTicks": 430,
          "midi": 60,
          "name": "C4",
          "ticks": 7680,
          "time": 12,
          "velocity": 0.7165354330708661
        },
        {
          "duration": 0.671875,
          "durationTicks": 430,
          "midi": 67,
          "name": "G4",
          "ticks": 8160,
          "time": 12.75,
          "velocity": 0.7795275590551181
        },
        {
          "duration": 0.9921875,
          "durationTicks": 635,
          "midi": 65,
          "name": "F4",
          "ticks": 8640,
          "time": 13.5,
          "velocity": 0.7165354330708661
        },
        {
          "duration": 0.3671875,
          "durationTicks": 235,
          "midi": 60,
          "name": "C4",
          "ticks": 9600,
          "time": 15,
          "velocity": 0.7637795275590551
        },
        {
          "duration": 0.140625,
          "durationTicks": 90,
          "midi": 60,
          "name": "C4",
          "ticks": 9920,
          "time": 15.5,
          "velocity": 0.7007874015748031
        },
        {
          "duration": 0.6875,
          "durationTicks": 440,
          "midi": 72,
          "name": "C5",
          "ticks": 10080,
          "time": 15.75,
          "velocity": 0.7795275590551181
        },
        {
          "duration": 0.6640625,
          "durationTicks": 425,
          "midi": 69,
          "name": "A4",
          "ticks": 10560,
          "time": 16.5,
          "velocity": 0.7244094488188977
        },
        {
          "duration": 0.7265625,
          "durationTicks": 465,
          "midi": 65,
          "name": "F4",
          "ticks": 11040,
          "time": 17.25,
          "velocity": 0.7401574803149606
        },
        {
          "duration": 0.4375,
          "durationTicks": 280,
          "midi": 64,
          "name": "E4",
          "ticks": 11520,
          "time": 18,
          "velocity": 0.7165354330708661
        },
        {
          "duration": 0.0859375,
          "durationTicks": 55,
          "midi": 65,
          "name": "F4",
          "ticks": 11840,
          "time": 18.5,
          "velocity": 0.44881889763779526
        },
        {
          "duration": 0.125,
          "durationTicks": 80,
          "midi": 64,
          "name": "E4",
          "ticks": 11920,
          "time": 18.625,
          "velocity": 0.6456692913385826
        },
        {
          "duration": 0.6171875,
          "durationTicks": 395,
          "midi": 62,
          "name": "D4",
          "ticks": 12000,
          "time": 18.75,
          "velocity": 0.5984251968503937
        },
        {
          "duration": 0.4140625,
          "durationTicks": 265,
          "midi": 70,
          "name": "A#4",
          "ticks": 12480,
          "time": 19.5,
          "velocity": 0.7086614173228346
        },
        {
          "duration": 0.1953125,
          "durationTicks": 125,
          "midi": 70,
          "name": "A#4",
          "ticks": 12800,
          "time": 20,
          "velocity": 0.6850393700787402
        },
        {
          "duration": 0.65625,
          "durationTicks": 420,
          "midi": 69,
          "name": "A4",
          "ticks": 12960,
          "time": 20.25,
          "velocity": 0.6692913385826772
        },
        {
          "duration": 0.6953125,
          "durationTicks": 445,
          "midi": 65,
          "name": "F4",
          "ticks": 13440,
          "time": 21,
          "velocity": 0.6929133858267716
        },
        {
          "duration": 0.734375,
          "durationTicks": 470,
          "midi": 64,
          "name": "E4",
          "ticks": 13920,
          "time": 21.75,
          "velocity": 0.6771653543307087
        },
        {
          "duration": 0.890625,
          "durationTicks": 570,
          "midi": 65,
          "name": "F4",
          "ticks": 14400,
          "time": 22.5,
          "velocity": 0.6141732283464567
        },
        {
          "duration": 0.453125,
          "durationTicks": 290,
          "midi": 60,
          "name": "C4",
          "ticks": 15360,
          "time": 24,
          "velocity": 0.6929133858267716
        },
        {
          "duration": 0.1953125,
          "durationTicks": 125,
          "midi": 60,
          "name": "C4",
          "ticks": 15680,
          "time": 24.5,
          "velocity": 0.6692913385826772
        },
        {
          "duration": 0.6796875,
          "durationTicks": 435,
          "midi": 62,
          "name": "D4",
          "ticks": 15840,
          "time": 24.75,
          "velocity": 0.7165354330708661
        },
        {
          "duration": 0.703125,
          "durationTicks": 450,
          "midi": 60,
          "name": "C4",
          "ticks": 16320,
          "time": 25.5,
          "velocity": 0.6692913385826772
        },
        {
          "duration": 0.6796875,
          "durationTicks": 435,
          "midi": 65,
          "name": "F4",
          "ticks": 16800,
          "time": 26.25,
          "velocity": 0.6771653543307087
        },
        {
          "duration": 0.984375,
          "durationTicks": 630,
          "midi": 64,
          "name": "E4",
          "ticks": 17280,
          "time": 27,
          "velocity": 0.6062992125984252
        },
        {
          "duration": 0.421875,
          "durationTicks": 270,
          "midi": 60,
          "name": "C4",
          "ticks": 18240,
          "time": 28.5,
          "velocity": 0.7244094488188977
        },
        {
          "duration": 0.21875,
          "durationTicks": 140,
          "midi": 60,
          "name": "C4",
          "ticks": 18560,
          "time": 29,
          "velocity": 0.6929133858267716
        },
        {
          "duration": 0.6953125,
          "durationTicks": 445,
          "midi": 62,
          "name": "D4",
          "ticks": 18720,
          "time": 29.25,
          "velocity": 0.7244094488188977
        },
        {
          "duration": 0.640625,
          "durationTicks": 410,
          "midi": 60,
          "name": "C4",
          "ticks": 19200,
          "time": 30,
          "velocity": 0.7165354330708661
        },
        {
          "duration": 0.484375,
          "durationTicks": 310,
          "midi": 67,
          "name": "G4",
          "ticks": 19680,
          "time": 30.75,
          "velocity": 0.7874015748031497
        },
        {
          "duration": 0.0703125,
          "durationTicks": 45,
          "midi": 69,
          "name": "A4",
          "ticks": 20000,
          "time": 31.25,
          "velocity": 0.6535433070866141
        },
        {
          "duration": 0.1015625,
          "durationTicks": 65,
          "midi": 67,
          "name": "G4",
          "ticks": 20080,
          "time": 31.375,
          "velocity": 0.7716535433070866
        },
        {
          "duration": 0.9296875,
          "durationTicks": 595,
          "midi": 65,
          "name": "F4",
          "ticks": 20160,
          "time": 31.5,
          "velocity": 0.8346456692913385
        },
        {
          "duration": 0.4296875,
          "durationTicks": 275,
          "midi": 60,
          "name": "C4",
          "ticks": 21120,
          "time": 33,
          "velocity": 0.6850393700787402
        },
        {
          "duration": 0.21875,
          "durationTicks": 140,
          "midi": 60,
          "name": "C4",
          "ticks": 21440,
          "time": 33.5,
          "velocity": 0.7165354330708661
        },
        {
          "duration": 0.7265625,
          "durationTicks": 465,
          "midi": 72,
          "name": "C5",
          "ticks": 21600,
          "time": 33.75,
          "velocity": 0.7716535433070866
        },
        {
          "duration": 0.6875,
          "durationTicks": 440,
          "midi": 69,
          "name": "A4",
          "ticks": 22080,
          "time": 34.5,
          "velocity": 0.7559055118110236
        },
        {
          "duration": 0.703125,
          "durationTicks": 450,
          "midi": 65,
          "name": "F4",
          "ticks": 22560,
          "time": 35.25,
          "velocity": 0.7244094488188977
        },
        {
          "duration": 0.7578125,
          "durationTicks": 485,
          "midi": 64,
          "name": "E4",
          "ticks": 23040,
          "time": 36,
          "velocity": 0.6850393700787402
        },
        {
          "duration": 1.953125,
          "durationTicks": 1250,
          "midi": 62,
          "name": "D4",
          "ticks": 23520,
          "time": 36.75,
          "velocity": 0.6850393700787402
        },
        {
          "duration": 0.75,
          "durationTicks": 240,
          "midi": 70,
          "name": "A#4",
          "ticks": 25440,
          "time": 39.75,
          "velocity": 0.7401574803149606
        },
        {
          "duration": 0.4375,
          "durationTicks": 140,
          "midi": 70,
          "name": "A#4",
          "ticks": 25760,
          "time": 40.75,
          "velocity": 0.7165354330708661
        },
        {
          "duration": 0.8401583333333349,
          "durationTicks": 410,
          "midi": 69,
          "name": "A4",
          "ticks": 25920,
          "time": 41.25,
          "velocity": 0.7007874015748031
        },
        {
          "duration": 0.8708958333333285,
          "durationTicks": 425,
          "midi": 65,
          "name": "F4",
          "ticks": 26400,
          "time": 42.2336,
          "velocity": 0.7244094488188977
        },
        {
          "duration": 0.9323708333333371,
          "durationTicks": 455,
          "midi": 67,
          "name": "G4",
          "ticks": 26880,
          "time": 43.2172,
          "velocity": 0.7165354330708661
        },
        {
          "duration": 4.836033333333333,
          "durationTicks": 2360,
          "midi": 65,
          "name": "F4",
          "ticks": 27360,
          "time": 44.2008,
          "velocity": 0.7086614173228346
        }
      ]
    },
    {
      "channel": 0,
      "controlChanges": {},
      "pitchBends": [],
      "instrument": {
        "family": "piano",
        "number": 0,
        "name": "acoustic grand piano"
      },
      "name": "String Ensemble 2",
      "notes": [],
      "endOfTrackTicks": 30240
    },
    {
      "channel": 4,
      "controlChanges": {
        "7": [
          {
            "number": 7,
            "ticks": 595,
            "time": 0.9296875,
            "value": 0.6299212598425197
          }
        ],
        "10": [
          {
            "number": 10,
            "ticks": 595,
            "time": 0.9296875,
            "value": 0.5039370078740157
          }
        ],
        "11": [
          {
            "number": 11,
            "ticks": 595,
            "time": 0.9296875,
            "value": 1
          }
        ],
        "91": [
          {
            "number": 91,
            "ticks": 600,
            "time": 0.9375,
            "value": 0.5826771653543307
          }
        ],
        "93": [
          {
            "number": 93,
            "ticks": 600,
            "time": 0.9375,
            "value": 0
          }
        ]
      },
      "pitchBends": [],
      "instrument": {
        "family": "ensemble",
        "number": 49,
        "name": "string ensemble 2"
      },
      "name": "",
      "notes": [
        {
          "duration": 2.1796875,
          "durationTicks": 1395,
          "midi": 41,
          "name": "F2",
          "ticks": 15840,
          "time": 24.75,
          "velocity": 0.8031496062992126
        },
        {
          "duration": 2.1484375,
          "durationTicks": 1375,
          "midi": 48,
          "name": "C3",
          "ticks": 15840,
          "time": 24.75,
          "velocity": 0.6850393700787402
        },
        {
          "duration": 2.1875,
          "durationTicks": 1400,
          "midi": 57,
          "name": "A3",
          "ticks": 15840,
          "time": 24.75,
          "velocity": 0.7165354330708661
        },
        {
          "duration": 2.15625,
          "durationTicks": 1380,
          "midi": 36,
          "name": "C2",
          "ticks": 17280,
          "time": 27,
          "velocity": 0.8661417322834646
        },
        {
          "duration": 2.078125,
          "durationTicks": 1330,
          "midi": 52,
          "name": "E3",
          "ticks": 17280,
          "time": 27,
          "velocity": 0.7480314960629921
        },
        {
          "duration": 2.125,
          "durationTicks": 1360,
          "midi": 58,
          "name": "A#3",
          "ticks": 17280,
          "time": 27,
          "velocity": 0.6850393700787402
        },
        {
          "duration": 0.6953125,
          "durationTicks": 445,
          "midi": 38,
          "name": "D2",
          "ticks": 18720,
          "time": 29.25,
          "velocity": 0.889763779527559
        },
        {
          "duration": 0.6640625,
          "durationTicks": 425,
          "midi": 50,
          "name": "D3",
          "ticks": 18720,
          "time": 29.25,
          "velocity": 0.6929133858267716
        },
        {
          "duration": 0.71875,
          "durationTicks": 460,
          "midi": 53,
          "name": "F3",
          "ticks": 18720,
          "time": 29.25,
          "velocity": 0.7165354330708661
        },
        {
          "duration": 0.75,
          "durationTicks": 480,
          "midi": 58,
          "name": "A#3",
          "ticks": 18720,
          "time": 29.25,
          "velocity": 0.6771653543307087
        },
        {
          "duration": 0.7578125,
          "durationTicks": 485,
          "midi": 40,
          "name": "E2",
          "ticks": 19200,
          "time": 30,
          "velocity": 0.8976377952755905
        },
        {
          "duration": 1.53125,
          "durationTicks": 980,
          "midi": 52,
          "name": "E3",
          "ticks": 19200,
          "time": 30,
          "velocity": 0.7716535433070866
        },
        {
          "duration": 1.546875,
          "durationTicks": 990,
          "midi": 55,
          "name": "G3",
          "ticks": 19200,
          "time": 30,
          "velocity": 0.7716535433070866
        },
        {
          "duration": 1.515625,
          "durationTicks": 970,
          "midi": 60,
          "name": "C4",
          "ticks": 19200,
          "time": 30,
          "velocity": 0.7952755905511811
        },
        {
          "duration": 0.703125,
          "durationTicks": 450,
          "midi": 36,
          "name": "C2",
          "ticks": 19680,
          "time": 30.75,
          "velocity": 0.84251968503937
        },
        {
          "duration": 2.25,
          "durationTicks": 1440,
          "midi": 41,
          "name": "F2",
          "ticks": 20160,
          "time": 31.5,
          "velocity": 0.8346456692913385
        },
        {
          "duration": 2.25,
          "durationTicks": 1440,
          "midi": 48,
          "name": "C3",
          "ticks": 20160,
          "time": 31.5,
          "velocity": 0.8346456692913385
        },
        {
          "duration": 2.25,
          "durationTicks": 1440,
          "midi": 57,
          "name": "A3",
          "ticks": 20160,
          "time": 31.5,
          "velocity": 0.8346456692913385
        },
        {
          "duration": 2.25,
          "durationTicks": 1440,
          "midi": 65,
          "name": "F4",
          "ticks": 20160,
          "time": 31.5,
          "velocity": 0.8346456692913385
        },
        {
          "duration": 2.25,
          "durationTicks": 1440,
          "midi": 45,
          "name": "A2",
          "ticks": 21600,
          "time": 33.75,
          "velocity": 0.8346456692913385
        },
        {
          "duration": 2.21875,
          "durationTicks": 1420,
          "midi": 53,
          "name": "F3",
          "ticks": 21600,
          "time": 33.75,
          "velocity": 0.7165354330708661
        },
        {
          "duration": 3,
          "durationTicks": 1920,
          "midi": 60,
          "name": "C4",
          "ticks": 21600,
          "time": 33.75,
          "velocity": 0.6929133858267716
        },
        {
          "duration": 0.75,
          "durationTicks": 480,
          "midi": 65,
          "name": "F4",
          "ticks": 22560,
          "time": 35.25,
          "velocity": 0.8267716535433071
        },
        {
          "duration": 0.75,
          "durationTicks": 480,
          "midi": 46,
          "name": "A#2",
          "ticks": 23040,
          "time": 36,
          "velocity": 0.8661417322834646
        },
        {
          "duration": 0.6171875,
          "durationTicks": 395,
          "midi": 53,
          "name": "F3",
          "ticks": 23040,
          "time": 36,
          "velocity": 0.6692913385826772
        },
        {
          "duration": 0.75,
          "durationTicks": 480,
          "midi": 64,
          "name": "E4",
          "ticks": 23040,
          "time": 36,
          "velocity": 0.7165354330708661
        },
        {
          "duration": 2.25,
          "durationTicks": 1440,
          "midi": 43,
          "name": "G2",
          "ticks": 23520,
          "time": 36.75,
          "velocity": 0.7795275590551181
        },
        {
          "duration": 2.25,
          "durationTicks": 1440,
          "midi": 53,
          "name": "F3",
          "ticks": 23520,
          "time": 36.75,
          "velocity": 0.6692913385826772
        },
        {
          "duration": 2.25,
          "durationTicks": 1440,
          "midi": 58,
          "name": "A#3",
          "ticks": 23520,
          "time": 36.75,
          "velocity": 0.7401574803149606
        },
        {
          "duration": 2.25,
          "durationTicks": 1440,
          "midi": 62,
          "name": "D4",
          "ticks": 23520,
          "time": 36.75,
          "velocity": 0.7401574803149606
        },
        {
          "duration": 1.5,
          "durationTicks": 480,
          "midi": 43,
          "name": "G2",
          "ticks": 25440,
          "time": 39.75,
          "velocity": 0.7795275590551181
        },
        {
          "duration": 1.5,
          "durationTicks": 480,
          "midi": 53,
          "name": "F3",
          "ticks": 25440,
          "time": 39.75,
          "velocity": 0.6692913385826772
        },
        {
          "duration": 1.5,
          "durationTicks": 480,
          "midi": 58,
          "name": "A#3",
          "ticks": 25440,
          "time": 39.75,
          "velocity": 0.7401574803149606
        },
        {
          "duration": 1.5,
          "durationTicks": 480,
          "midi": 62,
          "name": "D4",
          "ticks": 25440,
          "time": 39.75,
          "velocity": 0.7401574803149606
        },
        {
          "duration": 1.9671999999999983,
          "durationTicks": 960,
          "midi": 48,
          "name": "C3",
          "ticks": 25920,
          "time": 41.25,
          "velocity": 0.7480314960629921
        },
        {
          "duration": 1.9671999999999983,
          "durationTicks": 960,
          "midi": 53,
          "name": "F3",
          "ticks": 25920,
          "time": 41.25,
          "velocity": 0.7007874015748031
        },
        {
          "duration": 1.9671999999999983,
          "durationTicks": 960,
          "midi": 57,
          "name": "A3",
          "ticks": 25920,
          "time": 41.25,
          "velocity": 0.6456692913385826
        },
        {
          "duration": 1.9671999999999983,
          "durationTicks": 960,
          "midi": 60,
          "name": "C4",
          "ticks": 25920,
          "time": 41.25,
          "velocity": 0.6850393700787402
        },
        {
          "duration": 0.9836000000000027,
          "durationTicks": 480,
          "midi": 48,
          "name": "C3",
          "ticks": 26880,
          "time": 43.2172,
          "velocity": 0.8110236220472441
        },
        {
          "duration": 0.9836000000000027,
          "durationTicks": 480,
          "midi": 52,
          "name": "E3",
          "ticks": 26880,
          "time": 43.2172,
          "velocity": 0.6141732283464567
        },
        {
          "duration": 0.9836000000000027,
          "durationTicks": 480,
          "midi": 58,
          "name": "A#3",
          "ticks": 26880,
          "time": 43.2172,
          "velocity": 0.6850393700787402
        },
        {
          "duration": 1.0040916666666675,
          "durationTicks": 490,
          "midi": 60,
          "name": "C4",
          "ticks": 26880,
          "time": 43.2172,
          "velocity": 0.7007874015748031
        },
        {
          "duration": 5.901600000000002,
          "durationTicks": 2880,
          "midi": 41,
          "name": "F2",
          "ticks": 27360,
          "time": 44.2008,
          "velocity": 0.7244094488188977
        },
        {
          "duration": 5.901600000000002,
          "durationTicks": 2880,
          "midi": 48,
          "name": "C3",
          "ticks": 27360,
          "time": 44.2008,
          "velocity": 0.7480314960629921
        },
        {
          "duration": 5.901600000000002,
          "durationTicks": 2880,
          "midi": 57,
          "name": "A3",
          "ticks": 27360,
          "time": 44.2008,
          "velocity": 0.7401574803149606
        },
        {
          "duration": 5.901600000000002,
          "durationTicks": 2880,
          "midi": 65,
          "name": "F4",
          "ticks": 27360,
          "time": 44.2008,
          "velocity": 0.7244094488188977
        }
      ]
    },
    {
      "channel": 0,
      "controlChanges": {},
      "pitchBends": [],
      "instrument": {
        "family": "piano",
        "number": 0,
        "name": "acoustic grand piano"
      },
      "name": "Glockenspiel",
      "notes": [],
      "endOfTrackTicks": 28800
    },
    {
      "channel": 5,
      "controlChanges": {
        "7": [
          {
            "number": 7,
            "ticks": 620,
            "time": 0.96875,
            "value": 0.5511811023622047
          }
        ],
        "10": [
          {
            "number": 10,
            "ticks": 620,
            "time": 0.96875,
            "value": 0.5039370078740157
          }
        ],
        "11": [
          {
            "number": 11,
            "ticks": 620,
            "time": 0.96875,
            "value": 1
          }
        ],
        "91": [
          {
            "number": 91,
            "ticks": 625,
            "time": 0.9765625,
            "value": 0.4251968503937008
          }
        ],
        "93": [
          {
            "number": 93,
            "ticks": 625,
            "time": 0.9765625,
            "value": 0.3464566929133858
          }
        ]
      },
      "pitchBends": [],
      "instrument": {
        "family": "chromatic percussion",
        "number": 9,
        "name": "glockenspiel"
      },
      "name": "",
      "notes": [
        {
          "duration": 0.03125,
          "durationTicks": 20,
          "midi": 72,
          "name": "C5",
          "ticks": 3840,
          "time": 6,
          "velocity": 0.5669291338582677
        },
        {
          "duration": 0.03125,
          "durationTicks": 20,
          "midi": 72,
          "name": "C5",
          "ticks": 4160,
          "time": 6.5,
          "velocity": 0.5905511811023622
        },
        {
          "duration": 0.03125,
          "durationTicks": 20,
          "midi": 74,
          "name": "D5",
          "ticks": 4320,
          "time": 6.75,
          "velocity": 0.6377952755905512
        },
        {
          "duration": 0.03125,
          "durationTicks": 20,
          "midi": 72,
          "name": "C5",
          "ticks": 4800,
          "time": 7.5,
          "velocity": 0.6535433070866141
        },
        {
          "duration": 0.03125,
          "durationTicks": 20,
          "midi": 77,
          "name": "F5",
          "ticks": 5280,
          "time": 8.25,
          "velocity": 0.6929133858267716
        },
        {
          "duration": 0.03125,
          "durationTicks": 20,
          "midi": 76,
          "name": "E5",
          "ticks": 5760,
          "time": 9,
          "velocity": 0.7165354330708661
        },
        {
          "duration": 0.03125,
          "durationTicks": 20,
          "midi": 72,
          "name": "C5",
          "ticks": 6720,
          "time": 10.5,
          "velocity": 0.5984251968503937
        },
        {
          "duration": 0.03125,
          "durationTicks": 20,
          "midi": 72,
          "name": "C5",
          "ticks": 7040,
          "time": 11,
          "velocity": 0.6377952755905512
        },
        {
          "duration": 0.03125,
          "durationTicks": 20,
          "midi": 74,
          "name": "D5",
          "ticks": 7200,
          "time": 11.25,
          "velocity": 0.6692913385826772
        },
        {
          "duration": 0.03125,
          "durationTicks": 20,
          "midi": 72,
          "name": "C5",
          "ticks": 7680,
          "time": 12,
          "velocity": 0.6614173228346457
        },
        {
          "duration": 0.03125,
          "durationTicks": 20,
          "midi": 79,
          "name": "G5",
          "ticks": 8160,
          "time": 12.75,
          "velocity": 0.6850393700787402
        },
        {
          "duration": 0.03125,
          "durationTicks": 20,
          "midi": 77,
          "name": "F5",
          "ticks": 8640,
          "time": 13.5,
          "velocity": 0.6692913385826772
        },
        {
          "duration": 0.03125,
          "durationTicks": 20,
          "midi": 72,
          "name": "C5",
          "ticks": 9600,
          "time": 15,
          "velocity": 0.5669291338582677
        },
        {
          "duration": 0.03125,
          "durationTicks": 20,
          "midi": 72,
          "name": "C5",
          "ticks": 9920,
          "time": 15.5,
          "velocity": 0.5984251968503937
        },
        {
          "duration": 0.03125,
          "durationTicks": 20,
          "midi": 84,
          "name": "C6",
          "ticks": 10080,
          "time": 15.75,
          "velocity": 0.6692913385826772
        },
        {
          "duration": 0.03125,
          "durationTicks": 20,
          "midi": 81,
          "name": "A5",
          "ticks": 10560,
          "time": 16.5,
          "velocity": 0.6614173228346457
        },
        {
          "duration": 0.03125,
          "durationTicks": 20,
          "midi": 77,
          "name": "F5",
          "ticks": 11040,
          "time": 17.25,
          "velocity": 0.6299212598425197
        },
        {
          "duration": 0.03125,
          "durationTicks": 20,
          "midi": 76,
          "name": "E5",
          "ticks": 11520,
          "time": 18,
          "velocity": 0.6299212598425197
        },
        {
          "duration": 0.03125,
          "durationTicks": 20,
          "midi": 74,
          "name": "D5",
          "ticks": 12000,
          "time": 18.75,
          "velocity": 0.6299212598425197
        },
        {
          "duration": 0.03125,
          "durationTicks": 20,
          "midi": 82,
          "name": "A#5",
          "ticks": 12480,
          "time": 19.5,
          "velocity": 0.6456692913385826
        },
        {
          "duration": 0.03125,
          "durationTicks": 20,
          "midi": 82,
          "name": "A#5",
          "ticks": 12800,
          "time": 20,
          "velocity": 0.5669291338582677
        },
        {
          "duration": 0.03125,
          "durationTicks": 20,
          "midi": 81,
          "name": "A5",
          "ticks": 12960,
          "time": 20.25,
          "velocity": 0.5590551181102362
        },
        {
          "duration": 0.03125,
          "durationTicks": 20,
          "midi": 77,
          "name": "F5",
          "ticks": 13440,
          "time": 21,
          "velocity": 0.6299212598425197
        },
        {
          "duration": 0.03125,
          "durationTicks": 20,
          "midi": 76,
          "name": "E5",
          "ticks": 13920,
          "time": 21.75,
          "velocity": 0.6299212598425197
        },
        {
          "duration": 0.03125,
          "durationTicks": 20,
          "midi": 77,
          "name": "F5",
          "ticks": 14400,
          "time": 22.5,
          "velocity": 0.6456692913385826
        },
        {
          "duration": 0.03125,
          "durationTicks": 20,
          "midi": 72,
          "name": "C5",
          "ticks": 15360,
          "time": 24,
          "velocity": 0.6141732283464567
        },
        {
          "duration": 0.03125,
          "durationTicks": 20,
          "midi": 72,
          "name": "C5",
          "ticks": 15680,
          "time": 24.5,
          "velocity": 0.5590551181102362
        },
        {
          "duration": 0.03125,
          "durationTicks": 20,
          "midi": 74,
          "name": "D5",
          "ticks": 15840,
          "time": 24.75,
          "velocity": 0.6299212598425197
        },
        {
          "duration": 0.03125,
          "durationTicks": 20,
          "midi": 72,
          "name": "C5",
          "ticks": 16320,
          "time": 25.5,
          "velocity": 0.6141732283464567
        },
        {
          "duration": 0.03125,
          "durationTicks": 20,
          "midi": 77,
          "name": "F5",
          "ticks": 16800,
          "time": 26.25,
          "velocity": 0.6850393700787402
        },
        {
          "duration": 0.03125,
          "durationTicks": 20,
          "midi": 76,
          "name": "E5",
          "ticks": 17280,
          "time": 27,
          "velocity": 0.6771653543307087
        },
        {
          "duration": 0.03125,
          "durationTicks": 20,
          "midi": 72,
          "name": "C5",
          "ticks": 18240,
          "time": 28.5,
          "velocity": 0.5669291338582677
        },
        {
          "duration": 0.03125,
          "durationTicks": 20,
          "midi": 72,
          "name": "C5",
          "ticks": 18560,
          "time": 29,
          "velocity": 0.5748031496062992
        },
        {
          "duration": 0.03125,
          "durationTicks": 20,
          "midi": 74,
          "name": "D5",
          "ticks": 18720,
          "time": 29.25,
          "velocity": 0.6614173228346457
        },
        {
          "duration": 0.03125,
          "durationTicks": 20,
          "midi": 72,
          "name": "C5",
          "ticks": 19200,
          "time": 30,
          "velocity": 0.4881889763779528
        },
        {
          "duration": 0.03125,
          "durationTicks": 20,
          "midi": 79,
          "name": "G5",
          "ticks": 19680,
          "time": 30.75,
          "velocity": 0.7086614173228346
        },
        {
          "duration": 0.03125,
          "durationTicks": 20,
          "midi": 77,
          "name": "F5",
          "ticks": 20160,
          "time": 31.5,
          "velocity": 0.7086614173228346
        },
        {
          "duration": 0.03125,
          "durationTicks": 20,
          "midi": 72,
          "name": "C5",
          "ticks": 21120,
          "time": 33,
          "velocity": 0.6377952755905512
        },
        {
          "duration": 0.03125,
          "durationTicks": 20,
          "midi": 72,
          "name": "C5",
          "ticks": 21440,
          "time": 33.5,
          "velocity": 0.4881889763779528
        },
        {
          "duration": 0.03125,
          "durationTicks": 20,
          "midi": 84,
          "name": "C6",
          "ticks": 21600,
          "time": 33.75,
          "velocity": 0.5354330708661418
        },
        {
          "duration": 0.03125,
          "durationTicks": 20,
          "midi": 81,
          "name": "A5",
          "ticks": 22080,
          "time": 34.5,
          "velocity": 0.6850393700787402
        },
        {
          "duration": 0.03125,
          "durationTicks": 20,
          "midi": 77,
          "name": "F5",
          "ticks": 22560,
          "time": 35.25,
          "velocity": 0.6377952755905512
        },
        {
          "duration": 0.03125,
          "durationTicks": 20,
          "midi": 76,
          "name": "E5",
          "ticks": 23040,
          "time": 36,
          "velocity": 0.6141732283464567
        },
        {
          "duration": 0.03125,
          "durationTicks": 20,
          "midi": 74,
          "name": "D5",
          "ticks": 23520,
          "time": 36.75,
          "velocity": 0.6850393700787402
        },
        {
          "duration": 0.0625,
          "durationTicks": 20,
          "midi": 82,
          "name": "A#5",
          "ticks": 25440,
          "time": 39.75,
          "velocity": 0.6062992125984252
        },
        {
          "duration": 0.0625,
          "durationTicks": 20,
          "midi": 82,
          "name": "A#5",
          "ticks": 25760,
          "time": 40.75,
          "velocity": 0.6062992125984252
        },
        {
          "duration": 0.0409833333333367,
          "durationTicks": 20,
          "midi": 81,
          "name": "A5",
          "ticks": 25920,
          "time": 41.25,
          "velocity": 0.6299212598425197
        },
        {
          "duration": 0.0409833333333296,
          "durationTicks": 20,
          "midi": 77,
          "name": "F5",
          "ticks": 26400,
          "time": 42.2336,
          "velocity": 0.6535433070866141
        },
        {
          "duration": 0.0409833333333367,
          "durationTicks": 20,
          "midi": 79,
          "name": "G5",
          "ticks": 26880,
          "time": 43.2172,
          "velocity": 0.6535433070866141
        },
        {
          "duration": 0.0409833333333296,
          "durationTicks": 20,
          "midi": 77,
          "name": "F5",
          "ticks": 27360,
          "time": 44.2008,
          "velocity": 0.6062992125984252
        }
      ]
    }
  ]
}